<?xml version="1.0" encoding="utf-8" standalone="no"?>
<!DOCTYPE svg PUBLIC "-//W3C//DTD SVG 1.1//EN"
  "http://www.w3.org/Graphics/SVG/1.1/DTD/svg11.dtd">
<svg xmlns:xlink="http://www.w3.org/1999/xlink" width="710.741988pt" height="711.02175pt" viewBox="0 0 710.741988 711.02175" xmlns="http://www.w3.org/2000/svg" version="1.1">
 <metadata>
  <rdf:RDF xmlns:dc="http://purl.org/dc/elements/1.1/" xmlns:cc="http://creativecommons.org/ns#" xmlns:rdf="http://www.w3.org/1999/02/22-rdf-syntax-ns#">
   <cc:Work>
    <dc:type rdf:resource="http://purl.org/dc/dcmitype/StillImage"/>
    <dc:date>2025-02-05T17:09:30.025160</dc:date>
    <dc:format>image/svg+xml</dc:format>
    <dc:creator>
     <cc:Agent>
      <dc:title>Matplotlib v3.9.3, https://matplotlib.org/</dc:title>
     </cc:Agent>
    </dc:creator>
   </cc:Work>
  </rdf:RDF>
 </metadata>
 <defs>
  <style type="text/css">*{stroke-linejoin: round; stroke-linecap: butt}</style>
 </defs>
 <g id="figure_1">
  <g id="patch_1">
   <path d="M 0 711.02175 
L 710.741988 711.02175 
L 710.741988 0 
L 0 0 
z
" style="fill: #ffffff"/>
  </g>
  <g id="axes_1">
   <g id="patch_2">
    <path d="M 79.5 640.3905 
L 703.541988 640.3905 
L 703.541988 39.1875 
L 79.5 39.1875 
z
" style="fill: #ffffff"/>
   </g>
   <g id="matplotlib.axis_1">
    <g id="xtick_1">
     <g id="line2d_1">
      <defs>
       <path id="m6dc410cac9" d="M 0 0 
L 0 -3.5 
" style="stroke: #000000; stroke-width: 0.8"/>
      </defs>
      <g>
       <use xlink:href="#m6dc410cac9" x="107.808808" y="640.3905" style="stroke: #000000; stroke-width: 0.8"/>
      </g>
     </g>
     <g id="text_1">
      <!-- 0 -->
      <g transform="translate(99.467402 665.631125) scale(0.3 -0.3)">
       <defs>
        <path id="LiberationSans-30" d="M 3309 2203 
Q 3309 1100 2920 518 
Q 2531 -63 1772 -63 
Q 1013 -63 631 515 
Q 250 1094 250 2203 
Q 250 3338 620 3903 
Q 991 4469 1791 4469 
Q 2569 4469 2939 3897 
Q 3309 3325 3309 2203 
z
M 2738 2203 
Q 2738 3156 2517 3584 
Q 2297 4013 1791 4013 
Q 1272 4013 1045 3591 
Q 819 3169 819 2203 
Q 819 1266 1048 831 
Q 1278 397 1778 397 
Q 2275 397 2506 840 
Q 2738 1284 2738 2203 
z
" transform="scale(0.015625)"/>
       </defs>
       <use xlink:href="#LiberationSans-30"/>
      </g>
     </g>
    </g>
    <g id="xtick_2">
     <g id="line2d_2">
      <g>
       <use xlink:href="#m6dc410cac9" x="221.282335" y="640.3905" style="stroke: #000000; stroke-width: 0.8"/>
      </g>
     </g>
     <g id="text_2">
      <!-- 2 -->
      <g transform="translate(212.940929 665.631125) scale(0.3 -0.3)">
       <defs>
        <path id="LiberationSans-32" d="M 322 0 
L 322 397 
Q 481 763 711 1042 
Q 941 1322 1194 1548 
Q 1447 1775 1695 1969 
Q 1944 2163 2144 2356 
Q 2344 2550 2467 2762 
Q 2591 2975 2591 3244 
Q 2591 3606 2378 3806 
Q 2166 4006 1788 4006 
Q 1428 4006 1195 3811 
Q 963 3616 922 3263 
L 347 3316 
Q 409 3844 795 4156 
Q 1181 4469 1788 4469 
Q 2453 4469 2811 4155 
Q 3169 3841 3169 3263 
Q 3169 3006 3051 2753 
Q 2934 2500 2703 2247 
Q 2472 1994 1819 1463 
Q 1459 1169 1246 933 
Q 1034 697 941 478 
L 3238 478 
L 3238 0 
L 322 0 
z
" transform="scale(0.015625)"/>
       </defs>
       <use xlink:href="#LiberationSans-32"/>
      </g>
     </g>
    </g>
    <g id="xtick_3">
     <g id="line2d_3">
      <g>
       <use xlink:href="#m6dc410cac9" x="334.755862" y="640.3905" style="stroke: #000000; stroke-width: 0.8"/>
      </g>
     </g>
     <g id="text_3">
      <!-- 4 -->
      <g transform="translate(326.414456 665.631125) scale(0.3 -0.3)">
       <defs>
        <path id="LiberationSans-34" d="M 2753 997 
L 2753 0 
L 2222 0 
L 2222 997 
L 147 997 
L 147 1434 
L 2163 4403 
L 2753 4403 
L 2753 1441 
L 3372 1441 
L 3372 997 
L 2753 997 
z
M 2222 3769 
Q 2216 3750 2134 3603 
Q 2053 3456 2013 3397 
L 884 1734 
L 716 1503 
L 666 1441 
L 2222 1441 
L 2222 3769 
z
" transform="scale(0.015625)"/>
       </defs>
       <use xlink:href="#LiberationSans-34"/>
      </g>
     </g>
    </g>
    <g id="xtick_4">
     <g id="line2d_4">
      <g>
       <use xlink:href="#m6dc410cac9" x="448.229389" y="640.3905" style="stroke: #000000; stroke-width: 0.8"/>
      </g>
     </g>
     <g id="text_4">
      <!-- 6 -->
      <g transform="translate(439.887983 665.631125) scale(0.3 -0.3)">
       <defs>
        <path id="LiberationSans-36" d="M 3278 1441 
Q 3278 744 2900 340 
Q 2522 -63 1856 -63 
Q 1113 -63 719 490 
Q 325 1044 325 2100 
Q 325 3244 734 3856 
Q 1144 4469 1900 4469 
Q 2897 4469 3156 3572 
L 2619 3475 
Q 2453 4013 1894 4013 
Q 1413 4013 1148 3564 
Q 884 3116 884 2266 
Q 1038 2550 1316 2698 
Q 1594 2847 1953 2847 
Q 2563 2847 2920 2465 
Q 3278 2084 3278 1441 
z
M 2706 1416 
Q 2706 1894 2472 2153 
Q 2238 2413 1819 2413 
Q 1425 2413 1183 2183 
Q 941 1953 941 1550 
Q 941 1041 1192 716 
Q 1444 391 1838 391 
Q 2244 391 2475 664 
Q 2706 938 2706 1416 
z
" transform="scale(0.015625)"/>
       </defs>
       <use xlink:href="#LiberationSans-36"/>
      </g>
     </g>
    </g>
    <g id="xtick_5">
     <g id="line2d_5">
      <g>
       <use xlink:href="#m6dc410cac9" x="561.702916" y="640.3905" style="stroke: #000000; stroke-width: 0.8"/>
      </g>
     </g>
     <g id="text_5">
      <!-- 8 -->
      <g transform="translate(553.36151 665.631125) scale(0.3 -0.3)">
       <defs>
        <path id="LiberationSans-38" d="M 3281 1228 
Q 3281 619 2893 278 
Q 2506 -63 1781 -63 
Q 1075 -63 676 271 
Q 278 606 278 1222 
Q 278 1653 525 1947 
Q 772 2241 1156 2303 
L 1156 2316 
Q 797 2400 589 2681 
Q 381 2963 381 3341 
Q 381 3844 757 4156 
Q 1134 4469 1769 4469 
Q 2419 4469 2795 4162 
Q 3172 3856 3172 3334 
Q 3172 2956 2962 2675 
Q 2753 2394 2391 2322 
L 2391 2309 
Q 2813 2241 3047 1952 
Q 3281 1663 3281 1228 
z
M 2588 3303 
Q 2588 4050 1769 4050 
Q 1372 4050 1164 3862 
Q 956 3675 956 3303 
Q 956 2925 1170 2726 
Q 1384 2528 1775 2528 
Q 2172 2528 2380 2711 
Q 2588 2894 2588 3303 
z
M 2697 1281 
Q 2697 1691 2453 1898 
Q 2209 2106 1769 2106 
Q 1341 2106 1100 1882 
Q 859 1659 859 1269 
Q 859 359 1788 359 
Q 2247 359 2472 579 
Q 2697 800 2697 1281 
z
" transform="scale(0.015625)"/>
       </defs>
       <use xlink:href="#LiberationSans-38"/>
      </g>
     </g>
    </g>
    <g id="xtick_6">
     <g id="line2d_6">
      <g>
       <use xlink:href="#m6dc410cac9" x="675.176443" y="640.3905" style="stroke: #000000; stroke-width: 0.8"/>
      </g>
     </g>
     <g id="text_6">
      <!-- 10 -->
      <g transform="translate(658.493631 665.631125) scale(0.3 -0.3)">
       <defs>
        <path id="LiberationSans-31" d="M 488 0 
L 488 478 
L 1609 478 
L 1609 3866 
L 616 3156 
L 616 3688 
L 1656 4403 
L 2175 4403 
L 2175 478 
L 3247 478 
L 3247 0 
L 488 0 
z
" transform="scale(0.015625)"/>
       </defs>
       <use xlink:href="#LiberationSans-31"/>
       <use xlink:href="#LiberationSans-30" x="55.615234"/>
      </g>
     </g>
    </g>
    <g id="xtick_7">
     <g id="line2d_7">
      <defs>
       <path id="m6847abac89" d="M 0 0 
L 0 -2 
" style="stroke: #000000; stroke-width: 0.6"/>
      </defs>
      <g>
       <use xlink:href="#m6847abac89" x="136.17719" y="640.3905" style="stroke: #000000; stroke-width: 0.6"/>
      </g>
     </g>
    </g>
    <g id="xtick_8">
     <g id="line2d_8">
      <g>
       <use xlink:href="#m6847abac89" x="164.545572" y="640.3905" style="stroke: #000000; stroke-width: 0.6"/>
      </g>
     </g>
    </g>
    <g id="xtick_9">
     <g id="line2d_9">
      <g>
       <use xlink:href="#m6847abac89" x="192.913953" y="640.3905" style="stroke: #000000; stroke-width: 0.6"/>
      </g>
     </g>
    </g>
    <g id="xtick_10">
     <g id="line2d_10">
      <g>
       <use xlink:href="#m6847abac89" x="249.650717" y="640.3905" style="stroke: #000000; stroke-width: 0.6"/>
      </g>
     </g>
    </g>
    <g id="xtick_11">
     <g id="line2d_11">
      <g>
       <use xlink:href="#m6847abac89" x="278.019099" y="640.3905" style="stroke: #000000; stroke-width: 0.6"/>
      </g>
     </g>
    </g>
    <g id="xtick_12">
     <g id="line2d_12">
      <g>
       <use xlink:href="#m6847abac89" x="306.38748" y="640.3905" style="stroke: #000000; stroke-width: 0.6"/>
      </g>
     </g>
    </g>
    <g id="xtick_13">
     <g id="line2d_13">
      <g>
       <use xlink:href="#m6847abac89" x="363.124244" y="640.3905" style="stroke: #000000; stroke-width: 0.6"/>
      </g>
     </g>
    </g>
    <g id="xtick_14">
     <g id="line2d_14">
      <g>
       <use xlink:href="#m6847abac89" x="391.492626" y="640.3905" style="stroke: #000000; stroke-width: 0.6"/>
      </g>
     </g>
    </g>
    <g id="xtick_15">
     <g id="line2d_15">
      <g>
       <use xlink:href="#m6847abac89" x="419.861008" y="640.3905" style="stroke: #000000; stroke-width: 0.6"/>
      </g>
     </g>
    </g>
    <g id="xtick_16">
     <g id="line2d_16">
      <g>
       <use xlink:href="#m6847abac89" x="476.597771" y="640.3905" style="stroke: #000000; stroke-width: 0.6"/>
      </g>
     </g>
    </g>
    <g id="xtick_17">
     <g id="line2d_17">
      <g>
       <use xlink:href="#m6847abac89" x="504.966153" y="640.3905" style="stroke: #000000; stroke-width: 0.6"/>
      </g>
     </g>
    </g>
    <g id="xtick_18">
     <g id="line2d_18">
      <g>
       <use xlink:href="#m6847abac89" x="533.334535" y="640.3905" style="stroke: #000000; stroke-width: 0.6"/>
      </g>
     </g>
    </g>
    <g id="xtick_19">
     <g id="line2d_19">
      <g>
       <use xlink:href="#m6847abac89" x="590.071298" y="640.3905" style="stroke: #000000; stroke-width: 0.6"/>
      </g>
     </g>
    </g>
    <g id="xtick_20">
     <g id="line2d_20">
      <g>
       <use xlink:href="#m6847abac89" x="618.43968" y="640.3905" style="stroke: #000000; stroke-width: 0.6"/>
      </g>
     </g>
    </g>
    <g id="xtick_21">
     <g id="line2d_21">
      <g>
       <use xlink:href="#m6847abac89" x="646.808062" y="640.3905" style="stroke: #000000; stroke-width: 0.6"/>
      </g>
     </g>
    </g>
    <g id="text_7">
     <!-- Time ps -->
     <g transform="translate(338.744432 697.59675) scale(0.3 -0.3)">
      <defs>
       <path id="LiberationSans-54" d="M 2250 3916 
L 2250 0 
L 1656 0 
L 1656 3916 
L 144 3916 
L 144 4403 
L 3763 4403 
L 3763 3916 
L 2250 3916 
z
" transform="scale(0.015625)"/>
       <path id="LiberationSans-69" d="M 428 4100 
L 428 4638 
L 991 4638 
L 991 4100 
L 428 4100 
z
M 428 0 
L 428 3381 
L 991 3381 
L 991 0 
L 428 0 
z
" transform="scale(0.015625)"/>
       <path id="LiberationSans-6d" d="M 2400 0 
L 2400 2144 
Q 2400 2634 2265 2821 
Q 2131 3009 1781 3009 
Q 1422 3009 1212 2734 
Q 1003 2459 1003 1959 
L 1003 0 
L 444 0 
L 444 2659 
Q 444 3250 425 3381 
L 956 3381 
Q 959 3366 962 3297 
Q 966 3228 970 3139 
Q 975 3050 981 2803 
L 991 2803 
Q 1172 3163 1406 3303 
Q 1641 3444 1978 3444 
Q 2363 3444 2586 3291 
Q 2809 3138 2897 2803 
L 2906 2803 
Q 3081 3144 3329 3294 
Q 3578 3444 3931 3444 
Q 4444 3444 4676 3166 
Q 4909 2888 4909 2253 
L 4909 0 
L 4353 0 
L 4353 2144 
Q 4353 2634 4218 2821 
Q 4084 3009 3734 3009 
Q 3366 3009 3161 2736 
Q 2956 2463 2956 1959 
L 2956 0 
L 2400 0 
z
" transform="scale(0.015625)"/>
       <path id="LiberationSans-65" d="M 863 1572 
Q 863 991 1103 675 
Q 1344 359 1806 359 
Q 2172 359 2392 506 
Q 2613 653 2691 878 
L 3184 738 
Q 2881 -63 1806 -63 
Q 1056 -63 664 384 
Q 272 831 272 1713 
Q 272 2550 664 2997 
Q 1056 3444 1784 3444 
Q 3275 3444 3275 1647 
L 3275 1572 
L 863 1572 
z
M 2694 2003 
Q 2647 2538 2422 2783 
Q 2197 3028 1775 3028 
Q 1366 3028 1127 2754 
Q 888 2481 869 2003 
L 2694 2003 
z
" transform="scale(0.015625)"/>
       <path id="LiberationSans-20" transform="scale(0.015625)"/>
       <path id="LiberationSans-70" d="M 3291 1706 
Q 3291 -63 2047 -63 
Q 1266 -63 997 525 
L 981 525 
Q 994 500 994 -6 
L 994 -1328 
L 431 -1328 
L 431 2691 
Q 431 3213 413 3381 
L 956 3381 
Q 959 3369 965 3292 
Q 972 3216 980 3056 
Q 988 2897 988 2838 
L 1000 2838 
Q 1150 3150 1397 3295 
Q 1644 3441 2047 3441 
Q 2672 3441 2981 3022 
Q 3291 2603 3291 1706 
z
M 2700 1694 
Q 2700 2400 2509 2703 
Q 2319 3006 1903 3006 
Q 1569 3006 1380 2865 
Q 1191 2725 1092 2426 
Q 994 2128 994 1650 
Q 994 984 1206 668 
Q 1419 353 1897 353 
Q 2316 353 2508 661 
Q 2700 969 2700 1694 
z
" transform="scale(0.015625)"/>
       <path id="LiberationSans-73" d="M 2969 934 
Q 2969 456 2608 196 
Q 2247 -63 1597 -63 
Q 966 -63 623 145 
Q 281 353 178 794 
L 675 891 
Q 747 619 972 492 
Q 1197 366 1597 366 
Q 2025 366 2223 497 
Q 2422 628 2422 891 
Q 2422 1091 2284 1216 
Q 2147 1341 1841 1422 
L 1438 1528 
Q 953 1653 748 1773 
Q 544 1894 428 2066 
Q 313 2238 313 2488 
Q 313 2950 642 3192 
Q 972 3434 1603 3434 
Q 2163 3434 2492 3237 
Q 2822 3041 2909 2606 
L 2403 2544 
Q 2356 2769 2151 2889 
Q 1947 3009 1603 3009 
Q 1222 3009 1040 2893 
Q 859 2778 859 2544 
Q 859 2400 934 2306 
Q 1009 2213 1156 2147 
Q 1303 2081 1775 1966 
Q 2222 1853 2419 1758 
Q 2616 1663 2730 1547 
Q 2844 1431 2906 1279 
Q 2969 1128 2969 934 
z
" transform="scale(0.015625)"/>
      </defs>
      <use xlink:href="#LiberationSans-54"/>
      <use xlink:href="#LiberationSans-69" x="57.333984"/>
      <use xlink:href="#LiberationSans-6d" x="79.550781"/>
      <use xlink:href="#LiberationSans-65" x="162.851562"/>
      <use xlink:href="#LiberationSans-20" x="218.466797"/>
      <use xlink:href="#LiberationSans-70" x="246.25"/>
      <use xlink:href="#LiberationSans-73" x="301.865234"/>
     </g>
    </g>
   </g>
   <g id="matplotlib.axis_2">
    <g id="ytick_1">
     <g id="line2d_22">
      <defs>
       <path id="m827ab24098" d="M 0 0 
L 3.5 0 
" style="stroke: #000000; stroke-width: 0.8"/>
      </defs>
      <g>
       <use xlink:href="#m827ab24098" x="79.5" y="581.699746" style="stroke: #000000; stroke-width: 0.8"/>
      </g>
     </g>
     <g id="text_8">
      <!-- $\mathdefault{−1}$ -->
      <g transform="translate(41.5 592.570059) scale(0.3 -0.3)">
       <defs>
        <path id="LiberationSans-2212" d="M 316 1900 
L 316 2356 
L 3425 2356 
L 3425 1900 
L 316 1900 
z
" transform="scale(0.015625)"/>
       </defs>
       <use xlink:href="#LiberationSans-2212" transform="translate(0 0.203125)"/>
       <use xlink:href="#LiberationSans-31" transform="translate(58.398438 0.203125)"/>
      </g>
     </g>
    </g>
    <g id="ytick_2">
     <g id="line2d_23">
      <g>
       <use xlink:href="#m827ab24098" x="79.5" y="474.624851" style="stroke: #000000; stroke-width: 0.8"/>
      </g>
     </g>
     <g id="text_9">
      <!-- $\mathdefault{0}$ -->
      <g transform="translate(59.2 485.495164) scale(0.3 -0.3)">
       <use xlink:href="#LiberationSans-30" transform="translate(0 0.171875)"/>
      </g>
     </g>
    </g>
    <g id="ytick_3">
     <g id="line2d_24">
      <g>
       <use xlink:href="#m827ab24098" x="79.5" y="367.549956" style="stroke: #000000; stroke-width: 0.8"/>
      </g>
     </g>
     <g id="text_10">
      <!-- $\mathdefault{1}$ -->
      <g transform="translate(59.2 378.420269) scale(0.3 -0.3)">
       <use xlink:href="#LiberationSans-31" transform="translate(0 0.203125)"/>
      </g>
     </g>
    </g>
    <g id="ytick_4">
     <g id="line2d_25">
      <g>
       <use xlink:href="#m827ab24098" x="79.5" y="260.475061" style="stroke: #000000; stroke-width: 0.8"/>
      </g>
     </g>
     <g id="text_11">
      <!-- $\mathdefault{2}$ -->
      <g transform="translate(59.2 271.345374) scale(0.3 -0.3)">
       <use xlink:href="#LiberationSans-32" transform="translate(0 0.171875)"/>
      </g>
     </g>
    </g>
    <g id="ytick_5">
     <g id="line2d_26">
      <g>
       <use xlink:href="#m827ab24098" x="79.5" y="153.400166" style="stroke: #000000; stroke-width: 0.8"/>
      </g>
     </g>
     <g id="text_12">
      <!-- $\mathdefault{3}$ -->
      <g transform="translate(59.2 164.270478) scale(0.3 -0.3)">
       <defs>
        <path id="LiberationSans-33" d="M 3278 1216 
Q 3278 606 2890 271 
Q 2503 -63 1784 -63 
Q 1116 -63 717 239 
Q 319 541 244 1131 
L 825 1184 
Q 938 403 1784 403 
Q 2209 403 2451 612 
Q 2694 822 2694 1234 
Q 2694 1594 2417 1795 
Q 2141 1997 1619 1997 
L 1300 1997 
L 1300 2484 
L 1606 2484 
Q 2069 2484 2323 2686 
Q 2578 2888 2578 3244 
Q 2578 3597 2370 3801 
Q 2163 4006 1753 4006 
Q 1381 4006 1151 3815 
Q 922 3625 884 3278 
L 319 3322 
Q 381 3863 767 4166 
Q 1153 4469 1759 4469 
Q 2422 4469 2789 4161 
Q 3156 3853 3156 3303 
Q 3156 2881 2920 2617 
Q 2684 2353 2234 2259 
L 2234 2247 
Q 2728 2194 3003 1916 
Q 3278 1638 3278 1216 
z
" transform="scale(0.015625)"/>
       </defs>
       <use xlink:href="#LiberationSans-33" transform="translate(0 0.171875)"/>
      </g>
     </g>
    </g>
    <g id="ytick_6">
     <g id="line2d_27">
      <g>
       <use xlink:href="#m827ab24098" x="79.5" y="46.325271" style="stroke: #000000; stroke-width: 0.8"/>
      </g>
     </g>
     <g id="text_13">
      <!-- $\mathdefault{4}$ -->
      <g transform="translate(59.2 57.195583) scale(0.3 -0.3)">
       <use xlink:href="#LiberationSans-34" transform="translate(0 0.203125)"/>
      </g>
     </g>
    </g>
    <g id="ytick_7">
     <g id="line2d_28">
      <defs>
       <path id="m4aa4c5c67f" d="M 0 0 
L 2 0 
" style="stroke: #000000; stroke-width: 0.6"/>
      </defs>
      <g>
       <use xlink:href="#m4aa4c5c67f" x="79.5" y="624.529704" style="stroke: #000000; stroke-width: 0.6"/>
      </g>
     </g>
    </g>
    <g id="ytick_8">
     <g id="line2d_29">
      <g>
       <use xlink:href="#m4aa4c5c67f" x="79.5" y="603.114725" style="stroke: #000000; stroke-width: 0.6"/>
      </g>
     </g>
    </g>
    <g id="ytick_9">
     <g id="line2d_30">
      <g>
       <use xlink:href="#m4aa4c5c67f" x="79.5" y="560.284767" style="stroke: #000000; stroke-width: 0.6"/>
      </g>
     </g>
    </g>
    <g id="ytick_10">
     <g id="line2d_31">
      <g>
       <use xlink:href="#m4aa4c5c67f" x="79.5" y="538.869788" style="stroke: #000000; stroke-width: 0.6"/>
      </g>
     </g>
    </g>
    <g id="ytick_11">
     <g id="line2d_32">
      <g>
       <use xlink:href="#m4aa4c5c67f" x="79.5" y="517.454809" style="stroke: #000000; stroke-width: 0.6"/>
      </g>
     </g>
    </g>
    <g id="ytick_12">
     <g id="line2d_33">
      <g>
       <use xlink:href="#m4aa4c5c67f" x="79.5" y="496.03983" style="stroke: #000000; stroke-width: 0.6"/>
      </g>
     </g>
    </g>
    <g id="ytick_13">
     <g id="line2d_34">
      <g>
       <use xlink:href="#m4aa4c5c67f" x="79.5" y="453.209872" style="stroke: #000000; stroke-width: 0.6"/>
      </g>
     </g>
    </g>
    <g id="ytick_14">
     <g id="line2d_35">
      <g>
       <use xlink:href="#m4aa4c5c67f" x="79.5" y="431.794893" style="stroke: #000000; stroke-width: 0.6"/>
      </g>
     </g>
    </g>
    <g id="ytick_15">
     <g id="line2d_36">
      <g>
       <use xlink:href="#m4aa4c5c67f" x="79.5" y="410.379914" style="stroke: #000000; stroke-width: 0.6"/>
      </g>
     </g>
    </g>
    <g id="ytick_16">
     <g id="line2d_37">
      <g>
       <use xlink:href="#m4aa4c5c67f" x="79.5" y="388.964935" style="stroke: #000000; stroke-width: 0.6"/>
      </g>
     </g>
    </g>
    <g id="ytick_17">
     <g id="line2d_38">
      <g>
       <use xlink:href="#m4aa4c5c67f" x="79.5" y="346.134977" style="stroke: #000000; stroke-width: 0.6"/>
      </g>
     </g>
    </g>
    <g id="ytick_18">
     <g id="line2d_39">
      <g>
       <use xlink:href="#m4aa4c5c67f" x="79.5" y="324.719998" style="stroke: #000000; stroke-width: 0.6"/>
      </g>
     </g>
    </g>
    <g id="ytick_19">
     <g id="line2d_40">
      <g>
       <use xlink:href="#m4aa4c5c67f" x="79.5" y="303.305019" style="stroke: #000000; stroke-width: 0.6"/>
      </g>
     </g>
    </g>
    <g id="ytick_20">
     <g id="line2d_41">
      <g>
       <use xlink:href="#m4aa4c5c67f" x="79.5" y="281.89004" style="stroke: #000000; stroke-width: 0.6"/>
      </g>
     </g>
    </g>
    <g id="ytick_21">
     <g id="line2d_42">
      <g>
       <use xlink:href="#m4aa4c5c67f" x="79.5" y="239.060082" style="stroke: #000000; stroke-width: 0.6"/>
      </g>
     </g>
    </g>
    <g id="ytick_22">
     <g id="line2d_43">
      <g>
       <use xlink:href="#m4aa4c5c67f" x="79.5" y="217.645103" style="stroke: #000000; stroke-width: 0.6"/>
      </g>
     </g>
    </g>
    <g id="ytick_23">
     <g id="line2d_44">
      <g>
       <use xlink:href="#m4aa4c5c67f" x="79.5" y="196.230124" style="stroke: #000000; stroke-width: 0.6"/>
      </g>
     </g>
    </g>
    <g id="ytick_24">
     <g id="line2d_45">
      <g>
       <use xlink:href="#m4aa4c5c67f" x="79.5" y="174.815145" style="stroke: #000000; stroke-width: 0.6"/>
      </g>
     </g>
    </g>
    <g id="ytick_25">
     <g id="line2d_46">
      <g>
       <use xlink:href="#m4aa4c5c67f" x="79.5" y="131.985187" style="stroke: #000000; stroke-width: 0.6"/>
      </g>
     </g>
    </g>
    <g id="ytick_26">
     <g id="line2d_47">
      <g>
       <use xlink:href="#m4aa4c5c67f" x="79.5" y="110.570208" style="stroke: #000000; stroke-width: 0.6"/>
      </g>
     </g>
    </g>
    <g id="ytick_27">
     <g id="line2d_48">
      <g>
       <use xlink:href="#m4aa4c5c67f" x="79.5" y="89.155229" style="stroke: #000000; stroke-width: 0.6"/>
      </g>
     </g>
    </g>
    <g id="ytick_28">
     <g id="line2d_49">
      <g>
       <use xlink:href="#m4aa4c5c67f" x="79.5" y="67.74025" style="stroke: #000000; stroke-width: 0.6"/>
      </g>
     </g>
    </g>
    <g id="text_14">
     <!-- ACF $(\mathrm{W} / \mathrm{m}^2)^2$ -->
     <g transform="translate(31.275 426.339) rotate(-90) scale(0.3 -0.3)">
      <defs>
       <path id="LiberationSans-41" d="M 3647 0 
L 3144 1288 
L 1138 1288 
L 631 0 
L 13 0 
L 1809 4403 
L 2488 4403 
L 4256 0 
L 3647 0 
z
M 2141 3953 
L 2113 3866 
Q 2034 3606 1881 3200 
L 1319 1753 
L 2966 1753 
L 2400 3206 
Q 2313 3422 2225 3694 
L 2141 3953 
z
" transform="scale(0.015625)"/>
       <path id="LiberationSans-43" d="M 2475 3981 
Q 1744 3981 1337 3511 
Q 931 3041 931 2222 
Q 931 1413 1354 920 
Q 1778 428 2500 428 
Q 3425 428 3891 1344 
L 4378 1100 
Q 4106 531 3614 234 
Q 3122 -63 2472 -63 
Q 1806 -63 1320 214 
Q 834 491 579 1005 
Q 325 1519 325 2222 
Q 325 3275 894 3872 
Q 1463 4469 2469 4469 
Q 3172 4469 3644 4194 
Q 4116 3919 4338 3378 
L 3772 3191 
Q 3619 3575 3280 3778 
Q 2941 3981 2475 3981 
z
" transform="scale(0.015625)"/>
       <path id="LiberationSans-46" d="M 1122 3916 
L 1122 2278 
L 3578 2278 
L 3578 1784 
L 1122 1784 
L 1122 0 
L 525 0 
L 525 4403 
L 3653 4403 
L 3653 3916 
L 1122 3916 
z
" transform="scale(0.015625)"/>
       <path id="STIXGeneral-Regular-28" d="M 1946 -1030 
L 1869 -1133 
Q 1126 -710 716 32 
Q 307 774 307 1613 
Q 307 3386 1888 4326 
L 1946 4224 
Q 1293 3667 1075 3126 
Q 858 2586 858 1632 
Q 858 685 1082 96 
Q 1306 -493 1946 -1030 
z
" transform="scale(0.015625)"/>
       <path id="STIXGeneral-Regular-57" d="M 5965 4237 
L 5965 4115 
Q 5709 4064 5616 3990 
Q 5523 3917 5434 3667 
Q 4704 1709 4128 -70 
L 4032 -70 
Q 3642 1011 3008 2637 
L 2022 -70 
L 1926 -70 
Q 1709 576 1277 1753 
Q 845 2931 698 3347 
Q 538 3808 406 3958 
Q 275 4109 32 4115 
L 32 4237 
L 1594 4237 
L 1594 4115 
Q 1357 4109 1270 4064 
Q 1184 4019 1184 3917 
Q 1184 3808 1254 3616 
L 2176 1210 
L 2842 3021 
L 2662 3501 
Q 2509 3917 2400 4013 
Q 2291 4109 2010 4115 
L 2010 4237 
L 3706 4237 
L 3706 4115 
Q 3213 4102 3213 3891 
Q 3213 3808 3322 3520 
L 4237 1190 
L 5043 3360 
Q 5152 3667 5152 3853 
Q 5152 4109 4704 4115 
L 4704 4237 
L 5965 4237 
z
" transform="scale(0.015625)"/>
       <path id="STIXGeneral-Regular-2f" d="M 1837 4326 
L 378 -90 
L -58 -90 
L 1408 4326 
L 1837 4326 
z
" transform="scale(0.015625)"/>
       <path id="STIXGeneral-Regular-6d" d="M 4960 0 
L 3565 0 
L 3565 96 
Q 3834 122 3907 208 
Q 3981 294 3981 576 
L 3981 1894 
Q 3981 2278 3869 2444 
Q 3757 2611 3488 2611 
Q 3264 2611 3107 2521 
Q 2950 2432 2803 2221 
L 2803 608 
Q 2803 301 2896 201 
Q 2989 102 3264 96 
L 3264 0 
L 1830 0 
L 1830 96 
Q 2112 115 2189 188 
Q 2266 262 2266 550 
L 2266 1901 
Q 2266 2611 1850 2611 
Q 1670 2611 1468 2531 
Q 1267 2451 1171 2336 
Q 1088 2240 1088 2227 
L 1088 448 
Q 1088 243 1177 176 
Q 1267 109 1523 96 
L 1523 0 
L 102 0 
L 102 96 
Q 371 102 460 195 
Q 550 288 550 563 
L 550 2150 
Q 550 2387 499 2480 
Q 448 2573 326 2573 
Q 230 2573 122 2547 
L 122 2656 
Q 557 2778 1011 2944 
L 1062 2925 
L 1062 2451 
L 1075 2451 
Q 1363 2752 1584 2848 
Q 1805 2944 2054 2944 
Q 2560 2944 2733 2406 
Q 3232 2944 3776 2944 
Q 4518 2944 4518 1792 
L 4518 493 
Q 4518 282 4582 202 
Q 4646 122 4794 109 
L 4960 96 
L 4960 0 
z
" transform="scale(0.015625)"/>
       <path id="STIXGeneral-Regular-32" d="M 3034 877 
L 2688 0 
L 186 0 
L 186 77 
L 1325 1286 
Q 1773 1754 1965 2144 
Q 2157 2534 2157 2950 
Q 2157 3379 1920 3616 
Q 1683 3853 1267 3853 
Q 922 3853 720 3673 
Q 518 3494 326 3021 
L 192 3053 
Q 301 3648 630 3987 
Q 960 4326 1523 4326 
Q 2054 4326 2380 4006 
Q 2707 3686 2707 3200 
Q 2707 2477 1888 1613 
L 832 486 
L 2330 486 
Q 2541 486 2665 569 
Q 2790 653 2944 915 
L 3034 877 
z
" transform="scale(0.015625)"/>
       <path id="STIXGeneral-Regular-29" d="M 186 4224 
L 262 4326 
Q 992 3891 1408 3148 
Q 1824 2406 1824 1581 
Q 1824 -166 243 -1133 
L 186 -1030 
Q 845 -486 1059 54 
Q 1274 595 1274 1562 
Q 1274 2534 1059 3120 
Q 845 3706 186 4224 
z
" transform="scale(0.015625)"/>
      </defs>
      <use xlink:href="#LiberationSans-41" transform="translate(0 0.409375)"/>
      <use xlink:href="#LiberationSans-43" transform="translate(66.699219 0.409375)"/>
      <use xlink:href="#LiberationSans-46" transform="translate(138.916016 0.409375)"/>
      <use xlink:href="#LiberationSans-20" transform="translate(200 0.409375)"/>
      <use xlink:href="#STIXGeneral-Regular-28" transform="translate(227.783203 0.409375)"/>
      <use xlink:href="#STIXGeneral-Regular-57" transform="translate(261.083191 0.409375)"/>
      <use xlink:href="#STIXGeneral-Regular-2f" transform="translate(355.483185 0.409375)"/>
      <use xlink:href="#STIXGeneral-Regular-6d" transform="translate(383.283173 0.409375)"/>
      <use xlink:href="#STIXGeneral-Regular-32" transform="translate(462.626442 35.684375) scale(0.7)"/>
      <use xlink:href="#STIXGeneral-Regular-29" transform="translate(502.035806 0.409375)"/>
      <use xlink:href="#STIXGeneral-Regular-32" transform="translate(536.879075 35.684375) scale(0.7)"/>
     </g>
    </g>
    <g id="text_15">
     <!-- $\times\mathdefault{10^{18}}\mathdefault{}$ -->
     <g transform="translate(79.5 36.1875) scale(0.4 -0.4)">
      <defs>
       <path id="STIXGeneral-Regular-d7" d="M 3821 141 
L 3526 -160 
L 2048 1312 
L 570 -160 
L 275 134 
L 1747 1613 
L 275 3091 
L 576 3386 
L 2048 1914 
L 3526 3386 
L 3821 3098 
L 2349 1613 
L 3821 141 
z
" transform="scale(0.015625)"/>
      </defs>
      <use xlink:href="#STIXGeneral-Regular-d7" transform="translate(0 0.140625)"/>
      <use xlink:href="#LiberationSans-31" transform="translate(63.999985 0.140625)"/>
      <use xlink:href="#LiberationSans-30" transform="translate(119.615219 0.140625)"/>
      <use xlink:href="#LiberationSans-31" transform="translate(176.154946 37.120312) scale(0.7)"/>
      <use xlink:href="#LiberationSans-38" transform="translate(215.08561 37.120312) scale(0.7)"/>
     </g>
    </g>
   </g>
   <g id="line2d_50">
    <path d="M 107.865545 66.514909 
L 108.092492 75.074273 
L 108.376176 90.55717 
L 108.773333 126.510649 
L 109.397438 207.081442 
L 111.723645 536.737659 
L 112.291012 580.55089 
L 112.744907 601.483234 
L 113.142064 610.714205 
L 113.425748 612.986957 
L 113.539221 613.037681 
L 113.652695 612.644796 
L 113.822905 611.357996 
L 114.106589 607.517745 
L 114.673957 595.545453 
L 115.695218 567.370445 
L 117.907952 507.504104 
L 119.269634 475.179791 
L 120.063949 460.79466 
L 120.631317 453.780297 
L 121.141948 449.918921 
L 121.539105 448.498385 
L 121.822789 448.205555 
L 121.992999 448.29209 
L 122.219946 448.718155 
L 122.617103 450.212045 
L 123.014261 452.33798 
L 123.581628 456.299859 
L 126.53194 477.257221 
L 127.950359 484.571269 
L 129.425515 490.460996 
L 130.049619 491.979306 
L 130.503514 492.341362 
L 130.673724 492.242443 
L 130.957408 491.849067 
L 131.241091 491.166395 
L 131.751722 489.407709 
L 132.546037 485.623527 
L 135.269402 470.973195 
L 136.120453 468.558218 
L 136.687821 467.38987 
L 137.141715 466.945651 
L 137.425399 466.863126 
L 137.822556 467.11427 
L 138.333187 467.839446 
L 140.545921 472.911923 
L 141.737393 475.431797 
L 143.723179 478.837586 
L 144.574231 480.288857 
L 145.084862 480.687424 
L 145.368546 480.695621 
L 145.879176 480.325206 
L 146.673491 479.074179 
L 147.240859 477.65325 
L 148.432331 473.235758 
L 149.510329 469.540477 
L 150.191171 468.384141 
L 150.474854 468.248457 
L 150.815275 468.285952 
L 151.325906 468.753658 
L 152.063484 470.283385 
L 152.914535 472.702445 
L 154.276217 477.479825 
L 155.581163 482.000483 
L 156.205267 483.246607 
L 156.772635 483.824763 
L 157.169792 483.779002 
L 157.396739 483.582564 
L 158.020844 482.406543 
L 158.474738 481.094697 
L 159.439263 477.568577 
L 160.744209 472.940258 
L 161.481786 470.761674 
L 161.935681 469.949858 
L 162.446311 469.521648 
L 163.69452 469.337377 
L 164.545572 469.225951 
L 164.659045 469.223183 
L 165.169676 469.446169 
L 165.907254 470.117733 
L 166.871779 471.358737 
L 171.183773 477.690555 
L 171.864614 478.235433 
L 172.431982 478.40723 
L 172.942613 478.343239 
L 173.50998 478.032019 
L 174.304295 477.216868 
L 177.254607 473.852188 
L 178.616289 472.799004 
L 179.410604 472.386937 
L 180.034708 472.271988 
L 180.942496 472.442707 
L 181.680074 472.811123 
L 185.25449 475.149149 
L 186.219015 475.471293 
L 187.467224 475.73077 
L 188.091329 475.6765 
L 188.94238 475.42325 
L 189.850168 474.859659 
L 192.119639 473.209564 
L 192.80048 473.125262 
L 193.367848 473.246246 
L 194.105425 473.671327 
L 194.72953 474.289888 
L 197.169211 476.755112 
L 197.793315 476.964864 
L 198.474156 476.964591 
L 199.041524 476.776985 
L 200.346469 475.888575 
L 201.764889 474.519136 
L 204.147833 472.139601 
L 204.942147 471.730477 
L 205.736462 471.600438 
L 206.757724 471.911689 
L 207.438565 472.367041 
L 210.048456 474.572105 
L 212.317927 476.536629 
L 213.112241 476.999493 
L 214.19024 477.255847 
L 214.700871 477.211536 
L 215.551922 476.913411 
L 216.232763 476.459699 
L 217.027078 475.70937 
L 217.764656 474.738279 
L 219.069601 472.519433 
L 220.090863 470.875118 
L 220.941915 469.858509 
L 221.452545 469.58887 
L 221.849703 469.655338 
L 222.41707 470.030042 
L 223.154648 470.844337 
L 224.0057 472.186193 
L 226.502117 476.481312 
L 227.409906 477.616357 
L 228.147484 478.239126 
L 228.658114 478.462555 
L 229.338956 478.445115 
L 229.79285 478.258064 
L 230.360217 477.819668 
L 231.381479 476.609279 
L 233.934633 473.312146 
L 234.785685 472.546633 
L 235.977157 471.742442 
L 236.657998 471.512314 
L 237.452313 471.484806 
L 238.360101 471.799303 
L 238.927469 472.189176 
L 240.062204 473.269324 
L 242.842305 476.138667 
L 243.63662 476.524833 
L 244.487671 476.573696 
L 245.168513 476.390453 
L 246.586932 475.584154 
L 249.480507 473.522178 
L 250.445032 473.387321 
L 251.012399 473.507032 
L 251.579767 473.835719 
L 252.941449 474.946564 
L 253.905974 475.684048 
L 254.700289 476.053699 
L 255.267657 476.183211 
L 255.891761 476.149631 
L 256.742812 475.885355 
L 258.047758 475.198341 
L 260.884596 473.310488 
L 262.246278 472.676979 
L 263.381014 472.427574 
L 264.345539 472.587452 
L 265.310064 473.026466 
L 266.104378 473.713138 
L 267.12564 474.93921 
L 269.05469 477.212643 
L 269.735531 477.631842 
L 270.302899 477.767993 
L 271.267424 477.667457 
L 272.288686 477.220265 
L 272.969527 476.698743 
L 273.820578 475.787801 
L 274.558156 474.674887 
L 277.394994 469.758634 
L 277.962362 469.30355 
L 278.246046 469.284699 
L 278.756677 469.582297 
L 279.437518 470.323324 
L 280.288569 471.544243 
L 282.104146 474.348375 
L 283.465828 475.802851 
L 284.373616 476.507075 
L 285.338141 477.018376 
L 286.018982 477.146264 
L 286.699824 477.015634 
L 287.494138 476.507678 
L 289.139504 474.898355 
L 289.990556 474.192683 
L 290.784871 473.784863 
L 291.522448 473.598299 
L 293.508235 473.333601 
L 294.926654 473.580434 
L 296.118126 474.128937 
L 298.217387 475.124083 
L 298.954964 475.204298 
L 300.25991 474.94303 
L 303.323695 473.887405 
L 304.344957 473.835382 
L 305.87685 474.043916 
L 308.14632 474.765169 
L 309.451266 475.401873 
L 310.812948 475.84624 
L 311.720736 475.884814 
L 312.741998 475.644668 
L 314.046944 475.104068 
L 315.181679 474.497863 
L 317.394413 473.136944 
L 318.756095 472.534555 
L 319.777357 472.389426 
L 320.855355 472.570406 
L 321.933354 473.069864 
L 322.557458 473.569407 
L 323.57872 474.811514 
L 325.904927 477.984022 
L 326.585768 478.435247 
L 327.209873 478.505074 
L 327.77724 478.310404 
L 328.401345 477.819999 
L 329.138923 477.017302 
L 330.160184 475.546899 
L 331.748814 472.581873 
L 333.280706 469.884934 
L 333.904811 469.159246 
L 334.528915 468.752846 
L 334.926073 468.759405 
L 335.32323 469.014072 
L 335.947334 469.742563 
L 336.798386 471.11203 
L 339.748697 476.493241 
L 340.940169 477.836595 
L 341.677747 478.296457 
L 342.188378 478.390581 
L 342.812483 478.267481 
L 343.323114 477.989953 
L 344.060691 477.316198 
L 347.23795 473.851818 
L 347.975528 473.476385 
L 349.507421 473.041272 
L 350.869103 472.994035 
L 351.776891 473.127126 
L 352.400996 473.341727 
L 353.592468 474.009579 
L 356.826463 476.047521 
L 357.677515 476.137292 
L 358.188146 476.011377 
L 358.98246 475.582414 
L 359.606565 475.057358 
L 360.854773 473.720919 
L 362.046245 472.573306 
L 362.783823 472.27992 
L 363.464665 472.272897 
L 364.202243 472.56936 
L 364.883084 473.156236 
L 368.117079 476.802768 
L 368.79792 477.128308 
L 369.308551 477.163422 
L 369.819182 477.035277 
L 370.443286 476.675614 
L 371.294338 475.865339 
L 373.450335 473.431116 
L 374.301386 472.831408 
L 374.925491 472.643149 
L 375.606332 472.667617 
L 376.741067 473.085501 
L 378.61338 473.832071 
L 379.861589 474.280269 
L 380.712641 474.800992 
L 383.492742 476.961126 
L 384.514004 477.088796 
L 385.138108 476.91793 
L 385.818949 476.566384 
L 386.726738 475.790674 
L 388.08842 474.064182 
L 390.528101 470.594411 
L 391.208942 470.103298 
L 391.606099 470.036235 
L 392.059993 470.297251 
L 392.797571 471.07874 
L 393.87557 472.54827 
L 395.407462 474.58204 
L 396.542198 475.582474 
L 397.73367 476.429131 
L 398.868405 477.023835 
L 400.059877 477.199252 
L 400.854192 476.998851 
L 402.215874 476.273312 
L 403.634293 475.290188 
L 405.62008 473.655819 
L 407.038499 472.413069 
L 407.776077 472.003983 
L 408.683865 471.906633 
L 409.251233 472.103944 
L 410.102284 472.72158 
L 411.237019 474.073612 
L 412.939122 476.235409 
L 413.733437 476.880973 
L 414.300805 477.063013 
L 414.811436 476.982263 
L 415.322066 476.726142 
L 416.002908 476.157009 
L 417.307853 474.601722 
L 418.442588 473.333747 
L 419.009956 472.977714 
L 419.690797 472.814824 
L 420.485112 472.906847 
L 421.165953 473.184037 
L 422.017005 473.809392 
L 423.038266 474.636718 
L 425.194263 475.952489 
L 426.158788 476.169428 
L 427.236787 476.150905 
L 428.144575 475.897211 
L 428.93889 475.446434 
L 430.697729 473.877853 
L 431.832465 472.830098 
L 432.853726 472.206875 
L 433.591304 472.044348 
L 434.499093 472.212276 
L 435.690565 472.895903 
L 436.371406 473.554602 
L 437.506141 474.969439 
L 439.264981 477.231761 
L 440.059295 477.873628 
L 440.740136 478.135031 
L 441.420978 478.101586 
L 442.272029 477.659211 
L 442.95287 477.018414 
L 443.803922 475.901341 
L 444.768447 474.230248 
L 447.208128 469.564693 
L 447.888969 468.727154 
L 448.342863 468.473237 
L 448.796757 468.606714 
L 449.420861 469.134367 
L 450.101702 470.007104 
L 451.179701 471.845168 
L 453.789592 476.431138 
L 454.754117 477.704771 
L 455.548432 478.389064 
L 456.115799 478.602131 
L 456.62643 478.591024 
L 457.250535 478.303133 
L 457.931376 477.669849 
L 459.293058 475.98378 
L 460.824951 474.254396 
L 462.867474 472.493253 
L 463.661789 472.090605 
L 464.399367 471.977721 
L 465.250418 472.185084 
L 465.817786 472.503084 
L 467.349679 473.799468 
L 468.881571 475.057554 
L 470.583674 476.097233 
L 471.718409 476.405447 
L 472.455987 476.362407 
L 473.023355 476.155604 
L 474.101353 475.385659 
L 476.08714 473.812468 
L 476.994928 473.526853 
L 477.67577 473.522417 
L 478.470084 473.795122 
L 481.590606 475.490481 
L 482.498394 475.778237 
L 483.63313 475.820511 
L 484.484181 475.632438 
L 485.391969 475.110264 
L 486.640178 473.910149 
L 488.739438 471.908355 
L 489.250069 471.680576 
L 489.93091 471.644115 
L 490.611752 471.926243 
L 491.235856 472.415143 
L 492.881222 474.237092 
L 495.604587 477.864072 
L 496.342165 478.340457 
L 496.796059 478.407081 
L 497.420163 478.222495 
L 497.987531 477.823665 
L 498.725109 477.015345 
L 500.654159 474.383713 
L 503.944891 469.853102 
L 504.682469 469.204482 
L 505.136363 469.045061 
L 505.53352 469.129021 
L 506.157625 469.563116 
L 506.724992 470.180614 
L 507.405834 471.190652 
L 509.107937 474.472175 
L 510.412882 476.913174 
L 511.207197 478.096245 
L 511.944775 478.836297 
L 512.512142 479.063865 
L 512.966036 479.03348 
L 513.533404 478.731653 
L 514.100772 478.132158 
L 514.781613 477.123059 
L 516.597189 474.376939 
L 517.27803 473.70063 
L 518.015608 473.285073 
L 518.69645 473.082041 
L 520.228342 472.876389 
L 522.327602 473.071666 
L 523.575811 473.564217 
L 527.093491 475.557341 
L 527.887805 475.696054 
L 528.51191 475.641551 
L 529.533171 475.35987 
L 531.121801 474.557277 
L 532.483483 473.962296 
L 533.504745 473.901875 
L 534.582743 474.110785 
L 535.377058 474.538839 
L 536.73874 475.382141 
L 537.986949 475.888585 
L 538.724527 475.933105 
L 539.291895 475.803183 
L 540.42663 475.209942 
L 543.490415 473.318277 
L 545.305992 472.89934 
L 546.21378 473.052065 
L 547.348515 473.537615 
L 549.164092 474.606992 
L 550.07188 475.301337 
L 552.851981 477.459472 
L 553.532822 477.530432 
L 554.2704 477.292077 
L 554.951241 476.845262 
L 556.142713 475.633885 
L 557.95829 473.432033 
L 560.568181 470.264158 
L 561.305759 469.856482 
L 561.759653 469.795406 
L 562.043337 470.05911 
L 562.667441 470.77548 
L 564.029124 472.817379 
L 565.220596 474.567708 
L 566.01491 475.43791 
L 567.319856 476.434816 
L 568.511328 477.044147 
L 569.248906 477.240977 
L 569.929747 477.286394 
L 570.497115 477.179792 
L 571.291429 476.802005 
L 572.823322 475.689726 
L 576.114054 473.099391 
L 577.135316 472.502008 
L 577.872894 472.332249 
L 578.780682 472.46268 
L 579.461523 472.798084 
L 581.050153 473.995305 
L 582.638782 475.366397 
L 584.113938 476.198947 
L 584.681306 476.322632 
L 585.30541 476.241637 
L 586.156461 475.867881 
L 586.894039 475.279842 
L 589.50393 473.120095 
L 590.298245 472.929673 
L 590.979086 472.970434 
L 591.659927 473.235481 
L 592.681189 474.017397 
L 594.553502 475.51233 
L 595.858448 476.02989 
L 596.709499 476.00432 
L 598.468339 475.432241 
L 599.773285 474.579454 
L 602.156229 472.874251 
L 603.064017 472.494513 
L 603.744858 472.461351 
L 604.312226 472.625137 
L 605.276751 473.239156 
L 606.014329 473.889836 
L 608.62422 476.552935 
L 609.532008 477.02136 
L 610.099376 477.094285 
L 610.780217 477.005328 
L 611.574531 476.754099 
L 613.106424 475.950681 
L 614.468106 474.799967 
L 615.319158 473.689235 
L 617.588628 470.40583 
L 618.326206 469.76878 
L 618.666627 469.727322 
L 619.233995 470.05637 
L 619.914836 470.76112 
L 620.822624 472.027591 
L 623.999883 476.747339 
L 624.794197 477.527305 
L 625.475039 477.941417 
L 626.042406 478.022164 
L 626.609774 477.87515 
L 627.233878 477.434752 
L 627.971456 476.580348 
L 630.52461 473.406097 
L 631.545872 472.668337 
L 632.907555 472.09843 
L 633.928816 472.046768 
L 634.950078 472.403334 
L 635.801129 473.00823 
L 639.148599 475.696297 
L 639.99965 476.036051 
L 640.907438 476.228599 
L 641.531543 476.19616 
L 642.269121 475.950574 
L 642.949962 475.560437 
L 644.084697 474.623208 
L 645.503116 473.413752 
L 646.183957 473.099622 
L 646.864798 473.01315 
L 647.602376 473.178827 
L 648.226481 473.501383 
L 649.247742 474.3988 
L 650.836372 475.733015 
L 651.57395 476.112805 
L 652.481738 476.292879 
L 653.049106 476.15505 
L 653.729947 475.810305 
L 654.807945 475.051482 
L 657.70152 472.880554 
L 658.495835 472.638301 
L 659.233413 472.646101 
L 659.914254 472.871601 
L 660.878779 473.449753 
L 662.580882 474.694382 
L 665.304247 476.603013 
L 666.665929 477.228639 
L 667.687191 477.330781 
L 668.651716 477.171986 
L 669.44603 476.879518 
L 670.070135 476.477895 
L 670.864449 475.723104 
L 671.658764 474.585576 
L 672.736763 472.491459 
L 674.495602 469.116497 
L 675.119707 468.36489 
L 675.176443 468.317874 
L 675.176443 468.317874 
" clip-path="url(#p7507e517b4)" style="fill: none; stroke: #0000ff; stroke-width: 1.5; stroke-linecap: square"/>
   </g>
   <g id="patch_3">
    <path d="M 79.5 640.3905 
L 79.5 39.1875 
" style="fill: none; stroke: #000000; stroke-width: 0.8; stroke-linejoin: miter; stroke-linecap: square"/>
   </g>
   <g id="patch_4">
    <path d="M 703.541988 640.3905 
L 703.541988 39.1875 
" style="fill: none; stroke: #000000; stroke-width: 0.8; stroke-linejoin: miter; stroke-linecap: square"/>
   </g>
   <g id="patch_5">
    <path d="M 79.5 640.3905 
L 703.541988 640.3905 
" style="fill: none; stroke: #000000; stroke-width: 0.8; stroke-linejoin: miter; stroke-linecap: square"/>
   </g>
   <g id="patch_6">
    <path d="M 79.5 39.1875 
L 703.541988 39.1875 
" style="fill: none; stroke: #000000; stroke-width: 0.8; stroke-linejoin: miter; stroke-linecap: square"/>
   </g>
  </g>
 </g>
 <defs>
  <clipPath id="p7507e517b4">
   <rect x="79.5" y="39.1875" width="624.041988" height="601.203"/>
  </clipPath>
 </defs>
</svg>
