<?xml version="1.0" encoding="utf-8" standalone="no"?>
<!DOCTYPE svg PUBLIC "-//W3C//DTD SVG 1.1//EN"
  "http://www.w3.org/Graphics/SVG/1.1/DTD/svg11.dtd">
<svg xmlns:xlink="http://www.w3.org/1999/xlink" width="710.741988pt" height="711.02175pt" viewBox="0 0 710.741988 711.02175" xmlns="http://www.w3.org/2000/svg" version="1.1">
 <metadata>
  <rdf:RDF xmlns:dc="http://purl.org/dc/elements/1.1/" xmlns:cc="http://creativecommons.org/ns#" xmlns:rdf="http://www.w3.org/1999/02/22-rdf-syntax-ns#">
   <cc:Work>
    <dc:type rdf:resource="http://purl.org/dc/dcmitype/StillImage"/>
    <dc:date>2025-02-05T18:29:51.613606</dc:date>
    <dc:format>image/svg+xml</dc:format>
    <dc:creator>
     <cc:Agent>
      <dc:title>Matplotlib v3.9.3, https://matplotlib.org/</dc:title>
     </cc:Agent>
    </dc:creator>
   </cc:Work>
  </rdf:RDF>
 </metadata>
 <defs>
  <style type="text/css">*{stroke-linejoin: round; stroke-linecap: butt}</style>
 </defs>
 <g id="figure_1">
  <g id="patch_1">
   <path d="M 0 711.02175 
L 710.741988 711.02175 
L 710.741988 0 
L 0 0 
z
" style="fill: #ffffff"/>
  </g>
  <g id="axes_1">
   <g id="patch_2">
    <path d="M 79.5 640.3905 
L 703.541988 640.3905 
L 703.541988 39.1875 
L 79.5 39.1875 
z
" style="fill: #ffffff"/>
   </g>
   <g id="matplotlib.axis_1">
    <g id="xtick_1">
     <g id="line2d_1">
      <defs>
       <path id="m694ba18ddb" d="M 0 0 
L 0 -3.5 
" style="stroke: #000000; stroke-width: 0.8"/>
      </defs>
      <g>
       <use xlink:href="#m694ba18ddb" x="107.808808" y="640.3905" style="stroke: #000000; stroke-width: 0.8"/>
      </g>
     </g>
     <g id="text_1">
      <!-- 0 -->
      <g transform="translate(99.467402 665.631125) scale(0.3 -0.3)">
       <defs>
        <path id="LiberationSans-30" d="M 3309 2203 
Q 3309 1100 2920 518 
Q 2531 -63 1772 -63 
Q 1013 -63 631 515 
Q 250 1094 250 2203 
Q 250 3338 620 3903 
Q 991 4469 1791 4469 
Q 2569 4469 2939 3897 
Q 3309 3325 3309 2203 
z
M 2738 2203 
Q 2738 3156 2517 3584 
Q 2297 4013 1791 4013 
Q 1272 4013 1045 3591 
Q 819 3169 819 2203 
Q 819 1266 1048 831 
Q 1278 397 1778 397 
Q 2275 397 2506 840 
Q 2738 1284 2738 2203 
z
" transform="scale(0.015625)"/>
       </defs>
       <use xlink:href="#LiberationSans-30"/>
      </g>
     </g>
    </g>
    <g id="xtick_2">
     <g id="line2d_2">
      <g>
       <use xlink:href="#m694ba18ddb" x="221.282335" y="640.3905" style="stroke: #000000; stroke-width: 0.8"/>
      </g>
     </g>
     <g id="text_2">
      <!-- 2 -->
      <g transform="translate(212.940929 665.631125) scale(0.3 -0.3)">
       <defs>
        <path id="LiberationSans-32" d="M 322 0 
L 322 397 
Q 481 763 711 1042 
Q 941 1322 1194 1548 
Q 1447 1775 1695 1969 
Q 1944 2163 2144 2356 
Q 2344 2550 2467 2762 
Q 2591 2975 2591 3244 
Q 2591 3606 2378 3806 
Q 2166 4006 1788 4006 
Q 1428 4006 1195 3811 
Q 963 3616 922 3263 
L 347 3316 
Q 409 3844 795 4156 
Q 1181 4469 1788 4469 
Q 2453 4469 2811 4155 
Q 3169 3841 3169 3263 
Q 3169 3006 3051 2753 
Q 2934 2500 2703 2247 
Q 2472 1994 1819 1463 
Q 1459 1169 1246 933 
Q 1034 697 941 478 
L 3238 478 
L 3238 0 
L 322 0 
z
" transform="scale(0.015625)"/>
       </defs>
       <use xlink:href="#LiberationSans-32"/>
      </g>
     </g>
    </g>
    <g id="xtick_3">
     <g id="line2d_3">
      <g>
       <use xlink:href="#m694ba18ddb" x="334.755862" y="640.3905" style="stroke: #000000; stroke-width: 0.8"/>
      </g>
     </g>
     <g id="text_3">
      <!-- 4 -->
      <g transform="translate(326.414456 665.631125) scale(0.3 -0.3)">
       <defs>
        <path id="LiberationSans-34" d="M 2753 997 
L 2753 0 
L 2222 0 
L 2222 997 
L 147 997 
L 147 1434 
L 2163 4403 
L 2753 4403 
L 2753 1441 
L 3372 1441 
L 3372 997 
L 2753 997 
z
M 2222 3769 
Q 2216 3750 2134 3603 
Q 2053 3456 2013 3397 
L 884 1734 
L 716 1503 
L 666 1441 
L 2222 1441 
L 2222 3769 
z
" transform="scale(0.015625)"/>
       </defs>
       <use xlink:href="#LiberationSans-34"/>
      </g>
     </g>
    </g>
    <g id="xtick_4">
     <g id="line2d_4">
      <g>
       <use xlink:href="#m694ba18ddb" x="448.229389" y="640.3905" style="stroke: #000000; stroke-width: 0.8"/>
      </g>
     </g>
     <g id="text_4">
      <!-- 6 -->
      <g transform="translate(439.887983 665.631125) scale(0.3 -0.3)">
       <defs>
        <path id="LiberationSans-36" d="M 3278 1441 
Q 3278 744 2900 340 
Q 2522 -63 1856 -63 
Q 1113 -63 719 490 
Q 325 1044 325 2100 
Q 325 3244 734 3856 
Q 1144 4469 1900 4469 
Q 2897 4469 3156 3572 
L 2619 3475 
Q 2453 4013 1894 4013 
Q 1413 4013 1148 3564 
Q 884 3116 884 2266 
Q 1038 2550 1316 2698 
Q 1594 2847 1953 2847 
Q 2563 2847 2920 2465 
Q 3278 2084 3278 1441 
z
M 2706 1416 
Q 2706 1894 2472 2153 
Q 2238 2413 1819 2413 
Q 1425 2413 1183 2183 
Q 941 1953 941 1550 
Q 941 1041 1192 716 
Q 1444 391 1838 391 
Q 2244 391 2475 664 
Q 2706 938 2706 1416 
z
" transform="scale(0.015625)"/>
       </defs>
       <use xlink:href="#LiberationSans-36"/>
      </g>
     </g>
    </g>
    <g id="xtick_5">
     <g id="line2d_5">
      <g>
       <use xlink:href="#m694ba18ddb" x="561.702916" y="640.3905" style="stroke: #000000; stroke-width: 0.8"/>
      </g>
     </g>
     <g id="text_5">
      <!-- 8 -->
      <g transform="translate(553.36151 665.631125) scale(0.3 -0.3)">
       <defs>
        <path id="LiberationSans-38" d="M 3281 1228 
Q 3281 619 2893 278 
Q 2506 -63 1781 -63 
Q 1075 -63 676 271 
Q 278 606 278 1222 
Q 278 1653 525 1947 
Q 772 2241 1156 2303 
L 1156 2316 
Q 797 2400 589 2681 
Q 381 2963 381 3341 
Q 381 3844 757 4156 
Q 1134 4469 1769 4469 
Q 2419 4469 2795 4162 
Q 3172 3856 3172 3334 
Q 3172 2956 2962 2675 
Q 2753 2394 2391 2322 
L 2391 2309 
Q 2813 2241 3047 1952 
Q 3281 1663 3281 1228 
z
M 2588 3303 
Q 2588 4050 1769 4050 
Q 1372 4050 1164 3862 
Q 956 3675 956 3303 
Q 956 2925 1170 2726 
Q 1384 2528 1775 2528 
Q 2172 2528 2380 2711 
Q 2588 2894 2588 3303 
z
M 2697 1281 
Q 2697 1691 2453 1898 
Q 2209 2106 1769 2106 
Q 1341 2106 1100 1882 
Q 859 1659 859 1269 
Q 859 359 1788 359 
Q 2247 359 2472 579 
Q 2697 800 2697 1281 
z
" transform="scale(0.015625)"/>
       </defs>
       <use xlink:href="#LiberationSans-38"/>
      </g>
     </g>
    </g>
    <g id="xtick_6">
     <g id="line2d_6">
      <g>
       <use xlink:href="#m694ba18ddb" x="675.176443" y="640.3905" style="stroke: #000000; stroke-width: 0.8"/>
      </g>
     </g>
     <g id="text_6">
      <!-- 10 -->
      <g transform="translate(658.493631 665.631125) scale(0.3 -0.3)">
       <defs>
        <path id="LiberationSans-31" d="M 488 0 
L 488 478 
L 1609 478 
L 1609 3866 
L 616 3156 
L 616 3688 
L 1656 4403 
L 2175 4403 
L 2175 478 
L 3247 478 
L 3247 0 
L 488 0 
z
" transform="scale(0.015625)"/>
       </defs>
       <use xlink:href="#LiberationSans-31"/>
       <use xlink:href="#LiberationSans-30" x="55.615234"/>
      </g>
     </g>
    </g>
    <g id="xtick_7">
     <g id="line2d_7">
      <defs>
       <path id="me746a93608" d="M 0 0 
L 0 -2 
" style="stroke: #000000; stroke-width: 0.6"/>
      </defs>
      <g>
       <use xlink:href="#me746a93608" x="136.17719" y="640.3905" style="stroke: #000000; stroke-width: 0.6"/>
      </g>
     </g>
    </g>
    <g id="xtick_8">
     <g id="line2d_8">
      <g>
       <use xlink:href="#me746a93608" x="164.545572" y="640.3905" style="stroke: #000000; stroke-width: 0.6"/>
      </g>
     </g>
    </g>
    <g id="xtick_9">
     <g id="line2d_9">
      <g>
       <use xlink:href="#me746a93608" x="192.913953" y="640.3905" style="stroke: #000000; stroke-width: 0.6"/>
      </g>
     </g>
    </g>
    <g id="xtick_10">
     <g id="line2d_10">
      <g>
       <use xlink:href="#me746a93608" x="249.650717" y="640.3905" style="stroke: #000000; stroke-width: 0.6"/>
      </g>
     </g>
    </g>
    <g id="xtick_11">
     <g id="line2d_11">
      <g>
       <use xlink:href="#me746a93608" x="278.019099" y="640.3905" style="stroke: #000000; stroke-width: 0.6"/>
      </g>
     </g>
    </g>
    <g id="xtick_12">
     <g id="line2d_12">
      <g>
       <use xlink:href="#me746a93608" x="306.38748" y="640.3905" style="stroke: #000000; stroke-width: 0.6"/>
      </g>
     </g>
    </g>
    <g id="xtick_13">
     <g id="line2d_13">
      <g>
       <use xlink:href="#me746a93608" x="363.124244" y="640.3905" style="stroke: #000000; stroke-width: 0.6"/>
      </g>
     </g>
    </g>
    <g id="xtick_14">
     <g id="line2d_14">
      <g>
       <use xlink:href="#me746a93608" x="391.492626" y="640.3905" style="stroke: #000000; stroke-width: 0.6"/>
      </g>
     </g>
    </g>
    <g id="xtick_15">
     <g id="line2d_15">
      <g>
       <use xlink:href="#me746a93608" x="419.861008" y="640.3905" style="stroke: #000000; stroke-width: 0.6"/>
      </g>
     </g>
    </g>
    <g id="xtick_16">
     <g id="line2d_16">
      <g>
       <use xlink:href="#me746a93608" x="476.597771" y="640.3905" style="stroke: #000000; stroke-width: 0.6"/>
      </g>
     </g>
    </g>
    <g id="xtick_17">
     <g id="line2d_17">
      <g>
       <use xlink:href="#me746a93608" x="504.966153" y="640.3905" style="stroke: #000000; stroke-width: 0.6"/>
      </g>
     </g>
    </g>
    <g id="xtick_18">
     <g id="line2d_18">
      <g>
       <use xlink:href="#me746a93608" x="533.334535" y="640.3905" style="stroke: #000000; stroke-width: 0.6"/>
      </g>
     </g>
    </g>
    <g id="xtick_19">
     <g id="line2d_19">
      <g>
       <use xlink:href="#me746a93608" x="590.071298" y="640.3905" style="stroke: #000000; stroke-width: 0.6"/>
      </g>
     </g>
    </g>
    <g id="xtick_20">
     <g id="line2d_20">
      <g>
       <use xlink:href="#me746a93608" x="618.43968" y="640.3905" style="stroke: #000000; stroke-width: 0.6"/>
      </g>
     </g>
    </g>
    <g id="xtick_21">
     <g id="line2d_21">
      <g>
       <use xlink:href="#me746a93608" x="646.808062" y="640.3905" style="stroke: #000000; stroke-width: 0.6"/>
      </g>
     </g>
    </g>
    <g id="text_7">
     <!-- Time ps -->
     <g transform="translate(338.744432 697.59675) scale(0.3 -0.3)">
      <defs>
       <path id="LiberationSans-54" d="M 2250 3916 
L 2250 0 
L 1656 0 
L 1656 3916 
L 144 3916 
L 144 4403 
L 3763 4403 
L 3763 3916 
L 2250 3916 
z
" transform="scale(0.015625)"/>
       <path id="LiberationSans-69" d="M 428 4100 
L 428 4638 
L 991 4638 
L 991 4100 
L 428 4100 
z
M 428 0 
L 428 3381 
L 991 3381 
L 991 0 
L 428 0 
z
" transform="scale(0.015625)"/>
       <path id="LiberationSans-6d" d="M 2400 0 
L 2400 2144 
Q 2400 2634 2265 2821 
Q 2131 3009 1781 3009 
Q 1422 3009 1212 2734 
Q 1003 2459 1003 1959 
L 1003 0 
L 444 0 
L 444 2659 
Q 444 3250 425 3381 
L 956 3381 
Q 959 3366 962 3297 
Q 966 3228 970 3139 
Q 975 3050 981 2803 
L 991 2803 
Q 1172 3163 1406 3303 
Q 1641 3444 1978 3444 
Q 2363 3444 2586 3291 
Q 2809 3138 2897 2803 
L 2906 2803 
Q 3081 3144 3329 3294 
Q 3578 3444 3931 3444 
Q 4444 3444 4676 3166 
Q 4909 2888 4909 2253 
L 4909 0 
L 4353 0 
L 4353 2144 
Q 4353 2634 4218 2821 
Q 4084 3009 3734 3009 
Q 3366 3009 3161 2736 
Q 2956 2463 2956 1959 
L 2956 0 
L 2400 0 
z
" transform="scale(0.015625)"/>
       <path id="LiberationSans-65" d="M 863 1572 
Q 863 991 1103 675 
Q 1344 359 1806 359 
Q 2172 359 2392 506 
Q 2613 653 2691 878 
L 3184 738 
Q 2881 -63 1806 -63 
Q 1056 -63 664 384 
Q 272 831 272 1713 
Q 272 2550 664 2997 
Q 1056 3444 1784 3444 
Q 3275 3444 3275 1647 
L 3275 1572 
L 863 1572 
z
M 2694 2003 
Q 2647 2538 2422 2783 
Q 2197 3028 1775 3028 
Q 1366 3028 1127 2754 
Q 888 2481 869 2003 
L 2694 2003 
z
" transform="scale(0.015625)"/>
       <path id="LiberationSans-20" transform="scale(0.015625)"/>
       <path id="LiberationSans-70" d="M 3291 1706 
Q 3291 -63 2047 -63 
Q 1266 -63 997 525 
L 981 525 
Q 994 500 994 -6 
L 994 -1328 
L 431 -1328 
L 431 2691 
Q 431 3213 413 3381 
L 956 3381 
Q 959 3369 965 3292 
Q 972 3216 980 3056 
Q 988 2897 988 2838 
L 1000 2838 
Q 1150 3150 1397 3295 
Q 1644 3441 2047 3441 
Q 2672 3441 2981 3022 
Q 3291 2603 3291 1706 
z
M 2700 1694 
Q 2700 2400 2509 2703 
Q 2319 3006 1903 3006 
Q 1569 3006 1380 2865 
Q 1191 2725 1092 2426 
Q 994 2128 994 1650 
Q 994 984 1206 668 
Q 1419 353 1897 353 
Q 2316 353 2508 661 
Q 2700 969 2700 1694 
z
" transform="scale(0.015625)"/>
       <path id="LiberationSans-73" d="M 2969 934 
Q 2969 456 2608 196 
Q 2247 -63 1597 -63 
Q 966 -63 623 145 
Q 281 353 178 794 
L 675 891 
Q 747 619 972 492 
Q 1197 366 1597 366 
Q 2025 366 2223 497 
Q 2422 628 2422 891 
Q 2422 1091 2284 1216 
Q 2147 1341 1841 1422 
L 1438 1528 
Q 953 1653 748 1773 
Q 544 1894 428 2066 
Q 313 2238 313 2488 
Q 313 2950 642 3192 
Q 972 3434 1603 3434 
Q 2163 3434 2492 3237 
Q 2822 3041 2909 2606 
L 2403 2544 
Q 2356 2769 2151 2889 
Q 1947 3009 1603 3009 
Q 1222 3009 1040 2893 
Q 859 2778 859 2544 
Q 859 2400 934 2306 
Q 1009 2213 1156 2147 
Q 1303 2081 1775 1966 
Q 2222 1853 2419 1758 
Q 2616 1663 2730 1547 
Q 2844 1431 2906 1279 
Q 2969 1128 2969 934 
z
" transform="scale(0.015625)"/>
      </defs>
      <use xlink:href="#LiberationSans-54"/>
      <use xlink:href="#LiberationSans-69" x="57.333984"/>
      <use xlink:href="#LiberationSans-6d" x="79.550781"/>
      <use xlink:href="#LiberationSans-65" x="162.851562"/>
      <use xlink:href="#LiberationSans-20" x="218.466797"/>
      <use xlink:href="#LiberationSans-70" x="246.25"/>
      <use xlink:href="#LiberationSans-73" x="301.865234"/>
     </g>
    </g>
   </g>
   <g id="matplotlib.axis_2">
    <g id="ytick_1">
     <g id="line2d_22">
      <defs>
       <path id="mb6d49c7b05" d="M 0 0 
L 3.5 0 
" style="stroke: #000000; stroke-width: 0.8"/>
      </defs>
      <g>
       <use xlink:href="#mb6d49c7b05" x="79.5" y="565.17036" style="stroke: #000000; stroke-width: 0.8"/>
      </g>
     </g>
     <g id="text_8">
      <!-- $\mathdefault{−1}$ -->
      <g transform="translate(41.5 576.040672) scale(0.3 -0.3)">
       <defs>
        <path id="LiberationSans-2212" d="M 316 1900 
L 316 2356 
L 3425 2356 
L 3425 1900 
L 316 1900 
z
" transform="scale(0.015625)"/>
       </defs>
       <use xlink:href="#LiberationSans-2212" transform="translate(0 0.203125)"/>
       <use xlink:href="#LiberationSans-31" transform="translate(58.398438 0.203125)"/>
      </g>
     </g>
    </g>
    <g id="ytick_2">
     <g id="line2d_23">
      <g>
       <use xlink:href="#mb6d49c7b05" x="79.5" y="467.578242" style="stroke: #000000; stroke-width: 0.8"/>
      </g>
     </g>
     <g id="text_9">
      <!-- $\mathdefault{0}$ -->
      <g transform="translate(59.2 478.448554) scale(0.3 -0.3)">
       <use xlink:href="#LiberationSans-30" transform="translate(0 0.171875)"/>
      </g>
     </g>
    </g>
    <g id="ytick_3">
     <g id="line2d_24">
      <g>
       <use xlink:href="#mb6d49c7b05" x="79.5" y="369.986124" style="stroke: #000000; stroke-width: 0.8"/>
      </g>
     </g>
     <g id="text_10">
      <!-- $\mathdefault{1}$ -->
      <g transform="translate(59.2 380.856436) scale(0.3 -0.3)">
       <use xlink:href="#LiberationSans-31" transform="translate(0 0.203125)"/>
      </g>
     </g>
    </g>
    <g id="ytick_4">
     <g id="line2d_25">
      <g>
       <use xlink:href="#mb6d49c7b05" x="79.5" y="272.394006" style="stroke: #000000; stroke-width: 0.8"/>
      </g>
     </g>
     <g id="text_11">
      <!-- $\mathdefault{2}$ -->
      <g transform="translate(59.2 283.264318) scale(0.3 -0.3)">
       <use xlink:href="#LiberationSans-32" transform="translate(0 0.171875)"/>
      </g>
     </g>
    </g>
    <g id="ytick_5">
     <g id="line2d_26">
      <g>
       <use xlink:href="#mb6d49c7b05" x="79.5" y="174.801888" style="stroke: #000000; stroke-width: 0.8"/>
      </g>
     </g>
     <g id="text_12">
      <!-- $\mathdefault{3}$ -->
      <g transform="translate(59.2 185.6722) scale(0.3 -0.3)">
       <defs>
        <path id="LiberationSans-33" d="M 3278 1216 
Q 3278 606 2890 271 
Q 2503 -63 1784 -63 
Q 1116 -63 717 239 
Q 319 541 244 1131 
L 825 1184 
Q 938 403 1784 403 
Q 2209 403 2451 612 
Q 2694 822 2694 1234 
Q 2694 1594 2417 1795 
Q 2141 1997 1619 1997 
L 1300 1997 
L 1300 2484 
L 1606 2484 
Q 2069 2484 2323 2686 
Q 2578 2888 2578 3244 
Q 2578 3597 2370 3801 
Q 2163 4006 1753 4006 
Q 1381 4006 1151 3815 
Q 922 3625 884 3278 
L 319 3322 
Q 381 3863 767 4166 
Q 1153 4469 1759 4469 
Q 2422 4469 2789 4161 
Q 3156 3853 3156 3303 
Q 3156 2881 2920 2617 
Q 2684 2353 2234 2259 
L 2234 2247 
Q 2728 2194 3003 1916 
Q 3278 1638 3278 1216 
z
" transform="scale(0.015625)"/>
       </defs>
       <use xlink:href="#LiberationSans-33" transform="translate(0 0.171875)"/>
      </g>
     </g>
    </g>
    <g id="ytick_6">
     <g id="line2d_27">
      <g>
       <use xlink:href="#mb6d49c7b05" x="79.5" y="77.20977" style="stroke: #000000; stroke-width: 0.8"/>
      </g>
     </g>
     <g id="text_13">
      <!-- $\mathdefault{4}$ -->
      <g transform="translate(59.2 88.080082) scale(0.3 -0.3)">
       <use xlink:href="#LiberationSans-34" transform="translate(0 0.203125)"/>
      </g>
     </g>
    </g>
    <g id="ytick_7">
     <g id="line2d_28">
      <defs>
       <path id="mc1b107a49f" d="M 0 0 
L 2 0 
" style="stroke: #000000; stroke-width: 0.6"/>
      </defs>
      <g>
       <use xlink:href="#mc1b107a49f" x="79.5" y="623.725631" style="stroke: #000000; stroke-width: 0.6"/>
      </g>
     </g>
    </g>
    <g id="ytick_8">
     <g id="line2d_29">
      <g>
       <use xlink:href="#mc1b107a49f" x="79.5" y="604.207207" style="stroke: #000000; stroke-width: 0.6"/>
      </g>
     </g>
    </g>
    <g id="ytick_9">
     <g id="line2d_30">
      <g>
       <use xlink:href="#mc1b107a49f" x="79.5" y="584.688784" style="stroke: #000000; stroke-width: 0.6"/>
      </g>
     </g>
    </g>
    <g id="ytick_10">
     <g id="line2d_31">
      <g>
       <use xlink:href="#mc1b107a49f" x="79.5" y="545.651936" style="stroke: #000000; stroke-width: 0.6"/>
      </g>
     </g>
    </g>
    <g id="ytick_11">
     <g id="line2d_32">
      <g>
       <use xlink:href="#mc1b107a49f" x="79.5" y="526.133513" style="stroke: #000000; stroke-width: 0.6"/>
      </g>
     </g>
    </g>
    <g id="ytick_12">
     <g id="line2d_33">
      <g>
       <use xlink:href="#mc1b107a49f" x="79.5" y="506.615089" style="stroke: #000000; stroke-width: 0.6"/>
      </g>
     </g>
    </g>
    <g id="ytick_13">
     <g id="line2d_34">
      <g>
       <use xlink:href="#mc1b107a49f" x="79.5" y="487.096665" style="stroke: #000000; stroke-width: 0.6"/>
      </g>
     </g>
    </g>
    <g id="ytick_14">
     <g id="line2d_35">
      <g>
       <use xlink:href="#mc1b107a49f" x="79.5" y="448.059818" style="stroke: #000000; stroke-width: 0.6"/>
      </g>
     </g>
    </g>
    <g id="ytick_15">
     <g id="line2d_36">
      <g>
       <use xlink:href="#mc1b107a49f" x="79.5" y="428.541395" style="stroke: #000000; stroke-width: 0.6"/>
      </g>
     </g>
    </g>
    <g id="ytick_16">
     <g id="line2d_37">
      <g>
       <use xlink:href="#mc1b107a49f" x="79.5" y="409.022971" style="stroke: #000000; stroke-width: 0.6"/>
      </g>
     </g>
    </g>
    <g id="ytick_17">
     <g id="line2d_38">
      <g>
       <use xlink:href="#mc1b107a49f" x="79.5" y="389.504547" style="stroke: #000000; stroke-width: 0.6"/>
      </g>
     </g>
    </g>
    <g id="ytick_18">
     <g id="line2d_39">
      <g>
       <use xlink:href="#mc1b107a49f" x="79.5" y="350.4677" style="stroke: #000000; stroke-width: 0.6"/>
      </g>
     </g>
    </g>
    <g id="ytick_19">
     <g id="line2d_40">
      <g>
       <use xlink:href="#mc1b107a49f" x="79.5" y="330.949277" style="stroke: #000000; stroke-width: 0.6"/>
      </g>
     </g>
    </g>
    <g id="ytick_20">
     <g id="line2d_41">
      <g>
       <use xlink:href="#mc1b107a49f" x="79.5" y="311.430853" style="stroke: #000000; stroke-width: 0.6"/>
      </g>
     </g>
    </g>
    <g id="ytick_21">
     <g id="line2d_42">
      <g>
       <use xlink:href="#mc1b107a49f" x="79.5" y="291.912429" style="stroke: #000000; stroke-width: 0.6"/>
      </g>
     </g>
    </g>
    <g id="ytick_22">
     <g id="line2d_43">
      <g>
       <use xlink:href="#mc1b107a49f" x="79.5" y="252.875582" style="stroke: #000000; stroke-width: 0.6"/>
      </g>
     </g>
    </g>
    <g id="ytick_23">
     <g id="line2d_44">
      <g>
       <use xlink:href="#mc1b107a49f" x="79.5" y="233.357158" style="stroke: #000000; stroke-width: 0.6"/>
      </g>
     </g>
    </g>
    <g id="ytick_24">
     <g id="line2d_45">
      <g>
       <use xlink:href="#mc1b107a49f" x="79.5" y="213.838735" style="stroke: #000000; stroke-width: 0.6"/>
      </g>
     </g>
    </g>
    <g id="ytick_25">
     <g id="line2d_46">
      <g>
       <use xlink:href="#mc1b107a49f" x="79.5" y="194.320311" style="stroke: #000000; stroke-width: 0.6"/>
      </g>
     </g>
    </g>
    <g id="ytick_26">
     <g id="line2d_47">
      <g>
       <use xlink:href="#mc1b107a49f" x="79.5" y="155.283464" style="stroke: #000000; stroke-width: 0.6"/>
      </g>
     </g>
    </g>
    <g id="ytick_27">
     <g id="line2d_48">
      <g>
       <use xlink:href="#mc1b107a49f" x="79.5" y="135.76504" style="stroke: #000000; stroke-width: 0.6"/>
      </g>
     </g>
    </g>
    <g id="ytick_28">
     <g id="line2d_49">
      <g>
       <use xlink:href="#mc1b107a49f" x="79.5" y="116.246617" style="stroke: #000000; stroke-width: 0.6"/>
      </g>
     </g>
    </g>
    <g id="ytick_29">
     <g id="line2d_50">
      <g>
       <use xlink:href="#mc1b107a49f" x="79.5" y="96.728193" style="stroke: #000000; stroke-width: 0.6"/>
      </g>
     </g>
    </g>
    <g id="ytick_30">
     <g id="line2d_51">
      <g>
       <use xlink:href="#mc1b107a49f" x="79.5" y="57.691346" style="stroke: #000000; stroke-width: 0.6"/>
      </g>
     </g>
    </g>
    <g id="text_14">
     <!-- ACF $(\mathrm{W} / \mathrm{m}^2)^2$ -->
     <g transform="translate(31.275 426.339) rotate(-90) scale(0.3 -0.3)">
      <defs>
       <path id="LiberationSans-41" d="M 3647 0 
L 3144 1288 
L 1138 1288 
L 631 0 
L 13 0 
L 1809 4403 
L 2488 4403 
L 4256 0 
L 3647 0 
z
M 2141 3953 
L 2113 3866 
Q 2034 3606 1881 3200 
L 1319 1753 
L 2966 1753 
L 2400 3206 
Q 2313 3422 2225 3694 
L 2141 3953 
z
" transform="scale(0.015625)"/>
       <path id="LiberationSans-43" d="M 2475 3981 
Q 1744 3981 1337 3511 
Q 931 3041 931 2222 
Q 931 1413 1354 920 
Q 1778 428 2500 428 
Q 3425 428 3891 1344 
L 4378 1100 
Q 4106 531 3614 234 
Q 3122 -63 2472 -63 
Q 1806 -63 1320 214 
Q 834 491 579 1005 
Q 325 1519 325 2222 
Q 325 3275 894 3872 
Q 1463 4469 2469 4469 
Q 3172 4469 3644 4194 
Q 4116 3919 4338 3378 
L 3772 3191 
Q 3619 3575 3280 3778 
Q 2941 3981 2475 3981 
z
" transform="scale(0.015625)"/>
       <path id="LiberationSans-46" d="M 1122 3916 
L 1122 2278 
L 3578 2278 
L 3578 1784 
L 1122 1784 
L 1122 0 
L 525 0 
L 525 4403 
L 3653 4403 
L 3653 3916 
L 1122 3916 
z
" transform="scale(0.015625)"/>
       <path id="STIXGeneral-Regular-28" d="M 1946 -1030 
L 1869 -1133 
Q 1126 -710 716 32 
Q 307 774 307 1613 
Q 307 3386 1888 4326 
L 1946 4224 
Q 1293 3667 1075 3126 
Q 858 2586 858 1632 
Q 858 685 1082 96 
Q 1306 -493 1946 -1030 
z
" transform="scale(0.015625)"/>
       <path id="STIXGeneral-Regular-57" d="M 5965 4237 
L 5965 4115 
Q 5709 4064 5616 3990 
Q 5523 3917 5434 3667 
Q 4704 1709 4128 -70 
L 4032 -70 
Q 3642 1011 3008 2637 
L 2022 -70 
L 1926 -70 
Q 1709 576 1277 1753 
Q 845 2931 698 3347 
Q 538 3808 406 3958 
Q 275 4109 32 4115 
L 32 4237 
L 1594 4237 
L 1594 4115 
Q 1357 4109 1270 4064 
Q 1184 4019 1184 3917 
Q 1184 3808 1254 3616 
L 2176 1210 
L 2842 3021 
L 2662 3501 
Q 2509 3917 2400 4013 
Q 2291 4109 2010 4115 
L 2010 4237 
L 3706 4237 
L 3706 4115 
Q 3213 4102 3213 3891 
Q 3213 3808 3322 3520 
L 4237 1190 
L 5043 3360 
Q 5152 3667 5152 3853 
Q 5152 4109 4704 4115 
L 4704 4237 
L 5965 4237 
z
" transform="scale(0.015625)"/>
       <path id="STIXGeneral-Regular-2f" d="M 1837 4326 
L 378 -90 
L -58 -90 
L 1408 4326 
L 1837 4326 
z
" transform="scale(0.015625)"/>
       <path id="STIXGeneral-Regular-6d" d="M 4960 0 
L 3565 0 
L 3565 96 
Q 3834 122 3907 208 
Q 3981 294 3981 576 
L 3981 1894 
Q 3981 2278 3869 2444 
Q 3757 2611 3488 2611 
Q 3264 2611 3107 2521 
Q 2950 2432 2803 2221 
L 2803 608 
Q 2803 301 2896 201 
Q 2989 102 3264 96 
L 3264 0 
L 1830 0 
L 1830 96 
Q 2112 115 2189 188 
Q 2266 262 2266 550 
L 2266 1901 
Q 2266 2611 1850 2611 
Q 1670 2611 1468 2531 
Q 1267 2451 1171 2336 
Q 1088 2240 1088 2227 
L 1088 448 
Q 1088 243 1177 176 
Q 1267 109 1523 96 
L 1523 0 
L 102 0 
L 102 96 
Q 371 102 460 195 
Q 550 288 550 563 
L 550 2150 
Q 550 2387 499 2480 
Q 448 2573 326 2573 
Q 230 2573 122 2547 
L 122 2656 
Q 557 2778 1011 2944 
L 1062 2925 
L 1062 2451 
L 1075 2451 
Q 1363 2752 1584 2848 
Q 1805 2944 2054 2944 
Q 2560 2944 2733 2406 
Q 3232 2944 3776 2944 
Q 4518 2944 4518 1792 
L 4518 493 
Q 4518 282 4582 202 
Q 4646 122 4794 109 
L 4960 96 
L 4960 0 
z
" transform="scale(0.015625)"/>
       <path id="STIXGeneral-Regular-32" d="M 3034 877 
L 2688 0 
L 186 0 
L 186 77 
L 1325 1286 
Q 1773 1754 1965 2144 
Q 2157 2534 2157 2950 
Q 2157 3379 1920 3616 
Q 1683 3853 1267 3853 
Q 922 3853 720 3673 
Q 518 3494 326 3021 
L 192 3053 
Q 301 3648 630 3987 
Q 960 4326 1523 4326 
Q 2054 4326 2380 4006 
Q 2707 3686 2707 3200 
Q 2707 2477 1888 1613 
L 832 486 
L 2330 486 
Q 2541 486 2665 569 
Q 2790 653 2944 915 
L 3034 877 
z
" transform="scale(0.015625)"/>
       <path id="STIXGeneral-Regular-29" d="M 186 4224 
L 262 4326 
Q 992 3891 1408 3148 
Q 1824 2406 1824 1581 
Q 1824 -166 243 -1133 
L 186 -1030 
Q 845 -486 1059 54 
Q 1274 595 1274 1562 
Q 1274 2534 1059 3120 
Q 845 3706 186 4224 
z
" transform="scale(0.015625)"/>
      </defs>
      <use xlink:href="#LiberationSans-41" transform="translate(0 0.409375)"/>
      <use xlink:href="#LiberationSans-43" transform="translate(66.699219 0.409375)"/>
      <use xlink:href="#LiberationSans-46" transform="translate(138.916016 0.409375)"/>
      <use xlink:href="#LiberationSans-20" transform="translate(200 0.409375)"/>
      <use xlink:href="#STIXGeneral-Regular-28" transform="translate(227.783203 0.409375)"/>
      <use xlink:href="#STIXGeneral-Regular-57" transform="translate(261.083191 0.409375)"/>
      <use xlink:href="#STIXGeneral-Regular-2f" transform="translate(355.483185 0.409375)"/>
      <use xlink:href="#STIXGeneral-Regular-6d" transform="translate(383.283173 0.409375)"/>
      <use xlink:href="#STIXGeneral-Regular-32" transform="translate(462.626442 35.684375) scale(0.7)"/>
      <use xlink:href="#STIXGeneral-Regular-29" transform="translate(502.035806 0.409375)"/>
      <use xlink:href="#STIXGeneral-Regular-32" transform="translate(536.879075 35.684375) scale(0.7)"/>
     </g>
    </g>
    <g id="text_15">
     <!-- $\times\mathdefault{10^{18}}\mathdefault{}$ -->
     <g transform="translate(79.5 36.1875) scale(0.4 -0.4)">
      <defs>
       <path id="STIXGeneral-Regular-d7" d="M 3821 141 
L 3526 -160 
L 2048 1312 
L 570 -160 
L 275 134 
L 1747 1613 
L 275 3091 
L 576 3386 
L 2048 1914 
L 3526 3386 
L 3821 3098 
L 2349 1613 
L 3821 141 
z
" transform="scale(0.015625)"/>
      </defs>
      <use xlink:href="#STIXGeneral-Regular-d7" transform="translate(0 0.140625)"/>
      <use xlink:href="#LiberationSans-31" transform="translate(63.999985 0.140625)"/>
      <use xlink:href="#LiberationSans-30" transform="translate(119.615219 0.140625)"/>
      <use xlink:href="#LiberationSans-31" transform="translate(176.154946 37.120312) scale(0.7)"/>
      <use xlink:href="#LiberationSans-38" transform="translate(215.08561 37.120312) scale(0.7)"/>
     </g>
    </g>
   </g>
   <g id="line2d_52">
    <path d="M 107.865545 66.514909 
L 107.979018 67.264844 
L 108.149229 71.185874 
L 108.432913 84.989656 
L 108.83007 118.432281 
L 109.397438 189.307257 
L 110.645646 386.05889 
L 111.553435 508.57444 
L 112.177539 565.717344 
L 112.68817 594.688475 
L 113.085327 607.27547 
L 113.425748 612.238038 
L 113.652695 613.063091 
L 113.766168 612.839774 
L 113.936379 611.809923 
L 114.220062 608.521509 
L 114.673957 600.224716 
L 115.468271 580.757244 
L 117.510795 523.36568 
L 119.723528 462.037514 
L 120.517843 446.182077 
L 121.085211 438.527769 
L 121.539105 434.793483 
L 121.879526 433.357714 
L 122.106473 433.013741 
L 122.276683 433.057461 
L 122.50363 433.490634 
L 122.84405 434.865832 
L 123.297945 437.835625 
L 123.978786 444.032492 
L 125.624152 462.024554 
L 126.758887 472.924662 
L 127.553202 478.643844 
L 128.177306 481.771516 
L 128.687937 483.374959 
L 129.085094 484.026661 
L 129.368778 484.183441 
L 129.652462 484.095708 
L 129.992883 483.689434 
L 130.446777 482.691149 
L 131.014144 480.836657 
L 131.865196 477.172664 
L 133.510562 468.814338 
L 135.269402 460.256158 
L 136.063716 457.423202 
L 136.574347 456.294458 
L 136.971505 455.903026 
L 137.255188 455.915647 
L 137.538872 456.183774 
L 137.879293 456.844391 
L 138.333187 458.271511 
L 138.957291 461.08221 
L 141.340235 472.848747 
L 141.850866 474.020843 
L 142.248024 474.462872 
L 142.588444 474.549964 
L 142.928865 474.415183 
L 143.439496 473.918043 
L 145.99265 470.930028 
L 146.843701 470.015525 
L 147.467806 469.008558 
L 148.148647 467.476149 
L 149.453593 463.806636 
L 150.247907 461.934377 
L 150.758538 461.207264 
L 151.155695 460.972246 
L 151.496116 461.011583 
L 151.893273 461.325426 
L 152.403904 462.093186 
L 153.141482 463.688648 
L 154.900322 467.648176 
L 155.751373 468.961536 
L 156.715898 470.016294 
L 157.793897 470.872399 
L 158.531475 471.222172 
L 159.098842 471.262389 
L 159.609473 471.066144 
L 160.120104 470.620958 
L 160.744209 469.752746 
L 161.708734 467.938306 
L 163.013679 465.542041 
L 163.69452 464.711407 
L 164.318625 464.280894 
L 164.942729 464.132228 
L 165.62357 464.214488 
L 166.417885 464.544816 
L 167.2122 465.111554 
L 167.949777 465.90275 
L 168.744092 467.084749 
L 170.162511 469.714319 
L 171.070299 471.127969 
L 171.637667 471.648189 
L 172.091561 471.807812 
L 172.545455 471.737608 
L 173.056086 471.418085 
L 173.793664 470.652092 
L 175.382294 468.923718 
L 176.176608 468.418152 
L 177.311343 468.006309 
L 178.502816 467.496433 
L 180.545339 466.502079 
L 181.169443 466.513855 
L 181.793548 466.751365 
L 182.701336 467.380256 
L 184.006282 468.274929 
L 184.743859 468.515951 
L 185.538174 468.530084 
L 186.672909 468.293541 
L 188.601959 467.661802 
L 189.793431 467.009557 
L 191.382061 466.125898 
L 192.006165 466.033298 
L 192.573533 466.158045 
L 193.254374 466.562191 
L 194.502583 467.666913 
L 195.296898 468.218736 
L 195.921002 468.391466 
L 196.48837 468.319676 
L 197.225947 467.967364 
L 198.92805 467.052587 
L 199.608892 467.000098 
L 200.403206 467.186646 
L 201.821625 467.559707 
L 202.44573 467.479092 
L 203.126571 467.158995 
L 204.431516 466.201474 
L 205.225831 465.773564 
L 205.849936 465.679975 
L 206.47404 465.825683 
L 207.211618 466.243392 
L 209.594562 467.768476 
L 210.67256 468.072312 
L 212.658347 468.35388 
L 213.793082 468.311129 
L 214.984554 468.011297 
L 216.232763 467.747176 
L 216.970341 467.831413 
L 217.707919 468.149165 
L 220.204337 469.462778 
L 220.828441 469.387487 
L 221.509282 469.062227 
L 223.948963 467.618277 
L 224.629804 467.617079 
L 225.480856 467.87397 
L 227.126222 468.429045 
L 227.920537 468.43735 
L 228.941798 468.197548 
L 232.289267 467.244739 
L 234.955895 466.652148 
L 235.92042 466.708547 
L 237.168629 467.026669 
L 238.813995 467.414097 
L 239.891994 467.422485 
L 241.480623 467.169121 
L 244.998302 466.620809 
L 246.813879 466.461271 
L 248.062088 466.58946 
L 249.650717 467.007556 
L 251.920187 467.834721 
L 255.040709 469.093893 
L 255.721551 469.040975 
L 256.402392 468.761892 
L 257.253443 468.141074 
L 259.182493 466.632253 
L 259.863334 466.435737 
L 260.487439 466.478857 
L 261.281753 466.78141 
L 263.891645 467.996412 
L 268.771006 469.141451 
L 269.565321 468.989703 
L 270.586583 468.543637 
L 272.629106 467.6024 
L 273.990789 467.283777 
L 276.9411 466.873179 
L 277.905625 466.988345 
L 278.813413 467.324333 
L 280.118359 468.082919 
L 281.536778 468.847245 
L 282.38783 469.048877 
L 283.125407 468.993028 
L 283.862985 468.715519 
L 284.770774 468.123377 
L 287.380665 466.244839 
L 288.118243 466.059602 
L 288.855821 466.110092 
L 289.706872 466.412324 
L 292.089816 467.41648 
L 292.884131 467.433671 
L 293.905393 467.217141 
L 295.380548 466.919672 
L 296.174863 466.993918 
L 297.082651 467.310359 
L 298.954964 468.029375 
L 299.692542 468.03667 
L 300.486857 467.818007 
L 303.096748 466.885959 
L 304.004536 466.946661 
L 305.479692 467.333671 
L 307.295269 467.730523 
L 311.210105 468.249572 
L 314.614311 468.303108 
L 316.656835 468.239183 
L 318.472411 467.920175 
L 320.855355 467.518157 
L 322.160301 467.530247 
L 325.50777 467.727921 
L 326.642505 467.402058 
L 328.741765 466.746325 
L 329.70629 466.71476 
L 330.784289 466.917317 
L 333.677864 467.614175 
L 334.642389 467.528488 
L 335.947334 467.149279 
L 337.25228 466.82882 
L 338.103331 466.856194 
L 339.01112 467.12964 
L 341.564274 468.071912 
L 342.472062 468.064025 
L 346.954266 467.649942 
L 348.656369 467.481334 
L 350.698893 467.291633 
L 352.003838 467.411995 
L 353.592468 467.803438 
L 356.8832 468.688988 
L 357.790988 468.65768 
L 358.64204 468.409696 
L 359.663301 467.855836 
L 361.989509 466.476536 
L 362.84056 466.286109 
L 363.691612 466.337416 
L 364.5994 466.625389 
L 365.734135 467.230981 
L 368.79792 469.020669 
L 369.592235 469.153821 
L 370.38655 469.06069 
L 371.407811 468.688625 
L 374.017703 467.637501 
L 376.003489 466.897938 
L 377.875803 466.159428 
L 378.670117 466.119012 
L 379.407695 466.314042 
L 380.315483 466.814365 
L 382.641691 468.225538 
L 383.492742 468.421349 
L 384.40053 468.398732 
L 385.592002 468.126597 
L 388.372104 467.422842 
L 391.662836 467.029479 
L 393.194729 466.968078 
L 394.329464 467.143675 
L 398.017354 467.961663 
L 400.683981 468.065997 
L 403.974714 468.644336 
L 404.825765 468.399869 
L 405.9605 467.815847 
L 408.059761 466.70786 
L 409.251233 466.35801 
L 410.556178 466.21591 
L 411.974597 466.292922 
L 413.33628 466.584544 
L 414.697962 467.103578 
L 417.818484 468.436231 
L 418.669535 468.45478 
L 419.577324 468.238471 
L 421.109216 467.587745 
L 422.924793 466.90204 
L 424.853843 466.420081 
L 425.988578 466.334519 
L 426.953103 466.484639 
L 428.087838 466.914127 
L 430.073625 467.696935 
L 431.094887 467.815585 
L 432.513306 467.715821 
L 434.272145 467.650662 
L 437.108984 467.65226 
L 439.548664 467.473969 
L 440.6834 467.689075 
L 442.95287 468.206971 
L 443.917395 468.144861 
L 445.392551 467.78056 
L 446.754233 467.532537 
L 448.002442 467.551785 
L 450.49886 467.659333 
L 453.959802 467.465578 
L 455.208011 467.829159 
L 456.62643 468.201729 
L 457.477482 468.191838 
L 458.38527 467.938666 
L 461.165371 466.936348 
L 461.959686 467.007735 
L 462.980948 467.350665 
L 464.569577 467.893128 
L 465.363892 467.919294 
L 466.214943 467.718072 
L 468.654624 466.973909 
L 469.392202 467.085411 
L 470.29999 467.477267 
L 472.115567 468.342268 
L 472.853145 468.427132 
L 473.647459 468.290622 
L 475.009142 467.763391 
L 476.200614 467.401247 
L 477.392086 467.290141 
L 479.434609 467.124102 
L 482.328184 466.680074 
L 483.292709 466.873108 
L 484.427444 467.355057 
L 487.037336 468.557981 
L 487.945124 468.678183 
L 488.852912 468.568444 
L 490.157858 468.145425 
L 491.68975 467.707746 
L 492.994696 467.604517 
L 494.980482 467.461344 
L 497.64711 467.100321 
L 498.554899 467.290747 
L 499.689634 467.781067 
L 501.448473 468.542618 
L 502.412998 468.706216 
L 503.43426 468.650648 
L 504.852679 468.32326 
L 509.732041 467.015027 
L 511.207197 466.993452 
L 515.916348 467.313813 
L 519.604238 467.717733 
L 520.96592 467.55354 
L 523.348864 467.213535 
L 524.426863 467.326744 
L 527.944542 467.923892 
L 529.533171 467.681921 
L 530.95159 467.559036 
L 532.483483 467.680276 
L 535.433795 467.925778 
L 538.49758 467.979453 
L 539.745789 467.735598 
L 543.036521 466.925699 
L 544.568414 466.941397 
L 549.447775 467.280991 
L 553.135665 468.163706 
L 554.327137 468.053443 
L 557.277449 467.655514 
L 560.681655 467.614116 
L 563.74544 466.971613 
L 564.539754 467.178911 
L 565.504279 467.674681 
L 567.490066 468.754858 
L 568.284381 468.905395 
L 569.078696 468.822345 
L 569.986484 468.485645 
L 571.63185 467.569631 
L 573.163743 466.823625 
L 574.298478 466.517887 
L 575.31974 466.473996 
L 576.397738 466.661885 
L 578.383525 467.316582 
L 579.745207 467.616083 
L 581.61752 467.745104 
L 585.986251 467.919633 
L 587.40467 467.536365 
L 589.050036 467.124912 
L 590.014561 467.110479 
L 591.035823 467.326216 
L 594.440029 468.270808 
L 595.631501 468.207314 
L 599.830021 467.76414 
L 601.759071 467.615745 
L 603.347701 467.242596 
L 605.276751 466.814348 
L 606.298012 466.82644 
L 607.376011 467.070289 
L 610.326323 467.893175 
L 611.631268 467.905708 
L 616.567367 467.536001 
L 618.26947 467.432041 
L 619.687889 467.599524 
L 621.446728 467.783824 
L 622.751674 467.656334 
L 624.56725 467.482657 
L 625.758722 467.636279 
L 628.311877 468.062483 
L 629.843769 467.995521 
L 632.510397 467.640191 
L 636.425234 466.927413 
L 637.446496 467.137214 
L 638.921651 467.706226 
L 640.850701 468.402718 
L 642.155647 468.62416 
L 643.347119 468.601627 
L 644.425118 468.368094 
L 645.559853 467.890698 
L 649.020795 466.215505 
L 649.871847 466.198564 
L 650.722898 466.414284 
L 651.800897 466.935804 
L 654.183841 468.157443 
L 655.43205 468.486503 
L 656.850469 468.628833 
L 658.098678 468.550812 
L 659.233413 468.249723 
L 660.651832 467.610453 
L 662.580882 466.761609 
L 663.65888 466.528103 
L 664.623405 466.532755 
L 665.644667 466.762508 
L 667.119823 467.360425 
L 668.538242 467.854099 
L 669.502767 467.947105 
L 670.580766 467.805493 
L 672.509815 467.506894 
L 673.417604 467.643154 
L 674.495602 468.057518 
L 675.176443 468.360898 
L 675.176443 468.360898 
" clip-path="url(#p81ec9b269e)" style="fill: none; stroke: #ff0000; stroke-width: 1.5; stroke-linecap: square"/>
   </g>
   <g id="line2d_53">
    <path d="M 107.865545 95.611371 
L 108.092492 103.4127 
L 108.376176 117.524399 
L 108.773333 150.293762 
L 109.397438 223.729038 
L 111.723645 524.19021 
L 112.291012 564.123249 
L 112.744907 583.201781 
L 113.142064 591.615237 
L 113.425748 593.68671 
L 113.539221 593.732941 
L 113.652695 593.374851 
L 113.822905 592.202013 
L 114.106589 588.701862 
L 114.673957 577.789862 
L 115.695218 552.110092 
L 117.907952 497.545639 
L 119.269634 468.084035 
L 120.063949 454.972882 
L 120.631317 448.579725 
L 121.141948 445.060321 
L 121.539105 443.76559 
L 121.822789 443.498694 
L 121.992999 443.577565 
L 122.276683 444.120153 
L 122.84405 446.352986 
L 123.524892 450.473461 
L 125.964572 467.043834 
L 128.347517 478.251423 
L 129.141831 481.127082 
L 129.822672 482.995189 
L 130.163093 483.564238 
L 130.730461 483.58605 
L 131.014144 483.189762 
L 131.638249 481.477202 
L 132.546037 477.602852 
L 135.269402 464.249984 
L 136.120453 462.048883 
L 136.687821 460.984006 
L 137.141715 460.579128 
L 137.482135 460.523975 
L 137.765819 460.685734 
L 138.219713 461.205488 
L 139.184238 463.08322 
L 140.03529 464.912774 
L 140.886341 466.730164 
L 141.96434 468.638238 
L 143.382759 470.769979 
L 144.0636 472.036339 
L 144.971388 473.065698 
L 145.255072 473.137087 
L 145.765703 472.879929 
L 146.333071 472.196967 
L 146.730228 471.525213 
L 147.467806 469.656217 
L 148.716015 465.320025 
L 149.567066 462.838524 
L 150.077697 462.003928 
L 150.361381 461.804596 
L 150.645065 461.752772 
L 151.269169 462.155884 
L 151.723063 462.89879 
L 152.347168 464.292814 
L 153.311693 466.998143 
L 154.219481 469.984266 
L 155.581163 474.300672 
L 156.205267 475.436437 
L 156.772635 475.96339 
L 157.169792 475.921682 
L 157.453476 475.659573 
L 157.793897 475.142366 
L 158.304528 473.969077 
L 159.098842 471.462997 
L 160.744209 466.042839 
L 161.481786 464.057195 
L 161.935681 463.317276 
L 162.446311 462.926989 
L 163.807994 462.746615 
L 164.772519 462.67679 
L 165.339886 462.973081 
L 166.077464 463.643398 
L 167.268936 465.154645 
L 170.219248 469.305057 
L 171.183773 470.372441 
L 171.864614 470.869063 
L 172.488719 471.030031 
L 173.16956 470.8783 
L 173.736927 470.505466 
L 175.155346 468.984122 
L 176.290082 467.759245 
L 177.254607 466.874008 
L 178.673026 465.878957 
L 179.410604 465.538522 
L 180.034708 465.433753 
L 180.999233 465.607542 
L 181.850285 466.027864 
L 185.141017 468.017862 
L 187.297014 468.578887 
L 188.148065 468.527728 
L 189.226064 468.172749 
L 190.531009 467.297106 
L 191.949428 466.341876 
L 192.743743 466.207566 
L 193.481321 466.362234 
L 194.162162 466.749638 
L 194.956477 467.51548 
L 196.204686 468.811856 
L 196.942264 469.398784 
L 197.566368 469.664366 
L 198.247209 469.738779 
L 198.984787 469.559873 
L 199.665628 469.200948 
L 200.800364 468.371213 
L 202.729414 466.514319 
L 203.750675 465.59679 
L 204.488253 465.122509 
L 205.396041 464.83567 
L 206.247093 464.901506 
L 207.098144 465.292144 
L 208.630037 466.391199 
L 211.864032 468.989791 
L 212.715084 469.559066 
L 213.679609 469.906916 
L 214.53066 469.963778 
L 215.381712 469.74279 
L 216.346237 469.164011 
L 216.970341 468.624919 
L 217.821393 467.601278 
L 220.941915 463.234017 
L 221.452545 462.988258 
L 221.849703 463.048839 
L 222.41707 463.390359 
L 223.154648 464.132538 
L 224.0057 465.355557 
L 226.502117 469.270291 
L 227.409906 470.304814 
L 228.20422 470.908594 
L 228.714851 471.083072 
L 229.282219 471.073988 
L 229.96306 470.79415 
L 230.814111 470.03754 
L 232.686425 467.765765 
L 233.99137 466.32528 
L 235.239579 465.368107 
L 236.147367 464.880071 
L 236.941682 464.705371 
L 237.622523 464.755442 
L 238.303364 464.979467 
L 238.870732 465.316146 
L 240.005467 466.283672 
L 242.501885 468.737343 
L 243.409673 469.233072 
L 244.090514 469.379952 
L 244.828092 469.288213 
L 245.906091 468.869587 
L 247.097563 468.099062 
L 248.969876 466.775496 
L 249.76419 466.501777 
L 250.615242 466.463906 
L 251.239346 466.658764 
L 252.147135 467.273708 
L 254.189658 468.684331 
L 254.870499 468.926398 
L 255.664814 468.99873 
L 256.742812 468.727113 
L 258.047758 468.100942 
L 260.99807 466.320017 
L 262.700173 465.672432 
L 263.607961 465.582433 
L 264.288802 465.701324 
L 265.480274 466.231884 
L 266.217852 466.857066 
L 267.806481 468.676879 
L 268.88448 469.795988 
L 269.451847 470.191382 
L 270.246162 470.435386 
L 270.927003 470.42224 
L 271.607844 470.244947 
L 272.629106 469.731566 
L 273.536894 468.951324 
L 274.274472 468.054632 
L 275.01205 466.864905 
L 277.168047 463.393977 
L 277.905625 462.74986 
L 278.246046 462.711025 
L 278.813413 463.027662 
L 279.607728 463.861143 
L 280.742463 465.445723 
L 282.104146 467.326251 
L 283.465828 468.651915 
L 284.430353 469.327808 
L 285.508352 469.805627 
L 286.359403 469.851985 
L 287.040244 469.601345 
L 287.777822 469.063344 
L 290.330976 466.99441 
L 291.182028 466.710253 
L 292.940868 466.412755 
L 294.075603 466.441751 
L 295.153601 466.697037 
L 296.969178 467.529633 
L 297.876966 467.933685 
L 298.728017 468.099973 
L 299.522332 468.044288 
L 300.770541 467.695544 
L 302.813064 466.993353 
L 303.550642 466.888199 
L 304.912325 466.867201 
L 305.933586 467.062724 
L 309.054108 468.125364 
L 310.472527 468.628826 
L 311.607263 468.729079 
L 312.515051 468.578796 
L 315.351889 467.359933 
L 318.699358 465.688288 
L 319.663883 465.542844 
L 320.458198 465.602078 
L 321.706407 466.040924 
L 322.330511 466.426257 
L 323.181562 467.261346 
L 326.302084 470.919355 
L 326.869452 471.11188 
L 327.323346 471.094222 
L 327.890714 470.87704 
L 328.798502 470.123174 
L 329.649554 469.126319 
L 330.784289 467.441588 
L 333.56439 462.927249 
L 334.301968 462.316095 
L 334.812599 462.1487 
L 335.096283 462.31128 
L 335.66365 462.795404 
L 336.287755 463.582262 
L 337.479227 465.586098 
L 339.124593 468.423455 
L 340.089118 469.689538 
L 340.940169 470.505547 
L 341.677747 470.924683 
L 342.188378 471.010471 
L 342.812483 470.898273 
L 343.323114 470.645323 
L 344.060691 470.031237 
L 347.23795 466.87367 
L 347.975528 466.531486 
L 349.507421 466.134908 
L 350.92584 466.093408 
L 352.230785 466.341986 
L 353.252047 466.814126 
L 356.372569 468.716834 
L 357.393831 468.969101 
L 358.017935 468.892008 
L 358.755513 468.591007 
L 359.606565 467.972445 
L 360.91151 466.69759 
L 361.989509 465.740044 
L 362.67035 465.464225 
L 363.521401 465.448864 
L 364.088769 465.643239 
L 364.76961 466.132815 
L 365.677398 467.12481 
L 367.663185 469.24117 
L 368.287289 469.66033 
L 368.968131 469.89124 
L 369.478762 469.873061 
L 370.046129 469.678877 
L 370.72697 469.2347 
L 371.691495 468.274229 
L 373.507072 466.445646 
L 374.41486 465.897738 
L 374.982228 465.765718 
L 375.719806 465.818701 
L 377.024751 466.294611 
L 378.159486 466.73809 
L 380.485694 467.598918 
L 381.336745 468.215232 
L 383.152322 469.573016 
L 383.833163 469.786261 
L 384.627477 469.811109 
L 385.421792 469.553683 
L 386.216107 469.069245 
L 387.067158 468.310135 
L 387.974946 467.229542 
L 390.301154 464.116707 
L 391.038732 463.532245 
L 391.606099 463.396003 
L 392.11673 463.679155 
L 392.797571 464.346182 
L 393.932307 465.76069 
L 395.180515 467.303861 
L 396.258514 468.249374 
L 398.698195 469.709399 
L 399.605983 469.918859 
L 400.343561 469.884342 
L 401.081139 469.650795 
L 402.442821 468.945438 
L 404.03145 467.914947 
L 405.393133 466.896615 
L 407.322183 465.388763 
L 408.003024 465.126586 
L 408.740602 465.110173 
L 409.364706 465.337763 
L 410.102284 465.843528 
L 411.293756 467.146813 
L 412.882386 468.99288 
L 413.6767 469.605674 
L 414.300805 469.800475 
L 414.868172 469.712592 
L 415.719224 469.216647 
L 416.400065 468.570785 
L 418.499325 466.357654 
L 419.12343 466.037727 
L 419.861008 465.924458 
L 420.598585 466.041691 
L 421.3929 466.394668 
L 422.641109 467.299146 
L 424.059528 468.278692 
L 425.364474 468.845057 
L 426.612682 469.002365 
L 427.463734 468.935404 
L 428.655206 468.500349 
L 429.903415 467.602634 
L 431.151623 466.486752 
L 432.172885 465.707329 
L 433.023937 465.321152 
L 433.648041 465.23071 
L 434.272145 465.312676 
L 435.123197 465.64681 
L 436.087722 466.330242 
L 436.99551 467.286033 
L 439.491928 470.151841 
L 440.229506 470.620108 
L 441.02382 470.80171 
L 441.591188 470.687281 
L 442.385503 470.262161 
L 443.066344 469.643331 
L 444.087606 468.334631 
L 444.938657 466.914938 
L 446.924444 463.372345 
L 447.718758 462.356256 
L 448.286126 461.925937 
L 448.513073 461.992747 
L 449.023704 462.232448 
L 449.704545 462.870332 
L 450.49886 463.937705 
L 452.257699 466.890854 
L 453.789592 469.22456 
L 454.754117 470.385398 
L 455.548432 471.009088 
L 456.172536 471.212265 
L 456.853377 471.124845 
L 457.364008 470.851256 
L 457.931376 470.353568 
L 459.349795 468.752816 
L 460.65474 467.397428 
L 461.959686 466.305603 
L 463.378105 465.361731 
L 464.34263 465.167378 
L 464.909998 465.244159 
L 465.647576 465.544726 
L 466.555364 466.178081 
L 469.221992 468.183575 
L 470.29999 468.78845 
L 471.434726 469.170677 
L 472.22904 469.198129 
L 472.909881 469.021981 
L 473.874406 468.448771 
L 475.973667 466.886631 
L 476.938192 466.581155 
L 477.902717 466.613663 
L 478.640295 466.908819 
L 480.739555 468.02998 
L 482.101237 468.541651 
L 483.349446 468.679134 
L 484.257234 468.564184 
L 485.051549 468.233406 
L 485.789127 467.706835 
L 487.66144 465.913679 
L 488.569228 465.191882 
L 489.306806 464.884589 
L 489.874174 464.858464 
L 490.328068 464.981052 
L 491.235856 465.56423 
L 492.881222 467.224823 
L 495.661324 470.573338 
L 496.228691 470.925338 
L 496.796059 471.02551 
L 497.420163 470.857271 
L 498.044268 470.446689 
L 498.838582 469.625787 
L 500.143528 468.007153 
L 504.455522 462.784002 
L 505.02289 462.451586 
L 505.249837 462.50011 
L 505.760467 462.679348 
L 506.441309 463.214838 
L 507.12215 464.032738 
L 507.916465 465.286733 
L 511.377407 470.928901 
L 512.171722 471.533133 
L 512.625616 471.633568 
L 513.136247 471.545193 
L 513.703614 471.182141 
L 514.270982 470.567067 
L 515.462454 468.841095 
L 516.483716 467.478272 
L 517.334767 466.697681 
L 518.185819 466.297136 
L 519.717711 466.00924 
L 521.363077 466.020514 
L 522.611286 466.238664 
L 523.802758 466.728889 
L 527.150227 468.444528 
L 528.114752 468.550087 
L 529.419698 468.289603 
L 530.95159 467.602538 
L 532.37001 466.992177 
L 533.618218 466.927289 
L 534.582743 467.109703 
L 535.433795 467.536943 
L 537.986949 468.730056 
L 538.781264 468.767873 
L 539.462105 468.58984 
L 541.674839 467.369369 
L 543.376942 466.428975 
L 545.022308 466.005388 
L 545.930096 466.073332 
L 547.178305 466.508603 
L 548.369777 467.136625 
L 549.90167 468.063843 
L 552.625034 470.077357 
L 553.419349 470.232857 
L 554.10019 470.08199 
L 554.837768 469.690804 
L 555.915766 468.735887 
L 557.561133 466.951245 
L 558.752605 465.503594 
L 559.944077 464.137818 
L 560.795128 463.45393 
L 561.362496 463.218029 
L 561.81639 463.256617 
L 562.383757 463.739766 
L 563.234809 464.805973 
L 565.504279 467.852049 
L 566.582278 468.75282 
L 568.114171 469.626789 
L 569.305643 469.974342 
L 570.213431 469.969215 
L 570.894272 469.767745 
L 572.880059 468.505926 
L 574.071531 467.653037 
L 576.057317 466.230664 
L 576.851632 465.756295 
L 577.872894 465.488677 
L 578.780682 465.607557 
L 579.461523 465.913257 
L 581.050153 467.00445 
L 582.638782 468.254115 
L 584.170675 469.034257 
L 584.851516 469.123878 
L 585.759304 468.908151 
L 586.610356 468.403973 
L 589.560667 466.186641 
L 590.298245 466.033192 
L 590.979086 466.070343 
L 591.659927 466.311918 
L 592.681189 467.024585 
L 594.610239 468.412101 
L 595.29108 468.715533 
L 596.085395 468.873117 
L 596.993183 468.784996 
L 598.184655 468.448073 
L 599.14918 467.93207 
L 602.610123 465.769303 
L 603.234227 465.610682 
L 603.801595 465.612078 
L 604.709383 465.952675 
L 606.127802 467.020427 
L 609.134851 469.618972 
L 609.758955 469.804059 
L 610.496533 469.797772 
L 611.290848 469.615855 
L 612.766003 468.980871 
L 614.014212 468.146178 
L 614.922001 467.238001 
L 618.099259 463.28823 
L 618.60989 463.104628 
L 619.007047 463.258873 
L 619.744625 463.87804 
L 620.53894 464.82037 
L 622.184306 467.221945 
L 623.205568 468.590489 
L 624.680724 470.136374 
L 625.475039 470.601086 
L 626.042406 470.674681 
L 626.609774 470.540687 
L 627.290615 470.088959 
L 627.971456 469.360556 
L 630.581347 466.422676 
L 631.432399 465.854771 
L 632.850818 465.28745 
L 633.701869 465.206173 
L 634.666394 465.417772 
L 635.687656 466.017003 
L 638.921651 468.44482 
L 639.886176 468.833988 
L 641.020912 469.051345 
L 641.9287 468.909513 
L 642.779751 468.533147 
L 643.574066 467.975444 
L 645.559853 466.441788 
L 646.240694 466.172757 
L 647.035009 466.125101 
L 647.772587 466.322104 
L 648.453428 466.712742 
L 651.630686 468.951104 
L 652.311528 469.100242 
L 653.049106 468.972923 
L 653.786684 468.62819 
L 655.091629 467.754484 
L 657.3611 466.156773 
L 658.268888 465.806898 
L 659.006466 465.750148 
L 659.687307 465.896985 
L 660.538358 466.298159 
L 665.758141 469.617533 
L 666.495719 469.909454 
L 667.630454 470.046006 
L 668.594979 469.916919 
L 669.786451 469.455367 
L 670.637502 468.80557 
L 671.261607 468.110588 
L 672.055921 466.883662 
L 674.779286 462.20303 
L 675.176443 461.829823 
L 675.176443 461.829823 
" clip-path="url(#p81ec9b269e)" style="fill: none; stroke: #0000ff; stroke-width: 1.5; stroke-linecap: square"/>
   </g>
   <g id="patch_3">
    <path d="M 79.5 640.3905 
L 79.5 39.1875 
" style="fill: none; stroke: #000000; stroke-width: 0.8; stroke-linejoin: miter; stroke-linecap: square"/>
   </g>
   <g id="patch_4">
    <path d="M 703.541988 640.3905 
L 703.541988 39.1875 
" style="fill: none; stroke: #000000; stroke-width: 0.8; stroke-linejoin: miter; stroke-linecap: square"/>
   </g>
   <g id="patch_5">
    <path d="M 79.5 640.3905 
L 703.541988 640.3905 
" style="fill: none; stroke: #000000; stroke-width: 0.8; stroke-linejoin: miter; stroke-linecap: square"/>
   </g>
   <g id="patch_6">
    <path d="M 79.5 39.1875 
L 703.541988 39.1875 
" style="fill: none; stroke: #000000; stroke-width: 0.8; stroke-linejoin: miter; stroke-linecap: square"/>
   </g>
   <g id="legend_1">
    <g id="patch_7">
     <path d="M 506.531051 149.11875 
L 682.541988 149.11875 
Q 688.541988 149.11875 688.541988 143.11875 
L 688.541988 60.1875 
Q 688.541988 54.1875 682.541988 54.1875 
L 506.531051 54.1875 
Q 500.531051 54.1875 500.531051 60.1875 
L 500.531051 143.11875 
Q 500.531051 149.11875 506.531051 149.11875 
z
" style="fill: #ffffff; opacity: 0.8; stroke: #cccccc; stroke-linejoin: miter"/>
    </g>
    <g id="line2d_54">
     <path d="M 512.531051 77.428125 
L 542.531051 77.428125 
L 572.531051 77.428125 
" style="fill: none; stroke: #ff0000; stroke-width: 1.5; stroke-linecap: square"/>
    </g>
    <g id="text_16">
     <!-- MD -->
     <g transform="translate(596.531051 87.928125) scale(0.3 -0.3)">
      <defs>
       <path id="LiberationSans-4d" d="M 4269 0 
L 4269 2938 
Q 4269 3425 4297 3875 
Q 4144 3316 4022 3000 
L 2884 0 
L 2466 0 
L 1313 3000 
L 1138 3531 
L 1034 3875 
L 1044 3528 
L 1056 2938 
L 1056 0 
L 525 0 
L 525 4403 
L 1309 4403 
L 2481 1350 
Q 2544 1166 2601 955 
Q 2659 744 2678 650 
Q 2703 775 2783 1029 
Q 2863 1284 2891 1350 
L 4041 4403 
L 4806 4403 
L 4806 0 
L 4269 0 
z
" transform="scale(0.015625)"/>
       <path id="LiberationSans-44" d="M 4316 2247 
Q 4316 1566 4050 1055 
Q 3784 544 3296 272 
Q 2809 0 2172 0 
L 525 0 
L 525 4403 
L 1981 4403 
Q 3100 4403 3708 3842 
Q 4316 3281 4316 2247 
z
M 3716 2247 
Q 3716 3066 3267 3495 
Q 2819 3925 1969 3925 
L 1122 3925 
L 1122 478 
L 2103 478 
Q 2588 478 2955 690 
Q 3322 903 3519 1303 
Q 3716 1703 3716 2247 
z
" transform="scale(0.015625)"/>
      </defs>
      <use xlink:href="#LiberationSans-4d"/>
      <use xlink:href="#LiberationSans-44" x="83.300781"/>
     </g>
    </g>
    <g id="line2d_55">
     <path d="M 512.531051 120.39375 
L 542.531051 120.39375 
L 572.531051 120.39375 
" style="fill: none; stroke: #0000ff; stroke-width: 1.5; stroke-linecap: square"/>
    </g>
    <g id="text_17">
     <!-- GANs -->
     <g transform="translate(596.531051 130.89375) scale(0.3 -0.3)">
      <defs>
       <path id="LiberationSans-47" d="M 322 2222 
Q 322 3294 897 3881 
Q 1472 4469 2513 4469 
Q 3244 4469 3700 4222 
Q 4156 3975 4403 3431 
L 3834 3263 
Q 3647 3638 3317 3809 
Q 2988 3981 2497 3981 
Q 1734 3981 1331 3520 
Q 928 3059 928 2222 
Q 928 1388 1356 905 
Q 1784 422 2541 422 
Q 2972 422 3345 553 
Q 3719 684 3950 909 
L 3950 1703 
L 2634 1703 
L 2634 2203 
L 4500 2203 
L 4500 684 
Q 4150 328 3642 132 
Q 3134 -63 2541 -63 
Q 1850 -63 1350 212 
Q 850 488 586 1005 
Q 322 1522 322 2222 
z
" transform="scale(0.015625)"/>
       <path id="LiberationSans-4e" d="M 3381 0 
L 1025 3750 
L 1041 3447 
L 1056 2925 
L 1056 0 
L 525 0 
L 525 4403 
L 1219 4403 
L 3600 628 
Q 3563 1241 3563 1516 
L 3563 4403 
L 4100 4403 
L 4100 0 
L 3381 0 
z
" transform="scale(0.015625)"/>
      </defs>
      <use xlink:href="#LiberationSans-47"/>
      <use xlink:href="#LiberationSans-41" x="77.783203"/>
      <use xlink:href="#LiberationSans-4e" x="144.482422"/>
      <use xlink:href="#LiberationSans-73" x="216.699219"/>
     </g>
    </g>
   </g>
  </g>
 </g>
 <defs>
  <clipPath id="p81ec9b269e">
   <rect x="79.5" y="39.1875" width="624.041988" height="601.203"/>
  </clipPath>
 </defs>
</svg>
