<?xml version="1.0" encoding="utf-8" standalone="no"?>
<!DOCTYPE svg PUBLIC "-//W3C//DTD SVG 1.1//EN"
  "http://www.w3.org/Graphics/SVG/1.1/DTD/svg11.dtd">
<svg xmlns:xlink="http://www.w3.org/1999/xlink" width="711.735pt" height="711.105187pt" viewBox="0 0 711.735 711.105187" xmlns="http://www.w3.org/2000/svg" version="1.1">
 <metadata>
  <rdf:RDF xmlns:dc="http://purl.org/dc/elements/1.1/" xmlns:cc="http://creativecommons.org/ns#" xmlns:rdf="http://www.w3.org/1999/02/22-rdf-syntax-ns#">
   <cc:Work>
    <dc:type rdf:resource="http://purl.org/dc/dcmitype/StillImage"/>
    <dc:date>2025-02-05T16:18:18.794159</dc:date>
    <dc:format>image/svg+xml</dc:format>
    <dc:creator>
     <cc:Agent>
      <dc:title>Matplotlib v3.9.3, https://matplotlib.org/</dc:title>
     </cc:Agent>
    </dc:creator>
   </cc:Work>
  </rdf:RDF>
 </metadata>
 <defs>
  <style type="text/css">*{stroke-linejoin: round; stroke-linecap: butt}</style>
 </defs>
 <g id="figure_1">
  <g id="patch_1">
   <path d="M 0 711.105187 
L 711.735 711.105187 
L 711.735 0 
L 0 0 
z
" style="fill: #ffffff"/>
  </g>
  <g id="axes_1">
   <g id="patch_2">
    <path d="M 96.125625 643.2705 
L 689.520469 643.2705 
L 689.520469 39.1875 
L 96.125625 39.1875 
z
" style="fill: #ffffff"/>
   </g>
   <g id="matplotlib.axis_1">
    <g id="xtick_1">
     <g id="line2d_1">
      <defs>
       <path id="me246f772f8" d="M 0 0 
L 0 -3.5 
" style="stroke: #000000; stroke-width: 0.8"/>
      </defs>
      <g>
       <use xlink:href="#me246f772f8" x="96.125625" y="643.2705" style="stroke: #000000; stroke-width: 0.8"/>
      </g>
     </g>
     <g id="text_1">
      <!-- 0 -->
      <g transform="translate(88.618359 666.337062) scale(0.27 -0.27)">
       <defs>
        <path id="LiberationSans-30" d="M 3309 2203 
Q 3309 1100 2920 518 
Q 2531 -63 1772 -63 
Q 1013 -63 631 515 
Q 250 1094 250 2203 
Q 250 3338 620 3903 
Q 991 4469 1791 4469 
Q 2569 4469 2939 3897 
Q 3309 3325 3309 2203 
z
M 2738 2203 
Q 2738 3156 2517 3584 
Q 2297 4013 1791 4013 
Q 1272 4013 1045 3591 
Q 819 3169 819 2203 
Q 819 1266 1048 831 
Q 1278 397 1778 397 
Q 2275 397 2506 840 
Q 2738 1284 2738 2203 
z
" transform="scale(0.015625)"/>
       </defs>
       <use xlink:href="#LiberationSans-30"/>
      </g>
     </g>
    </g>
    <g id="xtick_2">
     <g id="line2d_2">
      <g>
       <use xlink:href="#me246f772f8" x="214.804594" y="643.2705" style="stroke: #000000; stroke-width: 0.8"/>
      </g>
     </g>
     <g id="text_2">
      <!-- 2 -->
      <g transform="translate(207.297328 666.337062) scale(0.27 -0.27)">
       <defs>
        <path id="LiberationSans-32" d="M 322 0 
L 322 397 
Q 481 763 711 1042 
Q 941 1322 1194 1548 
Q 1447 1775 1695 1969 
Q 1944 2163 2144 2356 
Q 2344 2550 2467 2762 
Q 2591 2975 2591 3244 
Q 2591 3606 2378 3806 
Q 2166 4006 1788 4006 
Q 1428 4006 1195 3811 
Q 963 3616 922 3263 
L 347 3316 
Q 409 3844 795 4156 
Q 1181 4469 1788 4469 
Q 2453 4469 2811 4155 
Q 3169 3841 3169 3263 
Q 3169 3006 3051 2753 
Q 2934 2500 2703 2247 
Q 2472 1994 1819 1463 
Q 1459 1169 1246 933 
Q 1034 697 941 478 
L 3238 478 
L 3238 0 
L 322 0 
z
" transform="scale(0.015625)"/>
       </defs>
       <use xlink:href="#LiberationSans-32"/>
      </g>
     </g>
    </g>
    <g id="xtick_3">
     <g id="line2d_3">
      <g>
       <use xlink:href="#me246f772f8" x="333.483563" y="643.2705" style="stroke: #000000; stroke-width: 0.8"/>
      </g>
     </g>
     <g id="text_3">
      <!-- 4 -->
      <g transform="translate(325.976297 666.337062) scale(0.27 -0.27)">
       <defs>
        <path id="LiberationSans-34" d="M 2753 997 
L 2753 0 
L 2222 0 
L 2222 997 
L 147 997 
L 147 1434 
L 2163 4403 
L 2753 4403 
L 2753 1441 
L 3372 1441 
L 3372 997 
L 2753 997 
z
M 2222 3769 
Q 2216 3750 2134 3603 
Q 2053 3456 2013 3397 
L 884 1734 
L 716 1503 
L 666 1441 
L 2222 1441 
L 2222 3769 
z
" transform="scale(0.015625)"/>
       </defs>
       <use xlink:href="#LiberationSans-34"/>
      </g>
     </g>
    </g>
    <g id="xtick_4">
     <g id="line2d_4">
      <g>
       <use xlink:href="#me246f772f8" x="452.162531" y="643.2705" style="stroke: #000000; stroke-width: 0.8"/>
      </g>
     </g>
     <g id="text_4">
      <!-- 6 -->
      <g transform="translate(444.655266 666.337062) scale(0.27 -0.27)">
       <defs>
        <path id="LiberationSans-36" d="M 3278 1441 
Q 3278 744 2900 340 
Q 2522 -63 1856 -63 
Q 1113 -63 719 490 
Q 325 1044 325 2100 
Q 325 3244 734 3856 
Q 1144 4469 1900 4469 
Q 2897 4469 3156 3572 
L 2619 3475 
Q 2453 4013 1894 4013 
Q 1413 4013 1148 3564 
Q 884 3116 884 2266 
Q 1038 2550 1316 2698 
Q 1594 2847 1953 2847 
Q 2563 2847 2920 2465 
Q 3278 2084 3278 1441 
z
M 2706 1416 
Q 2706 1894 2472 2153 
Q 2238 2413 1819 2413 
Q 1425 2413 1183 2183 
Q 941 1953 941 1550 
Q 941 1041 1192 716 
Q 1444 391 1838 391 
Q 2244 391 2475 664 
Q 2706 938 2706 1416 
z
" transform="scale(0.015625)"/>
       </defs>
       <use xlink:href="#LiberationSans-36"/>
      </g>
     </g>
    </g>
    <g id="xtick_5">
     <g id="line2d_5">
      <g>
       <use xlink:href="#me246f772f8" x="570.8415" y="643.2705" style="stroke: #000000; stroke-width: 0.8"/>
      </g>
     </g>
     <g id="text_5">
      <!-- 8 -->
      <g transform="translate(563.334234 666.337062) scale(0.27 -0.27)">
       <defs>
        <path id="LiberationSans-38" d="M 3281 1228 
Q 3281 619 2893 278 
Q 2506 -63 1781 -63 
Q 1075 -63 676 271 
Q 278 606 278 1222 
Q 278 1653 525 1947 
Q 772 2241 1156 2303 
L 1156 2316 
Q 797 2400 589 2681 
Q 381 2963 381 3341 
Q 381 3844 757 4156 
Q 1134 4469 1769 4469 
Q 2419 4469 2795 4162 
Q 3172 3856 3172 3334 
Q 3172 2956 2962 2675 
Q 2753 2394 2391 2322 
L 2391 2309 
Q 2813 2241 3047 1952 
Q 3281 1663 3281 1228 
z
M 2588 3303 
Q 2588 4050 1769 4050 
Q 1372 4050 1164 3862 
Q 956 3675 956 3303 
Q 956 2925 1170 2726 
Q 1384 2528 1775 2528 
Q 2172 2528 2380 2711 
Q 2588 2894 2588 3303 
z
M 2697 1281 
Q 2697 1691 2453 1898 
Q 2209 2106 1769 2106 
Q 1341 2106 1100 1882 
Q 859 1659 859 1269 
Q 859 359 1788 359 
Q 2247 359 2472 579 
Q 2697 800 2697 1281 
z
" transform="scale(0.015625)"/>
       </defs>
       <use xlink:href="#LiberationSans-38"/>
      </g>
     </g>
    </g>
    <g id="xtick_6">
     <g id="line2d_6">
      <g>
       <use xlink:href="#me246f772f8" x="689.520469" y="643.2705" style="stroke: #000000; stroke-width: 0.8"/>
      </g>
     </g>
     <g id="text_6">
      <!-- 10 -->
      <g transform="translate(674.505937 666.337062) scale(0.27 -0.27)">
       <defs>
        <path id="LiberationSans-31" d="M 488 0 
L 488 478 
L 1609 478 
L 1609 3866 
L 616 3156 
L 616 3688 
L 1656 4403 
L 2175 4403 
L 2175 478 
L 3247 478 
L 3247 0 
L 488 0 
z
" transform="scale(0.015625)"/>
       </defs>
       <use xlink:href="#LiberationSans-31"/>
       <use xlink:href="#LiberationSans-30" x="55.615234"/>
      </g>
     </g>
    </g>
    <g id="xtick_7">
     <g id="line2d_7">
      <defs>
       <path id="m3201cb90a4" d="M 0 0 
L 0 -2 
" style="stroke: #000000; stroke-width: 0.6"/>
      </defs>
      <g>
       <use xlink:href="#m3201cb90a4" x="125.795367" y="643.2705" style="stroke: #000000; stroke-width: 0.6"/>
      </g>
     </g>
    </g>
    <g id="xtick_8">
     <g id="line2d_8">
      <g>
       <use xlink:href="#m3201cb90a4" x="155.465109" y="643.2705" style="stroke: #000000; stroke-width: 0.6"/>
      </g>
     </g>
    </g>
    <g id="xtick_9">
     <g id="line2d_9">
      <g>
       <use xlink:href="#m3201cb90a4" x="185.134852" y="643.2705" style="stroke: #000000; stroke-width: 0.6"/>
      </g>
     </g>
    </g>
    <g id="xtick_10">
     <g id="line2d_10">
      <g>
       <use xlink:href="#m3201cb90a4" x="244.474336" y="643.2705" style="stroke: #000000; stroke-width: 0.6"/>
      </g>
     </g>
    </g>
    <g id="xtick_11">
     <g id="line2d_11">
      <g>
       <use xlink:href="#m3201cb90a4" x="274.144078" y="643.2705" style="stroke: #000000; stroke-width: 0.6"/>
      </g>
     </g>
    </g>
    <g id="xtick_12">
     <g id="line2d_12">
      <g>
       <use xlink:href="#m3201cb90a4" x="303.81382" y="643.2705" style="stroke: #000000; stroke-width: 0.6"/>
      </g>
     </g>
    </g>
    <g id="xtick_13">
     <g id="line2d_13">
      <g>
       <use xlink:href="#m3201cb90a4" x="363.153305" y="643.2705" style="stroke: #000000; stroke-width: 0.6"/>
      </g>
     </g>
    </g>
    <g id="xtick_14">
     <g id="line2d_14">
      <g>
       <use xlink:href="#m3201cb90a4" x="392.823047" y="643.2705" style="stroke: #000000; stroke-width: 0.6"/>
      </g>
     </g>
    </g>
    <g id="xtick_15">
     <g id="line2d_15">
      <g>
       <use xlink:href="#m3201cb90a4" x="422.492789" y="643.2705" style="stroke: #000000; stroke-width: 0.6"/>
      </g>
     </g>
    </g>
    <g id="xtick_16">
     <g id="line2d_16">
      <g>
       <use xlink:href="#m3201cb90a4" x="481.832273" y="643.2705" style="stroke: #000000; stroke-width: 0.6"/>
      </g>
     </g>
    </g>
    <g id="xtick_17">
     <g id="line2d_17">
      <g>
       <use xlink:href="#m3201cb90a4" x="511.502016" y="643.2705" style="stroke: #000000; stroke-width: 0.6"/>
      </g>
     </g>
    </g>
    <g id="xtick_18">
     <g id="line2d_18">
      <g>
       <use xlink:href="#m3201cb90a4" x="541.171758" y="643.2705" style="stroke: #000000; stroke-width: 0.6"/>
      </g>
     </g>
    </g>
    <g id="xtick_19">
     <g id="line2d_19">
      <g>
       <use xlink:href="#m3201cb90a4" x="600.511242" y="643.2705" style="stroke: #000000; stroke-width: 0.6"/>
      </g>
     </g>
    </g>
    <g id="xtick_20">
     <g id="line2d_20">
      <g>
       <use xlink:href="#m3201cb90a4" x="630.180984" y="643.2705" style="stroke: #000000; stroke-width: 0.6"/>
      </g>
     </g>
    </g>
    <g id="xtick_21">
     <g id="line2d_21">
      <g>
       <use xlink:href="#m3201cb90a4" x="659.850727" y="643.2705" style="stroke: #000000; stroke-width: 0.6"/>
      </g>
     </g>
    </g>
    <g id="text_7">
     <!-- Time ps -->
     <g transform="translate(340.046484 697.680187) scale(0.3 -0.3)">
      <defs>
       <path id="LiberationSans-54" d="M 2250 3916 
L 2250 0 
L 1656 0 
L 1656 3916 
L 144 3916 
L 144 4403 
L 3763 4403 
L 3763 3916 
L 2250 3916 
z
" transform="scale(0.015625)"/>
       <path id="LiberationSans-69" d="M 428 4100 
L 428 4638 
L 991 4638 
L 991 4100 
L 428 4100 
z
M 428 0 
L 428 3381 
L 991 3381 
L 991 0 
L 428 0 
z
" transform="scale(0.015625)"/>
       <path id="LiberationSans-6d" d="M 2400 0 
L 2400 2144 
Q 2400 2634 2265 2821 
Q 2131 3009 1781 3009 
Q 1422 3009 1212 2734 
Q 1003 2459 1003 1959 
L 1003 0 
L 444 0 
L 444 2659 
Q 444 3250 425 3381 
L 956 3381 
Q 959 3366 962 3297 
Q 966 3228 970 3139 
Q 975 3050 981 2803 
L 991 2803 
Q 1172 3163 1406 3303 
Q 1641 3444 1978 3444 
Q 2363 3444 2586 3291 
Q 2809 3138 2897 2803 
L 2906 2803 
Q 3081 3144 3329 3294 
Q 3578 3444 3931 3444 
Q 4444 3444 4676 3166 
Q 4909 2888 4909 2253 
L 4909 0 
L 4353 0 
L 4353 2144 
Q 4353 2634 4218 2821 
Q 4084 3009 3734 3009 
Q 3366 3009 3161 2736 
Q 2956 2463 2956 1959 
L 2956 0 
L 2400 0 
z
" transform="scale(0.015625)"/>
       <path id="LiberationSans-65" d="M 863 1572 
Q 863 991 1103 675 
Q 1344 359 1806 359 
Q 2172 359 2392 506 
Q 2613 653 2691 878 
L 3184 738 
Q 2881 -63 1806 -63 
Q 1056 -63 664 384 
Q 272 831 272 1713 
Q 272 2550 664 2997 
Q 1056 3444 1784 3444 
Q 3275 3444 3275 1647 
L 3275 1572 
L 863 1572 
z
M 2694 2003 
Q 2647 2538 2422 2783 
Q 2197 3028 1775 3028 
Q 1366 3028 1127 2754 
Q 888 2481 869 2003 
L 2694 2003 
z
" transform="scale(0.015625)"/>
       <path id="LiberationSans-20" transform="scale(0.015625)"/>
       <path id="LiberationSans-70" d="M 3291 1706 
Q 3291 -63 2047 -63 
Q 1266 -63 997 525 
L 981 525 
Q 994 500 994 -6 
L 994 -1328 
L 431 -1328 
L 431 2691 
Q 431 3213 413 3381 
L 956 3381 
Q 959 3369 965 3292 
Q 972 3216 980 3056 
Q 988 2897 988 2838 
L 1000 2838 
Q 1150 3150 1397 3295 
Q 1644 3441 2047 3441 
Q 2672 3441 2981 3022 
Q 3291 2603 3291 1706 
z
M 2700 1694 
Q 2700 2400 2509 2703 
Q 2319 3006 1903 3006 
Q 1569 3006 1380 2865 
Q 1191 2725 1092 2426 
Q 994 2128 994 1650 
Q 994 984 1206 668 
Q 1419 353 1897 353 
Q 2316 353 2508 661 
Q 2700 969 2700 1694 
z
" transform="scale(0.015625)"/>
       <path id="LiberationSans-73" d="M 2969 934 
Q 2969 456 2608 196 
Q 2247 -63 1597 -63 
Q 966 -63 623 145 
Q 281 353 178 794 
L 675 891 
Q 747 619 972 492 
Q 1197 366 1597 366 
Q 2025 366 2223 497 
Q 2422 628 2422 891 
Q 2422 1091 2284 1216 
Q 2147 1341 1841 1422 
L 1438 1528 
Q 953 1653 748 1773 
Q 544 1894 428 2066 
Q 313 2238 313 2488 
Q 313 2950 642 3192 
Q 972 3434 1603 3434 
Q 2163 3434 2492 3237 
Q 2822 3041 2909 2606 
L 2403 2544 
Q 2356 2769 2151 2889 
Q 1947 3009 1603 3009 
Q 1222 3009 1040 2893 
Q 859 2778 859 2544 
Q 859 2400 934 2306 
Q 1009 2213 1156 2147 
Q 1303 2081 1775 1966 
Q 2222 1853 2419 1758 
Q 2616 1663 2730 1547 
Q 2844 1431 2906 1279 
Q 2969 1128 2969 934 
z
" transform="scale(0.015625)"/>
      </defs>
      <use xlink:href="#LiberationSans-54"/>
      <use xlink:href="#LiberationSans-69" x="57.333984"/>
      <use xlink:href="#LiberationSans-6d" x="79.550781"/>
      <use xlink:href="#LiberationSans-65" x="162.851562"/>
      <use xlink:href="#LiberationSans-20" x="218.466797"/>
      <use xlink:href="#LiberationSans-70" x="246.25"/>
      <use xlink:href="#LiberationSans-73" x="301.865234"/>
     </g>
    </g>
   </g>
   <g id="matplotlib.axis_2">
    <g id="ytick_1">
     <g id="line2d_22">
      <defs>
       <path id="me13a028869" d="M 0 0 
L 3.5 0 
" style="stroke: #000000; stroke-width: 0.8"/>
      </defs>
      <g>
       <use xlink:href="#me13a028869" x="96.125625" y="592.93025" style="stroke: #000000; stroke-width: 0.8"/>
      </g>
     </g>
     <g id="text_8">
      <!-- $\mathdefault{−1.5}$ -->
      <g transform="translate(39.165625 602.713531) scale(0.27 -0.27)">
       <defs>
        <path id="LiberationSans-2212" d="M 316 1900 
L 316 2356 
L 3425 2356 
L 3425 1900 
L 316 1900 
z
" transform="scale(0.015625)"/>
        <path id="LiberationSans-2e" d="M 584 0 
L 584 684 
L 1194 684 
L 1194 0 
L 584 0 
z
" transform="scale(0.015625)"/>
        <path id="LiberationSans-35" d="M 3291 1434 
Q 3291 738 2877 337 
Q 2463 -63 1728 -63 
Q 1113 -63 734 206 
Q 356 475 256 984 
L 825 1050 
Q 1003 397 1741 397 
Q 2194 397 2450 670 
Q 2706 944 2706 1422 
Q 2706 1838 2448 2094 
Q 2191 2350 1753 2350 
Q 1525 2350 1328 2278 
Q 1131 2206 934 2034 
L 384 2034 
L 531 4403 
L 3034 4403 
L 3034 3925 
L 1044 3925 
L 959 2528 
Q 1325 2809 1869 2809 
Q 2519 2809 2905 2428 
Q 3291 2047 3291 1434 
z
" transform="scale(0.015625)"/>
       </defs>
       <use xlink:href="#LiberationSans-2212" transform="translate(0 0.203125)"/>
       <use xlink:href="#LiberationSans-31" transform="translate(58.398438 0.203125)"/>
       <use xlink:href="#LiberationSans-2e" transform="translate(114.013672 0.203125)"/>
       <use xlink:href="#LiberationSans-35" transform="translate(141.796875 0.203125)"/>
      </g>
     </g>
    </g>
    <g id="ytick_2">
     <g id="line2d_23">
      <g>
       <use xlink:href="#me13a028869" x="96.125625" y="509.029833" style="stroke: #000000; stroke-width: 0.8"/>
      </g>
     </g>
     <g id="text_9">
      <!-- $\mathdefault{−1.0}$ -->
      <g transform="translate(39.165625 518.813115) scale(0.27 -0.27)">
       <use xlink:href="#LiberationSans-2212" transform="translate(0 0.171875)"/>
       <use xlink:href="#LiberationSans-31" transform="translate(58.398438 0.171875)"/>
       <use xlink:href="#LiberationSans-2e" transform="translate(114.013672 0.171875)"/>
       <use xlink:href="#LiberationSans-30" transform="translate(141.796875 0.171875)"/>
      </g>
     </g>
    </g>
    <g id="ytick_3">
     <g id="line2d_24">
      <g>
       <use xlink:href="#me13a028869" x="96.125625" y="425.129417" style="stroke: #000000; stroke-width: 0.8"/>
      </g>
     </g>
     <g id="text_10">
      <!-- $\mathdefault{−0.5}$ -->
      <g transform="translate(39.165625 434.912698) scale(0.27 -0.27)">
       <use xlink:href="#LiberationSans-2212" transform="translate(0 0.171875)"/>
       <use xlink:href="#LiberationSans-30" transform="translate(58.398438 0.171875)"/>
       <use xlink:href="#LiberationSans-2e" transform="translate(114.013672 0.171875)"/>
       <use xlink:href="#LiberationSans-35" transform="translate(141.796875 0.171875)"/>
      </g>
     </g>
    </g>
    <g id="ytick_4">
     <g id="line2d_25">
      <g>
       <use xlink:href="#me13a028869" x="96.125625" y="341.229" style="stroke: #000000; stroke-width: 0.8"/>
      </g>
     </g>
     <g id="text_11">
      <!-- $\mathdefault{0.0}$ -->
      <g transform="translate(54.825625 351.012281) scale(0.27 -0.27)">
       <use xlink:href="#LiberationSans-30" transform="translate(0 0.171875)"/>
       <use xlink:href="#LiberationSans-2e" transform="translate(55.615234 0.171875)"/>
       <use xlink:href="#LiberationSans-30" transform="translate(83.398438 0.171875)"/>
      </g>
     </g>
    </g>
    <g id="ytick_5">
     <g id="line2d_26">
      <g>
       <use xlink:href="#me13a028869" x="96.125625" y="257.328583" style="stroke: #000000; stroke-width: 0.8"/>
      </g>
     </g>
     <g id="text_12">
      <!-- $\mathdefault{0.5}$ -->
      <g transform="translate(54.825625 267.111865) scale(0.27 -0.27)">
       <use xlink:href="#LiberationSans-30" transform="translate(0 0.171875)"/>
       <use xlink:href="#LiberationSans-2e" transform="translate(55.615234 0.171875)"/>
       <use xlink:href="#LiberationSans-35" transform="translate(83.398438 0.171875)"/>
      </g>
     </g>
    </g>
    <g id="ytick_6">
     <g id="line2d_27">
      <g>
       <use xlink:href="#me13a028869" x="96.125625" y="173.428167" style="stroke: #000000; stroke-width: 0.8"/>
      </g>
     </g>
     <g id="text_13">
      <!-- $\mathdefault{1.0}$ -->
      <g transform="translate(54.825625 183.211448) scale(0.27 -0.27)">
       <use xlink:href="#LiberationSans-31" transform="translate(0 0.171875)"/>
       <use xlink:href="#LiberationSans-2e" transform="translate(55.615234 0.171875)"/>
       <use xlink:href="#LiberationSans-30" transform="translate(83.398438 0.171875)"/>
      </g>
     </g>
    </g>
    <g id="ytick_7">
     <g id="line2d_28">
      <g>
       <use xlink:href="#me13a028869" x="96.125625" y="89.52775" style="stroke: #000000; stroke-width: 0.8"/>
      </g>
     </g>
     <g id="text_14">
      <!-- $\mathdefault{1.5}$ -->
      <g transform="translate(54.825625 99.311031) scale(0.27 -0.27)">
       <use xlink:href="#LiberationSans-31" transform="translate(0 0.203125)"/>
       <use xlink:href="#LiberationSans-2e" transform="translate(55.615234 0.203125)"/>
       <use xlink:href="#LiberationSans-35" transform="translate(83.398438 0.203125)"/>
      </g>
     </g>
    </g>
    <g id="ytick_8">
     <g id="line2d_29">
      <defs>
       <path id="mefa6e290f5" d="M 0 0 
L 2 0 
" style="stroke: #000000; stroke-width: 0.6"/>
      </defs>
      <g>
       <use xlink:href="#mefa6e290f5" x="96.125625" y="643.2705" style="stroke: #000000; stroke-width: 0.6"/>
      </g>
     </g>
    </g>
    <g id="ytick_9">
     <g id="line2d_30">
      <g>
       <use xlink:href="#mefa6e290f5" x="96.125625" y="626.490417" style="stroke: #000000; stroke-width: 0.6"/>
      </g>
     </g>
    </g>
    <g id="ytick_10">
     <g id="line2d_31">
      <g>
       <use xlink:href="#mefa6e290f5" x="96.125625" y="609.710333" style="stroke: #000000; stroke-width: 0.6"/>
      </g>
     </g>
    </g>
    <g id="ytick_11">
     <g id="line2d_32">
      <g>
       <use xlink:href="#mefa6e290f5" x="96.125625" y="576.150167" style="stroke: #000000; stroke-width: 0.6"/>
      </g>
     </g>
    </g>
    <g id="ytick_12">
     <g id="line2d_33">
      <g>
       <use xlink:href="#mefa6e290f5" x="96.125625" y="559.370083" style="stroke: #000000; stroke-width: 0.6"/>
      </g>
     </g>
    </g>
    <g id="ytick_13">
     <g id="line2d_34">
      <g>
       <use xlink:href="#mefa6e290f5" x="96.125625" y="542.59" style="stroke: #000000; stroke-width: 0.6"/>
      </g>
     </g>
    </g>
    <g id="ytick_14">
     <g id="line2d_35">
      <g>
       <use xlink:href="#mefa6e290f5" x="96.125625" y="525.809917" style="stroke: #000000; stroke-width: 0.6"/>
      </g>
     </g>
    </g>
    <g id="ytick_15">
     <g id="line2d_36">
      <g>
       <use xlink:href="#mefa6e290f5" x="96.125625" y="492.24975" style="stroke: #000000; stroke-width: 0.6"/>
      </g>
     </g>
    </g>
    <g id="ytick_16">
     <g id="line2d_37">
      <g>
       <use xlink:href="#mefa6e290f5" x="96.125625" y="475.469667" style="stroke: #000000; stroke-width: 0.6"/>
      </g>
     </g>
    </g>
    <g id="ytick_17">
     <g id="line2d_38">
      <g>
       <use xlink:href="#mefa6e290f5" x="96.125625" y="458.689583" style="stroke: #000000; stroke-width: 0.6"/>
      </g>
     </g>
    </g>
    <g id="ytick_18">
     <g id="line2d_39">
      <g>
       <use xlink:href="#mefa6e290f5" x="96.125625" y="441.9095" style="stroke: #000000; stroke-width: 0.6"/>
      </g>
     </g>
    </g>
    <g id="ytick_19">
     <g id="line2d_40">
      <g>
       <use xlink:href="#mefa6e290f5" x="96.125625" y="408.349333" style="stroke: #000000; stroke-width: 0.6"/>
      </g>
     </g>
    </g>
    <g id="ytick_20">
     <g id="line2d_41">
      <g>
       <use xlink:href="#mefa6e290f5" x="96.125625" y="391.56925" style="stroke: #000000; stroke-width: 0.6"/>
      </g>
     </g>
    </g>
    <g id="ytick_21">
     <g id="line2d_42">
      <g>
       <use xlink:href="#mefa6e290f5" x="96.125625" y="374.789167" style="stroke: #000000; stroke-width: 0.6"/>
      </g>
     </g>
    </g>
    <g id="ytick_22">
     <g id="line2d_43">
      <g>
       <use xlink:href="#mefa6e290f5" x="96.125625" y="358.009083" style="stroke: #000000; stroke-width: 0.6"/>
      </g>
     </g>
    </g>
    <g id="ytick_23">
     <g id="line2d_44">
      <g>
       <use xlink:href="#mefa6e290f5" x="96.125625" y="324.448917" style="stroke: #000000; stroke-width: 0.6"/>
      </g>
     </g>
    </g>
    <g id="ytick_24">
     <g id="line2d_45">
      <g>
       <use xlink:href="#mefa6e290f5" x="96.125625" y="307.668833" style="stroke: #000000; stroke-width: 0.6"/>
      </g>
     </g>
    </g>
    <g id="ytick_25">
     <g id="line2d_46">
      <g>
       <use xlink:href="#mefa6e290f5" x="96.125625" y="290.88875" style="stroke: #000000; stroke-width: 0.6"/>
      </g>
     </g>
    </g>
    <g id="ytick_26">
     <g id="line2d_47">
      <g>
       <use xlink:href="#mefa6e290f5" x="96.125625" y="274.108667" style="stroke: #000000; stroke-width: 0.6"/>
      </g>
     </g>
    </g>
    <g id="ytick_27">
     <g id="line2d_48">
      <g>
       <use xlink:href="#mefa6e290f5" x="96.125625" y="240.5485" style="stroke: #000000; stroke-width: 0.6"/>
      </g>
     </g>
    </g>
    <g id="ytick_28">
     <g id="line2d_49">
      <g>
       <use xlink:href="#mefa6e290f5" x="96.125625" y="223.768417" style="stroke: #000000; stroke-width: 0.6"/>
      </g>
     </g>
    </g>
    <g id="ytick_29">
     <g id="line2d_50">
      <g>
       <use xlink:href="#mefa6e290f5" x="96.125625" y="206.988333" style="stroke: #000000; stroke-width: 0.6"/>
      </g>
     </g>
    </g>
    <g id="ytick_30">
     <g id="line2d_51">
      <g>
       <use xlink:href="#mefa6e290f5" x="96.125625" y="190.20825" style="stroke: #000000; stroke-width: 0.6"/>
      </g>
     </g>
    </g>
    <g id="ytick_31">
     <g id="line2d_52">
      <g>
       <use xlink:href="#mefa6e290f5" x="96.125625" y="156.648083" style="stroke: #000000; stroke-width: 0.6"/>
      </g>
     </g>
    </g>
    <g id="ytick_32">
     <g id="line2d_53">
      <g>
       <use xlink:href="#mefa6e290f5" x="96.125625" y="139.868" style="stroke: #000000; stroke-width: 0.6"/>
      </g>
     </g>
    </g>
    <g id="ytick_33">
     <g id="line2d_54">
      <g>
       <use xlink:href="#mefa6e290f5" x="96.125625" y="123.087917" style="stroke: #000000; stroke-width: 0.6"/>
      </g>
     </g>
    </g>
    <g id="ytick_34">
     <g id="line2d_55">
      <g>
       <use xlink:href="#mefa6e290f5" x="96.125625" y="106.307833" style="stroke: #000000; stroke-width: 0.6"/>
      </g>
     </g>
    </g>
    <g id="ytick_35">
     <g id="line2d_56">
      <g>
       <use xlink:href="#mefa6e290f5" x="96.125625" y="72.747667" style="stroke: #000000; stroke-width: 0.6"/>
      </g>
     </g>
    </g>
    <g id="ytick_36">
     <g id="line2d_57">
      <g>
       <use xlink:href="#mefa6e290f5" x="96.125625" y="55.967583" style="stroke: #000000; stroke-width: 0.6"/>
      </g>
     </g>
    </g>
    <g id="ytick_37">
     <g id="line2d_58">
      <g>
       <use xlink:href="#mefa6e290f5" x="96.125625" y="39.1875" style="stroke: #000000; stroke-width: 0.6"/>
      </g>
     </g>
    </g>
    <g id="text_15">
     <!-- Heat Flux $\mathrm{W} / \mathrm{m}^2$ -->
     <g transform="translate(28.940625 445.779) rotate(-90) scale(0.3 -0.3)">
      <defs>
       <path id="LiberationSans-48" d="M 3503 0 
L 3503 2041 
L 1122 2041 
L 1122 0 
L 525 0 
L 525 4403 
L 1122 4403 
L 1122 2541 
L 3503 2541 
L 3503 4403 
L 4100 4403 
L 4100 0 
L 3503 0 
z
" transform="scale(0.015625)"/>
       <path id="LiberationSans-61" d="M 1294 -63 
Q 784 -63 528 206 
Q 272 475 272 944 
Q 272 1469 617 1750 
Q 963 2031 1731 2050 
L 2491 2063 
L 2491 2247 
Q 2491 2659 2316 2837 
Q 2141 3016 1766 3016 
Q 1388 3016 1216 2887 
Q 1044 2759 1009 2478 
L 422 2531 
Q 566 3444 1778 3444 
Q 2416 3444 2737 3151 
Q 3059 2859 3059 2306 
L 3059 850 
Q 3059 600 3125 473 
Q 3191 347 3375 347 
Q 3456 347 3559 369 
L 3559 19 
Q 3347 -31 3125 -31 
Q 2813 -31 2670 133 
Q 2528 297 2509 647 
L 2491 647 
Q 2275 259 1989 98 
Q 1703 -63 1294 -63 
z
M 1422 359 
Q 1731 359 1972 500 
Q 2213 641 2352 886 
Q 2491 1131 2491 1391 
L 2491 1669 
L 1875 1656 
Q 1478 1650 1273 1575 
Q 1069 1500 959 1344 
Q 850 1188 850 934 
Q 850 659 998 509 
Q 1147 359 1422 359 
z
" transform="scale(0.015625)"/>
       <path id="LiberationSans-74" d="M 1731 25 
Q 1453 -50 1163 -50 
Q 488 -50 488 716 
L 488 2972 
L 97 2972 
L 97 3381 
L 509 3381 
L 675 4138 
L 1050 4138 
L 1050 3381 
L 1675 3381 
L 1675 2972 
L 1050 2972 
L 1050 838 
Q 1050 594 1129 495 
Q 1209 397 1406 397 
Q 1519 397 1731 441 
L 1731 25 
z
" transform="scale(0.015625)"/>
       <path id="LiberationSans-46" d="M 1122 3916 
L 1122 2278 
L 3578 2278 
L 3578 1784 
L 1122 1784 
L 1122 0 
L 525 0 
L 525 4403 
L 3653 4403 
L 3653 3916 
L 1122 3916 
z
" transform="scale(0.015625)"/>
       <path id="LiberationSans-6c" d="M 431 0 
L 431 4638 
L 994 4638 
L 994 0 
L 431 0 
z
" transform="scale(0.015625)"/>
       <path id="LiberationSans-75" d="M 981 3381 
L 981 1238 
Q 981 903 1047 718 
Q 1113 534 1256 453 
Q 1400 372 1678 372 
Q 2084 372 2318 650 
Q 2553 928 2553 1422 
L 2553 3381 
L 3116 3381 
L 3116 722 
Q 3116 131 3134 0 
L 2603 0 
Q 2600 16 2597 84 
Q 2594 153 2589 242 
Q 2584 331 2578 578 
L 2569 578 
Q 2375 228 2120 82 
Q 1866 -63 1488 -63 
Q 931 -63 673 214 
Q 416 491 416 1128 
L 416 3381 
L 981 3381 
z
" transform="scale(0.015625)"/>
       <path id="LiberationSans-78" d="M 2503 0 
L 1594 1388 
L 678 0 
L 72 0 
L 1275 1738 
L 128 3381 
L 750 3381 
L 1594 2066 
L 2431 3381 
L 3059 3381 
L 1913 1744 
L 3131 0 
L 2503 0 
z
" transform="scale(0.015625)"/>
       <path id="STIXGeneral-Regular-57" d="M 5965 4237 
L 5965 4115 
Q 5709 4064 5616 3990 
Q 5523 3917 5434 3667 
Q 4704 1709 4128 -70 
L 4032 -70 
Q 3642 1011 3008 2637 
L 2022 -70 
L 1926 -70 
Q 1709 576 1277 1753 
Q 845 2931 698 3347 
Q 538 3808 406 3958 
Q 275 4109 32 4115 
L 32 4237 
L 1594 4237 
L 1594 4115 
Q 1357 4109 1270 4064 
Q 1184 4019 1184 3917 
Q 1184 3808 1254 3616 
L 2176 1210 
L 2842 3021 
L 2662 3501 
Q 2509 3917 2400 4013 
Q 2291 4109 2010 4115 
L 2010 4237 
L 3706 4237 
L 3706 4115 
Q 3213 4102 3213 3891 
Q 3213 3808 3322 3520 
L 4237 1190 
L 5043 3360 
Q 5152 3667 5152 3853 
Q 5152 4109 4704 4115 
L 4704 4237 
L 5965 4237 
z
" transform="scale(0.015625)"/>
       <path id="STIXGeneral-Regular-2f" d="M 1837 4326 
L 378 -90 
L -58 -90 
L 1408 4326 
L 1837 4326 
z
" transform="scale(0.015625)"/>
       <path id="STIXGeneral-Regular-6d" d="M 4960 0 
L 3565 0 
L 3565 96 
Q 3834 122 3907 208 
Q 3981 294 3981 576 
L 3981 1894 
Q 3981 2278 3869 2444 
Q 3757 2611 3488 2611 
Q 3264 2611 3107 2521 
Q 2950 2432 2803 2221 
L 2803 608 
Q 2803 301 2896 201 
Q 2989 102 3264 96 
L 3264 0 
L 1830 0 
L 1830 96 
Q 2112 115 2189 188 
Q 2266 262 2266 550 
L 2266 1901 
Q 2266 2611 1850 2611 
Q 1670 2611 1468 2531 
Q 1267 2451 1171 2336 
Q 1088 2240 1088 2227 
L 1088 448 
Q 1088 243 1177 176 
Q 1267 109 1523 96 
L 1523 0 
L 102 0 
L 102 96 
Q 371 102 460 195 
Q 550 288 550 563 
L 550 2150 
Q 550 2387 499 2480 
Q 448 2573 326 2573 
Q 230 2573 122 2547 
L 122 2656 
Q 557 2778 1011 2944 
L 1062 2925 
L 1062 2451 
L 1075 2451 
Q 1363 2752 1584 2848 
Q 1805 2944 2054 2944 
Q 2560 2944 2733 2406 
Q 3232 2944 3776 2944 
Q 4518 2944 4518 1792 
L 4518 493 
Q 4518 282 4582 202 
Q 4646 122 4794 109 
L 4960 96 
L 4960 0 
z
" transform="scale(0.015625)"/>
       <path id="STIXGeneral-Regular-32" d="M 3034 877 
L 2688 0 
L 186 0 
L 186 77 
L 1325 1286 
Q 1773 1754 1965 2144 
Q 2157 2534 2157 2950 
Q 2157 3379 1920 3616 
Q 1683 3853 1267 3853 
Q 922 3853 720 3673 
Q 518 3494 326 3021 
L 192 3053 
Q 301 3648 630 3987 
Q 960 4326 1523 4326 
Q 2054 4326 2380 4006 
Q 2707 3686 2707 3200 
Q 2707 2477 1888 1613 
L 832 486 
L 2330 486 
Q 2541 486 2665 569 
Q 2790 653 2944 915 
L 3034 877 
z
" transform="scale(0.015625)"/>
      </defs>
      <use xlink:href="#LiberationSans-48" transform="translate(0 0.409375)"/>
      <use xlink:href="#LiberationSans-65" transform="translate(72.216797 0.409375)"/>
      <use xlink:href="#LiberationSans-61" transform="translate(127.832031 0.409375)"/>
      <use xlink:href="#LiberationSans-74" transform="translate(183.447266 0.409375)"/>
      <use xlink:href="#LiberationSans-20" transform="translate(211.230469 0.409375)"/>
      <use xlink:href="#LiberationSans-46" transform="translate(239.013672 0.409375)"/>
      <use xlink:href="#LiberationSans-6c" transform="translate(300.097656 0.409375)"/>
      <use xlink:href="#LiberationSans-75" transform="translate(322.314453 0.409375)"/>
      <use xlink:href="#LiberationSans-78" transform="translate(377.929688 0.409375)"/>
      <use xlink:href="#LiberationSans-20" transform="translate(427.929688 0.409375)"/>
      <use xlink:href="#STIXGeneral-Regular-57" transform="translate(455.712891 0.409375)"/>
      <use xlink:href="#STIXGeneral-Regular-2f" transform="translate(550.112885 0.409375)"/>
      <use xlink:href="#STIXGeneral-Regular-6d" transform="translate(577.912872 0.409375)"/>
      <use xlink:href="#STIXGeneral-Regular-32" transform="translate(657.256141 35.684375) scale(0.7)"/>
     </g>
    </g>
    <g id="text_16">
     <!-- $\times\mathdefault{10^{10}}\mathdefault{}$ -->
     <g transform="translate(96.125625 36.1875) scale(0.4 -0.4)">
      <defs>
       <path id="STIXGeneral-Regular-d7" d="M 3821 141 
L 3526 -160 
L 2048 1312 
L 570 -160 
L 275 134 
L 1747 1613 
L 275 3091 
L 576 3386 
L 2048 1914 
L 3526 3386 
L 3821 3098 
L 2349 1613 
L 3821 141 
z
" transform="scale(0.015625)"/>
      </defs>
      <use xlink:href="#STIXGeneral-Regular-d7" transform="translate(0 0.140625)"/>
      <use xlink:href="#LiberationSans-31" transform="translate(63.999985 0.140625)"/>
      <use xlink:href="#LiberationSans-30" transform="translate(119.615219 0.140625)"/>
      <use xlink:href="#LiberationSans-31" transform="translate(176.154946 37.120312) scale(0.7)"/>
      <use xlink:href="#LiberationSans-30" transform="translate(215.08561 37.120312) scale(0.7)"/>
     </g>
    </g>
   </g>
   <g id="line2d_59">
    <path d="M 96.125625 344.512126 
L 96.71904 338.969317 
L 97.13443 336.811955 
L 97.490479 335.990099 
L 97.727844 335.910638 
L 97.905869 336.069354 
L 98.202576 336.725127 
L 98.617966 338.375517 
L 99.092698 341.283515 
L 99.626771 345.980136 
L 100.279527 353.921223 
L 101.466357 372.22955 
L 102.119113 380.272495 
L 102.475161 382.527403 
L 102.712527 382.912422 
L 102.83121 382.731214 
L 103.009235 381.97861 
L 103.305942 379.439045 
L 103.721332 373.421825 
L 104.374088 359.961547 
L 105.382893 339.300725 
L 105.857625 333.455262 
L 106.213674 331.39912 
L 106.391698 331.111511 
L 106.510381 331.178297 
L 106.688405 331.628631 
L 106.985113 333.173276 
L 107.519186 337.572417 
L 108.409308 344.849998 
L 108.824698 346.533191 
L 109.062064 346.76432 
L 109.240088 346.587171 
L 109.477454 345.891603 
L 109.833503 344.013396 
L 110.367576 339.736264 
L 111.317039 329.896989 
L 113.275308 309.244668 
L 113.750039 306.165908 
L 114.046747 305.272923 
L 114.224771 305.22218 
L 114.402795 305.571155 
L 114.640161 306.709231 
L 114.936869 309.302979 
L 115.352259 315.11711 
L 115.886332 325.984662 
L 116.776454 349.506785 
L 117.903942 378.21821 
L 118.497356 388.34833 
L 118.912747 392.420118 
L 119.209454 393.635331 
L 119.328137 393.714265 
L 119.44682 393.553243 
L 119.624844 392.869186 
L 119.921551 390.540027 
L 120.336942 384.834832 
L 120.871015 373.884468 
L 122.651259 333.824922 
L 122.947966 331.629732 
L 123.12599 331.409084 
L 123.244673 331.731323 
L 123.482039 333.48673 
L 123.778746 337.648622 
L 124.253478 347.970439 
L 126.093064 392.25913 
L 126.508454 396.398592 
L 126.805161 397.460167 
L 126.923844 397.451408 
L 127.101868 396.991986 
L 127.339234 395.549301 
L 127.695283 391.694799 
L 128.170015 383.681101 
L 128.882112 367.181614 
L 130.246966 334.890976 
L 130.721698 328.728583 
L 131.018405 327.053723 
L 131.196429 326.876704 
L 131.315112 327.099957 
L 131.552478 328.350964 
L 131.908527 331.990631 
L 132.4426 340.355154 
L 133.688771 360.731602 
L 134.104161 364.144905 
L 134.400868 365.014667 
L 134.519551 365.012184 
L 134.697576 364.65351 
L 134.934941 363.595039 
L 135.350332 360.462583 
L 137.011893 346.313552 
L 137.427283 344.835728 
L 137.72399 344.463168 
L 137.902015 344.508224 
L 138.13938 344.865719 
L 138.436088 345.767964 
L 138.851478 347.789101 
L 139.563575 352.670797 
L 140.394356 358.04021 
L 140.750405 359.114119 
L 140.928429 359.208641 
L 141.106454 358.96971 
L 141.343819 358.090484 
L 141.640527 356.073997 
L 142.055917 351.592128 
L 142.649332 342.428607 
L 144.310892 314.657604 
L 144.6076 312.653894 
L 144.785624 312.36036 
L 144.904307 312.593284 
L 145.082331 313.642275 
L 145.379039 317.382572 
L 145.735088 325.150636 
L 146.269161 342.566834 
L 147.693356 392.199258 
L 148.049405 397.610818 
L 148.28677 398.805409 
L 148.346112 398.797153 
L 148.464795 398.430576 
L 148.642819 397.024103 
L 148.939527 392.568621 
L 149.414258 380.954169 
L 150.185697 355.196322 
L 151.491209 311.780273 
L 152.143966 296.962805 
L 152.618697 290.34083 
L 152.974746 287.72896 
L 153.212112 287.065643 
L 153.330795 287.04398 
L 153.508819 287.372802 
L 153.746185 288.461763 
L 154.102234 291.345454 
L 154.636307 297.9485 
L 155.407746 310.668357 
L 156.653917 335.385064 
L 158.315478 368.501921 
L 158.908892 375.824112 
L 159.324282 378.736816 
L 159.680331 379.953707 
L 159.977039 380.312381 
L 160.273746 380.301995 
L 161.163868 380.016481 
L 161.994648 380.194149 
L 162.232014 379.898048 
L 162.46938 379.227381 
L 162.766087 377.651329 
L 163.122136 374.44004 
L 163.596868 367.736414 
L 164.308965 353.714973 
L 165.377112 333.138946 
L 165.851843 327.630113 
L 166.267234 325.134527 
L 166.563941 324.485913 
L 166.741965 324.454533 
L 166.979331 324.709981 
L 167.394721 325.62384 
L 168.16616 327.253251 
L 168.640892 327.68687 
L 169.412331 328.255437 
L 169.709038 328.898931 
L 170.065087 330.330769 
L 170.480477 333.136206 
L 171.014551 338.531946 
L 172.023355 351.889566 
L 172.913477 362.389474 
L 173.506892 366.982854 
L 173.922282 368.816212 
L 174.21899 369.337401 
L 174.397014 369.298354 
L 174.575038 368.948221 
L 174.812404 367.955696 
L 175.168453 365.201614 
L 175.583843 359.765488 
L 176.117916 349.134725 
L 176.948697 326.851345 
L 177.779477 306.669026 
L 178.194868 301.370077 
L 178.432233 300.433748 
L 178.550916 300.588225 
L 178.728941 301.634128 
L 178.966307 304.499092 
L 179.322355 311.845799 
L 179.856428 328.756564 
L 180.865233 370.583256 
L 181.696014 400.709093 
L 182.170746 411.259604 
L 182.526794 414.962448 
L 182.704819 415.391867 
L 182.823502 415.141374 
L 183.001526 413.992979 
L 183.298233 410.087515 
L 183.713624 400.926546 
L 184.36638 380.283251 
L 186.205965 318.029645 
L 186.79938 306.155941 
L 187.21477 301.542626 
L 187.511477 300.167733 
L 187.689502 300.083581 
L 187.867526 300.530838 
L 188.104892 301.895813 
L 188.460941 305.384628 
L 189.054355 313.927217 
L 190.715916 339.226589 
L 191.309331 344.499205 
L 191.724721 346.425119 
L 191.962087 346.776239 
L 192.08077 346.732921 
L 192.258794 346.37255 
L 192.49616 345.324095 
L 192.852209 342.525101 
L 193.32694 336.628957 
L 194.039038 324.324929 
L 195.225867 303.547846 
L 195.700599 298.566997 
L 195.997306 297.031083 
L 196.175331 296.756242 
L 196.294014 296.844471 
L 196.472038 297.374605 
L 196.768745 299.259411 
L 197.184136 303.774797 
L 197.836892 313.909984 
L 199.201745 335.838244 
L 199.735818 341.186333 
L 200.151209 343.479087 
L 200.447916 344.125251 
L 200.62594 344.143677 
L 200.803965 343.898676 
L 201.100672 342.993547 
L 201.516062 340.844314 
L 202.168818 336.113818 
L 203.533672 324.092357 
L 204.423794 317.14515 
L 204.839184 315.193912 
L 205.135891 314.660624 
L 205.313916 314.772917 
L 205.49194 315.251904 
L 205.729306 316.50994 
L 206.085355 319.810835 
L 206.500745 325.9561 
L 207.034818 337.502466 
L 207.746916 358.532723 
L 209.408477 410.370629 
L 209.823867 416.288763 
L 210.061233 417.312331 
L 210.179916 417.121894 
L 210.35794 415.934048 
L 210.654647 411.587017 
L 211.070038 400.856187 
L 211.663452 378.093283 
L 213.325013 309.591529 
L 213.740404 301.481446 
L 214.037111 299.367088 
L 214.155794 299.39491 
L 214.333818 300.330936 
L 214.571184 303.147306 
L 214.986574 311.511993 
L 216.410769 344.405678 
L 216.707477 346.814538 
L 216.885501 347.160625 
L 217.004184 346.949007 
L 217.182208 346.01573 
L 217.478916 343.054403 
L 218.012989 334.928794 
L 218.903111 321.494129 
L 219.318501 317.913896 
L 219.615208 316.750634 
L 219.793233 316.581273 
L 219.971257 316.776173 
L 220.208623 317.547973 
L 220.564672 319.573514 
L 221.217428 324.868499 
L 222.285574 333.394599 
L 222.878989 336.459132 
L 223.35372 337.864211 
L 223.769111 338.417807 
L 224.065818 338.491823 
L 224.421867 338.324129 
L 225.252647 337.861907 
L 225.490013 338.037118 
L 225.727379 338.508145 
L 226.024086 339.701593 
L 226.380135 342.268857 
L 226.795525 347.195237 
L 227.329598 356.80348 
L 228.101037 375.79718 
L 229.287867 404.572019 
L 229.82194 412.61827 
L 230.23733 415.999088 
L 230.534037 416.896386 
L 230.65272 416.919476 
L 230.830745 416.60062 
L 231.068111 415.545388 
L 231.424159 412.648206 
L 231.898891 406.53153 
L 232.492306 395.702487 
L 234.806623 349.180868 
L 235.281354 345.041807 
L 235.696745 343.053757 
L 236.171476 341.858164 
L 236.764891 340.458952 
L 237.180281 338.754854 
L 237.655013 335.6116 
L 238.189086 330.40022 
L 238.901184 321.043365 
L 240.503403 299.073924 
L 240.918793 296.105611 
L 241.215501 295.183898 
L 241.393525 295.129245 
L 241.571549 295.435934 
L 241.868257 296.685564 
L 242.283647 299.668492 
L 244.123232 314.624295 
L 244.597964 316.327323 
L 245.25072 317.70428 
L 245.725452 318.87761 
L 246.140842 320.545148 
L 246.556232 323.167254 
L 247.090305 328.22384 
L 247.743061 337.007866 
L 249.582647 363.934181 
L 249.938696 365.746833 
L 250.11672 365.881308 
L 250.294744 365.466673 
L 250.53211 364.057884 
L 250.888159 360.213382 
L 251.422232 351.214187 
L 252.905769 323.97498 
L 253.202476 321.842802 
L 253.3805 321.483691 
L 253.499183 321.647868 
L 253.677208 322.473431 
L 253.973915 325.356035 
L 254.389305 331.975449 
L 255.8135 357.223611 
L 256.110208 359.243997 
L 256.288232 359.634671 
L 256.406915 359.559983 
L 256.584939 358.965867 
L 256.881647 356.813398 
L 257.356378 351.158359 
L 258.721232 333.64872 
L 259.195964 330.621826 
L 259.670695 329.035395 
L 260.204769 327.436213 
L 260.560817 325.536076 
L 260.976208 321.831576 
L 261.510281 314.60775 
L 263.1125 290.741941 
L 263.468549 288.505877 
L 263.705915 288.014959 
L 263.824598 288.079009 
L 264.002622 288.54672 
L 264.29933 290.3315 
L 264.655378 294.096901 
L 265.13011 301.788757 
L 265.723525 315.556446 
L 266.494964 339.646772 
L 268.453232 405.165027 
L 268.927964 413.682463 
L 269.284012 417.000507 
L 269.521378 417.749872 
L 269.640061 417.703357 
L 269.818086 417.129529 
L 270.114793 414.937614 
L 270.530183 409.641668 
L 271.123598 398.722834 
L 273.615939 348.510323 
L 274.328037 339.731886 
L 274.980793 334.269556 
L 275.514866 331.495899 
L 275.989598 330.138972 
L 276.345646 329.680129 
L 276.642354 329.577607 
L 276.998402 329.684189 
L 277.651159 330.256363 
L 278.363256 330.808454 
L 278.778646 330.906267 
L 279.134695 330.795015 
L 279.490744 330.477793 
L 279.906134 329.824608 
L 280.380866 328.676174 
L 280.914939 326.780341 
L 281.508354 323.766437 
L 282.279793 318.49296 
L 283.40728 310.879232 
L 283.822671 309.437202 
L 284.060036 309.196811 
L 284.238061 309.338871 
L 284.475427 309.99858 
L 284.772134 311.610911 
L 285.187524 315.364968 
L 285.721597 322.649387 
L 286.493036 336.949981 
L 287.798549 361.730688 
L 288.27328 366.941088 
L 288.569988 368.316954 
L 288.688671 368.40906 
L 288.807353 368.227617 
L 288.985378 367.436403 
L 289.282085 364.730362 
L 289.638134 359.23017 
L 290.172207 346.887897 
L 291.002988 321.089108 
L 292.130475 286.65532 
L 292.605207 277.552309 
L 292.961256 274.228728 
L 293.13928 273.830486 
L 293.257963 274.059602 
L 293.435988 275.145575 
L 293.732695 278.913543 
L 294.148085 288.085218 
L 294.7415 307.59928 
L 296.937134 387.172197 
L 297.411866 395.245699 
L 297.767914 398.251599 
L 298.00528 398.911359 
L 298.123963 398.881473 
L 298.301987 398.425307 
L 298.598695 396.777452 
L 299.073426 392.545381 
L 300.200914 382.035461 
L 300.675646 379.707745 
L 301.031695 378.935995 
L 301.328402 378.777474 
L 301.684451 378.922202 
L 302.337207 379.253961 
L 302.574573 379.138296 
L 302.811939 378.758831 
L 303.108646 377.752127 
L 303.464695 375.514536 
L 303.880085 371.110905 
L 304.354817 363.323806 
L 304.948231 349.593887 
L 306.965841 298.892229 
L 307.32189 295.76662 
L 307.499914 295.368411 
L 307.618597 295.550593 
L 307.796621 296.496402 
L 308.093329 299.83193 
L 308.508719 307.834637 
L 309.161475 325.925883 
L 310.407646 361.167145 
L 310.941719 370.50991 
L 311.357109 374.689191 
L 311.713158 376.429856 
L 311.950524 376.865618 
L 312.128548 376.902937 
L 312.365914 376.653082 
L 312.721963 375.825135 
L 313.374719 373.565949 
L 314.383524 369.088989 
L 315.511012 364.181637 
L 316.045085 362.826326 
L 316.460475 362.323209 
L 317.350597 361.571394 
L 317.647304 360.810032 
L 317.944012 359.416194 
L 318.30006 356.609134 
L 318.715451 351.414063 
L 319.190182 342.560799 
L 319.783597 327.050048 
L 320.673719 296.927147 
L 321.801207 259.654336 
L 322.275938 249.997164 
L 322.572646 247.266473 
L 322.691329 247.029304 
L 322.810011 247.323895 
L 322.988036 248.788712 
L 323.225402 252.75096 
L 323.58145 263.073698 
L 324.056182 284.30886 
L 324.886963 334.105012 
L 325.717743 379.449919 
L 326.192475 394.973107 
L 326.548524 400.307294 
L 326.726548 401.033989 
L 326.785889 401.0085 
L 326.904572 400.587991 
L 327.141938 398.410171 
L 327.497987 392.561859 
L 329.456255 355.359787 
L 329.990328 351.025535 
L 330.702426 347.40427 
L 331.533206 343.137523 
L 334.50028 324.930094 
L 335.034353 319.430531 
L 335.687109 309.751611 
L 336.93328 290.585299 
L 337.289328 288.024256 
L 337.526694 287.486068 
L 337.645377 287.578711 
L 337.823401 288.153563 
L 338.120109 290.21461 
L 338.535499 295.037693 
L 339.247597 306.626941 
L 340.849816 337.502813 
L 342.63006 371.537858 
L 343.223475 378.711444 
L 343.638865 381.465005 
L 343.876231 382.094896 
L 344.054255 382.101591 
L 344.232279 381.711773 
L 344.469645 380.590176 
L 344.825694 377.680979 
L 345.359767 371.0312 
L 347.021328 348.108306 
L 347.377377 346.113944 
L 347.614743 345.767773 
L 347.733426 345.894372 
L 347.970792 346.725842 
L 348.32684 349.270833 
L 348.860913 355.125297 
L 349.92906 367.076587 
L 350.34445 369.49797 
L 350.641157 370.092052 
L 350.819182 370.014444 
L 351.056548 369.431504 
L 351.412596 367.746784 
L 352.896133 359.512579 
L 353.133499 359.323031 
L 353.311523 359.504508 
L 353.548889 360.161062 
L 353.904938 361.908187 
L 354.676377 367.315099 
L 355.269791 370.764229 
L 355.62584 371.72358 
L 355.803865 371.827146 
L 355.981889 371.691983 
L 356.219255 371.180761 
L 356.693987 369.371146 
L 357.346743 366.910498 
L 357.64345 366.434078 
L 357.821474 366.4078 
L 357.999499 366.579494 
L 358.296206 367.243499 
L 359.364352 370.140698 
L 359.542377 370.158216 
L 359.720401 369.941266 
L 359.957767 369.28045 
L 360.313816 367.558327 
L 360.847889 363.684376 
L 361.916035 353.838796 
L 363.221547 340.030156 
L 365.417181 315.733006 
L 365.832572 313.476252 
L 366.129279 312.824027 
L 366.307303 312.852537 
L 366.485328 313.193323 
L 366.782035 314.439949 
L 367.197425 317.419438 
L 368.680962 329.547042 
L 368.918328 330.090028 
L 369.096352 330.070696 
L 369.274377 329.673587 
L 369.571084 328.223838 
L 369.986474 324.771453 
L 371.529352 310.325876 
L 371.826059 309.618679 
L 371.944742 309.639956 
L 372.122767 309.980441 
L 372.360133 311.007264 
L 372.716181 313.652326 
L 373.250255 319.51376 
L 375.979962 352.668518 
L 376.692059 357.605106 
L 377.641523 362.47319 
L 378.412962 366.807519 
L 379.125059 372.361508 
L 380.549254 384.11052 
L 380.845962 385.105159 
L 381.023986 385.214767 
L 381.20201 384.904906 
L 381.439376 383.778777 
L 381.736084 381.129974 
L 382.151474 374.930858 
L 382.685547 362.74501 
L 383.397645 340.419607 
L 384.762498 296.088948 
L 385.177888 289.120062 
L 385.415254 287.738071 
L 385.474596 287.721056 
L 385.593279 288.093708 
L 385.771303 289.683722 
L 386.06801 295.040965 
L 386.483401 307.613509 
L 387.314181 342.21137 
L 387.966937 365.111455 
L 388.322986 371.838171 
L 388.560352 373.476729 
L 388.619693 373.523378 
L 388.738376 373.192357 
L 388.916401 371.675085 
L 389.213108 366.684638 
L 389.68784 353.800909 
L 391.112035 311.129138 
L 391.527425 305.35632 
L 391.764791 304.113906 
L 391.883474 304.052876 
L 392.002157 304.345907 
L 392.239522 305.960117 
L 392.595571 310.606724 
L 393.129644 321.315219 
L 395.443961 372.501739 
L 395.978035 378.43615 
L 396.334083 380.43048 
L 396.571449 380.841659 
L 396.690132 380.780848 
L 396.868157 380.377522 
L 397.164864 378.919282 
L 397.639596 374.985124 
L 398.529718 364.958001 
L 399.894571 349.953136 
L 400.725352 343.029191 
L 401.437449 338.845211 
L 402.208888 335.616458 
L 402.802303 333.911123 
L 403.158352 333.380682 
L 403.395717 333.349341 
L 403.573742 333.553268 
L 403.811108 334.159517 
L 404.167156 335.854037 
L 404.641888 339.538845 
L 405.353986 347.29837 
L 406.540815 360.225883 
L 407.074888 363.670465 
L 407.430937 364.744626 
L 407.668303 364.880007 
L 407.846327 364.687892 
L 408.083693 364.053806 
L 408.499083 362.080771 
L 409.863937 354.536898 
L 410.160644 354.024985 
L 410.39801 353.984781 
L 411.169449 354.279997 
L 411.347473 353.919067 
L 411.584839 352.895893 
L 411.881547 350.553365 
L 412.296937 345.122828 
L 412.890351 333.755555 
L 414.077181 310.559991 
L 414.492571 306.16913 
L 414.789278 304.749334 
L 414.967303 304.585057 
L 415.085986 304.748478 
L 415.323351 305.691284 
L 415.6794 308.467985 
L 416.213473 314.768906 
L 417.637668 332.437193 
L 418.1124 335.448706 
L 418.409107 336.302534 
L 418.646473 336.43716 
L 418.824498 336.256868 
L 419.121205 335.507158 
L 419.655278 333.223435 
L 420.664083 328.809834 
L 421.138815 327.698652 
L 421.494863 327.344298 
L 421.791571 327.338982 
L 422.088278 327.557071 
L 422.444327 328.069376 
L 422.859717 329.031328 
L 423.275107 330.490415 
L 423.749839 333.019047 
L 424.283912 337.203671 
L 424.99601 344.920008 
L 426.538888 362.468541 
L 427.013619 365.405962 
L 427.310327 366.246829 
L 427.488351 366.346922 
L 427.666376 366.140611 
L 427.903741 365.366747 
L 428.25979 363.139627 
L 428.734522 358.35081 
L 429.446619 348.356884 
L 430.455424 334.393011 
L 430.870815 331.148482 
L 431.10818 330.374009 
L 431.226863 330.307421 
L 431.345546 330.453369 
L 431.582912 331.395621 
L 431.879619 333.720191 
L 432.354351 339.650564 
L 434.312619 367.70381 
L 434.609327 369.15715 
L 434.787351 369.417963 
L 434.906034 369.323038 
L 435.084058 368.771275 
L 435.380766 366.712241 
L 435.736814 362.42597 
L 436.270888 352.873395 
L 438.347839 311.577871 
L 438.703888 308.950211 
L 438.941253 308.297868 
L 439.059936 308.31287 
L 439.237961 308.747658 
L 439.475327 310.087364 
L 439.831375 313.654037 
L 440.306107 320.981128 
L 441.077546 337.123377 
L 442.145692 358.677333 
L 442.679766 365.472831 
L 443.154497 368.867693 
L 443.569887 370.263427 
L 443.925936 370.739612 
L 444.341327 370.882159 
L 444.697375 370.796262 
L 445.053424 370.471467 
L 445.409473 369.792964 
L 445.765522 368.555953 
L 446.180912 366.16563 
L 446.714985 361.564749 
L 447.545765 351.914787 
L 448.791936 337.646091 
L 450.453497 320.456834 
L 451.343619 306.873088 
L 452.115058 296.013102 
L 452.530448 292.820675 
L 452.767814 292.321501 
L 452.886497 292.500578 
L 453.064521 293.346948 
L 453.301887 295.585546 
L 453.657936 301.437163 
L 454.132668 313.616567 
L 454.844765 338.79401 
L 456.090936 383.561945 
L 456.625009 395.523577 
L 457.040399 400.502731 
L 457.337107 401.853042 
L 457.45579 401.935885 
L 457.574473 401.781928 
L 457.811838 400.857379 
L 458.167887 398.275779 
L 459.058009 389.244806 
L 459.710765 383.897966 
L 460.126156 381.994501 
L 460.422863 381.414195 
L 460.660229 381.370399 
L 460.897595 381.633662 
L 461.431668 382.822061 
L 461.847058 383.583122 
L 462.084424 383.648698 
L 462.262448 383.415052 
L 462.499814 382.647162 
L 462.796521 380.803417 
L 463.15257 377.128025 
L 463.627302 369.598533 
L 464.220716 356.240458 
L 465.110838 330.43964 
L 466.535033 289.357635 
L 467.069107 280.008091 
L 467.365814 277.548097 
L 467.543838 277.184523 
L 467.662521 277.438741 
L 467.840546 278.585828 
L 468.137253 282.625364 
L 468.493302 290.928334 
L 469.027375 309.724092 
L 469.976838 353.851803 
L 470.807619 388.514369 
L 471.28235 400.904614 
L 471.638399 405.496266 
L 471.816424 406.219404 
L 471.935107 406.131912 
L 472.113131 405.181371 
L 472.409838 401.553114 
L 472.825228 392.801177 
L 473.477985 373.312553 
L 474.90218 329.548387 
L 475.436253 319.205208 
L 475.851643 314.589191 
L 476.14835 313.140231 
L 476.326375 312.978874 
L 476.445058 313.146004 
L 476.682424 314.101461 
L 477.038472 316.893902 
L 477.572545 323.393584 
L 479.471472 348.915193 
L 479.886862 351.376759 
L 480.18357 351.998825 
L 480.302253 351.97189 
L 480.480277 351.638231 
L 480.776984 350.343701 
L 481.192375 347.211514 
L 481.904472 339.643159 
L 482.794594 330.634327 
L 483.269326 327.917492 
L 483.566033 327.232419 
L 483.744058 327.18604 
L 483.922082 327.401582 
L 484.218789 328.225184 
L 484.693521 330.414564 
L 485.702326 335.208964 
L 486.058375 336.003714 
L 486.29574 336.151612 
L 486.533106 336.000699 
L 486.829814 335.447098 
L 487.89796 333.10744 
L 488.075984 333.201177 
L 488.254009 333.579806 
L 488.491375 334.580045 
L 488.847423 337.294956 
L 489.262814 342.338282 
L 489.91557 353.522869 
L 491.16174 375.406321 
L 491.577131 379.051962 
L 491.814496 379.730113 
L 491.933179 379.657589 
L 492.111204 379.033739 
L 492.34857 377.23671 
L 492.704618 372.630577 
L 493.298033 361.218811 
L 494.603545 335.077732 
L 495.078277 329.971042 
L 495.434326 328.253277 
L 495.61235 328.023734 
L 495.790374 328.170833 
L 496.02774 328.847881 
L 496.443131 330.992629 
L 497.986009 340.039362 
L 498.282716 340.596731 
L 498.46074 340.610939 
L 498.638765 340.386456 
L 498.87613 339.695289 
L 499.232179 337.85246 
L 499.706911 334.039221 
L 501.487155 318.155748 
L 501.724521 317.643754 
L 501.843204 317.637528 
L 502.021228 317.942926 
L 502.258594 318.937179 
L 502.614643 321.522286 
L 503.267399 328.343609 
L 503.979496 335.05039 
L 504.335545 336.742311 
L 504.572911 337.050138 
L 504.750935 336.845549 
L 504.988301 336.031918 
L 505.34435 333.806921 
L 506.056447 327.381137 
L 506.768545 321.696429 
L 507.124594 320.268427 
L 507.302618 320.060958 
L 507.421301 320.136888 
L 507.599325 320.581124 
L 507.836691 321.828673 
L 508.19274 325.089374 
L 508.667472 331.849824 
L 509.498252 347.813018 
L 510.388374 363.94049 
L 510.922447 369.933615 
L 511.278496 371.866747 
L 511.515862 372.251129 
L 511.634545 372.187599 
L 511.812569 371.79461 
L 512.109277 370.450844 
L 512.584008 366.935567 
L 513.47413 358.124178 
L 518.221447 309.517747 
L 518.636837 307.584144 
L 518.933545 306.963197 
L 519.111569 306.901044 
L 519.289594 307.063207 
L 519.526959 307.609851 
L 519.94235 309.330867 
L 520.654447 313.663082 
L 521.722594 319.969692 
L 522.434691 322.854104 
L 524.452301 330.026662 
L 525.342423 333.302443 
L 525.817154 334.318707 
L 526.173203 334.629579 
L 526.529252 334.627662 
L 527.122667 334.515943 
L 527.360032 334.72307 
L 527.597398 335.249312 
L 527.894106 336.559272 
L 528.250154 339.361982 
L 528.665545 344.639451 
L 529.199618 354.516569 
L 530.801837 386.820117 
L 531.157886 389.550489 
L 531.33591 389.878053 
L 531.454593 389.68884 
L 531.632618 388.79129 
L 531.929325 385.668718 
L 532.344715 378.088148 
L 532.878788 363.683503 
L 534.065618 323.228686 
L 534.777715 303.21154 
L 535.252447 295.249676 
L 535.608496 292.607668 
L 535.78652 292.31999 
L 535.905203 292.476179 
L 536.142569 293.518676 
L 536.498618 296.474588 
L 537.744788 308.205897 
L 538.100837 309.45561 
L 538.338203 309.699559 
L 538.575569 309.628529 
L 539.050301 309.34075 
L 539.228325 309.472524 
L 539.465691 310.102617 
L 539.762398 311.821669 
L 540.118447 315.633164 
L 540.533837 322.625039 
L 541.127252 336.732154 
L 543.08552 386.637516 
L 543.619593 393.898124 
L 544.034983 396.816919 
L 544.272349 397.398819 
L 544.391032 397.405246 
L 544.569057 397.050548 
L 544.806422 395.949758 
L 545.162471 393.018009 
L 545.637203 387.083346 
L 546.408642 374.029146 
L 548.129544 343.962823 
L 548.663617 338.124616 
L 549.079008 335.559047 
L 549.375715 334.806782 
L 549.553739 334.760578 
L 549.731764 334.993081 
L 550.028471 335.888386 
L 550.503203 338.22365 
L 551.690032 344.289956 
L 552.342788 346.422199 
L 553.292252 349.533374 
L 554.063691 353.146651 
L 555.072495 357.813365 
L 555.547227 359.032484 
L 555.843934 359.315916 
L 556.0813 359.267556 
L 556.318666 358.935344 
L 556.615373 358.096961 
L 557.030764 356.069903 
L 557.505495 352.453312 
L 558.09891 345.988275 
L 559.048373 332.567181 
L 560.175861 317.29743 
L 560.9473 309.636718 
L 561.718739 304.045309 
L 562.490178 299.877153 
L 563.142934 297.404876 
L 563.617666 296.39938 
L 563.914373 296.222887 
L 564.151739 296.373018 
L 564.389105 296.817405 
L 564.745154 298.107928 
L 565.219885 300.97947 
L 565.8133 306.191347 
L 566.881446 318.143784 
L 568.424324 337.598897 
L 569.255105 351.077353 
L 570.204568 370.55577 
L 571.984812 407.923438 
L 572.578227 415.773933 
L 572.993617 418.859622 
L 573.290324 419.636138 
L 573.409007 419.581871 
L 573.587032 419.093554 
L 573.824398 417.646624 
L 574.180446 413.677463 
L 574.595837 406.220461 
L 575.12991 392.246024 
L 575.901349 365.022823 
L 577.800275 293.913494 
L 578.334349 282.725441 
L 578.690397 279.362662 
L 578.868422 279.043639 
L 578.987105 279.360145 
L 579.165129 280.627595 
L 579.461836 284.816256 
L 579.877227 294.73894 
L 580.470641 315.386933 
L 582.606934 396.610826 
L 583.141007 407.327443 
L 583.497056 411.175301 
L 583.734422 412.190546 
L 583.853105 412.216908 
L 583.971788 411.908439 
L 584.209153 410.298223 
L 584.505861 406.372841 
L 584.921251 397.387257 
L 585.455324 380.337434 
L 586.404788 340.932622 
L 587.294909 307.198655 
L 587.828983 294.249482 
L 588.244373 289.001024 
L 588.481739 287.859542 
L 588.600422 287.759432 
L 588.719105 287.952537 
L 588.95647 289.13847 
L 589.312519 292.598573 
L 589.905934 301.293241 
L 591.330129 322.946411 
L 591.982885 329.209524 
L 592.754324 334.388319 
L 593.585104 340.146133 
L 594.237861 346.415808 
L 595.602714 360.388281 
L 595.899422 361.614955 
L 596.077446 361.723825 
L 596.25547 361.313417 
L 596.492836 359.905954 
L 596.848885 355.963729 
L 597.323617 347.73686 
L 598.866495 318.253559 
L 599.222543 315.710403 
L 599.400568 315.410325 
L 599.519251 315.579535 
L 599.697275 316.382278 
L 599.993982 319.127398 
L 600.409373 325.722785 
L 601.002787 339.548621 
L 602.901714 387.777136 
L 603.257763 391.39467 
L 603.495129 392.063524 
L 603.613812 391.843051 
L 603.791836 390.822083 
L 604.088543 387.286184 
L 604.503934 378.763194 
L 605.097348 361.046815 
L 606.699568 310.301696 
L 607.174299 302.676205 
L 607.471007 300.728272 
L 607.58969 300.581463 
L 607.708373 300.801047 
L 607.886397 301.780132 
L 608.183104 305.064699 
L 608.598494 312.724907 
L 609.251251 329.849135 
L 610.675446 368.672927 
L 611.209519 377.092535 
L 611.565568 379.877307 
L 611.802933 380.464879 
L 611.921616 380.402625 
L 612.099641 379.899239 
L 612.396348 378.053531 
L 612.87108 373.188481 
L 614.295275 357.033514 
L 614.770007 354.259394 
L 615.244738 352.809323 
L 615.897494 351.199299 
L 616.253543 349.506422 
L 616.609592 346.658612 
L 617.024982 341.513105 
L 617.559055 331.924321 
L 618.508519 309.680547 
L 619.279958 293.465751 
L 619.754689 287.563944 
L 620.051397 286.06946 
L 620.17008 285.977169 
L 620.288763 286.170778 
L 620.466787 286.999882 
L 620.763494 289.722585 
L 621.178885 295.962594 
L 621.890982 310.808723 
L 623.01847 334.145952 
L 623.611884 342.170358 
L 624.086616 345.9733 
L 624.502006 347.714751 
L 624.858055 348.421885 
L 625.392128 348.913642 
L 625.807519 349.413068 
L 626.163567 350.256334 
L 626.578958 351.948505 
L 627.053689 355.060378 
L 627.647104 360.824345 
L 629.486689 380.735105 
L 629.783397 381.666786 
L 629.961421 381.708786 
L 630.139445 381.367496 
L 630.436153 380.026113 
L 630.910884 376.387419 
L 631.860348 368.77443 
L 632.216397 367.593313 
L 632.394421 367.511208 
L 632.572445 367.768162 
L 632.809811 368.571961 
L 633.284543 371.196987 
L 633.877957 374.150802 
L 634.115323 374.514527 
L 634.234006 374.426029 
L 634.412031 373.901735 
L 634.649396 372.417537 
L 635.005445 368.421259 
L 635.480177 360.027593 
L 636.192275 342.774405 
L 637.675811 306.441622 
L 638.269226 297.111912 
L 638.743957 292.59218 
L 639.100006 290.795151 
L 639.396713 290.145829 
L 639.634079 290.066492 
L 639.871445 290.28606 
L 640.286835 291.10278 
L 641.354982 293.303454 
L 642.541811 294.972519 
L 642.838518 296.290074 
L 643.135226 298.665748 
L 643.491274 303.580567 
L 643.906665 312.911888 
L 644.440738 330.987608 
L 646.280323 400.927855 
L 646.755055 408.750847 
L 647.111104 411.548825 
L 647.348469 412.254378 
L 647.526494 412.286981 
L 647.704518 411.948628 
L 648.001226 410.673157 
L 648.416616 407.577164 
L 648.950689 401.587899 
L 649.662786 390.768387 
L 650.908957 371.63879 
L 651.383689 367.683288 
L 651.680396 366.536034 
L 651.917762 366.240016 
L 652.155128 366.306717 
L 652.807884 366.818526 
L 652.985908 366.624901 
L 653.223274 365.909449 
L 653.519982 364.164823 
L 653.935372 360.050901 
L 654.528786 351.490625 
L 655.774957 332.976468 
L 656.249689 329.148342 
L 656.546396 328.04587 
L 656.724421 327.84662 
L 656.902445 327.967052 
L 657.139811 328.552357 
L 657.555201 330.388984 
L 658.445323 334.675184 
L 658.74203 335.239487 
L 658.920055 335.200812 
L 659.098079 334.827501 
L 659.335445 333.76611 
L 659.691494 330.854787 
L 660.106884 325.380084 
L 660.75964 313.081887 
L 661.887128 291.250461 
L 662.243177 287.806752 
L 662.480542 287.073429 
L 662.599225 287.219449 
L 662.77725 288.098608 
L 663.073957 291.259791 
L 663.489347 298.770892 
L 664.201445 316.827688 
L 665.269591 343.225758 
L 665.863006 352.96565 
L 666.397079 358.372406 
L 666.812469 360.749506 
L 667.168518 361.792237 
L 667.465225 362.101108 
L 667.702591 362.052278 
L 667.999298 361.685868 
L 668.414689 360.737424 
L 669.304811 357.950279 
L 670.49164 353.741698 
L 670.966371 351.105472 
L 671.441103 347.18899 
L 671.975176 340.877078 
L 672.687274 329.558098 
L 674.230152 303.892224 
L 674.645542 300.184765 
L 674.942249 299.138409 
L 675.060932 299.141715 
L 675.238957 299.621642 
L 675.476323 301.171518 
L 675.832371 305.426846 
L 676.307103 314.306212 
L 677.137884 335.272346 
L 678.20603 360.97149 
L 678.799445 370.172731 
L 679.214835 373.75407 
L 679.511542 374.808044 
L 679.630225 374.872966 
L 679.748908 374.730118 
L 679.926932 374.126035 
L 680.22364 372.071062 
L 680.63903 367.092596 
L 681.173103 357.42192 
L 682.063225 336.114838 
L 682.894005 318.078459 
L 683.309396 312.880794 
L 683.606103 311.419232 
L 683.724786 311.382668 
L 683.843469 311.64865 
L 684.080835 313.055307 
L 684.436883 316.931825 
L 685.861079 335.077366 
L 686.157786 336.113338 
L 686.33581 336.190783 
L 686.513835 335.974723 
L 687.225932 334.773824 
L 687.403957 335.125418 
L 687.641322 336.371198 
L 687.93803 339.362845 
L 688.35342 346.099129 
L 689.540249 370.493784 
L 689.540249 370.493784 
" clip-path="url(#pbf503e80ee)" style="fill: none; stroke: #ff0000; stroke-width: 1.5; stroke-linecap: square"/>
   </g>
   <g id="patch_3">
    <path d="M 96.125625 643.2705 
L 96.125625 39.1875 
" style="fill: none; stroke: #000000; stroke-width: 0.8; stroke-linejoin: miter; stroke-linecap: square"/>
   </g>
   <g id="patch_4">
    <path d="M 689.520469 643.2705 
L 689.520469 39.1875 
" style="fill: none; stroke: #000000; stroke-width: 0.8; stroke-linejoin: miter; stroke-linecap: square"/>
   </g>
   <g id="patch_5">
    <path d="M 96.125625 643.2705 
L 689.520469 643.2705 
" style="fill: none; stroke: #000000; stroke-width: 0.8; stroke-linejoin: miter; stroke-linecap: square"/>
   </g>
   <g id="patch_6">
    <path d="M 96.125625 39.1875 
L 689.520469 39.1875 
" style="fill: none; stroke: #000000; stroke-width: 0.8; stroke-linejoin: miter; stroke-linecap: square"/>
   </g>
  </g>
 </g>
 <defs>
  <clipPath id="pbf503e80ee">
   <rect x="96.125625" y="39.1875" width="593.394844" height="604.083"/>
  </clipPath>
 </defs>
</svg>
