<?xml version="1.0" encoding="utf-8" standalone="no"?>
<!DOCTYPE svg PUBLIC "-//W3C//DTD SVG 1.1//EN"
  "http://www.w3.org/Graphics/SVG/1.1/DTD/svg11.dtd">
<svg xmlns:xlink="http://www.w3.org/1999/xlink" width="711.735pt" height="711.105187pt" viewBox="0 0 711.735 711.105187" xmlns="http://www.w3.org/2000/svg" version="1.1">
 <metadata>
  <rdf:RDF xmlns:dc="http://purl.org/dc/elements/1.1/" xmlns:cc="http://creativecommons.org/ns#" xmlns:rdf="http://www.w3.org/1999/02/22-rdf-syntax-ns#">
   <cc:Work>
    <dc:type rdf:resource="http://purl.org/dc/dcmitype/StillImage"/>
    <dc:date>2025-02-05T21:57:32.973206</dc:date>
    <dc:format>image/svg+xml</dc:format>
    <dc:creator>
     <cc:Agent>
      <dc:title>Matplotlib v3.9.3, https://matplotlib.org/</dc:title>
     </cc:Agent>
    </dc:creator>
   </cc:Work>
  </rdf:RDF>
 </metadata>
 <defs>
  <style type="text/css">*{stroke-linejoin: round; stroke-linecap: butt}</style>
 </defs>
 <g id="figure_1">
  <g id="patch_1">
   <path d="M 0 711.105187 
L 711.735 711.105187 
L 711.735 0 
L 0 0 
z
" style="fill: #ffffff"/>
  </g>
  <g id="axes_1">
   <g id="patch_2">
    <path d="M 96.125625 643.2705 
L 689.520469 643.2705 
L 689.520469 39.1875 
L 96.125625 39.1875 
z
" style="fill: #ffffff"/>
   </g>
   <g id="matplotlib.axis_1">
    <g id="xtick_1">
     <g id="line2d_1">
      <defs>
       <path id="m1b921a1566" d="M 0 0 
L 0 -3.5 
" style="stroke: #000000; stroke-width: 0.8"/>
      </defs>
      <g>
       <use xlink:href="#m1b921a1566" x="96.125625" y="643.2705" style="stroke: #000000; stroke-width: 0.8"/>
      </g>
     </g>
     <g id="text_1">
      <!-- 0 -->
      <g transform="translate(88.618359 666.337062) scale(0.27 -0.27)">
       <defs>
        <path id="LiberationSans-30" d="M 3309 2203 
Q 3309 1100 2920 518 
Q 2531 -63 1772 -63 
Q 1013 -63 631 515 
Q 250 1094 250 2203 
Q 250 3338 620 3903 
Q 991 4469 1791 4469 
Q 2569 4469 2939 3897 
Q 3309 3325 3309 2203 
z
M 2738 2203 
Q 2738 3156 2517 3584 
Q 2297 4013 1791 4013 
Q 1272 4013 1045 3591 
Q 819 3169 819 2203 
Q 819 1266 1048 831 
Q 1278 397 1778 397 
Q 2275 397 2506 840 
Q 2738 1284 2738 2203 
z
" transform="scale(0.015625)"/>
       </defs>
       <use xlink:href="#LiberationSans-30"/>
      </g>
     </g>
    </g>
    <g id="xtick_2">
     <g id="line2d_2">
      <g>
       <use xlink:href="#m1b921a1566" x="214.804594" y="643.2705" style="stroke: #000000; stroke-width: 0.8"/>
      </g>
     </g>
     <g id="text_2">
      <!-- 2 -->
      <g transform="translate(207.297328 666.337062) scale(0.27 -0.27)">
       <defs>
        <path id="LiberationSans-32" d="M 322 0 
L 322 397 
Q 481 763 711 1042 
Q 941 1322 1194 1548 
Q 1447 1775 1695 1969 
Q 1944 2163 2144 2356 
Q 2344 2550 2467 2762 
Q 2591 2975 2591 3244 
Q 2591 3606 2378 3806 
Q 2166 4006 1788 4006 
Q 1428 4006 1195 3811 
Q 963 3616 922 3263 
L 347 3316 
Q 409 3844 795 4156 
Q 1181 4469 1788 4469 
Q 2453 4469 2811 4155 
Q 3169 3841 3169 3263 
Q 3169 3006 3051 2753 
Q 2934 2500 2703 2247 
Q 2472 1994 1819 1463 
Q 1459 1169 1246 933 
Q 1034 697 941 478 
L 3238 478 
L 3238 0 
L 322 0 
z
" transform="scale(0.015625)"/>
       </defs>
       <use xlink:href="#LiberationSans-32"/>
      </g>
     </g>
    </g>
    <g id="xtick_3">
     <g id="line2d_3">
      <g>
       <use xlink:href="#m1b921a1566" x="333.483563" y="643.2705" style="stroke: #000000; stroke-width: 0.8"/>
      </g>
     </g>
     <g id="text_3">
      <!-- 4 -->
      <g transform="translate(325.976297 666.337062) scale(0.27 -0.27)">
       <defs>
        <path id="LiberationSans-34" d="M 2753 997 
L 2753 0 
L 2222 0 
L 2222 997 
L 147 997 
L 147 1434 
L 2163 4403 
L 2753 4403 
L 2753 1441 
L 3372 1441 
L 3372 997 
L 2753 997 
z
M 2222 3769 
Q 2216 3750 2134 3603 
Q 2053 3456 2013 3397 
L 884 1734 
L 716 1503 
L 666 1441 
L 2222 1441 
L 2222 3769 
z
" transform="scale(0.015625)"/>
       </defs>
       <use xlink:href="#LiberationSans-34"/>
      </g>
     </g>
    </g>
    <g id="xtick_4">
     <g id="line2d_4">
      <g>
       <use xlink:href="#m1b921a1566" x="452.162531" y="643.2705" style="stroke: #000000; stroke-width: 0.8"/>
      </g>
     </g>
     <g id="text_4">
      <!-- 6 -->
      <g transform="translate(444.655266 666.337062) scale(0.27 -0.27)">
       <defs>
        <path id="LiberationSans-36" d="M 3278 1441 
Q 3278 744 2900 340 
Q 2522 -63 1856 -63 
Q 1113 -63 719 490 
Q 325 1044 325 2100 
Q 325 3244 734 3856 
Q 1144 4469 1900 4469 
Q 2897 4469 3156 3572 
L 2619 3475 
Q 2453 4013 1894 4013 
Q 1413 4013 1148 3564 
Q 884 3116 884 2266 
Q 1038 2550 1316 2698 
Q 1594 2847 1953 2847 
Q 2563 2847 2920 2465 
Q 3278 2084 3278 1441 
z
M 2706 1416 
Q 2706 1894 2472 2153 
Q 2238 2413 1819 2413 
Q 1425 2413 1183 2183 
Q 941 1953 941 1550 
Q 941 1041 1192 716 
Q 1444 391 1838 391 
Q 2244 391 2475 664 
Q 2706 938 2706 1416 
z
" transform="scale(0.015625)"/>
       </defs>
       <use xlink:href="#LiberationSans-36"/>
      </g>
     </g>
    </g>
    <g id="xtick_5">
     <g id="line2d_5">
      <g>
       <use xlink:href="#m1b921a1566" x="570.8415" y="643.2705" style="stroke: #000000; stroke-width: 0.8"/>
      </g>
     </g>
     <g id="text_5">
      <!-- 8 -->
      <g transform="translate(563.334234 666.337062) scale(0.27 -0.27)">
       <defs>
        <path id="LiberationSans-38" d="M 3281 1228 
Q 3281 619 2893 278 
Q 2506 -63 1781 -63 
Q 1075 -63 676 271 
Q 278 606 278 1222 
Q 278 1653 525 1947 
Q 772 2241 1156 2303 
L 1156 2316 
Q 797 2400 589 2681 
Q 381 2963 381 3341 
Q 381 3844 757 4156 
Q 1134 4469 1769 4469 
Q 2419 4469 2795 4162 
Q 3172 3856 3172 3334 
Q 3172 2956 2962 2675 
Q 2753 2394 2391 2322 
L 2391 2309 
Q 2813 2241 3047 1952 
Q 3281 1663 3281 1228 
z
M 2588 3303 
Q 2588 4050 1769 4050 
Q 1372 4050 1164 3862 
Q 956 3675 956 3303 
Q 956 2925 1170 2726 
Q 1384 2528 1775 2528 
Q 2172 2528 2380 2711 
Q 2588 2894 2588 3303 
z
M 2697 1281 
Q 2697 1691 2453 1898 
Q 2209 2106 1769 2106 
Q 1341 2106 1100 1882 
Q 859 1659 859 1269 
Q 859 359 1788 359 
Q 2247 359 2472 579 
Q 2697 800 2697 1281 
z
" transform="scale(0.015625)"/>
       </defs>
       <use xlink:href="#LiberationSans-38"/>
      </g>
     </g>
    </g>
    <g id="xtick_6">
     <g id="line2d_6">
      <g>
       <use xlink:href="#m1b921a1566" x="689.520469" y="643.2705" style="stroke: #000000; stroke-width: 0.8"/>
      </g>
     </g>
     <g id="text_6">
      <!-- 10 -->
      <g transform="translate(674.505937 666.337062) scale(0.27 -0.27)">
       <defs>
        <path id="LiberationSans-31" d="M 488 0 
L 488 478 
L 1609 478 
L 1609 3866 
L 616 3156 
L 616 3688 
L 1656 4403 
L 2175 4403 
L 2175 478 
L 3247 478 
L 3247 0 
L 488 0 
z
" transform="scale(0.015625)"/>
       </defs>
       <use xlink:href="#LiberationSans-31"/>
       <use xlink:href="#LiberationSans-30" x="55.615234"/>
      </g>
     </g>
    </g>
    <g id="xtick_7">
     <g id="line2d_7">
      <defs>
       <path id="m22405d4302" d="M 0 0 
L 0 -2 
" style="stroke: #000000; stroke-width: 0.6"/>
      </defs>
      <g>
       <use xlink:href="#m22405d4302" x="125.795367" y="643.2705" style="stroke: #000000; stroke-width: 0.6"/>
      </g>
     </g>
    </g>
    <g id="xtick_8">
     <g id="line2d_8">
      <g>
       <use xlink:href="#m22405d4302" x="155.465109" y="643.2705" style="stroke: #000000; stroke-width: 0.6"/>
      </g>
     </g>
    </g>
    <g id="xtick_9">
     <g id="line2d_9">
      <g>
       <use xlink:href="#m22405d4302" x="185.134852" y="643.2705" style="stroke: #000000; stroke-width: 0.6"/>
      </g>
     </g>
    </g>
    <g id="xtick_10">
     <g id="line2d_10">
      <g>
       <use xlink:href="#m22405d4302" x="244.474336" y="643.2705" style="stroke: #000000; stroke-width: 0.6"/>
      </g>
     </g>
    </g>
    <g id="xtick_11">
     <g id="line2d_11">
      <g>
       <use xlink:href="#m22405d4302" x="274.144078" y="643.2705" style="stroke: #000000; stroke-width: 0.6"/>
      </g>
     </g>
    </g>
    <g id="xtick_12">
     <g id="line2d_12">
      <g>
       <use xlink:href="#m22405d4302" x="303.81382" y="643.2705" style="stroke: #000000; stroke-width: 0.6"/>
      </g>
     </g>
    </g>
    <g id="xtick_13">
     <g id="line2d_13">
      <g>
       <use xlink:href="#m22405d4302" x="363.153305" y="643.2705" style="stroke: #000000; stroke-width: 0.6"/>
      </g>
     </g>
    </g>
    <g id="xtick_14">
     <g id="line2d_14">
      <g>
       <use xlink:href="#m22405d4302" x="392.823047" y="643.2705" style="stroke: #000000; stroke-width: 0.6"/>
      </g>
     </g>
    </g>
    <g id="xtick_15">
     <g id="line2d_15">
      <g>
       <use xlink:href="#m22405d4302" x="422.492789" y="643.2705" style="stroke: #000000; stroke-width: 0.6"/>
      </g>
     </g>
    </g>
    <g id="xtick_16">
     <g id="line2d_16">
      <g>
       <use xlink:href="#m22405d4302" x="481.832273" y="643.2705" style="stroke: #000000; stroke-width: 0.6"/>
      </g>
     </g>
    </g>
    <g id="xtick_17">
     <g id="line2d_17">
      <g>
       <use xlink:href="#m22405d4302" x="511.502016" y="643.2705" style="stroke: #000000; stroke-width: 0.6"/>
      </g>
     </g>
    </g>
    <g id="xtick_18">
     <g id="line2d_18">
      <g>
       <use xlink:href="#m22405d4302" x="541.171758" y="643.2705" style="stroke: #000000; stroke-width: 0.6"/>
      </g>
     </g>
    </g>
    <g id="xtick_19">
     <g id="line2d_19">
      <g>
       <use xlink:href="#m22405d4302" x="600.511242" y="643.2705" style="stroke: #000000; stroke-width: 0.6"/>
      </g>
     </g>
    </g>
    <g id="xtick_20">
     <g id="line2d_20">
      <g>
       <use xlink:href="#m22405d4302" x="630.180984" y="643.2705" style="stroke: #000000; stroke-width: 0.6"/>
      </g>
     </g>
    </g>
    <g id="xtick_21">
     <g id="line2d_21">
      <g>
       <use xlink:href="#m22405d4302" x="659.850727" y="643.2705" style="stroke: #000000; stroke-width: 0.6"/>
      </g>
     </g>
    </g>
    <g id="text_7">
     <!-- Time ps -->
     <g transform="translate(340.046484 697.680187) scale(0.3 -0.3)">
      <defs>
       <path id="LiberationSans-54" d="M 2250 3916 
L 2250 0 
L 1656 0 
L 1656 3916 
L 144 3916 
L 144 4403 
L 3763 4403 
L 3763 3916 
L 2250 3916 
z
" transform="scale(0.015625)"/>
       <path id="LiberationSans-69" d="M 428 4100 
L 428 4638 
L 991 4638 
L 991 4100 
L 428 4100 
z
M 428 0 
L 428 3381 
L 991 3381 
L 991 0 
L 428 0 
z
" transform="scale(0.015625)"/>
       <path id="LiberationSans-6d" d="M 2400 0 
L 2400 2144 
Q 2400 2634 2265 2821 
Q 2131 3009 1781 3009 
Q 1422 3009 1212 2734 
Q 1003 2459 1003 1959 
L 1003 0 
L 444 0 
L 444 2659 
Q 444 3250 425 3381 
L 956 3381 
Q 959 3366 962 3297 
Q 966 3228 970 3139 
Q 975 3050 981 2803 
L 991 2803 
Q 1172 3163 1406 3303 
Q 1641 3444 1978 3444 
Q 2363 3444 2586 3291 
Q 2809 3138 2897 2803 
L 2906 2803 
Q 3081 3144 3329 3294 
Q 3578 3444 3931 3444 
Q 4444 3444 4676 3166 
Q 4909 2888 4909 2253 
L 4909 0 
L 4353 0 
L 4353 2144 
Q 4353 2634 4218 2821 
Q 4084 3009 3734 3009 
Q 3366 3009 3161 2736 
Q 2956 2463 2956 1959 
L 2956 0 
L 2400 0 
z
" transform="scale(0.015625)"/>
       <path id="LiberationSans-65" d="M 863 1572 
Q 863 991 1103 675 
Q 1344 359 1806 359 
Q 2172 359 2392 506 
Q 2613 653 2691 878 
L 3184 738 
Q 2881 -63 1806 -63 
Q 1056 -63 664 384 
Q 272 831 272 1713 
Q 272 2550 664 2997 
Q 1056 3444 1784 3444 
Q 3275 3444 3275 1647 
L 3275 1572 
L 863 1572 
z
M 2694 2003 
Q 2647 2538 2422 2783 
Q 2197 3028 1775 3028 
Q 1366 3028 1127 2754 
Q 888 2481 869 2003 
L 2694 2003 
z
" transform="scale(0.015625)"/>
       <path id="LiberationSans-20" transform="scale(0.015625)"/>
       <path id="LiberationSans-70" d="M 3291 1706 
Q 3291 -63 2047 -63 
Q 1266 -63 997 525 
L 981 525 
Q 994 500 994 -6 
L 994 -1328 
L 431 -1328 
L 431 2691 
Q 431 3213 413 3381 
L 956 3381 
Q 959 3369 965 3292 
Q 972 3216 980 3056 
Q 988 2897 988 2838 
L 1000 2838 
Q 1150 3150 1397 3295 
Q 1644 3441 2047 3441 
Q 2672 3441 2981 3022 
Q 3291 2603 3291 1706 
z
M 2700 1694 
Q 2700 2400 2509 2703 
Q 2319 3006 1903 3006 
Q 1569 3006 1380 2865 
Q 1191 2725 1092 2426 
Q 994 2128 994 1650 
Q 994 984 1206 668 
Q 1419 353 1897 353 
Q 2316 353 2508 661 
Q 2700 969 2700 1694 
z
" transform="scale(0.015625)"/>
       <path id="LiberationSans-73" d="M 2969 934 
Q 2969 456 2608 196 
Q 2247 -63 1597 -63 
Q 966 -63 623 145 
Q 281 353 178 794 
L 675 891 
Q 747 619 972 492 
Q 1197 366 1597 366 
Q 2025 366 2223 497 
Q 2422 628 2422 891 
Q 2422 1091 2284 1216 
Q 2147 1341 1841 1422 
L 1438 1528 
Q 953 1653 748 1773 
Q 544 1894 428 2066 
Q 313 2238 313 2488 
Q 313 2950 642 3192 
Q 972 3434 1603 3434 
Q 2163 3434 2492 3237 
Q 2822 3041 2909 2606 
L 2403 2544 
Q 2356 2769 2151 2889 
Q 1947 3009 1603 3009 
Q 1222 3009 1040 2893 
Q 859 2778 859 2544 
Q 859 2400 934 2306 
Q 1009 2213 1156 2147 
Q 1303 2081 1775 1966 
Q 2222 1853 2419 1758 
Q 2616 1663 2730 1547 
Q 2844 1431 2906 1279 
Q 2969 1128 2969 934 
z
" transform="scale(0.015625)"/>
      </defs>
      <use xlink:href="#LiberationSans-54"/>
      <use xlink:href="#LiberationSans-69" x="57.333984"/>
      <use xlink:href="#LiberationSans-6d" x="79.550781"/>
      <use xlink:href="#LiberationSans-65" x="162.851562"/>
      <use xlink:href="#LiberationSans-20" x="218.466797"/>
      <use xlink:href="#LiberationSans-70" x="246.25"/>
      <use xlink:href="#LiberationSans-73" x="301.865234"/>
     </g>
    </g>
   </g>
   <g id="matplotlib.axis_2">
    <g id="ytick_1">
     <g id="line2d_22">
      <defs>
       <path id="me33164b3fd" d="M 0 0 
L 3.5 0 
" style="stroke: #000000; stroke-width: 0.8"/>
      </defs>
      <g>
       <use xlink:href="#me33164b3fd" x="96.125625" y="592.93025" style="stroke: #000000; stroke-width: 0.8"/>
      </g>
     </g>
     <g id="text_8">
      <!-- $\mathdefault{−1.5}$ -->
      <g transform="translate(39.165625 602.713531) scale(0.27 -0.27)">
       <defs>
        <path id="LiberationSans-2212" d="M 316 1900 
L 316 2356 
L 3425 2356 
L 3425 1900 
L 316 1900 
z
" transform="scale(0.015625)"/>
        <path id="LiberationSans-2e" d="M 584 0 
L 584 684 
L 1194 684 
L 1194 0 
L 584 0 
z
" transform="scale(0.015625)"/>
        <path id="LiberationSans-35" d="M 3291 1434 
Q 3291 738 2877 337 
Q 2463 -63 1728 -63 
Q 1113 -63 734 206 
Q 356 475 256 984 
L 825 1050 
Q 1003 397 1741 397 
Q 2194 397 2450 670 
Q 2706 944 2706 1422 
Q 2706 1838 2448 2094 
Q 2191 2350 1753 2350 
Q 1525 2350 1328 2278 
Q 1131 2206 934 2034 
L 384 2034 
L 531 4403 
L 3034 4403 
L 3034 3925 
L 1044 3925 
L 959 2528 
Q 1325 2809 1869 2809 
Q 2519 2809 2905 2428 
Q 3291 2047 3291 1434 
z
" transform="scale(0.015625)"/>
       </defs>
       <use xlink:href="#LiberationSans-2212" transform="translate(0 0.203125)"/>
       <use xlink:href="#LiberationSans-31" transform="translate(58.398438 0.203125)"/>
       <use xlink:href="#LiberationSans-2e" transform="translate(114.013672 0.203125)"/>
       <use xlink:href="#LiberationSans-35" transform="translate(141.796875 0.203125)"/>
      </g>
     </g>
    </g>
    <g id="ytick_2">
     <g id="line2d_23">
      <g>
       <use xlink:href="#me33164b3fd" x="96.125625" y="509.029833" style="stroke: #000000; stroke-width: 0.8"/>
      </g>
     </g>
     <g id="text_9">
      <!-- $\mathdefault{−1.0}$ -->
      <g transform="translate(39.165625 518.813115) scale(0.27 -0.27)">
       <use xlink:href="#LiberationSans-2212" transform="translate(0 0.171875)"/>
       <use xlink:href="#LiberationSans-31" transform="translate(58.398438 0.171875)"/>
       <use xlink:href="#LiberationSans-2e" transform="translate(114.013672 0.171875)"/>
       <use xlink:href="#LiberationSans-30" transform="translate(141.796875 0.171875)"/>
      </g>
     </g>
    </g>
    <g id="ytick_3">
     <g id="line2d_24">
      <g>
       <use xlink:href="#me33164b3fd" x="96.125625" y="425.129417" style="stroke: #000000; stroke-width: 0.8"/>
      </g>
     </g>
     <g id="text_10">
      <!-- $\mathdefault{−0.5}$ -->
      <g transform="translate(39.165625 434.912698) scale(0.27 -0.27)">
       <use xlink:href="#LiberationSans-2212" transform="translate(0 0.171875)"/>
       <use xlink:href="#LiberationSans-30" transform="translate(58.398438 0.171875)"/>
       <use xlink:href="#LiberationSans-2e" transform="translate(114.013672 0.171875)"/>
       <use xlink:href="#LiberationSans-35" transform="translate(141.796875 0.171875)"/>
      </g>
     </g>
    </g>
    <g id="ytick_4">
     <g id="line2d_25">
      <g>
       <use xlink:href="#me33164b3fd" x="96.125625" y="341.229" style="stroke: #000000; stroke-width: 0.8"/>
      </g>
     </g>
     <g id="text_11">
      <!-- $\mathdefault{0.0}$ -->
      <g transform="translate(54.825625 351.012281) scale(0.27 -0.27)">
       <use xlink:href="#LiberationSans-30" transform="translate(0 0.171875)"/>
       <use xlink:href="#LiberationSans-2e" transform="translate(55.615234 0.171875)"/>
       <use xlink:href="#LiberationSans-30" transform="translate(83.398438 0.171875)"/>
      </g>
     </g>
    </g>
    <g id="ytick_5">
     <g id="line2d_26">
      <g>
       <use xlink:href="#me33164b3fd" x="96.125625" y="257.328583" style="stroke: #000000; stroke-width: 0.8"/>
      </g>
     </g>
     <g id="text_12">
      <!-- $\mathdefault{0.5}$ -->
      <g transform="translate(54.825625 267.111865) scale(0.27 -0.27)">
       <use xlink:href="#LiberationSans-30" transform="translate(0 0.171875)"/>
       <use xlink:href="#LiberationSans-2e" transform="translate(55.615234 0.171875)"/>
       <use xlink:href="#LiberationSans-35" transform="translate(83.398438 0.171875)"/>
      </g>
     </g>
    </g>
    <g id="ytick_6">
     <g id="line2d_27">
      <g>
       <use xlink:href="#me33164b3fd" x="96.125625" y="173.428167" style="stroke: #000000; stroke-width: 0.8"/>
      </g>
     </g>
     <g id="text_13">
      <!-- $\mathdefault{1.0}$ -->
      <g transform="translate(54.825625 183.211448) scale(0.27 -0.27)">
       <use xlink:href="#LiberationSans-31" transform="translate(0 0.171875)"/>
       <use xlink:href="#LiberationSans-2e" transform="translate(55.615234 0.171875)"/>
       <use xlink:href="#LiberationSans-30" transform="translate(83.398438 0.171875)"/>
      </g>
     </g>
    </g>
    <g id="ytick_7">
     <g id="line2d_28">
      <g>
       <use xlink:href="#me33164b3fd" x="96.125625" y="89.52775" style="stroke: #000000; stroke-width: 0.8"/>
      </g>
     </g>
     <g id="text_14">
      <!-- $\mathdefault{1.5}$ -->
      <g transform="translate(54.825625 99.311031) scale(0.27 -0.27)">
       <use xlink:href="#LiberationSans-31" transform="translate(0 0.203125)"/>
       <use xlink:href="#LiberationSans-2e" transform="translate(55.615234 0.203125)"/>
       <use xlink:href="#LiberationSans-35" transform="translate(83.398438 0.203125)"/>
      </g>
     </g>
    </g>
    <g id="ytick_8">
     <g id="line2d_29">
      <defs>
       <path id="mafa3083ad6" d="M 0 0 
L 2 0 
" style="stroke: #000000; stroke-width: 0.6"/>
      </defs>
      <g>
       <use xlink:href="#mafa3083ad6" x="96.125625" y="643.2705" style="stroke: #000000; stroke-width: 0.6"/>
      </g>
     </g>
    </g>
    <g id="ytick_9">
     <g id="line2d_30">
      <g>
       <use xlink:href="#mafa3083ad6" x="96.125625" y="626.490417" style="stroke: #000000; stroke-width: 0.6"/>
      </g>
     </g>
    </g>
    <g id="ytick_10">
     <g id="line2d_31">
      <g>
       <use xlink:href="#mafa3083ad6" x="96.125625" y="609.710333" style="stroke: #000000; stroke-width: 0.6"/>
      </g>
     </g>
    </g>
    <g id="ytick_11">
     <g id="line2d_32">
      <g>
       <use xlink:href="#mafa3083ad6" x="96.125625" y="576.150167" style="stroke: #000000; stroke-width: 0.6"/>
      </g>
     </g>
    </g>
    <g id="ytick_12">
     <g id="line2d_33">
      <g>
       <use xlink:href="#mafa3083ad6" x="96.125625" y="559.370083" style="stroke: #000000; stroke-width: 0.6"/>
      </g>
     </g>
    </g>
    <g id="ytick_13">
     <g id="line2d_34">
      <g>
       <use xlink:href="#mafa3083ad6" x="96.125625" y="542.59" style="stroke: #000000; stroke-width: 0.6"/>
      </g>
     </g>
    </g>
    <g id="ytick_14">
     <g id="line2d_35">
      <g>
       <use xlink:href="#mafa3083ad6" x="96.125625" y="525.809917" style="stroke: #000000; stroke-width: 0.6"/>
      </g>
     </g>
    </g>
    <g id="ytick_15">
     <g id="line2d_36">
      <g>
       <use xlink:href="#mafa3083ad6" x="96.125625" y="492.24975" style="stroke: #000000; stroke-width: 0.6"/>
      </g>
     </g>
    </g>
    <g id="ytick_16">
     <g id="line2d_37">
      <g>
       <use xlink:href="#mafa3083ad6" x="96.125625" y="475.469667" style="stroke: #000000; stroke-width: 0.6"/>
      </g>
     </g>
    </g>
    <g id="ytick_17">
     <g id="line2d_38">
      <g>
       <use xlink:href="#mafa3083ad6" x="96.125625" y="458.689583" style="stroke: #000000; stroke-width: 0.6"/>
      </g>
     </g>
    </g>
    <g id="ytick_18">
     <g id="line2d_39">
      <g>
       <use xlink:href="#mafa3083ad6" x="96.125625" y="441.9095" style="stroke: #000000; stroke-width: 0.6"/>
      </g>
     </g>
    </g>
    <g id="ytick_19">
     <g id="line2d_40">
      <g>
       <use xlink:href="#mafa3083ad6" x="96.125625" y="408.349333" style="stroke: #000000; stroke-width: 0.6"/>
      </g>
     </g>
    </g>
    <g id="ytick_20">
     <g id="line2d_41">
      <g>
       <use xlink:href="#mafa3083ad6" x="96.125625" y="391.56925" style="stroke: #000000; stroke-width: 0.6"/>
      </g>
     </g>
    </g>
    <g id="ytick_21">
     <g id="line2d_42">
      <g>
       <use xlink:href="#mafa3083ad6" x="96.125625" y="374.789167" style="stroke: #000000; stroke-width: 0.6"/>
      </g>
     </g>
    </g>
    <g id="ytick_22">
     <g id="line2d_43">
      <g>
       <use xlink:href="#mafa3083ad6" x="96.125625" y="358.009083" style="stroke: #000000; stroke-width: 0.6"/>
      </g>
     </g>
    </g>
    <g id="ytick_23">
     <g id="line2d_44">
      <g>
       <use xlink:href="#mafa3083ad6" x="96.125625" y="324.448917" style="stroke: #000000; stroke-width: 0.6"/>
      </g>
     </g>
    </g>
    <g id="ytick_24">
     <g id="line2d_45">
      <g>
       <use xlink:href="#mafa3083ad6" x="96.125625" y="307.668833" style="stroke: #000000; stroke-width: 0.6"/>
      </g>
     </g>
    </g>
    <g id="ytick_25">
     <g id="line2d_46">
      <g>
       <use xlink:href="#mafa3083ad6" x="96.125625" y="290.88875" style="stroke: #000000; stroke-width: 0.6"/>
      </g>
     </g>
    </g>
    <g id="ytick_26">
     <g id="line2d_47">
      <g>
       <use xlink:href="#mafa3083ad6" x="96.125625" y="274.108667" style="stroke: #000000; stroke-width: 0.6"/>
      </g>
     </g>
    </g>
    <g id="ytick_27">
     <g id="line2d_48">
      <g>
       <use xlink:href="#mafa3083ad6" x="96.125625" y="240.5485" style="stroke: #000000; stroke-width: 0.6"/>
      </g>
     </g>
    </g>
    <g id="ytick_28">
     <g id="line2d_49">
      <g>
       <use xlink:href="#mafa3083ad6" x="96.125625" y="223.768417" style="stroke: #000000; stroke-width: 0.6"/>
      </g>
     </g>
    </g>
    <g id="ytick_29">
     <g id="line2d_50">
      <g>
       <use xlink:href="#mafa3083ad6" x="96.125625" y="206.988333" style="stroke: #000000; stroke-width: 0.6"/>
      </g>
     </g>
    </g>
    <g id="ytick_30">
     <g id="line2d_51">
      <g>
       <use xlink:href="#mafa3083ad6" x="96.125625" y="190.20825" style="stroke: #000000; stroke-width: 0.6"/>
      </g>
     </g>
    </g>
    <g id="ytick_31">
     <g id="line2d_52">
      <g>
       <use xlink:href="#mafa3083ad6" x="96.125625" y="156.648083" style="stroke: #000000; stroke-width: 0.6"/>
      </g>
     </g>
    </g>
    <g id="ytick_32">
     <g id="line2d_53">
      <g>
       <use xlink:href="#mafa3083ad6" x="96.125625" y="139.868" style="stroke: #000000; stroke-width: 0.6"/>
      </g>
     </g>
    </g>
    <g id="ytick_33">
     <g id="line2d_54">
      <g>
       <use xlink:href="#mafa3083ad6" x="96.125625" y="123.087917" style="stroke: #000000; stroke-width: 0.6"/>
      </g>
     </g>
    </g>
    <g id="ytick_34">
     <g id="line2d_55">
      <g>
       <use xlink:href="#mafa3083ad6" x="96.125625" y="106.307833" style="stroke: #000000; stroke-width: 0.6"/>
      </g>
     </g>
    </g>
    <g id="ytick_35">
     <g id="line2d_56">
      <g>
       <use xlink:href="#mafa3083ad6" x="96.125625" y="72.747667" style="stroke: #000000; stroke-width: 0.6"/>
      </g>
     </g>
    </g>
    <g id="ytick_36">
     <g id="line2d_57">
      <g>
       <use xlink:href="#mafa3083ad6" x="96.125625" y="55.967583" style="stroke: #000000; stroke-width: 0.6"/>
      </g>
     </g>
    </g>
    <g id="ytick_37">
     <g id="line2d_58">
      <g>
       <use xlink:href="#mafa3083ad6" x="96.125625" y="39.1875" style="stroke: #000000; stroke-width: 0.6"/>
      </g>
     </g>
    </g>
    <g id="text_15">
     <!-- Heat Flux $\mathrm{W} / \mathrm{m}^2$ -->
     <g transform="translate(28.940625 445.779) rotate(-90) scale(0.3 -0.3)">
      <defs>
       <path id="LiberationSans-48" d="M 3503 0 
L 3503 2041 
L 1122 2041 
L 1122 0 
L 525 0 
L 525 4403 
L 1122 4403 
L 1122 2541 
L 3503 2541 
L 3503 4403 
L 4100 4403 
L 4100 0 
L 3503 0 
z
" transform="scale(0.015625)"/>
       <path id="LiberationSans-61" d="M 1294 -63 
Q 784 -63 528 206 
Q 272 475 272 944 
Q 272 1469 617 1750 
Q 963 2031 1731 2050 
L 2491 2063 
L 2491 2247 
Q 2491 2659 2316 2837 
Q 2141 3016 1766 3016 
Q 1388 3016 1216 2887 
Q 1044 2759 1009 2478 
L 422 2531 
Q 566 3444 1778 3444 
Q 2416 3444 2737 3151 
Q 3059 2859 3059 2306 
L 3059 850 
Q 3059 600 3125 473 
Q 3191 347 3375 347 
Q 3456 347 3559 369 
L 3559 19 
Q 3347 -31 3125 -31 
Q 2813 -31 2670 133 
Q 2528 297 2509 647 
L 2491 647 
Q 2275 259 1989 98 
Q 1703 -63 1294 -63 
z
M 1422 359 
Q 1731 359 1972 500 
Q 2213 641 2352 886 
Q 2491 1131 2491 1391 
L 2491 1669 
L 1875 1656 
Q 1478 1650 1273 1575 
Q 1069 1500 959 1344 
Q 850 1188 850 934 
Q 850 659 998 509 
Q 1147 359 1422 359 
z
" transform="scale(0.015625)"/>
       <path id="LiberationSans-74" d="M 1731 25 
Q 1453 -50 1163 -50 
Q 488 -50 488 716 
L 488 2972 
L 97 2972 
L 97 3381 
L 509 3381 
L 675 4138 
L 1050 4138 
L 1050 3381 
L 1675 3381 
L 1675 2972 
L 1050 2972 
L 1050 838 
Q 1050 594 1129 495 
Q 1209 397 1406 397 
Q 1519 397 1731 441 
L 1731 25 
z
" transform="scale(0.015625)"/>
       <path id="LiberationSans-46" d="M 1122 3916 
L 1122 2278 
L 3578 2278 
L 3578 1784 
L 1122 1784 
L 1122 0 
L 525 0 
L 525 4403 
L 3653 4403 
L 3653 3916 
L 1122 3916 
z
" transform="scale(0.015625)"/>
       <path id="LiberationSans-6c" d="M 431 0 
L 431 4638 
L 994 4638 
L 994 0 
L 431 0 
z
" transform="scale(0.015625)"/>
       <path id="LiberationSans-75" d="M 981 3381 
L 981 1238 
Q 981 903 1047 718 
Q 1113 534 1256 453 
Q 1400 372 1678 372 
Q 2084 372 2318 650 
Q 2553 928 2553 1422 
L 2553 3381 
L 3116 3381 
L 3116 722 
Q 3116 131 3134 0 
L 2603 0 
Q 2600 16 2597 84 
Q 2594 153 2589 242 
Q 2584 331 2578 578 
L 2569 578 
Q 2375 228 2120 82 
Q 1866 -63 1488 -63 
Q 931 -63 673 214 
Q 416 491 416 1128 
L 416 3381 
L 981 3381 
z
" transform="scale(0.015625)"/>
       <path id="LiberationSans-78" d="M 2503 0 
L 1594 1388 
L 678 0 
L 72 0 
L 1275 1738 
L 128 3381 
L 750 3381 
L 1594 2066 
L 2431 3381 
L 3059 3381 
L 1913 1744 
L 3131 0 
L 2503 0 
z
" transform="scale(0.015625)"/>
       <path id="STIXGeneral-Regular-57" d="M 5965 4237 
L 5965 4115 
Q 5709 4064 5616 3990 
Q 5523 3917 5434 3667 
Q 4704 1709 4128 -70 
L 4032 -70 
Q 3642 1011 3008 2637 
L 2022 -70 
L 1926 -70 
Q 1709 576 1277 1753 
Q 845 2931 698 3347 
Q 538 3808 406 3958 
Q 275 4109 32 4115 
L 32 4237 
L 1594 4237 
L 1594 4115 
Q 1357 4109 1270 4064 
Q 1184 4019 1184 3917 
Q 1184 3808 1254 3616 
L 2176 1210 
L 2842 3021 
L 2662 3501 
Q 2509 3917 2400 4013 
Q 2291 4109 2010 4115 
L 2010 4237 
L 3706 4237 
L 3706 4115 
Q 3213 4102 3213 3891 
Q 3213 3808 3322 3520 
L 4237 1190 
L 5043 3360 
Q 5152 3667 5152 3853 
Q 5152 4109 4704 4115 
L 4704 4237 
L 5965 4237 
z
" transform="scale(0.015625)"/>
       <path id="STIXGeneral-Regular-2f" d="M 1837 4326 
L 378 -90 
L -58 -90 
L 1408 4326 
L 1837 4326 
z
" transform="scale(0.015625)"/>
       <path id="STIXGeneral-Regular-6d" d="M 4960 0 
L 3565 0 
L 3565 96 
Q 3834 122 3907 208 
Q 3981 294 3981 576 
L 3981 1894 
Q 3981 2278 3869 2444 
Q 3757 2611 3488 2611 
Q 3264 2611 3107 2521 
Q 2950 2432 2803 2221 
L 2803 608 
Q 2803 301 2896 201 
Q 2989 102 3264 96 
L 3264 0 
L 1830 0 
L 1830 96 
Q 2112 115 2189 188 
Q 2266 262 2266 550 
L 2266 1901 
Q 2266 2611 1850 2611 
Q 1670 2611 1468 2531 
Q 1267 2451 1171 2336 
Q 1088 2240 1088 2227 
L 1088 448 
Q 1088 243 1177 176 
Q 1267 109 1523 96 
L 1523 0 
L 102 0 
L 102 96 
Q 371 102 460 195 
Q 550 288 550 563 
L 550 2150 
Q 550 2387 499 2480 
Q 448 2573 326 2573 
Q 230 2573 122 2547 
L 122 2656 
Q 557 2778 1011 2944 
L 1062 2925 
L 1062 2451 
L 1075 2451 
Q 1363 2752 1584 2848 
Q 1805 2944 2054 2944 
Q 2560 2944 2733 2406 
Q 3232 2944 3776 2944 
Q 4518 2944 4518 1792 
L 4518 493 
Q 4518 282 4582 202 
Q 4646 122 4794 109 
L 4960 96 
L 4960 0 
z
" transform="scale(0.015625)"/>
       <path id="STIXGeneral-Regular-32" d="M 3034 877 
L 2688 0 
L 186 0 
L 186 77 
L 1325 1286 
Q 1773 1754 1965 2144 
Q 2157 2534 2157 2950 
Q 2157 3379 1920 3616 
Q 1683 3853 1267 3853 
Q 922 3853 720 3673 
Q 518 3494 326 3021 
L 192 3053 
Q 301 3648 630 3987 
Q 960 4326 1523 4326 
Q 2054 4326 2380 4006 
Q 2707 3686 2707 3200 
Q 2707 2477 1888 1613 
L 832 486 
L 2330 486 
Q 2541 486 2665 569 
Q 2790 653 2944 915 
L 3034 877 
z
" transform="scale(0.015625)"/>
      </defs>
      <use xlink:href="#LiberationSans-48" transform="translate(0 0.409375)"/>
      <use xlink:href="#LiberationSans-65" transform="translate(72.216797 0.409375)"/>
      <use xlink:href="#LiberationSans-61" transform="translate(127.832031 0.409375)"/>
      <use xlink:href="#LiberationSans-74" transform="translate(183.447266 0.409375)"/>
      <use xlink:href="#LiberationSans-20" transform="translate(211.230469 0.409375)"/>
      <use xlink:href="#LiberationSans-46" transform="translate(239.013672 0.409375)"/>
      <use xlink:href="#LiberationSans-6c" transform="translate(300.097656 0.409375)"/>
      <use xlink:href="#LiberationSans-75" transform="translate(322.314453 0.409375)"/>
      <use xlink:href="#LiberationSans-78" transform="translate(377.929688 0.409375)"/>
      <use xlink:href="#LiberationSans-20" transform="translate(427.929688 0.409375)"/>
      <use xlink:href="#STIXGeneral-Regular-57" transform="translate(455.712891 0.409375)"/>
      <use xlink:href="#STIXGeneral-Regular-2f" transform="translate(550.112885 0.409375)"/>
      <use xlink:href="#STIXGeneral-Regular-6d" transform="translate(577.912872 0.409375)"/>
      <use xlink:href="#STIXGeneral-Regular-32" transform="translate(657.256141 35.684375) scale(0.7)"/>
     </g>
    </g>
    <g id="text_16">
     <!-- $\times\mathdefault{10^{10}}\mathdefault{}$ -->
     <g transform="translate(96.125625 36.1875) scale(0.4 -0.4)">
      <defs>
       <path id="STIXGeneral-Regular-d7" d="M 3821 141 
L 3526 -160 
L 2048 1312 
L 570 -160 
L 275 134 
L 1747 1613 
L 275 3091 
L 576 3386 
L 2048 1914 
L 3526 3386 
L 3821 3098 
L 2349 1613 
L 3821 141 
z
" transform="scale(0.015625)"/>
      </defs>
      <use xlink:href="#STIXGeneral-Regular-d7" transform="translate(0 0.140625)"/>
      <use xlink:href="#LiberationSans-31" transform="translate(63.999985 0.140625)"/>
      <use xlink:href="#LiberationSans-30" transform="translate(119.615219 0.140625)"/>
      <use xlink:href="#LiberationSans-31" transform="translate(176.154946 37.120312) scale(0.7)"/>
      <use xlink:href="#LiberationSans-30" transform="translate(215.08561 37.120312) scale(0.7)"/>
     </g>
    </g>
   </g>
   <g id="line2d_59">
    <path d="M 96.125625 348.206291 
L 96.362991 348.35827 
L 96.600357 348.166972 
L 96.956405 347.490367 
L 98.380601 343.698901 
L 98.855332 341.690252 
L 99.270723 338.763581 
L 99.686113 334.170142 
L 100.160844 326.333495 
L 100.813601 311.189932 
L 102.237796 276.527902 
L 102.653186 271.785632 
L 102.890552 270.866922 
L 103.009235 270.906725 
L 103.187259 271.591134 
L 103.483966 274.169176 
L 103.958698 281.106733 
L 105.086186 298.751159 
L 105.560918 302.586767 
L 105.916966 304.004231 
L 106.391698 304.929502 
L 106.807088 305.811832 
L 107.163137 307.207062 
L 107.578527 309.991986 
L 108.171942 315.96942 
L 109.477454 329.89869 
L 109.952186 332.561261 
L 110.248893 333.320183 
L 110.486259 333.491465 
L 110.723625 333.331685 
L 111.079674 332.704797 
L 111.851113 331.196467 
L 112.088478 331.138827 
L 112.325844 331.444961 
L 112.622552 332.445363 
L 112.9786 334.680584 
L 113.393991 338.876741 
L 113.928064 346.927557 
L 114.640161 361.875936 
L 116.657771 407.218775 
L 117.191844 413.585978 
L 117.725917 417.375021 
L 119.921551 428.84597 
L 120.040234 428.862683 
L 120.218259 428.476909 
L 120.455625 427.137842 
L 120.752332 424.072993 
L 121.167722 417.204687 
L 121.820478 401.819246 
L 123.778746 353.004177 
L 124.906234 325.827989 
L 125.796356 297.92187 
L 127.16121 254.480466 
L 127.695283 243.668991 
L 128.110673 238.826981 
L 128.407381 237.209096 
L 128.644746 236.872655 
L 128.822771 237.113499 
L 129.060137 237.994404 
L 129.416185 240.368047 
L 129.890917 245.224052 
L 130.42499 253.059881 
L 130.959063 264.498075 
L 131.493137 281.367026 
L 132.086551 308.116576 
L 132.976673 360.969207 
L 133.926137 413.840951 
L 134.400868 429.386994 
L 134.697576 433.621632 
L 134.816259 434.027777 
L 134.8756 433.953962 
L 134.994283 433.262153 
L 135.231649 429.652505 
L 135.528356 421.172237 
L 136.003088 399.56548 
L 136.774527 350.908885 
L 137.664649 297.34831 
L 138.13938 280.676156 
L 138.436088 276.592874 
L 138.554771 276.411851 
L 138.673454 277.059042 
L 138.851478 279.551589 
L 139.148185 287.520232 
L 139.622917 308.263285 
L 141.462502 398.985074 
L 141.877893 406.979374 
L 142.115258 408.799392 
L 142.233941 409.022836 
L 142.293283 408.976623 
L 142.411966 408.60929 
L 142.649332 406.818067 
L 143.00538 402.092946 
L 143.658136 389.980042 
L 145.319697 354.356821 
L 146.209819 329.474993 
L 147.515331 292.962785 
L 147.990063 285.141941 
L 148.346112 282.166194 
L 148.583478 281.520564 
L 148.702161 281.565618 
L 148.880185 282.086657 
L 149.176892 283.947551 
L 149.592283 288.181602 
L 150.363722 298.960742 
L 151.194502 313.683721 
L 151.965941 331.572565 
L 153.330795 364.782918 
L 153.686844 368.563924 
L 153.864868 369.099393 
L 153.983551 368.928118 
L 154.161575 367.88485 
L 154.458283 364.232917 
L 154.933014 354.416677 
L 156.357209 321.60179 
L 156.713258 318.066041 
L 156.950624 317.319076 
L 157.069307 317.433113 
L 157.247331 318.164591 
L 157.544039 320.743706 
L 158.078112 328.240563 
L 158.849551 338.914416 
L 159.2056 341.1559 
L 159.324282 341.345081 
L 159.383624 341.312978 
L 159.502307 341.032327 
L 159.739673 339.56956 
L 160.095721 335.203447 
L 160.570453 326.125453 
L 161.519917 302.444707 
L 162.825429 271.638437 
L 163.656209 257.020098 
L 164.368307 248.116636 
L 167.157356 220.407114 
L 167.216697 220.391912 
L 167.33538 220.720633 
L 167.513404 222.204798 
L 167.75077 226.362081 
L 168.047477 235.539075 
L 168.462868 256.466725 
L 168.996941 296.093496 
L 170.895868 449.959762 
L 171.311258 464.798859 
L 171.607965 469.741903 
L 171.78599 470.712228 
L 171.845331 470.738573 
L 171.964014 470.382818 
L 172.20138 468.299688 
L 172.61677 461.742954 
L 173.447551 448.510768 
L 173.744258 446.706036 
L 173.862941 446.637003 
L 173.981624 446.967638 
L 174.21899 448.760204 
L 174.575038 453.993979 
L 175.346477 470.792386 
L 175.88055 480.007941 
L 176.177258 482.128457 
L 176.295941 482.204034 
L 176.414624 481.828295 
L 176.65199 479.624113 
L 176.948697 474.176208 
L 177.364087 461.748056 
L 177.957502 435.770993 
L 178.728941 390.939376 
L 180.153136 291.133974 
L 180.924575 245.228734 
L 181.399307 227.250133 
L 181.755355 220.457958 
L 181.992721 219.250564 
L 182.111404 219.626773 
L 182.289428 221.333358 
L 182.586136 227.002946 
L 183.001526 239.838166 
L 183.713624 269.828017 
L 184.900453 319.179501 
L 185.493867 335.909947 
L 185.968599 344.195876 
L 186.324648 347.570375 
L 186.621355 348.719477 
L 186.79938 348.760693 
L 186.977404 348.380492 
L 187.274111 346.912156 
L 187.748843 342.940772 
L 189.173038 329.513486 
L 189.529087 328.161951 
L 189.766453 327.894487 
L 189.944477 327.988467 
L 190.241184 328.461041 
L 190.656575 329.067928 
L 190.834599 329.010248 
L 191.012623 328.622466 
L 191.249989 327.475171 
L 191.546697 324.853362 
L 191.962087 318.931441 
L 192.614843 305.605001 
L 193.623648 285.365367 
L 194.039038 280.913259 
L 194.276404 279.975957 
L 194.395087 279.988676 
L 194.573111 280.643267 
L 194.810477 282.70111 
L 195.166526 288.24686 
L 195.641257 299.668694 
L 196.590721 329.622732 
L 197.302818 348.963452 
L 197.718209 355.475742 
L 197.955575 357.003268 
L 198.074257 357.105986 
L 198.19294 356.7449 
L 198.370965 355.328002 
L 198.667672 350.612542 
L 199.083062 339.325815 
L 199.676477 315.586499 
L 201.338038 244.672407 
L 201.81277 233.893871 
L 202.168818 229.741908 
L 202.406184 228.786098 
L 202.524867 228.831102 
L 202.702892 229.537007 
L 202.940257 231.601141 
L 203.296306 236.956673 
L 203.771038 248.145448 
L 204.364452 268.549157 
L 205.017209 299.465739 
L 205.847989 351.0746 
L 207.450209 455.231728 
L 207.92494 471.724419 
L 208.221648 475.98453 
L 208.34033 476.302093 
L 208.459013 475.842067 
L 208.637038 473.686783 
L 208.933745 466.421913 
L 209.349135 449.615938 
L 210.061233 409.527043 
L 211.248062 343.252888 
L 211.841477 322.186945 
L 212.256867 314.304484 
L 212.494233 312.447919 
L 212.612916 312.241339 
L 212.731599 312.489449 
L 212.909623 313.691054 
L 213.20633 317.717385 
L 213.681062 328.238302 
L 214.927233 358.844597 
L 215.22394 361.781431 
L 215.401964 362.11522 
L 215.520647 361.69154 
L 215.698672 360.065449 
L 215.995379 354.67769 
L 216.410769 341.953762 
L 217.063525 313.340501 
L 218.191013 264.135307 
L 218.665745 252.623263 
L 218.962452 249.494785 
L 219.140477 249.141765 
L 219.25916 249.523999 
L 219.496525 251.663493 
L 219.852574 257.902093 
L 220.386647 272.161204 
L 222.166891 324.052856 
L 222.700964 332.872915 
L 223.175696 337.330117 
L 223.531745 338.988842 
L 223.887794 339.709728 
L 224.599891 340.661612 
L 224.896598 341.72781 
L 225.252647 344.166206 
L 225.668037 349.011806 
L 226.142769 357.422374 
L 226.795525 373.352557 
L 228.041696 404.283335 
L 228.516428 410.673509 
L 228.813135 412.366536 
L 228.991159 412.517825 
L 229.169184 412.076475 
L 229.40655 410.678124 
L 229.762598 407.106047 
L 230.356013 398.570371 
L 231.364818 380.576181 
L 232.25494 360.846696 
L 233.08572 337.013106 
L 235.162671 274.155701 
L 235.578062 268.240957 
L 235.93411 265.918442 
L 236.171476 265.575843 
L 236.290159 265.693656 
L 236.527525 266.383368 
L 237.002257 268.759696 
L 238.189086 275.992164 
L 238.604476 280.275381 
L 239.019867 287.153957 
L 239.494598 299.147924 
L 240.088013 320.420405 
L 242.046281 396.451952 
L 242.461671 403.829417 
L 242.81772 406.71591 
L 242.995744 407.127878 
L 243.114427 407.063039 
L 243.292452 406.545659 
L 243.589159 404.90606 
L 244.657305 398.181224 
L 244.894671 397.744908 
L 245.072696 397.760111 
L 245.310062 398.180938 
L 246.259525 400.581078 
L 246.437549 400.199348 
L 246.674915 398.795777 
L 246.971622 395.306124 
L 247.327671 388.171434 
L 247.802403 373.350392 
L 248.395818 347.187982 
L 249.404622 291.098048 
L 250.591452 228.592137 
L 251.184866 208.405009 
L 251.540915 202.259018 
L 251.778281 201.114599 
L 251.896964 201.486295 
L 252.074988 203.273558 
L 252.371696 209.56666 
L 252.727744 222.607839 
L 253.202476 248.61727 
L 253.914574 301.690224 
L 255.220086 400.906494 
L 255.635476 418.522259 
L 255.932183 423.998053 
L 256.050866 424.399164 
L 256.169549 423.789493 
L 256.347574 420.997187 
L 256.644281 411.607707 
L 257.059671 390.216087 
L 257.890452 332.000989 
L 258.721232 279.190397 
L 259.195964 261.74547 
L 259.492671 257.447755 
L 259.552013 257.24819 
L 259.611354 257.270675 
L 259.730037 257.970489 
L 259.908061 260.67767 
L 260.204769 269.433937 
L 260.620159 289.569483 
L 261.332256 337.361711 
L 262.222378 393.758413 
L 262.69711 411.320969 
L 262.993817 416.348567 
L 263.171842 417.162971 
L 263.290525 416.826346 
L 263.468549 415.102226 
L 263.765256 409.336086 
L 264.239988 394.469704 
L 266.316939 321.038314 
L 266.791671 313.470161 
L 267.088378 311.362683 
L 267.266403 311.092306 
L 267.385086 311.29959 
L 267.56311 312.194086 
L 267.859817 315.067441 
L 268.334549 322.47031 
L 269.699403 345.487943 
L 269.99611 347.38672 
L 270.174134 347.642784 
L 270.292817 347.435978 
L 270.470842 346.569231 
L 270.767549 343.660239 
L 271.182939 337.096445 
L 272.8445 307.575503 
L 273.141207 305.745332 
L 273.319232 305.407734 
L 273.437915 305.483144 
L 273.615939 305.997352 
L 273.912646 307.861871 
L 274.387378 312.710359 
L 275.574207 325.721107 
L 275.930256 327.585801 
L 276.167622 327.920867 
L 276.286305 327.778236 
L 276.464329 327.186599 
L 276.701695 325.655489 
L 277.057744 321.821894 
L 277.591817 313.123367 
L 278.897329 290.371672 
L 279.253378 287.800241 
L 279.431402 287.555286 
L 279.550085 287.796164 
L 279.787451 289.274842 
L 280.084159 292.929527 
L 280.499549 301.165007 
L 281.092963 317.974187 
L 282.042427 352.291575 
L 283.40728 400.811737 
L 283.941354 412.852789 
L 284.297402 417.25501 
L 284.534768 418.477506 
L 284.653451 418.59198 
L 284.772134 418.372765 
L 284.950158 417.4507 
L 285.246866 414.467922 
L 285.662256 407.721204 
L 286.315012 392.603323 
L 287.561183 356.795613 
L 288.569988 330.074965 
L 289.104061 320.794215 
L 289.46011 317.683254 
L 289.638134 317.201532 
L 289.756817 317.299376 
L 289.934841 318.093158 
L 290.172207 320.322275 
L 290.528256 325.97751 
L 291.121671 339.888197 
L 292.189817 365.528675 
L 292.605207 370.48583 
L 292.842573 371.262043 
L 292.961256 371.027542 
L 293.13928 369.888577 
L 293.435988 365.940727 
L 293.851378 356.463302 
L 294.504134 335.136093 
L 295.57228 300.302209 
L 296.047012 291.496273 
L 296.343719 289.131825 
L 296.462402 288.890561 
L 296.521744 288.915244 
L 296.640427 289.257676 
L 296.877792 291.020943 
L 297.233841 295.952409 
L 297.886597 309.102121 
L 298.598695 322.156405 
L 298.954744 325.590798 
L 299.192109 326.27038 
L 299.310792 326.090366 
L 299.488817 325.17789 
L 299.785524 321.954071 
L 300.200914 314.344068 
L 300.913012 296.227837 
L 301.743792 276.79103 
L 302.159183 271.708947 
L 302.396548 270.884894 
L 302.515231 271.104965 
L 302.693256 272.262136 
L 302.989963 276.39153 
L 303.405353 286.656612 
L 303.939426 306.274778 
L 305.541646 370.268226 
L 305.897695 376.273499 
L 306.135061 377.416257 
L 306.253743 377.083138 
L 306.431768 375.494836 
L 306.728475 370.088797 
L 307.143865 357.726693 
L 308.864768 299.709721 
L 309.161475 296.393557 
L 309.339499 295.84114 
L 309.458182 296.057888 
L 309.636207 297.239307 
L 309.932914 301.237631 
L 310.348304 310.253402 
L 312.128548 353.842461 
L 312.484597 356.639678 
L 312.662621 356.983676 
L 312.781304 356.863121 
L 312.959329 356.234274 
L 313.315377 353.728679 
L 314.442865 344.565928 
L 314.739573 343.729274 
L 314.917597 343.611973 
L 315.095621 343.712853 
L 315.511012 344.375799 
L 315.86706 344.774564 
L 316.045085 344.705582 
L 316.282451 344.193497 
L 316.579158 342.821106 
L 316.994548 339.699717 
L 318.122036 330.48238 
L 318.359402 329.85994 
L 318.478085 329.845712 
L 318.656109 330.224303 
L 318.893475 331.489177 
L 319.249524 335.021957 
L 319.724255 342.383667 
L 320.495694 358.572424 
L 321.741865 384.948467 
L 322.157255 389.724817 
L 322.394621 390.719121 
L 322.513304 390.679771 
L 322.691329 389.890084 
L 322.928694 387.438547 
L 323.284743 380.865403 
L 323.759475 367.358795 
L 324.590255 335.733373 
L 325.717743 294.195718 
L 326.370499 277.998022 
L 326.904572 269.998184 
L 327.379304 266.099835 
L 327.854036 264.035683 
L 328.803499 260.380578 
L 329.396914 256.541715 
L 330.939792 245.873441 
L 331.414524 244.256949 
L 331.711231 243.805917 
L 331.948597 243.763044 
L 332.185963 244.034831 
L 332.48267 244.875513 
L 332.838719 246.71805 
L 333.254109 250.177012 
L 333.728841 256.19128 
L 334.262914 265.942018 
L 334.856328 281.048557 
L 335.568426 305.771006 
L 336.517889 347.951588 
L 337.823401 405.276229 
L 338.416816 422.482124 
L 338.832206 428.964639 
L 339.069572 430.338458 
L 339.188255 430.392423 
L 339.306938 430.039319 
L 339.544304 428.14411 
L 339.900353 422.658147 
L 340.493767 408.637699 
L 341.621255 381.567884 
L 342.095987 375.003029 
L 342.511377 372.102994 
L 342.808084 371.243753 
L 343.520182 370.150732 
L 343.757548 368.905314 
L 344.054255 365.797005 
L 344.410304 358.957376 
L 344.825694 345.58633 
L 345.300426 322.577535 
L 346.012523 275.571353 
L 347.140011 201.601171 
L 347.555401 186.716768 
L 347.792767 183.182345 
L 347.91145 182.897503 
L 348.030133 183.613644 
L 348.208157 186.592947 
L 348.504865 196.429332 
L 348.920255 219.284057 
L 349.632352 274.310212 
L 350.700499 354.627133 
L 351.234572 378.666759 
L 351.590621 386.791272 
L 351.827987 388.835405 
L 351.94667 388.936405 
L 352.065352 388.481631 
L 352.302718 386.075031 
L 352.658767 379.477102 
L 353.311523 362.078707 
L 354.320328 336.327002 
L 354.854401 327.964703 
L 355.269791 324.53987 
L 355.566499 323.562744 
L 355.744523 323.532086 
L 355.922547 323.839498 
L 356.219255 325.050899 
L 356.634645 328.025061 
L 357.168718 333.561757 
L 358.652255 350.302476 
L 358.889621 351.164293 
L 359.008304 351.205885 
L 359.126986 350.96568 
L 359.305011 350.043173 
L 359.601718 346.964454 
L 360.017108 339.548377 
L 360.669864 322.559983 
L 361.619328 298.2197 
L 362.034718 292.294887 
L 362.331425 290.727577 
L 362.450108 290.743988 
L 362.628133 291.468066 
L 362.865499 293.653084 
L 363.221547 299.420432 
L 363.755621 312.609494 
L 364.586401 339.830699 
L 365.654547 373.826242 
L 366.129279 383.107675 
L 366.425986 385.904613 
L 366.604011 386.369555 
L 366.722694 386.158781 
L 366.900718 385.089755 
L 367.197425 381.435993 
L 367.612816 373.064275 
L 368.562279 347.486583 
L 369.452401 326.634784 
L 370.105157 316.30675 
L 370.63923 311.198725 
L 370.995279 309.686387 
L 371.173303 309.580471 
L 371.351328 309.94136 
L 371.588694 311.203642 
L 371.944742 314.782078 
L 372.419474 322.496168 
L 373.190913 339.7023 
L 374.199718 361.159494 
L 374.67445 367.300719 
L 375.030498 369.416654 
L 375.208523 369.609675 
L 375.327206 369.408801 
L 375.50523 368.606327 
L 375.801937 365.923594 
L 376.217328 359.419986 
L 376.751401 346.87919 
L 377.582181 320.853381 
L 378.828352 282.35846 
L 379.303084 274.081449 
L 379.599791 272.064467 
L 379.718474 272.031544 
L 379.837157 272.433662 
L 380.074523 274.618714 
L 380.37123 279.842908 
L 380.78662 291.312313 
L 381.498718 318.320109 
L 382.566864 357.494606 
L 383.100937 369.170826 
L 383.456986 373.077867 
L 383.694352 374.030673 
L 383.813035 374.066063 
L 383.991059 373.629797 
L 384.287767 371.822549 
L 384.762498 367.037171 
L 385.949327 354.390432 
L 386.483401 350.935468 
L 387.017474 348.773295 
L 387.67023 347.044492 
L 388.441669 345.555615 
L 388.797718 345.290842 
L 389.035084 345.379862 
L 389.331791 345.810518 
L 389.68784 346.815169 
L 390.755986 350.242393 
L 390.93401 350.304396 
L 391.112035 350.07026 
L 391.349401 349.204636 
L 391.705449 346.651155 
L 392.12084 341.712052 
L 392.714254 331.621211 
L 394.672522 295.723126 
L 395.147254 291.072928 
L 395.503303 289.373357 
L 395.681327 289.186914 
L 395.80001 289.302445 
L 395.978035 289.874478 
L 396.274742 291.929837 
L 396.630791 296.260843 
L 397.105522 305.100088 
L 397.758278 322.082153 
L 399.479181 369.606957 
L 399.894571 374.797104 
L 400.131937 375.829414 
L 400.25062 375.787363 
L 400.428644 375.050567 
L 400.66601 372.777788 
L 401.022059 366.878062 
L 401.556132 353.566836 
L 403.336376 305.14276 
L 403.751766 300.336994 
L 403.989132 299.507286 
L 404.107815 299.640956 
L 404.285839 300.532046 
L 404.582547 303.828963 
L 404.997937 311.868485 
L 405.591352 328.427025 
L 406.896864 366.372847 
L 407.371595 374.224618 
L 407.727644 377.04055 
L 407.96501 377.517004 
L 408.083693 377.382831 
L 408.321059 376.482999 
L 408.677108 373.934859 
L 410.219986 361.238092 
L 410.635376 359.715265 
L 411.050766 358.998622 
L 411.406815 358.813051 
L 411.940888 358.650485 
L 412.237595 358.204689 
L 412.474961 357.441584 
L 412.771668 355.716533 
L 413.127717 352.076916 
L 413.543108 345.040839 
L 414.017839 332.907384 
L 414.729937 308.167873 
L 415.798083 271.918413 
L 416.213473 264.11809 
L 416.510181 261.988312 
L 416.569522 261.934867 
L 416.628864 262.011032 
L 416.806888 262.999916 
L 417.044254 266.049495 
L 417.400303 274.224449 
L 417.875034 290.880008 
L 418.646473 327.285623 
L 420.011327 392.295425 
L 420.5454 407.685211 
L 420.901449 412.246206 
L 421.020132 412.630788 
L 421.079473 412.600081 
L 421.198156 412.114314 
L 421.376181 410.302938 
L 421.672888 404.525236 
L 422.088278 391.466036 
L 422.859717 358.085248 
L 423.868522 316.365464 
L 424.461937 300.516407 
L 424.877327 294.27675 
L 425.174034 292.171269 
L 425.352059 291.769654 
L 425.470741 291.817259 
L 425.648766 292.337727 
L 425.945473 294.180801 
L 426.479546 299.559539 
L 427.488351 309.758591 
L 427.903741 311.943392 
L 428.200449 312.517371 
L 428.378473 312.500256 
L 428.615839 312.115874 
L 429.446619 310.303575 
L 429.565302 310.373649 
L 429.743327 310.848491 
L 429.980693 312.349889 
L 430.2774 315.946264 
L 430.633449 323.240281 
L 431.10818 338.380185 
L 431.820278 369.93197 
L 432.769741 410.393869 
L 433.244473 422.211142 
L 433.600522 426.279037 
L 433.837888 426.92658 
L 433.956571 426.730572 
L 434.134595 425.876063 
L 434.490644 422.662258 
L 435.380766 411.160299 
L 436.152205 402.618952 
L 436.804961 397.580077 
L 437.635741 393.022539 
L 438.40718 388.698815 
L 438.941253 384.341078 
L 439.534668 377.56909 
L 440.42479 364.402866 
L 441.611619 347.635248 
L 442.086351 343.647342 
L 442.383058 342.480052 
L 442.561083 342.314911 
L 442.679766 342.446442 
L 442.917131 343.311282 
L 443.213839 345.519459 
L 443.629229 350.608046 
L 444.281985 362.178229 
L 445.29079 380.160136 
L 445.765522 384.905443 
L 446.062229 386.124868 
L 446.240253 386.256021 
L 446.418278 385.981835 
L 446.655644 385.089923 
L 447.071034 382.405076 
L 447.783131 375.940297 
L 448.969961 362.948955 
L 449.7414 351.971264 
L 450.453497 338.585998 
L 451.224936 319.588096 
L 453.539253 257.222785 
L 453.895302 254.199182 
L 454.013985 253.941607 
L 454.073326 253.961844 
L 454.192009 254.314243 
L 454.429375 256.221853 
L 454.726082 260.840202 
L 455.141473 271.062545 
L 455.794229 293.308102 
L 456.803034 327.464934 
L 457.277765 336.654989 
L 457.574473 339.102037 
L 457.752497 339.394766 
L 457.87118 339.136161 
L 458.108546 337.718528 
L 458.523936 333.279558 
L 459.176692 326.251381 
L 459.414058 325.184396 
L 459.532741 325.126518 
L 459.651424 325.439059 
L 459.829448 326.640117 
L 460.126156 330.725035 
L 460.482204 339.123824 
L 461.016277 358.222409 
L 461.847058 398.282794 
L 462.855863 444.464687 
L 463.330594 456.715256 
L 463.56796 459.236195 
L 463.686643 459.479069 
L 463.805326 459.02839 
L 463.983351 457.010249 
L 464.280058 450.097493 
L 464.695448 433.456718 
L 465.288863 398.750001 
L 466.713058 311.590993 
L 467.128448 298.884443 
L 467.425155 295.389722 
L 467.484497 295.25429 
L 467.543838 295.297985 
L 467.662521 295.916348 
L 467.899887 299.162019 
L 468.255936 308.268587 
L 468.908692 332.731072 
L 469.739472 362.294599 
L 470.214204 371.958937 
L 470.510911 374.441634 
L 470.629594 374.682462 
L 470.688936 374.638616 
L 470.86696 373.935161 
L 471.104326 371.688174 
L 471.460375 366.024493 
L 472.113131 351.026738 
L 473.121936 327.881138 
L 473.537326 322.358974 
L 473.834033 320.73238 
L 473.952716 320.679019 
L 474.071399 320.972419 
L 474.308765 322.633664 
L 474.605472 326.683359 
L 475.020863 335.704589 
L 475.673619 355.863827 
L 477.216497 405.794532 
L 477.631887 412.272718 
L 477.869253 413.555539 
L 477.987936 413.493385 
L 478.16596 412.484265 
L 478.403326 409.448882 
L 478.759375 401.44245 
L 479.293448 383.362782 
L 480.717643 331.601029 
L 481.133033 324.454647 
L 481.370399 322.833649 
L 481.489082 322.662492 
L 481.607765 322.895165 
L 481.785789 323.950162 
L 482.082497 327.244562 
L 482.735253 337.942505 
L 483.388009 347.112807 
L 483.744058 349.762302 
L 484.040765 350.632341 
L 484.218789 350.715603 
L 484.456155 350.506609 
L 484.871545 350.009648 
L 485.04957 350.052167 
L 485.227594 350.374889 
L 485.46496 351.334127 
L 485.761667 353.497896 
L 486.236399 358.904704 
L 487.779277 378.583261 
L 488.135326 380.504044 
L 488.372692 380.989206 
L 488.550716 380.956065 
L 488.72874 380.628619 
L 489.025448 379.51922 
L 489.440838 377.079497 
L 492.407911 356.141343 
L 492.941984 349.532962 
L 493.535399 338.991111 
L 494.247496 321.784726 
L 495.849716 281.367513 
L 496.265106 276.195471 
L 496.561813 274.788847 
L 496.680496 274.770876 
L 496.799179 275.02798 
L 497.036545 276.401816 
L 497.392594 280.208479 
L 498.104691 291.102948 
L 498.816789 300.722584 
L 499.232179 303.916219 
L 499.588228 305.243155 
L 500.419008 307.288362 
L 500.715716 309.507192 
L 501.071765 314.393804 
L 501.487155 323.616289 
L 502.139911 344.416988 
L 503.089374 374.531408 
L 503.504765 381.273125 
L 503.74213 382.390007 
L 503.860813 382.157167 
L 504.038838 380.802343 
L 504.335545 376.02163 
L 504.750935 364.850273 
L 505.581716 334.285217 
L 506.353155 309.472441 
L 506.768545 301.709756 
L 507.065252 299.18093 
L 507.243277 298.876925 
L 507.36196 299.150894 
L 507.599325 300.74861 
L 507.955374 305.342946 
L 508.667472 318.746675 
L 509.260886 328.50897 
L 509.616935 331.399415 
L 509.79496 331.717191 
L 509.913642 331.494182 
L 510.091667 330.49956 
L 510.388374 327.195341 
L 510.863106 318.629315 
L 511.812569 301.116244 
L 512.109277 298.861102 
L 512.22796 298.625862 
L 512.287301 298.652089 
L 512.405984 299.009337 
L 512.64335 300.883656 
L 512.999399 306.251973 
L 513.652155 320.717127 
L 514.364252 334.923454 
L 514.779642 339.193895 
L 515.017008 339.907001 
L 515.135691 339.815802 
L 515.313716 339.107882 
L 515.610423 336.600759 
L 516.085155 330.126877 
L 517.212642 313.887029 
L 517.568691 311.377165 
L 517.806057 310.772897 
L 517.92474 310.816425 
L 518.102764 311.270863 
L 518.399472 313.054837 
L 518.814862 317.420512 
L 519.467618 327.236281 
L 521.307203 356.545558 
L 522.434691 369.634896 
L 524.392959 391.218295 
L 524.689667 392.204594 
L 524.80835 392.177427 
L 524.986374 391.65602 
L 525.22374 389.942941 
L 525.520447 386.073437 
L 525.935837 377.459314 
L 526.529252 359.806901 
L 527.894106 316.926707 
L 528.309496 310.757459 
L 528.546862 309.677292 
L 528.606203 309.696018 
L 528.724886 310.079628 
L 528.962252 312.175762 
L 529.318301 318.286498 
L 529.911715 333.662357 
L 530.742496 354.357412 
L 531.098545 358.806456 
L 531.276569 359.535903 
L 531.33591 359.53847 
L 531.454593 359.169023 
L 531.632618 357.71572 
L 531.929325 352.896207 
L 532.344715 341.685297 
L 533.056813 315.050224 
L 533.887593 286.490422 
L 534.243642 279.863799 
L 534.481008 278.25719 
L 534.540349 278.239974 
L 534.659032 278.670769 
L 534.837057 280.503254 
L 535.133764 286.636962 
L 535.549154 300.865013 
L 536.261252 334.843697 
L 537.270057 381.211811 
L 537.80413 396.960909 
L 538.278862 404.880655 
L 538.63491 407.653967 
L 538.872276 408.332822 
L 539.050301 408.359737 
L 539.228325 408.053031 
L 539.525032 406.90539 
L 539.999764 403.867742 
L 540.533837 398.927635 
L 541.127252 391.043949 
L 541.720666 379.774194 
L 542.432764 361.432757 
L 544.450374 306.20264 
L 545.10313 295.833438 
L 545.874569 287.432221 
L 548.010861 267.796519 
L 548.248227 267.13374 
L 548.36691 267.104928 
L 548.485593 267.306994 
L 548.663617 268.053154 
L 548.960325 270.682476 
L 549.316374 276.257675 
L 549.791105 287.780676 
L 550.443861 310.066187 
L 552.40213 381.771057 
L 552.81752 388.827032 
L 553.114227 390.809817 
L 553.23291 390.872843 
L 553.351593 390.521032 
L 553.588959 388.594913 
L 553.945008 382.96882 
L 554.479081 369.977729 
L 555.66591 339.731707 
L 556.0813 334.581427 
L 556.318666 333.59947 
L 556.437349 333.651094 
L 556.615373 334.370401 
L 556.852739 336.456268 
L 557.268129 342.559687 
L 558.573642 364.232833 
L 558.811008 365.469139 
L 558.92969 365.518506 
L 559.048373 365.173877 
L 559.226398 363.873806 
L 559.523105 359.628462 
L 559.938495 349.496629 
L 560.53191 328.48647 
L 561.837422 280.704649 
L 562.312154 271.378816 
L 562.608861 268.75327 
L 562.786886 268.333868 
L 562.905568 268.511552 
L 563.083593 269.39046 
L 563.3803 272.339106 
L 563.855032 279.975554 
L 564.567129 295.582727 
L 565.39791 318.674001 
L 566.110007 344.953588 
L 567.949593 417.532771 
L 568.305642 422.418225 
L 568.483666 423.006971 
L 568.602349 422.724126 
L 568.780373 421.351834 
L 569.077081 416.764092 
L 569.551812 404.897033 
L 570.619959 370.011927 
L 572.993617 288.732493 
L 574.773861 211.377332 
L 575.070568 207.268309 
L 575.189251 206.960445 
L 575.307934 207.458931 
L 575.485958 209.682544 
L 575.782666 217.27293 
L 576.198056 235.134859 
L 576.910154 278.201967 
L 578.156324 353.038586 
L 578.80908 378.692952 
L 579.283812 389.957691 
L 579.639861 394.496032 
L 579.936568 395.92093 
L 580.055251 395.930243 
L 580.233275 395.395596 
L 580.470641 393.737774 
L 580.82669 389.570222 
L 581.479446 378.677448 
L 584.149812 327.997478 
L 585.395983 298.05356 
L 585.69269 295.14928 
L 585.811373 294.837959 
L 585.870714 294.869086 
L 585.989397 295.33272 
L 586.167422 297.045044 
L 586.464129 302.566765 
L 586.879519 315.270681 
L 587.650958 347.696937 
L 588.600422 385.331992 
L 589.312519 404.834711 
L 590.024617 418.238793 
L 590.618031 425.886299 
L 591.033422 428.962642 
L 591.270787 429.61485 
L 591.38947 429.588489 
L 591.567495 429.092621 
L 591.804861 427.498177 
L 592.160909 423.066691 
L 592.635641 413.480599 
L 593.347739 393.445297 
L 594.593909 357.927886 
L 595.127983 348.49385 
L 595.543373 344.590358 
L 595.84008 343.581824 
L 595.958763 343.554053 
L 596.136787 343.877273 
L 596.433495 345.206264 
L 596.967568 348.980355 
L 597.620324 353.05742 
L 597.917031 353.840167 
L 598.095056 353.857753 
L 598.27308 353.530281 
L 598.510446 352.513796 
L 598.866495 349.911285 
L 599.459909 343.519693 
L 602.961056 302.791014 
L 603.495129 298.79628 
L 603.791836 297.921619 
L 603.910519 297.905745 
L 604.088543 298.274554 
L 604.325909 299.528077 
L 604.681958 303.097251 
L 605.15669 310.692067 
L 605.868787 326.436773 
L 608.361129 385.628698 
L 609.073226 396.503467 
L 609.725982 403.119736 
L 610.319397 407.075809 
L 610.972153 410.033752 
L 611.446885 411.379078 
L 611.743592 411.684207 
L 611.921616 411.576915 
L 612.099641 411.165518 
L 612.337007 410.036772 
L 612.633714 407.505564 
L 612.989763 402.507817 
L 613.464494 391.899079 
L 613.998568 374.247992 
L 614.710665 342.648465 
L 616.846958 241.771533 
L 617.262348 232.804055 
L 617.559055 230.230024 
L 617.677738 230.143405 
L 617.796421 230.586567 
L 618.033787 232.99857 
L 618.389836 240.19199 
L 618.864567 255.223086 
L 619.695348 290.148933 
L 621.238226 354.887984 
L 622.069006 381.110459 
L 622.721763 395.854212 
L 623.255836 403.599982 
L 623.671226 406.767978 
L 623.908592 407.409061 
L 624.027275 407.421881 
L 624.205299 407.066379 
L 624.442665 405.924125 
L 624.798714 402.935189 
L 625.392128 395.534367 
L 626.816323 376.955861 
L 629.664714 348.283084 
L 629.90208 347.540612 
L 630.020762 347.555672 
L 630.198787 348.0939 
L 630.436153 349.827793 
L 630.792201 354.505169 
L 631.326275 364.974546 
L 632.513104 389.454221 
L 632.987836 395.091759 
L 633.343884 397.114849 
L 633.58125 397.459042 
L 633.699933 397.369001 
L 633.937299 396.679373 
L 634.234006 395.004385 
L 634.768079 390.354892 
L 635.776884 379.072904 
L 636.785689 365.472613 
L 637.972518 349.197608 
L 638.387909 346.18931 
L 638.625274 345.570165 
L 638.743957 345.576998 
L 638.921982 345.983162 
L 639.218689 347.588308 
L 639.693421 351.774005 
L 640.46486 358.465418 
L 640.761567 359.580421 
L 640.88025 359.662727 
L 640.998933 359.524761 
L 641.176957 358.893176 
L 641.473665 356.670336 
L 641.889055 351.355003 
L 642.541811 339.542878 
L 643.550616 321.677736 
L 644.025348 316.673496 
L 644.381396 314.969411 
L 644.559421 314.795318 
L 644.678104 314.922326 
L 644.915469 315.759552 
L 645.212177 317.863506 
L 645.627567 322.753977 
L 646.102299 331.19984 
L 646.695713 346.376314 
L 647.467152 372.814419 
L 648.357274 402.325938 
L 648.772665 409.793243 
L 649.01003 411.173824 
L 649.069372 411.165619 
L 649.188055 410.722255 
L 649.425421 408.160792 
L 649.781469 400.568744 
L 650.374884 381.378705 
L 651.324347 351.337416 
L 651.739738 344.366894 
L 651.977104 342.871799 
L 652.036445 342.78599 
L 652.095786 342.833096 
L 652.214469 343.286185 
L 652.451835 345.579153 
L 652.748543 350.912286 
L 653.223274 364.361083 
L 654.232079 402.321072 
L 654.884835 422.220707 
L 655.300225 428.880638 
L 655.537591 430.078585 
L 655.596933 430.078434 
L 655.715616 429.720129 
L 655.952982 427.65497 
L 656.30903 421.557122 
L 656.902445 406.333492 
L 657.733225 385.8756 
L 658.148616 380.517535 
L 658.385981 379.525245 
L 658.504664 379.601107 
L 658.682689 380.399319 
L 658.979396 383.390369 
L 659.513469 391.9391 
L 660.047542 399.681833 
L 660.284908 401.059864 
L 660.34425 401.099951 
L 660.462933 400.748442 
L 660.640957 399.043854 
L 660.878323 394.312743 
L 661.234372 381.599766 
L 661.709103 354.539367 
L 662.599225 286.278993 
L 663.251981 243.438148 
L 663.667372 228.274742 
L 663.904737 224.931662 
L 663.964079 224.712699 
L 664.02342 224.736074 
L 664.142103 225.492335 
L 664.379469 229.67707 
L 664.735518 241.704379 
L 665.328933 271.998588 
L 666.812469 350.941017 
L 667.465225 372.889879 
L 667.939957 382.343845 
L 668.296006 385.641333 
L 668.47403 386.050448 
L 668.592713 385.869643 
L 668.770737 384.947108 
L 669.067445 381.741877 
L 669.482835 374.326372 
L 671.32242 336.580251 
L 671.678469 334.342028 
L 671.915835 333.953367 
L 672.034518 334.019217 
L 672.271884 334.530332 
L 673.162006 337.060017 
L 673.34003 337.024438 
L 673.518054 336.687536 
L 673.814762 335.416624 
L 674.230152 332.327506 
L 675.476323 321.989007 
L 675.713688 321.562642 
L 675.832371 321.695909 
L 676.010396 322.324692 
L 676.247762 324.032938 
L 676.60381 328.43967 
L 677.137884 338.46433 
L 678.740103 371.592745 
L 679.155493 375.528329 
L 679.392859 376.437877 
L 679.570884 376.484526 
L 679.748908 376.005572 
L 679.986274 374.584114 
L 680.342323 371.00603 
L 680.935737 362.299482 
L 682.478615 338.348944 
L 683.131371 331.789794 
L 683.784127 327.32263 
L 684.496225 323.896617 
L 685.208322 321.504599 
L 686.157786 318.624952 
L 686.513835 316.598539 
L 686.869883 313.267005 
L 687.285274 307.162427 
L 687.878688 294.550349 
L 688.650127 278.552268 
L 688.946835 276.113719 
L 689.006176 276.051565 
L 689.124859 276.40836 
L 689.302883 278.236181 
L 689.540249 283.137895 
L 689.540249 283.137895 
" clip-path="url(#p50ba5bfff6)" style="fill: none; stroke: #ff0000; stroke-width: 1.5; stroke-linecap: square"/>
   </g>
   <g id="patch_3">
    <path d="M 96.125625 643.2705 
L 96.125625 39.1875 
" style="fill: none; stroke: #000000; stroke-width: 0.8; stroke-linejoin: miter; stroke-linecap: square"/>
   </g>
   <g id="patch_4">
    <path d="M 689.520469 643.2705 
L 689.520469 39.1875 
" style="fill: none; stroke: #000000; stroke-width: 0.8; stroke-linejoin: miter; stroke-linecap: square"/>
   </g>
   <g id="patch_5">
    <path d="M 96.125625 643.2705 
L 689.520469 643.2705 
" style="fill: none; stroke: #000000; stroke-width: 0.8; stroke-linejoin: miter; stroke-linecap: square"/>
   </g>
   <g id="patch_6">
    <path d="M 96.125625 39.1875 
L 689.520469 39.1875 
" style="fill: none; stroke: #000000; stroke-width: 0.8; stroke-linejoin: miter; stroke-linecap: square"/>
   </g>
  </g>
 </g>
 <defs>
  <clipPath id="p50ba5bfff6">
   <rect x="96.125625" y="39.1875" width="593.394844" height="604.083"/>
  </clipPath>
 </defs>
</svg>
