<?xml version="1.0" encoding="utf-8" standalone="no"?>
<!DOCTYPE svg PUBLIC "-//W3C//DTD SVG 1.1//EN"
  "http://www.w3.org/Graphics/SVG/1.1/DTD/svg11.dtd">
<svg xmlns:xlink="http://www.w3.org/1999/xlink" width="710.741988pt" height="711.02175pt" viewBox="0 0 710.741988 711.02175" xmlns="http://www.w3.org/2000/svg" version="1.1">
 <metadata>
  <rdf:RDF xmlns:dc="http://purl.org/dc/elements/1.1/" xmlns:cc="http://creativecommons.org/ns#" xmlns:rdf="http://www.w3.org/1999/02/22-rdf-syntax-ns#">
   <cc:Work>
    <dc:type rdf:resource="http://purl.org/dc/dcmitype/StillImage"/>
    <dc:date>2025-02-06T00:36:50.632021</dc:date>
    <dc:format>image/svg+xml</dc:format>
    <dc:creator>
     <cc:Agent>
      <dc:title>Matplotlib v3.9.3, https://matplotlib.org/</dc:title>
     </cc:Agent>
    </dc:creator>
   </cc:Work>
  </rdf:RDF>
 </metadata>
 <defs>
  <style type="text/css">*{stroke-linejoin: round; stroke-linecap: butt}</style>
 </defs>
 <g id="figure_1">
  <g id="patch_1">
   <path d="M 0 711.02175 
L 710.741988 711.02175 
L 710.741988 0 
L 0 0 
z
" style="fill: #ffffff"/>
  </g>
  <g id="axes_1">
   <g id="patch_2">
    <path d="M 79.5 640.3905 
L 703.541988 640.3905 
L 703.541988 39.1875 
L 79.5 39.1875 
z
" style="fill: #ffffff"/>
   </g>
   <g id="matplotlib.axis_1">
    <g id="xtick_1">
     <g id="line2d_1">
      <defs>
       <path id="md8f1f331f6" d="M 0 0 
L 0 -3.5 
" style="stroke: #000000; stroke-width: 0.8"/>
      </defs>
      <g>
       <use xlink:href="#md8f1f331f6" x="107.808808" y="640.3905" style="stroke: #000000; stroke-width: 0.8"/>
      </g>
     </g>
     <g id="text_1">
      <!-- 0 -->
      <g transform="translate(99.467402 665.631125) scale(0.3 -0.3)">
       <defs>
        <path id="LiberationSans-30" d="M 3309 2203 
Q 3309 1100 2920 518 
Q 2531 -63 1772 -63 
Q 1013 -63 631 515 
Q 250 1094 250 2203 
Q 250 3338 620 3903 
Q 991 4469 1791 4469 
Q 2569 4469 2939 3897 
Q 3309 3325 3309 2203 
z
M 2738 2203 
Q 2738 3156 2517 3584 
Q 2297 4013 1791 4013 
Q 1272 4013 1045 3591 
Q 819 3169 819 2203 
Q 819 1266 1048 831 
Q 1278 397 1778 397 
Q 2275 397 2506 840 
Q 2738 1284 2738 2203 
z
" transform="scale(0.015625)"/>
       </defs>
       <use xlink:href="#LiberationSans-30"/>
      </g>
     </g>
    </g>
    <g id="xtick_2">
     <g id="line2d_2">
      <g>
       <use xlink:href="#md8f1f331f6" x="221.282335" y="640.3905" style="stroke: #000000; stroke-width: 0.8"/>
      </g>
     </g>
     <g id="text_2">
      <!-- 2 -->
      <g transform="translate(212.940929 665.631125) scale(0.3 -0.3)">
       <defs>
        <path id="LiberationSans-32" d="M 322 0 
L 322 397 
Q 481 763 711 1042 
Q 941 1322 1194 1548 
Q 1447 1775 1695 1969 
Q 1944 2163 2144 2356 
Q 2344 2550 2467 2762 
Q 2591 2975 2591 3244 
Q 2591 3606 2378 3806 
Q 2166 4006 1788 4006 
Q 1428 4006 1195 3811 
Q 963 3616 922 3263 
L 347 3316 
Q 409 3844 795 4156 
Q 1181 4469 1788 4469 
Q 2453 4469 2811 4155 
Q 3169 3841 3169 3263 
Q 3169 3006 3051 2753 
Q 2934 2500 2703 2247 
Q 2472 1994 1819 1463 
Q 1459 1169 1246 933 
Q 1034 697 941 478 
L 3238 478 
L 3238 0 
L 322 0 
z
" transform="scale(0.015625)"/>
       </defs>
       <use xlink:href="#LiberationSans-32"/>
      </g>
     </g>
    </g>
    <g id="xtick_3">
     <g id="line2d_3">
      <g>
       <use xlink:href="#md8f1f331f6" x="334.755862" y="640.3905" style="stroke: #000000; stroke-width: 0.8"/>
      </g>
     </g>
     <g id="text_3">
      <!-- 4 -->
      <g transform="translate(326.414456 665.631125) scale(0.3 -0.3)">
       <defs>
        <path id="LiberationSans-34" d="M 2753 997 
L 2753 0 
L 2222 0 
L 2222 997 
L 147 997 
L 147 1434 
L 2163 4403 
L 2753 4403 
L 2753 1441 
L 3372 1441 
L 3372 997 
L 2753 997 
z
M 2222 3769 
Q 2216 3750 2134 3603 
Q 2053 3456 2013 3397 
L 884 1734 
L 716 1503 
L 666 1441 
L 2222 1441 
L 2222 3769 
z
" transform="scale(0.015625)"/>
       </defs>
       <use xlink:href="#LiberationSans-34"/>
      </g>
     </g>
    </g>
    <g id="xtick_4">
     <g id="line2d_4">
      <g>
       <use xlink:href="#md8f1f331f6" x="448.229389" y="640.3905" style="stroke: #000000; stroke-width: 0.8"/>
      </g>
     </g>
     <g id="text_4">
      <!-- 6 -->
      <g transform="translate(439.887983 665.631125) scale(0.3 -0.3)">
       <defs>
        <path id="LiberationSans-36" d="M 3278 1441 
Q 3278 744 2900 340 
Q 2522 -63 1856 -63 
Q 1113 -63 719 490 
Q 325 1044 325 2100 
Q 325 3244 734 3856 
Q 1144 4469 1900 4469 
Q 2897 4469 3156 3572 
L 2619 3475 
Q 2453 4013 1894 4013 
Q 1413 4013 1148 3564 
Q 884 3116 884 2266 
Q 1038 2550 1316 2698 
Q 1594 2847 1953 2847 
Q 2563 2847 2920 2465 
Q 3278 2084 3278 1441 
z
M 2706 1416 
Q 2706 1894 2472 2153 
Q 2238 2413 1819 2413 
Q 1425 2413 1183 2183 
Q 941 1953 941 1550 
Q 941 1041 1192 716 
Q 1444 391 1838 391 
Q 2244 391 2475 664 
Q 2706 938 2706 1416 
z
" transform="scale(0.015625)"/>
       </defs>
       <use xlink:href="#LiberationSans-36"/>
      </g>
     </g>
    </g>
    <g id="xtick_5">
     <g id="line2d_5">
      <g>
       <use xlink:href="#md8f1f331f6" x="561.702916" y="640.3905" style="stroke: #000000; stroke-width: 0.8"/>
      </g>
     </g>
     <g id="text_5">
      <!-- 8 -->
      <g transform="translate(553.36151 665.631125) scale(0.3 -0.3)">
       <defs>
        <path id="LiberationSans-38" d="M 3281 1228 
Q 3281 619 2893 278 
Q 2506 -63 1781 -63 
Q 1075 -63 676 271 
Q 278 606 278 1222 
Q 278 1653 525 1947 
Q 772 2241 1156 2303 
L 1156 2316 
Q 797 2400 589 2681 
Q 381 2963 381 3341 
Q 381 3844 757 4156 
Q 1134 4469 1769 4469 
Q 2419 4469 2795 4162 
Q 3172 3856 3172 3334 
Q 3172 2956 2962 2675 
Q 2753 2394 2391 2322 
L 2391 2309 
Q 2813 2241 3047 1952 
Q 3281 1663 3281 1228 
z
M 2588 3303 
Q 2588 4050 1769 4050 
Q 1372 4050 1164 3862 
Q 956 3675 956 3303 
Q 956 2925 1170 2726 
Q 1384 2528 1775 2528 
Q 2172 2528 2380 2711 
Q 2588 2894 2588 3303 
z
M 2697 1281 
Q 2697 1691 2453 1898 
Q 2209 2106 1769 2106 
Q 1341 2106 1100 1882 
Q 859 1659 859 1269 
Q 859 359 1788 359 
Q 2247 359 2472 579 
Q 2697 800 2697 1281 
z
" transform="scale(0.015625)"/>
       </defs>
       <use xlink:href="#LiberationSans-38"/>
      </g>
     </g>
    </g>
    <g id="xtick_6">
     <g id="line2d_6">
      <g>
       <use xlink:href="#md8f1f331f6" x="675.176443" y="640.3905" style="stroke: #000000; stroke-width: 0.8"/>
      </g>
     </g>
     <g id="text_6">
      <!-- 10 -->
      <g transform="translate(658.493631 665.631125) scale(0.3 -0.3)">
       <defs>
        <path id="LiberationSans-31" d="M 488 0 
L 488 478 
L 1609 478 
L 1609 3866 
L 616 3156 
L 616 3688 
L 1656 4403 
L 2175 4403 
L 2175 478 
L 3247 478 
L 3247 0 
L 488 0 
z
" transform="scale(0.015625)"/>
       </defs>
       <use xlink:href="#LiberationSans-31"/>
       <use xlink:href="#LiberationSans-30" x="55.615234"/>
      </g>
     </g>
    </g>
    <g id="xtick_7">
     <g id="line2d_7">
      <defs>
       <path id="m20f822f9b0" d="M 0 0 
L 0 -2 
" style="stroke: #000000; stroke-width: 0.6"/>
      </defs>
      <g>
       <use xlink:href="#m20f822f9b0" x="136.17719" y="640.3905" style="stroke: #000000; stroke-width: 0.6"/>
      </g>
     </g>
    </g>
    <g id="xtick_8">
     <g id="line2d_8">
      <g>
       <use xlink:href="#m20f822f9b0" x="164.545572" y="640.3905" style="stroke: #000000; stroke-width: 0.6"/>
      </g>
     </g>
    </g>
    <g id="xtick_9">
     <g id="line2d_9">
      <g>
       <use xlink:href="#m20f822f9b0" x="192.913953" y="640.3905" style="stroke: #000000; stroke-width: 0.6"/>
      </g>
     </g>
    </g>
    <g id="xtick_10">
     <g id="line2d_10">
      <g>
       <use xlink:href="#m20f822f9b0" x="249.650717" y="640.3905" style="stroke: #000000; stroke-width: 0.6"/>
      </g>
     </g>
    </g>
    <g id="xtick_11">
     <g id="line2d_11">
      <g>
       <use xlink:href="#m20f822f9b0" x="278.019099" y="640.3905" style="stroke: #000000; stroke-width: 0.6"/>
      </g>
     </g>
    </g>
    <g id="xtick_12">
     <g id="line2d_12">
      <g>
       <use xlink:href="#m20f822f9b0" x="306.38748" y="640.3905" style="stroke: #000000; stroke-width: 0.6"/>
      </g>
     </g>
    </g>
    <g id="xtick_13">
     <g id="line2d_13">
      <g>
       <use xlink:href="#m20f822f9b0" x="363.124244" y="640.3905" style="stroke: #000000; stroke-width: 0.6"/>
      </g>
     </g>
    </g>
    <g id="xtick_14">
     <g id="line2d_14">
      <g>
       <use xlink:href="#m20f822f9b0" x="391.492626" y="640.3905" style="stroke: #000000; stroke-width: 0.6"/>
      </g>
     </g>
    </g>
    <g id="xtick_15">
     <g id="line2d_15">
      <g>
       <use xlink:href="#m20f822f9b0" x="419.861008" y="640.3905" style="stroke: #000000; stroke-width: 0.6"/>
      </g>
     </g>
    </g>
    <g id="xtick_16">
     <g id="line2d_16">
      <g>
       <use xlink:href="#m20f822f9b0" x="476.597771" y="640.3905" style="stroke: #000000; stroke-width: 0.6"/>
      </g>
     </g>
    </g>
    <g id="xtick_17">
     <g id="line2d_17">
      <g>
       <use xlink:href="#m20f822f9b0" x="504.966153" y="640.3905" style="stroke: #000000; stroke-width: 0.6"/>
      </g>
     </g>
    </g>
    <g id="xtick_18">
     <g id="line2d_18">
      <g>
       <use xlink:href="#m20f822f9b0" x="533.334535" y="640.3905" style="stroke: #000000; stroke-width: 0.6"/>
      </g>
     </g>
    </g>
    <g id="xtick_19">
     <g id="line2d_19">
      <g>
       <use xlink:href="#m20f822f9b0" x="590.071298" y="640.3905" style="stroke: #000000; stroke-width: 0.6"/>
      </g>
     </g>
    </g>
    <g id="xtick_20">
     <g id="line2d_20">
      <g>
       <use xlink:href="#m20f822f9b0" x="618.43968" y="640.3905" style="stroke: #000000; stroke-width: 0.6"/>
      </g>
     </g>
    </g>
    <g id="xtick_21">
     <g id="line2d_21">
      <g>
       <use xlink:href="#m20f822f9b0" x="646.808062" y="640.3905" style="stroke: #000000; stroke-width: 0.6"/>
      </g>
     </g>
    </g>
    <g id="text_7">
     <!-- Time ps -->
     <g transform="translate(338.744432 697.59675) scale(0.3 -0.3)">
      <defs>
       <path id="LiberationSans-54" d="M 2250 3916 
L 2250 0 
L 1656 0 
L 1656 3916 
L 144 3916 
L 144 4403 
L 3763 4403 
L 3763 3916 
L 2250 3916 
z
" transform="scale(0.015625)"/>
       <path id="LiberationSans-69" d="M 428 4100 
L 428 4638 
L 991 4638 
L 991 4100 
L 428 4100 
z
M 428 0 
L 428 3381 
L 991 3381 
L 991 0 
L 428 0 
z
" transform="scale(0.015625)"/>
       <path id="LiberationSans-6d" d="M 2400 0 
L 2400 2144 
Q 2400 2634 2265 2821 
Q 2131 3009 1781 3009 
Q 1422 3009 1212 2734 
Q 1003 2459 1003 1959 
L 1003 0 
L 444 0 
L 444 2659 
Q 444 3250 425 3381 
L 956 3381 
Q 959 3366 962 3297 
Q 966 3228 970 3139 
Q 975 3050 981 2803 
L 991 2803 
Q 1172 3163 1406 3303 
Q 1641 3444 1978 3444 
Q 2363 3444 2586 3291 
Q 2809 3138 2897 2803 
L 2906 2803 
Q 3081 3144 3329 3294 
Q 3578 3444 3931 3444 
Q 4444 3444 4676 3166 
Q 4909 2888 4909 2253 
L 4909 0 
L 4353 0 
L 4353 2144 
Q 4353 2634 4218 2821 
Q 4084 3009 3734 3009 
Q 3366 3009 3161 2736 
Q 2956 2463 2956 1959 
L 2956 0 
L 2400 0 
z
" transform="scale(0.015625)"/>
       <path id="LiberationSans-65" d="M 863 1572 
Q 863 991 1103 675 
Q 1344 359 1806 359 
Q 2172 359 2392 506 
Q 2613 653 2691 878 
L 3184 738 
Q 2881 -63 1806 -63 
Q 1056 -63 664 384 
Q 272 831 272 1713 
Q 272 2550 664 2997 
Q 1056 3444 1784 3444 
Q 3275 3444 3275 1647 
L 3275 1572 
L 863 1572 
z
M 2694 2003 
Q 2647 2538 2422 2783 
Q 2197 3028 1775 3028 
Q 1366 3028 1127 2754 
Q 888 2481 869 2003 
L 2694 2003 
z
" transform="scale(0.015625)"/>
       <path id="LiberationSans-20" transform="scale(0.015625)"/>
       <path id="LiberationSans-70" d="M 3291 1706 
Q 3291 -63 2047 -63 
Q 1266 -63 997 525 
L 981 525 
Q 994 500 994 -6 
L 994 -1328 
L 431 -1328 
L 431 2691 
Q 431 3213 413 3381 
L 956 3381 
Q 959 3369 965 3292 
Q 972 3216 980 3056 
Q 988 2897 988 2838 
L 1000 2838 
Q 1150 3150 1397 3295 
Q 1644 3441 2047 3441 
Q 2672 3441 2981 3022 
Q 3291 2603 3291 1706 
z
M 2700 1694 
Q 2700 2400 2509 2703 
Q 2319 3006 1903 3006 
Q 1569 3006 1380 2865 
Q 1191 2725 1092 2426 
Q 994 2128 994 1650 
Q 994 984 1206 668 
Q 1419 353 1897 353 
Q 2316 353 2508 661 
Q 2700 969 2700 1694 
z
" transform="scale(0.015625)"/>
       <path id="LiberationSans-73" d="M 2969 934 
Q 2969 456 2608 196 
Q 2247 -63 1597 -63 
Q 966 -63 623 145 
Q 281 353 178 794 
L 675 891 
Q 747 619 972 492 
Q 1197 366 1597 366 
Q 2025 366 2223 497 
Q 2422 628 2422 891 
Q 2422 1091 2284 1216 
Q 2147 1341 1841 1422 
L 1438 1528 
Q 953 1653 748 1773 
Q 544 1894 428 2066 
Q 313 2238 313 2488 
Q 313 2950 642 3192 
Q 972 3434 1603 3434 
Q 2163 3434 2492 3237 
Q 2822 3041 2909 2606 
L 2403 2544 
Q 2356 2769 2151 2889 
Q 1947 3009 1603 3009 
Q 1222 3009 1040 2893 
Q 859 2778 859 2544 
Q 859 2400 934 2306 
Q 1009 2213 1156 2147 
Q 1303 2081 1775 1966 
Q 2222 1853 2419 1758 
Q 2616 1663 2730 1547 
Q 2844 1431 2906 1279 
Q 2969 1128 2969 934 
z
" transform="scale(0.015625)"/>
      </defs>
      <use xlink:href="#LiberationSans-54"/>
      <use xlink:href="#LiberationSans-69" x="57.333984"/>
      <use xlink:href="#LiberationSans-6d" x="79.550781"/>
      <use xlink:href="#LiberationSans-65" x="162.851562"/>
      <use xlink:href="#LiberationSans-20" x="218.466797"/>
      <use xlink:href="#LiberationSans-70" x="246.25"/>
      <use xlink:href="#LiberationSans-73" x="301.865234"/>
     </g>
    </g>
   </g>
   <g id="matplotlib.axis_2">
    <g id="ytick_1">
     <g id="line2d_22">
      <defs>
       <path id="m763a0b637b" d="M 0 0 
L 3.5 0 
" style="stroke: #000000; stroke-width: 0.8"/>
      </defs>
      <g>
       <use xlink:href="#m763a0b637b" x="79.5" y="625.650818" style="stroke: #000000; stroke-width: 0.8"/>
      </g>
     </g>
     <g id="text_8">
      <!-- $\mathdefault{−2}$ -->
      <g transform="translate(41.5 636.52113) scale(0.3 -0.3)">
       <defs>
        <path id="LiberationSans-2212" d="M 316 1900 
L 316 2356 
L 3425 2356 
L 3425 1900 
L 316 1900 
z
" transform="scale(0.015625)"/>
       </defs>
       <use xlink:href="#LiberationSans-2212" transform="translate(0 0.171875)"/>
       <use xlink:href="#LiberationSans-32" transform="translate(58.398438 0.171875)"/>
      </g>
     </g>
    </g>
    <g id="ytick_2">
     <g id="line2d_23">
      <g>
       <use xlink:href="#m763a0b637b" x="79.5" y="552.84703" style="stroke: #000000; stroke-width: 0.8"/>
      </g>
     </g>
     <g id="text_9">
      <!-- $\mathdefault{−1}$ -->
      <g transform="translate(41.5 563.717342) scale(0.3 -0.3)">
       <use xlink:href="#LiberationSans-2212" transform="translate(0 0.203125)"/>
       <use xlink:href="#LiberationSans-31" transform="translate(58.398438 0.203125)"/>
      </g>
     </g>
    </g>
    <g id="ytick_3">
     <g id="line2d_24">
      <g>
       <use xlink:href="#m763a0b637b" x="79.5" y="480.043242" style="stroke: #000000; stroke-width: 0.8"/>
      </g>
     </g>
     <g id="text_10">
      <!-- $\mathdefault{0}$ -->
      <g transform="translate(59.2 490.913555) scale(0.3 -0.3)">
       <use xlink:href="#LiberationSans-30" transform="translate(0 0.171875)"/>
      </g>
     </g>
    </g>
    <g id="ytick_4">
     <g id="line2d_25">
      <g>
       <use xlink:href="#m763a0b637b" x="79.5" y="407.239454" style="stroke: #000000; stroke-width: 0.8"/>
      </g>
     </g>
     <g id="text_11">
      <!-- $\mathdefault{1}$ -->
      <g transform="translate(59.2 418.109767) scale(0.3 -0.3)">
       <use xlink:href="#LiberationSans-31" transform="translate(0 0.203125)"/>
      </g>
     </g>
    </g>
    <g id="ytick_5">
     <g id="line2d_26">
      <g>
       <use xlink:href="#m763a0b637b" x="79.5" y="334.435666" style="stroke: #000000; stroke-width: 0.8"/>
      </g>
     </g>
     <g id="text_12">
      <!-- $\mathdefault{2}$ -->
      <g transform="translate(59.2 345.305979) scale(0.3 -0.3)">
       <use xlink:href="#LiberationSans-32" transform="translate(0 0.171875)"/>
      </g>
     </g>
    </g>
    <g id="ytick_6">
     <g id="line2d_27">
      <g>
       <use xlink:href="#m763a0b637b" x="79.5" y="261.631878" style="stroke: #000000; stroke-width: 0.8"/>
      </g>
     </g>
     <g id="text_13">
      <!-- $\mathdefault{3}$ -->
      <g transform="translate(59.2 272.502191) scale(0.3 -0.3)">
       <defs>
        <path id="LiberationSans-33" d="M 3278 1216 
Q 3278 606 2890 271 
Q 2503 -63 1784 -63 
Q 1116 -63 717 239 
Q 319 541 244 1131 
L 825 1184 
Q 938 403 1784 403 
Q 2209 403 2451 612 
Q 2694 822 2694 1234 
Q 2694 1594 2417 1795 
Q 2141 1997 1619 1997 
L 1300 1997 
L 1300 2484 
L 1606 2484 
Q 2069 2484 2323 2686 
Q 2578 2888 2578 3244 
Q 2578 3597 2370 3801 
Q 2163 4006 1753 4006 
Q 1381 4006 1151 3815 
Q 922 3625 884 3278 
L 319 3322 
Q 381 3863 767 4166 
Q 1153 4469 1759 4469 
Q 2422 4469 2789 4161 
Q 3156 3853 3156 3303 
Q 3156 2881 2920 2617 
Q 2684 2353 2234 2259 
L 2234 2247 
Q 2728 2194 3003 1916 
Q 3278 1638 3278 1216 
z
" transform="scale(0.015625)"/>
       </defs>
       <use xlink:href="#LiberationSans-33" transform="translate(0 0.171875)"/>
      </g>
     </g>
    </g>
    <g id="ytick_7">
     <g id="line2d_28">
      <g>
       <use xlink:href="#m763a0b637b" x="79.5" y="188.82809" style="stroke: #000000; stroke-width: 0.8"/>
      </g>
     </g>
     <g id="text_14">
      <!-- $\mathdefault{4}$ -->
      <g transform="translate(59.2 199.698403) scale(0.3 -0.3)">
       <use xlink:href="#LiberationSans-34" transform="translate(0 0.203125)"/>
      </g>
     </g>
    </g>
    <g id="ytick_8">
     <g id="line2d_29">
      <g>
       <use xlink:href="#m763a0b637b" x="79.5" y="116.024302" style="stroke: #000000; stroke-width: 0.8"/>
      </g>
     </g>
     <g id="text_15">
      <!-- $\mathdefault{5}$ -->
      <g transform="translate(59.2 126.894615) scale(0.3 -0.3)">
       <defs>
        <path id="LiberationSans-35" d="M 3291 1434 
Q 3291 738 2877 337 
Q 2463 -63 1728 -63 
Q 1113 -63 734 206 
Q 356 475 256 984 
L 825 1050 
Q 1003 397 1741 397 
Q 2194 397 2450 670 
Q 2706 944 2706 1422 
Q 2706 1838 2448 2094 
Q 2191 2350 1753 2350 
Q 1525 2350 1328 2278 
Q 1131 2206 934 2034 
L 384 2034 
L 531 4403 
L 3034 4403 
L 3034 3925 
L 1044 3925 
L 959 2528 
Q 1325 2809 1869 2809 
Q 2519 2809 2905 2428 
Q 3291 2047 3291 1434 
z
" transform="scale(0.015625)"/>
       </defs>
       <use xlink:href="#LiberationSans-35" transform="translate(0 0.203125)"/>
      </g>
     </g>
    </g>
    <g id="ytick_9">
     <g id="line2d_30">
      <g>
       <use xlink:href="#m763a0b637b" x="79.5" y="43.220515" style="stroke: #000000; stroke-width: 0.8"/>
      </g>
     </g>
     <g id="text_16">
      <!-- $\mathdefault{6}$ -->
      <g transform="translate(59.2 54.090827) scale(0.3 -0.3)">
       <use xlink:href="#LiberationSans-36" transform="translate(0 0.171875)"/>
      </g>
     </g>
    </g>
    <g id="ytick_10">
     <g id="line2d_31">
      <defs>
       <path id="m37d007ddea" d="M 0 0 
L 2 0 
" style="stroke: #000000; stroke-width: 0.6"/>
      </defs>
      <g>
       <use xlink:href="#m37d007ddea" x="79.5" y="640.211575" style="stroke: #000000; stroke-width: 0.6"/>
      </g>
     </g>
    </g>
    <g id="ytick_11">
     <g id="line2d_32">
      <g>
       <use xlink:href="#m37d007ddea" x="79.5" y="611.09006" style="stroke: #000000; stroke-width: 0.6"/>
      </g>
     </g>
    </g>
    <g id="ytick_12">
     <g id="line2d_33">
      <g>
       <use xlink:href="#m37d007ddea" x="79.5" y="596.529303" style="stroke: #000000; stroke-width: 0.6"/>
      </g>
     </g>
    </g>
    <g id="ytick_13">
     <g id="line2d_34">
      <g>
       <use xlink:href="#m37d007ddea" x="79.5" y="581.968545" style="stroke: #000000; stroke-width: 0.6"/>
      </g>
     </g>
    </g>
    <g id="ytick_14">
     <g id="line2d_35">
      <g>
       <use xlink:href="#m37d007ddea" x="79.5" y="567.407788" style="stroke: #000000; stroke-width: 0.6"/>
      </g>
     </g>
    </g>
    <g id="ytick_15">
     <g id="line2d_36">
      <g>
       <use xlink:href="#m37d007ddea" x="79.5" y="538.286272" style="stroke: #000000; stroke-width: 0.6"/>
      </g>
     </g>
    </g>
    <g id="ytick_16">
     <g id="line2d_37">
      <g>
       <use xlink:href="#m37d007ddea" x="79.5" y="523.725515" style="stroke: #000000; stroke-width: 0.6"/>
      </g>
     </g>
    </g>
    <g id="ytick_17">
     <g id="line2d_38">
      <g>
       <use xlink:href="#m37d007ddea" x="79.5" y="509.164757" style="stroke: #000000; stroke-width: 0.6"/>
      </g>
     </g>
    </g>
    <g id="ytick_18">
     <g id="line2d_39">
      <g>
       <use xlink:href="#m37d007ddea" x="79.5" y="494.604" style="stroke: #000000; stroke-width: 0.6"/>
      </g>
     </g>
    </g>
    <g id="ytick_19">
     <g id="line2d_40">
      <g>
       <use xlink:href="#m37d007ddea" x="79.5" y="465.482484" style="stroke: #000000; stroke-width: 0.6"/>
      </g>
     </g>
    </g>
    <g id="ytick_20">
     <g id="line2d_41">
      <g>
       <use xlink:href="#m37d007ddea" x="79.5" y="450.921727" style="stroke: #000000; stroke-width: 0.6"/>
      </g>
     </g>
    </g>
    <g id="ytick_21">
     <g id="line2d_42">
      <g>
       <use xlink:href="#m37d007ddea" x="79.5" y="436.360969" style="stroke: #000000; stroke-width: 0.6"/>
      </g>
     </g>
    </g>
    <g id="ytick_22">
     <g id="line2d_43">
      <g>
       <use xlink:href="#m37d007ddea" x="79.5" y="421.800212" style="stroke: #000000; stroke-width: 0.6"/>
      </g>
     </g>
    </g>
    <g id="ytick_23">
     <g id="line2d_44">
      <g>
       <use xlink:href="#m37d007ddea" x="79.5" y="392.678697" style="stroke: #000000; stroke-width: 0.6"/>
      </g>
     </g>
    </g>
    <g id="ytick_24">
     <g id="line2d_45">
      <g>
       <use xlink:href="#m37d007ddea" x="79.5" y="378.117939" style="stroke: #000000; stroke-width: 0.6"/>
      </g>
     </g>
    </g>
    <g id="ytick_25">
     <g id="line2d_46">
      <g>
       <use xlink:href="#m37d007ddea" x="79.5" y="363.557181" style="stroke: #000000; stroke-width: 0.6"/>
      </g>
     </g>
    </g>
    <g id="ytick_26">
     <g id="line2d_47">
      <g>
       <use xlink:href="#m37d007ddea" x="79.5" y="348.996424" style="stroke: #000000; stroke-width: 0.6"/>
      </g>
     </g>
    </g>
    <g id="ytick_27">
     <g id="line2d_48">
      <g>
       <use xlink:href="#m37d007ddea" x="79.5" y="319.874909" style="stroke: #000000; stroke-width: 0.6"/>
      </g>
     </g>
    </g>
    <g id="ytick_28">
     <g id="line2d_49">
      <g>
       <use xlink:href="#m37d007ddea" x="79.5" y="305.314151" style="stroke: #000000; stroke-width: 0.6"/>
      </g>
     </g>
    </g>
    <g id="ytick_29">
     <g id="line2d_50">
      <g>
       <use xlink:href="#m37d007ddea" x="79.5" y="290.753393" style="stroke: #000000; stroke-width: 0.6"/>
      </g>
     </g>
    </g>
    <g id="ytick_30">
     <g id="line2d_51">
      <g>
       <use xlink:href="#m37d007ddea" x="79.5" y="276.192636" style="stroke: #000000; stroke-width: 0.6"/>
      </g>
     </g>
    </g>
    <g id="ytick_31">
     <g id="line2d_52">
      <g>
       <use xlink:href="#m37d007ddea" x="79.5" y="247.071121" style="stroke: #000000; stroke-width: 0.6"/>
      </g>
     </g>
    </g>
    <g id="ytick_32">
     <g id="line2d_53">
      <g>
       <use xlink:href="#m37d007ddea" x="79.5" y="232.510363" style="stroke: #000000; stroke-width: 0.6"/>
      </g>
     </g>
    </g>
    <g id="ytick_33">
     <g id="line2d_54">
      <g>
       <use xlink:href="#m37d007ddea" x="79.5" y="217.949606" style="stroke: #000000; stroke-width: 0.6"/>
      </g>
     </g>
    </g>
    <g id="ytick_34">
     <g id="line2d_55">
      <g>
       <use xlink:href="#m37d007ddea" x="79.5" y="203.388848" style="stroke: #000000; stroke-width: 0.6"/>
      </g>
     </g>
    </g>
    <g id="ytick_35">
     <g id="line2d_56">
      <g>
       <use xlink:href="#m37d007ddea" x="79.5" y="174.267333" style="stroke: #000000; stroke-width: 0.6"/>
      </g>
     </g>
    </g>
    <g id="ytick_36">
     <g id="line2d_57">
      <g>
       <use xlink:href="#m37d007ddea" x="79.5" y="159.706575" style="stroke: #000000; stroke-width: 0.6"/>
      </g>
     </g>
    </g>
    <g id="ytick_37">
     <g id="line2d_58">
      <g>
       <use xlink:href="#m37d007ddea" x="79.5" y="145.145818" style="stroke: #000000; stroke-width: 0.6"/>
      </g>
     </g>
    </g>
    <g id="ytick_38">
     <g id="line2d_59">
      <g>
       <use xlink:href="#m37d007ddea" x="79.5" y="130.58506" style="stroke: #000000; stroke-width: 0.6"/>
      </g>
     </g>
    </g>
    <g id="ytick_39">
     <g id="line2d_60">
      <g>
       <use xlink:href="#m37d007ddea" x="79.5" y="101.463545" style="stroke: #000000; stroke-width: 0.6"/>
      </g>
     </g>
    </g>
    <g id="ytick_40">
     <g id="line2d_61">
      <g>
       <use xlink:href="#m37d007ddea" x="79.5" y="86.902787" style="stroke: #000000; stroke-width: 0.6"/>
      </g>
     </g>
    </g>
    <g id="ytick_41">
     <g id="line2d_62">
      <g>
       <use xlink:href="#m37d007ddea" x="79.5" y="72.34203" style="stroke: #000000; stroke-width: 0.6"/>
      </g>
     </g>
    </g>
    <g id="ytick_42">
     <g id="line2d_63">
      <g>
       <use xlink:href="#m37d007ddea" x="79.5" y="57.781272" style="stroke: #000000; stroke-width: 0.6"/>
      </g>
     </g>
    </g>
    <g id="text_17">
     <!-- ACF $(\mathrm{W} / \mathrm{m}^2)^2$ -->
     <g transform="translate(31.275 426.339) rotate(-90) scale(0.3 -0.3)">
      <defs>
       <path id="LiberationSans-41" d="M 3647 0 
L 3144 1288 
L 1138 1288 
L 631 0 
L 13 0 
L 1809 4403 
L 2488 4403 
L 4256 0 
L 3647 0 
z
M 2141 3953 
L 2113 3866 
Q 2034 3606 1881 3200 
L 1319 1753 
L 2966 1753 
L 2400 3206 
Q 2313 3422 2225 3694 
L 2141 3953 
z
" transform="scale(0.015625)"/>
       <path id="LiberationSans-43" d="M 2475 3981 
Q 1744 3981 1337 3511 
Q 931 3041 931 2222 
Q 931 1413 1354 920 
Q 1778 428 2500 428 
Q 3425 428 3891 1344 
L 4378 1100 
Q 4106 531 3614 234 
Q 3122 -63 2472 -63 
Q 1806 -63 1320 214 
Q 834 491 579 1005 
Q 325 1519 325 2222 
Q 325 3275 894 3872 
Q 1463 4469 2469 4469 
Q 3172 4469 3644 4194 
Q 4116 3919 4338 3378 
L 3772 3191 
Q 3619 3575 3280 3778 
Q 2941 3981 2475 3981 
z
" transform="scale(0.015625)"/>
       <path id="LiberationSans-46" d="M 1122 3916 
L 1122 2278 
L 3578 2278 
L 3578 1784 
L 1122 1784 
L 1122 0 
L 525 0 
L 525 4403 
L 3653 4403 
L 3653 3916 
L 1122 3916 
z
" transform="scale(0.015625)"/>
       <path id="STIXGeneral-Regular-28" d="M 1946 -1030 
L 1869 -1133 
Q 1126 -710 716 32 
Q 307 774 307 1613 
Q 307 3386 1888 4326 
L 1946 4224 
Q 1293 3667 1075 3126 
Q 858 2586 858 1632 
Q 858 685 1082 96 
Q 1306 -493 1946 -1030 
z
" transform="scale(0.015625)"/>
       <path id="STIXGeneral-Regular-57" d="M 5965 4237 
L 5965 4115 
Q 5709 4064 5616 3990 
Q 5523 3917 5434 3667 
Q 4704 1709 4128 -70 
L 4032 -70 
Q 3642 1011 3008 2637 
L 2022 -70 
L 1926 -70 
Q 1709 576 1277 1753 
Q 845 2931 698 3347 
Q 538 3808 406 3958 
Q 275 4109 32 4115 
L 32 4237 
L 1594 4237 
L 1594 4115 
Q 1357 4109 1270 4064 
Q 1184 4019 1184 3917 
Q 1184 3808 1254 3616 
L 2176 1210 
L 2842 3021 
L 2662 3501 
Q 2509 3917 2400 4013 
Q 2291 4109 2010 4115 
L 2010 4237 
L 3706 4237 
L 3706 4115 
Q 3213 4102 3213 3891 
Q 3213 3808 3322 3520 
L 4237 1190 
L 5043 3360 
Q 5152 3667 5152 3853 
Q 5152 4109 4704 4115 
L 4704 4237 
L 5965 4237 
z
" transform="scale(0.015625)"/>
       <path id="STIXGeneral-Regular-2f" d="M 1837 4326 
L 378 -90 
L -58 -90 
L 1408 4326 
L 1837 4326 
z
" transform="scale(0.015625)"/>
       <path id="STIXGeneral-Regular-6d" d="M 4960 0 
L 3565 0 
L 3565 96 
Q 3834 122 3907 208 
Q 3981 294 3981 576 
L 3981 1894 
Q 3981 2278 3869 2444 
Q 3757 2611 3488 2611 
Q 3264 2611 3107 2521 
Q 2950 2432 2803 2221 
L 2803 608 
Q 2803 301 2896 201 
Q 2989 102 3264 96 
L 3264 0 
L 1830 0 
L 1830 96 
Q 2112 115 2189 188 
Q 2266 262 2266 550 
L 2266 1901 
Q 2266 2611 1850 2611 
Q 1670 2611 1468 2531 
Q 1267 2451 1171 2336 
Q 1088 2240 1088 2227 
L 1088 448 
Q 1088 243 1177 176 
Q 1267 109 1523 96 
L 1523 0 
L 102 0 
L 102 96 
Q 371 102 460 195 
Q 550 288 550 563 
L 550 2150 
Q 550 2387 499 2480 
Q 448 2573 326 2573 
Q 230 2573 122 2547 
L 122 2656 
Q 557 2778 1011 2944 
L 1062 2925 
L 1062 2451 
L 1075 2451 
Q 1363 2752 1584 2848 
Q 1805 2944 2054 2944 
Q 2560 2944 2733 2406 
Q 3232 2944 3776 2944 
Q 4518 2944 4518 1792 
L 4518 493 
Q 4518 282 4582 202 
Q 4646 122 4794 109 
L 4960 96 
L 4960 0 
z
" transform="scale(0.015625)"/>
       <path id="STIXGeneral-Regular-32" d="M 3034 877 
L 2688 0 
L 186 0 
L 186 77 
L 1325 1286 
Q 1773 1754 1965 2144 
Q 2157 2534 2157 2950 
Q 2157 3379 1920 3616 
Q 1683 3853 1267 3853 
Q 922 3853 720 3673 
Q 518 3494 326 3021 
L 192 3053 
Q 301 3648 630 3987 
Q 960 4326 1523 4326 
Q 2054 4326 2380 4006 
Q 2707 3686 2707 3200 
Q 2707 2477 1888 1613 
L 832 486 
L 2330 486 
Q 2541 486 2665 569 
Q 2790 653 2944 915 
L 3034 877 
z
" transform="scale(0.015625)"/>
       <path id="STIXGeneral-Regular-29" d="M 186 4224 
L 262 4326 
Q 992 3891 1408 3148 
Q 1824 2406 1824 1581 
Q 1824 -166 243 -1133 
L 186 -1030 
Q 845 -486 1059 54 
Q 1274 595 1274 1562 
Q 1274 2534 1059 3120 
Q 845 3706 186 4224 
z
" transform="scale(0.015625)"/>
      </defs>
      <use xlink:href="#LiberationSans-41" transform="translate(0 0.409375)"/>
      <use xlink:href="#LiberationSans-43" transform="translate(66.699219 0.409375)"/>
      <use xlink:href="#LiberationSans-46" transform="translate(138.916016 0.409375)"/>
      <use xlink:href="#LiberationSans-20" transform="translate(200 0.409375)"/>
      <use xlink:href="#STIXGeneral-Regular-28" transform="translate(227.783203 0.409375)"/>
      <use xlink:href="#STIXGeneral-Regular-57" transform="translate(261.083191 0.409375)"/>
      <use xlink:href="#STIXGeneral-Regular-2f" transform="translate(355.483185 0.409375)"/>
      <use xlink:href="#STIXGeneral-Regular-6d" transform="translate(383.283173 0.409375)"/>
      <use xlink:href="#STIXGeneral-Regular-32" transform="translate(462.626442 35.684375) scale(0.7)"/>
      <use xlink:href="#STIXGeneral-Regular-29" transform="translate(502.035806 0.409375)"/>
      <use xlink:href="#STIXGeneral-Regular-32" transform="translate(536.879075 35.684375) scale(0.7)"/>
     </g>
    </g>
    <g id="text_18">
     <!-- $\times\mathdefault{10^{18}}\mathdefault{}$ -->
     <g transform="translate(79.5 36.1875) scale(0.4 -0.4)">
      <defs>
       <path id="STIXGeneral-Regular-d7" d="M 3821 141 
L 3526 -160 
L 2048 1312 
L 570 -160 
L 275 134 
L 1747 1613 
L 275 3091 
L 576 3386 
L 2048 1914 
L 3526 3386 
L 3821 3098 
L 2349 1613 
L 3821 141 
z
" transform="scale(0.015625)"/>
      </defs>
      <use xlink:href="#STIXGeneral-Regular-d7" transform="translate(0 0.140625)"/>
      <use xlink:href="#LiberationSans-31" transform="translate(63.999985 0.140625)"/>
      <use xlink:href="#LiberationSans-30" transform="translate(119.615219 0.140625)"/>
      <use xlink:href="#LiberationSans-31" transform="translate(176.154946 37.120312) scale(0.7)"/>
      <use xlink:href="#LiberationSans-38" transform="translate(215.08561 37.120312) scale(0.7)"/>
     </g>
    </g>
   </g>
   <g id="line2d_64">
    <path d="M 107.865545 66.514909 
L 108.376176 89.632763 
L 108.773333 126.87881 
L 109.397438 210.420064 
L 111.610171 529.943918 
L 112.177539 575.814112 
L 112.68817 600.518252 
L 113.085327 610.225044 
L 113.369011 612.862533 
L 113.482485 613.063091 
L 113.595958 612.838654 
L 113.766168 611.795502 
L 114.049852 608.380747 
L 114.503746 599.903294 
L 115.354798 578.80874 
L 119.042687 482.612703 
L 119.893739 466.374711 
L 120.57458 457.378419 
L 121.085211 453.358725 
L 121.482368 451.889512 
L 121.709315 451.652125 
L 121.879526 451.705822 
L 122.106473 452.081946 
L 122.446893 453.164344 
L 122.900787 455.428237 
L 123.524892 459.728551 
L 125.964572 478.937953 
L 126.70215 482.718745 
L 127.326255 484.836888 
L 128.234043 487.071978 
L 128.914884 488.431408 
L 129.482252 489.319302 
L 130.049619 489.964696 
L 130.616987 490.264235 
L 131.070881 490.114823 
L 131.638249 489.476484 
L 132.375827 488.316252 
L 133.056668 486.6916 
L 133.737509 484.420732 
L 135.155928 478.837531 
L 136.574347 473.440325 
L 137.311925 471.624629 
L 137.765819 471.0254 
L 138.219713 470.853223 
L 138.560134 471.048576 
L 139.014028 471.793213 
L 139.581396 473.437761 
L 140.318974 476.560197 
L 141.680656 483.376468 
L 142.361497 486.103841 
L 142.872128 487.330387 
L 143.382759 487.933634 
L 143.779916 488.07583 
L 144.347284 487.869788 
L 144.801178 487.463142 
L 145.538756 486.391073 
L 146.049387 485.213305 
L 146.673491 483.224652 
L 147.524543 479.692749 
L 149.340119 471.588744 
L 149.907487 469.991022 
L 150.361381 469.274855 
L 150.701801 469.070382 
L 150.928748 469.13797 
L 151.212432 469.461794 
L 151.552853 470.154966 
L 152.006747 471.536126 
L 152.630851 474.186765 
L 154.957059 485.020743 
L 155.46769 486.1482 
L 155.864847 486.536661 
L 156.205267 486.573596 
L 156.545688 486.344663 
L 156.942845 485.76493 
L 157.56695 484.360177 
L 158.588212 481.428987 
L 159.779684 478.122465 
L 160.290314 477.272916 
L 160.744209 476.881074 
L 161.254839 476.694612 
L 161.76547 476.629037 
L 162.332838 476.737162 
L 164.148414 477.432847 
L 164.829255 477.993083 
L 165.510097 478.783493 
L 167.38241 481.127901 
L 168.063251 481.571957 
L 168.687355 481.72041 
L 169.424933 481.639069 
L 170.275985 481.29857 
L 173.056086 480.012681 
L 174.020611 479.932091 
L 175.949661 479.880134 
L 176.857449 479.553028 
L 178.899973 478.604644 
L 179.694288 478.494788 
L 180.431865 478.611943 
L 181.22618 478.978101 
L 184.063018 480.49497 
L 184.857333 480.566553 
L 185.708384 480.404254 
L 186.672909 479.969572 
L 188.091329 479.343877 
L 188.828906 479.286565 
L 189.906905 479.503278 
L 191.04164 479.693599 
L 195.807528 480.003234 
L 197.055737 479.791643 
L 198.474156 479.576416 
L 199.495418 479.604932 
L 200.913837 479.899518 
L 203.126571 480.507131 
L 203.977622 480.423199 
L 205.055621 480.049843 
L 206.587513 479.523306 
L 207.722249 479.383686 
L 208.856984 479.518625 
L 212.771821 480.362576 
L 214.36045 480.946284 
L 215.438449 481.304799 
L 216.2895 481.390263 
L 216.970341 481.240747 
L 217.651182 480.841444 
L 218.332023 480.165485 
L 219.580232 478.473008 
L 220.431284 477.453698 
L 220.941915 477.127868 
L 221.395809 477.103058 
L 221.849703 477.34087 
L 222.41707 477.917226 
L 224.913488 480.899648 
L 225.594329 481.211719 
L 226.331907 481.265537 
L 227.012748 481.103988 
L 227.977273 480.607681 
L 230.757375 479.084889 
L 231.494953 479.079051 
L 232.629688 479.347142 
L 234.388528 479.775863 
L 236.374314 480.01123 
L 237.565786 480.200758 
L 239.77852 480.655044 
L 240.686308 480.533692 
L 242.104727 480.083814 
L 243.977041 479.512242 
L 244.828092 479.502781 
L 245.906091 479.750127 
L 247.154299 480.010672 
L 248.175561 479.975096 
L 251.806714 479.562232 
L 254.757026 479.568328 
L 256.005234 479.985759 
L 257.31018 480.292045 
L 258.388179 480.29505 
L 259.693124 480.080863 
L 261.451964 479.464316 
L 262.586699 479.189058 
L 263.551224 479.158367 
L 264.459012 479.322209 
L 265.934168 479.911213 
L 267.352587 480.440528 
L 268.657533 480.735719 
L 272.288686 481.104315 
L 273.196474 480.843643 
L 273.934052 480.408821 
L 274.728366 479.693287 
L 275.692891 478.460212 
L 277.111311 476.656152 
L 277.621941 476.338445 
L 278.075835 476.321398 
L 278.813413 476.954079 
L 279.550991 478.055986 
L 281.480041 481.125847 
L 282.104146 481.691368 
L 282.671513 481.932593 
L 283.238881 481.919084 
L 283.862985 481.647137 
L 284.770774 480.924721 
L 286.529613 479.446569 
L 287.210454 479.194332 
L 287.834559 479.199487 
L 288.68561 479.464316 
L 290.104029 479.932476 
L 290.955081 479.929075 
L 292.033079 479.692132 
L 293.508235 479.403894 
L 294.416023 479.475913 
L 296.855704 479.870057 
L 298.047176 479.734912 
L 299.635806 479.622169 
L 300.600331 479.781334 
L 301.508119 480.127429 
L 303.493906 480.950162 
L 304.11801 480.949254 
L 304.855588 480.710562 
L 306.04706 480.06166 
L 307.352005 479.49172 
L 309.110845 479.154787 
L 311.437052 478.881984 
L 312.515051 479.102195 
L 313.93347 479.631723 
L 316.373151 480.653616 
L 317.224202 480.735165 
L 318.018517 480.625469 
L 319.153252 480.240373 
L 320.571671 479.764111 
L 321.933354 479.536867 
L 324.373035 479.350341 
L 325.451033 479.47673 
L 326.358821 479.821274 
L 329.252396 481.147253 
L 329.933237 481.112683 
L 330.727552 480.859515 
L 331.63534 480.321422 
L 332.883549 479.218708 
L 334.075021 478.229008 
L 334.699125 477.986431 
L 335.266493 478.021904 
L 335.833861 478.278242 
L 336.628175 478.877089 
L 338.557225 480.395149 
L 339.805434 480.976065 
L 340.599749 481.125458 
L 341.507537 481.053652 
L 342.415325 480.718014 
L 345.252163 479.403904 
L 346.216688 479.356162 
L 347.578371 479.569595 
L 350.018052 479.996837 
L 351.09605 479.884863 
L 353.989625 479.478455 
L 355.748465 479.640438 
L 356.769726 479.632148 
L 357.677515 479.420191 
L 359.039197 479.083756 
L 359.890248 479.125578 
L 361.024984 479.443234 
L 362.386666 480.049664 
L 364.712873 481.128374 
L 365.450451 481.187813 
L 366.131292 481.015327 
L 366.925607 480.585402 
L 369.138341 479.289305 
L 370.273076 478.952659 
L 371.237601 478.87121 
L 372.145389 479.013498 
L 373.393598 479.477816 
L 375.265911 480.191837 
L 376.627594 480.433722 
L 377.535382 480.405656 
L 378.556644 480.168501 
L 381.280008 479.442908 
L 382.13106 479.464272 
L 382.811901 479.645577 
L 383.606216 480.065225 
L 385.535266 481.157157 
L 386.272844 481.29659 
L 386.896948 481.19037 
L 387.521052 480.858372 
L 388.201893 480.248722 
L 389.109682 479.08965 
L 390.528101 477.277212 
L 391.095468 476.896235 
L 391.549363 476.809336 
L 392.28694 477.244776 
L 392.967782 478.054896 
L 394.840095 480.506774 
L 395.520936 481.044613 
L 396.258514 481.34957 
L 396.996092 481.401146 
L 397.790407 481.212749 
L 398.754931 480.747078 
L 400.854192 479.640957 
L 402.045664 479.330846 
L 404.371871 478.927209 
L 405.222923 479.00242 
L 406.017237 479.286904 
L 406.981762 479.888224 
L 409.137759 481.392471 
L 409.8186 481.56072 
L 410.442705 481.517502 
L 411.237019 481.233209 
L 412.428491 480.554343 
L 414.811436 479.116367 
L 415.60575 478.968432 
L 416.456802 479.063733 
L 421.22269 480.089281 
L 422.414162 480.108892 
L 423.946054 479.863632 
L 425.08079 479.786484 
L 426.499209 479.701208 
L 429.846678 479.231254 
L 431.548781 479.40369 
L 434.101935 479.725725 
L 438.584139 479.936583 
L 440.059295 480.376964 
L 443.406764 481.713489 
L 444.030869 481.611503 
L 444.654973 481.283581 
L 445.279078 480.711455 
L 446.186866 479.511114 
L 447.775495 477.324364 
L 448.342863 476.969572 
L 448.796757 476.951672 
L 449.307388 477.190567 
L 449.931492 477.749225 
L 451.066227 479.117387 
L 452.484647 480.749941 
L 453.335698 481.409063 
L 454.016539 481.671794 
L 454.640644 481.688528 
L 455.378221 481.467165 
L 456.28601 480.915423 
L 457.704429 480.006425 
L 458.612217 479.664264 
L 460.938424 479.139279 
L 462.867474 478.810788 
L 463.888736 478.932378 
L 465.136945 479.334068 
L 467.009258 479.95714 
L 471.718409 480.882885 
L 473.080092 480.719666 
L 473.931143 480.448813 
L 475.860193 479.74159 
L 476.654508 479.733489 
L 478.923978 479.958868 
L 479.718293 479.679569 
L 481.70408 478.826046 
L 482.441658 478.830913 
L 483.462919 479.131335 
L 486.753652 480.30334 
L 487.945124 480.407999 
L 489.533753 480.315634 
L 494.526588 479.713351 
L 495.831534 479.82873 
L 496.852796 480.117207 
L 499.065529 480.863063 
L 499.859844 480.854286 
L 500.654159 480.584617 
L 501.448473 480.059705 
L 502.299525 479.248414 
L 504.228575 477.331649 
L 504.795943 477.118099 
L 505.249837 477.177365 
L 505.760467 477.508023 
L 506.441309 478.268925 
L 508.540569 480.884512 
L 509.278147 481.355753 
L 509.958988 481.530399 
L 510.639829 481.446836 
L 511.377407 481.081646 
L 514.100772 479.375013 
L 515.00856 479.268348 
L 516.426979 479.320577 
L 518.356029 479.594584 
L 519.490764 480.018869 
L 521.306341 480.692646 
L 522.214129 480.753694 
L 523.121917 480.571877 
L 525.448124 479.958759 
L 529.192751 479.478239 
L 530.270749 479.725982 
L 532.483483 480.287041 
L 533.618218 480.299958 
L 534.752954 480.103231 
L 536.114636 479.625722 
L 537.646529 479.062681 
L 538.440843 479.004698 
L 539.178421 479.181329 
L 540.483367 479.808979 
L 543.547152 481.255181 
L 544.28473 481.205585 
L 545.249255 480.835151 
L 548.48325 479.343219 
L 550.298827 478.965644 
L 551.490299 478.844349 
L 552.284614 478.957725 
L 553.135665 479.355199 
L 554.327137 480.246772 
L 555.461872 480.958934 
L 556.19945 481.134942 
L 556.823555 481.057517 
L 557.617869 480.68658 
L 558.468921 479.997766 
L 559.546919 478.813285 
L 560.795128 477.533628 
L 561.362496 477.240835 
L 561.81639 477.251552 
L 562.327021 477.58934 
L 563.007862 478.346797 
L 565.561016 481.490954 
L 566.241857 481.882843 
L 566.865962 482.009194 
L 567.433329 481.922518 
L 568.170907 481.580733 
L 570.553851 480.273147 
L 571.404903 480.17537 
L 572.880059 480.28946 
L 573.90132 480.236384 
L 575.036056 479.941608 
L 576.738159 479.536137 
L 577.702684 479.508574 
L 584.057201 479.918019 
L 586.099725 479.684854 
L 590.298245 479.826191 
L 591.206033 480.194739 
L 592.964873 480.973337 
L 593.702451 481.013082 
L 594.496766 480.835898 
L 595.574764 480.396291 
L 597.276867 479.746528 
L 598.298129 479.663373 
L 599.376127 479.802551 
L 600.397389 479.867248 
L 601.24844 479.687976 
L 602.383176 479.192623 
L 603.688121 478.724537 
L 604.59591 478.668844 
L 605.617171 478.873828 
L 608.567483 479.924619 
L 609.872429 480.467868 
L 611.688005 481.282192 
L 612.766003 481.45428 
L 613.503581 481.337116 
L 614.184423 481.028741 
L 615.092211 480.341996 
L 616.113473 479.261202 
L 617.588628 477.710554 
L 618.212733 477.379685 
L 618.723364 477.353798 
L 619.233995 477.553643 
L 619.971572 478.140176 
L 621.900622 479.807403 
L 623.092094 480.476474 
L 624.170093 480.855047 
L 625.021144 480.917567 
L 625.872196 480.730652 
L 626.836721 480.280375 
L 628.368613 479.570959 
L 629.333138 479.394677 
L 630.18419 479.440308 
L 631.602609 479.812333 
L 633.758606 480.389157 
L 634.893341 480.359416 
L 636.595444 480.032915 
L 638.184074 479.775282 
L 641.304596 479.674483 
L 642.439331 479.849791 
L 643.403856 480.184394 
L 644.822275 480.653018 
L 646.12722 480.801927 
L 647.318692 480.709329 
L 649.077532 480.267051 
L 650.836372 479.41953 
L 651.857634 479.04516 
L 652.935632 478.919447 
L 654.297314 479.009537 
L 656.226364 479.339715 
L 662.410672 480.94593 
L 663.48867 480.839253 
L 669.27582 479.703828 
L 670.524029 479.865491 
L 672.226132 480.1434 
L 673.020446 479.947858 
L 673.871498 479.48538 
L 675.176443 478.783638 
L 675.176443 478.783638 
" clip-path="url(#pd2c7b6515e)" style="fill: none; stroke: #0000ff; stroke-width: 1.5; stroke-linecap: square"/>
   </g>
   <g id="patch_3">
    <path d="M 79.5 640.3905 
L 79.5 39.1875 
" style="fill: none; stroke: #000000; stroke-width: 0.8; stroke-linejoin: miter; stroke-linecap: square"/>
   </g>
   <g id="patch_4">
    <path d="M 703.541988 640.3905 
L 703.541988 39.1875 
" style="fill: none; stroke: #000000; stroke-width: 0.8; stroke-linejoin: miter; stroke-linecap: square"/>
   </g>
   <g id="patch_5">
    <path d="M 79.5 640.3905 
L 703.541988 640.3905 
" style="fill: none; stroke: #000000; stroke-width: 0.8; stroke-linejoin: miter; stroke-linecap: square"/>
   </g>
   <g id="patch_6">
    <path d="M 79.5 39.1875 
L 703.541988 39.1875 
" style="fill: none; stroke: #000000; stroke-width: 0.8; stroke-linejoin: miter; stroke-linecap: square"/>
   </g>
  </g>
 </g>
 <defs>
  <clipPath id="pd2c7b6515e">
   <rect x="79.5" y="39.1875" width="624.041988" height="601.203"/>
  </clipPath>
 </defs>
</svg>
