<?xml version="1.0" encoding="utf-8" standalone="no"?>
<!DOCTYPE svg PUBLIC "-//W3C//DTD SVG 1.1//EN"
  "http://www.w3.org/Graphics/SVG/1.1/DTD/svg11.dtd">
<svg xmlns:xlink="http://www.w3.org/1999/xlink" width="710.741988pt" height="711.02175pt" viewBox="0 0 710.741988 711.02175" xmlns="http://www.w3.org/2000/svg" version="1.1">
 <metadata>
  <rdf:RDF xmlns:dc="http://purl.org/dc/elements/1.1/" xmlns:cc="http://creativecommons.org/ns#" xmlns:rdf="http://www.w3.org/1999/02/22-rdf-syntax-ns#">
   <cc:Work>
    <dc:type rdf:resource="http://purl.org/dc/dcmitype/StillImage"/>
    <dc:date>2025-02-06T00:36:50.861852</dc:date>
    <dc:format>image/svg+xml</dc:format>
    <dc:creator>
     <cc:Agent>
      <dc:title>Matplotlib v3.9.3, https://matplotlib.org/</dc:title>
     </cc:Agent>
    </dc:creator>
   </cc:Work>
  </rdf:RDF>
 </metadata>
 <defs>
  <style type="text/css">*{stroke-linejoin: round; stroke-linecap: butt}</style>
 </defs>
 <g id="figure_1">
  <g id="patch_1">
   <path d="M 0 711.02175 
L 710.741988 711.02175 
L 710.741988 0 
L 0 0 
z
" style="fill: #ffffff"/>
  </g>
  <g id="axes_1">
   <g id="patch_2">
    <path d="M 79.5 640.3905 
L 703.541988 640.3905 
L 703.541988 39.1875 
L 79.5 39.1875 
z
" style="fill: #ffffff"/>
   </g>
   <g id="matplotlib.axis_1">
    <g id="xtick_1">
     <g id="line2d_1">
      <defs>
       <path id="m0c6082336f" d="M 0 0 
L 0 -3.5 
" style="stroke: #000000; stroke-width: 0.8"/>
      </defs>
      <g>
       <use xlink:href="#m0c6082336f" x="107.808808" y="640.3905" style="stroke: #000000; stroke-width: 0.8"/>
      </g>
     </g>
     <g id="text_1">
      <!-- 0 -->
      <g transform="translate(99.467402 665.631125) scale(0.3 -0.3)">
       <defs>
        <path id="LiberationSans-30" d="M 3309 2203 
Q 3309 1100 2920 518 
Q 2531 -63 1772 -63 
Q 1013 -63 631 515 
Q 250 1094 250 2203 
Q 250 3338 620 3903 
Q 991 4469 1791 4469 
Q 2569 4469 2939 3897 
Q 3309 3325 3309 2203 
z
M 2738 2203 
Q 2738 3156 2517 3584 
Q 2297 4013 1791 4013 
Q 1272 4013 1045 3591 
Q 819 3169 819 2203 
Q 819 1266 1048 831 
Q 1278 397 1778 397 
Q 2275 397 2506 840 
Q 2738 1284 2738 2203 
z
" transform="scale(0.015625)"/>
       </defs>
       <use xlink:href="#LiberationSans-30"/>
      </g>
     </g>
    </g>
    <g id="xtick_2">
     <g id="line2d_2">
      <g>
       <use xlink:href="#m0c6082336f" x="221.282335" y="640.3905" style="stroke: #000000; stroke-width: 0.8"/>
      </g>
     </g>
     <g id="text_2">
      <!-- 2 -->
      <g transform="translate(212.940929 665.631125) scale(0.3 -0.3)">
       <defs>
        <path id="LiberationSans-32" d="M 322 0 
L 322 397 
Q 481 763 711 1042 
Q 941 1322 1194 1548 
Q 1447 1775 1695 1969 
Q 1944 2163 2144 2356 
Q 2344 2550 2467 2762 
Q 2591 2975 2591 3244 
Q 2591 3606 2378 3806 
Q 2166 4006 1788 4006 
Q 1428 4006 1195 3811 
Q 963 3616 922 3263 
L 347 3316 
Q 409 3844 795 4156 
Q 1181 4469 1788 4469 
Q 2453 4469 2811 4155 
Q 3169 3841 3169 3263 
Q 3169 3006 3051 2753 
Q 2934 2500 2703 2247 
Q 2472 1994 1819 1463 
Q 1459 1169 1246 933 
Q 1034 697 941 478 
L 3238 478 
L 3238 0 
L 322 0 
z
" transform="scale(0.015625)"/>
       </defs>
       <use xlink:href="#LiberationSans-32"/>
      </g>
     </g>
    </g>
    <g id="xtick_3">
     <g id="line2d_3">
      <g>
       <use xlink:href="#m0c6082336f" x="334.755862" y="640.3905" style="stroke: #000000; stroke-width: 0.8"/>
      </g>
     </g>
     <g id="text_3">
      <!-- 4 -->
      <g transform="translate(326.414456 665.631125) scale(0.3 -0.3)">
       <defs>
        <path id="LiberationSans-34" d="M 2753 997 
L 2753 0 
L 2222 0 
L 2222 997 
L 147 997 
L 147 1434 
L 2163 4403 
L 2753 4403 
L 2753 1441 
L 3372 1441 
L 3372 997 
L 2753 997 
z
M 2222 3769 
Q 2216 3750 2134 3603 
Q 2053 3456 2013 3397 
L 884 1734 
L 716 1503 
L 666 1441 
L 2222 1441 
L 2222 3769 
z
" transform="scale(0.015625)"/>
       </defs>
       <use xlink:href="#LiberationSans-34"/>
      </g>
     </g>
    </g>
    <g id="xtick_4">
     <g id="line2d_4">
      <g>
       <use xlink:href="#m0c6082336f" x="448.229389" y="640.3905" style="stroke: #000000; stroke-width: 0.8"/>
      </g>
     </g>
     <g id="text_4">
      <!-- 6 -->
      <g transform="translate(439.887983 665.631125) scale(0.3 -0.3)">
       <defs>
        <path id="LiberationSans-36" d="M 3278 1441 
Q 3278 744 2900 340 
Q 2522 -63 1856 -63 
Q 1113 -63 719 490 
Q 325 1044 325 2100 
Q 325 3244 734 3856 
Q 1144 4469 1900 4469 
Q 2897 4469 3156 3572 
L 2619 3475 
Q 2453 4013 1894 4013 
Q 1413 4013 1148 3564 
Q 884 3116 884 2266 
Q 1038 2550 1316 2698 
Q 1594 2847 1953 2847 
Q 2563 2847 2920 2465 
Q 3278 2084 3278 1441 
z
M 2706 1416 
Q 2706 1894 2472 2153 
Q 2238 2413 1819 2413 
Q 1425 2413 1183 2183 
Q 941 1953 941 1550 
Q 941 1041 1192 716 
Q 1444 391 1838 391 
Q 2244 391 2475 664 
Q 2706 938 2706 1416 
z
" transform="scale(0.015625)"/>
       </defs>
       <use xlink:href="#LiberationSans-36"/>
      </g>
     </g>
    </g>
    <g id="xtick_5">
     <g id="line2d_5">
      <g>
       <use xlink:href="#m0c6082336f" x="561.702916" y="640.3905" style="stroke: #000000; stroke-width: 0.8"/>
      </g>
     </g>
     <g id="text_5">
      <!-- 8 -->
      <g transform="translate(553.36151 665.631125) scale(0.3 -0.3)">
       <defs>
        <path id="LiberationSans-38" d="M 3281 1228 
Q 3281 619 2893 278 
Q 2506 -63 1781 -63 
Q 1075 -63 676 271 
Q 278 606 278 1222 
Q 278 1653 525 1947 
Q 772 2241 1156 2303 
L 1156 2316 
Q 797 2400 589 2681 
Q 381 2963 381 3341 
Q 381 3844 757 4156 
Q 1134 4469 1769 4469 
Q 2419 4469 2795 4162 
Q 3172 3856 3172 3334 
Q 3172 2956 2962 2675 
Q 2753 2394 2391 2322 
L 2391 2309 
Q 2813 2241 3047 1952 
Q 3281 1663 3281 1228 
z
M 2588 3303 
Q 2588 4050 1769 4050 
Q 1372 4050 1164 3862 
Q 956 3675 956 3303 
Q 956 2925 1170 2726 
Q 1384 2528 1775 2528 
Q 2172 2528 2380 2711 
Q 2588 2894 2588 3303 
z
M 2697 1281 
Q 2697 1691 2453 1898 
Q 2209 2106 1769 2106 
Q 1341 2106 1100 1882 
Q 859 1659 859 1269 
Q 859 359 1788 359 
Q 2247 359 2472 579 
Q 2697 800 2697 1281 
z
" transform="scale(0.015625)"/>
       </defs>
       <use xlink:href="#LiberationSans-38"/>
      </g>
     </g>
    </g>
    <g id="xtick_6">
     <g id="line2d_6">
      <g>
       <use xlink:href="#m0c6082336f" x="675.176443" y="640.3905" style="stroke: #000000; stroke-width: 0.8"/>
      </g>
     </g>
     <g id="text_6">
      <!-- 10 -->
      <g transform="translate(658.493631 665.631125) scale(0.3 -0.3)">
       <defs>
        <path id="LiberationSans-31" d="M 488 0 
L 488 478 
L 1609 478 
L 1609 3866 
L 616 3156 
L 616 3688 
L 1656 4403 
L 2175 4403 
L 2175 478 
L 3247 478 
L 3247 0 
L 488 0 
z
" transform="scale(0.015625)"/>
       </defs>
       <use xlink:href="#LiberationSans-31"/>
       <use xlink:href="#LiberationSans-30" x="55.615234"/>
      </g>
     </g>
    </g>
    <g id="xtick_7">
     <g id="line2d_7">
      <defs>
       <path id="m03fa6b9480" d="M 0 0 
L 0 -2 
" style="stroke: #000000; stroke-width: 0.6"/>
      </defs>
      <g>
       <use xlink:href="#m03fa6b9480" x="136.17719" y="640.3905" style="stroke: #000000; stroke-width: 0.6"/>
      </g>
     </g>
    </g>
    <g id="xtick_8">
     <g id="line2d_8">
      <g>
       <use xlink:href="#m03fa6b9480" x="164.545572" y="640.3905" style="stroke: #000000; stroke-width: 0.6"/>
      </g>
     </g>
    </g>
    <g id="xtick_9">
     <g id="line2d_9">
      <g>
       <use xlink:href="#m03fa6b9480" x="192.913953" y="640.3905" style="stroke: #000000; stroke-width: 0.6"/>
      </g>
     </g>
    </g>
    <g id="xtick_10">
     <g id="line2d_10">
      <g>
       <use xlink:href="#m03fa6b9480" x="249.650717" y="640.3905" style="stroke: #000000; stroke-width: 0.6"/>
      </g>
     </g>
    </g>
    <g id="xtick_11">
     <g id="line2d_11">
      <g>
       <use xlink:href="#m03fa6b9480" x="278.019099" y="640.3905" style="stroke: #000000; stroke-width: 0.6"/>
      </g>
     </g>
    </g>
    <g id="xtick_12">
     <g id="line2d_12">
      <g>
       <use xlink:href="#m03fa6b9480" x="306.38748" y="640.3905" style="stroke: #000000; stroke-width: 0.6"/>
      </g>
     </g>
    </g>
    <g id="xtick_13">
     <g id="line2d_13">
      <g>
       <use xlink:href="#m03fa6b9480" x="363.124244" y="640.3905" style="stroke: #000000; stroke-width: 0.6"/>
      </g>
     </g>
    </g>
    <g id="xtick_14">
     <g id="line2d_14">
      <g>
       <use xlink:href="#m03fa6b9480" x="391.492626" y="640.3905" style="stroke: #000000; stroke-width: 0.6"/>
      </g>
     </g>
    </g>
    <g id="xtick_15">
     <g id="line2d_15">
      <g>
       <use xlink:href="#m03fa6b9480" x="419.861008" y="640.3905" style="stroke: #000000; stroke-width: 0.6"/>
      </g>
     </g>
    </g>
    <g id="xtick_16">
     <g id="line2d_16">
      <g>
       <use xlink:href="#m03fa6b9480" x="476.597771" y="640.3905" style="stroke: #000000; stroke-width: 0.6"/>
      </g>
     </g>
    </g>
    <g id="xtick_17">
     <g id="line2d_17">
      <g>
       <use xlink:href="#m03fa6b9480" x="504.966153" y="640.3905" style="stroke: #000000; stroke-width: 0.6"/>
      </g>
     </g>
    </g>
    <g id="xtick_18">
     <g id="line2d_18">
      <g>
       <use xlink:href="#m03fa6b9480" x="533.334535" y="640.3905" style="stroke: #000000; stroke-width: 0.6"/>
      </g>
     </g>
    </g>
    <g id="xtick_19">
     <g id="line2d_19">
      <g>
       <use xlink:href="#m03fa6b9480" x="590.071298" y="640.3905" style="stroke: #000000; stroke-width: 0.6"/>
      </g>
     </g>
    </g>
    <g id="xtick_20">
     <g id="line2d_20">
      <g>
       <use xlink:href="#m03fa6b9480" x="618.43968" y="640.3905" style="stroke: #000000; stroke-width: 0.6"/>
      </g>
     </g>
    </g>
    <g id="xtick_21">
     <g id="line2d_21">
      <g>
       <use xlink:href="#m03fa6b9480" x="646.808062" y="640.3905" style="stroke: #000000; stroke-width: 0.6"/>
      </g>
     </g>
    </g>
    <g id="text_7">
     <!-- Time ps -->
     <g transform="translate(338.744432 697.59675) scale(0.3 -0.3)">
      <defs>
       <path id="LiberationSans-54" d="M 2250 3916 
L 2250 0 
L 1656 0 
L 1656 3916 
L 144 3916 
L 144 4403 
L 3763 4403 
L 3763 3916 
L 2250 3916 
z
" transform="scale(0.015625)"/>
       <path id="LiberationSans-69" d="M 428 4100 
L 428 4638 
L 991 4638 
L 991 4100 
L 428 4100 
z
M 428 0 
L 428 3381 
L 991 3381 
L 991 0 
L 428 0 
z
" transform="scale(0.015625)"/>
       <path id="LiberationSans-6d" d="M 2400 0 
L 2400 2144 
Q 2400 2634 2265 2821 
Q 2131 3009 1781 3009 
Q 1422 3009 1212 2734 
Q 1003 2459 1003 1959 
L 1003 0 
L 444 0 
L 444 2659 
Q 444 3250 425 3381 
L 956 3381 
Q 959 3366 962 3297 
Q 966 3228 970 3139 
Q 975 3050 981 2803 
L 991 2803 
Q 1172 3163 1406 3303 
Q 1641 3444 1978 3444 
Q 2363 3444 2586 3291 
Q 2809 3138 2897 2803 
L 2906 2803 
Q 3081 3144 3329 3294 
Q 3578 3444 3931 3444 
Q 4444 3444 4676 3166 
Q 4909 2888 4909 2253 
L 4909 0 
L 4353 0 
L 4353 2144 
Q 4353 2634 4218 2821 
Q 4084 3009 3734 3009 
Q 3366 3009 3161 2736 
Q 2956 2463 2956 1959 
L 2956 0 
L 2400 0 
z
" transform="scale(0.015625)"/>
       <path id="LiberationSans-65" d="M 863 1572 
Q 863 991 1103 675 
Q 1344 359 1806 359 
Q 2172 359 2392 506 
Q 2613 653 2691 878 
L 3184 738 
Q 2881 -63 1806 -63 
Q 1056 -63 664 384 
Q 272 831 272 1713 
Q 272 2550 664 2997 
Q 1056 3444 1784 3444 
Q 3275 3444 3275 1647 
L 3275 1572 
L 863 1572 
z
M 2694 2003 
Q 2647 2538 2422 2783 
Q 2197 3028 1775 3028 
Q 1366 3028 1127 2754 
Q 888 2481 869 2003 
L 2694 2003 
z
" transform="scale(0.015625)"/>
       <path id="LiberationSans-20" transform="scale(0.015625)"/>
       <path id="LiberationSans-70" d="M 3291 1706 
Q 3291 -63 2047 -63 
Q 1266 -63 997 525 
L 981 525 
Q 994 500 994 -6 
L 994 -1328 
L 431 -1328 
L 431 2691 
Q 431 3213 413 3381 
L 956 3381 
Q 959 3369 965 3292 
Q 972 3216 980 3056 
Q 988 2897 988 2838 
L 1000 2838 
Q 1150 3150 1397 3295 
Q 1644 3441 2047 3441 
Q 2672 3441 2981 3022 
Q 3291 2603 3291 1706 
z
M 2700 1694 
Q 2700 2400 2509 2703 
Q 2319 3006 1903 3006 
Q 1569 3006 1380 2865 
Q 1191 2725 1092 2426 
Q 994 2128 994 1650 
Q 994 984 1206 668 
Q 1419 353 1897 353 
Q 2316 353 2508 661 
Q 2700 969 2700 1694 
z
" transform="scale(0.015625)"/>
       <path id="LiberationSans-73" d="M 2969 934 
Q 2969 456 2608 196 
Q 2247 -63 1597 -63 
Q 966 -63 623 145 
Q 281 353 178 794 
L 675 891 
Q 747 619 972 492 
Q 1197 366 1597 366 
Q 2025 366 2223 497 
Q 2422 628 2422 891 
Q 2422 1091 2284 1216 
Q 2147 1341 1841 1422 
L 1438 1528 
Q 953 1653 748 1773 
Q 544 1894 428 2066 
Q 313 2238 313 2488 
Q 313 2950 642 3192 
Q 972 3434 1603 3434 
Q 2163 3434 2492 3237 
Q 2822 3041 2909 2606 
L 2403 2544 
Q 2356 2769 2151 2889 
Q 1947 3009 1603 3009 
Q 1222 3009 1040 2893 
Q 859 2778 859 2544 
Q 859 2400 934 2306 
Q 1009 2213 1156 2147 
Q 1303 2081 1775 1966 
Q 2222 1853 2419 1758 
Q 2616 1663 2730 1547 
Q 2844 1431 2906 1279 
Q 2969 1128 2969 934 
z
" transform="scale(0.015625)"/>
      </defs>
      <use xlink:href="#LiberationSans-54"/>
      <use xlink:href="#LiberationSans-69" x="57.333984"/>
      <use xlink:href="#LiberationSans-6d" x="79.550781"/>
      <use xlink:href="#LiberationSans-65" x="162.851562"/>
      <use xlink:href="#LiberationSans-20" x="218.466797"/>
      <use xlink:href="#LiberationSans-70" x="246.25"/>
      <use xlink:href="#LiberationSans-73" x="301.865234"/>
     </g>
    </g>
   </g>
   <g id="matplotlib.axis_2">
    <g id="ytick_1">
     <g id="line2d_22">
      <defs>
       <path id="mc0c0d85e75" d="M 0 0 
L 3.5 0 
" style="stroke: #000000; stroke-width: 0.8"/>
      </defs>
      <g>
       <use xlink:href="#mc0c0d85e75" x="79.5" y="608.699891" style="stroke: #000000; stroke-width: 0.8"/>
      </g>
     </g>
     <g id="text_8">
      <!-- $\mathdefault{−2}$ -->
      <g transform="translate(41.5 619.570203) scale(0.3 -0.3)">
       <defs>
        <path id="LiberationSans-2212" d="M 316 1900 
L 316 2356 
L 3425 2356 
L 3425 1900 
L 316 1900 
z
" transform="scale(0.015625)"/>
       </defs>
       <use xlink:href="#LiberationSans-2212" transform="translate(0 0.171875)"/>
       <use xlink:href="#LiberationSans-32" transform="translate(58.398438 0.171875)"/>
      </g>
     </g>
    </g>
    <g id="ytick_2">
     <g id="line2d_23">
      <g>
       <use xlink:href="#mc0c0d85e75" x="79.5" y="539.526287" style="stroke: #000000; stroke-width: 0.8"/>
      </g>
     </g>
     <g id="text_9">
      <!-- $\mathdefault{−1}$ -->
      <g transform="translate(41.5 550.3966) scale(0.3 -0.3)">
       <use xlink:href="#LiberationSans-2212" transform="translate(0 0.203125)"/>
       <use xlink:href="#LiberationSans-31" transform="translate(58.398438 0.203125)"/>
      </g>
     </g>
    </g>
    <g id="ytick_3">
     <g id="line2d_24">
      <g>
       <use xlink:href="#mc0c0d85e75" x="79.5" y="470.352684" style="stroke: #000000; stroke-width: 0.8"/>
      </g>
     </g>
     <g id="text_10">
      <!-- $\mathdefault{0}$ -->
      <g transform="translate(59.2 481.222996) scale(0.3 -0.3)">
       <use xlink:href="#LiberationSans-30" transform="translate(0 0.171875)"/>
      </g>
     </g>
    </g>
    <g id="ytick_4">
     <g id="line2d_25">
      <g>
       <use xlink:href="#mc0c0d85e75" x="79.5" y="401.17908" style="stroke: #000000; stroke-width: 0.8"/>
      </g>
     </g>
     <g id="text_11">
      <!-- $\mathdefault{1}$ -->
      <g transform="translate(59.2 412.049393) scale(0.3 -0.3)">
       <use xlink:href="#LiberationSans-31" transform="translate(0 0.203125)"/>
      </g>
     </g>
    </g>
    <g id="ytick_5">
     <g id="line2d_26">
      <g>
       <use xlink:href="#mc0c0d85e75" x="79.5" y="332.005477" style="stroke: #000000; stroke-width: 0.8"/>
      </g>
     </g>
     <g id="text_12">
      <!-- $\mathdefault{2}$ -->
      <g transform="translate(59.2 342.875789) scale(0.3 -0.3)">
       <use xlink:href="#LiberationSans-32" transform="translate(0 0.171875)"/>
      </g>
     </g>
    </g>
    <g id="ytick_6">
     <g id="line2d_27">
      <g>
       <use xlink:href="#mc0c0d85e75" x="79.5" y="262.831873" style="stroke: #000000; stroke-width: 0.8"/>
      </g>
     </g>
     <g id="text_13">
      <!-- $\mathdefault{3}$ -->
      <g transform="translate(59.2 273.702186) scale(0.3 -0.3)">
       <defs>
        <path id="LiberationSans-33" d="M 3278 1216 
Q 3278 606 2890 271 
Q 2503 -63 1784 -63 
Q 1116 -63 717 239 
Q 319 541 244 1131 
L 825 1184 
Q 938 403 1784 403 
Q 2209 403 2451 612 
Q 2694 822 2694 1234 
Q 2694 1594 2417 1795 
Q 2141 1997 1619 1997 
L 1300 1997 
L 1300 2484 
L 1606 2484 
Q 2069 2484 2323 2686 
Q 2578 2888 2578 3244 
Q 2578 3597 2370 3801 
Q 2163 4006 1753 4006 
Q 1381 4006 1151 3815 
Q 922 3625 884 3278 
L 319 3322 
Q 381 3863 767 4166 
Q 1153 4469 1759 4469 
Q 2422 4469 2789 4161 
Q 3156 3853 3156 3303 
Q 3156 2881 2920 2617 
Q 2684 2353 2234 2259 
L 2234 2247 
Q 2728 2194 3003 1916 
Q 3278 1638 3278 1216 
z
" transform="scale(0.015625)"/>
       </defs>
       <use xlink:href="#LiberationSans-33" transform="translate(0 0.171875)"/>
      </g>
     </g>
    </g>
    <g id="ytick_7">
     <g id="line2d_28">
      <g>
       <use xlink:href="#mc0c0d85e75" x="79.5" y="193.658269" style="stroke: #000000; stroke-width: 0.8"/>
      </g>
     </g>
     <g id="text_14">
      <!-- $\mathdefault{4}$ -->
      <g transform="translate(59.2 204.528582) scale(0.3 -0.3)">
       <use xlink:href="#LiberationSans-34" transform="translate(0 0.203125)"/>
      </g>
     </g>
    </g>
    <g id="ytick_8">
     <g id="line2d_29">
      <g>
       <use xlink:href="#mc0c0d85e75" x="79.5" y="124.484666" style="stroke: #000000; stroke-width: 0.8"/>
      </g>
     </g>
     <g id="text_15">
      <!-- $\mathdefault{5}$ -->
      <g transform="translate(59.2 135.354978) scale(0.3 -0.3)">
       <defs>
        <path id="LiberationSans-35" d="M 3291 1434 
Q 3291 738 2877 337 
Q 2463 -63 1728 -63 
Q 1113 -63 734 206 
Q 356 475 256 984 
L 825 1050 
Q 1003 397 1741 397 
Q 2194 397 2450 670 
Q 2706 944 2706 1422 
Q 2706 1838 2448 2094 
Q 2191 2350 1753 2350 
Q 1525 2350 1328 2278 
Q 1131 2206 934 2034 
L 384 2034 
L 531 4403 
L 3034 4403 
L 3034 3925 
L 1044 3925 
L 959 2528 
Q 1325 2809 1869 2809 
Q 2519 2809 2905 2428 
Q 3291 2047 3291 1434 
z
" transform="scale(0.015625)"/>
       </defs>
       <use xlink:href="#LiberationSans-35" transform="translate(0 0.203125)"/>
      </g>
     </g>
    </g>
    <g id="ytick_9">
     <g id="line2d_30">
      <g>
       <use xlink:href="#mc0c0d85e75" x="79.5" y="55.311062" style="stroke: #000000; stroke-width: 0.8"/>
      </g>
     </g>
     <g id="text_16">
      <!-- $\mathdefault{6}$ -->
      <g transform="translate(59.2 66.181375) scale(0.3 -0.3)">
       <use xlink:href="#LiberationSans-36" transform="translate(0 0.171875)"/>
      </g>
     </g>
    </g>
    <g id="ytick_10">
     <g id="line2d_31">
      <defs>
       <path id="m8e12e98311" d="M 0 0 
L 2 0 
" style="stroke: #000000; stroke-width: 0.6"/>
      </defs>
      <g>
       <use xlink:href="#m8e12e98311" x="79.5" y="636.369332" style="stroke: #000000; stroke-width: 0.6"/>
      </g>
     </g>
    </g>
    <g id="ytick_11">
     <g id="line2d_32">
      <g>
       <use xlink:href="#m8e12e98311" x="79.5" y="622.534612" style="stroke: #000000; stroke-width: 0.6"/>
      </g>
     </g>
    </g>
    <g id="ytick_12">
     <g id="line2d_33">
      <g>
       <use xlink:href="#m8e12e98311" x="79.5" y="594.86517" style="stroke: #000000; stroke-width: 0.6"/>
      </g>
     </g>
    </g>
    <g id="ytick_13">
     <g id="line2d_34">
      <g>
       <use xlink:href="#m8e12e98311" x="79.5" y="581.030449" style="stroke: #000000; stroke-width: 0.6"/>
      </g>
     </g>
    </g>
    <g id="ytick_14">
     <g id="line2d_35">
      <g>
       <use xlink:href="#m8e12e98311" x="79.5" y="567.195729" style="stroke: #000000; stroke-width: 0.6"/>
      </g>
     </g>
    </g>
    <g id="ytick_15">
     <g id="line2d_36">
      <g>
       <use xlink:href="#m8e12e98311" x="79.5" y="553.361008" style="stroke: #000000; stroke-width: 0.6"/>
      </g>
     </g>
    </g>
    <g id="ytick_16">
     <g id="line2d_37">
      <g>
       <use xlink:href="#m8e12e98311" x="79.5" y="525.691567" style="stroke: #000000; stroke-width: 0.6"/>
      </g>
     </g>
    </g>
    <g id="ytick_17">
     <g id="line2d_38">
      <g>
       <use xlink:href="#m8e12e98311" x="79.5" y="511.856846" style="stroke: #000000; stroke-width: 0.6"/>
      </g>
     </g>
    </g>
    <g id="ytick_18">
     <g id="line2d_39">
      <g>
       <use xlink:href="#m8e12e98311" x="79.5" y="498.022125" style="stroke: #000000; stroke-width: 0.6"/>
      </g>
     </g>
    </g>
    <g id="ytick_19">
     <g id="line2d_40">
      <g>
       <use xlink:href="#m8e12e98311" x="79.5" y="484.187404" style="stroke: #000000; stroke-width: 0.6"/>
      </g>
     </g>
    </g>
    <g id="ytick_20">
     <g id="line2d_41">
      <g>
       <use xlink:href="#m8e12e98311" x="79.5" y="456.517963" style="stroke: #000000; stroke-width: 0.6"/>
      </g>
     </g>
    </g>
    <g id="ytick_21">
     <g id="line2d_42">
      <g>
       <use xlink:href="#m8e12e98311" x="79.5" y="442.683242" style="stroke: #000000; stroke-width: 0.6"/>
      </g>
     </g>
    </g>
    <g id="ytick_22">
     <g id="line2d_43">
      <g>
       <use xlink:href="#m8e12e98311" x="79.5" y="428.848522" style="stroke: #000000; stroke-width: 0.6"/>
      </g>
     </g>
    </g>
    <g id="ytick_23">
     <g id="line2d_44">
      <g>
       <use xlink:href="#m8e12e98311" x="79.5" y="415.013801" style="stroke: #000000; stroke-width: 0.6"/>
      </g>
     </g>
    </g>
    <g id="ytick_24">
     <g id="line2d_45">
      <g>
       <use xlink:href="#m8e12e98311" x="79.5" y="387.344359" style="stroke: #000000; stroke-width: 0.6"/>
      </g>
     </g>
    </g>
    <g id="ytick_25">
     <g id="line2d_46">
      <g>
       <use xlink:href="#m8e12e98311" x="79.5" y="373.509639" style="stroke: #000000; stroke-width: 0.6"/>
      </g>
     </g>
    </g>
    <g id="ytick_26">
     <g id="line2d_47">
      <g>
       <use xlink:href="#m8e12e98311" x="79.5" y="359.674918" style="stroke: #000000; stroke-width: 0.6"/>
      </g>
     </g>
    </g>
    <g id="ytick_27">
     <g id="line2d_48">
      <g>
       <use xlink:href="#m8e12e98311" x="79.5" y="345.840197" style="stroke: #000000; stroke-width: 0.6"/>
      </g>
     </g>
    </g>
    <g id="ytick_28">
     <g id="line2d_49">
      <g>
       <use xlink:href="#m8e12e98311" x="79.5" y="318.170756" style="stroke: #000000; stroke-width: 0.6"/>
      </g>
     </g>
    </g>
    <g id="ytick_29">
     <g id="line2d_50">
      <g>
       <use xlink:href="#m8e12e98311" x="79.5" y="304.336035" style="stroke: #000000; stroke-width: 0.6"/>
      </g>
     </g>
    </g>
    <g id="ytick_30">
     <g id="line2d_51">
      <g>
       <use xlink:href="#m8e12e98311" x="79.5" y="290.501314" style="stroke: #000000; stroke-width: 0.6"/>
      </g>
     </g>
    </g>
    <g id="ytick_31">
     <g id="line2d_52">
      <g>
       <use xlink:href="#m8e12e98311" x="79.5" y="276.666594" style="stroke: #000000; stroke-width: 0.6"/>
      </g>
     </g>
    </g>
    <g id="ytick_32">
     <g id="line2d_53">
      <g>
       <use xlink:href="#m8e12e98311" x="79.5" y="248.997152" style="stroke: #000000; stroke-width: 0.6"/>
      </g>
     </g>
    </g>
    <g id="ytick_33">
     <g id="line2d_54">
      <g>
       <use xlink:href="#m8e12e98311" x="79.5" y="235.162432" style="stroke: #000000; stroke-width: 0.6"/>
      </g>
     </g>
    </g>
    <g id="ytick_34">
     <g id="line2d_55">
      <g>
       <use xlink:href="#m8e12e98311" x="79.5" y="221.327711" style="stroke: #000000; stroke-width: 0.6"/>
      </g>
     </g>
    </g>
    <g id="ytick_35">
     <g id="line2d_56">
      <g>
       <use xlink:href="#m8e12e98311" x="79.5" y="207.49299" style="stroke: #000000; stroke-width: 0.6"/>
      </g>
     </g>
    </g>
    <g id="ytick_36">
     <g id="line2d_57">
      <g>
       <use xlink:href="#m8e12e98311" x="79.5" y="179.823549" style="stroke: #000000; stroke-width: 0.6"/>
      </g>
     </g>
    </g>
    <g id="ytick_37">
     <g id="line2d_58">
      <g>
       <use xlink:href="#m8e12e98311" x="79.5" y="165.988828" style="stroke: #000000; stroke-width: 0.6"/>
      </g>
     </g>
    </g>
    <g id="ytick_38">
     <g id="line2d_59">
      <g>
       <use xlink:href="#m8e12e98311" x="79.5" y="152.154107" style="stroke: #000000; stroke-width: 0.6"/>
      </g>
     </g>
    </g>
    <g id="ytick_39">
     <g id="line2d_60">
      <g>
       <use xlink:href="#m8e12e98311" x="79.5" y="138.319387" style="stroke: #000000; stroke-width: 0.6"/>
      </g>
     </g>
    </g>
    <g id="ytick_40">
     <g id="line2d_61">
      <g>
       <use xlink:href="#m8e12e98311" x="79.5" y="110.649945" style="stroke: #000000; stroke-width: 0.6"/>
      </g>
     </g>
    </g>
    <g id="ytick_41">
     <g id="line2d_62">
      <g>
       <use xlink:href="#m8e12e98311" x="79.5" y="96.815224" style="stroke: #000000; stroke-width: 0.6"/>
      </g>
     </g>
    </g>
    <g id="ytick_42">
     <g id="line2d_63">
      <g>
       <use xlink:href="#m8e12e98311" x="79.5" y="82.980504" style="stroke: #000000; stroke-width: 0.6"/>
      </g>
     </g>
    </g>
    <g id="ytick_43">
     <g id="line2d_64">
      <g>
       <use xlink:href="#m8e12e98311" x="79.5" y="69.145783" style="stroke: #000000; stroke-width: 0.6"/>
      </g>
     </g>
    </g>
    <g id="ytick_44">
     <g id="line2d_65">
      <g>
       <use xlink:href="#m8e12e98311" x="79.5" y="41.476342" style="stroke: #000000; stroke-width: 0.6"/>
      </g>
     </g>
    </g>
    <g id="text_17">
     <!-- ACF $(\mathrm{W} / \mathrm{m}^2)^2$ -->
     <g transform="translate(31.275 426.339) rotate(-90) scale(0.3 -0.3)">
      <defs>
       <path id="LiberationSans-41" d="M 3647 0 
L 3144 1288 
L 1138 1288 
L 631 0 
L 13 0 
L 1809 4403 
L 2488 4403 
L 4256 0 
L 3647 0 
z
M 2141 3953 
L 2113 3866 
Q 2034 3606 1881 3200 
L 1319 1753 
L 2966 1753 
L 2400 3206 
Q 2313 3422 2225 3694 
L 2141 3953 
z
" transform="scale(0.015625)"/>
       <path id="LiberationSans-43" d="M 2475 3981 
Q 1744 3981 1337 3511 
Q 931 3041 931 2222 
Q 931 1413 1354 920 
Q 1778 428 2500 428 
Q 3425 428 3891 1344 
L 4378 1100 
Q 4106 531 3614 234 
Q 3122 -63 2472 -63 
Q 1806 -63 1320 214 
Q 834 491 579 1005 
Q 325 1519 325 2222 
Q 325 3275 894 3872 
Q 1463 4469 2469 4469 
Q 3172 4469 3644 4194 
Q 4116 3919 4338 3378 
L 3772 3191 
Q 3619 3575 3280 3778 
Q 2941 3981 2475 3981 
z
" transform="scale(0.015625)"/>
       <path id="LiberationSans-46" d="M 1122 3916 
L 1122 2278 
L 3578 2278 
L 3578 1784 
L 1122 1784 
L 1122 0 
L 525 0 
L 525 4403 
L 3653 4403 
L 3653 3916 
L 1122 3916 
z
" transform="scale(0.015625)"/>
       <path id="STIXGeneral-Regular-28" d="M 1946 -1030 
L 1869 -1133 
Q 1126 -710 716 32 
Q 307 774 307 1613 
Q 307 3386 1888 4326 
L 1946 4224 
Q 1293 3667 1075 3126 
Q 858 2586 858 1632 
Q 858 685 1082 96 
Q 1306 -493 1946 -1030 
z
" transform="scale(0.015625)"/>
       <path id="STIXGeneral-Regular-57" d="M 5965 4237 
L 5965 4115 
Q 5709 4064 5616 3990 
Q 5523 3917 5434 3667 
Q 4704 1709 4128 -70 
L 4032 -70 
Q 3642 1011 3008 2637 
L 2022 -70 
L 1926 -70 
Q 1709 576 1277 1753 
Q 845 2931 698 3347 
Q 538 3808 406 3958 
Q 275 4109 32 4115 
L 32 4237 
L 1594 4237 
L 1594 4115 
Q 1357 4109 1270 4064 
Q 1184 4019 1184 3917 
Q 1184 3808 1254 3616 
L 2176 1210 
L 2842 3021 
L 2662 3501 
Q 2509 3917 2400 4013 
Q 2291 4109 2010 4115 
L 2010 4237 
L 3706 4237 
L 3706 4115 
Q 3213 4102 3213 3891 
Q 3213 3808 3322 3520 
L 4237 1190 
L 5043 3360 
Q 5152 3667 5152 3853 
Q 5152 4109 4704 4115 
L 4704 4237 
L 5965 4237 
z
" transform="scale(0.015625)"/>
       <path id="STIXGeneral-Regular-2f" d="M 1837 4326 
L 378 -90 
L -58 -90 
L 1408 4326 
L 1837 4326 
z
" transform="scale(0.015625)"/>
       <path id="STIXGeneral-Regular-6d" d="M 4960 0 
L 3565 0 
L 3565 96 
Q 3834 122 3907 208 
Q 3981 294 3981 576 
L 3981 1894 
Q 3981 2278 3869 2444 
Q 3757 2611 3488 2611 
Q 3264 2611 3107 2521 
Q 2950 2432 2803 2221 
L 2803 608 
Q 2803 301 2896 201 
Q 2989 102 3264 96 
L 3264 0 
L 1830 0 
L 1830 96 
Q 2112 115 2189 188 
Q 2266 262 2266 550 
L 2266 1901 
Q 2266 2611 1850 2611 
Q 1670 2611 1468 2531 
Q 1267 2451 1171 2336 
Q 1088 2240 1088 2227 
L 1088 448 
Q 1088 243 1177 176 
Q 1267 109 1523 96 
L 1523 0 
L 102 0 
L 102 96 
Q 371 102 460 195 
Q 550 288 550 563 
L 550 2150 
Q 550 2387 499 2480 
Q 448 2573 326 2573 
Q 230 2573 122 2547 
L 122 2656 
Q 557 2778 1011 2944 
L 1062 2925 
L 1062 2451 
L 1075 2451 
Q 1363 2752 1584 2848 
Q 1805 2944 2054 2944 
Q 2560 2944 2733 2406 
Q 3232 2944 3776 2944 
Q 4518 2944 4518 1792 
L 4518 493 
Q 4518 282 4582 202 
Q 4646 122 4794 109 
L 4960 96 
L 4960 0 
z
" transform="scale(0.015625)"/>
       <path id="STIXGeneral-Regular-32" d="M 3034 877 
L 2688 0 
L 186 0 
L 186 77 
L 1325 1286 
Q 1773 1754 1965 2144 
Q 2157 2534 2157 2950 
Q 2157 3379 1920 3616 
Q 1683 3853 1267 3853 
Q 922 3853 720 3673 
Q 518 3494 326 3021 
L 192 3053 
Q 301 3648 630 3987 
Q 960 4326 1523 4326 
Q 2054 4326 2380 4006 
Q 2707 3686 2707 3200 
Q 2707 2477 1888 1613 
L 832 486 
L 2330 486 
Q 2541 486 2665 569 
Q 2790 653 2944 915 
L 3034 877 
z
" transform="scale(0.015625)"/>
       <path id="STIXGeneral-Regular-29" d="M 186 4224 
L 262 4326 
Q 992 3891 1408 3148 
Q 1824 2406 1824 1581 
Q 1824 -166 243 -1133 
L 186 -1030 
Q 845 -486 1059 54 
Q 1274 595 1274 1562 
Q 1274 2534 1059 3120 
Q 845 3706 186 4224 
z
" transform="scale(0.015625)"/>
      </defs>
      <use xlink:href="#LiberationSans-41" transform="translate(0 0.409375)"/>
      <use xlink:href="#LiberationSans-43" transform="translate(66.699219 0.409375)"/>
      <use xlink:href="#LiberationSans-46" transform="translate(138.916016 0.409375)"/>
      <use xlink:href="#LiberationSans-20" transform="translate(200 0.409375)"/>
      <use xlink:href="#STIXGeneral-Regular-28" transform="translate(227.783203 0.409375)"/>
      <use xlink:href="#STIXGeneral-Regular-57" transform="translate(261.083191 0.409375)"/>
      <use xlink:href="#STIXGeneral-Regular-2f" transform="translate(355.483185 0.409375)"/>
      <use xlink:href="#STIXGeneral-Regular-6d" transform="translate(383.283173 0.409375)"/>
      <use xlink:href="#STIXGeneral-Regular-32" transform="translate(462.626442 35.684375) scale(0.7)"/>
      <use xlink:href="#STIXGeneral-Regular-29" transform="translate(502.035806 0.409375)"/>
      <use xlink:href="#STIXGeneral-Regular-32" transform="translate(536.879075 35.684375) scale(0.7)"/>
     </g>
    </g>
    <g id="text_18">
     <!-- $\times\mathdefault{10^{18}}\mathdefault{}$ -->
     <g transform="translate(79.5 36.1875) scale(0.4 -0.4)">
      <defs>
       <path id="STIXGeneral-Regular-d7" d="M 3821 141 
L 3526 -160 
L 2048 1312 
L 570 -160 
L 275 134 
L 1747 1613 
L 275 3091 
L 576 3386 
L 2048 1914 
L 3526 3386 
L 3821 3098 
L 2349 1613 
L 3821 141 
z
" transform="scale(0.015625)"/>
      </defs>
      <use xlink:href="#STIXGeneral-Regular-d7" transform="translate(0 0.140625)"/>
      <use xlink:href="#LiberationSans-31" transform="translate(63.999985 0.140625)"/>
      <use xlink:href="#LiberationSans-30" transform="translate(119.615219 0.140625)"/>
      <use xlink:href="#LiberationSans-31" transform="translate(176.154946 37.120312) scale(0.7)"/>
      <use xlink:href="#LiberationSans-38" transform="translate(215.08561 37.120312) scale(0.7)"/>
     </g>
    </g>
   </g>
   <g id="line2d_66">
    <path d="M 107.865545 66.514909 
L 107.979018 67.284851 
L 108.149229 71.310827 
L 108.432913 85.48019 
L 108.83007 119.779574 
L 109.397438 192.319185 
L 111.893855 548.301019 
L 112.461223 587.690635 
L 112.915117 605.282944 
L 113.255537 611.561336 
L 113.482485 613.001803 
L 113.595958 613.014536 
L 113.766168 612.257555 
L 114.049852 609.235852 
L 114.503746 601.005639 
L 115.298061 581.221802 
L 119.780265 462.909237 
L 120.517843 450.117235 
L 121.085211 443.691526 
L 121.539105 440.810622 
L 121.879526 439.916972 
L 122.049736 439.849907 
L 122.219946 440.018523 
L 122.50363 440.781558 
L 122.900787 442.729759 
L 123.468155 446.875477 
L 124.43268 455.915553 
L 126.078046 471.127476 
L 126.985834 477.439224 
L 127.723412 481.081317 
L 128.29078 482.918833 
L 128.744674 483.780898 
L 129.141831 484.102763 
L 129.425515 484.09614 
L 129.765936 483.843507 
L 130.163093 483.238921 
L 130.673724 482.034662 
L 131.411302 479.630743 
L 132.4893 475.224528 
L 135.950243 460.409643 
L 136.51761 459.145916 
L 136.914768 458.754735 
L 137.198452 458.761881 
L 137.482135 459.022941 
L 137.822556 459.677041 
L 138.27645 461.10688 
L 138.900555 463.959852 
L 140.2055 471.435299 
L 141.056552 475.55892 
L 141.623919 477.35714 
L 142.077813 478.162438 
L 142.418234 478.416944 
L 142.758654 478.412476 
L 143.155812 478.148232 
L 143.723179 477.461125 
L 145.765703 474.761023 
L 146.673491 473.561351 
L 147.297596 472.351815 
L 147.978437 470.513388 
L 148.999698 466.988058 
L 150.02096 463.69837 
L 150.588328 462.573913 
L 150.985485 462.235512 
L 151.269169 462.241662 
L 151.60959 462.52081 
L 152.006747 463.195105 
L 152.574115 464.690357 
L 153.652113 468.393564 
L 154.673375 471.600474 
L 155.410953 473.211476 
L 156.035057 474.07601 
L 156.659162 474.564161 
L 157.283266 474.764585 
L 157.90737 474.727512 
L 158.531475 474.451027 
L 159.155579 473.902089 
L 159.83642 472.966249 
L 160.687472 471.367887 
L 162.616522 467.591974 
L 163.240626 466.873725 
L 163.807994 466.548684 
L 164.318625 466.508438 
L 164.885992 466.695108 
L 165.62357 467.196094 
L 166.644832 468.180897 
L 167.72283 469.512851 
L 168.857566 471.280786 
L 170.502932 473.844813 
L 171.127036 474.39802 
L 171.58093 474.54712 
L 172.034824 474.466412 
L 172.545455 474.11901 
L 173.226296 473.333423 
L 175.382294 470.602149 
L 176.176608 470.061813 
L 179.977971 468.177772 
L 180.545339 468.1914 
L 181.05597 468.428232 
L 181.623337 468.943613 
L 182.417652 469.996793 
L 183.892808 471.97144 
L 184.516912 472.441507 
L 185.08428 472.613134 
L 185.708384 472.569466 
L 186.729646 472.232166 
L 189.793431 470.981342 
L 190.70122 470.168112 
L 192.176376 468.823078 
L 192.80048 468.575454 
L 193.311111 468.597607 
L 193.878478 468.847657 
L 194.72953 469.51644 
L 195.977739 470.484856 
L 196.715317 470.75829 
L 197.452895 470.783221 
L 200.232996 470.612251 
L 201.651415 470.691848 
L 202.44573 470.492424 
L 203.410255 469.99127 
L 204.828674 469.253085 
L 205.566252 469.136558 
L 206.30383 469.264603 
L 207.325091 469.710715 
L 208.630037 470.238919 
L 209.481088 470.333695 
L 210.559087 470.2049 
L 212.09098 470.042439 
L 213.282452 470.172187 
L 217.140551 470.95214 
L 218.275287 471.580896 
L 219.750443 472.381046 
L 220.488021 472.517812 
L 221.225598 472.411478 
L 222.133387 472.02688 
L 224.34612 471.0029 
L 226.729064 470.109285 
L 229.395692 468.768456 
L 230.076534 468.761054 
L 230.814111 468.977685 
L 231.835373 469.536464 
L 234.388528 470.99734 
L 237.622523 472.502701 
L 238.360101 472.539381 
L 239.040942 472.33332 
L 239.721783 471.885301 
L 240.629572 470.984373 
L 242.955779 468.513304 
L 243.750094 468.047563 
L 244.487671 467.858277 
L 245.281986 467.894926 
L 246.133038 468.170497 
L 247.154299 468.760076 
L 248.742929 469.992202 
L 250.331558 471.127737 
L 251.806714 471.881565 
L 253.508817 472.519904 
L 254.416605 472.637143 
L 255.097446 472.506182 
L 255.778287 472.135694 
L 256.515865 471.470479 
L 257.820811 469.916592 
L 258.842073 468.849204 
L 259.522914 468.429427 
L 260.147018 468.308761 
L 260.771123 468.430491 
L 261.565437 468.847235 
L 264.118592 470.387968 
L 268.487322 471.994492 
L 269.168164 471.948172 
L 269.849005 471.675976 
L 270.756793 471.041809 
L 272.458896 469.811601 
L 273.309947 469.510055 
L 274.217736 469.446622 
L 275.579418 469.617834 
L 277.451731 470.062392 
L 279.437518 470.814364 
L 280.685727 471.157308 
L 281.650252 471.19733 
L 282.784987 471.010813 
L 285.054457 470.344839 
L 286.870034 469.634119 
L 288.742347 468.886154 
L 289.536662 468.826031 
L 290.27424 468.997934 
L 291.182028 469.468622 
L 293.281288 470.658424 
L 294.13234 470.831027 
L 295.267075 470.803847 
L 296.855704 470.7781 
L 298.274123 471.027409 
L 299.579069 471.180557 
L 300.486857 471.058863 
L 301.564856 470.673422 
L 303.493906 469.948799 
L 304.401694 469.871182 
L 305.309482 470.014732 
L 306.557691 470.460175 
L 309.054108 471.385628 
L 310.24558 471.577897 
L 311.210105 471.526315 
L 312.117894 471.264384 
L 313.195892 470.701115 
L 315.69231 469.274606 
L 316.600098 469.081281 
L 317.564623 469.114529 
L 323.181562 469.962841 
L 324.713455 470.738689 
L 325.904927 471.221546 
L 326.755979 471.335279 
L 327.720504 471.226764 
L 332.599865 470.071483 
L 333.961548 469.434344 
L 335.266493 468.881681 
L 336.004071 468.792689 
L 336.684912 468.920386 
L 337.479227 469.311805 
L 339.01112 470.413012 
L 339.975644 470.946992 
L 340.769959 471.130188 
L 341.564274 471.068847 
L 342.585536 470.735713 
L 344.628059 470.013468 
L 345.592584 469.937816 
L 346.670583 470.092531 
L 349.620894 470.675191 
L 350.92584 470.593614 
L 354.216572 470.25185 
L 355.748465 470.437705 
L 357.620778 470.629827 
L 360.798037 470.776991 
L 364.088769 471.417622 
L 365.053294 471.257794 
L 366.188029 470.827237 
L 367.890132 469.89588 
L 369.478762 469.103549 
L 370.500023 468.842846 
L 371.407811 468.835201 
L 372.372336 469.04687 
L 373.507072 469.530385 
L 375.038964 470.451231 
L 376.797804 471.470943 
L 377.762329 471.762485 
L 378.670117 471.801857 
L 379.748116 471.613829 
L 381.053061 471.16022 
L 382.30127 470.50321 
L 385.365055 468.711933 
L 386.045896 468.666445 
L 386.726738 468.836184 
L 387.577789 469.303777 
L 390.471364 471.152027 
L 391.379152 471.345652 
L 392.513888 471.342324 
L 394.442937 471.073169 
L 399.83293 470.189486 
L 401.421559 470.309957 
L 404.712292 470.680634 
L 405.733553 470.474814 
L 409.081022 469.579784 
L 409.932074 469.731082 
L 410.953336 470.152411 
L 413.619964 471.379055 
L 414.584489 471.521085 
L 415.549013 471.43491 
L 416.570275 471.104873 
L 417.875221 470.413583 
L 419.63406 469.488283 
L 420.485112 469.289121 
L 421.336163 469.323959 
L 422.414162 469.625751 
L 424.683632 470.322287 
L 426.045315 470.451088 
L 428.201312 470.400199 
L 431.945938 470.269965 
L 436.030985 470.537058 
L 440.910347 470.179966 
L 443.236554 470.428444 
L 449.761282 471.077215 
L 451.293175 470.998446 
L 452.76833 470.707368 
L 454.640644 470.080505 
L 456.059063 469.692953 
L 457.080324 469.648362 
L 458.271796 469.840491 
L 460.200846 470.15661 
L 461.562529 470.09641 
L 463.491579 470.021587 
L 467.009258 470.149687 
L 470.12978 469.723216 
L 471.207779 469.931379 
L 474.441774 470.73752 
L 478.413347 471.063547 
L 479.831767 471.286055 
L 480.739555 471.200832 
L 481.70408 470.873262 
L 485.278496 469.38716 
L 486.186284 469.410446 
L 487.094072 469.65848 
L 488.399018 470.279259 
L 489.817437 470.901612 
L 490.668488 471.037382 
L 491.51954 470.942213 
L 492.767749 470.532385 
L 494.072694 470.173533 
L 494.923746 470.165111 
L 495.888271 470.38853 
L 498.157741 471.018557 
L 499.008793 470.95849 
L 500.143528 470.620824 
L 501.618684 470.198985 
L 502.526472 470.177463 
L 503.717944 470.403569 
L 505.136363 470.63022 
L 506.100888 470.539986 
L 509.278147 469.988555 
L 510.242672 470.232254 
L 512.568879 470.937554 
L 513.419931 470.90058 
L 514.497929 470.603911 
L 516.313506 470.08401 
L 517.27803 470.07307 
L 518.582976 470.316658 
L 519.944658 470.505392 
L 520.909183 470.404406 
L 522.327602 469.981401 
L 523.575811 469.696905 
L 524.540336 469.713824 
L 525.731808 469.98764 
L 527.774332 470.473358 
L 529.249488 470.535825 
L 531.121801 470.639585 
L 534.29906 471.009278 
L 535.377058 470.767274 
L 537.873476 470.083392 
L 539.008211 470.096211 
L 541.220945 470.192697 
L 542.412417 469.953129 
L 544.11452 469.605276 
L 545.022308 469.673807 
L 546.04357 469.994344 
L 547.97262 470.653024 
L 548.937145 470.715836 
L 552.738508 470.666684 
L 554.327137 470.78132 
L 555.405136 470.621279 
L 559.036288 469.823445 
L 560.22776 469.991545 
L 563.461756 470.59202 
L 564.880175 470.537701 
L 566.468804 470.238149 
L 569.362379 469.623851 
L 570.440378 469.665129 
L 571.63185 469.948681 
L 573.787847 470.769885 
L 575.206266 471.173686 
L 576.284265 471.263012 
L 577.362263 471.124103 
L 578.496998 470.746334 
L 582.184888 469.296924 
L 583.092676 469.320446 
L 584.170675 469.58357 
L 586.099725 470.336317 
L 588.425932 471.186379 
L 589.560667 471.36266 
L 590.581929 471.300718 
L 591.830138 470.985003 
L 594.156345 470.101306 
L 595.858448 469.565544 
L 596.993183 469.437586 
L 598.184655 469.536274 
L 600.113705 469.968307 
L 605.617171 471.250165 
L 606.751907 471.150697 
L 608.227062 470.770384 
L 610.496533 470.199762 
L 613.446845 469.804267 
L 614.75179 469.79091 
L 615.886525 470.012681 
L 618.893574 470.774911 
L 619.914836 470.683652 
L 623.148831 470.196009 
L 624.453777 470.400546 
L 626.212616 470.653002 
L 627.290615 470.557343 
L 628.482087 470.21232 
L 631.489135 469.217899 
L 632.510397 469.173112 
L 633.531659 469.350182 
L 635.006815 469.868074 
L 637.049338 470.544019 
L 639.602493 471.076521 
L 641.134385 471.221627 
L 642.325857 471.10709 
L 643.85775 470.701365 
L 645.61659 470.279641 
L 646.864798 470.233078 
L 650.325741 470.297965 
L 652.935632 470.062659 
L 654.580998 470.267797 
L 656.056154 470.363806 
L 659.006466 470.384957 
L 660.141201 470.765897 
L 661.72983 471.292067 
L 662.580882 471.325993 
L 663.48867 471.128631 
L 668.027611 469.757319 
L 669.502767 469.611261 
L 670.467292 469.730842 
L 671.488554 470.089318 
L 673.644551 470.92306 
L 674.495602 470.953748 
L 675.176443 470.812721 
L 675.176443 470.812721 
" clip-path="url(#p59d934d2ea)" style="fill: none; stroke: #ff0000; stroke-width: 1.5; stroke-linecap: square"/>
   </g>
   <g id="patch_3">
    <path d="M 79.5 640.3905 
L 79.5 39.1875 
" style="fill: none; stroke: #000000; stroke-width: 0.8; stroke-linejoin: miter; stroke-linecap: square"/>
   </g>
   <g id="patch_4">
    <path d="M 703.541988 640.3905 
L 703.541988 39.1875 
" style="fill: none; stroke: #000000; stroke-width: 0.8; stroke-linejoin: miter; stroke-linecap: square"/>
   </g>
   <g id="patch_5">
    <path d="M 79.5 640.3905 
L 703.541988 640.3905 
" style="fill: none; stroke: #000000; stroke-width: 0.8; stroke-linejoin: miter; stroke-linecap: square"/>
   </g>
   <g id="patch_6">
    <path d="M 79.5 39.1875 
L 703.541988 39.1875 
" style="fill: none; stroke: #000000; stroke-width: 0.8; stroke-linejoin: miter; stroke-linecap: square"/>
   </g>
  </g>
 </g>
 <defs>
  <clipPath id="p59d934d2ea">
   <rect x="79.5" y="39.1875" width="624.041988" height="601.203"/>
  </clipPath>
 </defs>
</svg>
