<?xml version="1.0" encoding="utf-8" standalone="no"?>
<!DOCTYPE svg PUBLIC "-//W3C//DTD SVG 1.1//EN"
  "http://www.w3.org/Graphics/SVG/1.1/DTD/svg11.dtd">
<svg xmlns:xlink="http://www.w3.org/1999/xlink" width="711.691113pt" height="711.02175pt" viewBox="0 0 711.691113 711.02175" xmlns="http://www.w3.org/2000/svg" version="1.1">
 <metadata>
  <rdf:RDF xmlns:dc="http://purl.org/dc/elements/1.1/" xmlns:cc="http://creativecommons.org/ns#" xmlns:rdf="http://www.w3.org/1999/02/22-rdf-syntax-ns#">
   <cc:Work>
    <dc:type rdf:resource="http://purl.org/dc/dcmitype/StillImage"/>
    <dc:date>2025-02-06T00:36:51.840188</dc:date>
    <dc:format>image/svg+xml</dc:format>
    <dc:creator>
     <cc:Agent>
      <dc:title>Matplotlib v3.9.3, https://matplotlib.org/</dc:title>
     </cc:Agent>
    </dc:creator>
   </cc:Work>
  </rdf:RDF>
 </metadata>
 <defs>
  <style type="text/css">*{stroke-linejoin: round; stroke-linecap: butt}</style>
 </defs>
 <g id="figure_1">
  <g id="patch_1">
   <path d="M 0 711.02175 
L 711.691113 711.02175 
L 711.691113 0 
L 0 0 
z
" style="fill: #ffffff"/>
  </g>
  <g id="axes_1">
   <g id="patch_2">
    <path d="M 84.665625 640.3905 
L 704.491113 640.3905 
L 704.491113 39.1875 
L 84.665625 39.1875 
z
" style="fill: #ffffff"/>
   </g>
   <g id="matplotlib.axis_1">
    <g id="xtick_1">
     <g id="line2d_1">
      <defs>
       <path id="mfc3874e1f7" d="M 0 0 
L 0 -3.5 
" style="stroke: #000000; stroke-width: 0.8"/>
      </defs>
      <g>
       <use xlink:href="#mfc3874e1f7" x="112.783152" y="640.3905" style="stroke: #000000; stroke-width: 0.8"/>
      </g>
     </g>
     <g id="text_1">
      <!-- 0 -->
      <g transform="translate(104.441746 665.631125) scale(0.3 -0.3)">
       <defs>
        <path id="LiberationSans-30" d="M 3309 2203 
Q 3309 1100 2920 518 
Q 2531 -63 1772 -63 
Q 1013 -63 631 515 
Q 250 1094 250 2203 
Q 250 3338 620 3903 
Q 991 4469 1791 4469 
Q 2569 4469 2939 3897 
Q 3309 3325 3309 2203 
z
M 2738 2203 
Q 2738 3156 2517 3584 
Q 2297 4013 1791 4013 
Q 1272 4013 1045 3591 
Q 819 3169 819 2203 
Q 819 1266 1048 831 
Q 1278 397 1778 397 
Q 2275 397 2506 840 
Q 2738 1284 2738 2203 
z
" transform="scale(0.015625)"/>
       </defs>
       <use xlink:href="#LiberationSans-30"/>
      </g>
     </g>
    </g>
    <g id="xtick_2">
     <g id="line2d_2">
      <g>
       <use xlink:href="#mfc3874e1f7" x="225.501239" y="640.3905" style="stroke: #000000; stroke-width: 0.8"/>
      </g>
     </g>
     <g id="text_2">
      <!-- 2 -->
      <g transform="translate(217.159832 665.631125) scale(0.3 -0.3)">
       <defs>
        <path id="LiberationSans-32" d="M 322 0 
L 322 397 
Q 481 763 711 1042 
Q 941 1322 1194 1548 
Q 1447 1775 1695 1969 
Q 1944 2163 2144 2356 
Q 2344 2550 2467 2762 
Q 2591 2975 2591 3244 
Q 2591 3606 2378 3806 
Q 2166 4006 1788 4006 
Q 1428 4006 1195 3811 
Q 963 3616 922 3263 
L 347 3316 
Q 409 3844 795 4156 
Q 1181 4469 1788 4469 
Q 2453 4469 2811 4155 
Q 3169 3841 3169 3263 
Q 3169 3006 3051 2753 
Q 2934 2500 2703 2247 
Q 2472 1994 1819 1463 
Q 1459 1169 1246 933 
Q 1034 697 941 478 
L 3238 478 
L 3238 0 
L 322 0 
z
" transform="scale(0.015625)"/>
       </defs>
       <use xlink:href="#LiberationSans-32"/>
      </g>
     </g>
    </g>
    <g id="xtick_3">
     <g id="line2d_3">
      <g>
       <use xlink:href="#mfc3874e1f7" x="338.219326" y="640.3905" style="stroke: #000000; stroke-width: 0.8"/>
      </g>
     </g>
     <g id="text_3">
      <!-- 4 -->
      <g transform="translate(329.877919 665.631125) scale(0.3 -0.3)">
       <defs>
        <path id="LiberationSans-34" d="M 2753 997 
L 2753 0 
L 2222 0 
L 2222 997 
L 147 997 
L 147 1434 
L 2163 4403 
L 2753 4403 
L 2753 1441 
L 3372 1441 
L 3372 997 
L 2753 997 
z
M 2222 3769 
Q 2216 3750 2134 3603 
Q 2053 3456 2013 3397 
L 884 1734 
L 716 1503 
L 666 1441 
L 2222 1441 
L 2222 3769 
z
" transform="scale(0.015625)"/>
       </defs>
       <use xlink:href="#LiberationSans-34"/>
      </g>
     </g>
    </g>
    <g id="xtick_4">
     <g id="line2d_4">
      <g>
       <use xlink:href="#mfc3874e1f7" x="450.937413" y="640.3905" style="stroke: #000000; stroke-width: 0.8"/>
      </g>
     </g>
     <g id="text_4">
      <!-- 6 -->
      <g transform="translate(442.596006 665.631125) scale(0.3 -0.3)">
       <defs>
        <path id="LiberationSans-36" d="M 3278 1441 
Q 3278 744 2900 340 
Q 2522 -63 1856 -63 
Q 1113 -63 719 490 
Q 325 1044 325 2100 
Q 325 3244 734 3856 
Q 1144 4469 1900 4469 
Q 2897 4469 3156 3572 
L 2619 3475 
Q 2453 4013 1894 4013 
Q 1413 4013 1148 3564 
Q 884 3116 884 2266 
Q 1038 2550 1316 2698 
Q 1594 2847 1953 2847 
Q 2563 2847 2920 2465 
Q 3278 2084 3278 1441 
z
M 2706 1416 
Q 2706 1894 2472 2153 
Q 2238 2413 1819 2413 
Q 1425 2413 1183 2183 
Q 941 1953 941 1550 
Q 941 1041 1192 716 
Q 1444 391 1838 391 
Q 2244 391 2475 664 
Q 2706 938 2706 1416 
z
" transform="scale(0.015625)"/>
       </defs>
       <use xlink:href="#LiberationSans-36"/>
      </g>
     </g>
    </g>
    <g id="xtick_5">
     <g id="line2d_5">
      <g>
       <use xlink:href="#mfc3874e1f7" x="563.6555" y="640.3905" style="stroke: #000000; stroke-width: 0.8"/>
      </g>
     </g>
     <g id="text_5">
      <!-- 8 -->
      <g transform="translate(555.314093 665.631125) scale(0.3 -0.3)">
       <defs>
        <path id="LiberationSans-38" d="M 3281 1228 
Q 3281 619 2893 278 
Q 2506 -63 1781 -63 
Q 1075 -63 676 271 
Q 278 606 278 1222 
Q 278 1653 525 1947 
Q 772 2241 1156 2303 
L 1156 2316 
Q 797 2400 589 2681 
Q 381 2963 381 3341 
Q 381 3844 757 4156 
Q 1134 4469 1769 4469 
Q 2419 4469 2795 4162 
Q 3172 3856 3172 3334 
Q 3172 2956 2962 2675 
Q 2753 2394 2391 2322 
L 2391 2309 
Q 2813 2241 3047 1952 
Q 3281 1663 3281 1228 
z
M 2588 3303 
Q 2588 4050 1769 4050 
Q 1372 4050 1164 3862 
Q 956 3675 956 3303 
Q 956 2925 1170 2726 
Q 1384 2528 1775 2528 
Q 2172 2528 2380 2711 
Q 2588 2894 2588 3303 
z
M 2697 1281 
Q 2697 1691 2453 1898 
Q 2209 2106 1769 2106 
Q 1341 2106 1100 1882 
Q 859 1659 859 1269 
Q 859 359 1788 359 
Q 2247 359 2472 579 
Q 2697 800 2697 1281 
z
" transform="scale(0.015625)"/>
       </defs>
       <use xlink:href="#LiberationSans-38"/>
      </g>
     </g>
    </g>
    <g id="xtick_6">
     <g id="line2d_6">
      <g>
       <use xlink:href="#mfc3874e1f7" x="676.373586" y="640.3905" style="stroke: #000000; stroke-width: 0.8"/>
      </g>
     </g>
     <g id="text_6">
      <!-- 10 -->
      <g transform="translate(659.690774 665.631125) scale(0.3 -0.3)">
       <defs>
        <path id="LiberationSans-31" d="M 488 0 
L 488 478 
L 1609 478 
L 1609 3866 
L 616 3156 
L 616 3688 
L 1656 4403 
L 2175 4403 
L 2175 478 
L 3247 478 
L 3247 0 
L 488 0 
z
" transform="scale(0.015625)"/>
       </defs>
       <use xlink:href="#LiberationSans-31"/>
       <use xlink:href="#LiberationSans-30" x="55.615234"/>
      </g>
     </g>
    </g>
    <g id="xtick_7">
     <g id="line2d_7">
      <defs>
       <path id="m65a3b2ff83" d="M 0 0 
L 0 -2 
" style="stroke: #000000; stroke-width: 0.6"/>
      </defs>
      <g>
       <use xlink:href="#m65a3b2ff83" x="140.962674" y="640.3905" style="stroke: #000000; stroke-width: 0.6"/>
      </g>
     </g>
    </g>
    <g id="xtick_8">
     <g id="line2d_8">
      <g>
       <use xlink:href="#m65a3b2ff83" x="169.142195" y="640.3905" style="stroke: #000000; stroke-width: 0.6"/>
      </g>
     </g>
    </g>
    <g id="xtick_9">
     <g id="line2d_9">
      <g>
       <use xlink:href="#m65a3b2ff83" x="197.321717" y="640.3905" style="stroke: #000000; stroke-width: 0.6"/>
      </g>
     </g>
    </g>
    <g id="xtick_10">
     <g id="line2d_10">
      <g>
       <use xlink:href="#m65a3b2ff83" x="253.68076" y="640.3905" style="stroke: #000000; stroke-width: 0.6"/>
      </g>
     </g>
    </g>
    <g id="xtick_11">
     <g id="line2d_11">
      <g>
       <use xlink:href="#m65a3b2ff83" x="281.860282" y="640.3905" style="stroke: #000000; stroke-width: 0.6"/>
      </g>
     </g>
    </g>
    <g id="xtick_12">
     <g id="line2d_12">
      <g>
       <use xlink:href="#m65a3b2ff83" x="310.039804" y="640.3905" style="stroke: #000000; stroke-width: 0.6"/>
      </g>
     </g>
    </g>
    <g id="xtick_13">
     <g id="line2d_13">
      <g>
       <use xlink:href="#m65a3b2ff83" x="366.398847" y="640.3905" style="stroke: #000000; stroke-width: 0.6"/>
      </g>
     </g>
    </g>
    <g id="xtick_14">
     <g id="line2d_14">
      <g>
       <use xlink:href="#m65a3b2ff83" x="394.578369" y="640.3905" style="stroke: #000000; stroke-width: 0.6"/>
      </g>
     </g>
    </g>
    <g id="xtick_15">
     <g id="line2d_15">
      <g>
       <use xlink:href="#m65a3b2ff83" x="422.757891" y="640.3905" style="stroke: #000000; stroke-width: 0.6"/>
      </g>
     </g>
    </g>
    <g id="xtick_16">
     <g id="line2d_16">
      <g>
       <use xlink:href="#m65a3b2ff83" x="479.116934" y="640.3905" style="stroke: #000000; stroke-width: 0.6"/>
      </g>
     </g>
    </g>
    <g id="xtick_17">
     <g id="line2d_17">
      <g>
       <use xlink:href="#m65a3b2ff83" x="507.296456" y="640.3905" style="stroke: #000000; stroke-width: 0.6"/>
      </g>
     </g>
    </g>
    <g id="xtick_18">
     <g id="line2d_18">
      <g>
       <use xlink:href="#m65a3b2ff83" x="535.475978" y="640.3905" style="stroke: #000000; stroke-width: 0.6"/>
      </g>
     </g>
    </g>
    <g id="xtick_19">
     <g id="line2d_19">
      <g>
       <use xlink:href="#m65a3b2ff83" x="591.835021" y="640.3905" style="stroke: #000000; stroke-width: 0.6"/>
      </g>
     </g>
    </g>
    <g id="xtick_20">
     <g id="line2d_20">
      <g>
       <use xlink:href="#m65a3b2ff83" x="620.014543" y="640.3905" style="stroke: #000000; stroke-width: 0.6"/>
      </g>
     </g>
    </g>
    <g id="xtick_21">
     <g id="line2d_21">
      <g>
       <use xlink:href="#m65a3b2ff83" x="648.194065" y="640.3905" style="stroke: #000000; stroke-width: 0.6"/>
      </g>
     </g>
    </g>
    <g id="text_7">
     <!-- Time ps -->
     <g transform="translate(341.801807 697.59675) scale(0.3 -0.3)">
      <defs>
       <path id="LiberationSans-54" d="M 2250 3916 
L 2250 0 
L 1656 0 
L 1656 3916 
L 144 3916 
L 144 4403 
L 3763 4403 
L 3763 3916 
L 2250 3916 
z
" transform="scale(0.015625)"/>
       <path id="LiberationSans-69" d="M 428 4100 
L 428 4638 
L 991 4638 
L 991 4100 
L 428 4100 
z
M 428 0 
L 428 3381 
L 991 3381 
L 991 0 
L 428 0 
z
" transform="scale(0.015625)"/>
       <path id="LiberationSans-6d" d="M 2400 0 
L 2400 2144 
Q 2400 2634 2265 2821 
Q 2131 3009 1781 3009 
Q 1422 3009 1212 2734 
Q 1003 2459 1003 1959 
L 1003 0 
L 444 0 
L 444 2659 
Q 444 3250 425 3381 
L 956 3381 
Q 959 3366 962 3297 
Q 966 3228 970 3139 
Q 975 3050 981 2803 
L 991 2803 
Q 1172 3163 1406 3303 
Q 1641 3444 1978 3444 
Q 2363 3444 2586 3291 
Q 2809 3138 2897 2803 
L 2906 2803 
Q 3081 3144 3329 3294 
Q 3578 3444 3931 3444 
Q 4444 3444 4676 3166 
Q 4909 2888 4909 2253 
L 4909 0 
L 4353 0 
L 4353 2144 
Q 4353 2634 4218 2821 
Q 4084 3009 3734 3009 
Q 3366 3009 3161 2736 
Q 2956 2463 2956 1959 
L 2956 0 
L 2400 0 
z
" transform="scale(0.015625)"/>
       <path id="LiberationSans-65" d="M 863 1572 
Q 863 991 1103 675 
Q 1344 359 1806 359 
Q 2172 359 2392 506 
Q 2613 653 2691 878 
L 3184 738 
Q 2881 -63 1806 -63 
Q 1056 -63 664 384 
Q 272 831 272 1713 
Q 272 2550 664 2997 
Q 1056 3444 1784 3444 
Q 3275 3444 3275 1647 
L 3275 1572 
L 863 1572 
z
M 2694 2003 
Q 2647 2538 2422 2783 
Q 2197 3028 1775 3028 
Q 1366 3028 1127 2754 
Q 888 2481 869 2003 
L 2694 2003 
z
" transform="scale(0.015625)"/>
       <path id="LiberationSans-20" transform="scale(0.015625)"/>
       <path id="LiberationSans-70" d="M 3291 1706 
Q 3291 -63 2047 -63 
Q 1266 -63 997 525 
L 981 525 
Q 994 500 994 -6 
L 994 -1328 
L 431 -1328 
L 431 2691 
Q 431 3213 413 3381 
L 956 3381 
Q 959 3369 965 3292 
Q 972 3216 980 3056 
Q 988 2897 988 2838 
L 1000 2838 
Q 1150 3150 1397 3295 
Q 1644 3441 2047 3441 
Q 2672 3441 2981 3022 
Q 3291 2603 3291 1706 
z
M 2700 1694 
Q 2700 2400 2509 2703 
Q 2319 3006 1903 3006 
Q 1569 3006 1380 2865 
Q 1191 2725 1092 2426 
Q 994 2128 994 1650 
Q 994 984 1206 668 
Q 1419 353 1897 353 
Q 2316 353 2508 661 
Q 2700 969 2700 1694 
z
" transform="scale(0.015625)"/>
       <path id="LiberationSans-73" d="M 2969 934 
Q 2969 456 2608 196 
Q 2247 -63 1597 -63 
Q 966 -63 623 145 
Q 281 353 178 794 
L 675 891 
Q 747 619 972 492 
Q 1197 366 1597 366 
Q 2025 366 2223 497 
Q 2422 628 2422 891 
Q 2422 1091 2284 1216 
Q 2147 1341 1841 1422 
L 1438 1528 
Q 953 1653 748 1773 
Q 544 1894 428 2066 
Q 313 2238 313 2488 
Q 313 2950 642 3192 
Q 972 3434 1603 3434 
Q 2163 3434 2492 3237 
Q 2822 3041 2909 2606 
L 2403 2544 
Q 2356 2769 2151 2889 
Q 1947 3009 1603 3009 
Q 1222 3009 1040 2893 
Q 859 2778 859 2544 
Q 859 2400 934 2306 
Q 1009 2213 1156 2147 
Q 1303 2081 1775 1966 
Q 2222 1853 2419 1758 
Q 2616 1663 2730 1547 
Q 2844 1431 2906 1279 
Q 2969 1128 2969 934 
z
" transform="scale(0.015625)"/>
      </defs>
      <use xlink:href="#LiberationSans-54"/>
      <use xlink:href="#LiberationSans-69" x="57.333984"/>
      <use xlink:href="#LiberationSans-6d" x="79.550781"/>
      <use xlink:href="#LiberationSans-65" x="162.851562"/>
      <use xlink:href="#LiberationSans-20" x="218.466797"/>
      <use xlink:href="#LiberationSans-70" x="246.25"/>
      <use xlink:href="#LiberationSans-73" x="301.865234"/>
     </g>
    </g>
   </g>
   <g id="matplotlib.axis_2">
    <g id="ytick_1">
     <g id="line2d_22">
      <defs>
       <path id="m44847ab88a" d="M 0 0 
L 3.5 0 
" style="stroke: #000000; stroke-width: 0.8"/>
      </defs>
      <g>
       <use xlink:href="#m44847ab88a" x="84.665625" y="613.063091" style="stroke: #000000; stroke-width: 0.8"/>
      </g>
     </g>
     <g id="text_8">
      <!-- $\mathdefault{0.0}$ -->
      <g transform="translate(39.165625 623.933403) scale(0.3 -0.3)">
       <defs>
        <path id="LiberationSans-2e" d="M 584 0 
L 584 684 
L 1194 684 
L 1194 0 
L 584 0 
z
" transform="scale(0.015625)"/>
       </defs>
       <use xlink:href="#LiberationSans-30" transform="translate(0 0.171875)"/>
       <use xlink:href="#LiberationSans-2e" transform="translate(55.615234 0.171875)"/>
       <use xlink:href="#LiberationSans-30" transform="translate(83.398438 0.171875)"/>
      </g>
     </g>
    </g>
    <g id="ytick_2">
     <g id="line2d_23">
      <g>
       <use xlink:href="#m44847ab88a" x="84.665625" y="542.05549" style="stroke: #000000; stroke-width: 0.8"/>
      </g>
     </g>
     <g id="text_9">
      <!-- $\mathdefault{0.2}$ -->
      <g transform="translate(39.165625 552.925803) scale(0.3 -0.3)">
       <use xlink:href="#LiberationSans-30" transform="translate(0 0.171875)"/>
       <use xlink:href="#LiberationSans-2e" transform="translate(55.615234 0.171875)"/>
       <use xlink:href="#LiberationSans-32" transform="translate(83.398438 0.171875)"/>
      </g>
     </g>
    </g>
    <g id="ytick_3">
     <g id="line2d_24">
      <g>
       <use xlink:href="#m44847ab88a" x="84.665625" y="471.04789" style="stroke: #000000; stroke-width: 0.8"/>
      </g>
     </g>
     <g id="text_10">
      <!-- $\mathdefault{0.4}$ -->
      <g transform="translate(39.165625 481.918202) scale(0.3 -0.3)">
       <use xlink:href="#LiberationSans-30" transform="translate(0 0.171875)"/>
       <use xlink:href="#LiberationSans-2e" transform="translate(55.615234 0.171875)"/>
       <use xlink:href="#LiberationSans-34" transform="translate(83.398438 0.171875)"/>
      </g>
     </g>
    </g>
    <g id="ytick_4">
     <g id="line2d_25">
      <g>
       <use xlink:href="#m44847ab88a" x="84.665625" y="400.040289" style="stroke: #000000; stroke-width: 0.8"/>
      </g>
     </g>
     <g id="text_11">
      <!-- $\mathdefault{0.6}$ -->
      <g transform="translate(39.165625 410.910602) scale(0.3 -0.3)">
       <use xlink:href="#LiberationSans-30" transform="translate(0 0.171875)"/>
       <use xlink:href="#LiberationSans-2e" transform="translate(55.615234 0.171875)"/>
       <use xlink:href="#LiberationSans-36" transform="translate(83.398438 0.171875)"/>
      </g>
     </g>
    </g>
    <g id="ytick_5">
     <g id="line2d_26">
      <g>
       <use xlink:href="#m44847ab88a" x="84.665625" y="329.032688" style="stroke: #000000; stroke-width: 0.8"/>
      </g>
     </g>
     <g id="text_12">
      <!-- $\mathdefault{0.8}$ -->
      <g transform="translate(39.165625 339.903001) scale(0.3 -0.3)">
       <use xlink:href="#LiberationSans-30" transform="translate(0 0.171875)"/>
       <use xlink:href="#LiberationSans-2e" transform="translate(55.615234 0.171875)"/>
       <use xlink:href="#LiberationSans-38" transform="translate(83.398438 0.171875)"/>
      </g>
     </g>
    </g>
    <g id="ytick_6">
     <g id="line2d_27">
      <g>
       <use xlink:href="#m44847ab88a" x="84.665625" y="258.025088" style="stroke: #000000; stroke-width: 0.8"/>
      </g>
     </g>
     <g id="text_13">
      <!-- $\mathdefault{1.0}$ -->
      <g transform="translate(39.165625 268.8954) scale(0.3 -0.3)">
       <use xlink:href="#LiberationSans-31" transform="translate(0 0.171875)"/>
       <use xlink:href="#LiberationSans-2e" transform="translate(55.615234 0.171875)"/>
       <use xlink:href="#LiberationSans-30" transform="translate(83.398438 0.171875)"/>
      </g>
     </g>
    </g>
    <g id="ytick_7">
     <g id="line2d_28">
      <g>
       <use xlink:href="#m44847ab88a" x="84.665625" y="187.017487" style="stroke: #000000; stroke-width: 0.8"/>
      </g>
     </g>
     <g id="text_14">
      <!-- $\mathdefault{1.2}$ -->
      <g transform="translate(39.165625 197.8878) scale(0.3 -0.3)">
       <use xlink:href="#LiberationSans-31" transform="translate(0 0.171875)"/>
       <use xlink:href="#LiberationSans-2e" transform="translate(55.615234 0.171875)"/>
       <use xlink:href="#LiberationSans-32" transform="translate(83.398438 0.171875)"/>
      </g>
     </g>
    </g>
    <g id="ytick_8">
     <g id="line2d_29">
      <g>
       <use xlink:href="#m44847ab88a" x="84.665625" y="116.009887" style="stroke: #000000; stroke-width: 0.8"/>
      </g>
     </g>
     <g id="text_15">
      <!-- $\mathdefault{1.4}$ -->
      <g transform="translate(39.165625 126.880199) scale(0.3 -0.3)">
       <use xlink:href="#LiberationSans-31" transform="translate(0 0.203125)"/>
       <use xlink:href="#LiberationSans-2e" transform="translate(55.615234 0.203125)"/>
       <use xlink:href="#LiberationSans-34" transform="translate(83.398438 0.203125)"/>
      </g>
     </g>
    </g>
    <g id="ytick_9">
     <g id="line2d_30">
      <g>
       <use xlink:href="#m44847ab88a" x="84.665625" y="45.002286" style="stroke: #000000; stroke-width: 0.8"/>
      </g>
     </g>
     <g id="text_16">
      <!-- $\mathdefault{1.6}$ -->
      <g transform="translate(39.165625 55.872598) scale(0.3 -0.3)">
       <use xlink:href="#LiberationSans-31" transform="translate(0 0.171875)"/>
       <use xlink:href="#LiberationSans-2e" transform="translate(55.615234 0.171875)"/>
       <use xlink:href="#LiberationSans-36" transform="translate(83.398438 0.171875)"/>
      </g>
     </g>
    </g>
    <g id="ytick_10">
     <g id="line2d_31">
      <defs>
       <path id="m8557ff27b0" d="M 0 0 
L 2 0 
" style="stroke: #000000; stroke-width: 0.6"/>
      </defs>
      <g>
       <use xlink:href="#m8557ff27b0" x="84.665625" y="630.814991" style="stroke: #000000; stroke-width: 0.6"/>
      </g>
     </g>
    </g>
    <g id="ytick_11">
     <g id="line2d_32">
      <g>
       <use xlink:href="#m8557ff27b0" x="84.665625" y="595.311191" style="stroke: #000000; stroke-width: 0.6"/>
      </g>
     </g>
    </g>
    <g id="ytick_12">
     <g id="line2d_33">
      <g>
       <use xlink:href="#m8557ff27b0" x="84.665625" y="577.559291" style="stroke: #000000; stroke-width: 0.6"/>
      </g>
     </g>
    </g>
    <g id="ytick_13">
     <g id="line2d_34">
      <g>
       <use xlink:href="#m8557ff27b0" x="84.665625" y="559.80739" style="stroke: #000000; stroke-width: 0.6"/>
      </g>
     </g>
    </g>
    <g id="ytick_14">
     <g id="line2d_35">
      <g>
       <use xlink:href="#m8557ff27b0" x="84.665625" y="524.30359" style="stroke: #000000; stroke-width: 0.6"/>
      </g>
     </g>
    </g>
    <g id="ytick_15">
     <g id="line2d_36">
      <g>
       <use xlink:href="#m8557ff27b0" x="84.665625" y="506.55169" style="stroke: #000000; stroke-width: 0.6"/>
      </g>
     </g>
    </g>
    <g id="ytick_16">
     <g id="line2d_37">
      <g>
       <use xlink:href="#m8557ff27b0" x="84.665625" y="488.79979" style="stroke: #000000; stroke-width: 0.6"/>
      </g>
     </g>
    </g>
    <g id="ytick_17">
     <g id="line2d_38">
      <g>
       <use xlink:href="#m8557ff27b0" x="84.665625" y="453.295989" style="stroke: #000000; stroke-width: 0.6"/>
      </g>
     </g>
    </g>
    <g id="ytick_18">
     <g id="line2d_39">
      <g>
       <use xlink:href="#m8557ff27b0" x="84.665625" y="435.544089" style="stroke: #000000; stroke-width: 0.6"/>
      </g>
     </g>
    </g>
    <g id="ytick_19">
     <g id="line2d_40">
      <g>
       <use xlink:href="#m8557ff27b0" x="84.665625" y="417.792189" style="stroke: #000000; stroke-width: 0.6"/>
      </g>
     </g>
    </g>
    <g id="ytick_20">
     <g id="line2d_41">
      <g>
       <use xlink:href="#m8557ff27b0" x="84.665625" y="382.288389" style="stroke: #000000; stroke-width: 0.6"/>
      </g>
     </g>
    </g>
    <g id="ytick_21">
     <g id="line2d_42">
      <g>
       <use xlink:href="#m8557ff27b0" x="84.665625" y="364.536489" style="stroke: #000000; stroke-width: 0.6"/>
      </g>
     </g>
    </g>
    <g id="ytick_22">
     <g id="line2d_43">
      <g>
       <use xlink:href="#m8557ff27b0" x="84.665625" y="346.784589" style="stroke: #000000; stroke-width: 0.6"/>
      </g>
     </g>
    </g>
    <g id="ytick_23">
     <g id="line2d_44">
      <g>
       <use xlink:href="#m8557ff27b0" x="84.665625" y="311.280788" style="stroke: #000000; stroke-width: 0.6"/>
      </g>
     </g>
    </g>
    <g id="ytick_24">
     <g id="line2d_45">
      <g>
       <use xlink:href="#m8557ff27b0" x="84.665625" y="293.528888" style="stroke: #000000; stroke-width: 0.6"/>
      </g>
     </g>
    </g>
    <g id="ytick_25">
     <g id="line2d_46">
      <g>
       <use xlink:href="#m8557ff27b0" x="84.665625" y="275.776988" style="stroke: #000000; stroke-width: 0.6"/>
      </g>
     </g>
    </g>
    <g id="ytick_26">
     <g id="line2d_47">
      <g>
       <use xlink:href="#m8557ff27b0" x="84.665625" y="240.273188" style="stroke: #000000; stroke-width: 0.6"/>
      </g>
     </g>
    </g>
    <g id="ytick_27">
     <g id="line2d_48">
      <g>
       <use xlink:href="#m8557ff27b0" x="84.665625" y="222.521287" style="stroke: #000000; stroke-width: 0.6"/>
      </g>
     </g>
    </g>
    <g id="ytick_28">
     <g id="line2d_49">
      <g>
       <use xlink:href="#m8557ff27b0" x="84.665625" y="204.769387" style="stroke: #000000; stroke-width: 0.6"/>
      </g>
     </g>
    </g>
    <g id="ytick_29">
     <g id="line2d_50">
      <g>
       <use xlink:href="#m8557ff27b0" x="84.665625" y="169.265587" style="stroke: #000000; stroke-width: 0.6"/>
      </g>
     </g>
    </g>
    <g id="ytick_30">
     <g id="line2d_51">
      <g>
       <use xlink:href="#m8557ff27b0" x="84.665625" y="151.513687" style="stroke: #000000; stroke-width: 0.6"/>
      </g>
     </g>
    </g>
    <g id="ytick_31">
     <g id="line2d_52">
      <g>
       <use xlink:href="#m8557ff27b0" x="84.665625" y="133.761787" style="stroke: #000000; stroke-width: 0.6"/>
      </g>
     </g>
    </g>
    <g id="ytick_32">
     <g id="line2d_53">
      <g>
       <use xlink:href="#m8557ff27b0" x="84.665625" y="98.257986" style="stroke: #000000; stroke-width: 0.6"/>
      </g>
     </g>
    </g>
    <g id="ytick_33">
     <g id="line2d_54">
      <g>
       <use xlink:href="#m8557ff27b0" x="84.665625" y="80.506086" style="stroke: #000000; stroke-width: 0.6"/>
      </g>
     </g>
    </g>
    <g id="ytick_34">
     <g id="line2d_55">
      <g>
       <use xlink:href="#m8557ff27b0" x="84.665625" y="62.754186" style="stroke: #000000; stroke-width: 0.6"/>
      </g>
     </g>
    </g>
    <g id="text_17">
     <!-- ITR $\mathrm{K} \cdot \mathrm{m}^2 / \mathrm{W}$ -->
     <g transform="translate(28.940625 423.789) rotate(-90) scale(0.3 -0.3)">
      <defs>
       <path id="LiberationSans-49" d="M 591 0 
L 591 4403 
L 1188 4403 
L 1188 0 
L 591 0 
z
" transform="scale(0.015625)"/>
       <path id="LiberationSans-52" d="M 3638 0 
L 2494 1828 
L 1122 1828 
L 1122 0 
L 525 0 
L 525 4403 
L 2597 4403 
Q 3341 4403 3745 4070 
Q 4150 3738 4150 3144 
Q 4150 2653 3864 2318 
Q 3578 1984 3075 1897 
L 4325 0 
L 3638 0 
z
M 3550 3138 
Q 3550 3522 3289 3723 
Q 3028 3925 2538 3925 
L 1122 3925 
L 1122 2300 
L 2563 2300 
Q 3034 2300 3292 2520 
Q 3550 2741 3550 3138 
z
" transform="scale(0.015625)"/>
       <path id="STIXGeneral-Regular-4b" d="M 4627 0 
L 2688 0 
L 2688 122 
L 2861 128 
Q 3130 134 3130 282 
Q 3130 397 2922 643 
Q 2714 890 2253 1370 
L 1613 2029 
L 1446 1894 
L 1446 710 
Q 1446 352 1548 253 
Q 1651 154 2016 122 
L 2016 0 
L 211 0 
L 211 122 
Q 589 141 691 262 
Q 794 384 794 800 
L 794 3514 
Q 794 3872 691 3981 
Q 589 4090 218 4115 
L 218 4237 
L 2022 4237 
L 2022 4115 
Q 1632 4090 1539 3987 
Q 1446 3885 1446 3507 
L 1446 2227 
L 2586 3277 
Q 2861 3533 2973 3667 
Q 3085 3802 3085 3910 
Q 3085 4013 3030 4057 
Q 2976 4102 2822 4109 
L 2662 4115 
L 2662 4237 
L 4320 4237 
L 4320 4115 
Q 3994 4090 3824 4003 
Q 3654 3917 3322 3597 
L 2131 2458 
L 3629 819 
Q 4026 384 4214 253 
Q 4403 122 4627 122 
L 4627 0 
z
" transform="scale(0.015625)"/>
       <path id="STIXGeneral-Regular-22c5" d="M 1187 1888 
Q 1299 1773 1299 1619 
Q 1299 1466 1187 1350 
Q 1075 1235 921 1235 
Q 768 1235 649 1353 
Q 531 1472 531 1619 
Q 531 1766 649 1884 
Q 768 2003 921 2003 
Q 1075 2003 1187 1888 
z
" transform="scale(0.015625)"/>
       <path id="STIXGeneral-Regular-6d" d="M 4960 0 
L 3565 0 
L 3565 96 
Q 3834 122 3907 208 
Q 3981 294 3981 576 
L 3981 1894 
Q 3981 2278 3869 2444 
Q 3757 2611 3488 2611 
Q 3264 2611 3107 2521 
Q 2950 2432 2803 2221 
L 2803 608 
Q 2803 301 2896 201 
Q 2989 102 3264 96 
L 3264 0 
L 1830 0 
L 1830 96 
Q 2112 115 2189 188 
Q 2266 262 2266 550 
L 2266 1901 
Q 2266 2611 1850 2611 
Q 1670 2611 1468 2531 
Q 1267 2451 1171 2336 
Q 1088 2240 1088 2227 
L 1088 448 
Q 1088 243 1177 176 
Q 1267 109 1523 96 
L 1523 0 
L 102 0 
L 102 96 
Q 371 102 460 195 
Q 550 288 550 563 
L 550 2150 
Q 550 2387 499 2480 
Q 448 2573 326 2573 
Q 230 2573 122 2547 
L 122 2656 
Q 557 2778 1011 2944 
L 1062 2925 
L 1062 2451 
L 1075 2451 
Q 1363 2752 1584 2848 
Q 1805 2944 2054 2944 
Q 2560 2944 2733 2406 
Q 3232 2944 3776 2944 
Q 4518 2944 4518 1792 
L 4518 493 
Q 4518 282 4582 202 
Q 4646 122 4794 109 
L 4960 96 
L 4960 0 
z
" transform="scale(0.015625)"/>
       <path id="STIXGeneral-Regular-32" d="M 3034 877 
L 2688 0 
L 186 0 
L 186 77 
L 1325 1286 
Q 1773 1754 1965 2144 
Q 2157 2534 2157 2950 
Q 2157 3379 1920 3616 
Q 1683 3853 1267 3853 
Q 922 3853 720 3673 
Q 518 3494 326 3021 
L 192 3053 
Q 301 3648 630 3987 
Q 960 4326 1523 4326 
Q 2054 4326 2380 4006 
Q 2707 3686 2707 3200 
Q 2707 2477 1888 1613 
L 832 486 
L 2330 486 
Q 2541 486 2665 569 
Q 2790 653 2944 915 
L 3034 877 
z
" transform="scale(0.015625)"/>
       <path id="STIXGeneral-Regular-2f" d="M 1837 4326 
L 378 -90 
L -58 -90 
L 1408 4326 
L 1837 4326 
z
" transform="scale(0.015625)"/>
       <path id="STIXGeneral-Regular-57" d="M 5965 4237 
L 5965 4115 
Q 5709 4064 5616 3990 
Q 5523 3917 5434 3667 
Q 4704 1709 4128 -70 
L 4032 -70 
Q 3642 1011 3008 2637 
L 2022 -70 
L 1926 -70 
Q 1709 576 1277 1753 
Q 845 2931 698 3347 
Q 538 3808 406 3958 
Q 275 4109 32 4115 
L 32 4237 
L 1594 4237 
L 1594 4115 
Q 1357 4109 1270 4064 
Q 1184 4019 1184 3917 
Q 1184 3808 1254 3616 
L 2176 1210 
L 2842 3021 
L 2662 3501 
Q 2509 3917 2400 4013 
Q 2291 4109 2010 4115 
L 2010 4237 
L 3706 4237 
L 3706 4115 
Q 3213 4102 3213 3891 
Q 3213 3808 3322 3520 
L 4237 1190 
L 5043 3360 
Q 5152 3667 5152 3853 
Q 5152 4109 4704 4115 
L 4704 4237 
L 5965 4237 
z
" transform="scale(0.015625)"/>
      </defs>
      <use xlink:href="#LiberationSans-49" transform="translate(0 0.409375)"/>
      <use xlink:href="#LiberationSans-54" transform="translate(27.783203 0.409375)"/>
      <use xlink:href="#LiberationSans-52" transform="translate(88.867188 0.409375)"/>
      <use xlink:href="#LiberationSans-20" transform="translate(161.083984 0.409375)"/>
      <use xlink:href="#STIXGeneral-Regular-4b" transform="translate(188.867188 0.409375)"/>
      <use xlink:href="#STIXGeneral-Regular-22c5" transform="translate(275.507166 0.409375)"/>
      <use xlink:href="#STIXGeneral-Regular-6d" transform="translate(318.547153 0.409375)"/>
      <use xlink:href="#STIXGeneral-Regular-32" transform="translate(397.890422 35.684375) scale(0.7)"/>
      <use xlink:href="#STIXGeneral-Regular-2f" transform="translate(437.299786 0.409375)"/>
      <use xlink:href="#STIXGeneral-Regular-57" transform="translate(465.099774 0.409375)"/>
     </g>
    </g>
    <g id="text_18">
     <!-- $\times\mathdefault{10^{−6}}\mathdefault{}$ -->
     <g transform="translate(84.665625 36.1875) scale(0.4 -0.4)">
      <defs>
       <path id="STIXGeneral-Regular-d7" d="M 3821 141 
L 3526 -160 
L 2048 1312 
L 570 -160 
L 275 134 
L 1747 1613 
L 275 3091 
L 576 3386 
L 2048 1914 
L 3526 3386 
L 3821 3098 
L 2349 1613 
L 3821 141 
z
" transform="scale(0.015625)"/>
       <path id="LiberationSans-2212" d="M 316 1900 
L 316 2356 
L 3425 2356 
L 3425 1900 
L 316 1900 
z
" transform="scale(0.015625)"/>
      </defs>
      <use xlink:href="#STIXGeneral-Regular-d7" transform="translate(0 0.140625)"/>
      <use xlink:href="#LiberationSans-31" transform="translate(63.999985 0.140625)"/>
      <use xlink:href="#LiberationSans-30" transform="translate(119.615219 0.140625)"/>
      <use xlink:href="#LiberationSans-2212" transform="translate(176.154946 37.120312) scale(0.7)"/>
      <use xlink:href="#LiberationSans-36" transform="translate(217.033852 37.120312) scale(0.7)"/>
     </g>
    </g>
   </g>
   <g id="line2d_56">
    <path d="M 112.839511 613.063091 
L 112.89587 66.514909 
L 112.952229 339.658653 
L 113.121306 503.335815 
L 113.346742 551.559222 
L 113.628537 572.798051 
L 113.966692 583.955474 
L 114.361205 590.360454 
L 114.812077 594.147821 
L 115.26295 596.123229 
L 115.657463 596.992933 
L 115.995617 597.295749 
L 116.277412 597.297875 
L 116.615567 597.038715 
L 117.01008 596.403651 
L 117.517311 595.075049 
L 118.080902 592.894379 
L 118.700851 589.536081 
L 119.37716 584.50658 
L 120.053468 577.699886 
L 120.729777 568.622434 
L 121.462444 555.569413 
L 122.30783 536.025235 
L 123.604088 505.325344 
L 123.998601 500.34944 
L 124.280397 499.029207 
L 124.393115 499.040774 
L 124.562192 499.611731 
L 124.843987 501.895419 
L 125.294859 508.167771 
L 127.60558 544.857159 
L 128.281889 550.947525 
L 128.901838 554.775304 
L 129.465429 557.075193 
L 129.97266 558.354638 
L 130.423532 558.959008 
L 130.818046 559.127789 
L 131.1562 559.031679 
L 131.550713 558.662909 
L 132.057945 557.818198 
L 132.677894 556.278944 
L 133.466921 553.634646 
L 134.594102 548.924419 
L 136.510309 540.864797 
L 137.242977 538.751511 
L 137.750208 537.842358 
L 138.144721 537.493979 
L 138.482876 537.458317 
L 138.82103 537.66783 
L 139.215543 538.214952 
L 139.722775 539.362794 
L 140.399083 541.536923 
L 141.582623 546.29451 
L 142.766163 550.747382 
L 143.49883 552.708686 
L 144.062421 553.646155 
L 144.513293 554.01212 
L 144.907807 554.054101 
L 145.30232 553.84895 
L 145.753192 553.339111 
L 146.373142 552.238355 
L 147.274886 550.094105 
L 149.529248 544.563505 
L 150.712788 542.3319 
L 151.614533 541.028216 
L 152.234482 540.462393 
L 152.685355 540.304661 
L 153.079868 540.384887 
L 153.474381 540.69138 
L 153.925254 541.32437 
L 154.545203 542.638619 
L 155.503307 545.312396 
L 156.855924 548.980123 
L 157.588591 550.334586 
L 158.152182 550.964031 
L 158.659413 551.225149 
L 159.166645 551.2228 
L 159.673876 550.995148 
L 160.350184 550.416823 
L 161.251929 549.314911 
L 162.99906 546.732344 
L 164.238958 545.078372 
L 164.971626 544.4293 
L 165.535216 544.187709 
L 166.042448 544.189591 
L 166.606038 544.43433 
L 167.225988 544.960475 
L 168.127732 546.04806 
L 170.382094 548.871032 
L 171.340198 549.669908 
L 172.129225 550.06874 
L 172.861892 550.196973 
L 173.538201 550.077859 
L 174.214509 549.709467 
L 174.947177 549.032057 
L 175.90528 547.800252 
L 177.934206 545.084105 
L 178.723233 544.438612 
L 179.4559 544.122222 
L 180.244927 544.027918 
L 181.25939 544.147915 
L 182.44293 544.519304 
L 183.513751 545.096135 
L 184.922727 546.159089 
L 186.106267 546.956215 
L 186.838935 547.198535 
L 187.515243 547.183525 
L 188.191552 546.941751 
L 189.093297 546.352296 
L 192.41848 543.923894 
L 193.827456 543.260117 
L 194.729201 543.057162 
L 195.461869 543.103131 
L 196.250895 543.388353 
L 197.321717 544.052791 
L 198.787052 544.924154 
L 199.632438 545.163467 
L 200.534182 545.182972 
L 202.45039 544.906286 
L 206.902754 544.462625 
L 207.973576 544.538183 
L 208.988039 544.838556 
L 212.144145 545.964081 
L 213.496762 546.045601 
L 216.032919 546.176506 
L 218.681794 546.357336 
L 220.71072 546.23613 
L 221.950619 545.97215 
L 222.965082 545.530512 
L 224.035904 544.813572 
L 227.19201 542.521492 
L 228.37555 542.06885 
L 229.728167 541.798909 
L 230.911707 541.781468 
L 231.869811 541.985689 
L 232.884273 542.441009 
L 236.265816 544.212071 
L 237.22392 544.335484 
L 238.238383 544.245708 
L 239.309204 543.928785 
L 240.380026 543.377062 
L 241.563566 542.495231 
L 244.212441 540.382248 
L 244.945109 540.137618 
L 245.621417 540.145556 
L 246.297726 540.379274 
L 247.086752 540.894844 
L 248.270292 541.976844 
L 250.581013 544.130463 
L 251.595476 544.768325 
L 252.497221 545.088719 
L 253.398965 545.164909 
L 254.30071 545.016733 
L 255.315173 544.626237 
L 256.498713 543.922598 
L 257.85133 542.837791 
L 260.274769 540.823243 
L 261.007436 540.527877 
L 261.683745 540.49338 
L 262.360053 540.692995 
L 263.14908 541.168966 
L 266.305186 543.363763 
L 267.26329 543.600241 
L 268.390471 543.630254 
L 269.686729 543.437544 
L 270.870269 543.038334 
L 272.053809 542.38819 
L 274.420888 540.994845 
L 275.266274 540.807995 
L 276.11166 540.854256 
L 277.238841 541.17125 
L 280.507665 542.219856 
L 281.916641 542.394883 
L 283.100181 542.318403 
L 284.396439 541.996403 
L 287.721623 541.036256 
L 289.017881 540.958495 
L 290.201421 541.097326 
L 291.328602 541.458022 
L 292.5685 542.107486 
L 294.822862 543.342712 
L 295.780966 543.583333 
L 296.795429 543.59687 
L 298.317123 543.352858 
L 303.107642 542.32404 
L 305.080208 541.774657 
L 306.207389 541.707178 
L 307.503647 541.871485 
L 309.870727 542.207888 
L 310.997908 542.115108 
L 312.181448 541.790919 
L 313.646783 541.142415 
L 316.239299 539.957907 
L 317.197402 539.79484 
L 318.099147 539.872389 
L 319.057251 540.183437 
L 320.578945 540.950955 
L 322.607871 541.91837 
L 325.031309 542.767157 
L 326.77844 543.207081 
L 327.849262 543.250697 
L 328.920083 543.060882 
L 330.441778 542.519022 
L 332.357985 541.88689 
L 333.879679 541.642833 
L 335.570451 541.588561 
L 336.81035 541.759249 
L 337.881171 542.139979 
L 339.177429 542.861636 
L 340.980919 543.842845 
L 341.882663 544.080721 
L 342.784408 544.089197 
L 343.911589 543.8507 
L 346.335028 543.268524 
L 347.518568 543.267079 
L 349.434775 543.540575 
L 351.069188 543.669472 
L 352.7036 543.552128 
L 355.746988 543.293658 
L 361.270174 543.174681 
L 364.989871 542.661149 
L 366.455206 542.153583 
L 369.385877 541.050463 
L 370.400339 540.947626 
L 371.358443 541.071434 
L 372.372906 541.432502 
L 373.725523 542.175749 
L 376.148962 543.534453 
L 377.276143 543.889552 
L 378.234247 543.966584 
L 379.19235 543.816243 
L 380.263172 543.405196 
L 382.010302 542.436318 
L 383.813792 541.526698 
L 384.997332 541.179232 
L 385.955435 541.128384 
L 386.85718 541.314371 
L 387.815284 541.755847 
L 389.506055 542.857009 
L 390.745954 543.521193 
L 391.647699 543.758631 
L 392.549444 543.761129 
L 393.620265 543.517235 
L 395.536473 542.786526 
L 397.790835 542.015726 
L 399.425247 541.68914 
L 401.0033 541.604216 
L 403.595816 541.738805 
L 405.624742 541.744237 
L 407.710026 541.491181 
L 409.288079 541.3828 
L 410.471619 541.525849 
L 412.049673 541.973799 
L 413.684085 542.370208 
L 414.698548 542.391149 
L 415.71301 542.194244 
L 416.952909 541.716772 
L 419.88358 540.487046 
L 420.898042 540.363103 
L 421.856146 540.48048 
L 422.983327 540.863814 
L 425.801279 541.932735 
L 427.097537 542.100074 
L 429.013745 542.081451 
L 432.958878 542.028596 
L 436.791293 542.07718 
L 441.243657 541.86357 
L 447.161357 542.024756 
L 449.641155 541.718312 
L 451.67008 541.244413 
L 455.727931 540.201929 
L 456.96783 540.165735 
L 458.207729 540.357933 
L 462.829171 541.354944 
L 466.154354 541.732791 
L 468.408716 541.924779 
L 470.719437 542.135583 
L 472.692003 542.601097 
L 474.382775 542.912649 
L 475.679033 542.920284 
L 477.538881 542.675242 
L 481.033142 542.006228 
L 483.005708 541.294894 
L 484.414684 540.888806 
L 485.429147 540.823193 
L 486.44361 540.982186 
L 487.796227 541.447847 
L 489.937871 542.18999 
L 491.008693 542.303102 
L 492.079514 542.186126 
L 496.024647 541.490952 
L 499.349831 541.524459 
L 500.927884 541.137202 
L 502.562296 540.797162 
L 503.858554 540.777878 
L 506.845584 540.845764 
L 509.832613 540.677519 
L 511.748821 540.955599 
L 513.101438 541.038429 
L 514.341337 540.874905 
L 517.441084 540.322829 
L 518.85006 540.427822 
L 521.104422 540.607243 
L 524.880478 540.658596 
L 526.796685 541.159239 
L 528.318379 541.448323 
L 529.783714 541.481686 
L 533.052539 541.236075 
L 534.799669 540.94154 
L 538.632084 540.131141 
L 540.04106 540.22259 
L 543.59168 540.529125 
L 545.113374 540.765947 
L 549.171225 541.628453 
L 550.636561 541.473216 
L 553.398154 541.167085 
L 555.708874 540.886135 
L 558.188672 540.555867 
L 559.48493 540.648996 
L 561.795651 541.12031 
L 563.373704 541.293903 
L 565.008117 541.232256 
L 568.502377 541.030814 
L 569.911353 541.223351 
L 571.771202 541.733858 
L 573.687409 542.195358 
L 574.927308 542.252275 
L 576.110848 542.079785 
L 577.576183 541.625133 
L 580.225058 540.76934 
L 581.29588 540.679026 
L 582.310343 540.810717 
L 583.493883 541.199276 
L 586.706348 542.393992 
L 587.889888 542.517867 
L 589.073428 542.410421 
L 590.369686 542.052126 
L 594.596614 540.65121 
L 595.780154 540.637683 
L 596.963694 540.849719 
L 598.598107 541.398518 
L 600.965186 542.178858 
L 602.486881 542.426787 
L 603.952216 542.434781 
L 605.361192 542.211353 
L 606.995604 541.700585 
L 609.58812 540.867531 
L 610.940737 540.696896 
L 612.462431 540.738946 
L 614.434998 541.025877 
L 618.605567 541.757928 
L 619.958184 541.629169 
L 622.832495 541.278891 
L 624.805062 541.376603 
L 626.608551 541.378078 
L 630.610043 541.181916 
L 631.793583 541.481465 
L 633.315277 542.125484 
L 635.682357 543.13629 
L 636.922256 543.403385 
L 638.218514 543.446976 
L 639.740208 543.26653 
L 641.43098 542.841081 
L 645.488831 541.687357 
L 646.954166 541.63469 
L 654.224482 541.948183 
L 656.422485 542.098149 
L 661.551158 542.038716 
L 662.734698 541.708436 
L 665.947163 540.652242 
L 667.130703 540.6056 
L 668.539679 540.781068 
L 670.343169 541.243442 
L 672.597531 541.817807 
L 673.668352 541.847663 
L 674.908251 541.639936 
L 676.317227 541.302206 
L 676.317227 541.302206 
" clip-path="url(#pe99536c5cf)" style="fill: none; stroke: #ff0000; stroke-width: 1.5; stroke-linecap: square"/>
   </g>
   <g id="patch_3">
    <path d="M 84.665625 640.3905 
L 84.665625 39.1875 
" style="fill: none; stroke: #000000; stroke-width: 0.8; stroke-linejoin: miter; stroke-linecap: square"/>
   </g>
   <g id="patch_4">
    <path d="M 704.491113 640.3905 
L 704.491113 39.1875 
" style="fill: none; stroke: #000000; stroke-width: 0.8; stroke-linejoin: miter; stroke-linecap: square"/>
   </g>
   <g id="patch_5">
    <path d="M 84.665625 640.3905 
L 704.491113 640.3905 
" style="fill: none; stroke: #000000; stroke-width: 0.8; stroke-linejoin: miter; stroke-linecap: square"/>
   </g>
   <g id="patch_6">
    <path d="M 84.665625 39.1875 
L 704.491113 39.1875 
" style="fill: none; stroke: #000000; stroke-width: 0.8; stroke-linejoin: miter; stroke-linecap: square"/>
   </g>
  </g>
 </g>
 <defs>
  <clipPath id="pe99536c5cf">
   <rect x="84.665625" y="39.1875" width="619.825488" height="601.203"/>
  </clipPath>
 </defs>
</svg>
