<?xml version="1.0" encoding="utf-8" standalone="no"?>
<!DOCTYPE svg PUBLIC "-//W3C//DTD SVG 1.1//EN"
  "http://www.w3.org/Graphics/SVG/1.1/DTD/svg11.dtd">
<svg xmlns:xlink="http://www.w3.org/1999/xlink" width="711.691113pt" height="711.02175pt" viewBox="0 0 711.691113 711.02175" xmlns="http://www.w3.org/2000/svg" version="1.1">
 <metadata>
  <rdf:RDF xmlns:dc="http://purl.org/dc/elements/1.1/" xmlns:cc="http://creativecommons.org/ns#" xmlns:rdf="http://www.w3.org/1999/02/22-rdf-syntax-ns#">
   <cc:Work>
    <dc:type rdf:resource="http://purl.org/dc/dcmitype/StillImage"/>
    <dc:date>2025-02-06T00:36:52.060267</dc:date>
    <dc:format>image/svg+xml</dc:format>
    <dc:creator>
     <cc:Agent>
      <dc:title>Matplotlib v3.9.3, https://matplotlib.org/</dc:title>
     </cc:Agent>
    </dc:creator>
   </cc:Work>
  </rdf:RDF>
 </metadata>
 <defs>
  <style type="text/css">*{stroke-linejoin: round; stroke-linecap: butt}</style>
 </defs>
 <g id="figure_1">
  <g id="patch_1">
   <path d="M 0 711.02175 
L 711.691113 711.02175 
L 711.691113 0 
L 0 0 
z
" style="fill: #ffffff"/>
  </g>
  <g id="axes_1">
   <g id="patch_2">
    <path d="M 84.665625 640.3905 
L 704.491113 640.3905 
L 704.491113 39.1875 
L 84.665625 39.1875 
z
" style="fill: #ffffff"/>
   </g>
   <g id="matplotlib.axis_1">
    <g id="xtick_1">
     <g id="line2d_1">
      <defs>
       <path id="m8d3cbf3382" d="M 0 0 
L 0 -3.5 
" style="stroke: #000000; stroke-width: 0.8"/>
      </defs>
      <g>
       <use xlink:href="#m8d3cbf3382" x="112.783152" y="640.3905" style="stroke: #000000; stroke-width: 0.8"/>
      </g>
     </g>
     <g id="text_1">
      <!-- 0 -->
      <g transform="translate(104.441746 665.631125) scale(0.3 -0.3)">
       <defs>
        <path id="LiberationSans-30" d="M 3309 2203 
Q 3309 1100 2920 518 
Q 2531 -63 1772 -63 
Q 1013 -63 631 515 
Q 250 1094 250 2203 
Q 250 3338 620 3903 
Q 991 4469 1791 4469 
Q 2569 4469 2939 3897 
Q 3309 3325 3309 2203 
z
M 2738 2203 
Q 2738 3156 2517 3584 
Q 2297 4013 1791 4013 
Q 1272 4013 1045 3591 
Q 819 3169 819 2203 
Q 819 1266 1048 831 
Q 1278 397 1778 397 
Q 2275 397 2506 840 
Q 2738 1284 2738 2203 
z
" transform="scale(0.015625)"/>
       </defs>
       <use xlink:href="#LiberationSans-30"/>
      </g>
     </g>
    </g>
    <g id="xtick_2">
     <g id="line2d_2">
      <g>
       <use xlink:href="#m8d3cbf3382" x="225.501239" y="640.3905" style="stroke: #000000; stroke-width: 0.8"/>
      </g>
     </g>
     <g id="text_2">
      <!-- 2 -->
      <g transform="translate(217.159832 665.631125) scale(0.3 -0.3)">
       <defs>
        <path id="LiberationSans-32" d="M 322 0 
L 322 397 
Q 481 763 711 1042 
Q 941 1322 1194 1548 
Q 1447 1775 1695 1969 
Q 1944 2163 2144 2356 
Q 2344 2550 2467 2762 
Q 2591 2975 2591 3244 
Q 2591 3606 2378 3806 
Q 2166 4006 1788 4006 
Q 1428 4006 1195 3811 
Q 963 3616 922 3263 
L 347 3316 
Q 409 3844 795 4156 
Q 1181 4469 1788 4469 
Q 2453 4469 2811 4155 
Q 3169 3841 3169 3263 
Q 3169 3006 3051 2753 
Q 2934 2500 2703 2247 
Q 2472 1994 1819 1463 
Q 1459 1169 1246 933 
Q 1034 697 941 478 
L 3238 478 
L 3238 0 
L 322 0 
z
" transform="scale(0.015625)"/>
       </defs>
       <use xlink:href="#LiberationSans-32"/>
      </g>
     </g>
    </g>
    <g id="xtick_3">
     <g id="line2d_3">
      <g>
       <use xlink:href="#m8d3cbf3382" x="338.219326" y="640.3905" style="stroke: #000000; stroke-width: 0.8"/>
      </g>
     </g>
     <g id="text_3">
      <!-- 4 -->
      <g transform="translate(329.877919 665.631125) scale(0.3 -0.3)">
       <defs>
        <path id="LiberationSans-34" d="M 2753 997 
L 2753 0 
L 2222 0 
L 2222 997 
L 147 997 
L 147 1434 
L 2163 4403 
L 2753 4403 
L 2753 1441 
L 3372 1441 
L 3372 997 
L 2753 997 
z
M 2222 3769 
Q 2216 3750 2134 3603 
Q 2053 3456 2013 3397 
L 884 1734 
L 716 1503 
L 666 1441 
L 2222 1441 
L 2222 3769 
z
" transform="scale(0.015625)"/>
       </defs>
       <use xlink:href="#LiberationSans-34"/>
      </g>
     </g>
    </g>
    <g id="xtick_4">
     <g id="line2d_4">
      <g>
       <use xlink:href="#m8d3cbf3382" x="450.937413" y="640.3905" style="stroke: #000000; stroke-width: 0.8"/>
      </g>
     </g>
     <g id="text_4">
      <!-- 6 -->
      <g transform="translate(442.596006 665.631125) scale(0.3 -0.3)">
       <defs>
        <path id="LiberationSans-36" d="M 3278 1441 
Q 3278 744 2900 340 
Q 2522 -63 1856 -63 
Q 1113 -63 719 490 
Q 325 1044 325 2100 
Q 325 3244 734 3856 
Q 1144 4469 1900 4469 
Q 2897 4469 3156 3572 
L 2619 3475 
Q 2453 4013 1894 4013 
Q 1413 4013 1148 3564 
Q 884 3116 884 2266 
Q 1038 2550 1316 2698 
Q 1594 2847 1953 2847 
Q 2563 2847 2920 2465 
Q 3278 2084 3278 1441 
z
M 2706 1416 
Q 2706 1894 2472 2153 
Q 2238 2413 1819 2413 
Q 1425 2413 1183 2183 
Q 941 1953 941 1550 
Q 941 1041 1192 716 
Q 1444 391 1838 391 
Q 2244 391 2475 664 
Q 2706 938 2706 1416 
z
" transform="scale(0.015625)"/>
       </defs>
       <use xlink:href="#LiberationSans-36"/>
      </g>
     </g>
    </g>
    <g id="xtick_5">
     <g id="line2d_5">
      <g>
       <use xlink:href="#m8d3cbf3382" x="563.6555" y="640.3905" style="stroke: #000000; stroke-width: 0.8"/>
      </g>
     </g>
     <g id="text_5">
      <!-- 8 -->
      <g transform="translate(555.314093 665.631125) scale(0.3 -0.3)">
       <defs>
        <path id="LiberationSans-38" d="M 3281 1228 
Q 3281 619 2893 278 
Q 2506 -63 1781 -63 
Q 1075 -63 676 271 
Q 278 606 278 1222 
Q 278 1653 525 1947 
Q 772 2241 1156 2303 
L 1156 2316 
Q 797 2400 589 2681 
Q 381 2963 381 3341 
Q 381 3844 757 4156 
Q 1134 4469 1769 4469 
Q 2419 4469 2795 4162 
Q 3172 3856 3172 3334 
Q 3172 2956 2962 2675 
Q 2753 2394 2391 2322 
L 2391 2309 
Q 2813 2241 3047 1952 
Q 3281 1663 3281 1228 
z
M 2588 3303 
Q 2588 4050 1769 4050 
Q 1372 4050 1164 3862 
Q 956 3675 956 3303 
Q 956 2925 1170 2726 
Q 1384 2528 1775 2528 
Q 2172 2528 2380 2711 
Q 2588 2894 2588 3303 
z
M 2697 1281 
Q 2697 1691 2453 1898 
Q 2209 2106 1769 2106 
Q 1341 2106 1100 1882 
Q 859 1659 859 1269 
Q 859 359 1788 359 
Q 2247 359 2472 579 
Q 2697 800 2697 1281 
z
" transform="scale(0.015625)"/>
       </defs>
       <use xlink:href="#LiberationSans-38"/>
      </g>
     </g>
    </g>
    <g id="xtick_6">
     <g id="line2d_6">
      <g>
       <use xlink:href="#m8d3cbf3382" x="676.373586" y="640.3905" style="stroke: #000000; stroke-width: 0.8"/>
      </g>
     </g>
     <g id="text_6">
      <!-- 10 -->
      <g transform="translate(659.690774 665.631125) scale(0.3 -0.3)">
       <defs>
        <path id="LiberationSans-31" d="M 488 0 
L 488 478 
L 1609 478 
L 1609 3866 
L 616 3156 
L 616 3688 
L 1656 4403 
L 2175 4403 
L 2175 478 
L 3247 478 
L 3247 0 
L 488 0 
z
" transform="scale(0.015625)"/>
       </defs>
       <use xlink:href="#LiberationSans-31"/>
       <use xlink:href="#LiberationSans-30" x="55.615234"/>
      </g>
     </g>
    </g>
    <g id="xtick_7">
     <g id="line2d_7">
      <defs>
       <path id="m9302db8914" d="M 0 0 
L 0 -2 
" style="stroke: #000000; stroke-width: 0.6"/>
      </defs>
      <g>
       <use xlink:href="#m9302db8914" x="140.962674" y="640.3905" style="stroke: #000000; stroke-width: 0.6"/>
      </g>
     </g>
    </g>
    <g id="xtick_8">
     <g id="line2d_8">
      <g>
       <use xlink:href="#m9302db8914" x="169.142195" y="640.3905" style="stroke: #000000; stroke-width: 0.6"/>
      </g>
     </g>
    </g>
    <g id="xtick_9">
     <g id="line2d_9">
      <g>
       <use xlink:href="#m9302db8914" x="197.321717" y="640.3905" style="stroke: #000000; stroke-width: 0.6"/>
      </g>
     </g>
    </g>
    <g id="xtick_10">
     <g id="line2d_10">
      <g>
       <use xlink:href="#m9302db8914" x="253.68076" y="640.3905" style="stroke: #000000; stroke-width: 0.6"/>
      </g>
     </g>
    </g>
    <g id="xtick_11">
     <g id="line2d_11">
      <g>
       <use xlink:href="#m9302db8914" x="281.860282" y="640.3905" style="stroke: #000000; stroke-width: 0.6"/>
      </g>
     </g>
    </g>
    <g id="xtick_12">
     <g id="line2d_12">
      <g>
       <use xlink:href="#m9302db8914" x="310.039804" y="640.3905" style="stroke: #000000; stroke-width: 0.6"/>
      </g>
     </g>
    </g>
    <g id="xtick_13">
     <g id="line2d_13">
      <g>
       <use xlink:href="#m9302db8914" x="366.398847" y="640.3905" style="stroke: #000000; stroke-width: 0.6"/>
      </g>
     </g>
    </g>
    <g id="xtick_14">
     <g id="line2d_14">
      <g>
       <use xlink:href="#m9302db8914" x="394.578369" y="640.3905" style="stroke: #000000; stroke-width: 0.6"/>
      </g>
     </g>
    </g>
    <g id="xtick_15">
     <g id="line2d_15">
      <g>
       <use xlink:href="#m9302db8914" x="422.757891" y="640.3905" style="stroke: #000000; stroke-width: 0.6"/>
      </g>
     </g>
    </g>
    <g id="xtick_16">
     <g id="line2d_16">
      <g>
       <use xlink:href="#m9302db8914" x="479.116934" y="640.3905" style="stroke: #000000; stroke-width: 0.6"/>
      </g>
     </g>
    </g>
    <g id="xtick_17">
     <g id="line2d_17">
      <g>
       <use xlink:href="#m9302db8914" x="507.296456" y="640.3905" style="stroke: #000000; stroke-width: 0.6"/>
      </g>
     </g>
    </g>
    <g id="xtick_18">
     <g id="line2d_18">
      <g>
       <use xlink:href="#m9302db8914" x="535.475978" y="640.3905" style="stroke: #000000; stroke-width: 0.6"/>
      </g>
     </g>
    </g>
    <g id="xtick_19">
     <g id="line2d_19">
      <g>
       <use xlink:href="#m9302db8914" x="591.835021" y="640.3905" style="stroke: #000000; stroke-width: 0.6"/>
      </g>
     </g>
    </g>
    <g id="xtick_20">
     <g id="line2d_20">
      <g>
       <use xlink:href="#m9302db8914" x="620.014543" y="640.3905" style="stroke: #000000; stroke-width: 0.6"/>
      </g>
     </g>
    </g>
    <g id="xtick_21">
     <g id="line2d_21">
      <g>
       <use xlink:href="#m9302db8914" x="648.194065" y="640.3905" style="stroke: #000000; stroke-width: 0.6"/>
      </g>
     </g>
    </g>
    <g id="text_7">
     <!-- Time ps -->
     <g transform="translate(341.801807 697.59675) scale(0.3 -0.3)">
      <defs>
       <path id="LiberationSans-54" d="M 2250 3916 
L 2250 0 
L 1656 0 
L 1656 3916 
L 144 3916 
L 144 4403 
L 3763 4403 
L 3763 3916 
L 2250 3916 
z
" transform="scale(0.015625)"/>
       <path id="LiberationSans-69" d="M 428 4100 
L 428 4638 
L 991 4638 
L 991 4100 
L 428 4100 
z
M 428 0 
L 428 3381 
L 991 3381 
L 991 0 
L 428 0 
z
" transform="scale(0.015625)"/>
       <path id="LiberationSans-6d" d="M 2400 0 
L 2400 2144 
Q 2400 2634 2265 2821 
Q 2131 3009 1781 3009 
Q 1422 3009 1212 2734 
Q 1003 2459 1003 1959 
L 1003 0 
L 444 0 
L 444 2659 
Q 444 3250 425 3381 
L 956 3381 
Q 959 3366 962 3297 
Q 966 3228 970 3139 
Q 975 3050 981 2803 
L 991 2803 
Q 1172 3163 1406 3303 
Q 1641 3444 1978 3444 
Q 2363 3444 2586 3291 
Q 2809 3138 2897 2803 
L 2906 2803 
Q 3081 3144 3329 3294 
Q 3578 3444 3931 3444 
Q 4444 3444 4676 3166 
Q 4909 2888 4909 2253 
L 4909 0 
L 4353 0 
L 4353 2144 
Q 4353 2634 4218 2821 
Q 4084 3009 3734 3009 
Q 3366 3009 3161 2736 
Q 2956 2463 2956 1959 
L 2956 0 
L 2400 0 
z
" transform="scale(0.015625)"/>
       <path id="LiberationSans-65" d="M 863 1572 
Q 863 991 1103 675 
Q 1344 359 1806 359 
Q 2172 359 2392 506 
Q 2613 653 2691 878 
L 3184 738 
Q 2881 -63 1806 -63 
Q 1056 -63 664 384 
Q 272 831 272 1713 
Q 272 2550 664 2997 
Q 1056 3444 1784 3444 
Q 3275 3444 3275 1647 
L 3275 1572 
L 863 1572 
z
M 2694 2003 
Q 2647 2538 2422 2783 
Q 2197 3028 1775 3028 
Q 1366 3028 1127 2754 
Q 888 2481 869 2003 
L 2694 2003 
z
" transform="scale(0.015625)"/>
       <path id="LiberationSans-20" transform="scale(0.015625)"/>
       <path id="LiberationSans-70" d="M 3291 1706 
Q 3291 -63 2047 -63 
Q 1266 -63 997 525 
L 981 525 
Q 994 500 994 -6 
L 994 -1328 
L 431 -1328 
L 431 2691 
Q 431 3213 413 3381 
L 956 3381 
Q 959 3369 965 3292 
Q 972 3216 980 3056 
Q 988 2897 988 2838 
L 1000 2838 
Q 1150 3150 1397 3295 
Q 1644 3441 2047 3441 
Q 2672 3441 2981 3022 
Q 3291 2603 3291 1706 
z
M 2700 1694 
Q 2700 2400 2509 2703 
Q 2319 3006 1903 3006 
Q 1569 3006 1380 2865 
Q 1191 2725 1092 2426 
Q 994 2128 994 1650 
Q 994 984 1206 668 
Q 1419 353 1897 353 
Q 2316 353 2508 661 
Q 2700 969 2700 1694 
z
" transform="scale(0.015625)"/>
       <path id="LiberationSans-73" d="M 2969 934 
Q 2969 456 2608 196 
Q 2247 -63 1597 -63 
Q 966 -63 623 145 
Q 281 353 178 794 
L 675 891 
Q 747 619 972 492 
Q 1197 366 1597 366 
Q 2025 366 2223 497 
Q 2422 628 2422 891 
Q 2422 1091 2284 1216 
Q 2147 1341 1841 1422 
L 1438 1528 
Q 953 1653 748 1773 
Q 544 1894 428 2066 
Q 313 2238 313 2488 
Q 313 2950 642 3192 
Q 972 3434 1603 3434 
Q 2163 3434 2492 3237 
Q 2822 3041 2909 2606 
L 2403 2544 
Q 2356 2769 2151 2889 
Q 1947 3009 1603 3009 
Q 1222 3009 1040 2893 
Q 859 2778 859 2544 
Q 859 2400 934 2306 
Q 1009 2213 1156 2147 
Q 1303 2081 1775 1966 
Q 2222 1853 2419 1758 
Q 2616 1663 2730 1547 
Q 2844 1431 2906 1279 
Q 2969 1128 2969 934 
z
" transform="scale(0.015625)"/>
      </defs>
      <use xlink:href="#LiberationSans-54"/>
      <use xlink:href="#LiberationSans-69" x="57.333984"/>
      <use xlink:href="#LiberationSans-6d" x="79.550781"/>
      <use xlink:href="#LiberationSans-65" x="162.851562"/>
      <use xlink:href="#LiberationSans-20" x="218.466797"/>
      <use xlink:href="#LiberationSans-70" x="246.25"/>
      <use xlink:href="#LiberationSans-73" x="301.865234"/>
     </g>
    </g>
   </g>
   <g id="matplotlib.axis_2">
    <g id="ytick_1">
     <g id="line2d_22">
      <defs>
       <path id="mbf2af7bf80" d="M 0 0 
L 3.5 0 
" style="stroke: #000000; stroke-width: 0.8"/>
      </defs>
      <g>
       <use xlink:href="#mbf2af7bf80" x="84.665625" y="613.063091" style="stroke: #000000; stroke-width: 0.8"/>
      </g>
     </g>
     <g id="text_8">
      <!-- $\mathdefault{0.0}$ -->
      <g transform="translate(39.165625 623.933403) scale(0.3 -0.3)">
       <defs>
        <path id="LiberationSans-2e" d="M 584 0 
L 584 684 
L 1194 684 
L 1194 0 
L 584 0 
z
" transform="scale(0.015625)"/>
       </defs>
       <use xlink:href="#LiberationSans-30" transform="translate(0 0.171875)"/>
       <use xlink:href="#LiberationSans-2e" transform="translate(55.615234 0.171875)"/>
       <use xlink:href="#LiberationSans-30" transform="translate(83.398438 0.171875)"/>
      </g>
     </g>
    </g>
    <g id="ytick_2">
     <g id="line2d_23">
      <g>
       <use xlink:href="#mbf2af7bf80" x="84.665625" y="544.14344" style="stroke: #000000; stroke-width: 0.8"/>
      </g>
     </g>
     <g id="text_9">
      <!-- $\mathdefault{0.2}$ -->
      <g transform="translate(39.165625 555.013752) scale(0.3 -0.3)">
       <use xlink:href="#LiberationSans-30" transform="translate(0 0.171875)"/>
       <use xlink:href="#LiberationSans-2e" transform="translate(55.615234 0.171875)"/>
       <use xlink:href="#LiberationSans-32" transform="translate(83.398438 0.171875)"/>
      </g>
     </g>
    </g>
    <g id="ytick_3">
     <g id="line2d_24">
      <g>
       <use xlink:href="#mbf2af7bf80" x="84.665625" y="475.223789" style="stroke: #000000; stroke-width: 0.8"/>
      </g>
     </g>
     <g id="text_10">
      <!-- $\mathdefault{0.4}$ -->
      <g transform="translate(39.165625 486.094101) scale(0.3 -0.3)">
       <use xlink:href="#LiberationSans-30" transform="translate(0 0.171875)"/>
       <use xlink:href="#LiberationSans-2e" transform="translate(55.615234 0.171875)"/>
       <use xlink:href="#LiberationSans-34" transform="translate(83.398438 0.171875)"/>
      </g>
     </g>
    </g>
    <g id="ytick_4">
     <g id="line2d_25">
      <g>
       <use xlink:href="#mbf2af7bf80" x="84.665625" y="406.304138" style="stroke: #000000; stroke-width: 0.8"/>
      </g>
     </g>
     <g id="text_11">
      <!-- $\mathdefault{0.6}$ -->
      <g transform="translate(39.165625 417.17445) scale(0.3 -0.3)">
       <use xlink:href="#LiberationSans-30" transform="translate(0 0.171875)"/>
       <use xlink:href="#LiberationSans-2e" transform="translate(55.615234 0.171875)"/>
       <use xlink:href="#LiberationSans-36" transform="translate(83.398438 0.171875)"/>
      </g>
     </g>
    </g>
    <g id="ytick_5">
     <g id="line2d_26">
      <g>
       <use xlink:href="#mbf2af7bf80" x="84.665625" y="337.384487" style="stroke: #000000; stroke-width: 0.8"/>
      </g>
     </g>
     <g id="text_12">
      <!-- $\mathdefault{0.8}$ -->
      <g transform="translate(39.165625 348.254799) scale(0.3 -0.3)">
       <use xlink:href="#LiberationSans-30" transform="translate(0 0.171875)"/>
       <use xlink:href="#LiberationSans-2e" transform="translate(55.615234 0.171875)"/>
       <use xlink:href="#LiberationSans-38" transform="translate(83.398438 0.171875)"/>
      </g>
     </g>
    </g>
    <g id="ytick_6">
     <g id="line2d_27">
      <g>
       <use xlink:href="#mbf2af7bf80" x="84.665625" y="268.464836" style="stroke: #000000; stroke-width: 0.8"/>
      </g>
     </g>
     <g id="text_13">
      <!-- $\mathdefault{1.0}$ -->
      <g transform="translate(39.165625 279.335148) scale(0.3 -0.3)">
       <use xlink:href="#LiberationSans-31" transform="translate(0 0.171875)"/>
       <use xlink:href="#LiberationSans-2e" transform="translate(55.615234 0.171875)"/>
       <use xlink:href="#LiberationSans-30" transform="translate(83.398438 0.171875)"/>
      </g>
     </g>
    </g>
    <g id="ytick_7">
     <g id="line2d_28">
      <g>
       <use xlink:href="#mbf2af7bf80" x="84.665625" y="199.545185" style="stroke: #000000; stroke-width: 0.8"/>
      </g>
     </g>
     <g id="text_14">
      <!-- $\mathdefault{1.2}$ -->
      <g transform="translate(39.165625 210.415497) scale(0.3 -0.3)">
       <use xlink:href="#LiberationSans-31" transform="translate(0 0.171875)"/>
       <use xlink:href="#LiberationSans-2e" transform="translate(55.615234 0.171875)"/>
       <use xlink:href="#LiberationSans-32" transform="translate(83.398438 0.171875)"/>
      </g>
     </g>
    </g>
    <g id="ytick_8">
     <g id="line2d_29">
      <g>
       <use xlink:href="#mbf2af7bf80" x="84.665625" y="130.625534" style="stroke: #000000; stroke-width: 0.8"/>
      </g>
     </g>
     <g id="text_15">
      <!-- $\mathdefault{1.4}$ -->
      <g transform="translate(39.165625 141.495846) scale(0.3 -0.3)">
       <use xlink:href="#LiberationSans-31" transform="translate(0 0.203125)"/>
       <use xlink:href="#LiberationSans-2e" transform="translate(55.615234 0.203125)"/>
       <use xlink:href="#LiberationSans-34" transform="translate(83.398438 0.203125)"/>
      </g>
     </g>
    </g>
    <g id="ytick_9">
     <g id="line2d_30">
      <g>
       <use xlink:href="#mbf2af7bf80" x="84.665625" y="61.705883" style="stroke: #000000; stroke-width: 0.8"/>
      </g>
     </g>
     <g id="text_16">
      <!-- $\mathdefault{1.6}$ -->
      <g transform="translate(39.165625 72.576195) scale(0.3 -0.3)">
       <use xlink:href="#LiberationSans-31" transform="translate(0 0.171875)"/>
       <use xlink:href="#LiberationSans-2e" transform="translate(55.615234 0.171875)"/>
       <use xlink:href="#LiberationSans-36" transform="translate(83.398438 0.171875)"/>
      </g>
     </g>
    </g>
    <g id="ytick_10">
     <g id="line2d_31">
      <defs>
       <path id="m3e18b8b718" d="M 0 0 
L 2 0 
" style="stroke: #000000; stroke-width: 0.6"/>
      </defs>
      <g>
       <use xlink:href="#m3e18b8b718" x="84.665625" y="630.293004" style="stroke: #000000; stroke-width: 0.6"/>
      </g>
     </g>
    </g>
    <g id="ytick_11">
     <g id="line2d_32">
      <g>
       <use xlink:href="#m3e18b8b718" x="84.665625" y="595.833178" style="stroke: #000000; stroke-width: 0.6"/>
      </g>
     </g>
    </g>
    <g id="ytick_12">
     <g id="line2d_33">
      <g>
       <use xlink:href="#m3e18b8b718" x="84.665625" y="578.603265" style="stroke: #000000; stroke-width: 0.6"/>
      </g>
     </g>
    </g>
    <g id="ytick_13">
     <g id="line2d_34">
      <g>
       <use xlink:href="#m3e18b8b718" x="84.665625" y="561.373353" style="stroke: #000000; stroke-width: 0.6"/>
      </g>
     </g>
    </g>
    <g id="ytick_14">
     <g id="line2d_35">
      <g>
       <use xlink:href="#m3e18b8b718" x="84.665625" y="526.913527" style="stroke: #000000; stroke-width: 0.6"/>
      </g>
     </g>
    </g>
    <g id="ytick_15">
     <g id="line2d_36">
      <g>
       <use xlink:href="#m3e18b8b718" x="84.665625" y="509.683614" style="stroke: #000000; stroke-width: 0.6"/>
      </g>
     </g>
    </g>
    <g id="ytick_16">
     <g id="line2d_37">
      <g>
       <use xlink:href="#m3e18b8b718" x="84.665625" y="492.453702" style="stroke: #000000; stroke-width: 0.6"/>
      </g>
     </g>
    </g>
    <g id="ytick_17">
     <g id="line2d_38">
      <g>
       <use xlink:href="#m3e18b8b718" x="84.665625" y="457.993876" style="stroke: #000000; stroke-width: 0.6"/>
      </g>
     </g>
    </g>
    <g id="ytick_18">
     <g id="line2d_39">
      <g>
       <use xlink:href="#m3e18b8b718" x="84.665625" y="440.763963" style="stroke: #000000; stroke-width: 0.6"/>
      </g>
     </g>
    </g>
    <g id="ytick_19">
     <g id="line2d_40">
      <g>
       <use xlink:href="#m3e18b8b718" x="84.665625" y="423.534051" style="stroke: #000000; stroke-width: 0.6"/>
      </g>
     </g>
    </g>
    <g id="ytick_20">
     <g id="line2d_41">
      <g>
       <use xlink:href="#m3e18b8b718" x="84.665625" y="389.074225" style="stroke: #000000; stroke-width: 0.6"/>
      </g>
     </g>
    </g>
    <g id="ytick_21">
     <g id="line2d_42">
      <g>
       <use xlink:href="#m3e18b8b718" x="84.665625" y="371.844312" style="stroke: #000000; stroke-width: 0.6"/>
      </g>
     </g>
    </g>
    <g id="ytick_22">
     <g id="line2d_43">
      <g>
       <use xlink:href="#m3e18b8b718" x="84.665625" y="354.6144" style="stroke: #000000; stroke-width: 0.6"/>
      </g>
     </g>
    </g>
    <g id="ytick_23">
     <g id="line2d_44">
      <g>
       <use xlink:href="#m3e18b8b718" x="84.665625" y="320.154574" style="stroke: #000000; stroke-width: 0.6"/>
      </g>
     </g>
    </g>
    <g id="ytick_24">
     <g id="line2d_45">
      <g>
       <use xlink:href="#m3e18b8b718" x="84.665625" y="302.924661" style="stroke: #000000; stroke-width: 0.6"/>
      </g>
     </g>
    </g>
    <g id="ytick_25">
     <g id="line2d_46">
      <g>
       <use xlink:href="#m3e18b8b718" x="84.665625" y="285.694749" style="stroke: #000000; stroke-width: 0.6"/>
      </g>
     </g>
    </g>
    <g id="ytick_26">
     <g id="line2d_47">
      <g>
       <use xlink:href="#m3e18b8b718" x="84.665625" y="251.234923" style="stroke: #000000; stroke-width: 0.6"/>
      </g>
     </g>
    </g>
    <g id="ytick_27">
     <g id="line2d_48">
      <g>
       <use xlink:href="#m3e18b8b718" x="84.665625" y="234.00501" style="stroke: #000000; stroke-width: 0.6"/>
      </g>
     </g>
    </g>
    <g id="ytick_28">
     <g id="line2d_49">
      <g>
       <use xlink:href="#m3e18b8b718" x="84.665625" y="216.775098" style="stroke: #000000; stroke-width: 0.6"/>
      </g>
     </g>
    </g>
    <g id="ytick_29">
     <g id="line2d_50">
      <g>
       <use xlink:href="#m3e18b8b718" x="84.665625" y="182.315272" style="stroke: #000000; stroke-width: 0.6"/>
      </g>
     </g>
    </g>
    <g id="ytick_30">
     <g id="line2d_51">
      <g>
       <use xlink:href="#m3e18b8b718" x="84.665625" y="165.085359" style="stroke: #000000; stroke-width: 0.6"/>
      </g>
     </g>
    </g>
    <g id="ytick_31">
     <g id="line2d_52">
      <g>
       <use xlink:href="#m3e18b8b718" x="84.665625" y="147.855447" style="stroke: #000000; stroke-width: 0.6"/>
      </g>
     </g>
    </g>
    <g id="ytick_32">
     <g id="line2d_53">
      <g>
       <use xlink:href="#m3e18b8b718" x="84.665625" y="113.395621" style="stroke: #000000; stroke-width: 0.6"/>
      </g>
     </g>
    </g>
    <g id="ytick_33">
     <g id="line2d_54">
      <g>
       <use xlink:href="#m3e18b8b718" x="84.665625" y="96.165708" style="stroke: #000000; stroke-width: 0.6"/>
      </g>
     </g>
    </g>
    <g id="ytick_34">
     <g id="line2d_55">
      <g>
       <use xlink:href="#m3e18b8b718" x="84.665625" y="78.935796" style="stroke: #000000; stroke-width: 0.6"/>
      </g>
     </g>
    </g>
    <g id="ytick_35">
     <g id="line2d_56">
      <g>
       <use xlink:href="#m3e18b8b718" x="84.665625" y="44.47597" style="stroke: #000000; stroke-width: 0.6"/>
      </g>
     </g>
    </g>
    <g id="text_17">
     <!-- ITR $\mathrm{K} \cdot \mathrm{m}^2 / \mathrm{W}$ -->
     <g transform="translate(28.940625 423.789) rotate(-90) scale(0.3 -0.3)">
      <defs>
       <path id="LiberationSans-49" d="M 591 0 
L 591 4403 
L 1188 4403 
L 1188 0 
L 591 0 
z
" transform="scale(0.015625)"/>
       <path id="LiberationSans-52" d="M 3638 0 
L 2494 1828 
L 1122 1828 
L 1122 0 
L 525 0 
L 525 4403 
L 2597 4403 
Q 3341 4403 3745 4070 
Q 4150 3738 4150 3144 
Q 4150 2653 3864 2318 
Q 3578 1984 3075 1897 
L 4325 0 
L 3638 0 
z
M 3550 3138 
Q 3550 3522 3289 3723 
Q 3028 3925 2538 3925 
L 1122 3925 
L 1122 2300 
L 2563 2300 
Q 3034 2300 3292 2520 
Q 3550 2741 3550 3138 
z
" transform="scale(0.015625)"/>
       <path id="STIXGeneral-Regular-4b" d="M 4627 0 
L 2688 0 
L 2688 122 
L 2861 128 
Q 3130 134 3130 282 
Q 3130 397 2922 643 
Q 2714 890 2253 1370 
L 1613 2029 
L 1446 1894 
L 1446 710 
Q 1446 352 1548 253 
Q 1651 154 2016 122 
L 2016 0 
L 211 0 
L 211 122 
Q 589 141 691 262 
Q 794 384 794 800 
L 794 3514 
Q 794 3872 691 3981 
Q 589 4090 218 4115 
L 218 4237 
L 2022 4237 
L 2022 4115 
Q 1632 4090 1539 3987 
Q 1446 3885 1446 3507 
L 1446 2227 
L 2586 3277 
Q 2861 3533 2973 3667 
Q 3085 3802 3085 3910 
Q 3085 4013 3030 4057 
Q 2976 4102 2822 4109 
L 2662 4115 
L 2662 4237 
L 4320 4237 
L 4320 4115 
Q 3994 4090 3824 4003 
Q 3654 3917 3322 3597 
L 2131 2458 
L 3629 819 
Q 4026 384 4214 253 
Q 4403 122 4627 122 
L 4627 0 
z
" transform="scale(0.015625)"/>
       <path id="STIXGeneral-Regular-22c5" d="M 1187 1888 
Q 1299 1773 1299 1619 
Q 1299 1466 1187 1350 
Q 1075 1235 921 1235 
Q 768 1235 649 1353 
Q 531 1472 531 1619 
Q 531 1766 649 1884 
Q 768 2003 921 2003 
Q 1075 2003 1187 1888 
z
" transform="scale(0.015625)"/>
       <path id="STIXGeneral-Regular-6d" d="M 4960 0 
L 3565 0 
L 3565 96 
Q 3834 122 3907 208 
Q 3981 294 3981 576 
L 3981 1894 
Q 3981 2278 3869 2444 
Q 3757 2611 3488 2611 
Q 3264 2611 3107 2521 
Q 2950 2432 2803 2221 
L 2803 608 
Q 2803 301 2896 201 
Q 2989 102 3264 96 
L 3264 0 
L 1830 0 
L 1830 96 
Q 2112 115 2189 188 
Q 2266 262 2266 550 
L 2266 1901 
Q 2266 2611 1850 2611 
Q 1670 2611 1468 2531 
Q 1267 2451 1171 2336 
Q 1088 2240 1088 2227 
L 1088 448 
Q 1088 243 1177 176 
Q 1267 109 1523 96 
L 1523 0 
L 102 0 
L 102 96 
Q 371 102 460 195 
Q 550 288 550 563 
L 550 2150 
Q 550 2387 499 2480 
Q 448 2573 326 2573 
Q 230 2573 122 2547 
L 122 2656 
Q 557 2778 1011 2944 
L 1062 2925 
L 1062 2451 
L 1075 2451 
Q 1363 2752 1584 2848 
Q 1805 2944 2054 2944 
Q 2560 2944 2733 2406 
Q 3232 2944 3776 2944 
Q 4518 2944 4518 1792 
L 4518 493 
Q 4518 282 4582 202 
Q 4646 122 4794 109 
L 4960 96 
L 4960 0 
z
" transform="scale(0.015625)"/>
       <path id="STIXGeneral-Regular-32" d="M 3034 877 
L 2688 0 
L 186 0 
L 186 77 
L 1325 1286 
Q 1773 1754 1965 2144 
Q 2157 2534 2157 2950 
Q 2157 3379 1920 3616 
Q 1683 3853 1267 3853 
Q 922 3853 720 3673 
Q 518 3494 326 3021 
L 192 3053 
Q 301 3648 630 3987 
Q 960 4326 1523 4326 
Q 2054 4326 2380 4006 
Q 2707 3686 2707 3200 
Q 2707 2477 1888 1613 
L 832 486 
L 2330 486 
Q 2541 486 2665 569 
Q 2790 653 2944 915 
L 3034 877 
z
" transform="scale(0.015625)"/>
       <path id="STIXGeneral-Regular-2f" d="M 1837 4326 
L 378 -90 
L -58 -90 
L 1408 4326 
L 1837 4326 
z
" transform="scale(0.015625)"/>
       <path id="STIXGeneral-Regular-57" d="M 5965 4237 
L 5965 4115 
Q 5709 4064 5616 3990 
Q 5523 3917 5434 3667 
Q 4704 1709 4128 -70 
L 4032 -70 
Q 3642 1011 3008 2637 
L 2022 -70 
L 1926 -70 
Q 1709 576 1277 1753 
Q 845 2931 698 3347 
Q 538 3808 406 3958 
Q 275 4109 32 4115 
L 32 4237 
L 1594 4237 
L 1594 4115 
Q 1357 4109 1270 4064 
Q 1184 4019 1184 3917 
Q 1184 3808 1254 3616 
L 2176 1210 
L 2842 3021 
L 2662 3501 
Q 2509 3917 2400 4013 
Q 2291 4109 2010 4115 
L 2010 4237 
L 3706 4237 
L 3706 4115 
Q 3213 4102 3213 3891 
Q 3213 3808 3322 3520 
L 4237 1190 
L 5043 3360 
Q 5152 3667 5152 3853 
Q 5152 4109 4704 4115 
L 4704 4237 
L 5965 4237 
z
" transform="scale(0.015625)"/>
      </defs>
      <use xlink:href="#LiberationSans-49" transform="translate(0 0.409375)"/>
      <use xlink:href="#LiberationSans-54" transform="translate(27.783203 0.409375)"/>
      <use xlink:href="#LiberationSans-52" transform="translate(88.867188 0.409375)"/>
      <use xlink:href="#LiberationSans-20" transform="translate(161.083984 0.409375)"/>
      <use xlink:href="#STIXGeneral-Regular-4b" transform="translate(188.867188 0.409375)"/>
      <use xlink:href="#STIXGeneral-Regular-22c5" transform="translate(275.507166 0.409375)"/>
      <use xlink:href="#STIXGeneral-Regular-6d" transform="translate(318.547153 0.409375)"/>
      <use xlink:href="#STIXGeneral-Regular-32" transform="translate(397.890422 35.684375) scale(0.7)"/>
      <use xlink:href="#STIXGeneral-Regular-2f" transform="translate(437.299786 0.409375)"/>
      <use xlink:href="#STIXGeneral-Regular-57" transform="translate(465.099774 0.409375)"/>
     </g>
    </g>
    <g id="text_18">
     <!-- $\times\mathdefault{10^{−6}}\mathdefault{}$ -->
     <g transform="translate(84.665625 36.1875) scale(0.4 -0.4)">
      <defs>
       <path id="STIXGeneral-Regular-d7" d="M 3821 141 
L 3526 -160 
L 2048 1312 
L 570 -160 
L 275 134 
L 1747 1613 
L 275 3091 
L 576 3386 
L 2048 1914 
L 3526 3386 
L 3821 3098 
L 2349 1613 
L 3821 141 
z
" transform="scale(0.015625)"/>
       <path id="LiberationSans-2212" d="M 316 1900 
L 316 2356 
L 3425 2356 
L 3425 1900 
L 316 1900 
z
" transform="scale(0.015625)"/>
      </defs>
      <use xlink:href="#STIXGeneral-Regular-d7" transform="translate(0 0.140625)"/>
      <use xlink:href="#LiberationSans-31" transform="translate(63.999985 0.140625)"/>
      <use xlink:href="#LiberationSans-30" transform="translate(119.615219 0.140625)"/>
      <use xlink:href="#LiberationSans-2212" transform="translate(176.154946 37.120312) scale(0.7)"/>
      <use xlink:href="#LiberationSans-36" transform="translate(217.033852 37.120312) scale(0.7)"/>
     </g>
    </g>
   </g>
   <g id="line2d_57">
    <path d="M 112.839511 613.063091 
L 112.89587 82.585936 
L 112.952229 347.698 
L 113.121306 506.562301 
L 113.346742 553.367718 
L 113.628537 573.982028 
L 113.966692 584.811372 
L 114.361205 591.028016 
L 114.812077 594.704016 
L 115.26295 596.621339 
L 115.657463 597.465469 
L 115.995617 597.759381 
L 116.277412 597.761445 
L 116.615567 597.509906 
L 117.01008 596.893515 
L 117.517311 595.60398 
L 118.080902 593.487432 
L 118.700851 590.227884 
L 119.37716 585.346273 
L 120.053468 578.739726 
L 120.729777 569.929194 
L 121.462444 557.259991 
L 122.30783 538.290502 
L 123.604088 508.493329 
L 123.998601 503.663739 
L 124.280397 502.382327 
L 124.393115 502.393554 
L 124.562192 502.947722 
L 124.843987 505.164259 
L 125.294859 511.252175 
L 127.60558 546.862727 
L 128.281889 552.774008 
L 128.901838 556.489232 
L 129.465429 558.721495 
L 129.97266 559.963318 
L 130.423532 560.549916 
L 130.818046 560.713734 
L 131.1562 560.62045 
L 131.550713 560.262525 
L 132.057945 559.442652 
L 132.677894 557.948659 
L 133.466921 555.382115 
L 134.594102 550.81039 
L 136.510309 542.987758 
L 137.242977 540.936613 
L 137.750208 540.054194 
L 138.144721 539.716058 
L 138.482876 539.681445 
L 138.82103 539.884797 
L 139.215543 540.415831 
L 139.722775 541.529921 
L 140.399083 543.640121 
L 141.582623 548.257813 
L 142.766163 552.57975 
L 143.49883 554.483383 
L 144.062421 555.393286 
L 144.513293 555.748489 
L 144.907807 555.789236 
L 145.30232 555.590118 
L 145.753192 555.09527 
L 146.373142 554.026882 
L 147.274886 551.945682 
L 149.529248 546.577707 
L 150.712788 544.411722 
L 151.614533 543.146373 
L 152.234482 542.597187 
L 152.685355 542.444093 
L 153.079868 542.52196 
L 153.474381 542.819441 
L 153.981613 543.530422 
L 154.601562 544.845993 
L 155.672384 547.790041 
L 156.855924 550.864456 
L 157.588591 552.179092 
L 158.152182 552.790028 
L 158.659413 553.043469 
L 159.166645 553.041188 
L 159.730235 552.784012 
L 160.406544 552.201138 
L 161.364647 551.038496 
L 164.74619 546.60578 
L 165.366139 546.257853 
L 165.92973 546.196615 
L 166.49332 546.386018 
L 167.11327 546.853606 
L 167.958655 547.802966 
L 170.551171 550.917794 
L 171.509275 551.637186 
L 172.298302 551.971129 
L 173.030969 552.038438 
L 173.707278 551.863628 
L 174.383586 551.444679 
L 175.172613 550.662073 
L 176.299794 549.165773 
L 177.821488 547.197689 
L 178.610515 546.526627 
L 179.343182 546.180929 
L 180.132209 546.058961 
L 181.146672 546.152016 
L 182.330211 546.489816 
L 183.401033 547.024229 
L 184.697291 547.953093 
L 186.106267 548.900061 
L 186.838935 549.135255 
L 187.515243 549.120687 
L 188.247911 548.857712 
L 189.149656 548.271717 
L 192.305762 546.019082 
L 193.771097 545.332165 
L 194.729201 545.115658 
L 195.518228 545.17235 
L 196.307254 545.465013 
L 197.490794 546.194434 
L 198.787052 546.927752 
L 199.632438 547.160028 
L 200.534182 547.178959 
L 202.506749 546.903594 
L 207.071832 546.476378 
L 208.086294 546.575156 
L 209.157116 546.910331 
L 211.918709 547.90147 
L 213.214967 548.012342 
L 216.371074 548.179788 
L 218.681794 548.318792 
L 220.767079 548.193994 
L 222.006978 547.927065 
L 223.021441 547.485569 
L 224.148622 546.735715 
L 227.022933 544.678953 
L 228.206473 544.205497 
L 229.55909 543.91475 
L 230.798989 543.867943 
L 231.813452 544.057946 
L 232.827914 544.487684 
L 236.378534 546.261716 
L 237.392997 546.356347 
L 238.463819 546.222661 
L 239.534641 545.868456 
L 240.605462 545.283251 
L 241.845361 544.334787 
L 244.043364 542.606746 
L 244.832391 542.302433 
L 245.508699 542.272768 
L 246.185008 542.464433 
L 246.974034 542.93256 
L 248.101215 543.904843 
L 250.693731 546.238825 
L 251.708194 546.828296 
L 252.609939 547.109543 
L 253.511683 547.15471 
L 254.469787 546.969191 
L 255.540609 546.527393 
L 256.724149 545.798758 
L 258.133125 544.656529 
L 260.105691 543.045665 
L 260.894718 542.688719 
L 261.571027 542.616656 
L 262.247335 542.774029 
L 263.036362 543.205021 
L 264.501697 544.341719 
L 265.741596 545.165492 
L 266.6997 545.535328 
L 267.714162 545.680103 
L 268.954061 545.617093 
L 270.250319 545.330198 
L 271.3775 544.85483 
L 272.842835 543.959927 
L 274.251811 543.177707 
L 275.097197 542.950044 
L 275.942583 542.952433 
L 276.957045 543.191535 
L 281.071256 544.399513 
L 282.367514 544.47041 
L 283.551054 544.313706 
L 285.072748 543.864469 
L 287.27075 543.229052 
L 288.623367 543.07888 
L 289.863266 543.152516 
L 290.990447 543.434072 
L 292.173987 543.97151 
L 295.217376 545.516739 
L 296.175479 545.657103 
L 297.30266 545.579924 
L 301.642306 544.823855 
L 303.502155 544.276655 
L 305.136567 543.862343 
L 306.263748 543.807814 
L 307.616365 543.985608 
L 309.814368 544.290427 
L 310.997908 544.201304 
L 312.181448 543.886649 
L 313.703142 543.229665 
L 316.239299 542.107536 
L 317.197402 541.949263 
L 318.099147 542.024532 
L 319.11361 542.349874 
L 320.804381 543.188175 
L 322.720589 544.053666 
L 325.313105 544.91982 
L 326.891158 545.275784 
L 327.96198 545.294626 
L 329.032802 545.08813 
L 330.723573 544.486946 
L 332.470703 543.954683 
L 334.048756 543.728182 
L 335.739528 543.69942 
L 336.923068 543.884107 
L 337.993889 544.277214 
L 339.459225 545.094424 
L 340.980919 545.878238 
L 341.939023 546.116052 
L 342.840767 546.111115 
L 344.024307 545.854201 
L 346.22231 545.332187 
L 347.40585 545.311081 
L 349.15298 545.543174 
L 350.956469 545.709572 
L 352.590882 545.609014 
L 355.859706 545.345166 
L 360.988379 545.259593 
L 364.989871 544.73129 
L 366.455206 544.238648 
L 369.385877 543.167965 
L 370.456699 543.069271 
L 371.414802 543.20204 
L 372.485624 543.589939 
L 373.950959 544.394453 
L 376.092603 545.555439 
L 377.219784 545.912546 
L 378.234247 545.998339 
L 379.19235 545.852418 
L 380.263172 545.453458 
L 382.010302 544.513069 
L 383.813792 543.630197 
L 384.997332 543.292948 
L 385.955435 543.243595 
L 386.85718 543.424113 
L 387.815284 543.852608 
L 389.506055 544.92139 
L 390.745954 545.566045 
L 391.647699 545.7965 
L 392.549444 545.798925 
L 393.620265 545.562202 
L 395.592832 544.831427 
L 397.847194 544.090162 
L 399.481606 543.781229 
L 401.116018 543.706685 
L 406.977359 543.696633 
L 409.288079 543.49053 
L 410.471619 543.629373 
L 412.106032 544.081289 
L 413.684085 544.448903 
L 414.754907 544.464079 
L 415.825729 544.244911 
L 417.178346 543.713422 
L 419.770862 542.648649 
L 420.785324 542.502081 
L 421.743428 542.590218 
L 422.870609 542.941573 
L 425.970356 544.058234 
L 427.322973 544.195477 
L 429.577335 544.14558 
L 432.958878 544.117337 
L 436.847652 544.160572 
L 441.187298 543.954773 
L 447.274075 544.104749 
L 449.753873 543.796415 
L 451.839157 543.309189 
L 455.615213 542.357944 
L 456.911471 542.305974 
L 458.15137 542.483075 
L 463.054607 543.480936 
L 466.097995 543.82286 
L 468.408716 544.016572 
L 470.719437 544.221178 
L 472.748362 544.686689 
L 474.439134 544.980104 
L 475.791751 544.974392 
L 477.877035 544.692719 
L 481.033142 544.095626 
L 483.005708 543.405209 
L 484.414684 543.011062 
L 485.429147 542.947377 
L 486.44361 543.101696 
L 487.796227 543.553664 
L 489.937871 544.273985 
L 491.008693 544.383771 
L 492.079514 544.270234 
L 496.024647 543.595502 
L 499.40619 543.618483 
L 501.096961 543.207248 
L 502.618655 542.916653 
L 503.914913 542.906622 
L 506.789225 542.974177 
L 509.888972 542.810811 
L 513.890464 543.07943 
L 515.693954 542.681655 
L 517.159289 542.468793 
L 518.455547 542.518598 
L 521.442576 542.729936 
L 524.485964 542.720587 
L 525.951299 543.046065 
L 528.149302 543.535665 
L 529.558278 543.593782 
L 532.37623 543.409025 
L 534.461515 543.136287 
L 536.603159 542.579628 
L 538.124853 542.300096 
L 539.421111 542.303718 
L 544.887938 542.842461 
L 546.635068 543.321808 
L 548.213122 543.683874 
L 549.396662 543.719292 
L 551.143792 543.504463 
L 553.62359 543.264576 
L 555.821593 542.988974 
L 558.188672 542.687913 
L 559.48493 542.778303 
L 561.964728 543.26471 
L 563.486422 543.406961 
L 565.233553 543.324232 
L 568.3333 543.140564 
L 569.798635 543.313208 
L 571.602125 543.781677 
L 573.687409 544.279195 
L 574.927308 544.334438 
L 576.167207 544.1541 
L 577.688901 543.68552 
L 580.168699 542.905493 
L 581.29588 542.80745 
L 582.366702 542.94827 
L 583.606601 543.357173 
L 586.59363 544.448994 
L 587.77717 544.590476 
L 588.96071 544.507298 
L 590.256968 544.178378 
L 592.736766 543.227874 
L 594.145742 542.844695 
L 595.329282 542.745403 
L 596.512822 542.871095 
L 597.921798 543.264257 
L 601.416059 544.3584 
L 602.937753 544.530338 
L 604.346729 544.473598 
L 605.755705 544.19498 
L 607.728272 543.537741 
L 609.58812 542.990412 
L 610.940737 542.824794 
L 612.51879 542.870507 
L 614.491357 543.155117 
L 618.549208 543.855182 
L 619.901825 543.738166 
L 622.945213 543.389416 
L 625.48137 543.512976 
L 627.172142 543.436216 
L 630.046453 543.234333 
L 631.229993 543.421126 
L 632.526251 543.862327 
L 636.415025 545.373211 
L 637.654924 545.501217 
L 639.120259 545.414821 
L 640.81103 545.081254 
L 643.009033 544.387826 
L 644.92524 543.868026 
L 646.334216 543.732093 
L 648.47586 543.803471 
L 651.519248 543.820495 
L 653.548174 543.959885 
L 656.422485 544.184844 
L 661.607517 544.116721 
L 662.847416 543.766567 
L 665.834445 542.797175 
L 667.017985 542.731883 
L 668.426961 542.886008 
L 670.230451 543.322245 
L 672.65389 543.919447 
L 673.78107 543.932624 
L 675.077328 543.700273 
L 676.317227 543.412306 
L 676.317227 543.412306 
" clip-path="url(#pa5a25f2774)" style="fill: none; stroke: #ff0000; stroke-width: 1.5; stroke-linecap: square"/>
   </g>
   <g id="line2d_58">
    <path d="M 112.839511 613.063091 
L 112.89587 66.514909 
L 112.952229 339.234956 
L 113.121306 502.86441 
L 113.346742 551.076938 
L 113.628537 572.294969 
L 113.966692 583.42946 
L 114.361205 589.812708 
L 114.812077 593.579294 
L 115.26295 595.534335 
L 115.657463 596.384836 
L 115.995617 596.670068 
L 116.277412 596.657153 
L 116.615567 596.380424 
L 117.01008 595.728343 
L 117.517311 594.391024 
L 118.080902 592.236349 
L 118.75721 588.653983 
L 119.489878 583.408564 
L 120.278905 575.963653 
L 121.12429 565.780271 
L 123.378652 536.962251 
L 123.773165 534.940905 
L 123.998601 534.524539 
L 124.167679 534.560357 
L 124.393115 535.045427 
L 124.731269 536.596887 
L 125.2385 540.287527 
L 127.60558 559.480201 
L 128.338248 563.079354 
L 129.014556 565.360987 
L 129.634506 566.699201 
L 130.198096 567.403635 
L 130.705328 567.69542 
L 131.212559 567.719377 
L 131.776149 567.499263 
L 132.452458 566.984883 
L 133.297844 566.037293 
L 134.255947 564.590257 
L 135.383128 562.453482 
L 137.975644 557.349569 
L 138.708312 556.426945 
L 139.271902 556.042778 
L 139.722775 555.966411 
L 140.173647 556.105887 
L 140.680878 556.515812 
L 141.300828 557.339665 
L 142.202572 558.971419 
L 144.175139 562.65235 
L 144.851448 563.441257 
L 145.415038 563.789134 
L 145.922269 563.840812 
L 146.429501 563.640452 
L 146.993091 563.13989 
L 147.725759 562.157852 
L 149.078376 559.883099 
L 150.656429 557.351444 
L 151.389097 556.553911 
L 151.952687 556.257198 
L 152.403559 556.268898 
L 152.854432 556.523787 
L 153.361663 557.097337 
L 154.037972 558.264225 
L 155.165152 560.785667 
L 156.46141 563.556442 
L 157.194078 564.651862 
L 157.814028 565.201674 
L 158.321259 565.375205 
L 158.82849 565.307974 
L 159.392081 564.985549 
L 160.124748 564.268328 
L 162.717264 561.444193 
L 163.337214 561.184474 
L 163.957163 561.173208 
L 164.633472 561.408026 
L 165.704294 562.065736 
L 168.522246 563.849609 
L 169.762145 564.381818 
L 170.720248 564.570732 
L 171.678352 564.529078 
L 172.918251 564.227858 
L 175.679844 563.491735 
L 177.201538 563.370031 
L 180.752158 563.431629 
L 182.330211 563.611379 
L 184.133701 564.07509 
L 186.218985 564.571197 
L 187.571602 564.650417 
L 189.48781 564.50978 
L 191.460376 564.435238 
L 193.263866 564.636555 
L 195.743664 564.872749 
L 200.026951 565.01853 
L 202.788544 565.141458 
L 206.113728 565.310828 
L 211.524196 565.262998 
L 215.018457 565.551806 
L 217.441896 565.491834 
L 219.245385 565.23796 
L 222.908723 564.595044 
L 223.866826 564.766585 
L 224.937648 565.213877 
L 227.022933 566.162002 
L 227.981037 566.315634 
L 229.051858 566.255408 
L 231.193502 565.833979 
L 232.771555 565.653718 
L 234.180531 565.731276 
L 239.421922 566.302545 
L 242.578029 566.264372 
L 247.424907 566.025798 
L 252.609939 566.280084 
L 255.596968 566.458593 
L 261.063795 566.79365 
L 265.121646 566.7524 
L 267.488726 567.058957 
L 269.799447 567.288435 
L 271.659295 567.225066 
L 274.30817 566.890097 
L 278.366022 566.318544 
L 279.436843 566.452708 
L 280.451306 566.8208 
L 281.803923 567.591763 
L 283.15654 568.286879 
L 284.114644 568.519673 
L 285.072748 568.508287 
L 286.256288 568.246741 
L 288.792445 567.622177 
L 290.032344 567.600529 
L 292.173987 567.862569 
L 294.146554 567.966205 
L 297.020865 568.111587 
L 300.402408 568.340272 
L 306.996416 568.407795 
L 309.758009 568.134501 
L 311.561498 568.251237 
L 314.435809 568.675228 
L 317.36648 569.102307 
L 319.11361 569.122754 
L 321.931562 568.867538 
L 323.904129 568.829898 
L 326.834799 569.04143 
L 330.723573 569.311373 
L 332.414344 569.131417 
L 335.401373 568.759339 
L 336.641272 568.856227 
L 338.050249 569.209376 
L 340.248251 569.780356 
L 341.600868 569.868253 
L 343.235281 569.731933 
L 347.180414 569.291445 
L 349.15298 569.431846 
L 352.421805 569.664404 
L 357.3814 569.869318 
L 366.737002 570.533628 
L 368.765927 570.252878 
L 370.738494 570.039371 
L 372.316547 570.112157 
L 374.852704 570.495613 
L 377.107066 570.749934 
L 379.19235 570.741381 
L 383.475638 570.658396 
L 387.871643 570.809896 
L 390.013287 570.472811 
L 391.534981 570.329915 
L 392.605803 570.447437 
L 393.732983 570.806191 
L 396.550936 571.835994 
L 397.678117 571.909522 
L 399.087093 571.753915 
L 402.637712 571.266653 
L 404.441202 571.325886 
L 407.315513 571.66585 
L 409.964388 571.956532 
L 411.429723 571.872928 
L 413.571367 571.473026 
L 415.487574 571.212895 
L 417.009268 571.228767 
L 419.26363 571.521312 
L 421.799787 571.7564 
L 424.843175 571.796053 
L 428.67559 571.861418 
L 431.888056 572.086557 
L 436.678575 572.475649 
L 442.990787 572.632356 
L 444.850636 572.421255 
L 448.908487 571.814228 
L 449.979309 572.006196 
L 451.388285 572.522051 
L 453.079056 573.082735 
L 454.262596 573.235922 
L 455.558854 573.166688 
L 457.531421 572.791344 
L 459.447628 572.512008 
L 461.194759 572.509925 
L 463.956352 572.749861 
L 469.479538 573.351905 
L 472.353849 573.278244 
L 478.722421 572.914397 
L 484.640121 573.273604 
L 487.176278 573.552942 
L 489.430639 573.552576 
L 495.122903 573.450665 
L 500.58973 573.519371 
L 504.70394 573.308895 
L 506.000198 573.561232 
L 509.945331 574.557209 
L 511.241589 574.471579 
L 515.524876 574.004932 
L 518.173751 574.219423 
L 521.837089 574.436475 
L 524.091451 574.316799 
L 527.134839 574.166388 
L 530.6291 574.278666 
L 534.010643 574.399808 
L 539.139316 574.416915 
L 543.648039 574.736626 
L 545.564247 574.544017 
L 548.382199 574.25684 
L 550.411124 574.325181 
L 553.454513 574.67672 
L 555.934311 574.916101 
L 557.568723 574.825185 
L 560.781188 574.57253 
L 562.077446 574.742948 
L 563.711859 575.213015 
L 565.233553 575.586312 
L 566.417093 575.650219 
L 567.76971 575.49135 
L 572.052997 574.807548 
L 577.125311 574.715492 
L 580.845008 574.903152 
L 586.59363 575.027053 
L 594.483896 575.144376 
L 598.316311 574.873962 
L 603.501343 575.046164 
L 605.699346 575.306538 
L 608.968171 575.698858 
L 611.391609 575.729473 
L 613.420535 575.536776 
L 617.140232 575.11912 
L 618.43649 575.248734 
L 620.014543 575.65371 
L 622.043469 576.148524 
L 623.565163 576.270731 
L 625.537729 576.193803 
L 629.370144 575.982351 
L 636.809538 576.10618 
L 640.078362 576.130084 
L 646.10878 576.211452 
L 652.02648 575.947579 
L 654.618996 576.214552 
L 658.50777 576.570459 
L 661.269363 576.595018 
L 664.087315 576.372989 
L 667.29978 576.182481 
L 670.568605 576.240277 
L 676.317227 576.423498 
L 676.317227 576.423498 
" clip-path="url(#pa5a25f2774)" style="fill: none; stroke: #0000ff; stroke-width: 1.5; stroke-linecap: square"/>
   </g>
   <g id="patch_3">
    <path d="M 84.665625 640.3905 
L 84.665625 39.1875 
" style="fill: none; stroke: #000000; stroke-width: 0.8; stroke-linejoin: miter; stroke-linecap: square"/>
   </g>
   <g id="patch_4">
    <path d="M 704.491113 640.3905 
L 704.491113 39.1875 
" style="fill: none; stroke: #000000; stroke-width: 0.8; stroke-linejoin: miter; stroke-linecap: square"/>
   </g>
   <g id="patch_5">
    <path d="M 84.665625 640.3905 
L 704.491113 640.3905 
" style="fill: none; stroke: #000000; stroke-width: 0.8; stroke-linejoin: miter; stroke-linecap: square"/>
   </g>
   <g id="patch_6">
    <path d="M 84.665625 39.1875 
L 704.491113 39.1875 
" style="fill: none; stroke: #000000; stroke-width: 0.8; stroke-linejoin: miter; stroke-linecap: square"/>
   </g>
   <g id="legend_1">
    <g id="patch_7">
     <path d="M 507.480176 149.11875 
L 683.491113 149.11875 
Q 689.491113 149.11875 689.491113 143.11875 
L 689.491113 60.1875 
Q 689.491113 54.1875 683.491113 54.1875 
L 507.480176 54.1875 
Q 501.480176 54.1875 501.480176 60.1875 
L 501.480176 143.11875 
Q 501.480176 149.11875 507.480176 149.11875 
z
" style="fill: #ffffff; opacity: 0.8; stroke: #cccccc; stroke-linejoin: miter"/>
    </g>
    <g id="line2d_59">
     <path d="M 513.480176 77.428125 
L 543.480176 77.428125 
L 573.480176 77.428125 
" style="fill: none; stroke: #ff0000; stroke-width: 1.5; stroke-linecap: square"/>
    </g>
    <g id="text_19">
     <!-- MD -->
     <g transform="translate(597.480176 87.928125) scale(0.3 -0.3)">
      <defs>
       <path id="LiberationSans-4d" d="M 4269 0 
L 4269 2938 
Q 4269 3425 4297 3875 
Q 4144 3316 4022 3000 
L 2884 0 
L 2466 0 
L 1313 3000 
L 1138 3531 
L 1034 3875 
L 1044 3528 
L 1056 2938 
L 1056 0 
L 525 0 
L 525 4403 
L 1309 4403 
L 2481 1350 
Q 2544 1166 2601 955 
Q 2659 744 2678 650 
Q 2703 775 2783 1029 
Q 2863 1284 2891 1350 
L 4041 4403 
L 4806 4403 
L 4806 0 
L 4269 0 
z
" transform="scale(0.015625)"/>
       <path id="LiberationSans-44" d="M 4316 2247 
Q 4316 1566 4050 1055 
Q 3784 544 3296 272 
Q 2809 0 2172 0 
L 525 0 
L 525 4403 
L 1981 4403 
Q 3100 4403 3708 3842 
Q 4316 3281 4316 2247 
z
M 3716 2247 
Q 3716 3066 3267 3495 
Q 2819 3925 1969 3925 
L 1122 3925 
L 1122 478 
L 2103 478 
Q 2588 478 2955 690 
Q 3322 903 3519 1303 
Q 3716 1703 3716 2247 
z
" transform="scale(0.015625)"/>
      </defs>
      <use xlink:href="#LiberationSans-4d"/>
      <use xlink:href="#LiberationSans-44" x="83.300781"/>
     </g>
    </g>
    <g id="line2d_60">
     <path d="M 513.480176 120.39375 
L 543.480176 120.39375 
L 573.480176 120.39375 
" style="fill: none; stroke: #0000ff; stroke-width: 1.5; stroke-linecap: square"/>
    </g>
    <g id="text_20">
     <!-- GANs -->
     <g transform="translate(597.480176 130.89375) scale(0.3 -0.3)">
      <defs>
       <path id="LiberationSans-47" d="M 322 2222 
Q 322 3294 897 3881 
Q 1472 4469 2513 4469 
Q 3244 4469 3700 4222 
Q 4156 3975 4403 3431 
L 3834 3263 
Q 3647 3638 3317 3809 
Q 2988 3981 2497 3981 
Q 1734 3981 1331 3520 
Q 928 3059 928 2222 
Q 928 1388 1356 905 
Q 1784 422 2541 422 
Q 2972 422 3345 553 
Q 3719 684 3950 909 
L 3950 1703 
L 2634 1703 
L 2634 2203 
L 4500 2203 
L 4500 684 
Q 4150 328 3642 132 
Q 3134 -63 2541 -63 
Q 1850 -63 1350 212 
Q 850 488 586 1005 
Q 322 1522 322 2222 
z
" transform="scale(0.015625)"/>
       <path id="LiberationSans-41" d="M 3647 0 
L 3144 1288 
L 1138 1288 
L 631 0 
L 13 0 
L 1809 4403 
L 2488 4403 
L 4256 0 
L 3647 0 
z
M 2141 3953 
L 2113 3866 
Q 2034 3606 1881 3200 
L 1319 1753 
L 2966 1753 
L 2400 3206 
Q 2313 3422 2225 3694 
L 2141 3953 
z
" transform="scale(0.015625)"/>
       <path id="LiberationSans-4e" d="M 3381 0 
L 1025 3750 
L 1041 3447 
L 1056 2925 
L 1056 0 
L 525 0 
L 525 4403 
L 1219 4403 
L 3600 628 
Q 3563 1241 3563 1516 
L 3563 4403 
L 4100 4403 
L 4100 0 
L 3381 0 
z
" transform="scale(0.015625)"/>
      </defs>
      <use xlink:href="#LiberationSans-47"/>
      <use xlink:href="#LiberationSans-41" x="77.783203"/>
      <use xlink:href="#LiberationSans-4e" x="144.482422"/>
      <use xlink:href="#LiberationSans-73" x="216.699219"/>
     </g>
    </g>
   </g>
  </g>
 </g>
 <defs>
  <clipPath id="pa5a25f2774">
   <rect x="84.665625" y="39.1875" width="619.825488" height="601.203"/>
  </clipPath>
 </defs>
</svg>
