<?xml version="1.0" encoding="utf-8" standalone="no"?>
<!DOCTYPE svg PUBLIC "-//W3C//DTD SVG 1.1//EN"
  "http://www.w3.org/Graphics/SVG/1.1/DTD/svg11.dtd">
<svg xmlns:xlink="http://www.w3.org/1999/xlink" width="710.017477pt" height="711.02175pt" viewBox="0 0 710.017477 711.02175" xmlns="http://www.w3.org/2000/svg" version="1.1">
 <metadata>
  <rdf:RDF xmlns:dc="http://purl.org/dc/elements/1.1/" xmlns:cc="http://creativecommons.org/ns#" xmlns:rdf="http://www.w3.org/1999/02/22-rdf-syntax-ns#">
   <cc:Work>
    <dc:type rdf:resource="http://purl.org/dc/dcmitype/StillImage"/>
    <dc:date>2025-02-05T17:29:09.419211</dc:date>
    <dc:format>image/svg+xml</dc:format>
    <dc:creator>
     <cc:Agent>
      <dc:title>Matplotlib v3.9.3, https://matplotlib.org/</dc:title>
     </cc:Agent>
    </dc:creator>
   </cc:Work>
  </rdf:RDF>
 </metadata>
 <defs>
  <style type="text/css">*{stroke-linejoin: round; stroke-linecap: butt}</style>
 </defs>
 <g id="figure_1">
  <g id="patch_1">
   <path d="M 0 711.02175 
L 710.017477 711.02175 
L 710.017477 0 
L 0 0 
z
" style="fill: #ffffff"/>
  </g>
  <g id="axes_1">
   <g id="patch_2">
    <path d="M 104.4 640.3905 
L 702.817477 640.3905 
L 702.817477 39.1875 
L 104.4 39.1875 
z
" style="fill: #ffffff"/>
   </g>
   <g id="matplotlib.axis_1">
    <g id="xtick_1">
     <g id="line2d_1">
      <defs>
       <path id="mab1dc86661" d="M 0 0 
L 0 -3.5 
" style="stroke: #000000; stroke-width: 0.8"/>
      </defs>
      <g>
       <use xlink:href="#mab1dc86661" x="131.546387" y="640.3905" style="stroke: #000000; stroke-width: 0.8"/>
      </g>
     </g>
     <g id="text_1">
      <!-- 0 -->
      <g transform="translate(123.204981 665.631125) scale(0.3 -0.3)">
       <defs>
        <path id="LiberationSans-30" d="M 3309 2203 
Q 3309 1100 2920 518 
Q 2531 -63 1772 -63 
Q 1013 -63 631 515 
Q 250 1094 250 2203 
Q 250 3338 620 3903 
Q 991 4469 1791 4469 
Q 2569 4469 2939 3897 
Q 3309 3325 3309 2203 
z
M 2738 2203 
Q 2738 3156 2517 3584 
Q 2297 4013 1791 4013 
Q 1272 4013 1045 3591 
Q 819 3169 819 2203 
Q 819 1266 1048 831 
Q 1278 397 1778 397 
Q 2275 397 2506 840 
Q 2738 1284 2738 2203 
z
" transform="scale(0.015625)"/>
       </defs>
       <use xlink:href="#LiberationSans-30"/>
      </g>
     </g>
    </g>
    <g id="xtick_2">
     <g id="line2d_2">
      <g>
       <use xlink:href="#mab1dc86661" x="240.360446" y="640.3905" style="stroke: #000000; stroke-width: 0.8"/>
      </g>
     </g>
     <g id="text_2">
      <!-- 2 -->
      <g transform="translate(232.01904 665.631125) scale(0.3 -0.3)">
       <defs>
        <path id="LiberationSans-32" d="M 322 0 
L 322 397 
Q 481 763 711 1042 
Q 941 1322 1194 1548 
Q 1447 1775 1695 1969 
Q 1944 2163 2144 2356 
Q 2344 2550 2467 2762 
Q 2591 2975 2591 3244 
Q 2591 3606 2378 3806 
Q 2166 4006 1788 4006 
Q 1428 4006 1195 3811 
Q 963 3616 922 3263 
L 347 3316 
Q 409 3844 795 4156 
Q 1181 4469 1788 4469 
Q 2453 4469 2811 4155 
Q 3169 3841 3169 3263 
Q 3169 3006 3051 2753 
Q 2934 2500 2703 2247 
Q 2472 1994 1819 1463 
Q 1459 1169 1246 933 
Q 1034 697 941 478 
L 3238 478 
L 3238 0 
L 322 0 
z
" transform="scale(0.015625)"/>
       </defs>
       <use xlink:href="#LiberationSans-32"/>
      </g>
     </g>
    </g>
    <g id="xtick_3">
     <g id="line2d_3">
      <g>
       <use xlink:href="#mab1dc86661" x="349.174505" y="640.3905" style="stroke: #000000; stroke-width: 0.8"/>
      </g>
     </g>
     <g id="text_3">
      <!-- 4 -->
      <g transform="translate(340.833099 665.631125) scale(0.3 -0.3)">
       <defs>
        <path id="LiberationSans-34" d="M 2753 997 
L 2753 0 
L 2222 0 
L 2222 997 
L 147 997 
L 147 1434 
L 2163 4403 
L 2753 4403 
L 2753 1441 
L 3372 1441 
L 3372 997 
L 2753 997 
z
M 2222 3769 
Q 2216 3750 2134 3603 
Q 2053 3456 2013 3397 
L 884 1734 
L 716 1503 
L 666 1441 
L 2222 1441 
L 2222 3769 
z
" transform="scale(0.015625)"/>
       </defs>
       <use xlink:href="#LiberationSans-34"/>
      </g>
     </g>
    </g>
    <g id="xtick_4">
     <g id="line2d_4">
      <g>
       <use xlink:href="#mab1dc86661" x="457.988564" y="640.3905" style="stroke: #000000; stroke-width: 0.8"/>
      </g>
     </g>
     <g id="text_4">
      <!-- 6 -->
      <g transform="translate(449.647158 665.631125) scale(0.3 -0.3)">
       <defs>
        <path id="LiberationSans-36" d="M 3278 1441 
Q 3278 744 2900 340 
Q 2522 -63 1856 -63 
Q 1113 -63 719 490 
Q 325 1044 325 2100 
Q 325 3244 734 3856 
Q 1144 4469 1900 4469 
Q 2897 4469 3156 3572 
L 2619 3475 
Q 2453 4013 1894 4013 
Q 1413 4013 1148 3564 
Q 884 3116 884 2266 
Q 1038 2550 1316 2698 
Q 1594 2847 1953 2847 
Q 2563 2847 2920 2465 
Q 3278 2084 3278 1441 
z
M 2706 1416 
Q 2706 1894 2472 2153 
Q 2238 2413 1819 2413 
Q 1425 2413 1183 2183 
Q 941 1953 941 1550 
Q 941 1041 1192 716 
Q 1444 391 1838 391 
Q 2244 391 2475 664 
Q 2706 938 2706 1416 
z
" transform="scale(0.015625)"/>
       </defs>
       <use xlink:href="#LiberationSans-36"/>
      </g>
     </g>
    </g>
    <g id="xtick_5">
     <g id="line2d_5">
      <g>
       <use xlink:href="#mab1dc86661" x="566.802623" y="640.3905" style="stroke: #000000; stroke-width: 0.8"/>
      </g>
     </g>
     <g id="text_5">
      <!-- 8 -->
      <g transform="translate(558.461217 665.631125) scale(0.3 -0.3)">
       <defs>
        <path id="LiberationSans-38" d="M 3281 1228 
Q 3281 619 2893 278 
Q 2506 -63 1781 -63 
Q 1075 -63 676 271 
Q 278 606 278 1222 
Q 278 1653 525 1947 
Q 772 2241 1156 2303 
L 1156 2316 
Q 797 2400 589 2681 
Q 381 2963 381 3341 
Q 381 3844 757 4156 
Q 1134 4469 1769 4469 
Q 2419 4469 2795 4162 
Q 3172 3856 3172 3334 
Q 3172 2956 2962 2675 
Q 2753 2394 2391 2322 
L 2391 2309 
Q 2813 2241 3047 1952 
Q 3281 1663 3281 1228 
z
M 2588 3303 
Q 2588 4050 1769 4050 
Q 1372 4050 1164 3862 
Q 956 3675 956 3303 
Q 956 2925 1170 2726 
Q 1384 2528 1775 2528 
Q 2172 2528 2380 2711 
Q 2588 2894 2588 3303 
z
M 2697 1281 
Q 2697 1691 2453 1898 
Q 2209 2106 1769 2106 
Q 1341 2106 1100 1882 
Q 859 1659 859 1269 
Q 859 359 1788 359 
Q 2247 359 2472 579 
Q 2697 800 2697 1281 
z
" transform="scale(0.015625)"/>
       </defs>
       <use xlink:href="#LiberationSans-38"/>
      </g>
     </g>
    </g>
    <g id="xtick_6">
     <g id="line2d_6">
      <g>
       <use xlink:href="#mab1dc86661" x="675.616682" y="640.3905" style="stroke: #000000; stroke-width: 0.8"/>
      </g>
     </g>
     <g id="text_6">
      <!-- 10 -->
      <g transform="translate(658.93387 665.631125) scale(0.3 -0.3)">
       <defs>
        <path id="LiberationSans-31" d="M 488 0 
L 488 478 
L 1609 478 
L 1609 3866 
L 616 3156 
L 616 3688 
L 1656 4403 
L 2175 4403 
L 2175 478 
L 3247 478 
L 3247 0 
L 488 0 
z
" transform="scale(0.015625)"/>
       </defs>
       <use xlink:href="#LiberationSans-31"/>
       <use xlink:href="#LiberationSans-30" x="55.615234"/>
      </g>
     </g>
    </g>
    <g id="xtick_7">
     <g id="line2d_7">
      <defs>
       <path id="mbc20c37b69" d="M 0 0 
L 0 -2 
" style="stroke: #000000; stroke-width: 0.6"/>
      </defs>
      <g>
       <use xlink:href="#mbc20c37b69" x="158.749902" y="640.3905" style="stroke: #000000; stroke-width: 0.6"/>
      </g>
     </g>
    </g>
    <g id="xtick_8">
     <g id="line2d_8">
      <g>
       <use xlink:href="#mbc20c37b69" x="185.953417" y="640.3905" style="stroke: #000000; stroke-width: 0.6"/>
      </g>
     </g>
    </g>
    <g id="xtick_9">
     <g id="line2d_9">
      <g>
       <use xlink:href="#mbc20c37b69" x="213.156932" y="640.3905" style="stroke: #000000; stroke-width: 0.6"/>
      </g>
     </g>
    </g>
    <g id="xtick_10">
     <g id="line2d_10">
      <g>
       <use xlink:href="#mbc20c37b69" x="267.563961" y="640.3905" style="stroke: #000000; stroke-width: 0.6"/>
      </g>
     </g>
    </g>
    <g id="xtick_11">
     <g id="line2d_11">
      <g>
       <use xlink:href="#mbc20c37b69" x="294.767476" y="640.3905" style="stroke: #000000; stroke-width: 0.6"/>
      </g>
     </g>
    </g>
    <g id="xtick_12">
     <g id="line2d_12">
      <g>
       <use xlink:href="#mbc20c37b69" x="321.970991" y="640.3905" style="stroke: #000000; stroke-width: 0.6"/>
      </g>
     </g>
    </g>
    <g id="xtick_13">
     <g id="line2d_13">
      <g>
       <use xlink:href="#mbc20c37b69" x="376.37802" y="640.3905" style="stroke: #000000; stroke-width: 0.6"/>
      </g>
     </g>
    </g>
    <g id="xtick_14">
     <g id="line2d_14">
      <g>
       <use xlink:href="#mbc20c37b69" x="403.581535" y="640.3905" style="stroke: #000000; stroke-width: 0.6"/>
      </g>
     </g>
    </g>
    <g id="xtick_15">
     <g id="line2d_15">
      <g>
       <use xlink:href="#mbc20c37b69" x="430.78505" y="640.3905" style="stroke: #000000; stroke-width: 0.6"/>
      </g>
     </g>
    </g>
    <g id="xtick_16">
     <g id="line2d_16">
      <g>
       <use xlink:href="#mbc20c37b69" x="485.192079" y="640.3905" style="stroke: #000000; stroke-width: 0.6"/>
      </g>
     </g>
    </g>
    <g id="xtick_17">
     <g id="line2d_17">
      <g>
       <use xlink:href="#mbc20c37b69" x="512.395594" y="640.3905" style="stroke: #000000; stroke-width: 0.6"/>
      </g>
     </g>
    </g>
    <g id="xtick_18">
     <g id="line2d_18">
      <g>
       <use xlink:href="#mbc20c37b69" x="539.599108" y="640.3905" style="stroke: #000000; stroke-width: 0.6"/>
      </g>
     </g>
    </g>
    <g id="xtick_19">
     <g id="line2d_19">
      <g>
       <use xlink:href="#mbc20c37b69" x="594.006138" y="640.3905" style="stroke: #000000; stroke-width: 0.6"/>
      </g>
     </g>
    </g>
    <g id="xtick_20">
     <g id="line2d_20">
      <g>
       <use xlink:href="#mbc20c37b69" x="621.209653" y="640.3905" style="stroke: #000000; stroke-width: 0.6"/>
      </g>
     </g>
    </g>
    <g id="xtick_21">
     <g id="line2d_21">
      <g>
       <use xlink:href="#mbc20c37b69" x="648.413167" y="640.3905" style="stroke: #000000; stroke-width: 0.6"/>
      </g>
     </g>
    </g>
    <g id="text_7">
     <!-- Time ps -->
     <g transform="translate(350.832176 697.59675) scale(0.3 -0.3)">
      <defs>
       <path id="LiberationSans-54" d="M 2250 3916 
L 2250 0 
L 1656 0 
L 1656 3916 
L 144 3916 
L 144 4403 
L 3763 4403 
L 3763 3916 
L 2250 3916 
z
" transform="scale(0.015625)"/>
       <path id="LiberationSans-69" d="M 428 4100 
L 428 4638 
L 991 4638 
L 991 4100 
L 428 4100 
z
M 428 0 
L 428 3381 
L 991 3381 
L 991 0 
L 428 0 
z
" transform="scale(0.015625)"/>
       <path id="LiberationSans-6d" d="M 2400 0 
L 2400 2144 
Q 2400 2634 2265 2821 
Q 2131 3009 1781 3009 
Q 1422 3009 1212 2734 
Q 1003 2459 1003 1959 
L 1003 0 
L 444 0 
L 444 2659 
Q 444 3250 425 3381 
L 956 3381 
Q 959 3366 962 3297 
Q 966 3228 970 3139 
Q 975 3050 981 2803 
L 991 2803 
Q 1172 3163 1406 3303 
Q 1641 3444 1978 3444 
Q 2363 3444 2586 3291 
Q 2809 3138 2897 2803 
L 2906 2803 
Q 3081 3144 3329 3294 
Q 3578 3444 3931 3444 
Q 4444 3444 4676 3166 
Q 4909 2888 4909 2253 
L 4909 0 
L 4353 0 
L 4353 2144 
Q 4353 2634 4218 2821 
Q 4084 3009 3734 3009 
Q 3366 3009 3161 2736 
Q 2956 2463 2956 1959 
L 2956 0 
L 2400 0 
z
" transform="scale(0.015625)"/>
       <path id="LiberationSans-65" d="M 863 1572 
Q 863 991 1103 675 
Q 1344 359 1806 359 
Q 2172 359 2392 506 
Q 2613 653 2691 878 
L 3184 738 
Q 2881 -63 1806 -63 
Q 1056 -63 664 384 
Q 272 831 272 1713 
Q 272 2550 664 2997 
Q 1056 3444 1784 3444 
Q 3275 3444 3275 1647 
L 3275 1572 
L 863 1572 
z
M 2694 2003 
Q 2647 2538 2422 2783 
Q 2197 3028 1775 3028 
Q 1366 3028 1127 2754 
Q 888 2481 869 2003 
L 2694 2003 
z
" transform="scale(0.015625)"/>
       <path id="LiberationSans-20" transform="scale(0.015625)"/>
       <path id="LiberationSans-70" d="M 3291 1706 
Q 3291 -63 2047 -63 
Q 1266 -63 997 525 
L 981 525 
Q 994 500 994 -6 
L 994 -1328 
L 431 -1328 
L 431 2691 
Q 431 3213 413 3381 
L 956 3381 
Q 959 3369 965 3292 
Q 972 3216 980 3056 
Q 988 2897 988 2838 
L 1000 2838 
Q 1150 3150 1397 3295 
Q 1644 3441 2047 3441 
Q 2672 3441 2981 3022 
Q 3291 2603 3291 1706 
z
M 2700 1694 
Q 2700 2400 2509 2703 
Q 2319 3006 1903 3006 
Q 1569 3006 1380 2865 
Q 1191 2725 1092 2426 
Q 994 2128 994 1650 
Q 994 984 1206 668 
Q 1419 353 1897 353 
Q 2316 353 2508 661 
Q 2700 969 2700 1694 
z
" transform="scale(0.015625)"/>
       <path id="LiberationSans-73" d="M 2969 934 
Q 2969 456 2608 196 
Q 2247 -63 1597 -63 
Q 966 -63 623 145 
Q 281 353 178 794 
L 675 891 
Q 747 619 972 492 
Q 1197 366 1597 366 
Q 2025 366 2223 497 
Q 2422 628 2422 891 
Q 2422 1091 2284 1216 
Q 2147 1341 1841 1422 
L 1438 1528 
Q 953 1653 748 1773 
Q 544 1894 428 2066 
Q 313 2238 313 2488 
Q 313 2950 642 3192 
Q 972 3434 1603 3434 
Q 2163 3434 2492 3237 
Q 2822 3041 2909 2606 
L 2403 2544 
Q 2356 2769 2151 2889 
Q 1947 3009 1603 3009 
Q 1222 3009 1040 2893 
Q 859 2778 859 2544 
Q 859 2400 934 2306 
Q 1009 2213 1156 2147 
Q 1303 2081 1775 1966 
Q 2222 1853 2419 1758 
Q 2616 1663 2730 1547 
Q 2844 1431 2906 1279 
Q 2969 1128 2969 934 
z
" transform="scale(0.015625)"/>
      </defs>
      <use xlink:href="#LiberationSans-54"/>
      <use xlink:href="#LiberationSans-69" x="57.333984"/>
      <use xlink:href="#LiberationSans-6d" x="79.550781"/>
      <use xlink:href="#LiberationSans-65" x="162.851562"/>
      <use xlink:href="#LiberationSans-20" x="218.466797"/>
      <use xlink:href="#LiberationSans-70" x="246.25"/>
      <use xlink:href="#LiberationSans-73" x="301.865234"/>
     </g>
    </g>
   </g>
   <g id="matplotlib.axis_2">
    <g id="ytick_1">
     <g id="line2d_22">
      <defs>
       <path id="md099ed1184" d="M 0 0 
L 3.5 0 
" style="stroke: #000000; stroke-width: 0.8"/>
      </defs>
      <g>
       <use xlink:href="#md099ed1184" x="104.4" y="620.799605" style="stroke: #000000; stroke-width: 0.8"/>
      </g>
     </g>
     <g id="text_8">
      <!-- $\mathdefault{−0.4}$ -->
      <g transform="translate(41.5 631.669918) scale(0.3 -0.3)">
       <defs>
        <path id="LiberationSans-2212" d="M 316 1900 
L 316 2356 
L 3425 2356 
L 3425 1900 
L 316 1900 
z
" transform="scale(0.015625)"/>
        <path id="LiberationSans-2e" d="M 584 0 
L 584 684 
L 1194 684 
L 1194 0 
L 584 0 
z
" transform="scale(0.015625)"/>
       </defs>
       <use xlink:href="#LiberationSans-2212" transform="translate(0 0.171875)"/>
       <use xlink:href="#LiberationSans-30" transform="translate(58.398438 0.171875)"/>
       <use xlink:href="#LiberationSans-2e" transform="translate(114.013672 0.171875)"/>
       <use xlink:href="#LiberationSans-34" transform="translate(141.796875 0.171875)"/>
      </g>
     </g>
    </g>
    <g id="ytick_2">
     <g id="line2d_23">
      <g>
       <use xlink:href="#md099ed1184" x="104.4" y="551.908556" style="stroke: #000000; stroke-width: 0.8"/>
      </g>
     </g>
     <g id="text_9">
      <!-- $\mathdefault{−0.2}$ -->
      <g transform="translate(41.5 562.778869) scale(0.3 -0.3)">
       <use xlink:href="#LiberationSans-2212" transform="translate(0 0.171875)"/>
       <use xlink:href="#LiberationSans-30" transform="translate(58.398438 0.171875)"/>
       <use xlink:href="#LiberationSans-2e" transform="translate(114.013672 0.171875)"/>
       <use xlink:href="#LiberationSans-32" transform="translate(141.796875 0.171875)"/>
      </g>
     </g>
    </g>
    <g id="ytick_3">
     <g id="line2d_24">
      <g>
       <use xlink:href="#md099ed1184" x="104.4" y="483.017508" style="stroke: #000000; stroke-width: 0.8"/>
      </g>
     </g>
     <g id="text_10">
      <!-- $\mathdefault{0.0}$ -->
      <g transform="translate(58.9 493.88782) scale(0.3 -0.3)">
       <use xlink:href="#LiberationSans-30" transform="translate(0 0.171875)"/>
       <use xlink:href="#LiberationSans-2e" transform="translate(55.615234 0.171875)"/>
       <use xlink:href="#LiberationSans-30" transform="translate(83.398438 0.171875)"/>
      </g>
     </g>
    </g>
    <g id="ytick_4">
     <g id="line2d_25">
      <g>
       <use xlink:href="#md099ed1184" x="104.4" y="414.126459" style="stroke: #000000; stroke-width: 0.8"/>
      </g>
     </g>
     <g id="text_11">
      <!-- $\mathdefault{0.2}$ -->
      <g transform="translate(58.9 424.996771) scale(0.3 -0.3)">
       <use xlink:href="#LiberationSans-30" transform="translate(0 0.171875)"/>
       <use xlink:href="#LiberationSans-2e" transform="translate(55.615234 0.171875)"/>
       <use xlink:href="#LiberationSans-32" transform="translate(83.398438 0.171875)"/>
      </g>
     </g>
    </g>
    <g id="ytick_5">
     <g id="line2d_26">
      <g>
       <use xlink:href="#md099ed1184" x="104.4" y="345.23541" style="stroke: #000000; stroke-width: 0.8"/>
      </g>
     </g>
     <g id="text_12">
      <!-- $\mathdefault{0.4}$ -->
      <g transform="translate(58.9 356.105722) scale(0.3 -0.3)">
       <use xlink:href="#LiberationSans-30" transform="translate(0 0.171875)"/>
       <use xlink:href="#LiberationSans-2e" transform="translate(55.615234 0.171875)"/>
       <use xlink:href="#LiberationSans-34" transform="translate(83.398438 0.171875)"/>
      </g>
     </g>
    </g>
    <g id="ytick_6">
     <g id="line2d_27">
      <g>
       <use xlink:href="#md099ed1184" x="104.4" y="276.344361" style="stroke: #000000; stroke-width: 0.8"/>
      </g>
     </g>
     <g id="text_13">
      <!-- $\mathdefault{0.6}$ -->
      <g transform="translate(58.9 287.214673) scale(0.3 -0.3)">
       <use xlink:href="#LiberationSans-30" transform="translate(0 0.171875)"/>
       <use xlink:href="#LiberationSans-2e" transform="translate(55.615234 0.171875)"/>
       <use xlink:href="#LiberationSans-36" transform="translate(83.398438 0.171875)"/>
      </g>
     </g>
    </g>
    <g id="ytick_7">
     <g id="line2d_28">
      <g>
       <use xlink:href="#md099ed1184" x="104.4" y="207.453312" style="stroke: #000000; stroke-width: 0.8"/>
      </g>
     </g>
     <g id="text_14">
      <!-- $\mathdefault{0.8}$ -->
      <g transform="translate(58.9 218.323624) scale(0.3 -0.3)">
       <use xlink:href="#LiberationSans-30" transform="translate(0 0.171875)"/>
       <use xlink:href="#LiberationSans-2e" transform="translate(55.615234 0.171875)"/>
       <use xlink:href="#LiberationSans-38" transform="translate(83.398438 0.171875)"/>
      </g>
     </g>
    </g>
    <g id="ytick_8">
     <g id="line2d_29">
      <g>
       <use xlink:href="#md099ed1184" x="104.4" y="138.562263" style="stroke: #000000; stroke-width: 0.8"/>
      </g>
     </g>
     <g id="text_15">
      <!-- $\mathdefault{1.0}$ -->
      <g transform="translate(58.9 149.432576) scale(0.3 -0.3)">
       <use xlink:href="#LiberationSans-31" transform="translate(0 0.171875)"/>
       <use xlink:href="#LiberationSans-2e" transform="translate(55.615234 0.171875)"/>
       <use xlink:href="#LiberationSans-30" transform="translate(83.398438 0.171875)"/>
      </g>
     </g>
    </g>
    <g id="ytick_9">
     <g id="line2d_30">
      <g>
       <use xlink:href="#md099ed1184" x="104.4" y="69.671214" style="stroke: #000000; stroke-width: 0.8"/>
      </g>
     </g>
     <g id="text_16">
      <!-- $\mathdefault{1.2}$ -->
      <g transform="translate(58.9 80.541527) scale(0.3 -0.3)">
       <use xlink:href="#LiberationSans-31" transform="translate(0 0.171875)"/>
       <use xlink:href="#LiberationSans-2e" transform="translate(55.615234 0.171875)"/>
       <use xlink:href="#LiberationSans-32" transform="translate(83.398438 0.171875)"/>
      </g>
     </g>
    </g>
    <g id="ytick_10">
     <g id="line2d_31">
      <defs>
       <path id="m8d6aa571dc" d="M 0 0 
L 2 0 
" style="stroke: #000000; stroke-width: 0.6"/>
      </defs>
      <g>
       <use xlink:href="#m8d6aa571dc" x="104.4" y="638.022368" style="stroke: #000000; stroke-width: 0.6"/>
      </g>
     </g>
    </g>
    <g id="ytick_11">
     <g id="line2d_32">
      <g>
       <use xlink:href="#m8d6aa571dc" x="104.4" y="603.576843" style="stroke: #000000; stroke-width: 0.6"/>
      </g>
     </g>
    </g>
    <g id="ytick_12">
     <g id="line2d_33">
      <g>
       <use xlink:href="#m8d6aa571dc" x="104.4" y="586.354081" style="stroke: #000000; stroke-width: 0.6"/>
      </g>
     </g>
    </g>
    <g id="ytick_13">
     <g id="line2d_34">
      <g>
       <use xlink:href="#m8d6aa571dc" x="104.4" y="569.131319" style="stroke: #000000; stroke-width: 0.6"/>
      </g>
     </g>
    </g>
    <g id="ytick_14">
     <g id="line2d_35">
      <g>
       <use xlink:href="#m8d6aa571dc" x="104.4" y="534.685794" style="stroke: #000000; stroke-width: 0.6"/>
      </g>
     </g>
    </g>
    <g id="ytick_15">
     <g id="line2d_36">
      <g>
       <use xlink:href="#m8d6aa571dc" x="104.4" y="517.463032" style="stroke: #000000; stroke-width: 0.6"/>
      </g>
     </g>
    </g>
    <g id="ytick_16">
     <g id="line2d_37">
      <g>
       <use xlink:href="#m8d6aa571dc" x="104.4" y="500.24027" style="stroke: #000000; stroke-width: 0.6"/>
      </g>
     </g>
    </g>
    <g id="ytick_17">
     <g id="line2d_38">
      <g>
       <use xlink:href="#m8d6aa571dc" x="104.4" y="465.794745" style="stroke: #000000; stroke-width: 0.6"/>
      </g>
     </g>
    </g>
    <g id="ytick_18">
     <g id="line2d_39">
      <g>
       <use xlink:href="#m8d6aa571dc" x="104.4" y="448.571983" style="stroke: #000000; stroke-width: 0.6"/>
      </g>
     </g>
    </g>
    <g id="ytick_19">
     <g id="line2d_40">
      <g>
       <use xlink:href="#m8d6aa571dc" x="104.4" y="431.349221" style="stroke: #000000; stroke-width: 0.6"/>
      </g>
     </g>
    </g>
    <g id="ytick_20">
     <g id="line2d_41">
      <g>
       <use xlink:href="#m8d6aa571dc" x="104.4" y="396.903696" style="stroke: #000000; stroke-width: 0.6"/>
      </g>
     </g>
    </g>
    <g id="ytick_21">
     <g id="line2d_42">
      <g>
       <use xlink:href="#m8d6aa571dc" x="104.4" y="379.680934" style="stroke: #000000; stroke-width: 0.6"/>
      </g>
     </g>
    </g>
    <g id="ytick_22">
     <g id="line2d_43">
      <g>
       <use xlink:href="#m8d6aa571dc" x="104.4" y="362.458172" style="stroke: #000000; stroke-width: 0.6"/>
      </g>
     </g>
    </g>
    <g id="ytick_23">
     <g id="line2d_44">
      <g>
       <use xlink:href="#m8d6aa571dc" x="104.4" y="328.012648" style="stroke: #000000; stroke-width: 0.6"/>
      </g>
     </g>
    </g>
    <g id="ytick_24">
     <g id="line2d_45">
      <g>
       <use xlink:href="#m8d6aa571dc" x="104.4" y="310.789885" style="stroke: #000000; stroke-width: 0.6"/>
      </g>
     </g>
    </g>
    <g id="ytick_25">
     <g id="line2d_46">
      <g>
       <use xlink:href="#m8d6aa571dc" x="104.4" y="293.567123" style="stroke: #000000; stroke-width: 0.6"/>
      </g>
     </g>
    </g>
    <g id="ytick_26">
     <g id="line2d_47">
      <g>
       <use xlink:href="#m8d6aa571dc" x="104.4" y="259.121599" style="stroke: #000000; stroke-width: 0.6"/>
      </g>
     </g>
    </g>
    <g id="ytick_27">
     <g id="line2d_48">
      <g>
       <use xlink:href="#m8d6aa571dc" x="104.4" y="241.898836" style="stroke: #000000; stroke-width: 0.6"/>
      </g>
     </g>
    </g>
    <g id="ytick_28">
     <g id="line2d_49">
      <g>
       <use xlink:href="#m8d6aa571dc" x="104.4" y="224.676074" style="stroke: #000000; stroke-width: 0.6"/>
      </g>
     </g>
    </g>
    <g id="ytick_29">
     <g id="line2d_50">
      <g>
       <use xlink:href="#m8d6aa571dc" x="104.4" y="190.23055" style="stroke: #000000; stroke-width: 0.6"/>
      </g>
     </g>
    </g>
    <g id="ytick_30">
     <g id="line2d_51">
      <g>
       <use xlink:href="#m8d6aa571dc" x="104.4" y="173.007788" style="stroke: #000000; stroke-width: 0.6"/>
      </g>
     </g>
    </g>
    <g id="ytick_31">
     <g id="line2d_52">
      <g>
       <use xlink:href="#m8d6aa571dc" x="104.4" y="155.785025" style="stroke: #000000; stroke-width: 0.6"/>
      </g>
     </g>
    </g>
    <g id="ytick_32">
     <g id="line2d_53">
      <g>
       <use xlink:href="#m8d6aa571dc" x="104.4" y="121.339501" style="stroke: #000000; stroke-width: 0.6"/>
      </g>
     </g>
    </g>
    <g id="ytick_33">
     <g id="line2d_54">
      <g>
       <use xlink:href="#m8d6aa571dc" x="104.4" y="104.116739" style="stroke: #000000; stroke-width: 0.6"/>
      </g>
     </g>
    </g>
    <g id="ytick_34">
     <g id="line2d_55">
      <g>
       <use xlink:href="#m8d6aa571dc" x="104.4" y="86.893976" style="stroke: #000000; stroke-width: 0.6"/>
      </g>
     </g>
    </g>
    <g id="ytick_35">
     <g id="line2d_56">
      <g>
       <use xlink:href="#m8d6aa571dc" x="104.4" y="52.448452" style="stroke: #000000; stroke-width: 0.6"/>
      </g>
     </g>
    </g>
    <g id="text_17">
     <!-- ACF $(\mathrm{W} / \mathrm{m}^2)^2$ -->
     <g transform="translate(31.275 426.339) rotate(-90) scale(0.3 -0.3)">
      <defs>
       <path id="LiberationSans-41" d="M 3647 0 
L 3144 1288 
L 1138 1288 
L 631 0 
L 13 0 
L 1809 4403 
L 2488 4403 
L 4256 0 
L 3647 0 
z
M 2141 3953 
L 2113 3866 
Q 2034 3606 1881 3200 
L 1319 1753 
L 2966 1753 
L 2400 3206 
Q 2313 3422 2225 3694 
L 2141 3953 
z
" transform="scale(0.015625)"/>
       <path id="LiberationSans-43" d="M 2475 3981 
Q 1744 3981 1337 3511 
Q 931 3041 931 2222 
Q 931 1413 1354 920 
Q 1778 428 2500 428 
Q 3425 428 3891 1344 
L 4378 1100 
Q 4106 531 3614 234 
Q 3122 -63 2472 -63 
Q 1806 -63 1320 214 
Q 834 491 579 1005 
Q 325 1519 325 2222 
Q 325 3275 894 3872 
Q 1463 4469 2469 4469 
Q 3172 4469 3644 4194 
Q 4116 3919 4338 3378 
L 3772 3191 
Q 3619 3575 3280 3778 
Q 2941 3981 2475 3981 
z
" transform="scale(0.015625)"/>
       <path id="LiberationSans-46" d="M 1122 3916 
L 1122 2278 
L 3578 2278 
L 3578 1784 
L 1122 1784 
L 1122 0 
L 525 0 
L 525 4403 
L 3653 4403 
L 3653 3916 
L 1122 3916 
z
" transform="scale(0.015625)"/>
       <path id="STIXGeneral-Regular-28" d="M 1946 -1030 
L 1869 -1133 
Q 1126 -710 716 32 
Q 307 774 307 1613 
Q 307 3386 1888 4326 
L 1946 4224 
Q 1293 3667 1075 3126 
Q 858 2586 858 1632 
Q 858 685 1082 96 
Q 1306 -493 1946 -1030 
z
" transform="scale(0.015625)"/>
       <path id="STIXGeneral-Regular-57" d="M 5965 4237 
L 5965 4115 
Q 5709 4064 5616 3990 
Q 5523 3917 5434 3667 
Q 4704 1709 4128 -70 
L 4032 -70 
Q 3642 1011 3008 2637 
L 2022 -70 
L 1926 -70 
Q 1709 576 1277 1753 
Q 845 2931 698 3347 
Q 538 3808 406 3958 
Q 275 4109 32 4115 
L 32 4237 
L 1594 4237 
L 1594 4115 
Q 1357 4109 1270 4064 
Q 1184 4019 1184 3917 
Q 1184 3808 1254 3616 
L 2176 1210 
L 2842 3021 
L 2662 3501 
Q 2509 3917 2400 4013 
Q 2291 4109 2010 4115 
L 2010 4237 
L 3706 4237 
L 3706 4115 
Q 3213 4102 3213 3891 
Q 3213 3808 3322 3520 
L 4237 1190 
L 5043 3360 
Q 5152 3667 5152 3853 
Q 5152 4109 4704 4115 
L 4704 4237 
L 5965 4237 
z
" transform="scale(0.015625)"/>
       <path id="STIXGeneral-Regular-2f" d="M 1837 4326 
L 378 -90 
L -58 -90 
L 1408 4326 
L 1837 4326 
z
" transform="scale(0.015625)"/>
       <path id="STIXGeneral-Regular-6d" d="M 4960 0 
L 3565 0 
L 3565 96 
Q 3834 122 3907 208 
Q 3981 294 3981 576 
L 3981 1894 
Q 3981 2278 3869 2444 
Q 3757 2611 3488 2611 
Q 3264 2611 3107 2521 
Q 2950 2432 2803 2221 
L 2803 608 
Q 2803 301 2896 201 
Q 2989 102 3264 96 
L 3264 0 
L 1830 0 
L 1830 96 
Q 2112 115 2189 188 
Q 2266 262 2266 550 
L 2266 1901 
Q 2266 2611 1850 2611 
Q 1670 2611 1468 2531 
Q 1267 2451 1171 2336 
Q 1088 2240 1088 2227 
L 1088 448 
Q 1088 243 1177 176 
Q 1267 109 1523 96 
L 1523 0 
L 102 0 
L 102 96 
Q 371 102 460 195 
Q 550 288 550 563 
L 550 2150 
Q 550 2387 499 2480 
Q 448 2573 326 2573 
Q 230 2573 122 2547 
L 122 2656 
Q 557 2778 1011 2944 
L 1062 2925 
L 1062 2451 
L 1075 2451 
Q 1363 2752 1584 2848 
Q 1805 2944 2054 2944 
Q 2560 2944 2733 2406 
Q 3232 2944 3776 2944 
Q 4518 2944 4518 1792 
L 4518 493 
Q 4518 282 4582 202 
Q 4646 122 4794 109 
L 4960 96 
L 4960 0 
z
" transform="scale(0.015625)"/>
       <path id="STIXGeneral-Regular-32" d="M 3034 877 
L 2688 0 
L 186 0 
L 186 77 
L 1325 1286 
Q 1773 1754 1965 2144 
Q 2157 2534 2157 2950 
Q 2157 3379 1920 3616 
Q 1683 3853 1267 3853 
Q 922 3853 720 3673 
Q 518 3494 326 3021 
L 192 3053 
Q 301 3648 630 3987 
Q 960 4326 1523 4326 
Q 2054 4326 2380 4006 
Q 2707 3686 2707 3200 
Q 2707 2477 1888 1613 
L 832 486 
L 2330 486 
Q 2541 486 2665 569 
Q 2790 653 2944 915 
L 3034 877 
z
" transform="scale(0.015625)"/>
       <path id="STIXGeneral-Regular-29" d="M 186 4224 
L 262 4326 
Q 992 3891 1408 3148 
Q 1824 2406 1824 1581 
Q 1824 -166 243 -1133 
L 186 -1030 
Q 845 -486 1059 54 
Q 1274 595 1274 1562 
Q 1274 2534 1059 3120 
Q 845 3706 186 4224 
z
" transform="scale(0.015625)"/>
      </defs>
      <use xlink:href="#LiberationSans-41" transform="translate(0 0.409375)"/>
      <use xlink:href="#LiberationSans-43" transform="translate(66.699219 0.409375)"/>
      <use xlink:href="#LiberationSans-46" transform="translate(138.916016 0.409375)"/>
      <use xlink:href="#LiberationSans-20" transform="translate(200 0.409375)"/>
      <use xlink:href="#STIXGeneral-Regular-28" transform="translate(227.783203 0.409375)"/>
      <use xlink:href="#STIXGeneral-Regular-57" transform="translate(261.083191 0.409375)"/>
      <use xlink:href="#STIXGeneral-Regular-2f" transform="translate(355.483185 0.409375)"/>
      <use xlink:href="#STIXGeneral-Regular-6d" transform="translate(383.283173 0.409375)"/>
      <use xlink:href="#STIXGeneral-Regular-32" transform="translate(462.626442 35.684375) scale(0.7)"/>
      <use xlink:href="#STIXGeneral-Regular-29" transform="translate(502.035806 0.409375)"/>
      <use xlink:href="#STIXGeneral-Regular-32" transform="translate(536.879075 35.684375) scale(0.7)"/>
     </g>
    </g>
    <g id="text_18">
     <!-- $\times\mathdefault{10^{18}}\mathdefault{}$ -->
     <g transform="translate(104.4 36.1875) scale(0.4 -0.4)">
      <defs>
       <path id="STIXGeneral-Regular-d7" d="M 3821 141 
L 3526 -160 
L 2048 1312 
L 570 -160 
L 275 134 
L 1747 1613 
L 275 3091 
L 576 3386 
L 2048 1914 
L 3526 3386 
L 3821 3098 
L 2349 1613 
L 3821 141 
z
" transform="scale(0.015625)"/>
      </defs>
      <use xlink:href="#STIXGeneral-Regular-d7" transform="translate(0 0.140625)"/>
      <use xlink:href="#LiberationSans-31" transform="translate(63.999985 0.140625)"/>
      <use xlink:href="#LiberationSans-30" transform="translate(119.615219 0.140625)"/>
      <use xlink:href="#LiberationSans-31" transform="translate(176.154946 37.120312) scale(0.7)"/>
      <use xlink:href="#LiberationSans-38" transform="translate(215.08561 37.120312) scale(0.7)"/>
     </g>
    </g>
   </g>
   <g id="line2d_57">
    <path d="M 131.600794 66.514909 
L 131.818423 74.665727 
L 132.090458 89.69594 
L 132.471307 125.14664 
L 133.069784 206.337464 
L 135.300472 538.873303 
L 135.844543 582.104027 
L 136.279799 602.412109 
L 136.660648 611.084749 
L 136.932683 613.062812 
L 137.041497 613.033842 
L 137.204718 612.222902 
L 137.476754 609.26668 
L 137.966417 600.372971 
L 139.707442 559.814575 
L 143.461527 476.615394 
L 144.114411 468.09778 
L 144.604074 464.272749 
L 145.039331 462.759338 
L 145.202552 462.64499 
L 145.42018 462.842614 
L 145.637808 463.396798 
L 145.909843 464.575222 
L 146.290692 466.805754 
L 147.215612 474.171923 
L 149.119858 489.047011 
L 149.718335 492.140983 
L 150.425627 494.229442 
L 150.697662 494.556704 
L 151.024104 494.515158 
L 151.45936 493.790376 
L 152.112245 491.563239 
L 152.656315 489.006395 
L 155.159038 476.438417 
L 155.703108 475.088852 
L 156.138365 474.407521 
L 156.573621 474.07248 
L 156.845656 474.053205 
L 157.226505 474.159553 
L 157.661762 474.428267 
L 158.477867 475.356691 
L 159.021937 476.542691 
L 159.89245 479.430904 
L 161.579068 485.588186 
L 162.014324 486.275928 
L 162.340766 486.41654 
L 162.558394 486.343362 
L 162.939243 485.852982 
L 163.211279 485.219881 
L 163.700942 483.634976 
L 165.224339 478.476845 
L 165.659595 478.065225 
L 166.040444 478.215649 
L 166.366886 478.695151 
L 166.747735 479.635246 
L 167.509434 482.355083 
L 168.815203 486.953778 
L 169.359273 487.963671 
L 169.685715 488.230567 
L 170.066564 488.230708 
L 170.665042 487.570166 
L 171.317926 486.341494 
L 172.406067 484.666064 
L 173.058951 484.363421 
L 173.4398 484.511639 
L 173.766242 484.755322 
L 174.527941 485.654806 
L 175.235232 486.569417 
L 175.833709 487.128794 
L 176.486594 487.539328 
L 177.085071 487.557313 
L 177.683548 487.232445 
L 178.608468 486.100217 
L 179.206945 485.144288 
L 179.914237 483.817006 
L 181.383226 481.256159 
L 182.308146 480.174931 
L 183.015437 479.766697 
L 186.062231 478.730808 
L 186.551894 478.950534 
L 187.313593 479.644412 
L 189.761909 482.111057 
L 190.632421 482.562654 
L 191.829376 483.117035 
L 192.591074 483.698316 
L 193.624808 484.800345 
L 194.386506 485.488904 
L 194.984984 485.790777 
L 195.474647 485.846102 
L 195.96431 485.711679 
L 196.780416 485.175798 
L 199.065511 483.362114 
L 199.609581 483.362224 
L 200.208059 483.641748 
L 201.132978 484.378888 
L 201.949084 484.989653 
L 202.601968 485.213439 
L 203.091631 485.117798 
L 203.581294 484.766328 
L 204.234179 483.932675 
L 206.192832 481.138905 
L 206.791309 480.796865 
L 207.335379 480.774877 
L 208.042671 481.012099 
L 209.130811 481.499694 
L 209.89251 481.621846 
L 210.708615 481.532447 
L 212.286419 481.329994 
L 212.939303 481.458945 
L 213.592188 481.853964 
L 214.625921 482.832987 
L 215.496434 483.612865 
L 216.149318 483.964633 
L 216.638981 484.003678 
L 217.074238 483.868114 
L 217.672715 483.431206 
L 218.760856 482.247899 
L 219.41374 481.708136 
L 219.903403 481.555693 
L 220.338659 481.642784 
L 220.88273 482.003835 
L 221.535614 482.701787 
L 222.841383 484.24664 
L 223.43986 484.614975 
L 223.98393 484.698652 
L 224.582408 484.55364 
L 225.779362 483.977167 
L 226.432247 483.786979 
L 227.030724 483.80768 
L 227.520387 484.010168 
L 229.642262 485.224755 
L 230.240739 485.246039 
L 230.839216 485.106947 
L 231.492101 484.759262 
L 233.88601 483.235871 
L 234.43008 483.183211 
L 235.246186 483.275546 
L 236.171105 483.327947 
L 236.823989 483.093276 
L 237.476874 482.615458 
L 238.292979 481.684007 
L 240.197225 479.344236 
L 240.523667 479.253103 
L 241.013331 479.544498 
L 241.829436 480.447183 
L 243.40724 482.374264 
L 244.060124 482.863437 
L 244.713009 483.114759 
L 245.311486 483.120907 
L 247.052511 482.940716 
L 247.814209 483.177198 
L 250.37134 484.212751 
L 251.187445 484.117936 
L 251.949144 483.755064 
L 253.200505 483.109867 
L 253.85339 483.047135 
L 254.343053 483.241984 
L 254.94153 483.694727 
L 256.029671 484.870798 
L 256.791369 485.549225 
L 257.389847 485.752159 
L 257.825103 485.65747 
L 258.369173 485.235414 
L 259.076464 484.319591 
L 260.817489 481.994611 
L 261.36156 481.657106 
L 261.851223 481.568464 
L 262.395293 481.6608 
L 264.081911 482.151188 
L 264.84361 482.101001 
L 266.149378 481.676959 
L 267.128705 481.376695 
L 267.727182 481.364553 
L 268.434474 481.613112 
L 269.631428 482.392686 
L 270.665162 483.057952 
L 271.318046 483.210226 
L 271.807709 483.140449 
L 272.406187 482.822871 
L 274.147212 481.572257 
L 274.582468 481.497072 
L 275.072131 481.622358 
L 275.779423 482.1296 
L 276.813156 483.302999 
L 277.738076 484.242452 
L 278.336553 484.581381 
L 279.043844 484.733971 
L 279.914357 484.721522 
L 281.764196 484.852373 
L 283.668442 485.388334 
L 284.375733 485.217223 
L 285.191839 484.652965 
L 286.062351 483.71626 
L 288.075411 481.534881 
L 288.673889 481.319566 
L 289.272366 481.389254 
L 289.979657 481.701379 
L 291.013391 482.123596 
L 291.666275 482.125632 
L 292.155938 481.942044 
L 292.808823 481.443841 
L 294.87629 479.58646 
L 295.311546 479.824629 
L 295.855616 480.378059 
L 296.88935 481.790316 
L 297.923084 483.054345 
L 298.684782 483.641869 
L 299.392073 483.865111 
L 300.153772 483.802663 
L 301.133098 483.709933 
L 301.949204 483.916723 
L 302.92853 484.49174 
L 304.288706 485.218682 
L 304.887183 485.330479 
L 305.594475 485.225585 
L 306.138545 484.913778 
L 307.3355 483.813855 
L 308.206012 483.058864 
L 308.750082 482.855936 
L 309.34856 482.870687 
L 310.055851 483.147561 
L 311.470434 483.762444 
L 312.014504 483.721563 
L 312.504167 483.479318 
L 313.102645 482.962072 
L 314.354006 481.783581 
L 314.898077 481.516851 
L 315.333333 481.497158 
L 315.822996 481.710044 
L 316.584695 482.365006 
L 317.672835 483.369479 
L 318.216906 483.595792 
L 318.760976 483.573486 
L 319.250639 483.344385 
L 320.066745 482.681187 
L 321.42692 481.620721 
L 321.970991 481.460887 
L 322.515061 481.545304 
L 323.222352 481.90797 
L 324.854563 482.843081 
L 325.45304 482.926127 
L 326.051518 482.797587 
L 326.704402 482.444857 
L 328.118985 481.609257 
L 328.663055 481.5536 
L 329.152718 481.74434 
L 329.751196 482.240639 
L 331.981884 484.562078 
L 332.580361 484.705081 
L 333.178839 484.603511 
L 335.083085 483.969967 
L 335.844783 484.114334 
L 336.388853 484.463279 
L 338.510728 485.887497 
L 339.054798 485.832471 
L 339.707682 485.506558 
L 340.414974 484.822573 
L 342.428034 482.603663 
L 343.026511 482.377441 
L 343.624988 482.401719 
L 344.985164 482.646837 
L 345.583641 482.427133 
L 346.182119 481.955264 
L 346.998224 480.940562 
L 348.521621 478.977083 
L 349.011284 478.707631 
L 349.283319 478.73537 
L 349.772983 479.299923 
L 350.861123 481.155155 
L 351.949264 482.815462 
L 352.547741 483.321727 
L 353.037404 483.489586 
L 353.527068 483.450244 
L 354.071138 483.202748 
L 355.104871 482.634452 
L 355.703349 482.49231 
L 356.301826 482.615871 
L 357.009118 483.068107 
L 359.34862 484.81067 
L 360.110318 484.965844 
L 360.708796 484.858743 
L 363.102705 484.198307 
L 364.082031 484.546034 
L 365.714242 485.228159 
L 366.258313 485.171298 
L 366.802383 484.851588 
L 367.509674 484.066554 
L 369.196292 481.955875 
L 369.794769 481.579959 
L 370.284433 481.530181 
L 370.991724 481.768904 
L 372.515121 482.556936 
L 373.059191 482.578003 
L 373.603262 482.402505 
L 374.310553 481.898056 
L 376.269206 480.259187 
L 376.758869 480.191781 
L 377.30294 480.390504 
L 377.901417 480.88607 
L 378.663115 481.775825 
L 379.751256 483.053563 
L 380.40414 483.474689 
L 380.893803 483.540684 
L 381.383467 483.403041 
L 382.253979 482.929149 
L 383.015678 482.611677 
L 383.505341 482.626511 
L 384.049411 482.865138 
L 384.865517 483.498219 
L 385.89925 484.276156 
L 386.44332 484.396611 
L 386.878577 484.28642 
L 387.422647 483.941156 
L 389.218079 482.596297 
L 389.707742 482.568662 
L 390.088591 482.706094 
L 390.632662 483.190617 
L 391.448767 484.336515 
L 392.754536 486.156696 
L 393.298606 486.555831 
L 393.842676 486.687109 
L 394.33234 486.558503 
L 394.87641 486.146453 
L 395.692515 485.193921 
L 397.107098 483.472004 
L 397.759983 483.03443 
L 398.521681 482.795134 
L 399.718636 482.479813 
L 400.317113 482.073992 
L 400.969997 481.384828 
L 402.003731 479.893109 
L 402.92865 478.672712 
L 403.472721 478.265455 
L 403.744756 478.269003 
L 404.234419 478.703409 
L 405.159339 479.984979 
L 406.193072 481.391004 
L 406.900364 481.957417 
L 407.498841 482.161646 
L 408.260539 482.148314 
L 409.403087 482.063852 
L 409.947157 482.245243 
L 410.600042 482.778989 
L 411.36174 483.732419 
L 412.613102 485.269238 
L 413.211579 485.764037 
L 413.755649 485.962031 
L 414.354127 485.930185 
L 414.898197 485.638018 
L 415.823116 484.768421 
L 416.911257 483.842263 
L 417.455327 483.704974 
L 417.944991 483.783705 
L 418.597875 484.155913 
L 420.3389 485.406569 
L 420.88297 485.431962 
L 421.372633 485.222293 
L 421.971111 484.702714 
L 423.984171 482.871441 
L 424.473834 482.798047 
L 425.126718 482.956239 
L 426.486894 483.458047 
L 427.030964 483.383849 
L 427.575035 483.056233 
L 428.064698 482.552761 
L 429.098432 481.080295 
L 430.295386 479.47686 
L 430.839457 479.10789 
L 431.274713 479.076428 
L 431.764376 479.302557 
L 432.308446 479.818887 
L 433.070145 480.837919 
L 434.43032 482.724902 
L 435.083205 483.278646 
L 435.627275 483.473459 
L 436.497788 483.43446 
L 437.477114 483.36372 
L 438.021184 483.511794 
L 438.619662 483.846986 
L 440.415094 484.864132 
L 440.904757 484.804317 
L 441.503234 484.439092 
L 442.428154 483.464997 
L 443.244259 482.606732 
L 443.78833 482.249902 
L 444.277993 482.163662 
L 444.767656 482.329394 
L 445.257319 482.763556 
L 446.508681 484.372536 
L 447.379193 485.351164 
L 448.032078 485.732201 
L 448.576148 485.80289 
L 449.065811 485.666542 
L 449.718696 485.265734 
L 450.91565 484.137322 
L 451.786163 483.459626 
L 452.547861 483.143327 
L 454.560921 482.39248 
L 455.32262 481.716364 
L 456.029911 480.849104 
L 457.553308 478.943005 
L 458.042971 478.619966 
L 459.239926 479.701701 
L 461.307393 482.139275 
L 462.123498 482.606866 
L 462.776383 482.742358 
L 463.91893 482.867996 
L 464.517408 483.088192 
L 465.38792 483.738571 
L 467.292166 485.365628 
L 467.999458 485.647581 
L 468.652342 485.679123 
L 469.250819 485.507086 
L 470.502181 484.757829 
L 471.590322 484.236358 
L 472.243206 484.184746 
L 474.854743 484.331118 
L 475.453221 484.00487 
L 476.214919 483.252475 
L 477.84713 481.545718 
L 478.3912 481.323039 
L 478.826457 481.356296 
L 479.370527 481.636847 
L 480.40426 482.580011 
L 481.220366 483.266141 
L 481.818843 483.509665 
L 482.362913 483.490904 
L 482.961391 483.204207 
L 483.831903 482.445907 
L 485.3553 481.02297 
L 485.953777 480.84325 
L 486.552255 480.891095 
L 487.36836 481.222136 
L 488.782943 481.786751 
L 489.435827 481.726468 
L 490.088712 481.429973 
L 491.285666 480.887419 
L 491.829737 480.960219 
L 492.264993 481.277065 
L 492.809063 481.990871 
L 493.570762 483.405675 
L 494.87653 485.912127 
L 495.475008 486.560747 
L 495.964671 486.768031 
L 496.399927 486.718121 
L 496.943997 486.413699 
L 497.977731 485.437545 
L 498.957057 484.554798 
L 499.609942 484.216946 
L 500.37164 484.012675 
L 503.364027 483.338938 
L 504.724203 482.949378 
L 505.649122 482.929175 
L 506.41082 483.19609 
L 507.934217 483.883188 
L 508.532695 483.837972 
L 509.076765 483.549156 
L 509.729649 482.875103 
L 510.436941 481.802915 
L 512.069152 479.172284 
L 512.504408 478.838525 
L 512.939664 479.014452 
L 513.429327 479.4686 
L 514.245433 480.56553 
L 515.279166 481.889447 
L 515.877644 482.322905 
L 516.421714 482.436188 
L 516.965784 482.29303 
L 517.999518 481.628896 
L 518.652402 481.30364 
L 519.196472 481.252358 
L 519.686136 481.423816 
L 520.284613 481.86448 
L 521.100718 482.715077 
L 523.059372 484.813294 
L 523.657849 485.143216 
L 524.310733 485.235722 
L 525.235653 485.104469 
L 526.650235 484.948547 
L 528.989738 485.147481 
L 529.533808 484.89511 
L 530.132285 484.383437 
L 532.417381 482.061488 
L 532.961451 481.956784 
L 533.451114 482.109966 
L 534.212813 482.651717 
L 535.300953 483.450136 
L 535.845023 483.599905 
L 536.443501 483.507487 
L 537.096385 483.099123 
L 537.912491 482.303937 
L 539.109445 481.155584 
L 539.707923 480.857045 
L 540.251993 480.877985 
L 540.85047 481.163342 
L 541.612169 481.820194 
L 543.026751 483.097347 
L 543.570822 483.264383 
L 544.060485 483.182244 
L 544.604555 482.847494 
L 546.454394 481.555801 
L 546.88965 481.615969 
L 547.433721 481.956811 
L 548.141012 482.706286 
L 549.501188 484.223755 
L 550.045258 484.507846 
L 550.643735 484.551718 
L 551.405434 484.304052 
L 553.255273 483.551128 
L 553.908157 483.623286 
L 556.410881 484.416436 
L 557.662242 484.200371 
L 558.750383 483.723681 
L 559.838523 483.29356 
L 560.491408 483.270469 
L 561.307513 483.466192 
L 562.613282 483.729909 
L 563.211759 483.524935 
L 563.810237 483.071973 
L 564.571935 482.115478 
L 565.932111 479.920542 
L 566.639402 479.03214 
L 566.965844 478.877322 
L 567.401101 479.065762 
L 568.053985 479.650713 
L 569.903824 481.437902 
L 570.665522 481.722246 
L 571.427221 481.736378 
L 572.787396 481.596887 
L 573.494688 481.839232 
L 574.093165 482.309809 
L 575.072492 483.385372 
L 576.75911 485.100634 
L 577.520808 485.54096 
L 578.119285 485.647888 
L 578.77217 485.525463 
L 579.588275 485.178979 
L 580.567602 484.723217 
L 581.438114 484.548226 
L 583.832023 484.282385 
L 584.484908 483.903837 
L 585.409827 483.094351 
L 586.28034 482.406223 
L 586.82441 482.159273 
L 587.422887 482.13027 
L 588.075772 482.380838 
L 589.707983 483.195253 
L 590.252053 483.176154 
L 590.85053 482.904166 
L 591.612229 482.218003 
L 593.78851 480.058646 
L 594.33258 479.976694 
L 594.87665 480.188779 
L 595.638349 480.844005 
L 597.597002 482.671472 
L 598.195479 482.791233 
L 598.685142 482.689221 
L 600.643796 482.010894 
L 601.133459 482.224484 
L 601.677529 482.710249 
L 602.38482 483.606772 
L 603.581775 485.202539 
L 604.180252 485.645756 
L 604.669916 485.75833 
L 605.213986 485.651395 
L 606.24772 485.120243 
L 607.063825 484.798461 
L 607.771116 484.794486 
L 608.369594 485.026819 
L 609.784177 485.711217 
L 610.382654 485.767622 
L 610.926724 485.586662 
L 611.688423 485.033019 
L 612.450121 484.189812 
L 614.027925 482.466776 
L 614.571995 482.111445 
L 615.170472 481.955932 
L 617.401161 481.794225 
L 618.054045 481.27718 
L 618.815743 480.334881 
L 620.665582 477.870094 
L 621.100839 477.665861 
L 621.318467 477.698363 
L 621.753723 478.166218 
L 622.3522 479.159615 
L 624.582889 483.270787 
L 625.181366 483.816894 
L 625.779843 484.039332 
L 626.37832 483.993061 
L 627.956124 483.774754 
L 628.554602 483.919238 
L 630.78529 484.739501 
L 631.601395 484.65234 
L 632.25428 484.396273 
L 634.430561 483.300907 
L 634.920224 483.363522 
L 635.73633 483.828557 
L 637.74939 485.340518 
L 638.239053 485.400209 
L 638.674309 485.256154 
L 639.272786 484.747097 
L 640.143299 483.62735 
L 641.285847 482.283872 
L 641.829917 481.939379 
L 642.373987 481.861082 
L 642.918057 481.969767 
L 644.659082 482.383742 
L 645.311967 482.155169 
L 646.019258 481.653419 
L 647.81469 480.377003 
L 648.413167 480.280916 
L 649.011645 480.483091 
L 649.82775 481.055719 
L 651.514368 482.248927 
L 652.112845 482.377116 
L 652.76573 482.28343 
L 653.745056 481.832905 
L 654.452348 481.629628 
L 654.942011 481.693697 
L 655.431674 481.977246 
L 656.030152 482.61739 
L 657.172699 484.245099 
L 657.988805 485.244874 
L 658.532875 485.57946 
L 659.022538 485.615018 
L 659.566608 485.416268 
L 660.545935 484.708702 
L 661.36204 484.19174 
L 661.960518 484.069082 
L 662.395774 484.157028 
L 662.994251 484.546297 
L 665.22494 486.123273 
L 665.823417 486.081075 
L 666.421894 485.783626 
L 667.129186 485.133829 
L 669.686316 482.484365 
L 670.502421 482.151179 
L 671.644969 481.726028 
L 672.461074 481.129789 
L 673.331587 480.181467 
L 674.909391 478.383973 
L 675.453461 478.112383 
L 675.616682 478.09645 
L 675.616682 478.09645 
" clip-path="url(#pc3ed792eb9)" style="fill: none; stroke: #0000ff; stroke-width: 1.5; stroke-linecap: square"/>
   </g>
   <g id="patch_3">
    <path d="M 104.4 640.3905 
L 104.4 39.1875 
" style="fill: none; stroke: #000000; stroke-width: 0.8; stroke-linejoin: miter; stroke-linecap: square"/>
   </g>
   <g id="patch_4">
    <path d="M 702.817477 640.3905 
L 702.817477 39.1875 
" style="fill: none; stroke: #000000; stroke-width: 0.8; stroke-linejoin: miter; stroke-linecap: square"/>
   </g>
   <g id="patch_5">
    <path d="M 104.4 640.3905 
L 702.817477 640.3905 
" style="fill: none; stroke: #000000; stroke-width: 0.8; stroke-linejoin: miter; stroke-linecap: square"/>
   </g>
   <g id="patch_6">
    <path d="M 104.4 39.1875 
L 702.817477 39.1875 
" style="fill: none; stroke: #000000; stroke-width: 0.8; stroke-linejoin: miter; stroke-linecap: square"/>
   </g>
  </g>
 </g>
 <defs>
  <clipPath id="pc3ed792eb9">
   <rect x="104.4" y="39.1875" width="598.417477" height="601.203"/>
  </clipPath>
 </defs>
</svg>
