<?xml version="1.0" encoding="utf-8" standalone="no"?>
<!DOCTYPE svg PUBLIC "-//W3C//DTD SVG 1.1//EN"
  "http://www.w3.org/Graphics/SVG/1.1/DTD/svg11.dtd">
<svg xmlns:xlink="http://www.w3.org/1999/xlink" width="710.509591pt" height="711.02175pt" viewBox="0 0 710.509591 711.02175" xmlns="http://www.w3.org/2000/svg" version="1.1">
 <metadata>
  <rdf:RDF xmlns:dc="http://purl.org/dc/elements/1.1/" xmlns:cc="http://creativecommons.org/ns#" xmlns:rdf="http://www.w3.org/1999/02/22-rdf-syntax-ns#">
   <cc:Work>
    <dc:type rdf:resource="http://purl.org/dc/dcmitype/StillImage"/>
    <dc:date>2025-02-05T18:30:06.725055</dc:date>
    <dc:format>image/svg+xml</dc:format>
    <dc:creator>
     <cc:Agent>
      <dc:title>Matplotlib v3.9.3, https://matplotlib.org/</dc:title>
     </cc:Agent>
    </dc:creator>
   </cc:Work>
  </rdf:RDF>
 </metadata>
 <defs>
  <style type="text/css">*{stroke-linejoin: round; stroke-linecap: butt}</style>
 </defs>
 <g id="figure_1">
  <g id="patch_1">
   <path d="M 0 711.02175 
L 710.509591 711.02175 
L 710.509591 0 
L 0 0 
z
" style="fill: #ffffff"/>
  </g>
  <g id="axes_1">
   <g id="patch_2">
    <path d="M 121.2 640.3905 
L 703.309591 640.3905 
L 703.309591 39.1875 
L 121.2 39.1875 
z
" style="fill: #ffffff"/>
   </g>
   <g id="matplotlib.axis_1">
    <g id="xtick_1">
     <g id="line2d_1">
      <defs>
       <path id="m24269e2e41" d="M 0 0 
L 0 -3.5 
" style="stroke: #000000; stroke-width: 0.8"/>
      </defs>
      <g>
       <use xlink:href="#m24269e2e41" x="147.606603" y="640.3905" style="stroke: #000000; stroke-width: 0.8"/>
      </g>
     </g>
     <g id="text_1">
      <!-- 0 -->
      <g transform="translate(139.265196 665.631125) scale(0.3 -0.3)">
       <defs>
        <path id="LiberationSans-30" d="M 3309 2203 
Q 3309 1100 2920 518 
Q 2531 -63 1772 -63 
Q 1013 -63 631 515 
Q 250 1094 250 2203 
Q 250 3338 620 3903 
Q 991 4469 1791 4469 
Q 2569 4469 2939 3897 
Q 3309 3325 3309 2203 
z
M 2738 2203 
Q 2738 3156 2517 3584 
Q 2297 4013 1791 4013 
Q 1272 4013 1045 3591 
Q 819 3169 819 2203 
Q 819 1266 1048 831 
Q 1278 397 1778 397 
Q 2275 397 2506 840 
Q 2738 1284 2738 2203 
z
" transform="scale(0.015625)"/>
       </defs>
       <use xlink:href="#LiberationSans-30"/>
      </g>
     </g>
    </g>
    <g id="xtick_2">
     <g id="line2d_2">
      <g>
       <use xlink:href="#m24269e2e41" x="253.455295" y="640.3905" style="stroke: #000000; stroke-width: 0.8"/>
      </g>
     </g>
     <g id="text_2">
      <!-- 2 -->
      <g transform="translate(245.113889 665.631125) scale(0.3 -0.3)">
       <defs>
        <path id="LiberationSans-32" d="M 322 0 
L 322 397 
Q 481 763 711 1042 
Q 941 1322 1194 1548 
Q 1447 1775 1695 1969 
Q 1944 2163 2144 2356 
Q 2344 2550 2467 2762 
Q 2591 2975 2591 3244 
Q 2591 3606 2378 3806 
Q 2166 4006 1788 4006 
Q 1428 4006 1195 3811 
Q 963 3616 922 3263 
L 347 3316 
Q 409 3844 795 4156 
Q 1181 4469 1788 4469 
Q 2453 4469 2811 4155 
Q 3169 3841 3169 3263 
Q 3169 3006 3051 2753 
Q 2934 2500 2703 2247 
Q 2472 1994 1819 1463 
Q 1459 1169 1246 933 
Q 1034 697 941 478 
L 3238 478 
L 3238 0 
L 322 0 
z
" transform="scale(0.015625)"/>
       </defs>
       <use xlink:href="#LiberationSans-32"/>
      </g>
     </g>
    </g>
    <g id="xtick_3">
     <g id="line2d_3">
      <g>
       <use xlink:href="#m24269e2e41" x="359.303987" y="640.3905" style="stroke: #000000; stroke-width: 0.8"/>
      </g>
     </g>
     <g id="text_3">
      <!-- 4 -->
      <g transform="translate(350.962581 665.631125) scale(0.3 -0.3)">
       <defs>
        <path id="LiberationSans-34" d="M 2753 997 
L 2753 0 
L 2222 0 
L 2222 997 
L 147 997 
L 147 1434 
L 2163 4403 
L 2753 4403 
L 2753 1441 
L 3372 1441 
L 3372 997 
L 2753 997 
z
M 2222 3769 
Q 2216 3750 2134 3603 
Q 2053 3456 2013 3397 
L 884 1734 
L 716 1503 
L 666 1441 
L 2222 1441 
L 2222 3769 
z
" transform="scale(0.015625)"/>
       </defs>
       <use xlink:href="#LiberationSans-34"/>
      </g>
     </g>
    </g>
    <g id="xtick_4">
     <g id="line2d_4">
      <g>
       <use xlink:href="#m24269e2e41" x="465.152679" y="640.3905" style="stroke: #000000; stroke-width: 0.8"/>
      </g>
     </g>
     <g id="text_4">
      <!-- 6 -->
      <g transform="translate(456.811273 665.631125) scale(0.3 -0.3)">
       <defs>
        <path id="LiberationSans-36" d="M 3278 1441 
Q 3278 744 2900 340 
Q 2522 -63 1856 -63 
Q 1113 -63 719 490 
Q 325 1044 325 2100 
Q 325 3244 734 3856 
Q 1144 4469 1900 4469 
Q 2897 4469 3156 3572 
L 2619 3475 
Q 2453 4013 1894 4013 
Q 1413 4013 1148 3564 
Q 884 3116 884 2266 
Q 1038 2550 1316 2698 
Q 1594 2847 1953 2847 
Q 2563 2847 2920 2465 
Q 3278 2084 3278 1441 
z
M 2706 1416 
Q 2706 1894 2472 2153 
Q 2238 2413 1819 2413 
Q 1425 2413 1183 2183 
Q 941 1953 941 1550 
Q 941 1041 1192 716 
Q 1444 391 1838 391 
Q 2244 391 2475 664 
Q 2706 938 2706 1416 
z
" transform="scale(0.015625)"/>
       </defs>
       <use xlink:href="#LiberationSans-36"/>
      </g>
     </g>
    </g>
    <g id="xtick_5">
     <g id="line2d_5">
      <g>
       <use xlink:href="#m24269e2e41" x="571.001372" y="640.3905" style="stroke: #000000; stroke-width: 0.8"/>
      </g>
     </g>
     <g id="text_5">
      <!-- 8 -->
      <g transform="translate(562.659965 665.631125) scale(0.3 -0.3)">
       <defs>
        <path id="LiberationSans-38" d="M 3281 1228 
Q 3281 619 2893 278 
Q 2506 -63 1781 -63 
Q 1075 -63 676 271 
Q 278 606 278 1222 
Q 278 1653 525 1947 
Q 772 2241 1156 2303 
L 1156 2316 
Q 797 2400 589 2681 
Q 381 2963 381 3341 
Q 381 3844 757 4156 
Q 1134 4469 1769 4469 
Q 2419 4469 2795 4162 
Q 3172 3856 3172 3334 
Q 3172 2956 2962 2675 
Q 2753 2394 2391 2322 
L 2391 2309 
Q 2813 2241 3047 1952 
Q 3281 1663 3281 1228 
z
M 2588 3303 
Q 2588 4050 1769 4050 
Q 1372 4050 1164 3862 
Q 956 3675 956 3303 
Q 956 2925 1170 2726 
Q 1384 2528 1775 2528 
Q 2172 2528 2380 2711 
Q 2588 2894 2588 3303 
z
M 2697 1281 
Q 2697 1691 2453 1898 
Q 2209 2106 1769 2106 
Q 1341 2106 1100 1882 
Q 859 1659 859 1269 
Q 859 359 1788 359 
Q 2247 359 2472 579 
Q 2697 800 2697 1281 
z
" transform="scale(0.015625)"/>
       </defs>
       <use xlink:href="#LiberationSans-38"/>
      </g>
     </g>
    </g>
    <g id="xtick_6">
     <g id="line2d_6">
      <g>
       <use xlink:href="#m24269e2e41" x="676.850064" y="640.3905" style="stroke: #000000; stroke-width: 0.8"/>
      </g>
     </g>
     <g id="text_6">
      <!-- 10 -->
      <g transform="translate(660.167251 665.631125) scale(0.3 -0.3)">
       <defs>
        <path id="LiberationSans-31" d="M 488 0 
L 488 478 
L 1609 478 
L 1609 3866 
L 616 3156 
L 616 3688 
L 1656 4403 
L 2175 4403 
L 2175 478 
L 3247 478 
L 3247 0 
L 488 0 
z
" transform="scale(0.015625)"/>
       </defs>
       <use xlink:href="#LiberationSans-31"/>
       <use xlink:href="#LiberationSans-30" x="55.615234"/>
      </g>
     </g>
    </g>
    <g id="xtick_7">
     <g id="line2d_7">
      <defs>
       <path id="m087892981e" d="M 0 0 
L 0 -2 
" style="stroke: #000000; stroke-width: 0.6"/>
      </defs>
      <g>
       <use xlink:href="#m087892981e" x="174.068776" y="640.3905" style="stroke: #000000; stroke-width: 0.6"/>
      </g>
     </g>
    </g>
    <g id="xtick_8">
     <g id="line2d_8">
      <g>
       <use xlink:href="#m087892981e" x="200.530949" y="640.3905" style="stroke: #000000; stroke-width: 0.6"/>
      </g>
     </g>
    </g>
    <g id="xtick_9">
     <g id="line2d_9">
      <g>
       <use xlink:href="#m087892981e" x="226.993122" y="640.3905" style="stroke: #000000; stroke-width: 0.6"/>
      </g>
     </g>
    </g>
    <g id="xtick_10">
     <g id="line2d_10">
      <g>
       <use xlink:href="#m087892981e" x="279.917468" y="640.3905" style="stroke: #000000; stroke-width: 0.6"/>
      </g>
     </g>
    </g>
    <g id="xtick_11">
     <g id="line2d_11">
      <g>
       <use xlink:href="#m087892981e" x="306.379641" y="640.3905" style="stroke: #000000; stroke-width: 0.6"/>
      </g>
     </g>
    </g>
    <g id="xtick_12">
     <g id="line2d_12">
      <g>
       <use xlink:href="#m087892981e" x="332.841814" y="640.3905" style="stroke: #000000; stroke-width: 0.6"/>
      </g>
     </g>
    </g>
    <g id="xtick_13">
     <g id="line2d_13">
      <g>
       <use xlink:href="#m087892981e" x="385.76616" y="640.3905" style="stroke: #000000; stroke-width: 0.6"/>
      </g>
     </g>
    </g>
    <g id="xtick_14">
     <g id="line2d_14">
      <g>
       <use xlink:href="#m087892981e" x="412.228333" y="640.3905" style="stroke: #000000; stroke-width: 0.6"/>
      </g>
     </g>
    </g>
    <g id="xtick_15">
     <g id="line2d_15">
      <g>
       <use xlink:href="#m087892981e" x="438.690506" y="640.3905" style="stroke: #000000; stroke-width: 0.6"/>
      </g>
     </g>
    </g>
    <g id="xtick_16">
     <g id="line2d_16">
      <g>
       <use xlink:href="#m087892981e" x="491.614852" y="640.3905" style="stroke: #000000; stroke-width: 0.6"/>
      </g>
     </g>
    </g>
    <g id="xtick_17">
     <g id="line2d_17">
      <g>
       <use xlink:href="#m087892981e" x="518.077026" y="640.3905" style="stroke: #000000; stroke-width: 0.6"/>
      </g>
     </g>
    </g>
    <g id="xtick_18">
     <g id="line2d_18">
      <g>
       <use xlink:href="#m087892981e" x="544.539199" y="640.3905" style="stroke: #000000; stroke-width: 0.6"/>
      </g>
     </g>
    </g>
    <g id="xtick_19">
     <g id="line2d_19">
      <g>
       <use xlink:href="#m087892981e" x="597.463545" y="640.3905" style="stroke: #000000; stroke-width: 0.6"/>
      </g>
     </g>
    </g>
    <g id="xtick_20">
     <g id="line2d_20">
      <g>
       <use xlink:href="#m087892981e" x="623.925718" y="640.3905" style="stroke: #000000; stroke-width: 0.6"/>
      </g>
     </g>
    </g>
    <g id="xtick_21">
     <g id="line2d_21">
      <g>
       <use xlink:href="#m087892981e" x="650.387891" y="640.3905" style="stroke: #000000; stroke-width: 0.6"/>
      </g>
     </g>
    </g>
    <g id="text_7">
     <!-- Time ps -->
     <g transform="translate(359.478233 697.59675) scale(0.3 -0.3)">
      <defs>
       <path id="LiberationSans-54" d="M 2250 3916 
L 2250 0 
L 1656 0 
L 1656 3916 
L 144 3916 
L 144 4403 
L 3763 4403 
L 3763 3916 
L 2250 3916 
z
" transform="scale(0.015625)"/>
       <path id="LiberationSans-69" d="M 428 4100 
L 428 4638 
L 991 4638 
L 991 4100 
L 428 4100 
z
M 428 0 
L 428 3381 
L 991 3381 
L 991 0 
L 428 0 
z
" transform="scale(0.015625)"/>
       <path id="LiberationSans-6d" d="M 2400 0 
L 2400 2144 
Q 2400 2634 2265 2821 
Q 2131 3009 1781 3009 
Q 1422 3009 1212 2734 
Q 1003 2459 1003 1959 
L 1003 0 
L 444 0 
L 444 2659 
Q 444 3250 425 3381 
L 956 3381 
Q 959 3366 962 3297 
Q 966 3228 970 3139 
Q 975 3050 981 2803 
L 991 2803 
Q 1172 3163 1406 3303 
Q 1641 3444 1978 3444 
Q 2363 3444 2586 3291 
Q 2809 3138 2897 2803 
L 2906 2803 
Q 3081 3144 3329 3294 
Q 3578 3444 3931 3444 
Q 4444 3444 4676 3166 
Q 4909 2888 4909 2253 
L 4909 0 
L 4353 0 
L 4353 2144 
Q 4353 2634 4218 2821 
Q 4084 3009 3734 3009 
Q 3366 3009 3161 2736 
Q 2956 2463 2956 1959 
L 2956 0 
L 2400 0 
z
" transform="scale(0.015625)"/>
       <path id="LiberationSans-65" d="M 863 1572 
Q 863 991 1103 675 
Q 1344 359 1806 359 
Q 2172 359 2392 506 
Q 2613 653 2691 878 
L 3184 738 
Q 2881 -63 1806 -63 
Q 1056 -63 664 384 
Q 272 831 272 1713 
Q 272 2550 664 2997 
Q 1056 3444 1784 3444 
Q 3275 3444 3275 1647 
L 3275 1572 
L 863 1572 
z
M 2694 2003 
Q 2647 2538 2422 2783 
Q 2197 3028 1775 3028 
Q 1366 3028 1127 2754 
Q 888 2481 869 2003 
L 2694 2003 
z
" transform="scale(0.015625)"/>
       <path id="LiberationSans-20" transform="scale(0.015625)"/>
       <path id="LiberationSans-70" d="M 3291 1706 
Q 3291 -63 2047 -63 
Q 1266 -63 997 525 
L 981 525 
Q 994 500 994 -6 
L 994 -1328 
L 431 -1328 
L 431 2691 
Q 431 3213 413 3381 
L 956 3381 
Q 959 3369 965 3292 
Q 972 3216 980 3056 
Q 988 2897 988 2838 
L 1000 2838 
Q 1150 3150 1397 3295 
Q 1644 3441 2047 3441 
Q 2672 3441 2981 3022 
Q 3291 2603 3291 1706 
z
M 2700 1694 
Q 2700 2400 2509 2703 
Q 2319 3006 1903 3006 
Q 1569 3006 1380 2865 
Q 1191 2725 1092 2426 
Q 994 2128 994 1650 
Q 994 984 1206 668 
Q 1419 353 1897 353 
Q 2316 353 2508 661 
Q 2700 969 2700 1694 
z
" transform="scale(0.015625)"/>
       <path id="LiberationSans-73" d="M 2969 934 
Q 2969 456 2608 196 
Q 2247 -63 1597 -63 
Q 966 -63 623 145 
Q 281 353 178 794 
L 675 891 
Q 747 619 972 492 
Q 1197 366 1597 366 
Q 2025 366 2223 497 
Q 2422 628 2422 891 
Q 2422 1091 2284 1216 
Q 2147 1341 1841 1422 
L 1438 1528 
Q 953 1653 748 1773 
Q 544 1894 428 2066 
Q 313 2238 313 2488 
Q 313 2950 642 3192 
Q 972 3434 1603 3434 
Q 2163 3434 2492 3237 
Q 2822 3041 2909 2606 
L 2403 2544 
Q 2356 2769 2151 2889 
Q 1947 3009 1603 3009 
Q 1222 3009 1040 2893 
Q 859 2778 859 2544 
Q 859 2400 934 2306 
Q 1009 2213 1156 2147 
Q 1303 2081 1775 1966 
Q 2222 1853 2419 1758 
Q 2616 1663 2730 1547 
Q 2844 1431 2906 1279 
Q 2969 1128 2969 934 
z
" transform="scale(0.015625)"/>
      </defs>
      <use xlink:href="#LiberationSans-54"/>
      <use xlink:href="#LiberationSans-69" x="57.333984"/>
      <use xlink:href="#LiberationSans-6d" x="79.550781"/>
      <use xlink:href="#LiberationSans-65" x="162.851562"/>
      <use xlink:href="#LiberationSans-20" x="218.466797"/>
      <use xlink:href="#LiberationSans-70" x="246.25"/>
      <use xlink:href="#LiberationSans-73" x="301.865234"/>
     </g>
    </g>
   </g>
   <g id="matplotlib.axis_2">
    <g id="ytick_1">
     <g id="line2d_22">
      <defs>
       <path id="m1651381b63" d="M 0 0 
L 3.5 0 
" style="stroke: #000000; stroke-width: 0.8"/>
      </defs>
      <g>
       <use xlink:href="#m1651381b63" x="121.2" y="618.210138" style="stroke: #000000; stroke-width: 0.8"/>
      </g>
     </g>
     <g id="text_8">
      <!-- $\mathdefault{−0.50}$ -->
      <g transform="translate(41.5 629.080451) scale(0.3 -0.3)">
       <defs>
        <path id="LiberationSans-2212" d="M 316 1900 
L 316 2356 
L 3425 2356 
L 3425 1900 
L 316 1900 
z
" transform="scale(0.015625)"/>
        <path id="LiberationSans-2e" d="M 584 0 
L 584 684 
L 1194 684 
L 1194 0 
L 584 0 
z
" transform="scale(0.015625)"/>
        <path id="LiberationSans-35" d="M 3291 1434 
Q 3291 738 2877 337 
Q 2463 -63 1728 -63 
Q 1113 -63 734 206 
Q 356 475 256 984 
L 825 1050 
Q 1003 397 1741 397 
Q 2194 397 2450 670 
Q 2706 944 2706 1422 
Q 2706 1838 2448 2094 
Q 2191 2350 1753 2350 
Q 1525 2350 1328 2278 
Q 1131 2206 934 2034 
L 384 2034 
L 531 4403 
L 3034 4403 
L 3034 3925 
L 1044 3925 
L 959 2528 
Q 1325 2809 1869 2809 
Q 2519 2809 2905 2428 
Q 3291 2047 3291 1434 
z
" transform="scale(0.015625)"/>
       </defs>
       <use xlink:href="#LiberationSans-2212" transform="translate(0 0.171875)"/>
       <use xlink:href="#LiberationSans-30" transform="translate(58.398438 0.171875)"/>
       <use xlink:href="#LiberationSans-2e" transform="translate(114.013672 0.171875)"/>
       <use xlink:href="#LiberationSans-35" transform="translate(141.796875 0.171875)"/>
       <use xlink:href="#LiberationSans-30" transform="translate(197.412109 0.171875)"/>
      </g>
     </g>
    </g>
    <g id="ytick_2">
     <g id="line2d_23">
      <g>
       <use xlink:href="#m1651381b63" x="121.2" y="541.149998" style="stroke: #000000; stroke-width: 0.8"/>
      </g>
     </g>
     <g id="text_9">
      <!-- $\mathdefault{−0.25}$ -->
      <g transform="translate(41.5 552.020311) scale(0.3 -0.3)">
       <use xlink:href="#LiberationSans-2212" transform="translate(0 0.171875)"/>
       <use xlink:href="#LiberationSans-30" transform="translate(58.398438 0.171875)"/>
       <use xlink:href="#LiberationSans-2e" transform="translate(114.013672 0.171875)"/>
       <use xlink:href="#LiberationSans-32" transform="translate(141.796875 0.171875)"/>
       <use xlink:href="#LiberationSans-35" transform="translate(197.412109 0.171875)"/>
      </g>
     </g>
    </g>
    <g id="ytick_3">
     <g id="line2d_24">
      <g>
       <use xlink:href="#m1651381b63" x="121.2" y="464.089859" style="stroke: #000000; stroke-width: 0.8"/>
      </g>
     </g>
     <g id="text_10">
      <!-- $\mathdefault{0.00}$ -->
      <g transform="translate(59.2 474.960171) scale(0.3 -0.3)">
       <use xlink:href="#LiberationSans-30" transform="translate(0 0.171875)"/>
       <use xlink:href="#LiberationSans-2e" transform="translate(55.615234 0.171875)"/>
       <use xlink:href="#LiberationSans-30" transform="translate(83.398438 0.171875)"/>
       <use xlink:href="#LiberationSans-30" transform="translate(139.013672 0.171875)"/>
      </g>
     </g>
    </g>
    <g id="ytick_4">
     <g id="line2d_25">
      <g>
       <use xlink:href="#m1651381b63" x="121.2" y="387.029719" style="stroke: #000000; stroke-width: 0.8"/>
      </g>
     </g>
     <g id="text_11">
      <!-- $\mathdefault{0.25}$ -->
      <g transform="translate(59.2 397.900031) scale(0.3 -0.3)">
       <use xlink:href="#LiberationSans-30" transform="translate(0 0.171875)"/>
       <use xlink:href="#LiberationSans-2e" transform="translate(55.615234 0.171875)"/>
       <use xlink:href="#LiberationSans-32" transform="translate(83.398438 0.171875)"/>
       <use xlink:href="#LiberationSans-35" transform="translate(139.013672 0.171875)"/>
      </g>
     </g>
    </g>
    <g id="ytick_5">
     <g id="line2d_26">
      <g>
       <use xlink:href="#m1651381b63" x="121.2" y="309.969579" style="stroke: #000000; stroke-width: 0.8"/>
      </g>
     </g>
     <g id="text_12">
      <!-- $\mathdefault{0.50}$ -->
      <g transform="translate(59.2 320.839892) scale(0.3 -0.3)">
       <use xlink:href="#LiberationSans-30" transform="translate(0 0.171875)"/>
       <use xlink:href="#LiberationSans-2e" transform="translate(55.615234 0.171875)"/>
       <use xlink:href="#LiberationSans-35" transform="translate(83.398438 0.171875)"/>
       <use xlink:href="#LiberationSans-30" transform="translate(139.013672 0.171875)"/>
      </g>
     </g>
    </g>
    <g id="ytick_6">
     <g id="line2d_27">
      <g>
       <use xlink:href="#m1651381b63" x="121.2" y="232.909439" style="stroke: #000000; stroke-width: 0.8"/>
      </g>
     </g>
     <g id="text_13">
      <!-- $\mathdefault{0.75}$ -->
      <g transform="translate(59.2 243.779752) scale(0.3 -0.3)">
       <defs>
        <path id="LiberationSans-37" d="M 3238 3947 
Q 2563 2916 2284 2331 
Q 2006 1747 1867 1178 
Q 1728 609 1728 0 
L 1141 0 
Q 1141 844 1498 1776 
Q 1856 2709 2694 3925 
L 328 3925 
L 328 4403 
L 3238 4403 
L 3238 3947 
z
" transform="scale(0.015625)"/>
       </defs>
       <use xlink:href="#LiberationSans-30" transform="translate(0 0.171875)"/>
       <use xlink:href="#LiberationSans-2e" transform="translate(55.615234 0.171875)"/>
       <use xlink:href="#LiberationSans-37" transform="translate(83.398438 0.171875)"/>
       <use xlink:href="#LiberationSans-35" transform="translate(139.013672 0.171875)"/>
      </g>
     </g>
    </g>
    <g id="ytick_7">
     <g id="line2d_28">
      <g>
       <use xlink:href="#m1651381b63" x="121.2" y="155.849299" style="stroke: #000000; stroke-width: 0.8"/>
      </g>
     </g>
     <g id="text_14">
      <!-- $\mathdefault{1.00}$ -->
      <g transform="translate(59.2 166.719612) scale(0.3 -0.3)">
       <use xlink:href="#LiberationSans-31" transform="translate(0 0.171875)"/>
       <use xlink:href="#LiberationSans-2e" transform="translate(55.615234 0.171875)"/>
       <use xlink:href="#LiberationSans-30" transform="translate(83.398438 0.171875)"/>
       <use xlink:href="#LiberationSans-30" transform="translate(139.013672 0.171875)"/>
      </g>
     </g>
    </g>
    <g id="ytick_8">
     <g id="line2d_29">
      <g>
       <use xlink:href="#m1651381b63" x="121.2" y="78.78916" style="stroke: #000000; stroke-width: 0.8"/>
      </g>
     </g>
     <g id="text_15">
      <!-- $\mathdefault{1.25}$ -->
      <g transform="translate(59.2 89.659472) scale(0.3 -0.3)">
       <use xlink:href="#LiberationSans-31" transform="translate(0 0.171875)"/>
       <use xlink:href="#LiberationSans-2e" transform="translate(55.615234 0.171875)"/>
       <use xlink:href="#LiberationSans-32" transform="translate(83.398438 0.171875)"/>
       <use xlink:href="#LiberationSans-35" transform="translate(139.013672 0.171875)"/>
      </g>
     </g>
    </g>
    <g id="ytick_9">
     <g id="line2d_30">
      <defs>
       <path id="m31b2708a26" d="M 0 0 
L 2 0 
" style="stroke: #000000; stroke-width: 0.6"/>
      </defs>
      <g>
       <use xlink:href="#m31b2708a26" x="121.2" y="633.622166" style="stroke: #000000; stroke-width: 0.6"/>
      </g>
     </g>
    </g>
    <g id="ytick_10">
     <g id="line2d_31">
      <g>
       <use xlink:href="#m31b2708a26" x="121.2" y="602.79811" style="stroke: #000000; stroke-width: 0.6"/>
      </g>
     </g>
    </g>
    <g id="ytick_11">
     <g id="line2d_32">
      <g>
       <use xlink:href="#m31b2708a26" x="121.2" y="587.386082" style="stroke: #000000; stroke-width: 0.6"/>
      </g>
     </g>
    </g>
    <g id="ytick_12">
     <g id="line2d_33">
      <g>
       <use xlink:href="#m31b2708a26" x="121.2" y="571.974054" style="stroke: #000000; stroke-width: 0.6"/>
      </g>
     </g>
    </g>
    <g id="ytick_13">
     <g id="line2d_34">
      <g>
       <use xlink:href="#m31b2708a26" x="121.2" y="556.562026" style="stroke: #000000; stroke-width: 0.6"/>
      </g>
     </g>
    </g>
    <g id="ytick_14">
     <g id="line2d_35">
      <g>
       <use xlink:href="#m31b2708a26" x="121.2" y="525.737971" style="stroke: #000000; stroke-width: 0.6"/>
      </g>
     </g>
    </g>
    <g id="ytick_15">
     <g id="line2d_36">
      <g>
       <use xlink:href="#m31b2708a26" x="121.2" y="510.325943" style="stroke: #000000; stroke-width: 0.6"/>
      </g>
     </g>
    </g>
    <g id="ytick_16">
     <g id="line2d_37">
      <g>
       <use xlink:href="#m31b2708a26" x="121.2" y="494.913915" style="stroke: #000000; stroke-width: 0.6"/>
      </g>
     </g>
    </g>
    <g id="ytick_17">
     <g id="line2d_38">
      <g>
       <use xlink:href="#m31b2708a26" x="121.2" y="479.501887" style="stroke: #000000; stroke-width: 0.6"/>
      </g>
     </g>
    </g>
    <g id="ytick_18">
     <g id="line2d_39">
      <g>
       <use xlink:href="#m31b2708a26" x="121.2" y="448.677831" style="stroke: #000000; stroke-width: 0.6"/>
      </g>
     </g>
    </g>
    <g id="ytick_19">
     <g id="line2d_40">
      <g>
       <use xlink:href="#m31b2708a26" x="121.2" y="433.265803" style="stroke: #000000; stroke-width: 0.6"/>
      </g>
     </g>
    </g>
    <g id="ytick_20">
     <g id="line2d_41">
      <g>
       <use xlink:href="#m31b2708a26" x="121.2" y="417.853775" style="stroke: #000000; stroke-width: 0.6"/>
      </g>
     </g>
    </g>
    <g id="ytick_21">
     <g id="line2d_42">
      <g>
       <use xlink:href="#m31b2708a26" x="121.2" y="402.441747" style="stroke: #000000; stroke-width: 0.6"/>
      </g>
     </g>
    </g>
    <g id="ytick_22">
     <g id="line2d_43">
      <g>
       <use xlink:href="#m31b2708a26" x="121.2" y="371.617691" style="stroke: #000000; stroke-width: 0.6"/>
      </g>
     </g>
    </g>
    <g id="ytick_23">
     <g id="line2d_44">
      <g>
       <use xlink:href="#m31b2708a26" x="121.2" y="356.205663" style="stroke: #000000; stroke-width: 0.6"/>
      </g>
     </g>
    </g>
    <g id="ytick_24">
     <g id="line2d_45">
      <g>
       <use xlink:href="#m31b2708a26" x="121.2" y="340.793635" style="stroke: #000000; stroke-width: 0.6"/>
      </g>
     </g>
    </g>
    <g id="ytick_25">
     <g id="line2d_46">
      <g>
       <use xlink:href="#m31b2708a26" x="121.2" y="325.381607" style="stroke: #000000; stroke-width: 0.6"/>
      </g>
     </g>
    </g>
    <g id="ytick_26">
     <g id="line2d_47">
      <g>
       <use xlink:href="#m31b2708a26" x="121.2" y="294.557551" style="stroke: #000000; stroke-width: 0.6"/>
      </g>
     </g>
    </g>
    <g id="ytick_27">
     <g id="line2d_48">
      <g>
       <use xlink:href="#m31b2708a26" x="121.2" y="279.145523" style="stroke: #000000; stroke-width: 0.6"/>
      </g>
     </g>
    </g>
    <g id="ytick_28">
     <g id="line2d_49">
      <g>
       <use xlink:href="#m31b2708a26" x="121.2" y="263.733495" style="stroke: #000000; stroke-width: 0.6"/>
      </g>
     </g>
    </g>
    <g id="ytick_29">
     <g id="line2d_50">
      <g>
       <use xlink:href="#m31b2708a26" x="121.2" y="248.321467" style="stroke: #000000; stroke-width: 0.6"/>
      </g>
     </g>
    </g>
    <g id="ytick_30">
     <g id="line2d_51">
      <g>
       <use xlink:href="#m31b2708a26" x="121.2" y="217.497411" style="stroke: #000000; stroke-width: 0.6"/>
      </g>
     </g>
    </g>
    <g id="ytick_31">
     <g id="line2d_52">
      <g>
       <use xlink:href="#m31b2708a26" x="121.2" y="202.085383" style="stroke: #000000; stroke-width: 0.6"/>
      </g>
     </g>
    </g>
    <g id="ytick_32">
     <g id="line2d_53">
      <g>
       <use xlink:href="#m31b2708a26" x="121.2" y="186.673355" style="stroke: #000000; stroke-width: 0.6"/>
      </g>
     </g>
    </g>
    <g id="ytick_33">
     <g id="line2d_54">
      <g>
       <use xlink:href="#m31b2708a26" x="121.2" y="171.261327" style="stroke: #000000; stroke-width: 0.6"/>
      </g>
     </g>
    </g>
    <g id="ytick_34">
     <g id="line2d_55">
      <g>
       <use xlink:href="#m31b2708a26" x="121.2" y="140.437271" style="stroke: #000000; stroke-width: 0.6"/>
      </g>
     </g>
    </g>
    <g id="ytick_35">
     <g id="line2d_56">
      <g>
       <use xlink:href="#m31b2708a26" x="121.2" y="125.025243" style="stroke: #000000; stroke-width: 0.6"/>
      </g>
     </g>
    </g>
    <g id="ytick_36">
     <g id="line2d_57">
      <g>
       <use xlink:href="#m31b2708a26" x="121.2" y="109.613215" style="stroke: #000000; stroke-width: 0.6"/>
      </g>
     </g>
    </g>
    <g id="ytick_37">
     <g id="line2d_58">
      <g>
       <use xlink:href="#m31b2708a26" x="121.2" y="94.201187" style="stroke: #000000; stroke-width: 0.6"/>
      </g>
     </g>
    </g>
    <g id="ytick_38">
     <g id="line2d_59">
      <g>
       <use xlink:href="#m31b2708a26" x="121.2" y="63.377132" style="stroke: #000000; stroke-width: 0.6"/>
      </g>
     </g>
    </g>
    <g id="ytick_39">
     <g id="line2d_60">
      <g>
       <use xlink:href="#m31b2708a26" x="121.2" y="47.965104" style="stroke: #000000; stroke-width: 0.6"/>
      </g>
     </g>
    </g>
    <g id="text_16">
     <!-- ACF $(\mathrm{W} / \mathrm{m}^2)^2$ -->
     <g transform="translate(31.275 426.339) rotate(-90) scale(0.3 -0.3)">
      <defs>
       <path id="LiberationSans-41" d="M 3647 0 
L 3144 1288 
L 1138 1288 
L 631 0 
L 13 0 
L 1809 4403 
L 2488 4403 
L 4256 0 
L 3647 0 
z
M 2141 3953 
L 2113 3866 
Q 2034 3606 1881 3200 
L 1319 1753 
L 2966 1753 
L 2400 3206 
Q 2313 3422 2225 3694 
L 2141 3953 
z
" transform="scale(0.015625)"/>
       <path id="LiberationSans-43" d="M 2475 3981 
Q 1744 3981 1337 3511 
Q 931 3041 931 2222 
Q 931 1413 1354 920 
Q 1778 428 2500 428 
Q 3425 428 3891 1344 
L 4378 1100 
Q 4106 531 3614 234 
Q 3122 -63 2472 -63 
Q 1806 -63 1320 214 
Q 834 491 579 1005 
Q 325 1519 325 2222 
Q 325 3275 894 3872 
Q 1463 4469 2469 4469 
Q 3172 4469 3644 4194 
Q 4116 3919 4338 3378 
L 3772 3191 
Q 3619 3575 3280 3778 
Q 2941 3981 2475 3981 
z
" transform="scale(0.015625)"/>
       <path id="LiberationSans-46" d="M 1122 3916 
L 1122 2278 
L 3578 2278 
L 3578 1784 
L 1122 1784 
L 1122 0 
L 525 0 
L 525 4403 
L 3653 4403 
L 3653 3916 
L 1122 3916 
z
" transform="scale(0.015625)"/>
       <path id="STIXGeneral-Regular-28" d="M 1946 -1030 
L 1869 -1133 
Q 1126 -710 716 32 
Q 307 774 307 1613 
Q 307 3386 1888 4326 
L 1946 4224 
Q 1293 3667 1075 3126 
Q 858 2586 858 1632 
Q 858 685 1082 96 
Q 1306 -493 1946 -1030 
z
" transform="scale(0.015625)"/>
       <path id="STIXGeneral-Regular-57" d="M 5965 4237 
L 5965 4115 
Q 5709 4064 5616 3990 
Q 5523 3917 5434 3667 
Q 4704 1709 4128 -70 
L 4032 -70 
Q 3642 1011 3008 2637 
L 2022 -70 
L 1926 -70 
Q 1709 576 1277 1753 
Q 845 2931 698 3347 
Q 538 3808 406 3958 
Q 275 4109 32 4115 
L 32 4237 
L 1594 4237 
L 1594 4115 
Q 1357 4109 1270 4064 
Q 1184 4019 1184 3917 
Q 1184 3808 1254 3616 
L 2176 1210 
L 2842 3021 
L 2662 3501 
Q 2509 3917 2400 4013 
Q 2291 4109 2010 4115 
L 2010 4237 
L 3706 4237 
L 3706 4115 
Q 3213 4102 3213 3891 
Q 3213 3808 3322 3520 
L 4237 1190 
L 5043 3360 
Q 5152 3667 5152 3853 
Q 5152 4109 4704 4115 
L 4704 4237 
L 5965 4237 
z
" transform="scale(0.015625)"/>
       <path id="STIXGeneral-Regular-2f" d="M 1837 4326 
L 378 -90 
L -58 -90 
L 1408 4326 
L 1837 4326 
z
" transform="scale(0.015625)"/>
       <path id="STIXGeneral-Regular-6d" d="M 4960 0 
L 3565 0 
L 3565 96 
Q 3834 122 3907 208 
Q 3981 294 3981 576 
L 3981 1894 
Q 3981 2278 3869 2444 
Q 3757 2611 3488 2611 
Q 3264 2611 3107 2521 
Q 2950 2432 2803 2221 
L 2803 608 
Q 2803 301 2896 201 
Q 2989 102 3264 96 
L 3264 0 
L 1830 0 
L 1830 96 
Q 2112 115 2189 188 
Q 2266 262 2266 550 
L 2266 1901 
Q 2266 2611 1850 2611 
Q 1670 2611 1468 2531 
Q 1267 2451 1171 2336 
Q 1088 2240 1088 2227 
L 1088 448 
Q 1088 243 1177 176 
Q 1267 109 1523 96 
L 1523 0 
L 102 0 
L 102 96 
Q 371 102 460 195 
Q 550 288 550 563 
L 550 2150 
Q 550 2387 499 2480 
Q 448 2573 326 2573 
Q 230 2573 122 2547 
L 122 2656 
Q 557 2778 1011 2944 
L 1062 2925 
L 1062 2451 
L 1075 2451 
Q 1363 2752 1584 2848 
Q 1805 2944 2054 2944 
Q 2560 2944 2733 2406 
Q 3232 2944 3776 2944 
Q 4518 2944 4518 1792 
L 4518 493 
Q 4518 282 4582 202 
Q 4646 122 4794 109 
L 4960 96 
L 4960 0 
z
" transform="scale(0.015625)"/>
       <path id="STIXGeneral-Regular-32" d="M 3034 877 
L 2688 0 
L 186 0 
L 186 77 
L 1325 1286 
Q 1773 1754 1965 2144 
Q 2157 2534 2157 2950 
Q 2157 3379 1920 3616 
Q 1683 3853 1267 3853 
Q 922 3853 720 3673 
Q 518 3494 326 3021 
L 192 3053 
Q 301 3648 630 3987 
Q 960 4326 1523 4326 
Q 2054 4326 2380 4006 
Q 2707 3686 2707 3200 
Q 2707 2477 1888 1613 
L 832 486 
L 2330 486 
Q 2541 486 2665 569 
Q 2790 653 2944 915 
L 3034 877 
z
" transform="scale(0.015625)"/>
       <path id="STIXGeneral-Regular-29" d="M 186 4224 
L 262 4326 
Q 992 3891 1408 3148 
Q 1824 2406 1824 1581 
Q 1824 -166 243 -1133 
L 186 -1030 
Q 845 -486 1059 54 
Q 1274 595 1274 1562 
Q 1274 2534 1059 3120 
Q 845 3706 186 4224 
z
" transform="scale(0.015625)"/>
      </defs>
      <use xlink:href="#LiberationSans-41" transform="translate(0 0.409375)"/>
      <use xlink:href="#LiberationSans-43" transform="translate(66.699219 0.409375)"/>
      <use xlink:href="#LiberationSans-46" transform="translate(138.916016 0.409375)"/>
      <use xlink:href="#LiberationSans-20" transform="translate(200 0.409375)"/>
      <use xlink:href="#STIXGeneral-Regular-28" transform="translate(227.783203 0.409375)"/>
      <use xlink:href="#STIXGeneral-Regular-57" transform="translate(261.083191 0.409375)"/>
      <use xlink:href="#STIXGeneral-Regular-2f" transform="translate(355.483185 0.409375)"/>
      <use xlink:href="#STIXGeneral-Regular-6d" transform="translate(383.283173 0.409375)"/>
      <use xlink:href="#STIXGeneral-Regular-32" transform="translate(462.626442 35.684375) scale(0.7)"/>
      <use xlink:href="#STIXGeneral-Regular-29" transform="translate(502.035806 0.409375)"/>
      <use xlink:href="#STIXGeneral-Regular-32" transform="translate(536.879075 35.684375) scale(0.7)"/>
     </g>
    </g>
    <g id="text_17">
     <!-- $\times\mathdefault{10^{18}}\mathdefault{}$ -->
     <g transform="translate(121.2 36.1875) scale(0.4 -0.4)">
      <defs>
       <path id="STIXGeneral-Regular-d7" d="M 3821 141 
L 3526 -160 
L 2048 1312 
L 570 -160 
L 275 134 
L 1747 1613 
L 275 3091 
L 576 3386 
L 2048 1914 
L 3526 3386 
L 3821 3098 
L 2349 1613 
L 3821 141 
z
" transform="scale(0.015625)"/>
      </defs>
      <use xlink:href="#STIXGeneral-Regular-d7" transform="translate(0 0.140625)"/>
      <use xlink:href="#LiberationSans-31" transform="translate(63.999985 0.140625)"/>
      <use xlink:href="#LiberationSans-30" transform="translate(119.615219 0.140625)"/>
      <use xlink:href="#LiberationSans-31" transform="translate(176.154946 37.120312) scale(0.7)"/>
      <use xlink:href="#LiberationSans-38" transform="translate(215.08561 37.120312) scale(0.7)"/>
     </g>
    </g>
   </g>
   <g id="line2d_61">
    <path d="M 147.659527 66.514909 
L 147.765376 67.227246 
L 147.924149 70.953021 
L 148.18877 84.077862 
L 148.559241 115.929249 
L 149.088484 183.707712 
L 150.146971 357.174918 
L 151.099609 497.079234 
L 151.734702 560.847153 
L 152.263945 593.513025 
L 152.68734 607.587094 
L 153.004886 612.26495 
L 153.216583 613.063091 
L 153.322432 612.863151 
L 153.534129 611.421967 
L 153.851675 607.096536 
L 154.327994 597.108683 
L 155.174784 573.73421 
L 156.868363 519.555437 
L 158.826564 457.898109 
L 159.567505 440.991202 
L 160.149673 432.05505 
L 160.625992 427.830581 
L 160.943538 426.522328 
L 161.155235 426.280883 
L 161.314008 426.41068 
L 161.525706 426.971293 
L 161.843252 428.566779 
L 162.319571 432.388968 
L 163.007587 440.081576 
L 164.595318 461.417137 
L 165.759653 475.314967 
L 166.553518 482.321644 
L 167.135686 485.809164 
L 167.612005 487.531686 
L 167.982476 488.159685 
L 168.247098 488.236053 
L 168.511719 488.015061 
L 168.829265 487.379938 
L 169.25266 485.962593 
L 169.834828 483.115565 
L 170.681617 477.645774 
L 173.75123 456.454831 
L 174.333397 454.156242 
L 174.809716 453.082516 
L 175.127263 452.807867 
L 175.391884 452.854014 
L 175.656506 453.145425 
L 176.026976 453.941616 
L 176.503296 455.544399 
L 177.244236 458.927339 
L 178.779042 466.09553 
L 179.414135 468.022751 
L 179.943378 468.988246 
L 180.419697 469.411109 
L 180.843092 469.506297 
L 181.319411 469.388715 
L 182.007428 468.957642 
L 182.801293 468.192857 
L 183.489309 467.216319 
L 184.124401 465.901411 
L 184.812418 463.916835 
L 185.765056 460.350138 
L 187.141089 455.221533 
L 187.723257 453.811367 
L 188.199576 453.1908 
L 188.570046 453.057247 
L 188.887593 453.174104 
L 189.258063 453.550505 
L 189.787306 454.445912 
L 190.68702 456.521957 
L 192.539372 460.839085 
L 193.915405 463.432184 
L 194.920968 464.931676 
L 195.608984 465.60884 
L 196.138228 465.862393 
L 196.614547 465.87343 
L 197.143791 465.659757 
L 197.831807 465.112842 
L 199.842932 463.34934 
L 200.530949 463.099802 
L 201.27189 463.065395 
L 202.171603 463.259362 
L 203.177166 463.706487 
L 204.07688 464.339956 
L 205.082442 465.341783 
L 207.940357 468.427536 
L 209.051768 469.153203 
L 210.216104 469.66059 
L 211.062894 469.819904 
L 211.75091 469.72727 
L 212.386002 469.409178 
L 213.074019 468.807186 
L 214.132506 467.535162 
L 215.40269 466.079085 
L 216.249479 465.441002 
L 217.255042 464.981087 
L 219.266167 464.10587 
L 220.589276 463.571707 
L 221.436065 463.474701 
L 224.135207 463.412176 
L 224.981997 462.954363 
L 227.204819 461.603958 
L 228.263306 461.337397 
L 229.798112 460.947138 
L 231.121221 460.30171 
L 232.126783 459.902588 
L 232.8148 459.860251 
L 233.449892 460.04439 
L 234.190833 460.514449 
L 235.302244 461.540046 
L 236.942899 463.018014 
L 237.948461 463.620038 
L 238.954024 463.961201 
L 240.012511 464.081577 
L 241.282695 463.987402 
L 244.087686 463.682033 
L 245.040324 463.858579 
L 246.045886 464.276683 
L 247.368995 465.088533 
L 250.332758 467.246177 
L 251.761716 468.136331 
L 252.66143 468.447208 
L 253.455295 468.493885 
L 254.24916 468.32276 
L 255.201798 467.884342 
L 256.895377 466.807581 
L 261.182249 464.093622 
L 262.346585 463.606192 
L 263.352148 463.423536 
L 264.675256 463.436953 
L 266.368835 463.421782 
L 267.63902 463.165908 
L 270.708632 462.201849 
L 277.112478 460.396968 
L 277.959267 460.471856 
L 278.753132 460.782258 
L 279.652846 461.400429 
L 283.463399 464.383172 
L 285.315751 465.296151 
L 286.321314 465.57486 
L 287.168103 465.575333 
L 288.120742 465.335839 
L 289.761396 464.900009 
L 290.502337 464.96663 
L 291.243278 465.265611 
L 292.248841 465.94799 
L 294.048268 467.191154 
L 294.895058 467.497144 
L 295.741847 467.566077 
L 296.641561 467.41055 
L 297.805897 466.964582 
L 301.298904 465.473046 
L 303.098331 464.758117 
L 304.315591 464.006071 
L 306.326717 462.7212 
L 307.173506 462.471024 
L 308.020296 462.457281 
L 309.555102 462.728471 
L 310.719437 462.810414 
L 312.09547 462.653416 
L 313.736125 462.520431 
L 317.970073 462.471955 
L 320.192895 462.369484 
L 322.997886 462.419603 
L 324.003448 462.706551 
L 325.273633 463.333045 
L 327.390606 464.382749 
L 329.084185 464.905508 
L 332.471344 465.711079 
L 335.699729 466.244885 
L 337.393308 466.640444 
L 338.293022 466.59769 
L 339.351509 466.295492 
L 341.521407 465.622062 
L 343.214986 465.429178 
L 345.808279 465.092892 
L 347.025539 464.725666 
L 348.031101 464.179079 
L 349.35421 463.156701 
L 350.677319 462.214839 
L 351.41826 461.94614 
L 352.106276 461.925997 
L 352.900141 462.143142 
L 355.175888 462.943659 
L 356.022678 462.891467 
L 358.827668 462.469377 
L 360.203701 462.739405 
L 361.685583 462.947355 
L 364.861043 463.230427 
L 367.348488 463.604318 
L 369.359613 463.892455 
L 371.476587 464.516223 
L 373.117241 464.859456 
L 375.392988 465.316085 
L 378.250903 466.045988 
L 379.626936 466.06094 
L 382.273153 465.823417 
L 383.437489 465.503621 
L 384.707673 464.89478 
L 386.560025 464.013 
L 387.565588 463.79135 
L 388.676999 463.780871 
L 391.85246 463.925753 
L 393.06972 463.62568 
L 397.039046 462.43428 
L 398.520928 462.369632 
L 400.74375 462.512985 
L 402.119783 462.800939 
L 403.389967 463.307449 
L 405.61279 464.243029 
L 406.512504 464.33777 
L 407.359293 464.202156 
L 408.523629 463.756787 
L 409.899662 463.276163 
L 410.693527 463.247896 
L 411.487392 463.458916 
L 412.651728 464.05199 
L 413.921912 464.636812 
L 414.821626 464.795428 
L 415.880113 464.730934 
L 417.679541 464.594489 
L 418.790952 464.774731 
L 421.966413 465.476827 
L 423.183673 465.385439 
L 425.988663 465.050598 
L 427.258848 465.238092 
L 428.740729 465.432986 
L 429.587519 465.300386 
L 430.434308 464.92344 
L 431.704493 464.063139 
L 433.027601 463.257214 
L 433.927315 462.979042 
L 434.827029 462.945149 
L 436.044289 463.151121 
L 438.00249 463.481917 
L 439.21975 463.442372 
L 440.80748 463.142604 
L 442.712757 462.814842 
L 443.771244 462.859589 
L 444.882655 463.141125 
L 447.370099 463.880745 
L 448.375662 463.866709 
L 450.968955 463.689363 
L 452.292063 463.96774 
L 454.091491 464.313371 
L 455.837994 464.363634 
L 458.325439 464.45714 
L 459.489774 464.726002 
L 460.548261 465.207807 
L 462.982781 466.458391 
L 463.670798 466.469037 
L 464.30589 466.253186 
L 465.099755 465.718257 
L 467.851821 463.578042 
L 468.645686 463.364841 
L 469.5454 463.37091 
L 470.76266 463.631697 
L 474.626137 464.609872 
L 475.6317 464.56584 
L 476.743111 464.283956 
L 479.018858 463.636236 
L 482.141394 463.125021 
L 483.623276 462.341079 
L 484.575914 461.981254 
L 485.263931 461.953912 
L 485.951947 462.15847 
L 486.798737 462.676233 
L 489.127408 464.277743 
L 489.868349 464.455458 
L 490.60929 464.410165 
L 491.561928 464.112652 
L 493.308432 463.529948 
L 494.155221 463.510559 
L 495.054935 463.733923 
L 498.28332 464.808829 
L 499.712277 464.772443 
L 501.247083 464.809428 
L 503.999149 465.006373 
L 505.216409 464.774469 
L 507.915551 464.168891 
L 509.450357 464.149855 
L 513.63138 464.377715 
L 516.859766 464.955173 
L 517.759479 464.767357 
L 518.870891 464.279584 
L 520.882016 463.351134 
L 521.887578 463.165665 
L 523.104838 463.189095 
L 525.43351 463.267281 
L 528.079727 463.204962 
L 531.308112 463.566345 
L 532.366599 463.245394 
L 533.795556 462.830717 
L 534.536497 462.853376 
L 535.277438 463.107973 
L 536.177152 463.683315 
L 538.664596 465.447421 
L 539.56431 465.736844 
L 540.516948 465.811444 
L 541.62836 465.672295 
L 542.739771 465.317878 
L 543.904106 464.701762 
L 546.709097 463.062249 
L 547.450038 462.98018 
L 548.138054 463.130086 
L 548.931919 463.555153 
L 550.043331 464.45405 
L 551.842758 465.91855 
L 552.689548 466.315576 
L 553.430489 466.414643 
L 554.118505 466.281466 
L 554.859446 465.910917 
L 555.812084 465.165112 
L 558.987545 462.426891 
L 559.728486 462.178734 
L 560.416502 462.182794 
L 561.157443 462.43043 
L 562.110082 463.01847 
L 564.174131 464.360161 
L 565.126769 464.668945 
L 566.132332 464.759193 
L 567.349592 464.642823 
L 568.6727 464.293155 
L 569.88996 463.738538 
L 572.32448 462.537992 
L 573.065421 462.479909 
L 573.806362 462.657335 
L 574.653152 463.117551 
L 575.97626 464.147381 
L 577.352293 465.135696 
L 578.199083 465.488414 
L 578.992948 465.578561 
L 579.786813 465.441369 
L 580.792376 465.017432 
L 583.491517 463.740936 
L 584.550004 463.577944 
L 585.820189 463.627573 
L 587.513768 463.931358 
L 589.313195 464.483404 
L 591.271396 465.058559 
L 592.276959 465.11825 
L 593.335446 464.954125 
L 594.9761 464.43101 
L 597.093074 463.797471 
L 598.25741 463.684459 
L 599.47467 463.805559 
L 601.591644 464.057065 
L 602.808904 463.923311 
L 604.925878 463.653559 
L 606.725305 463.751774 
L 608.101338 463.71346 
L 611.065102 463.471027 
L 612.335286 463.735212 
L 614.240562 464.120176 
L 615.66952 464.138209 
L 620.168089 464.041923 
L 624.19034 464.12102 
L 625.460524 464.457444 
L 628.477212 465.405732 
L 629.218152 465.305795 
L 630.012018 464.965607 
L 631.282202 464.117701 
L 632.446538 463.434399 
L 633.293327 463.196728 
L 634.140117 463.193543 
L 635.357377 463.441481 
L 640.914433 464.807385 
L 642.978482 464.886575 
L 644.513288 464.763925 
L 645.6247 464.448428 
L 646.84196 463.851387 
L 648.588463 462.992821 
L 649.435253 462.82627 
L 650.282042 462.882153 
L 651.499302 463.216668 
L 653.087033 463.615192 
L 654.568914 463.713114 
L 656.421266 463.875291 
L 659.067484 464.212881 
L 660.549365 464.064372 
L 662.084171 463.974832 
L 663.354356 464.15522 
L 665.735951 464.552516 
L 667.164909 464.501205 
L 671.875175 464.163236 
L 673.039511 464.373009 
L 674.891863 465.008859 
L 675.844501 465.184496 
L 676.638367 465.101317 
L 676.850064 465.0401 
L 676.850064 465.0401 
" clip-path="url(#p7cd8577f16)" style="fill: none; stroke: #ff0000; stroke-width: 1.5; stroke-linecap: square"/>
   </g>
   <g id="line2d_62">
    <path d="M 147.659527 91.376724 
L 147.871224 98.670596 
L 148.135846 112.120592 
L 148.506316 143.844143 
L 149.088484 216.498879 
L 151.258382 514.073193 
L 151.84055 555.615896 
L 152.263945 572.454503 
L 152.634415 579.260948 
L 152.846113 580.462705 
L 152.951961 580.436782 
L 153.163659 579.296864 
L 153.428281 576.324269 
L 153.851675 569.107025 
L 155.651103 530.611474 
L 158.985337 461.610376 
L 159.673353 452.341265 
L 160.202597 447.918737 
L 160.573067 446.291945 
L 160.837689 445.855791 
L 161.049386 445.944877 
L 161.366933 446.680645 
L 161.843252 448.962339 
L 162.531268 453.648334 
L 164.754091 469.78366 
L 165.547956 473.143855 
L 166.024275 474.217685 
L 166.553518 474.37869 
L 166.976913 473.730109 
L 167.612005 471.737125 
L 168.141249 469.449098 
L 170.575769 458.202468 
L 171.105012 456.994791 
L 171.528407 456.385093 
L 171.951802 456.085277 
L 172.269348 456.069838 
L 172.639818 456.183031 
L 173.75123 457.145191 
L 174.333397 458.295779 
L 175.180187 460.880336 
L 176.820842 466.390266 
L 177.244236 467.005702 
L 177.614707 467.132205 
L 177.826404 467.01999 
L 178.091026 466.708693 
L 178.408572 466.060683 
L 178.884891 464.642409 
L 180.366773 460.026583 
L 180.843092 459.6655 
L 181.001865 459.690508 
L 181.42526 460.134551 
L 181.79573 460.931111 
L 182.324974 462.549097 
L 183.753931 467.359752 
L 184.283174 468.380381 
L 184.706569 468.754837 
L 185.07704 468.754963 
L 185.712132 468.08735 
L 187.194013 465.716061 
L 187.88203 465.288734 
L 188.411273 465.446511 
L 189.46976 466.525739 
L 190.581172 467.701715 
L 191.53381 468.184932 
L 192.168902 468.062274 
L 192.856918 467.509301 
L 193.544935 466.633088 
L 194.762195 464.611662 
L 196.085304 462.513691 
L 197.037942 461.508629 
L 197.831807 461.124689 
L 200.636797 460.253846 
L 201.113116 460.450471 
L 201.906982 461.123659 
L 203.918107 463.06965 
L 204.817821 463.577671 
L 206.564324 464.371802 
L 207.411114 465.086683 
L 208.575449 466.193827 
L 209.31639 466.571558 
L 209.845634 466.617418 
L 210.427801 466.422425 
L 211.221667 465.894463 
L 212.96817 464.518092 
L 213.497413 464.367303 
L 214.079581 464.489976 
L 214.873446 464.975443 
L 216.408252 465.994185 
L 216.937496 466.046297 
L 217.466739 465.820627 
L 217.943059 465.38157 
L 218.842772 464.141492 
L 219.954184 462.658755 
L 220.536351 462.198584 
L 221.065595 462.067157 
L 221.753611 462.188405 
L 223.553039 462.82186 
L 224.241056 462.818432 
L 226.675576 462.661662 
L 227.257743 462.939208 
L 227.94576 463.48742 
L 229.480566 464.753236 
L 230.168582 464.981545 
L 230.75075 464.877262 
L 231.438767 464.413891 
L 233.291119 462.829906 
L 233.873287 462.820513 
L 234.455455 463.139673 
L 235.196395 463.871366 
L 236.572428 465.307258 
L 237.207521 465.575948 
L 237.736764 465.570934 
L 238.42478 465.333569 
L 239.694965 464.809854 
L 240.435906 464.784354 
L 241.070998 465.033432 
L 243.082123 466.074976 
L 243.770139 466.068498 
L 244.458156 465.847549 
L 245.199097 465.417289 
L 247.051449 464.30655 
L 247.739465 464.237543 
L 249.644742 464.303683 
L 250.22691 464.039964 
L 250.967851 463.429395 
L 251.81464 462.420977 
L 252.978976 461.040141 
L 253.508219 460.679007 
L 254.460857 461.317134 
L 255.625193 462.690569 
L 256.524907 463.604154 
L 257.265848 464.055616 
L 258.006789 464.205252 
L 259.012351 464.066083 
L 260.017914 464.029374 
L 260.758855 464.254695 
L 263.087526 465.151488 
L 263.828467 465.111013 
L 264.410634 464.915019 
L 266.262987 464.104378 
L 266.79223 464.169806 
L 267.480247 464.563706 
L 268.432885 465.47949 
L 269.438447 466.355401 
L 270.020615 466.536999 
L 270.44401 466.452265 
L 270.973253 466.074583 
L 271.66127 465.255046 
L 273.354849 463.174506 
L 273.937017 462.853198 
L 274.519185 462.802668 
L 275.260125 463.001024 
L 276.159839 463.265142 
L 276.90078 463.319587 
L 277.694645 463.166669 
L 280.076241 462.610689 
L 280.764257 462.833116 
L 282.034442 463.603551 
L 283.145853 464.197312 
L 283.728021 464.25883 
L 284.310189 464.094437 
L 284.945281 463.687692 
L 286.162541 462.857728 
L 286.691784 462.731204 
L 287.168103 462.819563 
L 287.750271 463.166651 
L 288.491212 463.874392 
L 289.761396 465.151219 
L 290.555261 465.540625 
L 291.349127 465.638365 
L 293.624874 465.700901 
L 295.635999 466.2061 
L 296.218166 466.079706 
L 296.853259 465.715602 
L 297.647124 465.003354 
L 299.764098 462.823402 
L 300.39919 462.577805 
L 300.928433 462.607874 
L 301.457677 462.789218 
L 302.992483 463.318191 
L 303.574651 463.239036 
L 304.209743 462.893922 
L 304.844835 462.326832 
L 306.220868 461.085414 
L 306.538414 461.035438 
L 307.014733 461.315936 
L 307.755674 462.102611 
L 309.713875 464.343072 
L 310.454816 464.762448 
L 311.089908 464.84865 
L 313.259806 464.848227 
L 314.477066 465.498245 
L 315.535553 466.02366 
L 316.170645 466.159111 
L 316.911586 466.065787 
L 317.440829 465.786763 
L 318.658089 464.752331 
L 319.557803 464.072843 
L 320.087047 463.93102 
L 320.722139 463.99562 
L 321.568928 464.358834 
L 322.309869 464.687721 
L 322.944961 464.757209 
L 323.42128 464.62066 
L 324.003448 464.228465 
L 325.961649 462.746976 
L 326.437968 462.740864 
L 326.967212 462.989954 
L 327.602304 463.505959 
L 328.660791 464.404825 
L 329.190034 464.607345 
L 329.719278 464.587383 
L 330.195597 464.382369 
L 331.042386 463.745649 
L 332.259646 462.865721 
L 332.841814 462.696895 
L 333.371057 462.772437 
L 334.111998 463.128624 
L 335.911426 463.994032 
L 336.546518 463.970057 
L 337.18161 463.728211 
L 339.24566 462.774566 
L 339.721979 462.893296 
L 340.357071 463.35013 
L 341.045088 464.060922 
L 342.262348 465.288637 
L 342.844515 465.559585 
L 343.426683 465.580484 
L 344.167624 465.363442 
L 345.226111 464.989273 
L 345.861203 464.952584 
L 346.496295 465.14377 
L 347.237236 465.659346 
L 348.348647 466.457333 
L 348.98374 466.662722 
L 349.565907 466.579991 
L 350.095151 466.31722 
L 350.836092 465.648059 
L 352.794293 463.691738 
L 353.37646 463.511003 
L 354.064477 463.571473 
L 355.44051 463.712808 
L 356.075602 463.397764 
L 356.710694 462.811196 
L 357.716257 461.520144 
L 358.615971 460.517286 
L 359.09229 460.246542 
L 359.409836 460.257928 
L 359.886155 460.763127 
L 360.997566 462.507478 
L 361.844356 463.73476 
L 362.532372 464.336501 
L 363.167464 464.520292 
L 363.749632 464.410302 
L 365.760757 463.621461 
L 366.342925 463.775568 
L 367.295563 464.415139 
L 368.883294 465.56328 
L 369.624235 465.810279 
L 370.365175 465.779952 
L 372.905544 465.158596 
L 373.646485 465.388543 
L 375.445913 466.072254 
L 375.922232 466.017208 
L 376.451475 465.731111 
L 377.139492 465.028613 
L 378.780146 463.139842 
L 379.415239 462.786934 
L 379.997406 462.78414 
L 380.685423 463.05482 
L 382.008532 463.67771 
L 382.590699 463.69009 
L 383.119943 463.512983 
L 383.860884 462.997763 
L 385.713236 461.603386 
L 386.189555 461.56989 
L 386.718798 461.769531 
L 387.406815 462.332729 
L 389.629637 464.478184 
L 390.105957 464.559699 
L 390.6352 464.434859 
L 391.587838 463.955677 
L 392.275855 463.719107 
L 392.805098 463.768707 
L 393.334342 464.012118 
L 395.398391 465.318386 
L 395.87471 465.265147 
L 396.351029 465.026157 
L 397.621214 464.027767 
L 398.203382 463.72817 
L 398.732625 463.688203 
L 399.15602 463.84295 
L 399.632339 464.244768 
L 400.479128 465.344757 
L 401.749313 466.947459 
L 402.331481 467.299654 
L 402.913648 467.361503 
L 403.389967 467.173934 
L 403.972135 466.694164 
L 404.818925 465.710221 
L 405.877412 464.538885 
L 406.618353 464.081988 
L 407.412218 463.872253 
L 408.470705 463.608695 
L 409.105797 463.20475 
L 409.740889 462.566615 
L 410.746452 461.219762 
L 411.646165 460.153784 
L 412.122485 459.837419 
L 412.387106 459.840594 
L 412.863425 460.229327 
L 413.816064 461.452038 
L 414.874551 462.734103 
L 415.562567 463.189686 
L 416.197659 463.341498 
L 416.991524 463.274651 
L 417.732465 463.212585 
L 418.420482 463.398787 
L 419.055574 463.876417 
L 419.849439 464.796459 
L 421.225472 466.294737 
L 421.860564 466.664326 
L 422.442732 466.742287 
L 422.971976 466.59031 
L 423.659992 466.094007 
L 425.194798 464.827902 
L 425.776966 464.703128 
L 426.412058 464.865872 
L 427.04715 465.265048 
L 428.423183 466.193477 
L 428.952427 466.265934 
L 429.48167 466.092623 
L 430.063838 465.649008 
L 431.863266 464.049951 
L 432.339585 463.89968 
L 432.974677 463.967774 
L 433.821466 464.299024 
L 434.562407 464.486552 
L 435.038726 464.417685 
L 435.620894 464.086635 
L 436.308911 463.358139 
L 438.584658 460.659052 
L 439.060977 460.551096 
L 439.537296 460.699945 
L 440.119464 461.170633 
L 441.019178 462.28585 
L 442.236438 463.828017 
L 442.87153 464.323542 
L 443.453697 464.501818 
L 444.247563 464.462974 
L 445.253125 464.404218 
L 445.888217 464.60147 
L 446.89378 465.205703 
L 447.793494 465.688026 
L 448.322737 465.736519 
L 448.799056 465.570635 
L 449.3283 465.187101 
L 451.498198 463.358203 
L 451.974517 463.346758 
L 452.450836 463.580808 
L 453.033004 464.143015 
L 454.19734 465.555981 
L 454.938281 466.257141 
L 455.573373 466.547925 
L 456.102616 466.568221 
L 456.737708 466.330057 
L 457.319876 465.939954 
L 459.383926 464.366373 
L 460.336564 464.090466 
L 461.289202 463.824296 
L 462.188916 463.265329 
L 462.929857 462.529733 
L 464.993906 460.264976 
L 465.311452 460.213965 
L 465.840696 460.578575 
L 466.581637 461.372016 
L 468.275216 463.227529 
L 469.069081 463.683009 
L 469.757097 463.839016 
L 471.344828 464.080071 
L 472.191617 464.6022 
L 474.202743 466.191107 
L 474.943683 466.45357 
L 475.737549 466.436937 
L 476.478489 466.135302 
L 478.43669 465.16902 
L 479.28348 465.152363 
L 481.188756 465.348141 
L 481.876773 465.133565 
L 482.564789 464.624896 
L 484.734687 462.642136 
L 485.211007 462.566996 
L 485.74025 462.733617 
L 486.322418 463.128643 
L 488.227694 464.510279 
L 488.809862 464.527501 
L 489.444954 464.256929 
L 490.344668 463.528431 
L 491.667777 462.3601 
L 492.19702 462.165694 
L 492.832112 462.167676 
L 493.573053 462.406084 
L 495.054935 462.982588 
L 495.690027 462.946549 
L 496.325119 462.699139 
L 497.383606 462.213948 
L 497.91285 462.20115 
L 498.442093 462.486261 
L 498.971337 463.094962 
L 499.712277 464.340909 
L 501.247083 466.937198 
L 501.776327 467.354024 
L 502.252646 467.45379 
L 502.728965 467.31716 
L 503.416982 466.837675 
L 505.163485 465.367175 
L 505.798577 465.114748 
L 506.592442 464.947419 
L 508.0214 464.730681 
L 510.508844 464.047723 
L 511.567331 464.021139 
L 512.361196 464.299121 
L 513.684305 464.856517 
L 514.266473 464.836411 
L 514.795716 464.600218 
L 515.32496 464.144471 
L 516.0659 463.168613 
L 518.024101 460.416956 
L 518.235799 460.358259 
L 518.712118 460.578887 
L 519.400134 461.277095 
L 521.199562 463.3309 
L 521.728805 463.548691 
L 522.258049 463.536473 
L 522.99899 463.170691 
L 524.322098 462.52223 
L 524.904266 462.551231 
L 525.43351 462.819644 
L 526.068602 463.339489 
L 527.338786 464.695598 
L 528.2385 465.539676 
L 528.873592 465.930684 
L 529.508684 466.074433 
L 530.461323 465.985819 
L 531.572734 465.80865 
L 532.419523 465.879374 
L 533.954329 466.044558 
L 534.589422 465.857104 
L 535.224514 465.410118 
L 536.230076 464.330237 
L 537.12979 463.479909 
L 537.764882 463.166144 
L 538.294126 463.18371 
L 538.770445 463.393112 
L 540.887419 464.611025 
L 541.469587 464.528324 
L 542.157603 464.123223 
L 543.004393 463.347962 
L 544.274577 462.296175 
L 544.750896 462.142423 
L 545.280139 462.204905 
L 545.862307 462.497402 
L 546.656172 463.168672 
L 547.873432 464.161305 
L 548.402676 464.310778 
L 548.931919 464.21797 
L 549.461163 463.900195 
L 551.048893 462.807414 
L 551.525212 462.807157 
L 552.001531 463.026268 
L 552.583699 463.527246 
L 554.5419 465.369735 
L 555.124068 465.475094 
L 555.812084 465.326154 
L 558.19368 464.576732 
L 558.934621 464.78858 
L 560.469427 465.309354 
L 561.316216 465.31962 
L 562.163006 465.132176 
L 564.65045 464.302643 
L 565.708937 464.505043 
L 566.926197 464.727361 
L 567.508365 464.543937 
L 568.143457 464.086569 
L 568.884398 463.211138 
L 571.054296 460.352775 
L 572.006934 460.878797 
L 574.335605 462.814956 
L 575.076546 462.966026 
L 575.97626 462.862619 
L 576.981823 462.841712 
L 577.563991 463.064688 
L 578.199083 463.552505 
L 581.109922 466.205913 
L 581.797938 466.429009 
L 582.43303 466.390461 
L 583.438593 466.024082 
L 584.444156 465.600375 
L 585.926037 465.43671 
L 587.090373 465.361341 
L 587.725465 465.155183 
L 588.413482 464.732015 
L 590.159985 463.433686 
L 590.848001 463.278056 
L 591.377245 463.38678 
L 592.224034 463.801632 
L 593.176673 464.22752 
L 593.758841 464.240348 
L 594.288084 464.043302 
L 594.870252 463.619719 
L 595.981663 462.485562 
L 596.934301 461.617061 
L 597.463545 461.377335 
L 597.939864 461.400786 
L 598.522032 461.700149 
L 599.262973 462.349264 
L 600.639006 463.624277 
L 601.379946 463.881877 
L 601.962114 463.811268 
L 602.650131 463.506325 
L 603.549845 463.187585 
L 604.132012 463.248376 
L 604.661256 463.569656 
L 605.402197 464.353756 
L 607.095776 466.299406 
L 607.572095 466.51165 
L 608.101338 466.519292 
L 608.789355 466.271295 
L 609.900766 465.754041 
L 610.588783 465.649785 
L 611.276799 465.811458 
L 613.235 466.557894 
L 613.764243 466.460268 
L 614.346411 466.141748 
L 615.140276 465.429223 
L 617.098477 463.477715 
L 617.627721 463.222999 
L 618.262813 463.136015 
L 620.115165 463.045455 
L 620.697333 462.670328 
L 621.438274 461.891397 
L 623.661096 459.34042 
L 624.031567 459.329948 
L 624.507886 459.815232 
L 625.248826 461.021022 
L 626.99533 464.069187 
L 627.683346 464.738799 
L 628.21259 464.977311 
L 628.794758 464.985798 
L 630.700034 464.794633 
L 631.493899 465.058627 
L 632.869932 465.570465 
L 633.610873 465.626668 
L 634.245965 465.497841 
L 635.198604 465.026774 
L 636.151242 464.519779 
L 636.839258 464.340445 
L 637.315577 464.420183 
L 637.897745 464.706223 
L 640.279341 466.223663 
L 640.75566 466.161991 
L 641.231979 465.882482 
L 641.867071 465.226096 
L 643.507726 463.391385 
L 644.089894 463.095488 
L 644.724986 463.076147 
L 645.730548 463.391537 
L 646.418565 463.536369 
L 647.053657 463.44734 
L 647.688749 463.132754 
L 650.123269 461.649385 
L 650.599588 461.679333 
L 651.181756 461.936833 
L 652.08147 462.569048 
L 653.351654 463.381298 
L 653.986746 463.516795 
L 654.621839 463.432959 
L 656.685888 462.885992 
L 657.268056 463.199541 
L 657.956072 463.920127 
L 659.861349 466.202064 
L 660.443517 466.420743 
L 660.919836 466.366123 
L 661.502004 466.081905 
L 663.354356 465.047554 
L 663.830675 465.063458 
L 664.359918 465.30923 
L 665.577178 466.261594 
L 666.423968 466.787183 
L 666.953211 466.877078 
L 667.641228 466.719443 
L 668.382169 466.18016 
L 669.387731 465.112711 
L 670.604991 463.89963 
L 671.345932 463.493097 
L 672.351495 463.187751 
L 673.14536 462.847563 
L 673.939225 462.263968 
L 674.997712 461.119494 
L 676.056199 460.019608 
L 676.585442 459.726636 
L 676.850064 459.686182 
L 676.850064 459.686182 
" clip-path="url(#p7cd8577f16)" style="fill: none; stroke: #0000ff; stroke-width: 1.5; stroke-linecap: square"/>
   </g>
   <g id="patch_3">
    <path d="M 121.2 640.3905 
L 121.2 39.1875 
" style="fill: none; stroke: #000000; stroke-width: 0.8; stroke-linejoin: miter; stroke-linecap: square"/>
   </g>
   <g id="patch_4">
    <path d="M 703.309591 640.3905 
L 703.309591 39.1875 
" style="fill: none; stroke: #000000; stroke-width: 0.8; stroke-linejoin: miter; stroke-linecap: square"/>
   </g>
   <g id="patch_5">
    <path d="M 121.2 640.3905 
L 703.309591 640.3905 
" style="fill: none; stroke: #000000; stroke-width: 0.8; stroke-linejoin: miter; stroke-linecap: square"/>
   </g>
   <g id="patch_6">
    <path d="M 121.2 39.1875 
L 703.309591 39.1875 
" style="fill: none; stroke: #000000; stroke-width: 0.8; stroke-linejoin: miter; stroke-linecap: square"/>
   </g>
   <g id="legend_1">
    <g id="patch_7">
     <path d="M 506.298653 149.11875 
L 682.309591 149.11875 
Q 688.309591 149.11875 688.309591 143.11875 
L 688.309591 60.1875 
Q 688.309591 54.1875 682.309591 54.1875 
L 506.298653 54.1875 
Q 500.298653 54.1875 500.298653 60.1875 
L 500.298653 143.11875 
Q 500.298653 149.11875 506.298653 149.11875 
z
" style="fill: #ffffff; opacity: 0.8; stroke: #cccccc; stroke-linejoin: miter"/>
    </g>
    <g id="line2d_63">
     <path d="M 512.298653 77.428125 
L 542.298653 77.428125 
L 572.298653 77.428125 
" style="fill: none; stroke: #ff0000; stroke-width: 1.5; stroke-linecap: square"/>
    </g>
    <g id="text_18">
     <!-- MD -->
     <g transform="translate(596.298653 87.928125) scale(0.3 -0.3)">
      <defs>
       <path id="LiberationSans-4d" d="M 4269 0 
L 4269 2938 
Q 4269 3425 4297 3875 
Q 4144 3316 4022 3000 
L 2884 0 
L 2466 0 
L 1313 3000 
L 1138 3531 
L 1034 3875 
L 1044 3528 
L 1056 2938 
L 1056 0 
L 525 0 
L 525 4403 
L 1309 4403 
L 2481 1350 
Q 2544 1166 2601 955 
Q 2659 744 2678 650 
Q 2703 775 2783 1029 
Q 2863 1284 2891 1350 
L 4041 4403 
L 4806 4403 
L 4806 0 
L 4269 0 
z
" transform="scale(0.015625)"/>
       <path id="LiberationSans-44" d="M 4316 2247 
Q 4316 1566 4050 1055 
Q 3784 544 3296 272 
Q 2809 0 2172 0 
L 525 0 
L 525 4403 
L 1981 4403 
Q 3100 4403 3708 3842 
Q 4316 3281 4316 2247 
z
M 3716 2247 
Q 3716 3066 3267 3495 
Q 2819 3925 1969 3925 
L 1122 3925 
L 1122 478 
L 2103 478 
Q 2588 478 2955 690 
Q 3322 903 3519 1303 
Q 3716 1703 3716 2247 
z
" transform="scale(0.015625)"/>
      </defs>
      <use xlink:href="#LiberationSans-4d"/>
      <use xlink:href="#LiberationSans-44" x="83.300781"/>
     </g>
    </g>
    <g id="line2d_64">
     <path d="M 512.298653 120.39375 
L 542.298653 120.39375 
L 572.298653 120.39375 
" style="fill: none; stroke: #0000ff; stroke-width: 1.5; stroke-linecap: square"/>
    </g>
    <g id="text_19">
     <!-- GANs -->
     <g transform="translate(596.298653 130.89375) scale(0.3 -0.3)">
      <defs>
       <path id="LiberationSans-47" d="M 322 2222 
Q 322 3294 897 3881 
Q 1472 4469 2513 4469 
Q 3244 4469 3700 4222 
Q 4156 3975 4403 3431 
L 3834 3263 
Q 3647 3638 3317 3809 
Q 2988 3981 2497 3981 
Q 1734 3981 1331 3520 
Q 928 3059 928 2222 
Q 928 1388 1356 905 
Q 1784 422 2541 422 
Q 2972 422 3345 553 
Q 3719 684 3950 909 
L 3950 1703 
L 2634 1703 
L 2634 2203 
L 4500 2203 
L 4500 684 
Q 4150 328 3642 132 
Q 3134 -63 2541 -63 
Q 1850 -63 1350 212 
Q 850 488 586 1005 
Q 322 1522 322 2222 
z
" transform="scale(0.015625)"/>
       <path id="LiberationSans-4e" d="M 3381 0 
L 1025 3750 
L 1041 3447 
L 1056 2925 
L 1056 0 
L 525 0 
L 525 4403 
L 1219 4403 
L 3600 628 
Q 3563 1241 3563 1516 
L 3563 4403 
L 4100 4403 
L 4100 0 
L 3381 0 
z
" transform="scale(0.015625)"/>
      </defs>
      <use xlink:href="#LiberationSans-47"/>
      <use xlink:href="#LiberationSans-41" x="77.783203"/>
      <use xlink:href="#LiberationSans-4e" x="144.482422"/>
      <use xlink:href="#LiberationSans-73" x="216.699219"/>
     </g>
    </g>
   </g>
  </g>
 </g>
 <defs>
  <clipPath id="p7cd8577f16">
   <rect x="121.2" y="39.1875" width="582.109591" height="601.203"/>
  </clipPath>
 </defs>
</svg>
