<?xml version="1.0" encoding="utf-8" standalone="no"?>
<!DOCTYPE svg PUBLIC "-//W3C//DTD SVG 1.1//EN"
  "http://www.w3.org/Graphics/SVG/1.1/DTD/svg11.dtd">
<svg xmlns:xlink="http://www.w3.org/1999/xlink" width="709.854pt" height="711.105187pt" viewBox="0 0 709.854 711.105187" xmlns="http://www.w3.org/2000/svg" version="1.1">
 <metadata>
  <rdf:RDF xmlns:dc="http://purl.org/dc/elements/1.1/" xmlns:cc="http://creativecommons.org/ns#" xmlns:rdf="http://www.w3.org/1999/02/22-rdf-syntax-ns#">
   <cc:Work>
    <dc:type rdf:resource="http://purl.org/dc/dcmitype/StillImage"/>
    <dc:date>2025-02-05T17:29:10.726691</dc:date>
    <dc:format>image/svg+xml</dc:format>
    <dc:creator>
     <cc:Agent>
      <dc:title>Matplotlib v3.9.3, https://matplotlib.org/</dc:title>
     </cc:Agent>
    </dc:creator>
   </cc:Work>
  </rdf:RDF>
 </metadata>
 <defs>
  <style type="text/css">*{stroke-linejoin: round; stroke-linecap: butt}</style>
 </defs>
 <g id="figure_1">
  <g id="patch_1">
   <path d="M 0 711.105187 
L 709.854 711.105187 
L 709.854 0 
L 0 0 
z
" style="fill: #ffffff"/>
  </g>
  <g id="axes_1">
   <g id="patch_2">
    <path d="M 60.12 643.2705 
L 702.654 643.2705 
L 702.654 39.1875 
L 60.12 39.1875 
z
" style="fill: #ffffff"/>
   </g>
   <g id="matplotlib.axis_1">
    <g id="xtick_1">
     <g id="line2d_1">
      <defs>
       <path id="m6e5be7845a" d="M 0 0 
L 0 -3.5 
" style="stroke: #000000; stroke-width: 0.8"/>
      </defs>
      <g>
       <use xlink:href="#m6e5be7845a" x="89.209231" y="643.2705" style="stroke: #000000; stroke-width: 0.8"/>
      </g>
     </g>
     <g id="text_1">
      <!-- 0 -->
      <g transform="translate(81.701966 666.337062) scale(0.27 -0.27)">
       <defs>
        <path id="LiberationSans-30" d="M 3309 2203 
Q 3309 1100 2920 518 
Q 2531 -63 1772 -63 
Q 1013 -63 631 515 
Q 250 1094 250 2203 
Q 250 3338 620 3903 
Q 991 4469 1791 4469 
Q 2569 4469 2939 3897 
Q 3309 3325 3309 2203 
z
M 2738 2203 
Q 2738 3156 2517 3584 
Q 2297 4013 1791 4013 
Q 1272 4013 1045 3591 
Q 819 3169 819 2203 
Q 819 1266 1048 831 
Q 1278 397 1778 397 
Q 2275 397 2506 840 
Q 2738 1284 2738 2203 
z
" transform="scale(0.015625)"/>
       </defs>
       <use xlink:href="#LiberationSans-30"/>
      </g>
     </g>
    </g>
    <g id="xtick_2">
     <g id="line2d_2">
      <g>
       <use xlink:href="#m6e5be7845a" x="206.068653" y="643.2705" style="stroke: #000000; stroke-width: 0.8"/>
      </g>
     </g>
     <g id="text_2">
      <!-- 2 -->
      <g transform="translate(198.561387 666.337062) scale(0.27 -0.27)">
       <defs>
        <path id="LiberationSans-32" d="M 322 0 
L 322 397 
Q 481 763 711 1042 
Q 941 1322 1194 1548 
Q 1447 1775 1695 1969 
Q 1944 2163 2144 2356 
Q 2344 2550 2467 2762 
Q 2591 2975 2591 3244 
Q 2591 3606 2378 3806 
Q 2166 4006 1788 4006 
Q 1428 4006 1195 3811 
Q 963 3616 922 3263 
L 347 3316 
Q 409 3844 795 4156 
Q 1181 4469 1788 4469 
Q 2453 4469 2811 4155 
Q 3169 3841 3169 3263 
Q 3169 3006 3051 2753 
Q 2934 2500 2703 2247 
Q 2472 1994 1819 1463 
Q 1459 1169 1246 933 
Q 1034 697 941 478 
L 3238 478 
L 3238 0 
L 322 0 
z
" transform="scale(0.015625)"/>
       </defs>
       <use xlink:href="#LiberationSans-32"/>
      </g>
     </g>
    </g>
    <g id="xtick_3">
     <g id="line2d_3">
      <g>
       <use xlink:href="#m6e5be7845a" x="322.928074" y="643.2705" style="stroke: #000000; stroke-width: 0.8"/>
      </g>
     </g>
     <g id="text_3">
      <!-- 4 -->
      <g transform="translate(315.420809 666.337062) scale(0.27 -0.27)">
       <defs>
        <path id="LiberationSans-34" d="M 2753 997 
L 2753 0 
L 2222 0 
L 2222 997 
L 147 997 
L 147 1434 
L 2163 4403 
L 2753 4403 
L 2753 1441 
L 3372 1441 
L 3372 997 
L 2753 997 
z
M 2222 3769 
Q 2216 3750 2134 3603 
Q 2053 3456 2013 3397 
L 884 1734 
L 716 1503 
L 666 1441 
L 2222 1441 
L 2222 3769 
z
" transform="scale(0.015625)"/>
       </defs>
       <use xlink:href="#LiberationSans-34"/>
      </g>
     </g>
    </g>
    <g id="xtick_4">
     <g id="line2d_4">
      <g>
       <use xlink:href="#m6e5be7845a" x="439.787496" y="643.2705" style="stroke: #000000; stroke-width: 0.8"/>
      </g>
     </g>
     <g id="text_4">
      <!-- 6 -->
      <g transform="translate(432.28023 666.337062) scale(0.27 -0.27)">
       <defs>
        <path id="LiberationSans-36" d="M 3278 1441 
Q 3278 744 2900 340 
Q 2522 -63 1856 -63 
Q 1113 -63 719 490 
Q 325 1044 325 2100 
Q 325 3244 734 3856 
Q 1144 4469 1900 4469 
Q 2897 4469 3156 3572 
L 2619 3475 
Q 2453 4013 1894 4013 
Q 1413 4013 1148 3564 
Q 884 3116 884 2266 
Q 1038 2550 1316 2698 
Q 1594 2847 1953 2847 
Q 2563 2847 2920 2465 
Q 3278 2084 3278 1441 
z
M 2706 1416 
Q 2706 1894 2472 2153 
Q 2238 2413 1819 2413 
Q 1425 2413 1183 2183 
Q 941 1953 941 1550 
Q 941 1041 1192 716 
Q 1444 391 1838 391 
Q 2244 391 2475 664 
Q 2706 938 2706 1416 
z
" transform="scale(0.015625)"/>
       </defs>
       <use xlink:href="#LiberationSans-36"/>
      </g>
     </g>
    </g>
    <g id="xtick_5">
     <g id="line2d_5">
      <g>
       <use xlink:href="#m6e5be7845a" x="556.646917" y="643.2705" style="stroke: #000000; stroke-width: 0.8"/>
      </g>
     </g>
     <g id="text_5">
      <!-- 8 -->
      <g transform="translate(549.139652 666.337062) scale(0.27 -0.27)">
       <defs>
        <path id="LiberationSans-38" d="M 3281 1228 
Q 3281 619 2893 278 
Q 2506 -63 1781 -63 
Q 1075 -63 676 271 
Q 278 606 278 1222 
Q 278 1653 525 1947 
Q 772 2241 1156 2303 
L 1156 2316 
Q 797 2400 589 2681 
Q 381 2963 381 3341 
Q 381 3844 757 4156 
Q 1134 4469 1769 4469 
Q 2419 4469 2795 4162 
Q 3172 3856 3172 3334 
Q 3172 2956 2962 2675 
Q 2753 2394 2391 2322 
L 2391 2309 
Q 2813 2241 3047 1952 
Q 3281 1663 3281 1228 
z
M 2588 3303 
Q 2588 4050 1769 4050 
Q 1372 4050 1164 3862 
Q 956 3675 956 3303 
Q 956 2925 1170 2726 
Q 1384 2528 1775 2528 
Q 2172 2528 2380 2711 
Q 2588 2894 2588 3303 
z
M 2697 1281 
Q 2697 1691 2453 1898 
Q 2209 2106 1769 2106 
Q 1341 2106 1100 1882 
Q 859 1659 859 1269 
Q 859 359 1788 359 
Q 2247 359 2472 579 
Q 2697 800 2697 1281 
z
" transform="scale(0.015625)"/>
       </defs>
       <use xlink:href="#LiberationSans-38"/>
      </g>
     </g>
    </g>
    <g id="xtick_6">
     <g id="line2d_6">
      <g>
       <use xlink:href="#m6e5be7845a" x="673.506339" y="643.2705" style="stroke: #000000; stroke-width: 0.8"/>
      </g>
     </g>
     <g id="text_6">
      <!-- 10 -->
      <g transform="translate(658.491808 666.337062) scale(0.27 -0.27)">
       <defs>
        <path id="LiberationSans-31" d="M 488 0 
L 488 478 
L 1609 478 
L 1609 3866 
L 616 3156 
L 616 3688 
L 1656 4403 
L 2175 4403 
L 2175 478 
L 3247 478 
L 3247 0 
L 488 0 
z
" transform="scale(0.015625)"/>
       </defs>
       <use xlink:href="#LiberationSans-31"/>
       <use xlink:href="#LiberationSans-30" x="55.615234"/>
      </g>
     </g>
    </g>
    <g id="xtick_7">
     <g id="line2d_7">
      <defs>
       <path id="mc9c5ea59a2" d="M 0 0 
L 0 -2 
" style="stroke: #000000; stroke-width: 0.6"/>
      </defs>
      <g>
       <use xlink:href="#mc9c5ea59a2" x="118.424087" y="643.2705" style="stroke: #000000; stroke-width: 0.6"/>
      </g>
     </g>
    </g>
    <g id="xtick_8">
     <g id="line2d_8">
      <g>
       <use xlink:href="#mc9c5ea59a2" x="147.638942" y="643.2705" style="stroke: #000000; stroke-width: 0.6"/>
      </g>
     </g>
    </g>
    <g id="xtick_9">
     <g id="line2d_9">
      <g>
       <use xlink:href="#mc9c5ea59a2" x="176.853798" y="643.2705" style="stroke: #000000; stroke-width: 0.6"/>
      </g>
     </g>
    </g>
    <g id="xtick_10">
     <g id="line2d_10">
      <g>
       <use xlink:href="#mc9c5ea59a2" x="235.283508" y="643.2705" style="stroke: #000000; stroke-width: 0.6"/>
      </g>
     </g>
    </g>
    <g id="xtick_11">
     <g id="line2d_11">
      <g>
       <use xlink:href="#mc9c5ea59a2" x="264.498364" y="643.2705" style="stroke: #000000; stroke-width: 0.6"/>
      </g>
     </g>
    </g>
    <g id="xtick_12">
     <g id="line2d_12">
      <g>
       <use xlink:href="#mc9c5ea59a2" x="293.713219" y="643.2705" style="stroke: #000000; stroke-width: 0.6"/>
      </g>
     </g>
    </g>
    <g id="xtick_13">
     <g id="line2d_13">
      <g>
       <use xlink:href="#mc9c5ea59a2" x="352.14293" y="643.2705" style="stroke: #000000; stroke-width: 0.6"/>
      </g>
     </g>
    </g>
    <g id="xtick_14">
     <g id="line2d_14">
      <g>
       <use xlink:href="#mc9c5ea59a2" x="381.357785" y="643.2705" style="stroke: #000000; stroke-width: 0.6"/>
      </g>
     </g>
    </g>
    <g id="xtick_15">
     <g id="line2d_15">
      <g>
       <use xlink:href="#mc9c5ea59a2" x="410.572641" y="643.2705" style="stroke: #000000; stroke-width: 0.6"/>
      </g>
     </g>
    </g>
    <g id="xtick_16">
     <g id="line2d_16">
      <g>
       <use xlink:href="#mc9c5ea59a2" x="469.002351" y="643.2705" style="stroke: #000000; stroke-width: 0.6"/>
      </g>
     </g>
    </g>
    <g id="xtick_17">
     <g id="line2d_17">
      <g>
       <use xlink:href="#mc9c5ea59a2" x="498.217207" y="643.2705" style="stroke: #000000; stroke-width: 0.6"/>
      </g>
     </g>
    </g>
    <g id="xtick_18">
     <g id="line2d_18">
      <g>
       <use xlink:href="#mc9c5ea59a2" x="527.432062" y="643.2705" style="stroke: #000000; stroke-width: 0.6"/>
      </g>
     </g>
    </g>
    <g id="xtick_19">
     <g id="line2d_19">
      <g>
       <use xlink:href="#mc9c5ea59a2" x="585.861773" y="643.2705" style="stroke: #000000; stroke-width: 0.6"/>
      </g>
     </g>
    </g>
    <g id="xtick_20">
     <g id="line2d_20">
      <g>
       <use xlink:href="#mc9c5ea59a2" x="615.076628" y="643.2705" style="stroke: #000000; stroke-width: 0.6"/>
      </g>
     </g>
    </g>
    <g id="xtick_21">
     <g id="line2d_21">
      <g>
       <use xlink:href="#mc9c5ea59a2" x="644.291483" y="643.2705" style="stroke: #000000; stroke-width: 0.6"/>
      </g>
     </g>
    </g>
    <g id="text_7">
     <!-- Time ps -->
     <g transform="translate(328.610438 697.680187) scale(0.3 -0.3)">
      <defs>
       <path id="LiberationSans-54" d="M 2250 3916 
L 2250 0 
L 1656 0 
L 1656 3916 
L 144 3916 
L 144 4403 
L 3763 4403 
L 3763 3916 
L 2250 3916 
z
" transform="scale(0.015625)"/>
       <path id="LiberationSans-69" d="M 428 4100 
L 428 4638 
L 991 4638 
L 991 4100 
L 428 4100 
z
M 428 0 
L 428 3381 
L 991 3381 
L 991 0 
L 428 0 
z
" transform="scale(0.015625)"/>
       <path id="LiberationSans-6d" d="M 2400 0 
L 2400 2144 
Q 2400 2634 2265 2821 
Q 2131 3009 1781 3009 
Q 1422 3009 1212 2734 
Q 1003 2459 1003 1959 
L 1003 0 
L 444 0 
L 444 2659 
Q 444 3250 425 3381 
L 956 3381 
Q 959 3366 962 3297 
Q 966 3228 970 3139 
Q 975 3050 981 2803 
L 991 2803 
Q 1172 3163 1406 3303 
Q 1641 3444 1978 3444 
Q 2363 3444 2586 3291 
Q 2809 3138 2897 2803 
L 2906 2803 
Q 3081 3144 3329 3294 
Q 3578 3444 3931 3444 
Q 4444 3444 4676 3166 
Q 4909 2888 4909 2253 
L 4909 0 
L 4353 0 
L 4353 2144 
Q 4353 2634 4218 2821 
Q 4084 3009 3734 3009 
Q 3366 3009 3161 2736 
Q 2956 2463 2956 1959 
L 2956 0 
L 2400 0 
z
" transform="scale(0.015625)"/>
       <path id="LiberationSans-65" d="M 863 1572 
Q 863 991 1103 675 
Q 1344 359 1806 359 
Q 2172 359 2392 506 
Q 2613 653 2691 878 
L 3184 738 
Q 2881 -63 1806 -63 
Q 1056 -63 664 384 
Q 272 831 272 1713 
Q 272 2550 664 2997 
Q 1056 3444 1784 3444 
Q 3275 3444 3275 1647 
L 3275 1572 
L 863 1572 
z
M 2694 2003 
Q 2647 2538 2422 2783 
Q 2197 3028 1775 3028 
Q 1366 3028 1127 2754 
Q 888 2481 869 2003 
L 2694 2003 
z
" transform="scale(0.015625)"/>
       <path id="LiberationSans-20" transform="scale(0.015625)"/>
       <path id="LiberationSans-70" d="M 3291 1706 
Q 3291 -63 2047 -63 
Q 1266 -63 997 525 
L 981 525 
Q 994 500 994 -6 
L 994 -1328 
L 431 -1328 
L 431 2691 
Q 431 3213 413 3381 
L 956 3381 
Q 959 3369 965 3292 
Q 972 3216 980 3056 
Q 988 2897 988 2838 
L 1000 2838 
Q 1150 3150 1397 3295 
Q 1644 3441 2047 3441 
Q 2672 3441 2981 3022 
Q 3291 2603 3291 1706 
z
M 2700 1694 
Q 2700 2400 2509 2703 
Q 2319 3006 1903 3006 
Q 1569 3006 1380 2865 
Q 1191 2725 1092 2426 
Q 994 2128 994 1650 
Q 994 984 1206 668 
Q 1419 353 1897 353 
Q 2316 353 2508 661 
Q 2700 969 2700 1694 
z
" transform="scale(0.015625)"/>
       <path id="LiberationSans-73" d="M 2969 934 
Q 2969 456 2608 196 
Q 2247 -63 1597 -63 
Q 966 -63 623 145 
Q 281 353 178 794 
L 675 891 
Q 747 619 972 492 
Q 1197 366 1597 366 
Q 2025 366 2223 497 
Q 2422 628 2422 891 
Q 2422 1091 2284 1216 
Q 2147 1341 1841 1422 
L 1438 1528 
Q 953 1653 748 1773 
Q 544 1894 428 2066 
Q 313 2238 313 2488 
Q 313 2950 642 3192 
Q 972 3434 1603 3434 
Q 2163 3434 2492 3237 
Q 2822 3041 2909 2606 
L 2403 2544 
Q 2356 2769 2151 2889 
Q 1947 3009 1603 3009 
Q 1222 3009 1040 2893 
Q 859 2778 859 2544 
Q 859 2400 934 2306 
Q 1009 2213 1156 2147 
Q 1303 2081 1775 1966 
Q 2222 1853 2419 1758 
Q 2616 1663 2730 1547 
Q 2844 1431 2906 1279 
Q 2969 1128 2969 934 
z
" transform="scale(0.015625)"/>
      </defs>
      <use xlink:href="#LiberationSans-54"/>
      <use xlink:href="#LiberationSans-69" x="57.333984"/>
      <use xlink:href="#LiberationSans-6d" x="79.550781"/>
      <use xlink:href="#LiberationSans-65" x="162.851562"/>
      <use xlink:href="#LiberationSans-20" x="218.466797"/>
      <use xlink:href="#LiberationSans-70" x="246.25"/>
      <use xlink:href="#LiberationSans-73" x="301.865234"/>
     </g>
    </g>
   </g>
   <g id="matplotlib.axis_2">
    <g id="ytick_1">
     <g id="line2d_22">
      <defs>
       <path id="mae49f9eba1" d="M 0 0 
L 3.5 0 
" style="stroke: #000000; stroke-width: 0.8"/>
      </defs>
      <g>
       <use xlink:href="#mae49f9eba1" x="60.12" y="632.431554" style="stroke: #000000; stroke-width: 0.8"/>
      </g>
     </g>
     <g id="text_8">
      <!-- $\mathdefault{0}$ -->
      <g transform="translate(41.5 642.214835) scale(0.27 -0.27)">
       <use xlink:href="#LiberationSans-30" transform="translate(0 0.171875)"/>
      </g>
     </g>
    </g>
    <g id="ytick_2">
     <g id="line2d_23">
      <g>
       <use xlink:href="#mae49f9eba1" x="60.12" y="508.366231" style="stroke: #000000; stroke-width: 0.8"/>
      </g>
     </g>
     <g id="text_9">
      <!-- $\mathdefault{1}$ -->
      <g transform="translate(41.5 518.149512) scale(0.27 -0.27)">
       <use xlink:href="#LiberationSans-31" transform="translate(0 0.203125)"/>
      </g>
     </g>
    </g>
    <g id="ytick_3">
     <g id="line2d_24">
      <g>
       <use xlink:href="#mae49f9eba1" x="60.12" y="384.300908" style="stroke: #000000; stroke-width: 0.8"/>
      </g>
     </g>
     <g id="text_10">
      <!-- $\mathdefault{2}$ -->
      <g transform="translate(41.5 394.08419) scale(0.27 -0.27)">
       <use xlink:href="#LiberationSans-32" transform="translate(0 0.171875)"/>
      </g>
     </g>
    </g>
    <g id="ytick_4">
     <g id="line2d_25">
      <g>
       <use xlink:href="#mae49f9eba1" x="60.12" y="260.235586" style="stroke: #000000; stroke-width: 0.8"/>
      </g>
     </g>
     <g id="text_11">
      <!-- $\mathdefault{3}$ -->
      <g transform="translate(41.5 270.018867) scale(0.27 -0.27)">
       <defs>
        <path id="LiberationSans-33" d="M 3278 1216 
Q 3278 606 2890 271 
Q 2503 -63 1784 -63 
Q 1116 -63 717 239 
Q 319 541 244 1131 
L 825 1184 
Q 938 403 1784 403 
Q 2209 403 2451 612 
Q 2694 822 2694 1234 
Q 2694 1594 2417 1795 
Q 2141 1997 1619 1997 
L 1300 1997 
L 1300 2484 
L 1606 2484 
Q 2069 2484 2323 2686 
Q 2578 2888 2578 3244 
Q 2578 3597 2370 3801 
Q 2163 4006 1753 4006 
Q 1381 4006 1151 3815 
Q 922 3625 884 3278 
L 319 3322 
Q 381 3863 767 4166 
Q 1153 4469 1759 4469 
Q 2422 4469 2789 4161 
Q 3156 3853 3156 3303 
Q 3156 2881 2920 2617 
Q 2684 2353 2234 2259 
L 2234 2247 
Q 2728 2194 3003 1916 
Q 3278 1638 3278 1216 
z
" transform="scale(0.015625)"/>
       </defs>
       <use xlink:href="#LiberationSans-33" transform="translate(0 0.171875)"/>
      </g>
     </g>
    </g>
    <g id="ytick_5">
     <g id="line2d_26">
      <g>
       <use xlink:href="#mae49f9eba1" x="60.12" y="136.170263" style="stroke: #000000; stroke-width: 0.8"/>
      </g>
     </g>
     <g id="text_12">
      <!-- $\mathdefault{4}$ -->
      <g transform="translate(41.5 145.953544) scale(0.27 -0.27)">
       <use xlink:href="#LiberationSans-34" transform="translate(0 0.203125)"/>
      </g>
     </g>
    </g>
    <g id="ytick_6">
     <g id="line2d_27">
      <defs>
       <path id="me714900f97" d="M 0 0 
L 2 0 
" style="stroke: #000000; stroke-width: 0.6"/>
      </defs>
      <g>
       <use xlink:href="#me714900f97" x="60.12" y="607.618489" style="stroke: #000000; stroke-width: 0.6"/>
      </g>
     </g>
    </g>
    <g id="ytick_7">
     <g id="line2d_28">
      <g>
       <use xlink:href="#me714900f97" x="60.12" y="582.805425" style="stroke: #000000; stroke-width: 0.6"/>
      </g>
     </g>
    </g>
    <g id="ytick_8">
     <g id="line2d_29">
      <g>
       <use xlink:href="#me714900f97" x="60.12" y="557.99236" style="stroke: #000000; stroke-width: 0.6"/>
      </g>
     </g>
    </g>
    <g id="ytick_9">
     <g id="line2d_30">
      <g>
       <use xlink:href="#me714900f97" x="60.12" y="533.179296" style="stroke: #000000; stroke-width: 0.6"/>
      </g>
     </g>
    </g>
    <g id="ytick_10">
     <g id="line2d_31">
      <g>
       <use xlink:href="#me714900f97" x="60.12" y="483.553167" style="stroke: #000000; stroke-width: 0.6"/>
      </g>
     </g>
    </g>
    <g id="ytick_11">
     <g id="line2d_32">
      <g>
       <use xlink:href="#me714900f97" x="60.12" y="458.740102" style="stroke: #000000; stroke-width: 0.6"/>
      </g>
     </g>
    </g>
    <g id="ytick_12">
     <g id="line2d_33">
      <g>
       <use xlink:href="#me714900f97" x="60.12" y="433.927038" style="stroke: #000000; stroke-width: 0.6"/>
      </g>
     </g>
    </g>
    <g id="ytick_13">
     <g id="line2d_34">
      <g>
       <use xlink:href="#me714900f97" x="60.12" y="409.113973" style="stroke: #000000; stroke-width: 0.6"/>
      </g>
     </g>
    </g>
    <g id="ytick_14">
     <g id="line2d_35">
      <g>
       <use xlink:href="#me714900f97" x="60.12" y="359.487844" style="stroke: #000000; stroke-width: 0.6"/>
      </g>
     </g>
    </g>
    <g id="ytick_15">
     <g id="line2d_36">
      <g>
       <use xlink:href="#me714900f97" x="60.12" y="334.674779" style="stroke: #000000; stroke-width: 0.6"/>
      </g>
     </g>
    </g>
    <g id="ytick_16">
     <g id="line2d_37">
      <g>
       <use xlink:href="#me714900f97" x="60.12" y="309.861715" style="stroke: #000000; stroke-width: 0.6"/>
      </g>
     </g>
    </g>
    <g id="ytick_17">
     <g id="line2d_38">
      <g>
       <use xlink:href="#me714900f97" x="60.12" y="285.04865" style="stroke: #000000; stroke-width: 0.6"/>
      </g>
     </g>
    </g>
    <g id="ytick_18">
     <g id="line2d_39">
      <g>
       <use xlink:href="#me714900f97" x="60.12" y="235.422521" style="stroke: #000000; stroke-width: 0.6"/>
      </g>
     </g>
    </g>
    <g id="ytick_19">
     <g id="line2d_40">
      <g>
       <use xlink:href="#me714900f97" x="60.12" y="210.609457" style="stroke: #000000; stroke-width: 0.6"/>
      </g>
     </g>
    </g>
    <g id="ytick_20">
     <g id="line2d_41">
      <g>
       <use xlink:href="#me714900f97" x="60.12" y="185.796392" style="stroke: #000000; stroke-width: 0.6"/>
      </g>
     </g>
    </g>
    <g id="ytick_21">
     <g id="line2d_42">
      <g>
       <use xlink:href="#me714900f97" x="60.12" y="160.983328" style="stroke: #000000; stroke-width: 0.6"/>
      </g>
     </g>
    </g>
    <g id="ytick_22">
     <g id="line2d_43">
      <g>
       <use xlink:href="#me714900f97" x="60.12" y="111.357199" style="stroke: #000000; stroke-width: 0.6"/>
      </g>
     </g>
    </g>
    <g id="ytick_23">
     <g id="line2d_44">
      <g>
       <use xlink:href="#me714900f97" x="60.12" y="86.544134" style="stroke: #000000; stroke-width: 0.6"/>
      </g>
     </g>
    </g>
    <g id="ytick_24">
     <g id="line2d_45">
      <g>
       <use xlink:href="#me714900f97" x="60.12" y="61.731069" style="stroke: #000000; stroke-width: 0.6"/>
      </g>
     </g>
    </g>
    <g id="text_13">
     <!-- ITC $\mathrm{W} / (\mathrm{K} \cdot \mathrm{m}^2)$ -->
     <g transform="translate(31.275 435.279) rotate(-90) scale(0.3 -0.3)">
      <defs>
       <path id="LiberationSans-49" d="M 591 0 
L 591 4403 
L 1188 4403 
L 1188 0 
L 591 0 
z
" transform="scale(0.015625)"/>
       <path id="LiberationSans-43" d="M 2475 3981 
Q 1744 3981 1337 3511 
Q 931 3041 931 2222 
Q 931 1413 1354 920 
Q 1778 428 2500 428 
Q 3425 428 3891 1344 
L 4378 1100 
Q 4106 531 3614 234 
Q 3122 -63 2472 -63 
Q 1806 -63 1320 214 
Q 834 491 579 1005 
Q 325 1519 325 2222 
Q 325 3275 894 3872 
Q 1463 4469 2469 4469 
Q 3172 4469 3644 4194 
Q 4116 3919 4338 3378 
L 3772 3191 
Q 3619 3575 3280 3778 
Q 2941 3981 2475 3981 
z
" transform="scale(0.015625)"/>
       <path id="STIXGeneral-Regular-57" d="M 5965 4237 
L 5965 4115 
Q 5709 4064 5616 3990 
Q 5523 3917 5434 3667 
Q 4704 1709 4128 -70 
L 4032 -70 
Q 3642 1011 3008 2637 
L 2022 -70 
L 1926 -70 
Q 1709 576 1277 1753 
Q 845 2931 698 3347 
Q 538 3808 406 3958 
Q 275 4109 32 4115 
L 32 4237 
L 1594 4237 
L 1594 4115 
Q 1357 4109 1270 4064 
Q 1184 4019 1184 3917 
Q 1184 3808 1254 3616 
L 2176 1210 
L 2842 3021 
L 2662 3501 
Q 2509 3917 2400 4013 
Q 2291 4109 2010 4115 
L 2010 4237 
L 3706 4237 
L 3706 4115 
Q 3213 4102 3213 3891 
Q 3213 3808 3322 3520 
L 4237 1190 
L 5043 3360 
Q 5152 3667 5152 3853 
Q 5152 4109 4704 4115 
L 4704 4237 
L 5965 4237 
z
" transform="scale(0.015625)"/>
       <path id="STIXGeneral-Regular-2f" d="M 1837 4326 
L 378 -90 
L -58 -90 
L 1408 4326 
L 1837 4326 
z
" transform="scale(0.015625)"/>
       <path id="STIXGeneral-Regular-28" d="M 1946 -1030 
L 1869 -1133 
Q 1126 -710 716 32 
Q 307 774 307 1613 
Q 307 3386 1888 4326 
L 1946 4224 
Q 1293 3667 1075 3126 
Q 858 2586 858 1632 
Q 858 685 1082 96 
Q 1306 -493 1946 -1030 
z
" transform="scale(0.015625)"/>
       <path id="STIXGeneral-Regular-4b" d="M 4627 0 
L 2688 0 
L 2688 122 
L 2861 128 
Q 3130 134 3130 282 
Q 3130 397 2922 643 
Q 2714 890 2253 1370 
L 1613 2029 
L 1446 1894 
L 1446 710 
Q 1446 352 1548 253 
Q 1651 154 2016 122 
L 2016 0 
L 211 0 
L 211 122 
Q 589 141 691 262 
Q 794 384 794 800 
L 794 3514 
Q 794 3872 691 3981 
Q 589 4090 218 4115 
L 218 4237 
L 2022 4237 
L 2022 4115 
Q 1632 4090 1539 3987 
Q 1446 3885 1446 3507 
L 1446 2227 
L 2586 3277 
Q 2861 3533 2973 3667 
Q 3085 3802 3085 3910 
Q 3085 4013 3030 4057 
Q 2976 4102 2822 4109 
L 2662 4115 
L 2662 4237 
L 4320 4237 
L 4320 4115 
Q 3994 4090 3824 4003 
Q 3654 3917 3322 3597 
L 2131 2458 
L 3629 819 
Q 4026 384 4214 253 
Q 4403 122 4627 122 
L 4627 0 
z
" transform="scale(0.015625)"/>
       <path id="STIXGeneral-Regular-22c5" d="M 1187 1888 
Q 1299 1773 1299 1619 
Q 1299 1466 1187 1350 
Q 1075 1235 921 1235 
Q 768 1235 649 1353 
Q 531 1472 531 1619 
Q 531 1766 649 1884 
Q 768 2003 921 2003 
Q 1075 2003 1187 1888 
z
" transform="scale(0.015625)"/>
       <path id="STIXGeneral-Regular-6d" d="M 4960 0 
L 3565 0 
L 3565 96 
Q 3834 122 3907 208 
Q 3981 294 3981 576 
L 3981 1894 
Q 3981 2278 3869 2444 
Q 3757 2611 3488 2611 
Q 3264 2611 3107 2521 
Q 2950 2432 2803 2221 
L 2803 608 
Q 2803 301 2896 201 
Q 2989 102 3264 96 
L 3264 0 
L 1830 0 
L 1830 96 
Q 2112 115 2189 188 
Q 2266 262 2266 550 
L 2266 1901 
Q 2266 2611 1850 2611 
Q 1670 2611 1468 2531 
Q 1267 2451 1171 2336 
Q 1088 2240 1088 2227 
L 1088 448 
Q 1088 243 1177 176 
Q 1267 109 1523 96 
L 1523 0 
L 102 0 
L 102 96 
Q 371 102 460 195 
Q 550 288 550 563 
L 550 2150 
Q 550 2387 499 2480 
Q 448 2573 326 2573 
Q 230 2573 122 2547 
L 122 2656 
Q 557 2778 1011 2944 
L 1062 2925 
L 1062 2451 
L 1075 2451 
Q 1363 2752 1584 2848 
Q 1805 2944 2054 2944 
Q 2560 2944 2733 2406 
Q 3232 2944 3776 2944 
Q 4518 2944 4518 1792 
L 4518 493 
Q 4518 282 4582 202 
Q 4646 122 4794 109 
L 4960 96 
L 4960 0 
z
" transform="scale(0.015625)"/>
       <path id="STIXGeneral-Regular-32" d="M 3034 877 
L 2688 0 
L 186 0 
L 186 77 
L 1325 1286 
Q 1773 1754 1965 2144 
Q 2157 2534 2157 2950 
Q 2157 3379 1920 3616 
Q 1683 3853 1267 3853 
Q 922 3853 720 3673 
Q 518 3494 326 3021 
L 192 3053 
Q 301 3648 630 3987 
Q 960 4326 1523 4326 
Q 2054 4326 2380 4006 
Q 2707 3686 2707 3200 
Q 2707 2477 1888 1613 
L 832 486 
L 2330 486 
Q 2541 486 2665 569 
Q 2790 653 2944 915 
L 3034 877 
z
" transform="scale(0.015625)"/>
       <path id="STIXGeneral-Regular-29" d="M 186 4224 
L 262 4326 
Q 992 3891 1408 3148 
Q 1824 2406 1824 1581 
Q 1824 -166 243 -1133 
L 186 -1030 
Q 845 -486 1059 54 
Q 1274 595 1274 1562 
Q 1274 2534 1059 3120 
Q 845 3706 186 4224 
z
" transform="scale(0.015625)"/>
      </defs>
      <use xlink:href="#LiberationSans-49" transform="translate(0 0.409375)"/>
      <use xlink:href="#LiberationSans-54" transform="translate(27.783203 0.409375)"/>
      <use xlink:href="#LiberationSans-43" transform="translate(88.867188 0.409375)"/>
      <use xlink:href="#LiberationSans-20" transform="translate(161.083984 0.409375)"/>
      <use xlink:href="#STIXGeneral-Regular-57" transform="translate(188.867188 0.409375)"/>
      <use xlink:href="#STIXGeneral-Regular-2f" transform="translate(283.267181 0.409375)"/>
      <use xlink:href="#STIXGeneral-Regular-28" transform="translate(311.067169 0.409375)"/>
      <use xlink:href="#STIXGeneral-Regular-4b" transform="translate(344.367157 0.409375)"/>
      <use xlink:href="#STIXGeneral-Regular-22c5" transform="translate(431.007135 0.409375)"/>
      <use xlink:href="#STIXGeneral-Regular-6d" transform="translate(474.047122 0.409375)"/>
      <use xlink:href="#STIXGeneral-Regular-32" transform="translate(553.390391 35.684375) scale(0.7)"/>
      <use xlink:href="#STIXGeneral-Regular-29" transform="translate(592.799756 0.409375)"/>
     </g>
    </g>
    <g id="text_14">
     <!-- $\times\mathdefault{10^{6}}\mathdefault{}$ -->
     <g transform="translate(60.12 36.1875) scale(0.4 -0.4)">
      <defs>
       <path id="STIXGeneral-Regular-d7" d="M 3821 141 
L 3526 -160 
L 2048 1312 
L 570 -160 
L 275 134 
L 1747 1613 
L 275 3091 
L 576 3386 
L 2048 1914 
L 3526 3386 
L 3821 3098 
L 2349 1613 
L 3821 141 
z
" transform="scale(0.015625)"/>
      </defs>
      <use xlink:href="#STIXGeneral-Regular-d7" transform="translate(0 0.140625)"/>
      <use xlink:href="#LiberationSans-31" transform="translate(63.999985 0.140625)"/>
      <use xlink:href="#LiberationSans-30" transform="translate(119.615219 0.140625)"/>
      <use xlink:href="#LiberationSans-36" transform="translate(176.154946 37.120312) scale(0.7)"/>
     </g>
    </g>
   </g>
   <g id="line2d_46">
    <path d="M 89.326091 615.812182 
L 90.553115 298.878493 
L 91.254271 170.246854 
L 91.780139 107.553968 
L 92.189147 79.120703 
L 92.539725 68.003731 
L 92.715014 66.645818 
L 92.773444 66.771624 
L 92.890303 67.847622 
L 93.124022 73.084641 
L 93.4746 87.698902 
L 94.000468 121.320461 
L 94.935343 199.783156 
L 96.629805 341.031892 
L 97.68154 409.203759 
L 98.616415 456.097983 
L 99.434431 486.749013 
L 100.135587 505.040341 
L 100.661455 513.842287 
L 101.128892 518.252439 
L 101.421041 519.478357 
L 101.59633 519.688677 
L 101.71319 519.623735 
L 101.888479 519.235038 
L 102.180627 517.87302 
L 102.589635 514.668215 
L 103.173932 508.12587 
L 105.68641 477.307183 
L 106.270707 473.567817 
L 106.738145 471.928307 
L 107.030293 471.499465 
L 107.264012 471.473395 
L 107.497731 471.718268 
L 107.78988 472.385869 
L 108.198887 473.931504 
L 108.783185 477.17084 
L 109.65963 483.53229 
L 111.237232 495.162151 
L 111.938389 498.679943 
L 112.464256 500.257468 
L 112.814835 500.756539 
L 113.106983 500.833498 
L 113.340702 500.680248 
L 113.69128 500.108434 
L 114.100288 498.960963 
L 114.684585 496.563994 
L 115.561031 491.853299 
L 118.774665 473.553045 
L 119.475822 471.001594 
L 120.001689 469.825501 
L 120.410697 469.407196 
L 120.702846 469.373001 
L 120.994994 469.548436 
L 121.404002 470.086011 
L 122.046729 471.397079 
L 123.273753 473.952001 
L 123.682761 474.364454 
L 124.033339 474.415716 
L 124.325488 474.224378 
L 124.676066 473.716918 
L 125.143504 472.620709 
L 125.96152 469.995259 
L 126.954825 466.962098 
L 127.480692 465.965932 
L 127.8897 465.630742 
L 128.181849 465.647517 
L 128.473997 465.879396 
L 128.883005 466.543928 
L 129.408872 467.880619 
L 130.285318 470.833193 
L 131.570772 475.083922 
L 132.271928 476.686786 
L 132.973085 477.740404 
L 133.84953 478.629067 
L 134.784406 479.653057 
L 135.485562 480.785937 
L 136.245149 482.477629 
L 137.296883 485.436747 
L 139.575642 492.063567 
L 140.335228 493.516299 
L 140.919525 494.215743 
L 141.386963 494.473263 
L 141.795971 494.472966 
L 142.263409 494.23392 
L 142.789276 493.697359 
L 143.432003 492.714506 
L 144.366878 490.830412 
L 145.886051 487.238207 
L 147.288364 483.370279 
L 149.099685 478.376902 
L 149.976131 476.630048 
L 150.735717 475.571843 
L 151.495303 474.871688 
L 152.313319 474.416616 
L 153.248194 474.148869 
L 154.06621 474.119044 
L 154.767367 474.315523 
L 155.410094 474.746886 
L 156.052821 475.466528 
L 156.870837 476.752784 
L 159.909181 481.936091 
L 160.610338 482.54973 
L 161.369924 482.916946 
L 163.590253 483.723114 
L 164.29141 484.376888 
L 165.167855 485.524841 
L 166.920747 487.908069 
L 167.505044 488.304554 
L 167.972482 488.378516 
L 168.439919 488.23077 
L 168.965787 487.818237 
L 169.666943 486.948345 
L 172.529999 483.014957 
L 177.788673 477.704 
L 178.4314 477.491289 
L 179.015697 477.522605 
L 179.716853 477.803893 
L 182.112472 479.020561 
L 182.638339 478.926638 
L 183.222636 478.597826 
L 184.099082 477.802353 
L 185.267676 476.777537 
L 185.910403 476.516182 
L 186.43627 476.540233 
L 186.962138 476.785788 
L 187.663294 477.392308 
L 190.46792 480.162776 
L 192.045522 481.03222 
L 192.863538 481.646014 
L 193.681554 482.535987 
L 194.791719 484.127553 
L 196.60304 486.712841 
L 197.479485 487.565227 
L 198.239072 488.006645 
L 199.057088 488.221475 
L 202.855019 488.693842 
L 203.439316 488.465439 
L 204.023613 487.984961 
L 204.60791 487.206332 
L 205.309067 485.87648 
L 206.302372 483.442196 
L 207.412536 480.879703 
L 208.172123 479.634573 
L 208.814849 478.958387 
L 209.457576 478.587752 
L 210.158733 478.443457 
L 211.268897 478.494439 
L 212.72964 478.503725 
L 214.248812 478.505148 
L 215.066828 478.745693 
L 215.943274 479.245302 
L 217.520876 480.492187 
L 218.572611 481.182558 
L 219.390627 481.451539 
L 220.383932 481.521248 
L 221.377237 481.625039 
L 222.019964 481.915735 
L 222.662691 482.47843 
L 223.363847 483.421472 
L 224.415582 485.285802 
L 225.642606 487.364659 
L 226.285333 488.056901 
L 226.8112 488.338039 
L 227.337068 488.359244 
L 227.862935 488.146729 
L 228.564092 487.600565 
L 231.076569 485.425018 
L 233.705906 483.632311 
L 234.8745 482.424846 
L 236.627392 480.585737 
L 237.445408 480.062961 
L 238.146564 479.856592 
L 238.96458 479.856752 
L 240.600612 479.934559 
L 241.243339 479.705391 
L 241.944495 479.214185 
L 243.11309 478.050815 
L 244.047965 477.247361 
L 244.690692 476.967259 
L 245.216559 476.963639 
L 245.800856 477.203949 
L 246.502013 477.768099 
L 247.670607 479.06019 
L 251.468538 483.711559 
L 254.682172 488.285334 
L 255.324899 488.664107 
L 255.850766 488.739313 
L 256.376634 488.599644 
L 256.960931 488.211072 
L 257.837377 487.305018 
L 259.531838 485.501204 
L 260.583573 484.766378 
L 262.102746 483.732653 
L 262.803902 482.946159 
L 263.563488 481.715511 
L 264.498364 479.700227 
L 265.725388 477.075986 
L 266.426544 476.044924 
L 267.010841 475.520741 
L 267.595138 475.286433 
L 268.179435 475.297867 
L 268.880592 475.545318 
L 272.152656 477.277429 
L 273.029101 477.934475 
L 273.905547 478.890615 
L 274.957282 480.389313 
L 277.060751 483.477888 
L 277.820338 484.152605 
L 278.463065 484.444722 
L 279.164221 484.504345 
L 281.44298 484.476597 
L 282.319425 484.826239 
L 283.838598 485.471637 
L 284.422895 485.469251 
L 285.007192 485.246293 
L 285.708349 484.716183 
L 287.987107 482.722958 
L 288.571405 482.596513 
L 289.214131 482.688205 
L 291.55132 483.282642 
L 292.194047 483.058577 
L 292.895203 482.558651 
L 294.005368 481.432919 
L 295.115532 480.403756 
L 295.933548 479.938786 
L 296.751564 479.730055 
L 298.971893 479.354109 
L 299.731479 478.86801 
L 300.783214 477.881265 
L 301.893379 476.905952 
L 302.536105 476.631017 
L 303.061973 476.631216 
L 303.58784 476.845302 
L 304.230567 477.360357 
L 305.399161 478.657386 
L 306.684615 479.958905 
L 307.853209 480.801571 
L 309.138663 481.76664 
L 309.898249 482.647595 
L 310.774695 484.037716 
L 313.75461 489.204124 
L 314.397337 489.72692 
L 314.981634 489.9201 
L 315.565931 489.878524 
L 316.442377 489.554073 
L 318.019979 488.965743 
L 319.422292 488.492085 
L 320.065019 488.006022 
L 320.707745 487.203987 
L 321.350472 486.02672 
L 322.168488 484.01667 
L 324.330387 478.3796 
L 324.973114 477.49271 
L 325.498982 477.10543 
L 326.024849 476.971161 
L 326.667576 477.045437 
L 328.771045 477.47236 
L 329.647491 477.268088 
L 331.166664 476.849829 
L 331.80939 476.921423 
L 332.452117 477.21727 
L 333.153274 477.79588 
L 334.146579 478.953902 
L 336.425338 481.741585 
L 337.652362 482.78595 
L 338.937815 483.93232 
L 339.93112 485.138943 
L 342.677317 488.7439 
L 343.203184 488.976457 
L 343.729051 488.969758 
L 344.254919 488.742109 
L 344.956075 488.17461 
L 347.059545 486.296212 
L 347.935991 485.915234 
L 349.688882 485.243447 
L 350.390038 484.654978 
L 351.091195 483.768516 
L 351.967641 482.278329 
L 353.954251 478.747921 
L 354.655407 477.989728 
L 355.239704 477.659829 
L 355.824002 477.586608 
L 356.525158 477.735378 
L 358.16119 478.172134 
L 358.979206 478.091757 
L 360.907386 477.75826 
L 361.550113 477.95972 
L 362.25127 478.429244 
L 364.530028 480.19765 
L 365.172755 480.297681 
L 365.932342 480.165836 
L 367.393084 479.847309 
L 367.918952 479.999358 
L 368.444819 480.402377 
L 369.029116 481.165648 
L 369.730273 482.490831 
L 370.898867 485.293562 
L 372.30118 488.547758 
L 373.060766 489.807861 
L 373.703493 490.49363 
L 374.34622 490.851408 
L 375.047376 490.971196 
L 376.040681 490.883821 
L 377.326135 490.554382 
L 378.027292 490.159013 
L 378.670018 489.53631 
L 379.312745 488.570881 
L 380.013902 487.06968 
L 380.890347 484.595661 
L 382.818528 478.864135 
L 383.578114 477.390719 
L 384.279271 476.48277 
L 385.097287 475.802749 
L 388.077202 473.950177 
L 388.836788 473.641323 
L 389.362656 473.63592 
L 389.888523 473.855254 
L 390.47282 474.372298 
L 391.173977 475.340629 
L 392.167282 477.181127 
L 394.037032 480.704622 
L 394.855048 481.719168 
L 395.614635 482.303893 
L 397.951823 483.759634 
L 398.711409 484.693628 
L 399.880003 486.561393 
L 401.048598 488.295183 
L 401.749754 488.965384 
L 402.392481 489.281637 
L 403.035208 489.354873 
L 405.722975 489.349698 
L 407.242147 489.675366 
L 407.826444 489.537083 
L 408.352312 489.172884 
L 408.936609 488.462947 
L 409.579335 487.307508 
L 410.455781 485.209969 
L 412.500821 480.088656 
L 413.260407 478.8525 
L 413.844704 478.274135 
L 414.429001 478.000373 
L 415.013299 477.967719 
L 415.889744 478.180696 
L 419.395527 479.414076 
L 420.213543 480.175906 
L 422.84288 482.960227 
L 423.427177 483.114172 
L 424.011474 483.031885 
L 424.77106 482.676363 
L 426.056514 482.055192 
L 426.640811 482.055354 
L 427.166678 482.290483 
L 427.750975 482.831542 
L 428.452132 483.825715 
L 429.620726 485.956027 
L 431.023039 488.41635 
L 431.841055 489.434177 
L 432.542212 489.97476 
L 433.301798 490.272819 
L 434.295103 490.395434 
L 435.463697 490.321675 
L 436.223284 490.076622 
L 436.86601 489.655153 
L 437.508737 488.956983 
L 438.151464 487.916742 
L 438.91105 486.225012 
L 439.962785 483.251677 
L 441.131379 480.131854 
L 441.949395 478.550734 
L 442.650552 477.642925 
L 443.351708 477.080093 
L 444.169724 476.725901 
L 445.513608 476.446761 
L 446.857491 476.335514 
L 447.558647 476.488174 
L 448.201374 476.863371 
L 448.902531 477.555597 
L 449.720547 478.699362 
L 451.006 480.954327 
L 452.583603 483.638128 
L 453.576908 484.88455 
L 454.628642 485.837658 
L 457.024261 487.92187 
L 458.601863 489.315906 
L 459.24459 489.611324 
L 459.770457 489.637838 
L 460.296324 489.454951 
L 460.939051 488.976688 
L 461.932356 487.889718 
L 463.042521 486.747745 
L 463.743677 486.330973 
L 464.386404 486.217825 
L 465.087561 486.33216 
L 467.015741 486.793318 
L 467.600038 486.649267 
L 468.184335 486.280404 
L 468.885492 485.541923 
L 469.995656 483.967131 
L 471.573259 481.803276 
L 472.624993 480.758634 
L 474.553174 478.943274 
L 475.663338 477.428949 
L 476.890362 475.817585 
L 477.474659 475.410806 
L 477.942097 475.363746 
L 478.351105 475.552593 
L 478.818543 476.039 
L 479.40284 477.019346 
L 480.220856 478.88772 
L 482.382755 484.01886 
L 483.259201 485.425892 
L 484.077217 486.340521 
L 485.187381 487.226726 
L 486.940272 488.308786 
L 488.108867 488.795749 
L 489.160601 488.99958 
L 490.387625 488.983943 
L 491.906798 488.969342 
L 492.724814 489.212183 
L 493.776549 489.791576 
L 494.828283 490.297539 
L 495.41258 490.342994 
L 495.880018 490.175179 
L 496.347456 489.784805 
L 496.873323 489.051207 
L 497.51605 487.743921 
L 498.450925 485.233958 
L 499.677949 482.075466 
L 500.437536 480.696266 
L 501.138692 479.878286 
L 501.839849 479.401216 
L 504.177037 478.099829 
L 505.111912 477.082441 
L 506.631085 475.407085 
L 507.332241 474.980056 
L 507.916539 474.885545 
L 508.442406 475.024584 
L 509.026703 475.416527 
L 509.72786 476.168824 
L 510.838024 477.756249 
L 513.058353 480.93351 
L 515.337112 484.117728 
L 516.973144 486.399918 
L 517.6743 487.024455 
L 518.258597 487.26574 
L 518.842894 487.248291 
L 519.485621 486.981394 
L 520.712645 486.138358 
L 521.530661 485.729047 
L 522.173388 485.639245 
L 522.874545 485.769321 
L 524.978014 486.353406 
L 525.562311 486.203125 
L 526.146608 485.825054 
L 526.847765 485.084598 
L 527.8995 483.589448 
L 529.126524 481.93542 
L 529.88611 481.271973 
L 530.528837 481.002124 
L 531.229993 480.970098 
L 533.099744 481.067918 
L 533.742471 480.772738 
L 534.502057 480.152233 
L 536.138089 478.711129 
L 536.722386 478.510568 
L 537.248253 478.55766 
L 537.83255 478.855716 
L 538.592137 479.524561 
L 540.754036 481.563752 
L 541.688911 482.062623 
L 543.90924 483.093197 
L 544.960975 483.956758 
L 547.473453 486.147138 
L 548.408328 486.615978 
L 549.401633 486.862537 
L 551.037665 487.242513 
L 552.381548 487.856048 
L 553.257994 488.140217 
L 553.842291 488.111971 
L 554.368159 487.855829 
L 554.894026 487.329802 
L 555.478323 486.401744 
L 556.17948 484.838613 
L 558.867246 478.254117 
L 559.685262 477.081614 
L 560.678567 476.057049 
L 564.534928 472.708408 
L 565.119225 472.561269 
L 565.645093 472.637438 
L 566.22939 472.956104 
L 566.872117 473.580746 
L 567.690133 474.720492 
L 569.034016 477.061397 
L 570.553188 479.552316 
L 571.721783 481.010424 
L 574.000541 483.392834 
L 575.402854 484.662148 
L 576.162441 485.065543 
L 576.805168 485.154259 
L 577.447894 485.013879 
L 578.32434 484.561748 
L 579.785083 483.786241 
L 580.544669 483.644089 
L 581.537974 483.718326 
L 582.589709 483.759656 
L 583.232436 483.559613 
L 583.816733 483.141773 
L 584.45946 482.392952 
L 585.219046 481.141603 
L 588.140531 475.838147 
L 588.841688 475.221418 
L 589.542844 474.906406 
L 590.769868 474.673548 
L 591.646314 474.390807 
L 592.581189 473.833433 
L 593.925073 473.035517 
L 594.50937 472.964017 
L 595.035237 473.137926 
L 595.561105 473.561093 
L 596.203832 474.39837 
L 597.197137 476.139099 
L 598.891598 479.087942 
L 600.060192 480.627483 
L 601.754654 482.838864 
L 602.923248 484.853616 
L 604.792999 488.140162 
L 605.552585 489.026881 
L 606.195312 489.444464 
L 606.779609 489.556083 
L 607.363906 489.435836 
L 608.123492 489.022068 
L 610.986548 486.968741 
L 611.746135 486.195779 
L 612.447291 485.146358 
L 613.148448 483.662573 
L 613.966464 481.339982 
L 615.135058 477.230061 
L 616.186793 473.763925 
L 616.887949 472.117789 
L 617.472246 471.243101 
L 617.998114 470.827861 
L 618.465551 470.714853 
L 618.991419 470.814695 
L 619.692575 471.191566 
L 622.205053 472.7357 
L 623.490506 473.516417 
L 624.483811 474.412553 
L 626.002984 476.152877 
L 627.230008 477.413209 
L 628.048024 477.959934 
L 628.92447 478.276538 
L 630.677361 478.7909 
L 631.378517 479.310045 
L 632.138104 480.180463 
L 633.189838 481.790061 
L 634.475292 483.71044 
L 635.118019 484.313555 
L 635.702316 484.559572 
L 636.228183 484.53848 
L 636.81248 484.28719 
L 637.805786 483.556124 
L 639.149669 482.630851 
L 641.837436 481.092058 
L 642.597022 480.178889 
L 643.531897 478.674936 
L 645.985945 474.506981 
L 646.803961 473.651887 
L 647.621977 473.103332 
L 650.192884 471.650869 
L 652.354784 469.896559 
L 652.880651 469.817643 
L 653.348089 469.95626 
L 653.873956 470.35632 
L 654.516683 471.167434 
L 655.568418 472.954693 
L 656.912301 475.143135 
L 657.788747 476.149576 
L 658.840481 476.988875 
L 659.950646 477.915555 
L 660.710232 478.867327 
L 661.586678 480.363873 
L 663.22271 483.774542 
L 664.274445 485.692092 
L 665.034031 486.648084 
L 665.676758 487.107474 
L 666.261055 487.250241 
L 666.903781 487.169002 
L 667.721797 486.827427 
L 668.831962 486.112063 
L 669.766837 485.255553 
L 670.526424 484.253307 
L 671.28601 482.85851 
L 672.104026 480.842196 
L 673.155761 477.581722 
L 673.447909 476.600582 
L 673.447909 476.600582 
" clip-path="url(#p9659501cb2)" style="fill: none; stroke: #0000ff; stroke-width: 1.5; stroke-linecap: square"/>
   </g>
   <g id="patch_3">
    <path d="M 60.12 643.2705 
L 60.12 39.1875 
" style="fill: none; stroke: #000000; stroke-width: 0.8; stroke-linejoin: miter; stroke-linecap: square"/>
   </g>
   <g id="patch_4">
    <path d="M 702.654 643.2705 
L 702.654 39.1875 
" style="fill: none; stroke: #000000; stroke-width: 0.8; stroke-linejoin: miter; stroke-linecap: square"/>
   </g>
   <g id="patch_5">
    <path d="M 60.12 643.2705 
L 702.654 643.2705 
" style="fill: none; stroke: #000000; stroke-width: 0.8; stroke-linejoin: miter; stroke-linecap: square"/>
   </g>
   <g id="patch_6">
    <path d="M 60.12 39.1875 
L 702.654 39.1875 
" style="fill: none; stroke: #000000; stroke-width: 0.8; stroke-linejoin: miter; stroke-linecap: square"/>
   </g>
  </g>
 </g>
 <defs>
  <clipPath id="p9659501cb2">
   <rect x="60.12" y="39.1875" width="642.534" height="604.083"/>
  </clipPath>
 </defs>
</svg>
