<?xml version="1.0" encoding="utf-8" standalone="no"?>
<!DOCTYPE svg PUBLIC "-//W3C//DTD SVG 1.1//EN"
  "http://www.w3.org/Graphics/SVG/1.1/DTD/svg11.dtd">
<svg xmlns:xlink="http://www.w3.org/1999/xlink" width="709.914pt" height="711.02175pt" viewBox="0 0 709.914 711.02175" xmlns="http://www.w3.org/2000/svg" version="1.1">
 <metadata>
  <rdf:RDF xmlns:dc="http://purl.org/dc/elements/1.1/" xmlns:cc="http://creativecommons.org/ns#" xmlns:rdf="http://www.w3.org/1999/02/22-rdf-syntax-ns#">
   <cc:Work>
    <dc:type rdf:resource="http://purl.org/dc/dcmitype/StillImage"/>
    <dc:date>2025-02-05T18:30:07.156928</dc:date>
    <dc:format>image/svg+xml</dc:format>
    <dc:creator>
     <cc:Agent>
      <dc:title>Matplotlib v3.9.3, https://matplotlib.org/</dc:title>
     </cc:Agent>
    </dc:creator>
   </cc:Work>
  </rdf:RDF>
 </metadata>
 <defs>
  <style type="text/css">*{stroke-linejoin: round; stroke-linecap: butt}</style>
 </defs>
 <g id="figure_1">
  <g id="patch_1">
   <path d="M 0 711.02175 
L 709.914 711.02175 
L 709.914 0 
L 0 0 
z
" style="fill: #ffffff"/>
  </g>
  <g id="axes_1">
   <g id="patch_2">
    <path d="M 61.8 640.3905 
L 702.714 640.3905 
L 702.714 39.1875 
L 61.8 39.1875 
z
" style="fill: #ffffff"/>
   </g>
   <g id="matplotlib.axis_1">
    <g id="xtick_1">
     <g id="line2d_1">
      <defs>
       <path id="m06301608c7" d="M 0 0 
L 0 -3.5 
" style="stroke: #000000; stroke-width: 0.8"/>
      </defs>
      <g>
       <use xlink:href="#m06301608c7" x="90.81589" y="640.3905" style="stroke: #000000; stroke-width: 0.8"/>
      </g>
     </g>
     <g id="text_1">
      <!-- 0 -->
      <g transform="translate(82.474484 665.631125) scale(0.3 -0.3)">
       <defs>
        <path id="LiberationSans-30" d="M 3309 2203 
Q 3309 1100 2920 518 
Q 2531 -63 1772 -63 
Q 1013 -63 631 515 
Q 250 1094 250 2203 
Q 250 3338 620 3903 
Q 991 4469 1791 4469 
Q 2569 4469 2939 3897 
Q 3309 3325 3309 2203 
z
M 2738 2203 
Q 2738 3156 2517 3584 
Q 2297 4013 1791 4013 
Q 1272 4013 1045 3591 
Q 819 3169 819 2203 
Q 819 1266 1048 831 
Q 1278 397 1778 397 
Q 2275 397 2506 840 
Q 2738 1284 2738 2203 
z
" transform="scale(0.015625)"/>
       </defs>
       <use xlink:href="#LiberationSans-30"/>
      </g>
     </g>
    </g>
    <g id="xtick_2">
     <g id="line2d_2">
      <g>
       <use xlink:href="#m06301608c7" x="207.380677" y="640.3905" style="stroke: #000000; stroke-width: 0.8"/>
      </g>
     </g>
     <g id="text_2">
      <!-- 2 -->
      <g transform="translate(199.039271 665.631125) scale(0.3 -0.3)">
       <defs>
        <path id="LiberationSans-32" d="M 322 0 
L 322 397 
Q 481 763 711 1042 
Q 941 1322 1194 1548 
Q 1447 1775 1695 1969 
Q 1944 2163 2144 2356 
Q 2344 2550 2467 2762 
Q 2591 2975 2591 3244 
Q 2591 3606 2378 3806 
Q 2166 4006 1788 4006 
Q 1428 4006 1195 3811 
Q 963 3616 922 3263 
L 347 3316 
Q 409 3844 795 4156 
Q 1181 4469 1788 4469 
Q 2453 4469 2811 4155 
Q 3169 3841 3169 3263 
Q 3169 3006 3051 2753 
Q 2934 2500 2703 2247 
Q 2472 1994 1819 1463 
Q 1459 1169 1246 933 
Q 1034 697 941 478 
L 3238 478 
L 3238 0 
L 322 0 
z
" transform="scale(0.015625)"/>
       </defs>
       <use xlink:href="#LiberationSans-32"/>
      </g>
     </g>
    </g>
    <g id="xtick_3">
     <g id="line2d_3">
      <g>
       <use xlink:href="#m06301608c7" x="323.945465" y="640.3905" style="stroke: #000000; stroke-width: 0.8"/>
      </g>
     </g>
     <g id="text_3">
      <!-- 4 -->
      <g transform="translate(315.604059 665.631125) scale(0.3 -0.3)">
       <defs>
        <path id="LiberationSans-34" d="M 2753 997 
L 2753 0 
L 2222 0 
L 2222 997 
L 147 997 
L 147 1434 
L 2163 4403 
L 2753 4403 
L 2753 1441 
L 3372 1441 
L 3372 997 
L 2753 997 
z
M 2222 3769 
Q 2216 3750 2134 3603 
Q 2053 3456 2013 3397 
L 884 1734 
L 716 1503 
L 666 1441 
L 2222 1441 
L 2222 3769 
z
" transform="scale(0.015625)"/>
       </defs>
       <use xlink:href="#LiberationSans-34"/>
      </g>
     </g>
    </g>
    <g id="xtick_4">
     <g id="line2d_4">
      <g>
       <use xlink:href="#m06301608c7" x="440.510253" y="640.3905" style="stroke: #000000; stroke-width: 0.8"/>
      </g>
     </g>
     <g id="text_4">
      <!-- 6 -->
      <g transform="translate(432.168846 665.631125) scale(0.3 -0.3)">
       <defs>
        <path id="LiberationSans-36" d="M 3278 1441 
Q 3278 744 2900 340 
Q 2522 -63 1856 -63 
Q 1113 -63 719 490 
Q 325 1044 325 2100 
Q 325 3244 734 3856 
Q 1144 4469 1900 4469 
Q 2897 4469 3156 3572 
L 2619 3475 
Q 2453 4013 1894 4013 
Q 1413 4013 1148 3564 
Q 884 3116 884 2266 
Q 1038 2550 1316 2698 
Q 1594 2847 1953 2847 
Q 2563 2847 2920 2465 
Q 3278 2084 3278 1441 
z
M 2706 1416 
Q 2706 1894 2472 2153 
Q 2238 2413 1819 2413 
Q 1425 2413 1183 2183 
Q 941 1953 941 1550 
Q 941 1041 1192 716 
Q 1444 391 1838 391 
Q 2244 391 2475 664 
Q 2706 938 2706 1416 
z
" transform="scale(0.015625)"/>
       </defs>
       <use xlink:href="#LiberationSans-36"/>
      </g>
     </g>
    </g>
    <g id="xtick_5">
     <g id="line2d_5">
      <g>
       <use xlink:href="#m06301608c7" x="557.07504" y="640.3905" style="stroke: #000000; stroke-width: 0.8"/>
      </g>
     </g>
     <g id="text_5">
      <!-- 8 -->
      <g transform="translate(548.733634 665.631125) scale(0.3 -0.3)">
       <defs>
        <path id="LiberationSans-38" d="M 3281 1228 
Q 3281 619 2893 278 
Q 2506 -63 1781 -63 
Q 1075 -63 676 271 
Q 278 606 278 1222 
Q 278 1653 525 1947 
Q 772 2241 1156 2303 
L 1156 2316 
Q 797 2400 589 2681 
Q 381 2963 381 3341 
Q 381 3844 757 4156 
Q 1134 4469 1769 4469 
Q 2419 4469 2795 4162 
Q 3172 3856 3172 3334 
Q 3172 2956 2962 2675 
Q 2753 2394 2391 2322 
L 2391 2309 
Q 2813 2241 3047 1952 
Q 3281 1663 3281 1228 
z
M 2588 3303 
Q 2588 4050 1769 4050 
Q 1372 4050 1164 3862 
Q 956 3675 956 3303 
Q 956 2925 1170 2726 
Q 1384 2528 1775 2528 
Q 2172 2528 2380 2711 
Q 2588 2894 2588 3303 
z
M 2697 1281 
Q 2697 1691 2453 1898 
Q 2209 2106 1769 2106 
Q 1341 2106 1100 1882 
Q 859 1659 859 1269 
Q 859 359 1788 359 
Q 2247 359 2472 579 
Q 2697 800 2697 1281 
z
" transform="scale(0.015625)"/>
       </defs>
       <use xlink:href="#LiberationSans-38"/>
      </g>
     </g>
    </g>
    <g id="xtick_6">
     <g id="line2d_6">
      <g>
       <use xlink:href="#m06301608c7" x="673.639828" y="640.3905" style="stroke: #000000; stroke-width: 0.8"/>
      </g>
     </g>
     <g id="text_6">
      <!-- 10 -->
      <g transform="translate(656.957015 665.631125) scale(0.3 -0.3)">
       <defs>
        <path id="LiberationSans-31" d="M 488 0 
L 488 478 
L 1609 478 
L 1609 3866 
L 616 3156 
L 616 3688 
L 1656 4403 
L 2175 4403 
L 2175 478 
L 3247 478 
L 3247 0 
L 488 0 
z
" transform="scale(0.015625)"/>
       </defs>
       <use xlink:href="#LiberationSans-31"/>
       <use xlink:href="#LiberationSans-30" x="55.615234"/>
      </g>
     </g>
    </g>
    <g id="xtick_7">
     <g id="line2d_7">
      <defs>
       <path id="m8bbfbcea26" d="M 0 0 
L 0 -2 
" style="stroke: #000000; stroke-width: 0.6"/>
      </defs>
      <g>
       <use xlink:href="#m8bbfbcea26" x="119.957087" y="640.3905" style="stroke: #000000; stroke-width: 0.6"/>
      </g>
     </g>
    </g>
    <g id="xtick_8">
     <g id="line2d_8">
      <g>
       <use xlink:href="#m8bbfbcea26" x="149.098284" y="640.3905" style="stroke: #000000; stroke-width: 0.6"/>
      </g>
     </g>
    </g>
    <g id="xtick_9">
     <g id="line2d_9">
      <g>
       <use xlink:href="#m8bbfbcea26" x="178.23948" y="640.3905" style="stroke: #000000; stroke-width: 0.6"/>
      </g>
     </g>
    </g>
    <g id="xtick_10">
     <g id="line2d_10">
      <g>
       <use xlink:href="#m8bbfbcea26" x="236.521874" y="640.3905" style="stroke: #000000; stroke-width: 0.6"/>
      </g>
     </g>
    </g>
    <g id="xtick_11">
     <g id="line2d_11">
      <g>
       <use xlink:href="#m8bbfbcea26" x="265.663071" y="640.3905" style="stroke: #000000; stroke-width: 0.6"/>
      </g>
     </g>
    </g>
    <g id="xtick_12">
     <g id="line2d_12">
      <g>
       <use xlink:href="#m8bbfbcea26" x="294.804268" y="640.3905" style="stroke: #000000; stroke-width: 0.6"/>
      </g>
     </g>
    </g>
    <g id="xtick_13">
     <g id="line2d_13">
      <g>
       <use xlink:href="#m8bbfbcea26" x="353.086662" y="640.3905" style="stroke: #000000; stroke-width: 0.6"/>
      </g>
     </g>
    </g>
    <g id="xtick_14">
     <g id="line2d_14">
      <g>
       <use xlink:href="#m8bbfbcea26" x="382.227859" y="640.3905" style="stroke: #000000; stroke-width: 0.6"/>
      </g>
     </g>
    </g>
    <g id="xtick_15">
     <g id="line2d_15">
      <g>
       <use xlink:href="#m8bbfbcea26" x="411.369056" y="640.3905" style="stroke: #000000; stroke-width: 0.6"/>
      </g>
     </g>
    </g>
    <g id="xtick_16">
     <g id="line2d_16">
      <g>
       <use xlink:href="#m8bbfbcea26" x="469.65145" y="640.3905" style="stroke: #000000; stroke-width: 0.6"/>
      </g>
     </g>
    </g>
    <g id="xtick_17">
     <g id="line2d_17">
      <g>
       <use xlink:href="#m8bbfbcea26" x="498.792646" y="640.3905" style="stroke: #000000; stroke-width: 0.6"/>
      </g>
     </g>
    </g>
    <g id="xtick_18">
     <g id="line2d_18">
      <g>
       <use xlink:href="#m8bbfbcea26" x="527.933843" y="640.3905" style="stroke: #000000; stroke-width: 0.6"/>
      </g>
     </g>
    </g>
    <g id="xtick_19">
     <g id="line2d_19">
      <g>
       <use xlink:href="#m8bbfbcea26" x="586.216237" y="640.3905" style="stroke: #000000; stroke-width: 0.6"/>
      </g>
     </g>
    </g>
    <g id="xtick_20">
     <g id="line2d_20">
      <g>
       <use xlink:href="#m8bbfbcea26" x="615.357434" y="640.3905" style="stroke: #000000; stroke-width: 0.6"/>
      </g>
     </g>
    </g>
    <g id="xtick_21">
     <g id="line2d_21">
      <g>
       <use xlink:href="#m8bbfbcea26" x="644.498631" y="640.3905" style="stroke: #000000; stroke-width: 0.6"/>
      </g>
     </g>
    </g>
    <g id="text_7">
     <!-- Time ps -->
     <g transform="translate(329.480438 697.59675) scale(0.3 -0.3)">
      <defs>
       <path id="LiberationSans-54" d="M 2250 3916 
L 2250 0 
L 1656 0 
L 1656 3916 
L 144 3916 
L 144 4403 
L 3763 4403 
L 3763 3916 
L 2250 3916 
z
" transform="scale(0.015625)"/>
       <path id="LiberationSans-69" d="M 428 4100 
L 428 4638 
L 991 4638 
L 991 4100 
L 428 4100 
z
M 428 0 
L 428 3381 
L 991 3381 
L 991 0 
L 428 0 
z
" transform="scale(0.015625)"/>
       <path id="LiberationSans-6d" d="M 2400 0 
L 2400 2144 
Q 2400 2634 2265 2821 
Q 2131 3009 1781 3009 
Q 1422 3009 1212 2734 
Q 1003 2459 1003 1959 
L 1003 0 
L 444 0 
L 444 2659 
Q 444 3250 425 3381 
L 956 3381 
Q 959 3366 962 3297 
Q 966 3228 970 3139 
Q 975 3050 981 2803 
L 991 2803 
Q 1172 3163 1406 3303 
Q 1641 3444 1978 3444 
Q 2363 3444 2586 3291 
Q 2809 3138 2897 2803 
L 2906 2803 
Q 3081 3144 3329 3294 
Q 3578 3444 3931 3444 
Q 4444 3444 4676 3166 
Q 4909 2888 4909 2253 
L 4909 0 
L 4353 0 
L 4353 2144 
Q 4353 2634 4218 2821 
Q 4084 3009 3734 3009 
Q 3366 3009 3161 2736 
Q 2956 2463 2956 1959 
L 2956 0 
L 2400 0 
z
" transform="scale(0.015625)"/>
       <path id="LiberationSans-65" d="M 863 1572 
Q 863 991 1103 675 
Q 1344 359 1806 359 
Q 2172 359 2392 506 
Q 2613 653 2691 878 
L 3184 738 
Q 2881 -63 1806 -63 
Q 1056 -63 664 384 
Q 272 831 272 1713 
Q 272 2550 664 2997 
Q 1056 3444 1784 3444 
Q 3275 3444 3275 1647 
L 3275 1572 
L 863 1572 
z
M 2694 2003 
Q 2647 2538 2422 2783 
Q 2197 3028 1775 3028 
Q 1366 3028 1127 2754 
Q 888 2481 869 2003 
L 2694 2003 
z
" transform="scale(0.015625)"/>
       <path id="LiberationSans-20" transform="scale(0.015625)"/>
       <path id="LiberationSans-70" d="M 3291 1706 
Q 3291 -63 2047 -63 
Q 1266 -63 997 525 
L 981 525 
Q 994 500 994 -6 
L 994 -1328 
L 431 -1328 
L 431 2691 
Q 431 3213 413 3381 
L 956 3381 
Q 959 3369 965 3292 
Q 972 3216 980 3056 
Q 988 2897 988 2838 
L 1000 2838 
Q 1150 3150 1397 3295 
Q 1644 3441 2047 3441 
Q 2672 3441 2981 3022 
Q 3291 2603 3291 1706 
z
M 2700 1694 
Q 2700 2400 2509 2703 
Q 2319 3006 1903 3006 
Q 1569 3006 1380 2865 
Q 1191 2725 1092 2426 
Q 994 2128 994 1650 
Q 994 984 1206 668 
Q 1419 353 1897 353 
Q 2316 353 2508 661 
Q 2700 969 2700 1694 
z
" transform="scale(0.015625)"/>
       <path id="LiberationSans-73" d="M 2969 934 
Q 2969 456 2608 196 
Q 2247 -63 1597 -63 
Q 966 -63 623 145 
Q 281 353 178 794 
L 675 891 
Q 747 619 972 492 
Q 1197 366 1597 366 
Q 2025 366 2223 497 
Q 2422 628 2422 891 
Q 2422 1091 2284 1216 
Q 2147 1341 1841 1422 
L 1438 1528 
Q 953 1653 748 1773 
Q 544 1894 428 2066 
Q 313 2238 313 2488 
Q 313 2950 642 3192 
Q 972 3434 1603 3434 
Q 2163 3434 2492 3237 
Q 2822 3041 2909 2606 
L 2403 2544 
Q 2356 2769 2151 2889 
Q 1947 3009 1603 3009 
Q 1222 3009 1040 2893 
Q 859 2778 859 2544 
Q 859 2400 934 2306 
Q 1009 2213 1156 2147 
Q 1303 2081 1775 1966 
Q 2222 1853 2419 1758 
Q 2616 1663 2730 1547 
Q 2844 1431 2906 1279 
Q 2969 1128 2969 934 
z
" transform="scale(0.015625)"/>
      </defs>
      <use xlink:href="#LiberationSans-54"/>
      <use xlink:href="#LiberationSans-69" x="57.333984"/>
      <use xlink:href="#LiberationSans-6d" x="79.550781"/>
      <use xlink:href="#LiberationSans-65" x="162.851562"/>
      <use xlink:href="#LiberationSans-20" x="218.466797"/>
      <use xlink:href="#LiberationSans-70" x="246.25"/>
      <use xlink:href="#LiberationSans-73" x="301.865234"/>
     </g>
    </g>
   </g>
   <g id="matplotlib.axis_2">
    <g id="ytick_1">
     <g id="line2d_22">
      <defs>
       <path id="m6c8ca8a387" d="M 0 0 
L 3.5 0 
" style="stroke: #000000; stroke-width: 0.8"/>
      </defs>
      <g>
       <use xlink:href="#m6c8ca8a387" x="61.8" y="627.7027" style="stroke: #000000; stroke-width: 0.8"/>
      </g>
     </g>
     <g id="text_8">
      <!-- $\mathdefault{0}$ -->
      <g transform="translate(41.5 638.573012) scale(0.3 -0.3)">
       <use xlink:href="#LiberationSans-30" transform="translate(0 0.171875)"/>
      </g>
     </g>
    </g>
    <g id="ytick_2">
     <g id="line2d_23">
      <g>
       <use xlink:href="#m6c8ca8a387" x="61.8" y="518.416513" style="stroke: #000000; stroke-width: 0.8"/>
      </g>
     </g>
     <g id="text_9">
      <!-- $\mathdefault{1}$ -->
      <g transform="translate(41.5 529.286826) scale(0.3 -0.3)">
       <use xlink:href="#LiberationSans-31" transform="translate(0 0.203125)"/>
      </g>
     </g>
    </g>
    <g id="ytick_3">
     <g id="line2d_24">
      <g>
       <use xlink:href="#m6c8ca8a387" x="61.8" y="409.130327" style="stroke: #000000; stroke-width: 0.8"/>
      </g>
     </g>
     <g id="text_10">
      <!-- $\mathdefault{2}$ -->
      <g transform="translate(41.5 420.000639) scale(0.3 -0.3)">
       <use xlink:href="#LiberationSans-32" transform="translate(0 0.171875)"/>
      </g>
     </g>
    </g>
    <g id="ytick_4">
     <g id="line2d_25">
      <g>
       <use xlink:href="#m6c8ca8a387" x="61.8" y="299.84414" style="stroke: #000000; stroke-width: 0.8"/>
      </g>
     </g>
     <g id="text_11">
      <!-- $\mathdefault{3}$ -->
      <g transform="translate(41.5 310.714453) scale(0.3 -0.3)">
       <defs>
        <path id="LiberationSans-33" d="M 3278 1216 
Q 3278 606 2890 271 
Q 2503 -63 1784 -63 
Q 1116 -63 717 239 
Q 319 541 244 1131 
L 825 1184 
Q 938 403 1784 403 
Q 2209 403 2451 612 
Q 2694 822 2694 1234 
Q 2694 1594 2417 1795 
Q 2141 1997 1619 1997 
L 1300 1997 
L 1300 2484 
L 1606 2484 
Q 2069 2484 2323 2686 
Q 2578 2888 2578 3244 
Q 2578 3597 2370 3801 
Q 2163 4006 1753 4006 
Q 1381 4006 1151 3815 
Q 922 3625 884 3278 
L 319 3322 
Q 381 3863 767 4166 
Q 1153 4469 1759 4469 
Q 2422 4469 2789 4161 
Q 3156 3853 3156 3303 
Q 3156 2881 2920 2617 
Q 2684 2353 2234 2259 
L 2234 2247 
Q 2728 2194 3003 1916 
Q 3278 1638 3278 1216 
z
" transform="scale(0.015625)"/>
       </defs>
       <use xlink:href="#LiberationSans-33" transform="translate(0 0.171875)"/>
      </g>
     </g>
    </g>
    <g id="ytick_5">
     <g id="line2d_26">
      <g>
       <use xlink:href="#m6c8ca8a387" x="61.8" y="190.557954" style="stroke: #000000; stroke-width: 0.8"/>
      </g>
     </g>
     <g id="text_12">
      <!-- $\mathdefault{4}$ -->
      <g transform="translate(41.5 201.428267) scale(0.3 -0.3)">
       <use xlink:href="#LiberationSans-34" transform="translate(0 0.203125)"/>
      </g>
     </g>
    </g>
    <g id="ytick_6">
     <g id="line2d_27">
      <g>
       <use xlink:href="#m6c8ca8a387" x="61.8" y="81.271768" style="stroke: #000000; stroke-width: 0.8"/>
      </g>
     </g>
     <g id="text_13">
      <!-- $\mathdefault{5}$ -->
      <g transform="translate(41.5 92.14208) scale(0.3 -0.3)">
       <defs>
        <path id="LiberationSans-35" d="M 3291 1434 
Q 3291 738 2877 337 
Q 2463 -63 1728 -63 
Q 1113 -63 734 206 
Q 356 475 256 984 
L 825 1050 
Q 1003 397 1741 397 
Q 2194 397 2450 670 
Q 2706 944 2706 1422 
Q 2706 1838 2448 2094 
Q 2191 2350 1753 2350 
Q 1525 2350 1328 2278 
Q 1131 2206 934 2034 
L 384 2034 
L 531 4403 
L 3034 4403 
L 3034 3925 
L 1044 3925 
L 959 2528 
Q 1325 2809 1869 2809 
Q 2519 2809 2905 2428 
Q 3291 2047 3291 1434 
z
" transform="scale(0.015625)"/>
       </defs>
       <use xlink:href="#LiberationSans-35" transform="translate(0 0.203125)"/>
      </g>
     </g>
    </g>
    <g id="ytick_7">
     <g id="line2d_28">
      <defs>
       <path id="mf35c1e4fce" d="M 0 0 
L 2 0 
" style="stroke: #000000; stroke-width: 0.6"/>
      </defs>
      <g>
       <use xlink:href="#mf35c1e4fce" x="61.8" y="605.845462" style="stroke: #000000; stroke-width: 0.6"/>
      </g>
     </g>
    </g>
    <g id="ytick_8">
     <g id="line2d_29">
      <g>
       <use xlink:href="#mf35c1e4fce" x="61.8" y="583.988225" style="stroke: #000000; stroke-width: 0.6"/>
      </g>
     </g>
    </g>
    <g id="ytick_9">
     <g id="line2d_30">
      <g>
       <use xlink:href="#mf35c1e4fce" x="61.8" y="562.130988" style="stroke: #000000; stroke-width: 0.6"/>
      </g>
     </g>
    </g>
    <g id="ytick_10">
     <g id="line2d_31">
      <g>
       <use xlink:href="#mf35c1e4fce" x="61.8" y="540.273751" style="stroke: #000000; stroke-width: 0.6"/>
      </g>
     </g>
    </g>
    <g id="ytick_11">
     <g id="line2d_32">
      <g>
       <use xlink:href="#mf35c1e4fce" x="61.8" y="496.559276" style="stroke: #000000; stroke-width: 0.6"/>
      </g>
     </g>
    </g>
    <g id="ytick_12">
     <g id="line2d_33">
      <g>
       <use xlink:href="#mf35c1e4fce" x="61.8" y="474.702039" style="stroke: #000000; stroke-width: 0.6"/>
      </g>
     </g>
    </g>
    <g id="ytick_13">
     <g id="line2d_34">
      <g>
       <use xlink:href="#mf35c1e4fce" x="61.8" y="452.844801" style="stroke: #000000; stroke-width: 0.6"/>
      </g>
     </g>
    </g>
    <g id="ytick_14">
     <g id="line2d_35">
      <g>
       <use xlink:href="#mf35c1e4fce" x="61.8" y="430.987564" style="stroke: #000000; stroke-width: 0.6"/>
      </g>
     </g>
    </g>
    <g id="ytick_15">
     <g id="line2d_36">
      <g>
       <use xlink:href="#mf35c1e4fce" x="61.8" y="387.27309" style="stroke: #000000; stroke-width: 0.6"/>
      </g>
     </g>
    </g>
    <g id="ytick_16">
     <g id="line2d_37">
      <g>
       <use xlink:href="#mf35c1e4fce" x="61.8" y="365.415852" style="stroke: #000000; stroke-width: 0.6"/>
      </g>
     </g>
    </g>
    <g id="ytick_17">
     <g id="line2d_38">
      <g>
       <use xlink:href="#mf35c1e4fce" x="61.8" y="343.558615" style="stroke: #000000; stroke-width: 0.6"/>
      </g>
     </g>
    </g>
    <g id="ytick_18">
     <g id="line2d_39">
      <g>
       <use xlink:href="#mf35c1e4fce" x="61.8" y="321.701378" style="stroke: #000000; stroke-width: 0.6"/>
      </g>
     </g>
    </g>
    <g id="ytick_19">
     <g id="line2d_40">
      <g>
       <use xlink:href="#mf35c1e4fce" x="61.8" y="277.986903" style="stroke: #000000; stroke-width: 0.6"/>
      </g>
     </g>
    </g>
    <g id="ytick_20">
     <g id="line2d_41">
      <g>
       <use xlink:href="#mf35c1e4fce" x="61.8" y="256.129666" style="stroke: #000000; stroke-width: 0.6"/>
      </g>
     </g>
    </g>
    <g id="ytick_21">
     <g id="line2d_42">
      <g>
       <use xlink:href="#mf35c1e4fce" x="61.8" y="234.272429" style="stroke: #000000; stroke-width: 0.6"/>
      </g>
     </g>
    </g>
    <g id="ytick_22">
     <g id="line2d_43">
      <g>
       <use xlink:href="#mf35c1e4fce" x="61.8" y="212.415191" style="stroke: #000000; stroke-width: 0.6"/>
      </g>
     </g>
    </g>
    <g id="ytick_23">
     <g id="line2d_44">
      <g>
       <use xlink:href="#mf35c1e4fce" x="61.8" y="168.700717" style="stroke: #000000; stroke-width: 0.6"/>
      </g>
     </g>
    </g>
    <g id="ytick_24">
     <g id="line2d_45">
      <g>
       <use xlink:href="#mf35c1e4fce" x="61.8" y="146.84348" style="stroke: #000000; stroke-width: 0.6"/>
      </g>
     </g>
    </g>
    <g id="ytick_25">
     <g id="line2d_46">
      <g>
       <use xlink:href="#mf35c1e4fce" x="61.8" y="124.986242" style="stroke: #000000; stroke-width: 0.6"/>
      </g>
     </g>
    </g>
    <g id="ytick_26">
     <g id="line2d_47">
      <g>
       <use xlink:href="#mf35c1e4fce" x="61.8" y="103.129005" style="stroke: #000000; stroke-width: 0.6"/>
      </g>
     </g>
    </g>
    <g id="ytick_27">
     <g id="line2d_48">
      <g>
       <use xlink:href="#mf35c1e4fce" x="61.8" y="59.41453" style="stroke: #000000; stroke-width: 0.6"/>
      </g>
     </g>
    </g>
    <g id="text_14">
     <!-- ITC $\mathrm{W} / (\mathrm{K} \cdot \mathrm{m}^2)$ -->
     <g transform="translate(31.275 433.839) rotate(-90) scale(0.3 -0.3)">
      <defs>
       <path id="LiberationSans-49" d="M 591 0 
L 591 4403 
L 1188 4403 
L 1188 0 
L 591 0 
z
" transform="scale(0.015625)"/>
       <path id="LiberationSans-43" d="M 2475 3981 
Q 1744 3981 1337 3511 
Q 931 3041 931 2222 
Q 931 1413 1354 920 
Q 1778 428 2500 428 
Q 3425 428 3891 1344 
L 4378 1100 
Q 4106 531 3614 234 
Q 3122 -63 2472 -63 
Q 1806 -63 1320 214 
Q 834 491 579 1005 
Q 325 1519 325 2222 
Q 325 3275 894 3872 
Q 1463 4469 2469 4469 
Q 3172 4469 3644 4194 
Q 4116 3919 4338 3378 
L 3772 3191 
Q 3619 3575 3280 3778 
Q 2941 3981 2475 3981 
z
" transform="scale(0.015625)"/>
       <path id="STIXGeneral-Regular-57" d="M 5965 4237 
L 5965 4115 
Q 5709 4064 5616 3990 
Q 5523 3917 5434 3667 
Q 4704 1709 4128 -70 
L 4032 -70 
Q 3642 1011 3008 2637 
L 2022 -70 
L 1926 -70 
Q 1709 576 1277 1753 
Q 845 2931 698 3347 
Q 538 3808 406 3958 
Q 275 4109 32 4115 
L 32 4237 
L 1594 4237 
L 1594 4115 
Q 1357 4109 1270 4064 
Q 1184 4019 1184 3917 
Q 1184 3808 1254 3616 
L 2176 1210 
L 2842 3021 
L 2662 3501 
Q 2509 3917 2400 4013 
Q 2291 4109 2010 4115 
L 2010 4237 
L 3706 4237 
L 3706 4115 
Q 3213 4102 3213 3891 
Q 3213 3808 3322 3520 
L 4237 1190 
L 5043 3360 
Q 5152 3667 5152 3853 
Q 5152 4109 4704 4115 
L 4704 4237 
L 5965 4237 
z
" transform="scale(0.015625)"/>
       <path id="STIXGeneral-Regular-2f" d="M 1837 4326 
L 378 -90 
L -58 -90 
L 1408 4326 
L 1837 4326 
z
" transform="scale(0.015625)"/>
       <path id="STIXGeneral-Regular-28" d="M 1946 -1030 
L 1869 -1133 
Q 1126 -710 716 32 
Q 307 774 307 1613 
Q 307 3386 1888 4326 
L 1946 4224 
Q 1293 3667 1075 3126 
Q 858 2586 858 1632 
Q 858 685 1082 96 
Q 1306 -493 1946 -1030 
z
" transform="scale(0.015625)"/>
       <path id="STIXGeneral-Regular-4b" d="M 4627 0 
L 2688 0 
L 2688 122 
L 2861 128 
Q 3130 134 3130 282 
Q 3130 397 2922 643 
Q 2714 890 2253 1370 
L 1613 2029 
L 1446 1894 
L 1446 710 
Q 1446 352 1548 253 
Q 1651 154 2016 122 
L 2016 0 
L 211 0 
L 211 122 
Q 589 141 691 262 
Q 794 384 794 800 
L 794 3514 
Q 794 3872 691 3981 
Q 589 4090 218 4115 
L 218 4237 
L 2022 4237 
L 2022 4115 
Q 1632 4090 1539 3987 
Q 1446 3885 1446 3507 
L 1446 2227 
L 2586 3277 
Q 2861 3533 2973 3667 
Q 3085 3802 3085 3910 
Q 3085 4013 3030 4057 
Q 2976 4102 2822 4109 
L 2662 4115 
L 2662 4237 
L 4320 4237 
L 4320 4115 
Q 3994 4090 3824 4003 
Q 3654 3917 3322 3597 
L 2131 2458 
L 3629 819 
Q 4026 384 4214 253 
Q 4403 122 4627 122 
L 4627 0 
z
" transform="scale(0.015625)"/>
       <path id="STIXGeneral-Regular-22c5" d="M 1187 1888 
Q 1299 1773 1299 1619 
Q 1299 1466 1187 1350 
Q 1075 1235 921 1235 
Q 768 1235 649 1353 
Q 531 1472 531 1619 
Q 531 1766 649 1884 
Q 768 2003 921 2003 
Q 1075 2003 1187 1888 
z
" transform="scale(0.015625)"/>
       <path id="STIXGeneral-Regular-6d" d="M 4960 0 
L 3565 0 
L 3565 96 
Q 3834 122 3907 208 
Q 3981 294 3981 576 
L 3981 1894 
Q 3981 2278 3869 2444 
Q 3757 2611 3488 2611 
Q 3264 2611 3107 2521 
Q 2950 2432 2803 2221 
L 2803 608 
Q 2803 301 2896 201 
Q 2989 102 3264 96 
L 3264 0 
L 1830 0 
L 1830 96 
Q 2112 115 2189 188 
Q 2266 262 2266 550 
L 2266 1901 
Q 2266 2611 1850 2611 
Q 1670 2611 1468 2531 
Q 1267 2451 1171 2336 
Q 1088 2240 1088 2227 
L 1088 448 
Q 1088 243 1177 176 
Q 1267 109 1523 96 
L 1523 0 
L 102 0 
L 102 96 
Q 371 102 460 195 
Q 550 288 550 563 
L 550 2150 
Q 550 2387 499 2480 
Q 448 2573 326 2573 
Q 230 2573 122 2547 
L 122 2656 
Q 557 2778 1011 2944 
L 1062 2925 
L 1062 2451 
L 1075 2451 
Q 1363 2752 1584 2848 
Q 1805 2944 2054 2944 
Q 2560 2944 2733 2406 
Q 3232 2944 3776 2944 
Q 4518 2944 4518 1792 
L 4518 493 
Q 4518 282 4582 202 
Q 4646 122 4794 109 
L 4960 96 
L 4960 0 
z
" transform="scale(0.015625)"/>
       <path id="STIXGeneral-Regular-32" d="M 3034 877 
L 2688 0 
L 186 0 
L 186 77 
L 1325 1286 
Q 1773 1754 1965 2144 
Q 2157 2534 2157 2950 
Q 2157 3379 1920 3616 
Q 1683 3853 1267 3853 
Q 922 3853 720 3673 
Q 518 3494 326 3021 
L 192 3053 
Q 301 3648 630 3987 
Q 960 4326 1523 4326 
Q 2054 4326 2380 4006 
Q 2707 3686 2707 3200 
Q 2707 2477 1888 1613 
L 832 486 
L 2330 486 
Q 2541 486 2665 569 
Q 2790 653 2944 915 
L 3034 877 
z
" transform="scale(0.015625)"/>
       <path id="STIXGeneral-Regular-29" d="M 186 4224 
L 262 4326 
Q 992 3891 1408 3148 
Q 1824 2406 1824 1581 
Q 1824 -166 243 -1133 
L 186 -1030 
Q 845 -486 1059 54 
Q 1274 595 1274 1562 
Q 1274 2534 1059 3120 
Q 845 3706 186 4224 
z
" transform="scale(0.015625)"/>
      </defs>
      <use xlink:href="#LiberationSans-49" transform="translate(0 0.409375)"/>
      <use xlink:href="#LiberationSans-54" transform="translate(27.783203 0.409375)"/>
      <use xlink:href="#LiberationSans-43" transform="translate(88.867188 0.409375)"/>
      <use xlink:href="#LiberationSans-20" transform="translate(161.083984 0.409375)"/>
      <use xlink:href="#STIXGeneral-Regular-57" transform="translate(188.867188 0.409375)"/>
      <use xlink:href="#STIXGeneral-Regular-2f" transform="translate(283.267181 0.409375)"/>
      <use xlink:href="#STIXGeneral-Regular-28" transform="translate(311.067169 0.409375)"/>
      <use xlink:href="#STIXGeneral-Regular-4b" transform="translate(344.367157 0.409375)"/>
      <use xlink:href="#STIXGeneral-Regular-22c5" transform="translate(431.007135 0.409375)"/>
      <use xlink:href="#STIXGeneral-Regular-6d" transform="translate(474.047122 0.409375)"/>
      <use xlink:href="#STIXGeneral-Regular-32" transform="translate(553.390391 35.684375) scale(0.7)"/>
      <use xlink:href="#STIXGeneral-Regular-29" transform="translate(592.799756 0.409375)"/>
     </g>
    </g>
    <g id="text_15">
     <!-- $\times\mathdefault{10^{6}}\mathdefault{}$ -->
     <g transform="translate(61.8 36.1875) scale(0.4 -0.4)">
      <defs>
       <path id="STIXGeneral-Regular-d7" d="M 3821 141 
L 3526 -160 
L 2048 1312 
L 570 -160 
L 275 134 
L 1747 1613 
L 275 3091 
L 576 3386 
L 2048 1914 
L 3526 3386 
L 3821 3098 
L 2349 1613 
L 3821 141 
z
" transform="scale(0.015625)"/>
      </defs>
      <use xlink:href="#STIXGeneral-Regular-d7" transform="translate(0 0.140625)"/>
      <use xlink:href="#LiberationSans-31" transform="translate(63.999985 0.140625)"/>
      <use xlink:href="#LiberationSans-30" transform="translate(119.615219 0.140625)"/>
      <use xlink:href="#LiberationSans-36" transform="translate(176.154946 37.120312) scale(0.7)"/>
     </g>
    </g>
   </g>
   <g id="line2d_49">
    <path d="M 90.932455 612.017841 
L 92.214667 294.154208 
L 92.914056 169.337433 
L 93.438597 107.657273 
L 93.904857 76.60257 
L 94.196269 67.987935 
L 94.371116 66.514909 
L 94.429398 66.605732 
L 94.545963 67.622447 
L 94.779093 72.808471 
L 95.128787 87.617496 
L 95.595046 117.998649 
L 96.352717 184.390914 
L 99.09199 439.274967 
L 100.024508 501.304618 
L 100.840461 541.59115 
L 101.481568 563.74779 
L 102.006109 575.617393 
L 102.414086 581.039853 
L 102.76378 583.150081 
L 102.938628 583.370381 
L 103.055192 583.221878 
L 103.23004 582.573391 
L 103.521452 580.421588 
L 103.929428 575.386755 
L 104.512252 564.859246 
L 105.386488 544.365546 
L 107.309807 498.488561 
L 108.067478 485.701866 
L 108.650302 478.967852 
L 109.116561 475.634673 
L 109.466256 474.330836 
L 109.699385 474.01853 
L 109.874233 474.068956 
L 110.107362 474.504598 
L 110.398774 475.618064 
L 110.806751 478.171327 
L 111.331292 482.980543 
L 112.030681 491.579789 
L 113.138047 508.461833 
L 115.236213 540.759454 
L 116.110449 550.766686 
L 116.809837 556.455681 
L 117.392661 559.480467 
L 117.800638 560.655507 
L 118.09205 561.027363 
L 118.32518 561.052044 
L 118.558309 560.842224 
L 118.849721 560.264596 
L 119.257698 558.908653 
L 119.782239 556.343706 
L 120.539911 551.410102 
L 122.987771 534.511925 
L 123.570595 532.170196 
L 124.036854 531.046772 
L 124.386549 530.643457 
L 124.677961 530.581047 
L 124.969373 530.748774 
L 125.319067 531.221611 
L 125.843608 532.389493 
L 126.60128 534.741464 
L 129.865094 545.650001 
L 130.681047 547.414266 
L 131.263871 548.173724 
L 131.671848 548.375813 
L 132.021542 548.291835 
L 132.371237 547.942225 
L 132.779213 547.170953 
L 133.245472 545.787758 
L 133.828296 543.311461 
L 134.585968 538.98703 
L 135.751615 530.749181 
L 137.55837 518.031002 
L 138.54917 512.654456 
L 139.365124 509.338834 
L 140.122795 507.114897 
L 140.822184 505.727067 
L 141.405008 505.018184 
L 141.929549 504.702863 
L 142.395808 504.65898 
L 142.92035 504.84585 
L 143.561456 505.349781 
L 144.552257 506.477959 
L 145.83447 507.879752 
L 146.533858 508.338162 
L 147.174965 508.496031 
L 147.816071 508.41421 
L 148.573742 508.077697 
L 149.972519 507.142632 
L 151.371297 506.310818 
L 152.245533 506.028172 
L 152.944922 506.011263 
L 153.586028 506.2131 
L 154.227134 506.668993 
L 154.868241 507.41303 
L 155.567629 508.569858 
L 156.383583 510.356501 
L 157.432666 513.243392 
L 158.773161 517.649153 
L 160.638198 524.624566 
L 162.852929 532.777515 
L 163.902012 535.781935 
L 164.776248 537.644784 
L 165.592201 538.892972 
L 166.466437 539.831463 
L 167.457238 540.570835 
L 168.506321 541.089171 
L 169.438839 541.310064 
L 170.313075 541.281877 
L 171.303876 541.008956 
L 175.616773 539.304784 
L 176.432726 538.675001 
L 177.24868 537.762571 
L 178.23948 536.305193 
L 179.754823 533.621294 
L 181.561577 529.996285 
L 182.902072 526.793087 
L 184.592261 522.084636 
L 186.282451 517.554771 
L 187.273252 515.485467 
L 188.147487 514.145966 
L 188.963441 513.291975 
L 189.779394 512.75894 
L 190.65363 512.454423 
L 191.760996 512.317114 
L 195.491069 512.043824 
L 199.104577 511.34044 
L 199.920531 511.525068 
L 200.678202 511.920396 
L 201.494156 512.614458 
L 202.368392 513.683909 
L 203.30091 515.207402 
L 204.349993 517.393264 
L 205.573923 520.512669 
L 207.555525 526.309685 
L 209.420561 531.515773 
L 210.702774 534.445452 
L 211.810139 536.443924 
L 212.80094 537.813446 
L 213.733458 538.74621 
L 214.607694 539.30719 
L 215.423648 539.562954 
L 216.239601 539.582427 
L 217.17212 539.372702 
L 218.570897 538.794739 
L 223.408336 536.452747 
L 224.573984 535.507295 
L 225.797914 534.223143 
L 227.138409 532.489255 
L 228.653751 530.14563 
L 230.227376 527.279444 
L 231.801 523.927004 
L 233.782602 519.108165 
L 235.705921 514.596231 
L 236.755004 512.691921 
L 237.62924 511.554921 
L 238.386911 510.911577 
L 239.144582 510.558 
L 239.902253 510.454232 
L 240.718207 510.582206 
L 241.592443 510.9654 
L 242.524961 511.62564 
L 243.807174 512.838946 
L 245.847057 514.770941 
L 247.070988 515.582818 
L 249.110871 516.852422 
L 249.985107 517.737328 
L 250.859343 518.970117 
L 251.850144 520.782864 
L 253.248921 523.871824 
L 256.163041 530.397262 
L 257.445254 532.673453 
L 258.669184 534.399714 
L 259.893114 535.75227 
L 261.117044 536.78567 
L 262.107845 537.35913 
L 262.923799 537.59627 
L 263.68147 537.580635 
L 264.380859 537.345369 
L 265.196812 536.814151 
L 266.245895 535.819141 
L 269.917686 532.069426 
L 272.598676 529.594914 
L 279.709128 522.132419 
L 285.59565 515.537599 
L 286.528168 514.93396 
L 287.402404 514.633721 
L 288.27664 514.579948 
L 289.209158 514.74971 
L 290.316524 515.186821 
L 291.540454 515.916022 
L 292.822667 516.947787 
L 294.338009 518.47763 
L 296.494458 520.995204 
L 298.126365 523.209348 
L 299.699989 525.760478 
L 302.264414 529.969671 
L 303.60491 531.68381 
L 305.236817 533.378631 
L 307.568112 535.466674 
L 309.374867 536.807561 
L 310.540514 537.42708 
L 311.41475 537.656217 
L 312.114139 537.627751 
L 312.813528 537.369915 
L 313.512917 536.867343 
L 314.32887 535.995184 
L 315.5528 534.301259 
L 317.417837 531.731171 
L 318.525202 530.593317 
L 320.273674 529.1938 
L 321.672452 527.927017 
L 326.393326 523.266525 
L 329.482292 520.998673 
L 330.997635 520.149357 
L 332.629542 519.500549 
L 334.552861 518.967753 
L 335.776791 518.835413 
L 336.884156 518.944336 
L 338.049804 519.300702 
L 339.506864 520.001083 
L 341.080489 521.001642 
L 342.362701 522.083096 
L 343.644914 523.475723 
L 345.509951 525.893536 
L 348.948612 530.341383 
L 350.580519 532.126861 
L 351.629602 532.96554 
L 352.503838 533.399264 
L 353.378074 533.586302 
L 354.368875 533.557609 
L 356.000782 533.236421 
L 357.982383 532.914133 
L 361.07135 532.519924 
L 362.120433 532.084852 
L 363.169516 531.398985 
L 364.393446 530.307259 
L 366.083636 528.462471 
L 370.454815 523.582192 
L 371.79531 522.428555 
L 372.786111 521.848109 
L 373.660347 521.574536 
L 374.592865 521.515474 
L 375.93336 521.6899 
L 377.39042 521.827791 
L 378.322938 521.688801 
L 379.313739 521.298228 
L 382.286141 519.900417 
L 383.102095 519.879007 
L 383.976331 520.085743 
L 385.316826 520.672911 
L 387.356709 521.535971 
L 389.921135 522.544736 
L 391.086783 523.30186 
L 392.543843 524.547418 
L 395.516245 527.154476 
L 397.556128 528.523184 
L 399.246318 529.7684 
L 402.568414 532.424339 
L 403.326085 532.650998 
L 404.025474 532.638794 
L 404.783145 532.397706 
L 405.715664 531.848791 
L 409.911996 529.038339 
L 413.933481 527.103975 
L 415.390541 525.988757 
L 418.421225 523.57594 
L 419.470308 523.079807 
L 420.635956 522.790697 
L 424.016335 522.137953 
L 426.056219 521.642331 
L 427.280149 521.600298 
L 428.853774 521.800152 
L 433.341518 522.692768 
L 434.565448 523.153 
L 435.497967 523.73986 
L 436.372203 524.558811 
L 437.304721 525.744198 
L 438.761781 528.030969 
L 440.160558 530.095688 
L 440.976512 530.943783 
L 441.6759 531.381422 
L 442.375289 531.550837 
L 443.074678 531.489922 
L 444.007196 531.160457 
L 447.212728 529.811292 
L 448.320093 529.687918 
L 449.427459 529.79306 
L 450.767954 530.166265 
L 453.215814 530.897591 
L 454.264898 530.931819 
L 455.372263 530.732472 
L 457.179017 530.132734 
L 458.869207 529.386515 
L 459.860007 528.694101 
L 460.792526 527.753579 
L 461.958174 526.214262 
L 464.05634 523.375592 
L 464.930576 522.599909 
L 465.688247 522.224382 
L 466.445918 522.106772 
L 467.378436 522.217756 
L 469.768014 522.630474 
L 470.700533 522.498476 
L 471.924463 522.074874 
L 473.614652 521.498982 
L 474.547171 521.426673 
L 475.479689 521.591273 
L 476.645337 522.051072 
L 481.715905 524.550397 
L 485.154566 526.503109 
L 486.320214 526.823651 
L 487.777274 526.970247 
L 493.605513 527.337301 
L 494.887726 527.653625 
L 496.111656 528.196583 
L 499.37547 529.824285 
L 500.249706 529.895054 
L 501.123942 529.723048 
L 502.114743 529.284718 
L 503.921497 528.178466 
L 506.369358 526.773595 
L 508.875501 525.288346 
L 510.915384 524.110353 
L 512.314162 523.584147 
L 514.237481 522.878626 
L 515.286564 522.223989 
L 516.860189 520.9176 
L 518.084119 520.032935 
L 518.84179 519.737649 
L 519.541179 519.702754 
L 520.240567 519.908728 
L 520.998238 520.379984 
L 521.989039 521.291854 
L 523.795793 523.343404 
L 525.602548 525.26268 
L 526.651631 526.080483 
L 527.525867 526.488632 
L 528.283538 526.596298 
L 529.041209 526.464223 
L 529.857162 526.08212 
L 531.081093 525.221841 
L 532.47987 524.306162 
L 533.237541 524.063095 
L 533.878647 524.071879 
L 534.519754 524.301833 
L 535.219143 524.806283 
L 536.035096 525.695147 
L 537.142462 527.272456 
L 539.473757 530.680311 
L 540.289711 531.470646 
L 540.9891 531.863402 
L 541.630206 531.968341 
L 542.271312 531.826704 
L 542.912419 531.453401 
L 543.728372 530.695324 
L 544.952302 529.187338 
L 546.642492 527.151126 
L 547.516728 526.442775 
L 548.274399 526.100476 
L 549.03207 526.00316 
L 549.906306 526.137211 
L 551.071954 526.567157 
L 553.927791 527.702235 
L 554.976874 527.855813 
L 555.85111 527.767013 
L 556.667063 527.457796 
L 557.541299 526.867042 
L 558.590382 525.865031 
L 560.921678 523.541169 
L 561.737632 523.088453 
L 562.43702 522.951918 
L 563.078127 523.041563 
L 563.777516 523.358598 
L 564.651751 524.014756 
L 566.225376 525.550324 
L 567.565871 526.723334 
L 568.498389 527.254527 
L 569.314343 527.479676 
L 570.188579 527.489342 
L 571.237662 527.268213 
L 575.550559 526.104841 
L 576.657925 526.145567 
L 577.707008 526.412351 
L 578.814373 526.941898 
L 580.387998 527.984395 
L 582.13647 529.081394 
L 583.243835 529.521183 
L 584.292918 529.698118 
L 585.400284 529.645857 
L 586.857343 529.31984 
L 589.072074 528.826608 
L 590.762264 528.733565 
L 592.6273 528.583324 
L 594.200925 528.199537 
L 597.348174 527.391076 
L 599.154929 526.87486 
L 601.427942 525.915168 
L 602.768437 525.495792 
L 603.992367 525.349476 
L 605.915686 525.392171 
L 608.654959 525.393998 
L 616.814494 525.227986 
L 617.805295 525.534599 
L 618.796095 526.080786 
L 619.961743 526.997632 
L 622.059909 528.697516 
L 622.875863 529.054743 
L 623.633534 529.136029 
L 624.391205 528.981677 
L 625.323723 528.546911 
L 628.64582 526.78509 
L 629.811468 526.532206 
L 630.918833 526.52001 
L 632.084481 526.741426 
L 633.424976 527.236998 
L 635.523142 528.285998 
L 638.728674 529.87818 
L 639.777757 530.127663 
L 640.593711 530.106005 
L 641.409664 529.859932 
L 642.2839 529.359506 
L 643.566113 528.335152 
L 645.431149 526.867655 
L 646.596797 526.242446 
L 647.995575 525.75982 
L 650.793129 525.080138 
L 652.250189 524.930914 
L 653.882096 525.008874 
L 656.038545 525.081951 
L 659.593771 525.025917 
L 660.992548 525.354782 
L 664.664339 526.338659 
L 666.529376 526.533429 
L 669.79319 526.813526 
L 670.842273 527.201055 
L 671.949638 527.866531 
L 673.581545 529.040066 
L 673.581545 529.040066 
" clip-path="url(#p054613d3b7)" style="fill: none; stroke: #ff0000; stroke-width: 1.5; stroke-linecap: square"/>
   </g>
   <g id="line2d_50">
    <path d="M 90.932455 613.063091 
L 92.156385 333.883757 
L 92.855774 220.575211 
L 93.380315 165.350541 
L 93.788292 140.304356 
L 94.137986 130.51168 
L 94.312833 129.315527 
L 94.371116 129.426346 
L 94.487681 130.374168 
L 94.72081 134.987333 
L 95.070505 147.860687 
L 95.595046 177.477117 
L 96.527564 246.593035 
L 98.217754 371.015681 
L 99.266837 431.066655 
L 100.199355 472.374659 
L 101.015309 499.374421 
L 101.714697 515.486816 
L 102.239239 523.240241 
L 102.705498 527.125039 
L 102.99691 528.20492 
L 103.171757 528.390186 
L 103.346604 528.252077 
L 103.579734 527.601239 
L 103.929428 525.72976 
L 104.395688 521.863212 
L 105.153359 513.425956 
L 106.785266 494.843273 
L 107.484654 489.540132 
L 108.009196 487.099055 
L 108.417173 486.120067 
L 108.708585 485.89904 
L 108.941714 485.997447 
L 109.233126 486.446054 
L 109.641103 487.635302 
L 110.165645 489.984926 
L 110.923316 494.555487 
L 113.021482 507.960061 
L 113.662588 510.442783 
L 114.128847 511.46434 
L 114.478542 511.772681 
L 114.769954 511.734429 
L 115.061366 511.43805 
L 115.469342 510.616778 
L 115.993884 508.948031 
L 116.751555 505.63003 
L 118.150332 498.232788 
L 119.840522 489.690629 
L 120.656475 486.515114 
L 121.239299 484.966844 
L 121.705558 484.262049 
L 122.055253 484.063375 
L 122.346665 484.109537 
L 122.696359 484.392813 
L 123.220901 485.176346 
L 125.085937 488.393722 
L 125.435632 488.524076 
L 125.727044 488.432185 
L 126.076738 488.072432 
L 126.542997 487.205135 
L 127.242386 485.314646 
L 128.524599 481.82256 
L 129.04914 481.002674 
L 129.398834 480.77184 
L 129.690246 480.786616 
L 130.039941 481.053911 
L 130.447918 481.685957 
L 131.030741 483.065932 
L 132.079825 486.280618 
L 133.128908 489.237088 
L 133.828296 490.604476 
L 134.527685 491.500471 
L 135.576768 492.417605 
L 136.392722 493.266196 
L 137.09211 494.323552 
L 137.908064 496.009736 
L 139.073712 499.014098 
L 140.880466 503.691329 
L 141.69642 505.172242 
L 142.337526 505.906046 
L 142.862067 506.178528 
L 143.328327 506.16341 
L 143.794586 505.926975 
L 144.37741 505.359863 
L 145.076798 504.347336 
L 146.184164 502.277212 
L 147.816071 498.730852 
L 149.50626 494.433933 
L 150.671908 491.765591 
L 151.546144 490.294164 
L 152.362098 489.361283 
L 153.178051 488.773274 
L 154.052287 488.416289 
L 155.043088 488.239126 
L 155.859041 488.308156 
L 156.55843 488.599483 
L 157.199536 489.116151 
L 157.957207 490.045841 
L 159.064573 491.822858 
L 160.69648 494.402299 
L 161.512433 495.29543 
L 162.270105 495.799769 
L 163.086058 496.072358 
L 164.659683 496.508219 
L 165.417354 497.016087 
L 166.233307 497.860602 
L 168.681168 500.639006 
L 169.205709 500.808494 
L 169.730251 500.729952 
L 170.254793 500.415212 
L 170.954181 499.694467 
L 174.276278 495.772762 
L 177.073833 493.202083 
L 178.70574 491.682217 
L 179.463411 491.293006 
L 180.104517 491.210632 
L 180.745623 491.345603 
L 181.619859 491.784047 
L 183.018637 492.496448 
L 183.659743 492.558807 
L 184.242567 492.39106 
L 184.941956 491.939976 
L 186.98184 490.433001 
L 187.564663 490.34766 
L 188.147487 490.50554 
L 188.788594 490.929783 
L 189.895959 491.997106 
L 191.178172 493.156876 
L 192.168973 493.757816 
L 194.208856 494.87931 
L 195.083092 495.728847 
L 196.24874 497.223597 
L 197.93893 499.342557 
L 198.813165 500.093405 
L 199.629119 500.502526 
L 200.561637 500.693795 
L 204.408275 501.030564 
L 205.049382 500.705317 
L 205.632206 500.154308 
L 206.273312 499.236488 
L 207.089265 497.646027 
L 208.954302 493.821772 
L 209.711973 492.856717 
L 210.411362 492.333307 
L 211.110751 492.098102 
L 211.984986 492.0616 
L 214.374565 492.090897 
L 215.656777 492.131041 
L 216.531013 492.395657 
L 217.521814 492.95252 
L 220.086239 494.56123 
L 220.960475 494.745027 
L 223.116924 495.025295 
L 223.75803 495.451379 
L 224.457419 496.209497 
L 225.389937 497.604245 
L 226.963562 499.985137 
L 227.604668 500.565522 
L 228.187492 500.797749 
L 228.712034 500.767715 
L 229.294857 500.505389 
L 230.169093 499.829138 
L 231.917565 498.450151 
L 233.666037 497.492174 
L 234.889967 496.675318 
L 236.113898 495.565365 
L 237.920652 493.904184 
L 238.736605 493.462091 
L 239.494276 493.290992 
L 240.426795 493.327358 
L 241.76729 493.380822 
L 242.466678 493.169862 
L 243.22435 492.692225 
L 245.788775 490.783885 
L 246.371599 490.745785 
L 246.954423 490.935862 
L 247.653811 491.414208 
L 248.819459 492.540804 
L 252.666097 496.6988 
L 255.871629 500.727729 
L 256.512735 501.061382 
L 257.095559 501.123181 
L 257.678383 500.952526 
L 258.31949 500.523531 
L 259.426855 499.445047 
L 260.76735 498.232493 
L 261.874716 497.566388 
L 263.273493 496.717381 
L 264.031164 495.95396 
L 264.788835 494.842488 
L 265.779636 492.921721 
L 266.887001 490.853682 
L 267.644673 489.887038 
L 268.285779 489.422927 
L 268.868603 489.263578 
L 269.509709 489.324245 
L 270.325663 489.639305 
L 274.230583 491.657675 
L 275.163101 492.583657 
L 276.328749 494.094794 
L 278.135503 496.434708 
L 278.893175 497.052514 
L 279.592563 497.344626 
L 280.350234 497.394217 
L 282.506683 497.359286 
L 283.439201 497.680695 
L 285.012826 498.25722 
L 285.653932 498.223556 
L 286.295039 497.955273 
L 287.110992 497.335096 
L 288.801182 495.956801 
L 289.442288 495.737607 
L 290.083394 495.747842 
L 291.015912 496.024626 
L 292.18156 496.334466 
L 292.880949 496.273565 
L 293.580338 495.966508 
L 294.396291 495.342215 
L 296.494458 493.610699 
L 297.310411 493.286819 
L 298.301212 493.154085 
L 299.758272 492.964782 
L 300.515943 492.623082 
L 301.448461 491.923036 
L 303.080368 490.641772 
L 303.721474 490.445551 
L 304.304298 490.504137 
L 304.887122 490.79049 
L 305.703076 491.48104 
L 307.976089 493.560541 
L 310.831926 495.624565 
L 311.706162 496.804078 
L 313.163222 499.268819 
L 314.32887 501.028181 
L 315.086541 501.782177 
L 315.727647 502.11116 
L 316.310471 502.17219 
L 317.068143 501.998715 
L 319.807415 501.149144 
L 320.623369 500.816018 
L 321.264475 500.319612 
L 321.905581 499.526279 
L 322.60497 498.278986 
L 323.537488 496.094431 
L 325.05283 492.494521 
L 325.752219 491.456658 
L 326.335043 490.965924 
L 326.917867 490.771488 
L 327.558973 490.803151 
L 330.006834 491.173927 
L 331.114199 490.876895 
L 332.163283 490.654465 
L 332.862671 490.732846 
L 333.56206 491.047187 
L 334.319731 491.647393 
L 335.427097 492.845978 
L 337.233851 494.808242 
L 338.399499 495.721213 
L 339.973123 496.947701 
L 340.963924 498.027188 
L 343.586632 501.095932 
L 344.169456 501.336523 
L 344.693997 501.330622 
L 345.276821 501.09727 
L 346.034492 500.530133 
L 347.899529 499.037953 
L 348.773765 498.674366 
L 350.755366 497.978816 
L 351.454755 497.418218 
L 352.212426 496.513075 
L 353.261509 494.845095 
L 354.776851 492.469166 
L 355.534522 491.701139 
L 356.175629 491.367975 
L 356.816735 491.307194 
L 357.632689 491.487308 
L 359.031466 491.81631 
L 359.84742 491.759635 
L 361.887303 491.462601 
L 362.586692 491.686143 
L 363.344363 492.177549 
L 365.267682 493.543619 
L 365.967071 493.690336 
L 366.724742 493.603932 
L 368.414931 493.307167 
L 368.939473 493.487628 
L 369.464015 493.894616 
L 370.046838 494.625502 
L 370.80451 495.964311 
L 372.378134 499.369546 
L 373.427217 501.343768 
L 374.184888 502.324593 
L 374.825995 502.817738 
L 375.467101 503.045816 
L 376.283055 503.086844 
L 377.62355 502.891329 
L 378.556068 502.578349 
L 379.255457 502.112412 
L 379.896563 501.407036 
L 380.537669 500.370133 
L 381.295341 498.703088 
L 382.402706 495.645312 
L 383.510071 492.797317 
L 384.326025 491.299227 
L 385.025414 490.442093 
L 385.841367 489.803179 
L 387.356709 488.9968 
L 389.746288 487.818755 
L 390.329112 487.848614 
L 390.911935 488.126918 
L 391.553042 488.721976 
L 392.310713 489.763553 
L 393.651208 492.09333 
L 394.875138 494.050061 
L 395.691092 494.943751 
L 396.448763 495.45882 
L 398.838341 496.794734 
L 399.654295 497.713219 
L 402.510132 501.289287 
L 403.151238 501.589816 
L 403.850627 501.669861 
L 406.589899 501.679922 
L 408.046959 501.952175 
L 408.629783 501.830365 
L 409.212607 501.460088 
L 409.795431 500.805694 
L 410.49482 499.646671 
L 411.427338 497.608267 
L 413.17581 493.714969 
L 413.933481 492.555065 
L 414.574587 491.947192 
L 415.157411 491.681439 
L 415.798518 491.639188 
L 416.731036 491.843307 
L 420.22798 492.952468 
L 421.043933 493.641649 
L 423.550076 496.011357 
L 424.191182 496.172576 
L 424.832289 496.083108 
L 425.706525 495.697612 
L 426.81389 495.239745 
L 427.396714 495.239889 
L 427.921256 495.447008 
L 428.504079 495.923614 
L 429.261751 496.884069 
L 430.543963 498.970661 
L 431.826176 500.918602 
L 432.642129 501.789792 
L 433.399801 502.271169 
L 434.215754 502.512385 
L 435.32312 502.588088 
L 436.488767 502.461603 
L 437.246439 502.162665 
L 437.887545 501.688936 
L 438.528651 500.942903 
L 439.22804 499.767526 
L 440.102276 497.806975 
L 442.083877 493.096688 
L 442.841548 491.920295 
L 443.540937 491.203593 
L 444.298608 490.744559 
L 445.231127 490.465555 
L 447.096163 490.202664 
L 447.970399 490.255324 
L 448.669788 490.520773 
L 449.369176 491.044782 
L 450.18513 491.96676 
L 451.292495 493.6125 
L 453.390662 496.781292 
L 454.381462 497.838985 
L 455.605393 498.779367 
L 457.645276 500.357415 
L 459.335466 501.668078 
L 460.034855 501.916908 
L 460.617678 501.885596 
L 461.200502 501.630914 
L 461.958174 501.025676 
L 464.05634 499.15642 
L 464.697446 498.933795 
L 465.396835 498.935558 
L 466.445918 499.214428 
L 467.436719 499.415731 
L 468.136107 499.326891 
L 468.777214 499.003516 
L 469.476602 498.374757 
L 470.525685 497.078107 
L 472.215875 495.017839 
L 473.32324 494.053091 
L 475.129995 492.559524 
L 476.23736 491.239993 
L 477.519573 489.745187 
L 478.102397 489.386865 
L 478.568656 489.34541 
L 479.034915 489.551546 
L 479.501174 490.011132 
L 480.083998 490.907325 
L 480.958234 492.708949 
L 482.881553 496.771551 
L 483.755789 498.067982 
L 484.630025 498.965918 
L 485.795673 499.795227 
L 487.602427 500.775045 
L 488.826357 501.207854 
L 489.933723 501.367045 
L 491.390782 501.313956 
L 492.55643 501.339046 
L 493.430666 501.590631 
L 495.936809 502.546526 
L 496.461351 502.392449 
L 496.985892 501.990502 
L 497.568716 501.221403 
L 498.268105 499.875615 
L 500.949095 494.119548 
L 501.648484 493.369084 
L 502.347872 492.928859 
L 504.854015 491.657414 
L 505.961381 490.547269 
L 507.185311 489.383587 
L 507.8847 489.007427 
L 508.467524 488.924175 
L 509.050348 489.071711 
L 509.691454 489.484873 
L 510.449125 490.255067 
L 511.906185 492.156962 
L 513.712939 494.387238 
L 515.869388 497.056584 
L 517.559577 499.123518 
L 518.258966 499.64888 
L 518.84179 499.837913 
L 519.424614 499.801406 
L 520.124003 499.51781 
L 522.338734 498.415624 
L 523.038122 498.432138 
L 524.028923 498.721935 
L 525.194571 499.023586 
L 525.835677 498.969871 
L 526.476783 498.681695 
L 527.176172 498.094308 
L 528.108691 496.976159 
L 529.682315 495.078382 
L 530.439986 494.518444 
L 531.081093 494.301704 
L 531.838764 494.295104 
L 533.528953 494.383412 
L 534.228342 494.110063 
L 535.044295 493.513846 
L 536.61792 492.29404 
L 537.259026 492.112346 
L 537.84185 492.194169 
L 538.482957 492.537668 
L 539.473757 493.385757 
L 540.9891 494.660354 
L 541.9799 495.178913 
L 544.66089 496.341525 
L 545.943103 497.354226 
L 547.749857 498.74197 
L 548.740658 499.217887 
L 549.789741 499.465685 
L 551.596495 499.847942 
L 554.044356 500.610151 
L 554.62718 500.449202 
L 555.151721 500.068947 
L 555.734545 499.346998 
L 556.433934 498.072565 
L 557.424735 495.706432 
L 558.590382 493.088947 
L 559.464618 491.640094 
L 560.338854 490.620279 
L 561.504502 489.638521 
L 563.777516 487.76797 
L 564.768316 487.084173 
L 565.409423 486.885819 
L 565.992246 486.92765 
L 566.57507 487.186925 
L 567.216177 487.715025 
L 568.03213 488.698169 
L 569.314343 490.655917 
L 570.887968 492.961301 
L 572.053615 494.261469 
L 574.326629 496.365586 
L 575.783689 497.536152 
L 576.54136 497.891492 
L 577.182466 497.96964 
L 577.881855 497.826229 
L 578.872656 497.352374 
L 580.154868 496.764586 
L 580.970822 496.637501 
L 582.078187 496.72451 
L 583.068988 496.724626 
L 583.710094 496.508452 
L 584.351201 496.04372 
L 585.050589 495.232802 
L 585.924825 493.834403 
L 588.022991 490.295366 
L 588.780662 489.500183 
L 589.480051 489.077607 
L 590.296005 488.858437 
L 591.986194 488.488371 
L 592.976995 487.961707 
L 594.259207 487.294529 
L 594.842031 487.231547 
L 595.366573 487.384739 
L 595.949397 487.812454 
L 596.648786 488.656739 
L 597.814434 490.511691 
L 599.213211 492.625966 
L 600.437141 494.044195 
L 602.069048 495.930064 
L 603.234696 497.704811 
L 605.158015 500.671954 
L 605.915686 501.425831 
L 606.556793 501.76851 
L 607.139617 501.845195 
L 607.780723 501.698889 
L 608.654959 501.235311 
L 611.743926 499.180891 
L 612.443314 498.390016 
L 613.142703 497.250621 
L 613.900374 495.55185 
L 614.832892 492.864 
L 616.639647 487.522192 
L 617.339035 486.21255 
L 617.921859 485.561078 
L 618.446401 485.289601 
L 618.970942 485.267046 
L 619.612049 485.482014 
L 620.835979 486.204972 
L 622.351321 486.977744 
L 623.808381 487.757721 
L 624.857464 488.615588 
L 628.121278 491.549591 
L 628.995514 491.870741 
L 631.151963 492.491206 
L 631.909634 493.083646 
L 632.725587 494.027077 
L 635.173448 497.113585 
L 635.756272 497.40776 
L 636.339096 497.447665 
L 636.980202 497.23568 
L 637.91272 496.643748 
L 639.36978 495.74683 
L 642.05077 494.391344 
L 642.866724 493.514062 
L 643.857525 492.077171 
L 646.072256 488.723045 
L 646.946491 487.881455 
L 647.820727 487.354266 
L 650.443435 486.030272 
L 652.541601 484.529495 
L 653.124425 484.465499 
L 653.648967 484.640884 
L 654.231791 485.100856 
L 654.931179 485.96996 
L 657.728734 489.832514 
L 658.719535 490.58974 
L 660.234877 491.704182 
L 661.050831 492.665536 
L 661.983349 494.156223 
L 664.664339 498.74205 
L 665.363728 499.424695 
L 666.004834 499.750698 
L 666.645941 499.811745 
L 667.403612 499.637874 
L 668.452695 499.137818 
L 669.56006 498.376429 
L 670.376014 497.551287 
L 671.133685 496.465997 
L 671.891356 494.990355 
L 672.823874 492.638284 
L 673.581545 490.43491 
L 673.581545 490.43491 
" clip-path="url(#p054613d3b7)" style="fill: none; stroke: #0000ff; stroke-width: 1.5; stroke-linecap: square"/>
   </g>
   <g id="patch_3">
    <path d="M 61.8 640.3905 
L 61.8 39.1875 
" style="fill: none; stroke: #000000; stroke-width: 0.8; stroke-linejoin: miter; stroke-linecap: square"/>
   </g>
   <g id="patch_4">
    <path d="M 702.714 640.3905 
L 702.714 39.1875 
" style="fill: none; stroke: #000000; stroke-width: 0.8; stroke-linejoin: miter; stroke-linecap: square"/>
   </g>
   <g id="patch_5">
    <path d="M 61.8 640.3905 
L 702.714 640.3905 
" style="fill: none; stroke: #000000; stroke-width: 0.8; stroke-linejoin: miter; stroke-linecap: square"/>
   </g>
   <g id="patch_6">
    <path d="M 61.8 39.1875 
L 702.714 39.1875 
" style="fill: none; stroke: #000000; stroke-width: 0.8; stroke-linejoin: miter; stroke-linecap: square"/>
   </g>
   <g id="legend_1">
    <g id="patch_7">
     <path d="M 505.703062 149.11875 
L 681.714 149.11875 
Q 687.714 149.11875 687.714 143.11875 
L 687.714 60.1875 
Q 687.714 54.1875 681.714 54.1875 
L 505.703062 54.1875 
Q 499.703062 54.1875 499.703062 60.1875 
L 499.703062 143.11875 
Q 499.703062 149.11875 505.703062 149.11875 
z
" style="fill: #ffffff; opacity: 0.8; stroke: #cccccc; stroke-linejoin: miter"/>
    </g>
    <g id="line2d_51">
     <path d="M 511.703062 77.428125 
L 541.703062 77.428125 
L 571.703062 77.428125 
" style="fill: none; stroke: #ff0000; stroke-width: 1.5; stroke-linecap: square"/>
    </g>
    <g id="text_16">
     <!-- MD -->
     <g transform="translate(595.703062 87.928125) scale(0.3 -0.3)">
      <defs>
       <path id="LiberationSans-4d" d="M 4269 0 
L 4269 2938 
Q 4269 3425 4297 3875 
Q 4144 3316 4022 3000 
L 2884 0 
L 2466 0 
L 1313 3000 
L 1138 3531 
L 1034 3875 
L 1044 3528 
L 1056 2938 
L 1056 0 
L 525 0 
L 525 4403 
L 1309 4403 
L 2481 1350 
Q 2544 1166 2601 955 
Q 2659 744 2678 650 
Q 2703 775 2783 1029 
Q 2863 1284 2891 1350 
L 4041 4403 
L 4806 4403 
L 4806 0 
L 4269 0 
z
" transform="scale(0.015625)"/>
       <path id="LiberationSans-44" d="M 4316 2247 
Q 4316 1566 4050 1055 
Q 3784 544 3296 272 
Q 2809 0 2172 0 
L 525 0 
L 525 4403 
L 1981 4403 
Q 3100 4403 3708 3842 
Q 4316 3281 4316 2247 
z
M 3716 2247 
Q 3716 3066 3267 3495 
Q 2819 3925 1969 3925 
L 1122 3925 
L 1122 478 
L 2103 478 
Q 2588 478 2955 690 
Q 3322 903 3519 1303 
Q 3716 1703 3716 2247 
z
" transform="scale(0.015625)"/>
      </defs>
      <use xlink:href="#LiberationSans-4d"/>
      <use xlink:href="#LiberationSans-44" x="83.300781"/>
     </g>
    </g>
    <g id="line2d_52">
     <path d="M 511.703062 120.39375 
L 541.703062 120.39375 
L 571.703062 120.39375 
" style="fill: none; stroke: #0000ff; stroke-width: 1.5; stroke-linecap: square"/>
    </g>
    <g id="text_17">
     <!-- GANs -->
     <g transform="translate(595.703062 130.89375) scale(0.3 -0.3)">
      <defs>
       <path id="LiberationSans-47" d="M 322 2222 
Q 322 3294 897 3881 
Q 1472 4469 2513 4469 
Q 3244 4469 3700 4222 
Q 4156 3975 4403 3431 
L 3834 3263 
Q 3647 3638 3317 3809 
Q 2988 3981 2497 3981 
Q 1734 3981 1331 3520 
Q 928 3059 928 2222 
Q 928 1388 1356 905 
Q 1784 422 2541 422 
Q 2972 422 3345 553 
Q 3719 684 3950 909 
L 3950 1703 
L 2634 1703 
L 2634 2203 
L 4500 2203 
L 4500 684 
Q 4150 328 3642 132 
Q 3134 -63 2541 -63 
Q 1850 -63 1350 212 
Q 850 488 586 1005 
Q 322 1522 322 2222 
z
" transform="scale(0.015625)"/>
       <path id="LiberationSans-41" d="M 3647 0 
L 3144 1288 
L 1138 1288 
L 631 0 
L 13 0 
L 1809 4403 
L 2488 4403 
L 4256 0 
L 3647 0 
z
M 2141 3953 
L 2113 3866 
Q 2034 3606 1881 3200 
L 1319 1753 
L 2966 1753 
L 2400 3206 
Q 2313 3422 2225 3694 
L 2141 3953 
z
" transform="scale(0.015625)"/>
       <path id="LiberationSans-4e" d="M 3381 0 
L 1025 3750 
L 1041 3447 
L 1056 2925 
L 1056 0 
L 525 0 
L 525 4403 
L 1219 4403 
L 3600 628 
Q 3563 1241 3563 1516 
L 3563 4403 
L 4100 4403 
L 4100 0 
L 3381 0 
z
" transform="scale(0.015625)"/>
      </defs>
      <use xlink:href="#LiberationSans-47"/>
      <use xlink:href="#LiberationSans-41" x="77.783203"/>
      <use xlink:href="#LiberationSans-4e" x="144.482422"/>
      <use xlink:href="#LiberationSans-73" x="216.699219"/>
     </g>
    </g>
   </g>
  </g>
 </g>
 <defs>
  <clipPath id="p054613d3b7">
   <rect x="61.8" y="39.1875" width="640.914" height="601.203"/>
  </clipPath>
 </defs>
</svg>
