<?xml version="1.0" encoding="utf-8" standalone="no"?>
<!DOCTYPE svg PUBLIC "-//W3C//DTD SVG 1.1//EN"
  "http://www.w3.org/Graphics/SVG/1.1/DTD/svg11.dtd">
<svg xmlns:xlink="http://www.w3.org/1999/xlink" width="710.647477pt" height="711.02175pt" viewBox="0 0 710.647477 711.02175" xmlns="http://www.w3.org/2000/svg" version="1.1">
 <metadata>
  <rdf:RDF xmlns:dc="http://purl.org/dc/elements/1.1/" xmlns:cc="http://creativecommons.org/ns#" xmlns:rdf="http://www.w3.org/1999/02/22-rdf-syntax-ns#">
   <cc:Work>
    <dc:type rdf:resource="http://purl.org/dc/dcmitype/StillImage"/>
    <dc:date>2025-02-03T18:04:46.337938</dc:date>
    <dc:format>image/svg+xml</dc:format>
    <dc:creator>
     <cc:Agent>
      <dc:title>Matplotlib v3.9.3, https://matplotlib.org/</dc:title>
     </cc:Agent>
    </dc:creator>
   </cc:Work>
  </rdf:RDF>
 </metadata>
 <defs>
  <style type="text/css">*{stroke-linejoin: round; stroke-linecap: butt}</style>
 </defs>
 <g id="figure_1">
  <g id="patch_1">
   <path d="M 0 711.02175 
L 710.647477 711.02175 
L 710.647477 0 
L 0 0 
z
" style="fill: #ffffff"/>
  </g>
  <g id="axes_1">
   <g id="patch_2">
    <path d="M 104.4 640.3905 
L 703.447477 640.3905 
L 703.447477 39.1875 
L 104.4 39.1875 
z
" style="fill: #ffffff"/>
   </g>
   <g id="matplotlib.axis_1">
    <g id="xtick_1">
     <g id="line2d_1">
      <defs>
       <path id="m1ccdaabdcd" d="M 0 0 
L 0 -3.5 
" style="stroke: #000000; stroke-width: 0.8"/>
      </defs>
      <g>
       <use xlink:href="#m1ccdaabdcd" x="131.574966" y="640.3905" style="stroke: #000000; stroke-width: 0.8"/>
      </g>
     </g>
     <g id="text_1">
      <!-- 0 -->
      <g transform="translate(123.23356 665.631125) scale(0.3 -0.3)">
       <defs>
        <path id="LiberationSans-30" d="M 3309 2203 
Q 3309 1100 2920 518 
Q 2531 -63 1772 -63 
Q 1013 -63 631 515 
Q 250 1094 250 2203 
Q 250 3338 620 3903 
Q 991 4469 1791 4469 
Q 2569 4469 2939 3897 
Q 3309 3325 3309 2203 
z
M 2738 2203 
Q 2738 3156 2517 3584 
Q 2297 4013 1791 4013 
Q 1272 4013 1045 3591 
Q 819 3169 819 2203 
Q 819 1266 1048 831 
Q 1278 397 1778 397 
Q 2275 397 2506 840 
Q 2738 1284 2738 2203 
z
" transform="scale(0.015625)"/>
       </defs>
       <use xlink:href="#LiberationSans-30"/>
      </g>
     </g>
    </g>
    <g id="xtick_2">
     <g id="line2d_2">
      <g>
       <use xlink:href="#m1ccdaabdcd" x="240.503582" y="640.3905" style="stroke: #000000; stroke-width: 0.8"/>
      </g>
     </g>
     <g id="text_2">
      <!-- 2 -->
      <g transform="translate(232.162176 665.631125) scale(0.3 -0.3)">
       <defs>
        <path id="LiberationSans-32" d="M 322 0 
L 322 397 
Q 481 763 711 1042 
Q 941 1322 1194 1548 
Q 1447 1775 1695 1969 
Q 1944 2163 2144 2356 
Q 2344 2550 2467 2762 
Q 2591 2975 2591 3244 
Q 2591 3606 2378 3806 
Q 2166 4006 1788 4006 
Q 1428 4006 1195 3811 
Q 963 3616 922 3263 
L 347 3316 
Q 409 3844 795 4156 
Q 1181 4469 1788 4469 
Q 2453 4469 2811 4155 
Q 3169 3841 3169 3263 
Q 3169 3006 3051 2753 
Q 2934 2500 2703 2247 
Q 2472 1994 1819 1463 
Q 1459 1169 1246 933 
Q 1034 697 941 478 
L 3238 478 
L 3238 0 
L 322 0 
z
" transform="scale(0.015625)"/>
       </defs>
       <use xlink:href="#LiberationSans-32"/>
      </g>
     </g>
    </g>
    <g id="xtick_3">
     <g id="line2d_3">
      <g>
       <use xlink:href="#m1ccdaabdcd" x="349.432198" y="640.3905" style="stroke: #000000; stroke-width: 0.8"/>
      </g>
     </g>
     <g id="text_3">
      <!-- 4 -->
      <g transform="translate(341.090792 665.631125) scale(0.3 -0.3)">
       <defs>
        <path id="LiberationSans-34" d="M 2753 997 
L 2753 0 
L 2222 0 
L 2222 997 
L 147 997 
L 147 1434 
L 2163 4403 
L 2753 4403 
L 2753 1441 
L 3372 1441 
L 3372 997 
L 2753 997 
z
M 2222 3769 
Q 2216 3750 2134 3603 
Q 2053 3456 2013 3397 
L 884 1734 
L 716 1503 
L 666 1441 
L 2222 1441 
L 2222 3769 
z
" transform="scale(0.015625)"/>
       </defs>
       <use xlink:href="#LiberationSans-34"/>
      </g>
     </g>
    </g>
    <g id="xtick_4">
     <g id="line2d_4">
      <g>
       <use xlink:href="#m1ccdaabdcd" x="458.360814" y="640.3905" style="stroke: #000000; stroke-width: 0.8"/>
      </g>
     </g>
     <g id="text_4">
      <!-- 6 -->
      <g transform="translate(450.019408 665.631125) scale(0.3 -0.3)">
       <defs>
        <path id="LiberationSans-36" d="M 3278 1441 
Q 3278 744 2900 340 
Q 2522 -63 1856 -63 
Q 1113 -63 719 490 
Q 325 1044 325 2100 
Q 325 3244 734 3856 
Q 1144 4469 1900 4469 
Q 2897 4469 3156 3572 
L 2619 3475 
Q 2453 4013 1894 4013 
Q 1413 4013 1148 3564 
Q 884 3116 884 2266 
Q 1038 2550 1316 2698 
Q 1594 2847 1953 2847 
Q 2563 2847 2920 2465 
Q 3278 2084 3278 1441 
z
M 2706 1416 
Q 2706 1894 2472 2153 
Q 2238 2413 1819 2413 
Q 1425 2413 1183 2183 
Q 941 1953 941 1550 
Q 941 1041 1192 716 
Q 1444 391 1838 391 
Q 2244 391 2475 664 
Q 2706 938 2706 1416 
z
" transform="scale(0.015625)"/>
       </defs>
       <use xlink:href="#LiberationSans-36"/>
      </g>
     </g>
    </g>
    <g id="xtick_5">
     <g id="line2d_5">
      <g>
       <use xlink:href="#m1ccdaabdcd" x="567.28943" y="640.3905" style="stroke: #000000; stroke-width: 0.8"/>
      </g>
     </g>
     <g id="text_5">
      <!-- 8 -->
      <g transform="translate(558.948024 665.631125) scale(0.3 -0.3)">
       <defs>
        <path id="LiberationSans-38" d="M 3281 1228 
Q 3281 619 2893 278 
Q 2506 -63 1781 -63 
Q 1075 -63 676 271 
Q 278 606 278 1222 
Q 278 1653 525 1947 
Q 772 2241 1156 2303 
L 1156 2316 
Q 797 2400 589 2681 
Q 381 2963 381 3341 
Q 381 3844 757 4156 
Q 1134 4469 1769 4469 
Q 2419 4469 2795 4162 
Q 3172 3856 3172 3334 
Q 3172 2956 2962 2675 
Q 2753 2394 2391 2322 
L 2391 2309 
Q 2813 2241 3047 1952 
Q 3281 1663 3281 1228 
z
M 2588 3303 
Q 2588 4050 1769 4050 
Q 1372 4050 1164 3862 
Q 956 3675 956 3303 
Q 956 2925 1170 2726 
Q 1384 2528 1775 2528 
Q 2172 2528 2380 2711 
Q 2588 2894 2588 3303 
z
M 2697 1281 
Q 2697 1691 2453 1898 
Q 2209 2106 1769 2106 
Q 1341 2106 1100 1882 
Q 859 1659 859 1269 
Q 859 359 1788 359 
Q 2247 359 2472 579 
Q 2697 800 2697 1281 
z
" transform="scale(0.015625)"/>
       </defs>
       <use xlink:href="#LiberationSans-38"/>
      </g>
     </g>
    </g>
    <g id="xtick_6">
     <g id="line2d_6">
      <g>
       <use xlink:href="#m1ccdaabdcd" x="676.218046" y="640.3905" style="stroke: #000000; stroke-width: 0.8"/>
      </g>
     </g>
     <g id="text_6">
      <!-- 10 -->
      <g transform="translate(659.535233 665.631125) scale(0.3 -0.3)">
       <defs>
        <path id="LiberationSans-31" d="M 488 0 
L 488 478 
L 1609 478 
L 1609 3866 
L 616 3156 
L 616 3688 
L 1656 4403 
L 2175 4403 
L 2175 478 
L 3247 478 
L 3247 0 
L 488 0 
z
" transform="scale(0.015625)"/>
       </defs>
       <use xlink:href="#LiberationSans-31"/>
       <use xlink:href="#LiberationSans-30" x="55.615234"/>
      </g>
     </g>
    </g>
    <g id="xtick_7">
     <g id="line2d_7">
      <defs>
       <path id="m6ead0718fb" d="M 0 0 
L 0 -2 
" style="stroke: #000000; stroke-width: 0.6"/>
      </defs>
      <g>
       <use xlink:href="#m6ead0718fb" x="158.80712" y="640.3905" style="stroke: #000000; stroke-width: 0.6"/>
      </g>
     </g>
    </g>
    <g id="xtick_8">
     <g id="line2d_8">
      <g>
       <use xlink:href="#m6ead0718fb" x="186.039274" y="640.3905" style="stroke: #000000; stroke-width: 0.6"/>
      </g>
     </g>
    </g>
    <g id="xtick_9">
     <g id="line2d_9">
      <g>
       <use xlink:href="#m6ead0718fb" x="213.271428" y="640.3905" style="stroke: #000000; stroke-width: 0.6"/>
      </g>
     </g>
    </g>
    <g id="xtick_10">
     <g id="line2d_10">
      <g>
       <use xlink:href="#m6ead0718fb" x="267.735736" y="640.3905" style="stroke: #000000; stroke-width: 0.6"/>
      </g>
     </g>
    </g>
    <g id="xtick_11">
     <g id="line2d_11">
      <g>
       <use xlink:href="#m6ead0718fb" x="294.96789" y="640.3905" style="stroke: #000000; stroke-width: 0.6"/>
      </g>
     </g>
    </g>
    <g id="xtick_12">
     <g id="line2d_12">
      <g>
       <use xlink:href="#m6ead0718fb" x="322.200044" y="640.3905" style="stroke: #000000; stroke-width: 0.6"/>
      </g>
     </g>
    </g>
    <g id="xtick_13">
     <g id="line2d_13">
      <g>
       <use xlink:href="#m6ead0718fb" x="376.664352" y="640.3905" style="stroke: #000000; stroke-width: 0.6"/>
      </g>
     </g>
    </g>
    <g id="xtick_14">
     <g id="line2d_14">
      <g>
       <use xlink:href="#m6ead0718fb" x="403.896506" y="640.3905" style="stroke: #000000; stroke-width: 0.6"/>
      </g>
     </g>
    </g>
    <g id="xtick_15">
     <g id="line2d_15">
      <g>
       <use xlink:href="#m6ead0718fb" x="431.12866" y="640.3905" style="stroke: #000000; stroke-width: 0.6"/>
      </g>
     </g>
    </g>
    <g id="xtick_16">
     <g id="line2d_16">
      <g>
       <use xlink:href="#m6ead0718fb" x="485.592968" y="640.3905" style="stroke: #000000; stroke-width: 0.6"/>
      </g>
     </g>
    </g>
    <g id="xtick_17">
     <g id="line2d_17">
      <g>
       <use xlink:href="#m6ead0718fb" x="512.825122" y="640.3905" style="stroke: #000000; stroke-width: 0.6"/>
      </g>
     </g>
    </g>
    <g id="xtick_18">
     <g id="line2d_18">
      <g>
       <use xlink:href="#m6ead0718fb" x="540.057276" y="640.3905" style="stroke: #000000; stroke-width: 0.6"/>
      </g>
     </g>
    </g>
    <g id="xtick_19">
     <g id="line2d_19">
      <g>
       <use xlink:href="#m6ead0718fb" x="594.521584" y="640.3905" style="stroke: #000000; stroke-width: 0.6"/>
      </g>
     </g>
    </g>
    <g id="xtick_20">
     <g id="line2d_20">
      <g>
       <use xlink:href="#m6ead0718fb" x="621.753738" y="640.3905" style="stroke: #000000; stroke-width: 0.6"/>
      </g>
     </g>
    </g>
    <g id="xtick_21">
     <g id="line2d_21">
      <g>
       <use xlink:href="#m6ead0718fb" x="648.985892" y="640.3905" style="stroke: #000000; stroke-width: 0.6"/>
      </g>
     </g>
    </g>
    <g id="text_7">
     <!-- Time ps -->
     <g transform="translate(351.147176 697.59675) scale(0.3 -0.3)">
      <defs>
       <path id="LiberationSans-54" d="M 2250 3916 
L 2250 0 
L 1656 0 
L 1656 3916 
L 144 3916 
L 144 4403 
L 3763 4403 
L 3763 3916 
L 2250 3916 
z
" transform="scale(0.015625)"/>
       <path id="LiberationSans-69" d="M 428 4100 
L 428 4638 
L 991 4638 
L 991 4100 
L 428 4100 
z
M 428 0 
L 428 3381 
L 991 3381 
L 991 0 
L 428 0 
z
" transform="scale(0.015625)"/>
       <path id="LiberationSans-6d" d="M 2400 0 
L 2400 2144 
Q 2400 2634 2265 2821 
Q 2131 3009 1781 3009 
Q 1422 3009 1212 2734 
Q 1003 2459 1003 1959 
L 1003 0 
L 444 0 
L 444 2659 
Q 444 3250 425 3381 
L 956 3381 
Q 959 3366 962 3297 
Q 966 3228 970 3139 
Q 975 3050 981 2803 
L 991 2803 
Q 1172 3163 1406 3303 
Q 1641 3444 1978 3444 
Q 2363 3444 2586 3291 
Q 2809 3138 2897 2803 
L 2906 2803 
Q 3081 3144 3329 3294 
Q 3578 3444 3931 3444 
Q 4444 3444 4676 3166 
Q 4909 2888 4909 2253 
L 4909 0 
L 4353 0 
L 4353 2144 
Q 4353 2634 4218 2821 
Q 4084 3009 3734 3009 
Q 3366 3009 3161 2736 
Q 2956 2463 2956 1959 
L 2956 0 
L 2400 0 
z
" transform="scale(0.015625)"/>
       <path id="LiberationSans-65" d="M 863 1572 
Q 863 991 1103 675 
Q 1344 359 1806 359 
Q 2172 359 2392 506 
Q 2613 653 2691 878 
L 3184 738 
Q 2881 -63 1806 -63 
Q 1056 -63 664 384 
Q 272 831 272 1713 
Q 272 2550 664 2997 
Q 1056 3444 1784 3444 
Q 3275 3444 3275 1647 
L 3275 1572 
L 863 1572 
z
M 2694 2003 
Q 2647 2538 2422 2783 
Q 2197 3028 1775 3028 
Q 1366 3028 1127 2754 
Q 888 2481 869 2003 
L 2694 2003 
z
" transform="scale(0.015625)"/>
       <path id="LiberationSans-20" transform="scale(0.015625)"/>
       <path id="LiberationSans-70" d="M 3291 1706 
Q 3291 -63 2047 -63 
Q 1266 -63 997 525 
L 981 525 
Q 994 500 994 -6 
L 994 -1328 
L 431 -1328 
L 431 2691 
Q 431 3213 413 3381 
L 956 3381 
Q 959 3369 965 3292 
Q 972 3216 980 3056 
Q 988 2897 988 2838 
L 1000 2838 
Q 1150 3150 1397 3295 
Q 1644 3441 2047 3441 
Q 2672 3441 2981 3022 
Q 3291 2603 3291 1706 
z
M 2700 1694 
Q 2700 2400 2509 2703 
Q 2319 3006 1903 3006 
Q 1569 3006 1380 2865 
Q 1191 2725 1092 2426 
Q 994 2128 994 1650 
Q 994 984 1206 668 
Q 1419 353 1897 353 
Q 2316 353 2508 661 
Q 2700 969 2700 1694 
z
" transform="scale(0.015625)"/>
       <path id="LiberationSans-73" d="M 2969 934 
Q 2969 456 2608 196 
Q 2247 -63 1597 -63 
Q 966 -63 623 145 
Q 281 353 178 794 
L 675 891 
Q 747 619 972 492 
Q 1197 366 1597 366 
Q 2025 366 2223 497 
Q 2422 628 2422 891 
Q 2422 1091 2284 1216 
Q 2147 1341 1841 1422 
L 1438 1528 
Q 953 1653 748 1773 
Q 544 1894 428 2066 
Q 313 2238 313 2488 
Q 313 2950 642 3192 
Q 972 3434 1603 3434 
Q 2163 3434 2492 3237 
Q 2822 3041 2909 2606 
L 2403 2544 
Q 2356 2769 2151 2889 
Q 1947 3009 1603 3009 
Q 1222 3009 1040 2893 
Q 859 2778 859 2544 
Q 859 2400 934 2306 
Q 1009 2213 1156 2147 
Q 1303 2081 1775 1966 
Q 2222 1853 2419 1758 
Q 2616 1663 2730 1547 
Q 2844 1431 2906 1279 
Q 2969 1128 2969 934 
z
" transform="scale(0.015625)"/>
      </defs>
      <use xlink:href="#LiberationSans-54"/>
      <use xlink:href="#LiberationSans-69" x="57.333984"/>
      <use xlink:href="#LiberationSans-6d" x="79.550781"/>
      <use xlink:href="#LiberationSans-65" x="162.851562"/>
      <use xlink:href="#LiberationSans-20" x="218.466797"/>
      <use xlink:href="#LiberationSans-70" x="246.25"/>
      <use xlink:href="#LiberationSans-73" x="301.865234"/>
     </g>
    </g>
   </g>
   <g id="matplotlib.axis_2">
    <g id="ytick_1">
     <g id="line2d_22">
      <defs>
       <path id="mddbbdcae24" d="M 0 0 
L 3.5 0 
" style="stroke: #000000; stroke-width: 0.8"/>
      </defs>
      <g>
       <use xlink:href="#mddbbdcae24" x="104.4" y="591.697575" style="stroke: #000000; stroke-width: 0.8"/>
      </g>
     </g>
     <g id="text_8">
      <!-- $\mathdefault{−0.2}$ -->
      <g transform="translate(41.5 602.567888) scale(0.3 -0.3)">
       <defs>
        <path id="LiberationSans-2212" d="M 316 1900 
L 316 2356 
L 3425 2356 
L 3425 1900 
L 316 1900 
z
" transform="scale(0.015625)"/>
        <path id="LiberationSans-2e" d="M 584 0 
L 584 684 
L 1194 684 
L 1194 0 
L 584 0 
z
" transform="scale(0.015625)"/>
       </defs>
       <use xlink:href="#LiberationSans-2212" transform="translate(0 0.171875)"/>
       <use xlink:href="#LiberationSans-30" transform="translate(58.398438 0.171875)"/>
       <use xlink:href="#LiberationSans-2e" transform="translate(114.013672 0.171875)"/>
       <use xlink:href="#LiberationSans-32" transform="translate(141.796875 0.171875)"/>
      </g>
     </g>
    </g>
    <g id="ytick_2">
     <g id="line2d_23">
      <g>
       <use xlink:href="#mddbbdcae24" x="104.4" y="500.34817" style="stroke: #000000; stroke-width: 0.8"/>
      </g>
     </g>
     <g id="text_9">
      <!-- $\mathdefault{0.0}$ -->
      <g transform="translate(58.9 511.218483) scale(0.3 -0.3)">
       <use xlink:href="#LiberationSans-30" transform="translate(0 0.171875)"/>
       <use xlink:href="#LiberationSans-2e" transform="translate(55.615234 0.171875)"/>
       <use xlink:href="#LiberationSans-30" transform="translate(83.398438 0.171875)"/>
      </g>
     </g>
    </g>
    <g id="ytick_3">
     <g id="line2d_24">
      <g>
       <use xlink:href="#mddbbdcae24" x="104.4" y="408.998765" style="stroke: #000000; stroke-width: 0.8"/>
      </g>
     </g>
     <g id="text_10">
      <!-- $\mathdefault{0.2}$ -->
      <g transform="translate(58.9 419.869077) scale(0.3 -0.3)">
       <use xlink:href="#LiberationSans-30" transform="translate(0 0.171875)"/>
       <use xlink:href="#LiberationSans-2e" transform="translate(55.615234 0.171875)"/>
       <use xlink:href="#LiberationSans-32" transform="translate(83.398438 0.171875)"/>
      </g>
     </g>
    </g>
    <g id="ytick_4">
     <g id="line2d_25">
      <g>
       <use xlink:href="#mddbbdcae24" x="104.4" y="317.649359" style="stroke: #000000; stroke-width: 0.8"/>
      </g>
     </g>
     <g id="text_11">
      <!-- $\mathdefault{0.4}$ -->
      <g transform="translate(58.9 328.519672) scale(0.3 -0.3)">
       <use xlink:href="#LiberationSans-30" transform="translate(0 0.171875)"/>
       <use xlink:href="#LiberationSans-2e" transform="translate(55.615234 0.171875)"/>
       <use xlink:href="#LiberationSans-34" transform="translate(83.398438 0.171875)"/>
      </g>
     </g>
    </g>
    <g id="ytick_5">
     <g id="line2d_26">
      <g>
       <use xlink:href="#mddbbdcae24" x="104.4" y="226.299954" style="stroke: #000000; stroke-width: 0.8"/>
      </g>
     </g>
     <g id="text_12">
      <!-- $\mathdefault{0.6}$ -->
      <g transform="translate(58.9 237.170267) scale(0.3 -0.3)">
       <use xlink:href="#LiberationSans-30" transform="translate(0 0.171875)"/>
       <use xlink:href="#LiberationSans-2e" transform="translate(55.615234 0.171875)"/>
       <use xlink:href="#LiberationSans-36" transform="translate(83.398438 0.171875)"/>
      </g>
     </g>
    </g>
    <g id="ytick_6">
     <g id="line2d_27">
      <g>
       <use xlink:href="#mddbbdcae24" x="104.4" y="134.950549" style="stroke: #000000; stroke-width: 0.8"/>
      </g>
     </g>
     <g id="text_13">
      <!-- $\mathdefault{0.8}$ -->
      <g transform="translate(58.9 145.820861) scale(0.3 -0.3)">
       <use xlink:href="#LiberationSans-30" transform="translate(0 0.171875)"/>
       <use xlink:href="#LiberationSans-2e" transform="translate(55.615234 0.171875)"/>
       <use xlink:href="#LiberationSans-38" transform="translate(83.398438 0.171875)"/>
      </g>
     </g>
    </g>
    <g id="ytick_7">
     <g id="line2d_28">
      <g>
       <use xlink:href="#mddbbdcae24" x="104.4" y="43.601143" style="stroke: #000000; stroke-width: 0.8"/>
      </g>
     </g>
     <g id="text_14">
      <!-- $\mathdefault{1.0}$ -->
      <g transform="translate(58.9 54.471456) scale(0.3 -0.3)">
       <use xlink:href="#LiberationSans-31" transform="translate(0 0.171875)"/>
       <use xlink:href="#LiberationSans-2e" transform="translate(55.615234 0.171875)"/>
       <use xlink:href="#LiberationSans-30" transform="translate(83.398438 0.171875)"/>
      </g>
     </g>
    </g>
    <g id="ytick_8">
     <g id="line2d_29">
      <defs>
       <path id="m2fadd8c20e" d="M 0 0 
L 2 0 
" style="stroke: #000000; stroke-width: 0.6"/>
      </defs>
      <g>
       <use xlink:href="#m2fadd8c20e" x="104.4" y="637.372278" style="stroke: #000000; stroke-width: 0.6"/>
      </g>
     </g>
    </g>
    <g id="ytick_9">
     <g id="line2d_30">
      <g>
       <use xlink:href="#m2fadd8c20e" x="104.4" y="614.534927" style="stroke: #000000; stroke-width: 0.6"/>
      </g>
     </g>
    </g>
    <g id="ytick_10">
     <g id="line2d_31">
      <g>
       <use xlink:href="#m2fadd8c20e" x="104.4" y="568.860224" style="stroke: #000000; stroke-width: 0.6"/>
      </g>
     </g>
    </g>
    <g id="ytick_11">
     <g id="line2d_32">
      <g>
       <use xlink:href="#m2fadd8c20e" x="104.4" y="546.022873" style="stroke: #000000; stroke-width: 0.6"/>
      </g>
     </g>
    </g>
    <g id="ytick_12">
     <g id="line2d_33">
      <g>
       <use xlink:href="#m2fadd8c20e" x="104.4" y="523.185521" style="stroke: #000000; stroke-width: 0.6"/>
      </g>
     </g>
    </g>
    <g id="ytick_13">
     <g id="line2d_34">
      <g>
       <use xlink:href="#m2fadd8c20e" x="104.4" y="477.510819" style="stroke: #000000; stroke-width: 0.6"/>
      </g>
     </g>
    </g>
    <g id="ytick_14">
     <g id="line2d_35">
      <g>
       <use xlink:href="#m2fadd8c20e" x="104.4" y="454.673467" style="stroke: #000000; stroke-width: 0.6"/>
      </g>
     </g>
    </g>
    <g id="ytick_15">
     <g id="line2d_36">
      <g>
       <use xlink:href="#m2fadd8c20e" x="104.4" y="431.836116" style="stroke: #000000; stroke-width: 0.6"/>
      </g>
     </g>
    </g>
    <g id="ytick_16">
     <g id="line2d_37">
      <g>
       <use xlink:href="#m2fadd8c20e" x="104.4" y="386.161413" style="stroke: #000000; stroke-width: 0.6"/>
      </g>
     </g>
    </g>
    <g id="ytick_17">
     <g id="line2d_38">
      <g>
       <use xlink:href="#m2fadd8c20e" x="104.4" y="363.324062" style="stroke: #000000; stroke-width: 0.6"/>
      </g>
     </g>
    </g>
    <g id="ytick_18">
     <g id="line2d_39">
      <g>
       <use xlink:href="#m2fadd8c20e" x="104.4" y="340.486711" style="stroke: #000000; stroke-width: 0.6"/>
      </g>
     </g>
    </g>
    <g id="ytick_19">
     <g id="line2d_40">
      <g>
       <use xlink:href="#m2fadd8c20e" x="104.4" y="294.812008" style="stroke: #000000; stroke-width: 0.6"/>
      </g>
     </g>
    </g>
    <g id="ytick_20">
     <g id="line2d_41">
      <g>
       <use xlink:href="#m2fadd8c20e" x="104.4" y="271.974657" style="stroke: #000000; stroke-width: 0.6"/>
      </g>
     </g>
    </g>
    <g id="ytick_21">
     <g id="line2d_42">
      <g>
       <use xlink:href="#m2fadd8c20e" x="104.4" y="249.137305" style="stroke: #000000; stroke-width: 0.6"/>
      </g>
     </g>
    </g>
    <g id="ytick_22">
     <g id="line2d_43">
      <g>
       <use xlink:href="#m2fadd8c20e" x="104.4" y="203.462603" style="stroke: #000000; stroke-width: 0.6"/>
      </g>
     </g>
    </g>
    <g id="ytick_23">
     <g id="line2d_44">
      <g>
       <use xlink:href="#m2fadd8c20e" x="104.4" y="180.625251" style="stroke: #000000; stroke-width: 0.6"/>
      </g>
     </g>
    </g>
    <g id="ytick_24">
     <g id="line2d_45">
      <g>
       <use xlink:href="#m2fadd8c20e" x="104.4" y="157.7879" style="stroke: #000000; stroke-width: 0.6"/>
      </g>
     </g>
    </g>
    <g id="ytick_25">
     <g id="line2d_46">
      <g>
       <use xlink:href="#m2fadd8c20e" x="104.4" y="112.113197" style="stroke: #000000; stroke-width: 0.6"/>
      </g>
     </g>
    </g>
    <g id="ytick_26">
     <g id="line2d_47">
      <g>
       <use xlink:href="#m2fadd8c20e" x="104.4" y="89.275846" style="stroke: #000000; stroke-width: 0.6"/>
      </g>
     </g>
    </g>
    <g id="ytick_27">
     <g id="line2d_48">
      <g>
       <use xlink:href="#m2fadd8c20e" x="104.4" y="66.438495" style="stroke: #000000; stroke-width: 0.6"/>
      </g>
     </g>
    </g>
    <g id="text_15">
     <!-- HFACF $(\mathrm{W} / \mathrm{m}^2)^2$ -->
     <g transform="translate(31.275 446.289) rotate(-90) scale(0.3 -0.3)">
      <defs>
       <path id="LiberationSans-48" d="M 3503 0 
L 3503 2041 
L 1122 2041 
L 1122 0 
L 525 0 
L 525 4403 
L 1122 4403 
L 1122 2541 
L 3503 2541 
L 3503 4403 
L 4100 4403 
L 4100 0 
L 3503 0 
z
" transform="scale(0.015625)"/>
       <path id="LiberationSans-46" d="M 1122 3916 
L 1122 2278 
L 3578 2278 
L 3578 1784 
L 1122 1784 
L 1122 0 
L 525 0 
L 525 4403 
L 3653 4403 
L 3653 3916 
L 1122 3916 
z
" transform="scale(0.015625)"/>
       <path id="LiberationSans-41" d="M 3647 0 
L 3144 1288 
L 1138 1288 
L 631 0 
L 13 0 
L 1809 4403 
L 2488 4403 
L 4256 0 
L 3647 0 
z
M 2141 3953 
L 2113 3866 
Q 2034 3606 1881 3200 
L 1319 1753 
L 2966 1753 
L 2400 3206 
Q 2313 3422 2225 3694 
L 2141 3953 
z
" transform="scale(0.015625)"/>
       <path id="LiberationSans-43" d="M 2475 3981 
Q 1744 3981 1337 3511 
Q 931 3041 931 2222 
Q 931 1413 1354 920 
Q 1778 428 2500 428 
Q 3425 428 3891 1344 
L 4378 1100 
Q 4106 531 3614 234 
Q 3122 -63 2472 -63 
Q 1806 -63 1320 214 
Q 834 491 579 1005 
Q 325 1519 325 2222 
Q 325 3275 894 3872 
Q 1463 4469 2469 4469 
Q 3172 4469 3644 4194 
Q 4116 3919 4338 3378 
L 3772 3191 
Q 3619 3575 3280 3778 
Q 2941 3981 2475 3981 
z
" transform="scale(0.015625)"/>
       <path id="STIXGeneral-Regular-28" d="M 1946 -1030 
L 1869 -1133 
Q 1126 -710 716 32 
Q 307 774 307 1613 
Q 307 3386 1888 4326 
L 1946 4224 
Q 1293 3667 1075 3126 
Q 858 2586 858 1632 
Q 858 685 1082 96 
Q 1306 -493 1946 -1030 
z
" transform="scale(0.015625)"/>
       <path id="STIXGeneral-Regular-57" d="M 5965 4237 
L 5965 4115 
Q 5709 4064 5616 3990 
Q 5523 3917 5434 3667 
Q 4704 1709 4128 -70 
L 4032 -70 
Q 3642 1011 3008 2637 
L 2022 -70 
L 1926 -70 
Q 1709 576 1277 1753 
Q 845 2931 698 3347 
Q 538 3808 406 3958 
Q 275 4109 32 4115 
L 32 4237 
L 1594 4237 
L 1594 4115 
Q 1357 4109 1270 4064 
Q 1184 4019 1184 3917 
Q 1184 3808 1254 3616 
L 2176 1210 
L 2842 3021 
L 2662 3501 
Q 2509 3917 2400 4013 
Q 2291 4109 2010 4115 
L 2010 4237 
L 3706 4237 
L 3706 4115 
Q 3213 4102 3213 3891 
Q 3213 3808 3322 3520 
L 4237 1190 
L 5043 3360 
Q 5152 3667 5152 3853 
Q 5152 4109 4704 4115 
L 4704 4237 
L 5965 4237 
z
" transform="scale(0.015625)"/>
       <path id="STIXGeneral-Regular-2f" d="M 1837 4326 
L 378 -90 
L -58 -90 
L 1408 4326 
L 1837 4326 
z
" transform="scale(0.015625)"/>
       <path id="STIXGeneral-Regular-6d" d="M 4960 0 
L 3565 0 
L 3565 96 
Q 3834 122 3907 208 
Q 3981 294 3981 576 
L 3981 1894 
Q 3981 2278 3869 2444 
Q 3757 2611 3488 2611 
Q 3264 2611 3107 2521 
Q 2950 2432 2803 2221 
L 2803 608 
Q 2803 301 2896 201 
Q 2989 102 3264 96 
L 3264 0 
L 1830 0 
L 1830 96 
Q 2112 115 2189 188 
Q 2266 262 2266 550 
L 2266 1901 
Q 2266 2611 1850 2611 
Q 1670 2611 1468 2531 
Q 1267 2451 1171 2336 
Q 1088 2240 1088 2227 
L 1088 448 
Q 1088 243 1177 176 
Q 1267 109 1523 96 
L 1523 0 
L 102 0 
L 102 96 
Q 371 102 460 195 
Q 550 288 550 563 
L 550 2150 
Q 550 2387 499 2480 
Q 448 2573 326 2573 
Q 230 2573 122 2547 
L 122 2656 
Q 557 2778 1011 2944 
L 1062 2925 
L 1062 2451 
L 1075 2451 
Q 1363 2752 1584 2848 
Q 1805 2944 2054 2944 
Q 2560 2944 2733 2406 
Q 3232 2944 3776 2944 
Q 4518 2944 4518 1792 
L 4518 493 
Q 4518 282 4582 202 
Q 4646 122 4794 109 
L 4960 96 
L 4960 0 
z
" transform="scale(0.015625)"/>
       <path id="STIXGeneral-Regular-32" d="M 3034 877 
L 2688 0 
L 186 0 
L 186 77 
L 1325 1286 
Q 1773 1754 1965 2144 
Q 2157 2534 2157 2950 
Q 2157 3379 1920 3616 
Q 1683 3853 1267 3853 
Q 922 3853 720 3673 
Q 518 3494 326 3021 
L 192 3053 
Q 301 3648 630 3987 
Q 960 4326 1523 4326 
Q 2054 4326 2380 4006 
Q 2707 3686 2707 3200 
Q 2707 2477 1888 1613 
L 832 486 
L 2330 486 
Q 2541 486 2665 569 
Q 2790 653 2944 915 
L 3034 877 
z
" transform="scale(0.015625)"/>
       <path id="STIXGeneral-Regular-29" d="M 186 4224 
L 262 4326 
Q 992 3891 1408 3148 
Q 1824 2406 1824 1581 
Q 1824 -166 243 -1133 
L 186 -1030 
Q 845 -486 1059 54 
Q 1274 595 1274 1562 
Q 1274 2534 1059 3120 
Q 845 3706 186 4224 
z
" transform="scale(0.015625)"/>
      </defs>
      <use xlink:href="#LiberationSans-48" transform="translate(0 0.409375)"/>
      <use xlink:href="#LiberationSans-46" transform="translate(72.216797 0.409375)"/>
      <use xlink:href="#LiberationSans-41" transform="translate(133.300781 0.409375)"/>
      <use xlink:href="#LiberationSans-43" transform="translate(200 0.409375)"/>
      <use xlink:href="#LiberationSans-46" transform="translate(272.216797 0.409375)"/>
      <use xlink:href="#LiberationSans-20" transform="translate(333.300781 0.409375)"/>
      <use xlink:href="#STIXGeneral-Regular-28" transform="translate(361.083984 0.409375)"/>
      <use xlink:href="#STIXGeneral-Regular-57" transform="translate(394.383972 0.409375)"/>
      <use xlink:href="#STIXGeneral-Regular-2f" transform="translate(488.783966 0.409375)"/>
      <use xlink:href="#STIXGeneral-Regular-6d" transform="translate(516.583954 0.409375)"/>
      <use xlink:href="#STIXGeneral-Regular-32" transform="translate(595.927223 35.684375) scale(0.7)"/>
      <use xlink:href="#STIXGeneral-Regular-29" transform="translate(635.336587 0.409375)"/>
      <use xlink:href="#STIXGeneral-Regular-32" transform="translate(670.179856 35.684375) scale(0.7)"/>
     </g>
    </g>
    <g id="text_16">
     <!-- $\times\mathdefault{10^{19}}\mathdefault{}$ -->
     <g transform="translate(104.4 36.1875) scale(0.4 -0.4)">
      <defs>
       <path id="STIXGeneral-Regular-d7" d="M 3821 141 
L 3526 -160 
L 2048 1312 
L 570 -160 
L 275 134 
L 1747 1613 
L 275 3091 
L 576 3386 
L 2048 1914 
L 3526 3386 
L 3821 3098 
L 2349 1613 
L 3821 141 
z
" transform="scale(0.015625)"/>
       <path id="LiberationSans-39" d="M 3256 2291 
Q 3256 1156 2842 546 
Q 2428 -63 1663 -63 
Q 1147 -63 836 154 
Q 525 372 391 856 
L 928 941 
Q 1097 391 1672 391 
Q 2156 391 2422 841 
Q 2688 1291 2700 2125 
Q 2575 1844 2272 1673 
Q 1969 1503 1606 1503 
Q 1013 1503 656 1909 
Q 300 2316 300 2988 
Q 300 3678 687 4073 
Q 1075 4469 1766 4469 
Q 2500 4469 2878 3925 
Q 3256 3381 3256 2291 
z
M 2644 2834 
Q 2644 3366 2400 3689 
Q 2156 4013 1747 4013 
Q 1341 4013 1106 3736 
Q 872 3459 872 2988 
Q 872 2506 1106 2226 
Q 1341 1947 1741 1947 
Q 1984 1947 2193 2058 
Q 2403 2169 2523 2372 
Q 2644 2575 2644 2834 
z
" transform="scale(0.015625)"/>
      </defs>
      <use xlink:href="#STIXGeneral-Regular-d7" transform="translate(0 0.140625)"/>
      <use xlink:href="#LiberationSans-31" transform="translate(63.999985 0.140625)"/>
      <use xlink:href="#LiberationSans-30" transform="translate(119.615219 0.140625)"/>
      <use xlink:href="#LiberationSans-31" transform="translate(176.154946 37.120312) scale(0.7)"/>
      <use xlink:href="#LiberationSans-39" transform="translate(215.08561 37.120312) scale(0.7)"/>
     </g>
    </g>
   </g>
   <g id="line2d_49">
    <path d="M 131.629431 66.514909 
L 131.792824 94.258566 
L 131.901752 97.835699 
L 132.337467 125.701335 
L 132.88211 185.512534 
L 133.699074 304.704207 
L 135.115146 507.561623 
L 135.768718 569.429775 
L 136.258897 597.657042 
L 136.640147 609.01188 
L 136.966933 612.657913 
L 137.021397 613.063091 
L 137.075862 612.892851 
L 137.402647 610.692097 
L 139.363362 560.090735 
L 139.853541 547.325683 
L 141.977649 508.196831 
L 142.467828 501.439538 
L 142.958007 494.913159 
L 143.666043 487.154026 
L 144.156222 484.01547 
L 144.210686 484.110077 
L 144.319615 483.551843 
L 144.374079 483.853291 
L 144.428543 483.6791 
L 144.483007 483.611544 
L 144.537472 483.800947 
L 144.591936 483.574168 
L 144.755329 484.204185 
L 144.809793 484.353853 
L 145.136579 486.563833 
L 145.191043 486.825193 
L 145.408901 488.72357 
L 146.443723 501.614509 
L 146.770508 506.478141 
L 147.151759 511.151241 
L 147.533009 515.896678 
L 147.587473 515.787818 
L 147.750866 517.732649 
L 147.80533 517.571285 
L 147.859795 517.816517 
L 147.968723 519.005349 
L 148.023187 518.920418 
L 148.132116 520.046546 
L 148.18658 519.750033 
L 148.241045 519.883623 
L 148.349973 520.929869 
L 148.404438 520.72455 
L 148.458902 520.778032 
L 148.513366 520.624994 
L 148.622295 521.020243 
L 148.731223 520.558718 
L 148.785688 520.766995 
L 148.840152 520.605729 
L 148.894616 520.316877 
L 148.949081 520.82096 
L 149.003545 520.206009 
L 149.058009 520.335497 
L 149.112474 520.322631 
L 149.275867 519.331278 
L 149.330331 519.525067 
L 149.766045 516.908714 
L 150.038367 514.797302 
L 150.20176 514.266313 
L 150.365153 512.995667 
L 150.419617 512.793807 
L 150.746403 509.892166 
L 151.073189 508.233688 
L 151.34551 506.933646 
L 151.399975 507.072021 
L 151.563367 506.193906 
L 151.72676 505.514426 
L 151.781225 505.65592 
L 152.162475 504.19904 
L 152.380332 503.83293 
L 152.434796 503.75988 
L 152.489261 504.373864 
L 152.543725 504.078239 
L 152.707118 504.140888 
L 152.816047 504.706405 
L 152.870511 504.498834 
L 152.924975 504.252077 
L 152.979439 504.382965 
L 153.142832 504.748935 
L 153.197297 504.703794 
L 153.578547 505.978042 
L 153.687475 506.230237 
L 155.158012 513.450157 
L 155.212476 513.121488 
L 155.321405 513.789845 
L 155.375869 513.684108 
L 155.484798 513.928967 
L 155.539262 514.286361 
L 155.593726 513.964513 
L 155.648191 513.948739 
L 155.811583 513.490571 
L 155.866048 513.735546 
L 156.083905 513.074708 
L 156.138369 513.269028 
L 156.356227 511.895801 
L 156.410691 511.781609 
L 156.574084 510.426984 
L 156.90087 508.468603 
L 157.227655 505.546322 
L 157.28212 505.443554 
L 157.772299 501.169334 
L 157.826763 501.312308 
L 158.04462 499.58283 
L 158.099084 499.822731 
L 158.42587 497.509552 
L 158.643727 496.683371 
L 158.861585 495.987158 
L 158.970513 496.077186 
L 159.024978 496.255667 
L 159.133906 495.406066 
L 159.188371 495.459735 
L 159.242835 495.520776 
L 159.297299 495.223921 
L 159.351763 495.712285 
L 159.406228 495.464899 
L 159.460692 495.244684 
L 159.515156 495.367726 
L 159.624085 495.798756 
L 159.678549 495.768602 
L 159.733014 495.740142 
L 160.223192 497.670557 
L 160.277657 497.776587 
L 160.658907 500.129289 
L 160.8223 501.329359 
L 160.876764 501.23733 
L 161.040157 502.491528 
L 161.149086 503.019953 
L 161.366943 504.795437 
L 161.857122 507.442866 
L 161.911586 507.486033 
L 162.129443 508.622862 
L 162.183908 508.7077 
L 162.401765 509.616199 
L 162.456229 509.340104 
L 162.619622 509.995968 
L 162.783015 509.662133 
L 162.837479 509.757644 
L 162.891944 509.712727 
L 163.000872 509.242051 
L 163.055336 509.568954 
L 163.109801 509.371518 
L 163.436587 508.545327 
L 163.491051 508.505101 
L 163.654444 507.525635 
L 163.708908 507.706012 
L 164.144623 505.748855 
L 164.199087 505.738988 
L 164.36248 504.879981 
L 165.070516 501.535613 
L 165.12498 501.643707 
L 165.179444 501.616119 
L 165.50623 499.938533 
L 165.560695 499.841137 
L 165.615159 499.257982 
L 165.669623 499.492046 
L 165.833016 499.210025 
L 165.996409 499.294846 
L 166.105338 498.820418 
L 166.159802 499.170047 
L 166.214266 499.020025 
L 166.268731 498.868177 
L 166.432124 499.187556 
L 166.813374 499.933803 
L 167.358017 502.774267 
L 167.412481 502.881877 
L 168.501767 510.296082 
L 168.556232 510.41395 
L 168.937482 512.480992 
L 168.991946 512.562008 
L 169.155339 513.199716 
L 169.42766 514.16029 
L 169.482125 513.856646 
L 169.536589 514.040192 
L 169.591053 514.153867 
L 169.645518 514.04127 
L 169.754446 514.115378 
L 169.917839 513.811132 
L 169.972304 514.077095 
L 170.135696 513.392177 
L 171.116054 506.937407 
L 172.041947 499.828499 
L 173.185698 493.550439 
L 173.240162 493.709963 
L 173.458019 492.930386 
L 173.512484 493.282104 
L 173.566948 493.163914 
L 173.893734 492.808854 
L 174.002662 493.432113 
L 174.057127 493.11509 
L 174.166055 493.368598 
L 174.22052 493.158208 
L 174.383912 493.939828 
L 174.438377 493.77081 
L 174.492841 493.951127 
L 174.874091 495.533404 
L 174.928556 495.536377 
L 175.255341 497.597179 
L 175.309806 497.697195 
L 175.527663 499.112148 
L 175.582127 499.208884 
L 176.50802 504.463296 
L 177.052664 506.518153 
L 177.107128 506.574204 
L 177.216056 507.038319 
L 177.270521 506.996607 
L 177.433914 507.480158 
L 177.488378 507.251488 
L 177.542842 507.476977 
L 177.869628 507.36827 
L 178.087485 507.145013 
L 178.196414 507.171196 
L 178.250878 506.841038 
L 178.305343 506.932467 
L 178.359807 507.039327 
L 178.686593 506.186451 
L 178.741057 506.185754 
L 178.90445 505.76586 
L 178.958914 505.800602 
L 179.449093 504.992079 
L 179.612486 504.824143 
L 179.721415 505.027596 
L 179.775879 504.972745 
L 179.830343 505.066005 
L 179.993736 505.193084 
L 180.157129 505.455125 
L 180.211593 505.357578 
L 181.464273 509.393595 
L 181.518737 509.339528 
L 181.736594 509.979746 
L 181.791058 510.220415 
L 181.845523 510.124853 
L 181.899987 510.138286 
L 182.008916 510.546051 
L 182.06338 510.448855 
L 182.117844 510.547924 
L 182.281237 510.751634 
L 182.44463 510.791072 
L 182.608023 510.553029 
L 182.716952 510.550924 
L 183.098202 509.726132 
L 183.424988 508.135376 
L 183.806238 505.288426 
L 184.459809 499.639133 
L 185.930346 488.127907 
L 186.039274 487.521633 
L 186.093739 486.526411 
L 186.148203 487.405869 
L 186.311596 487.541044 
L 186.638382 488.279758 
L 187.128561 490.190549 
L 187.945525 494.573667 
L 188.38124 496.874311 
L 189.034811 499.961998 
L 189.742847 502.157473 
L 190.178562 502.822505 
L 190.396419 503.000098 
L 190.614276 502.944691 
L 190.777669 502.972171 
L 190.886598 502.954538 
L 191.267848 502.652087 
L 191.92142 502.071133 
L 192.193741 501.823338 
L 192.520527 501.623338 
L 192.738384 501.466695 
L 193.500885 501.549111 
L 193.82767 501.814026 
L 193.991063 501.858183 
L 194.753564 502.515457 
L 194.916957 502.546547 
L 195.4616 502.706866 
L 195.624993 502.640287 
L 196.2241 502.431131 
L 196.659814 502.04758 
L 197.095529 501.587155 
L 197.36785 501.202816 
L 198.075886 500.380104 
L 198.511601 500.132978 
L 198.674994 500.024225 
L 199.219637 499.935383 
L 199.655351 499.926189 
L 199.873209 499.902439 
L 200.90803 500.073396 
L 201.180352 500.217388 
L 201.670531 500.37711 
L 201.833924 500.45652 
L 202.16071 500.34382 
L 202.215174 500.380233 
L 202.378567 500.241847 
L 202.487495 500.074055 
L 202.650888 499.941624 
L 202.759817 499.897695 
L 203.032138 499.627422 
L 203.249996 499.412824 
L 204.06696 498.997212 
L 204.393746 499.183626 
L 204.502675 499.203201 
L 204.829461 499.548994 
L 205.156246 500.001889 
L 205.265175 500.118375 
L 205.537497 500.645708 
L 205.864282 501.294701 
L 206.08214 501.728707 
L 206.626783 502.814014 
L 206.953569 503.571286 
L 207.008033 503.583511 
L 207.280354 504.068693 
L 208.315176 505.08288 
L 208.533034 505.123085 
L 208.750891 505.14269 
L 209.077677 504.992955 
L 209.349998 504.682666 
L 209.840177 503.73277 
L 212.236606 496.180358 
L 213.053571 494.932655 
L 213.1625 494.93818 
L 213.325893 494.860439 
L 213.434821 494.799019 
L 213.54375 494.877346 
L 213.652679 494.900341 
L 214.633036 496.344371 
L 215.885715 499.920583 
L 216.32143 501.224703 
L 216.757144 502.373962 
L 217.029466 502.972048 
L 217.301787 503.479534 
L 217.519644 503.7893 
L 218.064287 504.187678 
L 219.262502 504.259853 
L 219.534824 504.084224 
L 219.698217 504.050835 
L 220.297324 503.418754 
L 220.351788 503.414054 
L 220.62411 503.05182 
L 220.950896 502.59636 
L 221.985718 501.450475 
L 223.075004 500.798803 
L 223.238397 500.871261 
L 223.728575 500.945983 
L 223.891968 500.994138 
L 224.055361 501.066202 
L 224.109826 500.900027 
L 224.16429 500.937231 
L 224.273219 501.017347 
L 224.600004 500.851736 
L 224.654469 500.934888 
L 224.708933 500.846283 
L 226.016076 499.634327 
L 226.125005 499.572641 
L 226.451791 499.416051 
L 226.560719 499.439212 
L 226.778577 499.358185 
L 226.94197 499.391216 
L 227.214291 499.390985 
L 227.813399 499.494539 
L 228.358042 499.956623 
L 228.630363 500.277403 
L 229.066078 500.874923 
L 229.392863 501.405375 
L 229.501792 501.525725 
L 229.828578 502.05378 
L 230.700007 503.056267 
L 230.972328 503.150918 
L 231.516972 503.269179 
L 231.843757 503.2238 
L 231.898222 503.271778 
L 231.952686 503.20945 
L 232.170543 503.104101 
L 232.769651 502.706543 
L 232.824115 502.735737 
L 233.041972 502.534487 
L 233.205365 502.508733 
L 233.423222 502.428063 
L 233.64108 502.393289 
L 233.858937 502.432561 
L 234.02233 502.492375 
L 234.185723 502.567908 
L 234.40358 502.708117 
L 234.839294 503.029101 
L 235.002687 503.180716 
L 235.057152 503.134373 
L 235.220544 503.324669 
L 235.601795 503.501972 
L 236.146438 503.493465 
L 236.527688 503.159178 
L 237.126795 501.797407 
L 237.344652 501.075627 
L 237.998224 498.083721 
L 238.869653 493.19587 
L 239.686618 488.718503 
L 240.503582 486.460766 
L 240.558047 485.581677 
L 240.612511 486.459704 
L 240.775904 486.629288 
L 241.211618 487.842283 
L 241.538404 489.254442 
L 242.24644 493.131088 
L 243.934834 501.008177 
L 244.806263 502.467144 
L 244.969656 502.497983 
L 245.241977 502.558732 
L 245.350906 502.562144 
L 245.895549 502.298569 
L 246.54912 501.931872 
L 246.603585 501.97607 
L 246.658049 501.886872 
L 246.984835 501.840454 
L 247.202692 501.7728 
L 248.237514 502.413184 
L 248.400907 502.578139 
L 249.054479 503.203017 
L 249.490193 503.48874 
L 249.599122 503.491335 
L 249.70805 503.581504 
L 249.762515 503.505715 
L 249.816979 503.595771 
L 249.925908 503.547145 
L 250.089301 503.458253 
L 250.579479 503.214355 
L 250.960729 502.735612 
L 251.34198 502.245309 
L 252.158944 500.897652 
L 253.24823 499.691612 
L 253.575016 499.584285 
L 254.283052 499.587034 
L 254.391981 499.532285 
L 254.555374 499.587512 
L 255.753589 500.187438 
L 256.02591 500.380593 
L 256.134839 500.453056 
L 256.352696 500.59099 
L 256.679482 500.702042 
L 256.842875 500.640611 
L 256.951803 500.535212 
L 257.006268 500.470101 
L 257.060732 500.610634 
L 257.115196 500.4683 
L 257.278589 500.485036 
L 257.605375 500.268164 
L 257.768768 500.228561 
L 258.095554 500.058214 
L 258.313411 500.117329 
L 259.239304 500.851566 
L 259.729483 501.458717 
L 259.94734 501.870134 
L 261.853591 504.802764 
L 262.016984 504.875701 
L 262.452698 505.098494 
L 262.72502 505.048011 
L 262.888413 505.075651 
L 263.215199 504.966286 
L 263.596449 504.619547 
L 264.195556 503.408598 
L 264.250021 503.388524 
L 266.700914 495.569745 
L 267.572343 494.285221 
L 267.844665 494.178868 
L 267.953594 494.239852 
L 268.116986 494.253731 
L 268.879487 495.307618 
L 270.077702 498.797942 
L 271.275916 502.702858 
L 271.602702 503.447669 
L 271.766095 503.740419 
L 271.983952 504.070416 
L 272.528595 504.425748 
L 272.96431 504.377059 
L 273.127703 504.392685 
L 273.34556 504.279453 
L 273.944667 503.730619 
L 274.652703 502.691386 
L 275.469668 501.322694 
L 275.524132 501.303768 
L 275.905382 500.640795 
L 276.014311 500.540927 
L 276.558954 500.012288 
L 276.88574 499.84609 
L 276.940204 499.89553 
L 276.994669 499.834341 
L 277.103597 499.777645 
L 277.212526 499.836269 
L 277.321454 499.787906 
L 277.375919 499.907726 
L 277.430383 499.872836 
L 277.539312 499.864662 
L 277.811633 500.118922 
L 278.900919 500.835392 
L 279.064312 500.771957 
L 279.118777 500.869001 
L 279.173241 500.805393 
L 279.935741 500.343467 
L 280.262527 500.080374 
L 280.42592 500.002081 
L 281.242885 499.724466 
L 281.406278 499.749929 
L 281.678599 499.705498 
L 282.550028 499.796825 
L 282.767885 500.047174 
L 283.040207 500.221527 
L 283.312528 500.637223 
L 283.475921 500.777008 
L 284.783065 502.424032 
L 284.891993 502.481233 
L 285.109851 502.613115 
L 285.327708 502.719899 
L 285.491101 502.7127 
L 285.926815 502.782746 
L 286.090208 502.66193 
L 286.634851 502.360221 
L 286.961637 502.048655 
L 287.070566 501.972533 
L 287.615209 501.609485 
L 287.778602 501.61145 
L 288.050923 501.467158 
L 288.323245 501.560657 
L 288.541102 501.636448 
L 288.813423 501.888787 
L 289.303602 502.335866 
L 289.466995 502.534642 
L 289.521459 502.507981 
L 289.739317 502.812044 
L 289.957174 502.957059 
L 290.229495 503.198758 
L 290.392888 503.244884 
L 290.556281 503.199691 
L 290.774139 503.188841 
L 291.100924 502.822337 
L 291.264317 502.538822 
L 291.972353 500.432171 
L 292.898247 495.761341 
L 294.641104 487.2004 
L 294.804497 486.901533 
L 294.96789 486.776392 
L 295.022355 485.873825 
L 295.076819 486.786708 
L 295.240212 486.962918 
L 295.730391 488.409565 
L 298.017891 499.999096 
L 298.453606 501.396599 
L 299.161642 502.573973 
L 299.216106 502.504856 
L 299.270571 502.590473 
L 299.433964 502.603224 
L 299.706285 502.599998 
L 299.760749 502.655725 
L 299.815214 502.592524 
L 300.196464 502.349295 
L 300.958964 501.895286 
L 301.394679 501.802161 
L 301.612536 501.841012 
L 301.721464 501.853482 
L 302.320572 502.269594 
L 302.647358 502.663898 
L 304.172358 504.299499 
L 304.226823 504.234934 
L 304.281287 504.33284 
L 304.335751 504.379958 
L 304.390216 504.304043 
L 304.553608 504.238147 
L 305.043787 504.036529 
L 305.425037 503.56463 
L 305.751823 503.138649 
L 306.296466 502.179105 
L 307.058967 500.896619 
L 307.167895 500.828127 
L 307.494681 500.318794 
L 307.658074 500.221556 
L 307.98486 500.020354 
L 308.529503 499.83986 
L 309.12861 499.754262 
L 309.237539 499.805672 
L 309.400932 499.782718 
L 310.108968 500.089637 
L 311.034861 500.429473 
L 311.361647 500.354042 
L 311.470576 500.156906 
L 311.52504 500.288987 
L 311.688433 500.111519 
L 311.851826 499.966778 
L 312.614326 499.412882 
L 312.66879 499.45685 
L 312.723255 499.322694 
L 312.777719 499.351909 
L 313.158969 499.356623 
L 313.485755 499.506815 
L 313.812541 499.803946 
L 313.921469 499.852053 
L 314.466112 500.545088 
L 314.792898 501.055501 
L 314.901827 501.177146 
L 315.228613 501.79187 
L 315.392006 501.979362 
L 315.664327 502.414613 
L 315.991113 502.883409 
L 316.100042 502.970394 
L 316.317899 503.244923 
L 316.426828 503.292365 
L 317.025935 503.740779 
L 317.189328 503.732403 
L 317.407185 503.831009 
L 318.22415 503.560217 
L 318.659864 502.788782 
L 318.714329 502.792584 
L 319.585757 500.5267 
L 319.694686 500.256376 
L 320.620579 497.675804 
L 320.729508 497.534241 
L 321.056294 496.806849 
L 321.437544 496.22016 
L 321.709865 495.986458 
L 321.982187 495.810839 
L 322.091116 495.865049 
L 322.200044 495.810502 
L 323.071473 496.553448 
L 324.542009 499.911993 
L 325.358974 501.957356 
L 325.467903 502.166773 
L 325.794689 502.819416 
L 325.849153 502.796694 
L 326.121474 503.149919 
L 326.284867 503.400982 
L 326.339332 503.359059 
L 326.44826 503.442297 
L 326.82951 503.488967 
L 327.047368 503.423376 
L 327.265225 503.380293 
L 327.428618 503.272582 
L 327.592011 503.246673 
L 327.809868 503.112258 
L 328.245582 502.818326 
L 328.899154 502.231881 
L 329.062547 502.077916 
L 329.334869 501.728336 
L 329.552726 501.535665 
L 329.770583 501.27309 
L 329.98844 501.107173 
L 330.36969 500.720477 
L 330.478619 500.677821 
L 331.132191 500.442158 
L 331.241119 500.506001 
L 331.350048 500.462575 
L 331.458977 500.503456 
L 331.567905 500.489652 
L 331.731298 500.579067 
L 331.785762 500.575627 
L 331.894691 500.687089 
L 332.00362 500.698266 
L 332.221477 500.922496 
L 332.76612 501.437736 
L 333.637549 501.696622 
L 334.182192 501.242172 
L 334.291121 501.194327 
L 335.053621 500.533872 
L 336.469693 500.043018 
L 337.014336 500.099566 
L 337.232193 500.334548 
L 337.504515 500.50779 
L 337.776836 500.904395 
L 337.994694 501.119554 
L 338.321479 501.588232 
L 338.430408 501.694207 
L 338.70273 502.129534 
L 339.519694 502.985548 
L 339.683087 503.045923 
L 340.009873 503.144235 
L 340.118802 503.194066 
L 340.22773 503.227468 
L 340.282194 503.152468 
L 340.336659 503.207689 
L 340.391123 503.23609 
L 340.500052 503.078414 
L 340.554516 503.119822 
L 342.569695 502.006586 
L 342.787553 502.072522 
L 342.896481 502.137596 
L 343.168803 502.328115 
L 344.857196 503.800875 
L 345.020589 503.749627 
L 345.238446 503.731311 
L 345.565232 503.356365 
L 345.674161 503.215106 
L 346.436661 500.889466 
L 347.417019 495.645357 
L 348.179519 490.862759 
L 349.105412 486.434726 
L 349.268805 486.03797 
L 349.432198 485.827738 
L 349.486662 484.870881 
L 349.541127 485.813807 
L 349.70452 485.943324 
L 350.031306 486.754277 
L 350.521484 488.80374 
L 351.719699 495.737157 
L 352.86345 501.132385 
L 353.734879 502.880921 
L 353.898271 502.966836 
L 354.170593 503.062962 
L 354.333986 503.069109 
L 354.497379 503.000484 
L 354.715236 502.868099 
L 354.933093 502.809421 
L 355.096486 502.679731 
L 355.205415 502.597459 
L 355.423272 502.44014 
L 356.294701 502.259562 
L 356.512558 502.39823 
L 356.621487 502.468737 
L 357.002737 502.760645 
L 357.275059 503.068569 
L 358.582202 504.269147 
L 359.344702 504.07612 
L 359.671488 503.729246 
L 359.725952 503.748456 
L 360.052738 503.276822 
L 360.433988 502.714967 
L 360.924167 501.906913 
L 361.359882 501.190311 
L 361.904525 500.559799 
L 362.067918 500.395073 
L 362.503632 500.179376 
L 362.830418 500.126517 
L 362.993811 500.102045 
L 363.429525 500.098812 
L 363.647383 500.201773 
L 363.86524 500.21231 
L 364.518811 500.593366 
L 364.791133 500.801026 
L 365.39024 501.288222 
L 365.499169 501.210444 
L 365.825955 501.207787 
L 365.934883 501.034828 
L 365.989348 501.166388 
L 366.043812 501.0226 
L 366.152741 501.013012 
L 366.316134 500.903762 
L 366.860777 500.449099 
L 366.915241 500.485865 
L 366.969705 500.395552 
L 367.078634 500.400844 
L 367.133098 500.436753 
L 367.242027 500.338006 
L 367.623277 500.319084 
L 367.950063 500.431483 
L 368.16792 500.592703 
L 368.658099 500.946052 
L 368.875956 501.252989 
L 370.019707 502.779173 
L 370.237564 503.153699 
L 370.56435 503.540573 
L 370.782207 503.804005 
L 370.891136 503.856925 
L 371.490243 504.316998 
L 371.653636 504.308467 
L 371.871493 504.412663 
L 372.525065 504.277684 
L 372.851851 503.860312 
L 373.015244 503.603564 
L 373.342029 502.987482 
L 376.01078 495.462679 
L 376.337566 495.069309 
L 376.609888 494.838374 
L 377.372388 495.148663 
L 377.971496 496.1508 
L 378.842924 498.512582 
L 379.823282 501.526445 
L 379.932211 501.80225 
L 380.422389 502.890432 
L 380.694711 503.351105 
L 380.912568 503.606754 
L 381.293818 503.801975 
L 381.457211 503.844449 
L 381.783997 503.786941 
L 381.94739 503.822974 
L 382.110783 503.792503 
L 383.145605 503.09041 
L 383.635784 502.468093 
L 383.853641 502.264048 
L 384.125962 501.893292 
L 384.289355 501.771031 
L 384.507213 501.49874 
L 385.10632 500.964263 
L 385.215249 500.953366 
L 385.759892 500.718883 
L 386.740249 501.093822 
L 387.339357 501.487155 
L 387.393821 501.42803 
L 387.448285 501.566084 
L 387.502749 501.418372 
L 387.829535 501.606869 
L 387.992928 501.461933 
L 388.047393 501.549297 
L 388.101857 501.46717 
L 389.681322 499.932534 
L 389.79025 499.949192 
L 389.953643 499.839612 
L 390.171501 499.706707 
L 390.334893 499.716414 
L 390.607215 499.657883 
L 391.478644 499.773581 
L 391.696501 500.064827 
L 391.914358 500.241729 
L 392.459001 501.003858 
L 392.785787 501.531384 
L 392.894716 501.651172 
L 393.221502 502.17739 
L 393.657216 502.670664 
L 393.929538 502.929984 
L 394.256324 503.087815 
L 394.419717 503.077864 
L 394.692038 503.164365 
L 394.746502 503.066337 
L 394.800967 503.127875 
L 394.855431 503.140197 
L 395.018824 503.002607 
L 395.400074 502.723047 
L 397.034003 501.603965 
L 397.251861 501.654617 
L 397.360789 501.714819 
L 397.633111 501.907402 
L 399.321504 503.521681 
L 399.484897 503.485509 
L 399.702754 503.469215 
L 400.41079 502.267521 
L 401.009898 499.997373 
L 401.609005 496.692584 
L 403.297399 486.393872 
L 403.787578 484.843746 
L 403.896506 484.758707 
L 403.95097 483.767637 
L 404.005435 484.738406 
L 404.168828 484.904534 
L 404.550078 486.008871 
L 404.876864 487.365212 
L 406.72865 498.572733 
L 407.327758 501.225723 
L 408.199186 503.089413 
L 408.362579 503.161756 
L 408.634901 503.250057 
L 408.798294 503.260117 
L 408.961687 503.158937 
L 409.234008 502.999469 
L 410.214366 502.320063 
L 410.759009 502.144976 
L 410.976866 502.274845 
L 411.140259 502.357473 
L 411.412581 502.634466 
L 411.521509 502.73976 
L 411.793831 503.017176 
L 412.66526 504.134888 
L 412.774188 504.247955 
L 413.264367 504.65018 
L 413.482224 504.587635 
L 413.80901 504.63539 
L 414.026867 504.473349 
L 414.299189 504.260607 
L 416.368833 501.050721 
L 416.532226 500.806636 
L 417.022404 500.302483 
L 417.784905 499.711042 
L 418.002762 499.670256 
L 418.220619 499.542648 
L 418.275083 499.597986 
L 418.329548 499.528905 
L 418.874191 499.570807 
L 419.854548 500.079874 
L 420.017941 499.990866 
L 420.072406 500.064506 
L 420.12687 499.961069 
L 420.290263 499.977044 
L 420.399191 499.800497 
L 420.453656 499.937732 
L 420.50812 499.786846 
L 420.671513 499.800548 
L 421.488478 499.271021 
L 421.597406 499.379574 
L 421.651871 499.274594 
L 421.706335 499.311237 
L 422.577764 499.680312 
L 423.013478 500.118662 
L 423.122407 500.186414 
L 423.340264 500.522379 
L 425.355443 503.234275 
L 425.954551 503.708818 
L 426.117944 503.707022 
L 426.281337 503.801121 
L 426.880444 503.770918 
L 427.20723 503.483635 
L 427.806337 502.454845 
L 428.895623 499.317907 
L 429.603659 497.322785 
L 430.475088 495.660945 
L 430.74741 495.465261 
L 431.074196 495.354711 
L 431.673303 495.896823 
L 432.490268 497.702714 
L 434.886697 504.664268 
L 435.159019 505.02113 
L 435.213483 505.133092 
L 435.267947 505.090991 
L 436.030448 505.038476 
L 437.119734 503.90473 
L 438.154556 502.102757 
L 438.317949 501.826468 
L 438.59027 501.276806 
L 438.753663 501.064967 
L 439.025985 500.598779 
L 439.570628 499.87041 
L 439.679556 499.807196 
L 440.278664 499.399333 
L 440.387592 499.396656 
L 440.496521 499.332682 
L 440.550985 499.428276 
L 440.60545 499.395166 
L 440.932236 499.416525 
L 441.150093 499.57899 
L 441.694736 500.01553 
L 441.858129 500.033917 
L 441.912593 500.189982 
L 441.967057 500.055762 
L 442.293843 500.356473 
L 442.457236 500.273139 
L 442.5117 500.385427 
L 442.566165 500.325864 
L 443.110808 500.010726 
L 443.219736 500.004041 
L 443.655451 499.725496 
L 443.982237 499.674939 
L 444.309023 499.642817 
L 444.472416 499.663473 
L 444.744737 499.743283 
L 445.398309 499.90238 
L 445.779559 500.104572 
L 446.868845 501.369775 
L 447.794738 502.710621 
L 448.666167 503.385825 
L 448.938489 503.385084 
L 448.992953 503.342201 
L 449.047417 503.430199 
L 449.156346 503.440128 
L 449.21081 503.344708 
L 449.265275 503.402233 
L 449.319739 503.419644 
L 449.483132 503.262677 
L 450.027775 502.864696 
L 450.572418 502.305718 
L 451.498311 501.827651 
L 451.716168 501.870961 
L 451.825097 501.941065 
L 452.042954 502.063859 
L 452.478669 502.457542 
L 452.642062 502.632137 
L 453.023312 503.1344 
L 453.676884 503.828533 
L 453.949205 503.815248 
L 454.167062 503.826881 
L 454.493848 503.489899 
L 454.657241 503.222706 
L 455.310813 501.305635 
L 455.90992 498.3856 
L 458.088493 486.21108 
L 458.360814 485.619682 
L 458.415278 484.698036 
L 458.469743 485.574158 
L 458.633136 485.703722 
L 458.959921 486.484365 
L 459.559029 489.078193 
L 461.301887 498.45268 
L 462.009923 500.772201 
L 462.391173 501.447231 
L 462.717959 501.778107 
L 462.99028 501.710857 
L 463.153673 501.817285 
L 463.698316 501.469718 
L 464.569745 500.971637 
L 465.223317 501.006972 
L 465.441174 501.2274 
L 465.604567 501.386439 
L 465.876889 501.78089 
L 465.985817 501.922179 
L 466.258139 502.311795 
L 467.292961 503.842788 
L 467.783139 504.19024 
L 467.837604 504.118186 
L 467.892068 504.162564 
L 468.273318 504.184782 
L 468.600104 503.903285 
L 468.654568 503.925953 
L 468.981354 503.48447 
L 469.253676 503.099204 
L 469.907247 501.87547 
L 470.669748 500.530796 
L 471.486712 499.629907 
L 472.249213 499.258429 
L 472.46707 499.279003 
L 472.630463 499.268071 
L 472.793856 499.273366 
L 473.447427 499.651133 
L 474.318856 500.520427 
L 474.373321 500.439877 
L 474.427785 500.486627 
L 474.754571 500.61223 
L 474.863499 500.480938 
L 474.917964 500.638288 
L 474.972428 500.518418 
L 475.135821 500.581592 
L 475.462607 500.447408 
L 475.517071 500.38267 
L 475.571535 500.459856 
L 476.00725 500.3869 
L 476.170643 500.39971 
L 476.497429 500.570057 
L 476.606357 500.546748 
L 476.715286 500.704963 
L 476.76975 500.655055 
L 477.859036 501.901335 
L 478.185822 502.386426 
L 478.294751 502.494771 
L 478.621537 503.048754 
L 478.78493 503.199649 
L 479.057251 503.581186 
L 479.438501 503.980481 
L 479.92868 504.346296 
L 480.418859 504.588242 
L 480.582252 504.536848 
L 480.745645 504.576025 
L 481.181359 504.471719 
L 481.453681 504.306057 
L 481.780466 503.854193 
L 481.889395 503.652358 
L 482.270645 502.945721 
L 484.61261 496.369797 
L 484.939396 495.802358 
L 485.320646 495.394302 
L 485.592968 495.290359 
L 486.137611 495.489635 
L 486.736718 496.325477 
L 489.351005 502.845981 
L 489.623327 503.238356 
L 489.78672 503.359405 
L 489.950113 503.518871 
L 490.16797 503.587651 
L 490.658149 503.620323 
L 490.821542 503.539822 
L 490.876006 503.600535 
L 490.93047 503.532335 
L 491.148327 503.539008 
L 491.475113 503.32358 
L 492.292078 502.733768 
L 492.455471 502.596635 
L 492.727792 502.258938 
L 492.94565 502.067514 
L 493.163507 501.818666 
L 493.381364 501.64584 
L 493.599221 501.379093 
L 493.653686 501.400497 
L 493.817079 501.22901 
L 494.034936 501.055163 
L 494.0894 501.097763 
L 494.143864 501.026867 
L 494.960829 500.78292 
L 495.124222 500.841538 
L 495.178686 500.814437 
L 495.287615 500.895454 
L 495.396543 500.877071 
L 495.559936 501.00972 
L 495.886722 501.143153 
L 496.159044 501.355773 
L 496.322437 501.325818 
L 496.376901 501.443644 
L 496.431365 501.298024 
L 496.758151 501.450428 
L 496.921544 501.287388 
L 496.976008 501.357324 
L 497.030473 501.294071 
L 497.520651 500.738945 
L 498.119759 500.040866 
L 498.39208 499.861237 
L 498.609938 499.645672 
L 498.718866 499.658674 
L 498.936723 499.476708 
L 499.209045 499.420549 
L 499.753688 499.322897 
L 500.516188 499.669004 
L 501.278689 500.581756 
L 503.021547 503.186263 
L 503.511725 503.465513 
L 503.620654 503.527599 
L 503.675118 503.460258 
L 503.729583 503.542647 
L 503.784047 503.574658 
L 503.892975 503.446603 
L 503.94744 503.499829 
L 504.546547 503.249951 
L 504.764404 503.07294 
L 505.962619 502.42605 
L 506.180476 502.455954 
L 506.289405 502.498564 
L 506.507262 502.561031 
L 506.72512 502.677799 
L 506.997441 502.7972 
L 507.324227 503.095017 
L 507.378691 503.0442 
L 507.542084 503.209734 
L 507.86887 503.373298 
L 507.977799 503.340625 
L 508.141192 503.45035 
L 508.467977 503.232223 
L 508.794763 502.893703 
L 509.230478 501.947844 
L 509.938514 499.22743 
L 510.483157 496.279941 
L 512.226015 486.414042 
L 512.661729 485.241493 
L 512.825122 485.124631 
L 512.879586 484.176963 
L 512.934051 485.162072 
L 513.151908 485.530869 
L 513.80548 488.085825 
L 515.33048 497.712193 
L 516.038516 501.296138 
L 516.528695 502.883031 
L 517.182267 503.871489 
L 517.400124 503.829682 
L 517.563517 503.853402 
L 517.672445 503.82531 
L 517.890303 503.666058 
L 518.10816 503.429271 
L 518.326017 503.248011 
L 518.48941 503.039106 
L 518.598339 502.893771 
L 518.87066 502.562575 
L 518.925124 502.582361 
L 519.142982 502.353767 
L 519.687625 501.937443 
L 519.796553 501.952097 
L 519.959946 501.933369 
L 520.341196 502.126077 
L 520.450125 502.171496 
L 520.559054 502.214829 
L 520.722447 502.348178 
L 521.484947 503.067021 
L 521.702804 503.201837 
L 522.247447 503.4149 
L 522.41084 503.368855 
L 522.901019 503.271287 
L 523.173341 503.03142 
L 524.099234 501.903869 
L 524.480484 501.303225 
L 524.80727 500.871397 
L 525.025127 500.622657 
L 525.351913 500.160526 
L 525.515306 500.075706 
L 525.896556 499.862127 
L 527.149235 499.557638 
L 527.203699 499.65306 
L 527.258164 499.58935 
L 527.911735 499.826757 
L 528.292985 500.069251 
L 528.783164 500.363588 
L 528.946557 500.284807 
L 529.001021 500.347447 
L 529.055486 500.248177 
L 529.218879 500.255061 
L 529.327807 500.069282 
L 529.382272 500.199098 
L 529.436736 500.061236 
L 529.545665 500.063473 
L 529.709057 499.929372 
L 530.471558 499.500035 
L 530.526022 499.538794 
L 530.580486 499.432279 
L 530.634951 499.472051 
L 530.961737 499.547733 
L 531.070665 499.522159 
L 531.179594 499.626233 
L 531.234058 499.580327 
L 532.486737 500.980778 
L 532.813523 501.555383 
L 533.03138 501.877927 
L 533.303702 502.377867 
L 533.41263 502.444981 
L 533.684952 502.958494 
L 534.011738 503.401966 
L 534.992095 504.200549 
L 535.155488 504.249495 
L 535.591203 504.307347 
L 535.917989 504.158441 
L 536.244774 503.747793 
L 536.408167 503.496819 
L 536.789417 502.718014 
L 537.334061 501.184794 
L 537.769775 499.794655 
L 538.859061 496.677753 
L 539.784954 495.351743 
L 540.11174 495.310973 
L 540.220669 495.274299 
L 540.384062 495.367294 
L 540.874241 495.886915 
L 542.344777 499.507828 
L 543.107277 501.687755 
L 543.597456 502.838665 
L 543.815313 503.176968 
L 544.087635 503.556708 
L 544.251028 503.656257 
L 544.414421 503.817273 
L 544.632278 503.868597 
L 545.122457 503.845557 
L 545.28585 503.767604 
L 545.449242 503.756474 
L 545.6671 503.650912 
L 546.375136 503.187844 
L 546.592993 502.957408 
L 546.756386 502.817857 
L 546.974243 502.538056 
L 547.627815 501.87534 
L 547.845672 501.712951 
L 548.063529 501.452606 
L 548.117994 501.475265 
L 548.226922 501.294781 
L 548.281386 501.321273 
L 548.499244 501.15218 
L 548.553708 501.200339 
L 548.608172 501.137908 
L 549.425137 500.913322 
L 549.534066 500.983048 
L 549.642994 500.9369 
L 549.697458 501.061581 
L 549.751923 501.024929 
L 549.860851 501.01814 
L 550.024244 501.15404 
L 550.35103 501.301485 
L 550.568887 501.509722 
L 550.841209 501.62521 
L 550.895673 501.471081 
L 550.950138 501.521207 
L 551.11353 501.594626 
L 551.385852 501.508374 
L 551.440316 501.586848 
L 551.494781 501.505144 
L 553.237638 499.964106 
L 553.346567 499.95858 
L 553.564424 499.843616 
L 553.727817 499.856456 
L 554.163532 499.825246 
L 554.381389 499.86933 
L 554.599246 499.928354 
L 555.143889 500.429512 
L 555.416211 500.807379 
L 555.579604 501.032309 
L 555.851925 501.466274 
L 556.396568 502.41704 
L 557.540319 503.726948 
L 557.81264 503.792363 
L 558.248355 503.811035 
L 558.357283 503.635536 
L 558.411748 503.660829 
L 558.792998 503.29561 
L 559.337641 502.666434 
L 559.664427 502.197314 
L 560.535856 501.410013 
L 560.644784 501.421156 
L 560.862642 501.390152 
L 561.080499 501.507107 
L 561.461749 501.599577 
L 561.788535 501.885661 
L 561.842999 501.8409 
L 562.006392 502.014311 
L 562.333178 502.20216 
L 562.496571 502.277701 
L 562.714428 502.284769 
L 562.877821 502.199184 
L 563.095678 502.133944 
L 563.422464 501.662301 
L 563.585857 501.344034 
L 564.293893 499.060369 
L 565.328715 493.474733 
L 566.853715 485.687153 
L 567.126037 485.139064 
L 567.28943 485.063494 
L 567.343894 484.144935 
L 567.507287 485.298893 
L 567.888537 486.595191 
L 568.43318 489.564491 
L 568.977823 493.121137 
L 569.794788 498.461111 
L 570.502824 502.076653 
L 570.993003 503.626643 
L 571.646575 504.510731 
L 571.701039 504.454858 
L 572.082289 504.422793 
L 573.98854 502.073769 
L 574.260861 501.952761 
L 574.424254 501.907018 
L 574.805504 502.014169 
L 574.968897 502.025309 
L 575.295683 502.187067 
L 575.568005 502.38742 
L 575.622469 502.340149 
L 575.676933 502.434845 
L 576.003719 502.646119 
L 576.112648 502.568164 
L 576.167112 502.636577 
L 576.602827 502.67289 
L 576.711755 502.605657 
L 576.875148 502.483492 
L 577.201934 502.321178 
L 577.52872 501.900688 
L 577.637648 501.793373 
L 579.707292 498.612666 
L 580.251935 498.205986 
L 580.633185 498.215743 
L 581.177828 498.27955 
L 581.395686 498.424848 
L 581.504614 498.497014 
L 581.722472 498.577442 
L 582.376043 499.220158 
L 582.811758 499.798748 
L 582.920686 499.919514 
L 583.247472 500.335593 
L 583.301936 500.268473 
L 583.356401 500.320504 
L 583.683187 500.491786 
L 583.792115 500.379032 
L 583.84658 500.552112 
L 583.901044 500.441876 
L 584.064437 500.526702 
L 584.282294 500.468221 
L 584.445687 500.373409 
L 584.554616 500.433525 
L 584.881401 500.321805 
L 584.99033 500.462921 
L 585.044794 500.378142 
L 585.426044 500.618929 
L 585.534973 500.608426 
L 585.75283 500.781593 
L 587.059974 502.474017 
L 587.604617 503.316003 
L 587.713545 503.46795 
L 587.985867 503.895331 
L 588.476046 504.526763 
L 588.802832 504.754693 
L 589.184082 505.050859 
L 590.055511 505.053171 
L 590.382297 504.811739 
L 590.981404 503.720971 
L 591.035868 503.710635 
L 593.759084 495.208264 
L 594.140334 494.689838 
L 594.521584 494.408018 
L 595.011763 494.602452 
L 595.22962 494.794093 
L 596.046585 496.592271 
L 596.536763 498.168492 
L 596.700156 498.664472 
L 597.952835 502.706099 
L 598.170693 503.129257 
L 598.497478 503.762541 
L 598.878729 504.175684 
L 599.096586 504.268778 
L 599.586765 504.254612 
L 599.750157 504.153217 
L 599.859086 504.113952 
L 600.076943 504.058002 
L 600.458193 503.649814 
L 600.567122 503.560086 
L 600.839444 503.262689 
L 601.166229 502.768689 
L 601.601944 502.127495 
L 601.92873 501.527082 
L 602.69123 500.44054 
L 602.800159 500.341297 
L 603.45373 499.805389 
L 603.562659 499.826988 
L 603.671588 499.749285 
L 603.726052 499.792393 
L 603.889445 499.694255 
L 603.998373 499.766629 
L 604.107302 499.718544 
L 604.161766 499.828103 
L 604.216231 499.784245 
L 604.325159 499.784129 
L 604.543017 499.959456 
L 604.924267 500.249416 
L 605.741231 500.732582 
L 606.23141 500.665628 
L 606.503732 500.502411 
L 606.61266 500.50712 
L 607.048375 500.254009 
L 607.375161 500.220587 
L 607.593018 500.235248 
L 607.810875 500.258825 
L 608.028732 500.252507 
L 608.192125 500.337231 
L 608.464447 500.400012 
L 608.845697 500.536564 
L 609.063554 500.637662 
L 609.608197 501.151767 
L 609.880519 501.501767 
L 610.043912 501.702834 
L 610.316233 502.074189 
L 610.806412 502.787185 
L 611.950162 503.775203 
L 612.222484 503.72719 
L 612.712663 503.638352 
L 612.93052 503.40242 
L 613.257306 503.040263 
L 614.509985 501.505338 
L 614.564449 501.528197 
L 614.836771 501.254932 
L 615.7082 501.398895 
L 615.871593 501.493779 
L 616.08945 501.687411 
L 616.252843 501.842668 
L 616.307307 501.808992 
L 616.525164 502.075176 
L 616.743022 502.190667 
L 617.069807 502.494971 
L 617.342129 502.458301 
L 617.559986 502.462447 
L 617.777843 502.292751 
L 618.322486 501.340208 
L 618.649272 500.434631 
L 619.302844 497.675464 
L 620.718916 490.043241 
L 621.100166 488.221159 
L 621.644809 486.753993 
L 621.753738 486.713487 
L 621.808202 485.823447 
L 621.862666 486.730866 
L 622.026059 486.924115 
L 622.461774 488.174489 
L 622.78856 489.604688 
L 623.605524 494.133653 
L 624.531418 499.072627 
L 625.239454 501.618722 
L 625.94749 502.803413 
L 626.001954 502.727934 
L 626.056418 502.811072 
L 626.219811 502.793255 
L 626.492133 502.738904 
L 626.546597 502.779816 
L 626.601061 502.704403 
L 626.982311 502.31363 
L 628.343919 501.188366 
L 628.779634 501.137449 
L 629.051955 501.381973 
L 629.160884 501.442288 
L 629.324277 501.543739 
L 629.651063 501.924108 
L 630.740349 503.299356 
L 630.849277 503.361277 
L 630.958206 503.515412 
L 631.01267 503.483826 
L 631.121599 503.669601 
L 631.176063 503.632633 
L 631.230527 503.571765 
L 631.284992 503.647424 
L 631.611778 503.729564 
L 631.775171 503.747633 
L 632.101956 503.582744 
L 632.809992 502.960121 
L 633.082314 502.570982 
L 634.117136 501.361308 
L 634.988565 500.777795 
L 635.914458 500.56867 
L 636.023387 500.629071 
L 636.186779 500.603388 
L 636.676958 500.785984 
L 637.003744 500.983914 
L 637.276066 501.160414 
L 637.439459 501.272218 
L 638.09303 501.308458 
L 638.201959 501.174123 
L 638.256423 501.110899 
L 638.310887 501.240369 
L 638.365352 501.093546 
L 638.528745 501.072772 
L 639.618031 500.411099 
L 639.672495 500.436991 
L 639.781424 500.353175 
L 640.10821 500.501552 
L 640.217138 500.479941 
L 641.197496 501.375627 
L 642.668032 503.192524 
L 642.776961 503.257392 
L 642.885889 503.298303 
L 643.103747 503.469264 
L 643.26714 503.487472 
L 643.702854 503.619103 
L 643.975176 503.548703 
L 644.138568 503.544581 
L 644.628747 503.312113 
L 644.955533 502.946041 
L 645.009997 502.946152 
L 645.445712 502.007605 
L 645.500176 501.989544 
L 647.406427 496.523346 
L 647.515356 496.375908 
L 647.842141 495.661799 
L 648.059999 495.313362 
L 648.550177 494.911207 
L 649.149285 495.003716 
L 649.367142 495.265584 
L 650.3475 497.334346 
L 652.526072 503.90715 
L 652.743929 504.26355 
L 653.016251 504.643976 
L 653.070715 504.767962 
L 653.125179 504.732219 
L 653.234108 504.824638 
L 653.615358 504.870685 
L 653.88768 504.771537 
L 654.432323 504.404354 
L 655.140359 503.497773 
L 655.79393 502.25624 
L 655.848395 502.232037 
L 656.229645 501.388028 
L 656.774288 500.389521 
L 657.155538 499.640242 
L 657.264467 499.502093 
L 658.081431 498.678158 
L 658.57161 498.585027 
L 658.626074 498.704147 
L 658.680539 498.663224 
L 658.789467 498.647429 
L 659.007325 498.841041 
L 659.660896 499.480522 
L 659.715361 499.442367 
L 659.769825 499.610997 
L 659.824289 499.490675 
L 660.151075 499.89232 
L 660.314468 499.884308 
L 660.368932 500.005712 
L 660.423397 499.965689 
L 661.676076 499.858042 
L 662.49304 500.146946 
L 662.710897 500.285835 
L 663.582326 500.829953 
L 666.142149 504.233317 
L 667.013578 504.531899 
L 667.068042 504.426872 
L 667.122506 504.490008 
L 667.176971 504.491999 
L 667.340364 504.337809 
L 667.667149 504.111671 
L 667.993935 503.68278 
L 668.102864 503.631569 
L 668.375185 503.282995 
L 669.19215 502.474855 
L 669.410007 502.421429 
L 669.5734 502.362151 
L 669.736793 502.358699 
L 669.900186 502.375909 
L 670.118043 502.455351 
L 670.390365 502.533788 
L 670.662686 502.758742 
L 671.316258 503.052607 
L 671.479651 503.137133 
L 671.643044 503.130904 
L 671.806437 503.024767 
L 672.024294 502.94289 
L 672.405544 502.422259 
L 672.73233 501.627195 
L 673.331437 499.446313 
L 673.930545 496.349993 
L 675.346617 488.02312 
L 676.163582 485.509906 
L 676.218046 485.472728 
L 676.218046 485.472728 
" clip-path="url(#p939d5f9218)" style="fill: none; stroke: #0000ff; stroke-width: 1.5; stroke-linecap: square"/>
   </g>
   <g id="patch_3">
    <path d="M 104.4 640.3905 
L 104.4 39.1875 
" style="fill: none; stroke: #000000; stroke-width: 0.8; stroke-linejoin: miter; stroke-linecap: square"/>
   </g>
   <g id="patch_4">
    <path d="M 703.447477 640.3905 
L 703.447477 39.1875 
" style="fill: none; stroke: #000000; stroke-width: 0.8; stroke-linejoin: miter; stroke-linecap: square"/>
   </g>
   <g id="patch_5">
    <path d="M 104.4 640.3905 
L 703.447477 640.3905 
" style="fill: none; stroke: #000000; stroke-width: 0.8; stroke-linejoin: miter; stroke-linecap: square"/>
   </g>
   <g id="patch_6">
    <path d="M 104.4 39.1875 
L 703.447477 39.1875 
" style="fill: none; stroke: #000000; stroke-width: 0.8; stroke-linejoin: miter; stroke-linecap: square"/>
   </g>
  </g>
 </g>
 <defs>
  <clipPath id="p939d5f9218">
   <rect x="104.4" y="39.1875" width="599.047477" height="601.203"/>
  </clipPath>
 </defs>
</svg>
