<?xml version="1.0" encoding="utf-8" standalone="no"?>
<!DOCTYPE svg PUBLIC "-//W3C//DTD SVG 1.1//EN"
  "http://www.w3.org/Graphics/SVG/1.1/DTD/svg11.dtd">
<svg xmlns:xlink="http://www.w3.org/1999/xlink" width="711.588047pt" height="711.105187pt" viewBox="0 0 711.588047 711.105187" xmlns="http://www.w3.org/2000/svg" version="1.1">
 <metadata>
  <rdf:RDF xmlns:dc="http://purl.org/dc/elements/1.1/" xmlns:cc="http://creativecommons.org/ns#" xmlns:rdf="http://www.w3.org/1999/02/22-rdf-syntax-ns#">
   <cc:Work>
    <dc:type rdf:resource="http://purl.org/dc/dcmitype/StillImage"/>
    <dc:date>2025-02-03T18:04:46.829562</dc:date>
    <dc:format>image/svg+xml</dc:format>
    <dc:creator>
     <cc:Agent>
      <dc:title>Matplotlib v3.9.3, https://matplotlib.org/</dc:title>
     </cc:Agent>
    </dc:creator>
   </cc:Work>
  </rdf:RDF>
 </metadata>
 <defs>
  <style type="text/css">*{stroke-linejoin: round; stroke-linecap: butt}</style>
 </defs>
 <g id="figure_1">
  <g id="patch_1">
   <path d="M 0 711.105187 
L 711.588047 711.105187 
L 711.588047 0 
L 0 0 
z
" style="fill: #ffffff"/>
  </g>
  <g id="axes_1">
   <g id="patch_2">
    <path d="M 80.465625 643.2705 
L 704.388047 643.2705 
L 704.388047 39.1875 
L 80.465625 39.1875 
z
" style="fill: #ffffff"/>
   </g>
   <g id="matplotlib.axis_1">
    <g id="xtick_1">
     <g id="line2d_1">
      <defs>
       <path id="m319cab76ef" d="M 0 0 
L 0 -3.5 
" style="stroke: #000000; stroke-width: 0.8"/>
      </defs>
      <g>
       <use xlink:href="#m319cab76ef" x="108.769004" y="643.2705" style="stroke: #000000; stroke-width: 0.8"/>
      </g>
     </g>
     <g id="text_1">
      <!-- 0 -->
      <g transform="translate(101.261738 666.337062) scale(0.27 -0.27)">
       <defs>
        <path id="LiberationSans-30" d="M 3309 2203 
Q 3309 1100 2920 518 
Q 2531 -63 1772 -63 
Q 1013 -63 631 515 
Q 250 1094 250 2203 
Q 250 3338 620 3903 
Q 991 4469 1791 4469 
Q 2569 4469 2939 3897 
Q 3309 3325 3309 2203 
z
M 2738 2203 
Q 2738 3156 2517 3584 
Q 2297 4013 1791 4013 
Q 1272 4013 1045 3591 
Q 819 3169 819 2203 
Q 819 1266 1048 831 
Q 1278 397 1778 397 
Q 2275 397 2506 840 
Q 2738 1284 2738 2203 
z
" transform="scale(0.015625)"/>
       </defs>
       <use xlink:href="#LiberationSans-30"/>
      </g>
     </g>
    </g>
    <g id="xtick_2">
     <g id="line2d_2">
      <g>
       <use xlink:href="#m319cab76ef" x="222.232136" y="643.2705" style="stroke: #000000; stroke-width: 0.8"/>
      </g>
     </g>
     <g id="text_2">
      <!-- 2 -->
      <g transform="translate(214.724871 666.337062) scale(0.27 -0.27)">
       <defs>
        <path id="LiberationSans-32" d="M 322 0 
L 322 397 
Q 481 763 711 1042 
Q 941 1322 1194 1548 
Q 1447 1775 1695 1969 
Q 1944 2163 2144 2356 
Q 2344 2550 2467 2762 
Q 2591 2975 2591 3244 
Q 2591 3606 2378 3806 
Q 2166 4006 1788 4006 
Q 1428 4006 1195 3811 
Q 963 3616 922 3263 
L 347 3316 
Q 409 3844 795 4156 
Q 1181 4469 1788 4469 
Q 2453 4469 2811 4155 
Q 3169 3841 3169 3263 
Q 3169 3006 3051 2753 
Q 2934 2500 2703 2247 
Q 2472 1994 1819 1463 
Q 1459 1169 1246 933 
Q 1034 697 941 478 
L 3238 478 
L 3238 0 
L 322 0 
z
" transform="scale(0.015625)"/>
       </defs>
       <use xlink:href="#LiberationSans-32"/>
      </g>
     </g>
    </g>
    <g id="xtick_3">
     <g id="line2d_3">
      <g>
       <use xlink:href="#m319cab76ef" x="335.695269" y="643.2705" style="stroke: #000000; stroke-width: 0.8"/>
      </g>
     </g>
     <g id="text_3">
      <!-- 4 -->
      <g transform="translate(328.188004 666.337062) scale(0.27 -0.27)">
       <defs>
        <path id="LiberationSans-34" d="M 2753 997 
L 2753 0 
L 2222 0 
L 2222 997 
L 147 997 
L 147 1434 
L 2163 4403 
L 2753 4403 
L 2753 1441 
L 3372 1441 
L 3372 997 
L 2753 997 
z
M 2222 3769 
Q 2216 3750 2134 3603 
Q 2053 3456 2013 3397 
L 884 1734 
L 716 1503 
L 666 1441 
L 2222 1441 
L 2222 3769 
z
" transform="scale(0.015625)"/>
       </defs>
       <use xlink:href="#LiberationSans-34"/>
      </g>
     </g>
    </g>
    <g id="xtick_4">
     <g id="line2d_4">
      <g>
       <use xlink:href="#m319cab76ef" x="449.158402" y="643.2705" style="stroke: #000000; stroke-width: 0.8"/>
      </g>
     </g>
     <g id="text_4">
      <!-- 6 -->
      <g transform="translate(441.651137 666.337062) scale(0.27 -0.27)">
       <defs>
        <path id="LiberationSans-36" d="M 3278 1441 
Q 3278 744 2900 340 
Q 2522 -63 1856 -63 
Q 1113 -63 719 490 
Q 325 1044 325 2100 
Q 325 3244 734 3856 
Q 1144 4469 1900 4469 
Q 2897 4469 3156 3572 
L 2619 3475 
Q 2453 4013 1894 4013 
Q 1413 4013 1148 3564 
Q 884 3116 884 2266 
Q 1038 2550 1316 2698 
Q 1594 2847 1953 2847 
Q 2563 2847 2920 2465 
Q 3278 2084 3278 1441 
z
M 2706 1416 
Q 2706 1894 2472 2153 
Q 2238 2413 1819 2413 
Q 1425 2413 1183 2183 
Q 941 1953 941 1550 
Q 941 1041 1192 716 
Q 1444 391 1838 391 
Q 2244 391 2475 664 
Q 2706 938 2706 1416 
z
" transform="scale(0.015625)"/>
       </defs>
       <use xlink:href="#LiberationSans-36"/>
      </g>
     </g>
    </g>
    <g id="xtick_5">
     <g id="line2d_5">
      <g>
       <use xlink:href="#m319cab76ef" x="562.621535" y="643.2705" style="stroke: #000000; stroke-width: 0.8"/>
      </g>
     </g>
     <g id="text_5">
      <!-- 8 -->
      <g transform="translate(555.11427 666.337062) scale(0.27 -0.27)">
       <defs>
        <path id="LiberationSans-38" d="M 3281 1228 
Q 3281 619 2893 278 
Q 2506 -63 1781 -63 
Q 1075 -63 676 271 
Q 278 606 278 1222 
Q 278 1653 525 1947 
Q 772 2241 1156 2303 
L 1156 2316 
Q 797 2400 589 2681 
Q 381 2963 381 3341 
Q 381 3844 757 4156 
Q 1134 4469 1769 4469 
Q 2419 4469 2795 4162 
Q 3172 3856 3172 3334 
Q 3172 2956 2962 2675 
Q 2753 2394 2391 2322 
L 2391 2309 
Q 2813 2241 3047 1952 
Q 3281 1663 3281 1228 
z
M 2588 3303 
Q 2588 4050 1769 4050 
Q 1372 4050 1164 3862 
Q 956 3675 956 3303 
Q 956 2925 1170 2726 
Q 1384 2528 1775 2528 
Q 2172 2528 2380 2711 
Q 2588 2894 2588 3303 
z
M 2697 1281 
Q 2697 1691 2453 1898 
Q 2209 2106 1769 2106 
Q 1341 2106 1100 1882 
Q 859 1659 859 1269 
Q 859 359 1788 359 
Q 2247 359 2472 579 
Q 2697 800 2697 1281 
z
" transform="scale(0.015625)"/>
       </defs>
       <use xlink:href="#LiberationSans-38"/>
      </g>
     </g>
    </g>
    <g id="xtick_6">
     <g id="line2d_6">
      <g>
       <use xlink:href="#m319cab76ef" x="676.084668" y="643.2705" style="stroke: #000000; stroke-width: 0.8"/>
      </g>
     </g>
     <g id="text_6">
      <!-- 10 -->
      <g transform="translate(661.070137 666.337062) scale(0.27 -0.27)">
       <defs>
        <path id="LiberationSans-31" d="M 488 0 
L 488 478 
L 1609 478 
L 1609 3866 
L 616 3156 
L 616 3688 
L 1656 4403 
L 2175 4403 
L 2175 478 
L 3247 478 
L 3247 0 
L 488 0 
z
" transform="scale(0.015625)"/>
       </defs>
       <use xlink:href="#LiberationSans-31"/>
       <use xlink:href="#LiberationSans-30" x="55.615234"/>
      </g>
     </g>
    </g>
    <g id="xtick_7">
     <g id="line2d_7">
      <defs>
       <path id="m06e36c2cac" d="M 0 0 
L 0 -2 
" style="stroke: #000000; stroke-width: 0.6"/>
      </defs>
      <g>
       <use xlink:href="#m06e36c2cac" x="137.134787" y="643.2705" style="stroke: #000000; stroke-width: 0.6"/>
      </g>
     </g>
    </g>
    <g id="xtick_8">
     <g id="line2d_8">
      <g>
       <use xlink:href="#m06e36c2cac" x="165.50057" y="643.2705" style="stroke: #000000; stroke-width: 0.6"/>
      </g>
     </g>
    </g>
    <g id="xtick_9">
     <g id="line2d_9">
      <g>
       <use xlink:href="#m06e36c2cac" x="193.866353" y="643.2705" style="stroke: #000000; stroke-width: 0.6"/>
      </g>
     </g>
    </g>
    <g id="xtick_10">
     <g id="line2d_10">
      <g>
       <use xlink:href="#m06e36c2cac" x="250.59792" y="643.2705" style="stroke: #000000; stroke-width: 0.6"/>
      </g>
     </g>
    </g>
    <g id="xtick_11">
     <g id="line2d_11">
      <g>
       <use xlink:href="#m06e36c2cac" x="278.963703" y="643.2705" style="stroke: #000000; stroke-width: 0.6"/>
      </g>
     </g>
    </g>
    <g id="xtick_12">
     <g id="line2d_12">
      <g>
       <use xlink:href="#m06e36c2cac" x="307.329486" y="643.2705" style="stroke: #000000; stroke-width: 0.6"/>
      </g>
     </g>
    </g>
    <g id="xtick_13">
     <g id="line2d_13">
      <g>
       <use xlink:href="#m06e36c2cac" x="364.061053" y="643.2705" style="stroke: #000000; stroke-width: 0.6"/>
      </g>
     </g>
    </g>
    <g id="xtick_14">
     <g id="line2d_14">
      <g>
       <use xlink:href="#m06e36c2cac" x="392.426836" y="643.2705" style="stroke: #000000; stroke-width: 0.6"/>
      </g>
     </g>
    </g>
    <g id="xtick_15">
     <g id="line2d_15">
      <g>
       <use xlink:href="#m06e36c2cac" x="420.792619" y="643.2705" style="stroke: #000000; stroke-width: 0.6"/>
      </g>
     </g>
    </g>
    <g id="xtick_16">
     <g id="line2d_16">
      <g>
       <use xlink:href="#m06e36c2cac" x="477.524186" y="643.2705" style="stroke: #000000; stroke-width: 0.6"/>
      </g>
     </g>
    </g>
    <g id="xtick_17">
     <g id="line2d_17">
      <g>
       <use xlink:href="#m06e36c2cac" x="505.889969" y="643.2705" style="stroke: #000000; stroke-width: 0.6"/>
      </g>
     </g>
    </g>
    <g id="xtick_18">
     <g id="line2d_18">
      <g>
       <use xlink:href="#m06e36c2cac" x="534.255752" y="643.2705" style="stroke: #000000; stroke-width: 0.6"/>
      </g>
     </g>
    </g>
    <g id="xtick_19">
     <g id="line2d_19">
      <g>
       <use xlink:href="#m06e36c2cac" x="590.987319" y="643.2705" style="stroke: #000000; stroke-width: 0.6"/>
      </g>
     </g>
    </g>
    <g id="xtick_20">
     <g id="line2d_20">
      <g>
       <use xlink:href="#m06e36c2cac" x="619.353102" y="643.2705" style="stroke: #000000; stroke-width: 0.6"/>
      </g>
     </g>
    </g>
    <g id="xtick_21">
     <g id="line2d_21">
      <g>
       <use xlink:href="#m06e36c2cac" x="647.718885" y="643.2705" style="stroke: #000000; stroke-width: 0.6"/>
      </g>
     </g>
    </g>
    <g id="text_7">
     <!-- Time ps -->
     <g transform="translate(339.650273 697.680187) scale(0.3 -0.3)">
      <defs>
       <path id="LiberationSans-54" d="M 2250 3916 
L 2250 0 
L 1656 0 
L 1656 3916 
L 144 3916 
L 144 4403 
L 3763 4403 
L 3763 3916 
L 2250 3916 
z
" transform="scale(0.015625)"/>
       <path id="LiberationSans-69" d="M 428 4100 
L 428 4638 
L 991 4638 
L 991 4100 
L 428 4100 
z
M 428 0 
L 428 3381 
L 991 3381 
L 991 0 
L 428 0 
z
" transform="scale(0.015625)"/>
       <path id="LiberationSans-6d" d="M 2400 0 
L 2400 2144 
Q 2400 2634 2265 2821 
Q 2131 3009 1781 3009 
Q 1422 3009 1212 2734 
Q 1003 2459 1003 1959 
L 1003 0 
L 444 0 
L 444 2659 
Q 444 3250 425 3381 
L 956 3381 
Q 959 3366 962 3297 
Q 966 3228 970 3139 
Q 975 3050 981 2803 
L 991 2803 
Q 1172 3163 1406 3303 
Q 1641 3444 1978 3444 
Q 2363 3444 2586 3291 
Q 2809 3138 2897 2803 
L 2906 2803 
Q 3081 3144 3329 3294 
Q 3578 3444 3931 3444 
Q 4444 3444 4676 3166 
Q 4909 2888 4909 2253 
L 4909 0 
L 4353 0 
L 4353 2144 
Q 4353 2634 4218 2821 
Q 4084 3009 3734 3009 
Q 3366 3009 3161 2736 
Q 2956 2463 2956 1959 
L 2956 0 
L 2400 0 
z
" transform="scale(0.015625)"/>
       <path id="LiberationSans-65" d="M 863 1572 
Q 863 991 1103 675 
Q 1344 359 1806 359 
Q 2172 359 2392 506 
Q 2613 653 2691 878 
L 3184 738 
Q 2881 -63 1806 -63 
Q 1056 -63 664 384 
Q 272 831 272 1713 
Q 272 2550 664 2997 
Q 1056 3444 1784 3444 
Q 3275 3444 3275 1647 
L 3275 1572 
L 863 1572 
z
M 2694 2003 
Q 2647 2538 2422 2783 
Q 2197 3028 1775 3028 
Q 1366 3028 1127 2754 
Q 888 2481 869 2003 
L 2694 2003 
z
" transform="scale(0.015625)"/>
       <path id="LiberationSans-20" transform="scale(0.015625)"/>
       <path id="LiberationSans-70" d="M 3291 1706 
Q 3291 -63 2047 -63 
Q 1266 -63 997 525 
L 981 525 
Q 994 500 994 -6 
L 994 -1328 
L 431 -1328 
L 431 2691 
Q 431 3213 413 3381 
L 956 3381 
Q 959 3369 965 3292 
Q 972 3216 980 3056 
Q 988 2897 988 2838 
L 1000 2838 
Q 1150 3150 1397 3295 
Q 1644 3441 2047 3441 
Q 2672 3441 2981 3022 
Q 3291 2603 3291 1706 
z
M 2700 1694 
Q 2700 2400 2509 2703 
Q 2319 3006 1903 3006 
Q 1569 3006 1380 2865 
Q 1191 2725 1092 2426 
Q 994 2128 994 1650 
Q 994 984 1206 668 
Q 1419 353 1897 353 
Q 2316 353 2508 661 
Q 2700 969 2700 1694 
z
" transform="scale(0.015625)"/>
       <path id="LiberationSans-73" d="M 2969 934 
Q 2969 456 2608 196 
Q 2247 -63 1597 -63 
Q 966 -63 623 145 
Q 281 353 178 794 
L 675 891 
Q 747 619 972 492 
Q 1197 366 1597 366 
Q 2025 366 2223 497 
Q 2422 628 2422 891 
Q 2422 1091 2284 1216 
Q 2147 1341 1841 1422 
L 1438 1528 
Q 953 1653 748 1773 
Q 544 1894 428 2066 
Q 313 2238 313 2488 
Q 313 2950 642 3192 
Q 972 3434 1603 3434 
Q 2163 3434 2492 3237 
Q 2822 3041 2909 2606 
L 2403 2544 
Q 2356 2769 2151 2889 
Q 1947 3009 1603 3009 
Q 1222 3009 1040 2893 
Q 859 2778 859 2544 
Q 859 2400 934 2306 
Q 1009 2213 1156 2147 
Q 1303 2081 1775 1966 
Q 2222 1853 2419 1758 
Q 2616 1663 2730 1547 
Q 2844 1431 2906 1279 
Q 2969 1128 2969 934 
z
" transform="scale(0.015625)"/>
      </defs>
      <use xlink:href="#LiberationSans-54"/>
      <use xlink:href="#LiberationSans-69" x="57.333984"/>
      <use xlink:href="#LiberationSans-6d" x="79.550781"/>
      <use xlink:href="#LiberationSans-65" x="162.851562"/>
      <use xlink:href="#LiberationSans-20" x="218.466797"/>
      <use xlink:href="#LiberationSans-70" x="246.25"/>
      <use xlink:href="#LiberationSans-73" x="301.865234"/>
     </g>
    </g>
   </g>
   <g id="matplotlib.axis_2">
    <g id="ytick_1">
     <g id="line2d_22">
      <defs>
       <path id="mc39968a15e" d="M 0 0 
L 3.5 0 
" style="stroke: #000000; stroke-width: 0.8"/>
      </defs>
      <g>
       <use xlink:href="#mc39968a15e" x="80.465625" y="615.812182" style="stroke: #000000; stroke-width: 0.8"/>
      </g>
     </g>
     <g id="text_8">
      <!-- $\mathdefault{0.0}$ -->
      <g transform="translate(39.165625 625.595463) scale(0.27 -0.27)">
       <defs>
        <path id="LiberationSans-2e" d="M 584 0 
L 584 684 
L 1194 684 
L 1194 0 
L 584 0 
z
" transform="scale(0.015625)"/>
       </defs>
       <use xlink:href="#LiberationSans-30" transform="translate(0 0.171875)"/>
       <use xlink:href="#LiberationSans-2e" transform="translate(55.615234 0.171875)"/>
       <use xlink:href="#LiberationSans-30" transform="translate(83.398438 0.171875)"/>
      </g>
     </g>
    </g>
    <g id="ytick_2">
     <g id="line2d_23">
      <g>
       <use xlink:href="#mc39968a15e" x="80.465625" y="503.068128" style="stroke: #000000; stroke-width: 0.8"/>
      </g>
     </g>
     <g id="text_9">
      <!-- $\mathdefault{0.2}$ -->
      <g transform="translate(39.165625 512.85141) scale(0.27 -0.27)">
       <use xlink:href="#LiberationSans-30" transform="translate(0 0.171875)"/>
       <use xlink:href="#LiberationSans-2e" transform="translate(55.615234 0.171875)"/>
       <use xlink:href="#LiberationSans-32" transform="translate(83.398438 0.171875)"/>
      </g>
     </g>
    </g>
    <g id="ytick_3">
     <g id="line2d_24">
      <g>
       <use xlink:href="#mc39968a15e" x="80.465625" y="390.324075" style="stroke: #000000; stroke-width: 0.8"/>
      </g>
     </g>
     <g id="text_10">
      <!-- $\mathdefault{0.4}$ -->
      <g transform="translate(39.165625 400.107356) scale(0.27 -0.27)">
       <use xlink:href="#LiberationSans-30" transform="translate(0 0.171875)"/>
       <use xlink:href="#LiberationSans-2e" transform="translate(55.615234 0.171875)"/>
       <use xlink:href="#LiberationSans-34" transform="translate(83.398438 0.171875)"/>
      </g>
     </g>
    </g>
    <g id="ytick_4">
     <g id="line2d_25">
      <g>
       <use xlink:href="#mc39968a15e" x="80.465625" y="277.580022" style="stroke: #000000; stroke-width: 0.8"/>
      </g>
     </g>
     <g id="text_11">
      <!-- $\mathdefault{0.6}$ -->
      <g transform="translate(39.165625 287.363303) scale(0.27 -0.27)">
       <use xlink:href="#LiberationSans-30" transform="translate(0 0.171875)"/>
       <use xlink:href="#LiberationSans-2e" transform="translate(55.615234 0.171875)"/>
       <use xlink:href="#LiberationSans-36" transform="translate(83.398438 0.171875)"/>
      </g>
     </g>
    </g>
    <g id="ytick_5">
     <g id="line2d_26">
      <g>
       <use xlink:href="#mc39968a15e" x="80.465625" y="164.835968" style="stroke: #000000; stroke-width: 0.8"/>
      </g>
     </g>
     <g id="text_12">
      <!-- $\mathdefault{0.8}$ -->
      <g transform="translate(39.165625 174.619249) scale(0.27 -0.27)">
       <use xlink:href="#LiberationSans-30" transform="translate(0 0.171875)"/>
       <use xlink:href="#LiberationSans-2e" transform="translate(55.615234 0.171875)"/>
       <use xlink:href="#LiberationSans-38" transform="translate(83.398438 0.171875)"/>
      </g>
     </g>
    </g>
    <g id="ytick_6">
     <g id="line2d_27">
      <g>
       <use xlink:href="#mc39968a15e" x="80.465625" y="52.091915" style="stroke: #000000; stroke-width: 0.8"/>
      </g>
     </g>
     <g id="text_13">
      <!-- $\mathdefault{1.0}$ -->
      <g transform="translate(39.165625 61.875196) scale(0.27 -0.27)">
       <use xlink:href="#LiberationSans-31" transform="translate(0 0.171875)"/>
       <use xlink:href="#LiberationSans-2e" transform="translate(55.615234 0.171875)"/>
       <use xlink:href="#LiberationSans-30" transform="translate(83.398438 0.171875)"/>
      </g>
     </g>
    </g>
    <g id="ytick_7">
     <g id="line2d_28">
      <defs>
       <path id="m36af1b82ef" d="M 0 0 
L 2 0 
" style="stroke: #000000; stroke-width: 0.6"/>
      </defs>
      <g>
       <use xlink:href="#m36af1b82ef" x="80.465625" y="587.626168" style="stroke: #000000; stroke-width: 0.6"/>
      </g>
     </g>
    </g>
    <g id="ytick_8">
     <g id="line2d_29">
      <g>
       <use xlink:href="#m36af1b82ef" x="80.465625" y="559.440155" style="stroke: #000000; stroke-width: 0.6"/>
      </g>
     </g>
    </g>
    <g id="ytick_9">
     <g id="line2d_30">
      <g>
       <use xlink:href="#m36af1b82ef" x="80.465625" y="531.254142" style="stroke: #000000; stroke-width: 0.6"/>
      </g>
     </g>
    </g>
    <g id="ytick_10">
     <g id="line2d_31">
      <g>
       <use xlink:href="#m36af1b82ef" x="80.465625" y="474.882115" style="stroke: #000000; stroke-width: 0.6"/>
      </g>
     </g>
    </g>
    <g id="ytick_11">
     <g id="line2d_32">
      <g>
       <use xlink:href="#m36af1b82ef" x="80.465625" y="446.696102" style="stroke: #000000; stroke-width: 0.6"/>
      </g>
     </g>
    </g>
    <g id="ytick_12">
     <g id="line2d_33">
      <g>
       <use xlink:href="#m36af1b82ef" x="80.465625" y="418.510088" style="stroke: #000000; stroke-width: 0.6"/>
      </g>
     </g>
    </g>
    <g id="ytick_13">
     <g id="line2d_34">
      <g>
       <use xlink:href="#m36af1b82ef" x="80.465625" y="362.138062" style="stroke: #000000; stroke-width: 0.6"/>
      </g>
     </g>
    </g>
    <g id="ytick_14">
     <g id="line2d_35">
      <g>
       <use xlink:href="#m36af1b82ef" x="80.465625" y="333.952048" style="stroke: #000000; stroke-width: 0.6"/>
      </g>
     </g>
    </g>
    <g id="ytick_15">
     <g id="line2d_36">
      <g>
       <use xlink:href="#m36af1b82ef" x="80.465625" y="305.766035" style="stroke: #000000; stroke-width: 0.6"/>
      </g>
     </g>
    </g>
    <g id="ytick_16">
     <g id="line2d_37">
      <g>
       <use xlink:href="#m36af1b82ef" x="80.465625" y="249.394008" style="stroke: #000000; stroke-width: 0.6"/>
      </g>
     </g>
    </g>
    <g id="ytick_17">
     <g id="line2d_38">
      <g>
       <use xlink:href="#m36af1b82ef" x="80.465625" y="221.207995" style="stroke: #000000; stroke-width: 0.6"/>
      </g>
     </g>
    </g>
    <g id="ytick_18">
     <g id="line2d_39">
      <g>
       <use xlink:href="#m36af1b82ef" x="80.465625" y="193.021982" style="stroke: #000000; stroke-width: 0.6"/>
      </g>
     </g>
    </g>
    <g id="ytick_19">
     <g id="line2d_40">
      <g>
       <use xlink:href="#m36af1b82ef" x="80.465625" y="136.649955" style="stroke: #000000; stroke-width: 0.6"/>
      </g>
     </g>
    </g>
    <g id="ytick_20">
     <g id="line2d_41">
      <g>
       <use xlink:href="#m36af1b82ef" x="80.465625" y="108.463942" style="stroke: #000000; stroke-width: 0.6"/>
      </g>
     </g>
    </g>
    <g id="ytick_21">
     <g id="line2d_42">
      <g>
       <use xlink:href="#m36af1b82ef" x="80.465625" y="80.277928" style="stroke: #000000; stroke-width: 0.6"/>
      </g>
     </g>
    </g>
    <g id="text_14">
     <!-- ITR $\mathrm{K} \cdot \mathrm{m}^2 / \mathrm{W}$ -->
     <g transform="translate(28.940625 425.229) rotate(-90) scale(0.3 -0.3)">
      <defs>
       <path id="LiberationSans-49" d="M 591 0 
L 591 4403 
L 1188 4403 
L 1188 0 
L 591 0 
z
" transform="scale(0.015625)"/>
       <path id="LiberationSans-52" d="M 3638 0 
L 2494 1828 
L 1122 1828 
L 1122 0 
L 525 0 
L 525 4403 
L 2597 4403 
Q 3341 4403 3745 4070 
Q 4150 3738 4150 3144 
Q 4150 2653 3864 2318 
Q 3578 1984 3075 1897 
L 4325 0 
L 3638 0 
z
M 3550 3138 
Q 3550 3522 3289 3723 
Q 3028 3925 2538 3925 
L 1122 3925 
L 1122 2300 
L 2563 2300 
Q 3034 2300 3292 2520 
Q 3550 2741 3550 3138 
z
" transform="scale(0.015625)"/>
       <path id="STIXGeneral-Regular-4b" d="M 4627 0 
L 2688 0 
L 2688 122 
L 2861 128 
Q 3130 134 3130 282 
Q 3130 397 2922 643 
Q 2714 890 2253 1370 
L 1613 2029 
L 1446 1894 
L 1446 710 
Q 1446 352 1548 253 
Q 1651 154 2016 122 
L 2016 0 
L 211 0 
L 211 122 
Q 589 141 691 262 
Q 794 384 794 800 
L 794 3514 
Q 794 3872 691 3981 
Q 589 4090 218 4115 
L 218 4237 
L 2022 4237 
L 2022 4115 
Q 1632 4090 1539 3987 
Q 1446 3885 1446 3507 
L 1446 2227 
L 2586 3277 
Q 2861 3533 2973 3667 
Q 3085 3802 3085 3910 
Q 3085 4013 3030 4057 
Q 2976 4102 2822 4109 
L 2662 4115 
L 2662 4237 
L 4320 4237 
L 4320 4115 
Q 3994 4090 3824 4003 
Q 3654 3917 3322 3597 
L 2131 2458 
L 3629 819 
Q 4026 384 4214 253 
Q 4403 122 4627 122 
L 4627 0 
z
" transform="scale(0.015625)"/>
       <path id="STIXGeneral-Regular-22c5" d="M 1187 1888 
Q 1299 1773 1299 1619 
Q 1299 1466 1187 1350 
Q 1075 1235 921 1235 
Q 768 1235 649 1353 
Q 531 1472 531 1619 
Q 531 1766 649 1884 
Q 768 2003 921 2003 
Q 1075 2003 1187 1888 
z
" transform="scale(0.015625)"/>
       <path id="STIXGeneral-Regular-6d" d="M 4960 0 
L 3565 0 
L 3565 96 
Q 3834 122 3907 208 
Q 3981 294 3981 576 
L 3981 1894 
Q 3981 2278 3869 2444 
Q 3757 2611 3488 2611 
Q 3264 2611 3107 2521 
Q 2950 2432 2803 2221 
L 2803 608 
Q 2803 301 2896 201 
Q 2989 102 3264 96 
L 3264 0 
L 1830 0 
L 1830 96 
Q 2112 115 2189 188 
Q 2266 262 2266 550 
L 2266 1901 
Q 2266 2611 1850 2611 
Q 1670 2611 1468 2531 
Q 1267 2451 1171 2336 
Q 1088 2240 1088 2227 
L 1088 448 
Q 1088 243 1177 176 
Q 1267 109 1523 96 
L 1523 0 
L 102 0 
L 102 96 
Q 371 102 460 195 
Q 550 288 550 563 
L 550 2150 
Q 550 2387 499 2480 
Q 448 2573 326 2573 
Q 230 2573 122 2547 
L 122 2656 
Q 557 2778 1011 2944 
L 1062 2925 
L 1062 2451 
L 1075 2451 
Q 1363 2752 1584 2848 
Q 1805 2944 2054 2944 
Q 2560 2944 2733 2406 
Q 3232 2944 3776 2944 
Q 4518 2944 4518 1792 
L 4518 493 
Q 4518 282 4582 202 
Q 4646 122 4794 109 
L 4960 96 
L 4960 0 
z
" transform="scale(0.015625)"/>
       <path id="STIXGeneral-Regular-32" d="M 3034 877 
L 2688 0 
L 186 0 
L 186 77 
L 1325 1286 
Q 1773 1754 1965 2144 
Q 2157 2534 2157 2950 
Q 2157 3379 1920 3616 
Q 1683 3853 1267 3853 
Q 922 3853 720 3673 
Q 518 3494 326 3021 
L 192 3053 
Q 301 3648 630 3987 
Q 960 4326 1523 4326 
Q 2054 4326 2380 4006 
Q 2707 3686 2707 3200 
Q 2707 2477 1888 1613 
L 832 486 
L 2330 486 
Q 2541 486 2665 569 
Q 2790 653 2944 915 
L 3034 877 
z
" transform="scale(0.015625)"/>
       <path id="STIXGeneral-Regular-2f" d="M 1837 4326 
L 378 -90 
L -58 -90 
L 1408 4326 
L 1837 4326 
z
" transform="scale(0.015625)"/>
       <path id="STIXGeneral-Regular-57" d="M 5965 4237 
L 5965 4115 
Q 5709 4064 5616 3990 
Q 5523 3917 5434 3667 
Q 4704 1709 4128 -70 
L 4032 -70 
Q 3642 1011 3008 2637 
L 2022 -70 
L 1926 -70 
Q 1709 576 1277 1753 
Q 845 2931 698 3347 
Q 538 3808 406 3958 
Q 275 4109 32 4115 
L 32 4237 
L 1594 4237 
L 1594 4115 
Q 1357 4109 1270 4064 
Q 1184 4019 1184 3917 
Q 1184 3808 1254 3616 
L 2176 1210 
L 2842 3021 
L 2662 3501 
Q 2509 3917 2400 4013 
Q 2291 4109 2010 4115 
L 2010 4237 
L 3706 4237 
L 3706 4115 
Q 3213 4102 3213 3891 
Q 3213 3808 3322 3520 
L 4237 1190 
L 5043 3360 
Q 5152 3667 5152 3853 
Q 5152 4109 4704 4115 
L 4704 4237 
L 5965 4237 
z
" transform="scale(0.015625)"/>
      </defs>
      <use xlink:href="#LiberationSans-49" transform="translate(0 0.409375)"/>
      <use xlink:href="#LiberationSans-54" transform="translate(27.783203 0.409375)"/>
      <use xlink:href="#LiberationSans-52" transform="translate(88.867188 0.409375)"/>
      <use xlink:href="#LiberationSans-20" transform="translate(161.083984 0.409375)"/>
      <use xlink:href="#STIXGeneral-Regular-4b" transform="translate(188.867188 0.409375)"/>
      <use xlink:href="#STIXGeneral-Regular-22c5" transform="translate(275.507166 0.409375)"/>
      <use xlink:href="#STIXGeneral-Regular-6d" transform="translate(318.547153 0.409375)"/>
      <use xlink:href="#STIXGeneral-Regular-32" transform="translate(397.890422 35.684375) scale(0.7)"/>
      <use xlink:href="#STIXGeneral-Regular-2f" transform="translate(437.299786 0.409375)"/>
      <use xlink:href="#STIXGeneral-Regular-57" transform="translate(465.099774 0.409375)"/>
     </g>
    </g>
    <g id="text_15">
     <!-- $\times\mathdefault{10^{−6}}\mathdefault{}$ -->
     <g transform="translate(80.465625 36.1875) scale(0.4 -0.4)">
      <defs>
       <path id="STIXGeneral-Regular-d7" d="M 3821 141 
L 3526 -160 
L 2048 1312 
L 570 -160 
L 275 134 
L 1747 1613 
L 275 3091 
L 576 3386 
L 2048 1914 
L 3526 3386 
L 3821 3098 
L 2349 1613 
L 3821 141 
z
" transform="scale(0.015625)"/>
       <path id="LiberationSans-2212" d="M 316 1900 
L 316 2356 
L 3425 2356 
L 3425 1900 
L 316 1900 
z
" transform="scale(0.015625)"/>
      </defs>
      <use xlink:href="#STIXGeneral-Regular-d7" transform="translate(0 0.140625)"/>
      <use xlink:href="#LiberationSans-31" transform="translate(63.999985 0.140625)"/>
      <use xlink:href="#LiberationSans-30" transform="translate(119.615219 0.140625)"/>
      <use xlink:href="#LiberationSans-2212" transform="translate(176.154946 37.120312) scale(0.7)"/>
      <use xlink:href="#LiberationSans-36" transform="translate(217.033852 37.120312) scale(0.7)"/>
     </g>
    </g>
   </g>
   <g id="line2d_43">
    <path d="M 108.825735 615.812182 
L 108.882467 66.645818 
L 108.939198 336.836792 
L 109.109393 502.702179 
L 109.336319 552.131406 
L 109.619977 574.026628 
L 109.960366 585.59252 
L 110.357487 592.284983 
L 110.81134 596.311419 
L 111.265192 598.496239 
L 111.719045 599.649093 
L 112.116166 600.102048 
L 112.456555 600.181628 
L 112.796945 600.02255 
L 113.194066 599.572894 
L 113.70465 598.6258 
L 114.328697 596.973965 
L 115.179671 594.047029 
L 117.902786 584.142239 
L 118.640296 582.415904 
L 119.264343 581.460915 
L 119.774927 581.037682 
L 120.22878 580.930836 
L 120.682632 581.078468 
L 121.136485 581.446999 
L 121.930727 582.437643 
L 123.12209 583.919323 
L 123.689406 584.313428 
L 124.19999 584.419894 
L 124.653842 584.289753 
L 125.164426 583.90227 
L 125.788473 583.117374 
L 126.809642 581.371778 
L 128.227931 578.987369 
L 129.022173 578.099647 
L 129.873146 577.497412 
L 132.426067 575.994997 
L 133.106846 575.109624 
L 134.184745 573.231514 
L 135.149182 571.729569 
L 135.716498 571.231983 
L 136.227082 571.095401 
L 136.737666 571.198901 
L 137.531908 571.675699 
L 138.666539 572.369824 
L 139.177123 572.442513 
L 139.687707 572.298339 
L 140.198291 571.916544 
L 140.87907 571.111729 
L 142.751212 568.685873 
L 143.431991 568.243101 
L 143.999306 568.123506 
L 144.680085 568.223036 
L 145.701253 568.372059 
L 146.211837 568.205472 
L 146.722421 567.767218 
L 147.233006 567.003709 
L 147.913784 565.543845 
L 150.183047 560.111846 
L 150.6369 559.783885 
L 151.034021 559.771437 
L 151.431142 560.009772 
L 151.941726 560.588998 
L 152.849431 562.029316 
L 153.757136 563.316642 
L 154.324451 563.798569 
L 154.835036 563.923683 
L 155.288888 563.78676 
L 155.799472 563.373239 
L 156.480251 562.486154 
L 158.522587 559.556696 
L 159.827413 557.930759 
L 160.508192 556.653764 
L 161.302434 554.612193 
L 163.288039 549.184109 
L 163.628428 548.875677 
L 163.912086 548.874329 
L 164.195744 549.105751 
L 164.536133 549.694017 
L 165.046717 551.124967 
L 167.145785 557.834391 
L 167.713101 558.709252 
L 168.223685 559.128234 
L 168.677538 559.247091 
L 169.188122 559.160474 
L 169.925632 558.780011 
L 171.854505 557.679503 
L 173.329526 557.215794 
L 174.464158 556.72999 
L 177.527662 555.177542 
L 178.492099 555.138139 
L 183.768134 555.66308 
L 185.470081 556.151953 
L 186.15086 556.095369 
L 186.774907 555.830897 
L 187.455686 555.294257 
L 188.30666 554.322996 
L 190.802849 551.227526 
L 191.313433 551.049293 
L 191.767285 551.121783 
L 192.277869 551.457011 
L 192.901917 552.172018 
L 194.036548 553.927204 
L 195.171179 555.556667 
L 195.851958 556.19854 
L 196.419274 556.467949 
L 196.986589 556.4836 
L 197.553905 556.258285 
L 198.291415 555.68172 
L 199.53951 554.345894 
L 201.411652 552.343247 
L 202.319357 551.704422 
L 203.283793 551.331462 
L 205.042472 551.002787 
L 206.404029 550.818449 
L 207.255003 550.948486 
L 210.148313 551.589608 
L 210.829092 551.420334 
L 211.566602 550.998193 
L 212.58777 550.113295 
L 214.459912 548.415303 
L 216.615711 546.650224 
L 218.941706 544.314227 
L 219.338827 544.323415 
L 219.679216 544.545465 
L 220.076337 545.091348 
L 220.586921 546.254058 
L 221.210968 548.308952 
L 222.402331 553.266361 
L 223.310036 556.535749 
L 223.990815 558.194481 
L 224.558131 559.049119 
L 225.068715 559.457634 
L 225.579299 559.584023 
L 226.146615 559.484578 
L 227.05432 559.057603 
L 228.86973 558.208317 
L 230.571677 557.453085 
L 231.649577 556.652882 
L 233.521718 555.220491 
L 234.259229 554.951037 
L 235.053471 554.910122 
L 236.188102 555.117057 
L 238.173707 555.460809 
L 239.478533 555.395795 
L 240.896822 555.4306 
L 241.91799 555.382183 
L 242.6555 555.132815 
L 243.336279 554.674749 
L 244.130521 553.856128 
L 245.265152 552.31379 
L 246.967099 550.017263 
L 247.534415 549.603275 
L 247.988268 549.511337 
L 248.44212 549.647291 
L 248.952704 550.067276 
L 249.576752 550.90616 
L 250.654651 552.824441 
L 251.902746 554.911216 
L 252.583525 555.658079 
L 253.15084 555.982609 
L 253.661424 556.027567 
L 254.172008 555.848142 
L 254.796056 555.372595 
L 255.873955 554.1837 
L 257.519171 552.395349 
L 258.313413 551.862348 
L 259.050923 551.64186 
L 259.901897 551.653867 
L 261.944233 551.810939 
L 263.873106 551.709213 
L 265.575053 552.012194 
L 266.709685 552.14068 
L 267.447195 552.012453 
L 268.184705 551.673158 
L 269.262605 550.910238 
L 270.680894 549.91989 
L 271.872257 549.389109 
L 272.950157 548.858502 
L 273.80113 548.183954 
L 275.616541 546.621591 
L 276.013662 546.595135 
L 276.410782 546.811977 
L 276.807903 547.314473 
L 277.318488 548.390602 
L 277.942535 550.29949 
L 279.190629 555.117507 
L 280.041603 557.922261 
L 280.722382 559.437111 
L 281.289697 560.198241 
L 281.800281 560.541649 
L 282.310865 560.619879 
L 282.934913 560.46444 
L 284.126276 559.859715 
L 285.601296 559.229581 
L 287.076317 558.581212 
L 287.984022 557.884595 
L 290.877332 555.331145 
L 291.614842 555.113778 
L 292.465816 555.104442 
L 297.798583 555.711114 
L 299.046678 555.93826 
L 299.840919 555.84054 
L 300.57843 555.516551 
L 301.486135 554.8365 
L 303.017887 553.333123 
L 303.925592 552.591072 
L 304.492908 552.379695 
L 305.003492 552.407021 
L 305.570808 552.688726 
L 306.251586 553.318853 
L 307.442949 554.807846 
L 308.520849 556.021574 
L 309.258359 556.529494 
L 309.882407 556.683751 
L 310.506454 556.580329 
L 311.187233 556.212134 
L 312.321864 555.279766 
L 313.967079 553.997623 
L 314.931516 553.511663 
L 315.839221 553.300637 
L 318.789263 552.853878 
L 320.264283 552.366648 
L 321.342183 552.309675 
L 323.895104 552.309969 
L 324.632614 551.986895 
L 325.540319 551.317134 
L 328.036508 549.30408 
L 329.851918 548.101354 
L 330.816355 547.061635 
L 332.177912 545.540766 
L 332.631765 545.3407 
L 332.972154 545.398233 
L 333.312544 545.67516 
L 333.709665 546.300333 
L 334.220249 547.579163 
L 334.901028 550.002655 
L 337.056827 558.280217 
L 337.680874 559.605926 
L 338.24819 560.315999 
L 338.758774 560.602074 
L 339.269358 560.621905 
L 339.893405 560.397838 
L 341.198231 559.598102 
L 342.729984 558.792258 
L 343.978078 558.075856 
L 344.942515 557.245557 
L 347.268509 555.10107 
L 348.062751 554.753515 
L 348.913724 554.650776 
L 352.37435 554.568962 
L 353.906102 554.308588 
L 356.061902 554.149375 
L 356.856144 553.787145 
L 357.650386 553.164424 
L 358.671554 552.04562 
L 360.827353 549.558435 
L 361.337938 549.332865 
L 361.79179 549.347816 
L 362.302374 549.622992 
L 362.86969 550.217798 
L 363.663932 551.40663 
L 365.479342 554.224419 
L 366.160121 554.850984 
L 366.727436 555.087688 
L 367.23802 555.072068 
L 367.805336 554.818845 
L 368.542846 554.219937 
L 371.606351 551.417677 
L 372.514056 551.031836 
L 373.818882 550.804549 
L 375.066977 550.530113 
L 376.939118 549.978261 
L 377.846823 550.044489 
L 380.569939 550.372544 
L 381.250717 550.093999 
L 382.101691 549.469124 
L 384.59788 547.413163 
L 386.867142 546.066252 
L 387.831579 545.001129 
L 388.852747 543.926002 
L 389.3066 543.742577 
L 389.646989 543.826055 
L 389.987379 544.142751 
L 390.3845 544.838175 
L 390.895084 546.248396 
L 391.575862 548.903202 
L 393.731662 558.005724 
L 394.355709 559.484677 
L 394.923025 560.288672 
L 395.433609 560.626562 
L 395.944193 560.671197 
L 396.511509 560.476813 
L 397.532677 559.823635 
L 398.950966 558.98608 
L 400.936571 557.902912 
L 401.844276 557.059927 
L 404.567391 554.328479 
L 405.304902 554.024877 
L 406.042412 553.946629 
L 407.06358 554.060792 
L 412.8502 555.094742 
L 413.58771 554.903046 
L 414.325221 554.490769 
L 415.289657 553.6764 
L 417.615651 551.560185 
L 418.126236 551.450377 
L 418.580088 551.54769 
L 419.090672 551.878014 
L 419.771451 552.623196 
L 422.324371 555.779382 
L 422.891687 556.005238 
L 423.402271 555.969963 
L 423.969587 555.668761 
L 424.593634 555.05675 
L 425.614802 553.688663 
L 427.089823 551.782085 
L 427.940797 551.034067 
L 428.621575 550.716307 
L 429.302354 550.640305 
L 430.153328 550.792803 
L 432.252396 551.248322 
L 434.067806 551.409513 
L 436.3938 551.770803 
L 437.188042 551.639111 
L 437.925552 551.276079 
L 438.776526 550.583886 
L 441.215983 548.385112 
L 443.712172 546.696886 
L 444.73334 545.443471 
L 445.641045 544.408759 
L 446.094898 544.16968 
L 446.435287 544.203374 
L 446.775677 544.465083 
L 447.172798 545.086702 
L 447.683382 546.386789 
L 448.307429 548.650073 
L 450.633423 557.849456 
L 451.25747 559.161326 
L 451.824786 559.870659 
L 452.33537 560.177116 
L 452.902686 560.244166 
L 453.640196 560.080489 
L 455.512338 559.573251 
L 457.214285 559.20159 
L 458.008527 558.744105 
L 458.972963 557.897499 
L 460.731642 556.32961 
L 461.469152 555.991974 
L 462.206663 555.910625 
L 463.227831 556.086403 
L 465.553825 556.596533 
L 468.333672 556.495178 
L 469.241377 556.311105 
L 470.035619 555.92622 
L 470.829861 555.298824 
L 471.907761 554.126191 
L 474.177023 551.538905 
L 474.744339 551.265932 
L 475.254923 551.267588 
L 475.765507 551.514367 
L 476.332823 552.045183 
L 477.183796 553.178464 
L 478.885743 555.479616 
L 479.566522 556.023776 
L 480.133838 556.223208 
L 480.701153 556.184796 
L 481.325201 555.894284 
L 482.176174 555.219736 
L 484.842558 552.961994 
L 485.750263 552.525488 
L 486.828163 552.271085 
L 488.870499 551.836438 
L 490.175325 551.522835 
L 491.026298 551.598328 
L 492.387856 551.984452 
L 493.579219 552.251668 
L 494.259998 552.179249 
L 494.940777 551.87852 
L 495.735019 551.268053 
L 499.592765 547.882917 
L 500.727396 546.78592 
L 502.145686 545.391718 
L 502.599538 545.238875 
L 502.939927 545.318979 
L 503.280317 545.604625 
L 503.677438 546.231821 
L 504.188022 547.506533 
L 504.868801 549.925232 
L 507.251527 559.224872 
L 507.875574 560.466528 
L 508.386158 561.036666 
L 508.84001 561.244992 
L 509.293863 561.222882 
L 509.861179 560.957989 
L 510.882347 560.165105 
L 512.07371 559.314396 
L 513.321804 558.745299 
L 514.62663 558.106713 
L 515.874725 557.1855 
L 517.406477 556.114739 
L 518.200719 555.835802 
L 519.051692 555.784422 
L 520.356518 555.977134 
L 522.342123 556.270816 
L 524.04407 556.410202 
L 525.972943 556.727637 
L 526.767185 556.584882 
L 527.504696 556.218063 
L 528.355669 555.524486 
L 529.603764 554.180841 
L 530.795127 552.974421 
L 531.362442 552.673688 
L 531.873026 552.638078 
L 532.38361 552.841233 
L 532.950926 553.31968 
L 533.8019 554.386929 
L 535.560578 556.662347 
L 536.241357 557.166337 
L 536.808673 557.333665 
L 537.375988 557.266559 
L 538.000036 556.949705 
L 538.907741 556.187025 
L 541.347198 554.023125 
L 542.311635 553.50276 
L 543.332803 553.203278 
L 545.828992 552.559651 
L 546.963623 552.239235 
L 547.871328 552.24233 
L 550.594443 552.398696 
L 551.275222 552.08417 
L 552.012732 551.488478 
L 553.317558 550.072501 
L 554.395458 549.045861 
L 555.246432 548.544097 
L 557.629158 547.407369 
L 558.82052 546.699241 
L 559.331105 546.664176 
L 559.728225 546.868887 
L 560.125346 547.33408 
L 560.579199 548.221862 
L 561.146515 549.854241 
L 561.940757 552.902878 
L 563.52924 559.162136 
L 564.210019 560.851253 
L 564.777335 561.686462 
L 565.231187 562.013881 
L 565.68504 562.077937 
L 566.195624 561.900151 
L 566.876403 561.393369 
L 568.918739 559.696134 
L 569.996639 559.193572 
L 571.698586 558.419561 
L 573.627459 557.444153 
L 574.36497 557.338953 
L 575.10248 557.4677 
L 576.066917 557.902595 
L 578.109253 558.898675 
L 579.016958 559.084781 
L 580.605442 559.063824 
L 582.364121 558.928766 
L 583.158362 558.639954 
L 583.952604 558.11495 
L 584.860309 557.223701 
L 586.278599 555.448917 
L 587.469962 554.064182 
L 588.037277 553.697295 
L 588.547861 553.62292 
L 589.001714 553.777333 
L 589.512298 554.182373 
L 590.193077 555.03296 
L 592.745997 558.585709 
L 593.313313 558.922046 
L 593.823897 559.002561 
L 594.334481 558.882557 
L 594.958528 558.495497 
L 595.922965 557.59237 
L 597.738375 555.896399 
L 598.532617 555.441807 
L 599.326859 555.246268 
L 600.177832 555.268834 
L 602.447095 555.465828 
L 604.602895 555.374038 
L 606.475036 555.320434 
L 607.32601 555.067378 
L 608.120252 554.592854 
L 609.14142 553.678334 
L 610.900098 552.062643 
L 611.751072 551.612529 
L 614.530919 550.449659 
L 615.835745 549.677929 
L 616.289597 549.641813 
L 616.686718 549.81179 
L 617.140571 550.295457 
L 617.651155 551.235585 
L 618.275202 552.923505 
L 619.29637 556.501191 
L 620.317539 559.832818 
L 620.998317 561.347546 
L 621.565633 562.135425 
L 622.076217 562.509946 
L 622.586801 562.615722 
L 623.154117 562.50119 
L 624.118553 562.030566 
L 625.480111 561.437981 
L 628.486884 560.488925 
L 629.621515 559.642973 
L 631.153268 558.523939 
L 632.060973 558.139633 
L 633.082141 557.950694 
L 636.65623 557.433284 
L 637.790861 557.31384 
L 639.54954 557.171795 
L 640.400513 556.840756 
L 641.308218 556.232941 
L 642.953434 554.788576 
L 644.031333 553.99821 
L 644.598649 553.827866 
L 645.109233 553.897491 
L 645.619817 554.182428 
L 646.243864 554.792541 
L 647.208301 556.107974 
L 648.683322 558.077334 
L 649.364101 558.639796 
L 649.931416 558.84871 
L 650.442 558.821465 
L 651.009316 558.56167 
L 651.690095 557.978842 
L 652.994921 556.477066 
L 654.243015 555.197128 
L 655.037257 554.691466 
L 655.661304 554.529283 
L 656.342083 554.58523 
L 657.249788 554.924325 
L 658.951735 555.60714 
L 660.256561 555.782415 
L 662.582556 555.943702 
L 663.546992 555.767863 
L 664.284503 555.419079 
L 665.078744 554.786989 
L 666.099913 553.652348 
L 668.085517 551.4232 
L 669.163417 550.631953 
L 670.638438 549.554894 
L 672.567311 547.999072 
L 673.021164 547.965698 
L 673.418285 548.179303 
L 673.815406 548.667913 
L 674.32599 549.72087 
L 674.950037 551.609093 
L 675.914474 555.370109 
L 676.027937 555.833856 
L 676.027937 555.833856 
" clip-path="url(#p7e6f45b0fa)" style="fill: none; stroke: #0000ff; stroke-width: 1.5; stroke-linecap: square"/>
   </g>
   <g id="patch_3">
    <path d="M 80.465625 643.2705 
L 80.465625 39.1875 
" style="fill: none; stroke: #000000; stroke-width: 0.8; stroke-linejoin: miter; stroke-linecap: square"/>
   </g>
   <g id="patch_4">
    <path d="M 704.388047 643.2705 
L 704.388047 39.1875 
" style="fill: none; stroke: #000000; stroke-width: 0.8; stroke-linejoin: miter; stroke-linecap: square"/>
   </g>
   <g id="patch_5">
    <path d="M 80.465625 643.2705 
L 704.388047 643.2705 
" style="fill: none; stroke: #000000; stroke-width: 0.8; stroke-linejoin: miter; stroke-linecap: square"/>
   </g>
   <g id="patch_6">
    <path d="M 80.465625 39.1875 
L 704.388047 39.1875 
" style="fill: none; stroke: #000000; stroke-width: 0.8; stroke-linejoin: miter; stroke-linecap: square"/>
   </g>
  </g>
 </g>
 <defs>
  <clipPath id="p7e6f45b0fa">
   <rect x="80.465625" y="39.1875" width="623.922422" height="604.083"/>
  </clipPath>
 </defs>
</svg>
