<?xml version="1.0" encoding="utf-8" standalone="no"?>
<!DOCTYPE svg PUBLIC "-//W3C//DTD SVG 1.1//EN"
  "http://www.w3.org/Graphics/SVG/1.1/DTD/svg11.dtd">
<svg xmlns:xlink="http://www.w3.org/1999/xlink" width="710.741988pt" height="711.02175pt" viewBox="0 0 710.741988 711.02175" xmlns="http://www.w3.org/2000/svg" version="1.1">
 <metadata>
  <rdf:RDF xmlns:dc="http://purl.org/dc/elements/1.1/" xmlns:cc="http://creativecommons.org/ns#" xmlns:rdf="http://www.w3.org/1999/02/22-rdf-syntax-ns#">
   <cc:Work>
    <dc:type rdf:resource="http://purl.org/dc/dcmitype/StillImage"/>
    <dc:date>2025-02-06T00:22:47.187669</dc:date>
    <dc:format>image/svg+xml</dc:format>
    <dc:creator>
     <cc:Agent>
      <dc:title>Matplotlib v3.9.3, https://matplotlib.org/</dc:title>
     </cc:Agent>
    </dc:creator>
   </cc:Work>
  </rdf:RDF>
 </metadata>
 <defs>
  <style type="text/css">*{stroke-linejoin: round; stroke-linecap: butt}</style>
 </defs>
 <g id="figure_1">
  <g id="patch_1">
   <path d="M 0 711.02175 
L 710.741988 711.02175 
L 710.741988 0 
L 0 0 
z
" style="fill: #ffffff"/>
  </g>
  <g id="axes_1">
   <g id="patch_2">
    <path d="M 79.5 640.3905 
L 703.541988 640.3905 
L 703.541988 39.1875 
L 79.5 39.1875 
z
" style="fill: #ffffff"/>
   </g>
   <g id="matplotlib.axis_1">
    <g id="xtick_1">
     <g id="line2d_1">
      <defs>
       <path id="m7d38b23764" d="M 0 0 
L 0 -3.5 
" style="stroke: #000000; stroke-width: 0.8"/>
      </defs>
      <g>
       <use xlink:href="#m7d38b23764" x="107.808808" y="640.3905" style="stroke: #000000; stroke-width: 0.8"/>
      </g>
     </g>
     <g id="text_1">
      <!-- 0 -->
      <g transform="translate(99.467402 665.631125) scale(0.3 -0.3)">
       <defs>
        <path id="LiberationSans-30" d="M 3309 2203 
Q 3309 1100 2920 518 
Q 2531 -63 1772 -63 
Q 1013 -63 631 515 
Q 250 1094 250 2203 
Q 250 3338 620 3903 
Q 991 4469 1791 4469 
Q 2569 4469 2939 3897 
Q 3309 3325 3309 2203 
z
M 2738 2203 
Q 2738 3156 2517 3584 
Q 2297 4013 1791 4013 
Q 1272 4013 1045 3591 
Q 819 3169 819 2203 
Q 819 1266 1048 831 
Q 1278 397 1778 397 
Q 2275 397 2506 840 
Q 2738 1284 2738 2203 
z
" transform="scale(0.015625)"/>
       </defs>
       <use xlink:href="#LiberationSans-30"/>
      </g>
     </g>
    </g>
    <g id="xtick_2">
     <g id="line2d_2">
      <g>
       <use xlink:href="#m7d38b23764" x="221.282335" y="640.3905" style="stroke: #000000; stroke-width: 0.8"/>
      </g>
     </g>
     <g id="text_2">
      <!-- 2 -->
      <g transform="translate(212.940929 665.631125) scale(0.3 -0.3)">
       <defs>
        <path id="LiberationSans-32" d="M 322 0 
L 322 397 
Q 481 763 711 1042 
Q 941 1322 1194 1548 
Q 1447 1775 1695 1969 
Q 1944 2163 2144 2356 
Q 2344 2550 2467 2762 
Q 2591 2975 2591 3244 
Q 2591 3606 2378 3806 
Q 2166 4006 1788 4006 
Q 1428 4006 1195 3811 
Q 963 3616 922 3263 
L 347 3316 
Q 409 3844 795 4156 
Q 1181 4469 1788 4469 
Q 2453 4469 2811 4155 
Q 3169 3841 3169 3263 
Q 3169 3006 3051 2753 
Q 2934 2500 2703 2247 
Q 2472 1994 1819 1463 
Q 1459 1169 1246 933 
Q 1034 697 941 478 
L 3238 478 
L 3238 0 
L 322 0 
z
" transform="scale(0.015625)"/>
       </defs>
       <use xlink:href="#LiberationSans-32"/>
      </g>
     </g>
    </g>
    <g id="xtick_3">
     <g id="line2d_3">
      <g>
       <use xlink:href="#m7d38b23764" x="334.755862" y="640.3905" style="stroke: #000000; stroke-width: 0.8"/>
      </g>
     </g>
     <g id="text_3">
      <!-- 4 -->
      <g transform="translate(326.414456 665.631125) scale(0.3 -0.3)">
       <defs>
        <path id="LiberationSans-34" d="M 2753 997 
L 2753 0 
L 2222 0 
L 2222 997 
L 147 997 
L 147 1434 
L 2163 4403 
L 2753 4403 
L 2753 1441 
L 3372 1441 
L 3372 997 
L 2753 997 
z
M 2222 3769 
Q 2216 3750 2134 3603 
Q 2053 3456 2013 3397 
L 884 1734 
L 716 1503 
L 666 1441 
L 2222 1441 
L 2222 3769 
z
" transform="scale(0.015625)"/>
       </defs>
       <use xlink:href="#LiberationSans-34"/>
      </g>
     </g>
    </g>
    <g id="xtick_4">
     <g id="line2d_4">
      <g>
       <use xlink:href="#m7d38b23764" x="448.229389" y="640.3905" style="stroke: #000000; stroke-width: 0.8"/>
      </g>
     </g>
     <g id="text_4">
      <!-- 6 -->
      <g transform="translate(439.887983 665.631125) scale(0.3 -0.3)">
       <defs>
        <path id="LiberationSans-36" d="M 3278 1441 
Q 3278 744 2900 340 
Q 2522 -63 1856 -63 
Q 1113 -63 719 490 
Q 325 1044 325 2100 
Q 325 3244 734 3856 
Q 1144 4469 1900 4469 
Q 2897 4469 3156 3572 
L 2619 3475 
Q 2453 4013 1894 4013 
Q 1413 4013 1148 3564 
Q 884 3116 884 2266 
Q 1038 2550 1316 2698 
Q 1594 2847 1953 2847 
Q 2563 2847 2920 2465 
Q 3278 2084 3278 1441 
z
M 2706 1416 
Q 2706 1894 2472 2153 
Q 2238 2413 1819 2413 
Q 1425 2413 1183 2183 
Q 941 1953 941 1550 
Q 941 1041 1192 716 
Q 1444 391 1838 391 
Q 2244 391 2475 664 
Q 2706 938 2706 1416 
z
" transform="scale(0.015625)"/>
       </defs>
       <use xlink:href="#LiberationSans-36"/>
      </g>
     </g>
    </g>
    <g id="xtick_5">
     <g id="line2d_5">
      <g>
       <use xlink:href="#m7d38b23764" x="561.702916" y="640.3905" style="stroke: #000000; stroke-width: 0.8"/>
      </g>
     </g>
     <g id="text_5">
      <!-- 8 -->
      <g transform="translate(553.36151 665.631125) scale(0.3 -0.3)">
       <defs>
        <path id="LiberationSans-38" d="M 3281 1228 
Q 3281 619 2893 278 
Q 2506 -63 1781 -63 
Q 1075 -63 676 271 
Q 278 606 278 1222 
Q 278 1653 525 1947 
Q 772 2241 1156 2303 
L 1156 2316 
Q 797 2400 589 2681 
Q 381 2963 381 3341 
Q 381 3844 757 4156 
Q 1134 4469 1769 4469 
Q 2419 4469 2795 4162 
Q 3172 3856 3172 3334 
Q 3172 2956 2962 2675 
Q 2753 2394 2391 2322 
L 2391 2309 
Q 2813 2241 3047 1952 
Q 3281 1663 3281 1228 
z
M 2588 3303 
Q 2588 4050 1769 4050 
Q 1372 4050 1164 3862 
Q 956 3675 956 3303 
Q 956 2925 1170 2726 
Q 1384 2528 1775 2528 
Q 2172 2528 2380 2711 
Q 2588 2894 2588 3303 
z
M 2697 1281 
Q 2697 1691 2453 1898 
Q 2209 2106 1769 2106 
Q 1341 2106 1100 1882 
Q 859 1659 859 1269 
Q 859 359 1788 359 
Q 2247 359 2472 579 
Q 2697 800 2697 1281 
z
" transform="scale(0.015625)"/>
       </defs>
       <use xlink:href="#LiberationSans-38"/>
      </g>
     </g>
    </g>
    <g id="xtick_6">
     <g id="line2d_6">
      <g>
       <use xlink:href="#m7d38b23764" x="675.176443" y="640.3905" style="stroke: #000000; stroke-width: 0.8"/>
      </g>
     </g>
     <g id="text_6">
      <!-- 10 -->
      <g transform="translate(658.493631 665.631125) scale(0.3 -0.3)">
       <defs>
        <path id="LiberationSans-31" d="M 488 0 
L 488 478 
L 1609 478 
L 1609 3866 
L 616 3156 
L 616 3688 
L 1656 4403 
L 2175 4403 
L 2175 478 
L 3247 478 
L 3247 0 
L 488 0 
z
" transform="scale(0.015625)"/>
       </defs>
       <use xlink:href="#LiberationSans-31"/>
       <use xlink:href="#LiberationSans-30" x="55.615234"/>
      </g>
     </g>
    </g>
    <g id="xtick_7">
     <g id="line2d_7">
      <defs>
       <path id="mcf506deca5" d="M 0 0 
L 0 -2 
" style="stroke: #000000; stroke-width: 0.6"/>
      </defs>
      <g>
       <use xlink:href="#mcf506deca5" x="136.17719" y="640.3905" style="stroke: #000000; stroke-width: 0.6"/>
      </g>
     </g>
    </g>
    <g id="xtick_8">
     <g id="line2d_8">
      <g>
       <use xlink:href="#mcf506deca5" x="164.545572" y="640.3905" style="stroke: #000000; stroke-width: 0.6"/>
      </g>
     </g>
    </g>
    <g id="xtick_9">
     <g id="line2d_9">
      <g>
       <use xlink:href="#mcf506deca5" x="192.913953" y="640.3905" style="stroke: #000000; stroke-width: 0.6"/>
      </g>
     </g>
    </g>
    <g id="xtick_10">
     <g id="line2d_10">
      <g>
       <use xlink:href="#mcf506deca5" x="249.650717" y="640.3905" style="stroke: #000000; stroke-width: 0.6"/>
      </g>
     </g>
    </g>
    <g id="xtick_11">
     <g id="line2d_11">
      <g>
       <use xlink:href="#mcf506deca5" x="278.019099" y="640.3905" style="stroke: #000000; stroke-width: 0.6"/>
      </g>
     </g>
    </g>
    <g id="xtick_12">
     <g id="line2d_12">
      <g>
       <use xlink:href="#mcf506deca5" x="306.38748" y="640.3905" style="stroke: #000000; stroke-width: 0.6"/>
      </g>
     </g>
    </g>
    <g id="xtick_13">
     <g id="line2d_13">
      <g>
       <use xlink:href="#mcf506deca5" x="363.124244" y="640.3905" style="stroke: #000000; stroke-width: 0.6"/>
      </g>
     </g>
    </g>
    <g id="xtick_14">
     <g id="line2d_14">
      <g>
       <use xlink:href="#mcf506deca5" x="391.492626" y="640.3905" style="stroke: #000000; stroke-width: 0.6"/>
      </g>
     </g>
    </g>
    <g id="xtick_15">
     <g id="line2d_15">
      <g>
       <use xlink:href="#mcf506deca5" x="419.861008" y="640.3905" style="stroke: #000000; stroke-width: 0.6"/>
      </g>
     </g>
    </g>
    <g id="xtick_16">
     <g id="line2d_16">
      <g>
       <use xlink:href="#mcf506deca5" x="476.597771" y="640.3905" style="stroke: #000000; stroke-width: 0.6"/>
      </g>
     </g>
    </g>
    <g id="xtick_17">
     <g id="line2d_17">
      <g>
       <use xlink:href="#mcf506deca5" x="504.966153" y="640.3905" style="stroke: #000000; stroke-width: 0.6"/>
      </g>
     </g>
    </g>
    <g id="xtick_18">
     <g id="line2d_18">
      <g>
       <use xlink:href="#mcf506deca5" x="533.334535" y="640.3905" style="stroke: #000000; stroke-width: 0.6"/>
      </g>
     </g>
    </g>
    <g id="xtick_19">
     <g id="line2d_19">
      <g>
       <use xlink:href="#mcf506deca5" x="590.071298" y="640.3905" style="stroke: #000000; stroke-width: 0.6"/>
      </g>
     </g>
    </g>
    <g id="xtick_20">
     <g id="line2d_20">
      <g>
       <use xlink:href="#mcf506deca5" x="618.43968" y="640.3905" style="stroke: #000000; stroke-width: 0.6"/>
      </g>
     </g>
    </g>
    <g id="xtick_21">
     <g id="line2d_21">
      <g>
       <use xlink:href="#mcf506deca5" x="646.808062" y="640.3905" style="stroke: #000000; stroke-width: 0.6"/>
      </g>
     </g>
    </g>
    <g id="text_7">
     <!-- Time ps -->
     <g transform="translate(338.744432 697.59675) scale(0.3 -0.3)">
      <defs>
       <path id="LiberationSans-54" d="M 2250 3916 
L 2250 0 
L 1656 0 
L 1656 3916 
L 144 3916 
L 144 4403 
L 3763 4403 
L 3763 3916 
L 2250 3916 
z
" transform="scale(0.015625)"/>
       <path id="LiberationSans-69" d="M 428 4100 
L 428 4638 
L 991 4638 
L 991 4100 
L 428 4100 
z
M 428 0 
L 428 3381 
L 991 3381 
L 991 0 
L 428 0 
z
" transform="scale(0.015625)"/>
       <path id="LiberationSans-6d" d="M 2400 0 
L 2400 2144 
Q 2400 2634 2265 2821 
Q 2131 3009 1781 3009 
Q 1422 3009 1212 2734 
Q 1003 2459 1003 1959 
L 1003 0 
L 444 0 
L 444 2659 
Q 444 3250 425 3381 
L 956 3381 
Q 959 3366 962 3297 
Q 966 3228 970 3139 
Q 975 3050 981 2803 
L 991 2803 
Q 1172 3163 1406 3303 
Q 1641 3444 1978 3444 
Q 2363 3444 2586 3291 
Q 2809 3138 2897 2803 
L 2906 2803 
Q 3081 3144 3329 3294 
Q 3578 3444 3931 3444 
Q 4444 3444 4676 3166 
Q 4909 2888 4909 2253 
L 4909 0 
L 4353 0 
L 4353 2144 
Q 4353 2634 4218 2821 
Q 4084 3009 3734 3009 
Q 3366 3009 3161 2736 
Q 2956 2463 2956 1959 
L 2956 0 
L 2400 0 
z
" transform="scale(0.015625)"/>
       <path id="LiberationSans-65" d="M 863 1572 
Q 863 991 1103 675 
Q 1344 359 1806 359 
Q 2172 359 2392 506 
Q 2613 653 2691 878 
L 3184 738 
Q 2881 -63 1806 -63 
Q 1056 -63 664 384 
Q 272 831 272 1713 
Q 272 2550 664 2997 
Q 1056 3444 1784 3444 
Q 3275 3444 3275 1647 
L 3275 1572 
L 863 1572 
z
M 2694 2003 
Q 2647 2538 2422 2783 
Q 2197 3028 1775 3028 
Q 1366 3028 1127 2754 
Q 888 2481 869 2003 
L 2694 2003 
z
" transform="scale(0.015625)"/>
       <path id="LiberationSans-20" transform="scale(0.015625)"/>
       <path id="LiberationSans-70" d="M 3291 1706 
Q 3291 -63 2047 -63 
Q 1266 -63 997 525 
L 981 525 
Q 994 500 994 -6 
L 994 -1328 
L 431 -1328 
L 431 2691 
Q 431 3213 413 3381 
L 956 3381 
Q 959 3369 965 3292 
Q 972 3216 980 3056 
Q 988 2897 988 2838 
L 1000 2838 
Q 1150 3150 1397 3295 
Q 1644 3441 2047 3441 
Q 2672 3441 2981 3022 
Q 3291 2603 3291 1706 
z
M 2700 1694 
Q 2700 2400 2509 2703 
Q 2319 3006 1903 3006 
Q 1569 3006 1380 2865 
Q 1191 2725 1092 2426 
Q 994 2128 994 1650 
Q 994 984 1206 668 
Q 1419 353 1897 353 
Q 2316 353 2508 661 
Q 2700 969 2700 1694 
z
" transform="scale(0.015625)"/>
       <path id="LiberationSans-73" d="M 2969 934 
Q 2969 456 2608 196 
Q 2247 -63 1597 -63 
Q 966 -63 623 145 
Q 281 353 178 794 
L 675 891 
Q 747 619 972 492 
Q 1197 366 1597 366 
Q 2025 366 2223 497 
Q 2422 628 2422 891 
Q 2422 1091 2284 1216 
Q 2147 1341 1841 1422 
L 1438 1528 
Q 953 1653 748 1773 
Q 544 1894 428 2066 
Q 313 2238 313 2488 
Q 313 2950 642 3192 
Q 972 3434 1603 3434 
Q 2163 3434 2492 3237 
Q 2822 3041 2909 2606 
L 2403 2544 
Q 2356 2769 2151 2889 
Q 1947 3009 1603 3009 
Q 1222 3009 1040 2893 
Q 859 2778 859 2544 
Q 859 2400 934 2306 
Q 1009 2213 1156 2147 
Q 1303 2081 1775 1966 
Q 2222 1853 2419 1758 
Q 2616 1663 2730 1547 
Q 2844 1431 2906 1279 
Q 2969 1128 2969 934 
z
" transform="scale(0.015625)"/>
      </defs>
      <use xlink:href="#LiberationSans-54"/>
      <use xlink:href="#LiberationSans-69" x="57.333984"/>
      <use xlink:href="#LiberationSans-6d" x="79.550781"/>
      <use xlink:href="#LiberationSans-65" x="162.851562"/>
      <use xlink:href="#LiberationSans-20" x="218.466797"/>
      <use xlink:href="#LiberationSans-70" x="246.25"/>
      <use xlink:href="#LiberationSans-73" x="301.865234"/>
     </g>
    </g>
   </g>
   <g id="matplotlib.axis_2">
    <g id="ytick_1">
     <g id="line2d_22">
      <defs>
       <path id="m2ed0d34c73" d="M 0 0 
L 3.5 0 
" style="stroke: #000000; stroke-width: 0.8"/>
      </defs>
      <g>
       <use xlink:href="#m2ed0d34c73" x="79.5" y="582.472762" style="stroke: #000000; stroke-width: 0.8"/>
      </g>
     </g>
     <g id="text_8">
      <!-- $\mathdefault{−2}$ -->
      <g transform="translate(41.5 593.343075) scale(0.3 -0.3)">
       <defs>
        <path id="LiberationSans-2212" d="M 316 1900 
L 316 2356 
L 3425 2356 
L 3425 1900 
L 316 1900 
z
" transform="scale(0.015625)"/>
       </defs>
       <use xlink:href="#LiberationSans-2212" transform="translate(0 0.171875)"/>
       <use xlink:href="#LiberationSans-32" transform="translate(58.398438 0.171875)"/>
      </g>
     </g>
    </g>
    <g id="ytick_2">
     <g id="line2d_23">
      <g>
       <use xlink:href="#m2ed0d34c73" x="79.5" y="487.384346" style="stroke: #000000; stroke-width: 0.8"/>
      </g>
     </g>
     <g id="text_9">
      <!-- $\mathdefault{0}$ -->
      <g transform="translate(59.2 498.254659) scale(0.3 -0.3)">
       <use xlink:href="#LiberationSans-30" transform="translate(0 0.171875)"/>
      </g>
     </g>
    </g>
    <g id="ytick_3">
     <g id="line2d_24">
      <g>
       <use xlink:href="#m2ed0d34c73" x="79.5" y="392.295931" style="stroke: #000000; stroke-width: 0.8"/>
      </g>
     </g>
     <g id="text_10">
      <!-- $\mathdefault{2}$ -->
      <g transform="translate(59.2 403.166243) scale(0.3 -0.3)">
       <use xlink:href="#LiberationSans-32" transform="translate(0 0.171875)"/>
      </g>
     </g>
    </g>
    <g id="ytick_4">
     <g id="line2d_25">
      <g>
       <use xlink:href="#m2ed0d34c73" x="79.5" y="297.207515" style="stroke: #000000; stroke-width: 0.8"/>
      </g>
     </g>
     <g id="text_11">
      <!-- $\mathdefault{4}$ -->
      <g transform="translate(59.2 308.077827) scale(0.3 -0.3)">
       <use xlink:href="#LiberationSans-34" transform="translate(0 0.203125)"/>
      </g>
     </g>
    </g>
    <g id="ytick_5">
     <g id="line2d_26">
      <g>
       <use xlink:href="#m2ed0d34c73" x="79.5" y="202.119099" style="stroke: #000000; stroke-width: 0.8"/>
      </g>
     </g>
     <g id="text_12">
      <!-- $\mathdefault{6}$ -->
      <g transform="translate(59.2 212.989411) scale(0.3 -0.3)">
       <use xlink:href="#LiberationSans-36" transform="translate(0 0.171875)"/>
      </g>
     </g>
    </g>
    <g id="ytick_6">
     <g id="line2d_27">
      <g>
       <use xlink:href="#m2ed0d34c73" x="79.5" y="107.030683" style="stroke: #000000; stroke-width: 0.8"/>
      </g>
     </g>
     <g id="text_13">
      <!-- $\mathdefault{8}$ -->
      <g transform="translate(59.2 117.900995) scale(0.3 -0.3)">
       <use xlink:href="#LiberationSans-38" transform="translate(0 0.171875)"/>
      </g>
     </g>
    </g>
    <g id="ytick_7">
     <g id="line2d_28">
      <defs>
       <path id="m5e688b25cb" d="M 0 0 
L 2 0 
" style="stroke: #000000; stroke-width: 0.6"/>
      </defs>
      <g>
       <use xlink:href="#m5e688b25cb" x="79.5" y="630.01697" style="stroke: #000000; stroke-width: 0.6"/>
      </g>
     </g>
    </g>
    <g id="ytick_8">
     <g id="line2d_29">
      <g>
       <use xlink:href="#m5e688b25cb" x="79.5" y="606.244866" style="stroke: #000000; stroke-width: 0.6"/>
      </g>
     </g>
    </g>
    <g id="ytick_9">
     <g id="line2d_30">
      <g>
       <use xlink:href="#m5e688b25cb" x="79.5" y="558.700658" style="stroke: #000000; stroke-width: 0.6"/>
      </g>
     </g>
    </g>
    <g id="ytick_10">
     <g id="line2d_31">
      <g>
       <use xlink:href="#m5e688b25cb" x="79.5" y="534.928554" style="stroke: #000000; stroke-width: 0.6"/>
      </g>
     </g>
    </g>
    <g id="ytick_11">
     <g id="line2d_32">
      <g>
       <use xlink:href="#m5e688b25cb" x="79.5" y="511.15645" style="stroke: #000000; stroke-width: 0.6"/>
      </g>
     </g>
    </g>
    <g id="ytick_12">
     <g id="line2d_33">
      <g>
       <use xlink:href="#m5e688b25cb" x="79.5" y="463.612242" style="stroke: #000000; stroke-width: 0.6"/>
      </g>
     </g>
    </g>
    <g id="ytick_13">
     <g id="line2d_34">
      <g>
       <use xlink:href="#m5e688b25cb" x="79.5" y="439.840139" style="stroke: #000000; stroke-width: 0.6"/>
      </g>
     </g>
    </g>
    <g id="ytick_14">
     <g id="line2d_35">
      <g>
       <use xlink:href="#m5e688b25cb" x="79.5" y="416.068035" style="stroke: #000000; stroke-width: 0.6"/>
      </g>
     </g>
    </g>
    <g id="ytick_15">
     <g id="line2d_36">
      <g>
       <use xlink:href="#m5e688b25cb" x="79.5" y="368.523827" style="stroke: #000000; stroke-width: 0.6"/>
      </g>
     </g>
    </g>
    <g id="ytick_16">
     <g id="line2d_37">
      <g>
       <use xlink:href="#m5e688b25cb" x="79.5" y="344.751723" style="stroke: #000000; stroke-width: 0.6"/>
      </g>
     </g>
    </g>
    <g id="ytick_17">
     <g id="line2d_38">
      <g>
       <use xlink:href="#m5e688b25cb" x="79.5" y="320.979619" style="stroke: #000000; stroke-width: 0.6"/>
      </g>
     </g>
    </g>
    <g id="ytick_18">
     <g id="line2d_39">
      <g>
       <use xlink:href="#m5e688b25cb" x="79.5" y="273.435411" style="stroke: #000000; stroke-width: 0.6"/>
      </g>
     </g>
    </g>
    <g id="ytick_19">
     <g id="line2d_40">
      <g>
       <use xlink:href="#m5e688b25cb" x="79.5" y="249.663307" style="stroke: #000000; stroke-width: 0.6"/>
      </g>
     </g>
    </g>
    <g id="ytick_20">
     <g id="line2d_41">
      <g>
       <use xlink:href="#m5e688b25cb" x="79.5" y="225.891203" style="stroke: #000000; stroke-width: 0.6"/>
      </g>
     </g>
    </g>
    <g id="ytick_21">
     <g id="line2d_42">
      <g>
       <use xlink:href="#m5e688b25cb" x="79.5" y="178.346995" style="stroke: #000000; stroke-width: 0.6"/>
      </g>
     </g>
    </g>
    <g id="ytick_22">
     <g id="line2d_43">
      <g>
       <use xlink:href="#m5e688b25cb" x="79.5" y="154.574891" style="stroke: #000000; stroke-width: 0.6"/>
      </g>
     </g>
    </g>
    <g id="ytick_23">
     <g id="line2d_44">
      <g>
       <use xlink:href="#m5e688b25cb" x="79.5" y="130.802787" style="stroke: #000000; stroke-width: 0.6"/>
      </g>
     </g>
    </g>
    <g id="ytick_24">
     <g id="line2d_45">
      <g>
       <use xlink:href="#m5e688b25cb" x="79.5" y="83.258579" style="stroke: #000000; stroke-width: 0.6"/>
      </g>
     </g>
    </g>
    <g id="ytick_25">
     <g id="line2d_46">
      <g>
       <use xlink:href="#m5e688b25cb" x="79.5" y="59.486475" style="stroke: #000000; stroke-width: 0.6"/>
      </g>
     </g>
    </g>
    <g id="text_14">
     <!-- ACF $(\mathrm{W} / \mathrm{m}^2)^2$ -->
     <g transform="translate(31.275 426.339) rotate(-90) scale(0.3 -0.3)">
      <defs>
       <path id="LiberationSans-41" d="M 3647 0 
L 3144 1288 
L 1138 1288 
L 631 0 
L 13 0 
L 1809 4403 
L 2488 4403 
L 4256 0 
L 3647 0 
z
M 2141 3953 
L 2113 3866 
Q 2034 3606 1881 3200 
L 1319 1753 
L 2966 1753 
L 2400 3206 
Q 2313 3422 2225 3694 
L 2141 3953 
z
" transform="scale(0.015625)"/>
       <path id="LiberationSans-43" d="M 2475 3981 
Q 1744 3981 1337 3511 
Q 931 3041 931 2222 
Q 931 1413 1354 920 
Q 1778 428 2500 428 
Q 3425 428 3891 1344 
L 4378 1100 
Q 4106 531 3614 234 
Q 3122 -63 2472 -63 
Q 1806 -63 1320 214 
Q 834 491 579 1005 
Q 325 1519 325 2222 
Q 325 3275 894 3872 
Q 1463 4469 2469 4469 
Q 3172 4469 3644 4194 
Q 4116 3919 4338 3378 
L 3772 3191 
Q 3619 3575 3280 3778 
Q 2941 3981 2475 3981 
z
" transform="scale(0.015625)"/>
       <path id="LiberationSans-46" d="M 1122 3916 
L 1122 2278 
L 3578 2278 
L 3578 1784 
L 1122 1784 
L 1122 0 
L 525 0 
L 525 4403 
L 3653 4403 
L 3653 3916 
L 1122 3916 
z
" transform="scale(0.015625)"/>
       <path id="STIXGeneral-Regular-28" d="M 1946 -1030 
L 1869 -1133 
Q 1126 -710 716 32 
Q 307 774 307 1613 
Q 307 3386 1888 4326 
L 1946 4224 
Q 1293 3667 1075 3126 
Q 858 2586 858 1632 
Q 858 685 1082 96 
Q 1306 -493 1946 -1030 
z
" transform="scale(0.015625)"/>
       <path id="STIXGeneral-Regular-57" d="M 5965 4237 
L 5965 4115 
Q 5709 4064 5616 3990 
Q 5523 3917 5434 3667 
Q 4704 1709 4128 -70 
L 4032 -70 
Q 3642 1011 3008 2637 
L 2022 -70 
L 1926 -70 
Q 1709 576 1277 1753 
Q 845 2931 698 3347 
Q 538 3808 406 3958 
Q 275 4109 32 4115 
L 32 4237 
L 1594 4237 
L 1594 4115 
Q 1357 4109 1270 4064 
Q 1184 4019 1184 3917 
Q 1184 3808 1254 3616 
L 2176 1210 
L 2842 3021 
L 2662 3501 
Q 2509 3917 2400 4013 
Q 2291 4109 2010 4115 
L 2010 4237 
L 3706 4237 
L 3706 4115 
Q 3213 4102 3213 3891 
Q 3213 3808 3322 3520 
L 4237 1190 
L 5043 3360 
Q 5152 3667 5152 3853 
Q 5152 4109 4704 4115 
L 4704 4237 
L 5965 4237 
z
" transform="scale(0.015625)"/>
       <path id="STIXGeneral-Regular-2f" d="M 1837 4326 
L 378 -90 
L -58 -90 
L 1408 4326 
L 1837 4326 
z
" transform="scale(0.015625)"/>
       <path id="STIXGeneral-Regular-6d" d="M 4960 0 
L 3565 0 
L 3565 96 
Q 3834 122 3907 208 
Q 3981 294 3981 576 
L 3981 1894 
Q 3981 2278 3869 2444 
Q 3757 2611 3488 2611 
Q 3264 2611 3107 2521 
Q 2950 2432 2803 2221 
L 2803 608 
Q 2803 301 2896 201 
Q 2989 102 3264 96 
L 3264 0 
L 1830 0 
L 1830 96 
Q 2112 115 2189 188 
Q 2266 262 2266 550 
L 2266 1901 
Q 2266 2611 1850 2611 
Q 1670 2611 1468 2531 
Q 1267 2451 1171 2336 
Q 1088 2240 1088 2227 
L 1088 448 
Q 1088 243 1177 176 
Q 1267 109 1523 96 
L 1523 0 
L 102 0 
L 102 96 
Q 371 102 460 195 
Q 550 288 550 563 
L 550 2150 
Q 550 2387 499 2480 
Q 448 2573 326 2573 
Q 230 2573 122 2547 
L 122 2656 
Q 557 2778 1011 2944 
L 1062 2925 
L 1062 2451 
L 1075 2451 
Q 1363 2752 1584 2848 
Q 1805 2944 2054 2944 
Q 2560 2944 2733 2406 
Q 3232 2944 3776 2944 
Q 4518 2944 4518 1792 
L 4518 493 
Q 4518 282 4582 202 
Q 4646 122 4794 109 
L 4960 96 
L 4960 0 
z
" transform="scale(0.015625)"/>
       <path id="STIXGeneral-Regular-32" d="M 3034 877 
L 2688 0 
L 186 0 
L 186 77 
L 1325 1286 
Q 1773 1754 1965 2144 
Q 2157 2534 2157 2950 
Q 2157 3379 1920 3616 
Q 1683 3853 1267 3853 
Q 922 3853 720 3673 
Q 518 3494 326 3021 
L 192 3053 
Q 301 3648 630 3987 
Q 960 4326 1523 4326 
Q 2054 4326 2380 4006 
Q 2707 3686 2707 3200 
Q 2707 2477 1888 1613 
L 832 486 
L 2330 486 
Q 2541 486 2665 569 
Q 2790 653 2944 915 
L 3034 877 
z
" transform="scale(0.015625)"/>
       <path id="STIXGeneral-Regular-29" d="M 186 4224 
L 262 4326 
Q 992 3891 1408 3148 
Q 1824 2406 1824 1581 
Q 1824 -166 243 -1133 
L 186 -1030 
Q 845 -486 1059 54 
Q 1274 595 1274 1562 
Q 1274 2534 1059 3120 
Q 845 3706 186 4224 
z
" transform="scale(0.015625)"/>
      </defs>
      <use xlink:href="#LiberationSans-41" transform="translate(0 0.409375)"/>
      <use xlink:href="#LiberationSans-43" transform="translate(66.699219 0.409375)"/>
      <use xlink:href="#LiberationSans-46" transform="translate(138.916016 0.409375)"/>
      <use xlink:href="#LiberationSans-20" transform="translate(200 0.409375)"/>
      <use xlink:href="#STIXGeneral-Regular-28" transform="translate(227.783203 0.409375)"/>
      <use xlink:href="#STIXGeneral-Regular-57" transform="translate(261.083191 0.409375)"/>
      <use xlink:href="#STIXGeneral-Regular-2f" transform="translate(355.483185 0.409375)"/>
      <use xlink:href="#STIXGeneral-Regular-6d" transform="translate(383.283173 0.409375)"/>
      <use xlink:href="#STIXGeneral-Regular-32" transform="translate(462.626442 35.684375) scale(0.7)"/>
      <use xlink:href="#STIXGeneral-Regular-29" transform="translate(502.035806 0.409375)"/>
      <use xlink:href="#STIXGeneral-Regular-32" transform="translate(536.879075 35.684375) scale(0.7)"/>
     </g>
    </g>
    <g id="text_15">
     <!-- $\times\mathdefault{10^{18}}\mathdefault{}$ -->
     <g transform="translate(79.5 36.1875) scale(0.4 -0.4)">
      <defs>
       <path id="STIXGeneral-Regular-d7" d="M 3821 141 
L 3526 -160 
L 2048 1312 
L 570 -160 
L 275 134 
L 1747 1613 
L 275 3091 
L 576 3386 
L 2048 1914 
L 3526 3386 
L 3821 3098 
L 2349 1613 
L 3821 141 
z
" transform="scale(0.015625)"/>
      </defs>
      <use xlink:href="#STIXGeneral-Regular-d7" transform="translate(0 0.140625)"/>
      <use xlink:href="#LiberationSans-31" transform="translate(63.999985 0.140625)"/>
      <use xlink:href="#LiberationSans-30" transform="translate(119.615219 0.140625)"/>
      <use xlink:href="#LiberationSans-31" transform="translate(176.154946 37.120312) scale(0.7)"/>
      <use xlink:href="#LiberationSans-38" transform="translate(215.08561 37.120312) scale(0.7)"/>
     </g>
    </g>
   </g>
   <g id="line2d_47">
    <path d="M 107.865545 66.514909 
L 108.376176 91.489013 
L 108.773333 131.440244 
L 109.397438 220.076093 
L 111.383224 523.244142 
L 111.950592 574.233302 
L 112.404486 598.979428 
L 112.801643 610.092797 
L 113.085327 612.934934 
L 113.198801 613.061361 
L 113.312274 612.711715 
L 113.539221 610.704997 
L 113.879642 605.057904 
L 114.503746 589.945527 
L 116.035639 551.065746 
L 117.113637 530.261601 
L 120.234159 476.810645 
L 120.858264 470.460728 
L 121.368895 467.36608 
L 121.766052 466.165401 
L 122.049736 465.861535 
L 122.390156 466.043613 
L 122.67384 466.584563 
L 123.070998 467.920598 
L 123.808575 471.57029 
L 124.659627 477.040469 
L 126.588677 489.483336 
L 127.212781 491.85616 
L 127.723412 492.982748 
L 128.120569 493.485295 
L 128.858147 493.93269 
L 129.198568 494.214431 
L 129.709199 494.97627 
L 131.297828 497.497718 
L 131.694986 497.683357 
L 132.262353 497.706601 
L 132.886458 497.255653 
L 133.226878 496.720079 
L 133.737509 495.405691 
L 134.361613 493.08365 
L 135.326138 488.163266 
L 136.687821 480.785901 
L 137.255188 478.896822 
L 137.652346 478.201628 
L 137.93603 478.082632 
L 138.162977 478.241727 
L 138.503397 478.953537 
L 138.843818 480.108649 
L 139.411185 482.797281 
L 141.510446 493.244702 
L 141.907603 493.995457 
L 142.191287 494.144326 
L 142.418234 494.061875 
L 142.758654 493.669814 
L 143.326022 492.530563 
L 144.574231 489.903044 
L 145.198335 489.234595 
L 145.879176 488.979775 
L 146.616754 488.76042 
L 147.127385 488.227181 
L 147.9217 486.84367 
L 148.716015 484.822775 
L 150.02096 481.532543 
L 150.474854 481.035552 
L 150.758538 480.952131 
L 151.098959 481.1093 
L 151.439379 481.492701 
L 151.95001 482.391711 
L 152.914535 484.681966 
L 154.162744 487.918287 
L 154.616638 488.69762 
L 155.070532 489.113807 
L 155.46769 489.191888 
L 155.97832 489.090393 
L 156.602425 488.72121 
L 157.623687 488.008123 
L 158.474738 487.71872 
L 159.325789 487.483155 
L 160.347051 487.105035 
L 160.971156 487.159519 
L 161.878944 487.243259 
L 162.729995 486.976717 
L 163.297363 486.611329 
L 164.034941 486.059212 
L 164.432098 485.939692 
L 165.056203 486.042331 
L 165.850517 486.37009 
L 167.325673 487.300484 
L 168.233461 487.760242 
L 169.197986 487.987893 
L 169.935564 487.911891 
L 173.793664 487.079821 
L 176.630502 486.958994 
L 178.729763 486.959298 
L 179.807761 487.228767 
L 181.623337 487.808121 
L 182.701336 487.910629 
L 183.722598 487.734457 
L 186.275752 487.239945 
L 187.694171 487.310663 
L 189.566484 487.65445 
L 192.006165 488.157984 
L 193.935215 488.286348 
L 197.225947 488.270273 
L 200.289733 488.398068 
L 201.254258 488.131312 
L 202.559203 487.520362 
L 203.920886 486.960429 
L 204.942147 486.807883 
L 206.133619 486.817734 
L 208.176143 487.104349 
L 210.048456 487.351765 
L 211.239928 487.32254 
L 212.26119 487.086614 
L 215.154765 486.263079 
L 215.835606 486.437894 
L 217.027078 487.055523 
L 218.105076 487.484873 
L 218.785918 487.53947 
L 219.580232 487.379475 
L 221.566019 486.818344 
L 222.473807 487.122129 
L 223.948963 487.579783 
L 224.686541 487.552076 
L 225.537592 487.260823 
L 226.615591 486.656752 
L 227.636853 486.183824 
L 228.487904 486.053963 
L 229.849586 486.162876 
L 232.686425 486.461098 
L 233.65095 486.919826 
L 236.374314 488.371439 
L 237.168629 488.361883 
L 238.133154 488.070131 
L 239.721783 487.543512 
L 240.572835 487.500748 
L 241.423886 487.662035 
L 244.601145 488.480113 
L 245.849354 488.322229 
L 247.835141 488.009519 
L 249.083349 488.125147 
L 251.239346 488.389033 
L 253.45208 488.340685 
L 254.643552 488.122496 
L 255.721551 487.614471 
L 257.934284 486.401023 
L 258.785336 486.234546 
L 259.806598 486.331527 
L 261.395227 486.783484 
L 266.217852 488.42128 
L 267.239114 488.380694 
L 268.203639 488.147018 
L 270.700056 487.148829 
L 271.607844 486.896244 
L 272.74258 486.816147 
L 274.274472 486.708861 
L 275.125524 486.441246 
L 277.621941 485.48544 
L 278.246046 485.569594 
L 278.983624 485.880031 
L 281.082884 486.960373 
L 281.820462 487.036355 
L 282.72825 486.851601 
L 284.6573 486.326023 
L 285.565088 486.475662 
L 287.777822 487.00952 
L 292.884131 487.809334 
L 294.075603 487.651201 
L 295.720969 487.148977 
L 297.423072 486.733109 
L 298.217387 486.739063 
L 299.238648 486.968913 
L 302.586117 487.969583 
L 306.444217 488.438336 
L 307.465479 488.285254 
L 309.281055 487.683386 
L 310.983158 487.219259 
L 311.947683 487.17045 
L 313.025682 487.352188 
L 315.578836 488.049697 
L 316.316414 487.981427 
L 317.167466 487.670483 
L 319.607146 486.482611 
L 320.458198 486.416105 
L 321.47946 486.620357 
L 323.124826 486.994431 
L 324.713455 486.981071 
L 326.018401 487.022119 
L 327.266609 487.306105 
L 330.216921 488.170104 
L 330.897762 488.044715 
L 331.862287 487.581443 
L 332.826812 486.807119 
L 334.699125 485.247139 
L 335.266493 485.072786 
L 336.060808 485.073357 
L 337.309017 485.34051 
L 339.975644 486.132115 
L 340.996906 486.683734 
L 342.131641 487.546769 
L 343.550061 488.645087 
L 344.401112 489.050722 
L 345.13869 489.156688 
L 345.876268 489.034927 
L 346.784056 488.633535 
L 347.748581 487.943167 
L 349.734368 486.399422 
L 350.642156 485.994291 
L 351.379734 485.917138 
L 352.230785 486.114677 
L 353.081837 486.57536 
L 355.634991 488.184698 
L 356.486043 488.359163 
L 357.280357 488.286093 
L 360.344143 487.699494 
L 361.649088 487.916512 
L 362.727087 487.99563 
L 365.961082 488.006874 
L 368.514237 488.433524 
L 369.308551 488.261252 
L 370.443286 487.732987 
L 372.372336 486.699478 
L 373.393598 486.408147 
L 374.358123 486.336069 
L 375.492858 486.565992 
L 377.421908 487.304552 
L 380.826114 488.649335 
L 381.620429 488.698438 
L 382.528217 488.543335 
L 383.492742 488.182575 
L 385.818949 487.212455 
L 387.010421 487.159506 
L 388.428841 486.989902 
L 389.223155 486.663404 
L 390.414627 485.912347 
L 391.549363 485.196253 
L 393.308202 485.590431 
L 397.223039 486.874284 
L 400.173351 487.5089 
L 404.144924 487.663145 
L 405.506606 487.922385 
L 406.754815 488.110308 
L 407.832814 488.058754 
L 409.024286 487.768671 
L 411.010072 487.239091 
L 412.031334 487.204497 
L 413.393016 487.41221 
L 416.627012 487.892238 
L 418.726272 487.872648 
L 423.208477 487.810711 
L 425.194263 487.865863 
L 428.598469 487.721217 
L 430.130362 487.777032 
L 431.435307 487.62675 
L 432.626779 487.272384 
L 434.952987 486.652148 
L 436.087722 486.643504 
L 436.99551 486.838436 
L 437.846562 487.264717 
L 440.286242 488.613029 
L 441.02382 488.729581 
L 441.874872 488.623427 
L 442.725923 488.28889 
L 443.576975 487.694949 
L 444.71171 486.615742 
L 446.300339 485.182213 
L 447.094654 484.779214 
L 447.832232 484.677374 
L 448.342863 484.797505 
L 449.080441 485.39447 
L 450.49886 486.616775 
L 451.406648 487.084536 
L 452.257699 487.23654 
L 453.222224 487.197766 
L 454.35696 487.171819 
L 455.434958 487.357578 
L 456.739904 487.601235 
L 458.101586 487.55929 
L 459.179585 487.302468 
L 460.541267 486.999079 
L 461.676002 486.950496 
L 463.094421 487.217249 
L 464.229157 487.329274 
L 465.193682 487.20392 
L 467.973783 486.725737 
L 468.768098 486.841803 
L 469.675886 487.216905 
L 471.831883 488.221995 
L 472.739671 488.302885 
L 474.271564 488.121468 
L 477.108402 487.865501 
L 480.342397 487.970169 
L 482.611868 487.966011 
L 483.97355 488.218924 
L 485.505443 488.458218 
L 486.243021 488.33313 
L 487.037336 487.973797 
L 489.477016 486.686452 
L 490.328068 486.547364 
L 491.292593 486.614751 
L 494.980482 487.073485 
L 496.001744 486.868727 
L 497.420163 486.306257 
L 498.157741 486.113132 
L 498.838582 486.161617 
L 499.462687 486.411715 
L 501.675421 487.531234 
L 502.242788 487.481701 
L 502.923629 487.164667 
L 503.717944 486.555534 
L 504.625732 485.928411 
L 505.136363 485.800589 
L 505.703731 485.940957 
L 506.498045 486.400813 
L 508.086675 487.38137 
L 508.767516 487.504372 
L 509.448357 487.373251 
L 510.412882 486.862861 
L 511.547617 486.332863 
L 512.171722 486.271923 
L 512.966036 486.45193 
L 514.044035 486.92931 
L 515.802875 487.717215 
L 517.10782 488.023777 
L 517.902135 488.001854 
L 519.093607 487.771142 
L 522.327602 487.078331 
L 523.632548 487.25259 
L 524.99423 487.359438 
L 526.866544 487.193608 
L 527.944542 487.213943 
L 529.022541 487.460362 
L 531.689168 488.169679 
L 532.88064 488.247904 
L 534.63948 488.342724 
L 536.171373 488.621376 
L 537.646529 488.883628 
L 538.440843 488.855678 
L 539.235158 488.597156 
L 540.029473 488.085496 
L 543.093258 485.717856 
L 543.717362 485.628716 
L 544.341467 485.752717 
L 545.135781 486.178608 
L 547.405252 487.512201 
L 548.14283 487.616382 
L 549.277565 487.569451 
L 550.979668 487.524023 
L 551.887456 487.768502 
L 553.362612 488.143423 
L 554.156927 488.071345 
L 555.575346 487.574934 
L 556.937028 487.218073 
L 558.241974 486.872777 
L 559.88734 486.205735 
L 561.078812 485.810105 
L 561.759653 485.800052 
L 563.461756 486.634389 
L 564.596491 487.192891 
L 565.390806 487.367616 
L 566.355331 487.321182 
L 567.660276 486.961843 
L 568.908485 486.702004 
L 570.270168 486.657553 
L 571.518376 486.810793 
L 572.766585 487.221187 
L 575.036056 488.126873 
L 576.000581 488.146118 
L 577.021842 487.898698 
L 578.156578 487.410921 
L 579.68847 486.875262 
L 580.766469 486.780195 
L 581.844467 486.89801 
L 583.37636 487.321286 
L 585.248673 488.091997 
L 587.06425 488.729267 
L 588.142248 488.923436 
L 589.106773 488.881785 
L 590.695402 488.561889 
L 593.929398 487.613175 
L 595.404554 487.26947 
L 596.369079 487.230176 
L 597.900971 487.407473 
L 599.886758 487.64859 
L 601.532124 487.534525 
L 603.290964 487.190953 
L 606.014329 486.470749 
L 606.922117 486.550788 
L 607.943379 486.87484 
L 610.099376 487.727834 
L 611.063901 487.788302 
L 613.787265 487.617695 
L 614.695053 487.375567 
L 615.602842 486.94342 
L 616.964524 485.999845 
L 618.099259 485.27223 
L 618.666627 485.133745 
L 619.404205 485.289632 
L 620.311993 485.683387 
L 623.716199 487.364019 
L 625.588512 487.83889 
L 626.609774 487.887056 
L 627.914719 487.673171 
L 631.148715 487.206579 
L 632.737344 486.939566 
L 634.666394 486.617511 
L 635.517446 486.714586 
L 636.425234 487.05741 
L 639.432282 488.329278 
L 640.340071 488.351111 
L 641.531543 488.089151 
L 643.801013 487.614058 
L 644.992485 487.622595 
L 649.247742 487.815163 
L 652.878895 487.394065 
L 653.786684 487.596971 
L 656.169628 488.15486 
L 656.850469 487.996301 
L 657.588047 487.609875 
L 659.233413 486.643336 
L 660.027727 486.425717 
L 660.708569 486.464654 
L 661.673094 486.774266 
L 663.885827 487.598895 
L 665.24751 487.71909 
L 667.063086 487.549577 
L 668.878663 487.369191 
L 671.091396 487.350001 
L 671.999185 486.971767 
L 672.850236 486.356299 
L 674.836023 484.725565 
L 675.176443 484.600657 
L 675.176443 484.600657 
" clip-path="url(#p5073de72ae)" style="fill: none; stroke: #0000ff; stroke-width: 1.5; stroke-linecap: square"/>
   </g>
   <g id="patch_3">
    <path d="M 79.5 640.3905 
L 79.5 39.1875 
" style="fill: none; stroke: #000000; stroke-width: 0.8; stroke-linejoin: miter; stroke-linecap: square"/>
   </g>
   <g id="patch_4">
    <path d="M 703.541988 640.3905 
L 703.541988 39.1875 
" style="fill: none; stroke: #000000; stroke-width: 0.8; stroke-linejoin: miter; stroke-linecap: square"/>
   </g>
   <g id="patch_5">
    <path d="M 79.5 640.3905 
L 703.541988 640.3905 
" style="fill: none; stroke: #000000; stroke-width: 0.8; stroke-linejoin: miter; stroke-linecap: square"/>
   </g>
   <g id="patch_6">
    <path d="M 79.5 39.1875 
L 703.541988 39.1875 
" style="fill: none; stroke: #000000; stroke-width: 0.8; stroke-linejoin: miter; stroke-linecap: square"/>
   </g>
  </g>
 </g>
 <defs>
  <clipPath id="p5073de72ae">
   <rect x="79.5" y="39.1875" width="624.041988" height="601.203"/>
  </clipPath>
 </defs>
</svg>
