<?xml version="1.0" encoding="utf-8" standalone="no"?>
<!DOCTYPE svg PUBLIC "-//W3C//DTD SVG 1.1//EN"
  "http://www.w3.org/Graphics/SVG/1.1/DTD/svg11.dtd">
<svg xmlns:xlink="http://www.w3.org/1999/xlink" width="710.741988pt" height="711.02175pt" viewBox="0 0 710.741988 711.02175" xmlns="http://www.w3.org/2000/svg" version="1.1">
 <metadata>
  <rdf:RDF xmlns:dc="http://purl.org/dc/elements/1.1/" xmlns:cc="http://creativecommons.org/ns#" xmlns:rdf="http://www.w3.org/1999/02/22-rdf-syntax-ns#">
   <cc:Work>
    <dc:type rdf:resource="http://purl.org/dc/dcmitype/StillImage"/>
    <dc:date>2025-02-06T00:22:47.551674</dc:date>
    <dc:format>image/svg+xml</dc:format>
    <dc:creator>
     <cc:Agent>
      <dc:title>Matplotlib v3.9.3, https://matplotlib.org/</dc:title>
     </cc:Agent>
    </dc:creator>
   </cc:Work>
  </rdf:RDF>
 </metadata>
 <defs>
  <style type="text/css">*{stroke-linejoin: round; stroke-linecap: butt}</style>
 </defs>
 <g id="figure_1">
  <g id="patch_1">
   <path d="M 0 711.02175 
L 710.741988 711.02175 
L 710.741988 0 
L 0 0 
z
" style="fill: #ffffff"/>
  </g>
  <g id="axes_1">
   <g id="patch_2">
    <path d="M 79.5 640.3905 
L 703.541988 640.3905 
L 703.541988 39.1875 
L 79.5 39.1875 
z
" style="fill: #ffffff"/>
   </g>
   <g id="matplotlib.axis_1">
    <g id="xtick_1">
     <g id="line2d_1">
      <defs>
       <path id="md9ea794cd1" d="M 0 0 
L 0 -3.5 
" style="stroke: #000000; stroke-width: 0.8"/>
      </defs>
      <g>
       <use xlink:href="#md9ea794cd1" x="107.808808" y="640.3905" style="stroke: #000000; stroke-width: 0.8"/>
      </g>
     </g>
     <g id="text_1">
      <!-- 0 -->
      <g transform="translate(99.467402 665.631125) scale(0.3 -0.3)">
       <defs>
        <path id="LiberationSans-30" d="M 3309 2203 
Q 3309 1100 2920 518 
Q 2531 -63 1772 -63 
Q 1013 -63 631 515 
Q 250 1094 250 2203 
Q 250 3338 620 3903 
Q 991 4469 1791 4469 
Q 2569 4469 2939 3897 
Q 3309 3325 3309 2203 
z
M 2738 2203 
Q 2738 3156 2517 3584 
Q 2297 4013 1791 4013 
Q 1272 4013 1045 3591 
Q 819 3169 819 2203 
Q 819 1266 1048 831 
Q 1278 397 1778 397 
Q 2275 397 2506 840 
Q 2738 1284 2738 2203 
z
" transform="scale(0.015625)"/>
       </defs>
       <use xlink:href="#LiberationSans-30"/>
      </g>
     </g>
    </g>
    <g id="xtick_2">
     <g id="line2d_2">
      <g>
       <use xlink:href="#md9ea794cd1" x="221.282335" y="640.3905" style="stroke: #000000; stroke-width: 0.8"/>
      </g>
     </g>
     <g id="text_2">
      <!-- 2 -->
      <g transform="translate(212.940929 665.631125) scale(0.3 -0.3)">
       <defs>
        <path id="LiberationSans-32" d="M 322 0 
L 322 397 
Q 481 763 711 1042 
Q 941 1322 1194 1548 
Q 1447 1775 1695 1969 
Q 1944 2163 2144 2356 
Q 2344 2550 2467 2762 
Q 2591 2975 2591 3244 
Q 2591 3606 2378 3806 
Q 2166 4006 1788 4006 
Q 1428 4006 1195 3811 
Q 963 3616 922 3263 
L 347 3316 
Q 409 3844 795 4156 
Q 1181 4469 1788 4469 
Q 2453 4469 2811 4155 
Q 3169 3841 3169 3263 
Q 3169 3006 3051 2753 
Q 2934 2500 2703 2247 
Q 2472 1994 1819 1463 
Q 1459 1169 1246 933 
Q 1034 697 941 478 
L 3238 478 
L 3238 0 
L 322 0 
z
" transform="scale(0.015625)"/>
       </defs>
       <use xlink:href="#LiberationSans-32"/>
      </g>
     </g>
    </g>
    <g id="xtick_3">
     <g id="line2d_3">
      <g>
       <use xlink:href="#md9ea794cd1" x="334.755862" y="640.3905" style="stroke: #000000; stroke-width: 0.8"/>
      </g>
     </g>
     <g id="text_3">
      <!-- 4 -->
      <g transform="translate(326.414456 665.631125) scale(0.3 -0.3)">
       <defs>
        <path id="LiberationSans-34" d="M 2753 997 
L 2753 0 
L 2222 0 
L 2222 997 
L 147 997 
L 147 1434 
L 2163 4403 
L 2753 4403 
L 2753 1441 
L 3372 1441 
L 3372 997 
L 2753 997 
z
M 2222 3769 
Q 2216 3750 2134 3603 
Q 2053 3456 2013 3397 
L 884 1734 
L 716 1503 
L 666 1441 
L 2222 1441 
L 2222 3769 
z
" transform="scale(0.015625)"/>
       </defs>
       <use xlink:href="#LiberationSans-34"/>
      </g>
     </g>
    </g>
    <g id="xtick_4">
     <g id="line2d_4">
      <g>
       <use xlink:href="#md9ea794cd1" x="448.229389" y="640.3905" style="stroke: #000000; stroke-width: 0.8"/>
      </g>
     </g>
     <g id="text_4">
      <!-- 6 -->
      <g transform="translate(439.887983 665.631125) scale(0.3 -0.3)">
       <defs>
        <path id="LiberationSans-36" d="M 3278 1441 
Q 3278 744 2900 340 
Q 2522 -63 1856 -63 
Q 1113 -63 719 490 
Q 325 1044 325 2100 
Q 325 3244 734 3856 
Q 1144 4469 1900 4469 
Q 2897 4469 3156 3572 
L 2619 3475 
Q 2453 4013 1894 4013 
Q 1413 4013 1148 3564 
Q 884 3116 884 2266 
Q 1038 2550 1316 2698 
Q 1594 2847 1953 2847 
Q 2563 2847 2920 2465 
Q 3278 2084 3278 1441 
z
M 2706 1416 
Q 2706 1894 2472 2153 
Q 2238 2413 1819 2413 
Q 1425 2413 1183 2183 
Q 941 1953 941 1550 
Q 941 1041 1192 716 
Q 1444 391 1838 391 
Q 2244 391 2475 664 
Q 2706 938 2706 1416 
z
" transform="scale(0.015625)"/>
       </defs>
       <use xlink:href="#LiberationSans-36"/>
      </g>
     </g>
    </g>
    <g id="xtick_5">
     <g id="line2d_5">
      <g>
       <use xlink:href="#md9ea794cd1" x="561.702916" y="640.3905" style="stroke: #000000; stroke-width: 0.8"/>
      </g>
     </g>
     <g id="text_5">
      <!-- 8 -->
      <g transform="translate(553.36151 665.631125) scale(0.3 -0.3)">
       <defs>
        <path id="LiberationSans-38" d="M 3281 1228 
Q 3281 619 2893 278 
Q 2506 -63 1781 -63 
Q 1075 -63 676 271 
Q 278 606 278 1222 
Q 278 1653 525 1947 
Q 772 2241 1156 2303 
L 1156 2316 
Q 797 2400 589 2681 
Q 381 2963 381 3341 
Q 381 3844 757 4156 
Q 1134 4469 1769 4469 
Q 2419 4469 2795 4162 
Q 3172 3856 3172 3334 
Q 3172 2956 2962 2675 
Q 2753 2394 2391 2322 
L 2391 2309 
Q 2813 2241 3047 1952 
Q 3281 1663 3281 1228 
z
M 2588 3303 
Q 2588 4050 1769 4050 
Q 1372 4050 1164 3862 
Q 956 3675 956 3303 
Q 956 2925 1170 2726 
Q 1384 2528 1775 2528 
Q 2172 2528 2380 2711 
Q 2588 2894 2588 3303 
z
M 2697 1281 
Q 2697 1691 2453 1898 
Q 2209 2106 1769 2106 
Q 1341 2106 1100 1882 
Q 859 1659 859 1269 
Q 859 359 1788 359 
Q 2247 359 2472 579 
Q 2697 800 2697 1281 
z
" transform="scale(0.015625)"/>
       </defs>
       <use xlink:href="#LiberationSans-38"/>
      </g>
     </g>
    </g>
    <g id="xtick_6">
     <g id="line2d_6">
      <g>
       <use xlink:href="#md9ea794cd1" x="675.176443" y="640.3905" style="stroke: #000000; stroke-width: 0.8"/>
      </g>
     </g>
     <g id="text_6">
      <!-- 10 -->
      <g transform="translate(658.493631 665.631125) scale(0.3 -0.3)">
       <defs>
        <path id="LiberationSans-31" d="M 488 0 
L 488 478 
L 1609 478 
L 1609 3866 
L 616 3156 
L 616 3688 
L 1656 4403 
L 2175 4403 
L 2175 478 
L 3247 478 
L 3247 0 
L 488 0 
z
" transform="scale(0.015625)"/>
       </defs>
       <use xlink:href="#LiberationSans-31"/>
       <use xlink:href="#LiberationSans-30" x="55.615234"/>
      </g>
     </g>
    </g>
    <g id="xtick_7">
     <g id="line2d_7">
      <defs>
       <path id="m2593206cf0" d="M 0 0 
L 0 -2 
" style="stroke: #000000; stroke-width: 0.6"/>
      </defs>
      <g>
       <use xlink:href="#m2593206cf0" x="136.17719" y="640.3905" style="stroke: #000000; stroke-width: 0.6"/>
      </g>
     </g>
    </g>
    <g id="xtick_8">
     <g id="line2d_8">
      <g>
       <use xlink:href="#m2593206cf0" x="164.545572" y="640.3905" style="stroke: #000000; stroke-width: 0.6"/>
      </g>
     </g>
    </g>
    <g id="xtick_9">
     <g id="line2d_9">
      <g>
       <use xlink:href="#m2593206cf0" x="192.913953" y="640.3905" style="stroke: #000000; stroke-width: 0.6"/>
      </g>
     </g>
    </g>
    <g id="xtick_10">
     <g id="line2d_10">
      <g>
       <use xlink:href="#m2593206cf0" x="249.650717" y="640.3905" style="stroke: #000000; stroke-width: 0.6"/>
      </g>
     </g>
    </g>
    <g id="xtick_11">
     <g id="line2d_11">
      <g>
       <use xlink:href="#m2593206cf0" x="278.019099" y="640.3905" style="stroke: #000000; stroke-width: 0.6"/>
      </g>
     </g>
    </g>
    <g id="xtick_12">
     <g id="line2d_12">
      <g>
       <use xlink:href="#m2593206cf0" x="306.38748" y="640.3905" style="stroke: #000000; stroke-width: 0.6"/>
      </g>
     </g>
    </g>
    <g id="xtick_13">
     <g id="line2d_13">
      <g>
       <use xlink:href="#m2593206cf0" x="363.124244" y="640.3905" style="stroke: #000000; stroke-width: 0.6"/>
      </g>
     </g>
    </g>
    <g id="xtick_14">
     <g id="line2d_14">
      <g>
       <use xlink:href="#m2593206cf0" x="391.492626" y="640.3905" style="stroke: #000000; stroke-width: 0.6"/>
      </g>
     </g>
    </g>
    <g id="xtick_15">
     <g id="line2d_15">
      <g>
       <use xlink:href="#m2593206cf0" x="419.861008" y="640.3905" style="stroke: #000000; stroke-width: 0.6"/>
      </g>
     </g>
    </g>
    <g id="xtick_16">
     <g id="line2d_16">
      <g>
       <use xlink:href="#m2593206cf0" x="476.597771" y="640.3905" style="stroke: #000000; stroke-width: 0.6"/>
      </g>
     </g>
    </g>
    <g id="xtick_17">
     <g id="line2d_17">
      <g>
       <use xlink:href="#m2593206cf0" x="504.966153" y="640.3905" style="stroke: #000000; stroke-width: 0.6"/>
      </g>
     </g>
    </g>
    <g id="xtick_18">
     <g id="line2d_18">
      <g>
       <use xlink:href="#m2593206cf0" x="533.334535" y="640.3905" style="stroke: #000000; stroke-width: 0.6"/>
      </g>
     </g>
    </g>
    <g id="xtick_19">
     <g id="line2d_19">
      <g>
       <use xlink:href="#m2593206cf0" x="590.071298" y="640.3905" style="stroke: #000000; stroke-width: 0.6"/>
      </g>
     </g>
    </g>
    <g id="xtick_20">
     <g id="line2d_20">
      <g>
       <use xlink:href="#m2593206cf0" x="618.43968" y="640.3905" style="stroke: #000000; stroke-width: 0.6"/>
      </g>
     </g>
    </g>
    <g id="xtick_21">
     <g id="line2d_21">
      <g>
       <use xlink:href="#m2593206cf0" x="646.808062" y="640.3905" style="stroke: #000000; stroke-width: 0.6"/>
      </g>
     </g>
    </g>
    <g id="text_7">
     <!-- Time ps -->
     <g transform="translate(338.744432 697.59675) scale(0.3 -0.3)">
      <defs>
       <path id="LiberationSans-54" d="M 2250 3916 
L 2250 0 
L 1656 0 
L 1656 3916 
L 144 3916 
L 144 4403 
L 3763 4403 
L 3763 3916 
L 2250 3916 
z
" transform="scale(0.015625)"/>
       <path id="LiberationSans-69" d="M 428 4100 
L 428 4638 
L 991 4638 
L 991 4100 
L 428 4100 
z
M 428 0 
L 428 3381 
L 991 3381 
L 991 0 
L 428 0 
z
" transform="scale(0.015625)"/>
       <path id="LiberationSans-6d" d="M 2400 0 
L 2400 2144 
Q 2400 2634 2265 2821 
Q 2131 3009 1781 3009 
Q 1422 3009 1212 2734 
Q 1003 2459 1003 1959 
L 1003 0 
L 444 0 
L 444 2659 
Q 444 3250 425 3381 
L 956 3381 
Q 959 3366 962 3297 
Q 966 3228 970 3139 
Q 975 3050 981 2803 
L 991 2803 
Q 1172 3163 1406 3303 
Q 1641 3444 1978 3444 
Q 2363 3444 2586 3291 
Q 2809 3138 2897 2803 
L 2906 2803 
Q 3081 3144 3329 3294 
Q 3578 3444 3931 3444 
Q 4444 3444 4676 3166 
Q 4909 2888 4909 2253 
L 4909 0 
L 4353 0 
L 4353 2144 
Q 4353 2634 4218 2821 
Q 4084 3009 3734 3009 
Q 3366 3009 3161 2736 
Q 2956 2463 2956 1959 
L 2956 0 
L 2400 0 
z
" transform="scale(0.015625)"/>
       <path id="LiberationSans-65" d="M 863 1572 
Q 863 991 1103 675 
Q 1344 359 1806 359 
Q 2172 359 2392 506 
Q 2613 653 2691 878 
L 3184 738 
Q 2881 -63 1806 -63 
Q 1056 -63 664 384 
Q 272 831 272 1713 
Q 272 2550 664 2997 
Q 1056 3444 1784 3444 
Q 3275 3444 3275 1647 
L 3275 1572 
L 863 1572 
z
M 2694 2003 
Q 2647 2538 2422 2783 
Q 2197 3028 1775 3028 
Q 1366 3028 1127 2754 
Q 888 2481 869 2003 
L 2694 2003 
z
" transform="scale(0.015625)"/>
       <path id="LiberationSans-20" transform="scale(0.015625)"/>
       <path id="LiberationSans-70" d="M 3291 1706 
Q 3291 -63 2047 -63 
Q 1266 -63 997 525 
L 981 525 
Q 994 500 994 -6 
L 994 -1328 
L 431 -1328 
L 431 2691 
Q 431 3213 413 3381 
L 956 3381 
Q 959 3369 965 3292 
Q 972 3216 980 3056 
Q 988 2897 988 2838 
L 1000 2838 
Q 1150 3150 1397 3295 
Q 1644 3441 2047 3441 
Q 2672 3441 2981 3022 
Q 3291 2603 3291 1706 
z
M 2700 1694 
Q 2700 2400 2509 2703 
Q 2319 3006 1903 3006 
Q 1569 3006 1380 2865 
Q 1191 2725 1092 2426 
Q 994 2128 994 1650 
Q 994 984 1206 668 
Q 1419 353 1897 353 
Q 2316 353 2508 661 
Q 2700 969 2700 1694 
z
" transform="scale(0.015625)"/>
       <path id="LiberationSans-73" d="M 2969 934 
Q 2969 456 2608 196 
Q 2247 -63 1597 -63 
Q 966 -63 623 145 
Q 281 353 178 794 
L 675 891 
Q 747 619 972 492 
Q 1197 366 1597 366 
Q 2025 366 2223 497 
Q 2422 628 2422 891 
Q 2422 1091 2284 1216 
Q 2147 1341 1841 1422 
L 1438 1528 
Q 953 1653 748 1773 
Q 544 1894 428 2066 
Q 313 2238 313 2488 
Q 313 2950 642 3192 
Q 972 3434 1603 3434 
Q 2163 3434 2492 3237 
Q 2822 3041 2909 2606 
L 2403 2544 
Q 2356 2769 2151 2889 
Q 1947 3009 1603 3009 
Q 1222 3009 1040 2893 
Q 859 2778 859 2544 
Q 859 2400 934 2306 
Q 1009 2213 1156 2147 
Q 1303 2081 1775 1966 
Q 2222 1853 2419 1758 
Q 2616 1663 2730 1547 
Q 2844 1431 2906 1279 
Q 2969 1128 2969 934 
z
" transform="scale(0.015625)"/>
      </defs>
      <use xlink:href="#LiberationSans-54"/>
      <use xlink:href="#LiberationSans-69" x="57.333984"/>
      <use xlink:href="#LiberationSans-6d" x="79.550781"/>
      <use xlink:href="#LiberationSans-65" x="162.851562"/>
      <use xlink:href="#LiberationSans-20" x="218.466797"/>
      <use xlink:href="#LiberationSans-70" x="246.25"/>
      <use xlink:href="#LiberationSans-73" x="301.865234"/>
     </g>
    </g>
   </g>
   <g id="matplotlib.axis_2">
    <g id="ytick_1">
     <g id="line2d_22">
      <defs>
       <path id="maa53ca9994" d="M 0 0 
L 3.5 0 
" style="stroke: #000000; stroke-width: 0.8"/>
      </defs>
      <g>
       <use xlink:href="#maa53ca9994" x="79.5" y="572.555473" style="stroke: #000000; stroke-width: 0.8"/>
      </g>
     </g>
     <g id="text_8">
      <!-- $\mathdefault{−2}$ -->
      <g transform="translate(41.5 583.425785) scale(0.3 -0.3)">
       <defs>
        <path id="LiberationSans-2212" d="M 316 1900 
L 316 2356 
L 3425 2356 
L 3425 1900 
L 316 1900 
z
" transform="scale(0.015625)"/>
       </defs>
       <use xlink:href="#LiberationSans-2212" transform="translate(0 0.171875)"/>
       <use xlink:href="#LiberationSans-32" transform="translate(58.398438 0.171875)"/>
      </g>
     </g>
    </g>
    <g id="ytick_2">
     <g id="line2d_23">
      <g>
       <use xlink:href="#maa53ca9994" x="79.5" y="479.294763" style="stroke: #000000; stroke-width: 0.8"/>
      </g>
     </g>
     <g id="text_9">
      <!-- $\mathdefault{0}$ -->
      <g transform="translate(59.2 490.165076) scale(0.3 -0.3)">
       <use xlink:href="#LiberationSans-30" transform="translate(0 0.171875)"/>
      </g>
     </g>
    </g>
    <g id="ytick_3">
     <g id="line2d_24">
      <g>
       <use xlink:href="#maa53ca9994" x="79.5" y="386.034053" style="stroke: #000000; stroke-width: 0.8"/>
      </g>
     </g>
     <g id="text_10">
      <!-- $\mathdefault{2}$ -->
      <g transform="translate(59.2 396.904366) scale(0.3 -0.3)">
       <use xlink:href="#LiberationSans-32" transform="translate(0 0.171875)"/>
      </g>
     </g>
    </g>
    <g id="ytick_4">
     <g id="line2d_25">
      <g>
       <use xlink:href="#maa53ca9994" x="79.5" y="292.773344" style="stroke: #000000; stroke-width: 0.8"/>
      </g>
     </g>
     <g id="text_11">
      <!-- $\mathdefault{4}$ -->
      <g transform="translate(59.2 303.643656) scale(0.3 -0.3)">
       <use xlink:href="#LiberationSans-34" transform="translate(0 0.203125)"/>
      </g>
     </g>
    </g>
    <g id="ytick_5">
     <g id="line2d_26">
      <g>
       <use xlink:href="#maa53ca9994" x="79.5" y="199.512634" style="stroke: #000000; stroke-width: 0.8"/>
      </g>
     </g>
     <g id="text_12">
      <!-- $\mathdefault{6}$ -->
      <g transform="translate(59.2 210.382946) scale(0.3 -0.3)">
       <use xlink:href="#LiberationSans-36" transform="translate(0 0.171875)"/>
      </g>
     </g>
    </g>
    <g id="ytick_6">
     <g id="line2d_27">
      <g>
       <use xlink:href="#maa53ca9994" x="79.5" y="106.251924" style="stroke: #000000; stroke-width: 0.8"/>
      </g>
     </g>
     <g id="text_13">
      <!-- $\mathdefault{8}$ -->
      <g transform="translate(59.2 117.122237) scale(0.3 -0.3)">
       <use xlink:href="#LiberationSans-38" transform="translate(0 0.171875)"/>
      </g>
     </g>
    </g>
    <g id="ytick_7">
     <g id="line2d_28">
      <defs>
       <path id="mdaeb0aa88d" d="M 0 0 
L 2 0 
" style="stroke: #000000; stroke-width: 0.6"/>
      </defs>
      <g>
       <use xlink:href="#mdaeb0aa88d" x="79.5" y="619.185828" style="stroke: #000000; stroke-width: 0.6"/>
      </g>
     </g>
    </g>
    <g id="ytick_8">
     <g id="line2d_29">
      <g>
       <use xlink:href="#mdaeb0aa88d" x="79.5" y="595.87065" style="stroke: #000000; stroke-width: 0.6"/>
      </g>
     </g>
    </g>
    <g id="ytick_9">
     <g id="line2d_30">
      <g>
       <use xlink:href="#mdaeb0aa88d" x="79.5" y="549.240295" style="stroke: #000000; stroke-width: 0.6"/>
      </g>
     </g>
    </g>
    <g id="ytick_10">
     <g id="line2d_31">
      <g>
       <use xlink:href="#mdaeb0aa88d" x="79.5" y="525.925118" style="stroke: #000000; stroke-width: 0.6"/>
      </g>
     </g>
    </g>
    <g id="ytick_11">
     <g id="line2d_32">
      <g>
       <use xlink:href="#mdaeb0aa88d" x="79.5" y="502.60994" style="stroke: #000000; stroke-width: 0.6"/>
      </g>
     </g>
    </g>
    <g id="ytick_12">
     <g id="line2d_33">
      <g>
       <use xlink:href="#mdaeb0aa88d" x="79.5" y="455.979586" style="stroke: #000000; stroke-width: 0.6"/>
      </g>
     </g>
    </g>
    <g id="ytick_13">
     <g id="line2d_34">
      <g>
       <use xlink:href="#mdaeb0aa88d" x="79.5" y="432.664408" style="stroke: #000000; stroke-width: 0.6"/>
      </g>
     </g>
    </g>
    <g id="ytick_14">
     <g id="line2d_35">
      <g>
       <use xlink:href="#mdaeb0aa88d" x="79.5" y="409.349231" style="stroke: #000000; stroke-width: 0.6"/>
      </g>
     </g>
    </g>
    <g id="ytick_15">
     <g id="line2d_36">
      <g>
       <use xlink:href="#mdaeb0aa88d" x="79.5" y="362.718876" style="stroke: #000000; stroke-width: 0.6"/>
      </g>
     </g>
    </g>
    <g id="ytick_16">
     <g id="line2d_37">
      <g>
       <use xlink:href="#mdaeb0aa88d" x="79.5" y="339.403698" style="stroke: #000000; stroke-width: 0.6"/>
      </g>
     </g>
    </g>
    <g id="ytick_17">
     <g id="line2d_38">
      <g>
       <use xlink:href="#mdaeb0aa88d" x="79.5" y="316.088521" style="stroke: #000000; stroke-width: 0.6"/>
      </g>
     </g>
    </g>
    <g id="ytick_18">
     <g id="line2d_39">
      <g>
       <use xlink:href="#mdaeb0aa88d" x="79.5" y="269.458166" style="stroke: #000000; stroke-width: 0.6"/>
      </g>
     </g>
    </g>
    <g id="ytick_19">
     <g id="line2d_40">
      <g>
       <use xlink:href="#mdaeb0aa88d" x="79.5" y="246.142989" style="stroke: #000000; stroke-width: 0.6"/>
      </g>
     </g>
    </g>
    <g id="ytick_20">
     <g id="line2d_41">
      <g>
       <use xlink:href="#mdaeb0aa88d" x="79.5" y="222.827811" style="stroke: #000000; stroke-width: 0.6"/>
      </g>
     </g>
    </g>
    <g id="ytick_21">
     <g id="line2d_42">
      <g>
       <use xlink:href="#mdaeb0aa88d" x="79.5" y="176.197456" style="stroke: #000000; stroke-width: 0.6"/>
      </g>
     </g>
    </g>
    <g id="ytick_22">
     <g id="line2d_43">
      <g>
       <use xlink:href="#mdaeb0aa88d" x="79.5" y="152.882279" style="stroke: #000000; stroke-width: 0.6"/>
      </g>
     </g>
    </g>
    <g id="ytick_23">
     <g id="line2d_44">
      <g>
       <use xlink:href="#mdaeb0aa88d" x="79.5" y="129.567102" style="stroke: #000000; stroke-width: 0.6"/>
      </g>
     </g>
    </g>
    <g id="ytick_24">
     <g id="line2d_45">
      <g>
       <use xlink:href="#mdaeb0aa88d" x="79.5" y="82.936747" style="stroke: #000000; stroke-width: 0.6"/>
      </g>
     </g>
    </g>
    <g id="ytick_25">
     <g id="line2d_46">
      <g>
       <use xlink:href="#mdaeb0aa88d" x="79.5" y="59.621569" style="stroke: #000000; stroke-width: 0.6"/>
      </g>
     </g>
    </g>
    <g id="text_14">
     <!-- ACF $(\mathrm{W} / \mathrm{m}^2)^2$ -->
     <g transform="translate(31.275 426.339) rotate(-90) scale(0.3 -0.3)">
      <defs>
       <path id="LiberationSans-41" d="M 3647 0 
L 3144 1288 
L 1138 1288 
L 631 0 
L 13 0 
L 1809 4403 
L 2488 4403 
L 4256 0 
L 3647 0 
z
M 2141 3953 
L 2113 3866 
Q 2034 3606 1881 3200 
L 1319 1753 
L 2966 1753 
L 2400 3206 
Q 2313 3422 2225 3694 
L 2141 3953 
z
" transform="scale(0.015625)"/>
       <path id="LiberationSans-43" d="M 2475 3981 
Q 1744 3981 1337 3511 
Q 931 3041 931 2222 
Q 931 1413 1354 920 
Q 1778 428 2500 428 
Q 3425 428 3891 1344 
L 4378 1100 
Q 4106 531 3614 234 
Q 3122 -63 2472 -63 
Q 1806 -63 1320 214 
Q 834 491 579 1005 
Q 325 1519 325 2222 
Q 325 3275 894 3872 
Q 1463 4469 2469 4469 
Q 3172 4469 3644 4194 
Q 4116 3919 4338 3378 
L 3772 3191 
Q 3619 3575 3280 3778 
Q 2941 3981 2475 3981 
z
" transform="scale(0.015625)"/>
       <path id="LiberationSans-46" d="M 1122 3916 
L 1122 2278 
L 3578 2278 
L 3578 1784 
L 1122 1784 
L 1122 0 
L 525 0 
L 525 4403 
L 3653 4403 
L 3653 3916 
L 1122 3916 
z
" transform="scale(0.015625)"/>
       <path id="STIXGeneral-Regular-28" d="M 1946 -1030 
L 1869 -1133 
Q 1126 -710 716 32 
Q 307 774 307 1613 
Q 307 3386 1888 4326 
L 1946 4224 
Q 1293 3667 1075 3126 
Q 858 2586 858 1632 
Q 858 685 1082 96 
Q 1306 -493 1946 -1030 
z
" transform="scale(0.015625)"/>
       <path id="STIXGeneral-Regular-57" d="M 5965 4237 
L 5965 4115 
Q 5709 4064 5616 3990 
Q 5523 3917 5434 3667 
Q 4704 1709 4128 -70 
L 4032 -70 
Q 3642 1011 3008 2637 
L 2022 -70 
L 1926 -70 
Q 1709 576 1277 1753 
Q 845 2931 698 3347 
Q 538 3808 406 3958 
Q 275 4109 32 4115 
L 32 4237 
L 1594 4237 
L 1594 4115 
Q 1357 4109 1270 4064 
Q 1184 4019 1184 3917 
Q 1184 3808 1254 3616 
L 2176 1210 
L 2842 3021 
L 2662 3501 
Q 2509 3917 2400 4013 
Q 2291 4109 2010 4115 
L 2010 4237 
L 3706 4237 
L 3706 4115 
Q 3213 4102 3213 3891 
Q 3213 3808 3322 3520 
L 4237 1190 
L 5043 3360 
Q 5152 3667 5152 3853 
Q 5152 4109 4704 4115 
L 4704 4237 
L 5965 4237 
z
" transform="scale(0.015625)"/>
       <path id="STIXGeneral-Regular-2f" d="M 1837 4326 
L 378 -90 
L -58 -90 
L 1408 4326 
L 1837 4326 
z
" transform="scale(0.015625)"/>
       <path id="STIXGeneral-Regular-6d" d="M 4960 0 
L 3565 0 
L 3565 96 
Q 3834 122 3907 208 
Q 3981 294 3981 576 
L 3981 1894 
Q 3981 2278 3869 2444 
Q 3757 2611 3488 2611 
Q 3264 2611 3107 2521 
Q 2950 2432 2803 2221 
L 2803 608 
Q 2803 301 2896 201 
Q 2989 102 3264 96 
L 3264 0 
L 1830 0 
L 1830 96 
Q 2112 115 2189 188 
Q 2266 262 2266 550 
L 2266 1901 
Q 2266 2611 1850 2611 
Q 1670 2611 1468 2531 
Q 1267 2451 1171 2336 
Q 1088 2240 1088 2227 
L 1088 448 
Q 1088 243 1177 176 
Q 1267 109 1523 96 
L 1523 0 
L 102 0 
L 102 96 
Q 371 102 460 195 
Q 550 288 550 563 
L 550 2150 
Q 550 2387 499 2480 
Q 448 2573 326 2573 
Q 230 2573 122 2547 
L 122 2656 
Q 557 2778 1011 2944 
L 1062 2925 
L 1062 2451 
L 1075 2451 
Q 1363 2752 1584 2848 
Q 1805 2944 2054 2944 
Q 2560 2944 2733 2406 
Q 3232 2944 3776 2944 
Q 4518 2944 4518 1792 
L 4518 493 
Q 4518 282 4582 202 
Q 4646 122 4794 109 
L 4960 96 
L 4960 0 
z
" transform="scale(0.015625)"/>
       <path id="STIXGeneral-Regular-32" d="M 3034 877 
L 2688 0 
L 186 0 
L 186 77 
L 1325 1286 
Q 1773 1754 1965 2144 
Q 2157 2534 2157 2950 
Q 2157 3379 1920 3616 
Q 1683 3853 1267 3853 
Q 922 3853 720 3673 
Q 518 3494 326 3021 
L 192 3053 
Q 301 3648 630 3987 
Q 960 4326 1523 4326 
Q 2054 4326 2380 4006 
Q 2707 3686 2707 3200 
Q 2707 2477 1888 1613 
L 832 486 
L 2330 486 
Q 2541 486 2665 569 
Q 2790 653 2944 915 
L 3034 877 
z
" transform="scale(0.015625)"/>
       <path id="STIXGeneral-Regular-29" d="M 186 4224 
L 262 4326 
Q 992 3891 1408 3148 
Q 1824 2406 1824 1581 
Q 1824 -166 243 -1133 
L 186 -1030 
Q 845 -486 1059 54 
Q 1274 595 1274 1562 
Q 1274 2534 1059 3120 
Q 845 3706 186 4224 
z
" transform="scale(0.015625)"/>
      </defs>
      <use xlink:href="#LiberationSans-41" transform="translate(0 0.409375)"/>
      <use xlink:href="#LiberationSans-43" transform="translate(66.699219 0.409375)"/>
      <use xlink:href="#LiberationSans-46" transform="translate(138.916016 0.409375)"/>
      <use xlink:href="#LiberationSans-20" transform="translate(200 0.409375)"/>
      <use xlink:href="#STIXGeneral-Regular-28" transform="translate(227.783203 0.409375)"/>
      <use xlink:href="#STIXGeneral-Regular-57" transform="translate(261.083191 0.409375)"/>
      <use xlink:href="#STIXGeneral-Regular-2f" transform="translate(355.483185 0.409375)"/>
      <use xlink:href="#STIXGeneral-Regular-6d" transform="translate(383.283173 0.409375)"/>
      <use xlink:href="#STIXGeneral-Regular-32" transform="translate(462.626442 35.684375) scale(0.7)"/>
      <use xlink:href="#STIXGeneral-Regular-29" transform="translate(502.035806 0.409375)"/>
      <use xlink:href="#STIXGeneral-Regular-32" transform="translate(536.879075 35.684375) scale(0.7)"/>
     </g>
    </g>
    <g id="text_15">
     <!-- $\times\mathdefault{10^{18}}\mathdefault{}$ -->
     <g transform="translate(79.5 36.1875) scale(0.4 -0.4)">
      <defs>
       <path id="STIXGeneral-Regular-d7" d="M 3821 141 
L 3526 -160 
L 2048 1312 
L 570 -160 
L 275 134 
L 1747 1613 
L 275 3091 
L 576 3386 
L 2048 1914 
L 3526 3386 
L 3821 3098 
L 2349 1613 
L 3821 141 
z
" transform="scale(0.015625)"/>
      </defs>
      <use xlink:href="#STIXGeneral-Regular-d7" transform="translate(0 0.140625)"/>
      <use xlink:href="#LiberationSans-31" transform="translate(63.999985 0.140625)"/>
      <use xlink:href="#LiberationSans-30" transform="translate(119.615219 0.140625)"/>
      <use xlink:href="#LiberationSans-31" transform="translate(176.154946 37.120312) scale(0.7)"/>
      <use xlink:href="#LiberationSans-38" transform="translate(215.08561 37.120312) scale(0.7)"/>
     </g>
    </g>
   </g>
   <g id="line2d_47">
    <path d="M 107.865545 73.684449 
L 107.979018 74.480759 
L 108.149229 78.644645 
L 108.432913 93.291243 
L 108.83007 128.688436 
L 109.397438 203.253004 
L 111.780382 548.4441 
L 112.347749 588.600607 
L 112.801643 606.099164 
L 113.142064 611.985288 
L 113.369011 613.063091 
L 113.482485 612.876093 
L 113.652695 611.808091 
L 113.936379 608.27133 
L 114.390273 599.355837 
L 115.411534 573.303294 
L 117.056901 532.96644 
L 119.383108 481.656084 
L 120.234159 467.465063 
L 120.858264 460.488598 
L 121.312158 457.487974 
L 121.652578 456.37092 
L 121.879526 456.134373 
L 122.049736 456.205376 
L 122.276683 456.605841 
L 122.617103 457.788582 
L 123.127734 460.60908 
L 123.922049 466.518102 
L 125.737625 480.315146 
L 126.588677 484.951566 
L 127.269518 487.541363 
L 127.836886 488.957324 
L 128.347517 489.694091 
L 128.744674 489.944723 
L 129.141831 489.940123 
L 129.538989 489.706841 
L 130.049619 489.114297 
L 130.673724 488.015545 
L 131.468039 486.133632 
L 132.375827 483.407513 
L 133.397089 479.595896 
L 134.702034 473.733306 
L 135.893506 468.664201 
L 136.460874 467.080438 
L 136.858031 466.521304 
L 137.141715 466.453528 
L 137.368662 466.614287 
L 137.652346 467.092347 
L 138.049503 468.274206 
L 138.560134 470.597408 
L 139.354449 475.498 
L 140.829605 484.743214 
L 141.396972 487.019079 
L 141.850866 488.084946 
L 142.191287 488.457192 
L 142.531707 488.50935 
L 142.872128 488.304492 
L 143.382759 487.680396 
L 144.857915 485.69994 
L 145.595493 485.186937 
L 146.389807 484.63446 
L 146.843701 484.0517 
L 147.354332 482.980105 
L 147.9217 481.183499 
L 148.659278 478.017581 
L 150.191171 471.211136 
L 150.701801 469.899156 
L 151.042222 469.473653 
L 151.325906 469.411447 
L 151.60959 469.611374 
L 151.95001 470.174103 
L 152.403904 471.391365 
L 153.141482 474.123981 
L 154.786848 480.367705 
L 155.524426 482.28399 
L 156.262004 483.60774 
L 156.999582 484.497154 
L 157.680423 485.010118 
L 158.247791 485.181657 
L 158.701685 485.100717 
L 159.155579 484.781912 
L 159.66621 484.105729 
L 160.290314 482.828134 
L 161.141366 480.489565 
L 162.616522 476.395618 
L 163.297363 475.171585 
L 163.807994 474.653517 
L 164.261888 474.467181 
L 164.772519 474.516136 
L 165.339886 474.809065 
L 166.134201 475.486829 
L 167.098726 476.606643 
L 167.949777 477.933438 
L 168.857566 479.787819 
L 170.786616 483.905811 
L 171.297247 484.46439 
L 171.694404 484.620276 
L 172.091561 484.519387 
L 172.488719 484.175492 
L 173.056086 483.339068 
L 174.190821 481.10318 
L 175.09861 479.563117 
L 175.779451 478.821802 
L 176.460292 478.399177 
L 180.318392 476.784248 
L 180.829023 476.935221 
L 181.39639 477.371254 
L 182.133968 478.285219 
L 183.836071 480.550977 
L 184.460176 480.98364 
L 185.08428 481.133771 
L 185.821858 481.058381 
L 187.807645 480.753684 
L 188.885643 480.593104 
L 189.509748 480.277627 
L 190.190589 479.668664 
L 192.460059 477.32912 
L 192.913953 477.283437 
L 193.367848 477.46211 
L 193.935215 477.957029 
L 196.204686 480.293773 
L 196.772053 480.386954 
L 197.396158 480.245403 
L 199.154997 479.700488 
L 199.835839 479.805574 
L 201.821625 480.301834 
L 202.388993 480.101069 
L 203.069834 479.5878 
L 204.998884 477.921645 
L 205.509515 477.827346 
L 206.020146 477.949199 
L 206.64425 478.336631 
L 208.516563 479.675478 
L 209.140668 479.769406 
L 209.821509 479.63081 
L 212.09098 478.941158 
L 212.942031 479.055886 
L 215.211502 479.488907 
L 217.027078 479.657666 
L 217.934866 480.028539 
L 219.807179 480.890036 
L 220.488021 480.901175 
L 221.225598 480.676142 
L 223.268122 479.896045 
L 224.062437 479.927218 
L 225.707803 480.086972 
L 226.331907 479.886802 
L 227.069485 479.38959 
L 229.282219 477.662563 
L 229.849586 477.597843 
L 230.416954 477.760382 
L 231.154532 478.240709 
L 233.480739 479.979061 
L 234.558738 480.364818 
L 236.204104 480.95315 
L 237.962944 481.656976 
L 238.587048 481.63493 
L 239.154416 481.386057 
L 239.77852 480.848015 
L 240.629572 479.764587 
L 242.331674 477.525211 
L 242.955779 477.071215 
L 243.523146 476.920471 
L 244.090514 477.012535 
L 244.714619 477.347343 
L 245.622407 478.11428 
L 247.721667 479.96791 
L 248.515982 480.365468 
L 249.196823 480.484242 
L 249.877664 480.38351 
L 250.671979 480.029167 
L 252.714502 478.985022 
L 253.395343 478.968878 
L 254.132921 479.204863 
L 256.232182 480.08958 
L 256.856286 480.006612 
L 257.537127 479.665641 
L 259.976808 478.165438 
L 260.544176 478.20385 
L 261.225017 478.494438 
L 262.700173 479.494332 
L 263.607961 479.922025 
L 264.572486 480.102949 
L 266.161115 480.361409 
L 267.29585 480.851545 
L 268.373849 481.254861 
L 268.997953 481.255561 
L 269.565321 481.040736 
L 270.246162 480.524094 
L 272.799316 478.251375 
L 273.423421 478.148029 
L 274.104262 478.276582 
L 276.827627 479.090645 
L 278.075835 478.959954 
L 279.267308 478.909528 
L 280.231832 479.104291 
L 283.692775 480.074428 
L 285.167931 480.025897 
L 287.210454 479.739174 
L 293.905393 478.451547 
L 295.096865 478.429153 
L 296.06139 478.639317 
L 297.139388 479.12761 
L 300.0897 480.638622 
L 300.940751 480.745157 
L 301.791803 480.635627 
L 302.813064 480.265152 
L 304.174747 479.509396 
L 306.954848 477.907491 
L 307.8059 477.704104 
L 308.543477 477.741778 
L 309.281055 477.998063 
L 310.132107 478.540424 
L 311.550526 479.769396 
L 312.798735 480.734756 
L 313.649786 481.129951 
L 314.444101 481.268968 
L 315.351889 481.193273 
L 316.429888 480.866431 
L 317.678096 480.246133 
L 319.380199 479.106916 
L 320.741882 478.295395 
L 321.64967 478.004446 
L 322.500721 477.955517 
L 323.521983 478.1326 
L 324.997139 478.64282 
L 327.833977 479.652445 
L 329.025449 479.804379 
L 330.330395 479.730375 
L 334.926073 479.054018 
L 337.309017 478.607119 
L 338.216805 478.693773 
L 339.238067 479.029902 
L 341.847958 480.026718 
L 342.812483 480.056487 
L 344.174165 479.836594 
L 346.046478 479.582261 
L 348.883316 479.276086 
L 350.812366 479.027774 
L 351.833628 479.139239 
L 352.85489 479.48101 
L 355.748465 480.623174 
L 356.542779 480.589066 
L 357.393831 480.309666 
L 358.64204 479.611551 
L 360.173932 478.8041 
L 361.251931 478.498423 
L 362.556876 478.37756 
L 364.145506 478.445616 
L 365.223504 478.692527 
L 366.301503 479.181913 
L 368.911394 480.532036 
L 369.648972 480.591826 
L 370.443286 480.430907 
L 371.748232 479.883797 
L 373.053178 479.431738 
L 374.187913 479.300642 
L 376.570857 479.118361 
L 378.44317 478.5825 
L 379.521169 478.412157 
L 380.54243 478.484817 
L 387.123895 479.74375 
L 388.428841 480.049026 
L 389.279892 480.011112 
L 390.130943 479.738111 
L 391.549363 478.985985 
L 392.684098 478.508199 
L 393.478412 478.405606 
L 394.272727 478.519817 
L 395.350726 478.920334 
L 396.996092 479.529363 
L 397.90388 479.618465 
L 398.925142 479.478804 
L 400.910929 479.139336 
L 401.705243 479.268663 
L 402.613031 479.656321 
L 404.485345 480.531366 
L 405.166186 480.57439 
L 405.847027 480.403849 
L 406.754815 479.929014 
L 408.400181 479.04932 
L 409.194496 478.905107 
L 409.988811 478.997406 
L 411.066809 479.386144 
L 412.768912 480.010369 
L 413.6767 480.097299 
L 414.697962 479.964662 
L 419.46385 478.82468 
L 420.428375 478.173617 
L 422.357425 476.795883 
L 422.98153 476.6524 
L 423.548897 476.740889 
L 424.173002 477.079366 
L 424.967316 477.80136 
L 427.690681 480.552911 
L 428.541732 480.999066 
L 429.449521 481.21784 
L 430.414046 481.215869 
L 431.548781 480.981886 
L 432.9672 480.446256 
L 435.804038 479.056527 
L 437.392667 478.423975 
L 438.470666 478.222424 
L 439.435191 478.268423 
L 440.456453 478.551967 
L 441.818135 479.188164 
L 443.974132 480.197986 
L 444.938657 480.398615 
L 445.789708 480.361791 
L 446.697497 480.098804 
L 447.888969 479.500913 
L 450.044966 478.392237 
L 451.066227 478.129439 
L 452.030752 478.105933 
L 452.995277 478.308491 
L 454.073276 478.773641 
L 456.62643 480.002551 
L 457.477482 480.090576 
L 458.38527 479.944393 
L 461.562529 479.176972 
L 462.810738 479.307879 
L 464.626314 479.489722 
L 466.214943 479.37532 
L 467.746836 479.333187 
L 468.768098 479.529937 
L 470.073043 480.033313 
L 471.377989 480.474074 
L 472.115567 480.49827 
L 472.796408 480.308639 
L 473.590723 479.844158 
L 476.200614 478.078672 
L 476.938192 477.973518 
L 477.789243 478.101315 
L 481.817553 479.065897 
L 483.462919 479.453946 
L 485.618916 479.975756 
L 486.753652 479.987738 
L 488.228808 479.755242 
L 490.328068 479.442824 
L 491.576277 479.504492 
L 494.923746 479.868599 
L 495.831534 479.582085 
L 497.136479 478.890229 
L 498.498162 478.246947 
L 499.349213 478.085955 
L 500.257001 478.154178 
L 501.50521 478.506678 
L 504.001628 479.224125 
L 506.611519 479.719673 
L 507.973201 479.740022 
L 510.696566 479.682885 
L 512.9093 479.795965 
L 513.930561 479.56697 
L 516.483716 478.871715 
L 517.902135 478.873866 
L 519.150344 478.80006 
L 520.228342 478.491093 
L 522.327602 477.793821 
L 523.06518 477.821847 
L 523.802758 478.081064 
L 524.65381 478.633248 
L 527.150227 480.433363 
L 528.001279 480.669011 
L 528.965804 480.687183 
L 531.178538 480.407443 
L 533.107588 480.033581 
L 536.682004 479.168884 
L 539.518842 478.963438 
L 540.993998 479.055259 
L 544.001046 479.357785 
L 545.362728 479.162243 
L 549.277565 478.46757 
L 550.24209 478.571913 
L 551.149878 478.890815 
L 552.511561 479.655475 
L 553.646296 480.200526 
L 554.383874 480.325375 
L 555.121452 480.217786 
L 556.02924 479.829288 
L 557.78808 479.020927 
L 558.582394 478.937895 
L 559.433446 479.090998 
L 562.100074 479.782096 
L 563.064599 479.657634 
L 565.334069 479.25718 
L 566.298594 479.389122 
L 569.078696 479.936518 
L 570.156694 479.799082 
L 573.050269 479.304506 
L 575.31974 479.075721 
L 576.738159 478.615543 
L 577.986367 478.286572 
L 578.780682 478.309104 
L 579.574997 478.556417 
L 580.766469 479.203309 
L 582.184888 479.92412 
L 583.149413 480.156935 
L 584.113938 480.149477 
L 585.248673 479.89772 
L 588.9933 478.841452 
L 589.901088 478.977055 
L 591.206033 479.437383 
L 592.624452 479.884555 
L 593.645714 479.960673 
L 594.837186 479.803409 
L 597.787498 479.335638 
L 599.205917 479.029588 
L 601.872545 478.31096 
L 602.66686 478.419876 
L 603.631385 478.79507 
L 605.787382 479.71099 
L 606.751907 479.815615 
L 607.773168 479.693261 
L 612.028426 478.890906 
L 616.453893 478.960258 
L 617.475155 479.286173 
L 620.19852 480.315825 
L 621.049571 480.28663 
L 622.014096 480.018887 
L 625.077881 479.00043 
L 626.666511 478.857814 
L 632.056503 478.71866 
L 637.049338 479.309918 
L 638.24081 479.150549 
L 639.489019 478.740319 
L 641.020912 478.253362 
L 641.75849 478.257155 
L 642.439331 478.477969 
L 643.233645 478.983793 
L 645.7868 480.844294 
L 646.467641 480.965896 
L 647.205219 480.856496 
L 648.113007 480.472816 
L 652.311528 478.394702 
L 653.729947 477.994911 
L 654.751208 477.934223 
L 655.715733 478.101453 
L 656.907206 478.552274 
L 659.29015 479.500994 
L 660.992252 479.860336 
L 663.148249 480.117998 
L 664.226248 480.016406 
L 665.304247 479.670928 
L 668.481505 478.440737 
L 669.389293 478.433102 
L 670.410555 478.66041 
L 671.658764 479.184613 
L 674.438865 480.450098 
L 675.176443 480.528009 
L 675.176443 480.528009 
" clip-path="url(#pb87acc7809)" style="fill: none; stroke: #ff0000; stroke-width: 1.5; stroke-linecap: square"/>
   </g>
   <g id="line2d_48">
    <path d="M 107.865545 66.514909 
L 108.376176 91.008982 
L 108.773333 130.192306 
L 109.397438 217.124474 
L 111.383224 514.465293 
L 111.950592 564.474384 
L 112.404486 588.744862 
L 112.801643 599.644619 
L 113.085327 602.432127 
L 113.198801 602.556124 
L 113.312274 602.213199 
L 113.539221 600.245052 
L 113.879642 594.706502 
L 114.503746 579.884602 
L 116.035639 541.752135 
L 117.113637 521.347869 
L 120.234159 468.9243 
L 120.858264 462.696435 
L 121.368895 459.66127 
L 121.766052 458.48367 
L 122.049736 458.185645 
L 122.390156 458.364223 
L 122.67384 458.894775 
L 123.070998 460.20513 
L 123.808575 463.784671 
L 124.659627 469.149706 
L 126.588677 481.353408 
L 127.212781 483.680624 
L 127.723412 484.785557 
L 128.120569 485.278445 
L 128.858147 485.71724 
L 129.198568 485.993566 
L 129.709199 486.740762 
L 131.354565 489.255891 
L 131.921933 489.446775 
L 132.262353 489.418612 
L 132.886458 488.976332 
L 133.226878 488.451053 
L 133.737509 487.161928 
L 134.361613 484.88452 
L 135.326138 480.058711 
L 136.687821 472.823147 
L 137.255188 470.970378 
L 137.652346 470.288547 
L 137.93603 470.171838 
L 138.162977 470.327875 
L 138.503397 471.026003 
L 138.843818 472.158913 
L 139.411185 474.795866 
L 141.510446 485.042476 
L 141.907603 485.7788 
L 142.191287 485.924808 
L 142.418234 485.843942 
L 142.758654 485.459417 
L 143.326022 484.342063 
L 144.574231 481.765049 
L 145.198335 481.109448 
L 145.879176 480.859526 
L 146.616754 480.644387 
L 147.127385 480.121397 
L 147.9217 478.764479 
L 148.716015 476.782428 
L 150.02096 473.555438 
L 150.474854 473.067999 
L 150.758538 472.986182 
L 151.098959 473.14033 
L 151.439379 473.516361 
L 151.95001 474.398092 
L 152.914535 476.644325 
L 154.162744 479.818441 
L 154.616638 480.582794 
L 155.070532 480.990981 
L 155.46769 481.067562 
L 155.97832 480.968017 
L 156.602425 480.60593 
L 157.680423 479.88052 
L 158.758422 479.560931 
L 159.439263 479.339112 
L 160.347051 479.02082 
L 160.971156 479.074257 
L 161.878944 479.156387 
L 162.729995 478.894969 
L 163.297363 478.536603 
L 164.034941 477.995099 
L 164.432098 477.877876 
L 165.056203 477.978542 
L 165.850517 478.300002 
L 167.38241 479.247907 
L 168.346935 479.703793 
L 169.254723 479.889059 
L 170.049038 479.785907 
L 173.16956 479.049063 
L 175.779451 478.892662 
L 179.183657 478.959884 
L 180.091445 479.249828 
L 181.39639 479.664722 
L 182.701336 479.81093 
L 183.779335 479.624939 
L 185.878595 479.181563 
L 187.070067 479.17092 
L 189.169327 479.465605 
L 192.006165 480.05353 
L 193.935215 480.179427 
L 197.225947 480.163661 
L 200.289733 480.289 
L 201.310994 480.006229 
L 202.61594 479.400568 
L 203.750675 478.927336 
L 204.771937 478.739366 
L 206.020146 478.732599 
L 207.495302 478.908474 
L 210.842771 479.274822 
L 212.09098 479.054422 
L 213.566135 478.505746 
L 214.644134 478.19798 
L 215.438449 478.241961 
L 216.232763 478.547537 
L 218.161813 479.40577 
L 218.899391 479.438924 
L 219.807179 479.210216 
L 221.339072 478.700295 
L 224.402857 479.496776 
L 225.253909 479.291739 
L 226.27517 478.780756 
L 227.466642 478.17449 
L 228.317694 477.99608 
L 229.282219 478.045538 
L 232.743161 478.409455 
L 233.82116 478.939108 
L 235.806947 480.118309 
L 236.657998 480.292313 
L 237.338839 480.219599 
L 238.473575 479.834203 
L 239.60831 479.472895 
L 240.516098 479.404666 
L 241.480623 479.583201 
L 244.430935 480.367307 
L 245.452196 480.293037 
L 248.402508 479.931492 
L 250.161348 480.193459 
L 251.466293 480.28557 
L 253.679027 480.210744 
L 254.757026 479.978583 
L 255.835024 479.45332 
L 258.047758 478.294449 
L 258.785336 478.167063 
L 259.806598 478.262179 
L 261.395227 478.70545 
L 266.217852 480.311765 
L 267.29585 480.264261 
L 268.373849 479.983043 
L 272.061739 478.757824 
L 273.423421 478.727567 
L 274.558156 478.567914 
L 275.522681 478.190097 
L 277.168047 477.499232 
L 277.905625 477.446522 
L 278.643203 477.656779 
L 279.664465 478.213445 
L 280.7992 478.784776 
L 281.480041 478.950156 
L 282.217619 478.904632 
L 283.465828 478.50006 
L 284.48709 478.261002 
L 285.281404 478.331413 
L 289.423188 479.194522 
L 292.770657 479.712711 
L 293.962129 479.581513 
L 295.720969 479.063918 
L 297.423072 478.656043 
L 298.217387 478.661883 
L 299.295385 478.905877 
L 302.699591 479.888381 
L 306.38748 480.332109 
L 307.578953 480.14953 
L 309.678213 479.451864 
L 311.039895 479.124152 
L 312.231367 479.107482 
L 313.252629 479.331891 
L 315.635573 479.949721 
L 316.486624 479.839303 
L 317.394413 479.456904 
L 319.436936 478.456948 
L 320.174514 478.336788 
L 321.025565 478.427938 
L 323.975877 478.928025 
L 326.415558 479.00036 
L 327.550293 479.314322 
L 329.876501 480.059046 
L 330.670815 480.005127 
L 331.578603 479.6566 
L 332.429655 479.066034 
L 334.812599 477.131271 
L 336.174281 477.042746 
L 337.762911 477.408146 
L 339.691961 477.952225 
L 340.996906 478.607617 
L 342.188378 479.502934 
L 343.777008 480.663325 
L 344.571322 480.974173 
L 345.3089 481.025628 
L 346.103215 480.839453 
L 347.06774 480.346091 
L 348.145738 479.508117 
L 349.564158 478.431467 
L 350.528682 477.966697 
L 351.26626 477.851273 
L 352.003838 477.968799 
L 352.85489 478.363859 
L 354.159835 479.262868 
L 355.464781 480.016499 
L 356.372569 480.243605 
L 357.166884 480.201521 
L 358.528566 479.812765 
L 359.606565 479.595615 
L 360.684563 479.635931 
L 363.01077 479.882123 
L 365.563925 479.833654 
L 367.152554 480.181297 
L 368.344026 480.335952 
L 369.138341 480.209633 
L 370.159603 479.791615 
L 372.939704 478.435463 
L 374.131176 478.261383 
L 375.038964 478.36929 
L 376.570857 478.860662 
L 378.44317 479.673101 
L 380.20201 480.381824 
L 381.280008 480.587215 
L 382.13106 480.517711 
L 383.379269 480.128911 
L 385.932423 479.112527 
L 387.123895 479.072428 
L 388.428841 478.907901 
L 389.223155 478.587678 
L 390.471364 477.811262 
L 391.606099 477.157746 
L 392.457151 477.271404 
L 393.87557 477.742453 
L 395.747883 478.409459 
L 399.095352 479.286347 
L 400.116614 479.414734 
L 401.648506 479.36801 
L 402.783242 479.386164 
L 404.712292 479.656124 
L 407.37892 480.005877 
L 408.570392 479.802766 
L 411.57744 479.110515 
L 412.768912 479.209989 
L 417.024169 479.800622 
L 420.031218 479.66633 
L 421.903531 479.611034 
L 426.328999 479.651281 
L 428.144575 479.589314 
L 430.584256 479.652907 
L 431.718991 479.464683 
L 435.179934 478.556855 
L 436.257932 478.587798 
L 437.108984 478.800653 
L 438.073509 479.313603 
L 440.172769 480.463821 
L 440.967084 480.612968 
L 441.818135 480.52359 
L 442.669186 480.212874 
L 443.576975 479.599396 
L 444.71171 478.540932 
L 446.300339 477.134957 
L 447.094654 476.739704 
L 447.832232 476.639821 
L 448.342863 476.757643 
L 449.080441 477.343134 
L 450.555597 478.578472 
L 451.406648 479.000715 
L 452.257699 479.149797 
L 453.278961 479.105523 
L 454.640644 479.115958 
L 457.874639 479.49412 
L 459.066111 479.247818 
L 460.541267 478.916901 
L 461.676002 478.869252 
L 463.094421 479.130878 
L 464.229157 479.240749 
L 465.193682 479.117805 
L 468.03052 478.649669 
L 468.995045 478.832954 
L 470.073043 479.335333 
L 471.491462 480.017758 
L 472.455987 480.197321 
L 473.590723 480.118372 
L 476.654508 479.760184 
L 478.299874 479.857449 
L 480.172187 479.881218 
L 482.0445 479.827449 
L 483.519656 480.013177 
L 485.618916 480.342252 
L 486.299758 480.208153 
L 487.264283 479.737882 
L 489.193333 478.695989 
L 490.214594 478.480993 
L 491.065646 478.512515 
L 492.086907 478.701898 
L 493.959221 479.002929 
L 495.207429 478.962279 
L 496.342165 478.674516 
L 498.384688 478.039025 
L 499.008793 478.143776 
L 499.746371 478.50192 
L 501.335 479.371238 
L 501.959104 479.440997 
L 502.583209 479.265669 
L 503.320787 478.796764 
L 504.795943 477.797299 
L 505.249837 477.749239 
L 505.873941 477.957788 
L 506.668256 478.447027 
L 508.029938 479.268822 
L 508.654042 479.410092 
L 509.278147 479.337168 
L 509.958988 479.046304 
L 511.490881 478.278318 
L 512.171722 478.203722 
L 512.966036 478.380269 
L 514.044035 478.848473 
L 515.802875 479.621234 
L 517.10782 479.921903 
L 517.902135 479.900401 
L 519.093607 479.674124 
L 522.327602 478.99463 
L 523.632548 479.165539 
L 524.99423 479.270333 
L 526.92328 479.103083 
L 527.944542 479.127634 
L 529.022541 479.369318 
L 531.689168 480.065 
L 532.88064 480.141722 
L 534.63948 480.234719 
L 536.171373 480.508016 
L 537.646529 480.765227 
L 538.49758 480.727192 
L 539.235158 480.484261 
L 540.029473 479.982436 
L 543.093258 477.660304 
L 543.774099 477.575418 
L 544.45494 477.73915 
L 545.305992 478.22115 
L 547.064831 479.30337 
L 547.859146 479.502366 
L 548.823671 479.517478 
L 551.036405 479.439863 
L 552.34135 479.818801 
L 553.476086 480.044345 
L 554.2704 479.939363 
L 559.433446 478.326352 
L 561.078812 477.75078 
L 561.759653 477.74092 
L 563.461756 478.559221 
L 564.596491 479.106988 
L 565.390806 479.278354 
L 566.355331 479.232812 
L 567.717013 478.86369 
L 569.192169 478.599698 
L 571.007746 478.642841 
L 572.142481 478.906088 
L 573.39069 479.436172 
L 574.468688 479.894728 
L 575.31974 480.051866 
L 576.227528 480.006998 
L 577.305526 479.694135 
L 579.801944 478.776208 
L 580.936679 478.708402 
L 582.241625 478.900488 
L 583.660044 479.33581 
L 587.915301 480.782939 
L 588.879826 480.790255 
L 590.411719 480.513085 
L 592.454242 479.974073 
L 595.404554 479.182094 
L 596.369079 479.143556 
L 597.900971 479.317445 
L 599.886758 479.553928 
L 601.532124 479.442055 
L 603.347701 479.088129 
L 605.900855 478.404252 
L 606.808643 478.456718 
L 607.716432 478.70411 
L 610.666743 479.694703 
L 612.028426 479.63647 
L 614.41137 479.383215 
L 615.489368 478.924851 
L 616.68084 478.146472 
L 618.155996 477.200413 
L 618.666627 477.087421 
L 619.404205 477.240312 
L 620.311993 477.626498 
L 623.716199 479.274827 
L 625.588512 479.74057 
L 626.609774 479.78781 
L 627.914719 479.578036 
L 631.148715 479.120413 
L 632.737344 478.858532 
L 634.666394 478.542667 
L 635.517446 478.637877 
L 636.425234 478.974111 
L 639.489019 480.229378 
L 640.340071 480.242946 
L 641.531543 479.986021 
L 643.801013 479.52006 
L 645.049222 479.532249 
L 648.964059 479.749573 
L 650.382478 479.512465 
L 651.857634 479.287835 
L 652.935632 479.310135 
L 653.84342 479.519025 
L 656.056154 480.0575 
L 656.736995 479.93613 
L 657.53131 479.549764 
L 659.573833 478.44981 
L 660.368148 478.345602 
L 661.162463 478.511264 
L 662.694355 479.147717 
L 663.829091 479.49427 
L 665.077299 479.622908 
L 666.438982 479.535781 
L 669.616241 479.334546 
L 670.864449 479.310773 
L 671.715501 479.035065 
L 672.566552 478.513772 
L 673.928235 477.341812 
L 674.836023 476.687087 
L 675.176443 476.564579 
L 675.176443 476.564579 
" clip-path="url(#pb87acc7809)" style="fill: none; stroke: #0000ff; stroke-width: 1.5; stroke-linecap: square"/>
   </g>
   <g id="patch_3">
    <path d="M 79.5 640.3905 
L 79.5 39.1875 
" style="fill: none; stroke: #000000; stroke-width: 0.8; stroke-linejoin: miter; stroke-linecap: square"/>
   </g>
   <g id="patch_4">
    <path d="M 703.541988 640.3905 
L 703.541988 39.1875 
" style="fill: none; stroke: #000000; stroke-width: 0.8; stroke-linejoin: miter; stroke-linecap: square"/>
   </g>
   <g id="patch_5">
    <path d="M 79.5 640.3905 
L 703.541988 640.3905 
" style="fill: none; stroke: #000000; stroke-width: 0.8; stroke-linejoin: miter; stroke-linecap: square"/>
   </g>
   <g id="patch_6">
    <path d="M 79.5 39.1875 
L 703.541988 39.1875 
" style="fill: none; stroke: #000000; stroke-width: 0.8; stroke-linejoin: miter; stroke-linecap: square"/>
   </g>
   <g id="legend_1">
    <g id="patch_7">
     <path d="M 100.5 149.11875 
L 276.510938 149.11875 
Q 282.510938 149.11875 282.510938 143.11875 
L 282.510938 60.1875 
Q 282.510938 54.1875 276.510938 54.1875 
L 100.5 54.1875 
Q 94.5 54.1875 94.5 60.1875 
L 94.5 143.11875 
Q 94.5 149.11875 100.5 149.11875 
z
" style="fill: #ffffff; opacity: 0.8; stroke: #cccccc; stroke-linejoin: miter"/>
    </g>
    <g id="line2d_49">
     <path d="M 106.5 77.428125 
L 136.5 77.428125 
L 166.5 77.428125 
" style="fill: none; stroke: #ff0000; stroke-width: 1.5; stroke-linecap: square"/>
    </g>
    <g id="text_16">
     <!-- MD -->
     <g transform="translate(190.5 87.928125) scale(0.3 -0.3)">
      <defs>
       <path id="LiberationSans-4d" d="M 4269 0 
L 4269 2938 
Q 4269 3425 4297 3875 
Q 4144 3316 4022 3000 
L 2884 0 
L 2466 0 
L 1313 3000 
L 1138 3531 
L 1034 3875 
L 1044 3528 
L 1056 2938 
L 1056 0 
L 525 0 
L 525 4403 
L 1309 4403 
L 2481 1350 
Q 2544 1166 2601 955 
Q 2659 744 2678 650 
Q 2703 775 2783 1029 
Q 2863 1284 2891 1350 
L 4041 4403 
L 4806 4403 
L 4806 0 
L 4269 0 
z
" transform="scale(0.015625)"/>
       <path id="LiberationSans-44" d="M 4316 2247 
Q 4316 1566 4050 1055 
Q 3784 544 3296 272 
Q 2809 0 2172 0 
L 525 0 
L 525 4403 
L 1981 4403 
Q 3100 4403 3708 3842 
Q 4316 3281 4316 2247 
z
M 3716 2247 
Q 3716 3066 3267 3495 
Q 2819 3925 1969 3925 
L 1122 3925 
L 1122 478 
L 2103 478 
Q 2588 478 2955 690 
Q 3322 903 3519 1303 
Q 3716 1703 3716 2247 
z
" transform="scale(0.015625)"/>
      </defs>
      <use xlink:href="#LiberationSans-4d"/>
      <use xlink:href="#LiberationSans-44" x="83.300781"/>
     </g>
    </g>
    <g id="line2d_50">
     <path d="M 106.5 120.39375 
L 136.5 120.39375 
L 166.5 120.39375 
" style="fill: none; stroke: #0000ff; stroke-width: 1.5; stroke-linecap: square"/>
    </g>
    <g id="text_17">
     <!-- GANs -->
     <g transform="translate(190.5 130.89375) scale(0.3 -0.3)">
      <defs>
       <path id="LiberationSans-47" d="M 322 2222 
Q 322 3294 897 3881 
Q 1472 4469 2513 4469 
Q 3244 4469 3700 4222 
Q 4156 3975 4403 3431 
L 3834 3263 
Q 3647 3638 3317 3809 
Q 2988 3981 2497 3981 
Q 1734 3981 1331 3520 
Q 928 3059 928 2222 
Q 928 1388 1356 905 
Q 1784 422 2541 422 
Q 2972 422 3345 553 
Q 3719 684 3950 909 
L 3950 1703 
L 2634 1703 
L 2634 2203 
L 4500 2203 
L 4500 684 
Q 4150 328 3642 132 
Q 3134 -63 2541 -63 
Q 1850 -63 1350 212 
Q 850 488 586 1005 
Q 322 1522 322 2222 
z
" transform="scale(0.015625)"/>
       <path id="LiberationSans-4e" d="M 3381 0 
L 1025 3750 
L 1041 3447 
L 1056 2925 
L 1056 0 
L 525 0 
L 525 4403 
L 1219 4403 
L 3600 628 
Q 3563 1241 3563 1516 
L 3563 4403 
L 4100 4403 
L 4100 0 
L 3381 0 
z
" transform="scale(0.015625)"/>
      </defs>
      <use xlink:href="#LiberationSans-47"/>
      <use xlink:href="#LiberationSans-41" x="77.783203"/>
      <use xlink:href="#LiberationSans-4e" x="144.482422"/>
      <use xlink:href="#LiberationSans-73" x="216.699219"/>
     </g>
    </g>
   </g>
  </g>
 </g>
 <defs>
  <clipPath id="pb87acc7809">
   <rect x="79.5" y="39.1875" width="624.041988" height="601.203"/>
  </clipPath>
 </defs>
</svg>
