<?xml version="1.0" encoding="utf-8" standalone="no"?>
<!DOCTYPE svg PUBLIC "-//W3C//DTD SVG 1.1//EN"
  "http://www.w3.org/Graphics/SVG/1.1/DTD/svg11.dtd">
<svg xmlns:xlink="http://www.w3.org/1999/xlink" width="710.741988pt" height="711.02175pt" viewBox="0 0 710.741988 711.02175" xmlns="http://www.w3.org/2000/svg" version="1.1">
 <metadata>
  <rdf:RDF xmlns:dc="http://purl.org/dc/elements/1.1/" xmlns:cc="http://creativecommons.org/ns#" xmlns:rdf="http://www.w3.org/1999/02/22-rdf-syntax-ns#">
   <cc:Work>
    <dc:type rdf:resource="http://purl.org/dc/dcmitype/StillImage"/>
    <dc:date>2025-02-06T00:22:47.366582</dc:date>
    <dc:format>image/svg+xml</dc:format>
    <dc:creator>
     <cc:Agent>
      <dc:title>Matplotlib v3.9.3, https://matplotlib.org/</dc:title>
     </cc:Agent>
    </dc:creator>
   </cc:Work>
  </rdf:RDF>
 </metadata>
 <defs>
  <style type="text/css">*{stroke-linejoin: round; stroke-linecap: butt}</style>
 </defs>
 <g id="figure_1">
  <g id="patch_1">
   <path d="M 0 711.02175 
L 710.741988 711.02175 
L 710.741988 0 
L 0 0 
z
" style="fill: #ffffff"/>
  </g>
  <g id="axes_1">
   <g id="patch_2">
    <path d="M 79.5 640.3905 
L 703.541988 640.3905 
L 703.541988 39.1875 
L 79.5 39.1875 
z
" style="fill: #ffffff"/>
   </g>
   <g id="matplotlib.axis_1">
    <g id="xtick_1">
     <g id="line2d_1">
      <defs>
       <path id="m36082c0ef7" d="M 0 0 
L 0 -3.5 
" style="stroke: #000000; stroke-width: 0.8"/>
      </defs>
      <g>
       <use xlink:href="#m36082c0ef7" x="107.808808" y="640.3905" style="stroke: #000000; stroke-width: 0.8"/>
      </g>
     </g>
     <g id="text_1">
      <!-- 0 -->
      <g transform="translate(99.467402 665.631125) scale(0.3 -0.3)">
       <defs>
        <path id="LiberationSans-30" d="M 3309 2203 
Q 3309 1100 2920 518 
Q 2531 -63 1772 -63 
Q 1013 -63 631 515 
Q 250 1094 250 2203 
Q 250 3338 620 3903 
Q 991 4469 1791 4469 
Q 2569 4469 2939 3897 
Q 3309 3325 3309 2203 
z
M 2738 2203 
Q 2738 3156 2517 3584 
Q 2297 4013 1791 4013 
Q 1272 4013 1045 3591 
Q 819 3169 819 2203 
Q 819 1266 1048 831 
Q 1278 397 1778 397 
Q 2275 397 2506 840 
Q 2738 1284 2738 2203 
z
" transform="scale(0.015625)"/>
       </defs>
       <use xlink:href="#LiberationSans-30"/>
      </g>
     </g>
    </g>
    <g id="xtick_2">
     <g id="line2d_2">
      <g>
       <use xlink:href="#m36082c0ef7" x="221.282335" y="640.3905" style="stroke: #000000; stroke-width: 0.8"/>
      </g>
     </g>
     <g id="text_2">
      <!-- 2 -->
      <g transform="translate(212.940929 665.631125) scale(0.3 -0.3)">
       <defs>
        <path id="LiberationSans-32" d="M 322 0 
L 322 397 
Q 481 763 711 1042 
Q 941 1322 1194 1548 
Q 1447 1775 1695 1969 
Q 1944 2163 2144 2356 
Q 2344 2550 2467 2762 
Q 2591 2975 2591 3244 
Q 2591 3606 2378 3806 
Q 2166 4006 1788 4006 
Q 1428 4006 1195 3811 
Q 963 3616 922 3263 
L 347 3316 
Q 409 3844 795 4156 
Q 1181 4469 1788 4469 
Q 2453 4469 2811 4155 
Q 3169 3841 3169 3263 
Q 3169 3006 3051 2753 
Q 2934 2500 2703 2247 
Q 2472 1994 1819 1463 
Q 1459 1169 1246 933 
Q 1034 697 941 478 
L 3238 478 
L 3238 0 
L 322 0 
z
" transform="scale(0.015625)"/>
       </defs>
       <use xlink:href="#LiberationSans-32"/>
      </g>
     </g>
    </g>
    <g id="xtick_3">
     <g id="line2d_3">
      <g>
       <use xlink:href="#m36082c0ef7" x="334.755862" y="640.3905" style="stroke: #000000; stroke-width: 0.8"/>
      </g>
     </g>
     <g id="text_3">
      <!-- 4 -->
      <g transform="translate(326.414456 665.631125) scale(0.3 -0.3)">
       <defs>
        <path id="LiberationSans-34" d="M 2753 997 
L 2753 0 
L 2222 0 
L 2222 997 
L 147 997 
L 147 1434 
L 2163 4403 
L 2753 4403 
L 2753 1441 
L 3372 1441 
L 3372 997 
L 2753 997 
z
M 2222 3769 
Q 2216 3750 2134 3603 
Q 2053 3456 2013 3397 
L 884 1734 
L 716 1503 
L 666 1441 
L 2222 1441 
L 2222 3769 
z
" transform="scale(0.015625)"/>
       </defs>
       <use xlink:href="#LiberationSans-34"/>
      </g>
     </g>
    </g>
    <g id="xtick_4">
     <g id="line2d_4">
      <g>
       <use xlink:href="#m36082c0ef7" x="448.229389" y="640.3905" style="stroke: #000000; stroke-width: 0.8"/>
      </g>
     </g>
     <g id="text_4">
      <!-- 6 -->
      <g transform="translate(439.887983 665.631125) scale(0.3 -0.3)">
       <defs>
        <path id="LiberationSans-36" d="M 3278 1441 
Q 3278 744 2900 340 
Q 2522 -63 1856 -63 
Q 1113 -63 719 490 
Q 325 1044 325 2100 
Q 325 3244 734 3856 
Q 1144 4469 1900 4469 
Q 2897 4469 3156 3572 
L 2619 3475 
Q 2453 4013 1894 4013 
Q 1413 4013 1148 3564 
Q 884 3116 884 2266 
Q 1038 2550 1316 2698 
Q 1594 2847 1953 2847 
Q 2563 2847 2920 2465 
Q 3278 2084 3278 1441 
z
M 2706 1416 
Q 2706 1894 2472 2153 
Q 2238 2413 1819 2413 
Q 1425 2413 1183 2183 
Q 941 1953 941 1550 
Q 941 1041 1192 716 
Q 1444 391 1838 391 
Q 2244 391 2475 664 
Q 2706 938 2706 1416 
z
" transform="scale(0.015625)"/>
       </defs>
       <use xlink:href="#LiberationSans-36"/>
      </g>
     </g>
    </g>
    <g id="xtick_5">
     <g id="line2d_5">
      <g>
       <use xlink:href="#m36082c0ef7" x="561.702916" y="640.3905" style="stroke: #000000; stroke-width: 0.8"/>
      </g>
     </g>
     <g id="text_5">
      <!-- 8 -->
      <g transform="translate(553.36151 665.631125) scale(0.3 -0.3)">
       <defs>
        <path id="LiberationSans-38" d="M 3281 1228 
Q 3281 619 2893 278 
Q 2506 -63 1781 -63 
Q 1075 -63 676 271 
Q 278 606 278 1222 
Q 278 1653 525 1947 
Q 772 2241 1156 2303 
L 1156 2316 
Q 797 2400 589 2681 
Q 381 2963 381 3341 
Q 381 3844 757 4156 
Q 1134 4469 1769 4469 
Q 2419 4469 2795 4162 
Q 3172 3856 3172 3334 
Q 3172 2956 2962 2675 
Q 2753 2394 2391 2322 
L 2391 2309 
Q 2813 2241 3047 1952 
Q 3281 1663 3281 1228 
z
M 2588 3303 
Q 2588 4050 1769 4050 
Q 1372 4050 1164 3862 
Q 956 3675 956 3303 
Q 956 2925 1170 2726 
Q 1384 2528 1775 2528 
Q 2172 2528 2380 2711 
Q 2588 2894 2588 3303 
z
M 2697 1281 
Q 2697 1691 2453 1898 
Q 2209 2106 1769 2106 
Q 1341 2106 1100 1882 
Q 859 1659 859 1269 
Q 859 359 1788 359 
Q 2247 359 2472 579 
Q 2697 800 2697 1281 
z
" transform="scale(0.015625)"/>
       </defs>
       <use xlink:href="#LiberationSans-38"/>
      </g>
     </g>
    </g>
    <g id="xtick_6">
     <g id="line2d_6">
      <g>
       <use xlink:href="#m36082c0ef7" x="675.176443" y="640.3905" style="stroke: #000000; stroke-width: 0.8"/>
      </g>
     </g>
     <g id="text_6">
      <!-- 10 -->
      <g transform="translate(658.493631 665.631125) scale(0.3 -0.3)">
       <defs>
        <path id="LiberationSans-31" d="M 488 0 
L 488 478 
L 1609 478 
L 1609 3866 
L 616 3156 
L 616 3688 
L 1656 4403 
L 2175 4403 
L 2175 478 
L 3247 478 
L 3247 0 
L 488 0 
z
" transform="scale(0.015625)"/>
       </defs>
       <use xlink:href="#LiberationSans-31"/>
       <use xlink:href="#LiberationSans-30" x="55.615234"/>
      </g>
     </g>
    </g>
    <g id="xtick_7">
     <g id="line2d_7">
      <defs>
       <path id="mf6ed000349" d="M 0 0 
L 0 -2 
" style="stroke: #000000; stroke-width: 0.6"/>
      </defs>
      <g>
       <use xlink:href="#mf6ed000349" x="136.17719" y="640.3905" style="stroke: #000000; stroke-width: 0.6"/>
      </g>
     </g>
    </g>
    <g id="xtick_8">
     <g id="line2d_8">
      <g>
       <use xlink:href="#mf6ed000349" x="164.545572" y="640.3905" style="stroke: #000000; stroke-width: 0.6"/>
      </g>
     </g>
    </g>
    <g id="xtick_9">
     <g id="line2d_9">
      <g>
       <use xlink:href="#mf6ed000349" x="192.913953" y="640.3905" style="stroke: #000000; stroke-width: 0.6"/>
      </g>
     </g>
    </g>
    <g id="xtick_10">
     <g id="line2d_10">
      <g>
       <use xlink:href="#mf6ed000349" x="249.650717" y="640.3905" style="stroke: #000000; stroke-width: 0.6"/>
      </g>
     </g>
    </g>
    <g id="xtick_11">
     <g id="line2d_11">
      <g>
       <use xlink:href="#mf6ed000349" x="278.019099" y="640.3905" style="stroke: #000000; stroke-width: 0.6"/>
      </g>
     </g>
    </g>
    <g id="xtick_12">
     <g id="line2d_12">
      <g>
       <use xlink:href="#mf6ed000349" x="306.38748" y="640.3905" style="stroke: #000000; stroke-width: 0.6"/>
      </g>
     </g>
    </g>
    <g id="xtick_13">
     <g id="line2d_13">
      <g>
       <use xlink:href="#mf6ed000349" x="363.124244" y="640.3905" style="stroke: #000000; stroke-width: 0.6"/>
      </g>
     </g>
    </g>
    <g id="xtick_14">
     <g id="line2d_14">
      <g>
       <use xlink:href="#mf6ed000349" x="391.492626" y="640.3905" style="stroke: #000000; stroke-width: 0.6"/>
      </g>
     </g>
    </g>
    <g id="xtick_15">
     <g id="line2d_15">
      <g>
       <use xlink:href="#mf6ed000349" x="419.861008" y="640.3905" style="stroke: #000000; stroke-width: 0.6"/>
      </g>
     </g>
    </g>
    <g id="xtick_16">
     <g id="line2d_16">
      <g>
       <use xlink:href="#mf6ed000349" x="476.597771" y="640.3905" style="stroke: #000000; stroke-width: 0.6"/>
      </g>
     </g>
    </g>
    <g id="xtick_17">
     <g id="line2d_17">
      <g>
       <use xlink:href="#mf6ed000349" x="504.966153" y="640.3905" style="stroke: #000000; stroke-width: 0.6"/>
      </g>
     </g>
    </g>
    <g id="xtick_18">
     <g id="line2d_18">
      <g>
       <use xlink:href="#mf6ed000349" x="533.334535" y="640.3905" style="stroke: #000000; stroke-width: 0.6"/>
      </g>
     </g>
    </g>
    <g id="xtick_19">
     <g id="line2d_19">
      <g>
       <use xlink:href="#mf6ed000349" x="590.071298" y="640.3905" style="stroke: #000000; stroke-width: 0.6"/>
      </g>
     </g>
    </g>
    <g id="xtick_20">
     <g id="line2d_20">
      <g>
       <use xlink:href="#mf6ed000349" x="618.43968" y="640.3905" style="stroke: #000000; stroke-width: 0.6"/>
      </g>
     </g>
    </g>
    <g id="xtick_21">
     <g id="line2d_21">
      <g>
       <use xlink:href="#mf6ed000349" x="646.808062" y="640.3905" style="stroke: #000000; stroke-width: 0.6"/>
      </g>
     </g>
    </g>
    <g id="text_7">
     <!-- Time ps -->
     <g transform="translate(338.744432 697.59675) scale(0.3 -0.3)">
      <defs>
       <path id="LiberationSans-54" d="M 2250 3916 
L 2250 0 
L 1656 0 
L 1656 3916 
L 144 3916 
L 144 4403 
L 3763 4403 
L 3763 3916 
L 2250 3916 
z
" transform="scale(0.015625)"/>
       <path id="LiberationSans-69" d="M 428 4100 
L 428 4638 
L 991 4638 
L 991 4100 
L 428 4100 
z
M 428 0 
L 428 3381 
L 991 3381 
L 991 0 
L 428 0 
z
" transform="scale(0.015625)"/>
       <path id="LiberationSans-6d" d="M 2400 0 
L 2400 2144 
Q 2400 2634 2265 2821 
Q 2131 3009 1781 3009 
Q 1422 3009 1212 2734 
Q 1003 2459 1003 1959 
L 1003 0 
L 444 0 
L 444 2659 
Q 444 3250 425 3381 
L 956 3381 
Q 959 3366 962 3297 
Q 966 3228 970 3139 
Q 975 3050 981 2803 
L 991 2803 
Q 1172 3163 1406 3303 
Q 1641 3444 1978 3444 
Q 2363 3444 2586 3291 
Q 2809 3138 2897 2803 
L 2906 2803 
Q 3081 3144 3329 3294 
Q 3578 3444 3931 3444 
Q 4444 3444 4676 3166 
Q 4909 2888 4909 2253 
L 4909 0 
L 4353 0 
L 4353 2144 
Q 4353 2634 4218 2821 
Q 4084 3009 3734 3009 
Q 3366 3009 3161 2736 
Q 2956 2463 2956 1959 
L 2956 0 
L 2400 0 
z
" transform="scale(0.015625)"/>
       <path id="LiberationSans-65" d="M 863 1572 
Q 863 991 1103 675 
Q 1344 359 1806 359 
Q 2172 359 2392 506 
Q 2613 653 2691 878 
L 3184 738 
Q 2881 -63 1806 -63 
Q 1056 -63 664 384 
Q 272 831 272 1713 
Q 272 2550 664 2997 
Q 1056 3444 1784 3444 
Q 3275 3444 3275 1647 
L 3275 1572 
L 863 1572 
z
M 2694 2003 
Q 2647 2538 2422 2783 
Q 2197 3028 1775 3028 
Q 1366 3028 1127 2754 
Q 888 2481 869 2003 
L 2694 2003 
z
" transform="scale(0.015625)"/>
       <path id="LiberationSans-20" transform="scale(0.015625)"/>
       <path id="LiberationSans-70" d="M 3291 1706 
Q 3291 -63 2047 -63 
Q 1266 -63 997 525 
L 981 525 
Q 994 500 994 -6 
L 994 -1328 
L 431 -1328 
L 431 2691 
Q 431 3213 413 3381 
L 956 3381 
Q 959 3369 965 3292 
Q 972 3216 980 3056 
Q 988 2897 988 2838 
L 1000 2838 
Q 1150 3150 1397 3295 
Q 1644 3441 2047 3441 
Q 2672 3441 2981 3022 
Q 3291 2603 3291 1706 
z
M 2700 1694 
Q 2700 2400 2509 2703 
Q 2319 3006 1903 3006 
Q 1569 3006 1380 2865 
Q 1191 2725 1092 2426 
Q 994 2128 994 1650 
Q 994 984 1206 668 
Q 1419 353 1897 353 
Q 2316 353 2508 661 
Q 2700 969 2700 1694 
z
" transform="scale(0.015625)"/>
       <path id="LiberationSans-73" d="M 2969 934 
Q 2969 456 2608 196 
Q 2247 -63 1597 -63 
Q 966 -63 623 145 
Q 281 353 178 794 
L 675 891 
Q 747 619 972 492 
Q 1197 366 1597 366 
Q 2025 366 2223 497 
Q 2422 628 2422 891 
Q 2422 1091 2284 1216 
Q 2147 1341 1841 1422 
L 1438 1528 
Q 953 1653 748 1773 
Q 544 1894 428 2066 
Q 313 2238 313 2488 
Q 313 2950 642 3192 
Q 972 3434 1603 3434 
Q 2163 3434 2492 3237 
Q 2822 3041 2909 2606 
L 2403 2544 
Q 2356 2769 2151 2889 
Q 1947 3009 1603 3009 
Q 1222 3009 1040 2893 
Q 859 2778 859 2544 
Q 859 2400 934 2306 
Q 1009 2213 1156 2147 
Q 1303 2081 1775 1966 
Q 2222 1853 2419 1758 
Q 2616 1663 2730 1547 
Q 2844 1431 2906 1279 
Q 2969 1128 2969 934 
z
" transform="scale(0.015625)"/>
      </defs>
      <use xlink:href="#LiberationSans-54"/>
      <use xlink:href="#LiberationSans-69" x="57.333984"/>
      <use xlink:href="#LiberationSans-6d" x="79.550781"/>
      <use xlink:href="#LiberationSans-65" x="162.851562"/>
      <use xlink:href="#LiberationSans-20" x="218.466797"/>
      <use xlink:href="#LiberationSans-70" x="246.25"/>
      <use xlink:href="#LiberationSans-73" x="301.865234"/>
     </g>
    </g>
   </g>
   <g id="matplotlib.axis_2">
    <g id="ytick_1">
     <g id="line2d_22">
      <defs>
       <path id="m2ce78c294c" d="M 0 0 
L 3.5 0 
" style="stroke: #000000; stroke-width: 0.8"/>
      </defs>
      <g>
       <use xlink:href="#m2ce78c294c" x="79.5" y="572.017037" style="stroke: #000000; stroke-width: 0.8"/>
      </g>
     </g>
     <g id="text_8">
      <!-- $\mathdefault{−2}$ -->
      <g transform="translate(41.5 582.887349) scale(0.3 -0.3)">
       <defs>
        <path id="LiberationSans-2212" d="M 316 1900 
L 316 2356 
L 3425 2356 
L 3425 1900 
L 316 1900 
z
" transform="scale(0.015625)"/>
       </defs>
       <use xlink:href="#LiberationSans-2212" transform="translate(0 0.171875)"/>
       <use xlink:href="#LiberationSans-32" transform="translate(58.398438 0.171875)"/>
      </g>
     </g>
    </g>
    <g id="ytick_2">
     <g id="line2d_23">
      <g>
       <use xlink:href="#m2ce78c294c" x="79.5" y="477.516685" style="stroke: #000000; stroke-width: 0.8"/>
      </g>
     </g>
     <g id="text_9">
      <!-- $\mathdefault{0}$ -->
      <g transform="translate(59.2 488.386997) scale(0.3 -0.3)">
       <use xlink:href="#LiberationSans-30" transform="translate(0 0.171875)"/>
      </g>
     </g>
    </g>
    <g id="ytick_3">
     <g id="line2d_24">
      <g>
       <use xlink:href="#m2ce78c294c" x="79.5" y="383.016333" style="stroke: #000000; stroke-width: 0.8"/>
      </g>
     </g>
     <g id="text_10">
      <!-- $\mathdefault{2}$ -->
      <g transform="translate(59.2 393.886646) scale(0.3 -0.3)">
       <use xlink:href="#LiberationSans-32" transform="translate(0 0.171875)"/>
      </g>
     </g>
    </g>
    <g id="ytick_4">
     <g id="line2d_25">
      <g>
       <use xlink:href="#m2ce78c294c" x="79.5" y="288.515981" style="stroke: #000000; stroke-width: 0.8"/>
      </g>
     </g>
     <g id="text_11">
      <!-- $\mathdefault{4}$ -->
      <g transform="translate(59.2 299.386294) scale(0.3 -0.3)">
       <use xlink:href="#LiberationSans-34" transform="translate(0 0.203125)"/>
      </g>
     </g>
    </g>
    <g id="ytick_5">
     <g id="line2d_26">
      <g>
       <use xlink:href="#m2ce78c294c" x="79.5" y="194.01563" style="stroke: #000000; stroke-width: 0.8"/>
      </g>
     </g>
     <g id="text_12">
      <!-- $\mathdefault{6}$ -->
      <g transform="translate(59.2 204.885942) scale(0.3 -0.3)">
       <use xlink:href="#LiberationSans-36" transform="translate(0 0.171875)"/>
      </g>
     </g>
    </g>
    <g id="ytick_6">
     <g id="line2d_27">
      <g>
       <use xlink:href="#m2ce78c294c" x="79.5" y="99.515278" style="stroke: #000000; stroke-width: 0.8"/>
      </g>
     </g>
     <g id="text_13">
      <!-- $\mathdefault{8}$ -->
      <g transform="translate(59.2 110.38559) scale(0.3 -0.3)">
       <use xlink:href="#LiberationSans-38" transform="translate(0 0.171875)"/>
      </g>
     </g>
    </g>
    <g id="ytick_7">
     <g id="line2d_28">
      <defs>
       <path id="m470f0e6044" d="M 0 0 
L 2 0 
" style="stroke: #000000; stroke-width: 0.6"/>
      </defs>
      <g>
       <use xlink:href="#m470f0e6044" x="79.5" y="619.267212" style="stroke: #000000; stroke-width: 0.6"/>
      </g>
     </g>
    </g>
    <g id="ytick_8">
     <g id="line2d_29">
      <g>
       <use xlink:href="#m470f0e6044" x="79.5" y="595.642124" style="stroke: #000000; stroke-width: 0.6"/>
      </g>
     </g>
    </g>
    <g id="ytick_9">
     <g id="line2d_30">
      <g>
       <use xlink:href="#m470f0e6044" x="79.5" y="548.391949" style="stroke: #000000; stroke-width: 0.6"/>
      </g>
     </g>
    </g>
    <g id="ytick_10">
     <g id="line2d_31">
      <g>
       <use xlink:href="#m470f0e6044" x="79.5" y="524.766861" style="stroke: #000000; stroke-width: 0.6"/>
      </g>
     </g>
    </g>
    <g id="ytick_11">
     <g id="line2d_32">
      <g>
       <use xlink:href="#m470f0e6044" x="79.5" y="501.141773" style="stroke: #000000; stroke-width: 0.6"/>
      </g>
     </g>
    </g>
    <g id="ytick_12">
     <g id="line2d_33">
      <g>
       <use xlink:href="#m470f0e6044" x="79.5" y="453.891597" style="stroke: #000000; stroke-width: 0.6"/>
      </g>
     </g>
    </g>
    <g id="ytick_13">
     <g id="line2d_34">
      <g>
       <use xlink:href="#m470f0e6044" x="79.5" y="430.266509" style="stroke: #000000; stroke-width: 0.6"/>
      </g>
     </g>
    </g>
    <g id="ytick_14">
     <g id="line2d_35">
      <g>
       <use xlink:href="#m470f0e6044" x="79.5" y="406.641421" style="stroke: #000000; stroke-width: 0.6"/>
      </g>
     </g>
    </g>
    <g id="ytick_15">
     <g id="line2d_36">
      <g>
       <use xlink:href="#m470f0e6044" x="79.5" y="359.391245" style="stroke: #000000; stroke-width: 0.6"/>
      </g>
     </g>
    </g>
    <g id="ytick_16">
     <g id="line2d_37">
      <g>
       <use xlink:href="#m470f0e6044" x="79.5" y="335.766157" style="stroke: #000000; stroke-width: 0.6"/>
      </g>
     </g>
    </g>
    <g id="ytick_17">
     <g id="line2d_38">
      <g>
       <use xlink:href="#m470f0e6044" x="79.5" y="312.141069" style="stroke: #000000; stroke-width: 0.6"/>
      </g>
     </g>
    </g>
    <g id="ytick_18">
     <g id="line2d_39">
      <g>
       <use xlink:href="#m470f0e6044" x="79.5" y="264.890893" style="stroke: #000000; stroke-width: 0.6"/>
      </g>
     </g>
    </g>
    <g id="ytick_19">
     <g id="line2d_40">
      <g>
       <use xlink:href="#m470f0e6044" x="79.5" y="241.265806" style="stroke: #000000; stroke-width: 0.6"/>
      </g>
     </g>
    </g>
    <g id="ytick_20">
     <g id="line2d_41">
      <g>
       <use xlink:href="#m470f0e6044" x="79.5" y="217.640718" style="stroke: #000000; stroke-width: 0.6"/>
      </g>
     </g>
    </g>
    <g id="ytick_21">
     <g id="line2d_42">
      <g>
       <use xlink:href="#m470f0e6044" x="79.5" y="170.390542" style="stroke: #000000; stroke-width: 0.6"/>
      </g>
     </g>
    </g>
    <g id="ytick_22">
     <g id="line2d_43">
      <g>
       <use xlink:href="#m470f0e6044" x="79.5" y="146.765454" style="stroke: #000000; stroke-width: 0.6"/>
      </g>
     </g>
    </g>
    <g id="ytick_23">
     <g id="line2d_44">
      <g>
       <use xlink:href="#m470f0e6044" x="79.5" y="123.140366" style="stroke: #000000; stroke-width: 0.6"/>
      </g>
     </g>
    </g>
    <g id="ytick_24">
     <g id="line2d_45">
      <g>
       <use xlink:href="#m470f0e6044" x="79.5" y="75.89019" style="stroke: #000000; stroke-width: 0.6"/>
      </g>
     </g>
    </g>
    <g id="ytick_25">
     <g id="line2d_46">
      <g>
       <use xlink:href="#m470f0e6044" x="79.5" y="52.265102" style="stroke: #000000; stroke-width: 0.6"/>
      </g>
     </g>
    </g>
    <g id="text_14">
     <!-- ACF $(\mathrm{W} / \mathrm{m}^2)^2$ -->
     <g transform="translate(31.275 426.339) rotate(-90) scale(0.3 -0.3)">
      <defs>
       <path id="LiberationSans-41" d="M 3647 0 
L 3144 1288 
L 1138 1288 
L 631 0 
L 13 0 
L 1809 4403 
L 2488 4403 
L 4256 0 
L 3647 0 
z
M 2141 3953 
L 2113 3866 
Q 2034 3606 1881 3200 
L 1319 1753 
L 2966 1753 
L 2400 3206 
Q 2313 3422 2225 3694 
L 2141 3953 
z
" transform="scale(0.015625)"/>
       <path id="LiberationSans-43" d="M 2475 3981 
Q 1744 3981 1337 3511 
Q 931 3041 931 2222 
Q 931 1413 1354 920 
Q 1778 428 2500 428 
Q 3425 428 3891 1344 
L 4378 1100 
Q 4106 531 3614 234 
Q 3122 -63 2472 -63 
Q 1806 -63 1320 214 
Q 834 491 579 1005 
Q 325 1519 325 2222 
Q 325 3275 894 3872 
Q 1463 4469 2469 4469 
Q 3172 4469 3644 4194 
Q 4116 3919 4338 3378 
L 3772 3191 
Q 3619 3575 3280 3778 
Q 2941 3981 2475 3981 
z
" transform="scale(0.015625)"/>
       <path id="LiberationSans-46" d="M 1122 3916 
L 1122 2278 
L 3578 2278 
L 3578 1784 
L 1122 1784 
L 1122 0 
L 525 0 
L 525 4403 
L 3653 4403 
L 3653 3916 
L 1122 3916 
z
" transform="scale(0.015625)"/>
       <path id="STIXGeneral-Regular-28" d="M 1946 -1030 
L 1869 -1133 
Q 1126 -710 716 32 
Q 307 774 307 1613 
Q 307 3386 1888 4326 
L 1946 4224 
Q 1293 3667 1075 3126 
Q 858 2586 858 1632 
Q 858 685 1082 96 
Q 1306 -493 1946 -1030 
z
" transform="scale(0.015625)"/>
       <path id="STIXGeneral-Regular-57" d="M 5965 4237 
L 5965 4115 
Q 5709 4064 5616 3990 
Q 5523 3917 5434 3667 
Q 4704 1709 4128 -70 
L 4032 -70 
Q 3642 1011 3008 2637 
L 2022 -70 
L 1926 -70 
Q 1709 576 1277 1753 
Q 845 2931 698 3347 
Q 538 3808 406 3958 
Q 275 4109 32 4115 
L 32 4237 
L 1594 4237 
L 1594 4115 
Q 1357 4109 1270 4064 
Q 1184 4019 1184 3917 
Q 1184 3808 1254 3616 
L 2176 1210 
L 2842 3021 
L 2662 3501 
Q 2509 3917 2400 4013 
Q 2291 4109 2010 4115 
L 2010 4237 
L 3706 4237 
L 3706 4115 
Q 3213 4102 3213 3891 
Q 3213 3808 3322 3520 
L 4237 1190 
L 5043 3360 
Q 5152 3667 5152 3853 
Q 5152 4109 4704 4115 
L 4704 4237 
L 5965 4237 
z
" transform="scale(0.015625)"/>
       <path id="STIXGeneral-Regular-2f" d="M 1837 4326 
L 378 -90 
L -58 -90 
L 1408 4326 
L 1837 4326 
z
" transform="scale(0.015625)"/>
       <path id="STIXGeneral-Regular-6d" d="M 4960 0 
L 3565 0 
L 3565 96 
Q 3834 122 3907 208 
Q 3981 294 3981 576 
L 3981 1894 
Q 3981 2278 3869 2444 
Q 3757 2611 3488 2611 
Q 3264 2611 3107 2521 
Q 2950 2432 2803 2221 
L 2803 608 
Q 2803 301 2896 201 
Q 2989 102 3264 96 
L 3264 0 
L 1830 0 
L 1830 96 
Q 2112 115 2189 188 
Q 2266 262 2266 550 
L 2266 1901 
Q 2266 2611 1850 2611 
Q 1670 2611 1468 2531 
Q 1267 2451 1171 2336 
Q 1088 2240 1088 2227 
L 1088 448 
Q 1088 243 1177 176 
Q 1267 109 1523 96 
L 1523 0 
L 102 0 
L 102 96 
Q 371 102 460 195 
Q 550 288 550 563 
L 550 2150 
Q 550 2387 499 2480 
Q 448 2573 326 2573 
Q 230 2573 122 2547 
L 122 2656 
Q 557 2778 1011 2944 
L 1062 2925 
L 1062 2451 
L 1075 2451 
Q 1363 2752 1584 2848 
Q 1805 2944 2054 2944 
Q 2560 2944 2733 2406 
Q 3232 2944 3776 2944 
Q 4518 2944 4518 1792 
L 4518 493 
Q 4518 282 4582 202 
Q 4646 122 4794 109 
L 4960 96 
L 4960 0 
z
" transform="scale(0.015625)"/>
       <path id="STIXGeneral-Regular-32" d="M 3034 877 
L 2688 0 
L 186 0 
L 186 77 
L 1325 1286 
Q 1773 1754 1965 2144 
Q 2157 2534 2157 2950 
Q 2157 3379 1920 3616 
Q 1683 3853 1267 3853 
Q 922 3853 720 3673 
Q 518 3494 326 3021 
L 192 3053 
Q 301 3648 630 3987 
Q 960 4326 1523 4326 
Q 2054 4326 2380 4006 
Q 2707 3686 2707 3200 
Q 2707 2477 1888 1613 
L 832 486 
L 2330 486 
Q 2541 486 2665 569 
Q 2790 653 2944 915 
L 3034 877 
z
" transform="scale(0.015625)"/>
       <path id="STIXGeneral-Regular-29" d="M 186 4224 
L 262 4326 
Q 992 3891 1408 3148 
Q 1824 2406 1824 1581 
Q 1824 -166 243 -1133 
L 186 -1030 
Q 845 -486 1059 54 
Q 1274 595 1274 1562 
Q 1274 2534 1059 3120 
Q 845 3706 186 4224 
z
" transform="scale(0.015625)"/>
      </defs>
      <use xlink:href="#LiberationSans-41" transform="translate(0 0.409375)"/>
      <use xlink:href="#LiberationSans-43" transform="translate(66.699219 0.409375)"/>
      <use xlink:href="#LiberationSans-46" transform="translate(138.916016 0.409375)"/>
      <use xlink:href="#LiberationSans-20" transform="translate(200 0.409375)"/>
      <use xlink:href="#STIXGeneral-Regular-28" transform="translate(227.783203 0.409375)"/>
      <use xlink:href="#STIXGeneral-Regular-57" transform="translate(261.083191 0.409375)"/>
      <use xlink:href="#STIXGeneral-Regular-2f" transform="translate(355.483185 0.409375)"/>
      <use xlink:href="#STIXGeneral-Regular-6d" transform="translate(383.283173 0.409375)"/>
      <use xlink:href="#STIXGeneral-Regular-32" transform="translate(462.626442 35.684375) scale(0.7)"/>
      <use xlink:href="#STIXGeneral-Regular-29" transform="translate(502.035806 0.409375)"/>
      <use xlink:href="#STIXGeneral-Regular-32" transform="translate(536.879075 35.684375) scale(0.7)"/>
     </g>
    </g>
    <g id="text_15">
     <!-- $\times\mathdefault{10^{18}}\mathdefault{}$ -->
     <g transform="translate(79.5 36.1875) scale(0.4 -0.4)">
      <defs>
       <path id="STIXGeneral-Regular-d7" d="M 3821 141 
L 3526 -160 
L 2048 1312 
L 570 -160 
L 275 134 
L 1747 1613 
L 275 3091 
L 576 3386 
L 2048 1914 
L 3526 3386 
L 3821 3098 
L 2349 1613 
L 3821 141 
z
" transform="scale(0.015625)"/>
      </defs>
      <use xlink:href="#STIXGeneral-Regular-d7" transform="translate(0 0.140625)"/>
      <use xlink:href="#LiberationSans-31" transform="translate(63.999985 0.140625)"/>
      <use xlink:href="#LiberationSans-30" transform="translate(119.615219 0.140625)"/>
      <use xlink:href="#LiberationSans-31" transform="translate(176.154946 37.120312) scale(0.7)"/>
      <use xlink:href="#LiberationSans-38" transform="translate(215.08561 37.120312) scale(0.7)"/>
     </g>
    </g>
   </g>
   <g id="line2d_47">
    <path d="M 107.865545 66.514909 
L 107.979018 67.321803 
L 108.149229 71.541036 
L 108.432913 86.38232 
L 108.83007 122.250021 
L 109.397438 197.805717 
L 111.780382 547.58517 
L 112.347749 588.275447 
L 112.801643 606.006598 
L 113.142064 611.970962 
L 113.369011 613.063091 
L 113.482485 612.873607 
L 113.652695 611.791409 
L 113.936379 608.207636 
L 114.390273 599.173637 
L 115.411534 572.774798 
L 117.056901 531.901778 
L 119.383108 479.909393 
L 120.234159 465.529741 
L 120.858264 458.460544 
L 121.312158 455.420035 
L 121.652578 454.288133 
L 121.879526 454.048442 
L 122.049736 454.120389 
L 122.276683 454.526177 
L 122.617103 455.724638 
L 123.127734 458.582628 
L 123.922049 464.570194 
L 125.737625 478.550631 
L 126.588677 483.248679 
L 127.269518 485.8729 
L 127.836886 487.307682 
L 128.347517 488.054243 
L 128.744674 488.308206 
L 129.141831 488.303546 
L 129.538989 488.067162 
L 130.049619 487.466743 
L 130.673724 486.353386 
L 131.468039 484.446458 
L 132.375827 481.684102 
L 133.397089 477.821821 
L 134.702034 471.881304 
L 135.893506 466.744819 
L 136.460874 465.140004 
L 136.858031 464.573438 
L 137.141715 464.504761 
L 137.368662 464.667657 
L 137.652346 465.152072 
L 138.049503 466.34964 
L 138.560134 468.703723 
L 139.354449 473.669455 
L 140.829605 483.037558 
L 141.396972 485.343674 
L 141.850866 486.423708 
L 142.191287 486.800902 
L 142.474971 486.864951 
L 142.815391 486.695721 
L 143.269285 486.176433 
L 145.028125 483.861068 
L 145.99265 483.248813 
L 146.560018 482.740292 
L 147.013912 482.030171 
L 147.524543 480.773515 
L 148.148647 478.528869 
L 149.113172 474.001099 
L 150.134434 469.518501 
L 150.645065 468.104936 
L 151.042222 467.565031 
L 151.325906 467.501998 
L 151.60959 467.704582 
L 151.95001 468.274791 
L 152.403904 469.508233 
L 153.141482 472.277172 
L 154.786848 478.603888 
L 155.524426 480.545645 
L 156.262004 481.886991 
L 156.999582 482.788227 
L 157.680423 483.30801 
L 158.247791 483.481828 
L 158.701685 483.399813 
L 159.155579 483.07677 
L 159.66621 482.3916 
L 160.233578 481.233619 
L 161.084629 478.898143 
L 162.673258 474.453252 
L 163.297363 473.3387 
L 163.807994 472.813747 
L 164.261888 472.624933 
L 164.715782 472.657389 
L 165.28315 472.932816 
L 166.077464 473.601356 
L 167.041989 474.716203 
L 167.893041 476.035131 
L 168.800829 477.886966 
L 170.843352 482.270329 
L 171.353983 482.793387 
L 171.751141 482.914252 
L 172.148298 482.775422 
L 172.602192 482.322165 
L 173.226296 481.301638 
L 175.325557 477.4962 
L 176.006398 476.865255 
L 176.800713 476.468053 
L 178.502816 475.713868 
L 179.921235 475.003755 
L 180.488602 474.998231 
L 180.999233 475.228804 
L 181.566601 475.751569 
L 182.360915 476.826952 
L 183.722598 478.677881 
L 184.346702 479.170764 
L 184.91407 479.36365 
L 185.594911 479.346048 
L 189.339537 478.622797 
L 189.963642 478.13097 
L 190.814693 477.141406 
L 192.006165 475.789412 
L 192.516796 475.506659 
L 192.97069 475.489035 
L 193.424584 475.697314 
L 193.991952 476.224285 
L 196.091212 478.478441 
L 196.65858 478.624465 
L 197.225947 478.537919 
L 199.438681 477.946638 
L 200.232996 478.173437 
L 201.481205 478.552282 
L 202.048572 478.483191 
L 202.61594 478.190075 
L 203.353518 477.534881 
L 204.771937 476.237221 
L 205.339305 476.036783 
L 205.849936 476.089086 
L 206.417303 476.379026 
L 207.438565 477.219501 
L 208.346353 477.834424 
L 208.970458 477.995441 
L 209.594562 477.92677 
L 210.559087 477.551366 
L 211.637085 477.194783 
L 212.4314 477.180051 
L 213.509399 477.425598 
L 214.871081 477.692941 
L 217.367499 477.998517 
L 218.445497 478.543285 
L 219.636969 479.094381 
L 220.31781 479.163547 
L 220.998651 479.008069 
L 222.303597 478.397419 
L 223.154648 478.139752 
L 223.948963 478.141705 
L 225.821276 478.298327 
L 226.445381 478.056608 
L 227.182959 477.515008 
L 229.112009 475.92773 
L 229.679376 475.792018 
L 230.246744 475.889933 
L 230.870848 476.233322 
L 232.005584 477.184744 
L 233.140319 478.030178 
L 234.104844 478.459603 
L 236.657998 479.417047 
L 237.84947 479.890071 
L 238.473575 479.910642 
L 239.040942 479.705128 
L 239.665047 479.209247 
L 240.459361 478.234639 
L 242.445148 475.618449 
L 243.069252 475.212446 
L 243.63662 475.110679 
L 244.203988 475.249269 
L 244.884829 475.669325 
L 245.962827 476.652722 
L 247.608193 478.121335 
L 248.459245 478.581726 
L 249.140086 478.720497 
L 249.820927 478.63653 
L 250.615242 478.292881 
L 252.771239 477.192129 
L 253.45208 477.196104 
L 254.189658 477.452531 
L 256.175445 478.318005 
L 256.799549 478.255435 
L 257.423654 477.965606 
L 258.444915 477.191044 
L 259.40944 476.541325 
L 260.033545 476.366771 
L 260.600912 476.426373 
L 261.281753 476.739681 
L 263.891645 478.230468 
L 265.02638 478.377781 
L 266.161115 478.597508 
L 267.239114 479.066264 
L 268.373849 479.502837 
L 268.997953 479.503547 
L 269.565321 479.285865 
L 270.246162 478.762356 
L 272.799316 476.459427 
L 273.423421 476.354708 
L 274.104262 476.48497 
L 276.827627 477.309854 
L 278.019099 477.185143 
L 279.267308 477.12633 
L 280.231832 477.323681 
L 283.692775 478.306713 
L 285.167931 478.257537 
L 287.210454 477.967003 
L 293.905393 476.662261 
L 295.096865 476.639569 
L 296.06139 476.852527 
L 297.082651 477.315952 
L 300.146436 478.892483 
L 300.997488 478.9856 
L 301.848539 478.860807 
L 302.869801 478.472995 
L 304.28822 477.662353 
L 306.841375 476.155457 
L 307.749163 475.910805 
L 308.486741 475.932285 
L 309.224319 476.175073 
L 310.07537 476.708774 
L 311.380316 477.843578 
L 312.741998 478.940178 
L 313.593049 479.357692 
L 314.387364 479.514109 
L 315.295152 479.451397 
L 316.373151 479.131908 
L 317.62136 478.514415 
L 319.209989 477.446231 
L 320.685145 476.530495 
L 321.592933 476.220232 
L 322.443985 476.156575 
L 323.40851 476.309254 
L 324.826929 476.788454 
L 327.947451 477.903945 
L 329.138923 478.035438 
L 330.500605 477.936234 
L 335.32323 477.177066 
L 337.195543 476.823717 
L 338.160068 476.895858 
L 339.124593 477.200451 
L 341.961431 478.274112 
L 342.925956 478.278277 
L 344.514586 478.000427 
L 346.216688 477.796354 
L 348.713106 477.528817 
L 350.869103 477.246349 
L 351.890365 477.372458 
L 352.911627 477.730334 
L 355.691728 478.856415 
L 356.486043 478.838376 
L 357.280357 478.595633 
L 358.358356 478.012097 
L 360.173932 477.0195 
L 361.251931 476.70976 
L 362.556876 476.58729 
L 364.145506 476.656251 
L 365.223504 476.906444 
L 366.244766 477.370603 
L 368.968131 478.782751 
L 369.705709 478.826704 
L 370.500023 478.648875 
L 371.918442 478.038675 
L 373.109914 477.643123 
L 374.24465 477.52084 
L 376.51412 477.350438 
L 378.10275 476.89073 
L 379.350958 476.632911 
L 380.315483 476.661165 
L 381.733902 476.968519 
L 383.436005 477.273195 
L 386.045896 477.633557 
L 388.825998 478.293105 
L 389.620313 478.158694 
L 390.528101 477.772012 
L 392.797571 476.691177 
L 393.591886 476.619328 
L 394.442937 476.78088 
L 395.691146 477.28862 
L 396.996092 477.754403 
L 397.90388 477.84469 
L 398.925142 477.703172 
L 400.910929 477.359192 
L 401.705243 477.490238 
L 402.613031 477.883048 
L 404.485345 478.769725 
L 405.166186 478.813321 
L 405.847027 478.640513 
L 406.754815 478.159366 
L 408.400181 477.267979 
L 409.194496 477.121849 
L 409.988811 477.215375 
L 411.010072 477.584565 
L 412.768912 478.241803 
L 413.6767 478.329888 
L 414.697962 478.195488 
L 419.46385 477.040354 
L 420.428375 476.380636 
L 422.357425 474.984589 
L 422.98153 474.839199 
L 423.548897 474.928864 
L 424.173002 475.27184 
L 424.967316 476.003432 
L 427.690681 478.791556 
L 428.541732 479.243641 
L 429.392784 479.458422 
L 430.357309 479.469122 
L 431.492044 479.242968 
L 432.910463 478.708947 
L 435.463617 477.441583 
L 437.222457 476.68734 
L 438.357192 476.439571 
L 439.321717 476.459316 
L 440.286242 476.701191 
L 441.534451 477.260113 
L 444.087606 478.467798 
L 445.052131 478.642569 
L 445.903182 478.576812 
L 446.81097 478.283806 
L 448.115916 477.593839 
L 449.988229 476.623632 
L 451.009491 476.344349 
L 451.974016 476.307088 
L 452.938541 476.499067 
L 454.016539 476.958876 
L 456.683167 478.247231 
L 457.534218 478.320606 
L 458.442007 478.159202 
L 461.449055 477.397025 
L 462.640527 477.503258 
L 464.683051 477.713945 
L 466.328417 477.587084 
L 467.746836 477.55562 
L 468.768098 477.754985 
L 470.073043 478.265052 
L 471.377989 478.711671 
L 472.115567 478.736189 
L 472.796408 478.544037 
L 473.590723 478.073383 
L 476.200614 476.284429 
L 476.938192 476.177878 
L 477.789243 476.307374 
L 481.817553 477.284776 
L 483.462919 477.677983 
L 485.56218 478.200187 
L 486.696915 478.22333 
L 488.115334 478.006243 
L 490.328068 477.666713 
L 491.576277 477.729202 
L 494.923746 478.098148 
L 495.831534 477.807825 
L 497.136479 477.106774 
L 498.441425 476.473807 
L 499.292476 476.295499 
L 500.143528 476.340442 
L 501.278263 476.642436 
L 504.171838 477.484878 
L 506.668256 477.952671 
L 508.029938 477.96442 
L 510.639829 477.904365 
L 512.9093 478.024549 
L 513.930561 477.79251 
L 516.483716 477.088014 
L 517.845398 477.088686 
L 519.150344 477.015407 
L 520.171605 476.723899 
L 522.384339 475.990164 
L 523.121917 476.035993 
L 523.859495 476.316491 
L 524.767283 476.935799 
L 527.036754 478.619235 
L 527.887805 478.891427 
L 528.795593 478.938106 
L 530.497696 478.737596 
L 533.050851 478.280719 
L 536.795477 477.376453 
L 539.632315 477.18008 
L 541.107471 477.290074 
L 543.830836 477.589245 
L 545.135781 477.427659 
L 549.504512 476.683314 
L 550.469037 476.844305 
L 551.433562 477.249719 
L 554.043453 478.531346 
L 554.781031 478.530849 
L 555.575346 478.281755 
L 558.298711 477.157546 
L 559.093025 477.222502 
L 560.171024 477.567832 
L 561.532706 477.970583 
L 562.440494 477.990712 
L 563.57523 477.75709 
L 565.050385 477.481532 
L 566.01491 477.55243 
L 567.490066 477.944445 
L 568.681538 478.160159 
L 569.7028 478.109999 
L 571.518376 477.718508 
L 572.993532 477.529819 
L 575.31974 477.294731 
L 576.681422 476.849073 
L 577.929631 476.502 
L 578.723945 476.508541 
L 579.51826 476.74391 
L 580.652995 477.355941 
L 582.184888 478.154407 
L 583.149413 478.390317 
L 584.113938 478.38276 
L 585.248673 478.127656 
L 588.9933 477.057348 
L 589.901088 477.194754 
L 591.206033 477.6612 
L 592.624452 478.114316 
L 593.588977 478.193311 
L 594.780449 478.043207 
L 597.957708 477.533358 
L 599.319391 477.21177 
L 601.759071 476.521796 
L 602.553386 476.601401 
L 603.461174 476.929648 
L 605.957592 477.974904 
L 606.86538 478.041414 
L 607.943379 477.88243 
L 611.631268 477.116098 
L 615.773052 477.081173 
L 616.794314 477.263283 
L 617.929049 477.713127 
L 619.801362 478.485479 
L 620.652414 478.564128 
L 621.503465 478.419127 
L 622.808411 477.929374 
L 624.510514 477.333885 
L 625.815459 477.127421 
L 630.467874 476.841205 
L 631.94303 476.917682 
L 634.666394 477.388218 
L 636.538707 477.539076 
L 637.843653 477.450963 
L 638.978388 477.148977 
L 641.247859 476.438346 
L 641.985437 476.515594 
L 642.666278 476.810699 
L 643.574066 477.480493 
L 645.446379 478.939839 
L 646.183957 479.186646 
L 646.864798 479.178968 
L 647.659113 478.930559 
L 648.964059 478.230724 
L 651.176792 477.074371 
L 652.992369 476.37513 
L 654.127104 476.147512 
L 655.091629 476.17266 
L 656.112891 476.436256 
L 657.758257 477.15428 
L 659.29015 477.725657 
L 660.992252 478.089776 
L 663.148249 478.350862 
L 664.226248 478.24792 
L 665.24751 477.921609 
L 668.594979 476.638489 
L 669.502767 476.657485 
L 670.524029 476.912635 
L 671.828974 477.491246 
L 674.325392 478.659131 
L 675.176443 478.766324 
L 675.176443 478.766324 
" clip-path="url(#pf49500b037)" style="fill: none; stroke: #ff0000; stroke-width: 1.5; stroke-linecap: square"/>
   </g>
   <g id="patch_3">
    <path d="M 79.5 640.3905 
L 79.5 39.1875 
" style="fill: none; stroke: #000000; stroke-width: 0.8; stroke-linejoin: miter; stroke-linecap: square"/>
   </g>
   <g id="patch_4">
    <path d="M 703.541988 640.3905 
L 703.541988 39.1875 
" style="fill: none; stroke: #000000; stroke-width: 0.8; stroke-linejoin: miter; stroke-linecap: square"/>
   </g>
   <g id="patch_5">
    <path d="M 79.5 640.3905 
L 703.541988 640.3905 
" style="fill: none; stroke: #000000; stroke-width: 0.8; stroke-linejoin: miter; stroke-linecap: square"/>
   </g>
   <g id="patch_6">
    <path d="M 79.5 39.1875 
L 703.541988 39.1875 
" style="fill: none; stroke: #000000; stroke-width: 0.8; stroke-linejoin: miter; stroke-linecap: square"/>
   </g>
  </g>
 </g>
 <defs>
  <clipPath id="pf49500b037">
   <rect x="79.5" y="39.1875" width="624.041988" height="601.203"/>
  </clipPath>
 </defs>
</svg>
