<?xml version="1.0" encoding="utf-8" standalone="no"?>
<!DOCTYPE svg PUBLIC "-//W3C//DTD SVG 1.1//EN"
  "http://www.w3.org/Graphics/SVG/1.1/DTD/svg11.dtd">
<svg xmlns:xlink="http://www.w3.org/1999/xlink" width="710.741988pt" height="711.02175pt" viewBox="0 0 710.741988 711.02175" xmlns="http://www.w3.org/2000/svg" version="1.1">
 <metadata>
  <rdf:RDF xmlns:dc="http://purl.org/dc/elements/1.1/" xmlns:cc="http://creativecommons.org/ns#" xmlns:rdf="http://www.w3.org/1999/02/22-rdf-syntax-ns#">
   <cc:Work>
    <dc:type rdf:resource="http://purl.org/dc/dcmitype/StillImage"/>
    <dc:date>2025-02-02T15:19:50.689329</dc:date>
    <dc:format>image/svg+xml</dc:format>
    <dc:creator>
     <cc:Agent>
      <dc:title>Matplotlib v3.9.3, https://matplotlib.org/</dc:title>
     </cc:Agent>
    </dc:creator>
   </cc:Work>
  </rdf:RDF>
 </metadata>
 <defs>
  <style type="text/css">*{stroke-linejoin: round; stroke-linecap: butt}</style>
 </defs>
 <g id="figure_1">
  <g id="patch_1">
   <path d="M 0 711.02175 
L 710.741988 711.02175 
L 710.741988 0 
L 0 0 
z
" style="fill: #ffffff"/>
  </g>
  <g id="axes_1">
   <g id="patch_2">
    <path d="M 79.5 640.3905 
L 703.541988 640.3905 
L 703.541988 39.1875 
L 79.5 39.1875 
z
" style="fill: #ffffff"/>
   </g>
   <g id="matplotlib.axis_1">
    <g id="xtick_1">
     <g id="line2d_1">
      <defs>
       <path id="mde5375407c" d="M 0 0 
L 0 -3.5 
" style="stroke: #000000; stroke-width: 0.8"/>
      </defs>
      <g>
       <use xlink:href="#mde5375407c" x="107.808808" y="640.3905" style="stroke: #000000; stroke-width: 0.8"/>
      </g>
     </g>
     <g id="text_1">
      <!-- 0 -->
      <g transform="translate(99.467402 665.631125) scale(0.3 -0.3)">
       <defs>
        <path id="LiberationSans-30" d="M 3309 2203 
Q 3309 1100 2920 518 
Q 2531 -63 1772 -63 
Q 1013 -63 631 515 
Q 250 1094 250 2203 
Q 250 3338 620 3903 
Q 991 4469 1791 4469 
Q 2569 4469 2939 3897 
Q 3309 3325 3309 2203 
z
M 2738 2203 
Q 2738 3156 2517 3584 
Q 2297 4013 1791 4013 
Q 1272 4013 1045 3591 
Q 819 3169 819 2203 
Q 819 1266 1048 831 
Q 1278 397 1778 397 
Q 2275 397 2506 840 
Q 2738 1284 2738 2203 
z
" transform="scale(0.015625)"/>
       </defs>
       <use xlink:href="#LiberationSans-30"/>
      </g>
     </g>
    </g>
    <g id="xtick_2">
     <g id="line2d_2">
      <g>
       <use xlink:href="#mde5375407c" x="221.282335" y="640.3905" style="stroke: #000000; stroke-width: 0.8"/>
      </g>
     </g>
     <g id="text_2">
      <!-- 2 -->
      <g transform="translate(212.940929 665.631125) scale(0.3 -0.3)">
       <defs>
        <path id="LiberationSans-32" d="M 322 0 
L 322 397 
Q 481 763 711 1042 
Q 941 1322 1194 1548 
Q 1447 1775 1695 1969 
Q 1944 2163 2144 2356 
Q 2344 2550 2467 2762 
Q 2591 2975 2591 3244 
Q 2591 3606 2378 3806 
Q 2166 4006 1788 4006 
Q 1428 4006 1195 3811 
Q 963 3616 922 3263 
L 347 3316 
Q 409 3844 795 4156 
Q 1181 4469 1788 4469 
Q 2453 4469 2811 4155 
Q 3169 3841 3169 3263 
Q 3169 3006 3051 2753 
Q 2934 2500 2703 2247 
Q 2472 1994 1819 1463 
Q 1459 1169 1246 933 
Q 1034 697 941 478 
L 3238 478 
L 3238 0 
L 322 0 
z
" transform="scale(0.015625)"/>
       </defs>
       <use xlink:href="#LiberationSans-32"/>
      </g>
     </g>
    </g>
    <g id="xtick_3">
     <g id="line2d_3">
      <g>
       <use xlink:href="#mde5375407c" x="334.755862" y="640.3905" style="stroke: #000000; stroke-width: 0.8"/>
      </g>
     </g>
     <g id="text_3">
      <!-- 4 -->
      <g transform="translate(326.414456 665.631125) scale(0.3 -0.3)">
       <defs>
        <path id="LiberationSans-34" d="M 2753 997 
L 2753 0 
L 2222 0 
L 2222 997 
L 147 997 
L 147 1434 
L 2163 4403 
L 2753 4403 
L 2753 1441 
L 3372 1441 
L 3372 997 
L 2753 997 
z
M 2222 3769 
Q 2216 3750 2134 3603 
Q 2053 3456 2013 3397 
L 884 1734 
L 716 1503 
L 666 1441 
L 2222 1441 
L 2222 3769 
z
" transform="scale(0.015625)"/>
       </defs>
       <use xlink:href="#LiberationSans-34"/>
      </g>
     </g>
    </g>
    <g id="xtick_4">
     <g id="line2d_4">
      <g>
       <use xlink:href="#mde5375407c" x="448.229389" y="640.3905" style="stroke: #000000; stroke-width: 0.8"/>
      </g>
     </g>
     <g id="text_4">
      <!-- 6 -->
      <g transform="translate(439.887983 665.631125) scale(0.3 -0.3)">
       <defs>
        <path id="LiberationSans-36" d="M 3278 1441 
Q 3278 744 2900 340 
Q 2522 -63 1856 -63 
Q 1113 -63 719 490 
Q 325 1044 325 2100 
Q 325 3244 734 3856 
Q 1144 4469 1900 4469 
Q 2897 4469 3156 3572 
L 2619 3475 
Q 2453 4013 1894 4013 
Q 1413 4013 1148 3564 
Q 884 3116 884 2266 
Q 1038 2550 1316 2698 
Q 1594 2847 1953 2847 
Q 2563 2847 2920 2465 
Q 3278 2084 3278 1441 
z
M 2706 1416 
Q 2706 1894 2472 2153 
Q 2238 2413 1819 2413 
Q 1425 2413 1183 2183 
Q 941 1953 941 1550 
Q 941 1041 1192 716 
Q 1444 391 1838 391 
Q 2244 391 2475 664 
Q 2706 938 2706 1416 
z
" transform="scale(0.015625)"/>
       </defs>
       <use xlink:href="#LiberationSans-36"/>
      </g>
     </g>
    </g>
    <g id="xtick_5">
     <g id="line2d_5">
      <g>
       <use xlink:href="#mde5375407c" x="561.702916" y="640.3905" style="stroke: #000000; stroke-width: 0.8"/>
      </g>
     </g>
     <g id="text_5">
      <!-- 8 -->
      <g transform="translate(553.36151 665.631125) scale(0.3 -0.3)">
       <defs>
        <path id="LiberationSans-38" d="M 3281 1228 
Q 3281 619 2893 278 
Q 2506 -63 1781 -63 
Q 1075 -63 676 271 
Q 278 606 278 1222 
Q 278 1653 525 1947 
Q 772 2241 1156 2303 
L 1156 2316 
Q 797 2400 589 2681 
Q 381 2963 381 3341 
Q 381 3844 757 4156 
Q 1134 4469 1769 4469 
Q 2419 4469 2795 4162 
Q 3172 3856 3172 3334 
Q 3172 2956 2962 2675 
Q 2753 2394 2391 2322 
L 2391 2309 
Q 2813 2241 3047 1952 
Q 3281 1663 3281 1228 
z
M 2588 3303 
Q 2588 4050 1769 4050 
Q 1372 4050 1164 3862 
Q 956 3675 956 3303 
Q 956 2925 1170 2726 
Q 1384 2528 1775 2528 
Q 2172 2528 2380 2711 
Q 2588 2894 2588 3303 
z
M 2697 1281 
Q 2697 1691 2453 1898 
Q 2209 2106 1769 2106 
Q 1341 2106 1100 1882 
Q 859 1659 859 1269 
Q 859 359 1788 359 
Q 2247 359 2472 579 
Q 2697 800 2697 1281 
z
" transform="scale(0.015625)"/>
       </defs>
       <use xlink:href="#LiberationSans-38"/>
      </g>
     </g>
    </g>
    <g id="xtick_6">
     <g id="line2d_6">
      <g>
       <use xlink:href="#mde5375407c" x="675.176443" y="640.3905" style="stroke: #000000; stroke-width: 0.8"/>
      </g>
     </g>
     <g id="text_6">
      <!-- 10 -->
      <g transform="translate(658.493631 665.631125) scale(0.3 -0.3)">
       <defs>
        <path id="LiberationSans-31" d="M 488 0 
L 488 478 
L 1609 478 
L 1609 3866 
L 616 3156 
L 616 3688 
L 1656 4403 
L 2175 4403 
L 2175 478 
L 3247 478 
L 3247 0 
L 488 0 
z
" transform="scale(0.015625)"/>
       </defs>
       <use xlink:href="#LiberationSans-31"/>
       <use xlink:href="#LiberationSans-30" x="55.615234"/>
      </g>
     </g>
    </g>
    <g id="xtick_7">
     <g id="line2d_7">
      <defs>
       <path id="m8052667175" d="M 0 0 
L 0 -2 
" style="stroke: #000000; stroke-width: 0.6"/>
      </defs>
      <g>
       <use xlink:href="#m8052667175" x="136.17719" y="640.3905" style="stroke: #000000; stroke-width: 0.6"/>
      </g>
     </g>
    </g>
    <g id="xtick_8">
     <g id="line2d_8">
      <g>
       <use xlink:href="#m8052667175" x="164.545572" y="640.3905" style="stroke: #000000; stroke-width: 0.6"/>
      </g>
     </g>
    </g>
    <g id="xtick_9">
     <g id="line2d_9">
      <g>
       <use xlink:href="#m8052667175" x="192.913953" y="640.3905" style="stroke: #000000; stroke-width: 0.6"/>
      </g>
     </g>
    </g>
    <g id="xtick_10">
     <g id="line2d_10">
      <g>
       <use xlink:href="#m8052667175" x="249.650717" y="640.3905" style="stroke: #000000; stroke-width: 0.6"/>
      </g>
     </g>
    </g>
    <g id="xtick_11">
     <g id="line2d_11">
      <g>
       <use xlink:href="#m8052667175" x="278.019099" y="640.3905" style="stroke: #000000; stroke-width: 0.6"/>
      </g>
     </g>
    </g>
    <g id="xtick_12">
     <g id="line2d_12">
      <g>
       <use xlink:href="#m8052667175" x="306.38748" y="640.3905" style="stroke: #000000; stroke-width: 0.6"/>
      </g>
     </g>
    </g>
    <g id="xtick_13">
     <g id="line2d_13">
      <g>
       <use xlink:href="#m8052667175" x="363.124244" y="640.3905" style="stroke: #000000; stroke-width: 0.6"/>
      </g>
     </g>
    </g>
    <g id="xtick_14">
     <g id="line2d_14">
      <g>
       <use xlink:href="#m8052667175" x="391.492626" y="640.3905" style="stroke: #000000; stroke-width: 0.6"/>
      </g>
     </g>
    </g>
    <g id="xtick_15">
     <g id="line2d_15">
      <g>
       <use xlink:href="#m8052667175" x="419.861008" y="640.3905" style="stroke: #000000; stroke-width: 0.6"/>
      </g>
     </g>
    </g>
    <g id="xtick_16">
     <g id="line2d_16">
      <g>
       <use xlink:href="#m8052667175" x="476.597771" y="640.3905" style="stroke: #000000; stroke-width: 0.6"/>
      </g>
     </g>
    </g>
    <g id="xtick_17">
     <g id="line2d_17">
      <g>
       <use xlink:href="#m8052667175" x="504.966153" y="640.3905" style="stroke: #000000; stroke-width: 0.6"/>
      </g>
     </g>
    </g>
    <g id="xtick_18">
     <g id="line2d_18">
      <g>
       <use xlink:href="#m8052667175" x="533.334535" y="640.3905" style="stroke: #000000; stroke-width: 0.6"/>
      </g>
     </g>
    </g>
    <g id="xtick_19">
     <g id="line2d_19">
      <g>
       <use xlink:href="#m8052667175" x="590.071298" y="640.3905" style="stroke: #000000; stroke-width: 0.6"/>
      </g>
     </g>
    </g>
    <g id="xtick_20">
     <g id="line2d_20">
      <g>
       <use xlink:href="#m8052667175" x="618.43968" y="640.3905" style="stroke: #000000; stroke-width: 0.6"/>
      </g>
     </g>
    </g>
    <g id="xtick_21">
     <g id="line2d_21">
      <g>
       <use xlink:href="#m8052667175" x="646.808062" y="640.3905" style="stroke: #000000; stroke-width: 0.6"/>
      </g>
     </g>
    </g>
    <g id="text_7">
     <!-- Time ps -->
     <g transform="translate(338.744432 697.59675) scale(0.3 -0.3)">
      <defs>
       <path id="LiberationSans-54" d="M 2250 3916 
L 2250 0 
L 1656 0 
L 1656 3916 
L 144 3916 
L 144 4403 
L 3763 4403 
L 3763 3916 
L 2250 3916 
z
" transform="scale(0.015625)"/>
       <path id="LiberationSans-69" d="M 428 4100 
L 428 4638 
L 991 4638 
L 991 4100 
L 428 4100 
z
M 428 0 
L 428 3381 
L 991 3381 
L 991 0 
L 428 0 
z
" transform="scale(0.015625)"/>
       <path id="LiberationSans-6d" d="M 2400 0 
L 2400 2144 
Q 2400 2634 2265 2821 
Q 2131 3009 1781 3009 
Q 1422 3009 1212 2734 
Q 1003 2459 1003 1959 
L 1003 0 
L 444 0 
L 444 2659 
Q 444 3250 425 3381 
L 956 3381 
Q 959 3366 962 3297 
Q 966 3228 970 3139 
Q 975 3050 981 2803 
L 991 2803 
Q 1172 3163 1406 3303 
Q 1641 3444 1978 3444 
Q 2363 3444 2586 3291 
Q 2809 3138 2897 2803 
L 2906 2803 
Q 3081 3144 3329 3294 
Q 3578 3444 3931 3444 
Q 4444 3444 4676 3166 
Q 4909 2888 4909 2253 
L 4909 0 
L 4353 0 
L 4353 2144 
Q 4353 2634 4218 2821 
Q 4084 3009 3734 3009 
Q 3366 3009 3161 2736 
Q 2956 2463 2956 1959 
L 2956 0 
L 2400 0 
z
" transform="scale(0.015625)"/>
       <path id="LiberationSans-65" d="M 863 1572 
Q 863 991 1103 675 
Q 1344 359 1806 359 
Q 2172 359 2392 506 
Q 2613 653 2691 878 
L 3184 738 
Q 2881 -63 1806 -63 
Q 1056 -63 664 384 
Q 272 831 272 1713 
Q 272 2550 664 2997 
Q 1056 3444 1784 3444 
Q 3275 3444 3275 1647 
L 3275 1572 
L 863 1572 
z
M 2694 2003 
Q 2647 2538 2422 2783 
Q 2197 3028 1775 3028 
Q 1366 3028 1127 2754 
Q 888 2481 869 2003 
L 2694 2003 
z
" transform="scale(0.015625)"/>
       <path id="LiberationSans-20" transform="scale(0.015625)"/>
       <path id="LiberationSans-70" d="M 3291 1706 
Q 3291 -63 2047 -63 
Q 1266 -63 997 525 
L 981 525 
Q 994 500 994 -6 
L 994 -1328 
L 431 -1328 
L 431 2691 
Q 431 3213 413 3381 
L 956 3381 
Q 959 3369 965 3292 
Q 972 3216 980 3056 
Q 988 2897 988 2838 
L 1000 2838 
Q 1150 3150 1397 3295 
Q 1644 3441 2047 3441 
Q 2672 3441 2981 3022 
Q 3291 2603 3291 1706 
z
M 2700 1694 
Q 2700 2400 2509 2703 
Q 2319 3006 1903 3006 
Q 1569 3006 1380 2865 
Q 1191 2725 1092 2426 
Q 994 2128 994 1650 
Q 994 984 1206 668 
Q 1419 353 1897 353 
Q 2316 353 2508 661 
Q 2700 969 2700 1694 
z
" transform="scale(0.015625)"/>
       <path id="LiberationSans-73" d="M 2969 934 
Q 2969 456 2608 196 
Q 2247 -63 1597 -63 
Q 966 -63 623 145 
Q 281 353 178 794 
L 675 891 
Q 747 619 972 492 
Q 1197 366 1597 366 
Q 2025 366 2223 497 
Q 2422 628 2422 891 
Q 2422 1091 2284 1216 
Q 2147 1341 1841 1422 
L 1438 1528 
Q 953 1653 748 1773 
Q 544 1894 428 2066 
Q 313 2238 313 2488 
Q 313 2950 642 3192 
Q 972 3434 1603 3434 
Q 2163 3434 2492 3237 
Q 2822 3041 2909 2606 
L 2403 2544 
Q 2356 2769 2151 2889 
Q 1947 3009 1603 3009 
Q 1222 3009 1040 2893 
Q 859 2778 859 2544 
Q 859 2400 934 2306 
Q 1009 2213 1156 2147 
Q 1303 2081 1775 1966 
Q 2222 1853 2419 1758 
Q 2616 1663 2730 1547 
Q 2844 1431 2906 1279 
Q 2969 1128 2969 934 
z
" transform="scale(0.015625)"/>
      </defs>
      <use xlink:href="#LiberationSans-54"/>
      <use xlink:href="#LiberationSans-69" x="57.333984"/>
      <use xlink:href="#LiberationSans-6d" x="79.550781"/>
      <use xlink:href="#LiberationSans-65" x="162.851562"/>
      <use xlink:href="#LiberationSans-20" x="218.466797"/>
      <use xlink:href="#LiberationSans-70" x="246.25"/>
      <use xlink:href="#LiberationSans-73" x="301.865234"/>
     </g>
    </g>
   </g>
   <g id="matplotlib.axis_2">
    <g id="ytick_1">
     <g id="line2d_22">
      <defs>
       <path id="mde9b464b32" d="M 0 0 
L 3.5 0 
" style="stroke: #000000; stroke-width: 0.8"/>
      </defs>
      <g>
       <use xlink:href="#mde9b464b32" x="79.5" y="592.844859" style="stroke: #000000; stroke-width: 0.8"/>
      </g>
     </g>
     <g id="text_8">
      <!-- $\mathdefault{−2}$ -->
      <g transform="translate(41.5 603.715172) scale(0.3 -0.3)">
       <defs>
        <path id="LiberationSans-2212" d="M 316 1900 
L 316 2356 
L 3425 2356 
L 3425 1900 
L 316 1900 
z
" transform="scale(0.015625)"/>
       </defs>
       <use xlink:href="#LiberationSans-2212" transform="translate(0 0.171875)"/>
       <use xlink:href="#LiberationSans-32" transform="translate(58.398438 0.171875)"/>
      </g>
     </g>
    </g>
    <g id="ytick_2">
     <g id="line2d_23">
      <g>
       <use xlink:href="#mde9b464b32" x="79.5" y="495.76581" style="stroke: #000000; stroke-width: 0.8"/>
      </g>
     </g>
     <g id="text_9">
      <!-- $\mathdefault{0}$ -->
      <g transform="translate(59.2 506.636122) scale(0.3 -0.3)">
       <use xlink:href="#LiberationSans-30" transform="translate(0 0.171875)"/>
      </g>
     </g>
    </g>
    <g id="ytick_3">
     <g id="line2d_24">
      <g>
       <use xlink:href="#mde9b464b32" x="79.5" y="398.68676" style="stroke: #000000; stroke-width: 0.8"/>
      </g>
     </g>
     <g id="text_10">
      <!-- $\mathdefault{2}$ -->
      <g transform="translate(59.2 409.557073) scale(0.3 -0.3)">
       <use xlink:href="#LiberationSans-32" transform="translate(0 0.171875)"/>
      </g>
     </g>
    </g>
    <g id="ytick_4">
     <g id="line2d_25">
      <g>
       <use xlink:href="#mde9b464b32" x="79.5" y="301.607711" style="stroke: #000000; stroke-width: 0.8"/>
      </g>
     </g>
     <g id="text_11">
      <!-- $\mathdefault{4}$ -->
      <g transform="translate(59.2 312.478023) scale(0.3 -0.3)">
       <use xlink:href="#LiberationSans-34" transform="translate(0 0.203125)"/>
      </g>
     </g>
    </g>
    <g id="ytick_5">
     <g id="line2d_26">
      <g>
       <use xlink:href="#mde9b464b32" x="79.5" y="204.528661" style="stroke: #000000; stroke-width: 0.8"/>
      </g>
     </g>
     <g id="text_12">
      <!-- $\mathdefault{6}$ -->
      <g transform="translate(59.2 215.398974) scale(0.3 -0.3)">
       <use xlink:href="#LiberationSans-36" transform="translate(0 0.171875)"/>
      </g>
     </g>
    </g>
    <g id="ytick_6">
     <g id="line2d_27">
      <g>
       <use xlink:href="#mde9b464b32" x="79.5" y="107.449612" style="stroke: #000000; stroke-width: 0.8"/>
      </g>
     </g>
     <g id="text_13">
      <!-- $\mathdefault{8}$ -->
      <g transform="translate(59.2 118.319924) scale(0.3 -0.3)">
       <use xlink:href="#LiberationSans-38" transform="translate(0 0.171875)"/>
      </g>
     </g>
    </g>
    <g id="ytick_7">
     <g id="line2d_28">
      <defs>
       <path id="mbd9083c099" d="M 0 0 
L 2 0 
" style="stroke: #000000; stroke-width: 0.6"/>
      </defs>
      <g>
       <use xlink:href="#mbd9083c099" x="79.5" y="617.114621" style="stroke: #000000; stroke-width: 0.6"/>
      </g>
     </g>
    </g>
    <g id="ytick_8">
     <g id="line2d_29">
      <g>
       <use xlink:href="#mbd9083c099" x="79.5" y="568.575097" style="stroke: #000000; stroke-width: 0.6"/>
      </g>
     </g>
    </g>
    <g id="ytick_9">
     <g id="line2d_30">
      <g>
       <use xlink:href="#mbd9083c099" x="79.5" y="544.305334" style="stroke: #000000; stroke-width: 0.6"/>
      </g>
     </g>
    </g>
    <g id="ytick_10">
     <g id="line2d_31">
      <g>
       <use xlink:href="#mbd9083c099" x="79.5" y="520.035572" style="stroke: #000000; stroke-width: 0.6"/>
      </g>
     </g>
    </g>
    <g id="ytick_11">
     <g id="line2d_32">
      <g>
       <use xlink:href="#mbd9083c099" x="79.5" y="471.496047" style="stroke: #000000; stroke-width: 0.6"/>
      </g>
     </g>
    </g>
    <g id="ytick_12">
     <g id="line2d_33">
      <g>
       <use xlink:href="#mbd9083c099" x="79.5" y="447.226285" style="stroke: #000000; stroke-width: 0.6"/>
      </g>
     </g>
    </g>
    <g id="ytick_13">
     <g id="line2d_34">
      <g>
       <use xlink:href="#mbd9083c099" x="79.5" y="422.956522" style="stroke: #000000; stroke-width: 0.6"/>
      </g>
     </g>
    </g>
    <g id="ytick_14">
     <g id="line2d_35">
      <g>
       <use xlink:href="#mbd9083c099" x="79.5" y="374.416998" style="stroke: #000000; stroke-width: 0.6"/>
      </g>
     </g>
    </g>
    <g id="ytick_15">
     <g id="line2d_36">
      <g>
       <use xlink:href="#mbd9083c099" x="79.5" y="350.147235" style="stroke: #000000; stroke-width: 0.6"/>
      </g>
     </g>
    </g>
    <g id="ytick_16">
     <g id="line2d_37">
      <g>
       <use xlink:href="#mbd9083c099" x="79.5" y="325.877473" style="stroke: #000000; stroke-width: 0.6"/>
      </g>
     </g>
    </g>
    <g id="ytick_17">
     <g id="line2d_38">
      <g>
       <use xlink:href="#mbd9083c099" x="79.5" y="277.337948" style="stroke: #000000; stroke-width: 0.6"/>
      </g>
     </g>
    </g>
    <g id="ytick_18">
     <g id="line2d_39">
      <g>
       <use xlink:href="#mbd9083c099" x="79.5" y="253.068186" style="stroke: #000000; stroke-width: 0.6"/>
      </g>
     </g>
    </g>
    <g id="ytick_19">
     <g id="line2d_40">
      <g>
       <use xlink:href="#mbd9083c099" x="79.5" y="228.798423" style="stroke: #000000; stroke-width: 0.6"/>
      </g>
     </g>
    </g>
    <g id="ytick_20">
     <g id="line2d_41">
      <g>
       <use xlink:href="#mbd9083c099" x="79.5" y="180.258899" style="stroke: #000000; stroke-width: 0.6"/>
      </g>
     </g>
    </g>
    <g id="ytick_21">
     <g id="line2d_42">
      <g>
       <use xlink:href="#mbd9083c099" x="79.5" y="155.989136" style="stroke: #000000; stroke-width: 0.6"/>
      </g>
     </g>
    </g>
    <g id="ytick_22">
     <g id="line2d_43">
      <g>
       <use xlink:href="#mbd9083c099" x="79.5" y="131.719374" style="stroke: #000000; stroke-width: 0.6"/>
      </g>
     </g>
    </g>
    <g id="ytick_23">
     <g id="line2d_44">
      <g>
       <use xlink:href="#mbd9083c099" x="79.5" y="83.179849" style="stroke: #000000; stroke-width: 0.6"/>
      </g>
     </g>
    </g>
    <g id="ytick_24">
     <g id="line2d_45">
      <g>
       <use xlink:href="#mbd9083c099" x="79.5" y="58.910087" style="stroke: #000000; stroke-width: 0.6"/>
      </g>
     </g>
    </g>
    <g id="text_14">
     <!-- HFACF $(\mathrm{W} / \mathrm{m}^2)^2$ -->
     <g transform="translate(31.275 446.289) rotate(-90) scale(0.3 -0.3)">
      <defs>
       <path id="LiberationSans-48" d="M 3503 0 
L 3503 2041 
L 1122 2041 
L 1122 0 
L 525 0 
L 525 4403 
L 1122 4403 
L 1122 2541 
L 3503 2541 
L 3503 4403 
L 4100 4403 
L 4100 0 
L 3503 0 
z
" transform="scale(0.015625)"/>
       <path id="LiberationSans-46" d="M 1122 3916 
L 1122 2278 
L 3578 2278 
L 3578 1784 
L 1122 1784 
L 1122 0 
L 525 0 
L 525 4403 
L 3653 4403 
L 3653 3916 
L 1122 3916 
z
" transform="scale(0.015625)"/>
       <path id="LiberationSans-41" d="M 3647 0 
L 3144 1288 
L 1138 1288 
L 631 0 
L 13 0 
L 1809 4403 
L 2488 4403 
L 4256 0 
L 3647 0 
z
M 2141 3953 
L 2113 3866 
Q 2034 3606 1881 3200 
L 1319 1753 
L 2966 1753 
L 2400 3206 
Q 2313 3422 2225 3694 
L 2141 3953 
z
" transform="scale(0.015625)"/>
       <path id="LiberationSans-43" d="M 2475 3981 
Q 1744 3981 1337 3511 
Q 931 3041 931 2222 
Q 931 1413 1354 920 
Q 1778 428 2500 428 
Q 3425 428 3891 1344 
L 4378 1100 
Q 4106 531 3614 234 
Q 3122 -63 2472 -63 
Q 1806 -63 1320 214 
Q 834 491 579 1005 
Q 325 1519 325 2222 
Q 325 3275 894 3872 
Q 1463 4469 2469 4469 
Q 3172 4469 3644 4194 
Q 4116 3919 4338 3378 
L 3772 3191 
Q 3619 3575 3280 3778 
Q 2941 3981 2475 3981 
z
" transform="scale(0.015625)"/>
       <path id="STIXGeneral-Regular-28" d="M 1946 -1030 
L 1869 -1133 
Q 1126 -710 716 32 
Q 307 774 307 1613 
Q 307 3386 1888 4326 
L 1946 4224 
Q 1293 3667 1075 3126 
Q 858 2586 858 1632 
Q 858 685 1082 96 
Q 1306 -493 1946 -1030 
z
" transform="scale(0.015625)"/>
       <path id="STIXGeneral-Regular-57" d="M 5965 4237 
L 5965 4115 
Q 5709 4064 5616 3990 
Q 5523 3917 5434 3667 
Q 4704 1709 4128 -70 
L 4032 -70 
Q 3642 1011 3008 2637 
L 2022 -70 
L 1926 -70 
Q 1709 576 1277 1753 
Q 845 2931 698 3347 
Q 538 3808 406 3958 
Q 275 4109 32 4115 
L 32 4237 
L 1594 4237 
L 1594 4115 
Q 1357 4109 1270 4064 
Q 1184 4019 1184 3917 
Q 1184 3808 1254 3616 
L 2176 1210 
L 2842 3021 
L 2662 3501 
Q 2509 3917 2400 4013 
Q 2291 4109 2010 4115 
L 2010 4237 
L 3706 4237 
L 3706 4115 
Q 3213 4102 3213 3891 
Q 3213 3808 3322 3520 
L 4237 1190 
L 5043 3360 
Q 5152 3667 5152 3853 
Q 5152 4109 4704 4115 
L 4704 4237 
L 5965 4237 
z
" transform="scale(0.015625)"/>
       <path id="STIXGeneral-Regular-2f" d="M 1837 4326 
L 378 -90 
L -58 -90 
L 1408 4326 
L 1837 4326 
z
" transform="scale(0.015625)"/>
       <path id="STIXGeneral-Regular-6d" d="M 4960 0 
L 3565 0 
L 3565 96 
Q 3834 122 3907 208 
Q 3981 294 3981 576 
L 3981 1894 
Q 3981 2278 3869 2444 
Q 3757 2611 3488 2611 
Q 3264 2611 3107 2521 
Q 2950 2432 2803 2221 
L 2803 608 
Q 2803 301 2896 201 
Q 2989 102 3264 96 
L 3264 0 
L 1830 0 
L 1830 96 
Q 2112 115 2189 188 
Q 2266 262 2266 550 
L 2266 1901 
Q 2266 2611 1850 2611 
Q 1670 2611 1468 2531 
Q 1267 2451 1171 2336 
Q 1088 2240 1088 2227 
L 1088 448 
Q 1088 243 1177 176 
Q 1267 109 1523 96 
L 1523 0 
L 102 0 
L 102 96 
Q 371 102 460 195 
Q 550 288 550 563 
L 550 2150 
Q 550 2387 499 2480 
Q 448 2573 326 2573 
Q 230 2573 122 2547 
L 122 2656 
Q 557 2778 1011 2944 
L 1062 2925 
L 1062 2451 
L 1075 2451 
Q 1363 2752 1584 2848 
Q 1805 2944 2054 2944 
Q 2560 2944 2733 2406 
Q 3232 2944 3776 2944 
Q 4518 2944 4518 1792 
L 4518 493 
Q 4518 282 4582 202 
Q 4646 122 4794 109 
L 4960 96 
L 4960 0 
z
" transform="scale(0.015625)"/>
       <path id="STIXGeneral-Regular-32" d="M 3034 877 
L 2688 0 
L 186 0 
L 186 77 
L 1325 1286 
Q 1773 1754 1965 2144 
Q 2157 2534 2157 2950 
Q 2157 3379 1920 3616 
Q 1683 3853 1267 3853 
Q 922 3853 720 3673 
Q 518 3494 326 3021 
L 192 3053 
Q 301 3648 630 3987 
Q 960 4326 1523 4326 
Q 2054 4326 2380 4006 
Q 2707 3686 2707 3200 
Q 2707 2477 1888 1613 
L 832 486 
L 2330 486 
Q 2541 486 2665 569 
Q 2790 653 2944 915 
L 3034 877 
z
" transform="scale(0.015625)"/>
       <path id="STIXGeneral-Regular-29" d="M 186 4224 
L 262 4326 
Q 992 3891 1408 3148 
Q 1824 2406 1824 1581 
Q 1824 -166 243 -1133 
L 186 -1030 
Q 845 -486 1059 54 
Q 1274 595 1274 1562 
Q 1274 2534 1059 3120 
Q 845 3706 186 4224 
z
" transform="scale(0.015625)"/>
      </defs>
      <use xlink:href="#LiberationSans-48" transform="translate(0 0.409375)"/>
      <use xlink:href="#LiberationSans-46" transform="translate(72.216797 0.409375)"/>
      <use xlink:href="#LiberationSans-41" transform="translate(133.300781 0.409375)"/>
      <use xlink:href="#LiberationSans-43" transform="translate(200 0.409375)"/>
      <use xlink:href="#LiberationSans-46" transform="translate(272.216797 0.409375)"/>
      <use xlink:href="#LiberationSans-20" transform="translate(333.300781 0.409375)"/>
      <use xlink:href="#STIXGeneral-Regular-28" transform="translate(361.083984 0.409375)"/>
      <use xlink:href="#STIXGeneral-Regular-57" transform="translate(394.383972 0.409375)"/>
      <use xlink:href="#STIXGeneral-Regular-2f" transform="translate(488.783966 0.409375)"/>
      <use xlink:href="#STIXGeneral-Regular-6d" transform="translate(516.583954 0.409375)"/>
      <use xlink:href="#STIXGeneral-Regular-32" transform="translate(595.927223 35.684375) scale(0.7)"/>
      <use xlink:href="#STIXGeneral-Regular-29" transform="translate(635.336587 0.409375)"/>
      <use xlink:href="#STIXGeneral-Regular-32" transform="translate(670.179856 35.684375) scale(0.7)"/>
     </g>
    </g>
    <g id="text_15">
     <!-- $\times\mathdefault{10^{18}}\mathdefault{}$ -->
     <g transform="translate(79.5 36.1875) scale(0.4 -0.4)">
      <defs>
       <path id="STIXGeneral-Regular-d7" d="M 3821 141 
L 3526 -160 
L 2048 1312 
L 570 -160 
L 275 134 
L 1747 1613 
L 275 3091 
L 576 3386 
L 2048 1914 
L 3526 3386 
L 3821 3098 
L 2349 1613 
L 3821 141 
z
" transform="scale(0.015625)"/>
      </defs>
      <use xlink:href="#STIXGeneral-Regular-d7" transform="translate(0 0.140625)"/>
      <use xlink:href="#LiberationSans-31" transform="translate(63.999985 0.140625)"/>
      <use xlink:href="#LiberationSans-30" transform="translate(119.615219 0.140625)"/>
      <use xlink:href="#LiberationSans-31" transform="translate(176.154946 37.120312) scale(0.7)"/>
      <use xlink:href="#LiberationSans-38" transform="translate(215.08561 37.120312) scale(0.7)"/>
     </g>
    </g>
   </g>
   <g id="line2d_46">
    <path d="M 107.865545 66.514909 
L 108.149229 78.881598 
L 108.489649 103.543399 
L 108.943543 155.723276 
L 109.681121 271.138285 
L 111.09954 493.860101 
L 111.723645 558.502285 
L 112.234276 591.550663 
L 112.631433 606.063195 
L 112.971854 611.946101 
L 113.198801 613.063091 
L 113.255537 613.05984 
L 113.425748 612.386419 
L 113.652695 610.265355 
L 114.049852 603.932216 
L 114.78743 587.327279 
L 116.54627 547.356359 
L 117.567531 529.741143 
L 118.532056 516.496638 
L 119.666792 503.850374 
L 120.631317 495.335633 
L 121.425631 490.197227 
L 121.992999 487.799537 
L 122.446893 486.679847 
L 122.787314 486.29384 
L 123.070998 486.214368 
L 123.411418 486.40903 
L 123.808575 486.92845 
L 124.546153 488.462265 
L 125.737625 491.423487 
L 128.404253 498.245577 
L 129.085094 499.435848 
L 129.595725 499.947009 
L 130.049619 500.03705 
L 130.446777 499.838134 
L 130.787197 499.46654 
L 131.241091 498.730594 
L 132.943194 495.037006 
L 133.794246 493.397224 
L 134.702034 492.00561 
L 135.212665 491.462824 
L 135.723296 491.214801 
L 136.120453 491.256958 
L 137.198452 491.869773 
L 137.822556 492.803903 
L 139.240975 495.678619 
L 140.148763 497.272483 
L 140.829605 498.007672 
L 141.340235 498.234103 
L 141.79413 498.186141 
L 142.361497 497.819539 
L 142.928865 497.196793 
L 143.836653 495.952568 
L 144.744441 494.810596 
L 145.425282 494.25002 
L 145.99265 494.050731 
L 146.503281 494.107172 
L 147.013912 494.330429 
L 147.75149 494.902052 
L 149.340119 496.270416 
L 150.077697 496.575702 
L 150.701801 496.582472 
L 151.269169 496.417325 
L 152.857798 495.538901 
L 153.992534 495.1042 
L 154.843585 495.103626 
L 155.46769 495.320337 
L 156.091794 495.735083 
L 157.056319 496.689483 
L 158.418001 498.108392 
L 159.098842 498.451495 
L 159.552736 498.438114 
L 160.063367 498.168574 
L 160.687472 497.500225 
L 161.42505 496.313757 
L 163.864731 492.164698 
L 164.375361 491.780933 
L 164.772519 491.714042 
L 165.169676 491.88485 
L 165.62357 492.303405 
L 166.190938 493.099259 
L 167.55262 495.695614 
L 168.517145 497.365818 
L 169.197986 498.111647 
L 169.708617 498.363933 
L 170.162511 498.34938 
L 170.729879 498.033285 
L 171.24051 497.527711 
L 173.680191 494.758483 
L 174.361032 494.495789 
L 174.928399 494.531268 
L 175.609241 494.787749 
L 178.162395 496.138698 
L 178.899973 496.113867 
L 179.864498 495.7153 
L 182.077232 494.5473 
L 182.701336 494.515502 
L 183.15523 494.630214 
L 183.779335 495.033245 
L 184.573649 495.913859 
L 186.956593 498.923007 
L 187.410487 499.085816 
L 187.807645 499.022254 
L 188.204802 498.75964 
L 188.658696 498.225591 
L 189.339537 497.01459 
L 190.587746 494.143758 
L 191.552271 492.134411 
L 192.119639 491.322429 
L 192.63027 490.942435 
L 193.027427 490.914805 
L 193.424584 491.156557 
L 193.878478 491.690365 
L 194.445846 492.659309 
L 195.580581 495.156751 
L 196.715317 497.442281 
L 197.339421 498.252787 
L 197.850052 498.607937 
L 198.303946 498.666478 
L 198.75784 498.502186 
L 199.381944 497.985391 
L 200.68689 496.329717 
L 201.764889 495.102633 
L 202.332256 494.683825 
L 203.069834 494.441877 
L 203.693939 494.51178 
L 204.54499 494.981755 
L 206.871197 496.622783 
L 207.381828 496.643461 
L 208.005933 496.402344 
L 208.856984 495.718209 
L 210.16193 494.599569 
L 210.729297 494.383773 
L 211.296665 494.428887 
L 211.807296 494.699355 
L 212.544874 495.458604 
L 213.679609 497.11612 
L 214.53066 498.269194 
L 215.154765 498.793002 
L 215.665396 498.909979 
L 216.11929 498.769228 
L 216.686657 498.2502 
L 217.310762 497.316114 
L 218.332023 495.251832 
L 219.693706 492.484025 
L 220.261073 491.678904 
L 220.828441 491.223527 
L 221.339072 491.131805 
L 221.736229 491.439704 
L 222.303597 492.117835 
L 223.154648 493.600605 
L 225.026962 496.948601 
L 225.594329 497.557934 
L 226.10496 497.847195 
L 226.558854 497.895637 
L 227.069485 497.717217 
L 227.636853 497.299978 
L 230.190007 495.038316 
L 230.870848 494.897561 
L 231.551689 494.953285 
L 233.424003 495.563885 
L 235.296316 496.034162 
L 236.374314 495.908301 
L 237.735997 495.357152 
L 239.324626 494.826918 
L 240.062204 494.918602 
L 240.629572 495.210765 
L 241.140202 495.633467 
L 242.218201 496.858567 
L 243.125989 497.879914 
L 243.80683 498.341784 
L 244.317461 498.409784 
L 244.771355 498.215784 
L 245.281986 497.712913 
L 245.906091 496.726259 
L 246.813879 494.75499 
L 248.629455 490.958547 
L 249.196823 490.385356 
L 249.707454 490.223868 
L 250.955663 491.807249 
L 251.636504 493.301086 
L 253.338607 497.330295 
L 254.076185 498.486282 
L 254.586815 498.912672 
L 254.983973 499.005129 
L 255.437867 498.854498 
L 255.891761 498.477417 
L 256.515865 497.664558 
L 258.842073 494.453032 
L 259.40944 494.097192 
L 259.920071 493.990737 
L 260.600912 494.144806 
L 261.111543 494.464582 
L 261.792384 495.100627 
L 263.607961 496.844062 
L 264.118592 497.019374 
L 264.685959 496.952783 
L 265.139853 496.726984 
L 266.444799 495.571888 
L 267.29585 494.880757 
L 267.806481 494.661043 
L 268.260375 494.612896 
L 268.827743 494.794109 
L 269.451847 495.26423 
L 270.586583 496.554071 
L 271.607844 497.644098 
L 272.118475 497.970419 
L 272.629106 498.060345 
L 273.083 497.909179 
L 273.593631 497.483673 
L 274.274472 496.55536 
L 275.238997 494.769973 
L 276.430469 492.589726 
L 276.997837 491.879865 
L 277.508468 491.549588 
L 277.905625 491.51693 
L 278.302783 491.720142 
L 278.926887 492.447403 
L 279.834675 494.098181 
L 281.990672 498.357999 
L 282.72825 499.192178 
L 283.182144 499.440195 
L 283.636038 499.473461 
L 284.203406 499.206207 
L 284.6573 498.788301 
L 285.394878 497.820919 
L 287.721085 494.65368 
L 288.288453 494.244462 
L 289.196241 493.964674 
L 289.877082 494.02194 
L 290.784871 494.312013 
L 292.71392 495.031426 
L 293.564972 495.089794 
L 294.699707 494.930652 
L 295.891179 494.829151 
L 296.515284 494.986874 
L 297.139388 495.371731 
L 297.706756 495.916036 
L 298.784754 497.274997 
L 299.806016 498.501707 
L 300.373384 498.911999 
L 300.940751 498.992892 
L 301.337909 498.833918 
L 301.791803 498.443348 
L 302.472644 497.467805 
L 303.266958 495.886857 
L 305.479692 491.344655 
L 306.103797 490.726302 
L 306.500954 490.613728 
L 306.841375 490.731398 
L 307.295269 491.142537 
L 307.97611 492.27594 
L 308.713688 493.987619 
L 310.529264 498.359877 
L 311.096632 499.181446 
L 311.607263 499.568978 
L 312.00442 499.629452 
L 312.515051 499.424116 
L 313.309366 498.615154 
L 315.86252 495.481988 
L 316.770308 494.902872 
L 317.507886 494.630011 
L 318.302201 494.495809 
L 320.458198 494.488892 
L 323.351773 494.869101 
L 324.486508 495.461506 
L 325.67798 496.416112 
L 327.039662 497.852427 
L 328.117661 498.843199 
L 328.685029 499.092519 
L 329.025449 499.100903 
L 329.53608 498.884735 
L 329.989974 498.442892 
L 330.614079 497.478037 
L 331.351656 495.920332 
L 333.39418 491.400343 
L 333.961548 490.691304 
L 334.415442 490.434679 
L 334.812599 490.410562 
L 335.266493 490.797229 
L 335.777124 491.46924 
L 336.741649 493.262827 
L 338.330278 496.451686 
L 339.238067 497.817034 
L 339.918908 498.47075 
L 340.486275 498.712187 
L 341.053643 498.676007 
L 341.677747 498.328538 
L 342.415325 497.610052 
L 344.741533 494.962786 
L 345.479111 494.56585 
L 345.989741 494.4843 
L 346.613846 494.629492 
L 347.521634 495.144142 
L 349.110263 496.133417 
L 349.961315 496.2269 
L 350.585419 496.026482 
L 351.379734 495.527195 
L 353.0251 494.478644 
L 353.535731 494.44085 
L 353.989625 494.61335 
L 354.556993 495.113725 
L 355.294571 496.176792 
L 357.223621 499.128958 
L 357.677515 499.338536 
L 358.074672 499.270302 
L 358.471829 498.967979 
L 358.98246 498.251542 
L 359.606565 496.970365 
L 360.854773 493.752567 
L 361.876035 491.377751 
L 362.613613 490.257052 
L 363.067507 489.925779 
L 363.351191 489.940251 
L 363.691612 490.179933 
L 364.202243 490.847222 
L 364.76961 491.94956 
L 366.074556 495.307527 
L 367.039081 497.705776 
L 367.719922 498.928088 
L 368.287289 499.531887 
L 368.741184 499.700929 
L 369.195078 499.601659 
L 369.592235 499.31525 
L 370.329813 498.407269 
L 372.882967 494.867553 
L 373.507072 494.498948 
L 374.074439 494.383765 
L 374.528333 494.433174 
L 375.322648 494.75805 
L 377.138225 495.716563 
L 377.932539 495.796618 
L 378.61338 495.635107 
L 380.712641 494.728807 
L 381.393482 494.765172 
L 381.960849 495.018687 
L 382.698427 495.638614 
L 385.251582 498.41344 
L 385.762213 498.611141 
L 386.272844 498.582759 
L 386.726738 498.347319 
L 387.294105 497.783105 
L 388.031683 496.663878 
L 388.939471 494.912233 
L 390.471364 492.045614 
L 391.152205 491.298235 
L 391.549363 491.066533 
L 391.833046 491.162561 
L 392.28694 491.47769 
L 392.797571 492.121808 
L 393.421676 493.218145 
L 394.442937 495.360027 
L 395.407462 497.255855 
L 396.088304 498.205641 
L 396.655671 498.651949 
L 397.109565 498.741319 
L 397.620196 498.564984 
L 398.414511 497.795727 
L 400.854192 494.832336 
L 401.478296 494.545091 
L 402.159137 494.541787 
L 402.896715 494.832473 
L 404.598818 496.042652 
L 405.393133 496.463929 
L 406.130711 496.572474 
L 406.925025 496.380197 
L 407.88955 495.828063 
L 409.251233 494.95296 
L 409.988811 494.662576 
L 410.612915 494.628777 
L 411.123546 494.784767 
L 411.804387 495.262167 
L 412.315018 495.771422 
L 414.130594 497.641624 
L 414.697962 497.869223 
L 415.26533 497.797221 
L 415.775961 497.486411 
L 416.456802 496.733218 
L 417.307853 495.417963 
L 419.12343 492.544543 
L 419.804271 491.922019 
L 420.144691 491.858694 
L 420.712059 492.119816 
L 421.22269 492.644046 
L 421.846794 493.584778 
L 424.343212 498.005312 
L 424.910579 498.459538 
L 425.364474 498.554962 
L 425.761631 498.443041 
L 426.272262 498.063498 
L 426.953103 497.250488 
L 428.995626 494.681242 
L 429.733204 494.263795 
L 430.414046 494.220874 
L 431.094887 494.458404 
L 431.775728 494.940822 
L 434.215409 496.807659 
L 434.952987 496.863524 
L 435.633828 496.615064 
L 436.314669 496.171436 
L 437.506141 495.237731 
L 438.130245 494.873477 
L 438.697613 494.731429 
L 439.264981 494.811887 
L 440.059295 495.350189 
L 440.910347 496.26381 
L 442.215292 497.568085 
L 442.896134 497.786141 
L 443.406764 497.646189 
L 443.917395 497.226727 
L 444.428026 496.561774 
L 445.222341 495.13489 
L 446.98118 491.834771 
L 447.605285 491.242578 
L 448.002442 491.146117 
L 448.342863 491.264889 
L 448.74002 491.708478 
L 449.193914 492.498336 
L 449.874755 494.088405 
L 451.520122 498.205081 
L 452.200963 499.311754 
L 452.76833 499.795231 
L 453.222224 499.891333 
L 453.676119 499.733503 
L 454.130013 499.335788 
L 454.754117 498.495441 
L 455.832116 496.589465 
L 456.966851 494.689205 
L 457.647692 493.931116 
L 458.271796 493.593978 
L 458.839164 493.594884 
L 459.349795 493.799207 
L 459.860426 494.173422 
L 462.356843 496.258814 
L 463.037685 496.401878 
L 463.548315 496.337214 
L 464.34263 495.969857 
L 465.307155 495.290937 
L 465.931259 494.906491 
L 466.725574 494.672719 
L 467.236205 494.762078 
L 467.746836 495.058277 
L 468.314204 495.633316 
L 470.753884 498.544101 
L 471.264515 498.668223 
L 471.718409 498.524794 
L 472.172303 498.150041 
L 472.796408 497.33262 
L 473.81767 495.515532 
L 474.952405 493.54237 
L 475.74672 492.63792 
L 476.200614 492.380975 
L 476.654508 492.296605 
L 476.994928 492.520977 
L 477.562296 493.069781 
L 478.299874 494.067112 
L 480.455871 497.012077 
L 481.079975 497.453922 
L 481.647343 497.610359 
L 482.157974 497.529701 
L 482.782078 497.178784 
L 483.406183 496.622986 
L 485.505443 494.595914 
L 486.243021 494.287561 
L 486.923862 494.296062 
L 487.547966 494.531512 
L 488.115334 494.902162 
L 490.384805 496.612278 
L 490.952172 496.731713 
L 491.633013 496.58073 
L 492.200381 496.274077 
L 494.356378 494.988782 
L 494.923746 494.925097 
L 495.604587 495.103424 
L 496.171954 495.45189 
L 497.193216 496.462407 
L 498.554899 497.965211 
L 499.122266 498.342383 
L 499.632897 498.4446 
L 500.143528 498.269099 
L 500.710896 497.75742 
L 501.391737 496.745425 
L 502.356262 494.84218 
L 503.717944 492.300133 
L 504.398785 491.557707 
L 504.909416 491.370209 
L 505.306573 491.493631 
L 505.760467 491.891269 
L 506.327835 492.683666 
L 507.349097 494.611709 
L 508.597306 496.948345 
L 509.278147 497.829493 
L 509.845514 498.235137 
L 510.299409 498.328359 
L 510.810039 498.192773 
L 511.434144 497.730175 
L 512.568879 496.395565 
L 513.646878 495.167274 
L 514.384456 494.647544 
L 515.00856 494.488545 
L 515.632664 494.596967 
L 516.483716 495.10647 
L 518.242555 496.376402 
L 518.923397 496.465342 
L 519.434027 496.307419 
L 520.285079 495.67558 
L 521.987182 494.218216 
L 522.554549 493.992895 
L 523.178654 493.997243 
L 523.859495 494.308172 
L 524.597073 494.970242 
L 525.675071 496.344482 
L 527.206964 498.250911 
L 527.887805 498.661752 
L 528.341699 498.684399 
L 528.795593 498.487794 
L 529.306224 498.005671 
L 529.930329 497.06557 
L 530.78138 495.316328 
L 532.54022 491.557831 
L 533.164324 490.744985 
L 533.561482 490.535851 
L 533.901902 490.604175 
L 534.29906 490.910416 
L 534.752954 491.53646 
L 535.490532 493.065272 
L 537.930212 498.783236 
L 538.49758 499.419238 
L 538.951474 499.602067 
L 539.405368 499.488894 
L 539.802526 499.171819 
L 540.483367 498.236014 
L 543.093258 494.046148 
L 543.603889 493.759562 
L 544.227993 493.749925 
L 544.738624 493.995507 
L 545.589675 494.790593 
L 546.894621 496.160053 
L 547.461989 496.547735 
L 548.029356 496.682975 
L 548.596724 496.580542 
L 549.220828 496.204446 
L 550.015143 495.499652 
L 551.433562 494.291204 
L 552.114403 494.076953 
L 552.568297 494.15272 
L 553.135665 494.515045 
L 553.816506 495.301776 
L 554.781031 496.818245 
L 555.802293 498.25049 
L 556.369661 498.667073 
L 556.823555 498.73568 
L 557.277449 498.551019 
L 557.78808 498.064823 
L 558.355447 497.21039 
L 559.149762 495.609869 
L 560.965338 491.787505 
L 561.589443 491.011122 
L 561.929863 490.847357 
L 562.270284 490.90561 
L 562.724178 491.235543 
L 563.291546 492.013011 
L 563.91565 493.213057 
L 566.241857 497.937851 
L 566.752488 498.42191 
L 567.206382 498.563122 
L 567.60354 498.453943 
L 568.057434 498.099614 
L 568.681538 497.289724 
L 570.667325 494.522108 
L 571.234693 494.239884 
L 571.688587 494.232147 
L 572.312691 494.503422 
L 573.050269 495.048286 
L 574.128268 495.924135 
L 575.092793 496.39567 
L 576.114054 496.438708 
L 576.738159 496.249771 
L 577.362263 495.955372 
L 579.51826 494.901304 
L 580.426048 494.833738 
L 581.163626 495.147069 
L 581.674257 495.579787 
L 582.468572 496.524953 
L 583.943728 498.394135 
L 584.511095 498.74331 
L 584.908253 498.769445 
L 585.362147 498.532815 
L 585.759304 498.104959 
L 586.269935 497.281015 
L 587.007513 495.673408 
L 588.652879 491.894947 
L 589.276983 491.038347 
L 589.730877 490.78105 
L 590.128035 490.793266 
L 591.376244 492.61496 
L 592.227295 494.610712 
L 593.588977 497.691404 
L 594.326555 498.730378 
L 594.837186 499.08995 
L 595.347817 499.148494 
L 595.858448 498.918138 
L 596.425816 498.426028 
L 598.80876 496.01389 
L 599.432864 495.813045 
L 600.170442 495.833273 
L 602.383176 496.068786 
L 603.347701 495.704969 
L 604.652646 494.755312 
L 605.957592 493.723705 
L 606.922117 493.249032 
L 607.546221 493.177573 
L 608.227062 493.405299 
L 608.680957 493.724688 
L 609.305061 494.425604 
L 610.156112 495.785773 
L 611.971689 498.949967 
L 612.595793 499.55336 
L 613.106424 499.699314 
L 613.560318 499.529471 
L 614.014212 499.089883 
L 614.58158 498.222068 
L 615.432631 496.431156 
L 617.248208 492.513063 
L 617.815575 491.773837 
L 618.326206 491.43867 
L 618.666627 491.435835 
L 619.063784 491.653243 
L 619.517678 492.107017 
L 620.085046 492.912399 
L 622.865147 497.486819 
L 623.432515 497.94834 
L 623.943146 498.100801 
L 624.39704 498.017149 
L 624.907671 497.702389 
L 625.872196 496.650972 
L 627.404088 494.935022 
L 628.141666 494.550296 
L 628.595561 494.511485 
L 629.219665 494.680663 
L 630.127453 495.282191 
L 631.829556 496.533922 
L 632.680607 496.746237 
L 633.191238 496.665603 
L 633.87208 496.352405 
L 635.063552 495.513198 
L 636.255024 494.844868 
L 637.049338 494.795013 
L 637.616706 495.039511 
L 638.24081 495.583919 
L 639.148599 496.793698 
L 640.737228 498.929117 
L 641.134385 499.173726 
L 641.531543 499.223421 
L 641.9287 499.046511 
L 642.325857 498.646404 
L 642.949962 497.614269 
L 643.744276 495.77293 
L 645.503116 491.578917 
L 646.12722 490.696752 
L 646.581115 490.382709 
L 646.921535 490.366203 
L 647.261956 490.610999 
L 647.829323 491.323613 
L 648.680375 492.901083 
L 651.290266 498.088737 
L 651.91437 498.750232 
L 652.368264 498.956502 
L 652.822159 498.915649 
L 653.332789 498.573449 
L 653.900157 497.909441 
L 654.694472 496.673106 
L 655.829207 495.022883 
L 656.396575 494.503376 
L 656.963942 494.261875 
L 657.53131 494.301948 
L 658.041941 494.523079 
L 658.949729 495.234137 
L 660.311411 496.268591 
L 661.2192 496.45662 
L 661.72983 496.33203 
L 662.240461 496.080024 
L 664.623405 494.637816 
L 665.304247 494.635415 
L 665.928351 494.926694 
L 666.438982 495.351763 
L 667.51698 496.634248 
L 668.765189 498.040206 
L 669.27582 498.348804 
L 669.843188 498.404929 
L 670.353818 498.182146 
L 670.921186 497.650797 
L 671.602027 496.668493 
L 672.509815 494.971237 
L 673.928235 492.364953 
L 674.609076 491.59963 
L 675.119707 491.392804 
L 675.176443 491.395175 
L 675.176443 491.395175 
" clip-path="url(#p8ccce8ad55)" style="fill: none; stroke: #0000ff; stroke-width: 1.5; stroke-linecap: square"/>
   </g>
   <g id="patch_3">
    <path d="M 79.5 640.3905 
L 79.5 39.1875 
" style="fill: none; stroke: #000000; stroke-width: 0.8; stroke-linejoin: miter; stroke-linecap: square"/>
   </g>
   <g id="patch_4">
    <path d="M 703.541988 640.3905 
L 703.541988 39.1875 
" style="fill: none; stroke: #000000; stroke-width: 0.8; stroke-linejoin: miter; stroke-linecap: square"/>
   </g>
   <g id="patch_5">
    <path d="M 79.5 640.3905 
L 703.541988 640.3905 
" style="fill: none; stroke: #000000; stroke-width: 0.8; stroke-linejoin: miter; stroke-linecap: square"/>
   </g>
   <g id="patch_6">
    <path d="M 79.5 39.1875 
L 703.541988 39.1875 
" style="fill: none; stroke: #000000; stroke-width: 0.8; stroke-linejoin: miter; stroke-linecap: square"/>
   </g>
  </g>
 </g>
 <defs>
  <clipPath id="p8ccce8ad55">
   <rect x="79.5" y="39.1875" width="624.041988" height="601.203"/>
  </clipPath>
 </defs>
</svg>
