<?xml version="1.0" encoding="utf-8" standalone="no"?>
<!DOCTYPE svg PUBLIC "-//W3C//DTD SVG 1.1//EN"
  "http://www.w3.org/Graphics/SVG/1.1/DTD/svg11.dtd">
<svg xmlns:xlink="http://www.w3.org/1999/xlink" width="711.588047pt" height="711.105187pt" viewBox="0 0 711.588047 711.105187" xmlns="http://www.w3.org/2000/svg" version="1.1">
 <metadata>
  <rdf:RDF xmlns:dc="http://purl.org/dc/elements/1.1/" xmlns:cc="http://creativecommons.org/ns#" xmlns:rdf="http://www.w3.org/1999/02/22-rdf-syntax-ns#">
   <cc:Work>
    <dc:type rdf:resource="http://purl.org/dc/dcmitype/StillImage"/>
    <dc:date>2025-02-02T15:19:50.905689</dc:date>
    <dc:format>image/svg+xml</dc:format>
    <dc:creator>
     <cc:Agent>
      <dc:title>Matplotlib v3.9.3, https://matplotlib.org/</dc:title>
     </cc:Agent>
    </dc:creator>
   </cc:Work>
  </rdf:RDF>
 </metadata>
 <defs>
  <style type="text/css">*{stroke-linejoin: round; stroke-linecap: butt}</style>
 </defs>
 <g id="figure_1">
  <g id="patch_1">
   <path d="M 0 711.105187 
L 711.588047 711.105187 
L 711.588047 0 
L 0 0 
z
" style="fill: #ffffff"/>
  </g>
  <g id="axes_1">
   <g id="patch_2">
    <path d="M 80.465625 643.2705 
L 704.388047 643.2705 
L 704.388047 39.1875 
L 80.465625 39.1875 
z
" style="fill: #ffffff"/>
   </g>
   <g id="matplotlib.axis_1">
    <g id="xtick_1">
     <g id="line2d_1">
      <defs>
       <path id="mbdd49255e0" d="M 0 0 
L 0 -3.5 
" style="stroke: #000000; stroke-width: 0.8"/>
      </defs>
      <g>
       <use xlink:href="#mbdd49255e0" x="108.769004" y="643.2705" style="stroke: #000000; stroke-width: 0.8"/>
      </g>
     </g>
     <g id="text_1">
      <!-- 0 -->
      <g transform="translate(101.261738 666.337062) scale(0.27 -0.27)">
       <defs>
        <path id="LiberationSans-30" d="M 3309 2203 
Q 3309 1100 2920 518 
Q 2531 -63 1772 -63 
Q 1013 -63 631 515 
Q 250 1094 250 2203 
Q 250 3338 620 3903 
Q 991 4469 1791 4469 
Q 2569 4469 2939 3897 
Q 3309 3325 3309 2203 
z
M 2738 2203 
Q 2738 3156 2517 3584 
Q 2297 4013 1791 4013 
Q 1272 4013 1045 3591 
Q 819 3169 819 2203 
Q 819 1266 1048 831 
Q 1278 397 1778 397 
Q 2275 397 2506 840 
Q 2738 1284 2738 2203 
z
" transform="scale(0.015625)"/>
       </defs>
       <use xlink:href="#LiberationSans-30"/>
      </g>
     </g>
    </g>
    <g id="xtick_2">
     <g id="line2d_2">
      <g>
       <use xlink:href="#mbdd49255e0" x="222.232136" y="643.2705" style="stroke: #000000; stroke-width: 0.8"/>
      </g>
     </g>
     <g id="text_2">
      <!-- 2 -->
      <g transform="translate(214.724871 666.337062) scale(0.27 -0.27)">
       <defs>
        <path id="LiberationSans-32" d="M 322 0 
L 322 397 
Q 481 763 711 1042 
Q 941 1322 1194 1548 
Q 1447 1775 1695 1969 
Q 1944 2163 2144 2356 
Q 2344 2550 2467 2762 
Q 2591 2975 2591 3244 
Q 2591 3606 2378 3806 
Q 2166 4006 1788 4006 
Q 1428 4006 1195 3811 
Q 963 3616 922 3263 
L 347 3316 
Q 409 3844 795 4156 
Q 1181 4469 1788 4469 
Q 2453 4469 2811 4155 
Q 3169 3841 3169 3263 
Q 3169 3006 3051 2753 
Q 2934 2500 2703 2247 
Q 2472 1994 1819 1463 
Q 1459 1169 1246 933 
Q 1034 697 941 478 
L 3238 478 
L 3238 0 
L 322 0 
z
" transform="scale(0.015625)"/>
       </defs>
       <use xlink:href="#LiberationSans-32"/>
      </g>
     </g>
    </g>
    <g id="xtick_3">
     <g id="line2d_3">
      <g>
       <use xlink:href="#mbdd49255e0" x="335.695269" y="643.2705" style="stroke: #000000; stroke-width: 0.8"/>
      </g>
     </g>
     <g id="text_3">
      <!-- 4 -->
      <g transform="translate(328.188004 666.337062) scale(0.27 -0.27)">
       <defs>
        <path id="LiberationSans-34" d="M 2753 997 
L 2753 0 
L 2222 0 
L 2222 997 
L 147 997 
L 147 1434 
L 2163 4403 
L 2753 4403 
L 2753 1441 
L 3372 1441 
L 3372 997 
L 2753 997 
z
M 2222 3769 
Q 2216 3750 2134 3603 
Q 2053 3456 2013 3397 
L 884 1734 
L 716 1503 
L 666 1441 
L 2222 1441 
L 2222 3769 
z
" transform="scale(0.015625)"/>
       </defs>
       <use xlink:href="#LiberationSans-34"/>
      </g>
     </g>
    </g>
    <g id="xtick_4">
     <g id="line2d_4">
      <g>
       <use xlink:href="#mbdd49255e0" x="449.158402" y="643.2705" style="stroke: #000000; stroke-width: 0.8"/>
      </g>
     </g>
     <g id="text_4">
      <!-- 6 -->
      <g transform="translate(441.651137 666.337062) scale(0.27 -0.27)">
       <defs>
        <path id="LiberationSans-36" d="M 3278 1441 
Q 3278 744 2900 340 
Q 2522 -63 1856 -63 
Q 1113 -63 719 490 
Q 325 1044 325 2100 
Q 325 3244 734 3856 
Q 1144 4469 1900 4469 
Q 2897 4469 3156 3572 
L 2619 3475 
Q 2453 4013 1894 4013 
Q 1413 4013 1148 3564 
Q 884 3116 884 2266 
Q 1038 2550 1316 2698 
Q 1594 2847 1953 2847 
Q 2563 2847 2920 2465 
Q 3278 2084 3278 1441 
z
M 2706 1416 
Q 2706 1894 2472 2153 
Q 2238 2413 1819 2413 
Q 1425 2413 1183 2183 
Q 941 1953 941 1550 
Q 941 1041 1192 716 
Q 1444 391 1838 391 
Q 2244 391 2475 664 
Q 2706 938 2706 1416 
z
" transform="scale(0.015625)"/>
       </defs>
       <use xlink:href="#LiberationSans-36"/>
      </g>
     </g>
    </g>
    <g id="xtick_5">
     <g id="line2d_5">
      <g>
       <use xlink:href="#mbdd49255e0" x="562.621535" y="643.2705" style="stroke: #000000; stroke-width: 0.8"/>
      </g>
     </g>
     <g id="text_5">
      <!-- 8 -->
      <g transform="translate(555.11427 666.337062) scale(0.27 -0.27)">
       <defs>
        <path id="LiberationSans-38" d="M 3281 1228 
Q 3281 619 2893 278 
Q 2506 -63 1781 -63 
Q 1075 -63 676 271 
Q 278 606 278 1222 
Q 278 1653 525 1947 
Q 772 2241 1156 2303 
L 1156 2316 
Q 797 2400 589 2681 
Q 381 2963 381 3341 
Q 381 3844 757 4156 
Q 1134 4469 1769 4469 
Q 2419 4469 2795 4162 
Q 3172 3856 3172 3334 
Q 3172 2956 2962 2675 
Q 2753 2394 2391 2322 
L 2391 2309 
Q 2813 2241 3047 1952 
Q 3281 1663 3281 1228 
z
M 2588 3303 
Q 2588 4050 1769 4050 
Q 1372 4050 1164 3862 
Q 956 3675 956 3303 
Q 956 2925 1170 2726 
Q 1384 2528 1775 2528 
Q 2172 2528 2380 2711 
Q 2588 2894 2588 3303 
z
M 2697 1281 
Q 2697 1691 2453 1898 
Q 2209 2106 1769 2106 
Q 1341 2106 1100 1882 
Q 859 1659 859 1269 
Q 859 359 1788 359 
Q 2247 359 2472 579 
Q 2697 800 2697 1281 
z
" transform="scale(0.015625)"/>
       </defs>
       <use xlink:href="#LiberationSans-38"/>
      </g>
     </g>
    </g>
    <g id="xtick_6">
     <g id="line2d_6">
      <g>
       <use xlink:href="#mbdd49255e0" x="676.084668" y="643.2705" style="stroke: #000000; stroke-width: 0.8"/>
      </g>
     </g>
     <g id="text_6">
      <!-- 10 -->
      <g transform="translate(661.070137 666.337062) scale(0.27 -0.27)">
       <defs>
        <path id="LiberationSans-31" d="M 488 0 
L 488 478 
L 1609 478 
L 1609 3866 
L 616 3156 
L 616 3688 
L 1656 4403 
L 2175 4403 
L 2175 478 
L 3247 478 
L 3247 0 
L 488 0 
z
" transform="scale(0.015625)"/>
       </defs>
       <use xlink:href="#LiberationSans-31"/>
       <use xlink:href="#LiberationSans-30" x="55.615234"/>
      </g>
     </g>
    </g>
    <g id="xtick_7">
     <g id="line2d_7">
      <defs>
       <path id="m38b39def77" d="M 0 0 
L 0 -2 
" style="stroke: #000000; stroke-width: 0.6"/>
      </defs>
      <g>
       <use xlink:href="#m38b39def77" x="137.134787" y="643.2705" style="stroke: #000000; stroke-width: 0.6"/>
      </g>
     </g>
    </g>
    <g id="xtick_8">
     <g id="line2d_8">
      <g>
       <use xlink:href="#m38b39def77" x="165.50057" y="643.2705" style="stroke: #000000; stroke-width: 0.6"/>
      </g>
     </g>
    </g>
    <g id="xtick_9">
     <g id="line2d_9">
      <g>
       <use xlink:href="#m38b39def77" x="193.866353" y="643.2705" style="stroke: #000000; stroke-width: 0.6"/>
      </g>
     </g>
    </g>
    <g id="xtick_10">
     <g id="line2d_10">
      <g>
       <use xlink:href="#m38b39def77" x="250.59792" y="643.2705" style="stroke: #000000; stroke-width: 0.6"/>
      </g>
     </g>
    </g>
    <g id="xtick_11">
     <g id="line2d_11">
      <g>
       <use xlink:href="#m38b39def77" x="278.963703" y="643.2705" style="stroke: #000000; stroke-width: 0.6"/>
      </g>
     </g>
    </g>
    <g id="xtick_12">
     <g id="line2d_12">
      <g>
       <use xlink:href="#m38b39def77" x="307.329486" y="643.2705" style="stroke: #000000; stroke-width: 0.6"/>
      </g>
     </g>
    </g>
    <g id="xtick_13">
     <g id="line2d_13">
      <g>
       <use xlink:href="#m38b39def77" x="364.061053" y="643.2705" style="stroke: #000000; stroke-width: 0.6"/>
      </g>
     </g>
    </g>
    <g id="xtick_14">
     <g id="line2d_14">
      <g>
       <use xlink:href="#m38b39def77" x="392.426836" y="643.2705" style="stroke: #000000; stroke-width: 0.6"/>
      </g>
     </g>
    </g>
    <g id="xtick_15">
     <g id="line2d_15">
      <g>
       <use xlink:href="#m38b39def77" x="420.792619" y="643.2705" style="stroke: #000000; stroke-width: 0.6"/>
      </g>
     </g>
    </g>
    <g id="xtick_16">
     <g id="line2d_16">
      <g>
       <use xlink:href="#m38b39def77" x="477.524186" y="643.2705" style="stroke: #000000; stroke-width: 0.6"/>
      </g>
     </g>
    </g>
    <g id="xtick_17">
     <g id="line2d_17">
      <g>
       <use xlink:href="#m38b39def77" x="505.889969" y="643.2705" style="stroke: #000000; stroke-width: 0.6"/>
      </g>
     </g>
    </g>
    <g id="xtick_18">
     <g id="line2d_18">
      <g>
       <use xlink:href="#m38b39def77" x="534.255752" y="643.2705" style="stroke: #000000; stroke-width: 0.6"/>
      </g>
     </g>
    </g>
    <g id="xtick_19">
     <g id="line2d_19">
      <g>
       <use xlink:href="#m38b39def77" x="590.987319" y="643.2705" style="stroke: #000000; stroke-width: 0.6"/>
      </g>
     </g>
    </g>
    <g id="xtick_20">
     <g id="line2d_20">
      <g>
       <use xlink:href="#m38b39def77" x="619.353102" y="643.2705" style="stroke: #000000; stroke-width: 0.6"/>
      </g>
     </g>
    </g>
    <g id="xtick_21">
     <g id="line2d_21">
      <g>
       <use xlink:href="#m38b39def77" x="647.718885" y="643.2705" style="stroke: #000000; stroke-width: 0.6"/>
      </g>
     </g>
    </g>
    <g id="text_7">
     <!-- Time ps -->
     <g transform="translate(339.650273 697.680187) scale(0.3 -0.3)">
      <defs>
       <path id="LiberationSans-54" d="M 2250 3916 
L 2250 0 
L 1656 0 
L 1656 3916 
L 144 3916 
L 144 4403 
L 3763 4403 
L 3763 3916 
L 2250 3916 
z
" transform="scale(0.015625)"/>
       <path id="LiberationSans-69" d="M 428 4100 
L 428 4638 
L 991 4638 
L 991 4100 
L 428 4100 
z
M 428 0 
L 428 3381 
L 991 3381 
L 991 0 
L 428 0 
z
" transform="scale(0.015625)"/>
       <path id="LiberationSans-6d" d="M 2400 0 
L 2400 2144 
Q 2400 2634 2265 2821 
Q 2131 3009 1781 3009 
Q 1422 3009 1212 2734 
Q 1003 2459 1003 1959 
L 1003 0 
L 444 0 
L 444 2659 
Q 444 3250 425 3381 
L 956 3381 
Q 959 3366 962 3297 
Q 966 3228 970 3139 
Q 975 3050 981 2803 
L 991 2803 
Q 1172 3163 1406 3303 
Q 1641 3444 1978 3444 
Q 2363 3444 2586 3291 
Q 2809 3138 2897 2803 
L 2906 2803 
Q 3081 3144 3329 3294 
Q 3578 3444 3931 3444 
Q 4444 3444 4676 3166 
Q 4909 2888 4909 2253 
L 4909 0 
L 4353 0 
L 4353 2144 
Q 4353 2634 4218 2821 
Q 4084 3009 3734 3009 
Q 3366 3009 3161 2736 
Q 2956 2463 2956 1959 
L 2956 0 
L 2400 0 
z
" transform="scale(0.015625)"/>
       <path id="LiberationSans-65" d="M 863 1572 
Q 863 991 1103 675 
Q 1344 359 1806 359 
Q 2172 359 2392 506 
Q 2613 653 2691 878 
L 3184 738 
Q 2881 -63 1806 -63 
Q 1056 -63 664 384 
Q 272 831 272 1713 
Q 272 2550 664 2997 
Q 1056 3444 1784 3444 
Q 3275 3444 3275 1647 
L 3275 1572 
L 863 1572 
z
M 2694 2003 
Q 2647 2538 2422 2783 
Q 2197 3028 1775 3028 
Q 1366 3028 1127 2754 
Q 888 2481 869 2003 
L 2694 2003 
z
" transform="scale(0.015625)"/>
       <path id="LiberationSans-20" transform="scale(0.015625)"/>
       <path id="LiberationSans-70" d="M 3291 1706 
Q 3291 -63 2047 -63 
Q 1266 -63 997 525 
L 981 525 
Q 994 500 994 -6 
L 994 -1328 
L 431 -1328 
L 431 2691 
Q 431 3213 413 3381 
L 956 3381 
Q 959 3369 965 3292 
Q 972 3216 980 3056 
Q 988 2897 988 2838 
L 1000 2838 
Q 1150 3150 1397 3295 
Q 1644 3441 2047 3441 
Q 2672 3441 2981 3022 
Q 3291 2603 3291 1706 
z
M 2700 1694 
Q 2700 2400 2509 2703 
Q 2319 3006 1903 3006 
Q 1569 3006 1380 2865 
Q 1191 2725 1092 2426 
Q 994 2128 994 1650 
Q 994 984 1206 668 
Q 1419 353 1897 353 
Q 2316 353 2508 661 
Q 2700 969 2700 1694 
z
" transform="scale(0.015625)"/>
       <path id="LiberationSans-73" d="M 2969 934 
Q 2969 456 2608 196 
Q 2247 -63 1597 -63 
Q 966 -63 623 145 
Q 281 353 178 794 
L 675 891 
Q 747 619 972 492 
Q 1197 366 1597 366 
Q 2025 366 2223 497 
Q 2422 628 2422 891 
Q 2422 1091 2284 1216 
Q 2147 1341 1841 1422 
L 1438 1528 
Q 953 1653 748 1773 
Q 544 1894 428 2066 
Q 313 2238 313 2488 
Q 313 2950 642 3192 
Q 972 3434 1603 3434 
Q 2163 3434 2492 3237 
Q 2822 3041 2909 2606 
L 2403 2544 
Q 2356 2769 2151 2889 
Q 1947 3009 1603 3009 
Q 1222 3009 1040 2893 
Q 859 2778 859 2544 
Q 859 2400 934 2306 
Q 1009 2213 1156 2147 
Q 1303 2081 1775 1966 
Q 2222 1853 2419 1758 
Q 2616 1663 2730 1547 
Q 2844 1431 2906 1279 
Q 2969 1128 2969 934 
z
" transform="scale(0.015625)"/>
      </defs>
      <use xlink:href="#LiberationSans-54"/>
      <use xlink:href="#LiberationSans-69" x="57.333984"/>
      <use xlink:href="#LiberationSans-6d" x="79.550781"/>
      <use xlink:href="#LiberationSans-65" x="162.851562"/>
      <use xlink:href="#LiberationSans-20" x="218.466797"/>
      <use xlink:href="#LiberationSans-70" x="246.25"/>
      <use xlink:href="#LiberationSans-73" x="301.865234"/>
     </g>
    </g>
   </g>
   <g id="matplotlib.axis_2">
    <g id="ytick_1">
     <g id="line2d_22">
      <defs>
       <path id="m1394b76ca8" d="M 0 0 
L 3.5 0 
" style="stroke: #000000; stroke-width: 0.8"/>
      </defs>
      <g>
       <use xlink:href="#m1394b76ca8" x="80.465625" y="615.812182" style="stroke: #000000; stroke-width: 0.8"/>
      </g>
     </g>
     <g id="text_8">
      <!-- $\mathdefault{0.0}$ -->
      <g transform="translate(39.165625 625.595463) scale(0.27 -0.27)">
       <defs>
        <path id="LiberationSans-2e" d="M 584 0 
L 584 684 
L 1194 684 
L 1194 0 
L 584 0 
z
" transform="scale(0.015625)"/>
       </defs>
       <use xlink:href="#LiberationSans-30" transform="translate(0 0.171875)"/>
       <use xlink:href="#LiberationSans-2e" transform="translate(55.615234 0.171875)"/>
       <use xlink:href="#LiberationSans-30" transform="translate(83.398438 0.171875)"/>
      </g>
     </g>
    </g>
    <g id="ytick_2">
     <g id="line2d_23">
      <g>
       <use xlink:href="#m1394b76ca8" x="80.465625" y="508.208439" style="stroke: #000000; stroke-width: 0.8"/>
      </g>
     </g>
     <g id="text_9">
      <!-- $\mathdefault{0.2}$ -->
      <g transform="translate(39.165625 517.99172) scale(0.27 -0.27)">
       <use xlink:href="#LiberationSans-30" transform="translate(0 0.171875)"/>
       <use xlink:href="#LiberationSans-2e" transform="translate(55.615234 0.171875)"/>
       <use xlink:href="#LiberationSans-32" transform="translate(83.398438 0.171875)"/>
      </g>
     </g>
    </g>
    <g id="ytick_3">
     <g id="line2d_24">
      <g>
       <use xlink:href="#m1394b76ca8" x="80.465625" y="400.604697" style="stroke: #000000; stroke-width: 0.8"/>
      </g>
     </g>
     <g id="text_10">
      <!-- $\mathdefault{0.4}$ -->
      <g transform="translate(39.165625 410.387978) scale(0.27 -0.27)">
       <use xlink:href="#LiberationSans-30" transform="translate(0 0.171875)"/>
       <use xlink:href="#LiberationSans-2e" transform="translate(55.615234 0.171875)"/>
       <use xlink:href="#LiberationSans-34" transform="translate(83.398438 0.171875)"/>
      </g>
     </g>
    </g>
    <g id="ytick_4">
     <g id="line2d_25">
      <g>
       <use xlink:href="#m1394b76ca8" x="80.465625" y="293.000954" style="stroke: #000000; stroke-width: 0.8"/>
      </g>
     </g>
     <g id="text_11">
      <!-- $\mathdefault{0.6}$ -->
      <g transform="translate(39.165625 302.784235) scale(0.27 -0.27)">
       <use xlink:href="#LiberationSans-30" transform="translate(0 0.171875)"/>
       <use xlink:href="#LiberationSans-2e" transform="translate(55.615234 0.171875)"/>
       <use xlink:href="#LiberationSans-36" transform="translate(83.398438 0.171875)"/>
      </g>
     </g>
    </g>
    <g id="ytick_5">
     <g id="line2d_26">
      <g>
       <use xlink:href="#m1394b76ca8" x="80.465625" y="185.397211" style="stroke: #000000; stroke-width: 0.8"/>
      </g>
     </g>
     <g id="text_12">
      <!-- $\mathdefault{0.8}$ -->
      <g transform="translate(39.165625 195.180492) scale(0.27 -0.27)">
       <use xlink:href="#LiberationSans-30" transform="translate(0 0.171875)"/>
       <use xlink:href="#LiberationSans-2e" transform="translate(55.615234 0.171875)"/>
       <use xlink:href="#LiberationSans-38" transform="translate(83.398438 0.171875)"/>
      </g>
     </g>
    </g>
    <g id="ytick_6">
     <g id="line2d_27">
      <g>
       <use xlink:href="#m1394b76ca8" x="80.465625" y="77.793469" style="stroke: #000000; stroke-width: 0.8"/>
      </g>
     </g>
     <g id="text_13">
      <!-- $\mathdefault{1.0}$ -->
      <g transform="translate(39.165625 87.57675) scale(0.27 -0.27)">
       <use xlink:href="#LiberationSans-31" transform="translate(0 0.171875)"/>
       <use xlink:href="#LiberationSans-2e" transform="translate(55.615234 0.171875)"/>
       <use xlink:href="#LiberationSans-30" transform="translate(83.398438 0.171875)"/>
      </g>
     </g>
    </g>
    <g id="ytick_7">
     <g id="line2d_28">
      <defs>
       <path id="mab7b4034bd" d="M 0 0 
L 2 0 
" style="stroke: #000000; stroke-width: 0.6"/>
      </defs>
      <g>
       <use xlink:href="#mab7b4034bd" x="80.465625" y="642.713117" style="stroke: #000000; stroke-width: 0.6"/>
      </g>
     </g>
    </g>
    <g id="ytick_8">
     <g id="line2d_29">
      <g>
       <use xlink:href="#mab7b4034bd" x="80.465625" y="588.911246" style="stroke: #000000; stroke-width: 0.6"/>
      </g>
     </g>
    </g>
    <g id="ytick_9">
     <g id="line2d_30">
      <g>
       <use xlink:href="#mab7b4034bd" x="80.465625" y="562.01031" style="stroke: #000000; stroke-width: 0.6"/>
      </g>
     </g>
    </g>
    <g id="ytick_10">
     <g id="line2d_31">
      <g>
       <use xlink:href="#mab7b4034bd" x="80.465625" y="535.109375" style="stroke: #000000; stroke-width: 0.6"/>
      </g>
     </g>
    </g>
    <g id="ytick_11">
     <g id="line2d_32">
      <g>
       <use xlink:href="#mab7b4034bd" x="80.465625" y="481.307504" style="stroke: #000000; stroke-width: 0.6"/>
      </g>
     </g>
    </g>
    <g id="ytick_12">
     <g id="line2d_33">
      <g>
       <use xlink:href="#mab7b4034bd" x="80.465625" y="454.406568" style="stroke: #000000; stroke-width: 0.6"/>
      </g>
     </g>
    </g>
    <g id="ytick_13">
     <g id="line2d_34">
      <g>
       <use xlink:href="#mab7b4034bd" x="80.465625" y="427.505632" style="stroke: #000000; stroke-width: 0.6"/>
      </g>
     </g>
    </g>
    <g id="ytick_14">
     <g id="line2d_35">
      <g>
       <use xlink:href="#mab7b4034bd" x="80.465625" y="373.703761" style="stroke: #000000; stroke-width: 0.6"/>
      </g>
     </g>
    </g>
    <g id="ytick_15">
     <g id="line2d_36">
      <g>
       <use xlink:href="#mab7b4034bd" x="80.465625" y="346.802825" style="stroke: #000000; stroke-width: 0.6"/>
      </g>
     </g>
    </g>
    <g id="ytick_16">
     <g id="line2d_37">
      <g>
       <use xlink:href="#mab7b4034bd" x="80.465625" y="319.90189" style="stroke: #000000; stroke-width: 0.6"/>
      </g>
     </g>
    </g>
    <g id="ytick_17">
     <g id="line2d_38">
      <g>
       <use xlink:href="#mab7b4034bd" x="80.465625" y="266.100018" style="stroke: #000000; stroke-width: 0.6"/>
      </g>
     </g>
    </g>
    <g id="ytick_18">
     <g id="line2d_39">
      <g>
       <use xlink:href="#mab7b4034bd" x="80.465625" y="239.199083" style="stroke: #000000; stroke-width: 0.6"/>
      </g>
     </g>
    </g>
    <g id="ytick_19">
     <g id="line2d_40">
      <g>
       <use xlink:href="#mab7b4034bd" x="80.465625" y="212.298147" style="stroke: #000000; stroke-width: 0.6"/>
      </g>
     </g>
    </g>
    <g id="ytick_20">
     <g id="line2d_41">
      <g>
       <use xlink:href="#mab7b4034bd" x="80.465625" y="158.496276" style="stroke: #000000; stroke-width: 0.6"/>
      </g>
     </g>
    </g>
    <g id="ytick_21">
     <g id="line2d_42">
      <g>
       <use xlink:href="#mab7b4034bd" x="80.465625" y="131.59534" style="stroke: #000000; stroke-width: 0.6"/>
      </g>
     </g>
    </g>
    <g id="ytick_22">
     <g id="line2d_43">
      <g>
       <use xlink:href="#mab7b4034bd" x="80.465625" y="104.694404" style="stroke: #000000; stroke-width: 0.6"/>
      </g>
     </g>
    </g>
    <g id="ytick_23">
     <g id="line2d_44">
      <g>
       <use xlink:href="#mab7b4034bd" x="80.465625" y="50.892533" style="stroke: #000000; stroke-width: 0.6"/>
      </g>
     </g>
    </g>
    <g id="text_14">
     <!-- ITR $\mathrm{K} \cdot \mathrm{m}^2 / \mathrm{W}$ -->
     <g transform="translate(28.940625 425.229) rotate(-90) scale(0.3 -0.3)">
      <defs>
       <path id="LiberationSans-49" d="M 591 0 
L 591 4403 
L 1188 4403 
L 1188 0 
L 591 0 
z
" transform="scale(0.015625)"/>
       <path id="LiberationSans-52" d="M 3638 0 
L 2494 1828 
L 1122 1828 
L 1122 0 
L 525 0 
L 525 4403 
L 2597 4403 
Q 3341 4403 3745 4070 
Q 4150 3738 4150 3144 
Q 4150 2653 3864 2318 
Q 3578 1984 3075 1897 
L 4325 0 
L 3638 0 
z
M 3550 3138 
Q 3550 3522 3289 3723 
Q 3028 3925 2538 3925 
L 1122 3925 
L 1122 2300 
L 2563 2300 
Q 3034 2300 3292 2520 
Q 3550 2741 3550 3138 
z
" transform="scale(0.015625)"/>
       <path id="STIXGeneral-Regular-4b" d="M 4627 0 
L 2688 0 
L 2688 122 
L 2861 128 
Q 3130 134 3130 282 
Q 3130 397 2922 643 
Q 2714 890 2253 1370 
L 1613 2029 
L 1446 1894 
L 1446 710 
Q 1446 352 1548 253 
Q 1651 154 2016 122 
L 2016 0 
L 211 0 
L 211 122 
Q 589 141 691 262 
Q 794 384 794 800 
L 794 3514 
Q 794 3872 691 3981 
Q 589 4090 218 4115 
L 218 4237 
L 2022 4237 
L 2022 4115 
Q 1632 4090 1539 3987 
Q 1446 3885 1446 3507 
L 1446 2227 
L 2586 3277 
Q 2861 3533 2973 3667 
Q 3085 3802 3085 3910 
Q 3085 4013 3030 4057 
Q 2976 4102 2822 4109 
L 2662 4115 
L 2662 4237 
L 4320 4237 
L 4320 4115 
Q 3994 4090 3824 4003 
Q 3654 3917 3322 3597 
L 2131 2458 
L 3629 819 
Q 4026 384 4214 253 
Q 4403 122 4627 122 
L 4627 0 
z
" transform="scale(0.015625)"/>
       <path id="STIXGeneral-Regular-22c5" d="M 1187 1888 
Q 1299 1773 1299 1619 
Q 1299 1466 1187 1350 
Q 1075 1235 921 1235 
Q 768 1235 649 1353 
Q 531 1472 531 1619 
Q 531 1766 649 1884 
Q 768 2003 921 2003 
Q 1075 2003 1187 1888 
z
" transform="scale(0.015625)"/>
       <path id="STIXGeneral-Regular-6d" d="M 4960 0 
L 3565 0 
L 3565 96 
Q 3834 122 3907 208 
Q 3981 294 3981 576 
L 3981 1894 
Q 3981 2278 3869 2444 
Q 3757 2611 3488 2611 
Q 3264 2611 3107 2521 
Q 2950 2432 2803 2221 
L 2803 608 
Q 2803 301 2896 201 
Q 2989 102 3264 96 
L 3264 0 
L 1830 0 
L 1830 96 
Q 2112 115 2189 188 
Q 2266 262 2266 550 
L 2266 1901 
Q 2266 2611 1850 2611 
Q 1670 2611 1468 2531 
Q 1267 2451 1171 2336 
Q 1088 2240 1088 2227 
L 1088 448 
Q 1088 243 1177 176 
Q 1267 109 1523 96 
L 1523 0 
L 102 0 
L 102 96 
Q 371 102 460 195 
Q 550 288 550 563 
L 550 2150 
Q 550 2387 499 2480 
Q 448 2573 326 2573 
Q 230 2573 122 2547 
L 122 2656 
Q 557 2778 1011 2944 
L 1062 2925 
L 1062 2451 
L 1075 2451 
Q 1363 2752 1584 2848 
Q 1805 2944 2054 2944 
Q 2560 2944 2733 2406 
Q 3232 2944 3776 2944 
Q 4518 2944 4518 1792 
L 4518 493 
Q 4518 282 4582 202 
Q 4646 122 4794 109 
L 4960 96 
L 4960 0 
z
" transform="scale(0.015625)"/>
       <path id="STIXGeneral-Regular-32" d="M 3034 877 
L 2688 0 
L 186 0 
L 186 77 
L 1325 1286 
Q 1773 1754 1965 2144 
Q 2157 2534 2157 2950 
Q 2157 3379 1920 3616 
Q 1683 3853 1267 3853 
Q 922 3853 720 3673 
Q 518 3494 326 3021 
L 192 3053 
Q 301 3648 630 3987 
Q 960 4326 1523 4326 
Q 2054 4326 2380 4006 
Q 2707 3686 2707 3200 
Q 2707 2477 1888 1613 
L 832 486 
L 2330 486 
Q 2541 486 2665 569 
Q 2790 653 2944 915 
L 3034 877 
z
" transform="scale(0.015625)"/>
       <path id="STIXGeneral-Regular-2f" d="M 1837 4326 
L 378 -90 
L -58 -90 
L 1408 4326 
L 1837 4326 
z
" transform="scale(0.015625)"/>
       <path id="STIXGeneral-Regular-57" d="M 5965 4237 
L 5965 4115 
Q 5709 4064 5616 3990 
Q 5523 3917 5434 3667 
Q 4704 1709 4128 -70 
L 4032 -70 
Q 3642 1011 3008 2637 
L 2022 -70 
L 1926 -70 
Q 1709 576 1277 1753 
Q 845 2931 698 3347 
Q 538 3808 406 3958 
Q 275 4109 32 4115 
L 32 4237 
L 1594 4237 
L 1594 4115 
Q 1357 4109 1270 4064 
Q 1184 4019 1184 3917 
Q 1184 3808 1254 3616 
L 2176 1210 
L 2842 3021 
L 2662 3501 
Q 2509 3917 2400 4013 
Q 2291 4109 2010 4115 
L 2010 4237 
L 3706 4237 
L 3706 4115 
Q 3213 4102 3213 3891 
Q 3213 3808 3322 3520 
L 4237 1190 
L 5043 3360 
Q 5152 3667 5152 3853 
Q 5152 4109 4704 4115 
L 4704 4237 
L 5965 4237 
z
" transform="scale(0.015625)"/>
      </defs>
      <use xlink:href="#LiberationSans-49" transform="translate(0 0.409375)"/>
      <use xlink:href="#LiberationSans-54" transform="translate(27.783203 0.409375)"/>
      <use xlink:href="#LiberationSans-52" transform="translate(88.867188 0.409375)"/>
      <use xlink:href="#LiberationSans-20" transform="translate(161.083984 0.409375)"/>
      <use xlink:href="#STIXGeneral-Regular-4b" transform="translate(188.867188 0.409375)"/>
      <use xlink:href="#STIXGeneral-Regular-22c5" transform="translate(275.507166 0.409375)"/>
      <use xlink:href="#STIXGeneral-Regular-6d" transform="translate(318.547153 0.409375)"/>
      <use xlink:href="#STIXGeneral-Regular-32" transform="translate(397.890422 35.684375) scale(0.7)"/>
      <use xlink:href="#STIXGeneral-Regular-2f" transform="translate(437.299786 0.409375)"/>
      <use xlink:href="#STIXGeneral-Regular-57" transform="translate(465.099774 0.409375)"/>
     </g>
    </g>
    <g id="text_15">
     <!-- $\times\mathdefault{10^{−6}}\mathdefault{}$ -->
     <g transform="translate(80.465625 36.1875) scale(0.4 -0.4)">
      <defs>
       <path id="STIXGeneral-Regular-d7" d="M 3821 141 
L 3526 -160 
L 2048 1312 
L 570 -160 
L 275 134 
L 1747 1613 
L 275 3091 
L 576 3386 
L 2048 1914 
L 3526 3386 
L 3821 3098 
L 2349 1613 
L 3821 141 
z
" transform="scale(0.015625)"/>
       <path id="LiberationSans-2212" d="M 316 1900 
L 316 2356 
L 3425 2356 
L 3425 1900 
L 316 1900 
z
" transform="scale(0.015625)"/>
      </defs>
      <use xlink:href="#STIXGeneral-Regular-d7" transform="translate(0 0.140625)"/>
      <use xlink:href="#LiberationSans-31" transform="translate(63.999985 0.140625)"/>
      <use xlink:href="#LiberationSans-30" transform="translate(119.615219 0.140625)"/>
      <use xlink:href="#LiberationSans-2212" transform="translate(176.154946 37.120312) scale(0.7)"/>
      <use xlink:href="#LiberationSans-36" transform="translate(217.033852 37.120312) scale(0.7)"/>
     </g>
    </g>
   </g>
   <g id="line2d_45">
    <path d="M 108.825735 615.812182 
L 108.882467 66.645818 
L 108.939198 340.354323 
L 109.109393 504.802596 
L 109.336319 553.296962 
L 109.619977 574.641287 
L 109.960366 585.829125 
L 110.357487 592.219389 
L 110.81134 595.957508 
L 111.265192 597.863195 
L 111.662313 598.661518 
L 112.002703 598.89992 
L 112.286361 598.849665 
L 112.62675 598.535191 
L 113.080603 597.73564 
L 113.647918 596.188802 
L 114.328697 593.607073 
L 115.179671 589.41001 
L 116.314302 582.567453 
L 119.037417 565.620072 
L 119.831659 562.16603 
L 120.455706 560.329774 
L 120.96629 559.457876 
L 121.363411 559.164936 
L 121.703801 559.163569 
L 122.100922 559.415398 
L 122.611506 560.063891 
L 123.405748 561.518378 
L 125.221158 564.950207 
L 126.128863 566.138718 
L 126.923105 566.831839 
L 127.660615 567.196739 
L 128.341394 567.299636 
L 129.022173 567.188937 
L 129.816415 566.823155 
L 130.894314 566.043616 
L 132.369335 565.003314 
L 133.163577 564.729268 
L 133.901087 564.720599 
L 134.695329 564.956059 
L 135.603034 565.48202 
L 137.021324 566.617591 
L 138.553076 567.74309 
L 139.460781 568.137351 
L 140.255023 568.245357 
L 141.105996 568.128394 
L 142.240628 567.718973 
L 144.056038 567.055267 
L 145.020475 566.960975 
L 146.041643 567.097167 
L 149.785926 567.856176 
L 151.260947 567.708308 
L 153.360015 567.50663 
L 154.948499 567.609787 
L 157.444688 567.790936 
L 158.522587 567.622216 
L 159.657219 567.208897 
L 162.153408 566.200169 
L 162.94765 566.167018 
L 163.741891 566.356929 
L 164.649597 566.815273 
L 167.769833 568.634865 
L 168.620806 568.733138 
L 169.47178 568.603962 
L 170.606411 568.182488 
L 172.535284 567.440212 
L 173.556452 567.318123 
L 174.691084 567.432036 
L 178.038246 567.94993 
L 180.080583 567.851789 
L 181.669066 567.881019 
L 183.25755 568.149273 
L 185.243155 568.46927 
L 186.264323 568.388801 
L 187.22876 568.079115 
L 188.476854 567.417281 
L 189.951875 566.671403 
L 190.746117 566.510363 
L 191.483627 566.593078 
L 192.221138 566.902985 
L 193.185574 567.57227 
L 195.398106 569.213919 
L 196.249079 569.518401 
L 197.043321 569.564432 
L 197.894294 569.384045 
L 199.085657 568.877877 
L 200.844336 568.150802 
L 201.865504 567.985572 
L 202.943404 568.047155 
L 205.042472 568.476176 
L 206.404029 568.611359 
L 207.765587 568.502356 
L 209.978118 568.294391 
L 211.169481 568.443518 
L 213.835865 568.883094 
L 214.800301 568.742546 
L 215.821469 568.352262 
L 218.601316 567.120683 
L 219.395558 567.107928 
L 220.1898 567.33686 
L 221.097505 567.85306 
L 224.16101 569.832329 
L 225.011983 569.996864 
L 225.919688 569.939325 
L 227.111051 569.614384 
L 229.210119 569.020096 
L 230.34475 568.961595 
L 231.933234 569.135101 
L 234.372692 569.375726 
L 236.585223 569.337851 
L 238.854485 569.349161 
L 241.010285 569.63225 
L 242.485306 569.721877 
L 243.563205 569.562964 
L 244.754568 569.147133 
L 246.796905 568.396891 
L 247.591147 568.361823 
L 248.328657 568.545631 
L 249.122899 568.974029 
L 250.25753 569.870438 
L 251.902746 571.149074 
L 252.753719 571.53341 
L 253.547961 571.656916 
L 254.342203 571.559279 
L 255.363371 571.18674 
L 257.802829 570.179812 
L 258.767265 570.087616 
L 259.845165 570.223342 
L 263.532717 570.909434 
L 264.837543 570.753731 
L 267.106806 570.441467 
L 268.3549 570.535055 
L 271.191478 570.852849 
L 272.269378 570.685865 
L 273.80113 570.187189 
L 275.162688 569.821021 
L 276.070393 569.808956 
L 276.921367 570.025925 
L 277.942535 570.538919 
L 280.495455 571.954537 
L 281.40316 572.125029 
L 282.254134 572.055944 
L 283.21857 571.740516 
L 284.63686 571.002851 
L 286.225343 570.242978 
L 287.246512 570.010661 
L 288.26768 570.019031 
L 289.572506 570.280104 
L 293.033131 571.07649 
L 298.252436 571.669991 
L 299.443798 571.600585 
L 300.521698 571.307289 
L 301.996719 570.633308 
L 303.415008 570.055841 
L 304.265982 569.937277 
L 305.060224 570.050619 
L 305.911197 570.4136 
L 307.045828 571.179643 
L 308.861239 572.425476 
L 309.712212 572.743176 
L 310.506454 572.80854 
L 311.300696 572.653811 
L 312.321864 572.209259 
L 314.931516 570.9527 
L 316.009416 570.758439 
L 317.25751 570.78001 
L 319.129652 571.068407 
L 325.029735 572.07935 
L 326.504756 572.08928 
L 327.75285 571.877892 
L 329.000945 571.42439 
L 331.950986 570.201475 
L 332.745228 570.200104 
L 333.53947 570.434311 
L 334.447175 570.953857 
L 337.680874 573.074185 
L 338.588579 573.267062 
L 339.496284 573.23503 
L 340.574184 572.962963 
L 344.488662 571.728282 
L 345.680025 571.767556 
L 350.21855 572.20652 
L 352.828203 572.156722 
L 354.53015 572.426865 
L 356.00517 572.593191 
L 356.969607 572.476226 
L 357.990775 572.108707 
L 360.657159 570.982147 
L 361.394669 570.981584 
L 362.132179 571.195635 
L 362.983153 571.678556 
L 364.401442 572.794128 
L 365.592805 573.616687 
L 366.50051 573.976435 
L 367.294752 574.055796 
L 368.145725 573.905738 
L 369.166894 573.482319 
L 371.776546 572.282142 
L 372.797714 572.130188 
L 373.932345 572.198673 
L 378.414139 572.735458 
L 381.023791 572.835478 
L 384.25749 573.113285 
L 385.392122 572.911865 
L 386.810411 572.409516 
L 388.682553 571.769427 
L 389.646989 571.695416 
L 390.497963 571.851765 
L 391.462399 572.268883 
L 394.866293 574.017171 
L 395.773998 574.079788 
L 396.738435 573.913068 
L 398.156724 573.399199 
L 399.745208 572.879423 
L 400.823108 572.767058 
L 402.071202 572.874792 
L 405.191438 573.24523 
L 406.893385 573.12372 
L 409.162648 572.980233 
L 410.807863 573.133377 
L 413.417516 573.408045 
L 414.608878 573.26585 
L 416.537752 572.747379 
L 417.785846 572.536053 
L 418.750283 572.59076 
L 419.771451 572.884619 
L 421.133009 573.544323 
L 422.608029 574.198048 
L 423.572466 574.397386 
L 424.536903 574.362215 
L 425.614802 574.087949 
L 428.337918 573.280934 
L 429.415817 573.266203 
L 430.834106 573.491688 
L 433.160101 573.865192 
L 434.521658 573.834065 
L 438.663063 573.531847 
L 442.237151 573.760039 
L 443.598709 573.47252 
L 445.527582 573.06106 
L 446.435287 573.100165 
L 447.342992 573.364377 
L 448.477624 573.950651 
L 450.349765 574.941755 
L 451.200739 575.126059 
L 452.051712 575.074263 
L 452.959417 574.787758 
L 454.434438 574.044235 
L 455.909459 573.383429 
L 456.873895 573.186731 
L 457.838332 573.216701 
L 459.086427 573.500787 
L 461.469152 574.077151 
L 462.83071 574.134534 
L 467.199041 574.089282 
L 469.638498 574.307067 
L 470.716398 574.148758 
L 472.077955 573.696116 
L 473.836634 573.126815 
L 474.80107 573.056141 
L 475.765507 573.219176 
L 476.95687 573.666844 
L 479.11267 574.503878 
L 480.190569 574.649116 
L 481.325201 574.572688 
L 483.140611 574.180013 
L 484.729095 573.93368 
L 485.977189 573.969416 
L 487.792599 574.280922 
L 489.664741 574.528283 
L 491.139762 574.478796 
L 494.430192 574.253945 
L 498.741792 574.379843 
L 500.046618 574.025824 
L 502.372612 573.351341 
L 503.280317 573.350939 
L 504.188022 573.576867 
L 505.322653 574.112622 
L 507.478453 575.186755 
L 508.442889 575.39695 
L 509.407326 575.381628 
L 510.598689 575.11736 
L 513.378536 574.401247 
L 514.569899 574.392993 
L 516.385309 574.64795 
L 518.143987 574.808977 
L 519.902666 574.704598 
L 521.661344 574.658829 
L 523.079634 574.863465 
L 525.972943 575.362205 
L 527.107575 575.291536 
L 528.355669 574.974414 
L 531.192248 574.127911 
L 532.099953 574.167475 
L 533.007658 574.447891 
L 534.085557 575.033843 
L 536.127894 576.201099 
L 537.035599 576.441606 
L 537.886572 576.440238 
L 538.851009 576.199302 
L 540.382761 575.532787 
L 541.744319 575.042588 
L 542.708756 574.926033 
L 543.786655 575.032211 
L 547.644402 575.66741 
L 549.573275 575.492265 
L 551.161759 575.449294 
L 552.63678 575.651471 
L 554.962774 576.001215 
L 556.040674 575.907482 
L 557.288768 575.551397 
L 559.444568 574.900189 
L 560.352273 574.877389 
L 561.259978 575.084197 
L 562.337878 575.587076 
L 564.720603 576.802182 
L 565.68504 576.9916 
L 566.649477 576.944996 
L 567.84084 576.644252 
L 569.883176 576.104228 
L 570.961076 576.075237 
L 572.436096 576.290314 
L 574.36497 576.53544 
L 576.010185 576.495798 
L 579.357348 576.358517 
L 581.853536 576.589537 
L 583.328557 576.612873 
L 584.51992 576.405884 
L 586.278599 575.818943 
L 587.469962 575.53243 
L 588.377667 575.544471 
L 589.285372 575.797797 
L 590.476735 576.402299 
L 592.292145 577.322571 
L 593.256581 577.540354 
L 594.164286 577.518209 
L 595.242186 577.253732 
L 598.759543 576.188315 
L 600.348027 576.112035 
L 606.134647 576.187912 
L 607.836594 576.60043 
L 610.389514 577.23546 
L 611.467414 577.260984 
L 612.488582 577.065751 
L 613.736677 576.583388 
L 615.722282 575.799088 
L 616.629987 575.685504 
L 617.537692 575.802423 
L 618.55886 576.170667 
L 621.565633 577.421439 
L 622.643533 577.526302 
L 623.778164 577.404051 
L 627.862837 576.723192 
L 629.564784 576.917542 
L 631.550389 577.093072 
L 633.252336 576.991916 
L 635.918719 576.814279 
L 637.790861 576.970516 
L 639.663003 577.071153 
L 640.797634 576.905312 
L 642.10246 576.468273 
L 644.031333 575.813792 
L 644.939038 575.768401 
L 645.790012 575.954912 
L 646.81118 576.42833 
L 649.647758 577.907745 
L 650.612195 578.084495 
L 651.633363 578.037702 
L 652.824726 577.740273 
L 655.547841 576.964632 
L 656.682473 576.948871 
L 658.38442 577.195905 
L 660.19983 577.388871 
L 661.958508 577.318917 
L 664.227771 577.250231 
L 666.270107 577.466712 
L 667.972054 577.570049 
L 669.220149 577.42116 
L 670.922096 576.958471 
L 672.51058 576.608823 
L 673.531748 576.612118 
L 674.552916 576.848122 
L 675.857742 577.405229 
L 676.027937 577.48732 
L 676.027937 577.48732 
" clip-path="url(#pc8b2045391)" style="fill: none; stroke: #0000ff; stroke-width: 1.5; stroke-linecap: square"/>
   </g>
   <g id="patch_3">
    <path d="M 80.465625 643.2705 
L 80.465625 39.1875 
" style="fill: none; stroke: #000000; stroke-width: 0.8; stroke-linejoin: miter; stroke-linecap: square"/>
   </g>
   <g id="patch_4">
    <path d="M 704.388047 643.2705 
L 704.388047 39.1875 
" style="fill: none; stroke: #000000; stroke-width: 0.8; stroke-linejoin: miter; stroke-linecap: square"/>
   </g>
   <g id="patch_5">
    <path d="M 80.465625 643.2705 
L 704.388047 643.2705 
" style="fill: none; stroke: #000000; stroke-width: 0.8; stroke-linejoin: miter; stroke-linecap: square"/>
   </g>
   <g id="patch_6">
    <path d="M 80.465625 39.1875 
L 704.388047 39.1875 
" style="fill: none; stroke: #000000; stroke-width: 0.8; stroke-linejoin: miter; stroke-linecap: square"/>
   </g>
  </g>
 </g>
 <defs>
  <clipPath id="pc8b2045391">
   <rect x="80.465625" y="39.1875" width="623.922422" height="604.083"/>
  </clipPath>
 </defs>
</svg>
