<?xml version="1.0" encoding="utf-8" standalone="no"?>
<!DOCTYPE svg PUBLIC "-//W3C//DTD SVG 1.1//EN"
  "http://www.w3.org/Graphics/SVG/1.1/DTD/svg11.dtd">
<svg xmlns:xlink="http://www.w3.org/1999/xlink" width="711.735pt" height="711.105187pt" viewBox="0 0 711.735 711.105187" xmlns="http://www.w3.org/2000/svg" version="1.1">
 <metadata>
  <rdf:RDF xmlns:dc="http://purl.org/dc/elements/1.1/" xmlns:cc="http://creativecommons.org/ns#" xmlns:rdf="http://www.w3.org/1999/02/22-rdf-syntax-ns#">
   <cc:Work>
    <dc:type rdf:resource="http://purl.org/dc/dcmitype/StillImage"/>
    <dc:date>2025-02-03T15:51:54.201630</dc:date>
    <dc:format>image/svg+xml</dc:format>
    <dc:creator>
     <cc:Agent>
      <dc:title>Matplotlib v3.9.3, https://matplotlib.org/</dc:title>
     </cc:Agent>
    </dc:creator>
   </cc:Work>
  </rdf:RDF>
 </metadata>
 <defs>
  <style type="text/css">*{stroke-linejoin: round; stroke-linecap: butt}</style>
 </defs>
 <g id="figure_1">
  <g id="patch_1">
   <path d="M 0 711.105187 
L 711.735 711.105187 
L 711.735 0 
L 0 0 
z
" style="fill: #ffffff"/>
  </g>
  <g id="axes_1">
   <g id="patch_2">
    <path d="M 96.125625 643.2705 
L 689.520469 643.2705 
L 689.520469 39.1875 
L 96.125625 39.1875 
z
" style="fill: #ffffff"/>
   </g>
   <g id="matplotlib.axis_1">
    <g id="xtick_1">
     <g id="line2d_1">
      <defs>
       <path id="m6c6ce88636" d="M 0 0 
L 0 -3.5 
" style="stroke: #000000; stroke-width: 0.8"/>
      </defs>
      <g>
       <use xlink:href="#m6c6ce88636" x="96.125625" y="643.2705" style="stroke: #000000; stroke-width: 0.8"/>
      </g>
     </g>
     <g id="text_1">
      <!-- 0 -->
      <g transform="translate(88.618359 666.337062) scale(0.27 -0.27)">
       <defs>
        <path id="LiberationSans-30" d="M 3309 2203 
Q 3309 1100 2920 518 
Q 2531 -63 1772 -63 
Q 1013 -63 631 515 
Q 250 1094 250 2203 
Q 250 3338 620 3903 
Q 991 4469 1791 4469 
Q 2569 4469 2939 3897 
Q 3309 3325 3309 2203 
z
M 2738 2203 
Q 2738 3156 2517 3584 
Q 2297 4013 1791 4013 
Q 1272 4013 1045 3591 
Q 819 3169 819 2203 
Q 819 1266 1048 831 
Q 1278 397 1778 397 
Q 2275 397 2506 840 
Q 2738 1284 2738 2203 
z
" transform="scale(0.015625)"/>
       </defs>
       <use xlink:href="#LiberationSans-30"/>
      </g>
     </g>
    </g>
    <g id="xtick_2">
     <g id="line2d_2">
      <g>
       <use xlink:href="#m6c6ce88636" x="214.804594" y="643.2705" style="stroke: #000000; stroke-width: 0.8"/>
      </g>
     </g>
     <g id="text_2">
      <!-- 2 -->
      <g transform="translate(207.297328 666.337062) scale(0.27 -0.27)">
       <defs>
        <path id="LiberationSans-32" d="M 322 0 
L 322 397 
Q 481 763 711 1042 
Q 941 1322 1194 1548 
Q 1447 1775 1695 1969 
Q 1944 2163 2144 2356 
Q 2344 2550 2467 2762 
Q 2591 2975 2591 3244 
Q 2591 3606 2378 3806 
Q 2166 4006 1788 4006 
Q 1428 4006 1195 3811 
Q 963 3616 922 3263 
L 347 3316 
Q 409 3844 795 4156 
Q 1181 4469 1788 4469 
Q 2453 4469 2811 4155 
Q 3169 3841 3169 3263 
Q 3169 3006 3051 2753 
Q 2934 2500 2703 2247 
Q 2472 1994 1819 1463 
Q 1459 1169 1246 933 
Q 1034 697 941 478 
L 3238 478 
L 3238 0 
L 322 0 
z
" transform="scale(0.015625)"/>
       </defs>
       <use xlink:href="#LiberationSans-32"/>
      </g>
     </g>
    </g>
    <g id="xtick_3">
     <g id="line2d_3">
      <g>
       <use xlink:href="#m6c6ce88636" x="333.483563" y="643.2705" style="stroke: #000000; stroke-width: 0.8"/>
      </g>
     </g>
     <g id="text_3">
      <!-- 4 -->
      <g transform="translate(325.976297 666.337062) scale(0.27 -0.27)">
       <defs>
        <path id="LiberationSans-34" d="M 2753 997 
L 2753 0 
L 2222 0 
L 2222 997 
L 147 997 
L 147 1434 
L 2163 4403 
L 2753 4403 
L 2753 1441 
L 3372 1441 
L 3372 997 
L 2753 997 
z
M 2222 3769 
Q 2216 3750 2134 3603 
Q 2053 3456 2013 3397 
L 884 1734 
L 716 1503 
L 666 1441 
L 2222 1441 
L 2222 3769 
z
" transform="scale(0.015625)"/>
       </defs>
       <use xlink:href="#LiberationSans-34"/>
      </g>
     </g>
    </g>
    <g id="xtick_4">
     <g id="line2d_4">
      <g>
       <use xlink:href="#m6c6ce88636" x="452.162531" y="643.2705" style="stroke: #000000; stroke-width: 0.8"/>
      </g>
     </g>
     <g id="text_4">
      <!-- 6 -->
      <g transform="translate(444.655266 666.337062) scale(0.27 -0.27)">
       <defs>
        <path id="LiberationSans-36" d="M 3278 1441 
Q 3278 744 2900 340 
Q 2522 -63 1856 -63 
Q 1113 -63 719 490 
Q 325 1044 325 2100 
Q 325 3244 734 3856 
Q 1144 4469 1900 4469 
Q 2897 4469 3156 3572 
L 2619 3475 
Q 2453 4013 1894 4013 
Q 1413 4013 1148 3564 
Q 884 3116 884 2266 
Q 1038 2550 1316 2698 
Q 1594 2847 1953 2847 
Q 2563 2847 2920 2465 
Q 3278 2084 3278 1441 
z
M 2706 1416 
Q 2706 1894 2472 2153 
Q 2238 2413 1819 2413 
Q 1425 2413 1183 2183 
Q 941 1953 941 1550 
Q 941 1041 1192 716 
Q 1444 391 1838 391 
Q 2244 391 2475 664 
Q 2706 938 2706 1416 
z
" transform="scale(0.015625)"/>
       </defs>
       <use xlink:href="#LiberationSans-36"/>
      </g>
     </g>
    </g>
    <g id="xtick_5">
     <g id="line2d_5">
      <g>
       <use xlink:href="#m6c6ce88636" x="570.8415" y="643.2705" style="stroke: #000000; stroke-width: 0.8"/>
      </g>
     </g>
     <g id="text_5">
      <!-- 8 -->
      <g transform="translate(563.334234 666.337062) scale(0.27 -0.27)">
       <defs>
        <path id="LiberationSans-38" d="M 3281 1228 
Q 3281 619 2893 278 
Q 2506 -63 1781 -63 
Q 1075 -63 676 271 
Q 278 606 278 1222 
Q 278 1653 525 1947 
Q 772 2241 1156 2303 
L 1156 2316 
Q 797 2400 589 2681 
Q 381 2963 381 3341 
Q 381 3844 757 4156 
Q 1134 4469 1769 4469 
Q 2419 4469 2795 4162 
Q 3172 3856 3172 3334 
Q 3172 2956 2962 2675 
Q 2753 2394 2391 2322 
L 2391 2309 
Q 2813 2241 3047 1952 
Q 3281 1663 3281 1228 
z
M 2588 3303 
Q 2588 4050 1769 4050 
Q 1372 4050 1164 3862 
Q 956 3675 956 3303 
Q 956 2925 1170 2726 
Q 1384 2528 1775 2528 
Q 2172 2528 2380 2711 
Q 2588 2894 2588 3303 
z
M 2697 1281 
Q 2697 1691 2453 1898 
Q 2209 2106 1769 2106 
Q 1341 2106 1100 1882 
Q 859 1659 859 1269 
Q 859 359 1788 359 
Q 2247 359 2472 579 
Q 2697 800 2697 1281 
z
" transform="scale(0.015625)"/>
       </defs>
       <use xlink:href="#LiberationSans-38"/>
      </g>
     </g>
    </g>
    <g id="xtick_6">
     <g id="line2d_6">
      <g>
       <use xlink:href="#m6c6ce88636" x="689.520469" y="643.2705" style="stroke: #000000; stroke-width: 0.8"/>
      </g>
     </g>
     <g id="text_6">
      <!-- 10 -->
      <g transform="translate(674.505937 666.337062) scale(0.27 -0.27)">
       <defs>
        <path id="LiberationSans-31" d="M 488 0 
L 488 478 
L 1609 478 
L 1609 3866 
L 616 3156 
L 616 3688 
L 1656 4403 
L 2175 4403 
L 2175 478 
L 3247 478 
L 3247 0 
L 488 0 
z
" transform="scale(0.015625)"/>
       </defs>
       <use xlink:href="#LiberationSans-31"/>
       <use xlink:href="#LiberationSans-30" x="55.615234"/>
      </g>
     </g>
    </g>
    <g id="xtick_7">
     <g id="line2d_7">
      <defs>
       <path id="m4e07618f52" d="M 0 0 
L 0 -2 
" style="stroke: #000000; stroke-width: 0.6"/>
      </defs>
      <g>
       <use xlink:href="#m4e07618f52" x="125.795367" y="643.2705" style="stroke: #000000; stroke-width: 0.6"/>
      </g>
     </g>
    </g>
    <g id="xtick_8">
     <g id="line2d_8">
      <g>
       <use xlink:href="#m4e07618f52" x="155.465109" y="643.2705" style="stroke: #000000; stroke-width: 0.6"/>
      </g>
     </g>
    </g>
    <g id="xtick_9">
     <g id="line2d_9">
      <g>
       <use xlink:href="#m4e07618f52" x="185.134852" y="643.2705" style="stroke: #000000; stroke-width: 0.6"/>
      </g>
     </g>
    </g>
    <g id="xtick_10">
     <g id="line2d_10">
      <g>
       <use xlink:href="#m4e07618f52" x="244.474336" y="643.2705" style="stroke: #000000; stroke-width: 0.6"/>
      </g>
     </g>
    </g>
    <g id="xtick_11">
     <g id="line2d_11">
      <g>
       <use xlink:href="#m4e07618f52" x="274.144078" y="643.2705" style="stroke: #000000; stroke-width: 0.6"/>
      </g>
     </g>
    </g>
    <g id="xtick_12">
     <g id="line2d_12">
      <g>
       <use xlink:href="#m4e07618f52" x="303.81382" y="643.2705" style="stroke: #000000; stroke-width: 0.6"/>
      </g>
     </g>
    </g>
    <g id="xtick_13">
     <g id="line2d_13">
      <g>
       <use xlink:href="#m4e07618f52" x="363.153305" y="643.2705" style="stroke: #000000; stroke-width: 0.6"/>
      </g>
     </g>
    </g>
    <g id="xtick_14">
     <g id="line2d_14">
      <g>
       <use xlink:href="#m4e07618f52" x="392.823047" y="643.2705" style="stroke: #000000; stroke-width: 0.6"/>
      </g>
     </g>
    </g>
    <g id="xtick_15">
     <g id="line2d_15">
      <g>
       <use xlink:href="#m4e07618f52" x="422.492789" y="643.2705" style="stroke: #000000; stroke-width: 0.6"/>
      </g>
     </g>
    </g>
    <g id="xtick_16">
     <g id="line2d_16">
      <g>
       <use xlink:href="#m4e07618f52" x="481.832273" y="643.2705" style="stroke: #000000; stroke-width: 0.6"/>
      </g>
     </g>
    </g>
    <g id="xtick_17">
     <g id="line2d_17">
      <g>
       <use xlink:href="#m4e07618f52" x="511.502016" y="643.2705" style="stroke: #000000; stroke-width: 0.6"/>
      </g>
     </g>
    </g>
    <g id="xtick_18">
     <g id="line2d_18">
      <g>
       <use xlink:href="#m4e07618f52" x="541.171758" y="643.2705" style="stroke: #000000; stroke-width: 0.6"/>
      </g>
     </g>
    </g>
    <g id="xtick_19">
     <g id="line2d_19">
      <g>
       <use xlink:href="#m4e07618f52" x="600.511242" y="643.2705" style="stroke: #000000; stroke-width: 0.6"/>
      </g>
     </g>
    </g>
    <g id="xtick_20">
     <g id="line2d_20">
      <g>
       <use xlink:href="#m4e07618f52" x="630.180984" y="643.2705" style="stroke: #000000; stroke-width: 0.6"/>
      </g>
     </g>
    </g>
    <g id="xtick_21">
     <g id="line2d_21">
      <g>
       <use xlink:href="#m4e07618f52" x="659.850727" y="643.2705" style="stroke: #000000; stroke-width: 0.6"/>
      </g>
     </g>
    </g>
    <g id="text_7">
     <!-- Time ps -->
     <g transform="translate(340.046484 697.680187) scale(0.3 -0.3)">
      <defs>
       <path id="LiberationSans-54" d="M 2250 3916 
L 2250 0 
L 1656 0 
L 1656 3916 
L 144 3916 
L 144 4403 
L 3763 4403 
L 3763 3916 
L 2250 3916 
z
" transform="scale(0.015625)"/>
       <path id="LiberationSans-69" d="M 428 4100 
L 428 4638 
L 991 4638 
L 991 4100 
L 428 4100 
z
M 428 0 
L 428 3381 
L 991 3381 
L 991 0 
L 428 0 
z
" transform="scale(0.015625)"/>
       <path id="LiberationSans-6d" d="M 2400 0 
L 2400 2144 
Q 2400 2634 2265 2821 
Q 2131 3009 1781 3009 
Q 1422 3009 1212 2734 
Q 1003 2459 1003 1959 
L 1003 0 
L 444 0 
L 444 2659 
Q 444 3250 425 3381 
L 956 3381 
Q 959 3366 962 3297 
Q 966 3228 970 3139 
Q 975 3050 981 2803 
L 991 2803 
Q 1172 3163 1406 3303 
Q 1641 3444 1978 3444 
Q 2363 3444 2586 3291 
Q 2809 3138 2897 2803 
L 2906 2803 
Q 3081 3144 3329 3294 
Q 3578 3444 3931 3444 
Q 4444 3444 4676 3166 
Q 4909 2888 4909 2253 
L 4909 0 
L 4353 0 
L 4353 2144 
Q 4353 2634 4218 2821 
Q 4084 3009 3734 3009 
Q 3366 3009 3161 2736 
Q 2956 2463 2956 1959 
L 2956 0 
L 2400 0 
z
" transform="scale(0.015625)"/>
       <path id="LiberationSans-65" d="M 863 1572 
Q 863 991 1103 675 
Q 1344 359 1806 359 
Q 2172 359 2392 506 
Q 2613 653 2691 878 
L 3184 738 
Q 2881 -63 1806 -63 
Q 1056 -63 664 384 
Q 272 831 272 1713 
Q 272 2550 664 2997 
Q 1056 3444 1784 3444 
Q 3275 3444 3275 1647 
L 3275 1572 
L 863 1572 
z
M 2694 2003 
Q 2647 2538 2422 2783 
Q 2197 3028 1775 3028 
Q 1366 3028 1127 2754 
Q 888 2481 869 2003 
L 2694 2003 
z
" transform="scale(0.015625)"/>
       <path id="LiberationSans-20" transform="scale(0.015625)"/>
       <path id="LiberationSans-70" d="M 3291 1706 
Q 3291 -63 2047 -63 
Q 1266 -63 997 525 
L 981 525 
Q 994 500 994 -6 
L 994 -1328 
L 431 -1328 
L 431 2691 
Q 431 3213 413 3381 
L 956 3381 
Q 959 3369 965 3292 
Q 972 3216 980 3056 
Q 988 2897 988 2838 
L 1000 2838 
Q 1150 3150 1397 3295 
Q 1644 3441 2047 3441 
Q 2672 3441 2981 3022 
Q 3291 2603 3291 1706 
z
M 2700 1694 
Q 2700 2400 2509 2703 
Q 2319 3006 1903 3006 
Q 1569 3006 1380 2865 
Q 1191 2725 1092 2426 
Q 994 2128 994 1650 
Q 994 984 1206 668 
Q 1419 353 1897 353 
Q 2316 353 2508 661 
Q 2700 969 2700 1694 
z
" transform="scale(0.015625)"/>
       <path id="LiberationSans-73" d="M 2969 934 
Q 2969 456 2608 196 
Q 2247 -63 1597 -63 
Q 966 -63 623 145 
Q 281 353 178 794 
L 675 891 
Q 747 619 972 492 
Q 1197 366 1597 366 
Q 2025 366 2223 497 
Q 2422 628 2422 891 
Q 2422 1091 2284 1216 
Q 2147 1341 1841 1422 
L 1438 1528 
Q 953 1653 748 1773 
Q 544 1894 428 2066 
Q 313 2238 313 2488 
Q 313 2950 642 3192 
Q 972 3434 1603 3434 
Q 2163 3434 2492 3237 
Q 2822 3041 2909 2606 
L 2403 2544 
Q 2356 2769 2151 2889 
Q 1947 3009 1603 3009 
Q 1222 3009 1040 2893 
Q 859 2778 859 2544 
Q 859 2400 934 2306 
Q 1009 2213 1156 2147 
Q 1303 2081 1775 1966 
Q 2222 1853 2419 1758 
Q 2616 1663 2730 1547 
Q 2844 1431 2906 1279 
Q 2969 1128 2969 934 
z
" transform="scale(0.015625)"/>
      </defs>
      <use xlink:href="#LiberationSans-54"/>
      <use xlink:href="#LiberationSans-69" x="57.333984"/>
      <use xlink:href="#LiberationSans-6d" x="79.550781"/>
      <use xlink:href="#LiberationSans-65" x="162.851562"/>
      <use xlink:href="#LiberationSans-20" x="218.466797"/>
      <use xlink:href="#LiberationSans-70" x="246.25"/>
      <use xlink:href="#LiberationSans-73" x="301.865234"/>
     </g>
    </g>
   </g>
   <g id="matplotlib.axis_2">
    <g id="ytick_1">
     <g id="line2d_22">
      <defs>
       <path id="macbf15394d" d="M 0 0 
L 3.5 0 
" style="stroke: #000000; stroke-width: 0.8"/>
      </defs>
      <g>
       <use xlink:href="#macbf15394d" x="96.125625" y="624.392906" style="stroke: #000000; stroke-width: 0.8"/>
      </g>
     </g>
     <g id="text_8">
      <!-- $\mathdefault{−1.5}$ -->
      <g transform="translate(39.165625 634.176187) scale(0.27 -0.27)">
       <defs>
        <path id="LiberationSans-2212" d="M 316 1900 
L 316 2356 
L 3425 2356 
L 3425 1900 
L 316 1900 
z
" transform="scale(0.015625)"/>
        <path id="LiberationSans-2e" d="M 584 0 
L 584 684 
L 1194 684 
L 1194 0 
L 584 0 
z
" transform="scale(0.015625)"/>
        <path id="LiberationSans-35" d="M 3291 1434 
Q 3291 738 2877 337 
Q 2463 -63 1728 -63 
Q 1113 -63 734 206 
Q 356 475 256 984 
L 825 1050 
Q 1003 397 1741 397 
Q 2194 397 2450 670 
Q 2706 944 2706 1422 
Q 2706 1838 2448 2094 
Q 2191 2350 1753 2350 
Q 1525 2350 1328 2278 
Q 1131 2206 934 2034 
L 384 2034 
L 531 4403 
L 3034 4403 
L 3034 3925 
L 1044 3925 
L 959 2528 
Q 1325 2809 1869 2809 
Q 2519 2809 2905 2428 
Q 3291 2047 3291 1434 
z
" transform="scale(0.015625)"/>
       </defs>
       <use xlink:href="#LiberationSans-2212" transform="translate(0 0.203125)"/>
       <use xlink:href="#LiberationSans-31" transform="translate(58.398438 0.203125)"/>
       <use xlink:href="#LiberationSans-2e" transform="translate(114.013672 0.203125)"/>
       <use xlink:href="#LiberationSans-35" transform="translate(141.796875 0.203125)"/>
      </g>
     </g>
    </g>
    <g id="ytick_2">
     <g id="line2d_23">
      <g>
       <use xlink:href="#macbf15394d" x="96.125625" y="530.004937" style="stroke: #000000; stroke-width: 0.8"/>
      </g>
     </g>
     <g id="text_9">
      <!-- $\mathdefault{−1.0}$ -->
      <g transform="translate(39.165625 539.788219) scale(0.27 -0.27)">
       <use xlink:href="#LiberationSans-2212" transform="translate(0 0.171875)"/>
       <use xlink:href="#LiberationSans-31" transform="translate(58.398438 0.171875)"/>
       <use xlink:href="#LiberationSans-2e" transform="translate(114.013672 0.171875)"/>
       <use xlink:href="#LiberationSans-30" transform="translate(141.796875 0.171875)"/>
      </g>
     </g>
    </g>
    <g id="ytick_3">
     <g id="line2d_24">
      <g>
       <use xlink:href="#macbf15394d" x="96.125625" y="435.616969" style="stroke: #000000; stroke-width: 0.8"/>
      </g>
     </g>
     <g id="text_10">
      <!-- $\mathdefault{−0.5}$ -->
      <g transform="translate(39.165625 445.40025) scale(0.27 -0.27)">
       <use xlink:href="#LiberationSans-2212" transform="translate(0 0.171875)"/>
       <use xlink:href="#LiberationSans-30" transform="translate(58.398438 0.171875)"/>
       <use xlink:href="#LiberationSans-2e" transform="translate(114.013672 0.171875)"/>
       <use xlink:href="#LiberationSans-35" transform="translate(141.796875 0.171875)"/>
      </g>
     </g>
    </g>
    <g id="ytick_4">
     <g id="line2d_25">
      <g>
       <use xlink:href="#macbf15394d" x="96.125625" y="341.229" style="stroke: #000000; stroke-width: 0.8"/>
      </g>
     </g>
     <g id="text_11">
      <!-- $\mathdefault{0.0}$ -->
      <g transform="translate(54.825625 351.012281) scale(0.27 -0.27)">
       <use xlink:href="#LiberationSans-30" transform="translate(0 0.171875)"/>
       <use xlink:href="#LiberationSans-2e" transform="translate(55.615234 0.171875)"/>
       <use xlink:href="#LiberationSans-30" transform="translate(83.398438 0.171875)"/>
      </g>
     </g>
    </g>
    <g id="ytick_5">
     <g id="line2d_26">
      <g>
       <use xlink:href="#macbf15394d" x="96.125625" y="246.841031" style="stroke: #000000; stroke-width: 0.8"/>
      </g>
     </g>
     <g id="text_12">
      <!-- $\mathdefault{0.5}$ -->
      <g transform="translate(54.825625 256.624312) scale(0.27 -0.27)">
       <use xlink:href="#LiberationSans-30" transform="translate(0 0.171875)"/>
       <use xlink:href="#LiberationSans-2e" transform="translate(55.615234 0.171875)"/>
       <use xlink:href="#LiberationSans-35" transform="translate(83.398438 0.171875)"/>
      </g>
     </g>
    </g>
    <g id="ytick_6">
     <g id="line2d_27">
      <g>
       <use xlink:href="#macbf15394d" x="96.125625" y="152.453062" style="stroke: #000000; stroke-width: 0.8"/>
      </g>
     </g>
     <g id="text_13">
      <!-- $\mathdefault{1.0}$ -->
      <g transform="translate(54.825625 162.236344) scale(0.27 -0.27)">
       <use xlink:href="#LiberationSans-31" transform="translate(0 0.171875)"/>
       <use xlink:href="#LiberationSans-2e" transform="translate(55.615234 0.171875)"/>
       <use xlink:href="#LiberationSans-30" transform="translate(83.398438 0.171875)"/>
      </g>
     </g>
    </g>
    <g id="ytick_7">
     <g id="line2d_28">
      <g>
       <use xlink:href="#macbf15394d" x="96.125625" y="58.065094" style="stroke: #000000; stroke-width: 0.8"/>
      </g>
     </g>
     <g id="text_14">
      <!-- $\mathdefault{1.5}$ -->
      <g transform="translate(54.825625 67.848375) scale(0.27 -0.27)">
       <use xlink:href="#LiberationSans-31" transform="translate(0 0.203125)"/>
       <use xlink:href="#LiberationSans-2e" transform="translate(55.615234 0.203125)"/>
       <use xlink:href="#LiberationSans-35" transform="translate(83.398438 0.203125)"/>
      </g>
     </g>
    </g>
    <g id="ytick_8">
     <g id="line2d_29">
      <defs>
       <path id="ma553bf079b" d="M 0 0 
L 2 0 
" style="stroke: #000000; stroke-width: 0.6"/>
      </defs>
      <g>
       <use xlink:href="#ma553bf079b" x="96.125625" y="643.2705" style="stroke: #000000; stroke-width: 0.6"/>
      </g>
     </g>
    </g>
    <g id="ytick_9">
     <g id="line2d_30">
      <g>
       <use xlink:href="#ma553bf079b" x="96.125625" y="605.515312" style="stroke: #000000; stroke-width: 0.6"/>
      </g>
     </g>
    </g>
    <g id="ytick_10">
     <g id="line2d_31">
      <g>
       <use xlink:href="#ma553bf079b" x="96.125625" y="586.637719" style="stroke: #000000; stroke-width: 0.6"/>
      </g>
     </g>
    </g>
    <g id="ytick_11">
     <g id="line2d_32">
      <g>
       <use xlink:href="#ma553bf079b" x="96.125625" y="567.760125" style="stroke: #000000; stroke-width: 0.6"/>
      </g>
     </g>
    </g>
    <g id="ytick_12">
     <g id="line2d_33">
      <g>
       <use xlink:href="#ma553bf079b" x="96.125625" y="548.882531" style="stroke: #000000; stroke-width: 0.6"/>
      </g>
     </g>
    </g>
    <g id="ytick_13">
     <g id="line2d_34">
      <g>
       <use xlink:href="#ma553bf079b" x="96.125625" y="511.127344" style="stroke: #000000; stroke-width: 0.6"/>
      </g>
     </g>
    </g>
    <g id="ytick_14">
     <g id="line2d_35">
      <g>
       <use xlink:href="#ma553bf079b" x="96.125625" y="492.24975" style="stroke: #000000; stroke-width: 0.6"/>
      </g>
     </g>
    </g>
    <g id="ytick_15">
     <g id="line2d_36">
      <g>
       <use xlink:href="#ma553bf079b" x="96.125625" y="473.372156" style="stroke: #000000; stroke-width: 0.6"/>
      </g>
     </g>
    </g>
    <g id="ytick_16">
     <g id="line2d_37">
      <g>
       <use xlink:href="#ma553bf079b" x="96.125625" y="454.494562" style="stroke: #000000; stroke-width: 0.6"/>
      </g>
     </g>
    </g>
    <g id="ytick_17">
     <g id="line2d_38">
      <g>
       <use xlink:href="#ma553bf079b" x="96.125625" y="416.739375" style="stroke: #000000; stroke-width: 0.6"/>
      </g>
     </g>
    </g>
    <g id="ytick_18">
     <g id="line2d_39">
      <g>
       <use xlink:href="#ma553bf079b" x="96.125625" y="397.861781" style="stroke: #000000; stroke-width: 0.6"/>
      </g>
     </g>
    </g>
    <g id="ytick_19">
     <g id="line2d_40">
      <g>
       <use xlink:href="#ma553bf079b" x="96.125625" y="378.984187" style="stroke: #000000; stroke-width: 0.6"/>
      </g>
     </g>
    </g>
    <g id="ytick_20">
     <g id="line2d_41">
      <g>
       <use xlink:href="#ma553bf079b" x="96.125625" y="360.106594" style="stroke: #000000; stroke-width: 0.6"/>
      </g>
     </g>
    </g>
    <g id="ytick_21">
     <g id="line2d_42">
      <g>
       <use xlink:href="#ma553bf079b" x="96.125625" y="322.351406" style="stroke: #000000; stroke-width: 0.6"/>
      </g>
     </g>
    </g>
    <g id="ytick_22">
     <g id="line2d_43">
      <g>
       <use xlink:href="#ma553bf079b" x="96.125625" y="303.473812" style="stroke: #000000; stroke-width: 0.6"/>
      </g>
     </g>
    </g>
    <g id="ytick_23">
     <g id="line2d_44">
      <g>
       <use xlink:href="#ma553bf079b" x="96.125625" y="284.596219" style="stroke: #000000; stroke-width: 0.6"/>
      </g>
     </g>
    </g>
    <g id="ytick_24">
     <g id="line2d_45">
      <g>
       <use xlink:href="#ma553bf079b" x="96.125625" y="265.718625" style="stroke: #000000; stroke-width: 0.6"/>
      </g>
     </g>
    </g>
    <g id="ytick_25">
     <g id="line2d_46">
      <g>
       <use xlink:href="#ma553bf079b" x="96.125625" y="227.963437" style="stroke: #000000; stroke-width: 0.6"/>
      </g>
     </g>
    </g>
    <g id="ytick_26">
     <g id="line2d_47">
      <g>
       <use xlink:href="#ma553bf079b" x="96.125625" y="209.085844" style="stroke: #000000; stroke-width: 0.6"/>
      </g>
     </g>
    </g>
    <g id="ytick_27">
     <g id="line2d_48">
      <g>
       <use xlink:href="#ma553bf079b" x="96.125625" y="190.20825" style="stroke: #000000; stroke-width: 0.6"/>
      </g>
     </g>
    </g>
    <g id="ytick_28">
     <g id="line2d_49">
      <g>
       <use xlink:href="#ma553bf079b" x="96.125625" y="171.330656" style="stroke: #000000; stroke-width: 0.6"/>
      </g>
     </g>
    </g>
    <g id="ytick_29">
     <g id="line2d_50">
      <g>
       <use xlink:href="#ma553bf079b" x="96.125625" y="133.575469" style="stroke: #000000; stroke-width: 0.6"/>
      </g>
     </g>
    </g>
    <g id="ytick_30">
     <g id="line2d_51">
      <g>
       <use xlink:href="#ma553bf079b" x="96.125625" y="114.697875" style="stroke: #000000; stroke-width: 0.6"/>
      </g>
     </g>
    </g>
    <g id="ytick_31">
     <g id="line2d_52">
      <g>
       <use xlink:href="#ma553bf079b" x="96.125625" y="95.820281" style="stroke: #000000; stroke-width: 0.6"/>
      </g>
     </g>
    </g>
    <g id="ytick_32">
     <g id="line2d_53">
      <g>
       <use xlink:href="#ma553bf079b" x="96.125625" y="76.942687" style="stroke: #000000; stroke-width: 0.6"/>
      </g>
     </g>
    </g>
    <g id="ytick_33">
     <g id="line2d_54">
      <g>
       <use xlink:href="#ma553bf079b" x="96.125625" y="39.1875" style="stroke: #000000; stroke-width: 0.6"/>
      </g>
     </g>
    </g>
    <g id="text_15">
     <!-- Heat Flux $\mathrm{W} / \mathrm{m}^2$ -->
     <g transform="translate(28.940625 445.779) rotate(-90) scale(0.3 -0.3)">
      <defs>
       <path id="LiberationSans-48" d="M 3503 0 
L 3503 2041 
L 1122 2041 
L 1122 0 
L 525 0 
L 525 4403 
L 1122 4403 
L 1122 2541 
L 3503 2541 
L 3503 4403 
L 4100 4403 
L 4100 0 
L 3503 0 
z
" transform="scale(0.015625)"/>
       <path id="LiberationSans-61" d="M 1294 -63 
Q 784 -63 528 206 
Q 272 475 272 944 
Q 272 1469 617 1750 
Q 963 2031 1731 2050 
L 2491 2063 
L 2491 2247 
Q 2491 2659 2316 2837 
Q 2141 3016 1766 3016 
Q 1388 3016 1216 2887 
Q 1044 2759 1009 2478 
L 422 2531 
Q 566 3444 1778 3444 
Q 2416 3444 2737 3151 
Q 3059 2859 3059 2306 
L 3059 850 
Q 3059 600 3125 473 
Q 3191 347 3375 347 
Q 3456 347 3559 369 
L 3559 19 
Q 3347 -31 3125 -31 
Q 2813 -31 2670 133 
Q 2528 297 2509 647 
L 2491 647 
Q 2275 259 1989 98 
Q 1703 -63 1294 -63 
z
M 1422 359 
Q 1731 359 1972 500 
Q 2213 641 2352 886 
Q 2491 1131 2491 1391 
L 2491 1669 
L 1875 1656 
Q 1478 1650 1273 1575 
Q 1069 1500 959 1344 
Q 850 1188 850 934 
Q 850 659 998 509 
Q 1147 359 1422 359 
z
" transform="scale(0.015625)"/>
       <path id="LiberationSans-74" d="M 1731 25 
Q 1453 -50 1163 -50 
Q 488 -50 488 716 
L 488 2972 
L 97 2972 
L 97 3381 
L 509 3381 
L 675 4138 
L 1050 4138 
L 1050 3381 
L 1675 3381 
L 1675 2972 
L 1050 2972 
L 1050 838 
Q 1050 594 1129 495 
Q 1209 397 1406 397 
Q 1519 397 1731 441 
L 1731 25 
z
" transform="scale(0.015625)"/>
       <path id="LiberationSans-46" d="M 1122 3916 
L 1122 2278 
L 3578 2278 
L 3578 1784 
L 1122 1784 
L 1122 0 
L 525 0 
L 525 4403 
L 3653 4403 
L 3653 3916 
L 1122 3916 
z
" transform="scale(0.015625)"/>
       <path id="LiberationSans-6c" d="M 431 0 
L 431 4638 
L 994 4638 
L 994 0 
L 431 0 
z
" transform="scale(0.015625)"/>
       <path id="LiberationSans-75" d="M 981 3381 
L 981 1238 
Q 981 903 1047 718 
Q 1113 534 1256 453 
Q 1400 372 1678 372 
Q 2084 372 2318 650 
Q 2553 928 2553 1422 
L 2553 3381 
L 3116 3381 
L 3116 722 
Q 3116 131 3134 0 
L 2603 0 
Q 2600 16 2597 84 
Q 2594 153 2589 242 
Q 2584 331 2578 578 
L 2569 578 
Q 2375 228 2120 82 
Q 1866 -63 1488 -63 
Q 931 -63 673 214 
Q 416 491 416 1128 
L 416 3381 
L 981 3381 
z
" transform="scale(0.015625)"/>
       <path id="LiberationSans-78" d="M 2503 0 
L 1594 1388 
L 678 0 
L 72 0 
L 1275 1738 
L 128 3381 
L 750 3381 
L 1594 2066 
L 2431 3381 
L 3059 3381 
L 1913 1744 
L 3131 0 
L 2503 0 
z
" transform="scale(0.015625)"/>
       <path id="STIXGeneral-Regular-57" d="M 5965 4237 
L 5965 4115 
Q 5709 4064 5616 3990 
Q 5523 3917 5434 3667 
Q 4704 1709 4128 -70 
L 4032 -70 
Q 3642 1011 3008 2637 
L 2022 -70 
L 1926 -70 
Q 1709 576 1277 1753 
Q 845 2931 698 3347 
Q 538 3808 406 3958 
Q 275 4109 32 4115 
L 32 4237 
L 1594 4237 
L 1594 4115 
Q 1357 4109 1270 4064 
Q 1184 4019 1184 3917 
Q 1184 3808 1254 3616 
L 2176 1210 
L 2842 3021 
L 2662 3501 
Q 2509 3917 2400 4013 
Q 2291 4109 2010 4115 
L 2010 4237 
L 3706 4237 
L 3706 4115 
Q 3213 4102 3213 3891 
Q 3213 3808 3322 3520 
L 4237 1190 
L 5043 3360 
Q 5152 3667 5152 3853 
Q 5152 4109 4704 4115 
L 4704 4237 
L 5965 4237 
z
" transform="scale(0.015625)"/>
       <path id="STIXGeneral-Regular-2f" d="M 1837 4326 
L 378 -90 
L -58 -90 
L 1408 4326 
L 1837 4326 
z
" transform="scale(0.015625)"/>
       <path id="STIXGeneral-Regular-6d" d="M 4960 0 
L 3565 0 
L 3565 96 
Q 3834 122 3907 208 
Q 3981 294 3981 576 
L 3981 1894 
Q 3981 2278 3869 2444 
Q 3757 2611 3488 2611 
Q 3264 2611 3107 2521 
Q 2950 2432 2803 2221 
L 2803 608 
Q 2803 301 2896 201 
Q 2989 102 3264 96 
L 3264 0 
L 1830 0 
L 1830 96 
Q 2112 115 2189 188 
Q 2266 262 2266 550 
L 2266 1901 
Q 2266 2611 1850 2611 
Q 1670 2611 1468 2531 
Q 1267 2451 1171 2336 
Q 1088 2240 1088 2227 
L 1088 448 
Q 1088 243 1177 176 
Q 1267 109 1523 96 
L 1523 0 
L 102 0 
L 102 96 
Q 371 102 460 195 
Q 550 288 550 563 
L 550 2150 
Q 550 2387 499 2480 
Q 448 2573 326 2573 
Q 230 2573 122 2547 
L 122 2656 
Q 557 2778 1011 2944 
L 1062 2925 
L 1062 2451 
L 1075 2451 
Q 1363 2752 1584 2848 
Q 1805 2944 2054 2944 
Q 2560 2944 2733 2406 
Q 3232 2944 3776 2944 
Q 4518 2944 4518 1792 
L 4518 493 
Q 4518 282 4582 202 
Q 4646 122 4794 109 
L 4960 96 
L 4960 0 
z
" transform="scale(0.015625)"/>
       <path id="STIXGeneral-Regular-32" d="M 3034 877 
L 2688 0 
L 186 0 
L 186 77 
L 1325 1286 
Q 1773 1754 1965 2144 
Q 2157 2534 2157 2950 
Q 2157 3379 1920 3616 
Q 1683 3853 1267 3853 
Q 922 3853 720 3673 
Q 518 3494 326 3021 
L 192 3053 
Q 301 3648 630 3987 
Q 960 4326 1523 4326 
Q 2054 4326 2380 4006 
Q 2707 3686 2707 3200 
Q 2707 2477 1888 1613 
L 832 486 
L 2330 486 
Q 2541 486 2665 569 
Q 2790 653 2944 915 
L 3034 877 
z
" transform="scale(0.015625)"/>
      </defs>
      <use xlink:href="#LiberationSans-48" transform="translate(0 0.409375)"/>
      <use xlink:href="#LiberationSans-65" transform="translate(72.216797 0.409375)"/>
      <use xlink:href="#LiberationSans-61" transform="translate(127.832031 0.409375)"/>
      <use xlink:href="#LiberationSans-74" transform="translate(183.447266 0.409375)"/>
      <use xlink:href="#LiberationSans-20" transform="translate(211.230469 0.409375)"/>
      <use xlink:href="#LiberationSans-46" transform="translate(239.013672 0.409375)"/>
      <use xlink:href="#LiberationSans-6c" transform="translate(300.097656 0.409375)"/>
      <use xlink:href="#LiberationSans-75" transform="translate(322.314453 0.409375)"/>
      <use xlink:href="#LiberationSans-78" transform="translate(377.929688 0.409375)"/>
      <use xlink:href="#LiberationSans-20" transform="translate(427.929688 0.409375)"/>
      <use xlink:href="#STIXGeneral-Regular-57" transform="translate(455.712891 0.409375)"/>
      <use xlink:href="#STIXGeneral-Regular-2f" transform="translate(550.112885 0.409375)"/>
      <use xlink:href="#STIXGeneral-Regular-6d" transform="translate(577.912872 0.409375)"/>
      <use xlink:href="#STIXGeneral-Regular-32" transform="translate(657.256141 35.684375) scale(0.7)"/>
     </g>
    </g>
    <g id="text_16">
     <!-- $\times\mathdefault{10^{10}}\mathdefault{}$ -->
     <g transform="translate(96.125625 36.1875) scale(0.4 -0.4)">
      <defs>
       <path id="STIXGeneral-Regular-d7" d="M 3821 141 
L 3526 -160 
L 2048 1312 
L 570 -160 
L 275 134 
L 1747 1613 
L 275 3091 
L 576 3386 
L 2048 1914 
L 3526 3386 
L 3821 3098 
L 2349 1613 
L 3821 141 
z
" transform="scale(0.015625)"/>
      </defs>
      <use xlink:href="#STIXGeneral-Regular-d7" transform="translate(0 0.140625)"/>
      <use xlink:href="#LiberationSans-31" transform="translate(63.999985 0.140625)"/>
      <use xlink:href="#LiberationSans-30" transform="translate(119.615219 0.140625)"/>
      <use xlink:href="#LiberationSans-31" transform="translate(176.154946 37.120312) scale(0.7)"/>
      <use xlink:href="#LiberationSans-30" transform="translate(215.08561 37.120312) scale(0.7)"/>
     </g>
    </g>
   </g>
   <g id="line2d_55">
    <path d="M 96.125625 349.078453 
L 96.362991 349.249429 
L 96.600357 349.034219 
L 96.897064 348.428197 
L 97.96521 345.324715 
L 98.558625 343.293797 
L 98.974015 340.964017 
L 99.389405 337.195262 
L 99.864137 330.362017 
L 100.39821 318.857334 
L 101.228991 294.826893 
L 102.119113 270.701498 
L 102.534503 264.196846 
L 102.83121 262.191649 
L 102.949893 262.042214 
L 103.068576 262.284847 
L 103.2466 263.309146 
L 103.543308 266.579424 
L 104.077381 275.88453 
L 105.026844 292.688741 
L 105.501576 297.373141 
L 105.916966 299.351135 
L 106.391698 300.392064 
L 106.807088 301.384686 
L 107.163137 302.95432 
L 107.519186 305.553633 
L 108.053259 311.309241 
L 109.596137 329.418613 
L 110.011527 331.714015 
L 110.308235 332.418553 
L 110.5456 332.509203 
L 110.782966 332.259313 
L 111.198356 331.330343 
L 111.851113 329.9424 
L 112.088478 329.877556 
L 112.266503 330.101814 
L 112.503869 330.807054 
L 112.800576 332.439496 
L 113.156625 335.636873 
L 113.631356 342.202958 
L 114.224771 354.062847 
L 115.055552 375.90916 
L 116.361064 409.942611 
L 116.954478 419.887742 
L 117.488551 425.247053 
L 118.141308 429.306907 
L 118.912747 434.256102 
L 119.684186 439.203032 
L 119.921551 439.798091 
L 120.040234 439.816894 
L 120.218259 439.382898 
L 120.455625 437.876447 
L 120.752332 434.428492 
L 121.167722 426.701648 
L 121.820478 409.393027 
L 123.778746 354.476074 
L 124.906234 323.902863 
L 125.796356 292.508479 
L 127.16121 243.6369 
L 127.695283 231.47399 
L 128.110673 226.026729 
L 128.407381 224.206608 
L 128.644746 223.828112 
L 128.763429 223.963124 
L 129.000795 224.779882 
L 129.356844 227.219566 
L 129.831576 232.432519 
L 130.365649 240.895495 
L 130.899722 253.216372 
L 131.433795 271.415467 
L 132.02721 300.537214 
L 132.85799 355.03607 
L 133.926137 422.917445 
L 134.400868 440.406743 
L 134.697576 445.170711 
L 134.816259 445.627625 
L 134.8756 445.544582 
L 134.994283 444.766297 
L 135.231649 440.705443 
L 135.528356 431.165141 
L 136.003088 406.85754 
L 136.774527 352.11887 
L 137.664649 291.863224 
L 138.13938 273.107051 
L 138.436088 268.513358 
L 138.495429 268.290622 
L 138.554771 268.309707 
L 138.673454 269.037797 
L 138.851478 271.841912 
L 139.148185 280.806636 
L 139.622917 304.14257 
L 141.462502 406.204583 
L 141.877893 415.19817 
L 142.115258 417.245691 
L 142.233941 417.497065 
L 142.293283 417.445076 
L 142.411966 417.031827 
L 142.649332 415.0167 
L 143.00538 409.70094 
L 143.658136 396.073922 
L 145.319697 355.997799 
L 146.209819 328.005742 
L 147.515331 286.929508 
L 147.990063 278.131058 
L 148.346112 274.783343 
L 148.583478 274.057009 
L 148.702161 274.107696 
L 148.880185 274.693864 
L 149.176892 276.78737 
L 149.592283 281.550678 
L 150.363722 293.67721 
L 151.194502 310.240561 
L 151.965941 330.365511 
L 153.330795 367.727157 
L 153.686844 371.980789 
L 153.864868 372.583192 
L 153.983551 372.390508 
L 154.161575 371.216832 
L 154.458283 367.108407 
L 154.933014 356.065137 
L 156.357209 319.148388 
L 156.713258 315.170672 
L 156.950624 314.330336 
L 157.069307 314.458628 
L 157.247331 315.28154 
L 157.544039 318.183045 
L 158.078112 326.617008 
L 158.849551 338.625093 
L 159.2056 341.146763 
L 159.324282 341.359591 
L 159.383624 341.323475 
L 159.502307 341.007743 
L 159.739673 339.36213 
L 160.095721 334.450252 
L 160.570453 324.23751 
L 161.519917 297.59667 
L 162.825429 262.939617 
L 163.656209 246.493986 
L 164.368307 236.477591 
L 167.157356 205.304379 
L 167.216697 205.287275 
L 167.33538 205.657088 
L 167.513404 207.326773 
L 167.75077 212.003716 
L 168.047477 222.327834 
L 168.462868 245.87144 
L 168.996941 290.451558 
L 170.895868 463.551107 
L 171.311258 480.245092 
L 171.607965 485.806016 
L 171.78599 486.897631 
L 171.845331 486.927269 
L 171.964014 486.527045 
L 172.20138 484.183524 
L 172.61677 476.807199 
L 173.447551 461.920989 
L 173.744258 459.890666 
L 173.862941 459.813004 
L 173.981624 460.184968 
L 174.21899 462.201604 
L 174.575038 468.089601 
L 175.346477 486.98781 
L 175.88055 497.355308 
L 176.177258 499.740889 
L 176.295941 499.825914 
L 176.414624 499.403206 
L 176.65199 496.923502 
L 176.948697 490.794608 
L 177.364087 476.812938 
L 177.957502 447.588742 
L 178.728941 397.153173 
L 180.153136 284.872096 
L 180.924575 233.2287 
L 181.399307 213.002775 
L 181.755355 205.361578 
L 181.992721 204.003259 
L 182.111404 204.426495 
L 182.289428 206.346403 
L 182.586136 212.724689 
L 183.001526 227.164311 
L 183.713624 260.902894 
L 184.900453 316.423313 
L 185.493867 335.245065 
L 185.968599 344.566736 
L 186.324648 348.363047 
L 186.621355 349.655786 
L 186.79938 349.702155 
L 186.977404 349.274428 
L 187.274111 347.62255 
L 187.748843 343.154743 
L 189.173038 328.049047 
L 189.529087 326.52857 
L 189.766453 326.227673 
L 189.944477 326.333401 
L 190.241184 326.865046 
L 190.656575 327.547794 
L 190.834599 327.482904 
L 191.012623 327.046649 
L 191.249989 325.755943 
L 191.546697 322.806407 
L 191.962087 316.144246 
L 192.614843 301.152001 
L 193.623648 278.382413 
L 194.039038 273.373791 
L 194.276404 272.319327 
L 194.395087 272.333636 
L 194.573111 273.070051 
L 194.810477 275.385123 
L 195.166526 281.624093 
L 195.641257 294.473655 
L 196.590721 328.171948 
L 197.302818 349.930259 
L 197.718209 357.256585 
L 197.955575 358.975052 
L 198.074257 359.090609 
L 198.19294 358.684388 
L 198.370965 357.090377 
L 198.667672 351.785484 
L 199.083062 339.087917 
L 199.676477 312.381186 
L 201.338038 232.602833 
L 201.81277 220.47698 
L 202.168818 215.806022 
L 202.406184 214.730735 
L 202.524867 214.781365 
L 202.702892 215.575507 
L 202.940257 217.897659 
L 203.296306 223.922632 
L 203.771038 236.510004 
L 204.364452 259.464176 
L 205.017209 294.245331 
L 205.847989 352.3053 
L 207.450209 469.482069 
L 207.92494 488.036347 
L 208.221648 492.828971 
L 208.34033 493.18623 
L 208.459013 492.6687 
L 208.637038 490.244006 
L 208.933745 482.071027 
L 209.349135 463.164305 
L 210.061233 418.064299 
L 211.248062 343.505874 
L 211.841477 319.806688 
L 212.256867 310.938919 
L 212.494233 308.850283 
L 212.612916 308.617881 
L 212.731599 308.897005 
L 212.909623 310.248811 
L 213.20633 314.778433 
L 213.681062 326.614465 
L 214.927233 361.046547 
L 215.22394 364.350484 
L 215.342623 364.742006 
L 215.401964 364.725998 
L 215.520647 364.249357 
L 215.698672 362.420005 
L 215.995379 356.358776 
L 216.410769 342.044357 
L 217.063525 309.854439 
L 218.191013 254.498595 
L 218.665745 241.547546 
L 218.962452 238.028008 
L 219.140477 237.630861 
L 219.25916 238.060874 
L 219.496525 240.467805 
L 219.852574 247.48623 
L 220.386647 263.527729 
L 222.166891 321.905838 
L 222.700964 331.828404 
L 223.175696 336.842757 
L 223.531745 338.708822 
L 223.887794 339.519819 
L 224.54055 340.439987 
L 224.837257 341.486779 
L 225.133964 343.443346 
L 225.490013 347.319825 
L 225.964745 355.494356 
L 226.558159 370.35405 
L 228.21972 415.440691 
L 228.635111 420.363533 
L 228.872476 421.394571 
L 228.991159 421.428928 
L 229.169184 420.932409 
L 229.40655 419.359264 
L 229.762598 415.340677 
L 230.356013 405.738042 
L 231.364818 385.494579 
L 232.25494 363.298908 
L 233.08572 336.48612 
L 235.162671 265.771539 
L 235.578062 259.117451 
L 235.93411 256.504623 
L 236.171476 256.119199 
L 236.290159 256.251738 
L 236.527525 257.027664 
L 237.002257 259.701033 
L 238.189086 267.837559 
L 238.604476 272.656178 
L 239.019867 280.394576 
L 239.494598 293.887789 
L 240.088013 317.81933 
L 242.046281 403.354821 
L 242.461671 411.654469 
L 242.81772 414.901773 
L 242.995744 415.365237 
L 243.114427 415.292294 
L 243.292452 414.710241 
L 243.589159 412.865693 
L 244.657305 405.300252 
L 244.894671 404.809396 
L 245.072696 404.8265 
L 245.310062 405.299931 
L 246.200183 408.019796 
L 246.259525 408.000087 
L 246.378208 407.781447 
L 246.556232 406.942187 
L 246.793598 404.71044 
L 247.090305 399.810383 
L 247.505696 388.572268 
L 248.039769 366.619099 
L 248.751866 326.82604 
L 250.828818 203.964749 
L 251.303549 188.871546 
L 251.600257 184.308813 
L 251.778281 183.600299 
L 251.896964 184.018457 
L 252.074988 186.029128 
L 252.371696 193.108868 
L 252.727744 207.780194 
L 253.202476 237.040804 
L 253.914574 296.747877 
L 255.220086 408.366181 
L 255.635476 428.183916 
L 255.932183 434.344185 
L 256.050866 434.795435 
L 256.169549 434.109555 
L 256.347574 430.96821 
L 256.644281 420.405045 
L 257.059671 396.339473 
L 257.890452 330.847488 
L 258.721232 271.435572 
L 259.195964 251.810029 
L 259.492671 246.9751 
L 259.552013 246.750589 
L 259.611354 246.775885 
L 259.730037 247.563175 
L 259.908061 250.608754 
L 260.204769 260.459554 
L 260.620159 283.112043 
L 261.332256 336.8783 
L 262.222378 400.32459 
L 262.69711 420.082465 
L 262.993817 425.738513 
L 263.171842 426.654718 
L 263.231183 426.565993 
L 263.409208 425.160745 
L 263.646573 420.887745 
L 264.061964 408.112975 
L 264.774061 377.410155 
L 265.901549 330.427837 
L 266.494964 314.645006 
L 266.910354 308.778718 
L 267.14772 307.432538 
L 267.266403 307.325219 
L 267.385086 307.558414 
L 267.56311 308.564722 
L 267.859817 311.797246 
L 268.334549 320.125474 
L 269.699403 346.020311 
L 269.99611 348.156435 
L 270.174134 348.444507 
L 270.292817 348.21185 
L 270.470842 347.23676 
L 270.767549 343.964144 
L 271.182939 336.579875 
L 272.8445 303.368815 
L 273.141207 301.309874 
L 273.319232 300.930076 
L 273.437915 301.014912 
L 273.615939 301.593397 
L 273.912646 303.69098 
L 274.387378 309.145529 
L 275.574207 323.78262 
L 275.930256 325.880401 
L 276.167622 326.25735 
L 276.286305 326.096891 
L 276.464329 325.431299 
L 276.701695 323.7088 
L 277.057744 319.396006 
L 277.591817 309.610163 
L 278.897329 284.014506 
L 279.253378 281.121647 
L 279.431402 280.846071 
L 279.550085 281.117059 
L 279.787451 282.780572 
L 280.084159 286.892093 
L 280.499549 296.157008 
L 281.092963 315.067336 
L 282.042427 353.674397 
L 283.40728 408.259579 
L 283.941354 421.805762 
L 284.297402 426.758261 
L 284.534768 428.13357 
L 284.653451 428.262353 
L 284.772134 428.015736 
L 284.950158 426.978412 
L 285.246866 423.622788 
L 285.662256 416.03273 
L 286.315012 399.025113 
L 287.561183 358.74144 
L 288.569988 328.68071 
L 289.104061 318.239866 
L 289.46011 314.740036 
L 289.638134 314.198098 
L 289.756817 314.308173 
L 289.934841 315.201178 
L 290.172207 317.708934 
L 290.528256 324.071074 
L 291.121671 339.720597 
L 292.189817 368.566134 
L 292.605207 374.142934 
L 292.842573 375.016174 
L 292.961256 374.75236 
L 293.13928 373.471024 
L 293.435988 369.029693 
L 293.851378 358.36759 
L 294.504134 334.37448 
L 295.57228 295.18636 
L 296.047012 285.279682 
L 296.343719 282.619678 
L 296.462402 282.348256 
L 296.521744 282.376025 
L 296.640427 282.76126 
L 296.877792 284.744936 
L 297.233841 290.292835 
L 297.886597 305.086261 
L 298.598695 319.772331 
L 298.954744 323.636023 
L 299.192109 324.400552 
L 299.310792 324.198037 
L 299.488817 323.171502 
L 299.785524 319.544704 
L 300.200914 310.983451 
L 300.913012 290.602692 
L 301.743792 268.736284 
L 302.159183 263.01894 
L 302.396548 262.091881 
L 302.515231 262.33946 
L 302.693256 263.641278 
L 302.989963 268.286846 
L 303.405353 279.835063 
L 303.939426 301.9055 
L 305.541646 373.89813 
L 305.897695 380.654062 
L 306.135061 381.939664 
L 306.253743 381.564906 
L 306.431768 379.778066 
L 306.728475 373.696271 
L 307.143865 359.788905 
L 308.864768 294.519811 
L 309.161475 290.789127 
L 309.339499 290.167657 
L 309.458182 290.411499 
L 309.636207 291.740595 
L 309.932914 296.23871 
L 310.348304 306.381453 
L 312.128548 355.419144 
L 312.484597 358.566012 
L 312.662621 358.95301 
L 312.781304 358.817386 
L 312.959329 358.109933 
L 313.315377 355.291139 
L 314.442865 344.983044 
L 314.739573 344.041809 
L 314.917597 343.909845 
L 315.095621 344.023335 
L 315.45167 344.643981 
L 315.807719 345.191909 
L 315.985743 345.192105 
L 316.163768 344.920851 
L 316.401134 344.059557 
L 316.757182 341.683776 
L 317.350597 335.758785 
L 318.003353 329.795748 
L 318.30006 328.532387 
L 318.478085 328.422801 
L 318.596768 328.646391 
L 318.834133 329.829204 
L 319.130841 332.680108 
L 319.546231 339.061259 
L 320.198987 353.269998 
L 321.91989 393.199978 
L 322.275938 396.54186 
L 322.453963 396.938082 
L 322.572646 396.673777 
L 322.75067 395.44998 
L 323.047377 391.166408 
L 323.462768 380.761437 
L 324.056182 358.775495 
L 326.073792 277.347506 
L 326.607865 265.471593 
L 327.082597 259.126758 
L 327.557328 255.697662 
L 328.150743 253.292109 
L 328.625475 251.256066 
L 329.159548 247.846112 
L 330.227694 238.752832 
L 330.88045 234.264325 
L 331.355182 232.294335 
L 331.711231 231.628032 
L 331.948597 231.579799 
L 332.126621 231.771954 
L 332.363987 232.36607 
L 332.660694 233.730354 
L 333.076084 236.91187 
L 333.550816 242.718278 
L 334.084889 252.443618 
L 334.678304 267.852208 
L 335.33106 291.170341 
L 336.161841 330.063224 
L 338.001426 420.056602 
L 338.535499 435.29856 
L 338.891548 440.494769 
L 339.128914 441.564298 
L 339.247597 441.3954 
L 339.425621 440.291986 
L 339.722328 436.347173 
L 340.137718 427.122089 
L 341.977304 380.702804 
L 342.392694 376.633701 
L 342.748743 375.124796 
L 343.104792 374.61125 
L 343.342157 374.287178 
L 343.579523 373.499057 
L 343.816889 371.840113 
L 344.113596 367.872156 
L 344.469645 359.44645 
L 344.885035 343.408924 
L 345.419109 312.413788 
L 346.249889 247.916091 
L 347.140011 184.147693 
L 347.555401 167.402739 
L 347.792767 163.426513 
L 347.91145 163.106066 
L 348.030133 163.911724 
L 348.208157 167.263441 
L 348.504865 178.329373 
L 348.920255 204.040939 
L 349.632352 265.945364 
L 350.700499 356.3019 
L 351.234572 383.346478 
L 351.590621 392.486556 
L 351.827987 394.786206 
L 351.887328 394.927033 
L 351.94667 394.89983 
L 352.065352 394.38821 
L 352.302718 391.680785 
L 352.658767 384.258115 
L 353.311523 364.68492 
L 354.320328 335.714253 
L 354.854401 326.306666 
L 355.269791 322.453728 
L 355.566499 321.354462 
L 355.744523 321.319972 
L 355.922547 321.66581 
L 356.219255 323.028636 
L 356.634645 326.374569 
L 357.168718 332.603352 
L 358.652255 351.436661 
L 358.889621 352.406204 
L 359.008304 352.452996 
L 359.126986 352.182765 
L 359.305011 351.144945 
L 359.601718 347.681386 
L 360.017108 339.338299 
L 360.669864 320.226356 
L 361.619328 292.843537 
L 362.034718 286.178123 
L 362.331425 284.414899 
L 362.450108 284.433362 
L 362.628133 285.247949 
L 362.865499 287.706095 
L 363.221547 294.194361 
L 363.755621 309.032056 
L 364.586401 339.655911 
L 365.654547 377.900897 
L 366.129279 388.342509 
L 366.425986 391.489064 
L 366.604011 392.012125 
L 366.722694 391.775003 
L 366.900718 390.572349 
L 367.197425 386.461867 
L 367.612816 377.043684 
L 368.562279 348.268781 
L 369.452401 324.810507 
L 370.105157 313.191469 
L 370.63923 307.444941 
L 370.995279 305.74356 
L 371.173303 305.624405 
L 371.351328 306.030405 
L 371.588694 307.450472 
L 371.944742 311.476213 
L 372.419474 320.154564 
L 373.190913 339.511462 
L 374.199718 363.650805 
L 374.67445 370.559684 
L 375.030498 372.940111 
L 375.208523 373.15726 
L 375.327206 372.931276 
L 375.50523 372.028493 
L 375.801937 369.010418 
L 376.217328 361.69386 
L 376.751401 347.585463 
L 377.582181 318.306429 
L 378.828352 274.999643 
L 379.303084 265.688006 
L 379.599791 263.4189 
L 379.718474 263.381862 
L 379.837157 263.834245 
L 380.074523 266.292428 
L 380.37123 272.169646 
L 380.78662 285.072727 
L 381.498718 315.456497 
L 382.566864 359.527807 
L 383.100937 372.663554 
L 383.456986 377.058975 
L 383.694352 378.130883 
L 383.813035 378.170695 
L 383.991059 377.679897 
L 384.287767 375.646742 
L 384.762498 370.263192 
L 385.949327 356.03561 
L 386.483401 352.148776 
L 387.017474 349.716332 
L 387.67023 347.771428 
L 388.441669 346.096442 
L 388.738376 345.806018 
L 388.975742 345.840436 
L 389.272449 346.259452 
L 389.569157 347.08667 
L 390.221913 349.785534 
L 390.696644 351.282623 
L 390.93401 351.43882 
L 391.112035 351.175417 
L 391.349401 350.20159 
L 391.705449 347.328924 
L 392.12084 341.772433 
L 392.714254 330.420237 
L 394.672522 290.034891 
L 395.147254 284.803419 
L 395.503303 282.891402 
L 395.681327 282.681653 
L 395.80001 282.811625 
L 395.978035 283.455163 
L 396.274742 285.767441 
L 396.630791 290.639824 
L 397.105522 300.583974 
L 397.758278 319.688797 
L 399.479181 373.154201 
L 399.894571 378.993117 
L 400.131937 380.154466 
L 400.25062 380.107159 
L 400.428644 379.278263 
L 400.66601 376.721387 
L 401.022059 370.084195 
L 401.556132 355.109066 
L 403.336376 300.63198 
L 403.751766 295.225493 
L 403.989132 294.292072 
L 404.107815 294.442451 
L 404.285839 295.444926 
L 404.523205 298.209852 
L 404.879254 305.189484 
L 405.413327 320.738693 
L 407.074888 373.436799 
L 407.490278 379.730287 
L 407.786986 381.76178 
L 407.96501 382.053005 
L 408.083693 381.902059 
L 408.321059 380.889748 
L 408.677108 378.023091 
L 410.219986 363.739228 
L 410.635376 362.026049 
L 411.050766 361.219824 
L 411.406815 361.011057 
L 411.881547 360.868588 
L 412.118912 360.587331 
L 412.356278 359.963067 
L 412.652986 358.437229 
L 413.009034 355.038266 
L 413.365083 349.355527 
L 413.839815 337.554108 
L 414.433229 316.381273 
L 415.916766 260.162439 
L 416.272815 253.727898 
L 416.510181 252.083226 
L 416.569522 252.023101 
L 416.628864 252.108786 
L 416.806888 253.22128 
L 417.044254 256.652057 
L 417.400303 265.84888 
L 417.875034 284.586384 
L 418.646473 325.542701 
L 420.011327 398.678728 
L 420.5454 415.992238 
L 420.901449 421.123356 
L 421.020132 421.556012 
L 421.079473 421.521466 
L 421.198156 420.974978 
L 421.376181 418.93718 
L 421.672888 412.437266 
L 422.088278 397.745665 
L 422.859717 360.192279 
L 423.868522 313.257522 
L 424.461937 295.427333 
L 424.877327 288.407718 
L 425.174034 286.039052 
L 425.352059 285.587236 
L 425.470741 285.640792 
L 425.648766 286.226318 
L 425.945473 288.299776 
L 426.420205 293.591656 
L 427.42901 305.336937 
L 427.8444 308.038018 
L 428.141107 308.865442 
L 428.319132 308.952808 
L 428.497156 308.747419 
L 428.912546 307.594225 
L 429.327937 306.517824 
L 429.505961 306.454037 
L 429.624644 306.633412 
L 429.802668 307.368826 
L 430.040034 309.370852 
L 430.336741 313.885957 
L 430.69279 322.747624 
L 431.167522 340.616646 
L 431.998302 383.067675 
L 432.769741 419.039478 
L 433.244473 432.33391 
L 433.600522 436.910292 
L 433.837888 437.638778 
L 433.956571 437.418269 
L 434.134595 436.456946 
L 434.490644 432.841415 
L 435.380766 419.901712 
L 436.152205 410.292696 
L 436.804961 404.623962 
L 437.635741 399.496732 
L 438.40718 394.632542 
L 438.941253 389.730088 
L 439.534668 382.111601 
L 440.42479 367.299599 
L 441.611619 348.436029 
L 442.086351 343.949635 
L 442.383058 342.636433 
L 442.561083 342.45065 
L 442.679766 342.598623 
L 442.917131 343.571568 
L 443.213839 346.055767 
L 443.629229 351.780427 
L 444.281985 364.796883 
L 445.29079 385.026528 
L 445.765522 390.364998 
L 446.062229 391.736852 
L 446.240253 391.884399 
L 446.418278 391.575939 
L 446.655644 390.572538 
L 447.071034 387.552085 
L 447.783131 380.279209 
L 448.969961 365.66395 
L 449.7414 353.314047 
L 450.453497 338.255622 
L 451.224936 316.882983 
L 453.539253 246.722008 
L 453.895302 243.320454 
L 454.013985 243.030683 
L 454.073326 243.05345 
L 454.192009 243.449898 
L 454.429375 245.59596 
L 454.726082 250.791602 
L 455.141473 262.291738 
L 455.794229 287.31799 
L 456.803034 325.744425 
L 457.277765 336.083238 
L 457.574473 338.836167 
L 457.752497 339.165486 
L 457.87118 338.874556 
L 458.108546 337.279719 
L 458.523936 332.285878 
L 459.176692 324.379179 
L 459.414058 323.178821 
L 459.532741 323.113708 
L 459.651424 323.465316 
L 459.829448 324.816507 
L 460.126156 329.41204 
L 460.482204 338.860677 
L 461.016277 360.346585 
L 461.847058 405.414518 
L 462.855863 457.369148 
L 463.330594 471.151037 
L 463.56796 473.987094 
L 463.686643 474.260328 
L 463.805326 473.753314 
L 463.983351 471.482906 
L 464.280058 463.706054 
L 464.695448 444.985182 
L 465.288863 405.940127 
L 466.713058 307.886242 
L 467.128448 293.591373 
L 467.425155 289.659812 
L 467.484497 289.507451 
L 467.543838 289.556609 
L 467.662521 290.252267 
L 467.899887 293.903646 
L 468.255936 304.148535 
L 468.908692 331.668832 
L 469.739472 364.927799 
L 470.214204 375.800179 
L 470.510911 378.593214 
L 470.629594 378.864145 
L 470.688936 378.814818 
L 470.86696 378.023431 
L 471.104326 375.49557 
L 471.460375 369.123929 
L 472.113131 352.251455 
L 473.121936 326.212656 
L 473.537326 320.000221 
L 473.834033 318.170302 
L 473.952716 318.110272 
L 474.071399 318.440346 
L 474.308765 320.309247 
L 474.605472 324.865154 
L 475.020863 335.014037 
L 475.673619 357.69318 
L 477.216497 413.865224 
L 477.631887 421.153183 
L 477.869253 422.596356 
L 477.928594 422.628826 
L 478.047277 422.281931 
L 478.225302 420.739065 
L 478.522009 415.459191 
L 478.937399 402.960298 
L 479.649497 372.494731 
L 480.539619 335.626445 
L 481.01435 324.032788 
L 481.311058 320.805331 
L 481.489082 320.341679 
L 481.607765 320.603435 
L 481.785789 321.790308 
L 482.082497 325.496508 
L 482.735253 337.531693 
L 483.388009 347.848283 
L 483.744058 350.828964 
L 484.040765 351.807758 
L 484.218789 351.901429 
L 484.456155 351.66631 
L 484.871545 351.10723 
L 485.04957 351.155063 
L 485.227594 351.518125 
L 485.46496 352.597268 
L 485.761667 355.031507 
L 486.236399 361.114166 
L 487.779277 383.252544 
L 488.135326 385.413424 
L 488.372692 385.959232 
L 488.550716 385.921949 
L 488.72874 385.553571 
L 489.025448 384.305498 
L 489.440838 381.560809 
L 492.407911 358.005385 
L 492.941984 350.570957 
L 493.535399 338.711375 
L 494.247496 319.354192 
L 495.849716 273.884827 
L 496.265106 268.06628 
L 496.561813 266.483828 
L 496.680496 266.46361 
L 496.799179 266.752853 
L 497.036545 268.298418 
L 497.392594 272.580913 
L 498.104691 284.837191 
L 498.816789 295.659282 
L 499.232179 299.252122 
L 499.588228 300.744924 
L 500.419008 303.045782 
L 500.715716 305.541966 
L 501.071765 311.039405 
L 501.487155 321.4147 
L 502.139911 344.815486 
L 503.089374 378.694209 
L 503.504765 386.278641 
L 503.74213 387.535133 
L 503.801472 387.481842 
L 503.920155 386.918025 
L 504.157521 383.994641 
L 504.513569 375.623523 
L 505.047643 356.262568 
L 506.412496 303.929499 
L 506.827886 295.981843 
L 507.124594 293.696446 
L 507.243277 293.582916 
L 507.36196 293.891131 
L 507.599325 295.688561 
L 507.955374 300.857189 
L 508.667472 315.936385 
L 509.260886 326.918967 
L 509.616935 330.170717 
L 509.79496 330.528215 
L 509.913642 330.27733 
L 510.091667 329.15838 
L 510.388374 325.441134 
L 510.863106 315.804355 
L 511.812569 296.10215 
L 512.109277 293.565115 
L 512.22796 293.30047 
L 512.287301 293.329975 
L 512.405984 293.731879 
L 512.64335 295.840488 
L 512.999399 301.879845 
L 513.652155 318.153143 
L 514.364252 334.135261 
L 514.779642 338.939507 
L 515.017008 339.741751 
L 515.135691 339.639152 
L 515.313716 338.842742 
L 515.610423 336.022229 
L 516.085155 328.739112 
L 517.212642 310.469282 
L 517.568691 307.645685 
L 517.806057 306.965884 
L 517.92474 307.014853 
L 518.102764 307.526096 
L 518.399472 309.533067 
L 518.814862 314.444451 
L 519.467618 325.487192 
L 521.307203 358.460128 
L 522.434691 373.185633 
L 524.392959 397.466956 
L 524.689667 398.576544 
L 524.80835 398.545981 
L 524.986374 397.959397 
L 525.22374 396.032184 
L 525.520447 391.678992 
L 525.935837 381.988103 
L 526.529252 362.129139 
L 527.894106 313.888921 
L 528.309496 306.948517 
L 528.546862 305.733328 
L 528.606203 305.754396 
L 528.724886 306.185956 
L 528.962252 308.544108 
L 529.318301 315.418685 
L 529.911715 332.716527 
L 530.742496 355.998463 
L 531.098545 361.003638 
L 531.276569 361.824266 
L 531.33591 361.827154 
L 531.454593 361.411526 
L 531.632618 359.776561 
L 531.929325 354.354608 
L 532.344715 341.742334 
L 533.056813 311.777877 
L 533.887593 279.648099 
L 534.243642 272.193149 
L 534.481008 270.385714 
L 534.540349 270.366345 
L 534.659032 270.85099 
L 534.837057 272.912536 
L 535.133764 279.812957 
L 535.549154 295.819515 
L 536.261252 334.045534 
L 537.270057 386.209662 
L 537.80413 403.927398 
L 538.278862 412.837112 
L 538.63491 415.957088 
L 538.872276 416.720799 
L 539.050301 416.751079 
L 539.228325 416.406034 
L 539.525032 415.114939 
L 539.999764 411.697585 
L 540.533837 406.139965 
L 541.127252 397.270818 
L 541.720666 384.592343 
L 542.432764 363.958227 
L 544.450374 301.824345 
L 545.10313 290.158993 
L 545.874569 280.707623 
L 548.010861 258.617459 
L 548.248227 257.871832 
L 548.36691 257.839419 
L 548.485593 258.066743 
L 548.663617 258.906173 
L 548.960325 261.86416 
L 549.316374 268.13626 
L 549.791105 281.099635 
L 550.443861 306.170835 
L 552.40213 386.838814 
L 552.81752 394.776786 
L 553.114227 397.007419 
L 553.23291 397.078323 
L 553.351593 396.682536 
L 553.588959 394.515652 
L 553.945008 388.186297 
L 554.479081 373.571321 
L 555.66591 339.544545 
L 556.0813 333.750481 
L 556.318666 332.645779 
L 556.437349 332.703856 
L 556.615373 333.513076 
L 556.852739 335.859676 
L 557.268129 342.726023 
L 558.573642 367.108312 
L 558.811008 368.499157 
L 558.92969 368.554695 
L 559.048373 368.166986 
L 559.226398 366.704407 
L 559.523105 361.928395 
L 559.938495 350.530083 
L 560.53191 326.893654 
L 561.837422 273.139105 
L 562.312154 262.647543 
L 562.608861 259.693803 
L 562.786886 259.221977 
L 562.905568 259.421871 
L 563.083593 260.410642 
L 563.3803 263.727869 
L 563.855032 272.318874 
L 564.567129 289.876942 
L 565.39791 315.854626 
L 566.110007 345.419161 
L 567.949593 427.070742 
L 568.305642 432.566878 
L 568.483666 433.229217 
L 568.602349 432.911017 
L 568.780373 431.367188 
L 569.077081 426.205979 
L 569.551812 412.855537 
L 570.619959 373.609793 
L 572.993617 282.170429 
L 574.773861 195.145873 
L 575.070568 190.523223 
L 575.189251 190.176875 
L 575.307934 190.737672 
L 575.485958 193.239236 
L 575.782666 201.778422 
L 576.198056 221.873092 
L 576.910154 270.323587 
L 578.156324 354.514784 
L 578.80908 383.375946 
L 579.283812 396.048777 
L 579.639861 401.154411 
L 579.936568 402.757421 
L 580.055251 402.767898 
L 580.233275 402.16642 
L 580.470641 400.30137 
L 580.82669 395.612875 
L 581.479446 383.358504 
L 584.149812 326.343538 
L 585.395983 292.65663 
L 585.69269 289.389315 
L 585.811373 289.039079 
L 585.870714 289.074097 
L 585.989397 289.595685 
L 586.167422 291.522049 
L 586.464129 297.733986 
L 586.879519 312.025891 
L 587.650958 348.505429 
L 588.600422 390.844866 
L 589.312519 412.785425 
L 590.024617 427.865017 
L 590.618031 436.468461 
L 591.033422 439.929347 
L 591.270787 440.663082 
L 591.38947 440.633425 
L 591.567495 440.075573 
L 591.804861 438.281824 
L 592.160909 433.296403 
L 592.635641 422.512049 
L 593.347739 399.972334 
L 594.593909 360.015247 
L 595.127983 349.401956 
L 595.543373 345.010527 
L 595.84008 343.875927 
L 595.958763 343.844685 
L 596.136787 344.208307 
L 596.433495 345.703422 
L 596.967568 349.949274 
L 597.620324 354.535973 
L 597.917031 355.416563 
L 598.095056 355.436347 
L 598.27308 355.067941 
L 598.510446 353.924395 
L 598.866495 350.996571 
L 599.459909 343.806029 
L 602.961056 297.986266 
L 603.495129 293.49219 
L 603.791836 292.508196 
L 603.910519 292.490338 
L 604.088543 292.905248 
L 604.325909 294.315461 
L 604.681958 298.330782 
L 605.15669 306.874951 
L 605.868787 324.587744 
L 608.361129 391.17866 
L 609.073226 403.412775 
L 609.666641 410.312064 
L 610.319397 415.30666 
L 610.972153 418.634346 
L 611.446885 420.147838 
L 611.684251 420.471324 
L 611.862275 420.440818 
L 612.040299 420.113065 
L 612.277665 419.035797 
L 612.574372 416.487057 
L 612.930421 411.28864 
L 613.345811 401.720418 
L 613.879885 383.353879 
L 614.591982 349.329308 
L 616.965641 225.769106 
L 617.321689 218.367485 
L 617.559055 216.355152 
L 617.618397 216.22837 
L 617.677738 216.257706 
L 617.796421 216.756263 
L 618.033787 219.469766 
L 618.389836 227.562364 
L 618.864567 244.472346 
L 619.695348 283.763925 
L 621.238226 356.595358 
L 622.069006 386.095641 
L 622.721763 402.682364 
L 623.255836 411.396355 
L 623.671226 414.960351 
L 623.908592 415.681569 
L 624.027275 415.695992 
L 624.205299 415.296051 
L 624.442665 414.011015 
L 624.798714 410.648463 
L 625.392128 402.322538 
L 626.816323 381.421719 
L 629.664714 349.164844 
L 629.90208 348.329563 
L 630.020762 348.346506 
L 630.198787 348.952012 
L 630.436153 350.902642 
L 630.792201 356.16469 
L 631.326275 367.94274 
L 632.513104 395.482374 
L 632.987836 401.824603 
L 633.343884 404.100581 
L 633.58125 404.487798 
L 633.699933 404.386501 
L 633.937299 403.610669 
L 634.234006 401.726308 
L 634.768079 396.495629 
L 635.776884 383.803392 
L 636.785689 368.503064 
L 637.972518 350.193684 
L 638.387909 346.809349 
L 638.625274 346.112811 
L 638.743957 346.120498 
L 638.921982 346.577432 
L 639.218689 348.383221 
L 639.693421 353.092131 
L 640.46486 360.61997 
L 640.761567 361.874348 
L 640.88025 361.966943 
L 640.998933 361.811731 
L 641.176957 361.101198 
L 641.473665 358.600503 
L 641.889055 352.620754 
L 642.541811 339.332113 
L 643.550616 319.233828 
L 644.025348 313.604058 
L 644.381396 311.686963 
L 644.559421 311.491108 
L 644.678104 311.633992 
L 644.915469 312.575871 
L 645.212177 314.942819 
L 645.627567 320.444599 
L 646.102299 329.946194 
L 646.695713 347.019728 
L 647.467152 376.762597 
L 648.357274 409.963055 
L 648.772665 418.363773 
L 649.01003 419.916927 
L 649.069372 419.907696 
L 649.188055 419.408912 
L 649.425421 416.527266 
L 649.781469 407.986212 
L 650.374884 386.397419 
L 651.324347 352.600968 
L 651.739738 344.759131 
L 651.977104 343.077149 
L 652.036445 342.980614 
L 652.095786 343.033608 
L 652.214469 343.543333 
L 652.451835 346.122922 
L 652.748543 352.122697 
L 653.223274 367.252594 
L 654.232079 409.957581 
L 654.884835 432.34467 
L 655.300225 439.837093 
L 655.537591 441.184783 
L 655.596933 441.184613 
L 655.715616 440.78152 
L 655.952982 438.458217 
L 656.30903 431.598137 
L 656.902445 414.471553 
L 657.733225 391.456425 
L 658.148616 385.428602 
L 658.385981 384.312275 
L 658.504664 384.397621 
L 658.682689 385.295609 
L 658.979396 388.66054 
L 659.513469 398.277862 
L 660.047542 406.988437 
L 660.284908 408.538722 
L 660.34425 408.58382 
L 660.462933 408.188372 
L 660.640957 406.270711 
L 660.878323 400.948211 
L 661.234372 386.646112 
L 661.709103 356.203162 
L 662.599225 279.410242 
L 663.251981 231.214291 
L 663.667372 214.155459 
L 663.904737 210.394495 
L 663.964079 210.148161 
L 664.02342 210.174458 
L 664.142103 211.025252 
L 664.379469 215.733079 
L 664.735518 229.263802 
L 665.328933 263.344786 
L 666.812469 352.155019 
L 667.465225 376.847489 
L 667.939957 387.483201 
L 668.296006 391.192875 
L 668.47403 391.653129 
L 668.592713 391.449723 
L 668.770737 390.411871 
L 669.067445 386.805986 
L 669.482835 378.463543 
L 671.32242 335.999157 
L 671.678469 333.481156 
L 671.915835 333.043913 
L 672.034518 333.117995 
L 672.271884 333.692999 
L 673.162006 336.538894 
L 673.34003 336.498868 
L 673.518054 336.119853 
L 673.814762 334.690077 
L 674.230152 331.21482 
L 675.476323 319.584008 
L 675.713688 319.104347 
L 675.832371 319.254273 
L 676.010396 319.961654 
L 676.247762 321.883431 
L 676.60381 326.841004 
L 677.137884 338.118747 
L 678.740103 375.388214 
L 679.155493 379.815746 
L 679.392859 380.838987 
L 679.511542 380.940963 
L 679.630225 380.770744 
L 679.808249 380.050847 
L 680.104957 377.617959 
L 680.520347 372.110572 
L 681.291786 358.17941 
L 682.359932 339.637999 
L 683.012688 331.76197 
L 683.665444 326.362325 
L 684.377542 322.289941 
L 685.030298 319.60583 
L 686.217127 315.494687 
L 686.573176 313.01234 
L 686.929225 308.961453 
L 687.403957 300.414321 
L 688.116054 282.39798 
L 688.709469 269.893971 
L 688.946835 267.974309 
L 689.006176 267.904386 
L 689.124859 268.30578 
L 689.302883 270.362079 
L 689.540249 275.876507 
L 689.540249 275.876507 
" clip-path="url(#p709c88b051)" style="fill: none; stroke: #ff0000; stroke-width: 1.5; stroke-linecap: square"/>
   </g>
   <g id="patch_3">
    <path d="M 96.125625 643.2705 
L 96.125625 39.1875 
" style="fill: none; stroke: #000000; stroke-width: 0.8; stroke-linejoin: miter; stroke-linecap: square"/>
   </g>
   <g id="patch_4">
    <path d="M 689.520469 643.2705 
L 689.520469 39.1875 
" style="fill: none; stroke: #000000; stroke-width: 0.8; stroke-linejoin: miter; stroke-linecap: square"/>
   </g>
   <g id="patch_5">
    <path d="M 96.125625 643.2705 
L 689.520469 643.2705 
" style="fill: none; stroke: #000000; stroke-width: 0.8; stroke-linejoin: miter; stroke-linecap: square"/>
   </g>
   <g id="patch_6">
    <path d="M 96.125625 39.1875 
L 689.520469 39.1875 
" style="fill: none; stroke: #000000; stroke-width: 0.8; stroke-linejoin: miter; stroke-linecap: square"/>
   </g>
  </g>
 </g>
 <defs>
  <clipPath id="p709c88b051">
   <rect x="96.125625" y="39.1875" width="593.394844" height="604.083"/>
  </clipPath>
 </defs>
</svg>
