<?xml version="1.0" encoding="utf-8" standalone="no"?>
<!DOCTYPE svg PUBLIC "-//W3C//DTD SVG 1.1//EN"
  "http://www.w3.org/Graphics/SVG/1.1/DTD/svg11.dtd">
<svg xmlns:xlink="http://www.w3.org/1999/xlink" width="710.509591pt" height="711.02175pt" viewBox="0 0 710.509591 711.02175" xmlns="http://www.w3.org/2000/svg" version="1.1">
 <metadata>
  <rdf:RDF xmlns:dc="http://purl.org/dc/elements/1.1/" xmlns:cc="http://creativecommons.org/ns#" xmlns:rdf="http://www.w3.org/1999/02/22-rdf-syntax-ns#">
   <cc:Work>
    <dc:type rdf:resource="http://purl.org/dc/dcmitype/StillImage"/>
    <dc:date>2025-02-03T17:58:48.509541</dc:date>
    <dc:format>image/svg+xml</dc:format>
    <dc:creator>
     <cc:Agent>
      <dc:title>Matplotlib v3.9.3, https://matplotlib.org/</dc:title>
     </cc:Agent>
    </dc:creator>
   </cc:Work>
  </rdf:RDF>
 </metadata>
 <defs>
  <style type="text/css">*{stroke-linejoin: round; stroke-linecap: butt}</style>
 </defs>
 <g id="figure_1">
  <g id="patch_1">
   <path d="M 0 711.02175 
L 710.509591 711.02175 
L 710.509591 0 
L 0 0 
z
" style="fill: #ffffff"/>
  </g>
  <g id="axes_1">
   <g id="patch_2">
    <path d="M 121.2 640.3905 
L 703.309591 640.3905 
L 703.309591 39.1875 
L 121.2 39.1875 
z
" style="fill: #ffffff"/>
   </g>
   <g id="matplotlib.axis_1">
    <g id="xtick_1">
     <g id="line2d_1">
      <defs>
       <path id="mac03a6eeaa" d="M 0 0 
L 0 -3.5 
" style="stroke: #000000; stroke-width: 0.8"/>
      </defs>
      <g>
       <use xlink:href="#mac03a6eeaa" x="147.606603" y="640.3905" style="stroke: #000000; stroke-width: 0.8"/>
      </g>
     </g>
     <g id="text_1">
      <!-- 0 -->
      <g transform="translate(139.265196 665.631125) scale(0.3 -0.3)">
       <defs>
        <path id="LiberationSans-30" d="M 3309 2203 
Q 3309 1100 2920 518 
Q 2531 -63 1772 -63 
Q 1013 -63 631 515 
Q 250 1094 250 2203 
Q 250 3338 620 3903 
Q 991 4469 1791 4469 
Q 2569 4469 2939 3897 
Q 3309 3325 3309 2203 
z
M 2738 2203 
Q 2738 3156 2517 3584 
Q 2297 4013 1791 4013 
Q 1272 4013 1045 3591 
Q 819 3169 819 2203 
Q 819 1266 1048 831 
Q 1278 397 1778 397 
Q 2275 397 2506 840 
Q 2738 1284 2738 2203 
z
" transform="scale(0.015625)"/>
       </defs>
       <use xlink:href="#LiberationSans-30"/>
      </g>
     </g>
    </g>
    <g id="xtick_2">
     <g id="line2d_2">
      <g>
       <use xlink:href="#mac03a6eeaa" x="253.455295" y="640.3905" style="stroke: #000000; stroke-width: 0.8"/>
      </g>
     </g>
     <g id="text_2">
      <!-- 2 -->
      <g transform="translate(245.113889 665.631125) scale(0.3 -0.3)">
       <defs>
        <path id="LiberationSans-32" d="M 322 0 
L 322 397 
Q 481 763 711 1042 
Q 941 1322 1194 1548 
Q 1447 1775 1695 1969 
Q 1944 2163 2144 2356 
Q 2344 2550 2467 2762 
Q 2591 2975 2591 3244 
Q 2591 3606 2378 3806 
Q 2166 4006 1788 4006 
Q 1428 4006 1195 3811 
Q 963 3616 922 3263 
L 347 3316 
Q 409 3844 795 4156 
Q 1181 4469 1788 4469 
Q 2453 4469 2811 4155 
Q 3169 3841 3169 3263 
Q 3169 3006 3051 2753 
Q 2934 2500 2703 2247 
Q 2472 1994 1819 1463 
Q 1459 1169 1246 933 
Q 1034 697 941 478 
L 3238 478 
L 3238 0 
L 322 0 
z
" transform="scale(0.015625)"/>
       </defs>
       <use xlink:href="#LiberationSans-32"/>
      </g>
     </g>
    </g>
    <g id="xtick_3">
     <g id="line2d_3">
      <g>
       <use xlink:href="#mac03a6eeaa" x="359.303987" y="640.3905" style="stroke: #000000; stroke-width: 0.8"/>
      </g>
     </g>
     <g id="text_3">
      <!-- 4 -->
      <g transform="translate(350.962581 665.631125) scale(0.3 -0.3)">
       <defs>
        <path id="LiberationSans-34" d="M 2753 997 
L 2753 0 
L 2222 0 
L 2222 997 
L 147 997 
L 147 1434 
L 2163 4403 
L 2753 4403 
L 2753 1441 
L 3372 1441 
L 3372 997 
L 2753 997 
z
M 2222 3769 
Q 2216 3750 2134 3603 
Q 2053 3456 2013 3397 
L 884 1734 
L 716 1503 
L 666 1441 
L 2222 1441 
L 2222 3769 
z
" transform="scale(0.015625)"/>
       </defs>
       <use xlink:href="#LiberationSans-34"/>
      </g>
     </g>
    </g>
    <g id="xtick_4">
     <g id="line2d_4">
      <g>
       <use xlink:href="#mac03a6eeaa" x="465.152679" y="640.3905" style="stroke: #000000; stroke-width: 0.8"/>
      </g>
     </g>
     <g id="text_4">
      <!-- 6 -->
      <g transform="translate(456.811273 665.631125) scale(0.3 -0.3)">
       <defs>
        <path id="LiberationSans-36" d="M 3278 1441 
Q 3278 744 2900 340 
Q 2522 -63 1856 -63 
Q 1113 -63 719 490 
Q 325 1044 325 2100 
Q 325 3244 734 3856 
Q 1144 4469 1900 4469 
Q 2897 4469 3156 3572 
L 2619 3475 
Q 2453 4013 1894 4013 
Q 1413 4013 1148 3564 
Q 884 3116 884 2266 
Q 1038 2550 1316 2698 
Q 1594 2847 1953 2847 
Q 2563 2847 2920 2465 
Q 3278 2084 3278 1441 
z
M 2706 1416 
Q 2706 1894 2472 2153 
Q 2238 2413 1819 2413 
Q 1425 2413 1183 2183 
Q 941 1953 941 1550 
Q 941 1041 1192 716 
Q 1444 391 1838 391 
Q 2244 391 2475 664 
Q 2706 938 2706 1416 
z
" transform="scale(0.015625)"/>
       </defs>
       <use xlink:href="#LiberationSans-36"/>
      </g>
     </g>
    </g>
    <g id="xtick_5">
     <g id="line2d_5">
      <g>
       <use xlink:href="#mac03a6eeaa" x="571.001372" y="640.3905" style="stroke: #000000; stroke-width: 0.8"/>
      </g>
     </g>
     <g id="text_5">
      <!-- 8 -->
      <g transform="translate(562.659965 665.631125) scale(0.3 -0.3)">
       <defs>
        <path id="LiberationSans-38" d="M 3281 1228 
Q 3281 619 2893 278 
Q 2506 -63 1781 -63 
Q 1075 -63 676 271 
Q 278 606 278 1222 
Q 278 1653 525 1947 
Q 772 2241 1156 2303 
L 1156 2316 
Q 797 2400 589 2681 
Q 381 2963 381 3341 
Q 381 3844 757 4156 
Q 1134 4469 1769 4469 
Q 2419 4469 2795 4162 
Q 3172 3856 3172 3334 
Q 3172 2956 2962 2675 
Q 2753 2394 2391 2322 
L 2391 2309 
Q 2813 2241 3047 1952 
Q 3281 1663 3281 1228 
z
M 2588 3303 
Q 2588 4050 1769 4050 
Q 1372 4050 1164 3862 
Q 956 3675 956 3303 
Q 956 2925 1170 2726 
Q 1384 2528 1775 2528 
Q 2172 2528 2380 2711 
Q 2588 2894 2588 3303 
z
M 2697 1281 
Q 2697 1691 2453 1898 
Q 2209 2106 1769 2106 
Q 1341 2106 1100 1882 
Q 859 1659 859 1269 
Q 859 359 1788 359 
Q 2247 359 2472 579 
Q 2697 800 2697 1281 
z
" transform="scale(0.015625)"/>
       </defs>
       <use xlink:href="#LiberationSans-38"/>
      </g>
     </g>
    </g>
    <g id="xtick_6">
     <g id="line2d_6">
      <g>
       <use xlink:href="#mac03a6eeaa" x="676.850064" y="640.3905" style="stroke: #000000; stroke-width: 0.8"/>
      </g>
     </g>
     <g id="text_6">
      <!-- 10 -->
      <g transform="translate(660.167251 665.631125) scale(0.3 -0.3)">
       <defs>
        <path id="LiberationSans-31" d="M 488 0 
L 488 478 
L 1609 478 
L 1609 3866 
L 616 3156 
L 616 3688 
L 1656 4403 
L 2175 4403 
L 2175 478 
L 3247 478 
L 3247 0 
L 488 0 
z
" transform="scale(0.015625)"/>
       </defs>
       <use xlink:href="#LiberationSans-31"/>
       <use xlink:href="#LiberationSans-30" x="55.615234"/>
      </g>
     </g>
    </g>
    <g id="xtick_7">
     <g id="line2d_7">
      <defs>
       <path id="m7c544c236e" d="M 0 0 
L 0 -2 
" style="stroke: #000000; stroke-width: 0.6"/>
      </defs>
      <g>
       <use xlink:href="#m7c544c236e" x="174.068776" y="640.3905" style="stroke: #000000; stroke-width: 0.6"/>
      </g>
     </g>
    </g>
    <g id="xtick_8">
     <g id="line2d_8">
      <g>
       <use xlink:href="#m7c544c236e" x="200.530949" y="640.3905" style="stroke: #000000; stroke-width: 0.6"/>
      </g>
     </g>
    </g>
    <g id="xtick_9">
     <g id="line2d_9">
      <g>
       <use xlink:href="#m7c544c236e" x="226.993122" y="640.3905" style="stroke: #000000; stroke-width: 0.6"/>
      </g>
     </g>
    </g>
    <g id="xtick_10">
     <g id="line2d_10">
      <g>
       <use xlink:href="#m7c544c236e" x="279.917468" y="640.3905" style="stroke: #000000; stroke-width: 0.6"/>
      </g>
     </g>
    </g>
    <g id="xtick_11">
     <g id="line2d_11">
      <g>
       <use xlink:href="#m7c544c236e" x="306.379641" y="640.3905" style="stroke: #000000; stroke-width: 0.6"/>
      </g>
     </g>
    </g>
    <g id="xtick_12">
     <g id="line2d_12">
      <g>
       <use xlink:href="#m7c544c236e" x="332.841814" y="640.3905" style="stroke: #000000; stroke-width: 0.6"/>
      </g>
     </g>
    </g>
    <g id="xtick_13">
     <g id="line2d_13">
      <g>
       <use xlink:href="#m7c544c236e" x="385.76616" y="640.3905" style="stroke: #000000; stroke-width: 0.6"/>
      </g>
     </g>
    </g>
    <g id="xtick_14">
     <g id="line2d_14">
      <g>
       <use xlink:href="#m7c544c236e" x="412.228333" y="640.3905" style="stroke: #000000; stroke-width: 0.6"/>
      </g>
     </g>
    </g>
    <g id="xtick_15">
     <g id="line2d_15">
      <g>
       <use xlink:href="#m7c544c236e" x="438.690506" y="640.3905" style="stroke: #000000; stroke-width: 0.6"/>
      </g>
     </g>
    </g>
    <g id="xtick_16">
     <g id="line2d_16">
      <g>
       <use xlink:href="#m7c544c236e" x="491.614852" y="640.3905" style="stroke: #000000; stroke-width: 0.6"/>
      </g>
     </g>
    </g>
    <g id="xtick_17">
     <g id="line2d_17">
      <g>
       <use xlink:href="#m7c544c236e" x="518.077026" y="640.3905" style="stroke: #000000; stroke-width: 0.6"/>
      </g>
     </g>
    </g>
    <g id="xtick_18">
     <g id="line2d_18">
      <g>
       <use xlink:href="#m7c544c236e" x="544.539199" y="640.3905" style="stroke: #000000; stroke-width: 0.6"/>
      </g>
     </g>
    </g>
    <g id="xtick_19">
     <g id="line2d_19">
      <g>
       <use xlink:href="#m7c544c236e" x="597.463545" y="640.3905" style="stroke: #000000; stroke-width: 0.6"/>
      </g>
     </g>
    </g>
    <g id="xtick_20">
     <g id="line2d_20">
      <g>
       <use xlink:href="#m7c544c236e" x="623.925718" y="640.3905" style="stroke: #000000; stroke-width: 0.6"/>
      </g>
     </g>
    </g>
    <g id="xtick_21">
     <g id="line2d_21">
      <g>
       <use xlink:href="#m7c544c236e" x="650.387891" y="640.3905" style="stroke: #000000; stroke-width: 0.6"/>
      </g>
     </g>
    </g>
    <g id="text_7">
     <!-- Time ps -->
     <g transform="translate(359.478233 697.59675) scale(0.3 -0.3)">
      <defs>
       <path id="LiberationSans-54" d="M 2250 3916 
L 2250 0 
L 1656 0 
L 1656 3916 
L 144 3916 
L 144 4403 
L 3763 4403 
L 3763 3916 
L 2250 3916 
z
" transform="scale(0.015625)"/>
       <path id="LiberationSans-69" d="M 428 4100 
L 428 4638 
L 991 4638 
L 991 4100 
L 428 4100 
z
M 428 0 
L 428 3381 
L 991 3381 
L 991 0 
L 428 0 
z
" transform="scale(0.015625)"/>
       <path id="LiberationSans-6d" d="M 2400 0 
L 2400 2144 
Q 2400 2634 2265 2821 
Q 2131 3009 1781 3009 
Q 1422 3009 1212 2734 
Q 1003 2459 1003 1959 
L 1003 0 
L 444 0 
L 444 2659 
Q 444 3250 425 3381 
L 956 3381 
Q 959 3366 962 3297 
Q 966 3228 970 3139 
Q 975 3050 981 2803 
L 991 2803 
Q 1172 3163 1406 3303 
Q 1641 3444 1978 3444 
Q 2363 3444 2586 3291 
Q 2809 3138 2897 2803 
L 2906 2803 
Q 3081 3144 3329 3294 
Q 3578 3444 3931 3444 
Q 4444 3444 4676 3166 
Q 4909 2888 4909 2253 
L 4909 0 
L 4353 0 
L 4353 2144 
Q 4353 2634 4218 2821 
Q 4084 3009 3734 3009 
Q 3366 3009 3161 2736 
Q 2956 2463 2956 1959 
L 2956 0 
L 2400 0 
z
" transform="scale(0.015625)"/>
       <path id="LiberationSans-65" d="M 863 1572 
Q 863 991 1103 675 
Q 1344 359 1806 359 
Q 2172 359 2392 506 
Q 2613 653 2691 878 
L 3184 738 
Q 2881 -63 1806 -63 
Q 1056 -63 664 384 
Q 272 831 272 1713 
Q 272 2550 664 2997 
Q 1056 3444 1784 3444 
Q 3275 3444 3275 1647 
L 3275 1572 
L 863 1572 
z
M 2694 2003 
Q 2647 2538 2422 2783 
Q 2197 3028 1775 3028 
Q 1366 3028 1127 2754 
Q 888 2481 869 2003 
L 2694 2003 
z
" transform="scale(0.015625)"/>
       <path id="LiberationSans-20" transform="scale(0.015625)"/>
       <path id="LiberationSans-70" d="M 3291 1706 
Q 3291 -63 2047 -63 
Q 1266 -63 997 525 
L 981 525 
Q 994 500 994 -6 
L 994 -1328 
L 431 -1328 
L 431 2691 
Q 431 3213 413 3381 
L 956 3381 
Q 959 3369 965 3292 
Q 972 3216 980 3056 
Q 988 2897 988 2838 
L 1000 2838 
Q 1150 3150 1397 3295 
Q 1644 3441 2047 3441 
Q 2672 3441 2981 3022 
Q 3291 2603 3291 1706 
z
M 2700 1694 
Q 2700 2400 2509 2703 
Q 2319 3006 1903 3006 
Q 1569 3006 1380 2865 
Q 1191 2725 1092 2426 
Q 994 2128 994 1650 
Q 994 984 1206 668 
Q 1419 353 1897 353 
Q 2316 353 2508 661 
Q 2700 969 2700 1694 
z
" transform="scale(0.015625)"/>
       <path id="LiberationSans-73" d="M 2969 934 
Q 2969 456 2608 196 
Q 2247 -63 1597 -63 
Q 966 -63 623 145 
Q 281 353 178 794 
L 675 891 
Q 747 619 972 492 
Q 1197 366 1597 366 
Q 2025 366 2223 497 
Q 2422 628 2422 891 
Q 2422 1091 2284 1216 
Q 2147 1341 1841 1422 
L 1438 1528 
Q 953 1653 748 1773 
Q 544 1894 428 2066 
Q 313 2238 313 2488 
Q 313 2950 642 3192 
Q 972 3434 1603 3434 
Q 2163 3434 2492 3237 
Q 2822 3041 2909 2606 
L 2403 2544 
Q 2356 2769 2151 2889 
Q 1947 3009 1603 3009 
Q 1222 3009 1040 2893 
Q 859 2778 859 2544 
Q 859 2400 934 2306 
Q 1009 2213 1156 2147 
Q 1303 2081 1775 1966 
Q 2222 1853 2419 1758 
Q 2616 1663 2730 1547 
Q 2844 1431 2906 1279 
Q 2969 1128 2969 934 
z
" transform="scale(0.015625)"/>
      </defs>
      <use xlink:href="#LiberationSans-54"/>
      <use xlink:href="#LiberationSans-69" x="57.333984"/>
      <use xlink:href="#LiberationSans-6d" x="79.550781"/>
      <use xlink:href="#LiberationSans-65" x="162.851562"/>
      <use xlink:href="#LiberationSans-20" x="218.466797"/>
      <use xlink:href="#LiberationSans-70" x="246.25"/>
      <use xlink:href="#LiberationSans-73" x="301.865234"/>
     </g>
    </g>
   </g>
   <g id="matplotlib.axis_2">
    <g id="ytick_1">
     <g id="line2d_22">
      <defs>
       <path id="m903a0eb54d" d="M 0 0 
L 3.5 0 
" style="stroke: #000000; stroke-width: 0.8"/>
      </defs>
      <g>
       <use xlink:href="#m903a0eb54d" x="121.2" y="595.523557" style="stroke: #000000; stroke-width: 0.8"/>
      </g>
     </g>
     <g id="text_8">
      <!-- $\mathdefault{−0.50}$ -->
      <g transform="translate(41.5 606.39387) scale(0.3 -0.3)">
       <defs>
        <path id="LiberationSans-2212" d="M 316 1900 
L 316 2356 
L 3425 2356 
L 3425 1900 
L 316 1900 
z
" transform="scale(0.015625)"/>
        <path id="LiberationSans-2e" d="M 584 0 
L 584 684 
L 1194 684 
L 1194 0 
L 584 0 
z
" transform="scale(0.015625)"/>
        <path id="LiberationSans-35" d="M 3291 1434 
Q 3291 738 2877 337 
Q 2463 -63 1728 -63 
Q 1113 -63 734 206 
Q 356 475 256 984 
L 825 1050 
Q 1003 397 1741 397 
Q 2194 397 2450 670 
Q 2706 944 2706 1422 
Q 2706 1838 2448 2094 
Q 2191 2350 1753 2350 
Q 1525 2350 1328 2278 
Q 1131 2206 934 2034 
L 384 2034 
L 531 4403 
L 3034 4403 
L 3034 3925 
L 1044 3925 
L 959 2528 
Q 1325 2809 1869 2809 
Q 2519 2809 2905 2428 
Q 3291 2047 3291 1434 
z
" transform="scale(0.015625)"/>
       </defs>
       <use xlink:href="#LiberationSans-2212" transform="translate(0 0.171875)"/>
       <use xlink:href="#LiberationSans-30" transform="translate(58.398438 0.171875)"/>
       <use xlink:href="#LiberationSans-2e" transform="translate(114.013672 0.171875)"/>
       <use xlink:href="#LiberationSans-35" transform="translate(141.796875 0.171875)"/>
       <use xlink:href="#LiberationSans-30" transform="translate(197.412109 0.171875)"/>
      </g>
     </g>
    </g>
    <g id="ytick_2">
     <g id="line2d_23">
      <g>
       <use xlink:href="#m903a0eb54d" x="121.2" y="513.741362" style="stroke: #000000; stroke-width: 0.8"/>
      </g>
     </g>
     <g id="text_9">
      <!-- $\mathdefault{−0.25}$ -->
      <g transform="translate(41.5 524.611675) scale(0.3 -0.3)">
       <use xlink:href="#LiberationSans-2212" transform="translate(0 0.171875)"/>
       <use xlink:href="#LiberationSans-30" transform="translate(58.398438 0.171875)"/>
       <use xlink:href="#LiberationSans-2e" transform="translate(114.013672 0.171875)"/>
       <use xlink:href="#LiberationSans-32" transform="translate(141.796875 0.171875)"/>
       <use xlink:href="#LiberationSans-35" transform="translate(197.412109 0.171875)"/>
      </g>
     </g>
    </g>
    <g id="ytick_3">
     <g id="line2d_24">
      <g>
       <use xlink:href="#m903a0eb54d" x="121.2" y="431.959167" style="stroke: #000000; stroke-width: 0.8"/>
      </g>
     </g>
     <g id="text_10">
      <!-- $\mathdefault{0.00}$ -->
      <g transform="translate(59.2 442.82948) scale(0.3 -0.3)">
       <use xlink:href="#LiberationSans-30" transform="translate(0 0.171875)"/>
       <use xlink:href="#LiberationSans-2e" transform="translate(55.615234 0.171875)"/>
       <use xlink:href="#LiberationSans-30" transform="translate(83.398438 0.171875)"/>
       <use xlink:href="#LiberationSans-30" transform="translate(139.013672 0.171875)"/>
      </g>
     </g>
    </g>
    <g id="ytick_4">
     <g id="line2d_25">
      <g>
       <use xlink:href="#m903a0eb54d" x="121.2" y="350.176972" style="stroke: #000000; stroke-width: 0.8"/>
      </g>
     </g>
     <g id="text_11">
      <!-- $\mathdefault{0.25}$ -->
      <g transform="translate(59.2 361.047285) scale(0.3 -0.3)">
       <use xlink:href="#LiberationSans-30" transform="translate(0 0.171875)"/>
       <use xlink:href="#LiberationSans-2e" transform="translate(55.615234 0.171875)"/>
       <use xlink:href="#LiberationSans-32" transform="translate(83.398438 0.171875)"/>
       <use xlink:href="#LiberationSans-35" transform="translate(139.013672 0.171875)"/>
      </g>
     </g>
    </g>
    <g id="ytick_5">
     <g id="line2d_26">
      <g>
       <use xlink:href="#m903a0eb54d" x="121.2" y="268.394777" style="stroke: #000000; stroke-width: 0.8"/>
      </g>
     </g>
     <g id="text_12">
      <!-- $\mathdefault{0.50}$ -->
      <g transform="translate(59.2 279.26509) scale(0.3 -0.3)">
       <use xlink:href="#LiberationSans-30" transform="translate(0 0.171875)"/>
       <use xlink:href="#LiberationSans-2e" transform="translate(55.615234 0.171875)"/>
       <use xlink:href="#LiberationSans-35" transform="translate(83.398438 0.171875)"/>
       <use xlink:href="#LiberationSans-30" transform="translate(139.013672 0.171875)"/>
      </g>
     </g>
    </g>
    <g id="ytick_6">
     <g id="line2d_27">
      <g>
       <use xlink:href="#m903a0eb54d" x="121.2" y="186.612582" style="stroke: #000000; stroke-width: 0.8"/>
      </g>
     </g>
     <g id="text_13">
      <!-- $\mathdefault{0.75}$ -->
      <g transform="translate(59.2 197.482895) scale(0.3 -0.3)">
       <defs>
        <path id="LiberationSans-37" d="M 3238 3947 
Q 2563 2916 2284 2331 
Q 2006 1747 1867 1178 
Q 1728 609 1728 0 
L 1141 0 
Q 1141 844 1498 1776 
Q 1856 2709 2694 3925 
L 328 3925 
L 328 4403 
L 3238 4403 
L 3238 3947 
z
" transform="scale(0.015625)"/>
       </defs>
       <use xlink:href="#LiberationSans-30" transform="translate(0 0.171875)"/>
       <use xlink:href="#LiberationSans-2e" transform="translate(55.615234 0.171875)"/>
       <use xlink:href="#LiberationSans-37" transform="translate(83.398438 0.171875)"/>
       <use xlink:href="#LiberationSans-35" transform="translate(139.013672 0.171875)"/>
      </g>
     </g>
    </g>
    <g id="ytick_7">
     <g id="line2d_28">
      <g>
       <use xlink:href="#m903a0eb54d" x="121.2" y="104.830387" style="stroke: #000000; stroke-width: 0.8"/>
      </g>
     </g>
     <g id="text_14">
      <!-- $\mathdefault{1.00}$ -->
      <g transform="translate(59.2 115.7007) scale(0.3 -0.3)">
       <use xlink:href="#LiberationSans-31" transform="translate(0 0.171875)"/>
       <use xlink:href="#LiberationSans-2e" transform="translate(55.615234 0.171875)"/>
       <use xlink:href="#LiberationSans-30" transform="translate(83.398438 0.171875)"/>
       <use xlink:href="#LiberationSans-30" transform="translate(139.013672 0.171875)"/>
      </g>
     </g>
    </g>
    <g id="ytick_8">
     <g id="line2d_29">
      <defs>
       <path id="mc1b2a34866" d="M 0 0 
L 2 0 
" style="stroke: #000000; stroke-width: 0.6"/>
      </defs>
      <g>
       <use xlink:href="#mc1b2a34866" x="121.2" y="628.236435" style="stroke: #000000; stroke-width: 0.6"/>
      </g>
     </g>
    </g>
    <g id="ytick_9">
     <g id="line2d_30">
      <g>
       <use xlink:href="#mc1b2a34866" x="121.2" y="611.879996" style="stroke: #000000; stroke-width: 0.6"/>
      </g>
     </g>
    </g>
    <g id="ytick_10">
     <g id="line2d_31">
      <g>
       <use xlink:href="#mc1b2a34866" x="121.2" y="579.167118" style="stroke: #000000; stroke-width: 0.6"/>
      </g>
     </g>
    </g>
    <g id="ytick_11">
     <g id="line2d_32">
      <g>
       <use xlink:href="#mc1b2a34866" x="121.2" y="562.810679" style="stroke: #000000; stroke-width: 0.6"/>
      </g>
     </g>
    </g>
    <g id="ytick_12">
     <g id="line2d_33">
      <g>
       <use xlink:href="#mc1b2a34866" x="121.2" y="546.45424" style="stroke: #000000; stroke-width: 0.6"/>
      </g>
     </g>
    </g>
    <g id="ytick_13">
     <g id="line2d_34">
      <g>
       <use xlink:href="#mc1b2a34866" x="121.2" y="530.097801" style="stroke: #000000; stroke-width: 0.6"/>
      </g>
     </g>
    </g>
    <g id="ytick_14">
     <g id="line2d_35">
      <g>
       <use xlink:href="#mc1b2a34866" x="121.2" y="497.384923" style="stroke: #000000; stroke-width: 0.6"/>
      </g>
     </g>
    </g>
    <g id="ytick_15">
     <g id="line2d_36">
      <g>
       <use xlink:href="#mc1b2a34866" x="121.2" y="481.028484" style="stroke: #000000; stroke-width: 0.6"/>
      </g>
     </g>
    </g>
    <g id="ytick_16">
     <g id="line2d_37">
      <g>
       <use xlink:href="#mc1b2a34866" x="121.2" y="464.672045" style="stroke: #000000; stroke-width: 0.6"/>
      </g>
     </g>
    </g>
    <g id="ytick_17">
     <g id="line2d_38">
      <g>
       <use xlink:href="#mc1b2a34866" x="121.2" y="448.315606" style="stroke: #000000; stroke-width: 0.6"/>
      </g>
     </g>
    </g>
    <g id="ytick_18">
     <g id="line2d_39">
      <g>
       <use xlink:href="#mc1b2a34866" x="121.2" y="415.602728" style="stroke: #000000; stroke-width: 0.6"/>
      </g>
     </g>
    </g>
    <g id="ytick_19">
     <g id="line2d_40">
      <g>
       <use xlink:href="#mc1b2a34866" x="121.2" y="399.246289" style="stroke: #000000; stroke-width: 0.6"/>
      </g>
     </g>
    </g>
    <g id="ytick_20">
     <g id="line2d_41">
      <g>
       <use xlink:href="#mc1b2a34866" x="121.2" y="382.88985" style="stroke: #000000; stroke-width: 0.6"/>
      </g>
     </g>
    </g>
    <g id="ytick_21">
     <g id="line2d_42">
      <g>
       <use xlink:href="#mc1b2a34866" x="121.2" y="366.533411" style="stroke: #000000; stroke-width: 0.6"/>
      </g>
     </g>
    </g>
    <g id="ytick_22">
     <g id="line2d_43">
      <g>
       <use xlink:href="#mc1b2a34866" x="121.2" y="333.820533" style="stroke: #000000; stroke-width: 0.6"/>
      </g>
     </g>
    </g>
    <g id="ytick_23">
     <g id="line2d_44">
      <g>
       <use xlink:href="#mc1b2a34866" x="121.2" y="317.464094" style="stroke: #000000; stroke-width: 0.6"/>
      </g>
     </g>
    </g>
    <g id="ytick_24">
     <g id="line2d_45">
      <g>
       <use xlink:href="#mc1b2a34866" x="121.2" y="301.107655" style="stroke: #000000; stroke-width: 0.6"/>
      </g>
     </g>
    </g>
    <g id="ytick_25">
     <g id="line2d_46">
      <g>
       <use xlink:href="#mc1b2a34866" x="121.2" y="284.751216" style="stroke: #000000; stroke-width: 0.6"/>
      </g>
     </g>
    </g>
    <g id="ytick_26">
     <g id="line2d_47">
      <g>
       <use xlink:href="#mc1b2a34866" x="121.2" y="252.038338" style="stroke: #000000; stroke-width: 0.6"/>
      </g>
     </g>
    </g>
    <g id="ytick_27">
     <g id="line2d_48">
      <g>
       <use xlink:href="#mc1b2a34866" x="121.2" y="235.681899" style="stroke: #000000; stroke-width: 0.6"/>
      </g>
     </g>
    </g>
    <g id="ytick_28">
     <g id="line2d_49">
      <g>
       <use xlink:href="#mc1b2a34866" x="121.2" y="219.32546" style="stroke: #000000; stroke-width: 0.6"/>
      </g>
     </g>
    </g>
    <g id="ytick_29">
     <g id="line2d_50">
      <g>
       <use xlink:href="#mc1b2a34866" x="121.2" y="202.969021" style="stroke: #000000; stroke-width: 0.6"/>
      </g>
     </g>
    </g>
    <g id="ytick_30">
     <g id="line2d_51">
      <g>
       <use xlink:href="#mc1b2a34866" x="121.2" y="170.256143" style="stroke: #000000; stroke-width: 0.6"/>
      </g>
     </g>
    </g>
    <g id="ytick_31">
     <g id="line2d_52">
      <g>
       <use xlink:href="#mc1b2a34866" x="121.2" y="153.899704" style="stroke: #000000; stroke-width: 0.6"/>
      </g>
     </g>
    </g>
    <g id="ytick_32">
     <g id="line2d_53">
      <g>
       <use xlink:href="#mc1b2a34866" x="121.2" y="137.543265" style="stroke: #000000; stroke-width: 0.6"/>
      </g>
     </g>
    </g>
    <g id="ytick_33">
     <g id="line2d_54">
      <g>
       <use xlink:href="#mc1b2a34866" x="121.2" y="121.186826" style="stroke: #000000; stroke-width: 0.6"/>
      </g>
     </g>
    </g>
    <g id="ytick_34">
     <g id="line2d_55">
      <g>
       <use xlink:href="#mc1b2a34866" x="121.2" y="88.473948" style="stroke: #000000; stroke-width: 0.6"/>
      </g>
     </g>
    </g>
    <g id="ytick_35">
     <g id="line2d_56">
      <g>
       <use xlink:href="#mc1b2a34866" x="121.2" y="72.117509" style="stroke: #000000; stroke-width: 0.6"/>
      </g>
     </g>
    </g>
    <g id="ytick_36">
     <g id="line2d_57">
      <g>
       <use xlink:href="#mc1b2a34866" x="121.2" y="55.76107" style="stroke: #000000; stroke-width: 0.6"/>
      </g>
     </g>
    </g>
    <g id="ytick_37">
     <g id="line2d_58">
      <g>
       <use xlink:href="#mc1b2a34866" x="121.2" y="39.404631" style="stroke: #000000; stroke-width: 0.6"/>
      </g>
     </g>
    </g>
    <g id="text_15">
     <!-- HFACF $(\mathrm{W} / \mathrm{m}^2)^2$ -->
     <g transform="translate(31.275 446.289) rotate(-90) scale(0.3 -0.3)">
      <defs>
       <path id="LiberationSans-48" d="M 3503 0 
L 3503 2041 
L 1122 2041 
L 1122 0 
L 525 0 
L 525 4403 
L 1122 4403 
L 1122 2541 
L 3503 2541 
L 3503 4403 
L 4100 4403 
L 4100 0 
L 3503 0 
z
" transform="scale(0.015625)"/>
       <path id="LiberationSans-46" d="M 1122 3916 
L 1122 2278 
L 3578 2278 
L 3578 1784 
L 1122 1784 
L 1122 0 
L 525 0 
L 525 4403 
L 3653 4403 
L 3653 3916 
L 1122 3916 
z
" transform="scale(0.015625)"/>
       <path id="LiberationSans-41" d="M 3647 0 
L 3144 1288 
L 1138 1288 
L 631 0 
L 13 0 
L 1809 4403 
L 2488 4403 
L 4256 0 
L 3647 0 
z
M 2141 3953 
L 2113 3866 
Q 2034 3606 1881 3200 
L 1319 1753 
L 2966 1753 
L 2400 3206 
Q 2313 3422 2225 3694 
L 2141 3953 
z
" transform="scale(0.015625)"/>
       <path id="LiberationSans-43" d="M 2475 3981 
Q 1744 3981 1337 3511 
Q 931 3041 931 2222 
Q 931 1413 1354 920 
Q 1778 428 2500 428 
Q 3425 428 3891 1344 
L 4378 1100 
Q 4106 531 3614 234 
Q 3122 -63 2472 -63 
Q 1806 -63 1320 214 
Q 834 491 579 1005 
Q 325 1519 325 2222 
Q 325 3275 894 3872 
Q 1463 4469 2469 4469 
Q 3172 4469 3644 4194 
Q 4116 3919 4338 3378 
L 3772 3191 
Q 3619 3575 3280 3778 
Q 2941 3981 2475 3981 
z
" transform="scale(0.015625)"/>
       <path id="STIXGeneral-Regular-28" d="M 1946 -1030 
L 1869 -1133 
Q 1126 -710 716 32 
Q 307 774 307 1613 
Q 307 3386 1888 4326 
L 1946 4224 
Q 1293 3667 1075 3126 
Q 858 2586 858 1632 
Q 858 685 1082 96 
Q 1306 -493 1946 -1030 
z
" transform="scale(0.015625)"/>
       <path id="STIXGeneral-Regular-57" d="M 5965 4237 
L 5965 4115 
Q 5709 4064 5616 3990 
Q 5523 3917 5434 3667 
Q 4704 1709 4128 -70 
L 4032 -70 
Q 3642 1011 3008 2637 
L 2022 -70 
L 1926 -70 
Q 1709 576 1277 1753 
Q 845 2931 698 3347 
Q 538 3808 406 3958 
Q 275 4109 32 4115 
L 32 4237 
L 1594 4237 
L 1594 4115 
Q 1357 4109 1270 4064 
Q 1184 4019 1184 3917 
Q 1184 3808 1254 3616 
L 2176 1210 
L 2842 3021 
L 2662 3501 
Q 2509 3917 2400 4013 
Q 2291 4109 2010 4115 
L 2010 4237 
L 3706 4237 
L 3706 4115 
Q 3213 4102 3213 3891 
Q 3213 3808 3322 3520 
L 4237 1190 
L 5043 3360 
Q 5152 3667 5152 3853 
Q 5152 4109 4704 4115 
L 4704 4237 
L 5965 4237 
z
" transform="scale(0.015625)"/>
       <path id="STIXGeneral-Regular-2f" d="M 1837 4326 
L 378 -90 
L -58 -90 
L 1408 4326 
L 1837 4326 
z
" transform="scale(0.015625)"/>
       <path id="STIXGeneral-Regular-6d" d="M 4960 0 
L 3565 0 
L 3565 96 
Q 3834 122 3907 208 
Q 3981 294 3981 576 
L 3981 1894 
Q 3981 2278 3869 2444 
Q 3757 2611 3488 2611 
Q 3264 2611 3107 2521 
Q 2950 2432 2803 2221 
L 2803 608 
Q 2803 301 2896 201 
Q 2989 102 3264 96 
L 3264 0 
L 1830 0 
L 1830 96 
Q 2112 115 2189 188 
Q 2266 262 2266 550 
L 2266 1901 
Q 2266 2611 1850 2611 
Q 1670 2611 1468 2531 
Q 1267 2451 1171 2336 
Q 1088 2240 1088 2227 
L 1088 448 
Q 1088 243 1177 176 
Q 1267 109 1523 96 
L 1523 0 
L 102 0 
L 102 96 
Q 371 102 460 195 
Q 550 288 550 563 
L 550 2150 
Q 550 2387 499 2480 
Q 448 2573 326 2573 
Q 230 2573 122 2547 
L 122 2656 
Q 557 2778 1011 2944 
L 1062 2925 
L 1062 2451 
L 1075 2451 
Q 1363 2752 1584 2848 
Q 1805 2944 2054 2944 
Q 2560 2944 2733 2406 
Q 3232 2944 3776 2944 
Q 4518 2944 4518 1792 
L 4518 493 
Q 4518 282 4582 202 
Q 4646 122 4794 109 
L 4960 96 
L 4960 0 
z
" transform="scale(0.015625)"/>
       <path id="STIXGeneral-Regular-32" d="M 3034 877 
L 2688 0 
L 186 0 
L 186 77 
L 1325 1286 
Q 1773 1754 1965 2144 
Q 2157 2534 2157 2950 
Q 2157 3379 1920 3616 
Q 1683 3853 1267 3853 
Q 922 3853 720 3673 
Q 518 3494 326 3021 
L 192 3053 
Q 301 3648 630 3987 
Q 960 4326 1523 4326 
Q 2054 4326 2380 4006 
Q 2707 3686 2707 3200 
Q 2707 2477 1888 1613 
L 832 486 
L 2330 486 
Q 2541 486 2665 569 
Q 2790 653 2944 915 
L 3034 877 
z
" transform="scale(0.015625)"/>
       <path id="STIXGeneral-Regular-29" d="M 186 4224 
L 262 4326 
Q 992 3891 1408 3148 
Q 1824 2406 1824 1581 
Q 1824 -166 243 -1133 
L 186 -1030 
Q 845 -486 1059 54 
Q 1274 595 1274 1562 
Q 1274 2534 1059 3120 
Q 845 3706 186 4224 
z
" transform="scale(0.015625)"/>
      </defs>
      <use xlink:href="#LiberationSans-48" transform="translate(0 0.409375)"/>
      <use xlink:href="#LiberationSans-46" transform="translate(72.216797 0.409375)"/>
      <use xlink:href="#LiberationSans-41" transform="translate(133.300781 0.409375)"/>
      <use xlink:href="#LiberationSans-43" transform="translate(200 0.409375)"/>
      <use xlink:href="#LiberationSans-46" transform="translate(272.216797 0.409375)"/>
      <use xlink:href="#LiberationSans-20" transform="translate(333.300781 0.409375)"/>
      <use xlink:href="#STIXGeneral-Regular-28" transform="translate(361.083984 0.409375)"/>
      <use xlink:href="#STIXGeneral-Regular-57" transform="translate(394.383972 0.409375)"/>
      <use xlink:href="#STIXGeneral-Regular-2f" transform="translate(488.783966 0.409375)"/>
      <use xlink:href="#STIXGeneral-Regular-6d" transform="translate(516.583954 0.409375)"/>
      <use xlink:href="#STIXGeneral-Regular-32" transform="translate(595.927223 35.684375) scale(0.7)"/>
      <use xlink:href="#STIXGeneral-Regular-29" transform="translate(635.336587 0.409375)"/>
      <use xlink:href="#STIXGeneral-Regular-32" transform="translate(670.179856 35.684375) scale(0.7)"/>
     </g>
    </g>
    <g id="text_16">
     <!-- $\times\mathdefault{10^{19}}\mathdefault{}$ -->
     <g transform="translate(121.2 36.1875) scale(0.4 -0.4)">
      <defs>
       <path id="STIXGeneral-Regular-d7" d="M 3821 141 
L 3526 -160 
L 2048 1312 
L 570 -160 
L 275 134 
L 1747 1613 
L 275 3091 
L 576 3386 
L 2048 1914 
L 3526 3386 
L 3821 3098 
L 2349 1613 
L 3821 141 
z
" transform="scale(0.015625)"/>
       <path id="LiberationSans-39" d="M 3256 2291 
Q 3256 1156 2842 546 
Q 2428 -63 1663 -63 
Q 1147 -63 836 154 
Q 525 372 391 856 
L 928 941 
Q 1097 391 1672 391 
Q 2156 391 2422 841 
Q 2688 1291 2700 2125 
Q 2575 1844 2272 1673 
Q 1969 1503 1606 1503 
Q 1013 1503 656 1909 
Q 300 2316 300 2988 
Q 300 3678 687 4073 
Q 1075 4469 1766 4469 
Q 2500 4469 2878 3925 
Q 3256 3381 3256 2291 
z
M 2644 2834 
Q 2644 3366 2400 3689 
Q 2156 4013 1747 4013 
Q 1341 4013 1106 3736 
Q 872 3459 872 2988 
Q 872 2506 1106 2226 
Q 1341 1947 1741 1947 
Q 1984 1947 2193 2058 
Q 2403 2169 2523 2372 
Q 2644 2575 2644 2834 
z
" transform="scale(0.015625)"/>
      </defs>
      <use xlink:href="#STIXGeneral-Regular-d7" transform="translate(0 0.140625)"/>
      <use xlink:href="#LiberationSans-31" transform="translate(63.999985 0.140625)"/>
      <use xlink:href="#LiberationSans-30" transform="translate(119.615219 0.140625)"/>
      <use xlink:href="#LiberationSans-31" transform="translate(176.154946 37.120312) scale(0.7)"/>
      <use xlink:href="#LiberationSans-39" transform="translate(215.08561 37.120312) scale(0.7)"/>
     </g>
    </g>
   </g>
   <g id="line2d_59">
    <path d="M 147.659527 66.514909 
L 147.8183 108.861528 
L 147.871224 109.052486 
L 148.082922 115.225251 
L 148.347543 126.100722 
L 148.770938 151.482386 
L 149.458955 209.354465 
L 150.940836 371.867752 
L 151.523004 434.95898 
L 152.369794 515.854122 
L 153.05781 565.573494 
L 154.116297 607.153444 
L 154.27507 610.506451 
L 154.327994 610.456684 
L 154.380919 610.279423 
L 154.539692 612.82829 
L 154.592616 612.598035 
L 154.698465 612.701137 
L 154.804314 612.23137 
L 154.857238 612.477076 
L 154.963087 613.063091 
L 155.016011 613.02915 
L 155.068935 612.131616 
L 155.12186 608.964695 
L 155.174784 610.193839 
L 155.227708 609.612329 
L 155.333557 606.271289 
L 155.386481 606.873576 
L 155.49233 604.941341 
L 156.233271 583.809382 
L 156.392044 576.51029 
L 156.497893 572.283529 
L 156.868363 553.215263 
L 157.768077 503.262838 
L 158.138547 478.147017 
L 158.932413 426.303309 
L 159.038261 420.433167 
L 159.937975 374.820229 
L 160.149673 365.820404 
L 160.837689 347.339832 
L 160.943538 346.297807 
L 161.155235 342.949312 
L 161.208159 346.329679 
L 161.261084 342.733949 
L 161.314008 344.544954 
L 161.366933 341.215945 
L 161.419857 342.764976 
L 161.472781 344.809468 
L 161.525706 343.083062 
L 161.631554 343.030344 
L 161.9491 347.070039 
L 162.160798 352.804449 
L 162.213722 352.202126 
L 162.425419 360.424096 
L 162.478344 360.181612 
L 162.742966 371.814902 
L 162.79589 372.564451 
L 163.113436 389.684898 
L 163.16636 389.688511 
L 163.219285 391.407036 
L 163.378058 400.452524 
L 163.695604 421.213848 
L 163.748528 422.291617 
L 164.277772 456.72636 
L 164.330696 456.300878 
L 164.542393 469.546871 
L 165.124561 502.71417 
L 165.177485 504.140191 
L 165.442107 517.970121 
L 165.706729 529.124055 
L 165.759653 529.954752 
L 165.971351 536.881582 
L 166.130124 541.469617 
L 166.183048 542.06231 
L 166.341821 548.437459 
L 166.394745 546.325084 
L 166.606443 551.460883 
L 166.659367 551.368117 
L 166.712291 550.824239 
L 166.923989 554.157769 
L 166.976913 553.29452 
L 167.188611 550.802335 
L 167.241535 553.138987 
L 167.294459 552.527318 
L 167.400308 550.974296 
L 167.506157 549.483653 
L 167.559081 546.998681 
L 167.612005 549.760778 
L 167.823703 541.921344 
L 167.876627 541.136031 
L 167.982476 536.700295 
L 168.0354 538.275118 
L 168.458795 521.26818 
L 168.723417 508.210147 
L 168.776341 507.227904 
L 169.040963 492.211214 
L 169.305584 478.045388 
L 169.517282 465.096429 
L 171.31671 354.573554 
L 172.745667 287.959231 
L 172.957364 281.20257 
L 173.221986 272.976126 
L 173.27491 273.184949 
L 173.327835 273.380401 
L 173.380759 268.042507 
L 173.486608 268.556126 
L 173.857078 263.645582 
L 173.910003 265.297776 
L 173.962927 260.345969 
L 174.015851 262.139646 
L 174.068776 262.634199 
L 174.1217 265.560278 
L 174.174624 263.025219 
L 174.227549 262.534155 
L 174.280473 260.857099 
L 174.333397 265.997674 
L 174.386322 264.58344 
L 174.545095 265.35849 
L 174.809716 273.319986 
L 174.862641 270.736192 
L 174.968489 276.345717 
L 175.021414 276.04587 
L 175.497733 292.301248 
L 177.191312 376.05452 
L 177.720555 409.686554 
L 178.461496 455.856875 
L 178.831967 479.292345 
L 178.884891 478.55686 
L 179.149513 495.751074 
L 179.731681 520.756744 
L 179.996302 531.635515 
L 180.366773 540.991579 
L 180.57847 544.755168 
L 180.631395 548.309457 
L 180.684319 545.326282 
L 180.896016 549.432585 
L 181.001865 550.005028 
L 181.054789 547.557245 
L 181.107714 547.622702 
L 181.160638 549.140069 
L 181.213562 547.47327 
L 181.319411 549.271438 
L 181.372335 548.410903 
L 181.531108 544.698253 
L 181.584033 545.075355 
L 181.636957 544.935875 
L 181.742806 541.072088 
L 181.79573 541.223168 
L 182.060352 533.944947 
L 182.219125 531.277023 
L 182.483747 520.498108 
L 182.64252 515.61442 
L 182.907141 502.575872 
L 185.553359 363.252049 
L 185.659207 361.485719 
L 185.923829 350.608899 
L 185.976753 350.857705 
L 186.135527 346.698552 
L 186.188451 347.232093 
L 186.505997 341.540248 
L 186.558921 342.685548 
L 186.611846 340.582553 
L 186.66477 341.244321 
L 186.717694 341.342198 
L 186.770619 342.838918 
L 186.823543 341.229775 
L 186.876467 339.532767 
L 187.03524 345.026927 
L 187.088165 341.894425 
L 187.141089 344.285906 
L 187.352786 346.593251 
L 187.458635 347.381769 
L 187.617408 353.745543 
L 187.670333 352.206134 
L 187.723257 353.496803 
L 188.622971 392.105933 
L 188.675895 391.551431 
L 188.728819 392.630948 
L 188.993441 410.363363 
L 189.046366 411.102748 
L 189.416836 432.908628 
L 190.475323 502.114021 
L 190.581172 506.748319 
L 191.057491 534.504513 
L 191.586734 559.000944 
L 191.745507 567.671614 
L 192.115978 581.656647 
L 192.168902 582.018613 
L 192.327675 586.940605 
L 192.803994 597.934801 
L 192.909843 597.879202 
L 193.068616 600.997399 
L 193.12154 599.740187 
L 193.280313 603.401576 
L 193.439086 601.97582 
L 193.492011 602.08286 
L 193.597859 602.184519 
L 193.703708 601.852675 
L 193.862481 598.883066 
L 193.915405 598.999664 
L 193.96833 598.694864 
L 194.127103 595.513668 
L 194.180027 595.224262 
L 195.238514 551.918265 
L 196.508698 454.728284 
L 196.77332 427.563052 
L 196.826244 426.121687 
L 197.302564 376.338872 
L 198.308126 278.895904 
L 198.572748 250.932792 
L 199.525386 176.292625 
L 199.895857 158.221828 
L 200.372176 142.784255 
L 200.478024 141.761727 
L 200.530949 141.792445 
L 200.583873 107.944538 
L 200.636797 141.790615 
L 200.689722 141.7625 
L 200.954343 145.989963 
L 201.64236 176.204853 
L 203.335939 322.333415 
L 204.023956 392.367032 
L 204.606123 447.194909 
L 204.870745 471.230784 
L 205.29414 507.72234 
L 205.929232 552.20659 
L 207.040643 595.737457 
L 207.252341 599.15362 
L 207.305265 598.952109 
L 207.464038 601.939373 
L 207.516962 601.891139 
L 207.569887 602.270329 
L 207.622811 602.075936 
L 207.72866 602.006821 
L 207.834508 602.736004 
L 207.887433 603.284961 
L 207.940357 603.075548 
L 207.993281 602.434149 
L 208.046206 599.591047 
L 208.09913 600.934366 
L 208.152054 600.58408 
L 208.257903 597.593138 
L 208.310828 598.38936 
L 208.522525 594.581829 
L 208.840071 586.54171 
L 209.104693 578.858199 
L 209.157617 577.964048 
L 209.31639 570.933946 
L 209.422239 567.085999 
L 209.739785 552.221405 
L 212.703548 382.264659 
L 213.126943 363.909385 
L 213.920808 344.621704 
L 213.973733 345.241567 
L 214.079581 341.996124 
L 214.132506 345.054688 
L 214.291279 339.756933 
L 214.397127 343.195335 
L 214.450052 341.68516 
L 214.502976 341.724942 
L 214.5559 341.251698 
L 214.714673 343.603837 
L 214.926371 346.900613 
L 215.085144 349.912179 
L 215.138068 349.249229 
L 215.349766 357.11156 
L 215.40269 356.548317 
L 215.667312 367.891639 
L 215.720236 368.49862 
L 216.037782 384.938904 
L 216.090706 385.001336 
L 216.143631 386.762411 
L 216.302404 395.376105 
L 216.61995 415.750668 
L 216.725799 420.867486 
L 217.572588 471.753548 
L 217.625512 472.689328 
L 217.995983 494.653118 
L 218.842772 531.376209 
L 219.266167 545.628317 
L 219.319092 543.703628 
L 219.372016 545.754427 
L 219.42494 545.596869 
L 219.477865 545.992378 
L 219.583713 549.440982 
L 219.636638 548.914236 
L 219.848335 553.116489 
L 219.901259 552.531277 
L 219.954184 551.26132 
L 220.007108 552.685631 
L 220.060032 551.253978 
L 220.112957 550.813966 
L 220.165881 553.056294 
L 220.218805 552.508605 
L 220.27173 552.302219 
L 220.483427 547.821782 
L 220.536351 550.556188 
L 220.748049 543.35668 
L 220.800973 542.721826 
L 221.118519 534.17069 
L 221.541914 517.207139 
L 221.85946 500.503848 
L 221.912384 500.40127 
L 222.282855 476.338253 
L 222.335779 476.760264 
L 222.70625 452.585922 
L 223.129644 423.806408 
L 224.981997 315.629238 
L 225.087845 311.1683 
L 226.305105 266.43883 
L 226.35803 269.043194 
L 226.410954 266.606239 
L 226.781424 260.769589 
L 226.834349 262.559185 
L 226.887273 257.560388 
L 226.940197 259.237535 
L 226.993122 259.734882 
L 227.046046 262.610033 
L 227.09897 259.733186 
L 227.151895 259.233799 
L 227.204819 257.554528 
L 227.257743 262.552336 
L 227.310668 260.759368 
L 227.57529 263.791782 
L 227.734063 269.019159 
L 227.786987 266.415105 
L 227.892836 271.651049 
L 227.94576 271.433818 
L 228.051609 276.055009 
L 228.580852 293.982086 
L 228.686701 298.399953 
L 228.739625 298.08771 
L 229.004247 311.110075 
L 229.692263 347.904529 
L 229.745188 349.161774 
L 230.009809 365.55565 
L 231.279994 444.944131 
L 231.650464 469.142021 
L 232.8148 528.600773 
L 233.555741 550.554526 
L 233.608665 547.819248 
L 233.661589 549.841077 
L 233.926211 553.065485 
L 233.979135 550.821131 
L 234.03206 551.265388 
L 234.084984 552.697859 
L 234.137908 551.274411 
L 234.243757 553.134342 
L 234.773001 543.734458 
L 234.825925 545.659103 
L 234.878849 543.813869 
L 235.090547 536.551138 
L 235.143471 536.446846 
L 235.408093 525.618174 
L 235.461017 524.737722 
L 235.884412 505.050715 
L 236.096109 494.708727 
L 236.360731 479.703613 
L 237.260445 428.752186 
L 237.68384 401.785486 
L 237.736764 400.635317 
L 238.001386 385.054051 
L 238.05431 384.993033 
L 238.477705 365.377647 
L 238.583554 363.553515 
L 238.848175 352.280368 
L 238.9011 352.338278 
L 239.059873 347.944131 
L 239.112797 348.435361 
L 239.430343 342.306183 
L 239.483267 343.446589 
L 239.536192 341.274378 
L 239.589116 341.746371 
L 239.64204 341.705549 
L 239.694965 343.213701 
L 239.800813 339.770496 
L 239.959587 345.068681 
L 240.012511 342.007942 
L 240.065435 344.376859 
L 240.330057 346.908684 
L 240.382981 346.944264 
L 240.541754 353.113407 
L 240.594679 351.710242 
L 240.647603 352.91817 
L 241.547317 390.963979 
L 241.600241 390.495657 
L 241.653166 391.424097 
L 241.917787 409.115797 
L 242.023636 412.2787 
L 242.341182 431.764285 
L 243.187972 485.85042 
L 243.875988 527.565981 
L 244.14061 542.8879 
L 244.246459 546.586114 
L 245.146172 585.444847 
L 245.199097 584.129411 
L 245.516643 593.458035 
L 245.781265 598.361467 
L 245.834189 597.566414 
L 245.992962 600.907672 
L 246.045886 599.560929 
L 246.204659 603.259011 
L 246.363432 601.97824 
L 246.416357 602.052768 
L 246.469281 602.049788 
L 246.522205 602.242519 
L 246.733903 600.293873 
L 246.9456 596.374848 
L 246.998525 596.985822 
L 247.421919 586.711805 
L 247.580692 579.682855 
L 247.633617 578.650943 
L 248.057011 556.625948 
L 248.268709 544.188777 
L 249.115498 483.288371 
L 249.697666 427.636547 
L 249.750591 426.210378 
L 250.22691 376.355586 
L 251.232472 278.714438 
L 251.497094 250.670305 
L 252.555581 169.301894 
L 252.608505 168.9161 
L 252.820203 158.130946 
L 253.296522 142.695943 
L 253.40237 141.713627 
L 253.455295 141.740626 
L 253.508219 107.889325 
L 253.561143 141.739705 
L 253.614068 141.713668 
L 253.87869 145.938046 
L 254.566706 176.15535 
L 256.260285 322.301783 
L 256.948302 392.347275 
L 257.530469 447.183095 
L 257.848016 477.165808 
L 258.218486 507.722488 
L 258.853578 552.217877 
L 259.964989 595.749776 
L 260.176687 599.165315 
L 260.229611 598.961332 
L 260.388384 601.951153 
L 260.441308 601.90267 
L 260.494233 602.278575 
L 260.547157 602.086889 
L 260.653006 602.014665 
L 260.758855 602.746695 
L 260.811779 603.29308 
L 260.864703 603.086427 
L 260.917628 602.443902 
L 260.970552 599.597434 
L 261.023476 600.943631 
L 261.076401 600.59192 
L 261.182249 597.602947 
L 261.235174 598.397578 
L 261.446871 594.590105 
L 261.764417 586.551565 
L 262.029039 578.866508 
L 262.081963 577.972214 
L 262.240736 570.94353 
L 262.346585 567.094887 
L 262.664131 552.23149 
L 265.57497 384.817059 
L 266.262987 356.685171 
L 266.79223 345.621983 
L 267.003927 341.999094 
L 267.056852 345.062057 
L 267.215625 339.759828 
L 267.321473 343.197468 
L 267.374398 341.688838 
L 267.427322 341.726388 
L 267.480247 341.253553 
L 267.63902 343.607669 
L 267.850717 346.905011 
L 268.00949 349.916312 
L 268.062414 349.253308 
L 268.274112 357.118166 
L 268.327036 356.552252 
L 268.591658 367.898095 
L 268.644582 368.506385 
L 268.962128 384.951971 
L 269.015053 385.013049 
L 269.067977 386.774714 
L 269.22675 395.390404 
L 269.544296 415.769906 
L 269.650145 420.887866 
L 270.496934 471.788835 
L 270.549859 472.724325 
L 270.920329 494.689539 
L 271.767119 531.417666 
L 272.190513 545.666537 
L 272.243438 543.74031 
L 272.296362 545.79258 
L 272.349286 545.63501 
L 272.402211 546.02848 
L 272.508059 549.477696 
L 272.560984 548.949407 
L 272.772681 553.147878 
L 272.825605 552.562491 
L 272.87853 551.28974 
L 272.931454 552.713622 
L 272.984379 551.281384 
L 273.037303 550.841003 
L 273.090227 553.08286 
L 273.143152 552.532273 
L 273.196076 552.324855 
L 273.407773 547.838512 
L 273.460698 550.573479 
L 273.672395 543.367189 
L 273.725319 542.730546 
L 274.042865 534.170691 
L 274.46626 517.19107 
L 274.783806 500.478119 
L 274.836731 500.370853 
L 275.207201 476.295987 
L 275.260125 476.717237 
L 275.630596 452.529405 
L 276.053991 423.73369 
L 277.906343 315.540629 
L 278.012191 311.081528 
L 279.229451 266.375636 
L 279.282376 268.982276 
L 279.3353 266.546494 
L 279.70577 260.719933 
L 279.758695 262.511601 
L 279.811619 257.515211 
L 279.864544 259.195838 
L 279.917468 259.694255 
L 279.970392 262.570646 
L 280.023317 259.693858 
L 280.076241 259.197074 
L 280.129165 257.520186 
L 280.18209 262.520139 
L 280.235014 260.73148 
L 280.499636 263.772634 
L 280.658409 269.006332 
L 280.711333 266.403179 
L 280.817182 271.642603 
L 280.870106 271.430257 
L 280.975955 276.054407 
L 281.505198 293.998416 
L 281.611047 298.420309 
L 281.663971 298.110478 
L 281.928593 311.140294 
L 282.61661 347.95227 
L 282.669534 349.210014 
L 282.934156 365.609066 
L 284.20434 445.009961 
L 284.57481 469.208074 
L 285.739146 528.65243 
L 286.480087 550.600164 
L 286.533011 547.863838 
L 286.585935 549.885223 
L 286.850557 553.105429 
L 286.903482 550.857311 
L 286.956406 551.301237 
L 287.00933 552.735093 
L 287.062255 551.30991 
L 287.168103 553.167418 
L 287.697347 543.758695 
L 287.750271 545.68368 
L 287.803195 543.83743 
L 288.014893 536.570082 
L 288.067817 536.468831 
L 288.332439 525.632877 
L 288.385363 524.752847 
L 288.808758 505.057975 
L 289.020455 494.7137 
L 289.285077 479.702071 
L 290.184791 428.742502 
L 290.608186 401.77602 
L 290.66111 400.625776 
L 290.925732 385.041374 
L 290.978656 384.979531 
L 291.402051 365.363862 
L 291.5079 363.539815 
L 291.772521 352.266085 
L 291.825446 352.322916 
L 291.984219 347.92919 
L 292.037143 348.42273 
L 292.354689 342.289949 
L 292.407614 343.431493 
L 292.460538 341.259259 
L 292.513462 341.733159 
L 292.566387 341.690787 
L 292.619311 343.200531 
L 292.72516 339.75897 
L 292.883933 345.055557 
L 292.936857 341.993992 
L 292.989781 344.364528 
L 293.254403 346.898016 
L 293.307327 346.935367 
L 293.4661 353.104771 
L 293.519025 351.700651 
L 293.571949 352.911579 
L 294.471663 390.960022 
L 294.524587 390.493313 
L 294.577512 391.422275 
L 294.842133 409.118411 
L 294.947982 412.28242 
L 295.265528 431.769182 
L 296.112318 485.866774 
L 296.800334 527.593605 
L 297.064956 542.917171 
L 297.170805 546.618358 
L 298.070519 585.485585 
L 298.123443 584.170424 
L 298.440989 593.501063 
L 298.705611 598.406097 
L 298.758535 597.609632 
L 298.917308 600.952035 
L 298.970232 599.605972 
L 299.129006 603.302721 
L 299.287779 602.02191 
L 299.340703 602.0956 
L 299.393627 602.093228 
L 299.446552 602.283355 
L 299.658249 600.332449 
L 299.869946 596.411715 
L 299.922871 597.023852 
L 300.346265 586.745543 
L 300.505039 579.712098 
L 300.557963 578.678474 
L 300.981358 556.645001 
L 301.193055 544.204062 
L 302.039845 483.280017 
L 302.622012 427.609588 
L 302.674937 426.179003 
L 303.151256 376.313507 
L 304.156818 278.648479 
L 304.42144 250.598906 
L 305.479927 169.223241 
L 305.532851 168.838567 
L 305.744549 158.057081 
L 306.220868 142.627697 
L 306.326717 141.646491 
L 306.379641 141.675845 
L 306.432565 107.807445 
L 306.48549 141.678609 
L 306.538414 141.653282 
L 306.803036 145.883961 
L 307.491052 176.12433 
L 309.184631 322.316501 
L 309.872648 392.366632 
L 310.454816 447.201357 
L 310.719437 471.239934 
L 311.142832 507.731755 
L 311.777924 552.216241 
L 312.889336 595.724747 
L 313.101033 599.138507 
L 313.153957 598.934881 
L 313.31273 601.924625 
L 313.365655 601.876926 
L 313.418579 602.250083 
L 313.471503 602.057847 
L 313.577352 601.98538 
L 313.683201 602.714969 
L 313.736125 603.262757 
L 313.789049 603.054211 
L 313.841974 602.412447 
L 313.894898 599.56699 
L 313.947822 600.909581 
L 314.000747 600.558096 
L 314.106595 597.571736 
L 314.15952 598.36408 
L 314.371217 594.555216 
L 314.688763 586.516516 
L 314.953385 578.832581 
L 315.006309 577.938489 
L 315.165082 570.909344 
L 315.270931 567.061107 
L 315.588477 552.202864 
L 318.499316 384.838939 
L 319.187333 356.715066 
L 319.716576 345.655654 
L 319.928274 342.036097 
L 319.981198 345.095105 
L 320.139971 339.794596 
L 320.24582 343.231799 
L 320.298744 341.723693 
L 320.351668 341.761826 
L 320.404593 341.286878 
L 320.563366 343.641929 
L 320.775063 346.936422 
L 320.933836 349.946519 
L 320.98676 349.284643 
L 321.198458 357.143209 
L 321.251382 356.578055 
L 321.516004 367.922439 
L 321.568928 368.525293 
L 321.886474 384.967379 
L 321.939399 385.025075 
L 321.992323 386.786398 
L 322.151096 395.398148 
L 322.468642 415.767447 
L 322.574491 420.883813 
L 323.42128 471.758376 
L 323.474205 472.696757 
L 323.844675 494.652395 
L 324.691465 531.366892 
L 325.114859 545.609519 
L 325.167784 543.685914 
L 325.220708 545.739409 
L 325.273633 545.582116 
L 325.326557 545.973347 
L 325.432406 549.423151 
L 325.48533 548.896812 
L 325.697027 553.099891 
L 325.749952 552.513223 
L 325.802876 551.240233 
L 325.8558 552.666706 
L 325.908725 551.231432 
L 325.961649 550.797274 
L 326.014573 553.040671 
L 326.067498 552.494109 
L 326.120422 552.28275 
L 326.332119 547.802072 
L 326.385044 550.537523 
L 326.596741 543.338652 
L 326.649666 542.700015 
L 326.967212 534.154654 
L 327.390606 517.188641 
L 327.708152 500.486599 
L 327.761077 500.384679 
L 328.131547 476.320655 
L 328.184472 476.746277 
L 328.554942 452.572732 
L 328.978337 423.797274 
L 330.830689 315.64133 
L 330.936538 311.183167 
L 332.153798 266.468308 
L 332.206722 269.072606 
L 332.259646 266.635396 
L 332.630117 260.804993 
L 332.683041 262.592339 
L 332.735965 257.592119 
L 332.78889 259.271374 
L 332.841814 259.769688 
L 332.894738 262.643263 
L 332.947663 259.766716 
L 333.000587 259.26875 
L 333.053511 257.587867 
L 333.106436 262.587132 
L 333.15936 260.799691 
L 333.423982 263.830817 
L 333.582755 269.055834 
L 333.635679 266.449055 
L 333.741528 271.688964 
L 333.794452 271.471215 
L 333.900301 276.090171 
L 334.429544 294.010338 
L 334.535393 298.427438 
L 334.588317 298.112646 
L 334.852939 311.131212 
L 335.540956 347.903009 
L 335.59388 349.157082 
L 335.858502 365.541804 
L 336.864064 430.029413 
L 338.663492 528.512512 
L 339.404433 550.479266 
L 339.457357 547.742747 
L 339.510282 549.766447 
L 339.774903 552.99765 
L 339.827828 550.753314 
L 339.880752 551.197148 
L 339.933676 552.633127 
L 339.986601 551.212519 
L 340.092449 553.074762 
L 340.621693 543.695379 
L 340.674617 545.621673 
L 340.727542 543.777123 
L 340.939239 536.52282 
L 340.992163 536.424775 
L 341.256785 525.603908 
L 341.309709 524.725075 
L 341.733104 505.056197 
L 341.944802 494.718195 
L 342.209423 479.720267 
L 343.109137 428.791787 
L 343.532532 401.830013 
L 343.585456 400.681307 
L 343.850078 385.100983 
L 343.903002 385.043737 
L 344.326397 365.425919 
L 344.432246 363.60211 
L 344.696868 352.329725 
L 344.749792 352.390139 
L 344.908565 347.995232 
L 344.961489 348.483629 
L 345.279035 342.355765 
L 345.33196 343.499256 
L 345.384884 341.320945 
L 345.437808 341.798902 
L 345.490733 341.752196 
L 345.543657 343.263576 
L 345.649506 339.821045 
L 345.808279 345.118422 
L 345.861203 342.056652 
L 345.914128 344.426368 
L 346.178749 346.957944 
L 346.231674 346.995682 
L 346.390447 353.165506 
L 346.443371 351.763268 
L 346.496295 352.969392 
L 347.396009 391.023069 
L 347.448934 390.555107 
L 347.501858 391.480393 
L 347.76648 409.178705 
L 347.872328 412.34456 
L 348.189874 431.834379 
L 349.036664 485.931883 
L 349.72468 527.657919 
L 349.989302 542.985332 
L 350.095151 546.683432 
L 350.994865 585.560208 
L 351.047789 584.242062 
L 351.365335 593.573293 
L 351.629957 598.479343 
L 351.682881 597.685796 
L 351.841654 601.026612 
L 351.894579 599.681664 
L 352.053352 603.379327 
L 352.212125 602.099352 
L 352.265049 602.173883 
L 352.317973 602.172852 
L 352.370898 602.361362 
L 352.582595 600.413412 
L 352.794293 596.496736 
L 352.847217 597.10644 
L 353.270612 586.827556 
L 353.429385 579.794953 
L 353.482309 578.76304 
L 353.905704 556.726397 
L 354.117401 544.282342 
L 354.964191 483.337302 
L 355.546359 427.636727 
L 355.599283 426.202999 
L 356.075602 376.303746 
L 357.081165 278.560131 
L 357.345786 250.487208 
L 358.404273 169.027948 
L 358.457198 168.639381 
L 358.668895 157.838981 
L 359.145214 142.391578 
L 359.251063 141.407936 
L 359.303987 141.437076 
L 359.356911 107.512325 
L 359.409836 141.436536 
L 359.46276 141.406378 
L 359.727382 145.638918 
L 360.415398 175.890063 
L 362.108977 322.197055 
L 362.796994 392.307934 
L 363.379162 447.191948 
L 363.643783 471.250732 
L 364.067178 507.776659 
L 364.70227 552.290586 
L 365.813682 595.836802 
L 366.025379 599.256526 
L 366.078303 599.054636 
L 366.237076 602.039182 
L 366.290001 601.99294 
L 366.342925 602.363915 
L 366.395849 602.175764 
L 366.501698 602.10376 
L 366.607547 602.831198 
L 366.660471 603.381061 
L 366.713396 603.172465 
L 366.76632 602.52944 
L 366.819244 599.682022 
L 366.872169 601.025744 
L 366.925093 600.674672 
L 367.030942 597.68545 
L 367.083866 598.476243 
L 367.295563 594.666537 
L 367.613109 586.625869 
L 367.877731 578.937939 
L 367.930656 578.041699 
L 368.089429 571.010387 
L 368.195277 567.157695 
L 368.512823 552.295515 
L 371.423662 384.85659 
L 372.111679 356.721022 
L 372.640922 345.658172 
L 372.85262 342.037047 
L 372.905544 345.100356 
L 373.064317 339.798074 
L 373.170166 343.23713 
L 373.22309 341.725222 
L 373.276014 341.769744 
L 373.328939 341.291165 
L 373.487712 343.647494 
L 373.699409 346.943288 
L 373.858182 349.953377 
L 373.911107 349.290463 
L 374.122804 357.151584 
L 374.175728 356.587834 
L 374.44035 367.932179 
L 374.493274 368.536874 
L 374.810821 384.980234 
L 374.863745 385.036212 
L 374.916669 386.797705 
L 375.075442 395.409646 
L 375.392988 415.780914 
L 375.498837 420.894109 
L 376.345627 471.765401 
L 376.398551 472.7005 
L 376.769021 494.654461 
L 377.615811 531.352249 
L 378.039206 545.59016 
L 378.09213 543.662339 
L 378.145054 545.715859 
L 378.197979 545.554545 
L 378.250903 545.95052 
L 378.356752 549.39618 
L 378.409676 548.870048 
L 378.621373 553.067144 
L 378.674298 552.478061 
L 378.727222 551.207813 
L 378.780146 552.629872 
L 378.833071 551.198203 
L 378.885995 550.75794 
L 378.93892 553.00507 
L 378.991844 552.45459 
L 379.044768 552.244671 
L 379.256466 547.762808 
L 379.30939 550.502717 
L 379.521087 543.301787 
L 379.574012 542.664504 
L 379.891558 534.118877 
L 380.314953 517.156733 
L 380.632499 500.463542 
L 380.685423 500.360096 
L 381.055893 476.304034 
L 381.108818 476.735896 
L 381.479288 452.568831 
L 381.902683 423.805826 
L 383.755035 315.692452 
L 383.860884 311.235329 
L 385.078144 266.507776 
L 385.131068 269.113853 
L 385.183992 266.674363 
L 385.554463 260.838941 
L 385.607387 262.621995 
L 385.660311 257.620326 
L 385.713236 259.298966 
L 385.76616 259.794805 
L 385.819085 262.667083 
L 385.872009 259.792587 
L 385.924933 259.290802 
L 385.977858 257.608616 
L 386.030782 262.607795 
L 386.083706 260.821855 
L 386.348328 263.84445 
L 386.507101 269.065739 
L 386.560025 266.458571 
L 386.665874 271.696925 
L 386.718798 271.477552 
L 386.824647 276.095454 
L 387.353891 294.010732 
L 387.459739 298.424693 
L 387.512664 298.113606 
L 387.777285 311.12981 
L 388.465302 347.902127 
L 388.518226 349.157604 
L 388.782848 365.544852 
L 389.735486 423.701904 
L 389.947184 437.486615 
L 390.529351 476.661165 
L 390.582276 476.233922 
L 390.846897 493.70143 
L 392.064157 542.652549 
L 392.170006 544.455076 
L 392.487552 550.771699 
L 392.540476 551.097045 
L 392.69925 553.014576 
L 392.752174 550.769202 
L 392.805098 551.209162 
L 392.858023 552.644339 
L 392.910947 551.222239 
L 393.016796 553.083078 
L 393.546039 543.686726 
L 393.598963 545.615305 
L 393.651888 543.771681 
L 393.863585 536.510361 
L 393.916509 536.409172 
L 394.181131 525.583625 
L 394.234056 524.703597 
L 394.65745 505.019789 
L 394.869148 494.681606 
L 395.133769 479.676429 
L 396.033483 428.73549 
L 396.456878 401.77855 
L 396.509802 400.627231 
L 396.774424 385.05045 
L 396.827349 384.989572 
L 397.250743 365.377447 
L 397.356592 363.552772 
L 397.621214 352.282299 
L 397.674138 352.343933 
L 397.832911 347.952268 
L 397.885835 348.44092 
L 398.203382 342.317951 
L 398.256306 343.46112 
L 398.30923 341.286003 
L 398.362155 341.76316 
L 398.415079 341.717588 
L 398.468003 343.229764 
L 398.573852 339.789613 
L 398.732625 345.087845 
L 398.785549 342.02584 
L 398.838474 344.397849 
L 399.103095 346.932461 
L 399.15602 346.972557 
L 399.314793 353.145461 
L 399.367717 351.740156 
L 399.420641 352.9491 
L 400.320355 391.007429 
L 400.37328 390.537727 
L 400.426204 391.465889 
L 400.690826 409.163387 
L 400.796674 412.32975 
L 401.114221 431.81709 
L 401.96101 485.912345 
L 402.649027 527.639637 
L 402.913648 542.966486 
L 403.019497 546.662747 
L 403.919211 585.547152 
L 403.972135 584.229944 
L 404.289681 593.56714 
L 404.554303 598.473114 
L 404.607227 597.681883 
L 404.766 601.025508 
L 404.818925 599.68143 
L 404.977698 603.378851 
L 405.136471 602.099487 
L 405.189395 602.176796 
L 405.24232 602.175346 
L 405.295244 602.364606 
L 405.506941 600.421726 
L 405.718639 596.504721 
L 405.771563 597.115372 
L 406.194958 586.84298 
L 406.353731 579.812941 
L 406.406655 578.777684 
L 406.83005 556.744822 
L 407.041747 544.301881 
L 407.888537 483.36405 
L 408.470705 427.664519 
L 408.523629 426.2298 
L 408.999948 376.330672 
L 410.005511 278.592363 
L 410.270132 250.522158 
L 411.328619 169.072426 
L 411.381544 168.682553 
L 411.593241 157.885149 
L 412.06956 142.441554 
L 412.175409 141.457619 
L 412.228333 141.486352 
L 412.281258 107.576639 
L 412.334182 141.48633 
L 412.387106 141.456908 
L 412.651728 145.690321 
L 413.339745 175.944469 
L 415.033324 322.244539 
L 415.72134 392.350979 
L 416.303508 447.2315 
L 416.56813 471.289132 
L 416.991524 507.809919 
L 417.626617 552.318607 
L 418.738028 595.844728 
L 418.949725 599.258583 
L 419.00265 599.055533 
L 419.161423 602.037574 
L 419.214347 601.986945 
L 419.267271 602.360291 
L 419.320196 602.169515 
L 419.426044 602.092666 
L 419.531893 602.819579 
L 419.584817 603.365115 
L 419.637742 603.157635 
L 419.690666 602.513548 
L 419.74359 599.662295 
L 419.796515 601.006433 
L 419.849439 600.652185 
L 419.955288 597.657062 
L 420.008212 598.447734 
L 420.21991 594.634445 
L 420.537456 586.581241 
L 420.802077 578.884427 
L 420.855002 577.982387 
L 421.013775 570.948214 
L 421.119623 567.092585 
L 421.437169 552.213573 
L 424.348009 384.73252 
L 425.036025 356.61727 
L 425.565268 345.579158 
L 425.776966 341.969506 
L 425.82989 345.033308 
L 425.988663 339.742874 
L 426.094512 343.186665 
L 426.147436 341.678234 
L 426.200361 341.725675 
L 426.253285 341.253209 
L 426.412058 343.61902 
L 426.623755 346.928355 
L 426.782528 349.94963 
L 426.835453 349.289245 
L 427.04715 357.164417 
L 427.100075 356.606135 
L 427.364696 367.964181 
L 427.417621 368.573434 
L 427.735167 385.033301 
L 427.788091 385.096891 
L 427.841015 386.862167 
L 427.999788 395.483218 
L 428.317334 415.869972 
L 428.423183 420.986583 
L 429.269973 471.88622 
L 429.322897 472.81923 
L 429.693367 494.777485 
L 430.540157 531.471113 
L 430.963552 545.695579 
L 431.016476 543.767207 
L 431.0694 545.814127 
L 431.122325 545.654952 
L 431.175249 546.049022 
L 431.281098 549.489242 
L 431.334022 548.96199 
L 431.54572 553.144502 
L 431.598644 552.554416 
L 431.651568 551.280809 
L 431.704493 552.701305 
L 431.757417 551.267695 
L 431.810341 550.817617 
L 431.863266 553.063713 
L 431.91619 552.508735 
L 431.969114 552.300006 
L 432.180812 547.805771 
L 432.233736 550.539497 
L 432.445433 543.324197 
L 432.498358 542.686783 
L 432.815904 534.118989 
L 433.239299 517.128219 
L 433.556845 500.415952 
L 433.609769 500.305944 
L 433.98024 476.234137 
L 434.033164 476.658851 
L 434.403634 452.47411 
L 434.827029 423.688195 
L 436.679381 315.564258 
L 436.78523 311.110148 
L 437.843717 271.464593 
L 437.896641 271.681289 
L 437.949565 271.434057 
L 438.00249 266.445247 
L 438.108339 266.620013 
L 438.478809 260.8113 
L 438.531733 262.599659 
L 438.584658 257.605959 
L 438.637582 259.286694 
L 438.690506 259.786287 
L 438.743431 262.664016 
L 438.796355 259.793693 
L 438.849279 259.296998 
L 438.902204 257.622229 
L 438.955128 262.620419 
L 439.008052 260.838062 
L 439.272674 263.884684 
L 439.431447 269.122352 
L 439.484372 266.522988 
L 439.59022 271.76893 
L 439.643145 271.553298 
L 439.748993 276.182821 
L 440.278237 294.135216 
L 440.384085 298.56056 
L 440.43701 298.253163 
L 440.701631 311.285908 
L 441.389648 348.098112 
L 441.442572 349.35523 
L 441.707194 365.751597 
L 442.712757 430.257864 
L 444.512184 528.636536 
L 445.253125 550.523532 
L 445.30605 547.786843 
L 445.358974 549.802313 
L 445.623596 553.00821 
L 445.67652 550.758781 
L 445.729444 551.194575 
L 445.782369 552.628375 
L 445.835293 551.199202 
L 445.941142 553.050971 
L 446.470385 543.623583 
L 446.52331 545.544661 
L 446.576234 543.698602 
L 446.787931 536.428839 
L 446.840856 536.324415 
L 447.105477 525.490734 
L 447.158402 524.608178 
L 447.581796 504.921813 
L 447.793494 494.583588 
L 448.058116 479.581456 
L 448.957829 428.661949 
L 449.381224 401.717919 
L 449.434149 400.573641 
L 449.69877 385.005376 
L 449.751695 384.944672 
L 450.175089 365.350768 
L 450.280938 363.531626 
L 450.54556 352.265009 
L 450.598484 352.32733 
L 450.757257 347.938385 
L 450.810182 348.430267 
L 451.127728 342.307896 
L 451.180652 343.450001 
L 451.233576 341.281558 
L 451.286501 341.752193 
L 451.339425 341.71869 
L 451.392349 343.223137 
L 451.498198 339.786236 
L 451.656971 345.082844 
L 451.709895 342.022203 
L 451.76282 344.391711 
L 452.027442 346.923667 
L 452.080366 346.960832 
L 452.239139 353.130928 
L 452.292063 351.726848 
L 452.344988 352.93414 
L 453.244701 390.969384 
L 453.297626 390.497263 
L 453.35055 391.427806 
L 453.615172 409.113148 
L 453.721021 412.273177 
L 454.038567 431.748336 
L 454.885356 485.813223 
L 455.573373 527.518095 
L 455.837994 542.841405 
L 455.943843 546.538084 
L 456.843557 585.398171 
L 456.896481 584.085786 
L 457.214027 593.418816 
L 457.478649 598.325705 
L 457.531574 597.530936 
L 457.690347 600.873688 
L 457.743271 599.532707 
L 457.902044 603.228376 
L 458.060817 601.949136 
L 458.113741 602.026031 
L 458.166666 602.024516 
L 458.21959 602.2179 
L 458.431287 600.271481 
L 458.642985 596.355323 
L 458.695909 596.967413 
L 459.119304 586.702906 
L 459.278077 579.677504 
L 459.331001 578.642749 
L 459.754396 556.621873 
L 459.966093 544.191172 
L 460.812883 483.30366 
L 461.395051 427.657565 
L 461.447975 426.228934 
L 461.924294 376.382074 
L 462.929857 278.749913 
L 463.194479 250.712127 
L 464.252965 169.357234 
L 464.30589 168.970389 
L 464.517587 158.189135 
L 464.993906 142.761942 
L 465.099755 141.781739 
L 465.152679 141.806456 
L 465.205604 107.957834 
L 465.258528 141.807361 
L 465.311452 141.783185 
L 465.576074 146.008555 
L 466.264091 176.227972 
L 467.95767 322.351654 
L 468.645686 392.378885 
L 469.227854 447.199159 
L 469.5454 477.171244 
L 469.915871 507.713194 
L 470.550963 552.18089 
L 471.662374 595.677295 
L 471.874071 599.086745 
L 471.926996 598.88446 
L 472.085769 601.870337 
L 472.138693 601.819076 
L 472.191617 602.195727 
L 472.244542 602.00125 
L 472.35039 601.927763 
L 472.456239 602.657047 
L 472.509163 603.203951 
L 472.562088 602.993398 
L 472.615012 602.35231 
L 472.667937 599.509 
L 472.720861 600.85388 
L 472.773785 600.498053 
L 472.879634 597.508026 
L 472.932558 598.30253 
L 473.144256 594.494862 
L 473.461802 586.450321 
L 473.726423 578.763901 
L 473.779348 577.869778 
L 473.938121 570.839751 
L 474.04397 566.990165 
L 474.361516 552.129521 
L 477.272355 384.805297 
L 477.960371 356.70085 
L 478.489615 345.659344 
L 478.701312 342.04692 
L 478.754236 345.106693 
L 478.913009 339.81353 
L 479.018858 343.252102 
L 479.071782 341.745015 
L 479.124707 341.783319 
L 479.177631 341.315815 
L 479.336404 343.669905 
L 479.548102 346.975619 
L 479.706875 349.987916 
L 479.759799 349.326201 
L 479.971496 357.191823 
L 480.024421 356.630439 
L 480.289042 367.976498 
L 480.341967 368.585268 
L 480.659513 385.029854 
L 480.712437 385.091637 
L 480.765361 386.852908 
L 480.924135 395.465601 
L 481.241681 415.838128 
L 481.347529 420.95465 
L 482.194319 471.837879 
L 482.247243 472.77201 
L 482.617714 494.727385 
L 483.464503 531.434455 
L 483.887898 545.670978 
L 483.940822 543.748532 
L 483.993747 545.797132 
L 484.046671 545.636473 
L 484.099595 546.03048 
L 484.205444 549.476033 
L 484.258368 548.95027 
L 484.470066 553.145495 
L 484.52299 552.560804 
L 484.575914 551.28877 
L 484.628839 552.710845 
L 484.681763 551.279154 
L 484.734687 550.836776 
L 484.787612 553.078137 
L 484.840536 552.529224 
L 484.89346 552.318813 
L 485.105158 547.835984 
L 485.158082 550.564679 
L 485.36978 543.361168 
L 485.422704 542.723252 
L 485.74025 534.166345 
L 486.163645 517.19005 
L 486.481191 500.480241 
L 486.534115 500.373194 
L 486.904586 476.302733 
L 486.95751 476.720178 
L 487.32798 452.539171 
L 487.751375 423.749978 
L 489.603727 315.545826 
L 489.709576 311.084565 
L 490.926836 266.363513 
L 490.97976 268.96349 
L 491.032685 266.533172 
L 491.403155 260.699985 
L 491.456079 262.491394 
L 491.509004 257.496661 
L 491.561928 259.172588 
L 491.614852 259.670905 
L 491.667777 262.545492 
L 491.720701 259.670931 
L 491.773625 259.173014 
L 491.82655 257.497227 
L 491.879474 262.490803 
L 491.932399 260.704325 
L 492.19702 263.743351 
L 492.355793 268.97018 
L 492.408718 266.369083 
L 492.514566 271.60709 
L 492.567491 271.392893 
L 492.673339 276.016119 
L 493.202583 293.95763 
L 493.308432 298.379993 
L 493.361356 298.069448 
L 493.625978 311.099865 
L 494.313994 347.913554 
L 494.366918 349.173137 
L 494.63154 365.573629 
L 495.901724 444.98132 
L 496.272195 469.181928 
L 497.436531 528.627809 
L 498.177471 550.572702 
L 498.230396 547.835982 
L 498.28332 549.856796 
L 498.547942 553.07817 
L 498.600866 550.834546 
L 498.65379 551.275621 
L 498.706715 552.70945 
L 498.759639 551.284339 
L 498.865488 553.140794 
L 499.394731 543.735822 
L 499.447656 545.658584 
L 499.50058 543.813227 
L 499.712277 536.546574 
L 499.765202 536.438997 
L 500.029823 525.607724 
L 500.082748 524.729146 
L 500.506143 505.039175 
L 500.71784 494.695609 
L 500.982462 479.691848 
L 501.882176 428.743382 
L 502.30557 401.779853 
L 502.358495 400.633752 
L 502.623116 385.055633 
L 502.676041 384.993029 
L 503.099436 365.384522 
L 503.205284 363.560986 
L 503.469906 352.295697 
L 503.52283 352.3555 
L 503.681603 347.965545 
L 503.734528 348.455985 
L 504.052074 342.333343 
L 504.104998 343.474979 
L 504.157922 341.304404 
L 504.210847 341.779022 
L 504.263771 341.738577 
L 504.316696 343.247378 
L 504.422544 339.809647 
L 504.581317 345.105261 
L 504.634242 342.047187 
L 504.687166 344.419459 
L 504.951788 346.958683 
L 505.004712 346.995481 
L 505.163485 353.163004 
L 505.216409 351.761924 
L 505.269334 352.970407 
L 506.169048 391.022916 
L 506.221972 390.557607 
L 506.274896 391.483447 
L 506.539518 409.179209 
L 506.645367 412.337927 
L 506.962913 431.820117 
L 507.809702 485.894676 
L 508.497719 527.585581 
L 508.762341 542.901551 
L 508.868189 546.597026 
L 509.767903 585.419984 
L 509.820828 584.103173 
L 510.138374 593.423853 
L 510.402995 598.31645 
L 510.45592 597.521841 
L 510.614693 600.857019 
L 510.667617 599.513004 
L 510.82639 603.206863 
L 510.985163 601.923501 
L 511.038087 601.996167 
L 511.091012 601.994662 
L 511.143936 602.18516 
L 511.355634 600.235554 
L 511.567331 596.315964 
L 511.620255 596.927414 
L 512.04365 586.650421 
L 512.202423 579.62441 
L 512.255347 578.59459 
L 512.678742 556.579902 
L 512.89044 544.14869 
L 513.737229 483.274458 
L 514.319397 427.6472 
L 514.372321 426.222251 
L 514.84864 376.389074 
L 515.854203 278.782008 
L 516.118825 250.741799 
L 517.177312 169.393596 
L 517.230236 169.007298 
L 517.441933 158.226413 
L 517.918252 142.793487 
L 518.024101 141.811646 
L 518.077026 141.835973 
L 518.12995 108.002542 
L 518.182874 141.836497 
L 518.235799 141.812984 
L 518.50042 146.031842 
L 519.188437 176.231465 
L 520.882016 322.326023 
L 521.570032 392.337325 
L 522.1522 447.149014 
L 522.469746 477.117768 
L 522.840217 507.657755 
L 523.475309 552.132963 
L 524.58672 595.65525 
L 524.798417 599.072022 
L 524.851342 598.872479 
L 525.010115 601.861801 
L 525.063039 601.817985 
L 525.115964 602.193659 
L 525.168888 602.000782 
L 525.274737 601.934932 
L 525.380585 602.666755 
L 525.43351 603.217139 
L 525.486434 603.006966 
L 525.539358 602.368104 
L 525.592283 599.527175 
L 525.645207 600.870512 
L 525.698131 600.522061 
L 525.80398 597.539514 
L 525.856904 598.334553 
L 526.068602 594.534483 
L 526.386148 586.515319 
L 526.65077 578.836734 
L 526.703694 577.949894 
L 526.862467 570.926051 
L 526.968316 567.081639 
L 527.285862 552.237542 
L 530.249625 382.392016 
L 530.67302 364.030412 
L 531.466885 344.735144 
L 531.519809 345.349548 
L 531.625658 342.103866 
L 531.678582 345.162251 
L 531.837356 339.857249 
L 531.943204 343.290194 
L 531.996129 341.779641 
L 532.049053 341.81962 
L 532.101977 341.339886 
L 532.26075 343.685653 
L 532.472448 346.972244 
L 532.631221 349.979504 
L 532.684145 349.313763 
L 532.895842 357.167749 
L 532.948767 356.597401 
L 533.213389 367.933677 
L 533.266313 368.534207 
L 533.583859 384.96292 
L 533.636783 385.019604 
L 533.689708 386.779938 
L 533.848481 395.382885 
L 534.166027 415.740083 
L 534.271875 420.85502 
L 535.118665 471.702253 
L 535.171589 472.639921 
L 535.54206 494.587463 
L 536.388849 531.293724 
L 536.812244 545.534887 
L 536.865168 543.609807 
L 536.918093 545.666367 
L 536.971017 545.50865 
L 537.023941 545.901458 
L 537.12979 549.35276 
L 537.182714 548.824026 
L 537.394412 553.026764 
L 537.447336 552.442008 
L 537.500261 551.170768 
L 537.553185 552.598325 
L 537.606109 551.163788 
L 537.659034 550.73067 
L 537.711958 552.974259 
L 537.764882 552.42959 
L 537.817807 552.217317 
L 538.029504 547.739211 
L 538.082428 550.47366 
L 538.294126 543.280018 
L 538.34705 542.643359 
L 538.664596 534.098859 
L 539.087991 517.152236 
L 539.405537 500.455792 
L 539.458461 500.353111 
L 539.828932 476.296671 
L 539.881856 476.725465 
L 540.252327 452.558564 
L 540.675721 423.793171 
L 542.528073 315.649393 
L 542.633922 311.193516 
L 543.851182 266.475615 
L 543.904106 269.07709 
L 543.957031 266.644145 
L 544.327501 260.809269 
L 544.380426 262.595408 
L 544.43335 257.597885 
L 544.486274 259.275269 
L 544.539199 259.777051 
L 544.592123 262.646107 
L 544.645047 259.771807 
L 544.697972 259.271317 
L 544.750896 257.590484 
L 544.80382 262.589453 
L 544.856745 260.800591 
L 545.121366 263.828928 
L 545.280139 269.0506 
L 545.333064 266.442928 
L 545.438912 271.680885 
L 545.491837 271.46513 
L 545.597686 276.081989 
L 546.126929 293.998483 
L 546.232778 298.414064 
L 546.285702 298.098426 
L 546.550324 311.115242 
L 547.23834 347.88349 
L 547.291265 349.13928 
L 547.555886 365.524483 
L 548.508525 423.671852 
L 548.720222 437.450544 
L 549.30239 476.624785 
L 549.355314 476.197043 
L 549.619936 493.66456 
L 550.837196 542.637483 
L 550.943044 544.441693 
L 551.260591 550.765923 
L 551.313515 551.09026 
L 551.472288 553.013112 
L 551.525212 550.772068 
L 551.578137 551.217247 
L 551.631061 552.653217 
L 551.683985 551.233349 
L 551.789834 553.096831 
L 552.319077 543.725319 
L 552.372002 545.65075 
L 552.424926 543.80665 
L 552.636624 536.560532 
L 552.689548 536.459441 
L 552.95417 525.640024 
L 553.007094 524.765974 
L 553.430489 505.09719 
L 553.642186 494.760619 
L 553.906808 479.763742 
L 554.806522 428.830516 
L 555.229917 401.865654 
L 555.282841 400.712442 
L 555.547463 385.130433 
L 555.600387 385.069515 
L 556.023782 365.44006 
L 556.12963 363.616286 
L 556.394252 352.335462 
L 556.447176 352.395061 
L 556.60595 347.992566 
L 556.658874 348.479792 
L 556.97642 342.343182 
L 557.029344 343.486897 
L 557.082269 341.306582 
L 557.135193 341.781914 
L 557.188117 341.733046 
L 557.241042 343.24301 
L 557.34689 339.798012 
L 557.505663 345.089315 
L 557.558588 342.024646 
L 557.611512 344.393795 
L 557.876134 346.915917 
L 557.929058 346.951922 
L 558.087831 353.11484 
L 558.140756 351.709654 
L 558.19368 352.9164 
L 559.093394 390.940893 
L 559.146318 390.468837 
L 559.199242 391.394126 
L 559.463864 409.084318 
L 559.569713 412.249295 
L 559.887259 431.733055 
L 560.734049 485.818563 
L 561.422065 527.548888 
L 561.686687 542.87612 
L 561.792535 546.580596 
L 562.692249 585.482569 
L 562.745174 584.16503 
L 563.06272 593.51301 
L 563.327341 598.426132 
L 563.380266 597.637276 
L 563.539039 600.989065 
L 563.591963 599.648572 
L 563.750736 603.351169 
L 563.909509 602.080745 
L 563.962434 602.158408 
L 564.015358 602.160913 
L 564.068282 602.349354 
L 564.27998 600.413551 
L 564.491677 596.507599 
L 564.544601 597.121711 
L 564.967996 586.86115 
L 565.126769 579.834877 
L 565.179694 578.805097 
L 565.603088 556.786912 
L 565.814786 544.350394 
L 566.661575 483.423527 
L 567.243743 427.726381 
L 567.296667 426.291903 
L 567.772987 376.387295 
L 568.778549 278.625087 
L 569.043171 250.544945 
L 570.101658 169.062767 
L 570.154582 168.669629 
L 570.36628 157.867297 
L 570.842599 142.411342 
L 570.948447 141.427859 
L 571.001372 141.455725 
L 571.054296 107.538649 
L 571.10722 141.452442 
L 571.160145 141.423243 
L 571.424766 145.651092 
L 572.112783 175.895167 
L 573.806362 322.184733 
L 574.494379 392.296578 
L 575.076546 447.177632 
L 575.341168 471.238755 
L 575.764563 507.766956 
L 576.399655 552.290694 
L 577.511066 595.842452 
L 577.722764 599.263576 
L 577.775688 599.062871 
L 577.934461 602.048303 
L 577.987385 602.002719 
L 578.04031 602.373122 
L 578.093234 602.187303 
L 578.199083 602.111692 
L 578.304931 602.844224 
L 578.357856 603.393326 
L 578.41078 603.186083 
L 578.463704 602.542276 
L 578.516629 599.694992 
L 578.569553 601.039951 
L 578.622478 600.690203 
L 578.728326 597.699382 
L 578.781251 598.489752 
L 578.992948 594.682229 
L 579.310494 586.644195 
L 579.575116 578.955265 
L 579.62804 578.054726 
L 579.786813 571.022314 
L 579.892662 567.171839 
L 580.210208 552.30767 
L 583.121047 384.862631 
L 583.809063 356.739973 
L 584.338307 345.690086 
L 584.550004 342.073648 
L 584.602929 345.136406 
L 584.761702 339.839542 
L 584.86755 343.28246 
L 584.920475 341.771015 
L 584.973399 341.819022 
L 585.026323 341.341548 
L 585.185096 343.701714 
L 585.396794 347.003967 
L 585.555567 350.016356 
L 585.608491 349.355532 
L 585.820189 357.222436 
L 585.873113 356.660082 
L 586.137735 368.010076 
L 586.190659 368.614282 
L 586.508205 385.063739 
L 586.561129 385.124081 
L 586.614054 386.880611 
L 586.772827 395.497213 
L 587.090373 415.867585 
L 587.196222 420.983012 
L 588.043011 471.849154 
L 588.095935 472.783535 
L 588.466406 494.728637 
L 589.313195 531.405823 
L 589.73659 545.623823 
L 589.789515 543.695122 
L 589.842439 545.74271 
L 589.895363 545.582028 
L 589.948288 545.974586 
L 590.054136 549.416928 
L 590.107061 548.888426 
L 590.318758 553.070758 
L 590.371682 552.480318 
L 590.424607 551.20665 
L 590.477531 552.627002 
L 590.530455 551.190807 
L 590.58338 550.748568 
L 590.636304 552.991836 
L 590.689228 552.44062 
L 590.742153 552.230233 
L 590.95385 547.734999 
L 591.006775 550.469164 
L 591.218472 543.256342 
L 591.271396 542.618854 
L 591.588942 534.050571 
L 592.012337 517.065017 
L 592.329883 500.353526 
L 592.382808 500.245289 
L 592.753278 476.170149 
L 592.806202 476.597571 
L 593.176673 452.412317 
L 593.600067 423.631401 
L 595.45242 315.513228 
L 595.558268 311.058108 
L 596.775528 266.404987 
L 596.828453 269.009438 
L 596.881377 266.582029 
L 597.251847 260.778279 
L 597.304772 262.566197 
L 597.357696 257.568549 
L 597.41062 259.250553 
L 597.463545 259.751189 
L 597.516469 262.627482 
L 597.569393 259.759561 
L 597.622318 259.263957 
L 597.675242 257.58811 
L 597.728166 262.588353 
L 597.781091 260.808109 
L 598.045713 263.855838 
L 598.204486 269.091225 
L 598.25741 266.489809 
L 598.363259 271.738831 
L 598.416183 271.523457 
L 598.522032 276.152262 
L 599.051275 294.10688 
L 599.157124 298.529314 
L 599.210048 298.221829 
L 599.47467 311.251671 
L 600.162686 348.054074 
L 600.215611 349.310503 
L 600.480232 365.700728 
L 601.750417 445.035786 
L 602.120887 469.209259 
L 603.285223 528.571245 
L 604.026164 550.475369 
L 604.079088 547.736612 
L 604.132012 549.756147 
L 604.396634 552.966114 
L 604.449558 550.719805 
L 604.502483 551.154315 
L 604.555407 552.586633 
L 604.608331 551.160379 
L 604.71418 553.015312 
L 605.243424 543.595844 
L 605.296348 545.518826 
L 605.349272 543.673221 
L 605.56097 536.407284 
L 605.613894 536.302997 
L 605.878516 525.469471 
L 605.93144 524.590884 
L 606.354835 504.90487 
L 606.566532 494.565301 
L 606.831154 479.564775 
L 607.730868 428.648731 
L 608.154263 401.705306 
L 608.207187 400.560631 
L 608.471809 384.996567 
L 608.524733 384.94112 
L 608.948128 365.347679 
L 609.053977 363.529422 
L 609.318598 352.273144 
L 609.371523 352.337185 
L 609.530296 347.9529 
L 609.58322 348.444849 
L 609.900766 342.338108 
L 609.95369 343.485457 
L 610.006615 341.311256 
L 610.059539 341.792451 
L 610.112463 341.750906 
L 610.165388 343.264226 
L 610.271237 339.832084 
L 610.43001 345.135932 
L 610.482934 342.076366 
L 610.535858 344.448469 
L 610.80048 346.993894 
L 610.853404 347.036206 
L 611.012177 353.214874 
L 611.065102 351.812236 
L 611.118026 353.020699 
L 612.01774 391.098322 
L 612.070664 390.629912 
L 612.123589 391.559085 
L 612.38821 409.25595 
L 612.494059 412.420819 
L 612.811605 431.905689 
L 613.658395 485.984572 
L 614.346411 527.68173 
L 614.611033 543.000918 
L 614.716882 546.695764 
L 615.616595 585.540986 
L 615.66952 584.222792 
L 615.987066 593.548341 
L 616.251688 598.447779 
L 616.304612 597.654079 
L 616.463385 600.991707 
L 616.516309 599.649714 
L 616.675082 603.342108 
L 616.833855 602.062945 
L 616.88678 602.137413 
L 616.939704 602.133755 
L 616.992628 602.322704 
L 617.204326 600.376817 
L 617.416023 596.457061 
L 617.468948 597.067339 
L 617.892342 586.790588 
L 618.051115 579.762377 
L 618.10404 578.730379 
L 618.527435 556.701912 
L 618.739132 544.262362 
L 619.585921 483.339673 
L 620.168089 427.663056 
L 620.221014 426.23024 
L 620.697333 376.35019 
L 621.702895 278.647198 
L 621.967517 250.585813 
L 623.026004 169.165465 
L 623.078928 168.776885 
L 623.290626 157.983322 
L 623.766945 142.542635 
L 623.872793 141.558269 
L 623.925718 141.58762 
L 623.978642 107.692057 
L 624.031567 141.586996 
L 624.084491 141.558706 
L 624.349113 145.78675 
L 625.037129 176.017864 
L 626.730708 322.227805 
L 627.418725 392.288629 
L 628.000892 447.140254 
L 628.318439 477.125262 
L 628.688909 507.688253 
L 629.324001 552.184041 
L 630.435412 595.722361 
L 630.64711 599.146311 
L 630.700034 598.946125 
L 630.858807 601.933773 
L 630.911732 601.886218 
L 630.964656 602.260157 
L 631.01758 602.073707 
L 631.123429 602.000006 
L 631.229278 602.734223 
L 631.282202 603.280747 
L 631.335126 603.075421 
L 631.388051 602.43285 
L 631.440975 599.590725 
L 631.493899 600.932616 
L 631.546824 600.583951 
L 631.652672 597.594385 
L 631.705597 598.387498 
L 631.917294 594.585204 
L 632.23484 586.551263 
L 632.499462 578.868947 
L 632.552386 577.971315 
L 632.711159 570.94503 
L 632.817008 567.095826 
L 633.134554 552.236039 
L 636.045393 384.833323 
L 636.73341 356.714367 
L 637.262653 345.666902 
L 637.47435 342.052637 
L 637.527275 345.11353 
L 637.686048 339.819167 
L 637.791897 343.261442 
L 637.844821 341.751516 
L 637.897745 341.796627 
L 637.95067 341.320141 
L 638.109443 343.679779 
L 638.32114 346.982033 
L 638.479913 349.998296 
L 638.532837 349.336907 
L 638.744535 357.203585 
L 638.797459 356.641565 
L 639.062081 367.991438 
L 639.115005 368.598467 
L 639.432551 385.043044 
L 639.485476 385.105106 
L 639.5384 386.866277 
L 639.697173 395.479573 
L 640.014719 415.850701 
L 640.120568 420.965091 
L 640.967357 471.82837 
L 641.020282 472.76164 
L 641.390752 494.70927 
L 642.237542 531.385034 
L 642.660936 545.604401 
L 642.713861 543.678218 
L 642.766785 545.729815 
L 642.819709 545.566048 
L 642.872634 545.95946 
L 642.978482 549.403444 
L 643.031407 548.873074 
L 643.243104 553.061178 
L 643.296029 552.471705 
L 643.348953 551.200609 
L 643.401877 552.620388 
L 643.454802 551.187025 
L 643.507726 550.74436 
L 643.56065 552.989855 
L 643.613575 552.439983 
L 643.666499 552.227848 
L 643.878196 547.738651 
L 643.931121 550.473525 
L 644.142818 543.26974 
L 644.195742 542.628938 
L 644.513288 534.073518 
L 644.936683 517.108108 
L 645.254229 500.406643 
L 645.307154 500.300767 
L 645.677624 476.245331 
L 645.730548 476.672167 
L 646.101019 452.507157 
L 646.524414 423.743 
L 648.376766 315.65006 
L 648.482614 311.195226 
L 649.699874 266.50637 
L 649.752799 269.11212 
L 649.805723 266.676912 
L 650.176194 260.857846 
L 650.229118 262.641071 
L 650.282042 257.645307 
L 650.334967 259.324948 
L 650.387891 259.825017 
L 650.440815 262.696796 
L 650.49374 259.823894 
L 650.546664 259.326068 
L 650.599588 257.646986 
L 650.652513 262.644508 
L 650.705437 260.861193 
L 650.970059 263.897406 
L 651.128832 269.123118 
L 651.181756 266.52 
L 651.287605 271.761743 
L 651.340529 271.545816 
L 651.446378 276.165891 
L 651.975621 294.100261 
L 652.08147 298.51956 
L 652.134394 298.208271 
L 652.399016 311.231254 
L 653.087033 348.019425 
L 653.139957 349.276793 
L 653.404579 365.665717 
L 654.357217 423.818016 
L 654.568914 437.592284 
L 655.151082 476.746879 
L 655.204006 476.319102 
L 655.468628 493.775035 
L 656.685888 542.669522 
L 656.791737 544.464748 
L 657.109283 550.76827 
L 657.162207 551.090184 
L 657.32098 553.002909 
L 657.373905 550.755315 
L 657.426829 551.19706 
L 657.479753 552.628991 
L 657.532678 551.206395 
L 657.638526 553.059995 
L 658.16777 543.655317 
L 658.220694 545.580781 
L 658.273618 543.735676 
L 658.485316 536.474236 
L 658.53824 536.370429 
L 658.802862 525.545121 
L 658.855786 524.666215 
L 659.279181 504.983623 
L 659.490878 494.648667 
L 659.7555 479.649456 
L 660.655214 428.722658 
L 661.078609 401.769955 
L 661.131533 400.62005 
L 661.396155 385.050384 
L 661.449079 384.989025 
L 661.872474 365.378538 
L 661.978323 363.556244 
L 662.242944 352.286765 
L 662.295869 352.349051 
L 662.454642 347.953332 
L 662.507566 348.443129 
L 662.825112 342.316226 
L 662.878037 343.460463 
L 662.930961 341.28773 
L 662.983885 341.759084 
L 663.03681 341.718084 
L 663.089734 343.226253 
L 663.195583 339.785024 
L 663.354356 345.081397 
L 663.40728 342.01844 
L 663.460204 344.388605 
L 663.724826 346.919151 
L 663.77775 346.9549 
L 663.936524 353.125152 
L 663.989448 351.720222 
L 664.042372 352.925524 
L 664.942086 390.959216 
L 664.99501 390.48804 
L 665.047935 391.415294 
L 665.312557 409.103521 
L 665.418405 412.268306 
L 665.735951 431.745041 
L 666.582741 485.818096 
L 667.270757 527.532778 
L 667.535379 542.853151 
L 667.641228 546.552004 
L 668.540942 585.426579 
L 668.593866 584.112076 
L 668.911412 593.45007 
L 669.176034 598.357882 
L 669.228958 597.567209 
L 669.387731 600.913205 
L 669.440656 599.570764 
L 669.599429 603.270673 
L 669.758202 601.993639 
L 669.811126 602.071021 
L 669.86405 602.070235 
L 669.916975 602.260256 
L 670.128672 600.321357 
L 670.340369 596.409966 
L 670.393294 597.023122 
L 670.816689 586.760102 
L 670.975462 579.735029 
L 671.028386 578.701157 
L 671.451781 556.683816 
L 671.663478 544.251783 
L 672.510268 483.35288 
L 673.092435 427.684731 
L 673.14536 426.251886 
L 673.621679 376.379098 
L 674.627241 278.680017 
L 674.891863 250.620132 
L 675.95035 169.19342 
L 676.003274 168.802296 
L 676.214972 158.006927 
L 676.691291 142.564572 
L 676.79714 141.581075 
L 676.850064 141.608372 
" clip-path="url(#p9792c06d10)" style="fill: none; stroke: #0000ff; stroke-width: 1.5; stroke-linecap: square"/>
   </g>
   <g id="patch_3">
    <path d="M 121.2 640.3905 
L 121.2 39.1875 
" style="fill: none; stroke: #000000; stroke-width: 0.8; stroke-linejoin: miter; stroke-linecap: square"/>
   </g>
   <g id="patch_4">
    <path d="M 703.309591 640.3905 
L 703.309591 39.1875 
" style="fill: none; stroke: #000000; stroke-width: 0.8; stroke-linejoin: miter; stroke-linecap: square"/>
   </g>
   <g id="patch_5">
    <path d="M 121.2 640.3905 
L 703.309591 640.3905 
" style="fill: none; stroke: #000000; stroke-width: 0.8; stroke-linejoin: miter; stroke-linecap: square"/>
   </g>
   <g id="patch_6">
    <path d="M 121.2 39.1875 
L 703.309591 39.1875 
" style="fill: none; stroke: #000000; stroke-width: 0.8; stroke-linejoin: miter; stroke-linecap: square"/>
   </g>
  </g>
 </g>
 <defs>
  <clipPath id="p9792c06d10">
   <rect x="121.2" y="39.1875" width="582.109591" height="601.203"/>
  </clipPath>
 </defs>
</svg>
