<?xml version="1.0" encoding="utf-8" standalone="no"?>
<!DOCTYPE svg PUBLIC "-//W3C//DTD SVG 1.1//EN"
  "http://www.w3.org/Graphics/SVG/1.1/DTD/svg11.dtd">
<svg xmlns:xlink="http://www.w3.org/1999/xlink" width="710.741988pt" height="711.02175pt" viewBox="0 0 710.741988 711.02175" xmlns="http://www.w3.org/2000/svg" version="1.1">
 <metadata>
  <rdf:RDF xmlns:dc="http://purl.org/dc/elements/1.1/" xmlns:cc="http://creativecommons.org/ns#" xmlns:rdf="http://www.w3.org/1999/02/22-rdf-syntax-ns#">
   <cc:Work>
    <dc:type rdf:resource="http://purl.org/dc/dcmitype/StillImage"/>
    <dc:date>2025-02-06T00:35:38.666736</dc:date>
    <dc:format>image/svg+xml</dc:format>
    <dc:creator>
     <cc:Agent>
      <dc:title>Matplotlib v3.9.3, https://matplotlib.org/</dc:title>
     </cc:Agent>
    </dc:creator>
   </cc:Work>
  </rdf:RDF>
 </metadata>
 <defs>
  <style type="text/css">*{stroke-linejoin: round; stroke-linecap: butt}</style>
 </defs>
 <g id="figure_1">
  <g id="patch_1">
   <path d="M 0 711.02175 
L 710.741988 711.02175 
L 710.741988 0 
L 0 0 
z
" style="fill: #ffffff"/>
  </g>
  <g id="axes_1">
   <g id="patch_2">
    <path d="M 79.5 640.3905 
L 703.541988 640.3905 
L 703.541988 39.1875 
L 79.5 39.1875 
z
" style="fill: #ffffff"/>
   </g>
   <g id="matplotlib.axis_1">
    <g id="xtick_1">
     <g id="line2d_1">
      <defs>
       <path id="md07ad1d4e4" d="M 0 0 
L 0 -3.5 
" style="stroke: #000000; stroke-width: 0.8"/>
      </defs>
      <g>
       <use xlink:href="#md07ad1d4e4" x="107.808808" y="640.3905" style="stroke: #000000; stroke-width: 0.8"/>
      </g>
     </g>
     <g id="text_1">
      <!-- 0 -->
      <g transform="translate(99.467402 665.631125) scale(0.3 -0.3)">
       <defs>
        <path id="LiberationSans-30" d="M 3309 2203 
Q 3309 1100 2920 518 
Q 2531 -63 1772 -63 
Q 1013 -63 631 515 
Q 250 1094 250 2203 
Q 250 3338 620 3903 
Q 991 4469 1791 4469 
Q 2569 4469 2939 3897 
Q 3309 3325 3309 2203 
z
M 2738 2203 
Q 2738 3156 2517 3584 
Q 2297 4013 1791 4013 
Q 1272 4013 1045 3591 
Q 819 3169 819 2203 
Q 819 1266 1048 831 
Q 1278 397 1778 397 
Q 2275 397 2506 840 
Q 2738 1284 2738 2203 
z
" transform="scale(0.015625)"/>
       </defs>
       <use xlink:href="#LiberationSans-30"/>
      </g>
     </g>
    </g>
    <g id="xtick_2">
     <g id="line2d_2">
      <g>
       <use xlink:href="#md07ad1d4e4" x="221.282335" y="640.3905" style="stroke: #000000; stroke-width: 0.8"/>
      </g>
     </g>
     <g id="text_2">
      <!-- 2 -->
      <g transform="translate(212.940929 665.631125) scale(0.3 -0.3)">
       <defs>
        <path id="LiberationSans-32" d="M 322 0 
L 322 397 
Q 481 763 711 1042 
Q 941 1322 1194 1548 
Q 1447 1775 1695 1969 
Q 1944 2163 2144 2356 
Q 2344 2550 2467 2762 
Q 2591 2975 2591 3244 
Q 2591 3606 2378 3806 
Q 2166 4006 1788 4006 
Q 1428 4006 1195 3811 
Q 963 3616 922 3263 
L 347 3316 
Q 409 3844 795 4156 
Q 1181 4469 1788 4469 
Q 2453 4469 2811 4155 
Q 3169 3841 3169 3263 
Q 3169 3006 3051 2753 
Q 2934 2500 2703 2247 
Q 2472 1994 1819 1463 
Q 1459 1169 1246 933 
Q 1034 697 941 478 
L 3238 478 
L 3238 0 
L 322 0 
z
" transform="scale(0.015625)"/>
       </defs>
       <use xlink:href="#LiberationSans-32"/>
      </g>
     </g>
    </g>
    <g id="xtick_3">
     <g id="line2d_3">
      <g>
       <use xlink:href="#md07ad1d4e4" x="334.755862" y="640.3905" style="stroke: #000000; stroke-width: 0.8"/>
      </g>
     </g>
     <g id="text_3">
      <!-- 4 -->
      <g transform="translate(326.414456 665.631125) scale(0.3 -0.3)">
       <defs>
        <path id="LiberationSans-34" d="M 2753 997 
L 2753 0 
L 2222 0 
L 2222 997 
L 147 997 
L 147 1434 
L 2163 4403 
L 2753 4403 
L 2753 1441 
L 3372 1441 
L 3372 997 
L 2753 997 
z
M 2222 3769 
Q 2216 3750 2134 3603 
Q 2053 3456 2013 3397 
L 884 1734 
L 716 1503 
L 666 1441 
L 2222 1441 
L 2222 3769 
z
" transform="scale(0.015625)"/>
       </defs>
       <use xlink:href="#LiberationSans-34"/>
      </g>
     </g>
    </g>
    <g id="xtick_4">
     <g id="line2d_4">
      <g>
       <use xlink:href="#md07ad1d4e4" x="448.229389" y="640.3905" style="stroke: #000000; stroke-width: 0.8"/>
      </g>
     </g>
     <g id="text_4">
      <!-- 6 -->
      <g transform="translate(439.887983 665.631125) scale(0.3 -0.3)">
       <defs>
        <path id="LiberationSans-36" d="M 3278 1441 
Q 3278 744 2900 340 
Q 2522 -63 1856 -63 
Q 1113 -63 719 490 
Q 325 1044 325 2100 
Q 325 3244 734 3856 
Q 1144 4469 1900 4469 
Q 2897 4469 3156 3572 
L 2619 3475 
Q 2453 4013 1894 4013 
Q 1413 4013 1148 3564 
Q 884 3116 884 2266 
Q 1038 2550 1316 2698 
Q 1594 2847 1953 2847 
Q 2563 2847 2920 2465 
Q 3278 2084 3278 1441 
z
M 2706 1416 
Q 2706 1894 2472 2153 
Q 2238 2413 1819 2413 
Q 1425 2413 1183 2183 
Q 941 1953 941 1550 
Q 941 1041 1192 716 
Q 1444 391 1838 391 
Q 2244 391 2475 664 
Q 2706 938 2706 1416 
z
" transform="scale(0.015625)"/>
       </defs>
       <use xlink:href="#LiberationSans-36"/>
      </g>
     </g>
    </g>
    <g id="xtick_5">
     <g id="line2d_5">
      <g>
       <use xlink:href="#md07ad1d4e4" x="561.702916" y="640.3905" style="stroke: #000000; stroke-width: 0.8"/>
      </g>
     </g>
     <g id="text_5">
      <!-- 8 -->
      <g transform="translate(553.36151 665.631125) scale(0.3 -0.3)">
       <defs>
        <path id="LiberationSans-38" d="M 3281 1228 
Q 3281 619 2893 278 
Q 2506 -63 1781 -63 
Q 1075 -63 676 271 
Q 278 606 278 1222 
Q 278 1653 525 1947 
Q 772 2241 1156 2303 
L 1156 2316 
Q 797 2400 589 2681 
Q 381 2963 381 3341 
Q 381 3844 757 4156 
Q 1134 4469 1769 4469 
Q 2419 4469 2795 4162 
Q 3172 3856 3172 3334 
Q 3172 2956 2962 2675 
Q 2753 2394 2391 2322 
L 2391 2309 
Q 2813 2241 3047 1952 
Q 3281 1663 3281 1228 
z
M 2588 3303 
Q 2588 4050 1769 4050 
Q 1372 4050 1164 3862 
Q 956 3675 956 3303 
Q 956 2925 1170 2726 
Q 1384 2528 1775 2528 
Q 2172 2528 2380 2711 
Q 2588 2894 2588 3303 
z
M 2697 1281 
Q 2697 1691 2453 1898 
Q 2209 2106 1769 2106 
Q 1341 2106 1100 1882 
Q 859 1659 859 1269 
Q 859 359 1788 359 
Q 2247 359 2472 579 
Q 2697 800 2697 1281 
z
" transform="scale(0.015625)"/>
       </defs>
       <use xlink:href="#LiberationSans-38"/>
      </g>
     </g>
    </g>
    <g id="xtick_6">
     <g id="line2d_6">
      <g>
       <use xlink:href="#md07ad1d4e4" x="675.176443" y="640.3905" style="stroke: #000000; stroke-width: 0.8"/>
      </g>
     </g>
     <g id="text_6">
      <!-- 10 -->
      <g transform="translate(658.493631 665.631125) scale(0.3 -0.3)">
       <defs>
        <path id="LiberationSans-31" d="M 488 0 
L 488 478 
L 1609 478 
L 1609 3866 
L 616 3156 
L 616 3688 
L 1656 4403 
L 2175 4403 
L 2175 478 
L 3247 478 
L 3247 0 
L 488 0 
z
" transform="scale(0.015625)"/>
       </defs>
       <use xlink:href="#LiberationSans-31"/>
       <use xlink:href="#LiberationSans-30" x="55.615234"/>
      </g>
     </g>
    </g>
    <g id="xtick_7">
     <g id="line2d_7">
      <defs>
       <path id="m979c906820" d="M 0 0 
L 0 -2 
" style="stroke: #000000; stroke-width: 0.6"/>
      </defs>
      <g>
       <use xlink:href="#m979c906820" x="136.17719" y="640.3905" style="stroke: #000000; stroke-width: 0.6"/>
      </g>
     </g>
    </g>
    <g id="xtick_8">
     <g id="line2d_8">
      <g>
       <use xlink:href="#m979c906820" x="164.545572" y="640.3905" style="stroke: #000000; stroke-width: 0.6"/>
      </g>
     </g>
    </g>
    <g id="xtick_9">
     <g id="line2d_9">
      <g>
       <use xlink:href="#m979c906820" x="192.913953" y="640.3905" style="stroke: #000000; stroke-width: 0.6"/>
      </g>
     </g>
    </g>
    <g id="xtick_10">
     <g id="line2d_10">
      <g>
       <use xlink:href="#m979c906820" x="249.650717" y="640.3905" style="stroke: #000000; stroke-width: 0.6"/>
      </g>
     </g>
    </g>
    <g id="xtick_11">
     <g id="line2d_11">
      <g>
       <use xlink:href="#m979c906820" x="278.019099" y="640.3905" style="stroke: #000000; stroke-width: 0.6"/>
      </g>
     </g>
    </g>
    <g id="xtick_12">
     <g id="line2d_12">
      <g>
       <use xlink:href="#m979c906820" x="306.38748" y="640.3905" style="stroke: #000000; stroke-width: 0.6"/>
      </g>
     </g>
    </g>
    <g id="xtick_13">
     <g id="line2d_13">
      <g>
       <use xlink:href="#m979c906820" x="363.124244" y="640.3905" style="stroke: #000000; stroke-width: 0.6"/>
      </g>
     </g>
    </g>
    <g id="xtick_14">
     <g id="line2d_14">
      <g>
       <use xlink:href="#m979c906820" x="391.492626" y="640.3905" style="stroke: #000000; stroke-width: 0.6"/>
      </g>
     </g>
    </g>
    <g id="xtick_15">
     <g id="line2d_15">
      <g>
       <use xlink:href="#m979c906820" x="419.861008" y="640.3905" style="stroke: #000000; stroke-width: 0.6"/>
      </g>
     </g>
    </g>
    <g id="xtick_16">
     <g id="line2d_16">
      <g>
       <use xlink:href="#m979c906820" x="476.597771" y="640.3905" style="stroke: #000000; stroke-width: 0.6"/>
      </g>
     </g>
    </g>
    <g id="xtick_17">
     <g id="line2d_17">
      <g>
       <use xlink:href="#m979c906820" x="504.966153" y="640.3905" style="stroke: #000000; stroke-width: 0.6"/>
      </g>
     </g>
    </g>
    <g id="xtick_18">
     <g id="line2d_18">
      <g>
       <use xlink:href="#m979c906820" x="533.334535" y="640.3905" style="stroke: #000000; stroke-width: 0.6"/>
      </g>
     </g>
    </g>
    <g id="xtick_19">
     <g id="line2d_19">
      <g>
       <use xlink:href="#m979c906820" x="590.071298" y="640.3905" style="stroke: #000000; stroke-width: 0.6"/>
      </g>
     </g>
    </g>
    <g id="xtick_20">
     <g id="line2d_20">
      <g>
       <use xlink:href="#m979c906820" x="618.43968" y="640.3905" style="stroke: #000000; stroke-width: 0.6"/>
      </g>
     </g>
    </g>
    <g id="xtick_21">
     <g id="line2d_21">
      <g>
       <use xlink:href="#m979c906820" x="646.808062" y="640.3905" style="stroke: #000000; stroke-width: 0.6"/>
      </g>
     </g>
    </g>
    <g id="text_7">
     <!-- Time ps -->
     <g transform="translate(338.744432 697.59675) scale(0.3 -0.3)">
      <defs>
       <path id="LiberationSans-54" d="M 2250 3916 
L 2250 0 
L 1656 0 
L 1656 3916 
L 144 3916 
L 144 4403 
L 3763 4403 
L 3763 3916 
L 2250 3916 
z
" transform="scale(0.015625)"/>
       <path id="LiberationSans-69" d="M 428 4100 
L 428 4638 
L 991 4638 
L 991 4100 
L 428 4100 
z
M 428 0 
L 428 3381 
L 991 3381 
L 991 0 
L 428 0 
z
" transform="scale(0.015625)"/>
       <path id="LiberationSans-6d" d="M 2400 0 
L 2400 2144 
Q 2400 2634 2265 2821 
Q 2131 3009 1781 3009 
Q 1422 3009 1212 2734 
Q 1003 2459 1003 1959 
L 1003 0 
L 444 0 
L 444 2659 
Q 444 3250 425 3381 
L 956 3381 
Q 959 3366 962 3297 
Q 966 3228 970 3139 
Q 975 3050 981 2803 
L 991 2803 
Q 1172 3163 1406 3303 
Q 1641 3444 1978 3444 
Q 2363 3444 2586 3291 
Q 2809 3138 2897 2803 
L 2906 2803 
Q 3081 3144 3329 3294 
Q 3578 3444 3931 3444 
Q 4444 3444 4676 3166 
Q 4909 2888 4909 2253 
L 4909 0 
L 4353 0 
L 4353 2144 
Q 4353 2634 4218 2821 
Q 4084 3009 3734 3009 
Q 3366 3009 3161 2736 
Q 2956 2463 2956 1959 
L 2956 0 
L 2400 0 
z
" transform="scale(0.015625)"/>
       <path id="LiberationSans-65" d="M 863 1572 
Q 863 991 1103 675 
Q 1344 359 1806 359 
Q 2172 359 2392 506 
Q 2613 653 2691 878 
L 3184 738 
Q 2881 -63 1806 -63 
Q 1056 -63 664 384 
Q 272 831 272 1713 
Q 272 2550 664 2997 
Q 1056 3444 1784 3444 
Q 3275 3444 3275 1647 
L 3275 1572 
L 863 1572 
z
M 2694 2003 
Q 2647 2538 2422 2783 
Q 2197 3028 1775 3028 
Q 1366 3028 1127 2754 
Q 888 2481 869 2003 
L 2694 2003 
z
" transform="scale(0.015625)"/>
       <path id="LiberationSans-20" transform="scale(0.015625)"/>
       <path id="LiberationSans-70" d="M 3291 1706 
Q 3291 -63 2047 -63 
Q 1266 -63 997 525 
L 981 525 
Q 994 500 994 -6 
L 994 -1328 
L 431 -1328 
L 431 2691 
Q 431 3213 413 3381 
L 956 3381 
Q 959 3369 965 3292 
Q 972 3216 980 3056 
Q 988 2897 988 2838 
L 1000 2838 
Q 1150 3150 1397 3295 
Q 1644 3441 2047 3441 
Q 2672 3441 2981 3022 
Q 3291 2603 3291 1706 
z
M 2700 1694 
Q 2700 2400 2509 2703 
Q 2319 3006 1903 3006 
Q 1569 3006 1380 2865 
Q 1191 2725 1092 2426 
Q 994 2128 994 1650 
Q 994 984 1206 668 
Q 1419 353 1897 353 
Q 2316 353 2508 661 
Q 2700 969 2700 1694 
z
" transform="scale(0.015625)"/>
       <path id="LiberationSans-73" d="M 2969 934 
Q 2969 456 2608 196 
Q 2247 -63 1597 -63 
Q 966 -63 623 145 
Q 281 353 178 794 
L 675 891 
Q 747 619 972 492 
Q 1197 366 1597 366 
Q 2025 366 2223 497 
Q 2422 628 2422 891 
Q 2422 1091 2284 1216 
Q 2147 1341 1841 1422 
L 1438 1528 
Q 953 1653 748 1773 
Q 544 1894 428 2066 
Q 313 2238 313 2488 
Q 313 2950 642 3192 
Q 972 3434 1603 3434 
Q 2163 3434 2492 3237 
Q 2822 3041 2909 2606 
L 2403 2544 
Q 2356 2769 2151 2889 
Q 1947 3009 1603 3009 
Q 1222 3009 1040 2893 
Q 859 2778 859 2544 
Q 859 2400 934 2306 
Q 1009 2213 1156 2147 
Q 1303 2081 1775 1966 
Q 2222 1853 2419 1758 
Q 2616 1663 2730 1547 
Q 2844 1431 2906 1279 
Q 2969 1128 2969 934 
z
" transform="scale(0.015625)"/>
      </defs>
      <use xlink:href="#LiberationSans-54"/>
      <use xlink:href="#LiberationSans-69" x="57.333984"/>
      <use xlink:href="#LiberationSans-6d" x="79.550781"/>
      <use xlink:href="#LiberationSans-65" x="162.851562"/>
      <use xlink:href="#LiberationSans-20" x="218.466797"/>
      <use xlink:href="#LiberationSans-70" x="246.25"/>
      <use xlink:href="#LiberationSans-73" x="301.865234"/>
     </g>
    </g>
   </g>
   <g id="matplotlib.axis_2">
    <g id="ytick_1">
     <g id="line2d_22">
      <defs>
       <path id="md6a569b180" d="M 0 0 
L 3.5 0 
" style="stroke: #000000; stroke-width: 0.8"/>
      </defs>
      <g>
       <use xlink:href="#md6a569b180" x="79.5" y="589.963651" style="stroke: #000000; stroke-width: 0.8"/>
      </g>
     </g>
     <g id="text_8">
      <!-- $\mathdefault{−1}$ -->
      <g transform="translate(41.5 600.833964) scale(0.3 -0.3)">
       <defs>
        <path id="LiberationSans-2212" d="M 316 1900 
L 316 2356 
L 3425 2356 
L 3425 1900 
L 316 1900 
z
" transform="scale(0.015625)"/>
       </defs>
       <use xlink:href="#LiberationSans-2212" transform="translate(0 0.203125)"/>
       <use xlink:href="#LiberationSans-31" transform="translate(58.398438 0.203125)"/>
      </g>
     </g>
    </g>
    <g id="ytick_2">
     <g id="line2d_23">
      <g>
       <use xlink:href="#md6a569b180" x="79.5" y="484.366745" style="stroke: #000000; stroke-width: 0.8"/>
      </g>
     </g>
     <g id="text_9">
      <!-- $\mathdefault{0}$ -->
      <g transform="translate(59.2 495.237057) scale(0.3 -0.3)">
       <use xlink:href="#LiberationSans-30" transform="translate(0 0.171875)"/>
      </g>
     </g>
    </g>
    <g id="ytick_3">
     <g id="line2d_24">
      <g>
       <use xlink:href="#md6a569b180" x="79.5" y="378.769838" style="stroke: #000000; stroke-width: 0.8"/>
      </g>
     </g>
     <g id="text_10">
      <!-- $\mathdefault{1}$ -->
      <g transform="translate(59.2 389.640151) scale(0.3 -0.3)">
       <use xlink:href="#LiberationSans-31" transform="translate(0 0.203125)"/>
      </g>
     </g>
    </g>
    <g id="ytick_4">
     <g id="line2d_25">
      <g>
       <use xlink:href="#md6a569b180" x="79.5" y="273.172931" style="stroke: #000000; stroke-width: 0.8"/>
      </g>
     </g>
     <g id="text_11">
      <!-- $\mathdefault{2}$ -->
      <g transform="translate(59.2 284.043244) scale(0.3 -0.3)">
       <use xlink:href="#LiberationSans-32" transform="translate(0 0.171875)"/>
      </g>
     </g>
    </g>
    <g id="ytick_5">
     <g id="line2d_26">
      <g>
       <use xlink:href="#md6a569b180" x="79.5" y="167.576025" style="stroke: #000000; stroke-width: 0.8"/>
      </g>
     </g>
     <g id="text_12">
      <!-- $\mathdefault{3}$ -->
      <g transform="translate(59.2 178.446337) scale(0.3 -0.3)">
       <defs>
        <path id="LiberationSans-33" d="M 3278 1216 
Q 3278 606 2890 271 
Q 2503 -63 1784 -63 
Q 1116 -63 717 239 
Q 319 541 244 1131 
L 825 1184 
Q 938 403 1784 403 
Q 2209 403 2451 612 
Q 2694 822 2694 1234 
Q 2694 1594 2417 1795 
Q 2141 1997 1619 1997 
L 1300 1997 
L 1300 2484 
L 1606 2484 
Q 2069 2484 2323 2686 
Q 2578 2888 2578 3244 
Q 2578 3597 2370 3801 
Q 2163 4006 1753 4006 
Q 1381 4006 1151 3815 
Q 922 3625 884 3278 
L 319 3322 
Q 381 3863 767 4166 
Q 1153 4469 1759 4469 
Q 2422 4469 2789 4161 
Q 3156 3853 3156 3303 
Q 3156 2881 2920 2617 
Q 2684 2353 2234 2259 
L 2234 2247 
Q 2728 2194 3003 1916 
Q 3278 1638 3278 1216 
z
" transform="scale(0.015625)"/>
       </defs>
       <use xlink:href="#LiberationSans-33" transform="translate(0 0.171875)"/>
      </g>
     </g>
    </g>
    <g id="ytick_6">
     <g id="line2d_27">
      <g>
       <use xlink:href="#md6a569b180" x="79.5" y="61.979118" style="stroke: #000000; stroke-width: 0.8"/>
      </g>
     </g>
     <g id="text_13">
      <!-- $\mathdefault{4}$ -->
      <g transform="translate(59.2 72.849431) scale(0.3 -0.3)">
       <use xlink:href="#LiberationSans-34" transform="translate(0 0.203125)"/>
      </g>
     </g>
    </g>
    <g id="ytick_7">
     <g id="line2d_28">
      <defs>
       <path id="mdbef352cb1" d="M 0 0 
L 2 0 
" style="stroke: #000000; stroke-width: 0.6"/>
      </defs>
      <g>
       <use xlink:href="#mdbef352cb1" x="79.5" y="632.202414" style="stroke: #000000; stroke-width: 0.6"/>
      </g>
     </g>
    </g>
    <g id="ytick_8">
     <g id="line2d_29">
      <g>
       <use xlink:href="#mdbef352cb1" x="79.5" y="611.083033" style="stroke: #000000; stroke-width: 0.6"/>
      </g>
     </g>
    </g>
    <g id="ytick_9">
     <g id="line2d_30">
      <g>
       <use xlink:href="#mdbef352cb1" x="79.5" y="568.84427" style="stroke: #000000; stroke-width: 0.6"/>
      </g>
     </g>
    </g>
    <g id="ytick_10">
     <g id="line2d_31">
      <g>
       <use xlink:href="#mdbef352cb1" x="79.5" y="547.724889" style="stroke: #000000; stroke-width: 0.6"/>
      </g>
     </g>
    </g>
    <g id="ytick_11">
     <g id="line2d_32">
      <g>
       <use xlink:href="#mdbef352cb1" x="79.5" y="526.605507" style="stroke: #000000; stroke-width: 0.6"/>
      </g>
     </g>
    </g>
    <g id="ytick_12">
     <g id="line2d_33">
      <g>
       <use xlink:href="#mdbef352cb1" x="79.5" y="505.486126" style="stroke: #000000; stroke-width: 0.6"/>
      </g>
     </g>
    </g>
    <g id="ytick_13">
     <g id="line2d_34">
      <g>
       <use xlink:href="#mdbef352cb1" x="79.5" y="463.247363" style="stroke: #000000; stroke-width: 0.6"/>
      </g>
     </g>
    </g>
    <g id="ytick_14">
     <g id="line2d_35">
      <g>
       <use xlink:href="#mdbef352cb1" x="79.5" y="442.127982" style="stroke: #000000; stroke-width: 0.6"/>
      </g>
     </g>
    </g>
    <g id="ytick_15">
     <g id="line2d_36">
      <g>
       <use xlink:href="#mdbef352cb1" x="79.5" y="421.008601" style="stroke: #000000; stroke-width: 0.6"/>
      </g>
     </g>
    </g>
    <g id="ytick_16">
     <g id="line2d_37">
      <g>
       <use xlink:href="#mdbef352cb1" x="79.5" y="399.889219" style="stroke: #000000; stroke-width: 0.6"/>
      </g>
     </g>
    </g>
    <g id="ytick_17">
     <g id="line2d_38">
      <g>
       <use xlink:href="#mdbef352cb1" x="79.5" y="357.650457" style="stroke: #000000; stroke-width: 0.6"/>
      </g>
     </g>
    </g>
    <g id="ytick_18">
     <g id="line2d_39">
      <g>
       <use xlink:href="#mdbef352cb1" x="79.5" y="336.531075" style="stroke: #000000; stroke-width: 0.6"/>
      </g>
     </g>
    </g>
    <g id="ytick_19">
     <g id="line2d_40">
      <g>
       <use xlink:href="#mdbef352cb1" x="79.5" y="315.411694" style="stroke: #000000; stroke-width: 0.6"/>
      </g>
     </g>
    </g>
    <g id="ytick_20">
     <g id="line2d_41">
      <g>
       <use xlink:href="#mdbef352cb1" x="79.5" y="294.292313" style="stroke: #000000; stroke-width: 0.6"/>
      </g>
     </g>
    </g>
    <g id="ytick_21">
     <g id="line2d_42">
      <g>
       <use xlink:href="#mdbef352cb1" x="79.5" y="252.05355" style="stroke: #000000; stroke-width: 0.6"/>
      </g>
     </g>
    </g>
    <g id="ytick_22">
     <g id="line2d_43">
      <g>
       <use xlink:href="#mdbef352cb1" x="79.5" y="230.934169" style="stroke: #000000; stroke-width: 0.6"/>
      </g>
     </g>
    </g>
    <g id="ytick_23">
     <g id="line2d_44">
      <g>
       <use xlink:href="#mdbef352cb1" x="79.5" y="209.814787" style="stroke: #000000; stroke-width: 0.6"/>
      </g>
     </g>
    </g>
    <g id="ytick_24">
     <g id="line2d_45">
      <g>
       <use xlink:href="#mdbef352cb1" x="79.5" y="188.695406" style="stroke: #000000; stroke-width: 0.6"/>
      </g>
     </g>
    </g>
    <g id="ytick_25">
     <g id="line2d_46">
      <g>
       <use xlink:href="#mdbef352cb1" x="79.5" y="146.456644" style="stroke: #000000; stroke-width: 0.6"/>
      </g>
     </g>
    </g>
    <g id="ytick_26">
     <g id="line2d_47">
      <g>
       <use xlink:href="#mdbef352cb1" x="79.5" y="125.337262" style="stroke: #000000; stroke-width: 0.6"/>
      </g>
     </g>
    </g>
    <g id="ytick_27">
     <g id="line2d_48">
      <g>
       <use xlink:href="#mdbef352cb1" x="79.5" y="104.217881" style="stroke: #000000; stroke-width: 0.6"/>
      </g>
     </g>
    </g>
    <g id="ytick_28">
     <g id="line2d_49">
      <g>
       <use xlink:href="#mdbef352cb1" x="79.5" y="83.0985" style="stroke: #000000; stroke-width: 0.6"/>
      </g>
     </g>
    </g>
    <g id="ytick_29">
     <g id="line2d_50">
      <g>
       <use xlink:href="#mdbef352cb1" x="79.5" y="40.859737" style="stroke: #000000; stroke-width: 0.6"/>
      </g>
     </g>
    </g>
    <g id="text_14">
     <!-- ACF $(\mathrm{W} / \mathrm{m}^2)^2$ -->
     <g transform="translate(31.275 426.339) rotate(-90) scale(0.3 -0.3)">
      <defs>
       <path id="LiberationSans-41" d="M 3647 0 
L 3144 1288 
L 1138 1288 
L 631 0 
L 13 0 
L 1809 4403 
L 2488 4403 
L 4256 0 
L 3647 0 
z
M 2141 3953 
L 2113 3866 
Q 2034 3606 1881 3200 
L 1319 1753 
L 2966 1753 
L 2400 3206 
Q 2313 3422 2225 3694 
L 2141 3953 
z
" transform="scale(0.015625)"/>
       <path id="LiberationSans-43" d="M 2475 3981 
Q 1744 3981 1337 3511 
Q 931 3041 931 2222 
Q 931 1413 1354 920 
Q 1778 428 2500 428 
Q 3425 428 3891 1344 
L 4378 1100 
Q 4106 531 3614 234 
Q 3122 -63 2472 -63 
Q 1806 -63 1320 214 
Q 834 491 579 1005 
Q 325 1519 325 2222 
Q 325 3275 894 3872 
Q 1463 4469 2469 4469 
Q 3172 4469 3644 4194 
Q 4116 3919 4338 3378 
L 3772 3191 
Q 3619 3575 3280 3778 
Q 2941 3981 2475 3981 
z
" transform="scale(0.015625)"/>
       <path id="LiberationSans-46" d="M 1122 3916 
L 1122 2278 
L 3578 2278 
L 3578 1784 
L 1122 1784 
L 1122 0 
L 525 0 
L 525 4403 
L 3653 4403 
L 3653 3916 
L 1122 3916 
z
" transform="scale(0.015625)"/>
       <path id="STIXGeneral-Regular-28" d="M 1946 -1030 
L 1869 -1133 
Q 1126 -710 716 32 
Q 307 774 307 1613 
Q 307 3386 1888 4326 
L 1946 4224 
Q 1293 3667 1075 3126 
Q 858 2586 858 1632 
Q 858 685 1082 96 
Q 1306 -493 1946 -1030 
z
" transform="scale(0.015625)"/>
       <path id="STIXGeneral-Regular-57" d="M 5965 4237 
L 5965 4115 
Q 5709 4064 5616 3990 
Q 5523 3917 5434 3667 
Q 4704 1709 4128 -70 
L 4032 -70 
Q 3642 1011 3008 2637 
L 2022 -70 
L 1926 -70 
Q 1709 576 1277 1753 
Q 845 2931 698 3347 
Q 538 3808 406 3958 
Q 275 4109 32 4115 
L 32 4237 
L 1594 4237 
L 1594 4115 
Q 1357 4109 1270 4064 
Q 1184 4019 1184 3917 
Q 1184 3808 1254 3616 
L 2176 1210 
L 2842 3021 
L 2662 3501 
Q 2509 3917 2400 4013 
Q 2291 4109 2010 4115 
L 2010 4237 
L 3706 4237 
L 3706 4115 
Q 3213 4102 3213 3891 
Q 3213 3808 3322 3520 
L 4237 1190 
L 5043 3360 
Q 5152 3667 5152 3853 
Q 5152 4109 4704 4115 
L 4704 4237 
L 5965 4237 
z
" transform="scale(0.015625)"/>
       <path id="STIXGeneral-Regular-2f" d="M 1837 4326 
L 378 -90 
L -58 -90 
L 1408 4326 
L 1837 4326 
z
" transform="scale(0.015625)"/>
       <path id="STIXGeneral-Regular-6d" d="M 4960 0 
L 3565 0 
L 3565 96 
Q 3834 122 3907 208 
Q 3981 294 3981 576 
L 3981 1894 
Q 3981 2278 3869 2444 
Q 3757 2611 3488 2611 
Q 3264 2611 3107 2521 
Q 2950 2432 2803 2221 
L 2803 608 
Q 2803 301 2896 201 
Q 2989 102 3264 96 
L 3264 0 
L 1830 0 
L 1830 96 
Q 2112 115 2189 188 
Q 2266 262 2266 550 
L 2266 1901 
Q 2266 2611 1850 2611 
Q 1670 2611 1468 2531 
Q 1267 2451 1171 2336 
Q 1088 2240 1088 2227 
L 1088 448 
Q 1088 243 1177 176 
Q 1267 109 1523 96 
L 1523 0 
L 102 0 
L 102 96 
Q 371 102 460 195 
Q 550 288 550 563 
L 550 2150 
Q 550 2387 499 2480 
Q 448 2573 326 2573 
Q 230 2573 122 2547 
L 122 2656 
Q 557 2778 1011 2944 
L 1062 2925 
L 1062 2451 
L 1075 2451 
Q 1363 2752 1584 2848 
Q 1805 2944 2054 2944 
Q 2560 2944 2733 2406 
Q 3232 2944 3776 2944 
Q 4518 2944 4518 1792 
L 4518 493 
Q 4518 282 4582 202 
Q 4646 122 4794 109 
L 4960 96 
L 4960 0 
z
" transform="scale(0.015625)"/>
       <path id="STIXGeneral-Regular-32" d="M 3034 877 
L 2688 0 
L 186 0 
L 186 77 
L 1325 1286 
Q 1773 1754 1965 2144 
Q 2157 2534 2157 2950 
Q 2157 3379 1920 3616 
Q 1683 3853 1267 3853 
Q 922 3853 720 3673 
Q 518 3494 326 3021 
L 192 3053 
Q 301 3648 630 3987 
Q 960 4326 1523 4326 
Q 2054 4326 2380 4006 
Q 2707 3686 2707 3200 
Q 2707 2477 1888 1613 
L 832 486 
L 2330 486 
Q 2541 486 2665 569 
Q 2790 653 2944 915 
L 3034 877 
z
" transform="scale(0.015625)"/>
       <path id="STIXGeneral-Regular-29" d="M 186 4224 
L 262 4326 
Q 992 3891 1408 3148 
Q 1824 2406 1824 1581 
Q 1824 -166 243 -1133 
L 186 -1030 
Q 845 -486 1059 54 
Q 1274 595 1274 1562 
Q 1274 2534 1059 3120 
Q 845 3706 186 4224 
z
" transform="scale(0.015625)"/>
      </defs>
      <use xlink:href="#LiberationSans-41" transform="translate(0 0.409375)"/>
      <use xlink:href="#LiberationSans-43" transform="translate(66.699219 0.409375)"/>
      <use xlink:href="#LiberationSans-46" transform="translate(138.916016 0.409375)"/>
      <use xlink:href="#LiberationSans-20" transform="translate(200 0.409375)"/>
      <use xlink:href="#STIXGeneral-Regular-28" transform="translate(227.783203 0.409375)"/>
      <use xlink:href="#STIXGeneral-Regular-57" transform="translate(261.083191 0.409375)"/>
      <use xlink:href="#STIXGeneral-Regular-2f" transform="translate(355.483185 0.409375)"/>
      <use xlink:href="#STIXGeneral-Regular-6d" transform="translate(383.283173 0.409375)"/>
      <use xlink:href="#STIXGeneral-Regular-32" transform="translate(462.626442 35.684375) scale(0.7)"/>
      <use xlink:href="#STIXGeneral-Regular-29" transform="translate(502.035806 0.409375)"/>
      <use xlink:href="#STIXGeneral-Regular-32" transform="translate(536.879075 35.684375) scale(0.7)"/>
     </g>
    </g>
    <g id="text_15">
     <!-- $\times\mathdefault{10^{18}}\mathdefault{}$ -->
     <g transform="translate(79.5 36.1875) scale(0.4 -0.4)">
      <defs>
       <path id="STIXGeneral-Regular-d7" d="M 3821 141 
L 3526 -160 
L 2048 1312 
L 570 -160 
L 275 134 
L 1747 1613 
L 275 3091 
L 576 3386 
L 2048 1914 
L 3526 3386 
L 3821 3098 
L 2349 1613 
L 3821 141 
z
" transform="scale(0.015625)"/>
      </defs>
      <use xlink:href="#STIXGeneral-Regular-d7" transform="translate(0 0.140625)"/>
      <use xlink:href="#LiberationSans-31" transform="translate(63.999985 0.140625)"/>
      <use xlink:href="#LiberationSans-30" transform="translate(119.615219 0.140625)"/>
      <use xlink:href="#LiberationSans-31" transform="translate(176.154946 37.120312) scale(0.7)"/>
      <use xlink:href="#LiberationSans-38" transform="translate(215.08561 37.120312) scale(0.7)"/>
     </g>
    </g>
   </g>
   <g id="line2d_51">
    <path d="M 107.865545 66.514909 
L 108.432913 93.319855 
L 108.886807 138.39529 
L 109.567648 233.633594 
L 111.383224 502.952921 
L 112.007329 562.212214 
L 112.51796 592.748294 
L 112.971854 607.543298 
L 113.312274 612.306178 
L 113.539221 613.063091 
L 113.652695 612.824641 
L 113.822905 611.829143 
L 114.106589 608.724398 
L 114.61722 600.1111 
L 115.808692 574.353656 
L 117.907952 525.138104 
L 120.007212 475.337357 
L 120.688053 464.510432 
L 121.198684 459.404308 
L 121.595842 457.214387 
L 121.879526 456.57387 
L 122.049736 456.503399 
L 122.33342 456.91892 
L 122.67384 458.169437 
L 123.127734 460.882227 
L 123.978786 467.868325 
L 125.397205 479.992883 
L 126.475203 487.577761 
L 128.404253 499.316838 
L 129.085094 502.196974 
L 129.652462 503.733954 
L 129.992883 504.255506 
L 130.333303 504.404873 
L 130.616987 504.278256 
L 130.900671 503.926679 
L 131.241091 503.173568 
L 131.694986 501.549438 
L 132.432564 497.502617 
L 133.397089 490.649246 
L 134.588561 482.410558 
L 135.269402 479.05583 
L 135.836769 477.364104 
L 136.233927 476.779302 
L 136.51761 476.680715 
L 136.801294 476.795916 
L 137.141715 477.222857 
L 137.595609 478.285836 
L 139.751606 484.015834 
L 140.318974 484.409434 
L 140.943078 484.285911 
L 141.396972 483.953992 
L 142.701918 482.92728 
L 143.269285 482.906349 
L 143.89339 483.29632 
L 144.517494 484.053084 
L 145.99265 486.029614 
L 146.843701 486.626517 
L 148.489068 487.603062 
L 149.283382 488.027695 
L 150.304644 488.272538 
L 150.872012 488.202711 
L 151.439379 487.87029 
L 152.006747 487.117949 
L 153.198219 484.677288 
L 154.106007 482.97705 
L 154.673375 482.249906 
L 155.297479 481.786816 
L 155.80811 481.786257 
L 156.318741 482.017612 
L 158.134317 483.009362 
L 158.701685 483.084401 
L 159.439263 483.012352 
L 161.878944 482.445553 
L 162.616522 482.168184 
L 163.52431 481.465097 
L 164.488835 480.843609 
L 164.829255 480.842367 
L 165.339886 481.111551 
L 165.963991 481.712397 
L 166.985253 483.082285 
L 168.290198 484.769297 
L 169.027776 485.38663 
L 169.708617 485.66523 
L 170.332722 485.698785 
L 171.183773 485.475257 
L 172.375245 484.887345 
L 173.680191 484.249191 
L 174.474505 484.091557 
L 175.212083 484.1531 
L 176.119871 484.495974 
L 178.559552 485.641055 
L 179.240393 485.655632 
L 179.864498 485.483079 
L 180.602076 485.060014 
L 183.438914 483.154746 
L 184.119755 483.103786 
L 184.857333 483.269359 
L 185.992068 483.792242 
L 187.750908 484.586775 
L 188.94238 484.818573 
L 190.814693 484.874488 
L 192.460059 484.757506 
L 195.013214 484.468959 
L 196.318159 484.639752 
L 198.303946 484.826885 
L 199.098261 484.644615 
L 200.006049 484.237244 
L 201.935099 483.312001 
L 202.672677 483.157175 
L 203.580465 483.183182 
L 204.7152 483.484409 
L 207.381828 484.414902 
L 208.289616 484.461638 
L 209.934982 484.229628 
L 211.069718 484.212332 
L 212.09098 484.391672 
L 213.622872 484.937852 
L 215.949079 485.816362 
L 216.743394 485.86836 
L 217.367499 485.681964 
L 218.04834 485.194531 
L 218.899391 484.232209 
L 220.828441 481.846948 
L 221.395809 481.507922 
L 221.849703 481.476287 
L 222.360334 481.666163 
L 222.984438 482.170789 
L 223.83549 483.18394 
L 225.140435 484.703438 
L 225.878013 485.219797 
L 226.502117 485.386316 
L 227.126222 485.313326 
L 227.8638 485.002835 
L 229.452429 484.266805 
L 230.190007 484.195976 
L 230.814111 484.348116 
L 231.665163 484.814072 
L 233.537476 485.954578 
L 234.161581 486.055154 
L 234.785685 485.908294 
L 235.466526 485.508139 
L 236.487788 484.589333 
L 238.530311 482.715808 
L 239.4381 482.261127 
L 240.175677 482.119495 
L 240.856519 482.213359 
L 241.53736 482.53872 
L 242.331674 483.191768 
L 245.168513 485.797715 
L 245.73588 485.917778 
L 246.359985 485.815454 
L 247.097563 485.419818 
L 249.25356 484.061049 
L 249.820927 483.98216 
L 250.445032 484.09354 
L 251.18261 484.463381 
L 252.203871 485.210344 
L 253.28187 485.893691 
L 253.905974 486.039762 
L 254.473342 485.954847 
L 255.097446 485.607762 
L 255.835024 484.915735 
L 258.501652 482.120815 
L 259.06902 481.98561 
L 259.579651 482.086978 
L 260.147018 482.436237 
L 260.941333 483.202731 
L 263.154067 485.494079 
L 263.891645 485.893588 
L 264.572486 486.043584 
L 265.253327 485.985434 
L 266.161115 485.642471 
L 268.430586 484.618346 
L 269.2249 484.535541 
L 270.019215 484.663172 
L 270.927003 485.05225 
L 272.799316 485.918732 
L 273.423421 485.90826 
L 273.990789 485.684909 
L 274.558156 485.242302 
L 275.409208 484.241904 
L 277.565205 481.514594 
L 278.132572 481.192631 
L 278.643203 481.219281 
L 279.210571 481.507064 
L 279.891412 482.148469 
L 281.196357 483.790671 
L 282.274356 484.9625 
L 282.955197 485.419345 
L 283.636038 485.6218 
L 284.260143 485.566782 
L 284.997721 485.281609 
L 287.437401 484.13271 
L 288.231716 484.129356 
L 289.139504 484.36297 
L 290.898344 484.860503 
L 291.692659 484.840494 
L 292.486973 484.617981 
L 293.394762 484.121508 
L 294.64297 483.145589 
L 295.947916 482.197853 
L 296.798967 481.798253 
L 297.536545 481.705704 
L 298.16065 481.860294 
L 298.784754 482.243955 
L 299.635806 483.036276 
L 301.451382 484.813493 
L 302.302434 485.272466 
L 303.266958 485.505631 
L 306.444217 485.76354 
L 307.181795 485.63468 
L 307.919373 485.308591 
L 309.281055 484.383721 
L 310.586001 483.605905 
L 311.380316 483.407314 
L 312.231367 483.439549 
L 313.479576 483.717819 
L 315.522099 484.154867 
L 317.224202 484.217858 
L 318.642621 484.376458 
L 321.99009 484.897715 
L 325.67798 485.118646 
L 327.947451 485.443632 
L 328.968712 485.308651 
L 329.933237 484.93325 
L 330.841026 484.340049 
L 333.961548 481.997794 
L 334.585652 481.916491 
L 335.096283 482.049686 
L 335.777124 482.48665 
L 337.08207 483.670953 
L 338.387015 484.744821 
L 339.294803 485.227353 
L 340.145855 485.418826 
L 340.883433 485.364627 
L 341.734484 485.060837 
L 342.869219 484.388944 
L 344.117428 483.715981 
L 344.855006 483.591996 
L 345.479111 483.70998 
L 346.216688 484.099852 
L 348.713106 485.714642 
L 349.33721 485.718309 
L 349.904578 485.495791 
L 350.585419 484.978153 
L 351.549944 483.912613 
L 352.85489 482.514795 
L 353.592468 482.029304 
L 354.159835 481.89476 
L 354.727203 481.995839 
L 355.351307 482.35753 
L 356.202359 483.150975 
L 357.904462 484.817044 
L 358.698776 485.274205 
L 359.436354 485.457377 
L 360.230669 485.422838 
L 361.705825 485.016874 
L 363.748348 484.451071 
L 364.5994 484.424959 
L 365.563925 484.625094 
L 367.719922 485.21175 
L 368.4575 485.146389 
L 369.138341 484.884431 
L 370.443286 484.061416 
L 371.521285 483.478462 
L 372.258863 483.342101 
L 372.939704 483.462706 
L 373.620545 483.792288 
L 375.095701 484.843441 
L 376.060226 485.404641 
L 376.854541 485.620287 
L 377.705592 485.589473 
L 378.61338 485.299269 
L 379.634642 484.722823 
L 381.223272 483.8305 
L 381.960849 483.674831 
L 382.641691 483.760371 
L 383.436005 484.141619 
L 384.40053 484.882526 
L 385.535266 485.674045 
L 386.15937 485.860162 
L 386.726738 485.791414 
L 387.294105 485.470054 
L 387.91821 484.822305 
L 388.769261 483.56644 
L 390.244417 481.360249 
L 390.925258 480.745483 
L 391.435889 480.540224 
L 391.833046 480.58431 
L 392.343677 480.889417 
L 392.967782 481.556771 
L 393.87557 482.90234 
L 395.80462 485.869467 
L 396.542198 486.563339 
L 397.166302 486.85729 
L 397.73367 486.875963 
L 398.414511 486.641967 
L 399.208826 486.099359 
L 401.308086 484.465489 
L 402.045664 484.258275 
L 402.669768 484.286231 
L 403.464083 484.53812 
L 405.052712 485.129045 
L 405.733553 485.128355 
L 406.471131 484.894373 
L 407.322183 484.35473 
L 409.988811 482.384945 
L 410.669652 482.254701 
L 411.293756 482.371844 
L 411.974597 482.750204 
L 412.882386 483.55966 
L 414.584489 485.096845 
L 415.378803 485.463985 
L 416.059644 485.54949 
L 416.853959 485.427145 
L 418.272378 484.879936 
L 420.541849 483.731151 
L 421.56311 483.370081 
L 422.300688 483.339056 
L 423.095003 483.565411 
L 424.626896 484.31348 
L 425.477947 484.569745 
L 426.215525 484.563483 
L 427.293524 484.295754 
L 428.428259 484.072902 
L 429.27931 484.131648 
L 430.130362 484.43561 
L 432.456569 485.469305 
L 433.194147 485.481269 
L 433.988462 485.237308 
L 435.009723 484.63228 
L 436.541616 483.679263 
L 437.222457 483.52874 
L 437.846562 483.623552 
L 438.527403 483.983946 
L 439.435191 484.7737 
L 441.080557 486.249145 
L 441.818135 486.587916 
L 442.442239 486.613082 
L 443.009607 486.4062 
L 443.633711 485.923751 
L 444.314553 485.126372 
L 445.449288 483.371152 
L 446.754233 481.435324 
L 447.491811 480.737163 
L 448.059179 480.486084 
L 448.456336 480.506447 
L 449.023704 480.8107 
L 449.704545 481.4304 
L 450.83928 482.838531 
L 452.087489 484.270511 
L 452.825067 484.790853 
L 453.562645 485.048425 
L 454.243486 485.071232 
L 455.151274 484.86077 
L 457.137061 484.297745 
L 457.931376 484.322985 
L 458.725691 484.568853 
L 459.973899 485.277984 
L 461.222108 485.887397 
L 461.959686 485.965559 
L 462.754001 485.812352 
L 463.548315 485.426887 
L 464.683051 484.593853 
L 466.158207 483.505781 
L 467.122732 483.105444 
L 467.860309 483.050223 
L 468.654624 483.240459 
L 469.619149 483.743845 
L 471.775146 484.909522 
L 472.682934 485.072555 
L 473.647459 485.027928 
L 486.413231 483.438037 
L 487.207546 483.663492 
L 488.115334 484.120154 
L 490.498278 485.453718 
L 491.235856 485.533638 
L 491.916697 485.404315 
L 492.881222 484.955165 
L 494.242904 484.341622 
L 494.980482 484.231097 
L 495.71806 484.350822 
L 496.569112 484.744464 
L 498.327951 485.618811 
L 499.008793 485.709872 
L 499.632897 485.607251 
L 500.313738 485.248122 
L 501.108053 484.568595 
L 502.242788 483.310711 
L 503.43426 482.074695 
L 504.171838 481.601064 
L 504.739206 481.460047 
L 505.249837 481.547434 
L 505.873941 481.942225 
L 506.668256 482.715924 
L 508.597306 484.641898 
L 509.334884 484.997023 
L 509.958988 485.060928 
L 510.696566 484.930569 
L 513.590141 484.261802 
L 514.441192 484.397824 
L 515.575928 484.863111 
L 518.299292 486.130937 
L 518.980133 486.106442 
L 519.660975 485.869525 
L 520.341816 485.390902 
L 521.192867 484.517197 
L 523.06518 482.490162 
L 523.802758 482.043056 
L 524.370126 481.927674 
L 524.99423 482.055498 
L 525.618335 482.408332 
L 526.809807 483.410564 
L 528.001279 484.351254 
L 528.965804 484.847793 
L 530.270749 485.220269 
L 532.199799 485.517116 
L 533.504745 485.472584 
L 534.866427 485.149406 
L 536.795477 484.613771 
L 539.008211 483.833324 
L 541.220945 482.873844 
L 541.901786 482.8598 
L 542.582627 483.078851 
L 543.320205 483.590487 
L 544.62515 484.890743 
L 545.759886 485.909717 
L 546.440727 486.2534 
L 547.121568 486.341169 
L 547.802409 486.174611 
L 548.48325 485.796978 
L 549.504512 484.926018 
L 550.979668 483.648445 
L 551.717246 483.266879 
L 552.398087 483.173996 
L 552.965455 483.310923 
L 553.703033 483.72555 
L 554.781031 484.616877 
L 556.19945 485.750301 
L 556.880291 486.010603 
L 557.447659 486.009791 
L 558.015027 485.787877 
L 558.695868 485.264356 
L 559.71713 484.164432 
L 561.135549 482.706542 
L 561.873127 482.241456 
L 562.497231 482.054178 
L 563.064599 482.090194 
L 563.688703 482.364996 
L 564.369544 482.906983 
L 567.036172 485.321126 
L 567.660276 485.452978 
L 568.341118 485.331952 
L 569.192169 484.897897 
L 570.553851 484.14672 
L 571.177956 484.038194 
L 571.80206 484.147618 
L 572.539638 484.524511 
L 574.865845 485.886941 
L 575.48995 485.871104 
L 576.227528 485.599862 
L 577.305526 484.891306 
L 578.667209 484.034745 
L 579.745207 483.631168 
L 580.936679 483.42768 
L 582.582045 483.400965 
L 583.773517 483.562427 
L 588.425932 484.594003 
L 591.319507 484.914014 
L 592.284032 485.386258 
L 594.042872 486.302754 
L 594.666976 486.309519 
L 595.234344 486.067565 
L 595.858448 485.533027 
L 596.766236 484.382783 
L 598.127918 482.705183 
L 598.752023 482.301949 
L 599.262654 482.22653 
L 599.773285 482.378594 
L 600.397389 482.820271 
L 601.418651 483.87813 
L 602.723596 485.137924 
L 603.404438 485.512882 
L 604.085279 485.651549 
L 604.822857 485.541599 
L 605.844118 485.12203 
L 607.489484 484.440368 
L 608.340536 484.354957 
L 609.248324 484.508123 
L 610.212849 484.925483 
L 611.801479 485.667441 
L 612.595793 485.788825 
L 613.219898 485.663207 
L 613.844002 485.285092 
L 614.468106 484.640866 
L 615.319158 483.414884 
L 617.077998 480.778114 
L 617.702102 480.243591 
L 618.212733 480.066733 
L 618.666627 480.136951 
L 619.177258 480.473745 
L 619.801362 481.16474 
L 620.765887 482.63942 
L 622.184306 484.76415 
L 622.865147 485.421833 
L 623.489252 485.750056 
L 624.170093 485.830873 
L 624.907671 485.681555 
L 627.347352 485.051234 
L 628.08493 485.139785 
L 629.560085 485.613162 
L 630.751558 485.881149 
L 631.545872 485.849965 
L 632.340187 485.600143 
L 633.134502 485.112912 
L 634.04229 484.291567 
L 636.481971 481.963836 
L 637.106075 481.706201 
L 637.673443 481.700448 
L 638.24081 481.924206 
L 638.921651 482.476853 
L 639.772703 483.497454 
L 641.361332 485.468801 
L 642.09891 486.014684 
L 642.836488 486.256158 
L 643.630803 486.240942 
L 644.708801 485.982606 
L 648.169744 484.863286 
L 649.758373 484.392875 
L 651.290266 484.259639 
L 652.368264 484.126551 
L 653.162579 483.821276 
L 654.354051 483.093814 
L 655.60226 482.442259 
L 656.226364 482.355905 
L 656.850469 482.501271 
L 657.474573 482.871307 
L 658.722782 484.000521 
L 659.857517 484.944999 
L 660.651832 485.335541 
L 661.446147 485.448428 
L 662.183725 485.325003 
L 663.375197 484.831111 
L 664.396458 484.512634 
L 665.134036 484.526562 
L 665.871614 484.771125 
L 666.722666 485.288535 
L 668.311295 486.293554 
L 668.935399 486.454126 
L 669.559504 486.377124 
L 670.126871 486.083282 
L 670.807713 485.473379 
L 671.715501 484.29917 
L 673.47434 481.909153 
L 674.098445 481.414958 
L 674.665812 481.23023 
L 675.176443 481.283897 
L 675.176443 481.283897 
" clip-path="url(#p2b865f7ab2)" style="fill: none; stroke: #0000ff; stroke-width: 1.5; stroke-linecap: square"/>
   </g>
   <g id="patch_3">
    <path d="M 79.5 640.3905 
L 79.5 39.1875 
" style="fill: none; stroke: #000000; stroke-width: 0.8; stroke-linejoin: miter; stroke-linecap: square"/>
   </g>
   <g id="patch_4">
    <path d="M 703.541988 640.3905 
L 703.541988 39.1875 
" style="fill: none; stroke: #000000; stroke-width: 0.8; stroke-linejoin: miter; stroke-linecap: square"/>
   </g>
   <g id="patch_5">
    <path d="M 79.5 640.3905 
L 703.541988 640.3905 
" style="fill: none; stroke: #000000; stroke-width: 0.8; stroke-linejoin: miter; stroke-linecap: square"/>
   </g>
   <g id="patch_6">
    <path d="M 79.5 39.1875 
L 703.541988 39.1875 
" style="fill: none; stroke: #000000; stroke-width: 0.8; stroke-linejoin: miter; stroke-linecap: square"/>
   </g>
  </g>
 </g>
 <defs>
  <clipPath id="p2b865f7ab2">
   <rect x="79.5" y="39.1875" width="624.041988" height="601.203"/>
  </clipPath>
 </defs>
</svg>
