<?xml version="1.0" encoding="utf-8" standalone="no"?>
<!DOCTYPE svg PUBLIC "-//W3C//DTD SVG 1.1//EN"
  "http://www.w3.org/Graphics/SVG/1.1/DTD/svg11.dtd">
<svg xmlns:xlink="http://www.w3.org/1999/xlink" width="710.741988pt" height="711.02175pt" viewBox="0 0 710.741988 711.02175" xmlns="http://www.w3.org/2000/svg" version="1.1">
 <metadata>
  <rdf:RDF xmlns:dc="http://purl.org/dc/elements/1.1/" xmlns:cc="http://creativecommons.org/ns#" xmlns:rdf="http://www.w3.org/1999/02/22-rdf-syntax-ns#">
   <cc:Work>
    <dc:type rdf:resource="http://purl.org/dc/dcmitype/StillImage"/>
    <dc:date>2025-02-06T00:35:39.043628</dc:date>
    <dc:format>image/svg+xml</dc:format>
    <dc:creator>
     <cc:Agent>
      <dc:title>Matplotlib v3.9.3, https://matplotlib.org/</dc:title>
     </cc:Agent>
    </dc:creator>
   </cc:Work>
  </rdf:RDF>
 </metadata>
 <defs>
  <style type="text/css">*{stroke-linejoin: round; stroke-linecap: butt}</style>
 </defs>
 <g id="figure_1">
  <g id="patch_1">
   <path d="M 0 711.02175 
L 710.741988 711.02175 
L 710.741988 0 
L 0 0 
z
" style="fill: #ffffff"/>
  </g>
  <g id="axes_1">
   <g id="patch_2">
    <path d="M 79.5 640.3905 
L 703.541988 640.3905 
L 703.541988 39.1875 
L 79.5 39.1875 
z
" style="fill: #ffffff"/>
   </g>
   <g id="matplotlib.axis_1">
    <g id="xtick_1">
     <g id="line2d_1">
      <defs>
       <path id="me46e8b339b" d="M 0 0 
L 0 -3.5 
" style="stroke: #000000; stroke-width: 0.8"/>
      </defs>
      <g>
       <use xlink:href="#me46e8b339b" x="107.808808" y="640.3905" style="stroke: #000000; stroke-width: 0.8"/>
      </g>
     </g>
     <g id="text_1">
      <!-- 0 -->
      <g transform="translate(99.467402 665.631125) scale(0.3 -0.3)">
       <defs>
        <path id="LiberationSans-30" d="M 3309 2203 
Q 3309 1100 2920 518 
Q 2531 -63 1772 -63 
Q 1013 -63 631 515 
Q 250 1094 250 2203 
Q 250 3338 620 3903 
Q 991 4469 1791 4469 
Q 2569 4469 2939 3897 
Q 3309 3325 3309 2203 
z
M 2738 2203 
Q 2738 3156 2517 3584 
Q 2297 4013 1791 4013 
Q 1272 4013 1045 3591 
Q 819 3169 819 2203 
Q 819 1266 1048 831 
Q 1278 397 1778 397 
Q 2275 397 2506 840 
Q 2738 1284 2738 2203 
z
" transform="scale(0.015625)"/>
       </defs>
       <use xlink:href="#LiberationSans-30"/>
      </g>
     </g>
    </g>
    <g id="xtick_2">
     <g id="line2d_2">
      <g>
       <use xlink:href="#me46e8b339b" x="221.282335" y="640.3905" style="stroke: #000000; stroke-width: 0.8"/>
      </g>
     </g>
     <g id="text_2">
      <!-- 2 -->
      <g transform="translate(212.940929 665.631125) scale(0.3 -0.3)">
       <defs>
        <path id="LiberationSans-32" d="M 322 0 
L 322 397 
Q 481 763 711 1042 
Q 941 1322 1194 1548 
Q 1447 1775 1695 1969 
Q 1944 2163 2144 2356 
Q 2344 2550 2467 2762 
Q 2591 2975 2591 3244 
Q 2591 3606 2378 3806 
Q 2166 4006 1788 4006 
Q 1428 4006 1195 3811 
Q 963 3616 922 3263 
L 347 3316 
Q 409 3844 795 4156 
Q 1181 4469 1788 4469 
Q 2453 4469 2811 4155 
Q 3169 3841 3169 3263 
Q 3169 3006 3051 2753 
Q 2934 2500 2703 2247 
Q 2472 1994 1819 1463 
Q 1459 1169 1246 933 
Q 1034 697 941 478 
L 3238 478 
L 3238 0 
L 322 0 
z
" transform="scale(0.015625)"/>
       </defs>
       <use xlink:href="#LiberationSans-32"/>
      </g>
     </g>
    </g>
    <g id="xtick_3">
     <g id="line2d_3">
      <g>
       <use xlink:href="#me46e8b339b" x="334.755862" y="640.3905" style="stroke: #000000; stroke-width: 0.8"/>
      </g>
     </g>
     <g id="text_3">
      <!-- 4 -->
      <g transform="translate(326.414456 665.631125) scale(0.3 -0.3)">
       <defs>
        <path id="LiberationSans-34" d="M 2753 997 
L 2753 0 
L 2222 0 
L 2222 997 
L 147 997 
L 147 1434 
L 2163 4403 
L 2753 4403 
L 2753 1441 
L 3372 1441 
L 3372 997 
L 2753 997 
z
M 2222 3769 
Q 2216 3750 2134 3603 
Q 2053 3456 2013 3397 
L 884 1734 
L 716 1503 
L 666 1441 
L 2222 1441 
L 2222 3769 
z
" transform="scale(0.015625)"/>
       </defs>
       <use xlink:href="#LiberationSans-34"/>
      </g>
     </g>
    </g>
    <g id="xtick_4">
     <g id="line2d_4">
      <g>
       <use xlink:href="#me46e8b339b" x="448.229389" y="640.3905" style="stroke: #000000; stroke-width: 0.8"/>
      </g>
     </g>
     <g id="text_4">
      <!-- 6 -->
      <g transform="translate(439.887983 665.631125) scale(0.3 -0.3)">
       <defs>
        <path id="LiberationSans-36" d="M 3278 1441 
Q 3278 744 2900 340 
Q 2522 -63 1856 -63 
Q 1113 -63 719 490 
Q 325 1044 325 2100 
Q 325 3244 734 3856 
Q 1144 4469 1900 4469 
Q 2897 4469 3156 3572 
L 2619 3475 
Q 2453 4013 1894 4013 
Q 1413 4013 1148 3564 
Q 884 3116 884 2266 
Q 1038 2550 1316 2698 
Q 1594 2847 1953 2847 
Q 2563 2847 2920 2465 
Q 3278 2084 3278 1441 
z
M 2706 1416 
Q 2706 1894 2472 2153 
Q 2238 2413 1819 2413 
Q 1425 2413 1183 2183 
Q 941 1953 941 1550 
Q 941 1041 1192 716 
Q 1444 391 1838 391 
Q 2244 391 2475 664 
Q 2706 938 2706 1416 
z
" transform="scale(0.015625)"/>
       </defs>
       <use xlink:href="#LiberationSans-36"/>
      </g>
     </g>
    </g>
    <g id="xtick_5">
     <g id="line2d_5">
      <g>
       <use xlink:href="#me46e8b339b" x="561.702916" y="640.3905" style="stroke: #000000; stroke-width: 0.8"/>
      </g>
     </g>
     <g id="text_5">
      <!-- 8 -->
      <g transform="translate(553.36151 665.631125) scale(0.3 -0.3)">
       <defs>
        <path id="LiberationSans-38" d="M 3281 1228 
Q 3281 619 2893 278 
Q 2506 -63 1781 -63 
Q 1075 -63 676 271 
Q 278 606 278 1222 
Q 278 1653 525 1947 
Q 772 2241 1156 2303 
L 1156 2316 
Q 797 2400 589 2681 
Q 381 2963 381 3341 
Q 381 3844 757 4156 
Q 1134 4469 1769 4469 
Q 2419 4469 2795 4162 
Q 3172 3856 3172 3334 
Q 3172 2956 2962 2675 
Q 2753 2394 2391 2322 
L 2391 2309 
Q 2813 2241 3047 1952 
Q 3281 1663 3281 1228 
z
M 2588 3303 
Q 2588 4050 1769 4050 
Q 1372 4050 1164 3862 
Q 956 3675 956 3303 
Q 956 2925 1170 2726 
Q 1384 2528 1775 2528 
Q 2172 2528 2380 2711 
Q 2588 2894 2588 3303 
z
M 2697 1281 
Q 2697 1691 2453 1898 
Q 2209 2106 1769 2106 
Q 1341 2106 1100 1882 
Q 859 1659 859 1269 
Q 859 359 1788 359 
Q 2247 359 2472 579 
Q 2697 800 2697 1281 
z
" transform="scale(0.015625)"/>
       </defs>
       <use xlink:href="#LiberationSans-38"/>
      </g>
     </g>
    </g>
    <g id="xtick_6">
     <g id="line2d_6">
      <g>
       <use xlink:href="#me46e8b339b" x="675.176443" y="640.3905" style="stroke: #000000; stroke-width: 0.8"/>
      </g>
     </g>
     <g id="text_6">
      <!-- 10 -->
      <g transform="translate(658.493631 665.631125) scale(0.3 -0.3)">
       <defs>
        <path id="LiberationSans-31" d="M 488 0 
L 488 478 
L 1609 478 
L 1609 3866 
L 616 3156 
L 616 3688 
L 1656 4403 
L 2175 4403 
L 2175 478 
L 3247 478 
L 3247 0 
L 488 0 
z
" transform="scale(0.015625)"/>
       </defs>
       <use xlink:href="#LiberationSans-31"/>
       <use xlink:href="#LiberationSans-30" x="55.615234"/>
      </g>
     </g>
    </g>
    <g id="xtick_7">
     <g id="line2d_7">
      <defs>
       <path id="m45e5c713b7" d="M 0 0 
L 0 -2 
" style="stroke: #000000; stroke-width: 0.6"/>
      </defs>
      <g>
       <use xlink:href="#m45e5c713b7" x="136.17719" y="640.3905" style="stroke: #000000; stroke-width: 0.6"/>
      </g>
     </g>
    </g>
    <g id="xtick_8">
     <g id="line2d_8">
      <g>
       <use xlink:href="#m45e5c713b7" x="164.545572" y="640.3905" style="stroke: #000000; stroke-width: 0.6"/>
      </g>
     </g>
    </g>
    <g id="xtick_9">
     <g id="line2d_9">
      <g>
       <use xlink:href="#m45e5c713b7" x="192.913953" y="640.3905" style="stroke: #000000; stroke-width: 0.6"/>
      </g>
     </g>
    </g>
    <g id="xtick_10">
     <g id="line2d_10">
      <g>
       <use xlink:href="#m45e5c713b7" x="249.650717" y="640.3905" style="stroke: #000000; stroke-width: 0.6"/>
      </g>
     </g>
    </g>
    <g id="xtick_11">
     <g id="line2d_11">
      <g>
       <use xlink:href="#m45e5c713b7" x="278.019099" y="640.3905" style="stroke: #000000; stroke-width: 0.6"/>
      </g>
     </g>
    </g>
    <g id="xtick_12">
     <g id="line2d_12">
      <g>
       <use xlink:href="#m45e5c713b7" x="306.38748" y="640.3905" style="stroke: #000000; stroke-width: 0.6"/>
      </g>
     </g>
    </g>
    <g id="xtick_13">
     <g id="line2d_13">
      <g>
       <use xlink:href="#m45e5c713b7" x="363.124244" y="640.3905" style="stroke: #000000; stroke-width: 0.6"/>
      </g>
     </g>
    </g>
    <g id="xtick_14">
     <g id="line2d_14">
      <g>
       <use xlink:href="#m45e5c713b7" x="391.492626" y="640.3905" style="stroke: #000000; stroke-width: 0.6"/>
      </g>
     </g>
    </g>
    <g id="xtick_15">
     <g id="line2d_15">
      <g>
       <use xlink:href="#m45e5c713b7" x="419.861008" y="640.3905" style="stroke: #000000; stroke-width: 0.6"/>
      </g>
     </g>
    </g>
    <g id="xtick_16">
     <g id="line2d_16">
      <g>
       <use xlink:href="#m45e5c713b7" x="476.597771" y="640.3905" style="stroke: #000000; stroke-width: 0.6"/>
      </g>
     </g>
    </g>
    <g id="xtick_17">
     <g id="line2d_17">
      <g>
       <use xlink:href="#m45e5c713b7" x="504.966153" y="640.3905" style="stroke: #000000; stroke-width: 0.6"/>
      </g>
     </g>
    </g>
    <g id="xtick_18">
     <g id="line2d_18">
      <g>
       <use xlink:href="#m45e5c713b7" x="533.334535" y="640.3905" style="stroke: #000000; stroke-width: 0.6"/>
      </g>
     </g>
    </g>
    <g id="xtick_19">
     <g id="line2d_19">
      <g>
       <use xlink:href="#m45e5c713b7" x="590.071298" y="640.3905" style="stroke: #000000; stroke-width: 0.6"/>
      </g>
     </g>
    </g>
    <g id="xtick_20">
     <g id="line2d_20">
      <g>
       <use xlink:href="#m45e5c713b7" x="618.43968" y="640.3905" style="stroke: #000000; stroke-width: 0.6"/>
      </g>
     </g>
    </g>
    <g id="xtick_21">
     <g id="line2d_21">
      <g>
       <use xlink:href="#m45e5c713b7" x="646.808062" y="640.3905" style="stroke: #000000; stroke-width: 0.6"/>
      </g>
     </g>
    </g>
    <g id="text_7">
     <!-- Time ps -->
     <g transform="translate(338.744432 697.59675) scale(0.3 -0.3)">
      <defs>
       <path id="LiberationSans-54" d="M 2250 3916 
L 2250 0 
L 1656 0 
L 1656 3916 
L 144 3916 
L 144 4403 
L 3763 4403 
L 3763 3916 
L 2250 3916 
z
" transform="scale(0.015625)"/>
       <path id="LiberationSans-69" d="M 428 4100 
L 428 4638 
L 991 4638 
L 991 4100 
L 428 4100 
z
M 428 0 
L 428 3381 
L 991 3381 
L 991 0 
L 428 0 
z
" transform="scale(0.015625)"/>
       <path id="LiberationSans-6d" d="M 2400 0 
L 2400 2144 
Q 2400 2634 2265 2821 
Q 2131 3009 1781 3009 
Q 1422 3009 1212 2734 
Q 1003 2459 1003 1959 
L 1003 0 
L 444 0 
L 444 2659 
Q 444 3250 425 3381 
L 956 3381 
Q 959 3366 962 3297 
Q 966 3228 970 3139 
Q 975 3050 981 2803 
L 991 2803 
Q 1172 3163 1406 3303 
Q 1641 3444 1978 3444 
Q 2363 3444 2586 3291 
Q 2809 3138 2897 2803 
L 2906 2803 
Q 3081 3144 3329 3294 
Q 3578 3444 3931 3444 
Q 4444 3444 4676 3166 
Q 4909 2888 4909 2253 
L 4909 0 
L 4353 0 
L 4353 2144 
Q 4353 2634 4218 2821 
Q 4084 3009 3734 3009 
Q 3366 3009 3161 2736 
Q 2956 2463 2956 1959 
L 2956 0 
L 2400 0 
z
" transform="scale(0.015625)"/>
       <path id="LiberationSans-65" d="M 863 1572 
Q 863 991 1103 675 
Q 1344 359 1806 359 
Q 2172 359 2392 506 
Q 2613 653 2691 878 
L 3184 738 
Q 2881 -63 1806 -63 
Q 1056 -63 664 384 
Q 272 831 272 1713 
Q 272 2550 664 2997 
Q 1056 3444 1784 3444 
Q 3275 3444 3275 1647 
L 3275 1572 
L 863 1572 
z
M 2694 2003 
Q 2647 2538 2422 2783 
Q 2197 3028 1775 3028 
Q 1366 3028 1127 2754 
Q 888 2481 869 2003 
L 2694 2003 
z
" transform="scale(0.015625)"/>
       <path id="LiberationSans-20" transform="scale(0.015625)"/>
       <path id="LiberationSans-70" d="M 3291 1706 
Q 3291 -63 2047 -63 
Q 1266 -63 997 525 
L 981 525 
Q 994 500 994 -6 
L 994 -1328 
L 431 -1328 
L 431 2691 
Q 431 3213 413 3381 
L 956 3381 
Q 959 3369 965 3292 
Q 972 3216 980 3056 
Q 988 2897 988 2838 
L 1000 2838 
Q 1150 3150 1397 3295 
Q 1644 3441 2047 3441 
Q 2672 3441 2981 3022 
Q 3291 2603 3291 1706 
z
M 2700 1694 
Q 2700 2400 2509 2703 
Q 2319 3006 1903 3006 
Q 1569 3006 1380 2865 
Q 1191 2725 1092 2426 
Q 994 2128 994 1650 
Q 994 984 1206 668 
Q 1419 353 1897 353 
Q 2316 353 2508 661 
Q 2700 969 2700 1694 
z
" transform="scale(0.015625)"/>
       <path id="LiberationSans-73" d="M 2969 934 
Q 2969 456 2608 196 
Q 2247 -63 1597 -63 
Q 966 -63 623 145 
Q 281 353 178 794 
L 675 891 
Q 747 619 972 492 
Q 1197 366 1597 366 
Q 2025 366 2223 497 
Q 2422 628 2422 891 
Q 2422 1091 2284 1216 
Q 2147 1341 1841 1422 
L 1438 1528 
Q 953 1653 748 1773 
Q 544 1894 428 2066 
Q 313 2238 313 2488 
Q 313 2950 642 3192 
Q 972 3434 1603 3434 
Q 2163 3434 2492 3237 
Q 2822 3041 2909 2606 
L 2403 2544 
Q 2356 2769 2151 2889 
Q 1947 3009 1603 3009 
Q 1222 3009 1040 2893 
Q 859 2778 859 2544 
Q 859 2400 934 2306 
Q 1009 2213 1156 2147 
Q 1303 2081 1775 1966 
Q 2222 1853 2419 1758 
Q 2616 1663 2730 1547 
Q 2844 1431 2906 1279 
Q 2969 1128 2969 934 
z
" transform="scale(0.015625)"/>
      </defs>
      <use xlink:href="#LiberationSans-54"/>
      <use xlink:href="#LiberationSans-69" x="57.333984"/>
      <use xlink:href="#LiberationSans-6d" x="79.550781"/>
      <use xlink:href="#LiberationSans-65" x="162.851562"/>
      <use xlink:href="#LiberationSans-20" x="218.466797"/>
      <use xlink:href="#LiberationSans-70" x="246.25"/>
      <use xlink:href="#LiberationSans-73" x="301.865234"/>
     </g>
    </g>
   </g>
   <g id="matplotlib.axis_2">
    <g id="ytick_1">
     <g id="line2d_22">
      <defs>
       <path id="m198702720b" d="M 0 0 
L 3.5 0 
" style="stroke: #000000; stroke-width: 0.8"/>
      </defs>
      <g>
       <use xlink:href="#m198702720b" x="79.5" y="565.17036" style="stroke: #000000; stroke-width: 0.8"/>
      </g>
     </g>
     <g id="text_8">
      <!-- $\mathdefault{−1}$ -->
      <g transform="translate(41.5 576.040672) scale(0.3 -0.3)">
       <defs>
        <path id="LiberationSans-2212" d="M 316 1900 
L 316 2356 
L 3425 2356 
L 3425 1900 
L 316 1900 
z
" transform="scale(0.015625)"/>
       </defs>
       <use xlink:href="#LiberationSans-2212" transform="translate(0 0.203125)"/>
       <use xlink:href="#LiberationSans-31" transform="translate(58.398438 0.203125)"/>
      </g>
     </g>
    </g>
    <g id="ytick_2">
     <g id="line2d_23">
      <g>
       <use xlink:href="#m198702720b" x="79.5" y="467.578242" style="stroke: #000000; stroke-width: 0.8"/>
      </g>
     </g>
     <g id="text_9">
      <!-- $\mathdefault{0}$ -->
      <g transform="translate(59.2 478.448554) scale(0.3 -0.3)">
       <use xlink:href="#LiberationSans-30" transform="translate(0 0.171875)"/>
      </g>
     </g>
    </g>
    <g id="ytick_3">
     <g id="line2d_24">
      <g>
       <use xlink:href="#m198702720b" x="79.5" y="369.986124" style="stroke: #000000; stroke-width: 0.8"/>
      </g>
     </g>
     <g id="text_10">
      <!-- $\mathdefault{1}$ -->
      <g transform="translate(59.2 380.856436) scale(0.3 -0.3)">
       <use xlink:href="#LiberationSans-31" transform="translate(0 0.203125)"/>
      </g>
     </g>
    </g>
    <g id="ytick_4">
     <g id="line2d_25">
      <g>
       <use xlink:href="#m198702720b" x="79.5" y="272.394006" style="stroke: #000000; stroke-width: 0.8"/>
      </g>
     </g>
     <g id="text_11">
      <!-- $\mathdefault{2}$ -->
      <g transform="translate(59.2 283.264318) scale(0.3 -0.3)">
       <use xlink:href="#LiberationSans-32" transform="translate(0 0.171875)"/>
      </g>
     </g>
    </g>
    <g id="ytick_5">
     <g id="line2d_26">
      <g>
       <use xlink:href="#m198702720b" x="79.5" y="174.801888" style="stroke: #000000; stroke-width: 0.8"/>
      </g>
     </g>
     <g id="text_12">
      <!-- $\mathdefault{3}$ -->
      <g transform="translate(59.2 185.6722) scale(0.3 -0.3)">
       <defs>
        <path id="LiberationSans-33" d="M 3278 1216 
Q 3278 606 2890 271 
Q 2503 -63 1784 -63 
Q 1116 -63 717 239 
Q 319 541 244 1131 
L 825 1184 
Q 938 403 1784 403 
Q 2209 403 2451 612 
Q 2694 822 2694 1234 
Q 2694 1594 2417 1795 
Q 2141 1997 1619 1997 
L 1300 1997 
L 1300 2484 
L 1606 2484 
Q 2069 2484 2323 2686 
Q 2578 2888 2578 3244 
Q 2578 3597 2370 3801 
Q 2163 4006 1753 4006 
Q 1381 4006 1151 3815 
Q 922 3625 884 3278 
L 319 3322 
Q 381 3863 767 4166 
Q 1153 4469 1759 4469 
Q 2422 4469 2789 4161 
Q 3156 3853 3156 3303 
Q 3156 2881 2920 2617 
Q 2684 2353 2234 2259 
L 2234 2247 
Q 2728 2194 3003 1916 
Q 3278 1638 3278 1216 
z
" transform="scale(0.015625)"/>
       </defs>
       <use xlink:href="#LiberationSans-33" transform="translate(0 0.171875)"/>
      </g>
     </g>
    </g>
    <g id="ytick_6">
     <g id="line2d_27">
      <g>
       <use xlink:href="#m198702720b" x="79.5" y="77.20977" style="stroke: #000000; stroke-width: 0.8"/>
      </g>
     </g>
     <g id="text_13">
      <!-- $\mathdefault{4}$ -->
      <g transform="translate(59.2 88.080082) scale(0.3 -0.3)">
       <use xlink:href="#LiberationSans-34" transform="translate(0 0.203125)"/>
      </g>
     </g>
    </g>
    <g id="ytick_7">
     <g id="line2d_28">
      <defs>
       <path id="mcd15362583" d="M 0 0 
L 2 0 
" style="stroke: #000000; stroke-width: 0.6"/>
      </defs>
      <g>
       <use xlink:href="#mcd15362583" x="79.5" y="623.725631" style="stroke: #000000; stroke-width: 0.6"/>
      </g>
     </g>
    </g>
    <g id="ytick_8">
     <g id="line2d_29">
      <g>
       <use xlink:href="#mcd15362583" x="79.5" y="604.207207" style="stroke: #000000; stroke-width: 0.6"/>
      </g>
     </g>
    </g>
    <g id="ytick_9">
     <g id="line2d_30">
      <g>
       <use xlink:href="#mcd15362583" x="79.5" y="584.688784" style="stroke: #000000; stroke-width: 0.6"/>
      </g>
     </g>
    </g>
    <g id="ytick_10">
     <g id="line2d_31">
      <g>
       <use xlink:href="#mcd15362583" x="79.5" y="545.651936" style="stroke: #000000; stroke-width: 0.6"/>
      </g>
     </g>
    </g>
    <g id="ytick_11">
     <g id="line2d_32">
      <g>
       <use xlink:href="#mcd15362583" x="79.5" y="526.133513" style="stroke: #000000; stroke-width: 0.6"/>
      </g>
     </g>
    </g>
    <g id="ytick_12">
     <g id="line2d_33">
      <g>
       <use xlink:href="#mcd15362583" x="79.5" y="506.615089" style="stroke: #000000; stroke-width: 0.6"/>
      </g>
     </g>
    </g>
    <g id="ytick_13">
     <g id="line2d_34">
      <g>
       <use xlink:href="#mcd15362583" x="79.5" y="487.096665" style="stroke: #000000; stroke-width: 0.6"/>
      </g>
     </g>
    </g>
    <g id="ytick_14">
     <g id="line2d_35">
      <g>
       <use xlink:href="#mcd15362583" x="79.5" y="448.059818" style="stroke: #000000; stroke-width: 0.6"/>
      </g>
     </g>
    </g>
    <g id="ytick_15">
     <g id="line2d_36">
      <g>
       <use xlink:href="#mcd15362583" x="79.5" y="428.541395" style="stroke: #000000; stroke-width: 0.6"/>
      </g>
     </g>
    </g>
    <g id="ytick_16">
     <g id="line2d_37">
      <g>
       <use xlink:href="#mcd15362583" x="79.5" y="409.022971" style="stroke: #000000; stroke-width: 0.6"/>
      </g>
     </g>
    </g>
    <g id="ytick_17">
     <g id="line2d_38">
      <g>
       <use xlink:href="#mcd15362583" x="79.5" y="389.504547" style="stroke: #000000; stroke-width: 0.6"/>
      </g>
     </g>
    </g>
    <g id="ytick_18">
     <g id="line2d_39">
      <g>
       <use xlink:href="#mcd15362583" x="79.5" y="350.4677" style="stroke: #000000; stroke-width: 0.6"/>
      </g>
     </g>
    </g>
    <g id="ytick_19">
     <g id="line2d_40">
      <g>
       <use xlink:href="#mcd15362583" x="79.5" y="330.949277" style="stroke: #000000; stroke-width: 0.6"/>
      </g>
     </g>
    </g>
    <g id="ytick_20">
     <g id="line2d_41">
      <g>
       <use xlink:href="#mcd15362583" x="79.5" y="311.430853" style="stroke: #000000; stroke-width: 0.6"/>
      </g>
     </g>
    </g>
    <g id="ytick_21">
     <g id="line2d_42">
      <g>
       <use xlink:href="#mcd15362583" x="79.5" y="291.912429" style="stroke: #000000; stroke-width: 0.6"/>
      </g>
     </g>
    </g>
    <g id="ytick_22">
     <g id="line2d_43">
      <g>
       <use xlink:href="#mcd15362583" x="79.5" y="252.875582" style="stroke: #000000; stroke-width: 0.6"/>
      </g>
     </g>
    </g>
    <g id="ytick_23">
     <g id="line2d_44">
      <g>
       <use xlink:href="#mcd15362583" x="79.5" y="233.357158" style="stroke: #000000; stroke-width: 0.6"/>
      </g>
     </g>
    </g>
    <g id="ytick_24">
     <g id="line2d_45">
      <g>
       <use xlink:href="#mcd15362583" x="79.5" y="213.838735" style="stroke: #000000; stroke-width: 0.6"/>
      </g>
     </g>
    </g>
    <g id="ytick_25">
     <g id="line2d_46">
      <g>
       <use xlink:href="#mcd15362583" x="79.5" y="194.320311" style="stroke: #000000; stroke-width: 0.6"/>
      </g>
     </g>
    </g>
    <g id="ytick_26">
     <g id="line2d_47">
      <g>
       <use xlink:href="#mcd15362583" x="79.5" y="155.283464" style="stroke: #000000; stroke-width: 0.6"/>
      </g>
     </g>
    </g>
    <g id="ytick_27">
     <g id="line2d_48">
      <g>
       <use xlink:href="#mcd15362583" x="79.5" y="135.76504" style="stroke: #000000; stroke-width: 0.6"/>
      </g>
     </g>
    </g>
    <g id="ytick_28">
     <g id="line2d_49">
      <g>
       <use xlink:href="#mcd15362583" x="79.5" y="116.246617" style="stroke: #000000; stroke-width: 0.6"/>
      </g>
     </g>
    </g>
    <g id="ytick_29">
     <g id="line2d_50">
      <g>
       <use xlink:href="#mcd15362583" x="79.5" y="96.728193" style="stroke: #000000; stroke-width: 0.6"/>
      </g>
     </g>
    </g>
    <g id="ytick_30">
     <g id="line2d_51">
      <g>
       <use xlink:href="#mcd15362583" x="79.5" y="57.691346" style="stroke: #000000; stroke-width: 0.6"/>
      </g>
     </g>
    </g>
    <g id="text_14">
     <!-- ACF $(\mathrm{W} / \mathrm{m}^2)^2$ -->
     <g transform="translate(31.275 426.339) rotate(-90) scale(0.3 -0.3)">
      <defs>
       <path id="LiberationSans-41" d="M 3647 0 
L 3144 1288 
L 1138 1288 
L 631 0 
L 13 0 
L 1809 4403 
L 2488 4403 
L 4256 0 
L 3647 0 
z
M 2141 3953 
L 2113 3866 
Q 2034 3606 1881 3200 
L 1319 1753 
L 2966 1753 
L 2400 3206 
Q 2313 3422 2225 3694 
L 2141 3953 
z
" transform="scale(0.015625)"/>
       <path id="LiberationSans-43" d="M 2475 3981 
Q 1744 3981 1337 3511 
Q 931 3041 931 2222 
Q 931 1413 1354 920 
Q 1778 428 2500 428 
Q 3425 428 3891 1344 
L 4378 1100 
Q 4106 531 3614 234 
Q 3122 -63 2472 -63 
Q 1806 -63 1320 214 
Q 834 491 579 1005 
Q 325 1519 325 2222 
Q 325 3275 894 3872 
Q 1463 4469 2469 4469 
Q 3172 4469 3644 4194 
Q 4116 3919 4338 3378 
L 3772 3191 
Q 3619 3575 3280 3778 
Q 2941 3981 2475 3981 
z
" transform="scale(0.015625)"/>
       <path id="LiberationSans-46" d="M 1122 3916 
L 1122 2278 
L 3578 2278 
L 3578 1784 
L 1122 1784 
L 1122 0 
L 525 0 
L 525 4403 
L 3653 4403 
L 3653 3916 
L 1122 3916 
z
" transform="scale(0.015625)"/>
       <path id="STIXGeneral-Regular-28" d="M 1946 -1030 
L 1869 -1133 
Q 1126 -710 716 32 
Q 307 774 307 1613 
Q 307 3386 1888 4326 
L 1946 4224 
Q 1293 3667 1075 3126 
Q 858 2586 858 1632 
Q 858 685 1082 96 
Q 1306 -493 1946 -1030 
z
" transform="scale(0.015625)"/>
       <path id="STIXGeneral-Regular-57" d="M 5965 4237 
L 5965 4115 
Q 5709 4064 5616 3990 
Q 5523 3917 5434 3667 
Q 4704 1709 4128 -70 
L 4032 -70 
Q 3642 1011 3008 2637 
L 2022 -70 
L 1926 -70 
Q 1709 576 1277 1753 
Q 845 2931 698 3347 
Q 538 3808 406 3958 
Q 275 4109 32 4115 
L 32 4237 
L 1594 4237 
L 1594 4115 
Q 1357 4109 1270 4064 
Q 1184 4019 1184 3917 
Q 1184 3808 1254 3616 
L 2176 1210 
L 2842 3021 
L 2662 3501 
Q 2509 3917 2400 4013 
Q 2291 4109 2010 4115 
L 2010 4237 
L 3706 4237 
L 3706 4115 
Q 3213 4102 3213 3891 
Q 3213 3808 3322 3520 
L 4237 1190 
L 5043 3360 
Q 5152 3667 5152 3853 
Q 5152 4109 4704 4115 
L 4704 4237 
L 5965 4237 
z
" transform="scale(0.015625)"/>
       <path id="STIXGeneral-Regular-2f" d="M 1837 4326 
L 378 -90 
L -58 -90 
L 1408 4326 
L 1837 4326 
z
" transform="scale(0.015625)"/>
       <path id="STIXGeneral-Regular-6d" d="M 4960 0 
L 3565 0 
L 3565 96 
Q 3834 122 3907 208 
Q 3981 294 3981 576 
L 3981 1894 
Q 3981 2278 3869 2444 
Q 3757 2611 3488 2611 
Q 3264 2611 3107 2521 
Q 2950 2432 2803 2221 
L 2803 608 
Q 2803 301 2896 201 
Q 2989 102 3264 96 
L 3264 0 
L 1830 0 
L 1830 96 
Q 2112 115 2189 188 
Q 2266 262 2266 550 
L 2266 1901 
Q 2266 2611 1850 2611 
Q 1670 2611 1468 2531 
Q 1267 2451 1171 2336 
Q 1088 2240 1088 2227 
L 1088 448 
Q 1088 243 1177 176 
Q 1267 109 1523 96 
L 1523 0 
L 102 0 
L 102 96 
Q 371 102 460 195 
Q 550 288 550 563 
L 550 2150 
Q 550 2387 499 2480 
Q 448 2573 326 2573 
Q 230 2573 122 2547 
L 122 2656 
Q 557 2778 1011 2944 
L 1062 2925 
L 1062 2451 
L 1075 2451 
Q 1363 2752 1584 2848 
Q 1805 2944 2054 2944 
Q 2560 2944 2733 2406 
Q 3232 2944 3776 2944 
Q 4518 2944 4518 1792 
L 4518 493 
Q 4518 282 4582 202 
Q 4646 122 4794 109 
L 4960 96 
L 4960 0 
z
" transform="scale(0.015625)"/>
       <path id="STIXGeneral-Regular-32" d="M 3034 877 
L 2688 0 
L 186 0 
L 186 77 
L 1325 1286 
Q 1773 1754 1965 2144 
Q 2157 2534 2157 2950 
Q 2157 3379 1920 3616 
Q 1683 3853 1267 3853 
Q 922 3853 720 3673 
Q 518 3494 326 3021 
L 192 3053 
Q 301 3648 630 3987 
Q 960 4326 1523 4326 
Q 2054 4326 2380 4006 
Q 2707 3686 2707 3200 
Q 2707 2477 1888 1613 
L 832 486 
L 2330 486 
Q 2541 486 2665 569 
Q 2790 653 2944 915 
L 3034 877 
z
" transform="scale(0.015625)"/>
       <path id="STIXGeneral-Regular-29" d="M 186 4224 
L 262 4326 
Q 992 3891 1408 3148 
Q 1824 2406 1824 1581 
Q 1824 -166 243 -1133 
L 186 -1030 
Q 845 -486 1059 54 
Q 1274 595 1274 1562 
Q 1274 2534 1059 3120 
Q 845 3706 186 4224 
z
" transform="scale(0.015625)"/>
      </defs>
      <use xlink:href="#LiberationSans-41" transform="translate(0 0.409375)"/>
      <use xlink:href="#LiberationSans-43" transform="translate(66.699219 0.409375)"/>
      <use xlink:href="#LiberationSans-46" transform="translate(138.916016 0.409375)"/>
      <use xlink:href="#LiberationSans-20" transform="translate(200 0.409375)"/>
      <use xlink:href="#STIXGeneral-Regular-28" transform="translate(227.783203 0.409375)"/>
      <use xlink:href="#STIXGeneral-Regular-57" transform="translate(261.083191 0.409375)"/>
      <use xlink:href="#STIXGeneral-Regular-2f" transform="translate(355.483185 0.409375)"/>
      <use xlink:href="#STIXGeneral-Regular-6d" transform="translate(383.283173 0.409375)"/>
      <use xlink:href="#STIXGeneral-Regular-32" transform="translate(462.626442 35.684375) scale(0.7)"/>
      <use xlink:href="#STIXGeneral-Regular-29" transform="translate(502.035806 0.409375)"/>
      <use xlink:href="#STIXGeneral-Regular-32" transform="translate(536.879075 35.684375) scale(0.7)"/>
     </g>
    </g>
    <g id="text_15">
     <!-- $\times\mathdefault{10^{18}}\mathdefault{}$ -->
     <g transform="translate(79.5 36.1875) scale(0.4 -0.4)">
      <defs>
       <path id="STIXGeneral-Regular-d7" d="M 3821 141 
L 3526 -160 
L 2048 1312 
L 570 -160 
L 275 134 
L 1747 1613 
L 275 3091 
L 576 3386 
L 2048 1914 
L 3526 3386 
L 3821 3098 
L 2349 1613 
L 3821 141 
z
" transform="scale(0.015625)"/>
      </defs>
      <use xlink:href="#STIXGeneral-Regular-d7" transform="translate(0 0.140625)"/>
      <use xlink:href="#LiberationSans-31" transform="translate(63.999985 0.140625)"/>
      <use xlink:href="#LiberationSans-30" transform="translate(119.615219 0.140625)"/>
      <use xlink:href="#LiberationSans-31" transform="translate(176.154946 37.120312) scale(0.7)"/>
      <use xlink:href="#LiberationSans-38" transform="translate(215.08561 37.120312) scale(0.7)"/>
     </g>
    </g>
   </g>
   <g id="line2d_52">
    <path d="M 107.865545 66.514909 
L 107.979018 67.264844 
L 108.149229 71.185874 
L 108.432913 84.989656 
L 108.83007 118.432281 
L 109.397438 189.307257 
L 110.645646 386.05889 
L 111.553435 508.57444 
L 112.177539 565.717344 
L 112.68817 594.688475 
L 113.085327 607.27547 
L 113.425748 612.238038 
L 113.652695 613.063091 
L 113.766168 612.839774 
L 113.936379 611.809923 
L 114.220062 608.521509 
L 114.673957 600.224716 
L 115.468271 580.757244 
L 117.510795 523.36568 
L 119.723528 462.037514 
L 120.517843 446.182077 
L 121.085211 438.527769 
L 121.539105 434.793483 
L 121.879526 433.357714 
L 122.106473 433.013741 
L 122.276683 433.057461 
L 122.50363 433.490634 
L 122.84405 434.865832 
L 123.297945 437.835625 
L 123.978786 444.032492 
L 125.624152 462.024554 
L 126.758887 472.924662 
L 127.553202 478.643844 
L 128.177306 481.771516 
L 128.687937 483.374959 
L 129.085094 484.026661 
L 129.368778 484.183441 
L 129.652462 484.095708 
L 129.992883 483.689434 
L 130.446777 482.691149 
L 131.014144 480.836657 
L 131.865196 477.172664 
L 133.510562 468.814338 
L 135.269402 460.256158 
L 136.063716 457.423202 
L 136.574347 456.294458 
L 136.971505 455.903026 
L 137.255188 455.915647 
L 137.538872 456.183774 
L 137.879293 456.844391 
L 138.333187 458.271511 
L 138.957291 461.08221 
L 141.340235 472.848747 
L 141.850866 474.020843 
L 142.248024 474.462872 
L 142.588444 474.549964 
L 142.928865 474.415183 
L 143.439496 473.918043 
L 145.99265 470.930028 
L 146.843701 470.015525 
L 147.467806 469.008558 
L 148.148647 467.476149 
L 149.453593 463.806636 
L 150.247907 461.934377 
L 150.758538 461.207264 
L 151.155695 460.972246 
L 151.496116 461.011583 
L 151.893273 461.325426 
L 152.403904 462.093186 
L 153.141482 463.688648 
L 154.900322 467.648176 
L 155.751373 468.961536 
L 156.715898 470.016294 
L 157.793897 470.872399 
L 158.531475 471.222172 
L 159.098842 471.262389 
L 159.609473 471.066144 
L 160.120104 470.620958 
L 160.744209 469.752746 
L 161.708734 467.938306 
L 163.013679 465.542041 
L 163.69452 464.711407 
L 164.318625 464.280894 
L 164.942729 464.132228 
L 165.62357 464.214488 
L 166.417885 464.544816 
L 167.2122 465.111554 
L 167.949777 465.90275 
L 168.744092 467.084749 
L 170.162511 469.714319 
L 171.070299 471.127969 
L 171.637667 471.648189 
L 172.091561 471.807812 
L 172.545455 471.737608 
L 173.056086 471.418085 
L 173.793664 470.652092 
L 175.382294 468.923718 
L 176.176608 468.418152 
L 177.311343 468.006309 
L 178.502816 467.496433 
L 180.545339 466.502079 
L 181.169443 466.513855 
L 181.793548 466.751365 
L 182.701336 467.380256 
L 184.006282 468.274929 
L 184.743859 468.515951 
L 185.538174 468.530084 
L 186.672909 468.293541 
L 188.601959 467.661802 
L 189.793431 467.009557 
L 191.382061 466.125898 
L 192.006165 466.033298 
L 192.573533 466.158045 
L 193.254374 466.562191 
L 194.502583 467.666913 
L 195.296898 468.218736 
L 195.921002 468.391466 
L 196.48837 468.319676 
L 197.225947 467.967364 
L 198.92805 467.052587 
L 199.608892 467.000098 
L 200.403206 467.186646 
L 201.821625 467.559707 
L 202.44573 467.479092 
L 203.126571 467.158995 
L 204.431516 466.201474 
L 205.225831 465.773564 
L 205.849936 465.679975 
L 206.47404 465.825683 
L 207.211618 466.243392 
L 209.594562 467.768476 
L 210.67256 468.072312 
L 212.658347 468.35388 
L 213.793082 468.311129 
L 214.984554 468.011297 
L 216.232763 467.747176 
L 216.970341 467.831413 
L 217.707919 468.149165 
L 220.204337 469.462778 
L 220.828441 469.387487 
L 221.509282 469.062227 
L 223.948963 467.618277 
L 224.629804 467.617079 
L 225.480856 467.87397 
L 227.126222 468.429045 
L 227.920537 468.43735 
L 228.941798 468.197548 
L 232.289267 467.244739 
L 234.955895 466.652148 
L 235.92042 466.708547 
L 237.168629 467.026669 
L 238.813995 467.414097 
L 239.891994 467.422485 
L 241.480623 467.169121 
L 244.998302 466.620809 
L 246.813879 466.461271 
L 248.062088 466.58946 
L 249.650717 467.007556 
L 251.920187 467.834721 
L 255.040709 469.093893 
L 255.721551 469.040975 
L 256.402392 468.761892 
L 257.253443 468.141074 
L 259.182493 466.632253 
L 259.863334 466.435737 
L 260.487439 466.478857 
L 261.281753 466.78141 
L 263.891645 467.996412 
L 268.771006 469.141451 
L 269.565321 468.989703 
L 270.586583 468.543637 
L 272.629106 467.6024 
L 273.990789 467.283777 
L 276.9411 466.873179 
L 277.905625 466.988345 
L 278.813413 467.324333 
L 280.118359 468.082919 
L 281.536778 468.847245 
L 282.38783 469.048877 
L 283.125407 468.993028 
L 283.862985 468.715519 
L 284.770774 468.123377 
L 287.380665 466.244839 
L 288.118243 466.059602 
L 288.855821 466.110092 
L 289.706872 466.412324 
L 292.089816 467.41648 
L 292.884131 467.433671 
L 293.905393 467.217141 
L 295.380548 466.919672 
L 296.174863 466.993918 
L 297.082651 467.310359 
L 298.954964 468.029375 
L 299.692542 468.03667 
L 300.486857 467.818007 
L 303.096748 466.885959 
L 304.004536 466.946661 
L 305.479692 467.333671 
L 307.295269 467.730523 
L 311.210105 468.249572 
L 314.614311 468.303108 
L 316.656835 468.239183 
L 318.472411 467.920175 
L 320.855355 467.518157 
L 322.160301 467.530247 
L 325.50777 467.727921 
L 326.642505 467.402058 
L 328.741765 466.746325 
L 329.70629 466.71476 
L 330.784289 466.917317 
L 333.677864 467.614175 
L 334.642389 467.528488 
L 335.947334 467.149279 
L 337.25228 466.82882 
L 338.103331 466.856194 
L 339.01112 467.12964 
L 341.564274 468.071912 
L 342.472062 468.064025 
L 346.954266 467.649942 
L 348.656369 467.481334 
L 350.698893 467.291633 
L 352.003838 467.411995 
L 353.592468 467.803438 
L 356.8832 468.688988 
L 357.790988 468.65768 
L 358.64204 468.409696 
L 359.663301 467.855836 
L 361.989509 466.476536 
L 362.84056 466.286109 
L 363.691612 466.337416 
L 364.5994 466.625389 
L 365.734135 467.230981 
L 368.79792 469.020669 
L 369.592235 469.153821 
L 370.38655 469.06069 
L 371.407811 468.688625 
L 374.017703 467.637501 
L 376.003489 466.897938 
L 377.875803 466.159428 
L 378.670117 466.119012 
L 379.407695 466.314042 
L 380.315483 466.814365 
L 382.641691 468.225538 
L 383.492742 468.421349 
L 384.40053 468.398732 
L 385.592002 468.126597 
L 388.372104 467.422842 
L 391.662836 467.029479 
L 393.194729 466.968078 
L 394.329464 467.143675 
L 398.017354 467.961663 
L 400.683981 468.065997 
L 403.974714 468.644336 
L 404.825765 468.399869 
L 405.9605 467.815847 
L 408.059761 466.70786 
L 409.251233 466.35801 
L 410.556178 466.21591 
L 411.974597 466.292922 
L 413.33628 466.584544 
L 414.697962 467.103578 
L 417.818484 468.436231 
L 418.669535 468.45478 
L 419.577324 468.238471 
L 421.109216 467.587745 
L 422.924793 466.90204 
L 424.853843 466.420081 
L 425.988578 466.334519 
L 426.953103 466.484639 
L 428.087838 466.914127 
L 430.073625 467.696935 
L 431.094887 467.815585 
L 432.513306 467.715821 
L 434.272145 467.650662 
L 437.108984 467.65226 
L 439.548664 467.473969 
L 440.6834 467.689075 
L 442.95287 468.206971 
L 443.917395 468.144861 
L 445.392551 467.78056 
L 446.754233 467.532537 
L 448.002442 467.551785 
L 450.49886 467.659333 
L 453.959802 467.465578 
L 455.208011 467.829159 
L 456.62643 468.201729 
L 457.477482 468.191838 
L 458.38527 467.938666 
L 461.165371 466.936348 
L 461.959686 467.007735 
L 462.980948 467.350665 
L 464.569577 467.893128 
L 465.363892 467.919294 
L 466.214943 467.718072 
L 468.654624 466.973909 
L 469.392202 467.085411 
L 470.29999 467.477267 
L 472.115567 468.342268 
L 472.853145 468.427132 
L 473.647459 468.290622 
L 475.009142 467.763391 
L 476.200614 467.401247 
L 477.392086 467.290141 
L 479.434609 467.124102 
L 482.328184 466.680074 
L 483.292709 466.873108 
L 484.427444 467.355057 
L 487.037336 468.557981 
L 487.945124 468.678183 
L 488.852912 468.568444 
L 490.157858 468.145425 
L 491.68975 467.707746 
L 492.994696 467.604517 
L 494.980482 467.461344 
L 497.64711 467.100321 
L 498.554899 467.290747 
L 499.689634 467.781067 
L 501.448473 468.542618 
L 502.412998 468.706216 
L 503.43426 468.650648 
L 504.852679 468.32326 
L 509.732041 467.015027 
L 511.207197 466.993452 
L 515.916348 467.313813 
L 519.604238 467.717733 
L 520.96592 467.55354 
L 523.348864 467.213535 
L 524.426863 467.326744 
L 527.944542 467.923892 
L 529.533171 467.681921 
L 530.95159 467.559036 
L 532.483483 467.680276 
L 535.433795 467.925778 
L 538.49758 467.979453 
L 539.745789 467.735598 
L 543.036521 466.925699 
L 544.568414 466.941397 
L 549.447775 467.280991 
L 553.135665 468.163706 
L 554.327137 468.053443 
L 557.277449 467.655514 
L 560.681655 467.614116 
L 563.74544 466.971613 
L 564.539754 467.178911 
L 565.504279 467.674681 
L 567.490066 468.754858 
L 568.284381 468.905395 
L 569.078696 468.822345 
L 569.986484 468.485645 
L 571.63185 467.569631 
L 573.163743 466.823625 
L 574.298478 466.517887 
L 575.31974 466.473996 
L 576.397738 466.661885 
L 578.383525 467.316582 
L 579.745207 467.616083 
L 581.61752 467.745104 
L 585.986251 467.919633 
L 587.40467 467.536365 
L 589.050036 467.124912 
L 590.014561 467.110479 
L 591.035823 467.326216 
L 594.440029 468.270808 
L 595.631501 468.207314 
L 599.830021 467.76414 
L 601.759071 467.615745 
L 603.347701 467.242596 
L 605.276751 466.814348 
L 606.298012 466.82644 
L 607.376011 467.070289 
L 610.326323 467.893175 
L 611.631268 467.905708 
L 616.567367 467.536001 
L 618.26947 467.432041 
L 619.687889 467.599524 
L 621.446728 467.783824 
L 622.751674 467.656334 
L 624.56725 467.482657 
L 625.758722 467.636279 
L 628.311877 468.062483 
L 629.843769 467.995521 
L 632.510397 467.640191 
L 636.425234 466.927413 
L 637.446496 467.137214 
L 638.921651 467.706226 
L 640.850701 468.402718 
L 642.155647 468.62416 
L 643.347119 468.601627 
L 644.425118 468.368094 
L 645.559853 467.890698 
L 649.020795 466.215505 
L 649.871847 466.198564 
L 650.722898 466.414284 
L 651.800897 466.935804 
L 654.183841 468.157443 
L 655.43205 468.486503 
L 656.850469 468.628833 
L 658.098678 468.550812 
L 659.233413 468.249723 
L 660.651832 467.610453 
L 662.580882 466.761609 
L 663.65888 466.528103 
L 664.623405 466.532755 
L 665.644667 466.762508 
L 667.119823 467.360425 
L 668.538242 467.854099 
L 669.502767 467.947105 
L 670.580766 467.805493 
L 672.509815 467.506894 
L 673.417604 467.643154 
L 674.495602 468.057518 
L 675.176443 468.360898 
L 675.176443 468.360898 
" clip-path="url(#paed88902e6)" style="fill: none; stroke: #ff0000; stroke-width: 1.5; stroke-linecap: square"/>
   </g>
   <g id="line2d_53">
    <path d="M 107.865545 81.401724 
L 108.432913 106.174717 
L 108.886807 147.833203 
L 109.567648 235.851954 
L 111.383224 484.75549 
L 112.007329 539.522624 
L 112.51796 567.743912 
L 112.971854 581.417379 
L 113.312274 585.819208 
L 113.539221 586.518743 
L 113.652695 586.298369 
L 113.822905 585.378335 
L 114.106589 582.508945 
L 114.61722 574.54858 
L 115.808692 550.743682 
L 117.907952 505.258922 
L 120.007212 459.233328 
L 120.688053 449.22714 
L 121.198684 444.508086 
L 121.595842 442.484173 
L 121.879526 441.89221 
L 122.049736 441.827081 
L 122.33342 442.211103 
L 122.67384 443.366825 
L 123.127734 445.873971 
L 123.978786 452.330487 
L 125.397205 463.535941 
L 126.475203 470.545847 
L 128.404253 481.395041 
L 129.085094 484.056848 
L 129.652462 485.477317 
L 129.992883 485.959333 
L 130.333303 486.097377 
L 130.616987 485.980358 
L 130.900671 485.655433 
L 131.241091 484.959411 
L 131.694986 483.458399 
L 132.432564 479.718347 
L 133.397089 473.384497 
L 134.588561 465.770344 
L 135.269402 462.669921 
L 135.836769 461.106437 
L 136.233927 460.565966 
L 136.51761 460.474852 
L 136.858031 460.62513 
L 137.198452 461.074669 
L 137.709083 462.26167 
L 139.638132 467.084535 
L 140.03529 467.491726 
L 140.489184 467.62918 
L 140.886341 467.52866 
L 141.396972 467.196778 
L 142.758654 466.2381 
L 143.326022 466.253201 
L 143.950127 466.640698 
L 144.630968 467.445898 
L 145.99265 469.115057 
L 146.843701 469.666712 
L 148.545804 470.605174 
L 149.056435 470.879693 
L 150.077697 471.155273 
L 150.815275 471.133873 
L 151.269169 470.946165 
L 151.836537 470.372129 
L 152.687588 468.844259 
L 153.992534 466.459816 
L 154.616638 465.679907 
L 155.184006 465.237323 
L 155.6379 465.165364 
L 156.205267 465.349365 
L 158.474738 466.383062 
L 159.098842 466.3808 
L 161.992417 465.775344 
L 162.673258 465.513235 
L 163.410836 464.981075 
L 164.375361 464.372655 
L 164.715782 464.29869 
L 165.226413 464.497638 
L 165.850517 465.007765 
L 166.758305 466.091828 
L 168.403672 468.057265 
L 169.14125 468.579806 
L 169.822091 468.799118 
L 170.502932 468.786188 
L 171.353983 468.539371 
L 173.056086 467.719538 
L 174.020611 467.380962 
L 174.814926 467.326736 
L 175.609241 467.491661 
L 176.573766 467.925435 
L 178.219132 468.681277 
L 179.013446 468.786842 
L 179.751024 468.65014 
L 180.488602 468.291735 
L 181.680074 467.426756 
L 182.871546 466.663426 
L 183.609124 466.425649 
L 184.289965 466.428979 
L 185.08428 466.644208 
L 186.899857 467.471275 
L 188.091329 467.869431 
L 189.396274 468.025524 
L 191.382061 468.040359 
L 192.857217 467.87716 
L 194.843003 467.66911 
L 195.977739 467.779033 
L 198.247209 468.008364 
L 199.098261 467.835048 
L 200.006049 467.458558 
L 201.935099 466.603453 
L 202.729414 466.455927 
L 203.580465 466.484399 
L 204.771937 466.783231 
L 207.381828 467.622748 
L 208.289616 467.665942 
L 211.750559 467.528799 
L 212.942031 467.863699 
L 216.573184 468.976782 
L 217.254025 468.841141 
L 217.878129 468.480995 
L 218.615707 467.781582 
L 219.97739 466.107819 
L 220.828441 465.249459 
L 221.452545 464.921047 
L 221.963176 464.928167 
L 222.473807 465.148844 
L 223.097912 465.660477 
L 224.232647 466.953091 
L 225.253909 467.980393 
L 225.93475 468.389448 
L 226.615591 468.524113 
L 227.296432 468.4033 
L 228.374431 467.913178 
L 229.395692 467.500688 
L 230.13327 467.41697 
L 230.814111 467.561026 
L 231.665163 467.991659 
L 233.594213 469.063537 
L 234.218317 469.134691 
L 234.842422 468.980576 
L 235.58 468.551883 
L 236.601261 467.679163 
L 238.530311 466.052455 
L 239.4381 465.632241 
L 240.175677 465.501345 
L 240.913255 465.605544 
L 241.650833 465.959598 
L 242.558622 466.698175 
L 244.998302 468.831059 
L 245.679144 469.011321 
L 246.359985 468.917131 
L 247.097563 468.551486 
L 249.25356 467.295719 
L 249.877664 467.224034 
L 250.558505 467.365865 
L 251.35282 467.771062 
L 253.679027 469.099799 
L 254.303132 469.089254 
L 254.927236 468.835834 
L 255.721551 468.197607 
L 257.026496 466.749485 
L 257.991021 465.806174 
L 258.671862 465.438883 
L 259.182493 465.380997 
L 259.749861 465.546203 
L 260.430702 466.019208 
L 261.622174 467.2233 
L 262.870383 468.41425 
L 263.721434 468.925098 
L 264.515749 469.125471 
L 265.310064 469.06085 
L 266.217852 468.731058 
L 268.657533 467.767388 
L 269.508584 467.753899 
L 270.416372 467.987494 
L 271.778055 468.649005 
L 272.74258 469.002772 
L 273.366684 469.012754 
L 273.990789 468.796482 
L 274.614893 468.334885 
L 275.465944 467.392399 
L 277.508468 464.985185 
L 278.132572 464.644742 
L 278.643203 464.669372 
L 279.210571 464.93534 
L 279.891412 465.528123 
L 281.253094 467.110824 
L 282.274356 468.128836 
L 283.011934 468.576092 
L 283.636038 468.738157 
L 284.260143 468.68731 
L 285.054457 468.396729 
L 287.437401 467.361948 
L 288.288453 467.366333 
L 289.366451 467.648496 
L 290.955081 468.039898 
L 291.862869 467.986652 
L 292.770657 467.693417 
L 293.791919 467.086772 
L 296.40181 465.347397 
L 297.196125 465.125908 
L 297.876966 465.172508 
L 298.50107 465.429143 
L 299.352122 466.082914 
L 301.905276 468.249365 
L 302.699591 468.527827 
L 303.777589 468.676232 
L 307.068322 468.781389 
L 307.862636 468.477481 
L 308.997372 467.782586 
L 310.472527 466.918787 
L 311.266842 466.703326 
L 312.117894 466.707594 
L 313.479576 466.978508 
L 315.578836 467.387743 
L 319.663883 467.774726 
L 321.592933 468.044029 
L 323.40851 468.069901 
L 324.826929 468.153562 
L 326.755979 468.474685 
L 328.060924 468.570596 
L 329.082186 468.421423 
L 330.046711 468.04496 
L 331.011236 467.428905 
L 333.848074 465.424036 
L 334.472178 465.31191 
L 335.039546 465.412731 
L 335.777124 465.840668 
L 337.138806 466.984142 
L 338.443752 467.962417 
L 339.294803 468.373612 
L 340.202592 468.554059 
L 341.053643 468.461573 
L 341.847958 468.167796 
L 344.628059 466.869334 
L 345.3089 466.923127 
L 345.933005 467.168309 
L 346.954266 467.845012 
L 348.259212 468.68504 
L 348.883316 468.846005 
L 349.507421 468.787609 
L 350.131525 468.489812 
L 350.869103 467.879072 
L 353.422257 465.49547 
L 354.046362 465.302205 
L 354.613729 465.351698 
L 355.237834 465.644315 
L 356.032149 466.291447 
L 358.188146 468.173007 
L 358.98246 468.507564 
L 359.776775 468.598072 
L 360.57109 468.483818 
L 364.372453 467.618436 
L 365.393715 467.76975 
L 367.946869 468.362277 
L 368.741184 468.220862 
L 369.535498 467.848329 
L 371.804969 466.68244 
L 372.48581 466.644059 
L 373.166651 466.824869 
L 374.017703 467.286229 
L 376.116963 468.558955 
L 376.968014 468.746552 
L 377.875803 468.676357 
L 378.840327 468.338643 
L 381.790639 466.952221 
L 382.47148 466.9779 
L 383.152322 467.218083 
L 384.003373 467.756987 
L 385.705476 468.855172 
L 386.32958 468.962719 
L 386.840211 468.853618 
L 387.407579 468.510305 
L 388.031683 467.863313 
L 389.166418 466.245391 
L 390.301154 464.740058 
L 390.925258 464.231491 
L 391.492626 464.035205 
L 391.77631 464.065506 
L 392.28694 464.323099 
L 392.911045 464.915597 
L 393.762096 466.057046 
L 396.031567 469.199395 
L 396.769145 469.736673 
L 397.336512 469.905251 
L 397.960617 469.852233 
L 398.641458 469.560589 
L 399.492509 468.953906 
L 401.024402 467.804988 
L 401.76198 467.521792 
L 402.499558 467.480692 
L 403.293873 467.673096 
L 405.336396 468.304735 
L 406.073974 468.211602 
L 406.811552 467.892126 
L 407.776077 467.224901 
L 409.64839 465.893087 
L 410.329231 465.657918 
L 410.953336 465.64879 
L 411.57744 465.851536 
L 412.315018 466.337971 
L 415.151856 468.522724 
L 415.889434 468.670016 
L 416.740486 468.585421 
L 417.875221 468.205634 
L 419.804271 467.343144 
L 421.279427 466.722093 
L 422.130478 466.613561 
L 422.868056 466.758476 
L 423.889318 467.190142 
L 425.137527 467.697624 
L 425.931841 467.785211 
L 426.896366 467.618397 
L 428.655206 467.301263 
L 429.449521 467.399978 
L 430.527519 467.822663 
L 432.116148 468.52013 
L 432.910463 468.630085 
L 433.704778 468.491426 
L 434.669303 468.032849 
L 436.882037 466.84481 
L 437.506141 466.817862 
L 438.130245 467.003219 
L 438.92456 467.513202 
L 440.342979 468.772006 
L 441.250767 469.414854 
L 441.988345 469.660418 
L 442.61245 469.619259 
L 443.179817 469.365568 
L 443.860658 468.800455 
L 444.768447 467.670661 
L 447.037917 464.582177 
L 447.718758 464.101575 
L 448.286126 463.960918 
L 449.193914 464.413332 
L 450.044966 465.226616 
L 452.371173 467.703944 
L 453.108751 468.087445 
L 453.903066 468.24135 
L 454.754117 468.143642 
L 457.817902 467.521414 
L 458.668954 467.741871 
L 459.803689 468.322696 
L 461.108635 468.953626 
L 461.902949 469.057831 
L 462.697264 468.932831 
L 463.605052 468.525519 
L 464.796524 467.701835 
L 466.214943 466.753926 
L 467.065995 466.425951 
L 467.803573 466.357722 
L 468.597887 466.517509 
L 469.562412 466.969287 
L 471.548199 468.008818 
L 472.455987 468.214802 
L 473.477249 468.210318 
L 486.413231 466.719935 
L 487.264283 466.948409 
L 488.512491 467.585845 
L 490.101121 468.457318 
L 490.895435 468.649281 
L 491.68975 468.596919 
L 492.484065 468.315258 
L 494.526588 467.491581 
L 495.207429 467.463982 
L 495.945007 467.641042 
L 496.909532 468.106372 
L 498.327951 468.735395 
L 499.065529 468.818585 
L 499.746371 468.68487 
L 500.483948 468.278967 
L 501.335 467.550636 
L 503.888154 465.155512 
L 504.568995 464.909715 
L 505.136363 464.933269 
L 505.703731 465.215527 
L 506.498045 465.88315 
L 508.824253 467.963533 
L 509.505094 468.196455 
L 510.242672 468.195178 
L 511.32067 467.901073 
L 512.739089 467.525542 
L 513.703614 467.486378 
L 514.554666 467.63978 
L 515.802875 468.148455 
L 518.242555 469.201574 
L 518.980133 469.186061 
L 519.660975 468.967104 
L 520.341816 468.524762 
L 521.249604 467.655835 
L 523.178654 465.761977 
L 523.916232 465.392525 
L 524.483599 465.329184 
L 525.107704 465.486328 
L 525.845282 465.92762 
L 528.909067 468.002409 
L 530.214013 468.356555 
L 532.37001 468.649942 
L 533.504745 468.600253 
L 534.923164 468.283868 
L 539.064948 467.059804 
L 541.164208 466.208968 
L 541.901786 466.185531 
L 542.639364 466.415601 
L 543.433678 466.954349 
L 546.21378 469.242916 
L 546.951358 469.40584 
L 547.575462 469.324717 
L 548.31304 469.003386 
L 549.220828 468.340075 
L 551.206615 466.780317 
L 551.944193 466.505634 
L 552.568297 466.494172 
L 553.249139 466.726333 
L 554.156927 467.308817 
L 556.539871 469.008912 
L 557.220712 469.121718 
L 557.78808 468.998255 
L 558.468921 468.592298 
L 559.433446 467.693815 
L 561.078812 466.08574 
L 561.929863 465.58933 
L 562.553968 465.43498 
L 563.178072 465.503725 
L 563.802177 465.796085 
L 564.653228 466.487882 
L 566.695752 468.298661 
L 567.319856 468.543791 
L 567.94396 468.563321 
L 568.681538 468.334164 
L 571.234693 467.275896 
L 571.915534 467.41388 
L 572.709848 467.829345 
L 574.638898 468.936793 
L 575.31974 468.992033 
L 576.057317 468.793321 
L 576.851632 468.359849 
L 578.894156 467.175013 
L 580.199101 466.799839 
L 581.560784 466.681269 
L 583.149413 466.729404 
L 584.454358 467.010386 
L 587.06425 467.641846 
L 589.220247 467.802727 
L 590.695402 467.911216 
L 591.603191 468.193657 
L 592.681189 468.750934 
L 593.815924 469.310822 
L 594.496766 469.395773 
L 595.064133 469.242184 
L 595.688238 468.815546 
L 596.482552 467.951912 
L 598.127918 466.042635 
L 598.752023 465.669968 
L 599.319391 465.605426 
L 599.886758 465.798042 
L 600.510863 466.244366 
L 601.645598 467.356405 
L 602.723596 468.290962 
L 603.461174 468.657 
L 604.142015 468.765163 
L 604.993067 468.614968 
L 606.241276 468.094769 
L 607.489484 467.646284 
L 608.397273 467.570418 
L 609.361798 467.742524 
L 610.496533 468.231178 
L 611.914952 468.811064 
L 612.65253 468.890768 
L 613.333371 468.730555 
L 613.957476 468.33761 
L 614.638317 467.630432 
L 615.602842 466.274217 
L 616.907787 464.443145 
L 617.588628 463.835524 
L 618.155996 463.611298 
L 618.60989 463.650458 
L 619.120521 463.934793 
L 619.801362 464.618965 
L 620.765887 465.981857 
L 622.184306 467.945521 
L 622.865147 468.553349 
L 623.489252 468.856691 
L 624.22683 468.927919 
L 625.248091 468.691946 
L 627.006931 468.228834 
L 627.857983 468.249302 
L 629.106191 468.584666 
L 630.467874 468.944064 
L 631.432399 468.964604 
L 632.28345 468.741672 
L 633.077765 468.307531 
L 634.04229 467.508763 
L 636.481971 465.357486 
L 637.106075 465.119381 
L 637.673443 465.114064 
L 638.297547 465.354251 
L 638.978388 465.884776 
L 639.886176 466.916211 
L 641.361332 468.596756 
L 642.09891 469.101258 
L 642.836488 469.324428 
L 643.630803 469.310365 
L 644.765538 469.056389 
L 647.432166 468.297067 
L 649.474689 467.657822 
L 650.666162 467.501154 
L 652.538475 467.311537 
L 653.446263 466.932971 
L 655.885944 465.737213 
L 656.510048 465.754005 
L 657.134153 465.986931 
L 657.928467 466.542912 
L 660.084464 468.238249 
L 660.822042 468.516375 
L 661.616357 468.568168 
L 662.410672 468.395479 
L 664.793616 467.692068 
L 665.531194 467.822744 
L 666.382245 468.218494 
L 668.651716 469.464854 
L 669.27582 469.496828 
L 669.843188 469.325519 
L 670.524029 468.865625 
L 671.261607 468.095694 
L 673.984971 464.912942 
L 674.609076 464.685254 
L 675.176443 464.72909 
L 675.176443 464.72909 
" clip-path="url(#paed88902e6)" style="fill: none; stroke: #0000ff; stroke-width: 1.5; stroke-linecap: square"/>
   </g>
   <g id="patch_3">
    <path d="M 79.5 640.3905 
L 79.5 39.1875 
" style="fill: none; stroke: #000000; stroke-width: 0.8; stroke-linejoin: miter; stroke-linecap: square"/>
   </g>
   <g id="patch_4">
    <path d="M 703.541988 640.3905 
L 703.541988 39.1875 
" style="fill: none; stroke: #000000; stroke-width: 0.8; stroke-linejoin: miter; stroke-linecap: square"/>
   </g>
   <g id="patch_5">
    <path d="M 79.5 640.3905 
L 703.541988 640.3905 
" style="fill: none; stroke: #000000; stroke-width: 0.8; stroke-linejoin: miter; stroke-linecap: square"/>
   </g>
   <g id="patch_6">
    <path d="M 79.5 39.1875 
L 703.541988 39.1875 
" style="fill: none; stroke: #000000; stroke-width: 0.8; stroke-linejoin: miter; stroke-linecap: square"/>
   </g>
   <g id="legend_1">
    <g id="patch_7">
     <path d="M 100.5 149.11875 
L 276.510938 149.11875 
Q 282.510938 149.11875 282.510938 143.11875 
L 282.510938 60.1875 
Q 282.510938 54.1875 276.510938 54.1875 
L 100.5 54.1875 
Q 94.5 54.1875 94.5 60.1875 
L 94.5 143.11875 
Q 94.5 149.11875 100.5 149.11875 
z
" style="fill: #ffffff; opacity: 0.8; stroke: #cccccc; stroke-linejoin: miter"/>
    </g>
    <g id="line2d_54">
     <path d="M 106.5 77.428125 
L 136.5 77.428125 
L 166.5 77.428125 
" style="fill: none; stroke: #ff0000; stroke-width: 1.5; stroke-linecap: square"/>
    </g>
    <g id="text_16">
     <!-- MD -->
     <g transform="translate(190.5 87.928125) scale(0.3 -0.3)">
      <defs>
       <path id="LiberationSans-4d" d="M 4269 0 
L 4269 2938 
Q 4269 3425 4297 3875 
Q 4144 3316 4022 3000 
L 2884 0 
L 2466 0 
L 1313 3000 
L 1138 3531 
L 1034 3875 
L 1044 3528 
L 1056 2938 
L 1056 0 
L 525 0 
L 525 4403 
L 1309 4403 
L 2481 1350 
Q 2544 1166 2601 955 
Q 2659 744 2678 650 
Q 2703 775 2783 1029 
Q 2863 1284 2891 1350 
L 4041 4403 
L 4806 4403 
L 4806 0 
L 4269 0 
z
" transform="scale(0.015625)"/>
       <path id="LiberationSans-44" d="M 4316 2247 
Q 4316 1566 4050 1055 
Q 3784 544 3296 272 
Q 2809 0 2172 0 
L 525 0 
L 525 4403 
L 1981 4403 
Q 3100 4403 3708 3842 
Q 4316 3281 4316 2247 
z
M 3716 2247 
Q 3716 3066 3267 3495 
Q 2819 3925 1969 3925 
L 1122 3925 
L 1122 478 
L 2103 478 
Q 2588 478 2955 690 
Q 3322 903 3519 1303 
Q 3716 1703 3716 2247 
z
" transform="scale(0.015625)"/>
      </defs>
      <use xlink:href="#LiberationSans-4d"/>
      <use xlink:href="#LiberationSans-44" x="83.300781"/>
     </g>
    </g>
    <g id="line2d_55">
     <path d="M 106.5 120.39375 
L 136.5 120.39375 
L 166.5 120.39375 
" style="fill: none; stroke: #0000ff; stroke-width: 1.5; stroke-linecap: square"/>
    </g>
    <g id="text_17">
     <!-- GANs -->
     <g transform="translate(190.5 130.89375) scale(0.3 -0.3)">
      <defs>
       <path id="LiberationSans-47" d="M 322 2222 
Q 322 3294 897 3881 
Q 1472 4469 2513 4469 
Q 3244 4469 3700 4222 
Q 4156 3975 4403 3431 
L 3834 3263 
Q 3647 3638 3317 3809 
Q 2988 3981 2497 3981 
Q 1734 3981 1331 3520 
Q 928 3059 928 2222 
Q 928 1388 1356 905 
Q 1784 422 2541 422 
Q 2972 422 3345 553 
Q 3719 684 3950 909 
L 3950 1703 
L 2634 1703 
L 2634 2203 
L 4500 2203 
L 4500 684 
Q 4150 328 3642 132 
Q 3134 -63 2541 -63 
Q 1850 -63 1350 212 
Q 850 488 586 1005 
Q 322 1522 322 2222 
z
" transform="scale(0.015625)"/>
       <path id="LiberationSans-4e" d="M 3381 0 
L 1025 3750 
L 1041 3447 
L 1056 2925 
L 1056 0 
L 525 0 
L 525 4403 
L 1219 4403 
L 3600 628 
Q 3563 1241 3563 1516 
L 3563 4403 
L 4100 4403 
L 4100 0 
L 3381 0 
z
" transform="scale(0.015625)"/>
      </defs>
      <use xlink:href="#LiberationSans-47"/>
      <use xlink:href="#LiberationSans-41" x="77.783203"/>
      <use xlink:href="#LiberationSans-4e" x="144.482422"/>
      <use xlink:href="#LiberationSans-73" x="216.699219"/>
     </g>
    </g>
   </g>
  </g>
 </g>
 <defs>
  <clipPath id="paed88902e6">
   <rect x="79.5" y="39.1875" width="624.041988" height="601.203"/>
  </clipPath>
 </defs>
</svg>
