<?xml version="1.0" encoding="utf-8" standalone="no"?>
<!DOCTYPE svg PUBLIC "-//W3C//DTD SVG 1.1//EN"
  "http://www.w3.org/Graphics/SVG/1.1/DTD/svg11.dtd">
<svg xmlns:xlink="http://www.w3.org/1999/xlink" width="710.119488pt" height="710.94975pt" viewBox="0 0 710.119488 710.94975" xmlns="http://www.w3.org/2000/svg" version="1.1">
 <metadata>
  <rdf:RDF xmlns:dc="http://purl.org/dc/elements/1.1/" xmlns:cc="http://creativecommons.org/ns#" xmlns:rdf="http://www.w3.org/1999/02/22-rdf-syntax-ns#">
   <cc:Work>
    <dc:type rdf:resource="http://purl.org/dc/dcmitype/StillImage"/>
    <dc:date>2025-02-06T00:35:40.507835</dc:date>
    <dc:format>image/svg+xml</dc:format>
    <dc:creator>
     <cc:Agent>
      <dc:title>Matplotlib v3.9.3, https://matplotlib.org/</dc:title>
     </cc:Agent>
    </dc:creator>
   </cc:Work>
  </rdf:RDF>
 </metadata>
 <defs>
  <style type="text/css">*{stroke-linejoin: round; stroke-linecap: butt}</style>
 </defs>
 <g id="figure_1">
  <g id="patch_1">
   <path d="M 0 710.94975 
L 710.119488 710.94975 
L 710.119488 0 
L 0 0 
z
" style="fill: #ffffff"/>
  </g>
  <g id="axes_1">
   <g id="patch_2">
    <path d="M 87 640.3185 
L 702.919488 640.3185 
L 702.919488 39.1875 
L 87 39.1875 
z
" style="fill: #ffffff"/>
   </g>
   <g id="matplotlib.axis_1">
    <g id="xtick_1">
     <g id="line2d_1">
      <defs>
       <path id="m7431b60f5e" d="M 0 0 
L 0 -3.5 
" style="stroke: #000000; stroke-width: 0.8"/>
      </defs>
      <g>
       <use xlink:href="#m7431b60f5e" x="114.884321" y="640.3185" style="stroke: #000000; stroke-width: 0.8"/>
      </g>
     </g>
     <g id="text_1">
      <!-- 0 -->
      <g transform="translate(106.542915 665.559125) scale(0.3 -0.3)">
       <defs>
        <path id="LiberationSans-30" d="M 3309 2203 
Q 3309 1100 2920 518 
Q 2531 -63 1772 -63 
Q 1013 -63 631 515 
Q 250 1094 250 2203 
Q 250 3338 620 3903 
Q 991 4469 1791 4469 
Q 2569 4469 2939 3897 
Q 3309 3325 3309 2203 
z
M 2738 2203 
Q 2738 3156 2517 3584 
Q 2297 4013 1791 4013 
Q 1272 4013 1045 3591 
Q 819 3169 819 2203 
Q 819 1266 1048 831 
Q 1278 397 1778 397 
Q 2275 397 2506 840 
Q 2738 1284 2738 2203 
z
" transform="scale(0.015625)"/>
       </defs>
       <use xlink:href="#LiberationSans-30"/>
      </g>
     </g>
    </g>
    <g id="xtick_2">
     <g id="line2d_2">
      <g>
       <use xlink:href="#m7431b60f5e" x="226.903289" y="640.3185" style="stroke: #000000; stroke-width: 0.8"/>
      </g>
     </g>
     <g id="text_2">
      <!-- 2 -->
      <g transform="translate(218.561882 665.559125) scale(0.3 -0.3)">
       <defs>
        <path id="LiberationSans-32" d="M 322 0 
L 322 397 
Q 481 763 711 1042 
Q 941 1322 1194 1548 
Q 1447 1775 1695 1969 
Q 1944 2163 2144 2356 
Q 2344 2550 2467 2762 
Q 2591 2975 2591 3244 
Q 2591 3606 2378 3806 
Q 2166 4006 1788 4006 
Q 1428 4006 1195 3811 
Q 963 3616 922 3263 
L 347 3316 
Q 409 3844 795 4156 
Q 1181 4469 1788 4469 
Q 2453 4469 2811 4155 
Q 3169 3841 3169 3263 
Q 3169 3006 3051 2753 
Q 2934 2500 2703 2247 
Q 2472 1994 1819 1463 
Q 1459 1169 1246 933 
Q 1034 697 941 478 
L 3238 478 
L 3238 0 
L 322 0 
z
" transform="scale(0.015625)"/>
       </defs>
       <use xlink:href="#LiberationSans-32"/>
      </g>
     </g>
    </g>
    <g id="xtick_3">
     <g id="line2d_3">
      <g>
       <use xlink:href="#m7431b60f5e" x="338.922256" y="640.3185" style="stroke: #000000; stroke-width: 0.8"/>
      </g>
     </g>
     <g id="text_3">
      <!-- 4 -->
      <g transform="translate(330.58085 665.559125) scale(0.3 -0.3)">
       <defs>
        <path id="LiberationSans-34" d="M 2753 997 
L 2753 0 
L 2222 0 
L 2222 997 
L 147 997 
L 147 1434 
L 2163 4403 
L 2753 4403 
L 2753 1441 
L 3372 1441 
L 3372 997 
L 2753 997 
z
M 2222 3769 
Q 2216 3750 2134 3603 
Q 2053 3456 2013 3397 
L 884 1734 
L 716 1503 
L 666 1441 
L 2222 1441 
L 2222 3769 
z
" transform="scale(0.015625)"/>
       </defs>
       <use xlink:href="#LiberationSans-34"/>
      </g>
     </g>
    </g>
    <g id="xtick_4">
     <g id="line2d_4">
      <g>
       <use xlink:href="#m7431b60f5e" x="450.941223" y="640.3185" style="stroke: #000000; stroke-width: 0.8"/>
      </g>
     </g>
     <g id="text_4">
      <!-- 6 -->
      <g transform="translate(442.599817 665.559125) scale(0.3 -0.3)">
       <defs>
        <path id="LiberationSans-36" d="M 3278 1441 
Q 3278 744 2900 340 
Q 2522 -63 1856 -63 
Q 1113 -63 719 490 
Q 325 1044 325 2100 
Q 325 3244 734 3856 
Q 1144 4469 1900 4469 
Q 2897 4469 3156 3572 
L 2619 3475 
Q 2453 4013 1894 4013 
Q 1413 4013 1148 3564 
Q 884 3116 884 2266 
Q 1038 2550 1316 2698 
Q 1594 2847 1953 2847 
Q 2563 2847 2920 2465 
Q 3278 2084 3278 1441 
z
M 2706 1416 
Q 2706 1894 2472 2153 
Q 2238 2413 1819 2413 
Q 1425 2413 1183 2183 
Q 941 1953 941 1550 
Q 941 1041 1192 716 
Q 1444 391 1838 391 
Q 2244 391 2475 664 
Q 2706 938 2706 1416 
z
" transform="scale(0.015625)"/>
       </defs>
       <use xlink:href="#LiberationSans-36"/>
      </g>
     </g>
    </g>
    <g id="xtick_5">
     <g id="line2d_5">
      <g>
       <use xlink:href="#m7431b60f5e" x="562.96019" y="640.3185" style="stroke: #000000; stroke-width: 0.8"/>
      </g>
     </g>
     <g id="text_5">
      <!-- 8 -->
      <g transform="translate(554.618784 665.559125) scale(0.3 -0.3)">
       <defs>
        <path id="LiberationSans-38" d="M 3281 1228 
Q 3281 619 2893 278 
Q 2506 -63 1781 -63 
Q 1075 -63 676 271 
Q 278 606 278 1222 
Q 278 1653 525 1947 
Q 772 2241 1156 2303 
L 1156 2316 
Q 797 2400 589 2681 
Q 381 2963 381 3341 
Q 381 3844 757 4156 
Q 1134 4469 1769 4469 
Q 2419 4469 2795 4162 
Q 3172 3856 3172 3334 
Q 3172 2956 2962 2675 
Q 2753 2394 2391 2322 
L 2391 2309 
Q 2813 2241 3047 1952 
Q 3281 1663 3281 1228 
z
M 2588 3303 
Q 2588 4050 1769 4050 
Q 1372 4050 1164 3862 
Q 956 3675 956 3303 
Q 956 2925 1170 2726 
Q 1384 2528 1775 2528 
Q 2172 2528 2380 2711 
Q 2588 2894 2588 3303 
z
M 2697 1281 
Q 2697 1691 2453 1898 
Q 2209 2106 1769 2106 
Q 1341 2106 1100 1882 
Q 859 1659 859 1269 
Q 859 359 1788 359 
Q 2247 359 2472 579 
Q 2697 800 2697 1281 
z
" transform="scale(0.015625)"/>
       </defs>
       <use xlink:href="#LiberationSans-38"/>
      </g>
     </g>
    </g>
    <g id="xtick_6">
     <g id="line2d_6">
      <g>
       <use xlink:href="#m7431b60f5e" x="674.979157" y="640.3185" style="stroke: #000000; stroke-width: 0.8"/>
      </g>
     </g>
     <g id="text_6">
      <!-- 10 -->
      <g transform="translate(658.296345 665.559125) scale(0.3 -0.3)">
       <defs>
        <path id="LiberationSans-31" d="M 488 0 
L 488 478 
L 1609 478 
L 1609 3866 
L 616 3156 
L 616 3688 
L 1656 4403 
L 2175 4403 
L 2175 478 
L 3247 478 
L 3247 0 
L 488 0 
z
" transform="scale(0.015625)"/>
       </defs>
       <use xlink:href="#LiberationSans-31"/>
       <use xlink:href="#LiberationSans-30" x="55.615234"/>
      </g>
     </g>
    </g>
    <g id="xtick_7">
     <g id="line2d_7">
      <defs>
       <path id="mabd924dda4" d="M 0 0 
L 0 -2 
" style="stroke: #000000; stroke-width: 0.6"/>
      </defs>
      <g>
       <use xlink:href="#mabd924dda4" x="142.889063" y="640.3185" style="stroke: #000000; stroke-width: 0.6"/>
      </g>
     </g>
    </g>
    <g id="xtick_8">
     <g id="line2d_8">
      <g>
       <use xlink:href="#mabd924dda4" x="170.893805" y="640.3185" style="stroke: #000000; stroke-width: 0.6"/>
      </g>
     </g>
    </g>
    <g id="xtick_9">
     <g id="line2d_9">
      <g>
       <use xlink:href="#mabd924dda4" x="198.898547" y="640.3185" style="stroke: #000000; stroke-width: 0.6"/>
      </g>
     </g>
    </g>
    <g id="xtick_10">
     <g id="line2d_10">
      <g>
       <use xlink:href="#mabd924dda4" x="254.90803" y="640.3185" style="stroke: #000000; stroke-width: 0.6"/>
      </g>
     </g>
    </g>
    <g id="xtick_11">
     <g id="line2d_11">
      <g>
       <use xlink:href="#mabd924dda4" x="282.912772" y="640.3185" style="stroke: #000000; stroke-width: 0.6"/>
      </g>
     </g>
    </g>
    <g id="xtick_12">
     <g id="line2d_12">
      <g>
       <use xlink:href="#mabd924dda4" x="310.917514" y="640.3185" style="stroke: #000000; stroke-width: 0.6"/>
      </g>
     </g>
    </g>
    <g id="xtick_13">
     <g id="line2d_13">
      <g>
       <use xlink:href="#mabd924dda4" x="366.926998" y="640.3185" style="stroke: #000000; stroke-width: 0.6"/>
      </g>
     </g>
    </g>
    <g id="xtick_14">
     <g id="line2d_14">
      <g>
       <use xlink:href="#mabd924dda4" x="394.931739" y="640.3185" style="stroke: #000000; stroke-width: 0.6"/>
      </g>
     </g>
    </g>
    <g id="xtick_15">
     <g id="line2d_15">
      <g>
       <use xlink:href="#mabd924dda4" x="422.936481" y="640.3185" style="stroke: #000000; stroke-width: 0.6"/>
      </g>
     </g>
    </g>
    <g id="xtick_16">
     <g id="line2d_16">
      <g>
       <use xlink:href="#mabd924dda4" x="478.945965" y="640.3185" style="stroke: #000000; stroke-width: 0.6"/>
      </g>
     </g>
    </g>
    <g id="xtick_17">
     <g id="line2d_17">
      <g>
       <use xlink:href="#mabd924dda4" x="506.950707" y="640.3185" style="stroke: #000000; stroke-width: 0.6"/>
      </g>
     </g>
    </g>
    <g id="xtick_18">
     <g id="line2d_18">
      <g>
       <use xlink:href="#mabd924dda4" x="534.955448" y="640.3185" style="stroke: #000000; stroke-width: 0.6"/>
      </g>
     </g>
    </g>
    <g id="xtick_19">
     <g id="line2d_19">
      <g>
       <use xlink:href="#mabd924dda4" x="590.964932" y="640.3185" style="stroke: #000000; stroke-width: 0.6"/>
      </g>
     </g>
    </g>
    <g id="xtick_20">
     <g id="line2d_20">
      <g>
       <use xlink:href="#mabd924dda4" x="618.969674" y="640.3185" style="stroke: #000000; stroke-width: 0.6"/>
      </g>
     </g>
    </g>
    <g id="xtick_21">
     <g id="line2d_21">
      <g>
       <use xlink:href="#mabd924dda4" x="646.974416" y="640.3185" style="stroke: #000000; stroke-width: 0.6"/>
      </g>
     </g>
    </g>
    <g id="text_7">
     <!-- Time ps -->
     <g transform="translate(342.183182 697.52475) scale(0.3 -0.3)">
      <defs>
       <path id="LiberationSans-54" d="M 2250 3916 
L 2250 0 
L 1656 0 
L 1656 3916 
L 144 3916 
L 144 4403 
L 3763 4403 
L 3763 3916 
L 2250 3916 
z
" transform="scale(0.015625)"/>
       <path id="LiberationSans-69" d="M 428 4100 
L 428 4638 
L 991 4638 
L 991 4100 
L 428 4100 
z
M 428 0 
L 428 3381 
L 991 3381 
L 991 0 
L 428 0 
z
" transform="scale(0.015625)"/>
       <path id="LiberationSans-6d" d="M 2400 0 
L 2400 2144 
Q 2400 2634 2265 2821 
Q 2131 3009 1781 3009 
Q 1422 3009 1212 2734 
Q 1003 2459 1003 1959 
L 1003 0 
L 444 0 
L 444 2659 
Q 444 3250 425 3381 
L 956 3381 
Q 959 3366 962 3297 
Q 966 3228 970 3139 
Q 975 3050 981 2803 
L 991 2803 
Q 1172 3163 1406 3303 
Q 1641 3444 1978 3444 
Q 2363 3444 2586 3291 
Q 2809 3138 2897 2803 
L 2906 2803 
Q 3081 3144 3329 3294 
Q 3578 3444 3931 3444 
Q 4444 3444 4676 3166 
Q 4909 2888 4909 2253 
L 4909 0 
L 4353 0 
L 4353 2144 
Q 4353 2634 4218 2821 
Q 4084 3009 3734 3009 
Q 3366 3009 3161 2736 
Q 2956 2463 2956 1959 
L 2956 0 
L 2400 0 
z
" transform="scale(0.015625)"/>
       <path id="LiberationSans-65" d="M 863 1572 
Q 863 991 1103 675 
Q 1344 359 1806 359 
Q 2172 359 2392 506 
Q 2613 653 2691 878 
L 3184 738 
Q 2881 -63 1806 -63 
Q 1056 -63 664 384 
Q 272 831 272 1713 
Q 272 2550 664 2997 
Q 1056 3444 1784 3444 
Q 3275 3444 3275 1647 
L 3275 1572 
L 863 1572 
z
M 2694 2003 
Q 2647 2538 2422 2783 
Q 2197 3028 1775 3028 
Q 1366 3028 1127 2754 
Q 888 2481 869 2003 
L 2694 2003 
z
" transform="scale(0.015625)"/>
       <path id="LiberationSans-20" transform="scale(0.015625)"/>
       <path id="LiberationSans-70" d="M 3291 1706 
Q 3291 -63 2047 -63 
Q 1266 -63 997 525 
L 981 525 
Q 994 500 994 -6 
L 994 -1328 
L 431 -1328 
L 431 2691 
Q 431 3213 413 3381 
L 956 3381 
Q 959 3369 965 3292 
Q 972 3216 980 3056 
Q 988 2897 988 2838 
L 1000 2838 
Q 1150 3150 1397 3295 
Q 1644 3441 2047 3441 
Q 2672 3441 2981 3022 
Q 3291 2603 3291 1706 
z
M 2700 1694 
Q 2700 2400 2509 2703 
Q 2319 3006 1903 3006 
Q 1569 3006 1380 2865 
Q 1191 2725 1092 2426 
Q 994 2128 994 1650 
Q 994 984 1206 668 
Q 1419 353 1897 353 
Q 2316 353 2508 661 
Q 2700 969 2700 1694 
z
" transform="scale(0.015625)"/>
       <path id="LiberationSans-73" d="M 2969 934 
Q 2969 456 2608 196 
Q 2247 -63 1597 -63 
Q 966 -63 623 145 
Q 281 353 178 794 
L 675 891 
Q 747 619 972 492 
Q 1197 366 1597 366 
Q 2025 366 2223 497 
Q 2422 628 2422 891 
Q 2422 1091 2284 1216 
Q 2147 1341 1841 1422 
L 1438 1528 
Q 953 1653 748 1773 
Q 544 1894 428 2066 
Q 313 2238 313 2488 
Q 313 2950 642 3192 
Q 972 3434 1603 3434 
Q 2163 3434 2492 3237 
Q 2822 3041 2909 2606 
L 2403 2544 
Q 2356 2769 2151 2889 
Q 1947 3009 1603 3009 
Q 1222 3009 1040 2893 
Q 859 2778 859 2544 
Q 859 2400 934 2306 
Q 1009 2213 1156 2147 
Q 1303 2081 1775 1966 
Q 2222 1853 2419 1758 
Q 2616 1663 2730 1547 
Q 2844 1431 2906 1279 
Q 2969 1128 2969 934 
z
" transform="scale(0.015625)"/>
      </defs>
      <use xlink:href="#LiberationSans-54"/>
      <use xlink:href="#LiberationSans-69" x="57.333984"/>
      <use xlink:href="#LiberationSans-6d" x="79.550781"/>
      <use xlink:href="#LiberationSans-65" x="162.851562"/>
      <use xlink:href="#LiberationSans-20" x="218.466797"/>
      <use xlink:href="#LiberationSans-70" x="246.25"/>
      <use xlink:href="#LiberationSans-73" x="301.865234"/>
     </g>
    </g>
   </g>
   <g id="matplotlib.axis_2">
    <g id="ytick_1">
     <g id="line2d_22">
      <defs>
       <path id="m8fb0267a46" d="M 0 0 
L 3.5 0 
" style="stroke: #000000; stroke-width: 0.8"/>
      </defs>
      <g>
       <use xlink:href="#m8fb0267a46" x="87" y="628.389994" style="stroke: #000000; stroke-width: 0.8"/>
      </g>
     </g>
     <g id="text_8">
      <!-- $\mathdefault{0.0}$ -->
      <g transform="translate(41.5 639.260307) scale(0.3 -0.3)">
       <defs>
        <path id="LiberationSans-2e" d="M 584 0 
L 584 684 
L 1194 684 
L 1194 0 
L 584 0 
z
" transform="scale(0.015625)"/>
       </defs>
       <use xlink:href="#LiberationSans-30" transform="translate(0 0.171875)"/>
       <use xlink:href="#LiberationSans-2e" transform="translate(55.615234 0.171875)"/>
       <use xlink:href="#LiberationSans-30" transform="translate(83.398438 0.171875)"/>
      </g>
     </g>
    </g>
    <g id="ytick_2">
     <g id="line2d_23">
      <g>
       <use xlink:href="#m8fb0267a46" x="87" y="558.271405" style="stroke: #000000; stroke-width: 0.8"/>
      </g>
     </g>
     <g id="text_9">
      <!-- $\mathdefault{0.2}$ -->
      <g transform="translate(41.5 569.141717) scale(0.3 -0.3)">
       <use xlink:href="#LiberationSans-30" transform="translate(0 0.171875)"/>
       <use xlink:href="#LiberationSans-2e" transform="translate(55.615234 0.171875)"/>
       <use xlink:href="#LiberationSans-32" transform="translate(83.398438 0.171875)"/>
      </g>
     </g>
    </g>
    <g id="ytick_3">
     <g id="line2d_24">
      <g>
       <use xlink:href="#m8fb0267a46" x="87" y="488.152816" style="stroke: #000000; stroke-width: 0.8"/>
      </g>
     </g>
     <g id="text_10">
      <!-- $\mathdefault{0.4}$ -->
      <g transform="translate(41.5 499.023128) scale(0.3 -0.3)">
       <use xlink:href="#LiberationSans-30" transform="translate(0 0.171875)"/>
       <use xlink:href="#LiberationSans-2e" transform="translate(55.615234 0.171875)"/>
       <use xlink:href="#LiberationSans-34" transform="translate(83.398438 0.171875)"/>
      </g>
     </g>
    </g>
    <g id="ytick_4">
     <g id="line2d_25">
      <g>
       <use xlink:href="#m8fb0267a46" x="87" y="418.034226" style="stroke: #000000; stroke-width: 0.8"/>
      </g>
     </g>
     <g id="text_11">
      <!-- $\mathdefault{0.6}$ -->
      <g transform="translate(41.5 428.904539) scale(0.3 -0.3)">
       <use xlink:href="#LiberationSans-30" transform="translate(0 0.171875)"/>
       <use xlink:href="#LiberationSans-2e" transform="translate(55.615234 0.171875)"/>
       <use xlink:href="#LiberationSans-36" transform="translate(83.398438 0.171875)"/>
      </g>
     </g>
    </g>
    <g id="ytick_5">
     <g id="line2d_26">
      <g>
       <use xlink:href="#m8fb0267a46" x="87" y="347.915637" style="stroke: #000000; stroke-width: 0.8"/>
      </g>
     </g>
     <g id="text_12">
      <!-- $\mathdefault{0.8}$ -->
      <g transform="translate(41.5 358.785949) scale(0.3 -0.3)">
       <use xlink:href="#LiberationSans-30" transform="translate(0 0.171875)"/>
       <use xlink:href="#LiberationSans-2e" transform="translate(55.615234 0.171875)"/>
       <use xlink:href="#LiberationSans-38" transform="translate(83.398438 0.171875)"/>
      </g>
     </g>
    </g>
    <g id="ytick_6">
     <g id="line2d_27">
      <g>
       <use xlink:href="#m8fb0267a46" x="87" y="277.797047" style="stroke: #000000; stroke-width: 0.8"/>
      </g>
     </g>
     <g id="text_13">
      <!-- $\mathdefault{1.0}$ -->
      <g transform="translate(41.5 288.66736) scale(0.3 -0.3)">
       <use xlink:href="#LiberationSans-31" transform="translate(0 0.171875)"/>
       <use xlink:href="#LiberationSans-2e" transform="translate(55.615234 0.171875)"/>
       <use xlink:href="#LiberationSans-30" transform="translate(83.398438 0.171875)"/>
      </g>
     </g>
    </g>
    <g id="ytick_7">
     <g id="line2d_28">
      <g>
       <use xlink:href="#m8fb0267a46" x="87" y="207.678458" style="stroke: #000000; stroke-width: 0.8"/>
      </g>
     </g>
     <g id="text_14">
      <!-- $\mathdefault{1.2}$ -->
      <g transform="translate(41.5 218.548771) scale(0.3 -0.3)">
       <use xlink:href="#LiberationSans-31" transform="translate(0 0.171875)"/>
       <use xlink:href="#LiberationSans-2e" transform="translate(55.615234 0.171875)"/>
       <use xlink:href="#LiberationSans-32" transform="translate(83.398438 0.171875)"/>
      </g>
     </g>
    </g>
    <g id="ytick_8">
     <g id="line2d_29">
      <g>
       <use xlink:href="#m8fb0267a46" x="87" y="137.559869" style="stroke: #000000; stroke-width: 0.8"/>
      </g>
     </g>
     <g id="text_15">
      <!-- $\mathdefault{1.4}$ -->
      <g transform="translate(41.5 148.430181) scale(0.3 -0.3)">
       <use xlink:href="#LiberationSans-31" transform="translate(0 0.203125)"/>
       <use xlink:href="#LiberationSans-2e" transform="translate(55.615234 0.203125)"/>
       <use xlink:href="#LiberationSans-34" transform="translate(83.398438 0.203125)"/>
      </g>
     </g>
    </g>
    <g id="ytick_9">
     <g id="line2d_30">
      <g>
       <use xlink:href="#m8fb0267a46" x="87" y="67.441279" style="stroke: #000000; stroke-width: 0.8"/>
      </g>
     </g>
     <g id="text_16">
      <!-- $\mathdefault{1.6}$ -->
      <g transform="translate(41.5 78.311592) scale(0.3 -0.3)">
       <use xlink:href="#LiberationSans-31" transform="translate(0 0.171875)"/>
       <use xlink:href="#LiberationSans-2e" transform="translate(55.615234 0.171875)"/>
       <use xlink:href="#LiberationSans-36" transform="translate(83.398438 0.171875)"/>
      </g>
     </g>
    </g>
    <g id="ytick_10">
     <g id="line2d_31">
      <defs>
       <path id="mc2d552879c" d="M 0 0 
L 2 0 
" style="stroke: #000000; stroke-width: 0.6"/>
      </defs>
      <g>
       <use xlink:href="#mc2d552879c" x="87" y="610.860347" style="stroke: #000000; stroke-width: 0.6"/>
      </g>
     </g>
    </g>
    <g id="ytick_11">
     <g id="line2d_32">
      <g>
       <use xlink:href="#mc2d552879c" x="87" y="593.3307" style="stroke: #000000; stroke-width: 0.6"/>
      </g>
     </g>
    </g>
    <g id="ytick_12">
     <g id="line2d_33">
      <g>
       <use xlink:href="#mc2d552879c" x="87" y="575.801052" style="stroke: #000000; stroke-width: 0.6"/>
      </g>
     </g>
    </g>
    <g id="ytick_13">
     <g id="line2d_34">
      <g>
       <use xlink:href="#mc2d552879c" x="87" y="540.741758" style="stroke: #000000; stroke-width: 0.6"/>
      </g>
     </g>
    </g>
    <g id="ytick_14">
     <g id="line2d_35">
      <g>
       <use xlink:href="#mc2d552879c" x="87" y="523.21211" style="stroke: #000000; stroke-width: 0.6"/>
      </g>
     </g>
    </g>
    <g id="ytick_15">
     <g id="line2d_36">
      <g>
       <use xlink:href="#mc2d552879c" x="87" y="505.682463" style="stroke: #000000; stroke-width: 0.6"/>
      </g>
     </g>
    </g>
    <g id="ytick_16">
     <g id="line2d_37">
      <g>
       <use xlink:href="#mc2d552879c" x="87" y="470.623168" style="stroke: #000000; stroke-width: 0.6"/>
      </g>
     </g>
    </g>
    <g id="ytick_17">
     <g id="line2d_38">
      <g>
       <use xlink:href="#mc2d552879c" x="87" y="453.093521" style="stroke: #000000; stroke-width: 0.6"/>
      </g>
     </g>
    </g>
    <g id="ytick_18">
     <g id="line2d_39">
      <g>
       <use xlink:href="#mc2d552879c" x="87" y="435.563874" style="stroke: #000000; stroke-width: 0.6"/>
      </g>
     </g>
    </g>
    <g id="ytick_19">
     <g id="line2d_40">
      <g>
       <use xlink:href="#mc2d552879c" x="87" y="400.504579" style="stroke: #000000; stroke-width: 0.6"/>
      </g>
     </g>
    </g>
    <g id="ytick_20">
     <g id="line2d_41">
      <g>
       <use xlink:href="#mc2d552879c" x="87" y="382.974932" style="stroke: #000000; stroke-width: 0.6"/>
      </g>
     </g>
    </g>
    <g id="ytick_21">
     <g id="line2d_42">
      <g>
       <use xlink:href="#mc2d552879c" x="87" y="365.445284" style="stroke: #000000; stroke-width: 0.6"/>
      </g>
     </g>
    </g>
    <g id="ytick_22">
     <g id="line2d_43">
      <g>
       <use xlink:href="#mc2d552879c" x="87" y="330.38599" style="stroke: #000000; stroke-width: 0.6"/>
      </g>
     </g>
    </g>
    <g id="ytick_23">
     <g id="line2d_44">
      <g>
       <use xlink:href="#mc2d552879c" x="87" y="312.856342" style="stroke: #000000; stroke-width: 0.6"/>
      </g>
     </g>
    </g>
    <g id="ytick_24">
     <g id="line2d_45">
      <g>
       <use xlink:href="#mc2d552879c" x="87" y="295.326695" style="stroke: #000000; stroke-width: 0.6"/>
      </g>
     </g>
    </g>
    <g id="ytick_25">
     <g id="line2d_46">
      <g>
       <use xlink:href="#mc2d552879c" x="87" y="260.2674" style="stroke: #000000; stroke-width: 0.6"/>
      </g>
     </g>
    </g>
    <g id="ytick_26">
     <g id="line2d_47">
      <g>
       <use xlink:href="#mc2d552879c" x="87" y="242.737753" style="stroke: #000000; stroke-width: 0.6"/>
      </g>
     </g>
    </g>
    <g id="ytick_27">
     <g id="line2d_48">
      <g>
       <use xlink:href="#mc2d552879c" x="87" y="225.208105" style="stroke: #000000; stroke-width: 0.6"/>
      </g>
     </g>
    </g>
    <g id="ytick_28">
     <g id="line2d_49">
      <g>
       <use xlink:href="#mc2d552879c" x="87" y="190.148811" style="stroke: #000000; stroke-width: 0.6"/>
      </g>
     </g>
    </g>
    <g id="ytick_29">
     <g id="line2d_50">
      <g>
       <use xlink:href="#mc2d552879c" x="87" y="172.619163" style="stroke: #000000; stroke-width: 0.6"/>
      </g>
     </g>
    </g>
    <g id="ytick_30">
     <g id="line2d_51">
      <g>
       <use xlink:href="#mc2d552879c" x="87" y="155.089516" style="stroke: #000000; stroke-width: 0.6"/>
      </g>
     </g>
    </g>
    <g id="ytick_31">
     <g id="line2d_52">
      <g>
       <use xlink:href="#mc2d552879c" x="87" y="120.030221" style="stroke: #000000; stroke-width: 0.6"/>
      </g>
     </g>
    </g>
    <g id="ytick_32">
     <g id="line2d_53">
      <g>
       <use xlink:href="#mc2d552879c" x="87" y="102.500574" style="stroke: #000000; stroke-width: 0.6"/>
      </g>
     </g>
    </g>
    <g id="ytick_33">
     <g id="line2d_54">
      <g>
       <use xlink:href="#mc2d552879c" x="87" y="84.970927" style="stroke: #000000; stroke-width: 0.6"/>
      </g>
     </g>
    </g>
    <g id="ytick_34">
     <g id="line2d_55">
      <g>
       <use xlink:href="#mc2d552879c" x="87" y="49.911632" style="stroke: #000000; stroke-width: 0.6"/>
      </g>
     </g>
    </g>
    <g id="text_17">
     <!-- ITC $\mathrm{W} / (\mathrm{K} \cdot \mathrm{m}^2)$ -->
     <g transform="translate(31.275 433.803) rotate(-90) scale(0.3 -0.3)">
      <defs>
       <path id="LiberationSans-49" d="M 591 0 
L 591 4403 
L 1188 4403 
L 1188 0 
L 591 0 
z
" transform="scale(0.015625)"/>
       <path id="LiberationSans-43" d="M 2475 3981 
Q 1744 3981 1337 3511 
Q 931 3041 931 2222 
Q 931 1413 1354 920 
Q 1778 428 2500 428 
Q 3425 428 3891 1344 
L 4378 1100 
Q 4106 531 3614 234 
Q 3122 -63 2472 -63 
Q 1806 -63 1320 214 
Q 834 491 579 1005 
Q 325 1519 325 2222 
Q 325 3275 894 3872 
Q 1463 4469 2469 4469 
Q 3172 4469 3644 4194 
Q 4116 3919 4338 3378 
L 3772 3191 
Q 3619 3575 3280 3778 
Q 2941 3981 2475 3981 
z
" transform="scale(0.015625)"/>
       <path id="STIXGeneral-Regular-57" d="M 5965 4237 
L 5965 4115 
Q 5709 4064 5616 3990 
Q 5523 3917 5434 3667 
Q 4704 1709 4128 -70 
L 4032 -70 
Q 3642 1011 3008 2637 
L 2022 -70 
L 1926 -70 
Q 1709 576 1277 1753 
Q 845 2931 698 3347 
Q 538 3808 406 3958 
Q 275 4109 32 4115 
L 32 4237 
L 1594 4237 
L 1594 4115 
Q 1357 4109 1270 4064 
Q 1184 4019 1184 3917 
Q 1184 3808 1254 3616 
L 2176 1210 
L 2842 3021 
L 2662 3501 
Q 2509 3917 2400 4013 
Q 2291 4109 2010 4115 
L 2010 4237 
L 3706 4237 
L 3706 4115 
Q 3213 4102 3213 3891 
Q 3213 3808 3322 3520 
L 4237 1190 
L 5043 3360 
Q 5152 3667 5152 3853 
Q 5152 4109 4704 4115 
L 4704 4237 
L 5965 4237 
z
" transform="scale(0.015625)"/>
       <path id="STIXGeneral-Regular-2f" d="M 1837 4326 
L 378 -90 
L -58 -90 
L 1408 4326 
L 1837 4326 
z
" transform="scale(0.015625)"/>
       <path id="STIXGeneral-Regular-28" d="M 1946 -1030 
L 1869 -1133 
Q 1126 -710 716 32 
Q 307 774 307 1613 
Q 307 3386 1888 4326 
L 1946 4224 
Q 1293 3667 1075 3126 
Q 858 2586 858 1632 
Q 858 685 1082 96 
Q 1306 -493 1946 -1030 
z
" transform="scale(0.015625)"/>
       <path id="STIXGeneral-Regular-4b" d="M 4627 0 
L 2688 0 
L 2688 122 
L 2861 128 
Q 3130 134 3130 282 
Q 3130 397 2922 643 
Q 2714 890 2253 1370 
L 1613 2029 
L 1446 1894 
L 1446 710 
Q 1446 352 1548 253 
Q 1651 154 2016 122 
L 2016 0 
L 211 0 
L 211 122 
Q 589 141 691 262 
Q 794 384 794 800 
L 794 3514 
Q 794 3872 691 3981 
Q 589 4090 218 4115 
L 218 4237 
L 2022 4237 
L 2022 4115 
Q 1632 4090 1539 3987 
Q 1446 3885 1446 3507 
L 1446 2227 
L 2586 3277 
Q 2861 3533 2973 3667 
Q 3085 3802 3085 3910 
Q 3085 4013 3030 4057 
Q 2976 4102 2822 4109 
L 2662 4115 
L 2662 4237 
L 4320 4237 
L 4320 4115 
Q 3994 4090 3824 4003 
Q 3654 3917 3322 3597 
L 2131 2458 
L 3629 819 
Q 4026 384 4214 253 
Q 4403 122 4627 122 
L 4627 0 
z
" transform="scale(0.015625)"/>
       <path id="STIXGeneral-Regular-22c5" d="M 1187 1888 
Q 1299 1773 1299 1619 
Q 1299 1466 1187 1350 
Q 1075 1235 921 1235 
Q 768 1235 649 1353 
Q 531 1472 531 1619 
Q 531 1766 649 1884 
Q 768 2003 921 2003 
Q 1075 2003 1187 1888 
z
" transform="scale(0.015625)"/>
       <path id="STIXGeneral-Regular-6d" d="M 4960 0 
L 3565 0 
L 3565 96 
Q 3834 122 3907 208 
Q 3981 294 3981 576 
L 3981 1894 
Q 3981 2278 3869 2444 
Q 3757 2611 3488 2611 
Q 3264 2611 3107 2521 
Q 2950 2432 2803 2221 
L 2803 608 
Q 2803 301 2896 201 
Q 2989 102 3264 96 
L 3264 0 
L 1830 0 
L 1830 96 
Q 2112 115 2189 188 
Q 2266 262 2266 550 
L 2266 1901 
Q 2266 2611 1850 2611 
Q 1670 2611 1468 2531 
Q 1267 2451 1171 2336 
Q 1088 2240 1088 2227 
L 1088 448 
Q 1088 243 1177 176 
Q 1267 109 1523 96 
L 1523 0 
L 102 0 
L 102 96 
Q 371 102 460 195 
Q 550 288 550 563 
L 550 2150 
Q 550 2387 499 2480 
Q 448 2573 326 2573 
Q 230 2573 122 2547 
L 122 2656 
Q 557 2778 1011 2944 
L 1062 2925 
L 1062 2451 
L 1075 2451 
Q 1363 2752 1584 2848 
Q 1805 2944 2054 2944 
Q 2560 2944 2733 2406 
Q 3232 2944 3776 2944 
Q 4518 2944 4518 1792 
L 4518 493 
Q 4518 282 4582 202 
Q 4646 122 4794 109 
L 4960 96 
L 4960 0 
z
" transform="scale(0.015625)"/>
       <path id="STIXGeneral-Regular-32" d="M 3034 877 
L 2688 0 
L 186 0 
L 186 77 
L 1325 1286 
Q 1773 1754 1965 2144 
Q 2157 2534 2157 2950 
Q 2157 3379 1920 3616 
Q 1683 3853 1267 3853 
Q 922 3853 720 3673 
Q 518 3494 326 3021 
L 192 3053 
Q 301 3648 630 3987 
Q 960 4326 1523 4326 
Q 2054 4326 2380 4006 
Q 2707 3686 2707 3200 
Q 2707 2477 1888 1613 
L 832 486 
L 2330 486 
Q 2541 486 2665 569 
Q 2790 653 2944 915 
L 3034 877 
z
" transform="scale(0.015625)"/>
       <path id="STIXGeneral-Regular-29" d="M 186 4224 
L 262 4326 
Q 992 3891 1408 3148 
Q 1824 2406 1824 1581 
Q 1824 -166 243 -1133 
L 186 -1030 
Q 845 -486 1059 54 
Q 1274 595 1274 1562 
Q 1274 2534 1059 3120 
Q 845 3706 186 4224 
z
" transform="scale(0.015625)"/>
      </defs>
      <use xlink:href="#LiberationSans-49" transform="translate(0 0.409375)"/>
      <use xlink:href="#LiberationSans-54" transform="translate(27.783203 0.409375)"/>
      <use xlink:href="#LiberationSans-43" transform="translate(88.867188 0.409375)"/>
      <use xlink:href="#LiberationSans-20" transform="translate(161.083984 0.409375)"/>
      <use xlink:href="#STIXGeneral-Regular-57" transform="translate(188.867188 0.409375)"/>
      <use xlink:href="#STIXGeneral-Regular-2f" transform="translate(283.267181 0.409375)"/>
      <use xlink:href="#STIXGeneral-Regular-28" transform="translate(311.067169 0.409375)"/>
      <use xlink:href="#STIXGeneral-Regular-4b" transform="translate(344.367157 0.409375)"/>
      <use xlink:href="#STIXGeneral-Regular-22c5" transform="translate(431.007135 0.409375)"/>
      <use xlink:href="#STIXGeneral-Regular-6d" transform="translate(474.047122 0.409375)"/>
      <use xlink:href="#STIXGeneral-Regular-32" transform="translate(553.390391 35.684375) scale(0.7)"/>
      <use xlink:href="#STIXGeneral-Regular-29" transform="translate(592.799756 0.409375)"/>
     </g>
    </g>
    <g id="text_18">
     <!-- $\times\mathdefault{10^{7}}\mathdefault{}$ -->
     <g transform="translate(87 36.1875) scale(0.4 -0.4)">
      <defs>
       <path id="STIXGeneral-Regular-d7" d="M 3821 141 
L 3526 -160 
L 2048 1312 
L 570 -160 
L 275 134 
L 1747 1613 
L 275 3091 
L 576 3386 
L 2048 1914 
L 3526 3386 
L 3821 3098 
L 2349 1613 
L 3821 141 
z
" transform="scale(0.015625)"/>
       <path id="LiberationSans-37" d="M 3238 3947 
Q 2563 2916 2284 2331 
Q 2006 1747 1867 1178 
Q 1728 609 1728 0 
L 1141 0 
Q 1141 844 1498 1776 
Q 1856 2709 2694 3925 
L 328 3925 
L 328 4403 
L 3238 4403 
L 3238 3947 
z
" transform="scale(0.015625)"/>
      </defs>
      <use xlink:href="#STIXGeneral-Regular-d7" transform="translate(0 0.8625)"/>
      <use xlink:href="#LiberationSans-31" transform="translate(63.999985 0.8625)"/>
      <use xlink:href="#LiberationSans-30" transform="translate(119.615219 0.8625)"/>
      <use xlink:href="#LiberationSans-37" transform="translate(176.154946 37.842188) scale(0.7)"/>
     </g>
    </g>
   </g>
   <g id="line2d_56">
    <path d="M 114.99634 612.35816 
L 116.228549 288.612657 
L 116.900663 163.471962 
L 117.404748 103.127216 
L 117.796815 76.553593 
L 118.076862 67.887848 
L 118.24489 66.511636 
L 118.356909 67.082519 
L 118.524938 70.031415 
L 118.804985 80.025473 
L 119.197052 103.023279 
L 119.813156 154.350337 
L 121.325412 307.681479 
L 122.501611 413.801714 
L 123.453772 480.72239 
L 124.237905 522.004358 
L 124.910019 547.179818 
L 125.470114 560.878796 
L 125.91819 567.151381 
L 126.254247 569.238976 
L 126.422275 569.484898 
L 126.534294 569.366628 
L 126.702322 568.782702 
L 126.98237 566.788153 
L 127.374436 562.073311 
L 127.934531 552.192622 
L 128.830683 531.668318 
L 130.510967 493.050994 
L 131.2951 480.22998 
L 131.911204 473.520267 
L 132.41529 470.300913 
L 132.751347 469.254584 
L 132.975385 469.022854 
L 133.143413 469.082858 
L 133.367451 469.460615 
L 133.703508 470.6258 
L 134.151584 473.183358 
L 134.767688 478.247215 
L 135.66384 487.777789 
L 138.016238 513.676005 
L 138.800371 519.621925 
L 139.416475 522.80108 
L 139.920561 524.360138 
L 140.312627 524.912687 
L 140.592674 524.954015 
L 140.872722 524.703713 
L 141.208779 524.025256 
L 141.656855 522.501676 
L 142.216949 519.676639 
L 142.945073 514.734364 
L 145.689537 494.592949 
L 146.193623 492.856983 
L 146.585689 492.218387 
L 146.865737 492.143048 
L 147.145784 492.369757 
L 147.481841 493.0067 
L 147.929917 494.38196 
L 148.602031 497.239329 
L 151.010438 508.168119 
L 151.9626 511.191263 
L 152.97077 513.675632 
L 153.754903 515.070123 
L 154.258988 515.600201 
L 154.651055 515.74503 
L 154.987112 515.648812 
L 155.323169 515.328439 
L 155.771244 514.535496 
L 156.27533 513.153135 
L 156.947444 510.61974 
L 158.4597 503.683422 
L 159.355851 500.199776 
L 160.027965 498.401514 
L 160.58806 497.505713 
L 161.036136 497.163827 
L 161.428202 497.108248 
L 161.876278 497.284882 
L 162.380364 497.740168 
L 163.052477 498.688937 
L 163.89262 500.313717 
L 165.012809 503.036944 
L 166.805113 507.418067 
L 167.477227 508.454801 
L 167.981312 508.847146 
L 168.373378 508.900012 
L 168.765445 508.732468 
L 169.21352 508.289246 
L 169.829625 507.309804 
L 170.725777 505.370496 
L 173.470241 499.115925 
L 174.254374 497.927474 
L 174.814469 497.413792 
L 175.262545 497.257214 
L 175.654611 497.331044 
L 176.102687 497.672123 
L 176.606772 498.383366 
L 177.222877 499.679003 
L 178.119028 502.152053 
L 179.911332 507.175168 
L 180.695465 508.705482 
L 181.423588 509.671751 
L 182.207721 510.33493 
L 183.103872 510.798992 
L 184.112043 511.07607 
L 184.896176 511.077635 
L 185.624299 510.855945 
L 186.464441 510.343314 
L 188.424773 509.030893 
L 189.096887 508.915397 
L 189.769001 509.047142 
L 190.553134 509.445938 
L 193.521636 511.183323 
L 194.529807 511.41459 
L 195.31394 511.384434 
L 196.042063 511.133844 
L 196.770186 510.641288 
L 197.722348 509.70004 
L 199.234604 508.197918 
L 199.906718 507.847322 
L 200.522822 507.785474 
L 201.194936 507.973951 
L 202.427144 508.645973 
L 203.323296 508.989845 
L 203.99541 509.02035 
L 204.779543 508.823532 
L 207.019922 508.111066 
L 209.37232 507.791695 
L 210.044434 507.335254 
L 210.828567 506.506038 
L 213.517022 503.364683 
L 214.245145 503.007365 
L 214.973269 502.90731 
L 215.813411 503.023517 
L 216.98961 503.428447 
L 218.557876 504.218768 
L 220.518207 505.192476 
L 221.582388 505.44415 
L 223.430701 505.815934 
L 224.158824 506.252282 
L 224.942957 507.009325 
L 226.119156 508.522061 
L 227.351364 509.990098 
L 228.135497 510.574083 
L 228.863621 510.832996 
L 229.815782 510.904242 
L 231.160009 511.025105 
L 232.056161 511.362577 
L 233.400389 512.161664 
L 234.688607 512.833584 
L 235.696778 513.104036 
L 236.760958 513.149749 
L 237.881147 512.974 
L 238.945328 512.586456 
L 240.177536 511.881871 
L 242.417916 510.544057 
L 243.482096 510.20709 
L 244.938342 510.018396 
L 246.618627 509.744386 
L 247.962854 509.274182 
L 249.47511 508.499323 
L 251.043376 507.43916 
L 254.515964 504.948408 
L 255.580144 504.550372 
L 256.532305 504.429 
L 257.372448 504.533246 
L 258.21259 504.868491 
L 259.052732 505.453059 
L 260.116912 506.491651 
L 261.853206 508.198695 
L 262.52532 508.556284 
L 263.141424 508.638784 
L 263.757529 508.483147 
L 264.485652 508.051118 
L 266.950069 506.358488 
L 267.734202 506.20949 
L 268.574344 506.291129 
L 269.638525 506.631043 
L 270.926743 507.279368 
L 271.990923 508.06134 
L 273.167122 509.229428 
L 275.351492 511.461014 
L 276.191634 511.977198 
L 277.031776 512.23372 
L 277.983938 512.273453 
L 279.160137 512.087713 
L 280.504364 511.655734 
L 282.240658 510.832506 
L 283.472867 510.34219 
L 284.257 510.25075 
L 284.985123 510.393932 
L 285.713246 510.773327 
L 286.609398 511.518696 
L 289.353863 514.025206 
L 290.025977 514.24319 
L 290.642081 514.210196 
L 291.258185 513.955478 
L 291.986309 513.409323 
L 293.162508 512.197496 
L 294.562745 510.824919 
L 295.458897 510.261786 
L 296.299039 509.990806 
L 297.699276 509.824894 
L 298.875475 509.58568 
L 300.107684 509.07792 
L 301.61994 508.486829 
L 302.460082 508.412693 
L 303.356234 508.576775 
L 305.652623 509.143605 
L 306.436755 509.033537 
L 307.444926 508.640239 
L 309.629296 507.712308 
L 310.693476 507.55438 
L 311.925685 507.606787 
L 313.325922 507.8858 
L 314.782168 508.403719 
L 317.134567 509.529803 
L 322.567487 512.108445 
L 323.799695 512.345932 
L 325.199932 512.372034 
L 328.000406 512.359073 
L 331.024919 512.606971 
L 331.92107 512.358852 
L 332.985251 511.818919 
L 335.561687 510.406777 
L 336.569857 510.169028 
L 337.802066 510.127798 
L 339.53836 510.064332 
L 340.490521 509.792273 
L 341.72273 509.182836 
L 343.178977 508.508899 
L 344.019119 508.369235 
L 344.859261 508.459636 
L 346.09147 508.857279 
L 347.771754 509.356841 
L 349.28401 509.527335 
L 352.644579 509.628837 
L 354.212845 509.404939 
L 356.565243 509.042947 
L 357.629423 509.122401 
L 358.637594 509.426134 
L 359.701774 509.999818 
L 361.102011 511.04931 
L 362.670277 512.172201 
L 363.45441 512.477895 
L 364.126523 512.521136 
L 364.798637 512.345552 
L 365.58277 511.89156 
L 366.70296 510.940727 
L 368.439254 509.470688 
L 369.279396 509.040729 
L 370.007519 508.907568 
L 370.679633 509.007825 
L 371.407756 509.360485 
L 372.247899 510.044311 
L 373.592126 511.492916 
L 374.992363 512.898596 
L 375.944524 513.5383 
L 376.840676 513.874909 
L 377.792837 513.997426 
L 378.744999 513.906028 
L 379.64115 513.596089 
L 380.481293 513.070269 
L 381.489463 512.159787 
L 383.617824 510.135472 
L 384.345947 509.769494 
L 385.018061 509.666426 
L 385.746184 509.793518 
L 386.642336 510.200756 
L 389.554829 511.713884 
L 390.619009 511.905451 
L 391.795208 511.877922 
L 393.307464 511.610523 
L 394.931739 511.109786 
L 398.796394 509.750748 
L 399.804564 509.783831 
L 401.148792 510.081837 
L 404.733399 511.165503 
L 405.797579 511.797104 
L 408.878101 513.844411 
L 409.606224 513.958727 
L 410.334347 513.849476 
L 411.11848 513.504172 
L 412.126651 512.793835 
L 413.638907 511.414162 
L 416.215343 509.058826 
L 417.335533 508.341031 
L 418.231685 508.023039 
L 419.015817 507.976304 
L 419.79995 508.154078 
L 420.752111 508.61912 
L 423.272538 509.992972 
L 424.11268 510.128204 
L 424.952823 510.039545 
L 425.904984 509.702223 
L 426.969164 509.082329 
L 428.313392 508.018855 
L 430.66579 506.110557 
L 431.561942 505.703442 
L 432.402084 505.558593 
L 433.466264 505.624824 
L 436.826833 506.001754 
L 442.371772 506.149545 
L 443.716 506.160866 
L 444.72417 506.394205 
L 446.180417 507.002979 
L 447.636663 507.533472 
L 448.756853 507.68647 
L 450.549157 507.642562 
L 452.39747 507.699898 
L 454.46982 507.756846 
L 458.110437 507.60426 
L 459.174617 507.983244 
L 461.190958 508.76409 
L 462.031101 508.806261 
L 462.871243 508.616798 
L 464.27148 508.014342 
L 465.39167 507.640554 
L 466.287822 507.584644 
L 467.352002 507.773231 
L 468.976277 508.072304 
L 469.816419 507.987977 
L 470.82459 507.645488 
L 472.504874 507.055267 
L 473.289007 507.051687 
L 474.07314 507.287563 
L 475.193329 507.903671 
L 476.593566 508.631048 
L 477.489718 508.839057 
L 478.441879 508.824949 
L 480.066154 508.532599 
L 482.082496 507.99558 
L 483.258695 507.440186 
L 486.563255 505.67422 
L 487.347387 505.632194 
L 488.13152 505.824689 
L 489.027672 506.299903 
L 490.483918 507.391772 
L 491.828146 508.300889 
L 492.836317 508.70983 
L 493.900497 508.891624 
L 495.972848 508.953412 
L 497.653132 508.850314 
L 498.885341 508.540038 
L 501.069711 507.928096 
L 501.909853 507.976406 
L 502.693986 508.246812 
L 503.646147 508.828599 
L 507.398782 511.426979 
L 508.406953 511.722106 
L 509.415124 511.779303 
L 510.479304 511.602042 
L 511.823532 511.129847 
L 515.744196 509.626332 
L 517.872556 509.075645 
L 519.272793 508.93607 
L 520.841059 509.018082 
L 523.025428 509.136535 
L 524.313647 508.948449 
L 527.17013 508.412138 
L 528.23431 508.521893 
L 531.986946 509.152212 
L 534.955448 509.267019 
L 536.91578 509.659174 
L 539.436207 510.390131 
L 541.172501 510.824906 
L 542.180672 510.852351 
L 543.188842 510.649378 
L 544.477061 510.133925 
L 549.349886 507.992581 
L 550.862142 507.503768 
L 551.870312 507.398722 
L 552.822474 507.516225 
L 553.998673 507.901518 
L 556.575109 508.817966 
L 557.919337 508.993088 
L 561.559953 509.34778 
L 562.680143 509.335632 
L 563.688313 509.089378 
L 566.656816 508.135441 
L 567.384939 508.285832 
L 568.113063 508.668325 
L 569.065224 509.439466 
L 571.249594 511.305853 
L 572.089736 511.680331 
L 572.817859 511.76938 
L 573.545983 511.644014 
L 574.386125 511.269838 
L 575.506315 510.503861 
L 578.082751 508.652971 
L 579.090921 508.258428 
L 580.099092 508.102832 
L 581.499329 508.134586 
L 583.739709 508.413542 
L 585.363984 508.834573 
L 587.604363 509.437325 
L 588.612534 509.457295 
L 589.676714 509.243528 
L 592.589207 508.493662 
L 593.485359 508.592034 
L 594.493529 508.932908 
L 598.470203 510.544929 
L 600.486544 510.876923 
L 602.782933 511.078731 
L 603.959132 510.952612 
L 605.023312 510.608606 
L 606.423549 509.889885 
L 608.103834 509.068614 
L 609.055995 508.847504 
L 610.008156 508.8498 
L 611.352384 509.107422 
L 614.264877 509.705794 
L 616.505257 509.925753 
L 618.129532 509.854182 
L 620.537939 509.716611 
L 622.274233 509.927149 
L 623.842499 510.037344 
L 627.315087 510.091621 
L 628.771333 510.528885 
L 631.29176 511.288629 
L 632.804016 511.50432 
L 633.980215 511.450769 
L 635.044396 511.174668 
L 636.500642 510.53127 
L 637.956889 509.955169 
L 638.85304 509.828767 
L 639.693183 509.926764 
L 640.589334 510.255566 
L 641.709524 510.920803 
L 645.40615 513.352383 
L 646.190283 513.508852 
L 646.918406 513.431569 
L 647.646529 513.128649 
L 648.486672 512.529487 
L 649.830899 511.245656 
L 651.231136 510.002462 
L 652.071279 509.535418 
L 652.799402 509.3624 
L 653.583535 509.414552 
L 654.423677 509.700362 
L 655.543867 510.334849 
L 657.504199 511.75682 
L 659.072464 512.790553 
L 660.024625 513.16064 
L 660.808758 513.24121 
L 661.592891 513.102529 
L 662.489043 512.701474 
L 663.665242 511.903285 
L 665.849612 510.385123 
L 666.745763 510.043145 
L 667.585906 509.947761 
L 668.594076 510.077258 
L 671.39455 510.596349 
L 674.251034 510.728793 
L 674.923148 511.020312 
L 674.923148 511.020312 
" clip-path="url(#peb9a509171)" style="fill: none; stroke: #ff0000; stroke-width: 1.5; stroke-linecap: square"/>
   </g>
   <g id="line2d_57">
    <path d="M 114.99634 612.994364 
L 116.17254 319.588179 
L 116.844653 201.010419 
L 117.404748 138.505417 
L 117.796815 114.442413 
L 118.076862 106.489648 
L 118.24489 105.105358 
L 118.3009 105.171586 
L 118.412919 106.056133 
L 118.636957 110.639767 
L 118.973014 123.676671 
L 119.477099 153.915482 
L 120.373251 225.013181 
L 122.109545 363.006763 
L 123.117715 425.379334 
L 124.013867 467.982445 
L 124.741991 493.276294 
L 125.358095 507.813486 
L 125.86218 514.938547 
L 126.198237 517.354569 
L 126.422275 517.974638 
L 126.534294 518.000194 
L 126.702322 517.697864 
L 126.92636 516.692897 
L 127.262417 514.009426 
L 127.766503 507.809708 
L 128.550635 494.81662 
L 130.342939 464.280786 
L 131.071062 455.768153 
L 131.687166 451.021312 
L 132.191252 448.739464 
L 132.583318 447.88701 
L 132.863366 447.738663 
L 133.087404 447.880632 
L 133.367451 448.370089 
L 133.759517 449.629013 
L 134.207593 451.872444 
L 134.767688 455.860289 
L 135.495811 462.814131 
L 136.503982 474.850023 
L 138.91239 504.613491 
L 139.640513 510.636632 
L 140.200608 513.575268 
L 140.592674 514.711458 
L 140.928731 515.098419 
L 141.152769 515.071471 
L 141.432817 514.742308 
L 141.824883 513.800498 
L 142.384978 511.699874 
L 143.393149 506.782951 
L 144.457329 501.970635 
L 145.073433 500.085994 
L 145.577518 499.131556 
L 146.081604 498.635978 
L 146.585689 498.467837 
L 148.546021 498.178895 
L 149.218135 497.669944 
L 150.898419 496.273846 
L 151.402505 496.184556 
L 151.90659 496.340675 
L 152.466685 496.774941 
L 153.194808 497.675331 
L 154.314998 499.454455 
L 155.267159 501.36772 
L 156.667396 504.77457 
L 158.4597 509.072309 
L 159.075804 509.988608 
L 159.52388 510.322929 
L 159.971956 510.380105 
L 160.420032 510.171002 
L 160.924117 509.668973 
L 161.65224 508.59522 
L 163.500553 505.704161 
L 164.508724 504.641873 
L 167.421217 501.867677 
L 168.933473 499.952622 
L 169.829625 498.481109 
L 170.837796 496.340099 
L 172.294042 493.21121 
L 173.022165 492.160157 
L 173.63827 491.654053 
L 174.142355 491.502231 
L 174.70245 491.579986 
L 175.374564 491.938203 
L 176.438744 492.816753 
L 177.838981 493.91797 
L 178.735133 494.334819 
L 179.519265 494.460472 
L 180.471427 494.377431 
L 182.31974 494.175578 
L 183.103872 494.35453 
L 183.888005 494.764572 
L 185.008195 495.644516 
L 186.520451 496.8056 
L 187.248574 497.086504 
L 187.864679 497.105034 
L 188.536792 496.896791 
L 189.320925 496.405379 
L 192.00938 494.491046 
L 192.849523 494.278366 
L 193.745674 494.295641 
L 194.921873 494.564797 
L 199.962727 495.95333 
L 202.987239 496.33485 
L 205.787713 496.965708 
L 206.571846 496.819046 
L 207.411988 496.421938 
L 208.532178 495.616066 
L 210.660538 494.054327 
L 211.6127 493.652427 
L 212.564861 493.492972 
L 213.909088 493.528445 
L 215.589373 493.530106 
L 218.445857 493.395471 
L 219.398018 493.650111 
L 220.350179 494.150485 
L 221.35835 494.944702 
L 223.934786 497.152958 
L 224.494881 497.257293 
L 224.998966 497.124275 
L 225.503052 496.759449 
L 226.119156 496.013975 
L 226.959298 494.592026 
L 228.695592 491.533648 
L 229.367706 490.790189 
L 229.927801 490.460069 
L 230.487896 490.385206 
L 231.104 490.549048 
L 232.000152 491.068763 
L 233.456398 491.923522 
L 234.29654 492.13357 
L 235.248702 492.117483 
L 236.816967 492.055114 
L 237.54509 492.281137 
L 238.273214 492.749431 
L 239.169366 493.61063 
L 241.017678 495.453658 
L 241.689792 495.792675 
L 242.249887 495.854152 
L 242.809982 495.703817 
L 243.426086 495.30322 
L 244.210219 494.493935 
L 245.330409 492.967082 
L 247.178722 490.440921 
L 247.906845 489.816205 
L 248.522949 489.563231 
L 249.083044 489.574279 
L 249.699148 489.8366 
L 250.427272 490.411387 
L 252.77967 492.485056 
L 253.507793 492.719213 
L 254.235917 492.715855 
L 255.580144 492.416045 
L 256.476296 492.347828 
L 257.14841 492.511534 
L 257.820524 492.903623 
L 258.660666 493.674872 
L 260.620998 495.596598 
L 261.237102 495.854404 
L 261.741187 495.848918 
L 262.245273 495.63279 
L 262.861377 495.093926 
L 263.64551 494.065433 
L 265.77387 491.069104 
L 266.445984 490.582327 
L 267.006079 490.440148 
L 267.566174 490.532092 
L 268.182278 490.867744 
L 269.02242 491.612852 
L 271.822894 494.333551 
L 272.719046 494.759734 
L 273.727217 494.975092 
L 275.687549 495.332159 
L 276.527691 495.773725 
L 277.423843 496.5227 
L 279.608213 498.502338 
L 280.168308 498.665425 
L 280.672393 498.584721 
L 281.176478 498.266265 
L 281.736573 497.635969 
L 282.464696 496.439036 
L 285.209161 491.427498 
L 285.825265 490.91181 
L 286.38536 490.724345 
L 286.945455 490.781315 
L 287.617569 491.102042 
L 288.62574 491.875029 
L 289.969967 492.85402 
L 290.7541 493.161673 
L 291.538233 493.238715 
L 292.658422 493.096285 
L 294.058659 492.962779 
L 295.06683 493.114839 
L 297.979323 493.764082 
L 298.651437 493.582764 
L 299.323551 493.165214 
L 300.051674 492.437309 
L 300.947826 491.200138 
L 302.404072 488.719833 
L 303.636281 486.805092 
L 304.364404 486.043736 
L 304.980509 485.689294 
L 305.596613 485.601228 
L 306.268727 485.758934 
L 307.108869 486.208591 
L 308.565116 487.286569 
L 310.637467 489.068679 
L 312.373761 490.53039 
L 313.157893 490.906736 
L 313.830007 491.004458 
L 314.55813 490.874057 
L 315.398273 490.47789 
L 318.422785 488.828856 
L 319.654993 488.534063 
L 322.119411 488.254318 
L 323.631667 488.244888 
L 324.919885 488.467552 
L 326.656179 489.018054 
L 330.072757 490.346541 
L 331.416985 491.156217 
L 334.049431 492.836078 
L 334.833563 493.042596 
L 335.505677 492.989343 
L 336.121782 492.714162 
L 336.793895 492.156165 
L 337.578028 491.198739 
L 338.866246 489.197393 
L 340.042445 487.504709 
L 340.826578 486.760814 
L 341.498692 486.428347 
L 342.114796 486.360429 
L 342.78691 486.508233 
L 343.627052 486.934128 
L 346.371517 488.524004 
L 347.09964 488.595421 
L 347.827764 488.449435 
L 348.891944 487.966997 
L 350.124153 487.460359 
L 350.796266 487.414472 
L 351.46838 487.603243 
L 352.196503 488.059793 
L 354.828949 489.987356 
L 355.389044 489.990643 
L 355.949139 489.748284 
L 356.565243 489.209379 
L 357.349376 488.186582 
L 359.981822 484.425816 
L 360.597926 484.017805 
L 361.21403 483.878551 
L 361.830135 483.977988 
L 362.614267 484.356886 
L 364.294552 485.52922 
L 365.470751 486.18341 
L 366.534931 486.532667 
L 367.71113 486.669204 
L 369.671462 486.8483 
L 370.679633 487.21579 
L 373.536117 488.463447 
L 374.26424 488.398916 
L 375.048373 488.080492 
L 376.44861 487.18353 
L 377.400771 486.705894 
L 378.128894 486.584724 
L 378.801008 486.702794 
L 379.529131 487.065322 
L 380.649321 487.91856 
L 382.329606 489.192706 
L 383.169748 489.550438 
L 383.897871 489.626065 
L 384.682004 489.471791 
L 385.970222 488.926898 
L 386.978393 488.607062 
L 387.650507 488.61604 
L 388.32262 488.864844 
L 389.050744 489.387937 
L 391.403142 491.313792 
L 391.907227 491.348927 
L 392.355303 491.16522 
L 392.859389 490.700851 
L 393.475493 489.773582 
L 394.259626 488.131315 
L 396.780052 482.474151 
L 397.396157 481.751317 
L 397.900242 481.467455 
L 398.348318 481.450741 
L 398.796394 481.645084 
L 399.356489 482.146554 
L 400.084612 483.121311 
L 402.885086 487.232954 
L 403.613209 487.766079 
L 404.285323 487.995001 
L 405.125465 488.03686 
L 407.029788 488.037565 
L 407.92594 488.333788 
L 410.390357 489.334035 
L 411.062471 489.267377 
L 411.678575 488.98237 
L 412.406698 488.374136 
L 413.30285 487.304244 
L 415.48722 484.554168 
L 416.159334 484.099173 
L 416.775438 483.945599 
L 417.391542 484.035092 
L 418.119666 484.389509 
L 419.351874 485.299822 
L 420.696102 486.207059 
L 421.648263 486.58073 
L 422.488405 486.677918 
L 423.272538 486.545908 
L 424.11268 486.174653 
L 425.568927 485.219288 
L 426.633107 484.656902 
L 427.473249 484.465398 
L 428.425411 484.500497 
L 430.441752 484.655147 
L 431.78598 484.438199 
L 433.018188 484.299722 
L 433.85833 484.440182 
L 434.698473 484.821706 
L 435.874672 485.645818 
L 437.16289 486.485316 
L 437.947023 486.737207 
L 438.619137 486.730841 
L 439.403269 486.478552 
L 441.811677 485.48305 
L 442.427781 485.593275 
L 443.043886 485.952708 
L 443.716 486.612722 
L 444.668161 487.894791 
L 446.404455 490.267718 
L 447.076569 490.791236 
L 447.580654 490.922541 
L 448.02873 490.818844 
L 448.532815 490.441978 
L 449.09291 489.707406 
L 449.821033 488.322757 
L 450.941223 485.596974 
L 452.285451 482.418056 
L 453.069583 481.070588 
L 453.741697 480.327126 
L 454.357801 479.979347 
L 454.973906 479.904645 
L 455.702029 480.064883 
L 457.046257 480.66037 
L 458.222456 481.071417 
L 459.230627 481.183089 
L 461.919082 481.31068 
L 462.703215 481.709256 
L 463.543357 482.402232 
L 466.511859 485.105825 
L 467.183973 485.326355 
L 467.800078 485.314503 
L 468.472191 485.08008 
L 469.312334 484.532484 
L 472.168817 482.432513 
L 472.896941 482.279185 
L 473.681073 482.353607 
L 474.689244 482.706832 
L 477.601737 483.8707 
L 479.618079 484.29916 
L 481.186344 484.436158 
L 482.6986 484.328903 
L 484.322875 483.974133 
L 485.835131 483.427606 
L 487.235368 482.675528 
L 489.867814 481.177824 
L 490.651947 481.035344 
L 491.38007 481.139241 
L 492.164203 481.496605 
L 493.284393 482.294373 
L 494.68463 483.247582 
L 495.524772 483.548837 
L 496.420924 483.621093 
L 498.773322 483.649866 
L 499.557455 483.996488 
L 500.509616 484.695969 
L 502.581967 486.314752 
L 503.198071 486.493811 
L 503.758166 486.436489 
L 504.318261 486.142656 
L 504.934365 485.54424 
L 505.662488 484.507328 
L 506.838688 482.363107 
L 508.126906 480.118671 
L 508.855029 479.254663 
L 509.471133 478.826431 
L 510.087238 478.667702 
L 510.759351 478.748457 
L 511.767522 479.151059 
L 513.223769 479.699216 
L 514.231939 479.815545 
L 516.136262 479.7257 
L 517.144433 479.828384 
L 517.984575 480.146659 
L 518.824717 480.726194 
L 519.776878 481.677339 
L 522.073267 484.104589 
L 522.745381 484.439263 
L 523.305476 484.470022 
L 523.865571 484.255643 
L 524.481675 483.746844 
L 525.265808 482.759717 
L 528.178301 478.709103 
L 528.850415 478.28448 
L 529.522528 478.112469 
L 530.250652 478.161022 
L 531.146804 478.453438 
L 532.323003 479.076537 
L 533.891268 480.16765 
L 536.299676 481.866675 
L 537.419866 482.353071 
L 538.596065 482.61918 
L 539.660245 482.636083 
L 540.556397 482.439603 
L 541.396539 482.023891 
L 542.292691 481.324519 
L 544.981146 479.014028 
L 545.59725 478.884312 
L 546.157345 478.991468 
L 546.773449 479.353797 
L 547.501573 480.061278 
L 548.90181 481.827644 
L 550.021999 483.069856 
L 550.750123 483.571717 
L 551.366227 483.744394 
L 551.982331 483.682494 
L 552.654445 483.384344 
L 553.662616 482.656737 
L 554.950834 481.781165 
L 555.678957 481.567112 
L 556.295062 481.617727 
L 556.911166 481.892829 
L 557.639289 482.474717 
L 560.327744 484.923184 
L 560.887839 485.015556 
L 561.447934 484.86904 
L 562.064038 484.4425 
L 562.792162 483.638687 
L 563.912351 482.019929 
L 565.312589 480.063275 
L 566.040712 479.404708 
L 566.656816 479.131996 
L 567.216911 479.118117 
L 567.833015 479.325415 
L 568.729167 479.890021 
L 570.185414 480.793665 
L 570.969546 480.993747 
L 571.753679 480.958173 
L 573.82603 480.728822 
L 574.498144 480.958461 
L 575.226267 481.450643 
L 576.346457 482.525885 
L 577.578665 483.630779 
L 578.362798 484.046784 
L 579.090921 484.173814 
L 579.875054 484.06546 
L 580.827215 483.691893 
L 582.283462 482.843466 
L 585.307974 481.044016 
L 586.372154 480.703897 
L 587.492344 480.581114 
L 588.892581 480.665834 
L 591.525027 481.098762 
L 592.589207 481.455447 
L 593.429349 481.978579 
L 594.269492 482.788861 
L 595.669729 484.54573 
L 596.62189 485.561033 
L 597.237994 485.913746 
L 597.74208 485.957987 
L 598.246165 485.769872 
L 598.80626 485.310962 
L 599.590392 484.347419 
L 601.326686 482.136729 
L 601.9988 481.6744 
L 602.558895 481.539693 
L 603.11899 481.624676 
L 603.791104 481.962977 
L 604.855284 482.796705 
L 606.255521 483.849857 
L 607.151673 484.246733 
L 608.047824 484.400644 
L 610.960318 484.693741 
L 611.80046 485.158747 
L 612.86464 486.041739 
L 614.488915 487.408143 
L 615.105019 487.635259 
L 615.609105 487.587984 
L 616.057181 487.332505 
L 616.561266 486.784901 
L 617.17737 485.74639 
L 617.961503 483.932221 
L 620.817987 476.760762 
L 621.434091 475.965133 
L 621.938176 475.621605 
L 622.442262 475.538716 
L 622.946347 475.679888 
L 623.618461 476.123188 
L 624.962689 477.37561 
L 626.194897 478.378897 
L 627.371096 479.028681 
L 629.387438 480.083916 
L 630.507627 481.000291 
L 633.420121 483.588135 
L 634.092234 483.813306 
L 634.652329 483.784114 
L 635.212424 483.535288 
L 635.828528 483.002697 
L 636.556652 482.062598 
L 637.676841 480.184955 
L 639.077078 477.911574 
L 639.805202 477.141045 
L 640.365297 476.848722 
L 640.869382 476.826921 
L 641.373467 477.019519 
L 641.989572 477.495814 
L 642.941733 478.560975 
L 645.350141 481.376985 
L 646.638359 482.493368 
L 647.702539 483.147785 
L 648.71071 483.507564 
L 649.77489 483.637822 
L 651.455174 483.575527 
L 652.96743 483.365152 
L 653.807573 483.01782 
L 654.591705 482.43584 
L 655.487857 481.464351 
L 657.952274 478.573523 
L 658.624388 478.217782 
L 659.240492 478.143908 
L 659.912606 478.308516 
L 660.752749 478.770884 
L 663.161156 480.245447 
L 664.113318 480.462676 
L 666.185668 480.808983 
L 666.913792 481.224883 
L 667.697925 481.949484 
L 668.762105 483.29555 
L 670.274361 485.206411 
L 670.946475 485.719173 
L 671.45056 485.866721 
L 671.954645 485.774637 
L 672.458731 485.43209 
L 673.018825 484.772761 
L 673.802958 483.452845 
L 674.923148 481.178354 
L 674.923148 481.178354 
" clip-path="url(#peb9a509171)" style="fill: none; stroke: #0000ff; stroke-width: 1.5; stroke-linecap: square"/>
   </g>
   <g id="patch_3">
    <path d="M 87 640.3185 
L 87 39.1875 
" style="fill: none; stroke: #000000; stroke-width: 0.8; stroke-linejoin: miter; stroke-linecap: square"/>
   </g>
   <g id="patch_4">
    <path d="M 702.919488 640.3185 
L 702.919488 39.1875 
" style="fill: none; stroke: #000000; stroke-width: 0.8; stroke-linejoin: miter; stroke-linecap: square"/>
   </g>
   <g id="patch_5">
    <path d="M 87 640.3185 
L 702.919488 640.3185 
" style="fill: none; stroke: #000000; stroke-width: 0.8; stroke-linejoin: miter; stroke-linecap: square"/>
   </g>
   <g id="patch_6">
    <path d="M 87 39.1875 
L 702.919488 39.1875 
" style="fill: none; stroke: #000000; stroke-width: 0.8; stroke-linejoin: miter; stroke-linecap: square"/>
   </g>
   <g id="legend_1">
    <g id="patch_7">
     <path d="M 505.908551 149.11875 
L 681.919488 149.11875 
Q 687.919488 149.11875 687.919488 143.11875 
L 687.919488 60.1875 
Q 687.919488 54.1875 681.919488 54.1875 
L 505.908551 54.1875 
Q 499.908551 54.1875 499.908551 60.1875 
L 499.908551 143.11875 
Q 499.908551 149.11875 505.908551 149.11875 
z
" style="fill: #ffffff; opacity: 0.8; stroke: #cccccc; stroke-linejoin: miter"/>
    </g>
    <g id="line2d_58">
     <path d="M 511.908551 77.428125 
L 541.908551 77.428125 
L 571.908551 77.428125 
" style="fill: none; stroke: #ff0000; stroke-width: 1.5; stroke-linecap: square"/>
    </g>
    <g id="text_19">
     <!-- MD -->
     <g transform="translate(595.908551 87.928125) scale(0.3 -0.3)">
      <defs>
       <path id="LiberationSans-4d" d="M 4269 0 
L 4269 2938 
Q 4269 3425 4297 3875 
Q 4144 3316 4022 3000 
L 2884 0 
L 2466 0 
L 1313 3000 
L 1138 3531 
L 1034 3875 
L 1044 3528 
L 1056 2938 
L 1056 0 
L 525 0 
L 525 4403 
L 1309 4403 
L 2481 1350 
Q 2544 1166 2601 955 
Q 2659 744 2678 650 
Q 2703 775 2783 1029 
Q 2863 1284 2891 1350 
L 4041 4403 
L 4806 4403 
L 4806 0 
L 4269 0 
z
" transform="scale(0.015625)"/>
       <path id="LiberationSans-44" d="M 4316 2247 
Q 4316 1566 4050 1055 
Q 3784 544 3296 272 
Q 2809 0 2172 0 
L 525 0 
L 525 4403 
L 1981 4403 
Q 3100 4403 3708 3842 
Q 4316 3281 4316 2247 
z
M 3716 2247 
Q 3716 3066 3267 3495 
Q 2819 3925 1969 3925 
L 1122 3925 
L 1122 478 
L 2103 478 
Q 2588 478 2955 690 
Q 3322 903 3519 1303 
Q 3716 1703 3716 2247 
z
" transform="scale(0.015625)"/>
      </defs>
      <use xlink:href="#LiberationSans-4d"/>
      <use xlink:href="#LiberationSans-44" x="83.300781"/>
     </g>
    </g>
    <g id="line2d_59">
     <path d="M 511.908551 120.39375 
L 541.908551 120.39375 
L 571.908551 120.39375 
" style="fill: none; stroke: #0000ff; stroke-width: 1.5; stroke-linecap: square"/>
    </g>
    <g id="text_20">
     <!-- GANs -->
     <g transform="translate(595.908551 130.89375) scale(0.3 -0.3)">
      <defs>
       <path id="LiberationSans-47" d="M 322 2222 
Q 322 3294 897 3881 
Q 1472 4469 2513 4469 
Q 3244 4469 3700 4222 
Q 4156 3975 4403 3431 
L 3834 3263 
Q 3647 3638 3317 3809 
Q 2988 3981 2497 3981 
Q 1734 3981 1331 3520 
Q 928 3059 928 2222 
Q 928 1388 1356 905 
Q 1784 422 2541 422 
Q 2972 422 3345 553 
Q 3719 684 3950 909 
L 3950 1703 
L 2634 1703 
L 2634 2203 
L 4500 2203 
L 4500 684 
Q 4150 328 3642 132 
Q 3134 -63 2541 -63 
Q 1850 -63 1350 212 
Q 850 488 586 1005 
Q 322 1522 322 2222 
z
" transform="scale(0.015625)"/>
       <path id="LiberationSans-41" d="M 3647 0 
L 3144 1288 
L 1138 1288 
L 631 0 
L 13 0 
L 1809 4403 
L 2488 4403 
L 4256 0 
L 3647 0 
z
M 2141 3953 
L 2113 3866 
Q 2034 3606 1881 3200 
L 1319 1753 
L 2966 1753 
L 2400 3206 
Q 2313 3422 2225 3694 
L 2141 3953 
z
" transform="scale(0.015625)"/>
       <path id="LiberationSans-4e" d="M 3381 0 
L 1025 3750 
L 1041 3447 
L 1056 2925 
L 1056 0 
L 525 0 
L 525 4403 
L 1219 4403 
L 3600 628 
Q 3563 1241 3563 1516 
L 3563 4403 
L 4100 4403 
L 4100 0 
L 3381 0 
z
" transform="scale(0.015625)"/>
      </defs>
      <use xlink:href="#LiberationSans-47"/>
      <use xlink:href="#LiberationSans-41" x="77.783203"/>
      <use xlink:href="#LiberationSans-4e" x="144.482422"/>
      <use xlink:href="#LiberationSans-73" x="216.699219"/>
     </g>
    </g>
   </g>
  </g>
 </g>
 <defs>
  <clipPath id="peb9a509171">
   <rect x="87" y="39.1875" width="615.919488" height="601.131"/>
  </clipPath>
 </defs>
</svg>
