<?xml version="1.0" encoding="utf-8" standalone="no"?>
<!DOCTYPE svg PUBLIC "-//W3C//DTD SVG 1.1//EN"
  "http://www.w3.org/Graphics/SVG/1.1/DTD/svg11.dtd">
<svg xmlns:xlink="http://www.w3.org/1999/xlink" width="710.016422pt" height="711.033187pt" viewBox="0 0 710.016422 711.033187" xmlns="http://www.w3.org/2000/svg" version="1.1">
 <metadata>
  <rdf:RDF xmlns:dc="http://purl.org/dc/elements/1.1/" xmlns:cc="http://creativecommons.org/ns#" xmlns:rdf="http://www.w3.org/1999/02/22-rdf-syntax-ns#">
   <cc:Work>
    <dc:type rdf:resource="http://purl.org/dc/dcmitype/StillImage"/>
    <dc:date>2025-02-06T00:35:40.080662</dc:date>
    <dc:format>image/svg+xml</dc:format>
    <dc:creator>
     <cc:Agent>
      <dc:title>Matplotlib v3.9.3, https://matplotlib.org/</dc:title>
     </cc:Agent>
    </dc:creator>
   </cc:Work>
  </rdf:RDF>
 </metadata>
 <defs>
  <style type="text/css">*{stroke-linejoin: round; stroke-linecap: butt}</style>
 </defs>
 <g id="figure_1">
  <g id="patch_1">
   <path d="M 0 711.033187 
L 710.016422 711.033187 
L 710.016422 0 
L 0 0 
z
" style="fill: #ffffff"/>
  </g>
  <g id="axes_1">
   <g id="patch_2">
    <path d="M 82.8 643.1985 
L 702.816422 643.1985 
L 702.816422 39.1875 
L 82.8 39.1875 
z
" style="fill: #ffffff"/>
   </g>
   <g id="matplotlib.axis_1">
    <g id="xtick_1">
     <g id="line2d_1">
      <defs>
       <path id="md0481f589c" d="M 0 0 
L 0 -3.5 
" style="stroke: #000000; stroke-width: 0.8"/>
      </defs>
      <g>
       <use xlink:href="#md0481f589c" x="110.869801" y="643.1985" style="stroke: #000000; stroke-width: 0.8"/>
      </g>
     </g>
     <g id="text_1">
      <!-- 0 -->
      <g transform="translate(103.362535 666.265062) scale(0.27 -0.27)">
       <defs>
        <path id="LiberationSans-30" d="M 3309 2203 
Q 3309 1100 2920 518 
Q 2531 -63 1772 -63 
Q 1013 -63 631 515 
Q 250 1094 250 2203 
Q 250 3338 620 3903 
Q 991 4469 1791 4469 
Q 2569 4469 2939 3897 
Q 3309 3325 3309 2203 
z
M 2738 2203 
Q 2738 3156 2517 3584 
Q 2297 4013 1791 4013 
Q 1272 4013 1045 3591 
Q 819 3169 819 2203 
Q 819 1266 1048 831 
Q 1278 397 1778 397 
Q 2275 397 2506 840 
Q 2738 1284 2738 2203 
z
" transform="scale(0.015625)"/>
       </defs>
       <use xlink:href="#LiberationSans-30"/>
      </g>
     </g>
    </g>
    <g id="xtick_2">
     <g id="line2d_2">
      <g>
       <use xlink:href="#md0481f589c" x="223.633888" y="643.1985" style="stroke: #000000; stroke-width: 0.8"/>
      </g>
     </g>
     <g id="text_2">
      <!-- 2 -->
      <g transform="translate(216.126623 666.265062) scale(0.27 -0.27)">
       <defs>
        <path id="LiberationSans-32" d="M 322 0 
L 322 397 
Q 481 763 711 1042 
Q 941 1322 1194 1548 
Q 1447 1775 1695 1969 
Q 1944 2163 2144 2356 
Q 2344 2550 2467 2762 
Q 2591 2975 2591 3244 
Q 2591 3606 2378 3806 
Q 2166 4006 1788 4006 
Q 1428 4006 1195 3811 
Q 963 3616 922 3263 
L 347 3316 
Q 409 3844 795 4156 
Q 1181 4469 1788 4469 
Q 2453 4469 2811 4155 
Q 3169 3841 3169 3263 
Q 3169 3006 3051 2753 
Q 2934 2500 2703 2247 
Q 2472 1994 1819 1463 
Q 1459 1169 1246 933 
Q 1034 697 941 478 
L 3238 478 
L 3238 0 
L 322 0 
z
" transform="scale(0.015625)"/>
       </defs>
       <use xlink:href="#LiberationSans-32"/>
      </g>
     </g>
    </g>
    <g id="xtick_3">
     <g id="line2d_3">
      <g>
       <use xlink:href="#md0481f589c" x="336.397976" y="643.1985" style="stroke: #000000; stroke-width: 0.8"/>
      </g>
     </g>
     <g id="text_3">
      <!-- 4 -->
      <g transform="translate(328.89071 666.265062) scale(0.27 -0.27)">
       <defs>
        <path id="LiberationSans-34" d="M 2753 997 
L 2753 0 
L 2222 0 
L 2222 997 
L 147 997 
L 147 1434 
L 2163 4403 
L 2753 4403 
L 2753 1441 
L 3372 1441 
L 3372 997 
L 2753 997 
z
M 2222 3769 
Q 2216 3750 2134 3603 
Q 2053 3456 2013 3397 
L 884 1734 
L 716 1503 
L 666 1441 
L 2222 1441 
L 2222 3769 
z
" transform="scale(0.015625)"/>
       </defs>
       <use xlink:href="#LiberationSans-34"/>
      </g>
     </g>
    </g>
    <g id="xtick_4">
     <g id="line2d_4">
      <g>
       <use xlink:href="#md0481f589c" x="449.162064" y="643.1985" style="stroke: #000000; stroke-width: 0.8"/>
      </g>
     </g>
     <g id="text_4">
      <!-- 6 -->
      <g transform="translate(441.654798 666.265062) scale(0.27 -0.27)">
       <defs>
        <path id="LiberationSans-36" d="M 3278 1441 
Q 3278 744 2900 340 
Q 2522 -63 1856 -63 
Q 1113 -63 719 490 
Q 325 1044 325 2100 
Q 325 3244 734 3856 
Q 1144 4469 1900 4469 
Q 2897 4469 3156 3572 
L 2619 3475 
Q 2453 4013 1894 4013 
Q 1413 4013 1148 3564 
Q 884 3116 884 2266 
Q 1038 2550 1316 2698 
Q 1594 2847 1953 2847 
Q 2563 2847 2920 2465 
Q 3278 2084 3278 1441 
z
M 2706 1416 
Q 2706 1894 2472 2153 
Q 2238 2413 1819 2413 
Q 1425 2413 1183 2183 
Q 941 1953 941 1550 
Q 941 1041 1192 716 
Q 1444 391 1838 391 
Q 2244 391 2475 664 
Q 2706 938 2706 1416 
z
" transform="scale(0.015625)"/>
       </defs>
       <use xlink:href="#LiberationSans-36"/>
      </g>
     </g>
    </g>
    <g id="xtick_5">
     <g id="line2d_5">
      <g>
       <use xlink:href="#md0481f589c" x="561.926152" y="643.1985" style="stroke: #000000; stroke-width: 0.8"/>
      </g>
     </g>
     <g id="text_5">
      <!-- 8 -->
      <g transform="translate(554.418886 666.265062) scale(0.27 -0.27)">
       <defs>
        <path id="LiberationSans-38" d="M 3281 1228 
Q 3281 619 2893 278 
Q 2506 -63 1781 -63 
Q 1075 -63 676 271 
Q 278 606 278 1222 
Q 278 1653 525 1947 
Q 772 2241 1156 2303 
L 1156 2316 
Q 797 2400 589 2681 
Q 381 2963 381 3341 
Q 381 3844 757 4156 
Q 1134 4469 1769 4469 
Q 2419 4469 2795 4162 
Q 3172 3856 3172 3334 
Q 3172 2956 2962 2675 
Q 2753 2394 2391 2322 
L 2391 2309 
Q 2813 2241 3047 1952 
Q 3281 1663 3281 1228 
z
M 2588 3303 
Q 2588 4050 1769 4050 
Q 1372 4050 1164 3862 
Q 956 3675 956 3303 
Q 956 2925 1170 2726 
Q 1384 2528 1775 2528 
Q 2172 2528 2380 2711 
Q 2588 2894 2588 3303 
z
M 2697 1281 
Q 2697 1691 2453 1898 
Q 2209 2106 1769 2106 
Q 1341 2106 1100 1882 
Q 859 1659 859 1269 
Q 859 359 1788 359 
Q 2247 359 2472 579 
Q 2697 800 2697 1281 
z
" transform="scale(0.015625)"/>
       </defs>
       <use xlink:href="#LiberationSans-38"/>
      </g>
     </g>
    </g>
    <g id="xtick_6">
     <g id="line2d_6">
      <g>
       <use xlink:href="#md0481f589c" x="674.690239" y="643.1985" style="stroke: #000000; stroke-width: 0.8"/>
      </g>
     </g>
     <g id="text_6">
      <!-- 10 -->
      <g transform="translate(659.675708 666.265062) scale(0.27 -0.27)">
       <defs>
        <path id="LiberationSans-31" d="M 488 0 
L 488 478 
L 1609 478 
L 1609 3866 
L 616 3156 
L 616 3688 
L 1656 4403 
L 2175 4403 
L 2175 478 
L 3247 478 
L 3247 0 
L 488 0 
z
" transform="scale(0.015625)"/>
       </defs>
       <use xlink:href="#LiberationSans-31"/>
       <use xlink:href="#LiberationSans-30" x="55.615234"/>
      </g>
     </g>
    </g>
    <g id="xtick_7">
     <g id="line2d_7">
      <defs>
       <path id="mb9d4066f18" d="M 0 0 
L 0 -2 
" style="stroke: #000000; stroke-width: 0.6"/>
      </defs>
      <g>
       <use xlink:href="#mb9d4066f18" x="139.060822" y="643.1985" style="stroke: #000000; stroke-width: 0.6"/>
      </g>
     </g>
    </g>
    <g id="xtick_8">
     <g id="line2d_8">
      <g>
       <use xlink:href="#mb9d4066f18" x="167.251844" y="643.1985" style="stroke: #000000; stroke-width: 0.6"/>
      </g>
     </g>
    </g>
    <g id="xtick_9">
     <g id="line2d_9">
      <g>
       <use xlink:href="#mb9d4066f18" x="195.442866" y="643.1985" style="stroke: #000000; stroke-width: 0.6"/>
      </g>
     </g>
    </g>
    <g id="xtick_10">
     <g id="line2d_10">
      <g>
       <use xlink:href="#mb9d4066f18" x="251.82491" y="643.1985" style="stroke: #000000; stroke-width: 0.6"/>
      </g>
     </g>
    </g>
    <g id="xtick_11">
     <g id="line2d_11">
      <g>
       <use xlink:href="#mb9d4066f18" x="280.015932" y="643.1985" style="stroke: #000000; stroke-width: 0.6"/>
      </g>
     </g>
    </g>
    <g id="xtick_12">
     <g id="line2d_12">
      <g>
       <use xlink:href="#mb9d4066f18" x="308.206954" y="643.1985" style="stroke: #000000; stroke-width: 0.6"/>
      </g>
     </g>
    </g>
    <g id="xtick_13">
     <g id="line2d_13">
      <g>
       <use xlink:href="#mb9d4066f18" x="364.588998" y="643.1985" style="stroke: #000000; stroke-width: 0.6"/>
      </g>
     </g>
    </g>
    <g id="xtick_14">
     <g id="line2d_14">
      <g>
       <use xlink:href="#mb9d4066f18" x="392.78002" y="643.1985" style="stroke: #000000; stroke-width: 0.6"/>
      </g>
     </g>
    </g>
    <g id="xtick_15">
     <g id="line2d_15">
      <g>
       <use xlink:href="#mb9d4066f18" x="420.971042" y="643.1985" style="stroke: #000000; stroke-width: 0.6"/>
      </g>
     </g>
    </g>
    <g id="xtick_16">
     <g id="line2d_16">
      <g>
       <use xlink:href="#mb9d4066f18" x="477.353086" y="643.1985" style="stroke: #000000; stroke-width: 0.6"/>
      </g>
     </g>
    </g>
    <g id="xtick_17">
     <g id="line2d_17">
      <g>
       <use xlink:href="#mb9d4066f18" x="505.544108" y="643.1985" style="stroke: #000000; stroke-width: 0.6"/>
      </g>
     </g>
    </g>
    <g id="xtick_18">
     <g id="line2d_18">
      <g>
       <use xlink:href="#mb9d4066f18" x="533.73513" y="643.1985" style="stroke: #000000; stroke-width: 0.6"/>
      </g>
     </g>
    </g>
    <g id="xtick_19">
     <g id="line2d_19">
      <g>
       <use xlink:href="#mb9d4066f18" x="590.117173" y="643.1985" style="stroke: #000000; stroke-width: 0.6"/>
      </g>
     </g>
    </g>
    <g id="xtick_20">
     <g id="line2d_20">
      <g>
       <use xlink:href="#mb9d4066f18" x="618.308195" y="643.1985" style="stroke: #000000; stroke-width: 0.6"/>
      </g>
     </g>
    </g>
    <g id="xtick_21">
     <g id="line2d_21">
      <g>
       <use xlink:href="#mb9d4066f18" x="646.499217" y="643.1985" style="stroke: #000000; stroke-width: 0.6"/>
      </g>
     </g>
    </g>
    <g id="text_7">
     <!-- Time ps -->
     <g transform="translate(340.031648 697.608187) scale(0.3 -0.3)">
      <defs>
       <path id="LiberationSans-54" d="M 2250 3916 
L 2250 0 
L 1656 0 
L 1656 3916 
L 144 3916 
L 144 4403 
L 3763 4403 
L 3763 3916 
L 2250 3916 
z
" transform="scale(0.015625)"/>
       <path id="LiberationSans-69" d="M 428 4100 
L 428 4638 
L 991 4638 
L 991 4100 
L 428 4100 
z
M 428 0 
L 428 3381 
L 991 3381 
L 991 0 
L 428 0 
z
" transform="scale(0.015625)"/>
       <path id="LiberationSans-6d" d="M 2400 0 
L 2400 2144 
Q 2400 2634 2265 2821 
Q 2131 3009 1781 3009 
Q 1422 3009 1212 2734 
Q 1003 2459 1003 1959 
L 1003 0 
L 444 0 
L 444 2659 
Q 444 3250 425 3381 
L 956 3381 
Q 959 3366 962 3297 
Q 966 3228 970 3139 
Q 975 3050 981 2803 
L 991 2803 
Q 1172 3163 1406 3303 
Q 1641 3444 1978 3444 
Q 2363 3444 2586 3291 
Q 2809 3138 2897 2803 
L 2906 2803 
Q 3081 3144 3329 3294 
Q 3578 3444 3931 3444 
Q 4444 3444 4676 3166 
Q 4909 2888 4909 2253 
L 4909 0 
L 4353 0 
L 4353 2144 
Q 4353 2634 4218 2821 
Q 4084 3009 3734 3009 
Q 3366 3009 3161 2736 
Q 2956 2463 2956 1959 
L 2956 0 
L 2400 0 
z
" transform="scale(0.015625)"/>
       <path id="LiberationSans-65" d="M 863 1572 
Q 863 991 1103 675 
Q 1344 359 1806 359 
Q 2172 359 2392 506 
Q 2613 653 2691 878 
L 3184 738 
Q 2881 -63 1806 -63 
Q 1056 -63 664 384 
Q 272 831 272 1713 
Q 272 2550 664 2997 
Q 1056 3444 1784 3444 
Q 3275 3444 3275 1647 
L 3275 1572 
L 863 1572 
z
M 2694 2003 
Q 2647 2538 2422 2783 
Q 2197 3028 1775 3028 
Q 1366 3028 1127 2754 
Q 888 2481 869 2003 
L 2694 2003 
z
" transform="scale(0.015625)"/>
       <path id="LiberationSans-20" transform="scale(0.015625)"/>
       <path id="LiberationSans-70" d="M 3291 1706 
Q 3291 -63 2047 -63 
Q 1266 -63 997 525 
L 981 525 
Q 994 500 994 -6 
L 994 -1328 
L 431 -1328 
L 431 2691 
Q 431 3213 413 3381 
L 956 3381 
Q 959 3369 965 3292 
Q 972 3216 980 3056 
Q 988 2897 988 2838 
L 1000 2838 
Q 1150 3150 1397 3295 
Q 1644 3441 2047 3441 
Q 2672 3441 2981 3022 
Q 3291 2603 3291 1706 
z
M 2700 1694 
Q 2700 2400 2509 2703 
Q 2319 3006 1903 3006 
Q 1569 3006 1380 2865 
Q 1191 2725 1092 2426 
Q 994 2128 994 1650 
Q 994 984 1206 668 
Q 1419 353 1897 353 
Q 2316 353 2508 661 
Q 2700 969 2700 1694 
z
" transform="scale(0.015625)"/>
       <path id="LiberationSans-73" d="M 2969 934 
Q 2969 456 2608 196 
Q 2247 -63 1597 -63 
Q 966 -63 623 145 
Q 281 353 178 794 
L 675 891 
Q 747 619 972 492 
Q 1197 366 1597 366 
Q 2025 366 2223 497 
Q 2422 628 2422 891 
Q 2422 1091 2284 1216 
Q 2147 1341 1841 1422 
L 1438 1528 
Q 953 1653 748 1773 
Q 544 1894 428 2066 
Q 313 2238 313 2488 
Q 313 2950 642 3192 
Q 972 3434 1603 3434 
Q 2163 3434 2492 3237 
Q 2822 3041 2909 2606 
L 2403 2544 
Q 2356 2769 2151 2889 
Q 1947 3009 1603 3009 
Q 1222 3009 1040 2893 
Q 859 2778 859 2544 
Q 859 2400 934 2306 
Q 1009 2213 1156 2147 
Q 1303 2081 1775 1966 
Q 2222 1853 2419 1758 
Q 2616 1663 2730 1547 
Q 2844 1431 2906 1279 
Q 2969 1128 2969 934 
z
" transform="scale(0.015625)"/>
      </defs>
      <use xlink:href="#LiberationSans-54"/>
      <use xlink:href="#LiberationSans-69" x="57.333984"/>
      <use xlink:href="#LiberationSans-6d" x="79.550781"/>
      <use xlink:href="#LiberationSans-65" x="162.851562"/>
      <use xlink:href="#LiberationSans-20" x="218.466797"/>
      <use xlink:href="#LiberationSans-70" x="246.25"/>
      <use xlink:href="#LiberationSans-73" x="301.865234"/>
     </g>
    </g>
   </g>
   <g id="matplotlib.axis_2">
    <g id="ytick_1">
     <g id="line2d_22">
      <defs>
       <path id="m0572594c40" d="M 0 0 
L 3.5 0 
" style="stroke: #000000; stroke-width: 0.8"/>
      </defs>
      <g>
       <use xlink:href="#m0572594c40" x="82.8" y="632.388341" style="stroke: #000000; stroke-width: 0.8"/>
      </g>
     </g>
     <g id="text_8">
      <!-- $\mathdefault{0.0}$ -->
      <g transform="translate(41.5 642.171622) scale(0.27 -0.27)">
       <defs>
        <path id="LiberationSans-2e" d="M 584 0 
L 584 684 
L 1194 684 
L 1194 0 
L 584 0 
z
" transform="scale(0.015625)"/>
       </defs>
       <use xlink:href="#LiberationSans-30" transform="translate(0 0.171875)"/>
       <use xlink:href="#LiberationSans-2e" transform="translate(55.615234 0.171875)"/>
       <use xlink:href="#LiberationSans-30" transform="translate(83.398438 0.171875)"/>
      </g>
     </g>
    </g>
    <g id="ytick_2">
     <g id="line2d_23">
      <g>
       <use xlink:href="#m0572594c40" x="82.8" y="556.580082" style="stroke: #000000; stroke-width: 0.8"/>
      </g>
     </g>
     <g id="text_9">
      <!-- $\mathdefault{0.2}$ -->
      <g transform="translate(41.5 566.363364) scale(0.27 -0.27)">
       <use xlink:href="#LiberationSans-30" transform="translate(0 0.171875)"/>
       <use xlink:href="#LiberationSans-2e" transform="translate(55.615234 0.171875)"/>
       <use xlink:href="#LiberationSans-32" transform="translate(83.398438 0.171875)"/>
      </g>
     </g>
    </g>
    <g id="ytick_3">
     <g id="line2d_24">
      <g>
       <use xlink:href="#m0572594c40" x="82.8" y="480.771824" style="stroke: #000000; stroke-width: 0.8"/>
      </g>
     </g>
     <g id="text_10">
      <!-- $\mathdefault{0.4}$ -->
      <g transform="translate(41.5 490.555105) scale(0.27 -0.27)">
       <use xlink:href="#LiberationSans-30" transform="translate(0 0.171875)"/>
       <use xlink:href="#LiberationSans-2e" transform="translate(55.615234 0.171875)"/>
       <use xlink:href="#LiberationSans-34" transform="translate(83.398438 0.171875)"/>
      </g>
     </g>
    </g>
    <g id="ytick_4">
     <g id="line2d_25">
      <g>
       <use xlink:href="#m0572594c40" x="82.8" y="404.963565" style="stroke: #000000; stroke-width: 0.8"/>
      </g>
     </g>
     <g id="text_11">
      <!-- $\mathdefault{0.6}$ -->
      <g transform="translate(41.5 414.746846) scale(0.27 -0.27)">
       <use xlink:href="#LiberationSans-30" transform="translate(0 0.171875)"/>
       <use xlink:href="#LiberationSans-2e" transform="translate(55.615234 0.171875)"/>
       <use xlink:href="#LiberationSans-36" transform="translate(83.398438 0.171875)"/>
      </g>
     </g>
    </g>
    <g id="ytick_5">
     <g id="line2d_26">
      <g>
       <use xlink:href="#m0572594c40" x="82.8" y="329.155306" style="stroke: #000000; stroke-width: 0.8"/>
      </g>
     </g>
     <g id="text_12">
      <!-- $\mathdefault{0.8}$ -->
      <g transform="translate(41.5 338.938587) scale(0.27 -0.27)">
       <use xlink:href="#LiberationSans-30" transform="translate(0 0.171875)"/>
       <use xlink:href="#LiberationSans-2e" transform="translate(55.615234 0.171875)"/>
       <use xlink:href="#LiberationSans-38" transform="translate(83.398438 0.171875)"/>
      </g>
     </g>
    </g>
    <g id="ytick_6">
     <g id="line2d_27">
      <g>
       <use xlink:href="#m0572594c40" x="82.8" y="253.347047" style="stroke: #000000; stroke-width: 0.8"/>
      </g>
     </g>
     <g id="text_13">
      <!-- $\mathdefault{1.0}$ -->
      <g transform="translate(41.5 263.130329) scale(0.27 -0.27)">
       <use xlink:href="#LiberationSans-31" transform="translate(0 0.171875)"/>
       <use xlink:href="#LiberationSans-2e" transform="translate(55.615234 0.171875)"/>
       <use xlink:href="#LiberationSans-30" transform="translate(83.398438 0.171875)"/>
      </g>
     </g>
    </g>
    <g id="ytick_7">
     <g id="line2d_28">
      <g>
       <use xlink:href="#m0572594c40" x="82.8" y="177.538789" style="stroke: #000000; stroke-width: 0.8"/>
      </g>
     </g>
     <g id="text_14">
      <!-- $\mathdefault{1.2}$ -->
      <g transform="translate(41.5 187.32207) scale(0.27 -0.27)">
       <use xlink:href="#LiberationSans-31" transform="translate(0 0.171875)"/>
       <use xlink:href="#LiberationSans-2e" transform="translate(55.615234 0.171875)"/>
       <use xlink:href="#LiberationSans-32" transform="translate(83.398438 0.171875)"/>
      </g>
     </g>
    </g>
    <g id="ytick_8">
     <g id="line2d_29">
      <g>
       <use xlink:href="#m0572594c40" x="82.8" y="101.73053" style="stroke: #000000; stroke-width: 0.8"/>
      </g>
     </g>
     <g id="text_15">
      <!-- $\mathdefault{1.4}$ -->
      <g transform="translate(41.5 111.513811) scale(0.27 -0.27)">
       <use xlink:href="#LiberationSans-31" transform="translate(0 0.203125)"/>
       <use xlink:href="#LiberationSans-2e" transform="translate(55.615234 0.203125)"/>
       <use xlink:href="#LiberationSans-34" transform="translate(83.398438 0.203125)"/>
      </g>
     </g>
    </g>
    <g id="ytick_9">
     <g id="line2d_30">
      <defs>
       <path id="m2a68f4cd0b" d="M 0 0 
L 2 0 
" style="stroke: #000000; stroke-width: 0.6"/>
      </defs>
      <g>
       <use xlink:href="#m2a68f4cd0b" x="82.8" y="613.436276" style="stroke: #000000; stroke-width: 0.6"/>
      </g>
     </g>
    </g>
    <g id="ytick_10">
     <g id="line2d_31">
      <g>
       <use xlink:href="#m2a68f4cd0b" x="82.8" y="594.484212" style="stroke: #000000; stroke-width: 0.6"/>
      </g>
     </g>
    </g>
    <g id="ytick_11">
     <g id="line2d_32">
      <g>
       <use xlink:href="#m2a68f4cd0b" x="82.8" y="575.532147" style="stroke: #000000; stroke-width: 0.6"/>
      </g>
     </g>
    </g>
    <g id="ytick_12">
     <g id="line2d_33">
      <g>
       <use xlink:href="#m2a68f4cd0b" x="82.8" y="537.628018" style="stroke: #000000; stroke-width: 0.6"/>
      </g>
     </g>
    </g>
    <g id="ytick_13">
     <g id="line2d_34">
      <g>
       <use xlink:href="#m2a68f4cd0b" x="82.8" y="518.675953" style="stroke: #000000; stroke-width: 0.6"/>
      </g>
     </g>
    </g>
    <g id="ytick_14">
     <g id="line2d_35">
      <g>
       <use xlink:href="#m2a68f4cd0b" x="82.8" y="499.723888" style="stroke: #000000; stroke-width: 0.6"/>
      </g>
     </g>
    </g>
    <g id="ytick_15">
     <g id="line2d_36">
      <g>
       <use xlink:href="#m2a68f4cd0b" x="82.8" y="461.819759" style="stroke: #000000; stroke-width: 0.6"/>
      </g>
     </g>
    </g>
    <g id="ytick_16">
     <g id="line2d_37">
      <g>
       <use xlink:href="#m2a68f4cd0b" x="82.8" y="442.867694" style="stroke: #000000; stroke-width: 0.6"/>
      </g>
     </g>
    </g>
    <g id="ytick_17">
     <g id="line2d_38">
      <g>
       <use xlink:href="#m2a68f4cd0b" x="82.8" y="423.91563" style="stroke: #000000; stroke-width: 0.6"/>
      </g>
     </g>
    </g>
    <g id="ytick_18">
     <g id="line2d_39">
      <g>
       <use xlink:href="#m2a68f4cd0b" x="82.8" y="386.0115" style="stroke: #000000; stroke-width: 0.6"/>
      </g>
     </g>
    </g>
    <g id="ytick_19">
     <g id="line2d_40">
      <g>
       <use xlink:href="#m2a68f4cd0b" x="82.8" y="367.059435" style="stroke: #000000; stroke-width: 0.6"/>
      </g>
     </g>
    </g>
    <g id="ytick_20">
     <g id="line2d_41">
      <g>
       <use xlink:href="#m2a68f4cd0b" x="82.8" y="348.107371" style="stroke: #000000; stroke-width: 0.6"/>
      </g>
     </g>
    </g>
    <g id="ytick_21">
     <g id="line2d_42">
      <g>
       <use xlink:href="#m2a68f4cd0b" x="82.8" y="310.203241" style="stroke: #000000; stroke-width: 0.6"/>
      </g>
     </g>
    </g>
    <g id="ytick_22">
     <g id="line2d_43">
      <g>
       <use xlink:href="#m2a68f4cd0b" x="82.8" y="291.251177" style="stroke: #000000; stroke-width: 0.6"/>
      </g>
     </g>
    </g>
    <g id="ytick_23">
     <g id="line2d_44">
      <g>
       <use xlink:href="#m2a68f4cd0b" x="82.8" y="272.299112" style="stroke: #000000; stroke-width: 0.6"/>
      </g>
     </g>
    </g>
    <g id="ytick_24">
     <g id="line2d_45">
      <g>
       <use xlink:href="#m2a68f4cd0b" x="82.8" y="234.394983" style="stroke: #000000; stroke-width: 0.6"/>
      </g>
     </g>
    </g>
    <g id="ytick_25">
     <g id="line2d_46">
      <g>
       <use xlink:href="#m2a68f4cd0b" x="82.8" y="215.442918" style="stroke: #000000; stroke-width: 0.6"/>
      </g>
     </g>
    </g>
    <g id="ytick_26">
     <g id="line2d_47">
      <g>
       <use xlink:href="#m2a68f4cd0b" x="82.8" y="196.490853" style="stroke: #000000; stroke-width: 0.6"/>
      </g>
     </g>
    </g>
    <g id="ytick_27">
     <g id="line2d_48">
      <g>
       <use xlink:href="#m2a68f4cd0b" x="82.8" y="158.586724" style="stroke: #000000; stroke-width: 0.6"/>
      </g>
     </g>
    </g>
    <g id="ytick_28">
     <g id="line2d_49">
      <g>
       <use xlink:href="#m2a68f4cd0b" x="82.8" y="139.634659" style="stroke: #000000; stroke-width: 0.6"/>
      </g>
     </g>
    </g>
    <g id="ytick_29">
     <g id="line2d_50">
      <g>
       <use xlink:href="#m2a68f4cd0b" x="82.8" y="120.682595" style="stroke: #000000; stroke-width: 0.6"/>
      </g>
     </g>
    </g>
    <g id="ytick_30">
     <g id="line2d_51">
      <g>
       <use xlink:href="#m2a68f4cd0b" x="82.8" y="82.778465" style="stroke: #000000; stroke-width: 0.6"/>
      </g>
     </g>
    </g>
    <g id="ytick_31">
     <g id="line2d_52">
      <g>
       <use xlink:href="#m2a68f4cd0b" x="82.8" y="63.826401" style="stroke: #000000; stroke-width: 0.6"/>
      </g>
     </g>
    </g>
    <g id="ytick_32">
     <g id="line2d_53">
      <g>
       <use xlink:href="#m2a68f4cd0b" x="82.8" y="44.874336" style="stroke: #000000; stroke-width: 0.6"/>
      </g>
     </g>
    </g>
    <g id="text_16">
     <!-- ITC $\mathrm{W} / (\mathrm{K} \cdot \mathrm{m}^2)$ -->
     <g transform="translate(31.275 435.243) rotate(-90) scale(0.3 -0.3)">
      <defs>
       <path id="LiberationSans-49" d="M 591 0 
L 591 4403 
L 1188 4403 
L 1188 0 
L 591 0 
z
" transform="scale(0.015625)"/>
       <path id="LiberationSans-43" d="M 2475 3981 
Q 1744 3981 1337 3511 
Q 931 3041 931 2222 
Q 931 1413 1354 920 
Q 1778 428 2500 428 
Q 3425 428 3891 1344 
L 4378 1100 
Q 4106 531 3614 234 
Q 3122 -63 2472 -63 
Q 1806 -63 1320 214 
Q 834 491 579 1005 
Q 325 1519 325 2222 
Q 325 3275 894 3872 
Q 1463 4469 2469 4469 
Q 3172 4469 3644 4194 
Q 4116 3919 4338 3378 
L 3772 3191 
Q 3619 3575 3280 3778 
Q 2941 3981 2475 3981 
z
" transform="scale(0.015625)"/>
       <path id="STIXGeneral-Regular-57" d="M 5965 4237 
L 5965 4115 
Q 5709 4064 5616 3990 
Q 5523 3917 5434 3667 
Q 4704 1709 4128 -70 
L 4032 -70 
Q 3642 1011 3008 2637 
L 2022 -70 
L 1926 -70 
Q 1709 576 1277 1753 
Q 845 2931 698 3347 
Q 538 3808 406 3958 
Q 275 4109 32 4115 
L 32 4237 
L 1594 4237 
L 1594 4115 
Q 1357 4109 1270 4064 
Q 1184 4019 1184 3917 
Q 1184 3808 1254 3616 
L 2176 1210 
L 2842 3021 
L 2662 3501 
Q 2509 3917 2400 4013 
Q 2291 4109 2010 4115 
L 2010 4237 
L 3706 4237 
L 3706 4115 
Q 3213 4102 3213 3891 
Q 3213 3808 3322 3520 
L 4237 1190 
L 5043 3360 
Q 5152 3667 5152 3853 
Q 5152 4109 4704 4115 
L 4704 4237 
L 5965 4237 
z
" transform="scale(0.015625)"/>
       <path id="STIXGeneral-Regular-2f" d="M 1837 4326 
L 378 -90 
L -58 -90 
L 1408 4326 
L 1837 4326 
z
" transform="scale(0.015625)"/>
       <path id="STIXGeneral-Regular-28" d="M 1946 -1030 
L 1869 -1133 
Q 1126 -710 716 32 
Q 307 774 307 1613 
Q 307 3386 1888 4326 
L 1946 4224 
Q 1293 3667 1075 3126 
Q 858 2586 858 1632 
Q 858 685 1082 96 
Q 1306 -493 1946 -1030 
z
" transform="scale(0.015625)"/>
       <path id="STIXGeneral-Regular-4b" d="M 4627 0 
L 2688 0 
L 2688 122 
L 2861 128 
Q 3130 134 3130 282 
Q 3130 397 2922 643 
Q 2714 890 2253 1370 
L 1613 2029 
L 1446 1894 
L 1446 710 
Q 1446 352 1548 253 
Q 1651 154 2016 122 
L 2016 0 
L 211 0 
L 211 122 
Q 589 141 691 262 
Q 794 384 794 800 
L 794 3514 
Q 794 3872 691 3981 
Q 589 4090 218 4115 
L 218 4237 
L 2022 4237 
L 2022 4115 
Q 1632 4090 1539 3987 
Q 1446 3885 1446 3507 
L 1446 2227 
L 2586 3277 
Q 2861 3533 2973 3667 
Q 3085 3802 3085 3910 
Q 3085 4013 3030 4057 
Q 2976 4102 2822 4109 
L 2662 4115 
L 2662 4237 
L 4320 4237 
L 4320 4115 
Q 3994 4090 3824 4003 
Q 3654 3917 3322 3597 
L 2131 2458 
L 3629 819 
Q 4026 384 4214 253 
Q 4403 122 4627 122 
L 4627 0 
z
" transform="scale(0.015625)"/>
       <path id="STIXGeneral-Regular-22c5" d="M 1187 1888 
Q 1299 1773 1299 1619 
Q 1299 1466 1187 1350 
Q 1075 1235 921 1235 
Q 768 1235 649 1353 
Q 531 1472 531 1619 
Q 531 1766 649 1884 
Q 768 2003 921 2003 
Q 1075 2003 1187 1888 
z
" transform="scale(0.015625)"/>
       <path id="STIXGeneral-Regular-6d" d="M 4960 0 
L 3565 0 
L 3565 96 
Q 3834 122 3907 208 
Q 3981 294 3981 576 
L 3981 1894 
Q 3981 2278 3869 2444 
Q 3757 2611 3488 2611 
Q 3264 2611 3107 2521 
Q 2950 2432 2803 2221 
L 2803 608 
Q 2803 301 2896 201 
Q 2989 102 3264 96 
L 3264 0 
L 1830 0 
L 1830 96 
Q 2112 115 2189 188 
Q 2266 262 2266 550 
L 2266 1901 
Q 2266 2611 1850 2611 
Q 1670 2611 1468 2531 
Q 1267 2451 1171 2336 
Q 1088 2240 1088 2227 
L 1088 448 
Q 1088 243 1177 176 
Q 1267 109 1523 96 
L 1523 0 
L 102 0 
L 102 96 
Q 371 102 460 195 
Q 550 288 550 563 
L 550 2150 
Q 550 2387 499 2480 
Q 448 2573 326 2573 
Q 230 2573 122 2547 
L 122 2656 
Q 557 2778 1011 2944 
L 1062 2925 
L 1062 2451 
L 1075 2451 
Q 1363 2752 1584 2848 
Q 1805 2944 2054 2944 
Q 2560 2944 2733 2406 
Q 3232 2944 3776 2944 
Q 4518 2944 4518 1792 
L 4518 493 
Q 4518 282 4582 202 
Q 4646 122 4794 109 
L 4960 96 
L 4960 0 
z
" transform="scale(0.015625)"/>
       <path id="STIXGeneral-Regular-32" d="M 3034 877 
L 2688 0 
L 186 0 
L 186 77 
L 1325 1286 
Q 1773 1754 1965 2144 
Q 2157 2534 2157 2950 
Q 2157 3379 1920 3616 
Q 1683 3853 1267 3853 
Q 922 3853 720 3673 
Q 518 3494 326 3021 
L 192 3053 
Q 301 3648 630 3987 
Q 960 4326 1523 4326 
Q 2054 4326 2380 4006 
Q 2707 3686 2707 3200 
Q 2707 2477 1888 1613 
L 832 486 
L 2330 486 
Q 2541 486 2665 569 
Q 2790 653 2944 915 
L 3034 877 
z
" transform="scale(0.015625)"/>
       <path id="STIXGeneral-Regular-29" d="M 186 4224 
L 262 4326 
Q 992 3891 1408 3148 
Q 1824 2406 1824 1581 
Q 1824 -166 243 -1133 
L 186 -1030 
Q 845 -486 1059 54 
Q 1274 595 1274 1562 
Q 1274 2534 1059 3120 
Q 845 3706 186 4224 
z
" transform="scale(0.015625)"/>
      </defs>
      <use xlink:href="#LiberationSans-49" transform="translate(0 0.409375)"/>
      <use xlink:href="#LiberationSans-54" transform="translate(27.783203 0.409375)"/>
      <use xlink:href="#LiberationSans-43" transform="translate(88.867188 0.409375)"/>
      <use xlink:href="#LiberationSans-20" transform="translate(161.083984 0.409375)"/>
      <use xlink:href="#STIXGeneral-Regular-57" transform="translate(188.867188 0.409375)"/>
      <use xlink:href="#STIXGeneral-Regular-2f" transform="translate(283.267181 0.409375)"/>
      <use xlink:href="#STIXGeneral-Regular-28" transform="translate(311.067169 0.409375)"/>
      <use xlink:href="#STIXGeneral-Regular-4b" transform="translate(344.367157 0.409375)"/>
      <use xlink:href="#STIXGeneral-Regular-22c5" transform="translate(431.007135 0.409375)"/>
      <use xlink:href="#STIXGeneral-Regular-6d" transform="translate(474.047122 0.409375)"/>
      <use xlink:href="#STIXGeneral-Regular-32" transform="translate(553.390391 35.684375) scale(0.7)"/>
      <use xlink:href="#STIXGeneral-Regular-29" transform="translate(592.799756 0.409375)"/>
     </g>
    </g>
    <g id="text_17">
     <!-- $\times\mathdefault{10^{7}}\mathdefault{}$ -->
     <g transform="translate(82.8 36.1875) scale(0.4 -0.4)">
      <defs>
       <path id="STIXGeneral-Regular-d7" d="M 3821 141 
L 3526 -160 
L 2048 1312 
L 570 -160 
L 275 134 
L 1747 1613 
L 275 3091 
L 576 3386 
L 2048 1914 
L 3526 3386 
L 3821 3098 
L 2349 1613 
L 3821 141 
z
" transform="scale(0.015625)"/>
       <path id="LiberationSans-37" d="M 3238 3947 
Q 2563 2916 2284 2331 
Q 2006 1747 1867 1178 
Q 1728 609 1728 0 
L 1141 0 
Q 1141 844 1498 1776 
Q 1856 2709 2694 3925 
L 328 3925 
L 328 4403 
L 3238 4403 
L 3238 3947 
z
" transform="scale(0.015625)"/>
      </defs>
      <use xlink:href="#STIXGeneral-Regular-d7" transform="translate(0 0.8625)"/>
      <use xlink:href="#LiberationSans-31" transform="translate(63.999985 0.8625)"/>
      <use xlink:href="#LiberationSans-30" transform="translate(119.615219 0.8625)"/>
      <use xlink:href="#LiberationSans-37" transform="translate(176.154946 37.842188) scale(0.7)"/>
     </g>
    </g>
   </g>
   <g id="line2d_54">
    <path d="M 110.982565 615.743455 
L 112.166588 298.529259 
L 112.843172 170.329682 
L 113.406993 102.752804 
L 113.801667 76.737243 
L 114.083577 68.139162 
L 114.252723 66.642545 
L 114.309105 66.714148 
L 114.421869 67.67047 
L 114.647397 72.626036 
L 114.98569 86.720801 
L 115.493128 119.413295 
L 116.395241 196.280112 
L 118.143084 345.470979 
L 119.157961 412.90468 
L 120.060074 458.964758 
L 120.79304 486.311039 
L 121.413243 502.02783 
L 121.920681 509.731044 
L 122.258973 512.34311 
L 122.484502 513.013494 
L 122.597266 513.041123 
L 122.766412 512.714261 
L 122.99194 511.627748 
L 123.330232 508.72653 
L 123.837671 502.023745 
L 124.627019 487.976353 
L 126.431245 454.962733 
L 127.164211 445.759356 
L 127.784414 440.627338 
L 128.291852 438.160334 
L 128.686526 437.238709 
L 128.968437 437.078324 
L 129.193965 437.231813 
L 129.475875 437.760986 
L 129.870549 439.122064 
L 130.321606 441.547534 
L 130.885426 445.858967 
L 131.618393 453.377069 
L 132.633269 466.389596 
L 135.057697 498.568176 
L 135.790664 505.080056 
L 136.354484 508.257144 
L 136.749159 509.485528 
L 137.087451 509.903888 
L 137.312979 509.874753 
L 137.594889 509.518881 
L 137.933182 508.67933 
L 138.44062 506.744869 
L 139.286351 502.446618 
L 140.583138 495.937464 
L 141.259722 493.673302 
L 141.767161 492.641417 
L 142.218217 492.144608 
L 142.669273 491.943066 
L 143.345858 491.915015 
L 144.247971 491.841923 
L 144.868173 491.537727 
L 145.60114 490.890836 
L 146.954309 489.639356 
L 147.461747 489.457525 
L 147.912803 489.517894 
L 148.420242 489.822672 
L 148.984062 490.429952 
L 149.886175 491.787433 
L 150.957434 493.783157 
L 152.028693 496.326423 
L 155.129705 504.083109 
L 155.637143 504.64113 
L 156.0882 504.8139 
L 156.482874 504.72365 
L 156.93393 504.368583 
L 157.554133 503.542659 
L 158.625392 501.629766 
L 159.696651 499.89856 
L 160.711527 498.710237 
L 164.038068 495.244378 
L 165.447619 493.26337 
L 166.29335 491.706344 
L 167.364609 489.197842 
L 168.605013 486.347993 
L 169.33798 485.173428 
L 169.9018 484.627692 
L 170.409239 484.408582 
L 170.916677 484.425394 
L 171.480498 484.672152 
L 172.269846 485.286385 
L 174.468746 487.145856 
L 175.258095 487.489404 
L 176.047443 487.59269 
L 177.06232 487.469958 
L 178.641017 487.275215 
L 179.430366 487.433675 
L 180.219715 487.842492 
L 181.234591 488.664363 
L 183.038817 490.159746 
L 183.715401 490.430423 
L 184.335604 490.450457 
L 184.955806 490.253202 
L 185.745155 489.739236 
L 188.564257 487.600815 
L 189.353606 487.394423 
L 190.199336 487.405416 
L 191.326977 487.668821 
L 194.258843 488.695586 
L 195.837541 489.115114 
L 197.47262 489.280049 
L 199.107699 489.50372 
L 200.630014 489.962782 
L 201.926801 490.286298 
L 202.71615 490.261417 
L 203.505499 489.999526 
L 204.407611 489.436176 
L 206.042691 488.064269 
L 207.339478 487.119167 
L 208.24159 486.717692 
L 209.143703 486.549225 
L 210.384108 486.571337 
L 212.131951 486.594832 
L 215.176582 486.449322 
L 216.078694 486.715189 
L 216.980807 487.216807 
L 217.995684 488.060243 
L 220.64564 490.502269 
L 221.20946 490.61507 
L 221.716899 490.471259 
L 222.224337 490.07683 
L 222.84454 489.270865 
L 223.69027 487.733535 
L 225.438114 484.426988 
L 226.114698 483.623202 
L 226.678519 483.266296 
L 227.185957 483.182 
L 227.749777 483.31331 
L 228.539126 483.765023 
L 230.343352 484.894491 
L 231.1327 485.081423 
L 232.091195 485.051884 
L 233.557128 484.981988 
L 234.290095 485.207131 
L 235.023061 485.693388 
L 235.925174 486.607326 
L 237.842163 488.665082 
L 238.518748 489.031608 
L 239.082568 489.098073 
L 239.646389 488.93554 
L 240.266591 488.502437 
L 240.999558 487.699646 
L 242.070817 486.154086 
L 244.044188 483.245594 
L 244.777155 482.570186 
L 245.397357 482.296685 
L 245.961178 482.30863 
L 246.524998 482.555883 
L 247.257965 483.157928 
L 249.795157 485.513186 
L 250.471741 485.71675 
L 251.204708 485.696543 
L 253.7419 485.36651 
L 254.418484 485.664854 
L 255.151451 486.263052 
L 256.279092 487.533521 
L 257.406733 488.69607 
L 258.026935 489.05173 
L 258.534373 489.119342 
L 259.041812 488.962074 
L 259.605632 488.523136 
L 260.282217 487.680344 
L 261.46624 485.757365 
L 262.537499 484.176681 
L 263.214083 483.533595 
L 263.777904 483.274757 
L 264.285342 483.26441 
L 264.849162 483.479488 
L 265.525747 483.995442 
L 266.540624 485.09407 
L 268.344849 487.062542 
L 269.246962 487.691864 
L 270.092692 488.018038 
L 271.276715 488.210348 
L 272.573502 488.470132 
L 273.362851 488.856082 
L 274.208582 489.538692 
L 275.618133 491.054017 
L 276.520245 491.859682 
L 277.084066 492.112752 
L 277.591504 492.107147 
L 278.098943 491.84967 
L 278.606381 491.333309 
L 279.226584 490.377735 
L 280.128696 488.515645 
L 281.707393 485.212535 
L 282.44036 484.184524 
L 283.060563 483.6915 
L 283.568001 483.546981 
L 284.131821 483.632386 
L 284.808406 483.999406 
L 285.879665 484.896596 
L 287.12007 485.8545 
L 287.909418 486.187117 
L 288.698767 486.270411 
L 289.770026 486.126968 
L 291.179577 485.97029 
L 292.138072 486.106879 
L 293.604005 486.59549 
L 294.675264 486.844607 
L 295.40823 486.7991 
L 296.084815 486.521597 
L 296.761399 485.980852 
L 297.550748 485.025506 
L 298.509243 483.482202 
L 301.159199 478.953689 
L 301.835783 478.317856 
L 302.399604 478.055114 
L 302.963424 478.023831 
L 303.640009 478.234001 
L 304.542121 478.790105 
L 306.177201 480.126123 
L 308.150572 481.985783 
L 309.672887 483.342323 
L 310.462236 483.749206 
L 311.13882 483.854858 
L 311.815405 483.733465 
L 312.604754 483.354387 
L 315.987676 481.426432 
L 317.228081 481.147491 
L 319.878037 480.853624 
L 321.231206 480.896003 
L 322.527993 481.17543 
L 324.444983 481.857473 
L 327.376849 483.082613 
L 328.673636 483.896515 
L 331.661884 485.904722 
L 332.394851 486.066464 
L 333.015053 485.983862 
L 333.635256 485.664036 
L 334.31184 485.037198 
L 335.101189 483.979643 
L 336.454358 481.706802 
L 337.525617 480.071127 
L 338.258583 479.310705 
L 338.878786 478.946305 
L 339.498988 478.830583 
L 340.119191 478.933036 
L 340.90854 479.310638 
L 342.261709 480.274491 
L 343.445732 481.009389 
L 344.23508 481.23894 
L 344.968047 481.20494 
L 345.757395 480.926503 
L 347.956295 479.973929 
L 348.576498 480.012389 
L 349.1967 480.26875 
L 349.986049 480.866573 
L 352.128566 482.661052 
L 352.692387 482.789302 
L 353.199825 482.686189 
L 353.763646 482.318664 
L 354.383848 481.634354 
L 355.229579 480.344369 
L 357.259332 477.103067 
L 357.935917 476.465519 
L 358.556119 476.184192 
L 359.11994 476.171108 
L 359.796524 476.403367 
L 360.698637 476.987842 
L 362.953919 478.559437 
L 364.025178 478.977661 
L 365.096436 479.151802 
L 367.577246 479.427992 
L 368.592123 479.877229 
L 370.960169 481.066884 
L 371.636753 481.102129 
L 372.313338 480.921296 
L 373.159069 480.443397 
L 375.188822 479.188087 
L 375.865407 479.076491 
L 376.485609 479.184279 
L 377.218576 479.558203 
L 378.233453 480.367434 
L 380.150442 481.930668 
L 380.939791 482.282854 
L 381.672757 482.364618 
L 382.405724 482.217024 
L 383.533365 481.716935 
L 384.661006 481.283751 
L 385.33759 481.253576 
L 385.957793 481.449715 
L 386.634377 481.907582 
L 387.649254 482.910839 
L 388.776895 483.959533 
L 389.340715 484.21987 
L 389.791772 484.214878 
L 390.242828 483.987535 
L 390.750266 483.452644 
L 391.370469 482.413693 
L 392.159817 480.606144 
L 394.527863 474.819607 
L 395.148066 473.960448 
L 395.655504 473.585651 
L 396.106561 473.508408 
L 396.557617 473.663305 
L 397.065055 474.086486 
L 397.74164 474.975297 
L 398.869281 476.906877 
L 400.22245 479.105664 
L 401.011798 479.991047 
L 401.688383 480.439039 
L 402.364967 480.628735 
L 403.26708 480.631503 
L 404.789395 480.615904 
L 405.635126 480.865532 
L 406.931913 481.5433 
L 408.003172 481.993689 
L 408.679756 482.045604 
L 409.299959 481.866226 
L 409.920161 481.45119 
L 410.653128 480.684327 
L 411.724387 479.191672 
L 413.246702 477.110894 
L 413.979668 476.482599 
L 414.599871 476.241267 
L 415.163691 476.256844 
L 415.783894 476.496697 
L 416.629624 477.079902 
L 418.884906 478.75949 
L 419.787019 479.100653 
L 420.576368 479.17495 
L 421.365716 479.015283 
L 422.211447 478.598701 
L 423.846526 477.447288 
L 424.805021 476.94926 
L 425.594369 476.780541 
L 426.496482 476.823143 
L 428.469854 476.994741 
L 429.710259 476.791593 
L 431.063428 476.604836 
L 431.852776 476.722543 
L 432.642125 477.068034 
L 433.657002 477.789118 
L 435.292081 478.969017 
L 436.025048 479.231542 
L 436.701632 479.243759 
L 437.434599 479.014758 
L 438.675004 478.323058 
L 439.577116 477.937454 
L 440.197319 477.898409 
L 440.761139 478.083819 
L 441.381342 478.544875 
L 442.114308 479.401455 
L 443.241949 481.124262 
L 444.538736 482.995042 
L 445.215321 483.592471 
L 445.722759 483.764066 
L 446.173815 483.68102 
L 446.624872 483.36303 
L 447.13231 482.726974 
L 447.808895 481.464063 
L 448.711007 479.242224 
L 450.684379 474.21625 
L 451.473728 472.874277 
L 452.09393 472.218137 
L 452.657751 471.916616 
L 453.221571 471.854367 
L 453.898155 472.00698 
L 455.025796 472.531606 
L 456.322583 473.071504 
L 457.281078 473.229383 
L 458.690629 473.187051 
L 459.761888 473.246036 
L 460.494855 473.496984 
L 461.227821 473.978649 
L 462.186316 474.914825 
L 464.385216 477.185832 
L 465.118182 477.607703 
L 465.738385 477.737377 
L 466.358587 477.644546 
L 467.035172 477.317587 
L 467.937284 476.613593 
L 470.136184 474.77582 
L 470.925533 474.467718 
L 471.658499 474.431272 
L 472.447848 474.622695 
L 473.688253 475.190321 
L 475.492478 475.983568 
L 477.240322 476.451748 
L 479.044547 476.731738 
L 480.397716 476.723803 
L 481.863649 476.496414 
L 483.442346 476.02493 
L 484.795516 475.399592 
L 486.317831 474.430059 
L 488.065674 473.344284 
L 488.911405 473.093407 
L 489.587989 473.115883 
L 490.320956 473.379755 
L 491.223069 473.979863 
L 493.421968 475.581821 
L 494.211317 475.827941 
L 495.11343 475.864716 
L 497.086801 475.843054 
L 497.819768 476.114892 
L 498.609116 476.645894 
L 500.018667 477.935059 
L 501.033544 478.72406 
L 501.710129 478.971243 
L 502.273949 478.933693 
L 502.781388 478.682979 
L 503.345208 478.157798 
L 504.021792 477.211267 
L 504.980287 475.43586 
L 506.840895 471.916305 
L 507.573861 471.044708 
L 508.194064 470.63678 
L 508.757884 470.514449 
L 509.378087 470.604362 
L 510.336581 471.011826 
L 511.802515 471.61791 
L 512.761009 471.755058 
L 514.17056 471.691063 
L 515.467347 471.70387 
L 516.313078 471.946057 
L 517.102427 472.413994 
L 517.948157 473.191008 
L 519.244944 474.754287 
L 520.541731 476.209172 
L 521.218316 476.672479 
L 521.782136 476.808224 
L 522.289575 476.707656 
L 522.853395 476.344669 
L 523.52998 475.59377 
L 524.432092 474.207044 
L 526.349082 471.162474 
L 527.082048 470.420086 
L 527.758633 470.031885 
L 528.435217 469.908039 
L 529.168184 470.01089 
L 530.126679 470.394843 
L 531.367084 471.149284 
L 533.002163 472.417042 
L 534.975535 473.907739 
L 536.046793 474.439822 
L 537.174434 474.754817 
L 538.245693 474.824904 
L 539.147806 474.671849 
L 539.993536 474.291069 
L 540.839267 473.653164 
L 542.079672 472.383707 
L 543.320077 471.194457 
L 543.996662 470.826483 
L 544.560482 470.755632 
L 545.124302 470.918154 
L 545.744505 471.35752 
L 546.533854 472.23469 
L 549.296574 475.609431 
L 549.916776 475.935973 
L 550.480597 476.009697 
L 551.100799 475.857112 
L 551.833766 475.422647 
L 554.314576 473.70518 
L 554.934778 473.65141 
L 555.554981 473.839325 
L 556.231565 474.309972 
L 557.133678 475.256351 
L 558.712375 476.94488 
L 559.38896 477.320128 
L 559.95278 477.369114 
L 560.460218 477.191648 
L 561.024039 476.76044 
L 561.757005 475.891402 
L 562.884646 474.141293 
L 564.294197 472.025869 
L 565.027164 471.313864 
L 565.647366 471.019023 
L 566.211187 471.004018 
L 566.831389 471.228137 
L 567.733502 471.838557 
L 569.143053 472.789574 
L 569.87602 473.018063 
L 570.608986 473.018528 
L 573.033414 472.785095 
L 573.709999 473.093366 
L 574.499347 473.735824 
L 577.205685 476.235769 
L 577.88227 476.448294 
L 578.615237 476.432246 
L 579.460967 476.167686 
L 580.588608 475.552365 
L 585.099172 472.824691 
L 586.17043 472.611373 
L 587.410835 472.611253 
L 589.215061 472.867984 
L 591.301196 473.333648 
L 592.146927 473.759399 
L 592.936276 474.40948 
L 593.838388 475.474796 
L 595.868142 478.017511 
L 596.431962 478.351068 
L 596.939401 478.398899 
L 597.446839 478.19552 
L 598.01066 477.699372 
L 598.800008 476.657644 
L 600.49147 474.324181 
L 601.168054 473.796052 
L 601.731875 473.62551 
L 602.295695 473.695094 
L 602.915897 474.003149 
L 603.874392 474.776377 
L 605.509471 476.119707 
L 606.355202 476.530324 
L 607.257315 476.710742 
L 610.301945 477.057344 
L 611.091294 477.534806 
L 612.106171 478.433543 
L 613.797632 479.966726 
L 614.417834 480.212271 
L 614.925273 480.161159 
L 615.376329 479.88495 
L 615.883768 479.292911 
L 616.50397 478.170132 
L 617.293319 476.208755 
L 620.168803 468.455379 
L 620.789005 467.595189 
L 621.296444 467.223786 
L 621.803882 467.134172 
L 622.311321 467.286799 
L 622.987905 467.766069 
L 624.22831 469.006171 
L 625.525097 470.163688 
L 626.652738 470.850011 
L 628.851638 472.090504 
L 629.922896 473.038918 
L 632.854763 475.836749 
L 633.531347 476.080191 
L 634.095168 476.04863 
L 634.658988 475.779614 
L 635.279191 475.203807 
L 636.012157 474.187425 
L 637.083416 472.264926 
L 638.549349 469.699572 
L 639.225934 468.914533 
L 639.789754 468.568334 
L 640.297193 468.517632 
L 640.804631 468.701501 
L 641.424833 469.193611 
L 642.326946 470.253062 
L 644.976902 473.564698 
L 646.217307 474.697469 
L 647.288566 475.389563 
L 648.247061 475.74964 
L 649.261938 475.888283 
L 650.784253 475.839833 
L 652.475714 475.611816 
L 653.321445 475.25409 
L 654.054411 474.698395 
L 654.900142 473.760111 
L 657.775626 470.252775 
L 658.395829 469.983478 
L 658.959649 469.962692 
L 659.636234 470.180561 
L 660.538346 470.750939 
L 662.5681 472.128037 
L 663.470213 472.412867 
L 666.176551 473.007104 
L 666.909517 473.579818 
L 667.755248 474.56175 
L 670.461586 478.035448 
L 671.025406 478.286177 
L 671.476463 478.263968 
L 671.927519 478.028169 
L 672.434958 477.51121 
L 673.111542 476.455846 
L 674.126419 474.357745 
L 674.633857 473.23143 
L 674.633857 473.23143 
" clip-path="url(#p1a25145d16)" style="fill: none; stroke: #0000ff; stroke-width: 1.5; stroke-linecap: square"/>
   </g>
   <g id="patch_3">
    <path d="M 82.8 643.1985 
L 82.8 39.1875 
" style="fill: none; stroke: #000000; stroke-width: 0.8; stroke-linejoin: miter; stroke-linecap: square"/>
   </g>
   <g id="patch_4">
    <path d="M 702.816422 643.1985 
L 702.816422 39.1875 
" style="fill: none; stroke: #000000; stroke-width: 0.8; stroke-linejoin: miter; stroke-linecap: square"/>
   </g>
   <g id="patch_5">
    <path d="M 82.8 643.1985 
L 702.816422 643.1985 
" style="fill: none; stroke: #000000; stroke-width: 0.8; stroke-linejoin: miter; stroke-linecap: square"/>
   </g>
   <g id="patch_6">
    <path d="M 82.8 39.1875 
L 702.816422 39.1875 
" style="fill: none; stroke: #000000; stroke-width: 0.8; stroke-linejoin: miter; stroke-linecap: square"/>
   </g>
  </g>
 </g>
 <defs>
  <clipPath id="p1a25145d16">
   <rect x="82.8" y="39.1875" width="620.016422" height="604.011"/>
  </clipPath>
 </defs>
</svg>
