<?xml version="1.0" encoding="utf-8" standalone="no"?>
<!DOCTYPE svg PUBLIC "-//W3C//DTD SVG 1.1//EN"
  "http://www.w3.org/Graphics/SVG/1.1/DTD/svg11.dtd">
<svg xmlns:xlink="http://www.w3.org/1999/xlink" width="712.051113pt" height="711.02175pt" viewBox="0 0 712.051113 711.02175" xmlns="http://www.w3.org/2000/svg" version="1.1">
 <metadata>
  <rdf:RDF xmlns:dc="http://purl.org/dc/elements/1.1/" xmlns:cc="http://creativecommons.org/ns#" xmlns:rdf="http://www.w3.org/1999/02/22-rdf-syntax-ns#">
   <cc:Work>
    <dc:type rdf:resource="http://purl.org/dc/dcmitype/StillImage"/>
    <dc:date>2025-02-06T00:35:39.878558</dc:date>
    <dc:format>image/svg+xml</dc:format>
    <dc:creator>
     <cc:Agent>
      <dc:title>Matplotlib v3.9.3, https://matplotlib.org/</dc:title>
     </cc:Agent>
    </dc:creator>
   </cc:Work>
  </rdf:RDF>
 </metadata>
 <defs>
  <style type="text/css">*{stroke-linejoin: round; stroke-linecap: butt}</style>
 </defs>
 <g id="figure_1">
  <g id="patch_1">
   <path d="M 0 711.02175 
L 712.051113 711.02175 
L 712.051113 0 
L 0 0 
z
" style="fill: #ffffff"/>
  </g>
  <g id="axes_1">
   <g id="patch_2">
    <path d="M 84.665625 640.3905 
L 704.851113 640.3905 
L 704.851113 39.1875 
L 84.665625 39.1875 
z
" style="fill: #ffffff"/>
   </g>
   <g id="matplotlib.axis_1">
    <g id="xtick_1">
     <g id="line2d_1">
      <defs>
       <path id="m47121e194e" d="M 0 0 
L 0 -3.5 
" style="stroke: #000000; stroke-width: 0.8"/>
      </defs>
      <g>
       <use xlink:href="#m47121e194e" x="112.799483" y="640.3905" style="stroke: #000000; stroke-width: 0.8"/>
      </g>
     </g>
     <g id="text_1">
      <!-- 0 -->
      <g transform="translate(104.458076 665.631125) scale(0.3 -0.3)">
       <defs>
        <path id="LiberationSans-30" d="M 3309 2203 
Q 3309 1100 2920 518 
Q 2531 -63 1772 -63 
Q 1013 -63 631 515 
Q 250 1094 250 2203 
Q 250 3338 620 3903 
Q 991 4469 1791 4469 
Q 2569 4469 2939 3897 
Q 3309 3325 3309 2203 
z
M 2738 2203 
Q 2738 3156 2517 3584 
Q 2297 4013 1791 4013 
Q 1272 4013 1045 3591 
Q 819 3169 819 2203 
Q 819 1266 1048 831 
Q 1278 397 1778 397 
Q 2275 397 2506 840 
Q 2738 1284 2738 2203 
z
" transform="scale(0.015625)"/>
       </defs>
       <use xlink:href="#LiberationSans-30"/>
      </g>
     </g>
    </g>
    <g id="xtick_2">
     <g id="line2d_2">
      <g>
       <use xlink:href="#m47121e194e" x="225.583037" y="640.3905" style="stroke: #000000; stroke-width: 0.8"/>
      </g>
     </g>
     <g id="text_2">
      <!-- 2 -->
      <g transform="translate(217.241631 665.631125) scale(0.3 -0.3)">
       <defs>
        <path id="LiberationSans-32" d="M 322 0 
L 322 397 
Q 481 763 711 1042 
Q 941 1322 1194 1548 
Q 1447 1775 1695 1969 
Q 1944 2163 2144 2356 
Q 2344 2550 2467 2762 
Q 2591 2975 2591 3244 
Q 2591 3606 2378 3806 
Q 2166 4006 1788 4006 
Q 1428 4006 1195 3811 
Q 963 3616 922 3263 
L 347 3316 
Q 409 3844 795 4156 
Q 1181 4469 1788 4469 
Q 2453 4469 2811 4155 
Q 3169 3841 3169 3263 
Q 3169 3006 3051 2753 
Q 2934 2500 2703 2247 
Q 2472 1994 1819 1463 
Q 1459 1169 1246 933 
Q 1034 697 941 478 
L 3238 478 
L 3238 0 
L 322 0 
z
" transform="scale(0.015625)"/>
       </defs>
       <use xlink:href="#LiberationSans-32"/>
      </g>
     </g>
    </g>
    <g id="xtick_3">
     <g id="line2d_3">
      <g>
       <use xlink:href="#m47121e194e" x="338.366592" y="640.3905" style="stroke: #000000; stroke-width: 0.8"/>
      </g>
     </g>
     <g id="text_3">
      <!-- 4 -->
      <g transform="translate(330.025186 665.631125) scale(0.3 -0.3)">
       <defs>
        <path id="LiberationSans-34" d="M 2753 997 
L 2753 0 
L 2222 0 
L 2222 997 
L 147 997 
L 147 1434 
L 2163 4403 
L 2753 4403 
L 2753 1441 
L 3372 1441 
L 3372 997 
L 2753 997 
z
M 2222 3769 
Q 2216 3750 2134 3603 
Q 2053 3456 2013 3397 
L 884 1734 
L 716 1503 
L 666 1441 
L 2222 1441 
L 2222 3769 
z
" transform="scale(0.015625)"/>
       </defs>
       <use xlink:href="#LiberationSans-34"/>
      </g>
     </g>
    </g>
    <g id="xtick_4">
     <g id="line2d_4">
      <g>
       <use xlink:href="#m47121e194e" x="451.150146" y="640.3905" style="stroke: #000000; stroke-width: 0.8"/>
      </g>
     </g>
     <g id="text_4">
      <!-- 6 -->
      <g transform="translate(442.80874 665.631125) scale(0.3 -0.3)">
       <defs>
        <path id="LiberationSans-36" d="M 3278 1441 
Q 3278 744 2900 340 
Q 2522 -63 1856 -63 
Q 1113 -63 719 490 
Q 325 1044 325 2100 
Q 325 3244 734 3856 
Q 1144 4469 1900 4469 
Q 2897 4469 3156 3572 
L 2619 3475 
Q 2453 4013 1894 4013 
Q 1413 4013 1148 3564 
Q 884 3116 884 2266 
Q 1038 2550 1316 2698 
Q 1594 2847 1953 2847 
Q 2563 2847 2920 2465 
Q 3278 2084 3278 1441 
z
M 2706 1416 
Q 2706 1894 2472 2153 
Q 2238 2413 1819 2413 
Q 1425 2413 1183 2183 
Q 941 1953 941 1550 
Q 941 1041 1192 716 
Q 1444 391 1838 391 
Q 2244 391 2475 664 
Q 2706 938 2706 1416 
z
" transform="scale(0.015625)"/>
       </defs>
       <use xlink:href="#LiberationSans-36"/>
      </g>
     </g>
    </g>
    <g id="xtick_5">
     <g id="line2d_5">
      <g>
       <use xlink:href="#m47121e194e" x="563.933701" y="640.3905" style="stroke: #000000; stroke-width: 0.8"/>
      </g>
     </g>
     <g id="text_5">
      <!-- 8 -->
      <g transform="translate(555.592295 665.631125) scale(0.3 -0.3)">
       <defs>
        <path id="LiberationSans-38" d="M 3281 1228 
Q 3281 619 2893 278 
Q 2506 -63 1781 -63 
Q 1075 -63 676 271 
Q 278 606 278 1222 
Q 278 1653 525 1947 
Q 772 2241 1156 2303 
L 1156 2316 
Q 797 2400 589 2681 
Q 381 2963 381 3341 
Q 381 3844 757 4156 
Q 1134 4469 1769 4469 
Q 2419 4469 2795 4162 
Q 3172 3856 3172 3334 
Q 3172 2956 2962 2675 
Q 2753 2394 2391 2322 
L 2391 2309 
Q 2813 2241 3047 1952 
Q 3281 1663 3281 1228 
z
M 2588 3303 
Q 2588 4050 1769 4050 
Q 1372 4050 1164 3862 
Q 956 3675 956 3303 
Q 956 2925 1170 2726 
Q 1384 2528 1775 2528 
Q 2172 2528 2380 2711 
Q 2588 2894 2588 3303 
z
M 2697 1281 
Q 2697 1691 2453 1898 
Q 2209 2106 1769 2106 
Q 1341 2106 1100 1882 
Q 859 1659 859 1269 
Q 859 359 1788 359 
Q 2247 359 2472 579 
Q 2697 800 2697 1281 
z
" transform="scale(0.015625)"/>
       </defs>
       <use xlink:href="#LiberationSans-38"/>
      </g>
     </g>
    </g>
    <g id="xtick_6">
     <g id="line2d_6">
      <g>
       <use xlink:href="#m47121e194e" x="676.717256" y="640.3905" style="stroke: #000000; stroke-width: 0.8"/>
      </g>
     </g>
     <g id="text_6">
      <!-- 10 -->
      <g transform="translate(660.034443 665.631125) scale(0.3 -0.3)">
       <defs>
        <path id="LiberationSans-31" d="M 488 0 
L 488 478 
L 1609 478 
L 1609 3866 
L 616 3156 
L 616 3688 
L 1656 4403 
L 2175 4403 
L 2175 478 
L 3247 478 
L 3247 0 
L 488 0 
z
" transform="scale(0.015625)"/>
       </defs>
       <use xlink:href="#LiberationSans-31"/>
       <use xlink:href="#LiberationSans-30" x="55.615234"/>
      </g>
     </g>
    </g>
    <g id="xtick_7">
     <g id="line2d_7">
      <defs>
       <path id="mbedbaa125a" d="M 0 0 
L 0 -2 
" style="stroke: #000000; stroke-width: 0.6"/>
      </defs>
      <g>
       <use xlink:href="#mbedbaa125a" x="140.995371" y="640.3905" style="stroke: #000000; stroke-width: 0.6"/>
      </g>
     </g>
    </g>
    <g id="xtick_8">
     <g id="line2d_8">
      <g>
       <use xlink:href="#mbedbaa125a" x="169.19126" y="640.3905" style="stroke: #000000; stroke-width: 0.6"/>
      </g>
     </g>
    </g>
    <g id="xtick_9">
     <g id="line2d_9">
      <g>
       <use xlink:href="#mbedbaa125a" x="197.387149" y="640.3905" style="stroke: #000000; stroke-width: 0.6"/>
      </g>
     </g>
    </g>
    <g id="xtick_10">
     <g id="line2d_10">
      <g>
       <use xlink:href="#mbedbaa125a" x="253.778926" y="640.3905" style="stroke: #000000; stroke-width: 0.6"/>
      </g>
     </g>
    </g>
    <g id="xtick_11">
     <g id="line2d_11">
      <g>
       <use xlink:href="#mbedbaa125a" x="281.974815" y="640.3905" style="stroke: #000000; stroke-width: 0.6"/>
      </g>
     </g>
    </g>
    <g id="xtick_12">
     <g id="line2d_12">
      <g>
       <use xlink:href="#mbedbaa125a" x="310.170703" y="640.3905" style="stroke: #000000; stroke-width: 0.6"/>
      </g>
     </g>
    </g>
    <g id="xtick_13">
     <g id="line2d_13">
      <g>
       <use xlink:href="#mbedbaa125a" x="366.56248" y="640.3905" style="stroke: #000000; stroke-width: 0.6"/>
      </g>
     </g>
    </g>
    <g id="xtick_14">
     <g id="line2d_14">
      <g>
       <use xlink:href="#mbedbaa125a" x="394.758369" y="640.3905" style="stroke: #000000; stroke-width: 0.6"/>
      </g>
     </g>
    </g>
    <g id="xtick_15">
     <g id="line2d_15">
      <g>
       <use xlink:href="#mbedbaa125a" x="422.954258" y="640.3905" style="stroke: #000000; stroke-width: 0.6"/>
      </g>
     </g>
    </g>
    <g id="xtick_16">
     <g id="line2d_16">
      <g>
       <use xlink:href="#mbedbaa125a" x="479.346035" y="640.3905" style="stroke: #000000; stroke-width: 0.6"/>
      </g>
     </g>
    </g>
    <g id="xtick_17">
     <g id="line2d_17">
      <g>
       <use xlink:href="#mbedbaa125a" x="507.541924" y="640.3905" style="stroke: #000000; stroke-width: 0.6"/>
      </g>
     </g>
    </g>
    <g id="xtick_18">
     <g id="line2d_18">
      <g>
       <use xlink:href="#mbedbaa125a" x="535.737812" y="640.3905" style="stroke: #000000; stroke-width: 0.6"/>
      </g>
     </g>
    </g>
    <g id="xtick_19">
     <g id="line2d_19">
      <g>
       <use xlink:href="#mbedbaa125a" x="592.12959" y="640.3905" style="stroke: #000000; stroke-width: 0.6"/>
      </g>
     </g>
    </g>
    <g id="xtick_20">
     <g id="line2d_20">
      <g>
       <use xlink:href="#mbedbaa125a" x="620.325478" y="640.3905" style="stroke: #000000; stroke-width: 0.6"/>
      </g>
     </g>
    </g>
    <g id="xtick_21">
     <g id="line2d_21">
      <g>
       <use xlink:href="#mbedbaa125a" x="648.521367" y="640.3905" style="stroke: #000000; stroke-width: 0.6"/>
      </g>
     </g>
    </g>
    <g id="text_7">
     <!-- Time ps -->
     <g transform="translate(341.981807 697.59675) scale(0.3 -0.3)">
      <defs>
       <path id="LiberationSans-54" d="M 2250 3916 
L 2250 0 
L 1656 0 
L 1656 3916 
L 144 3916 
L 144 4403 
L 3763 4403 
L 3763 3916 
L 2250 3916 
z
" transform="scale(0.015625)"/>
       <path id="LiberationSans-69" d="M 428 4100 
L 428 4638 
L 991 4638 
L 991 4100 
L 428 4100 
z
M 428 0 
L 428 3381 
L 991 3381 
L 991 0 
L 428 0 
z
" transform="scale(0.015625)"/>
       <path id="LiberationSans-6d" d="M 2400 0 
L 2400 2144 
Q 2400 2634 2265 2821 
Q 2131 3009 1781 3009 
Q 1422 3009 1212 2734 
Q 1003 2459 1003 1959 
L 1003 0 
L 444 0 
L 444 2659 
Q 444 3250 425 3381 
L 956 3381 
Q 959 3366 962 3297 
Q 966 3228 970 3139 
Q 975 3050 981 2803 
L 991 2803 
Q 1172 3163 1406 3303 
Q 1641 3444 1978 3444 
Q 2363 3444 2586 3291 
Q 2809 3138 2897 2803 
L 2906 2803 
Q 3081 3144 3329 3294 
Q 3578 3444 3931 3444 
Q 4444 3444 4676 3166 
Q 4909 2888 4909 2253 
L 4909 0 
L 4353 0 
L 4353 2144 
Q 4353 2634 4218 2821 
Q 4084 3009 3734 3009 
Q 3366 3009 3161 2736 
Q 2956 2463 2956 1959 
L 2956 0 
L 2400 0 
z
" transform="scale(0.015625)"/>
       <path id="LiberationSans-65" d="M 863 1572 
Q 863 991 1103 675 
Q 1344 359 1806 359 
Q 2172 359 2392 506 
Q 2613 653 2691 878 
L 3184 738 
Q 2881 -63 1806 -63 
Q 1056 -63 664 384 
Q 272 831 272 1713 
Q 272 2550 664 2997 
Q 1056 3444 1784 3444 
Q 3275 3444 3275 1647 
L 3275 1572 
L 863 1572 
z
M 2694 2003 
Q 2647 2538 2422 2783 
Q 2197 3028 1775 3028 
Q 1366 3028 1127 2754 
Q 888 2481 869 2003 
L 2694 2003 
z
" transform="scale(0.015625)"/>
       <path id="LiberationSans-20" transform="scale(0.015625)"/>
       <path id="LiberationSans-70" d="M 3291 1706 
Q 3291 -63 2047 -63 
Q 1266 -63 997 525 
L 981 525 
Q 994 500 994 -6 
L 994 -1328 
L 431 -1328 
L 431 2691 
Q 431 3213 413 3381 
L 956 3381 
Q 959 3369 965 3292 
Q 972 3216 980 3056 
Q 988 2897 988 2838 
L 1000 2838 
Q 1150 3150 1397 3295 
Q 1644 3441 2047 3441 
Q 2672 3441 2981 3022 
Q 3291 2603 3291 1706 
z
M 2700 1694 
Q 2700 2400 2509 2703 
Q 2319 3006 1903 3006 
Q 1569 3006 1380 2865 
Q 1191 2725 1092 2426 
Q 994 2128 994 1650 
Q 994 984 1206 668 
Q 1419 353 1897 353 
Q 2316 353 2508 661 
Q 2700 969 2700 1694 
z
" transform="scale(0.015625)"/>
       <path id="LiberationSans-73" d="M 2969 934 
Q 2969 456 2608 196 
Q 2247 -63 1597 -63 
Q 966 -63 623 145 
Q 281 353 178 794 
L 675 891 
Q 747 619 972 492 
Q 1197 366 1597 366 
Q 2025 366 2223 497 
Q 2422 628 2422 891 
Q 2422 1091 2284 1216 
Q 2147 1341 1841 1422 
L 1438 1528 
Q 953 1653 748 1773 
Q 544 1894 428 2066 
Q 313 2238 313 2488 
Q 313 2950 642 3192 
Q 972 3434 1603 3434 
Q 2163 3434 2492 3237 
Q 2822 3041 2909 2606 
L 2403 2544 
Q 2356 2769 2151 2889 
Q 1947 3009 1603 3009 
Q 1222 3009 1040 2893 
Q 859 2778 859 2544 
Q 859 2400 934 2306 
Q 1009 2213 1156 2147 
Q 1303 2081 1775 1966 
Q 2222 1853 2419 1758 
Q 2616 1663 2730 1547 
Q 2844 1431 2906 1279 
Q 2969 1128 2969 934 
z
" transform="scale(0.015625)"/>
      </defs>
      <use xlink:href="#LiberationSans-54"/>
      <use xlink:href="#LiberationSans-69" x="57.333984"/>
      <use xlink:href="#LiberationSans-6d" x="79.550781"/>
      <use xlink:href="#LiberationSans-65" x="162.851562"/>
      <use xlink:href="#LiberationSans-20" x="218.466797"/>
      <use xlink:href="#LiberationSans-70" x="246.25"/>
      <use xlink:href="#LiberationSans-73" x="301.865234"/>
     </g>
    </g>
   </g>
   <g id="matplotlib.axis_2">
    <g id="ytick_1">
     <g id="line2d_22">
      <defs>
       <path id="m0159a021db" d="M 0 0 
L 3.5 0 
" style="stroke: #000000; stroke-width: 0.8"/>
      </defs>
      <g>
       <use xlink:href="#m0159a021db" x="84.665625" y="613.063091" style="stroke: #000000; stroke-width: 0.8"/>
      </g>
     </g>
     <g id="text_8">
      <!-- $\mathdefault{0.0}$ -->
      <g transform="translate(39.165625 623.933403) scale(0.3 -0.3)">
       <defs>
        <path id="LiberationSans-2e" d="M 584 0 
L 584 684 
L 1194 684 
L 1194 0 
L 584 0 
z
" transform="scale(0.015625)"/>
       </defs>
       <use xlink:href="#LiberationSans-30" transform="translate(0 0.171875)"/>
       <use xlink:href="#LiberationSans-2e" transform="translate(55.615234 0.171875)"/>
       <use xlink:href="#LiberationSans-30" transform="translate(83.398438 0.171875)"/>
      </g>
     </g>
    </g>
    <g id="ytick_2">
     <g id="line2d_23">
      <g>
       <use xlink:href="#m0159a021db" x="84.665625" y="493.059907" style="stroke: #000000; stroke-width: 0.8"/>
      </g>
     </g>
     <g id="text_9">
      <!-- $\mathdefault{0.5}$ -->
      <g transform="translate(39.165625 503.930219) scale(0.3 -0.3)">
       <defs>
        <path id="LiberationSans-35" d="M 3291 1434 
Q 3291 738 2877 337 
Q 2463 -63 1728 -63 
Q 1113 -63 734 206 
Q 356 475 256 984 
L 825 1050 
Q 1003 397 1741 397 
Q 2194 397 2450 670 
Q 2706 944 2706 1422 
Q 2706 1838 2448 2094 
Q 2191 2350 1753 2350 
Q 1525 2350 1328 2278 
Q 1131 2206 934 2034 
L 384 2034 
L 531 4403 
L 3034 4403 
L 3034 3925 
L 1044 3925 
L 959 2528 
Q 1325 2809 1869 2809 
Q 2519 2809 2905 2428 
Q 3291 2047 3291 1434 
z
" transform="scale(0.015625)"/>
       </defs>
       <use xlink:href="#LiberationSans-30" transform="translate(0 0.171875)"/>
       <use xlink:href="#LiberationSans-2e" transform="translate(55.615234 0.171875)"/>
       <use xlink:href="#LiberationSans-35" transform="translate(83.398438 0.171875)"/>
      </g>
     </g>
    </g>
    <g id="ytick_3">
     <g id="line2d_24">
      <g>
       <use xlink:href="#m0159a021db" x="84.665625" y="373.056723" style="stroke: #000000; stroke-width: 0.8"/>
      </g>
     </g>
     <g id="text_10">
      <!-- $\mathdefault{1.0}$ -->
      <g transform="translate(39.165625 383.927035) scale(0.3 -0.3)">
       <use xlink:href="#LiberationSans-31" transform="translate(0 0.171875)"/>
       <use xlink:href="#LiberationSans-2e" transform="translate(55.615234 0.171875)"/>
       <use xlink:href="#LiberationSans-30" transform="translate(83.398438 0.171875)"/>
      </g>
     </g>
    </g>
    <g id="ytick_4">
     <g id="line2d_25">
      <g>
       <use xlink:href="#m0159a021db" x="84.665625" y="253.053539" style="stroke: #000000; stroke-width: 0.8"/>
      </g>
     </g>
     <g id="text_11">
      <!-- $\mathdefault{1.5}$ -->
      <g transform="translate(39.165625 263.923851) scale(0.3 -0.3)">
       <use xlink:href="#LiberationSans-31" transform="translate(0 0.203125)"/>
       <use xlink:href="#LiberationSans-2e" transform="translate(55.615234 0.203125)"/>
       <use xlink:href="#LiberationSans-35" transform="translate(83.398438 0.203125)"/>
      </g>
     </g>
    </g>
    <g id="ytick_5">
     <g id="line2d_26">
      <g>
       <use xlink:href="#m0159a021db" x="84.665625" y="133.050354" style="stroke: #000000; stroke-width: 0.8"/>
      </g>
     </g>
     <g id="text_12">
      <!-- $\mathdefault{2.0}$ -->
      <g transform="translate(39.165625 143.920667) scale(0.3 -0.3)">
       <use xlink:href="#LiberationSans-32" transform="translate(0 0.171875)"/>
       <use xlink:href="#LiberationSans-2e" transform="translate(55.615234 0.171875)"/>
       <use xlink:href="#LiberationSans-30" transform="translate(83.398438 0.171875)"/>
      </g>
     </g>
    </g>
    <g id="ytick_6">
     <g id="line2d_27">
      <defs>
       <path id="m79212c619f" d="M 0 0 
L 2 0 
" style="stroke: #000000; stroke-width: 0.6"/>
      </defs>
      <g>
       <use xlink:href="#m79212c619f" x="84.665625" y="637.063728" style="stroke: #000000; stroke-width: 0.6"/>
      </g>
     </g>
    </g>
    <g id="ytick_7">
     <g id="line2d_28">
      <g>
       <use xlink:href="#m79212c619f" x="84.665625" y="589.062454" style="stroke: #000000; stroke-width: 0.6"/>
      </g>
     </g>
    </g>
    <g id="ytick_8">
     <g id="line2d_29">
      <g>
       <use xlink:href="#m79212c619f" x="84.665625" y="565.061817" style="stroke: #000000; stroke-width: 0.6"/>
      </g>
     </g>
    </g>
    <g id="ytick_9">
     <g id="line2d_30">
      <g>
       <use xlink:href="#m79212c619f" x="84.665625" y="541.06118" style="stroke: #000000; stroke-width: 0.6"/>
      </g>
     </g>
    </g>
    <g id="ytick_10">
     <g id="line2d_31">
      <g>
       <use xlink:href="#m79212c619f" x="84.665625" y="517.060544" style="stroke: #000000; stroke-width: 0.6"/>
      </g>
     </g>
    </g>
    <g id="ytick_11">
     <g id="line2d_32">
      <g>
       <use xlink:href="#m79212c619f" x="84.665625" y="469.05927" style="stroke: #000000; stroke-width: 0.6"/>
      </g>
     </g>
    </g>
    <g id="ytick_12">
     <g id="line2d_33">
      <g>
       <use xlink:href="#m79212c619f" x="84.665625" y="445.058633" style="stroke: #000000; stroke-width: 0.6"/>
      </g>
     </g>
    </g>
    <g id="ytick_13">
     <g id="line2d_34">
      <g>
       <use xlink:href="#m79212c619f" x="84.665625" y="421.057996" style="stroke: #000000; stroke-width: 0.6"/>
      </g>
     </g>
    </g>
    <g id="ytick_14">
     <g id="line2d_35">
      <g>
       <use xlink:href="#m79212c619f" x="84.665625" y="397.05736" style="stroke: #000000; stroke-width: 0.6"/>
      </g>
     </g>
    </g>
    <g id="ytick_15">
     <g id="line2d_36">
      <g>
       <use xlink:href="#m79212c619f" x="84.665625" y="349.056086" style="stroke: #000000; stroke-width: 0.6"/>
      </g>
     </g>
    </g>
    <g id="ytick_16">
     <g id="line2d_37">
      <g>
       <use xlink:href="#m79212c619f" x="84.665625" y="325.055449" style="stroke: #000000; stroke-width: 0.6"/>
      </g>
     </g>
    </g>
    <g id="ytick_17">
     <g id="line2d_38">
      <g>
       <use xlink:href="#m79212c619f" x="84.665625" y="301.054812" style="stroke: #000000; stroke-width: 0.6"/>
      </g>
     </g>
    </g>
    <g id="ytick_18">
     <g id="line2d_39">
      <g>
       <use xlink:href="#m79212c619f" x="84.665625" y="277.054175" style="stroke: #000000; stroke-width: 0.6"/>
      </g>
     </g>
    </g>
    <g id="ytick_19">
     <g id="line2d_40">
      <g>
       <use xlink:href="#m79212c619f" x="84.665625" y="229.052902" style="stroke: #000000; stroke-width: 0.6"/>
      </g>
     </g>
    </g>
    <g id="ytick_20">
     <g id="line2d_41">
      <g>
       <use xlink:href="#m79212c619f" x="84.665625" y="205.052265" style="stroke: #000000; stroke-width: 0.6"/>
      </g>
     </g>
    </g>
    <g id="ytick_21">
     <g id="line2d_42">
      <g>
       <use xlink:href="#m79212c619f" x="84.665625" y="181.051628" style="stroke: #000000; stroke-width: 0.6"/>
      </g>
     </g>
    </g>
    <g id="ytick_22">
     <g id="line2d_43">
      <g>
       <use xlink:href="#m79212c619f" x="84.665625" y="157.050991" style="stroke: #000000; stroke-width: 0.6"/>
      </g>
     </g>
    </g>
    <g id="ytick_23">
     <g id="line2d_44">
      <g>
       <use xlink:href="#m79212c619f" x="84.665625" y="109.049718" style="stroke: #000000; stroke-width: 0.6"/>
      </g>
     </g>
    </g>
    <g id="ytick_24">
     <g id="line2d_45">
      <g>
       <use xlink:href="#m79212c619f" x="84.665625" y="85.049081" style="stroke: #000000; stroke-width: 0.6"/>
      </g>
     </g>
    </g>
    <g id="ytick_25">
     <g id="line2d_46">
      <g>
       <use xlink:href="#m79212c619f" x="84.665625" y="61.048444" style="stroke: #000000; stroke-width: 0.6"/>
      </g>
     </g>
    </g>
    <g id="text_13">
     <!-- ITR $\mathrm{K} \cdot \mathrm{m}^2 / \mathrm{W}$ -->
     <g transform="translate(28.940625 423.789) rotate(-90) scale(0.3 -0.3)">
      <defs>
       <path id="LiberationSans-49" d="M 591 0 
L 591 4403 
L 1188 4403 
L 1188 0 
L 591 0 
z
" transform="scale(0.015625)"/>
       <path id="LiberationSans-52" d="M 3638 0 
L 2494 1828 
L 1122 1828 
L 1122 0 
L 525 0 
L 525 4403 
L 2597 4403 
Q 3341 4403 3745 4070 
Q 4150 3738 4150 3144 
Q 4150 2653 3864 2318 
Q 3578 1984 3075 1897 
L 4325 0 
L 3638 0 
z
M 3550 3138 
Q 3550 3522 3289 3723 
Q 3028 3925 2538 3925 
L 1122 3925 
L 1122 2300 
L 2563 2300 
Q 3034 2300 3292 2520 
Q 3550 2741 3550 3138 
z
" transform="scale(0.015625)"/>
       <path id="STIXGeneral-Regular-4b" d="M 4627 0 
L 2688 0 
L 2688 122 
L 2861 128 
Q 3130 134 3130 282 
Q 3130 397 2922 643 
Q 2714 890 2253 1370 
L 1613 2029 
L 1446 1894 
L 1446 710 
Q 1446 352 1548 253 
Q 1651 154 2016 122 
L 2016 0 
L 211 0 
L 211 122 
Q 589 141 691 262 
Q 794 384 794 800 
L 794 3514 
Q 794 3872 691 3981 
Q 589 4090 218 4115 
L 218 4237 
L 2022 4237 
L 2022 4115 
Q 1632 4090 1539 3987 
Q 1446 3885 1446 3507 
L 1446 2227 
L 2586 3277 
Q 2861 3533 2973 3667 
Q 3085 3802 3085 3910 
Q 3085 4013 3030 4057 
Q 2976 4102 2822 4109 
L 2662 4115 
L 2662 4237 
L 4320 4237 
L 4320 4115 
Q 3994 4090 3824 4003 
Q 3654 3917 3322 3597 
L 2131 2458 
L 3629 819 
Q 4026 384 4214 253 
Q 4403 122 4627 122 
L 4627 0 
z
" transform="scale(0.015625)"/>
       <path id="STIXGeneral-Regular-22c5" d="M 1187 1888 
Q 1299 1773 1299 1619 
Q 1299 1466 1187 1350 
Q 1075 1235 921 1235 
Q 768 1235 649 1353 
Q 531 1472 531 1619 
Q 531 1766 649 1884 
Q 768 2003 921 2003 
Q 1075 2003 1187 1888 
z
" transform="scale(0.015625)"/>
       <path id="STIXGeneral-Regular-6d" d="M 4960 0 
L 3565 0 
L 3565 96 
Q 3834 122 3907 208 
Q 3981 294 3981 576 
L 3981 1894 
Q 3981 2278 3869 2444 
Q 3757 2611 3488 2611 
Q 3264 2611 3107 2521 
Q 2950 2432 2803 2221 
L 2803 608 
Q 2803 301 2896 201 
Q 2989 102 3264 96 
L 3264 0 
L 1830 0 
L 1830 96 
Q 2112 115 2189 188 
Q 2266 262 2266 550 
L 2266 1901 
Q 2266 2611 1850 2611 
Q 1670 2611 1468 2531 
Q 1267 2451 1171 2336 
Q 1088 2240 1088 2227 
L 1088 448 
Q 1088 243 1177 176 
Q 1267 109 1523 96 
L 1523 0 
L 102 0 
L 102 96 
Q 371 102 460 195 
Q 550 288 550 563 
L 550 2150 
Q 550 2387 499 2480 
Q 448 2573 326 2573 
Q 230 2573 122 2547 
L 122 2656 
Q 557 2778 1011 2944 
L 1062 2925 
L 1062 2451 
L 1075 2451 
Q 1363 2752 1584 2848 
Q 1805 2944 2054 2944 
Q 2560 2944 2733 2406 
Q 3232 2944 3776 2944 
Q 4518 2944 4518 1792 
L 4518 493 
Q 4518 282 4582 202 
Q 4646 122 4794 109 
L 4960 96 
L 4960 0 
z
" transform="scale(0.015625)"/>
       <path id="STIXGeneral-Regular-32" d="M 3034 877 
L 2688 0 
L 186 0 
L 186 77 
L 1325 1286 
Q 1773 1754 1965 2144 
Q 2157 2534 2157 2950 
Q 2157 3379 1920 3616 
Q 1683 3853 1267 3853 
Q 922 3853 720 3673 
Q 518 3494 326 3021 
L 192 3053 
Q 301 3648 630 3987 
Q 960 4326 1523 4326 
Q 2054 4326 2380 4006 
Q 2707 3686 2707 3200 
Q 2707 2477 1888 1613 
L 832 486 
L 2330 486 
Q 2541 486 2665 569 
Q 2790 653 2944 915 
L 3034 877 
z
" transform="scale(0.015625)"/>
       <path id="STIXGeneral-Regular-2f" d="M 1837 4326 
L 378 -90 
L -58 -90 
L 1408 4326 
L 1837 4326 
z
" transform="scale(0.015625)"/>
       <path id="STIXGeneral-Regular-57" d="M 5965 4237 
L 5965 4115 
Q 5709 4064 5616 3990 
Q 5523 3917 5434 3667 
Q 4704 1709 4128 -70 
L 4032 -70 
Q 3642 1011 3008 2637 
L 2022 -70 
L 1926 -70 
Q 1709 576 1277 1753 
Q 845 2931 698 3347 
Q 538 3808 406 3958 
Q 275 4109 32 4115 
L 32 4237 
L 1594 4237 
L 1594 4115 
Q 1357 4109 1270 4064 
Q 1184 4019 1184 3917 
Q 1184 3808 1254 3616 
L 2176 1210 
L 2842 3021 
L 2662 3501 
Q 2509 3917 2400 4013 
Q 2291 4109 2010 4115 
L 2010 4237 
L 3706 4237 
L 3706 4115 
Q 3213 4102 3213 3891 
Q 3213 3808 3322 3520 
L 4237 1190 
L 5043 3360 
Q 5152 3667 5152 3853 
Q 5152 4109 4704 4115 
L 4704 4237 
L 5965 4237 
z
" transform="scale(0.015625)"/>
      </defs>
      <use xlink:href="#LiberationSans-49" transform="translate(0 0.409375)"/>
      <use xlink:href="#LiberationSans-54" transform="translate(27.783203 0.409375)"/>
      <use xlink:href="#LiberationSans-52" transform="translate(88.867188 0.409375)"/>
      <use xlink:href="#LiberationSans-20" transform="translate(161.083984 0.409375)"/>
      <use xlink:href="#STIXGeneral-Regular-4b" transform="translate(188.867188 0.409375)"/>
      <use xlink:href="#STIXGeneral-Regular-22c5" transform="translate(275.507166 0.409375)"/>
      <use xlink:href="#STIXGeneral-Regular-6d" transform="translate(318.547153 0.409375)"/>
      <use xlink:href="#STIXGeneral-Regular-32" transform="translate(397.890422 35.684375) scale(0.7)"/>
      <use xlink:href="#STIXGeneral-Regular-2f" transform="translate(437.299786 0.409375)"/>
      <use xlink:href="#STIXGeneral-Regular-57" transform="translate(465.099774 0.409375)"/>
     </g>
    </g>
    <g id="text_14">
     <!-- $\times\mathdefault{10^{−6}}\mathdefault{}$ -->
     <g transform="translate(84.665625 36.1875) scale(0.4 -0.4)">
      <defs>
       <path id="STIXGeneral-Regular-d7" d="M 3821 141 
L 3526 -160 
L 2048 1312 
L 570 -160 
L 275 134 
L 1747 1613 
L 275 3091 
L 576 3386 
L 2048 1914 
L 3526 3386 
L 3821 3098 
L 2349 1613 
L 3821 141 
z
" transform="scale(0.015625)"/>
       <path id="LiberationSans-2212" d="M 316 1900 
L 316 2356 
L 3425 2356 
L 3425 1900 
L 316 1900 
z
" transform="scale(0.015625)"/>
      </defs>
      <use xlink:href="#STIXGeneral-Regular-d7" transform="translate(0 0.140625)"/>
      <use xlink:href="#LiberationSans-31" transform="translate(63.999985 0.140625)"/>
      <use xlink:href="#LiberationSans-30" transform="translate(119.615219 0.140625)"/>
      <use xlink:href="#LiberationSans-2212" transform="translate(176.154946 37.120312) scale(0.7)"/>
      <use xlink:href="#LiberationSans-36" transform="translate(217.033852 37.120312) scale(0.7)"/>
     </g>
    </g>
   </g>
   <g id="line2d_47">
    <path d="M 112.855874 613.063091 
L 112.912266 88.203993 
L 112.968658 350.510779 
L 113.137833 507.697985 
L 113.3634 554.014468 
L 113.645359 574.419061 
L 113.98371 585.144592 
L 114.378452 591.309252 
L 114.829587 594.964301 
L 115.280721 596.882313 
L 115.675463 597.738941 
L 116.013814 598.050742 
L 116.295773 598.07228 
L 116.634124 597.849212 
L 117.028866 597.272434 
L 117.48 596.206131 
L 118.043918 594.233126 
L 118.664228 591.128926 
L 119.284537 586.826014 
L 119.904847 580.970046 
L 120.525156 573.023632 
L 121.145466 562.209116 
L 121.765775 547.541654 
L 122.498868 524.246056 
L 123.965055 474.527684 
L 124.247013 470.809343 
L 124.416189 470.215452 
L 124.528972 470.501687 
L 124.698148 471.89825 
L 124.980107 476.468895 
L 125.487633 489.370243 
L 126.897427 527.286334 
L 127.63052 540.452318 
L 128.307221 548.773543 
L 128.927531 553.939789 
L 129.547841 557.321256 
L 130.055367 559.041279 
L 130.506501 559.91579 
L 130.901243 560.240551 
L 131.239594 560.223092 
L 131.577945 559.95267 
L 131.972687 559.337572 
L 132.480213 558.103043 
L 133.100523 555.968732 
L 133.890007 552.379312 
L 135.017843 546.041115 
L 136.765988 536.213079 
L 137.442689 533.546916 
L 137.950215 532.276079 
L 138.344958 531.780383 
L 138.626917 531.701761 
L 138.908876 531.85275 
L 139.247226 532.328353 
L 139.69836 533.426381 
L 140.31867 535.662721 
L 141.27733 540.142413 
L 142.799908 547.151901 
L 143.533001 549.51644 
L 144.096919 550.681198 
L 144.548053 551.180723 
L 144.942796 551.308642 
L 145.281146 551.201311 
L 145.675889 550.845275 
L 146.183415 550.074402 
L 146.916508 548.508304 
L 149.792489 541.863457 
L 150.920324 540.025661 
L 151.822593 538.915007 
L 152.442902 538.460117 
L 152.894036 538.364998 
L 153.288779 538.481634 
L 153.739913 538.865098 
L 154.247439 539.613527 
L 154.92414 541.053498 
L 157.800121 547.772084 
L 158.476822 548.541023 
L 159.04074 548.876983 
L 159.604658 548.970827 
L 160.224967 548.84319 
L 160.95806 548.445554 
L 161.803937 547.722363 
L 162.818989 546.54523 
L 165.69497 542.94288 
L 166.258888 542.674489 
L 166.766414 542.658524 
L 167.330331 542.887068 
L 168.007033 543.450247 
L 168.965693 544.590088 
L 171.446931 547.650975 
L 172.405591 548.460215 
L 173.138684 548.818947 
L 173.758994 548.89245 
L 174.322912 548.746742 
L 174.943221 548.339822 
L 175.619923 547.6183 
L 176.578583 546.22993 
L 178.552295 543.295636 
L 179.398172 542.46523 
L 180.244048 541.935653 
L 181.315492 541.548815 
L 182.556111 541.332672 
L 183.571163 541.371833 
L 184.529823 541.641801 
L 187.349412 542.631259 
L 188.195289 542.556531 
L 189.266733 542.211979 
L 191.860754 541.296326 
L 193.101374 541.124243 
L 194.116426 541.201068 
L 195.018694 541.49455 
L 196.090138 542.095925 
L 197.838283 543.099933 
L 198.627768 543.288092 
L 199.417253 543.246387 
L 200.545088 542.921568 
L 201.842099 542.590365 
L 202.744367 542.592712 
L 204.041378 542.861472 
L 205.507565 543.101775 
L 208.157978 543.362338 
L 209.060247 543.805084 
L 210.470041 544.814128 
L 211.71066 545.593464 
L 212.612928 545.90995 
L 213.571589 546.006397 
L 214.812208 545.884741 
L 216.616745 545.464841 
L 219.774684 544.66703 
L 222.707057 544.217224 
L 223.665717 543.703456 
L 225.188295 542.562042 
L 226.31613 541.846757 
L 227.218399 541.539592 
L 228.233451 541.444774 
L 230.207163 541.307707 
L 231.447782 540.927628 
L 233.759845 540.172311 
L 235.000464 540.042811 
L 236.410259 540.123934 
L 237.763661 540.418329 
L 239.399023 541.023824 
L 241.316343 541.689313 
L 242.669746 541.906992 
L 246.504387 542.352976 
L 248.421707 542.917887 
L 250.508203 543.767363 
L 253.102225 544.816633 
L 254.512019 545.124147 
L 255.752638 545.174435 
L 256.880474 545.004318 
L 257.951917 544.617803 
L 259.30532 543.862571 
L 260.88429 543.009276 
L 261.730167 542.805523 
L 262.519651 542.850427 
L 263.42192 543.140101 
L 266.015942 544.130549 
L 267.030994 544.190263 
L 268.271613 544.02834 
L 269.906974 543.58567 
L 271.203985 543.017901 
L 272.726563 542.077602 
L 274.418316 541.074757 
L 275.433368 540.724365 
L 276.504812 540.593465 
L 277.858215 540.667781 
L 279.60636 540.995041 
L 283.328217 541.838207 
L 284.230486 541.711321 
L 285.189146 541.342541 
L 286.486157 540.567968 
L 288.17791 539.591754 
L 289.023787 539.35889 
L 289.813272 539.377507 
L 290.602756 539.623994 
L 291.617808 540.192251 
L 294.042655 541.640051 
L 295.057707 541.934875 
L 296.41111 542.067724 
L 298.215646 542.270035 
L 301.82472 542.921505 
L 303.121731 542.726742 
L 304.813484 542.49957 
L 305.884928 542.604304 
L 307.52029 543.038004 
L 309.099259 543.366503 
L 310.565446 543.427403 
L 312.369983 543.270332 
L 314.287303 542.877577 
L 317.952768 541.815742 
L 322.012976 540.680916 
L 323.591946 540.532453 
L 326.129576 540.581475 
L 328.046897 540.48536 
L 330.246176 540.374705 
L 331.430403 540.572804 
L 332.952981 541.092642 
L 334.926693 541.731924 
L 336.223704 541.901591 
L 340.283912 542.200046 
L 343.38546 542.951935 
L 344.513296 542.877849 
L 349.193813 542.257621 
L 352.746495 542.243993 
L 357.370621 542.491728 
L 358.667632 542.206199 
L 360.077426 541.650374 
L 362.72784 540.532478 
L 363.630108 540.437574 
L 364.475985 540.567558 
L 365.491037 540.967235 
L 368.930935 542.560319 
L 369.833204 542.636239 
L 370.735472 542.485555 
L 371.694132 542.08659 
L 372.991143 541.274573 
L 374.908464 540.093069 
L 375.979907 539.700725 
L 377.107743 539.52095 
L 378.348362 539.54971 
L 379.476197 539.798607 
L 380.547641 540.269896 
L 382.295786 541.349849 
L 383.480014 541.951335 
L 384.382282 542.169328 
L 385.284551 542.150302 
L 386.355994 541.886959 
L 389.739501 540.884136 
L 391.092904 540.820612 
L 392.89744 540.976872 
L 395.040328 541.383164 
L 398.536618 542.132096 
L 399.833629 542.103407 
L 402.0893 541.766986 
L 404.739714 541.248561 
L 406.093116 540.716241 
L 408.630746 539.640467 
L 409.589407 539.530611 
L 410.491675 539.64933 
L 411.563119 540.0274 
L 413.085697 540.8314 
L 416.412812 542.647974 
L 417.709822 543.07116 
L 418.781266 543.189299 
L 419.796318 543.080225 
L 421.036937 542.708413 
L 423.292608 541.99328 
L 424.364052 541.913494 
L 425.491888 542.055423 
L 426.788899 542.447367 
L 428.42426 543.18723 
L 430.792715 544.268334 
L 431.92055 544.518731 
L 433.161169 544.548388 
L 441.73272 544.190154 
L 444.157566 544.197081 
L 445.623752 543.929318 
L 448.274166 543.388146 
L 449.909527 543.35684 
L 453.067467 543.323717 
L 455.266746 543.342079 
L 458.086335 543.433222 
L 459.439738 543.179517 
L 461.751801 542.699465 
L 462.823244 542.7507 
L 464.233039 543.073427 
L 465.8684 543.394397 
L 467.052628 543.378636 
L 470.097784 543.169726 
L 471.451186 543.444077 
L 473.030156 543.725978 
L 474.045208 543.664595 
L 475.229435 543.342796 
L 477.315931 542.739181 
L 478.500158 542.671467 
L 480.304695 542.83852 
L 482.898717 543.264693 
L 484.59047 543.809609 
L 486.564183 544.425058 
L 487.635626 544.523927 
L 488.650678 544.397746 
L 489.834906 544.012337 
L 493.105629 542.795358 
L 494.459031 542.645563 
L 497.391404 542.623308 
L 499.083157 542.793501 
L 502.128313 543.21174 
L 503.143365 543.056263 
L 504.327592 542.637219 
L 508.162233 541.081572 
L 509.402852 540.908896 
L 510.699863 540.958074 
L 512.278833 541.262344 
L 517.128526 542.342882 
L 519.327805 542.602212 
L 521.245126 542.589611 
L 524.290282 542.535838 
L 526.489561 542.827604 
L 528.068531 542.927801 
L 529.591109 542.784114 
L 532.297914 542.499384 
L 536.978431 542.292735 
L 540.079979 541.786241 
L 542.279259 541.472208 
L 543.576269 541.525539 
L 545.042456 541.831896 
L 551.245551 543.381993 
L 552.711737 543.517295 
L 554.008748 543.40802 
L 555.98246 542.972079 
L 557.843389 542.654134 
L 560.211844 542.539594 
L 564.21566 542.44996 
L 565.79463 542.808879 
L 567.260816 543.082587 
L 568.219476 543.036044 
L 569.178136 542.757263 
L 570.418755 542.137159 
L 572.336076 541.175798 
L 573.351128 540.934206 
L 574.309788 540.943574 
L 575.32484 541.180398 
L 576.734634 541.764095 
L 579.159481 542.788637 
L 580.4001 543.050539 
L 581.866286 543.114631 
L 584.573091 542.958311 
L 586.772371 542.629174 
L 589.028042 542.308608 
L 590.325053 542.364431 
L 592.298765 542.726384 
L 593.764951 542.882012 
L 594.949179 542.781321 
L 596.471757 542.406503 
L 599.12217 541.745343 
L 601.265058 541.496299 
L 604.366605 541.342598 
L 605.7764 541.505918 
L 607.298978 541.924001 
L 609.723824 542.605323 
L 610.964443 542.687027 
L 612.543413 542.53689 
L 616.434446 542.098428 
L 618.8029 542.043388 
L 622.975892 542.090962 
L 625.626305 541.973895 
L 628.558678 541.955036 
L 630.419606 541.622885 
L 633.182804 541.152513 
L 634.930949 541.074595 
L 636.284351 541.230164 
L 638.032496 541.684783 
L 639.72425 542.054037 
L 640.852085 542.071884 
L 641.979921 541.86694 
L 643.333323 541.3846 
L 647.111573 539.884377 
L 648.070233 539.823068 
L 648.972501 539.985916 
L 649.987553 540.407985 
L 651.848482 541.500869 
L 653.145493 542.118925 
L 654.160545 542.352157 
L 655.119205 542.345489 
L 656.24704 542.104003 
L 657.769618 541.530557 
L 661.3223 540.102487 
L 662.337352 539.987225 
L 663.352404 540.099769 
L 664.48024 540.457507 
L 668.540448 541.978363 
L 669.668283 542.005793 
L 671.360037 541.780208 
L 673.108182 541.629238 
L 676.20973 541.499699 
L 676.660864 541.371204 
L 676.660864 541.371204 
" clip-path="url(#p7c770b9665)" style="fill: none; stroke: #ff0000; stroke-width: 1.5; stroke-linecap: square"/>
   </g>
   <g id="line2d_48">
    <path d="M 112.855874 613.063091 
L 112.912266 66.514909 
L 112.968658 339.209723 
L 113.137833 502.87644 
L 113.3634 551.117927 
L 113.645359 572.360488 
L 113.98371 583.51919 
L 114.378452 589.928581 
L 114.829587 593.726207 
L 115.280721 595.718981 
L 115.675463 596.611277 
L 116.013814 596.940369 
L 116.295773 596.971171 
L 116.634124 596.757906 
L 117.028866 596.199225 
L 117.536392 595.024446 
L 118.10031 593.133309 
L 118.777011 590.036946 
L 119.510104 585.603623 
L 120.299589 579.434631 
L 121.145466 570.988848 
L 122.160518 558.356049 
L 123.51392 541.588218 
L 124.021446 537.944569 
L 124.359797 536.913132 
L 124.528972 536.838168 
L 124.698148 537.046359 
L 124.980107 537.967979 
L 125.374849 540.245097 
L 126.107942 546.170704 
L 127.404953 556.541312 
L 128.194438 561.031635 
L 128.871139 563.663706 
L 129.491449 565.226483 
L 130.055367 566.066169 
L 130.562893 566.42709 
L 131.014027 566.473702 
L 131.465161 566.285185 
L 131.972687 565.796131 
L 132.536605 564.893243 
L 133.156914 563.43425 
L 133.890007 561.061478 
L 134.735884 557.472364 
L 135.807328 551.823209 
L 137.668256 541.833517 
L 138.288566 539.775854 
L 138.7397 538.977409 
L 139.078051 538.781333 
L 139.36001 538.869945 
L 139.69836 539.244179 
L 140.149495 540.109387 
L 140.93898 542.226119 
L 142.348774 546.039496 
L 143.025475 547.25762 
L 143.589393 547.880025 
L 144.153311 548.19579 
L 144.830012 548.302626 
L 146.747333 548.457886 
L 147.818776 548.904362 
L 149.003004 549.361474 
L 149.736097 549.40395 
L 150.46919 549.207518 
L 151.315067 548.729071 
L 152.555686 547.751348 
L 153.570738 546.686941 
L 154.92414 544.914361 
L 156.897853 542.309783 
L 157.518162 541.874078 
L 158.08208 541.753339 
L 158.589606 541.862399 
L 159.209915 542.22893 
L 160.112184 543.044899 
L 161.57837 544.359065 
L 162.706206 545.038372 
L 166.428063 547.014558 
L 167.894249 548.087028 
L 169.078476 549.278637 
L 170.601054 550.816237 
L 171.446931 551.350341 
L 172.180024 551.568055 
L 172.969509 551.566558 
L 173.928169 551.322557 
L 177.255284 550.273272 
L 178.495903 550.251292 
L 181.315492 550.3124 
L 182.443328 550.038465 
L 185.99601 548.961462 
L 186.95467 549.07154 
L 188.138897 549.459518 
L 190.281785 550.187497 
L 191.466012 550.327601 
L 192.875806 550.25139 
L 196.202921 549.752784 
L 198.458592 549.527408 
L 202.124058 549.257776 
L 204.323337 549.037984 
L 205.451173 549.173013 
L 206.804575 549.583576 
L 209.680556 550.528316 
L 211.033959 550.68258 
L 213.346022 550.652869 
L 218.36489 550.544972 
L 219.718292 550.123444 
L 223.045407 548.895994 
L 223.7785 548.990404 
L 224.511594 549.316824 
L 225.413862 549.979445 
L 227.613141 551.708412 
L 228.459018 552.026332 
L 229.248503 552.088566 
L 230.207163 551.92946 
L 233.026752 551.308542 
L 234.605722 551.346818 
L 235.959124 551.302171 
L 236.974176 551.048466 
L 238.214795 550.488979 
L 239.96294 549.71414 
L 240.865209 549.573175 
L 241.711086 549.673242 
L 242.613354 550.012436 
L 243.853973 550.741089 
L 246.166036 552.142358 
L 247.124696 552.425579 
L 247.970573 552.441189 
L 248.872841 552.228394 
L 250.395419 551.580546 
L 251.69243 551.136328 
L 252.707482 551.031025 
L 254.117277 551.145375 
L 255.583463 551.197277 
L 256.598515 550.994743 
L 257.72635 550.518958 
L 259.700063 549.651948 
L 260.489547 549.565527 
L 261.222641 549.698476 
L 262.068517 550.093524 
L 263.534703 551.100296 
L 264.718931 551.787243 
L 265.564807 552.033882 
L 266.410684 552.041844 
L 267.312952 551.820342 
L 268.609963 551.24469 
L 270.640067 550.34698 
L 271.880686 550.070667 
L 273.854399 549.92749 
L 275.207801 549.712805 
L 276.335637 549.304751 
L 278.98605 548.216913 
L 279.719143 548.239422 
L 280.395845 548.477168 
L 281.18533 549.002858 
L 282.369557 550.110661 
L 283.72296 551.29089 
L 284.568836 551.750067 
L 285.358321 551.933235 
L 286.204198 551.88972 
L 287.275642 551.590992 
L 289.587704 550.876669 
L 290.771932 550.80566 
L 294.606573 550.809314 
L 297.087811 550.557981 
L 298.102863 550.711239 
L 299.061523 551.082984 
L 300.189359 551.767867 
L 303.40369 553.890607 
L 304.305958 554.111824 
L 305.264619 554.100525 
L 306.505238 553.835637 
L 308.930084 553.03604 
L 312.426374 551.85961 
L 313.441426 551.829885 
L 314.625654 552.035703 
L 318.234727 552.834461 
L 320.715966 552.988885 
L 323.422771 552.999591 
L 325.62205 552.748784 
L 329.964217 551.986057 
L 334.588343 550.892203 
L 335.490611 551.028549 
L 336.449271 551.408105 
L 337.633499 552.138618 
L 339.663603 553.418082 
L 340.622263 553.735627 
L 341.580923 553.818708 
L 342.652367 553.684718 
L 344.569687 553.162614 
L 345.979482 552.891274 
L 347.107317 552.905844 
L 348.629895 553.189329 
L 350.03969 553.378984 
L 351.054742 553.284458 
L 352.182577 552.941255 
L 354.212681 552.286354 
L 355.058558 552.277286 
L 355.904435 552.507335 
L 356.919487 553.047048 
L 359.5699 554.614843 
L 360.472169 554.818665 
L 361.430829 554.796094 
L 362.671448 554.52253 
L 365.547429 553.819095 
L 367.239182 553.691747 
L 369.945987 553.531244 
L 374.006195 552.962325 
L 375.246814 553.221684 
L 377.389702 553.706018 
L 378.461146 553.683252 
L 379.588981 553.426227 
L 383.141663 552.43687 
L 384.269499 552.469734 
L 387.822181 552.812869 
L 388.837233 552.528347 
L 391.431254 551.65757 
L 392.164347 551.744324 
L 392.89744 552.081103 
L 393.743317 552.745951 
L 396.901257 555.545685 
L 397.63435 555.776703 
L 398.367443 555.779103 
L 399.156928 555.549946 
L 400.17198 555.000059 
L 402.822393 553.430454 
L 403.837445 553.165775 
L 405.021673 553.11107 
L 407.390127 553.059501 
L 409.476623 552.643369 
L 410.66085 552.553135 
L 411.619511 552.704455 
L 412.634563 553.096105 
L 414.495491 554.126128 
L 415.679719 554.6372 
L 416.638379 554.805506 
L 417.597039 554.738826 
L 418.89405 554.40086 
L 421.206113 553.78682 
L 422.503124 553.685978 
L 423.743743 553.812833 
L 425.491888 554.260629 
L 427.014466 554.564076 
L 428.367868 554.589993 
L 431.243849 554.561423 
L 433.725087 554.633798 
L 435.022098 554.396997 
L 438.236429 553.653415 
L 439.307873 553.729911 
L 442.465813 554.152826 
L 443.368081 553.930047 
L 444.383133 553.44322 
L 447.202722 551.924079 
L 447.935815 551.858627 
L 448.612516 552.018209 
L 449.34561 552.428512 
L 450.30427 553.259085 
L 452.954683 555.744679 
L 453.856952 556.195651 
L 454.702828 556.378226 
L 455.71788 556.360288 
L 457.91716 556.008208 
L 459.552521 555.902196 
L 462.541285 555.798356 
L 463.725513 555.466612 
L 467.334587 554.260445 
L 468.349639 554.274094 
L 469.533866 554.536693 
L 472.917372 555.45673 
L 474.1016 555.43892 
L 475.906137 555.150042 
L 478.443767 554.793339 
L 481.488923 554.611117 
L 483.857377 554.707071 
L 486.338615 555.027496 
L 488.763462 555.584178 
L 490.624391 555.934884 
L 491.808618 555.92569 
L 493.049237 555.681002 
L 496.094393 554.96416 
L 497.616971 554.958577 
L 499.421508 554.914125 
L 500.662127 554.633843 
L 503.820066 553.761201 
L 504.665943 553.848443 
L 505.51182 554.157217 
L 506.526872 554.773732 
L 509.233677 556.556016 
L 510.135945 556.812484 
L 511.094606 556.855212 
L 512.5044 556.661239 
L 514.421721 556.437907 
L 516.846567 556.462848 
L 518.369145 556.353206 
L 519.609764 556.041682 
L 521.132342 555.403907 
L 522.880487 554.714368 
L 523.782756 554.590115 
L 524.628632 554.697958 
L 525.530901 555.043018 
L 526.940695 555.866667 
L 528.463273 556.685077 
L 529.534717 556.996684 
L 530.606161 557.071752 
L 532.015955 556.924508 
L 534.046059 556.468744 
L 538.219051 555.444416 
L 540.023587 555.324119 
L 541.546165 555.43544 
L 542.843176 555.752339 
L 546.339466 556.779526 
L 547.298127 556.690326 
L 548.313179 556.358709 
L 551.978644 554.909802 
L 552.937304 554.921677 
L 554.06514 555.16989 
L 556.377203 555.738757 
L 557.392255 555.71235 
L 558.407307 555.457596 
L 561.790813 554.373849 
L 562.63669 554.485137 
L 563.59535 554.848521 
L 565.117928 555.709862 
L 566.584115 556.445869 
L 567.542775 556.676859 
L 568.501435 556.667082 
L 569.742054 556.400091 
L 571.602983 556.001966 
L 572.843602 555.993116 
L 575.212056 556.0446 
L 576.339892 555.779967 
L 579.836182 554.7284 
L 581.02041 554.767109 
L 582.655771 555.071515 
L 587.39268 556.078236 
L 589.253609 556.130304 
L 592.580724 555.944694 
L 594.216085 555.700419 
L 595.400313 555.29678 
L 598.614644 553.98764 
L 599.404129 554.050779 
L 600.250006 554.35389 
L 603.351553 555.728682 
L 604.253822 555.743273 
L 605.325266 555.520886 
L 608.595989 554.669074 
L 610.23135 554.619684 
L 612.148671 554.523594 
L 613.445681 554.213011 
L 616.660013 553.278654 
L 617.393106 553.410434 
L 618.126199 553.780239 
L 618.972076 554.476328 
L 620.494654 556.100549 
L 621.678881 557.221464 
L 622.524758 557.746489 
L 623.314242 557.98328 
L 624.103727 557.993718 
L 625.118779 557.767893 
L 628.897028 556.707223 
L 631.321875 556.180678 
L 633.351979 555.433248 
L 634.930949 554.941581 
L 635.889609 554.859283 
L 636.791877 555.005003 
L 637.750537 555.402435 
L 639.10394 556.249211 
L 640.739302 557.223959 
L 641.64157 557.506778 
L 642.487447 557.536035 
L 643.389715 557.337145 
L 644.743118 556.771407 
L 647.393531 555.641483 
L 649.141676 555.151412 
L 650.664254 554.955969 
L 652.75075 554.950377 
L 655.062813 555.113349 
L 656.24704 555.432152 
L 657.656835 556.072409 
L 659.461372 556.865598 
L 660.476424 557.051259 
L 661.491476 557.005416 
L 662.90127 556.692537 
L 664.987766 556.242793 
L 666.848695 556.141907 
L 668.258489 555.97231 
L 669.386325 555.603212 
L 670.852511 554.85353 
L 672.318697 554.17433 
L 673.164574 554.023933 
L 673.897667 554.112259 
L 674.687152 554.441787 
L 675.702204 555.13722 
L 676.660864 555.904201 
L 676.660864 555.904201 
" clip-path="url(#p7c770b9665)" style="fill: none; stroke: #0000ff; stroke-width: 1.5; stroke-linecap: square"/>
   </g>
   <g id="patch_3">
    <path d="M 84.665625 640.3905 
L 84.665625 39.1875 
" style="fill: none; stroke: #000000; stroke-width: 0.8; stroke-linejoin: miter; stroke-linecap: square"/>
   </g>
   <g id="patch_4">
    <path d="M 704.851113 640.3905 
L 704.851113 39.1875 
" style="fill: none; stroke: #000000; stroke-width: 0.8; stroke-linejoin: miter; stroke-linecap: square"/>
   </g>
   <g id="patch_5">
    <path d="M 84.665625 640.3905 
L 704.851113 640.3905 
" style="fill: none; stroke: #000000; stroke-width: 0.8; stroke-linejoin: miter; stroke-linecap: square"/>
   </g>
   <g id="patch_6">
    <path d="M 84.665625 39.1875 
L 704.851113 39.1875 
" style="fill: none; stroke: #000000; stroke-width: 0.8; stroke-linejoin: miter; stroke-linecap: square"/>
   </g>
   <g id="legend_1">
    <g id="patch_7">
     <path d="M 507.840176 149.11875 
L 683.851113 149.11875 
Q 689.851113 149.11875 689.851113 143.11875 
L 689.851113 60.1875 
Q 689.851113 54.1875 683.851113 54.1875 
L 507.840176 54.1875 
Q 501.840176 54.1875 501.840176 60.1875 
L 501.840176 143.11875 
Q 501.840176 149.11875 507.840176 149.11875 
z
" style="fill: #ffffff; opacity: 0.8; stroke: #cccccc; stroke-linejoin: miter"/>
    </g>
    <g id="line2d_49">
     <path d="M 513.840176 77.428125 
L 543.840176 77.428125 
L 573.840176 77.428125 
" style="fill: none; stroke: #ff0000; stroke-width: 1.5; stroke-linecap: square"/>
    </g>
    <g id="text_15">
     <!-- MD -->
     <g transform="translate(597.840176 87.928125) scale(0.3 -0.3)">
      <defs>
       <path id="LiberationSans-4d" d="M 4269 0 
L 4269 2938 
Q 4269 3425 4297 3875 
Q 4144 3316 4022 3000 
L 2884 0 
L 2466 0 
L 1313 3000 
L 1138 3531 
L 1034 3875 
L 1044 3528 
L 1056 2938 
L 1056 0 
L 525 0 
L 525 4403 
L 1309 4403 
L 2481 1350 
Q 2544 1166 2601 955 
Q 2659 744 2678 650 
Q 2703 775 2783 1029 
Q 2863 1284 2891 1350 
L 4041 4403 
L 4806 4403 
L 4806 0 
L 4269 0 
z
" transform="scale(0.015625)"/>
       <path id="LiberationSans-44" d="M 4316 2247 
Q 4316 1566 4050 1055 
Q 3784 544 3296 272 
Q 2809 0 2172 0 
L 525 0 
L 525 4403 
L 1981 4403 
Q 3100 4403 3708 3842 
Q 4316 3281 4316 2247 
z
M 3716 2247 
Q 3716 3066 3267 3495 
Q 2819 3925 1969 3925 
L 1122 3925 
L 1122 478 
L 2103 478 
Q 2588 478 2955 690 
Q 3322 903 3519 1303 
Q 3716 1703 3716 2247 
z
" transform="scale(0.015625)"/>
      </defs>
      <use xlink:href="#LiberationSans-4d"/>
      <use xlink:href="#LiberationSans-44" x="83.300781"/>
     </g>
    </g>
    <g id="line2d_50">
     <path d="M 513.840176 120.39375 
L 543.840176 120.39375 
L 573.840176 120.39375 
" style="fill: none; stroke: #0000ff; stroke-width: 1.5; stroke-linecap: square"/>
    </g>
    <g id="text_16">
     <!-- GANs -->
     <g transform="translate(597.840176 130.89375) scale(0.3 -0.3)">
      <defs>
       <path id="LiberationSans-47" d="M 322 2222 
Q 322 3294 897 3881 
Q 1472 4469 2513 4469 
Q 3244 4469 3700 4222 
Q 4156 3975 4403 3431 
L 3834 3263 
Q 3647 3638 3317 3809 
Q 2988 3981 2497 3981 
Q 1734 3981 1331 3520 
Q 928 3059 928 2222 
Q 928 1388 1356 905 
Q 1784 422 2541 422 
Q 2972 422 3345 553 
Q 3719 684 3950 909 
L 3950 1703 
L 2634 1703 
L 2634 2203 
L 4500 2203 
L 4500 684 
Q 4150 328 3642 132 
Q 3134 -63 2541 -63 
Q 1850 -63 1350 212 
Q 850 488 586 1005 
Q 322 1522 322 2222 
z
" transform="scale(0.015625)"/>
       <path id="LiberationSans-41" d="M 3647 0 
L 3144 1288 
L 1138 1288 
L 631 0 
L 13 0 
L 1809 4403 
L 2488 4403 
L 4256 0 
L 3647 0 
z
M 2141 3953 
L 2113 3866 
Q 2034 3606 1881 3200 
L 1319 1753 
L 2966 1753 
L 2400 3206 
Q 2313 3422 2225 3694 
L 2141 3953 
z
" transform="scale(0.015625)"/>
       <path id="LiberationSans-4e" d="M 3381 0 
L 1025 3750 
L 1041 3447 
L 1056 2925 
L 1056 0 
L 525 0 
L 525 4403 
L 1219 4403 
L 3600 628 
Q 3563 1241 3563 1516 
L 3563 4403 
L 4100 4403 
L 4100 0 
L 3381 0 
z
" transform="scale(0.015625)"/>
      </defs>
      <use xlink:href="#LiberationSans-47"/>
      <use xlink:href="#LiberationSans-41" x="77.783203"/>
      <use xlink:href="#LiberationSans-4e" x="144.482422"/>
      <use xlink:href="#LiberationSans-73" x="216.699219"/>
     </g>
    </g>
   </g>
  </g>
 </g>
 <defs>
  <clipPath id="p7c770b9665">
   <rect x="84.665625" y="39.1875" width="620.185488" height="601.203"/>
  </clipPath>
 </defs>
</svg>
