<?xml version="1.0" encoding="utf-8" standalone="no"?>
<!DOCTYPE svg PUBLIC "-//W3C//DTD SVG 1.1//EN"
  "http://www.w3.org/Graphics/SVG/1.1/DTD/svg11.dtd">
<svg xmlns:xlink="http://www.w3.org/1999/xlink" width="710.556422pt" height="711.105187pt" viewBox="0 0 710.556422 711.105187" xmlns="http://www.w3.org/2000/svg" version="1.1">
 <metadata>
  <rdf:RDF xmlns:dc="http://purl.org/dc/elements/1.1/" xmlns:cc="http://creativecommons.org/ns#" xmlns:rdf="http://www.w3.org/1999/02/22-rdf-syntax-ns#">
   <cc:Work>
    <dc:type rdf:resource="http://purl.org/dc/dcmitype/StillImage"/>
    <dc:date>2025-02-02T18:15:05.233138</dc:date>
    <dc:format>image/svg+xml</dc:format>
    <dc:creator>
     <cc:Agent>
      <dc:title>Matplotlib v3.9.3, https://matplotlib.org/</dc:title>
     </cc:Agent>
    </dc:creator>
   </cc:Work>
  </rdf:RDF>
 </metadata>
 <defs>
  <style type="text/css">*{stroke-linejoin: round; stroke-linecap: butt}</style>
 </defs>
 <g id="figure_1">
  <g id="patch_1">
   <path d="M 0 711.105187 
L 710.556422 711.105187 
L 710.556422 0 
L 0 0 
z
" style="fill: #ffffff"/>
  </g>
  <g id="axes_1">
   <g id="patch_2">
    <path d="M 76.05 643.2705 
L 703.356422 643.2705 
L 703.356422 39.1875 
L 76.05 39.1875 
z
" style="fill: #ffffff"/>
   </g>
   <g id="matplotlib.axis_1">
    <g id="xtick_1">
     <g id="line2d_1">
      <defs>
       <path id="md5fe9bda8a" d="M 0 0 
L 0 -3.5 
" style="stroke: #000000; stroke-width: 0.8"/>
      </defs>
      <g>
       <use xlink:href="#md5fe9bda8a" x="104.506895" y="643.2705" style="stroke: #000000; stroke-width: 0.8"/>
      </g>
     </g>
     <g id="text_1">
      <!-- 0 -->
      <g transform="translate(96.999629 666.337062) scale(0.27 -0.27)">
       <defs>
        <path id="LiberationSans-30" d="M 3309 2203 
Q 3309 1100 2920 518 
Q 2531 -63 1772 -63 
Q 1013 -63 631 515 
Q 250 1094 250 2203 
Q 250 3338 620 3903 
Q 991 4469 1791 4469 
Q 2569 4469 2939 3897 
Q 3309 3325 3309 2203 
z
M 2738 2203 
Q 2738 3156 2517 3584 
Q 2297 4013 1791 4013 
Q 1272 4013 1045 3591 
Q 819 3169 819 2203 
Q 819 1266 1048 831 
Q 1278 397 1778 397 
Q 2275 397 2506 840 
Q 2738 1284 2738 2203 
z
" transform="scale(0.015625)"/>
       </defs>
       <use xlink:href="#LiberationSans-30"/>
      </g>
     </g>
    </g>
    <g id="xtick_2">
     <g id="line2d_2">
      <g>
       <use xlink:href="#md5fe9bda8a" x="218.574014" y="643.2705" style="stroke: #000000; stroke-width: 0.8"/>
      </g>
     </g>
     <g id="text_2">
      <!-- 2 -->
      <g transform="translate(211.066749 666.337062) scale(0.27 -0.27)">
       <defs>
        <path id="LiberationSans-32" d="M 322 0 
L 322 397 
Q 481 763 711 1042 
Q 941 1322 1194 1548 
Q 1447 1775 1695 1969 
Q 1944 2163 2144 2356 
Q 2344 2550 2467 2762 
Q 2591 2975 2591 3244 
Q 2591 3606 2378 3806 
Q 2166 4006 1788 4006 
Q 1428 4006 1195 3811 
Q 963 3616 922 3263 
L 347 3316 
Q 409 3844 795 4156 
Q 1181 4469 1788 4469 
Q 2453 4469 2811 4155 
Q 3169 3841 3169 3263 
Q 3169 3006 3051 2753 
Q 2934 2500 2703 2247 
Q 2472 1994 1819 1463 
Q 1459 1169 1246 933 
Q 1034 697 941 478 
L 3238 478 
L 3238 0 
L 322 0 
z
" transform="scale(0.015625)"/>
       </defs>
       <use xlink:href="#LiberationSans-32"/>
      </g>
     </g>
    </g>
    <g id="xtick_3">
     <g id="line2d_3">
      <g>
       <use xlink:href="#md5fe9bda8a" x="332.641134" y="643.2705" style="stroke: #000000; stroke-width: 0.8"/>
      </g>
     </g>
     <g id="text_3">
      <!-- 4 -->
      <g transform="translate(325.133869 666.337062) scale(0.27 -0.27)">
       <defs>
        <path id="LiberationSans-34" d="M 2753 997 
L 2753 0 
L 2222 0 
L 2222 997 
L 147 997 
L 147 1434 
L 2163 4403 
L 2753 4403 
L 2753 1441 
L 3372 1441 
L 3372 997 
L 2753 997 
z
M 2222 3769 
Q 2216 3750 2134 3603 
Q 2053 3456 2013 3397 
L 884 1734 
L 716 1503 
L 666 1441 
L 2222 1441 
L 2222 3769 
z
" transform="scale(0.015625)"/>
       </defs>
       <use xlink:href="#LiberationSans-34"/>
      </g>
     </g>
    </g>
    <g id="xtick_4">
     <g id="line2d_4">
      <g>
       <use xlink:href="#md5fe9bda8a" x="446.708254" y="643.2705" style="stroke: #000000; stroke-width: 0.8"/>
      </g>
     </g>
     <g id="text_4">
      <!-- 6 -->
      <g transform="translate(439.200988 666.337062) scale(0.27 -0.27)">
       <defs>
        <path id="LiberationSans-36" d="M 3278 1441 
Q 3278 744 2900 340 
Q 2522 -63 1856 -63 
Q 1113 -63 719 490 
Q 325 1044 325 2100 
Q 325 3244 734 3856 
Q 1144 4469 1900 4469 
Q 2897 4469 3156 3572 
L 2619 3475 
Q 2453 4013 1894 4013 
Q 1413 4013 1148 3564 
Q 884 3116 884 2266 
Q 1038 2550 1316 2698 
Q 1594 2847 1953 2847 
Q 2563 2847 2920 2465 
Q 3278 2084 3278 1441 
z
M 2706 1416 
Q 2706 1894 2472 2153 
Q 2238 2413 1819 2413 
Q 1425 2413 1183 2183 
Q 941 1953 941 1550 
Q 941 1041 1192 716 
Q 1444 391 1838 391 
Q 2244 391 2475 664 
Q 2706 938 2706 1416 
z
" transform="scale(0.015625)"/>
       </defs>
       <use xlink:href="#LiberationSans-36"/>
      </g>
     </g>
    </g>
    <g id="xtick_5">
     <g id="line2d_5">
      <g>
       <use xlink:href="#md5fe9bda8a" x="560.775374" y="643.2705" style="stroke: #000000; stroke-width: 0.8"/>
      </g>
     </g>
     <g id="text_5">
      <!-- 8 -->
      <g transform="translate(553.268108 666.337062) scale(0.27 -0.27)">
       <defs>
        <path id="LiberationSans-38" d="M 3281 1228 
Q 3281 619 2893 278 
Q 2506 -63 1781 -63 
Q 1075 -63 676 271 
Q 278 606 278 1222 
Q 278 1653 525 1947 
Q 772 2241 1156 2303 
L 1156 2316 
Q 797 2400 589 2681 
Q 381 2963 381 3341 
Q 381 3844 757 4156 
Q 1134 4469 1769 4469 
Q 2419 4469 2795 4162 
Q 3172 3856 3172 3334 
Q 3172 2956 2962 2675 
Q 2753 2394 2391 2322 
L 2391 2309 
Q 2813 2241 3047 1952 
Q 3281 1663 3281 1228 
z
M 2588 3303 
Q 2588 4050 1769 4050 
Q 1372 4050 1164 3862 
Q 956 3675 956 3303 
Q 956 2925 1170 2726 
Q 1384 2528 1775 2528 
Q 2172 2528 2380 2711 
Q 2588 2894 2588 3303 
z
M 2697 1281 
Q 2697 1691 2453 1898 
Q 2209 2106 1769 2106 
Q 1341 2106 1100 1882 
Q 859 1659 859 1269 
Q 859 359 1788 359 
Q 2247 359 2472 579 
Q 2697 800 2697 1281 
z
" transform="scale(0.015625)"/>
       </defs>
       <use xlink:href="#LiberationSans-38"/>
      </g>
     </g>
    </g>
    <g id="xtick_6">
     <g id="line2d_6">
      <g>
       <use xlink:href="#md5fe9bda8a" x="674.842494" y="643.2705" style="stroke: #000000; stroke-width: 0.8"/>
      </g>
     </g>
     <g id="text_6">
      <!-- 10 -->
      <g transform="translate(659.827962 666.337062) scale(0.27 -0.27)">
       <defs>
        <path id="LiberationSans-31" d="M 488 0 
L 488 478 
L 1609 478 
L 1609 3866 
L 616 3156 
L 616 3688 
L 1656 4403 
L 2175 4403 
L 2175 478 
L 3247 478 
L 3247 0 
L 488 0 
z
" transform="scale(0.015625)"/>
       </defs>
       <use xlink:href="#LiberationSans-31"/>
       <use xlink:href="#LiberationSans-30" x="55.615234"/>
      </g>
     </g>
    </g>
    <g id="xtick_7">
     <g id="line2d_7">
      <defs>
       <path id="m0175bbe119" d="M 0 0 
L 0 -2 
" style="stroke: #000000; stroke-width: 0.6"/>
      </defs>
      <g>
       <use xlink:href="#m0175bbe119" x="133.023675" y="643.2705" style="stroke: #000000; stroke-width: 0.6"/>
      </g>
     </g>
    </g>
    <g id="xtick_8">
     <g id="line2d_8">
      <g>
       <use xlink:href="#m0175bbe119" x="161.540455" y="643.2705" style="stroke: #000000; stroke-width: 0.6"/>
      </g>
     </g>
    </g>
    <g id="xtick_9">
     <g id="line2d_9">
      <g>
       <use xlink:href="#m0175bbe119" x="190.057235" y="643.2705" style="stroke: #000000; stroke-width: 0.6"/>
      </g>
     </g>
    </g>
    <g id="xtick_10">
     <g id="line2d_10">
      <g>
       <use xlink:href="#m0175bbe119" x="247.090794" y="643.2705" style="stroke: #000000; stroke-width: 0.6"/>
      </g>
     </g>
    </g>
    <g id="xtick_11">
     <g id="line2d_11">
      <g>
       <use xlink:href="#m0175bbe119" x="275.607574" y="643.2705" style="stroke: #000000; stroke-width: 0.6"/>
      </g>
     </g>
    </g>
    <g id="xtick_12">
     <g id="line2d_12">
      <g>
       <use xlink:href="#m0175bbe119" x="304.124354" y="643.2705" style="stroke: #000000; stroke-width: 0.6"/>
      </g>
     </g>
    </g>
    <g id="xtick_13">
     <g id="line2d_13">
      <g>
       <use xlink:href="#m0175bbe119" x="361.157914" y="643.2705" style="stroke: #000000; stroke-width: 0.6"/>
      </g>
     </g>
    </g>
    <g id="xtick_14">
     <g id="line2d_14">
      <g>
       <use xlink:href="#m0175bbe119" x="389.674694" y="643.2705" style="stroke: #000000; stroke-width: 0.6"/>
      </g>
     </g>
    </g>
    <g id="xtick_15">
     <g id="line2d_15">
      <g>
       <use xlink:href="#m0175bbe119" x="418.191474" y="643.2705" style="stroke: #000000; stroke-width: 0.6"/>
      </g>
     </g>
    </g>
    <g id="xtick_16">
     <g id="line2d_16">
      <g>
       <use xlink:href="#m0175bbe119" x="475.225034" y="643.2705" style="stroke: #000000; stroke-width: 0.6"/>
      </g>
     </g>
    </g>
    <g id="xtick_17">
     <g id="line2d_17">
      <g>
       <use xlink:href="#m0175bbe119" x="503.741814" y="643.2705" style="stroke: #000000; stroke-width: 0.6"/>
      </g>
     </g>
    </g>
    <g id="xtick_18">
     <g id="line2d_18">
      <g>
       <use xlink:href="#m0175bbe119" x="532.258594" y="643.2705" style="stroke: #000000; stroke-width: 0.6"/>
      </g>
     </g>
    </g>
    <g id="xtick_19">
     <g id="line2d_19">
      <g>
       <use xlink:href="#m0175bbe119" x="589.292154" y="643.2705" style="stroke: #000000; stroke-width: 0.6"/>
      </g>
     </g>
    </g>
    <g id="xtick_20">
     <g id="line2d_20">
      <g>
       <use xlink:href="#m0175bbe119" x="617.808934" y="643.2705" style="stroke: #000000; stroke-width: 0.6"/>
      </g>
     </g>
    </g>
    <g id="xtick_21">
     <g id="line2d_21">
      <g>
       <use xlink:href="#m0175bbe119" x="646.325714" y="643.2705" style="stroke: #000000; stroke-width: 0.6"/>
      </g>
     </g>
    </g>
    <g id="text_7">
     <!-- Time ps -->
     <g transform="translate(336.926648 697.680187) scale(0.3 -0.3)">
      <defs>
       <path id="LiberationSans-54" d="M 2250 3916 
L 2250 0 
L 1656 0 
L 1656 3916 
L 144 3916 
L 144 4403 
L 3763 4403 
L 3763 3916 
L 2250 3916 
z
" transform="scale(0.015625)"/>
       <path id="LiberationSans-69" d="M 428 4100 
L 428 4638 
L 991 4638 
L 991 4100 
L 428 4100 
z
M 428 0 
L 428 3381 
L 991 3381 
L 991 0 
L 428 0 
z
" transform="scale(0.015625)"/>
       <path id="LiberationSans-6d" d="M 2400 0 
L 2400 2144 
Q 2400 2634 2265 2821 
Q 2131 3009 1781 3009 
Q 1422 3009 1212 2734 
Q 1003 2459 1003 1959 
L 1003 0 
L 444 0 
L 444 2659 
Q 444 3250 425 3381 
L 956 3381 
Q 959 3366 962 3297 
Q 966 3228 970 3139 
Q 975 3050 981 2803 
L 991 2803 
Q 1172 3163 1406 3303 
Q 1641 3444 1978 3444 
Q 2363 3444 2586 3291 
Q 2809 3138 2897 2803 
L 2906 2803 
Q 3081 3144 3329 3294 
Q 3578 3444 3931 3444 
Q 4444 3444 4676 3166 
Q 4909 2888 4909 2253 
L 4909 0 
L 4353 0 
L 4353 2144 
Q 4353 2634 4218 2821 
Q 4084 3009 3734 3009 
Q 3366 3009 3161 2736 
Q 2956 2463 2956 1959 
L 2956 0 
L 2400 0 
z
" transform="scale(0.015625)"/>
       <path id="LiberationSans-65" d="M 863 1572 
Q 863 991 1103 675 
Q 1344 359 1806 359 
Q 2172 359 2392 506 
Q 2613 653 2691 878 
L 3184 738 
Q 2881 -63 1806 -63 
Q 1056 -63 664 384 
Q 272 831 272 1713 
Q 272 2550 664 2997 
Q 1056 3444 1784 3444 
Q 3275 3444 3275 1647 
L 3275 1572 
L 863 1572 
z
M 2694 2003 
Q 2647 2538 2422 2783 
Q 2197 3028 1775 3028 
Q 1366 3028 1127 2754 
Q 888 2481 869 2003 
L 2694 2003 
z
" transform="scale(0.015625)"/>
       <path id="LiberationSans-20" transform="scale(0.015625)"/>
       <path id="LiberationSans-70" d="M 3291 1706 
Q 3291 -63 2047 -63 
Q 1266 -63 997 525 
L 981 525 
Q 994 500 994 -6 
L 994 -1328 
L 431 -1328 
L 431 2691 
Q 431 3213 413 3381 
L 956 3381 
Q 959 3369 965 3292 
Q 972 3216 980 3056 
Q 988 2897 988 2838 
L 1000 2838 
Q 1150 3150 1397 3295 
Q 1644 3441 2047 3441 
Q 2672 3441 2981 3022 
Q 3291 2603 3291 1706 
z
M 2700 1694 
Q 2700 2400 2509 2703 
Q 2319 3006 1903 3006 
Q 1569 3006 1380 2865 
Q 1191 2725 1092 2426 
Q 994 2128 994 1650 
Q 994 984 1206 668 
Q 1419 353 1897 353 
Q 2316 353 2508 661 
Q 2700 969 2700 1694 
z
" transform="scale(0.015625)"/>
       <path id="LiberationSans-73" d="M 2969 934 
Q 2969 456 2608 196 
Q 2247 -63 1597 -63 
Q 966 -63 623 145 
Q 281 353 178 794 
L 675 891 
Q 747 619 972 492 
Q 1197 366 1597 366 
Q 2025 366 2223 497 
Q 2422 628 2422 891 
Q 2422 1091 2284 1216 
Q 2147 1341 1841 1422 
L 1438 1528 
Q 953 1653 748 1773 
Q 544 1894 428 2066 
Q 313 2238 313 2488 
Q 313 2950 642 3192 
Q 972 3434 1603 3434 
Q 2163 3434 2492 3237 
Q 2822 3041 2909 2606 
L 2403 2544 
Q 2356 2769 2151 2889 
Q 1947 3009 1603 3009 
Q 1222 3009 1040 2893 
Q 859 2778 859 2544 
Q 859 2400 934 2306 
Q 1009 2213 1156 2147 
Q 1303 2081 1775 1966 
Q 2222 1853 2419 1758 
Q 2616 1663 2730 1547 
Q 2844 1431 2906 1279 
Q 2969 1128 2969 934 
z
" transform="scale(0.015625)"/>
      </defs>
      <use xlink:href="#LiberationSans-54"/>
      <use xlink:href="#LiberationSans-69" x="57.333984"/>
      <use xlink:href="#LiberationSans-6d" x="79.550781"/>
      <use xlink:href="#LiberationSans-65" x="162.851562"/>
      <use xlink:href="#LiberationSans-20" x="218.466797"/>
      <use xlink:href="#LiberationSans-70" x="246.25"/>
      <use xlink:href="#LiberationSans-73" x="301.865234"/>
     </g>
    </g>
   </g>
   <g id="matplotlib.axis_2">
    <g id="ytick_1">
     <g id="line2d_22">
      <defs>
       <path id="m443f3fcda4" d="M 0 0 
L 3.5 0 
" style="stroke: #000000; stroke-width: 0.8"/>
      </defs>
      <g>
       <use xlink:href="#m443f3fcda4" x="76.05" y="574.569501" style="stroke: #000000; stroke-width: 0.8"/>
      </g>
     </g>
     <g id="text_8">
      <!-- $\mathdefault{−2}$ -->
      <g transform="translate(41.5 584.352782) scale(0.27 -0.27)">
       <defs>
        <path id="LiberationSans-2212" d="M 316 1900 
L 316 2356 
L 3425 2356 
L 3425 1900 
L 316 1900 
z
" transform="scale(0.015625)"/>
       </defs>
       <use xlink:href="#LiberationSans-2212" transform="translate(0 0.171875)"/>
       <use xlink:href="#LiberationSans-32" transform="translate(58.398438 0.171875)"/>
      </g>
     </g>
    </g>
    <g id="ytick_2">
     <g id="line2d_23">
      <g>
       <use xlink:href="#m443f3fcda4" x="76.05" y="479.616455" style="stroke: #000000; stroke-width: 0.8"/>
      </g>
     </g>
     <g id="text_9">
      <!-- $\mathdefault{0}$ -->
      <g transform="translate(57.43 489.399736) scale(0.27 -0.27)">
       <use xlink:href="#LiberationSans-30" transform="translate(0 0.171875)"/>
      </g>
     </g>
    </g>
    <g id="ytick_3">
     <g id="line2d_24">
      <g>
       <use xlink:href="#m443f3fcda4" x="76.05" y="384.663409" style="stroke: #000000; stroke-width: 0.8"/>
      </g>
     </g>
     <g id="text_10">
      <!-- $\mathdefault{2}$ -->
      <g transform="translate(57.43 394.44669) scale(0.27 -0.27)">
       <use xlink:href="#LiberationSans-32" transform="translate(0 0.171875)"/>
      </g>
     </g>
    </g>
    <g id="ytick_4">
     <g id="line2d_25">
      <g>
       <use xlink:href="#m443f3fcda4" x="76.05" y="289.710363" style="stroke: #000000; stroke-width: 0.8"/>
      </g>
     </g>
     <g id="text_11">
      <!-- $\mathdefault{4}$ -->
      <g transform="translate(57.43 299.493645) scale(0.27 -0.27)">
       <use xlink:href="#LiberationSans-34" transform="translate(0 0.203125)"/>
      </g>
     </g>
    </g>
    <g id="ytick_5">
     <g id="line2d_26">
      <g>
       <use xlink:href="#m443f3fcda4" x="76.05" y="194.757318" style="stroke: #000000; stroke-width: 0.8"/>
      </g>
     </g>
     <g id="text_12">
      <!-- $\mathdefault{6}$ -->
      <g transform="translate(57.43 204.540599) scale(0.27 -0.27)">
       <use xlink:href="#LiberationSans-36" transform="translate(0 0.171875)"/>
      </g>
     </g>
    </g>
    <g id="ytick_6">
     <g id="line2d_27">
      <g>
       <use xlink:href="#m443f3fcda4" x="76.05" y="99.804272" style="stroke: #000000; stroke-width: 0.8"/>
      </g>
     </g>
     <g id="text_13">
      <!-- $\mathdefault{8}$ -->
      <g transform="translate(57.43 109.587553) scale(0.27 -0.27)">
       <use xlink:href="#LiberationSans-38" transform="translate(0 0.171875)"/>
      </g>
     </g>
    </g>
    <g id="ytick_7">
     <g id="line2d_28">
      <defs>
       <path id="m40f775ce07" d="M 0 0 
L 2 0 
" style="stroke: #000000; stroke-width: 0.6"/>
      </defs>
      <g>
       <use xlink:href="#m40f775ce07" x="76.05" y="622.046023" style="stroke: #000000; stroke-width: 0.6"/>
      </g>
     </g>
    </g>
    <g id="ytick_8">
     <g id="line2d_29">
      <g>
       <use xlink:href="#m40f775ce07" x="76.05" y="598.307762" style="stroke: #000000; stroke-width: 0.6"/>
      </g>
     </g>
    </g>
    <g id="ytick_9">
     <g id="line2d_30">
      <g>
       <use xlink:href="#m40f775ce07" x="76.05" y="550.831239" style="stroke: #000000; stroke-width: 0.6"/>
      </g>
     </g>
    </g>
    <g id="ytick_10">
     <g id="line2d_31">
      <g>
       <use xlink:href="#m40f775ce07" x="76.05" y="527.092978" style="stroke: #000000; stroke-width: 0.6"/>
      </g>
     </g>
    </g>
    <g id="ytick_11">
     <g id="line2d_32">
      <g>
       <use xlink:href="#m40f775ce07" x="76.05" y="503.354716" style="stroke: #000000; stroke-width: 0.6"/>
      </g>
     </g>
    </g>
    <g id="ytick_12">
     <g id="line2d_33">
      <g>
       <use xlink:href="#m40f775ce07" x="76.05" y="455.878193" style="stroke: #000000; stroke-width: 0.6"/>
      </g>
     </g>
    </g>
    <g id="ytick_13">
     <g id="line2d_34">
      <g>
       <use xlink:href="#m40f775ce07" x="76.05" y="432.139932" style="stroke: #000000; stroke-width: 0.6"/>
      </g>
     </g>
    </g>
    <g id="ytick_14">
     <g id="line2d_35">
      <g>
       <use xlink:href="#m40f775ce07" x="76.05" y="408.401671" style="stroke: #000000; stroke-width: 0.6"/>
      </g>
     </g>
    </g>
    <g id="ytick_15">
     <g id="line2d_36">
      <g>
       <use xlink:href="#m40f775ce07" x="76.05" y="360.925148" style="stroke: #000000; stroke-width: 0.6"/>
      </g>
     </g>
    </g>
    <g id="ytick_16">
     <g id="line2d_37">
      <g>
       <use xlink:href="#m40f775ce07" x="76.05" y="337.186886" style="stroke: #000000; stroke-width: 0.6"/>
      </g>
     </g>
    </g>
    <g id="ytick_17">
     <g id="line2d_38">
      <g>
       <use xlink:href="#m40f775ce07" x="76.05" y="313.448625" style="stroke: #000000; stroke-width: 0.6"/>
      </g>
     </g>
    </g>
    <g id="ytick_18">
     <g id="line2d_39">
      <g>
       <use xlink:href="#m40f775ce07" x="76.05" y="265.972102" style="stroke: #000000; stroke-width: 0.6"/>
      </g>
     </g>
    </g>
    <g id="ytick_19">
     <g id="line2d_40">
      <g>
       <use xlink:href="#m40f775ce07" x="76.05" y="242.233841" style="stroke: #000000; stroke-width: 0.6"/>
      </g>
     </g>
    </g>
    <g id="ytick_20">
     <g id="line2d_41">
      <g>
       <use xlink:href="#m40f775ce07" x="76.05" y="218.495579" style="stroke: #000000; stroke-width: 0.6"/>
      </g>
     </g>
    </g>
    <g id="ytick_21">
     <g id="line2d_42">
      <g>
       <use xlink:href="#m40f775ce07" x="76.05" y="171.019056" style="stroke: #000000; stroke-width: 0.6"/>
      </g>
     </g>
    </g>
    <g id="ytick_22">
     <g id="line2d_43">
      <g>
       <use xlink:href="#m40f775ce07" x="76.05" y="147.280795" style="stroke: #000000; stroke-width: 0.6"/>
      </g>
     </g>
    </g>
    <g id="ytick_23">
     <g id="line2d_44">
      <g>
       <use xlink:href="#m40f775ce07" x="76.05" y="123.542533" style="stroke: #000000; stroke-width: 0.6"/>
      </g>
     </g>
    </g>
    <g id="ytick_24">
     <g id="line2d_45">
      <g>
       <use xlink:href="#m40f775ce07" x="76.05" y="76.06601" style="stroke: #000000; stroke-width: 0.6"/>
      </g>
     </g>
    </g>
    <g id="ytick_25">
     <g id="line2d_46">
      <g>
       <use xlink:href="#m40f775ce07" x="76.05" y="52.327749" style="stroke: #000000; stroke-width: 0.6"/>
      </g>
     </g>
    </g>
    <g id="text_14">
     <!-- HFACF $(\mathrm{W} / \mathrm{m}^2)^2$ -->
     <g transform="translate(31.275 447.729) rotate(-90) scale(0.3 -0.3)">
      <defs>
       <path id="LiberationSans-48" d="M 3503 0 
L 3503 2041 
L 1122 2041 
L 1122 0 
L 525 0 
L 525 4403 
L 1122 4403 
L 1122 2541 
L 3503 2541 
L 3503 4403 
L 4100 4403 
L 4100 0 
L 3503 0 
z
" transform="scale(0.015625)"/>
       <path id="LiberationSans-46" d="M 1122 3916 
L 1122 2278 
L 3578 2278 
L 3578 1784 
L 1122 1784 
L 1122 0 
L 525 0 
L 525 4403 
L 3653 4403 
L 3653 3916 
L 1122 3916 
z
" transform="scale(0.015625)"/>
       <path id="LiberationSans-41" d="M 3647 0 
L 3144 1288 
L 1138 1288 
L 631 0 
L 13 0 
L 1809 4403 
L 2488 4403 
L 4256 0 
L 3647 0 
z
M 2141 3953 
L 2113 3866 
Q 2034 3606 1881 3200 
L 1319 1753 
L 2966 1753 
L 2400 3206 
Q 2313 3422 2225 3694 
L 2141 3953 
z
" transform="scale(0.015625)"/>
       <path id="LiberationSans-43" d="M 2475 3981 
Q 1744 3981 1337 3511 
Q 931 3041 931 2222 
Q 931 1413 1354 920 
Q 1778 428 2500 428 
Q 3425 428 3891 1344 
L 4378 1100 
Q 4106 531 3614 234 
Q 3122 -63 2472 -63 
Q 1806 -63 1320 214 
Q 834 491 579 1005 
Q 325 1519 325 2222 
Q 325 3275 894 3872 
Q 1463 4469 2469 4469 
Q 3172 4469 3644 4194 
Q 4116 3919 4338 3378 
L 3772 3191 
Q 3619 3575 3280 3778 
Q 2941 3981 2475 3981 
z
" transform="scale(0.015625)"/>
       <path id="STIXGeneral-Regular-28" d="M 1946 -1030 
L 1869 -1133 
Q 1126 -710 716 32 
Q 307 774 307 1613 
Q 307 3386 1888 4326 
L 1946 4224 
Q 1293 3667 1075 3126 
Q 858 2586 858 1632 
Q 858 685 1082 96 
Q 1306 -493 1946 -1030 
z
" transform="scale(0.015625)"/>
       <path id="STIXGeneral-Regular-57" d="M 5965 4237 
L 5965 4115 
Q 5709 4064 5616 3990 
Q 5523 3917 5434 3667 
Q 4704 1709 4128 -70 
L 4032 -70 
Q 3642 1011 3008 2637 
L 2022 -70 
L 1926 -70 
Q 1709 576 1277 1753 
Q 845 2931 698 3347 
Q 538 3808 406 3958 
Q 275 4109 32 4115 
L 32 4237 
L 1594 4237 
L 1594 4115 
Q 1357 4109 1270 4064 
Q 1184 4019 1184 3917 
Q 1184 3808 1254 3616 
L 2176 1210 
L 2842 3021 
L 2662 3501 
Q 2509 3917 2400 4013 
Q 2291 4109 2010 4115 
L 2010 4237 
L 3706 4237 
L 3706 4115 
Q 3213 4102 3213 3891 
Q 3213 3808 3322 3520 
L 4237 1190 
L 5043 3360 
Q 5152 3667 5152 3853 
Q 5152 4109 4704 4115 
L 4704 4237 
L 5965 4237 
z
" transform="scale(0.015625)"/>
       <path id="STIXGeneral-Regular-2f" d="M 1837 4326 
L 378 -90 
L -58 -90 
L 1408 4326 
L 1837 4326 
z
" transform="scale(0.015625)"/>
       <path id="STIXGeneral-Regular-6d" d="M 4960 0 
L 3565 0 
L 3565 96 
Q 3834 122 3907 208 
Q 3981 294 3981 576 
L 3981 1894 
Q 3981 2278 3869 2444 
Q 3757 2611 3488 2611 
Q 3264 2611 3107 2521 
Q 2950 2432 2803 2221 
L 2803 608 
Q 2803 301 2896 201 
Q 2989 102 3264 96 
L 3264 0 
L 1830 0 
L 1830 96 
Q 2112 115 2189 188 
Q 2266 262 2266 550 
L 2266 1901 
Q 2266 2611 1850 2611 
Q 1670 2611 1468 2531 
Q 1267 2451 1171 2336 
Q 1088 2240 1088 2227 
L 1088 448 
Q 1088 243 1177 176 
Q 1267 109 1523 96 
L 1523 0 
L 102 0 
L 102 96 
Q 371 102 460 195 
Q 550 288 550 563 
L 550 2150 
Q 550 2387 499 2480 
Q 448 2573 326 2573 
Q 230 2573 122 2547 
L 122 2656 
Q 557 2778 1011 2944 
L 1062 2925 
L 1062 2451 
L 1075 2451 
Q 1363 2752 1584 2848 
Q 1805 2944 2054 2944 
Q 2560 2944 2733 2406 
Q 3232 2944 3776 2944 
Q 4518 2944 4518 1792 
L 4518 493 
Q 4518 282 4582 202 
Q 4646 122 4794 109 
L 4960 96 
L 4960 0 
z
" transform="scale(0.015625)"/>
       <path id="STIXGeneral-Regular-32" d="M 3034 877 
L 2688 0 
L 186 0 
L 186 77 
L 1325 1286 
Q 1773 1754 1965 2144 
Q 2157 2534 2157 2950 
Q 2157 3379 1920 3616 
Q 1683 3853 1267 3853 
Q 922 3853 720 3673 
Q 518 3494 326 3021 
L 192 3053 
Q 301 3648 630 3987 
Q 960 4326 1523 4326 
Q 2054 4326 2380 4006 
Q 2707 3686 2707 3200 
Q 2707 2477 1888 1613 
L 832 486 
L 2330 486 
Q 2541 486 2665 569 
Q 2790 653 2944 915 
L 3034 877 
z
" transform="scale(0.015625)"/>
       <path id="STIXGeneral-Regular-29" d="M 186 4224 
L 262 4326 
Q 992 3891 1408 3148 
Q 1824 2406 1824 1581 
Q 1824 -166 243 -1133 
L 186 -1030 
Q 845 -486 1059 54 
Q 1274 595 1274 1562 
Q 1274 2534 1059 3120 
Q 845 3706 186 4224 
z
" transform="scale(0.015625)"/>
      </defs>
      <use xlink:href="#LiberationSans-48" transform="translate(0 0.409375)"/>
      <use xlink:href="#LiberationSans-46" transform="translate(72.216797 0.409375)"/>
      <use xlink:href="#LiberationSans-41" transform="translate(133.300781 0.409375)"/>
      <use xlink:href="#LiberationSans-43" transform="translate(200 0.409375)"/>
      <use xlink:href="#LiberationSans-46" transform="translate(272.216797 0.409375)"/>
      <use xlink:href="#LiberationSans-20" transform="translate(333.300781 0.409375)"/>
      <use xlink:href="#STIXGeneral-Regular-28" transform="translate(361.083984 0.409375)"/>
      <use xlink:href="#STIXGeneral-Regular-57" transform="translate(394.383972 0.409375)"/>
      <use xlink:href="#STIXGeneral-Regular-2f" transform="translate(488.783966 0.409375)"/>
      <use xlink:href="#STIXGeneral-Regular-6d" transform="translate(516.583954 0.409375)"/>
      <use xlink:href="#STIXGeneral-Regular-32" transform="translate(595.927223 35.684375) scale(0.7)"/>
      <use xlink:href="#STIXGeneral-Regular-29" transform="translate(635.336587 0.409375)"/>
      <use xlink:href="#STIXGeneral-Regular-32" transform="translate(670.179856 35.684375) scale(0.7)"/>
     </g>
    </g>
    <g id="text_15">
     <!-- $\times\mathdefault{10^{18}}\mathdefault{}$ -->
     <g transform="translate(76.05 36.1875) scale(0.4 -0.4)">
      <defs>
       <path id="STIXGeneral-Regular-d7" d="M 3821 141 
L 3526 -160 
L 2048 1312 
L 570 -160 
L 275 134 
L 1747 1613 
L 275 3091 
L 576 3386 
L 2048 1914 
L 3526 3386 
L 3821 3098 
L 2349 1613 
L 3821 141 
z
" transform="scale(0.015625)"/>
      </defs>
      <use xlink:href="#STIXGeneral-Regular-d7" transform="translate(0 0.140625)"/>
      <use xlink:href="#LiberationSans-31" transform="translate(63.999985 0.140625)"/>
      <use xlink:href="#LiberationSans-30" transform="translate(119.615219 0.140625)"/>
      <use xlink:href="#LiberationSans-31" transform="translate(176.154946 37.120312) scale(0.7)"/>
      <use xlink:href="#LiberationSans-38" transform="translate(215.08561 37.120312) scale(0.7)"/>
     </g>
    </g>
   </g>
   <g id="line2d_47">
    <path d="M 104.563928 66.645818 
L 104.677995 67.456578 
L 104.849096 71.696023 
L 105.134264 86.608402 
L 105.533499 122.647924 
L 106.103834 198.565561 
L 108.499244 550.020596 
L 109.012546 587.789186 
L 109.468814 607.148117 
L 109.811016 614.100669 
L 110.03915 615.730804 
L 110.153217 615.774029 
L 110.267284 615.360875 
L 110.495418 613.336783 
L 110.83762 607.91789 
L 111.464989 593.461517 
L 114.430734 519.682594 
L 116.255808 479.831737 
L 117.054278 466.792547 
L 117.624613 460.469028 
L 118.080882 457.413953 
L 118.423083 456.276629 
L 118.651218 456.03579 
L 118.822318 456.108081 
L 119.050452 456.515813 
L 119.392654 457.720016 
L 119.905956 460.591696 
L 120.704426 466.607945 
L 122.5295 480.655354 
L 123.327969 485.110219 
L 124.012372 487.831446 
L 124.582708 489.339835 
L 125.09601 490.145324 
L 125.552278 490.459672 
L 125.951513 490.454989 
L 126.350748 490.217473 
L 126.86405 489.614177 
L 127.491419 488.495487 
L 128.289889 486.579424 
L 129.202426 483.803836 
L 130.22903 479.923053 
L 131.540802 473.954078 
L 132.738507 468.792987 
L 133.308842 467.180485 
L 133.708077 466.611205 
L 133.993245 466.542199 
L 134.221379 466.705876 
L 134.506547 467.19261 
L 134.905782 468.395916 
L 135.419084 470.761275 
L 136.16052 475.362494 
L 137.700427 485.163775 
L 138.270762 487.480938 
L 138.727031 488.566147 
L 139.069232 488.945148 
L 139.3544 489.009503 
L 139.696601 488.839463 
L 140.15287 488.317686 
L 141.92091 485.99123 
L 142.833447 485.413102 
L 143.403783 484.931856 
L 143.860051 484.26013 
L 144.373353 483.055476 
L 144.943689 481.097818 
L 145.799192 477.207301 
L 147.05393 471.579957 
L 147.567232 470.15962 
L 147.966467 469.617128 
L 148.251635 469.553793 
L 148.536803 469.757348 
L 148.879004 470.330289 
L 149.335273 471.569639 
L 150.076709 474.351843 
L 151.730682 480.708867 
L 152.472119 482.659925 
L 153.213555 484.007696 
L 153.954991 484.91325 
L 154.639394 485.435523 
L 155.209729 485.610174 
L 155.665998 485.527765 
L 156.122266 485.203175 
L 156.635568 484.514722 
L 157.205904 483.351195 
L 158.061407 481.004531 
L 159.658347 476.538347 
L 160.285716 475.418456 
L 160.799018 474.890988 
L 161.255287 474.70127 
L 161.711555 474.733881 
L 162.281891 475.010628 
L 163.080361 475.682371 
L 164.049931 476.802557 
L 164.905435 478.127804 
L 165.817972 479.98851 
L 167.87118 484.392871 
L 168.384482 484.918434 
L 168.783717 485.039878 
L 169.182952 484.900384 
L 169.63922 484.444955 
L 170.266589 483.41954 
L 172.376831 479.595871 
L 173.061234 478.961904 
L 173.80267 478.584589 
L 175.627744 477.771329 
L 176.939516 477.105212 
L 177.509851 477.074646 
L 178.023153 477.280195 
L 178.593489 477.778894 
L 179.391959 478.838638 
L 180.817798 480.783214 
L 181.445167 481.278458 
L 182.015503 481.472268 
L 182.699905 481.454582 
L 186.46412 480.727866 
L 187.091489 480.233683 
L 187.946993 479.239378 
L 189.144698 477.880907 
L 189.658 477.5968 
L 190.114268 477.579091 
L 190.570537 477.788369 
L 191.140872 478.317864 
L 193.251114 480.582818 
L 193.821449 480.729542 
L 194.391785 480.642581 
L 196.616094 480.048468 
L 197.414564 480.276353 
L 198.669302 480.657013 
L 199.239638 480.587591 
L 199.809973 480.293071 
L 200.55141 479.634738 
L 201.977249 478.330861 
L 202.547584 478.129464 
L 203.060886 478.182017 
L 203.631222 478.473346 
L 204.657826 479.317847 
L 205.570363 479.935716 
L 206.197732 480.097505 
L 206.825101 480.028504 
L 207.794672 479.651303 
L 208.878309 479.293011 
L 209.676779 479.278209 
L 210.760417 479.524932 
L 212.129222 479.793556 
L 214.638699 480.100595 
L 215.665303 480.615582 
L 216.920041 481.201709 
L 217.604444 481.271207 
L 218.288847 481.114983 
L 219.600619 480.501409 
L 220.456122 480.242507 
L 221.254592 480.244469 
L 223.136699 480.401842 
L 223.764068 480.158964 
L 224.505505 479.61477 
L 226.444646 478.019888 
L 227.014981 477.883527 
L 227.585317 477.98191 
L 228.212686 478.326944 
L 229.296324 479.233196 
L 230.494029 480.132408 
L 231.463599 480.56389 
L 234.030109 481.525921 
L 235.227814 482.00121 
L 235.855183 482.02188 
L 236.425519 481.815382 
L 237.052888 481.317125 
L 237.851358 480.337848 
L 239.847532 477.709125 
L 240.474901 477.301178 
L 241.045237 477.198923 
L 241.615573 477.338178 
L 242.299975 477.760246 
L 243.383613 478.748353 
L 245.037586 480.224001 
L 245.89309 480.686598 
L 246.577492 480.826034 
L 247.261895 480.741665 
L 248.060365 480.396369 
L 250.22764 479.290344 
L 250.855009 479.284656 
L 251.539412 479.498819 
L 253.820754 480.42809 
L 254.448124 480.300471 
L 255.132526 479.915646 
L 257.299802 478.49619 
L 257.870137 478.472126 
L 258.497506 478.677749 
L 259.410043 479.264331 
L 260.778849 480.125025 
L 261.634352 480.379588 
L 264.257896 480.927016 
L 266.025936 481.629365 
L 266.653305 481.586381 
L 267.223641 481.324918 
L 267.908044 480.758187 
L 270.189386 478.626297 
L 270.816755 478.453551 
L 271.444125 478.513215 
L 272.356661 478.858997 
L 273.668433 479.337949 
L 274.523937 479.405964 
L 276.063843 479.229995 
L 277.090447 479.250468 
L 278.117051 479.517948 
L 280.797628 480.366352 
L 282.052367 480.409574 
L 283.991508 480.221388 
L 285.816582 479.836135 
L 288.611226 479.208339 
L 292.546542 478.718045 
L 293.516112 478.877604 
L 294.485683 479.264728 
L 296.082622 480.198762 
L 297.394394 480.859746 
L 298.306931 481.076741 
L 299.162435 481.051309 
L 300.074972 480.799933 
L 301.215643 480.246841 
L 303.382918 478.882678 
L 304.69469 478.204009 
L 305.550193 477.996932 
L 306.29163 478.035289 
L 307.033066 478.296224 
L 307.888569 478.848427 
L 309.314408 480.099701 
L 310.569147 481.082579 
L 311.42465 481.484945 
L 312.22312 481.626485 
L 313.135657 481.549416 
L 314.219294 481.216643 
L 315.474033 480.585089 
L 317.128006 479.465197 
L 318.553845 478.598952 
L 319.466382 478.302724 
L 320.321885 478.252906 
L 321.348489 478.433203 
L 322.831362 478.952681 
L 325.68304 479.980628 
L 326.880745 480.135318 
L 328.192517 480.059972 
L 332.812235 479.371341 
L 335.207644 478.916333 
L 336.120181 479.004559 
L 337.146785 479.346787 
L 339.713296 480.352492 
L 340.625833 480.399788 
L 341.880571 480.213387 
L 343.933779 479.913329 
L 346.899524 479.586888 
L 348.781632 479.344621 
L 349.808236 479.458109 
L 350.83484 479.806082 
L 353.743551 480.968971 
L 354.542021 480.934245 
L 355.340491 480.675604 
L 356.481162 480.044321 
L 358.192169 479.116888 
L 359.275807 478.805665 
L 360.587579 478.682608 
L 362.184518 478.751899 
L 363.268156 479.00329 
L 364.29476 479.469673 
L 367.032371 480.888586 
L 367.773807 480.93275 
L 368.572277 480.754069 
L 369.998116 480.140945 
L 371.195821 479.743498 
L 372.336492 479.62063 
L 374.617834 479.449412 
L 376.214774 478.987501 
L 377.469512 478.728447 
L 378.439083 478.756836 
L 379.864922 479.065664 
L 381.575929 479.371799 
L 384.199472 479.733887 
L 386.994117 480.396594 
L 387.792587 480.26154 
L 388.705124 479.873005 
L 390.986466 478.786992 
L 391.784936 478.714799 
L 392.640439 478.877125 
L 393.895178 479.387297 
L 395.206949 479.855312 
L 396.119486 479.946031 
L 397.146091 479.803835 
L 399.142265 479.458208 
L 399.940735 479.589882 
L 400.853272 479.984573 
L 402.735379 480.875498 
L 403.419782 480.919302 
L 404.104185 480.745666 
L 405.016722 480.262215 
L 406.670695 479.366558 
L 407.469165 479.219728 
L 408.267635 479.313702 
L 409.294239 479.68466 
L 411.062279 480.345047 
L 411.974816 480.433554 
L 413.00142 480.29851 
L 417.792239 479.137842 
L 418.76181 478.474964 
L 420.643917 477.096986 
L 421.271286 476.929167 
L 421.841622 476.997352 
L 422.468991 477.319778 
L 423.210427 477.975926 
L 426.29024 481.043719 
L 427.145743 481.430931 
L 428.05828 481.593772 
L 429.084884 481.533858 
L 430.282589 481.224101 
L 431.822495 480.576154 
L 436.042978 478.666794 
L 437.069582 478.516191 
L 438.039153 478.60352 
L 439.065757 478.928409 
L 440.605663 479.690306 
L 442.373703 480.516984 
L 443.343274 480.735242 
L 444.198777 480.712031 
L 445.111314 480.45794 
L 446.309019 479.859084 
L 448.590362 478.676637 
L 449.616966 478.422243 
L 450.586536 478.411843 
L 451.556107 478.631347 
L 452.639744 479.116184 
L 455.092187 480.322645 
L 455.947691 480.428167 
L 456.803194 480.307648 
L 458.286067 479.817766 
L 459.483771 479.529409 
L 460.510376 479.516938 
L 464.27459 479.751279 
L 466.327799 479.655576 
L 467.354403 479.855897 
L 468.666175 480.368407 
L 469.977946 480.817166 
L 470.719383 480.841801 
L 471.403785 480.648728 
L 472.202255 480.175819 
L 474.825799 478.378296 
L 475.567235 478.271234 
L 476.365705 478.386531 
L 481.213558 479.532049 
L 485.09184 480.341414 
L 486.403612 480.185852 
L 489.25529 479.76122 
L 490.510028 479.864976 
L 493.361706 480.243118 
L 494.217209 480.044968 
L 495.243814 479.563796 
L 497.297022 478.531619 
L 498.152525 478.383024 
L 499.065062 478.466538 
L 500.376834 478.852547 
L 502.71521 479.531064 
L 505.338754 480.04323 
L 506.707559 480.073008 
L 509.559237 480.017484 
L 511.669479 480.133223 
L 512.696083 479.9115 
L 515.37666 479.181309 
L 516.859533 479.190298 
L 518.057237 479.102231 
L 519.140875 478.776144 
L 521.194083 478.088276 
L 521.93552 478.116811 
L 522.676956 478.380732 
L 523.532459 478.942935 
L 526.041936 480.775717 
L 526.897439 481.015641 
L 527.86701 481.034143 
L 530.034285 480.75729 
L 532.03046 480.36868 
L 535.623574 479.488291 
L 538.418218 479.279995 
L 539.901091 479.364911 
L 543.037937 479.676761 
L 544.463776 479.457656 
L 548.170957 478.775843 
L 549.140528 478.85562 
L 550.053065 479.152923 
L 551.250769 479.811878 
L 552.619575 480.519662 
L 553.361011 480.664378 
L 554.102447 480.572626 
L 554.957951 480.220298 
L 556.897092 479.323671 
L 557.695562 479.25622 
L 558.551065 479.426287 
L 561.060542 480.112088 
L 561.973079 480.022373 
L 564.596622 479.586264 
L 565.623226 479.769722 
L 567.904569 480.268625 
L 568.931173 480.194584 
L 573.20869 479.5757 
L 574.520462 479.379338 
L 575.946301 478.904339 
L 577.144006 478.589968 
L 577.942475 478.612909 
L 578.740945 478.864711 
L 579.93865 479.523341 
L 581.364489 480.257232 
L 582.334059 480.494272 
L 583.30363 480.486678 
L 584.387268 480.247999 
L 586.212342 479.570551 
L 587.524113 479.19893 
L 588.43665 479.168811 
L 589.406221 479.376363 
L 592.6001 480.296904 
L 593.683738 480.207601 
L 598.816758 479.233099 
L 600.869966 478.627949 
L 601.668436 478.661318 
L 602.52394 478.925728 
L 605.603752 480.127016 
L 606.573322 480.110119 
L 607.828061 479.834872 
L 610.22347 479.269564 
L 611.763376 479.205135 
L 616.040893 479.330297 
L 617.124531 479.733774 
L 619.234773 480.602377 
L 620.090276 480.665818 
L 621.002813 480.489748 
L 622.485686 479.913021 
L 624.025592 479.40595 
L 625.394397 479.211425 
L 630.527418 478.941972 
L 632.01029 479.111667 
L 635.489337 479.621051 
L 637.029243 479.591022 
L 638.169915 479.342887 
L 641.021593 478.533624 
L 641.705995 478.685631 
L 642.447432 479.089445 
L 643.531069 479.978635 
L 644.785808 480.952568 
L 645.527244 481.261104 
L 646.211647 481.308843 
L 646.953083 481.129662 
L 647.979687 480.628948 
L 651.002466 479.046097 
L 652.713472 478.42082 
L 653.854144 478.228968 
L 654.823714 478.293974 
L 655.850318 478.594794 
L 659.899701 480.067053 
L 662.352144 480.437555 
L 663.492815 480.410702 
L 664.519419 480.155471 
L 665.888225 479.543976 
L 667.485164 478.876977 
L 668.454735 478.718555 
L 669.367272 478.790442 
L 670.450909 479.116443 
L 671.933782 479.830186 
L 673.81589 480.714706 
L 674.671393 480.870978 
L 674.842494 480.87208 
L 674.842494 480.87208 
" clip-path="url(#pce12ff0a3f)" style="fill: none; stroke: #ff0000; stroke-width: 1.5; stroke-linecap: square"/>
   </g>
   <g id="patch_3">
    <path d="M 76.05 643.2705 
L 76.05 39.1875 
" style="fill: none; stroke: #000000; stroke-width: 0.8; stroke-linejoin: miter; stroke-linecap: square"/>
   </g>
   <g id="patch_4">
    <path d="M 703.356422 643.2705 
L 703.356422 39.1875 
" style="fill: none; stroke: #000000; stroke-width: 0.8; stroke-linejoin: miter; stroke-linecap: square"/>
   </g>
   <g id="patch_5">
    <path d="M 76.05 643.2705 
L 703.356422 643.2705 
" style="fill: none; stroke: #000000; stroke-width: 0.8; stroke-linejoin: miter; stroke-linecap: square"/>
   </g>
   <g id="patch_6">
    <path d="M 76.05 39.1875 
L 703.356422 39.1875 
" style="fill: none; stroke: #000000; stroke-width: 0.8; stroke-linejoin: miter; stroke-linecap: square"/>
   </g>
  </g>
 </g>
 <defs>
  <clipPath id="pce12ff0a3f">
   <rect x="76.05" y="39.1875" width="627.306422" height="604.083"/>
  </clipPath>
 </defs>
</svg>
