<?xml version="1.0" encoding="utf-8" standalone="no"?>
<!DOCTYPE svg PUBLIC "-//W3C//DTD SVG 1.1//EN"
  "http://www.w3.org/Graphics/SVG/1.1/DTD/svg11.dtd">
<svg xmlns:xlink="http://www.w3.org/1999/xlink" width="711.418242pt" height="711.214687pt" viewBox="0 0 711.418242 711.214687" xmlns="http://www.w3.org/2000/svg" version="1.1">
 <metadata>
  <rdf:RDF xmlns:dc="http://purl.org/dc/elements/1.1/" xmlns:cc="http://creativecommons.org/ns#" xmlns:rdf="http://www.w3.org/1999/02/22-rdf-syntax-ns#">
   <cc:Work>
    <dc:type rdf:resource="http://purl.org/dc/dcmitype/StillImage"/>
    <dc:date>2025-02-03T17:54:03.497453</dc:date>
    <dc:format>image/svg+xml</dc:format>
    <dc:creator>
     <cc:Agent>
      <dc:title>Matplotlib v3.9.3, https://matplotlib.org/</dc:title>
     </cc:Agent>
    </dc:creator>
   </cc:Work>
  </rdf:RDF>
 </metadata>
 <defs>
  <style type="text/css">*{stroke-linejoin: round; stroke-linecap: butt}</style>
 </defs>
 <g id="figure_1">
  <g id="patch_1">
   <path d="M 0 711.214687 
L 711.418242 711.214687 
L 711.418242 0 
L 0 0 
z
" style="fill: #ffffff"/>
  </g>
  <g id="axes_1">
   <g id="patch_2">
    <path d="M 126.095625 643.38 
L 704.218242 643.38 
L 704.218242 7.2 
L 126.095625 7.2 
z
" style="fill: #ffffff"/>
   </g>
   <g id="matplotlib.axis_1">
    <g id="xtick_1">
     <g id="line2d_1">
      <defs>
       <path id="m0639c81ce9" d="M 0 0 
L 0 -3.5 
" style="stroke: #000000; stroke-width: 0.8"/>
      </defs>
      <g>
       <use xlink:href="#m0639c81ce9" x="152.321359" y="643.38" style="stroke: #000000; stroke-width: 0.8"/>
      </g>
     </g>
     <g id="text_1">
      <!-- 0 -->
      <g transform="translate(144.814093 666.446563) scale(0.27 -0.27)">
       <defs>
        <path id="LiberationSans-30" d="M 3309 2203 
Q 3309 1100 2920 518 
Q 2531 -63 1772 -63 
Q 1013 -63 631 515 
Q 250 1094 250 2203 
Q 250 3338 620 3903 
Q 991 4469 1791 4469 
Q 2569 4469 2939 3897 
Q 3309 3325 3309 2203 
z
M 2738 2203 
Q 2738 3156 2517 3584 
Q 2297 4013 1791 4013 
Q 1272 4013 1045 3591 
Q 819 3169 819 2203 
Q 819 1266 1048 831 
Q 1278 397 1778 397 
Q 2275 397 2506 840 
Q 2738 1284 2738 2203 
z
" transform="scale(0.015625)"/>
       </defs>
       <use xlink:href="#LiberationSans-30"/>
      </g>
     </g>
    </g>
    <g id="xtick_2">
     <g id="line2d_2">
      <g>
       <use xlink:href="#m0639c81ce9" x="257.455589" y="643.38" style="stroke: #000000; stroke-width: 0.8"/>
      </g>
     </g>
     <g id="text_2">
      <!-- 2 -->
      <g transform="translate(249.948323 666.446563) scale(0.27 -0.27)">
       <defs>
        <path id="LiberationSans-32" d="M 322 0 
L 322 397 
Q 481 763 711 1042 
Q 941 1322 1194 1548 
Q 1447 1775 1695 1969 
Q 1944 2163 2144 2356 
Q 2344 2550 2467 2762 
Q 2591 2975 2591 3244 
Q 2591 3606 2378 3806 
Q 2166 4006 1788 4006 
Q 1428 4006 1195 3811 
Q 963 3616 922 3263 
L 347 3316 
Q 409 3844 795 4156 
Q 1181 4469 1788 4469 
Q 2453 4469 2811 4155 
Q 3169 3841 3169 3263 
Q 3169 3006 3051 2753 
Q 2934 2500 2703 2247 
Q 2472 1994 1819 1463 
Q 1459 1169 1246 933 
Q 1034 697 941 478 
L 3238 478 
L 3238 0 
L 322 0 
z
" transform="scale(0.015625)"/>
       </defs>
       <use xlink:href="#LiberationSans-32"/>
      </g>
     </g>
    </g>
    <g id="xtick_3">
     <g id="line2d_3">
      <g>
       <use xlink:href="#m0639c81ce9" x="362.589819" y="643.38" style="stroke: #000000; stroke-width: 0.8"/>
      </g>
     </g>
     <g id="text_3">
      <!-- 4 -->
      <g transform="translate(355.082553 666.446563) scale(0.27 -0.27)">
       <defs>
        <path id="LiberationSans-34" d="M 2753 997 
L 2753 0 
L 2222 0 
L 2222 997 
L 147 997 
L 147 1434 
L 2163 4403 
L 2753 4403 
L 2753 1441 
L 3372 1441 
L 3372 997 
L 2753 997 
z
M 2222 3769 
Q 2216 3750 2134 3603 
Q 2053 3456 2013 3397 
L 884 1734 
L 716 1503 
L 666 1441 
L 2222 1441 
L 2222 3769 
z
" transform="scale(0.015625)"/>
       </defs>
       <use xlink:href="#LiberationSans-34"/>
      </g>
     </g>
    </g>
    <g id="xtick_4">
     <g id="line2d_4">
      <g>
       <use xlink:href="#m0639c81ce9" x="467.724049" y="643.38" style="stroke: #000000; stroke-width: 0.8"/>
      </g>
     </g>
     <g id="text_4">
      <!-- 6 -->
      <g transform="translate(460.216783 666.446563) scale(0.27 -0.27)">
       <defs>
        <path id="LiberationSans-36" d="M 3278 1441 
Q 3278 744 2900 340 
Q 2522 -63 1856 -63 
Q 1113 -63 719 490 
Q 325 1044 325 2100 
Q 325 3244 734 3856 
Q 1144 4469 1900 4469 
Q 2897 4469 3156 3572 
L 2619 3475 
Q 2453 4013 1894 4013 
Q 1413 4013 1148 3564 
Q 884 3116 884 2266 
Q 1038 2550 1316 2698 
Q 1594 2847 1953 2847 
Q 2563 2847 2920 2465 
Q 3278 2084 3278 1441 
z
M 2706 1416 
Q 2706 1894 2472 2153 
Q 2238 2413 1819 2413 
Q 1425 2413 1183 2183 
Q 941 1953 941 1550 
Q 941 1041 1192 716 
Q 1444 391 1838 391 
Q 2244 391 2475 664 
Q 2706 938 2706 1416 
z
" transform="scale(0.015625)"/>
       </defs>
       <use xlink:href="#LiberationSans-36"/>
      </g>
     </g>
    </g>
    <g id="xtick_5">
     <g id="line2d_5">
      <g>
       <use xlink:href="#m0639c81ce9" x="572.858279" y="643.38" style="stroke: #000000; stroke-width: 0.8"/>
      </g>
     </g>
     <g id="text_5">
      <!-- 8 -->
      <g transform="translate(565.351013 666.446563) scale(0.27 -0.27)">
       <defs>
        <path id="LiberationSans-38" d="M 3281 1228 
Q 3281 619 2893 278 
Q 2506 -63 1781 -63 
Q 1075 -63 676 271 
Q 278 606 278 1222 
Q 278 1653 525 1947 
Q 772 2241 1156 2303 
L 1156 2316 
Q 797 2400 589 2681 
Q 381 2963 381 3341 
Q 381 3844 757 4156 
Q 1134 4469 1769 4469 
Q 2419 4469 2795 4162 
Q 3172 3856 3172 3334 
Q 3172 2956 2962 2675 
Q 2753 2394 2391 2322 
L 2391 2309 
Q 2813 2241 3047 1952 
Q 3281 1663 3281 1228 
z
M 2588 3303 
Q 2588 4050 1769 4050 
Q 1372 4050 1164 3862 
Q 956 3675 956 3303 
Q 956 2925 1170 2726 
Q 1384 2528 1775 2528 
Q 2172 2528 2380 2711 
Q 2588 2894 2588 3303 
z
M 2697 1281 
Q 2697 1691 2453 1898 
Q 2209 2106 1769 2106 
Q 1341 2106 1100 1882 
Q 859 1659 859 1269 
Q 859 359 1788 359 
Q 2247 359 2472 579 
Q 2697 800 2697 1281 
z
" transform="scale(0.015625)"/>
       </defs>
       <use xlink:href="#LiberationSans-38"/>
      </g>
     </g>
    </g>
    <g id="xtick_6">
     <g id="line2d_6">
      <g>
       <use xlink:href="#m0639c81ce9" x="677.992509" y="643.38" style="stroke: #000000; stroke-width: 0.8"/>
      </g>
     </g>
     <g id="text_6">
      <!-- 10 -->
      <g transform="translate(662.977977 666.446563) scale(0.27 -0.27)">
       <defs>
        <path id="LiberationSans-31" d="M 488 0 
L 488 478 
L 1609 478 
L 1609 3866 
L 616 3156 
L 616 3688 
L 1656 4403 
L 2175 4403 
L 2175 478 
L 3247 478 
L 3247 0 
L 488 0 
z
" transform="scale(0.015625)"/>
       </defs>
       <use xlink:href="#LiberationSans-31"/>
       <use xlink:href="#LiberationSans-30" x="55.615234"/>
      </g>
     </g>
    </g>
    <g id="xtick_7">
     <g id="line2d_7">
      <defs>
       <path id="m688c89dcc8" d="M 0 0 
L 0 -2 
" style="stroke: #000000; stroke-width: 0.6"/>
      </defs>
      <g>
       <use xlink:href="#m688c89dcc8" x="178.604916" y="643.38" style="stroke: #000000; stroke-width: 0.6"/>
      </g>
     </g>
    </g>
    <g id="xtick_8">
     <g id="line2d_8">
      <g>
       <use xlink:href="#m688c89dcc8" x="204.888474" y="643.38" style="stroke: #000000; stroke-width: 0.6"/>
      </g>
     </g>
    </g>
    <g id="xtick_9">
     <g id="line2d_9">
      <g>
       <use xlink:href="#m688c89dcc8" x="231.172031" y="643.38" style="stroke: #000000; stroke-width: 0.6"/>
      </g>
     </g>
    </g>
    <g id="xtick_10">
     <g id="line2d_10">
      <g>
       <use xlink:href="#m688c89dcc8" x="283.739146" y="643.38" style="stroke: #000000; stroke-width: 0.6"/>
      </g>
     </g>
    </g>
    <g id="xtick_11">
     <g id="line2d_11">
      <g>
       <use xlink:href="#m688c89dcc8" x="310.022704" y="643.38" style="stroke: #000000; stroke-width: 0.6"/>
      </g>
     </g>
    </g>
    <g id="xtick_12">
     <g id="line2d_12">
      <g>
       <use xlink:href="#m688c89dcc8" x="336.306261" y="643.38" style="stroke: #000000; stroke-width: 0.6"/>
      </g>
     </g>
    </g>
    <g id="xtick_13">
     <g id="line2d_13">
      <g>
       <use xlink:href="#m688c89dcc8" x="388.873376" y="643.38" style="stroke: #000000; stroke-width: 0.6"/>
      </g>
     </g>
    </g>
    <g id="xtick_14">
     <g id="line2d_14">
      <g>
       <use xlink:href="#m688c89dcc8" x="415.156934" y="643.38" style="stroke: #000000; stroke-width: 0.6"/>
      </g>
     </g>
    </g>
    <g id="xtick_15">
     <g id="line2d_15">
      <g>
       <use xlink:href="#m688c89dcc8" x="441.440491" y="643.38" style="stroke: #000000; stroke-width: 0.6"/>
      </g>
     </g>
    </g>
    <g id="xtick_16">
     <g id="line2d_16">
      <g>
       <use xlink:href="#m688c89dcc8" x="494.007606" y="643.38" style="stroke: #000000; stroke-width: 0.6"/>
      </g>
     </g>
    </g>
    <g id="xtick_17">
     <g id="line2d_17">
      <g>
       <use xlink:href="#m688c89dcc8" x="520.291164" y="643.38" style="stroke: #000000; stroke-width: 0.6"/>
      </g>
     </g>
    </g>
    <g id="xtick_18">
     <g id="line2d_18">
      <g>
       <use xlink:href="#m688c89dcc8" x="546.574721" y="643.38" style="stroke: #000000; stroke-width: 0.6"/>
      </g>
     </g>
    </g>
    <g id="xtick_19">
     <g id="line2d_19">
      <g>
       <use xlink:href="#m688c89dcc8" x="599.141836" y="643.38" style="stroke: #000000; stroke-width: 0.6"/>
      </g>
     </g>
    </g>
    <g id="xtick_20">
     <g id="line2d_20">
      <g>
       <use xlink:href="#m688c89dcc8" x="625.425394" y="643.38" style="stroke: #000000; stroke-width: 0.6"/>
      </g>
     </g>
    </g>
    <g id="xtick_21">
     <g id="line2d_21">
      <g>
       <use xlink:href="#m688c89dcc8" x="651.708951" y="643.38" style="stroke: #000000; stroke-width: 0.6"/>
      </g>
     </g>
    </g>
    <g id="text_7">
     <!-- Time ps -->
     <g transform="translate(362.380371 697.789688) scale(0.3 -0.3)">
      <defs>
       <path id="LiberationSans-54" d="M 2250 3916 
L 2250 0 
L 1656 0 
L 1656 3916 
L 144 3916 
L 144 4403 
L 3763 4403 
L 3763 3916 
L 2250 3916 
z
" transform="scale(0.015625)"/>
       <path id="LiberationSans-69" d="M 428 4100 
L 428 4638 
L 991 4638 
L 991 4100 
L 428 4100 
z
M 428 0 
L 428 3381 
L 991 3381 
L 991 0 
L 428 0 
z
" transform="scale(0.015625)"/>
       <path id="LiberationSans-6d" d="M 2400 0 
L 2400 2144 
Q 2400 2634 2265 2821 
Q 2131 3009 1781 3009 
Q 1422 3009 1212 2734 
Q 1003 2459 1003 1959 
L 1003 0 
L 444 0 
L 444 2659 
Q 444 3250 425 3381 
L 956 3381 
Q 959 3366 962 3297 
Q 966 3228 970 3139 
Q 975 3050 981 2803 
L 991 2803 
Q 1172 3163 1406 3303 
Q 1641 3444 1978 3444 
Q 2363 3444 2586 3291 
Q 2809 3138 2897 2803 
L 2906 2803 
Q 3081 3144 3329 3294 
Q 3578 3444 3931 3444 
Q 4444 3444 4676 3166 
Q 4909 2888 4909 2253 
L 4909 0 
L 4353 0 
L 4353 2144 
Q 4353 2634 4218 2821 
Q 4084 3009 3734 3009 
Q 3366 3009 3161 2736 
Q 2956 2463 2956 1959 
L 2956 0 
L 2400 0 
z
" transform="scale(0.015625)"/>
       <path id="LiberationSans-65" d="M 863 1572 
Q 863 991 1103 675 
Q 1344 359 1806 359 
Q 2172 359 2392 506 
Q 2613 653 2691 878 
L 3184 738 
Q 2881 -63 1806 -63 
Q 1056 -63 664 384 
Q 272 831 272 1713 
Q 272 2550 664 2997 
Q 1056 3444 1784 3444 
Q 3275 3444 3275 1647 
L 3275 1572 
L 863 1572 
z
M 2694 2003 
Q 2647 2538 2422 2783 
Q 2197 3028 1775 3028 
Q 1366 3028 1127 2754 
Q 888 2481 869 2003 
L 2694 2003 
z
" transform="scale(0.015625)"/>
       <path id="LiberationSans-20" transform="scale(0.015625)"/>
       <path id="LiberationSans-70" d="M 3291 1706 
Q 3291 -63 2047 -63 
Q 1266 -63 997 525 
L 981 525 
Q 994 500 994 -6 
L 994 -1328 
L 431 -1328 
L 431 2691 
Q 431 3213 413 3381 
L 956 3381 
Q 959 3369 965 3292 
Q 972 3216 980 3056 
Q 988 2897 988 2838 
L 1000 2838 
Q 1150 3150 1397 3295 
Q 1644 3441 2047 3441 
Q 2672 3441 2981 3022 
Q 3291 2603 3291 1706 
z
M 2700 1694 
Q 2700 2400 2509 2703 
Q 2319 3006 1903 3006 
Q 1569 3006 1380 2865 
Q 1191 2725 1092 2426 
Q 994 2128 994 1650 
Q 994 984 1206 668 
Q 1419 353 1897 353 
Q 2316 353 2508 661 
Q 2700 969 2700 1694 
z
" transform="scale(0.015625)"/>
       <path id="LiberationSans-73" d="M 2969 934 
Q 2969 456 2608 196 
Q 2247 -63 1597 -63 
Q 966 -63 623 145 
Q 281 353 178 794 
L 675 891 
Q 747 619 972 492 
Q 1197 366 1597 366 
Q 2025 366 2223 497 
Q 2422 628 2422 891 
Q 2422 1091 2284 1216 
Q 2147 1341 1841 1422 
L 1438 1528 
Q 953 1653 748 1773 
Q 544 1894 428 2066 
Q 313 2238 313 2488 
Q 313 2950 642 3192 
Q 972 3434 1603 3434 
Q 2163 3434 2492 3237 
Q 2822 3041 2909 2606 
L 2403 2544 
Q 2356 2769 2151 2889 
Q 1947 3009 1603 3009 
Q 1222 3009 1040 2893 
Q 859 2778 859 2544 
Q 859 2400 934 2306 
Q 1009 2213 1156 2147 
Q 1303 2081 1775 1966 
Q 2222 1853 2419 1758 
Q 2616 1663 2730 1547 
Q 2844 1431 2906 1279 
Q 2969 1128 2969 934 
z
" transform="scale(0.015625)"/>
      </defs>
      <use xlink:href="#LiberationSans-54"/>
      <use xlink:href="#LiberationSans-69" x="57.333984"/>
      <use xlink:href="#LiberationSans-6d" x="79.550781"/>
      <use xlink:href="#LiberationSans-65" x="162.851562"/>
      <use xlink:href="#LiberationSans-20" x="218.466797"/>
      <use xlink:href="#LiberationSans-70" x="246.25"/>
      <use xlink:href="#LiberationSans-73" x="301.865234"/>
     </g>
    </g>
   </g>
   <g id="matplotlib.axis_2">
    <g id="ytick_1">
     <g id="line2d_22">
      <defs>
       <path id="m75fa3dfe49" d="M 0 0 
L 3.5 0 
" style="stroke: #000000; stroke-width: 0.8"/>
      </defs>
      <g>
       <use xlink:href="#m75fa3dfe49" x="126.095625" y="607.634575" style="stroke: #000000; stroke-width: 0.8"/>
      </g>
     </g>
     <g id="text_8">
      <!-- $\mathdefault{−0.004}$ -->
      <g transform="translate(39.165625 617.417857) scale(0.27 -0.27)">
       <defs>
        <path id="LiberationSans-2212" d="M 316 1900 
L 316 2356 
L 3425 2356 
L 3425 1900 
L 316 1900 
z
" transform="scale(0.015625)"/>
        <path id="LiberationSans-2e" d="M 584 0 
L 584 684 
L 1194 684 
L 1194 0 
L 584 0 
z
" transform="scale(0.015625)"/>
       </defs>
       <use xlink:href="#LiberationSans-2212" transform="translate(0 0.171875)"/>
       <use xlink:href="#LiberationSans-30" transform="translate(58.398438 0.171875)"/>
       <use xlink:href="#LiberationSans-2e" transform="translate(114.013672 0.171875)"/>
       <use xlink:href="#LiberationSans-30" transform="translate(141.796875 0.171875)"/>
       <use xlink:href="#LiberationSans-30" transform="translate(197.412109 0.171875)"/>
       <use xlink:href="#LiberationSans-34" transform="translate(253.027344 0.171875)"/>
      </g>
     </g>
    </g>
    <g id="ytick_2">
     <g id="line2d_23">
      <g>
       <use xlink:href="#m75fa3dfe49" x="126.095625" y="490.572878" style="stroke: #000000; stroke-width: 0.8"/>
      </g>
     </g>
     <g id="text_9">
      <!-- $\mathdefault{−0.003}$ -->
      <g transform="translate(39.165625 500.356159) scale(0.27 -0.27)">
       <defs>
        <path id="LiberationSans-33" d="M 3278 1216 
Q 3278 606 2890 271 
Q 2503 -63 1784 -63 
Q 1116 -63 717 239 
Q 319 541 244 1131 
L 825 1184 
Q 938 403 1784 403 
Q 2209 403 2451 612 
Q 2694 822 2694 1234 
Q 2694 1594 2417 1795 
Q 2141 1997 1619 1997 
L 1300 1997 
L 1300 2484 
L 1606 2484 
Q 2069 2484 2323 2686 
Q 2578 2888 2578 3244 
Q 2578 3597 2370 3801 
Q 2163 4006 1753 4006 
Q 1381 4006 1151 3815 
Q 922 3625 884 3278 
L 319 3322 
Q 381 3863 767 4166 
Q 1153 4469 1759 4469 
Q 2422 4469 2789 4161 
Q 3156 3853 3156 3303 
Q 3156 2881 2920 2617 
Q 2684 2353 2234 2259 
L 2234 2247 
Q 2728 2194 3003 1916 
Q 3278 1638 3278 1216 
z
" transform="scale(0.015625)"/>
       </defs>
       <use xlink:href="#LiberationSans-2212" transform="translate(0 0.171875)"/>
       <use xlink:href="#LiberationSans-30" transform="translate(58.398438 0.171875)"/>
       <use xlink:href="#LiberationSans-2e" transform="translate(114.013672 0.171875)"/>
       <use xlink:href="#LiberationSans-30" transform="translate(141.796875 0.171875)"/>
       <use xlink:href="#LiberationSans-30" transform="translate(197.412109 0.171875)"/>
       <use xlink:href="#LiberationSans-33" transform="translate(253.027344 0.171875)"/>
      </g>
     </g>
    </g>
    <g id="ytick_3">
     <g id="line2d_24">
      <g>
       <use xlink:href="#m75fa3dfe49" x="126.095625" y="373.51118" style="stroke: #000000; stroke-width: 0.8"/>
      </g>
     </g>
     <g id="text_10">
      <!-- $\mathdefault{−0.002}$ -->
      <g transform="translate(39.165625 383.294461) scale(0.27 -0.27)">
       <use xlink:href="#LiberationSans-2212" transform="translate(0 0.171875)"/>
       <use xlink:href="#LiberationSans-30" transform="translate(58.398438 0.171875)"/>
       <use xlink:href="#LiberationSans-2e" transform="translate(114.013672 0.171875)"/>
       <use xlink:href="#LiberationSans-30" transform="translate(141.796875 0.171875)"/>
       <use xlink:href="#LiberationSans-30" transform="translate(197.412109 0.171875)"/>
       <use xlink:href="#LiberationSans-32" transform="translate(253.027344 0.171875)"/>
      </g>
     </g>
    </g>
    <g id="ytick_4">
     <g id="line2d_25">
      <g>
       <use xlink:href="#m75fa3dfe49" x="126.095625" y="256.449483" style="stroke: #000000; stroke-width: 0.8"/>
      </g>
     </g>
     <g id="text_11">
      <!-- $\mathdefault{−0.001}$ -->
      <g transform="translate(39.165625 266.232764) scale(0.27 -0.27)">
       <use xlink:href="#LiberationSans-2212" transform="translate(0 0.171875)"/>
       <use xlink:href="#LiberationSans-30" transform="translate(58.398438 0.171875)"/>
       <use xlink:href="#LiberationSans-2e" transform="translate(114.013672 0.171875)"/>
       <use xlink:href="#LiberationSans-30" transform="translate(141.796875 0.171875)"/>
       <use xlink:href="#LiberationSans-30" transform="translate(197.412109 0.171875)"/>
       <use xlink:href="#LiberationSans-31" transform="translate(253.027344 0.171875)"/>
      </g>
     </g>
    </g>
    <g id="ytick_5">
     <g id="line2d_26">
      <g>
       <use xlink:href="#m75fa3dfe49" x="126.095625" y="139.387785" style="stroke: #000000; stroke-width: 0.8"/>
      </g>
     </g>
     <g id="text_12">
      <!-- $\mathdefault{0.000}$ -->
      <g transform="translate(54.825625 149.171066) scale(0.27 -0.27)">
       <use xlink:href="#LiberationSans-30" transform="translate(0 0.171875)"/>
       <use xlink:href="#LiberationSans-2e" transform="translate(55.615234 0.171875)"/>
       <use xlink:href="#LiberationSans-30" transform="translate(83.398438 0.171875)"/>
       <use xlink:href="#LiberationSans-30" transform="translate(139.013672 0.171875)"/>
       <use xlink:href="#LiberationSans-30" transform="translate(194.628906 0.171875)"/>
      </g>
     </g>
    </g>
    <g id="ytick_6">
     <g id="line2d_27">
      <g>
       <use xlink:href="#m75fa3dfe49" x="126.095625" y="22.326087" style="stroke: #000000; stroke-width: 0.8"/>
      </g>
     </g>
     <g id="text_13">
      <!-- $\mathdefault{0.001}$ -->
      <g transform="translate(54.825625 32.109369) scale(0.27 -0.27)">
       <use xlink:href="#LiberationSans-30" transform="translate(0 0.171875)"/>
       <use xlink:href="#LiberationSans-2e" transform="translate(55.615234 0.171875)"/>
       <use xlink:href="#LiberationSans-30" transform="translate(83.398438 0.171875)"/>
       <use xlink:href="#LiberationSans-30" transform="translate(139.013672 0.171875)"/>
       <use xlink:href="#LiberationSans-31" transform="translate(194.628906 0.171875)"/>
      </g>
     </g>
    </g>
    <g id="ytick_7">
     <g id="line2d_28">
      <defs>
       <path id="m4f3c7143d8" d="M 0 0 
L 2 0 
" style="stroke: #000000; stroke-width: 0.6"/>
      </defs>
      <g>
       <use xlink:href="#m4f3c7143d8" x="126.095625" y="631.046915" style="stroke: #000000; stroke-width: 0.6"/>
      </g>
     </g>
    </g>
    <g id="ytick_8">
     <g id="line2d_29">
      <g>
       <use xlink:href="#m4f3c7143d8" x="126.095625" y="584.222236" style="stroke: #000000; stroke-width: 0.6"/>
      </g>
     </g>
    </g>
    <g id="ytick_9">
     <g id="line2d_30">
      <g>
       <use xlink:href="#m4f3c7143d8" x="126.095625" y="560.809896" style="stroke: #000000; stroke-width: 0.6"/>
      </g>
     </g>
    </g>
    <g id="ytick_10">
     <g id="line2d_31">
      <g>
       <use xlink:href="#m4f3c7143d8" x="126.095625" y="537.397557" style="stroke: #000000; stroke-width: 0.6"/>
      </g>
     </g>
    </g>
    <g id="ytick_11">
     <g id="line2d_32">
      <g>
       <use xlink:href="#m4f3c7143d8" x="126.095625" y="513.985217" style="stroke: #000000; stroke-width: 0.6"/>
      </g>
     </g>
    </g>
    <g id="ytick_12">
     <g id="line2d_33">
      <g>
       <use xlink:href="#m4f3c7143d8" x="126.095625" y="467.160538" style="stroke: #000000; stroke-width: 0.6"/>
      </g>
     </g>
    </g>
    <g id="ytick_13">
     <g id="line2d_34">
      <g>
       <use xlink:href="#m4f3c7143d8" x="126.095625" y="443.748199" style="stroke: #000000; stroke-width: 0.6"/>
      </g>
     </g>
    </g>
    <g id="ytick_14">
     <g id="line2d_35">
      <g>
       <use xlink:href="#m4f3c7143d8" x="126.095625" y="420.335859" style="stroke: #000000; stroke-width: 0.6"/>
      </g>
     </g>
    </g>
    <g id="ytick_15">
     <g id="line2d_36">
      <g>
       <use xlink:href="#m4f3c7143d8" x="126.095625" y="396.92352" style="stroke: #000000; stroke-width: 0.6"/>
      </g>
     </g>
    </g>
    <g id="ytick_16">
     <g id="line2d_37">
      <g>
       <use xlink:href="#m4f3c7143d8" x="126.095625" y="350.098841" style="stroke: #000000; stroke-width: 0.6"/>
      </g>
     </g>
    </g>
    <g id="ytick_17">
     <g id="line2d_38">
      <g>
       <use xlink:href="#m4f3c7143d8" x="126.095625" y="326.686501" style="stroke: #000000; stroke-width: 0.6"/>
      </g>
     </g>
    </g>
    <g id="ytick_18">
     <g id="line2d_39">
      <g>
       <use xlink:href="#m4f3c7143d8" x="126.095625" y="303.274162" style="stroke: #000000; stroke-width: 0.6"/>
      </g>
     </g>
    </g>
    <g id="ytick_19">
     <g id="line2d_40">
      <g>
       <use xlink:href="#m4f3c7143d8" x="126.095625" y="279.861822" style="stroke: #000000; stroke-width: 0.6"/>
      </g>
     </g>
    </g>
    <g id="ytick_20">
     <g id="line2d_41">
      <g>
       <use xlink:href="#m4f3c7143d8" x="126.095625" y="233.037143" style="stroke: #000000; stroke-width: 0.6"/>
      </g>
     </g>
    </g>
    <g id="ytick_21">
     <g id="line2d_42">
      <g>
       <use xlink:href="#m4f3c7143d8" x="126.095625" y="209.624804" style="stroke: #000000; stroke-width: 0.6"/>
      </g>
     </g>
    </g>
    <g id="ytick_22">
     <g id="line2d_43">
      <g>
       <use xlink:href="#m4f3c7143d8" x="126.095625" y="186.212464" style="stroke: #000000; stroke-width: 0.6"/>
      </g>
     </g>
    </g>
    <g id="ytick_23">
     <g id="line2d_44">
      <g>
       <use xlink:href="#m4f3c7143d8" x="126.095625" y="162.800125" style="stroke: #000000; stroke-width: 0.6"/>
      </g>
     </g>
    </g>
    <g id="ytick_24">
     <g id="line2d_45">
      <g>
       <use xlink:href="#m4f3c7143d8" x="126.095625" y="115.975446" style="stroke: #000000; stroke-width: 0.6"/>
      </g>
     </g>
    </g>
    <g id="ytick_25">
     <g id="line2d_46">
      <g>
       <use xlink:href="#m4f3c7143d8" x="126.095625" y="92.563106" style="stroke: #000000; stroke-width: 0.6"/>
      </g>
     </g>
    </g>
    <g id="ytick_26">
     <g id="line2d_47">
      <g>
       <use xlink:href="#m4f3c7143d8" x="126.095625" y="69.150766" style="stroke: #000000; stroke-width: 0.6"/>
      </g>
     </g>
    </g>
    <g id="ytick_27">
     <g id="line2d_48">
      <g>
       <use xlink:href="#m4f3c7143d8" x="126.095625" y="45.738427" style="stroke: #000000; stroke-width: 0.6"/>
      </g>
     </g>
    </g>
    <g id="text_14">
     <!-- ITR $\mathrm{K} \cdot \mathrm{m}^2 / \mathrm{W}$ -->
     <g transform="translate(28.940625 409.29) rotate(-90) scale(0.3 -0.3)">
      <defs>
       <path id="LiberationSans-49" d="M 591 0 
L 591 4403 
L 1188 4403 
L 1188 0 
L 591 0 
z
" transform="scale(0.015625)"/>
       <path id="LiberationSans-52" d="M 3638 0 
L 2494 1828 
L 1122 1828 
L 1122 0 
L 525 0 
L 525 4403 
L 2597 4403 
Q 3341 4403 3745 4070 
Q 4150 3738 4150 3144 
Q 4150 2653 3864 2318 
Q 3578 1984 3075 1897 
L 4325 0 
L 3638 0 
z
M 3550 3138 
Q 3550 3522 3289 3723 
Q 3028 3925 2538 3925 
L 1122 3925 
L 1122 2300 
L 2563 2300 
Q 3034 2300 3292 2520 
Q 3550 2741 3550 3138 
z
" transform="scale(0.015625)"/>
       <path id="STIXGeneral-Regular-4b" d="M 4627 0 
L 2688 0 
L 2688 122 
L 2861 128 
Q 3130 134 3130 282 
Q 3130 397 2922 643 
Q 2714 890 2253 1370 
L 1613 2029 
L 1446 1894 
L 1446 710 
Q 1446 352 1548 253 
Q 1651 154 2016 122 
L 2016 0 
L 211 0 
L 211 122 
Q 589 141 691 262 
Q 794 384 794 800 
L 794 3514 
Q 794 3872 691 3981 
Q 589 4090 218 4115 
L 218 4237 
L 2022 4237 
L 2022 4115 
Q 1632 4090 1539 3987 
Q 1446 3885 1446 3507 
L 1446 2227 
L 2586 3277 
Q 2861 3533 2973 3667 
Q 3085 3802 3085 3910 
Q 3085 4013 3030 4057 
Q 2976 4102 2822 4109 
L 2662 4115 
L 2662 4237 
L 4320 4237 
L 4320 4115 
Q 3994 4090 3824 4003 
Q 3654 3917 3322 3597 
L 2131 2458 
L 3629 819 
Q 4026 384 4214 253 
Q 4403 122 4627 122 
L 4627 0 
z
" transform="scale(0.015625)"/>
       <path id="STIXGeneral-Regular-22c5" d="M 1187 1888 
Q 1299 1773 1299 1619 
Q 1299 1466 1187 1350 
Q 1075 1235 921 1235 
Q 768 1235 649 1353 
Q 531 1472 531 1619 
Q 531 1766 649 1884 
Q 768 2003 921 2003 
Q 1075 2003 1187 1888 
z
" transform="scale(0.015625)"/>
       <path id="STIXGeneral-Regular-6d" d="M 4960 0 
L 3565 0 
L 3565 96 
Q 3834 122 3907 208 
Q 3981 294 3981 576 
L 3981 1894 
Q 3981 2278 3869 2444 
Q 3757 2611 3488 2611 
Q 3264 2611 3107 2521 
Q 2950 2432 2803 2221 
L 2803 608 
Q 2803 301 2896 201 
Q 2989 102 3264 96 
L 3264 0 
L 1830 0 
L 1830 96 
Q 2112 115 2189 188 
Q 2266 262 2266 550 
L 2266 1901 
Q 2266 2611 1850 2611 
Q 1670 2611 1468 2531 
Q 1267 2451 1171 2336 
Q 1088 2240 1088 2227 
L 1088 448 
Q 1088 243 1177 176 
Q 1267 109 1523 96 
L 1523 0 
L 102 0 
L 102 96 
Q 371 102 460 195 
Q 550 288 550 563 
L 550 2150 
Q 550 2387 499 2480 
Q 448 2573 326 2573 
Q 230 2573 122 2547 
L 122 2656 
Q 557 2778 1011 2944 
L 1062 2925 
L 1062 2451 
L 1075 2451 
Q 1363 2752 1584 2848 
Q 1805 2944 2054 2944 
Q 2560 2944 2733 2406 
Q 3232 2944 3776 2944 
Q 4518 2944 4518 1792 
L 4518 493 
Q 4518 282 4582 202 
Q 4646 122 4794 109 
L 4960 96 
L 4960 0 
z
" transform="scale(0.015625)"/>
       <path id="STIXGeneral-Regular-32" d="M 3034 877 
L 2688 0 
L 186 0 
L 186 77 
L 1325 1286 
Q 1773 1754 1965 2144 
Q 2157 2534 2157 2950 
Q 2157 3379 1920 3616 
Q 1683 3853 1267 3853 
Q 922 3853 720 3673 
Q 518 3494 326 3021 
L 192 3053 
Q 301 3648 630 3987 
Q 960 4326 1523 4326 
Q 2054 4326 2380 4006 
Q 2707 3686 2707 3200 
Q 2707 2477 1888 1613 
L 832 486 
L 2330 486 
Q 2541 486 2665 569 
Q 2790 653 2944 915 
L 3034 877 
z
" transform="scale(0.015625)"/>
       <path id="STIXGeneral-Regular-2f" d="M 1837 4326 
L 378 -90 
L -58 -90 
L 1408 4326 
L 1837 4326 
z
" transform="scale(0.015625)"/>
       <path id="STIXGeneral-Regular-57" d="M 5965 4237 
L 5965 4115 
Q 5709 4064 5616 3990 
Q 5523 3917 5434 3667 
Q 4704 1709 4128 -70 
L 4032 -70 
Q 3642 1011 3008 2637 
L 2022 -70 
L 1926 -70 
Q 1709 576 1277 1753 
Q 845 2931 698 3347 
Q 538 3808 406 3958 
Q 275 4109 32 4115 
L 32 4237 
L 1594 4237 
L 1594 4115 
Q 1357 4109 1270 4064 
Q 1184 4019 1184 3917 
Q 1184 3808 1254 3616 
L 2176 1210 
L 2842 3021 
L 2662 3501 
Q 2509 3917 2400 4013 
Q 2291 4109 2010 4115 
L 2010 4237 
L 3706 4237 
L 3706 4115 
Q 3213 4102 3213 3891 
Q 3213 3808 3322 3520 
L 4237 1190 
L 5043 3360 
Q 5152 3667 5152 3853 
Q 5152 4109 4704 4115 
L 4704 4237 
L 5965 4237 
z
" transform="scale(0.015625)"/>
      </defs>
      <use xlink:href="#LiberationSans-49" transform="translate(0 0.409375)"/>
      <use xlink:href="#LiberationSans-54" transform="translate(27.783203 0.409375)"/>
      <use xlink:href="#LiberationSans-52" transform="translate(88.867188 0.409375)"/>
      <use xlink:href="#LiberationSans-20" transform="translate(161.083984 0.409375)"/>
      <use xlink:href="#STIXGeneral-Regular-4b" transform="translate(188.867188 0.409375)"/>
      <use xlink:href="#STIXGeneral-Regular-22c5" transform="translate(275.507166 0.409375)"/>
      <use xlink:href="#STIXGeneral-Regular-6d" transform="translate(318.547153 0.409375)"/>
      <use xlink:href="#STIXGeneral-Regular-32" transform="translate(397.890422 35.684375) scale(0.7)"/>
      <use xlink:href="#STIXGeneral-Regular-2f" transform="translate(437.299786 0.409375)"/>
      <use xlink:href="#STIXGeneral-Regular-57" transform="translate(465.099774 0.409375)"/>
     </g>
    </g>
   </g>
   <g id="line2d_49">
    <path d="M 152.373926 139.387785 
L 152.426493 139.222192 
L 152.47906 139.299889 
L 152.794463 139.364501 
L 155.475386 139.382631 
L 183.598792 139.279077 
L 183.966762 139.113862 
L 184.124463 138.722734 
L 184.17703 138.182877 
L 184.229597 133.279259 
L 184.282165 141.401698 
L 184.334732 140.274415 
L 184.545 139.668392 
L 184.91297 139.528108 
L 186.016879 139.458026 
L 191.851829 139.443871 
L 192.587769 139.573566 
L 192.74547 139.775731 
L 192.798037 139.995535 
L 192.850604 140.785841 
L 192.903171 134.527545 
L 192.955739 138.488053 
L 193.11344 139.126899 
L 193.428843 139.278021 
L 194.427618 139.342117 
L 197.266242 139.284296 
L 197.634212 139.141985 
L 197.739346 138.968957 
L 197.791913 138.737737 
L 197.84448 137.970015 
L 197.897047 146.246486 
L 197.949614 140.381159 
L 198.107316 139.667831 
L 198.422719 139.50109 
L 199.368927 139.430275 
L 203.574296 139.433961 
L 204.152534 139.56569 
L 204.257668 139.819173 
L 204.310235 140.930293 
L 204.362803 138.442334 
L 204.41537 139.028217 
L 204.625638 139.286528 
L 205.203876 139.354956 
L 208.988709 139.375875 
L 233.117014 139.248045 
L 233.905521 139.040865 
L 234.168357 138.754587 
L 234.326058 138.137726 
L 234.431192 136.262064 
L 234.483759 126.908324 
L 234.536327 145.587877 
L 234.588894 141.868187 
L 234.746595 140.293687 
L 235.009431 139.836488 
L 235.429967 139.649357 
L 236.323608 139.549443 
L 237.795488 139.607589 
L 238.426293 139.80983 
L 238.689129 140.089771 
L 238.899397 140.772333 
L 239.004531 142.059654 
L 239.057098 144.792326 
L 239.109666 614.462727 
L 239.162233 133.788689 
L 239.319934 137.746986 
L 239.58277 138.56093 
L 239.898172 138.817373 
L 240.423843 138.918886 
L 241.107216 138.810177 
L 241.58032 138.467362 
L 241.895723 137.949221 
L 242.158558 136.970725 
L 242.579095 134.599614 
L 242.789364 135.605289 
L 243.262468 138.411791 
L 243.57787 138.890936 
L 244.050974 139.15603 
L 244.944615 139.292159 
L 247.310135 139.338467 
L 249.255119 139.225194 
L 249.517954 139.056716 
L 249.623089 138.812448 
L 249.675656 138.451857 
L 249.728223 136.911465 
L 249.78079 143.248787 
L 249.833357 140.445313 
L 249.991058 139.718507 
L 250.253894 139.54208 
L 250.937266 139.45171 
L 253.881025 139.410917 
L 256.561948 139.497099 
L 256.719649 139.621403 
L 256.772216 139.772138 
L 256.824783 140.497716 
L 256.87735 138.155508 
L 256.929917 138.996819 
L 257.140186 139.285131 
L 257.718424 139.355318 
L 261.450689 139.37637 
L 286.157233 139.248496 
L 286.893173 139.084639 
L 287.208576 138.817547 
L 287.366277 138.405657 
L 287.471411 137.526936 
L 287.523978 135.813755 
L 287.576546 115.498946 
L 287.629113 144.933492 
L 287.68168 141.852003 
L 287.891948 140.160787 
L 288.154784 139.817538 
L 288.575321 139.655238 
L 289.468962 139.5952 
L 290.467737 139.71803 
L 290.835707 139.9214 
L 291.045975 140.250875 
L 291.203676 141.017329 
L 291.308811 143.505798 
L 291.361378 152.395354 
L 291.413945 127.90376 
L 291.466512 135.259999 
L 291.67678 138.313862 
L 291.887049 138.728296 
L 292.307586 138.966422 
L 292.990958 139.053579 
L 293.937166 138.95232 
L 294.725673 138.684355 
L 295.14621 138.608817 
L 295.619314 138.795837 
L 296.250119 139.120028 
L 297.091193 139.274022 
L 299.088744 139.341764 
L 301.874801 139.258667 
L 302.242771 139.081712 
L 302.347905 138.871138 
L 302.400472 138.585709 
L 302.453039 137.589553 
L 302.505606 146.898461 
L 302.558173 140.579729 
L 302.715875 139.729309 
L 302.97871 139.543229 
L 303.662083 139.452061 
L 306.658408 139.41178 
L 309.076496 139.499028 
L 309.234197 139.622181 
L 309.286764 139.769881 
L 309.339331 140.44102 
L 309.391898 138.036812 
L 309.444465 138.978186 
L 309.654734 139.282571 
L 310.232972 139.354874 
L 313.91267 139.376584 
L 339.039751 139.25199 
L 339.933392 139.05741 
L 340.248795 138.787025 
L 340.406496 138.433369 
L 340.51163 137.743684 
L 340.616765 134.944688 
L 340.669332 108.803517 
L 340.721899 145.736015 
L 340.774466 142.173751 
L 340.984734 140.320887 
L 341.24757 139.961166 
L 341.61554 139.816245 
L 342.351479 139.866751 
L 342.719449 140.105157 
L 342.87715 140.441427 
L 343.034852 141.510745 
L 343.087419 142.544651 
L 343.139986 146.447396 
L 343.192553 108.452963 
L 343.24512 134.315056 
L 343.402822 137.979346 
L 343.61309 138.690987 
L 343.928493 138.991774 
L 344.506731 139.151256 
L 345.97861 139.200629 
L 348.817234 139.220108 
L 350.657084 139.333496 
L 354.336782 139.298866 
L 354.91502 139.15465 
L 355.072721 138.940549 
L 355.177855 138.207201 
L 355.230423 133.172027 
L 355.28299 141.244794 
L 355.335557 140.206721 
L 355.545825 139.636676 
L 355.913795 139.499642 
L 357.017704 139.432093 
L 361.328208 139.453412 
L 361.696178 139.580104 
L 361.801312 139.877158 
L 361.853879 141.829481 
L 361.906446 138.583064 
L 361.959013 139.044933 
L 362.169282 139.285932 
L 362.74752 139.354941 
L 366.427218 139.376806 
L 391.869702 139.255203 
L 392.868477 139.069421 
L 393.236447 138.825415 
L 393.446715 138.439914 
L 393.604416 137.653595 
L 393.709551 136.348837 
L 393.762118 134.399095 
L 393.814685 126.748797 
L 393.867252 167.978038 
L 393.919819 147.228038 
L 394.130088 141.791912 
L 394.340356 141.243982 
L 394.603192 141.408987 
L 394.760893 141.840647 
L 394.866027 143.098699 
L 394.918594 145.155052 
L 394.971161 152.751239 
L 395.023729 36.117273 
L 395.076296 128.753414 
L 395.233997 136.986614 
L 395.496833 138.51215 
L 395.812235 138.915542 
L 396.285339 139.117651 
L 397.231547 139.231227 
L 399.281665 139.223548 
L 401.384349 139.255901 
L 404.012705 139.347434 
L 407.324433 139.261382 
L 407.692403 139.069897 
L 407.797537 138.821305 
L 407.850105 138.446954 
L 407.902672 136.737564 
L 407.955239 142.563781 
L 408.007806 140.356348 
L 408.165507 139.706612 
L 408.428343 139.537861 
L 409.164282 139.449749 
L 412.370876 139.415275 
L 414.105591 139.511625 
L 414.263293 139.666129 
L 414.31586 139.879902 
L 414.368427 141.704426 
L 414.420994 138.557599 
L 414.473561 139.038021 
L 414.68383 139.284556 
L 415.262068 139.354728 
L 418.889199 139.377069 
L 444.752219 139.256368 
L 445.856129 139.059082 
L 446.3818 138.71587 
L 446.960038 138.214426 
L 447.380575 138.423603 
L 447.906246 138.904964 
L 448.431917 139.118762 
L 449.48326 139.249975 
L 451.901347 139.259406 
L 454.58227 139.309184 
L 458.261968 139.347503 
L 460.101817 139.235751 
L 460.364652 139.067932 
L 460.469787 138.813599 
L 460.522354 138.436151 
L 460.574921 136.398541 
L 460.627488 142.073747 
L 460.680055 140.329124 
L 460.837757 139.702701 
L 461.153159 139.522489 
L 461.994233 139.443628 
L 465.621364 139.422459 
L 466.672706 139.537705 
L 466.777841 139.658777 
L 466.830408 139.851843 
L 466.882975 141.103055 
L 466.935542 138.415864 
L 466.988109 139.014208 
L 467.198377 139.282144 
L 467.776616 139.354239 
L 470.930643 139.377352 
L 497.529603 139.272601 
L 500.736197 139.187445 
L 502.576046 139.29305 
L 512.143261 139.320962 
L 512.931767 139.188094 
L 513.142036 138.936061 
L 513.24717 138.164765 
L 513.299737 130.604017 
L 513.352304 141.06325 
L 513.457439 139.888184 
L 513.667707 139.595242 
L 514.140811 139.479589 
L 515.822959 139.422821 
L 519.08212 139.503176 
L 519.239821 139.615215 
L 519.344955 140.094376 
L 519.397523 131.096315 
L 519.45009 138.797166 
L 519.607791 139.236763 
L 519.975761 139.334829 
L 521.657909 139.374312 
L 544.682305 139.36638 
L 551.253194 139.237136 
L 553.040476 139.225051 
L 555.826533 139.307925 
L 565.656584 139.203022 
L 565.866852 138.999877 
L 565.971986 138.527638 
L 566.024554 137.174461 
L 566.077121 143.289939 
L 566.129688 140.427046 
L 566.287389 139.710363 
L 566.550225 139.541763 
L 567.286164 139.452868 
L 570.440191 139.42355 
L 571.649235 139.539663 
L 571.754369 139.6513 
L 571.806936 139.812395 
L 571.859503 140.511429 
L 571.91207 137.714362 
L 571.964638 138.915813 
L 572.122339 139.242996 
L 572.490309 139.334901 
L 574.225024 139.374537 
L 597.932792 139.365112 
L 618.328833 139.188564 
L 618.539101 138.935662 
L 618.644236 138.134183 
L 618.696803 128.753785 
L 618.74937 141.01554 
L 618.854504 139.878637 
L 619.064773 139.597798 
L 619.537877 139.481698 
L 621.220024 139.424805 
L 624.058649 139.495841 
L 624.268917 139.641273 
L 624.321484 139.783989 
L 624.374051 140.315459 
L 624.426618 136.845604 
L 624.479185 138.857889 
L 624.636887 139.235874 
L 625.004857 139.333683 
L 626.634437 139.374071 
L 648.239521 139.370749 
L 670.948515 139.231601 
L 671.211351 139.039295 
L 671.316485 138.700865 
L 671.369052 138.038543 
L 671.421619 107.414409 
L 671.474186 140.891833 
L 671.631888 139.758224 
L 671.894723 139.55377 
L 672.525529 139.462414 
L 675.101317 139.42334 
L 676.625764 139.528092 
L 676.783465 139.705475 
L 676.836032 139.959303 
L 676.888599 142.605997 
L 676.941166 138.521241 
L 676.993733 139.009687 
L 677.204002 139.275595 
L 677.78224 139.352434 
L 677.939941 139.35828 
L 677.939941 139.35828 
" clip-path="url(#pfce71c1781)" style="fill: none; stroke: #0000ff; stroke-width: 1.5; stroke-linecap: square"/>
   </g>
   <g id="patch_3">
    <path d="M 126.095625 643.38 
L 126.095625 7.2 
" style="fill: none; stroke: #000000; stroke-width: 0.8; stroke-linejoin: miter; stroke-linecap: square"/>
   </g>
   <g id="patch_4">
    <path d="M 704.218242 643.38 
L 704.218242 7.2 
" style="fill: none; stroke: #000000; stroke-width: 0.8; stroke-linejoin: miter; stroke-linecap: square"/>
   </g>
   <g id="patch_5">
    <path d="M 126.095625 643.38 
L 704.218242 643.38 
" style="fill: none; stroke: #000000; stroke-width: 0.8; stroke-linejoin: miter; stroke-linecap: square"/>
   </g>
   <g id="patch_6">
    <path d="M 126.095625 7.2 
L 704.218242 7.2 
" style="fill: none; stroke: #000000; stroke-width: 0.8; stroke-linejoin: miter; stroke-linecap: square"/>
   </g>
  </g>
 </g>
 <defs>
  <clipPath id="pfce71c1781">
   <rect x="126.095625" y="7.2" width="578.122617" height="636.18"/>
  </clipPath>
 </defs>
</svg>
