<?xml version="1.0" encoding="utf-8" standalone="no"?>
<!DOCTYPE svg PUBLIC "-//W3C//DTD SVG 1.1//EN"
  "http://www.w3.org/Graphics/SVG/1.1/DTD/svg11.dtd">
<svg xmlns:xlink="http://www.w3.org/1999/xlink" width="710.741988pt" height="711.02175pt" viewBox="0 0 710.741988 711.02175" xmlns="http://www.w3.org/2000/svg" version="1.1">
 <metadata>
  <rdf:RDF xmlns:dc="http://purl.org/dc/elements/1.1/" xmlns:cc="http://creativecommons.org/ns#" xmlns:rdf="http://www.w3.org/1999/02/22-rdf-syntax-ns#">
   <cc:Work>
    <dc:type rdf:resource="http://purl.org/dc/dcmitype/StillImage"/>
    <dc:date>2025-01-31T15:50:13.354159</dc:date>
    <dc:format>image/svg+xml</dc:format>
    <dc:creator>
     <cc:Agent>
      <dc:title>Matplotlib v3.9.3, https://matplotlib.org/</dc:title>
     </cc:Agent>
    </dc:creator>
   </cc:Work>
  </rdf:RDF>
 </metadata>
 <defs>
  <style type="text/css">*{stroke-linejoin: round; stroke-linecap: butt}</style>
 </defs>
 <g id="figure_1">
  <g id="patch_1">
   <path d="M 0 711.02175 
L 710.741988 711.02175 
L 710.741988 0 
L 0 0 
z
" style="fill: #ffffff"/>
  </g>
  <g id="axes_1">
   <g id="patch_2">
    <path d="M 79.5 640.3905 
L 703.541988 640.3905 
L 703.541988 39.1875 
L 79.5 39.1875 
z
" style="fill: #ffffff"/>
   </g>
   <g id="matplotlib.axis_1">
    <g id="xtick_1">
     <g id="line2d_1">
      <defs>
       <path id="m2ca0b4931f" d="M 0 0 
L 0 -3.5 
" style="stroke: #000000; stroke-width: 0.8"/>
      </defs>
      <g>
       <use xlink:href="#m2ca0b4931f" x="107.808808" y="640.3905" style="stroke: #000000; stroke-width: 0.8"/>
      </g>
     </g>
     <g id="text_1">
      <!-- 0 -->
      <g transform="translate(99.467402 665.631125) scale(0.3 -0.3)">
       <defs>
        <path id="LiberationSans-30" d="M 3309 2203 
Q 3309 1100 2920 518 
Q 2531 -63 1772 -63 
Q 1013 -63 631 515 
Q 250 1094 250 2203 
Q 250 3338 620 3903 
Q 991 4469 1791 4469 
Q 2569 4469 2939 3897 
Q 3309 3325 3309 2203 
z
M 2738 2203 
Q 2738 3156 2517 3584 
Q 2297 4013 1791 4013 
Q 1272 4013 1045 3591 
Q 819 3169 819 2203 
Q 819 1266 1048 831 
Q 1278 397 1778 397 
Q 2275 397 2506 840 
Q 2738 1284 2738 2203 
z
" transform="scale(0.015625)"/>
       </defs>
       <use xlink:href="#LiberationSans-30"/>
      </g>
     </g>
    </g>
    <g id="xtick_2">
     <g id="line2d_2">
      <g>
       <use xlink:href="#m2ca0b4931f" x="221.282335" y="640.3905" style="stroke: #000000; stroke-width: 0.8"/>
      </g>
     </g>
     <g id="text_2">
      <!-- 2 -->
      <g transform="translate(212.940929 665.631125) scale(0.3 -0.3)">
       <defs>
        <path id="LiberationSans-32" d="M 322 0 
L 322 397 
Q 481 763 711 1042 
Q 941 1322 1194 1548 
Q 1447 1775 1695 1969 
Q 1944 2163 2144 2356 
Q 2344 2550 2467 2762 
Q 2591 2975 2591 3244 
Q 2591 3606 2378 3806 
Q 2166 4006 1788 4006 
Q 1428 4006 1195 3811 
Q 963 3616 922 3263 
L 347 3316 
Q 409 3844 795 4156 
Q 1181 4469 1788 4469 
Q 2453 4469 2811 4155 
Q 3169 3841 3169 3263 
Q 3169 3006 3051 2753 
Q 2934 2500 2703 2247 
Q 2472 1994 1819 1463 
Q 1459 1169 1246 933 
Q 1034 697 941 478 
L 3238 478 
L 3238 0 
L 322 0 
z
" transform="scale(0.015625)"/>
       </defs>
       <use xlink:href="#LiberationSans-32"/>
      </g>
     </g>
    </g>
    <g id="xtick_3">
     <g id="line2d_3">
      <g>
       <use xlink:href="#m2ca0b4931f" x="334.755862" y="640.3905" style="stroke: #000000; stroke-width: 0.8"/>
      </g>
     </g>
     <g id="text_3">
      <!-- 4 -->
      <g transform="translate(326.414456 665.631125) scale(0.3 -0.3)">
       <defs>
        <path id="LiberationSans-34" d="M 2753 997 
L 2753 0 
L 2222 0 
L 2222 997 
L 147 997 
L 147 1434 
L 2163 4403 
L 2753 4403 
L 2753 1441 
L 3372 1441 
L 3372 997 
L 2753 997 
z
M 2222 3769 
Q 2216 3750 2134 3603 
Q 2053 3456 2013 3397 
L 884 1734 
L 716 1503 
L 666 1441 
L 2222 1441 
L 2222 3769 
z
" transform="scale(0.015625)"/>
       </defs>
       <use xlink:href="#LiberationSans-34"/>
      </g>
     </g>
    </g>
    <g id="xtick_4">
     <g id="line2d_4">
      <g>
       <use xlink:href="#m2ca0b4931f" x="448.229389" y="640.3905" style="stroke: #000000; stroke-width: 0.8"/>
      </g>
     </g>
     <g id="text_4">
      <!-- 6 -->
      <g transform="translate(439.887983 665.631125) scale(0.3 -0.3)">
       <defs>
        <path id="LiberationSans-36" d="M 3278 1441 
Q 3278 744 2900 340 
Q 2522 -63 1856 -63 
Q 1113 -63 719 490 
Q 325 1044 325 2100 
Q 325 3244 734 3856 
Q 1144 4469 1900 4469 
Q 2897 4469 3156 3572 
L 2619 3475 
Q 2453 4013 1894 4013 
Q 1413 4013 1148 3564 
Q 884 3116 884 2266 
Q 1038 2550 1316 2698 
Q 1594 2847 1953 2847 
Q 2563 2847 2920 2465 
Q 3278 2084 3278 1441 
z
M 2706 1416 
Q 2706 1894 2472 2153 
Q 2238 2413 1819 2413 
Q 1425 2413 1183 2183 
Q 941 1953 941 1550 
Q 941 1041 1192 716 
Q 1444 391 1838 391 
Q 2244 391 2475 664 
Q 2706 938 2706 1416 
z
" transform="scale(0.015625)"/>
       </defs>
       <use xlink:href="#LiberationSans-36"/>
      </g>
     </g>
    </g>
    <g id="xtick_5">
     <g id="line2d_5">
      <g>
       <use xlink:href="#m2ca0b4931f" x="561.702916" y="640.3905" style="stroke: #000000; stroke-width: 0.8"/>
      </g>
     </g>
     <g id="text_5">
      <!-- 8 -->
      <g transform="translate(553.36151 665.631125) scale(0.3 -0.3)">
       <defs>
        <path id="LiberationSans-38" d="M 3281 1228 
Q 3281 619 2893 278 
Q 2506 -63 1781 -63 
Q 1075 -63 676 271 
Q 278 606 278 1222 
Q 278 1653 525 1947 
Q 772 2241 1156 2303 
L 1156 2316 
Q 797 2400 589 2681 
Q 381 2963 381 3341 
Q 381 3844 757 4156 
Q 1134 4469 1769 4469 
Q 2419 4469 2795 4162 
Q 3172 3856 3172 3334 
Q 3172 2956 2962 2675 
Q 2753 2394 2391 2322 
L 2391 2309 
Q 2813 2241 3047 1952 
Q 3281 1663 3281 1228 
z
M 2588 3303 
Q 2588 4050 1769 4050 
Q 1372 4050 1164 3862 
Q 956 3675 956 3303 
Q 956 2925 1170 2726 
Q 1384 2528 1775 2528 
Q 2172 2528 2380 2711 
Q 2588 2894 2588 3303 
z
M 2697 1281 
Q 2697 1691 2453 1898 
Q 2209 2106 1769 2106 
Q 1341 2106 1100 1882 
Q 859 1659 859 1269 
Q 859 359 1788 359 
Q 2247 359 2472 579 
Q 2697 800 2697 1281 
z
" transform="scale(0.015625)"/>
       </defs>
       <use xlink:href="#LiberationSans-38"/>
      </g>
     </g>
    </g>
    <g id="xtick_6">
     <g id="line2d_6">
      <g>
       <use xlink:href="#m2ca0b4931f" x="675.176443" y="640.3905" style="stroke: #000000; stroke-width: 0.8"/>
      </g>
     </g>
     <g id="text_6">
      <!-- 10 -->
      <g transform="translate(658.493631 665.631125) scale(0.3 -0.3)">
       <defs>
        <path id="LiberationSans-31" d="M 488 0 
L 488 478 
L 1609 478 
L 1609 3866 
L 616 3156 
L 616 3688 
L 1656 4403 
L 2175 4403 
L 2175 478 
L 3247 478 
L 3247 0 
L 488 0 
z
" transform="scale(0.015625)"/>
       </defs>
       <use xlink:href="#LiberationSans-31"/>
       <use xlink:href="#LiberationSans-30" x="55.615234"/>
      </g>
     </g>
    </g>
    <g id="xtick_7">
     <g id="line2d_7">
      <defs>
       <path id="m1d045302d6" d="M 0 0 
L 0 -2 
" style="stroke: #000000; stroke-width: 0.6"/>
      </defs>
      <g>
       <use xlink:href="#m1d045302d6" x="136.17719" y="640.3905" style="stroke: #000000; stroke-width: 0.6"/>
      </g>
     </g>
    </g>
    <g id="xtick_8">
     <g id="line2d_8">
      <g>
       <use xlink:href="#m1d045302d6" x="164.545572" y="640.3905" style="stroke: #000000; stroke-width: 0.6"/>
      </g>
     </g>
    </g>
    <g id="xtick_9">
     <g id="line2d_9">
      <g>
       <use xlink:href="#m1d045302d6" x="192.913953" y="640.3905" style="stroke: #000000; stroke-width: 0.6"/>
      </g>
     </g>
    </g>
    <g id="xtick_10">
     <g id="line2d_10">
      <g>
       <use xlink:href="#m1d045302d6" x="249.650717" y="640.3905" style="stroke: #000000; stroke-width: 0.6"/>
      </g>
     </g>
    </g>
    <g id="xtick_11">
     <g id="line2d_11">
      <g>
       <use xlink:href="#m1d045302d6" x="278.019099" y="640.3905" style="stroke: #000000; stroke-width: 0.6"/>
      </g>
     </g>
    </g>
    <g id="xtick_12">
     <g id="line2d_12">
      <g>
       <use xlink:href="#m1d045302d6" x="306.38748" y="640.3905" style="stroke: #000000; stroke-width: 0.6"/>
      </g>
     </g>
    </g>
    <g id="xtick_13">
     <g id="line2d_13">
      <g>
       <use xlink:href="#m1d045302d6" x="363.124244" y="640.3905" style="stroke: #000000; stroke-width: 0.6"/>
      </g>
     </g>
    </g>
    <g id="xtick_14">
     <g id="line2d_14">
      <g>
       <use xlink:href="#m1d045302d6" x="391.492626" y="640.3905" style="stroke: #000000; stroke-width: 0.6"/>
      </g>
     </g>
    </g>
    <g id="xtick_15">
     <g id="line2d_15">
      <g>
       <use xlink:href="#m1d045302d6" x="419.861008" y="640.3905" style="stroke: #000000; stroke-width: 0.6"/>
      </g>
     </g>
    </g>
    <g id="xtick_16">
     <g id="line2d_16">
      <g>
       <use xlink:href="#m1d045302d6" x="476.597771" y="640.3905" style="stroke: #000000; stroke-width: 0.6"/>
      </g>
     </g>
    </g>
    <g id="xtick_17">
     <g id="line2d_17">
      <g>
       <use xlink:href="#m1d045302d6" x="504.966153" y="640.3905" style="stroke: #000000; stroke-width: 0.6"/>
      </g>
     </g>
    </g>
    <g id="xtick_18">
     <g id="line2d_18">
      <g>
       <use xlink:href="#m1d045302d6" x="533.334535" y="640.3905" style="stroke: #000000; stroke-width: 0.6"/>
      </g>
     </g>
    </g>
    <g id="xtick_19">
     <g id="line2d_19">
      <g>
       <use xlink:href="#m1d045302d6" x="590.071298" y="640.3905" style="stroke: #000000; stroke-width: 0.6"/>
      </g>
     </g>
    </g>
    <g id="xtick_20">
     <g id="line2d_20">
      <g>
       <use xlink:href="#m1d045302d6" x="618.43968" y="640.3905" style="stroke: #000000; stroke-width: 0.6"/>
      </g>
     </g>
    </g>
    <g id="xtick_21">
     <g id="line2d_21">
      <g>
       <use xlink:href="#m1d045302d6" x="646.808062" y="640.3905" style="stroke: #000000; stroke-width: 0.6"/>
      </g>
     </g>
    </g>
    <g id="text_7">
     <!-- Time ps -->
     <g transform="translate(338.744432 697.59675) scale(0.3 -0.3)">
      <defs>
       <path id="LiberationSans-54" d="M 2250 3916 
L 2250 0 
L 1656 0 
L 1656 3916 
L 144 3916 
L 144 4403 
L 3763 4403 
L 3763 3916 
L 2250 3916 
z
" transform="scale(0.015625)"/>
       <path id="LiberationSans-69" d="M 428 4100 
L 428 4638 
L 991 4638 
L 991 4100 
L 428 4100 
z
M 428 0 
L 428 3381 
L 991 3381 
L 991 0 
L 428 0 
z
" transform="scale(0.015625)"/>
       <path id="LiberationSans-6d" d="M 2400 0 
L 2400 2144 
Q 2400 2634 2265 2821 
Q 2131 3009 1781 3009 
Q 1422 3009 1212 2734 
Q 1003 2459 1003 1959 
L 1003 0 
L 444 0 
L 444 2659 
Q 444 3250 425 3381 
L 956 3381 
Q 959 3366 962 3297 
Q 966 3228 970 3139 
Q 975 3050 981 2803 
L 991 2803 
Q 1172 3163 1406 3303 
Q 1641 3444 1978 3444 
Q 2363 3444 2586 3291 
Q 2809 3138 2897 2803 
L 2906 2803 
Q 3081 3144 3329 3294 
Q 3578 3444 3931 3444 
Q 4444 3444 4676 3166 
Q 4909 2888 4909 2253 
L 4909 0 
L 4353 0 
L 4353 2144 
Q 4353 2634 4218 2821 
Q 4084 3009 3734 3009 
Q 3366 3009 3161 2736 
Q 2956 2463 2956 1959 
L 2956 0 
L 2400 0 
z
" transform="scale(0.015625)"/>
       <path id="LiberationSans-65" d="M 863 1572 
Q 863 991 1103 675 
Q 1344 359 1806 359 
Q 2172 359 2392 506 
Q 2613 653 2691 878 
L 3184 738 
Q 2881 -63 1806 -63 
Q 1056 -63 664 384 
Q 272 831 272 1713 
Q 272 2550 664 2997 
Q 1056 3444 1784 3444 
Q 3275 3444 3275 1647 
L 3275 1572 
L 863 1572 
z
M 2694 2003 
Q 2647 2538 2422 2783 
Q 2197 3028 1775 3028 
Q 1366 3028 1127 2754 
Q 888 2481 869 2003 
L 2694 2003 
z
" transform="scale(0.015625)"/>
       <path id="LiberationSans-20" transform="scale(0.015625)"/>
       <path id="LiberationSans-70" d="M 3291 1706 
Q 3291 -63 2047 -63 
Q 1266 -63 997 525 
L 981 525 
Q 994 500 994 -6 
L 994 -1328 
L 431 -1328 
L 431 2691 
Q 431 3213 413 3381 
L 956 3381 
Q 959 3369 965 3292 
Q 972 3216 980 3056 
Q 988 2897 988 2838 
L 1000 2838 
Q 1150 3150 1397 3295 
Q 1644 3441 2047 3441 
Q 2672 3441 2981 3022 
Q 3291 2603 3291 1706 
z
M 2700 1694 
Q 2700 2400 2509 2703 
Q 2319 3006 1903 3006 
Q 1569 3006 1380 2865 
Q 1191 2725 1092 2426 
Q 994 2128 994 1650 
Q 994 984 1206 668 
Q 1419 353 1897 353 
Q 2316 353 2508 661 
Q 2700 969 2700 1694 
z
" transform="scale(0.015625)"/>
       <path id="LiberationSans-73" d="M 2969 934 
Q 2969 456 2608 196 
Q 2247 -63 1597 -63 
Q 966 -63 623 145 
Q 281 353 178 794 
L 675 891 
Q 747 619 972 492 
Q 1197 366 1597 366 
Q 2025 366 2223 497 
Q 2422 628 2422 891 
Q 2422 1091 2284 1216 
Q 2147 1341 1841 1422 
L 1438 1528 
Q 953 1653 748 1773 
Q 544 1894 428 2066 
Q 313 2238 313 2488 
Q 313 2950 642 3192 
Q 972 3434 1603 3434 
Q 2163 3434 2492 3237 
Q 2822 3041 2909 2606 
L 2403 2544 
Q 2356 2769 2151 2889 
Q 1947 3009 1603 3009 
Q 1222 3009 1040 2893 
Q 859 2778 859 2544 
Q 859 2400 934 2306 
Q 1009 2213 1156 2147 
Q 1303 2081 1775 1966 
Q 2222 1853 2419 1758 
Q 2616 1663 2730 1547 
Q 2844 1431 2906 1279 
Q 2969 1128 2969 934 
z
" transform="scale(0.015625)"/>
      </defs>
      <use xlink:href="#LiberationSans-54"/>
      <use xlink:href="#LiberationSans-69" x="57.333984"/>
      <use xlink:href="#LiberationSans-6d" x="79.550781"/>
      <use xlink:href="#LiberationSans-65" x="162.851562"/>
      <use xlink:href="#LiberationSans-20" x="218.466797"/>
      <use xlink:href="#LiberationSans-70" x="246.25"/>
      <use xlink:href="#LiberationSans-73" x="301.865234"/>
     </g>
    </g>
   </g>
   <g id="matplotlib.axis_2">
    <g id="ytick_1">
     <g id="line2d_22">
      <defs>
       <path id="m8e7157d50e" d="M 0 0 
L 3.5 0 
" style="stroke: #000000; stroke-width: 0.8"/>
      </defs>
      <g>
       <use xlink:href="#m8e7157d50e" x="79.5" y="582.271314" style="stroke: #000000; stroke-width: 0.8"/>
      </g>
     </g>
     <g id="text_8">
      <!-- $\mathdefault{−2}$ -->
      <g transform="translate(41.5 593.141627) scale(0.3 -0.3)">
       <defs>
        <path id="LiberationSans-2212" d="M 316 1900 
L 316 2356 
L 3425 2356 
L 3425 1900 
L 316 1900 
z
" transform="scale(0.015625)"/>
       </defs>
       <use xlink:href="#LiberationSans-2212" transform="translate(0 0.171875)"/>
       <use xlink:href="#LiberationSans-32" transform="translate(58.398438 0.171875)"/>
      </g>
     </g>
    </g>
    <g id="ytick_2">
     <g id="line2d_23">
      <g>
       <use xlink:href="#m8e7157d50e" x="79.5" y="491.681273" style="stroke: #000000; stroke-width: 0.8"/>
      </g>
     </g>
     <g id="text_9">
      <!-- $\mathdefault{0}$ -->
      <g transform="translate(59.2 502.551586) scale(0.3 -0.3)">
       <use xlink:href="#LiberationSans-30" transform="translate(0 0.171875)"/>
      </g>
     </g>
    </g>
    <g id="ytick_3">
     <g id="line2d_24">
      <g>
       <use xlink:href="#m8e7157d50e" x="79.5" y="401.091232" style="stroke: #000000; stroke-width: 0.8"/>
      </g>
     </g>
     <g id="text_10">
      <!-- $\mathdefault{2}$ -->
      <g transform="translate(59.2 411.961545) scale(0.3 -0.3)">
       <use xlink:href="#LiberationSans-32" transform="translate(0 0.171875)"/>
      </g>
     </g>
    </g>
    <g id="ytick_4">
     <g id="line2d_25">
      <g>
       <use xlink:href="#m8e7157d50e" x="79.5" y="310.501191" style="stroke: #000000; stroke-width: 0.8"/>
      </g>
     </g>
     <g id="text_11">
      <!-- $\mathdefault{4}$ -->
      <g transform="translate(59.2 321.371504) scale(0.3 -0.3)">
       <use xlink:href="#LiberationSans-34" transform="translate(0 0.203125)"/>
      </g>
     </g>
    </g>
    <g id="ytick_5">
     <g id="line2d_26">
      <g>
       <use xlink:href="#m8e7157d50e" x="79.5" y="219.91115" style="stroke: #000000; stroke-width: 0.8"/>
      </g>
     </g>
     <g id="text_12">
      <!-- $\mathdefault{6}$ -->
      <g transform="translate(59.2 230.781463) scale(0.3 -0.3)">
       <use xlink:href="#LiberationSans-36" transform="translate(0 0.171875)"/>
      </g>
     </g>
    </g>
    <g id="ytick_6">
     <g id="line2d_27">
      <g>
       <use xlink:href="#m8e7157d50e" x="79.5" y="129.321109" style="stroke: #000000; stroke-width: 0.8"/>
      </g>
     </g>
     <g id="text_13">
      <!-- $\mathdefault{8}$ -->
      <g transform="translate(59.2 140.191422) scale(0.3 -0.3)">
       <use xlink:href="#LiberationSans-38" transform="translate(0 0.171875)"/>
      </g>
     </g>
    </g>
    <g id="ytick_7">
     <g id="line2d_28">
      <defs>
       <path id="m8fc947f003" d="M 0 0 
L 2 0 
" style="stroke: #000000; stroke-width: 0.6"/>
      </defs>
      <g>
       <use xlink:href="#m8fc947f003" x="79.5" y="627.566335" style="stroke: #000000; stroke-width: 0.6"/>
      </g>
     </g>
    </g>
    <g id="ytick_8">
     <g id="line2d_29">
      <g>
       <use xlink:href="#m8fc947f003" x="79.5" y="604.918825" style="stroke: #000000; stroke-width: 0.6"/>
      </g>
     </g>
    </g>
    <g id="ytick_9">
     <g id="line2d_30">
      <g>
       <use xlink:href="#m8fc947f003" x="79.5" y="559.623804" style="stroke: #000000; stroke-width: 0.6"/>
      </g>
     </g>
    </g>
    <g id="ytick_10">
     <g id="line2d_31">
      <g>
       <use xlink:href="#m8fc947f003" x="79.5" y="536.976294" style="stroke: #000000; stroke-width: 0.6"/>
      </g>
     </g>
    </g>
    <g id="ytick_11">
     <g id="line2d_32">
      <g>
       <use xlink:href="#m8fc947f003" x="79.5" y="514.328784" style="stroke: #000000; stroke-width: 0.6"/>
      </g>
     </g>
    </g>
    <g id="ytick_12">
     <g id="line2d_33">
      <g>
       <use xlink:href="#m8fc947f003" x="79.5" y="469.033763" style="stroke: #000000; stroke-width: 0.6"/>
      </g>
     </g>
    </g>
    <g id="ytick_13">
     <g id="line2d_34">
      <g>
       <use xlink:href="#m8fc947f003" x="79.5" y="446.386253" style="stroke: #000000; stroke-width: 0.6"/>
      </g>
     </g>
    </g>
    <g id="ytick_14">
     <g id="line2d_35">
      <g>
       <use xlink:href="#m8fc947f003" x="79.5" y="423.738743" style="stroke: #000000; stroke-width: 0.6"/>
      </g>
     </g>
    </g>
    <g id="ytick_15">
     <g id="line2d_36">
      <g>
       <use xlink:href="#m8fc947f003" x="79.5" y="378.443722" style="stroke: #000000; stroke-width: 0.6"/>
      </g>
     </g>
    </g>
    <g id="ytick_16">
     <g id="line2d_37">
      <g>
       <use xlink:href="#m8fc947f003" x="79.5" y="355.796212" style="stroke: #000000; stroke-width: 0.6"/>
      </g>
     </g>
    </g>
    <g id="ytick_17">
     <g id="line2d_38">
      <g>
       <use xlink:href="#m8fc947f003" x="79.5" y="333.148701" style="stroke: #000000; stroke-width: 0.6"/>
      </g>
     </g>
    </g>
    <g id="ytick_18">
     <g id="line2d_39">
      <g>
       <use xlink:href="#m8fc947f003" x="79.5" y="287.853681" style="stroke: #000000; stroke-width: 0.6"/>
      </g>
     </g>
    </g>
    <g id="ytick_19">
     <g id="line2d_40">
      <g>
       <use xlink:href="#m8fc947f003" x="79.5" y="265.206171" style="stroke: #000000; stroke-width: 0.6"/>
      </g>
     </g>
    </g>
    <g id="ytick_20">
     <g id="line2d_41">
      <g>
       <use xlink:href="#m8fc947f003" x="79.5" y="242.55866" style="stroke: #000000; stroke-width: 0.6"/>
      </g>
     </g>
    </g>
    <g id="ytick_21">
     <g id="line2d_42">
      <g>
       <use xlink:href="#m8fc947f003" x="79.5" y="197.26364" style="stroke: #000000; stroke-width: 0.6"/>
      </g>
     </g>
    </g>
    <g id="ytick_22">
     <g id="line2d_43">
      <g>
       <use xlink:href="#m8fc947f003" x="79.5" y="174.61613" style="stroke: #000000; stroke-width: 0.6"/>
      </g>
     </g>
    </g>
    <g id="ytick_23">
     <g id="line2d_44">
      <g>
       <use xlink:href="#m8fc947f003" x="79.5" y="151.968619" style="stroke: #000000; stroke-width: 0.6"/>
      </g>
     </g>
    </g>
    <g id="ytick_24">
     <g id="line2d_45">
      <g>
       <use xlink:href="#m8fc947f003" x="79.5" y="106.673599" style="stroke: #000000; stroke-width: 0.6"/>
      </g>
     </g>
    </g>
    <g id="ytick_25">
     <g id="line2d_46">
      <g>
       <use xlink:href="#m8fc947f003" x="79.5" y="84.026089" style="stroke: #000000; stroke-width: 0.6"/>
      </g>
     </g>
    </g>
    <g id="ytick_26">
     <g id="line2d_47">
      <g>
       <use xlink:href="#m8fc947f003" x="79.5" y="61.378578" style="stroke: #000000; stroke-width: 0.6"/>
      </g>
     </g>
    </g>
    <g id="text_14">
     <!-- HFACF $($W/m$^2)^2$ -->
     <g transform="translate(31.275 447.189) rotate(-90) scale(0.3 -0.3)">
      <defs>
       <path id="LiberationSans-48" d="M 3503 0 
L 3503 2041 
L 1122 2041 
L 1122 0 
L 525 0 
L 525 4403 
L 1122 4403 
L 1122 2541 
L 3503 2541 
L 3503 4403 
L 4100 4403 
L 4100 0 
L 3503 0 
z
" transform="scale(0.015625)"/>
       <path id="LiberationSans-46" d="M 1122 3916 
L 1122 2278 
L 3578 2278 
L 3578 1784 
L 1122 1784 
L 1122 0 
L 525 0 
L 525 4403 
L 3653 4403 
L 3653 3916 
L 1122 3916 
z
" transform="scale(0.015625)"/>
       <path id="LiberationSans-41" d="M 3647 0 
L 3144 1288 
L 1138 1288 
L 631 0 
L 13 0 
L 1809 4403 
L 2488 4403 
L 4256 0 
L 3647 0 
z
M 2141 3953 
L 2113 3866 
Q 2034 3606 1881 3200 
L 1319 1753 
L 2966 1753 
L 2400 3206 
Q 2313 3422 2225 3694 
L 2141 3953 
z
" transform="scale(0.015625)"/>
       <path id="LiberationSans-43" d="M 2475 3981 
Q 1744 3981 1337 3511 
Q 931 3041 931 2222 
Q 931 1413 1354 920 
Q 1778 428 2500 428 
Q 3425 428 3891 1344 
L 4378 1100 
Q 4106 531 3614 234 
Q 3122 -63 2472 -63 
Q 1806 -63 1320 214 
Q 834 491 579 1005 
Q 325 1519 325 2222 
Q 325 3275 894 3872 
Q 1463 4469 2469 4469 
Q 3172 4469 3644 4194 
Q 4116 3919 4338 3378 
L 3772 3191 
Q 3619 3575 3280 3778 
Q 2941 3981 2475 3981 
z
" transform="scale(0.015625)"/>
       <path id="STIXGeneral-Regular-28" d="M 1946 -1030 
L 1869 -1133 
Q 1126 -710 716 32 
Q 307 774 307 1613 
Q 307 3386 1888 4326 
L 1946 4224 
Q 1293 3667 1075 3126 
Q 858 2586 858 1632 
Q 858 685 1082 96 
Q 1306 -493 1946 -1030 
z
" transform="scale(0.015625)"/>
       <path id="LiberationSans-57" d="M 4722 0 
L 4009 0 
L 3247 2797 
Q 3172 3059 3028 3738 
Q 2947 3375 2890 3131 
Q 2834 2888 2038 0 
L 1325 0 
L 28 4403 
L 650 4403 
L 1441 1606 
Q 1581 1081 1700 525 
Q 1775 869 1873 1275 
Q 1972 1681 2741 4403 
L 3313 4403 
L 4078 1663 
Q 4253 991 4353 525 
L 4381 634 
Q 4466 994 4519 1220 
Q 4572 1447 5397 4403 
L 6019 4403 
L 4722 0 
z
" transform="scale(0.015625)"/>
       <path id="LiberationSans-2f" d="M 0 -63 
L 1284 4638 
L 1778 4638 
L 506 -63 
L 0 -63 
z
" transform="scale(0.015625)"/>
       <path id="STIXGeneral-Regular-32" d="M 3034 877 
L 2688 0 
L 186 0 
L 186 77 
L 1325 1286 
Q 1773 1754 1965 2144 
Q 2157 2534 2157 2950 
Q 2157 3379 1920 3616 
Q 1683 3853 1267 3853 
Q 922 3853 720 3673 
Q 518 3494 326 3021 
L 192 3053 
Q 301 3648 630 3987 
Q 960 4326 1523 4326 
Q 2054 4326 2380 4006 
Q 2707 3686 2707 3200 
Q 2707 2477 1888 1613 
L 832 486 
L 2330 486 
Q 2541 486 2665 569 
Q 2790 653 2944 915 
L 3034 877 
z
" transform="scale(0.015625)"/>
       <path id="STIXGeneral-Regular-29" d="M 186 4224 
L 262 4326 
Q 992 3891 1408 3148 
Q 1824 2406 1824 1581 
Q 1824 -166 243 -1133 
L 186 -1030 
Q 845 -486 1059 54 
Q 1274 595 1274 1562 
Q 1274 2534 1059 3120 
Q 845 3706 186 4224 
z
" transform="scale(0.015625)"/>
      </defs>
      <use xlink:href="#LiberationSans-48" transform="translate(0 0.409375)"/>
      <use xlink:href="#LiberationSans-46" transform="translate(72.216797 0.409375)"/>
      <use xlink:href="#LiberationSans-41" transform="translate(133.300781 0.409375)"/>
      <use xlink:href="#LiberationSans-43" transform="translate(200 0.409375)"/>
      <use xlink:href="#LiberationSans-46" transform="translate(272.216797 0.409375)"/>
      <use xlink:href="#LiberationSans-20" transform="translate(333.300781 0.409375)"/>
      <use xlink:href="#STIXGeneral-Regular-28" transform="translate(361.083984 0.409375)"/>
      <use xlink:href="#LiberationSans-57" transform="translate(394.383972 0.409375)"/>
      <use xlink:href="#LiberationSans-2f" transform="translate(488.768738 0.409375)"/>
      <use xlink:href="#LiberationSans-6d" transform="translate(516.551941 0.409375)"/>
      <use xlink:href="#STIXGeneral-Regular-32" transform="translate(601.396003 35.684375) scale(0.7)"/>
      <use xlink:href="#STIXGeneral-Regular-29" transform="translate(640.805368 0.409375)"/>
      <use xlink:href="#STIXGeneral-Regular-32" transform="translate(675.648637 35.684375) scale(0.7)"/>
     </g>
    </g>
    <g id="text_15">
     <!-- $\times\mathdefault{10^{18}}\mathdefault{}$ -->
     <g transform="translate(79.5 36.1875) scale(0.4 -0.4)">
      <defs>
       <path id="STIXGeneral-Regular-d7" d="M 3821 141 
L 3526 -160 
L 2048 1312 
L 570 -160 
L 275 134 
L 1747 1613 
L 275 3091 
L 576 3386 
L 2048 1914 
L 3526 3386 
L 3821 3098 
L 2349 1613 
L 3821 141 
z
" transform="scale(0.015625)"/>
      </defs>
      <use xlink:href="#STIXGeneral-Regular-d7" transform="translate(0 0.140625)"/>
      <use xlink:href="#LiberationSans-31" transform="translate(63.999985 0.140625)"/>
      <use xlink:href="#LiberationSans-30" transform="translate(119.615219 0.140625)"/>
      <use xlink:href="#LiberationSans-31" transform="translate(176.154946 37.120312) scale(0.7)"/>
      <use xlink:href="#LiberationSans-38" transform="translate(215.08561 37.120312) scale(0.7)"/>
     </g>
    </g>
   </g>
   <g id="line2d_48">
    <path d="M 107.865545 66.514909 
L 108.092492 75.613288 
L 108.376176 92.387403 
L 108.773333 131.304972 
L 109.397438 219.643765 
L 111.383224 524.343629 
L 111.950592 574.535291 
L 112.404486 598.687056 
L 112.801643 609.702899 
L 113.085327 612.766448 
L 113.198801 613.063091 
L 113.255537 613.040279 
L 113.369011 612.679575 
L 113.595958 610.802635 
L 113.936379 605.783715 
L 114.61722 591.525657 
L 115.978902 562.514155 
L 120.631317 478.523507 
L 121.141948 474.017029 
L 121.539105 472.270165 
L 121.822789 471.91393 
L 122.049736 472.06438 
L 122.446893 473.34174 
L 122.900787 475.8947 
L 123.468155 479.993467 
L 124.829837 489.295108 
L 125.794362 493.070484 
L 126.758887 494.949228 
L 126.985834 495.199313 
L 127.439728 495.689395 
L 127.723412 495.922889 
L 128.29078 496.417517 
L 128.574464 496.607905 
L 129.255305 497.027888 
L 130.163093 496.681155 
L 131.808459 494.634145 
L 133.680772 491.166033 
L 136.233927 484.361784 
L 136.687821 483.84161 
L 137.084978 483.816153 
L 137.482135 484.250374 
L 137.879293 485.012082 
L 138.44666 486.557957 
L 140.03529 491.551629 
L 141.567182 495.388196 
L 142.418234 496.595239 
L 142.872128 496.838315 
L 143.496232 496.763416 
L 144.23381 496.046465 
L 144.744441 495.220021 
L 145.652229 493.144504 
L 146.616754 490.85129 
L 147.524543 489.120753 
L 148.035173 488.463751 
L 148.489068 488.161115 
L 148.999698 488.116745 
L 149.340119 488.23443 
L 151.155695 489.700238 
L 152.857798 491.382038 
L 153.992534 492.053753 
L 155.6379 492.565118 
L 158.304528 493.208003 
L 159.098842 493.098006 
L 160.006631 492.728268 
L 162.729995 491.350731 
L 163.751257 491.16381 
L 164.829255 491.260173 
L 169.027776 492.175732 
L 169.935564 492.161201 
L 170.616405 491.97083 
L 171.353983 491.544046 
L 172.375245 490.689608 
L 173.736927 489.630172 
L 174.361032 489.426377 
L 174.985136 489.468868 
L 175.722714 489.80635 
L 176.857449 490.650944 
L 178.105658 491.553705 
L 179.751024 492.369435 
L 182.81481 493.569653 
L 183.836071 493.665028 
L 184.91407 493.523837 
L 187.240277 492.834768 
L 188.431749 492.334378 
L 189.282801 491.726797 
L 190.190589 490.749305 
L 191.892692 488.857438 
L 192.460059 488.555757 
L 192.97069 488.519016 
L 194.048689 489.127467 
L 196.545106 491.219772 
L 197.339421 491.409631 
L 200.346469 491.950357 
L 202.105309 492.388905 
L 205.225831 493.008213 
L 206.30383 493.180411 
L 206.927934 493.101405 
L 207.778985 492.724232 
L 208.74351 492.069941 
L 209.708035 491.508106 
L 210.388877 491.32296 
L 211.296665 491.339829 
L 212.60161 491.469466 
L 213.339188 491.279376 
L 214.133503 490.77976 
L 216.402974 489.076933 
L 216.913604 489.063959 
L 217.424235 489.278538 
L 218.04834 489.804313 
L 219.126338 491.070924 
L 220.204337 492.222656 
L 220.885178 492.662041 
L 221.622756 492.871756 
L 222.587281 492.888305 
L 224.289384 492.918736 
L 227.012748 493.293238 
L 227.8638 492.99814 
L 228.998535 492.275194 
L 230.643901 491.264018 
L 231.551689 490.957174 
L 233.934633 490.321956 
L 235.409789 489.916495 
L 236.204104 489.954942 
L 237.282103 490.277845 
L 239.494836 490.960763 
L 240.686308 491.397341 
L 241.70757 492.097015 
L 243.863567 493.695729 
L 244.714619 493.879975 
L 245.508933 493.7395 
L 246.586932 493.27459 
L 252.941449 490.343793 
L 253.679027 490.357097 
L 254.473342 490.609941 
L 256.345655 491.367974 
L 257.196707 491.406893 
L 257.934284 491.239099 
L 259.920071 490.682987 
L 260.657649 490.733969 
L 261.792384 491.053512 
L 263.891645 491.695971 
L 264.912906 492.057094 
L 266.444799 492.933647 
L 267.749745 493.647973 
L 268.600796 493.878912 
L 269.338374 493.871603 
L 270.075952 493.675163 
L 271.15395 493.170036 
L 272.515633 492.300205 
L 274.67163 490.652572 
L 277.054574 488.576663 
L 277.735415 488.350921 
L 278.246046 488.402579 
L 278.87015 488.758298 
L 280.061622 489.78791 
L 281.196357 490.712409 
L 282.274356 491.339794 
L 284.203406 492.503534 
L 286.245929 493.967149 
L 286.926771 494.171235 
L 287.550875 494.122577 
L 288.231716 493.827145 
L 290.61466 492.467998 
L 291.408975 492.421071 
L 293.508235 492.524655 
L 294.30255 492.176215 
L 295.380548 491.3913 
L 296.40181 490.720109 
L 297.196125 490.471361 
L 297.876966 490.472781 
L 299.352122 490.800752 
L 300.146436 490.90536 
L 301.451382 490.824828 
L 302.642854 490.822945 
L 303.550642 491.074851 
L 304.515167 491.548249 
L 305.763376 492.102169 
L 306.727901 492.282824 
L 310.642738 492.764934 
L 311.663999 492.837439 
L 312.515051 492.686624 
L 313.990207 492.084453 
L 316.202941 491.119632 
L 317.337676 490.608913 
L 318.756095 489.58796 
L 319.663883 489.038432 
L 320.231251 488.929746 
L 320.628408 488.991389 
L 321.876617 490.264342 
L 323.692193 492.48726 
L 324.373035 492.914699 
L 325.053876 493.044271 
L 326.075137 492.937821 
L 327.663767 492.785199 
L 329.933237 492.691789 
L 330.841026 492.327085 
L 333.337443 491.253931 
L 334.018284 491.296387 
L 334.869336 491.549256 
L 336.174281 491.961922 
L 336.911859 491.962973 
L 337.762911 491.736576 
L 339.691961 491.175331 
L 340.599749 491.271687 
L 342.925956 491.745911 
L 343.606797 491.563629 
L 344.798269 490.934907 
L 345.762794 490.515773 
L 346.500372 490.414518 
L 347.23795 490.545442 
L 348.032265 490.888754 
L 349.620894 491.862242 
L 351.436471 492.926002 
L 352.287522 493.209432 
L 353.19531 493.313966 
L 354.443519 493.209886 
L 358.528566 492.229248 
L 359.266144 491.711772 
L 360.117196 490.833602 
L 362.102982 488.517421 
L 362.727087 488.126938 
L 363.294454 488.061272 
L 363.805085 488.269001 
L 364.485926 488.824885 
L 365.790872 490.300484 
L 367.492975 492.071348 
L 369.422025 493.631982 
L 370.500023 494.260453 
L 371.124128 494.445432 
L 371.748232 494.413903 
L 372.372336 494.136787 
L 373.166651 493.501126 
L 374.982228 491.904306 
L 375.833279 491.481863 
L 376.911278 491.306858 
L 379.124011 491.066564 
L 380.769377 490.713994 
L 381.620429 490.733277 
L 382.698427 491.028792 
L 384.40053 491.508015 
L 385.478529 491.526208 
L 388.655788 491.371954 
L 390.35789 491.71326 
L 392.627361 492.005178 
L 396.258514 492.200486 
L 397.790407 492.333978 
L 399.208826 492.231765 
L 400.683981 491.932705 
L 402.613031 491.381613 
L 404.088187 490.809769 
L 405.393133 490.412235 
L 406.073974 490.421711 
L 407.038499 490.755805 
L 408.286708 491.493855 
L 409.932074 492.462923 
L 411.74765 493.242429 
L 412.541965 493.411183 
L 413.222806 493.362947 
L 413.960384 493.118326 
L 414.868172 492.57856 
L 416.797222 491.350652 
L 417.591537 491.156512 
L 418.556062 491.204676 
L 420.087955 491.406704 
L 420.995743 491.278398 
L 423.435424 490.647835 
L 424.173002 490.820997 
L 425.08079 491.348181 
L 426.782893 492.442818 
L 427.520471 492.572126 
L 428.087838 492.464263 
L 428.825416 492.079395 
L 430.86794 490.842835 
L 431.492044 490.799143 
L 432.172885 490.986901 
L 434.72604 491.952205 
L 437.392667 492.338002 
L 438.584139 493.055753 
L 439.605401 493.630223 
L 440.342979 493.792992 
L 441.137294 493.713539 
L 441.931609 493.405136 
L 443.293291 492.584161 
L 444.598236 491.549054 
L 445.732972 490.309934 
L 447.094654 488.868055 
L 447.775495 488.488292 
L 448.286126 488.443821 
L 449.250651 489.165337 
L 450.49886 490.709774 
L 451.463385 491.756298 
L 452.200963 492.265495 
L 453.052014 492.563554 
L 454.35696 492.786824 
L 457.761166 493.17674 
L 458.895901 492.847109 
L 461.619265 491.737814 
L 464.058946 490.829739 
L 464.796524 490.773673 
L 465.590839 490.941764 
L 466.725574 491.441169 
L 467.690099 491.843947 
L 468.427677 491.934939 
L 469.108518 491.826825 
L 470.016306 491.486511 
L 471.604936 490.855398 
L 472.399251 490.777577 
L 473.363776 490.983787 
L 476.143877 491.898897 
L 478.753768 491.92371 
L 479.661556 492.234329 
L 482.952289 493.490744 
L 484.030287 493.57417 
L 484.824602 493.469472 
L 485.675653 493.139607 
L 486.469968 492.595131 
L 487.377756 491.697596 
L 489.987647 488.824959 
L 490.555015 488.60099 
L 491.008909 488.631846 
L 491.576277 488.93575 
L 492.313855 489.623246 
L 494.810272 492.208922 
L 495.604587 492.594709 
L 496.455638 492.800091 
L 497.533637 492.861147 
L 498.952056 492.699503 
L 502.129315 492.280045 
L 504.625732 492.239521 
L 505.760467 492.020262 
L 507.235623 491.390236 
L 508.654042 490.777691 
L 509.732041 490.61181 
L 510.469619 490.663969 
L 512.001511 490.976427 
L 513.136247 491.068932 
L 514.895086 490.906941 
L 516.029822 490.85586 
L 517.10782 490.941307 
L 518.582976 491.285757 
L 519.717711 491.750595 
L 520.96592 492.549285 
L 522.441076 493.510378 
L 523.235391 493.732204 
L 523.859495 493.681588 
L 524.597073 493.373143 
L 525.561598 492.731374 
L 526.639596 492.100104 
L 527.547385 491.861213 
L 529.760118 491.512833 
L 530.327486 491.084101 
L 531.235274 490.046535 
L 532.596957 488.497839 
L 533.164324 488.209544 
L 533.561482 488.24995 
L 534.072112 488.608722 
L 534.752954 489.402683 
L 536.965687 492.126966 
L 537.646529 492.486055 
L 538.554317 492.632699 
L 541.050734 492.886364 
L 542.639364 493.117698 
L 543.660626 493.012171 
L 548.029356 492.099699 
L 548.823671 491.613171 
L 550.922931 490.131402 
L 551.660509 489.972137 
L 552.398087 490.097019 
L 553.703033 490.715263 
L 554.610821 491.027343 
L 555.348399 491.02471 
L 556.085977 490.801163 
L 557.901553 490.084129 
L 558.582394 490.061674 
L 559.319972 490.241991 
L 563.461756 491.952096 
L 566.412068 492.832296 
L 568.000697 493.269262 
L 569.589326 493.465241 
L 570.497115 493.374975 
L 571.291429 493.077558 
L 572.029007 492.578706 
L 572.936795 491.665016 
L 575.263003 489.152794 
L 575.943844 488.847068 
L 577.021842 489.136618 
L 577.816157 489.753704 
L 581.390573 492.835906 
L 582.638782 493.516124 
L 583.433097 493.718041 
L 584.113938 493.714558 
L 584.908253 493.454713 
L 585.702567 492.957145 
L 587.915301 491.348786 
L 588.766353 491.023707 
L 589.617404 490.93437 
L 591.43298 491.132202 
L 592.851399 491.233903 
L 595.744974 491.410204 
L 597.22013 491.487028 
L 598.241392 491.306128 
L 601.191704 490.530295 
L 601.986018 490.742187 
L 603.00728 491.268989 
L 604.198752 491.88037 
L 605.617171 492.266996 
L 607.432748 492.741342 
L 609.475271 493.479343 
L 610.099376 493.440989 
L 610.610006 493.26144 
L 611.461058 492.738957 
L 613.957476 491.024858 
L 614.922001 490.729072 
L 619.801362 489.945642 
L 620.879361 490.073962 
L 621.673675 490.371195 
L 622.6382 490.979216 
L 623.489252 491.717286 
L 625.701986 493.672372 
L 626.382827 493.849317 
L 626.950194 493.74208 
L 627.574299 493.369219 
L 628.652297 492.390046 
L 629.616822 491.610008 
L 630.3544 491.318261 
L 630.978505 491.311443 
L 631.829556 491.531704 
L 633.021028 491.840598 
L 633.758606 491.816198 
L 636.481971 491.303272 
L 637.276285 491.583309 
L 639.205335 492.500873 
L 639.886176 492.498784 
L 640.680491 492.191079 
L 641.815226 491.425419 
L 642.779751 490.87799 
L 643.574066 490.696706 
L 644.368381 490.754757 
L 646.921535 491.23372 
L 648.964059 491.490885 
L 649.98532 491.948548 
L 652.311528 493.15227 
L 653.446263 493.389176 
L 654.864682 493.499168 
L 656.112891 493.368022 
L 656.793732 493.057537 
L 657.53131 492.428905 
L 658.439098 491.236362 
L 660.311411 488.583936 
L 660.878779 488.166806 
L 661.275936 488.104267 
L 661.786567 488.30744 
L 662.467408 488.920764 
L 663.375197 490.095216 
L 664.963826 492.128127 
L 665.985088 493.01114 
L 666.836139 493.4466 
L 667.687191 493.610555 
L 668.594979 493.534568 
L 669.786451 493.201918 
L 671.148133 492.614671 
L 673.190657 491.732471 
L 674.836023 491.393093 
L 675.176443 491.34659 
L 675.176443 491.34659 
" clip-path="url(#p0d9fba66a0)" style="fill: none; stroke: #0000ff; stroke-width: 1.5; stroke-linecap: square"/>
   </g>
   <g id="patch_3">
    <path d="M 79.5 640.3905 
L 79.5 39.1875 
" style="fill: none; stroke: #000000; stroke-width: 0.8; stroke-linejoin: miter; stroke-linecap: square"/>
   </g>
   <g id="patch_4">
    <path d="M 703.541988 640.3905 
L 703.541988 39.1875 
" style="fill: none; stroke: #000000; stroke-width: 0.8; stroke-linejoin: miter; stroke-linecap: square"/>
   </g>
   <g id="patch_5">
    <path d="M 79.5 640.3905 
L 703.541988 640.3905 
" style="fill: none; stroke: #000000; stroke-width: 0.8; stroke-linejoin: miter; stroke-linecap: square"/>
   </g>
   <g id="patch_6">
    <path d="M 79.5 39.1875 
L 703.541988 39.1875 
" style="fill: none; stroke: #000000; stroke-width: 0.8; stroke-linejoin: miter; stroke-linecap: square"/>
   </g>
  </g>
 </g>
 <defs>
  <clipPath id="p0d9fba66a0">
   <rect x="79.5" y="39.1875" width="624.041988" height="601.203"/>
  </clipPath>
 </defs>
</svg>
