<?xml version="1.0" encoding="utf-8" standalone="no"?>
<!DOCTYPE svg PUBLIC "-//W3C//DTD SVG 1.1//EN"
  "http://www.w3.org/Graphics/SVG/1.1/DTD/svg11.dtd">
<svg xmlns:xlink="http://www.w3.org/1999/xlink" width="711.981914pt" height="711.02175pt" viewBox="0 0 711.981914 711.02175" xmlns="http://www.w3.org/2000/svg" version="1.1">
 <metadata>
  <rdf:RDF xmlns:dc="http://purl.org/dc/elements/1.1/" xmlns:cc="http://creativecommons.org/ns#" xmlns:rdf="http://www.w3.org/1999/02/22-rdf-syntax-ns#">
   <cc:Work>
    <dc:type rdf:resource="http://purl.org/dc/dcmitype/StillImage"/>
    <dc:date>2025-01-31T15:23:50.357834</dc:date>
    <dc:format>image/svg+xml</dc:format>
    <dc:creator>
     <cc:Agent>
      <dc:title>Matplotlib v3.9.3, https://matplotlib.org/</dc:title>
     </cc:Agent>
    </dc:creator>
   </cc:Work>
  </rdf:RDF>
 </metadata>
 <defs>
  <style type="text/css">*{stroke-linejoin: round; stroke-linecap: butt}</style>
 </defs>
 <g id="figure_1">
  <g id="patch_1">
   <path d="M 0 711.02175 
L 711.981914 711.02175 
L 711.981914 0 
L 0 0 
z
" style="fill: #ffffff"/>
  </g>
  <g id="axes_1">
   <g id="patch_2">
    <path d="M 102.065625 640.3905 
L 688.099102 640.3905 
L 688.099102 39.1875 
L 102.065625 39.1875 
z
" style="fill: #ffffff"/>
   </g>
   <g id="matplotlib.axis_1">
    <g id="xtick_1">
     <g id="line2d_1">
      <defs>
       <path id="mc244b84755" d="M 0 0 
L 0 -3.5 
" style="stroke: #000000; stroke-width: 0.8"/>
      </defs>
      <g>
       <use xlink:href="#mc244b84755" x="102.065625" y="640.3905" style="stroke: #000000; stroke-width: 0.8"/>
      </g>
     </g>
     <g id="text_1">
      <!-- 0 -->
      <g transform="translate(93.724219 665.631125) scale(0.3 -0.3)">
       <defs>
        <path id="LiberationSans-30" d="M 3309 2203 
Q 3309 1100 2920 518 
Q 2531 -63 1772 -63 
Q 1013 -63 631 515 
Q 250 1094 250 2203 
Q 250 3338 620 3903 
Q 991 4469 1791 4469 
Q 2569 4469 2939 3897 
Q 3309 3325 3309 2203 
z
M 2738 2203 
Q 2738 3156 2517 3584 
Q 2297 4013 1791 4013 
Q 1272 4013 1045 3591 
Q 819 3169 819 2203 
Q 819 1266 1048 831 
Q 1278 397 1778 397 
Q 2275 397 2506 840 
Q 2738 1284 2738 2203 
z
" transform="scale(0.015625)"/>
       </defs>
       <use xlink:href="#LiberationSans-30"/>
      </g>
     </g>
    </g>
    <g id="xtick_2">
     <g id="line2d_2">
      <g>
       <use xlink:href="#mc244b84755" x="219.27232" y="640.3905" style="stroke: #000000; stroke-width: 0.8"/>
      </g>
     </g>
     <g id="text_2">
      <!-- 2 -->
      <g transform="translate(210.930914 665.631125) scale(0.3 -0.3)">
       <defs>
        <path id="LiberationSans-32" d="M 322 0 
L 322 397 
Q 481 763 711 1042 
Q 941 1322 1194 1548 
Q 1447 1775 1695 1969 
Q 1944 2163 2144 2356 
Q 2344 2550 2467 2762 
Q 2591 2975 2591 3244 
Q 2591 3606 2378 3806 
Q 2166 4006 1788 4006 
Q 1428 4006 1195 3811 
Q 963 3616 922 3263 
L 347 3316 
Q 409 3844 795 4156 
Q 1181 4469 1788 4469 
Q 2453 4469 2811 4155 
Q 3169 3841 3169 3263 
Q 3169 3006 3051 2753 
Q 2934 2500 2703 2247 
Q 2472 1994 1819 1463 
Q 1459 1169 1246 933 
Q 1034 697 941 478 
L 3238 478 
L 3238 0 
L 322 0 
z
" transform="scale(0.015625)"/>
       </defs>
       <use xlink:href="#LiberationSans-32"/>
      </g>
     </g>
    </g>
    <g id="xtick_3">
     <g id="line2d_3">
      <g>
       <use xlink:href="#mc244b84755" x="336.479016" y="640.3905" style="stroke: #000000; stroke-width: 0.8"/>
      </g>
     </g>
     <g id="text_3">
      <!-- 4 -->
      <g transform="translate(328.137609 665.631125) scale(0.3 -0.3)">
       <defs>
        <path id="LiberationSans-34" d="M 2753 997 
L 2753 0 
L 2222 0 
L 2222 997 
L 147 997 
L 147 1434 
L 2163 4403 
L 2753 4403 
L 2753 1441 
L 3372 1441 
L 3372 997 
L 2753 997 
z
M 2222 3769 
Q 2216 3750 2134 3603 
Q 2053 3456 2013 3397 
L 884 1734 
L 716 1503 
L 666 1441 
L 2222 1441 
L 2222 3769 
z
" transform="scale(0.015625)"/>
       </defs>
       <use xlink:href="#LiberationSans-34"/>
      </g>
     </g>
    </g>
    <g id="xtick_4">
     <g id="line2d_4">
      <g>
       <use xlink:href="#mc244b84755" x="453.685711" y="640.3905" style="stroke: #000000; stroke-width: 0.8"/>
      </g>
     </g>
     <g id="text_4">
      <!-- 6 -->
      <g transform="translate(445.344305 665.631125) scale(0.3 -0.3)">
       <defs>
        <path id="LiberationSans-36" d="M 3278 1441 
Q 3278 744 2900 340 
Q 2522 -63 1856 -63 
Q 1113 -63 719 490 
Q 325 1044 325 2100 
Q 325 3244 734 3856 
Q 1144 4469 1900 4469 
Q 2897 4469 3156 3572 
L 2619 3475 
Q 2453 4013 1894 4013 
Q 1413 4013 1148 3564 
Q 884 3116 884 2266 
Q 1038 2550 1316 2698 
Q 1594 2847 1953 2847 
Q 2563 2847 2920 2465 
Q 3278 2084 3278 1441 
z
M 2706 1416 
Q 2706 1894 2472 2153 
Q 2238 2413 1819 2413 
Q 1425 2413 1183 2183 
Q 941 1953 941 1550 
Q 941 1041 1192 716 
Q 1444 391 1838 391 
Q 2244 391 2475 664 
Q 2706 938 2706 1416 
z
" transform="scale(0.015625)"/>
       </defs>
       <use xlink:href="#LiberationSans-36"/>
      </g>
     </g>
    </g>
    <g id="xtick_5">
     <g id="line2d_5">
      <g>
       <use xlink:href="#mc244b84755" x="570.892406" y="640.3905" style="stroke: #000000; stroke-width: 0.8"/>
      </g>
     </g>
     <g id="text_5">
      <!-- 8 -->
      <g transform="translate(562.551 665.631125) scale(0.3 -0.3)">
       <defs>
        <path id="LiberationSans-38" d="M 3281 1228 
Q 3281 619 2893 278 
Q 2506 -63 1781 -63 
Q 1075 -63 676 271 
Q 278 606 278 1222 
Q 278 1653 525 1947 
Q 772 2241 1156 2303 
L 1156 2316 
Q 797 2400 589 2681 
Q 381 2963 381 3341 
Q 381 3844 757 4156 
Q 1134 4469 1769 4469 
Q 2419 4469 2795 4162 
Q 3172 3856 3172 3334 
Q 3172 2956 2962 2675 
Q 2753 2394 2391 2322 
L 2391 2309 
Q 2813 2241 3047 1952 
Q 3281 1663 3281 1228 
z
M 2588 3303 
Q 2588 4050 1769 4050 
Q 1372 4050 1164 3862 
Q 956 3675 956 3303 
Q 956 2925 1170 2726 
Q 1384 2528 1775 2528 
Q 2172 2528 2380 2711 
Q 2588 2894 2588 3303 
z
M 2697 1281 
Q 2697 1691 2453 1898 
Q 2209 2106 1769 2106 
Q 1341 2106 1100 1882 
Q 859 1659 859 1269 
Q 859 359 1788 359 
Q 2247 359 2472 579 
Q 2697 800 2697 1281 
z
" transform="scale(0.015625)"/>
       </defs>
       <use xlink:href="#LiberationSans-38"/>
      </g>
     </g>
    </g>
    <g id="xtick_6">
     <g id="line2d_6">
      <g>
       <use xlink:href="#mc244b84755" x="688.099102" y="640.3905" style="stroke: #000000; stroke-width: 0.8"/>
      </g>
     </g>
     <g id="text_6">
      <!-- 10 -->
      <g transform="translate(671.416289 665.631125) scale(0.3 -0.3)">
       <defs>
        <path id="LiberationSans-31" d="M 488 0 
L 488 478 
L 1609 478 
L 1609 3866 
L 616 3156 
L 616 3688 
L 1656 4403 
L 2175 4403 
L 2175 478 
L 3247 478 
L 3247 0 
L 488 0 
z
" transform="scale(0.015625)"/>
       </defs>
       <use xlink:href="#LiberationSans-31"/>
       <use xlink:href="#LiberationSans-30" x="55.615234"/>
      </g>
     </g>
    </g>
    <g id="xtick_7">
     <g id="line2d_7">
      <defs>
       <path id="m714cc1c6a7" d="M 0 0 
L 0 -2 
" style="stroke: #000000; stroke-width: 0.6"/>
      </defs>
      <g>
       <use xlink:href="#m714cc1c6a7" x="131.367299" y="640.3905" style="stroke: #000000; stroke-width: 0.6"/>
      </g>
     </g>
    </g>
    <g id="xtick_8">
     <g id="line2d_8">
      <g>
       <use xlink:href="#m714cc1c6a7" x="160.668973" y="640.3905" style="stroke: #000000; stroke-width: 0.6"/>
      </g>
     </g>
    </g>
    <g id="xtick_9">
     <g id="line2d_9">
      <g>
       <use xlink:href="#m714cc1c6a7" x="189.970646" y="640.3905" style="stroke: #000000; stroke-width: 0.6"/>
      </g>
     </g>
    </g>
    <g id="xtick_10">
     <g id="line2d_10">
      <g>
       <use xlink:href="#m714cc1c6a7" x="248.573994" y="640.3905" style="stroke: #000000; stroke-width: 0.6"/>
      </g>
     </g>
    </g>
    <g id="xtick_11">
     <g id="line2d_11">
      <g>
       <use xlink:href="#m714cc1c6a7" x="277.875668" y="640.3905" style="stroke: #000000; stroke-width: 0.6"/>
      </g>
     </g>
    </g>
    <g id="xtick_12">
     <g id="line2d_12">
      <g>
       <use xlink:href="#m714cc1c6a7" x="307.177342" y="640.3905" style="stroke: #000000; stroke-width: 0.6"/>
      </g>
     </g>
    </g>
    <g id="xtick_13">
     <g id="line2d_13">
      <g>
       <use xlink:href="#m714cc1c6a7" x="365.780689" y="640.3905" style="stroke: #000000; stroke-width: 0.6"/>
      </g>
     </g>
    </g>
    <g id="xtick_14">
     <g id="line2d_14">
      <g>
       <use xlink:href="#m714cc1c6a7" x="395.082363" y="640.3905" style="stroke: #000000; stroke-width: 0.6"/>
      </g>
     </g>
    </g>
    <g id="xtick_15">
     <g id="line2d_15">
      <g>
       <use xlink:href="#m714cc1c6a7" x="424.384037" y="640.3905" style="stroke: #000000; stroke-width: 0.6"/>
      </g>
     </g>
    </g>
    <g id="xtick_16">
     <g id="line2d_16">
      <g>
       <use xlink:href="#m714cc1c6a7" x="482.987385" y="640.3905" style="stroke: #000000; stroke-width: 0.6"/>
      </g>
     </g>
    </g>
    <g id="xtick_17">
     <g id="line2d_17">
      <g>
       <use xlink:href="#m714cc1c6a7" x="512.289059" y="640.3905" style="stroke: #000000; stroke-width: 0.6"/>
      </g>
     </g>
    </g>
    <g id="xtick_18">
     <g id="line2d_18">
      <g>
       <use xlink:href="#m714cc1c6a7" x="541.590732" y="640.3905" style="stroke: #000000; stroke-width: 0.6"/>
      </g>
     </g>
    </g>
    <g id="xtick_19">
     <g id="line2d_19">
      <g>
       <use xlink:href="#m714cc1c6a7" x="600.19408" y="640.3905" style="stroke: #000000; stroke-width: 0.6"/>
      </g>
     </g>
    </g>
    <g id="xtick_20">
     <g id="line2d_20">
      <g>
       <use xlink:href="#m714cc1c6a7" x="629.495754" y="640.3905" style="stroke: #000000; stroke-width: 0.6"/>
      </g>
     </g>
    </g>
    <g id="xtick_21">
     <g id="line2d_21">
      <g>
       <use xlink:href="#m714cc1c6a7" x="658.797428" y="640.3905" style="stroke: #000000; stroke-width: 0.6"/>
      </g>
     </g>
    </g>
    <g id="text_7">
     <!-- Time ps -->
     <g transform="translate(342.305801 697.59675) scale(0.3 -0.3)">
      <defs>
       <path id="LiberationSans-54" d="M 2250 3916 
L 2250 0 
L 1656 0 
L 1656 3916 
L 144 3916 
L 144 4403 
L 3763 4403 
L 3763 3916 
L 2250 3916 
z
" transform="scale(0.015625)"/>
       <path id="LiberationSans-69" d="M 428 4100 
L 428 4638 
L 991 4638 
L 991 4100 
L 428 4100 
z
M 428 0 
L 428 3381 
L 991 3381 
L 991 0 
L 428 0 
z
" transform="scale(0.015625)"/>
       <path id="LiberationSans-6d" d="M 2400 0 
L 2400 2144 
Q 2400 2634 2265 2821 
Q 2131 3009 1781 3009 
Q 1422 3009 1212 2734 
Q 1003 2459 1003 1959 
L 1003 0 
L 444 0 
L 444 2659 
Q 444 3250 425 3381 
L 956 3381 
Q 959 3366 962 3297 
Q 966 3228 970 3139 
Q 975 3050 981 2803 
L 991 2803 
Q 1172 3163 1406 3303 
Q 1641 3444 1978 3444 
Q 2363 3444 2586 3291 
Q 2809 3138 2897 2803 
L 2906 2803 
Q 3081 3144 3329 3294 
Q 3578 3444 3931 3444 
Q 4444 3444 4676 3166 
Q 4909 2888 4909 2253 
L 4909 0 
L 4353 0 
L 4353 2144 
Q 4353 2634 4218 2821 
Q 4084 3009 3734 3009 
Q 3366 3009 3161 2736 
Q 2956 2463 2956 1959 
L 2956 0 
L 2400 0 
z
" transform="scale(0.015625)"/>
       <path id="LiberationSans-65" d="M 863 1572 
Q 863 991 1103 675 
Q 1344 359 1806 359 
Q 2172 359 2392 506 
Q 2613 653 2691 878 
L 3184 738 
Q 2881 -63 1806 -63 
Q 1056 -63 664 384 
Q 272 831 272 1713 
Q 272 2550 664 2997 
Q 1056 3444 1784 3444 
Q 3275 3444 3275 1647 
L 3275 1572 
L 863 1572 
z
M 2694 2003 
Q 2647 2538 2422 2783 
Q 2197 3028 1775 3028 
Q 1366 3028 1127 2754 
Q 888 2481 869 2003 
L 2694 2003 
z
" transform="scale(0.015625)"/>
       <path id="LiberationSans-20" transform="scale(0.015625)"/>
       <path id="LiberationSans-70" d="M 3291 1706 
Q 3291 -63 2047 -63 
Q 1266 -63 997 525 
L 981 525 
Q 994 500 994 -6 
L 994 -1328 
L 431 -1328 
L 431 2691 
Q 431 3213 413 3381 
L 956 3381 
Q 959 3369 965 3292 
Q 972 3216 980 3056 
Q 988 2897 988 2838 
L 1000 2838 
Q 1150 3150 1397 3295 
Q 1644 3441 2047 3441 
Q 2672 3441 2981 3022 
Q 3291 2603 3291 1706 
z
M 2700 1694 
Q 2700 2400 2509 2703 
Q 2319 3006 1903 3006 
Q 1569 3006 1380 2865 
Q 1191 2725 1092 2426 
Q 994 2128 994 1650 
Q 994 984 1206 668 
Q 1419 353 1897 353 
Q 2316 353 2508 661 
Q 2700 969 2700 1694 
z
" transform="scale(0.015625)"/>
       <path id="LiberationSans-73" d="M 2969 934 
Q 2969 456 2608 196 
Q 2247 -63 1597 -63 
Q 966 -63 623 145 
Q 281 353 178 794 
L 675 891 
Q 747 619 972 492 
Q 1197 366 1597 366 
Q 2025 366 2223 497 
Q 2422 628 2422 891 
Q 2422 1091 2284 1216 
Q 2147 1341 1841 1422 
L 1438 1528 
Q 953 1653 748 1773 
Q 544 1894 428 2066 
Q 313 2238 313 2488 
Q 313 2950 642 3192 
Q 972 3434 1603 3434 
Q 2163 3434 2492 3237 
Q 2822 3041 2909 2606 
L 2403 2544 
Q 2356 2769 2151 2889 
Q 1947 3009 1603 3009 
Q 1222 3009 1040 2893 
Q 859 2778 859 2544 
Q 859 2400 934 2306 
Q 1009 2213 1156 2147 
Q 1303 2081 1775 1966 
Q 2222 1853 2419 1758 
Q 2616 1663 2730 1547 
Q 2844 1431 2906 1279 
Q 2969 1128 2969 934 
z
" transform="scale(0.015625)"/>
      </defs>
      <use xlink:href="#LiberationSans-54"/>
      <use xlink:href="#LiberationSans-69" x="57.333984"/>
      <use xlink:href="#LiberationSans-6d" x="79.550781"/>
      <use xlink:href="#LiberationSans-65" x="162.851562"/>
      <use xlink:href="#LiberationSans-20" x="218.466797"/>
      <use xlink:href="#LiberationSans-70" x="246.25"/>
      <use xlink:href="#LiberationSans-73" x="301.865234"/>
     </g>
    </g>
   </g>
   <g id="matplotlib.axis_2">
    <g id="ytick_1">
     <g id="line2d_22">
      <defs>
       <path id="m94f78cde99" d="M 0 0 
L 3.5 0 
" style="stroke: #000000; stroke-width: 0.8"/>
      </defs>
      <g>
       <use xlink:href="#m94f78cde99" x="102.065625" y="621.602906" style="stroke: #000000; stroke-width: 0.8"/>
      </g>
     </g>
     <g id="text_8">
      <!-- $\mathdefault{−1.5}$ -->
      <g transform="translate(39.165625 632.473219) scale(0.3 -0.3)">
       <defs>
        <path id="LiberationSans-2212" d="M 316 1900 
L 316 2356 
L 3425 2356 
L 3425 1900 
L 316 1900 
z
" transform="scale(0.015625)"/>
        <path id="LiberationSans-2e" d="M 584 0 
L 584 684 
L 1194 684 
L 1194 0 
L 584 0 
z
" transform="scale(0.015625)"/>
        <path id="LiberationSans-35" d="M 3291 1434 
Q 3291 738 2877 337 
Q 2463 -63 1728 -63 
Q 1113 -63 734 206 
Q 356 475 256 984 
L 825 1050 
Q 1003 397 1741 397 
Q 2194 397 2450 670 
Q 2706 944 2706 1422 
Q 2706 1838 2448 2094 
Q 2191 2350 1753 2350 
Q 1525 2350 1328 2278 
Q 1131 2206 934 2034 
L 384 2034 
L 531 4403 
L 3034 4403 
L 3034 3925 
L 1044 3925 
L 959 2528 
Q 1325 2809 1869 2809 
Q 2519 2809 2905 2428 
Q 3291 2047 3291 1434 
z
" transform="scale(0.015625)"/>
       </defs>
       <use xlink:href="#LiberationSans-2212" transform="translate(0 0.203125)"/>
       <use xlink:href="#LiberationSans-31" transform="translate(58.398438 0.203125)"/>
       <use xlink:href="#LiberationSans-2e" transform="translate(114.013672 0.203125)"/>
       <use xlink:href="#LiberationSans-35" transform="translate(141.796875 0.203125)"/>
      </g>
     </g>
    </g>
    <g id="ytick_2">
     <g id="line2d_23">
      <g>
       <use xlink:href="#m94f78cde99" x="102.065625" y="527.664937" style="stroke: #000000; stroke-width: 0.8"/>
      </g>
     </g>
     <g id="text_9">
      <!-- $\mathdefault{−1.0}$ -->
      <g transform="translate(39.165625 538.53525) scale(0.3 -0.3)">
       <use xlink:href="#LiberationSans-2212" transform="translate(0 0.171875)"/>
       <use xlink:href="#LiberationSans-31" transform="translate(58.398438 0.171875)"/>
       <use xlink:href="#LiberationSans-2e" transform="translate(114.013672 0.171875)"/>
       <use xlink:href="#LiberationSans-30" transform="translate(141.796875 0.171875)"/>
      </g>
     </g>
    </g>
    <g id="ytick_3">
     <g id="line2d_24">
      <g>
       <use xlink:href="#m94f78cde99" x="102.065625" y="433.726969" style="stroke: #000000; stroke-width: 0.8"/>
      </g>
     </g>
     <g id="text_10">
      <!-- $\mathdefault{−0.5}$ -->
      <g transform="translate(39.165625 444.597281) scale(0.3 -0.3)">
       <use xlink:href="#LiberationSans-2212" transform="translate(0 0.171875)"/>
       <use xlink:href="#LiberationSans-30" transform="translate(58.398438 0.171875)"/>
       <use xlink:href="#LiberationSans-2e" transform="translate(114.013672 0.171875)"/>
       <use xlink:href="#LiberationSans-35" transform="translate(141.796875 0.171875)"/>
      </g>
     </g>
    </g>
    <g id="ytick_4">
     <g id="line2d_25">
      <g>
       <use xlink:href="#m94f78cde99" x="102.065625" y="339.789" style="stroke: #000000; stroke-width: 0.8"/>
      </g>
     </g>
     <g id="text_11">
      <!-- $\mathdefault{0.0}$ -->
      <g transform="translate(56.565625 350.659312) scale(0.3 -0.3)">
       <use xlink:href="#LiberationSans-30" transform="translate(0 0.171875)"/>
       <use xlink:href="#LiberationSans-2e" transform="translate(55.615234 0.171875)"/>
       <use xlink:href="#LiberationSans-30" transform="translate(83.398438 0.171875)"/>
      </g>
     </g>
    </g>
    <g id="ytick_5">
     <g id="line2d_26">
      <g>
       <use xlink:href="#m94f78cde99" x="102.065625" y="245.851031" style="stroke: #000000; stroke-width: 0.8"/>
      </g>
     </g>
     <g id="text_12">
      <!-- $\mathdefault{0.5}$ -->
      <g transform="translate(56.565625 256.721344) scale(0.3 -0.3)">
       <use xlink:href="#LiberationSans-30" transform="translate(0 0.171875)"/>
       <use xlink:href="#LiberationSans-2e" transform="translate(55.615234 0.171875)"/>
       <use xlink:href="#LiberationSans-35" transform="translate(83.398438 0.171875)"/>
      </g>
     </g>
    </g>
    <g id="ytick_6">
     <g id="line2d_27">
      <g>
       <use xlink:href="#m94f78cde99" x="102.065625" y="151.913062" style="stroke: #000000; stroke-width: 0.8"/>
      </g>
     </g>
     <g id="text_13">
      <!-- $\mathdefault{1.0}$ -->
      <g transform="translate(56.565625 162.783375) scale(0.3 -0.3)">
       <use xlink:href="#LiberationSans-31" transform="translate(0 0.171875)"/>
       <use xlink:href="#LiberationSans-2e" transform="translate(55.615234 0.171875)"/>
       <use xlink:href="#LiberationSans-30" transform="translate(83.398438 0.171875)"/>
      </g>
     </g>
    </g>
    <g id="ytick_7">
     <g id="line2d_28">
      <g>
       <use xlink:href="#m94f78cde99" x="102.065625" y="57.975094" style="stroke: #000000; stroke-width: 0.8"/>
      </g>
     </g>
     <g id="text_14">
      <!-- $\mathdefault{1.5}$ -->
      <g transform="translate(56.565625 68.845406) scale(0.3 -0.3)">
       <use xlink:href="#LiberationSans-31" transform="translate(0 0.203125)"/>
       <use xlink:href="#LiberationSans-2e" transform="translate(55.615234 0.203125)"/>
       <use xlink:href="#LiberationSans-35" transform="translate(83.398438 0.203125)"/>
      </g>
     </g>
    </g>
    <g id="ytick_8">
     <g id="line2d_29">
      <defs>
       <path id="mce91d491fb" d="M 0 0 
L 2 0 
" style="stroke: #000000; stroke-width: 0.6"/>
      </defs>
      <g>
       <use xlink:href="#mce91d491fb" x="102.065625" y="640.3905" style="stroke: #000000; stroke-width: 0.6"/>
      </g>
     </g>
    </g>
    <g id="ytick_9">
     <g id="line2d_30">
      <g>
       <use xlink:href="#mce91d491fb" x="102.065625" y="602.815312" style="stroke: #000000; stroke-width: 0.6"/>
      </g>
     </g>
    </g>
    <g id="ytick_10">
     <g id="line2d_31">
      <g>
       <use xlink:href="#mce91d491fb" x="102.065625" y="584.027719" style="stroke: #000000; stroke-width: 0.6"/>
      </g>
     </g>
    </g>
    <g id="ytick_11">
     <g id="line2d_32">
      <g>
       <use xlink:href="#mce91d491fb" x="102.065625" y="565.240125" style="stroke: #000000; stroke-width: 0.6"/>
      </g>
     </g>
    </g>
    <g id="ytick_12">
     <g id="line2d_33">
      <g>
       <use xlink:href="#mce91d491fb" x="102.065625" y="546.452531" style="stroke: #000000; stroke-width: 0.6"/>
      </g>
     </g>
    </g>
    <g id="ytick_13">
     <g id="line2d_34">
      <g>
       <use xlink:href="#mce91d491fb" x="102.065625" y="508.877344" style="stroke: #000000; stroke-width: 0.6"/>
      </g>
     </g>
    </g>
    <g id="ytick_14">
     <g id="line2d_35">
      <g>
       <use xlink:href="#mce91d491fb" x="102.065625" y="490.08975" style="stroke: #000000; stroke-width: 0.6"/>
      </g>
     </g>
    </g>
    <g id="ytick_15">
     <g id="line2d_36">
      <g>
       <use xlink:href="#mce91d491fb" x="102.065625" y="471.302156" style="stroke: #000000; stroke-width: 0.6"/>
      </g>
     </g>
    </g>
    <g id="ytick_16">
     <g id="line2d_37">
      <g>
       <use xlink:href="#mce91d491fb" x="102.065625" y="452.514562" style="stroke: #000000; stroke-width: 0.6"/>
      </g>
     </g>
    </g>
    <g id="ytick_17">
     <g id="line2d_38">
      <g>
       <use xlink:href="#mce91d491fb" x="102.065625" y="414.939375" style="stroke: #000000; stroke-width: 0.6"/>
      </g>
     </g>
    </g>
    <g id="ytick_18">
     <g id="line2d_39">
      <g>
       <use xlink:href="#mce91d491fb" x="102.065625" y="396.151781" style="stroke: #000000; stroke-width: 0.6"/>
      </g>
     </g>
    </g>
    <g id="ytick_19">
     <g id="line2d_40">
      <g>
       <use xlink:href="#mce91d491fb" x="102.065625" y="377.364187" style="stroke: #000000; stroke-width: 0.6"/>
      </g>
     </g>
    </g>
    <g id="ytick_20">
     <g id="line2d_41">
      <g>
       <use xlink:href="#mce91d491fb" x="102.065625" y="358.576594" style="stroke: #000000; stroke-width: 0.6"/>
      </g>
     </g>
    </g>
    <g id="ytick_21">
     <g id="line2d_42">
      <g>
       <use xlink:href="#mce91d491fb" x="102.065625" y="321.001406" style="stroke: #000000; stroke-width: 0.6"/>
      </g>
     </g>
    </g>
    <g id="ytick_22">
     <g id="line2d_43">
      <g>
       <use xlink:href="#mce91d491fb" x="102.065625" y="302.213812" style="stroke: #000000; stroke-width: 0.6"/>
      </g>
     </g>
    </g>
    <g id="ytick_23">
     <g id="line2d_44">
      <g>
       <use xlink:href="#mce91d491fb" x="102.065625" y="283.426219" style="stroke: #000000; stroke-width: 0.6"/>
      </g>
     </g>
    </g>
    <g id="ytick_24">
     <g id="line2d_45">
      <g>
       <use xlink:href="#mce91d491fb" x="102.065625" y="264.638625" style="stroke: #000000; stroke-width: 0.6"/>
      </g>
     </g>
    </g>
    <g id="ytick_25">
     <g id="line2d_46">
      <g>
       <use xlink:href="#mce91d491fb" x="102.065625" y="227.063437" style="stroke: #000000; stroke-width: 0.6"/>
      </g>
     </g>
    </g>
    <g id="ytick_26">
     <g id="line2d_47">
      <g>
       <use xlink:href="#mce91d491fb" x="102.065625" y="208.275844" style="stroke: #000000; stroke-width: 0.6"/>
      </g>
     </g>
    </g>
    <g id="ytick_27">
     <g id="line2d_48">
      <g>
       <use xlink:href="#mce91d491fb" x="102.065625" y="189.48825" style="stroke: #000000; stroke-width: 0.6"/>
      </g>
     </g>
    </g>
    <g id="ytick_28">
     <g id="line2d_49">
      <g>
       <use xlink:href="#mce91d491fb" x="102.065625" y="170.700656" style="stroke: #000000; stroke-width: 0.6"/>
      </g>
     </g>
    </g>
    <g id="ytick_29">
     <g id="line2d_50">
      <g>
       <use xlink:href="#mce91d491fb" x="102.065625" y="133.125469" style="stroke: #000000; stroke-width: 0.6"/>
      </g>
     </g>
    </g>
    <g id="ytick_30">
     <g id="line2d_51">
      <g>
       <use xlink:href="#mce91d491fb" x="102.065625" y="114.337875" style="stroke: #000000; stroke-width: 0.6"/>
      </g>
     </g>
    </g>
    <g id="ytick_31">
     <g id="line2d_52">
      <g>
       <use xlink:href="#mce91d491fb" x="102.065625" y="95.550281" style="stroke: #000000; stroke-width: 0.6"/>
      </g>
     </g>
    </g>
    <g id="ytick_32">
     <g id="line2d_53">
      <g>
       <use xlink:href="#mce91d491fb" x="102.065625" y="76.762687" style="stroke: #000000; stroke-width: 0.6"/>
      </g>
     </g>
    </g>
    <g id="ytick_33">
     <g id="line2d_54">
      <g>
       <use xlink:href="#mce91d491fb" x="102.065625" y="39.1875" style="stroke: #000000; stroke-width: 0.6"/>
      </g>
     </g>
    </g>
    <g id="text_15">
     <!-- Heat Flux W/m$^2$ -->
     <g transform="translate(28.940625 445.239) rotate(-90) scale(0.3 -0.3)">
      <defs>
       <path id="LiberationSans-48" d="M 3503 0 
L 3503 2041 
L 1122 2041 
L 1122 0 
L 525 0 
L 525 4403 
L 1122 4403 
L 1122 2541 
L 3503 2541 
L 3503 4403 
L 4100 4403 
L 4100 0 
L 3503 0 
z
" transform="scale(0.015625)"/>
       <path id="LiberationSans-61" d="M 1294 -63 
Q 784 -63 528 206 
Q 272 475 272 944 
Q 272 1469 617 1750 
Q 963 2031 1731 2050 
L 2491 2063 
L 2491 2247 
Q 2491 2659 2316 2837 
Q 2141 3016 1766 3016 
Q 1388 3016 1216 2887 
Q 1044 2759 1009 2478 
L 422 2531 
Q 566 3444 1778 3444 
Q 2416 3444 2737 3151 
Q 3059 2859 3059 2306 
L 3059 850 
Q 3059 600 3125 473 
Q 3191 347 3375 347 
Q 3456 347 3559 369 
L 3559 19 
Q 3347 -31 3125 -31 
Q 2813 -31 2670 133 
Q 2528 297 2509 647 
L 2491 647 
Q 2275 259 1989 98 
Q 1703 -63 1294 -63 
z
M 1422 359 
Q 1731 359 1972 500 
Q 2213 641 2352 886 
Q 2491 1131 2491 1391 
L 2491 1669 
L 1875 1656 
Q 1478 1650 1273 1575 
Q 1069 1500 959 1344 
Q 850 1188 850 934 
Q 850 659 998 509 
Q 1147 359 1422 359 
z
" transform="scale(0.015625)"/>
       <path id="LiberationSans-74" d="M 1731 25 
Q 1453 -50 1163 -50 
Q 488 -50 488 716 
L 488 2972 
L 97 2972 
L 97 3381 
L 509 3381 
L 675 4138 
L 1050 4138 
L 1050 3381 
L 1675 3381 
L 1675 2972 
L 1050 2972 
L 1050 838 
Q 1050 594 1129 495 
Q 1209 397 1406 397 
Q 1519 397 1731 441 
L 1731 25 
z
" transform="scale(0.015625)"/>
       <path id="LiberationSans-46" d="M 1122 3916 
L 1122 2278 
L 3578 2278 
L 3578 1784 
L 1122 1784 
L 1122 0 
L 525 0 
L 525 4403 
L 3653 4403 
L 3653 3916 
L 1122 3916 
z
" transform="scale(0.015625)"/>
       <path id="LiberationSans-6c" d="M 431 0 
L 431 4638 
L 994 4638 
L 994 0 
L 431 0 
z
" transform="scale(0.015625)"/>
       <path id="LiberationSans-75" d="M 981 3381 
L 981 1238 
Q 981 903 1047 718 
Q 1113 534 1256 453 
Q 1400 372 1678 372 
Q 2084 372 2318 650 
Q 2553 928 2553 1422 
L 2553 3381 
L 3116 3381 
L 3116 722 
Q 3116 131 3134 0 
L 2603 0 
Q 2600 16 2597 84 
Q 2594 153 2589 242 
Q 2584 331 2578 578 
L 2569 578 
Q 2375 228 2120 82 
Q 1866 -63 1488 -63 
Q 931 -63 673 214 
Q 416 491 416 1128 
L 416 3381 
L 981 3381 
z
" transform="scale(0.015625)"/>
       <path id="LiberationSans-78" d="M 2503 0 
L 1594 1388 
L 678 0 
L 72 0 
L 1275 1738 
L 128 3381 
L 750 3381 
L 1594 2066 
L 2431 3381 
L 3059 3381 
L 1913 1744 
L 3131 0 
L 2503 0 
z
" transform="scale(0.015625)"/>
       <path id="LiberationSans-57" d="M 4722 0 
L 4009 0 
L 3247 2797 
Q 3172 3059 3028 3738 
Q 2947 3375 2890 3131 
Q 2834 2888 2038 0 
L 1325 0 
L 28 4403 
L 650 4403 
L 1441 1606 
Q 1581 1081 1700 525 
Q 1775 869 1873 1275 
Q 1972 1681 2741 4403 
L 3313 4403 
L 4078 1663 
Q 4253 991 4353 525 
L 4381 634 
Q 4466 994 4519 1220 
Q 4572 1447 5397 4403 
L 6019 4403 
L 4722 0 
z
" transform="scale(0.015625)"/>
       <path id="LiberationSans-2f" d="M 0 -63 
L 1284 4638 
L 1778 4638 
L 506 -63 
L 0 -63 
z
" transform="scale(0.015625)"/>
       <path id="STIXGeneral-Regular-32" d="M 3034 877 
L 2688 0 
L 186 0 
L 186 77 
L 1325 1286 
Q 1773 1754 1965 2144 
Q 2157 2534 2157 2950 
Q 2157 3379 1920 3616 
Q 1683 3853 1267 3853 
Q 922 3853 720 3673 
Q 518 3494 326 3021 
L 192 3053 
Q 301 3648 630 3987 
Q 960 4326 1523 4326 
Q 2054 4326 2380 4006 
Q 2707 3686 2707 3200 
Q 2707 2477 1888 1613 
L 832 486 
L 2330 486 
Q 2541 486 2665 569 
Q 2790 653 2944 915 
L 3034 877 
z
" transform="scale(0.015625)"/>
      </defs>
      <use xlink:href="#LiberationSans-48" transform="translate(0 0.409375)"/>
      <use xlink:href="#LiberationSans-65" transform="translate(72.216797 0.409375)"/>
      <use xlink:href="#LiberationSans-61" transform="translate(127.832031 0.409375)"/>
      <use xlink:href="#LiberationSans-74" transform="translate(183.447266 0.409375)"/>
      <use xlink:href="#LiberationSans-20" transform="translate(211.230469 0.409375)"/>
      <use xlink:href="#LiberationSans-46" transform="translate(239.013672 0.409375)"/>
      <use xlink:href="#LiberationSans-6c" transform="translate(300.097656 0.409375)"/>
      <use xlink:href="#LiberationSans-75" transform="translate(322.314453 0.409375)"/>
      <use xlink:href="#LiberationSans-78" transform="translate(377.929688 0.409375)"/>
      <use xlink:href="#LiberationSans-20" transform="translate(427.929688 0.409375)"/>
      <use xlink:href="#LiberationSans-57" transform="translate(455.712891 0.409375)"/>
      <use xlink:href="#LiberationSans-2f" transform="translate(550.097656 0.409375)"/>
      <use xlink:href="#LiberationSans-6d" transform="translate(577.880859 0.409375)"/>
      <use xlink:href="#STIXGeneral-Regular-32" transform="translate(662.724922 35.684375) scale(0.7)"/>
     </g>
    </g>
    <g id="text_16">
     <!-- $\times\mathdefault{10^{10}}\mathdefault{}$ -->
     <g transform="translate(102.065625 36.1875) scale(0.4 -0.4)">
      <defs>
       <path id="STIXGeneral-Regular-d7" d="M 3821 141 
L 3526 -160 
L 2048 1312 
L 570 -160 
L 275 134 
L 1747 1613 
L 275 3091 
L 576 3386 
L 2048 1914 
L 3526 3386 
L 3821 3098 
L 2349 1613 
L 3821 141 
z
" transform="scale(0.015625)"/>
      </defs>
      <use xlink:href="#STIXGeneral-Regular-d7" transform="translate(0 0.140625)"/>
      <use xlink:href="#LiberationSans-31" transform="translate(63.999985 0.140625)"/>
      <use xlink:href="#LiberationSans-30" transform="translate(119.615219 0.140625)"/>
      <use xlink:href="#LiberationSans-31" transform="translate(176.154946 37.120312) scale(0.7)"/>
      <use xlink:href="#LiberationSans-30" transform="translate(215.08561 37.120312) scale(0.7)"/>
     </g>
    </g>
   </g>
   <g id="line2d_55">
    <path d="M 102.065625 347.60103 
L 102.300046 347.771191 
L 102.534467 347.557007 
L 102.827494 346.953874 
L 103.882389 343.865188 
L 104.468442 341.843953 
L 104.878679 339.52528 
L 105.288917 335.774493 
L 105.757759 328.973826 
L 106.285207 317.523992 
L 107.105681 293.608118 
L 107.98476 269.597742 
L 108.394998 263.124101 
L 108.688024 261.128464 
L 108.805235 260.979741 
L 108.922445 261.221218 
L 109.098261 262.240633 
L 109.391288 265.49532 
L 109.918735 274.756064 
L 110.85642 291.48016 
L 111.325263 296.142226 
L 111.7355 298.11079 
L 112.204342 299.146757 
L 112.614579 300.134646 
L 112.966211 301.696797 
L 113.376448 304.814898 
L 113.962501 311.507453 
L 115.251818 327.103171 
L 115.72066 330.084283 
L 116.013687 330.933999 
L 116.248108 331.125774 
L 116.423924 331.020272 
L 116.71695 330.522425 
L 117.654635 328.50919 
L 117.830451 328.491674 
L 118.006267 328.714863 
L 118.240688 329.416741 
L 118.533715 331.041401 
L 118.885346 334.223534 
L 119.354189 340.758315 
L 119.940242 352.561661 
L 120.760716 374.30382 
L 122.050033 408.175015 
L 122.636086 418.072732 
L 123.163533 423.406493 
L 123.808192 427.44699 
L 124.570061 432.37259 
L 125.33193 437.295935 
L 125.566351 437.888158 
L 125.683561 437.90687 
L 125.859377 437.474943 
L 126.093798 435.975675 
L 126.386825 432.544158 
L 126.797062 424.854152 
L 127.44172 407.628051 
L 129.375695 352.972918 
L 130.489196 322.545467 
L 131.368276 291.300757 
L 132.716198 242.662175 
L 133.243645 230.557254 
L 133.653882 225.135962 
L 133.946909 223.324518 
L 134.18133 222.947827 
L 134.298541 223.082196 
L 134.532962 223.89506 
L 134.884594 226.323112 
L 135.353436 231.511212 
L 135.880884 239.933841 
L 136.408331 252.195977 
L 136.935779 270.308307 
L 137.521832 299.291214 
L 138.342306 353.530244 
L 139.397202 421.087991 
L 139.866044 438.493907 
L 140.159071 443.235163 
L 140.276281 443.689898 
L 140.334887 443.607252 
L 140.452097 442.832677 
L 140.686518 438.791183 
L 140.979545 429.296366 
L 141.448387 405.104652 
L 142.210256 350.626952 
L 143.089336 290.658578 
L 143.558178 271.991826 
L 143.851205 267.420034 
L 143.90981 267.198359 
L 143.968415 267.217354 
L 144.085626 267.941972 
L 144.261442 270.732719 
L 144.554468 279.654703 
L 145.023311 302.879382 
L 146.840075 404.454808 
L 147.250312 413.405518 
L 147.543339 415.622398 
L 147.601944 415.693453 
L 147.660549 415.641712 
L 147.77776 415.230432 
L 148.012181 413.224913 
L 148.422418 406.861987 
L 149.184287 390.338261 
L 150.708025 352.830145 
L 151.64571 322.563234 
L 152.759211 287.173386 
L 153.286658 276.991881 
L 153.63829 273.660127 
L 153.872711 272.937255 
L 153.989922 272.9877 
L 154.165738 273.571074 
L 154.458764 275.654599 
L 154.869001 280.395197 
L 155.63087 292.463916 
L 156.451344 308.948301 
L 157.213213 328.977303 
L 158.561135 366.160826 
L 158.912767 370.394178 
L 159.088583 370.993709 
L 159.205794 370.801944 
L 159.38161 369.633863 
L 159.674636 365.545025 
L 160.143478 354.554405 
L 161.550006 317.813659 
L 161.901637 313.854906 
L 162.136059 313.018576 
L 162.253269 313.146257 
L 162.429085 313.965246 
L 162.722112 316.852918 
L 163.249559 325.246672 
L 164.011428 337.197507 
L 164.36306 339.707155 
L 164.480271 339.918969 
L 164.538876 339.883025 
L 164.656087 339.568798 
L 164.890508 337.93103 
L 165.24214 333.04257 
L 165.710982 322.878518 
L 166.648667 296.36469 
L 167.937984 261.872866 
L 168.758458 245.50564 
L 169.461721 235.536999 
L 172.21617 204.512407 
L 172.274776 204.495385 
L 172.391986 204.863434 
L 172.567802 206.525159 
L 172.802224 211.179805 
L 173.09525 221.454702 
L 173.505487 244.886063 
L 174.032935 289.253642 
L 175.908304 461.527929 
L 176.318542 478.142325 
L 176.611568 483.676736 
L 176.787384 484.763148 
L 176.845989 484.792644 
L 176.9632 484.394329 
L 177.197621 482.06198 
L 177.607858 474.720822 
L 178.428332 459.905583 
L 178.721359 457.88494 
L 178.83857 457.807648 
L 178.95578 458.177838 
L 179.190201 460.184861 
L 179.541833 466.044786 
L 180.303702 484.852896 
L 180.83115 495.170967 
L 181.124176 497.545174 
L 181.241387 497.629794 
L 181.358597 497.209102 
L 181.593019 494.74122 
L 181.886045 488.641546 
L 182.296282 474.726533 
L 182.882335 445.641666 
L 183.644204 395.446551 
L 185.050731 283.700781 
L 185.8126 232.303598 
L 186.281443 212.1741 
L 186.633075 204.569333 
L 186.867496 203.217491 
L 186.984706 203.638709 
L 187.160522 205.549463 
L 187.453549 211.89734 
L 187.863786 226.268121 
L 188.625655 262.857411 
L 189.739156 315.101576 
L 190.325209 333.833594 
L 190.794051 343.110823 
L 191.204288 347.275133 
L 191.438709 348.175611 
L 191.614525 348.221759 
L 191.790341 347.796071 
L 192.083368 346.152069 
L 192.55221 341.705562 
L 193.958737 326.671883 
L 194.310369 325.158655 
L 194.54479 324.859193 
L 194.720606 324.964416 
L 195.013633 325.493527 
L 195.42387 326.17302 
L 195.599686 326.10844 
L 195.775502 325.674264 
L 196.009923 324.389711 
L 196.302949 321.454238 
L 196.713186 314.823839 
L 197.357845 299.90307 
L 198.354135 277.242038 
L 198.764372 272.257295 
L 198.998793 271.207857 
L 199.116004 271.222098 
L 199.29182 271.955002 
L 199.526241 274.259038 
L 199.877873 280.468262 
L 200.346715 293.256564 
L 201.343005 328.880476 
L 202.046269 349.791829 
L 202.456506 356.338127 
L 202.690927 357.573909 
L 202.749532 357.565453 
L 202.866743 357.161168 
L 203.042559 355.574757 
L 203.335585 350.295156 
L 203.745823 337.658124 
L 204.331876 311.07872 
L 205.972824 231.680714 
L 206.441666 219.612672 
L 206.793298 214.963983 
L 207.027719 213.893823 
L 207.14493 213.944211 
L 207.320746 214.734568 
L 207.555167 217.045648 
L 207.906799 223.041897 
L 208.375641 235.569258 
L 208.961694 258.413995 
L 209.606353 293.029328 
L 210.426827 350.812493 
L 212.00917 467.430616 
L 212.478012 485.896434 
L 212.771039 490.66621 
L 212.88825 491.021765 
L 213.00546 490.506703 
L 213.181276 488.093568 
L 213.474303 479.959555 
L 213.88454 461.142972 
L 214.587803 416.257982 
L 215.759909 342.055019 
L 216.345962 318.46882 
L 216.756199 309.643329 
L 217.049226 307.382918 
L 217.107831 307.333357 
L 217.166436 307.409277 
L 217.342252 308.387998 
L 217.576674 311.340281 
L 217.986911 320.312146 
L 218.86599 347.041998 
L 219.393438 359.512066 
L 219.686464 362.800251 
L 219.803675 363.189906 
L 219.86228 363.173974 
L 219.979491 362.699606 
L 220.155307 360.878976 
L 220.448333 354.846644 
L 220.85857 340.60047 
L 221.503229 308.564019 
L 222.616729 253.472087 
L 223.085572 240.582783 
L 223.378598 237.080024 
L 223.554414 236.684771 
L 223.671625 237.112734 
L 223.906046 239.508189 
L 224.257678 246.493154 
L 224.785126 262.458174 
L 226.543285 320.557963 
L 227.070732 330.433222 
L 227.539575 335.423669 
L 227.891207 337.280837 
L 228.242838 338.087968 
L 228.946102 339.153732 
L 229.239129 340.347485 
L 229.59076 343.077603 
L 230.000997 348.502913 
L 230.46984 357.919693 
L 231.173103 377.547085 
L 232.345209 410.386934 
L 232.814052 417.541607 
L 233.107078 419.437181 
L 233.224289 419.63199 
L 233.282894 419.60657 
L 233.45871 419.112419 
L 233.693131 417.546774 
L 234.044763 413.547346 
L 234.630816 403.990491 
L 235.627106 383.84354 
L 236.506186 361.753689 
L 237.32666 335.068732 
L 239.377846 264.691287 
L 239.846688 257.454042 
L 240.139715 255.468551 
L 240.374136 255.084964 
L 240.491346 255.216872 
L 240.725768 255.989099 
L 241.19461 258.649723 
L 242.366716 266.747457 
L 242.776953 271.543103 
L 243.18719 279.244608 
L 243.656033 292.673491 
L 244.242086 316.490937 
L 246.176061 401.618633 
L 246.586298 409.878711 
L 246.937929 413.110534 
L 247.113745 413.571788 
L 247.230956 413.499193 
L 247.406772 412.919915 
L 247.699798 411.084161 
L 248.754694 403.554788 
L 248.989115 403.066273 
L 249.164931 403.083295 
L 249.399352 403.554469 
L 250.278432 406.261367 
L 250.337037 406.241752 
L 250.454248 406.024155 
L 250.630063 405.188896 
L 250.92309 402.191786 
L 251.274722 395.432555 
L 251.684959 382.747641 
L 252.212407 359.171747 
L 253.032881 310.557853 
L 254.673829 210.896319 
L 255.201277 191.074411 
L 255.552909 184.193136 
L 255.78733 182.911803 
L 255.904541 183.327967 
L 256.080356 185.329052 
L 256.373383 192.375039 
L 256.725015 206.976419 
L 257.193857 236.097527 
L 257.897121 295.519943 
L 259.186437 406.6061 
L 259.596675 426.329354 
L 259.889701 432.460253 
L 260.006912 432.909351 
L 260.124122 432.226742 
L 260.299938 429.100373 
L 260.592965 418.587569 
L 261.003202 394.636731 
L 261.823676 329.456983 
L 262.64415 270.328316 
L 263.112993 250.796339 
L 263.406019 245.984461 
L 263.464624 245.76102 
L 263.52323 245.786195 
L 263.64044 246.569732 
L 263.816256 249.600791 
L 264.109283 259.404627 
L 264.51952 281.949119 
L 265.222783 335.459042 
L 266.101863 398.602848 
L 266.570705 418.266526 
L 266.863732 423.895609 
L 267.039548 424.807446 
L 267.156758 424.430548 
L 267.332574 422.50016 
L 267.625601 416.044179 
L 268.094443 399.399236 
L 270.145629 317.182771 
L 270.614471 308.709191 
L 270.907498 306.349582 
L 271.083314 306.046857 
L 271.200524 306.278941 
L 271.37634 307.280451 
L 271.669367 310.497563 
L 272.138209 318.786086 
L 273.486131 344.557468 
L 273.779157 346.683408 
L 273.954973 346.970107 
L 274.072184 346.738559 
L 274.248 345.768118 
L 274.541026 342.511104 
L 274.951263 335.16204 
L 276.592212 302.109316 
L 276.885238 300.060191 
L 277.061054 299.682203 
L 277.178265 299.766634 
L 277.354081 300.342361 
L 277.647107 302.429945 
L 278.11595 307.858489 
L 279.288056 322.425797 
L 279.639688 324.513576 
L 279.874109 324.888728 
L 279.991319 324.729034 
L 280.167135 324.066615 
L 280.460162 321.779369 
L 280.870399 316.192628 
L 281.456452 304.524123 
L 282.452742 284.410501 
L 282.862979 280.242041 
L 283.038795 279.694608 
L 283.156006 279.781463 
L 283.331822 280.613491 
L 283.566243 282.987679 
L 283.917875 289.181234 
L 284.386717 301.7764 
L 285.089981 327.319437 
L 287.375587 416.255991 
L 287.785824 423.648289 
L 288.078851 426.081207 
L 288.254667 426.407416 
L 288.371877 426.161975 
L 288.547693 425.129597 
L 288.84072 421.78997 
L 289.250957 414.236099 
L 289.895615 397.309567 
L 291.126327 357.217948 
L 292.181222 325.888987 
L 292.70867 316.1165 
L 293.060302 313.150541 
L 293.236117 312.896363 
L 293.353328 313.198881 
L 293.587749 314.944136 
L 293.880776 319.182485 
L 294.349618 329.914583 
L 295.931961 370.759334 
L 296.224988 373.210119 
L 296.342198 373.415092 
L 296.459409 373.152535 
L 296.635225 371.877308 
L 296.928251 367.457151 
L 297.338488 356.845881 
L 297.983147 332.967159 
L 299.038042 293.965871 
L 299.506885 284.106424 
L 299.799911 281.459101 
L 299.917122 281.188973 
L 299.975727 281.21661 
L 300.092938 281.600008 
L 300.327359 283.574227 
L 300.678991 289.095676 
L 301.323649 303.818574 
L 302.026913 318.434626 
L 302.378544 322.279898 
L 302.612966 323.040783 
L 302.730176 322.839233 
L 302.905992 321.817592 
L 303.199019 318.208086 
L 303.609256 309.687649 
L 304.312519 289.404055 
L 305.132994 267.641897 
L 305.543231 261.951811 
L 305.777652 261.029171 
L 305.894862 261.275571 
L 306.070678 262.571182 
L 306.363705 267.194602 
L 306.773942 278.687762 
L 307.359995 303.458547 
L 308.825128 370.661469 
L 309.176759 378.301425 
L 309.411181 380.231588 
L 309.469786 380.305573 
L 309.586996 379.932602 
L 309.762812 378.154281 
L 310.055839 372.101482 
L 310.466076 358.260419 
L 312.16563 293.3025 
L 312.458656 289.589602 
L 312.634472 288.971095 
L 312.751683 289.213775 
L 312.927499 290.536534 
L 313.220525 295.013204 
L 313.630762 305.10759 
L 315.388921 353.911491 
L 315.740553 357.043357 
L 315.916369 357.42851 
L 316.03358 357.293533 
L 316.209395 356.589453 
L 316.561027 353.784097 
L 317.674528 343.525146 
L 317.967554 342.588398 
L 318.14337 342.457064 
L 318.319186 342.570013 
L 318.670818 343.1877 
L 319.02245 343.733016 
L 319.198266 343.733211 
L 319.374082 343.46325 
L 319.608503 342.606063 
L 319.960135 340.241608 
L 320.546188 334.344864 
L 321.190846 328.410256 
L 321.483873 327.152919 
L 321.659688 327.043855 
L 321.776899 327.266379 
L 322.01132 328.443554 
L 322.304347 331.280865 
L 322.714584 337.631594 
L 323.359242 351.772592 
L 325.058796 391.512204 
L 325.410428 394.838153 
L 325.586244 395.232486 
L 325.703454 394.96944 
L 325.87927 393.751478 
L 326.172297 389.488329 
L 326.582534 379.132964 
L 327.168587 357.251841 
L 329.161167 276.212065 
L 329.688615 264.392771 
L 330.157457 258.078185 
L 330.6263 254.665438 
L 331.212353 252.271353 
L 331.681195 250.245017 
L 332.208643 246.85132 
L 333.263538 237.801393 
L 333.908196 233.334285 
L 334.377039 231.373687 
L 334.728671 230.71056 
L 334.963092 230.662558 
L 335.138908 230.853797 
L 335.431934 231.66033 
L 335.783566 233.553781 
L 336.193803 237.184784 
L 336.662646 243.592838 
L 337.190093 254.08631 
L 337.776146 270.467232 
L 338.420805 294.926725 
L 339.299884 337.910997 
L 340.823622 413.824406 
L 341.409675 432.138929 
L 341.761307 438.021024 
L 341.995728 439.559201 
L 342.112939 439.619622 
L 342.230149 439.224275 
L 342.46457 437.102329 
L 342.816202 430.960045 
L 343.402255 415.26224 
L 344.515756 384.953887 
L 344.984598 377.603635 
L 345.394835 374.356651 
L 345.746467 373.29797 
L 346.33252 372.376495 
L 346.566941 371.219799 
L 346.859968 368.175081 
L 347.152994 362.668926 
L 347.504626 351.938475 
L 347.973469 329.629237 
L 348.559522 289.695413 
L 350.141865 174.915127 
L 350.493497 164.273984 
L 350.669313 162.531773 
L 350.727918 162.515277 
L 350.845128 163.317094 
L 351.020944 166.652832 
L 351.313971 177.666006 
L 351.724208 203.254991 
L 352.427472 264.864283 
L 353.482367 354.790039 
L 354.009815 381.705681 
L 354.361447 390.802183 
L 354.595868 393.090869 
L 354.654473 393.231024 
L 354.713078 393.203951 
L 354.830289 392.69477 
L 355.06471 390.000253 
L 355.416342 382.612972 
L 356.119606 361.233404 
L 357.05729 334.300545 
L 357.584738 324.937809 
L 357.994975 321.103241 
L 358.288002 320.009215 
L 358.463818 319.97489 
L 358.639634 320.319078 
L 358.93266 321.675407 
L 359.342897 325.005388 
L 359.870345 331.204475 
L 361.394083 350.284218 
L 361.628504 350.973636 
L 361.745714 350.867315 
L 361.92153 350.084487 
L 362.155952 347.850967 
L 362.507583 341.941393 
L 363.035031 328.122549 
L 364.441558 288.233569 
L 364.79319 283.987254 
L 365.027611 283.204412 
L 365.144822 283.429939 
L 365.320638 284.540981 
L 365.613664 288.323524 
L 366.023901 297.296893 
L 366.609954 315.791268 
L 368.602535 384.660688 
L 368.954167 389.406284 
L 369.188588 390.330013 
L 369.305798 390.094022 
L 369.481614 388.897102 
L 369.774641 384.806216 
L 370.184878 375.432936 
L 371.122563 346.795219 
L 372.001642 323.448783 
L 372.6463 311.88514 
L 373.173748 306.166008 
L 373.52538 304.472739 
L 373.701196 304.354152 
L 373.877012 304.758216 
L 374.111433 306.171513 
L 374.463065 310.178061 
L 374.931907 318.815038 
L 375.693776 338.079651 
L 376.690066 362.103908 
L 377.158909 368.979848 
L 377.51054 371.348926 
L 377.686356 371.56504 
L 377.803567 371.340133 
L 377.979383 370.441654 
L 378.272409 367.437969 
L 378.682647 360.156292 
L 379.210094 346.115159 
L 380.030568 316.975713 
L 381.26128 273.875395 
L 381.730122 264.608152 
L 382.023149 262.349864 
L 382.081754 262.269848 
L 382.140359 262.313003 
L 382.25757 262.763229 
L 382.491991 265.209693 
L 382.785018 271.058891 
L 383.25386 286.114366 
L 384.074334 322.280321 
L 384.953414 358.000566 
L 385.480861 371.073688 
L 385.832493 375.448154 
L 386.066914 376.514951 
L 386.184125 376.554574 
L 386.359941 376.066115 
L 386.652967 374.042654 
L 387.12181 368.68477 
L 388.293916 354.525019 
L 388.821364 350.656716 
L 389.348811 348.235868 
L 389.99347 346.300237 
L 390.755339 344.633236 
L 391.048365 344.344197 
L 391.282786 344.37845 
L 391.575813 344.795469 
L 391.868839 345.618743 
L 392.572103 348.541603 
L 392.98234 349.794692 
L 393.216761 349.950144 
L 393.392577 349.687997 
L 393.626998 348.718813 
L 393.97863 345.859843 
L 394.388867 340.329843 
L 394.97492 329.031769 
L 396.908895 288.838962 
L 397.377738 283.632431 
L 397.729369 281.72953 
L 397.905185 281.520781 
L 398.022396 281.650134 
L 398.198212 282.290603 
L 398.491238 284.591857 
L 398.84287 289.441011 
L 399.311713 299.337751 
L 399.956371 318.351491 
L 401.655925 371.561996 
L 402.066162 377.373074 
L 402.300583 378.528887 
L 402.417793 378.481805 
L 402.593609 377.656861 
L 402.828031 375.112175 
L 403.179662 368.506626 
L 403.70711 353.602892 
L 405.465269 299.385528 
L 405.875506 294.004818 
L 406.109927 293.075846 
L 406.227138 293.225508 
L 406.402954 294.223205 
L 406.69598 297.914553 
L 407.106218 306.915896 
L 407.750876 327.535386 
L 408.981587 367.940969 
L 409.45043 376.732098 
L 409.802061 379.884919 
L 410.036483 380.418374 
L 410.153693 380.268148 
L 410.388114 379.260664 
L 410.739746 376.407674 
L 412.263484 362.191909 
L 412.673721 360.486897 
L 413.083958 359.684517 
L 413.43559 359.476745 
L 413.904433 359.334955 
L 414.138854 359.055039 
L 414.373275 358.433752 
L 414.666301 356.915188 
L 415.017933 353.532429 
L 415.369565 347.876783 
L 415.838407 336.131629 
L 416.42446 315.059736 
L 417.889593 259.108929 
L 418.29983 252.08607 
L 418.534251 251.008395 
L 418.651462 251.319048 
L 418.827278 252.847024 
L 419.120304 258.149071 
L 419.530541 270.987967 
L 420.116594 297.995829 
L 422.343596 411.2819 
L 422.695228 418.226866 
L 422.929649 419.733048 
L 422.988254 419.698667 
L 423.105465 419.154785 
L 423.281281 417.126702 
L 423.574307 410.657776 
L 423.984544 396.036219 
L 424.746413 358.661871 
L 425.742703 311.950878 
L 426.328756 294.205695 
L 426.738993 287.219547 
L 427.03202 284.862173 
L 427.207836 284.412511 
L 427.325046 284.465811 
L 427.500862 285.048546 
L 427.793889 287.112119 
L 428.321337 293.134351 
L 429.317627 304.553582 
L 429.727864 306.999764 
L 430.02089 307.642413 
L 430.196706 307.623249 
L 430.431127 307.192882 
L 431.251602 305.163765 
L 431.368812 305.242222 
L 431.544628 305.773874 
L 431.779049 307.454894 
L 432.072076 311.481526 
L 432.423708 319.648173 
L 432.89255 336.599363 
L 433.595814 371.925893 
L 434.533499 417.228512 
L 435.002341 430.459562 
L 435.353973 435.014126 
L 435.588394 435.739139 
L 435.705605 435.519681 
L 435.88142 434.562942 
L 436.233052 430.964648 
L 437.112132 418.086635 
L 437.874001 408.523431 
L 438.518659 402.881723 
L 439.339133 397.778937 
L 440.101002 392.937938 
L 440.62845 388.058856 
L 441.214503 380.476691 
L 442.093582 365.735306 
L 443.265688 346.961669 
L 443.734531 342.496664 
L 444.027557 341.189723 
L 444.203373 341.004826 
L 444.320584 341.152093 
L 444.555005 342.120399 
L 444.848032 344.592755 
L 445.258269 350.290123 
L 445.902927 363.244522 
L 446.899217 383.377721 
L 447.368059 388.690739 
L 447.661086 390.056053 
L 447.836902 390.202896 
L 448.012718 389.895907 
L 448.247139 388.89729 
L 448.657376 385.891238 
L 449.36064 378.653035 
L 450.532746 364.107455 
L 451.294615 351.81643 
L 451.997878 336.829798 
L 452.759747 315.559054 
L 455.045354 245.732575 
L 455.396986 242.347239 
L 455.514196 242.058849 
L 455.572802 242.081507 
L 455.690012 242.476065 
L 455.924433 244.611896 
L 456.21746 249.782767 
L 456.627697 261.228076 
L 457.272355 286.135014 
L 458.327251 326.038676 
L 458.737488 334.667771 
L 459.030514 337.407575 
L 459.20633 337.735324 
L 459.323541 337.445781 
L 459.557962 335.858547 
L 459.968199 330.888515 
L 460.612858 323.019511 
L 460.847279 321.824876 
L 460.964489 321.760074 
L 461.0817 322.110006 
L 461.257516 323.454754 
L 461.550542 328.028378 
L 461.902174 337.431969 
L 462.429622 358.81544 
L 463.250096 403.66851 
L 464.246386 455.375443 
L 464.715229 469.091627 
L 465.008255 472.150698 
L 465.06686 472.186094 
L 465.184071 471.681497 
L 465.359887 469.421913 
L 465.652913 461.682138 
L 466.063151 443.050519 
L 466.649204 404.191613 
L 468.055731 306.605206 
L 468.465968 292.378488 
L 468.758994 288.465671 
L 468.8176 288.314037 
L 468.876205 288.36296 
L 468.993416 289.055301 
L 469.227837 292.689273 
L 469.579469 302.885319 
L 470.224127 330.27441 
L 471.044601 363.374814 
L 471.513444 374.195359 
L 471.80647 376.975078 
L 471.923681 377.244717 
L 471.982286 377.195625 
L 472.158102 376.408012 
L 472.392523 373.892203 
L 472.80276 366.24351 
L 473.506024 347.386615 
L 474.385103 324.844247 
L 474.79534 318.66143 
L 475.088367 316.840236 
L 475.205578 316.780492 
L 475.322788 317.108993 
L 475.557209 318.968983 
L 475.850236 323.50317 
L 476.260473 333.603668 
L 476.905131 356.174686 
L 478.428869 412.078926 
L 478.839106 419.33214 
L 479.073527 420.768433 
L 479.132133 420.800747 
L 479.249343 420.455506 
L 479.425159 418.919996 
L 479.718186 413.665294 
L 480.128423 401.225991 
L 480.831686 370.90567 
L 481.710766 334.213156 
L 482.179608 322.674772 
L 482.472635 319.462702 
L 482.648451 319.00126 
L 482.765661 319.261769 
L 482.941477 320.442983 
L 483.234504 324.131513 
L 483.937767 337.224048 
L 484.52382 346.376725 
L 484.875452 349.343196 
L 485.168479 350.317323 
L 485.344295 350.410547 
L 485.578716 350.17655 
L 485.988953 349.620134 
L 486.164769 349.66774 
L 486.340585 350.029071 
L 486.575006 351.103069 
L 486.868032 353.525703 
L 487.336875 359.579363 
L 488.860613 381.612194 
L 489.212245 383.762772 
L 489.446666 384.305978 
L 489.622482 384.268872 
L 489.798298 383.902251 
L 490.091324 382.660128 
L 490.501561 379.928525 
L 493.431826 356.485403 
L 493.959274 349.086418 
L 494.545327 337.283378 
L 495.248591 318.018481 
L 496.830934 272.765894 
L 497.241171 266.975088 
L 497.534197 265.40018 
L 497.651408 265.380059 
L 497.768618 265.667922 
L 498.00304 267.206119 
L 498.354671 271.468197 
L 499.057935 283.666042 
L 499.761199 294.436538 
L 500.171436 298.012249 
L 500.523068 299.497934 
L 501.343542 301.787823 
L 501.636568 304.272106 
L 501.9882 309.743335 
L 502.398437 320.069166 
L 503.043096 343.358387 
L 503.98078 377.075591 
L 504.391018 384.623864 
L 504.625439 385.874366 
L 504.684044 385.821329 
L 504.801255 385.2602 
L 505.035676 382.350753 
L 505.387308 374.019545 
L 505.914755 354.750895 
L 507.262677 302.667326 
L 507.672914 294.757561 
L 507.965941 292.48306 
L 508.083151 292.370072 
L 508.200362 292.676817 
L 508.434783 294.465677 
L 508.786415 299.609664 
L 509.489679 314.616969 
L 510.134337 326.30331 
L 510.427364 328.783438 
L 510.603179 329.139232 
L 510.72039 328.889543 
L 510.896206 327.775927 
L 511.189232 324.076404 
L 511.658075 314.485568 
L 512.59576 294.877295 
L 512.888786 292.352355 
L 513.005997 292.088972 
L 513.064602 292.118337 
L 513.181813 292.518324 
L 513.416234 294.61688 
L 513.767866 300.627444 
L 514.412524 316.823158 
L 515.115788 332.729081 
L 515.526025 337.510422 
L 515.760446 338.308842 
L 515.877657 338.206732 
L 516.053472 337.414119 
L 516.346499 334.607053 
L 516.815341 327.358658 
L 517.928842 309.175931 
L 518.280474 306.365796 
L 518.514895 305.689236 
L 518.632106 305.737971 
L 518.807922 306.246776 
L 519.100948 308.244179 
L 519.511185 313.132147 
L 520.155844 324.122242 
L 521.972608 356.937977 
L 523.086109 371.593277 
L 525.020084 395.758839 
L 525.31311 396.863136 
L 525.430321 396.832719 
L 525.606137 396.248932 
L 525.840558 394.330906 
L 526.133584 389.998469 
L 526.543821 380.353782 
L 527.129874 360.589497 
L 528.477796 312.579266 
L 528.888033 305.671951 
L 529.122455 304.462556 
L 529.18106 304.483523 
L 529.298271 304.913026 
L 529.532692 307.259935 
L 529.884324 314.101738 
L 530.470377 331.31711 
L 531.290851 354.488049 
L 531.642483 359.469361 
L 531.818298 360.286077 
L 531.876904 360.288951 
L 531.994114 359.875305 
L 532.16993 358.248134 
L 532.462957 352.852031 
L 532.873194 340.299887 
L 533.576457 310.478287 
L 534.396932 278.50169 
L 534.748564 271.082281 
L 534.982985 269.283463 
L 535.04159 269.264187 
L 535.158801 269.746521 
L 535.334617 271.798239 
L 535.627643 278.665762 
L 536.03788 294.596007 
L 536.741144 332.639781 
L 537.737434 384.555214 
L 538.264882 402.188479 
L 538.733724 411.055716 
L 539.085356 414.160817 
L 539.319777 414.920888 
L 539.495593 414.951023 
L 539.671409 414.607624 
L 539.964435 413.322684 
L 540.433278 409.921622 
L 540.960725 404.390498 
L 541.546778 395.563636 
L 542.132831 382.945606 
L 542.836095 362.409864 
L 544.828675 300.572209 
L 545.473334 288.962472 
L 546.235203 279.556162 
L 548.344993 257.571315 
L 548.579415 256.829242 
L 548.696625 256.796984 
L 548.813836 257.023224 
L 548.989652 257.858652 
L 549.282678 260.802537 
L 549.63431 267.044733 
L 550.103152 279.946305 
L 550.747811 304.897977 
L 552.681786 385.181367 
L 553.092023 393.081494 
L 553.385049 395.301492 
L 553.50226 395.372059 
L 553.61947 394.978158 
L 553.853892 392.821605 
L 554.205523 386.522426 
L 554.732971 371.977127 
L 555.905077 338.112576 
L 556.315314 332.346135 
L 556.549736 331.2467 
L 556.666946 331.3045 
L 556.842762 332.109862 
L 557.077183 334.445275 
L 557.48742 341.278886 
L 558.776737 365.544931 
L 559.011158 366.929145 
L 559.128369 366.984418 
L 559.245579 366.598558 
L 559.421395 365.142952 
L 559.714422 360.389709 
L 560.124659 349.045739 
L 560.710712 325.521998 
L 562.000029 272.023728 
L 562.468871 261.582184 
L 562.761897 258.642527 
L 562.937713 258.17295 
L 563.054924 258.371892 
L 563.23074 259.355948 
L 563.523766 262.657361 
L 563.992609 271.207407 
L 564.695872 288.681766 
L 565.516347 314.535599 
L 566.21961 343.959184 
L 568.036375 425.221487 
L 568.388006 430.69142 
L 568.563822 431.350601 
L 568.681033 431.033917 
L 568.856849 429.497449 
L 569.149875 424.360846 
L 569.618718 411.074053 
L 570.673613 372.015416 
L 573.017825 281.011994 
L 574.775984 194.402333 
L 575.069011 189.801721 
L 575.186221 189.457025 
L 575.303432 190.015148 
L 575.479248 192.504786 
L 575.772274 201.00326 
L 576.182511 221.002128 
L 576.885775 269.221633 
L 578.116486 353.011444 
L 578.761145 381.735008 
L 579.229987 394.347421 
L 579.581619 399.428713 
L 579.874645 401.024081 
L 579.991856 401.034508 
L 580.167672 400.435897 
L 580.402093 398.57974 
L 580.753725 393.913596 
L 581.398383 381.717649 
L 584.035622 324.974505 
L 585.266333 291.448202 
L 585.55936 288.196464 
L 585.67657 287.847898 
L 585.735176 287.882749 
L 585.852386 288.40185 
L 586.086807 291.261359 
L 586.379834 298.165142 
L 586.848676 315.727165 
L 589.017072 407.92777 
L 589.720336 423.881744 
L 590.364994 433.891323 
L 590.775231 437.683298 
L 591.068258 438.749024 
L 591.185469 438.719509 
L 591.361284 438.164317 
L 591.595706 436.379119 
L 591.947337 431.417466 
L 592.41618 420.684527 
L 593.119443 398.252272 
L 594.350155 358.485682 
L 594.877603 347.922991 
L 595.28784 343.552499 
L 595.580866 342.423308 
L 595.698077 342.392215 
L 595.873893 342.754103 
L 596.166919 344.24209 
L 596.752972 348.958001 
L 597.339025 353.032531 
L 597.632052 353.908923 
L 597.807868 353.928613 
L 597.983683 353.561963 
L 598.218105 352.423869 
L 598.569736 349.510003 
L 599.155789 342.353743 
L 602.613502 296.752428 
L 603.14095 292.279778 
L 603.433976 291.300475 
L 603.551187 291.282702 
L 603.727003 291.695635 
L 603.961424 293.099124 
L 604.313056 297.095302 
L 604.781898 305.598736 
L 605.485162 323.227082 
L 607.946585 389.500522 
L 608.649848 401.676311 
L 609.294507 409.084127 
L 609.88056 413.513491 
L 610.525218 416.825311 
L 610.99406 418.331588 
L 611.287087 418.673221 
L 611.462903 418.553094 
L 611.638719 418.092478 
L 611.87314 416.828693 
L 612.166166 413.99466 
L 612.517798 408.399 
L 612.986641 396.52107 
L 613.514088 376.758269 
L 614.217352 341.378284 
L 616.327143 228.43279 
L 616.73738 218.392475 
L 617.030406 215.510495 
L 617.089012 215.384318 
L 617.147617 215.413514 
L 617.264828 215.909694 
L 617.499249 218.61026 
L 617.850881 226.664276 
L 618.319723 243.493639 
L 619.140197 282.597893 
L 620.663935 355.082098 
L 621.484409 384.441737 
L 622.129068 400.949381 
L 622.656515 409.621828 
L 623.066752 413.168832 
L 623.301174 413.886612 
L 623.418384 413.900966 
L 623.5942 413.502932 
L 623.828621 412.224023 
L 624.180253 408.877502 
L 624.766306 400.591271 
L 626.172833 379.790098 
L 628.985888 347.687009 
L 629.220309 346.855711 
L 629.33752 346.872573 
L 629.513335 347.475192 
L 629.747757 349.416522 
L 630.099389 354.653483 
L 630.626836 366.37538 
L 631.798942 393.783718 
L 632.267785 400.095711 
L 632.619416 402.360837 
L 632.853838 402.746208 
L 632.971048 402.645394 
L 633.205469 401.873261 
L 633.498496 399.997884 
L 634.025944 394.792142 
L 635.022234 382.160416 
L 636.018524 366.933034 
L 637.19063 348.710945 
L 637.600867 345.342744 
L 637.835288 344.649527 
L 637.952499 344.657177 
L 638.128315 345.111933 
L 638.421341 346.909113 
L 638.890184 351.595573 
L 639.652053 359.087522 
L 639.945079 360.33592 
L 640.06229 360.428074 
L 640.1795 360.273602 
L 640.355316 359.566456 
L 640.648343 357.077684 
L 641.05858 351.126443 
L 641.703238 337.901157 
L 642.699528 317.898692 
L 643.168371 312.295761 
L 643.520002 310.387806 
L 643.695818 310.192885 
L 643.813029 310.335088 
L 644.04745 311.272476 
L 644.340477 313.62814 
L 644.750714 319.10369 
L 645.219556 328.559986 
L 645.805609 345.552121 
L 646.567478 375.153188 
L 647.446558 408.195362 
L 647.856795 416.556029 
L 648.091216 418.101778 
L 648.149821 418.092591 
L 648.267032 417.596185 
L 648.501453 414.728278 
L 648.853085 406.227944 
L 649.439138 384.742076 
L 650.376823 351.106752 
L 650.78706 343.302301 
L 651.021481 341.628338 
L 651.080086 341.532263 
L 651.138692 341.585005 
L 651.255902 342.092299 
L 651.490323 344.65959 
L 651.841955 352.181984 
L 652.310798 367.947507 
L 654.127562 435.492044 
L 654.420588 438.866916 
L 654.596404 439.268069 
L 654.713615 438.866897 
L 654.948036 436.554671 
L 655.299668 429.727297 
L 655.944326 410.820514 
L 656.706195 389.776963 
L 657.116432 383.777877 
L 657.350854 382.666873 
L 657.468064 382.751812 
L 657.64388 383.645519 
L 657.936907 386.994407 
L 658.464354 396.565879 
L 658.991802 405.234925 
L 659.226223 406.777819 
L 659.284828 406.822702 
L 659.402039 406.42914 
L 659.577855 404.520621 
L 659.812276 399.223496 
L 660.163908 384.989583 
L 660.63275 354.691772 
L 661.570435 273.190005 
L 662.215094 227.121848 
L 662.625331 211.968245 
L 662.859752 209.333097 
L 662.918357 209.359268 
L 663.035568 210.206006 
L 663.269989 214.891388 
L 663.621621 228.357602 
L 664.207674 262.276104 
L 665.672806 350.662929 
L 666.317465 375.237676 
L 666.786307 385.822682 
L 667.137939 389.514669 
L 667.313755 389.97273 
L 667.430965 389.770293 
L 667.606781 388.737389 
L 667.899808 385.148695 
L 668.310045 376.846026 
L 670.126809 334.584091 
L 670.478441 332.078094 
L 670.712862 331.642936 
L 670.830073 331.716664 
L 671.064494 332.288927 
L 671.943574 335.121254 
L 672.119389 335.081419 
L 672.295205 334.704211 
L 672.588232 333.281252 
L 672.998469 329.822563 
L 674.22918 318.247201 
L 674.463601 317.769827 
L 674.580812 317.919038 
L 674.756628 318.623047 
L 674.991049 320.535662 
L 675.342681 325.4696 
L 675.870129 336.693575 
L 677.452472 373.785358 
L 677.862709 378.191781 
L 678.09713 379.210144 
L 678.214341 379.311634 
L 678.331551 379.142227 
L 678.507367 378.425762 
L 678.800394 376.004473 
L 679.210631 370.523343 
L 679.9725 356.658598 
L 681.027395 338.205584 
L 681.672054 330.367104 
L 682.316712 324.993203 
L 683.019975 320.940234 
L 683.664634 318.26892 
L 684.83674 314.177376 
L 685.188372 311.706864 
L 685.540003 307.675291 
L 686.008846 299.168907 
L 686.770715 279.713847 
L 687.298162 268.794065 
L 687.532584 266.883555 
L 687.591189 266.813965 
L 687.7084 267.213446 
L 687.884215 269.259941 
L 688.118637 274.748079 
L 688.118637 274.748079 
" clip-path="url(#p2521dbd023)" style="fill: none; stroke: #ff0000; stroke-width: 1.5; stroke-linecap: square"/>
   </g>
   <g id="patch_3">
    <path d="M 102.065625 640.3905 
L 102.065625 39.1875 
" style="fill: none; stroke: #000000; stroke-width: 0.8; stroke-linejoin: miter; stroke-linecap: square"/>
   </g>
   <g id="patch_4">
    <path d="M 688.099102 640.3905 
L 688.099102 39.1875 
" style="fill: none; stroke: #000000; stroke-width: 0.8; stroke-linejoin: miter; stroke-linecap: square"/>
   </g>
   <g id="patch_5">
    <path d="M 102.065625 640.3905 
L 688.099102 640.3905 
" style="fill: none; stroke: #000000; stroke-width: 0.8; stroke-linejoin: miter; stroke-linecap: square"/>
   </g>
   <g id="patch_6">
    <path d="M 102.065625 39.1875 
L 688.099102 39.1875 
" style="fill: none; stroke: #000000; stroke-width: 0.8; stroke-linejoin: miter; stroke-linecap: square"/>
   </g>
  </g>
 </g>
 <defs>
  <clipPath id="p2521dbd023">
   <rect x="102.065625" y="39.1875" width="586.033477" height="601.203"/>
  </clipPath>
 </defs>
</svg>
