<?xml version="1.0" encoding="utf-8" standalone="no"?>
<!DOCTYPE svg PUBLIC "-//W3C//DTD SVG 1.1//EN"
  "http://www.w3.org/Graphics/SVG/1.1/DTD/svg11.dtd">
<svg xmlns:xlink="http://www.w3.org/1999/xlink" width="710.741988pt" height="711.02175pt" viewBox="0 0 710.741988 711.02175" xmlns="http://www.w3.org/2000/svg" version="1.1">
 <metadata>
  <rdf:RDF xmlns:dc="http://purl.org/dc/elements/1.1/" xmlns:cc="http://creativecommons.org/ns#" xmlns:rdf="http://www.w3.org/1999/02/22-rdf-syntax-ns#">
   <cc:Work>
    <dc:type rdf:resource="http://purl.org/dc/dcmitype/StillImage"/>
    <dc:date>2025-02-05T18:27:56.285662</dc:date>
    <dc:format>image/svg+xml</dc:format>
    <dc:creator>
     <cc:Agent>
      <dc:title>Matplotlib v3.9.3, https://matplotlib.org/</dc:title>
     </cc:Agent>
    </dc:creator>
   </cc:Work>
  </rdf:RDF>
 </metadata>
 <defs>
  <style type="text/css">*{stroke-linejoin: round; stroke-linecap: butt}</style>
 </defs>
 <g id="figure_1">
  <g id="patch_1">
   <path d="M 0 711.02175 
L 710.741988 711.02175 
L 710.741988 0 
L 0 0 
z
" style="fill: #ffffff"/>
  </g>
  <g id="axes_1">
   <g id="patch_2">
    <path d="M 79.5 640.3905 
L 703.541988 640.3905 
L 703.541988 39.1875 
L 79.5 39.1875 
z
" style="fill: #ffffff"/>
   </g>
   <g id="matplotlib.axis_1">
    <g id="xtick_1">
     <g id="line2d_1">
      <defs>
       <path id="m6b412bebd8" d="M 0 0 
L 0 -3.5 
" style="stroke: #000000; stroke-width: 0.8"/>
      </defs>
      <g>
       <use xlink:href="#m6b412bebd8" x="107.808808" y="640.3905" style="stroke: #000000; stroke-width: 0.8"/>
      </g>
     </g>
     <g id="text_1">
      <!-- 0 -->
      <g transform="translate(99.467402 665.631125) scale(0.3 -0.3)">
       <defs>
        <path id="LiberationSans-30" d="M 3309 2203 
Q 3309 1100 2920 518 
Q 2531 -63 1772 -63 
Q 1013 -63 631 515 
Q 250 1094 250 2203 
Q 250 3338 620 3903 
Q 991 4469 1791 4469 
Q 2569 4469 2939 3897 
Q 3309 3325 3309 2203 
z
M 2738 2203 
Q 2738 3156 2517 3584 
Q 2297 4013 1791 4013 
Q 1272 4013 1045 3591 
Q 819 3169 819 2203 
Q 819 1266 1048 831 
Q 1278 397 1778 397 
Q 2275 397 2506 840 
Q 2738 1284 2738 2203 
z
" transform="scale(0.015625)"/>
       </defs>
       <use xlink:href="#LiberationSans-30"/>
      </g>
     </g>
    </g>
    <g id="xtick_2">
     <g id="line2d_2">
      <g>
       <use xlink:href="#m6b412bebd8" x="221.282335" y="640.3905" style="stroke: #000000; stroke-width: 0.8"/>
      </g>
     </g>
     <g id="text_2">
      <!-- 2 -->
      <g transform="translate(212.940929 665.631125) scale(0.3 -0.3)">
       <defs>
        <path id="LiberationSans-32" d="M 322 0 
L 322 397 
Q 481 763 711 1042 
Q 941 1322 1194 1548 
Q 1447 1775 1695 1969 
Q 1944 2163 2144 2356 
Q 2344 2550 2467 2762 
Q 2591 2975 2591 3244 
Q 2591 3606 2378 3806 
Q 2166 4006 1788 4006 
Q 1428 4006 1195 3811 
Q 963 3616 922 3263 
L 347 3316 
Q 409 3844 795 4156 
Q 1181 4469 1788 4469 
Q 2453 4469 2811 4155 
Q 3169 3841 3169 3263 
Q 3169 3006 3051 2753 
Q 2934 2500 2703 2247 
Q 2472 1994 1819 1463 
Q 1459 1169 1246 933 
Q 1034 697 941 478 
L 3238 478 
L 3238 0 
L 322 0 
z
" transform="scale(0.015625)"/>
       </defs>
       <use xlink:href="#LiberationSans-32"/>
      </g>
     </g>
    </g>
    <g id="xtick_3">
     <g id="line2d_3">
      <g>
       <use xlink:href="#m6b412bebd8" x="334.755862" y="640.3905" style="stroke: #000000; stroke-width: 0.8"/>
      </g>
     </g>
     <g id="text_3">
      <!-- 4 -->
      <g transform="translate(326.414456 665.631125) scale(0.3 -0.3)">
       <defs>
        <path id="LiberationSans-34" d="M 2753 997 
L 2753 0 
L 2222 0 
L 2222 997 
L 147 997 
L 147 1434 
L 2163 4403 
L 2753 4403 
L 2753 1441 
L 3372 1441 
L 3372 997 
L 2753 997 
z
M 2222 3769 
Q 2216 3750 2134 3603 
Q 2053 3456 2013 3397 
L 884 1734 
L 716 1503 
L 666 1441 
L 2222 1441 
L 2222 3769 
z
" transform="scale(0.015625)"/>
       </defs>
       <use xlink:href="#LiberationSans-34"/>
      </g>
     </g>
    </g>
    <g id="xtick_4">
     <g id="line2d_4">
      <g>
       <use xlink:href="#m6b412bebd8" x="448.229389" y="640.3905" style="stroke: #000000; stroke-width: 0.8"/>
      </g>
     </g>
     <g id="text_4">
      <!-- 6 -->
      <g transform="translate(439.887983 665.631125) scale(0.3 -0.3)">
       <defs>
        <path id="LiberationSans-36" d="M 3278 1441 
Q 3278 744 2900 340 
Q 2522 -63 1856 -63 
Q 1113 -63 719 490 
Q 325 1044 325 2100 
Q 325 3244 734 3856 
Q 1144 4469 1900 4469 
Q 2897 4469 3156 3572 
L 2619 3475 
Q 2453 4013 1894 4013 
Q 1413 4013 1148 3564 
Q 884 3116 884 2266 
Q 1038 2550 1316 2698 
Q 1594 2847 1953 2847 
Q 2563 2847 2920 2465 
Q 3278 2084 3278 1441 
z
M 2706 1416 
Q 2706 1894 2472 2153 
Q 2238 2413 1819 2413 
Q 1425 2413 1183 2183 
Q 941 1953 941 1550 
Q 941 1041 1192 716 
Q 1444 391 1838 391 
Q 2244 391 2475 664 
Q 2706 938 2706 1416 
z
" transform="scale(0.015625)"/>
       </defs>
       <use xlink:href="#LiberationSans-36"/>
      </g>
     </g>
    </g>
    <g id="xtick_5">
     <g id="line2d_5">
      <g>
       <use xlink:href="#m6b412bebd8" x="561.702916" y="640.3905" style="stroke: #000000; stroke-width: 0.8"/>
      </g>
     </g>
     <g id="text_5">
      <!-- 8 -->
      <g transform="translate(553.36151 665.631125) scale(0.3 -0.3)">
       <defs>
        <path id="LiberationSans-38" d="M 3281 1228 
Q 3281 619 2893 278 
Q 2506 -63 1781 -63 
Q 1075 -63 676 271 
Q 278 606 278 1222 
Q 278 1653 525 1947 
Q 772 2241 1156 2303 
L 1156 2316 
Q 797 2400 589 2681 
Q 381 2963 381 3341 
Q 381 3844 757 4156 
Q 1134 4469 1769 4469 
Q 2419 4469 2795 4162 
Q 3172 3856 3172 3334 
Q 3172 2956 2962 2675 
Q 2753 2394 2391 2322 
L 2391 2309 
Q 2813 2241 3047 1952 
Q 3281 1663 3281 1228 
z
M 2588 3303 
Q 2588 4050 1769 4050 
Q 1372 4050 1164 3862 
Q 956 3675 956 3303 
Q 956 2925 1170 2726 
Q 1384 2528 1775 2528 
Q 2172 2528 2380 2711 
Q 2588 2894 2588 3303 
z
M 2697 1281 
Q 2697 1691 2453 1898 
Q 2209 2106 1769 2106 
Q 1341 2106 1100 1882 
Q 859 1659 859 1269 
Q 859 359 1788 359 
Q 2247 359 2472 579 
Q 2697 800 2697 1281 
z
" transform="scale(0.015625)"/>
       </defs>
       <use xlink:href="#LiberationSans-38"/>
      </g>
     </g>
    </g>
    <g id="xtick_6">
     <g id="line2d_6">
      <g>
       <use xlink:href="#m6b412bebd8" x="675.176443" y="640.3905" style="stroke: #000000; stroke-width: 0.8"/>
      </g>
     </g>
     <g id="text_6">
      <!-- 10 -->
      <g transform="translate(658.493631 665.631125) scale(0.3 -0.3)">
       <defs>
        <path id="LiberationSans-31" d="M 488 0 
L 488 478 
L 1609 478 
L 1609 3866 
L 616 3156 
L 616 3688 
L 1656 4403 
L 2175 4403 
L 2175 478 
L 3247 478 
L 3247 0 
L 488 0 
z
" transform="scale(0.015625)"/>
       </defs>
       <use xlink:href="#LiberationSans-31"/>
       <use xlink:href="#LiberationSans-30" x="55.615234"/>
      </g>
     </g>
    </g>
    <g id="xtick_7">
     <g id="line2d_7">
      <defs>
       <path id="m3ec3c15f52" d="M 0 0 
L 0 -2 
" style="stroke: #000000; stroke-width: 0.6"/>
      </defs>
      <g>
       <use xlink:href="#m3ec3c15f52" x="136.17719" y="640.3905" style="stroke: #000000; stroke-width: 0.6"/>
      </g>
     </g>
    </g>
    <g id="xtick_8">
     <g id="line2d_8">
      <g>
       <use xlink:href="#m3ec3c15f52" x="164.545572" y="640.3905" style="stroke: #000000; stroke-width: 0.6"/>
      </g>
     </g>
    </g>
    <g id="xtick_9">
     <g id="line2d_9">
      <g>
       <use xlink:href="#m3ec3c15f52" x="192.913953" y="640.3905" style="stroke: #000000; stroke-width: 0.6"/>
      </g>
     </g>
    </g>
    <g id="xtick_10">
     <g id="line2d_10">
      <g>
       <use xlink:href="#m3ec3c15f52" x="249.650717" y="640.3905" style="stroke: #000000; stroke-width: 0.6"/>
      </g>
     </g>
    </g>
    <g id="xtick_11">
     <g id="line2d_11">
      <g>
       <use xlink:href="#m3ec3c15f52" x="278.019099" y="640.3905" style="stroke: #000000; stroke-width: 0.6"/>
      </g>
     </g>
    </g>
    <g id="xtick_12">
     <g id="line2d_12">
      <g>
       <use xlink:href="#m3ec3c15f52" x="306.38748" y="640.3905" style="stroke: #000000; stroke-width: 0.6"/>
      </g>
     </g>
    </g>
    <g id="xtick_13">
     <g id="line2d_13">
      <g>
       <use xlink:href="#m3ec3c15f52" x="363.124244" y="640.3905" style="stroke: #000000; stroke-width: 0.6"/>
      </g>
     </g>
    </g>
    <g id="xtick_14">
     <g id="line2d_14">
      <g>
       <use xlink:href="#m3ec3c15f52" x="391.492626" y="640.3905" style="stroke: #000000; stroke-width: 0.6"/>
      </g>
     </g>
    </g>
    <g id="xtick_15">
     <g id="line2d_15">
      <g>
       <use xlink:href="#m3ec3c15f52" x="419.861008" y="640.3905" style="stroke: #000000; stroke-width: 0.6"/>
      </g>
     </g>
    </g>
    <g id="xtick_16">
     <g id="line2d_16">
      <g>
       <use xlink:href="#m3ec3c15f52" x="476.597771" y="640.3905" style="stroke: #000000; stroke-width: 0.6"/>
      </g>
     </g>
    </g>
    <g id="xtick_17">
     <g id="line2d_17">
      <g>
       <use xlink:href="#m3ec3c15f52" x="504.966153" y="640.3905" style="stroke: #000000; stroke-width: 0.6"/>
      </g>
     </g>
    </g>
    <g id="xtick_18">
     <g id="line2d_18">
      <g>
       <use xlink:href="#m3ec3c15f52" x="533.334535" y="640.3905" style="stroke: #000000; stroke-width: 0.6"/>
      </g>
     </g>
    </g>
    <g id="xtick_19">
     <g id="line2d_19">
      <g>
       <use xlink:href="#m3ec3c15f52" x="590.071298" y="640.3905" style="stroke: #000000; stroke-width: 0.6"/>
      </g>
     </g>
    </g>
    <g id="xtick_20">
     <g id="line2d_20">
      <g>
       <use xlink:href="#m3ec3c15f52" x="618.43968" y="640.3905" style="stroke: #000000; stroke-width: 0.6"/>
      </g>
     </g>
    </g>
    <g id="xtick_21">
     <g id="line2d_21">
      <g>
       <use xlink:href="#m3ec3c15f52" x="646.808062" y="640.3905" style="stroke: #000000; stroke-width: 0.6"/>
      </g>
     </g>
    </g>
    <g id="text_7">
     <!-- Time ps -->
     <g transform="translate(338.744432 697.59675) scale(0.3 -0.3)">
      <defs>
       <path id="LiberationSans-54" d="M 2250 3916 
L 2250 0 
L 1656 0 
L 1656 3916 
L 144 3916 
L 144 4403 
L 3763 4403 
L 3763 3916 
L 2250 3916 
z
" transform="scale(0.015625)"/>
       <path id="LiberationSans-69" d="M 428 4100 
L 428 4638 
L 991 4638 
L 991 4100 
L 428 4100 
z
M 428 0 
L 428 3381 
L 991 3381 
L 991 0 
L 428 0 
z
" transform="scale(0.015625)"/>
       <path id="LiberationSans-6d" d="M 2400 0 
L 2400 2144 
Q 2400 2634 2265 2821 
Q 2131 3009 1781 3009 
Q 1422 3009 1212 2734 
Q 1003 2459 1003 1959 
L 1003 0 
L 444 0 
L 444 2659 
Q 444 3250 425 3381 
L 956 3381 
Q 959 3366 962 3297 
Q 966 3228 970 3139 
Q 975 3050 981 2803 
L 991 2803 
Q 1172 3163 1406 3303 
Q 1641 3444 1978 3444 
Q 2363 3444 2586 3291 
Q 2809 3138 2897 2803 
L 2906 2803 
Q 3081 3144 3329 3294 
Q 3578 3444 3931 3444 
Q 4444 3444 4676 3166 
Q 4909 2888 4909 2253 
L 4909 0 
L 4353 0 
L 4353 2144 
Q 4353 2634 4218 2821 
Q 4084 3009 3734 3009 
Q 3366 3009 3161 2736 
Q 2956 2463 2956 1959 
L 2956 0 
L 2400 0 
z
" transform="scale(0.015625)"/>
       <path id="LiberationSans-65" d="M 863 1572 
Q 863 991 1103 675 
Q 1344 359 1806 359 
Q 2172 359 2392 506 
Q 2613 653 2691 878 
L 3184 738 
Q 2881 -63 1806 -63 
Q 1056 -63 664 384 
Q 272 831 272 1713 
Q 272 2550 664 2997 
Q 1056 3444 1784 3444 
Q 3275 3444 3275 1647 
L 3275 1572 
L 863 1572 
z
M 2694 2003 
Q 2647 2538 2422 2783 
Q 2197 3028 1775 3028 
Q 1366 3028 1127 2754 
Q 888 2481 869 2003 
L 2694 2003 
z
" transform="scale(0.015625)"/>
       <path id="LiberationSans-20" transform="scale(0.015625)"/>
       <path id="LiberationSans-70" d="M 3291 1706 
Q 3291 -63 2047 -63 
Q 1266 -63 997 525 
L 981 525 
Q 994 500 994 -6 
L 994 -1328 
L 431 -1328 
L 431 2691 
Q 431 3213 413 3381 
L 956 3381 
Q 959 3369 965 3292 
Q 972 3216 980 3056 
Q 988 2897 988 2838 
L 1000 2838 
Q 1150 3150 1397 3295 
Q 1644 3441 2047 3441 
Q 2672 3441 2981 3022 
Q 3291 2603 3291 1706 
z
M 2700 1694 
Q 2700 2400 2509 2703 
Q 2319 3006 1903 3006 
Q 1569 3006 1380 2865 
Q 1191 2725 1092 2426 
Q 994 2128 994 1650 
Q 994 984 1206 668 
Q 1419 353 1897 353 
Q 2316 353 2508 661 
Q 2700 969 2700 1694 
z
" transform="scale(0.015625)"/>
       <path id="LiberationSans-73" d="M 2969 934 
Q 2969 456 2608 196 
Q 2247 -63 1597 -63 
Q 966 -63 623 145 
Q 281 353 178 794 
L 675 891 
Q 747 619 972 492 
Q 1197 366 1597 366 
Q 2025 366 2223 497 
Q 2422 628 2422 891 
Q 2422 1091 2284 1216 
Q 2147 1341 1841 1422 
L 1438 1528 
Q 953 1653 748 1773 
Q 544 1894 428 2066 
Q 313 2238 313 2488 
Q 313 2950 642 3192 
Q 972 3434 1603 3434 
Q 2163 3434 2492 3237 
Q 2822 3041 2909 2606 
L 2403 2544 
Q 2356 2769 2151 2889 
Q 1947 3009 1603 3009 
Q 1222 3009 1040 2893 
Q 859 2778 859 2544 
Q 859 2400 934 2306 
Q 1009 2213 1156 2147 
Q 1303 2081 1775 1966 
Q 2222 1853 2419 1758 
Q 2616 1663 2730 1547 
Q 2844 1431 2906 1279 
Q 2969 1128 2969 934 
z
" transform="scale(0.015625)"/>
      </defs>
      <use xlink:href="#LiberationSans-54"/>
      <use xlink:href="#LiberationSans-69" x="57.333984"/>
      <use xlink:href="#LiberationSans-6d" x="79.550781"/>
      <use xlink:href="#LiberationSans-65" x="162.851562"/>
      <use xlink:href="#LiberationSans-20" x="218.466797"/>
      <use xlink:href="#LiberationSans-70" x="246.25"/>
      <use xlink:href="#LiberationSans-73" x="301.865234"/>
     </g>
    </g>
   </g>
   <g id="matplotlib.axis_2">
    <g id="ytick_1">
     <g id="line2d_22">
      <defs>
       <path id="m50657ef80e" d="M 0 0 
L 3.5 0 
" style="stroke: #000000; stroke-width: 0.8"/>
      </defs>
      <g>
       <use xlink:href="#m50657ef80e" x="79.5" y="572.189141" style="stroke: #000000; stroke-width: 0.8"/>
      </g>
     </g>
     <g id="text_8">
      <!-- $\mathdefault{−2}$ -->
      <g transform="translate(41.5 583.059453) scale(0.3 -0.3)">
       <defs>
        <path id="LiberationSans-2212" d="M 316 1900 
L 316 2356 
L 3425 2356 
L 3425 1900 
L 316 1900 
z
" transform="scale(0.015625)"/>
       </defs>
       <use xlink:href="#LiberationSans-2212" transform="translate(0 0.171875)"/>
       <use xlink:href="#LiberationSans-32" transform="translate(58.398438 0.171875)"/>
      </g>
     </g>
    </g>
    <g id="ytick_2">
     <g id="line2d_23">
      <g>
       <use xlink:href="#m50657ef80e" x="79.5" y="478.085025" style="stroke: #000000; stroke-width: 0.8"/>
      </g>
     </g>
     <g id="text_9">
      <!-- $\mathdefault{0}$ -->
      <g transform="translate(59.2 488.955338) scale(0.3 -0.3)">
       <use xlink:href="#LiberationSans-30" transform="translate(0 0.171875)"/>
      </g>
     </g>
    </g>
    <g id="ytick_3">
     <g id="line2d_24">
      <g>
       <use xlink:href="#m50657ef80e" x="79.5" y="383.980909" style="stroke: #000000; stroke-width: 0.8"/>
      </g>
     </g>
     <g id="text_10">
      <!-- $\mathdefault{2}$ -->
      <g transform="translate(59.2 394.851222) scale(0.3 -0.3)">
       <use xlink:href="#LiberationSans-32" transform="translate(0 0.171875)"/>
      </g>
     </g>
    </g>
    <g id="ytick_4">
     <g id="line2d_25">
      <g>
       <use xlink:href="#m50657ef80e" x="79.5" y="289.876794" style="stroke: #000000; stroke-width: 0.8"/>
      </g>
     </g>
     <g id="text_11">
      <!-- $\mathdefault{4}$ -->
      <g transform="translate(59.2 300.747106) scale(0.3 -0.3)">
       <use xlink:href="#LiberationSans-34" transform="translate(0 0.203125)"/>
      </g>
     </g>
    </g>
    <g id="ytick_5">
     <g id="line2d_26">
      <g>
       <use xlink:href="#m50657ef80e" x="79.5" y="195.772678" style="stroke: #000000; stroke-width: 0.8"/>
      </g>
     </g>
     <g id="text_12">
      <!-- $\mathdefault{6}$ -->
      <g transform="translate(59.2 206.64299) scale(0.3 -0.3)">
       <use xlink:href="#LiberationSans-36" transform="translate(0 0.171875)"/>
      </g>
     </g>
    </g>
    <g id="ytick_6">
     <g id="line2d_27">
      <g>
       <use xlink:href="#m50657ef80e" x="79.5" y="101.668562" style="stroke: #000000; stroke-width: 0.8"/>
      </g>
     </g>
     <g id="text_13">
      <!-- $\mathdefault{8}$ -->
      <g transform="translate(59.2 112.538875) scale(0.3 -0.3)">
       <use xlink:href="#LiberationSans-38" transform="translate(0 0.171875)"/>
      </g>
     </g>
    </g>
    <g id="ytick_7">
     <g id="line2d_28">
      <defs>
       <path id="ma4d8eb3938" d="M 0 0 
L 2 0 
" style="stroke: #000000; stroke-width: 0.6"/>
      </defs>
      <g>
       <use xlink:href="#ma4d8eb3938" x="79.5" y="619.241199" style="stroke: #000000; stroke-width: 0.6"/>
      </g>
     </g>
    </g>
    <g id="ytick_8">
     <g id="line2d_29">
      <g>
       <use xlink:href="#ma4d8eb3938" x="79.5" y="595.71517" style="stroke: #000000; stroke-width: 0.6"/>
      </g>
     </g>
    </g>
    <g id="ytick_9">
     <g id="line2d_30">
      <g>
       <use xlink:href="#ma4d8eb3938" x="79.5" y="548.663112" style="stroke: #000000; stroke-width: 0.6"/>
      </g>
     </g>
    </g>
    <g id="ytick_10">
     <g id="line2d_31">
      <g>
       <use xlink:href="#ma4d8eb3938" x="79.5" y="525.137083" style="stroke: #000000; stroke-width: 0.6"/>
      </g>
     </g>
    </g>
    <g id="ytick_11">
     <g id="line2d_32">
      <g>
       <use xlink:href="#ma4d8eb3938" x="79.5" y="501.611054" style="stroke: #000000; stroke-width: 0.6"/>
      </g>
     </g>
    </g>
    <g id="ytick_12">
     <g id="line2d_33">
      <g>
       <use xlink:href="#ma4d8eb3938" x="79.5" y="454.558996" style="stroke: #000000; stroke-width: 0.6"/>
      </g>
     </g>
    </g>
    <g id="ytick_13">
     <g id="line2d_34">
      <g>
       <use xlink:href="#ma4d8eb3938" x="79.5" y="431.032967" style="stroke: #000000; stroke-width: 0.6"/>
      </g>
     </g>
    </g>
    <g id="ytick_14">
     <g id="line2d_35">
      <g>
       <use xlink:href="#ma4d8eb3938" x="79.5" y="407.506938" style="stroke: #000000; stroke-width: 0.6"/>
      </g>
     </g>
    </g>
    <g id="ytick_15">
     <g id="line2d_36">
      <g>
       <use xlink:href="#ma4d8eb3938" x="79.5" y="360.45488" style="stroke: #000000; stroke-width: 0.6"/>
      </g>
     </g>
    </g>
    <g id="ytick_16">
     <g id="line2d_37">
      <g>
       <use xlink:href="#ma4d8eb3938" x="79.5" y="336.928852" style="stroke: #000000; stroke-width: 0.6"/>
      </g>
     </g>
    </g>
    <g id="ytick_17">
     <g id="line2d_38">
      <g>
       <use xlink:href="#ma4d8eb3938" x="79.5" y="313.402823" style="stroke: #000000; stroke-width: 0.6"/>
      </g>
     </g>
    </g>
    <g id="ytick_18">
     <g id="line2d_39">
      <g>
       <use xlink:href="#ma4d8eb3938" x="79.5" y="266.350765" style="stroke: #000000; stroke-width: 0.6"/>
      </g>
     </g>
    </g>
    <g id="ytick_19">
     <g id="line2d_40">
      <g>
       <use xlink:href="#ma4d8eb3938" x="79.5" y="242.824736" style="stroke: #000000; stroke-width: 0.6"/>
      </g>
     </g>
    </g>
    <g id="ytick_20">
     <g id="line2d_41">
      <g>
       <use xlink:href="#ma4d8eb3938" x="79.5" y="219.298707" style="stroke: #000000; stroke-width: 0.6"/>
      </g>
     </g>
    </g>
    <g id="ytick_21">
     <g id="line2d_42">
      <g>
       <use xlink:href="#ma4d8eb3938" x="79.5" y="172.246649" style="stroke: #000000; stroke-width: 0.6"/>
      </g>
     </g>
    </g>
    <g id="ytick_22">
     <g id="line2d_43">
      <g>
       <use xlink:href="#ma4d8eb3938" x="79.5" y="148.72062" style="stroke: #000000; stroke-width: 0.6"/>
      </g>
     </g>
    </g>
    <g id="ytick_23">
     <g id="line2d_44">
      <g>
       <use xlink:href="#ma4d8eb3938" x="79.5" y="125.194591" style="stroke: #000000; stroke-width: 0.6"/>
      </g>
     </g>
    </g>
    <g id="ytick_24">
     <g id="line2d_45">
      <g>
       <use xlink:href="#ma4d8eb3938" x="79.5" y="78.142533" style="stroke: #000000; stroke-width: 0.6"/>
      </g>
     </g>
    </g>
    <g id="ytick_25">
     <g id="line2d_46">
      <g>
       <use xlink:href="#ma4d8eb3938" x="79.5" y="54.616504" style="stroke: #000000; stroke-width: 0.6"/>
      </g>
     </g>
    </g>
    <g id="text_14">
     <!-- ACF $(\mathrm{W} / \mathrm{m}^2)^2$ -->
     <g transform="translate(31.275 426.339) rotate(-90) scale(0.3 -0.3)">
      <defs>
       <path id="LiberationSans-41" d="M 3647 0 
L 3144 1288 
L 1138 1288 
L 631 0 
L 13 0 
L 1809 4403 
L 2488 4403 
L 4256 0 
L 3647 0 
z
M 2141 3953 
L 2113 3866 
Q 2034 3606 1881 3200 
L 1319 1753 
L 2966 1753 
L 2400 3206 
Q 2313 3422 2225 3694 
L 2141 3953 
z
" transform="scale(0.015625)"/>
       <path id="LiberationSans-43" d="M 2475 3981 
Q 1744 3981 1337 3511 
Q 931 3041 931 2222 
Q 931 1413 1354 920 
Q 1778 428 2500 428 
Q 3425 428 3891 1344 
L 4378 1100 
Q 4106 531 3614 234 
Q 3122 -63 2472 -63 
Q 1806 -63 1320 214 
Q 834 491 579 1005 
Q 325 1519 325 2222 
Q 325 3275 894 3872 
Q 1463 4469 2469 4469 
Q 3172 4469 3644 4194 
Q 4116 3919 4338 3378 
L 3772 3191 
Q 3619 3575 3280 3778 
Q 2941 3981 2475 3981 
z
" transform="scale(0.015625)"/>
       <path id="LiberationSans-46" d="M 1122 3916 
L 1122 2278 
L 3578 2278 
L 3578 1784 
L 1122 1784 
L 1122 0 
L 525 0 
L 525 4403 
L 3653 4403 
L 3653 3916 
L 1122 3916 
z
" transform="scale(0.015625)"/>
       <path id="STIXGeneral-Regular-28" d="M 1946 -1030 
L 1869 -1133 
Q 1126 -710 716 32 
Q 307 774 307 1613 
Q 307 3386 1888 4326 
L 1946 4224 
Q 1293 3667 1075 3126 
Q 858 2586 858 1632 
Q 858 685 1082 96 
Q 1306 -493 1946 -1030 
z
" transform="scale(0.015625)"/>
       <path id="STIXGeneral-Regular-57" d="M 5965 4237 
L 5965 4115 
Q 5709 4064 5616 3990 
Q 5523 3917 5434 3667 
Q 4704 1709 4128 -70 
L 4032 -70 
Q 3642 1011 3008 2637 
L 2022 -70 
L 1926 -70 
Q 1709 576 1277 1753 
Q 845 2931 698 3347 
Q 538 3808 406 3958 
Q 275 4109 32 4115 
L 32 4237 
L 1594 4237 
L 1594 4115 
Q 1357 4109 1270 4064 
Q 1184 4019 1184 3917 
Q 1184 3808 1254 3616 
L 2176 1210 
L 2842 3021 
L 2662 3501 
Q 2509 3917 2400 4013 
Q 2291 4109 2010 4115 
L 2010 4237 
L 3706 4237 
L 3706 4115 
Q 3213 4102 3213 3891 
Q 3213 3808 3322 3520 
L 4237 1190 
L 5043 3360 
Q 5152 3667 5152 3853 
Q 5152 4109 4704 4115 
L 4704 4237 
L 5965 4237 
z
" transform="scale(0.015625)"/>
       <path id="STIXGeneral-Regular-2f" d="M 1837 4326 
L 378 -90 
L -58 -90 
L 1408 4326 
L 1837 4326 
z
" transform="scale(0.015625)"/>
       <path id="STIXGeneral-Regular-6d" d="M 4960 0 
L 3565 0 
L 3565 96 
Q 3834 122 3907 208 
Q 3981 294 3981 576 
L 3981 1894 
Q 3981 2278 3869 2444 
Q 3757 2611 3488 2611 
Q 3264 2611 3107 2521 
Q 2950 2432 2803 2221 
L 2803 608 
Q 2803 301 2896 201 
Q 2989 102 3264 96 
L 3264 0 
L 1830 0 
L 1830 96 
Q 2112 115 2189 188 
Q 2266 262 2266 550 
L 2266 1901 
Q 2266 2611 1850 2611 
Q 1670 2611 1468 2531 
Q 1267 2451 1171 2336 
Q 1088 2240 1088 2227 
L 1088 448 
Q 1088 243 1177 176 
Q 1267 109 1523 96 
L 1523 0 
L 102 0 
L 102 96 
Q 371 102 460 195 
Q 550 288 550 563 
L 550 2150 
Q 550 2387 499 2480 
Q 448 2573 326 2573 
Q 230 2573 122 2547 
L 122 2656 
Q 557 2778 1011 2944 
L 1062 2925 
L 1062 2451 
L 1075 2451 
Q 1363 2752 1584 2848 
Q 1805 2944 2054 2944 
Q 2560 2944 2733 2406 
Q 3232 2944 3776 2944 
Q 4518 2944 4518 1792 
L 4518 493 
Q 4518 282 4582 202 
Q 4646 122 4794 109 
L 4960 96 
L 4960 0 
z
" transform="scale(0.015625)"/>
       <path id="STIXGeneral-Regular-32" d="M 3034 877 
L 2688 0 
L 186 0 
L 186 77 
L 1325 1286 
Q 1773 1754 1965 2144 
Q 2157 2534 2157 2950 
Q 2157 3379 1920 3616 
Q 1683 3853 1267 3853 
Q 922 3853 720 3673 
Q 518 3494 326 3021 
L 192 3053 
Q 301 3648 630 3987 
Q 960 4326 1523 4326 
Q 2054 4326 2380 4006 
Q 2707 3686 2707 3200 
Q 2707 2477 1888 1613 
L 832 486 
L 2330 486 
Q 2541 486 2665 569 
Q 2790 653 2944 915 
L 3034 877 
z
" transform="scale(0.015625)"/>
       <path id="STIXGeneral-Regular-29" d="M 186 4224 
L 262 4326 
Q 992 3891 1408 3148 
Q 1824 2406 1824 1581 
Q 1824 -166 243 -1133 
L 186 -1030 
Q 845 -486 1059 54 
Q 1274 595 1274 1562 
Q 1274 2534 1059 3120 
Q 845 3706 186 4224 
z
" transform="scale(0.015625)"/>
      </defs>
      <use xlink:href="#LiberationSans-41" transform="translate(0 0.409375)"/>
      <use xlink:href="#LiberationSans-43" transform="translate(66.699219 0.409375)"/>
      <use xlink:href="#LiberationSans-46" transform="translate(138.916016 0.409375)"/>
      <use xlink:href="#LiberationSans-20" transform="translate(200 0.409375)"/>
      <use xlink:href="#STIXGeneral-Regular-28" transform="translate(227.783203 0.409375)"/>
      <use xlink:href="#STIXGeneral-Regular-57" transform="translate(261.083191 0.409375)"/>
      <use xlink:href="#STIXGeneral-Regular-2f" transform="translate(355.483185 0.409375)"/>
      <use xlink:href="#STIXGeneral-Regular-6d" transform="translate(383.283173 0.409375)"/>
      <use xlink:href="#STIXGeneral-Regular-32" transform="translate(462.626442 35.684375) scale(0.7)"/>
      <use xlink:href="#STIXGeneral-Regular-29" transform="translate(502.035806 0.409375)"/>
      <use xlink:href="#STIXGeneral-Regular-32" transform="translate(536.879075 35.684375) scale(0.7)"/>
     </g>
    </g>
    <g id="text_15">
     <!-- $\times\mathdefault{10^{18}}\mathdefault{}$ -->
     <g transform="translate(79.5 36.1875) scale(0.4 -0.4)">
      <defs>
       <path id="STIXGeneral-Regular-d7" d="M 3821 141 
L 3526 -160 
L 2048 1312 
L 570 -160 
L 275 134 
L 1747 1613 
L 275 3091 
L 576 3386 
L 2048 1914 
L 3526 3386 
L 3821 3098 
L 2349 1613 
L 3821 141 
z
" transform="scale(0.015625)"/>
      </defs>
      <use xlink:href="#STIXGeneral-Regular-d7" transform="translate(0 0.140625)"/>
      <use xlink:href="#LiberationSans-31" transform="translate(63.999985 0.140625)"/>
      <use xlink:href="#LiberationSans-30" transform="translate(119.615219 0.140625)"/>
      <use xlink:href="#LiberationSans-31" transform="translate(176.154946 37.120312) scale(0.7)"/>
      <use xlink:href="#LiberationSans-38" transform="translate(215.08561 37.120312) scale(0.7)"/>
     </g>
    </g>
   </g>
   <g id="line2d_47">
    <path d="M 107.865545 68.806562 
L 107.979018 69.610073 
L 108.149229 73.811615 
L 108.432913 88.590671 
L 108.83007 124.30798 
L 109.397438 199.546874 
L 111.780382 547.859716 
L 112.347749 588.37938 
L 112.801643 606.036186 
L 113.142064 611.975541 
L 113.369011 613.063091 
L 113.482485 612.874402 
L 113.652695 611.796741 
L 113.936379 608.227995 
L 114.390273 599.231875 
L 115.411534 572.943726 
L 117.056901 532.242084 
L 119.383108 480.4677 
L 120.234159 466.148342 
L 120.858264 459.108786 
L 121.312158 456.081025 
L 121.652578 454.95387 
L 121.879526 454.715184 
L 122.049736 454.786829 
L 122.276683 455.190915 
L 122.617103 456.384352 
L 123.127734 459.230358 
L 123.922049 465.192818 
L 125.737625 479.114636 
L 126.588677 483.792985 
L 127.269518 486.406203 
L 127.836886 487.834969 
L 128.347517 488.5784 
L 128.744674 488.831298 
L 129.141831 488.826657 
L 129.538989 488.591265 
L 130.049619 487.993363 
L 130.673724 486.884674 
L 131.468039 484.985742 
L 132.375827 482.234968 
L 133.397089 478.388882 
L 134.702034 472.473273 
L 135.893506 467.358325 
L 136.460874 465.76024 
L 136.858031 465.196049 
L 137.141715 465.12766 
L 137.368662 465.289873 
L 137.652346 465.772256 
L 138.049503 466.964803 
L 138.560134 469.309016 
L 139.354449 474.253926 
L 140.829605 483.582749 
L 141.396972 485.879196 
L 141.850866 486.954702 
L 142.191287 487.330315 
L 142.474971 487.394095 
L 142.815391 487.225574 
L 143.269285 486.708463 
L 145.028125 484.402806 
L 145.99265 483.793119 
L 146.560018 483.28673 
L 147.013912 482.579586 
L 147.524543 481.3282 
L 148.148647 479.092965 
L 149.113172 474.58418 
L 150.134434 470.120377 
L 150.645065 468.712739 
L 151.042222 468.175098 
L 151.325906 468.112329 
L 151.60959 468.314064 
L 151.95001 468.881882 
L 152.403904 470.110152 
L 153.141482 472.867481 
L 154.786848 479.16767 
L 155.524426 481.101285 
L 156.262004 482.437006 
L 156.999582 483.334464 
L 157.680423 483.852067 
L 158.247791 484.025157 
L 158.701685 483.943485 
L 159.155579 483.621797 
L 159.66621 482.9395 
L 160.290314 481.65035 
L 161.141366 479.290632 
L 162.616522 475.159662 
L 163.297363 473.924559 
L 163.807994 473.401806 
L 164.261888 473.213784 
L 164.715782 473.246104 
L 165.28315 473.520376 
L 166.077464 474.186114 
L 167.041989 475.296285 
L 167.893041 476.609683 
L 168.800829 478.453754 
L 170.843352 482.818738 
L 171.353983 483.339602 
L 171.751141 483.45996 
L 172.148298 483.321713 
L 172.602192 482.870356 
L 173.226296 481.854109 
L 175.325557 478.064626 
L 176.006398 477.436326 
L 176.800713 477.04079 
L 178.502816 476.289767 
L 179.921235 475.582632 
L 180.488602 475.577131 
L 180.999233 475.806737 
L 181.566601 476.32731 
L 182.360915 477.398184 
L 183.722598 479.241352 
L 184.346702 479.732169 
L 184.91407 479.924247 
L 185.594911 479.906718 
L 189.339537 479.186499 
L 189.963642 478.696735 
L 190.814693 477.711319 
L 192.006165 476.364994 
L 192.573533 476.068738 
L 193.027427 476.079806 
L 193.481321 476.313833 
L 194.105425 476.928934 
L 195.921002 478.946937 
L 196.48837 479.171831 
L 197.055737 479.147319 
L 197.906789 478.830724 
L 198.871314 478.515661 
L 199.552155 478.53139 
L 200.403206 478.806288 
L 201.424468 479.111742 
L 201.991836 479.064319 
L 202.559203 478.794447 
L 203.296781 478.160427 
L 204.771937 476.810926 
L 205.339305 476.611328 
L 205.849936 476.663412 
L 206.417303 476.952137 
L 207.438565 477.789087 
L 208.346353 478.401432 
L 208.970458 478.561774 
L 209.594562 478.493391 
L 210.559087 478.119561 
L 211.637085 477.764473 
L 212.4314 477.749803 
L 213.509399 477.99432 
L 214.871081 478.260543 
L 217.367499 478.564837 
L 218.445497 479.107321 
L 219.636969 479.656106 
L 220.31781 479.724982 
L 220.998651 479.570156 
L 222.303597 478.962067 
L 223.154648 478.70548 
L 223.948963 478.707424 
L 225.821276 478.86339 
L 226.445381 478.622684 
L 227.182959 478.083356 
L 229.112009 476.502732 
L 229.679376 476.36759 
L 230.246744 476.465094 
L 230.870848 476.807044 
L 232.005584 477.754477 
L 233.140319 478.596366 
L 234.104844 479.023989 
L 236.657998 479.977419 
L 237.84947 480.448459 
L 238.473575 480.468945 
L 239.040942 480.264293 
L 239.665047 479.77049 
L 240.459361 478.799969 
L 242.445148 476.194748 
L 243.069252 475.790448 
L 243.63662 475.689108 
L 244.203988 475.827117 
L 244.884829 476.245411 
L 245.962827 477.224684 
L 247.608193 478.68714 
L 248.459245 479.145601 
L 249.140086 479.28379 
L 249.820927 479.200175 
L 250.615242 478.857966 
L 252.771239 477.76183 
L 253.45208 477.765788 
L 254.189658 478.02114 
L 256.175445 478.882986 
L 256.799549 478.820678 
L 257.48039 478.496314 
L 258.615126 477.626303 
L 259.522914 477.064421 
L 260.147018 476.93518 
L 260.714386 477.035006 
L 261.451964 477.418927 
L 263.607961 478.71796 
L 264.515749 478.894718 
L 266.217852 479.180165 
L 267.352587 479.683524 
L 268.373849 480.06285 
L 268.997953 480.063556 
L 269.565321 479.846787 
L 270.246162 479.325473 
L 272.799316 477.032201 
L 273.423421 476.92792 
L 274.104262 477.057636 
L 276.827627 477.879061 
L 278.019099 477.754874 
L 279.267308 477.696307 
L 280.231832 477.892831 
L 283.692775 478.871741 
L 285.167931 478.822771 
L 287.210454 478.533455 
L 293.905393 477.234183 
L 295.096865 477.211587 
L 296.06139 477.423652 
L 297.082651 477.885134 
L 300.146436 479.455055 
L 300.997488 479.547782 
L 301.848539 479.423511 
L 302.869801 479.037325 
L 304.28822 478.230083 
L 306.841375 476.729505 
L 307.749163 476.485879 
L 308.486741 476.507269 
L 309.224319 476.749038 
L 310.07537 477.280502 
L 311.380316 478.410548 
L 312.741998 479.50255 
L 313.593049 479.918313 
L 314.387364 480.074074 
L 315.295152 480.011625 
L 316.373151 479.693476 
L 317.62136 479.078572 
L 319.209989 478.014867 
L 320.685145 477.102971 
L 321.592933 476.794009 
L 322.443985 476.730618 
L 323.40851 476.882657 
L 324.826929 477.359848 
L 327.947451 478.470661 
L 329.138923 478.601603 
L 330.500605 478.502815 
L 335.32323 477.746831 
L 337.195543 477.394963 
L 338.160068 477.466801 
L 339.124593 477.770117 
L 341.961431 478.839277 
L 342.925956 478.843424 
L 344.514586 478.566739 
L 346.273425 478.359856 
L 348.713106 478.097107 
L 350.869103 477.815823 
L 351.890365 477.941403 
L 352.911627 478.297778 
L 355.691728 479.419138 
L 356.486043 479.401174 
L 357.280357 479.159449 
L 358.415093 478.54377 
L 360.173932 477.589925 
L 361.251931 477.281484 
L 362.556876 477.159527 
L 364.145506 477.228199 
L 365.223504 477.477343 
L 366.244766 477.939556 
L 368.968131 479.345783 
L 369.705709 479.389552 
L 370.500023 479.212468 
L 371.918442 478.604826 
L 373.109914 478.210933 
L 374.24465 478.089163 
L 376.51412 477.919475 
L 378.159486 477.444955 
L 379.350958 477.204957 
L 380.315483 477.233092 
L 381.733902 477.539158 
L 383.436005 477.842557 
L 386.102633 478.216979 
L 388.769261 478.859573 
L 389.563576 478.740899 
L 390.471364 478.36866 
L 392.854308 477.250436 
L 393.648623 477.194929 
L 394.499674 477.370307 
L 395.861357 477.93206 
L 397.109565 478.345303 
L 398.017354 478.407186 
L 399.095352 478.231184 
L 400.797455 477.926965 
L 401.59177 478.026727 
L 402.442821 478.361568 
L 404.655555 479.363949 
L 405.336396 479.352685 
L 406.073974 479.105068 
L 407.265446 478.406728 
L 408.400181 477.837362 
L 409.194496 477.691845 
L 409.988811 477.784979 
L 411.010072 478.15262 
L 412.768912 478.807103 
L 413.6767 478.894819 
L 414.697962 478.760982 
L 419.46385 477.610691 
L 420.428375 476.95374 
L 422.357425 475.563546 
L 422.98153 475.418765 
L 423.548897 475.508055 
L 424.173002 475.849593 
L 424.967316 476.578117 
L 427.690681 479.354551 
L 428.541732 479.804741 
L 429.449521 480.025494 
L 430.414046 480.023504 
L 431.548781 479.787406 
L 432.9672 479.246932 
L 435.747301 477.871814 
L 437.392667 477.206362 
L 438.470666 477.002989 
L 439.435191 477.049403 
L 440.456453 477.335512 
L 441.818135 477.977462 
L 443.974132 478.996417 
L 444.938657 479.19886 
L 445.789708 479.161703 
L 446.697497 478.896338 
L 447.888969 478.293039 
L 450.044966 477.174338 
L 451.066227 476.909162 
L 452.030752 476.885444 
L 452.995277 477.089834 
L 454.073276 477.55919 
L 456.62643 478.799214 
L 457.477482 478.888035 
L 458.38527 478.74053 
L 461.562529 477.966169 
L 462.810738 478.098259 
L 464.626314 478.281747 
L 466.214943 478.16631 
L 467.746836 478.123797 
L 468.768098 478.322326 
L 470.073043 478.830255 
L 471.377989 479.275001 
L 472.115567 479.299416 
L 472.796408 479.10807 
L 473.590723 478.639389 
L 476.200614 476.857936 
L 476.938192 476.751831 
L 477.789243 476.880785 
L 481.817553 477.854089 
L 483.462919 478.245647 
L 485.56218 478.765662 
L 486.696915 478.788708 
L 488.115334 478.572531 
L 490.328068 478.234425 
L 491.576277 478.296651 
L 494.923746 478.664051 
L 495.831534 478.374945 
L 497.136479 477.676833 
L 498.441425 477.046521 
L 499.292476 476.868959 
L 500.143528 476.913715 
L 501.335 477.233111 
L 504.115101 478.04022 
L 506.668256 478.519183 
L 508.029938 478.530883 
L 510.639829 478.47108 
L 512.9093 478.59076 
L 513.930561 478.359693 
L 516.483716 477.658152 
L 517.845398 477.658821 
L 519.150344 477.585849 
L 520.171605 477.295563 
L 522.384339 476.564905 
L 523.121917 476.610541 
L 523.859495 476.889864 
L 524.767283 477.506575 
L 527.036754 479.182952 
L 527.887805 479.454004 
L 528.795593 479.500486 
L 530.497696 479.300818 
L 533.050851 478.845856 
L 536.795477 477.945382 
L 539.632315 477.749832 
L 541.107471 477.859365 
L 543.830836 478.157281 
L 545.135781 477.996373 
L 549.504512 477.255148 
L 550.469037 477.415464 
L 551.433562 477.819178 
L 554.043453 479.095432 
L 554.781031 479.094937 
L 555.575346 478.846887 
L 558.298711 477.727392 
L 559.093025 477.792076 
L 560.171024 478.135958 
L 561.532706 478.53702 
L 562.440494 478.557065 
L 563.57523 478.324422 
L 565.050385 478.05002 
L 566.01491 478.12062 
L 567.490066 478.510991 
L 568.681538 478.725801 
L 569.7028 478.675851 
L 571.518376 478.286002 
L 572.993532 478.098104 
L 575.31974 477.864002 
L 576.681422 477.420213 
L 577.929631 477.074595 
L 578.723945 477.081108 
L 579.51826 477.31549 
L 580.652995 477.924955 
L 582.184888 478.720073 
L 583.149413 478.954994 
L 584.113938 478.947469 
L 585.248673 478.693435 
L 588.9933 477.627614 
L 589.901088 477.764444 
L 591.206033 478.228935 
L 592.624452 478.68015 
L 593.588977 478.758815 
L 594.780449 478.609339 
L 597.957708 478.101629 
L 599.319391 477.781389 
L 601.759071 477.094308 
L 602.553386 477.173579 
L 603.461174 477.500449 
L 605.957592 478.541323 
L 606.86538 478.607554 
L 607.943379 478.449236 
L 611.631268 477.686118 
L 615.773052 477.651339 
L 616.85105 477.849379 
L 617.985786 478.307612 
L 619.744625 479.036419 
L 620.595677 479.130124 
L 621.446728 478.999224 
L 622.694937 478.543238 
L 624.510514 477.902991 
L 625.872196 477.692565 
L 630.694821 477.409497 
L 632.169977 477.520027 
L 636.765654 478.107746 
L 638.013863 477.988724 
L 639.205335 477.635614 
L 641.134385 477.020245 
L 641.871963 477.060052 
L 642.552804 477.318665 
L 643.403856 477.907061 
L 645.559853 479.557051 
L 646.240694 479.755793 
L 646.921535 479.730277 
L 647.71585 479.467925 
L 649.077532 478.730601 
L 651.176792 477.644566 
L 652.992369 476.948256 
L 654.183841 476.716978 
L 655.148366 476.755111 
L 656.169628 477.029744 
L 657.985204 477.823749 
L 659.46036 478.339549 
L 661.332673 478.713032 
L 663.204986 478.91607 
L 664.226248 478.813194 
L 665.24751 478.488251 
L 668.594979 477.210511 
L 669.502767 477.229428 
L 670.524029 477.483508 
L 671.828974 478.059693 
L 674.325392 479.222681 
L 675.176443 479.329424 
L 675.176443 479.329424 
" clip-path="url(#p5178cacba4)" style="fill: none; stroke: #ff0000; stroke-width: 1.5; stroke-linecap: square"/>
   </g>
   <g id="line2d_48">
    <path d="M 107.865545 66.514909 
L 108.65986 116.701132 
L 109.227227 189.403932 
L 111.723645 546.478938 
L 112.234276 581.468861 
L 112.68817 598.578365 
L 113.02859 603.976666 
L 113.198801 604.676123 
L 113.312274 604.476597 
L 113.482485 603.336102 
L 113.766168 599.531784 
L 114.276799 588.745897 
L 117.340584 516.010756 
L 119.439845 476.870233 
L 120.234159 465.69284 
L 120.858264 459.797555 
L 121.312158 457.257111 
L 121.652578 456.335239 
L 121.879526 456.142944 
L 122.049736 456.21952 
L 122.390156 456.901489 
L 122.787314 458.464902 
L 123.297945 461.445885 
L 124.26247 468.837487 
L 125.510678 478.007666 
L 126.248256 481.739806 
L 126.815624 483.473278 
L 127.269518 484.199424 
L 127.780149 484.597484 
L 128.744674 484.478958 
L 131.524775 482.73309 
L 132.4893 481.993944 
L 133.453825 481.284367 
L 134.07793 480.854828 
L 135.099191 480.530983 
L 137.93603 480.284212 
L 138.843818 479.561384 
L 139.354449 479.157056 
L 139.86508 478.803736 
L 141.680656 477.262188 
L 143.042338 476.993852 
L 143.496232 477.063343 
L 144.0636 477.282193 
L 144.687704 477.782306 
L 146.219597 479.457987 
L 146.786965 479.793649 
L 147.297596 479.794751 
L 147.581279 479.6562 
L 148.262121 479.036224 
L 148.829488 478.317375 
L 150.304644 476.395839 
L 150.872012 475.962377 
L 151.269169 475.928399 
L 151.7798 476.175046 
L 152.290431 476.574683 
L 153.084745 477.392211 
L 154.04927 478.897714 
L 155.297479 481.014437 
L 156.375478 482.348143 
L 156.942845 482.613759 
L 157.56695 482.501056 
L 158.361264 481.942357 
L 159.382526 480.880065 
L 161.59526 478.412525 
L 162.446311 477.429388 
L 163.410836 476.225241 
L 164.091678 475.482702 
L 164.602308 475.146197 
L 165.850517 475.461613 
L 166.758305 476.030284 
L 170.389458 478.733619 
L 171.353983 479.008233 
L 172.261772 479.03044 
L 173.963874 478.81531 
L 175.43903 478.388142 
L 177.141133 477.881207 
L 178.332605 477.825396 
L 179.353867 477.9449 
L 180.658813 478.105679 
L 181.850285 477.951408 
L 183.609124 477.61604 
L 184.687123 477.610023 
L 185.935332 477.892484 
L 187.637434 478.305581 
L 188.601959 478.295649 
L 189.679958 478.06243 
L 191.779218 477.621058 
L 193.1409 477.676667 
L 194.72953 477.957076 
L 195.864265 478.368588 
L 198.076999 479.161877 
L 199.552155 479.485647 
L 200.573417 479.540852 
L 201.537941 479.401622 
L 202.502466 479.065053 
L 203.807412 478.324703 
L 205.963409 477.05764 
L 206.757724 476.809184 
L 207.495302 476.806235 
L 208.176143 477.003938 
L 209.027194 477.474 
L 210.615824 478.724805 
L 211.353402 479.154654 
L 211.977506 479.308831 
L 212.658347 479.25167 
L 213.509399 478.90909 
L 214.757607 478.111788 
L 215.892343 477.467747 
L 217.083815 477.070514 
L 221.282335 476.130197 
L 221.566019 476.210679 
L 222.303597 476.614385 
L 223.438332 477.504086 
L 224.913488 478.572526 
L 225.651066 478.860161 
L 226.388644 478.900289 
L 227.069485 478.739815 
L 229.679376 477.938042 
L 230.473691 478.077858 
L 232.799898 478.742909 
L 233.82116 478.716242 
L 234.672211 478.488979 
L 236.884945 477.708033 
L 237.565786 477.726561 
L 238.360101 477.972768 
L 239.267889 478.480656 
L 240.799782 479.41335 
L 241.480623 479.548685 
L 242.104727 479.442133 
L 242.728832 479.12725 
L 243.750094 478.310364 
L 244.884829 477.463739 
L 245.73588 477.086558 
L 246.643668 476.95445 
L 247.49472 477.082367 
L 248.799666 477.574168 
L 249.934401 477.937174 
L 255.21092 478.780978 
L 256.572602 478.598032 
L 258.274705 478.273192 
L 260.430702 478.261573 
L 261.735648 478.204431 
L 262.700173 477.940423 
L 265.3668 477.091484 
L 266.274589 477.134734 
L 267.012167 477.406169 
L 269.451847 478.47908 
L 270.359636 478.579324 
L 271.664581 478.483741 
L 273.139737 478.392261 
L 274.387946 478.202893 
L 275.182261 477.868562 
L 276.090049 477.248235 
L 278.075835 475.799042 
L 279.210571 476.104574 
L 280.288569 476.818984 
L 282.444566 478.322305 
L 283.409091 478.698875 
L 284.48709 478.869315 
L 285.678562 478.86231 
L 288.004769 478.505161 
L 291.522448 477.609875 
L 292.71392 477.692868 
L 294.756444 478.161044 
L 297.196125 478.729196 
L 298.217387 478.693133 
L 299.919489 478.311904 
L 302.642854 477.558359 
L 304.344957 477.399086 
L 305.252745 477.526909 
L 309.791686 478.529831 
L 310.869685 478.419285 
L 312.117894 478.323615 
L 313.366102 478.462898 
L 315.011469 478.666099 
L 316.03273 478.580214 
L 319.436936 477.939094 
L 320.287988 478.076495 
L 322.217038 478.463017 
L 323.40851 478.408629 
L 324.599982 478.138123 
L 326.812715 477.650191 
L 327.77724 477.694871 
L 329.195659 478.035399 
L 331.011236 478.537916 
L 331.862287 478.521738 
L 332.656602 478.279082 
L 333.450917 477.780616 
L 335.266493 476.541055 
L 336.117545 476.444398 
L 337.08207 476.581122 
L 338.727436 477.094463 
L 340.656486 477.618774 
L 342.188378 478.00498 
L 345.3089 478.990277 
L 346.046478 478.902528 
L 346.954266 478.583479 
L 349.507421 477.690626 
L 350.75563 477.803173 
L 352.344259 477.95139 
L 354.386782 477.873335 
L 355.521518 477.912257 
L 356.599516 478.146771 
L 359.776775 479.050059 
L 360.798037 478.920906 
L 361.989509 478.556385 
L 364.712873 477.820308 
L 365.847609 477.838177 
L 367.152554 477.819244 
L 369.195078 477.790019 
L 370.102866 478.090672 
L 371.351075 478.752492 
L 372.3156 479.180838 
L 373.053178 479.244281 
L 373.677282 479.102172 
L 374.58507 478.669672 
L 376.51412 477.729602 
L 377.308435 477.63389 
L 378.10275 477.773604 
L 379.691379 478.259278 
L 381.053061 478.556151 
L 382.187797 478.520565 
L 384.854424 478.244669 
L 386.783474 477.999305 
L 387.634526 477.656998 
L 389.052945 476.776581 
L 390.130943 476.22304 
L 390.868521 476.057094 
L 391.492626 476.135346 
L 391.719573 476.256223 
L 394.102517 477.654072 
L 395.010305 477.785681 
L 397.109565 477.951678 
L 398.754931 478.389201 
L 399.776193 478.567822 
L 400.683981 478.538287 
L 401.648506 478.314863 
L 402.669768 477.925515 
L 404.144924 477.381324 
L 405.052712 477.303252 
L 405.847027 477.42498 
L 406.527868 477.695679 
L 407.435656 478.228074 
L 408.740602 478.926865 
L 409.534917 479.103876 
L 410.272494 479.044406 
L 411.010072 478.769293 
L 413.449753 477.639866 
L 414.300805 477.581145 
L 415.322066 477.764555 
L 416.967433 478.067559 
L 418.045431 478.035662 
L 421.449637 477.813351 
L 423.038266 477.927954 
L 424.626896 477.970164 
L 426.215525 477.816744 
L 428.087838 477.726356 
L 429.336047 477.997946 
L 432.570043 479.002738 
L 433.648041 478.916912 
L 437.562878 478.383907 
L 440.399716 478.464403 
L 443.520238 479.009376 
L 444.314553 478.716534 
L 445.108867 478.155227 
L 446.413813 476.860211 
L 447.832232 475.441596 
L 448.3996 475.156198 
L 448.91023 475.170708 
L 449.534335 475.421349 
L 450.385386 476.012479 
L 453.278961 478.299602 
L 454.243486 478.608415 
L 455.661905 478.729177 
L 458.328533 478.736414 
L 459.917163 478.368463 
L 461.732739 477.949978 
L 462.924211 477.901242 
L 468.881571 478.526978 
L 471.434726 479.236122 
L 472.05883 479.104257 
L 472.796408 478.734425 
L 475.519773 477.109101 
L 476.25735 477.109409 
L 477.562296 477.470194 
L 480.739555 478.433171 
L 484.540918 478.822499 
L 485.618916 478.990248 
L 486.753652 478.884436 
L 488.001861 478.539483 
L 489.93091 477.907281 
L 490.952172 477.760652 
L 492.086907 477.84762 
L 493.675537 478.206348 
L 495.207429 478.509874 
L 497.193216 478.526928 
L 499.008793 478.365068 
L 499.973318 478.110016 
L 500.881106 477.637661 
L 501.959104 476.795394 
L 503.774681 475.381495 
L 504.455522 475.140661 
L 505.02289 475.172555 
L 506.384572 476.397967 
L 507.916465 477.990273 
L 508.767516 478.565069 
L 509.618567 478.842009 
L 510.583092 478.887679 
L 511.888038 478.664211 
L 514.441192 478.096793 
L 516.710663 477.894872 
L 518.015608 477.90356 
L 519.887922 478.194786 
L 521.192867 478.632455 
L 522.270866 478.887668 
L 523.235391 478.929026 
L 524.597073 478.725284 
L 526.072229 478.56342 
L 528.228226 478.450118 
L 531.632432 477.955219 
L 532.653693 478.10162 
L 536.852214 478.8957 
L 538.043686 478.772923 
L 539.405368 478.602064 
L 540.880524 478.666879 
L 542.35568 478.617623 
L 543.433678 478.256352 
L 546.497464 477.020295 
L 547.348515 477.099043 
L 548.14283 477.443285 
L 549.277565 478.251577 
L 550.979668 479.423411 
L 551.660509 479.611097 
L 552.34135 479.581206 
L 553.192402 479.28372 
L 554.497347 478.581019 
L 556.085977 477.766104 
L 557.504396 477.4073 
L 559.263235 476.968142 
L 561.873127 476.076789 
L 562.497231 476.35613 
L 563.518493 477.129735 
L 564.709965 478.000104 
L 565.504279 478.349403 
L 566.298594 478.462843 
L 567.149646 478.344221 
L 570.780798 477.51223 
L 573.050269 477.545385 
L 574.355215 477.684067 
L 576.567948 478.223171 
L 579.631734 479.269831 
L 580.539522 479.242142 
L 581.44731 479.001231 
L 583.433097 478.449931 
L 584.340885 478.408106 
L 587.06425 478.441017 
L 587.858564 478.12193 
L 590.298245 476.977767 
L 591.149297 476.852469 
L 591.830138 476.964005 
L 592.624452 477.352902 
L 595.007397 478.722385 
L 596.028658 478.895659 
L 597.22013 478.927912 
L 599.489601 478.828567 
L 600.454126 478.539154 
L 602.099492 477.784151 
L 603.064017 477.44032 
L 603.858332 477.404288 
L 604.539173 477.583512 
L 607.886642 478.889353 
L 608.737693 478.871986 
L 609.758955 478.665968 
L 611.744742 478.370978 
L 614.695053 477.976605 
L 615.489368 477.488315 
L 616.567367 476.514852 
L 618.099259 475.183373 
L 618.553153 475.041043 
L 619.007047 475.120366 
L 619.574415 475.426052 
L 620.595677 476.279047 
L 622.29778 477.743029 
L 623.205568 478.185409 
L 624.22683 478.402278 
L 628.822508 478.861092 
L 629.843769 478.553406 
L 631.489135 478.023344 
L 632.510397 477.99586 
L 633.418185 478.224455 
L 635.063552 478.777643 
L 635.914603 478.777765 
L 636.652181 478.564166 
L 639.602493 477.506302 
L 640.510281 477.587131 
L 643.914487 478.231889 
L 646.978272 478.507545 
L 650.893109 479.187705 
L 651.857634 478.979805 
L 653.276053 478.371012 
L 654.637735 477.796234 
L 655.43205 477.655646 
L 656.736995 477.717958 
L 658.552572 477.833479 
L 659.687307 477.70107 
L 661.105726 477.51179 
L 662.183725 477.64536 
L 663.091513 477.99635 
L 664.282985 478.763719 
L 665.58793 479.53131 
L 666.382245 479.709305 
L 667.063086 479.613039 
L 667.857401 479.212102 
L 668.651716 478.54194 
L 670.467292 476.899139 
L 671.148133 476.584995 
L 671.828974 476.503245 
L 672.736763 476.683021 
L 675.119707 477.313457 
L 675.176443 477.325726 
L 675.176443 477.325726 
" clip-path="url(#p5178cacba4)" style="fill: none; stroke: #0000ff; stroke-width: 1.5; stroke-linecap: square"/>
   </g>
   <g id="patch_3">
    <path d="M 79.5 640.3905 
L 79.5 39.1875 
" style="fill: none; stroke: #000000; stroke-width: 0.8; stroke-linejoin: miter; stroke-linecap: square"/>
   </g>
   <g id="patch_4">
    <path d="M 703.541988 640.3905 
L 703.541988 39.1875 
" style="fill: none; stroke: #000000; stroke-width: 0.8; stroke-linejoin: miter; stroke-linecap: square"/>
   </g>
   <g id="patch_5">
    <path d="M 79.5 640.3905 
L 703.541988 640.3905 
" style="fill: none; stroke: #000000; stroke-width: 0.8; stroke-linejoin: miter; stroke-linecap: square"/>
   </g>
   <g id="patch_6">
    <path d="M 79.5 39.1875 
L 703.541988 39.1875 
" style="fill: none; stroke: #000000; stroke-width: 0.8; stroke-linejoin: miter; stroke-linecap: square"/>
   </g>
   <g id="legend_1">
    <g id="patch_7">
     <path d="M 506.531051 149.11875 
L 682.541988 149.11875 
Q 688.541988 149.11875 688.541988 143.11875 
L 688.541988 60.1875 
Q 688.541988 54.1875 682.541988 54.1875 
L 506.531051 54.1875 
Q 500.531051 54.1875 500.531051 60.1875 
L 500.531051 143.11875 
Q 500.531051 149.11875 506.531051 149.11875 
z
" style="fill: #ffffff; opacity: 0.8; stroke: #cccccc; stroke-linejoin: miter"/>
    </g>
    <g id="line2d_49">
     <path d="M 512.531051 77.428125 
L 542.531051 77.428125 
L 572.531051 77.428125 
" style="fill: none; stroke: #ff0000; stroke-width: 1.5; stroke-linecap: square"/>
    </g>
    <g id="text_16">
     <!-- MD -->
     <g transform="translate(596.531051 87.928125) scale(0.3 -0.3)">
      <defs>
       <path id="LiberationSans-4d" d="M 4269 0 
L 4269 2938 
Q 4269 3425 4297 3875 
Q 4144 3316 4022 3000 
L 2884 0 
L 2466 0 
L 1313 3000 
L 1138 3531 
L 1034 3875 
L 1044 3528 
L 1056 2938 
L 1056 0 
L 525 0 
L 525 4403 
L 1309 4403 
L 2481 1350 
Q 2544 1166 2601 955 
Q 2659 744 2678 650 
Q 2703 775 2783 1029 
Q 2863 1284 2891 1350 
L 4041 4403 
L 4806 4403 
L 4806 0 
L 4269 0 
z
" transform="scale(0.015625)"/>
       <path id="LiberationSans-44" d="M 4316 2247 
Q 4316 1566 4050 1055 
Q 3784 544 3296 272 
Q 2809 0 2172 0 
L 525 0 
L 525 4403 
L 1981 4403 
Q 3100 4403 3708 3842 
Q 4316 3281 4316 2247 
z
M 3716 2247 
Q 3716 3066 3267 3495 
Q 2819 3925 1969 3925 
L 1122 3925 
L 1122 478 
L 2103 478 
Q 2588 478 2955 690 
Q 3322 903 3519 1303 
Q 3716 1703 3716 2247 
z
" transform="scale(0.015625)"/>
      </defs>
      <use xlink:href="#LiberationSans-4d"/>
      <use xlink:href="#LiberationSans-44" x="83.300781"/>
     </g>
    </g>
    <g id="line2d_50">
     <path d="M 512.531051 120.39375 
L 542.531051 120.39375 
L 572.531051 120.39375 
" style="fill: none; stroke: #0000ff; stroke-width: 1.5; stroke-linecap: square"/>
    </g>
    <g id="text_17">
     <!-- GANs -->
     <g transform="translate(596.531051 130.89375) scale(0.3 -0.3)">
      <defs>
       <path id="LiberationSans-47" d="M 322 2222 
Q 322 3294 897 3881 
Q 1472 4469 2513 4469 
Q 3244 4469 3700 4222 
Q 4156 3975 4403 3431 
L 3834 3263 
Q 3647 3638 3317 3809 
Q 2988 3981 2497 3981 
Q 1734 3981 1331 3520 
Q 928 3059 928 2222 
Q 928 1388 1356 905 
Q 1784 422 2541 422 
Q 2972 422 3345 553 
Q 3719 684 3950 909 
L 3950 1703 
L 2634 1703 
L 2634 2203 
L 4500 2203 
L 4500 684 
Q 4150 328 3642 132 
Q 3134 -63 2541 -63 
Q 1850 -63 1350 212 
Q 850 488 586 1005 
Q 322 1522 322 2222 
z
" transform="scale(0.015625)"/>
       <path id="LiberationSans-4e" d="M 3381 0 
L 1025 3750 
L 1041 3447 
L 1056 2925 
L 1056 0 
L 525 0 
L 525 4403 
L 1219 4403 
L 3600 628 
Q 3563 1241 3563 1516 
L 3563 4403 
L 4100 4403 
L 4100 0 
L 3381 0 
z
" transform="scale(0.015625)"/>
      </defs>
      <use xlink:href="#LiberationSans-47"/>
      <use xlink:href="#LiberationSans-41" x="77.783203"/>
      <use xlink:href="#LiberationSans-4e" x="144.482422"/>
      <use xlink:href="#LiberationSans-73" x="216.699219"/>
     </g>
    </g>
   </g>
  </g>
 </g>
 <defs>
  <clipPath id="p5178cacba4">
   <rect x="79.5" y="39.1875" width="624.041988" height="601.203"/>
  </clipPath>
 </defs>
</svg>
