<?xml version="1.0" encoding="utf-8" standalone="no"?>
<!DOCTYPE svg PUBLIC "-//W3C//DTD SVG 1.1//EN"
  "http://www.w3.org/Graphics/SVG/1.1/DTD/svg11.dtd">
<svg xmlns:xlink="http://www.w3.org/1999/xlink" width="710.479488pt" height="710.94975pt" viewBox="0 0 710.479488 710.94975" xmlns="http://www.w3.org/2000/svg" version="1.1">
 <metadata>
  <rdf:RDF xmlns:dc="http://purl.org/dc/elements/1.1/" xmlns:cc="http://creativecommons.org/ns#" xmlns:rdf="http://www.w3.org/1999/02/22-rdf-syntax-ns#">
   <cc:Work>
    <dc:type rdf:resource="http://purl.org/dc/dcmitype/StillImage"/>
    <dc:date>2025-02-05T18:27:56.698967</dc:date>
    <dc:format>image/svg+xml</dc:format>
    <dc:creator>
     <cc:Agent>
      <dc:title>Matplotlib v3.9.3, https://matplotlib.org/</dc:title>
     </cc:Agent>
    </dc:creator>
   </cc:Work>
  </rdf:RDF>
 </metadata>
 <defs>
  <style type="text/css">*{stroke-linejoin: round; stroke-linecap: butt}</style>
 </defs>
 <g id="figure_1">
  <g id="patch_1">
   <path d="M 0 710.94975 
L 710.479488 710.94975 
L 710.479488 0 
L 0 0 
z
" style="fill: #ffffff"/>
  </g>
  <g id="axes_1">
   <g id="patch_2">
    <path d="M 87 640.3185 
L 703.279488 640.3185 
L 703.279488 39.1875 
L 87 39.1875 
z
" style="fill: #ffffff"/>
   </g>
   <g id="matplotlib.axis_1">
    <g id="xtick_1">
     <g id="line2d_1">
      <defs>
       <path id="m559cddbf89" d="M 0 0 
L 0 -3.5 
" style="stroke: #000000; stroke-width: 0.8"/>
      </defs>
      <g>
       <use xlink:href="#m559cddbf89" x="114.90062" y="640.3185" style="stroke: #000000; stroke-width: 0.8"/>
      </g>
     </g>
     <g id="text_1">
      <!-- 0 -->
      <g transform="translate(106.559213 665.559125) scale(0.3 -0.3)">
       <defs>
        <path id="LiberationSans-30" d="M 3309 2203 
Q 3309 1100 2920 518 
Q 2531 -63 1772 -63 
Q 1013 -63 631 515 
Q 250 1094 250 2203 
Q 250 3338 620 3903 
Q 991 4469 1791 4469 
Q 2569 4469 2939 3897 
Q 3309 3325 3309 2203 
z
M 2738 2203 
Q 2738 3156 2517 3584 
Q 2297 4013 1791 4013 
Q 1272 4013 1045 3591 
Q 819 3169 819 2203 
Q 819 1266 1048 831 
Q 1278 397 1778 397 
Q 2275 397 2506 840 
Q 2738 1284 2738 2203 
z
" transform="scale(0.015625)"/>
       </defs>
       <use xlink:href="#LiberationSans-30"/>
      </g>
     </g>
    </g>
    <g id="xtick_2">
     <g id="line2d_2">
      <g>
       <use xlink:href="#m559cddbf89" x="226.985061" y="640.3185" style="stroke: #000000; stroke-width: 0.8"/>
      </g>
     </g>
     <g id="text_2">
      <!-- 2 -->
      <g transform="translate(218.643655 665.559125) scale(0.3 -0.3)">
       <defs>
        <path id="LiberationSans-32" d="M 322 0 
L 322 397 
Q 481 763 711 1042 
Q 941 1322 1194 1548 
Q 1447 1775 1695 1969 
Q 1944 2163 2144 2356 
Q 2344 2550 2467 2762 
Q 2591 2975 2591 3244 
Q 2591 3606 2378 3806 
Q 2166 4006 1788 4006 
Q 1428 4006 1195 3811 
Q 963 3616 922 3263 
L 347 3316 
Q 409 3844 795 4156 
Q 1181 4469 1788 4469 
Q 2453 4469 2811 4155 
Q 3169 3841 3169 3263 
Q 3169 3006 3051 2753 
Q 2934 2500 2703 2247 
Q 2472 1994 1819 1463 
Q 1459 1169 1246 933 
Q 1034 697 941 478 
L 3238 478 
L 3238 0 
L 322 0 
z
" transform="scale(0.015625)"/>
       </defs>
       <use xlink:href="#LiberationSans-32"/>
      </g>
     </g>
    </g>
    <g id="xtick_3">
     <g id="line2d_3">
      <g>
       <use xlink:href="#m559cddbf89" x="339.069502" y="640.3185" style="stroke: #000000; stroke-width: 0.8"/>
      </g>
     </g>
     <g id="text_3">
      <!-- 4 -->
      <g transform="translate(330.728096 665.559125) scale(0.3 -0.3)">
       <defs>
        <path id="LiberationSans-34" d="M 2753 997 
L 2753 0 
L 2222 0 
L 2222 997 
L 147 997 
L 147 1434 
L 2163 4403 
L 2753 4403 
L 2753 1441 
L 3372 1441 
L 3372 997 
L 2753 997 
z
M 2222 3769 
Q 2216 3750 2134 3603 
Q 2053 3456 2013 3397 
L 884 1734 
L 716 1503 
L 666 1441 
L 2222 1441 
L 2222 3769 
z
" transform="scale(0.015625)"/>
       </defs>
       <use xlink:href="#LiberationSans-34"/>
      </g>
     </g>
    </g>
    <g id="xtick_4">
     <g id="line2d_4">
      <g>
       <use xlink:href="#m559cddbf89" x="451.153944" y="640.3185" style="stroke: #000000; stroke-width: 0.8"/>
      </g>
     </g>
     <g id="text_4">
      <!-- 6 -->
      <g transform="translate(442.812537 665.559125) scale(0.3 -0.3)">
       <defs>
        <path id="LiberationSans-36" d="M 3278 1441 
Q 3278 744 2900 340 
Q 2522 -63 1856 -63 
Q 1113 -63 719 490 
Q 325 1044 325 2100 
Q 325 3244 734 3856 
Q 1144 4469 1900 4469 
Q 2897 4469 3156 3572 
L 2619 3475 
Q 2453 4013 1894 4013 
Q 1413 4013 1148 3564 
Q 884 3116 884 2266 
Q 1038 2550 1316 2698 
Q 1594 2847 1953 2847 
Q 2563 2847 2920 2465 
Q 3278 2084 3278 1441 
z
M 2706 1416 
Q 2706 1894 2472 2153 
Q 2238 2413 1819 2413 
Q 1425 2413 1183 2183 
Q 941 1953 941 1550 
Q 941 1041 1192 716 
Q 1444 391 1838 391 
Q 2244 391 2475 664 
Q 2706 938 2706 1416 
z
" transform="scale(0.015625)"/>
       </defs>
       <use xlink:href="#LiberationSans-36"/>
      </g>
     </g>
    </g>
    <g id="xtick_5">
     <g id="line2d_5">
      <g>
       <use xlink:href="#m559cddbf89" x="563.238385" y="640.3185" style="stroke: #000000; stroke-width: 0.8"/>
      </g>
     </g>
     <g id="text_5">
      <!-- 8 -->
      <g transform="translate(554.896979 665.559125) scale(0.3 -0.3)">
       <defs>
        <path id="LiberationSans-38" d="M 3281 1228 
Q 3281 619 2893 278 
Q 2506 -63 1781 -63 
Q 1075 -63 676 271 
Q 278 606 278 1222 
Q 278 1653 525 1947 
Q 772 2241 1156 2303 
L 1156 2316 
Q 797 2400 589 2681 
Q 381 2963 381 3341 
Q 381 3844 757 4156 
Q 1134 4469 1769 4469 
Q 2419 4469 2795 4162 
Q 3172 3856 3172 3334 
Q 3172 2956 2962 2675 
Q 2753 2394 2391 2322 
L 2391 2309 
Q 2813 2241 3047 1952 
Q 3281 1663 3281 1228 
z
M 2588 3303 
Q 2588 4050 1769 4050 
Q 1372 4050 1164 3862 
Q 956 3675 956 3303 
Q 956 2925 1170 2726 
Q 1384 2528 1775 2528 
Q 2172 2528 2380 2711 
Q 2588 2894 2588 3303 
z
M 2697 1281 
Q 2697 1691 2453 1898 
Q 2209 2106 1769 2106 
Q 1341 2106 1100 1882 
Q 859 1659 859 1269 
Q 859 359 1788 359 
Q 2247 359 2472 579 
Q 2697 800 2697 1281 
z
" transform="scale(0.015625)"/>
       </defs>
       <use xlink:href="#LiberationSans-38"/>
      </g>
     </g>
    </g>
    <g id="xtick_6">
     <g id="line2d_6">
      <g>
       <use xlink:href="#m559cddbf89" x="675.322826" y="640.3185" style="stroke: #000000; stroke-width: 0.8"/>
      </g>
     </g>
     <g id="text_6">
      <!-- 10 -->
      <g transform="translate(658.640014 665.559125) scale(0.3 -0.3)">
       <defs>
        <path id="LiberationSans-31" d="M 488 0 
L 488 478 
L 1609 478 
L 1609 3866 
L 616 3156 
L 616 3688 
L 1656 4403 
L 2175 4403 
L 2175 478 
L 3247 478 
L 3247 0 
L 488 0 
z
" transform="scale(0.015625)"/>
       </defs>
       <use xlink:href="#LiberationSans-31"/>
       <use xlink:href="#LiberationSans-30" x="55.615234"/>
      </g>
     </g>
    </g>
    <g id="xtick_7">
     <g id="line2d_7">
      <defs>
       <path id="mef5bd6df27" d="M 0 0 
L 0 -2 
" style="stroke: #000000; stroke-width: 0.6"/>
      </defs>
      <g>
       <use xlink:href="#mef5bd6df27" x="142.92173" y="640.3185" style="stroke: #000000; stroke-width: 0.6"/>
      </g>
     </g>
    </g>
    <g id="xtick_8">
     <g id="line2d_8">
      <g>
       <use xlink:href="#mef5bd6df27" x="170.94284" y="640.3185" style="stroke: #000000; stroke-width: 0.6"/>
      </g>
     </g>
    </g>
    <g id="xtick_9">
     <g id="line2d_9">
      <g>
       <use xlink:href="#mef5bd6df27" x="198.963951" y="640.3185" style="stroke: #000000; stroke-width: 0.6"/>
      </g>
     </g>
    </g>
    <g id="xtick_10">
     <g id="line2d_10">
      <g>
       <use xlink:href="#mef5bd6df27" x="255.006171" y="640.3185" style="stroke: #000000; stroke-width: 0.6"/>
      </g>
     </g>
    </g>
    <g id="xtick_11">
     <g id="line2d_11">
      <g>
       <use xlink:href="#mef5bd6df27" x="283.027282" y="640.3185" style="stroke: #000000; stroke-width: 0.6"/>
      </g>
     </g>
    </g>
    <g id="xtick_12">
     <g id="line2d_12">
      <g>
       <use xlink:href="#mef5bd6df27" x="311.048392" y="640.3185" style="stroke: #000000; stroke-width: 0.6"/>
      </g>
     </g>
    </g>
    <g id="xtick_13">
     <g id="line2d_13">
      <g>
       <use xlink:href="#mef5bd6df27" x="367.090613" y="640.3185" style="stroke: #000000; stroke-width: 0.6"/>
      </g>
     </g>
    </g>
    <g id="xtick_14">
     <g id="line2d_14">
      <g>
       <use xlink:href="#mef5bd6df27" x="395.111723" y="640.3185" style="stroke: #000000; stroke-width: 0.6"/>
      </g>
     </g>
    </g>
    <g id="xtick_15">
     <g id="line2d_15">
      <g>
       <use xlink:href="#mef5bd6df27" x="423.132833" y="640.3185" style="stroke: #000000; stroke-width: 0.6"/>
      </g>
     </g>
    </g>
    <g id="xtick_16">
     <g id="line2d_16">
      <g>
       <use xlink:href="#mef5bd6df27" x="479.175054" y="640.3185" style="stroke: #000000; stroke-width: 0.6"/>
      </g>
     </g>
    </g>
    <g id="xtick_17">
     <g id="line2d_17">
      <g>
       <use xlink:href="#mef5bd6df27" x="507.196164" y="640.3185" style="stroke: #000000; stroke-width: 0.6"/>
      </g>
     </g>
    </g>
    <g id="xtick_18">
     <g id="line2d_18">
      <g>
       <use xlink:href="#mef5bd6df27" x="535.217275" y="640.3185" style="stroke: #000000; stroke-width: 0.6"/>
      </g>
     </g>
    </g>
    <g id="xtick_19">
     <g id="line2d_19">
      <g>
       <use xlink:href="#mef5bd6df27" x="591.259495" y="640.3185" style="stroke: #000000; stroke-width: 0.6"/>
      </g>
     </g>
    </g>
    <g id="xtick_20">
     <g id="line2d_20">
      <g>
       <use xlink:href="#mef5bd6df27" x="619.280606" y="640.3185" style="stroke: #000000; stroke-width: 0.6"/>
      </g>
     </g>
    </g>
    <g id="xtick_21">
     <g id="line2d_21">
      <g>
       <use xlink:href="#mef5bd6df27" x="647.301716" y="640.3185" style="stroke: #000000; stroke-width: 0.6"/>
      </g>
     </g>
    </g>
    <g id="text_7">
     <!-- Time ps -->
     <g transform="translate(342.363182 697.52475) scale(0.3 -0.3)">
      <defs>
       <path id="LiberationSans-54" d="M 2250 3916 
L 2250 0 
L 1656 0 
L 1656 3916 
L 144 3916 
L 144 4403 
L 3763 4403 
L 3763 3916 
L 2250 3916 
z
" transform="scale(0.015625)"/>
       <path id="LiberationSans-69" d="M 428 4100 
L 428 4638 
L 991 4638 
L 991 4100 
L 428 4100 
z
M 428 0 
L 428 3381 
L 991 3381 
L 991 0 
L 428 0 
z
" transform="scale(0.015625)"/>
       <path id="LiberationSans-6d" d="M 2400 0 
L 2400 2144 
Q 2400 2634 2265 2821 
Q 2131 3009 1781 3009 
Q 1422 3009 1212 2734 
Q 1003 2459 1003 1959 
L 1003 0 
L 444 0 
L 444 2659 
Q 444 3250 425 3381 
L 956 3381 
Q 959 3366 962 3297 
Q 966 3228 970 3139 
Q 975 3050 981 2803 
L 991 2803 
Q 1172 3163 1406 3303 
Q 1641 3444 1978 3444 
Q 2363 3444 2586 3291 
Q 2809 3138 2897 2803 
L 2906 2803 
Q 3081 3144 3329 3294 
Q 3578 3444 3931 3444 
Q 4444 3444 4676 3166 
Q 4909 2888 4909 2253 
L 4909 0 
L 4353 0 
L 4353 2144 
Q 4353 2634 4218 2821 
Q 4084 3009 3734 3009 
Q 3366 3009 3161 2736 
Q 2956 2463 2956 1959 
L 2956 0 
L 2400 0 
z
" transform="scale(0.015625)"/>
       <path id="LiberationSans-65" d="M 863 1572 
Q 863 991 1103 675 
Q 1344 359 1806 359 
Q 2172 359 2392 506 
Q 2613 653 2691 878 
L 3184 738 
Q 2881 -63 1806 -63 
Q 1056 -63 664 384 
Q 272 831 272 1713 
Q 272 2550 664 2997 
Q 1056 3444 1784 3444 
Q 3275 3444 3275 1647 
L 3275 1572 
L 863 1572 
z
M 2694 2003 
Q 2647 2538 2422 2783 
Q 2197 3028 1775 3028 
Q 1366 3028 1127 2754 
Q 888 2481 869 2003 
L 2694 2003 
z
" transform="scale(0.015625)"/>
       <path id="LiberationSans-20" transform="scale(0.015625)"/>
       <path id="LiberationSans-70" d="M 3291 1706 
Q 3291 -63 2047 -63 
Q 1266 -63 997 525 
L 981 525 
Q 994 500 994 -6 
L 994 -1328 
L 431 -1328 
L 431 2691 
Q 431 3213 413 3381 
L 956 3381 
Q 959 3369 965 3292 
Q 972 3216 980 3056 
Q 988 2897 988 2838 
L 1000 2838 
Q 1150 3150 1397 3295 
Q 1644 3441 2047 3441 
Q 2672 3441 2981 3022 
Q 3291 2603 3291 1706 
z
M 2700 1694 
Q 2700 2400 2509 2703 
Q 2319 3006 1903 3006 
Q 1569 3006 1380 2865 
Q 1191 2725 1092 2426 
Q 994 2128 994 1650 
Q 994 984 1206 668 
Q 1419 353 1897 353 
Q 2316 353 2508 661 
Q 2700 969 2700 1694 
z
" transform="scale(0.015625)"/>
       <path id="LiberationSans-73" d="M 2969 934 
Q 2969 456 2608 196 
Q 2247 -63 1597 -63 
Q 966 -63 623 145 
Q 281 353 178 794 
L 675 891 
Q 747 619 972 492 
Q 1197 366 1597 366 
Q 2025 366 2223 497 
Q 2422 628 2422 891 
Q 2422 1091 2284 1216 
Q 2147 1341 1841 1422 
L 1438 1528 
Q 953 1653 748 1773 
Q 544 1894 428 2066 
Q 313 2238 313 2488 
Q 313 2950 642 3192 
Q 972 3434 1603 3434 
Q 2163 3434 2492 3237 
Q 2822 3041 2909 2606 
L 2403 2544 
Q 2356 2769 2151 2889 
Q 1947 3009 1603 3009 
Q 1222 3009 1040 2893 
Q 859 2778 859 2544 
Q 859 2400 934 2306 
Q 1009 2213 1156 2147 
Q 1303 2081 1775 1966 
Q 2222 1853 2419 1758 
Q 2616 1663 2730 1547 
Q 2844 1431 2906 1279 
Q 2969 1128 2969 934 
z
" transform="scale(0.015625)"/>
      </defs>
      <use xlink:href="#LiberationSans-54"/>
      <use xlink:href="#LiberationSans-69" x="57.333984"/>
      <use xlink:href="#LiberationSans-6d" x="79.550781"/>
      <use xlink:href="#LiberationSans-65" x="162.851562"/>
      <use xlink:href="#LiberationSans-20" x="218.466797"/>
      <use xlink:href="#LiberationSans-70" x="246.25"/>
      <use xlink:href="#LiberationSans-73" x="301.865234"/>
     </g>
    </g>
   </g>
   <g id="matplotlib.axis_2">
    <g id="ytick_1">
     <g id="line2d_22">
      <defs>
       <path id="md823ef5bcb" d="M 0 0 
L 3.5 0 
" style="stroke: #000000; stroke-width: 0.8"/>
      </defs>
      <g>
       <use xlink:href="#md823ef5bcb" x="87" y="629.40933" style="stroke: #000000; stroke-width: 0.8"/>
      </g>
     </g>
     <g id="text_8">
      <!-- $\mathdefault{0.0}$ -->
      <g transform="translate(41.5 640.279643) scale(0.3 -0.3)">
       <defs>
        <path id="LiberationSans-2e" d="M 584 0 
L 584 684 
L 1194 684 
L 1194 0 
L 584 0 
z
" transform="scale(0.015625)"/>
       </defs>
       <use xlink:href="#LiberationSans-30" transform="translate(0 0.171875)"/>
       <use xlink:href="#LiberationSans-2e" transform="translate(55.615234 0.171875)"/>
       <use xlink:href="#LiberationSans-30" transform="translate(83.398438 0.171875)"/>
      </g>
     </g>
    </g>
    <g id="ytick_2">
     <g id="line2d_23">
      <g>
       <use xlink:href="#md823ef5bcb" x="87" y="544.609897" style="stroke: #000000; stroke-width: 0.8"/>
      </g>
     </g>
     <g id="text_9">
      <!-- $\mathdefault{0.5}$ -->
      <g transform="translate(41.5 555.48021) scale(0.3 -0.3)">
       <defs>
        <path id="LiberationSans-35" d="M 3291 1434 
Q 3291 738 2877 337 
Q 2463 -63 1728 -63 
Q 1113 -63 734 206 
Q 356 475 256 984 
L 825 1050 
Q 1003 397 1741 397 
Q 2194 397 2450 670 
Q 2706 944 2706 1422 
Q 2706 1838 2448 2094 
Q 2191 2350 1753 2350 
Q 1525 2350 1328 2278 
Q 1131 2206 934 2034 
L 384 2034 
L 531 4403 
L 3034 4403 
L 3034 3925 
L 1044 3925 
L 959 2528 
Q 1325 2809 1869 2809 
Q 2519 2809 2905 2428 
Q 3291 2047 3291 1434 
z
" transform="scale(0.015625)"/>
       </defs>
       <use xlink:href="#LiberationSans-30" transform="translate(0 0.171875)"/>
       <use xlink:href="#LiberationSans-2e" transform="translate(55.615234 0.171875)"/>
       <use xlink:href="#LiberationSans-35" transform="translate(83.398438 0.171875)"/>
      </g>
     </g>
    </g>
    <g id="ytick_3">
     <g id="line2d_24">
      <g>
       <use xlink:href="#md823ef5bcb" x="87" y="459.810464" style="stroke: #000000; stroke-width: 0.8"/>
      </g>
     </g>
     <g id="text_10">
      <!-- $\mathdefault{1.0}$ -->
      <g transform="translate(41.5 470.680776) scale(0.3 -0.3)">
       <use xlink:href="#LiberationSans-31" transform="translate(0 0.171875)"/>
       <use xlink:href="#LiberationSans-2e" transform="translate(55.615234 0.171875)"/>
       <use xlink:href="#LiberationSans-30" transform="translate(83.398438 0.171875)"/>
      </g>
     </g>
    </g>
    <g id="ytick_4">
     <g id="line2d_25">
      <g>
       <use xlink:href="#md823ef5bcb" x="87" y="375.01103" style="stroke: #000000; stroke-width: 0.8"/>
      </g>
     </g>
     <g id="text_11">
      <!-- $\mathdefault{1.5}$ -->
      <g transform="translate(41.5 385.881343) scale(0.3 -0.3)">
       <use xlink:href="#LiberationSans-31" transform="translate(0 0.203125)"/>
       <use xlink:href="#LiberationSans-2e" transform="translate(55.615234 0.203125)"/>
       <use xlink:href="#LiberationSans-35" transform="translate(83.398438 0.203125)"/>
      </g>
     </g>
    </g>
    <g id="ytick_5">
     <g id="line2d_26">
      <g>
       <use xlink:href="#md823ef5bcb" x="87" y="290.211597" style="stroke: #000000; stroke-width: 0.8"/>
      </g>
     </g>
     <g id="text_12">
      <!-- $\mathdefault{2.0}$ -->
      <g transform="translate(41.5 301.08191) scale(0.3 -0.3)">
       <use xlink:href="#LiberationSans-32" transform="translate(0 0.171875)"/>
       <use xlink:href="#LiberationSans-2e" transform="translate(55.615234 0.171875)"/>
       <use xlink:href="#LiberationSans-30" transform="translate(83.398438 0.171875)"/>
      </g>
     </g>
    </g>
    <g id="ytick_6">
     <g id="line2d_27">
      <g>
       <use xlink:href="#md823ef5bcb" x="87" y="205.412164" style="stroke: #000000; stroke-width: 0.8"/>
      </g>
     </g>
     <g id="text_13">
      <!-- $\mathdefault{2.5}$ -->
      <g transform="translate(41.5 216.282476) scale(0.3 -0.3)">
       <use xlink:href="#LiberationSans-32" transform="translate(0 0.171875)"/>
       <use xlink:href="#LiberationSans-2e" transform="translate(55.615234 0.171875)"/>
       <use xlink:href="#LiberationSans-35" transform="translate(83.398438 0.171875)"/>
      </g>
     </g>
    </g>
    <g id="ytick_7">
     <g id="line2d_28">
      <g>
       <use xlink:href="#md823ef5bcb" x="87" y="120.61273" style="stroke: #000000; stroke-width: 0.8"/>
      </g>
     </g>
     <g id="text_14">
      <!-- $\mathdefault{3.0}$ -->
      <g transform="translate(41.5 131.483043) scale(0.3 -0.3)">
       <defs>
        <path id="LiberationSans-33" d="M 3278 1216 
Q 3278 606 2890 271 
Q 2503 -63 1784 -63 
Q 1116 -63 717 239 
Q 319 541 244 1131 
L 825 1184 
Q 938 403 1784 403 
Q 2209 403 2451 612 
Q 2694 822 2694 1234 
Q 2694 1594 2417 1795 
Q 2141 1997 1619 1997 
L 1300 1997 
L 1300 2484 
L 1606 2484 
Q 2069 2484 2323 2686 
Q 2578 2888 2578 3244 
Q 2578 3597 2370 3801 
Q 2163 4006 1753 4006 
Q 1381 4006 1151 3815 
Q 922 3625 884 3278 
L 319 3322 
Q 381 3863 767 4166 
Q 1153 4469 1759 4469 
Q 2422 4469 2789 4161 
Q 3156 3853 3156 3303 
Q 3156 2881 2920 2617 
Q 2684 2353 2234 2259 
L 2234 2247 
Q 2728 2194 3003 1916 
Q 3278 1638 3278 1216 
z
" transform="scale(0.015625)"/>
       </defs>
       <use xlink:href="#LiberationSans-33" transform="translate(0 0.171875)"/>
       <use xlink:href="#LiberationSans-2e" transform="translate(55.615234 0.171875)"/>
       <use xlink:href="#LiberationSans-30" transform="translate(83.398438 0.171875)"/>
      </g>
     </g>
    </g>
    <g id="ytick_8">
     <g id="line2d_29">
      <defs>
       <path id="m78a774e239" d="M 0 0 
L 2 0 
" style="stroke: #000000; stroke-width: 0.6"/>
      </defs>
      <g>
       <use xlink:href="#m78a774e239" x="87" y="612.449444" style="stroke: #000000; stroke-width: 0.6"/>
      </g>
     </g>
    </g>
    <g id="ytick_9">
     <g id="line2d_30">
      <g>
       <use xlink:href="#m78a774e239" x="87" y="595.489557" style="stroke: #000000; stroke-width: 0.6"/>
      </g>
     </g>
    </g>
    <g id="ytick_10">
     <g id="line2d_31">
      <g>
       <use xlink:href="#m78a774e239" x="87" y="578.52967" style="stroke: #000000; stroke-width: 0.6"/>
      </g>
     </g>
    </g>
    <g id="ytick_11">
     <g id="line2d_32">
      <g>
       <use xlink:href="#m78a774e239" x="87" y="561.569784" style="stroke: #000000; stroke-width: 0.6"/>
      </g>
     </g>
    </g>
    <g id="ytick_12">
     <g id="line2d_33">
      <g>
       <use xlink:href="#m78a774e239" x="87" y="527.65001" style="stroke: #000000; stroke-width: 0.6"/>
      </g>
     </g>
    </g>
    <g id="ytick_13">
     <g id="line2d_34">
      <g>
       <use xlink:href="#m78a774e239" x="87" y="510.690124" style="stroke: #000000; stroke-width: 0.6"/>
      </g>
     </g>
    </g>
    <g id="ytick_14">
     <g id="line2d_35">
      <g>
       <use xlink:href="#m78a774e239" x="87" y="493.730237" style="stroke: #000000; stroke-width: 0.6"/>
      </g>
     </g>
    </g>
    <g id="ytick_15">
     <g id="line2d_36">
      <g>
       <use xlink:href="#m78a774e239" x="87" y="476.77035" style="stroke: #000000; stroke-width: 0.6"/>
      </g>
     </g>
    </g>
    <g id="ytick_16">
     <g id="line2d_37">
      <g>
       <use xlink:href="#m78a774e239" x="87" y="442.850577" style="stroke: #000000; stroke-width: 0.6"/>
      </g>
     </g>
    </g>
    <g id="ytick_17">
     <g id="line2d_38">
      <g>
       <use xlink:href="#m78a774e239" x="87" y="425.89069" style="stroke: #000000; stroke-width: 0.6"/>
      </g>
     </g>
    </g>
    <g id="ytick_18">
     <g id="line2d_39">
      <g>
       <use xlink:href="#m78a774e239" x="87" y="408.930804" style="stroke: #000000; stroke-width: 0.6"/>
      </g>
     </g>
    </g>
    <g id="ytick_19">
     <g id="line2d_40">
      <g>
       <use xlink:href="#m78a774e239" x="87" y="391.970917" style="stroke: #000000; stroke-width: 0.6"/>
      </g>
     </g>
    </g>
    <g id="ytick_20">
     <g id="line2d_41">
      <g>
       <use xlink:href="#m78a774e239" x="87" y="358.051144" style="stroke: #000000; stroke-width: 0.6"/>
      </g>
     </g>
    </g>
    <g id="ytick_21">
     <g id="line2d_42">
      <g>
       <use xlink:href="#m78a774e239" x="87" y="341.091257" style="stroke: #000000; stroke-width: 0.6"/>
      </g>
     </g>
    </g>
    <g id="ytick_22">
     <g id="line2d_43">
      <g>
       <use xlink:href="#m78a774e239" x="87" y="324.13137" style="stroke: #000000; stroke-width: 0.6"/>
      </g>
     </g>
    </g>
    <g id="ytick_23">
     <g id="line2d_44">
      <g>
       <use xlink:href="#m78a774e239" x="87" y="307.171484" style="stroke: #000000; stroke-width: 0.6"/>
      </g>
     </g>
    </g>
    <g id="ytick_24">
     <g id="line2d_45">
      <g>
       <use xlink:href="#m78a774e239" x="87" y="273.25171" style="stroke: #000000; stroke-width: 0.6"/>
      </g>
     </g>
    </g>
    <g id="ytick_25">
     <g id="line2d_46">
      <g>
       <use xlink:href="#m78a774e239" x="87" y="256.291824" style="stroke: #000000; stroke-width: 0.6"/>
      </g>
     </g>
    </g>
    <g id="ytick_26">
     <g id="line2d_47">
      <g>
       <use xlink:href="#m78a774e239" x="87" y="239.331937" style="stroke: #000000; stroke-width: 0.6"/>
      </g>
     </g>
    </g>
    <g id="ytick_27">
     <g id="line2d_48">
      <g>
       <use xlink:href="#m78a774e239" x="87" y="222.37205" style="stroke: #000000; stroke-width: 0.6"/>
      </g>
     </g>
    </g>
    <g id="ytick_28">
     <g id="line2d_49">
      <g>
       <use xlink:href="#m78a774e239" x="87" y="188.452277" style="stroke: #000000; stroke-width: 0.6"/>
      </g>
     </g>
    </g>
    <g id="ytick_29">
     <g id="line2d_50">
      <g>
       <use xlink:href="#m78a774e239" x="87" y="171.49239" style="stroke: #000000; stroke-width: 0.6"/>
      </g>
     </g>
    </g>
    <g id="ytick_30">
     <g id="line2d_51">
      <g>
       <use xlink:href="#m78a774e239" x="87" y="154.532504" style="stroke: #000000; stroke-width: 0.6"/>
      </g>
     </g>
    </g>
    <g id="ytick_31">
     <g id="line2d_52">
      <g>
       <use xlink:href="#m78a774e239" x="87" y="137.572617" style="stroke: #000000; stroke-width: 0.6"/>
      </g>
     </g>
    </g>
    <g id="ytick_32">
     <g id="line2d_53">
      <g>
       <use xlink:href="#m78a774e239" x="87" y="103.652844" style="stroke: #000000; stroke-width: 0.6"/>
      </g>
     </g>
    </g>
    <g id="ytick_33">
     <g id="line2d_54">
      <g>
       <use xlink:href="#m78a774e239" x="87" y="86.692957" style="stroke: #000000; stroke-width: 0.6"/>
      </g>
     </g>
    </g>
    <g id="ytick_34">
     <g id="line2d_55">
      <g>
       <use xlink:href="#m78a774e239" x="87" y="69.73307" style="stroke: #000000; stroke-width: 0.6"/>
      </g>
     </g>
    </g>
    <g id="ytick_35">
     <g id="line2d_56">
      <g>
       <use xlink:href="#m78a774e239" x="87" y="52.773184" style="stroke: #000000; stroke-width: 0.6"/>
      </g>
     </g>
    </g>
    <g id="text_15">
     <!-- ITC $\mathrm{W} / (\mathrm{K} \cdot \mathrm{m}^2)$ -->
     <g transform="translate(31.275 433.803) rotate(-90) scale(0.3 -0.3)">
      <defs>
       <path id="LiberationSans-49" d="M 591 0 
L 591 4403 
L 1188 4403 
L 1188 0 
L 591 0 
z
" transform="scale(0.015625)"/>
       <path id="LiberationSans-43" d="M 2475 3981 
Q 1744 3981 1337 3511 
Q 931 3041 931 2222 
Q 931 1413 1354 920 
Q 1778 428 2500 428 
Q 3425 428 3891 1344 
L 4378 1100 
Q 4106 531 3614 234 
Q 3122 -63 2472 -63 
Q 1806 -63 1320 214 
Q 834 491 579 1005 
Q 325 1519 325 2222 
Q 325 3275 894 3872 
Q 1463 4469 2469 4469 
Q 3172 4469 3644 4194 
Q 4116 3919 4338 3378 
L 3772 3191 
Q 3619 3575 3280 3778 
Q 2941 3981 2475 3981 
z
" transform="scale(0.015625)"/>
       <path id="STIXGeneral-Regular-57" d="M 5965 4237 
L 5965 4115 
Q 5709 4064 5616 3990 
Q 5523 3917 5434 3667 
Q 4704 1709 4128 -70 
L 4032 -70 
Q 3642 1011 3008 2637 
L 2022 -70 
L 1926 -70 
Q 1709 576 1277 1753 
Q 845 2931 698 3347 
Q 538 3808 406 3958 
Q 275 4109 32 4115 
L 32 4237 
L 1594 4237 
L 1594 4115 
Q 1357 4109 1270 4064 
Q 1184 4019 1184 3917 
Q 1184 3808 1254 3616 
L 2176 1210 
L 2842 3021 
L 2662 3501 
Q 2509 3917 2400 4013 
Q 2291 4109 2010 4115 
L 2010 4237 
L 3706 4237 
L 3706 4115 
Q 3213 4102 3213 3891 
Q 3213 3808 3322 3520 
L 4237 1190 
L 5043 3360 
Q 5152 3667 5152 3853 
Q 5152 4109 4704 4115 
L 4704 4237 
L 5965 4237 
z
" transform="scale(0.015625)"/>
       <path id="STIXGeneral-Regular-2f" d="M 1837 4326 
L 378 -90 
L -58 -90 
L 1408 4326 
L 1837 4326 
z
" transform="scale(0.015625)"/>
       <path id="STIXGeneral-Regular-28" d="M 1946 -1030 
L 1869 -1133 
Q 1126 -710 716 32 
Q 307 774 307 1613 
Q 307 3386 1888 4326 
L 1946 4224 
Q 1293 3667 1075 3126 
Q 858 2586 858 1632 
Q 858 685 1082 96 
Q 1306 -493 1946 -1030 
z
" transform="scale(0.015625)"/>
       <path id="STIXGeneral-Regular-4b" d="M 4627 0 
L 2688 0 
L 2688 122 
L 2861 128 
Q 3130 134 3130 282 
Q 3130 397 2922 643 
Q 2714 890 2253 1370 
L 1613 2029 
L 1446 1894 
L 1446 710 
Q 1446 352 1548 253 
Q 1651 154 2016 122 
L 2016 0 
L 211 0 
L 211 122 
Q 589 141 691 262 
Q 794 384 794 800 
L 794 3514 
Q 794 3872 691 3981 
Q 589 4090 218 4115 
L 218 4237 
L 2022 4237 
L 2022 4115 
Q 1632 4090 1539 3987 
Q 1446 3885 1446 3507 
L 1446 2227 
L 2586 3277 
Q 2861 3533 2973 3667 
Q 3085 3802 3085 3910 
Q 3085 4013 3030 4057 
Q 2976 4102 2822 4109 
L 2662 4115 
L 2662 4237 
L 4320 4237 
L 4320 4115 
Q 3994 4090 3824 4003 
Q 3654 3917 3322 3597 
L 2131 2458 
L 3629 819 
Q 4026 384 4214 253 
Q 4403 122 4627 122 
L 4627 0 
z
" transform="scale(0.015625)"/>
       <path id="STIXGeneral-Regular-22c5" d="M 1187 1888 
Q 1299 1773 1299 1619 
Q 1299 1466 1187 1350 
Q 1075 1235 921 1235 
Q 768 1235 649 1353 
Q 531 1472 531 1619 
Q 531 1766 649 1884 
Q 768 2003 921 2003 
Q 1075 2003 1187 1888 
z
" transform="scale(0.015625)"/>
       <path id="STIXGeneral-Regular-6d" d="M 4960 0 
L 3565 0 
L 3565 96 
Q 3834 122 3907 208 
Q 3981 294 3981 576 
L 3981 1894 
Q 3981 2278 3869 2444 
Q 3757 2611 3488 2611 
Q 3264 2611 3107 2521 
Q 2950 2432 2803 2221 
L 2803 608 
Q 2803 301 2896 201 
Q 2989 102 3264 96 
L 3264 0 
L 1830 0 
L 1830 96 
Q 2112 115 2189 188 
Q 2266 262 2266 550 
L 2266 1901 
Q 2266 2611 1850 2611 
Q 1670 2611 1468 2531 
Q 1267 2451 1171 2336 
Q 1088 2240 1088 2227 
L 1088 448 
Q 1088 243 1177 176 
Q 1267 109 1523 96 
L 1523 0 
L 102 0 
L 102 96 
Q 371 102 460 195 
Q 550 288 550 563 
L 550 2150 
Q 550 2387 499 2480 
Q 448 2573 326 2573 
Q 230 2573 122 2547 
L 122 2656 
Q 557 2778 1011 2944 
L 1062 2925 
L 1062 2451 
L 1075 2451 
Q 1363 2752 1584 2848 
Q 1805 2944 2054 2944 
Q 2560 2944 2733 2406 
Q 3232 2944 3776 2944 
Q 4518 2944 4518 1792 
L 4518 493 
Q 4518 282 4582 202 
Q 4646 122 4794 109 
L 4960 96 
L 4960 0 
z
" transform="scale(0.015625)"/>
       <path id="STIXGeneral-Regular-32" d="M 3034 877 
L 2688 0 
L 186 0 
L 186 77 
L 1325 1286 
Q 1773 1754 1965 2144 
Q 2157 2534 2157 2950 
Q 2157 3379 1920 3616 
Q 1683 3853 1267 3853 
Q 922 3853 720 3673 
Q 518 3494 326 3021 
L 192 3053 
Q 301 3648 630 3987 
Q 960 4326 1523 4326 
Q 2054 4326 2380 4006 
Q 2707 3686 2707 3200 
Q 2707 2477 1888 1613 
L 832 486 
L 2330 486 
Q 2541 486 2665 569 
Q 2790 653 2944 915 
L 3034 877 
z
" transform="scale(0.015625)"/>
       <path id="STIXGeneral-Regular-29" d="M 186 4224 
L 262 4326 
Q 992 3891 1408 3148 
Q 1824 2406 1824 1581 
Q 1824 -166 243 -1133 
L 186 -1030 
Q 845 -486 1059 54 
Q 1274 595 1274 1562 
Q 1274 2534 1059 3120 
Q 845 3706 186 4224 
z
" transform="scale(0.015625)"/>
      </defs>
      <use xlink:href="#LiberationSans-49" transform="translate(0 0.409375)"/>
      <use xlink:href="#LiberationSans-54" transform="translate(27.783203 0.409375)"/>
      <use xlink:href="#LiberationSans-43" transform="translate(88.867188 0.409375)"/>
      <use xlink:href="#LiberationSans-20" transform="translate(161.083984 0.409375)"/>
      <use xlink:href="#STIXGeneral-Regular-57" transform="translate(188.867188 0.409375)"/>
      <use xlink:href="#STIXGeneral-Regular-2f" transform="translate(283.267181 0.409375)"/>
      <use xlink:href="#STIXGeneral-Regular-28" transform="translate(311.067169 0.409375)"/>
      <use xlink:href="#STIXGeneral-Regular-4b" transform="translate(344.367157 0.409375)"/>
      <use xlink:href="#STIXGeneral-Regular-22c5" transform="translate(431.007135 0.409375)"/>
      <use xlink:href="#STIXGeneral-Regular-6d" transform="translate(474.047122 0.409375)"/>
      <use xlink:href="#STIXGeneral-Regular-32" transform="translate(553.390391 35.684375) scale(0.7)"/>
      <use xlink:href="#STIXGeneral-Regular-29" transform="translate(592.799756 0.409375)"/>
     </g>
    </g>
    <g id="text_16">
     <!-- $\times\mathdefault{10^{7}}\mathdefault{}$ -->
     <g transform="translate(87 36.1875) scale(0.4 -0.4)">
      <defs>
       <path id="STIXGeneral-Regular-d7" d="M 3821 141 
L 3526 -160 
L 2048 1312 
L 570 -160 
L 275 134 
L 1747 1613 
L 275 3091 
L 576 3386 
L 2048 1914 
L 3526 3386 
L 3821 3098 
L 2349 1613 
L 3821 141 
z
" transform="scale(0.015625)"/>
       <path id="LiberationSans-37" d="M 3238 3947 
Q 2563 2916 2284 2331 
Q 2006 1747 1867 1178 
Q 1728 609 1728 0 
L 1141 0 
Q 1141 844 1498 1776 
Q 1856 2709 2694 3925 
L 328 3925 
L 328 4403 
L 3238 4403 
L 3238 3947 
z
" transform="scale(0.015625)"/>
      </defs>
      <use xlink:href="#STIXGeneral-Regular-d7" transform="translate(0 0.8625)"/>
      <use xlink:href="#LiberationSans-31" transform="translate(63.999985 0.8625)"/>
      <use xlink:href="#LiberationSans-30" transform="translate(119.615219 0.8625)"/>
      <use xlink:href="#LiberationSans-37" transform="translate(176.154946 37.842188) scale(0.7)"/>
     </g>
    </g>
   </g>
   <g id="line2d_57">
    <path d="M 115.012704 612.994364 
L 116.245633 282.914905 
L 116.91814 157.660414 
L 117.42252 98.906999 
L 117.814815 74.247605 
L 118.095026 67.115565 
L 118.207111 66.511636 
L 118.319195 67.105963 
L 118.487322 70.105684 
L 118.767533 80.16792 
L 119.215871 107.00225 
L 119.888377 163.408268 
L 122.186108 367.843818 
L 123.082784 424.946179 
L 123.923417 465.230295 
L 124.651966 490.386474 
L 125.26843 504.748876 
L 125.77281 511.866634 
L 126.165106 514.639814 
L 126.389275 515.202033 
L 126.501359 515.219505 
L 126.669486 514.93191 
L 126.893655 513.995792 
L 127.229908 511.521866 
L 127.734288 505.827834 
L 128.518879 493.928781 
L 130.200146 467.813431 
L 130.928695 460.043652 
L 131.489117 456.178123 
L 131.937455 454.409023 
L 132.273708 453.810381 
L 132.497877 453.734157 
L 132.722046 453.898604 
L 133.002257 454.417487 
L 133.394552 455.667922 
L 133.954975 458.340112 
L 134.739566 463.348357 
L 136.476875 476.462435 
L 137.709803 484.832876 
L 138.550437 489.197249 
L 139.222943 491.633382 
L 139.727323 492.735563 
L 140.119619 493.110897 
L 140.39983 493.099709 
L 140.680041 492.842451 
L 141.016294 492.194851 
L 141.464632 490.737185 
L 141.969012 488.281281 
L 142.641519 483.753965 
L 143.594237 475.551107 
L 145.107377 462.551389 
L 145.723841 459.044711 
L 146.172179 457.572075 
L 146.508432 457.118863 
L 146.732601 457.12791 
L 146.95677 457.377973 
L 147.293023 458.176487 
L 147.741361 459.932686 
L 148.413868 463.653444 
L 151.272021 480.823196 
L 152.673076 486.967811 
L 153.737879 490.854385 
L 154.354343 492.37888 
L 154.746638 492.880443 
L 155.02685 492.960397 
L 155.307061 492.782108 
L 155.643314 492.207061 
L 156.03561 491.030947 
L 156.53999 488.765263 
L 157.268538 484.313475 
L 159.342101 470.882512 
L 159.958565 468.532936 
L 160.406903 467.537253 
L 160.799198 467.144542 
L 161.079409 467.116741 
L 161.415663 467.333329 
L 161.807958 467.887509 
L 162.36838 469.140524 
L 163.096929 471.378479 
L 164.161732 475.457167 
L 166.459463 484.528781 
L 167.075927 486.064112 
L 167.580307 486.770235 
L 167.91656 486.936559 
L 168.252814 486.855744 
L 168.589067 486.536448 
L 169.037405 485.772776 
L 169.653869 484.208675 
L 170.662629 480.89698 
L 172.399938 475.209142 
L 173.296614 472.982299 
L 174.025162 471.71893 
L 174.585585 471.171072 
L 174.97788 471.050292 
L 175.370176 471.172608 
L 175.762471 471.554368 
L 176.210809 472.314367 
L 176.771231 473.722467 
L 177.555822 476.36119 
L 179.573342 483.439621 
L 180.245849 484.87339 
L 180.806271 485.563 
L 181.310651 485.833191 
L 181.815031 485.841449 
L 182.431496 485.605618 
L 183.328171 484.983706 
L 184.336931 484.011557 
L 185.233607 482.835907 
L 186.354451 480.936806 
L 187.699464 478.710651 
L 188.315929 478.07641 
L 188.820309 477.844157 
L 189.268646 477.866954 
L 189.773026 478.129794 
L 190.445533 478.78181 
L 191.790546 480.516474 
L 193.359729 482.366633 
L 195.377248 484.388908 
L 196.105797 484.843885 
L 196.66622 484.942124 
L 197.1706 484.793891 
L 197.731022 484.360491 
L 198.459571 483.462321 
L 200.084795 481.351493 
L 200.645217 481.000598 
L 201.149597 480.932261 
L 201.710019 481.103882 
L 202.494611 481.629281 
L 204.00775 482.678562 
L 205.01651 483.056081 
L 206.417566 483.578911 
L 207.426326 484.240726 
L 208.715297 485.055793 
L 209.331761 485.171876 
L 209.892184 485.038082 
L 210.508648 484.636395 
L 211.461366 483.692162 
L 212.526168 482.712244 
L 213.198675 482.383009 
L 213.815139 482.321554 
L 214.59973 482.490456 
L 216.280997 482.92347 
L 217.177672 482.85879 
L 219.979783 482.431216 
L 221.66105 482.639084 
L 223.17419 482.97277 
L 224.014823 483.395538 
L 224.855457 484.094446 
L 226.088385 485.478326 
L 227.377356 486.817682 
L 228.274032 487.433907 
L 229.73113 488.097053 
L 231.188228 488.88608 
L 232.309072 489.420506 
L 232.925536 489.490948 
L 233.485959 489.343252 
L 234.102423 488.935838 
L 234.887014 488.121243 
L 236.736407 486.086893 
L 237.408914 485.713464 
L 238.025378 485.620057 
L 238.697885 485.759683 
L 239.538518 486.193971 
L 240.603321 487.009278 
L 241.668123 488.0962 
L 242.676883 489.46226 
L 244.190023 491.985449 
L 245.198783 493.458971 
L 245.815247 494.017366 
L 246.319627 494.202321 
L 246.767965 494.141821 
L 247.272345 493.826368 
L 247.888809 493.132889 
L 248.785485 491.729033 
L 250.410709 489.169022 
L 251.139258 488.425647 
L 251.755723 488.082879 
L 252.316145 488.001516 
L 252.932609 488.142126 
L 253.661158 488.556426 
L 254.950129 489.614925 
L 256.014931 490.369197 
L 256.74348 490.639356 
L 257.472029 490.67722 
L 258.480789 490.475943 
L 259.657676 490.296026 
L 260.386224 490.412412 
L 261.226858 490.783754 
L 262.908124 491.584787 
L 263.524589 491.611374 
L 264.141053 491.419993 
L 264.925644 490.913816 
L 266.775038 489.596698 
L 267.447544 489.429065 
L 268.120051 489.48908 
L 268.960684 489.807679 
L 270.473824 490.678081 
L 271.762795 491.632808 
L 272.715513 492.638674 
L 273.948442 494.325278 
L 275.181371 495.896371 
L 275.853877 496.410894 
L 276.4143 496.574463 
L 276.974722 496.496647 
L 277.647228 496.144039 
L 278.992242 495.078808 
L 280.001002 494.43507 
L 280.897677 494.120933 
L 285.549182 493.1572 
L 286.445857 493.219521 
L 287.398575 493.524519 
L 288.79963 494.251286 
L 291.32153 495.560048 
L 292.666544 496.008711 
L 293.787388 496.146451 
L 294.908232 496.050542 
L 296.253246 495.698343 
L 297.710343 495.091775 
L 299.279526 494.17773 
L 301.072877 493.148731 
L 301.91351 492.917239 
L 302.642059 492.940979 
L 303.370608 493.196886 
L 304.155199 493.715494 
L 305.220001 494.708762 
L 307.405648 496.808047 
L 308.302323 497.324942 
L 309.030872 497.50118 
L 309.703379 497.448154 
L 310.431928 497.152864 
L 311.216519 496.578895 
L 312.281321 495.484573 
L 314.242799 493.403933 
L 314.971347 492.954604 
L 315.587812 492.816916 
L 316.148234 492.906038 
L 316.764699 493.236916 
L 317.493247 493.903749 
L 318.502007 495.171039 
L 321.304118 498.859741 
L 322.256836 499.67431 
L 323.041427 500.052325 
L 323.713934 500.134225 
L 324.386441 499.987234 
L 325.114989 499.594185 
L 326.123749 498.760677 
L 328.757734 496.437243 
L 329.710451 495.936336 
L 330.607127 495.705837 
L 331.503803 495.70242 
L 332.568605 495.935581 
L 336.715729 497.110023 
L 338.284911 497.175532 
L 339.51784 497.023424 
L 340.638685 496.663619 
L 343.889133 495.412189 
L 344.673724 495.467831 
L 345.5704 495.76807 
L 347.08354 496.573973 
L 348.59668 497.273396 
L 350.053778 497.678773 
L 352.12734 498.01653 
L 353.472353 498.035057 
L 354.985493 497.807099 
L 356.498633 497.617671 
L 357.339266 497.726202 
L 358.123857 498.044592 
L 359.020533 498.668638 
L 360.477631 500.027553 
L 361.654517 501.001351 
L 362.439108 501.39047 
L 363.167657 501.51248 
L 363.896206 501.414622 
L 364.792882 501.059997 
L 366.193937 500.225559 
L 369.164175 498.407876 
L 370.06085 498.137067 
L 370.789399 498.138724 
L 371.517948 498.375099 
L 372.302539 498.876988 
L 373.535468 499.977093 
L 374.880481 501.0942 
L 375.777157 501.558263 
L 376.729875 501.787179 
L 378.13093 501.849848 
L 380.596788 501.743562 
L 381.605548 501.469658 
L 382.67035 500.94369 
L 385.752672 499.250291 
L 387.041643 498.925207 
L 388.891037 498.701557 
L 390.067923 498.751165 
L 391.076683 499.024684 
L 392.25357 499.600676 
L 393.822752 500.347274 
L 394.607343 500.471278 
L 395.335892 500.366512 
L 396.176525 500.007716 
L 399.202805 498.461887 
L 400.043438 498.417891 
L 401.164283 498.606321 
L 402.957634 498.914337 
L 404.190563 498.854215 
L 405.703703 498.790629 
L 406.488294 498.997681 
L 407.272885 499.448596 
L 408.337687 500.357556 
L 409.794785 501.56846 
L 410.579376 501.926559 
L 411.307925 502.016397 
L 412.2046 501.877878 
L 414.22212 501.468006 
L 415.062754 501.575887 
L 416.015471 501.946734 
L 419.490089 503.577234 
L 420.835102 503.778029 
L 422.124073 503.760041 
L 422.964707 503.530875 
L 423.637213 503.127811 
L 424.30972 502.472285 
L 425.094311 501.374665 
L 426.215156 499.357301 
L 427.672253 496.801691 
L 428.400802 495.942492 
L 429.017267 495.544234 
L 429.577689 495.456767 
L 430.138111 495.614396 
L 430.754575 496.030344 
L 431.595209 496.904902 
L 432.940222 498.699304 
L 435.013784 501.435457 
L 436.134629 502.538864 
L 437.031304 503.130747 
L 437.871937 503.422893 
L 438.656529 503.460873 
L 439.44112 503.281794 
L 440.337795 502.844843 
L 441.570724 501.969511 
L 443.476159 500.620075 
L 444.372835 500.264052 
L 445.157426 500.187442 
L 445.942017 500.345479 
L 446.782651 500.753077 
L 447.959537 501.60815 
L 449.752888 502.913738 
L 450.593522 503.250269 
L 451.32207 503.315735 
L 452.050619 503.160685 
L 452.891253 502.736843 
L 454.012097 501.88598 
L 456.36587 500.023497 
L 457.206504 499.66561 
L 457.935052 499.580422 
L 458.719644 499.725659 
L 459.672361 500.155745 
L 461.91405 501.267703 
L 462.866768 501.438372 
L 464.099697 501.403835 
L 466.061174 501.344087 
L 468.190779 501.602374 
L 470.040172 501.695481 
L 471.609354 501.821219 
L 472.50603 502.117352 
L 473.402705 502.655849 
L 474.747719 503.783937 
L 475.868563 504.622933 
L 476.597112 504.898256 
L 477.213576 504.895884 
L 477.830041 504.672648 
L 478.614632 504.126221 
L 481.977165 501.432007 
L 483.154052 500.981278 
L 484.611149 500.66731 
L 485.788036 500.629749 
L 486.796796 500.819613 
L 487.973683 501.290992 
L 490.999963 502.642463 
L 492.344976 502.90672 
L 495.147087 503.36233 
L 496.4921 503.902337 
L 498.117325 504.531633 
L 498.901916 504.601406 
L 499.630465 504.448039 
L 500.415056 504.046599 
L 501.479858 503.219299 
L 503.55342 501.562224 
L 504.618222 501.035452 
L 505.683024 500.763872 
L 506.803869 500.705611 
L 507.980756 500.862797 
L 509.549938 501.324155 
L 512.015795 502.036399 
L 514.033315 502.639249 
L 516.218962 503.345402 
L 517.17168 503.379496 
L 518.236482 503.173829 
L 521.430888 502.162818 
L 522.495691 501.624154 
L 523.448408 500.87567 
L 524.737379 499.535599 
L 526.082393 498.224857 
L 526.810942 497.802056 
L 527.427406 497.680763 
L 528.043871 497.78865 
L 528.716377 498.141471 
L 529.613053 498.886208 
L 533.760177 502.682809 
L 535.10519 503.529944 
L 536.169993 503.951654 
L 537.234795 504.128709 
L 538.523766 504.10035 
L 540.373159 503.81672 
L 544.071946 503.152647 
L 546.089466 503.221819 
L 547.490521 503.142277 
L 548.667408 502.843603 
L 549.900337 502.296399 
L 553.150785 500.686259 
L 553.879334 500.673176 
L 554.607883 500.88782 
L 555.504559 501.414484 
L 557.634163 502.789144 
L 558.418754 502.971322 
L 559.259387 502.921572 
L 562.061498 502.514429 
L 563.070258 502.754099 
L 565.424032 503.407654 
L 566.713003 503.434183 
L 568.282185 503.497054 
L 569.346987 503.789397 
L 573.157858 505.127114 
L 574.72704 505.191806 
L 576.688518 505.081977 
L 577.697278 504.814626 
L 578.649996 504.328328 
L 580.331262 503.136526 
L 581.340022 502.589741 
L 582.068571 502.428154 
L 582.79712 502.491888 
L 583.637753 502.807735 
L 584.926725 503.575514 
L 586.551949 504.487257 
L 587.504667 504.774671 
L 588.401342 504.815753 
L 589.410102 504.623459 
L 591.932002 504.002902 
L 592.828678 504.094704 
L 593.837438 504.439565 
L 596.975802 505.695869 
L 598.4329 505.899311 
L 599.889997 505.888572 
L 600.898757 505.665843 
L 601.851475 505.219528 
L 603.308573 504.232983 
L 604.48546 503.553262 
L 605.326093 503.326775 
L 606.110684 503.342114 
L 607.119444 503.605879 
L 609.585302 504.359194 
L 610.650104 504.382326 
L 611.883033 504.162328 
L 615.133481 503.227007 
L 618.103719 502.427591 
L 618.944352 502.476572 
L 619.728944 502.739256 
L 620.681661 503.307538 
L 623.203561 504.957789 
L 624.100237 505.206849 
L 625.052955 505.227637 
L 626.229841 505.013828 
L 628.359446 504.358015 
L 630.545092 503.480137 
L 633.851583 502.068388 
L 635.140554 501.825865 
L 636.765779 501.759265 
L 639.231636 501.677871 
L 640.184354 501.39045 
L 641.137072 500.853439 
L 643.715014 499.197365 
L 644.331478 499.151175 
L 644.947943 499.342167 
L 645.62045 499.809921 
L 646.517125 500.744483 
L 648.646729 503.085132 
L 649.487363 503.639745 
L 650.271954 503.893847 
L 651.056545 503.90739 
L 651.897178 503.682142 
L 652.793854 503.199413 
L 653.858656 502.357296 
L 657.333274 499.358839 
L 658.173907 499.040546 
L 659.070582 498.946551 
L 660.079342 499.08148 
L 661.312271 499.482522 
L 662.769369 500.199637 
L 665.459396 501.6057 
L 666.300029 501.749389 
L 667.08462 501.662879 
L 667.981296 501.320846 
L 669.326309 500.517745 
L 670.839449 499.68587 
L 671.736124 499.446587 
L 672.520715 499.465971 
L 673.305307 499.719838 
L 674.14594 500.234281 
L 675.266784 501.17508 
L 675.266784 501.17508 
" clip-path="url(#p6158094928)" style="fill: none; stroke: #ff0000; stroke-width: 1.5; stroke-linecap: square"/>
   </g>
   <g id="line2d_58">
    <path d="M 115.012704 612.962758 
L 116.133548 314.433265 
L 116.806055 188.234165 
L 117.310435 128.255737 
L 117.702731 102.29773 
L 117.982942 94.088055 
L 118.151068 92.944128 
L 118.263153 93.639361 
L 118.431279 96.71102 
L 118.711491 106.681221 
L 119.159828 132.80854 
L 119.888377 191.824848 
L 121.793813 351.762068 
L 122.690488 406.51088 
L 123.531122 444.710133 
L 124.315713 470.455786 
L 124.988219 485.501254 
L 125.492599 492.61367 
L 125.884895 495.74728 
L 126.165106 496.755529 
L 126.333233 496.889486 
L 126.501359 496.688589 
L 126.725528 495.926794 
L 127.061781 493.813294 
L 127.566161 488.796392 
L 128.29471 478.84903 
L 130.368272 448.949016 
L 131.040779 442.756644 
L 131.545159 439.824704 
L 131.937455 438.533741 
L 132.273708 438.067183 
L 132.497877 438.05238 
L 132.778088 438.326927 
L 133.114341 439.028879 
L 133.618721 440.664214 
L 134.515397 444.50742 
L 137.149381 456.19755 
L 138.438352 460.868345 
L 139.615239 464.317584 
L 140.680041 466.813508 
L 141.969012 469.201544 
L 145.051334 474.361333 
L 145.835925 475.245403 
L 146.620516 475.783261 
L 147.236981 475.952506 
L 147.797403 475.873966 
L 148.46991 475.547826 
L 149.814923 474.555194 
L 150.935767 473.813741 
L 151.552232 473.646657 
L 152.056612 473.730435 
L 152.617034 474.070496 
L 153.289541 474.766282 
L 154.802681 476.438455 
L 155.363103 476.70995 
L 155.811441 476.700565 
L 156.315821 476.432395 
L 156.932285 475.804076 
L 157.828961 474.493515 
L 158.837721 473.132772 
L 159.510227 472.559368 
L 160.014607 472.379926 
L 160.462945 472.455395 
L 160.911283 472.780929 
L 161.415663 473.441267 
L 162.032127 474.666642 
L 162.816718 476.783019 
L 165.674872 485.116267 
L 166.459463 486.538872 
L 167.131969 487.352756 
L 167.748434 487.781032 
L 168.308856 487.912503 
L 168.813236 487.807737 
L 169.317616 487.484828 
L 169.878038 486.857868 
L 170.550545 485.738281 
L 173.520782 480.285306 
L 174.249331 479.540512 
L 174.921838 479.148429 
L 175.538302 479.028416 
L 176.210809 479.124802 
L 177.051442 479.489835 
L 178.396456 480.364957 
L 180.245849 481.5067 
L 181.422736 481.99508 
L 182.375453 482.154851 
L 183.384213 482.094238 
L 186.802789 481.692402 
L 188.428013 481.613848 
L 189.660942 481.303003 
L 192.238884 480.559147 
L 193.303686 480.56865 
L 196.442051 480.814303 
L 197.618937 480.514702 
L 200.365006 479.729199 
L 201.429808 479.669038 
L 202.326484 479.851729 
L 203.223159 480.272294 
L 204.287962 481.024364 
L 205.632975 482.26381 
L 208.379044 484.906497 
L 209.219677 485.381118 
L 209.948226 485.550944 
L 210.620733 485.493581 
L 211.349281 485.203329 
L 212.189915 484.611601 
L 214.992026 482.40116 
L 215.664532 482.271545 
L 216.280997 482.386868 
L 216.953503 482.749072 
L 218.018306 483.623594 
L 219.307277 484.621306 
L 220.091868 484.95465 
L 220.764374 485.006225 
L 221.492923 484.826919 
L 222.389599 484.359273 
L 223.566485 483.475795 
L 224.743372 482.322051 
L 225.976301 480.794665 
L 228.274032 477.832903 
L 229.002581 477.323974 
L 229.619045 477.138991 
L 230.291552 477.178088 
L 231.076143 477.480033 
L 233.654085 478.704357 
L 234.550761 478.766733 
L 237.016618 478.75754 
L 238.025378 479.108368 
L 240.659363 480.163026 
L 241.499996 480.181103 
L 242.564798 479.954689 
L 243.965854 479.665927 
L 244.694403 479.738429 
L 245.366909 480.021161 
L 246.1515 480.617966 
L 248.785485 482.930854 
L 249.401949 483.062319 
L 250.018414 482.968859 
L 250.746963 482.623427 
L 251.867807 481.800474 
L 253.549074 480.581552 
L 254.445749 480.205974 
L 255.454509 480.034811 
L 257.079733 480.007474 
L 258.200578 480.192656 
L 259.377465 480.634069 
L 262.571871 482.008557 
L 264.028969 482.242139 
L 267.83984 482.593787 
L 268.736515 482.402607 
L 269.689233 481.952945 
L 271.090289 480.996679 
L 272.267175 480.275186 
L 273.051766 480.039954 
L 273.836357 480.028009 
L 274.789075 480.243963 
L 278.655988 481.355225 
L 279.888917 481.481735 
L 280.673508 481.338291 
L 281.346015 480.977314 
L 282.018522 480.346102 
L 282.803113 479.276141 
L 284.932717 476.158259 
L 285.717308 475.472372 
L 286.389815 475.157537 
L 287.062322 475.07857 
L 287.846913 475.22445 
L 288.855673 475.659632 
L 293.058839 477.716334 
L 294.067599 477.873199 
L 295.020317 477.785328 
L 296.309288 477.40594 
L 298.326808 476.827466 
L 299.447652 476.745691 
L 300.512455 476.894102 
L 301.633299 477.281864 
L 304.43541 478.386415 
L 305.44417 478.48158 
L 306.45293 478.337284 
L 307.685859 477.921091 
L 311.272561 476.532161 
L 312.337363 476.531911 
L 313.51425 476.76882 
L 316.764699 477.601552 
L 318.445965 478.000599 
L 320.407443 478.768528 
L 321.584329 479.095084 
L 322.649132 479.154192 
L 326.011665 479.111607 
L 329.486283 479.755299 
L 330.551085 479.586746 
L 333.857576 478.856395 
L 334.810294 478.995095 
L 337.724489 479.616428 
L 338.340953 479.392796 
L 339.01346 478.891421 
L 340.078262 477.737832 
L 342.151824 475.473687 
L 343.272669 474.602327 
L 344.393513 474.01707 
L 345.626442 473.626254 
L 346.691244 473.508698 
L 347.58792 473.621432 
L 348.484595 473.968879 
L 349.829609 474.789517 
L 351.062538 475.441271 
L 351.903171 475.642879 
L 352.743804 475.611922 
L 354.032775 475.289398 
L 355.601957 474.964452 
L 360.589715 474.420229 
L 361.542433 474.556739 
L 362.439108 474.909703 
L 363.615995 475.63854 
L 365.465388 476.77704 
L 366.474148 477.116937 
L 367.482908 477.223461 
L 368.603753 477.105648 
L 374.432144 476.109004 
L 375.160692 476.330725 
L 375.945284 476.804541 
L 378.63531 478.671046 
L 379.363859 478.801077 
L 380.14845 478.719834 
L 383.286814 478.119146 
L 384.351617 478.326589 
L 387.994361 479.275336 
L 390.123965 479.454515 
L 391.132725 479.3466 
L 391.917316 479.033195 
L 392.645865 478.493928 
L 393.486499 477.577304 
L 394.831512 475.702214 
L 395.896314 474.344503 
L 396.680905 473.707682 
L 397.521539 473.313006 
L 398.866552 472.975583 
L 400.996156 472.643551 
L 402.060958 472.709785 
L 403.237845 473.028936 
L 405.311407 473.6279 
L 406.208083 473.630406 
L 407.048716 473.407851 
L 408.225603 472.823104 
L 409.850827 472.025458 
L 410.635418 471.893877 
L 411.307925 471.996908 
L 412.092516 472.354206 
L 413.381487 473.248823 
L 414.558374 473.961457 
L 415.342965 474.167625 
L 416.127556 474.130607 
L 417.192358 473.825756 
L 418.985709 473.287762 
L 420.218638 473.189758 
L 422.908664 473.046376 
L 425.31848 472.637107 
L 427.279958 472.412448 
L 429.577689 472.132628 
L 433.108349 471.50186 
L 433.948982 471.699154 
L 434.9017 472.165638 
L 438.43236 474.142826 
L 439.889457 474.524028 
L 444.316793 475.590673 
L 445.437637 476.197767 
L 447.623284 477.495865 
L 448.239748 477.575852 
L 448.80017 477.436595 
L 449.360593 477.0671 
L 449.977057 476.3762 
L 450.705606 475.19284 
L 452.050619 472.4355 
L 453.171464 470.392715 
L 453.956055 469.366042 
L 454.628561 468.805591 
L 455.301068 468.530908 
L 455.973575 468.494778 
L 456.814208 468.683539 
L 458.271306 469.285491 
L 462.754683 471.222335 
L 463.819486 471.31309 
L 465.220541 471.183917 
L 467.125977 471.025521 
L 468.863285 471.150604 
L 471.329143 471.522807 
L 472.281861 471.886227 
L 473.234579 472.493331 
L 475.644394 474.189603 
L 476.316901 474.310072 
L 476.989407 474.189715 
L 477.773999 473.79024 
L 480.520067 472.140382 
L 481.472785 471.929039 
L 482.369461 471.954859 
L 483.714474 472.251229 
L 486.348458 473.047572 
L 487.581387 473.686805 
L 490.327456 475.235643 
L 491.280174 475.456389 
L 492.232891 475.447967 
L 493.577905 475.188767 
L 495.259171 474.90925 
L 496.380016 474.958701 
L 497.612945 475.256538 
L 501.872153 476.459964 
L 502.768829 476.455262 
L 503.497378 476.228125 
L 504.169884 475.767842 
L 504.842391 475.027314 
L 505.626982 473.813789 
L 506.747827 471.598389 
L 508.148882 468.881465 
L 508.877431 467.954874 
L 509.493895 467.502059 
L 510.11036 467.333484 
L 510.726824 467.397082 
L 511.567458 467.731429 
L 514.986033 469.353116 
L 516.16292 469.51252 
L 517.788144 469.480333 
L 519.973791 469.200735 
L 521.7111 469.078888 
L 522.71986 469.223123 
L 523.672577 469.587772 
L 525.129675 470.421223 
L 526.810942 471.317801 
L 528.660335 471.987661 
L 530.845982 472.60152 
L 532.134953 472.733109 
L 533.704135 472.631609 
L 535.049148 472.62212 
L 536.169993 472.845338 
L 537.458964 473.346515 
L 539.196272 474.311397 
L 540.709412 475.040008 
L 545.136748 476.681708 
L 545.921339 476.685326 
L 546.70593 476.460528 
L 547.602606 475.95531 
L 550.23659 474.261654 
L 550.909097 474.195039 
L 551.525561 474.356688 
L 552.198068 474.772448 
L 553.094743 475.621882 
L 555.168305 477.690178 
L 556.008939 478.169572 
L 556.737488 478.351078 
L 557.522079 478.311411 
L 558.474796 478.027757 
L 559.763767 477.398395 
L 560.940654 476.584939 
L 561.893372 475.65093 
L 562.958174 474.26802 
L 564.471314 472.280948 
L 565.199863 471.699837 
L 565.872369 471.43456 
L 566.600918 471.394863 
L 567.609678 471.596533 
L 569.17886 471.914683 
L 570.131578 471.862187 
L 571.252423 471.56608 
L 573.606196 470.628215 
L 576.072054 469.757853 
L 577.304982 469.581667 
L 578.313742 469.656712 
L 579.154376 469.937099 
L 580.051051 470.473827 
L 581.452107 471.61759 
L 582.909205 472.732592 
L 583.917965 473.219397 
L 585.262978 473.595722 
L 587.33654 474.181473 
L 588.793638 474.582951 
L 589.578229 474.568367 
L 590.36282 474.315422 
L 591.259495 473.768022 
L 592.660551 472.585327 
L 593.725353 471.803187 
L 594.453902 471.530131 
L 595.126409 471.514161 
L 595.911 471.734579 
L 597.087886 472.335971 
L 601.627306 474.83904 
L 602.46794 474.97261 
L 603.252531 474.877524 
L 604.205248 474.514717 
L 606.054642 473.749037 
L 606.839233 473.705211 
L 607.679866 473.898706 
L 608.688626 474.377944 
L 611.098442 475.614373 
L 612.555539 476.002436 
L 614.85327 476.371758 
L 615.86203 476.348748 
L 616.534537 476.117929 
L 617.151001 475.675019 
L 617.823508 474.892131 
L 618.552057 473.687149 
L 619.728944 471.216377 
L 620.90583 468.95139 
L 621.690421 467.87919 
L 622.41897 467.252538 
L 623.091477 466.966056 
L 623.876068 466.897798 
L 624.94087 467.054825 
L 626.45401 467.503738 
L 627.96715 468.183469 
L 630.937388 469.666241 
L 631.890105 469.757081 
L 634.804301 469.830553 
L 635.813061 470.256283 
L 637.55037 471.027798 
L 638.391003 471.122346 
L 639.231636 470.976741 
L 640.632692 470.435573 
L 641.977705 470.010717 
L 643.09855 469.897059 
L 644.61169 470.001857 
L 647.189632 470.392743 
L 648.422561 470.829709 
L 649.655489 471.511109 
L 651.168629 472.650351 
L 652.625727 473.679019 
L 653.522403 474.044957 
L 654.363036 474.145352 
L 655.259711 474.013668 
L 661.648525 472.269784 
L 663.04958 471.815957 
L 663.834171 471.787946 
L 664.506678 471.982661 
L 665.235227 472.448306 
L 666.131902 473.321903 
L 668.317549 475.591903 
L 668.990056 475.912785 
L 669.550478 475.937176 
L 670.1109 475.740076 
L 670.783407 475.249359 
L 671.848209 474.130292 
L 673.473433 472.444551 
L 674.594278 471.614683 
L 675.266784 471.216776 
L 675.266784 471.216776 
" clip-path="url(#p6158094928)" style="fill: none; stroke: #0000ff; stroke-width: 1.5; stroke-linecap: square"/>
   </g>
   <g id="patch_3">
    <path d="M 87 640.3185 
L 87 39.1875 
" style="fill: none; stroke: #000000; stroke-width: 0.8; stroke-linejoin: miter; stroke-linecap: square"/>
   </g>
   <g id="patch_4">
    <path d="M 703.279488 640.3185 
L 703.279488 39.1875 
" style="fill: none; stroke: #000000; stroke-width: 0.8; stroke-linejoin: miter; stroke-linecap: square"/>
   </g>
   <g id="patch_5">
    <path d="M 87 640.3185 
L 703.279488 640.3185 
" style="fill: none; stroke: #000000; stroke-width: 0.8; stroke-linejoin: miter; stroke-linecap: square"/>
   </g>
   <g id="patch_6">
    <path d="M 87 39.1875 
L 703.279488 39.1875 
" style="fill: none; stroke: #000000; stroke-width: 0.8; stroke-linejoin: miter; stroke-linecap: square"/>
   </g>
   <g id="legend_1">
    <g id="patch_7">
     <path d="M 506.268551 149.11875 
L 682.279488 149.11875 
Q 688.279488 149.11875 688.279488 143.11875 
L 688.279488 60.1875 
Q 688.279488 54.1875 682.279488 54.1875 
L 506.268551 54.1875 
Q 500.268551 54.1875 500.268551 60.1875 
L 500.268551 143.11875 
Q 500.268551 149.11875 506.268551 149.11875 
z
" style="fill: #ffffff; opacity: 0.8; stroke: #cccccc; stroke-linejoin: miter"/>
    </g>
    <g id="line2d_59">
     <path d="M 512.268551 77.428125 
L 542.268551 77.428125 
L 572.268551 77.428125 
" style="fill: none; stroke: #ff0000; stroke-width: 1.5; stroke-linecap: square"/>
    </g>
    <g id="text_17">
     <!-- MD -->
     <g transform="translate(596.268551 87.928125) scale(0.3 -0.3)">
      <defs>
       <path id="LiberationSans-4d" d="M 4269 0 
L 4269 2938 
Q 4269 3425 4297 3875 
Q 4144 3316 4022 3000 
L 2884 0 
L 2466 0 
L 1313 3000 
L 1138 3531 
L 1034 3875 
L 1044 3528 
L 1056 2938 
L 1056 0 
L 525 0 
L 525 4403 
L 1309 4403 
L 2481 1350 
Q 2544 1166 2601 955 
Q 2659 744 2678 650 
Q 2703 775 2783 1029 
Q 2863 1284 2891 1350 
L 4041 4403 
L 4806 4403 
L 4806 0 
L 4269 0 
z
" transform="scale(0.015625)"/>
       <path id="LiberationSans-44" d="M 4316 2247 
Q 4316 1566 4050 1055 
Q 3784 544 3296 272 
Q 2809 0 2172 0 
L 525 0 
L 525 4403 
L 1981 4403 
Q 3100 4403 3708 3842 
Q 4316 3281 4316 2247 
z
M 3716 2247 
Q 3716 3066 3267 3495 
Q 2819 3925 1969 3925 
L 1122 3925 
L 1122 478 
L 2103 478 
Q 2588 478 2955 690 
Q 3322 903 3519 1303 
Q 3716 1703 3716 2247 
z
" transform="scale(0.015625)"/>
      </defs>
      <use xlink:href="#LiberationSans-4d"/>
      <use xlink:href="#LiberationSans-44" x="83.300781"/>
     </g>
    </g>
    <g id="line2d_60">
     <path d="M 512.268551 120.39375 
L 542.268551 120.39375 
L 572.268551 120.39375 
" style="fill: none; stroke: #0000ff; stroke-width: 1.5; stroke-linecap: square"/>
    </g>
    <g id="text_18">
     <!-- GANs -->
     <g transform="translate(596.268551 130.89375) scale(0.3 -0.3)">
      <defs>
       <path id="LiberationSans-47" d="M 322 2222 
Q 322 3294 897 3881 
Q 1472 4469 2513 4469 
Q 3244 4469 3700 4222 
Q 4156 3975 4403 3431 
L 3834 3263 
Q 3647 3638 3317 3809 
Q 2988 3981 2497 3981 
Q 1734 3981 1331 3520 
Q 928 3059 928 2222 
Q 928 1388 1356 905 
Q 1784 422 2541 422 
Q 2972 422 3345 553 
Q 3719 684 3950 909 
L 3950 1703 
L 2634 1703 
L 2634 2203 
L 4500 2203 
L 4500 684 
Q 4150 328 3642 132 
Q 3134 -63 2541 -63 
Q 1850 -63 1350 212 
Q 850 488 586 1005 
Q 322 1522 322 2222 
z
" transform="scale(0.015625)"/>
       <path id="LiberationSans-41" d="M 3647 0 
L 3144 1288 
L 1138 1288 
L 631 0 
L 13 0 
L 1809 4403 
L 2488 4403 
L 4256 0 
L 3647 0 
z
M 2141 3953 
L 2113 3866 
Q 2034 3606 1881 3200 
L 1319 1753 
L 2966 1753 
L 2400 3206 
Q 2313 3422 2225 3694 
L 2141 3953 
z
" transform="scale(0.015625)"/>
       <path id="LiberationSans-4e" d="M 3381 0 
L 1025 3750 
L 1041 3447 
L 1056 2925 
L 1056 0 
L 525 0 
L 525 4403 
L 1219 4403 
L 3600 628 
Q 3563 1241 3563 1516 
L 3563 4403 
L 4100 4403 
L 4100 0 
L 3381 0 
z
" transform="scale(0.015625)"/>
      </defs>
      <use xlink:href="#LiberationSans-47"/>
      <use xlink:href="#LiberationSans-41" x="77.783203"/>
      <use xlink:href="#LiberationSans-4e" x="144.482422"/>
      <use xlink:href="#LiberationSans-73" x="216.699219"/>
     </g>
    </g>
   </g>
  </g>
 </g>
 <defs>
  <clipPath id="p6158094928">
   <rect x="87" y="39.1875" width="616.279488" height="601.131"/>
  </clipPath>
 </defs>
</svg>
