<?xml version="1.0" encoding="utf-8" standalone="no"?>
<!DOCTYPE svg PUBLIC "-//W3C//DTD SVG 1.1//EN"
  "http://www.w3.org/Graphics/SVG/1.1/DTD/svg11.dtd">
<svg xmlns:xlink="http://www.w3.org/1999/xlink" width="710.647477pt" height="711.02175pt" viewBox="0 0 710.647477 711.02175" xmlns="http://www.w3.org/2000/svg" version="1.1">
 <metadata>
  <rdf:RDF xmlns:dc="http://purl.org/dc/elements/1.1/" xmlns:cc="http://creativecommons.org/ns#" xmlns:rdf="http://www.w3.org/1999/02/22-rdf-syntax-ns#">
   <cc:Work>
    <dc:type rdf:resource="http://purl.org/dc/dcmitype/StillImage"/>
    <dc:date>2025-02-02T18:50:45.053244</dc:date>
    <dc:format>image/svg+xml</dc:format>
    <dc:creator>
     <cc:Agent>
      <dc:title>Matplotlib v3.9.3, https://matplotlib.org/</dc:title>
     </cc:Agent>
    </dc:creator>
   </cc:Work>
  </rdf:RDF>
 </metadata>
 <defs>
  <style type="text/css">*{stroke-linejoin: round; stroke-linecap: butt}</style>
 </defs>
 <g id="figure_1">
  <g id="patch_1">
   <path d="M 0 711.02175 
L 710.647477 711.02175 
L 710.647477 0 
L 0 0 
z
" style="fill: #ffffff"/>
  </g>
  <g id="axes_1">
   <g id="patch_2">
    <path d="M 104.4 640.3905 
L 703.447477 640.3905 
L 703.447477 39.1875 
L 104.4 39.1875 
z
" style="fill: #ffffff"/>
   </g>
   <g id="matplotlib.axis_1">
    <g id="xtick_1">
     <g id="line2d_1">
      <defs>
       <path id="m3e7474a9bc" d="M 0 0 
L 0 -3.5 
" style="stroke: #000000; stroke-width: 0.8"/>
      </defs>
      <g>
       <use xlink:href="#m3e7474a9bc" x="131.574966" y="640.3905" style="stroke: #000000; stroke-width: 0.8"/>
      </g>
     </g>
     <g id="text_1">
      <!-- 0 -->
      <g transform="translate(123.23356 665.631125) scale(0.3 -0.3)">
       <defs>
        <path id="LiberationSans-30" d="M 3309 2203 
Q 3309 1100 2920 518 
Q 2531 -63 1772 -63 
Q 1013 -63 631 515 
Q 250 1094 250 2203 
Q 250 3338 620 3903 
Q 991 4469 1791 4469 
Q 2569 4469 2939 3897 
Q 3309 3325 3309 2203 
z
M 2738 2203 
Q 2738 3156 2517 3584 
Q 2297 4013 1791 4013 
Q 1272 4013 1045 3591 
Q 819 3169 819 2203 
Q 819 1266 1048 831 
Q 1278 397 1778 397 
Q 2275 397 2506 840 
Q 2738 1284 2738 2203 
z
" transform="scale(0.015625)"/>
       </defs>
       <use xlink:href="#LiberationSans-30"/>
      </g>
     </g>
    </g>
    <g id="xtick_2">
     <g id="line2d_2">
      <g>
       <use xlink:href="#m3e7474a9bc" x="240.503582" y="640.3905" style="stroke: #000000; stroke-width: 0.8"/>
      </g>
     </g>
     <g id="text_2">
      <!-- 2 -->
      <g transform="translate(232.162176 665.631125) scale(0.3 -0.3)">
       <defs>
        <path id="LiberationSans-32" d="M 322 0 
L 322 397 
Q 481 763 711 1042 
Q 941 1322 1194 1548 
Q 1447 1775 1695 1969 
Q 1944 2163 2144 2356 
Q 2344 2550 2467 2762 
Q 2591 2975 2591 3244 
Q 2591 3606 2378 3806 
Q 2166 4006 1788 4006 
Q 1428 4006 1195 3811 
Q 963 3616 922 3263 
L 347 3316 
Q 409 3844 795 4156 
Q 1181 4469 1788 4469 
Q 2453 4469 2811 4155 
Q 3169 3841 3169 3263 
Q 3169 3006 3051 2753 
Q 2934 2500 2703 2247 
Q 2472 1994 1819 1463 
Q 1459 1169 1246 933 
Q 1034 697 941 478 
L 3238 478 
L 3238 0 
L 322 0 
z
" transform="scale(0.015625)"/>
       </defs>
       <use xlink:href="#LiberationSans-32"/>
      </g>
     </g>
    </g>
    <g id="xtick_3">
     <g id="line2d_3">
      <g>
       <use xlink:href="#m3e7474a9bc" x="349.432198" y="640.3905" style="stroke: #000000; stroke-width: 0.8"/>
      </g>
     </g>
     <g id="text_3">
      <!-- 4 -->
      <g transform="translate(341.090792 665.631125) scale(0.3 -0.3)">
       <defs>
        <path id="LiberationSans-34" d="M 2753 997 
L 2753 0 
L 2222 0 
L 2222 997 
L 147 997 
L 147 1434 
L 2163 4403 
L 2753 4403 
L 2753 1441 
L 3372 1441 
L 3372 997 
L 2753 997 
z
M 2222 3769 
Q 2216 3750 2134 3603 
Q 2053 3456 2013 3397 
L 884 1734 
L 716 1503 
L 666 1441 
L 2222 1441 
L 2222 3769 
z
" transform="scale(0.015625)"/>
       </defs>
       <use xlink:href="#LiberationSans-34"/>
      </g>
     </g>
    </g>
    <g id="xtick_4">
     <g id="line2d_4">
      <g>
       <use xlink:href="#m3e7474a9bc" x="458.360814" y="640.3905" style="stroke: #000000; stroke-width: 0.8"/>
      </g>
     </g>
     <g id="text_4">
      <!-- 6 -->
      <g transform="translate(450.019408 665.631125) scale(0.3 -0.3)">
       <defs>
        <path id="LiberationSans-36" d="M 3278 1441 
Q 3278 744 2900 340 
Q 2522 -63 1856 -63 
Q 1113 -63 719 490 
Q 325 1044 325 2100 
Q 325 3244 734 3856 
Q 1144 4469 1900 4469 
Q 2897 4469 3156 3572 
L 2619 3475 
Q 2453 4013 1894 4013 
Q 1413 4013 1148 3564 
Q 884 3116 884 2266 
Q 1038 2550 1316 2698 
Q 1594 2847 1953 2847 
Q 2563 2847 2920 2465 
Q 3278 2084 3278 1441 
z
M 2706 1416 
Q 2706 1894 2472 2153 
Q 2238 2413 1819 2413 
Q 1425 2413 1183 2183 
Q 941 1953 941 1550 
Q 941 1041 1192 716 
Q 1444 391 1838 391 
Q 2244 391 2475 664 
Q 2706 938 2706 1416 
z
" transform="scale(0.015625)"/>
       </defs>
       <use xlink:href="#LiberationSans-36"/>
      </g>
     </g>
    </g>
    <g id="xtick_5">
     <g id="line2d_5">
      <g>
       <use xlink:href="#m3e7474a9bc" x="567.28943" y="640.3905" style="stroke: #000000; stroke-width: 0.8"/>
      </g>
     </g>
     <g id="text_5">
      <!-- 8 -->
      <g transform="translate(558.948024 665.631125) scale(0.3 -0.3)">
       <defs>
        <path id="LiberationSans-38" d="M 3281 1228 
Q 3281 619 2893 278 
Q 2506 -63 1781 -63 
Q 1075 -63 676 271 
Q 278 606 278 1222 
Q 278 1653 525 1947 
Q 772 2241 1156 2303 
L 1156 2316 
Q 797 2400 589 2681 
Q 381 2963 381 3341 
Q 381 3844 757 4156 
Q 1134 4469 1769 4469 
Q 2419 4469 2795 4162 
Q 3172 3856 3172 3334 
Q 3172 2956 2962 2675 
Q 2753 2394 2391 2322 
L 2391 2309 
Q 2813 2241 3047 1952 
Q 3281 1663 3281 1228 
z
M 2588 3303 
Q 2588 4050 1769 4050 
Q 1372 4050 1164 3862 
Q 956 3675 956 3303 
Q 956 2925 1170 2726 
Q 1384 2528 1775 2528 
Q 2172 2528 2380 2711 
Q 2588 2894 2588 3303 
z
M 2697 1281 
Q 2697 1691 2453 1898 
Q 2209 2106 1769 2106 
Q 1341 2106 1100 1882 
Q 859 1659 859 1269 
Q 859 359 1788 359 
Q 2247 359 2472 579 
Q 2697 800 2697 1281 
z
" transform="scale(0.015625)"/>
       </defs>
       <use xlink:href="#LiberationSans-38"/>
      </g>
     </g>
    </g>
    <g id="xtick_6">
     <g id="line2d_6">
      <g>
       <use xlink:href="#m3e7474a9bc" x="676.218046" y="640.3905" style="stroke: #000000; stroke-width: 0.8"/>
      </g>
     </g>
     <g id="text_6">
      <!-- 10 -->
      <g transform="translate(659.535233 665.631125) scale(0.3 -0.3)">
       <defs>
        <path id="LiberationSans-31" d="M 488 0 
L 488 478 
L 1609 478 
L 1609 3866 
L 616 3156 
L 616 3688 
L 1656 4403 
L 2175 4403 
L 2175 478 
L 3247 478 
L 3247 0 
L 488 0 
z
" transform="scale(0.015625)"/>
       </defs>
       <use xlink:href="#LiberationSans-31"/>
       <use xlink:href="#LiberationSans-30" x="55.615234"/>
      </g>
     </g>
    </g>
    <g id="xtick_7">
     <g id="line2d_7">
      <defs>
       <path id="mbddca56ac3" d="M 0 0 
L 0 -2 
" style="stroke: #000000; stroke-width: 0.6"/>
      </defs>
      <g>
       <use xlink:href="#mbddca56ac3" x="158.80712" y="640.3905" style="stroke: #000000; stroke-width: 0.6"/>
      </g>
     </g>
    </g>
    <g id="xtick_8">
     <g id="line2d_8">
      <g>
       <use xlink:href="#mbddca56ac3" x="186.039274" y="640.3905" style="stroke: #000000; stroke-width: 0.6"/>
      </g>
     </g>
    </g>
    <g id="xtick_9">
     <g id="line2d_9">
      <g>
       <use xlink:href="#mbddca56ac3" x="213.271428" y="640.3905" style="stroke: #000000; stroke-width: 0.6"/>
      </g>
     </g>
    </g>
    <g id="xtick_10">
     <g id="line2d_10">
      <g>
       <use xlink:href="#mbddca56ac3" x="267.735736" y="640.3905" style="stroke: #000000; stroke-width: 0.6"/>
      </g>
     </g>
    </g>
    <g id="xtick_11">
     <g id="line2d_11">
      <g>
       <use xlink:href="#mbddca56ac3" x="294.96789" y="640.3905" style="stroke: #000000; stroke-width: 0.6"/>
      </g>
     </g>
    </g>
    <g id="xtick_12">
     <g id="line2d_12">
      <g>
       <use xlink:href="#mbddca56ac3" x="322.200044" y="640.3905" style="stroke: #000000; stroke-width: 0.6"/>
      </g>
     </g>
    </g>
    <g id="xtick_13">
     <g id="line2d_13">
      <g>
       <use xlink:href="#mbddca56ac3" x="376.664352" y="640.3905" style="stroke: #000000; stroke-width: 0.6"/>
      </g>
     </g>
    </g>
    <g id="xtick_14">
     <g id="line2d_14">
      <g>
       <use xlink:href="#mbddca56ac3" x="403.896506" y="640.3905" style="stroke: #000000; stroke-width: 0.6"/>
      </g>
     </g>
    </g>
    <g id="xtick_15">
     <g id="line2d_15">
      <g>
       <use xlink:href="#mbddca56ac3" x="431.12866" y="640.3905" style="stroke: #000000; stroke-width: 0.6"/>
      </g>
     </g>
    </g>
    <g id="xtick_16">
     <g id="line2d_16">
      <g>
       <use xlink:href="#mbddca56ac3" x="485.592968" y="640.3905" style="stroke: #000000; stroke-width: 0.6"/>
      </g>
     </g>
    </g>
    <g id="xtick_17">
     <g id="line2d_17">
      <g>
       <use xlink:href="#mbddca56ac3" x="512.825122" y="640.3905" style="stroke: #000000; stroke-width: 0.6"/>
      </g>
     </g>
    </g>
    <g id="xtick_18">
     <g id="line2d_18">
      <g>
       <use xlink:href="#mbddca56ac3" x="540.057276" y="640.3905" style="stroke: #000000; stroke-width: 0.6"/>
      </g>
     </g>
    </g>
    <g id="xtick_19">
     <g id="line2d_19">
      <g>
       <use xlink:href="#mbddca56ac3" x="594.521584" y="640.3905" style="stroke: #000000; stroke-width: 0.6"/>
      </g>
     </g>
    </g>
    <g id="xtick_20">
     <g id="line2d_20">
      <g>
       <use xlink:href="#mbddca56ac3" x="621.753738" y="640.3905" style="stroke: #000000; stroke-width: 0.6"/>
      </g>
     </g>
    </g>
    <g id="xtick_21">
     <g id="line2d_21">
      <g>
       <use xlink:href="#mbddca56ac3" x="648.985892" y="640.3905" style="stroke: #000000; stroke-width: 0.6"/>
      </g>
     </g>
    </g>
    <g id="text_7">
     <!-- Time ps -->
     <g transform="translate(351.147176 697.59675) scale(0.3 -0.3)">
      <defs>
       <path id="LiberationSans-54" d="M 2250 3916 
L 2250 0 
L 1656 0 
L 1656 3916 
L 144 3916 
L 144 4403 
L 3763 4403 
L 3763 3916 
L 2250 3916 
z
" transform="scale(0.015625)"/>
       <path id="LiberationSans-69" d="M 428 4100 
L 428 4638 
L 991 4638 
L 991 4100 
L 428 4100 
z
M 428 0 
L 428 3381 
L 991 3381 
L 991 0 
L 428 0 
z
" transform="scale(0.015625)"/>
       <path id="LiberationSans-6d" d="M 2400 0 
L 2400 2144 
Q 2400 2634 2265 2821 
Q 2131 3009 1781 3009 
Q 1422 3009 1212 2734 
Q 1003 2459 1003 1959 
L 1003 0 
L 444 0 
L 444 2659 
Q 444 3250 425 3381 
L 956 3381 
Q 959 3366 962 3297 
Q 966 3228 970 3139 
Q 975 3050 981 2803 
L 991 2803 
Q 1172 3163 1406 3303 
Q 1641 3444 1978 3444 
Q 2363 3444 2586 3291 
Q 2809 3138 2897 2803 
L 2906 2803 
Q 3081 3144 3329 3294 
Q 3578 3444 3931 3444 
Q 4444 3444 4676 3166 
Q 4909 2888 4909 2253 
L 4909 0 
L 4353 0 
L 4353 2144 
Q 4353 2634 4218 2821 
Q 4084 3009 3734 3009 
Q 3366 3009 3161 2736 
Q 2956 2463 2956 1959 
L 2956 0 
L 2400 0 
z
" transform="scale(0.015625)"/>
       <path id="LiberationSans-65" d="M 863 1572 
Q 863 991 1103 675 
Q 1344 359 1806 359 
Q 2172 359 2392 506 
Q 2613 653 2691 878 
L 3184 738 
Q 2881 -63 1806 -63 
Q 1056 -63 664 384 
Q 272 831 272 1713 
Q 272 2550 664 2997 
Q 1056 3444 1784 3444 
Q 3275 3444 3275 1647 
L 3275 1572 
L 863 1572 
z
M 2694 2003 
Q 2647 2538 2422 2783 
Q 2197 3028 1775 3028 
Q 1366 3028 1127 2754 
Q 888 2481 869 2003 
L 2694 2003 
z
" transform="scale(0.015625)"/>
       <path id="LiberationSans-20" transform="scale(0.015625)"/>
       <path id="LiberationSans-70" d="M 3291 1706 
Q 3291 -63 2047 -63 
Q 1266 -63 997 525 
L 981 525 
Q 994 500 994 -6 
L 994 -1328 
L 431 -1328 
L 431 2691 
Q 431 3213 413 3381 
L 956 3381 
Q 959 3369 965 3292 
Q 972 3216 980 3056 
Q 988 2897 988 2838 
L 1000 2838 
Q 1150 3150 1397 3295 
Q 1644 3441 2047 3441 
Q 2672 3441 2981 3022 
Q 3291 2603 3291 1706 
z
M 2700 1694 
Q 2700 2400 2509 2703 
Q 2319 3006 1903 3006 
Q 1569 3006 1380 2865 
Q 1191 2725 1092 2426 
Q 994 2128 994 1650 
Q 994 984 1206 668 
Q 1419 353 1897 353 
Q 2316 353 2508 661 
Q 2700 969 2700 1694 
z
" transform="scale(0.015625)"/>
       <path id="LiberationSans-73" d="M 2969 934 
Q 2969 456 2608 196 
Q 2247 -63 1597 -63 
Q 966 -63 623 145 
Q 281 353 178 794 
L 675 891 
Q 747 619 972 492 
Q 1197 366 1597 366 
Q 2025 366 2223 497 
Q 2422 628 2422 891 
Q 2422 1091 2284 1216 
Q 2147 1341 1841 1422 
L 1438 1528 
Q 953 1653 748 1773 
Q 544 1894 428 2066 
Q 313 2238 313 2488 
Q 313 2950 642 3192 
Q 972 3434 1603 3434 
Q 2163 3434 2492 3237 
Q 2822 3041 2909 2606 
L 2403 2544 
Q 2356 2769 2151 2889 
Q 1947 3009 1603 3009 
Q 1222 3009 1040 2893 
Q 859 2778 859 2544 
Q 859 2400 934 2306 
Q 1009 2213 1156 2147 
Q 1303 2081 1775 1966 
Q 2222 1853 2419 1758 
Q 2616 1663 2730 1547 
Q 2844 1431 2906 1279 
Q 2969 1128 2969 934 
z
" transform="scale(0.015625)"/>
      </defs>
      <use xlink:href="#LiberationSans-54"/>
      <use xlink:href="#LiberationSans-69" x="57.333984"/>
      <use xlink:href="#LiberationSans-6d" x="79.550781"/>
      <use xlink:href="#LiberationSans-65" x="162.851562"/>
      <use xlink:href="#LiberationSans-20" x="218.466797"/>
      <use xlink:href="#LiberationSans-70" x="246.25"/>
      <use xlink:href="#LiberationSans-73" x="301.865234"/>
     </g>
    </g>
   </g>
   <g id="matplotlib.axis_2">
    <g id="ytick_1">
     <g id="line2d_22">
      <defs>
       <path id="ma4949c5cb0" d="M 0 0 
L 3.5 0 
" style="stroke: #000000; stroke-width: 0.8"/>
      </defs>
      <g>
       <use xlink:href="#ma4949c5cb0" x="104.4" y="564.173262" style="stroke: #000000; stroke-width: 0.8"/>
      </g>
     </g>
     <g id="text_8">
      <!-- $\mathdefault{−0.2}$ -->
      <g transform="translate(41.5 575.043574) scale(0.3 -0.3)">
       <defs>
        <path id="LiberationSans-2212" d="M 316 1900 
L 316 2356 
L 3425 2356 
L 3425 1900 
L 316 1900 
z
" transform="scale(0.015625)"/>
        <path id="LiberationSans-2e" d="M 584 0 
L 584 684 
L 1194 684 
L 1194 0 
L 584 0 
z
" transform="scale(0.015625)"/>
       </defs>
       <use xlink:href="#LiberationSans-2212" transform="translate(0 0.171875)"/>
       <use xlink:href="#LiberationSans-30" transform="translate(58.398438 0.171875)"/>
       <use xlink:href="#LiberationSans-2e" transform="translate(114.013672 0.171875)"/>
       <use xlink:href="#LiberationSans-32" transform="translate(141.796875 0.171875)"/>
      </g>
     </g>
    </g>
    <g id="ytick_2">
     <g id="line2d_23">
      <g>
       <use xlink:href="#ma4949c5cb0" x="104.4" y="476.921366" style="stroke: #000000; stroke-width: 0.8"/>
      </g>
     </g>
     <g id="text_9">
      <!-- $\mathdefault{0.0}$ -->
      <g transform="translate(58.9 487.791678) scale(0.3 -0.3)">
       <use xlink:href="#LiberationSans-30" transform="translate(0 0.171875)"/>
       <use xlink:href="#LiberationSans-2e" transform="translate(55.615234 0.171875)"/>
       <use xlink:href="#LiberationSans-30" transform="translate(83.398438 0.171875)"/>
      </g>
     </g>
    </g>
    <g id="ytick_3">
     <g id="line2d_24">
      <g>
       <use xlink:href="#ma4949c5cb0" x="104.4" y="389.66947" style="stroke: #000000; stroke-width: 0.8"/>
      </g>
     </g>
     <g id="text_10">
      <!-- $\mathdefault{0.2}$ -->
      <g transform="translate(58.9 400.539782) scale(0.3 -0.3)">
       <use xlink:href="#LiberationSans-30" transform="translate(0 0.171875)"/>
       <use xlink:href="#LiberationSans-2e" transform="translate(55.615234 0.171875)"/>
       <use xlink:href="#LiberationSans-32" transform="translate(83.398438 0.171875)"/>
      </g>
     </g>
    </g>
    <g id="ytick_4">
     <g id="line2d_25">
      <g>
       <use xlink:href="#ma4949c5cb0" x="104.4" y="302.417574" style="stroke: #000000; stroke-width: 0.8"/>
      </g>
     </g>
     <g id="text_11">
      <!-- $\mathdefault{0.4}$ -->
      <g transform="translate(58.9 313.287886) scale(0.3 -0.3)">
       <use xlink:href="#LiberationSans-30" transform="translate(0 0.171875)"/>
       <use xlink:href="#LiberationSans-2e" transform="translate(55.615234 0.171875)"/>
       <use xlink:href="#LiberationSans-34" transform="translate(83.398438 0.171875)"/>
      </g>
     </g>
    </g>
    <g id="ytick_5">
     <g id="line2d_26">
      <g>
       <use xlink:href="#ma4949c5cb0" x="104.4" y="215.165678" style="stroke: #000000; stroke-width: 0.8"/>
      </g>
     </g>
     <g id="text_12">
      <!-- $\mathdefault{0.6}$ -->
      <g transform="translate(58.9 226.03599) scale(0.3 -0.3)">
       <use xlink:href="#LiberationSans-30" transform="translate(0 0.171875)"/>
       <use xlink:href="#LiberationSans-2e" transform="translate(55.615234 0.171875)"/>
       <use xlink:href="#LiberationSans-36" transform="translate(83.398438 0.171875)"/>
      </g>
     </g>
    </g>
    <g id="ytick_6">
     <g id="line2d_27">
      <g>
       <use xlink:href="#ma4949c5cb0" x="104.4" y="127.913782" style="stroke: #000000; stroke-width: 0.8"/>
      </g>
     </g>
     <g id="text_13">
      <!-- $\mathdefault{0.8}$ -->
      <g transform="translate(58.9 138.784094) scale(0.3 -0.3)">
       <use xlink:href="#LiberationSans-30" transform="translate(0 0.171875)"/>
       <use xlink:href="#LiberationSans-2e" transform="translate(55.615234 0.171875)"/>
       <use xlink:href="#LiberationSans-38" transform="translate(83.398438 0.171875)"/>
      </g>
     </g>
    </g>
    <g id="ytick_7">
     <g id="line2d_28">
      <g>
       <use xlink:href="#ma4949c5cb0" x="104.4" y="40.661886" style="stroke: #000000; stroke-width: 0.8"/>
      </g>
     </g>
     <g id="text_14">
      <!-- $\mathdefault{1.0}$ -->
      <g transform="translate(58.9 51.532198) scale(0.3 -0.3)">
       <use xlink:href="#LiberationSans-31" transform="translate(0 0.171875)"/>
       <use xlink:href="#LiberationSans-2e" transform="translate(55.615234 0.171875)"/>
       <use xlink:href="#LiberationSans-30" transform="translate(83.398438 0.171875)"/>
      </g>
     </g>
    </g>
    <g id="ytick_8">
     <g id="line2d_29">
      <defs>
       <path id="m57228f626b" d="M 0 0 
L 2 0 
" style="stroke: #000000; stroke-width: 0.6"/>
      </defs>
      <g>
       <use xlink:href="#m57228f626b" x="104.4" y="629.612184" style="stroke: #000000; stroke-width: 0.6"/>
      </g>
     </g>
    </g>
    <g id="ytick_9">
     <g id="line2d_30">
      <g>
       <use xlink:href="#m57228f626b" x="104.4" y="607.79921" style="stroke: #000000; stroke-width: 0.6"/>
      </g>
     </g>
    </g>
    <g id="ytick_10">
     <g id="line2d_31">
      <g>
       <use xlink:href="#m57228f626b" x="104.4" y="585.986236" style="stroke: #000000; stroke-width: 0.6"/>
      </g>
     </g>
    </g>
    <g id="ytick_11">
     <g id="line2d_32">
      <g>
       <use xlink:href="#m57228f626b" x="104.4" y="542.360288" style="stroke: #000000; stroke-width: 0.6"/>
      </g>
     </g>
    </g>
    <g id="ytick_12">
     <g id="line2d_33">
      <g>
       <use xlink:href="#m57228f626b" x="104.4" y="520.547314" style="stroke: #000000; stroke-width: 0.6"/>
      </g>
     </g>
    </g>
    <g id="ytick_13">
     <g id="line2d_34">
      <g>
       <use xlink:href="#m57228f626b" x="104.4" y="498.73434" style="stroke: #000000; stroke-width: 0.6"/>
      </g>
     </g>
    </g>
    <g id="ytick_14">
     <g id="line2d_35">
      <g>
       <use xlink:href="#m57228f626b" x="104.4" y="455.108392" style="stroke: #000000; stroke-width: 0.6"/>
      </g>
     </g>
    </g>
    <g id="ytick_15">
     <g id="line2d_36">
      <g>
       <use xlink:href="#m57228f626b" x="104.4" y="433.295418" style="stroke: #000000; stroke-width: 0.6"/>
      </g>
     </g>
    </g>
    <g id="ytick_16">
     <g id="line2d_37">
      <g>
       <use xlink:href="#m57228f626b" x="104.4" y="411.482444" style="stroke: #000000; stroke-width: 0.6"/>
      </g>
     </g>
    </g>
    <g id="ytick_17">
     <g id="line2d_38">
      <g>
       <use xlink:href="#m57228f626b" x="104.4" y="367.856496" style="stroke: #000000; stroke-width: 0.6"/>
      </g>
     </g>
    </g>
    <g id="ytick_18">
     <g id="line2d_39">
      <g>
       <use xlink:href="#m57228f626b" x="104.4" y="346.043522" style="stroke: #000000; stroke-width: 0.6"/>
      </g>
     </g>
    </g>
    <g id="ytick_19">
     <g id="line2d_40">
      <g>
       <use xlink:href="#m57228f626b" x="104.4" y="324.230548" style="stroke: #000000; stroke-width: 0.6"/>
      </g>
     </g>
    </g>
    <g id="ytick_20">
     <g id="line2d_41">
      <g>
       <use xlink:href="#m57228f626b" x="104.4" y="280.6046" style="stroke: #000000; stroke-width: 0.6"/>
      </g>
     </g>
    </g>
    <g id="ytick_21">
     <g id="line2d_42">
      <g>
       <use xlink:href="#m57228f626b" x="104.4" y="258.791626" style="stroke: #000000; stroke-width: 0.6"/>
      </g>
     </g>
    </g>
    <g id="ytick_22">
     <g id="line2d_43">
      <g>
       <use xlink:href="#m57228f626b" x="104.4" y="236.978652" style="stroke: #000000; stroke-width: 0.6"/>
      </g>
     </g>
    </g>
    <g id="ytick_23">
     <g id="line2d_44">
      <g>
       <use xlink:href="#m57228f626b" x="104.4" y="193.352704" style="stroke: #000000; stroke-width: 0.6"/>
      </g>
     </g>
    </g>
    <g id="ytick_24">
     <g id="line2d_45">
      <g>
       <use xlink:href="#m57228f626b" x="104.4" y="171.53973" style="stroke: #000000; stroke-width: 0.6"/>
      </g>
     </g>
    </g>
    <g id="ytick_25">
     <g id="line2d_46">
      <g>
       <use xlink:href="#m57228f626b" x="104.4" y="149.726756" style="stroke: #000000; stroke-width: 0.6"/>
      </g>
     </g>
    </g>
    <g id="ytick_26">
     <g id="line2d_47">
      <g>
       <use xlink:href="#m57228f626b" x="104.4" y="106.100808" style="stroke: #000000; stroke-width: 0.6"/>
      </g>
     </g>
    </g>
    <g id="ytick_27">
     <g id="line2d_48">
      <g>
       <use xlink:href="#m57228f626b" x="104.4" y="84.287834" style="stroke: #000000; stroke-width: 0.6"/>
      </g>
     </g>
    </g>
    <g id="ytick_28">
     <g id="line2d_49">
      <g>
       <use xlink:href="#m57228f626b" x="104.4" y="62.47486" style="stroke: #000000; stroke-width: 0.6"/>
      </g>
     </g>
    </g>
    <g id="text_15">
     <!-- HFACF $(\mathrm{W} / \mathrm{m}^2)^2$ -->
     <g transform="translate(31.275 446.289) rotate(-90) scale(0.3 -0.3)">
      <defs>
       <path id="LiberationSans-48" d="M 3503 0 
L 3503 2041 
L 1122 2041 
L 1122 0 
L 525 0 
L 525 4403 
L 1122 4403 
L 1122 2541 
L 3503 2541 
L 3503 4403 
L 4100 4403 
L 4100 0 
L 3503 0 
z
" transform="scale(0.015625)"/>
       <path id="LiberationSans-46" d="M 1122 3916 
L 1122 2278 
L 3578 2278 
L 3578 1784 
L 1122 1784 
L 1122 0 
L 525 0 
L 525 4403 
L 3653 4403 
L 3653 3916 
L 1122 3916 
z
" transform="scale(0.015625)"/>
       <path id="LiberationSans-41" d="M 3647 0 
L 3144 1288 
L 1138 1288 
L 631 0 
L 13 0 
L 1809 4403 
L 2488 4403 
L 4256 0 
L 3647 0 
z
M 2141 3953 
L 2113 3866 
Q 2034 3606 1881 3200 
L 1319 1753 
L 2966 1753 
L 2400 3206 
Q 2313 3422 2225 3694 
L 2141 3953 
z
" transform="scale(0.015625)"/>
       <path id="LiberationSans-43" d="M 2475 3981 
Q 1744 3981 1337 3511 
Q 931 3041 931 2222 
Q 931 1413 1354 920 
Q 1778 428 2500 428 
Q 3425 428 3891 1344 
L 4378 1100 
Q 4106 531 3614 234 
Q 3122 -63 2472 -63 
Q 1806 -63 1320 214 
Q 834 491 579 1005 
Q 325 1519 325 2222 
Q 325 3275 894 3872 
Q 1463 4469 2469 4469 
Q 3172 4469 3644 4194 
Q 4116 3919 4338 3378 
L 3772 3191 
Q 3619 3575 3280 3778 
Q 2941 3981 2475 3981 
z
" transform="scale(0.015625)"/>
       <path id="STIXGeneral-Regular-28" d="M 1946 -1030 
L 1869 -1133 
Q 1126 -710 716 32 
Q 307 774 307 1613 
Q 307 3386 1888 4326 
L 1946 4224 
Q 1293 3667 1075 3126 
Q 858 2586 858 1632 
Q 858 685 1082 96 
Q 1306 -493 1946 -1030 
z
" transform="scale(0.015625)"/>
       <path id="STIXGeneral-Regular-57" d="M 5965 4237 
L 5965 4115 
Q 5709 4064 5616 3990 
Q 5523 3917 5434 3667 
Q 4704 1709 4128 -70 
L 4032 -70 
Q 3642 1011 3008 2637 
L 2022 -70 
L 1926 -70 
Q 1709 576 1277 1753 
Q 845 2931 698 3347 
Q 538 3808 406 3958 
Q 275 4109 32 4115 
L 32 4237 
L 1594 4237 
L 1594 4115 
Q 1357 4109 1270 4064 
Q 1184 4019 1184 3917 
Q 1184 3808 1254 3616 
L 2176 1210 
L 2842 3021 
L 2662 3501 
Q 2509 3917 2400 4013 
Q 2291 4109 2010 4115 
L 2010 4237 
L 3706 4237 
L 3706 4115 
Q 3213 4102 3213 3891 
Q 3213 3808 3322 3520 
L 4237 1190 
L 5043 3360 
Q 5152 3667 5152 3853 
Q 5152 4109 4704 4115 
L 4704 4237 
L 5965 4237 
z
" transform="scale(0.015625)"/>
       <path id="STIXGeneral-Regular-2f" d="M 1837 4326 
L 378 -90 
L -58 -90 
L 1408 4326 
L 1837 4326 
z
" transform="scale(0.015625)"/>
       <path id="STIXGeneral-Regular-6d" d="M 4960 0 
L 3565 0 
L 3565 96 
Q 3834 122 3907 208 
Q 3981 294 3981 576 
L 3981 1894 
Q 3981 2278 3869 2444 
Q 3757 2611 3488 2611 
Q 3264 2611 3107 2521 
Q 2950 2432 2803 2221 
L 2803 608 
Q 2803 301 2896 201 
Q 2989 102 3264 96 
L 3264 0 
L 1830 0 
L 1830 96 
Q 2112 115 2189 188 
Q 2266 262 2266 550 
L 2266 1901 
Q 2266 2611 1850 2611 
Q 1670 2611 1468 2531 
Q 1267 2451 1171 2336 
Q 1088 2240 1088 2227 
L 1088 448 
Q 1088 243 1177 176 
Q 1267 109 1523 96 
L 1523 0 
L 102 0 
L 102 96 
Q 371 102 460 195 
Q 550 288 550 563 
L 550 2150 
Q 550 2387 499 2480 
Q 448 2573 326 2573 
Q 230 2573 122 2547 
L 122 2656 
Q 557 2778 1011 2944 
L 1062 2925 
L 1062 2451 
L 1075 2451 
Q 1363 2752 1584 2848 
Q 1805 2944 2054 2944 
Q 2560 2944 2733 2406 
Q 3232 2944 3776 2944 
Q 4518 2944 4518 1792 
L 4518 493 
Q 4518 282 4582 202 
Q 4646 122 4794 109 
L 4960 96 
L 4960 0 
z
" transform="scale(0.015625)"/>
       <path id="STIXGeneral-Regular-32" d="M 3034 877 
L 2688 0 
L 186 0 
L 186 77 
L 1325 1286 
Q 1773 1754 1965 2144 
Q 2157 2534 2157 2950 
Q 2157 3379 1920 3616 
Q 1683 3853 1267 3853 
Q 922 3853 720 3673 
Q 518 3494 326 3021 
L 192 3053 
Q 301 3648 630 3987 
Q 960 4326 1523 4326 
Q 2054 4326 2380 4006 
Q 2707 3686 2707 3200 
Q 2707 2477 1888 1613 
L 832 486 
L 2330 486 
Q 2541 486 2665 569 
Q 2790 653 2944 915 
L 3034 877 
z
" transform="scale(0.015625)"/>
       <path id="STIXGeneral-Regular-29" d="M 186 4224 
L 262 4326 
Q 992 3891 1408 3148 
Q 1824 2406 1824 1581 
Q 1824 -166 243 -1133 
L 186 -1030 
Q 845 -486 1059 54 
Q 1274 595 1274 1562 
Q 1274 2534 1059 3120 
Q 845 3706 186 4224 
z
" transform="scale(0.015625)"/>
      </defs>
      <use xlink:href="#LiberationSans-48" transform="translate(0 0.409375)"/>
      <use xlink:href="#LiberationSans-46" transform="translate(72.216797 0.409375)"/>
      <use xlink:href="#LiberationSans-41" transform="translate(133.300781 0.409375)"/>
      <use xlink:href="#LiberationSans-43" transform="translate(200 0.409375)"/>
      <use xlink:href="#LiberationSans-46" transform="translate(272.216797 0.409375)"/>
      <use xlink:href="#LiberationSans-20" transform="translate(333.300781 0.409375)"/>
      <use xlink:href="#STIXGeneral-Regular-28" transform="translate(361.083984 0.409375)"/>
      <use xlink:href="#STIXGeneral-Regular-57" transform="translate(394.383972 0.409375)"/>
      <use xlink:href="#STIXGeneral-Regular-2f" transform="translate(488.783966 0.409375)"/>
      <use xlink:href="#STIXGeneral-Regular-6d" transform="translate(516.583954 0.409375)"/>
      <use xlink:href="#STIXGeneral-Regular-32" transform="translate(595.927223 35.684375) scale(0.7)"/>
      <use xlink:href="#STIXGeneral-Regular-29" transform="translate(635.336587 0.409375)"/>
      <use xlink:href="#STIXGeneral-Regular-32" transform="translate(670.179856 35.684375) scale(0.7)"/>
     </g>
    </g>
    <g id="text_16">
     <!-- $\times\mathdefault{10^{19}}\mathdefault{}$ -->
     <g transform="translate(104.4 36.1875) scale(0.4 -0.4)">
      <defs>
       <path id="STIXGeneral-Regular-d7" d="M 3821 141 
L 3526 -160 
L 2048 1312 
L 570 -160 
L 275 134 
L 1747 1613 
L 275 3091 
L 576 3386 
L 2048 1914 
L 3526 3386 
L 3821 3098 
L 2349 1613 
L 3821 141 
z
" transform="scale(0.015625)"/>
       <path id="LiberationSans-39" d="M 3256 2291 
Q 3256 1156 2842 546 
Q 2428 -63 1663 -63 
Q 1147 -63 836 154 
Q 525 372 391 856 
L 928 941 
Q 1097 391 1672 391 
Q 2156 391 2422 841 
Q 2688 1291 2700 2125 
Q 2575 1844 2272 1673 
Q 1969 1503 1606 1503 
Q 1013 1503 656 1909 
Q 300 2316 300 2988 
Q 300 3678 687 4073 
Q 1075 4469 1766 4469 
Q 2500 4469 2878 3925 
Q 3256 3381 3256 2291 
z
M 2644 2834 
Q 2644 3366 2400 3689 
Q 2156 4013 1747 4013 
Q 1341 4013 1106 3736 
Q 872 3459 872 2988 
Q 872 2506 1106 2226 
Q 1341 1947 1741 1947 
Q 1984 1947 2193 2058 
Q 2403 2169 2523 2372 
Q 2644 2575 2644 2834 
z
" transform="scale(0.015625)"/>
      </defs>
      <use xlink:href="#STIXGeneral-Regular-d7" transform="translate(0 0.140625)"/>
      <use xlink:href="#LiberationSans-31" transform="translate(63.999985 0.140625)"/>
      <use xlink:href="#LiberationSans-30" transform="translate(119.615219 0.140625)"/>
      <use xlink:href="#LiberationSans-31" transform="translate(176.154946 37.120312) scale(0.7)"/>
      <use xlink:href="#LiberationSans-39" transform="translate(215.08561 37.120312) scale(0.7)"/>
     </g>
    </g>
   </g>
   <g id="line2d_50">
    <path d="M 131.629431 66.514909 
L 131.792824 83.401822 
L 132.010681 92.409212 
L 132.391931 121.167046 
L 132.88211 178.059467 
L 133.699074 302.581949 
L 135.115146 512.69594 
L 135.714254 571.128984 
L 136.204433 599.907225 
L 136.531218 609.913432 
L 136.80354 612.945291 
L 136.858004 613.063091 
L 137.075862 612.073573 
L 137.348183 608.010073 
L 138.001755 588.880407 
L 139.96247 523.624103 
L 140.507113 513.775164 
L 140.997292 507.171817 
L 141.541935 501.755536 
L 142.794614 484.950347 
L 143.829436 467.555442 
L 144.864258 455.124289 
L 145.082115 453.602912 
L 145.136579 453.48199 
L 145.354436 452.562097 
L 145.517829 452.121408 
L 145.572294 452.407344 
L 145.626758 452.230923 
L 145.681222 452.156189 
L 145.844615 452.492544 
L 145.899079 452.522991 
L 146.334794 454.515846 
L 149.493724 489.53374 
L 149.602652 490.056735 
L 149.874974 491.658449 
L 150.474081 493.96356 
L 150.528546 493.979472 
L 150.855331 494.660696 
L 151.127653 494.809102 
L 151.291046 495.146419 
L 151.399975 495.230649 
L 151.454439 495.340892 
L 151.508903 495.171148 
L 151.672296 495.544783 
L 151.835689 495.440735 
L 152.053546 495.709708 
L 152.216939 495.595146 
L 152.271403 495.622003 
L 152.380332 495.900437 
L 152.489261 495.590837 
L 152.543725 495.67586 
L 152.598189 495.745378 
L 152.761582 495.538984 
L 152.816047 495.549454 
L 152.979439 495.261509 
L 153.033904 495.28566 
L 153.524083 493.662018 
L 154.12319 490.033084 
L 155.811583 476.976923 
L 156.737477 469.632676 
L 157.064263 467.558557 
L 157.826763 463.136319 
L 158.371406 460.557728 
L 158.80712 459.443538 
L 158.970513 459.437376 
L 159.024978 459.443026 
L 159.133906 459.230606 
L 159.188371 459.250143 
L 159.351763 459.492837 
L 159.406228 459.392168 
L 159.460692 459.434578 
L 159.624085 459.810568 
L 160.332121 463.214314 
L 160.8223 467.103305 
L 161.530336 473.925913 
L 163.218729 487.925072 
L 163.708908 489.966958 
L 164.035694 490.648435 
L 164.090158 490.590924 
L 164.199087 490.81734 
L 164.253551 490.737978 
L 164.36248 490.93312 
L 164.416944 490.746445 
L 164.471408 490.791246 
L 164.74373 490.734812 
L 164.961587 490.30061 
L 165.12498 490.049747 
L 165.560695 488.502674 
L 166.050873 486.185339 
L 166.432124 484.332657 
L 166.813374 482.300479 
L 167.90266 478.679911 
L 168.501767 477.801773 
L 168.556232 477.856354 
L 168.774089 477.70705 
L 168.937482 477.857368 
L 168.991946 477.795754 
L 169.04641 477.853394 
L 169.318732 478.149911 
L 169.536589 478.480426 
L 169.591053 478.4476 
L 169.645518 478.724413 
L 169.699982 478.585233 
L 169.863375 478.714108 
L 169.917839 478.649445 
L 170.135696 478.641429 
L 170.190161 478.509677 
L 170.244625 478.569378 
L 170.462482 478.519882 
L 171.06159 477.141621 
L 173.349091 468.902355 
L 173.675876 468.17474 
L 173.893734 467.915023 
L 174.111591 467.629228 
L 174.166055 467.667718 
L 174.329448 467.657103 
L 174.383912 467.541048 
L 174.438377 467.608308 
L 174.60177 467.746787 
L 174.765163 467.967579 
L 175.091948 468.407744 
L 175.200877 468.678132 
L 176.50802 472.617742 
L 176.834806 473.703539 
L 178.196414 477.993666 
L 178.577664 478.963744 
L 178.632129 478.872931 
L 178.90445 479.426245 
L 179.449093 480.121005 
L 179.830343 480.246189 
L 179.993736 480.059322 
L 180.647308 479.396759 
L 181.573201 477.851721 
L 181.845523 477.380284 
L 181.899987 477.413094 
L 182.117844 476.996458 
L 182.172309 477.029297 
L 182.390166 476.631355 
L 182.499094 476.40031 
L 184.623202 472.315671 
L 185.22231 471.659947 
L 185.276774 471.731963 
L 185.331238 471.644959 
L 185.60356 471.785885 
L 185.821417 472.028025 
L 186.039274 472.471562 
L 186.093739 472.058968 
L 186.257132 472.646707 
L 186.74731 473.224649 
L 187.455346 474.568088 
L 188.925883 476.740652 
L 189.307133 477.041279 
L 189.742847 477.438622 
L 189.960705 477.543351 
L 190.178562 477.759357 
L 190.341955 477.870917 
L 192.520527 479.265439 
L 194.045528 479.179574 
L 194.590171 478.897603 
L 195.298207 478.604192 
L 196.659814 477.838029 
L 197.476779 477.068958 
L 198.674994 476.116537 
L 199.219637 475.90059 
L 199.437494 475.930396 
L 199.655351 475.874117 
L 204.284818 475.8387 
L 204.992854 476.243044 
L 205.591961 476.746347 
L 205.918747 477.080384 
L 207.280354 478.124456 
L 208.424105 478.113798 
L 209.186605 477.683231 
L 209.404462 477.511517 
L 209.731248 477.220704 
L 210.221427 476.809982 
L 211.964285 475.494227 
L 212.182142 475.427822 
L 212.508928 475.329913 
L 212.890178 475.37366 
L 213.053571 475.400631 
L 214.524107 476.701298 
L 214.959822 477.245155 
L 215.177679 477.4706 
L 215.558929 477.917239 
L 216.266965 478.472624 
L 216.811608 478.780579 
L 217.683037 478.892469 
L 217.900895 478.877416 
L 219.153574 478.296857 
L 221.00536 476.283707 
L 221.332146 475.903736 
L 221.713396 475.514353 
L 221.985718 475.322327 
L 222.584825 475.0259 
L 222.911611 475.017446 
L 223.183932 475.00253 
L 223.78304 475.09172 
L 224.16429 475.201517 
L 226.070541 475.642648 
L 226.342862 475.680024 
L 226.833041 475.772778 
L 227.486613 475.92185 
L 227.758934 476.020388 
L 228.739292 476.616538 
L 229.011613 476.884661 
L 229.501792 477.348876 
L 230.1009 477.817004 
L 230.264292 477.904838 
L 230.591078 478.095288 
L 232.769651 479.224629 
L 234.02233 479.269658 
L 234.78483 478.748469 
L 234.948223 478.593937 
L 236.364295 477.086862 
L 236.800009 476.623857 
L 237.344652 476.050218 
L 237.508045 475.939342 
L 237.889296 475.598017 
L 238.70626 474.737816 
L 239.414296 473.831007 
L 240.013404 473.245011 
L 240.340189 473.099774 
L 240.503582 473.094498 
L 240.558047 472.646045 
L 240.72144 473.205264 
L 240.993761 473.43751 
L 241.538404 474.181226 
L 242.845548 476.105917 
L 244.152691 477.203144 
L 244.370548 477.403506 
L 244.533941 477.533751 
L 244.969656 477.949738 
L 245.133048 478.101586 
L 245.459834 478.40643 
L 247.202692 479.595529 
L 247.475014 479.612164 
L 247.856264 479.548162 
L 249.108943 478.752441 
L 249.980372 478.060154 
L 250.742872 477.352792 
L 250.906265 477.2176 
L 251.287515 476.828647 
L 251.559837 476.577207 
L 252.376801 475.762271 
L 252.921445 475.538423 
L 253.193766 475.459056 
L 253.629481 475.53971 
L 253.792873 475.571471 
L 255.916981 476.96463 
L 257.441982 477.533214 
L 258.095554 477.590503 
L 258.42234 477.562266 
L 260.219662 477.50321 
L 260.437519 477.473855 
L 260.600912 477.475291 
L 261.254484 477.354826 
L 261.417877 477.28464 
L 262.180377 476.931346 
L 263.814306 476.253671 
L 264.141092 476.230442 
L 264.685735 476.27193 
L 265.88395 476.479114 
L 266.210736 476.499011 
L 266.809843 476.490985 
L 267.300022 476.501203 
L 267.735736 476.511418 
L 268.334844 476.635933 
L 268.66163 476.710372 
L 269.04288 476.870787 
L 272.691988 478.069299 
L 272.855381 478.071819 
L 273.073238 478.131978 
L 274.325918 477.825825 
L 275.088418 477.23533 
L 275.415204 476.873951 
L 275.796454 476.488037 
L 276.450026 475.898121 
L 277.26699 475.36778 
L 277.539312 475.294492 
L 277.811633 475.197018 
L 278.02949 475.135942 
L 279.717884 475.001466 
L 279.935741 474.993228 
L 280.316991 474.986008 
L 280.480384 475.031476 
L 281.896456 475.473387 
L 282.277707 475.762512 
L 282.767885 476.195189 
L 283.149135 476.585124 
L 283.421457 476.900963 
L 284.565207 478.209897 
L 284.7286 478.338995 
L 285.055386 478.614357 
L 286.471458 479.651569 
L 287.342887 480.285079 
L 287.560744 480.408982 
L 287.941995 480.540384 
L 288.650031 480.510658 
L 289.085745 480.237197 
L 289.358067 480.024484 
L 290.66521 478.325284 
L 291.754496 476.504178 
L 292.244675 475.672857 
L 292.625925 475.015172 
L 294.423247 471.829139 
L 294.96789 471.490693 
L 295.022355 471.027212 
L 295.076819 471.498968 
L 295.458069 471.725704 
L 295.948248 472.378442 
L 296.601819 473.557428 
L 296.98307 474.28756 
L 299.433964 477.738014 
L 299.597356 477.944486 
L 299.924142 478.378948 
L 301.394679 479.770496 
L 301.884857 479.901333 
L 302.320572 479.858291 
L 302.865215 479.614876 
L 303.028608 479.537229 
L 303.464322 479.209324 
L 304.117894 478.731964 
L 306.786645 476.3229 
L 307.004502 476.119126 
L 308.257181 475.510585 
L 308.692896 475.524623 
L 310.817004 475.860645 
L 313.104505 476.699593 
L 313.649148 477.112021 
L 313.812541 477.24605 
L 314.139327 477.497068 
L 314.68397 478.021798 
L 314.901827 478.176609 
L 315.119684 478.337902 
L 315.555399 478.551044 
L 316.263435 478.603276 
L 316.535756 478.510644 
L 317.407185 478.02669 
L 317.679507 477.80505 
L 318.115221 477.478899 
L 318.333078 477.301623 
L 318.714329 477.050704 
L 319.041114 476.855863 
L 319.476829 476.638462 
L 319.694686 476.556337 
L 320.838437 476.142353 
L 322.363437 476.17784 
L 322.690223 476.298734 
L 323.561652 476.684468 
L 323.725045 476.702277 
L 324.051831 476.842076 
L 324.705402 476.984813 
L 325.032188 477.001188 
L 325.413438 476.977576 
L 325.740224 477.007697 
L 326.339332 476.936861 
L 326.502725 476.974227 
L 329.443797 476.923134 
L 330.424155 476.615764 
L 330.696476 476.574304 
L 330.914333 476.516839 
L 332.275941 476.496648 
L 332.548263 476.517727 
L 333.855406 476.627164 
L 334.236656 476.724958 
L 334.508978 476.721204 
L 334.726835 476.79164 
L 334.890228 476.793735 
L 335.816121 476.948596 
L 336.142907 477.048032 
L 336.360764 477.042894 
L 336.633086 477.156456 
L 337.014336 477.268628 
L 339.029515 477.679001 
L 339.301837 477.585384 
L 339.628623 477.515499 
L 339.900944 477.395478 
L 340.173266 477.327668 
L 340.391123 477.237981 
L 340.663445 477.203803 
L 340.935766 477.173683 
L 341.208088 477.218488 
L 343.441124 477.884282 
L 344.094696 477.926663 
L 345.946482 477.375988 
L 346.382197 477.100613 
L 346.817911 476.762853 
L 347.362554 476.138952 
L 348.451841 474.292098 
L 349.050948 473.423728 
L 349.268805 473.223579 
L 349.432198 473.117276 
L 349.486662 472.614911 
L 349.541127 473.084928 
L 349.922377 473.165849 
L 350.249163 473.41313 
L 352.754521 476.390307 
L 354.715236 478.057974 
L 355.096486 478.32648 
L 355.586665 478.661775 
L 355.967915 478.813884 
L 356.240237 478.928719 
L 356.40363 478.928946 
L 356.893808 478.944667 
L 359.017916 478.352572 
L 359.562559 478.080561 
L 359.725952 478.054362 
L 360.107203 477.792932 
L 360.978631 477.010296 
L 362.285775 476.045685 
L 363.266132 475.893041 
L 364.083097 476.021255 
L 364.24649 476.086196 
L 364.464347 476.131521 
L 365.172383 476.301729 
L 365.499169 476.42763 
L 365.989348 476.509966 
L 366.533991 476.536849 
L 366.915241 476.514853 
L 367.133098 476.537481 
L 367.895599 476.534502 
L 370.9456 477.609124 
L 371.163457 477.623493 
L 371.435779 477.687188 
L 372.4706 477.724918 
L 372.797386 477.698984 
L 373.124172 477.636733 
L 373.505422 477.552999 
L 373.941137 477.371327 
L 374.050065 477.321157 
L 375.24828 476.267773 
L 376.174173 475.31618 
L 376.991138 474.724149 
L 377.481317 474.64104 
L 377.699174 474.666087 
L 378.243817 474.858773 
L 379.55096 476.055104 
L 380.258996 477.061156 
L 380.80364 477.82653 
L 381.075961 478.271112 
L 381.239354 478.524457 
L 382.274176 479.6096 
L 382.927748 479.820646 
L 383.526855 479.554536 
L 386.576856 476.36137 
L 387.284892 475.890405 
L 389.136679 475.063867 
L 389.354536 475.011918 
L 389.899179 474.915036 
L 391.097394 475.11804 
L 391.587573 475.512023 
L 391.914358 475.864946 
L 392.459001 476.586352 
L 393.221502 477.801612 
L 394.528645 479.608936 
L 396.162574 480.885751 
L 397.034003 480.77197 
L 397.578646 480.301394 
L 401.009898 474.665443 
L 401.717934 473.909018 
L 402.970613 472.293527 
L 403.678649 471.735379 
L 403.896506 471.753944 
L 403.95097 471.252193 
L 404.114363 471.921422 
L 404.604542 472.592219 
L 405.312578 474.109964 
L 406.837579 476.644881 
L 408.580437 478.270748 
L 408.74383 478.334719 
L 409.070615 478.569235 
L 410.595616 478.88153 
L 410.976866 478.758904 
L 411.358116 478.62482 
L 412.501867 478.043374 
L 415.061689 477.079942 
L 415.878654 476.438441 
L 416.314368 476.221805 
L 416.58669 476.080134 
L 417.022404 475.980363 
L 417.240262 475.952857 
L 417.403654 475.966991 
L 417.675976 475.983295 
L 422.305442 476.994147 
L 422.523299 477.060274 
L 424.102764 477.421879 
L 424.647407 477.508541 
L 424.865265 477.515645 
L 425.137586 477.531122 
L 425.627765 477.486525 
L 425.791158 477.473072 
L 426.44473 477.410861 
L 426.608123 477.390448 
L 427.860802 477.378737 
L 429.167945 477.175428 
L 430.311695 476.455593 
L 430.801874 476.122581 
L 431.019731 476.045938 
L 431.292053 475.897789 
L 431.50991 475.834535 
L 431.89116 475.746813 
L 432.163482 475.766308 
L 432.708125 475.85681 
L 433.198304 476.05236 
L 433.851875 476.306172 
L 434.069733 476.410743 
L 434.28759 476.491858 
L 435.05009 476.876144 
L 435.376876 477.082111 
L 435.975984 477.355628 
L 436.302769 477.532768 
L 437.337591 477.662593 
L 437.773306 477.544386 
L 438.426877 477.168654 
L 438.59027 477.055766 
L 439.461699 476.460706 
L 439.679556 476.343402 
L 440.115271 476.192361 
L 440.877771 476.17305 
L 441.531343 476.302003 
L 442.075986 476.501796 
L 442.348308 476.595893 
L 442.838486 476.791689 
L 443.110808 476.889303 
L 443.328665 476.959759 
L 443.709915 477.033562 
L 443.873308 477.095105 
L 444.472416 477.222951 
L 444.635808 477.257392 
L 445.343844 477.343366 
L 445.561702 477.399125 
L 446.160809 477.549743 
L 446.378666 477.644124 
L 446.814381 477.800223 
L 447.631345 478.101261 
L 447.849203 478.118023 
L 448.284917 478.109007 
L 448.44831 478.07712 
L 449.973311 477.743126 
L 451.008132 477.675936 
L 451.280454 477.594641 
L 451.552776 477.560231 
L 451.825097 477.459204 
L 452.042954 477.390833 
L 452.478669 477.152828 
L 452.968848 476.917057 
L 454.439384 476.242263 
L 454.657241 476.198332 
L 455.201884 476.033367 
L 455.365277 476.046076 
L 455.637599 475.964368 
L 455.800992 475.944925 
L 455.964385 475.864678 
L 456.454563 475.586078 
L 457.108135 474.953443 
L 458.30635 473.983826 
L 458.360814 473.975602 
L 458.415278 473.517615 
L 458.469743 473.975277 
L 459.06885 474.266481 
L 459.613493 474.87358 
L 461.574208 476.701551 
L 461.737601 476.838113 
L 462.282244 477.346038 
L 462.500101 477.646425 
L 462.663494 477.824198 
L 463.916173 479.37396 
L 464.351888 479.776294 
L 464.678674 480.023104 
L 465.604567 480.094143 
L 466.748317 479.097852 
L 467.674211 477.936503 
L 467.892068 477.680677 
L 468.436711 476.987761 
L 469.743854 475.512026 
L 470.016176 475.275836 
L 470.45189 475.012602 
L 471.268855 474.914956 
L 471.813498 475.167537 
L 472.739391 475.884442 
L 472.957249 476.033154 
L 473.774213 476.562083 
L 474.264392 476.770348 
L 474.645642 476.852929 
L 474.917964 476.888182 
L 475.24475 476.871844 
L 475.734928 476.791701 
L 476.116178 476.74949 
L 476.3885 476.686129 
L 476.606357 476.704783 
L 477.151 476.763949 
L 477.423322 476.870971 
L 477.695643 476.966131 
L 478.076894 477.190625 
L 478.240286 477.277799 
L 479.002787 477.625669 
L 479.438501 477.753195 
L 480.909038 477.343585 
L 481.235823 477.077267 
L 481.399216 477.013131 
L 483.959039 475.480401 
L 484.122432 475.439553 
L 484.394753 475.419429 
L 484.667075 475.381769 
L 485.211718 475.509854 
L 485.375111 475.556627 
L 485.86529 475.900176 
L 486.028682 476.015938 
L 486.682254 476.698863 
L 487.226897 477.274315 
L 487.717076 477.713321 
L 488.043862 477.915363 
L 488.697434 478.126206 
L 490.276899 478.106182 
L 490.440291 478.082234 
L 490.658149 478.087669 
L 490.876006 478.067989 
L 492.019756 477.858021 
L 492.891185 477.604039 
L 493.054578 477.534509 
L 495.941187 476.122157 
L 497.520651 475.130725 
L 498.119759 474.935893 
L 498.283152 474.876003 
L 498.827795 474.859595 
L 499.263509 474.96663 
L 499.644759 475.108428 
L 500.02601 475.42777 
L 500.461724 475.855256 
L 500.897439 476.410951 
L 501.278689 476.905436 
L 502.204582 478.00052 
L 502.749225 478.379859 
L 502.858154 478.387127 
L 503.076011 478.481468 
L 503.511725 478.548291 
L 503.729583 478.559061 
L 505.690298 478.423369 
L 505.908155 478.369005 
L 507.215298 477.789511 
L 507.651013 477.531638 
L 508.086727 477.252377 
L 508.685835 476.911784 
L 509.01262 476.670578 
L 509.230478 476.606728 
L 509.448335 476.435908 
L 510.156371 476.043419 
L 510.864407 475.430143 
L 511.463514 474.702809 
L 512.443872 473.633864 
L 512.661729 473.536395 
L 512.825122 473.515257 
L 512.879586 473.063189 
L 512.934051 473.521326 
L 513.369765 473.794105 
L 515.71173 476.618504 
L 515.875123 476.707643 
L 516.201909 476.926832 
L 516.909945 477.298087 
L 517.236731 477.472395 
L 518.761732 478.111796 
L 519.197446 478.207058 
L 519.524232 478.258903 
L 519.796553 478.267528 
L 520.504589 478.253772 
L 520.722447 478.177636 
L 520.88584 478.176427 
L 522.683162 478.202579 
L 522.901019 478.18697 
L 524.099234 477.747562 
L 524.752805 477.204905 
L 525.351913 476.718763 
L 526.168877 476.213182 
L 526.33227 476.162904 
L 526.604592 476.054589 
L 528.075128 475.936434 
L 528.292985 475.989084 
L 528.7287 476.124234 
L 529.87245 476.610291 
L 530.253701 476.817389 
L 530.743879 477.109396 
L 532.704594 478.217514 
L 533.630488 478.257912 
L 533.848345 478.160872 
L 534.338524 477.845021 
L 536.57156 475.650447 
L 538.042097 475.01796 
L 538.368882 474.966727 
L 538.695668 474.930639 
L 540.057276 475.474842 
L 541.909062 477.098942 
L 542.290313 477.327211 
L 542.617098 477.493752 
L 543.325134 477.613766 
L 545.612635 477.584128 
L 545.830493 477.542494 
L 545.993886 477.548685 
L 546.157278 477.554382 
L 546.919779 477.444823 
L 547.246565 477.390823 
L 547.518886 477.356225 
L 548.499244 477.307282 
L 548.771565 477.354385 
L 549.751923 477.554865 
L 550.024244 477.609336 
L 550.405494 477.662273 
L 551.004602 477.649457 
L 551.276923 477.580462 
L 551.658174 477.404673 
L 552.202817 477.152302 
L 554.109067 475.882078 
L 554.326925 475.854732 
L 554.544782 475.761131 
L 555.089425 475.776445 
L 555.361746 475.850494 
L 555.579604 475.963197 
L 556.233175 476.337236 
L 556.614426 476.5615 
L 557.540319 476.98317 
L 557.976033 477.136805 
L 558.302819 477.247826 
L 559.174248 477.593684 
L 559.82782 477.951381 
L 559.991213 477.959069 
L 560.263534 478.079905 
L 562.278714 478.184946 
L 562.659964 478.055622 
L 562.823357 478.004692 
L 563.204607 477.869446 
L 563.313535 477.846727 
L 563.640321 477.688974 
L 563.803714 477.614507 
L 564.1305 477.361087 
L 564.293893 477.294796 
L 564.675143 476.956634 
L 565.001929 476.572599 
L 565.274251 476.204209 
L 566.962644 473.05822 
L 567.28943 472.757341 
L 567.343894 472.233121 
L 567.398359 472.701239 
L 567.834073 472.767174 
L 568.378716 473.268747 
L 569.250145 474.50331 
L 569.740324 475.16983 
L 572.409075 478.040646 
L 572.790325 478.299742 
L 573.443897 478.676411 
L 573.716218 478.757212 
L 574.206397 478.801867 
L 574.642112 478.757621 
L 574.914433 478.688277 
L 575.077826 478.629644 
L 575.622469 478.444318 
L 576.711755 478.166057 
L 577.038541 478.092921 
L 578.236756 477.544305 
L 578.67247 477.106476 
L 578.944792 476.842429 
L 579.489435 476.286293 
L 579.598364 476.211074 
L 580.251935 475.726295 
L 580.633185 475.551738 
L 580.796578 475.531773 
L 581.014436 475.487657 
L 581.940329 475.59067 
L 582.158186 475.65775 
L 582.866222 476.020374 
L 583.356401 476.358042 
L 584.118901 476.823238 
L 584.500151 477.100735 
L 584.826937 477.280972 
L 586.351938 478.133164 
L 586.624259 478.25627 
L 587.005509 478.448113 
L 587.223367 478.50705 
L 587.38676 478.569477 
L 587.931403 478.585404 
L 588.14926 478.536151 
L 588.584974 478.389207 
L 589.020689 478.122798 
L 589.184082 478.004944 
L 589.728725 477.609176 
L 590.001046 477.378558 
L 591.961761 476.27019 
L 592.179619 476.239324 
L 592.560869 476.164478 
L 594.194798 476.035666 
L 594.630513 476.133359 
L 595.011763 476.244313 
L 596.37337 476.676657 
L 596.700156 476.718965 
L 597.353728 476.768063 
L 598.0073 476.742769 
L 598.279621 476.755253 
L 598.497478 476.761405 
L 598.824264 476.782414 
L 599.968015 477.064928 
L 600.131408 477.111806 
L 601.002837 477.225228 
L 601.166229 477.256151 
L 601.438551 477.189577 
L 601.601944 477.179578 
L 602.473373 476.98363 
L 602.854623 476.876754 
L 603.290337 476.784645 
L 603.508195 476.722707 
L 603.998373 476.65947 
L 604.434088 476.576806 
L 607.048375 475.766728 
L 607.211768 475.679098 
L 607.919804 475.408715 
L 608.137661 475.40198 
L 608.518911 475.334433 
L 608.845697 475.347176 
L 610.043912 475.86591 
L 614.401056 479.028621 
L 614.782306 479.169601 
L 615.054628 479.275286 
L 615.218021 479.250426 
L 615.435878 479.242043 
L 615.871593 479.077028 
L 616.143914 478.949933 
L 616.688557 478.57543 
L 616.906414 478.37596 
L 617.505522 477.804569 
L 619.684094 475.336571 
L 620.555523 473.903124 
L 621.481416 472.61414 
L 621.753738 472.505436 
L 621.808202 472.003471 
L 621.862666 472.498682 
L 622.243917 472.734949 
L 622.734095 473.375949 
L 623.16981 474.092109 
L 624.31356 475.808348 
L 624.422489 475.919607 
L 626.873383 477.71609 
L 627.418026 477.942611 
L 627.908205 478.182874 
L 628.180526 478.256796 
L 628.888562 478.325973 
L 629.269812 478.31754 
L 629.433205 478.345108 
L 629.651063 478.280879 
L 629.814455 478.296964 
L 631.284992 478.304568 
L 631.666242 478.326928 
L 631.993028 478.24507 
L 632.156421 478.228178 
L 632.428742 478.118878 
L 632.864457 477.891415 
L 634.661779 476.44823 
L 635.097493 476.188675 
L 635.206422 476.152352 
L 637.929637 475.651148 
L 638.365352 475.677308 
L 638.692138 475.642192 
L 639.400174 475.689985 
L 639.944817 475.844057 
L 640.217138 475.909745 
L 641.306424 476.700006 
L 641.63321 477.02612 
L 643.26714 478.256741 
L 643.484997 478.295212 
L 643.702854 478.345419 
L 644.02964 478.365119 
L 644.465354 478.299969 
L 645.009997 478.088912 
L 645.718033 477.698766 
L 647.297498 476.371124 
L 647.733213 475.999584 
L 648.768035 475.31175 
L 649.040356 475.2882 
L 649.367142 475.268675 
L 649.639464 475.331789 
L 651.382321 476.429312 
L 651.926964 476.849855 
L 652.035893 476.899497 
L 652.526072 477.309241 
L 653.234108 477.876616 
L 654.595716 478.851155 
L 655.303752 479.043809 
L 656.501966 478.485312 
L 659.061789 475.700548 
L 659.279646 475.473037 
L 660.151075 474.694022 
L 660.532325 474.481535 
L 660.750182 474.376861 
L 661.294825 474.274095 
L 661.676076 474.314662 
L 662.057326 474.456176 
L 663.146612 475.340189 
L 663.800184 476.241329 
L 664.453755 477.224847 
L 664.726077 477.673284 
L 665.815363 478.962402 
L 665.978756 479.047589 
L 666.196613 479.129516 
L 666.632328 479.264852 
L 667.013578 479.293524 
L 669.083221 479.345865 
L 669.246614 479.298924 
L 669.518936 479.306663 
L 669.682329 479.231063 
L 669.900186 479.180904 
L 670.335901 478.931495 
L 670.662686 478.700436 
L 671.751973 477.637306 
L 674.910902 472.789426 
L 675.51001 471.850659 
L 676.000189 471.438953 
L 676.218046 471.468406 
L 676.218046 471.468406 
" clip-path="url(#p6e832ca73e)" style="fill: none; stroke: #0000ff; stroke-width: 1.5; stroke-linecap: square"/>
   </g>
   <g id="patch_3">
    <path d="M 104.4 640.3905 
L 104.4 39.1875 
" style="fill: none; stroke: #000000; stroke-width: 0.8; stroke-linejoin: miter; stroke-linecap: square"/>
   </g>
   <g id="patch_4">
    <path d="M 703.447477 640.3905 
L 703.447477 39.1875 
" style="fill: none; stroke: #000000; stroke-width: 0.8; stroke-linejoin: miter; stroke-linecap: square"/>
   </g>
   <g id="patch_5">
    <path d="M 104.4 640.3905 
L 703.447477 640.3905 
" style="fill: none; stroke: #000000; stroke-width: 0.8; stroke-linejoin: miter; stroke-linecap: square"/>
   </g>
   <g id="patch_6">
    <path d="M 104.4 39.1875 
L 703.447477 39.1875 
" style="fill: none; stroke: #000000; stroke-width: 0.8; stroke-linejoin: miter; stroke-linecap: square"/>
   </g>
  </g>
 </g>
 <defs>
  <clipPath id="p6e832ca73e">
   <rect x="104.4" y="39.1875" width="599.047477" height="601.203"/>
  </clipPath>
 </defs>
</svg>
