<?xml version="1.0" encoding="utf-8" standalone="no"?>
<!DOCTYPE svg PUBLIC "-//W3C//DTD SVG 1.1//EN"
  "http://www.w3.org/Graphics/SVG/1.1/DTD/svg11.dtd">
<svg xmlns:xlink="http://www.w3.org/1999/xlink" width="711.588047pt" height="711.105187pt" viewBox="0 0 711.588047 711.105187" xmlns="http://www.w3.org/2000/svg" version="1.1">
 <metadata>
  <rdf:RDF xmlns:dc="http://purl.org/dc/elements/1.1/" xmlns:cc="http://creativecommons.org/ns#" xmlns:rdf="http://www.w3.org/1999/02/22-rdf-syntax-ns#">
   <cc:Work>
    <dc:type rdf:resource="http://purl.org/dc/dcmitype/StillImage"/>
    <dc:date>2025-02-02T18:50:45.268744</dc:date>
    <dc:format>image/svg+xml</dc:format>
    <dc:creator>
     <cc:Agent>
      <dc:title>Matplotlib v3.9.3, https://matplotlib.org/</dc:title>
     </cc:Agent>
    </dc:creator>
   </cc:Work>
  </rdf:RDF>
 </metadata>
 <defs>
  <style type="text/css">*{stroke-linejoin: round; stroke-linecap: butt}</style>
 </defs>
 <g id="figure_1">
  <g id="patch_1">
   <path d="M 0 711.105187 
L 711.588047 711.105187 
L 711.588047 0 
L 0 0 
z
" style="fill: #ffffff"/>
  </g>
  <g id="axes_1">
   <g id="patch_2">
    <path d="M 80.465625 643.2705 
L 704.388047 643.2705 
L 704.388047 39.1875 
L 80.465625 39.1875 
z
" style="fill: #ffffff"/>
   </g>
   <g id="matplotlib.axis_1">
    <g id="xtick_1">
     <g id="line2d_1">
      <defs>
       <path id="m72e614f965" d="M 0 0 
L 0 -3.5 
" style="stroke: #000000; stroke-width: 0.8"/>
      </defs>
      <g>
       <use xlink:href="#m72e614f965" x="108.769004" y="643.2705" style="stroke: #000000; stroke-width: 0.8"/>
      </g>
     </g>
     <g id="text_1">
      <!-- 0 -->
      <g transform="translate(101.261738 666.337062) scale(0.27 -0.27)">
       <defs>
        <path id="LiberationSans-30" d="M 3309 2203 
Q 3309 1100 2920 518 
Q 2531 -63 1772 -63 
Q 1013 -63 631 515 
Q 250 1094 250 2203 
Q 250 3338 620 3903 
Q 991 4469 1791 4469 
Q 2569 4469 2939 3897 
Q 3309 3325 3309 2203 
z
M 2738 2203 
Q 2738 3156 2517 3584 
Q 2297 4013 1791 4013 
Q 1272 4013 1045 3591 
Q 819 3169 819 2203 
Q 819 1266 1048 831 
Q 1278 397 1778 397 
Q 2275 397 2506 840 
Q 2738 1284 2738 2203 
z
" transform="scale(0.015625)"/>
       </defs>
       <use xlink:href="#LiberationSans-30"/>
      </g>
     </g>
    </g>
    <g id="xtick_2">
     <g id="line2d_2">
      <g>
       <use xlink:href="#m72e614f965" x="222.232136" y="643.2705" style="stroke: #000000; stroke-width: 0.8"/>
      </g>
     </g>
     <g id="text_2">
      <!-- 2 -->
      <g transform="translate(214.724871 666.337062) scale(0.27 -0.27)">
       <defs>
        <path id="LiberationSans-32" d="M 322 0 
L 322 397 
Q 481 763 711 1042 
Q 941 1322 1194 1548 
Q 1447 1775 1695 1969 
Q 1944 2163 2144 2356 
Q 2344 2550 2467 2762 
Q 2591 2975 2591 3244 
Q 2591 3606 2378 3806 
Q 2166 4006 1788 4006 
Q 1428 4006 1195 3811 
Q 963 3616 922 3263 
L 347 3316 
Q 409 3844 795 4156 
Q 1181 4469 1788 4469 
Q 2453 4469 2811 4155 
Q 3169 3841 3169 3263 
Q 3169 3006 3051 2753 
Q 2934 2500 2703 2247 
Q 2472 1994 1819 1463 
Q 1459 1169 1246 933 
Q 1034 697 941 478 
L 3238 478 
L 3238 0 
L 322 0 
z
" transform="scale(0.015625)"/>
       </defs>
       <use xlink:href="#LiberationSans-32"/>
      </g>
     </g>
    </g>
    <g id="xtick_3">
     <g id="line2d_3">
      <g>
       <use xlink:href="#m72e614f965" x="335.695269" y="643.2705" style="stroke: #000000; stroke-width: 0.8"/>
      </g>
     </g>
     <g id="text_3">
      <!-- 4 -->
      <g transform="translate(328.188004 666.337062) scale(0.27 -0.27)">
       <defs>
        <path id="LiberationSans-34" d="M 2753 997 
L 2753 0 
L 2222 0 
L 2222 997 
L 147 997 
L 147 1434 
L 2163 4403 
L 2753 4403 
L 2753 1441 
L 3372 1441 
L 3372 997 
L 2753 997 
z
M 2222 3769 
Q 2216 3750 2134 3603 
Q 2053 3456 2013 3397 
L 884 1734 
L 716 1503 
L 666 1441 
L 2222 1441 
L 2222 3769 
z
" transform="scale(0.015625)"/>
       </defs>
       <use xlink:href="#LiberationSans-34"/>
      </g>
     </g>
    </g>
    <g id="xtick_4">
     <g id="line2d_4">
      <g>
       <use xlink:href="#m72e614f965" x="449.158402" y="643.2705" style="stroke: #000000; stroke-width: 0.8"/>
      </g>
     </g>
     <g id="text_4">
      <!-- 6 -->
      <g transform="translate(441.651137 666.337062) scale(0.27 -0.27)">
       <defs>
        <path id="LiberationSans-36" d="M 3278 1441 
Q 3278 744 2900 340 
Q 2522 -63 1856 -63 
Q 1113 -63 719 490 
Q 325 1044 325 2100 
Q 325 3244 734 3856 
Q 1144 4469 1900 4469 
Q 2897 4469 3156 3572 
L 2619 3475 
Q 2453 4013 1894 4013 
Q 1413 4013 1148 3564 
Q 884 3116 884 2266 
Q 1038 2550 1316 2698 
Q 1594 2847 1953 2847 
Q 2563 2847 2920 2465 
Q 3278 2084 3278 1441 
z
M 2706 1416 
Q 2706 1894 2472 2153 
Q 2238 2413 1819 2413 
Q 1425 2413 1183 2183 
Q 941 1953 941 1550 
Q 941 1041 1192 716 
Q 1444 391 1838 391 
Q 2244 391 2475 664 
Q 2706 938 2706 1416 
z
" transform="scale(0.015625)"/>
       </defs>
       <use xlink:href="#LiberationSans-36"/>
      </g>
     </g>
    </g>
    <g id="xtick_5">
     <g id="line2d_5">
      <g>
       <use xlink:href="#m72e614f965" x="562.621535" y="643.2705" style="stroke: #000000; stroke-width: 0.8"/>
      </g>
     </g>
     <g id="text_5">
      <!-- 8 -->
      <g transform="translate(555.11427 666.337062) scale(0.27 -0.27)">
       <defs>
        <path id="LiberationSans-38" d="M 3281 1228 
Q 3281 619 2893 278 
Q 2506 -63 1781 -63 
Q 1075 -63 676 271 
Q 278 606 278 1222 
Q 278 1653 525 1947 
Q 772 2241 1156 2303 
L 1156 2316 
Q 797 2400 589 2681 
Q 381 2963 381 3341 
Q 381 3844 757 4156 
Q 1134 4469 1769 4469 
Q 2419 4469 2795 4162 
Q 3172 3856 3172 3334 
Q 3172 2956 2962 2675 
Q 2753 2394 2391 2322 
L 2391 2309 
Q 2813 2241 3047 1952 
Q 3281 1663 3281 1228 
z
M 2588 3303 
Q 2588 4050 1769 4050 
Q 1372 4050 1164 3862 
Q 956 3675 956 3303 
Q 956 2925 1170 2726 
Q 1384 2528 1775 2528 
Q 2172 2528 2380 2711 
Q 2588 2894 2588 3303 
z
M 2697 1281 
Q 2697 1691 2453 1898 
Q 2209 2106 1769 2106 
Q 1341 2106 1100 1882 
Q 859 1659 859 1269 
Q 859 359 1788 359 
Q 2247 359 2472 579 
Q 2697 800 2697 1281 
z
" transform="scale(0.015625)"/>
       </defs>
       <use xlink:href="#LiberationSans-38"/>
      </g>
     </g>
    </g>
    <g id="xtick_6">
     <g id="line2d_6">
      <g>
       <use xlink:href="#m72e614f965" x="676.084668" y="643.2705" style="stroke: #000000; stroke-width: 0.8"/>
      </g>
     </g>
     <g id="text_6">
      <!-- 10 -->
      <g transform="translate(661.070137 666.337062) scale(0.27 -0.27)">
       <defs>
        <path id="LiberationSans-31" d="M 488 0 
L 488 478 
L 1609 478 
L 1609 3866 
L 616 3156 
L 616 3688 
L 1656 4403 
L 2175 4403 
L 2175 478 
L 3247 478 
L 3247 0 
L 488 0 
z
" transform="scale(0.015625)"/>
       </defs>
       <use xlink:href="#LiberationSans-31"/>
       <use xlink:href="#LiberationSans-30" x="55.615234"/>
      </g>
     </g>
    </g>
    <g id="xtick_7">
     <g id="line2d_7">
      <defs>
       <path id="m59f01452ef" d="M 0 0 
L 0 -2 
" style="stroke: #000000; stroke-width: 0.6"/>
      </defs>
      <g>
       <use xlink:href="#m59f01452ef" x="137.134787" y="643.2705" style="stroke: #000000; stroke-width: 0.6"/>
      </g>
     </g>
    </g>
    <g id="xtick_8">
     <g id="line2d_8">
      <g>
       <use xlink:href="#m59f01452ef" x="165.50057" y="643.2705" style="stroke: #000000; stroke-width: 0.6"/>
      </g>
     </g>
    </g>
    <g id="xtick_9">
     <g id="line2d_9">
      <g>
       <use xlink:href="#m59f01452ef" x="193.866353" y="643.2705" style="stroke: #000000; stroke-width: 0.6"/>
      </g>
     </g>
    </g>
    <g id="xtick_10">
     <g id="line2d_10">
      <g>
       <use xlink:href="#m59f01452ef" x="250.59792" y="643.2705" style="stroke: #000000; stroke-width: 0.6"/>
      </g>
     </g>
    </g>
    <g id="xtick_11">
     <g id="line2d_11">
      <g>
       <use xlink:href="#m59f01452ef" x="278.963703" y="643.2705" style="stroke: #000000; stroke-width: 0.6"/>
      </g>
     </g>
    </g>
    <g id="xtick_12">
     <g id="line2d_12">
      <g>
       <use xlink:href="#m59f01452ef" x="307.329486" y="643.2705" style="stroke: #000000; stroke-width: 0.6"/>
      </g>
     </g>
    </g>
    <g id="xtick_13">
     <g id="line2d_13">
      <g>
       <use xlink:href="#m59f01452ef" x="364.061053" y="643.2705" style="stroke: #000000; stroke-width: 0.6"/>
      </g>
     </g>
    </g>
    <g id="xtick_14">
     <g id="line2d_14">
      <g>
       <use xlink:href="#m59f01452ef" x="392.426836" y="643.2705" style="stroke: #000000; stroke-width: 0.6"/>
      </g>
     </g>
    </g>
    <g id="xtick_15">
     <g id="line2d_15">
      <g>
       <use xlink:href="#m59f01452ef" x="420.792619" y="643.2705" style="stroke: #000000; stroke-width: 0.6"/>
      </g>
     </g>
    </g>
    <g id="xtick_16">
     <g id="line2d_16">
      <g>
       <use xlink:href="#m59f01452ef" x="477.524186" y="643.2705" style="stroke: #000000; stroke-width: 0.6"/>
      </g>
     </g>
    </g>
    <g id="xtick_17">
     <g id="line2d_17">
      <g>
       <use xlink:href="#m59f01452ef" x="505.889969" y="643.2705" style="stroke: #000000; stroke-width: 0.6"/>
      </g>
     </g>
    </g>
    <g id="xtick_18">
     <g id="line2d_18">
      <g>
       <use xlink:href="#m59f01452ef" x="534.255752" y="643.2705" style="stroke: #000000; stroke-width: 0.6"/>
      </g>
     </g>
    </g>
    <g id="xtick_19">
     <g id="line2d_19">
      <g>
       <use xlink:href="#m59f01452ef" x="590.987319" y="643.2705" style="stroke: #000000; stroke-width: 0.6"/>
      </g>
     </g>
    </g>
    <g id="xtick_20">
     <g id="line2d_20">
      <g>
       <use xlink:href="#m59f01452ef" x="619.353102" y="643.2705" style="stroke: #000000; stroke-width: 0.6"/>
      </g>
     </g>
    </g>
    <g id="xtick_21">
     <g id="line2d_21">
      <g>
       <use xlink:href="#m59f01452ef" x="647.718885" y="643.2705" style="stroke: #000000; stroke-width: 0.6"/>
      </g>
     </g>
    </g>
    <g id="text_7">
     <!-- Time ps -->
     <g transform="translate(339.650273 697.680187) scale(0.3 -0.3)">
      <defs>
       <path id="LiberationSans-54" d="M 2250 3916 
L 2250 0 
L 1656 0 
L 1656 3916 
L 144 3916 
L 144 4403 
L 3763 4403 
L 3763 3916 
L 2250 3916 
z
" transform="scale(0.015625)"/>
       <path id="LiberationSans-69" d="M 428 4100 
L 428 4638 
L 991 4638 
L 991 4100 
L 428 4100 
z
M 428 0 
L 428 3381 
L 991 3381 
L 991 0 
L 428 0 
z
" transform="scale(0.015625)"/>
       <path id="LiberationSans-6d" d="M 2400 0 
L 2400 2144 
Q 2400 2634 2265 2821 
Q 2131 3009 1781 3009 
Q 1422 3009 1212 2734 
Q 1003 2459 1003 1959 
L 1003 0 
L 444 0 
L 444 2659 
Q 444 3250 425 3381 
L 956 3381 
Q 959 3366 962 3297 
Q 966 3228 970 3139 
Q 975 3050 981 2803 
L 991 2803 
Q 1172 3163 1406 3303 
Q 1641 3444 1978 3444 
Q 2363 3444 2586 3291 
Q 2809 3138 2897 2803 
L 2906 2803 
Q 3081 3144 3329 3294 
Q 3578 3444 3931 3444 
Q 4444 3444 4676 3166 
Q 4909 2888 4909 2253 
L 4909 0 
L 4353 0 
L 4353 2144 
Q 4353 2634 4218 2821 
Q 4084 3009 3734 3009 
Q 3366 3009 3161 2736 
Q 2956 2463 2956 1959 
L 2956 0 
L 2400 0 
z
" transform="scale(0.015625)"/>
       <path id="LiberationSans-65" d="M 863 1572 
Q 863 991 1103 675 
Q 1344 359 1806 359 
Q 2172 359 2392 506 
Q 2613 653 2691 878 
L 3184 738 
Q 2881 -63 1806 -63 
Q 1056 -63 664 384 
Q 272 831 272 1713 
Q 272 2550 664 2997 
Q 1056 3444 1784 3444 
Q 3275 3444 3275 1647 
L 3275 1572 
L 863 1572 
z
M 2694 2003 
Q 2647 2538 2422 2783 
Q 2197 3028 1775 3028 
Q 1366 3028 1127 2754 
Q 888 2481 869 2003 
L 2694 2003 
z
" transform="scale(0.015625)"/>
       <path id="LiberationSans-20" transform="scale(0.015625)"/>
       <path id="LiberationSans-70" d="M 3291 1706 
Q 3291 -63 2047 -63 
Q 1266 -63 997 525 
L 981 525 
Q 994 500 994 -6 
L 994 -1328 
L 431 -1328 
L 431 2691 
Q 431 3213 413 3381 
L 956 3381 
Q 959 3369 965 3292 
Q 972 3216 980 3056 
Q 988 2897 988 2838 
L 1000 2838 
Q 1150 3150 1397 3295 
Q 1644 3441 2047 3441 
Q 2672 3441 2981 3022 
Q 3291 2603 3291 1706 
z
M 2700 1694 
Q 2700 2400 2509 2703 
Q 2319 3006 1903 3006 
Q 1569 3006 1380 2865 
Q 1191 2725 1092 2426 
Q 994 2128 994 1650 
Q 994 984 1206 668 
Q 1419 353 1897 353 
Q 2316 353 2508 661 
Q 2700 969 2700 1694 
z
" transform="scale(0.015625)"/>
       <path id="LiberationSans-73" d="M 2969 934 
Q 2969 456 2608 196 
Q 2247 -63 1597 -63 
Q 966 -63 623 145 
Q 281 353 178 794 
L 675 891 
Q 747 619 972 492 
Q 1197 366 1597 366 
Q 2025 366 2223 497 
Q 2422 628 2422 891 
Q 2422 1091 2284 1216 
Q 2147 1341 1841 1422 
L 1438 1528 
Q 953 1653 748 1773 
Q 544 1894 428 2066 
Q 313 2238 313 2488 
Q 313 2950 642 3192 
Q 972 3434 1603 3434 
Q 2163 3434 2492 3237 
Q 2822 3041 2909 2606 
L 2403 2544 
Q 2356 2769 2151 2889 
Q 1947 3009 1603 3009 
Q 1222 3009 1040 2893 
Q 859 2778 859 2544 
Q 859 2400 934 2306 
Q 1009 2213 1156 2147 
Q 1303 2081 1775 1966 
Q 2222 1853 2419 1758 
Q 2616 1663 2730 1547 
Q 2844 1431 2906 1279 
Q 2969 1128 2969 934 
z
" transform="scale(0.015625)"/>
      </defs>
      <use xlink:href="#LiberationSans-54"/>
      <use xlink:href="#LiberationSans-69" x="57.333984"/>
      <use xlink:href="#LiberationSans-6d" x="79.550781"/>
      <use xlink:href="#LiberationSans-65" x="162.851562"/>
      <use xlink:href="#LiberationSans-20" x="218.466797"/>
      <use xlink:href="#LiberationSans-70" x="246.25"/>
      <use xlink:href="#LiberationSans-73" x="301.865234"/>
     </g>
    </g>
   </g>
   <g id="matplotlib.axis_2">
    <g id="ytick_1">
     <g id="line2d_22">
      <defs>
       <path id="m326535b485" d="M 0 0 
L 3.5 0 
" style="stroke: #000000; stroke-width: 0.8"/>
      </defs>
      <g>
       <use xlink:href="#m326535b485" x="80.465625" y="615.812182" style="stroke: #000000; stroke-width: 0.8"/>
      </g>
     </g>
     <g id="text_8">
      <!-- $\mathdefault{0.0}$ -->
      <g transform="translate(39.165625 625.595463) scale(0.27 -0.27)">
       <defs>
        <path id="LiberationSans-2e" d="M 584 0 
L 584 684 
L 1194 684 
L 1194 0 
L 584 0 
z
" transform="scale(0.015625)"/>
       </defs>
       <use xlink:href="#LiberationSans-30" transform="translate(0 0.171875)"/>
       <use xlink:href="#LiberationSans-2e" transform="translate(55.615234 0.171875)"/>
       <use xlink:href="#LiberationSans-30" transform="translate(83.398438 0.171875)"/>
      </g>
     </g>
    </g>
    <g id="ytick_2">
     <g id="line2d_23">
      <g>
       <use xlink:href="#m326535b485" x="80.465625" y="502.822518" style="stroke: #000000; stroke-width: 0.8"/>
      </g>
     </g>
     <g id="text_9">
      <!-- $\mathdefault{0.2}$ -->
      <g transform="translate(39.165625 512.605799) scale(0.27 -0.27)">
       <use xlink:href="#LiberationSans-30" transform="translate(0 0.171875)"/>
       <use xlink:href="#LiberationSans-2e" transform="translate(55.615234 0.171875)"/>
       <use xlink:href="#LiberationSans-32" transform="translate(83.398438 0.171875)"/>
      </g>
     </g>
    </g>
    <g id="ytick_3">
     <g id="line2d_24">
      <g>
       <use xlink:href="#m326535b485" x="80.465625" y="389.832854" style="stroke: #000000; stroke-width: 0.8"/>
      </g>
     </g>
     <g id="text_10">
      <!-- $\mathdefault{0.4}$ -->
      <g transform="translate(39.165625 399.616136) scale(0.27 -0.27)">
       <use xlink:href="#LiberationSans-30" transform="translate(0 0.171875)"/>
       <use xlink:href="#LiberationSans-2e" transform="translate(55.615234 0.171875)"/>
       <use xlink:href="#LiberationSans-34" transform="translate(83.398438 0.171875)"/>
      </g>
     </g>
    </g>
    <g id="ytick_4">
     <g id="line2d_25">
      <g>
       <use xlink:href="#m326535b485" x="80.465625" y="276.843191" style="stroke: #000000; stroke-width: 0.8"/>
      </g>
     </g>
     <g id="text_11">
      <!-- $\mathdefault{0.6}$ -->
      <g transform="translate(39.165625 286.626472) scale(0.27 -0.27)">
       <use xlink:href="#LiberationSans-30" transform="translate(0 0.171875)"/>
       <use xlink:href="#LiberationSans-2e" transform="translate(55.615234 0.171875)"/>
       <use xlink:href="#LiberationSans-36" transform="translate(83.398438 0.171875)"/>
      </g>
     </g>
    </g>
    <g id="ytick_5">
     <g id="line2d_26">
      <g>
       <use xlink:href="#m326535b485" x="80.465625" y="163.853527" style="stroke: #000000; stroke-width: 0.8"/>
      </g>
     </g>
     <g id="text_12">
      <!-- $\mathdefault{0.8}$ -->
      <g transform="translate(39.165625 173.636808) scale(0.27 -0.27)">
       <use xlink:href="#LiberationSans-30" transform="translate(0 0.171875)"/>
       <use xlink:href="#LiberationSans-2e" transform="translate(55.615234 0.171875)"/>
       <use xlink:href="#LiberationSans-38" transform="translate(83.398438 0.171875)"/>
      </g>
     </g>
    </g>
    <g id="ytick_6">
     <g id="line2d_27">
      <g>
       <use xlink:href="#m326535b485" x="80.465625" y="50.863863" style="stroke: #000000; stroke-width: 0.8"/>
      </g>
     </g>
     <g id="text_13">
      <!-- $\mathdefault{1.0}$ -->
      <g transform="translate(39.165625 60.647144) scale(0.27 -0.27)">
       <use xlink:href="#LiberationSans-31" transform="translate(0 0.171875)"/>
       <use xlink:href="#LiberationSans-2e" transform="translate(55.615234 0.171875)"/>
       <use xlink:href="#LiberationSans-30" transform="translate(83.398438 0.171875)"/>
      </g>
     </g>
    </g>
    <g id="ytick_7">
     <g id="line2d_28">
      <defs>
       <path id="me6efa997b9" d="M 0 0 
L 2 0 
" style="stroke: #000000; stroke-width: 0.6"/>
      </defs>
      <g>
       <use xlink:href="#me6efa997b9" x="80.465625" y="587.564766" style="stroke: #000000; stroke-width: 0.6"/>
      </g>
     </g>
    </g>
    <g id="ytick_8">
     <g id="line2d_29">
      <g>
       <use xlink:href="#me6efa997b9" x="80.465625" y="559.31735" style="stroke: #000000; stroke-width: 0.6"/>
      </g>
     </g>
    </g>
    <g id="ytick_9">
     <g id="line2d_30">
      <g>
       <use xlink:href="#me6efa997b9" x="80.465625" y="531.069934" style="stroke: #000000; stroke-width: 0.6"/>
      </g>
     </g>
    </g>
    <g id="ytick_10">
     <g id="line2d_31">
      <g>
       <use xlink:href="#me6efa997b9" x="80.465625" y="474.575102" style="stroke: #000000; stroke-width: 0.6"/>
      </g>
     </g>
    </g>
    <g id="ytick_11">
     <g id="line2d_32">
      <g>
       <use xlink:href="#me6efa997b9" x="80.465625" y="446.327686" style="stroke: #000000; stroke-width: 0.6"/>
      </g>
     </g>
    </g>
    <g id="ytick_12">
     <g id="line2d_33">
      <g>
       <use xlink:href="#me6efa997b9" x="80.465625" y="418.08027" style="stroke: #000000; stroke-width: 0.6"/>
      </g>
     </g>
    </g>
    <g id="ytick_13">
     <g id="line2d_34">
      <g>
       <use xlink:href="#me6efa997b9" x="80.465625" y="361.585438" style="stroke: #000000; stroke-width: 0.6"/>
      </g>
     </g>
    </g>
    <g id="ytick_14">
     <g id="line2d_35">
      <g>
       <use xlink:href="#me6efa997b9" x="80.465625" y="333.338022" style="stroke: #000000; stroke-width: 0.6"/>
      </g>
     </g>
    </g>
    <g id="ytick_15">
     <g id="line2d_36">
      <g>
       <use xlink:href="#me6efa997b9" x="80.465625" y="305.090607" style="stroke: #000000; stroke-width: 0.6"/>
      </g>
     </g>
    </g>
    <g id="ytick_16">
     <g id="line2d_37">
      <g>
       <use xlink:href="#me6efa997b9" x="80.465625" y="248.595775" style="stroke: #000000; stroke-width: 0.6"/>
      </g>
     </g>
    </g>
    <g id="ytick_17">
     <g id="line2d_38">
      <g>
       <use xlink:href="#me6efa997b9" x="80.465625" y="220.348359" style="stroke: #000000; stroke-width: 0.6"/>
      </g>
     </g>
    </g>
    <g id="ytick_18">
     <g id="line2d_39">
      <g>
       <use xlink:href="#me6efa997b9" x="80.465625" y="192.100943" style="stroke: #000000; stroke-width: 0.6"/>
      </g>
     </g>
    </g>
    <g id="ytick_19">
     <g id="line2d_40">
      <g>
       <use xlink:href="#me6efa997b9" x="80.465625" y="135.606111" style="stroke: #000000; stroke-width: 0.6"/>
      </g>
     </g>
    </g>
    <g id="ytick_20">
     <g id="line2d_41">
      <g>
       <use xlink:href="#me6efa997b9" x="80.465625" y="107.358695" style="stroke: #000000; stroke-width: 0.6"/>
      </g>
     </g>
    </g>
    <g id="ytick_21">
     <g id="line2d_42">
      <g>
       <use xlink:href="#me6efa997b9" x="80.465625" y="79.111279" style="stroke: #000000; stroke-width: 0.6"/>
      </g>
     </g>
    </g>
    <g id="text_14">
     <!-- ITR $\mathrm{K} \cdot \mathrm{m}^2 / \mathrm{W}$ -->
     <g transform="translate(28.940625 425.229) rotate(-90) scale(0.3 -0.3)">
      <defs>
       <path id="LiberationSans-49" d="M 591 0 
L 591 4403 
L 1188 4403 
L 1188 0 
L 591 0 
z
" transform="scale(0.015625)"/>
       <path id="LiberationSans-52" d="M 3638 0 
L 2494 1828 
L 1122 1828 
L 1122 0 
L 525 0 
L 525 4403 
L 2597 4403 
Q 3341 4403 3745 4070 
Q 4150 3738 4150 3144 
Q 4150 2653 3864 2318 
Q 3578 1984 3075 1897 
L 4325 0 
L 3638 0 
z
M 3550 3138 
Q 3550 3522 3289 3723 
Q 3028 3925 2538 3925 
L 1122 3925 
L 1122 2300 
L 2563 2300 
Q 3034 2300 3292 2520 
Q 3550 2741 3550 3138 
z
" transform="scale(0.015625)"/>
       <path id="STIXGeneral-Regular-4b" d="M 4627 0 
L 2688 0 
L 2688 122 
L 2861 128 
Q 3130 134 3130 282 
Q 3130 397 2922 643 
Q 2714 890 2253 1370 
L 1613 2029 
L 1446 1894 
L 1446 710 
Q 1446 352 1548 253 
Q 1651 154 2016 122 
L 2016 0 
L 211 0 
L 211 122 
Q 589 141 691 262 
Q 794 384 794 800 
L 794 3514 
Q 794 3872 691 3981 
Q 589 4090 218 4115 
L 218 4237 
L 2022 4237 
L 2022 4115 
Q 1632 4090 1539 3987 
Q 1446 3885 1446 3507 
L 1446 2227 
L 2586 3277 
Q 2861 3533 2973 3667 
Q 3085 3802 3085 3910 
Q 3085 4013 3030 4057 
Q 2976 4102 2822 4109 
L 2662 4115 
L 2662 4237 
L 4320 4237 
L 4320 4115 
Q 3994 4090 3824 4003 
Q 3654 3917 3322 3597 
L 2131 2458 
L 3629 819 
Q 4026 384 4214 253 
Q 4403 122 4627 122 
L 4627 0 
z
" transform="scale(0.015625)"/>
       <path id="STIXGeneral-Regular-22c5" d="M 1187 1888 
Q 1299 1773 1299 1619 
Q 1299 1466 1187 1350 
Q 1075 1235 921 1235 
Q 768 1235 649 1353 
Q 531 1472 531 1619 
Q 531 1766 649 1884 
Q 768 2003 921 2003 
Q 1075 2003 1187 1888 
z
" transform="scale(0.015625)"/>
       <path id="STIXGeneral-Regular-6d" d="M 4960 0 
L 3565 0 
L 3565 96 
Q 3834 122 3907 208 
Q 3981 294 3981 576 
L 3981 1894 
Q 3981 2278 3869 2444 
Q 3757 2611 3488 2611 
Q 3264 2611 3107 2521 
Q 2950 2432 2803 2221 
L 2803 608 
Q 2803 301 2896 201 
Q 2989 102 3264 96 
L 3264 0 
L 1830 0 
L 1830 96 
Q 2112 115 2189 188 
Q 2266 262 2266 550 
L 2266 1901 
Q 2266 2611 1850 2611 
Q 1670 2611 1468 2531 
Q 1267 2451 1171 2336 
Q 1088 2240 1088 2227 
L 1088 448 
Q 1088 243 1177 176 
Q 1267 109 1523 96 
L 1523 0 
L 102 0 
L 102 96 
Q 371 102 460 195 
Q 550 288 550 563 
L 550 2150 
Q 550 2387 499 2480 
Q 448 2573 326 2573 
Q 230 2573 122 2547 
L 122 2656 
Q 557 2778 1011 2944 
L 1062 2925 
L 1062 2451 
L 1075 2451 
Q 1363 2752 1584 2848 
Q 1805 2944 2054 2944 
Q 2560 2944 2733 2406 
Q 3232 2944 3776 2944 
Q 4518 2944 4518 1792 
L 4518 493 
Q 4518 282 4582 202 
Q 4646 122 4794 109 
L 4960 96 
L 4960 0 
z
" transform="scale(0.015625)"/>
       <path id="STIXGeneral-Regular-32" d="M 3034 877 
L 2688 0 
L 186 0 
L 186 77 
L 1325 1286 
Q 1773 1754 1965 2144 
Q 2157 2534 2157 2950 
Q 2157 3379 1920 3616 
Q 1683 3853 1267 3853 
Q 922 3853 720 3673 
Q 518 3494 326 3021 
L 192 3053 
Q 301 3648 630 3987 
Q 960 4326 1523 4326 
Q 2054 4326 2380 4006 
Q 2707 3686 2707 3200 
Q 2707 2477 1888 1613 
L 832 486 
L 2330 486 
Q 2541 486 2665 569 
Q 2790 653 2944 915 
L 3034 877 
z
" transform="scale(0.015625)"/>
       <path id="STIXGeneral-Regular-2f" d="M 1837 4326 
L 378 -90 
L -58 -90 
L 1408 4326 
L 1837 4326 
z
" transform="scale(0.015625)"/>
       <path id="STIXGeneral-Regular-57" d="M 5965 4237 
L 5965 4115 
Q 5709 4064 5616 3990 
Q 5523 3917 5434 3667 
Q 4704 1709 4128 -70 
L 4032 -70 
Q 3642 1011 3008 2637 
L 2022 -70 
L 1926 -70 
Q 1709 576 1277 1753 
Q 845 2931 698 3347 
Q 538 3808 406 3958 
Q 275 4109 32 4115 
L 32 4237 
L 1594 4237 
L 1594 4115 
Q 1357 4109 1270 4064 
Q 1184 4019 1184 3917 
Q 1184 3808 1254 3616 
L 2176 1210 
L 2842 3021 
L 2662 3501 
Q 2509 3917 2400 4013 
Q 2291 4109 2010 4115 
L 2010 4237 
L 3706 4237 
L 3706 4115 
Q 3213 4102 3213 3891 
Q 3213 3808 3322 3520 
L 4237 1190 
L 5043 3360 
Q 5152 3667 5152 3853 
Q 5152 4109 4704 4115 
L 4704 4237 
L 5965 4237 
z
" transform="scale(0.015625)"/>
      </defs>
      <use xlink:href="#LiberationSans-49" transform="translate(0 0.409375)"/>
      <use xlink:href="#LiberationSans-54" transform="translate(27.783203 0.409375)"/>
      <use xlink:href="#LiberationSans-52" transform="translate(88.867188 0.409375)"/>
      <use xlink:href="#LiberationSans-20" transform="translate(161.083984 0.409375)"/>
      <use xlink:href="#STIXGeneral-Regular-4b" transform="translate(188.867188 0.409375)"/>
      <use xlink:href="#STIXGeneral-Regular-22c5" transform="translate(275.507166 0.409375)"/>
      <use xlink:href="#STIXGeneral-Regular-6d" transform="translate(318.547153 0.409375)"/>
      <use xlink:href="#STIXGeneral-Regular-32" transform="translate(397.890422 35.684375) scale(0.7)"/>
      <use xlink:href="#STIXGeneral-Regular-2f" transform="translate(437.299786 0.409375)"/>
      <use xlink:href="#STIXGeneral-Regular-57" transform="translate(465.099774 0.409375)"/>
     </g>
    </g>
    <g id="text_15">
     <!-- $\times\mathdefault{10^{−6}}\mathdefault{}$ -->
     <g transform="translate(80.465625 36.1875) scale(0.4 -0.4)">
      <defs>
       <path id="STIXGeneral-Regular-d7" d="M 3821 141 
L 3526 -160 
L 2048 1312 
L 570 -160 
L 275 134 
L 1747 1613 
L 275 3091 
L 576 3386 
L 2048 1914 
L 3526 3386 
L 3821 3098 
L 2349 1613 
L 3821 141 
z
" transform="scale(0.015625)"/>
       <path id="LiberationSans-2212" d="M 316 1900 
L 316 2356 
L 3425 2356 
L 3425 1900 
L 316 1900 
z
" transform="scale(0.015625)"/>
      </defs>
      <use xlink:href="#STIXGeneral-Regular-d7" transform="translate(0 0.140625)"/>
      <use xlink:href="#LiberationSans-31" transform="translate(63.999985 0.140625)"/>
      <use xlink:href="#LiberationSans-30" transform="translate(119.615219 0.140625)"/>
      <use xlink:href="#LiberationSans-2212" transform="translate(176.154946 37.120312) scale(0.7)"/>
      <use xlink:href="#LiberationSans-36" transform="translate(217.033852 37.120312) scale(0.7)"/>
     </g>
    </g>
   </g>
   <g id="line2d_43">
    <path d="M 108.825735 615.812182 
L 108.882467 66.645818 
L 108.939198 338.608011 
L 109.109393 503.779714 
L 109.336319 552.787144 
L 109.619977 574.427556 
L 109.960366 585.815076 
L 110.357487 592.36827 
L 110.81134 596.260216 
L 111.265192 598.306623 
L 111.662313 599.220533 
L 112.002703 599.549027 
L 112.286361 599.56321 
L 112.570018 599.367846 
L 112.967139 598.768813 
L 113.420992 597.632464 
L 113.988308 595.529894 
L 114.612355 592.327999 
L 115.406597 586.966658 
L 116.711423 576.230645 
L 118.356638 563.306779 
L 119.718196 554.276387 
L 120.342243 551.490011 
L 120.739364 550.621215 
L 120.96629 550.513184 
L 121.193217 550.692802 
L 121.476874 551.298294 
L 121.873995 552.767185 
L 122.498043 556.101924 
L 124.19999 565.673705 
L 124.824037 567.946569 
L 125.334621 569.111037 
L 125.788473 569.634139 
L 126.128863 569.730646 
L 126.469252 569.599539 
L 126.866373 569.174955 
L 127.376957 568.251618 
L 128.057736 566.459529 
L 128.90871 563.487522 
L 129.929878 559.078885 
L 131.007778 553.39507 
L 132.709725 544.234311 
L 133.333772 542.15243 
L 133.730893 541.460917 
L 134.014551 541.307921 
L 134.298208 541.442711 
L 134.581866 541.852402 
L 134.978987 542.849542 
L 135.546303 544.95351 
L 136.397276 549.146381 
L 138.382881 559.214904 
L 139.06366 561.470517 
L 139.574244 562.528037 
L 140.028097 562.998625 
L 140.368486 563.068104 
L 140.708875 562.902693 
L 141.105996 562.427311 
L 141.559849 561.534393 
L 142.183896 559.77188 
L 143.148333 556.274834 
L 144.85028 549.982069 
L 145.531059 548.342431 
L 146.098374 547.502247 
L 146.66569 547.010553 
L 147.346469 546.722087 
L 148.424368 546.26483 
L 149.785926 545.48353 
L 150.239779 545.517056 
L 150.693631 545.830402 
L 151.204215 546.525849 
L 151.828262 547.820697 
L 152.622504 550.030717 
L 154.437915 555.148041 
L 155.175425 556.568443 
L 155.799472 557.351161 
L 156.366788 557.748005 
L 156.934103 557.88534 
L 157.444688 557.794962 
L 158.125466 557.422286 
L 159.146635 556.542379 
L 160.224534 555.72375 
L 160.962045 555.430191 
L 161.642823 555.374185 
L 162.323602 555.527299 
L 162.94765 555.875858 
L 163.628428 556.505119 
L 164.649597 557.844193 
L 165.897691 559.410108 
L 166.805396 560.193156 
L 167.599638 560.57296 
L 168.450611 560.718165 
L 169.528511 560.665837 
L 170.606411 560.403384 
L 171.797774 559.878622 
L 174.123768 558.500167 
L 175.65552 557.772875 
L 176.903615 557.407264 
L 177.868051 557.361025 
L 179.002683 557.560733 
L 183.200819 558.739557 
L 185.526813 559.349539 
L 186.49125 559.355702 
L 187.569149 559.127151 
L 190.178801 558.442744 
L 191.19997 558.472111 
L 192.277869 558.731286 
L 195.284642 559.637975 
L 196.192347 559.539914 
L 197.213516 559.188043 
L 199.369315 558.129073 
L 200.560678 557.697247 
L 201.468383 557.603685 
L 202.319357 557.745476 
L 203.397256 558.18221 
L 206.574224 559.598456 
L 208.786755 560.256335 
L 210.091581 560.456267 
L 211.112749 560.391205 
L 212.304112 560.083384 
L 213.66567 559.502024 
L 215.367617 558.477318 
L 216.672443 557.788535 
L 217.580148 557.541259 
L 218.487853 557.530806 
L 219.45229 557.756343 
L 220.416726 558.203357 
L 221.381163 558.918588 
L 223.82062 560.916636 
L 224.671594 561.190191 
L 225.692762 561.280613 
L 226.770662 561.160629 
L 227.79183 560.823211 
L 228.926461 560.202568 
L 231.536113 558.647229 
L 232.614013 558.324159 
L 233.57845 558.258386 
L 234.486155 558.410869 
L 236.017907 558.945351 
L 237.266002 559.26898 
L 238.400633 559.339364 
L 239.818922 559.191081 
L 244.754568 558.520775 
L 246.116126 558.621479 
L 251.278699 559.291908 
L 252.923914 559.297992 
L 254.682593 559.053189 
L 256.441271 558.572163 
L 258.143218 558.161328 
L 259.050923 558.172704 
L 260.072091 558.423839 
L 261.547112 559.041657 
L 265.745248 560.890386 
L 266.766416 561.065143 
L 267.674121 560.996244 
L 268.695289 560.674152 
L 269.829921 560.078324 
L 270.964552 559.237444 
L 272.779962 557.54274 
L 273.914594 556.655032 
L 274.708835 556.288359 
L 275.446346 556.193609 
L 276.127125 556.328062 
L 276.864635 556.711464 
L 277.602145 557.358685 
L 278.50985 558.474258 
L 280.325261 560.771563 
L 281.119502 561.387233 
L 281.970476 561.761346 
L 282.821449 561.907507 
L 283.729155 561.827304 
L 284.63686 561.506775 
L 285.714759 560.864447 
L 288.494606 559.063564 
L 289.629237 558.661736 
L 290.650406 558.533927 
L 291.614842 558.655641 
L 293.033131 559.106579 
L 295.699515 559.941837 
L 297.514925 560.278881 
L 298.706288 560.290824 
L 299.727456 560.078609 
L 301.202477 559.49245 
L 302.677498 558.996675 
L 303.755398 558.873918 
L 305.060224 558.953103 
L 306.989097 559.317799 
L 308.747775 559.579239 
L 310.619917 559.586843 
L 316.576732 559.59459 
L 320.547941 559.935928 
L 322.760472 559.894078 
L 324.405688 559.641288 
L 326.391293 559.349701 
L 328.887481 559.057396 
L 332.858691 558.29985 
L 333.766396 558.429164 
L 334.503907 558.759473 
L 335.35488 559.41447 
L 337.397216 561.143384 
L 338.304922 561.540038 
L 339.32609 561.738957 
L 340.403989 561.723011 
L 341.481889 561.484994 
L 342.786715 560.955235 
L 345.906951 559.589145 
L 347.268509 559.248609 
L 348.232946 559.2293 
L 349.424309 559.446303 
L 352.37435 560.079772 
L 355.721512 560.390087 
L 357.196533 560.335077 
L 359.182138 560.008605 
L 361.79179 559.606423 
L 362.756227 559.686787 
L 363.663932 559.976021 
L 365.082221 560.708327 
L 366.557242 561.391732 
L 367.521678 561.588434 
L 368.31592 561.534439 
L 369.110162 561.269545 
L 370.13133 560.668976 
L 372.173667 559.388065 
L 373.081372 559.121938 
L 373.989077 559.084411 
L 375.123708 559.276188 
L 376.485266 559.74707 
L 378.754528 560.818294 
L 380.002623 561.286061 
L 380.853596 561.373415 
L 381.647838 561.22285 
L 382.498812 560.828198 
L 383.463248 560.126579 
L 384.768074 558.868146 
L 386.356558 557.376457 
L 387.1508 556.939623 
L 387.831579 556.810505 
L 388.512358 556.90543 
L 389.3066 557.252943 
L 390.271036 557.935075 
L 391.235473 558.883347 
L 394.072051 561.938767 
L 394.809562 562.237237 
L 395.717267 562.346176 
L 396.738435 562.241682 
L 397.873066 561.901365 
L 399.858671 561.01504 
L 401.447155 560.447301 
L 403.262565 560.075623 
L 404.567391 560.003922 
L 405.815486 560.190176 
L 409.162648 560.811189 
L 411.261716 560.881425 
L 413.417516 560.754841 
L 419.657988 560.116536 
L 420.849351 560.306335 
L 424.423439 561.061812 
L 425.784997 561.034787 
L 427.770602 560.71879 
L 429.018696 560.64913 
L 430.323522 560.815437 
L 432.819711 561.161509 
L 434.521658 561.134899 
L 436.904384 560.86217 
L 438.549599 560.438761 
L 440.818862 559.892758 
L 443.088125 559.546096 
L 444.449682 559.586005 
L 446.151629 559.890063 
L 447.683382 560.358551 
L 448.70455 560.929334 
L 450.803618 562.195476 
L 451.824786 562.468493 
L 452.959417 562.547798 
L 453.923854 562.397964 
L 454.831559 562.026891 
L 455.909459 561.319177 
L 458.065258 559.820261 
L 458.972963 559.495836 
L 459.823937 559.412266 
L 460.731642 559.549549 
L 461.75281 559.949851 
L 464.135536 560.962427 
L 465.326899 561.145103 
L 468.27694 561.239001 
L 470.035619 561.223538 
L 471.794297 560.922783 
L 473.269318 560.763652 
L 474.460681 560.877031 
L 475.87897 561.261164 
L 478.375159 562.00128 
L 479.339596 562.007158 
L 480.474227 561.780091 
L 485.693531 560.497443 
L 487.11182 560.45067 
L 488.473378 560.623167 
L 489.721472 561.011538 
L 491.707077 561.929128 
L 493.011903 562.410251 
L 493.919608 562.514535 
L 494.827313 562.389281 
L 496.188871 561.938147 
L 499.819691 560.671168 
L 501.124517 560.472095 
L 502.372612 560.507807 
L 503.620706 560.762219 
L 504.585143 561.17437 
L 505.606311 561.876163 
L 507.138063 562.95105 
L 508.045768 563.283743 
L 509.123668 563.414444 
L 510.541957 563.347206 
L 512.016978 563.055675 
L 516.158382 561.864219 
L 518.087256 561.394749 
L 519.165155 561.382716 
L 520.526713 561.606271 
L 523.703681 562.197434 
L 525.065238 562.169431 
L 526.313333 561.926697 
L 529.206643 561.231966 
L 530.114348 561.319023 
L 531.248979 561.664347 
L 535.447115 563.164593 
L 536.581746 563.157289 
L 538.794277 562.837827 
L 542.935682 562.317977 
L 545.318408 562.00157 
L 547.190549 561.78567 
L 548.381912 561.882061 
L 550.027128 562.281207 
L 551.502148 562.54138 
L 552.977169 562.551713 
L 554.622385 562.355042 
L 556.2676 561.909972 
L 558.877252 561.209462 
L 560.068615 561.110774 
L 560.862857 561.237215 
L 561.600367 561.584053 
L 562.451341 562.261373 
L 564.380214 563.893558 
L 565.344651 564.335094 
L 566.365819 564.550581 
L 567.386987 564.534404 
L 568.521618 564.279477 
L 570.280297 563.608892 
L 572.322633 562.920639 
L 574.194775 562.507177 
L 575.215943 562.512379 
L 576.350574 562.755982 
L 579.470811 563.566415 
L 580.718905 563.598641 
L 582.080463 563.413332 
L 583.498752 562.993127 
L 585.881478 562.236783 
L 587.016109 562.151858 
L 588.434398 562.286314 
L 594.221018 563.047408 
L 597.454717 563.054136 
L 600.177832 562.967927 
L 602.730753 563.184238 
L 604.375968 563.540374 
L 608.233715 564.544511 
L 609.481809 564.485897 
L 610.786635 564.19686 
L 612.091461 563.654596 
L 614.530919 562.570427 
L 615.552087 562.394728 
L 616.516524 562.452042 
L 617.424229 562.720313 
L 618.275202 563.213526 
L 619.353102 564.140985 
L 620.431002 565.067416 
L 621.338707 565.571874 
L 622.303143 565.837868 
L 623.494506 565.930337 
L 624.856064 565.803958 
L 626.501279 565.414072 
L 631.60712 564.091805 
L 632.741752 564.101761 
L 634.273504 564.358569 
L 637.790861 565.237925 
L 639.492808 565.551175 
L 640.627439 565.526942 
L 641.875534 565.26175 
L 644.768844 564.571337 
L 645.903475 564.567805 
L 647.038106 564.798373 
L 650.385269 565.661113 
L 651.633363 565.641253 
L 652.824726 565.399323 
L 654.243015 564.85173 
L 656.001694 564.193577 
L 657.022862 564.0584 
L 657.987299 564.154495 
L 659.065198 564.498339 
L 660.540219 565.235757 
L 662.298898 566.059262 
L 663.263334 566.278889 
L 664.171039 566.249158 
L 665.135476 565.973981 
L 666.894155 565.168557 
L 671.035559 563.277756 
L 671.999996 563.147477 
L 672.850969 563.250604 
L 673.701943 563.574271 
L 674.552916 564.139392 
L 675.517353 565.068471 
L 676.027937 565.62797 
L 676.027937 565.62797 
" clip-path="url(#pad5dd97a2e)" style="fill: none; stroke: #0000ff; stroke-width: 1.5; stroke-linecap: square"/>
   </g>
   <g id="patch_3">
    <path d="M 80.465625 643.2705 
L 80.465625 39.1875 
" style="fill: none; stroke: #000000; stroke-width: 0.8; stroke-linejoin: miter; stroke-linecap: square"/>
   </g>
   <g id="patch_4">
    <path d="M 704.388047 643.2705 
L 704.388047 39.1875 
" style="fill: none; stroke: #000000; stroke-width: 0.8; stroke-linejoin: miter; stroke-linecap: square"/>
   </g>
   <g id="patch_5">
    <path d="M 80.465625 643.2705 
L 704.388047 643.2705 
" style="fill: none; stroke: #000000; stroke-width: 0.8; stroke-linejoin: miter; stroke-linecap: square"/>
   </g>
   <g id="patch_6">
    <path d="M 80.465625 39.1875 
L 704.388047 39.1875 
" style="fill: none; stroke: #000000; stroke-width: 0.8; stroke-linejoin: miter; stroke-linecap: square"/>
   </g>
  </g>
 </g>
 <defs>
  <clipPath id="pad5dd97a2e">
   <rect x="80.465625" y="39.1875" width="623.922422" height="604.083"/>
  </clipPath>
 </defs>
</svg>
