<?xml version="1.0" encoding="utf-8" standalone="no"?>
<!DOCTYPE svg PUBLIC "-//W3C//DTD SVG 1.1//EN"
  "http://www.w3.org/Graphics/SVG/1.1/DTD/svg11.dtd">
<svg xmlns:xlink="http://www.w3.org/1999/xlink" width="710.399977pt" height="711.02175pt" viewBox="0 0 710.399977 711.02175" xmlns="http://www.w3.org/2000/svg" version="1.1">
 <metadata>
  <rdf:RDF xmlns:dc="http://purl.org/dc/elements/1.1/" xmlns:cc="http://creativecommons.org/ns#" xmlns:rdf="http://www.w3.org/1999/02/22-rdf-syntax-ns#">
   <cc:Work>
    <dc:type rdf:resource="http://purl.org/dc/dcmitype/StillImage"/>
    <dc:date>2025-02-05T18:29:32.544822</dc:date>
    <dc:format>image/svg+xml</dc:format>
    <dc:creator>
     <cc:Agent>
      <dc:title>Matplotlib v3.9.3, https://matplotlib.org/</dc:title>
     </cc:Agent>
    </dc:creator>
   </cc:Work>
  </rdf:RDF>
 </metadata>
 <defs>
  <style type="text/css">*{stroke-linejoin: round; stroke-linecap: butt}</style>
 </defs>
 <g id="figure_1">
  <g id="patch_1">
   <path d="M 0 711.02175 
L 710.399977 711.02175 
L 710.399977 0 
L 0 0 
z
" style="fill: #ffffff"/>
  </g>
  <g id="axes_1">
   <g id="patch_2">
    <path d="M 104.4 640.3905 
L 703.199977 640.3905 
L 703.199977 39.1875 
L 104.4 39.1875 
z
" style="fill: #ffffff"/>
   </g>
   <g id="matplotlib.axis_1">
    <g id="xtick_1">
     <g id="line2d_1">
      <defs>
       <path id="m48907bacb3" d="M 0 0 
L 0 -3.5 
" style="stroke: #000000; stroke-width: 0.8"/>
      </defs>
      <g>
       <use xlink:href="#m48907bacb3" x="131.563739" y="640.3905" style="stroke: #000000; stroke-width: 0.8"/>
      </g>
     </g>
     <g id="text_1">
      <!-- 0 -->
      <g transform="translate(123.222333 665.631125) scale(0.3 -0.3)">
       <defs>
        <path id="LiberationSans-30" d="M 3309 2203 
Q 3309 1100 2920 518 
Q 2531 -63 1772 -63 
Q 1013 -63 631 515 
Q 250 1094 250 2203 
Q 250 3338 620 3903 
Q 991 4469 1791 4469 
Q 2569 4469 2939 3897 
Q 3309 3325 3309 2203 
z
M 2738 2203 
Q 2738 3156 2517 3584 
Q 2297 4013 1791 4013 
Q 1272 4013 1045 3591 
Q 819 3169 819 2203 
Q 819 1266 1048 831 
Q 1278 397 1778 397 
Q 2275 397 2506 840 
Q 2738 1284 2738 2203 
z
" transform="scale(0.015625)"/>
       </defs>
       <use xlink:href="#LiberationSans-30"/>
      </g>
     </g>
    </g>
    <g id="xtick_2">
     <g id="line2d_2">
      <g>
       <use xlink:href="#m48907bacb3" x="240.44735" y="640.3905" style="stroke: #000000; stroke-width: 0.8"/>
      </g>
     </g>
     <g id="text_2">
      <!-- 2 -->
      <g transform="translate(232.105944 665.631125) scale(0.3 -0.3)">
       <defs>
        <path id="LiberationSans-32" d="M 322 0 
L 322 397 
Q 481 763 711 1042 
Q 941 1322 1194 1548 
Q 1447 1775 1695 1969 
Q 1944 2163 2144 2356 
Q 2344 2550 2467 2762 
Q 2591 2975 2591 3244 
Q 2591 3606 2378 3806 
Q 2166 4006 1788 4006 
Q 1428 4006 1195 3811 
Q 963 3616 922 3263 
L 347 3316 
Q 409 3844 795 4156 
Q 1181 4469 1788 4469 
Q 2453 4469 2811 4155 
Q 3169 3841 3169 3263 
Q 3169 3006 3051 2753 
Q 2934 2500 2703 2247 
Q 2472 1994 1819 1463 
Q 1459 1169 1246 933 
Q 1034 697 941 478 
L 3238 478 
L 3238 0 
L 322 0 
z
" transform="scale(0.015625)"/>
       </defs>
       <use xlink:href="#LiberationSans-32"/>
      </g>
     </g>
    </g>
    <g id="xtick_3">
     <g id="line2d_3">
      <g>
       <use xlink:href="#m48907bacb3" x="349.330962" y="640.3905" style="stroke: #000000; stroke-width: 0.8"/>
      </g>
     </g>
     <g id="text_3">
      <!-- 4 -->
      <g transform="translate(340.989555 665.631125) scale(0.3 -0.3)">
       <defs>
        <path id="LiberationSans-34" d="M 2753 997 
L 2753 0 
L 2222 0 
L 2222 997 
L 147 997 
L 147 1434 
L 2163 4403 
L 2753 4403 
L 2753 1441 
L 3372 1441 
L 3372 997 
L 2753 997 
z
M 2222 3769 
Q 2216 3750 2134 3603 
Q 2053 3456 2013 3397 
L 884 1734 
L 716 1503 
L 666 1441 
L 2222 1441 
L 2222 3769 
z
" transform="scale(0.015625)"/>
       </defs>
       <use xlink:href="#LiberationSans-34"/>
      </g>
     </g>
    </g>
    <g id="xtick_4">
     <g id="line2d_4">
      <g>
       <use xlink:href="#m48907bacb3" x="458.214573" y="640.3905" style="stroke: #000000; stroke-width: 0.8"/>
      </g>
     </g>
     <g id="text_4">
      <!-- 6 -->
      <g transform="translate(449.873167 665.631125) scale(0.3 -0.3)">
       <defs>
        <path id="LiberationSans-36" d="M 3278 1441 
Q 3278 744 2900 340 
Q 2522 -63 1856 -63 
Q 1113 -63 719 490 
Q 325 1044 325 2100 
Q 325 3244 734 3856 
Q 1144 4469 1900 4469 
Q 2897 4469 3156 3572 
L 2619 3475 
Q 2453 4013 1894 4013 
Q 1413 4013 1148 3564 
Q 884 3116 884 2266 
Q 1038 2550 1316 2698 
Q 1594 2847 1953 2847 
Q 2563 2847 2920 2465 
Q 3278 2084 3278 1441 
z
M 2706 1416 
Q 2706 1894 2472 2153 
Q 2238 2413 1819 2413 
Q 1425 2413 1183 2183 
Q 941 1953 941 1550 
Q 941 1041 1192 716 
Q 1444 391 1838 391 
Q 2244 391 2475 664 
Q 2706 938 2706 1416 
z
" transform="scale(0.015625)"/>
       </defs>
       <use xlink:href="#LiberationSans-36"/>
      </g>
     </g>
    </g>
    <g id="xtick_5">
     <g id="line2d_5">
      <g>
       <use xlink:href="#m48907bacb3" x="567.098184" y="640.3905" style="stroke: #000000; stroke-width: 0.8"/>
      </g>
     </g>
     <g id="text_5">
      <!-- 8 -->
      <g transform="translate(558.756778 665.631125) scale(0.3 -0.3)">
       <defs>
        <path id="LiberationSans-38" d="M 3281 1228 
Q 3281 619 2893 278 
Q 2506 -63 1781 -63 
Q 1075 -63 676 271 
Q 278 606 278 1222 
Q 278 1653 525 1947 
Q 772 2241 1156 2303 
L 1156 2316 
Q 797 2400 589 2681 
Q 381 2963 381 3341 
Q 381 3844 757 4156 
Q 1134 4469 1769 4469 
Q 2419 4469 2795 4162 
Q 3172 3856 3172 3334 
Q 3172 2956 2962 2675 
Q 2753 2394 2391 2322 
L 2391 2309 
Q 2813 2241 3047 1952 
Q 3281 1663 3281 1228 
z
M 2588 3303 
Q 2588 4050 1769 4050 
Q 1372 4050 1164 3862 
Q 956 3675 956 3303 
Q 956 2925 1170 2726 
Q 1384 2528 1775 2528 
Q 2172 2528 2380 2711 
Q 2588 2894 2588 3303 
z
M 2697 1281 
Q 2697 1691 2453 1898 
Q 2209 2106 1769 2106 
Q 1341 2106 1100 1882 
Q 859 1659 859 1269 
Q 859 359 1788 359 
Q 2247 359 2472 579 
Q 2697 800 2697 1281 
z
" transform="scale(0.015625)"/>
       </defs>
       <use xlink:href="#LiberationSans-38"/>
      </g>
     </g>
    </g>
    <g id="xtick_6">
     <g id="line2d_6">
      <g>
       <use xlink:href="#m48907bacb3" x="675.981796" y="640.3905" style="stroke: #000000; stroke-width: 0.8"/>
      </g>
     </g>
     <g id="text_6">
      <!-- 10 -->
      <g transform="translate(659.298983 665.631125) scale(0.3 -0.3)">
       <defs>
        <path id="LiberationSans-31" d="M 488 0 
L 488 478 
L 1609 478 
L 1609 3866 
L 616 3156 
L 616 3688 
L 1656 4403 
L 2175 4403 
L 2175 478 
L 3247 478 
L 3247 0 
L 488 0 
z
" transform="scale(0.015625)"/>
       </defs>
       <use xlink:href="#LiberationSans-31"/>
       <use xlink:href="#LiberationSans-30" x="55.615234"/>
      </g>
     </g>
    </g>
    <g id="xtick_7">
     <g id="line2d_7">
      <defs>
       <path id="m890c94de1e" d="M 0 0 
L 0 -2 
" style="stroke: #000000; stroke-width: 0.6"/>
      </defs>
      <g>
       <use xlink:href="#m890c94de1e" x="158.784642" y="640.3905" style="stroke: #000000; stroke-width: 0.6"/>
      </g>
     </g>
    </g>
    <g id="xtick_8">
     <g id="line2d_8">
      <g>
       <use xlink:href="#m890c94de1e" x="186.005545" y="640.3905" style="stroke: #000000; stroke-width: 0.6"/>
      </g>
     </g>
    </g>
    <g id="xtick_9">
     <g id="line2d_9">
      <g>
       <use xlink:href="#m890c94de1e" x="213.226447" y="640.3905" style="stroke: #000000; stroke-width: 0.6"/>
      </g>
     </g>
    </g>
    <g id="xtick_10">
     <g id="line2d_10">
      <g>
       <use xlink:href="#m890c94de1e" x="267.668253" y="640.3905" style="stroke: #000000; stroke-width: 0.6"/>
      </g>
     </g>
    </g>
    <g id="xtick_11">
     <g id="line2d_11">
      <g>
       <use xlink:href="#m890c94de1e" x="294.889156" y="640.3905" style="stroke: #000000; stroke-width: 0.6"/>
      </g>
     </g>
    </g>
    <g id="xtick_12">
     <g id="line2d_12">
      <g>
       <use xlink:href="#m890c94de1e" x="322.110059" y="640.3905" style="stroke: #000000; stroke-width: 0.6"/>
      </g>
     </g>
    </g>
    <g id="xtick_13">
     <g id="line2d_13">
      <g>
       <use xlink:href="#m890c94de1e" x="376.551865" y="640.3905" style="stroke: #000000; stroke-width: 0.6"/>
      </g>
     </g>
    </g>
    <g id="xtick_14">
     <g id="line2d_14">
      <g>
       <use xlink:href="#m890c94de1e" x="403.772767" y="640.3905" style="stroke: #000000; stroke-width: 0.6"/>
      </g>
     </g>
    </g>
    <g id="xtick_15">
     <g id="line2d_15">
      <g>
       <use xlink:href="#m890c94de1e" x="430.99367" y="640.3905" style="stroke: #000000; stroke-width: 0.6"/>
      </g>
     </g>
    </g>
    <g id="xtick_16">
     <g id="line2d_16">
      <g>
       <use xlink:href="#m890c94de1e" x="485.435476" y="640.3905" style="stroke: #000000; stroke-width: 0.6"/>
      </g>
     </g>
    </g>
    <g id="xtick_17">
     <g id="line2d_17">
      <g>
       <use xlink:href="#m890c94de1e" x="512.656379" y="640.3905" style="stroke: #000000; stroke-width: 0.6"/>
      </g>
     </g>
    </g>
    <g id="xtick_18">
     <g id="line2d_18">
      <g>
       <use xlink:href="#m890c94de1e" x="539.877282" y="640.3905" style="stroke: #000000; stroke-width: 0.6"/>
      </g>
     </g>
    </g>
    <g id="xtick_19">
     <g id="line2d_19">
      <g>
       <use xlink:href="#m890c94de1e" x="594.319087" y="640.3905" style="stroke: #000000; stroke-width: 0.6"/>
      </g>
     </g>
    </g>
    <g id="xtick_20">
     <g id="line2d_20">
      <g>
       <use xlink:href="#m890c94de1e" x="621.53999" y="640.3905" style="stroke: #000000; stroke-width: 0.6"/>
      </g>
     </g>
    </g>
    <g id="xtick_21">
     <g id="line2d_21">
      <g>
       <use xlink:href="#m890c94de1e" x="648.760893" y="640.3905" style="stroke: #000000; stroke-width: 0.6"/>
      </g>
     </g>
    </g>
    <g id="text_7">
     <!-- Time ps -->
     <g transform="translate(351.023426 697.59675) scale(0.3 -0.3)">
      <defs>
       <path id="LiberationSans-54" d="M 2250 3916 
L 2250 0 
L 1656 0 
L 1656 3916 
L 144 3916 
L 144 4403 
L 3763 4403 
L 3763 3916 
L 2250 3916 
z
" transform="scale(0.015625)"/>
       <path id="LiberationSans-69" d="M 428 4100 
L 428 4638 
L 991 4638 
L 991 4100 
L 428 4100 
z
M 428 0 
L 428 3381 
L 991 3381 
L 991 0 
L 428 0 
z
" transform="scale(0.015625)"/>
       <path id="LiberationSans-6d" d="M 2400 0 
L 2400 2144 
Q 2400 2634 2265 2821 
Q 2131 3009 1781 3009 
Q 1422 3009 1212 2734 
Q 1003 2459 1003 1959 
L 1003 0 
L 444 0 
L 444 2659 
Q 444 3250 425 3381 
L 956 3381 
Q 959 3366 962 3297 
Q 966 3228 970 3139 
Q 975 3050 981 2803 
L 991 2803 
Q 1172 3163 1406 3303 
Q 1641 3444 1978 3444 
Q 2363 3444 2586 3291 
Q 2809 3138 2897 2803 
L 2906 2803 
Q 3081 3144 3329 3294 
Q 3578 3444 3931 3444 
Q 4444 3444 4676 3166 
Q 4909 2888 4909 2253 
L 4909 0 
L 4353 0 
L 4353 2144 
Q 4353 2634 4218 2821 
Q 4084 3009 3734 3009 
Q 3366 3009 3161 2736 
Q 2956 2463 2956 1959 
L 2956 0 
L 2400 0 
z
" transform="scale(0.015625)"/>
       <path id="LiberationSans-65" d="M 863 1572 
Q 863 991 1103 675 
Q 1344 359 1806 359 
Q 2172 359 2392 506 
Q 2613 653 2691 878 
L 3184 738 
Q 2881 -63 1806 -63 
Q 1056 -63 664 384 
Q 272 831 272 1713 
Q 272 2550 664 2997 
Q 1056 3444 1784 3444 
Q 3275 3444 3275 1647 
L 3275 1572 
L 863 1572 
z
M 2694 2003 
Q 2647 2538 2422 2783 
Q 2197 3028 1775 3028 
Q 1366 3028 1127 2754 
Q 888 2481 869 2003 
L 2694 2003 
z
" transform="scale(0.015625)"/>
       <path id="LiberationSans-20" transform="scale(0.015625)"/>
       <path id="LiberationSans-70" d="M 3291 1706 
Q 3291 -63 2047 -63 
Q 1266 -63 997 525 
L 981 525 
Q 994 500 994 -6 
L 994 -1328 
L 431 -1328 
L 431 2691 
Q 431 3213 413 3381 
L 956 3381 
Q 959 3369 965 3292 
Q 972 3216 980 3056 
Q 988 2897 988 2838 
L 1000 2838 
Q 1150 3150 1397 3295 
Q 1644 3441 2047 3441 
Q 2672 3441 2981 3022 
Q 3291 2603 3291 1706 
z
M 2700 1694 
Q 2700 2400 2509 2703 
Q 2319 3006 1903 3006 
Q 1569 3006 1380 2865 
Q 1191 2725 1092 2426 
Q 994 2128 994 1650 
Q 994 984 1206 668 
Q 1419 353 1897 353 
Q 2316 353 2508 661 
Q 2700 969 2700 1694 
z
" transform="scale(0.015625)"/>
       <path id="LiberationSans-73" d="M 2969 934 
Q 2969 456 2608 196 
Q 2247 -63 1597 -63 
Q 966 -63 623 145 
Q 281 353 178 794 
L 675 891 
Q 747 619 972 492 
Q 1197 366 1597 366 
Q 2025 366 2223 497 
Q 2422 628 2422 891 
Q 2422 1091 2284 1216 
Q 2147 1341 1841 1422 
L 1438 1528 
Q 953 1653 748 1773 
Q 544 1894 428 2066 
Q 313 2238 313 2488 
Q 313 2950 642 3192 
Q 972 3434 1603 3434 
Q 2163 3434 2492 3237 
Q 2822 3041 2909 2606 
L 2403 2544 
Q 2356 2769 2151 2889 
Q 1947 3009 1603 3009 
Q 1222 3009 1040 2893 
Q 859 2778 859 2544 
Q 859 2400 934 2306 
Q 1009 2213 1156 2147 
Q 1303 2081 1775 1966 
Q 2222 1853 2419 1758 
Q 2616 1663 2730 1547 
Q 2844 1431 2906 1279 
Q 2969 1128 2969 934 
z
" transform="scale(0.015625)"/>
      </defs>
      <use xlink:href="#LiberationSans-54"/>
      <use xlink:href="#LiberationSans-69" x="57.333984"/>
      <use xlink:href="#LiberationSans-6d" x="79.550781"/>
      <use xlink:href="#LiberationSans-65" x="162.851562"/>
      <use xlink:href="#LiberationSans-20" x="218.466797"/>
      <use xlink:href="#LiberationSans-70" x="246.25"/>
      <use xlink:href="#LiberationSans-73" x="301.865234"/>
     </g>
    </g>
   </g>
   <g id="matplotlib.axis_2">
    <g id="ytick_1">
     <g id="line2d_22">
      <defs>
       <path id="m7f497e05b4" d="M 0 0 
L 3.5 0 
" style="stroke: #000000; stroke-width: 0.8"/>
      </defs>
      <g>
       <use xlink:href="#m7f497e05b4" x="104.4" y="611.652638" style="stroke: #000000; stroke-width: 0.8"/>
      </g>
     </g>
     <g id="text_8">
      <!-- $\mathdefault{−0.5}$ -->
      <g transform="translate(41.5 622.52295) scale(0.3 -0.3)">
       <defs>
        <path id="LiberationSans-2212" d="M 316 1900 
L 316 2356 
L 3425 2356 
L 3425 1900 
L 316 1900 
z
" transform="scale(0.015625)"/>
        <path id="LiberationSans-2e" d="M 584 0 
L 584 684 
L 1194 684 
L 1194 0 
L 584 0 
z
" transform="scale(0.015625)"/>
        <path id="LiberationSans-35" d="M 3291 1434 
Q 3291 738 2877 337 
Q 2463 -63 1728 -63 
Q 1113 -63 734 206 
Q 356 475 256 984 
L 825 1050 
Q 1003 397 1741 397 
Q 2194 397 2450 670 
Q 2706 944 2706 1422 
Q 2706 1838 2448 2094 
Q 2191 2350 1753 2350 
Q 1525 2350 1328 2278 
Q 1131 2206 934 2034 
L 384 2034 
L 531 4403 
L 3034 4403 
L 3034 3925 
L 1044 3925 
L 959 2528 
Q 1325 2809 1869 2809 
Q 2519 2809 2905 2428 
Q 3291 2047 3291 1434 
z
" transform="scale(0.015625)"/>
       </defs>
       <use xlink:href="#LiberationSans-2212" transform="translate(0 0.171875)"/>
       <use xlink:href="#LiberationSans-30" transform="translate(58.398438 0.171875)"/>
       <use xlink:href="#LiberationSans-2e" transform="translate(114.013672 0.171875)"/>
       <use xlink:href="#LiberationSans-35" transform="translate(141.796875 0.171875)"/>
      </g>
     </g>
    </g>
    <g id="ytick_2">
     <g id="line2d_23">
      <g>
       <use xlink:href="#m7f497e05b4" x="104.4" y="495.659226" style="stroke: #000000; stroke-width: 0.8"/>
      </g>
     </g>
     <g id="text_9">
      <!-- $\mathdefault{0.0}$ -->
      <g transform="translate(58.9 506.529539) scale(0.3 -0.3)">
       <use xlink:href="#LiberationSans-30" transform="translate(0 0.171875)"/>
       <use xlink:href="#LiberationSans-2e" transform="translate(55.615234 0.171875)"/>
       <use xlink:href="#LiberationSans-30" transform="translate(83.398438 0.171875)"/>
      </g>
     </g>
    </g>
    <g id="ytick_3">
     <g id="line2d_24">
      <g>
       <use xlink:href="#m7f497e05b4" x="104.4" y="379.665815" style="stroke: #000000; stroke-width: 0.8"/>
      </g>
     </g>
     <g id="text_10">
      <!-- $\mathdefault{0.5}$ -->
      <g transform="translate(58.9 390.536127) scale(0.3 -0.3)">
       <use xlink:href="#LiberationSans-30" transform="translate(0 0.171875)"/>
       <use xlink:href="#LiberationSans-2e" transform="translate(55.615234 0.171875)"/>
       <use xlink:href="#LiberationSans-35" transform="translate(83.398438 0.171875)"/>
      </g>
     </g>
    </g>
    <g id="ytick_4">
     <g id="line2d_25">
      <g>
       <use xlink:href="#m7f497e05b4" x="104.4" y="263.672403" style="stroke: #000000; stroke-width: 0.8"/>
      </g>
     </g>
     <g id="text_11">
      <!-- $\mathdefault{1.0}$ -->
      <g transform="translate(58.9 274.542716) scale(0.3 -0.3)">
       <use xlink:href="#LiberationSans-31" transform="translate(0 0.171875)"/>
       <use xlink:href="#LiberationSans-2e" transform="translate(55.615234 0.171875)"/>
       <use xlink:href="#LiberationSans-30" transform="translate(83.398438 0.171875)"/>
      </g>
     </g>
    </g>
    <g id="ytick_5">
     <g id="line2d_26">
      <g>
       <use xlink:href="#m7f497e05b4" x="104.4" y="147.678992" style="stroke: #000000; stroke-width: 0.8"/>
      </g>
     </g>
     <g id="text_12">
      <!-- $\mathdefault{1.5}$ -->
      <g transform="translate(58.9 158.549304) scale(0.3 -0.3)">
       <use xlink:href="#LiberationSans-31" transform="translate(0 0.203125)"/>
       <use xlink:href="#LiberationSans-2e" transform="translate(55.615234 0.203125)"/>
       <use xlink:href="#LiberationSans-35" transform="translate(83.398438 0.203125)"/>
      </g>
     </g>
    </g>
    <g id="ytick_6">
     <g id="line2d_27">
      <defs>
       <path id="m5bdf6af22f" d="M 0 0 
L 2 0 
" style="stroke: #000000; stroke-width: 0.6"/>
      </defs>
      <g>
       <use xlink:href="#m5bdf6af22f" x="104.4" y="634.85132" style="stroke: #000000; stroke-width: 0.6"/>
      </g>
     </g>
    </g>
    <g id="ytick_7">
     <g id="line2d_28">
      <g>
       <use xlink:href="#m5bdf6af22f" x="104.4" y="588.453956" style="stroke: #000000; stroke-width: 0.6"/>
      </g>
     </g>
    </g>
    <g id="ytick_8">
     <g id="line2d_29">
      <g>
       <use xlink:href="#m5bdf6af22f" x="104.4" y="565.255273" style="stroke: #000000; stroke-width: 0.6"/>
      </g>
     </g>
    </g>
    <g id="ytick_9">
     <g id="line2d_30">
      <g>
       <use xlink:href="#m5bdf6af22f" x="104.4" y="542.056591" style="stroke: #000000; stroke-width: 0.6"/>
      </g>
     </g>
    </g>
    <g id="ytick_10">
     <g id="line2d_31">
      <g>
       <use xlink:href="#m5bdf6af22f" x="104.4" y="518.857909" style="stroke: #000000; stroke-width: 0.6"/>
      </g>
     </g>
    </g>
    <g id="ytick_11">
     <g id="line2d_32">
      <g>
       <use xlink:href="#m5bdf6af22f" x="104.4" y="472.460544" style="stroke: #000000; stroke-width: 0.6"/>
      </g>
     </g>
    </g>
    <g id="ytick_12">
     <g id="line2d_33">
      <g>
       <use xlink:href="#m5bdf6af22f" x="104.4" y="449.261862" style="stroke: #000000; stroke-width: 0.6"/>
      </g>
     </g>
    </g>
    <g id="ytick_13">
     <g id="line2d_34">
      <g>
       <use xlink:href="#m5bdf6af22f" x="104.4" y="426.063179" style="stroke: #000000; stroke-width: 0.6"/>
      </g>
     </g>
    </g>
    <g id="ytick_14">
     <g id="line2d_35">
      <g>
       <use xlink:href="#m5bdf6af22f" x="104.4" y="402.864497" style="stroke: #000000; stroke-width: 0.6"/>
      </g>
     </g>
    </g>
    <g id="ytick_15">
     <g id="line2d_36">
      <g>
       <use xlink:href="#m5bdf6af22f" x="104.4" y="356.467133" style="stroke: #000000; stroke-width: 0.6"/>
      </g>
     </g>
    </g>
    <g id="ytick_16">
     <g id="line2d_37">
      <g>
       <use xlink:href="#m5bdf6af22f" x="104.4" y="333.26845" style="stroke: #000000; stroke-width: 0.6"/>
      </g>
     </g>
    </g>
    <g id="ytick_17">
     <g id="line2d_38">
      <g>
       <use xlink:href="#m5bdf6af22f" x="104.4" y="310.069768" style="stroke: #000000; stroke-width: 0.6"/>
      </g>
     </g>
    </g>
    <g id="ytick_18">
     <g id="line2d_39">
      <g>
       <use xlink:href="#m5bdf6af22f" x="104.4" y="286.871086" style="stroke: #000000; stroke-width: 0.6"/>
      </g>
     </g>
    </g>
    <g id="ytick_19">
     <g id="line2d_40">
      <g>
       <use xlink:href="#m5bdf6af22f" x="104.4" y="240.473721" style="stroke: #000000; stroke-width: 0.6"/>
      </g>
     </g>
    </g>
    <g id="ytick_20">
     <g id="line2d_41">
      <g>
       <use xlink:href="#m5bdf6af22f" x="104.4" y="217.275039" style="stroke: #000000; stroke-width: 0.6"/>
      </g>
     </g>
    </g>
    <g id="ytick_21">
     <g id="line2d_42">
      <g>
       <use xlink:href="#m5bdf6af22f" x="104.4" y="194.076356" style="stroke: #000000; stroke-width: 0.6"/>
      </g>
     </g>
    </g>
    <g id="ytick_22">
     <g id="line2d_43">
      <g>
       <use xlink:href="#m5bdf6af22f" x="104.4" y="170.877674" style="stroke: #000000; stroke-width: 0.6"/>
      </g>
     </g>
    </g>
    <g id="ytick_23">
     <g id="line2d_44">
      <g>
       <use xlink:href="#m5bdf6af22f" x="104.4" y="124.48031" style="stroke: #000000; stroke-width: 0.6"/>
      </g>
     </g>
    </g>
    <g id="ytick_24">
     <g id="line2d_45">
      <g>
       <use xlink:href="#m5bdf6af22f" x="104.4" y="101.281627" style="stroke: #000000; stroke-width: 0.6"/>
      </g>
     </g>
    </g>
    <g id="ytick_25">
     <g id="line2d_46">
      <g>
       <use xlink:href="#m5bdf6af22f" x="104.4" y="78.082945" style="stroke: #000000; stroke-width: 0.6"/>
      </g>
     </g>
    </g>
    <g id="ytick_26">
     <g id="line2d_47">
      <g>
       <use xlink:href="#m5bdf6af22f" x="104.4" y="54.884263" style="stroke: #000000; stroke-width: 0.6"/>
      </g>
     </g>
    </g>
    <g id="text_13">
     <!-- ACF $(\mathrm{W} / \mathrm{m}^2)^2$ -->
     <g transform="translate(31.275 426.339) rotate(-90) scale(0.3 -0.3)">
      <defs>
       <path id="LiberationSans-41" d="M 3647 0 
L 3144 1288 
L 1138 1288 
L 631 0 
L 13 0 
L 1809 4403 
L 2488 4403 
L 4256 0 
L 3647 0 
z
M 2141 3953 
L 2113 3866 
Q 2034 3606 1881 3200 
L 1319 1753 
L 2966 1753 
L 2400 3206 
Q 2313 3422 2225 3694 
L 2141 3953 
z
" transform="scale(0.015625)"/>
       <path id="LiberationSans-43" d="M 2475 3981 
Q 1744 3981 1337 3511 
Q 931 3041 931 2222 
Q 931 1413 1354 920 
Q 1778 428 2500 428 
Q 3425 428 3891 1344 
L 4378 1100 
Q 4106 531 3614 234 
Q 3122 -63 2472 -63 
Q 1806 -63 1320 214 
Q 834 491 579 1005 
Q 325 1519 325 2222 
Q 325 3275 894 3872 
Q 1463 4469 2469 4469 
Q 3172 4469 3644 4194 
Q 4116 3919 4338 3378 
L 3772 3191 
Q 3619 3575 3280 3778 
Q 2941 3981 2475 3981 
z
" transform="scale(0.015625)"/>
       <path id="LiberationSans-46" d="M 1122 3916 
L 1122 2278 
L 3578 2278 
L 3578 1784 
L 1122 1784 
L 1122 0 
L 525 0 
L 525 4403 
L 3653 4403 
L 3653 3916 
L 1122 3916 
z
" transform="scale(0.015625)"/>
       <path id="STIXGeneral-Regular-28" d="M 1946 -1030 
L 1869 -1133 
Q 1126 -710 716 32 
Q 307 774 307 1613 
Q 307 3386 1888 4326 
L 1946 4224 
Q 1293 3667 1075 3126 
Q 858 2586 858 1632 
Q 858 685 1082 96 
Q 1306 -493 1946 -1030 
z
" transform="scale(0.015625)"/>
       <path id="STIXGeneral-Regular-57" d="M 5965 4237 
L 5965 4115 
Q 5709 4064 5616 3990 
Q 5523 3917 5434 3667 
Q 4704 1709 4128 -70 
L 4032 -70 
Q 3642 1011 3008 2637 
L 2022 -70 
L 1926 -70 
Q 1709 576 1277 1753 
Q 845 2931 698 3347 
Q 538 3808 406 3958 
Q 275 4109 32 4115 
L 32 4237 
L 1594 4237 
L 1594 4115 
Q 1357 4109 1270 4064 
Q 1184 4019 1184 3917 
Q 1184 3808 1254 3616 
L 2176 1210 
L 2842 3021 
L 2662 3501 
Q 2509 3917 2400 4013 
Q 2291 4109 2010 4115 
L 2010 4237 
L 3706 4237 
L 3706 4115 
Q 3213 4102 3213 3891 
Q 3213 3808 3322 3520 
L 4237 1190 
L 5043 3360 
Q 5152 3667 5152 3853 
Q 5152 4109 4704 4115 
L 4704 4237 
L 5965 4237 
z
" transform="scale(0.015625)"/>
       <path id="STIXGeneral-Regular-2f" d="M 1837 4326 
L 378 -90 
L -58 -90 
L 1408 4326 
L 1837 4326 
z
" transform="scale(0.015625)"/>
       <path id="STIXGeneral-Regular-6d" d="M 4960 0 
L 3565 0 
L 3565 96 
Q 3834 122 3907 208 
Q 3981 294 3981 576 
L 3981 1894 
Q 3981 2278 3869 2444 
Q 3757 2611 3488 2611 
Q 3264 2611 3107 2521 
Q 2950 2432 2803 2221 
L 2803 608 
Q 2803 301 2896 201 
Q 2989 102 3264 96 
L 3264 0 
L 1830 0 
L 1830 96 
Q 2112 115 2189 188 
Q 2266 262 2266 550 
L 2266 1901 
Q 2266 2611 1850 2611 
Q 1670 2611 1468 2531 
Q 1267 2451 1171 2336 
Q 1088 2240 1088 2227 
L 1088 448 
Q 1088 243 1177 176 
Q 1267 109 1523 96 
L 1523 0 
L 102 0 
L 102 96 
Q 371 102 460 195 
Q 550 288 550 563 
L 550 2150 
Q 550 2387 499 2480 
Q 448 2573 326 2573 
Q 230 2573 122 2547 
L 122 2656 
Q 557 2778 1011 2944 
L 1062 2925 
L 1062 2451 
L 1075 2451 
Q 1363 2752 1584 2848 
Q 1805 2944 2054 2944 
Q 2560 2944 2733 2406 
Q 3232 2944 3776 2944 
Q 4518 2944 4518 1792 
L 4518 493 
Q 4518 282 4582 202 
Q 4646 122 4794 109 
L 4960 96 
L 4960 0 
z
" transform="scale(0.015625)"/>
       <path id="STIXGeneral-Regular-32" d="M 3034 877 
L 2688 0 
L 186 0 
L 186 77 
L 1325 1286 
Q 1773 1754 1965 2144 
Q 2157 2534 2157 2950 
Q 2157 3379 1920 3616 
Q 1683 3853 1267 3853 
Q 922 3853 720 3673 
Q 518 3494 326 3021 
L 192 3053 
Q 301 3648 630 3987 
Q 960 4326 1523 4326 
Q 2054 4326 2380 4006 
Q 2707 3686 2707 3200 
Q 2707 2477 1888 1613 
L 832 486 
L 2330 486 
Q 2541 486 2665 569 
Q 2790 653 2944 915 
L 3034 877 
z
" transform="scale(0.015625)"/>
       <path id="STIXGeneral-Regular-29" d="M 186 4224 
L 262 4326 
Q 992 3891 1408 3148 
Q 1824 2406 1824 1581 
Q 1824 -166 243 -1133 
L 186 -1030 
Q 845 -486 1059 54 
Q 1274 595 1274 1562 
Q 1274 2534 1059 3120 
Q 845 3706 186 4224 
z
" transform="scale(0.015625)"/>
      </defs>
      <use xlink:href="#LiberationSans-41" transform="translate(0 0.409375)"/>
      <use xlink:href="#LiberationSans-43" transform="translate(66.699219 0.409375)"/>
      <use xlink:href="#LiberationSans-46" transform="translate(138.916016 0.409375)"/>
      <use xlink:href="#LiberationSans-20" transform="translate(200 0.409375)"/>
      <use xlink:href="#STIXGeneral-Regular-28" transform="translate(227.783203 0.409375)"/>
      <use xlink:href="#STIXGeneral-Regular-57" transform="translate(261.083191 0.409375)"/>
      <use xlink:href="#STIXGeneral-Regular-2f" transform="translate(355.483185 0.409375)"/>
      <use xlink:href="#STIXGeneral-Regular-6d" transform="translate(383.283173 0.409375)"/>
      <use xlink:href="#STIXGeneral-Regular-32" transform="translate(462.626442 35.684375) scale(0.7)"/>
      <use xlink:href="#STIXGeneral-Regular-29" transform="translate(502.035806 0.409375)"/>
      <use xlink:href="#STIXGeneral-Regular-32" transform="translate(536.879075 35.684375) scale(0.7)"/>
     </g>
    </g>
    <g id="text_14">
     <!-- $\times\mathdefault{10^{19}}\mathdefault{}$ -->
     <g transform="translate(104.4 36.1875) scale(0.4 -0.4)">
      <defs>
       <path id="STIXGeneral-Regular-d7" d="M 3821 141 
L 3526 -160 
L 2048 1312 
L 570 -160 
L 275 134 
L 1747 1613 
L 275 3091 
L 576 3386 
L 2048 1914 
L 3526 3386 
L 3821 3098 
L 2349 1613 
L 3821 141 
z
" transform="scale(0.015625)"/>
       <path id="LiberationSans-39" d="M 3256 2291 
Q 3256 1156 2842 546 
Q 2428 -63 1663 -63 
Q 1147 -63 836 154 
Q 525 372 391 856 
L 928 941 
Q 1097 391 1672 391 
Q 2156 391 2422 841 
Q 2688 1291 2700 2125 
Q 2575 1844 2272 1673 
Q 1969 1503 1606 1503 
Q 1013 1503 656 1909 
Q 300 2316 300 2988 
Q 300 3678 687 4073 
Q 1075 4469 1766 4469 
Q 2500 4469 2878 3925 
Q 3256 3381 3256 2291 
z
M 2644 2834 
Q 2644 3366 2400 3689 
Q 2156 4013 1747 4013 
Q 1341 4013 1106 3736 
Q 872 3459 872 2988 
Q 872 2506 1106 2226 
Q 1341 1947 1741 1947 
Q 1984 1947 2193 2058 
Q 2403 2169 2523 2372 
Q 2644 2575 2644 2834 
z
" transform="scale(0.015625)"/>
      </defs>
      <use xlink:href="#STIXGeneral-Regular-d7" transform="translate(0 0.140625)"/>
      <use xlink:href="#LiberationSans-31" transform="translate(63.999985 0.140625)"/>
      <use xlink:href="#LiberationSans-30" transform="translate(119.615219 0.140625)"/>
      <use xlink:href="#LiberationSans-31" transform="translate(176.154946 37.120312) scale(0.7)"/>
      <use xlink:href="#LiberationSans-39" transform="translate(215.08561 37.120312) scale(0.7)"/>
     </g>
    </g>
   </g>
   <g id="line2d_48">
    <path d="M 131.618181 69.298468 
L 131.727064 70.240971 
L 131.89039 75.166238 
L 132.162599 92.457939 
L 132.543691 134.028041 
L 133.142551 230.316693 
L 134.884689 532.0351 
L 135.429107 584.245488 
L 135.864642 606.306153 
L 136.136851 612.118534 
L 136.300176 613.063091 
L 136.354618 612.998556 
L 136.517943 611.777305 
L 136.790152 606.804655 
L 137.225687 593.4607 
L 138.967825 533.92247 
L 139.512243 524.157399 
L 140.002219 518.973045 
L 140.546637 515.617872 
L 141.85324 508.846383 
L 142.669867 502.598897 
L 143.704262 494.886251 
L 144.194238 492.593993 
L 144.575331 491.708005 
L 144.84754 491.571926 
L 145.065307 491.745984 
L 145.337516 492.282919 
L 145.77305 493.745148 
L 146.535236 497.328394 
L 147.624072 502.297075 
L 148.277373 504.3027 
L 148.821791 505.339242 
L 149.366209 505.922679 
L 149.965069 506.232192 
L 150.89058 506.419158 
L 152.469392 506.512527 
L 153.286019 506.356146 
L 153.884879 506.03777 
L 154.429297 505.484161 
L 154.919274 504.638804 
L 155.40925 503.305795 
L 155.899226 501.316827 
L 156.443644 498.172357 
L 157.096946 493.047237 
L 159.32906 473.996713 
L 159.655711 473.148729 
L 159.819036 473.082677 
L 159.982362 473.269401 
L 160.200129 473.920285 
L 160.52678 475.75253 
L 160.962314 479.674958 
L 161.615616 487.925659 
L 163.031103 506.321377 
L 163.521079 509.904394 
L 163.84773 511.073442 
L 164.065497 511.311093 
L 164.228822 511.221567 
L 164.44659 510.777031 
L 164.77324 509.52196 
L 165.3721 506.070041 
L 166.297611 500.814469 
L 166.733145 499.440499 
L 167.059796 499.051795 
L 167.277563 499.088966 
L 167.549773 499.424813 
L 167.985307 500.439683 
L 168.910818 502.714105 
L 169.183027 502.927096 
L 169.400794 502.836792 
L 169.673003 502.354662 
L 169.999654 501.20812 
L 170.435188 498.767308 
L 171.142932 493.237633 
L 172.177326 485.277352 
L 172.61286 483.304758 
L 172.939511 482.659868 
L 173.157278 482.656155 
L 173.375046 482.990458 
L 173.701697 484.085668 
L 174.137231 486.478794 
L 174.953858 492.569131 
L 175.879369 498.998034 
L 176.423787 501.413891 
L 176.859321 502.468458 
L 177.185972 502.807646 
L 177.512623 502.848481 
L 177.893716 502.650746 
L 179.145877 501.824739 
L 179.690295 501.820761 
L 180.615806 501.883869 
L 180.996899 501.649893 
L 181.377991 501.12683 
L 181.813526 500.11871 
L 182.412385 498.061579 
L 184.426732 490.407317 
L 184.862267 489.717291 
L 185.188918 489.52998 
L 185.515568 489.598551 
L 185.896661 489.941562 
L 186.495521 490.845037 
L 189.326495 495.93156 
L 190.034238 498.01176 
L 191.939701 504.143365 
L 192.320794 504.577881 
L 192.593003 504.582172 
L 192.865212 504.316119 
L 193.191863 503.645298 
L 193.681839 502.001863 
L 194.498466 498.208675 
L 195.478419 493.865512 
L 196.022837 492.352816 
L 196.458371 491.755332 
L 196.785022 491.641554 
L 197.111673 491.760794 
L 197.601649 492.223175 
L 198.636044 493.252584 
L 199.071578 493.361016 
L 199.507112 493.211887 
L 200.105972 492.712211 
L 200.868158 492.11264 
L 201.24925 492.079377 
L 201.575901 492.28592 
L 201.956994 492.844771 
L 202.44697 494.067158 
L 203.154713 496.593392 
L 204.406875 501.099448 
L 204.896851 502.071118 
L 205.223502 502.333803 
L 205.495711 502.308714 
L 205.822362 502.001088 
L 206.257896 501.187341 
L 206.911198 499.396002 
L 208.272243 495.58214 
L 208.925545 494.415263 
L 209.524405 493.756833 
L 210.28659 493.267019 
L 211.320984 492.883239 
L 211.919844 492.861258 
L 212.40982 493.071758 
L 212.845355 493.50061 
L 213.389773 494.398404 
L 214.097516 496.089803 
L 215.621887 499.926705 
L 216.111863 500.58475 
L 216.492956 500.786972 
L 216.874048 500.725542 
L 217.309583 500.387859 
L 218.071768 499.429689 
L 218.888395 498.528681 
L 219.378372 498.282191 
L 219.868348 498.274713 
L 221.283835 498.466691 
L 221.664927 498.187931 
L 222.100462 497.549182 
L 222.64488 496.261073 
L 223.461507 493.620697 
L 224.441459 490.584961 
L 224.931436 489.65774 
L 225.312528 489.341847 
L 225.639179 489.36914 
L 225.96583 489.656846 
L 226.401364 490.383036 
L 227.109108 492.085947 
L 228.252386 494.812394 
L 228.851246 495.717813 
L 229.395664 496.175221 
L 230.048965 496.413929 
L 231.410011 496.822409 
L 232.60773 497.571399 
L 233.315474 497.86993 
L 233.859892 497.865579 
L 234.40431 497.637622 
L 235.384262 496.911651 
L 236.146448 496.475862 
L 236.690866 496.415047 
L 237.235284 496.585115 
L 238.215236 497.202608 
L 238.92298 497.521901 
L 239.467398 497.519186 
L 240.011816 497.274657 
L 240.882885 496.576336 
L 241.699512 496.018814 
L 242.24393 495.908809 
L 242.788348 496.048898 
L 243.659417 496.580967 
L 244.312719 496.874276 
L 244.748253 496.846538 
L 245.183787 496.567015 
L 245.673764 495.934569 
L 246.327065 494.671546 
L 247.68811 491.960755 
L 248.178087 491.500073 
L 248.559179 491.443682 
L 248.940272 491.653352 
L 249.375806 492.176425 
L 250.08355 493.436471 
L 251.226828 495.427627 
L 251.825688 496.019803 
L 252.370106 496.252574 
L 253.295616 496.329971 
L 253.894476 496.492772 
L 254.438894 496.891552 
L 255.037754 497.641771 
L 257.052101 500.492366 
L 257.433194 500.595606 
L 257.814286 500.460825 
L 258.249821 500.019769 
L 258.794239 499.10465 
L 259.883075 496.689527 
L 260.754144 495.000358 
L 261.407446 494.193761 
L 262.006305 493.816015 
L 262.659607 493.685611 
L 264.728396 493.694818 
L 265.599465 493.817649 
L 266.198324 494.119333 
L 266.851626 494.721389 
L 267.668253 495.81523 
L 269.247066 497.98573 
L 269.900367 498.488258 
L 270.444785 498.644239 
L 270.989203 498.567186 
L 271.588063 498.243188 
L 272.295807 497.586931 
L 273.166876 496.44681 
L 274.854572 493.72657 
L 275.671199 492.687536 
L 276.215617 492.315051 
L 276.651151 492.254967 
L 277.086686 492.416559 
L 277.576662 492.841527 
L 278.284405 493.783381 
L 279.808776 495.877415 
L 280.407636 496.31536 
L 281.006496 496.481811 
L 281.986448 496.451065 
L 282.694192 496.533451 
L 283.293051 496.844872 
L 284.000795 497.511189 
L 285.416282 498.921983 
L 285.851816 499.053021 
L 286.232909 498.9655 
L 286.668443 498.621575 
L 287.212861 497.864175 
L 288.192814 496.001533 
L 289.063883 494.545515 
L 289.608301 494.025205 
L 290.043835 493.874116 
L 290.47937 493.938376 
L 291.07823 494.276162 
L 292.493717 495.170192 
L 293.092576 495.240581 
L 293.80032 495.068355 
L 295.106923 494.695453 
L 295.705783 494.80222 
L 296.304643 495.150951 
L 297.230154 496.003406 
L 298.31899 496.94125 
L 298.972291 497.232221 
L 299.625593 497.2781 
L 300.387778 497.094044 
L 302.456567 496.229971 
L 304.198705 495.680477 
L 305.450866 495.507146 
L 307.029679 495.567289 
L 308.064073 495.492903 
L 308.989584 495.182194 
L 310.622838 494.562523 
L 311.221698 494.624984 
L 311.766116 494.916923 
L 312.419417 495.548251 
L 314.488206 497.820571 
L 314.978182 497.963089 
L 315.468159 497.879754 
L 316.067018 497.528743 
L 318.081365 496.109895 
L 318.734667 496.036005 
L 319.605736 496.19958 
L 320.585688 496.347028 
L 321.184548 496.222947 
L 321.83785 495.838761 
L 322.763361 494.97973 
L 323.743313 494.139667 
L 324.287731 493.927341 
L 324.777707 493.964444 
L 325.267684 494.225141 
L 325.920985 494.864404 
L 328.425308 497.692494 
L 329.07861 497.961851 
L 329.731912 497.991767 
L 330.494097 497.787811 
L 331.474049 497.276784 
L 334.903883 495.277462 
L 336.264928 494.926804 
L 337.952624 494.459464 
L 339.749204 493.914386 
L 340.402506 493.98061 
L 341.001365 494.277062 
L 341.654667 494.871602 
L 342.580178 496.060702 
L 343.777898 497.535882 
L 344.376757 497.936559 
L 344.866734 498.015978 
L 345.35671 497.872079 
L 345.95557 497.451812 
L 348.187684 495.622927 
L 348.895427 495.44952 
L 351.99861 495.029094 
L 353.033004 494.807907 
L 353.686306 494.898593 
L 354.285166 495.203443 
L 354.992909 495.820155 
L 357.660558 498.434228 
L 358.259418 498.594362 
L 358.858278 498.515736 
L 359.457138 498.204703 
L 360.164881 497.566664 
L 361.090392 496.390233 
L 363.104739 493.700247 
L 363.75804 493.237131 
L 364.302458 493.110951 
L 364.846876 493.218568 
L 365.500178 493.59942 
L 366.697898 494.638285 
L 368.004501 495.659556 
L 370.508824 497.442997 
L 372.033195 498.66046 
L 372.577613 498.824974 
L 373.067589 498.744824 
L 373.557565 498.418324 
L 374.101983 497.773473 
L 374.864169 496.48821 
L 376.551865 493.515049 
L 377.205166 492.849015 
L 377.749584 492.59681 
L 378.294002 492.594587 
L 378.947304 492.840159 
L 379.927256 493.484267 
L 381.397185 494.715303 
L 382.377138 495.815009 
L 383.629299 497.616595 
L 384.718135 499.058272 
L 385.316995 499.515223 
L 385.806972 499.615043 
L 386.242506 499.471933 
L 386.732482 499.052526 
L 387.331342 498.215313 
L 388.256853 496.4691 
L 389.726782 493.710988 
L 390.434525 492.816633 
L 391.033385 492.378309 
L 391.577803 492.23894 
L 392.122221 492.331735 
L 392.721081 492.672066 
L 393.428824 493.338995 
L 394.463219 494.657913 
L 396.695333 497.587006 
L 397.620843 498.406959 
L 398.43747 498.840128 
L 399.145214 498.976277 
L 399.852957 498.880278 
L 400.560701 498.548657 
L 401.322886 497.93558 
L 402.248397 496.882156 
L 405.024929 493.480549 
L 405.678231 493.129939 
L 406.27709 493.040393 
L 406.984834 493.174594 
L 408.07367 493.662027 
L 410.904644 495.21019 
L 411.775713 496.045898 
L 414.062269 498.476336 
L 414.552245 498.595146 
L 414.987779 498.472931 
L 415.477756 498.069536 
L 416.076615 497.23637 
L 417.11101 495.296023 
L 418.090962 493.607581 
L 418.689822 492.955089 
L 419.179798 492.703862 
L 419.669775 492.703858 
L 420.214193 492.954236 
L 420.976378 493.600659 
L 423.480701 495.933187 
L 425.059513 496.960654 
L 426.093908 497.416738 
L 426.801651 497.500407 
L 427.400511 497.359415 
L 428.053813 496.965306 
L 428.87044 496.182433 
L 430.830345 494.175352 
L 431.538088 493.818887 
L 432.19139 493.742258 
L 432.899133 493.903328 
L 433.770202 494.359134 
L 435.131247 495.370572 
L 436.818943 496.57767 
L 437.635571 496.900068 
L 438.397756 496.960982 
L 439.268825 496.785576 
L 441.337613 496.264568 
L 442.7531 496.289827 
L 443.678611 496.183509 
L 444.440796 495.868082 
L 445.692958 495.043017 
L 446.564027 494.600176 
L 447.162887 494.523945 
L 447.761746 494.679292 
L 448.46949 495.13012 
L 451.028255 497.070114 
L 451.681556 497.156107 
L 452.3893 497.016971 
L 453.423694 496.55329 
L 455.492483 495.616666 
L 458.541224 494.575182 
L 459.357851 494.554224 
L 460.174478 494.752867 
L 461.535523 495.365966 
L 462.896568 495.880584 
L 466.380844 496.762536 
L 467.088587 496.694953 
L 467.796331 496.400036 
L 468.776283 495.706184 
L 470.246212 494.677039 
L 471.117281 494.357426 
L 472.151675 494.238096 
L 473.893813 494.297089 
L 474.819324 494.516234 
L 475.581509 494.915322 
L 476.452578 495.646886 
L 478.902459 497.935391 
L 479.501319 498.108986 
L 480.045737 498.046924 
L 480.644597 497.750126 
L 481.461224 497.058893 
L 483.475571 495.218611 
L 484.292198 494.835896 
L 485.108825 494.707194 
L 486.143219 494.788036 
L 487.830915 495.168057 
L 489.246402 495.689038 
L 491.641842 496.672107 
L 492.404027 496.687593 
L 493.220654 496.473466 
L 494.799466 495.747261 
L 496.051628 495.312698 
L 497.467115 495.08677 
L 499.590345 494.977063 
L 500.62474 495.126231 
L 501.604692 495.494918 
L 503.183505 496.390221 
L 504.54455 497.050821 
L 505.796711 497.396207 
L 507.103315 497.533824 
L 508.028825 497.431849 
L 508.791011 497.129411 
L 509.607638 496.5412 
L 511.023125 495.145908 
L 511.894193 494.456187 
L 512.547495 494.211616 
L 513.146355 494.233475 
L 513.799657 494.501518 
L 514.725167 495.170105 
L 516.412863 496.426767 
L 517.175049 496.708539 
L 517.82835 496.728051 
L 518.536094 496.513124 
L 519.407163 495.988558 
L 521.040417 494.957153 
L 521.74816 494.784176 
L 522.510346 494.829082 
L 524.796901 495.137329 
L 525.885738 494.890192 
L 526.974574 494.705666 
L 527.682317 494.819756 
L 528.390061 495.17276 
L 529.370013 495.958112 
L 530.894384 497.179317 
L 531.656569 497.48613 
L 532.364312 497.517675 
L 533.126498 497.316676 
L 534.70531 496.578806 
L 535.848588 496.193541 
L 538.788445 495.425588 
L 540.312816 494.470732 
L 541.238327 494.039152 
L 541.94607 493.950344 
L 542.599372 494.092229 
L 543.307115 494.475123 
L 544.232626 495.249405 
L 546.791391 497.56738 
L 547.499134 497.859893 
L 548.152436 497.907138 
L 548.86018 497.731579 
L 549.731248 497.269818 
L 551.092294 496.255307 
L 554.631011 493.473208 
L 555.284313 493.344052 
L 555.883172 493.450534 
L 556.536474 493.806545 
L 557.407543 494.577212 
L 559.911866 496.985807 
L 560.837377 497.501662 
L 561.654004 497.718761 
L 562.416189 497.696299 
L 563.178374 497.439916 
L 563.995002 496.92103 
L 565.247163 495.817995 
L 566.66265 494.653556 
L 567.533719 494.229495 
L 568.350346 494.087897 
L 569.221415 494.176383 
L 570.255809 494.516522 
L 571.834622 495.308389 
L 573.631201 496.149342 
L 574.992246 496.513309 
L 577.82322 496.984944 
L 578.585405 496.890334 
L 579.293149 496.572354 
L 580.055334 495.958775 
L 581.253054 494.637359 
L 582.287448 493.635139 
L 582.886308 493.332087 
L 583.430726 493.305852 
L 583.975144 493.529722 
L 584.574004 494.032741 
L 585.553957 495.212602 
L 586.806118 496.650484 
L 587.513862 497.117426 
L 588.112721 497.24876 
L 588.711581 497.153328 
L 589.473767 496.787659 
L 592.086973 495.316011 
L 593.121368 495.114213 
L 594.863505 495.058111 
L 596.932294 495.15671 
L 597.966688 495.439042 
L 599.164408 496.025137 
L 600.906546 496.887159 
L 601.777615 497.057755 
L 602.594242 496.988488 
L 603.465311 496.678672 
L 604.499705 496.050349 
L 606.187401 494.703012 
L 607.548446 493.731471 
L 608.473957 493.339293 
L 609.236142 493.243272 
L 609.998327 493.359852 
L 610.869396 493.721658 
L 612.012674 494.46028 
L 615.878042 497.192501 
L 616.694669 497.374757 
L 617.456855 497.306301 
L 618.273482 496.988769 
L 619.307876 496.314077 
L 622.084408 494.343083 
L 622.846593 494.126612 
L 623.554337 494.151139 
L 624.316522 494.414489 
L 625.405358 495.074418 
L 626.875287 495.940613 
L 627.746356 496.19308 
L 628.671867 496.225646 
L 632.156142 496.111432 
L 633.244978 496.027374 
L 634.116047 495.724186 
L 636.511487 494.702558 
L 637.110347 494.816171 
L 637.709206 495.161843 
L 638.525833 495.923439 
L 640.213529 497.56785 
L 640.866831 497.873873 
L 641.465691 497.910902 
L 642.118993 497.70263 
L 642.93562 497.173896 
L 645.712152 495.159822 
L 646.746546 494.785747 
L 647.889824 494.611953 
L 649.087544 494.64847 
L 650.339705 494.911696 
L 652.190727 495.577775 
L 655.185026 496.601315 
L 656.491629 496.870306 
L 657.41714 496.835663 
L 658.288209 496.569449 
L 659.268161 496.019621 
L 661.173625 494.604469 
L 662.316903 493.914578 
L 663.079088 493.694905 
L 663.73239 493.731416 
L 664.385691 494.001966 
L 665.147876 494.587249 
L 667.815525 496.935506 
L 668.468827 497.068258 
L 669.067686 496.967228 
L 669.77543 496.61634 
L 670.864266 495.790102 
L 672.334195 494.719693 
L 673.205264 494.36561 
L 674.021891 494.280717 
L 674.947402 494.429514 
L 675.981796 494.786953 
L 675.981796 494.786953 
" clip-path="url(#pbeb95d7334)" style="fill: none; stroke: #ff0000; stroke-width: 1.5; stroke-linecap: square"/>
   </g>
   <g id="line2d_49">
    <path d="M 131.618181 66.514909 
L 132.380366 121.681772 
L 132.924784 203.160827 
L 134.993573 545.768108 
L 135.483549 585.514162 
L 135.864642 601.48076 
L 136.136851 605.743472 
L 136.245734 606.000456 
L 136.354618 605.49791 
L 136.572385 602.56504 
L 136.899036 594.183985 
L 137.497896 571.726307 
L 138.53229 532.689217 
L 139.13115 517.73397 
L 139.675568 509.352642 
L 140.165544 505.044119 
L 140.601079 502.892659 
L 141.199939 501.336914 
L 142.234333 499.372829 
L 143.758703 496.597063 
L 144.139796 496.201613 
L 144.738656 496.131566 
L 145.228632 496.540976 
L 147.950722 500.735017 
L 148.386257 501.034448 
L 148.712908 501.108827 
L 149.311768 500.846683 
L 149.910627 500.237886 
L 150.618371 499.650954 
L 150.945022 499.617989 
L 151.271673 499.777347 
L 151.598323 500.257269 
L 152.197183 501.806695 
L 153.61267 505.779658 
L 154.048205 506.407787 
L 154.320414 506.601385 
L 154.81039 506.365786 
L 155.137041 505.761401 
L 155.572575 504.288969 
L 156.062552 501.809434 
L 156.661411 497.743744 
L 158.7302 483.295009 
L 159.111293 482.207072 
L 159.383502 481.953097 
L 159.546827 482.03377 
L 159.819036 482.541759 
L 160.200129 484.042788 
L 160.744547 487.45709 
L 161.887825 496.672974 
L 162.595568 501.572042 
L 163.085544 503.834588 
L 163.521079 504.86154 
L 163.793288 505.035432 
L 164.065497 504.89766 
L 164.337706 504.525234 
L 164.827682 503.222594 
L 166.733145 497.157253 
L 167.223122 496.489744 
L 167.658656 496.309828 
L 168.148632 496.435999 
L 168.69305 496.800251 
L 169.509678 497.25028 
L 170.108537 497.096101 
L 170.544072 496.649739 
L 171.415141 495.138448 
L 172.558419 492.826002 
L 173.266162 492.17008 
L 173.647255 492.125805 
L 173.919464 492.199582 
L 174.463882 492.685622 
L 175.988252 494.326581 
L 176.695996 494.417371 
L 177.839274 494.444776 
L 178.274808 494.935438 
L 178.710343 495.870335 
L 179.200319 497.354693 
L 180.561364 501.483832 
L 180.996899 502.071226 
L 181.377991 502.182954 
L 181.6502 502.060166 
L 182.031293 501.578329 
L 182.412385 500.723989 
L 183.229013 498.120576 
L 184.862267 493.261845 
L 185.515568 492.066441 
L 186.005545 491.621862 
L 186.223312 491.570961 
L 186.604404 491.699853 
L 187.039939 492.117145 
L 187.638799 493.059237 
L 188.727635 495.198976 
L 189.544262 496.573539 
L 190.197564 497.275807 
L 190.741982 497.55062 
L 191.340842 497.584421 
L 192.048585 497.359884 
L 197.220557 494.874895 
L 198.200509 494.284703 
L 198.799369 494.17078 
L 199.398229 494.300593 
L 199.997089 494.633064 
L 201.140367 495.588626 
L 202.120319 496.243867 
L 202.719179 496.345834 
L 203.318039 496.210246 
L 204.025782 495.83356 
L 205.822362 494.735617 
L 206.421222 494.685556 
L 207.020082 494.869095 
L 207.836709 495.406072 
L 209.415521 496.537475 
L 210.123265 496.737316 
L 210.667683 496.727041 
L 211.593193 496.451101 
L 213.063122 495.892239 
L 214.097516 495.733457 
L 215.349678 495.848771 
L 216.547398 495.848569 
L 217.364025 495.610381 
L 219.541697 494.863996 
L 220.194999 494.963905 
L 221.066067 495.385691 
L 223.407065 496.67565 
L 224.114809 496.751779 
L 224.822552 496.586798 
L 225.639179 496.092651 
L 228.08906 494.342869 
L 228.68792 494.293263 
L 229.232338 494.456497 
L 229.994524 494.89903 
L 231.192243 495.608854 
L 231.954429 495.778548 
L 234.730961 495.975898 
L 236.963075 496.63557 
L 237.561935 496.395244 
L 238.051911 495.96358 
L 238.759654 495.037345 
L 240.610676 492.311343 
L 241.04621 492.119376 
L 241.481745 492.154065 
L 241.917279 492.405071 
L 242.461697 492.95973 
L 243.223882 494.063294 
L 244.857137 496.431964 
L 245.510438 496.985144 
L 246.054856 497.186713 
L 246.599274 497.16258 
L 247.252576 496.868476 
L 249.539132 495.46244 
L 251.390153 495.000445 
L 252.533431 494.873038 
L 253.731151 494.991056 
L 255.20108 495.450547 
L 256.562125 495.814563 
L 257.487635 495.821033 
L 259.12089 495.470671 
L 260.373051 495.203181 
L 261.24412 495.26679 
L 262.714049 495.776129 
L 263.911769 496.116747 
L 264.619512 496.077699 
L 265.871674 495.67153 
L 267.069393 495.343665 
L 267.994904 495.373675 
L 268.865973 495.627813 
L 270.444785 496.151571 
L 271.098087 496.098807 
L 271.860272 495.77557 
L 273.929061 494.639302 
L 274.473479 494.590829 
L 275.181222 494.767387 
L 276.052291 495.254401 
L 277.304453 495.926094 
L 277.903313 496.071493 
L 278.502172 496.044575 
L 279.209916 495.765929 
L 280.080985 495.11339 
L 281.496472 494.034534 
L 282.149773 493.805046 
L 282.803075 493.845179 
L 283.401935 494.119917 
L 284.599655 495.036316 
L 285.742933 495.825982 
L 286.995094 496.401666 
L 289.989393 497.586453 
L 290.642695 497.518255 
L 291.187113 497.233926 
L 291.840415 496.583641 
L 292.6026 495.457154 
L 294.453622 492.54829 
L 294.943598 492.206103 
L 295.705783 492.503381 
L 296.250201 493.111614 
L 297.230154 494.663614 
L 298.264548 496.230822 
L 298.91785 496.856694 
L 299.462268 497.08174 
L 300.006686 497.078364 
L 300.659987 496.847008 
L 303.218752 495.697212 
L 304.253147 495.765404 
L 305.505308 495.875853 
L 306.648586 495.760709 
L 308.390724 495.54819 
L 309.642885 495.717083 
L 312.256092 496.273398 
L 313.127161 496.106213 
L 313.99823 495.684704 
L 315.413717 494.948333 
L 316.12146 494.847458 
L 316.774762 494.979538 
L 317.482505 495.34954 
L 319.279085 496.396199 
L 319.986828 496.507865 
L 320.749014 496.356099 
L 322.273384 495.670092 
L 323.090011 495.398234 
L 324.069964 495.339851 
L 326.737612 495.448755 
L 329.623028 494.943733 
L 330.439655 495.152433 
L 333.760605 496.369266 
L 334.522791 496.325827 
L 335.448301 496.052749 
L 337.081555 495.418325 
L 338.279275 495.275168 
L 341.545783 495.416205 
L 342.525736 495.694263 
L 344.15899 496.51457 
L 344.975617 496.786324 
L 345.574477 496.740478 
L 346.118895 496.434735 
L 346.663313 495.882581 
L 347.425498 494.777999 
L 348.786544 492.74316 
L 349.330962 492.329955 
L 349.548729 492.292159 
L 349.984263 492.428443 
L 350.47424 492.855134 
L 351.127541 493.768519 
L 353.305214 497.098604 
L 353.79519 497.390763 
L 354.285166 497.427992 
L 354.775142 497.237876 
L 355.428444 496.682602 
L 357.551674 494.662277 
L 358.096092 494.589418 
L 358.64051 494.736032 
L 359.566021 495.264974 
L 360.763741 495.937349 
L 361.743693 496.176491 
L 362.995855 496.132018 
L 365.227969 496.185745 
L 366.371247 496.102177 
L 367.786734 495.620067 
L 369.365546 495.00022 
L 370.07329 494.962854 
L 371.107684 495.202801 
L 373.557565 495.980019 
L 375.027494 495.878318 
L 376.061888 495.754339 
L 377.150724 495.882289 
L 378.783979 496.480788 
L 379.655047 496.706732 
L 380.308349 496.675549 
L 380.961651 496.396353 
L 381.83272 495.733555 
L 383.193765 494.706038 
L 383.847066 494.48261 
L 384.500368 494.517332 
L 385.480321 494.936759 
L 386.895808 495.564746 
L 387.603551 495.659996 
L 388.47462 495.557119 
L 390.488967 495.295173 
L 391.414477 495.427519 
L 392.775523 495.912443 
L 393.755475 496.181531 
L 394.626544 496.22578 
L 397.620843 496.299875 
L 398.655238 496.249796 
L 399.254098 496.057034 
L 399.907399 495.656508 
L 400.724026 494.838395 
L 401.758421 493.41653 
L 402.792815 492.057184 
L 403.391675 491.602724 
L 403.827209 491.498973 
L 404.75272 492.327591 
L 405.732672 493.807653 
L 406.821508 495.375769 
L 407.583694 496.090022 
L 408.182554 496.380407 
L 408.781414 496.433325 
L 409.543599 496.286117 
L 412.102364 495.693224 
L 413.136758 495.866704 
L 414.606687 496.123608 
L 416.239941 496.134317 
L 417.383219 495.979256 
L 419.070915 495.754515 
L 422.119656 495.727405 
L 423.262934 495.424292 
L 424.134003 495.24779 
L 424.95063 495.298701 
L 425.767257 495.597764 
L 427.781604 496.490947 
L 428.543789 496.470407 
L 429.632625 496.172356 
L 430.503694 496.012723 
L 431.374763 496.099299 
L 432.681366 496.564848 
L 433.38911 496.75047 
L 434.096853 496.687114 
L 434.641271 496.427785 
L 435.457898 495.718575 
L 437.472245 493.887617 
L 438.016663 493.735704 
L 438.561081 493.798317 
L 439.214383 494.124279 
L 442.045357 495.968632 
L 442.7531 495.994743 
L 443.624169 495.721048 
L 446.291818 494.626922 
L 447.054003 494.654985 
L 448.415048 494.969104 
L 449.66721 495.47526 
L 450.483837 496.02826 
L 452.770392 497.80304 
L 453.314811 497.879576 
L 453.91367 497.716788 
L 454.51253 497.280091 
L 455.220274 496.433336 
L 456.091343 495.026074 
L 457.561271 492.661705 
L 458.160131 492.112522 
L 458.541224 492.019552 
L 458.976758 492.150907 
L 459.521176 492.598535 
L 460.22892 493.507524 
L 461.971058 495.845908 
L 462.569918 496.26501 
L 463.114336 496.405383 
L 463.713195 496.339008 
L 464.475381 496.004719 
L 466.380844 495.105568 
L 466.979704 495.11165 
L 467.850773 495.365731 
L 469.375143 495.865753 
L 470.300654 495.906882 
L 471.226165 495.731551 
L 473.403837 495.232934 
L 474.71044 495.364551 
L 475.853718 495.410265 
L 477.10588 495.1467 
L 478.194716 494.910494 
L 478.793576 494.992808 
L 479.392435 495.287521 
L 480.100179 495.858512 
L 481.896759 497.310674 
L 482.441177 497.410736 
L 483.094478 497.252794 
L 483.802222 496.810354 
L 485.87101 495.288984 
L 486.687637 495.069417 
L 487.395381 495.132199 
L 488.429775 495.483709 
L 489.79082 495.884963 
L 490.825215 495.865991 
L 493.492863 495.686419 
L 495.888303 496.101051 
L 496.596046 495.924186 
L 497.467115 495.427018 
L 499.42702 494.159351 
L 500.02588 494.03704 
L 500.788065 494.157628 
L 501.55025 494.51857 
L 502.911296 495.410652 
L 505.034526 496.881163 
L 506.613338 497.989709 
L 507.321082 498.191327 
L 507.919942 498.103912 
L 508.518802 497.742158 
L 509.172103 497.005248 
L 510.043172 495.573917 
L 512.220844 491.73035 
L 512.656379 491.468255 
L 512.819704 491.478416 
L 513.200797 491.70478 
L 513.690773 492.283956 
L 514.452958 493.590877 
L 515.814003 495.897328 
L 516.521747 496.61415 
L 517.120607 496.890093 
L 517.719467 496.906823 
L 518.372768 496.739842 
L 520.985975 495.886534 
L 523.054764 495.65113 
L 525.559087 495.241266 
L 526.430156 495.347474 
L 527.46455 495.640762 
L 529.370013 496.139475 
L 530.18664 496.147964 
L 531.112151 495.958643 
L 533.453149 495.360121 
L 534.269776 495.614277 
L 535.195286 496.177549 
L 536.338564 496.813377 
L 537.046308 496.898362 
L 537.754051 496.697563 
L 538.951771 495.941986 
L 539.877282 495.428182 
L 540.693909 495.222164 
L 541.34721 495.243757 
L 545.103695 495.697145 
L 546.410298 495.77475 
L 548.86018 495.852542 
L 549.78569 495.556073 
L 551.418944 494.844517 
L 552.344455 494.59462 
L 553.161082 494.661608 
L 554.358802 495.05561 
L 556.264265 495.666315 
L 560.456284 496.554344 
L 561.381795 496.790406 
L 562.14398 496.7816 
L 562.851724 496.532967 
L 563.559467 496.030001 
L 564.430536 495.078362 
L 565.737139 493.221487 
L 566.608208 492.157177 
L 567.152626 491.817817 
L 567.969253 492.317312 
L 568.622555 493.201243 
L 570.963553 496.769933 
L 571.562413 497.154406 
L 572.106831 497.229374 
L 572.70569 497.068144 
L 574.066736 496.250223 
L 574.992246 495.836823 
L 575.645548 495.743011 
L 577.551011 495.725399 
L 578.585405 495.283644 
L 580.109776 494.573164 
L 580.763078 494.572267 
L 581.470821 494.848305 
L 582.178565 495.387372 
L 583.866261 496.797981 
L 584.410679 496.981976 
L 585.06398 496.988375 
L 585.717282 496.761013 
L 586.697234 496.145253 
L 587.622745 495.682798 
L 588.439372 495.53966 
L 589.201558 495.596724 
L 592.086973 496.011291 
L 594.210204 496.046214 
L 595.571249 496.553562 
L 596.932294 497.082565 
L 597.531154 497.09456 
L 598.130014 496.901799 
L 598.783315 496.463158 
L 600.14436 495.241536 
L 601.015429 494.630029 
L 601.723173 494.420601 
L 602.485358 494.494519 
L 603.955287 495.048653 
L 604.826356 495.308266 
L 605.588541 495.32358 
L 606.187401 495.15059 
L 607.221795 494.590522 
L 608.365073 494.006667 
L 609.018375 493.936044 
L 609.617235 494.109358 
L 610.37942 494.591042 
L 611.686023 495.438491 
L 612.448209 495.706638 
L 614.353672 496.259733 
L 615.170299 496.779745 
L 616.42246 497.525536 
L 616.912437 497.606197 
L 617.402413 497.475716 
L 617.946831 497.037812 
L 618.545691 496.197509 
L 619.307876 494.711829 
L 620.560038 492.211642 
L 621.104456 491.545153 
L 621.485548 491.361215 
L 621.757757 491.417755 
L 622.13885 491.755436 
L 622.683268 492.603197 
L 623.772104 494.915565 
L 624.643173 496.518447 
L 625.187591 497.117692 
L 625.677567 497.356768 
L 626.221985 497.312536 
L 626.820845 496.995739 
L 627.746356 496.266528 
L 628.726308 495.620084 
L 629.325168 495.445121 
L 630.087354 495.475026 
L 632.1017 495.767411 
L 633.027211 495.635425 
L 634.49714 495.458496 
L 635.368209 495.577645 
L 636.511487 495.982484 
L 637.872532 496.383755 
L 638.798043 496.32438 
L 640.104646 495.973578 
L 641.465691 495.574026 
L 642.445644 495.552765 
L 645.385501 495.730022 
L 646.25657 495.409794 
L 648.434242 494.560916 
L 649.087544 494.635579 
L 649.740845 494.90739 
L 652.354052 496.321122 
L 652.89847 496.268383 
L 653.715097 495.921822 
L 654.912817 495.3196 
L 655.62056 495.187451 
L 656.273862 495.308718 
L 656.981606 495.67448 
L 658.778185 496.738862 
L 659.54037 496.900619 
L 660.13923 496.808775 
L 660.846974 496.461599 
L 661.826926 495.739344 
L 663.460181 494.527826 
L 664.222366 494.270836 
L 664.821226 494.25757 
L 665.637853 494.471648 
L 666.508922 494.945691 
L 667.379991 495.59618 
L 668.686594 496.890644 
L 669.666546 497.764422 
L 670.210964 498.027945 
L 670.755382 498.065749 
L 671.299801 497.848553 
L 671.844219 497.383284 
L 672.606404 496.350059 
L 673.69524 494.437927 
L 674.729634 492.740499 
L 675.328494 492.112054 
L 675.81847 491.905098 
L 675.981796 491.908248 
L 675.981796 491.908248 
" clip-path="url(#pbeb95d7334)" style="fill: none; stroke: #0000ff; stroke-width: 1.5; stroke-linecap: square"/>
   </g>
   <g id="patch_3">
    <path d="M 104.4 640.3905 
L 104.4 39.1875 
" style="fill: none; stroke: #000000; stroke-width: 0.8; stroke-linejoin: miter; stroke-linecap: square"/>
   </g>
   <g id="patch_4">
    <path d="M 703.199977 640.3905 
L 703.199977 39.1875 
" style="fill: none; stroke: #000000; stroke-width: 0.8; stroke-linejoin: miter; stroke-linecap: square"/>
   </g>
   <g id="patch_5">
    <path d="M 104.4 640.3905 
L 703.199977 640.3905 
" style="fill: none; stroke: #000000; stroke-width: 0.8; stroke-linejoin: miter; stroke-linecap: square"/>
   </g>
   <g id="patch_6">
    <path d="M 104.4 39.1875 
L 703.199977 39.1875 
" style="fill: none; stroke: #000000; stroke-width: 0.8; stroke-linejoin: miter; stroke-linecap: square"/>
   </g>
   <g id="legend_1">
    <g id="patch_7">
     <path d="M 506.189039 149.11875 
L 682.199977 149.11875 
Q 688.199977 149.11875 688.199977 143.11875 
L 688.199977 60.1875 
Q 688.199977 54.1875 682.199977 54.1875 
L 506.189039 54.1875 
Q 500.189039 54.1875 500.189039 60.1875 
L 500.189039 143.11875 
Q 500.189039 149.11875 506.189039 149.11875 
z
" style="fill: #ffffff; opacity: 0.8; stroke: #cccccc; stroke-linejoin: miter"/>
    </g>
    <g id="line2d_50">
     <path d="M 512.189039 77.428125 
L 542.189039 77.428125 
L 572.189039 77.428125 
" style="fill: none; stroke: #ff0000; stroke-width: 1.5; stroke-linecap: square"/>
    </g>
    <g id="text_15">
     <!-- MD -->
     <g transform="translate(596.189039 87.928125) scale(0.3 -0.3)">
      <defs>
       <path id="LiberationSans-4d" d="M 4269 0 
L 4269 2938 
Q 4269 3425 4297 3875 
Q 4144 3316 4022 3000 
L 2884 0 
L 2466 0 
L 1313 3000 
L 1138 3531 
L 1034 3875 
L 1044 3528 
L 1056 2938 
L 1056 0 
L 525 0 
L 525 4403 
L 1309 4403 
L 2481 1350 
Q 2544 1166 2601 955 
Q 2659 744 2678 650 
Q 2703 775 2783 1029 
Q 2863 1284 2891 1350 
L 4041 4403 
L 4806 4403 
L 4806 0 
L 4269 0 
z
" transform="scale(0.015625)"/>
       <path id="LiberationSans-44" d="M 4316 2247 
Q 4316 1566 4050 1055 
Q 3784 544 3296 272 
Q 2809 0 2172 0 
L 525 0 
L 525 4403 
L 1981 4403 
Q 3100 4403 3708 3842 
Q 4316 3281 4316 2247 
z
M 3716 2247 
Q 3716 3066 3267 3495 
Q 2819 3925 1969 3925 
L 1122 3925 
L 1122 478 
L 2103 478 
Q 2588 478 2955 690 
Q 3322 903 3519 1303 
Q 3716 1703 3716 2247 
z
" transform="scale(0.015625)"/>
      </defs>
      <use xlink:href="#LiberationSans-4d"/>
      <use xlink:href="#LiberationSans-44" x="83.300781"/>
     </g>
    </g>
    <g id="line2d_51">
     <path d="M 512.189039 120.39375 
L 542.189039 120.39375 
L 572.189039 120.39375 
" style="fill: none; stroke: #0000ff; stroke-width: 1.5; stroke-linecap: square"/>
    </g>
    <g id="text_16">
     <!-- GANs -->
     <g transform="translate(596.189039 130.89375) scale(0.3 -0.3)">
      <defs>
       <path id="LiberationSans-47" d="M 322 2222 
Q 322 3294 897 3881 
Q 1472 4469 2513 4469 
Q 3244 4469 3700 4222 
Q 4156 3975 4403 3431 
L 3834 3263 
Q 3647 3638 3317 3809 
Q 2988 3981 2497 3981 
Q 1734 3981 1331 3520 
Q 928 3059 928 2222 
Q 928 1388 1356 905 
Q 1784 422 2541 422 
Q 2972 422 3345 553 
Q 3719 684 3950 909 
L 3950 1703 
L 2634 1703 
L 2634 2203 
L 4500 2203 
L 4500 684 
Q 4150 328 3642 132 
Q 3134 -63 2541 -63 
Q 1850 -63 1350 212 
Q 850 488 586 1005 
Q 322 1522 322 2222 
z
" transform="scale(0.015625)"/>
       <path id="LiberationSans-4e" d="M 3381 0 
L 1025 3750 
L 1041 3447 
L 1056 2925 
L 1056 0 
L 525 0 
L 525 4403 
L 1219 4403 
L 3600 628 
Q 3563 1241 3563 1516 
L 3563 4403 
L 4100 4403 
L 4100 0 
L 3381 0 
z
" transform="scale(0.015625)"/>
      </defs>
      <use xlink:href="#LiberationSans-47"/>
      <use xlink:href="#LiberationSans-41" x="77.783203"/>
      <use xlink:href="#LiberationSans-4e" x="144.482422"/>
      <use xlink:href="#LiberationSans-73" x="216.699219"/>
     </g>
    </g>
   </g>
  </g>
 </g>
 <defs>
  <clipPath id="pbeb95d7334">
   <rect x="104.4" y="39.1875" width="598.799977" height="601.203"/>
  </clipPath>
 </defs>
</svg>
