<?xml version="1.0" encoding="utf-8" standalone="no"?>
<!DOCTYPE svg PUBLIC "-//W3C//DTD SVG 1.1//EN"
  "http://www.w3.org/Graphics/SVG/1.1/DTD/svg11.dtd">
<svg xmlns:xlink="http://www.w3.org/1999/xlink" width="710.399977pt" height="711.02175pt" viewBox="0 0 710.399977 711.02175" xmlns="http://www.w3.org/2000/svg" version="1.1">
 <metadata>
  <rdf:RDF xmlns:dc="http://purl.org/dc/elements/1.1/" xmlns:cc="http://creativecommons.org/ns#" xmlns:rdf="http://www.w3.org/1999/02/22-rdf-syntax-ns#">
   <cc:Work>
    <dc:type rdf:resource="http://purl.org/dc/dcmitype/StillImage"/>
    <dc:date>2025-02-05T17:11:37.644564</dc:date>
    <dc:format>image/svg+xml</dc:format>
    <dc:creator>
     <cc:Agent>
      <dc:title>Matplotlib v3.9.3, https://matplotlib.org/</dc:title>
     </cc:Agent>
    </dc:creator>
   </cc:Work>
  </rdf:RDF>
 </metadata>
 <defs>
  <style type="text/css">*{stroke-linejoin: round; stroke-linecap: butt}</style>
 </defs>
 <g id="figure_1">
  <g id="patch_1">
   <path d="M 0 711.02175 
L 710.399977 711.02175 
L 710.399977 0 
L 0 0 
z
" style="fill: #ffffff"/>
  </g>
  <g id="axes_1">
   <g id="patch_2">
    <path d="M 104.4 640.3905 
L 703.199977 640.3905 
L 703.199977 39.1875 
L 104.4 39.1875 
z
" style="fill: #ffffff"/>
   </g>
   <g id="matplotlib.axis_1">
    <g id="xtick_1">
     <g id="line2d_1">
      <defs>
       <path id="mb178ae3f24" d="M 0 0 
L 0 -3.5 
" style="stroke: #000000; stroke-width: 0.8"/>
      </defs>
      <g>
       <use xlink:href="#mb178ae3f24" x="131.563739" y="640.3905" style="stroke: #000000; stroke-width: 0.8"/>
      </g>
     </g>
     <g id="text_1">
      <!-- 0 -->
      <g transform="translate(123.222333 665.631125) scale(0.3 -0.3)">
       <defs>
        <path id="LiberationSans-30" d="M 3309 2203 
Q 3309 1100 2920 518 
Q 2531 -63 1772 -63 
Q 1013 -63 631 515 
Q 250 1094 250 2203 
Q 250 3338 620 3903 
Q 991 4469 1791 4469 
Q 2569 4469 2939 3897 
Q 3309 3325 3309 2203 
z
M 2738 2203 
Q 2738 3156 2517 3584 
Q 2297 4013 1791 4013 
Q 1272 4013 1045 3591 
Q 819 3169 819 2203 
Q 819 1266 1048 831 
Q 1278 397 1778 397 
Q 2275 397 2506 840 
Q 2738 1284 2738 2203 
z
" transform="scale(0.015625)"/>
       </defs>
       <use xlink:href="#LiberationSans-30"/>
      </g>
     </g>
    </g>
    <g id="xtick_2">
     <g id="line2d_2">
      <g>
       <use xlink:href="#mb178ae3f24" x="240.44735" y="640.3905" style="stroke: #000000; stroke-width: 0.8"/>
      </g>
     </g>
     <g id="text_2">
      <!-- 2 -->
      <g transform="translate(232.105944 665.631125) scale(0.3 -0.3)">
       <defs>
        <path id="LiberationSans-32" d="M 322 0 
L 322 397 
Q 481 763 711 1042 
Q 941 1322 1194 1548 
Q 1447 1775 1695 1969 
Q 1944 2163 2144 2356 
Q 2344 2550 2467 2762 
Q 2591 2975 2591 3244 
Q 2591 3606 2378 3806 
Q 2166 4006 1788 4006 
Q 1428 4006 1195 3811 
Q 963 3616 922 3263 
L 347 3316 
Q 409 3844 795 4156 
Q 1181 4469 1788 4469 
Q 2453 4469 2811 4155 
Q 3169 3841 3169 3263 
Q 3169 3006 3051 2753 
Q 2934 2500 2703 2247 
Q 2472 1994 1819 1463 
Q 1459 1169 1246 933 
Q 1034 697 941 478 
L 3238 478 
L 3238 0 
L 322 0 
z
" transform="scale(0.015625)"/>
       </defs>
       <use xlink:href="#LiberationSans-32"/>
      </g>
     </g>
    </g>
    <g id="xtick_3">
     <g id="line2d_3">
      <g>
       <use xlink:href="#mb178ae3f24" x="349.330962" y="640.3905" style="stroke: #000000; stroke-width: 0.8"/>
      </g>
     </g>
     <g id="text_3">
      <!-- 4 -->
      <g transform="translate(340.989555 665.631125) scale(0.3 -0.3)">
       <defs>
        <path id="LiberationSans-34" d="M 2753 997 
L 2753 0 
L 2222 0 
L 2222 997 
L 147 997 
L 147 1434 
L 2163 4403 
L 2753 4403 
L 2753 1441 
L 3372 1441 
L 3372 997 
L 2753 997 
z
M 2222 3769 
Q 2216 3750 2134 3603 
Q 2053 3456 2013 3397 
L 884 1734 
L 716 1503 
L 666 1441 
L 2222 1441 
L 2222 3769 
z
" transform="scale(0.015625)"/>
       </defs>
       <use xlink:href="#LiberationSans-34"/>
      </g>
     </g>
    </g>
    <g id="xtick_4">
     <g id="line2d_4">
      <g>
       <use xlink:href="#mb178ae3f24" x="458.214573" y="640.3905" style="stroke: #000000; stroke-width: 0.8"/>
      </g>
     </g>
     <g id="text_4">
      <!-- 6 -->
      <g transform="translate(449.873167 665.631125) scale(0.3 -0.3)">
       <defs>
        <path id="LiberationSans-36" d="M 3278 1441 
Q 3278 744 2900 340 
Q 2522 -63 1856 -63 
Q 1113 -63 719 490 
Q 325 1044 325 2100 
Q 325 3244 734 3856 
Q 1144 4469 1900 4469 
Q 2897 4469 3156 3572 
L 2619 3475 
Q 2453 4013 1894 4013 
Q 1413 4013 1148 3564 
Q 884 3116 884 2266 
Q 1038 2550 1316 2698 
Q 1594 2847 1953 2847 
Q 2563 2847 2920 2465 
Q 3278 2084 3278 1441 
z
M 2706 1416 
Q 2706 1894 2472 2153 
Q 2238 2413 1819 2413 
Q 1425 2413 1183 2183 
Q 941 1953 941 1550 
Q 941 1041 1192 716 
Q 1444 391 1838 391 
Q 2244 391 2475 664 
Q 2706 938 2706 1416 
z
" transform="scale(0.015625)"/>
       </defs>
       <use xlink:href="#LiberationSans-36"/>
      </g>
     </g>
    </g>
    <g id="xtick_5">
     <g id="line2d_5">
      <g>
       <use xlink:href="#mb178ae3f24" x="567.098184" y="640.3905" style="stroke: #000000; stroke-width: 0.8"/>
      </g>
     </g>
     <g id="text_5">
      <!-- 8 -->
      <g transform="translate(558.756778 665.631125) scale(0.3 -0.3)">
       <defs>
        <path id="LiberationSans-38" d="M 3281 1228 
Q 3281 619 2893 278 
Q 2506 -63 1781 -63 
Q 1075 -63 676 271 
Q 278 606 278 1222 
Q 278 1653 525 1947 
Q 772 2241 1156 2303 
L 1156 2316 
Q 797 2400 589 2681 
Q 381 2963 381 3341 
Q 381 3844 757 4156 
Q 1134 4469 1769 4469 
Q 2419 4469 2795 4162 
Q 3172 3856 3172 3334 
Q 3172 2956 2962 2675 
Q 2753 2394 2391 2322 
L 2391 2309 
Q 2813 2241 3047 1952 
Q 3281 1663 3281 1228 
z
M 2588 3303 
Q 2588 4050 1769 4050 
Q 1372 4050 1164 3862 
Q 956 3675 956 3303 
Q 956 2925 1170 2726 
Q 1384 2528 1775 2528 
Q 2172 2528 2380 2711 
Q 2588 2894 2588 3303 
z
M 2697 1281 
Q 2697 1691 2453 1898 
Q 2209 2106 1769 2106 
Q 1341 2106 1100 1882 
Q 859 1659 859 1269 
Q 859 359 1788 359 
Q 2247 359 2472 579 
Q 2697 800 2697 1281 
z
" transform="scale(0.015625)"/>
       </defs>
       <use xlink:href="#LiberationSans-38"/>
      </g>
     </g>
    </g>
    <g id="xtick_6">
     <g id="line2d_6">
      <g>
       <use xlink:href="#mb178ae3f24" x="675.981796" y="640.3905" style="stroke: #000000; stroke-width: 0.8"/>
      </g>
     </g>
     <g id="text_6">
      <!-- 10 -->
      <g transform="translate(659.298983 665.631125) scale(0.3 -0.3)">
       <defs>
        <path id="LiberationSans-31" d="M 488 0 
L 488 478 
L 1609 478 
L 1609 3866 
L 616 3156 
L 616 3688 
L 1656 4403 
L 2175 4403 
L 2175 478 
L 3247 478 
L 3247 0 
L 488 0 
z
" transform="scale(0.015625)"/>
       </defs>
       <use xlink:href="#LiberationSans-31"/>
       <use xlink:href="#LiberationSans-30" x="55.615234"/>
      </g>
     </g>
    </g>
    <g id="xtick_7">
     <g id="line2d_7">
      <defs>
       <path id="m1628479dfc" d="M 0 0 
L 0 -2 
" style="stroke: #000000; stroke-width: 0.6"/>
      </defs>
      <g>
       <use xlink:href="#m1628479dfc" x="158.784642" y="640.3905" style="stroke: #000000; stroke-width: 0.6"/>
      </g>
     </g>
    </g>
    <g id="xtick_8">
     <g id="line2d_8">
      <g>
       <use xlink:href="#m1628479dfc" x="186.005545" y="640.3905" style="stroke: #000000; stroke-width: 0.6"/>
      </g>
     </g>
    </g>
    <g id="xtick_9">
     <g id="line2d_9">
      <g>
       <use xlink:href="#m1628479dfc" x="213.226447" y="640.3905" style="stroke: #000000; stroke-width: 0.6"/>
      </g>
     </g>
    </g>
    <g id="xtick_10">
     <g id="line2d_10">
      <g>
       <use xlink:href="#m1628479dfc" x="267.668253" y="640.3905" style="stroke: #000000; stroke-width: 0.6"/>
      </g>
     </g>
    </g>
    <g id="xtick_11">
     <g id="line2d_11">
      <g>
       <use xlink:href="#m1628479dfc" x="294.889156" y="640.3905" style="stroke: #000000; stroke-width: 0.6"/>
      </g>
     </g>
    </g>
    <g id="xtick_12">
     <g id="line2d_12">
      <g>
       <use xlink:href="#m1628479dfc" x="322.110059" y="640.3905" style="stroke: #000000; stroke-width: 0.6"/>
      </g>
     </g>
    </g>
    <g id="xtick_13">
     <g id="line2d_13">
      <g>
       <use xlink:href="#m1628479dfc" x="376.551865" y="640.3905" style="stroke: #000000; stroke-width: 0.6"/>
      </g>
     </g>
    </g>
    <g id="xtick_14">
     <g id="line2d_14">
      <g>
       <use xlink:href="#m1628479dfc" x="403.772767" y="640.3905" style="stroke: #000000; stroke-width: 0.6"/>
      </g>
     </g>
    </g>
    <g id="xtick_15">
     <g id="line2d_15">
      <g>
       <use xlink:href="#m1628479dfc" x="430.99367" y="640.3905" style="stroke: #000000; stroke-width: 0.6"/>
      </g>
     </g>
    </g>
    <g id="xtick_16">
     <g id="line2d_16">
      <g>
       <use xlink:href="#m1628479dfc" x="485.435476" y="640.3905" style="stroke: #000000; stroke-width: 0.6"/>
      </g>
     </g>
    </g>
    <g id="xtick_17">
     <g id="line2d_17">
      <g>
       <use xlink:href="#m1628479dfc" x="512.656379" y="640.3905" style="stroke: #000000; stroke-width: 0.6"/>
      </g>
     </g>
    </g>
    <g id="xtick_18">
     <g id="line2d_18">
      <g>
       <use xlink:href="#m1628479dfc" x="539.877282" y="640.3905" style="stroke: #000000; stroke-width: 0.6"/>
      </g>
     </g>
    </g>
    <g id="xtick_19">
     <g id="line2d_19">
      <g>
       <use xlink:href="#m1628479dfc" x="594.319087" y="640.3905" style="stroke: #000000; stroke-width: 0.6"/>
      </g>
     </g>
    </g>
    <g id="xtick_20">
     <g id="line2d_20">
      <g>
       <use xlink:href="#m1628479dfc" x="621.53999" y="640.3905" style="stroke: #000000; stroke-width: 0.6"/>
      </g>
     </g>
    </g>
    <g id="xtick_21">
     <g id="line2d_21">
      <g>
       <use xlink:href="#m1628479dfc" x="648.760893" y="640.3905" style="stroke: #000000; stroke-width: 0.6"/>
      </g>
     </g>
    </g>
    <g id="text_7">
     <!-- Time ps -->
     <g transform="translate(351.023426 697.59675) scale(0.3 -0.3)">
      <defs>
       <path id="LiberationSans-54" d="M 2250 3916 
L 2250 0 
L 1656 0 
L 1656 3916 
L 144 3916 
L 144 4403 
L 3763 4403 
L 3763 3916 
L 2250 3916 
z
" transform="scale(0.015625)"/>
       <path id="LiberationSans-69" d="M 428 4100 
L 428 4638 
L 991 4638 
L 991 4100 
L 428 4100 
z
M 428 0 
L 428 3381 
L 991 3381 
L 991 0 
L 428 0 
z
" transform="scale(0.015625)"/>
       <path id="LiberationSans-6d" d="M 2400 0 
L 2400 2144 
Q 2400 2634 2265 2821 
Q 2131 3009 1781 3009 
Q 1422 3009 1212 2734 
Q 1003 2459 1003 1959 
L 1003 0 
L 444 0 
L 444 2659 
Q 444 3250 425 3381 
L 956 3381 
Q 959 3366 962 3297 
Q 966 3228 970 3139 
Q 975 3050 981 2803 
L 991 2803 
Q 1172 3163 1406 3303 
Q 1641 3444 1978 3444 
Q 2363 3444 2586 3291 
Q 2809 3138 2897 2803 
L 2906 2803 
Q 3081 3144 3329 3294 
Q 3578 3444 3931 3444 
Q 4444 3444 4676 3166 
Q 4909 2888 4909 2253 
L 4909 0 
L 4353 0 
L 4353 2144 
Q 4353 2634 4218 2821 
Q 4084 3009 3734 3009 
Q 3366 3009 3161 2736 
Q 2956 2463 2956 1959 
L 2956 0 
L 2400 0 
z
" transform="scale(0.015625)"/>
       <path id="LiberationSans-65" d="M 863 1572 
Q 863 991 1103 675 
Q 1344 359 1806 359 
Q 2172 359 2392 506 
Q 2613 653 2691 878 
L 3184 738 
Q 2881 -63 1806 -63 
Q 1056 -63 664 384 
Q 272 831 272 1713 
Q 272 2550 664 2997 
Q 1056 3444 1784 3444 
Q 3275 3444 3275 1647 
L 3275 1572 
L 863 1572 
z
M 2694 2003 
Q 2647 2538 2422 2783 
Q 2197 3028 1775 3028 
Q 1366 3028 1127 2754 
Q 888 2481 869 2003 
L 2694 2003 
z
" transform="scale(0.015625)"/>
       <path id="LiberationSans-20" transform="scale(0.015625)"/>
       <path id="LiberationSans-70" d="M 3291 1706 
Q 3291 -63 2047 -63 
Q 1266 -63 997 525 
L 981 525 
Q 994 500 994 -6 
L 994 -1328 
L 431 -1328 
L 431 2691 
Q 431 3213 413 3381 
L 956 3381 
Q 959 3369 965 3292 
Q 972 3216 980 3056 
Q 988 2897 988 2838 
L 1000 2838 
Q 1150 3150 1397 3295 
Q 1644 3441 2047 3441 
Q 2672 3441 2981 3022 
Q 3291 2603 3291 1706 
z
M 2700 1694 
Q 2700 2400 2509 2703 
Q 2319 3006 1903 3006 
Q 1569 3006 1380 2865 
Q 1191 2725 1092 2426 
Q 994 2128 994 1650 
Q 994 984 1206 668 
Q 1419 353 1897 353 
Q 2316 353 2508 661 
Q 2700 969 2700 1694 
z
" transform="scale(0.015625)"/>
       <path id="LiberationSans-73" d="M 2969 934 
Q 2969 456 2608 196 
Q 2247 -63 1597 -63 
Q 966 -63 623 145 
Q 281 353 178 794 
L 675 891 
Q 747 619 972 492 
Q 1197 366 1597 366 
Q 2025 366 2223 497 
Q 2422 628 2422 891 
Q 2422 1091 2284 1216 
Q 2147 1341 1841 1422 
L 1438 1528 
Q 953 1653 748 1773 
Q 544 1894 428 2066 
Q 313 2238 313 2488 
Q 313 2950 642 3192 
Q 972 3434 1603 3434 
Q 2163 3434 2492 3237 
Q 2822 3041 2909 2606 
L 2403 2544 
Q 2356 2769 2151 2889 
Q 1947 3009 1603 3009 
Q 1222 3009 1040 2893 
Q 859 2778 859 2544 
Q 859 2400 934 2306 
Q 1009 2213 1156 2147 
Q 1303 2081 1775 1966 
Q 2222 1853 2419 1758 
Q 2616 1663 2730 1547 
Q 2844 1431 2906 1279 
Q 2969 1128 2969 934 
z
" transform="scale(0.015625)"/>
      </defs>
      <use xlink:href="#LiberationSans-54"/>
      <use xlink:href="#LiberationSans-69" x="57.333984"/>
      <use xlink:href="#LiberationSans-6d" x="79.550781"/>
      <use xlink:href="#LiberationSans-65" x="162.851562"/>
      <use xlink:href="#LiberationSans-20" x="218.466797"/>
      <use xlink:href="#LiberationSans-70" x="246.25"/>
      <use xlink:href="#LiberationSans-73" x="301.865234"/>
     </g>
    </g>
   </g>
   <g id="matplotlib.axis_2">
    <g id="ytick_1">
     <g id="line2d_22">
      <defs>
       <path id="m657da12ae7" d="M 0 0 
L 3.5 0 
" style="stroke: #000000; stroke-width: 0.8"/>
      </defs>
      <g>
       <use xlink:href="#m657da12ae7" x="104.4" y="618.789267" style="stroke: #000000; stroke-width: 0.8"/>
      </g>
     </g>
     <g id="text_8">
      <!-- $\mathdefault{−0.5}$ -->
      <g transform="translate(41.5 629.65958) scale(0.3 -0.3)">
       <defs>
        <path id="LiberationSans-2212" d="M 316 1900 
L 316 2356 
L 3425 2356 
L 3425 1900 
L 316 1900 
z
" transform="scale(0.015625)"/>
        <path id="LiberationSans-2e" d="M 584 0 
L 584 684 
L 1194 684 
L 1194 0 
L 584 0 
z
" transform="scale(0.015625)"/>
        <path id="LiberationSans-35" d="M 3291 1434 
Q 3291 738 2877 337 
Q 2463 -63 1728 -63 
Q 1113 -63 734 206 
Q 356 475 256 984 
L 825 1050 
Q 1003 397 1741 397 
Q 2194 397 2450 670 
Q 2706 944 2706 1422 
Q 2706 1838 2448 2094 
Q 2191 2350 1753 2350 
Q 1525 2350 1328 2278 
Q 1131 2206 934 2034 
L 384 2034 
L 531 4403 
L 3034 4403 
L 3034 3925 
L 1044 3925 
L 959 2528 
Q 1325 2809 1869 2809 
Q 2519 2809 2905 2428 
Q 3291 2047 3291 1434 
z
" transform="scale(0.015625)"/>
       </defs>
       <use xlink:href="#LiberationSans-2212" transform="translate(0 0.171875)"/>
       <use xlink:href="#LiberationSans-30" transform="translate(58.398438 0.171875)"/>
       <use xlink:href="#LiberationSans-2e" transform="translate(114.013672 0.171875)"/>
       <use xlink:href="#LiberationSans-35" transform="translate(141.796875 0.171875)"/>
      </g>
     </g>
    </g>
    <g id="ytick_2">
     <g id="line2d_23">
      <g>
       <use xlink:href="#m657da12ae7" x="104.4" y="501.277337" style="stroke: #000000; stroke-width: 0.8"/>
      </g>
     </g>
     <g id="text_9">
      <!-- $\mathdefault{0.0}$ -->
      <g transform="translate(58.9 512.147649) scale(0.3 -0.3)">
       <use xlink:href="#LiberationSans-30" transform="translate(0 0.171875)"/>
       <use xlink:href="#LiberationSans-2e" transform="translate(55.615234 0.171875)"/>
       <use xlink:href="#LiberationSans-30" transform="translate(83.398438 0.171875)"/>
      </g>
     </g>
    </g>
    <g id="ytick_3">
     <g id="line2d_24">
      <g>
       <use xlink:href="#m657da12ae7" x="104.4" y="383.765406" style="stroke: #000000; stroke-width: 0.8"/>
      </g>
     </g>
     <g id="text_10">
      <!-- $\mathdefault{0.5}$ -->
      <g transform="translate(58.9 394.635719) scale(0.3 -0.3)">
       <use xlink:href="#LiberationSans-30" transform="translate(0 0.171875)"/>
       <use xlink:href="#LiberationSans-2e" transform="translate(55.615234 0.171875)"/>
       <use xlink:href="#LiberationSans-35" transform="translate(83.398438 0.171875)"/>
      </g>
     </g>
    </g>
    <g id="ytick_4">
     <g id="line2d_25">
      <g>
       <use xlink:href="#m657da12ae7" x="104.4" y="266.253476" style="stroke: #000000; stroke-width: 0.8"/>
      </g>
     </g>
     <g id="text_11">
      <!-- $\mathdefault{1.0}$ -->
      <g transform="translate(58.9 277.123788) scale(0.3 -0.3)">
       <use xlink:href="#LiberationSans-31" transform="translate(0 0.171875)"/>
       <use xlink:href="#LiberationSans-2e" transform="translate(55.615234 0.171875)"/>
       <use xlink:href="#LiberationSans-30" transform="translate(83.398438 0.171875)"/>
      </g>
     </g>
    </g>
    <g id="ytick_5">
     <g id="line2d_26">
      <g>
       <use xlink:href="#m657da12ae7" x="104.4" y="148.741545" style="stroke: #000000; stroke-width: 0.8"/>
      </g>
     </g>
     <g id="text_12">
      <!-- $\mathdefault{1.5}$ -->
      <g transform="translate(58.9 159.611858) scale(0.3 -0.3)">
       <use xlink:href="#LiberationSans-31" transform="translate(0 0.203125)"/>
       <use xlink:href="#LiberationSans-2e" transform="translate(55.615234 0.203125)"/>
       <use xlink:href="#LiberationSans-35" transform="translate(83.398438 0.203125)"/>
      </g>
     </g>
    </g>
    <g id="ytick_6">
     <g id="line2d_27">
      <defs>
       <path id="mdef4538a76" d="M 0 0 
L 2 0 
" style="stroke: #000000; stroke-width: 0.6"/>
      </defs>
      <g>
       <use xlink:href="#mdef4538a76" x="104.4" y="595.286881" style="stroke: #000000; stroke-width: 0.6"/>
      </g>
     </g>
    </g>
    <g id="ytick_7">
     <g id="line2d_28">
      <g>
       <use xlink:href="#mdef4538a76" x="104.4" y="571.784495" style="stroke: #000000; stroke-width: 0.6"/>
      </g>
     </g>
    </g>
    <g id="ytick_8">
     <g id="line2d_29">
      <g>
       <use xlink:href="#mdef4538a76" x="104.4" y="548.282109" style="stroke: #000000; stroke-width: 0.6"/>
      </g>
     </g>
    </g>
    <g id="ytick_9">
     <g id="line2d_30">
      <g>
       <use xlink:href="#mdef4538a76" x="104.4" y="524.779723" style="stroke: #000000; stroke-width: 0.6"/>
      </g>
     </g>
    </g>
    <g id="ytick_10">
     <g id="line2d_31">
      <g>
       <use xlink:href="#mdef4538a76" x="104.4" y="477.774951" style="stroke: #000000; stroke-width: 0.6"/>
      </g>
     </g>
    </g>
    <g id="ytick_11">
     <g id="line2d_32">
      <g>
       <use xlink:href="#mdef4538a76" x="104.4" y="454.272565" style="stroke: #000000; stroke-width: 0.6"/>
      </g>
     </g>
    </g>
    <g id="ytick_12">
     <g id="line2d_33">
      <g>
       <use xlink:href="#mdef4538a76" x="104.4" y="430.770179" style="stroke: #000000; stroke-width: 0.6"/>
      </g>
     </g>
    </g>
    <g id="ytick_13">
     <g id="line2d_34">
      <g>
       <use xlink:href="#mdef4538a76" x="104.4" y="407.267792" style="stroke: #000000; stroke-width: 0.6"/>
      </g>
     </g>
    </g>
    <g id="ytick_14">
     <g id="line2d_35">
      <g>
       <use xlink:href="#mdef4538a76" x="104.4" y="360.26302" style="stroke: #000000; stroke-width: 0.6"/>
      </g>
     </g>
    </g>
    <g id="ytick_15">
     <g id="line2d_36">
      <g>
       <use xlink:href="#mdef4538a76" x="104.4" y="336.760634" style="stroke: #000000; stroke-width: 0.6"/>
      </g>
     </g>
    </g>
    <g id="ytick_16">
     <g id="line2d_37">
      <g>
       <use xlink:href="#mdef4538a76" x="104.4" y="313.258248" style="stroke: #000000; stroke-width: 0.6"/>
      </g>
     </g>
    </g>
    <g id="ytick_17">
     <g id="line2d_38">
      <g>
       <use xlink:href="#mdef4538a76" x="104.4" y="289.755862" style="stroke: #000000; stroke-width: 0.6"/>
      </g>
     </g>
    </g>
    <g id="ytick_18">
     <g id="line2d_39">
      <g>
       <use xlink:href="#mdef4538a76" x="104.4" y="242.75109" style="stroke: #000000; stroke-width: 0.6"/>
      </g>
     </g>
    </g>
    <g id="ytick_19">
     <g id="line2d_40">
      <g>
       <use xlink:href="#mdef4538a76" x="104.4" y="219.248704" style="stroke: #000000; stroke-width: 0.6"/>
      </g>
     </g>
    </g>
    <g id="ytick_20">
     <g id="line2d_41">
      <g>
       <use xlink:href="#mdef4538a76" x="104.4" y="195.746318" style="stroke: #000000; stroke-width: 0.6"/>
      </g>
     </g>
    </g>
    <g id="ytick_21">
     <g id="line2d_42">
      <g>
       <use xlink:href="#mdef4538a76" x="104.4" y="172.243931" style="stroke: #000000; stroke-width: 0.6"/>
      </g>
     </g>
    </g>
    <g id="ytick_22">
     <g id="line2d_43">
      <g>
       <use xlink:href="#mdef4538a76" x="104.4" y="125.239159" style="stroke: #000000; stroke-width: 0.6"/>
      </g>
     </g>
    </g>
    <g id="ytick_23">
     <g id="line2d_44">
      <g>
       <use xlink:href="#mdef4538a76" x="104.4" y="101.736773" style="stroke: #000000; stroke-width: 0.6"/>
      </g>
     </g>
    </g>
    <g id="ytick_24">
     <g id="line2d_45">
      <g>
       <use xlink:href="#mdef4538a76" x="104.4" y="78.234387" style="stroke: #000000; stroke-width: 0.6"/>
      </g>
     </g>
    </g>
    <g id="ytick_25">
     <g id="line2d_46">
      <g>
       <use xlink:href="#mdef4538a76" x="104.4" y="54.732001" style="stroke: #000000; stroke-width: 0.6"/>
      </g>
     </g>
    </g>
    <g id="text_13">
     <!-- ACF $(\mathrm{W} / \mathrm{m}^2)^2$ -->
     <g transform="translate(31.275 426.339) rotate(-90) scale(0.3 -0.3)">
      <defs>
       <path id="LiberationSans-41" d="M 3647 0 
L 3144 1288 
L 1138 1288 
L 631 0 
L 13 0 
L 1809 4403 
L 2488 4403 
L 4256 0 
L 3647 0 
z
M 2141 3953 
L 2113 3866 
Q 2034 3606 1881 3200 
L 1319 1753 
L 2966 1753 
L 2400 3206 
Q 2313 3422 2225 3694 
L 2141 3953 
z
" transform="scale(0.015625)"/>
       <path id="LiberationSans-43" d="M 2475 3981 
Q 1744 3981 1337 3511 
Q 931 3041 931 2222 
Q 931 1413 1354 920 
Q 1778 428 2500 428 
Q 3425 428 3891 1344 
L 4378 1100 
Q 4106 531 3614 234 
Q 3122 -63 2472 -63 
Q 1806 -63 1320 214 
Q 834 491 579 1005 
Q 325 1519 325 2222 
Q 325 3275 894 3872 
Q 1463 4469 2469 4469 
Q 3172 4469 3644 4194 
Q 4116 3919 4338 3378 
L 3772 3191 
Q 3619 3575 3280 3778 
Q 2941 3981 2475 3981 
z
" transform="scale(0.015625)"/>
       <path id="LiberationSans-46" d="M 1122 3916 
L 1122 2278 
L 3578 2278 
L 3578 1784 
L 1122 1784 
L 1122 0 
L 525 0 
L 525 4403 
L 3653 4403 
L 3653 3916 
L 1122 3916 
z
" transform="scale(0.015625)"/>
       <path id="STIXGeneral-Regular-28" d="M 1946 -1030 
L 1869 -1133 
Q 1126 -710 716 32 
Q 307 774 307 1613 
Q 307 3386 1888 4326 
L 1946 4224 
Q 1293 3667 1075 3126 
Q 858 2586 858 1632 
Q 858 685 1082 96 
Q 1306 -493 1946 -1030 
z
" transform="scale(0.015625)"/>
       <path id="STIXGeneral-Regular-57" d="M 5965 4237 
L 5965 4115 
Q 5709 4064 5616 3990 
Q 5523 3917 5434 3667 
Q 4704 1709 4128 -70 
L 4032 -70 
Q 3642 1011 3008 2637 
L 2022 -70 
L 1926 -70 
Q 1709 576 1277 1753 
Q 845 2931 698 3347 
Q 538 3808 406 3958 
Q 275 4109 32 4115 
L 32 4237 
L 1594 4237 
L 1594 4115 
Q 1357 4109 1270 4064 
Q 1184 4019 1184 3917 
Q 1184 3808 1254 3616 
L 2176 1210 
L 2842 3021 
L 2662 3501 
Q 2509 3917 2400 4013 
Q 2291 4109 2010 4115 
L 2010 4237 
L 3706 4237 
L 3706 4115 
Q 3213 4102 3213 3891 
Q 3213 3808 3322 3520 
L 4237 1190 
L 5043 3360 
Q 5152 3667 5152 3853 
Q 5152 4109 4704 4115 
L 4704 4237 
L 5965 4237 
z
" transform="scale(0.015625)"/>
       <path id="STIXGeneral-Regular-2f" d="M 1837 4326 
L 378 -90 
L -58 -90 
L 1408 4326 
L 1837 4326 
z
" transform="scale(0.015625)"/>
       <path id="STIXGeneral-Regular-6d" d="M 4960 0 
L 3565 0 
L 3565 96 
Q 3834 122 3907 208 
Q 3981 294 3981 576 
L 3981 1894 
Q 3981 2278 3869 2444 
Q 3757 2611 3488 2611 
Q 3264 2611 3107 2521 
Q 2950 2432 2803 2221 
L 2803 608 
Q 2803 301 2896 201 
Q 2989 102 3264 96 
L 3264 0 
L 1830 0 
L 1830 96 
Q 2112 115 2189 188 
Q 2266 262 2266 550 
L 2266 1901 
Q 2266 2611 1850 2611 
Q 1670 2611 1468 2531 
Q 1267 2451 1171 2336 
Q 1088 2240 1088 2227 
L 1088 448 
Q 1088 243 1177 176 
Q 1267 109 1523 96 
L 1523 0 
L 102 0 
L 102 96 
Q 371 102 460 195 
Q 550 288 550 563 
L 550 2150 
Q 550 2387 499 2480 
Q 448 2573 326 2573 
Q 230 2573 122 2547 
L 122 2656 
Q 557 2778 1011 2944 
L 1062 2925 
L 1062 2451 
L 1075 2451 
Q 1363 2752 1584 2848 
Q 1805 2944 2054 2944 
Q 2560 2944 2733 2406 
Q 3232 2944 3776 2944 
Q 4518 2944 4518 1792 
L 4518 493 
Q 4518 282 4582 202 
Q 4646 122 4794 109 
L 4960 96 
L 4960 0 
z
" transform="scale(0.015625)"/>
       <path id="STIXGeneral-Regular-32" d="M 3034 877 
L 2688 0 
L 186 0 
L 186 77 
L 1325 1286 
Q 1773 1754 1965 2144 
Q 2157 2534 2157 2950 
Q 2157 3379 1920 3616 
Q 1683 3853 1267 3853 
Q 922 3853 720 3673 
Q 518 3494 326 3021 
L 192 3053 
Q 301 3648 630 3987 
Q 960 4326 1523 4326 
Q 2054 4326 2380 4006 
Q 2707 3686 2707 3200 
Q 2707 2477 1888 1613 
L 832 486 
L 2330 486 
Q 2541 486 2665 569 
Q 2790 653 2944 915 
L 3034 877 
z
" transform="scale(0.015625)"/>
       <path id="STIXGeneral-Regular-29" d="M 186 4224 
L 262 4326 
Q 992 3891 1408 3148 
Q 1824 2406 1824 1581 
Q 1824 -166 243 -1133 
L 186 -1030 
Q 845 -486 1059 54 
Q 1274 595 1274 1562 
Q 1274 2534 1059 3120 
Q 845 3706 186 4224 
z
" transform="scale(0.015625)"/>
      </defs>
      <use xlink:href="#LiberationSans-41" transform="translate(0 0.409375)"/>
      <use xlink:href="#LiberationSans-43" transform="translate(66.699219 0.409375)"/>
      <use xlink:href="#LiberationSans-46" transform="translate(138.916016 0.409375)"/>
      <use xlink:href="#LiberationSans-20" transform="translate(200 0.409375)"/>
      <use xlink:href="#STIXGeneral-Regular-28" transform="translate(227.783203 0.409375)"/>
      <use xlink:href="#STIXGeneral-Regular-57" transform="translate(261.083191 0.409375)"/>
      <use xlink:href="#STIXGeneral-Regular-2f" transform="translate(355.483185 0.409375)"/>
      <use xlink:href="#STIXGeneral-Regular-6d" transform="translate(383.283173 0.409375)"/>
      <use xlink:href="#STIXGeneral-Regular-32" transform="translate(462.626442 35.684375) scale(0.7)"/>
      <use xlink:href="#STIXGeneral-Regular-29" transform="translate(502.035806 0.409375)"/>
      <use xlink:href="#STIXGeneral-Regular-32" transform="translate(536.879075 35.684375) scale(0.7)"/>
     </g>
    </g>
    <g id="text_14">
     <!-- $\times\mathdefault{10^{19}}\mathdefault{}$ -->
     <g transform="translate(104.4 36.1875) scale(0.4 -0.4)">
      <defs>
       <path id="STIXGeneral-Regular-d7" d="M 3821 141 
L 3526 -160 
L 2048 1312 
L 570 -160 
L 275 134 
L 1747 1613 
L 275 3091 
L 576 3386 
L 2048 1914 
L 3526 3386 
L 3821 3098 
L 2349 1613 
L 3821 141 
z
" transform="scale(0.015625)"/>
       <path id="LiberationSans-39" d="M 3256 2291 
Q 3256 1156 2842 546 
Q 2428 -63 1663 -63 
Q 1147 -63 836 154 
Q 525 372 391 856 
L 928 941 
Q 1097 391 1672 391 
Q 2156 391 2422 841 
Q 2688 1291 2700 2125 
Q 2575 1844 2272 1673 
Q 1969 1503 1606 1503 
Q 1013 1503 656 1909 
Q 300 2316 300 2988 
Q 300 3678 687 4073 
Q 1075 4469 1766 4469 
Q 2500 4469 2878 3925 
Q 3256 3381 3256 2291 
z
M 2644 2834 
Q 2644 3366 2400 3689 
Q 2156 4013 1747 4013 
Q 1341 4013 1106 3736 
Q 872 3459 872 2988 
Q 872 2506 1106 2226 
Q 1341 1947 1741 1947 
Q 1984 1947 2193 2058 
Q 2403 2169 2523 2372 
Q 2644 2575 2644 2834 
z
" transform="scale(0.015625)"/>
      </defs>
      <use xlink:href="#STIXGeneral-Regular-d7" transform="translate(0 0.140625)"/>
      <use xlink:href="#LiberationSans-31" transform="translate(63.999985 0.140625)"/>
      <use xlink:href="#LiberationSans-30" transform="translate(119.615219 0.140625)"/>
      <use xlink:href="#LiberationSans-31" transform="translate(176.154946 37.120312) scale(0.7)"/>
      <use xlink:href="#LiberationSans-39" transform="translate(215.08561 37.120312) scale(0.7)"/>
     </g>
    </g>
   </g>
   <g id="line2d_47">
    <path d="M 131.618181 66.514909 
L 132.380366 122.403984 
L 132.924784 204.949717 
L 134.993573 552.042215 
L 135.483549 592.308602 
L 135.864642 608.484225 
L 136.136851 612.802742 
L 136.245734 613.063091 
L 136.354618 612.553965 
L 136.572385 609.582699 
L 136.899036 601.091925 
L 137.497896 578.340244 
L 138.53229 538.792103 
L 139.13115 523.64107 
L 139.675568 515.150019 
L 140.165544 510.785091 
L 140.601079 508.605466 
L 141.199939 507.029353 
L 142.179891 505.136845 
L 144.139796 501.826824 
L 144.738656 501.75586 
L 145.228632 502.17063 
L 147.950722 506.419577 
L 148.386257 506.722927 
L 148.712908 506.79828 
L 149.311768 506.532705 
L 149.856186 505.981813 
L 150.455046 505.395647 
L 150.999464 505.298014 
L 151.271673 505.449369 
L 151.598323 505.935574 
L 152.197183 507.505285 
L 153.61267 511.530259 
L 154.048205 512.166612 
L 154.320414 512.362744 
L 154.81039 512.124061 
L 155.137041 511.511763 
L 155.572575 510.020055 
L 156.062552 507.50806 
L 156.661411 503.389143 
L 158.7302 488.751254 
L 159.111293 487.649074 
L 159.383502 487.391774 
L 159.546827 487.473504 
L 159.819036 487.988143 
L 160.200129 489.508822 
L 160.744547 492.967823 
L 161.887825 502.304356 
L 162.595568 507.26756 
L 163.085544 509.559726 
L 163.521079 510.600122 
L 163.793288 510.776291 
L 164.065497 510.636715 
L 164.337706 510.259414 
L 164.827682 508.93972 
L 166.733145 502.794975 
L 167.223122 502.118727 
L 167.658656 501.936456 
L 168.148632 502.064279 
L 168.69305 502.433299 
L 169.509678 502.88922 
L 170.108537 502.733023 
L 170.544072 502.280817 
L 171.415141 500.749741 
L 172.558419 498.407021 
L 173.266162 497.742512 
L 173.647255 497.697658 
L 173.919464 497.7724 
L 174.463882 498.264804 
L 175.988252 499.927245 
L 176.695996 500.019224 
L 177.839274 500.046987 
L 178.274808 500.544073 
L 178.710343 501.491209 
L 179.200319 502.995 
L 180.561364 507.178195 
L 180.996899 507.773279 
L 181.377991 507.886469 
L 181.6502 507.762074 
L 182.031293 507.273929 
L 182.412385 506.408405 
L 183.229013 503.770909 
L 184.862267 498.84857 
L 185.515568 497.637517 
L 186.005545 497.187118 
L 186.223312 497.13555 
L 186.604404 497.26613 
L 187.039939 497.688885 
L 187.638799 498.64331 
L 188.727635 500.811061 
L 189.544262 502.203619 
L 190.197564 502.91508 
L 190.741982 503.193492 
L 191.340842 503.227735 
L 192.048585 503.000258 
L 197.166115 500.520155 
L 198.363835 499.830641 
L 198.962694 499.780064 
L 199.561554 499.975678 
L 200.32374 500.486018 
L 202.174761 501.88817 
L 202.828063 501.968525 
L 203.426922 501.790185 
L 204.297991 501.267462 
L 205.713478 500.377129 
L 206.312338 500.283005 
L 206.856756 500.40615 
L 207.455616 500.739179 
L 209.959939 502.347411 
L 210.722124 502.348854 
L 211.375426 502.161432 
L 214.043075 501.35583 
L 214.859702 501.410138 
L 216.601839 501.460338 
L 217.472908 501.182335 
L 219.32393 500.483545 
L 220.031673 500.526489 
L 220.902742 500.902116 
L 223.624832 502.357259 
L 224.387018 502.351853 
L 225.040319 502.107884 
L 225.96583 501.457103 
L 227.816851 500.04133 
L 228.524595 499.880137 
L 229.069013 499.988719 
L 229.994524 500.507188 
L 231.192243 501.226305 
L 231.954429 501.39822 
L 234.730961 501.598154 
L 236.963075 502.266463 
L 237.561935 502.02299 
L 238.051911 501.585674 
L 238.759654 500.647314 
L 240.610676 497.885625 
L 241.04621 497.691145 
L 241.481745 497.726288 
L 241.917279 497.98058 
L 242.461697 498.5425 
L 243.223882 499.660511 
L 244.857137 502.060191 
L 245.510438 502.620612 
L 246.054856 502.82482 
L 246.599274 502.800371 
L 247.252576 502.502417 
L 249.539132 501.077975 
L 251.390153 500.609931 
L 252.533431 500.480856 
L 253.731151 500.600419 
L 255.20108 501.065926 
L 256.562125 501.434707 
L 257.487635 501.441262 
L 259.12089 501.086313 
L 260.373051 500.815322 
L 261.24412 500.879763 
L 262.714049 501.39577 
L 263.911769 501.740847 
L 264.619512 501.701288 
L 265.817232 501.310386 
L 267.014951 500.965102 
L 267.831579 500.962443 
L 268.648206 501.160806 
L 270.553669 501.779918 
L 271.098087 501.722672 
L 271.860272 501.395203 
L 273.929061 500.24406 
L 274.473479 500.194952 
L 275.181222 500.373822 
L 275.997849 500.831678 
L 277.250011 501.527892 
L 278.066638 501.708983 
L 278.71994 501.606581 
L 279.373241 501.280177 
L 280.516519 500.34776 
L 281.550914 499.602172 
L 282.149773 499.398883 
L 282.803075 499.439542 
L 283.401935 499.717876 
L 284.599655 500.646272 
L 285.742933 501.446275 
L 286.940652 502.007537 
L 290.261603 503.230888 
L 290.914904 503.04516 
L 291.459322 502.634079 
L 292.112624 501.848329 
L 292.929251 500.495448 
L 294.290296 498.299146 
L 294.834714 497.847188 
L 295.161365 497.798155 
L 295.542458 497.955209 
L 296.032434 498.415945 
L 296.849061 499.617923 
L 298.31899 501.923475 
L 299.026733 502.560052 
L 299.625593 502.739956 
L 300.278895 502.640877 
L 300.932196 502.335272 
L 302.674334 501.419655 
L 303.490961 501.309748 
L 304.743123 501.452851 
L 305.886401 501.481792 
L 307.08412 501.297327 
L 308.28184 501.164747 
L 309.425118 501.283712 
L 312.473859 501.881707 
L 313.290486 501.667627 
L 314.488206 501.007485 
L 315.413717 500.557137 
L 316.12146 500.454942 
L 316.774762 500.588751 
L 317.482505 500.963597 
L 319.279085 502.023958 
L 319.986828 502.137086 
L 320.749014 501.983332 
L 322.218942 501.31117 
L 323.253337 500.981819 
L 324.342173 500.978701 
L 326.519845 501.098661 
L 327.663123 500.823001 
L 328.860843 500.551581 
L 329.67747 500.559438 
L 330.602981 500.829585 
L 333.815047 502.000647 
L 334.740558 501.90899 
L 335.72051 501.561229 
L 337.081555 501.033281 
L 338.224833 500.889549 
L 339.749204 500.963693 
L 341.872434 501.09894 
L 342.580178 501.336506 
L 345.302268 502.428542 
L 345.846686 502.249412 
L 346.445546 501.755997 
L 347.044406 500.979545 
L 349.222078 497.956351 
L 349.603171 497.870918 
L 349.984263 498.004258 
L 350.47424 498.436535 
L 351.127541 499.361878 
L 353.305214 502.735558 
L 353.79519 503.031541 
L 354.285166 503.069258 
L 354.7207 502.908715 
L 355.265119 502.478753 
L 356.245071 501.372204 
L 357.11614 500.5135 
L 357.715 500.218719 
L 358.204976 500.204762 
L 358.803836 500.418728 
L 361.580368 501.780459 
L 362.342553 501.801935 
L 365.119085 501.806541 
L 366.262363 501.745422 
L 367.514525 501.358481 
L 369.692197 500.568865 
L 370.454382 500.62997 
L 371.543218 500.981757 
L 373.230914 501.569904 
L 374.156425 501.595379 
L 376.987399 501.463052 
L 378.675095 502.067825 
L 379.709489 502.344063 
L 380.417233 502.277755 
L 381.070534 501.957356 
L 383.792625 500.095312 
L 384.391485 500.095813 
L 385.099228 500.345337 
L 387.059133 501.224692 
L 387.821318 501.273582 
L 388.801271 501.106854 
L 390.107874 500.918529 
L 391.087827 500.966708 
L 392.122221 501.27664 
L 393.59215 501.774996 
L 394.572102 501.85398 
L 396.858658 501.84843 
L 398.546354 501.897221 
L 399.362981 501.630193 
L 400.016283 501.183657 
L 400.778468 500.379166 
L 401.703979 499.085064 
L 402.901698 497.518309 
L 403.500558 497.123351 
L 403.881651 497.105207 
L 404.317185 497.406781 
L 404.916045 498.126855 
L 407.311485 501.495432 
L 407.964786 501.929135 
L 408.454763 502.055718 
L 409.108064 502.019621 
L 410.305784 501.663586 
L 411.666829 501.331297 
L 412.483456 501.350579 
L 415.31443 501.786707 
L 416.893243 501.677346 
L 419.452007 501.378512 
L 421.738563 501.401018 
L 422.718516 501.201801 
L 424.188445 500.856955 
L 424.95063 500.912091 
L 425.767257 501.215069 
L 427.781604 502.119946 
L 428.543789 502.099137 
L 429.632625 501.797184 
L 430.503694 501.635461 
L 431.374763 501.723171 
L 432.681366 502.194814 
L 433.38911 502.382866 
L 434.096853 502.318681 
L 434.641271 502.055957 
L 435.457898 501.337462 
L 437.472245 499.482534 
L 438.016663 499.328633 
L 438.561081 499.392066 
L 439.214383 499.722295 
L 442.045357 501.590793 
L 442.7531 501.617246 
L 443.624169 501.339968 
L 446.291818 500.231519 
L 447.054003 500.259948 
L 448.415048 500.57818 
L 449.66721 501.090962 
L 450.483837 501.651202 
L 452.770392 503.449216 
L 453.314811 503.526754 
L 453.91367 503.361835 
L 454.51253 502.91942 
L 455.220274 502.061581 
L 456.091343 500.635896 
L 457.561271 498.240574 
L 458.160131 497.684202 
L 458.541224 497.590014 
L 458.976758 497.723088 
L 459.521176 498.176577 
L 460.22892 499.097466 
L 461.971058 501.466462 
L 462.569918 501.891051 
L 463.114336 502.033262 
L 463.713195 501.966018 
L 464.475381 501.627352 
L 466.380844 500.71643 
L 466.979704 500.722592 
L 467.850773 500.979999 
L 469.320701 501.476689 
L 470.246212 501.532253 
L 471.226165 501.350608 
L 473.403837 500.845464 
L 474.71044 500.978804 
L 475.853718 501.025116 
L 477.10588 500.7581 
L 478.194716 500.518803 
L 478.793576 500.602194 
L 479.392435 500.900765 
L 480.100179 501.479232 
L 481.896759 502.950404 
L 482.441177 503.051777 
L 483.094478 502.891767 
L 483.802222 502.443535 
L 485.87101 500.902247 
L 486.687637 500.679806 
L 487.395381 500.74341 
L 488.429775 501.099522 
L 489.79082 501.506028 
L 490.825215 501.486808 
L 493.492863 501.304886 
L 495.888303 501.724945 
L 496.596046 501.545765 
L 497.467115 501.042088 
L 499.42702 499.757826 
L 500.02588 499.633914 
L 500.788065 499.756081 
L 501.55025 500.121747 
L 502.911296 501.025508 
L 504.980084 502.472765 
L 506.66778 503.662457 
L 507.321082 503.842586 
L 507.919942 503.754027 
L 508.518802 503.387537 
L 509.172103 502.640979 
L 509.98873 501.294232 
L 512.166402 497.351441 
L 512.601937 497.046439 
L 512.874146 497.059144 
L 513.30968 497.375226 
L 513.854098 498.111532 
L 514.834051 499.903287 
L 515.814003 501.518555 
L 516.521747 502.244762 
L 517.120607 502.524317 
L 517.719467 502.541267 
L 518.372768 502.372099 
L 520.985975 501.50762 
L 523.054764 501.269134 
L 525.559087 500.853905 
L 526.430156 500.961503 
L 527.46455 501.258631 
L 529.370013 501.763873 
L 530.18664 501.772473 
L 531.112151 501.580673 
L 533.453149 500.974316 
L 534.269776 501.231799 
L 535.195286 501.802445 
L 536.338564 502.446597 
L 536.991866 502.53452 
L 537.536284 502.418425 
L 538.244027 502.05134 
L 540.040607 500.981362 
L 540.693909 500.834552 
L 541.34721 500.856428 
L 545.103695 501.315752 
L 546.355856 501.389793 
L 548.805738 501.484935 
L 549.840132 501.152757 
L 552.290013 500.203924 
L 552.997757 500.230393 
L 554.685453 500.792451 
L 556.318707 501.294728 
L 557.62531 501.499746 
L 558.768588 501.659358 
L 560.782935 502.288926 
L 561.54512 502.440872 
L 562.252864 502.389241 
L 562.906165 502.133008 
L 563.505025 501.701156 
L 564.267211 500.896575 
L 566.009348 498.422972 
L 566.717092 497.637475 
L 567.152626 497.385638 
L 567.969253 497.891672 
L 568.622555 498.787175 
L 570.963553 502.402584 
L 571.562413 502.792091 
L 572.106831 502.86804 
L 572.70569 502.704699 
L 574.066736 501.876071 
L 574.992246 501.457258 
L 575.645548 501.362219 
L 577.551011 501.344376 
L 578.585405 500.896838 
L 580.055334 500.189758 
L 580.654194 500.160887 
L 581.253054 500.339911 
L 581.851914 500.721251 
L 584.301795 502.593806 
L 584.955097 502.637512 
L 585.553957 502.470566 
L 586.316142 502.027269 
L 587.568303 501.322165 
L 588.276047 501.166275 
L 589.092674 501.191936 
L 592.086973 501.634011 
L 594.210204 501.66939 
L 595.571249 502.183381 
L 596.932294 502.719309 
L 597.531154 502.731461 
L 598.130014 502.536177 
L 598.783315 502.091793 
L 600.14436 500.854178 
L 601.015429 500.234666 
L 601.723173 500.022496 
L 602.430916 500.083715 
L 603.410869 500.44363 
L 604.989681 500.947367 
L 605.806308 500.897063 
L 606.568494 500.580868 
L 608.691724 499.530702 
L 609.345026 499.601063 
L 609.943886 499.891494 
L 612.121558 501.231201 
L 613.047068 501.445103 
L 614.027021 501.726988 
L 614.89809 502.220788 
L 616.368019 503.148608 
L 616.966878 503.244894 
L 617.456855 503.085506 
L 617.892389 502.731261 
L 618.436807 502.004271 
L 619.198992 500.551013 
L 620.723363 497.538831 
L 621.213339 497.028173 
L 621.594432 496.895356 
L 622.247734 497.465432 
L 622.792152 498.392745 
L 624.969824 502.555767 
L 625.514242 502.943907 
L 625.949776 503.013995 
L 626.494194 502.83412 
L 627.201938 502.341568 
L 628.726308 501.237682 
L 629.325168 501.060429 
L 630.032912 501.078978 
L 631.992817 501.396025 
L 633.408304 501.183238 
L 634.333814 501.076667 
L 635.204883 501.157508 
L 636.565928 501.62582 
L 637.654765 501.982448 
L 638.580275 501.991776 
L 640.104646 501.595804 
L 641.465691 501.191021 
L 642.445644 501.169482 
L 645.385501 501.349059 
L 646.25657 501.024639 
L 648.434242 500.164648 
L 649.087544 500.240289 
L 649.740845 500.515658 
L 651.210774 501.519906 
L 651.97296 501.876642 
L 652.517378 501.951625 
L 653.225121 501.78466 
L 654.09619 501.326491 
L 655.130584 500.863601 
L 655.783886 500.808918 
L 656.382746 500.965183 
L 657.144931 501.399205 
L 658.560418 502.277978 
L 659.268161 502.513409 
L 659.975905 502.48581 
L 660.574765 502.249074 
L 661.500275 501.622713 
L 663.786831 499.988416 
L 664.440133 499.846522 
L 665.202318 499.927378 
L 666.073387 500.286963 
L 667.05334 500.942597 
L 668.087734 501.898975 
L 669.829872 503.512383 
L 670.37429 503.713454 
L 670.918708 503.67855 
L 671.463126 503.380242 
L 672.061986 502.766749 
L 672.878613 501.526791 
L 675.001843 497.984147 
L 675.546261 497.553175 
L 675.981796 497.477253 
L 675.981796 497.477253 
" clip-path="url(#p4d2947c9af)" style="fill: none; stroke: #0000ff; stroke-width: 1.5; stroke-linecap: square"/>
   </g>
   <g id="patch_3">
    <path d="M 104.4 640.3905 
L 104.4 39.1875 
" style="fill: none; stroke: #000000; stroke-width: 0.8; stroke-linejoin: miter; stroke-linecap: square"/>
   </g>
   <g id="patch_4">
    <path d="M 703.199977 640.3905 
L 703.199977 39.1875 
" style="fill: none; stroke: #000000; stroke-width: 0.8; stroke-linejoin: miter; stroke-linecap: square"/>
   </g>
   <g id="patch_5">
    <path d="M 104.4 640.3905 
L 703.199977 640.3905 
" style="fill: none; stroke: #000000; stroke-width: 0.8; stroke-linejoin: miter; stroke-linecap: square"/>
   </g>
   <g id="patch_6">
    <path d="M 104.4 39.1875 
L 703.199977 39.1875 
" style="fill: none; stroke: #000000; stroke-width: 0.8; stroke-linejoin: miter; stroke-linecap: square"/>
   </g>
  </g>
 </g>
 <defs>
  <clipPath id="p4d2947c9af">
   <rect x="104.4" y="39.1875" width="598.799977" height="601.203"/>
  </clipPath>
 </defs>
</svg>
