<?xml version="1.0" encoding="utf-8" standalone="no"?>
<!DOCTYPE svg PUBLIC "-//W3C//DTD SVG 1.1//EN"
  "http://www.w3.org/Graphics/SVG/1.1/DTD/svg11.dtd">
<svg xmlns:xlink="http://www.w3.org/1999/xlink" width="711.735pt" height="711.105187pt" viewBox="0 0 711.735 711.105187" xmlns="http://www.w3.org/2000/svg" version="1.1">
 <metadata>
  <rdf:RDF xmlns:dc="http://purl.org/dc/elements/1.1/" xmlns:cc="http://creativecommons.org/ns#" xmlns:rdf="http://www.w3.org/1999/02/22-rdf-syntax-ns#">
   <cc:Work>
    <dc:type rdf:resource="http://purl.org/dc/dcmitype/StillImage"/>
    <dc:date>2025-02-05T16:20:24.018111</dc:date>
    <dc:format>image/svg+xml</dc:format>
    <dc:creator>
     <cc:Agent>
      <dc:title>Matplotlib v3.9.3, https://matplotlib.org/</dc:title>
     </cc:Agent>
    </dc:creator>
   </cc:Work>
  </rdf:RDF>
 </metadata>
 <defs>
  <style type="text/css">*{stroke-linejoin: round; stroke-linecap: butt}</style>
 </defs>
 <g id="figure_1">
  <g id="patch_1">
   <path d="M 0 711.105187 
L 711.735 711.105187 
L 711.735 0 
L 0 0 
z
" style="fill: #ffffff"/>
  </g>
  <g id="axes_1">
   <g id="patch_2">
    <path d="M 96.125625 643.2705 
L 689.520469 643.2705 
L 689.520469 39.1875 
L 96.125625 39.1875 
z
" style="fill: #ffffff"/>
   </g>
   <g id="matplotlib.axis_1">
    <g id="xtick_1">
     <g id="line2d_1">
      <defs>
       <path id="mcc0d99af9c" d="M 0 0 
L 0 -3.5 
" style="stroke: #000000; stroke-width: 0.8"/>
      </defs>
      <g>
       <use xlink:href="#mcc0d99af9c" x="96.125625" y="643.2705" style="stroke: #000000; stroke-width: 0.8"/>
      </g>
     </g>
     <g id="text_1">
      <!-- 0 -->
      <g transform="translate(88.618359 666.337062) scale(0.27 -0.27)">
       <defs>
        <path id="LiberationSans-30" d="M 3309 2203 
Q 3309 1100 2920 518 
Q 2531 -63 1772 -63 
Q 1013 -63 631 515 
Q 250 1094 250 2203 
Q 250 3338 620 3903 
Q 991 4469 1791 4469 
Q 2569 4469 2939 3897 
Q 3309 3325 3309 2203 
z
M 2738 2203 
Q 2738 3156 2517 3584 
Q 2297 4013 1791 4013 
Q 1272 4013 1045 3591 
Q 819 3169 819 2203 
Q 819 1266 1048 831 
Q 1278 397 1778 397 
Q 2275 397 2506 840 
Q 2738 1284 2738 2203 
z
" transform="scale(0.015625)"/>
       </defs>
       <use xlink:href="#LiberationSans-30"/>
      </g>
     </g>
    </g>
    <g id="xtick_2">
     <g id="line2d_2">
      <g>
       <use xlink:href="#mcc0d99af9c" x="214.804594" y="643.2705" style="stroke: #000000; stroke-width: 0.8"/>
      </g>
     </g>
     <g id="text_2">
      <!-- 2 -->
      <g transform="translate(207.297328 666.337062) scale(0.27 -0.27)">
       <defs>
        <path id="LiberationSans-32" d="M 322 0 
L 322 397 
Q 481 763 711 1042 
Q 941 1322 1194 1548 
Q 1447 1775 1695 1969 
Q 1944 2163 2144 2356 
Q 2344 2550 2467 2762 
Q 2591 2975 2591 3244 
Q 2591 3606 2378 3806 
Q 2166 4006 1788 4006 
Q 1428 4006 1195 3811 
Q 963 3616 922 3263 
L 347 3316 
Q 409 3844 795 4156 
Q 1181 4469 1788 4469 
Q 2453 4469 2811 4155 
Q 3169 3841 3169 3263 
Q 3169 3006 3051 2753 
Q 2934 2500 2703 2247 
Q 2472 1994 1819 1463 
Q 1459 1169 1246 933 
Q 1034 697 941 478 
L 3238 478 
L 3238 0 
L 322 0 
z
" transform="scale(0.015625)"/>
       </defs>
       <use xlink:href="#LiberationSans-32"/>
      </g>
     </g>
    </g>
    <g id="xtick_3">
     <g id="line2d_3">
      <g>
       <use xlink:href="#mcc0d99af9c" x="333.483563" y="643.2705" style="stroke: #000000; stroke-width: 0.8"/>
      </g>
     </g>
     <g id="text_3">
      <!-- 4 -->
      <g transform="translate(325.976297 666.337062) scale(0.27 -0.27)">
       <defs>
        <path id="LiberationSans-34" d="M 2753 997 
L 2753 0 
L 2222 0 
L 2222 997 
L 147 997 
L 147 1434 
L 2163 4403 
L 2753 4403 
L 2753 1441 
L 3372 1441 
L 3372 997 
L 2753 997 
z
M 2222 3769 
Q 2216 3750 2134 3603 
Q 2053 3456 2013 3397 
L 884 1734 
L 716 1503 
L 666 1441 
L 2222 1441 
L 2222 3769 
z
" transform="scale(0.015625)"/>
       </defs>
       <use xlink:href="#LiberationSans-34"/>
      </g>
     </g>
    </g>
    <g id="xtick_4">
     <g id="line2d_4">
      <g>
       <use xlink:href="#mcc0d99af9c" x="452.162531" y="643.2705" style="stroke: #000000; stroke-width: 0.8"/>
      </g>
     </g>
     <g id="text_4">
      <!-- 6 -->
      <g transform="translate(444.655266 666.337062) scale(0.27 -0.27)">
       <defs>
        <path id="LiberationSans-36" d="M 3278 1441 
Q 3278 744 2900 340 
Q 2522 -63 1856 -63 
Q 1113 -63 719 490 
Q 325 1044 325 2100 
Q 325 3244 734 3856 
Q 1144 4469 1900 4469 
Q 2897 4469 3156 3572 
L 2619 3475 
Q 2453 4013 1894 4013 
Q 1413 4013 1148 3564 
Q 884 3116 884 2266 
Q 1038 2550 1316 2698 
Q 1594 2847 1953 2847 
Q 2563 2847 2920 2465 
Q 3278 2084 3278 1441 
z
M 2706 1416 
Q 2706 1894 2472 2153 
Q 2238 2413 1819 2413 
Q 1425 2413 1183 2183 
Q 941 1953 941 1550 
Q 941 1041 1192 716 
Q 1444 391 1838 391 
Q 2244 391 2475 664 
Q 2706 938 2706 1416 
z
" transform="scale(0.015625)"/>
       </defs>
       <use xlink:href="#LiberationSans-36"/>
      </g>
     </g>
    </g>
    <g id="xtick_5">
     <g id="line2d_5">
      <g>
       <use xlink:href="#mcc0d99af9c" x="570.8415" y="643.2705" style="stroke: #000000; stroke-width: 0.8"/>
      </g>
     </g>
     <g id="text_5">
      <!-- 8 -->
      <g transform="translate(563.334234 666.337062) scale(0.27 -0.27)">
       <defs>
        <path id="LiberationSans-38" d="M 3281 1228 
Q 3281 619 2893 278 
Q 2506 -63 1781 -63 
Q 1075 -63 676 271 
Q 278 606 278 1222 
Q 278 1653 525 1947 
Q 772 2241 1156 2303 
L 1156 2316 
Q 797 2400 589 2681 
Q 381 2963 381 3341 
Q 381 3844 757 4156 
Q 1134 4469 1769 4469 
Q 2419 4469 2795 4162 
Q 3172 3856 3172 3334 
Q 3172 2956 2962 2675 
Q 2753 2394 2391 2322 
L 2391 2309 
Q 2813 2241 3047 1952 
Q 3281 1663 3281 1228 
z
M 2588 3303 
Q 2588 4050 1769 4050 
Q 1372 4050 1164 3862 
Q 956 3675 956 3303 
Q 956 2925 1170 2726 
Q 1384 2528 1775 2528 
Q 2172 2528 2380 2711 
Q 2588 2894 2588 3303 
z
M 2697 1281 
Q 2697 1691 2453 1898 
Q 2209 2106 1769 2106 
Q 1341 2106 1100 1882 
Q 859 1659 859 1269 
Q 859 359 1788 359 
Q 2247 359 2472 579 
Q 2697 800 2697 1281 
z
" transform="scale(0.015625)"/>
       </defs>
       <use xlink:href="#LiberationSans-38"/>
      </g>
     </g>
    </g>
    <g id="xtick_6">
     <g id="line2d_6">
      <g>
       <use xlink:href="#mcc0d99af9c" x="689.520469" y="643.2705" style="stroke: #000000; stroke-width: 0.8"/>
      </g>
     </g>
     <g id="text_6">
      <!-- 10 -->
      <g transform="translate(674.505937 666.337062) scale(0.27 -0.27)">
       <defs>
        <path id="LiberationSans-31" d="M 488 0 
L 488 478 
L 1609 478 
L 1609 3866 
L 616 3156 
L 616 3688 
L 1656 4403 
L 2175 4403 
L 2175 478 
L 3247 478 
L 3247 0 
L 488 0 
z
" transform="scale(0.015625)"/>
       </defs>
       <use xlink:href="#LiberationSans-31"/>
       <use xlink:href="#LiberationSans-30" x="55.615234"/>
      </g>
     </g>
    </g>
    <g id="xtick_7">
     <g id="line2d_7">
      <defs>
       <path id="ma6a5242e5f" d="M 0 0 
L 0 -2 
" style="stroke: #000000; stroke-width: 0.6"/>
      </defs>
      <g>
       <use xlink:href="#ma6a5242e5f" x="125.795367" y="643.2705" style="stroke: #000000; stroke-width: 0.6"/>
      </g>
     </g>
    </g>
    <g id="xtick_8">
     <g id="line2d_8">
      <g>
       <use xlink:href="#ma6a5242e5f" x="155.465109" y="643.2705" style="stroke: #000000; stroke-width: 0.6"/>
      </g>
     </g>
    </g>
    <g id="xtick_9">
     <g id="line2d_9">
      <g>
       <use xlink:href="#ma6a5242e5f" x="185.134852" y="643.2705" style="stroke: #000000; stroke-width: 0.6"/>
      </g>
     </g>
    </g>
    <g id="xtick_10">
     <g id="line2d_10">
      <g>
       <use xlink:href="#ma6a5242e5f" x="244.474336" y="643.2705" style="stroke: #000000; stroke-width: 0.6"/>
      </g>
     </g>
    </g>
    <g id="xtick_11">
     <g id="line2d_11">
      <g>
       <use xlink:href="#ma6a5242e5f" x="274.144078" y="643.2705" style="stroke: #000000; stroke-width: 0.6"/>
      </g>
     </g>
    </g>
    <g id="xtick_12">
     <g id="line2d_12">
      <g>
       <use xlink:href="#ma6a5242e5f" x="303.81382" y="643.2705" style="stroke: #000000; stroke-width: 0.6"/>
      </g>
     </g>
    </g>
    <g id="xtick_13">
     <g id="line2d_13">
      <g>
       <use xlink:href="#ma6a5242e5f" x="363.153305" y="643.2705" style="stroke: #000000; stroke-width: 0.6"/>
      </g>
     </g>
    </g>
    <g id="xtick_14">
     <g id="line2d_14">
      <g>
       <use xlink:href="#ma6a5242e5f" x="392.823047" y="643.2705" style="stroke: #000000; stroke-width: 0.6"/>
      </g>
     </g>
    </g>
    <g id="xtick_15">
     <g id="line2d_15">
      <g>
       <use xlink:href="#ma6a5242e5f" x="422.492789" y="643.2705" style="stroke: #000000; stroke-width: 0.6"/>
      </g>
     </g>
    </g>
    <g id="xtick_16">
     <g id="line2d_16">
      <g>
       <use xlink:href="#ma6a5242e5f" x="481.832273" y="643.2705" style="stroke: #000000; stroke-width: 0.6"/>
      </g>
     </g>
    </g>
    <g id="xtick_17">
     <g id="line2d_17">
      <g>
       <use xlink:href="#ma6a5242e5f" x="511.502016" y="643.2705" style="stroke: #000000; stroke-width: 0.6"/>
      </g>
     </g>
    </g>
    <g id="xtick_18">
     <g id="line2d_18">
      <g>
       <use xlink:href="#ma6a5242e5f" x="541.171758" y="643.2705" style="stroke: #000000; stroke-width: 0.6"/>
      </g>
     </g>
    </g>
    <g id="xtick_19">
     <g id="line2d_19">
      <g>
       <use xlink:href="#ma6a5242e5f" x="600.511242" y="643.2705" style="stroke: #000000; stroke-width: 0.6"/>
      </g>
     </g>
    </g>
    <g id="xtick_20">
     <g id="line2d_20">
      <g>
       <use xlink:href="#ma6a5242e5f" x="630.180984" y="643.2705" style="stroke: #000000; stroke-width: 0.6"/>
      </g>
     </g>
    </g>
    <g id="xtick_21">
     <g id="line2d_21">
      <g>
       <use xlink:href="#ma6a5242e5f" x="659.850727" y="643.2705" style="stroke: #000000; stroke-width: 0.6"/>
      </g>
     </g>
    </g>
    <g id="text_7">
     <!-- Time ps -->
     <g transform="translate(340.046484 697.680187) scale(0.3 -0.3)">
      <defs>
       <path id="LiberationSans-54" d="M 2250 3916 
L 2250 0 
L 1656 0 
L 1656 3916 
L 144 3916 
L 144 4403 
L 3763 4403 
L 3763 3916 
L 2250 3916 
z
" transform="scale(0.015625)"/>
       <path id="LiberationSans-69" d="M 428 4100 
L 428 4638 
L 991 4638 
L 991 4100 
L 428 4100 
z
M 428 0 
L 428 3381 
L 991 3381 
L 991 0 
L 428 0 
z
" transform="scale(0.015625)"/>
       <path id="LiberationSans-6d" d="M 2400 0 
L 2400 2144 
Q 2400 2634 2265 2821 
Q 2131 3009 1781 3009 
Q 1422 3009 1212 2734 
Q 1003 2459 1003 1959 
L 1003 0 
L 444 0 
L 444 2659 
Q 444 3250 425 3381 
L 956 3381 
Q 959 3366 962 3297 
Q 966 3228 970 3139 
Q 975 3050 981 2803 
L 991 2803 
Q 1172 3163 1406 3303 
Q 1641 3444 1978 3444 
Q 2363 3444 2586 3291 
Q 2809 3138 2897 2803 
L 2906 2803 
Q 3081 3144 3329 3294 
Q 3578 3444 3931 3444 
Q 4444 3444 4676 3166 
Q 4909 2888 4909 2253 
L 4909 0 
L 4353 0 
L 4353 2144 
Q 4353 2634 4218 2821 
Q 4084 3009 3734 3009 
Q 3366 3009 3161 2736 
Q 2956 2463 2956 1959 
L 2956 0 
L 2400 0 
z
" transform="scale(0.015625)"/>
       <path id="LiberationSans-65" d="M 863 1572 
Q 863 991 1103 675 
Q 1344 359 1806 359 
Q 2172 359 2392 506 
Q 2613 653 2691 878 
L 3184 738 
Q 2881 -63 1806 -63 
Q 1056 -63 664 384 
Q 272 831 272 1713 
Q 272 2550 664 2997 
Q 1056 3444 1784 3444 
Q 3275 3444 3275 1647 
L 3275 1572 
L 863 1572 
z
M 2694 2003 
Q 2647 2538 2422 2783 
Q 2197 3028 1775 3028 
Q 1366 3028 1127 2754 
Q 888 2481 869 2003 
L 2694 2003 
z
" transform="scale(0.015625)"/>
       <path id="LiberationSans-20" transform="scale(0.015625)"/>
       <path id="LiberationSans-70" d="M 3291 1706 
Q 3291 -63 2047 -63 
Q 1266 -63 997 525 
L 981 525 
Q 994 500 994 -6 
L 994 -1328 
L 431 -1328 
L 431 2691 
Q 431 3213 413 3381 
L 956 3381 
Q 959 3369 965 3292 
Q 972 3216 980 3056 
Q 988 2897 988 2838 
L 1000 2838 
Q 1150 3150 1397 3295 
Q 1644 3441 2047 3441 
Q 2672 3441 2981 3022 
Q 3291 2603 3291 1706 
z
M 2700 1694 
Q 2700 2400 2509 2703 
Q 2319 3006 1903 3006 
Q 1569 3006 1380 2865 
Q 1191 2725 1092 2426 
Q 994 2128 994 1650 
Q 994 984 1206 668 
Q 1419 353 1897 353 
Q 2316 353 2508 661 
Q 2700 969 2700 1694 
z
" transform="scale(0.015625)"/>
       <path id="LiberationSans-73" d="M 2969 934 
Q 2969 456 2608 196 
Q 2247 -63 1597 -63 
Q 966 -63 623 145 
Q 281 353 178 794 
L 675 891 
Q 747 619 972 492 
Q 1197 366 1597 366 
Q 2025 366 2223 497 
Q 2422 628 2422 891 
Q 2422 1091 2284 1216 
Q 2147 1341 1841 1422 
L 1438 1528 
Q 953 1653 748 1773 
Q 544 1894 428 2066 
Q 313 2238 313 2488 
Q 313 2950 642 3192 
Q 972 3434 1603 3434 
Q 2163 3434 2492 3237 
Q 2822 3041 2909 2606 
L 2403 2544 
Q 2356 2769 2151 2889 
Q 1947 3009 1603 3009 
Q 1222 3009 1040 2893 
Q 859 2778 859 2544 
Q 859 2400 934 2306 
Q 1009 2213 1156 2147 
Q 1303 2081 1775 1966 
Q 2222 1853 2419 1758 
Q 2616 1663 2730 1547 
Q 2844 1431 2906 1279 
Q 2969 1128 2969 934 
z
" transform="scale(0.015625)"/>
      </defs>
      <use xlink:href="#LiberationSans-54"/>
      <use xlink:href="#LiberationSans-69" x="57.333984"/>
      <use xlink:href="#LiberationSans-6d" x="79.550781"/>
      <use xlink:href="#LiberationSans-65" x="162.851562"/>
      <use xlink:href="#LiberationSans-20" x="218.466797"/>
      <use xlink:href="#LiberationSans-70" x="246.25"/>
      <use xlink:href="#LiberationSans-73" x="301.865234"/>
     </g>
    </g>
   </g>
   <g id="matplotlib.axis_2">
    <g id="ytick_1">
     <g id="line2d_22">
      <defs>
       <path id="m6a552292af" d="M 0 0 
L 3.5 0 
" style="stroke: #000000; stroke-width: 0.8"/>
      </defs>
      <g>
       <use xlink:href="#m6a552292af" x="96.125625" y="592.93025" style="stroke: #000000; stroke-width: 0.8"/>
      </g>
     </g>
     <g id="text_8">
      <!-- $\mathdefault{−1.5}$ -->
      <g transform="translate(39.165625 602.713531) scale(0.27 -0.27)">
       <defs>
        <path id="LiberationSans-2212" d="M 316 1900 
L 316 2356 
L 3425 2356 
L 3425 1900 
L 316 1900 
z
" transform="scale(0.015625)"/>
        <path id="LiberationSans-2e" d="M 584 0 
L 584 684 
L 1194 684 
L 1194 0 
L 584 0 
z
" transform="scale(0.015625)"/>
        <path id="LiberationSans-35" d="M 3291 1434 
Q 3291 738 2877 337 
Q 2463 -63 1728 -63 
Q 1113 -63 734 206 
Q 356 475 256 984 
L 825 1050 
Q 1003 397 1741 397 
Q 2194 397 2450 670 
Q 2706 944 2706 1422 
Q 2706 1838 2448 2094 
Q 2191 2350 1753 2350 
Q 1525 2350 1328 2278 
Q 1131 2206 934 2034 
L 384 2034 
L 531 4403 
L 3034 4403 
L 3034 3925 
L 1044 3925 
L 959 2528 
Q 1325 2809 1869 2809 
Q 2519 2809 2905 2428 
Q 3291 2047 3291 1434 
z
" transform="scale(0.015625)"/>
       </defs>
       <use xlink:href="#LiberationSans-2212" transform="translate(0 0.203125)"/>
       <use xlink:href="#LiberationSans-31" transform="translate(58.398438 0.203125)"/>
       <use xlink:href="#LiberationSans-2e" transform="translate(114.013672 0.203125)"/>
       <use xlink:href="#LiberationSans-35" transform="translate(141.796875 0.203125)"/>
      </g>
     </g>
    </g>
    <g id="ytick_2">
     <g id="line2d_23">
      <g>
       <use xlink:href="#m6a552292af" x="96.125625" y="509.029833" style="stroke: #000000; stroke-width: 0.8"/>
      </g>
     </g>
     <g id="text_9">
      <!-- $\mathdefault{−1.0}$ -->
      <g transform="translate(39.165625 518.813115) scale(0.27 -0.27)">
       <use xlink:href="#LiberationSans-2212" transform="translate(0 0.171875)"/>
       <use xlink:href="#LiberationSans-31" transform="translate(58.398438 0.171875)"/>
       <use xlink:href="#LiberationSans-2e" transform="translate(114.013672 0.171875)"/>
       <use xlink:href="#LiberationSans-30" transform="translate(141.796875 0.171875)"/>
      </g>
     </g>
    </g>
    <g id="ytick_3">
     <g id="line2d_24">
      <g>
       <use xlink:href="#m6a552292af" x="96.125625" y="425.129417" style="stroke: #000000; stroke-width: 0.8"/>
      </g>
     </g>
     <g id="text_10">
      <!-- $\mathdefault{−0.5}$ -->
      <g transform="translate(39.165625 434.912698) scale(0.27 -0.27)">
       <use xlink:href="#LiberationSans-2212" transform="translate(0 0.171875)"/>
       <use xlink:href="#LiberationSans-30" transform="translate(58.398438 0.171875)"/>
       <use xlink:href="#LiberationSans-2e" transform="translate(114.013672 0.171875)"/>
       <use xlink:href="#LiberationSans-35" transform="translate(141.796875 0.171875)"/>
      </g>
     </g>
    </g>
    <g id="ytick_4">
     <g id="line2d_25">
      <g>
       <use xlink:href="#m6a552292af" x="96.125625" y="341.229" style="stroke: #000000; stroke-width: 0.8"/>
      </g>
     </g>
     <g id="text_11">
      <!-- $\mathdefault{0.0}$ -->
      <g transform="translate(54.825625 351.012281) scale(0.27 -0.27)">
       <use xlink:href="#LiberationSans-30" transform="translate(0 0.171875)"/>
       <use xlink:href="#LiberationSans-2e" transform="translate(55.615234 0.171875)"/>
       <use xlink:href="#LiberationSans-30" transform="translate(83.398438 0.171875)"/>
      </g>
     </g>
    </g>
    <g id="ytick_5">
     <g id="line2d_26">
      <g>
       <use xlink:href="#m6a552292af" x="96.125625" y="257.328583" style="stroke: #000000; stroke-width: 0.8"/>
      </g>
     </g>
     <g id="text_12">
      <!-- $\mathdefault{0.5}$ -->
      <g transform="translate(54.825625 267.111865) scale(0.27 -0.27)">
       <use xlink:href="#LiberationSans-30" transform="translate(0 0.171875)"/>
       <use xlink:href="#LiberationSans-2e" transform="translate(55.615234 0.171875)"/>
       <use xlink:href="#LiberationSans-35" transform="translate(83.398438 0.171875)"/>
      </g>
     </g>
    </g>
    <g id="ytick_6">
     <g id="line2d_27">
      <g>
       <use xlink:href="#m6a552292af" x="96.125625" y="173.428167" style="stroke: #000000; stroke-width: 0.8"/>
      </g>
     </g>
     <g id="text_13">
      <!-- $\mathdefault{1.0}$ -->
      <g transform="translate(54.825625 183.211448) scale(0.27 -0.27)">
       <use xlink:href="#LiberationSans-31" transform="translate(0 0.171875)"/>
       <use xlink:href="#LiberationSans-2e" transform="translate(55.615234 0.171875)"/>
       <use xlink:href="#LiberationSans-30" transform="translate(83.398438 0.171875)"/>
      </g>
     </g>
    </g>
    <g id="ytick_7">
     <g id="line2d_28">
      <g>
       <use xlink:href="#m6a552292af" x="96.125625" y="89.52775" style="stroke: #000000; stroke-width: 0.8"/>
      </g>
     </g>
     <g id="text_14">
      <!-- $\mathdefault{1.5}$ -->
      <g transform="translate(54.825625 99.311031) scale(0.27 -0.27)">
       <use xlink:href="#LiberationSans-31" transform="translate(0 0.203125)"/>
       <use xlink:href="#LiberationSans-2e" transform="translate(55.615234 0.203125)"/>
       <use xlink:href="#LiberationSans-35" transform="translate(83.398438 0.203125)"/>
      </g>
     </g>
    </g>
    <g id="ytick_8">
     <g id="line2d_29">
      <defs>
       <path id="m4c6de55583" d="M 0 0 
L 2 0 
" style="stroke: #000000; stroke-width: 0.6"/>
      </defs>
      <g>
       <use xlink:href="#m4c6de55583" x="96.125625" y="643.2705" style="stroke: #000000; stroke-width: 0.6"/>
      </g>
     </g>
    </g>
    <g id="ytick_9">
     <g id="line2d_30">
      <g>
       <use xlink:href="#m4c6de55583" x="96.125625" y="626.490417" style="stroke: #000000; stroke-width: 0.6"/>
      </g>
     </g>
    </g>
    <g id="ytick_10">
     <g id="line2d_31">
      <g>
       <use xlink:href="#m4c6de55583" x="96.125625" y="609.710333" style="stroke: #000000; stroke-width: 0.6"/>
      </g>
     </g>
    </g>
    <g id="ytick_11">
     <g id="line2d_32">
      <g>
       <use xlink:href="#m4c6de55583" x="96.125625" y="576.150167" style="stroke: #000000; stroke-width: 0.6"/>
      </g>
     </g>
    </g>
    <g id="ytick_12">
     <g id="line2d_33">
      <g>
       <use xlink:href="#m4c6de55583" x="96.125625" y="559.370083" style="stroke: #000000; stroke-width: 0.6"/>
      </g>
     </g>
    </g>
    <g id="ytick_13">
     <g id="line2d_34">
      <g>
       <use xlink:href="#m4c6de55583" x="96.125625" y="542.59" style="stroke: #000000; stroke-width: 0.6"/>
      </g>
     </g>
    </g>
    <g id="ytick_14">
     <g id="line2d_35">
      <g>
       <use xlink:href="#m4c6de55583" x="96.125625" y="525.809917" style="stroke: #000000; stroke-width: 0.6"/>
      </g>
     </g>
    </g>
    <g id="ytick_15">
     <g id="line2d_36">
      <g>
       <use xlink:href="#m4c6de55583" x="96.125625" y="492.24975" style="stroke: #000000; stroke-width: 0.6"/>
      </g>
     </g>
    </g>
    <g id="ytick_16">
     <g id="line2d_37">
      <g>
       <use xlink:href="#m4c6de55583" x="96.125625" y="475.469667" style="stroke: #000000; stroke-width: 0.6"/>
      </g>
     </g>
    </g>
    <g id="ytick_17">
     <g id="line2d_38">
      <g>
       <use xlink:href="#m4c6de55583" x="96.125625" y="458.689583" style="stroke: #000000; stroke-width: 0.6"/>
      </g>
     </g>
    </g>
    <g id="ytick_18">
     <g id="line2d_39">
      <g>
       <use xlink:href="#m4c6de55583" x="96.125625" y="441.9095" style="stroke: #000000; stroke-width: 0.6"/>
      </g>
     </g>
    </g>
    <g id="ytick_19">
     <g id="line2d_40">
      <g>
       <use xlink:href="#m4c6de55583" x="96.125625" y="408.349333" style="stroke: #000000; stroke-width: 0.6"/>
      </g>
     </g>
    </g>
    <g id="ytick_20">
     <g id="line2d_41">
      <g>
       <use xlink:href="#m4c6de55583" x="96.125625" y="391.56925" style="stroke: #000000; stroke-width: 0.6"/>
      </g>
     </g>
    </g>
    <g id="ytick_21">
     <g id="line2d_42">
      <g>
       <use xlink:href="#m4c6de55583" x="96.125625" y="374.789167" style="stroke: #000000; stroke-width: 0.6"/>
      </g>
     </g>
    </g>
    <g id="ytick_22">
     <g id="line2d_43">
      <g>
       <use xlink:href="#m4c6de55583" x="96.125625" y="358.009083" style="stroke: #000000; stroke-width: 0.6"/>
      </g>
     </g>
    </g>
    <g id="ytick_23">
     <g id="line2d_44">
      <g>
       <use xlink:href="#m4c6de55583" x="96.125625" y="324.448917" style="stroke: #000000; stroke-width: 0.6"/>
      </g>
     </g>
    </g>
    <g id="ytick_24">
     <g id="line2d_45">
      <g>
       <use xlink:href="#m4c6de55583" x="96.125625" y="307.668833" style="stroke: #000000; stroke-width: 0.6"/>
      </g>
     </g>
    </g>
    <g id="ytick_25">
     <g id="line2d_46">
      <g>
       <use xlink:href="#m4c6de55583" x="96.125625" y="290.88875" style="stroke: #000000; stroke-width: 0.6"/>
      </g>
     </g>
    </g>
    <g id="ytick_26">
     <g id="line2d_47">
      <g>
       <use xlink:href="#m4c6de55583" x="96.125625" y="274.108667" style="stroke: #000000; stroke-width: 0.6"/>
      </g>
     </g>
    </g>
    <g id="ytick_27">
     <g id="line2d_48">
      <g>
       <use xlink:href="#m4c6de55583" x="96.125625" y="240.5485" style="stroke: #000000; stroke-width: 0.6"/>
      </g>
     </g>
    </g>
    <g id="ytick_28">
     <g id="line2d_49">
      <g>
       <use xlink:href="#m4c6de55583" x="96.125625" y="223.768417" style="stroke: #000000; stroke-width: 0.6"/>
      </g>
     </g>
    </g>
    <g id="ytick_29">
     <g id="line2d_50">
      <g>
       <use xlink:href="#m4c6de55583" x="96.125625" y="206.988333" style="stroke: #000000; stroke-width: 0.6"/>
      </g>
     </g>
    </g>
    <g id="ytick_30">
     <g id="line2d_51">
      <g>
       <use xlink:href="#m4c6de55583" x="96.125625" y="190.20825" style="stroke: #000000; stroke-width: 0.6"/>
      </g>
     </g>
    </g>
    <g id="ytick_31">
     <g id="line2d_52">
      <g>
       <use xlink:href="#m4c6de55583" x="96.125625" y="156.648083" style="stroke: #000000; stroke-width: 0.6"/>
      </g>
     </g>
    </g>
    <g id="ytick_32">
     <g id="line2d_53">
      <g>
       <use xlink:href="#m4c6de55583" x="96.125625" y="139.868" style="stroke: #000000; stroke-width: 0.6"/>
      </g>
     </g>
    </g>
    <g id="ytick_33">
     <g id="line2d_54">
      <g>
       <use xlink:href="#m4c6de55583" x="96.125625" y="123.087917" style="stroke: #000000; stroke-width: 0.6"/>
      </g>
     </g>
    </g>
    <g id="ytick_34">
     <g id="line2d_55">
      <g>
       <use xlink:href="#m4c6de55583" x="96.125625" y="106.307833" style="stroke: #000000; stroke-width: 0.6"/>
      </g>
     </g>
    </g>
    <g id="ytick_35">
     <g id="line2d_56">
      <g>
       <use xlink:href="#m4c6de55583" x="96.125625" y="72.747667" style="stroke: #000000; stroke-width: 0.6"/>
      </g>
     </g>
    </g>
    <g id="ytick_36">
     <g id="line2d_57">
      <g>
       <use xlink:href="#m4c6de55583" x="96.125625" y="55.967583" style="stroke: #000000; stroke-width: 0.6"/>
      </g>
     </g>
    </g>
    <g id="ytick_37">
     <g id="line2d_58">
      <g>
       <use xlink:href="#m4c6de55583" x="96.125625" y="39.1875" style="stroke: #000000; stroke-width: 0.6"/>
      </g>
     </g>
    </g>
    <g id="text_15">
     <!-- Heat Flux $\mathrm{W} / \mathrm{m}^2$ -->
     <g transform="translate(28.940625 445.779) rotate(-90) scale(0.3 -0.3)">
      <defs>
       <path id="LiberationSans-48" d="M 3503 0 
L 3503 2041 
L 1122 2041 
L 1122 0 
L 525 0 
L 525 4403 
L 1122 4403 
L 1122 2541 
L 3503 2541 
L 3503 4403 
L 4100 4403 
L 4100 0 
L 3503 0 
z
" transform="scale(0.015625)"/>
       <path id="LiberationSans-61" d="M 1294 -63 
Q 784 -63 528 206 
Q 272 475 272 944 
Q 272 1469 617 1750 
Q 963 2031 1731 2050 
L 2491 2063 
L 2491 2247 
Q 2491 2659 2316 2837 
Q 2141 3016 1766 3016 
Q 1388 3016 1216 2887 
Q 1044 2759 1009 2478 
L 422 2531 
Q 566 3444 1778 3444 
Q 2416 3444 2737 3151 
Q 3059 2859 3059 2306 
L 3059 850 
Q 3059 600 3125 473 
Q 3191 347 3375 347 
Q 3456 347 3559 369 
L 3559 19 
Q 3347 -31 3125 -31 
Q 2813 -31 2670 133 
Q 2528 297 2509 647 
L 2491 647 
Q 2275 259 1989 98 
Q 1703 -63 1294 -63 
z
M 1422 359 
Q 1731 359 1972 500 
Q 2213 641 2352 886 
Q 2491 1131 2491 1391 
L 2491 1669 
L 1875 1656 
Q 1478 1650 1273 1575 
Q 1069 1500 959 1344 
Q 850 1188 850 934 
Q 850 659 998 509 
Q 1147 359 1422 359 
z
" transform="scale(0.015625)"/>
       <path id="LiberationSans-74" d="M 1731 25 
Q 1453 -50 1163 -50 
Q 488 -50 488 716 
L 488 2972 
L 97 2972 
L 97 3381 
L 509 3381 
L 675 4138 
L 1050 4138 
L 1050 3381 
L 1675 3381 
L 1675 2972 
L 1050 2972 
L 1050 838 
Q 1050 594 1129 495 
Q 1209 397 1406 397 
Q 1519 397 1731 441 
L 1731 25 
z
" transform="scale(0.015625)"/>
       <path id="LiberationSans-46" d="M 1122 3916 
L 1122 2278 
L 3578 2278 
L 3578 1784 
L 1122 1784 
L 1122 0 
L 525 0 
L 525 4403 
L 3653 4403 
L 3653 3916 
L 1122 3916 
z
" transform="scale(0.015625)"/>
       <path id="LiberationSans-6c" d="M 431 0 
L 431 4638 
L 994 4638 
L 994 0 
L 431 0 
z
" transform="scale(0.015625)"/>
       <path id="LiberationSans-75" d="M 981 3381 
L 981 1238 
Q 981 903 1047 718 
Q 1113 534 1256 453 
Q 1400 372 1678 372 
Q 2084 372 2318 650 
Q 2553 928 2553 1422 
L 2553 3381 
L 3116 3381 
L 3116 722 
Q 3116 131 3134 0 
L 2603 0 
Q 2600 16 2597 84 
Q 2594 153 2589 242 
Q 2584 331 2578 578 
L 2569 578 
Q 2375 228 2120 82 
Q 1866 -63 1488 -63 
Q 931 -63 673 214 
Q 416 491 416 1128 
L 416 3381 
L 981 3381 
z
" transform="scale(0.015625)"/>
       <path id="LiberationSans-78" d="M 2503 0 
L 1594 1388 
L 678 0 
L 72 0 
L 1275 1738 
L 128 3381 
L 750 3381 
L 1594 2066 
L 2431 3381 
L 3059 3381 
L 1913 1744 
L 3131 0 
L 2503 0 
z
" transform="scale(0.015625)"/>
       <path id="STIXGeneral-Regular-57" d="M 5965 4237 
L 5965 4115 
Q 5709 4064 5616 3990 
Q 5523 3917 5434 3667 
Q 4704 1709 4128 -70 
L 4032 -70 
Q 3642 1011 3008 2637 
L 2022 -70 
L 1926 -70 
Q 1709 576 1277 1753 
Q 845 2931 698 3347 
Q 538 3808 406 3958 
Q 275 4109 32 4115 
L 32 4237 
L 1594 4237 
L 1594 4115 
Q 1357 4109 1270 4064 
Q 1184 4019 1184 3917 
Q 1184 3808 1254 3616 
L 2176 1210 
L 2842 3021 
L 2662 3501 
Q 2509 3917 2400 4013 
Q 2291 4109 2010 4115 
L 2010 4237 
L 3706 4237 
L 3706 4115 
Q 3213 4102 3213 3891 
Q 3213 3808 3322 3520 
L 4237 1190 
L 5043 3360 
Q 5152 3667 5152 3853 
Q 5152 4109 4704 4115 
L 4704 4237 
L 5965 4237 
z
" transform="scale(0.015625)"/>
       <path id="STIXGeneral-Regular-2f" d="M 1837 4326 
L 378 -90 
L -58 -90 
L 1408 4326 
L 1837 4326 
z
" transform="scale(0.015625)"/>
       <path id="STIXGeneral-Regular-6d" d="M 4960 0 
L 3565 0 
L 3565 96 
Q 3834 122 3907 208 
Q 3981 294 3981 576 
L 3981 1894 
Q 3981 2278 3869 2444 
Q 3757 2611 3488 2611 
Q 3264 2611 3107 2521 
Q 2950 2432 2803 2221 
L 2803 608 
Q 2803 301 2896 201 
Q 2989 102 3264 96 
L 3264 0 
L 1830 0 
L 1830 96 
Q 2112 115 2189 188 
Q 2266 262 2266 550 
L 2266 1901 
Q 2266 2611 1850 2611 
Q 1670 2611 1468 2531 
Q 1267 2451 1171 2336 
Q 1088 2240 1088 2227 
L 1088 448 
Q 1088 243 1177 176 
Q 1267 109 1523 96 
L 1523 0 
L 102 0 
L 102 96 
Q 371 102 460 195 
Q 550 288 550 563 
L 550 2150 
Q 550 2387 499 2480 
Q 448 2573 326 2573 
Q 230 2573 122 2547 
L 122 2656 
Q 557 2778 1011 2944 
L 1062 2925 
L 1062 2451 
L 1075 2451 
Q 1363 2752 1584 2848 
Q 1805 2944 2054 2944 
Q 2560 2944 2733 2406 
Q 3232 2944 3776 2944 
Q 4518 2944 4518 1792 
L 4518 493 
Q 4518 282 4582 202 
Q 4646 122 4794 109 
L 4960 96 
L 4960 0 
z
" transform="scale(0.015625)"/>
       <path id="STIXGeneral-Regular-32" d="M 3034 877 
L 2688 0 
L 186 0 
L 186 77 
L 1325 1286 
Q 1773 1754 1965 2144 
Q 2157 2534 2157 2950 
Q 2157 3379 1920 3616 
Q 1683 3853 1267 3853 
Q 922 3853 720 3673 
Q 518 3494 326 3021 
L 192 3053 
Q 301 3648 630 3987 
Q 960 4326 1523 4326 
Q 2054 4326 2380 4006 
Q 2707 3686 2707 3200 
Q 2707 2477 1888 1613 
L 832 486 
L 2330 486 
Q 2541 486 2665 569 
Q 2790 653 2944 915 
L 3034 877 
z
" transform="scale(0.015625)"/>
      </defs>
      <use xlink:href="#LiberationSans-48" transform="translate(0 0.409375)"/>
      <use xlink:href="#LiberationSans-65" transform="translate(72.216797 0.409375)"/>
      <use xlink:href="#LiberationSans-61" transform="translate(127.832031 0.409375)"/>
      <use xlink:href="#LiberationSans-74" transform="translate(183.447266 0.409375)"/>
      <use xlink:href="#LiberationSans-20" transform="translate(211.230469 0.409375)"/>
      <use xlink:href="#LiberationSans-46" transform="translate(239.013672 0.409375)"/>
      <use xlink:href="#LiberationSans-6c" transform="translate(300.097656 0.409375)"/>
      <use xlink:href="#LiberationSans-75" transform="translate(322.314453 0.409375)"/>
      <use xlink:href="#LiberationSans-78" transform="translate(377.929688 0.409375)"/>
      <use xlink:href="#LiberationSans-20" transform="translate(427.929688 0.409375)"/>
      <use xlink:href="#STIXGeneral-Regular-57" transform="translate(455.712891 0.409375)"/>
      <use xlink:href="#STIXGeneral-Regular-2f" transform="translate(550.112885 0.409375)"/>
      <use xlink:href="#STIXGeneral-Regular-6d" transform="translate(577.912872 0.409375)"/>
      <use xlink:href="#STIXGeneral-Regular-32" transform="translate(657.256141 35.684375) scale(0.7)"/>
     </g>
    </g>
    <g id="text_16">
     <!-- $\times\mathdefault{10^{10}}\mathdefault{}$ -->
     <g transform="translate(96.125625 36.1875) scale(0.4 -0.4)">
      <defs>
       <path id="STIXGeneral-Regular-d7" d="M 3821 141 
L 3526 -160 
L 2048 1312 
L 570 -160 
L 275 134 
L 1747 1613 
L 275 3091 
L 576 3386 
L 2048 1914 
L 3526 3386 
L 3821 3098 
L 2349 1613 
L 3821 141 
z
" transform="scale(0.015625)"/>
      </defs>
      <use xlink:href="#STIXGeneral-Regular-d7" transform="translate(0 0.140625)"/>
      <use xlink:href="#LiberationSans-31" transform="translate(63.999985 0.140625)"/>
      <use xlink:href="#LiberationSans-30" transform="translate(119.615219 0.140625)"/>
      <use xlink:href="#LiberationSans-31" transform="translate(176.154946 37.120312) scale(0.7)"/>
      <use xlink:href="#LiberationSans-30" transform="translate(215.08561 37.120312) scale(0.7)"/>
     </g>
    </g>
   </g>
   <g id="line2d_59">
    <path d="M 96.125625 252.03294 
L 97.015747 188.136581 
L 97.668503 155.377495 
L 98.143235 141.353541 
L 98.439942 137.99249 
L 98.499283 137.896508 
L 98.558625 138.002223 
L 98.677308 138.823272 
L 98.914674 143.034905 
L 99.211381 153.409695 
L 99.626771 177.31539 
L 100.220186 227.242179 
L 102.00043 388.168615 
L 102.593844 419.033548 
L 103.009235 431.161555 
L 103.305942 434.951521 
L 103.424625 435.351508 
L 103.483966 435.329895 
L 103.602649 434.77684 
L 103.840015 431.917397 
L 104.196064 423.597798 
L 104.670796 406.111374 
L 105.442235 368.016591 
L 106.569722 313.718741 
L 107.044454 299.502017 
L 107.400503 293.919384 
L 107.637869 292.578572 
L 107.756552 292.547562 
L 107.875235 292.864638 
L 108.1126 294.386525 
L 109.062064 301.724606 
L 109.180747 301.638642 
L 109.358771 300.765054 
L 109.596137 298.102424 
L 109.952186 290.907242 
L 110.486259 274.449537 
L 111.554405 240.537022 
L 111.969795 233.390603 
L 112.266503 231.179189 
L 112.444527 230.923646 
L 112.56321 231.168601 
L 112.800576 232.513944 
L 113.215966 236.614913 
L 114.284113 247.90561 
L 115.470942 257.160296 
L 115.826991 263.738558 
L 116.242381 276.336877 
L 116.717112 298.269738 
L 117.42921 343.811545 
L 118.556698 416.730112 
L 118.972088 432.259241 
L 119.268795 437.10402 
L 119.387478 437.439219 
L 119.506161 436.833424 
L 119.684186 434.255869 
L 119.980893 425.594225 
L 120.396283 405.506586 
L 121.108381 357.569088 
L 122.235868 283.116786 
L 122.829283 257.673766 
L 123.304015 245.278923 
L 123.719405 239.212537 
L 124.075454 236.569674 
L 124.372161 235.533856 
L 124.609527 235.290041 
L 124.787551 235.373438 
L 124.965576 235.631986 
L 125.262283 236.575228 
L 125.618332 238.852956 
L 125.974381 242.759461 
L 126.449112 251.018366 
L 127.101868 267.484259 
L 128.526063 304.739769 
L 129.060137 312.636258 
L 129.475527 315.720622 
L 129.772234 316.527979 
L 129.950259 316.638375 
L 130.187624 316.44522 
L 130.603015 315.956416 
L 130.781039 316.002091 
L 130.959063 316.401675 
L 131.196429 317.775629 
L 131.493137 321.380628 
L 131.849185 329.124031 
L 132.323917 345.536776 
L 133.332722 392.884339 
L 133.866795 412.133276 
L 134.222844 418.613442 
L 134.400868 419.66406 
L 134.46021 419.689314 
L 134.578893 419.294948 
L 134.816259 416.887795 
L 135.172307 410.136865 
L 136.359137 384.999914 
L 136.655844 383.151605 
L 136.774527 383.199277 
L 136.952551 384.090132 
L 137.189917 386.686061 
L 137.605307 394.443796 
L 138.495429 417.568529 
L 139.504234 441.432224 
L 140.394356 457.701052 
L 140.928429 464.048353 
L 141.165795 465.112513 
L 141.225136 465.13488 
L 141.343819 464.82955 
L 141.521844 463.45761 
L 141.75921 459.614971 
L 142.055917 451.135861 
L 142.471307 431.914678 
L 143.064722 391.679277 
L 144.251551 307.907161 
L 144.6076 295.946301 
L 144.844966 293.417878 
L 144.904307 293.478974 
L 145.02299 294.422703 
L 145.260356 299.294414 
L 145.616405 312.635621 
L 146.862575 365.161158 
L 147.099941 368.097471 
L 147.159283 368.281599 
L 147.218624 368.253391 
L 147.337307 367.510218 
L 147.574673 363.426919 
L 147.87138 353.744492 
L 148.346112 329.660853 
L 149.236234 269.572221 
L 150.067014 219.379468 
L 150.482405 204.574418 
L 150.779112 200.067724 
L 150.897795 199.805115 
L 151.016478 200.437657 
L 151.194502 203.051776 
L 151.491209 211.658415 
L 151.9066 231.264734 
L 153.686844 327.823355 
L 154.042892 333.814408 
L 154.220917 334.521851 
L 154.3396 334.20623 
L 154.517624 332.695041 
L 154.814331 328.018567 
L 156.238526 301.638994 
L 156.357209 301.350259 
L 156.416551 301.399123 
L 156.535234 301.862807 
L 156.7726 304.219754 
L 157.069307 309.800256 
L 157.544039 323.813824 
L 159.383624 384.914202 
L 159.858356 392.094836 
L 160.273746 395.537236 
L 161.163868 401.491699 
L 161.519917 406.368663 
L 161.935307 415.444422 
L 162.46938 432.555996 
L 163.774892 485.572233 
L 164.605673 513.623717 
L 165.199087 527.523667 
L 165.614477 532.938096 
L 165.851843 534.026284 
L 165.970526 533.936679 
L 166.148551 532.937089 
L 166.385917 530.016851 
L 166.741965 522.019967 
L 167.216697 504.973517 
L 167.810112 475.045684 
L 168.640892 420.963392 
L 170.777185 273.142503 
L 171.192575 259.908135 
L 171.489282 255.825507 
L 171.607965 255.405854 
L 171.667307 255.428457 
L 171.845331 256.445213 
L 172.082697 259.70768 
L 172.498087 269.455516 
L 173.210185 292.730398 
L 174.871746 356.618189 
L 175.702526 386.227831 
L 176.058575 393.311509 
L 176.295941 394.738957 
L 176.414624 394.290761 
L 176.592648 391.985748 
L 176.830014 385.743809 
L 177.186063 369.47332 
L 177.660794 335.999036 
L 179.619063 180.792459 
L 179.975111 171.326461 
L 180.212477 169.069708 
L 180.33116 168.925567 
L 180.449843 169.374434 
L 180.687209 171.702167 
L 181.102599 178.768512 
L 182.170746 202.697448 
L 183.001526 225.72484 
L 184.188355 267.219771 
L 186.146623 340.017642 
L 188.164233 425.240685 
L 188.638965 435.942804 
L 188.995014 440.182058 
L 189.23238 441.198729 
L 189.351062 441.198293 
L 189.529087 440.606694 
L 189.766453 438.876886 
L 190.241184 433.255474 
L 191.012623 424.131102 
L 191.368672 421.970197 
L 191.66538 421.366114 
L 191.843404 421.428133 
L 192.08077 421.781975 
L 192.49616 422.395421 
L 192.674184 422.424618 
L 192.91155 422.053158 
L 193.208258 420.889845 
L 193.564306 418.529441 
L 194.691794 408.431489 
L 195.522575 399.782228 
L 196.056648 391.272645 
L 196.531379 380.084474 
L 197.065453 362.235768 
L 197.718209 332.321744 
L 199.557794 241.568343 
L 199.854501 236.755245 
L 199.973184 236.229592 
L 200.032526 236.29005 
L 200.151209 237.029347 
L 200.388574 240.931958 
L 200.744623 252.23915 
L 201.338038 280.348743 
L 202.168818 317.705001 
L 202.584209 328.38418 
L 202.940257 332.704837 
L 203.177623 333.617655 
L 203.296306 333.652442 
L 203.414989 333.479201 
L 203.652355 332.718878 
L 204.305111 329.452892 
L 204.839184 326.119632 
L 205.254574 321.956906 
L 205.729306 314.353985 
L 207.272184 285.912885 
L 207.390867 285.721894 
L 207.50955 286.085569 
L 207.687574 287.809403 
L 207.984282 293.979994 
L 208.34033 306.826305 
L 208.874404 335.760069 
L 210.417282 427.619682 
L 210.832672 439.19413 
L 211.129379 442.110744 
L 211.188721 442.164121 
L 211.307404 441.788566 
L 211.485428 440.061795 
L 211.782135 434.373917 
L 212.256867 419.777141 
L 213.503038 370.553823 
L 215.045916 314.826814 
L 215.817355 292.376976 
L 216.232745 285.314591 
L 216.470111 283.707344 
L 216.588794 283.639737 
L 216.707477 284.09196 
L 216.885501 285.730687 
L 217.182208 290.869839 
L 217.65694 304.047138 
L 219.140477 349.68116 
L 219.615208 357.509243 
L 220.030599 361.028492 
L 220.327306 361.90713 
L 220.50533 361.953242 
L 220.742696 361.58705 
L 221.098745 360.288926 
L 221.692159 356.90711 
L 222.285574 352.118908 
L 222.819647 345.814671 
L 223.413062 335.574135 
L 224.421867 312.535947 
L 225.015281 301.843627 
L 225.311989 299.341566 
L 225.430672 299.039004 
L 225.490013 299.059006 
L 225.608696 299.460906 
L 225.78672 300.952773 
L 226.083428 305.956292 
L 226.498818 318.142559 
L 227.092233 344.021172 
L 228.694452 418.457236 
L 229.169184 429.429682 
L 229.465891 432.356632 
L 229.643915 432.68423 
L 229.762598 432.394018 
L 229.999964 430.61684 
L 230.356013 425.679132 
L 231.661525 405.276128 
L 232.017574 403.399494 
L 232.25494 403.085958 
L 232.432964 403.209745 
L 232.907696 403.563268 
L 233.08572 403.29237 
L 233.323086 402.21628 
L 233.619793 399.413654 
L 234.035184 392.433995 
L 234.628598 377.894103 
L 235.51872 356.399982 
L 235.993452 349.932083 
L 236.349501 347.859069 
L 236.586867 347.446625 
L 236.824232 347.533326 
L 237.298964 347.872745 
L 237.476988 347.657673 
L 237.714354 346.781957 
L 238.011062 344.42792 
L 238.36711 339.48348 
L 238.841842 329.029606 
L 239.613281 305.491601 
L 240.38472 283.846132 
L 240.740769 278.739533 
L 240.918793 277.967616 
L 240.978135 278.000421 
L 241.096818 278.531863 
L 241.334184 281.480157 
L 241.630891 288.525141 
L 242.105623 306.162301 
L 243.529818 365.175706 
L 244.004549 374.67721 
L 244.360598 377.781844 
L 244.597964 378.381195 
L 244.716647 378.31082 
L 244.894671 377.862707 
L 245.191379 376.223948 
L 245.547427 372.778258 
L 245.962818 366.307942 
L 246.378208 356.248645 
L 246.85294 339.376351 
L 247.505696 307.383924 
L 249.107915 224.452943 
L 249.582647 210.724956 
L 249.998037 204.425327 
L 250.294744 202.726746 
L 250.413427 202.647292 
L 250.53211 202.914045 
L 250.769476 204.168642 
L 251.125525 207.741524 
L 251.600257 215.140618 
L 252.193671 228.098366 
L 252.905769 248.859558 
L 253.855232 283.720735 
L 255.160744 330.867211 
L 255.694817 343.014065 
L 256.050866 347.37264 
L 256.288232 348.501537 
L 256.406915 348.53107 
L 256.525598 348.193797 
L 256.762964 346.564484 
L 257.119013 341.882244 
L 257.653086 331.270589 
L 259.195964 298.719646 
L 259.908061 289.068178 
L 262.459744 260.624964 
L 262.875134 257.832506 
L 263.171842 257.031442 
L 263.290525 257.061562 
L 263.468549 257.544644 
L 263.705915 259.098043 
L 264.002622 262.708932 
L 264.358671 269.823017 
L 264.774061 282.288538 
L 265.367476 308.112516 
L 266.198256 356.055168 
L 267.207061 411.639438 
L 267.741134 429.331552 
L 268.097183 435.028961 
L 268.334549 436.313107 
L 268.453232 436.280269 
L 268.631256 435.494759 
L 268.927964 432.627832 
L 269.462037 424.581513 
L 270.708207 405.45398 
L 271.420305 398.07665 
L 272.369768 388.874872 
L 272.785159 382.318675 
L 273.25989 371.010376 
L 273.793963 352.266753 
L 274.44672 320.87543 
L 276.939061 190.661967 
L 277.354451 181.919929 
L 277.591817 180.642864 
L 277.7105 181.179928 
L 277.888524 183.650325 
L 278.12589 190.223319 
L 278.481939 207.485896 
L 278.956671 243.123085 
L 280.618232 381.507912 
L 280.914939 389.070779 
L 281.033622 389.763965 
L 281.092963 389.611182 
L 281.211646 388.29752 
L 281.449012 381.821129 
L 281.805061 363.579031 
L 282.339134 322.135749 
L 283.882012 194.276816 
L 284.356744 173.660319 
L 284.653451 167.564702 
L 284.831476 166.398319 
L 284.890817 166.426677 
L 285.0095 167.028411 
L 285.187524 169.347922 
L 285.484232 176.578896 
L 285.958963 195.382909 
L 286.671061 234.064928 
L 288.807353 355.988693 
L 289.282085 371.210831 
L 289.638134 377.149218 
L 289.8755 378.501844 
L 289.994183 378.438717 
L 290.172207 377.55679 
L 290.468914 374.22648 
L 291.002988 364.626225 
L 292.427183 332.995723 
L 293.495329 304.104559 
L 294.326109 283.462707 
L 294.7415 277.616493 
L 294.978866 276.319493 
L 295.097549 276.280261 
L 295.216231 276.677932 
L 295.453597 278.709749 
L 295.750305 283.594364 
L 296.165695 294.392465 
L 296.818451 318.411644 
L 298.301987 376.15327 
L 298.776719 385.99051 
L 299.073426 388.633155 
L 299.192109 388.891031 
L 299.251451 388.857219 
L 299.370134 388.4796 
L 299.6075 386.494584 
L 299.963548 380.821187 
L 300.497622 367.746666 
L 302.633914 310.275921 
L 303.049304 305.375046 
L 303.346012 303.920649 
L 303.524036 303.877491 
L 303.702061 304.46174 
L 303.939426 306.15928 
L 304.295475 310.587662 
L 304.829548 320.596797 
L 306.550451 356.578611 
L 306.9065 359.105746 
L 307.084524 359.364696 
L 307.203207 359.203523 
L 307.440573 358.267329 
L 308.390036 353.285263 
L 308.508719 353.603407 
L 308.686743 354.903686 
L 308.924109 358.476224 
L 309.220817 366.343667 
L 309.636207 384.267246 
L 310.229621 422.030639 
L 311.594475 514.504168 
L 312.009865 527.545481 
L 312.247231 529.617318 
L 312.365914 529.126165 
L 312.543938 526.428431 
L 312.840646 516.933253 
L 313.256036 494.301216 
L 313.849451 447.667535 
L 316.163768 249.447968 
L 316.638499 229.975722 
L 316.935207 224.649421 
L 317.05389 224.044801 
L 317.113231 224.063125 
L 317.231914 224.760623 
L 317.46928 228.628617 
L 317.825329 239.868202 
L 318.359402 265.254136 
L 319.427548 317.115584 
L 319.842938 327.678745 
L 320.080304 330.049934 
L 320.198987 330.208593 
L 320.31767 329.689744 
L 320.555036 326.75148 
L 320.911085 318.2152 
L 321.504499 296.685967 
L 322.33528 267.339363 
L 322.75067 259.805189 
L 322.988036 258.616002 
L 323.106719 258.896229 
L 323.284743 260.409021 
L 323.58145 265.522365 
L 324.056182 278.875066 
L 325.59906 326.534782 
L 326.192475 336.5942 
L 327.20128 351.476315 
L 327.676011 362.627667 
L 328.269426 382.360877 
L 329.990328 445.002002 
L 330.346377 449.67054 
L 330.46506 450.101923 
L 330.524402 450.089489 
L 330.643084 449.616575 
L 330.821109 447.769894 
L 331.117816 441.70391 
L 331.533206 427.541218 
L 332.126621 398.300094 
L 333.016743 341.203707 
L 335.33106 184.505086 
L 335.627767 178.476237 
L 335.74645 178.042606 
L 335.865133 178.814808 
L 336.043158 182.36044 
L 336.339865 194.670695 
L 336.695914 219.731699 
L 337.229987 274.932216 
L 338.891548 463.271972 
L 339.306938 483.70904 
L 339.544304 487.566915 
L 339.603645 487.64308 
L 339.722328 486.716249 
L 339.900353 482.761586 
L 340.19706 469.842717 
L 340.61245 440.62131 
L 341.383889 366.802199 
L 342.392694 275.240752 
L 342.926767 243.933211 
L 343.342157 229.656363 
L 343.698206 223.610197 
L 343.935572 222.162546 
L 344.054255 222.085878 
L 344.172938 222.361222 
L 344.410304 223.860976 
L 344.766353 228.044955 
L 345.241084 236.42951 
L 345.834499 251.313611 
L 346.665279 279.085841 
L 347.674084 311.539076 
L 348.208157 321.987698 
L 348.623548 326.110848 
L 348.920255 327.172975 
L 349.098279 327.228699 
L 349.276304 326.891895 
L 349.573011 325.596993 
L 349.988401 322.551005 
L 350.581816 316.208889 
L 351.827987 302.097158 
L 352.065352 301.268255 
L 352.184035 301.341198 
L 352.36206 302.146793 
L 352.599426 304.64721 
L 352.896133 310.218366 
L 353.311523 322.636299 
L 353.964279 349.984403 
L 354.913743 388.790586 
L 355.329133 397.765195 
L 355.566499 399.482184 
L 355.62584 399.48517 
L 355.744523 398.994772 
L 355.922547 396.995442 
L 356.219255 390.473074 
L 356.693987 373.384724 
L 357.880816 327.116744 
L 358.177523 322.797152 
L 358.296206 322.401377 
L 358.414889 322.803093 
L 358.592913 324.924869 
L 358.889621 332.189225 
L 359.364352 351.269021 
L 360.373157 394.047484 
L 360.669864 399.200798 
L 360.788547 399.601054 
L 360.90723 398.978664 
L 361.085255 396.006189 
L 361.381962 385.424669 
L 361.797352 359.36869 
L 362.390767 304.951903 
L 363.636938 187.587738 
L 364.052328 166.726034 
L 364.349035 160.728328 
L 364.408377 160.460686 
L 364.467718 160.494917 
L 364.586401 161.507428 
L 364.823767 167.183123 
L 365.120474 180.495904 
L 365.595206 214.041959 
L 366.485328 298.586445 
L 367.37545 375.190076 
L 367.850181 400.670935 
L 368.20623 410.566838 
L 368.443596 412.622583 
L 368.502938 412.572343 
L 368.62162 411.818095 
L 368.858986 407.700968 
L 369.155694 397.946185 
L 369.571084 376.605627 
L 370.164498 333.756391 
L 372.419474 156.607979 
L 372.775523 146.280844 
L 373.012889 144.319253 
L 373.131572 144.86729 
L 373.309596 147.565695 
L 373.606303 156.835349 
L 374.021694 178.297931 
L 374.793133 232.589673 
L 375.801937 299.322319 
L 376.514035 332.010995 
L 377.166791 352.569462 
L 377.700864 363.601533 
L 378.056913 367.51787 
L 378.294279 368.309655 
L 378.412962 368.088175 
L 378.590986 366.946911 
L 378.828352 363.945524 
L 379.184401 356.287324 
L 379.718474 339.045708 
L 381.439376 278.221499 
L 382.151474 262.908918 
L 382.863571 252.132832 
L 383.397645 246.732934 
L 383.813035 244.478127 
L 384.109742 243.827916 
L 384.406449 243.840266 
L 384.703157 244.229933 
L 385.118547 245.101306 
L 385.533937 246.45524 
L 385.830645 248.255827 
L 386.127352 251.482553 
L 386.483401 258.350356 
L 386.839449 269.733126 
L 387.314181 293.072862 
L 387.966937 338.315415 
L 389.213108 425.889353 
L 389.747181 447.355778 
L 390.162571 455.919611 
L 390.459279 458.521782 
L 390.696644 459.161238 
L 390.874669 459.127896 
L 391.408742 458.474463 
L 391.527425 458.59439 
L 391.705449 459.198305 
L 391.942815 460.894788 
L 392.239522 464.936087 
L 392.595571 472.833398 
L 393.070303 488.423774 
L 393.960425 527.209879 
L 394.731864 556.652717 
L 395.147254 565.680401 
L 395.443961 568.174593 
L 395.562644 568.209831 
L 395.681327 567.665821 
L 395.918693 564.948454 
L 396.274742 556.892001 
L 396.749474 539.933881 
L 397.639596 497.57298 
L 398.589059 456.104242 
L 399.182474 439.247491 
L 399.716547 430.094861 
L 401.022059 412.368029 
L 401.496791 399.601238 
L 402.030864 378.453383 
L 402.802303 337.608016 
L 404.819913 226.112578 
L 405.413327 205.994449 
L 405.828717 198.146622 
L 406.125425 195.956922 
L 406.244108 195.83926 
L 406.362791 196.168217 
L 406.600156 197.987228 
L 406.956205 203.069597 
L 407.668303 217.601988 
L 408.914473 246.844689 
L 409.507888 267.046215 
L 410.39801 306.762793 
L 411.288132 343.250295 
L 411.822205 356.79341 
L 412.178254 361.286972 
L 412.41562 362.202611 
L 412.534303 362.076676 
L 412.712327 361.080795 
L 413.009034 357.452156 
L 413.365083 349.861353 
L 413.839815 334.364275 
L 414.492571 304.823166 
L 415.6794 250.218258 
L 416.035449 242.030668 
L 416.272815 240.36355 
L 416.332156 240.460136 
L 416.450839 241.298956 
L 416.688205 245.509381 
L 417.044254 257.820122 
L 417.578327 287.115849 
L 418.883839 363.274959 
L 419.239888 372.551928 
L 419.477254 374.289103 
L 419.595937 373.747258 
L 419.773961 371.201383 
L 420.070668 362.43181 
L 420.486059 341.860995 
L 421.257498 288.550127 
L 422.088278 234.921886 
L 422.56301 216.565297 
L 422.859717 211.197785 
L 423.037741 210.265534 
L 423.097083 210.327553 
L 423.215766 210.964861 
L 423.453132 214.226775 
L 423.809181 223.267682 
L 424.461937 247.300302 
L 425.4114 280.973248 
L 426.064156 296.016358 
L 426.894937 308.889719 
L 427.607034 320.729343 
L 428.319132 336.909332 
L 429.505961 364.770165 
L 429.86201 368.810205 
L 430.040034 369.501729 
L 430.158717 369.400662 
L 430.336741 368.41099 
L 430.633449 364.627366 
L 431.048839 355.34301 
L 432.532375 317.739048 
L 432.769741 316.261813 
L 432.888424 316.298998 
L 433.066449 317.309159 
L 433.303814 320.352613 
L 433.719205 329.554286 
L 435.084058 363.57351 
L 435.321424 364.815958 
L 435.440107 364.528162 
L 435.618132 362.929205 
L 435.855497 358.533847 
L 436.211546 347.117764 
L 436.745619 321.333493 
L 437.99179 258.107817 
L 438.347839 250.518353 
L 438.525863 249.62817 
L 438.644546 250.153386 
L 438.82257 252.624841 
L 439.119278 261.035388 
L 439.534668 280.301273 
L 441.25557 371.889937 
L 441.552278 376.93747 
L 441.730302 377.659685 
L 441.848985 377.197109 
L 442.027009 375.147891 
L 442.323717 368.66009 
L 442.85779 350.418515 
L 443.747912 319.849261 
L 444.163302 312.102987 
L 444.400668 310.257044 
L 444.519351 310.038617 
L 444.638034 310.231303 
L 444.816058 311.283481 
L 445.112766 314.837721 
L 445.587497 323.850505 
L 446.536961 347.500813 
L 448.257863 390.091092 
L 448.791936 398.83407 
L 449.147985 401.904808 
L 449.385351 402.508086 
L 449.504034 402.372989 
L 449.682058 401.567512 
L 449.978765 398.819253 
L 450.394156 392.452688 
L 451.402961 371.813169 
L 452.649131 348.359413 
L 453.42057 337.083667 
L 453.776619 334.300807 
L 453.954643 333.95646 
L 454.073326 334.206775 
L 454.251351 335.386563 
L 454.488717 338.631576 
L 454.844765 347.42299 
L 455.260156 363.838719 
L 455.85357 397.63718 
L 457.574473 504.695404 
L 457.930521 514.047582 
L 458.167887 516.323297 
L 458.227229 516.400988 
L 458.28657 516.302154 
L 458.464595 514.915951 
L 458.70196 510.837552 
L 459.117351 499.121395 
L 460.778912 446.802388 
L 462.025082 416.363937 
L 462.559155 395.088587 
L 463.271253 356.180571 
L 464.695448 275.704604 
L 465.17018 260.620735 
L 465.526229 254.956316 
L 465.763594 253.719875 
L 465.882277 253.758134 
L 466.060302 254.577992 
L 466.357009 257.50068 
L 466.831741 265.017117 
L 467.899887 286.453505 
L 468.730668 307.090004 
L 469.502107 332.518002 
L 471.044985 385.695667 
L 471.460375 392.850862 
L 471.697741 394.52533 
L 471.816424 394.668347 
L 471.935107 394.352311 
L 472.113131 392.994701 
L 472.409838 388.586305 
L 472.88457 377.315341 
L 474.012058 348.919394 
L 474.368106 345.280299 
L 474.546131 344.933081 
L 474.664814 345.227031 
L 474.842838 346.410676 
L 475.139546 350.134197 
L 476.445058 369.335858 
L 476.504399 369.362018 
L 476.623082 369.016516 
L 476.801106 367.385861 
L 477.097814 361.396663 
L 477.453863 348.684847 
L 477.928594 323.004907 
L 479.708838 214.69613 
L 480.005545 209.51184 
L 480.124228 209.215738 
L 480.242911 209.965187 
L 480.420936 213.031714 
L 480.717643 223.140959 
L 481.133033 246.098596 
L 482.023155 312.528446 
L 482.794594 362.893447 
L 483.328667 385.668886 
L 483.86274 399.503427 
L 484.337472 406.690958 
L 484.752862 410.213651 
L 484.990228 410.978386 
L 485.108911 410.958015 
L 485.286936 410.329568 
L 485.524301 408.247193 
L 485.821009 403.411055 
L 486.236399 392.151989 
L 486.829814 368.392095 
L 488.194667 311.080946 
L 488.72874 297.850706 
L 489.144131 292.123059 
L 489.440838 290.352089 
L 489.618862 290.181503 
L 489.737545 290.43406 
L 489.974911 291.834828 
L 490.271618 295.266439 
L 490.687009 303.434765 
L 491.221082 319.489563 
L 491.933179 349.023409 
L 493.416716 412.277467 
L 493.891448 423.412999 
L 494.247496 427.244731 
L 494.425521 427.777096 
L 494.544204 427.636529 
L 494.722228 426.799538 
L 495.018935 424.031697 
L 495.671691 414.926941 
L 496.205765 408.774893 
L 496.502472 407.192967 
L 496.680496 407.048944 
L 496.858521 407.505765 
L 497.095887 408.937626 
L 497.511277 413.140618 
L 498.223374 420.269015 
L 498.46074 420.880666 
L 498.579423 420.625172 
L 498.757448 419.448285 
L 499.054155 415.280246 
L 499.469545 404.965227 
L 500.240984 378.03034 
L 500.834399 360.478356 
L 501.190448 355.244434 
L 501.368472 354.546614 
L 501.487155 354.834629 
L 501.665179 356.40379 
L 501.961887 361.974737 
L 502.377277 375.1961 
L 503.030033 404.480517 
L 504.038838 449.125389 
L 504.454228 459.640796 
L 504.750935 462.752998 
L 504.869618 462.928551 
L 504.988301 462.480724 
L 505.225667 459.802204 
L 505.581716 451.966744 
L 506.17513 432.070783 
L 507.421301 389.306087 
L 508.786155 347.576791 
L 509.379569 319.186045 
L 510.803764 245.440129 
L 511.100472 239.931664 
L 511.219155 239.501557 
L 511.337838 240.171233 
L 511.515862 243.304729 
L 511.812569 254.1921 
L 512.22796 280.131374 
L 512.940057 343.086436 
L 513.88952 423.116595 
L 514.364252 447.210312 
L 514.720301 455.813796 
L 514.898325 457.115897 
L 514.957667 457.111802 
L 515.07635 456.478606 
L 515.254374 454.049404 
L 515.551081 446.435743 
L 516.025813 426.869763 
L 517.034618 371.971975 
L 517.746716 338.907167 
L 518.221447 325.370195 
L 518.577496 320.608291 
L 518.75552 319.950948 
L 518.814862 319.971604 
L 518.992886 320.72946 
L 519.230252 323.193112 
L 519.645642 330.514494 
L 520.713789 350.702094 
L 520.951154 351.993801 
L 521.010496 351.991063 
L 521.129179 351.546498 
L 521.307203 349.695634 
L 521.603911 343.352437 
L 521.959959 330.191556 
L 522.494033 300.595172 
L 524.570984 171.643269 
L 525.045715 158.051737 
L 525.342423 154.066971 
L 525.520447 153.491078 
L 525.63913 153.885914 
L 525.817154 155.792802 
L 526.05452 160.781689 
L 526.410569 174.015503 
L 526.825959 198.783829 
L 527.360032 245.000206 
L 528.250154 346.576499 
L 529.258959 456.187438 
L 529.793032 493.636003 
L 530.208423 508.923347 
L 530.445788 511.99672 
L 530.50513 512.133981 
L 530.564471 512.01501 
L 530.683154 511.079353 
L 530.92052 506.500001 
L 531.276569 493.895289 
L 531.869984 462.640655 
L 532.997471 401.823777 
L 533.531545 384.098824 
L 533.946935 376.349077 
L 534.302984 373.032477 
L 534.599691 371.974123 
L 534.777715 371.891699 
L 534.95574 372.119372 
L 535.193105 372.758458 
L 535.905203 375.759223 
L 536.498618 378.019165 
L 536.676642 378.199584 
L 536.795325 378.102679 
L 536.973349 377.504151 
L 537.210715 375.699805 
L 537.507423 371.181197 
L 537.863471 361.599316 
L 538.278862 343.743897 
L 538.812935 309.488231 
L 539.525032 246.952636 
L 540.949227 117.767791 
L 541.364618 98.83583 
L 541.601983 95.377623 
L 541.661325 95.437024 
L 541.780008 96.742179 
L 541.958032 101.684081 
L 542.25474 117.940794 
L 542.67013 156.219184 
L 543.322886 241.583059 
L 544.331691 372.136554 
L 544.806422 410.083605 
L 545.162471 424.713002 
L 545.399837 427.800638 
L 545.459178 427.765417 
L 545.577861 426.761884 
L 545.815227 421.173445 
L 546.171276 404.904449 
L 546.705349 368.068508 
L 547.714154 297.575747 
L 548.070203 285.293414 
L 548.307569 282.936266 
L 548.426252 283.659118 
L 548.604276 287.08437 
L 548.900983 298.817608 
L 549.316374 326.060009 
L 550.859252 441.46325 
L 551.155959 448.460226 
L 551.274642 449.082868 
L 551.393325 448.476688 
L 551.571349 445.269108 
L 551.868056 434.408585 
L 552.342788 405.971596 
L 553.945008 298.205873 
L 554.360398 284.6798 
L 554.716447 279.114132 
L 554.953812 278.049956 
L 555.072495 278.156358 
L 555.25052 278.976602 
L 555.606569 282.174467 
L 556.615373 292.402364 
L 556.912081 293.588967 
L 557.090105 293.732471 
L 557.268129 293.413985 
L 557.505495 292.381557 
L 557.920886 289.046851 
L 558.632983 281.130393 
L 560.11652 262.167825 
L 561.36269 244.722462 
L 561.600056 243.790328 
L 561.659398 243.800077 
L 561.778081 244.159356 
L 561.956105 245.660385 
L 562.193471 249.618286 
L 562.54952 260.216603 
L 562.96491 280.024317 
L 563.558325 321.14569 
L 564.626471 416.46732 
L 565.39791 476.123268 
L 565.8133 495.242444 
L 566.110007 501.446142 
L 566.22869 502.095514 
L 566.288032 502.043664 
L 566.406715 501.200448 
L 566.644081 496.709812 
L 567.000129 483.871337 
L 567.593544 452.315232 
L 568.721032 391.898492 
L 569.314446 371.116225 
L 569.84852 359.692864 
L 570.26391 354.774462 
L 570.619959 352.845823 
L 570.797983 352.635079 
L 570.916666 352.731935 
L 571.09469 353.287629 
L 571.332056 354.757437 
L 571.688105 358.582157 
L 572.162837 366.83883 
L 572.756251 381.701302 
L 574.180446 419.249726 
L 574.477154 421.84547 
L 574.536495 421.939456 
L 574.595837 421.859599 
L 574.714519 421.177355 
L 574.951885 417.585293 
L 575.248593 408.481544 
L 575.604641 390.413388 
L 576.138715 349.44371 
L 577.918958 194.360851 
L 578.215666 186.432261 
L 578.334349 185.804099 
L 578.453032 186.625836 
L 578.631056 190.634968 
L 578.927763 204.325116 
L 579.343154 236.236337 
L 580.114593 317.416182 
L 580.945373 397.573147 
L 581.420105 425.299785 
L 581.776153 434.809444 
L 581.954178 435.829136 
L 582.072861 435.209364 
L 582.250885 432.343309 
L 582.547592 422.806281 
L 582.962983 401.031539 
L 583.67508 349.764861 
L 584.743227 274.785491 
L 585.2773 251.233369 
L 585.69269 241.003727 
L 586.048739 236.929153 
L 586.286105 235.957637 
L 586.464129 235.802119 
L 586.701495 236.098221 
L 587.472934 237.347917 
L 587.7103 237.255979 
L 588.007007 236.861144 
L 588.422397 236.36786 
L 588.54108 236.377894 
L 588.719105 236.708546 
L 588.95647 237.786247 
L 589.253178 240.546419 
L 589.609227 246.447807 
L 590.083958 258.908076 
L 590.736714 283.085491 
L 591.686178 327.575259 
L 592.635641 382.666543 
L 594.119178 471.062948 
L 594.593909 487.871491 
L 594.949958 494.252285 
L 595.187324 495.337269 
L 595.306007 494.951041 
L 595.484031 493.227509 
L 595.780739 487.496909 
L 596.196129 473.906099 
L 596.730202 448.292426 
L 597.4423 402.65919 
L 598.510446 318.109737 
L 599.578592 237.205689 
L 600.053324 214.376218 
L 600.350031 207.199091 
L 600.528056 205.992469 
L 600.587397 206.124696 
L 600.70608 207.236276 
L 600.943446 212.723413 
L 601.240153 225.649615 
L 601.714885 258.562993 
L 602.605007 342.292409 
L 603.376446 406.684179 
L 603.851177 429.672725 
L 604.147885 435.417051 
L 604.266568 435.772621 
L 604.385251 435.008808 
L 604.563275 431.833563 
L 604.859982 421.332956 
L 605.275373 397.025697 
L 605.928129 342.677364 
L 607.58969 197.842231 
L 608.123763 170.964683 
L 608.479812 161.924916 
L 608.717177 160.284999 
L 608.83586 160.846628 
L 609.013885 163.51936 
L 609.310592 172.793041 
L 609.666641 191.918694 
L 610.141373 230.31176 
L 610.85347 308.279494 
L 611.921616 423.088338 
L 612.396348 451.62438 
L 612.693055 458.867654 
L 612.811738 459.389447 
L 612.930421 458.564756 
L 613.108446 454.900053 
L 613.405153 442.809164 
L 613.820543 415.217992 
L 614.591982 344.901773 
L 615.482104 268.421561 
L 615.956836 243.08736 
L 616.312885 233.508315 
L 616.55025 231.472405 
L 616.609592 231.469518 
L 616.728275 232.008881 
L 616.965641 235.114841 
L 617.321689 243.652127 
L 619.220616 296.653917 
L 619.695348 301.914574 
L 620.229421 305.441328 
L 620.704153 308.783937 
L 621.119543 313.506104 
L 621.594275 321.8499 
L 622.247031 338.174558 
L 623.43386 369.098134 
L 623.908592 376.180605 
L 624.264641 378.490081 
L 624.442665 378.757421 
L 624.561348 378.629557 
L 624.798714 377.725463 
L 625.154763 375.197862 
L 625.807519 368.644887 
L 626.697641 357.709594 
L 627.291055 347.261371 
L 627.88447 332.056367 
L 628.71525 303.959848 
L 629.724055 271.329398 
L 630.258128 260.137938 
L 630.673519 255.305627 
L 630.970226 253.729155 
L 631.14825 253.502003 
L 631.266933 253.604496 
L 631.504299 254.372084 
L 631.801006 256.318355 
L 632.216397 260.679801 
L 632.75047 269.0216 
L 633.403226 283.442974 
L 634.234006 307.686419 
L 635.361494 347.377916 
L 636.845031 400.731461 
L 637.260421 408.333292 
L 637.497787 410.127284 
L 637.61647 410.278019 
L 637.735153 409.977371 
L 637.913177 408.687838 
L 638.209884 404.614137 
L 638.743957 393.448217 
L 639.574738 376.761263 
L 639.930787 373.566889 
L 640.108811 373.268404 
L 640.227494 373.56808 
L 640.405518 374.768057 
L 640.702226 378.758445 
L 641.176957 389.138722 
L 642.245104 414.389022 
L 642.48247 416.334153 
L 642.541811 416.44809 
L 642.601152 416.370951 
L 642.719835 415.685183 
L 642.89786 413.142967 
L 643.194567 404.706797 
L 643.550616 387.513202 
L 644.084689 348.877639 
L 646.102299 186.204069 
L 646.636372 164.206672 
L 647.051762 154.373711 
L 647.348469 151.114683 
L 647.526494 150.748709 
L 647.645177 151.169386 
L 647.823201 152.978447 
L 648.060567 157.669823 
L 648.416616 170.122994 
L 648.832006 193.85864 
L 649.366079 239.255024 
L 650.137518 327.81018 
L 651.265006 456.399672 
L 651.739738 489.536377 
L 652.095786 501.177526 
L 652.273811 502.385491 
L 652.392494 501.488495 
L 652.570518 497.645923 
L 652.867225 485.048527 
L 653.282616 456.232811 
L 654.113396 377.738602 
L 654.884835 312.438203 
L 655.359567 288.740547 
L 655.656274 282.024923 
L 655.834299 280.958011 
L 655.952982 281.418793 
L 656.131006 283.742415 
L 656.427713 291.407372 
L 656.902445 310.686194 
L 658.267299 370.840763 
L 658.74203 381.663782 
L 659.038738 384.692487 
L 659.216762 385.162279 
L 659.335445 384.980701 
L 659.513469 383.902413 
L 659.810177 380.314378 
L 660.225567 372.155163 
L 660.878323 354.141932 
L 662.421201 302.825615 
L 663.667372 265.514613 
L 664.557494 244.907496 
L 665.150908 235.908236 
L 665.506957 233.504271 
L 665.62564 233.32449 
L 665.684981 233.371591 
L 665.863006 234.103354 
L 666.100372 236.485538 
L 666.397079 241.846674 
L 666.812469 253.773823 
L 667.405884 278.077475 
L 669.601518 376.154847 
L 670.07625 387.093012 
L 670.432298 391.100331 
L 670.610323 391.652261 
L 670.729006 391.482363 
L 670.90703 390.45418 
L 671.203737 386.763132 
L 671.619128 378.29758 
L 672.92464 349.182169 
L 673.280689 346.186528 
L 673.458713 345.828691 
L 673.577396 346.007313 
L 673.75542 346.813001 
L 674.111469 350.012006 
L 674.704884 358.174871 
L 675.713688 371.96325 
L 676.18842 375.638138 
L 676.425786 376.302428 
L 676.544469 376.298434 
L 676.722493 375.823122 
L 676.959859 374.366577 
L 677.315908 370.611043 
L 678.62142 354.605443 
L 678.740103 354.434231 
L 678.858786 354.669461 
L 679.03681 355.787306 
L 679.333518 359.652793 
L 679.808249 370.158719 
L 680.63903 388.842101 
L 680.876396 390.746959 
L 680.935737 390.803256 
L 681.05442 390.367997 
L 681.232444 388.268339 
L 681.46981 382.549754 
L 681.825859 367.620279 
L 682.359932 333.028214 
L 683.606103 246.210067 
L 683.962152 234.990467 
L 684.199518 232.944404 
L 684.318201 233.60366 
L 684.496225 236.65839 
L 684.792932 246.660125 
L 685.267664 272.556828 
L 686.691859 357.197271 
L 687.107249 367.968046 
L 687.344615 370.374847 
L 687.463298 370.640157 
L 687.581981 370.370149 
L 687.819347 368.482943 
L 688.294079 361.745253 
L 688.76881 355.77401 
L 689.006176 354.740382 
L 689.065518 354.760308 
L 689.1842 355.183353 
L 689.362225 356.84372 
L 689.540249 359.75297 
L 689.540249 359.75297 
" clip-path="url(#p8558a5f1c4)" style="fill: none; stroke: #ff0000; stroke-width: 1.5; stroke-linecap: square"/>
   </g>
   <g id="patch_3">
    <path d="M 96.125625 643.2705 
L 96.125625 39.1875 
" style="fill: none; stroke: #000000; stroke-width: 0.8; stroke-linejoin: miter; stroke-linecap: square"/>
   </g>
   <g id="patch_4">
    <path d="M 689.520469 643.2705 
L 689.520469 39.1875 
" style="fill: none; stroke: #000000; stroke-width: 0.8; stroke-linejoin: miter; stroke-linecap: square"/>
   </g>
   <g id="patch_5">
    <path d="M 96.125625 643.2705 
L 689.520469 643.2705 
" style="fill: none; stroke: #000000; stroke-width: 0.8; stroke-linejoin: miter; stroke-linecap: square"/>
   </g>
   <g id="patch_6">
    <path d="M 96.125625 39.1875 
L 689.520469 39.1875 
" style="fill: none; stroke: #000000; stroke-width: 0.8; stroke-linejoin: miter; stroke-linecap: square"/>
   </g>
  </g>
 </g>
 <defs>
  <clipPath id="p8558a5f1c4">
   <rect x="96.125625" y="39.1875" width="593.394844" height="604.083"/>
  </clipPath>
 </defs>
</svg>
