<?xml version="1.0" encoding="utf-8" standalone="no"?>
<!DOCTYPE svg PUBLIC "-//W3C//DTD SVG 1.1//EN"
  "http://www.w3.org/Graphics/SVG/1.1/DTD/svg11.dtd">
<svg xmlns:xlink="http://www.w3.org/1999/xlink" width="709.914pt" height="710.94975pt" viewBox="0 0 709.914 710.94975" xmlns="http://www.w3.org/2000/svg" version="1.1">
 <metadata>
  <rdf:RDF xmlns:dc="http://purl.org/dc/elements/1.1/" xmlns:cc="http://creativecommons.org/ns#" xmlns:rdf="http://www.w3.org/1999/02/22-rdf-syntax-ns#">
   <cc:Work>
    <dc:type rdf:resource="http://purl.org/dc/dcmitype/StillImage"/>
    <dc:date>2025-02-05T18:29:32.960314</dc:date>
    <dc:format>image/svg+xml</dc:format>
    <dc:creator>
     <cc:Agent>
      <dc:title>Matplotlib v3.9.3, https://matplotlib.org/</dc:title>
     </cc:Agent>
    </dc:creator>
   </cc:Work>
  </rdf:RDF>
 </metadata>
 <defs>
  <style type="text/css">*{stroke-linejoin: round; stroke-linecap: butt}</style>
 </defs>
 <g id="figure_1">
  <g id="patch_1">
   <path d="M 0 710.94975 
L 709.914 710.94975 
L 709.914 0 
L 0 0 
z
" style="fill: #ffffff"/>
  </g>
  <g id="axes_1">
   <g id="patch_2">
    <path d="M 61.8 640.3185 
L 702.714 640.3185 
L 702.714 39.1875 
L 61.8 39.1875 
z
" style="fill: #ffffff"/>
   </g>
   <g id="matplotlib.axis_1">
    <g id="xtick_1">
     <g id="line2d_1">
      <defs>
       <path id="mc5b24f5b81" d="M 0 0 
L 0 -3.5 
" style="stroke: #000000; stroke-width: 0.8"/>
      </defs>
      <g>
       <use xlink:href="#mc5b24f5b81" x="90.81589" y="640.3185" style="stroke: #000000; stroke-width: 0.8"/>
      </g>
     </g>
     <g id="text_1">
      <!-- 0 -->
      <g transform="translate(82.474484 665.559125) scale(0.3 -0.3)">
       <defs>
        <path id="LiberationSans-30" d="M 3309 2203 
Q 3309 1100 2920 518 
Q 2531 -63 1772 -63 
Q 1013 -63 631 515 
Q 250 1094 250 2203 
Q 250 3338 620 3903 
Q 991 4469 1791 4469 
Q 2569 4469 2939 3897 
Q 3309 3325 3309 2203 
z
M 2738 2203 
Q 2738 3156 2517 3584 
Q 2297 4013 1791 4013 
Q 1272 4013 1045 3591 
Q 819 3169 819 2203 
Q 819 1266 1048 831 
Q 1278 397 1778 397 
Q 2275 397 2506 840 
Q 2738 1284 2738 2203 
z
" transform="scale(0.015625)"/>
       </defs>
       <use xlink:href="#LiberationSans-30"/>
      </g>
     </g>
    </g>
    <g id="xtick_2">
     <g id="line2d_2">
      <g>
       <use xlink:href="#mc5b24f5b81" x="207.380677" y="640.3185" style="stroke: #000000; stroke-width: 0.8"/>
      </g>
     </g>
     <g id="text_2">
      <!-- 2 -->
      <g transform="translate(199.039271 665.559125) scale(0.3 -0.3)">
       <defs>
        <path id="LiberationSans-32" d="M 322 0 
L 322 397 
Q 481 763 711 1042 
Q 941 1322 1194 1548 
Q 1447 1775 1695 1969 
Q 1944 2163 2144 2356 
Q 2344 2550 2467 2762 
Q 2591 2975 2591 3244 
Q 2591 3606 2378 3806 
Q 2166 4006 1788 4006 
Q 1428 4006 1195 3811 
Q 963 3616 922 3263 
L 347 3316 
Q 409 3844 795 4156 
Q 1181 4469 1788 4469 
Q 2453 4469 2811 4155 
Q 3169 3841 3169 3263 
Q 3169 3006 3051 2753 
Q 2934 2500 2703 2247 
Q 2472 1994 1819 1463 
Q 1459 1169 1246 933 
Q 1034 697 941 478 
L 3238 478 
L 3238 0 
L 322 0 
z
" transform="scale(0.015625)"/>
       </defs>
       <use xlink:href="#LiberationSans-32"/>
      </g>
     </g>
    </g>
    <g id="xtick_3">
     <g id="line2d_3">
      <g>
       <use xlink:href="#mc5b24f5b81" x="323.945465" y="640.3185" style="stroke: #000000; stroke-width: 0.8"/>
      </g>
     </g>
     <g id="text_3">
      <!-- 4 -->
      <g transform="translate(315.604059 665.559125) scale(0.3 -0.3)">
       <defs>
        <path id="LiberationSans-34" d="M 2753 997 
L 2753 0 
L 2222 0 
L 2222 997 
L 147 997 
L 147 1434 
L 2163 4403 
L 2753 4403 
L 2753 1441 
L 3372 1441 
L 3372 997 
L 2753 997 
z
M 2222 3769 
Q 2216 3750 2134 3603 
Q 2053 3456 2013 3397 
L 884 1734 
L 716 1503 
L 666 1441 
L 2222 1441 
L 2222 3769 
z
" transform="scale(0.015625)"/>
       </defs>
       <use xlink:href="#LiberationSans-34"/>
      </g>
     </g>
    </g>
    <g id="xtick_4">
     <g id="line2d_4">
      <g>
       <use xlink:href="#mc5b24f5b81" x="440.510253" y="640.3185" style="stroke: #000000; stroke-width: 0.8"/>
      </g>
     </g>
     <g id="text_4">
      <!-- 6 -->
      <g transform="translate(432.168846 665.559125) scale(0.3 -0.3)">
       <defs>
        <path id="LiberationSans-36" d="M 3278 1441 
Q 3278 744 2900 340 
Q 2522 -63 1856 -63 
Q 1113 -63 719 490 
Q 325 1044 325 2100 
Q 325 3244 734 3856 
Q 1144 4469 1900 4469 
Q 2897 4469 3156 3572 
L 2619 3475 
Q 2453 4013 1894 4013 
Q 1413 4013 1148 3564 
Q 884 3116 884 2266 
Q 1038 2550 1316 2698 
Q 1594 2847 1953 2847 
Q 2563 2847 2920 2465 
Q 3278 2084 3278 1441 
z
M 2706 1416 
Q 2706 1894 2472 2153 
Q 2238 2413 1819 2413 
Q 1425 2413 1183 2183 
Q 941 1953 941 1550 
Q 941 1041 1192 716 
Q 1444 391 1838 391 
Q 2244 391 2475 664 
Q 2706 938 2706 1416 
z
" transform="scale(0.015625)"/>
       </defs>
       <use xlink:href="#LiberationSans-36"/>
      </g>
     </g>
    </g>
    <g id="xtick_5">
     <g id="line2d_5">
      <g>
       <use xlink:href="#mc5b24f5b81" x="557.07504" y="640.3185" style="stroke: #000000; stroke-width: 0.8"/>
      </g>
     </g>
     <g id="text_5">
      <!-- 8 -->
      <g transform="translate(548.733634 665.559125) scale(0.3 -0.3)">
       <defs>
        <path id="LiberationSans-38" d="M 3281 1228 
Q 3281 619 2893 278 
Q 2506 -63 1781 -63 
Q 1075 -63 676 271 
Q 278 606 278 1222 
Q 278 1653 525 1947 
Q 772 2241 1156 2303 
L 1156 2316 
Q 797 2400 589 2681 
Q 381 2963 381 3341 
Q 381 3844 757 4156 
Q 1134 4469 1769 4469 
Q 2419 4469 2795 4162 
Q 3172 3856 3172 3334 
Q 3172 2956 2962 2675 
Q 2753 2394 2391 2322 
L 2391 2309 
Q 2813 2241 3047 1952 
Q 3281 1663 3281 1228 
z
M 2588 3303 
Q 2588 4050 1769 4050 
Q 1372 4050 1164 3862 
Q 956 3675 956 3303 
Q 956 2925 1170 2726 
Q 1384 2528 1775 2528 
Q 2172 2528 2380 2711 
Q 2588 2894 2588 3303 
z
M 2697 1281 
Q 2697 1691 2453 1898 
Q 2209 2106 1769 2106 
Q 1341 2106 1100 1882 
Q 859 1659 859 1269 
Q 859 359 1788 359 
Q 2247 359 2472 579 
Q 2697 800 2697 1281 
z
" transform="scale(0.015625)"/>
       </defs>
       <use xlink:href="#LiberationSans-38"/>
      </g>
     </g>
    </g>
    <g id="xtick_6">
     <g id="line2d_6">
      <g>
       <use xlink:href="#mc5b24f5b81" x="673.639828" y="640.3185" style="stroke: #000000; stroke-width: 0.8"/>
      </g>
     </g>
     <g id="text_6">
      <!-- 10 -->
      <g transform="translate(656.957015 665.559125) scale(0.3 -0.3)">
       <defs>
        <path id="LiberationSans-31" d="M 488 0 
L 488 478 
L 1609 478 
L 1609 3866 
L 616 3156 
L 616 3688 
L 1656 4403 
L 2175 4403 
L 2175 478 
L 3247 478 
L 3247 0 
L 488 0 
z
" transform="scale(0.015625)"/>
       </defs>
       <use xlink:href="#LiberationSans-31"/>
       <use xlink:href="#LiberationSans-30" x="55.615234"/>
      </g>
     </g>
    </g>
    <g id="xtick_7">
     <g id="line2d_7">
      <defs>
       <path id="mc4e429f1c1" d="M 0 0 
L 0 -2 
" style="stroke: #000000; stroke-width: 0.6"/>
      </defs>
      <g>
       <use xlink:href="#mc4e429f1c1" x="119.957087" y="640.3185" style="stroke: #000000; stroke-width: 0.6"/>
      </g>
     </g>
    </g>
    <g id="xtick_8">
     <g id="line2d_8">
      <g>
       <use xlink:href="#mc4e429f1c1" x="149.098284" y="640.3185" style="stroke: #000000; stroke-width: 0.6"/>
      </g>
     </g>
    </g>
    <g id="xtick_9">
     <g id="line2d_9">
      <g>
       <use xlink:href="#mc4e429f1c1" x="178.23948" y="640.3185" style="stroke: #000000; stroke-width: 0.6"/>
      </g>
     </g>
    </g>
    <g id="xtick_10">
     <g id="line2d_10">
      <g>
       <use xlink:href="#mc4e429f1c1" x="236.521874" y="640.3185" style="stroke: #000000; stroke-width: 0.6"/>
      </g>
     </g>
    </g>
    <g id="xtick_11">
     <g id="line2d_11">
      <g>
       <use xlink:href="#mc4e429f1c1" x="265.663071" y="640.3185" style="stroke: #000000; stroke-width: 0.6"/>
      </g>
     </g>
    </g>
    <g id="xtick_12">
     <g id="line2d_12">
      <g>
       <use xlink:href="#mc4e429f1c1" x="294.804268" y="640.3185" style="stroke: #000000; stroke-width: 0.6"/>
      </g>
     </g>
    </g>
    <g id="xtick_13">
     <g id="line2d_13">
      <g>
       <use xlink:href="#mc4e429f1c1" x="353.086662" y="640.3185" style="stroke: #000000; stroke-width: 0.6"/>
      </g>
     </g>
    </g>
    <g id="xtick_14">
     <g id="line2d_14">
      <g>
       <use xlink:href="#mc4e429f1c1" x="382.227859" y="640.3185" style="stroke: #000000; stroke-width: 0.6"/>
      </g>
     </g>
    </g>
    <g id="xtick_15">
     <g id="line2d_15">
      <g>
       <use xlink:href="#mc4e429f1c1" x="411.369056" y="640.3185" style="stroke: #000000; stroke-width: 0.6"/>
      </g>
     </g>
    </g>
    <g id="xtick_16">
     <g id="line2d_16">
      <g>
       <use xlink:href="#mc4e429f1c1" x="469.65145" y="640.3185" style="stroke: #000000; stroke-width: 0.6"/>
      </g>
     </g>
    </g>
    <g id="xtick_17">
     <g id="line2d_17">
      <g>
       <use xlink:href="#mc4e429f1c1" x="498.792646" y="640.3185" style="stroke: #000000; stroke-width: 0.6"/>
      </g>
     </g>
    </g>
    <g id="xtick_18">
     <g id="line2d_18">
      <g>
       <use xlink:href="#mc4e429f1c1" x="527.933843" y="640.3185" style="stroke: #000000; stroke-width: 0.6"/>
      </g>
     </g>
    </g>
    <g id="xtick_19">
     <g id="line2d_19">
      <g>
       <use xlink:href="#mc4e429f1c1" x="586.216237" y="640.3185" style="stroke: #000000; stroke-width: 0.6"/>
      </g>
     </g>
    </g>
    <g id="xtick_20">
     <g id="line2d_20">
      <g>
       <use xlink:href="#mc4e429f1c1" x="615.357434" y="640.3185" style="stroke: #000000; stroke-width: 0.6"/>
      </g>
     </g>
    </g>
    <g id="xtick_21">
     <g id="line2d_21">
      <g>
       <use xlink:href="#mc4e429f1c1" x="644.498631" y="640.3185" style="stroke: #000000; stroke-width: 0.6"/>
      </g>
     </g>
    </g>
    <g id="text_7">
     <!-- Time ps -->
     <g transform="translate(329.480438 697.52475) scale(0.3 -0.3)">
      <defs>
       <path id="LiberationSans-54" d="M 2250 3916 
L 2250 0 
L 1656 0 
L 1656 3916 
L 144 3916 
L 144 4403 
L 3763 4403 
L 3763 3916 
L 2250 3916 
z
" transform="scale(0.015625)"/>
       <path id="LiberationSans-69" d="M 428 4100 
L 428 4638 
L 991 4638 
L 991 4100 
L 428 4100 
z
M 428 0 
L 428 3381 
L 991 3381 
L 991 0 
L 428 0 
z
" transform="scale(0.015625)"/>
       <path id="LiberationSans-6d" d="M 2400 0 
L 2400 2144 
Q 2400 2634 2265 2821 
Q 2131 3009 1781 3009 
Q 1422 3009 1212 2734 
Q 1003 2459 1003 1959 
L 1003 0 
L 444 0 
L 444 2659 
Q 444 3250 425 3381 
L 956 3381 
Q 959 3366 962 3297 
Q 966 3228 970 3139 
Q 975 3050 981 2803 
L 991 2803 
Q 1172 3163 1406 3303 
Q 1641 3444 1978 3444 
Q 2363 3444 2586 3291 
Q 2809 3138 2897 2803 
L 2906 2803 
Q 3081 3144 3329 3294 
Q 3578 3444 3931 3444 
Q 4444 3444 4676 3166 
Q 4909 2888 4909 2253 
L 4909 0 
L 4353 0 
L 4353 2144 
Q 4353 2634 4218 2821 
Q 4084 3009 3734 3009 
Q 3366 3009 3161 2736 
Q 2956 2463 2956 1959 
L 2956 0 
L 2400 0 
z
" transform="scale(0.015625)"/>
       <path id="LiberationSans-65" d="M 863 1572 
Q 863 991 1103 675 
Q 1344 359 1806 359 
Q 2172 359 2392 506 
Q 2613 653 2691 878 
L 3184 738 
Q 2881 -63 1806 -63 
Q 1056 -63 664 384 
Q 272 831 272 1713 
Q 272 2550 664 2997 
Q 1056 3444 1784 3444 
Q 3275 3444 3275 1647 
L 3275 1572 
L 863 1572 
z
M 2694 2003 
Q 2647 2538 2422 2783 
Q 2197 3028 1775 3028 
Q 1366 3028 1127 2754 
Q 888 2481 869 2003 
L 2694 2003 
z
" transform="scale(0.015625)"/>
       <path id="LiberationSans-20" transform="scale(0.015625)"/>
       <path id="LiberationSans-70" d="M 3291 1706 
Q 3291 -63 2047 -63 
Q 1266 -63 997 525 
L 981 525 
Q 994 500 994 -6 
L 994 -1328 
L 431 -1328 
L 431 2691 
Q 431 3213 413 3381 
L 956 3381 
Q 959 3369 965 3292 
Q 972 3216 980 3056 
Q 988 2897 988 2838 
L 1000 2838 
Q 1150 3150 1397 3295 
Q 1644 3441 2047 3441 
Q 2672 3441 2981 3022 
Q 3291 2603 3291 1706 
z
M 2700 1694 
Q 2700 2400 2509 2703 
Q 2319 3006 1903 3006 
Q 1569 3006 1380 2865 
Q 1191 2725 1092 2426 
Q 994 2128 994 1650 
Q 994 984 1206 668 
Q 1419 353 1897 353 
Q 2316 353 2508 661 
Q 2700 969 2700 1694 
z
" transform="scale(0.015625)"/>
       <path id="LiberationSans-73" d="M 2969 934 
Q 2969 456 2608 196 
Q 2247 -63 1597 -63 
Q 966 -63 623 145 
Q 281 353 178 794 
L 675 891 
Q 747 619 972 492 
Q 1197 366 1597 366 
Q 2025 366 2223 497 
Q 2422 628 2422 891 
Q 2422 1091 2284 1216 
Q 2147 1341 1841 1422 
L 1438 1528 
Q 953 1653 748 1773 
Q 544 1894 428 2066 
Q 313 2238 313 2488 
Q 313 2950 642 3192 
Q 972 3434 1603 3434 
Q 2163 3434 2492 3237 
Q 2822 3041 2909 2606 
L 2403 2544 
Q 2356 2769 2151 2889 
Q 1947 3009 1603 3009 
Q 1222 3009 1040 2893 
Q 859 2778 859 2544 
Q 859 2400 934 2306 
Q 1009 2213 1156 2147 
Q 1303 2081 1775 1966 
Q 2222 1853 2419 1758 
Q 2616 1663 2730 1547 
Q 2844 1431 2906 1279 
Q 2969 1128 2969 934 
z
" transform="scale(0.015625)"/>
      </defs>
      <use xlink:href="#LiberationSans-54"/>
      <use xlink:href="#LiberationSans-69" x="57.333984"/>
      <use xlink:href="#LiberationSans-6d" x="79.550781"/>
      <use xlink:href="#LiberationSans-65" x="162.851562"/>
      <use xlink:href="#LiberationSans-20" x="218.466797"/>
      <use xlink:href="#LiberationSans-70" x="246.25"/>
      <use xlink:href="#LiberationSans-73" x="301.865234"/>
     </g>
    </g>
   </g>
   <g id="matplotlib.axis_2">
    <g id="ytick_1">
     <g id="line2d_22">
      <defs>
       <path id="m8799224122" d="M 0 0 
L 3.5 0 
" style="stroke: #000000; stroke-width: 0.8"/>
      </defs>
      <g>
       <use xlink:href="#m8799224122" x="61.8" y="630.413483" style="stroke: #000000; stroke-width: 0.8"/>
      </g>
     </g>
     <g id="text_8">
      <!-- $\mathdefault{0}$ -->
      <g transform="translate(41.5 641.283795) scale(0.3 -0.3)">
       <use xlink:href="#LiberationSans-30" transform="translate(0 0.171875)"/>
      </g>
     </g>
    </g>
    <g id="ytick_2">
     <g id="line2d_23">
      <g>
       <use xlink:href="#m8799224122" x="61.8" y="545.231263" style="stroke: #000000; stroke-width: 0.8"/>
      </g>
     </g>
     <g id="text_9">
      <!-- $\mathdefault{1}$ -->
      <g transform="translate(41.5 556.101575) scale(0.3 -0.3)">
       <use xlink:href="#LiberationSans-31" transform="translate(0 0.203125)"/>
      </g>
     </g>
    </g>
    <g id="ytick_3">
     <g id="line2d_24">
      <g>
       <use xlink:href="#m8799224122" x="61.8" y="460.049043" style="stroke: #000000; stroke-width: 0.8"/>
      </g>
     </g>
     <g id="text_10">
      <!-- $\mathdefault{2}$ -->
      <g transform="translate(41.5 470.919355) scale(0.3 -0.3)">
       <use xlink:href="#LiberationSans-32" transform="translate(0 0.171875)"/>
      </g>
     </g>
    </g>
    <g id="ytick_4">
     <g id="line2d_25">
      <g>
       <use xlink:href="#m8799224122" x="61.8" y="374.866823" style="stroke: #000000; stroke-width: 0.8"/>
      </g>
     </g>
     <g id="text_11">
      <!-- $\mathdefault{3}$ -->
      <g transform="translate(41.5 385.737135) scale(0.3 -0.3)">
       <defs>
        <path id="LiberationSans-33" d="M 3278 1216 
Q 3278 606 2890 271 
Q 2503 -63 1784 -63 
Q 1116 -63 717 239 
Q 319 541 244 1131 
L 825 1184 
Q 938 403 1784 403 
Q 2209 403 2451 612 
Q 2694 822 2694 1234 
Q 2694 1594 2417 1795 
Q 2141 1997 1619 1997 
L 1300 1997 
L 1300 2484 
L 1606 2484 
Q 2069 2484 2323 2686 
Q 2578 2888 2578 3244 
Q 2578 3597 2370 3801 
Q 2163 4006 1753 4006 
Q 1381 4006 1151 3815 
Q 922 3625 884 3278 
L 319 3322 
Q 381 3863 767 4166 
Q 1153 4469 1759 4469 
Q 2422 4469 2789 4161 
Q 3156 3853 3156 3303 
Q 3156 2881 2920 2617 
Q 2684 2353 2234 2259 
L 2234 2247 
Q 2728 2194 3003 1916 
Q 3278 1638 3278 1216 
z
" transform="scale(0.015625)"/>
       </defs>
       <use xlink:href="#LiberationSans-33" transform="translate(0 0.171875)"/>
      </g>
     </g>
    </g>
    <g id="ytick_5">
     <g id="line2d_26">
      <g>
       <use xlink:href="#m8799224122" x="61.8" y="289.684603" style="stroke: #000000; stroke-width: 0.8"/>
      </g>
     </g>
     <g id="text_12">
      <!-- $\mathdefault{4}$ -->
      <g transform="translate(41.5 300.554915) scale(0.3 -0.3)">
       <use xlink:href="#LiberationSans-34" transform="translate(0 0.203125)"/>
      </g>
     </g>
    </g>
    <g id="ytick_6">
     <g id="line2d_27">
      <g>
       <use xlink:href="#m8799224122" x="61.8" y="204.502383" style="stroke: #000000; stroke-width: 0.8"/>
      </g>
     </g>
     <g id="text_13">
      <!-- $\mathdefault{5}$ -->
      <g transform="translate(41.5 215.372695) scale(0.3 -0.3)">
       <defs>
        <path id="LiberationSans-35" d="M 3291 1434 
Q 3291 738 2877 337 
Q 2463 -63 1728 -63 
Q 1113 -63 734 206 
Q 356 475 256 984 
L 825 1050 
Q 1003 397 1741 397 
Q 2194 397 2450 670 
Q 2706 944 2706 1422 
Q 2706 1838 2448 2094 
Q 2191 2350 1753 2350 
Q 1525 2350 1328 2278 
Q 1131 2206 934 2034 
L 384 2034 
L 531 4403 
L 3034 4403 
L 3034 3925 
L 1044 3925 
L 959 2528 
Q 1325 2809 1869 2809 
Q 2519 2809 2905 2428 
Q 3291 2047 3291 1434 
z
" transform="scale(0.015625)"/>
       </defs>
       <use xlink:href="#LiberationSans-35" transform="translate(0 0.203125)"/>
      </g>
     </g>
    </g>
    <g id="ytick_7">
     <g id="line2d_28">
      <g>
       <use xlink:href="#m8799224122" x="61.8" y="119.320163" style="stroke: #000000; stroke-width: 0.8"/>
      </g>
     </g>
     <g id="text_14">
      <!-- $\mathdefault{6}$ -->
      <g transform="translate(41.5 130.190475) scale(0.3 -0.3)">
       <use xlink:href="#LiberationSans-36" transform="translate(0 0.171875)"/>
      </g>
     </g>
    </g>
    <g id="ytick_8">
     <g id="line2d_29">
      <defs>
       <path id="m1c4b5d8c81" d="M 0 0 
L 2 0 
" style="stroke: #000000; stroke-width: 0.6"/>
      </defs>
      <g>
       <use xlink:href="#m1c4b5d8c81" x="61.8" y="613.377039" style="stroke: #000000; stroke-width: 0.6"/>
      </g>
     </g>
    </g>
    <g id="ytick_9">
     <g id="line2d_30">
      <g>
       <use xlink:href="#m1c4b5d8c81" x="61.8" y="596.340595" style="stroke: #000000; stroke-width: 0.6"/>
      </g>
     </g>
    </g>
    <g id="ytick_10">
     <g id="line2d_31">
      <g>
       <use xlink:href="#m1c4b5d8c81" x="61.8" y="579.304151" style="stroke: #000000; stroke-width: 0.6"/>
      </g>
     </g>
    </g>
    <g id="ytick_11">
     <g id="line2d_32">
      <g>
       <use xlink:href="#m1c4b5d8c81" x="61.8" y="562.267707" style="stroke: #000000; stroke-width: 0.6"/>
      </g>
     </g>
    </g>
    <g id="ytick_12">
     <g id="line2d_33">
      <g>
       <use xlink:href="#m1c4b5d8c81" x="61.8" y="528.194819" style="stroke: #000000; stroke-width: 0.6"/>
      </g>
     </g>
    </g>
    <g id="ytick_13">
     <g id="line2d_34">
      <g>
       <use xlink:href="#m1c4b5d8c81" x="61.8" y="511.158375" style="stroke: #000000; stroke-width: 0.6"/>
      </g>
     </g>
    </g>
    <g id="ytick_14">
     <g id="line2d_35">
      <g>
       <use xlink:href="#m1c4b5d8c81" x="61.8" y="494.121931" style="stroke: #000000; stroke-width: 0.6"/>
      </g>
     </g>
    </g>
    <g id="ytick_15">
     <g id="line2d_36">
      <g>
       <use xlink:href="#m1c4b5d8c81" x="61.8" y="477.085487" style="stroke: #000000; stroke-width: 0.6"/>
      </g>
     </g>
    </g>
    <g id="ytick_16">
     <g id="line2d_37">
      <g>
       <use xlink:href="#m1c4b5d8c81" x="61.8" y="443.012599" style="stroke: #000000; stroke-width: 0.6"/>
      </g>
     </g>
    </g>
    <g id="ytick_17">
     <g id="line2d_38">
      <g>
       <use xlink:href="#m1c4b5d8c81" x="61.8" y="425.976155" style="stroke: #000000; stroke-width: 0.6"/>
      </g>
     </g>
    </g>
    <g id="ytick_18">
     <g id="line2d_39">
      <g>
       <use xlink:href="#m1c4b5d8c81" x="61.8" y="408.939711" style="stroke: #000000; stroke-width: 0.6"/>
      </g>
     </g>
    </g>
    <g id="ytick_19">
     <g id="line2d_40">
      <g>
       <use xlink:href="#m1c4b5d8c81" x="61.8" y="391.903267" style="stroke: #000000; stroke-width: 0.6"/>
      </g>
     </g>
    </g>
    <g id="ytick_20">
     <g id="line2d_41">
      <g>
       <use xlink:href="#m1c4b5d8c81" x="61.8" y="357.830379" style="stroke: #000000; stroke-width: 0.6"/>
      </g>
     </g>
    </g>
    <g id="ytick_21">
     <g id="line2d_42">
      <g>
       <use xlink:href="#m1c4b5d8c81" x="61.8" y="340.793935" style="stroke: #000000; stroke-width: 0.6"/>
      </g>
     </g>
    </g>
    <g id="ytick_22">
     <g id="line2d_43">
      <g>
       <use xlink:href="#m1c4b5d8c81" x="61.8" y="323.757491" style="stroke: #000000; stroke-width: 0.6"/>
      </g>
     </g>
    </g>
    <g id="ytick_23">
     <g id="line2d_44">
      <g>
       <use xlink:href="#m1c4b5d8c81" x="61.8" y="306.721047" style="stroke: #000000; stroke-width: 0.6"/>
      </g>
     </g>
    </g>
    <g id="ytick_24">
     <g id="line2d_45">
      <g>
       <use xlink:href="#m1c4b5d8c81" x="61.8" y="272.648159" style="stroke: #000000; stroke-width: 0.6"/>
      </g>
     </g>
    </g>
    <g id="ytick_25">
     <g id="line2d_46">
      <g>
       <use xlink:href="#m1c4b5d8c81" x="61.8" y="255.611715" style="stroke: #000000; stroke-width: 0.6"/>
      </g>
     </g>
    </g>
    <g id="ytick_26">
     <g id="line2d_47">
      <g>
       <use xlink:href="#m1c4b5d8c81" x="61.8" y="238.575271" style="stroke: #000000; stroke-width: 0.6"/>
      </g>
     </g>
    </g>
    <g id="ytick_27">
     <g id="line2d_48">
      <g>
       <use xlink:href="#m1c4b5d8c81" x="61.8" y="221.538827" style="stroke: #000000; stroke-width: 0.6"/>
      </g>
     </g>
    </g>
    <g id="ytick_28">
     <g id="line2d_49">
      <g>
       <use xlink:href="#m1c4b5d8c81" x="61.8" y="187.465939" style="stroke: #000000; stroke-width: 0.6"/>
      </g>
     </g>
    </g>
    <g id="ytick_29">
     <g id="line2d_50">
      <g>
       <use xlink:href="#m1c4b5d8c81" x="61.8" y="170.429495" style="stroke: #000000; stroke-width: 0.6"/>
      </g>
     </g>
    </g>
    <g id="ytick_30">
     <g id="line2d_51">
      <g>
       <use xlink:href="#m1c4b5d8c81" x="61.8" y="153.393051" style="stroke: #000000; stroke-width: 0.6"/>
      </g>
     </g>
    </g>
    <g id="ytick_31">
     <g id="line2d_52">
      <g>
       <use xlink:href="#m1c4b5d8c81" x="61.8" y="136.356607" style="stroke: #000000; stroke-width: 0.6"/>
      </g>
     </g>
    </g>
    <g id="ytick_32">
     <g id="line2d_53">
      <g>
       <use xlink:href="#m1c4b5d8c81" x="61.8" y="102.283719" style="stroke: #000000; stroke-width: 0.6"/>
      </g>
     </g>
    </g>
    <g id="ytick_33">
     <g id="line2d_54">
      <g>
       <use xlink:href="#m1c4b5d8c81" x="61.8" y="85.247275" style="stroke: #000000; stroke-width: 0.6"/>
      </g>
     </g>
    </g>
    <g id="ytick_34">
     <g id="line2d_55">
      <g>
       <use xlink:href="#m1c4b5d8c81" x="61.8" y="68.210831" style="stroke: #000000; stroke-width: 0.6"/>
      </g>
     </g>
    </g>
    <g id="ytick_35">
     <g id="line2d_56">
      <g>
       <use xlink:href="#m1c4b5d8c81" x="61.8" y="51.174387" style="stroke: #000000; stroke-width: 0.6"/>
      </g>
     </g>
    </g>
    <g id="text_15">
     <!-- ITC $\mathrm{W} / (\mathrm{K} \cdot \mathrm{m}^2)$ -->
     <g transform="translate(31.275 433.803) rotate(-90) scale(0.3 -0.3)">
      <defs>
       <path id="LiberationSans-49" d="M 591 0 
L 591 4403 
L 1188 4403 
L 1188 0 
L 591 0 
z
" transform="scale(0.015625)"/>
       <path id="LiberationSans-43" d="M 2475 3981 
Q 1744 3981 1337 3511 
Q 931 3041 931 2222 
Q 931 1413 1354 920 
Q 1778 428 2500 428 
Q 3425 428 3891 1344 
L 4378 1100 
Q 4106 531 3614 234 
Q 3122 -63 2472 -63 
Q 1806 -63 1320 214 
Q 834 491 579 1005 
Q 325 1519 325 2222 
Q 325 3275 894 3872 
Q 1463 4469 2469 4469 
Q 3172 4469 3644 4194 
Q 4116 3919 4338 3378 
L 3772 3191 
Q 3619 3575 3280 3778 
Q 2941 3981 2475 3981 
z
" transform="scale(0.015625)"/>
       <path id="STIXGeneral-Regular-57" d="M 5965 4237 
L 5965 4115 
Q 5709 4064 5616 3990 
Q 5523 3917 5434 3667 
Q 4704 1709 4128 -70 
L 4032 -70 
Q 3642 1011 3008 2637 
L 2022 -70 
L 1926 -70 
Q 1709 576 1277 1753 
Q 845 2931 698 3347 
Q 538 3808 406 3958 
Q 275 4109 32 4115 
L 32 4237 
L 1594 4237 
L 1594 4115 
Q 1357 4109 1270 4064 
Q 1184 4019 1184 3917 
Q 1184 3808 1254 3616 
L 2176 1210 
L 2842 3021 
L 2662 3501 
Q 2509 3917 2400 4013 
Q 2291 4109 2010 4115 
L 2010 4237 
L 3706 4237 
L 3706 4115 
Q 3213 4102 3213 3891 
Q 3213 3808 3322 3520 
L 4237 1190 
L 5043 3360 
Q 5152 3667 5152 3853 
Q 5152 4109 4704 4115 
L 4704 4237 
L 5965 4237 
z
" transform="scale(0.015625)"/>
       <path id="STIXGeneral-Regular-2f" d="M 1837 4326 
L 378 -90 
L -58 -90 
L 1408 4326 
L 1837 4326 
z
" transform="scale(0.015625)"/>
       <path id="STIXGeneral-Regular-28" d="M 1946 -1030 
L 1869 -1133 
Q 1126 -710 716 32 
Q 307 774 307 1613 
Q 307 3386 1888 4326 
L 1946 4224 
Q 1293 3667 1075 3126 
Q 858 2586 858 1632 
Q 858 685 1082 96 
Q 1306 -493 1946 -1030 
z
" transform="scale(0.015625)"/>
       <path id="STIXGeneral-Regular-4b" d="M 4627 0 
L 2688 0 
L 2688 122 
L 2861 128 
Q 3130 134 3130 282 
Q 3130 397 2922 643 
Q 2714 890 2253 1370 
L 1613 2029 
L 1446 1894 
L 1446 710 
Q 1446 352 1548 253 
Q 1651 154 2016 122 
L 2016 0 
L 211 0 
L 211 122 
Q 589 141 691 262 
Q 794 384 794 800 
L 794 3514 
Q 794 3872 691 3981 
Q 589 4090 218 4115 
L 218 4237 
L 2022 4237 
L 2022 4115 
Q 1632 4090 1539 3987 
Q 1446 3885 1446 3507 
L 1446 2227 
L 2586 3277 
Q 2861 3533 2973 3667 
Q 3085 3802 3085 3910 
Q 3085 4013 3030 4057 
Q 2976 4102 2822 4109 
L 2662 4115 
L 2662 4237 
L 4320 4237 
L 4320 4115 
Q 3994 4090 3824 4003 
Q 3654 3917 3322 3597 
L 2131 2458 
L 3629 819 
Q 4026 384 4214 253 
Q 4403 122 4627 122 
L 4627 0 
z
" transform="scale(0.015625)"/>
       <path id="STIXGeneral-Regular-22c5" d="M 1187 1888 
Q 1299 1773 1299 1619 
Q 1299 1466 1187 1350 
Q 1075 1235 921 1235 
Q 768 1235 649 1353 
Q 531 1472 531 1619 
Q 531 1766 649 1884 
Q 768 2003 921 2003 
Q 1075 2003 1187 1888 
z
" transform="scale(0.015625)"/>
       <path id="STIXGeneral-Regular-6d" d="M 4960 0 
L 3565 0 
L 3565 96 
Q 3834 122 3907 208 
Q 3981 294 3981 576 
L 3981 1894 
Q 3981 2278 3869 2444 
Q 3757 2611 3488 2611 
Q 3264 2611 3107 2521 
Q 2950 2432 2803 2221 
L 2803 608 
Q 2803 301 2896 201 
Q 2989 102 3264 96 
L 3264 0 
L 1830 0 
L 1830 96 
Q 2112 115 2189 188 
Q 2266 262 2266 550 
L 2266 1901 
Q 2266 2611 1850 2611 
Q 1670 2611 1468 2531 
Q 1267 2451 1171 2336 
Q 1088 2240 1088 2227 
L 1088 448 
Q 1088 243 1177 176 
Q 1267 109 1523 96 
L 1523 0 
L 102 0 
L 102 96 
Q 371 102 460 195 
Q 550 288 550 563 
L 550 2150 
Q 550 2387 499 2480 
Q 448 2573 326 2573 
Q 230 2573 122 2547 
L 122 2656 
Q 557 2778 1011 2944 
L 1062 2925 
L 1062 2451 
L 1075 2451 
Q 1363 2752 1584 2848 
Q 1805 2944 2054 2944 
Q 2560 2944 2733 2406 
Q 3232 2944 3776 2944 
Q 4518 2944 4518 1792 
L 4518 493 
Q 4518 282 4582 202 
Q 4646 122 4794 109 
L 4960 96 
L 4960 0 
z
" transform="scale(0.015625)"/>
       <path id="STIXGeneral-Regular-32" d="M 3034 877 
L 2688 0 
L 186 0 
L 186 77 
L 1325 1286 
Q 1773 1754 1965 2144 
Q 2157 2534 2157 2950 
Q 2157 3379 1920 3616 
Q 1683 3853 1267 3853 
Q 922 3853 720 3673 
Q 518 3494 326 3021 
L 192 3053 
Q 301 3648 630 3987 
Q 960 4326 1523 4326 
Q 2054 4326 2380 4006 
Q 2707 3686 2707 3200 
Q 2707 2477 1888 1613 
L 832 486 
L 2330 486 
Q 2541 486 2665 569 
Q 2790 653 2944 915 
L 3034 877 
z
" transform="scale(0.015625)"/>
       <path id="STIXGeneral-Regular-29" d="M 186 4224 
L 262 4326 
Q 992 3891 1408 3148 
Q 1824 2406 1824 1581 
Q 1824 -166 243 -1133 
L 186 -1030 
Q 845 -486 1059 54 
Q 1274 595 1274 1562 
Q 1274 2534 1059 3120 
Q 845 3706 186 4224 
z
" transform="scale(0.015625)"/>
      </defs>
      <use xlink:href="#LiberationSans-49" transform="translate(0 0.409375)"/>
      <use xlink:href="#LiberationSans-54" transform="translate(27.783203 0.409375)"/>
      <use xlink:href="#LiberationSans-43" transform="translate(88.867188 0.409375)"/>
      <use xlink:href="#LiberationSans-20" transform="translate(161.083984 0.409375)"/>
      <use xlink:href="#STIXGeneral-Regular-57" transform="translate(188.867188 0.409375)"/>
      <use xlink:href="#STIXGeneral-Regular-2f" transform="translate(283.267181 0.409375)"/>
      <use xlink:href="#STIXGeneral-Regular-28" transform="translate(311.067169 0.409375)"/>
      <use xlink:href="#STIXGeneral-Regular-4b" transform="translate(344.367157 0.409375)"/>
      <use xlink:href="#STIXGeneral-Regular-22c5" transform="translate(431.007135 0.409375)"/>
      <use xlink:href="#STIXGeneral-Regular-6d" transform="translate(474.047122 0.409375)"/>
      <use xlink:href="#STIXGeneral-Regular-32" transform="translate(553.390391 35.684375) scale(0.7)"/>
      <use xlink:href="#STIXGeneral-Regular-29" transform="translate(592.799756 0.409375)"/>
     </g>
    </g>
    <g id="text_16">
     <!-- $\times\mathdefault{10^{7}}\mathdefault{}$ -->
     <g transform="translate(61.8 36.1875) scale(0.4 -0.4)">
      <defs>
       <path id="STIXGeneral-Regular-d7" d="M 3821 141 
L 3526 -160 
L 2048 1312 
L 570 -160 
L 275 134 
L 1747 1613 
L 275 3091 
L 576 3386 
L 2048 1914 
L 3526 3386 
L 3821 3098 
L 2349 1613 
L 3821 141 
z
" transform="scale(0.015625)"/>
       <path id="LiberationSans-37" d="M 3238 3947 
Q 2563 2916 2284 2331 
Q 2006 1747 1867 1178 
Q 1728 609 1728 0 
L 1141 0 
Q 1141 844 1498 1776 
Q 1856 2709 2694 3925 
L 328 3925 
L 328 4403 
L 3238 4403 
L 3238 3947 
z
" transform="scale(0.015625)"/>
      </defs>
      <use xlink:href="#STIXGeneral-Regular-d7" transform="translate(0 0.8625)"/>
      <use xlink:href="#LiberationSans-31" transform="translate(63.999985 0.8625)"/>
      <use xlink:href="#LiberationSans-30" transform="translate(119.615219 0.8625)"/>
      <use xlink:href="#LiberationSans-37" transform="translate(176.154946 37.842188) scale(0.7)"/>
     </g>
    </g>
   </g>
   <g id="line2d_57">
    <path d="M 90.932455 612.994364 
L 92.156385 279.605988 
L 92.797491 158.464921 
L 93.322033 97.05011 
L 93.730009 72.671625 
L 94.021421 66.67493 
L 94.079704 66.511636 
L 94.137986 66.671504 
L 94.312833 68.987463 
L 94.545963 75.958512 
L 94.95394 96.813463 
L 95.595046 143.668846 
L 97.226953 266.652185 
L 97.926342 302.352278 
L 98.567448 325.224637 
L 99.266837 342.448795 
L 100.08279 356.752974 
L 101.073591 370.20775 
L 101.947827 379.387813 
L 102.588933 383.970036 
L 103.055192 385.947209 
L 103.404887 386.681825 
L 103.696299 386.846016 
L 103.929428 386.721275 
L 104.279123 386.188278 
L 104.803664 384.881584 
L 105.852747 382.200673 
L 106.260724 381.689433 
L 106.552136 381.619758 
L 106.843548 381.821619 
L 107.193242 382.431358 
L 107.601219 383.633669 
L 108.184043 386.165798 
L 108.999997 390.926263 
L 110.340492 400.347765 
L 116.401861 444.252146 
L 117.042967 447.05564 
L 117.509226 448.212071 
L 117.800638 448.447817 
L 118.033768 448.324013 
L 118.266897 447.896052 
L 118.616592 446.639283 
L 119.024568 444.185477 
L 119.54911 439.44752 
L 120.248499 430.652232 
L 122.696359 396.808673 
L 123.162618 394.040157 
L 123.45403 393.332227 
L 123.628877 393.289134 
L 123.803725 393.525605 
L 124.036854 394.256771 
L 124.386549 396.165683 
L 124.91109 400.498627 
L 126.018456 412.266526 
L 126.892692 420.444652 
L 127.533798 424.585064 
L 128.116622 427.016944 
L 128.816011 428.917368 
L 129.748529 431.395327 
L 130.389635 433.854461 
L 131.497001 439.293041 
L 132.196389 442.184551 
L 132.604366 443.11706 
L 132.895778 443.306248 
L 133.128908 443.135007 
L 133.42032 442.497898 
L 133.770014 441.115185 
L 134.236273 438.311346 
L 134.993944 432.079514 
L 136.392722 420.386805 
L 136.917263 417.641819 
L 137.32524 416.45254 
L 137.616652 416.121728 
L 137.849782 416.153782 
L 138.082911 416.429278 
L 138.432605 417.243512 
L 138.957147 419.164738 
L 139.889665 423.646856 
L 141.579855 431.63424 
L 144.552257 444.080458 
L 145.135081 445.619936 
L 145.543058 446.211046 
L 145.83447 446.351848 
L 146.125881 446.248902 
L 146.475576 445.808962 
L 146.883553 444.893365 
L 147.466377 442.97803 
L 148.632024 438.119918 
L 149.73939 433.912046 
L 150.555343 431.651704 
L 151.254732 430.303687 
L 151.895838 429.523646 
L 152.362098 429.258994 
L 152.770074 429.281748 
L 153.119769 429.528345 
L 153.527745 430.125996 
L 153.994005 431.269437 
L 154.518546 433.177669 
L 155.217935 436.667973 
L 157.78236 450.618513 
L 158.248619 451.714678 
L 158.598314 452.078644 
L 158.889726 452.09538 
L 159.181138 451.876417 
L 159.589114 451.237933 
L 160.230221 449.702399 
L 162.036975 445.078099 
L 163.027776 443.341982 
L 164.193424 441.274409 
L 165.184224 438.95874 
L 166.349872 436.296477 
L 166.874414 435.630352 
L 167.224108 435.507132 
L 167.51552 435.633108 
L 167.865214 436.074504 
L 168.273191 436.985679 
L 168.856015 438.942318 
L 169.788533 443.073789 
L 171.012464 448.302388 
L 171.65357 450.160456 
L 172.178112 451.076223 
L 172.586088 451.424575 
L 172.994065 451.49323 
L 173.402042 451.330601 
L 173.926583 450.863386 
L 174.684254 449.848308 
L 175.79162 447.94864 
L 178.23948 443.588321 
L 178.70574 443.215769 
L 179.113716 443.157979 
L 179.463411 443.33642 
L 179.871387 443.824764 
L 180.395929 444.882193 
L 181.095318 446.912581 
L 183.892873 455.799088 
L 184.941956 457.884201 
L 188.147487 463.510459 
L 188.555464 463.658004 
L 188.905159 463.518921 
L 189.254853 463.110832 
L 189.721112 462.141703 
L 190.303936 460.309945 
L 191.178172 456.695867 
L 192.576949 450.955548 
L 193.276338 448.999275 
L 193.859162 447.999801 
L 194.383704 447.544452 
L 194.849963 447.416985 
L 195.432787 447.504872 
L 196.307023 447.89622 
L 197.589235 448.714618 
L 198.463471 449.535202 
L 199.395989 450.757968 
L 201.727285 454.040639 
L 202.543239 454.695183 
L 204.932817 456.322885 
L 205.923618 457.532897 
L 207.322395 459.212938 
L 208.080066 459.762549 
L 208.837737 460.028795 
L 210.527927 460.489853 
L 211.34388 461.049343 
L 212.80094 462.122616 
L 213.267199 462.180305 
L 213.675176 462.012118 
L 214.083153 461.609141 
L 214.607694 460.739348 
L 215.307083 459.05535 
L 217.580096 453.106728 
L 218.16292 452.328204 
L 218.687462 451.980106 
L 219.212003 451.903958 
L 219.85311 452.050735 
L 221.310169 452.692877 
L 222.242688 453.255267 
L 222.883794 453.907618 
L 223.466618 454.823064 
L 224.107724 456.256109 
L 224.923678 458.674676 
L 227.138409 465.638839 
L 227.779515 466.795483 
L 228.245774 467.253198 
L 228.653751 467.397357 
L 229.061728 467.328674 
L 229.586269 466.98704 
L 230.285658 466.231369 
L 231.917565 464.015097 
L 235.064814 459.8604 
L 235.764203 459.29233 
L 236.288745 459.11012 
L 236.755004 459.161658 
L 237.221263 459.427343 
L 237.804087 460.050542 
L 238.503476 461.15775 
L 239.727406 463.617841 
L 241.067901 466.186205 
L 241.825572 467.220766 
L 242.408396 467.700124 
L 242.932938 467.851389 
L 243.399197 467.742117 
L 243.865456 467.396158 
L 244.44828 466.642422 
L 245.147669 465.335768 
L 246.546446 462.088941 
L 247.537247 460.093251 
L 248.178353 459.233708 
L 248.761177 458.805518 
L 249.285719 458.689057 
L 249.868542 458.795316 
L 250.742778 459.22144 
L 253.365486 460.84197 
L 254.064875 461.613686 
L 254.764264 462.734695 
L 255.638499 464.592171 
L 257.328689 468.291266 
L 257.969795 469.129014 
L 258.436054 469.416293 
L 258.844031 469.440344 
L 259.31029 469.233648 
L 259.893114 468.705414 
L 262.399257 466.096603 
L 263.273493 465.727519 
L 265.021965 465.078743 
L 266.479025 464.147318 
L 267.353261 463.742222 
L 267.994367 463.694783 
L 268.577191 463.878998 
L 269.218297 464.316993 
L 270.150816 465.258688 
L 272.190699 467.396478 
L 273.1815 468.084588 
L 274.172301 468.504791 
L 275.221384 468.70171 
L 276.445314 468.690479 
L 280.583364 468.243072 
L 281.4576 467.88059 
L 282.448401 467.212214 
L 283.90546 466.225221 
L 284.488284 466.084953 
L 285.012826 466.178851 
L 285.537367 466.504556 
L 286.178474 467.196763 
L 287.110992 468.590721 
L 288.568052 470.742607 
L 289.325723 471.483552 
L 290.083394 471.925495 
L 291.19076 472.268223 
L 292.589537 472.752323 
L 294.512856 473.509453 
L 295.153962 473.474805 
L 295.736786 473.219451 
L 296.436175 472.637054 
L 297.543541 471.345649 
L 298.534341 470.305696 
L 299.175448 469.93742 
L 299.699989 469.886195 
L 300.224531 470.073914 
L 300.807355 470.543699 
L 301.565026 471.482219 
L 302.847238 473.510126 
L 304.420863 475.883155 
L 305.353381 476.916036 
L 306.169335 477.513708 
L 306.927006 477.807539 
L 307.684677 477.87396 
L 308.558913 477.72521 
L 309.666279 477.300189 
L 310.948491 476.574655 
L 312.055857 475.70649 
L 313.163222 474.549126 
L 315.494518 471.978842 
L 316.135624 471.669557 
L 316.660166 471.667026 
L 317.184707 471.911138 
L 317.767531 472.458528 
L 318.525202 473.509102 
L 320.681651 476.710891 
L 321.38104 477.28415 
L 322.022146 477.545842 
L 322.779817 477.608864 
L 324.06203 477.443551 
L 326.393326 476.951948 
L 327.500691 476.43354 
L 329.42401 475.45996 
L 330.065116 475.427349 
L 330.64794 475.638501 
L 331.230764 476.106458 
L 331.930153 476.997754 
L 332.804389 478.518239 
L 335.601944 483.727982 
L 336.301332 484.441119 
L 336.825874 484.695025 
L 337.292133 484.701434 
L 337.758392 484.500617 
L 338.341216 483.977745 
L 339.040605 483.022969 
L 340.3811 480.702978 
L 341.546748 478.888096 
L 342.362701 478.023787 
L 343.06209 477.592496 
L 343.761479 477.421472 
L 344.460868 477.473063 
L 345.218539 477.757097 
L 345.97621 478.294036 
L 346.733881 479.129306 
L 347.549834 480.400885 
L 348.598918 482.524459 
L 350.347389 486.104852 
L 350.988496 486.921404 
L 351.513037 487.243802 
L 351.921014 487.257145 
L 352.328991 487.062825 
L 352.853532 486.53068 
L 353.494639 485.525807 
L 354.543722 483.387649 
L 356.233911 479.966938 
L 357.224712 478.472982 
L 358.040665 477.625675 
L 358.681772 477.239286 
L 359.264596 477.140456 
L 359.789137 477.291265 
L 360.313679 477.696689 
L 360.896503 478.462826 
L 361.595891 479.804027 
L 362.52841 482.141512 
L 364.393446 486.940005 
L 365.092835 488.09781 
L 365.617377 488.57592 
L 366.025353 488.696704 
L 366.43333 488.598279 
L 366.899589 488.232071 
L 367.482413 487.439419 
L 368.240084 485.982513 
L 369.813709 482.301741 
L 370.979357 479.88384 
L 371.737028 478.771409 
L 372.378134 478.20458 
L 372.902676 478.019379 
L 373.368935 478.067931 
L 373.893476 478.354551 
L 374.4763 478.939854 
L 375.175689 479.964487 
L 376.108207 481.752555 
L 377.856679 485.725751 
L 379.255457 488.651673 
L 380.129693 489.990907 
L 380.770799 490.616174 
L 381.295341 490.866093 
L 381.819882 490.866989 
L 382.344424 490.621121 
L 382.927248 490.080842 
L 383.684919 489.035382 
L 384.908849 486.886347 
L 386.599038 484.012273 
L 387.706404 482.578342 
L 388.755487 481.582738 
L 389.629723 481.045525 
L 390.329112 480.872259 
L 390.911935 480.959474 
L 391.436477 481.253662 
L 392.019301 481.840006 
L 392.71869 482.887088 
L 393.767773 484.931029 
L 394.991703 487.218975 
L 395.632809 487.982007 
L 396.099069 488.24295 
L 396.507045 488.245713 
L 396.915022 488.037659 
L 397.439564 487.484832 
L 398.138952 486.350633 
L 399.770859 483.045062 
L 400.703378 481.47634 
L 401.461049 480.603708 
L 402.160437 480.138235 
L 402.801544 479.974698 
L 403.44265 480.032229 
L 404.142039 480.317594 
L 404.957992 480.913721 
L 405.890511 481.890606 
L 408.688066 485.056025 
L 409.329172 485.329279 
L 409.853713 485.329606 
L 410.436537 485.092682 
L 411.077644 484.575848 
L 411.95188 483.56227 
L 414.341458 480.63427 
L 415.157411 480.041018 
L 415.8568 479.794029 
L 416.497906 479.790189 
L 417.197295 480.017832 
L 418.013249 480.538877 
L 419.412026 481.768032 
L 420.810804 482.891578 
L 421.976451 483.534532 
L 425.181983 484.88261 
L 426.056219 485.048835 
L 426.755608 484.965807 
L 427.513279 484.63143 
L 428.562362 483.868887 
L 429.844575 482.980329 
L 430.543963 482.767106 
L 431.126787 482.80681 
L 431.767894 483.083071 
L 432.525565 483.670125 
L 434.274036 485.438178 
L 435.32312 486.287056 
L 436.197355 486.72475 
L 437.071591 486.923548 
L 438.00411 486.910023 
L 438.936628 486.681856 
L 439.927429 486.202546 
L 441.151359 485.333732 
L 443.016396 484.011684 
L 443.948914 483.651129 
L 444.82315 483.551767 
L 445.81395 483.663001 
L 446.979598 484.018387 
L 448.086964 484.582904 
L 449.427459 485.547996 
L 450.826236 486.501633 
L 451.583907 486.75358 
L 452.225014 486.745493 
L 452.924402 486.501081 
L 453.740356 485.960025 
L 455.022569 484.793347 
L 458.636077 481.396034 
L 459.452031 480.95535 
L 460.093137 480.84762 
L 460.675961 480.979625 
L 461.258785 481.350267 
L 461.958174 482.098427 
L 462.832409 483.398492 
L 465.105423 486.966685 
L 465.863094 487.665684 
L 466.5042 487.961076 
L 467.145307 488.000005 
L 467.844695 487.804822 
L 468.835496 487.260755 
L 471.691333 485.555127 
L 472.856981 485.170512 
L 473.789499 485.085298 
L 474.605453 485.220382 
L 475.479689 485.597202 
L 476.645337 486.375662 
L 478.277244 487.447497 
L 479.15148 487.762146 
L 480.025716 487.840423 
L 481.016516 487.694468 
L 482.415294 487.235 
L 484.571742 486.263811 
L 486.378497 485.51219 
L 487.252732 485.375716 
L 488.010404 485.467147 
L 488.768075 485.779024 
L 489.642311 486.398464 
L 490.691394 487.431863 
L 492.206736 489.266436 
L 494.887726 492.552746 
L 495.645397 493.125341 
L 496.286503 493.349455 
L 496.869327 493.317643 
L 497.510434 493.031638 
L 498.268105 492.42489 
L 500.657683 490.294 
L 501.357072 490.054992 
L 501.998178 490.06702 
L 502.697567 490.310443 
L 503.630085 490.902792 
L 505.553404 492.194247 
L 506.311075 492.397689 
L 507.010464 492.349638 
L 507.768135 492.069781 
L 509.166913 491.246909 
L 510.507408 490.564577 
L 513.596374 489.202823 
L 515.694541 487.989666 
L 516.393929 487.888896 
L 517.035036 488.034595 
L 517.676142 488.418193 
L 518.433813 489.139593 
L 519.657743 490.667636 
L 521.231368 492.56008 
L 522.222169 493.406088 
L 523.212969 493.962798 
L 524.495182 494.409166 
L 525.89396 494.678988 
L 526.826478 494.643056 
L 527.584149 494.391182 
L 528.34182 493.897643 
L 529.274338 492.988637 
L 531.955328 490.148998 
L 532.654717 489.82664 
L 533.237541 489.79029 
L 533.820365 489.978862 
L 534.461471 490.439587 
L 535.219143 491.282668 
L 536.326508 492.901425 
L 538.249827 495.736154 
L 539.124063 496.643043 
L 539.881734 497.132499 
L 540.52284 497.308547 
L 541.163947 497.253138 
L 541.805053 496.958596 
L 542.504442 496.367786 
L 543.320395 495.362257 
L 544.602608 493.363864 
L 545.943103 491.397414 
L 546.700774 490.643574 
L 547.34188 490.297465 
L 547.924704 490.231049 
L 548.507528 490.392722 
L 549.148635 490.806469 
L 549.964588 491.624436 
L 551.071954 493.083817 
L 553.403249 496.226265 
L 554.219203 496.92036 
L 554.860309 497.206305 
L 555.501416 497.243993 
L 556.142522 497.042102 
L 556.900193 496.539956 
L 557.949276 495.527037 
L 560.513701 492.929672 
L 561.44622 492.330441 
L 562.262173 492.046048 
L 563.078127 491.993074 
L 563.952363 492.166628 
L 565.001446 492.614531 
L 566.341941 493.441077 
L 567.799001 494.601393 
L 570.421708 496.783116 
L 571.062815 496.994726 
L 571.645639 496.955163 
L 572.228463 496.665142 
L 572.869569 496.05916 
L 573.685522 494.932616 
L 576.016818 491.477792 
L 576.657925 491.013902 
L 577.182466 490.888207 
L 577.707008 490.987493 
L 578.289832 491.327816 
L 579.105785 492.090642 
L 581.262234 494.236585 
L 582.019905 494.639025 
L 582.777576 494.795492 
L 583.593529 494.734913 
L 584.700895 494.412869 
L 587.381885 493.31376 
L 589.713181 492.445985 
L 590.703981 492.320507 
L 591.519935 492.445404 
L 592.335888 492.811883 
L 593.268407 493.49972 
L 594.958596 495.109475 
L 596.182526 496.119303 
L 596.99848 496.527391 
L 597.697869 496.639615 
L 598.338975 496.521675 
L 598.980081 496.182283 
L 599.737752 495.503795 
L 600.611988 494.395787 
L 601.894201 492.357109 
L 603.992367 489.02978 
L 604.924886 487.954924 
L 605.740839 487.339973 
L 606.440228 487.083219 
L 607.081334 487.074506 
L 607.72244 487.278253 
L 608.480112 487.770384 
L 609.41263 488.67502 
L 612.559879 492.012284 
L 613.31755 492.369462 
L 613.958657 492.443391 
L 614.599763 492.302942 
L 615.299152 491.921543 
L 616.173388 491.175056 
L 619.204072 488.331925 
L 619.961743 488.050368 
L 620.719414 488.01013 
L 621.59365 488.198084 
L 623.516969 488.935042 
L 625.498571 489.543745 
L 628.995514 490.41935 
L 629.811468 490.292272 
L 630.627421 489.928422 
L 633.075282 488.62656 
L 633.658106 488.666203 
L 634.24093 488.942915 
L 634.882036 489.517814 
L 635.697989 490.580741 
L 638.495544 494.521578 
L 639.253216 495.080009 
L 639.952604 495.321892 
L 640.651993 495.32669 
L 641.467946 495.090716 
L 642.51703 494.523004 
L 644.323784 493.231773 
L 646.130538 492.038696 
L 647.237903 491.575902 
L 648.228704 491.410778 
L 649.161222 491.477019 
L 650.152023 491.769173 
L 651.201106 492.312472 
L 652.425037 493.210142 
L 655.106027 495.27525 
L 655.92198 495.559251 
L 656.621369 495.565699 
L 657.320758 495.330016 
L 658.020146 494.852574 
L 658.894382 493.954423 
L 660.176595 492.256949 
L 661.575372 490.5083 
L 662.333043 489.903374 
L 662.97415 489.677487 
L 663.556974 489.716062 
L 664.19808 490.005231 
L 665.014034 490.652861 
L 667.287047 492.62231 
L 667.986436 492.879184 
L 668.627542 492.888131 
L 669.326931 492.657186 
L 670.142884 492.124094 
L 671.425097 490.958144 
L 673.173569 489.414764 
L 673.581545 489.137819 
L 673.581545 489.137819 
" clip-path="url(#p5898faf8de)" style="fill: none; stroke: #ff0000; stroke-width: 1.5; stroke-linecap: square"/>
   </g>
   <g id="line2d_58">
    <path d="M 90.932455 612.946964 
L 92.098102 297.69299 
L 92.739209 177.287112 
L 93.26375 115.905794 
L 93.671727 91.037841 
L 93.963139 84.424958 
L 94.079704 84.119901 
L 94.196269 85.040318 
L 94.429398 90.224483 
L 94.779093 105.04362 
L 95.303634 138.327107 
L 97.343518 278.386505 
L 97.984624 304.17708 
L 98.567448 319.40704 
L 99.150272 328.96261 
L 99.733096 334.893987 
L 100.374202 339.089509 
L 101.131873 342.564831 
L 101.947827 345.387574 
L 102.705498 347.269735 
L 103.346604 348.287369 
L 103.929428 348.794841 
L 104.628817 349.083875 
L 105.503053 349.453704 
L 106.085877 349.989672 
L 106.668701 350.861444 
L 107.309807 352.259931 
L 108.067478 354.491988 
L 109.291409 358.993382 
L 110.690186 363.890082 
L 112.963199 371.080004 
L 113.662588 374.687541 
L 114.536824 380.474828 
L 116.926402 397.138847 
L 117.450944 399.085559 
L 117.800638 399.697608 
L 118.033768 399.763439 
L 118.266897 399.541161 
L 118.558309 398.856013 
L 118.966286 397.159147 
L 119.490828 393.844033 
L 120.248499 387.385364 
L 121.880406 373.070836 
L 122.404947 370.28916 
L 122.812924 369.105201 
L 123.104336 368.812168 
L 123.337466 368.906007 
L 123.628877 369.41248 
L 124.036854 370.773773 
L 124.619678 373.736587 
L 127.184103 388.316135 
L 127.766927 389.958206 
L 128.291469 390.856833 
L 128.816011 391.362279 
L 129.631964 391.786615 
L 130.5062 392.306301 
L 131.322153 393.085295 
L 132.604366 394.355173 
L 133.128908 394.552077 
L 133.536884 394.478862 
L 133.944861 394.17748 
L 134.41112 393.546202 
L 135.052227 392.268916 
L 137.500087 386.927074 
L 138.257758 386.0574 
L 140.530772 384.023594 
L 141.055313 383.751283 
L 141.405008 383.768459 
L 141.754702 384.011384 
L 142.162679 384.630802 
L 142.628938 385.797495 
L 143.270044 388.093178 
L 144.668822 394.314729 
L 145.543058 397.589426 
L 146.125881 398.968099 
L 146.592141 399.533171 
L 146.941835 399.640331 
L 147.291529 399.494664 
L 147.699506 399.046046 
L 148.224048 398.1026 
L 148.981719 396.197035 
L 150.671908 391.756176 
L 151.313015 390.702573 
L 151.837556 390.233137 
L 152.303815 390.116194 
L 152.770074 390.252066 
L 153.294616 390.651097 
L 154.110569 391.606829 
L 156.267018 394.278642 
L 157.199536 395.016122 
L 158.132055 395.47289 
L 159.23942 395.752476 
L 160.113656 395.772843 
L 160.871327 395.564659 
L 161.628998 395.097527 
L 162.619799 394.165157 
L 164.135141 392.750115 
L 164.83453 392.391515 
L 165.475636 392.305449 
L 166.175025 392.456624 
L 168.797733 393.318521 
L 169.497121 393.160254 
L 170.313075 392.724879 
L 172.178112 391.625688 
L 172.8775 391.524287 
L 173.518607 391.656432 
L 174.276278 392.050385 
L 177.423527 394.005852 
L 178.47261 394.206094 
L 183.135202 394.573607 
L 184.009437 394.307488 
L 185.408215 393.574667 
L 186.457298 393.1336 
L 187.214969 393.055018 
L 187.914358 393.203862 
L 188.730311 393.61157 
L 190.012524 394.54509 
L 191.178172 395.299133 
L 191.877561 395.508986 
L 192.518667 395.474849 
L 193.159773 395.211945 
L 193.975727 394.60097 
L 196.24874 392.698493 
L 197.006411 392.440981 
L 197.880647 392.395532 
L 200.911332 392.652939 
L 201.902132 392.911622 
L 202.834651 393.396875 
L 204.816252 394.548338 
L 205.340794 394.553034 
L 205.807053 394.347984 
L 206.331594 393.845012 
L 206.914418 392.937231 
L 207.672089 391.295512 
L 209.770256 386.528103 
L 210.411362 385.641685 
L 210.994186 385.200346 
L 211.460445 385.096364 
L 211.984986 385.221079 
L 212.626093 385.649662 
L 213.616894 386.648011 
L 214.899106 387.883871 
L 215.656777 388.32054 
L 216.356166 388.487033 
L 217.17212 388.454107 
L 218.279485 388.171538 
L 219.61998 387.581324 
L 222.592382 386.157611 
L 223.583183 385.992079 
L 224.690548 386.040405 
L 227.021844 386.204052 
L 228.12921 386.016223 
L 230.985047 385.364511 
L 231.917565 385.494797 
L 234.831685 386.121189 
L 235.93905 385.951101 
L 237.862369 385.624886 
L 238.794888 385.736505 
L 240.368512 386.236199 
L 241.242748 386.364593 
L 241.942137 386.250474 
L 242.699808 385.897722 
L 243.923738 385.03048 
L 245.089386 384.300861 
L 245.847057 384.077352 
L 246.604728 384.077984 
L 247.653811 384.325194 
L 248.936024 384.60569 
L 249.635413 384.528053 
L 250.276519 384.23029 
L 250.975908 383.651039 
L 251.908426 382.563078 
L 253.773463 380.336894 
L 254.531134 379.806263 
L 255.230523 379.584024 
L 255.988194 379.594534 
L 256.86243 379.853523 
L 257.794948 380.369192 
L 258.727466 381.134443 
L 259.776549 382.316455 
L 262.282692 385.352179 
L 262.865516 385.640755 
L 263.331775 385.632817 
L 263.798035 385.380492 
L 264.322576 384.797126 
L 264.963682 383.689515 
L 265.954483 381.423661 
L 267.120131 378.888614 
L 267.81952 377.876841 
L 268.344061 377.459731 
L 268.81032 377.340709 
L 269.334862 377.458463 
L 269.917686 377.83405 
L 270.966769 378.838839 
L 272.248982 379.972382 
L 273.064935 380.400245 
L 273.939171 380.59492 
L 279.009739 381.013767 
L 282.506683 381.046236 
L 283.672331 381.450474 
L 285.653932 382.180542 
L 286.469886 382.211121 
L 287.227557 382.01283 
L 288.27664 381.481244 
L 289.675417 380.813454 
L 290.433089 380.716484 
L 291.132477 380.848976 
L 292.006713 381.250582 
L 294.046597 382.287612 
L 294.920833 382.423909 
L 295.911634 382.328706 
L 299.525142 381.742859 
L 300.749072 381.485901 
L 301.973003 380.976983 
L 304.129451 380.021734 
L 305.003687 379.912109 
L 305.877923 380.01907 
L 306.868724 380.379499 
L 309.374867 381.42778 
L 310.249102 381.491091 
L 311.298186 381.331597 
L 316.368754 380.239274 
L 317.301272 380.31316 
L 318.117226 380.60901 
L 319.049744 381.211375 
L 320.798216 382.420456 
L 321.38104 382.508197 
L 321.847299 382.358004 
L 322.313558 381.982862 
L 322.896382 381.189886 
L 323.654053 379.699387 
L 325.693937 375.364907 
L 326.276761 374.668035 
L 326.801302 374.372163 
L 327.267561 374.373093 
L 327.733821 374.595032 
L 328.374927 375.179137 
L 330.764505 377.686776 
L 331.347329 377.854891 
L 331.930153 377.77183 
L 332.629542 377.40878 
L 334.844273 376.033268 
L 335.601944 375.923466 
L 336.417897 376.037056 
L 337.816675 376.50921 
L 342.246137 378.005562 
L 343.353502 378.22406 
L 344.227738 378.175928 
L 345.160256 377.879228 
L 347.957811 376.78009 
L 348.89033 376.765403 
L 350.172542 377.007829 
L 352.154144 377.345765 
L 354.427157 377.641737 
L 355.359675 378.039219 
L 356.467041 378.770702 
L 357.982383 379.767088 
L 358.681772 379.957419 
L 359.322878 379.898256 
L 360.022267 379.588993 
L 360.954785 378.897652 
L 362.52841 377.724497 
L 363.402646 377.37731 
L 364.335164 377.252873 
L 366.957872 377.065902 
L 369.988556 376.534583 
L 370.921074 376.698295 
L 372.319852 377.20812 
L 377.856679 379.30852 
L 378.497786 379.273586 
L 379.08061 379.013371 
L 379.663433 378.477369 
L 380.246257 377.625651 
L 380.945646 376.187409 
L 381.936447 373.550787 
L 383.451789 369.49638 
L 384.20946 368.12796 
L 384.792284 367.476763 
L 385.316826 367.176584 
L 385.89965 367.108538 
L 386.540756 367.270812 
L 387.706404 367.863434 
L 388.988616 368.432311 
L 390.0377 368.648427 
L 393.70949 369.135571 
L 397.614411 370.269148 
L 400.003989 370.469098 
L 402.743261 370.629209 
L 403.850627 370.412321 
L 405.832228 369.970208 
L 406.589899 370.055288 
L 407.464135 370.399801 
L 410.553102 371.883648 
L 412.592986 372.523132 
L 413.583787 373.128257 
L 415.681953 374.51738 
L 416.264777 374.607089 
L 416.847601 374.464847 
L 417.430425 374.086846 
L 418.188096 373.302052 
L 420.985651 370.057475 
L 421.685039 369.718757 
L 422.384428 369.616979 
L 423.258664 369.731835 
L 425.123701 370.04782 
L 425.939654 369.907469 
L 426.81389 369.505522 
L 428.154385 368.584512 
L 429.844575 367.491942 
L 430.893658 367.068078 
L 431.709611 366.949761 
L 432.409 367.069244 
L 433.050106 367.417716 
L 433.749495 368.079028 
L 434.623731 369.249256 
L 436.780179 372.290569 
L 437.421286 372.750535 
L 437.887545 372.842804 
L 438.353804 372.69784 
L 438.820063 372.303491 
L 439.402887 371.469811 
L 440.102276 370.040293 
L 442.783266 364.071819 
L 443.424372 363.378495 
L 443.948914 363.103432 
L 444.473455 363.055518 
L 445.114562 363.226794 
L 447.795552 364.242206 
L 448.553223 364.145921 
L 449.718871 363.728203 
L 450.942801 363.351998 
L 451.875319 363.297271 
L 453.157532 363.476163 
L 454.731157 363.65984 
L 455.78024 363.545769 
L 457.645276 363.036492 
L 459.568595 362.667174 
L 460.850808 362.323889 
L 462.133021 361.707402 
L 463.240386 361.248265 
L 463.881493 361.200943 
L 464.464316 361.366091 
L 465.105423 361.792268 
L 465.921376 362.633988 
L 467.96126 364.885005 
L 468.660649 365.296798 
L 469.360038 365.445941 
L 470.117709 365.354181 
L 471.225074 364.94572 
L 472.565569 364.500057 
L 473.498088 364.426428 
L 474.722018 364.581537 
L 476.528772 364.791363 
L 479.617739 364.925696 
L 482.473576 365.518338 
L 483.172965 365.307781 
L 483.872354 364.862942 
L 484.74659 364.031009 
L 487.136168 361.598638 
L 487.952121 361.161292 
L 488.65151 361.020346 
L 489.409181 361.101191 
L 490.10857 361.396689 
L 490.807958 361.933179 
L 491.56563 362.793825 
L 492.498148 364.211291 
L 494.887726 368.05766 
L 495.47055 368.541822 
L 495.936809 368.674057 
L 496.344786 368.574206 
L 496.811045 368.192956 
L 497.335587 367.423608 
L 497.976693 366.038322 
L 498.967494 363.267892 
L 500.074859 360.343309 
L 500.774248 359.087783 
L 501.298789 358.532623 
L 501.765049 358.311714 
L 502.231308 358.314624 
L 502.814132 358.562924 
L 503.630085 359.190229 
L 505.495122 360.67974 
L 506.485922 361.144828 
L 507.65157 361.428139 
L 509.574889 361.629835 
L 510.915384 361.562684 
L 512.255879 361.258936 
L 514.237481 360.795191 
L 515.286564 360.807261 
L 516.393929 361.05765 
L 519.249767 361.834503 
L 520.240567 361.757461 
L 522.338734 361.483566 
L 523.038122 361.665298 
L 523.795793 362.098243 
L 525.019724 363.114165 
L 526.127089 363.931537 
L 526.88476 364.229739 
L 527.642431 364.281287 
L 528.57495 364.097756 
L 530.906245 363.535088 
L 532.421588 363.503844 
L 535.801966 363.699526 
L 538.657804 364.036819 
L 539.53204 363.841905 
L 540.406276 363.420718 
L 541.688488 362.511802 
L 543.087266 361.60131 
L 544.078066 361.217044 
L 545.127149 361.055202 
L 546.409362 361.106136 
L 548.099552 361.406856 
L 549.206917 361.798514 
L 550.256 362.404003 
L 551.829625 363.628579 
L 552.878708 364.314058 
L 553.578097 364.514599 
L 554.160921 364.436656 
L 554.685462 364.12993 
L 555.268286 363.490237 
L 555.909392 362.412326 
L 556.725346 360.544242 
L 558.648665 355.901251 
L 559.289771 354.977513 
L 559.814313 354.566367 
L 560.280572 354.460156 
L 560.746831 354.570997 
L 561.329655 354.95469 
L 562.262173 355.898432 
L 563.660951 357.286537 
L 564.476904 357.784647 
L 565.292858 358.024536 
L 566.691635 358.145602 
L 569.197778 358.238059 
L 569.955449 357.980742 
L 570.829685 357.440427 
L 572.869569 356.053814 
L 573.510675 355.922838 
L 574.093499 356.025406 
L 574.734606 356.36424 
L 575.667124 357.144812 
L 577.415596 358.63983 
L 578.173267 358.984673 
L 578.98922 359.107284 
L 580.329715 359.03257 
L 581.67021 359.02954 
L 583.010705 359.272904 
L 587.090473 360.353408 
L 588.022991 360.938512 
L 589.072074 361.887611 
L 590.820546 363.493344 
L 591.519935 363.817576 
L 592.161041 363.859629 
L 592.802148 363.662788 
L 593.559819 363.177366 
L 596.473938 361.028274 
L 597.523022 360.682196 
L 599.388058 360.129017 
L 600.204012 359.59221 
L 601.078248 358.737931 
L 603.58439 356.074671 
L 604.342062 355.705368 
L 605.158015 355.559743 
L 606.323663 355.611493 
L 607.431028 355.85186 
L 608.246982 356.250082 
L 609.004653 356.875954 
L 609.937171 357.974704 
L 611.685643 360.124381 
L 612.210185 360.430931 
L 612.618162 360.45911 
L 613.026138 360.269811 
L 613.492397 359.768562 
L 614.016939 358.85058 
L 614.716328 357.129524 
L 616.872776 351.37241 
L 617.4556 350.582498 
L 617.921859 350.300368 
L 618.329836 350.295058 
L 618.796095 350.520866 
L 619.437202 351.1157 
L 621.59365 353.357574 
L 622.293039 353.677848 
L 623.05071 353.763833 
L 624.216358 353.615665 
L 625.498571 353.520999 
L 629.053797 353.512331 
L 630.743986 353.383853 
L 631.676504 353.552983 
L 632.725587 353.991783 
L 634.882036 354.955963 
L 635.931119 355.145004 
L 637.155049 355.105389 
L 639.078368 355.040098 
L 642.05077 355.121765 
L 642.866724 354.807328 
L 643.857525 354.160134 
L 645.722561 352.881654 
L 646.480232 352.66139 
L 647.179621 352.690855 
L 648.053857 352.980578 
L 649.860611 353.667596 
L 650.676565 353.679706 
L 651.667365 353.43507 
L 653.124425 353.072571 
L 653.823814 353.133646 
L 654.581485 353.43966 
L 655.514003 354.09498 
L 657.670452 355.73469 
L 658.369841 355.941418 
L 659.010947 355.906291 
L 659.652053 355.650012 
L 660.468007 355.057806 
L 662.099914 353.491678 
L 663.207279 352.608015 
L 663.96495 352.258843 
L 664.606057 352.180789 
L 665.188881 352.320731 
L 665.771705 352.686531 
L 666.471093 353.421608 
L 667.345329 354.712869 
L 669.326931 357.780467 
L 669.968037 358.32398 
L 670.434296 358.462589 
L 670.900555 358.355079 
L 671.366814 357.988418 
L 671.891356 357.272296 
L 672.590745 355.884121 
L 673.581545 353.389762 
L 673.581545 353.389762 
" clip-path="url(#p5898faf8de)" style="fill: none; stroke: #0000ff; stroke-width: 1.5; stroke-linecap: square"/>
   </g>
   <g id="patch_3">
    <path d="M 61.8 640.3185 
L 61.8 39.1875 
" style="fill: none; stroke: #000000; stroke-width: 0.8; stroke-linejoin: miter; stroke-linecap: square"/>
   </g>
   <g id="patch_4">
    <path d="M 702.714 640.3185 
L 702.714 39.1875 
" style="fill: none; stroke: #000000; stroke-width: 0.8; stroke-linejoin: miter; stroke-linecap: square"/>
   </g>
   <g id="patch_5">
    <path d="M 61.8 640.3185 
L 702.714 640.3185 
" style="fill: none; stroke: #000000; stroke-width: 0.8; stroke-linejoin: miter; stroke-linecap: square"/>
   </g>
   <g id="patch_6">
    <path d="M 61.8 39.1875 
L 702.714 39.1875 
" style="fill: none; stroke: #000000; stroke-width: 0.8; stroke-linejoin: miter; stroke-linecap: square"/>
   </g>
   <g id="legend_1">
    <g id="patch_7">
     <path d="M 505.703062 149.11875 
L 681.714 149.11875 
Q 687.714 149.11875 687.714 143.11875 
L 687.714 60.1875 
Q 687.714 54.1875 681.714 54.1875 
L 505.703062 54.1875 
Q 499.703062 54.1875 499.703062 60.1875 
L 499.703062 143.11875 
Q 499.703062 149.11875 505.703062 149.11875 
z
" style="fill: #ffffff; opacity: 0.8; stroke: #cccccc; stroke-linejoin: miter"/>
    </g>
    <g id="line2d_59">
     <path d="M 511.703062 77.428125 
L 541.703062 77.428125 
L 571.703062 77.428125 
" style="fill: none; stroke: #ff0000; stroke-width: 1.5; stroke-linecap: square"/>
    </g>
    <g id="text_17">
     <!-- MD -->
     <g transform="translate(595.703062 87.928125) scale(0.3 -0.3)">
      <defs>
       <path id="LiberationSans-4d" d="M 4269 0 
L 4269 2938 
Q 4269 3425 4297 3875 
Q 4144 3316 4022 3000 
L 2884 0 
L 2466 0 
L 1313 3000 
L 1138 3531 
L 1034 3875 
L 1044 3528 
L 1056 2938 
L 1056 0 
L 525 0 
L 525 4403 
L 1309 4403 
L 2481 1350 
Q 2544 1166 2601 955 
Q 2659 744 2678 650 
Q 2703 775 2783 1029 
Q 2863 1284 2891 1350 
L 4041 4403 
L 4806 4403 
L 4806 0 
L 4269 0 
z
" transform="scale(0.015625)"/>
       <path id="LiberationSans-44" d="M 4316 2247 
Q 4316 1566 4050 1055 
Q 3784 544 3296 272 
Q 2809 0 2172 0 
L 525 0 
L 525 4403 
L 1981 4403 
Q 3100 4403 3708 3842 
Q 4316 3281 4316 2247 
z
M 3716 2247 
Q 3716 3066 3267 3495 
Q 2819 3925 1969 3925 
L 1122 3925 
L 1122 478 
L 2103 478 
Q 2588 478 2955 690 
Q 3322 903 3519 1303 
Q 3716 1703 3716 2247 
z
" transform="scale(0.015625)"/>
      </defs>
      <use xlink:href="#LiberationSans-4d"/>
      <use xlink:href="#LiberationSans-44" x="83.300781"/>
     </g>
    </g>
    <g id="line2d_60">
     <path d="M 511.703062 120.39375 
L 541.703062 120.39375 
L 571.703062 120.39375 
" style="fill: none; stroke: #0000ff; stroke-width: 1.5; stroke-linecap: square"/>
    </g>
    <g id="text_18">
     <!-- GANs -->
     <g transform="translate(595.703062 130.89375) scale(0.3 -0.3)">
      <defs>
       <path id="LiberationSans-47" d="M 322 2222 
Q 322 3294 897 3881 
Q 1472 4469 2513 4469 
Q 3244 4469 3700 4222 
Q 4156 3975 4403 3431 
L 3834 3263 
Q 3647 3638 3317 3809 
Q 2988 3981 2497 3981 
Q 1734 3981 1331 3520 
Q 928 3059 928 2222 
Q 928 1388 1356 905 
Q 1784 422 2541 422 
Q 2972 422 3345 553 
Q 3719 684 3950 909 
L 3950 1703 
L 2634 1703 
L 2634 2203 
L 4500 2203 
L 4500 684 
Q 4150 328 3642 132 
Q 3134 -63 2541 -63 
Q 1850 -63 1350 212 
Q 850 488 586 1005 
Q 322 1522 322 2222 
z
" transform="scale(0.015625)"/>
       <path id="LiberationSans-41" d="M 3647 0 
L 3144 1288 
L 1138 1288 
L 631 0 
L 13 0 
L 1809 4403 
L 2488 4403 
L 4256 0 
L 3647 0 
z
M 2141 3953 
L 2113 3866 
Q 2034 3606 1881 3200 
L 1319 1753 
L 2966 1753 
L 2400 3206 
Q 2313 3422 2225 3694 
L 2141 3953 
z
" transform="scale(0.015625)"/>
       <path id="LiberationSans-4e" d="M 3381 0 
L 1025 3750 
L 1041 3447 
L 1056 2925 
L 1056 0 
L 525 0 
L 525 4403 
L 1219 4403 
L 3600 628 
Q 3563 1241 3563 1516 
L 3563 4403 
L 4100 4403 
L 4100 0 
L 3381 0 
z
" transform="scale(0.015625)"/>
      </defs>
      <use xlink:href="#LiberationSans-47"/>
      <use xlink:href="#LiberationSans-41" x="77.783203"/>
      <use xlink:href="#LiberationSans-4e" x="144.482422"/>
      <use xlink:href="#LiberationSans-73" x="216.699219"/>
     </g>
    </g>
   </g>
  </g>
 </g>
 <defs>
  <clipPath id="p5898faf8de">
   <rect x="61.8" y="39.1875" width="640.914" height="601.131"/>
  </clipPath>
 </defs>
</svg>
