<?xml version="1.0" encoding="utf-8" standalone="no"?>
<!DOCTYPE svg PUBLIC "-//W3C//DTD SVG 1.1//EN"
  "http://www.w3.org/Graphics/SVG/1.1/DTD/svg11.dtd">
<svg xmlns:xlink="http://www.w3.org/1999/xlink" width="709.854pt" height="711.033187pt" viewBox="0 0 709.854 711.033187" xmlns="http://www.w3.org/2000/svg" version="1.1">
 <metadata>
  <rdf:RDF xmlns:dc="http://purl.org/dc/elements/1.1/" xmlns:cc="http://creativecommons.org/ns#" xmlns:rdf="http://www.w3.org/1999/02/22-rdf-syntax-ns#">
   <cc:Work>
    <dc:type rdf:resource="http://purl.org/dc/dcmitype/StillImage"/>
    <dc:date>2025-02-05T17:11:38.766154</dc:date>
    <dc:format>image/svg+xml</dc:format>
    <dc:creator>
     <cc:Agent>
      <dc:title>Matplotlib v3.9.3, https://matplotlib.org/</dc:title>
     </cc:Agent>
    </dc:creator>
   </cc:Work>
  </rdf:RDF>
 </metadata>
 <defs>
  <style type="text/css">*{stroke-linejoin: round; stroke-linecap: butt}</style>
 </defs>
 <g id="figure_1">
  <g id="patch_1">
   <path d="M 0 711.033187 
L 709.854 711.033187 
L 709.854 0 
L 0 0 
z
" style="fill: #ffffff"/>
  </g>
  <g id="axes_1">
   <g id="patch_2">
    <path d="M 60.12 643.1985 
L 702.654 643.1985 
L 702.654 39.1875 
L 60.12 39.1875 
z
" style="fill: #ffffff"/>
   </g>
   <g id="matplotlib.axis_1">
    <g id="xtick_1">
     <g id="line2d_1">
      <defs>
       <path id="m38fb68b354" d="M 0 0 
L 0 -3.5 
" style="stroke: #000000; stroke-width: 0.8"/>
      </defs>
      <g>
       <use xlink:href="#m38fb68b354" x="89.209231" y="643.1985" style="stroke: #000000; stroke-width: 0.8"/>
      </g>
     </g>
     <g id="text_1">
      <!-- 0 -->
      <g transform="translate(81.701966 666.265062) scale(0.27 -0.27)">
       <defs>
        <path id="LiberationSans-30" d="M 3309 2203 
Q 3309 1100 2920 518 
Q 2531 -63 1772 -63 
Q 1013 -63 631 515 
Q 250 1094 250 2203 
Q 250 3338 620 3903 
Q 991 4469 1791 4469 
Q 2569 4469 2939 3897 
Q 3309 3325 3309 2203 
z
M 2738 2203 
Q 2738 3156 2517 3584 
Q 2297 4013 1791 4013 
Q 1272 4013 1045 3591 
Q 819 3169 819 2203 
Q 819 1266 1048 831 
Q 1278 397 1778 397 
Q 2275 397 2506 840 
Q 2738 1284 2738 2203 
z
" transform="scale(0.015625)"/>
       </defs>
       <use xlink:href="#LiberationSans-30"/>
      </g>
     </g>
    </g>
    <g id="xtick_2">
     <g id="line2d_2">
      <g>
       <use xlink:href="#m38fb68b354" x="206.068653" y="643.1985" style="stroke: #000000; stroke-width: 0.8"/>
      </g>
     </g>
     <g id="text_2">
      <!-- 2 -->
      <g transform="translate(198.561387 666.265062) scale(0.27 -0.27)">
       <defs>
        <path id="LiberationSans-32" d="M 322 0 
L 322 397 
Q 481 763 711 1042 
Q 941 1322 1194 1548 
Q 1447 1775 1695 1969 
Q 1944 2163 2144 2356 
Q 2344 2550 2467 2762 
Q 2591 2975 2591 3244 
Q 2591 3606 2378 3806 
Q 2166 4006 1788 4006 
Q 1428 4006 1195 3811 
Q 963 3616 922 3263 
L 347 3316 
Q 409 3844 795 4156 
Q 1181 4469 1788 4469 
Q 2453 4469 2811 4155 
Q 3169 3841 3169 3263 
Q 3169 3006 3051 2753 
Q 2934 2500 2703 2247 
Q 2472 1994 1819 1463 
Q 1459 1169 1246 933 
Q 1034 697 941 478 
L 3238 478 
L 3238 0 
L 322 0 
z
" transform="scale(0.015625)"/>
       </defs>
       <use xlink:href="#LiberationSans-32"/>
      </g>
     </g>
    </g>
    <g id="xtick_3">
     <g id="line2d_3">
      <g>
       <use xlink:href="#m38fb68b354" x="322.928074" y="643.1985" style="stroke: #000000; stroke-width: 0.8"/>
      </g>
     </g>
     <g id="text_3">
      <!-- 4 -->
      <g transform="translate(315.420809 666.265062) scale(0.27 -0.27)">
       <defs>
        <path id="LiberationSans-34" d="M 2753 997 
L 2753 0 
L 2222 0 
L 2222 997 
L 147 997 
L 147 1434 
L 2163 4403 
L 2753 4403 
L 2753 1441 
L 3372 1441 
L 3372 997 
L 2753 997 
z
M 2222 3769 
Q 2216 3750 2134 3603 
Q 2053 3456 2013 3397 
L 884 1734 
L 716 1503 
L 666 1441 
L 2222 1441 
L 2222 3769 
z
" transform="scale(0.015625)"/>
       </defs>
       <use xlink:href="#LiberationSans-34"/>
      </g>
     </g>
    </g>
    <g id="xtick_4">
     <g id="line2d_4">
      <g>
       <use xlink:href="#m38fb68b354" x="439.787496" y="643.1985" style="stroke: #000000; stroke-width: 0.8"/>
      </g>
     </g>
     <g id="text_4">
      <!-- 6 -->
      <g transform="translate(432.28023 666.265062) scale(0.27 -0.27)">
       <defs>
        <path id="LiberationSans-36" d="M 3278 1441 
Q 3278 744 2900 340 
Q 2522 -63 1856 -63 
Q 1113 -63 719 490 
Q 325 1044 325 2100 
Q 325 3244 734 3856 
Q 1144 4469 1900 4469 
Q 2897 4469 3156 3572 
L 2619 3475 
Q 2453 4013 1894 4013 
Q 1413 4013 1148 3564 
Q 884 3116 884 2266 
Q 1038 2550 1316 2698 
Q 1594 2847 1953 2847 
Q 2563 2847 2920 2465 
Q 3278 2084 3278 1441 
z
M 2706 1416 
Q 2706 1894 2472 2153 
Q 2238 2413 1819 2413 
Q 1425 2413 1183 2183 
Q 941 1953 941 1550 
Q 941 1041 1192 716 
Q 1444 391 1838 391 
Q 2244 391 2475 664 
Q 2706 938 2706 1416 
z
" transform="scale(0.015625)"/>
       </defs>
       <use xlink:href="#LiberationSans-36"/>
      </g>
     </g>
    </g>
    <g id="xtick_5">
     <g id="line2d_5">
      <g>
       <use xlink:href="#m38fb68b354" x="556.646917" y="643.1985" style="stroke: #000000; stroke-width: 0.8"/>
      </g>
     </g>
     <g id="text_5">
      <!-- 8 -->
      <g transform="translate(549.139652 666.265062) scale(0.27 -0.27)">
       <defs>
        <path id="LiberationSans-38" d="M 3281 1228 
Q 3281 619 2893 278 
Q 2506 -63 1781 -63 
Q 1075 -63 676 271 
Q 278 606 278 1222 
Q 278 1653 525 1947 
Q 772 2241 1156 2303 
L 1156 2316 
Q 797 2400 589 2681 
Q 381 2963 381 3341 
Q 381 3844 757 4156 
Q 1134 4469 1769 4469 
Q 2419 4469 2795 4162 
Q 3172 3856 3172 3334 
Q 3172 2956 2962 2675 
Q 2753 2394 2391 2322 
L 2391 2309 
Q 2813 2241 3047 1952 
Q 3281 1663 3281 1228 
z
M 2588 3303 
Q 2588 4050 1769 4050 
Q 1372 4050 1164 3862 
Q 956 3675 956 3303 
Q 956 2925 1170 2726 
Q 1384 2528 1775 2528 
Q 2172 2528 2380 2711 
Q 2588 2894 2588 3303 
z
M 2697 1281 
Q 2697 1691 2453 1898 
Q 2209 2106 1769 2106 
Q 1341 2106 1100 1882 
Q 859 1659 859 1269 
Q 859 359 1788 359 
Q 2247 359 2472 579 
Q 2697 800 2697 1281 
z
" transform="scale(0.015625)"/>
       </defs>
       <use xlink:href="#LiberationSans-38"/>
      </g>
     </g>
    </g>
    <g id="xtick_6">
     <g id="line2d_6">
      <g>
       <use xlink:href="#m38fb68b354" x="673.506339" y="643.1985" style="stroke: #000000; stroke-width: 0.8"/>
      </g>
     </g>
     <g id="text_6">
      <!-- 10 -->
      <g transform="translate(658.491808 666.265062) scale(0.27 -0.27)">
       <defs>
        <path id="LiberationSans-31" d="M 488 0 
L 488 478 
L 1609 478 
L 1609 3866 
L 616 3156 
L 616 3688 
L 1656 4403 
L 2175 4403 
L 2175 478 
L 3247 478 
L 3247 0 
L 488 0 
z
" transform="scale(0.015625)"/>
       </defs>
       <use xlink:href="#LiberationSans-31"/>
       <use xlink:href="#LiberationSans-30" x="55.615234"/>
      </g>
     </g>
    </g>
    <g id="xtick_7">
     <g id="line2d_7">
      <defs>
       <path id="mab3f1ad2a3" d="M 0 0 
L 0 -2 
" style="stroke: #000000; stroke-width: 0.6"/>
      </defs>
      <g>
       <use xlink:href="#mab3f1ad2a3" x="118.424087" y="643.1985" style="stroke: #000000; stroke-width: 0.6"/>
      </g>
     </g>
    </g>
    <g id="xtick_8">
     <g id="line2d_8">
      <g>
       <use xlink:href="#mab3f1ad2a3" x="147.638942" y="643.1985" style="stroke: #000000; stroke-width: 0.6"/>
      </g>
     </g>
    </g>
    <g id="xtick_9">
     <g id="line2d_9">
      <g>
       <use xlink:href="#mab3f1ad2a3" x="176.853798" y="643.1985" style="stroke: #000000; stroke-width: 0.6"/>
      </g>
     </g>
    </g>
    <g id="xtick_10">
     <g id="line2d_10">
      <g>
       <use xlink:href="#mab3f1ad2a3" x="235.283508" y="643.1985" style="stroke: #000000; stroke-width: 0.6"/>
      </g>
     </g>
    </g>
    <g id="xtick_11">
     <g id="line2d_11">
      <g>
       <use xlink:href="#mab3f1ad2a3" x="264.498364" y="643.1985" style="stroke: #000000; stroke-width: 0.6"/>
      </g>
     </g>
    </g>
    <g id="xtick_12">
     <g id="line2d_12">
      <g>
       <use xlink:href="#mab3f1ad2a3" x="293.713219" y="643.1985" style="stroke: #000000; stroke-width: 0.6"/>
      </g>
     </g>
    </g>
    <g id="xtick_13">
     <g id="line2d_13">
      <g>
       <use xlink:href="#mab3f1ad2a3" x="352.14293" y="643.1985" style="stroke: #000000; stroke-width: 0.6"/>
      </g>
     </g>
    </g>
    <g id="xtick_14">
     <g id="line2d_14">
      <g>
       <use xlink:href="#mab3f1ad2a3" x="381.357785" y="643.1985" style="stroke: #000000; stroke-width: 0.6"/>
      </g>
     </g>
    </g>
    <g id="xtick_15">
     <g id="line2d_15">
      <g>
       <use xlink:href="#mab3f1ad2a3" x="410.572641" y="643.1985" style="stroke: #000000; stroke-width: 0.6"/>
      </g>
     </g>
    </g>
    <g id="xtick_16">
     <g id="line2d_16">
      <g>
       <use xlink:href="#mab3f1ad2a3" x="469.002351" y="643.1985" style="stroke: #000000; stroke-width: 0.6"/>
      </g>
     </g>
    </g>
    <g id="xtick_17">
     <g id="line2d_17">
      <g>
       <use xlink:href="#mab3f1ad2a3" x="498.217207" y="643.1985" style="stroke: #000000; stroke-width: 0.6"/>
      </g>
     </g>
    </g>
    <g id="xtick_18">
     <g id="line2d_18">
      <g>
       <use xlink:href="#mab3f1ad2a3" x="527.432062" y="643.1985" style="stroke: #000000; stroke-width: 0.6"/>
      </g>
     </g>
    </g>
    <g id="xtick_19">
     <g id="line2d_19">
      <g>
       <use xlink:href="#mab3f1ad2a3" x="585.861773" y="643.1985" style="stroke: #000000; stroke-width: 0.6"/>
      </g>
     </g>
    </g>
    <g id="xtick_20">
     <g id="line2d_20">
      <g>
       <use xlink:href="#mab3f1ad2a3" x="615.076628" y="643.1985" style="stroke: #000000; stroke-width: 0.6"/>
      </g>
     </g>
    </g>
    <g id="xtick_21">
     <g id="line2d_21">
      <g>
       <use xlink:href="#mab3f1ad2a3" x="644.291483" y="643.1985" style="stroke: #000000; stroke-width: 0.6"/>
      </g>
     </g>
    </g>
    <g id="text_7">
     <!-- Time ps -->
     <g transform="translate(328.610438 697.608187) scale(0.3 -0.3)">
      <defs>
       <path id="LiberationSans-54" d="M 2250 3916 
L 2250 0 
L 1656 0 
L 1656 3916 
L 144 3916 
L 144 4403 
L 3763 4403 
L 3763 3916 
L 2250 3916 
z
" transform="scale(0.015625)"/>
       <path id="LiberationSans-69" d="M 428 4100 
L 428 4638 
L 991 4638 
L 991 4100 
L 428 4100 
z
M 428 0 
L 428 3381 
L 991 3381 
L 991 0 
L 428 0 
z
" transform="scale(0.015625)"/>
       <path id="LiberationSans-6d" d="M 2400 0 
L 2400 2144 
Q 2400 2634 2265 2821 
Q 2131 3009 1781 3009 
Q 1422 3009 1212 2734 
Q 1003 2459 1003 1959 
L 1003 0 
L 444 0 
L 444 2659 
Q 444 3250 425 3381 
L 956 3381 
Q 959 3366 962 3297 
Q 966 3228 970 3139 
Q 975 3050 981 2803 
L 991 2803 
Q 1172 3163 1406 3303 
Q 1641 3444 1978 3444 
Q 2363 3444 2586 3291 
Q 2809 3138 2897 2803 
L 2906 2803 
Q 3081 3144 3329 3294 
Q 3578 3444 3931 3444 
Q 4444 3444 4676 3166 
Q 4909 2888 4909 2253 
L 4909 0 
L 4353 0 
L 4353 2144 
Q 4353 2634 4218 2821 
Q 4084 3009 3734 3009 
Q 3366 3009 3161 2736 
Q 2956 2463 2956 1959 
L 2956 0 
L 2400 0 
z
" transform="scale(0.015625)"/>
       <path id="LiberationSans-65" d="M 863 1572 
Q 863 991 1103 675 
Q 1344 359 1806 359 
Q 2172 359 2392 506 
Q 2613 653 2691 878 
L 3184 738 
Q 2881 -63 1806 -63 
Q 1056 -63 664 384 
Q 272 831 272 1713 
Q 272 2550 664 2997 
Q 1056 3444 1784 3444 
Q 3275 3444 3275 1647 
L 3275 1572 
L 863 1572 
z
M 2694 2003 
Q 2647 2538 2422 2783 
Q 2197 3028 1775 3028 
Q 1366 3028 1127 2754 
Q 888 2481 869 2003 
L 2694 2003 
z
" transform="scale(0.015625)"/>
       <path id="LiberationSans-20" transform="scale(0.015625)"/>
       <path id="LiberationSans-70" d="M 3291 1706 
Q 3291 -63 2047 -63 
Q 1266 -63 997 525 
L 981 525 
Q 994 500 994 -6 
L 994 -1328 
L 431 -1328 
L 431 2691 
Q 431 3213 413 3381 
L 956 3381 
Q 959 3369 965 3292 
Q 972 3216 980 3056 
Q 988 2897 988 2838 
L 1000 2838 
Q 1150 3150 1397 3295 
Q 1644 3441 2047 3441 
Q 2672 3441 2981 3022 
Q 3291 2603 3291 1706 
z
M 2700 1694 
Q 2700 2400 2509 2703 
Q 2319 3006 1903 3006 
Q 1569 3006 1380 2865 
Q 1191 2725 1092 2426 
Q 994 2128 994 1650 
Q 994 984 1206 668 
Q 1419 353 1897 353 
Q 2316 353 2508 661 
Q 2700 969 2700 1694 
z
" transform="scale(0.015625)"/>
       <path id="LiberationSans-73" d="M 2969 934 
Q 2969 456 2608 196 
Q 2247 -63 1597 -63 
Q 966 -63 623 145 
Q 281 353 178 794 
L 675 891 
Q 747 619 972 492 
Q 1197 366 1597 366 
Q 2025 366 2223 497 
Q 2422 628 2422 891 
Q 2422 1091 2284 1216 
Q 2147 1341 1841 1422 
L 1438 1528 
Q 953 1653 748 1773 
Q 544 1894 428 2066 
Q 313 2238 313 2488 
Q 313 2950 642 3192 
Q 972 3434 1603 3434 
Q 2163 3434 2492 3237 
Q 2822 3041 2909 2606 
L 2403 2544 
Q 2356 2769 2151 2889 
Q 1947 3009 1603 3009 
Q 1222 3009 1040 2893 
Q 859 2778 859 2544 
Q 859 2400 934 2306 
Q 1009 2213 1156 2147 
Q 1303 2081 1775 1966 
Q 2222 1853 2419 1758 
Q 2616 1663 2730 1547 
Q 2844 1431 2906 1279 
Q 2969 1128 2969 934 
z
" transform="scale(0.015625)"/>
      </defs>
      <use xlink:href="#LiberationSans-54"/>
      <use xlink:href="#LiberationSans-69" x="57.333984"/>
      <use xlink:href="#LiberationSans-6d" x="79.550781"/>
      <use xlink:href="#LiberationSans-65" x="162.851562"/>
      <use xlink:href="#LiberationSans-20" x="218.466797"/>
      <use xlink:href="#LiberationSans-70" x="246.25"/>
      <use xlink:href="#LiberationSans-73" x="301.865234"/>
     </g>
    </g>
   </g>
   <g id="matplotlib.axis_2">
    <g id="ytick_1">
     <g id="line2d_22">
      <defs>
       <path id="mbc40fa1ed6" d="M 0 0 
L 3.5 0 
" style="stroke: #000000; stroke-width: 0.8"/>
      </defs>
      <g>
       <use xlink:href="#mbc40fa1ed6" x="60.12" y="633.879406" style="stroke: #000000; stroke-width: 0.8"/>
      </g>
     </g>
     <g id="text_8">
      <!-- $\mathdefault{0}$ -->
      <g transform="translate(41.5 643.662687) scale(0.27 -0.27)">
       <use xlink:href="#LiberationSans-30" transform="translate(0 0.171875)"/>
      </g>
     </g>
    </g>
    <g id="ytick_2">
     <g id="line2d_23">
      <g>
       <use xlink:href="#mbc40fa1ed6" x="60.12" y="545.432437" style="stroke: #000000; stroke-width: 0.8"/>
      </g>
     </g>
     <g id="text_9">
      <!-- $\mathdefault{1}$ -->
      <g transform="translate(41.5 555.215719) scale(0.27 -0.27)">
       <use xlink:href="#LiberationSans-31" transform="translate(0 0.203125)"/>
      </g>
     </g>
    </g>
    <g id="ytick_3">
     <g id="line2d_24">
      <g>
       <use xlink:href="#mbc40fa1ed6" x="60.12" y="456.985469" style="stroke: #000000; stroke-width: 0.8"/>
      </g>
     </g>
     <g id="text_10">
      <!-- $\mathdefault{2}$ -->
      <g transform="translate(41.5 466.76875) scale(0.27 -0.27)">
       <use xlink:href="#LiberationSans-32" transform="translate(0 0.171875)"/>
      </g>
     </g>
    </g>
    <g id="ytick_4">
     <g id="line2d_25">
      <g>
       <use xlink:href="#mbc40fa1ed6" x="60.12" y="368.5385" style="stroke: #000000; stroke-width: 0.8"/>
      </g>
     </g>
     <g id="text_11">
      <!-- $\mathdefault{3}$ -->
      <g transform="translate(41.5 378.321781) scale(0.27 -0.27)">
       <defs>
        <path id="LiberationSans-33" d="M 3278 1216 
Q 3278 606 2890 271 
Q 2503 -63 1784 -63 
Q 1116 -63 717 239 
Q 319 541 244 1131 
L 825 1184 
Q 938 403 1784 403 
Q 2209 403 2451 612 
Q 2694 822 2694 1234 
Q 2694 1594 2417 1795 
Q 2141 1997 1619 1997 
L 1300 1997 
L 1300 2484 
L 1606 2484 
Q 2069 2484 2323 2686 
Q 2578 2888 2578 3244 
Q 2578 3597 2370 3801 
Q 2163 4006 1753 4006 
Q 1381 4006 1151 3815 
Q 922 3625 884 3278 
L 319 3322 
Q 381 3863 767 4166 
Q 1153 4469 1759 4469 
Q 2422 4469 2789 4161 
Q 3156 3853 3156 3303 
Q 3156 2881 2920 2617 
Q 2684 2353 2234 2259 
L 2234 2247 
Q 2728 2194 3003 1916 
Q 3278 1638 3278 1216 
z
" transform="scale(0.015625)"/>
       </defs>
       <use xlink:href="#LiberationSans-33" transform="translate(0 0.171875)"/>
      </g>
     </g>
    </g>
    <g id="ytick_5">
     <g id="line2d_26">
      <g>
       <use xlink:href="#mbc40fa1ed6" x="60.12" y="280.091531" style="stroke: #000000; stroke-width: 0.8"/>
      </g>
     </g>
     <g id="text_12">
      <!-- $\mathdefault{4}$ -->
      <g transform="translate(41.5 289.874813) scale(0.27 -0.27)">
       <use xlink:href="#LiberationSans-34" transform="translate(0 0.203125)"/>
      </g>
     </g>
    </g>
    <g id="ytick_6">
     <g id="line2d_27">
      <g>
       <use xlink:href="#mbc40fa1ed6" x="60.12" y="191.644563" style="stroke: #000000; stroke-width: 0.8"/>
      </g>
     </g>
     <g id="text_13">
      <!-- $\mathdefault{5}$ -->
      <g transform="translate(41.5 201.427844) scale(0.27 -0.27)">
       <defs>
        <path id="LiberationSans-35" d="M 3291 1434 
Q 3291 738 2877 337 
Q 2463 -63 1728 -63 
Q 1113 -63 734 206 
Q 356 475 256 984 
L 825 1050 
Q 1003 397 1741 397 
Q 2194 397 2450 670 
Q 2706 944 2706 1422 
Q 2706 1838 2448 2094 
Q 2191 2350 1753 2350 
Q 1525 2350 1328 2278 
Q 1131 2206 934 2034 
L 384 2034 
L 531 4403 
L 3034 4403 
L 3034 3925 
L 1044 3925 
L 959 2528 
Q 1325 2809 1869 2809 
Q 2519 2809 2905 2428 
Q 3291 2047 3291 1434 
z
" transform="scale(0.015625)"/>
       </defs>
       <use xlink:href="#LiberationSans-35" transform="translate(0 0.203125)"/>
      </g>
     </g>
    </g>
    <g id="ytick_7">
     <g id="line2d_28">
      <g>
       <use xlink:href="#mbc40fa1ed6" x="60.12" y="103.197594" style="stroke: #000000; stroke-width: 0.8"/>
      </g>
     </g>
     <g id="text_14">
      <!-- $\mathdefault{6}$ -->
      <g transform="translate(41.5 112.980875) scale(0.27 -0.27)">
       <use xlink:href="#LiberationSans-36" transform="translate(0 0.171875)"/>
      </g>
     </g>
    </g>
    <g id="ytick_8">
     <g id="line2d_29">
      <defs>
       <path id="mae73454acb" d="M 0 0 
L 2 0 
" style="stroke: #000000; stroke-width: 0.6"/>
      </defs>
      <g>
       <use xlink:href="#mae73454acb" x="60.12" y="616.190012" style="stroke: #000000; stroke-width: 0.6"/>
      </g>
     </g>
    </g>
    <g id="ytick_9">
     <g id="line2d_30">
      <g>
       <use xlink:href="#mae73454acb" x="60.12" y="598.500619" style="stroke: #000000; stroke-width: 0.6"/>
      </g>
     </g>
    </g>
    <g id="ytick_10">
     <g id="line2d_31">
      <g>
       <use xlink:href="#mae73454acb" x="60.12" y="580.811225" style="stroke: #000000; stroke-width: 0.6"/>
      </g>
     </g>
    </g>
    <g id="ytick_11">
     <g id="line2d_32">
      <g>
       <use xlink:href="#mae73454acb" x="60.12" y="563.121831" style="stroke: #000000; stroke-width: 0.6"/>
      </g>
     </g>
    </g>
    <g id="ytick_12">
     <g id="line2d_33">
      <g>
       <use xlink:href="#mae73454acb" x="60.12" y="527.743044" style="stroke: #000000; stroke-width: 0.6"/>
      </g>
     </g>
    </g>
    <g id="ytick_13">
     <g id="line2d_34">
      <g>
       <use xlink:href="#mae73454acb" x="60.12" y="510.05365" style="stroke: #000000; stroke-width: 0.6"/>
      </g>
     </g>
    </g>
    <g id="ytick_14">
     <g id="line2d_35">
      <g>
       <use xlink:href="#mae73454acb" x="60.12" y="492.364256" style="stroke: #000000; stroke-width: 0.6"/>
      </g>
     </g>
    </g>
    <g id="ytick_15">
     <g id="line2d_36">
      <g>
       <use xlink:href="#mae73454acb" x="60.12" y="474.674862" style="stroke: #000000; stroke-width: 0.6"/>
      </g>
     </g>
    </g>
    <g id="ytick_16">
     <g id="line2d_37">
      <g>
       <use xlink:href="#mae73454acb" x="60.12" y="439.296075" style="stroke: #000000; stroke-width: 0.6"/>
      </g>
     </g>
    </g>
    <g id="ytick_17">
     <g id="line2d_38">
      <g>
       <use xlink:href="#mae73454acb" x="60.12" y="421.606681" style="stroke: #000000; stroke-width: 0.6"/>
      </g>
     </g>
    </g>
    <g id="ytick_18">
     <g id="line2d_39">
      <g>
       <use xlink:href="#mae73454acb" x="60.12" y="403.917287" style="stroke: #000000; stroke-width: 0.6"/>
      </g>
     </g>
    </g>
    <g id="ytick_19">
     <g id="line2d_40">
      <g>
       <use xlink:href="#mae73454acb" x="60.12" y="386.227894" style="stroke: #000000; stroke-width: 0.6"/>
      </g>
     </g>
    </g>
    <g id="ytick_20">
     <g id="line2d_41">
      <g>
       <use xlink:href="#mae73454acb" x="60.12" y="350.849106" style="stroke: #000000; stroke-width: 0.6"/>
      </g>
     </g>
    </g>
    <g id="ytick_21">
     <g id="line2d_42">
      <g>
       <use xlink:href="#mae73454acb" x="60.12" y="333.159713" style="stroke: #000000; stroke-width: 0.6"/>
      </g>
     </g>
    </g>
    <g id="ytick_22">
     <g id="line2d_43">
      <g>
       <use xlink:href="#mae73454acb" x="60.12" y="315.470319" style="stroke: #000000; stroke-width: 0.6"/>
      </g>
     </g>
    </g>
    <g id="ytick_23">
     <g id="line2d_44">
      <g>
       <use xlink:href="#mae73454acb" x="60.12" y="297.780925" style="stroke: #000000; stroke-width: 0.6"/>
      </g>
     </g>
    </g>
    <g id="ytick_24">
     <g id="line2d_45">
      <g>
       <use xlink:href="#mae73454acb" x="60.12" y="262.402138" style="stroke: #000000; stroke-width: 0.6"/>
      </g>
     </g>
    </g>
    <g id="ytick_25">
     <g id="line2d_46">
      <g>
       <use xlink:href="#mae73454acb" x="60.12" y="244.712744" style="stroke: #000000; stroke-width: 0.6"/>
      </g>
     </g>
    </g>
    <g id="ytick_26">
     <g id="line2d_47">
      <g>
       <use xlink:href="#mae73454acb" x="60.12" y="227.02335" style="stroke: #000000; stroke-width: 0.6"/>
      </g>
     </g>
    </g>
    <g id="ytick_27">
     <g id="line2d_48">
      <g>
       <use xlink:href="#mae73454acb" x="60.12" y="209.333956" style="stroke: #000000; stroke-width: 0.6"/>
      </g>
     </g>
    </g>
    <g id="ytick_28">
     <g id="line2d_49">
      <g>
       <use xlink:href="#mae73454acb" x="60.12" y="173.955169" style="stroke: #000000; stroke-width: 0.6"/>
      </g>
     </g>
    </g>
    <g id="ytick_29">
     <g id="line2d_50">
      <g>
       <use xlink:href="#mae73454acb" x="60.12" y="156.265775" style="stroke: #000000; stroke-width: 0.6"/>
      </g>
     </g>
    </g>
    <g id="ytick_30">
     <g id="line2d_51">
      <g>
       <use xlink:href="#mae73454acb" x="60.12" y="138.576381" style="stroke: #000000; stroke-width: 0.6"/>
      </g>
     </g>
    </g>
    <g id="ytick_31">
     <g id="line2d_52">
      <g>
       <use xlink:href="#mae73454acb" x="60.12" y="120.886988" style="stroke: #000000; stroke-width: 0.6"/>
      </g>
     </g>
    </g>
    <g id="ytick_32">
     <g id="line2d_53">
      <g>
       <use xlink:href="#mae73454acb" x="60.12" y="85.5082" style="stroke: #000000; stroke-width: 0.6"/>
      </g>
     </g>
    </g>
    <g id="ytick_33">
     <g id="line2d_54">
      <g>
       <use xlink:href="#mae73454acb" x="60.12" y="67.818806" style="stroke: #000000; stroke-width: 0.6"/>
      </g>
     </g>
    </g>
    <g id="ytick_34">
     <g id="line2d_55">
      <g>
       <use xlink:href="#mae73454acb" x="60.12" y="50.129413" style="stroke: #000000; stroke-width: 0.6"/>
      </g>
     </g>
    </g>
    <g id="text_15">
     <!-- ITC $\mathrm{W} / (\mathrm{K} \cdot \mathrm{m}^2)$ -->
     <g transform="translate(31.275 435.243) rotate(-90) scale(0.3 -0.3)">
      <defs>
       <path id="LiberationSans-49" d="M 591 0 
L 591 4403 
L 1188 4403 
L 1188 0 
L 591 0 
z
" transform="scale(0.015625)"/>
       <path id="LiberationSans-43" d="M 2475 3981 
Q 1744 3981 1337 3511 
Q 931 3041 931 2222 
Q 931 1413 1354 920 
Q 1778 428 2500 428 
Q 3425 428 3891 1344 
L 4378 1100 
Q 4106 531 3614 234 
Q 3122 -63 2472 -63 
Q 1806 -63 1320 214 
Q 834 491 579 1005 
Q 325 1519 325 2222 
Q 325 3275 894 3872 
Q 1463 4469 2469 4469 
Q 3172 4469 3644 4194 
Q 4116 3919 4338 3378 
L 3772 3191 
Q 3619 3575 3280 3778 
Q 2941 3981 2475 3981 
z
" transform="scale(0.015625)"/>
       <path id="STIXGeneral-Regular-57" d="M 5965 4237 
L 5965 4115 
Q 5709 4064 5616 3990 
Q 5523 3917 5434 3667 
Q 4704 1709 4128 -70 
L 4032 -70 
Q 3642 1011 3008 2637 
L 2022 -70 
L 1926 -70 
Q 1709 576 1277 1753 
Q 845 2931 698 3347 
Q 538 3808 406 3958 
Q 275 4109 32 4115 
L 32 4237 
L 1594 4237 
L 1594 4115 
Q 1357 4109 1270 4064 
Q 1184 4019 1184 3917 
Q 1184 3808 1254 3616 
L 2176 1210 
L 2842 3021 
L 2662 3501 
Q 2509 3917 2400 4013 
Q 2291 4109 2010 4115 
L 2010 4237 
L 3706 4237 
L 3706 4115 
Q 3213 4102 3213 3891 
Q 3213 3808 3322 3520 
L 4237 1190 
L 5043 3360 
Q 5152 3667 5152 3853 
Q 5152 4109 4704 4115 
L 4704 4237 
L 5965 4237 
z
" transform="scale(0.015625)"/>
       <path id="STIXGeneral-Regular-2f" d="M 1837 4326 
L 378 -90 
L -58 -90 
L 1408 4326 
L 1837 4326 
z
" transform="scale(0.015625)"/>
       <path id="STIXGeneral-Regular-28" d="M 1946 -1030 
L 1869 -1133 
Q 1126 -710 716 32 
Q 307 774 307 1613 
Q 307 3386 1888 4326 
L 1946 4224 
Q 1293 3667 1075 3126 
Q 858 2586 858 1632 
Q 858 685 1082 96 
Q 1306 -493 1946 -1030 
z
" transform="scale(0.015625)"/>
       <path id="STIXGeneral-Regular-4b" d="M 4627 0 
L 2688 0 
L 2688 122 
L 2861 128 
Q 3130 134 3130 282 
Q 3130 397 2922 643 
Q 2714 890 2253 1370 
L 1613 2029 
L 1446 1894 
L 1446 710 
Q 1446 352 1548 253 
Q 1651 154 2016 122 
L 2016 0 
L 211 0 
L 211 122 
Q 589 141 691 262 
Q 794 384 794 800 
L 794 3514 
Q 794 3872 691 3981 
Q 589 4090 218 4115 
L 218 4237 
L 2022 4237 
L 2022 4115 
Q 1632 4090 1539 3987 
Q 1446 3885 1446 3507 
L 1446 2227 
L 2586 3277 
Q 2861 3533 2973 3667 
Q 3085 3802 3085 3910 
Q 3085 4013 3030 4057 
Q 2976 4102 2822 4109 
L 2662 4115 
L 2662 4237 
L 4320 4237 
L 4320 4115 
Q 3994 4090 3824 4003 
Q 3654 3917 3322 3597 
L 2131 2458 
L 3629 819 
Q 4026 384 4214 253 
Q 4403 122 4627 122 
L 4627 0 
z
" transform="scale(0.015625)"/>
       <path id="STIXGeneral-Regular-22c5" d="M 1187 1888 
Q 1299 1773 1299 1619 
Q 1299 1466 1187 1350 
Q 1075 1235 921 1235 
Q 768 1235 649 1353 
Q 531 1472 531 1619 
Q 531 1766 649 1884 
Q 768 2003 921 2003 
Q 1075 2003 1187 1888 
z
" transform="scale(0.015625)"/>
       <path id="STIXGeneral-Regular-6d" d="M 4960 0 
L 3565 0 
L 3565 96 
Q 3834 122 3907 208 
Q 3981 294 3981 576 
L 3981 1894 
Q 3981 2278 3869 2444 
Q 3757 2611 3488 2611 
Q 3264 2611 3107 2521 
Q 2950 2432 2803 2221 
L 2803 608 
Q 2803 301 2896 201 
Q 2989 102 3264 96 
L 3264 0 
L 1830 0 
L 1830 96 
Q 2112 115 2189 188 
Q 2266 262 2266 550 
L 2266 1901 
Q 2266 2611 1850 2611 
Q 1670 2611 1468 2531 
Q 1267 2451 1171 2336 
Q 1088 2240 1088 2227 
L 1088 448 
Q 1088 243 1177 176 
Q 1267 109 1523 96 
L 1523 0 
L 102 0 
L 102 96 
Q 371 102 460 195 
Q 550 288 550 563 
L 550 2150 
Q 550 2387 499 2480 
Q 448 2573 326 2573 
Q 230 2573 122 2547 
L 122 2656 
Q 557 2778 1011 2944 
L 1062 2925 
L 1062 2451 
L 1075 2451 
Q 1363 2752 1584 2848 
Q 1805 2944 2054 2944 
Q 2560 2944 2733 2406 
Q 3232 2944 3776 2944 
Q 4518 2944 4518 1792 
L 4518 493 
Q 4518 282 4582 202 
Q 4646 122 4794 109 
L 4960 96 
L 4960 0 
z
" transform="scale(0.015625)"/>
       <path id="STIXGeneral-Regular-32" d="M 3034 877 
L 2688 0 
L 186 0 
L 186 77 
L 1325 1286 
Q 1773 1754 1965 2144 
Q 2157 2534 2157 2950 
Q 2157 3379 1920 3616 
Q 1683 3853 1267 3853 
Q 922 3853 720 3673 
Q 518 3494 326 3021 
L 192 3053 
Q 301 3648 630 3987 
Q 960 4326 1523 4326 
Q 2054 4326 2380 4006 
Q 2707 3686 2707 3200 
Q 2707 2477 1888 1613 
L 832 486 
L 2330 486 
Q 2541 486 2665 569 
Q 2790 653 2944 915 
L 3034 877 
z
" transform="scale(0.015625)"/>
       <path id="STIXGeneral-Regular-29" d="M 186 4224 
L 262 4326 
Q 992 3891 1408 3148 
Q 1824 2406 1824 1581 
Q 1824 -166 243 -1133 
L 186 -1030 
Q 845 -486 1059 54 
Q 1274 595 1274 1562 
Q 1274 2534 1059 3120 
Q 845 3706 186 4224 
z
" transform="scale(0.015625)"/>
      </defs>
      <use xlink:href="#LiberationSans-49" transform="translate(0 0.409375)"/>
      <use xlink:href="#LiberationSans-54" transform="translate(27.783203 0.409375)"/>
      <use xlink:href="#LiberationSans-43" transform="translate(88.867188 0.409375)"/>
      <use xlink:href="#LiberationSans-20" transform="translate(161.083984 0.409375)"/>
      <use xlink:href="#STIXGeneral-Regular-57" transform="translate(188.867188 0.409375)"/>
      <use xlink:href="#STIXGeneral-Regular-2f" transform="translate(283.267181 0.409375)"/>
      <use xlink:href="#STIXGeneral-Regular-28" transform="translate(311.067169 0.409375)"/>
      <use xlink:href="#STIXGeneral-Regular-4b" transform="translate(344.367157 0.409375)"/>
      <use xlink:href="#STIXGeneral-Regular-22c5" transform="translate(431.007135 0.409375)"/>
      <use xlink:href="#STIXGeneral-Regular-6d" transform="translate(474.047122 0.409375)"/>
      <use xlink:href="#STIXGeneral-Regular-32" transform="translate(553.390391 35.684375) scale(0.7)"/>
      <use xlink:href="#STIXGeneral-Regular-29" transform="translate(592.799756 0.409375)"/>
     </g>
    </g>
    <g id="text_16">
     <!-- $\times\mathdefault{10^{7}}\mathdefault{}$ -->
     <g transform="translate(60.12 36.1875) scale(0.4 -0.4)">
      <defs>
       <path id="STIXGeneral-Regular-d7" d="M 3821 141 
L 3526 -160 
L 2048 1312 
L 570 -160 
L 275 134 
L 1747 1613 
L 275 3091 
L 576 3386 
L 2048 1914 
L 3526 3386 
L 3821 3098 
L 2349 1613 
L 3821 141 
z
" transform="scale(0.015625)"/>
       <path id="LiberationSans-37" d="M 3238 3947 
Q 2563 2916 2284 2331 
Q 2006 1747 1867 1178 
Q 1728 609 1728 0 
L 1141 0 
Q 1141 844 1498 1776 
Q 1856 2709 2694 3925 
L 328 3925 
L 328 4403 
L 3238 4403 
L 3238 3947 
z
" transform="scale(0.015625)"/>
      </defs>
      <use xlink:href="#STIXGeneral-Regular-d7" transform="translate(0 0.8625)"/>
      <use xlink:href="#LiberationSans-31" transform="translate(63.999985 0.8625)"/>
      <use xlink:href="#LiberationSans-30" transform="translate(119.615219 0.8625)"/>
      <use xlink:href="#LiberationSans-37" transform="translate(176.154946 37.842188) scale(0.7)"/>
     </g>
    </g>
   </g>
   <g id="line2d_56">
    <path d="M 89.326091 615.743455 
L 90.494685 288.406853 
L 91.137412 163.386221 
L 91.663279 99.652364 
L 92.072287 73.831305 
L 92.364436 66.964973 
L 92.481295 66.648224 
L 92.598155 67.603917 
L 92.831874 72.986775 
L 93.182452 88.373879 
L 93.708319 122.933011 
L 95.753359 268.360416 
L 96.396086 295.139457 
L 96.980383 310.95313 
L 97.56468 320.874933 
L 98.148977 327.03364 
L 98.791704 331.389962 
L 99.55129 334.998482 
L 100.369306 337.929411 
L 101.128892 339.883708 
L 101.71319 340.8664 
L 102.297487 341.429184 
L 102.940214 341.72979 
L 103.933519 342.151381 
L 104.517816 342.707892 
L 105.102113 343.613075 
L 105.74484 345.065162 
L 106.504426 347.382766 
L 107.73145 352.056683 
L 109.133763 357.141058 
L 111.412522 364.606545 
L 112.113678 368.352347 
L 112.990124 374.361441 
L 115.385742 391.664136 
L 115.911609 393.68546 
L 116.262188 394.320966 
L 116.495906 394.38932 
L 116.729625 394.158523 
L 117.021774 393.447116 
L 117.430782 391.685214 
L 117.956649 388.243044 
L 118.716235 381.536835 
L 120.352267 366.67368 
L 120.878135 363.785391 
L 121.287143 362.556054 
L 121.579291 362.251791 
L 121.75458 362.296917 
L 121.988299 362.613228 
L 122.338877 363.595109 
L 122.806315 365.697944 
L 123.565901 370.382405 
L 125.085074 379.958712 
L 125.78623 382.909009 
L 126.370528 384.458838 
L 126.896395 385.287106 
L 127.480692 385.781733 
L 129.467302 387.073969 
L 131.395483 388.924673 
L 131.804491 388.972699 
L 132.213499 388.798087 
L 132.622507 388.379613 
L 133.148374 387.500104 
L 133.96639 385.603687 
L 135.602422 381.732182 
L 136.303578 380.671655 
L 137.238454 379.714852 
L 139.517212 377.779055 
L 139.92622 377.781307 
L 140.276799 378.033541 
L 140.685807 378.6767 
L 141.153244 379.888109 
L 141.795971 382.271777 
L 143.198284 388.731779 
L 144.07473 392.131985 
L 144.659027 393.563497 
L 145.126465 394.150227 
L 145.477043 394.261494 
L 145.827621 394.110244 
L 146.236629 393.644432 
L 146.762497 392.664826 
L 147.522083 390.686228 
L 149.216544 386.075165 
L 149.859271 384.981181 
L 150.385139 384.493753 
L 150.852576 384.372328 
L 151.320014 384.513408 
L 151.845881 384.927733 
L 152.605468 385.840904 
L 154.884226 388.75176 
L 155.819102 389.497594 
L 156.753977 389.955985 
L 157.805712 390.22463 
L 158.682158 390.245777 
L 159.383314 390.055563 
L 160.084471 389.636662 
L 160.960916 388.824839 
L 162.772237 387.066154 
L 163.473394 386.716573 
L 164.116121 386.649228 
L 164.817277 386.824869 
L 167.271325 387.701459 
L 167.972482 387.576792 
L 168.732068 387.195251 
L 170.952397 385.88916 
L 171.595124 385.842779 
L 172.23785 386.019164 
L 173.055866 386.502591 
L 175.685203 388.286599 
L 176.678508 388.562464 
L 178.139251 388.691616 
L 179.892143 388.909992 
L 181.352885 389.046377 
L 182.229331 388.883053 
L 183.164206 388.460907 
L 185.150817 387.49032 
L 185.851973 387.423788 
L 186.55313 387.578336 
L 187.371146 388.001671 
L 188.656599 388.970969 
L 189.825193 389.753912 
L 190.52635 389.971808 
L 191.169077 389.936363 
L 191.811804 389.663382 
L 192.57139 389.082133 
L 195.025438 386.995499 
L 195.785024 386.766433 
L 196.719899 386.749366 
L 199.991963 387.087757 
L 200.926838 387.434565 
L 201.920143 388.063572 
L 203.264027 388.903518 
L 203.848324 389.00394 
L 204.315762 388.872428 
L 204.783199 388.514866 
L 205.309067 387.818804 
L 205.951794 386.570009 
L 207.120388 383.655509 
L 208.288982 380.968049 
L 208.990138 379.861795 
L 209.574436 379.330542 
L 210.041873 379.16613 
L 210.509311 379.219435 
L 211.093608 379.542873 
L 211.853194 380.254869 
L 213.781375 382.183589 
L 214.540961 382.572487 
L 215.242118 382.691317 
L 216.118563 382.604271 
L 217.228728 382.264457 
L 218.631041 381.58115 
L 221.085089 380.335901 
L 222.078394 380.109878 
L 223.130128 380.109525 
L 226.051614 380.281663 
L 227.161779 380.029723 
L 229.382108 379.447773 
L 230.316983 379.497308 
L 231.427147 379.807782 
L 232.88789 380.196156 
L 233.822766 380.206378 
L 235.049789 379.9638 
L 236.510532 379.711602 
L 237.386978 379.7851 
L 238.497142 380.128973 
L 239.724166 380.462799 
L 240.425323 380.43509 
L 241.126479 380.188822 
L 242.002925 379.631015 
L 243.989535 378.282589 
L 244.749121 378.087945 
L 245.508708 378.120016 
L 246.677302 378.431484 
L 247.787466 378.653017 
L 248.430193 378.570012 
L 249.07292 378.260837 
L 249.774077 377.659386 
L 250.708952 376.529726 
L 252.520273 374.273223 
L 253.279859 373.69848 
L 253.981016 373.44606 
L 254.682172 373.430701 
L 255.500188 373.643697 
L 256.435064 374.132645 
L 257.369939 374.875583 
L 258.363244 375.974108 
L 261.343159 379.582398 
L 261.869027 379.750581 
L 262.336464 379.64949 
L 262.803902 379.289516 
L 263.329769 378.577088 
L 264.030926 377.190456 
L 266.426544 371.956781 
L 267.010841 371.339854 
L 267.478279 371.126029 
L 267.945717 371.14411 
L 268.471584 371.396581 
L 269.23117 372.056231 
L 271.21778 373.920146 
L 272.035796 374.325203 
L 272.912242 374.498086 
L 278.579924 374.884534 
L 280.683394 374.827353 
L 281.735128 375.057413 
L 283.137441 375.635828 
L 284.481325 376.120811 
L 285.240911 376.175867 
L 286.000497 376.003753 
L 286.993802 375.509071 
L 288.571405 374.713046 
L 289.272561 374.610818 
L 289.973718 374.730609 
L 290.850163 375.133253 
L 293.012063 376.260823 
L 293.888508 376.386163 
L 294.881813 376.274711 
L 298.095447 375.717955 
L 299.49776 375.465524 
L 300.666355 375.00064 
L 303.237262 373.850216 
L 304.113708 373.781171 
L 304.990153 373.937486 
L 306.041888 374.377248 
L 308.086928 375.295818 
L 308.963374 375.420526 
L 309.956679 375.31717 
L 312.235437 374.727231 
L 315.332212 374.116859 
L 316.208658 374.180707 
L 317.026674 374.470773 
L 317.903119 375.035608 
L 319.8313 376.402886 
L 320.357167 376.472742 
L 320.824605 376.316793 
L 321.292043 375.927273 
L 321.87634 375.103905 
L 322.635926 373.55628 
L 324.680966 369.055674 
L 325.265263 368.332093 
L 325.732701 368.042475 
L 326.200138 368.012439 
L 326.667576 368.216357 
L 327.251873 368.733363 
L 328.362038 370.109596 
L 329.355343 371.188891 
L 329.998069 371.568739 
L 330.523937 371.641173 
L 331.108234 371.484195 
L 331.86782 371.009076 
L 333.562282 369.858422 
L 334.321868 369.651133 
L 335.081454 369.677899 
L 336.074759 369.95638 
L 341.859301 371.94936 
L 342.794176 372.030734 
L 343.612192 371.88656 
L 344.605497 371.473077 
L 346.533678 370.623821 
L 347.468553 370.488009 
L 348.461858 370.590939 
L 351.850781 371.160113 
L 353.311524 371.36863 
L 354.246399 371.737254 
L 355.298134 372.41577 
L 357.167885 373.677211 
L 357.810612 373.828377 
L 358.453339 373.745705 
L 359.154495 373.404511 
L 360.1478 372.623099 
L 361.608543 371.5057 
L 362.426559 371.16114 
L 363.361434 371.018473 
L 366.16606 370.795977 
L 368.970686 370.264624 
L 369.905562 370.407929 
L 371.132586 370.847982 
L 376.917127 373.143013 
L 377.559854 373.127632 
L 378.144151 372.882976 
L 378.670018 372.424025 
L 379.254316 371.606933 
L 379.955472 370.189039 
L 380.831918 367.860107 
L 382.701668 362.705039 
L 383.402825 361.457335 
L 383.987122 360.817313 
L 384.51299 360.534517 
L 385.038857 360.482866 
L 385.681584 360.65136 
L 386.791748 361.234102 
L 388.135632 361.857375 
L 389.187366 362.081774 
L 392.868438 362.587588 
L 396.783229 363.764612 
L 399.061987 363.960746 
L 401.925043 364.138473 
L 403.035208 363.913273 
L 405.021818 363.454214 
L 405.781404 363.542555 
L 406.59942 363.869543 
L 409.871484 365.472375 
L 411.741235 366.076182 
L 412.67611 366.647301 
L 414.954869 368.194834 
L 415.539166 368.265289 
L 416.065033 368.121117 
L 416.64933 367.72863 
L 417.408917 366.913757 
L 420.213543 363.544826 
L 420.914699 363.193126 
L 421.615856 363.087448 
L 422.492301 363.206705 
L 424.362052 363.534801 
L 425.121638 363.407608 
L 425.939654 363.040907 
L 427.108249 362.236007 
L 429.036429 360.912718 
L 430.088164 360.457935 
L 430.90618 360.318498 
L 431.607336 360.421524 
L 432.250063 360.760417 
L 432.89279 361.355728 
L 433.710806 362.439416 
L 436.223284 366.028742 
L 436.807581 366.386676 
L 437.275018 366.423226 
L 437.742456 366.208364 
L 438.209894 365.734436 
L 438.794191 364.794261 
L 439.553777 363.098022 
L 441.774106 357.794545 
L 442.416833 356.884815 
L 443.00113 356.419374 
L 443.526997 356.27054 
L 444.111294 356.345944 
L 444.92931 356.708897 
L 446.506913 357.427097 
L 447.266499 357.503026 
L 448.084515 357.337935 
L 450.889141 356.519777 
L 451.940876 356.615088 
L 454.219634 356.897881 
L 455.271369 356.743278 
L 460.646903 355.307338 
L 462.808802 354.354073 
L 463.451529 354.39111 
L 464.035826 354.651243 
L 464.736982 355.242479 
L 465.788717 356.495836 
L 467.1326 358.025062 
L 467.892187 358.549781 
L 468.534914 358.742101 
L 469.23607 358.714751 
L 470.112516 358.436699 
L 472.040696 357.752335 
L 472.975572 357.703592 
L 474.319455 357.901414 
L 475.897057 358.076882 
L 478.993832 358.216363 
L 481.798458 358.839133 
L 482.499614 358.640669 
L 483.200771 358.19848 
L 484.077217 357.352238 
L 486.589694 354.719611 
L 487.34928 354.307682 
L 488.050437 354.161335 
L 488.751593 354.230059 
L 489.45275 354.517362 
L 490.153907 355.052732 
L 490.913493 355.92368 
L 491.848368 357.373179 
L 494.360846 361.533139 
L 494.945143 362.002125 
L 495.41258 362.10693 
L 495.821588 361.971611 
L 496.289026 361.538342 
L 496.814894 360.699125 
L 497.45762 359.21952 
L 498.567785 355.966735 
L 499.56109 353.327602 
L 500.203817 352.154703 
L 500.729684 351.578265 
L 501.197122 351.34889 
L 501.66456 351.351911 
L 502.248857 351.609727 
L 503.066873 352.261075 
L 504.936623 353.807674 
L 505.871499 354.269339 
L 506.981663 354.564096 
L 508.792984 354.78273 
L 510.136868 354.754805 
L 511.422321 354.493139 
L 513.876369 353.913105 
L 514.869674 353.956229 
L 515.979839 354.238282 
L 518.550746 354.995442 
L 519.485621 354.964973 
L 522.056529 354.680872 
L 522.757685 354.943495 
L 523.575701 355.50953 
L 525.971319 357.360296 
L 526.672476 357.542264 
L 527.432062 357.51101 
L 528.542226 357.20924 
L 530.119829 356.807877 
L 531.463712 356.731627 
L 534.794206 356.871056 
L 536.780816 357.214036 
L 537.94941 357.310815 
L 538.825856 357.167365 
L 539.702301 356.79204 
L 540.754036 356.072713 
L 542.623787 354.764565 
L 543.617092 354.365571 
L 544.610397 354.20086 
L 545.837421 354.237299 
L 547.531882 354.532559 
L 548.700477 354.941644 
L 549.752211 355.556651 
L 551.212954 356.726092 
L 552.381548 357.551864 
L 553.082705 357.783741 
L 553.608572 357.746349 
L 554.13444 357.482902 
L 554.660307 356.960724 
L 555.244604 356.059677 
L 555.945761 354.557309 
L 557.231214 351.120938 
L 558.16609 348.955678 
L 558.808817 347.954578 
L 559.334684 347.491233 
L 559.802122 347.350444 
L 560.269559 347.439355 
L 560.853857 347.813088 
L 561.730302 348.710239 
L 563.249475 350.28442 
L 564.067491 350.801622 
L 564.885507 351.050705 
L 566.22939 351.171899 
L 568.800297 351.272411 
L 569.559883 351.005232 
L 570.436329 350.444209 
L 572.481369 349.004452 
L 573.124096 348.868456 
L 573.708393 348.974955 
L 574.35112 349.326775 
L 575.285995 350.137264 
L 577.038886 351.689581 
L 577.798473 352.047641 
L 578.616489 352.174951 
L 579.960372 352.097373 
L 581.304255 352.094228 
L 582.648139 352.346919 
L 586.738218 353.468835 
L 587.614664 354.03022 
L 588.666399 355.001228 
L 590.47772 356.729114 
L 591.178876 357.065773 
L 591.763173 357.116046 
L 592.4059 356.933141 
L 593.165487 356.447293 
L 596.262261 354.117817 
L 597.372426 353.768092 
L 598.950028 353.294243 
L 599.768044 352.774839 
L 600.64449 351.924641 
L 603.449116 348.913288 
L 604.208702 348.590446 
L 605.085148 348.483765 
L 606.312171 348.588276 
L 607.305477 348.862251 
L 608.065063 349.290522 
L 608.824649 349.98185 
L 609.759524 351.160375 
L 611.337127 353.179412 
L 611.921424 353.549329 
L 612.330432 353.578588 
L 612.73944 353.382034 
L 613.206877 352.861573 
L 613.732745 351.908408 
L 614.433901 350.12139 
L 616.595801 344.143625 
L 617.180098 343.323438 
L 617.647535 343.030496 
L 618.056543 343.024982 
L 618.523981 343.259445 
L 619.166708 343.877076 
L 621.328607 346.204874 
L 622.029764 346.537422 
L 622.73092 346.627874 
L 623.782655 346.502126 
L 625.184968 346.373279 
L 628.92447 346.348632 
L 630.443642 346.22886 
L 631.378517 346.389917 
L 632.371822 346.80372 
L 634.767441 347.898846 
L 635.760746 348.064274 
L 636.98777 348.014286 
L 638.799091 347.94851 
L 641.895865 348.021102 
L 642.713881 347.678158 
L 643.707186 346.992773 
L 645.518507 345.710713 
L 646.219664 345.489835 
L 646.92082 345.501725 
L 647.738836 345.761869 
L 649.783876 346.54383 
L 650.543462 346.531251 
L 651.536768 346.265468 
L 652.880651 345.913186 
L 653.581807 345.958559 
L 654.282964 346.22536 
L 655.15941 346.824822 
L 657.671887 348.74987 
L 658.373044 348.900741 
L 659.015771 348.800936 
L 659.716927 348.436339 
L 660.593373 347.698384 
L 663.16428 345.354288 
L 663.923866 345.032377 
L 664.566593 344.994136 
L 665.15089 345.185034 
L 665.735187 345.612649 
L 666.436344 346.428666 
L 667.371219 347.912534 
L 669.065681 350.656161 
L 669.708408 351.288565 
L 670.234275 351.501145 
L 670.643283 351.446669 
L 671.110721 351.13391 
L 671.636588 350.462228 
L 672.279315 349.230037 
L 673.21419 346.874922 
L 673.447909 346.238295 
L 673.447909 346.238295 
" clip-path="url(#pd9176911ce)" style="fill: none; stroke: #0000ff; stroke-width: 1.5; stroke-linecap: square"/>
   </g>
   <g id="patch_3">
    <path d="M 60.12 643.1985 
L 60.12 39.1875 
" style="fill: none; stroke: #000000; stroke-width: 0.8; stroke-linejoin: miter; stroke-linecap: square"/>
   </g>
   <g id="patch_4">
    <path d="M 702.654 643.1985 
L 702.654 39.1875 
" style="fill: none; stroke: #000000; stroke-width: 0.8; stroke-linejoin: miter; stroke-linecap: square"/>
   </g>
   <g id="patch_5">
    <path d="M 60.12 643.1985 
L 702.654 643.1985 
" style="fill: none; stroke: #000000; stroke-width: 0.8; stroke-linejoin: miter; stroke-linecap: square"/>
   </g>
   <g id="patch_6">
    <path d="M 60.12 39.1875 
L 702.654 39.1875 
" style="fill: none; stroke: #000000; stroke-width: 0.8; stroke-linejoin: miter; stroke-linecap: square"/>
   </g>
  </g>
 </g>
 <defs>
  <clipPath id="pd9176911ce">
   <rect x="60.12" y="39.1875" width="642.534" height="604.011"/>
  </clipPath>
 </defs>
</svg>
