<?xml version="1.0" encoding="utf-8" standalone="no"?>
<!DOCTYPE svg PUBLIC "-//W3C//DTD SVG 1.1//EN"
  "http://www.w3.org/Graphics/SVG/1.1/DTD/svg11.dtd">
<svg xmlns:xlink="http://www.w3.org/1999/xlink" width="711.485625pt" height="710.94975pt" viewBox="0 0 711.485625 710.94975" xmlns="http://www.w3.org/2000/svg" version="1.1">
 <metadata>
  <rdf:RDF xmlns:dc="http://purl.org/dc/elements/1.1/" xmlns:cc="http://creativecommons.org/ns#" xmlns:rdf="http://www.w3.org/1999/02/22-rdf-syntax-ns#">
   <cc:Work>
    <dc:type rdf:resource="http://purl.org/dc/dcmitype/StillImage"/>
    <dc:date>2025-02-05T18:29:32.763197</dc:date>
    <dc:format>image/svg+xml</dc:format>
    <dc:creator>
     <cc:Agent>
      <dc:title>Matplotlib v3.9.3, https://matplotlib.org/</dc:title>
     </cc:Agent>
    </dc:creator>
   </cc:Work>
  </rdf:RDF>
 </metadata>
 <defs>
  <style type="text/css">*{stroke-linejoin: round; stroke-linecap: butt}</style>
 </defs>
 <g id="figure_1">
  <g id="patch_1">
   <path d="M 0 710.94975 
L 711.485625 710.94975 
L 711.485625 0 
L 0 0 
z
" style="fill: #ffffff"/>
  </g>
  <g id="axes_1">
   <g id="patch_2">
    <path d="M 59.465625 640.3185 
L 704.285625 640.3185 
L 704.285625 39.1875 
L 59.465625 39.1875 
z
" style="fill: #ffffff"/>
   </g>
   <g id="matplotlib.axis_1">
    <g id="xtick_1">
     <g id="line2d_1">
      <defs>
       <path id="m5ca4ac3c45" d="M 0 0 
L 0 -3.5 
" style="stroke: #000000; stroke-width: 0.8"/>
      </defs>
      <g>
       <use xlink:href="#m5ca4ac3c45" x="88.716993" y="640.3185" style="stroke: #000000; stroke-width: 0.8"/>
      </g>
     </g>
     <g id="text_1">
      <!-- 0 -->
      <g transform="translate(80.375587 665.559125) scale(0.3 -0.3)">
       <defs>
        <path id="LiberationSans-30" d="M 3309 2203 
Q 3309 1100 2920 518 
Q 2531 -63 1772 -63 
Q 1013 -63 631 515 
Q 250 1094 250 2203 
Q 250 3338 620 3903 
Q 991 4469 1791 4469 
Q 2569 4469 2939 3897 
Q 3309 3325 3309 2203 
z
M 2738 2203 
Q 2738 3156 2517 3584 
Q 2297 4013 1791 4013 
Q 1272 4013 1045 3591 
Q 819 3169 819 2203 
Q 819 1266 1048 831 
Q 1278 397 1778 397 
Q 2275 397 2506 840 
Q 2738 1284 2738 2203 
z
" transform="scale(0.015625)"/>
       </defs>
       <use xlink:href="#LiberationSans-30"/>
      </g>
     </g>
    </g>
    <g id="xtick_2">
     <g id="line2d_2">
      <g>
       <use xlink:href="#m5ca4ac3c45" x="205.980446" y="640.3185" style="stroke: #000000; stroke-width: 0.8"/>
      </g>
     </g>
     <g id="text_2">
      <!-- 2 -->
      <g transform="translate(197.63904 665.559125) scale(0.3 -0.3)">
       <defs>
        <path id="LiberationSans-32" d="M 322 0 
L 322 397 
Q 481 763 711 1042 
Q 941 1322 1194 1548 
Q 1447 1775 1695 1969 
Q 1944 2163 2144 2356 
Q 2344 2550 2467 2762 
Q 2591 2975 2591 3244 
Q 2591 3606 2378 3806 
Q 2166 4006 1788 4006 
Q 1428 4006 1195 3811 
Q 963 3616 922 3263 
L 347 3316 
Q 409 3844 795 4156 
Q 1181 4469 1788 4469 
Q 2453 4469 2811 4155 
Q 3169 3841 3169 3263 
Q 3169 3006 3051 2753 
Q 2934 2500 2703 2247 
Q 2472 1994 1819 1463 
Q 1459 1169 1246 933 
Q 1034 697 941 478 
L 3238 478 
L 3238 0 
L 322 0 
z
" transform="scale(0.015625)"/>
       </defs>
       <use xlink:href="#LiberationSans-32"/>
      </g>
     </g>
    </g>
    <g id="xtick_3">
     <g id="line2d_3">
      <g>
       <use xlink:href="#m5ca4ac3c45" x="323.243899" y="640.3185" style="stroke: #000000; stroke-width: 0.8"/>
      </g>
     </g>
     <g id="text_3">
      <!-- 4 -->
      <g transform="translate(314.902492 665.559125) scale(0.3 -0.3)">
       <defs>
        <path id="LiberationSans-34" d="M 2753 997 
L 2753 0 
L 2222 0 
L 2222 997 
L 147 997 
L 147 1434 
L 2163 4403 
L 2753 4403 
L 2753 1441 
L 3372 1441 
L 3372 997 
L 2753 997 
z
M 2222 3769 
Q 2216 3750 2134 3603 
Q 2053 3456 2013 3397 
L 884 1734 
L 716 1503 
L 666 1441 
L 2222 1441 
L 2222 3769 
z
" transform="scale(0.015625)"/>
       </defs>
       <use xlink:href="#LiberationSans-34"/>
      </g>
     </g>
    </g>
    <g id="xtick_4">
     <g id="line2d_4">
      <g>
       <use xlink:href="#m5ca4ac3c45" x="440.507351" y="640.3185" style="stroke: #000000; stroke-width: 0.8"/>
      </g>
     </g>
     <g id="text_4">
      <!-- 6 -->
      <g transform="translate(432.165945 665.559125) scale(0.3 -0.3)">
       <defs>
        <path id="LiberationSans-36" d="M 3278 1441 
Q 3278 744 2900 340 
Q 2522 -63 1856 -63 
Q 1113 -63 719 490 
Q 325 1044 325 2100 
Q 325 3244 734 3856 
Q 1144 4469 1900 4469 
Q 2897 4469 3156 3572 
L 2619 3475 
Q 2453 4013 1894 4013 
Q 1413 4013 1148 3564 
Q 884 3116 884 2266 
Q 1038 2550 1316 2698 
Q 1594 2847 1953 2847 
Q 2563 2847 2920 2465 
Q 3278 2084 3278 1441 
z
M 2706 1416 
Q 2706 1894 2472 2153 
Q 2238 2413 1819 2413 
Q 1425 2413 1183 2183 
Q 941 1953 941 1550 
Q 941 1041 1192 716 
Q 1444 391 1838 391 
Q 2244 391 2475 664 
Q 2706 938 2706 1416 
z
" transform="scale(0.015625)"/>
       </defs>
       <use xlink:href="#LiberationSans-36"/>
      </g>
     </g>
    </g>
    <g id="xtick_5">
     <g id="line2d_5">
      <g>
       <use xlink:href="#m5ca4ac3c45" x="557.770804" y="640.3185" style="stroke: #000000; stroke-width: 0.8"/>
      </g>
     </g>
     <g id="text_5">
      <!-- 8 -->
      <g transform="translate(549.429398 665.559125) scale(0.3 -0.3)">
       <defs>
        <path id="LiberationSans-38" d="M 3281 1228 
Q 3281 619 2893 278 
Q 2506 -63 1781 -63 
Q 1075 -63 676 271 
Q 278 606 278 1222 
Q 278 1653 525 1947 
Q 772 2241 1156 2303 
L 1156 2316 
Q 797 2400 589 2681 
Q 381 2963 381 3341 
Q 381 3844 757 4156 
Q 1134 4469 1769 4469 
Q 2419 4469 2795 4162 
Q 3172 3856 3172 3334 
Q 3172 2956 2962 2675 
Q 2753 2394 2391 2322 
L 2391 2309 
Q 2813 2241 3047 1952 
Q 3281 1663 3281 1228 
z
M 2588 3303 
Q 2588 4050 1769 4050 
Q 1372 4050 1164 3862 
Q 956 3675 956 3303 
Q 956 2925 1170 2726 
Q 1384 2528 1775 2528 
Q 2172 2528 2380 2711 
Q 2588 2894 2588 3303 
z
M 2697 1281 
Q 2697 1691 2453 1898 
Q 2209 2106 1769 2106 
Q 1341 2106 1100 1882 
Q 859 1659 859 1269 
Q 859 359 1788 359 
Q 2247 359 2472 579 
Q 2697 800 2697 1281 
z
" transform="scale(0.015625)"/>
       </defs>
       <use xlink:href="#LiberationSans-38"/>
      </g>
     </g>
    </g>
    <g id="xtick_6">
     <g id="line2d_6">
      <g>
       <use xlink:href="#m5ca4ac3c45" x="675.034257" y="640.3185" style="stroke: #000000; stroke-width: 0.8"/>
      </g>
     </g>
     <g id="text_6">
      <!-- 10 -->
      <g transform="translate(658.351444 665.559125) scale(0.3 -0.3)">
       <defs>
        <path id="LiberationSans-31" d="M 488 0 
L 488 478 
L 1609 478 
L 1609 3866 
L 616 3156 
L 616 3688 
L 1656 4403 
L 2175 4403 
L 2175 478 
L 3247 478 
L 3247 0 
L 488 0 
z
" transform="scale(0.015625)"/>
       </defs>
       <use xlink:href="#LiberationSans-31"/>
       <use xlink:href="#LiberationSans-30" x="55.615234"/>
      </g>
     </g>
    </g>
    <g id="xtick_7">
     <g id="line2d_7">
      <defs>
       <path id="m46d901c27f" d="M 0 0 
L 0 -2 
" style="stroke: #000000; stroke-width: 0.6"/>
      </defs>
      <g>
       <use xlink:href="#m46d901c27f" x="118.032856" y="640.3185" style="stroke: #000000; stroke-width: 0.6"/>
      </g>
     </g>
    </g>
    <g id="xtick_8">
     <g id="line2d_8">
      <g>
       <use xlink:href="#m46d901c27f" x="147.34872" y="640.3185" style="stroke: #000000; stroke-width: 0.6"/>
      </g>
     </g>
    </g>
    <g id="xtick_9">
     <g id="line2d_9">
      <g>
       <use xlink:href="#m46d901c27f" x="176.664583" y="640.3185" style="stroke: #000000; stroke-width: 0.6"/>
      </g>
     </g>
    </g>
    <g id="xtick_10">
     <g id="line2d_10">
      <g>
       <use xlink:href="#m46d901c27f" x="235.296309" y="640.3185" style="stroke: #000000; stroke-width: 0.6"/>
      </g>
     </g>
    </g>
    <g id="xtick_11">
     <g id="line2d_11">
      <g>
       <use xlink:href="#m46d901c27f" x="264.612172" y="640.3185" style="stroke: #000000; stroke-width: 0.6"/>
      </g>
     </g>
    </g>
    <g id="xtick_12">
     <g id="line2d_12">
      <g>
       <use xlink:href="#m46d901c27f" x="293.928035" y="640.3185" style="stroke: #000000; stroke-width: 0.6"/>
      </g>
     </g>
    </g>
    <g id="xtick_13">
     <g id="line2d_13">
      <g>
       <use xlink:href="#m46d901c27f" x="352.559762" y="640.3185" style="stroke: #000000; stroke-width: 0.6"/>
      </g>
     </g>
    </g>
    <g id="xtick_14">
     <g id="line2d_14">
      <g>
       <use xlink:href="#m46d901c27f" x="381.875625" y="640.3185" style="stroke: #000000; stroke-width: 0.6"/>
      </g>
     </g>
    </g>
    <g id="xtick_15">
     <g id="line2d_15">
      <g>
       <use xlink:href="#m46d901c27f" x="411.191488" y="640.3185" style="stroke: #000000; stroke-width: 0.6"/>
      </g>
     </g>
    </g>
    <g id="xtick_16">
     <g id="line2d_16">
      <g>
       <use xlink:href="#m46d901c27f" x="469.823215" y="640.3185" style="stroke: #000000; stroke-width: 0.6"/>
      </g>
     </g>
    </g>
    <g id="xtick_17">
     <g id="line2d_17">
      <g>
       <use xlink:href="#m46d901c27f" x="499.139078" y="640.3185" style="stroke: #000000; stroke-width: 0.6"/>
      </g>
     </g>
    </g>
    <g id="xtick_18">
     <g id="line2d_18">
      <g>
       <use xlink:href="#m46d901c27f" x="528.454941" y="640.3185" style="stroke: #000000; stroke-width: 0.6"/>
      </g>
     </g>
    </g>
    <g id="xtick_19">
     <g id="line2d_19">
      <g>
       <use xlink:href="#m46d901c27f" x="587.086667" y="640.3185" style="stroke: #000000; stroke-width: 0.6"/>
      </g>
     </g>
    </g>
    <g id="xtick_20">
     <g id="line2d_20">
      <g>
       <use xlink:href="#m46d901c27f" x="616.40253" y="640.3185" style="stroke: #000000; stroke-width: 0.6"/>
      </g>
     </g>
    </g>
    <g id="xtick_21">
     <g id="line2d_21">
      <g>
       <use xlink:href="#m46d901c27f" x="645.718394" y="640.3185" style="stroke: #000000; stroke-width: 0.6"/>
      </g>
     </g>
    </g>
    <g id="text_7">
     <!-- Time ps -->
     <g transform="translate(329.099063 697.52475) scale(0.3 -0.3)">
      <defs>
       <path id="LiberationSans-54" d="M 2250 3916 
L 2250 0 
L 1656 0 
L 1656 3916 
L 144 3916 
L 144 4403 
L 3763 4403 
L 3763 3916 
L 2250 3916 
z
" transform="scale(0.015625)"/>
       <path id="LiberationSans-69" d="M 428 4100 
L 428 4638 
L 991 4638 
L 991 4100 
L 428 4100 
z
M 428 0 
L 428 3381 
L 991 3381 
L 991 0 
L 428 0 
z
" transform="scale(0.015625)"/>
       <path id="LiberationSans-6d" d="M 2400 0 
L 2400 2144 
Q 2400 2634 2265 2821 
Q 2131 3009 1781 3009 
Q 1422 3009 1212 2734 
Q 1003 2459 1003 1959 
L 1003 0 
L 444 0 
L 444 2659 
Q 444 3250 425 3381 
L 956 3381 
Q 959 3366 962 3297 
Q 966 3228 970 3139 
Q 975 3050 981 2803 
L 991 2803 
Q 1172 3163 1406 3303 
Q 1641 3444 1978 3444 
Q 2363 3444 2586 3291 
Q 2809 3138 2897 2803 
L 2906 2803 
Q 3081 3144 3329 3294 
Q 3578 3444 3931 3444 
Q 4444 3444 4676 3166 
Q 4909 2888 4909 2253 
L 4909 0 
L 4353 0 
L 4353 2144 
Q 4353 2634 4218 2821 
Q 4084 3009 3734 3009 
Q 3366 3009 3161 2736 
Q 2956 2463 2956 1959 
L 2956 0 
L 2400 0 
z
" transform="scale(0.015625)"/>
       <path id="LiberationSans-65" d="M 863 1572 
Q 863 991 1103 675 
Q 1344 359 1806 359 
Q 2172 359 2392 506 
Q 2613 653 2691 878 
L 3184 738 
Q 2881 -63 1806 -63 
Q 1056 -63 664 384 
Q 272 831 272 1713 
Q 272 2550 664 2997 
Q 1056 3444 1784 3444 
Q 3275 3444 3275 1647 
L 3275 1572 
L 863 1572 
z
M 2694 2003 
Q 2647 2538 2422 2783 
Q 2197 3028 1775 3028 
Q 1366 3028 1127 2754 
Q 888 2481 869 2003 
L 2694 2003 
z
" transform="scale(0.015625)"/>
       <path id="LiberationSans-20" transform="scale(0.015625)"/>
       <path id="LiberationSans-70" d="M 3291 1706 
Q 3291 -63 2047 -63 
Q 1266 -63 997 525 
L 981 525 
Q 994 500 994 -6 
L 994 -1328 
L 431 -1328 
L 431 2691 
Q 431 3213 413 3381 
L 956 3381 
Q 959 3369 965 3292 
Q 972 3216 980 3056 
Q 988 2897 988 2838 
L 1000 2838 
Q 1150 3150 1397 3295 
Q 1644 3441 2047 3441 
Q 2672 3441 2981 3022 
Q 3291 2603 3291 1706 
z
M 2700 1694 
Q 2700 2400 2509 2703 
Q 2319 3006 1903 3006 
Q 1569 3006 1380 2865 
Q 1191 2725 1092 2426 
Q 994 2128 994 1650 
Q 994 984 1206 668 
Q 1419 353 1897 353 
Q 2316 353 2508 661 
Q 2700 969 2700 1694 
z
" transform="scale(0.015625)"/>
       <path id="LiberationSans-73" d="M 2969 934 
Q 2969 456 2608 196 
Q 2247 -63 1597 -63 
Q 966 -63 623 145 
Q 281 353 178 794 
L 675 891 
Q 747 619 972 492 
Q 1197 366 1597 366 
Q 2025 366 2223 497 
Q 2422 628 2422 891 
Q 2422 1091 2284 1216 
Q 2147 1341 1841 1422 
L 1438 1528 
Q 953 1653 748 1773 
Q 544 1894 428 2066 
Q 313 2238 313 2488 
Q 313 2950 642 3192 
Q 972 3434 1603 3434 
Q 2163 3434 2492 3237 
Q 2822 3041 2909 2606 
L 2403 2544 
Q 2356 2769 2151 2889 
Q 1947 3009 1603 3009 
Q 1222 3009 1040 2893 
Q 859 2778 859 2544 
Q 859 2400 934 2306 
Q 1009 2213 1156 2147 
Q 1303 2081 1775 1966 
Q 2222 1853 2419 1758 
Q 2616 1663 2730 1547 
Q 2844 1431 2906 1279 
Q 2969 1128 2969 934 
z
" transform="scale(0.015625)"/>
      </defs>
      <use xlink:href="#LiberationSans-54"/>
      <use xlink:href="#LiberationSans-69" x="57.333984"/>
      <use xlink:href="#LiberationSans-6d" x="79.550781"/>
      <use xlink:href="#LiberationSans-65" x="162.851562"/>
      <use xlink:href="#LiberationSans-20" x="218.466797"/>
      <use xlink:href="#LiberationSans-70" x="246.25"/>
      <use xlink:href="#LiberationSans-73" x="301.865234"/>
     </g>
    </g>
   </g>
   <g id="matplotlib.axis_2">
    <g id="ytick_1">
     <g id="line2d_22">
      <defs>
       <path id="m454d73c582" d="M 0 0 
L 3.5 0 
" style="stroke: #000000; stroke-width: 0.8"/>
      </defs>
      <g>
       <use xlink:href="#m454d73c582" x="59.465625" y="612.994364" style="stroke: #000000; stroke-width: 0.8"/>
      </g>
     </g>
     <g id="text_8">
      <!-- $\mathdefault{0}$ -->
      <g transform="translate(39.165625 623.864676) scale(0.3 -0.3)">
       <use xlink:href="#LiberationSans-30" transform="translate(0 0.171875)"/>
      </g>
     </g>
    </g>
    <g id="ytick_2">
     <g id="line2d_23">
      <g>
       <use xlink:href="#m454d73c582" x="59.465625" y="501.242784" style="stroke: #000000; stroke-width: 0.8"/>
      </g>
     </g>
     <g id="text_9">
      <!-- $\mathdefault{1}$ -->
      <g transform="translate(39.165625 512.113096) scale(0.3 -0.3)">
       <use xlink:href="#LiberationSans-31" transform="translate(0 0.203125)"/>
      </g>
     </g>
    </g>
    <g id="ytick_3">
     <g id="line2d_24">
      <g>
       <use xlink:href="#m454d73c582" x="59.465625" y="389.491204" style="stroke: #000000; stroke-width: 0.8"/>
      </g>
     </g>
     <g id="text_10">
      <!-- $\mathdefault{2}$ -->
      <g transform="translate(39.165625 400.361516) scale(0.3 -0.3)">
       <use xlink:href="#LiberationSans-32" transform="translate(0 0.171875)"/>
      </g>
     </g>
    </g>
    <g id="ytick_4">
     <g id="line2d_25">
      <g>
       <use xlink:href="#m454d73c582" x="59.465625" y="277.739624" style="stroke: #000000; stroke-width: 0.8"/>
      </g>
     </g>
     <g id="text_11">
      <!-- $\mathdefault{3}$ -->
      <g transform="translate(39.165625 288.609936) scale(0.3 -0.3)">
       <defs>
        <path id="LiberationSans-33" d="M 3278 1216 
Q 3278 606 2890 271 
Q 2503 -63 1784 -63 
Q 1116 -63 717 239 
Q 319 541 244 1131 
L 825 1184 
Q 938 403 1784 403 
Q 2209 403 2451 612 
Q 2694 822 2694 1234 
Q 2694 1594 2417 1795 
Q 2141 1997 1619 1997 
L 1300 1997 
L 1300 2484 
L 1606 2484 
Q 2069 2484 2323 2686 
Q 2578 2888 2578 3244 
Q 2578 3597 2370 3801 
Q 2163 4006 1753 4006 
Q 1381 4006 1151 3815 
Q 922 3625 884 3278 
L 319 3322 
Q 381 3863 767 4166 
Q 1153 4469 1759 4469 
Q 2422 4469 2789 4161 
Q 3156 3853 3156 3303 
Q 3156 2881 2920 2617 
Q 2684 2353 2234 2259 
L 2234 2247 
Q 2728 2194 3003 1916 
Q 3278 1638 3278 1216 
z
" transform="scale(0.015625)"/>
       </defs>
       <use xlink:href="#LiberationSans-33" transform="translate(0 0.171875)"/>
      </g>
     </g>
    </g>
    <g id="ytick_5">
     <g id="line2d_26">
      <g>
       <use xlink:href="#m454d73c582" x="59.465625" y="165.988044" style="stroke: #000000; stroke-width: 0.8"/>
      </g>
     </g>
     <g id="text_12">
      <!-- $\mathdefault{4}$ -->
      <g transform="translate(39.165625 176.858357) scale(0.3 -0.3)">
       <use xlink:href="#LiberationSans-34" transform="translate(0 0.203125)"/>
      </g>
     </g>
    </g>
    <g id="ytick_6">
     <g id="line2d_27">
      <g>
       <use xlink:href="#m454d73c582" x="59.465625" y="54.236464" style="stroke: #000000; stroke-width: 0.8"/>
      </g>
     </g>
     <g id="text_13">
      <!-- $\mathdefault{5}$ -->
      <g transform="translate(39.165625 65.106777) scale(0.3 -0.3)">
       <defs>
        <path id="LiberationSans-35" d="M 3291 1434 
Q 3291 738 2877 337 
Q 2463 -63 1728 -63 
Q 1113 -63 734 206 
Q 356 475 256 984 
L 825 1050 
Q 1003 397 1741 397 
Q 2194 397 2450 670 
Q 2706 944 2706 1422 
Q 2706 1838 2448 2094 
Q 2191 2350 1753 2350 
Q 1525 2350 1328 2278 
Q 1131 2206 934 2034 
L 384 2034 
L 531 4403 
L 3034 4403 
L 3034 3925 
L 1044 3925 
L 959 2528 
Q 1325 2809 1869 2809 
Q 2519 2809 2905 2428 
Q 3291 2047 3291 1434 
z
" transform="scale(0.015625)"/>
       </defs>
       <use xlink:href="#LiberationSans-35" transform="translate(0 0.203125)"/>
      </g>
     </g>
    </g>
    <g id="ytick_7">
     <g id="line2d_28">
      <defs>
       <path id="m09f0dbe089" d="M 0 0 
L 2 0 
" style="stroke: #000000; stroke-width: 0.6"/>
      </defs>
      <g>
       <use xlink:href="#m09f0dbe089" x="59.465625" y="635.34468" style="stroke: #000000; stroke-width: 0.6"/>
      </g>
     </g>
    </g>
    <g id="ytick_8">
     <g id="line2d_29">
      <g>
       <use xlink:href="#m09f0dbe089" x="59.465625" y="590.644048" style="stroke: #000000; stroke-width: 0.6"/>
      </g>
     </g>
    </g>
    <g id="ytick_9">
     <g id="line2d_30">
      <g>
       <use xlink:href="#m09f0dbe089" x="59.465625" y="568.293732" style="stroke: #000000; stroke-width: 0.6"/>
      </g>
     </g>
    </g>
    <g id="ytick_10">
     <g id="line2d_31">
      <g>
       <use xlink:href="#m09f0dbe089" x="59.465625" y="545.943416" style="stroke: #000000; stroke-width: 0.6"/>
      </g>
     </g>
    </g>
    <g id="ytick_11">
     <g id="line2d_32">
      <g>
       <use xlink:href="#m09f0dbe089" x="59.465625" y="523.5931" style="stroke: #000000; stroke-width: 0.6"/>
      </g>
     </g>
    </g>
    <g id="ytick_12">
     <g id="line2d_33">
      <g>
       <use xlink:href="#m09f0dbe089" x="59.465625" y="478.892468" style="stroke: #000000; stroke-width: 0.6"/>
      </g>
     </g>
    </g>
    <g id="ytick_13">
     <g id="line2d_34">
      <g>
       <use xlink:href="#m09f0dbe089" x="59.465625" y="456.542152" style="stroke: #000000; stroke-width: 0.6"/>
      </g>
     </g>
    </g>
    <g id="ytick_14">
     <g id="line2d_35">
      <g>
       <use xlink:href="#m09f0dbe089" x="59.465625" y="434.191836" style="stroke: #000000; stroke-width: 0.6"/>
      </g>
     </g>
    </g>
    <g id="ytick_15">
     <g id="line2d_36">
      <g>
       <use xlink:href="#m09f0dbe089" x="59.465625" y="411.84152" style="stroke: #000000; stroke-width: 0.6"/>
      </g>
     </g>
    </g>
    <g id="ytick_16">
     <g id="line2d_37">
      <g>
       <use xlink:href="#m09f0dbe089" x="59.465625" y="367.140888" style="stroke: #000000; stroke-width: 0.6"/>
      </g>
     </g>
    </g>
    <g id="ytick_17">
     <g id="line2d_38">
      <g>
       <use xlink:href="#m09f0dbe089" x="59.465625" y="344.790572" style="stroke: #000000; stroke-width: 0.6"/>
      </g>
     </g>
    </g>
    <g id="ytick_18">
     <g id="line2d_39">
      <g>
       <use xlink:href="#m09f0dbe089" x="59.465625" y="322.440256" style="stroke: #000000; stroke-width: 0.6"/>
      </g>
     </g>
    </g>
    <g id="ytick_19">
     <g id="line2d_40">
      <g>
       <use xlink:href="#m09f0dbe089" x="59.465625" y="300.08994" style="stroke: #000000; stroke-width: 0.6"/>
      </g>
     </g>
    </g>
    <g id="ytick_20">
     <g id="line2d_41">
      <g>
       <use xlink:href="#m09f0dbe089" x="59.465625" y="255.389308" style="stroke: #000000; stroke-width: 0.6"/>
      </g>
     </g>
    </g>
    <g id="ytick_21">
     <g id="line2d_42">
      <g>
       <use xlink:href="#m09f0dbe089" x="59.465625" y="233.038992" style="stroke: #000000; stroke-width: 0.6"/>
      </g>
     </g>
    </g>
    <g id="ytick_22">
     <g id="line2d_43">
      <g>
       <use xlink:href="#m09f0dbe089" x="59.465625" y="210.688676" style="stroke: #000000; stroke-width: 0.6"/>
      </g>
     </g>
    </g>
    <g id="ytick_23">
     <g id="line2d_44">
      <g>
       <use xlink:href="#m09f0dbe089" x="59.465625" y="188.33836" style="stroke: #000000; stroke-width: 0.6"/>
      </g>
     </g>
    </g>
    <g id="ytick_24">
     <g id="line2d_45">
      <g>
       <use xlink:href="#m09f0dbe089" x="59.465625" y="143.637728" style="stroke: #000000; stroke-width: 0.6"/>
      </g>
     </g>
    </g>
    <g id="ytick_25">
     <g id="line2d_46">
      <g>
       <use xlink:href="#m09f0dbe089" x="59.465625" y="121.287412" style="stroke: #000000; stroke-width: 0.6"/>
      </g>
     </g>
    </g>
    <g id="ytick_26">
     <g id="line2d_47">
      <g>
       <use xlink:href="#m09f0dbe089" x="59.465625" y="98.937096" style="stroke: #000000; stroke-width: 0.6"/>
      </g>
     </g>
    </g>
    <g id="ytick_27">
     <g id="line2d_48">
      <g>
       <use xlink:href="#m09f0dbe089" x="59.465625" y="76.58678" style="stroke: #000000; stroke-width: 0.6"/>
      </g>
     </g>
    </g>
    <g id="text_14">
     <!-- ITR $\mathrm{K} \cdot \mathrm{m}^2 / \mathrm{W}$ -->
     <g transform="translate(28.940625 423.753) rotate(-90) scale(0.3 -0.3)">
      <defs>
       <path id="LiberationSans-49" d="M 591 0 
L 591 4403 
L 1188 4403 
L 1188 0 
L 591 0 
z
" transform="scale(0.015625)"/>
       <path id="LiberationSans-52" d="M 3638 0 
L 2494 1828 
L 1122 1828 
L 1122 0 
L 525 0 
L 525 4403 
L 2597 4403 
Q 3341 4403 3745 4070 
Q 4150 3738 4150 3144 
Q 4150 2653 3864 2318 
Q 3578 1984 3075 1897 
L 4325 0 
L 3638 0 
z
M 3550 3138 
Q 3550 3522 3289 3723 
Q 3028 3925 2538 3925 
L 1122 3925 
L 1122 2300 
L 2563 2300 
Q 3034 2300 3292 2520 
Q 3550 2741 3550 3138 
z
" transform="scale(0.015625)"/>
       <path id="STIXGeneral-Regular-4b" d="M 4627 0 
L 2688 0 
L 2688 122 
L 2861 128 
Q 3130 134 3130 282 
Q 3130 397 2922 643 
Q 2714 890 2253 1370 
L 1613 2029 
L 1446 1894 
L 1446 710 
Q 1446 352 1548 253 
Q 1651 154 2016 122 
L 2016 0 
L 211 0 
L 211 122 
Q 589 141 691 262 
Q 794 384 794 800 
L 794 3514 
Q 794 3872 691 3981 
Q 589 4090 218 4115 
L 218 4237 
L 2022 4237 
L 2022 4115 
Q 1632 4090 1539 3987 
Q 1446 3885 1446 3507 
L 1446 2227 
L 2586 3277 
Q 2861 3533 2973 3667 
Q 3085 3802 3085 3910 
Q 3085 4013 3030 4057 
Q 2976 4102 2822 4109 
L 2662 4115 
L 2662 4237 
L 4320 4237 
L 4320 4115 
Q 3994 4090 3824 4003 
Q 3654 3917 3322 3597 
L 2131 2458 
L 3629 819 
Q 4026 384 4214 253 
Q 4403 122 4627 122 
L 4627 0 
z
" transform="scale(0.015625)"/>
       <path id="STIXGeneral-Regular-22c5" d="M 1187 1888 
Q 1299 1773 1299 1619 
Q 1299 1466 1187 1350 
Q 1075 1235 921 1235 
Q 768 1235 649 1353 
Q 531 1472 531 1619 
Q 531 1766 649 1884 
Q 768 2003 921 2003 
Q 1075 2003 1187 1888 
z
" transform="scale(0.015625)"/>
       <path id="STIXGeneral-Regular-6d" d="M 4960 0 
L 3565 0 
L 3565 96 
Q 3834 122 3907 208 
Q 3981 294 3981 576 
L 3981 1894 
Q 3981 2278 3869 2444 
Q 3757 2611 3488 2611 
Q 3264 2611 3107 2521 
Q 2950 2432 2803 2221 
L 2803 608 
Q 2803 301 2896 201 
Q 2989 102 3264 96 
L 3264 0 
L 1830 0 
L 1830 96 
Q 2112 115 2189 188 
Q 2266 262 2266 550 
L 2266 1901 
Q 2266 2611 1850 2611 
Q 1670 2611 1468 2531 
Q 1267 2451 1171 2336 
Q 1088 2240 1088 2227 
L 1088 448 
Q 1088 243 1177 176 
Q 1267 109 1523 96 
L 1523 0 
L 102 0 
L 102 96 
Q 371 102 460 195 
Q 550 288 550 563 
L 550 2150 
Q 550 2387 499 2480 
Q 448 2573 326 2573 
Q 230 2573 122 2547 
L 122 2656 
Q 557 2778 1011 2944 
L 1062 2925 
L 1062 2451 
L 1075 2451 
Q 1363 2752 1584 2848 
Q 1805 2944 2054 2944 
Q 2560 2944 2733 2406 
Q 3232 2944 3776 2944 
Q 4518 2944 4518 1792 
L 4518 493 
Q 4518 282 4582 202 
Q 4646 122 4794 109 
L 4960 96 
L 4960 0 
z
" transform="scale(0.015625)"/>
       <path id="STIXGeneral-Regular-32" d="M 3034 877 
L 2688 0 
L 186 0 
L 186 77 
L 1325 1286 
Q 1773 1754 1965 2144 
Q 2157 2534 2157 2950 
Q 2157 3379 1920 3616 
Q 1683 3853 1267 3853 
Q 922 3853 720 3673 
Q 518 3494 326 3021 
L 192 3053 
Q 301 3648 630 3987 
Q 960 4326 1523 4326 
Q 2054 4326 2380 4006 
Q 2707 3686 2707 3200 
Q 2707 2477 1888 1613 
L 832 486 
L 2330 486 
Q 2541 486 2665 569 
Q 2790 653 2944 915 
L 3034 877 
z
" transform="scale(0.015625)"/>
       <path id="STIXGeneral-Regular-2f" d="M 1837 4326 
L 378 -90 
L -58 -90 
L 1408 4326 
L 1837 4326 
z
" transform="scale(0.015625)"/>
       <path id="STIXGeneral-Regular-57" d="M 5965 4237 
L 5965 4115 
Q 5709 4064 5616 3990 
Q 5523 3917 5434 3667 
Q 4704 1709 4128 -70 
L 4032 -70 
Q 3642 1011 3008 2637 
L 2022 -70 
L 1926 -70 
Q 1709 576 1277 1753 
Q 845 2931 698 3347 
Q 538 3808 406 3958 
Q 275 4109 32 4115 
L 32 4237 
L 1594 4237 
L 1594 4115 
Q 1357 4109 1270 4064 
Q 1184 4019 1184 3917 
Q 1184 3808 1254 3616 
L 2176 1210 
L 2842 3021 
L 2662 3501 
Q 2509 3917 2400 4013 
Q 2291 4109 2010 4115 
L 2010 4237 
L 3706 4237 
L 3706 4115 
Q 3213 4102 3213 3891 
Q 3213 3808 3322 3520 
L 4237 1190 
L 5043 3360 
Q 5152 3667 5152 3853 
Q 5152 4109 4704 4115 
L 4704 4237 
L 5965 4237 
z
" transform="scale(0.015625)"/>
      </defs>
      <use xlink:href="#LiberationSans-49" transform="translate(0 0.409375)"/>
      <use xlink:href="#LiberationSans-54" transform="translate(27.783203 0.409375)"/>
      <use xlink:href="#LiberationSans-52" transform="translate(88.867188 0.409375)"/>
      <use xlink:href="#LiberationSans-20" transform="translate(161.083984 0.409375)"/>
      <use xlink:href="#STIXGeneral-Regular-4b" transform="translate(188.867188 0.409375)"/>
      <use xlink:href="#STIXGeneral-Regular-22c5" transform="translate(275.507166 0.409375)"/>
      <use xlink:href="#STIXGeneral-Regular-6d" transform="translate(318.547153 0.409375)"/>
      <use xlink:href="#STIXGeneral-Regular-32" transform="translate(397.890422 35.684375) scale(0.7)"/>
      <use xlink:href="#STIXGeneral-Regular-2f" transform="translate(437.299786 0.409375)"/>
      <use xlink:href="#STIXGeneral-Regular-57" transform="translate(465.099774 0.409375)"/>
     </g>
    </g>
    <g id="text_15">
     <!-- $\times\mathdefault{10^{−7}}\mathdefault{}$ -->
     <g transform="translate(59.465625 36.1875) scale(0.4 -0.4)">
      <defs>
       <path id="STIXGeneral-Regular-d7" d="M 3821 141 
L 3526 -160 
L 2048 1312 
L 570 -160 
L 275 134 
L 1747 1613 
L 275 3091 
L 576 3386 
L 2048 1914 
L 3526 3386 
L 3821 3098 
L 2349 1613 
L 3821 141 
z
" transform="scale(0.015625)"/>
       <path id="LiberationSans-2212" d="M 316 1900 
L 316 2356 
L 3425 2356 
L 3425 1900 
L 316 1900 
z
" transform="scale(0.015625)"/>
       <path id="LiberationSans-37" d="M 3238 3947 
Q 2563 2916 2284 2331 
Q 2006 1747 1867 1178 
Q 1728 609 1728 0 
L 1141 0 
Q 1141 844 1498 1776 
Q 1856 2709 2694 3925 
L 328 3925 
L 328 4403 
L 3238 4403 
L 3238 3947 
z
" transform="scale(0.015625)"/>
      </defs>
      <use xlink:href="#STIXGeneral-Regular-d7" transform="translate(0 0.8625)"/>
      <use xlink:href="#LiberationSans-31" transform="translate(63.999985 0.8625)"/>
      <use xlink:href="#LiberationSans-30" transform="translate(119.615219 0.8625)"/>
      <use xlink:href="#LiberationSans-2212" transform="translate(176.154946 37.842188) scale(0.7)"/>
      <use xlink:href="#LiberationSans-37" transform="translate(217.033852 37.842188) scale(0.7)"/>
     </g>
    </g>
   </g>
   <g id="line2d_49">
    <path d="M 88.775625 612.994364 
L 88.834257 66.511636 
L 88.892888 339.601869 
L 89.068784 503.213475 
L 89.303311 551.373273 
L 89.596469 572.53579 
L 89.94826 583.598113 
L 90.358682 589.882006 
L 90.769104 593.182751 
L 91.179526 594.973901 
L 91.589948 595.856307 
L 91.941738 596.108437 
L 92.234897 596.038884 
L 92.586687 595.671086 
L 93.055741 594.761375 
L 93.642058 593.049963 
L 94.462902 589.865417 
L 96.339118 582.3491 
L 97.159962 580.075956 
L 98.156701 577.985386 
L 99.563863 575.567706 
L 100.384707 574.530394 
L 101.029656 574.055464 
L 101.615973 573.912219 
L 102.260922 574.017029 
L 104.723455 574.719252 
L 105.368404 574.537343 
L 106.071984 574.1121 
L 106.95146 573.308039 
L 108.182726 571.847836 
L 109.883046 569.469674 
L 111.759262 566.453474 
L 114.866743 561.326045 
L 115.45306 560.807395 
L 115.863483 560.680936 
L 116.215273 560.766572 
L 116.625695 561.12162 
L 117.094749 561.878273 
L 117.681066 563.310964 
L 118.619174 566.344529 
L 119.967703 570.603702 
L 120.612652 571.976639 
L 121.140338 572.635835 
L 121.55076 572.842528 
L 121.961182 572.786118 
L 122.371604 572.484266 
L 122.89929 571.78558 
L 123.661502 570.348022 
L 125.244559 567.287466 
L 125.94814 566.440177 
L 126.710352 565.884236 
L 128.176145 564.915974 
L 128.996989 564.014463 
L 130.462782 562.330748 
L 130.931836 562.124908 
L 131.342258 562.189274 
L 131.75268 562.500888 
L 132.280366 563.235696 
L 133.10121 564.871187 
L 134.391108 567.412517 
L 135.036057 568.204729 
L 135.563743 568.524617 
L 136.032796 568.565814 
L 136.560482 568.373389 
L 137.205431 567.878771 
L 138.378065 566.626927 
L 142.540918 562.125061 
L 143.361762 561.481484 
L 143.948079 561.284299 
L 144.475765 561.336144 
L 145.062082 561.640305 
L 145.824295 562.328419 
L 148.286827 564.770544 
L 149.283567 565.330918 
L 150.280306 565.630668 
L 151.10115 565.659931 
L 151.804731 565.466443 
L 152.44968 565.058075 
L 153.153261 564.330428 
L 154.032736 563.055841 
L 155.908952 560.221922 
L 156.495269 559.753978 
L 157.022954 559.604858 
L 157.55064 559.697008 
L 158.195589 560.054894 
L 161.127175 562.005788 
L 163.062022 562.97387 
L 164.996869 564.065032 
L 165.641818 564.152252 
L 166.228136 564.011665 
L 166.873084 563.602462 
L 167.635297 562.828994 
L 169.980566 560.223628 
L 170.684147 559.875558 
L 171.387727 559.790506 
L 172.208572 559.94039 
L 173.381206 560.409693 
L 175.667843 561.619493 
L 176.781846 562.074431 
L 177.544059 562.158754 
L 178.247639 562.001205 
L 178.95122 561.604669 
L 179.830696 560.837506 
L 182.35186 558.478539 
L 183.876285 557.54629 
L 186.807871 555.925194 
L 187.394189 555.956869 
L 187.921874 556.20031 
L 188.566823 556.766202 
L 189.504931 557.953255 
L 191.029356 559.891107 
L 191.8502 560.558213 
L 192.612412 560.880639 
L 193.433257 560.976075 
L 194.664523 560.865233 
L 196.716633 560.455779 
L 198.065163 559.956864 
L 200.644959 558.924746 
L 202.462542 558.587934 
L 203.811072 558.212142 
L 206.918554 557.177345 
L 210.670984 556.590912 
L 211.726355 556.408489 
L 212.429936 556.497572 
L 213.133517 556.816389 
L 214.012992 557.494558 
L 216.123735 559.243461 
L 216.944579 559.572444 
L 217.824055 559.668782 
L 219.172584 559.544707 
L 221.341958 559.146381 
L 222.221434 558.747146 
L 223.10091 558.084326 
L 224.214913 556.919553 
L 225.797969 555.270023 
L 226.560182 554.787982 
L 227.263763 554.606331 
L 227.967343 554.655133 
L 228.905451 554.964272 
L 231.778406 556.305646 
L 234.123675 557.270217 
L 235.120414 557.426459 
L 235.941258 557.336354 
L 236.820734 557.009387 
L 237.934737 556.335363 
L 240.397269 554.760621 
L 241.276745 554.480214 
L 242.038958 554.451397 
L 242.80117 554.644316 
L 243.680646 555.122273 
L 245.087807 556.21145 
L 246.377705 557.104071 
L 247.257181 557.453354 
L 248.136657 557.561087 
L 249.25066 557.45124 
L 252.416773 556.802937 
L 253.413513 556.363567 
L 254.468884 555.63441 
L 256.579626 554.089955 
L 257.341838 553.86757 
L 258.045419 553.896419 
L 258.924895 554.174991 
L 261.328796 555.062107 
L 262.911852 555.265068 
L 264.670804 555.568414 
L 266.547019 555.896295 
L 267.543759 555.833544 
L 268.657761 555.530888 
L 272.410192 554.308631 
L 274.05188 554.13515 
L 276.162622 554.158091 
L 280.560002 554.437939 
L 284.019274 555.040775 
L 284.89875 554.819243 
L 285.954121 554.304387 
L 288.123495 553.19132 
L 289.237497 552.922285 
L 293.986667 552.320838 
L 294.924775 552.451545 
L 296.038778 552.856857 
L 298.032256 553.627954 
L 298.911732 553.691122 
L 299.791208 553.512893 
L 300.787947 553.067408 
L 302.781426 551.852265 
L 304.305851 551.069307 
L 305.478486 550.711326 
L 306.65112 550.58865 
L 307.99965 550.679085 
L 309.875865 551.040907 
L 311.576185 551.573292 
L 313.628296 552.494188 
L 314.918194 552.954554 
L 315.797669 553.037011 
L 316.618514 552.885588 
L 317.556621 552.461882 
L 320.605471 550.84412 
L 321.60221 550.702942 
L 323.126635 550.749351 
L 326.292748 551.062254 
L 329.458862 551.570379 
L 330.338338 551.391238 
L 331.217813 550.980768 
L 332.273185 550.23084 
L 335.263403 547.945536 
L 336.084247 547.683386 
L 336.787827 547.679098 
L 337.55004 547.905234 
L 338.488148 548.449414 
L 341.536997 550.442911 
L 342.533737 550.713821 
L 343.589108 550.771772 
L 344.761742 550.610367 
L 345.817113 550.247949 
L 346.813853 549.666695 
L 347.927855 548.737391 
L 350.097229 546.83573 
L 350.80081 546.537581 
L 351.445759 546.505969 
L 352.090708 546.708785 
L 352.85292 547.199746 
L 354.142818 548.359982 
L 355.784507 549.763455 
L 356.89851 550.430632 
L 357.895249 550.79 
L 358.774725 550.887887 
L 359.536937 550.766769 
L 360.29915 550.421456 
L 361.119994 549.789516 
L 362.175365 548.654769 
L 364.168844 546.438922 
L 364.931056 545.960196 
L 365.576005 545.823435 
L 366.162322 545.920588 
L 366.865903 546.286816 
L 367.745379 547.028653 
L 370.970124 550.029699 
L 371.8496 550.422595 
L 372.611812 550.532375 
L 373.374025 550.426646 
L 374.194869 550.088658 
L 375.132976 549.459175 
L 376.364243 548.346484 
L 379.471724 545.392011 
L 380.3512 544.921966 
L 381.113413 544.76543 
L 381.816993 544.845803 
L 382.579206 545.16091 
L 383.575945 545.842959 
L 386.917953 548.360868 
L 388.266483 548.973318 
L 389.497749 549.293134 
L 390.435857 549.322679 
L 391.256701 549.134481 
L 392.077545 548.715574 
L 393.074285 547.93481 
L 395.067763 546.298075 
L 395.771344 546.0462 
L 396.357661 546.054552 
L 397.00261 546.291616 
L 397.823455 546.867859 
L 400.872304 549.301411 
L 401.810412 549.625404 
L 402.74852 549.719927 
L 403.803891 549.599724 
L 404.976525 549.227542 
L 406.383687 548.523095 
L 408.318534 547.560911 
L 409.198009 547.377866 
L 410.018854 547.43351 
L 410.89833 547.721448 
L 412.188228 548.408963 
L 414.123074 549.416312 
L 415.237077 549.73629 
L 416.233817 549.801605 
L 417.289188 549.647374 
L 418.637717 549.205643 
L 421.217513 548.326452 
L 423.797309 547.81772 
L 425.908051 547.510257 
L 426.963423 547.591269 
L 428.194689 547.933897 
L 430.129536 548.488995 
L 431.067643 548.503731 
L 432.005751 548.296148 
L 433.354281 547.733797 
L 435.289128 546.946465 
L 436.520394 546.696247 
L 437.868924 546.653507 
L 439.276085 546.830209 
L 440.80051 547.258499 
L 443.497569 548.067884 
L 444.787467 548.176536 
L 446.370524 548.069085 
L 448.070844 547.734281 
L 450.181586 547.04409 
L 451.471484 546.747804 
L 452.468224 546.753659 
L 453.523595 546.995862 
L 455.106651 547.623956 
L 458.859082 549.14831 
L 459.973084 549.343996 
L 460.85256 549.281102 
L 461.732036 548.989947 
L 462.728776 548.409388 
L 465.894889 546.347384 
L 466.774365 546.158515 
L 467.712472 546.193538 
L 469.00237 546.497219 
L 472.285747 547.354473 
L 473.810172 547.493611 
L 475.10007 547.38659 
L 476.4486 547.040685 
L 479.087027 546.300089 
L 480.318294 546.228013 
L 481.842718 546.372517 
L 484.481146 546.879776 
L 487.119574 547.345546 
L 488.292208 547.320074 
L 489.406211 547.079721 
L 490.696109 546.562876 
L 492.396429 545.623879 
L 495.679806 543.749858 
L 496.559282 543.547993 
L 497.380126 543.586318 
L 498.259602 543.853843 
L 501.718874 545.173403 
L 502.656981 545.131432 
L 503.770984 544.843053 
L 506.468043 544.039596 
L 507.464783 544.053143 
L 508.637417 544.311582 
L 511.510372 545.03305 
L 513.914273 545.547607 
L 516.435437 546.190788 
L 517.373545 546.156651 
L 518.311652 545.887523 
L 519.425655 545.314689 
L 522.474505 543.601056 
L 523.764403 543.217984 
L 525.640618 542.922332 
L 527.165043 542.86765 
L 528.220414 543.042186 
L 529.275785 543.44899 
L 530.917473 544.376631 
L 532.324635 545.068351 
L 533.262742 545.290084 
L 534.083587 545.269245 
L 534.963062 545.012423 
L 535.959802 544.460724 
L 537.484227 543.303565 
L 539.125915 542.133831 
L 540.181286 541.654042 
L 541.119394 541.477499 
L 541.99887 541.549787 
L 542.878346 541.858886 
L 543.875085 542.465677 
L 547.45162 544.928659 
L 548.272464 545.086403 
L 549.093309 545.022376 
L 550.031416 544.708574 
L 551.145419 544.081315 
L 555.015113 541.648035 
L 555.894589 541.504822 
L 556.715433 541.591811 
L 557.712172 541.940021 
L 559.295229 542.786825 
L 561.171444 543.732032 
L 562.40271 544.108204 
L 563.575345 544.227616 
L 564.806611 544.11832 
L 566.331036 543.747902 
L 568.207251 543.058796 
L 571.666523 541.663582 
L 572.428736 541.666868 
L 573.190948 541.894117 
L 574.070424 542.417046 
L 575.712112 543.7521 
L 576.767483 544.450206 
L 577.588328 544.730375 
L 578.35054 544.747625 
L 579.171384 544.530505 
L 580.344019 543.952441 
L 582.161602 543.070362 
L 583.216973 542.83129 
L 584.330976 542.823531 
L 585.914033 543.068121 
L 591.425415 544.059519 
L 592.598049 543.969318 
L 593.712052 543.657014 
L 595.177845 542.99203 
L 597.288588 542.052988 
L 598.343959 541.844425 
L 599.223435 541.887267 
L 600.10291 542.146533 
L 601.09965 542.683595 
L 602.44818 543.700596 
L 605.086607 545.738207 
L 606.20061 546.293566 
L 607.197349 546.553151 
L 608.135457 546.579039 
L 609.132196 546.380403 
L 610.246199 545.92322 
L 614.174525 544.06489 
L 615.112632 544.00423 
L 616.05074 544.166982 
L 617.164743 544.599894 
L 620.389488 546.024027 
L 621.444859 546.151624 
L 622.676125 546.058942 
L 630.356881 545.002584 
L 631.470884 545.159955 
L 634.754261 545.844694 
L 635.575105 545.644717 
L 636.454581 545.194491 
L 637.80311 544.204999 
L 639.386167 543.096685 
L 640.382906 542.671716 
L 641.321014 542.517782 
L 642.317753 542.582754 
L 643.607651 542.905553 
L 648.825875 544.473068 
L 650.174405 544.497046 
L 651.581566 544.29809 
L 653.047359 543.865913 
L 657.327475 542.396171 
L 658.265583 542.447376 
L 659.203691 542.723592 
L 660.317693 543.307144 
L 663.60107 545.230081 
L 664.421914 545.360476 
L 665.242758 545.274909 
L 666.239498 544.934893 
L 669.053821 543.819244 
L 669.991928 543.776234 
L 670.930036 543.955849 
L 672.161302 544.433651 
L 674.975625 545.613702 
L 674.975625 545.613702 
" clip-path="url(#pd25059e37a)" style="fill: none; stroke: #ff0000; stroke-width: 1.5; stroke-linecap: square"/>
   </g>
   <g id="line2d_50">
    <path d="M 88.775625 612.994364 
L 88.834257 67.994645 
L 88.892888 339.747599 
L 89.068784 502.968325 
L 89.303311 551.049702 
L 89.596469 572.169168 
L 89.94826 583.19839 
L 90.358682 589.453423 
L 90.769104 592.728177 
L 91.179526 594.492701 
L 91.589948 595.345722 
L 91.883106 595.559478 
L 92.176265 595.51114 
L 92.528055 595.15865 
L 92.938478 594.396464 
L 93.524795 592.756937 
L 94.345639 589.695978 
L 95.811432 584.161867 
L 96.515013 582.386484 
L 97.159962 581.339946 
L 97.863543 580.637805 
L 98.743018 580.092849 
L 100.091548 579.53832 
L 101.381446 579.245217 
L 103.081766 579.138958 
L 104.606191 578.955198 
L 105.896089 578.565616 
L 107.655041 577.750731 
L 109.589888 576.940705 
L 110.938418 576.323778 
L 111.817893 575.66807 
L 112.873265 574.577788 
L 115.218534 572.010922 
L 115.804851 571.745522 
L 116.273905 571.747878 
L 116.80159 571.995358 
L 117.387907 572.54479 
L 118.267383 573.737226 
L 119.791808 575.829152 
L 120.495389 576.399371 
L 121.081706 576.597335 
L 121.609392 576.557501 
L 122.195709 576.296012 
L 122.957921 575.702152 
L 125.361822 573.64202 
L 126.241298 573.298573 
L 127.355301 573.13428 
L 129.70057 572.840477 
L 131.342258 572.634406 
L 132.338998 572.746322 
L 133.511632 573.136276 
L 135.739638 573.911615 
L 137.674485 574.210944 
L 139.667963 574.395754 
L 140.488808 574.225126 
L 141.309652 573.822714 
L 142.59955 572.894724 
L 143.889448 572.049561 
L 144.710292 571.781225 
L 145.472504 571.763811 
L 146.35198 571.975398 
L 147.641878 572.551935 
L 149.166303 573.181242 
L 150.221674 573.369666 
L 151.335677 573.325461 
L 153.035997 572.987704 
L 155.381266 572.568274 
L 157.609272 572.427058 
L 159.544119 572.492444 
L 161.713493 572.832775 
L 163.472444 573.012675 
L 165.172764 572.943507 
L 167.576665 572.855774 
L 169.746039 573.063313 
L 171.563623 573.140781 
L 173.439838 572.966684 
L 176.312792 572.708608 
L 181.824175 572.639395 
L 187.45282 572.76934 
L 190.970724 572.474151 
L 192.612412 572.644439 
L 195.543999 572.992903 
L 198.592848 572.972253 
L 201.407171 572.831576 
L 204.104231 572.643579 
L 205.218234 572.825038 
L 206.508132 573.2788 
L 208.618874 574.021737 
L 209.791508 574.184253 
L 211.081406 574.125225 
L 215.830576 573.652025 
L 218.762162 573.833403 
L 222.514593 574.049495 
L 242.44938 574.166414 
L 244.970544 574.354805 
L 250.188768 574.476315 
L 253.941198 575.038365 
L 255.876045 574.994668 
L 258.104051 574.732568 
L 262.325535 574.108318 
L 263.439538 574.279132 
L 264.905331 574.762891 
L 266.605651 575.269043 
L 267.778286 575.379698 
L 269.185447 575.268204 
L 272.644719 574.895996 
L 279.270104 574.837276 
L 282.612112 574.766244 
L 286.012752 574.656652 
L 291.113713 574.789448 
L 294.455721 574.610687 
L 300.787947 574.805657 
L 304.833537 574.984932 
L 308.116913 574.780803 
L 310.520814 574.777022 
L 317.087567 574.90774 
L 319.90189 574.620759 
L 321.25042 574.630037 
L 322.423054 574.861622 
L 326.116853 575.815803 
L 327.348119 575.749586 
L 331.335077 575.318602 
L 336.787827 575.525106 
L 343.706371 575.256875 
L 351.1526 575.386175 
L 355.725875 575.191445 
L 358.59883 574.988462 
L 360.416413 575.139599 
L 363.289368 575.384841 
L 371.087387 575.446848 
L 378.768144 575.135506 
L 380.058041 575.3847 
L 381.523835 575.910558 
L 383.575945 576.637499 
L 384.865843 576.825868 
L 386.4489 576.805222 
L 390.963543 576.620563 
L 394.774605 576.496532 
L 399.523775 576.377067 
L 404.683367 576.42414 
L 407.028636 576.399778 
L 417.171924 575.84367 
L 419.165403 576.178964 
L 421.276145 576.463961 
L 423.210992 576.475751 
L 426.377105 576.482831 
L 432.767963 576.820267 
L 434.468284 576.56906 
L 437.575765 576.041081 
L 438.7484 576.104786 
L 439.979666 576.39711 
L 443.321674 577.333619 
L 444.728836 577.38436 
L 450.122954 577.317561 
L 452.937277 577.340421 
L 456.806971 577.356875 
L 465.074045 577.575439 
L 467.536577 577.215966 
L 469.412792 577.069297 
L 471.758061 577.155171 
L 474.572384 577.193126 
L 483.660302 577.103626 
L 485.888308 577.390293 
L 488.35084 577.645036 
L 490.344319 577.613435 
L 492.161902 577.370372 
L 496.50065 576.629488 
L 497.614653 576.783974 
L 498.904551 577.201242 
L 500.956661 577.876525 
L 502.187927 578.011634 
L 503.712352 577.928808 
L 507.757941 577.611788 
L 512.213953 577.61047 
L 516.787227 577.65591 
L 521.419134 577.580698 
L 523.940298 577.54667 
L 529.09989 577.250145 
L 533.907691 577.326259 
L 541.764343 577.409605 
L 545.340878 577.649232 
L 549.034677 577.597041 
L 551.966263 577.369156 
L 554.604691 577.196276 
L 556.011852 577.342446 
L 557.419014 577.720808 
L 559.822914 578.407698 
L 561.112812 578.497421 
L 562.695869 578.357819 
L 565.744719 578.054952 
L 570.20073 578.026919 
L 572.780526 578.235036 
L 574.774005 578.30647 
L 576.826115 578.117441 
L 579.464543 577.91108 
L 588.962882 577.663243 
L 593.536157 577.29827 
L 595.940058 577.53664 
L 598.637117 577.708076 
L 601.685967 577.907198 
L 605.966083 578.358734 
L 609.073565 578.286867 
L 611.067043 578.033546 
L 613.470944 577.73022 
L 614.584947 577.832815 
L 615.816213 578.182309 
L 618.220114 578.935778 
L 619.392748 579.011423 
L 620.917173 578.853869 
L 623.438338 578.594099 
L 626.428556 578.615773 
L 634.754261 578.501256 
L 637.979006 578.414105 
L 645.659762 578.591456 
L 648.180926 578.722423 
L 657.268844 578.494549 
L 659.965903 578.310838 
L 661.842118 578.429995 
L 666.004971 578.780569 
L 667.646659 578.654179 
L 669.933297 578.210288 
L 671.574985 577.995944 
L 672.806251 578.059961 
L 674.154781 578.371123 
L 674.975625 578.631791 
L 674.975625 578.631791 
" clip-path="url(#pd25059e37a)" style="fill: none; stroke: #0000ff; stroke-width: 1.5; stroke-linecap: square"/>
   </g>
   <g id="patch_3">
    <path d="M 59.465625 640.3185 
L 59.465625 39.1875 
" style="fill: none; stroke: #000000; stroke-width: 0.8; stroke-linejoin: miter; stroke-linecap: square"/>
   </g>
   <g id="patch_4">
    <path d="M 704.285625 640.3185 
L 704.285625 39.1875 
" style="fill: none; stroke: #000000; stroke-width: 0.8; stroke-linejoin: miter; stroke-linecap: square"/>
   </g>
   <g id="patch_5">
    <path d="M 59.465625 640.3185 
L 704.285625 640.3185 
" style="fill: none; stroke: #000000; stroke-width: 0.8; stroke-linejoin: miter; stroke-linecap: square"/>
   </g>
   <g id="patch_6">
    <path d="M 59.465625 39.1875 
L 704.285625 39.1875 
" style="fill: none; stroke: #000000; stroke-width: 0.8; stroke-linejoin: miter; stroke-linecap: square"/>
   </g>
   <g id="legend_1">
    <g id="patch_7">
     <path d="M 507.274688 149.11875 
L 683.285625 149.11875 
Q 689.285625 149.11875 689.285625 143.11875 
L 689.285625 60.1875 
Q 689.285625 54.1875 683.285625 54.1875 
L 507.274688 54.1875 
Q 501.274688 54.1875 501.274688 60.1875 
L 501.274688 143.11875 
Q 501.274688 149.11875 507.274688 149.11875 
z
" style="fill: #ffffff; opacity: 0.8; stroke: #cccccc; stroke-linejoin: miter"/>
    </g>
    <g id="line2d_51">
     <path d="M 513.274688 77.428125 
L 543.274688 77.428125 
L 573.274688 77.428125 
" style="fill: none; stroke: #ff0000; stroke-width: 1.5; stroke-linecap: square"/>
    </g>
    <g id="text_16">
     <!-- MD -->
     <g transform="translate(597.274688 87.928125) scale(0.3 -0.3)">
      <defs>
       <path id="LiberationSans-4d" d="M 4269 0 
L 4269 2938 
Q 4269 3425 4297 3875 
Q 4144 3316 4022 3000 
L 2884 0 
L 2466 0 
L 1313 3000 
L 1138 3531 
L 1034 3875 
L 1044 3528 
L 1056 2938 
L 1056 0 
L 525 0 
L 525 4403 
L 1309 4403 
L 2481 1350 
Q 2544 1166 2601 955 
Q 2659 744 2678 650 
Q 2703 775 2783 1029 
Q 2863 1284 2891 1350 
L 4041 4403 
L 4806 4403 
L 4806 0 
L 4269 0 
z
" transform="scale(0.015625)"/>
       <path id="LiberationSans-44" d="M 4316 2247 
Q 4316 1566 4050 1055 
Q 3784 544 3296 272 
Q 2809 0 2172 0 
L 525 0 
L 525 4403 
L 1981 4403 
Q 3100 4403 3708 3842 
Q 4316 3281 4316 2247 
z
M 3716 2247 
Q 3716 3066 3267 3495 
Q 2819 3925 1969 3925 
L 1122 3925 
L 1122 478 
L 2103 478 
Q 2588 478 2955 690 
Q 3322 903 3519 1303 
Q 3716 1703 3716 2247 
z
" transform="scale(0.015625)"/>
      </defs>
      <use xlink:href="#LiberationSans-4d"/>
      <use xlink:href="#LiberationSans-44" x="83.300781"/>
     </g>
    </g>
    <g id="line2d_52">
     <path d="M 513.274688 120.39375 
L 543.274688 120.39375 
L 573.274688 120.39375 
" style="fill: none; stroke: #0000ff; stroke-width: 1.5; stroke-linecap: square"/>
    </g>
    <g id="text_17">
     <!-- GANs -->
     <g transform="translate(597.274688 130.89375) scale(0.3 -0.3)">
      <defs>
       <path id="LiberationSans-47" d="M 322 2222 
Q 322 3294 897 3881 
Q 1472 4469 2513 4469 
Q 3244 4469 3700 4222 
Q 4156 3975 4403 3431 
L 3834 3263 
Q 3647 3638 3317 3809 
Q 2988 3981 2497 3981 
Q 1734 3981 1331 3520 
Q 928 3059 928 2222 
Q 928 1388 1356 905 
Q 1784 422 2541 422 
Q 2972 422 3345 553 
Q 3719 684 3950 909 
L 3950 1703 
L 2634 1703 
L 2634 2203 
L 4500 2203 
L 4500 684 
Q 4150 328 3642 132 
Q 3134 -63 2541 -63 
Q 1850 -63 1350 212 
Q 850 488 586 1005 
Q 322 1522 322 2222 
z
" transform="scale(0.015625)"/>
       <path id="LiberationSans-41" d="M 3647 0 
L 3144 1288 
L 1138 1288 
L 631 0 
L 13 0 
L 1809 4403 
L 2488 4403 
L 4256 0 
L 3647 0 
z
M 2141 3953 
L 2113 3866 
Q 2034 3606 1881 3200 
L 1319 1753 
L 2966 1753 
L 2400 3206 
Q 2313 3422 2225 3694 
L 2141 3953 
z
" transform="scale(0.015625)"/>
       <path id="LiberationSans-4e" d="M 3381 0 
L 1025 3750 
L 1041 3447 
L 1056 2925 
L 1056 0 
L 525 0 
L 525 4403 
L 1219 4403 
L 3600 628 
Q 3563 1241 3563 1516 
L 3563 4403 
L 4100 4403 
L 4100 0 
L 3381 0 
z
" transform="scale(0.015625)"/>
      </defs>
      <use xlink:href="#LiberationSans-47"/>
      <use xlink:href="#LiberationSans-41" x="77.783203"/>
      <use xlink:href="#LiberationSans-4e" x="144.482422"/>
      <use xlink:href="#LiberationSans-73" x="216.699219"/>
     </g>
    </g>
   </g>
  </g>
 </g>
 <defs>
  <clipPath id="pd25059e37a">
   <rect x="59.465625" y="39.1875" width="644.82" height="601.131"/>
  </clipPath>
 </defs>
</svg>
