<?xml version="1.0" encoding="utf-8" standalone="no"?>
<!DOCTYPE svg PUBLIC "-//W3C//DTD SVG 1.1//EN"
  "http://www.w3.org/Graphics/SVG/1.1/DTD/svg11.dtd">
<svg xmlns:xlink="http://www.w3.org/1999/xlink" width="710.268844pt" height="711.105187pt" viewBox="0 0 710.268844 711.105187" xmlns="http://www.w3.org/2000/svg" version="1.1">
 <metadata>
  <rdf:RDF xmlns:dc="http://purl.org/dc/elements/1.1/" xmlns:cc="http://creativecommons.org/ns#" xmlns:rdf="http://www.w3.org/1999/02/22-rdf-syntax-ns#">
   <cc:Work>
    <dc:type rdf:resource="http://purl.org/dc/dcmitype/StillImage"/>
    <dc:date>2025-02-02T18:16:28.147167</dc:date>
    <dc:format>image/svg+xml</dc:format>
    <dc:creator>
     <cc:Agent>
      <dc:title>Matplotlib v3.9.3, https://matplotlib.org/</dc:title>
     </cc:Agent>
    </dc:creator>
   </cc:Work>
  </rdf:RDF>
 </metadata>
 <defs>
  <style type="text/css">*{stroke-linejoin: round; stroke-linecap: butt}</style>
 </defs>
 <g id="figure_1">
  <g id="patch_1">
   <path d="M 0 711.105187 
L 710.268844 711.105187 
L 710.268844 0 
L 0 0 
z
" style="fill: #ffffff"/>
  </g>
  <g id="axes_1">
   <g id="patch_2">
    <path d="M 98.46 643.2705 
L 703.068844 643.2705 
L 703.068844 39.1875 
L 98.46 39.1875 
z
" style="fill: #ffffff"/>
   </g>
   <g id="matplotlib.axis_1">
    <g id="xtick_1">
     <g id="line2d_1">
      <defs>
       <path id="m974c85b97c" d="M 0 0 
L 0 -3.5 
" style="stroke: #000000; stroke-width: 0.8"/>
      </defs>
      <g>
       <use xlink:href="#m974c85b97c" x="125.88725" y="643.2705" style="stroke: #000000; stroke-width: 0.8"/>
      </g>
     </g>
     <g id="text_1">
      <!-- 0 -->
      <g transform="translate(118.379985 666.337062) scale(0.27 -0.27)">
       <defs>
        <path id="LiberationSans-30" d="M 3309 2203 
Q 3309 1100 2920 518 
Q 2531 -63 1772 -63 
Q 1013 -63 631 515 
Q 250 1094 250 2203 
Q 250 3338 620 3903 
Q 991 4469 1791 4469 
Q 2569 4469 2939 3897 
Q 3309 3325 3309 2203 
z
M 2738 2203 
Q 2738 3156 2517 3584 
Q 2297 4013 1791 4013 
Q 1272 4013 1045 3591 
Q 819 3169 819 2203 
Q 819 1266 1048 831 
Q 1278 397 1778 397 
Q 2275 397 2506 840 
Q 2738 1284 2738 2203 
z
" transform="scale(0.015625)"/>
       </defs>
       <use xlink:href="#LiberationSans-30"/>
      </g>
     </g>
    </g>
    <g id="xtick_2">
     <g id="line2d_2">
      <g>
       <use xlink:href="#m974c85b97c" x="235.827125" y="643.2705" style="stroke: #000000; stroke-width: 0.8"/>
      </g>
     </g>
     <g id="text_2">
      <!-- 2 -->
      <g transform="translate(228.319859 666.337062) scale(0.27 -0.27)">
       <defs>
        <path id="LiberationSans-32" d="M 322 0 
L 322 397 
Q 481 763 711 1042 
Q 941 1322 1194 1548 
Q 1447 1775 1695 1969 
Q 1944 2163 2144 2356 
Q 2344 2550 2467 2762 
Q 2591 2975 2591 3244 
Q 2591 3606 2378 3806 
Q 2166 4006 1788 4006 
Q 1428 4006 1195 3811 
Q 963 3616 922 3263 
L 347 3316 
Q 409 3844 795 4156 
Q 1181 4469 1788 4469 
Q 2453 4469 2811 4155 
Q 3169 3841 3169 3263 
Q 3169 3006 3051 2753 
Q 2934 2500 2703 2247 
Q 2472 1994 1819 1463 
Q 1459 1169 1246 933 
Q 1034 697 941 478 
L 3238 478 
L 3238 0 
L 322 0 
z
" transform="scale(0.015625)"/>
       </defs>
       <use xlink:href="#LiberationSans-32"/>
      </g>
     </g>
    </g>
    <g id="xtick_3">
     <g id="line2d_3">
      <g>
       <use xlink:href="#m974c85b97c" x="345.767" y="643.2705" style="stroke: #000000; stroke-width: 0.8"/>
      </g>
     </g>
     <g id="text_3">
      <!-- 4 -->
      <g transform="translate(338.259734 666.337062) scale(0.27 -0.27)">
       <defs>
        <path id="LiberationSans-34" d="M 2753 997 
L 2753 0 
L 2222 0 
L 2222 997 
L 147 997 
L 147 1434 
L 2163 4403 
L 2753 4403 
L 2753 1441 
L 3372 1441 
L 3372 997 
L 2753 997 
z
M 2222 3769 
Q 2216 3750 2134 3603 
Q 2053 3456 2013 3397 
L 884 1734 
L 716 1503 
L 666 1441 
L 2222 1441 
L 2222 3769 
z
" transform="scale(0.015625)"/>
       </defs>
       <use xlink:href="#LiberationSans-34"/>
      </g>
     </g>
    </g>
    <g id="xtick_4">
     <g id="line2d_4">
      <g>
       <use xlink:href="#m974c85b97c" x="455.706874" y="643.2705" style="stroke: #000000; stroke-width: 0.8"/>
      </g>
     </g>
     <g id="text_4">
      <!-- 6 -->
      <g transform="translate(448.199609 666.337062) scale(0.27 -0.27)">
       <defs>
        <path id="LiberationSans-36" d="M 3278 1441 
Q 3278 744 2900 340 
Q 2522 -63 1856 -63 
Q 1113 -63 719 490 
Q 325 1044 325 2100 
Q 325 3244 734 3856 
Q 1144 4469 1900 4469 
Q 2897 4469 3156 3572 
L 2619 3475 
Q 2453 4013 1894 4013 
Q 1413 4013 1148 3564 
Q 884 3116 884 2266 
Q 1038 2550 1316 2698 
Q 1594 2847 1953 2847 
Q 2563 2847 2920 2465 
Q 3278 2084 3278 1441 
z
M 2706 1416 
Q 2706 1894 2472 2153 
Q 2238 2413 1819 2413 
Q 1425 2413 1183 2183 
Q 941 1953 941 1550 
Q 941 1041 1192 716 
Q 1444 391 1838 391 
Q 2244 391 2475 664 
Q 2706 938 2706 1416 
z
" transform="scale(0.015625)"/>
       </defs>
       <use xlink:href="#LiberationSans-36"/>
      </g>
     </g>
    </g>
    <g id="xtick_5">
     <g id="line2d_5">
      <g>
       <use xlink:href="#m974c85b97c" x="565.646749" y="643.2705" style="stroke: #000000; stroke-width: 0.8"/>
      </g>
     </g>
     <g id="text_5">
      <!-- 8 -->
      <g transform="translate(558.139483 666.337062) scale(0.27 -0.27)">
       <defs>
        <path id="LiberationSans-38" d="M 3281 1228 
Q 3281 619 2893 278 
Q 2506 -63 1781 -63 
Q 1075 -63 676 271 
Q 278 606 278 1222 
Q 278 1653 525 1947 
Q 772 2241 1156 2303 
L 1156 2316 
Q 797 2400 589 2681 
Q 381 2963 381 3341 
Q 381 3844 757 4156 
Q 1134 4469 1769 4469 
Q 2419 4469 2795 4162 
Q 3172 3856 3172 3334 
Q 3172 2956 2962 2675 
Q 2753 2394 2391 2322 
L 2391 2309 
Q 2813 2241 3047 1952 
Q 3281 1663 3281 1228 
z
M 2588 3303 
Q 2588 4050 1769 4050 
Q 1372 4050 1164 3862 
Q 956 3675 956 3303 
Q 956 2925 1170 2726 
Q 1384 2528 1775 2528 
Q 2172 2528 2380 2711 
Q 2588 2894 2588 3303 
z
M 2697 1281 
Q 2697 1691 2453 1898 
Q 2209 2106 1769 2106 
Q 1341 2106 1100 1882 
Q 859 1659 859 1269 
Q 859 359 1788 359 
Q 2247 359 2472 579 
Q 2697 800 2697 1281 
z
" transform="scale(0.015625)"/>
       </defs>
       <use xlink:href="#LiberationSans-38"/>
      </g>
     </g>
    </g>
    <g id="xtick_6">
     <g id="line2d_6">
      <g>
       <use xlink:href="#m974c85b97c" x="675.586624" y="643.2705" style="stroke: #000000; stroke-width: 0.8"/>
      </g>
     </g>
     <g id="text_6">
      <!-- 10 -->
      <g transform="translate(660.572092 666.337062) scale(0.27 -0.27)">
       <defs>
        <path id="LiberationSans-31" d="M 488 0 
L 488 478 
L 1609 478 
L 1609 3866 
L 616 3156 
L 616 3688 
L 1656 4403 
L 2175 4403 
L 2175 478 
L 3247 478 
L 3247 0 
L 488 0 
z
" transform="scale(0.015625)"/>
       </defs>
       <use xlink:href="#LiberationSans-31"/>
       <use xlink:href="#LiberationSans-30" x="55.615234"/>
      </g>
     </g>
    </g>
    <g id="xtick_7">
     <g id="line2d_7">
      <defs>
       <path id="m3bd48bfbe9" d="M 0 0 
L 0 -2 
" style="stroke: #000000; stroke-width: 0.6"/>
      </defs>
      <g>
       <use xlink:href="#m3bd48bfbe9" x="153.372219" y="643.2705" style="stroke: #000000; stroke-width: 0.6"/>
      </g>
     </g>
    </g>
    <g id="xtick_8">
     <g id="line2d_8">
      <g>
       <use xlink:href="#m3bd48bfbe9" x="180.857188" y="643.2705" style="stroke: #000000; stroke-width: 0.6"/>
      </g>
     </g>
    </g>
    <g id="xtick_9">
     <g id="line2d_9">
      <g>
       <use xlink:href="#m3bd48bfbe9" x="208.342156" y="643.2705" style="stroke: #000000; stroke-width: 0.6"/>
      </g>
     </g>
    </g>
    <g id="xtick_10">
     <g id="line2d_10">
      <g>
       <use xlink:href="#m3bd48bfbe9" x="263.312094" y="643.2705" style="stroke: #000000; stroke-width: 0.6"/>
      </g>
     </g>
    </g>
    <g id="xtick_11">
     <g id="line2d_11">
      <g>
       <use xlink:href="#m3bd48bfbe9" x="290.797062" y="643.2705" style="stroke: #000000; stroke-width: 0.6"/>
      </g>
     </g>
    </g>
    <g id="xtick_12">
     <g id="line2d_12">
      <g>
       <use xlink:href="#m3bd48bfbe9" x="318.282031" y="643.2705" style="stroke: #000000; stroke-width: 0.6"/>
      </g>
     </g>
    </g>
    <g id="xtick_13">
     <g id="line2d_13">
      <g>
       <use xlink:href="#m3bd48bfbe9" x="373.251968" y="643.2705" style="stroke: #000000; stroke-width: 0.6"/>
      </g>
     </g>
    </g>
    <g id="xtick_14">
     <g id="line2d_14">
      <g>
       <use xlink:href="#m3bd48bfbe9" x="400.736937" y="643.2705" style="stroke: #000000; stroke-width: 0.6"/>
      </g>
     </g>
    </g>
    <g id="xtick_15">
     <g id="line2d_15">
      <g>
       <use xlink:href="#m3bd48bfbe9" x="428.221906" y="643.2705" style="stroke: #000000; stroke-width: 0.6"/>
      </g>
     </g>
    </g>
    <g id="xtick_16">
     <g id="line2d_16">
      <g>
       <use xlink:href="#m3bd48bfbe9" x="483.191843" y="643.2705" style="stroke: #000000; stroke-width: 0.6"/>
      </g>
     </g>
    </g>
    <g id="xtick_17">
     <g id="line2d_17">
      <g>
       <use xlink:href="#m3bd48bfbe9" x="510.676812" y="643.2705" style="stroke: #000000; stroke-width: 0.6"/>
      </g>
     </g>
    </g>
    <g id="xtick_18">
     <g id="line2d_18">
      <g>
       <use xlink:href="#m3bd48bfbe9" x="538.16178" y="643.2705" style="stroke: #000000; stroke-width: 0.6"/>
      </g>
     </g>
    </g>
    <g id="xtick_19">
     <g id="line2d_19">
      <g>
       <use xlink:href="#m3bd48bfbe9" x="593.131718" y="643.2705" style="stroke: #000000; stroke-width: 0.6"/>
      </g>
     </g>
    </g>
    <g id="xtick_20">
     <g id="line2d_20">
      <g>
       <use xlink:href="#m3bd48bfbe9" x="620.616686" y="643.2705" style="stroke: #000000; stroke-width: 0.6"/>
      </g>
     </g>
    </g>
    <g id="xtick_21">
     <g id="line2d_21">
      <g>
       <use xlink:href="#m3bd48bfbe9" x="648.101655" y="643.2705" style="stroke: #000000; stroke-width: 0.6"/>
      </g>
     </g>
    </g>
    <g id="text_7">
     <!-- Time ps -->
     <g transform="translate(347.987859 697.680187) scale(0.3 -0.3)">
      <defs>
       <path id="LiberationSans-54" d="M 2250 3916 
L 2250 0 
L 1656 0 
L 1656 3916 
L 144 3916 
L 144 4403 
L 3763 4403 
L 3763 3916 
L 2250 3916 
z
" transform="scale(0.015625)"/>
       <path id="LiberationSans-69" d="M 428 4100 
L 428 4638 
L 991 4638 
L 991 4100 
L 428 4100 
z
M 428 0 
L 428 3381 
L 991 3381 
L 991 0 
L 428 0 
z
" transform="scale(0.015625)"/>
       <path id="LiberationSans-6d" d="M 2400 0 
L 2400 2144 
Q 2400 2634 2265 2821 
Q 2131 3009 1781 3009 
Q 1422 3009 1212 2734 
Q 1003 2459 1003 1959 
L 1003 0 
L 444 0 
L 444 2659 
Q 444 3250 425 3381 
L 956 3381 
Q 959 3366 962 3297 
Q 966 3228 970 3139 
Q 975 3050 981 2803 
L 991 2803 
Q 1172 3163 1406 3303 
Q 1641 3444 1978 3444 
Q 2363 3444 2586 3291 
Q 2809 3138 2897 2803 
L 2906 2803 
Q 3081 3144 3329 3294 
Q 3578 3444 3931 3444 
Q 4444 3444 4676 3166 
Q 4909 2888 4909 2253 
L 4909 0 
L 4353 0 
L 4353 2144 
Q 4353 2634 4218 2821 
Q 4084 3009 3734 3009 
Q 3366 3009 3161 2736 
Q 2956 2463 2956 1959 
L 2956 0 
L 2400 0 
z
" transform="scale(0.015625)"/>
       <path id="LiberationSans-65" d="M 863 1572 
Q 863 991 1103 675 
Q 1344 359 1806 359 
Q 2172 359 2392 506 
Q 2613 653 2691 878 
L 3184 738 
Q 2881 -63 1806 -63 
Q 1056 -63 664 384 
Q 272 831 272 1713 
Q 272 2550 664 2997 
Q 1056 3444 1784 3444 
Q 3275 3444 3275 1647 
L 3275 1572 
L 863 1572 
z
M 2694 2003 
Q 2647 2538 2422 2783 
Q 2197 3028 1775 3028 
Q 1366 3028 1127 2754 
Q 888 2481 869 2003 
L 2694 2003 
z
" transform="scale(0.015625)"/>
       <path id="LiberationSans-20" transform="scale(0.015625)"/>
       <path id="LiberationSans-70" d="M 3291 1706 
Q 3291 -63 2047 -63 
Q 1266 -63 997 525 
L 981 525 
Q 994 500 994 -6 
L 994 -1328 
L 431 -1328 
L 431 2691 
Q 431 3213 413 3381 
L 956 3381 
Q 959 3369 965 3292 
Q 972 3216 980 3056 
Q 988 2897 988 2838 
L 1000 2838 
Q 1150 3150 1397 3295 
Q 1644 3441 2047 3441 
Q 2672 3441 2981 3022 
Q 3291 2603 3291 1706 
z
M 2700 1694 
Q 2700 2400 2509 2703 
Q 2319 3006 1903 3006 
Q 1569 3006 1380 2865 
Q 1191 2725 1092 2426 
Q 994 2128 994 1650 
Q 994 984 1206 668 
Q 1419 353 1897 353 
Q 2316 353 2508 661 
Q 2700 969 2700 1694 
z
" transform="scale(0.015625)"/>
       <path id="LiberationSans-73" d="M 2969 934 
Q 2969 456 2608 196 
Q 2247 -63 1597 -63 
Q 966 -63 623 145 
Q 281 353 178 794 
L 675 891 
Q 747 619 972 492 
Q 1197 366 1597 366 
Q 2025 366 2223 497 
Q 2422 628 2422 891 
Q 2422 1091 2284 1216 
Q 2147 1341 1841 1422 
L 1438 1528 
Q 953 1653 748 1773 
Q 544 1894 428 2066 
Q 313 2238 313 2488 
Q 313 2950 642 3192 
Q 972 3434 1603 3434 
Q 2163 3434 2492 3237 
Q 2822 3041 2909 2606 
L 2403 2544 
Q 2356 2769 2151 2889 
Q 1947 3009 1603 3009 
Q 1222 3009 1040 2893 
Q 859 2778 859 2544 
Q 859 2400 934 2306 
Q 1009 2213 1156 2147 
Q 1303 2081 1775 1966 
Q 2222 1853 2419 1758 
Q 2616 1663 2730 1547 
Q 2844 1431 2906 1279 
Q 2969 1128 2969 934 
z
" transform="scale(0.015625)"/>
      </defs>
      <use xlink:href="#LiberationSans-54"/>
      <use xlink:href="#LiberationSans-69" x="57.333984"/>
      <use xlink:href="#LiberationSans-6d" x="79.550781"/>
      <use xlink:href="#LiberationSans-65" x="162.851562"/>
      <use xlink:href="#LiberationSans-20" x="218.466797"/>
      <use xlink:href="#LiberationSans-70" x="246.25"/>
      <use xlink:href="#LiberationSans-73" x="301.865234"/>
     </g>
    </g>
   </g>
   <g id="matplotlib.axis_2">
    <g id="ytick_1">
     <g id="line2d_22">
      <defs>
       <path id="mb8eba9608d" d="M 0 0 
L 3.5 0 
" style="stroke: #000000; stroke-width: 0.8"/>
      </defs>
      <g>
       <use xlink:href="#mb8eba9608d" x="98.46" y="614.387717" style="stroke: #000000; stroke-width: 0.8"/>
      </g>
     </g>
     <g id="text_8">
      <!-- $\mathdefault{−0.5}$ -->
      <g transform="translate(41.5 624.170999) scale(0.27 -0.27)">
       <defs>
        <path id="LiberationSans-2212" d="M 316 1900 
L 316 2356 
L 3425 2356 
L 3425 1900 
L 316 1900 
z
" transform="scale(0.015625)"/>
        <path id="LiberationSans-2e" d="M 584 0 
L 584 684 
L 1194 684 
L 1194 0 
L 584 0 
z
" transform="scale(0.015625)"/>
        <path id="LiberationSans-35" d="M 3291 1434 
Q 3291 738 2877 337 
Q 2463 -63 1728 -63 
Q 1113 -63 734 206 
Q 356 475 256 984 
L 825 1050 
Q 1003 397 1741 397 
Q 2194 397 2450 670 
Q 2706 944 2706 1422 
Q 2706 1838 2448 2094 
Q 2191 2350 1753 2350 
Q 1525 2350 1328 2278 
Q 1131 2206 934 2034 
L 384 2034 
L 531 4403 
L 3034 4403 
L 3034 3925 
L 1044 3925 
L 959 2528 
Q 1325 2809 1869 2809 
Q 2519 2809 2905 2428 
Q 3291 2047 3291 1434 
z
" transform="scale(0.015625)"/>
       </defs>
       <use xlink:href="#LiberationSans-2212" transform="translate(0 0.171875)"/>
       <use xlink:href="#LiberationSans-30" transform="translate(58.398438 0.171875)"/>
       <use xlink:href="#LiberationSans-2e" transform="translate(114.013672 0.171875)"/>
       <use xlink:href="#LiberationSans-35" transform="translate(141.796875 0.171875)"/>
      </g>
     </g>
    </g>
    <g id="ytick_2">
     <g id="line2d_23">
      <g>
       <use xlink:href="#mb8eba9608d" x="98.46" y="497.242031" style="stroke: #000000; stroke-width: 0.8"/>
      </g>
     </g>
     <g id="text_9">
      <!-- $\mathdefault{0.0}$ -->
      <g transform="translate(57.16 507.025312) scale(0.27 -0.27)">
       <use xlink:href="#LiberationSans-30" transform="translate(0 0.171875)"/>
       <use xlink:href="#LiberationSans-2e" transform="translate(55.615234 0.171875)"/>
       <use xlink:href="#LiberationSans-30" transform="translate(83.398438 0.171875)"/>
      </g>
     </g>
    </g>
    <g id="ytick_3">
     <g id="line2d_24">
      <g>
       <use xlink:href="#mb8eba9608d" x="98.46" y="380.096344" style="stroke: #000000; stroke-width: 0.8"/>
      </g>
     </g>
     <g id="text_10">
      <!-- $\mathdefault{0.5}$ -->
      <g transform="translate(57.16 389.879626) scale(0.27 -0.27)">
       <use xlink:href="#LiberationSans-30" transform="translate(0 0.171875)"/>
       <use xlink:href="#LiberationSans-2e" transform="translate(55.615234 0.171875)"/>
       <use xlink:href="#LiberationSans-35" transform="translate(83.398438 0.171875)"/>
      </g>
     </g>
    </g>
    <g id="ytick_4">
     <g id="line2d_25">
      <g>
       <use xlink:href="#mb8eba9608d" x="98.46" y="262.950658" style="stroke: #000000; stroke-width: 0.8"/>
      </g>
     </g>
     <g id="text_11">
      <!-- $\mathdefault{1.0}$ -->
      <g transform="translate(57.16 272.733939) scale(0.27 -0.27)">
       <use xlink:href="#LiberationSans-31" transform="translate(0 0.171875)"/>
       <use xlink:href="#LiberationSans-2e" transform="translate(55.615234 0.171875)"/>
       <use xlink:href="#LiberationSans-30" transform="translate(83.398438 0.171875)"/>
      </g>
     </g>
    </g>
    <g id="ytick_5">
     <g id="line2d_26">
      <g>
       <use xlink:href="#mb8eba9608d" x="98.46" y="145.804971" style="stroke: #000000; stroke-width: 0.8"/>
      </g>
     </g>
     <g id="text_12">
      <!-- $\mathdefault{1.5}$ -->
      <g transform="translate(57.16 155.588253) scale(0.27 -0.27)">
       <use xlink:href="#LiberationSans-31" transform="translate(0 0.203125)"/>
       <use xlink:href="#LiberationSans-2e" transform="translate(55.615234 0.203125)"/>
       <use xlink:href="#LiberationSans-35" transform="translate(83.398438 0.203125)"/>
      </g>
     </g>
    </g>
    <g id="ytick_6">
     <g id="line2d_27">
      <defs>
       <path id="mba45e4e94a" d="M 0 0 
L 2 0 
" style="stroke: #000000; stroke-width: 0.6"/>
      </defs>
      <g>
       <use xlink:href="#mba45e4e94a" x="98.46" y="637.816855" style="stroke: #000000; stroke-width: 0.6"/>
      </g>
     </g>
    </g>
    <g id="ytick_7">
     <g id="line2d_28">
      <g>
       <use xlink:href="#mba45e4e94a" x="98.46" y="590.95858" style="stroke: #000000; stroke-width: 0.6"/>
      </g>
     </g>
    </g>
    <g id="ytick_8">
     <g id="line2d_29">
      <g>
       <use xlink:href="#mba45e4e94a" x="98.46" y="567.529443" style="stroke: #000000; stroke-width: 0.6"/>
      </g>
     </g>
    </g>
    <g id="ytick_9">
     <g id="line2d_30">
      <g>
       <use xlink:href="#mba45e4e94a" x="98.46" y="544.100305" style="stroke: #000000; stroke-width: 0.6"/>
      </g>
     </g>
    </g>
    <g id="ytick_10">
     <g id="line2d_31">
      <g>
       <use xlink:href="#mba45e4e94a" x="98.46" y="520.671168" style="stroke: #000000; stroke-width: 0.6"/>
      </g>
     </g>
    </g>
    <g id="ytick_11">
     <g id="line2d_32">
      <g>
       <use xlink:href="#mba45e4e94a" x="98.46" y="473.812894" style="stroke: #000000; stroke-width: 0.6"/>
      </g>
     </g>
    </g>
    <g id="ytick_12">
     <g id="line2d_33">
      <g>
       <use xlink:href="#mba45e4e94a" x="98.46" y="450.383756" style="stroke: #000000; stroke-width: 0.6"/>
      </g>
     </g>
    </g>
    <g id="ytick_13">
     <g id="line2d_34">
      <g>
       <use xlink:href="#mba45e4e94a" x="98.46" y="426.954619" style="stroke: #000000; stroke-width: 0.6"/>
      </g>
     </g>
    </g>
    <g id="ytick_14">
     <g id="line2d_35">
      <g>
       <use xlink:href="#mba45e4e94a" x="98.46" y="403.525482" style="stroke: #000000; stroke-width: 0.6"/>
      </g>
     </g>
    </g>
    <g id="ytick_15">
     <g id="line2d_36">
      <g>
       <use xlink:href="#mba45e4e94a" x="98.46" y="356.667207" style="stroke: #000000; stroke-width: 0.6"/>
      </g>
     </g>
    </g>
    <g id="ytick_16">
     <g id="line2d_37">
      <g>
       <use xlink:href="#mba45e4e94a" x="98.46" y="333.23807" style="stroke: #000000; stroke-width: 0.6"/>
      </g>
     </g>
    </g>
    <g id="ytick_17">
     <g id="line2d_38">
      <g>
       <use xlink:href="#mba45e4e94a" x="98.46" y="309.808933" style="stroke: #000000; stroke-width: 0.6"/>
      </g>
     </g>
    </g>
    <g id="ytick_18">
     <g id="line2d_39">
      <g>
       <use xlink:href="#mba45e4e94a" x="98.46" y="286.379795" style="stroke: #000000; stroke-width: 0.6"/>
      </g>
     </g>
    </g>
    <g id="ytick_19">
     <g id="line2d_40">
      <g>
       <use xlink:href="#mba45e4e94a" x="98.46" y="239.521521" style="stroke: #000000; stroke-width: 0.6"/>
      </g>
     </g>
    </g>
    <g id="ytick_20">
     <g id="line2d_41">
      <g>
       <use xlink:href="#mba45e4e94a" x="98.46" y="216.092383" style="stroke: #000000; stroke-width: 0.6"/>
      </g>
     </g>
    </g>
    <g id="ytick_21">
     <g id="line2d_42">
      <g>
       <use xlink:href="#mba45e4e94a" x="98.46" y="192.663246" style="stroke: #000000; stroke-width: 0.6"/>
      </g>
     </g>
    </g>
    <g id="ytick_22">
     <g id="line2d_43">
      <g>
       <use xlink:href="#mba45e4e94a" x="98.46" y="169.234109" style="stroke: #000000; stroke-width: 0.6"/>
      </g>
     </g>
    </g>
    <g id="ytick_23">
     <g id="line2d_44">
      <g>
       <use xlink:href="#mba45e4e94a" x="98.46" y="122.375834" style="stroke: #000000; stroke-width: 0.6"/>
      </g>
     </g>
    </g>
    <g id="ytick_24">
     <g id="line2d_45">
      <g>
       <use xlink:href="#mba45e4e94a" x="98.46" y="98.946697" style="stroke: #000000; stroke-width: 0.6"/>
      </g>
     </g>
    </g>
    <g id="ytick_25">
     <g id="line2d_46">
      <g>
       <use xlink:href="#mba45e4e94a" x="98.46" y="75.51756" style="stroke: #000000; stroke-width: 0.6"/>
      </g>
     </g>
    </g>
    <g id="ytick_26">
     <g id="line2d_47">
      <g>
       <use xlink:href="#mba45e4e94a" x="98.46" y="52.088422" style="stroke: #000000; stroke-width: 0.6"/>
      </g>
     </g>
    </g>
    <g id="text_13">
     <!-- HFACF $(\mathrm{W} / \mathrm{m}^2)^2$ -->
     <g transform="translate(31.275 447.729) rotate(-90) scale(0.3 -0.3)">
      <defs>
       <path id="LiberationSans-48" d="M 3503 0 
L 3503 2041 
L 1122 2041 
L 1122 0 
L 525 0 
L 525 4403 
L 1122 4403 
L 1122 2541 
L 3503 2541 
L 3503 4403 
L 4100 4403 
L 4100 0 
L 3503 0 
z
" transform="scale(0.015625)"/>
       <path id="LiberationSans-46" d="M 1122 3916 
L 1122 2278 
L 3578 2278 
L 3578 1784 
L 1122 1784 
L 1122 0 
L 525 0 
L 525 4403 
L 3653 4403 
L 3653 3916 
L 1122 3916 
z
" transform="scale(0.015625)"/>
       <path id="LiberationSans-41" d="M 3647 0 
L 3144 1288 
L 1138 1288 
L 631 0 
L 13 0 
L 1809 4403 
L 2488 4403 
L 4256 0 
L 3647 0 
z
M 2141 3953 
L 2113 3866 
Q 2034 3606 1881 3200 
L 1319 1753 
L 2966 1753 
L 2400 3206 
Q 2313 3422 2225 3694 
L 2141 3953 
z
" transform="scale(0.015625)"/>
       <path id="LiberationSans-43" d="M 2475 3981 
Q 1744 3981 1337 3511 
Q 931 3041 931 2222 
Q 931 1413 1354 920 
Q 1778 428 2500 428 
Q 3425 428 3891 1344 
L 4378 1100 
Q 4106 531 3614 234 
Q 3122 -63 2472 -63 
Q 1806 -63 1320 214 
Q 834 491 579 1005 
Q 325 1519 325 2222 
Q 325 3275 894 3872 
Q 1463 4469 2469 4469 
Q 3172 4469 3644 4194 
Q 4116 3919 4338 3378 
L 3772 3191 
Q 3619 3575 3280 3778 
Q 2941 3981 2475 3981 
z
" transform="scale(0.015625)"/>
       <path id="STIXGeneral-Regular-28" d="M 1946 -1030 
L 1869 -1133 
Q 1126 -710 716 32 
Q 307 774 307 1613 
Q 307 3386 1888 4326 
L 1946 4224 
Q 1293 3667 1075 3126 
Q 858 2586 858 1632 
Q 858 685 1082 96 
Q 1306 -493 1946 -1030 
z
" transform="scale(0.015625)"/>
       <path id="STIXGeneral-Regular-57" d="M 5965 4237 
L 5965 4115 
Q 5709 4064 5616 3990 
Q 5523 3917 5434 3667 
Q 4704 1709 4128 -70 
L 4032 -70 
Q 3642 1011 3008 2637 
L 2022 -70 
L 1926 -70 
Q 1709 576 1277 1753 
Q 845 2931 698 3347 
Q 538 3808 406 3958 
Q 275 4109 32 4115 
L 32 4237 
L 1594 4237 
L 1594 4115 
Q 1357 4109 1270 4064 
Q 1184 4019 1184 3917 
Q 1184 3808 1254 3616 
L 2176 1210 
L 2842 3021 
L 2662 3501 
Q 2509 3917 2400 4013 
Q 2291 4109 2010 4115 
L 2010 4237 
L 3706 4237 
L 3706 4115 
Q 3213 4102 3213 3891 
Q 3213 3808 3322 3520 
L 4237 1190 
L 5043 3360 
Q 5152 3667 5152 3853 
Q 5152 4109 4704 4115 
L 4704 4237 
L 5965 4237 
z
" transform="scale(0.015625)"/>
       <path id="STIXGeneral-Regular-2f" d="M 1837 4326 
L 378 -90 
L -58 -90 
L 1408 4326 
L 1837 4326 
z
" transform="scale(0.015625)"/>
       <path id="STIXGeneral-Regular-6d" d="M 4960 0 
L 3565 0 
L 3565 96 
Q 3834 122 3907 208 
Q 3981 294 3981 576 
L 3981 1894 
Q 3981 2278 3869 2444 
Q 3757 2611 3488 2611 
Q 3264 2611 3107 2521 
Q 2950 2432 2803 2221 
L 2803 608 
Q 2803 301 2896 201 
Q 2989 102 3264 96 
L 3264 0 
L 1830 0 
L 1830 96 
Q 2112 115 2189 188 
Q 2266 262 2266 550 
L 2266 1901 
Q 2266 2611 1850 2611 
Q 1670 2611 1468 2531 
Q 1267 2451 1171 2336 
Q 1088 2240 1088 2227 
L 1088 448 
Q 1088 243 1177 176 
Q 1267 109 1523 96 
L 1523 0 
L 102 0 
L 102 96 
Q 371 102 460 195 
Q 550 288 550 563 
L 550 2150 
Q 550 2387 499 2480 
Q 448 2573 326 2573 
Q 230 2573 122 2547 
L 122 2656 
Q 557 2778 1011 2944 
L 1062 2925 
L 1062 2451 
L 1075 2451 
Q 1363 2752 1584 2848 
Q 1805 2944 2054 2944 
Q 2560 2944 2733 2406 
Q 3232 2944 3776 2944 
Q 4518 2944 4518 1792 
L 4518 493 
Q 4518 282 4582 202 
Q 4646 122 4794 109 
L 4960 96 
L 4960 0 
z
" transform="scale(0.015625)"/>
       <path id="STIXGeneral-Regular-32" d="M 3034 877 
L 2688 0 
L 186 0 
L 186 77 
L 1325 1286 
Q 1773 1754 1965 2144 
Q 2157 2534 2157 2950 
Q 2157 3379 1920 3616 
Q 1683 3853 1267 3853 
Q 922 3853 720 3673 
Q 518 3494 326 3021 
L 192 3053 
Q 301 3648 630 3987 
Q 960 4326 1523 4326 
Q 2054 4326 2380 4006 
Q 2707 3686 2707 3200 
Q 2707 2477 1888 1613 
L 832 486 
L 2330 486 
Q 2541 486 2665 569 
Q 2790 653 2944 915 
L 3034 877 
z
" transform="scale(0.015625)"/>
       <path id="STIXGeneral-Regular-29" d="M 186 4224 
L 262 4326 
Q 992 3891 1408 3148 
Q 1824 2406 1824 1581 
Q 1824 -166 243 -1133 
L 186 -1030 
Q 845 -486 1059 54 
Q 1274 595 1274 1562 
Q 1274 2534 1059 3120 
Q 845 3706 186 4224 
z
" transform="scale(0.015625)"/>
      </defs>
      <use xlink:href="#LiberationSans-48" transform="translate(0 0.409375)"/>
      <use xlink:href="#LiberationSans-46" transform="translate(72.216797 0.409375)"/>
      <use xlink:href="#LiberationSans-41" transform="translate(133.300781 0.409375)"/>
      <use xlink:href="#LiberationSans-43" transform="translate(200 0.409375)"/>
      <use xlink:href="#LiberationSans-46" transform="translate(272.216797 0.409375)"/>
      <use xlink:href="#LiberationSans-20" transform="translate(333.300781 0.409375)"/>
      <use xlink:href="#STIXGeneral-Regular-28" transform="translate(361.083984 0.409375)"/>
      <use xlink:href="#STIXGeneral-Regular-57" transform="translate(394.383972 0.409375)"/>
      <use xlink:href="#STIXGeneral-Regular-2f" transform="translate(488.783966 0.409375)"/>
      <use xlink:href="#STIXGeneral-Regular-6d" transform="translate(516.583954 0.409375)"/>
      <use xlink:href="#STIXGeneral-Regular-32" transform="translate(595.927223 35.684375) scale(0.7)"/>
      <use xlink:href="#STIXGeneral-Regular-29" transform="translate(635.336587 0.409375)"/>
      <use xlink:href="#STIXGeneral-Regular-32" transform="translate(670.179856 35.684375) scale(0.7)"/>
     </g>
    </g>
    <g id="text_14">
     <!-- $\times\mathdefault{10^{19}}\mathdefault{}$ -->
     <g transform="translate(98.46 36.1875) scale(0.4 -0.4)">
      <defs>
       <path id="STIXGeneral-Regular-d7" d="M 3821 141 
L 3526 -160 
L 2048 1312 
L 570 -160 
L 275 134 
L 1747 1613 
L 275 3091 
L 576 3386 
L 2048 1914 
L 3526 3386 
L 3821 3098 
L 2349 1613 
L 3821 141 
z
" transform="scale(0.015625)"/>
       <path id="LiberationSans-39" d="M 3256 2291 
Q 3256 1156 2842 546 
Q 2428 -63 1663 -63 
Q 1147 -63 836 154 
Q 525 372 391 856 
L 928 941 
Q 1097 391 1672 391 
Q 2156 391 2422 841 
Q 2688 1291 2700 2125 
Q 2575 1844 2272 1673 
Q 1969 1503 1606 1503 
Q 1013 1503 656 1909 
Q 300 2316 300 2988 
Q 300 3678 687 4073 
Q 1075 4469 1766 4469 
Q 2500 4469 2878 3925 
Q 3256 3381 3256 2291 
z
M 2644 2834 
Q 2644 3366 2400 3689 
Q 2156 4013 1747 4013 
Q 1341 4013 1106 3736 
Q 872 3459 872 2988 
Q 872 2506 1106 2226 
Q 1341 1947 1741 1947 
Q 1984 1947 2193 2058 
Q 2403 2169 2523 2372 
Q 2644 2575 2644 2834 
z
" transform="scale(0.015625)"/>
      </defs>
      <use xlink:href="#STIXGeneral-Regular-d7" transform="translate(0 0.140625)"/>
      <use xlink:href="#LiberationSans-31" transform="translate(63.999985 0.140625)"/>
      <use xlink:href="#LiberationSans-30" transform="translate(119.615219 0.140625)"/>
      <use xlink:href="#LiberationSans-31" transform="translate(176.154946 37.120312) scale(0.7)"/>
      <use xlink:href="#LiberationSans-39" transform="translate(215.08561 37.120312) scale(0.7)"/>
     </g>
    </g>
   </g>
   <g id="line2d_48">
    <path d="M 125.94222 66.645818 
L 126.05216 67.597684 
L 126.21707 72.571878 
L 126.49192 90.035354 
L 126.876709 132.018412 
L 127.426408 219.309364 
L 129.295386 540.51873 
L 129.790116 586.708306 
L 130.229875 608.988121 
L 130.504725 614.858241 
L 130.669635 615.812182 
L 130.724605 615.747006 
L 130.889515 614.513623 
L 131.164364 609.491575 
L 131.604124 596.015061 
L 133.363162 535.88538 
L 133.912861 526.023304 
L 134.407591 520.787449 
L 134.95729 517.398945 
L 136.276568 510.560189 
L 137.101117 504.25064 
L 138.145546 496.461377 
L 138.640276 494.146347 
L 139.025065 493.251558 
L 139.299915 493.114127 
L 139.519795 493.289915 
L 139.794644 493.832183 
L 140.234404 495.308938 
L 141.003983 498.92778 
L 142.103382 503.945819 
L 142.763021 505.971369 
L 143.31272 507.018207 
L 143.86242 507.60744 
L 144.467089 507.920028 
L 145.401578 508.108852 
L 146.995706 508.203148 
L 147.820255 508.045213 
L 148.424925 507.723675 
L 148.974624 507.164566 
L 149.469353 506.310812 
L 149.964083 504.96456 
L 150.458812 502.955834 
L 151.008512 499.780127 
L 151.668151 494.604094 
L 153.921918 475.364323 
L 154.251738 474.507915 
L 154.416648 474.441207 
L 154.581558 474.629786 
L 154.801437 475.287135 
L 155.131257 477.137582 
L 155.571016 481.098976 
L 156.230656 489.431639 
L 157.659874 508.010099 
L 158.154603 511.62871 
L 158.484423 512.809371 
L 158.704303 513.049383 
L 158.869213 512.958968 
L 159.089092 512.510015 
L 159.418912 511.242477 
L 160.023581 507.756266 
L 160.95807 502.448486 
L 161.39783 501.060867 
L 161.727649 500.668302 
L 161.947529 500.705841 
L 162.222379 501.045025 
L 162.662138 502.069976 
L 163.596627 504.366993 
L 163.871477 504.5821 
L 164.091357 504.490898 
L 164.311236 504.135872 
L 164.641056 503.08227 
L 165.080816 500.740863 
L 165.740455 495.727256 
L 166.949793 486.444644 
L 167.389553 484.603438 
L 167.664403 484.113537 
L 167.884282 484.109788 
L 168.104162 484.447411 
L 168.433982 485.553501 
L 168.873741 487.970401 
L 169.69829 494.121238 
L 170.632779 500.614006 
L 171.182479 503.053862 
L 171.622238 504.118906 
L 171.952058 504.461463 
L 172.281877 504.502703 
L 172.666667 504.303004 
L 173.930975 503.468791 
L 174.480675 503.464774 
L 175.415164 503.528509 
L 175.799953 503.292209 
L 176.184743 502.76395 
L 176.624502 501.745815 
L 177.229172 499.668249 
L 179.263059 491.937949 
L 179.702819 491.241069 
L 180.032639 491.051897 
L 180.362458 491.121149 
L 180.747248 491.467568 
L 181.351917 492.380018 
L 184.210354 497.51707 
L 184.924963 499.617934 
L 186.848911 505.810451 
L 187.2337 506.249283 
L 187.50855 506.253617 
L 187.7834 505.98492 
L 188.113219 505.307436 
L 188.552979 503.864767 
L 189.267588 500.631494 
L 190.421957 495.430498 
L 190.971656 493.902775 
L 191.356446 493.345297 
L 191.686265 493.18561 
L 192.016085 493.271234 
L 192.455844 493.649485 
L 193.665183 494.839578 
L 194.104942 494.915849 
L 194.544702 494.73558 
L 195.204341 494.159863 
L 195.86398 493.660213 
L 196.24877 493.626619 
L 196.57859 493.835214 
L 196.963379 494.399617 
L 197.458109 495.634147 
L 198.172718 498.185477 
L 199.437026 502.736295 
L 199.931756 503.717618 
L 200.261575 503.982913 
L 200.536425 503.957575 
L 200.866245 503.646892 
L 201.306004 502.825061 
L 201.965644 501.015928 
L 203.339892 497.164179 
L 203.999531 495.98571 
L 204.6042 495.320739 
L 205.37378 494.82606 
L 206.363238 494.450797 
L 207.022878 494.416268 
L 207.517607 494.628859 
L 207.957367 495.061971 
L 208.452096 495.860014 
L 209.111735 497.38524 
L 210.870773 501.736804 
L 211.365503 502.303202 
L 211.750292 502.428887 
L 212.135082 502.29725 
L 212.629811 501.835091 
L 214.333879 499.969532 
L 214.828609 499.861165 
L 215.433278 499.986118 
L 216.257827 500.137583 
L 216.642617 499.986581 
L 217.027406 499.596265 
L 217.467166 498.815707 
L 218.071835 497.198413 
L 220.050753 491.340401 
L 220.435542 490.914381 
L 220.765362 490.849862 
L 221.095182 491.055741 
L 221.479971 491.598226 
L 222.084641 492.925504 
L 223.678769 496.681058 
L 224.283438 497.473434 
L 224.833137 497.847053 
L 225.602717 498.061231 
L 226.592175 498.36279 
L 227.526664 498.926878 
L 228.461153 499.431872 
L 229.010853 499.496309 
L 229.560552 499.330348 
L 230.275161 498.850365 
L 231.37456 498.107581 
L 231.924259 497.998069 
L 232.473959 498.126539 
L 233.243538 498.583006 
L 234.178027 499.094435 
L 234.727726 499.141293 
L 235.277426 498.940256 
L 235.992035 498.404562 
L 237.036464 497.630066 
L 237.586163 497.493474 
L 238.080892 497.589221 
L 238.795502 497.992859 
L 239.675021 498.457337 
L 240.11478 498.457704 
L 240.49957 498.254939 
L 240.939329 497.769089 
L 241.543998 496.709165 
L 243.303036 493.305588 
L 243.742796 492.997215 
L 244.072616 492.998834 
L 244.457405 493.247028 
L 244.952134 493.895051 
L 245.831653 495.533001 
L 246.711172 497.008131 
L 247.315842 497.60619 
L 247.865541 497.841273 
L 248.80003 497.919438 
L 249.404699 498.083857 
L 249.954399 498.486599 
L 250.559068 499.24427 
L 252.592956 502.123183 
L 252.977745 502.227448 
L 253.362535 502.091329 
L 253.802294 501.645891 
L 254.351994 500.721681 
L 255.451393 498.282566 
L 256.330912 496.576617 
L 256.990551 495.762007 
L 257.54025 495.402861 
L 258.199889 495.252395 
L 259.739048 495.262716 
L 261.113296 495.349785 
L 261.772935 495.649436 
L 262.377605 496.173659 
L 263.147184 497.157572 
L 265.016162 499.699195 
L 265.620831 500.125926 
L 266.17053 500.259179 
L 266.72023 500.159049 
L 267.324899 499.810658 
L 268.039508 499.126969 
L 268.919027 497.955315 
L 271.612554 494.05305 
L 272.107284 493.815635 
L 272.547043 493.839265 
L 272.986803 494.083431 
L 273.536502 494.656334 
L 274.525961 496.103208 
L 275.51542 497.407708 
L 276.120089 497.876581 
L 276.724758 498.06683 
L 277.549307 498.053453 
L 278.373856 498.094539 
L 278.978526 498.363193 
L 279.638165 498.93466 
L 281.342233 500.591629 
L 281.781993 500.664717 
L 282.166782 500.518713 
L 282.606542 500.107768 
L 283.211211 499.183457 
L 285.190129 495.808678 
L 285.684858 495.48609 
L 286.124618 495.447178 
L 286.619347 495.632103 
L 287.553836 496.296468 
L 288.323415 496.729796 
L 288.928084 496.822393 
L 289.587724 496.684129 
L 291.071912 496.268386 
L 291.621611 496.376511 
L 292.226281 496.728706 
L 293.16077 497.589629 
L 294.260168 498.536791 
L 294.919808 498.830652 
L 295.579447 498.876986 
L 296.349026 498.691102 
L 298.382914 497.839627 
L 300.141952 497.276462 
L 301.40626 497.090656 
L 302.835479 497.139254 
L 303.989847 497.095035 
L 304.869366 496.830999 
L 306.793314 496.127339 
L 307.343013 496.216476 
L 307.892713 496.534499 
L 308.552352 497.194147 
L 310.53127 499.394582 
L 311.025999 499.564342 
L 311.520729 499.504398 
L 312.125398 499.170852 
L 314.324195 497.668052 
L 314.983835 497.631135 
L 316.028263 497.854367 
L 316.852813 497.92962 
L 317.457482 497.764697 
L 318.117121 497.335632 
L 319.32646 496.182145 
L 320.096039 495.617294 
L 320.645738 495.479939 
L 321.140468 495.593871 
L 321.690167 495.976464 
L 322.404776 496.777146 
L 324.273754 499.015769 
L 324.988363 499.463908 
L 325.648003 499.610245 
L 326.362612 499.522279 
L 327.242131 499.160102 
L 328.561409 498.334732 
L 330.485357 497.150894 
L 331.639726 496.720629 
L 336.53205 495.496879 
L 337.136719 495.708846 
L 337.741389 496.163752 
L 338.510968 497.04981 
L 340.324976 499.278614 
L 340.874675 499.580023 
L 341.369405 499.608557 
L 341.864134 499.417231 
L 342.523773 498.904245 
L 344.392751 497.306615 
L 345.10736 497.06202 
L 346.041849 497.006942 
L 347.416098 496.908549 
L 348.900286 496.476368 
L 349.724835 496.386498 
L 350.329504 496.535959 
L 350.989144 496.946496 
L 351.813693 497.761077 
L 353.73764 499.782679 
L 354.39728 500.130941 
L 355.001949 500.205377 
L 355.606618 500.039021 
L 356.266258 499.597613 
L 357.035837 498.78586 
L 358.190205 497.181003 
L 359.509484 495.428642 
L 360.169123 494.881732 
L 360.718823 494.680969 
L 361.268522 494.721455 
L 361.873191 495.008592 
L 362.75271 495.714079 
L 364.566718 497.205613 
L 367.205275 499.092645 
L 368.634494 500.244183 
L 369.239163 500.439227 
L 369.733892 500.358281 
L 370.228622 500.028538 
L 370.778321 499.37728 
L 371.5479 498.079249 
L 373.251968 495.076554 
L 373.911607 494.403903 
L 374.461307 494.149192 
L 375.011006 494.146948 
L 375.670645 494.394959 
L 376.660104 495.045465 
L 378.144293 496.288731 
L 379.133752 497.399361 
L 380.39806 499.218844 
L 381.497459 500.674843 
L 382.102128 501.136333 
L 382.596858 501.237145 
L 383.036617 501.092613 
L 383.531347 500.669039 
L 384.136016 499.823509 
L 385.070505 498.05995 
L 386.554693 495.274439 
L 387.269302 494.371199 
L 387.873972 493.928521 
L 388.423671 493.787768 
L 388.97337 493.881485 
L 389.57804 494.225196 
L 390.292649 494.898751 
L 391.337078 496.230771 
L 393.590845 499.188961 
L 394.525334 500.01706 
L 395.349883 500.454532 
L 396.064492 500.592033 
L 396.779101 500.49508 
L 397.493711 500.160165 
L 398.26329 499.540998 
L 399.197779 498.477109 
L 401.946276 495.083295 
L 402.605915 494.706742 
L 403.210584 494.596756 
L 403.870223 494.698228 
L 404.859682 495.114551 
L 407.883029 496.745221 
L 408.762548 497.57179 
L 411.181225 500.112928 
L 411.675954 500.203974 
L 412.115714 500.052313 
L 412.610443 499.614257 
L 413.215113 498.743136 
L 414.369481 496.557506 
L 415.30397 495.023453 
L 415.90864 494.431911 
L 416.403369 494.236225 
L 416.898098 494.288616 
L 417.447798 494.58633 
L 418.272347 495.328026 
L 420.416174 497.352539 
L 421.955333 498.397113 
L 423.109701 498.965634 
L 423.879281 499.105046 
L 424.48395 499.000952 
L 425.143589 498.644165 
L 425.913168 497.947541 
L 428.276876 495.60229 
L 428.936515 495.34147 
L 429.596154 495.322685 
L 430.310763 495.536436 
L 431.245252 496.075303 
L 432.94932 497.384683 
L 434.213629 498.22716 
L 435.038178 498.518621 
L 435.807757 498.54693 
L 436.742246 498.328127 
L 438.501284 497.867188 
L 439.655653 497.864672 
L 440.810021 497.821619 
L 441.5796 497.566143 
L 442.514089 496.997173 
L 443.833368 496.20973 
L 444.493007 496.092932 
L 445.097676 496.228592 
L 445.757316 496.622315 
L 446.911684 497.645718 
L 447.956113 498.449954 
L 448.670722 498.721553 
L 449.330362 498.733675 
L 450.099941 498.51037 
L 451.804009 497.679236 
L 453.672987 496.93159 
L 456.091664 496.139099 
L 456.916213 496.132716 
L 457.795732 496.367722 
L 461.808537 497.823773 
L 464.117275 498.359807 
L 464.831884 498.239642 
L 465.546493 497.891463 
L 466.700862 497.028231 
L 467.85523 496.250087 
L 468.734749 495.927298 
L 469.779178 495.806783 
L 471.483246 495.85979 
L 472.472705 496.087684 
L 473.242284 496.490737 
L 474.121803 497.229568 
L 476.59545 499.540807 
L 477.20012 499.716127 
L 477.749819 499.653448 
L 478.354488 499.353701 
L 479.179037 498.655602 
L 481.212925 496.797038 
L 482.037474 496.410521 
L 482.862023 496.280541 
L 483.906452 496.362186 
L 485.61052 496.745982 
L 487.039739 497.272138 
L 489.458416 498.264973 
L 490.227995 498.280614 
L 491.052544 498.064359 
L 492.646672 497.33094 
L 493.910981 496.89206 
L 495.285229 496.669626 
L 497.429057 496.550938 
L 498.528455 496.70374 
L 499.517914 497.07609 
L 501.057073 497.94852 
L 502.486291 498.647449 
L 503.69563 498.985687 
L 505.014908 499.134688 
L 505.949397 499.04546 
L 506.718976 498.756607 
L 507.488555 498.226848 
L 508.642924 497.106514 
L 509.742323 496.130111 
L 510.401962 495.81557 
L 511.006631 495.77286 
L 511.611301 495.957685 
L 512.38088 496.443098 
L 514.854527 498.192279 
L 515.569136 498.338768 
L 516.228775 498.250531 
L 516.998354 497.89963 
L 519.691881 496.378369 
L 520.46146 496.377671 
L 523.209957 496.671476 
L 525.518695 496.31131 
L 526.178334 496.529755 
L 526.947913 497.029305 
L 529.64144 499.027517 
L 530.356049 499.134599 
L 531.070658 499.011443 
L 532.115087 498.566752 
L 533.764185 497.866857 
L 535.028494 497.619648 
L 536.402742 497.306377 
L 537.392201 496.816911 
L 539.590999 495.590387 
L 540.305608 495.519735 
L 540.965247 495.681101 
L 541.734826 496.124207 
L 542.724285 496.987618 
L 545.033022 499.102594 
L 545.802602 499.450727 
L 546.462241 499.516488 
L 547.17685 499.356039 
L 548.056369 498.903668 
L 549.375647 497.933686 
L 553.113603 495.014236 
L 553.773242 494.904438 
L 554.377912 495.032107 
L 555.037551 495.411009 
L 555.91707 496.205251 
L 558.335747 498.54274 
L 559.270236 499.079855 
L 560.094785 499.314951 
L 560.864364 499.30871 
L 561.633943 499.066707 
L 562.458493 498.558111 
L 563.667831 497.504728 
L 565.152019 496.26225 
L 566.031538 495.816466 
L 566.856088 495.657228 
L 567.735607 495.73272 
L 568.780035 496.065021 
L 570.264224 496.79876 
L 572.188171 497.717329 
L 573.56242 498.09323 
L 576.420857 498.579951 
L 577.245406 498.485369 
L 577.960015 498.16423 
L 578.729594 497.544555 
L 579.938933 496.210012 
L 580.983361 495.197836 
L 581.588031 494.891774 
L 582.13773 494.865278 
L 582.687429 495.091372 
L 583.292099 495.599388 
L 584.226588 496.719929 
L 585.490896 498.193701 
L 586.205505 498.690402 
L 586.810175 498.8453 
L 587.414844 498.768031 
L 588.184423 498.414415 
L 590.98789 496.862884 
L 592.032319 496.68143 
L 593.956267 496.634102 
L 595.770275 496.734522 
L 596.814703 497.01966 
L 597.969072 497.580851 
L 599.83805 498.499902 
L 600.717569 498.656874 
L 601.542118 498.571865 
L 602.421637 498.244666 
L 603.466066 497.597457 
L 605.335044 496.09968 
L 606.599352 495.234356 
L 607.478871 494.884934 
L 608.24845 494.8035 
L 609.018029 494.935951 
L 609.897548 495.314889 
L 611.051917 496.071788 
L 614.844843 498.769432 
L 615.669392 498.970487 
L 616.438971 498.918153 
L 617.20855 498.64064 
L 618.198009 498.025432 
L 621.386265 495.826223 
L 622.155844 495.67769 
L 622.870454 495.771369 
L 623.695003 496.129098 
L 626.773319 497.762442 
L 627.707808 497.819812 
L 632.929952 497.469517 
L 633.919411 496.988628 
L 635.29366 496.334525 
L 635.953299 496.290068 
L 636.557968 496.491517 
L 637.217607 496.966242 
L 638.317006 498.105854 
L 639.416405 499.132002 
L 640.076044 499.463485 
L 640.680713 499.522318 
L 641.285383 499.356815 
L 642.054962 498.895464 
L 645.353158 496.592633 
L 646.452557 496.276218 
L 647.661895 496.172866 
L 648.871234 496.288051 
L 650.190513 496.645708 
L 655.687506 498.440721 
L 656.621995 498.460664 
L 657.501514 498.250289 
L 658.436003 497.782532 
L 659.810252 496.798967 
L 661.51432 495.614631 
L 662.338869 495.29515 
L 662.998508 495.256987 
L 663.658147 495.45106 
L 664.372756 495.919532 
L 665.362215 496.877388 
L 666.791434 498.225366 
L 667.506043 498.589093 
L 668.110712 498.661977 
L 668.770351 498.501291 
L 669.53993 498.061082 
L 672.673217 495.965178 
L 673.497766 495.847992 
L 674.377285 495.958498 
L 675.586624 496.361093 
L 675.586624 496.361093 
" clip-path="url(#pad43c0f86d)" style="fill: none; stroke: #ff0000; stroke-width: 1.5; stroke-linecap: square"/>
   </g>
   <g id="patch_3">
    <path d="M 98.46 643.2705 
L 98.46 39.1875 
" style="fill: none; stroke: #000000; stroke-width: 0.8; stroke-linejoin: miter; stroke-linecap: square"/>
   </g>
   <g id="patch_4">
    <path d="M 703.068844 643.2705 
L 703.068844 39.1875 
" style="fill: none; stroke: #000000; stroke-width: 0.8; stroke-linejoin: miter; stroke-linecap: square"/>
   </g>
   <g id="patch_5">
    <path d="M 98.46 643.2705 
L 703.068844 643.2705 
" style="fill: none; stroke: #000000; stroke-width: 0.8; stroke-linejoin: miter; stroke-linecap: square"/>
   </g>
   <g id="patch_6">
    <path d="M 98.46 39.1875 
L 703.068844 39.1875 
" style="fill: none; stroke: #000000; stroke-width: 0.8; stroke-linejoin: miter; stroke-linecap: square"/>
   </g>
  </g>
 </g>
 <defs>
  <clipPath id="pad43c0f86d">
   <rect x="98.46" y="39.1875" width="604.608844" height="604.083"/>
  </clipPath>
 </defs>
</svg>
