<?xml version="1.0" encoding="utf-8" standalone="no"?>
<!DOCTYPE svg PUBLIC "-//W3C//DTD SVG 1.1//EN"
  "http://www.w3.org/Graphics/SVG/1.1/DTD/svg11.dtd">
<svg xmlns:xlink="http://www.w3.org/1999/xlink" width="451.084938pt" height="336.134375pt" viewBox="0 0 451.084938 336.134375" xmlns="http://www.w3.org/2000/svg" version="1.1">
 <metadata>
  <rdf:RDF xmlns:dc="http://purl.org/dc/elements/1.1/" xmlns:cc="http://creativecommons.org/ns#" xmlns:rdf="http://www.w3.org/1999/02/22-rdf-syntax-ns#">
   <cc:Work>
    <dc:type rdf:resource="http://purl.org/dc/dcmitype/StillImage"/>
    <dc:date>2025-02-02T18:16:28.508897</dc:date>
    <dc:format>image/svg+xml</dc:format>
    <dc:creator>
     <cc:Agent>
      <dc:title>Matplotlib v3.9.3, https://matplotlib.org/</dc:title>
     </cc:Agent>
    </dc:creator>
   </cc:Work>
  </rdf:RDF>
 </metadata>
 <defs>
  <style type="text/css">*{stroke-linejoin: round; stroke-linecap: butt}</style>
 </defs>
 <g id="figure_1">
  <g id="patch_1">
   <path d="M 0 336.134375 
L 451.084938 336.134375 
L 451.084938 0 
L 0 0 
z
" style="fill: #ffffff"/>
  </g>
  <g id="axes_1">
   <g id="patch_2">
    <path d="M 54.060938 280.646875 
L 443.884937 280.646875 
L 443.884937 17.446875 
L 54.060938 17.446875 
z
" style="fill: #ffffff"/>
   </g>
   <g id="matplotlib.axis_1">
    <g id="xtick_1">
     <g id="line2d_1">
      <defs>
       <path id="m029fb88110" d="M 0 0 
L 0 3.5 
" style="stroke: #000000; stroke-width: 0.8"/>
      </defs>
      <g>
       <use xlink:href="#m029fb88110" x="71.709312" y="280.646875" style="stroke: #000000; stroke-width: 0.8"/>
      </g>
     </g>
     <g id="text_1">
      <!-- 0 -->
      <g transform="translate(68.928843 294.89375) scale(0.1 -0.1)">
       <defs>
        <path id="LiberationSans-30" d="M 3309 2203 
Q 3309 1100 2920 518 
Q 2531 -63 1772 -63 
Q 1013 -63 631 515 
Q 250 1094 250 2203 
Q 250 3338 620 3903 
Q 991 4469 1791 4469 
Q 2569 4469 2939 3897 
Q 3309 3325 3309 2203 
z
M 2738 2203 
Q 2738 3156 2517 3584 
Q 2297 4013 1791 4013 
Q 1272 4013 1045 3591 
Q 819 3169 819 2203 
Q 819 1266 1048 831 
Q 1278 397 1778 397 
Q 2275 397 2506 840 
Q 2738 1284 2738 2203 
z
" transform="scale(0.015625)"/>
       </defs>
       <use xlink:href="#LiberationSans-30"/>
      </g>
     </g>
    </g>
    <g id="xtick_2">
     <g id="line2d_2">
      <g>
       <use xlink:href="#m029fb88110" x="142.607672" y="280.646875" style="stroke: #000000; stroke-width: 0.8"/>
      </g>
     </g>
     <g id="text_2">
      <!-- 2 -->
      <g transform="translate(139.827204 294.89375) scale(0.1 -0.1)">
       <defs>
        <path id="LiberationSans-32" d="M 322 0 
L 322 397 
Q 481 763 711 1042 
Q 941 1322 1194 1548 
Q 1447 1775 1695 1969 
Q 1944 2163 2144 2356 
Q 2344 2550 2467 2762 
Q 2591 2975 2591 3244 
Q 2591 3606 2378 3806 
Q 2166 4006 1788 4006 
Q 1428 4006 1195 3811 
Q 963 3616 922 3263 
L 347 3316 
Q 409 3844 795 4156 
Q 1181 4469 1788 4469 
Q 2453 4469 2811 4155 
Q 3169 3841 3169 3263 
Q 3169 3006 3051 2753 
Q 2934 2500 2703 2247 
Q 2472 1994 1819 1463 
Q 1459 1169 1246 933 
Q 1034 697 941 478 
L 3238 478 
L 3238 0 
L 322 0 
z
" transform="scale(0.015625)"/>
       </defs>
       <use xlink:href="#LiberationSans-32"/>
      </g>
     </g>
    </g>
    <g id="xtick_3">
     <g id="line2d_3">
      <g>
       <use xlink:href="#m029fb88110" x="213.506033" y="280.646875" style="stroke: #000000; stroke-width: 0.8"/>
      </g>
     </g>
     <g id="text_3">
      <!-- 4 -->
      <g transform="translate(210.725564 294.89375) scale(0.1 -0.1)">
       <defs>
        <path id="LiberationSans-34" d="M 2753 997 
L 2753 0 
L 2222 0 
L 2222 997 
L 147 997 
L 147 1434 
L 2163 4403 
L 2753 4403 
L 2753 1441 
L 3372 1441 
L 3372 997 
L 2753 997 
z
M 2222 3769 
Q 2216 3750 2134 3603 
Q 2053 3456 2013 3397 
L 884 1734 
L 716 1503 
L 666 1441 
L 2222 1441 
L 2222 3769 
z
" transform="scale(0.015625)"/>
       </defs>
       <use xlink:href="#LiberationSans-34"/>
      </g>
     </g>
    </g>
    <g id="xtick_4">
     <g id="line2d_4">
      <g>
       <use xlink:href="#m029fb88110" x="284.404393" y="280.646875" style="stroke: #000000; stroke-width: 0.8"/>
      </g>
     </g>
     <g id="text_4">
      <!-- 6 -->
      <g transform="translate(281.623924 294.89375) scale(0.1 -0.1)">
       <defs>
        <path id="LiberationSans-36" d="M 3278 1441 
Q 3278 744 2900 340 
Q 2522 -63 1856 -63 
Q 1113 -63 719 490 
Q 325 1044 325 2100 
Q 325 3244 734 3856 
Q 1144 4469 1900 4469 
Q 2897 4469 3156 3572 
L 2619 3475 
Q 2453 4013 1894 4013 
Q 1413 4013 1148 3564 
Q 884 3116 884 2266 
Q 1038 2550 1316 2698 
Q 1594 2847 1953 2847 
Q 2563 2847 2920 2465 
Q 3278 2084 3278 1441 
z
M 2706 1416 
Q 2706 1894 2472 2153 
Q 2238 2413 1819 2413 
Q 1425 2413 1183 2183 
Q 941 1953 941 1550 
Q 941 1041 1192 716 
Q 1444 391 1838 391 
Q 2244 391 2475 664 
Q 2706 938 2706 1416 
z
" transform="scale(0.015625)"/>
       </defs>
       <use xlink:href="#LiberationSans-36"/>
      </g>
     </g>
    </g>
    <g id="xtick_5">
     <g id="line2d_5">
      <g>
       <use xlink:href="#m029fb88110" x="355.302754" y="280.646875" style="stroke: #000000; stroke-width: 0.8"/>
      </g>
     </g>
     <g id="text_5">
      <!-- 8 -->
      <g transform="translate(352.522285 294.89375) scale(0.1 -0.1)">
       <defs>
        <path id="LiberationSans-38" d="M 3281 1228 
Q 3281 619 2893 278 
Q 2506 -63 1781 -63 
Q 1075 -63 676 271 
Q 278 606 278 1222 
Q 278 1653 525 1947 
Q 772 2241 1156 2303 
L 1156 2316 
Q 797 2400 589 2681 
Q 381 2963 381 3341 
Q 381 3844 757 4156 
Q 1134 4469 1769 4469 
Q 2419 4469 2795 4162 
Q 3172 3856 3172 3334 
Q 3172 2956 2962 2675 
Q 2753 2394 2391 2322 
L 2391 2309 
Q 2813 2241 3047 1952 
Q 3281 1663 3281 1228 
z
M 2588 3303 
Q 2588 4050 1769 4050 
Q 1372 4050 1164 3862 
Q 956 3675 956 3303 
Q 956 2925 1170 2726 
Q 1384 2528 1775 2528 
Q 2172 2528 2380 2711 
Q 2588 2894 2588 3303 
z
M 2697 1281 
Q 2697 1691 2453 1898 
Q 2209 2106 1769 2106 
Q 1341 2106 1100 1882 
Q 859 1659 859 1269 
Q 859 359 1788 359 
Q 2247 359 2472 579 
Q 2697 800 2697 1281 
z
" transform="scale(0.015625)"/>
       </defs>
       <use xlink:href="#LiberationSans-38"/>
      </g>
     </g>
    </g>
    <g id="xtick_6">
     <g id="line2d_6">
      <g>
       <use xlink:href="#m029fb88110" x="426.201114" y="280.646875" style="stroke: #000000; stroke-width: 0.8"/>
      </g>
     </g>
     <g id="text_6">
      <!-- 10 -->
      <g transform="translate(420.640176 294.89375) scale(0.1 -0.1)">
       <defs>
        <path id="LiberationSans-31" d="M 488 0 
L 488 478 
L 1609 478 
L 1609 3866 
L 616 3156 
L 616 3688 
L 1656 4403 
L 2175 4403 
L 2175 478 
L 3247 478 
L 3247 0 
L 488 0 
z
" transform="scale(0.015625)"/>
       </defs>
       <use xlink:href="#LiberationSans-31"/>
       <use xlink:href="#LiberationSans-30" x="55.615234"/>
      </g>
     </g>
    </g>
    <g id="xtick_7">
     <g id="line2d_7">
      <defs>
       <path id="maa79c82394" d="M 0 0 
L 0 2 
" style="stroke: #000000; stroke-width: 0.6"/>
      </defs>
      <g>
       <use xlink:href="#maa79c82394" x="89.433902" y="280.646875" style="stroke: #000000; stroke-width: 0.6"/>
      </g>
     </g>
    </g>
    <g id="xtick_8">
     <g id="line2d_8">
      <g>
       <use xlink:href="#maa79c82394" x="107.158492" y="280.646875" style="stroke: #000000; stroke-width: 0.6"/>
      </g>
     </g>
    </g>
    <g id="xtick_9">
     <g id="line2d_9">
      <g>
       <use xlink:href="#maa79c82394" x="124.883082" y="280.646875" style="stroke: #000000; stroke-width: 0.6"/>
      </g>
     </g>
    </g>
    <g id="xtick_10">
     <g id="line2d_10">
      <g>
       <use xlink:href="#maa79c82394" x="160.332262" y="280.646875" style="stroke: #000000; stroke-width: 0.6"/>
      </g>
     </g>
    </g>
    <g id="xtick_11">
     <g id="line2d_11">
      <g>
       <use xlink:href="#maa79c82394" x="178.056852" y="280.646875" style="stroke: #000000; stroke-width: 0.6"/>
      </g>
     </g>
    </g>
    <g id="xtick_12">
     <g id="line2d_12">
      <g>
       <use xlink:href="#maa79c82394" x="195.781443" y="280.646875" style="stroke: #000000; stroke-width: 0.6"/>
      </g>
     </g>
    </g>
    <g id="xtick_13">
     <g id="line2d_13">
      <g>
       <use xlink:href="#maa79c82394" x="231.230623" y="280.646875" style="stroke: #000000; stroke-width: 0.6"/>
      </g>
     </g>
    </g>
    <g id="xtick_14">
     <g id="line2d_14">
      <g>
       <use xlink:href="#maa79c82394" x="248.955213" y="280.646875" style="stroke: #000000; stroke-width: 0.6"/>
      </g>
     </g>
    </g>
    <g id="xtick_15">
     <g id="line2d_15">
      <g>
       <use xlink:href="#maa79c82394" x="266.679803" y="280.646875" style="stroke: #000000; stroke-width: 0.6"/>
      </g>
     </g>
    </g>
    <g id="xtick_16">
     <g id="line2d_16">
      <g>
       <use xlink:href="#maa79c82394" x="302.128983" y="280.646875" style="stroke: #000000; stroke-width: 0.6"/>
      </g>
     </g>
    </g>
    <g id="xtick_17">
     <g id="line2d_17">
      <g>
       <use xlink:href="#maa79c82394" x="319.853573" y="280.646875" style="stroke: #000000; stroke-width: 0.6"/>
      </g>
     </g>
    </g>
    <g id="xtick_18">
     <g id="line2d_18">
      <g>
       <use xlink:href="#maa79c82394" x="337.578163" y="280.646875" style="stroke: #000000; stroke-width: 0.6"/>
      </g>
     </g>
    </g>
    <g id="xtick_19">
     <g id="line2d_19">
      <g>
       <use xlink:href="#maa79c82394" x="373.027344" y="280.646875" style="stroke: #000000; stroke-width: 0.6"/>
      </g>
     </g>
    </g>
    <g id="xtick_20">
     <g id="line2d_20">
      <g>
       <use xlink:href="#maa79c82394" x="390.751934" y="280.646875" style="stroke: #000000; stroke-width: 0.6"/>
      </g>
     </g>
    </g>
    <g id="xtick_21">
     <g id="line2d_21">
      <g>
       <use xlink:href="#maa79c82394" x="408.476524" y="280.646875" style="stroke: #000000; stroke-width: 0.6"/>
      </g>
     </g>
    </g>
    <g id="text_7">
     <!-- Time ps -->
     <g transform="translate(196.196375 322.709375) scale(0.3 -0.3)">
      <defs>
       <path id="LiberationSans-54" d="M 2250 3916 
L 2250 0 
L 1656 0 
L 1656 3916 
L 144 3916 
L 144 4403 
L 3763 4403 
L 3763 3916 
L 2250 3916 
z
" transform="scale(0.015625)"/>
       <path id="LiberationSans-69" d="M 428 4100 
L 428 4638 
L 991 4638 
L 991 4100 
L 428 4100 
z
M 428 0 
L 428 3381 
L 991 3381 
L 991 0 
L 428 0 
z
" transform="scale(0.015625)"/>
       <path id="LiberationSans-6d" d="M 2400 0 
L 2400 2144 
Q 2400 2634 2265 2821 
Q 2131 3009 1781 3009 
Q 1422 3009 1212 2734 
Q 1003 2459 1003 1959 
L 1003 0 
L 444 0 
L 444 2659 
Q 444 3250 425 3381 
L 956 3381 
Q 959 3366 962 3297 
Q 966 3228 970 3139 
Q 975 3050 981 2803 
L 991 2803 
Q 1172 3163 1406 3303 
Q 1641 3444 1978 3444 
Q 2363 3444 2586 3291 
Q 2809 3138 2897 2803 
L 2906 2803 
Q 3081 3144 3329 3294 
Q 3578 3444 3931 3444 
Q 4444 3444 4676 3166 
Q 4909 2888 4909 2253 
L 4909 0 
L 4353 0 
L 4353 2144 
Q 4353 2634 4218 2821 
Q 4084 3009 3734 3009 
Q 3366 3009 3161 2736 
Q 2956 2463 2956 1959 
L 2956 0 
L 2400 0 
z
" transform="scale(0.015625)"/>
       <path id="LiberationSans-65" d="M 863 1572 
Q 863 991 1103 675 
Q 1344 359 1806 359 
Q 2172 359 2392 506 
Q 2613 653 2691 878 
L 3184 738 
Q 2881 -63 1806 -63 
Q 1056 -63 664 384 
Q 272 831 272 1713 
Q 272 2550 664 2997 
Q 1056 3444 1784 3444 
Q 3275 3444 3275 1647 
L 3275 1572 
L 863 1572 
z
M 2694 2003 
Q 2647 2538 2422 2783 
Q 2197 3028 1775 3028 
Q 1366 3028 1127 2754 
Q 888 2481 869 2003 
L 2694 2003 
z
" transform="scale(0.015625)"/>
       <path id="LiberationSans-20" transform="scale(0.015625)"/>
       <path id="LiberationSans-70" d="M 3291 1706 
Q 3291 -63 2047 -63 
Q 1266 -63 997 525 
L 981 525 
Q 994 500 994 -6 
L 994 -1328 
L 431 -1328 
L 431 2691 
Q 431 3213 413 3381 
L 956 3381 
Q 959 3369 965 3292 
Q 972 3216 980 3056 
Q 988 2897 988 2838 
L 1000 2838 
Q 1150 3150 1397 3295 
Q 1644 3441 2047 3441 
Q 2672 3441 2981 3022 
Q 3291 2603 3291 1706 
z
M 2700 1694 
Q 2700 2400 2509 2703 
Q 2319 3006 1903 3006 
Q 1569 3006 1380 2865 
Q 1191 2725 1092 2426 
Q 994 2128 994 1650 
Q 994 984 1206 668 
Q 1419 353 1897 353 
Q 2316 353 2508 661 
Q 2700 969 2700 1694 
z
" transform="scale(0.015625)"/>
       <path id="LiberationSans-73" d="M 2969 934 
Q 2969 456 2608 196 
Q 2247 -63 1597 -63 
Q 966 -63 623 145 
Q 281 353 178 794 
L 675 891 
Q 747 619 972 492 
Q 1197 366 1597 366 
Q 2025 366 2223 497 
Q 2422 628 2422 891 
Q 2422 1091 2284 1216 
Q 2147 1341 1841 1422 
L 1438 1528 
Q 953 1653 748 1773 
Q 544 1894 428 2066 
Q 313 2238 313 2488 
Q 313 2950 642 3192 
Q 972 3434 1603 3434 
Q 2163 3434 2492 3237 
Q 2822 3041 2909 2606 
L 2403 2544 
Q 2356 2769 2151 2889 
Q 1947 3009 1603 3009 
Q 1222 3009 1040 2893 
Q 859 2778 859 2544 
Q 859 2400 934 2306 
Q 1009 2213 1156 2147 
Q 1303 2081 1775 1966 
Q 2222 1853 2419 1758 
Q 2616 1663 2730 1547 
Q 2844 1431 2906 1279 
Q 2969 1128 2969 934 
z
" transform="scale(0.015625)"/>
      </defs>
      <use xlink:href="#LiberationSans-54"/>
      <use xlink:href="#LiberationSans-69" x="57.333984"/>
      <use xlink:href="#LiberationSans-6d" x="79.550781"/>
      <use xlink:href="#LiberationSans-65" x="162.851562"/>
      <use xlink:href="#LiberationSans-20" x="218.466797"/>
      <use xlink:href="#LiberationSans-70" x="246.25"/>
      <use xlink:href="#LiberationSans-73" x="301.865234"/>
     </g>
    </g>
   </g>
   <g id="matplotlib.axis_2">
    <g id="ytick_1">
     <g id="line2d_22">
      <defs>
       <path id="m650fa93ffb" d="M 0 0 
L -3.5 0 
" style="stroke: #000000; stroke-width: 0.8"/>
      </defs>
      <g>
       <use xlink:href="#m650fa93ffb" x="54.060938" y="276.310049" style="stroke: #000000; stroke-width: 0.8"/>
      </g>
     </g>
     <g id="text_8">
      <!-- 0 -->
      <g transform="translate(41.5 279.933486) scale(0.1 -0.1)">
       <use xlink:href="#LiberationSans-30"/>
      </g>
     </g>
    </g>
    <g id="ytick_2">
     <g id="line2d_23">
      <g>
       <use xlink:href="#m650fa93ffb" x="54.060938" y="239.013752" style="stroke: #000000; stroke-width: 0.8"/>
      </g>
     </g>
     <g id="text_9">
      <!-- 1 -->
      <g transform="translate(41.5 242.637189) scale(0.1 -0.1)">
       <use xlink:href="#LiberationSans-31"/>
      </g>
     </g>
    </g>
    <g id="ytick_3">
     <g id="line2d_24">
      <g>
       <use xlink:href="#m650fa93ffb" x="54.060938" y="201.717455" style="stroke: #000000; stroke-width: 0.8"/>
      </g>
     </g>
     <g id="text_10">
      <!-- 2 -->
      <g transform="translate(41.5 205.340893) scale(0.1 -0.1)">
       <use xlink:href="#LiberationSans-32"/>
      </g>
     </g>
    </g>
    <g id="ytick_4">
     <g id="line2d_25">
      <g>
       <use xlink:href="#m650fa93ffb" x="54.060938" y="164.421158" style="stroke: #000000; stroke-width: 0.8"/>
      </g>
     </g>
     <g id="text_11">
      <!-- 3 -->
      <g transform="translate(41.5 168.044596) scale(0.1 -0.1)">
       <defs>
        <path id="LiberationSans-33" d="M 3278 1216 
Q 3278 606 2890 271 
Q 2503 -63 1784 -63 
Q 1116 -63 717 239 
Q 319 541 244 1131 
L 825 1184 
Q 938 403 1784 403 
Q 2209 403 2451 612 
Q 2694 822 2694 1234 
Q 2694 1594 2417 1795 
Q 2141 1997 1619 1997 
L 1300 1997 
L 1300 2484 
L 1606 2484 
Q 2069 2484 2323 2686 
Q 2578 2888 2578 3244 
Q 2578 3597 2370 3801 
Q 2163 4006 1753 4006 
Q 1381 4006 1151 3815 
Q 922 3625 884 3278 
L 319 3322 
Q 381 3863 767 4166 
Q 1153 4469 1759 4469 
Q 2422 4469 2789 4161 
Q 3156 3853 3156 3303 
Q 3156 2881 2920 2617 
Q 2684 2353 2234 2259 
L 2234 2247 
Q 2728 2194 3003 1916 
Q 3278 1638 3278 1216 
z
" transform="scale(0.015625)"/>
       </defs>
       <use xlink:href="#LiberationSans-33"/>
      </g>
     </g>
    </g>
    <g id="ytick_5">
     <g id="line2d_26">
      <g>
       <use xlink:href="#m650fa93ffb" x="54.060938" y="127.124861" style="stroke: #000000; stroke-width: 0.8"/>
      </g>
     </g>
     <g id="text_12">
      <!-- 4 -->
      <g transform="translate(41.5 130.748299) scale(0.1 -0.1)">
       <use xlink:href="#LiberationSans-34"/>
      </g>
     </g>
    </g>
    <g id="ytick_6">
     <g id="line2d_27">
      <g>
       <use xlink:href="#m650fa93ffb" x="54.060938" y="89.828564" style="stroke: #000000; stroke-width: 0.8"/>
      </g>
     </g>
     <g id="text_13">
      <!-- 5 -->
      <g transform="translate(41.5 93.452002) scale(0.1 -0.1)">
       <defs>
        <path id="LiberationSans-35" d="M 3291 1434 
Q 3291 738 2877 337 
Q 2463 -63 1728 -63 
Q 1113 -63 734 206 
Q 356 475 256 984 
L 825 1050 
Q 1003 397 1741 397 
Q 2194 397 2450 670 
Q 2706 944 2706 1422 
Q 2706 1838 2448 2094 
Q 2191 2350 1753 2350 
Q 1525 2350 1328 2278 
Q 1131 2206 934 2034 
L 384 2034 
L 531 4403 
L 3034 4403 
L 3034 3925 
L 1044 3925 
L 959 2528 
Q 1325 2809 1869 2809 
Q 2519 2809 2905 2428 
Q 3291 2047 3291 1434 
z
" transform="scale(0.015625)"/>
       </defs>
       <use xlink:href="#LiberationSans-35"/>
      </g>
     </g>
    </g>
    <g id="ytick_7">
     <g id="line2d_28">
      <g>
       <use xlink:href="#m650fa93ffb" x="54.060938" y="52.532267" style="stroke: #000000; stroke-width: 0.8"/>
      </g>
     </g>
     <g id="text_14">
      <!-- 6 -->
      <g transform="translate(41.5 56.155705) scale(0.1 -0.1)">
       <use xlink:href="#LiberationSans-36"/>
      </g>
     </g>
    </g>
    <g id="ytick_8">
     <g id="line2d_29">
      <defs>
       <path id="m7a616b09e3" d="M 0 0 
L -2 0 
" style="stroke: #000000; stroke-width: 0.6"/>
      </defs>
      <g>
       <use xlink:href="#m7a616b09e3" x="54.060938" y="268.85079" style="stroke: #000000; stroke-width: 0.6"/>
      </g>
     </g>
    </g>
    <g id="ytick_9">
     <g id="line2d_30">
      <g>
       <use xlink:href="#m7a616b09e3" x="54.060938" y="261.39153" style="stroke: #000000; stroke-width: 0.6"/>
      </g>
     </g>
    </g>
    <g id="ytick_10">
     <g id="line2d_31">
      <g>
       <use xlink:href="#m7a616b09e3" x="54.060938" y="253.932271" style="stroke: #000000; stroke-width: 0.6"/>
      </g>
     </g>
    </g>
    <g id="ytick_11">
     <g id="line2d_32">
      <g>
       <use xlink:href="#m7a616b09e3" x="54.060938" y="246.473011" style="stroke: #000000; stroke-width: 0.6"/>
      </g>
     </g>
    </g>
    <g id="ytick_12">
     <g id="line2d_33">
      <g>
       <use xlink:href="#m7a616b09e3" x="54.060938" y="231.554493" style="stroke: #000000; stroke-width: 0.6"/>
      </g>
     </g>
    </g>
    <g id="ytick_13">
     <g id="line2d_34">
      <g>
       <use xlink:href="#m7a616b09e3" x="54.060938" y="224.095233" style="stroke: #000000; stroke-width: 0.6"/>
      </g>
     </g>
    </g>
    <g id="ytick_14">
     <g id="line2d_35">
      <g>
       <use xlink:href="#m7a616b09e3" x="54.060938" y="216.635974" style="stroke: #000000; stroke-width: 0.6"/>
      </g>
     </g>
    </g>
    <g id="ytick_15">
     <g id="line2d_36">
      <g>
       <use xlink:href="#m7a616b09e3" x="54.060938" y="209.176714" style="stroke: #000000; stroke-width: 0.6"/>
      </g>
     </g>
    </g>
    <g id="ytick_16">
     <g id="line2d_37">
      <g>
       <use xlink:href="#m7a616b09e3" x="54.060938" y="194.258196" style="stroke: #000000; stroke-width: 0.6"/>
      </g>
     </g>
    </g>
    <g id="ytick_17">
     <g id="line2d_38">
      <g>
       <use xlink:href="#m7a616b09e3" x="54.060938" y="186.798936" style="stroke: #000000; stroke-width: 0.6"/>
      </g>
     </g>
    </g>
    <g id="ytick_18">
     <g id="line2d_39">
      <g>
       <use xlink:href="#m7a616b09e3" x="54.060938" y="179.339677" style="stroke: #000000; stroke-width: 0.6"/>
      </g>
     </g>
    </g>
    <g id="ytick_19">
     <g id="line2d_40">
      <g>
       <use xlink:href="#m7a616b09e3" x="54.060938" y="171.880417" style="stroke: #000000; stroke-width: 0.6"/>
      </g>
     </g>
    </g>
    <g id="ytick_20">
     <g id="line2d_41">
      <g>
       <use xlink:href="#m7a616b09e3" x="54.060938" y="156.961899" style="stroke: #000000; stroke-width: 0.6"/>
      </g>
     </g>
    </g>
    <g id="ytick_21">
     <g id="line2d_42">
      <g>
       <use xlink:href="#m7a616b09e3" x="54.060938" y="149.502639" style="stroke: #000000; stroke-width: 0.6"/>
      </g>
     </g>
    </g>
    <g id="ytick_22">
     <g id="line2d_43">
      <g>
       <use xlink:href="#m7a616b09e3" x="54.060938" y="142.04338" style="stroke: #000000; stroke-width: 0.6"/>
      </g>
     </g>
    </g>
    <g id="ytick_23">
     <g id="line2d_44">
      <g>
       <use xlink:href="#m7a616b09e3" x="54.060938" y="134.58412" style="stroke: #000000; stroke-width: 0.6"/>
      </g>
     </g>
    </g>
    <g id="ytick_24">
     <g id="line2d_45">
      <g>
       <use xlink:href="#m7a616b09e3" x="54.060938" y="119.665602" style="stroke: #000000; stroke-width: 0.6"/>
      </g>
     </g>
    </g>
    <g id="ytick_25">
     <g id="line2d_46">
      <g>
       <use xlink:href="#m7a616b09e3" x="54.060938" y="112.206342" style="stroke: #000000; stroke-width: 0.6"/>
      </g>
     </g>
    </g>
    <g id="ytick_26">
     <g id="line2d_47">
      <g>
       <use xlink:href="#m7a616b09e3" x="54.060938" y="104.747083" style="stroke: #000000; stroke-width: 0.6"/>
      </g>
     </g>
    </g>
    <g id="ytick_27">
     <g id="line2d_48">
      <g>
       <use xlink:href="#m7a616b09e3" x="54.060938" y="97.287824" style="stroke: #000000; stroke-width: 0.6"/>
      </g>
     </g>
    </g>
    <g id="ytick_28">
     <g id="line2d_49">
      <g>
       <use xlink:href="#m7a616b09e3" x="54.060938" y="82.369305" style="stroke: #000000; stroke-width: 0.6"/>
      </g>
     </g>
    </g>
    <g id="ytick_29">
     <g id="line2d_50">
      <g>
       <use xlink:href="#m7a616b09e3" x="54.060938" y="74.910045" style="stroke: #000000; stroke-width: 0.6"/>
      </g>
     </g>
    </g>
    <g id="ytick_30">
     <g id="line2d_51">
      <g>
       <use xlink:href="#m7a616b09e3" x="54.060938" y="67.450786" style="stroke: #000000; stroke-width: 0.6"/>
      </g>
     </g>
    </g>
    <g id="ytick_31">
     <g id="line2d_52">
      <g>
       <use xlink:href="#m7a616b09e3" x="54.060938" y="59.991527" style="stroke: #000000; stroke-width: 0.6"/>
      </g>
     </g>
    </g>
    <g id="ytick_32">
     <g id="line2d_53">
      <g>
       <use xlink:href="#m7a616b09e3" x="54.060938" y="45.073008" style="stroke: #000000; stroke-width: 0.6"/>
      </g>
     </g>
    </g>
    <g id="ytick_33">
     <g id="line2d_54">
      <g>
       <use xlink:href="#m7a616b09e3" x="54.060938" y="37.613748" style="stroke: #000000; stroke-width: 0.6"/>
      </g>
     </g>
    </g>
    <g id="ytick_34">
     <g id="line2d_55">
      <g>
       <use xlink:href="#m7a616b09e3" x="54.060938" y="30.154489" style="stroke: #000000; stroke-width: 0.6"/>
      </g>
     </g>
    </g>
    <g id="ytick_35">
     <g id="line2d_56">
      <g>
       <use xlink:href="#m7a616b09e3" x="54.060938" y="22.69523" style="stroke: #000000; stroke-width: 0.6"/>
      </g>
     </g>
    </g>
    <g id="text_15">
     <!-- ITC $\mathrm{W} / (\mathrm{K} \cdot \mathrm{m}^2)$ -->
     <g transform="translate(31.275 243.096875) rotate(-90) scale(0.3 -0.3)">
      <defs>
       <path id="LiberationSans-49" d="M 591 0 
L 591 4403 
L 1188 4403 
L 1188 0 
L 591 0 
z
" transform="scale(0.015625)"/>
       <path id="LiberationSans-43" d="M 2475 3981 
Q 1744 3981 1337 3511 
Q 931 3041 931 2222 
Q 931 1413 1354 920 
Q 1778 428 2500 428 
Q 3425 428 3891 1344 
L 4378 1100 
Q 4106 531 3614 234 
Q 3122 -63 2472 -63 
Q 1806 -63 1320 214 
Q 834 491 579 1005 
Q 325 1519 325 2222 
Q 325 3275 894 3872 
Q 1463 4469 2469 4469 
Q 3172 4469 3644 4194 
Q 4116 3919 4338 3378 
L 3772 3191 
Q 3619 3575 3280 3778 
Q 2941 3981 2475 3981 
z
" transform="scale(0.015625)"/>
       <path id="STIXGeneral-Regular-57" d="M 5965 4237 
L 5965 4115 
Q 5709 4064 5616 3990 
Q 5523 3917 5434 3667 
Q 4704 1709 4128 -70 
L 4032 -70 
Q 3642 1011 3008 2637 
L 2022 -70 
L 1926 -70 
Q 1709 576 1277 1753 
Q 845 2931 698 3347 
Q 538 3808 406 3958 
Q 275 4109 32 4115 
L 32 4237 
L 1594 4237 
L 1594 4115 
Q 1357 4109 1270 4064 
Q 1184 4019 1184 3917 
Q 1184 3808 1254 3616 
L 2176 1210 
L 2842 3021 
L 2662 3501 
Q 2509 3917 2400 4013 
Q 2291 4109 2010 4115 
L 2010 4237 
L 3706 4237 
L 3706 4115 
Q 3213 4102 3213 3891 
Q 3213 3808 3322 3520 
L 4237 1190 
L 5043 3360 
Q 5152 3667 5152 3853 
Q 5152 4109 4704 4115 
L 4704 4237 
L 5965 4237 
z
" transform="scale(0.015625)"/>
       <path id="STIXGeneral-Regular-2f" d="M 1837 4326 
L 378 -90 
L -58 -90 
L 1408 4326 
L 1837 4326 
z
" transform="scale(0.015625)"/>
       <path id="STIXGeneral-Regular-28" d="M 1946 -1030 
L 1869 -1133 
Q 1126 -710 716 32 
Q 307 774 307 1613 
Q 307 3386 1888 4326 
L 1946 4224 
Q 1293 3667 1075 3126 
Q 858 2586 858 1632 
Q 858 685 1082 96 
Q 1306 -493 1946 -1030 
z
" transform="scale(0.015625)"/>
       <path id="STIXGeneral-Regular-4b" d="M 4627 0 
L 2688 0 
L 2688 122 
L 2861 128 
Q 3130 134 3130 282 
Q 3130 397 2922 643 
Q 2714 890 2253 1370 
L 1613 2029 
L 1446 1894 
L 1446 710 
Q 1446 352 1548 253 
Q 1651 154 2016 122 
L 2016 0 
L 211 0 
L 211 122 
Q 589 141 691 262 
Q 794 384 794 800 
L 794 3514 
Q 794 3872 691 3981 
Q 589 4090 218 4115 
L 218 4237 
L 2022 4237 
L 2022 4115 
Q 1632 4090 1539 3987 
Q 1446 3885 1446 3507 
L 1446 2227 
L 2586 3277 
Q 2861 3533 2973 3667 
Q 3085 3802 3085 3910 
Q 3085 4013 3030 4057 
Q 2976 4102 2822 4109 
L 2662 4115 
L 2662 4237 
L 4320 4237 
L 4320 4115 
Q 3994 4090 3824 4003 
Q 3654 3917 3322 3597 
L 2131 2458 
L 3629 819 
Q 4026 384 4214 253 
Q 4403 122 4627 122 
L 4627 0 
z
" transform="scale(0.015625)"/>
       <path id="STIXGeneral-Regular-22c5" d="M 1187 1888 
Q 1299 1773 1299 1619 
Q 1299 1466 1187 1350 
Q 1075 1235 921 1235 
Q 768 1235 649 1353 
Q 531 1472 531 1619 
Q 531 1766 649 1884 
Q 768 2003 921 2003 
Q 1075 2003 1187 1888 
z
" transform="scale(0.015625)"/>
       <path id="STIXGeneral-Regular-6d" d="M 4960 0 
L 3565 0 
L 3565 96 
Q 3834 122 3907 208 
Q 3981 294 3981 576 
L 3981 1894 
Q 3981 2278 3869 2444 
Q 3757 2611 3488 2611 
Q 3264 2611 3107 2521 
Q 2950 2432 2803 2221 
L 2803 608 
Q 2803 301 2896 201 
Q 2989 102 3264 96 
L 3264 0 
L 1830 0 
L 1830 96 
Q 2112 115 2189 188 
Q 2266 262 2266 550 
L 2266 1901 
Q 2266 2611 1850 2611 
Q 1670 2611 1468 2531 
Q 1267 2451 1171 2336 
Q 1088 2240 1088 2227 
L 1088 448 
Q 1088 243 1177 176 
Q 1267 109 1523 96 
L 1523 0 
L 102 0 
L 102 96 
Q 371 102 460 195 
Q 550 288 550 563 
L 550 2150 
Q 550 2387 499 2480 
Q 448 2573 326 2573 
Q 230 2573 122 2547 
L 122 2656 
Q 557 2778 1011 2944 
L 1062 2925 
L 1062 2451 
L 1075 2451 
Q 1363 2752 1584 2848 
Q 1805 2944 2054 2944 
Q 2560 2944 2733 2406 
Q 3232 2944 3776 2944 
Q 4518 2944 4518 1792 
L 4518 493 
Q 4518 282 4582 202 
Q 4646 122 4794 109 
L 4960 96 
L 4960 0 
z
" transform="scale(0.015625)"/>
       <path id="STIXGeneral-Regular-32" d="M 3034 877 
L 2688 0 
L 186 0 
L 186 77 
L 1325 1286 
Q 1773 1754 1965 2144 
Q 2157 2534 2157 2950 
Q 2157 3379 1920 3616 
Q 1683 3853 1267 3853 
Q 922 3853 720 3673 
Q 518 3494 326 3021 
L 192 3053 
Q 301 3648 630 3987 
Q 960 4326 1523 4326 
Q 2054 4326 2380 4006 
Q 2707 3686 2707 3200 
Q 2707 2477 1888 1613 
L 832 486 
L 2330 486 
Q 2541 486 2665 569 
Q 2790 653 2944 915 
L 3034 877 
z
" transform="scale(0.015625)"/>
       <path id="STIXGeneral-Regular-29" d="M 186 4224 
L 262 4326 
Q 992 3891 1408 3148 
Q 1824 2406 1824 1581 
Q 1824 -166 243 -1133 
L 186 -1030 
Q 845 -486 1059 54 
Q 1274 595 1274 1562 
Q 1274 2534 1059 3120 
Q 845 3706 186 4224 
z
" transform="scale(0.015625)"/>
      </defs>
      <use xlink:href="#LiberationSans-49" transform="translate(0 0.409375)"/>
      <use xlink:href="#LiberationSans-54" transform="translate(27.783203 0.409375)"/>
      <use xlink:href="#LiberationSans-43" transform="translate(88.867188 0.409375)"/>
      <use xlink:href="#LiberationSans-20" transform="translate(161.083984 0.409375)"/>
      <use xlink:href="#STIXGeneral-Regular-57" transform="translate(188.867188 0.409375)"/>
      <use xlink:href="#STIXGeneral-Regular-2f" transform="translate(283.267181 0.409375)"/>
      <use xlink:href="#STIXGeneral-Regular-28" transform="translate(311.067169 0.409375)"/>
      <use xlink:href="#STIXGeneral-Regular-4b" transform="translate(344.367157 0.409375)"/>
      <use xlink:href="#STIXGeneral-Regular-22c5" transform="translate(431.007135 0.409375)"/>
      <use xlink:href="#STIXGeneral-Regular-6d" transform="translate(474.047122 0.409375)"/>
      <use xlink:href="#STIXGeneral-Regular-32" transform="translate(553.390391 35.684375) scale(0.7)"/>
      <use xlink:href="#STIXGeneral-Regular-29" transform="translate(592.799756 0.409375)"/>
     </g>
    </g>
    <g id="text_16">
     <!-- 1e7 -->
     <g transform="translate(54.060938 14.446875) scale(0.1 -0.1)">
      <defs>
       <path id="LiberationSans-37" d="M 3238 3947 
Q 2563 2916 2284 2331 
Q 2006 1747 1867 1178 
Q 1728 609 1728 0 
L 1141 0 
Q 1141 844 1498 1776 
Q 1856 2709 2694 3925 
L 328 3925 
L 328 4403 
L 3238 4403 
L 3238 3947 
z
" transform="scale(0.015625)"/>
      </defs>
      <use xlink:href="#LiberationSans-31"/>
      <use xlink:href="#LiberationSans-65" x="55.615234"/>
      <use xlink:href="#LiberationSans-37" x="111.230469"/>
     </g>
    </g>
   </g>
   <g id="line2d_57">
    <path d="M 71.78021 268.683239 
L 72.66644 100.987927 
L 73.127279 50.05838 
L 73.481771 32.107609 
L 73.694466 29.410511 
L 73.765364 29.687562 
L 73.907161 31.793858 
L 74.155305 39.652011 
L 74.616145 63.193127 
L 75.750518 122.851496 
L 76.282256 139.456862 
L 76.813994 149.696388 
L 77.452079 157.632116 
L 78.231961 164.684026 
L 78.799148 168.110821 
L 79.189089 169.345188 
L 79.472682 169.65732 
L 79.685377 169.611527 
L 79.968971 169.268612 
L 81.209692 167.376179 
L 81.457836 167.466255 
L 81.74143 167.860661 
L 82.131371 168.879208 
L 82.698558 171.126254 
L 83.726584 176.333076 
L 87.306951 194.932685 
L 87.80324 196.329557 
L 88.086833 196.631924 
L 88.264079 196.583752 
L 88.476774 196.249809 
L 88.760368 195.290323 
L 89.114859 193.223908 
L 89.611148 188.846316 
L 91.206361 173.473049 
L 91.525404 172.540094 
L 91.70265 172.50831 
L 91.879895 172.812025 
L 92.163489 173.923169 
L 92.624328 176.927607 
L 93.8296 185.292837 
L 94.325889 187.077995 
L 94.857627 188.147318 
L 95.495712 189.432399 
L 96.062899 191.215549 
L 96.949128 194.043514 
L 97.232722 194.3764 
L 97.409968 194.342739 
L 97.622663 194.032838 
L 97.906256 193.1629 
L 98.331646 191.023546 
L 99.749613 183.14982 
L 100.068656 182.54884 
L 100.281351 182.484419 
L 100.494046 182.664501 
L 100.813089 183.311196 
L 101.344827 185.010285 
L 103.081836 190.818512 
L 104.570702 195.102779 
L 104.960643 195.633669 
L 105.244236 195.715058 
L 105.492381 195.563092 
L 105.811423 195.081673 
L 106.307712 193.844784 
L 107.902925 189.532445 
L 108.505561 188.6547 
L 109.001849 188.278847 
L 109.39179 188.246261 
L 109.710833 188.447373 
L 110.065325 188.970231 
L 110.490715 190.062399 
L 111.057902 192.224842 
L 112.334072 197.330946 
L 112.724013 198.068326 
L 113.007607 198.243768 
L 113.255751 198.165929 
L 113.574794 197.808211 
L 114.141981 196.762194 
L 115.099108 195.061944 
L 117.296958 191.850736 
L 117.864144 191.097671 
L 118.183187 190.971992 
L 118.466781 191.106305 
L 118.785823 191.551385 
L 119.211213 192.57708 
L 121.054571 197.640123 
L 121.444512 197.941306 
L 121.799004 197.951932 
L 122.224394 197.723391 
L 122.862479 197.09047 
L 123.925954 195.676374 
L 124.847633 194.539259 
L 125.273023 194.3217 
L 125.592066 194.380269 
L 125.946558 194.698997 
L 126.371948 195.415166 
L 127.116381 197.218208 
L 128.108958 199.489064 
L 128.88884 200.676123 
L 130.980341 203.265149 
L 131.299384 203.269761 
L 131.618426 203.016524 
L 132.008367 202.345994 
L 132.575554 200.807468 
L 133.851725 197.192671 
L 134.348013 196.474671 
L 134.773403 196.219173 
L 135.234243 196.204206 
L 136.014125 196.452931 
L 137.006702 196.979398 
L 137.751135 197.649438 
L 139.346348 199.204388 
L 140.161679 199.571886 
L 141.012459 200.00786 
L 141.863239 200.751102 
L 142.784918 201.47988 
L 143.423003 201.696498 
L 144.840971 202.055685 
L 146.15259 202.65336 
L 146.542531 202.514338 
L 146.932472 202.118692 
L 147.46421 201.212126 
L 148.882177 198.594495 
L 149.343017 198.235581 
L 149.803856 198.1512 
L 150.47739 198.29779 
L 151.753561 198.807653 
L 152.285298 199.292746 
L 152.817036 200.123508 
L 153.52602 201.717883 
L 154.624944 204.164899 
L 155.121233 204.7631 
L 155.511174 204.931864 
L 155.901115 204.867212 
L 156.432853 204.51691 
L 157.673574 203.313271 
L 159.658728 201.493047 
L 160.190466 201.306356 
L 160.615856 201.375331 
L 161.076695 201.684893 
L 161.679331 202.393174 
L 163.593587 204.884442 
L 164.089875 205.119431 
L 164.515266 205.085801 
L 164.940656 204.820367 
L 165.472394 204.190235 
L 166.50042 202.494593 
L 167.209403 201.544116 
L 167.705692 201.198859 
L 168.20198 201.126161 
L 168.840066 201.29793 
L 170.683423 202.136455 
L 171.25061 202.669329 
L 171.924144 203.647505 
L 173.164866 205.519179 
L 173.625705 205.809841 
L 174.015646 205.807272 
L 174.476485 205.561802 
L 176.390741 204.25656 
L 178.304997 203.627857 
L 179.191226 203.317997 
L 179.722964 203.360165 
L 180.3256 203.653981 
L 181.530872 204.59651 
L 182.488 205.175911 
L 183.37423 205.447772 
L 184.366807 205.512046 
L 187.060944 205.318916 
L 187.876275 205.054626 
L 189.577836 204.36086 
L 190.038675 204.485147 
L 190.570413 204.880528 
L 191.740236 206.168278 
L 192.44922 206.723956 
L 193.158203 206.982796 
L 196.171384 207.552037 
L 196.73857 207.254601 
L 198.617377 206.021629 
L 199.078216 206.106758 
L 199.609954 206.454141 
L 200.389836 207.276209 
L 201.914151 208.895738 
L 202.658584 209.349814 
L 203.332118 209.514929 
L 204.112 209.463808 
L 205.140026 209.153704 
L 206.203502 208.618758 
L 207.196079 207.853096 
L 208.4368 206.906445 
L 208.968538 206.792817 
L 209.429377 206.92965 
L 209.961115 207.346449 
L 212.052616 209.30516 
L 212.690702 209.40718 
L 213.895974 209.296101 
L 215.313941 209.023881 
L 217.299095 208.460565 
L 217.795384 208.652441 
L 218.36257 209.138302 
L 219.142452 210.158238 
L 220.56042 212.051478 
L 221.127606 212.446765 
L 221.588446 212.515949 
L 222.049285 212.346804 
L 222.581023 211.892832 
L 223.609049 210.628036 
L 224.459829 209.755437 
L 225.097915 209.409858 
L 225.736 209.322186 
L 226.409534 209.457474 
L 227.04762 209.803482 
L 227.685705 210.410113 
L 228.465587 211.502279 
L 229.741757 213.311165 
L 230.202597 213.605874 
L 230.592538 213.615097 
L 231.017928 213.375064 
L 231.549665 212.778069 
L 234.066557 209.527006 
L 234.669193 209.234686 
L 235.165482 209.224314 
L 235.626321 209.444324 
L 236.12261 209.954245 
L 236.760695 210.983174 
L 238.426806 213.894638 
L 238.887646 214.221202 
L 239.277587 214.239389 
L 239.667528 214.029346 
L 240.163816 213.485616 
L 240.979147 212.188086 
L 242.184419 210.314695 
L 242.787056 209.759625 
L 243.283344 209.585611 
L 243.744183 209.663696 
L 244.240472 209.988633 
L 244.878557 210.709864 
L 245.835685 212.191132 
L 247.289101 214.418114 
L 247.927187 215.018545 
L 248.423475 215.215901 
L 248.884315 215.164017 
L 249.380603 214.866618 
L 250.018688 214.19957 
L 252.287436 211.581713 
L 253.138216 211.035964 
L 253.811751 210.838932 
L 254.343488 210.905354 
L 254.839777 211.197502 
L 255.406964 211.806967 
L 257.214872 214.004228 
L 257.604813 214.068672 
L 257.994754 213.906077 
L 258.491042 213.416629 
L 259.412721 212.089776 
L 260.263501 211.029427 
L 260.866137 210.597902 
L 261.433324 210.444048 
L 262.03596 210.507242 
L 262.709495 210.808517 
L 263.524826 211.435556 
L 265.049141 212.666545 
L 265.580878 212.797399 
L 266.077167 212.697654 
L 266.679803 212.322019 
L 267.920524 211.17339 
L 268.771305 210.565365 
L 269.40939 210.362626 
L 270.012026 210.398244 
L 270.68556 210.669272 
L 273.592393 212.143695 
L 275.683895 212.663876 
L 276.32198 212.549384 
L 277.137311 212.146768 
L 278.129888 211.696511 
L 278.697075 211.681746 
L 279.299711 211.908423 
L 280.22139 212.551278 
L 281.320314 213.237536 
L 282.100196 213.460978 
L 282.950977 213.470945 
L 283.837206 213.254562 
L 284.865232 212.748111 
L 286.176852 212.125713 
L 286.992183 212.007985 
L 287.949311 212.114405 
L 288.977337 212.443747 
L 291.423331 213.416474 
L 292.025967 213.271948 
L 292.841298 212.819875 
L 295.960826 210.86252 
L 296.528013 210.8463 
L 297.05975 211.065976 
L 297.662387 211.582097 
L 299.966583 213.869966 
L 300.53377 213.960018 
L 301.171855 213.823367 
L 302.448026 213.245951 
L 303.724196 212.786514 
L 304.645875 212.679362 
L 305.425757 212.814021 
L 306.347436 213.225634 
L 307.659055 213.800108 
L 308.438937 213.88567 
L 309.396065 213.749188 
L 311.026727 213.25692 
L 312.621941 212.818293 
L 313.366373 212.861222 
L 314.075357 213.132416 
L 314.961586 213.735025 
L 316.415003 215.044136 
L 317.655724 216.060448 
L 318.25836 216.288585 
L 318.790098 216.260525 
L 319.392734 215.985138 
L 321.377888 214.859612 
L 321.980524 214.893308 
L 322.689508 215.171145 
L 324.249272 215.860238 
L 324.887357 215.853909 
L 325.667239 215.596166 
L 327.3688 214.973213 
L 328.822216 214.498354 
L 330.346531 213.915227 
L 330.913718 213.960526 
L 331.516354 214.24677 
L 332.331685 214.922892 
L 333.785101 216.143678 
L 334.635881 216.542984 
L 335.805704 216.818618 
L 336.833731 216.872511 
L 337.542714 216.683458 
L 338.251698 216.250357 
L 340.343199 214.778692 
L 340.874937 214.747997 
L 341.406675 214.937496 
L 342.04476 215.426092 
L 343.179134 216.66278 
L 344.171711 217.598946 
L 344.845245 217.954125 
L 345.447881 218.030816 
L 346.015068 217.877983 
L 346.617704 217.477571 
L 347.433036 216.634584 
L 348.744655 215.272003 
L 349.347291 214.970077 
L 349.879029 214.949162 
L 350.446216 215.16383 
L 351.155199 215.697379 
L 353.778439 217.942821 
L 354.345626 218.002942 
L 354.948262 217.826817 
L 355.728144 217.332205 
L 357.748747 215.935745 
L 358.528629 215.71765 
L 359.273062 215.738261 
L 360.19474 216.003122 
L 361.435462 216.607974 
L 363.846006 217.896741 
L 364.342294 217.826996 
L 364.874032 217.513343 
L 365.583016 216.786996 
L 366.859186 215.453925 
L 367.390924 215.232048 
L 367.887213 215.274064 
L 368.454399 215.565967 
L 370.545901 216.879696 
L 371.254885 216.923773 
L 372.212012 216.734918 
L 375.863278 215.850441 
L 376.572262 215.992955 
L 377.352144 216.385673 
L 379.620891 217.697216 
L 380.258976 217.716589 
L 380.861612 217.500716 
L 381.535147 216.999036 
L 382.456826 215.99197 
L 384.122937 214.151304 
L 384.86737 213.680957 
L 385.505455 213.540639 
L 386.108091 213.639529 
L 386.781626 213.989228 
L 387.809652 214.821684 
L 388.944026 215.659401 
L 389.61756 215.886843 
L 390.220196 215.857546 
L 390.858281 215.596505 
L 391.77996 214.943215 
L 392.949783 214.160777 
L 393.623317 213.96833 
L 394.332301 213.999043 
L 395.643921 214.346024 
L 398.089914 214.888016 
L 399.153389 215.011754 
L 399.862373 214.867483 
L 401.882976 214.247231 
L 402.414714 214.468206 
L 403.052799 215.011479 
L 405.073403 216.959623 
L 405.711488 217.161367 
L 406.385022 217.124132 
L 407.235803 216.827793 
L 410.461678 215.469521 
L 411.347907 215.482742 
L 412.269586 215.725438 
L 413.297612 216.236755 
L 415.14097 217.208751 
L 415.814504 217.271862 
L 416.41714 217.106709 
L 417.090675 216.679958 
L 418.118701 215.713785 
L 419.075829 214.913399 
L 419.643016 214.698819 
L 420.174753 214.73098 
L 420.777389 215.004061 
L 422.727094 216.086718 
L 423.32973 216.066325 
L 424.003265 215.800727 
L 425.173088 215.030438 
L 426.165665 214.453723 
L 426.165665 214.453723 
" clip-path="url(#p3d4e4efd61)" style="fill: none; stroke: #ff0000; stroke-width: 1.5; stroke-linecap: square"/>
   </g>
   <g id="patch_3">
    <path d="M 54.060938 280.646875 
L 54.060938 17.446875 
" style="fill: none; stroke: #000000; stroke-width: 0.8; stroke-linejoin: miter; stroke-linecap: square"/>
   </g>
   <g id="patch_4">
    <path d="M 443.884937 280.646875 
L 443.884937 17.446875 
" style="fill: none; stroke: #000000; stroke-width: 0.8; stroke-linejoin: miter; stroke-linecap: square"/>
   </g>
   <g id="patch_5">
    <path d="M 54.060938 280.646875 
L 443.884937 280.646875 
" style="fill: none; stroke: #000000; stroke-width: 0.8; stroke-linejoin: miter; stroke-linecap: square"/>
   </g>
   <g id="patch_6">
    <path d="M 54.060938 17.446875 
L 443.884937 17.446875 
" style="fill: none; stroke: #000000; stroke-width: 0.8; stroke-linejoin: miter; stroke-linecap: square"/>
   </g>
  </g>
 </g>
 <defs>
  <clipPath id="p3d4e4efd61">
   <rect x="54.060938" y="17.446875" width="389.824" height="263.2"/>
  </clipPath>
 </defs>
</svg>
