<?xml version="1.0" encoding="utf-8" standalone="no"?>
<!DOCTYPE svg PUBLIC "-//W3C//DTD SVG 1.1//EN"
  "http://www.w3.org/Graphics/SVG/1.1/DTD/svg11.dtd">
<svg xmlns:xlink="http://www.w3.org/1999/xlink" width="711.425625pt" height="711.033187pt" viewBox="0 0 711.425625 711.033187" xmlns="http://www.w3.org/2000/svg" version="1.1">
 <metadata>
  <rdf:RDF xmlns:dc="http://purl.org/dc/elements/1.1/" xmlns:cc="http://creativecommons.org/ns#" xmlns:rdf="http://www.w3.org/1999/02/22-rdf-syntax-ns#">
   <cc:Work>
    <dc:type rdf:resource="http://purl.org/dc/dcmitype/StillImage"/>
    <dc:date>2025-02-02T16:46:36.370327</dc:date>
    <dc:format>image/svg+xml</dc:format>
    <dc:creator>
     <cc:Agent>
      <dc:title>Matplotlib v3.9.3, https://matplotlib.org/</dc:title>
     </cc:Agent>
    </dc:creator>
   </cc:Work>
  </rdf:RDF>
 </metadata>
 <defs>
  <style type="text/css">*{stroke-linejoin: round; stroke-linecap: butt}</style>
 </defs>
 <g id="figure_1">
  <g id="patch_1">
   <path d="M 0 711.033187 
L 711.425625 711.033187 
L 711.425625 0 
L 0 0 
z
" style="fill: #ffffff"/>
  </g>
  <g id="axes_1">
   <g id="patch_2">
    <path d="M 57.785625 643.1985 
L 704.225625 643.1985 
L 704.225625 39.1875 
L 57.785625 39.1875 
z
" style="fill: #ffffff"/>
   </g>
   <g id="matplotlib.axis_1">
    <g id="xtick_1">
     <g id="line2d_1">
      <defs>
       <path id="m6c739de7dd" d="M 0 0 
L 0 -3.5 
" style="stroke: #000000; stroke-width: 0.8"/>
      </defs>
      <g>
       <use xlink:href="#m6c739de7dd" x="87.110482" y="643.1985" style="stroke: #000000; stroke-width: 0.8"/>
      </g>
     </g>
     <g id="text_1">
      <!-- 0 -->
      <g transform="translate(79.603217 666.265062) scale(0.27 -0.27)">
       <defs>
        <path id="LiberationSans-30" d="M 3309 2203 
Q 3309 1100 2920 518 
Q 2531 -63 1772 -63 
Q 1013 -63 631 515 
Q 250 1094 250 2203 
Q 250 3338 620 3903 
Q 991 4469 1791 4469 
Q 2569 4469 2939 3897 
Q 3309 3325 3309 2203 
z
M 2738 2203 
Q 2738 3156 2517 3584 
Q 2297 4013 1791 4013 
Q 1272 4013 1045 3591 
Q 819 3169 819 2203 
Q 819 1266 1048 831 
Q 1278 397 1778 397 
Q 2275 397 2506 840 
Q 2738 1284 2738 2203 
z
" transform="scale(0.015625)"/>
       </defs>
       <use xlink:href="#LiberationSans-30"/>
      </g>
     </g>
    </g>
    <g id="xtick_2">
     <g id="line2d_2">
      <g>
       <use xlink:href="#m6c739de7dd" x="204.668539" y="643.1985" style="stroke: #000000; stroke-width: 0.8"/>
      </g>
     </g>
     <g id="text_2">
      <!-- 2 -->
      <g transform="translate(197.161274 666.265062) scale(0.27 -0.27)">
       <defs>
        <path id="LiberationSans-32" d="M 322 0 
L 322 397 
Q 481 763 711 1042 
Q 941 1322 1194 1548 
Q 1447 1775 1695 1969 
Q 1944 2163 2144 2356 
Q 2344 2550 2467 2762 
Q 2591 2975 2591 3244 
Q 2591 3606 2378 3806 
Q 2166 4006 1788 4006 
Q 1428 4006 1195 3811 
Q 963 3616 922 3263 
L 347 3316 
Q 409 3844 795 4156 
Q 1181 4469 1788 4469 
Q 2453 4469 2811 4155 
Q 3169 3841 3169 3263 
Q 3169 3006 3051 2753 
Q 2934 2500 2703 2247 
Q 2472 1994 1819 1463 
Q 1459 1169 1246 933 
Q 1034 697 941 478 
L 3238 478 
L 3238 0 
L 322 0 
z
" transform="scale(0.015625)"/>
       </defs>
       <use xlink:href="#LiberationSans-32"/>
      </g>
     </g>
    </g>
    <g id="xtick_3">
     <g id="line2d_3">
      <g>
       <use xlink:href="#m6c739de7dd" x="322.226596" y="643.1985" style="stroke: #000000; stroke-width: 0.8"/>
      </g>
     </g>
     <g id="text_3">
      <!-- 4 -->
      <g transform="translate(314.719331 666.265062) scale(0.27 -0.27)">
       <defs>
        <path id="LiberationSans-34" d="M 2753 997 
L 2753 0 
L 2222 0 
L 2222 997 
L 147 997 
L 147 1434 
L 2163 4403 
L 2753 4403 
L 2753 1441 
L 3372 1441 
L 3372 997 
L 2753 997 
z
M 2222 3769 
Q 2216 3750 2134 3603 
Q 2053 3456 2013 3397 
L 884 1734 
L 716 1503 
L 666 1441 
L 2222 1441 
L 2222 3769 
z
" transform="scale(0.015625)"/>
       </defs>
       <use xlink:href="#LiberationSans-34"/>
      </g>
     </g>
    </g>
    <g id="xtick_4">
     <g id="line2d_4">
      <g>
       <use xlink:href="#m6c739de7dd" x="439.784654" y="643.1985" style="stroke: #000000; stroke-width: 0.8"/>
      </g>
     </g>
     <g id="text_4">
      <!-- 6 -->
      <g transform="translate(432.277388 666.265062) scale(0.27 -0.27)">
       <defs>
        <path id="LiberationSans-36" d="M 3278 1441 
Q 3278 744 2900 340 
Q 2522 -63 1856 -63 
Q 1113 -63 719 490 
Q 325 1044 325 2100 
Q 325 3244 734 3856 
Q 1144 4469 1900 4469 
Q 2897 4469 3156 3572 
L 2619 3475 
Q 2453 4013 1894 4013 
Q 1413 4013 1148 3564 
Q 884 3116 884 2266 
Q 1038 2550 1316 2698 
Q 1594 2847 1953 2847 
Q 2563 2847 2920 2465 
Q 3278 2084 3278 1441 
z
M 2706 1416 
Q 2706 1894 2472 2153 
Q 2238 2413 1819 2413 
Q 1425 2413 1183 2183 
Q 941 1953 941 1550 
Q 941 1041 1192 716 
Q 1444 391 1838 391 
Q 2244 391 2475 664 
Q 2706 938 2706 1416 
z
" transform="scale(0.015625)"/>
       </defs>
       <use xlink:href="#LiberationSans-36"/>
      </g>
     </g>
    </g>
    <g id="xtick_5">
     <g id="line2d_5">
      <g>
       <use xlink:href="#m6c739de7dd" x="557.342711" y="643.1985" style="stroke: #000000; stroke-width: 0.8"/>
      </g>
     </g>
     <g id="text_5">
      <!-- 8 -->
      <g transform="translate(549.835445 666.265062) scale(0.27 -0.27)">
       <defs>
        <path id="LiberationSans-38" d="M 3281 1228 
Q 3281 619 2893 278 
Q 2506 -63 1781 -63 
Q 1075 -63 676 271 
Q 278 606 278 1222 
Q 278 1653 525 1947 
Q 772 2241 1156 2303 
L 1156 2316 
Q 797 2400 589 2681 
Q 381 2963 381 3341 
Q 381 3844 757 4156 
Q 1134 4469 1769 4469 
Q 2419 4469 2795 4162 
Q 3172 3856 3172 3334 
Q 3172 2956 2962 2675 
Q 2753 2394 2391 2322 
L 2391 2309 
Q 2813 2241 3047 1952 
Q 3281 1663 3281 1228 
z
M 2588 3303 
Q 2588 4050 1769 4050 
Q 1372 4050 1164 3862 
Q 956 3675 956 3303 
Q 956 2925 1170 2726 
Q 1384 2528 1775 2528 
Q 2172 2528 2380 2711 
Q 2588 2894 2588 3303 
z
M 2697 1281 
Q 2697 1691 2453 1898 
Q 2209 2106 1769 2106 
Q 1341 2106 1100 1882 
Q 859 1659 859 1269 
Q 859 359 1788 359 
Q 2247 359 2472 579 
Q 2697 800 2697 1281 
z
" transform="scale(0.015625)"/>
       </defs>
       <use xlink:href="#LiberationSans-38"/>
      </g>
     </g>
    </g>
    <g id="xtick_6">
     <g id="line2d_6">
      <g>
       <use xlink:href="#m6c739de7dd" x="674.900768" y="643.1985" style="stroke: #000000; stroke-width: 0.8"/>
      </g>
     </g>
     <g id="text_6">
      <!-- 10 -->
      <g transform="translate(659.886236 666.265062) scale(0.27 -0.27)">
       <defs>
        <path id="LiberationSans-31" d="M 488 0 
L 488 478 
L 1609 478 
L 1609 3866 
L 616 3156 
L 616 3688 
L 1656 4403 
L 2175 4403 
L 2175 478 
L 3247 478 
L 3247 0 
L 488 0 
z
" transform="scale(0.015625)"/>
       </defs>
       <use xlink:href="#LiberationSans-31"/>
       <use xlink:href="#LiberationSans-30" x="55.615234"/>
      </g>
     </g>
    </g>
    <g id="xtick_7">
     <g id="line2d_7">
      <defs>
       <path id="mc5a714d66d" d="M 0 0 
L 0 -2 
" style="stroke: #000000; stroke-width: 0.6"/>
      </defs>
      <g>
       <use xlink:href="#mc5a714d66d" x="116.499997" y="643.1985" style="stroke: #000000; stroke-width: 0.6"/>
      </g>
     </g>
    </g>
    <g id="xtick_8">
     <g id="line2d_8">
      <g>
       <use xlink:href="#mc5a714d66d" x="145.889511" y="643.1985" style="stroke: #000000; stroke-width: 0.6"/>
      </g>
     </g>
    </g>
    <g id="xtick_9">
     <g id="line2d_9">
      <g>
       <use xlink:href="#mc5a714d66d" x="175.279025" y="643.1985" style="stroke: #000000; stroke-width: 0.6"/>
      </g>
     </g>
    </g>
    <g id="xtick_10">
     <g id="line2d_10">
      <g>
       <use xlink:href="#mc5a714d66d" x="234.058054" y="643.1985" style="stroke: #000000; stroke-width: 0.6"/>
      </g>
     </g>
    </g>
    <g id="xtick_11">
     <g id="line2d_11">
      <g>
       <use xlink:href="#mc5a714d66d" x="263.447568" y="643.1985" style="stroke: #000000; stroke-width: 0.6"/>
      </g>
     </g>
    </g>
    <g id="xtick_12">
     <g id="line2d_12">
      <g>
       <use xlink:href="#mc5a714d66d" x="292.837082" y="643.1985" style="stroke: #000000; stroke-width: 0.6"/>
      </g>
     </g>
    </g>
    <g id="xtick_13">
     <g id="line2d_13">
      <g>
       <use xlink:href="#mc5a714d66d" x="351.616111" y="643.1985" style="stroke: #000000; stroke-width: 0.6"/>
      </g>
     </g>
    </g>
    <g id="xtick_14">
     <g id="line2d_14">
      <g>
       <use xlink:href="#mc5a714d66d" x="381.005625" y="643.1985" style="stroke: #000000; stroke-width: 0.6"/>
      </g>
     </g>
    </g>
    <g id="xtick_15">
     <g id="line2d_15">
      <g>
       <use xlink:href="#mc5a714d66d" x="410.395139" y="643.1985" style="stroke: #000000; stroke-width: 0.6"/>
      </g>
     </g>
    </g>
    <g id="xtick_16">
     <g id="line2d_16">
      <g>
       <use xlink:href="#mc5a714d66d" x="469.174168" y="643.1985" style="stroke: #000000; stroke-width: 0.6"/>
      </g>
     </g>
    </g>
    <g id="xtick_17">
     <g id="line2d_17">
      <g>
       <use xlink:href="#mc5a714d66d" x="498.563682" y="643.1985" style="stroke: #000000; stroke-width: 0.6"/>
      </g>
     </g>
    </g>
    <g id="xtick_18">
     <g id="line2d_18">
      <g>
       <use xlink:href="#mc5a714d66d" x="527.953196" y="643.1985" style="stroke: #000000; stroke-width: 0.6"/>
      </g>
     </g>
    </g>
    <g id="xtick_19">
     <g id="line2d_19">
      <g>
       <use xlink:href="#mc5a714d66d" x="586.732225" y="643.1985" style="stroke: #000000; stroke-width: 0.6"/>
      </g>
     </g>
    </g>
    <g id="xtick_20">
     <g id="line2d_20">
      <g>
       <use xlink:href="#mc5a714d66d" x="616.121739" y="643.1985" style="stroke: #000000; stroke-width: 0.6"/>
      </g>
     </g>
    </g>
    <g id="xtick_21">
     <g id="line2d_21">
      <g>
       <use xlink:href="#mc5a714d66d" x="645.511253" y="643.1985" style="stroke: #000000; stroke-width: 0.6"/>
      </g>
     </g>
    </g>
    <g id="text_7">
     <!-- Time ps -->
     <g transform="translate(328.229062 697.608187) scale(0.3 -0.3)">
      <defs>
       <path id="LiberationSans-54" d="M 2250 3916 
L 2250 0 
L 1656 0 
L 1656 3916 
L 144 3916 
L 144 4403 
L 3763 4403 
L 3763 3916 
L 2250 3916 
z
" transform="scale(0.015625)"/>
       <path id="LiberationSans-69" d="M 428 4100 
L 428 4638 
L 991 4638 
L 991 4100 
L 428 4100 
z
M 428 0 
L 428 3381 
L 991 3381 
L 991 0 
L 428 0 
z
" transform="scale(0.015625)"/>
       <path id="LiberationSans-6d" d="M 2400 0 
L 2400 2144 
Q 2400 2634 2265 2821 
Q 2131 3009 1781 3009 
Q 1422 3009 1212 2734 
Q 1003 2459 1003 1959 
L 1003 0 
L 444 0 
L 444 2659 
Q 444 3250 425 3381 
L 956 3381 
Q 959 3366 962 3297 
Q 966 3228 970 3139 
Q 975 3050 981 2803 
L 991 2803 
Q 1172 3163 1406 3303 
Q 1641 3444 1978 3444 
Q 2363 3444 2586 3291 
Q 2809 3138 2897 2803 
L 2906 2803 
Q 3081 3144 3329 3294 
Q 3578 3444 3931 3444 
Q 4444 3444 4676 3166 
Q 4909 2888 4909 2253 
L 4909 0 
L 4353 0 
L 4353 2144 
Q 4353 2634 4218 2821 
Q 4084 3009 3734 3009 
Q 3366 3009 3161 2736 
Q 2956 2463 2956 1959 
L 2956 0 
L 2400 0 
z
" transform="scale(0.015625)"/>
       <path id="LiberationSans-65" d="M 863 1572 
Q 863 991 1103 675 
Q 1344 359 1806 359 
Q 2172 359 2392 506 
Q 2613 653 2691 878 
L 3184 738 
Q 2881 -63 1806 -63 
Q 1056 -63 664 384 
Q 272 831 272 1713 
Q 272 2550 664 2997 
Q 1056 3444 1784 3444 
Q 3275 3444 3275 1647 
L 3275 1572 
L 863 1572 
z
M 2694 2003 
Q 2647 2538 2422 2783 
Q 2197 3028 1775 3028 
Q 1366 3028 1127 2754 
Q 888 2481 869 2003 
L 2694 2003 
z
" transform="scale(0.015625)"/>
       <path id="LiberationSans-20" transform="scale(0.015625)"/>
       <path id="LiberationSans-70" d="M 3291 1706 
Q 3291 -63 2047 -63 
Q 1266 -63 997 525 
L 981 525 
Q 994 500 994 -6 
L 994 -1328 
L 431 -1328 
L 431 2691 
Q 431 3213 413 3381 
L 956 3381 
Q 959 3369 965 3292 
Q 972 3216 980 3056 
Q 988 2897 988 2838 
L 1000 2838 
Q 1150 3150 1397 3295 
Q 1644 3441 2047 3441 
Q 2672 3441 2981 3022 
Q 3291 2603 3291 1706 
z
M 2700 1694 
Q 2700 2400 2509 2703 
Q 2319 3006 1903 3006 
Q 1569 3006 1380 2865 
Q 1191 2725 1092 2426 
Q 994 2128 994 1650 
Q 994 984 1206 668 
Q 1419 353 1897 353 
Q 2316 353 2508 661 
Q 2700 969 2700 1694 
z
" transform="scale(0.015625)"/>
       <path id="LiberationSans-73" d="M 2969 934 
Q 2969 456 2608 196 
Q 2247 -63 1597 -63 
Q 966 -63 623 145 
Q 281 353 178 794 
L 675 891 
Q 747 619 972 492 
Q 1197 366 1597 366 
Q 2025 366 2223 497 
Q 2422 628 2422 891 
Q 2422 1091 2284 1216 
Q 2147 1341 1841 1422 
L 1438 1528 
Q 953 1653 748 1773 
Q 544 1894 428 2066 
Q 313 2238 313 2488 
Q 313 2950 642 3192 
Q 972 3434 1603 3434 
Q 2163 3434 2492 3237 
Q 2822 3041 2909 2606 
L 2403 2544 
Q 2356 2769 2151 2889 
Q 1947 3009 1603 3009 
Q 1222 3009 1040 2893 
Q 859 2778 859 2544 
Q 859 2400 934 2306 
Q 1009 2213 1156 2147 
Q 1303 2081 1775 1966 
Q 2222 1853 2419 1758 
Q 2616 1663 2730 1547 
Q 2844 1431 2906 1279 
Q 2969 1128 2969 934 
z
" transform="scale(0.015625)"/>
      </defs>
      <use xlink:href="#LiberationSans-54"/>
      <use xlink:href="#LiberationSans-69" x="57.333984"/>
      <use xlink:href="#LiberationSans-6d" x="79.550781"/>
      <use xlink:href="#LiberationSans-65" x="162.851562"/>
      <use xlink:href="#LiberationSans-20" x="218.466797"/>
      <use xlink:href="#LiberationSans-70" x="246.25"/>
      <use xlink:href="#LiberationSans-73" x="301.865234"/>
     </g>
    </g>
   </g>
   <g id="matplotlib.axis_2">
    <g id="ytick_1">
     <g id="line2d_22">
      <defs>
       <path id="md4230e5e4b" d="M 0 0 
L 3.5 0 
" style="stroke: #000000; stroke-width: 0.8"/>
      </defs>
      <g>
       <use xlink:href="#md4230e5e4b" x="57.785625" y="615.743455" style="stroke: #000000; stroke-width: 0.8"/>
      </g>
     </g>
     <g id="text_8">
      <!-- $\mathdefault{0}$ -->
      <g transform="translate(39.165625 625.526736) scale(0.27 -0.27)">
       <use xlink:href="#LiberationSans-30" transform="translate(0 0.171875)"/>
      </g>
     </g>
    </g>
    <g id="ytick_2">
     <g id="line2d_23">
      <g>
       <use xlink:href="#md4230e5e4b" x="57.785625" y="495.542969" style="stroke: #000000; stroke-width: 0.8"/>
      </g>
     </g>
     <g id="text_9">
      <!-- $\mathdefault{2}$ -->
      <g transform="translate(39.165625 505.32625) scale(0.27 -0.27)">
       <use xlink:href="#LiberationSans-32" transform="translate(0 0.171875)"/>
      </g>
     </g>
    </g>
    <g id="ytick_3">
     <g id="line2d_24">
      <g>
       <use xlink:href="#md4230e5e4b" x="57.785625" y="375.342483" style="stroke: #000000; stroke-width: 0.8"/>
      </g>
     </g>
     <g id="text_10">
      <!-- $\mathdefault{4}$ -->
      <g transform="translate(39.165625 385.125764) scale(0.27 -0.27)">
       <use xlink:href="#LiberationSans-34" transform="translate(0 0.203125)"/>
      </g>
     </g>
    </g>
    <g id="ytick_4">
     <g id="line2d_25">
      <g>
       <use xlink:href="#md4230e5e4b" x="57.785625" y="255.141997" style="stroke: #000000; stroke-width: 0.8"/>
      </g>
     </g>
     <g id="text_11">
      <!-- $\mathdefault{6}$ -->
      <g transform="translate(39.165625 264.925278) scale(0.27 -0.27)">
       <use xlink:href="#LiberationSans-36" transform="translate(0 0.171875)"/>
      </g>
     </g>
    </g>
    <g id="ytick_5">
     <g id="line2d_26">
      <g>
       <use xlink:href="#md4230e5e4b" x="57.785625" y="134.941511" style="stroke: #000000; stroke-width: 0.8"/>
      </g>
     </g>
     <g id="text_12">
      <!-- $\mathdefault{8}$ -->
      <g transform="translate(39.165625 144.724793) scale(0.27 -0.27)">
       <use xlink:href="#LiberationSans-38" transform="translate(0 0.171875)"/>
      </g>
     </g>
    </g>
    <g id="ytick_6">
     <g id="line2d_27">
      <defs>
       <path id="m3330248b55" d="M 0 0 
L 2 0 
" style="stroke: #000000; stroke-width: 0.6"/>
      </defs>
      <g>
       <use xlink:href="#m3330248b55" x="57.785625" y="585.693333" style="stroke: #000000; stroke-width: 0.6"/>
      </g>
     </g>
    </g>
    <g id="ytick_7">
     <g id="line2d_28">
      <g>
       <use xlink:href="#m3330248b55" x="57.785625" y="555.643212" style="stroke: #000000; stroke-width: 0.6"/>
      </g>
     </g>
    </g>
    <g id="ytick_8">
     <g id="line2d_29">
      <g>
       <use xlink:href="#m3330248b55" x="57.785625" y="525.59309" style="stroke: #000000; stroke-width: 0.6"/>
      </g>
     </g>
    </g>
    <g id="ytick_9">
     <g id="line2d_30">
      <g>
       <use xlink:href="#m3330248b55" x="57.785625" y="465.492847" style="stroke: #000000; stroke-width: 0.6"/>
      </g>
     </g>
    </g>
    <g id="ytick_10">
     <g id="line2d_31">
      <g>
       <use xlink:href="#m3330248b55" x="57.785625" y="435.442726" style="stroke: #000000; stroke-width: 0.6"/>
      </g>
     </g>
    </g>
    <g id="ytick_11">
     <g id="line2d_32">
      <g>
       <use xlink:href="#m3330248b55" x="57.785625" y="405.392604" style="stroke: #000000; stroke-width: 0.6"/>
      </g>
     </g>
    </g>
    <g id="ytick_12">
     <g id="line2d_33">
      <g>
       <use xlink:href="#m3330248b55" x="57.785625" y="345.292362" style="stroke: #000000; stroke-width: 0.6"/>
      </g>
     </g>
    </g>
    <g id="ytick_13">
     <g id="line2d_34">
      <g>
       <use xlink:href="#m3330248b55" x="57.785625" y="315.24224" style="stroke: #000000; stroke-width: 0.6"/>
      </g>
     </g>
    </g>
    <g id="ytick_14">
     <g id="line2d_35">
      <g>
       <use xlink:href="#m3330248b55" x="57.785625" y="285.192119" style="stroke: #000000; stroke-width: 0.6"/>
      </g>
     </g>
    </g>
    <g id="ytick_15">
     <g id="line2d_36">
      <g>
       <use xlink:href="#m3330248b55" x="57.785625" y="225.091876" style="stroke: #000000; stroke-width: 0.6"/>
      </g>
     </g>
    </g>
    <g id="ytick_16">
     <g id="line2d_37">
      <g>
       <use xlink:href="#m3330248b55" x="57.785625" y="195.041754" style="stroke: #000000; stroke-width: 0.6"/>
      </g>
     </g>
    </g>
    <g id="ytick_17">
     <g id="line2d_38">
      <g>
       <use xlink:href="#m3330248b55" x="57.785625" y="164.991633" style="stroke: #000000; stroke-width: 0.6"/>
      </g>
     </g>
    </g>
    <g id="ytick_18">
     <g id="line2d_39">
      <g>
       <use xlink:href="#m3330248b55" x="57.785625" y="104.89139" style="stroke: #000000; stroke-width: 0.6"/>
      </g>
     </g>
    </g>
    <g id="ytick_19">
     <g id="line2d_40">
      <g>
       <use xlink:href="#m3330248b55" x="57.785625" y="74.841268" style="stroke: #000000; stroke-width: 0.6"/>
      </g>
     </g>
    </g>
    <g id="ytick_20">
     <g id="line2d_41">
      <g>
       <use xlink:href="#m3330248b55" x="57.785625" y="44.791147" style="stroke: #000000; stroke-width: 0.6"/>
      </g>
     </g>
    </g>
    <g id="text_13">
     <!-- ITR $\mathrm{K} \cdot \mathrm{m}^2 / \mathrm{W}$ -->
     <g transform="translate(28.940625 425.193) rotate(-90) scale(0.3 -0.3)">
      <defs>
       <path id="LiberationSans-49" d="M 591 0 
L 591 4403 
L 1188 4403 
L 1188 0 
L 591 0 
z
" transform="scale(0.015625)"/>
       <path id="LiberationSans-52" d="M 3638 0 
L 2494 1828 
L 1122 1828 
L 1122 0 
L 525 0 
L 525 4403 
L 2597 4403 
Q 3341 4403 3745 4070 
Q 4150 3738 4150 3144 
Q 4150 2653 3864 2318 
Q 3578 1984 3075 1897 
L 4325 0 
L 3638 0 
z
M 3550 3138 
Q 3550 3522 3289 3723 
Q 3028 3925 2538 3925 
L 1122 3925 
L 1122 2300 
L 2563 2300 
Q 3034 2300 3292 2520 
Q 3550 2741 3550 3138 
z
" transform="scale(0.015625)"/>
       <path id="STIXGeneral-Regular-4b" d="M 4627 0 
L 2688 0 
L 2688 122 
L 2861 128 
Q 3130 134 3130 282 
Q 3130 397 2922 643 
Q 2714 890 2253 1370 
L 1613 2029 
L 1446 1894 
L 1446 710 
Q 1446 352 1548 253 
Q 1651 154 2016 122 
L 2016 0 
L 211 0 
L 211 122 
Q 589 141 691 262 
Q 794 384 794 800 
L 794 3514 
Q 794 3872 691 3981 
Q 589 4090 218 4115 
L 218 4237 
L 2022 4237 
L 2022 4115 
Q 1632 4090 1539 3987 
Q 1446 3885 1446 3507 
L 1446 2227 
L 2586 3277 
Q 2861 3533 2973 3667 
Q 3085 3802 3085 3910 
Q 3085 4013 3030 4057 
Q 2976 4102 2822 4109 
L 2662 4115 
L 2662 4237 
L 4320 4237 
L 4320 4115 
Q 3994 4090 3824 4003 
Q 3654 3917 3322 3597 
L 2131 2458 
L 3629 819 
Q 4026 384 4214 253 
Q 4403 122 4627 122 
L 4627 0 
z
" transform="scale(0.015625)"/>
       <path id="STIXGeneral-Regular-22c5" d="M 1187 1888 
Q 1299 1773 1299 1619 
Q 1299 1466 1187 1350 
Q 1075 1235 921 1235 
Q 768 1235 649 1353 
Q 531 1472 531 1619 
Q 531 1766 649 1884 
Q 768 2003 921 2003 
Q 1075 2003 1187 1888 
z
" transform="scale(0.015625)"/>
       <path id="STIXGeneral-Regular-6d" d="M 4960 0 
L 3565 0 
L 3565 96 
Q 3834 122 3907 208 
Q 3981 294 3981 576 
L 3981 1894 
Q 3981 2278 3869 2444 
Q 3757 2611 3488 2611 
Q 3264 2611 3107 2521 
Q 2950 2432 2803 2221 
L 2803 608 
Q 2803 301 2896 201 
Q 2989 102 3264 96 
L 3264 0 
L 1830 0 
L 1830 96 
Q 2112 115 2189 188 
Q 2266 262 2266 550 
L 2266 1901 
Q 2266 2611 1850 2611 
Q 1670 2611 1468 2531 
Q 1267 2451 1171 2336 
Q 1088 2240 1088 2227 
L 1088 448 
Q 1088 243 1177 176 
Q 1267 109 1523 96 
L 1523 0 
L 102 0 
L 102 96 
Q 371 102 460 195 
Q 550 288 550 563 
L 550 2150 
Q 550 2387 499 2480 
Q 448 2573 326 2573 
Q 230 2573 122 2547 
L 122 2656 
Q 557 2778 1011 2944 
L 1062 2925 
L 1062 2451 
L 1075 2451 
Q 1363 2752 1584 2848 
Q 1805 2944 2054 2944 
Q 2560 2944 2733 2406 
Q 3232 2944 3776 2944 
Q 4518 2944 4518 1792 
L 4518 493 
Q 4518 282 4582 202 
Q 4646 122 4794 109 
L 4960 96 
L 4960 0 
z
" transform="scale(0.015625)"/>
       <path id="STIXGeneral-Regular-32" d="M 3034 877 
L 2688 0 
L 186 0 
L 186 77 
L 1325 1286 
Q 1773 1754 1965 2144 
Q 2157 2534 2157 2950 
Q 2157 3379 1920 3616 
Q 1683 3853 1267 3853 
Q 922 3853 720 3673 
Q 518 3494 326 3021 
L 192 3053 
Q 301 3648 630 3987 
Q 960 4326 1523 4326 
Q 2054 4326 2380 4006 
Q 2707 3686 2707 3200 
Q 2707 2477 1888 1613 
L 832 486 
L 2330 486 
Q 2541 486 2665 569 
Q 2790 653 2944 915 
L 3034 877 
z
" transform="scale(0.015625)"/>
       <path id="STIXGeneral-Regular-2f" d="M 1837 4326 
L 378 -90 
L -58 -90 
L 1408 4326 
L 1837 4326 
z
" transform="scale(0.015625)"/>
       <path id="STIXGeneral-Regular-57" d="M 5965 4237 
L 5965 4115 
Q 5709 4064 5616 3990 
Q 5523 3917 5434 3667 
Q 4704 1709 4128 -70 
L 4032 -70 
Q 3642 1011 3008 2637 
L 2022 -70 
L 1926 -70 
Q 1709 576 1277 1753 
Q 845 2931 698 3347 
Q 538 3808 406 3958 
Q 275 4109 32 4115 
L 32 4237 
L 1594 4237 
L 1594 4115 
Q 1357 4109 1270 4064 
Q 1184 4019 1184 3917 
Q 1184 3808 1254 3616 
L 2176 1210 
L 2842 3021 
L 2662 3501 
Q 2509 3917 2400 4013 
Q 2291 4109 2010 4115 
L 2010 4237 
L 3706 4237 
L 3706 4115 
Q 3213 4102 3213 3891 
Q 3213 3808 3322 3520 
L 4237 1190 
L 5043 3360 
Q 5152 3667 5152 3853 
Q 5152 4109 4704 4115 
L 4704 4237 
L 5965 4237 
z
" transform="scale(0.015625)"/>
      </defs>
      <use xlink:href="#LiberationSans-49" transform="translate(0 0.409375)"/>
      <use xlink:href="#LiberationSans-54" transform="translate(27.783203 0.409375)"/>
      <use xlink:href="#LiberationSans-52" transform="translate(88.867188 0.409375)"/>
      <use xlink:href="#LiberationSans-20" transform="translate(161.083984 0.409375)"/>
      <use xlink:href="#STIXGeneral-Regular-4b" transform="translate(188.867188 0.409375)"/>
      <use xlink:href="#STIXGeneral-Regular-22c5" transform="translate(275.507166 0.409375)"/>
      <use xlink:href="#STIXGeneral-Regular-6d" transform="translate(318.547153 0.409375)"/>
      <use xlink:href="#STIXGeneral-Regular-32" transform="translate(397.890422 35.684375) scale(0.7)"/>
      <use xlink:href="#STIXGeneral-Regular-2f" transform="translate(437.299786 0.409375)"/>
      <use xlink:href="#STIXGeneral-Regular-57" transform="translate(465.099774 0.409375)"/>
     </g>
    </g>
    <g id="text_14">
     <!-- $\times\mathdefault{10^{−7}}\mathdefault{}$ -->
     <g transform="translate(57.785625 36.1875) scale(0.4 -0.4)">
      <defs>
       <path id="STIXGeneral-Regular-d7" d="M 3821 141 
L 3526 -160 
L 2048 1312 
L 570 -160 
L 275 134 
L 1747 1613 
L 275 3091 
L 576 3386 
L 2048 1914 
L 3526 3386 
L 3821 3098 
L 2349 1613 
L 3821 141 
z
" transform="scale(0.015625)"/>
       <path id="LiberationSans-2212" d="M 316 1900 
L 316 2356 
L 3425 2356 
L 3425 1900 
L 316 1900 
z
" transform="scale(0.015625)"/>
       <path id="LiberationSans-37" d="M 3238 3947 
Q 2563 2916 2284 2331 
Q 2006 1747 1867 1178 
Q 1728 609 1728 0 
L 1141 0 
Q 1141 844 1498 1776 
Q 1856 2709 2694 3925 
L 328 3925 
L 328 4403 
L 3238 4403 
L 3238 3947 
z
" transform="scale(0.015625)"/>
      </defs>
      <use xlink:href="#STIXGeneral-Regular-d7" transform="translate(0 0.8625)"/>
      <use xlink:href="#LiberationSans-31" transform="translate(63.999985 0.8625)"/>
      <use xlink:href="#LiberationSans-30" transform="translate(119.615219 0.8625)"/>
      <use xlink:href="#LiberationSans-2212" transform="translate(176.154946 37.842188) scale(0.7)"/>
      <use xlink:href="#LiberationSans-37" transform="translate(217.033852 37.842188) scale(0.7)"/>
     </g>
    </g>
   </g>
   <g id="line2d_42">
    <path d="M 87.169261 615.743455 
L 87.22804 66.642545 
L 87.286819 340.152582 
L 87.463157 504.632699 
L 87.698273 553.154957 
L 87.992168 574.51203 
L 88.344842 585.707365 
L 88.756295 592.10325 
L 89.167748 595.502269 
L 89.579202 597.392976 
L 89.990655 598.384767 
L 90.343329 598.743941 
L 90.637224 598.775525 
L 90.989898 598.545117 
L 91.401351 597.954366 
L 91.930363 596.743858 
L 92.576932 594.652887 
L 93.399838 591.170529 
L 94.575419 585.07122 
L 98.454835 563.983759 
L 99.042625 562.332167 
L 99.454078 561.69489 
L 99.806752 561.493774 
L 100.100648 561.557192 
L 100.453322 561.884771 
L 100.923554 562.678705 
L 101.628902 564.382518 
L 103.451052 569.00238 
L 104.156401 570.114467 
L 104.685412 570.594101 
L 105.155644 570.760962 
L 105.625876 570.69293 
L 106.154888 570.363769 
L 106.801457 569.674604 
L 109.211397 566.787743 
L 109.916745 566.428649 
L 110.680873 566.309328 
L 111.680116 566.404994 
L 113.208371 566.788423 
L 114.736626 567.375982 
L 116.676334 568.412769 
L 117.910693 568.941827 
L 118.968716 569.152277 
L 120.085517 569.139288 
L 121.378656 568.893028 
L 123.318364 568.257558 
L 124.905398 567.829823 
L 126.198536 567.719418 
L 128.079465 567.82131 
L 134.486379 568.255103 
L 136.014634 568.036532 
L 138.130679 567.471946 
L 140.129166 567.009209 
L 141.657421 566.889219 
L 143.362013 566.985798 
L 144.949046 567.290597 
L 147.300208 568.025256 
L 151.238402 569.10659 
L 152.766657 569.310009 
L 154.353691 569.282524 
L 156.646073 569.00131 
L 160.760605 568.441104 
L 162.28886 568.550489 
L 165.345369 568.836823 
L 166.756066 568.68242 
L 168.872111 568.182753 
L 170.811819 567.80103 
L 172.104958 567.769985 
L 173.221759 567.959163 
L 174.573677 568.433209 
L 176.80728 569.234085 
L 178.100419 569.422477 
L 180.275243 569.467513 
L 181.921055 569.320344 
L 183.44931 568.945228 
L 185.976808 568.288743 
L 187.387505 568.196491 
L 189.679887 568.321958 
L 193.676861 568.497275 
L 196.733371 568.436031 
L 203.140285 568.220975 
L 204.433423 568.492421 
L 207.725049 569.352256 
L 209.48842 569.477487 
L 211.957139 569.40781 
L 215.483881 569.078793 
L 217.893821 568.92716 
L 220.009866 569.054731 
L 222.77248 569.188191 
L 224.888525 569.062628 
L 229.120615 568.6959 
L 230.766428 568.903101 
L 232.823694 569.393888 
L 235.057297 569.904235 
L 236.526773 569.97915 
L 238.642818 569.834048 
L 241.052758 569.467 
L 243.697814 569.068528 
L 245.696301 569.043119 
L 248.81159 568.982852 
L 251.515425 568.960065 
L 254.86583 569.005109 
L 256.805538 568.72788 
L 259.68571 568.328709 
L 261.096407 568.360831 
L 262.271987 568.613559 
L 263.859021 569.217191 
L 265.73995 569.886895 
L 266.97431 570.089819 
L 268.208669 570.074425 
L 269.560587 569.824573 
L 271.441516 569.208255 
L 273.381224 568.643931 
L 274.79192 568.47403 
L 276.437733 568.512045 
L 281.669067 568.800298 
L 283.256101 568.569063 
L 284.901913 568.094064 
L 287.194295 567.420911 
L 288.311097 567.340845 
L 289.427899 567.482498 
L 290.662258 567.866983 
L 292.308071 568.641654 
L 294.130221 569.453009 
L 295.423359 569.761705 
L 296.951614 569.877762 
L 298.538648 569.785826 
L 299.949345 569.477508 
L 303.064633 568.684894 
L 304.298993 568.691393 
L 306.003585 568.949484 
L 310.52957 569.731564 
L 311.822708 569.661275 
L 313.115847 569.356061 
L 317.289158 568.145895 
L 318.582297 568.159154 
L 319.934214 568.407729 
L 321.521248 568.940952 
L 324.048746 569.800118 
L 325.459443 569.999861 
L 327.222814 570.008867 
L 328.927406 569.806375 
L 333.394612 569.118 
L 335.099204 569.217513 
L 340.271758 569.694652 
L 342.093908 569.559861 
L 343.680942 569.214174 
L 347.090126 568.355556 
L 348.206927 568.365544 
L 349.382508 568.608095 
L 350.851983 569.166751 
L 353.144365 570.040282 
L 354.496283 570.274807 
L 356.847444 570.399879 
L 359.081047 570.339076 
L 363.371916 570.113662 
L 370.836853 570.118686 
L 372.659003 569.883571 
L 375.068943 569.297646 
L 376.949872 568.945311 
L 378.360569 568.905218 
L 379.594928 569.088719 
L 381.064404 569.544839 
L 383.298007 570.261475 
L 384.826262 570.515544 
L 386.295738 570.534877 
L 387.765213 570.324577 
L 392.643873 569.40838 
L 394.466023 569.448413 
L 400.226367 569.797059 
L 401.989738 569.51941 
L 405.751596 568.827193 
L 407.397409 568.844705 
L 408.866885 569.077124 
L 410.512697 569.585117 
L 412.511184 570.183823 
L 413.745544 570.320537 
L 414.979903 570.22811 
L 416.331821 569.892281 
L 420.681469 568.59749 
L 422.150945 568.536239 
L 424.149432 568.696727 
L 428.440301 569.105188 
L 430.673904 569.062922 
L 433.612856 568.742065 
L 435.846459 568.613429 
L 437.844946 568.71409 
L 439.843433 569.046822 
L 444.83965 570.017882 
L 446.191568 569.996081 
L 448.131276 569.694501 
L 449.777088 569.537426 
L 451.364122 569.625277 
L 455.008422 569.910147 
L 461.76801 569.774527 
L 466.881786 569.528711 
L 468.586378 569.840568 
L 470.584864 570.170904 
L 472.05434 570.15783 
L 474.46428 569.876996 
L 478.872708 569.271855 
L 480.107067 569.471004 
L 482.046775 570.063728 
L 483.751367 570.493099 
L 485.044506 570.581587 
L 486.337644 570.440787 
L 488.571247 569.92039 
L 491.627757 569.280593 
L 493.567465 569.080984 
L 495.095719 569.145648 
L 496.506416 569.42191 
L 500.327053 570.364779 
L 501.561413 570.265094 
L 503.736237 569.799004 
L 507.909548 568.922772 
L 509.202686 568.92422 
L 510.613383 569.169933 
L 513.78745 569.815027 
L 515.374484 569.837448 
L 517.608087 569.626635 
L 520.253144 569.147466 
L 522.545526 568.78517 
L 524.602792 568.712277 
L 526.424942 568.839949 
L 528.011975 569.18293 
L 531.421159 570.018293 
L 533.18453 570.219491 
L 534.36011 570.137043 
L 535.476912 569.830971 
L 537.299062 569.039821 
L 538.65098 568.568726 
L 539.709002 568.434319 
L 540.825804 568.530554 
L 542.354058 568.919076 
L 544.176208 569.33656 
L 545.29301 569.356621 
L 546.527369 569.137764 
L 550.465564 568.218552 
L 551.93504 568.246608 
L 554.109864 568.553728 
L 556.696141 569.12379 
L 558.400733 569.42952 
L 559.635093 569.387697 
L 563.220613 569.078044 
L 567.922936 569.232932 
L 570.274097 569.164695 
L 571.978689 569.383449 
L 574.32985 569.671254 
L 575.681768 569.586521 
L 577.092464 569.26997 
L 582.441356 567.807722 
L 583.793273 567.787978 
L 584.968854 567.984822 
L 586.261993 568.443702 
L 588.671933 569.35543 
L 589.847513 569.516877 
L 591.25821 569.467221 
L 593.021581 569.174201 
L 598.781926 567.99633 
L 600.192622 568.072353 
L 601.662098 568.392634 
L 605.306398 569.32617 
L 606.599537 569.339952 
L 607.951454 569.123162 
L 613.06523 568.029659 
L 614.299589 568.118929 
L 615.651507 568.449462 
L 617.767552 568.991725 
L 618.943133 569.017301 
L 620.471387 568.795677 
L 623.763013 568.266719 
L 625.17371 568.30383 
L 626.760743 568.596814 
L 629.111904 569.039481 
L 630.405043 569.031581 
L 631.756961 568.793126 
L 633.755448 568.177627 
L 637.282189 567.09852 
L 638.928002 566.843262 
L 640.573815 566.820984 
L 642.572302 567.023917 
L 643.806662 567.352142 
L 645.041021 567.92396 
L 647.568519 569.201458 
L 648.567763 569.390445 
L 649.625785 569.352373 
L 650.918924 569.069091 
L 653.093748 568.326664 
L 655.38613 567.603234 
L 656.738048 567.402692 
L 658.207524 567.422317 
L 662.02816 567.598799 
L 664.555659 567.340916 
L 667.259494 566.86176 
L 669.31676 566.566517 
L 670.845015 566.587442 
L 672.608386 566.842341 
L 674.430535 567.341608 
L 674.841989 567.476681 
L 674.841989 567.476681 
" clip-path="url(#pde000f0f31)" style="fill: none; stroke: #0000ff; stroke-width: 1.5; stroke-linecap: square"/>
   </g>
   <g id="patch_3">
    <path d="M 57.785625 643.1985 
L 57.785625 39.1875 
" style="fill: none; stroke: #000000; stroke-width: 0.8; stroke-linejoin: miter; stroke-linecap: square"/>
   </g>
   <g id="patch_4">
    <path d="M 704.225625 643.1985 
L 704.225625 39.1875 
" style="fill: none; stroke: #000000; stroke-width: 0.8; stroke-linejoin: miter; stroke-linecap: square"/>
   </g>
   <g id="patch_5">
    <path d="M 57.785625 643.1985 
L 704.225625 643.1985 
" style="fill: none; stroke: #000000; stroke-width: 0.8; stroke-linejoin: miter; stroke-linecap: square"/>
   </g>
   <g id="patch_6">
    <path d="M 57.785625 39.1875 
L 704.225625 39.1875 
" style="fill: none; stroke: #000000; stroke-width: 0.8; stroke-linejoin: miter; stroke-linecap: square"/>
   </g>
  </g>
 </g>
 <defs>
  <clipPath id="pde000f0f31">
   <rect x="57.785625" y="39.1875" width="646.44" height="604.011"/>
  </clipPath>
 </defs>
</svg>
