<?xml version="1.0" encoding="utf-8" standalone="no"?>
<!DOCTYPE svg PUBLIC "-//W3C//DTD SVG 1.1//EN"
  "http://www.w3.org/Graphics/SVG/1.1/DTD/svg11.dtd">
<svg xmlns:xlink="http://www.w3.org/1999/xlink" width="709.854pt" height="711.105187pt" viewBox="0 0 709.854 711.105187" xmlns="http://www.w3.org/2000/svg" version="1.1">
 <metadata>
  <rdf:RDF xmlns:dc="http://purl.org/dc/elements/1.1/" xmlns:cc="http://creativecommons.org/ns#" xmlns:rdf="http://www.w3.org/1999/02/22-rdf-syntax-ns#">
   <cc:Work>
    <dc:type rdf:resource="http://purl.org/dc/dcmitype/StillImage"/>
    <dc:date>2025-02-06T00:40:34.600720</dc:date>
    <dc:format>image/svg+xml</dc:format>
    <dc:creator>
     <cc:Agent>
      <dc:title>Matplotlib v3.9.3, https://matplotlib.org/</dc:title>
     </cc:Agent>
    </dc:creator>
   </cc:Work>
  </rdf:RDF>
 </metadata>
 <defs>
  <style type="text/css">*{stroke-linejoin: round; stroke-linecap: butt}</style>
 </defs>
 <g id="figure_1">
  <g id="patch_1">
   <path d="M 0 711.105187 
L 709.854 711.105187 
L 709.854 0 
L 0 0 
z
" style="fill: #ffffff"/>
  </g>
  <g id="axes_1">
   <g id="patch_2">
    <path d="M 60.12 643.2705 
L 702.654 643.2705 
L 702.654 39.1875 
L 60.12 39.1875 
z
" style="fill: #ffffff"/>
   </g>
   <g id="matplotlib.axis_1">
    <g id="xtick_1">
     <g id="line2d_1">
      <defs>
       <path id="m34ceaf829a" d="M 0 0 
L 0 -3.5 
" style="stroke: #000000; stroke-width: 0.8"/>
      </defs>
      <g>
       <use xlink:href="#m34ceaf829a" x="89.209231" y="643.2705" style="stroke: #000000; stroke-width: 0.8"/>
      </g>
     </g>
     <g id="text_1">
      <!-- 0 -->
      <g transform="translate(81.701966 666.337062) scale(0.27 -0.27)">
       <defs>
        <path id="LiberationSans-30" d="M 3309 2203 
Q 3309 1100 2920 518 
Q 2531 -63 1772 -63 
Q 1013 -63 631 515 
Q 250 1094 250 2203 
Q 250 3338 620 3903 
Q 991 4469 1791 4469 
Q 2569 4469 2939 3897 
Q 3309 3325 3309 2203 
z
M 2738 2203 
Q 2738 3156 2517 3584 
Q 2297 4013 1791 4013 
Q 1272 4013 1045 3591 
Q 819 3169 819 2203 
Q 819 1266 1048 831 
Q 1278 397 1778 397 
Q 2275 397 2506 840 
Q 2738 1284 2738 2203 
z
" transform="scale(0.015625)"/>
       </defs>
       <use xlink:href="#LiberationSans-30"/>
      </g>
     </g>
    </g>
    <g id="xtick_2">
     <g id="line2d_2">
      <g>
       <use xlink:href="#m34ceaf829a" x="206.068653" y="643.2705" style="stroke: #000000; stroke-width: 0.8"/>
      </g>
     </g>
     <g id="text_2">
      <!-- 2 -->
      <g transform="translate(198.561387 666.337062) scale(0.27 -0.27)">
       <defs>
        <path id="LiberationSans-32" d="M 322 0 
L 322 397 
Q 481 763 711 1042 
Q 941 1322 1194 1548 
Q 1447 1775 1695 1969 
Q 1944 2163 2144 2356 
Q 2344 2550 2467 2762 
Q 2591 2975 2591 3244 
Q 2591 3606 2378 3806 
Q 2166 4006 1788 4006 
Q 1428 4006 1195 3811 
Q 963 3616 922 3263 
L 347 3316 
Q 409 3844 795 4156 
Q 1181 4469 1788 4469 
Q 2453 4469 2811 4155 
Q 3169 3841 3169 3263 
Q 3169 3006 3051 2753 
Q 2934 2500 2703 2247 
Q 2472 1994 1819 1463 
Q 1459 1169 1246 933 
Q 1034 697 941 478 
L 3238 478 
L 3238 0 
L 322 0 
z
" transform="scale(0.015625)"/>
       </defs>
       <use xlink:href="#LiberationSans-32"/>
      </g>
     </g>
    </g>
    <g id="xtick_3">
     <g id="line2d_3">
      <g>
       <use xlink:href="#m34ceaf829a" x="322.928074" y="643.2705" style="stroke: #000000; stroke-width: 0.8"/>
      </g>
     </g>
     <g id="text_3">
      <!-- 4 -->
      <g transform="translate(315.420809 666.337062) scale(0.27 -0.27)">
       <defs>
        <path id="LiberationSans-34" d="M 2753 997 
L 2753 0 
L 2222 0 
L 2222 997 
L 147 997 
L 147 1434 
L 2163 4403 
L 2753 4403 
L 2753 1441 
L 3372 1441 
L 3372 997 
L 2753 997 
z
M 2222 3769 
Q 2216 3750 2134 3603 
Q 2053 3456 2013 3397 
L 884 1734 
L 716 1503 
L 666 1441 
L 2222 1441 
L 2222 3769 
z
" transform="scale(0.015625)"/>
       </defs>
       <use xlink:href="#LiberationSans-34"/>
      </g>
     </g>
    </g>
    <g id="xtick_4">
     <g id="line2d_4">
      <g>
       <use xlink:href="#m34ceaf829a" x="439.787496" y="643.2705" style="stroke: #000000; stroke-width: 0.8"/>
      </g>
     </g>
     <g id="text_4">
      <!-- 6 -->
      <g transform="translate(432.28023 666.337062) scale(0.27 -0.27)">
       <defs>
        <path id="LiberationSans-36" d="M 3278 1441 
Q 3278 744 2900 340 
Q 2522 -63 1856 -63 
Q 1113 -63 719 490 
Q 325 1044 325 2100 
Q 325 3244 734 3856 
Q 1144 4469 1900 4469 
Q 2897 4469 3156 3572 
L 2619 3475 
Q 2453 4013 1894 4013 
Q 1413 4013 1148 3564 
Q 884 3116 884 2266 
Q 1038 2550 1316 2698 
Q 1594 2847 1953 2847 
Q 2563 2847 2920 2465 
Q 3278 2084 3278 1441 
z
M 2706 1416 
Q 2706 1894 2472 2153 
Q 2238 2413 1819 2413 
Q 1425 2413 1183 2183 
Q 941 1953 941 1550 
Q 941 1041 1192 716 
Q 1444 391 1838 391 
Q 2244 391 2475 664 
Q 2706 938 2706 1416 
z
" transform="scale(0.015625)"/>
       </defs>
       <use xlink:href="#LiberationSans-36"/>
      </g>
     </g>
    </g>
    <g id="xtick_5">
     <g id="line2d_5">
      <g>
       <use xlink:href="#m34ceaf829a" x="556.646917" y="643.2705" style="stroke: #000000; stroke-width: 0.8"/>
      </g>
     </g>
     <g id="text_5">
      <!-- 8 -->
      <g transform="translate(549.139652 666.337062) scale(0.27 -0.27)">
       <defs>
        <path id="LiberationSans-38" d="M 3281 1228 
Q 3281 619 2893 278 
Q 2506 -63 1781 -63 
Q 1075 -63 676 271 
Q 278 606 278 1222 
Q 278 1653 525 1947 
Q 772 2241 1156 2303 
L 1156 2316 
Q 797 2400 589 2681 
Q 381 2963 381 3341 
Q 381 3844 757 4156 
Q 1134 4469 1769 4469 
Q 2419 4469 2795 4162 
Q 3172 3856 3172 3334 
Q 3172 2956 2962 2675 
Q 2753 2394 2391 2322 
L 2391 2309 
Q 2813 2241 3047 1952 
Q 3281 1663 3281 1228 
z
M 2588 3303 
Q 2588 4050 1769 4050 
Q 1372 4050 1164 3862 
Q 956 3675 956 3303 
Q 956 2925 1170 2726 
Q 1384 2528 1775 2528 
Q 2172 2528 2380 2711 
Q 2588 2894 2588 3303 
z
M 2697 1281 
Q 2697 1691 2453 1898 
Q 2209 2106 1769 2106 
Q 1341 2106 1100 1882 
Q 859 1659 859 1269 
Q 859 359 1788 359 
Q 2247 359 2472 579 
Q 2697 800 2697 1281 
z
" transform="scale(0.015625)"/>
       </defs>
       <use xlink:href="#LiberationSans-38"/>
      </g>
     </g>
    </g>
    <g id="xtick_6">
     <g id="line2d_6">
      <g>
       <use xlink:href="#m34ceaf829a" x="673.506339" y="643.2705" style="stroke: #000000; stroke-width: 0.8"/>
      </g>
     </g>
     <g id="text_6">
      <!-- 10 -->
      <g transform="translate(658.491808 666.337062) scale(0.27 -0.27)">
       <defs>
        <path id="LiberationSans-31" d="M 488 0 
L 488 478 
L 1609 478 
L 1609 3866 
L 616 3156 
L 616 3688 
L 1656 4403 
L 2175 4403 
L 2175 478 
L 3247 478 
L 3247 0 
L 488 0 
z
" transform="scale(0.015625)"/>
       </defs>
       <use xlink:href="#LiberationSans-31"/>
       <use xlink:href="#LiberationSans-30" x="55.615234"/>
      </g>
     </g>
    </g>
    <g id="xtick_7">
     <g id="line2d_7">
      <defs>
       <path id="m4960c76212" d="M 0 0 
L 0 -2 
" style="stroke: #000000; stroke-width: 0.6"/>
      </defs>
      <g>
       <use xlink:href="#m4960c76212" x="118.424087" y="643.2705" style="stroke: #000000; stroke-width: 0.6"/>
      </g>
     </g>
    </g>
    <g id="xtick_8">
     <g id="line2d_8">
      <g>
       <use xlink:href="#m4960c76212" x="147.638942" y="643.2705" style="stroke: #000000; stroke-width: 0.6"/>
      </g>
     </g>
    </g>
    <g id="xtick_9">
     <g id="line2d_9">
      <g>
       <use xlink:href="#m4960c76212" x="176.853798" y="643.2705" style="stroke: #000000; stroke-width: 0.6"/>
      </g>
     </g>
    </g>
    <g id="xtick_10">
     <g id="line2d_10">
      <g>
       <use xlink:href="#m4960c76212" x="235.283508" y="643.2705" style="stroke: #000000; stroke-width: 0.6"/>
      </g>
     </g>
    </g>
    <g id="xtick_11">
     <g id="line2d_11">
      <g>
       <use xlink:href="#m4960c76212" x="264.498364" y="643.2705" style="stroke: #000000; stroke-width: 0.6"/>
      </g>
     </g>
    </g>
    <g id="xtick_12">
     <g id="line2d_12">
      <g>
       <use xlink:href="#m4960c76212" x="293.713219" y="643.2705" style="stroke: #000000; stroke-width: 0.6"/>
      </g>
     </g>
    </g>
    <g id="xtick_13">
     <g id="line2d_13">
      <g>
       <use xlink:href="#m4960c76212" x="352.14293" y="643.2705" style="stroke: #000000; stroke-width: 0.6"/>
      </g>
     </g>
    </g>
    <g id="xtick_14">
     <g id="line2d_14">
      <g>
       <use xlink:href="#m4960c76212" x="381.357785" y="643.2705" style="stroke: #000000; stroke-width: 0.6"/>
      </g>
     </g>
    </g>
    <g id="xtick_15">
     <g id="line2d_15">
      <g>
       <use xlink:href="#m4960c76212" x="410.572641" y="643.2705" style="stroke: #000000; stroke-width: 0.6"/>
      </g>
     </g>
    </g>
    <g id="xtick_16">
     <g id="line2d_16">
      <g>
       <use xlink:href="#m4960c76212" x="469.002351" y="643.2705" style="stroke: #000000; stroke-width: 0.6"/>
      </g>
     </g>
    </g>
    <g id="xtick_17">
     <g id="line2d_17">
      <g>
       <use xlink:href="#m4960c76212" x="498.217207" y="643.2705" style="stroke: #000000; stroke-width: 0.6"/>
      </g>
     </g>
    </g>
    <g id="xtick_18">
     <g id="line2d_18">
      <g>
       <use xlink:href="#m4960c76212" x="527.432062" y="643.2705" style="stroke: #000000; stroke-width: 0.6"/>
      </g>
     </g>
    </g>
    <g id="xtick_19">
     <g id="line2d_19">
      <g>
       <use xlink:href="#m4960c76212" x="585.861773" y="643.2705" style="stroke: #000000; stroke-width: 0.6"/>
      </g>
     </g>
    </g>
    <g id="xtick_20">
     <g id="line2d_20">
      <g>
       <use xlink:href="#m4960c76212" x="615.076628" y="643.2705" style="stroke: #000000; stroke-width: 0.6"/>
      </g>
     </g>
    </g>
    <g id="xtick_21">
     <g id="line2d_21">
      <g>
       <use xlink:href="#m4960c76212" x="644.291483" y="643.2705" style="stroke: #000000; stroke-width: 0.6"/>
      </g>
     </g>
    </g>
    <g id="text_7">
     <!-- Time ps -->
     <g transform="translate(328.610438 697.680187) scale(0.3 -0.3)">
      <defs>
       <path id="LiberationSans-54" d="M 2250 3916 
L 2250 0 
L 1656 0 
L 1656 3916 
L 144 3916 
L 144 4403 
L 3763 4403 
L 3763 3916 
L 2250 3916 
z
" transform="scale(0.015625)"/>
       <path id="LiberationSans-69" d="M 428 4100 
L 428 4638 
L 991 4638 
L 991 4100 
L 428 4100 
z
M 428 0 
L 428 3381 
L 991 3381 
L 991 0 
L 428 0 
z
" transform="scale(0.015625)"/>
       <path id="LiberationSans-6d" d="M 2400 0 
L 2400 2144 
Q 2400 2634 2265 2821 
Q 2131 3009 1781 3009 
Q 1422 3009 1212 2734 
Q 1003 2459 1003 1959 
L 1003 0 
L 444 0 
L 444 2659 
Q 444 3250 425 3381 
L 956 3381 
Q 959 3366 962 3297 
Q 966 3228 970 3139 
Q 975 3050 981 2803 
L 991 2803 
Q 1172 3163 1406 3303 
Q 1641 3444 1978 3444 
Q 2363 3444 2586 3291 
Q 2809 3138 2897 2803 
L 2906 2803 
Q 3081 3144 3329 3294 
Q 3578 3444 3931 3444 
Q 4444 3444 4676 3166 
Q 4909 2888 4909 2253 
L 4909 0 
L 4353 0 
L 4353 2144 
Q 4353 2634 4218 2821 
Q 4084 3009 3734 3009 
Q 3366 3009 3161 2736 
Q 2956 2463 2956 1959 
L 2956 0 
L 2400 0 
z
" transform="scale(0.015625)"/>
       <path id="LiberationSans-65" d="M 863 1572 
Q 863 991 1103 675 
Q 1344 359 1806 359 
Q 2172 359 2392 506 
Q 2613 653 2691 878 
L 3184 738 
Q 2881 -63 1806 -63 
Q 1056 -63 664 384 
Q 272 831 272 1713 
Q 272 2550 664 2997 
Q 1056 3444 1784 3444 
Q 3275 3444 3275 1647 
L 3275 1572 
L 863 1572 
z
M 2694 2003 
Q 2647 2538 2422 2783 
Q 2197 3028 1775 3028 
Q 1366 3028 1127 2754 
Q 888 2481 869 2003 
L 2694 2003 
z
" transform="scale(0.015625)"/>
       <path id="LiberationSans-20" transform="scale(0.015625)"/>
       <path id="LiberationSans-70" d="M 3291 1706 
Q 3291 -63 2047 -63 
Q 1266 -63 997 525 
L 981 525 
Q 994 500 994 -6 
L 994 -1328 
L 431 -1328 
L 431 2691 
Q 431 3213 413 3381 
L 956 3381 
Q 959 3369 965 3292 
Q 972 3216 980 3056 
Q 988 2897 988 2838 
L 1000 2838 
Q 1150 3150 1397 3295 
Q 1644 3441 2047 3441 
Q 2672 3441 2981 3022 
Q 3291 2603 3291 1706 
z
M 2700 1694 
Q 2700 2400 2509 2703 
Q 2319 3006 1903 3006 
Q 1569 3006 1380 2865 
Q 1191 2725 1092 2426 
Q 994 2128 994 1650 
Q 994 984 1206 668 
Q 1419 353 1897 353 
Q 2316 353 2508 661 
Q 2700 969 2700 1694 
z
" transform="scale(0.015625)"/>
       <path id="LiberationSans-73" d="M 2969 934 
Q 2969 456 2608 196 
Q 2247 -63 1597 -63 
Q 966 -63 623 145 
Q 281 353 178 794 
L 675 891 
Q 747 619 972 492 
Q 1197 366 1597 366 
Q 2025 366 2223 497 
Q 2422 628 2422 891 
Q 2422 1091 2284 1216 
Q 2147 1341 1841 1422 
L 1438 1528 
Q 953 1653 748 1773 
Q 544 1894 428 2066 
Q 313 2238 313 2488 
Q 313 2950 642 3192 
Q 972 3434 1603 3434 
Q 2163 3434 2492 3237 
Q 2822 3041 2909 2606 
L 2403 2544 
Q 2356 2769 2151 2889 
Q 1947 3009 1603 3009 
Q 1222 3009 1040 2893 
Q 859 2778 859 2544 
Q 859 2400 934 2306 
Q 1009 2213 1156 2147 
Q 1303 2081 1775 1966 
Q 2222 1853 2419 1758 
Q 2616 1663 2730 1547 
Q 2844 1431 2906 1279 
Q 2969 1128 2969 934 
z
" transform="scale(0.015625)"/>
      </defs>
      <use xlink:href="#LiberationSans-54"/>
      <use xlink:href="#LiberationSans-69" x="57.333984"/>
      <use xlink:href="#LiberationSans-6d" x="79.550781"/>
      <use xlink:href="#LiberationSans-65" x="162.851562"/>
      <use xlink:href="#LiberationSans-20" x="218.466797"/>
      <use xlink:href="#LiberationSans-70" x="246.25"/>
      <use xlink:href="#LiberationSans-73" x="301.865234"/>
     </g>
    </g>
   </g>
   <g id="matplotlib.axis_2">
    <g id="ytick_1">
     <g id="line2d_22">
      <defs>
       <path id="m672bc48809" d="M 0 0 
L 3.5 0 
" style="stroke: #000000; stroke-width: 0.8"/>
      </defs>
      <g>
       <use xlink:href="#m672bc48809" x="60.12" y="632.485041" style="stroke: #000000; stroke-width: 0.8"/>
      </g>
     </g>
     <g id="text_8">
      <!-- $\mathdefault{0}$ -->
      <g transform="translate(41.5 642.268322) scale(0.27 -0.27)">
       <use xlink:href="#LiberationSans-30" transform="translate(0 0.171875)"/>
      </g>
     </g>
    </g>
    <g id="ytick_2">
     <g id="line2d_23">
      <g>
       <use xlink:href="#m672bc48809" x="60.12" y="499.010606" style="stroke: #000000; stroke-width: 0.8"/>
      </g>
     </g>
     <g id="text_9">
      <!-- $\mathdefault{2}$ -->
      <g transform="translate(41.5 508.793888) scale(0.27 -0.27)">
       <use xlink:href="#LiberationSans-32" transform="translate(0 0.171875)"/>
      </g>
     </g>
    </g>
    <g id="ytick_3">
     <g id="line2d_24">
      <g>
       <use xlink:href="#m672bc48809" x="60.12" y="365.536172" style="stroke: #000000; stroke-width: 0.8"/>
      </g>
     </g>
     <g id="text_10">
      <!-- $\mathdefault{4}$ -->
      <g transform="translate(41.5 375.319453) scale(0.27 -0.27)">
       <use xlink:href="#LiberationSans-34" transform="translate(0 0.203125)"/>
      </g>
     </g>
    </g>
    <g id="ytick_4">
     <g id="line2d_25">
      <g>
       <use xlink:href="#m672bc48809" x="60.12" y="232.061738" style="stroke: #000000; stroke-width: 0.8"/>
      </g>
     </g>
     <g id="text_11">
      <!-- $\mathdefault{6}$ -->
      <g transform="translate(41.5 241.845019) scale(0.27 -0.27)">
       <use xlink:href="#LiberationSans-36" transform="translate(0 0.171875)"/>
      </g>
     </g>
    </g>
    <g id="ytick_5">
     <g id="line2d_26">
      <g>
       <use xlink:href="#m672bc48809" x="60.12" y="98.587304" style="stroke: #000000; stroke-width: 0.8"/>
      </g>
     </g>
     <g id="text_12">
      <!-- $\mathdefault{8}$ -->
      <g transform="translate(41.5 108.370585) scale(0.27 -0.27)">
       <use xlink:href="#LiberationSans-38" transform="translate(0 0.171875)"/>
      </g>
     </g>
    </g>
    <g id="ytick_6">
     <g id="line2d_27">
      <defs>
       <path id="ma51a97e04e" d="M 0 0 
L 2 0 
" style="stroke: #000000; stroke-width: 0.6"/>
      </defs>
      <g>
       <use xlink:href="#ma51a97e04e" x="60.12" y="599.116432" style="stroke: #000000; stroke-width: 0.6"/>
      </g>
     </g>
    </g>
    <g id="ytick_7">
     <g id="line2d_28">
      <g>
       <use xlink:href="#ma51a97e04e" x="60.12" y="565.747824" style="stroke: #000000; stroke-width: 0.6"/>
      </g>
     </g>
    </g>
    <g id="ytick_8">
     <g id="line2d_29">
      <g>
       <use xlink:href="#ma51a97e04e" x="60.12" y="532.379215" style="stroke: #000000; stroke-width: 0.6"/>
      </g>
     </g>
    </g>
    <g id="ytick_9">
     <g id="line2d_30">
      <g>
       <use xlink:href="#ma51a97e04e" x="60.12" y="465.641998" style="stroke: #000000; stroke-width: 0.6"/>
      </g>
     </g>
    </g>
    <g id="ytick_10">
     <g id="line2d_31">
      <g>
       <use xlink:href="#ma51a97e04e" x="60.12" y="432.273389" style="stroke: #000000; stroke-width: 0.6"/>
      </g>
     </g>
    </g>
    <g id="ytick_11">
     <g id="line2d_32">
      <g>
       <use xlink:href="#ma51a97e04e" x="60.12" y="398.904781" style="stroke: #000000; stroke-width: 0.6"/>
      </g>
     </g>
    </g>
    <g id="ytick_12">
     <g id="line2d_33">
      <g>
       <use xlink:href="#ma51a97e04e" x="60.12" y="332.167564" style="stroke: #000000; stroke-width: 0.6"/>
      </g>
     </g>
    </g>
    <g id="ytick_13">
     <g id="line2d_34">
      <g>
       <use xlink:href="#ma51a97e04e" x="60.12" y="298.798955" style="stroke: #000000; stroke-width: 0.6"/>
      </g>
     </g>
    </g>
    <g id="ytick_14">
     <g id="line2d_35">
      <g>
       <use xlink:href="#ma51a97e04e" x="60.12" y="265.430347" style="stroke: #000000; stroke-width: 0.6"/>
      </g>
     </g>
    </g>
    <g id="ytick_15">
     <g id="line2d_36">
      <g>
       <use xlink:href="#ma51a97e04e" x="60.12" y="198.693129" style="stroke: #000000; stroke-width: 0.6"/>
      </g>
     </g>
    </g>
    <g id="ytick_16">
     <g id="line2d_37">
      <g>
       <use xlink:href="#ma51a97e04e" x="60.12" y="165.324521" style="stroke: #000000; stroke-width: 0.6"/>
      </g>
     </g>
    </g>
    <g id="ytick_17">
     <g id="line2d_38">
      <g>
       <use xlink:href="#ma51a97e04e" x="60.12" y="131.955912" style="stroke: #000000; stroke-width: 0.6"/>
      </g>
     </g>
    </g>
    <g id="ytick_18">
     <g id="line2d_39">
      <g>
       <use xlink:href="#ma51a97e04e" x="60.12" y="65.218695" style="stroke: #000000; stroke-width: 0.6"/>
      </g>
     </g>
    </g>
    <g id="text_13">
     <!-- ITC $\mathrm{W} / (\mathrm{K} \cdot \mathrm{m}^2)$ -->
     <g transform="translate(31.275 435.279) rotate(-90) scale(0.3 -0.3)">
      <defs>
       <path id="LiberationSans-49" d="M 591 0 
L 591 4403 
L 1188 4403 
L 1188 0 
L 591 0 
z
" transform="scale(0.015625)"/>
       <path id="LiberationSans-43" d="M 2475 3981 
Q 1744 3981 1337 3511 
Q 931 3041 931 2222 
Q 931 1413 1354 920 
Q 1778 428 2500 428 
Q 3425 428 3891 1344 
L 4378 1100 
Q 4106 531 3614 234 
Q 3122 -63 2472 -63 
Q 1806 -63 1320 214 
Q 834 491 579 1005 
Q 325 1519 325 2222 
Q 325 3275 894 3872 
Q 1463 4469 2469 4469 
Q 3172 4469 3644 4194 
Q 4116 3919 4338 3378 
L 3772 3191 
Q 3619 3575 3280 3778 
Q 2941 3981 2475 3981 
z
" transform="scale(0.015625)"/>
       <path id="STIXGeneral-Regular-57" d="M 5965 4237 
L 5965 4115 
Q 5709 4064 5616 3990 
Q 5523 3917 5434 3667 
Q 4704 1709 4128 -70 
L 4032 -70 
Q 3642 1011 3008 2637 
L 2022 -70 
L 1926 -70 
Q 1709 576 1277 1753 
Q 845 2931 698 3347 
Q 538 3808 406 3958 
Q 275 4109 32 4115 
L 32 4237 
L 1594 4237 
L 1594 4115 
Q 1357 4109 1270 4064 
Q 1184 4019 1184 3917 
Q 1184 3808 1254 3616 
L 2176 1210 
L 2842 3021 
L 2662 3501 
Q 2509 3917 2400 4013 
Q 2291 4109 2010 4115 
L 2010 4237 
L 3706 4237 
L 3706 4115 
Q 3213 4102 3213 3891 
Q 3213 3808 3322 3520 
L 4237 1190 
L 5043 3360 
Q 5152 3667 5152 3853 
Q 5152 4109 4704 4115 
L 4704 4237 
L 5965 4237 
z
" transform="scale(0.015625)"/>
       <path id="STIXGeneral-Regular-2f" d="M 1837 4326 
L 378 -90 
L -58 -90 
L 1408 4326 
L 1837 4326 
z
" transform="scale(0.015625)"/>
       <path id="STIXGeneral-Regular-28" d="M 1946 -1030 
L 1869 -1133 
Q 1126 -710 716 32 
Q 307 774 307 1613 
Q 307 3386 1888 4326 
L 1946 4224 
Q 1293 3667 1075 3126 
Q 858 2586 858 1632 
Q 858 685 1082 96 
Q 1306 -493 1946 -1030 
z
" transform="scale(0.015625)"/>
       <path id="STIXGeneral-Regular-4b" d="M 4627 0 
L 2688 0 
L 2688 122 
L 2861 128 
Q 3130 134 3130 282 
Q 3130 397 2922 643 
Q 2714 890 2253 1370 
L 1613 2029 
L 1446 1894 
L 1446 710 
Q 1446 352 1548 253 
Q 1651 154 2016 122 
L 2016 0 
L 211 0 
L 211 122 
Q 589 141 691 262 
Q 794 384 794 800 
L 794 3514 
Q 794 3872 691 3981 
Q 589 4090 218 4115 
L 218 4237 
L 2022 4237 
L 2022 4115 
Q 1632 4090 1539 3987 
Q 1446 3885 1446 3507 
L 1446 2227 
L 2586 3277 
Q 2861 3533 2973 3667 
Q 3085 3802 3085 3910 
Q 3085 4013 3030 4057 
Q 2976 4102 2822 4109 
L 2662 4115 
L 2662 4237 
L 4320 4237 
L 4320 4115 
Q 3994 4090 3824 4003 
Q 3654 3917 3322 3597 
L 2131 2458 
L 3629 819 
Q 4026 384 4214 253 
Q 4403 122 4627 122 
L 4627 0 
z
" transform="scale(0.015625)"/>
       <path id="STIXGeneral-Regular-22c5" d="M 1187 1888 
Q 1299 1773 1299 1619 
Q 1299 1466 1187 1350 
Q 1075 1235 921 1235 
Q 768 1235 649 1353 
Q 531 1472 531 1619 
Q 531 1766 649 1884 
Q 768 2003 921 2003 
Q 1075 2003 1187 1888 
z
" transform="scale(0.015625)"/>
       <path id="STIXGeneral-Regular-6d" d="M 4960 0 
L 3565 0 
L 3565 96 
Q 3834 122 3907 208 
Q 3981 294 3981 576 
L 3981 1894 
Q 3981 2278 3869 2444 
Q 3757 2611 3488 2611 
Q 3264 2611 3107 2521 
Q 2950 2432 2803 2221 
L 2803 608 
Q 2803 301 2896 201 
Q 2989 102 3264 96 
L 3264 0 
L 1830 0 
L 1830 96 
Q 2112 115 2189 188 
Q 2266 262 2266 550 
L 2266 1901 
Q 2266 2611 1850 2611 
Q 1670 2611 1468 2531 
Q 1267 2451 1171 2336 
Q 1088 2240 1088 2227 
L 1088 448 
Q 1088 243 1177 176 
Q 1267 109 1523 96 
L 1523 0 
L 102 0 
L 102 96 
Q 371 102 460 195 
Q 550 288 550 563 
L 550 2150 
Q 550 2387 499 2480 
Q 448 2573 326 2573 
Q 230 2573 122 2547 
L 122 2656 
Q 557 2778 1011 2944 
L 1062 2925 
L 1062 2451 
L 1075 2451 
Q 1363 2752 1584 2848 
Q 1805 2944 2054 2944 
Q 2560 2944 2733 2406 
Q 3232 2944 3776 2944 
Q 4518 2944 4518 1792 
L 4518 493 
Q 4518 282 4582 202 
Q 4646 122 4794 109 
L 4960 96 
L 4960 0 
z
" transform="scale(0.015625)"/>
       <path id="STIXGeneral-Regular-32" d="M 3034 877 
L 2688 0 
L 186 0 
L 186 77 
L 1325 1286 
Q 1773 1754 1965 2144 
Q 2157 2534 2157 2950 
Q 2157 3379 1920 3616 
Q 1683 3853 1267 3853 
Q 922 3853 720 3673 
Q 518 3494 326 3021 
L 192 3053 
Q 301 3648 630 3987 
Q 960 4326 1523 4326 
Q 2054 4326 2380 4006 
Q 2707 3686 2707 3200 
Q 2707 2477 1888 1613 
L 832 486 
L 2330 486 
Q 2541 486 2665 569 
Q 2790 653 2944 915 
L 3034 877 
z
" transform="scale(0.015625)"/>
       <path id="STIXGeneral-Regular-29" d="M 186 4224 
L 262 4326 
Q 992 3891 1408 3148 
Q 1824 2406 1824 1581 
Q 1824 -166 243 -1133 
L 186 -1030 
Q 845 -486 1059 54 
Q 1274 595 1274 1562 
Q 1274 2534 1059 3120 
Q 845 3706 186 4224 
z
" transform="scale(0.015625)"/>
      </defs>
      <use xlink:href="#LiberationSans-49" transform="translate(0 0.409375)"/>
      <use xlink:href="#LiberationSans-54" transform="translate(27.783203 0.409375)"/>
      <use xlink:href="#LiberationSans-43" transform="translate(88.867188 0.409375)"/>
      <use xlink:href="#LiberationSans-20" transform="translate(161.083984 0.409375)"/>
      <use xlink:href="#STIXGeneral-Regular-57" transform="translate(188.867188 0.409375)"/>
      <use xlink:href="#STIXGeneral-Regular-2f" transform="translate(283.267181 0.409375)"/>
      <use xlink:href="#STIXGeneral-Regular-28" transform="translate(311.067169 0.409375)"/>
      <use xlink:href="#STIXGeneral-Regular-4b" transform="translate(344.367157 0.409375)"/>
      <use xlink:href="#STIXGeneral-Regular-22c5" transform="translate(431.007135 0.409375)"/>
      <use xlink:href="#STIXGeneral-Regular-6d" transform="translate(474.047122 0.409375)"/>
      <use xlink:href="#STIXGeneral-Regular-32" transform="translate(553.390391 35.684375) scale(0.7)"/>
      <use xlink:href="#STIXGeneral-Regular-29" transform="translate(592.799756 0.409375)"/>
     </g>
    </g>
    <g id="text_14">
     <!-- $\times\mathdefault{10^{6}}\mathdefault{}$ -->
     <g transform="translate(60.12 36.1875) scale(0.4 -0.4)">
      <defs>
       <path id="STIXGeneral-Regular-d7" d="M 3821 141 
L 3526 -160 
L 2048 1312 
L 570 -160 
L 275 134 
L 1747 1613 
L 275 3091 
L 576 3386 
L 2048 1914 
L 3526 3386 
L 3821 3098 
L 2349 1613 
L 3821 141 
z
" transform="scale(0.015625)"/>
      </defs>
      <use xlink:href="#STIXGeneral-Regular-d7" transform="translate(0 0.140625)"/>
      <use xlink:href="#LiberationSans-31" transform="translate(63.999985 0.140625)"/>
      <use xlink:href="#LiberationSans-30" transform="translate(119.615219 0.140625)"/>
      <use xlink:href="#LiberationSans-36" transform="translate(176.154946 37.120312) scale(0.7)"/>
     </g>
    </g>
   </g>
   <g id="line2d_40">
    <path d="M 89.326091 615.812182 
L 90.553115 298.126933 
L 91.254271 169.612949 
L 91.780139 107.033608 
L 92.189147 78.741414 
L 92.539725 67.841612 
L 92.715014 66.645818 
L 92.831874 67.307918 
L 93.007163 70.349646 
L 93.299311 80.383792 
L 93.708319 103.193555 
L 94.351046 153.56269 
L 97.330961 407.199858 
L 98.207407 455.078552 
L 98.966993 485.121282 
L 99.60972 502.657657 
L 100.135587 511.924803 
L 100.603025 516.578502 
L 100.895174 517.892319 
L 101.070463 518.128165 
L 101.187322 518.065118 
L 101.362611 517.654818 
L 101.65476 516.177594 
L 102.063768 512.612111 
L 102.589635 505.876707 
L 103.407651 492.003476 
L 105.803269 449.222999 
L 106.562856 440.209452 
L 107.147153 435.652302 
L 107.61459 433.598268 
L 107.906739 433.054375 
L 108.140458 433.028502 
L 108.374177 433.352734 
L 108.666325 434.230167 
L 109.075333 436.305414 
L 109.601201 440.278483 
L 110.360787 447.991403 
L 112.990124 476.658735 
L 113.632851 480.79712 
L 114.158718 482.988482 
L 114.626156 484.1325 
L 115.035164 484.630604 
L 115.444172 484.779793 
L 115.911609 484.682102 
L 116.729625 484.21528 
L 117.664501 483.436601 
L 118.365657 482.594204 
L 119.125243 481.300525 
L 120.469127 478.410868 
L 121.345572 476.807745 
L 121.87144 476.283217 
L 122.280448 476.172834 
L 122.631026 476.289574 
L 123.040034 476.681512 
L 123.565901 477.529709 
L 124.383917 479.346527 
L 125.610941 482.031791 
L 126.253668 482.937982 
L 126.779535 483.335739 
L 127.246973 483.406772 
L 127.772841 483.224654 
L 128.415567 482.743225 
L 129.292013 481.782566 
L 130.343748 480.26234 
L 131.103334 478.79077 
L 132.155069 476.228733 
L 134.492257 470.318025 
L 135.134984 469.331078 
L 135.602422 468.952767 
L 136.01143 468.887227 
L 136.420438 469.058472 
L 136.946305 469.571975 
L 137.705891 470.710799 
L 140.335228 474.984639 
L 141.562252 476.303403 
L 142.847706 477.759628 
L 144.250019 479.314138 
L 144.892746 479.740615 
L 145.360184 479.818924 
L 145.827621 479.672314 
L 146.353489 479.261666 
L 147.054645 478.397704 
L 148.982826 475.83063 
L 149.567123 475.468222 
L 150.09299 475.397063 
L 150.618857 475.557681 
L 151.261584 476.004431 
L 153.423484 477.721861 
L 154.007781 477.811745 
L 154.592078 477.664667 
L 155.234805 477.256733 
L 156.22811 476.301531 
L 157.396704 475.23913 
L 158.09786 474.899405 
L 158.682158 474.864503 
L 159.266455 475.066694 
L 159.909181 475.535634 
L 160.844057 476.537026 
L 162.480089 478.3095 
L 163.239675 478.791912 
L 163.882402 478.937505 
L 164.525129 478.836285 
L 165.226285 478.491459 
L 166.33645 477.652984 
L 168.2062 476.23895 
L 169.199505 475.777849 
L 170.192811 475.56374 
L 171.302975 475.55641 
L 172.646858 475.78031 
L 173.815453 476.184499 
L 175.217766 476.937201 
L 176.736938 477.734219 
L 177.496524 477.884599 
L 178.256111 477.799687 
L 179.132556 477.457566 
L 180.534869 476.908653 
L 181.236026 476.898782 
L 181.878753 477.128196 
L 182.638339 477.660785 
L 184.683379 479.274206 
L 185.267676 479.387527 
L 185.793543 479.273836 
L 186.37784 478.92027 
L 187.195856 478.134037 
L 188.773459 476.578418 
L 189.416185 476.275962 
L 189.942053 476.264632 
L 190.46792 476.48118 
L 191.110647 477.022557 
L 191.987093 478.102486 
L 193.739984 480.325863 
L 194.382711 480.794739 
L 194.908578 480.942475 
L 195.434446 480.857631 
L 195.960313 480.540924 
L 196.60304 479.880408 
L 197.537915 478.556117 
L 199.115517 476.296742 
L 199.816674 475.660062 
L 200.400971 475.390684 
L 200.985268 475.364774 
L 201.627995 475.577604 
L 202.855019 476.311155 
L 203.673035 476.656901 
L 204.257332 476.683032 
L 204.841629 476.485325 
L 205.542786 475.978813 
L 207.879974 473.992501 
L 208.464271 473.917622 
L 208.990138 474.072628 
L 209.632865 474.522618 
L 210.62617 475.552926 
L 211.794765 476.699249 
L 212.495921 477.079568 
L 213.080218 477.15354 
L 213.664515 477.007067 
L 214.365672 476.585241 
L 217.520876 474.341531 
L 218.338892 474.18282 
L 219.156908 474.253481 
L 220.033354 474.554542 
L 221.143518 475.194517 
L 223.305418 476.495304 
L 224.415582 476.857333 
L 225.759465 477.034457 
L 227.687646 477.320755 
L 230.024834 477.768966 
L 230.84285 477.647868 
L 231.777726 477.27596 
L 233.647476 476.473998 
L 234.465492 476.415065 
L 235.341938 476.59202 
L 238.146564 477.361063 
L 239.607307 477.299523 
L 240.834331 477.34363 
L 241.944495 477.621482 
L 244.807551 478.484387 
L 246.326724 478.566432 
L 247.962756 478.717969 
L 249.306639 479.086942 
L 251.643827 479.757648 
L 252.520273 479.768282 
L 253.279859 479.566769 
L 254.039445 479.138975 
L 254.915891 478.369126 
L 257.545228 475.805293 
L 258.129525 475.660038 
L 258.655393 475.762323 
L 259.23969 476.13533 
L 259.940846 476.88148 
L 262.044316 479.340688 
L 262.570183 479.550024 
L 263.037621 479.503452 
L 263.505059 479.232421 
L 264.089356 478.604045 
L 264.907372 477.327836 
L 266.309685 475.14202 
L 267.010841 474.445928 
L 267.595138 474.143576 
L 268.237865 474.067331 
L 269.114311 474.225723 
L 270.399764 474.463447 
L 271.159351 474.368286 
L 271.918937 474.040044 
L 272.853812 473.358 
L 275.42472 471.303141 
L 276.242736 471.006466 
L 276.943892 470.984361 
L 277.645049 471.184857 
L 278.463065 471.660276 
L 279.806948 472.75731 
L 281.033972 473.644804 
L 281.793558 473.942487 
L 282.553144 473.997345 
L 283.37116 473.822194 
L 286.467935 472.874855 
L 287.636529 472.964071 
L 292.895203 473.823006 
L 296.167267 474.997418 
L 297.219002 475.002762 
L 298.621315 474.74976 
L 301.65966 474.19728 
L 302.886684 474.223006 
L 303.996848 474.466398 
L 305.107013 474.935601 
L 306.859904 475.968584 
L 308.086928 476.571063 
L 308.963374 476.748562 
L 309.839819 476.687719 
L 310.949984 476.356941 
L 313.111883 475.656423 
L 313.988329 475.629802 
L 314.747915 475.811221 
L 315.449071 476.191797 
L 316.208658 476.874947 
L 317.143533 478.052721 
L 319.247003 480.873427 
L 319.77287 481.201514 
L 320.240308 481.233014 
L 320.649316 481.028339 
L 321.116753 480.522577 
L 321.70105 479.506728 
L 322.460637 477.682816 
L 324.622536 472.158655 
L 325.265263 471.219346 
L 325.79113 470.813214 
L 326.258568 470.717495 
L 326.784435 470.863305 
L 327.427162 471.31243 
L 328.829475 472.690292 
L 329.88121 473.539235 
L 330.640796 473.891385 
L 331.400382 473.993079 
L 332.218398 473.864534 
L 333.270133 473.445624 
L 335.782611 472.339008 
L 336.600627 472.265378 
L 337.418643 472.422407 
L 338.295088 472.836877 
L 341.450293 474.60975 
L 342.209879 474.637526 
L 343.144754 474.434917 
L 346.825826 473.367754 
L 348.11128 473.331363 
L 349.338304 473.510712 
L 350.682187 473.94766 
L 355.239704 475.938078 
L 356.23301 476.629966 
L 357.226315 477.606619 
L 359.271354 479.69764 
L 359.972511 480.053601 
L 360.556808 480.118103 
L 361.141105 479.96628 
L 361.842262 479.533773 
L 362.835567 478.617443 
L 364.530028 477.057925 
L 365.348044 476.59691 
L 366.107631 476.424751 
L 366.808787 476.48586 
L 367.626803 476.786183 
L 368.736968 477.457223 
L 370.665148 478.639547 
L 371.658453 478.948059 
L 372.768618 479.048114 
L 374.22936 479.182919 
L 375.164236 479.518382 
L 377.910432 480.717389 
L 378.494729 480.609126 
L 379.079026 480.256247 
L 379.721753 479.589145 
L 380.598199 478.301597 
L 382.46795 475.427 
L 383.169106 474.811692 
L 383.753403 474.591366 
L 384.279271 474.615131 
L 384.921997 474.885159 
L 385.915303 475.59891 
L 387.142327 476.435542 
L 387.901913 476.694703 
L 388.603069 476.706045 
L 389.362656 476.4973 
L 391.641414 475.700997 
L 392.342571 475.768668 
L 393.043727 476.057863 
L 393.920173 476.671276 
L 396.198932 478.381703 
L 396.958518 478.637891 
L 397.659674 478.658833 
L 398.419261 478.45454 
L 399.412566 477.927195 
L 401.632895 476.665308 
L 402.392481 476.518757 
L 403.152067 476.605228 
L 404.028513 476.948365 
L 406.54099 478.06808 
L 407.709585 478.236245 
L 410.923219 478.344116 
L 412.150243 478.194135 
L 413.844704 477.688444 
L 414.896439 477.524149 
L 415.772885 477.618938 
L 416.883049 477.99597 
L 418.81123 478.693796 
L 419.746105 478.768767 
L 420.79784 478.624321 
L 422.609161 478.341584 
L 423.368747 478.463662 
L 424.186763 478.829045 
L 425.881225 479.940702 
L 426.8161 480.380262 
L 427.517257 480.485955 
L 428.218413 480.36924 
L 428.977999 480.011317 
L 430.029734 479.240869 
L 431.724196 477.998351 
L 432.483782 477.713157 
L 433.126509 477.692516 
L 433.827665 477.897647 
L 434.704111 478.412852 
L 436.398573 479.46342 
L 437.041299 479.569278 
L 437.625597 479.419589 
L 438.209894 479.029611 
L 438.96948 478.219422 
L 441.657247 475.011444 
L 442.299973 474.715677 
L 442.9427 474.669709 
L 443.702286 474.859777 
L 445.688897 475.503329 
L 446.331623 475.405096 
L 446.97435 475.07322 
L 447.733937 474.407375 
L 450.480133 471.681002 
L 451.12286 471.452245 
L 451.765587 471.448969 
L 452.466743 471.667723 
L 453.518478 472.27003 
L 455.15451 473.189739 
L 456.089385 473.449369 
L 457.024261 473.4638 
L 458.485003 473.204739 
L 459.653598 473.076969 
L 460.588473 473.208771 
L 461.581778 473.59108 
L 465.14599 475.232583 
L 466.548303 475.400097 
L 472.741853 475.614921 
L 474.670033 475.601079 
L 476.247635 475.824716 
L 479.34441 476.59542 
L 480.863583 477.134176 
L 482.032177 477.784377 
L 483.200771 478.70544 
L 486.122256 481.16261 
L 486.823413 481.389157 
L 487.46614 481.364877 
L 488.108867 481.11978 
L 488.926883 480.551686 
L 490.913493 479.032057 
L 491.55622 478.888044 
L 492.140517 478.985931 
L 492.783244 479.325574 
L 493.834978 480.194954 
L 494.828283 480.933252 
L 495.47101 481.144805 
L 495.996878 481.085327 
L 496.522745 480.798519 
L 497.165472 480.152769 
L 498.041917 478.888901 
L 499.736379 476.368246 
L 500.495965 475.658385 
L 501.138692 475.360418 
L 501.722989 475.330089 
L 502.424146 475.531969 
L 503.709599 476.210019 
L 504.761334 476.645903 
L 505.57935 476.755418 
L 506.455796 476.643819 
L 508.150257 476.377583 
L 508.909844 476.511766 
L 509.66943 476.879972 
L 510.604305 477.605695 
L 512.824634 479.451355 
L 513.525791 479.707643 
L 514.168518 479.716018 
L 514.811244 479.498715 
L 515.570831 478.988132 
L 517.090003 477.595993 
L 518.024879 476.92316 
L 518.726035 476.690969 
L 519.368762 476.721663 
L 520.069918 477.006921 
L 520.946364 477.633899 
L 523.283553 479.411286 
L 524.685866 480.060199 
L 527.548921 481.114734 
L 528.308508 481.114837 
L 529.009664 480.888092 
L 529.76925 480.384784 
L 530.996274 479.234502 
L 532.164869 478.236266 
L 532.924455 477.864733 
L 533.684041 477.747475 
L 534.502057 477.858648 
L 535.787511 478.302461 
L 538.00784 479.307339 
L 539.293293 480.168885 
L 541.630482 481.811212 
L 542.390068 482.025672 
L 543.091224 481.9885 
L 543.850811 481.706306 
L 544.785686 481.088428 
L 547.473453 479.139529 
L 548.11618 478.996296 
L 548.700477 479.090048 
L 549.226344 479.391667 
L 549.810641 479.980159 
L 550.570227 481.079496 
L 552.848986 484.666796 
L 553.374854 485.007246 
L 553.783862 485.039161 
L 554.192869 484.850497 
L 554.660307 484.367504 
L 555.244604 483.395924 
L 556.06262 481.511662 
L 557.990801 476.812847 
L 558.633528 475.874618 
L 559.159395 475.447382 
L 559.626833 475.315951 
L 560.1527 475.410626 
L 560.795427 475.776992 
L 563.424764 477.563358 
L 564.18435 477.665709 
L 565.002366 477.535312 
L 568.741867 476.600471 
L 570.31947 476.677566 
L 572.831947 476.780342 
L 574.29269 476.890731 
L 575.227565 477.182099 
L 576.162441 477.708804 
L 577.331035 478.650453 
L 579.200786 480.166827 
L 579.960372 480.495422 
L 580.661528 480.566654 
L 581.421115 480.405941 
L 582.472849 479.914959 
L 584.40103 479.012757 
L 585.452765 478.794152 
L 586.5045 478.807459 
L 587.614664 479.056882 
L 588.900118 479.589285 
L 590.594579 480.570545 
L 592.581189 481.712677 
L 593.574495 482.011369 
L 594.45094 482.039575 
L 595.561105 481.823431 
L 597.197137 481.496462 
L 597.956723 481.594165 
L 598.657879 481.914846 
L 599.475895 482.563975 
L 602.222092 485.02455 
L 602.806389 485.171124 
L 603.390686 485.087517 
L 603.974983 484.776941 
L 604.67614 484.147553 
L 606.020023 482.544948 
L 607.071758 481.454432 
L 607.772914 481.030382 
L 608.357211 480.921654 
L 608.941508 481.028933 
L 609.642665 481.395031 
L 610.928119 482.395919 
L 611.862994 482.979805 
L 612.447291 483.116223 
L 612.973158 483.029788 
L 613.557456 482.686661 
L 614.200182 482.030256 
L 615.135058 480.700199 
L 616.537371 478.709309 
L 617.296957 478.004357 
L 617.939684 477.69968 
L 618.523981 477.656818 
L 619.225138 477.84597 
L 620.276872 478.419228 
L 621.562326 479.076483 
L 622.380342 479.241299 
L 623.081498 479.161531 
L 623.899514 478.838953 
L 625.418687 477.934607 
L 626.704141 477.266565 
L 627.580586 477.045069 
L 628.398602 477.056092 
L 629.450337 477.317695 
L 631.436947 478.111915 
L 634.183143 479.346933 
L 635.293308 480.147048 
L 638.448512 482.617921 
L 639.383388 482.945669 
L 640.376693 483.04065 
L 647.621977 483.074292 
L 648.615282 483.435255 
L 649.550157 484.020149 
L 652.296354 485.952482 
L 652.99751 486.062962 
L 653.640237 485.928896 
L 654.341394 485.538379 
L 655.334699 484.679626 
L 656.853871 483.357711 
L 657.555028 483.044145 
L 658.197755 483.001039 
L 658.840481 483.176303 
L 659.658497 483.654232 
L 660.885521 484.679575 
L 662.813702 486.255891 
L 663.865437 486.831898 
L 664.917171 487.162793 
L 669.357829 488.040737 
L 670.000556 487.889743 
L 670.584853 487.527172 
L 671.16915 486.898198 
L 671.870307 485.780878 
L 672.746753 483.914982 
L 673.447909 482.204424 
L 673.447909 482.204424 
" clip-path="url(#pffd9cef731)" style="fill: none; stroke: #0000ff; stroke-width: 1.5; stroke-linecap: square"/>
   </g>
   <g id="patch_3">
    <path d="M 60.12 643.2705 
L 60.12 39.1875 
" style="fill: none; stroke: #000000; stroke-width: 0.8; stroke-linejoin: miter; stroke-linecap: square"/>
   </g>
   <g id="patch_4">
    <path d="M 702.654 643.2705 
L 702.654 39.1875 
" style="fill: none; stroke: #000000; stroke-width: 0.8; stroke-linejoin: miter; stroke-linecap: square"/>
   </g>
   <g id="patch_5">
    <path d="M 60.12 643.2705 
L 702.654 643.2705 
" style="fill: none; stroke: #000000; stroke-width: 0.8; stroke-linejoin: miter; stroke-linecap: square"/>
   </g>
   <g id="patch_6">
    <path d="M 60.12 39.1875 
L 702.654 39.1875 
" style="fill: none; stroke: #000000; stroke-width: 0.8; stroke-linejoin: miter; stroke-linecap: square"/>
   </g>
  </g>
 </g>
 <defs>
  <clipPath id="pffd9cef731">
   <rect x="60.12" y="39.1875" width="642.534" height="604.083"/>
  </clipPath>
 </defs>
</svg>
