<?xml version="1.0" encoding="utf-8" standalone="no"?>
<!DOCTYPE svg PUBLIC "-//W3C//DTD SVG 1.1//EN"
  "http://www.w3.org/Graphics/SVG/1.1/DTD/svg11.dtd">
<svg xmlns:xlink="http://www.w3.org/1999/xlink" width="710.119488pt" height="710.94975pt" viewBox="0 0 710.119488 710.94975" xmlns="http://www.w3.org/2000/svg" version="1.1">
 <metadata>
  <rdf:RDF xmlns:dc="http://purl.org/dc/elements/1.1/" xmlns:cc="http://creativecommons.org/ns#" xmlns:rdf="http://www.w3.org/1999/02/22-rdf-syntax-ns#">
   <cc:Work>
    <dc:type rdf:resource="http://purl.org/dc/dcmitype/StillImage"/>
    <dc:date>2025-02-06T00:40:34.952451</dc:date>
    <dc:format>image/svg+xml</dc:format>
    <dc:creator>
     <cc:Agent>
      <dc:title>Matplotlib v3.9.3, https://matplotlib.org/</dc:title>
     </cc:Agent>
    </dc:creator>
   </cc:Work>
  </rdf:RDF>
 </metadata>
 <defs>
  <style type="text/css">*{stroke-linejoin: round; stroke-linecap: butt}</style>
 </defs>
 <g id="figure_1">
  <g id="patch_1">
   <path d="M 0 710.94975 
L 710.119488 710.94975 
L 710.119488 0 
L 0 0 
z
" style="fill: #ffffff"/>
  </g>
  <g id="axes_1">
   <g id="patch_2">
    <path d="M 87 640.3185 
L 702.919488 640.3185 
L 702.919488 39.1875 
L 87 39.1875 
z
" style="fill: #ffffff"/>
   </g>
   <g id="matplotlib.axis_1">
    <g id="xtick_1">
     <g id="line2d_1">
      <defs>
       <path id="mad5736ece8" d="M 0 0 
L 0 -3.5 
" style="stroke: #000000; stroke-width: 0.8"/>
      </defs>
      <g>
       <use xlink:href="#mad5736ece8" x="114.884321" y="640.3185" style="stroke: #000000; stroke-width: 0.8"/>
      </g>
     </g>
     <g id="text_1">
      <!-- 0 -->
      <g transform="translate(106.542915 665.559125) scale(0.3 -0.3)">
       <defs>
        <path id="LiberationSans-30" d="M 3309 2203 
Q 3309 1100 2920 518 
Q 2531 -63 1772 -63 
Q 1013 -63 631 515 
Q 250 1094 250 2203 
Q 250 3338 620 3903 
Q 991 4469 1791 4469 
Q 2569 4469 2939 3897 
Q 3309 3325 3309 2203 
z
M 2738 2203 
Q 2738 3156 2517 3584 
Q 2297 4013 1791 4013 
Q 1272 4013 1045 3591 
Q 819 3169 819 2203 
Q 819 1266 1048 831 
Q 1278 397 1778 397 
Q 2275 397 2506 840 
Q 2738 1284 2738 2203 
z
" transform="scale(0.015625)"/>
       </defs>
       <use xlink:href="#LiberationSans-30"/>
      </g>
     </g>
    </g>
    <g id="xtick_2">
     <g id="line2d_2">
      <g>
       <use xlink:href="#mad5736ece8" x="226.903289" y="640.3185" style="stroke: #000000; stroke-width: 0.8"/>
      </g>
     </g>
     <g id="text_2">
      <!-- 2 -->
      <g transform="translate(218.561882 665.559125) scale(0.3 -0.3)">
       <defs>
        <path id="LiberationSans-32" d="M 322 0 
L 322 397 
Q 481 763 711 1042 
Q 941 1322 1194 1548 
Q 1447 1775 1695 1969 
Q 1944 2163 2144 2356 
Q 2344 2550 2467 2762 
Q 2591 2975 2591 3244 
Q 2591 3606 2378 3806 
Q 2166 4006 1788 4006 
Q 1428 4006 1195 3811 
Q 963 3616 922 3263 
L 347 3316 
Q 409 3844 795 4156 
Q 1181 4469 1788 4469 
Q 2453 4469 2811 4155 
Q 3169 3841 3169 3263 
Q 3169 3006 3051 2753 
Q 2934 2500 2703 2247 
Q 2472 1994 1819 1463 
Q 1459 1169 1246 933 
Q 1034 697 941 478 
L 3238 478 
L 3238 0 
L 322 0 
z
" transform="scale(0.015625)"/>
       </defs>
       <use xlink:href="#LiberationSans-32"/>
      </g>
     </g>
    </g>
    <g id="xtick_3">
     <g id="line2d_3">
      <g>
       <use xlink:href="#mad5736ece8" x="338.922256" y="640.3185" style="stroke: #000000; stroke-width: 0.8"/>
      </g>
     </g>
     <g id="text_3">
      <!-- 4 -->
      <g transform="translate(330.58085 665.559125) scale(0.3 -0.3)">
       <defs>
        <path id="LiberationSans-34" d="M 2753 997 
L 2753 0 
L 2222 0 
L 2222 997 
L 147 997 
L 147 1434 
L 2163 4403 
L 2753 4403 
L 2753 1441 
L 3372 1441 
L 3372 997 
L 2753 997 
z
M 2222 3769 
Q 2216 3750 2134 3603 
Q 2053 3456 2013 3397 
L 884 1734 
L 716 1503 
L 666 1441 
L 2222 1441 
L 2222 3769 
z
" transform="scale(0.015625)"/>
       </defs>
       <use xlink:href="#LiberationSans-34"/>
      </g>
     </g>
    </g>
    <g id="xtick_4">
     <g id="line2d_4">
      <g>
       <use xlink:href="#mad5736ece8" x="450.941223" y="640.3185" style="stroke: #000000; stroke-width: 0.8"/>
      </g>
     </g>
     <g id="text_4">
      <!-- 6 -->
      <g transform="translate(442.599817 665.559125) scale(0.3 -0.3)">
       <defs>
        <path id="LiberationSans-36" d="M 3278 1441 
Q 3278 744 2900 340 
Q 2522 -63 1856 -63 
Q 1113 -63 719 490 
Q 325 1044 325 2100 
Q 325 3244 734 3856 
Q 1144 4469 1900 4469 
Q 2897 4469 3156 3572 
L 2619 3475 
Q 2453 4013 1894 4013 
Q 1413 4013 1148 3564 
Q 884 3116 884 2266 
Q 1038 2550 1316 2698 
Q 1594 2847 1953 2847 
Q 2563 2847 2920 2465 
Q 3278 2084 3278 1441 
z
M 2706 1416 
Q 2706 1894 2472 2153 
Q 2238 2413 1819 2413 
Q 1425 2413 1183 2183 
Q 941 1953 941 1550 
Q 941 1041 1192 716 
Q 1444 391 1838 391 
Q 2244 391 2475 664 
Q 2706 938 2706 1416 
z
" transform="scale(0.015625)"/>
       </defs>
       <use xlink:href="#LiberationSans-36"/>
      </g>
     </g>
    </g>
    <g id="xtick_5">
     <g id="line2d_5">
      <g>
       <use xlink:href="#mad5736ece8" x="562.96019" y="640.3185" style="stroke: #000000; stroke-width: 0.8"/>
      </g>
     </g>
     <g id="text_5">
      <!-- 8 -->
      <g transform="translate(554.618784 665.559125) scale(0.3 -0.3)">
       <defs>
        <path id="LiberationSans-38" d="M 3281 1228 
Q 3281 619 2893 278 
Q 2506 -63 1781 -63 
Q 1075 -63 676 271 
Q 278 606 278 1222 
Q 278 1653 525 1947 
Q 772 2241 1156 2303 
L 1156 2316 
Q 797 2400 589 2681 
Q 381 2963 381 3341 
Q 381 3844 757 4156 
Q 1134 4469 1769 4469 
Q 2419 4469 2795 4162 
Q 3172 3856 3172 3334 
Q 3172 2956 2962 2675 
Q 2753 2394 2391 2322 
L 2391 2309 
Q 2813 2241 3047 1952 
Q 3281 1663 3281 1228 
z
M 2588 3303 
Q 2588 4050 1769 4050 
Q 1372 4050 1164 3862 
Q 956 3675 956 3303 
Q 956 2925 1170 2726 
Q 1384 2528 1775 2528 
Q 2172 2528 2380 2711 
Q 2588 2894 2588 3303 
z
M 2697 1281 
Q 2697 1691 2453 1898 
Q 2209 2106 1769 2106 
Q 1341 2106 1100 1882 
Q 859 1659 859 1269 
Q 859 359 1788 359 
Q 2247 359 2472 579 
Q 2697 800 2697 1281 
z
" transform="scale(0.015625)"/>
       </defs>
       <use xlink:href="#LiberationSans-38"/>
      </g>
     </g>
    </g>
    <g id="xtick_6">
     <g id="line2d_6">
      <g>
       <use xlink:href="#mad5736ece8" x="674.979157" y="640.3185" style="stroke: #000000; stroke-width: 0.8"/>
      </g>
     </g>
     <g id="text_6">
      <!-- 10 -->
      <g transform="translate(658.296345 665.559125) scale(0.3 -0.3)">
       <defs>
        <path id="LiberationSans-31" d="M 488 0 
L 488 478 
L 1609 478 
L 1609 3866 
L 616 3156 
L 616 3688 
L 1656 4403 
L 2175 4403 
L 2175 478 
L 3247 478 
L 3247 0 
L 488 0 
z
" transform="scale(0.015625)"/>
       </defs>
       <use xlink:href="#LiberationSans-31"/>
       <use xlink:href="#LiberationSans-30" x="55.615234"/>
      </g>
     </g>
    </g>
    <g id="xtick_7">
     <g id="line2d_7">
      <defs>
       <path id="m1c7d912875" d="M 0 0 
L 0 -2 
" style="stroke: #000000; stroke-width: 0.6"/>
      </defs>
      <g>
       <use xlink:href="#m1c7d912875" x="142.889063" y="640.3185" style="stroke: #000000; stroke-width: 0.6"/>
      </g>
     </g>
    </g>
    <g id="xtick_8">
     <g id="line2d_8">
      <g>
       <use xlink:href="#m1c7d912875" x="170.893805" y="640.3185" style="stroke: #000000; stroke-width: 0.6"/>
      </g>
     </g>
    </g>
    <g id="xtick_9">
     <g id="line2d_9">
      <g>
       <use xlink:href="#m1c7d912875" x="198.898547" y="640.3185" style="stroke: #000000; stroke-width: 0.6"/>
      </g>
     </g>
    </g>
    <g id="xtick_10">
     <g id="line2d_10">
      <g>
       <use xlink:href="#m1c7d912875" x="254.90803" y="640.3185" style="stroke: #000000; stroke-width: 0.6"/>
      </g>
     </g>
    </g>
    <g id="xtick_11">
     <g id="line2d_11">
      <g>
       <use xlink:href="#m1c7d912875" x="282.912772" y="640.3185" style="stroke: #000000; stroke-width: 0.6"/>
      </g>
     </g>
    </g>
    <g id="xtick_12">
     <g id="line2d_12">
      <g>
       <use xlink:href="#m1c7d912875" x="310.917514" y="640.3185" style="stroke: #000000; stroke-width: 0.6"/>
      </g>
     </g>
    </g>
    <g id="xtick_13">
     <g id="line2d_13">
      <g>
       <use xlink:href="#m1c7d912875" x="366.926998" y="640.3185" style="stroke: #000000; stroke-width: 0.6"/>
      </g>
     </g>
    </g>
    <g id="xtick_14">
     <g id="line2d_14">
      <g>
       <use xlink:href="#m1c7d912875" x="394.931739" y="640.3185" style="stroke: #000000; stroke-width: 0.6"/>
      </g>
     </g>
    </g>
    <g id="xtick_15">
     <g id="line2d_15">
      <g>
       <use xlink:href="#m1c7d912875" x="422.936481" y="640.3185" style="stroke: #000000; stroke-width: 0.6"/>
      </g>
     </g>
    </g>
    <g id="xtick_16">
     <g id="line2d_16">
      <g>
       <use xlink:href="#m1c7d912875" x="478.945965" y="640.3185" style="stroke: #000000; stroke-width: 0.6"/>
      </g>
     </g>
    </g>
    <g id="xtick_17">
     <g id="line2d_17">
      <g>
       <use xlink:href="#m1c7d912875" x="506.950707" y="640.3185" style="stroke: #000000; stroke-width: 0.6"/>
      </g>
     </g>
    </g>
    <g id="xtick_18">
     <g id="line2d_18">
      <g>
       <use xlink:href="#m1c7d912875" x="534.955448" y="640.3185" style="stroke: #000000; stroke-width: 0.6"/>
      </g>
     </g>
    </g>
    <g id="xtick_19">
     <g id="line2d_19">
      <g>
       <use xlink:href="#m1c7d912875" x="590.964932" y="640.3185" style="stroke: #000000; stroke-width: 0.6"/>
      </g>
     </g>
    </g>
    <g id="xtick_20">
     <g id="line2d_20">
      <g>
       <use xlink:href="#m1c7d912875" x="618.969674" y="640.3185" style="stroke: #000000; stroke-width: 0.6"/>
      </g>
     </g>
    </g>
    <g id="xtick_21">
     <g id="line2d_21">
      <g>
       <use xlink:href="#m1c7d912875" x="646.974416" y="640.3185" style="stroke: #000000; stroke-width: 0.6"/>
      </g>
     </g>
    </g>
    <g id="text_7">
     <!-- Time ps -->
     <g transform="translate(342.183182 697.52475) scale(0.3 -0.3)">
      <defs>
       <path id="LiberationSans-54" d="M 2250 3916 
L 2250 0 
L 1656 0 
L 1656 3916 
L 144 3916 
L 144 4403 
L 3763 4403 
L 3763 3916 
L 2250 3916 
z
" transform="scale(0.015625)"/>
       <path id="LiberationSans-69" d="M 428 4100 
L 428 4638 
L 991 4638 
L 991 4100 
L 428 4100 
z
M 428 0 
L 428 3381 
L 991 3381 
L 991 0 
L 428 0 
z
" transform="scale(0.015625)"/>
       <path id="LiberationSans-6d" d="M 2400 0 
L 2400 2144 
Q 2400 2634 2265 2821 
Q 2131 3009 1781 3009 
Q 1422 3009 1212 2734 
Q 1003 2459 1003 1959 
L 1003 0 
L 444 0 
L 444 2659 
Q 444 3250 425 3381 
L 956 3381 
Q 959 3366 962 3297 
Q 966 3228 970 3139 
Q 975 3050 981 2803 
L 991 2803 
Q 1172 3163 1406 3303 
Q 1641 3444 1978 3444 
Q 2363 3444 2586 3291 
Q 2809 3138 2897 2803 
L 2906 2803 
Q 3081 3144 3329 3294 
Q 3578 3444 3931 3444 
Q 4444 3444 4676 3166 
Q 4909 2888 4909 2253 
L 4909 0 
L 4353 0 
L 4353 2144 
Q 4353 2634 4218 2821 
Q 4084 3009 3734 3009 
Q 3366 3009 3161 2736 
Q 2956 2463 2956 1959 
L 2956 0 
L 2400 0 
z
" transform="scale(0.015625)"/>
       <path id="LiberationSans-65" d="M 863 1572 
Q 863 991 1103 675 
Q 1344 359 1806 359 
Q 2172 359 2392 506 
Q 2613 653 2691 878 
L 3184 738 
Q 2881 -63 1806 -63 
Q 1056 -63 664 384 
Q 272 831 272 1713 
Q 272 2550 664 2997 
Q 1056 3444 1784 3444 
Q 3275 3444 3275 1647 
L 3275 1572 
L 863 1572 
z
M 2694 2003 
Q 2647 2538 2422 2783 
Q 2197 3028 1775 3028 
Q 1366 3028 1127 2754 
Q 888 2481 869 2003 
L 2694 2003 
z
" transform="scale(0.015625)"/>
       <path id="LiberationSans-20" transform="scale(0.015625)"/>
       <path id="LiberationSans-70" d="M 3291 1706 
Q 3291 -63 2047 -63 
Q 1266 -63 997 525 
L 981 525 
Q 994 500 994 -6 
L 994 -1328 
L 431 -1328 
L 431 2691 
Q 431 3213 413 3381 
L 956 3381 
Q 959 3369 965 3292 
Q 972 3216 980 3056 
Q 988 2897 988 2838 
L 1000 2838 
Q 1150 3150 1397 3295 
Q 1644 3441 2047 3441 
Q 2672 3441 2981 3022 
Q 3291 2603 3291 1706 
z
M 2700 1694 
Q 2700 2400 2509 2703 
Q 2319 3006 1903 3006 
Q 1569 3006 1380 2865 
Q 1191 2725 1092 2426 
Q 994 2128 994 1650 
Q 994 984 1206 668 
Q 1419 353 1897 353 
Q 2316 353 2508 661 
Q 2700 969 2700 1694 
z
" transform="scale(0.015625)"/>
       <path id="LiberationSans-73" d="M 2969 934 
Q 2969 456 2608 196 
Q 2247 -63 1597 -63 
Q 966 -63 623 145 
Q 281 353 178 794 
L 675 891 
Q 747 619 972 492 
Q 1197 366 1597 366 
Q 2025 366 2223 497 
Q 2422 628 2422 891 
Q 2422 1091 2284 1216 
Q 2147 1341 1841 1422 
L 1438 1528 
Q 953 1653 748 1773 
Q 544 1894 428 2066 
Q 313 2238 313 2488 
Q 313 2950 642 3192 
Q 972 3434 1603 3434 
Q 2163 3434 2492 3237 
Q 2822 3041 2909 2606 
L 2403 2544 
Q 2356 2769 2151 2889 
Q 1947 3009 1603 3009 
Q 1222 3009 1040 2893 
Q 859 2778 859 2544 
Q 859 2400 934 2306 
Q 1009 2213 1156 2147 
Q 1303 2081 1775 1966 
Q 2222 1853 2419 1758 
Q 2616 1663 2730 1547 
Q 2844 1431 2906 1279 
Q 2969 1128 2969 934 
z
" transform="scale(0.015625)"/>
      </defs>
      <use xlink:href="#LiberationSans-54"/>
      <use xlink:href="#LiberationSans-69" x="57.333984"/>
      <use xlink:href="#LiberationSans-6d" x="79.550781"/>
      <use xlink:href="#LiberationSans-65" x="162.851562"/>
      <use xlink:href="#LiberationSans-20" x="218.466797"/>
      <use xlink:href="#LiberationSans-70" x="246.25"/>
      <use xlink:href="#LiberationSans-73" x="301.865234"/>
     </g>
    </g>
   </g>
   <g id="matplotlib.axis_2">
    <g id="ytick_1">
     <g id="line2d_22">
      <defs>
       <path id="mf892227420" d="M 0 0 
L 3.5 0 
" style="stroke: #000000; stroke-width: 0.8"/>
      </defs>
      <g>
       <use xlink:href="#mf892227420" x="87" y="627.347462" style="stroke: #000000; stroke-width: 0.8"/>
      </g>
     </g>
     <g id="text_8">
      <!-- $\mathdefault{0.0}$ -->
      <g transform="translate(41.5 638.217774) scale(0.3 -0.3)">
       <defs>
        <path id="LiberationSans-2e" d="M 584 0 
L 584 684 
L 1194 684 
L 1194 0 
L 584 0 
z
" transform="scale(0.015625)"/>
       </defs>
       <use xlink:href="#LiberationSans-30" transform="translate(0 0.171875)"/>
       <use xlink:href="#LiberationSans-2e" transform="translate(55.615234 0.171875)"/>
       <use xlink:href="#LiberationSans-30" transform="translate(83.398438 0.171875)"/>
      </g>
     </g>
    </g>
    <g id="ytick_2">
     <g id="line2d_23">
      <g>
       <use xlink:href="#mf892227420" x="87" y="512.443852" style="stroke: #000000; stroke-width: 0.8"/>
      </g>
     </g>
     <g id="text_9">
      <!-- $\mathdefault{0.2}$ -->
      <g transform="translate(41.5 523.314165) scale(0.3 -0.3)">
       <use xlink:href="#LiberationSans-30" transform="translate(0 0.171875)"/>
       <use xlink:href="#LiberationSans-2e" transform="translate(55.615234 0.171875)"/>
       <use xlink:href="#LiberationSans-32" transform="translate(83.398438 0.171875)"/>
      </g>
     </g>
    </g>
    <g id="ytick_3">
     <g id="line2d_24">
      <g>
       <use xlink:href="#mf892227420" x="87" y="397.540242" style="stroke: #000000; stroke-width: 0.8"/>
      </g>
     </g>
     <g id="text_10">
      <!-- $\mathdefault{0.4}$ -->
      <g transform="translate(41.5 408.410555) scale(0.3 -0.3)">
       <use xlink:href="#LiberationSans-30" transform="translate(0 0.171875)"/>
       <use xlink:href="#LiberationSans-2e" transform="translate(55.615234 0.171875)"/>
       <use xlink:href="#LiberationSans-34" transform="translate(83.398438 0.171875)"/>
      </g>
     </g>
    </g>
    <g id="ytick_4">
     <g id="line2d_25">
      <g>
       <use xlink:href="#mf892227420" x="87" y="282.636633" style="stroke: #000000; stroke-width: 0.8"/>
      </g>
     </g>
     <g id="text_11">
      <!-- $\mathdefault{0.6}$ -->
      <g transform="translate(41.5 293.506945) scale(0.3 -0.3)">
       <use xlink:href="#LiberationSans-30" transform="translate(0 0.171875)"/>
       <use xlink:href="#LiberationSans-2e" transform="translate(55.615234 0.171875)"/>
       <use xlink:href="#LiberationSans-36" transform="translate(83.398438 0.171875)"/>
      </g>
     </g>
    </g>
    <g id="ytick_5">
     <g id="line2d_26">
      <g>
       <use xlink:href="#mf892227420" x="87" y="167.733023" style="stroke: #000000; stroke-width: 0.8"/>
      </g>
     </g>
     <g id="text_12">
      <!-- $\mathdefault{0.8}$ -->
      <g transform="translate(41.5 178.603335) scale(0.3 -0.3)">
       <use xlink:href="#LiberationSans-30" transform="translate(0 0.171875)"/>
       <use xlink:href="#LiberationSans-2e" transform="translate(55.615234 0.171875)"/>
       <use xlink:href="#LiberationSans-38" transform="translate(83.398438 0.171875)"/>
      </g>
     </g>
    </g>
    <g id="ytick_6">
     <g id="line2d_27">
      <g>
       <use xlink:href="#mf892227420" x="87" y="52.829413" style="stroke: #000000; stroke-width: 0.8"/>
      </g>
     </g>
     <g id="text_13">
      <!-- $\mathdefault{1.0}$ -->
      <g transform="translate(41.5 63.699726) scale(0.3 -0.3)">
       <use xlink:href="#LiberationSans-31" transform="translate(0 0.171875)"/>
       <use xlink:href="#LiberationSans-2e" transform="translate(55.615234 0.171875)"/>
       <use xlink:href="#LiberationSans-30" transform="translate(83.398438 0.171875)"/>
      </g>
     </g>
    </g>
    <g id="ytick_7">
     <g id="line2d_28">
      <defs>
       <path id="m3b96e64e97" d="M 0 0 
L 2 0 
" style="stroke: #000000; stroke-width: 0.6"/>
      </defs>
      <g>
       <use xlink:href="#m3b96e64e97" x="87" y="598.621559" style="stroke: #000000; stroke-width: 0.6"/>
      </g>
     </g>
    </g>
    <g id="ytick_8">
     <g id="line2d_29">
      <g>
       <use xlink:href="#m3b96e64e97" x="87" y="569.895657" style="stroke: #000000; stroke-width: 0.6"/>
      </g>
     </g>
    </g>
    <g id="ytick_9">
     <g id="line2d_30">
      <g>
       <use xlink:href="#m3b96e64e97" x="87" y="541.169755" style="stroke: #000000; stroke-width: 0.6"/>
      </g>
     </g>
    </g>
    <g id="ytick_10">
     <g id="line2d_31">
      <g>
       <use xlink:href="#m3b96e64e97" x="87" y="483.71795" style="stroke: #000000; stroke-width: 0.6"/>
      </g>
     </g>
    </g>
    <g id="ytick_11">
     <g id="line2d_32">
      <g>
       <use xlink:href="#m3b96e64e97" x="87" y="454.992047" style="stroke: #000000; stroke-width: 0.6"/>
      </g>
     </g>
    </g>
    <g id="ytick_12">
     <g id="line2d_33">
      <g>
       <use xlink:href="#m3b96e64e97" x="87" y="426.266145" style="stroke: #000000; stroke-width: 0.6"/>
      </g>
     </g>
    </g>
    <g id="ytick_13">
     <g id="line2d_34">
      <g>
       <use xlink:href="#m3b96e64e97" x="87" y="368.81434" style="stroke: #000000; stroke-width: 0.6"/>
      </g>
     </g>
    </g>
    <g id="ytick_14">
     <g id="line2d_35">
      <g>
       <use xlink:href="#m3b96e64e97" x="87" y="340.088438" style="stroke: #000000; stroke-width: 0.6"/>
      </g>
     </g>
    </g>
    <g id="ytick_15">
     <g id="line2d_36">
      <g>
       <use xlink:href="#m3b96e64e97" x="87" y="311.362535" style="stroke: #000000; stroke-width: 0.6"/>
      </g>
     </g>
    </g>
    <g id="ytick_16">
     <g id="line2d_37">
      <g>
       <use xlink:href="#m3b96e64e97" x="87" y="253.91073" style="stroke: #000000; stroke-width: 0.6"/>
      </g>
     </g>
    </g>
    <g id="ytick_17">
     <g id="line2d_38">
      <g>
       <use xlink:href="#m3b96e64e97" x="87" y="225.184828" style="stroke: #000000; stroke-width: 0.6"/>
      </g>
     </g>
    </g>
    <g id="ytick_18">
     <g id="line2d_39">
      <g>
       <use xlink:href="#m3b96e64e97" x="87" y="196.458925" style="stroke: #000000; stroke-width: 0.6"/>
      </g>
     </g>
    </g>
    <g id="ytick_19">
     <g id="line2d_40">
      <g>
       <use xlink:href="#m3b96e64e97" x="87" y="139.00712" style="stroke: #000000; stroke-width: 0.6"/>
      </g>
     </g>
    </g>
    <g id="ytick_20">
     <g id="line2d_41">
      <g>
       <use xlink:href="#m3b96e64e97" x="87" y="110.281218" style="stroke: #000000; stroke-width: 0.6"/>
      </g>
     </g>
    </g>
    <g id="ytick_21">
     <g id="line2d_42">
      <g>
       <use xlink:href="#m3b96e64e97" x="87" y="81.555316" style="stroke: #000000; stroke-width: 0.6"/>
      </g>
     </g>
    </g>
    <g id="text_14">
     <!-- ITC $\mathrm{W} / (\mathrm{K} \cdot \mathrm{m}^2)$ -->
     <g transform="translate(31.275 433.803) rotate(-90) scale(0.3 -0.3)">
      <defs>
       <path id="LiberationSans-49" d="M 591 0 
L 591 4403 
L 1188 4403 
L 1188 0 
L 591 0 
z
" transform="scale(0.015625)"/>
       <path id="LiberationSans-43" d="M 2475 3981 
Q 1744 3981 1337 3511 
Q 931 3041 931 2222 
Q 931 1413 1354 920 
Q 1778 428 2500 428 
Q 3425 428 3891 1344 
L 4378 1100 
Q 4106 531 3614 234 
Q 3122 -63 2472 -63 
Q 1806 -63 1320 214 
Q 834 491 579 1005 
Q 325 1519 325 2222 
Q 325 3275 894 3872 
Q 1463 4469 2469 4469 
Q 3172 4469 3644 4194 
Q 4116 3919 4338 3378 
L 3772 3191 
Q 3619 3575 3280 3778 
Q 2941 3981 2475 3981 
z
" transform="scale(0.015625)"/>
       <path id="STIXGeneral-Regular-57" d="M 5965 4237 
L 5965 4115 
Q 5709 4064 5616 3990 
Q 5523 3917 5434 3667 
Q 4704 1709 4128 -70 
L 4032 -70 
Q 3642 1011 3008 2637 
L 2022 -70 
L 1926 -70 
Q 1709 576 1277 1753 
Q 845 2931 698 3347 
Q 538 3808 406 3958 
Q 275 4109 32 4115 
L 32 4237 
L 1594 4237 
L 1594 4115 
Q 1357 4109 1270 4064 
Q 1184 4019 1184 3917 
Q 1184 3808 1254 3616 
L 2176 1210 
L 2842 3021 
L 2662 3501 
Q 2509 3917 2400 4013 
Q 2291 4109 2010 4115 
L 2010 4237 
L 3706 4237 
L 3706 4115 
Q 3213 4102 3213 3891 
Q 3213 3808 3322 3520 
L 4237 1190 
L 5043 3360 
Q 5152 3667 5152 3853 
Q 5152 4109 4704 4115 
L 4704 4237 
L 5965 4237 
z
" transform="scale(0.015625)"/>
       <path id="STIXGeneral-Regular-2f" d="M 1837 4326 
L 378 -90 
L -58 -90 
L 1408 4326 
L 1837 4326 
z
" transform="scale(0.015625)"/>
       <path id="STIXGeneral-Regular-28" d="M 1946 -1030 
L 1869 -1133 
Q 1126 -710 716 32 
Q 307 774 307 1613 
Q 307 3386 1888 4326 
L 1946 4224 
Q 1293 3667 1075 3126 
Q 858 2586 858 1632 
Q 858 685 1082 96 
Q 1306 -493 1946 -1030 
z
" transform="scale(0.015625)"/>
       <path id="STIXGeneral-Regular-4b" d="M 4627 0 
L 2688 0 
L 2688 122 
L 2861 128 
Q 3130 134 3130 282 
Q 3130 397 2922 643 
Q 2714 890 2253 1370 
L 1613 2029 
L 1446 1894 
L 1446 710 
Q 1446 352 1548 253 
Q 1651 154 2016 122 
L 2016 0 
L 211 0 
L 211 122 
Q 589 141 691 262 
Q 794 384 794 800 
L 794 3514 
Q 794 3872 691 3981 
Q 589 4090 218 4115 
L 218 4237 
L 2022 4237 
L 2022 4115 
Q 1632 4090 1539 3987 
Q 1446 3885 1446 3507 
L 1446 2227 
L 2586 3277 
Q 2861 3533 2973 3667 
Q 3085 3802 3085 3910 
Q 3085 4013 3030 4057 
Q 2976 4102 2822 4109 
L 2662 4115 
L 2662 4237 
L 4320 4237 
L 4320 4115 
Q 3994 4090 3824 4003 
Q 3654 3917 3322 3597 
L 2131 2458 
L 3629 819 
Q 4026 384 4214 253 
Q 4403 122 4627 122 
L 4627 0 
z
" transform="scale(0.015625)"/>
       <path id="STIXGeneral-Regular-22c5" d="M 1187 1888 
Q 1299 1773 1299 1619 
Q 1299 1466 1187 1350 
Q 1075 1235 921 1235 
Q 768 1235 649 1353 
Q 531 1472 531 1619 
Q 531 1766 649 1884 
Q 768 2003 921 2003 
Q 1075 2003 1187 1888 
z
" transform="scale(0.015625)"/>
       <path id="STIXGeneral-Regular-6d" d="M 4960 0 
L 3565 0 
L 3565 96 
Q 3834 122 3907 208 
Q 3981 294 3981 576 
L 3981 1894 
Q 3981 2278 3869 2444 
Q 3757 2611 3488 2611 
Q 3264 2611 3107 2521 
Q 2950 2432 2803 2221 
L 2803 608 
Q 2803 301 2896 201 
Q 2989 102 3264 96 
L 3264 0 
L 1830 0 
L 1830 96 
Q 2112 115 2189 188 
Q 2266 262 2266 550 
L 2266 1901 
Q 2266 2611 1850 2611 
Q 1670 2611 1468 2531 
Q 1267 2451 1171 2336 
Q 1088 2240 1088 2227 
L 1088 448 
Q 1088 243 1177 176 
Q 1267 109 1523 96 
L 1523 0 
L 102 0 
L 102 96 
Q 371 102 460 195 
Q 550 288 550 563 
L 550 2150 
Q 550 2387 499 2480 
Q 448 2573 326 2573 
Q 230 2573 122 2547 
L 122 2656 
Q 557 2778 1011 2944 
L 1062 2925 
L 1062 2451 
L 1075 2451 
Q 1363 2752 1584 2848 
Q 1805 2944 2054 2944 
Q 2560 2944 2733 2406 
Q 3232 2944 3776 2944 
Q 4518 2944 4518 1792 
L 4518 493 
Q 4518 282 4582 202 
Q 4646 122 4794 109 
L 4960 96 
L 4960 0 
z
" transform="scale(0.015625)"/>
       <path id="STIXGeneral-Regular-32" d="M 3034 877 
L 2688 0 
L 186 0 
L 186 77 
L 1325 1286 
Q 1773 1754 1965 2144 
Q 2157 2534 2157 2950 
Q 2157 3379 1920 3616 
Q 1683 3853 1267 3853 
Q 922 3853 720 3673 
Q 518 3494 326 3021 
L 192 3053 
Q 301 3648 630 3987 
Q 960 4326 1523 4326 
Q 2054 4326 2380 4006 
Q 2707 3686 2707 3200 
Q 2707 2477 1888 1613 
L 832 486 
L 2330 486 
Q 2541 486 2665 569 
Q 2790 653 2944 915 
L 3034 877 
z
" transform="scale(0.015625)"/>
       <path id="STIXGeneral-Regular-29" d="M 186 4224 
L 262 4326 
Q 992 3891 1408 3148 
Q 1824 2406 1824 1581 
Q 1824 -166 243 -1133 
L 186 -1030 
Q 845 -486 1059 54 
Q 1274 595 1274 1562 
Q 1274 2534 1059 3120 
Q 845 3706 186 4224 
z
" transform="scale(0.015625)"/>
      </defs>
      <use xlink:href="#LiberationSans-49" transform="translate(0 0.409375)"/>
      <use xlink:href="#LiberationSans-54" transform="translate(27.783203 0.409375)"/>
      <use xlink:href="#LiberationSans-43" transform="translate(88.867188 0.409375)"/>
      <use xlink:href="#LiberationSans-20" transform="translate(161.083984 0.409375)"/>
      <use xlink:href="#STIXGeneral-Regular-57" transform="translate(188.867188 0.409375)"/>
      <use xlink:href="#STIXGeneral-Regular-2f" transform="translate(283.267181 0.409375)"/>
      <use xlink:href="#STIXGeneral-Regular-28" transform="translate(311.067169 0.409375)"/>
      <use xlink:href="#STIXGeneral-Regular-4b" transform="translate(344.367157 0.409375)"/>
      <use xlink:href="#STIXGeneral-Regular-22c5" transform="translate(431.007135 0.409375)"/>
      <use xlink:href="#STIXGeneral-Regular-6d" transform="translate(474.047122 0.409375)"/>
      <use xlink:href="#STIXGeneral-Regular-32" transform="translate(553.390391 35.684375) scale(0.7)"/>
      <use xlink:href="#STIXGeneral-Regular-29" transform="translate(592.799756 0.409375)"/>
     </g>
    </g>
    <g id="text_15">
     <!-- $\times\mathdefault{10^{7}}\mathdefault{}$ -->
     <g transform="translate(87 36.1875) scale(0.4 -0.4)">
      <defs>
       <path id="STIXGeneral-Regular-d7" d="M 3821 141 
L 3526 -160 
L 2048 1312 
L 570 -160 
L 275 134 
L 1747 1613 
L 275 3091 
L 576 3386 
L 2048 1914 
L 3526 3386 
L 3821 3098 
L 2349 1613 
L 3821 141 
z
" transform="scale(0.015625)"/>
       <path id="LiberationSans-37" d="M 3238 3947 
Q 2563 2916 2284 2331 
Q 2006 1747 1867 1178 
Q 1728 609 1728 0 
L 1141 0 
Q 1141 844 1498 1776 
Q 1856 2709 2694 3925 
L 328 3925 
L 328 4403 
L 3238 4403 
L 3238 3947 
z
" transform="scale(0.015625)"/>
      </defs>
      <use xlink:href="#STIXGeneral-Regular-d7" transform="translate(0 0.8625)"/>
      <use xlink:href="#LiberationSans-31" transform="translate(63.999985 0.8625)"/>
      <use xlink:href="#LiberationSans-30" transform="translate(119.615219 0.8625)"/>
      <use xlink:href="#LiberationSans-37" transform="translate(176.154946 37.842188) scale(0.7)"/>
     </g>
    </g>
   </g>
   <g id="line2d_43">
    <path d="M 114.99634 611.477112 
L 116.228549 290.480804 
L 116.900663 165.5513 
L 117.460758 99.750397 
L 117.852824 74.954133 
L 118.132871 67.353244 
L 118.24489 66.511636 
L 118.3009 66.53812 
L 118.412919 67.452977 
L 118.636957 72.5358 
L 118.973014 87.407527 
L 119.477099 122.720416 
L 120.261232 196.981626 
L 122.557621 423.367901 
L 123.509782 492.32985 
L 124.293915 534.680843 
L 124.966028 560.234276 
L 125.526123 573.872041 
L 125.974199 579.869829 
L 126.254247 581.495725 
L 126.422275 581.725423 
L 126.534294 581.580219 
L 126.702322 580.931999 
L 126.98237 578.767695 
L 127.374436 573.688142 
L 127.934531 563.047326 
L 128.830683 540.821562 
L 130.566977 497.067151 
L 131.35111 482.901626 
L 131.967214 475.414364 
L 132.471299 471.774947 
L 132.807356 470.564407 
L 133.031394 470.275902 
L 133.199423 470.321095 
L 133.42346 470.715973 
L 133.703508 471.71947 
L 134.095574 473.998765 
L 134.655669 478.78369 
L 135.439802 487.761693 
L 137.176096 511.322286 
L 138.296286 524.674625 
L 139.080418 531.591622 
L 139.696523 535.259879 
L 140.200608 537.011974 
L 140.536665 537.541936 
L 140.760703 537.612518 
L 140.984741 537.459914 
L 141.264788 536.962087 
L 141.656855 535.715029 
L 142.16094 533.243669 
L 142.833054 528.681308 
L 143.953243 519.204563 
L 145.185452 509.306162 
L 145.857566 505.529791 
L 146.361651 503.799559 
L 146.753718 503.157214 
L 147.033765 503.070003 
L 147.313812 503.276127 
L 147.649869 503.878119 
L 148.097945 505.196739 
L 148.770059 507.981598 
L 151.738562 521.404208 
L 152.578704 523.870236 
L 153.306827 525.376175 
L 153.866922 526.065388 
L 154.258988 526.257479 
L 154.595045 526.204361 
L 154.931102 525.930778 
L 155.323169 525.314121 
L 155.827254 524.034632 
L 156.443358 521.751605 
L 157.227491 517.899239 
L 160.027965 503.193658 
L 160.700079 501.110478 
L 161.260174 500.007683 
L 161.70825 499.523371 
L 162.100316 499.367903 
L 162.492382 499.440293 
L 162.940458 499.771888 
L 163.500553 500.506099 
L 164.228676 501.876041 
L 165.460885 504.779702 
L 166.749103 507.6263 
L 167.421217 508.638671 
L 167.981312 509.106378 
L 168.429388 509.203441 
L 168.877464 509.047107 
L 169.325539 508.644432 
L 169.885634 507.823246 
L 170.613758 506.31425 
L 171.677938 503.509554 
L 173.750289 497.929398 
L 174.478412 496.613385 
L 174.982497 496.082207 
L 175.374564 495.924166 
L 175.76663 496.006657 
L 176.158696 496.334789 
L 176.662782 497.106439 
L 177.278886 498.524883 
L 178.119028 501.077052 
L 181.031522 510.446707 
L 182.095702 512.905705 
L 183.047863 514.578836 
L 183.831996 515.559715 
L 184.50411 516.085365 
L 185.120214 516.3044 
L 185.736318 516.294459 
L 186.520451 516.039938 
L 188.424773 515.312216 
L 189.208906 515.319032 
L 190.049048 515.565403 
L 191.505295 516.282288 
L 194.921873 517.928567 
L 195.930044 518.233002 
L 196.658167 518.217574 
L 197.330281 517.959953 
L 198.058405 517.410721 
L 199.010566 516.373756 
L 204.611514 509.416504 
L 205.843723 507.833076 
L 206.627856 507.163763 
L 207.299969 506.868748 
L 208.028093 506.808488 
L 209.204292 507.00286 
L 210.212462 507.079888 
L 210.996595 506.919301 
L 211.892747 506.498173 
L 214.581202 505.066286 
L 215.589373 504.873225 
L 216.765572 504.88001 
L 218.333838 505.129882 
L 220.630226 505.748635 
L 222.254501 506.363396 
L 223.318682 507.011024 
L 224.438871 507.979524 
L 227.687421 511.006736 
L 229.927801 512.803024 
L 231.384047 514.376468 
L 232.784284 515.806605 
L 233.624427 516.356281 
L 234.35255 516.577305 
L 235.136683 516.572664 
L 236.144853 516.318175 
L 238.777299 515.541857 
L 239.78547 515.520004 
L 240.681622 515.725575 
L 241.633783 516.18965 
L 244.266229 517.675546 
L 244.882333 517.674754 
L 245.442428 517.461053 
L 246.058532 516.983974 
L 246.786655 516.12831 
L 247.906845 514.406361 
L 249.923186 511.289457 
L 250.931357 510.171052 
L 251.771499 509.547961 
L 252.555632 509.223554 
L 253.339765 509.133697 
L 254.235917 509.27215 
L 257.316438 510.007545 
L 258.044561 509.814927 
L 258.884704 509.343338 
L 260.004893 508.414494 
L 262.693349 506.080215 
L 263.64551 505.568917 
L 264.429643 505.374964 
L 265.157766 505.424214 
L 265.82988 505.690899 
L 266.558003 506.224109 
L 267.454155 507.187063 
L 268.854392 509.090052 
L 270.758714 511.601195 
L 272.158951 513.058532 
L 273.615198 514.253802 
L 274.847407 514.988241 
L 275.967596 515.390551 
L 277.311824 515.613842 
L 280.504364 516.077141 
L 282.688734 516.358381 
L 284.705076 516.366158 
L 286.44137 516.168648 
L 287.729588 515.795734 
L 288.961796 515.19868 
L 292.490394 513.287481 
L 293.498565 513.130317 
L 294.954811 513.173592 
L 296.13101 513.123304 
L 296.971153 512.873935 
L 297.867304 512.359101 
L 298.987494 511.421146 
L 302.012006 508.73983 
L 303.468253 507.824538 
L 304.81248 507.229272 
L 305.764642 507.027249 
L 306.604784 507.072838 
L 307.388917 507.339163 
L 308.285068 507.893506 
L 311.477609 510.143637 
L 312.261742 510.277609 
L 313.213903 510.193548 
L 315.454282 509.880051 
L 316.294424 510.044085 
L 317.078557 510.421676 
L 317.918699 511.088376 
L 318.814851 512.101482 
L 319.879031 513.657906 
L 322.735515 518.038881 
L 323.519648 518.727762 
L 324.191762 519.029637 
L 324.807866 519.078344 
L 325.47998 518.91101 
L 326.264113 518.475313 
L 327.216274 517.672954 
L 328.448482 516.310636 
L 330.85689 513.567325 
L 331.641023 513.052125 
L 332.313137 512.866963 
L 332.985251 512.921161 
L 333.713374 513.209974 
L 334.777554 513.90229 
L 336.625867 515.118057 
L 337.522019 515.425874 
L 338.250142 515.457433 
L 338.978265 515.265127 
L 339.706389 514.840709 
L 340.546531 514.080019 
L 341.610711 512.78777 
L 345.531375 507.688393 
L 346.427527 507.016257 
L 347.15565 506.721003 
L 347.883773 506.665538 
L 348.611896 506.83329 
L 349.508048 507.276545 
L 351.412371 508.558636 
L 353.372703 509.73154 
L 360.037831 513.265843 
L 361.158021 513.474036 
L 362.614267 513.488479 
L 364.126523 513.562665 
L 365.134694 513.842268 
L 366.422912 514.457097 
L 368.159206 515.266288 
L 369.167377 515.474872 
L 370.287567 515.460656 
L 372.359918 515.387474 
L 373.480107 515.629776 
L 375.496449 516.130663 
L 376.280581 516.063802 
L 377.120724 515.752751 
L 378.296923 515.030104 
L 379.977207 514.021531 
L 381.153406 513.596989 
L 384.401956 512.593747 
L 386.082241 512.051308 
L 387.31445 511.904442 
L 390.002905 511.684225 
L 391.515161 511.236066 
L 393.307464 510.478334 
L 394.595682 509.701208 
L 397.788223 507.563309 
L 398.516346 507.468645 
L 399.18846 507.598193 
L 399.972593 507.987326 
L 400.980764 508.760988 
L 404.957437 512.098722 
L 405.965608 512.524028 
L 407.029788 512.72958 
L 408.93411 512.808323 
L 410.838433 512.99578 
L 414.535059 513.43346 
L 416.271353 513.713325 
L 418.007647 514.253835 
L 419.631922 514.694341 
L 420.584083 514.7217 
L 421.536244 514.512806 
L 422.768453 513.981303 
L 424.504747 513.256129 
L 425.680946 513.032826 
L 428.593439 512.622712 
L 430.273724 512.024485 
L 433.130207 510.762329 
L 435.986691 509.44572 
L 436.938852 509.283429 
L 437.835004 509.348653 
L 438.843175 509.653533 
L 440.46745 510.427883 
L 441.979706 511.062998 
L 443.099895 511.286945 
L 444.388113 511.297095 
L 446.404455 511.309248 
L 447.692673 511.576559 
L 451.053242 512.394443 
L 454.805877 513.039966 
L 460.182788 514.296204 
L 461.583025 514.199914 
L 463.599366 514.050499 
L 464.607537 514.221289 
L 465.727727 514.645642 
L 469.144305 516.109286 
L 470.432523 516.33718 
L 471.608722 516.329021 
L 472.672903 516.105067 
L 473.793092 515.632033 
L 475.473377 514.632637 
L 477.433709 513.550196 
L 483.482733 510.788963 
L 484.826961 510.55216 
L 486.227198 510.528849 
L 487.739454 510.733263 
L 489.587767 511.227891 
L 491.212042 511.867295 
L 492.50026 512.608425 
L 494.572611 514.132839 
L 495.860829 514.915401 
L 496.869 515.27856 
L 497.989189 515.43788 
L 499.445436 515.398449 
L 501.12572 515.132187 
L 503.31009 514.524925 
L 505.382441 514.032539 
L 508.182915 513.654394 
L 509.919209 513.588457 
L 511.431465 513.77111 
L 513.167759 513.963508 
L 514.11992 513.83595 
L 515.128091 513.469045 
L 517.984575 512.25846 
L 518.936736 512.188781 
L 520.056926 512.348584 
L 523.081438 512.926072 
L 524.481675 512.85735 
L 527.842244 512.59416 
L 530.810747 512.495125 
L 533.779249 512.255544 
L 534.955448 512.453168 
L 536.243667 512.910211 
L 540.444378 514.617073 
L 541.676586 514.740179 
L 547.669601 514.765246 
L 549.181857 514.404339 
L 550.918151 514.02448 
L 552.09435 514.007096 
L 553.606606 514.23635 
L 556.743138 514.7558 
L 558.031356 514.737574 
L 559.039526 514.509438 
L 559.991688 514.072669 
L 561.055868 513.335838 
L 562.624133 511.937408 
L 564.584465 510.240694 
L 565.648645 509.618224 
L 566.544797 509.348191 
L 567.384939 509.326916 
L 568.281091 509.542238 
L 569.289262 510.025128 
L 572.873869 511.985247 
L 573.938049 512.167202 
L 575.394296 512.160363 
L 578.082751 512.138764 
L 579.763035 512.086516 
L 580.771206 511.824645 
L 581.835386 511.300588 
L 584.523841 509.813797 
L 585.307974 509.70275 
L 586.092107 509.820035 
L 586.988259 510.19364 
L 590.348828 511.856103 
L 591.356998 511.946004 
L 592.757235 511.818639 
L 595.837757 511.501371 
L 597.294004 511.579223 
L 598.526212 511.871034 
L 601.270677 512.638461 
L 602.222838 512.605485 
L 603.399037 512.328438 
L 605.807445 511.709679 
L 609.784118 511.027414 
L 612.416564 510.217373 
L 613.648773 510.134079 
L 617.737465 510.274188 
L 618.969674 510.530932 
L 620.48193 511.112728 
L 622.330243 511.781325 
L 624.458603 512.23453 
L 625.91485 512.681125 
L 627.427106 513.4018 
L 629.275419 514.259684 
L 630.171571 514.434852 
L 630.955703 514.370376 
L 631.795846 514.061751 
L 632.860026 513.397383 
L 634.708339 512.20672 
L 635.548481 511.953225 
L 636.332614 511.958206 
L 637.172756 512.196601 
L 638.404965 512.811775 
L 640.645344 513.937776 
L 642.997742 514.780774 
L 644.790046 515.269488 
L 645.798216 515.326577 
L 646.750378 515.158688 
L 647.814558 514.737912 
L 649.886909 513.607026 
L 652.799402 512.142378 
L 657.168142 510.075395 
L 658.40035 509.815718 
L 659.408521 509.822247 
L 660.304673 510.046608 
L 661.200824 510.509026 
L 662.152986 511.259407 
L 663.385194 512.540356 
L 665.905621 515.247139 
L 666.745763 515.792062 
L 667.417877 515.986583 
L 668.033981 515.950996 
L 668.706095 515.675219 
L 669.434219 515.120862 
L 670.38638 514.087982 
L 673.410892 510.552248 
L 674.195025 510.070182 
L 674.867138 509.905335 
L 674.923148 509.902537 
L 674.923148 509.902537 
" clip-path="url(#pe7821f7d6c)" style="fill: none; stroke: #ff0000; stroke-width: 1.5; stroke-linecap: square"/>
   </g>
   <g id="line2d_44">
    <path d="M 114.99634 612.994364 
L 116.17254 339.509917 
L 116.844653 228.87659 
L 117.404748 170.600099 
L 117.796815 148.373615 
L 118.076862 141.265101 
L 118.24489 140.235682 
L 118.356909 140.805662 
L 118.524938 143.424182 
L 118.804985 152.062237 
L 119.253061 175.100584 
L 119.925175 224.010854 
L 122.445602 420.262645 
L 123.285744 464.854373 
L 124.069877 495.305243 
L 124.741991 513.286691 
L 125.302085 522.860694 
L 125.750161 527.217763 
L 126.086218 528.698478 
L 126.310256 528.892931 
L 126.478285 528.647185 
L 126.702322 527.829233 
L 127.038379 525.639353 
L 127.542465 520.490805 
L 128.214579 510.976813 
L 131.239091 464.470166 
L 131.855195 459.246233 
L 132.35928 456.650131 
L 132.695337 455.792032 
L 132.919375 455.61503 
L 133.087404 455.684031 
L 133.311442 456.036602 
L 133.647498 457.10215 
L 134.095574 459.473661 
L 134.711679 464.235022 
L 135.60783 473.25484 
L 137.232105 489.765593 
L 137.960229 494.997798 
L 138.576333 497.922432 
L 139.080418 499.335741 
L 139.528494 499.977458 
L 139.920561 500.180985 
L 140.368636 500.146002 
L 141.09676 499.806879 
L 142.048921 499.134902 
L 142.833054 498.311529 
L 143.561177 497.197844 
L 144.961414 494.498004 
L 145.745547 493.262922 
L 146.249632 492.8512 
L 146.641699 492.788538 
L 147.033765 492.956619 
L 147.481841 493.431121 
L 148.097945 494.468644 
L 150.226306 498.432573 
L 150.7864 498.898423 
L 151.234476 499.01598 
L 151.738562 498.905181 
L 152.354666 498.530157 
L 153.194808 497.737817 
L 154.202979 496.468596 
L 154.987112 495.146534 
L 156.051292 492.831711 
L 158.291671 487.743383 
L 158.963785 486.837973 
L 159.411861 486.546768 
L 159.803927 486.520827 
L 160.252003 486.734694 
L 160.812098 487.300113 
L 161.65224 488.518806 
L 163.556563 491.369094 
L 164.564733 492.432183 
L 166.581075 494.458053 
L 167.701264 495.531293 
L 168.317369 495.873594 
L 168.821454 495.908814 
L 169.325539 495.701668 
L 169.941644 495.162844 
L 170.893805 493.953957 
L 171.957985 492.680544 
L 172.57409 492.24415 
L 173.134184 492.111494 
L 173.694279 492.229631 
L 174.366393 492.638616 
L 176.438744 494.117094 
L 177.054848 494.190895 
L 177.670953 494.019294 
L 178.343066 493.589309 
L 180.863493 491.701547 
L 181.479597 491.657291 
L 182.095702 491.859399 
L 182.767816 492.32858 
L 183.831996 493.395576 
L 185.120214 494.622972 
L 185.848337 495.038264 
L 186.464441 495.163601 
L 187.136555 495.058957 
L 187.920688 494.680361 
L 189.320925 493.680454 
L 190.665153 492.811124 
L 191.673323 492.41106 
L 192.681494 492.245979 
L 193.857693 492.278192 
L 195.201921 492.529134 
L 196.37812 492.961599 
L 199.458642 494.254366 
L 200.242774 494.184091 
L 201.194936 493.84131 
L 202.427144 493.41703 
L 203.099258 493.408533 
L 203.771372 493.633549 
L 204.555505 494.150561 
L 206.347808 495.432523 
L 206.963912 495.551009 
L 207.524007 495.431416 
L 208.140112 495.066782 
L 209.092273 494.195101 
L 210.268472 493.168166 
L 210.940586 492.872368 
L 211.500681 492.873667 
L 212.060775 493.115875 
L 212.732889 493.67938 
L 213.797069 494.932241 
L 215.029278 496.310374 
L 215.701392 496.76243 
L 216.261487 496.891559 
L 216.765572 496.795928 
L 217.325667 496.458188 
L 218.05379 495.717237 
L 219.285999 494.054386 
L 220.350179 492.780199 
L 221.078302 492.25017 
L 221.694407 492.077116 
L 222.310511 492.147793 
L 223.094644 492.496428 
L 224.55089 493.188238 
L 225.166995 493.222801 
L 225.783099 493.025197 
L 226.511222 492.524777 
L 228.527564 490.945806 
L 229.087658 490.837213 
L 229.647753 490.951911 
L 230.263858 491.319405 
L 231.216019 492.193873 
L 232.448227 493.27373 
L 233.120341 493.579322 
L 233.736446 493.61734 
L 234.35255 493.43004 
L 235.136683 492.941111 
L 237.433072 491.373851 
L 238.329223 491.10404 
L 239.169366 491.087856 
L 240.065517 491.303429 
L 241.129697 491.811492 
L 243.706134 493.163866 
L 244.826323 493.429608 
L 250.427272 494.101853 
L 251.323423 493.828088 
L 253.619812 493.000732 
L 254.459955 493.031317 
L 255.524135 493.322166 
L 257.14841 493.765924 
L 258.268599 493.801441 
L 260.34095 493.807684 
L 261.517149 494.101369 
L 263.813538 494.744214 
L 265.213775 494.837685 
L 267.118098 494.984434 
L 268.574344 495.360319 
L 270.590686 495.869634 
L 271.486838 495.871948 
L 272.27097 495.661757 
L 273.055103 495.223352 
L 274.007264 494.409172 
L 276.023606 492.577299 
L 276.63971 492.35574 
L 277.199805 492.393722 
L 277.7599 492.669541 
L 278.432014 493.271385 
L 280.728402 495.595908 
L 281.232488 495.698756 
L 281.736573 495.557961 
L 282.240658 495.17888 
L 282.912772 494.36155 
L 284.985123 491.558102 
L 285.657237 491.114943 
L 286.273341 490.972792 
L 287.057474 491.045026 
L 288.793768 491.307658 
L 289.577901 491.144938 
L 290.362034 490.753216 
L 291.538233 489.873604 
L 293.162508 488.705671 
L 294.00265 488.370657 
L 294.730773 488.306724 
L 295.458897 488.468286 
L 296.299039 488.898881 
L 297.755285 489.968733 
L 298.875475 490.659927 
L 299.659608 490.892716 
L 300.443741 490.886782 
L 301.395902 490.629742 
L 303.468253 489.984011 
L 304.476423 489.958792 
L 308.397087 490.354392 
L 309.629296 490.59782 
L 311.253571 491.189927 
L 312.877846 491.713714 
L 313.886017 491.797327 
L 315.062216 491.665024 
L 318.92687 491.069027 
L 320.159079 491.170391 
L 321.335278 491.503133 
L 322.679506 492.147693 
L 324.695847 493.126411 
L 325.591999 493.281886 
L 326.48815 493.206352 
L 327.720359 492.845856 
L 329.456653 492.347237 
L 330.352805 492.316111 
L 331.136938 492.492294 
L 331.865061 492.874542 
L 332.649194 493.556411 
L 333.657364 494.76449 
L 335.281639 496.737351 
L 335.841734 497.09338 
L 336.28981 497.149283 
L 336.737886 496.963529 
L 337.185962 496.528135 
L 337.746057 495.653625 
L 338.530189 493.948353 
L 340.490521 489.421465 
L 341.106626 488.575632 
L 341.66672 488.169674 
L 342.170806 488.090705 
L 342.674891 488.238752 
L 343.347005 488.688814 
L 345.923441 490.683148 
L 346.707574 490.892209 
L 347.491707 490.866271 
L 348.443868 490.597732 
L 351.748428 489.42098 
L 352.58857 489.495565 
L 353.428712 489.798002 
L 354.660921 490.521263 
L 356.005148 491.251623 
L 356.845291 491.459629 
L 357.685433 491.427372 
L 358.805622 491.130724 
L 361.158021 490.466365 
L 362.502248 490.328987 
L 363.846476 490.417757 
L 365.190704 490.751009 
L 367.095026 491.498254 
L 370.623624 493.015288 
L 371.631794 493.854466 
L 373.928183 495.917724 
L 374.600297 496.160516 
L 375.216401 496.14974 
L 375.832505 495.919254 
L 376.616638 495.377501 
L 379.361103 493.23837 
L 380.145236 493.015319 
L 380.873359 493.032386 
L 381.713501 493.287296 
L 382.833691 493.889276 
L 384.738013 494.928796 
L 385.746184 495.190631 
L 387.034402 495.265467 
L 388.210601 495.400745 
L 389.218772 495.76194 
L 391.459151 496.687166 
L 392.075256 496.637461 
L 392.635351 496.376767 
L 393.251455 495.84662 
L 394.035588 494.859143 
L 396.163948 491.979658 
L 396.836062 491.530558 
L 397.396157 491.409672 
L 397.956252 491.504302 
L 398.684375 491.869246 
L 400.924754 493.172968 
L 401.652877 493.259772 
L 402.43701 493.118952 
L 405.069456 492.378402 
L 405.797579 492.537261 
L 406.581712 492.942984 
L 408.205987 494.132553 
L 409.214158 494.70911 
L 409.99829 494.921436 
L 410.726414 494.899919 
L 411.566556 494.634983 
L 412.854774 493.938865 
L 414.255011 493.243507 
L 415.095153 493.081382 
L 415.879286 493.169595 
L 416.831447 493.52622 
L 418.959808 494.389458 
L 420.136007 494.556295 
L 423.272538 494.652772 
L 424.560756 494.499879 
L 427.41724 493.956055 
L 428.369401 494.142401 
L 431.617951 495.020385 
L 432.682131 494.904734 
L 434.530444 494.652355 
L 435.314577 494.788389 
L 436.210729 495.191029 
L 438.619137 496.433804 
L 439.34726 496.489396 
L 440.075383 496.321544 
L 440.915525 495.889248 
L 443.828019 494.132097 
L 444.500132 494.086135 
L 445.228256 494.268422 
L 446.124407 494.746851 
L 447.692673 495.616343 
L 448.308777 495.707473 
L 448.868872 495.57861 
L 449.484976 495.198602 
L 450.269109 494.418984 
L 452.621508 491.854508 
L 453.293621 491.543012 
L 453.965735 491.4896 
L 454.749868 491.672092 
L 456.598181 492.207235 
L 457.270295 492.105055 
L 457.942408 491.764025 
L 458.782551 491.04896 
L 460.966921 489.037511 
L 461.695044 488.740662 
L 462.367158 488.709752 
L 463.095281 488.905291 
L 464.159461 489.456025 
L 465.727727 490.235647 
L 466.679888 490.451506 
L 467.632049 490.43459 
L 470.656561 490.18461 
L 471.608722 490.467152 
L 473.064969 491.172724 
L 474.521216 491.795907 
L 475.697415 492.04321 
L 477.433709 492.153399 
L 482.530572 492.303301 
L 484.490904 492.29886 
L 486.115179 492.527797 
L 489.475748 493.31687 
L 490.819975 493.835054 
L 491.940165 494.500741 
L 493.396412 495.663665 
L 495.020687 496.906607 
L 495.804819 497.233416 
L 496.476933 497.27844 
L 497.149047 497.093667 
L 497.93318 496.634303 
L 500.11755 495.189077 
L 500.733654 495.126775 
L 501.349758 495.289386 
L 502.077882 495.724414 
L 503.982204 496.994434 
L 504.542299 497.064817 
L 505.102394 496.899725 
L 505.662488 496.4943 
L 506.390612 495.664262 
L 508.911039 492.494516 
L 509.583152 492.129627 
L 510.199257 492.049038 
L 510.87137 492.190828 
L 511.99156 492.706932 
L 513.223769 493.190838 
L 514.063911 493.284421 
L 515.016072 493.155142 
L 516.472319 492.959851 
L 517.256452 493.092586 
L 518.040584 493.458051 
L 519.048755 494.199466 
L 520.841059 495.549581 
L 521.569182 495.816453 
L 522.241296 495.833796 
L 522.913409 495.620583 
L 523.697542 495.123614 
L 526.217969 493.318566 
L 526.890083 493.216387 
L 527.562197 493.352916 
L 528.346329 493.766539 
L 531.762908 495.9169 
L 534.73141 496.976692 
L 535.571553 497.059452 
L 536.299676 496.910633 
L 537.027799 496.527699 
L 538.091979 495.66649 
L 539.548226 494.527483 
L 540.332359 494.210782 
L 541.116492 494.143889 
L 542.012643 494.30586 
L 543.748937 494.904828 
L 545.373212 495.631077 
L 546.829459 496.57305 
L 548.453734 497.590419 
L 549.237867 497.815863 
L 549.96599 497.790098 
L 550.750123 497.520441 
L 551.702284 496.93681 
L 554.110692 495.357859 
L 554.782806 495.214212 
L 555.39891 495.314574 
L 555.959005 495.637975 
L 556.631119 496.32207 
L 557.52727 497.608398 
L 559.039526 499.823132 
L 559.655631 500.32167 
L 560.103707 500.427481 
L 560.551782 500.288821 
L 560.999858 499.903057 
L 561.559953 499.099574 
L 562.344086 497.507654 
L 564.360427 493.159327 
L 564.976532 492.42225 
L 565.536626 492.09402 
L 566.040712 492.057756 
L 566.600807 492.247473 
L 567.440949 492.800493 
L 568.897195 493.772793 
L 569.681328 494.029756 
L 570.465461 494.049721 
L 571.473632 493.814346 
L 573.770021 493.209341 
L 575.058239 493.155686 
L 580.043083 493.434116 
L 580.995244 493.746261 
L 581.947405 494.288365 
L 583.515671 495.498428 
L 584.69187 496.279148 
L 585.476003 496.538468 
L 586.204126 496.544163 
L 587.044268 496.307204 
L 590.404837 495.057381 
L 591.469017 495.04077 
L 592.589207 495.250456 
L 593.877425 495.724696 
L 595.613719 496.633852 
L 597.462032 497.573777 
L 598.470203 497.82393 
L 599.422364 497.81067 
L 600.822601 497.513379 
L 601.942791 497.36646 
L 602.670914 497.48275 
L 603.399037 497.826632 
L 604.295189 498.530685 
L 606.36754 500.272187 
L 607.039654 500.512351 
L 607.655758 500.488484 
L 608.271862 500.225477 
L 608.999986 499.648754 
L 610.400223 498.149768 
L 611.408394 497.251691 
L 612.080507 496.930961 
L 612.696612 496.880735 
L 613.368725 497.071795 
L 614.208868 497.573675 
L 615.889152 498.643479 
L 616.505257 498.76147 
L 617.065351 498.64536 
L 617.625446 498.305953 
L 618.29756 497.635066 
L 619.41775 496.135298 
L 620.48193 494.854546 
L 621.210053 494.29491 
L 621.826157 494.075946 
L 622.442262 494.083012 
L 623.170385 494.316404 
L 625.85884 495.418849 
L 626.586964 495.368951 
L 627.427106 495.07876 
L 629.051381 494.20864 
L 630.283589 493.671087 
L 631.179741 493.518736 
L 632.075893 493.59765 
L 633.308102 493.955176 
L 637.116746 495.427177 
L 638.236936 496.123095 
L 641.541496 498.401367 
L 642.493657 498.65149 
L 643.557837 498.687569 
L 648.598691 498.581626 
L 650.110947 498.712706 
L 651.119117 499.035561 
L 652.071279 499.576576 
L 654.647715 501.202556 
L 655.319829 501.297665 
L 655.991942 501.162238 
L 656.720066 500.771621 
L 657.840255 499.864357 
L 659.072464 498.93767 
L 659.800587 498.677136 
L 660.472701 498.685328 
L 661.200824 498.934915 
L 662.096976 499.496318 
L 665.457545 501.844048 
L 666.521725 502.196213 
L 670.498399 502.983372 
L 671.282531 502.965347 
L 671.898636 502.740546 
L 672.51474 502.262367 
L 673.186854 501.411667 
L 673.970987 500.024019 
L 674.923148 497.97598 
L 674.923148 497.97598 
" clip-path="url(#pe7821f7d6c)" style="fill: none; stroke: #0000ff; stroke-width: 1.5; stroke-linecap: square"/>
   </g>
   <g id="patch_3">
    <path d="M 87 640.3185 
L 87 39.1875 
" style="fill: none; stroke: #000000; stroke-width: 0.8; stroke-linejoin: miter; stroke-linecap: square"/>
   </g>
   <g id="patch_4">
    <path d="M 702.919488 640.3185 
L 702.919488 39.1875 
" style="fill: none; stroke: #000000; stroke-width: 0.8; stroke-linejoin: miter; stroke-linecap: square"/>
   </g>
   <g id="patch_5">
    <path d="M 87 640.3185 
L 702.919488 640.3185 
" style="fill: none; stroke: #000000; stroke-width: 0.8; stroke-linejoin: miter; stroke-linecap: square"/>
   </g>
   <g id="patch_6">
    <path d="M 87 39.1875 
L 702.919488 39.1875 
" style="fill: none; stroke: #000000; stroke-width: 0.8; stroke-linejoin: miter; stroke-linecap: square"/>
   </g>
   <g id="legend_1">
    <g id="patch_7">
     <path d="M 505.908551 149.11875 
L 681.919488 149.11875 
Q 687.919488 149.11875 687.919488 143.11875 
L 687.919488 60.1875 
Q 687.919488 54.1875 681.919488 54.1875 
L 505.908551 54.1875 
Q 499.908551 54.1875 499.908551 60.1875 
L 499.908551 143.11875 
Q 499.908551 149.11875 505.908551 149.11875 
z
" style="fill: #ffffff; opacity: 0.8; stroke: #cccccc; stroke-linejoin: miter"/>
    </g>
    <g id="line2d_45">
     <path d="M 511.908551 77.428125 
L 541.908551 77.428125 
L 571.908551 77.428125 
" style="fill: none; stroke: #ff0000; stroke-width: 1.5; stroke-linecap: square"/>
    </g>
    <g id="text_16">
     <!-- MD -->
     <g transform="translate(595.908551 87.928125) scale(0.3 -0.3)">
      <defs>
       <path id="LiberationSans-4d" d="M 4269 0 
L 4269 2938 
Q 4269 3425 4297 3875 
Q 4144 3316 4022 3000 
L 2884 0 
L 2466 0 
L 1313 3000 
L 1138 3531 
L 1034 3875 
L 1044 3528 
L 1056 2938 
L 1056 0 
L 525 0 
L 525 4403 
L 1309 4403 
L 2481 1350 
Q 2544 1166 2601 955 
Q 2659 744 2678 650 
Q 2703 775 2783 1029 
Q 2863 1284 2891 1350 
L 4041 4403 
L 4806 4403 
L 4806 0 
L 4269 0 
z
" transform="scale(0.015625)"/>
       <path id="LiberationSans-44" d="M 4316 2247 
Q 4316 1566 4050 1055 
Q 3784 544 3296 272 
Q 2809 0 2172 0 
L 525 0 
L 525 4403 
L 1981 4403 
Q 3100 4403 3708 3842 
Q 4316 3281 4316 2247 
z
M 3716 2247 
Q 3716 3066 3267 3495 
Q 2819 3925 1969 3925 
L 1122 3925 
L 1122 478 
L 2103 478 
Q 2588 478 2955 690 
Q 3322 903 3519 1303 
Q 3716 1703 3716 2247 
z
" transform="scale(0.015625)"/>
      </defs>
      <use xlink:href="#LiberationSans-4d"/>
      <use xlink:href="#LiberationSans-44" x="83.300781"/>
     </g>
    </g>
    <g id="line2d_46">
     <path d="M 511.908551 120.39375 
L 541.908551 120.39375 
L 571.908551 120.39375 
" style="fill: none; stroke: #0000ff; stroke-width: 1.5; stroke-linecap: square"/>
    </g>
    <g id="text_17">
     <!-- GANs -->
     <g transform="translate(595.908551 130.89375) scale(0.3 -0.3)">
      <defs>
       <path id="LiberationSans-47" d="M 322 2222 
Q 322 3294 897 3881 
Q 1472 4469 2513 4469 
Q 3244 4469 3700 4222 
Q 4156 3975 4403 3431 
L 3834 3263 
Q 3647 3638 3317 3809 
Q 2988 3981 2497 3981 
Q 1734 3981 1331 3520 
Q 928 3059 928 2222 
Q 928 1388 1356 905 
Q 1784 422 2541 422 
Q 2972 422 3345 553 
Q 3719 684 3950 909 
L 3950 1703 
L 2634 1703 
L 2634 2203 
L 4500 2203 
L 4500 684 
Q 4150 328 3642 132 
Q 3134 -63 2541 -63 
Q 1850 -63 1350 212 
Q 850 488 586 1005 
Q 322 1522 322 2222 
z
" transform="scale(0.015625)"/>
       <path id="LiberationSans-41" d="M 3647 0 
L 3144 1288 
L 1138 1288 
L 631 0 
L 13 0 
L 1809 4403 
L 2488 4403 
L 4256 0 
L 3647 0 
z
M 2141 3953 
L 2113 3866 
Q 2034 3606 1881 3200 
L 1319 1753 
L 2966 1753 
L 2400 3206 
Q 2313 3422 2225 3694 
L 2141 3953 
z
" transform="scale(0.015625)"/>
       <path id="LiberationSans-4e" d="M 3381 0 
L 1025 3750 
L 1041 3447 
L 1056 2925 
L 1056 0 
L 525 0 
L 525 4403 
L 1219 4403 
L 3600 628 
Q 3563 1241 3563 1516 
L 3563 4403 
L 4100 4403 
L 4100 0 
L 3381 0 
z
" transform="scale(0.015625)"/>
      </defs>
      <use xlink:href="#LiberationSans-47"/>
      <use xlink:href="#LiberationSans-41" x="77.783203"/>
      <use xlink:href="#LiberationSans-4e" x="144.482422"/>
      <use xlink:href="#LiberationSans-73" x="216.699219"/>
     </g>
    </g>
   </g>
  </g>
 </g>
 <defs>
  <clipPath id="pe7821f7d6c">
   <rect x="87" y="39.1875" width="615.919488" height="601.131"/>
  </clipPath>
 </defs>
</svg>
