<?xml version="1.0" encoding="utf-8" standalone="no"?>
<!DOCTYPE svg PUBLIC "-//W3C//DTD SVG 1.1//EN"
  "http://www.w3.org/Graphics/SVG/1.1/DTD/svg11.dtd">
<svg xmlns:xlink="http://www.w3.org/1999/xlink" width="711.485625pt" height="711.02175pt" viewBox="0 0 711.485625 711.02175" xmlns="http://www.w3.org/2000/svg" version="1.1">
 <metadata>
  <rdf:RDF xmlns:dc="http://purl.org/dc/elements/1.1/" xmlns:cc="http://creativecommons.org/ns#" xmlns:rdf="http://www.w3.org/1999/02/22-rdf-syntax-ns#">
   <cc:Work>
    <dc:type rdf:resource="http://purl.org/dc/dcmitype/StillImage"/>
    <dc:date>2025-01-30T18:20:51.349646</dc:date>
    <dc:format>image/svg+xml</dc:format>
    <dc:creator>
     <cc:Agent>
      <dc:title>Matplotlib v3.9.3, https://matplotlib.org/</dc:title>
     </cc:Agent>
    </dc:creator>
   </cc:Work>
  </rdf:RDF>
 </metadata>
 <defs>
  <style type="text/css">*{stroke-linejoin: round; stroke-linecap: butt}</style>
 </defs>
 <g id="figure_1">
  <g id="patch_1">
   <path d="M 0 711.02175 
L 711.485625 711.02175 
L 711.485625 0 
L 0 0 
z
" style="fill: #ffffff"/>
  </g>
  <g id="axes_1">
   <g id="patch_2">
    <path d="M 59.465625 640.3905 
L 704.285625 640.3905 
L 704.285625 39.1875 
L 59.465625 39.1875 
z
" style="fill: #ffffff"/>
   </g>
   <g id="matplotlib.axis_1">
    <g id="xtick_1">
     <g id="line2d_1">
      <defs>
       <path id="m72d58c91b7" d="M 0 0 
L 0 -3.5 
" style="stroke: #000000; stroke-width: 0.8"/>
      </defs>
      <g>
       <use xlink:href="#m72d58c91b7" x="88.716993" y="640.3905" style="stroke: #000000; stroke-width: 0.8"/>
      </g>
     </g>
     <g id="text_1">
      <!-- 0 -->
      <g transform="translate(80.375587 665.631125) scale(0.3 -0.3)">
       <defs>
        <path id="LiberationSans-30" d="M 3309 2203 
Q 3309 1100 2920 518 
Q 2531 -63 1772 -63 
Q 1013 -63 631 515 
Q 250 1094 250 2203 
Q 250 3338 620 3903 
Q 991 4469 1791 4469 
Q 2569 4469 2939 3897 
Q 3309 3325 3309 2203 
z
M 2738 2203 
Q 2738 3156 2517 3584 
Q 2297 4013 1791 4013 
Q 1272 4013 1045 3591 
Q 819 3169 819 2203 
Q 819 1266 1048 831 
Q 1278 397 1778 397 
Q 2275 397 2506 840 
Q 2738 1284 2738 2203 
z
" transform="scale(0.015625)"/>
       </defs>
       <use xlink:href="#LiberationSans-30"/>
      </g>
     </g>
    </g>
    <g id="xtick_2">
     <g id="line2d_2">
      <g>
       <use xlink:href="#m72d58c91b7" x="205.980446" y="640.3905" style="stroke: #000000; stroke-width: 0.8"/>
      </g>
     </g>
     <g id="text_2">
      <!-- 2 -->
      <g transform="translate(197.63904 665.631125) scale(0.3 -0.3)">
       <defs>
        <path id="LiberationSans-32" d="M 322 0 
L 322 397 
Q 481 763 711 1042 
Q 941 1322 1194 1548 
Q 1447 1775 1695 1969 
Q 1944 2163 2144 2356 
Q 2344 2550 2467 2762 
Q 2591 2975 2591 3244 
Q 2591 3606 2378 3806 
Q 2166 4006 1788 4006 
Q 1428 4006 1195 3811 
Q 963 3616 922 3263 
L 347 3316 
Q 409 3844 795 4156 
Q 1181 4469 1788 4469 
Q 2453 4469 2811 4155 
Q 3169 3841 3169 3263 
Q 3169 3006 3051 2753 
Q 2934 2500 2703 2247 
Q 2472 1994 1819 1463 
Q 1459 1169 1246 933 
Q 1034 697 941 478 
L 3238 478 
L 3238 0 
L 322 0 
z
" transform="scale(0.015625)"/>
       </defs>
       <use xlink:href="#LiberationSans-32"/>
      </g>
     </g>
    </g>
    <g id="xtick_3">
     <g id="line2d_3">
      <g>
       <use xlink:href="#m72d58c91b7" x="323.243899" y="640.3905" style="stroke: #000000; stroke-width: 0.8"/>
      </g>
     </g>
     <g id="text_3">
      <!-- 4 -->
      <g transform="translate(314.902492 665.631125) scale(0.3 -0.3)">
       <defs>
        <path id="LiberationSans-34" d="M 2753 997 
L 2753 0 
L 2222 0 
L 2222 997 
L 147 997 
L 147 1434 
L 2163 4403 
L 2753 4403 
L 2753 1441 
L 3372 1441 
L 3372 997 
L 2753 997 
z
M 2222 3769 
Q 2216 3750 2134 3603 
Q 2053 3456 2013 3397 
L 884 1734 
L 716 1503 
L 666 1441 
L 2222 1441 
L 2222 3769 
z
" transform="scale(0.015625)"/>
       </defs>
       <use xlink:href="#LiberationSans-34"/>
      </g>
     </g>
    </g>
    <g id="xtick_4">
     <g id="line2d_4">
      <g>
       <use xlink:href="#m72d58c91b7" x="440.507351" y="640.3905" style="stroke: #000000; stroke-width: 0.8"/>
      </g>
     </g>
     <g id="text_4">
      <!-- 6 -->
      <g transform="translate(432.165945 665.631125) scale(0.3 -0.3)">
       <defs>
        <path id="LiberationSans-36" d="M 3278 1441 
Q 3278 744 2900 340 
Q 2522 -63 1856 -63 
Q 1113 -63 719 490 
Q 325 1044 325 2100 
Q 325 3244 734 3856 
Q 1144 4469 1900 4469 
Q 2897 4469 3156 3572 
L 2619 3475 
Q 2453 4013 1894 4013 
Q 1413 4013 1148 3564 
Q 884 3116 884 2266 
Q 1038 2550 1316 2698 
Q 1594 2847 1953 2847 
Q 2563 2847 2920 2465 
Q 3278 2084 3278 1441 
z
M 2706 1416 
Q 2706 1894 2472 2153 
Q 2238 2413 1819 2413 
Q 1425 2413 1183 2183 
Q 941 1953 941 1550 
Q 941 1041 1192 716 
Q 1444 391 1838 391 
Q 2244 391 2475 664 
Q 2706 938 2706 1416 
z
" transform="scale(0.015625)"/>
       </defs>
       <use xlink:href="#LiberationSans-36"/>
      </g>
     </g>
    </g>
    <g id="xtick_5">
     <g id="line2d_5">
      <g>
       <use xlink:href="#m72d58c91b7" x="557.770804" y="640.3905" style="stroke: #000000; stroke-width: 0.8"/>
      </g>
     </g>
     <g id="text_5">
      <!-- 8 -->
      <g transform="translate(549.429398 665.631125) scale(0.3 -0.3)">
       <defs>
        <path id="LiberationSans-38" d="M 3281 1228 
Q 3281 619 2893 278 
Q 2506 -63 1781 -63 
Q 1075 -63 676 271 
Q 278 606 278 1222 
Q 278 1653 525 1947 
Q 772 2241 1156 2303 
L 1156 2316 
Q 797 2400 589 2681 
Q 381 2963 381 3341 
Q 381 3844 757 4156 
Q 1134 4469 1769 4469 
Q 2419 4469 2795 4162 
Q 3172 3856 3172 3334 
Q 3172 2956 2962 2675 
Q 2753 2394 2391 2322 
L 2391 2309 
Q 2813 2241 3047 1952 
Q 3281 1663 3281 1228 
z
M 2588 3303 
Q 2588 4050 1769 4050 
Q 1372 4050 1164 3862 
Q 956 3675 956 3303 
Q 956 2925 1170 2726 
Q 1384 2528 1775 2528 
Q 2172 2528 2380 2711 
Q 2588 2894 2588 3303 
z
M 2697 1281 
Q 2697 1691 2453 1898 
Q 2209 2106 1769 2106 
Q 1341 2106 1100 1882 
Q 859 1659 859 1269 
Q 859 359 1788 359 
Q 2247 359 2472 579 
Q 2697 800 2697 1281 
z
" transform="scale(0.015625)"/>
       </defs>
       <use xlink:href="#LiberationSans-38"/>
      </g>
     </g>
    </g>
    <g id="xtick_6">
     <g id="line2d_6">
      <g>
       <use xlink:href="#m72d58c91b7" x="675.034257" y="640.3905" style="stroke: #000000; stroke-width: 0.8"/>
      </g>
     </g>
     <g id="text_6">
      <!-- 10 -->
      <g transform="translate(658.351444 665.631125) scale(0.3 -0.3)">
       <defs>
        <path id="LiberationSans-31" d="M 488 0 
L 488 478 
L 1609 478 
L 1609 3866 
L 616 3156 
L 616 3688 
L 1656 4403 
L 2175 4403 
L 2175 478 
L 3247 478 
L 3247 0 
L 488 0 
z
" transform="scale(0.015625)"/>
       </defs>
       <use xlink:href="#LiberationSans-31"/>
       <use xlink:href="#LiberationSans-30" x="55.615234"/>
      </g>
     </g>
    </g>
    <g id="xtick_7">
     <g id="line2d_7">
      <defs>
       <path id="mb4d6b2c228" d="M 0 0 
L 0 -2 
" style="stroke: #000000; stroke-width: 0.6"/>
      </defs>
      <g>
       <use xlink:href="#mb4d6b2c228" x="118.032856" y="640.3905" style="stroke: #000000; stroke-width: 0.6"/>
      </g>
     </g>
    </g>
    <g id="xtick_8">
     <g id="line2d_8">
      <g>
       <use xlink:href="#mb4d6b2c228" x="147.34872" y="640.3905" style="stroke: #000000; stroke-width: 0.6"/>
      </g>
     </g>
    </g>
    <g id="xtick_9">
     <g id="line2d_9">
      <g>
       <use xlink:href="#mb4d6b2c228" x="176.664583" y="640.3905" style="stroke: #000000; stroke-width: 0.6"/>
      </g>
     </g>
    </g>
    <g id="xtick_10">
     <g id="line2d_10">
      <g>
       <use xlink:href="#mb4d6b2c228" x="235.296309" y="640.3905" style="stroke: #000000; stroke-width: 0.6"/>
      </g>
     </g>
    </g>
    <g id="xtick_11">
     <g id="line2d_11">
      <g>
       <use xlink:href="#mb4d6b2c228" x="264.612172" y="640.3905" style="stroke: #000000; stroke-width: 0.6"/>
      </g>
     </g>
    </g>
    <g id="xtick_12">
     <g id="line2d_12">
      <g>
       <use xlink:href="#mb4d6b2c228" x="293.928035" y="640.3905" style="stroke: #000000; stroke-width: 0.6"/>
      </g>
     </g>
    </g>
    <g id="xtick_13">
     <g id="line2d_13">
      <g>
       <use xlink:href="#mb4d6b2c228" x="352.559762" y="640.3905" style="stroke: #000000; stroke-width: 0.6"/>
      </g>
     </g>
    </g>
    <g id="xtick_14">
     <g id="line2d_14">
      <g>
       <use xlink:href="#mb4d6b2c228" x="381.875625" y="640.3905" style="stroke: #000000; stroke-width: 0.6"/>
      </g>
     </g>
    </g>
    <g id="xtick_15">
     <g id="line2d_15">
      <g>
       <use xlink:href="#mb4d6b2c228" x="411.191488" y="640.3905" style="stroke: #000000; stroke-width: 0.6"/>
      </g>
     </g>
    </g>
    <g id="xtick_16">
     <g id="line2d_16">
      <g>
       <use xlink:href="#mb4d6b2c228" x="469.823215" y="640.3905" style="stroke: #000000; stroke-width: 0.6"/>
      </g>
     </g>
    </g>
    <g id="xtick_17">
     <g id="line2d_17">
      <g>
       <use xlink:href="#mb4d6b2c228" x="499.139078" y="640.3905" style="stroke: #000000; stroke-width: 0.6"/>
      </g>
     </g>
    </g>
    <g id="xtick_18">
     <g id="line2d_18">
      <g>
       <use xlink:href="#mb4d6b2c228" x="528.454941" y="640.3905" style="stroke: #000000; stroke-width: 0.6"/>
      </g>
     </g>
    </g>
    <g id="xtick_19">
     <g id="line2d_19">
      <g>
       <use xlink:href="#mb4d6b2c228" x="587.086667" y="640.3905" style="stroke: #000000; stroke-width: 0.6"/>
      </g>
     </g>
    </g>
    <g id="xtick_20">
     <g id="line2d_20">
      <g>
       <use xlink:href="#mb4d6b2c228" x="616.40253" y="640.3905" style="stroke: #000000; stroke-width: 0.6"/>
      </g>
     </g>
    </g>
    <g id="xtick_21">
     <g id="line2d_21">
      <g>
       <use xlink:href="#mb4d6b2c228" x="645.718394" y="640.3905" style="stroke: #000000; stroke-width: 0.6"/>
      </g>
     </g>
    </g>
    <g id="text_7">
     <!-- Time ps -->
     <g transform="translate(329.099063 697.59675) scale(0.3 -0.3)">
      <defs>
       <path id="LiberationSans-54" d="M 2250 3916 
L 2250 0 
L 1656 0 
L 1656 3916 
L 144 3916 
L 144 4403 
L 3763 4403 
L 3763 3916 
L 2250 3916 
z
" transform="scale(0.015625)"/>
       <path id="LiberationSans-69" d="M 428 4100 
L 428 4638 
L 991 4638 
L 991 4100 
L 428 4100 
z
M 428 0 
L 428 3381 
L 991 3381 
L 991 0 
L 428 0 
z
" transform="scale(0.015625)"/>
       <path id="LiberationSans-6d" d="M 2400 0 
L 2400 2144 
Q 2400 2634 2265 2821 
Q 2131 3009 1781 3009 
Q 1422 3009 1212 2734 
Q 1003 2459 1003 1959 
L 1003 0 
L 444 0 
L 444 2659 
Q 444 3250 425 3381 
L 956 3381 
Q 959 3366 962 3297 
Q 966 3228 970 3139 
Q 975 3050 981 2803 
L 991 2803 
Q 1172 3163 1406 3303 
Q 1641 3444 1978 3444 
Q 2363 3444 2586 3291 
Q 2809 3138 2897 2803 
L 2906 2803 
Q 3081 3144 3329 3294 
Q 3578 3444 3931 3444 
Q 4444 3444 4676 3166 
Q 4909 2888 4909 2253 
L 4909 0 
L 4353 0 
L 4353 2144 
Q 4353 2634 4218 2821 
Q 4084 3009 3734 3009 
Q 3366 3009 3161 2736 
Q 2956 2463 2956 1959 
L 2956 0 
L 2400 0 
z
" transform="scale(0.015625)"/>
       <path id="LiberationSans-65" d="M 863 1572 
Q 863 991 1103 675 
Q 1344 359 1806 359 
Q 2172 359 2392 506 
Q 2613 653 2691 878 
L 3184 738 
Q 2881 -63 1806 -63 
Q 1056 -63 664 384 
Q 272 831 272 1713 
Q 272 2550 664 2997 
Q 1056 3444 1784 3444 
Q 3275 3444 3275 1647 
L 3275 1572 
L 863 1572 
z
M 2694 2003 
Q 2647 2538 2422 2783 
Q 2197 3028 1775 3028 
Q 1366 3028 1127 2754 
Q 888 2481 869 2003 
L 2694 2003 
z
" transform="scale(0.015625)"/>
       <path id="LiberationSans-20" transform="scale(0.015625)"/>
       <path id="LiberationSans-70" d="M 3291 1706 
Q 3291 -63 2047 -63 
Q 1266 -63 997 525 
L 981 525 
Q 994 500 994 -6 
L 994 -1328 
L 431 -1328 
L 431 2691 
Q 431 3213 413 3381 
L 956 3381 
Q 959 3369 965 3292 
Q 972 3216 980 3056 
Q 988 2897 988 2838 
L 1000 2838 
Q 1150 3150 1397 3295 
Q 1644 3441 2047 3441 
Q 2672 3441 2981 3022 
Q 3291 2603 3291 1706 
z
M 2700 1694 
Q 2700 2400 2509 2703 
Q 2319 3006 1903 3006 
Q 1569 3006 1380 2865 
Q 1191 2725 1092 2426 
Q 994 2128 994 1650 
Q 994 984 1206 668 
Q 1419 353 1897 353 
Q 2316 353 2508 661 
Q 2700 969 2700 1694 
z
" transform="scale(0.015625)"/>
       <path id="LiberationSans-73" d="M 2969 934 
Q 2969 456 2608 196 
Q 2247 -63 1597 -63 
Q 966 -63 623 145 
Q 281 353 178 794 
L 675 891 
Q 747 619 972 492 
Q 1197 366 1597 366 
Q 2025 366 2223 497 
Q 2422 628 2422 891 
Q 2422 1091 2284 1216 
Q 2147 1341 1841 1422 
L 1438 1528 
Q 953 1653 748 1773 
Q 544 1894 428 2066 
Q 313 2238 313 2488 
Q 313 2950 642 3192 
Q 972 3434 1603 3434 
Q 2163 3434 2492 3237 
Q 2822 3041 2909 2606 
L 2403 2544 
Q 2356 2769 2151 2889 
Q 1947 3009 1603 3009 
Q 1222 3009 1040 2893 
Q 859 2778 859 2544 
Q 859 2400 934 2306 
Q 1009 2213 1156 2147 
Q 1303 2081 1775 1966 
Q 2222 1853 2419 1758 
Q 2616 1663 2730 1547 
Q 2844 1431 2906 1279 
Q 2969 1128 2969 934 
z
" transform="scale(0.015625)"/>
      </defs>
      <use xlink:href="#LiberationSans-54"/>
      <use xlink:href="#LiberationSans-69" x="57.333984"/>
      <use xlink:href="#LiberationSans-6d" x="79.550781"/>
      <use xlink:href="#LiberationSans-65" x="162.851562"/>
      <use xlink:href="#LiberationSans-20" x="218.466797"/>
      <use xlink:href="#LiberationSans-70" x="246.25"/>
      <use xlink:href="#LiberationSans-73" x="301.865234"/>
     </g>
    </g>
   </g>
   <g id="matplotlib.axis_2">
    <g id="ytick_1">
     <g id="line2d_22">
      <defs>
       <path id="mc6e65673b0" d="M 0 0 
L 3.5 0 
" style="stroke: #000000; stroke-width: 0.8"/>
      </defs>
      <g>
       <use xlink:href="#mc6e65673b0" x="59.465625" y="613.063091" style="stroke: #000000; stroke-width: 0.8"/>
      </g>
     </g>
     <g id="text_8">
      <!-- $\mathdefault{0}$ -->
      <g transform="translate(39.165625 623.933403) scale(0.3 -0.3)">
       <use xlink:href="#LiberationSans-30" transform="translate(0 0.171875)"/>
      </g>
     </g>
    </g>
    <g id="ytick_2">
     <g id="line2d_23">
      <g>
       <use xlink:href="#mc6e65673b0" x="59.465625" y="534.627833" style="stroke: #000000; stroke-width: 0.8"/>
      </g>
     </g>
     <g id="text_9">
      <!-- $\mathdefault{1}$ -->
      <g transform="translate(39.165625 545.498146) scale(0.3 -0.3)">
       <use xlink:href="#LiberationSans-31" transform="translate(0 0.203125)"/>
      </g>
     </g>
    </g>
    <g id="ytick_3">
     <g id="line2d_24">
      <g>
       <use xlink:href="#mc6e65673b0" x="59.465625" y="456.192575" style="stroke: #000000; stroke-width: 0.8"/>
      </g>
     </g>
     <g id="text_10">
      <!-- $\mathdefault{2}$ -->
      <g transform="translate(39.165625 467.062888) scale(0.3 -0.3)">
       <use xlink:href="#LiberationSans-32" transform="translate(0 0.171875)"/>
      </g>
     </g>
    </g>
    <g id="ytick_4">
     <g id="line2d_25">
      <g>
       <use xlink:href="#mc6e65673b0" x="59.465625" y="377.757318" style="stroke: #000000; stroke-width: 0.8"/>
      </g>
     </g>
     <g id="text_11">
      <!-- $\mathdefault{3}$ -->
      <g transform="translate(39.165625 388.62763) scale(0.3 -0.3)">
       <defs>
        <path id="LiberationSans-33" d="M 3278 1216 
Q 3278 606 2890 271 
Q 2503 -63 1784 -63 
Q 1116 -63 717 239 
Q 319 541 244 1131 
L 825 1184 
Q 938 403 1784 403 
Q 2209 403 2451 612 
Q 2694 822 2694 1234 
Q 2694 1594 2417 1795 
Q 2141 1997 1619 1997 
L 1300 1997 
L 1300 2484 
L 1606 2484 
Q 2069 2484 2323 2686 
Q 2578 2888 2578 3244 
Q 2578 3597 2370 3801 
Q 2163 4006 1753 4006 
Q 1381 4006 1151 3815 
Q 922 3625 884 3278 
L 319 3322 
Q 381 3863 767 4166 
Q 1153 4469 1759 4469 
Q 2422 4469 2789 4161 
Q 3156 3853 3156 3303 
Q 3156 2881 2920 2617 
Q 2684 2353 2234 2259 
L 2234 2247 
Q 2728 2194 3003 1916 
Q 3278 1638 3278 1216 
z
" transform="scale(0.015625)"/>
       </defs>
       <use xlink:href="#LiberationSans-33" transform="translate(0 0.171875)"/>
      </g>
     </g>
    </g>
    <g id="ytick_5">
     <g id="line2d_26">
      <g>
       <use xlink:href="#mc6e65673b0" x="59.465625" y="299.32206" style="stroke: #000000; stroke-width: 0.8"/>
      </g>
     </g>
     <g id="text_12">
      <!-- $\mathdefault{4}$ -->
      <g transform="translate(39.165625 310.192372) scale(0.3 -0.3)">
       <use xlink:href="#LiberationSans-34" transform="translate(0 0.203125)"/>
      </g>
     </g>
    </g>
    <g id="ytick_6">
     <g id="line2d_27">
      <g>
       <use xlink:href="#mc6e65673b0" x="59.465625" y="220.886802" style="stroke: #000000; stroke-width: 0.8"/>
      </g>
     </g>
     <g id="text_13">
      <!-- $\mathdefault{5}$ -->
      <g transform="translate(39.165625 231.757115) scale(0.3 -0.3)">
       <defs>
        <path id="LiberationSans-35" d="M 3291 1434 
Q 3291 738 2877 337 
Q 2463 -63 1728 -63 
Q 1113 -63 734 206 
Q 356 475 256 984 
L 825 1050 
Q 1003 397 1741 397 
Q 2194 397 2450 670 
Q 2706 944 2706 1422 
Q 2706 1838 2448 2094 
Q 2191 2350 1753 2350 
Q 1525 2350 1328 2278 
Q 1131 2206 934 2034 
L 384 2034 
L 531 4403 
L 3034 4403 
L 3034 3925 
L 1044 3925 
L 959 2528 
Q 1325 2809 1869 2809 
Q 2519 2809 2905 2428 
Q 3291 2047 3291 1434 
z
" transform="scale(0.015625)"/>
       </defs>
       <use xlink:href="#LiberationSans-35" transform="translate(0 0.203125)"/>
      </g>
     </g>
    </g>
    <g id="ytick_7">
     <g id="line2d_28">
      <g>
       <use xlink:href="#mc6e65673b0" x="59.465625" y="142.451544" style="stroke: #000000; stroke-width: 0.8"/>
      </g>
     </g>
     <g id="text_14">
      <!-- $\mathdefault{6}$ -->
      <g transform="translate(39.165625 153.321857) scale(0.3 -0.3)">
       <use xlink:href="#LiberationSans-36" transform="translate(0 0.171875)"/>
      </g>
     </g>
    </g>
    <g id="ytick_8">
     <g id="line2d_29">
      <g>
       <use xlink:href="#mc6e65673b0" x="59.465625" y="64.016287" style="stroke: #000000; stroke-width: 0.8"/>
      </g>
     </g>
     <g id="text_15">
      <!-- $\mathdefault{7}$ -->
      <g transform="translate(39.165625 74.886599) scale(0.3 -0.3)">
       <defs>
        <path id="LiberationSans-37" d="M 3238 3947 
Q 2563 2916 2284 2331 
Q 2006 1747 1867 1178 
Q 1728 609 1728 0 
L 1141 0 
Q 1141 844 1498 1776 
Q 1856 2709 2694 3925 
L 328 3925 
L 328 4403 
L 3238 4403 
L 3238 3947 
z
" transform="scale(0.015625)"/>
       </defs>
       <use xlink:href="#LiberationSans-37" transform="translate(0 0.203125)"/>
      </g>
     </g>
    </g>
    <g id="ytick_9">
     <g id="line2d_30">
      <defs>
       <path id="md63e0ff0bd" d="M 0 0 
L 2 0 
" style="stroke: #000000; stroke-width: 0.6"/>
      </defs>
      <g>
       <use xlink:href="#md63e0ff0bd" x="59.465625" y="628.750142" style="stroke: #000000; stroke-width: 0.6"/>
      </g>
     </g>
    </g>
    <g id="ytick_10">
     <g id="line2d_31">
      <g>
       <use xlink:href="#md63e0ff0bd" x="59.465625" y="597.376039" style="stroke: #000000; stroke-width: 0.6"/>
      </g>
     </g>
    </g>
    <g id="ytick_11">
     <g id="line2d_32">
      <g>
       <use xlink:href="#md63e0ff0bd" x="59.465625" y="581.688988" style="stroke: #000000; stroke-width: 0.6"/>
      </g>
     </g>
    </g>
    <g id="ytick_12">
     <g id="line2d_33">
      <g>
       <use xlink:href="#md63e0ff0bd" x="59.465625" y="566.001936" style="stroke: #000000; stroke-width: 0.6"/>
      </g>
     </g>
    </g>
    <g id="ytick_13">
     <g id="line2d_34">
      <g>
       <use xlink:href="#md63e0ff0bd" x="59.465625" y="550.314885" style="stroke: #000000; stroke-width: 0.6"/>
      </g>
     </g>
    </g>
    <g id="ytick_14">
     <g id="line2d_35">
      <g>
       <use xlink:href="#md63e0ff0bd" x="59.465625" y="518.940782" style="stroke: #000000; stroke-width: 0.6"/>
      </g>
     </g>
    </g>
    <g id="ytick_15">
     <g id="line2d_36">
      <g>
       <use xlink:href="#md63e0ff0bd" x="59.465625" y="503.25373" style="stroke: #000000; stroke-width: 0.6"/>
      </g>
     </g>
    </g>
    <g id="ytick_16">
     <g id="line2d_37">
      <g>
       <use xlink:href="#md63e0ff0bd" x="59.465625" y="487.566679" style="stroke: #000000; stroke-width: 0.6"/>
      </g>
     </g>
    </g>
    <g id="ytick_17">
     <g id="line2d_38">
      <g>
       <use xlink:href="#md63e0ff0bd" x="59.465625" y="471.879627" style="stroke: #000000; stroke-width: 0.6"/>
      </g>
     </g>
    </g>
    <g id="ytick_18">
     <g id="line2d_39">
      <g>
       <use xlink:href="#md63e0ff0bd" x="59.465625" y="440.505524" style="stroke: #000000; stroke-width: 0.6"/>
      </g>
     </g>
    </g>
    <g id="ytick_19">
     <g id="line2d_40">
      <g>
       <use xlink:href="#md63e0ff0bd" x="59.465625" y="424.818472" style="stroke: #000000; stroke-width: 0.6"/>
      </g>
     </g>
    </g>
    <g id="ytick_20">
     <g id="line2d_41">
      <g>
       <use xlink:href="#md63e0ff0bd" x="59.465625" y="409.131421" style="stroke: #000000; stroke-width: 0.6"/>
      </g>
     </g>
    </g>
    <g id="ytick_21">
     <g id="line2d_42">
      <g>
       <use xlink:href="#md63e0ff0bd" x="59.465625" y="393.444369" style="stroke: #000000; stroke-width: 0.6"/>
      </g>
     </g>
    </g>
    <g id="ytick_22">
     <g id="line2d_43">
      <g>
       <use xlink:href="#md63e0ff0bd" x="59.465625" y="362.070266" style="stroke: #000000; stroke-width: 0.6"/>
      </g>
     </g>
    </g>
    <g id="ytick_23">
     <g id="line2d_44">
      <g>
       <use xlink:href="#md63e0ff0bd" x="59.465625" y="346.383215" style="stroke: #000000; stroke-width: 0.6"/>
      </g>
     </g>
    </g>
    <g id="ytick_24">
     <g id="line2d_45">
      <g>
       <use xlink:href="#md63e0ff0bd" x="59.465625" y="330.696163" style="stroke: #000000; stroke-width: 0.6"/>
      </g>
     </g>
    </g>
    <g id="ytick_25">
     <g id="line2d_46">
      <g>
       <use xlink:href="#md63e0ff0bd" x="59.465625" y="315.009111" style="stroke: #000000; stroke-width: 0.6"/>
      </g>
     </g>
    </g>
    <g id="ytick_26">
     <g id="line2d_47">
      <g>
       <use xlink:href="#md63e0ff0bd" x="59.465625" y="283.635008" style="stroke: #000000; stroke-width: 0.6"/>
      </g>
     </g>
    </g>
    <g id="ytick_27">
     <g id="line2d_48">
      <g>
       <use xlink:href="#md63e0ff0bd" x="59.465625" y="267.947957" style="stroke: #000000; stroke-width: 0.6"/>
      </g>
     </g>
    </g>
    <g id="ytick_28">
     <g id="line2d_49">
      <g>
       <use xlink:href="#md63e0ff0bd" x="59.465625" y="252.260905" style="stroke: #000000; stroke-width: 0.6"/>
      </g>
     </g>
    </g>
    <g id="ytick_29">
     <g id="line2d_50">
      <g>
       <use xlink:href="#md63e0ff0bd" x="59.465625" y="236.573854" style="stroke: #000000; stroke-width: 0.6"/>
      </g>
     </g>
    </g>
    <g id="ytick_30">
     <g id="line2d_51">
      <g>
       <use xlink:href="#md63e0ff0bd" x="59.465625" y="205.199751" style="stroke: #000000; stroke-width: 0.6"/>
      </g>
     </g>
    </g>
    <g id="ytick_31">
     <g id="line2d_52">
      <g>
       <use xlink:href="#md63e0ff0bd" x="59.465625" y="189.512699" style="stroke: #000000; stroke-width: 0.6"/>
      </g>
     </g>
    </g>
    <g id="ytick_32">
     <g id="line2d_53">
      <g>
       <use xlink:href="#md63e0ff0bd" x="59.465625" y="173.825647" style="stroke: #000000; stroke-width: 0.6"/>
      </g>
     </g>
    </g>
    <g id="ytick_33">
     <g id="line2d_54">
      <g>
       <use xlink:href="#md63e0ff0bd" x="59.465625" y="158.138596" style="stroke: #000000; stroke-width: 0.6"/>
      </g>
     </g>
    </g>
    <g id="ytick_34">
     <g id="line2d_55">
      <g>
       <use xlink:href="#md63e0ff0bd" x="59.465625" y="126.764493" style="stroke: #000000; stroke-width: 0.6"/>
      </g>
     </g>
    </g>
    <g id="ytick_35">
     <g id="line2d_56">
      <g>
       <use xlink:href="#md63e0ff0bd" x="59.465625" y="111.077441" style="stroke: #000000; stroke-width: 0.6"/>
      </g>
     </g>
    </g>
    <g id="ytick_36">
     <g id="line2d_57">
      <g>
       <use xlink:href="#md63e0ff0bd" x="59.465625" y="95.39039" style="stroke: #000000; stroke-width: 0.6"/>
      </g>
     </g>
    </g>
    <g id="ytick_37">
     <g id="line2d_58">
      <g>
       <use xlink:href="#md63e0ff0bd" x="59.465625" y="79.703338" style="stroke: #000000; stroke-width: 0.6"/>
      </g>
     </g>
    </g>
    <g id="ytick_38">
     <g id="line2d_59">
      <g>
       <use xlink:href="#md63e0ff0bd" x="59.465625" y="48.329235" style="stroke: #000000; stroke-width: 0.6"/>
      </g>
     </g>
    </g>
    <g id="text_16">
     <!-- ITR K · m$^2$/W -->
     <g transform="translate(28.940625 428.439) rotate(-90) scale(0.3 -0.3)">
      <defs>
       <path id="LiberationSans-49" d="M 591 0 
L 591 4403 
L 1188 4403 
L 1188 0 
L 591 0 
z
" transform="scale(0.015625)"/>
       <path id="LiberationSans-52" d="M 3638 0 
L 2494 1828 
L 1122 1828 
L 1122 0 
L 525 0 
L 525 4403 
L 2597 4403 
Q 3341 4403 3745 4070 
Q 4150 3738 4150 3144 
Q 4150 2653 3864 2318 
Q 3578 1984 3075 1897 
L 4325 0 
L 3638 0 
z
M 3550 3138 
Q 3550 3522 3289 3723 
Q 3028 3925 2538 3925 
L 1122 3925 
L 1122 2300 
L 2563 2300 
Q 3034 2300 3292 2520 
Q 3550 2741 3550 3138 
z
" transform="scale(0.015625)"/>
       <path id="LiberationSans-4b" d="M 3456 0 
L 1697 2125 
L 1122 1688 
L 1122 0 
L 525 0 
L 525 4403 
L 1122 4403 
L 1122 2197 
L 3244 4403 
L 3947 4403 
L 2072 2491 
L 4197 0 
L 3456 0 
z
" transform="scale(0.015625)"/>
       <path id="LiberationSans-b7" d="M 760 1394 
L 760 2081 
L 1370 2081 
L 1370 1394 
L 760 1394 
z
" transform="scale(0.015625)"/>
       <path id="STIXGeneral-Regular-32" d="M 3034 877 
L 2688 0 
L 186 0 
L 186 77 
L 1325 1286 
Q 1773 1754 1965 2144 
Q 2157 2534 2157 2950 
Q 2157 3379 1920 3616 
Q 1683 3853 1267 3853 
Q 922 3853 720 3673 
Q 518 3494 326 3021 
L 192 3053 
Q 301 3648 630 3987 
Q 960 4326 1523 4326 
Q 2054 4326 2380 4006 
Q 2707 3686 2707 3200 
Q 2707 2477 1888 1613 
L 832 486 
L 2330 486 
Q 2541 486 2665 569 
Q 2790 653 2944 915 
L 3034 877 
z
" transform="scale(0.015625)"/>
       <path id="LiberationSans-2f" d="M 0 -63 
L 1284 4638 
L 1778 4638 
L 506 -63 
L 0 -63 
z
" transform="scale(0.015625)"/>
       <path id="LiberationSans-57" d="M 4722 0 
L 4009 0 
L 3247 2797 
Q 3172 3059 3028 3738 
Q 2947 3375 2890 3131 
Q 2834 2888 2038 0 
L 1325 0 
L 28 4403 
L 650 4403 
L 1441 1606 
Q 1581 1081 1700 525 
Q 1775 869 1873 1275 
Q 1972 1681 2741 4403 
L 3313 4403 
L 4078 1663 
Q 4253 991 4353 525 
L 4381 634 
Q 4466 994 4519 1220 
Q 4572 1447 5397 4403 
L 6019 4403 
L 4722 0 
z
" transform="scale(0.015625)"/>
      </defs>
      <use xlink:href="#LiberationSans-49" transform="translate(0 0.409375)"/>
      <use xlink:href="#LiberationSans-54" transform="translate(27.783203 0.409375)"/>
      <use xlink:href="#LiberationSans-52" transform="translate(88.867188 0.409375)"/>
      <use xlink:href="#LiberationSans-20" transform="translate(161.083984 0.409375)"/>
      <use xlink:href="#LiberationSans-4b" transform="translate(188.867188 0.409375)"/>
      <use xlink:href="#LiberationSans-20" transform="translate(255.566406 0.409375)"/>
      <use xlink:href="#LiberationSans-b7" transform="translate(283.349609 0.409375)"/>
      <use xlink:href="#LiberationSans-20" transform="translate(316.650391 0.409375)"/>
      <use xlink:href="#LiberationSans-6d" transform="translate(344.433594 0.409375)"/>
      <use xlink:href="#STIXGeneral-Regular-32" transform="translate(429.277656 35.684375) scale(0.7)"/>
      <use xlink:href="#LiberationSans-2f" transform="translate(468.687021 0.409375)"/>
      <use xlink:href="#LiberationSans-57" transform="translate(496.470224 0.409375)"/>
     </g>
    </g>
    <g id="text_17">
     <!-- $\times\mathdefault{10^{−6}}\mathdefault{}$ -->
     <g transform="translate(59.465625 36.1875) scale(0.4 -0.4)">
      <defs>
       <path id="STIXGeneral-Regular-d7" d="M 3821 141 
L 3526 -160 
L 2048 1312 
L 570 -160 
L 275 134 
L 1747 1613 
L 275 3091 
L 576 3386 
L 2048 1914 
L 3526 3386 
L 3821 3098 
L 2349 1613 
L 3821 141 
z
" transform="scale(0.015625)"/>
       <path id="LiberationSans-2212" d="M 316 1900 
L 316 2356 
L 3425 2356 
L 3425 1900 
L 316 1900 
z
" transform="scale(0.015625)"/>
      </defs>
      <use xlink:href="#STIXGeneral-Regular-d7" transform="translate(0 0.140625)"/>
      <use xlink:href="#LiberationSans-31" transform="translate(63.999985 0.140625)"/>
      <use xlink:href="#LiberationSans-30" transform="translate(119.615219 0.140625)"/>
      <use xlink:href="#LiberationSans-2212" transform="translate(176.154946 37.120312) scale(0.7)"/>
      <use xlink:href="#LiberationSans-36" transform="translate(217.033852 37.120312) scale(0.7)"/>
     </g>
    </g>
   </g>
   <g id="line2d_60">
    <path d="M 88.775625 613.063091 
L 88.834257 66.514909 
L 88.892888 339.666514 
L 89.068784 503.361023 
L 89.303311 551.606227 
L 89.596469 572.872784 
L 89.94826 584.065299 
L 90.358682 590.515066 
L 90.827735 594.360747 
L 91.296789 596.404628 
L 91.707211 597.344799 
L 92.059002 597.717376 
L 92.410792 597.774979 
L 92.762582 597.56093 
L 93.173004 596.995213 
L 93.642058 595.939185 
L 94.169744 594.199269 
L 94.756061 591.482006 
L 95.40101 587.31148 
L 96.045959 581.494085 
L 96.690908 573.356071 
L 97.277225 563.05131 
L 97.863543 548.741478 
L 98.44986 528.836856 
L 99.094809 498.821005 
L 100.619234 422.756722 
L 100.853761 419.930762 
L 100.912392 419.870684 
L 101.029656 420.512688 
L 101.205551 423.273302 
L 101.49871 431.897246 
L 102.085027 457.597086 
L 103.140398 502.5278 
L 103.843979 523.061864 
L 104.488928 536.012052 
L 105.133877 544.863605 
L 105.778826 550.767037 
L 106.365143 554.239379 
L 106.892828 556.156266 
L 107.303251 556.980918 
L 107.655041 557.272806 
L 107.9482 557.242325 
L 108.241358 556.972954 
L 108.593149 556.341888 
L 109.062202 554.982939 
L 109.589888 552.739187 
L 110.234837 548.930833 
L 110.938418 543.367049 
L 111.759262 534.944094 
L 112.756001 522.10448 
L 115.10127 490.361837 
L 115.628956 486.332167 
L 116.039378 484.727983 
L 116.273905 484.449354 
L 116.4498 484.542509 
L 116.684327 485.054884 
L 117.036117 486.591973 
L 117.505171 489.846864 
L 118.267383 497.044178 
L 120.084967 514.741433 
L 120.847179 519.877338 
L 121.492128 522.778174 
L 122.019814 524.184119 
L 122.430236 524.714957 
L 122.723395 524.816081 
L 123.016553 524.704253 
L 123.368344 524.314916 
L 123.837397 523.419436 
L 124.482346 521.632685 
L 125.479086 518.081645 
L 128.293409 507.687863 
L 128.996989 505.925438 
L 129.466043 505.213595 
L 129.817833 505.002433 
L 130.110992 505.073538 
L 130.404151 505.391179 
L 130.755941 506.115901 
L 131.224995 507.670816 
L 131.811312 510.487864 
L 132.632156 515.642147 
L 135.094689 531.809211 
L 135.974165 535.907915 
L 136.795009 538.754534 
L 137.557221 540.668162 
L 138.319434 542.004322 
L 139.023014 542.813088 
L 139.667963 543.246835 
L 140.312912 543.419836 
L 140.957861 543.363154 
L 141.720074 543.054788 
L 142.834077 542.323207 
L 144.241238 541.444961 
L 145.062082 541.188441 
L 145.882926 541.175907 
L 146.821034 541.403333 
L 150.690728 542.631844 
L 151.570204 542.582323 
L 152.391048 542.3082 
L 153.153261 541.810178 
L 153.974105 540.980828 
L 154.853581 539.748751 
L 155.85032 537.947817 
L 157.022954 535.32881 
L 158.312852 531.863305 
L 159.954541 526.728401 
L 161.948019 520.596673 
L 162.944759 518.254535 
L 163.824235 516.738706 
L 164.703711 515.658495 
L 165.70045 514.794355 
L 166.755821 514.174061 
L 167.635297 513.897786 
L 168.456141 513.873688 
L 169.335617 514.087561 
L 170.80141 514.737285 
L 172.677625 515.483639 
L 173.85026 516.026404 
L 174.671104 516.652587 
L 175.491948 517.565236 
L 176.488688 519.025753 
L 178.247639 522.086934 
L 180.65154 526.646799 
L 182.645019 531.013725 
L 184.345339 534.541646 
L 185.40071 536.232779 
L 186.338818 537.321501 
L 187.218294 538.008104 
L 188.156401 538.449407 
L 189.211772 538.689566 
L 190.677565 538.774775 
L 193.726415 538.908822 
L 198.123795 539.374073 
L 199.061902 539.127527 
L 200.00001 538.647768 
L 200.938117 537.909079 
L 201.876225 536.888314 
L 202.872964 535.470224 
L 203.986967 533.467889 
L 205.276865 530.662134 
L 209.908772 520.072089 
L 211.081406 518.201269 
L 212.078146 517.010347 
L 212.957621 516.288946 
L 213.778466 515.905177 
L 214.540678 515.790803 
L 215.361522 515.893652 
L 216.416893 516.270099 
L 220.872904 518.371328 
L 222.221434 519.212153 
L 223.4527 520.253375 
L 224.80123 521.698591 
L 226.384287 523.738829 
L 228.260502 526.54253 
L 230.253981 529.92623 
L 234.475465 537.282889 
L 235.530836 538.536142 
L 236.468944 539.301733 
L 237.34842 539.733859 
L 238.227895 539.928897 
L 239.224635 539.915579 
L 240.280006 539.670856 
L 241.394009 539.182285 
L 242.918434 538.241581 
L 244.911912 537.043415 
L 246.494969 536.391984 
L 247.960762 535.732151 
L 248.89887 535.056041 
L 249.778346 534.150427 
L 250.775085 532.791057 
L 252.006351 530.709125 
L 256.696889 522.351674 
L 258.045419 520.646092 
L 259.393949 519.300333 
L 260.566583 518.428295 
L 261.446059 518.021796 
L 262.208272 517.901767 
L 262.911852 518.016211 
L 263.615433 518.353267 
L 264.494909 519.048515 
L 265.843439 520.465122 
L 267.836917 522.517174 
L 269.830396 524.16798 
L 272.117033 526.159912 
L 275.283147 528.935194 
L 279.094209 532.197216 
L 283.257061 535.731441 
L 284.605591 536.622448 
L 285.660962 537.074192 
L 286.657701 537.271121 
L 287.713072 537.258358 
L 288.944339 537.019178 
L 290.3515 536.516229 
L 291.758662 535.777083 
L 293.283086 534.715341 
L 295.276565 533.039958 
L 296.918254 531.40801 
L 298.325415 529.684237 
L 303.074585 523.476837 
L 305.185327 521.483088 
L 307.765123 519.316934 
L 309.289548 518.301744 
L 310.286287 517.894042 
L 311.0485 517.817317 
L 311.693449 517.960979 
L 312.397029 518.361298 
L 313.159242 519.073175 
L 314.155981 520.338909 
L 316.794409 523.85505 
L 317.908412 524.870891 
L 322.59895 528.653305 
L 324.29927 530.066775 
L 326.058222 531.209515 
L 328.872544 532.759218 
L 330.514233 533.413918 
L 332.507711 533.943946 
L 334.50119 534.266517 
L 335.84972 534.265196 
L 337.139618 534.040791 
L 338.722674 533.526588 
L 340.422994 532.752081 
L 341.771524 531.901344 
L 343.061422 530.815939 
L 344.70311 529.115919 
L 350.155861 523.267257 
L 351.211232 522.50847 
L 352.14934 522.107699 
L 353.028816 521.96918 
L 354.084187 522.036241 
L 361.237257 523.217351 
L 362.292628 523.766832 
L 363.465263 524.633345 
L 365.106951 526.156216 
L 369.269804 530.118875 
L 370.911492 531.356305 
L 372.084127 531.974557 
L 373.080866 532.264218 
L 374.136237 532.337594 
L 375.660662 532.182907 
L 377.185087 532.090619 
L 378.240458 532.253082 
L 379.471724 532.689654 
L 381.523835 533.450755 
L 382.520574 533.551836 
L 383.517313 533.420838 
L 384.983106 532.966211 
L 387.387007 532.242564 
L 389.556381 531.587474 
L 390.846279 530.931897 
L 392.370704 529.878348 
L 395.536817 527.62739 
L 399.582406 525.100506 
L 402.103571 523.211682 
L 402.924415 522.909732 
L 403.686627 522.87144 
L 404.44884 523.064041 
L 405.386947 523.551291 
L 409.784327 526.197554 
L 413.888548 527.907288 
L 415.647499 529.062472 
L 417.992768 530.584131 
L 419.165403 531.069415 
L 420.396669 531.336169 
L 424.676785 532.044493 
L 426.318474 532.275974 
L 427.784267 532.239079 
L 430.833116 531.852 
L 433.764703 531.354436 
L 434.937337 530.929466 
L 435.875445 530.362704 
L 436.813553 529.52905 
L 437.868924 528.276552 
L 440.683247 524.725027 
L 441.445459 524.192031 
L 442.14904 523.959835 
L 442.85262 523.956295 
L 443.732096 524.192161 
L 445.608312 525.024607 
L 446.956841 525.480905 
L 448.129476 525.644348 
L 449.30211 525.574971 
L 450.65064 525.252116 
L 453.464963 524.491801 
L 454.520334 524.494255 
L 455.7516 524.738678 
L 457.979606 525.46309 
L 459.328136 526.079832 
L 460.324875 526.781419 
L 461.380246 527.812807 
L 464.663623 531.28257 
L 465.484467 531.714332 
L 466.305311 531.899644 
L 467.243419 531.873067 
L 470.468164 531.555789 
L 471.69943 531.825739 
L 474.103331 532.424631 
L 475.158702 532.4065 
L 476.272704 532.154285 
L 478.442078 531.359347 
L 482.194509 529.864248 
L 485.419254 528.366573 
L 486.709152 528.080532 
L 488.35084 527.97166 
L 493.569064 527.741175 
L 495.034857 527.477294 
L 496.324755 527.00884 
L 500.018554 525.456817 
L 500.898029 525.461743 
L 501.836137 525.699404 
L 503.067403 526.26869 
L 507.347519 528.42936 
L 512.331216 530.649285 
L 515.086907 531.477274 
L 516.376805 532.197259 
L 518.604811 533.482612 
L 519.484287 533.700298 
L 520.246499 533.672537 
L 521.067343 533.414253 
L 522.005451 532.870428 
L 523.295349 531.837472 
L 526.637357 529.041619 
L 527.634097 528.525916 
L 528.513573 528.31799 
L 529.334417 528.362995 
L 530.213893 528.651976 
L 531.445159 529.33109 
L 533.028216 530.171652 
L 533.84906 530.368449 
L 534.611272 530.320008 
L 535.314853 530.054669 
L 536.077065 529.529704 
L 537.015173 528.585992 
L 538.363703 526.860379 
L 540.064023 524.735695 
L 540.943499 523.974328 
L 541.647079 523.632862 
L 542.292028 523.556139 
L 542.936977 523.707654 
L 543.640558 524.112322 
L 544.520034 524.897092 
L 547.979306 528.313448 
L 548.80015 528.663356 
L 549.620994 528.773905 
L 550.559102 528.663826 
L 551.907631 528.245255 
L 554.663323 527.344368 
L 555.777325 527.223936 
L 556.715433 527.338873 
L 557.594909 527.671507 
L 558.591648 528.309964 
L 560.174705 529.65516 
L 561.523235 530.677035 
L 562.40271 531.080205 
L 563.164923 531.201762 
L 563.927135 531.100805 
L 564.747979 530.762911 
L 565.803351 530.06331 
L 568.793569 527.90313 
L 569.731676 527.578286 
L 570.669784 527.495941 
L 571.725155 527.63556 
L 573.660002 528.171619 
L 575.594849 528.610031 
L 576.943379 528.692734 
L 578.116013 528.542345 
L 579.230016 528.17584 
L 580.578546 527.481565 
L 583.334237 525.98825 
L 584.44824 525.666287 
L 585.562242 525.577687 
L 586.793509 525.717455 
L 591.073625 526.438248 
L 593.770684 526.60412 
L 595.646899 527.027504 
L 598.461222 527.621302 
L 600.337437 528.096864 
L 604.1485 529.232661 
L 605.614293 529.299088 
L 612.005151 529.317988 
L 617.985587 529.384325 
L 619.09959 529.066116 
L 620.154961 528.531338 
L 621.562122 527.539557 
L 623.145179 526.471359 
L 624.024655 526.143653 
L 624.786867 526.087946 
L 625.607711 526.256571 
L 626.721714 526.747925 
L 629.30151 527.969219 
L 630.591408 528.283639 
L 631.822674 528.351904 
L 633.053941 528.19423 
L 634.461102 527.779006 
L 636.513213 526.91421 
L 640.207011 525.33594 
L 641.203751 525.179652 
L 642.083227 525.266015 
L 642.962702 525.584907 
L 644.018073 526.221936 
L 647.184187 528.305749 
L 648.474085 528.776896 
L 650.643459 529.278644 
L 652.871464 529.619955 
L 654.454521 529.624364 
L 657.855161 529.540974 
L 660.610852 529.611389 
L 662.076645 529.378861 
L 666.884447 528.420668 
L 669.640138 528.28025 
L 671.164563 528.094029 
L 672.278566 527.736749 
L 673.4512 527.119348 
L 674.975625 526.170044 
L 674.975625 526.170044 
" clip-path="url(#p1d8bb9a261)" style="fill: none; stroke: #ff0000; stroke-width: 1.5; stroke-linecap: square"/>
   </g>
   <g id="patch_3">
    <path d="M 59.465625 640.3905 
L 59.465625 39.1875 
" style="fill: none; stroke: #000000; stroke-width: 0.8; stroke-linejoin: miter; stroke-linecap: square"/>
   </g>
   <g id="patch_4">
    <path d="M 704.285625 640.3905 
L 704.285625 39.1875 
" style="fill: none; stroke: #000000; stroke-width: 0.8; stroke-linejoin: miter; stroke-linecap: square"/>
   </g>
   <g id="patch_5">
    <path d="M 59.465625 640.3905 
L 704.285625 640.3905 
" style="fill: none; stroke: #000000; stroke-width: 0.8; stroke-linejoin: miter; stroke-linecap: square"/>
   </g>
   <g id="patch_6">
    <path d="M 59.465625 39.1875 
L 704.285625 39.1875 
" style="fill: none; stroke: #000000; stroke-width: 0.8; stroke-linejoin: miter; stroke-linecap: square"/>
   </g>
  </g>
 </g>
 <defs>
  <clipPath id="p1d8bb9a261">
   <rect x="59.465625" y="39.1875" width="644.82" height="601.203"/>
  </clipPath>
 </defs>
</svg>
