<?xml version="1.0" encoding="utf-8" standalone="no"?>
<!DOCTYPE svg PUBLIC "-//W3C//DTD SVG 1.1//EN"
  "http://www.w3.org/Graphics/SVG/1.1/DTD/svg11.dtd">
<svg xmlns:xlink="http://www.w3.org/1999/xlink" width="710.016422pt" height="711.033187pt" viewBox="0 0 710.016422 711.033187" xmlns="http://www.w3.org/2000/svg" version="1.1">
 <metadata>
  <rdf:RDF xmlns:dc="http://purl.org/dc/elements/1.1/" xmlns:cc="http://creativecommons.org/ns#" xmlns:rdf="http://www.w3.org/1999/02/22-rdf-syntax-ns#">
   <cc:Work>
    <dc:type rdf:resource="http://purl.org/dc/dcmitype/StillImage"/>
    <dc:date>2025-02-05T17:27:22.795487</dc:date>
    <dc:format>image/svg+xml</dc:format>
    <dc:creator>
     <cc:Agent>
      <dc:title>Matplotlib v3.9.3, https://matplotlib.org/</dc:title>
     </cc:Agent>
    </dc:creator>
   </cc:Work>
  </rdf:RDF>
 </metadata>
 <defs>
  <style type="text/css">*{stroke-linejoin: round; stroke-linecap: butt}</style>
 </defs>
 <g id="figure_1">
  <g id="patch_1">
   <path d="M 0 711.033187 
L 710.016422 711.033187 
L 710.016422 0 
L 0 0 
z
" style="fill: #ffffff"/>
  </g>
  <g id="axes_1">
   <g id="patch_2">
    <path d="M 82.8 643.1985 
L 702.816422 643.1985 
L 702.816422 39.1875 
L 82.8 39.1875 
z
" style="fill: #ffffff"/>
   </g>
   <g id="matplotlib.axis_1">
    <g id="xtick_1">
     <g id="line2d_1">
      <defs>
       <path id="m298a36a2af" d="M 0 0 
L 0 -3.5 
" style="stroke: #000000; stroke-width: 0.8"/>
      </defs>
      <g>
       <use xlink:href="#m298a36a2af" x="110.869801" y="643.1985" style="stroke: #000000; stroke-width: 0.8"/>
      </g>
     </g>
     <g id="text_1">
      <!-- 0 -->
      <g transform="translate(103.362535 666.265062) scale(0.27 -0.27)">
       <defs>
        <path id="LiberationSans-30" d="M 3309 2203 
Q 3309 1100 2920 518 
Q 2531 -63 1772 -63 
Q 1013 -63 631 515 
Q 250 1094 250 2203 
Q 250 3338 620 3903 
Q 991 4469 1791 4469 
Q 2569 4469 2939 3897 
Q 3309 3325 3309 2203 
z
M 2738 2203 
Q 2738 3156 2517 3584 
Q 2297 4013 1791 4013 
Q 1272 4013 1045 3591 
Q 819 3169 819 2203 
Q 819 1266 1048 831 
Q 1278 397 1778 397 
Q 2275 397 2506 840 
Q 2738 1284 2738 2203 
z
" transform="scale(0.015625)"/>
       </defs>
       <use xlink:href="#LiberationSans-30"/>
      </g>
     </g>
    </g>
    <g id="xtick_2">
     <g id="line2d_2">
      <g>
       <use xlink:href="#m298a36a2af" x="223.633888" y="643.1985" style="stroke: #000000; stroke-width: 0.8"/>
      </g>
     </g>
     <g id="text_2">
      <!-- 2 -->
      <g transform="translate(216.126623 666.265062) scale(0.27 -0.27)">
       <defs>
        <path id="LiberationSans-32" d="M 322 0 
L 322 397 
Q 481 763 711 1042 
Q 941 1322 1194 1548 
Q 1447 1775 1695 1969 
Q 1944 2163 2144 2356 
Q 2344 2550 2467 2762 
Q 2591 2975 2591 3244 
Q 2591 3606 2378 3806 
Q 2166 4006 1788 4006 
Q 1428 4006 1195 3811 
Q 963 3616 922 3263 
L 347 3316 
Q 409 3844 795 4156 
Q 1181 4469 1788 4469 
Q 2453 4469 2811 4155 
Q 3169 3841 3169 3263 
Q 3169 3006 3051 2753 
Q 2934 2500 2703 2247 
Q 2472 1994 1819 1463 
Q 1459 1169 1246 933 
Q 1034 697 941 478 
L 3238 478 
L 3238 0 
L 322 0 
z
" transform="scale(0.015625)"/>
       </defs>
       <use xlink:href="#LiberationSans-32"/>
      </g>
     </g>
    </g>
    <g id="xtick_3">
     <g id="line2d_3">
      <g>
       <use xlink:href="#m298a36a2af" x="336.397976" y="643.1985" style="stroke: #000000; stroke-width: 0.8"/>
      </g>
     </g>
     <g id="text_3">
      <!-- 4 -->
      <g transform="translate(328.89071 666.265062) scale(0.27 -0.27)">
       <defs>
        <path id="LiberationSans-34" d="M 2753 997 
L 2753 0 
L 2222 0 
L 2222 997 
L 147 997 
L 147 1434 
L 2163 4403 
L 2753 4403 
L 2753 1441 
L 3372 1441 
L 3372 997 
L 2753 997 
z
M 2222 3769 
Q 2216 3750 2134 3603 
Q 2053 3456 2013 3397 
L 884 1734 
L 716 1503 
L 666 1441 
L 2222 1441 
L 2222 3769 
z
" transform="scale(0.015625)"/>
       </defs>
       <use xlink:href="#LiberationSans-34"/>
      </g>
     </g>
    </g>
    <g id="xtick_4">
     <g id="line2d_4">
      <g>
       <use xlink:href="#m298a36a2af" x="449.162064" y="643.1985" style="stroke: #000000; stroke-width: 0.8"/>
      </g>
     </g>
     <g id="text_4">
      <!-- 6 -->
      <g transform="translate(441.654798 666.265062) scale(0.27 -0.27)">
       <defs>
        <path id="LiberationSans-36" d="M 3278 1441 
Q 3278 744 2900 340 
Q 2522 -63 1856 -63 
Q 1113 -63 719 490 
Q 325 1044 325 2100 
Q 325 3244 734 3856 
Q 1144 4469 1900 4469 
Q 2897 4469 3156 3572 
L 2619 3475 
Q 2453 4013 1894 4013 
Q 1413 4013 1148 3564 
Q 884 3116 884 2266 
Q 1038 2550 1316 2698 
Q 1594 2847 1953 2847 
Q 2563 2847 2920 2465 
Q 3278 2084 3278 1441 
z
M 2706 1416 
Q 2706 1894 2472 2153 
Q 2238 2413 1819 2413 
Q 1425 2413 1183 2183 
Q 941 1953 941 1550 
Q 941 1041 1192 716 
Q 1444 391 1838 391 
Q 2244 391 2475 664 
Q 2706 938 2706 1416 
z
" transform="scale(0.015625)"/>
       </defs>
       <use xlink:href="#LiberationSans-36"/>
      </g>
     </g>
    </g>
    <g id="xtick_5">
     <g id="line2d_5">
      <g>
       <use xlink:href="#m298a36a2af" x="561.926152" y="643.1985" style="stroke: #000000; stroke-width: 0.8"/>
      </g>
     </g>
     <g id="text_5">
      <!-- 8 -->
      <g transform="translate(554.418886 666.265062) scale(0.27 -0.27)">
       <defs>
        <path id="LiberationSans-38" d="M 3281 1228 
Q 3281 619 2893 278 
Q 2506 -63 1781 -63 
Q 1075 -63 676 271 
Q 278 606 278 1222 
Q 278 1653 525 1947 
Q 772 2241 1156 2303 
L 1156 2316 
Q 797 2400 589 2681 
Q 381 2963 381 3341 
Q 381 3844 757 4156 
Q 1134 4469 1769 4469 
Q 2419 4469 2795 4162 
Q 3172 3856 3172 3334 
Q 3172 2956 2962 2675 
Q 2753 2394 2391 2322 
L 2391 2309 
Q 2813 2241 3047 1952 
Q 3281 1663 3281 1228 
z
M 2588 3303 
Q 2588 4050 1769 4050 
Q 1372 4050 1164 3862 
Q 956 3675 956 3303 
Q 956 2925 1170 2726 
Q 1384 2528 1775 2528 
Q 2172 2528 2380 2711 
Q 2588 2894 2588 3303 
z
M 2697 1281 
Q 2697 1691 2453 1898 
Q 2209 2106 1769 2106 
Q 1341 2106 1100 1882 
Q 859 1659 859 1269 
Q 859 359 1788 359 
Q 2247 359 2472 579 
Q 2697 800 2697 1281 
z
" transform="scale(0.015625)"/>
       </defs>
       <use xlink:href="#LiberationSans-38"/>
      </g>
     </g>
    </g>
    <g id="xtick_6">
     <g id="line2d_6">
      <g>
       <use xlink:href="#m298a36a2af" x="674.690239" y="643.1985" style="stroke: #000000; stroke-width: 0.8"/>
      </g>
     </g>
     <g id="text_6">
      <!-- 10 -->
      <g transform="translate(659.675708 666.265062) scale(0.27 -0.27)">
       <defs>
        <path id="LiberationSans-31" d="M 488 0 
L 488 478 
L 1609 478 
L 1609 3866 
L 616 3156 
L 616 3688 
L 1656 4403 
L 2175 4403 
L 2175 478 
L 3247 478 
L 3247 0 
L 488 0 
z
" transform="scale(0.015625)"/>
       </defs>
       <use xlink:href="#LiberationSans-31"/>
       <use xlink:href="#LiberationSans-30" x="55.615234"/>
      </g>
     </g>
    </g>
    <g id="xtick_7">
     <g id="line2d_7">
      <defs>
       <path id="m79f0964373" d="M 0 0 
L 0 -2 
" style="stroke: #000000; stroke-width: 0.6"/>
      </defs>
      <g>
       <use xlink:href="#m79f0964373" x="139.060822" y="643.1985" style="stroke: #000000; stroke-width: 0.6"/>
      </g>
     </g>
    </g>
    <g id="xtick_8">
     <g id="line2d_8">
      <g>
       <use xlink:href="#m79f0964373" x="167.251844" y="643.1985" style="stroke: #000000; stroke-width: 0.6"/>
      </g>
     </g>
    </g>
    <g id="xtick_9">
     <g id="line2d_9">
      <g>
       <use xlink:href="#m79f0964373" x="195.442866" y="643.1985" style="stroke: #000000; stroke-width: 0.6"/>
      </g>
     </g>
    </g>
    <g id="xtick_10">
     <g id="line2d_10">
      <g>
       <use xlink:href="#m79f0964373" x="251.82491" y="643.1985" style="stroke: #000000; stroke-width: 0.6"/>
      </g>
     </g>
    </g>
    <g id="xtick_11">
     <g id="line2d_11">
      <g>
       <use xlink:href="#m79f0964373" x="280.015932" y="643.1985" style="stroke: #000000; stroke-width: 0.6"/>
      </g>
     </g>
    </g>
    <g id="xtick_12">
     <g id="line2d_12">
      <g>
       <use xlink:href="#m79f0964373" x="308.206954" y="643.1985" style="stroke: #000000; stroke-width: 0.6"/>
      </g>
     </g>
    </g>
    <g id="xtick_13">
     <g id="line2d_13">
      <g>
       <use xlink:href="#m79f0964373" x="364.588998" y="643.1985" style="stroke: #000000; stroke-width: 0.6"/>
      </g>
     </g>
    </g>
    <g id="xtick_14">
     <g id="line2d_14">
      <g>
       <use xlink:href="#m79f0964373" x="392.78002" y="643.1985" style="stroke: #000000; stroke-width: 0.6"/>
      </g>
     </g>
    </g>
    <g id="xtick_15">
     <g id="line2d_15">
      <g>
       <use xlink:href="#m79f0964373" x="420.971042" y="643.1985" style="stroke: #000000; stroke-width: 0.6"/>
      </g>
     </g>
    </g>
    <g id="xtick_16">
     <g id="line2d_16">
      <g>
       <use xlink:href="#m79f0964373" x="477.353086" y="643.1985" style="stroke: #000000; stroke-width: 0.6"/>
      </g>
     </g>
    </g>
    <g id="xtick_17">
     <g id="line2d_17">
      <g>
       <use xlink:href="#m79f0964373" x="505.544108" y="643.1985" style="stroke: #000000; stroke-width: 0.6"/>
      </g>
     </g>
    </g>
    <g id="xtick_18">
     <g id="line2d_18">
      <g>
       <use xlink:href="#m79f0964373" x="533.73513" y="643.1985" style="stroke: #000000; stroke-width: 0.6"/>
      </g>
     </g>
    </g>
    <g id="xtick_19">
     <g id="line2d_19">
      <g>
       <use xlink:href="#m79f0964373" x="590.117173" y="643.1985" style="stroke: #000000; stroke-width: 0.6"/>
      </g>
     </g>
    </g>
    <g id="xtick_20">
     <g id="line2d_20">
      <g>
       <use xlink:href="#m79f0964373" x="618.308195" y="643.1985" style="stroke: #000000; stroke-width: 0.6"/>
      </g>
     </g>
    </g>
    <g id="xtick_21">
     <g id="line2d_21">
      <g>
       <use xlink:href="#m79f0964373" x="646.499217" y="643.1985" style="stroke: #000000; stroke-width: 0.6"/>
      </g>
     </g>
    </g>
    <g id="text_7">
     <!-- Time ps -->
     <g transform="translate(340.031648 697.608187) scale(0.3 -0.3)">
      <defs>
       <path id="LiberationSans-54" d="M 2250 3916 
L 2250 0 
L 1656 0 
L 1656 3916 
L 144 3916 
L 144 4403 
L 3763 4403 
L 3763 3916 
L 2250 3916 
z
" transform="scale(0.015625)"/>
       <path id="LiberationSans-69" d="M 428 4100 
L 428 4638 
L 991 4638 
L 991 4100 
L 428 4100 
z
M 428 0 
L 428 3381 
L 991 3381 
L 991 0 
L 428 0 
z
" transform="scale(0.015625)"/>
       <path id="LiberationSans-6d" d="M 2400 0 
L 2400 2144 
Q 2400 2634 2265 2821 
Q 2131 3009 1781 3009 
Q 1422 3009 1212 2734 
Q 1003 2459 1003 1959 
L 1003 0 
L 444 0 
L 444 2659 
Q 444 3250 425 3381 
L 956 3381 
Q 959 3366 962 3297 
Q 966 3228 970 3139 
Q 975 3050 981 2803 
L 991 2803 
Q 1172 3163 1406 3303 
Q 1641 3444 1978 3444 
Q 2363 3444 2586 3291 
Q 2809 3138 2897 2803 
L 2906 2803 
Q 3081 3144 3329 3294 
Q 3578 3444 3931 3444 
Q 4444 3444 4676 3166 
Q 4909 2888 4909 2253 
L 4909 0 
L 4353 0 
L 4353 2144 
Q 4353 2634 4218 2821 
Q 4084 3009 3734 3009 
Q 3366 3009 3161 2736 
Q 2956 2463 2956 1959 
L 2956 0 
L 2400 0 
z
" transform="scale(0.015625)"/>
       <path id="LiberationSans-65" d="M 863 1572 
Q 863 991 1103 675 
Q 1344 359 1806 359 
Q 2172 359 2392 506 
Q 2613 653 2691 878 
L 3184 738 
Q 2881 -63 1806 -63 
Q 1056 -63 664 384 
Q 272 831 272 1713 
Q 272 2550 664 2997 
Q 1056 3444 1784 3444 
Q 3275 3444 3275 1647 
L 3275 1572 
L 863 1572 
z
M 2694 2003 
Q 2647 2538 2422 2783 
Q 2197 3028 1775 3028 
Q 1366 3028 1127 2754 
Q 888 2481 869 2003 
L 2694 2003 
z
" transform="scale(0.015625)"/>
       <path id="LiberationSans-20" transform="scale(0.015625)"/>
       <path id="LiberationSans-70" d="M 3291 1706 
Q 3291 -63 2047 -63 
Q 1266 -63 997 525 
L 981 525 
Q 994 500 994 -6 
L 994 -1328 
L 431 -1328 
L 431 2691 
Q 431 3213 413 3381 
L 956 3381 
Q 959 3369 965 3292 
Q 972 3216 980 3056 
Q 988 2897 988 2838 
L 1000 2838 
Q 1150 3150 1397 3295 
Q 1644 3441 2047 3441 
Q 2672 3441 2981 3022 
Q 3291 2603 3291 1706 
z
M 2700 1694 
Q 2700 2400 2509 2703 
Q 2319 3006 1903 3006 
Q 1569 3006 1380 2865 
Q 1191 2725 1092 2426 
Q 994 2128 994 1650 
Q 994 984 1206 668 
Q 1419 353 1897 353 
Q 2316 353 2508 661 
Q 2700 969 2700 1694 
z
" transform="scale(0.015625)"/>
       <path id="LiberationSans-73" d="M 2969 934 
Q 2969 456 2608 196 
Q 2247 -63 1597 -63 
Q 966 -63 623 145 
Q 281 353 178 794 
L 675 891 
Q 747 619 972 492 
Q 1197 366 1597 366 
Q 2025 366 2223 497 
Q 2422 628 2422 891 
Q 2422 1091 2284 1216 
Q 2147 1341 1841 1422 
L 1438 1528 
Q 953 1653 748 1773 
Q 544 1894 428 2066 
Q 313 2238 313 2488 
Q 313 2950 642 3192 
Q 972 3434 1603 3434 
Q 2163 3434 2492 3237 
Q 2822 3041 2909 2606 
L 2403 2544 
Q 2356 2769 2151 2889 
Q 1947 3009 1603 3009 
Q 1222 3009 1040 2893 
Q 859 2778 859 2544 
Q 859 2400 934 2306 
Q 1009 2213 1156 2147 
Q 1303 2081 1775 1966 
Q 2222 1853 2419 1758 
Q 2616 1663 2730 1547 
Q 2844 1431 2906 1279 
Q 2969 1128 2969 934 
z
" transform="scale(0.015625)"/>
      </defs>
      <use xlink:href="#LiberationSans-54"/>
      <use xlink:href="#LiberationSans-69" x="57.333984"/>
      <use xlink:href="#LiberationSans-6d" x="79.550781"/>
      <use xlink:href="#LiberationSans-65" x="162.851562"/>
      <use xlink:href="#LiberationSans-20" x="218.466797"/>
      <use xlink:href="#LiberationSans-70" x="246.25"/>
      <use xlink:href="#LiberationSans-73" x="301.865234"/>
     </g>
    </g>
   </g>
   <g id="matplotlib.axis_2">
    <g id="ytick_1">
     <g id="line2d_22">
      <defs>
       <path id="m71aac8735a" d="M 0 0 
L 3.5 0 
" style="stroke: #000000; stroke-width: 0.8"/>
      </defs>
      <g>
       <use xlink:href="#m71aac8735a" x="82.8" y="632.11462" style="stroke: #000000; stroke-width: 0.8"/>
      </g>
     </g>
     <g id="text_8">
      <!-- $\mathdefault{0.0}$ -->
      <g transform="translate(41.5 641.897901) scale(0.27 -0.27)">
       <defs>
        <path id="LiberationSans-2e" d="M 584 0 
L 584 684 
L 1194 684 
L 1194 0 
L 584 0 
z
" transform="scale(0.015625)"/>
       </defs>
       <use xlink:href="#LiberationSans-30" transform="translate(0 0.171875)"/>
       <use xlink:href="#LiberationSans-2e" transform="translate(55.615234 0.171875)"/>
       <use xlink:href="#LiberationSans-30" transform="translate(83.398438 0.171875)"/>
      </g>
     </g>
    </g>
    <g id="ytick_2">
     <g id="line2d_23">
      <g>
       <use xlink:href="#m71aac8735a" x="82.8" y="523.242852" style="stroke: #000000; stroke-width: 0.8"/>
      </g>
     </g>
     <g id="text_9">
      <!-- $\mathdefault{0.2}$ -->
      <g transform="translate(41.5 533.026133) scale(0.27 -0.27)">
       <use xlink:href="#LiberationSans-30" transform="translate(0 0.171875)"/>
       <use xlink:href="#LiberationSans-2e" transform="translate(55.615234 0.171875)"/>
       <use xlink:href="#LiberationSans-32" transform="translate(83.398438 0.171875)"/>
      </g>
     </g>
    </g>
    <g id="ytick_3">
     <g id="line2d_24">
      <g>
       <use xlink:href="#m71aac8735a" x="82.8" y="414.371084" style="stroke: #000000; stroke-width: 0.8"/>
      </g>
     </g>
     <g id="text_10">
      <!-- $\mathdefault{0.4}$ -->
      <g transform="translate(41.5 424.154365) scale(0.27 -0.27)">
       <use xlink:href="#LiberationSans-30" transform="translate(0 0.171875)"/>
       <use xlink:href="#LiberationSans-2e" transform="translate(55.615234 0.171875)"/>
       <use xlink:href="#LiberationSans-34" transform="translate(83.398438 0.171875)"/>
      </g>
     </g>
    </g>
    <g id="ytick_4">
     <g id="line2d_25">
      <g>
       <use xlink:href="#m71aac8735a" x="82.8" y="305.499316" style="stroke: #000000; stroke-width: 0.8"/>
      </g>
     </g>
     <g id="text_11">
      <!-- $\mathdefault{0.6}$ -->
      <g transform="translate(41.5 315.282597) scale(0.27 -0.27)">
       <use xlink:href="#LiberationSans-30" transform="translate(0 0.171875)"/>
       <use xlink:href="#LiberationSans-2e" transform="translate(55.615234 0.171875)"/>
       <use xlink:href="#LiberationSans-36" transform="translate(83.398438 0.171875)"/>
      </g>
     </g>
    </g>
    <g id="ytick_5">
     <g id="line2d_26">
      <g>
       <use xlink:href="#m71aac8735a" x="82.8" y="196.627548" style="stroke: #000000; stroke-width: 0.8"/>
      </g>
     </g>
     <g id="text_12">
      <!-- $\mathdefault{0.8}$ -->
      <g transform="translate(41.5 206.410829) scale(0.27 -0.27)">
       <use xlink:href="#LiberationSans-30" transform="translate(0 0.171875)"/>
       <use xlink:href="#LiberationSans-2e" transform="translate(55.615234 0.171875)"/>
       <use xlink:href="#LiberationSans-38" transform="translate(83.398438 0.171875)"/>
      </g>
     </g>
    </g>
    <g id="ytick_6">
     <g id="line2d_27">
      <g>
       <use xlink:href="#m71aac8735a" x="82.8" y="87.75578" style="stroke: #000000; stroke-width: 0.8"/>
      </g>
     </g>
     <g id="text_13">
      <!-- $\mathdefault{1.0}$ -->
      <g transform="translate(41.5 97.539061) scale(0.27 -0.27)">
       <use xlink:href="#LiberationSans-31" transform="translate(0 0.171875)"/>
       <use xlink:href="#LiberationSans-2e" transform="translate(55.615234 0.171875)"/>
       <use xlink:href="#LiberationSans-30" transform="translate(83.398438 0.171875)"/>
      </g>
     </g>
    </g>
    <g id="ytick_7">
     <g id="line2d_28">
      <defs>
       <path id="m438cb8b0cb" d="M 0 0 
L 2 0 
" style="stroke: #000000; stroke-width: 0.6"/>
      </defs>
      <g>
       <use xlink:href="#m438cb8b0cb" x="82.8" y="604.896678" style="stroke: #000000; stroke-width: 0.6"/>
      </g>
     </g>
    </g>
    <g id="ytick_8">
     <g id="line2d_29">
      <g>
       <use xlink:href="#m438cb8b0cb" x="82.8" y="577.678736" style="stroke: #000000; stroke-width: 0.6"/>
      </g>
     </g>
    </g>
    <g id="ytick_9">
     <g id="line2d_30">
      <g>
       <use xlink:href="#m438cb8b0cb" x="82.8" y="550.460794" style="stroke: #000000; stroke-width: 0.6"/>
      </g>
     </g>
    </g>
    <g id="ytick_10">
     <g id="line2d_31">
      <g>
       <use xlink:href="#m438cb8b0cb" x="82.8" y="496.02491" style="stroke: #000000; stroke-width: 0.6"/>
      </g>
     </g>
    </g>
    <g id="ytick_11">
     <g id="line2d_32">
      <g>
       <use xlink:href="#m438cb8b0cb" x="82.8" y="468.806968" style="stroke: #000000; stroke-width: 0.6"/>
      </g>
     </g>
    </g>
    <g id="ytick_12">
     <g id="line2d_33">
      <g>
       <use xlink:href="#m438cb8b0cb" x="82.8" y="441.589026" style="stroke: #000000; stroke-width: 0.6"/>
      </g>
     </g>
    </g>
    <g id="ytick_13">
     <g id="line2d_34">
      <g>
       <use xlink:href="#m438cb8b0cb" x="82.8" y="387.153142" style="stroke: #000000; stroke-width: 0.6"/>
      </g>
     </g>
    </g>
    <g id="ytick_14">
     <g id="line2d_35">
      <g>
       <use xlink:href="#m438cb8b0cb" x="82.8" y="359.9352" style="stroke: #000000; stroke-width: 0.6"/>
      </g>
     </g>
    </g>
    <g id="ytick_15">
     <g id="line2d_36">
      <g>
       <use xlink:href="#m438cb8b0cb" x="82.8" y="332.717258" style="stroke: #000000; stroke-width: 0.6"/>
      </g>
     </g>
    </g>
    <g id="ytick_16">
     <g id="line2d_37">
      <g>
       <use xlink:href="#m438cb8b0cb" x="82.8" y="278.281374" style="stroke: #000000; stroke-width: 0.6"/>
      </g>
     </g>
    </g>
    <g id="ytick_17">
     <g id="line2d_38">
      <g>
       <use xlink:href="#m438cb8b0cb" x="82.8" y="251.063432" style="stroke: #000000; stroke-width: 0.6"/>
      </g>
     </g>
    </g>
    <g id="ytick_18">
     <g id="line2d_39">
      <g>
       <use xlink:href="#m438cb8b0cb" x="82.8" y="223.84549" style="stroke: #000000; stroke-width: 0.6"/>
      </g>
     </g>
    </g>
    <g id="ytick_19">
     <g id="line2d_40">
      <g>
       <use xlink:href="#m438cb8b0cb" x="82.8" y="169.409606" style="stroke: #000000; stroke-width: 0.6"/>
      </g>
     </g>
    </g>
    <g id="ytick_20">
     <g id="line2d_41">
      <g>
       <use xlink:href="#m438cb8b0cb" x="82.8" y="142.191664" style="stroke: #000000; stroke-width: 0.6"/>
      </g>
     </g>
    </g>
    <g id="ytick_21">
     <g id="line2d_42">
      <g>
       <use xlink:href="#m438cb8b0cb" x="82.8" y="114.973722" style="stroke: #000000; stroke-width: 0.6"/>
      </g>
     </g>
    </g>
    <g id="ytick_22">
     <g id="line2d_43">
      <g>
       <use xlink:href="#m438cb8b0cb" x="82.8" y="60.537838" style="stroke: #000000; stroke-width: 0.6"/>
      </g>
     </g>
    </g>
    <g id="text_14">
     <!-- ITC $\mathrm{W} / (\mathrm{K} \cdot \mathrm{m}^2)$ -->
     <g transform="translate(31.275 435.243) rotate(-90) scale(0.3 -0.3)">
      <defs>
       <path id="LiberationSans-49" d="M 591 0 
L 591 4403 
L 1188 4403 
L 1188 0 
L 591 0 
z
" transform="scale(0.015625)"/>
       <path id="LiberationSans-43" d="M 2475 3981 
Q 1744 3981 1337 3511 
Q 931 3041 931 2222 
Q 931 1413 1354 920 
Q 1778 428 2500 428 
Q 3425 428 3891 1344 
L 4378 1100 
Q 4106 531 3614 234 
Q 3122 -63 2472 -63 
Q 1806 -63 1320 214 
Q 834 491 579 1005 
Q 325 1519 325 2222 
Q 325 3275 894 3872 
Q 1463 4469 2469 4469 
Q 3172 4469 3644 4194 
Q 4116 3919 4338 3378 
L 3772 3191 
Q 3619 3575 3280 3778 
Q 2941 3981 2475 3981 
z
" transform="scale(0.015625)"/>
       <path id="STIXGeneral-Regular-57" d="M 5965 4237 
L 5965 4115 
Q 5709 4064 5616 3990 
Q 5523 3917 5434 3667 
Q 4704 1709 4128 -70 
L 4032 -70 
Q 3642 1011 3008 2637 
L 2022 -70 
L 1926 -70 
Q 1709 576 1277 1753 
Q 845 2931 698 3347 
Q 538 3808 406 3958 
Q 275 4109 32 4115 
L 32 4237 
L 1594 4237 
L 1594 4115 
Q 1357 4109 1270 4064 
Q 1184 4019 1184 3917 
Q 1184 3808 1254 3616 
L 2176 1210 
L 2842 3021 
L 2662 3501 
Q 2509 3917 2400 4013 
Q 2291 4109 2010 4115 
L 2010 4237 
L 3706 4237 
L 3706 4115 
Q 3213 4102 3213 3891 
Q 3213 3808 3322 3520 
L 4237 1190 
L 5043 3360 
Q 5152 3667 5152 3853 
Q 5152 4109 4704 4115 
L 4704 4237 
L 5965 4237 
z
" transform="scale(0.015625)"/>
       <path id="STIXGeneral-Regular-2f" d="M 1837 4326 
L 378 -90 
L -58 -90 
L 1408 4326 
L 1837 4326 
z
" transform="scale(0.015625)"/>
       <path id="STIXGeneral-Regular-28" d="M 1946 -1030 
L 1869 -1133 
Q 1126 -710 716 32 
Q 307 774 307 1613 
Q 307 3386 1888 4326 
L 1946 4224 
Q 1293 3667 1075 3126 
Q 858 2586 858 1632 
Q 858 685 1082 96 
Q 1306 -493 1946 -1030 
z
" transform="scale(0.015625)"/>
       <path id="STIXGeneral-Regular-4b" d="M 4627 0 
L 2688 0 
L 2688 122 
L 2861 128 
Q 3130 134 3130 282 
Q 3130 397 2922 643 
Q 2714 890 2253 1370 
L 1613 2029 
L 1446 1894 
L 1446 710 
Q 1446 352 1548 253 
Q 1651 154 2016 122 
L 2016 0 
L 211 0 
L 211 122 
Q 589 141 691 262 
Q 794 384 794 800 
L 794 3514 
Q 794 3872 691 3981 
Q 589 4090 218 4115 
L 218 4237 
L 2022 4237 
L 2022 4115 
Q 1632 4090 1539 3987 
Q 1446 3885 1446 3507 
L 1446 2227 
L 2586 3277 
Q 2861 3533 2973 3667 
Q 3085 3802 3085 3910 
Q 3085 4013 3030 4057 
Q 2976 4102 2822 4109 
L 2662 4115 
L 2662 4237 
L 4320 4237 
L 4320 4115 
Q 3994 4090 3824 4003 
Q 3654 3917 3322 3597 
L 2131 2458 
L 3629 819 
Q 4026 384 4214 253 
Q 4403 122 4627 122 
L 4627 0 
z
" transform="scale(0.015625)"/>
       <path id="STIXGeneral-Regular-22c5" d="M 1187 1888 
Q 1299 1773 1299 1619 
Q 1299 1466 1187 1350 
Q 1075 1235 921 1235 
Q 768 1235 649 1353 
Q 531 1472 531 1619 
Q 531 1766 649 1884 
Q 768 2003 921 2003 
Q 1075 2003 1187 1888 
z
" transform="scale(0.015625)"/>
       <path id="STIXGeneral-Regular-6d" d="M 4960 0 
L 3565 0 
L 3565 96 
Q 3834 122 3907 208 
Q 3981 294 3981 576 
L 3981 1894 
Q 3981 2278 3869 2444 
Q 3757 2611 3488 2611 
Q 3264 2611 3107 2521 
Q 2950 2432 2803 2221 
L 2803 608 
Q 2803 301 2896 201 
Q 2989 102 3264 96 
L 3264 0 
L 1830 0 
L 1830 96 
Q 2112 115 2189 188 
Q 2266 262 2266 550 
L 2266 1901 
Q 2266 2611 1850 2611 
Q 1670 2611 1468 2531 
Q 1267 2451 1171 2336 
Q 1088 2240 1088 2227 
L 1088 448 
Q 1088 243 1177 176 
Q 1267 109 1523 96 
L 1523 0 
L 102 0 
L 102 96 
Q 371 102 460 195 
Q 550 288 550 563 
L 550 2150 
Q 550 2387 499 2480 
Q 448 2573 326 2573 
Q 230 2573 122 2547 
L 122 2656 
Q 557 2778 1011 2944 
L 1062 2925 
L 1062 2451 
L 1075 2451 
Q 1363 2752 1584 2848 
Q 1805 2944 2054 2944 
Q 2560 2944 2733 2406 
Q 3232 2944 3776 2944 
Q 4518 2944 4518 1792 
L 4518 493 
Q 4518 282 4582 202 
Q 4646 122 4794 109 
L 4960 96 
L 4960 0 
z
" transform="scale(0.015625)"/>
       <path id="STIXGeneral-Regular-32" d="M 3034 877 
L 2688 0 
L 186 0 
L 186 77 
L 1325 1286 
Q 1773 1754 1965 2144 
Q 2157 2534 2157 2950 
Q 2157 3379 1920 3616 
Q 1683 3853 1267 3853 
Q 922 3853 720 3673 
Q 518 3494 326 3021 
L 192 3053 
Q 301 3648 630 3987 
Q 960 4326 1523 4326 
Q 2054 4326 2380 4006 
Q 2707 3686 2707 3200 
Q 2707 2477 1888 1613 
L 832 486 
L 2330 486 
Q 2541 486 2665 569 
Q 2790 653 2944 915 
L 3034 877 
z
" transform="scale(0.015625)"/>
       <path id="STIXGeneral-Regular-29" d="M 186 4224 
L 262 4326 
Q 992 3891 1408 3148 
Q 1824 2406 1824 1581 
Q 1824 -166 243 -1133 
L 186 -1030 
Q 845 -486 1059 54 
Q 1274 595 1274 1562 
Q 1274 2534 1059 3120 
Q 845 3706 186 4224 
z
" transform="scale(0.015625)"/>
      </defs>
      <use xlink:href="#LiberationSans-49" transform="translate(0 0.409375)"/>
      <use xlink:href="#LiberationSans-54" transform="translate(27.783203 0.409375)"/>
      <use xlink:href="#LiberationSans-43" transform="translate(88.867188 0.409375)"/>
      <use xlink:href="#LiberationSans-20" transform="translate(161.083984 0.409375)"/>
      <use xlink:href="#STIXGeneral-Regular-57" transform="translate(188.867188 0.409375)"/>
      <use xlink:href="#STIXGeneral-Regular-2f" transform="translate(283.267181 0.409375)"/>
      <use xlink:href="#STIXGeneral-Regular-28" transform="translate(311.067169 0.409375)"/>
      <use xlink:href="#STIXGeneral-Regular-4b" transform="translate(344.367157 0.409375)"/>
      <use xlink:href="#STIXGeneral-Regular-22c5" transform="translate(431.007135 0.409375)"/>
      <use xlink:href="#STIXGeneral-Regular-6d" transform="translate(474.047122 0.409375)"/>
      <use xlink:href="#STIXGeneral-Regular-32" transform="translate(553.390391 35.684375) scale(0.7)"/>
      <use xlink:href="#STIXGeneral-Regular-29" transform="translate(592.799756 0.409375)"/>
     </g>
    </g>
    <g id="text_15">
     <!-- $\times\mathdefault{10^{7}}\mathdefault{}$ -->
     <g transform="translate(82.8 36.1875) scale(0.4 -0.4)">
      <defs>
       <path id="STIXGeneral-Regular-d7" d="M 3821 141 
L 3526 -160 
L 2048 1312 
L 570 -160 
L 275 134 
L 1747 1613 
L 275 3091 
L 576 3386 
L 2048 1914 
L 3526 3386 
L 3821 3098 
L 2349 1613 
L 3821 141 
z
" transform="scale(0.015625)"/>
       <path id="LiberationSans-37" d="M 3238 3947 
Q 2563 2916 2284 2331 
Q 2006 1747 1867 1178 
Q 1728 609 1728 0 
L 1141 0 
Q 1141 844 1498 1776 
Q 1856 2709 2694 3925 
L 328 3925 
L 328 4403 
L 3238 4403 
L 3238 3947 
z
" transform="scale(0.015625)"/>
      </defs>
      <use xlink:href="#STIXGeneral-Regular-d7" transform="translate(0 0.8625)"/>
      <use xlink:href="#LiberationSans-31" transform="translate(63.999985 0.8625)"/>
      <use xlink:href="#LiberationSans-30" transform="translate(119.615219 0.8625)"/>
      <use xlink:href="#LiberationSans-37" transform="translate(176.154946 37.842188) scale(0.7)"/>
     </g>
    </g>
   </g>
   <g id="line2d_44">
    <path d="M 110.982565 615.743455 
L 112.166588 302.658383 
L 112.843172 174.35357 
L 113.406993 105.486264 
L 113.858049 75.698895 
L 114.139959 67.772772 
L 114.309105 66.642545 
L 114.421869 67.296565 
L 114.591015 70.253613 
L 114.872926 79.965885 
L 115.2676 101.998885 
L 115.887802 150.677624 
L 118.932433 411.603184 
L 119.778163 458.757487 
L 120.51113 488.860035 
L 121.131333 506.656649 
L 121.638771 516.065241 
L 122.033445 520.282752 
L 122.371737 521.853723 
L 122.540884 521.975791 
L 122.71003 521.682837 
L 122.935558 520.687076 
L 123.27385 518.020794 
L 123.781289 511.829757 
L 124.514255 499.686485 
L 126.882301 458.107549 
L 127.615268 449.577267 
L 128.179088 445.14921 
L 128.630144 443.030548 
L 128.968437 442.284702 
L 129.193965 442.184849 
L 129.419493 442.396343 
L 129.701403 443.080053 
L 130.096078 444.76751 
L 130.603516 448.051428 
L 131.336482 454.486923 
L 134.211967 481.664146 
L 135.057697 486.643625 
L 136.016192 490.855353 
L 137.087451 494.589091 
L 137.8768 496.613504 
L 138.384238 497.410406 
L 138.72253 497.629864 
L 139.00444 497.596094 
L 139.342733 497.281869 
L 139.737407 496.537953 
L 140.244845 495.043233 
L 141.034194 491.889518 
L 142.500127 485.93768 
L 143.176712 484.08836 
L 143.740532 483.132513 
L 144.247971 482.696776 
L 144.699027 482.595302 
L 145.262847 482.718759 
L 146.390488 483.272853 
L 150.168085 485.438458 
L 151.239344 486.084576 
L 151.746782 486.133361 
L 152.197839 485.936367 
L 152.648895 485.485023 
L 153.269098 484.486845 
L 155.693525 480.064793 
L 156.200964 479.740651 
L 156.65202 479.694998 
L 157.215841 479.869076 
L 161.106202 481.817762 
L 163.53063 483.812772 
L 163.981686 483.816399 
L 164.432742 483.603774 
L 164.940181 483.105617 
L 165.560383 482.159221 
L 166.406114 480.388613 
L 168.435867 475.966549 
L 169.112452 475.067857 
L 169.732654 474.582974 
L 170.352857 474.38163 
L 171.029441 474.403003 
L 171.987936 474.678863 
L 174.186836 475.384706 
L 175.258095 475.435451 
L 177.118702 475.228722 
L 179.148456 475.076328 
L 180.10695 475.216782 
L 180.896299 475.554442 
L 181.685648 476.144298 
L 182.644142 477.170196 
L 185.463245 480.445264 
L 186.139829 480.811221 
L 186.760032 480.892008 
L 187.380234 480.736917 
L 188.113201 480.308908 
L 189.297224 479.310072 
L 190.763157 478.136777 
L 191.778034 477.613372 
L 192.680146 477.39413 
L 193.695023 477.379728 
L 195.104574 477.60059 
L 198.318351 478.207294 
L 198.994935 477.945647 
L 199.67152 477.425331 
L 200.51725 476.4649 
L 203.054442 473.348535 
L 203.674645 473.017324 
L 204.238465 472.960585 
L 204.802286 473.136838 
L 205.422488 473.57114 
L 206.268219 474.459763 
L 209.425613 478.078212 
L 210.15858 478.483385 
L 210.835164 478.617628 
L 211.568131 478.521877 
L 212.526626 478.135952 
L 214.894671 477.087908 
L 215.68402 477.014946 
L 216.360605 477.167514 
L 217.093571 477.579815 
L 217.995684 478.377278 
L 219.743527 479.984878 
L 220.36373 480.245255 
L 220.871168 480.239587 
L 221.378607 480.0002 
L 221.886045 479.512405 
L 222.506247 478.58067 
L 223.295596 476.942885 
L 225.494496 472.068651 
L 226.227462 471.077566 
L 226.847665 470.598863 
L 227.411485 470.449246 
L 227.975306 470.543789 
L 228.595508 470.882608 
L 229.497621 471.658067 
L 231.245464 473.187692 
L 232.034813 473.571223 
L 232.767779 473.693634 
L 233.61351 473.601902 
L 236.37623 473.078067 
L 237.052815 473.318361 
L 237.729399 473.821616 
L 238.518748 474.729127 
L 239.590007 476.355315 
L 241.281468 478.93718 
L 242.014435 479.657895 
L 242.578255 479.933238 
L 243.085693 479.951229 
L 243.649514 479.725425 
L 244.269716 479.219353 
L 245.171829 478.146577 
L 247.145201 475.692178 
L 247.878167 475.149508 
L 248.49837 474.951106 
L 249.118572 474.998729 
L 249.795157 475.292582 
L 250.810033 476.021769 
L 252.219585 476.986634 
L 253.008933 477.265737 
L 253.685518 477.285072 
L 254.362102 477.07104 
L 255.095069 476.580488 
L 255.997181 475.67776 
L 258.98543 472.409853 
L 259.605632 472.119554 
L 260.169453 472.09302 
L 260.733273 472.309557 
L 261.353476 472.820419 
L 262.086442 473.745998 
L 263.270465 475.678765 
L 264.79278 478.080158 
L 265.582129 478.943454 
L 266.258713 479.375936 
L 266.878916 479.50175 
L 267.499118 479.386335 
L 268.288467 478.976554 
L 270.543749 477.630999 
L 271.220333 477.549856 
L 271.840536 477.688298 
L 272.51712 478.077094 
L 273.362851 478.85178 
L 275.561751 481.040272 
L 276.181953 481.289213 
L 276.689392 481.272838 
L 277.19683 481.034555 
L 277.76065 480.495679 
L 278.380853 479.583781 
L 279.170202 478.001087 
L 280.748899 474.147082 
L 281.707393 472.167955 
L 282.44036 471.114576 
L 283.00418 470.632813 
L 283.511619 470.463836 
L 284.019057 470.542654 
L 284.526496 470.852617 
L 285.146698 471.502164 
L 286.105193 472.893093 
L 287.571126 475.0033 
L 288.247711 475.608729 
L 288.811531 475.846824 
L 289.375351 475.840926 
L 289.995554 475.578093 
L 290.784903 474.963901 
L 292.589128 473.466739 
L 293.20933 473.277081 
L 293.773151 473.342258 
L 294.336971 473.637275 
L 295.013556 474.266044 
L 295.859286 475.392709 
L 297.212456 477.650872 
L 298.791153 480.179927 
L 299.636883 481.120514 
L 300.313468 481.545318 
L 300.877288 481.645522 
L 301.441109 481.507838 
L 302.061311 481.102586 
L 302.85066 480.277443 
L 304.203829 478.446016 
L 305.33147 477.073381 
L 306.120818 476.450875 
L 306.853785 476.16275 
L 307.643134 476.097431 
L 309.954797 476.074459 
L 310.631382 475.75803 
L 311.364349 475.164102 
L 312.491989 473.914276 
L 313.732394 472.616081 
L 314.465361 472.136645 
L 315.141946 471.953018 
L 315.762148 472.004363 
L 316.438733 472.277843 
L 317.284463 472.882814 
L 318.355722 473.958149 
L 320.272711 476.277696 
L 321.795027 477.980292 
L 322.697139 478.689364 
L 323.430106 479.005544 
L 324.163073 479.068796 
L 325.008803 478.887096 
L 326.700264 478.19908 
L 327.827905 477.873656 
L 328.673636 477.847829 
L 329.462985 478.049446 
L 330.477861 478.564146 
L 332.056559 479.389086 
L 332.676761 479.469741 
L 333.240582 479.325171 
L 333.804402 478.927732 
L 334.424605 478.173536 
L 335.157571 476.873121 
L 336.172448 474.537007 
L 337.525617 471.466822 
L 338.258583 470.346059 
L 338.822404 469.840686 
L 339.329842 469.660225 
L 339.837281 469.732422 
L 340.401101 470.078657 
L 341.077686 470.79423 
L 342.148945 472.319804 
L 343.445732 474.069325 
L 344.178698 474.689461 
L 344.742519 474.906301 
L 345.306339 474.895506 
L 345.926541 474.658221 
L 346.772272 474.059929 
L 348.689262 472.602163 
L 349.309464 472.430656 
L 349.873285 472.496852 
L 350.437105 472.780669 
L 351.113689 473.377315 
L 352.072184 474.568305 
L 354.552994 477.8254 
L 355.229579 478.311156 
L 355.849781 478.488282 
L 356.413602 478.420245 
L 357.033804 478.117812 
L 357.823153 477.463655 
L 359.570996 475.602781 
L 360.755019 474.531239 
L 361.657132 473.988823 
L 362.559244 473.70044 
L 363.799649 473.574331 
L 365.998549 473.346341 
L 367.464482 472.986201 
L 368.817651 472.414399 
L 370.396348 471.491735 
L 372.08781 470.222659 
L 373.553743 469.200752 
L 374.28671 468.936041 
L 374.963294 468.932858 
L 375.639879 469.170835 
L 376.429227 469.714095 
L 377.726014 470.953344 
L 378.966419 472.022258 
L 379.755768 472.4114 
L 380.488734 472.529063 
L 381.559993 472.442168 
L 382.744016 472.399435 
L 383.476983 472.582559 
L 384.209949 473.003637 
L 384.999298 473.729573 
L 386.126939 475.131859 
L 387.53649 476.840485 
L 388.213074 477.347877 
L 388.776895 477.513821 
L 389.284333 477.433876 
L 389.791772 477.121856 
L 390.355592 476.493383 
L 391.032177 475.359985 
L 391.877907 473.440722 
L 394.584245 466.791851 
L 395.26083 465.920836 
L 395.82465 465.541027 
L 396.332089 465.460263 
L 396.839527 465.599279 
L 397.45973 466.01513 
L 398.361842 466.933862 
L 399.771393 468.34614 
L 400.447978 468.721328 
L 401.06818 468.824744 
L 401.744765 468.694613 
L 402.590496 468.271075 
L 404.563867 467.160829 
L 405.240452 467.091953 
L 405.804272 467.250627 
L 406.424475 467.671256 
L 407.101059 468.410637 
L 408.003172 469.765463 
L 409.356341 472.273074 
L 410.99142 475.220861 
L 411.724387 476.135266 
L 412.288207 476.538026 
L 412.795645 476.645912 
L 413.303084 476.506413 
L 413.810522 476.129867 
L 414.430725 475.384398 
L 415.332837 473.900064 
L 417.531737 470.12939 
L 418.264704 469.355424 
L 418.884906 468.986468 
L 419.505109 468.872649 
L 420.181693 468.996022 
L 420.971042 469.378125 
L 423.67738 470.923886 
L 424.297582 470.919094 
L 424.974167 470.677335 
L 425.819898 470.105558 
L 428.244326 468.30718 
L 429.033674 468.062209 
L 429.766641 468.0561 
L 430.555989 468.269081 
L 431.514484 468.771667 
L 432.698507 469.665505 
L 434.784643 471.610233 
L 435.968666 472.545553 
L 436.870778 472.976169 
L 437.829273 473.167096 
L 439.069678 473.16506 
L 443.411095 472.96034 
L 445.158939 473.083142 
L 445.948287 472.881673 
L 446.624872 472.464631 
L 447.301456 471.766703 
L 448.090805 470.587569 
L 449.218446 468.421969 
L 450.346087 466.379533 
L 451.079053 465.49385 
L 451.642874 465.128404 
L 452.150312 465.043447 
L 452.657751 465.179432 
L 453.277953 465.601778 
L 454.123684 466.498296 
L 456.040673 468.639401 
L 456.77364 469.084466 
L 457.393842 469.217266 
L 458.070427 469.12261 
L 458.859775 468.776273 
L 461.396967 467.451248 
L 462.01717 467.473049 
L 462.58099 467.710922 
L 463.201193 468.217918 
L 463.990541 469.187296 
L 465.0618 470.904601 
L 467.317082 474.645028 
L 468.050048 475.431207 
L 468.670251 475.792635 
L 469.234071 475.853582 
L 469.74151 475.689795 
L 470.361712 475.230209 
L 471.151061 474.319086 
L 474.252073 470.356211 
L 475.041422 469.866249 
L 475.999917 469.54331 
L 478.198816 468.879651 
L 480.79239 467.708609 
L 482.201942 467.22012 
L 483.329582 467.080576 
L 484.400841 467.171306 
L 485.302954 467.462983 
L 486.148685 467.97205 
L 486.994415 468.750547 
L 488.122056 470.130486 
L 489.869899 472.259637 
L 490.659248 472.852204 
L 491.279451 473.065294 
L 491.899653 473.040597 
L 492.576238 472.773926 
L 495.11343 471.493097 
L 495.733632 471.577936 
L 496.353835 471.900387 
L 497.086801 472.5532 
L 498.101678 473.78861 
L 499.962285 476.094719 
L 500.695252 476.667229 
L 501.315454 476.887846 
L 501.879275 476.84376 
L 502.386713 476.587519 
L 502.950534 476.041188 
L 503.570736 475.107906 
L 504.303703 473.563882 
L 505.205815 471.098407 
L 507.404715 464.815585 
L 508.0813 463.589035 
L 508.64512 462.97835 
L 509.096176 462.768895 
L 509.547233 462.79478 
L 510.054671 463.07787 
L 510.674874 463.726097 
L 511.633368 465.133083 
L 513.32483 467.631188 
L 514.17056 468.476662 
L 514.903527 468.9224 
L 515.636494 469.123688 
L 516.538606 469.121664 
L 518.624742 468.988377 
L 519.357708 469.243352 
L 520.147057 469.774824 
L 521.33108 470.90008 
L 522.797013 472.246854 
L 523.586362 472.690872 
L 524.319328 472.847767 
L 525.052295 472.757407 
L 525.954408 472.391139 
L 527.420341 471.50252 
L 528.886274 470.699483 
L 529.788387 470.450655 
L 530.577735 470.460127 
L 531.367084 470.695677 
L 534.29895 471.822491 
L 535.088299 471.731159 
L 535.877647 471.400852 
L 536.723378 470.77617 
L 537.738255 469.712084 
L 539.091424 467.927823 
L 541.684998 464.415346 
L 542.417964 463.850709 
L 542.981785 463.679876 
L 543.489223 463.755874 
L 543.996662 464.056716 
L 544.616864 464.712626 
L 545.406213 465.931536 
L 546.703 468.460101 
L 548.056169 470.945578 
L 548.845517 471.968481 
L 549.522102 472.514245 
L 550.198686 472.77771 
L 550.988035 472.82782 
L 553.807137 472.750425 
L 554.596486 473.057146 
L 555.498599 473.661055 
L 557.866644 475.410031 
L 558.430465 475.505099 
L 558.937903 475.381111 
L 559.445342 475.027502 
L 560.009162 474.352468 
L 560.685747 473.166696 
L 561.587859 471.082268 
L 563.561231 466.355028 
L 564.350579 465.095016 
L 564.970782 464.489812 
L 565.47822 464.264391 
L 565.985659 464.274824 
L 566.549479 464.535866 
L 567.226064 465.12349 
L 570.045166 467.920322 
L 570.72175 468.111576 
L 571.398335 468.064513 
L 572.187684 467.776333 
L 574.83764 466.600273 
L 575.514224 466.639839 
L 576.247191 466.91302 
L 577.149303 467.513287 
L 578.333326 468.588749 
L 581.885395 472.003574 
L 582.674744 472.350146 
L 583.351328 472.41191 
L 584.084295 472.242845 
L 585.04279 471.762218 
L 587.128925 470.644536 
L 588.08742 470.452254 
L 590.737376 470.084542 
L 591.921399 469.570802 
L 593.500096 468.611274 
L 597.221311 466.275476 
L 598.067042 466.010442 
L 598.743626 466.009886 
L 599.363829 466.217006 
L 600.040413 466.682603 
L 600.886144 467.567787 
L 602.577605 469.786899 
L 603.648864 470.964174 
L 604.438213 471.507675 
L 605.114797 471.710822 
L 605.847764 471.690142 
L 607.088169 471.366792 
L 608.159428 471.185524 
L 608.948776 471.281248 
L 609.681743 471.589685 
L 610.527473 472.205658 
L 611.54235 473.261714 
L 613.515722 475.380239 
L 614.192306 475.738479 
L 614.756127 475.773436 
L 615.263565 475.570009 
L 615.771003 475.126786 
L 616.391206 474.255047 
L 617.124172 472.788865 
L 618.139049 470.177885 
L 619.604982 466.423422 
L 620.337949 465.110398 
L 620.958151 464.387013 
L 621.521972 464.029368 
L 622.085792 463.924256 
L 622.705995 464.039623 
L 623.551725 464.453901 
L 625.243187 465.323092 
L 625.976153 465.41849 
L 626.652738 465.281242 
L 627.442087 464.882834 
L 630.035661 463.362148 
L 630.599481 463.393657 
L 631.106919 463.637226 
L 631.67074 464.17021 
L 632.347324 465.168964 
L 633.193055 466.869706 
L 636.350449 473.715174 
L 637.027034 474.484437 
L 637.590854 474.798915 
L 638.098293 474.826332 
L 638.605731 474.629034 
L 639.225934 474.126334 
L 640.071664 473.112284 
L 642.834384 469.567228 
L 643.623733 468.998024 
L 644.3567 468.738984 
L 645.146048 468.716286 
L 646.217307 468.93858 
L 648.416207 469.440972 
L 649.205555 469.354935 
L 649.938522 469.048874 
L 650.784253 468.435922 
L 652.193804 467.067059 
L 653.659737 465.740089 
L 654.505468 465.264875 
L 655.238434 465.099393 
L 655.915019 465.164092 
L 656.647985 465.464521 
L 657.493716 466.066199 
L 658.621357 467.17315 
L 662.680864 471.439529 
L 663.921269 472.233402 
L 665.499966 472.960089 
L 667.022281 473.720681 
L 668.657361 474.862897 
L 669.615855 475.387802 
L 670.236058 475.49 
L 670.799878 475.346927 
L 671.363699 474.944517 
L 671.983901 474.183153 
L 672.716868 472.873067 
L 673.61898 470.766874 
L 674.633857 468.071721 
L 674.633857 468.071721 
" clip-path="url(#pb13bbba70d)" style="fill: none; stroke: #0000ff; stroke-width: 1.5; stroke-linecap: square"/>
   </g>
   <g id="patch_3">
    <path d="M 82.8 643.1985 
L 82.8 39.1875 
" style="fill: none; stroke: #000000; stroke-width: 0.8; stroke-linejoin: miter; stroke-linecap: square"/>
   </g>
   <g id="patch_4">
    <path d="M 702.816422 643.1985 
L 702.816422 39.1875 
" style="fill: none; stroke: #000000; stroke-width: 0.8; stroke-linejoin: miter; stroke-linecap: square"/>
   </g>
   <g id="patch_5">
    <path d="M 82.8 643.1985 
L 702.816422 643.1985 
" style="fill: none; stroke: #000000; stroke-width: 0.8; stroke-linejoin: miter; stroke-linecap: square"/>
   </g>
   <g id="patch_6">
    <path d="M 82.8 39.1875 
L 702.816422 39.1875 
" style="fill: none; stroke: #000000; stroke-width: 0.8; stroke-linejoin: miter; stroke-linecap: square"/>
   </g>
  </g>
 </g>
 <defs>
  <clipPath id="pb13bbba70d">
   <rect x="82.8" y="39.1875" width="620.016422" height="604.011"/>
  </clipPath>
 </defs>
</svg>
