<?xml version="1.0" encoding="utf-8" standalone="no"?>
<!DOCTYPE svg PUBLIC "-//W3C//DTD SVG 1.1//EN"
  "http://www.w3.org/Graphics/SVG/1.1/DTD/svg11.dtd">
<svg xmlns:xlink="http://www.w3.org/1999/xlink" width="710.399977pt" height="711.02175pt" viewBox="0 0 710.399977 711.02175" xmlns="http://www.w3.org/2000/svg" version="1.1">
 <metadata>
  <rdf:RDF xmlns:dc="http://purl.org/dc/elements/1.1/" xmlns:cc="http://creativecommons.org/ns#" xmlns:rdf="http://www.w3.org/1999/02/22-rdf-syntax-ns#">
   <cc:Work>
    <dc:type rdf:resource="http://purl.org/dc/dcmitype/StillImage"/>
    <dc:date>2025-02-06T00:34:26.562747</dc:date>
    <dc:format>image/svg+xml</dc:format>
    <dc:creator>
     <cc:Agent>
      <dc:title>Matplotlib v3.9.3, https://matplotlib.org/</dc:title>
     </cc:Agent>
    </dc:creator>
   </cc:Work>
  </rdf:RDF>
 </metadata>
 <defs>
  <style type="text/css">*{stroke-linejoin: round; stroke-linecap: butt}</style>
 </defs>
 <g id="figure_1">
  <g id="patch_1">
   <path d="M 0 711.02175 
L 710.399977 711.02175 
L 710.399977 0 
L 0 0 
z
" style="fill: #ffffff"/>
  </g>
  <g id="axes_1">
   <g id="patch_2">
    <path d="M 104.4 640.3905 
L 703.199977 640.3905 
L 703.199977 39.1875 
L 104.4 39.1875 
z
" style="fill: #ffffff"/>
   </g>
   <g id="matplotlib.axis_1">
    <g id="xtick_1">
     <g id="line2d_1">
      <defs>
       <path id="m4abe1fab52" d="M 0 0 
L 0 -3.5 
" style="stroke: #000000; stroke-width: 0.8"/>
      </defs>
      <g>
       <use xlink:href="#m4abe1fab52" x="131.563739" y="640.3905" style="stroke: #000000; stroke-width: 0.8"/>
      </g>
     </g>
     <g id="text_1">
      <!-- 0 -->
      <g transform="translate(123.222333 665.631125) scale(0.3 -0.3)">
       <defs>
        <path id="LiberationSans-30" d="M 3309 2203 
Q 3309 1100 2920 518 
Q 2531 -63 1772 -63 
Q 1013 -63 631 515 
Q 250 1094 250 2203 
Q 250 3338 620 3903 
Q 991 4469 1791 4469 
Q 2569 4469 2939 3897 
Q 3309 3325 3309 2203 
z
M 2738 2203 
Q 2738 3156 2517 3584 
Q 2297 4013 1791 4013 
Q 1272 4013 1045 3591 
Q 819 3169 819 2203 
Q 819 1266 1048 831 
Q 1278 397 1778 397 
Q 2275 397 2506 840 
Q 2738 1284 2738 2203 
z
" transform="scale(0.015625)"/>
       </defs>
       <use xlink:href="#LiberationSans-30"/>
      </g>
     </g>
    </g>
    <g id="xtick_2">
     <g id="line2d_2">
      <g>
       <use xlink:href="#m4abe1fab52" x="240.44735" y="640.3905" style="stroke: #000000; stroke-width: 0.8"/>
      </g>
     </g>
     <g id="text_2">
      <!-- 2 -->
      <g transform="translate(232.105944 665.631125) scale(0.3 -0.3)">
       <defs>
        <path id="LiberationSans-32" d="M 322 0 
L 322 397 
Q 481 763 711 1042 
Q 941 1322 1194 1548 
Q 1447 1775 1695 1969 
Q 1944 2163 2144 2356 
Q 2344 2550 2467 2762 
Q 2591 2975 2591 3244 
Q 2591 3606 2378 3806 
Q 2166 4006 1788 4006 
Q 1428 4006 1195 3811 
Q 963 3616 922 3263 
L 347 3316 
Q 409 3844 795 4156 
Q 1181 4469 1788 4469 
Q 2453 4469 2811 4155 
Q 3169 3841 3169 3263 
Q 3169 3006 3051 2753 
Q 2934 2500 2703 2247 
Q 2472 1994 1819 1463 
Q 1459 1169 1246 933 
Q 1034 697 941 478 
L 3238 478 
L 3238 0 
L 322 0 
z
" transform="scale(0.015625)"/>
       </defs>
       <use xlink:href="#LiberationSans-32"/>
      </g>
     </g>
    </g>
    <g id="xtick_3">
     <g id="line2d_3">
      <g>
       <use xlink:href="#m4abe1fab52" x="349.330962" y="640.3905" style="stroke: #000000; stroke-width: 0.8"/>
      </g>
     </g>
     <g id="text_3">
      <!-- 4 -->
      <g transform="translate(340.989555 665.631125) scale(0.3 -0.3)">
       <defs>
        <path id="LiberationSans-34" d="M 2753 997 
L 2753 0 
L 2222 0 
L 2222 997 
L 147 997 
L 147 1434 
L 2163 4403 
L 2753 4403 
L 2753 1441 
L 3372 1441 
L 3372 997 
L 2753 997 
z
M 2222 3769 
Q 2216 3750 2134 3603 
Q 2053 3456 2013 3397 
L 884 1734 
L 716 1503 
L 666 1441 
L 2222 1441 
L 2222 3769 
z
" transform="scale(0.015625)"/>
       </defs>
       <use xlink:href="#LiberationSans-34"/>
      </g>
     </g>
    </g>
    <g id="xtick_4">
     <g id="line2d_4">
      <g>
       <use xlink:href="#m4abe1fab52" x="458.214573" y="640.3905" style="stroke: #000000; stroke-width: 0.8"/>
      </g>
     </g>
     <g id="text_4">
      <!-- 6 -->
      <g transform="translate(449.873167 665.631125) scale(0.3 -0.3)">
       <defs>
        <path id="LiberationSans-36" d="M 3278 1441 
Q 3278 744 2900 340 
Q 2522 -63 1856 -63 
Q 1113 -63 719 490 
Q 325 1044 325 2100 
Q 325 3244 734 3856 
Q 1144 4469 1900 4469 
Q 2897 4469 3156 3572 
L 2619 3475 
Q 2453 4013 1894 4013 
Q 1413 4013 1148 3564 
Q 884 3116 884 2266 
Q 1038 2550 1316 2698 
Q 1594 2847 1953 2847 
Q 2563 2847 2920 2465 
Q 3278 2084 3278 1441 
z
M 2706 1416 
Q 2706 1894 2472 2153 
Q 2238 2413 1819 2413 
Q 1425 2413 1183 2183 
Q 941 1953 941 1550 
Q 941 1041 1192 716 
Q 1444 391 1838 391 
Q 2244 391 2475 664 
Q 2706 938 2706 1416 
z
" transform="scale(0.015625)"/>
       </defs>
       <use xlink:href="#LiberationSans-36"/>
      </g>
     </g>
    </g>
    <g id="xtick_5">
     <g id="line2d_5">
      <g>
       <use xlink:href="#m4abe1fab52" x="567.098184" y="640.3905" style="stroke: #000000; stroke-width: 0.8"/>
      </g>
     </g>
     <g id="text_5">
      <!-- 8 -->
      <g transform="translate(558.756778 665.631125) scale(0.3 -0.3)">
       <defs>
        <path id="LiberationSans-38" d="M 3281 1228 
Q 3281 619 2893 278 
Q 2506 -63 1781 -63 
Q 1075 -63 676 271 
Q 278 606 278 1222 
Q 278 1653 525 1947 
Q 772 2241 1156 2303 
L 1156 2316 
Q 797 2400 589 2681 
Q 381 2963 381 3341 
Q 381 3844 757 4156 
Q 1134 4469 1769 4469 
Q 2419 4469 2795 4162 
Q 3172 3856 3172 3334 
Q 3172 2956 2962 2675 
Q 2753 2394 2391 2322 
L 2391 2309 
Q 2813 2241 3047 1952 
Q 3281 1663 3281 1228 
z
M 2588 3303 
Q 2588 4050 1769 4050 
Q 1372 4050 1164 3862 
Q 956 3675 956 3303 
Q 956 2925 1170 2726 
Q 1384 2528 1775 2528 
Q 2172 2528 2380 2711 
Q 2588 2894 2588 3303 
z
M 2697 1281 
Q 2697 1691 2453 1898 
Q 2209 2106 1769 2106 
Q 1341 2106 1100 1882 
Q 859 1659 859 1269 
Q 859 359 1788 359 
Q 2247 359 2472 579 
Q 2697 800 2697 1281 
z
" transform="scale(0.015625)"/>
       </defs>
       <use xlink:href="#LiberationSans-38"/>
      </g>
     </g>
    </g>
    <g id="xtick_6">
     <g id="line2d_6">
      <g>
       <use xlink:href="#m4abe1fab52" x="675.981796" y="640.3905" style="stroke: #000000; stroke-width: 0.8"/>
      </g>
     </g>
     <g id="text_6">
      <!-- 10 -->
      <g transform="translate(659.298983 665.631125) scale(0.3 -0.3)">
       <defs>
        <path id="LiberationSans-31" d="M 488 0 
L 488 478 
L 1609 478 
L 1609 3866 
L 616 3156 
L 616 3688 
L 1656 4403 
L 2175 4403 
L 2175 478 
L 3247 478 
L 3247 0 
L 488 0 
z
" transform="scale(0.015625)"/>
       </defs>
       <use xlink:href="#LiberationSans-31"/>
       <use xlink:href="#LiberationSans-30" x="55.615234"/>
      </g>
     </g>
    </g>
    <g id="xtick_7">
     <g id="line2d_7">
      <defs>
       <path id="m1bcb555427" d="M 0 0 
L 0 -2 
" style="stroke: #000000; stroke-width: 0.6"/>
      </defs>
      <g>
       <use xlink:href="#m1bcb555427" x="158.784642" y="640.3905" style="stroke: #000000; stroke-width: 0.6"/>
      </g>
     </g>
    </g>
    <g id="xtick_8">
     <g id="line2d_8">
      <g>
       <use xlink:href="#m1bcb555427" x="186.005545" y="640.3905" style="stroke: #000000; stroke-width: 0.6"/>
      </g>
     </g>
    </g>
    <g id="xtick_9">
     <g id="line2d_9">
      <g>
       <use xlink:href="#m1bcb555427" x="213.226447" y="640.3905" style="stroke: #000000; stroke-width: 0.6"/>
      </g>
     </g>
    </g>
    <g id="xtick_10">
     <g id="line2d_10">
      <g>
       <use xlink:href="#m1bcb555427" x="267.668253" y="640.3905" style="stroke: #000000; stroke-width: 0.6"/>
      </g>
     </g>
    </g>
    <g id="xtick_11">
     <g id="line2d_11">
      <g>
       <use xlink:href="#m1bcb555427" x="294.889156" y="640.3905" style="stroke: #000000; stroke-width: 0.6"/>
      </g>
     </g>
    </g>
    <g id="xtick_12">
     <g id="line2d_12">
      <g>
       <use xlink:href="#m1bcb555427" x="322.110059" y="640.3905" style="stroke: #000000; stroke-width: 0.6"/>
      </g>
     </g>
    </g>
    <g id="xtick_13">
     <g id="line2d_13">
      <g>
       <use xlink:href="#m1bcb555427" x="376.551865" y="640.3905" style="stroke: #000000; stroke-width: 0.6"/>
      </g>
     </g>
    </g>
    <g id="xtick_14">
     <g id="line2d_14">
      <g>
       <use xlink:href="#m1bcb555427" x="403.772767" y="640.3905" style="stroke: #000000; stroke-width: 0.6"/>
      </g>
     </g>
    </g>
    <g id="xtick_15">
     <g id="line2d_15">
      <g>
       <use xlink:href="#m1bcb555427" x="430.99367" y="640.3905" style="stroke: #000000; stroke-width: 0.6"/>
      </g>
     </g>
    </g>
    <g id="xtick_16">
     <g id="line2d_16">
      <g>
       <use xlink:href="#m1bcb555427" x="485.435476" y="640.3905" style="stroke: #000000; stroke-width: 0.6"/>
      </g>
     </g>
    </g>
    <g id="xtick_17">
     <g id="line2d_17">
      <g>
       <use xlink:href="#m1bcb555427" x="512.656379" y="640.3905" style="stroke: #000000; stroke-width: 0.6"/>
      </g>
     </g>
    </g>
    <g id="xtick_18">
     <g id="line2d_18">
      <g>
       <use xlink:href="#m1bcb555427" x="539.877282" y="640.3905" style="stroke: #000000; stroke-width: 0.6"/>
      </g>
     </g>
    </g>
    <g id="xtick_19">
     <g id="line2d_19">
      <g>
       <use xlink:href="#m1bcb555427" x="594.319087" y="640.3905" style="stroke: #000000; stroke-width: 0.6"/>
      </g>
     </g>
    </g>
    <g id="xtick_20">
     <g id="line2d_20">
      <g>
       <use xlink:href="#m1bcb555427" x="621.53999" y="640.3905" style="stroke: #000000; stroke-width: 0.6"/>
      </g>
     </g>
    </g>
    <g id="xtick_21">
     <g id="line2d_21">
      <g>
       <use xlink:href="#m1bcb555427" x="648.760893" y="640.3905" style="stroke: #000000; stroke-width: 0.6"/>
      </g>
     </g>
    </g>
    <g id="text_7">
     <!-- Time ps -->
     <g transform="translate(351.023426 697.59675) scale(0.3 -0.3)">
      <defs>
       <path id="LiberationSans-54" d="M 2250 3916 
L 2250 0 
L 1656 0 
L 1656 3916 
L 144 3916 
L 144 4403 
L 3763 4403 
L 3763 3916 
L 2250 3916 
z
" transform="scale(0.015625)"/>
       <path id="LiberationSans-69" d="M 428 4100 
L 428 4638 
L 991 4638 
L 991 4100 
L 428 4100 
z
M 428 0 
L 428 3381 
L 991 3381 
L 991 0 
L 428 0 
z
" transform="scale(0.015625)"/>
       <path id="LiberationSans-6d" d="M 2400 0 
L 2400 2144 
Q 2400 2634 2265 2821 
Q 2131 3009 1781 3009 
Q 1422 3009 1212 2734 
Q 1003 2459 1003 1959 
L 1003 0 
L 444 0 
L 444 2659 
Q 444 3250 425 3381 
L 956 3381 
Q 959 3366 962 3297 
Q 966 3228 970 3139 
Q 975 3050 981 2803 
L 991 2803 
Q 1172 3163 1406 3303 
Q 1641 3444 1978 3444 
Q 2363 3444 2586 3291 
Q 2809 3138 2897 2803 
L 2906 2803 
Q 3081 3144 3329 3294 
Q 3578 3444 3931 3444 
Q 4444 3444 4676 3166 
Q 4909 2888 4909 2253 
L 4909 0 
L 4353 0 
L 4353 2144 
Q 4353 2634 4218 2821 
Q 4084 3009 3734 3009 
Q 3366 3009 3161 2736 
Q 2956 2463 2956 1959 
L 2956 0 
L 2400 0 
z
" transform="scale(0.015625)"/>
       <path id="LiberationSans-65" d="M 863 1572 
Q 863 991 1103 675 
Q 1344 359 1806 359 
Q 2172 359 2392 506 
Q 2613 653 2691 878 
L 3184 738 
Q 2881 -63 1806 -63 
Q 1056 -63 664 384 
Q 272 831 272 1713 
Q 272 2550 664 2997 
Q 1056 3444 1784 3444 
Q 3275 3444 3275 1647 
L 3275 1572 
L 863 1572 
z
M 2694 2003 
Q 2647 2538 2422 2783 
Q 2197 3028 1775 3028 
Q 1366 3028 1127 2754 
Q 888 2481 869 2003 
L 2694 2003 
z
" transform="scale(0.015625)"/>
       <path id="LiberationSans-20" transform="scale(0.015625)"/>
       <path id="LiberationSans-70" d="M 3291 1706 
Q 3291 -63 2047 -63 
Q 1266 -63 997 525 
L 981 525 
Q 994 500 994 -6 
L 994 -1328 
L 431 -1328 
L 431 2691 
Q 431 3213 413 3381 
L 956 3381 
Q 959 3369 965 3292 
Q 972 3216 980 3056 
Q 988 2897 988 2838 
L 1000 2838 
Q 1150 3150 1397 3295 
Q 1644 3441 2047 3441 
Q 2672 3441 2981 3022 
Q 3291 2603 3291 1706 
z
M 2700 1694 
Q 2700 2400 2509 2703 
Q 2319 3006 1903 3006 
Q 1569 3006 1380 2865 
Q 1191 2725 1092 2426 
Q 994 2128 994 1650 
Q 994 984 1206 668 
Q 1419 353 1897 353 
Q 2316 353 2508 661 
Q 2700 969 2700 1694 
z
" transform="scale(0.015625)"/>
       <path id="LiberationSans-73" d="M 2969 934 
Q 2969 456 2608 196 
Q 2247 -63 1597 -63 
Q 966 -63 623 145 
Q 281 353 178 794 
L 675 891 
Q 747 619 972 492 
Q 1197 366 1597 366 
Q 2025 366 2223 497 
Q 2422 628 2422 891 
Q 2422 1091 2284 1216 
Q 2147 1341 1841 1422 
L 1438 1528 
Q 953 1653 748 1773 
Q 544 1894 428 2066 
Q 313 2238 313 2488 
Q 313 2950 642 3192 
Q 972 3434 1603 3434 
Q 2163 3434 2492 3237 
Q 2822 3041 2909 2606 
L 2403 2544 
Q 2356 2769 2151 2889 
Q 1947 3009 1603 3009 
Q 1222 3009 1040 2893 
Q 859 2778 859 2544 
Q 859 2400 934 2306 
Q 1009 2213 1156 2147 
Q 1303 2081 1775 1966 
Q 2222 1853 2419 1758 
Q 2616 1663 2730 1547 
Q 2844 1431 2906 1279 
Q 2969 1128 2969 934 
z
" transform="scale(0.015625)"/>
      </defs>
      <use xlink:href="#LiberationSans-54"/>
      <use xlink:href="#LiberationSans-69" x="57.333984"/>
      <use xlink:href="#LiberationSans-6d" x="79.550781"/>
      <use xlink:href="#LiberationSans-65" x="162.851562"/>
      <use xlink:href="#LiberationSans-20" x="218.466797"/>
      <use xlink:href="#LiberationSans-70" x="246.25"/>
      <use xlink:href="#LiberationSans-73" x="301.865234"/>
     </g>
    </g>
   </g>
   <g id="matplotlib.axis_2">
    <g id="ytick_1">
     <g id="line2d_22">
      <defs>
       <path id="mc730eb7db6" d="M 0 0 
L 3.5 0 
" style="stroke: #000000; stroke-width: 0.8"/>
      </defs>
      <g>
       <use xlink:href="#mc730eb7db6" x="104.4" y="611.645418" style="stroke: #000000; stroke-width: 0.8"/>
      </g>
     </g>
     <g id="text_8">
      <!-- $\mathdefault{−0.5}$ -->
      <g transform="translate(41.5 622.51573) scale(0.3 -0.3)">
       <defs>
        <path id="LiberationSans-2212" d="M 316 1900 
L 316 2356 
L 3425 2356 
L 3425 1900 
L 316 1900 
z
" transform="scale(0.015625)"/>
        <path id="LiberationSans-2e" d="M 584 0 
L 584 684 
L 1194 684 
L 1194 0 
L 584 0 
z
" transform="scale(0.015625)"/>
        <path id="LiberationSans-35" d="M 3291 1434 
Q 3291 738 2877 337 
Q 2463 -63 1728 -63 
Q 1113 -63 734 206 
Q 356 475 256 984 
L 825 1050 
Q 1003 397 1741 397 
Q 2194 397 2450 670 
Q 2706 944 2706 1422 
Q 2706 1838 2448 2094 
Q 2191 2350 1753 2350 
Q 1525 2350 1328 2278 
Q 1131 2206 934 2034 
L 384 2034 
L 531 4403 
L 3034 4403 
L 3034 3925 
L 1044 3925 
L 959 2528 
Q 1325 2809 1869 2809 
Q 2519 2809 2905 2428 
Q 3291 2047 3291 1434 
z
" transform="scale(0.015625)"/>
       </defs>
       <use xlink:href="#LiberationSans-2212" transform="translate(0 0.171875)"/>
       <use xlink:href="#LiberationSans-30" transform="translate(58.398438 0.171875)"/>
       <use xlink:href="#LiberationSans-2e" transform="translate(114.013672 0.171875)"/>
       <use xlink:href="#LiberationSans-35" transform="translate(141.796875 0.171875)"/>
      </g>
     </g>
    </g>
    <g id="ytick_2">
     <g id="line2d_23">
      <g>
       <use xlink:href="#mc730eb7db6" x="104.4" y="495.05823" style="stroke: #000000; stroke-width: 0.8"/>
      </g>
     </g>
     <g id="text_9">
      <!-- $\mathdefault{0.0}$ -->
      <g transform="translate(58.9 505.928542) scale(0.3 -0.3)">
       <use xlink:href="#LiberationSans-30" transform="translate(0 0.171875)"/>
       <use xlink:href="#LiberationSans-2e" transform="translate(55.615234 0.171875)"/>
       <use xlink:href="#LiberationSans-30" transform="translate(83.398438 0.171875)"/>
      </g>
     </g>
    </g>
    <g id="ytick_3">
     <g id="line2d_24">
      <g>
       <use xlink:href="#mc730eb7db6" x="104.4" y="378.471042" style="stroke: #000000; stroke-width: 0.8"/>
      </g>
     </g>
     <g id="text_10">
      <!-- $\mathdefault{0.5}$ -->
      <g transform="translate(58.9 389.341355) scale(0.3 -0.3)">
       <use xlink:href="#LiberationSans-30" transform="translate(0 0.171875)"/>
       <use xlink:href="#LiberationSans-2e" transform="translate(55.615234 0.171875)"/>
       <use xlink:href="#LiberationSans-35" transform="translate(83.398438 0.171875)"/>
      </g>
     </g>
    </g>
    <g id="ytick_4">
     <g id="line2d_25">
      <g>
       <use xlink:href="#mc730eb7db6" x="104.4" y="261.883854" style="stroke: #000000; stroke-width: 0.8"/>
      </g>
     </g>
     <g id="text_11">
      <!-- $\mathdefault{1.0}$ -->
      <g transform="translate(58.9 272.754167) scale(0.3 -0.3)">
       <use xlink:href="#LiberationSans-31" transform="translate(0 0.171875)"/>
       <use xlink:href="#LiberationSans-2e" transform="translate(55.615234 0.171875)"/>
       <use xlink:href="#LiberationSans-30" transform="translate(83.398438 0.171875)"/>
      </g>
     </g>
    </g>
    <g id="ytick_5">
     <g id="line2d_26">
      <g>
       <use xlink:href="#mc730eb7db6" x="104.4" y="145.296667" style="stroke: #000000; stroke-width: 0.8"/>
      </g>
     </g>
     <g id="text_12">
      <!-- $\mathdefault{1.5}$ -->
      <g transform="translate(58.9 156.166979) scale(0.3 -0.3)">
       <use xlink:href="#LiberationSans-31" transform="translate(0 0.203125)"/>
       <use xlink:href="#LiberationSans-2e" transform="translate(55.615234 0.203125)"/>
       <use xlink:href="#LiberationSans-35" transform="translate(83.398438 0.203125)"/>
      </g>
     </g>
    </g>
    <g id="ytick_6">
     <g id="line2d_27">
      <defs>
       <path id="m37d539b282" d="M 0 0 
L 2 0 
" style="stroke: #000000; stroke-width: 0.6"/>
      </defs>
      <g>
       <use xlink:href="#m37d539b282" x="104.4" y="634.962855" style="stroke: #000000; stroke-width: 0.6"/>
      </g>
     </g>
    </g>
    <g id="ytick_7">
     <g id="line2d_28">
      <g>
       <use xlink:href="#m37d539b282" x="104.4" y="588.32798" style="stroke: #000000; stroke-width: 0.6"/>
      </g>
     </g>
    </g>
    <g id="ytick_8">
     <g id="line2d_29">
      <g>
       <use xlink:href="#m37d539b282" x="104.4" y="565.010543" style="stroke: #000000; stroke-width: 0.6"/>
      </g>
     </g>
    </g>
    <g id="ytick_9">
     <g id="line2d_30">
      <g>
       <use xlink:href="#m37d539b282" x="104.4" y="541.693105" style="stroke: #000000; stroke-width: 0.6"/>
      </g>
     </g>
    </g>
    <g id="ytick_10">
     <g id="line2d_31">
      <g>
       <use xlink:href="#m37d539b282" x="104.4" y="518.375667" style="stroke: #000000; stroke-width: 0.6"/>
      </g>
     </g>
    </g>
    <g id="ytick_11">
     <g id="line2d_32">
      <g>
       <use xlink:href="#m37d539b282" x="104.4" y="471.740792" style="stroke: #000000; stroke-width: 0.6"/>
      </g>
     </g>
    </g>
    <g id="ytick_12">
     <g id="line2d_33">
      <g>
       <use xlink:href="#m37d539b282" x="104.4" y="448.423355" style="stroke: #000000; stroke-width: 0.6"/>
      </g>
     </g>
    </g>
    <g id="ytick_13">
     <g id="line2d_34">
      <g>
       <use xlink:href="#m37d539b282" x="104.4" y="425.105917" style="stroke: #000000; stroke-width: 0.6"/>
      </g>
     </g>
    </g>
    <g id="ytick_14">
     <g id="line2d_35">
      <g>
       <use xlink:href="#m37d539b282" x="104.4" y="401.78848" style="stroke: #000000; stroke-width: 0.6"/>
      </g>
     </g>
    </g>
    <g id="ytick_15">
     <g id="line2d_36">
      <g>
       <use xlink:href="#m37d539b282" x="104.4" y="355.153605" style="stroke: #000000; stroke-width: 0.6"/>
      </g>
     </g>
    </g>
    <g id="ytick_16">
     <g id="line2d_37">
      <g>
       <use xlink:href="#m37d539b282" x="104.4" y="331.836167" style="stroke: #000000; stroke-width: 0.6"/>
      </g>
     </g>
    </g>
    <g id="ytick_17">
     <g id="line2d_38">
      <g>
       <use xlink:href="#m37d539b282" x="104.4" y="308.518729" style="stroke: #000000; stroke-width: 0.6"/>
      </g>
     </g>
    </g>
    <g id="ytick_18">
     <g id="line2d_39">
      <g>
       <use xlink:href="#m37d539b282" x="104.4" y="285.201292" style="stroke: #000000; stroke-width: 0.6"/>
      </g>
     </g>
    </g>
    <g id="ytick_19">
     <g id="line2d_40">
      <g>
       <use xlink:href="#m37d539b282" x="104.4" y="238.566417" style="stroke: #000000; stroke-width: 0.6"/>
      </g>
     </g>
    </g>
    <g id="ytick_20">
     <g id="line2d_41">
      <g>
       <use xlink:href="#m37d539b282" x="104.4" y="215.248979" style="stroke: #000000; stroke-width: 0.6"/>
      </g>
     </g>
    </g>
    <g id="ytick_21">
     <g id="line2d_42">
      <g>
       <use xlink:href="#m37d539b282" x="104.4" y="191.931542" style="stroke: #000000; stroke-width: 0.6"/>
      </g>
     </g>
    </g>
    <g id="ytick_22">
     <g id="line2d_43">
      <g>
       <use xlink:href="#m37d539b282" x="104.4" y="168.614104" style="stroke: #000000; stroke-width: 0.6"/>
      </g>
     </g>
    </g>
    <g id="ytick_23">
     <g id="line2d_44">
      <g>
       <use xlink:href="#m37d539b282" x="104.4" y="121.979229" style="stroke: #000000; stroke-width: 0.6"/>
      </g>
     </g>
    </g>
    <g id="ytick_24">
     <g id="line2d_45">
      <g>
       <use xlink:href="#m37d539b282" x="104.4" y="98.661791" style="stroke: #000000; stroke-width: 0.6"/>
      </g>
     </g>
    </g>
    <g id="ytick_25">
     <g id="line2d_46">
      <g>
       <use xlink:href="#m37d539b282" x="104.4" y="75.344354" style="stroke: #000000; stroke-width: 0.6"/>
      </g>
     </g>
    </g>
    <g id="ytick_26">
     <g id="line2d_47">
      <g>
       <use xlink:href="#m37d539b282" x="104.4" y="52.026916" style="stroke: #000000; stroke-width: 0.6"/>
      </g>
     </g>
    </g>
    <g id="text_13">
     <!-- ACF $(\mathrm{W} / \mathrm{m}^2)^2$ -->
     <g transform="translate(31.275 426.339) rotate(-90) scale(0.3 -0.3)">
      <defs>
       <path id="LiberationSans-41" d="M 3647 0 
L 3144 1288 
L 1138 1288 
L 631 0 
L 13 0 
L 1809 4403 
L 2488 4403 
L 4256 0 
L 3647 0 
z
M 2141 3953 
L 2113 3866 
Q 2034 3606 1881 3200 
L 1319 1753 
L 2966 1753 
L 2400 3206 
Q 2313 3422 2225 3694 
L 2141 3953 
z
" transform="scale(0.015625)"/>
       <path id="LiberationSans-43" d="M 2475 3981 
Q 1744 3981 1337 3511 
Q 931 3041 931 2222 
Q 931 1413 1354 920 
Q 1778 428 2500 428 
Q 3425 428 3891 1344 
L 4378 1100 
Q 4106 531 3614 234 
Q 3122 -63 2472 -63 
Q 1806 -63 1320 214 
Q 834 491 579 1005 
Q 325 1519 325 2222 
Q 325 3275 894 3872 
Q 1463 4469 2469 4469 
Q 3172 4469 3644 4194 
Q 4116 3919 4338 3378 
L 3772 3191 
Q 3619 3575 3280 3778 
Q 2941 3981 2475 3981 
z
" transform="scale(0.015625)"/>
       <path id="LiberationSans-46" d="M 1122 3916 
L 1122 2278 
L 3578 2278 
L 3578 1784 
L 1122 1784 
L 1122 0 
L 525 0 
L 525 4403 
L 3653 4403 
L 3653 3916 
L 1122 3916 
z
" transform="scale(0.015625)"/>
       <path id="STIXGeneral-Regular-28" d="M 1946 -1030 
L 1869 -1133 
Q 1126 -710 716 32 
Q 307 774 307 1613 
Q 307 3386 1888 4326 
L 1946 4224 
Q 1293 3667 1075 3126 
Q 858 2586 858 1632 
Q 858 685 1082 96 
Q 1306 -493 1946 -1030 
z
" transform="scale(0.015625)"/>
       <path id="STIXGeneral-Regular-57" d="M 5965 4237 
L 5965 4115 
Q 5709 4064 5616 3990 
Q 5523 3917 5434 3667 
Q 4704 1709 4128 -70 
L 4032 -70 
Q 3642 1011 3008 2637 
L 2022 -70 
L 1926 -70 
Q 1709 576 1277 1753 
Q 845 2931 698 3347 
Q 538 3808 406 3958 
Q 275 4109 32 4115 
L 32 4237 
L 1594 4237 
L 1594 4115 
Q 1357 4109 1270 4064 
Q 1184 4019 1184 3917 
Q 1184 3808 1254 3616 
L 2176 1210 
L 2842 3021 
L 2662 3501 
Q 2509 3917 2400 4013 
Q 2291 4109 2010 4115 
L 2010 4237 
L 3706 4237 
L 3706 4115 
Q 3213 4102 3213 3891 
Q 3213 3808 3322 3520 
L 4237 1190 
L 5043 3360 
Q 5152 3667 5152 3853 
Q 5152 4109 4704 4115 
L 4704 4237 
L 5965 4237 
z
" transform="scale(0.015625)"/>
       <path id="STIXGeneral-Regular-2f" d="M 1837 4326 
L 378 -90 
L -58 -90 
L 1408 4326 
L 1837 4326 
z
" transform="scale(0.015625)"/>
       <path id="STIXGeneral-Regular-6d" d="M 4960 0 
L 3565 0 
L 3565 96 
Q 3834 122 3907 208 
Q 3981 294 3981 576 
L 3981 1894 
Q 3981 2278 3869 2444 
Q 3757 2611 3488 2611 
Q 3264 2611 3107 2521 
Q 2950 2432 2803 2221 
L 2803 608 
Q 2803 301 2896 201 
Q 2989 102 3264 96 
L 3264 0 
L 1830 0 
L 1830 96 
Q 2112 115 2189 188 
Q 2266 262 2266 550 
L 2266 1901 
Q 2266 2611 1850 2611 
Q 1670 2611 1468 2531 
Q 1267 2451 1171 2336 
Q 1088 2240 1088 2227 
L 1088 448 
Q 1088 243 1177 176 
Q 1267 109 1523 96 
L 1523 0 
L 102 0 
L 102 96 
Q 371 102 460 195 
Q 550 288 550 563 
L 550 2150 
Q 550 2387 499 2480 
Q 448 2573 326 2573 
Q 230 2573 122 2547 
L 122 2656 
Q 557 2778 1011 2944 
L 1062 2925 
L 1062 2451 
L 1075 2451 
Q 1363 2752 1584 2848 
Q 1805 2944 2054 2944 
Q 2560 2944 2733 2406 
Q 3232 2944 3776 2944 
Q 4518 2944 4518 1792 
L 4518 493 
Q 4518 282 4582 202 
Q 4646 122 4794 109 
L 4960 96 
L 4960 0 
z
" transform="scale(0.015625)"/>
       <path id="STIXGeneral-Regular-32" d="M 3034 877 
L 2688 0 
L 186 0 
L 186 77 
L 1325 1286 
Q 1773 1754 1965 2144 
Q 2157 2534 2157 2950 
Q 2157 3379 1920 3616 
Q 1683 3853 1267 3853 
Q 922 3853 720 3673 
Q 518 3494 326 3021 
L 192 3053 
Q 301 3648 630 3987 
Q 960 4326 1523 4326 
Q 2054 4326 2380 4006 
Q 2707 3686 2707 3200 
Q 2707 2477 1888 1613 
L 832 486 
L 2330 486 
Q 2541 486 2665 569 
Q 2790 653 2944 915 
L 3034 877 
z
" transform="scale(0.015625)"/>
       <path id="STIXGeneral-Regular-29" d="M 186 4224 
L 262 4326 
Q 992 3891 1408 3148 
Q 1824 2406 1824 1581 
Q 1824 -166 243 -1133 
L 186 -1030 
Q 845 -486 1059 54 
Q 1274 595 1274 1562 
Q 1274 2534 1059 3120 
Q 845 3706 186 4224 
z
" transform="scale(0.015625)"/>
      </defs>
      <use xlink:href="#LiberationSans-41" transform="translate(0 0.409375)"/>
      <use xlink:href="#LiberationSans-43" transform="translate(66.699219 0.409375)"/>
      <use xlink:href="#LiberationSans-46" transform="translate(138.916016 0.409375)"/>
      <use xlink:href="#LiberationSans-20" transform="translate(200 0.409375)"/>
      <use xlink:href="#STIXGeneral-Regular-28" transform="translate(227.783203 0.409375)"/>
      <use xlink:href="#STIXGeneral-Regular-57" transform="translate(261.083191 0.409375)"/>
      <use xlink:href="#STIXGeneral-Regular-2f" transform="translate(355.483185 0.409375)"/>
      <use xlink:href="#STIXGeneral-Regular-6d" transform="translate(383.283173 0.409375)"/>
      <use xlink:href="#STIXGeneral-Regular-32" transform="translate(462.626442 35.684375) scale(0.7)"/>
      <use xlink:href="#STIXGeneral-Regular-29" transform="translate(502.035806 0.409375)"/>
      <use xlink:href="#STIXGeneral-Regular-32" transform="translate(536.879075 35.684375) scale(0.7)"/>
     </g>
    </g>
    <g id="text_14">
     <!-- $\times\mathdefault{10^{19}}\mathdefault{}$ -->
     <g transform="translate(104.4 36.1875) scale(0.4 -0.4)">
      <defs>
       <path id="STIXGeneral-Regular-d7" d="M 3821 141 
L 3526 -160 
L 2048 1312 
L 570 -160 
L 275 134 
L 1747 1613 
L 275 3091 
L 576 3386 
L 2048 1914 
L 3526 3386 
L 3821 3098 
L 2349 1613 
L 3821 141 
z
" transform="scale(0.015625)"/>
       <path id="LiberationSans-39" d="M 3256 2291 
Q 3256 1156 2842 546 
Q 2428 -63 1663 -63 
Q 1147 -63 836 154 
Q 525 372 391 856 
L 928 941 
Q 1097 391 1672 391 
Q 2156 391 2422 841 
Q 2688 1291 2700 2125 
Q 2575 1844 2272 1673 
Q 1969 1503 1606 1503 
Q 1013 1503 656 1909 
Q 300 2316 300 2988 
Q 300 3678 687 4073 
Q 1075 4469 1766 4469 
Q 2500 4469 2878 3925 
Q 3256 3381 3256 2291 
z
M 2644 2834 
Q 2644 3366 2400 3689 
Q 2156 4013 1747 4013 
Q 1341 4013 1106 3736 
Q 872 3459 872 2988 
Q 872 2506 1106 2226 
Q 1341 1947 1741 1947 
Q 1984 1947 2193 2058 
Q 2403 2169 2523 2372 
Q 2644 2575 2644 2834 
z
" transform="scale(0.015625)"/>
      </defs>
      <use xlink:href="#STIXGeneral-Regular-d7" transform="translate(0 0.140625)"/>
      <use xlink:href="#LiberationSans-31" transform="translate(63.999985 0.140625)"/>
      <use xlink:href="#LiberationSans-30" transform="translate(119.615219 0.140625)"/>
      <use xlink:href="#LiberationSans-31" transform="translate(176.154946 37.120312) scale(0.7)"/>
      <use xlink:href="#LiberationSans-39" transform="translate(215.08561 37.120312) scale(0.7)"/>
     </g>
    </g>
   </g>
   <g id="line2d_48">
    <path d="M 131.618181 66.514909 
L 131.727064 67.462237 
L 131.89039 72.412717 
L 132.162599 89.792934 
L 132.543691 131.575835 
L 133.142551 228.357395 
L 134.884689 531.620313 
L 135.429107 584.09797 
L 135.864642 606.271564 
L 136.136851 612.113698 
L 136.300176 613.063091 
L 136.354618 612.998225 
L 136.517943 611.770723 
L 136.790152 606.772618 
L 137.225687 593.360354 
L 138.967825 533.517345 
L 139.512243 523.702286 
L 140.002219 518.491394 
L 140.546637 515.119045 
L 141.85324 508.312892 
L 142.669867 502.033425 
L 143.704262 494.281298 
L 144.194238 491.977305 
L 144.575331 491.086782 
L 144.84754 490.950006 
L 145.065307 491.124956 
L 145.337516 491.664639 
L 145.77305 493.134353 
L 146.535236 496.735942 
L 147.624072 501.730058 
L 148.277373 503.74595 
L 148.821791 504.787798 
L 149.366209 505.374221 
L 149.965069 505.685319 
L 150.89058 505.873243 
L 152.469392 505.967089 
L 153.286019 505.809908 
L 153.884879 505.489902 
L 154.429297 504.933459 
L 154.919274 504.083775 
L 155.40925 502.743942 
L 155.899226 500.744792 
L 156.443644 497.584226 
L 157.096946 492.43287 
L 159.32906 473.284825 
L 159.655711 472.4325 
L 159.819036 472.36611 
L 159.982362 472.55379 
L 160.200129 473.208005 
L 160.52678 475.04963 
L 160.962314 478.992138 
L 161.615616 487.285074 
L 163.031103 505.774961 
L 163.521079 509.376319 
L 163.84773 510.551352 
L 164.065497 510.79022 
L 164.228822 510.700235 
L 164.44659 510.253423 
L 164.77324 508.991928 
L 165.3721 505.522338 
L 166.297611 500.239863 
L 166.733145 498.858859 
L 167.059796 498.468166 
L 167.277563 498.505526 
L 167.549773 498.843093 
L 167.985307 499.863158 
L 168.910818 502.149223 
L 169.183027 502.363304 
L 169.400794 502.272537 
L 169.673003 501.78794 
L 169.999654 500.635529 
L 170.435188 498.182221 
L 171.142932 492.624241 
L 172.177326 484.623211 
L 172.61286 482.640518 
L 172.939511 481.992327 
L 173.157278 481.988595 
L 173.375046 482.324609 
L 173.701697 483.425426 
L 174.137231 485.830803 
L 174.953858 491.952316 
L 175.879369 498.414129 
L 176.423787 500.842352 
L 176.859321 501.902319 
L 177.185972 502.243243 
L 177.512623 502.284287 
L 177.893716 502.085539 
L 179.145877 501.255304 
L 179.690295 501.251305 
L 180.615806 501.314737 
L 180.996899 501.079564 
L 181.377991 500.553823 
L 181.813526 499.540542 
L 182.412385 497.472881 
L 184.426732 489.779435 
L 184.862267 489.085878 
L 185.188918 488.897608 
L 185.515568 488.966529 
L 185.896661 489.311297 
L 186.495521 490.219397 
L 189.326495 495.331958 
L 190.034238 497.422806 
L 191.939701 503.5858 
L 192.320794 504.022539 
L 192.593003 504.026852 
L 192.865212 503.759437 
L 193.191863 503.085182 
L 193.681839 501.433335 
L 194.498466 497.620729 
L 195.478419 493.255333 
L 196.022837 491.734894 
L 196.458371 491.134352 
L 196.785022 491.019991 
L 197.111673 491.139841 
L 197.601649 491.604589 
L 198.636044 492.639267 
L 199.071578 492.748255 
L 199.507112 492.598363 
L 200.105972 492.096128 
L 200.868158 491.493489 
L 201.24925 491.460055 
L 201.575901 491.667655 
L 201.956994 492.229367 
L 202.44697 493.458012 
L 203.154713 495.997178 
L 204.406875 500.5263 
L 204.896851 501.502945 
L 205.223502 501.766974 
L 205.495711 501.741757 
L 205.822362 501.432556 
L 206.257896 500.614643 
L 206.911198 498.814134 
L 208.272243 494.980749 
L 208.925545 493.807899 
L 209.524405 493.146098 
L 210.28659 492.653777 
L 211.320984 492.268032 
L 211.919844 492.245939 
L 212.40982 492.457516 
L 212.845355 492.888564 
L 213.389773 493.790954 
L 214.097516 495.491011 
L 215.621887 499.347554 
L 216.111863 500.008967 
L 216.492956 500.212224 
L 216.874048 500.15048 
L 217.309583 499.811068 
L 218.071768 498.847994 
L 218.888395 497.942373 
L 219.378372 497.694622 
L 219.868348 497.687106 
L 221.283835 497.880067 
L 221.664927 497.59988 
L 222.100462 496.95786 
L 222.64488 495.663158 
L 223.461507 493.009265 
L 224.441459 489.957989 
L 224.931436 489.026021 
L 225.312528 488.708512 
L 225.639179 488.735944 
L 225.96583 489.025123 
L 226.401364 489.755031 
L 227.109108 491.466659 
L 228.252386 494.207063 
L 228.851246 495.117117 
L 229.395664 495.576866 
L 230.048965 495.816796 
L 231.410011 496.227367 
L 232.553288 496.947189 
L 233.315474 497.280251 
L 233.859892 497.275877 
L 234.40431 497.046753 
L 235.384262 496.317066 
L 236.146448 495.879046 
L 236.690866 495.817919 
L 237.235284 495.988859 
L 238.215236 496.609513 
L 238.92298 496.93044 
L 239.467398 496.92771 
L 240.011816 496.68193 
L 240.882885 495.980034 
L 241.699512 495.419658 
L 242.24393 495.30909 
L 242.788348 495.449896 
L 243.659417 495.984689 
L 244.312719 496.279499 
L 244.748253 496.251619 
L 245.183787 495.970666 
L 245.673764 495.334982 
L 246.327065 494.065494 
L 247.68811 491.340826 
L 248.178087 490.877785 
L 248.559179 490.821106 
L 248.940272 491.031849 
L 249.375806 491.5576 
L 250.08355 492.824096 
L 251.226828 494.825445 
L 251.825688 495.420653 
L 252.370106 495.654615 
L 253.295616 495.732408 
L 253.894476 495.896042 
L 254.438894 496.296864 
L 255.037754 497.050924 
L 257.052101 499.916111 
L 257.433194 500.019879 
L 257.814286 499.884408 
L 258.249821 499.441094 
L 258.794239 498.521291 
L 259.883075 496.093804 
L 260.754144 494.395989 
L 261.407446 493.585263 
L 262.006305 493.205583 
L 262.659607 493.074511 
L 264.728396 493.083766 
L 265.599465 493.207226 
L 266.198324 493.510454 
L 266.851626 494.115591 
L 267.668253 495.215032 
L 269.247066 497.396643 
L 269.900367 497.901744 
L 270.444785 498.058523 
L 270.989203 497.981076 
L 271.588063 497.655418 
L 272.295807 496.995803 
L 273.166876 495.849845 
L 274.80013 493.199396 
L 275.616757 492.12513 
L 276.161175 491.720004 
L 276.596709 491.631841 
L 277.032244 491.766806 
L 277.52222 492.167378 
L 278.229963 493.091263 
L 279.808776 495.277535 
L 280.407636 495.717723 
L 281.006496 495.885025 
L 281.986448 495.854122 
L 282.694192 495.93693 
L 283.293051 496.249945 
L 284.000795 496.919673 
L 285.416282 498.337689 
L 285.851816 498.469398 
L 286.232909 498.381428 
L 286.668443 498.035743 
L 287.212861 497.274465 
L 288.192814 495.402289 
L 289.063883 493.938817 
L 289.608301 493.415844 
L 290.043835 493.263981 
L 290.47937 493.328571 
L 291.07823 493.668085 
L 292.493717 494.566692 
L 293.092576 494.637441 
L 293.80032 494.464334 
L 295.106923 494.089523 
L 295.705783 494.196836 
L 296.304643 494.547352 
L 297.230154 495.404171 
L 298.31899 496.346817 
L 298.972291 496.639277 
L 299.625593 496.68539 
L 300.387778 496.500392 
L 302.456567 495.631896 
L 304.198705 495.079589 
L 305.396425 494.907577 
L 306.866353 494.958846 
L 307.955189 494.911935 
L 308.826258 494.649158 
L 310.731721 493.948853 
L 311.27614 494.037564 
L 311.820558 494.354071 
L 312.473859 495.010574 
L 314.433764 497.200518 
L 314.92374 497.369469 
L 315.413717 497.309811 
L 316.012577 496.977855 
L 318.190249 495.48222 
L 318.843551 495.445479 
L 319.877945 495.667647 
L 320.694572 495.742541 
L 321.293432 495.578404 
L 321.946733 495.151385 
L 323.144453 494.003397 
L 323.906638 493.441239 
L 324.451056 493.304539 
L 324.941033 493.417927 
L 325.485451 493.798697 
L 326.193194 494.595561 
L 328.044216 496.823512 
L 328.751959 497.269514 
L 329.405261 497.415153 
L 330.113004 497.327606 
L 330.984073 496.967157 
L 332.290677 496.145722 
L 334.19614 494.967528 
L 335.339418 494.539314 
L 340.184738 493.321398 
L 340.783598 493.532355 
L 341.382458 493.985092 
L 342.144643 494.866926 
L 343.941223 497.085104 
L 344.485641 497.385076 
L 344.975617 497.413473 
L 345.465593 497.22306 
L 346.118895 496.712519 
L 347.969917 495.122507 
L 348.67766 494.879077 
L 349.603171 494.824262 
L 350.964216 494.726338 
L 352.434145 494.296217 
L 353.250772 494.206775 
L 353.849632 494.355524 
L 354.502933 494.764104 
L 355.31956 495.574801 
L 357.225024 497.586765 
L 357.878325 497.933367 
L 358.477185 498.007448 
L 359.076045 497.841886 
L 359.729347 497.402582 
L 360.491532 496.594698 
L 361.63481 494.997493 
L 362.941413 493.253487 
L 363.594715 492.709184 
L 364.139133 492.509378 
L 364.683551 492.549671 
L 365.282411 492.835439 
L 366.15348 493.537563 
L 367.950059 495.021985 
L 370.563266 496.900021 
L 371.978753 498.04607 
L 372.577613 498.240183 
L 373.067589 498.159623 
L 373.557565 497.831452 
L 374.101983 497.183299 
L 374.864169 495.891457 
L 376.551865 492.903077 
L 377.205166 492.233633 
L 377.749584 491.980137 
L 378.294002 491.977903 
L 378.947304 492.224732 
L 379.927256 492.872136 
L 381.397185 494.109475 
L 382.377138 495.21481 
L 383.629299 497.025619 
L 384.718135 498.474676 
L 385.316995 498.933966 
L 385.806972 499.034297 
L 386.242506 498.890454 
L 386.732482 498.4689 
L 387.331342 497.627401 
L 388.256853 495.87225 
L 389.726782 493.100019 
L 390.434525 492.201085 
L 391.033385 491.760517 
L 391.577803 491.620435 
L 392.122221 491.713705 
L 392.721081 492.055778 
L 393.428824 492.726121 
L 394.463219 494.051791 
L 396.695333 496.995878 
L 397.620843 497.820029 
L 398.43747 498.255415 
L 399.145214 498.392261 
L 399.852957 498.29577 
L 400.560701 497.962452 
L 401.322886 497.346236 
L 402.248397 496.28742 
L 405.024929 492.868399 
L 405.678231 492.515995 
L 406.27709 492.425991 
L 406.984834 492.560879 
L 408.07367 493.050807 
L 410.904644 494.606895 
L 411.775713 495.446881 
L 414.062269 497.88976 
L 414.552245 498.009179 
L 414.987779 497.886338 
L 415.477756 497.480878 
L 416.076615 496.643447 
L 417.11101 494.693168 
L 418.090962 492.996082 
L 418.689822 492.34025 
L 419.179798 492.087737 
L 419.669775 492.087733 
L 420.214193 492.339393 
L 420.976378 492.989125 
L 423.480701 495.333593 
L 425.059513 496.36632 
L 426.093908 496.824738 
L 426.801651 496.908835 
L 427.400511 496.767122 
L 428.053813 496.370995 
L 428.87044 495.584115 
L 430.830345 493.56676 
L 431.538088 493.208469 
L 432.19139 493.131448 
L 432.899133 493.293343 
L 433.770202 493.751482 
L 435.131247 494.768098 
L 436.818943 495.981375 
L 437.635571 496.305424 
L 438.397756 496.366649 
L 439.268825 496.190345 
L 441.337613 495.66667 
L 442.7531 495.692058 
L 443.678611 495.585197 
L 444.440796 495.268155 
L 445.692958 494.438866 
L 446.564027 493.993758 
L 447.162887 493.917137 
L 447.761746 494.073279 
L 448.46949 494.526415 
L 451.028255 496.47634 
L 451.681556 496.562773 
L 452.3893 496.422925 
L 453.423694 495.95687 
L 455.492483 495.015452 
L 458.541224 493.968636 
L 459.357851 493.947571 
L 460.174478 494.147231 
L 461.535523 494.763469 
L 462.896568 495.28072 
L 466.380844 496.167188 
L 467.088587 496.099258 
L 467.796331 495.802832 
L 468.776283 495.105428 
L 470.246212 494.071015 
L 471.117281 493.749765 
L 472.151675 493.629824 
L 473.839371 493.682579 
L 474.819324 493.909387 
L 475.581509 494.310517 
L 476.452578 495.045826 
L 478.902459 497.346046 
L 479.501319 497.52053 
L 480.045737 497.458151 
L 480.644597 497.159833 
L 481.461224 496.465062 
L 483.475571 494.615359 
L 484.292198 494.230685 
L 485.108825 494.101324 
L 486.143219 494.182579 
L 487.830915 494.564546 
L 489.246402 495.088194 
L 491.641842 496.076296 
L 492.404027 496.091861 
L 493.220654 495.876638 
L 494.799466 495.146715 
L 496.051628 494.709928 
L 497.467115 494.482843 
L 499.590345 494.372575 
L 500.62474 494.522506 
L 501.604692 494.893081 
L 503.183505 495.792967 
L 504.54455 496.456948 
L 505.796711 496.804102 
L 507.103315 496.942424 
L 508.028825 496.839926 
L 508.791011 496.535941 
L 509.607638 495.944718 
L 511.023125 494.542284 
L 511.894193 493.849032 
L 512.547495 493.603209 
L 513.146355 493.62518 
L 513.799657 493.894595 
L 514.725167 494.566604 
L 516.412863 495.8297 
L 517.175049 496.112914 
L 517.82835 496.132526 
L 518.536094 495.916498 
L 519.407163 495.389248 
L 521.040417 494.352562 
L 521.74816 494.178701 
L 522.510346 494.223836 
L 524.74246 494.53995 
L 525.776854 494.315117 
L 526.974574 494.099788 
L 527.682317 494.214462 
L 528.390061 494.569273 
L 529.315571 495.309844 
L 530.894384 496.586102 
L 531.656569 496.894486 
L 532.364312 496.926192 
L 533.126498 496.724164 
L 534.650868 496.006865 
L 535.794146 495.60805 
L 538.842887 494.793598 
L 541.619419 493.35115 
L 542.272721 493.38477 
L 542.980465 493.663132 
L 543.797092 494.249617 
L 545.103695 495.522539 
L 546.46474 496.762449 
L 547.226925 497.186267 
L 547.934669 497.325703 
L 548.642412 497.218161 
L 549.459039 496.844722 
L 550.602317 496.050297 
L 552.507781 494.424009 
L 554.086593 493.138828 
L 554.848778 492.790705 
L 555.447638 492.738421 
L 556.046498 492.905325 
L 556.754241 493.363579 
L 557.734194 494.31184 
L 559.639657 496.188477 
L 560.61961 496.812956 
L 561.490678 497.103868 
L 562.252864 497.130085 
L 563.015049 496.923043 
L 563.831676 496.448524 
L 564.920512 495.523182 
L 566.66265 494.047412 
L 567.533719 493.62118 
L 568.350346 493.478857 
L 569.221415 493.567796 
L 570.255809 493.909676 
L 571.834622 494.705596 
L 573.576759 495.531263 
L 574.937804 495.90537 
L 577.768778 496.389772 
L 578.585405 496.29564 
L 579.293149 495.976032 
L 580.055334 495.359312 
L 581.253054 494.031132 
L 582.287448 493.023781 
L 582.886308 492.719178 
L 583.430726 492.692808 
L 583.975144 492.917825 
L 584.574004 493.423419 
L 585.499515 494.538617 
L 586.806118 496.054561 
L 587.45942 496.499695 
L 588.05828 496.653855 
L 588.657139 496.576955 
L 589.419325 496.225024 
L 592.195857 494.680891 
L 593.230251 494.500302 
L 595.135714 494.4532 
L 596.986736 494.5625 
L 598.02113 494.858298 
L 599.21885 495.456735 
L 600.906546 496.292448 
L 601.777615 496.463918 
L 602.594242 496.394296 
L 603.465311 496.082894 
L 604.499705 495.451355 
L 606.187401 494.09712 
L 607.548446 493.120606 
L 608.473957 492.72642 
L 609.236142 492.629909 
L 609.998327 492.747085 
L 610.869396 493.110743 
L 612.012674 493.853146 
L 615.878042 496.599354 
L 616.694669 496.782542 
L 617.456855 496.713736 
L 618.273482 496.394579 
L 619.307876 495.716433 
L 622.084408 493.73535 
L 622.846593 493.51777 
L 623.554337 493.542423 
L 624.316522 493.80712 
L 625.350917 494.433637 
L 626.875287 495.341057 
L 627.746356 495.594816 
L 628.671867 495.627549 
L 632.1017 495.511116 
L 633.190537 495.439653 
L 634.061605 495.148927 
L 636.565928 494.097343 
L 637.164788 494.233057 
L 637.81809 494.644045 
L 638.689159 495.500161 
L 640.104646 496.9001 
L 640.757948 497.25201 
L 641.356807 497.33199 
L 641.955667 497.186142 
L 642.717853 496.743342 
L 644.405549 495.380841 
L 645.548826 494.637853 
L 646.583221 494.224456 
L 647.726499 494.017322 
L 648.924218 494.024682 
L 650.17638 494.26014 
L 651.809634 494.829659 
L 655.076142 495.972939 
L 656.437188 496.270445 
L 657.362698 496.249637 
L 658.233767 495.996558 
L 659.21372 495.456742 
L 660.901416 494.199416 
L 662.208019 493.355264 
L 663.024646 493.09089 
L 663.677948 493.108602 
L 664.331249 493.360949 
L 665.093435 493.930869 
L 666.508922 495.376507 
L 667.434432 496.145238 
L 668.087734 496.428406 
L 668.686594 496.461297 
L 669.339896 496.263339 
L 670.156523 495.754649 
L 672.824171 493.880257 
L 673.640798 493.68346 
L 674.457425 493.7157 
L 675.49182 493.993908 
L 675.981796 494.181491 
L 675.981796 494.181491 
" clip-path="url(#p04f85b3530)" style="fill: none; stroke: #ff0000; stroke-width: 1.5; stroke-linecap: square"/>
   </g>
   <g id="line2d_49">
    <path d="M 131.618181 110.472432 
L 132.108157 134.423449 
L 132.48925 173.791531 
L 133.142551 269.872281 
L 134.721364 512.222189 
L 135.265782 562.195312 
L 135.701316 584.640864 
L 136.027967 591.959423 
L 136.191292 592.970349 
L 136.245734 592.935219 
L 136.354618 592.399094 
L 136.572385 589.57531 
L 136.899036 581.850975 
L 137.552338 559.614597 
L 138.53229 527.32932 
L 139.13115 514.889532 
L 139.566684 509.748427 
L 139.947777 507.427781 
L 140.274428 506.528393 
L 140.601079 506.297311 
L 141.363264 506.475403 
L 141.635473 506.257362 
L 141.962124 505.632926 
L 142.343216 504.326849 
L 142.996518 501.119919 
L 144.085354 496.068607 
L 144.629772 494.654103 
L 145.010865 494.26417 
L 145.228632 494.243203 
L 145.718608 494.678825 
L 146.208585 495.660543 
L 147.351863 498.157907 
L 147.732955 498.562613 
L 148.114048 498.577484 
L 148.549582 498.261804 
L 149.529535 497.426947 
L 149.856186 497.470137 
L 150.182836 497.706179 
L 150.618371 498.374132 
L 151.217231 500.000244 
L 152.959369 504.657038 
L 153.394903 505.125128 
L 153.775996 505.204049 
L 154.102647 505.022627 
L 154.429297 504.585532 
L 154.81039 503.711301 
L 155.300366 502.004758 
L 156.116993 497.831943 
L 157.423597 489.337814 
L 158.240224 485.030689 
L 158.784642 483.320666 
L 159.111293 482.92594 
L 159.32906 482.978939 
L 159.546827 483.258875 
L 159.92792 484.375154 
L 160.363454 486.61917 
L 160.962314 490.973084 
L 162.65001 504.279861 
L 163.194428 506.725805 
L 163.575521 507.482011 
L 163.793288 507.554334 
L 164.011055 507.371843 
L 164.283264 506.832487 
L 164.827682 504.800502 
L 165.807635 499.800513 
L 166.624262 496.002181 
L 167.114238 494.641682 
L 167.495331 494.125983 
L 167.821982 493.976141 
L 168.257516 494.141475 
L 168.638609 494.469265 
L 169.89077 495.649437 
L 170.217421 495.539439 
L 170.544072 495.219728 
L 171.08849 494.385042 
L 173.048395 491.275311 
L 173.756138 490.84084 
L 174.137231 490.900951 
L 174.518324 491.181751 
L 175.117183 491.981201 
L 176.042694 493.72952 
L 177.077089 495.595648 
L 177.839274 496.427516 
L 178.655901 497.087512 
L 179.635853 497.687683 
L 180.615806 497.889284 
L 181.269108 497.718152 
L 181.759084 497.382631 
L 182.357944 496.673721 
L 184.97115 492.723828 
L 185.787777 491.945076 
L 186.16887 491.842102 
L 186.604404 492.080697 
L 187.203264 492.711238 
L 188.074333 493.985119 
L 189.326495 495.74528 
L 189.925355 496.215116 
L 190.469773 496.381893 
L 191.014191 496.338189 
L 191.667492 496.076402 
L 194.117374 494.947999 
L 194.934001 494.906963 
L 196.022837 495.103336 
L 198.037184 495.550795 
L 198.962694 495.516718 
L 199.72488 495.289432 
L 200.595949 494.766044 
L 202.44697 493.572811 
L 203.154713 493.365793 
L 203.808015 493.406559 
L 204.515759 493.681145 
L 205.441269 494.294732 
L 206.96564 495.311786 
L 207.836709 495.611597 
L 208.979987 495.715424 
L 211.429868 495.626517 
L 212.954238 495.415984 
L 214.424167 495.168211 
L 215.295236 495.270048 
L 216.111863 495.600469 
L 217.581792 496.249109 
L 218.235094 496.265684 
L 218.779512 496.065662 
L 219.378372 495.603818 
L 220.358324 494.487343 
L 221.44716 493.346748 
L 222.100462 492.965712 
L 222.699322 492.872723 
L 223.298182 493.006998 
L 224.005925 493.400253 
L 227.272433 495.542059 
L 228.197944 495.67876 
L 229.123455 495.549816 
L 231.518894 495.039105 
L 232.498847 495.13859 
L 233.587683 495.488917 
L 235.329821 496.043589 
L 236.037564 496.008595 
L 236.636424 495.765531 
L 237.235284 495.264617 
L 238.051911 494.251174 
L 239.467398 492.474627 
L 240.120699 491.989673 
L 240.556234 491.902174 
L 240.991768 492.039764 
L 241.536186 492.485901 
L 242.352814 493.540229 
L 243.877184 495.640842 
L 244.584928 496.23744 
L 245.238229 496.523438 
L 245.837089 496.572027 
L 246.817042 496.369615 
L 248.613621 495.955243 
L 250.954619 495.532257 
L 252.097897 495.103117 
L 254.983312 493.781003 
L 255.691056 493.749904 
L 256.562125 493.948768 
L 258.576472 494.717362 
L 260.318609 495.239945 
L 261.897422 495.52489 
L 263.421792 495.597188 
L 266.034999 495.763893 
L 267.341602 495.757864 
L 270.063693 495.62934 
L 272.186923 495.924113 
L 272.840225 495.691292 
L 273.547968 495.154903 
L 274.582362 494.04323 
L 275.39899 493.310585 
L 275.943408 493.076442 
L 276.433384 493.087412 
L 276.977802 493.347245 
L 277.685545 493.955616 
L 279.264358 495.386037 
L 279.917659 495.659158 
L 280.625403 495.703891 
L 281.387588 495.525056 
L 283.674144 494.792887 
L 284.545213 494.900143 
L 285.797374 495.34977 
L 289.444975 496.811746 
L 290.152719 496.820247 
L 290.751579 496.590829 
L 291.350439 496.092947 
L 292.00374 495.205582 
L 292.929251 493.504824 
L 294.072529 491.506478 
L 294.671389 490.892385 
L 295.052481 490.774922 
L 295.433574 490.91447 
L 295.92355 491.368481 
L 296.631294 492.366266 
L 298.155664 494.641065 
L 298.808966 495.20067 
L 299.407826 495.422952 
L 300.115569 495.435969 
L 302.511009 495.182199 
L 304.144263 495.340485 
L 305.233099 495.637029 
L 307.08412 496.218799 
L 307.846306 496.201413 
L 308.554049 495.952439 
L 309.370676 495.406945 
L 311.60279 493.776001 
L 312.419417 493.500495 
L 313.127161 493.477157 
L 313.834904 493.688207 
L 314.814857 494.234187 
L 316.12146 494.855231 
L 316.992529 495.003561 
L 319.224643 495.187972 
L 320.367921 495.658899 
L 321.565641 496.081055 
L 322.382268 496.148474 
L 323.416662 496.020921 
L 326.95538 495.198091 
L 327.935332 494.633581 
L 329.840795 493.417118 
L 330.602981 493.267192 
L 331.256282 493.384157 
L 331.909584 493.71091 
L 333.052862 494.584507 
L 334.141698 495.34216 
L 334.903883 495.584274 
L 335.611627 495.591069 
L 336.373812 495.389531 
L 338.11595 494.840986 
L 338.987019 494.870591 
L 340.075855 495.216942 
L 342.906829 496.288275 
L 343.886781 496.344961 
L 344.648966 496.152623 
L 345.411152 495.70417 
L 346.227779 494.963423 
L 347.643266 493.226282 
L 348.568776 492.255436 
L 349.167636 491.893061 
L 349.657613 491.834974 
L 350.202031 492.0224 
L 350.855332 492.501048 
L 351.889727 493.565464 
L 353.522981 495.179159 
L 354.666259 495.96667 
L 355.591769 496.368966 
L 356.299513 496.478014 
L 357.170582 496.382157 
L 358.096092 496.069521 
L 359.674905 495.514143 
L 360.654857 495.424113 
L 362.124786 495.368172 
L 362.995855 495.117757 
L 364.3569 494.444574 
L 365.717945 493.831235 
L 366.48013 493.742183 
L 367.296758 493.854856 
L 368.331152 494.235507 
L 369.746639 495.071841 
L 371.379893 496.071504 
L 372.359845 496.429331 
L 373.176473 496.495522 
L 373.938658 496.333881 
L 375.299703 495.778876 
L 377.477375 494.915704 
L 378.51177 494.776765 
L 379.382838 494.883325 
L 381.23386 495.23438 
L 382.213812 495.167933 
L 383.139323 494.858193 
L 385.915855 493.680321 
L 386.623599 493.766981 
L 387.494667 494.112008 
L 390.107874 495.322436 
L 391.033385 495.441353 
L 392.99329 495.584831 
L 394.027684 495.966385 
L 395.878706 496.730246 
L 396.640891 496.773699 
L 397.403076 496.572008 
L 398.328587 496.069272 
L 399.580748 495.107434 
L 401.159561 493.626566 
L 402.575048 492.353508 
L 403.282791 491.995753 
L 403.827209 491.920444 
L 404.643836 492.228919 
L 405.460463 492.845392 
L 407.638136 494.650876 
L 409.108064 495.338807 
L 410.686877 495.858648 
L 411.775713 495.99352 
L 412.864549 495.889842 
L 415.096663 495.650206 
L 416.566592 495.592087 
L 417.437661 495.287926 
L 418.63538 494.557033 
L 420.159751 493.691131 
L 420.976378 493.476594 
L 421.738563 493.505385 
L 422.500749 493.761157 
L 423.589585 494.414532 
L 425.603931 495.701131 
L 426.475 495.936652 
L 427.346069 495.952181 
L 430.775903 495.595249 
L 431.864739 495.2003 
L 433.497993 494.526014 
L 434.31462 494.480564 
L 437.690012 494.691148 
L 440.194335 494.291506 
L 441.22873 494.40322 
L 442.535333 494.811747 
L 444.930772 495.672836 
L 445.856283 495.704888 
L 446.890677 495.515271 
L 448.251723 495.249429 
L 449.06835 495.323479 
L 449.939419 495.621199 
L 452.824834 496.845479 
L 453.369252 496.739039 
L 453.968112 496.369529 
L 454.675856 495.622619 
L 455.546925 494.343818 
L 456.962412 492.275275 
L 457.561271 491.773259 
L 458.051248 491.622862 
L 458.486782 491.714912 
L 458.976758 492.054067 
L 459.684502 492.86368 
L 461.916616 495.676429 
L 462.624359 496.100097 
L 463.386545 496.301489 
L 464.14873 496.271479 
L 465.292008 495.989694 
L 467.197471 495.497962 
L 468.340749 495.437603 
L 469.756236 495.661469 
L 470.79063 495.738553 
L 471.607257 495.570074 
L 472.478326 495.130384 
L 475.200416 493.484059 
L 475.90816 493.455104 
L 476.50702 493.644633 
L 477.323647 494.156094 
L 479.719086 495.885251 
L 480.372388 495.972992 
L 481.134573 495.814005 
L 482.55006 495.185246 
L 483.584455 494.852828 
L 484.509965 494.776739 
L 486.252103 494.887113 
L 487.558706 495.098592 
L 488.810868 495.602221 
L 489.954146 495.987074 
L 490.607447 495.967889 
L 491.260749 495.694749 
L 492.077376 495.019964 
L 494.690583 492.579465 
L 495.289443 492.457117 
L 495.833861 492.568304 
L 496.432721 492.929847 
L 497.194906 493.675076 
L 499.699229 496.427407 
L 500.298089 496.625578 
L 500.951391 496.607534 
L 501.985785 496.313596 
L 503.183505 496.010226 
L 504.326782 496.017733 
L 506.123362 496.30847 
L 507.702174 496.571013 
L 508.518802 496.461265 
L 509.226545 496.128506 
L 509.934288 495.501824 
L 510.750916 494.433972 
L 512.438612 492.135152 
L 512.98303 491.751555 
L 513.473006 491.683001 
L 514.017424 491.872097 
L 514.561842 492.308456 
L 515.324027 493.249597 
L 517.011723 495.430847 
L 517.773908 496.039466 
L 518.481652 496.327829 
L 519.189395 496.390874 
L 520.114906 496.215509 
L 521.584835 495.650895 
L 522.728113 495.267289 
L 523.653623 495.188031 
L 525.940179 495.186213 
L 526.86569 494.869276 
L 529.315571 493.932999 
L 530.295524 493.813046 
L 531.057709 493.920988 
L 531.874336 494.257061 
L 533.017614 495.009193 
L 534.160892 495.693795 
L 534.923077 495.912115 
L 535.739704 495.906775 
L 536.610773 495.664444 
L 538.352911 495.064209 
L 539.115096 495.041038 
L 539.931723 495.227443 
L 540.911676 495.695734 
L 542.381605 496.393455 
L 543.198232 496.552903 
L 543.851533 496.48038 
L 544.722602 496.129278 
L 545.974764 495.302127 
L 547.880227 494.062033 
L 548.805738 493.718195 
L 549.567923 493.656237 
L 550.38455 493.801445 
L 551.418944 494.253249 
L 553.868826 495.401296 
L 554.794336 495.54058 
L 555.719847 495.469277 
L 557.570868 495.265372 
L 558.387496 495.375375 
L 559.476332 495.765424 
L 561.000702 496.295836 
L 561.762887 496.329799 
L 562.361747 496.167734 
L 563.123933 495.695599 
L 563.94056 494.910829 
L 565.247163 493.259872 
L 566.172674 492.276948 
L 566.825975 491.886368 
L 567.315952 491.835691 
L 567.86037 492.027195 
L 568.676997 492.598719 
L 572.869016 495.952811 
L 573.957852 496.472328 
L 574.937804 496.625737 
L 575.754432 496.55549 
L 579.510916 495.691486 
L 580.436427 495.131762 
L 581.851914 493.907981 
L 582.831866 493.182311 
L 583.53961 492.917593 
L 584.192911 492.926981 
L 584.846213 493.194174 
L 585.553957 493.751909 
L 587.568303 495.508221 
L 588.221605 495.664412 
L 588.874907 495.565418 
L 591.651439 494.849403 
L 592.413624 495.013076 
L 594.645738 495.644527 
L 598.61999 496.04912 
L 599.436617 495.879879 
L 600.14436 495.524272 
L 602.703125 493.948442 
L 603.301985 493.910432 
L 604.118612 494.111495 
L 607.004028 495.115965 
L 607.820655 495.055379 
L 608.746166 494.755033 
L 610.107211 494.279437 
L 610.814954 494.275832 
L 611.522698 494.525934 
L 612.393767 495.107979 
L 613.754812 496.014971 
L 614.680323 496.372988 
L 616.09581 496.63652 
L 617.075762 496.627492 
L 617.783506 496.401687 
L 618.382365 495.969404 
L 619.035667 495.202054 
L 620.070061 493.575195 
L 621.050014 492.17393 
L 621.594432 491.729108 
L 622.247734 491.749233 
L 622.73771 492.057972 
L 623.33657 492.718024 
L 625.895335 495.91793 
L 626.494194 496.185399 
L 627.093054 496.206871 
L 627.85524 495.970456 
L 630.196237 494.966791 
L 631.012864 494.960252 
L 631.938375 495.204431 
L 633.353862 495.54486 
L 634.224931 495.5037 
L 641.955667 494.387369 
L 643.044503 494.672355 
L 645.113292 495.248253 
L 646.800988 495.5146 
L 648.107591 495.567364 
L 649.740845 495.319551 
L 650.938565 495.205792 
L 651.809634 495.369402 
L 653.334005 495.778467 
L 653.987306 495.703899 
L 654.586166 495.419581 
L 655.402793 494.722878 
L 657.253815 493.001673 
L 657.798233 492.851645 
L 658.288209 492.946625 
L 658.832627 493.294651 
L 659.594812 494.090122 
L 661.228066 495.858386 
L 661.881368 496.19244 
L 662.425786 496.234732 
L 663.024646 496.041423 
L 664.05904 495.421814 
L 665.25676 494.791001 
L 665.964504 494.701381 
L 666.726689 494.865349 
L 667.815525 495.360285 
L 669.285454 496.08192 
L 670.156523 496.305761 
L 670.97315 496.309393 
L 671.626451 496.089655 
L 672.279753 495.636561 
L 672.987496 494.862525 
L 674.185216 493.088267 
L 675.056285 491.939102 
L 675.600703 491.511682 
L 675.981796 491.421513 
L 675.981796 491.421513 
" clip-path="url(#p04f85b3530)" style="fill: none; stroke: #0000ff; stroke-width: 1.5; stroke-linecap: square"/>
   </g>
   <g id="patch_3">
    <path d="M 104.4 640.3905 
L 104.4 39.1875 
" style="fill: none; stroke: #000000; stroke-width: 0.8; stroke-linejoin: miter; stroke-linecap: square"/>
   </g>
   <g id="patch_4">
    <path d="M 703.199977 640.3905 
L 703.199977 39.1875 
" style="fill: none; stroke: #000000; stroke-width: 0.8; stroke-linejoin: miter; stroke-linecap: square"/>
   </g>
   <g id="patch_5">
    <path d="M 104.4 640.3905 
L 703.199977 640.3905 
" style="fill: none; stroke: #000000; stroke-width: 0.8; stroke-linejoin: miter; stroke-linecap: square"/>
   </g>
   <g id="patch_6">
    <path d="M 104.4 39.1875 
L 703.199977 39.1875 
" style="fill: none; stroke: #000000; stroke-width: 0.8; stroke-linejoin: miter; stroke-linecap: square"/>
   </g>
   <g id="legend_1">
    <g id="patch_7">
     <path d="M 125.4 149.11875 
L 301.410938 149.11875 
Q 307.410938 149.11875 307.410938 143.11875 
L 307.410938 60.1875 
Q 307.410938 54.1875 301.410938 54.1875 
L 125.4 54.1875 
Q 119.4 54.1875 119.4 60.1875 
L 119.4 143.11875 
Q 119.4 149.11875 125.4 149.11875 
z
" style="fill: #ffffff; opacity: 0.8; stroke: #cccccc; stroke-linejoin: miter"/>
    </g>
    <g id="line2d_50">
     <path d="M 131.4 77.428125 
L 161.4 77.428125 
L 191.4 77.428125 
" style="fill: none; stroke: #ff0000; stroke-width: 1.5; stroke-linecap: square"/>
    </g>
    <g id="text_15">
     <!-- MD -->
     <g transform="translate(215.4 87.928125) scale(0.3 -0.3)">
      <defs>
       <path id="LiberationSans-4d" d="M 4269 0 
L 4269 2938 
Q 4269 3425 4297 3875 
Q 4144 3316 4022 3000 
L 2884 0 
L 2466 0 
L 1313 3000 
L 1138 3531 
L 1034 3875 
L 1044 3528 
L 1056 2938 
L 1056 0 
L 525 0 
L 525 4403 
L 1309 4403 
L 2481 1350 
Q 2544 1166 2601 955 
Q 2659 744 2678 650 
Q 2703 775 2783 1029 
Q 2863 1284 2891 1350 
L 4041 4403 
L 4806 4403 
L 4806 0 
L 4269 0 
z
" transform="scale(0.015625)"/>
       <path id="LiberationSans-44" d="M 4316 2247 
Q 4316 1566 4050 1055 
Q 3784 544 3296 272 
Q 2809 0 2172 0 
L 525 0 
L 525 4403 
L 1981 4403 
Q 3100 4403 3708 3842 
Q 4316 3281 4316 2247 
z
M 3716 2247 
Q 3716 3066 3267 3495 
Q 2819 3925 1969 3925 
L 1122 3925 
L 1122 478 
L 2103 478 
Q 2588 478 2955 690 
Q 3322 903 3519 1303 
Q 3716 1703 3716 2247 
z
" transform="scale(0.015625)"/>
      </defs>
      <use xlink:href="#LiberationSans-4d"/>
      <use xlink:href="#LiberationSans-44" x="83.300781"/>
     </g>
    </g>
    <g id="line2d_51">
     <path d="M 131.4 120.39375 
L 161.4 120.39375 
L 191.4 120.39375 
" style="fill: none; stroke: #0000ff; stroke-width: 1.5; stroke-linecap: square"/>
    </g>
    <g id="text_16">
     <!-- GANs -->
     <g transform="translate(215.4 130.89375) scale(0.3 -0.3)">
      <defs>
       <path id="LiberationSans-47" d="M 322 2222 
Q 322 3294 897 3881 
Q 1472 4469 2513 4469 
Q 3244 4469 3700 4222 
Q 4156 3975 4403 3431 
L 3834 3263 
Q 3647 3638 3317 3809 
Q 2988 3981 2497 3981 
Q 1734 3981 1331 3520 
Q 928 3059 928 2222 
Q 928 1388 1356 905 
Q 1784 422 2541 422 
Q 2972 422 3345 553 
Q 3719 684 3950 909 
L 3950 1703 
L 2634 1703 
L 2634 2203 
L 4500 2203 
L 4500 684 
Q 4150 328 3642 132 
Q 3134 -63 2541 -63 
Q 1850 -63 1350 212 
Q 850 488 586 1005 
Q 322 1522 322 2222 
z
" transform="scale(0.015625)"/>
       <path id="LiberationSans-4e" d="M 3381 0 
L 1025 3750 
L 1041 3447 
L 1056 2925 
L 1056 0 
L 525 0 
L 525 4403 
L 1219 4403 
L 3600 628 
Q 3563 1241 3563 1516 
L 3563 4403 
L 4100 4403 
L 4100 0 
L 3381 0 
z
" transform="scale(0.015625)"/>
      </defs>
      <use xlink:href="#LiberationSans-47"/>
      <use xlink:href="#LiberationSans-41" x="77.783203"/>
      <use xlink:href="#LiberationSans-4e" x="144.482422"/>
      <use xlink:href="#LiberationSans-73" x="216.699219"/>
     </g>
    </g>
   </g>
  </g>
 </g>
 <defs>
  <clipPath id="p04f85b3530">
   <rect x="104.4" y="39.1875" width="598.799977" height="601.203"/>
  </clipPath>
 </defs>
</svg>
