<?xml version="1.0" encoding="utf-8" standalone="no"?>
<!DOCTYPE svg PUBLIC "-//W3C//DTD SVG 1.1//EN"
  "http://www.w3.org/Graphics/SVG/1.1/DTD/svg11.dtd">
<svg xmlns:xlink="http://www.w3.org/1999/xlink" width="710.399977pt" height="711.02175pt" viewBox="0 0 710.399977 711.02175" xmlns="http://www.w3.org/2000/svg" version="1.1">
 <metadata>
  <rdf:RDF xmlns:dc="http://purl.org/dc/elements/1.1/" xmlns:cc="http://creativecommons.org/ns#" xmlns:rdf="http://www.w3.org/1999/02/22-rdf-syntax-ns#">
   <cc:Work>
    <dc:type rdf:resource="http://purl.org/dc/dcmitype/StillImage"/>
    <dc:date>2025-02-06T00:34:26.201442</dc:date>
    <dc:format>image/svg+xml</dc:format>
    <dc:creator>
     <cc:Agent>
      <dc:title>Matplotlib v3.9.3, https://matplotlib.org/</dc:title>
     </cc:Agent>
    </dc:creator>
   </cc:Work>
  </rdf:RDF>
 </metadata>
 <defs>
  <style type="text/css">*{stroke-linejoin: round; stroke-linecap: butt}</style>
 </defs>
 <g id="figure_1">
  <g id="patch_1">
   <path d="M 0 711.02175 
L 710.399977 711.02175 
L 710.399977 0 
L 0 0 
z
" style="fill: #ffffff"/>
  </g>
  <g id="axes_1">
   <g id="patch_2">
    <path d="M 104.4 640.3905 
L 703.199977 640.3905 
L 703.199977 39.1875 
L 104.4 39.1875 
z
" style="fill: #ffffff"/>
   </g>
   <g id="matplotlib.axis_1">
    <g id="xtick_1">
     <g id="line2d_1">
      <defs>
       <path id="m821ba4ce3f" d="M 0 0 
L 0 -3.5 
" style="stroke: #000000; stroke-width: 0.8"/>
      </defs>
      <g>
       <use xlink:href="#m821ba4ce3f" x="131.563739" y="640.3905" style="stroke: #000000; stroke-width: 0.8"/>
      </g>
     </g>
     <g id="text_1">
      <!-- 0 -->
      <g transform="translate(123.222333 665.631125) scale(0.3 -0.3)">
       <defs>
        <path id="LiberationSans-30" d="M 3309 2203 
Q 3309 1100 2920 518 
Q 2531 -63 1772 -63 
Q 1013 -63 631 515 
Q 250 1094 250 2203 
Q 250 3338 620 3903 
Q 991 4469 1791 4469 
Q 2569 4469 2939 3897 
Q 3309 3325 3309 2203 
z
M 2738 2203 
Q 2738 3156 2517 3584 
Q 2297 4013 1791 4013 
Q 1272 4013 1045 3591 
Q 819 3169 819 2203 
Q 819 1266 1048 831 
Q 1278 397 1778 397 
Q 2275 397 2506 840 
Q 2738 1284 2738 2203 
z
" transform="scale(0.015625)"/>
       </defs>
       <use xlink:href="#LiberationSans-30"/>
      </g>
     </g>
    </g>
    <g id="xtick_2">
     <g id="line2d_2">
      <g>
       <use xlink:href="#m821ba4ce3f" x="240.44735" y="640.3905" style="stroke: #000000; stroke-width: 0.8"/>
      </g>
     </g>
     <g id="text_2">
      <!-- 2 -->
      <g transform="translate(232.105944 665.631125) scale(0.3 -0.3)">
       <defs>
        <path id="LiberationSans-32" d="M 322 0 
L 322 397 
Q 481 763 711 1042 
Q 941 1322 1194 1548 
Q 1447 1775 1695 1969 
Q 1944 2163 2144 2356 
Q 2344 2550 2467 2762 
Q 2591 2975 2591 3244 
Q 2591 3606 2378 3806 
Q 2166 4006 1788 4006 
Q 1428 4006 1195 3811 
Q 963 3616 922 3263 
L 347 3316 
Q 409 3844 795 4156 
Q 1181 4469 1788 4469 
Q 2453 4469 2811 4155 
Q 3169 3841 3169 3263 
Q 3169 3006 3051 2753 
Q 2934 2500 2703 2247 
Q 2472 1994 1819 1463 
Q 1459 1169 1246 933 
Q 1034 697 941 478 
L 3238 478 
L 3238 0 
L 322 0 
z
" transform="scale(0.015625)"/>
       </defs>
       <use xlink:href="#LiberationSans-32"/>
      </g>
     </g>
    </g>
    <g id="xtick_3">
     <g id="line2d_3">
      <g>
       <use xlink:href="#m821ba4ce3f" x="349.330962" y="640.3905" style="stroke: #000000; stroke-width: 0.8"/>
      </g>
     </g>
     <g id="text_3">
      <!-- 4 -->
      <g transform="translate(340.989555 665.631125) scale(0.3 -0.3)">
       <defs>
        <path id="LiberationSans-34" d="M 2753 997 
L 2753 0 
L 2222 0 
L 2222 997 
L 147 997 
L 147 1434 
L 2163 4403 
L 2753 4403 
L 2753 1441 
L 3372 1441 
L 3372 997 
L 2753 997 
z
M 2222 3769 
Q 2216 3750 2134 3603 
Q 2053 3456 2013 3397 
L 884 1734 
L 716 1503 
L 666 1441 
L 2222 1441 
L 2222 3769 
z
" transform="scale(0.015625)"/>
       </defs>
       <use xlink:href="#LiberationSans-34"/>
      </g>
     </g>
    </g>
    <g id="xtick_4">
     <g id="line2d_4">
      <g>
       <use xlink:href="#m821ba4ce3f" x="458.214573" y="640.3905" style="stroke: #000000; stroke-width: 0.8"/>
      </g>
     </g>
     <g id="text_4">
      <!-- 6 -->
      <g transform="translate(449.873167 665.631125) scale(0.3 -0.3)">
       <defs>
        <path id="LiberationSans-36" d="M 3278 1441 
Q 3278 744 2900 340 
Q 2522 -63 1856 -63 
Q 1113 -63 719 490 
Q 325 1044 325 2100 
Q 325 3244 734 3856 
Q 1144 4469 1900 4469 
Q 2897 4469 3156 3572 
L 2619 3475 
Q 2453 4013 1894 4013 
Q 1413 4013 1148 3564 
Q 884 3116 884 2266 
Q 1038 2550 1316 2698 
Q 1594 2847 1953 2847 
Q 2563 2847 2920 2465 
Q 3278 2084 3278 1441 
z
M 2706 1416 
Q 2706 1894 2472 2153 
Q 2238 2413 1819 2413 
Q 1425 2413 1183 2183 
Q 941 1953 941 1550 
Q 941 1041 1192 716 
Q 1444 391 1838 391 
Q 2244 391 2475 664 
Q 2706 938 2706 1416 
z
" transform="scale(0.015625)"/>
       </defs>
       <use xlink:href="#LiberationSans-36"/>
      </g>
     </g>
    </g>
    <g id="xtick_5">
     <g id="line2d_5">
      <g>
       <use xlink:href="#m821ba4ce3f" x="567.098184" y="640.3905" style="stroke: #000000; stroke-width: 0.8"/>
      </g>
     </g>
     <g id="text_5">
      <!-- 8 -->
      <g transform="translate(558.756778 665.631125) scale(0.3 -0.3)">
       <defs>
        <path id="LiberationSans-38" d="M 3281 1228 
Q 3281 619 2893 278 
Q 2506 -63 1781 -63 
Q 1075 -63 676 271 
Q 278 606 278 1222 
Q 278 1653 525 1947 
Q 772 2241 1156 2303 
L 1156 2316 
Q 797 2400 589 2681 
Q 381 2963 381 3341 
Q 381 3844 757 4156 
Q 1134 4469 1769 4469 
Q 2419 4469 2795 4162 
Q 3172 3856 3172 3334 
Q 3172 2956 2962 2675 
Q 2753 2394 2391 2322 
L 2391 2309 
Q 2813 2241 3047 1952 
Q 3281 1663 3281 1228 
z
M 2588 3303 
Q 2588 4050 1769 4050 
Q 1372 4050 1164 3862 
Q 956 3675 956 3303 
Q 956 2925 1170 2726 
Q 1384 2528 1775 2528 
Q 2172 2528 2380 2711 
Q 2588 2894 2588 3303 
z
M 2697 1281 
Q 2697 1691 2453 1898 
Q 2209 2106 1769 2106 
Q 1341 2106 1100 1882 
Q 859 1659 859 1269 
Q 859 359 1788 359 
Q 2247 359 2472 579 
Q 2697 800 2697 1281 
z
" transform="scale(0.015625)"/>
       </defs>
       <use xlink:href="#LiberationSans-38"/>
      </g>
     </g>
    </g>
    <g id="xtick_6">
     <g id="line2d_6">
      <g>
       <use xlink:href="#m821ba4ce3f" x="675.981796" y="640.3905" style="stroke: #000000; stroke-width: 0.8"/>
      </g>
     </g>
     <g id="text_6">
      <!-- 10 -->
      <g transform="translate(659.298983 665.631125) scale(0.3 -0.3)">
       <defs>
        <path id="LiberationSans-31" d="M 488 0 
L 488 478 
L 1609 478 
L 1609 3866 
L 616 3156 
L 616 3688 
L 1656 4403 
L 2175 4403 
L 2175 478 
L 3247 478 
L 3247 0 
L 488 0 
z
" transform="scale(0.015625)"/>
       </defs>
       <use xlink:href="#LiberationSans-31"/>
       <use xlink:href="#LiberationSans-30" x="55.615234"/>
      </g>
     </g>
    </g>
    <g id="xtick_7">
     <g id="line2d_7">
      <defs>
       <path id="m6f5dff76ab" d="M 0 0 
L 0 -2 
" style="stroke: #000000; stroke-width: 0.6"/>
      </defs>
      <g>
       <use xlink:href="#m6f5dff76ab" x="158.784642" y="640.3905" style="stroke: #000000; stroke-width: 0.6"/>
      </g>
     </g>
    </g>
    <g id="xtick_8">
     <g id="line2d_8">
      <g>
       <use xlink:href="#m6f5dff76ab" x="186.005545" y="640.3905" style="stroke: #000000; stroke-width: 0.6"/>
      </g>
     </g>
    </g>
    <g id="xtick_9">
     <g id="line2d_9">
      <g>
       <use xlink:href="#m6f5dff76ab" x="213.226447" y="640.3905" style="stroke: #000000; stroke-width: 0.6"/>
      </g>
     </g>
    </g>
    <g id="xtick_10">
     <g id="line2d_10">
      <g>
       <use xlink:href="#m6f5dff76ab" x="267.668253" y="640.3905" style="stroke: #000000; stroke-width: 0.6"/>
      </g>
     </g>
    </g>
    <g id="xtick_11">
     <g id="line2d_11">
      <g>
       <use xlink:href="#m6f5dff76ab" x="294.889156" y="640.3905" style="stroke: #000000; stroke-width: 0.6"/>
      </g>
     </g>
    </g>
    <g id="xtick_12">
     <g id="line2d_12">
      <g>
       <use xlink:href="#m6f5dff76ab" x="322.110059" y="640.3905" style="stroke: #000000; stroke-width: 0.6"/>
      </g>
     </g>
    </g>
    <g id="xtick_13">
     <g id="line2d_13">
      <g>
       <use xlink:href="#m6f5dff76ab" x="376.551865" y="640.3905" style="stroke: #000000; stroke-width: 0.6"/>
      </g>
     </g>
    </g>
    <g id="xtick_14">
     <g id="line2d_14">
      <g>
       <use xlink:href="#m6f5dff76ab" x="403.772767" y="640.3905" style="stroke: #000000; stroke-width: 0.6"/>
      </g>
     </g>
    </g>
    <g id="xtick_15">
     <g id="line2d_15">
      <g>
       <use xlink:href="#m6f5dff76ab" x="430.99367" y="640.3905" style="stroke: #000000; stroke-width: 0.6"/>
      </g>
     </g>
    </g>
    <g id="xtick_16">
     <g id="line2d_16">
      <g>
       <use xlink:href="#m6f5dff76ab" x="485.435476" y="640.3905" style="stroke: #000000; stroke-width: 0.6"/>
      </g>
     </g>
    </g>
    <g id="xtick_17">
     <g id="line2d_17">
      <g>
       <use xlink:href="#m6f5dff76ab" x="512.656379" y="640.3905" style="stroke: #000000; stroke-width: 0.6"/>
      </g>
     </g>
    </g>
    <g id="xtick_18">
     <g id="line2d_18">
      <g>
       <use xlink:href="#m6f5dff76ab" x="539.877282" y="640.3905" style="stroke: #000000; stroke-width: 0.6"/>
      </g>
     </g>
    </g>
    <g id="xtick_19">
     <g id="line2d_19">
      <g>
       <use xlink:href="#m6f5dff76ab" x="594.319087" y="640.3905" style="stroke: #000000; stroke-width: 0.6"/>
      </g>
     </g>
    </g>
    <g id="xtick_20">
     <g id="line2d_20">
      <g>
       <use xlink:href="#m6f5dff76ab" x="621.53999" y="640.3905" style="stroke: #000000; stroke-width: 0.6"/>
      </g>
     </g>
    </g>
    <g id="xtick_21">
     <g id="line2d_21">
      <g>
       <use xlink:href="#m6f5dff76ab" x="648.760893" y="640.3905" style="stroke: #000000; stroke-width: 0.6"/>
      </g>
     </g>
    </g>
    <g id="text_7">
     <!-- Time ps -->
     <g transform="translate(351.023426 697.59675) scale(0.3 -0.3)">
      <defs>
       <path id="LiberationSans-54" d="M 2250 3916 
L 2250 0 
L 1656 0 
L 1656 3916 
L 144 3916 
L 144 4403 
L 3763 4403 
L 3763 3916 
L 2250 3916 
z
" transform="scale(0.015625)"/>
       <path id="LiberationSans-69" d="M 428 4100 
L 428 4638 
L 991 4638 
L 991 4100 
L 428 4100 
z
M 428 0 
L 428 3381 
L 991 3381 
L 991 0 
L 428 0 
z
" transform="scale(0.015625)"/>
       <path id="LiberationSans-6d" d="M 2400 0 
L 2400 2144 
Q 2400 2634 2265 2821 
Q 2131 3009 1781 3009 
Q 1422 3009 1212 2734 
Q 1003 2459 1003 1959 
L 1003 0 
L 444 0 
L 444 2659 
Q 444 3250 425 3381 
L 956 3381 
Q 959 3366 962 3297 
Q 966 3228 970 3139 
Q 975 3050 981 2803 
L 991 2803 
Q 1172 3163 1406 3303 
Q 1641 3444 1978 3444 
Q 2363 3444 2586 3291 
Q 2809 3138 2897 2803 
L 2906 2803 
Q 3081 3144 3329 3294 
Q 3578 3444 3931 3444 
Q 4444 3444 4676 3166 
Q 4909 2888 4909 2253 
L 4909 0 
L 4353 0 
L 4353 2144 
Q 4353 2634 4218 2821 
Q 4084 3009 3734 3009 
Q 3366 3009 3161 2736 
Q 2956 2463 2956 1959 
L 2956 0 
L 2400 0 
z
" transform="scale(0.015625)"/>
       <path id="LiberationSans-65" d="M 863 1572 
Q 863 991 1103 675 
Q 1344 359 1806 359 
Q 2172 359 2392 506 
Q 2613 653 2691 878 
L 3184 738 
Q 2881 -63 1806 -63 
Q 1056 -63 664 384 
Q 272 831 272 1713 
Q 272 2550 664 2997 
Q 1056 3444 1784 3444 
Q 3275 3444 3275 1647 
L 3275 1572 
L 863 1572 
z
M 2694 2003 
Q 2647 2538 2422 2783 
Q 2197 3028 1775 3028 
Q 1366 3028 1127 2754 
Q 888 2481 869 2003 
L 2694 2003 
z
" transform="scale(0.015625)"/>
       <path id="LiberationSans-20" transform="scale(0.015625)"/>
       <path id="LiberationSans-70" d="M 3291 1706 
Q 3291 -63 2047 -63 
Q 1266 -63 997 525 
L 981 525 
Q 994 500 994 -6 
L 994 -1328 
L 431 -1328 
L 431 2691 
Q 431 3213 413 3381 
L 956 3381 
Q 959 3369 965 3292 
Q 972 3216 980 3056 
Q 988 2897 988 2838 
L 1000 2838 
Q 1150 3150 1397 3295 
Q 1644 3441 2047 3441 
Q 2672 3441 2981 3022 
Q 3291 2603 3291 1706 
z
M 2700 1694 
Q 2700 2400 2509 2703 
Q 2319 3006 1903 3006 
Q 1569 3006 1380 2865 
Q 1191 2725 1092 2426 
Q 994 2128 994 1650 
Q 994 984 1206 668 
Q 1419 353 1897 353 
Q 2316 353 2508 661 
Q 2700 969 2700 1694 
z
" transform="scale(0.015625)"/>
       <path id="LiberationSans-73" d="M 2969 934 
Q 2969 456 2608 196 
Q 2247 -63 1597 -63 
Q 966 -63 623 145 
Q 281 353 178 794 
L 675 891 
Q 747 619 972 492 
Q 1197 366 1597 366 
Q 2025 366 2223 497 
Q 2422 628 2422 891 
Q 2422 1091 2284 1216 
Q 2147 1341 1841 1422 
L 1438 1528 
Q 953 1653 748 1773 
Q 544 1894 428 2066 
Q 313 2238 313 2488 
Q 313 2950 642 3192 
Q 972 3434 1603 3434 
Q 2163 3434 2492 3237 
Q 2822 3041 2909 2606 
L 2403 2544 
Q 2356 2769 2151 2889 
Q 1947 3009 1603 3009 
Q 1222 3009 1040 2893 
Q 859 2778 859 2544 
Q 859 2400 934 2306 
Q 1009 2213 1156 2147 
Q 1303 2081 1775 1966 
Q 2222 1853 2419 1758 
Q 2616 1663 2730 1547 
Q 2844 1431 2906 1279 
Q 2969 1128 2969 934 
z
" transform="scale(0.015625)"/>
      </defs>
      <use xlink:href="#LiberationSans-54"/>
      <use xlink:href="#LiberationSans-69" x="57.333984"/>
      <use xlink:href="#LiberationSans-6d" x="79.550781"/>
      <use xlink:href="#LiberationSans-65" x="162.851562"/>
      <use xlink:href="#LiberationSans-20" x="218.466797"/>
      <use xlink:href="#LiberationSans-70" x="246.25"/>
      <use xlink:href="#LiberationSans-73" x="301.865234"/>
     </g>
    </g>
   </g>
   <g id="matplotlib.axis_2">
    <g id="ytick_1">
     <g id="line2d_22">
      <defs>
       <path id="m03f6118abc" d="M 0 0 
L 3.5 0 
" style="stroke: #000000; stroke-width: 0.8"/>
      </defs>
      <g>
       <use xlink:href="#m03f6118abc" x="104.4" y="634.217223" style="stroke: #000000; stroke-width: 0.8"/>
      </g>
     </g>
     <g id="text_8">
      <!-- $\mathdefault{−0.5}$ -->
      <g transform="translate(41.5 645.087536) scale(0.3 -0.3)">
       <defs>
        <path id="LiberationSans-2212" d="M 316 1900 
L 316 2356 
L 3425 2356 
L 3425 1900 
L 316 1900 
z
" transform="scale(0.015625)"/>
        <path id="LiberationSans-2e" d="M 584 0 
L 584 684 
L 1194 684 
L 1194 0 
L 584 0 
z
" transform="scale(0.015625)"/>
        <path id="LiberationSans-35" d="M 3291 1434 
Q 3291 738 2877 337 
Q 2463 -63 1728 -63 
Q 1113 -63 734 206 
Q 356 475 256 984 
L 825 1050 
Q 1003 397 1741 397 
Q 2194 397 2450 670 
Q 2706 944 2706 1422 
Q 2706 1838 2448 2094 
Q 2191 2350 1753 2350 
Q 1525 2350 1328 2278 
Q 1131 2206 934 2034 
L 384 2034 
L 531 4403 
L 3034 4403 
L 3034 3925 
L 1044 3925 
L 959 2528 
Q 1325 2809 1869 2809 
Q 2519 2809 2905 2428 
Q 3291 2047 3291 1434 
z
" transform="scale(0.015625)"/>
       </defs>
       <use xlink:href="#LiberationSans-2212" transform="translate(0 0.171875)"/>
       <use xlink:href="#LiberationSans-30" transform="translate(58.398438 0.171875)"/>
       <use xlink:href="#LiberationSans-2e" transform="translate(114.013672 0.171875)"/>
       <use xlink:href="#LiberationSans-35" transform="translate(141.796875 0.171875)"/>
      </g>
     </g>
    </g>
    <g id="ytick_2">
     <g id="line2d_23">
      <g>
       <use xlink:href="#m03f6118abc" x="104.4" y="502.153409" style="stroke: #000000; stroke-width: 0.8"/>
      </g>
     </g>
     <g id="text_9">
      <!-- $\mathdefault{0.0}$ -->
      <g transform="translate(58.9 513.023721) scale(0.3 -0.3)">
       <use xlink:href="#LiberationSans-30" transform="translate(0 0.171875)"/>
       <use xlink:href="#LiberationSans-2e" transform="translate(55.615234 0.171875)"/>
       <use xlink:href="#LiberationSans-30" transform="translate(83.398438 0.171875)"/>
      </g>
     </g>
    </g>
    <g id="ytick_3">
     <g id="line2d_24">
      <g>
       <use xlink:href="#m03f6118abc" x="104.4" y="370.089594" style="stroke: #000000; stroke-width: 0.8"/>
      </g>
     </g>
     <g id="text_10">
      <!-- $\mathdefault{0.5}$ -->
      <g transform="translate(58.9 380.959907) scale(0.3 -0.3)">
       <use xlink:href="#LiberationSans-30" transform="translate(0 0.171875)"/>
       <use xlink:href="#LiberationSans-2e" transform="translate(55.615234 0.171875)"/>
       <use xlink:href="#LiberationSans-35" transform="translate(83.398438 0.171875)"/>
      </g>
     </g>
    </g>
    <g id="ytick_4">
     <g id="line2d_25">
      <g>
       <use xlink:href="#m03f6118abc" x="104.4" y="238.02578" style="stroke: #000000; stroke-width: 0.8"/>
      </g>
     </g>
     <g id="text_11">
      <!-- $\mathdefault{1.0}$ -->
      <g transform="translate(58.9 248.896092) scale(0.3 -0.3)">
       <use xlink:href="#LiberationSans-31" transform="translate(0 0.171875)"/>
       <use xlink:href="#LiberationSans-2e" transform="translate(55.615234 0.171875)"/>
       <use xlink:href="#LiberationSans-30" transform="translate(83.398438 0.171875)"/>
      </g>
     </g>
    </g>
    <g id="ytick_5">
     <g id="line2d_26">
      <g>
       <use xlink:href="#m03f6118abc" x="104.4" y="105.961965" style="stroke: #000000; stroke-width: 0.8"/>
      </g>
     </g>
     <g id="text_12">
      <!-- $\mathdefault{1.5}$ -->
      <g transform="translate(58.9 116.832278) scale(0.3 -0.3)">
       <use xlink:href="#LiberationSans-31" transform="translate(0 0.203125)"/>
       <use xlink:href="#LiberationSans-2e" transform="translate(55.615234 0.203125)"/>
       <use xlink:href="#LiberationSans-35" transform="translate(83.398438 0.203125)"/>
      </g>
     </g>
    </g>
    <g id="ytick_6">
     <g id="line2d_27">
      <defs>
       <path id="mfc95b390de" d="M 0 0 
L 2 0 
" style="stroke: #000000; stroke-width: 0.6"/>
      </defs>
      <g>
       <use xlink:href="#mfc95b390de" x="104.4" y="607.804461" style="stroke: #000000; stroke-width: 0.6"/>
      </g>
     </g>
    </g>
    <g id="ytick_7">
     <g id="line2d_28">
      <g>
       <use xlink:href="#mfc95b390de" x="104.4" y="581.391698" style="stroke: #000000; stroke-width: 0.6"/>
      </g>
     </g>
    </g>
    <g id="ytick_8">
     <g id="line2d_29">
      <g>
       <use xlink:href="#mfc95b390de" x="104.4" y="554.978935" style="stroke: #000000; stroke-width: 0.6"/>
      </g>
     </g>
    </g>
    <g id="ytick_9">
     <g id="line2d_30">
      <g>
       <use xlink:href="#mfc95b390de" x="104.4" y="528.566172" style="stroke: #000000; stroke-width: 0.6"/>
      </g>
     </g>
    </g>
    <g id="ytick_10">
     <g id="line2d_31">
      <g>
       <use xlink:href="#mfc95b390de" x="104.4" y="475.740646" style="stroke: #000000; stroke-width: 0.6"/>
      </g>
     </g>
    </g>
    <g id="ytick_11">
     <g id="line2d_32">
      <g>
       <use xlink:href="#mfc95b390de" x="104.4" y="449.327883" style="stroke: #000000; stroke-width: 0.6"/>
      </g>
     </g>
    </g>
    <g id="ytick_12">
     <g id="line2d_33">
      <g>
       <use xlink:href="#mfc95b390de" x="104.4" y="422.91512" style="stroke: #000000; stroke-width: 0.6"/>
      </g>
     </g>
    </g>
    <g id="ytick_13">
     <g id="line2d_34">
      <g>
       <use xlink:href="#mfc95b390de" x="104.4" y="396.502357" style="stroke: #000000; stroke-width: 0.6"/>
      </g>
     </g>
    </g>
    <g id="ytick_14">
     <g id="line2d_35">
      <g>
       <use xlink:href="#mfc95b390de" x="104.4" y="343.676831" style="stroke: #000000; stroke-width: 0.6"/>
      </g>
     </g>
    </g>
    <g id="ytick_15">
     <g id="line2d_36">
      <g>
       <use xlink:href="#mfc95b390de" x="104.4" y="317.264068" style="stroke: #000000; stroke-width: 0.6"/>
      </g>
     </g>
    </g>
    <g id="ytick_16">
     <g id="line2d_37">
      <g>
       <use xlink:href="#mfc95b390de" x="104.4" y="290.851305" style="stroke: #000000; stroke-width: 0.6"/>
      </g>
     </g>
    </g>
    <g id="ytick_17">
     <g id="line2d_38">
      <g>
       <use xlink:href="#mfc95b390de" x="104.4" y="264.438543" style="stroke: #000000; stroke-width: 0.6"/>
      </g>
     </g>
    </g>
    <g id="ytick_18">
     <g id="line2d_39">
      <g>
       <use xlink:href="#mfc95b390de" x="104.4" y="211.613017" style="stroke: #000000; stroke-width: 0.6"/>
      </g>
     </g>
    </g>
    <g id="ytick_19">
     <g id="line2d_40">
      <g>
       <use xlink:href="#mfc95b390de" x="104.4" y="185.200254" style="stroke: #000000; stroke-width: 0.6"/>
      </g>
     </g>
    </g>
    <g id="ytick_20">
     <g id="line2d_41">
      <g>
       <use xlink:href="#mfc95b390de" x="104.4" y="158.787491" style="stroke: #000000; stroke-width: 0.6"/>
      </g>
     </g>
    </g>
    <g id="ytick_21">
     <g id="line2d_42">
      <g>
       <use xlink:href="#mfc95b390de" x="104.4" y="132.374728" style="stroke: #000000; stroke-width: 0.6"/>
      </g>
     </g>
    </g>
    <g id="ytick_22">
     <g id="line2d_43">
      <g>
       <use xlink:href="#mfc95b390de" x="104.4" y="79.549202" style="stroke: #000000; stroke-width: 0.6"/>
      </g>
     </g>
    </g>
    <g id="ytick_23">
     <g id="line2d_44">
      <g>
       <use xlink:href="#mfc95b390de" x="104.4" y="53.136439" style="stroke: #000000; stroke-width: 0.6"/>
      </g>
     </g>
    </g>
    <g id="text_13">
     <!-- ACF $(\mathrm{W} / \mathrm{m}^2)^2$ -->
     <g transform="translate(31.275 426.339) rotate(-90) scale(0.3 -0.3)">
      <defs>
       <path id="LiberationSans-41" d="M 3647 0 
L 3144 1288 
L 1138 1288 
L 631 0 
L 13 0 
L 1809 4403 
L 2488 4403 
L 4256 0 
L 3647 0 
z
M 2141 3953 
L 2113 3866 
Q 2034 3606 1881 3200 
L 1319 1753 
L 2966 1753 
L 2400 3206 
Q 2313 3422 2225 3694 
L 2141 3953 
z
" transform="scale(0.015625)"/>
       <path id="LiberationSans-43" d="M 2475 3981 
Q 1744 3981 1337 3511 
Q 931 3041 931 2222 
Q 931 1413 1354 920 
Q 1778 428 2500 428 
Q 3425 428 3891 1344 
L 4378 1100 
Q 4106 531 3614 234 
Q 3122 -63 2472 -63 
Q 1806 -63 1320 214 
Q 834 491 579 1005 
Q 325 1519 325 2222 
Q 325 3275 894 3872 
Q 1463 4469 2469 4469 
Q 3172 4469 3644 4194 
Q 4116 3919 4338 3378 
L 3772 3191 
Q 3619 3575 3280 3778 
Q 2941 3981 2475 3981 
z
" transform="scale(0.015625)"/>
       <path id="LiberationSans-46" d="M 1122 3916 
L 1122 2278 
L 3578 2278 
L 3578 1784 
L 1122 1784 
L 1122 0 
L 525 0 
L 525 4403 
L 3653 4403 
L 3653 3916 
L 1122 3916 
z
" transform="scale(0.015625)"/>
       <path id="STIXGeneral-Regular-28" d="M 1946 -1030 
L 1869 -1133 
Q 1126 -710 716 32 
Q 307 774 307 1613 
Q 307 3386 1888 4326 
L 1946 4224 
Q 1293 3667 1075 3126 
Q 858 2586 858 1632 
Q 858 685 1082 96 
Q 1306 -493 1946 -1030 
z
" transform="scale(0.015625)"/>
       <path id="STIXGeneral-Regular-57" d="M 5965 4237 
L 5965 4115 
Q 5709 4064 5616 3990 
Q 5523 3917 5434 3667 
Q 4704 1709 4128 -70 
L 4032 -70 
Q 3642 1011 3008 2637 
L 2022 -70 
L 1926 -70 
Q 1709 576 1277 1753 
Q 845 2931 698 3347 
Q 538 3808 406 3958 
Q 275 4109 32 4115 
L 32 4237 
L 1594 4237 
L 1594 4115 
Q 1357 4109 1270 4064 
Q 1184 4019 1184 3917 
Q 1184 3808 1254 3616 
L 2176 1210 
L 2842 3021 
L 2662 3501 
Q 2509 3917 2400 4013 
Q 2291 4109 2010 4115 
L 2010 4237 
L 3706 4237 
L 3706 4115 
Q 3213 4102 3213 3891 
Q 3213 3808 3322 3520 
L 4237 1190 
L 5043 3360 
Q 5152 3667 5152 3853 
Q 5152 4109 4704 4115 
L 4704 4237 
L 5965 4237 
z
" transform="scale(0.015625)"/>
       <path id="STIXGeneral-Regular-2f" d="M 1837 4326 
L 378 -90 
L -58 -90 
L 1408 4326 
L 1837 4326 
z
" transform="scale(0.015625)"/>
       <path id="STIXGeneral-Regular-6d" d="M 4960 0 
L 3565 0 
L 3565 96 
Q 3834 122 3907 208 
Q 3981 294 3981 576 
L 3981 1894 
Q 3981 2278 3869 2444 
Q 3757 2611 3488 2611 
Q 3264 2611 3107 2521 
Q 2950 2432 2803 2221 
L 2803 608 
Q 2803 301 2896 201 
Q 2989 102 3264 96 
L 3264 0 
L 1830 0 
L 1830 96 
Q 2112 115 2189 188 
Q 2266 262 2266 550 
L 2266 1901 
Q 2266 2611 1850 2611 
Q 1670 2611 1468 2531 
Q 1267 2451 1171 2336 
Q 1088 2240 1088 2227 
L 1088 448 
Q 1088 243 1177 176 
Q 1267 109 1523 96 
L 1523 0 
L 102 0 
L 102 96 
Q 371 102 460 195 
Q 550 288 550 563 
L 550 2150 
Q 550 2387 499 2480 
Q 448 2573 326 2573 
Q 230 2573 122 2547 
L 122 2656 
Q 557 2778 1011 2944 
L 1062 2925 
L 1062 2451 
L 1075 2451 
Q 1363 2752 1584 2848 
Q 1805 2944 2054 2944 
Q 2560 2944 2733 2406 
Q 3232 2944 3776 2944 
Q 4518 2944 4518 1792 
L 4518 493 
Q 4518 282 4582 202 
Q 4646 122 4794 109 
L 4960 96 
L 4960 0 
z
" transform="scale(0.015625)"/>
       <path id="STIXGeneral-Regular-32" d="M 3034 877 
L 2688 0 
L 186 0 
L 186 77 
L 1325 1286 
Q 1773 1754 1965 2144 
Q 2157 2534 2157 2950 
Q 2157 3379 1920 3616 
Q 1683 3853 1267 3853 
Q 922 3853 720 3673 
Q 518 3494 326 3021 
L 192 3053 
Q 301 3648 630 3987 
Q 960 4326 1523 4326 
Q 2054 4326 2380 4006 
Q 2707 3686 2707 3200 
Q 2707 2477 1888 1613 
L 832 486 
L 2330 486 
Q 2541 486 2665 569 
Q 2790 653 2944 915 
L 3034 877 
z
" transform="scale(0.015625)"/>
       <path id="STIXGeneral-Regular-29" d="M 186 4224 
L 262 4326 
Q 992 3891 1408 3148 
Q 1824 2406 1824 1581 
Q 1824 -166 243 -1133 
L 186 -1030 
Q 845 -486 1059 54 
Q 1274 595 1274 1562 
Q 1274 2534 1059 3120 
Q 845 3706 186 4224 
z
" transform="scale(0.015625)"/>
      </defs>
      <use xlink:href="#LiberationSans-41" transform="translate(0 0.409375)"/>
      <use xlink:href="#LiberationSans-43" transform="translate(66.699219 0.409375)"/>
      <use xlink:href="#LiberationSans-46" transform="translate(138.916016 0.409375)"/>
      <use xlink:href="#LiberationSans-20" transform="translate(200 0.409375)"/>
      <use xlink:href="#STIXGeneral-Regular-28" transform="translate(227.783203 0.409375)"/>
      <use xlink:href="#STIXGeneral-Regular-57" transform="translate(261.083191 0.409375)"/>
      <use xlink:href="#STIXGeneral-Regular-2f" transform="translate(355.483185 0.409375)"/>
      <use xlink:href="#STIXGeneral-Regular-6d" transform="translate(383.283173 0.409375)"/>
      <use xlink:href="#STIXGeneral-Regular-32" transform="translate(462.626442 35.684375) scale(0.7)"/>
      <use xlink:href="#STIXGeneral-Regular-29" transform="translate(502.035806 0.409375)"/>
      <use xlink:href="#STIXGeneral-Regular-32" transform="translate(536.879075 35.684375) scale(0.7)"/>
     </g>
    </g>
    <g id="text_14">
     <!-- $\times\mathdefault{10^{19}}\mathdefault{}$ -->
     <g transform="translate(104.4 36.1875) scale(0.4 -0.4)">
      <defs>
       <path id="STIXGeneral-Regular-d7" d="M 3821 141 
L 3526 -160 
L 2048 1312 
L 570 -160 
L 275 134 
L 1747 1613 
L 275 3091 
L 576 3386 
L 2048 1914 
L 3526 3386 
L 3821 3098 
L 2349 1613 
L 3821 141 
z
" transform="scale(0.015625)"/>
       <path id="LiberationSans-39" d="M 3256 2291 
Q 3256 1156 2842 546 
Q 2428 -63 1663 -63 
Q 1147 -63 836 154 
Q 525 372 391 856 
L 928 941 
Q 1097 391 1672 391 
Q 2156 391 2422 841 
Q 2688 1291 2700 2125 
Q 2575 1844 2272 1673 
Q 1969 1503 1606 1503 
Q 1013 1503 656 1909 
Q 300 2316 300 2988 
Q 300 3678 687 4073 
Q 1075 4469 1766 4469 
Q 2500 4469 2878 3925 
Q 3256 3381 3256 2291 
z
M 2644 2834 
Q 2644 3366 2400 3689 
Q 2156 4013 1747 4013 
Q 1341 4013 1106 3736 
Q 872 3459 872 2988 
Q 872 2506 1106 2226 
Q 1341 1947 1741 1947 
Q 1984 1947 2193 2058 
Q 2403 2169 2523 2372 
Q 2644 2575 2644 2834 
z
" transform="scale(0.015625)"/>
      </defs>
      <use xlink:href="#STIXGeneral-Regular-d7" transform="translate(0 0.140625)"/>
      <use xlink:href="#LiberationSans-31" transform="translate(63.999985 0.140625)"/>
      <use xlink:href="#LiberationSans-30" transform="translate(119.615219 0.140625)"/>
      <use xlink:href="#LiberationSans-31" transform="translate(176.154946 37.120312) scale(0.7)"/>
      <use xlink:href="#LiberationSans-39" transform="translate(215.08561 37.120312) scale(0.7)"/>
     </g>
    </g>
   </g>
   <g id="line2d_45">
    <path d="M 131.618181 66.514909 
L 132.108157 93.645358 
L 132.48925 138.239444 
L 133.142551 247.074647 
L 134.721364 521.595836 
L 135.265782 578.202752 
L 135.701316 603.62789 
L 136.027967 611.917967 
L 136.191292 613.063091 
L 136.245734 613.023297 
L 136.354618 612.416003 
L 136.572385 609.21737 
L 136.899036 600.467651 
L 137.552338 575.279455 
L 138.53229 538.708397 
L 139.13115 524.617262 
L 139.566684 518.793688 
L 139.947777 516.164984 
L 140.274428 515.146205 
L 140.601079 514.884447 
L 141.363264 515.08618 
L 141.635473 514.839194 
L 141.962124 514.131867 
L 142.343216 512.652412 
L 142.996518 509.019771 
L 144.085354 503.297911 
L 144.629772 501.695635 
L 145.010865 501.25394 
L 145.228632 501.23019 
L 145.718608 501.723639 
L 146.208585 502.835677 
L 147.351863 505.664559 
L 147.732955 506.122989 
L 148.114048 506.139834 
L 148.495141 505.846148 
L 149.475093 504.848669 
L 149.801744 504.851982 
L 150.237278 505.225095 
L 150.618371 505.909488 
L 151.217231 507.751462 
L 152.959369 513.026432 
L 153.394903 513.556659 
L 153.721554 513.648618 
L 153.993763 513.547161 
L 154.429297 512.945434 
L 154.81039 511.955151 
L 155.300366 510.022069 
L 156.116993 505.295325 
L 157.369155 496.050748 
L 158.185782 491.057933 
L 158.675758 489.126553 
L 159.056851 488.439228 
L 159.274618 488.418804 
L 159.546827 488.787723 
L 159.873478 489.813451 
L 160.309012 492.211676 
L 160.962314 497.525971 
L 162.65001 512.599186 
L 163.194428 515.369823 
L 163.575521 516.226413 
L 163.793288 516.308336 
L 164.011055 516.10162 
L 164.283264 515.490666 
L 164.827682 513.188941 
L 165.807635 507.525217 
L 166.624262 503.222667 
L 167.114238 501.681566 
L 167.495331 501.097408 
L 167.821982 500.927675 
L 168.203074 501.07464 
L 168.747492 501.611919 
L 169.727445 502.773127 
L 170.054096 502.804373 
L 170.435188 502.482744 
L 170.925164 501.702126 
L 172.721744 498.294065 
L 173.266162 497.650303 
L 173.756138 497.376173 
L 174.137231 497.444263 
L 174.463882 497.711969 
L 174.844974 498.194849 
L 175.60716 499.680804 
L 177.567065 503.428197 
L 178.438134 504.265147 
L 179.744737 505.174878 
L 180.45248 505.359822 
L 180.833573 505.322622 
L 181.432433 505.071386 
L 182.085735 504.394195 
L 182.793478 503.204565 
L 185.080034 499.364459 
L 185.678894 498.712458 
L 186.114428 498.496204 
L 186.495521 498.689619 
L 186.985497 499.196913 
L 187.747682 500.361463 
L 189.380937 502.994555 
L 189.979796 503.495486 
L 190.524215 503.658506 
L 191.068633 503.588691 
L 191.721934 503.275337 
L 193.790723 502.105068 
L 194.661792 501.973635 
L 195.478419 502.062339 
L 198.799369 502.697589 
L 199.615996 502.469381 
L 200.432623 501.952397 
L 202.555854 500.417506 
L 203.263597 500.226016 
L 203.916899 500.314806 
L 204.5702 500.626361 
L 205.659036 501.47302 
L 206.96564 502.440624 
L 207.782267 502.76697 
L 208.762219 502.891413 
L 210.232148 502.85608 
L 212.954238 502.558654 
L 214.369725 502.280559 
L 215.131911 502.348462 
L 215.948538 502.6756 
L 217.690676 503.525009 
L 218.289535 503.509609 
L 218.833953 503.259738 
L 219.432813 502.710328 
L 220.412766 501.432593 
L 221.392718 500.265782 
L 221.991578 499.833139 
L 222.590438 499.67693 
L 223.189298 499.784067 
L 223.8426 500.152478 
L 225.203645 501.290926 
L 226.673573 502.414447 
L 227.544642 502.781732 
L 228.306828 502.8536 
L 229.177897 502.694431 
L 231.246685 502.141863 
L 232.281079 502.195002 
L 233.369916 502.547127 
L 235.493146 503.284435 
L 236.146448 503.199324 
L 236.690866 502.915373 
L 237.235284 502.387194 
L 238.051911 501.239219 
L 239.467398 499.226839 
L 240.066258 498.705875 
L 240.501792 498.564424 
L 241.100652 498.811921 
L 241.64507 499.374726 
L 242.407255 500.526073 
L 243.877184 502.813361 
L 244.584928 503.489155 
L 245.183787 503.796497 
L 245.782647 503.869964 
L 246.490391 503.737825 
L 249.375806 503.04384 
L 250.736852 502.756338 
L 251.934571 502.289093 
L 253.731151 501.229663 
L 254.711103 500.780079 
L 255.418847 500.658126 
L 256.072149 500.743275 
L 257.106543 501.118117 
L 260.0464 502.286515 
L 261.951864 502.689456 
L 263.530676 502.765588 
L 265.76279 502.921815 
L 266.906068 502.983157 
L 268.267113 502.818995 
L 269.628158 502.730507 
L 270.444785 502.896479 
L 271.860272 503.170206 
L 272.513574 503.035341 
L 273.057992 502.71707 
L 273.711294 502.08197 
L 275.562315 500.064103 
L 276.106733 499.885395 
L 276.596709 499.980901 
L 277.141127 500.349682 
L 278.012196 501.277089 
L 279.209916 502.48547 
L 279.808776 502.802442 
L 280.516519 502.89302 
L 281.169821 502.763159 
L 282.149773 502.321069 
L 283.184168 501.919137 
L 283.946353 501.862642 
L 284.76298 502.040114 
L 285.851816 502.510258 
L 289.28165 504.101158 
L 290.043835 504.168744 
L 290.642695 503.957286 
L 291.187113 503.512497 
L 291.785973 502.699354 
L 292.548158 501.229839 
L 294.126971 498.048878 
L 294.671389 497.434559 
L 295.052481 497.301503 
L 295.433574 497.459576 
L 295.92355 497.973855 
L 296.576852 499.005992 
L 298.210106 501.74868 
L 298.808966 502.314757 
L 299.353384 502.552534 
L 299.952244 502.600113 
L 300.823313 502.43185 
L 302.075474 502.278265 
L 303.545403 502.375807 
L 304.743123 502.628522 
L 306.430819 503.296649 
L 307.247446 503.486465 
L 307.955189 503.420935 
L 308.608491 503.133794 
L 309.370676 502.548415 
L 311.548349 500.730303 
L 312.364976 500.40206 
L 313.018277 500.348928 
L 313.671579 500.52315 
L 314.542648 501.034908 
L 315.849251 501.82026 
L 316.72032 502.065013 
L 317.863598 502.094101 
L 318.952434 502.218173 
L 319.877945 502.582231 
L 321.456757 503.286078 
L 322.273384 503.38934 
L 323.253337 503.280942 
L 326.846496 502.366744 
L 327.663123 501.873445 
L 330.27633 500.159465 
L 330.87519 500.1483 
L 331.474049 500.354428 
L 332.290677 500.927179 
L 334.468349 502.627656 
L 335.176092 502.779878 
L 335.829394 502.712195 
L 336.809346 502.34312 
L 337.952624 501.936425 
L 338.660368 501.898324 
L 339.422553 502.060739 
L 340.456947 502.520918 
L 342.090202 503.288763 
L 343.233479 503.599606 
L 344.050107 503.587679 
L 344.75785 503.336134 
L 345.465593 502.839109 
L 346.336662 501.909258 
L 348.895427 498.712204 
L 349.385403 498.495614 
L 350.093147 498.653025 
L 350.692007 499.096514 
L 351.671959 500.188688 
L 353.468539 502.239997 
L 354.611817 503.148973 
L 355.646211 503.657078 
L 356.408396 503.761474 
L 357.225024 503.639766 
L 358.368301 503.173674 
L 359.674905 502.669843 
L 360.600415 502.568042 
L 362.342553 502.454342 
L 363.322506 502.060151 
L 366.15348 500.674598 
L 366.970107 500.714421 
L 367.786734 500.955455 
L 368.821128 501.519088 
L 370.454382 502.699274 
L 371.59766 503.415213 
L 372.523171 503.742667 
L 373.285356 503.771143 
L 374.156425 503.514418 
L 375.898563 502.660069 
L 377.259608 502.057605 
L 378.348444 501.835388 
L 379.110629 501.897185 
L 380.526116 502.256548 
L 381.560511 502.358931 
L 382.377138 502.233663 
L 383.520416 501.716793 
L 385.643646 500.626373 
L 386.296948 500.614938 
L 387.004691 500.83511 
L 388.147969 501.468329 
L 389.67234 502.29688 
L 390.59785 502.55518 
L 393.537708 502.945976 
L 396.368682 504.112213 
L 397.021983 504.01697 
L 397.784169 503.663244 
L 398.818563 502.908842 
L 400.451817 501.328906 
L 402.847257 498.899785 
L 403.500558 498.623587 
L 403.990535 498.635166 
L 404.534953 498.876524 
L 405.297138 499.48888 
L 407.964786 501.888581 
L 409.216948 502.517448 
L 411.013528 503.135534 
L 411.939038 503.209281 
L 412.918991 503.085794 
L 414.661129 502.822542 
L 416.947684 502.640241 
L 417.764311 502.215559 
L 420.540844 500.45878 
L 421.248587 500.345772 
L 421.95633 500.451901 
L 422.718516 500.807895 
L 423.807352 501.597437 
L 425.495048 502.827747 
L 426.311675 503.119775 
L 427.128302 503.17987 
L 428.598231 502.994076 
L 431.265879 502.595275 
L 432.300274 502.071473 
L 433.334668 501.592785 
L 434.096853 501.490198 
L 435.022364 501.597847 
L 436.818943 501.838757 
L 437.962221 501.675518 
L 439.976568 501.289842 
L 441.065404 501.375202 
L 442.045357 501.666581 
L 443.134193 502.164028 
L 444.658563 502.791671 
L 445.475191 502.894868 
L 446.455143 502.790946 
L 448.632815 502.378576 
L 449.395001 502.551349 
L 450.266069 502.974948 
L 452.498183 504.147718 
L 453.097043 504.148691 
L 453.641461 503.901195 
L 454.185879 503.415476 
L 454.839181 502.546647 
L 455.982459 500.5533 
L 456.962412 499.001024 
L 457.561271 498.432368 
L 458.051248 498.262005 
L 458.486782 498.366275 
L 458.922317 498.696041 
L 459.521176 499.428817 
L 460.718896 501.33431 
L 461.589965 502.524685 
L 462.297708 503.147331 
L 463.005452 503.481407 
L 463.658754 503.574825 
L 464.529823 503.447101 
L 467.959656 502.573319 
L 468.885167 502.660947 
L 470.845072 502.919188 
L 471.607257 502.733199 
L 472.423884 502.273848 
L 475.3093 500.344716 
L 475.90816 500.337472 
L 476.50702 500.552161 
L 477.269205 501.086137 
L 478.739134 502.453855 
L 479.501319 502.995194 
L 480.154621 503.185323 
L 480.753481 503.130809 
L 481.570108 502.811498 
L 483.366687 501.973675 
L 484.183314 501.841969 
L 485.707685 501.907759 
L 487.613148 502.218433 
L 488.538659 502.628466 
L 489.899704 503.195606 
L 490.498564 503.20585 
L 491.097424 502.98012 
L 491.750725 502.45659 
L 492.730678 501.317457 
L 494.146165 499.7099 
L 494.799466 499.299781 
L 495.343885 499.207611 
L 495.833861 499.332952 
L 496.432721 499.742489 
L 497.140464 500.516509 
L 498.392626 502.308034 
L 499.318136 503.425928 
L 499.916996 503.816072 
L 500.515856 503.94879 
L 501.169158 503.859512 
L 503.836806 503.207131 
L 505.252293 503.366936 
L 506.66778 503.709897 
L 507.811058 503.867006 
L 508.573243 503.723402 
L 509.280987 503.322869 
L 509.879847 502.723047 
L 510.642032 501.624471 
L 512.601937 498.671271 
L 513.037471 498.384666 
L 513.527448 498.339407 
L 513.962982 498.509592 
L 514.5074 498.976521 
L 515.215144 499.934718 
L 517.22949 502.80778 
L 517.937234 503.365025 
L 518.590536 503.619136 
L 519.298279 503.652243 
L 520.169348 503.44546 
L 521.74816 502.747753 
L 522.891438 502.35536 
L 523.816949 502.312249 
L 525.831296 502.322805 
L 526.702365 502.018597 
L 528.98892 500.976741 
L 529.968873 500.756286 
L 530.7855 500.793049 
L 531.602127 501.091524 
L 532.527638 501.708845 
L 534.160892 502.873344 
L 534.868635 503.110788 
L 535.576379 503.13747 
L 536.338564 502.949157 
L 538.842887 502.116699 
L 539.605073 502.232784 
L 540.476141 502.615225 
L 542.653814 503.757604 
L 543.361557 503.846478 
L 544.069301 503.691823 
L 544.885928 503.262943 
L 546.083647 502.340181 
L 547.716902 501.117897 
L 548.642412 500.682704 
L 549.404598 500.558288 
L 550.221225 500.675289 
L 551.146735 501.08727 
L 554.30436 502.647012 
L 555.229871 502.687821 
L 558.115286 502.449281 
L 559.040797 502.750745 
L 561.000702 503.555303 
L 561.708446 503.599171 
L 562.307306 503.434407 
L 562.906165 503.056243 
L 563.613909 502.380358 
L 564.648303 500.999598 
L 566.009348 499.163236 
L 566.66265 498.637338 
L 567.152626 498.481584 
L 567.914812 498.754108 
L 568.731439 499.418687 
L 572.760132 503.090896 
L 573.848968 503.716096 
L 574.665595 503.910387 
L 575.482223 503.894798 
L 576.952151 503.547863 
L 579.783125 502.713434 
L 580.708636 501.996735 
L 583.158517 499.853301 
L 583.757377 499.699667 
L 584.356237 499.787354 
L 584.955097 500.120361 
L 585.717282 500.850931 
L 587.404978 502.567541 
L 588.003838 502.81763 
L 588.602698 502.805807 
L 589.364883 502.530756 
L 590.834812 501.973791 
L 591.651439 501.916861 
L 592.359182 502.083887 
L 595.026831 502.868088 
L 599.001083 503.221886 
L 599.708826 502.953878 
L 600.525453 502.388353 
L 602.267591 501.055413 
L 602.920893 500.858133 
L 603.519752 500.886912 
L 604.33638 501.176863 
L 606.731819 502.189023 
L 607.602888 502.19162 
L 608.419515 501.953482 
L 610.433862 501.233215 
L 611.087163 501.341338 
L 611.794907 501.728314 
L 614.516997 503.585265 
L 615.551391 503.855193 
L 616.857995 503.962596 
L 617.565738 503.784516 
L 618.110156 503.444927 
L 618.709016 502.791708 
L 619.471202 501.5789 
L 621.158897 498.755038 
L 621.648874 498.373978 
L 622.084408 498.348964 
L 622.519943 498.565424 
L 623.064361 499.12521 
L 623.880988 500.379377 
L 625.242033 502.486732 
L 625.949776 503.166433 
L 626.548636 503.443601 
L 627.093054 503.454529 
L 627.800798 503.213338 
L 630.468446 502.018811 
L 631.17619 502.073927 
L 632.210584 502.419211 
L 633.29942 502.699182 
L 634.116047 502.674202 
L 635.422651 502.397685 
L 636.783696 502.128595 
L 639.124693 501.79144 
L 641.302366 501.328562 
L 642.173434 501.441768 
L 643.425596 501.853951 
L 645.276617 502.406935 
L 646.909872 502.684622 
L 648.270917 502.712148 
L 650.013054 502.396247 
L 650.938565 502.320559 
L 651.755192 502.487826 
L 653.551772 502.97095 
L 654.205074 502.794529 
L 654.803933 502.385869 
L 655.675002 501.450156 
L 657.036047 499.967603 
L 657.580465 499.68728 
L 658.070442 499.682607 
L 658.560418 499.925588 
L 659.159278 500.503444 
L 660.302556 502.034536 
L 661.173625 503.014913 
L 661.826926 503.418701 
L 662.316903 503.496757 
L 662.861321 503.350034 
L 663.73239 502.804158 
L 665.093435 501.913873 
L 665.746736 501.749492 
L 666.400038 501.824429 
L 667.379991 502.238776 
L 669.77543 503.485295 
L 670.700941 503.600476 
L 671.354242 503.45605 
L 672.007544 503.057191 
L 672.660846 502.377603 
L 673.423031 501.241211 
L 675.165169 498.496492 
L 675.709587 498.085144 
L 675.981796 498.033928 
L 675.981796 498.033928 
" clip-path="url(#p89eb1cdec7)" style="fill: none; stroke: #0000ff; stroke-width: 1.5; stroke-linecap: square"/>
   </g>
   <g id="patch_3">
    <path d="M 104.4 640.3905 
L 104.4 39.1875 
" style="fill: none; stroke: #000000; stroke-width: 0.8; stroke-linejoin: miter; stroke-linecap: square"/>
   </g>
   <g id="patch_4">
    <path d="M 703.199977 640.3905 
L 703.199977 39.1875 
" style="fill: none; stroke: #000000; stroke-width: 0.8; stroke-linejoin: miter; stroke-linecap: square"/>
   </g>
   <g id="patch_5">
    <path d="M 104.4 640.3905 
L 703.199977 640.3905 
" style="fill: none; stroke: #000000; stroke-width: 0.8; stroke-linejoin: miter; stroke-linecap: square"/>
   </g>
   <g id="patch_6">
    <path d="M 104.4 39.1875 
L 703.199977 39.1875 
" style="fill: none; stroke: #000000; stroke-width: 0.8; stroke-linejoin: miter; stroke-linecap: square"/>
   </g>
  </g>
 </g>
 <defs>
  <clipPath id="p89eb1cdec7">
   <rect x="104.4" y="39.1875" width="598.799977" height="601.203"/>
  </clipPath>
 </defs>
</svg>
