<?xml version="1.0" encoding="utf-8" standalone="no"?>
<!DOCTYPE svg PUBLIC "-//W3C//DTD SVG 1.1//EN"
  "http://www.w3.org/Graphics/SVG/1.1/DTD/svg11.dtd">
<svg xmlns:xlink="http://www.w3.org/1999/xlink" width="709.914pt" height="710.94975pt" viewBox="0 0 709.914 710.94975" xmlns="http://www.w3.org/2000/svg" version="1.1">
 <metadata>
  <rdf:RDF xmlns:dc="http://purl.org/dc/elements/1.1/" xmlns:cc="http://creativecommons.org/ns#" xmlns:rdf="http://www.w3.org/1999/02/22-rdf-syntax-ns#">
   <cc:Work>
    <dc:type rdf:resource="http://purl.org/dc/dcmitype/StillImage"/>
    <dc:date>2025-02-06T00:34:27.998758</dc:date>
    <dc:format>image/svg+xml</dc:format>
    <dc:creator>
     <cc:Agent>
      <dc:title>Matplotlib v3.9.3, https://matplotlib.org/</dc:title>
     </cc:Agent>
    </dc:creator>
   </cc:Work>
  </rdf:RDF>
 </metadata>
 <defs>
  <style type="text/css">*{stroke-linejoin: round; stroke-linecap: butt}</style>
 </defs>
 <g id="figure_1">
  <g id="patch_1">
   <path d="M 0 710.94975 
L 709.914 710.94975 
L 709.914 0 
L 0 0 
z
" style="fill: #ffffff"/>
  </g>
  <g id="axes_1">
   <g id="patch_2">
    <path d="M 61.8 640.3185 
L 702.714 640.3185 
L 702.714 39.1875 
L 61.8 39.1875 
z
" style="fill: #ffffff"/>
   </g>
   <g id="matplotlib.axis_1">
    <g id="xtick_1">
     <g id="line2d_1">
      <defs>
       <path id="m316066353b" d="M 0 0 
L 0 -3.5 
" style="stroke: #000000; stroke-width: 0.8"/>
      </defs>
      <g>
       <use xlink:href="#m316066353b" x="90.81589" y="640.3185" style="stroke: #000000; stroke-width: 0.8"/>
      </g>
     </g>
     <g id="text_1">
      <!-- 0 -->
      <g transform="translate(82.474484 665.559125) scale(0.3 -0.3)">
       <defs>
        <path id="LiberationSans-30" d="M 3309 2203 
Q 3309 1100 2920 518 
Q 2531 -63 1772 -63 
Q 1013 -63 631 515 
Q 250 1094 250 2203 
Q 250 3338 620 3903 
Q 991 4469 1791 4469 
Q 2569 4469 2939 3897 
Q 3309 3325 3309 2203 
z
M 2738 2203 
Q 2738 3156 2517 3584 
Q 2297 4013 1791 4013 
Q 1272 4013 1045 3591 
Q 819 3169 819 2203 
Q 819 1266 1048 831 
Q 1278 397 1778 397 
Q 2275 397 2506 840 
Q 2738 1284 2738 2203 
z
" transform="scale(0.015625)"/>
       </defs>
       <use xlink:href="#LiberationSans-30"/>
      </g>
     </g>
    </g>
    <g id="xtick_2">
     <g id="line2d_2">
      <g>
       <use xlink:href="#m316066353b" x="207.380677" y="640.3185" style="stroke: #000000; stroke-width: 0.8"/>
      </g>
     </g>
     <g id="text_2">
      <!-- 2 -->
      <g transform="translate(199.039271 665.559125) scale(0.3 -0.3)">
       <defs>
        <path id="LiberationSans-32" d="M 322 0 
L 322 397 
Q 481 763 711 1042 
Q 941 1322 1194 1548 
Q 1447 1775 1695 1969 
Q 1944 2163 2144 2356 
Q 2344 2550 2467 2762 
Q 2591 2975 2591 3244 
Q 2591 3606 2378 3806 
Q 2166 4006 1788 4006 
Q 1428 4006 1195 3811 
Q 963 3616 922 3263 
L 347 3316 
Q 409 3844 795 4156 
Q 1181 4469 1788 4469 
Q 2453 4469 2811 4155 
Q 3169 3841 3169 3263 
Q 3169 3006 3051 2753 
Q 2934 2500 2703 2247 
Q 2472 1994 1819 1463 
Q 1459 1169 1246 933 
Q 1034 697 941 478 
L 3238 478 
L 3238 0 
L 322 0 
z
" transform="scale(0.015625)"/>
       </defs>
       <use xlink:href="#LiberationSans-32"/>
      </g>
     </g>
    </g>
    <g id="xtick_3">
     <g id="line2d_3">
      <g>
       <use xlink:href="#m316066353b" x="323.945465" y="640.3185" style="stroke: #000000; stroke-width: 0.8"/>
      </g>
     </g>
     <g id="text_3">
      <!-- 4 -->
      <g transform="translate(315.604059 665.559125) scale(0.3 -0.3)">
       <defs>
        <path id="LiberationSans-34" d="M 2753 997 
L 2753 0 
L 2222 0 
L 2222 997 
L 147 997 
L 147 1434 
L 2163 4403 
L 2753 4403 
L 2753 1441 
L 3372 1441 
L 3372 997 
L 2753 997 
z
M 2222 3769 
Q 2216 3750 2134 3603 
Q 2053 3456 2013 3397 
L 884 1734 
L 716 1503 
L 666 1441 
L 2222 1441 
L 2222 3769 
z
" transform="scale(0.015625)"/>
       </defs>
       <use xlink:href="#LiberationSans-34"/>
      </g>
     </g>
    </g>
    <g id="xtick_4">
     <g id="line2d_4">
      <g>
       <use xlink:href="#m316066353b" x="440.510253" y="640.3185" style="stroke: #000000; stroke-width: 0.8"/>
      </g>
     </g>
     <g id="text_4">
      <!-- 6 -->
      <g transform="translate(432.168846 665.559125) scale(0.3 -0.3)">
       <defs>
        <path id="LiberationSans-36" d="M 3278 1441 
Q 3278 744 2900 340 
Q 2522 -63 1856 -63 
Q 1113 -63 719 490 
Q 325 1044 325 2100 
Q 325 3244 734 3856 
Q 1144 4469 1900 4469 
Q 2897 4469 3156 3572 
L 2619 3475 
Q 2453 4013 1894 4013 
Q 1413 4013 1148 3564 
Q 884 3116 884 2266 
Q 1038 2550 1316 2698 
Q 1594 2847 1953 2847 
Q 2563 2847 2920 2465 
Q 3278 2084 3278 1441 
z
M 2706 1416 
Q 2706 1894 2472 2153 
Q 2238 2413 1819 2413 
Q 1425 2413 1183 2183 
Q 941 1953 941 1550 
Q 941 1041 1192 716 
Q 1444 391 1838 391 
Q 2244 391 2475 664 
Q 2706 938 2706 1416 
z
" transform="scale(0.015625)"/>
       </defs>
       <use xlink:href="#LiberationSans-36"/>
      </g>
     </g>
    </g>
    <g id="xtick_5">
     <g id="line2d_5">
      <g>
       <use xlink:href="#m316066353b" x="557.07504" y="640.3185" style="stroke: #000000; stroke-width: 0.8"/>
      </g>
     </g>
     <g id="text_5">
      <!-- 8 -->
      <g transform="translate(548.733634 665.559125) scale(0.3 -0.3)">
       <defs>
        <path id="LiberationSans-38" d="M 3281 1228 
Q 3281 619 2893 278 
Q 2506 -63 1781 -63 
Q 1075 -63 676 271 
Q 278 606 278 1222 
Q 278 1653 525 1947 
Q 772 2241 1156 2303 
L 1156 2316 
Q 797 2400 589 2681 
Q 381 2963 381 3341 
Q 381 3844 757 4156 
Q 1134 4469 1769 4469 
Q 2419 4469 2795 4162 
Q 3172 3856 3172 3334 
Q 3172 2956 2962 2675 
Q 2753 2394 2391 2322 
L 2391 2309 
Q 2813 2241 3047 1952 
Q 3281 1663 3281 1228 
z
M 2588 3303 
Q 2588 4050 1769 4050 
Q 1372 4050 1164 3862 
Q 956 3675 956 3303 
Q 956 2925 1170 2726 
Q 1384 2528 1775 2528 
Q 2172 2528 2380 2711 
Q 2588 2894 2588 3303 
z
M 2697 1281 
Q 2697 1691 2453 1898 
Q 2209 2106 1769 2106 
Q 1341 2106 1100 1882 
Q 859 1659 859 1269 
Q 859 359 1788 359 
Q 2247 359 2472 579 
Q 2697 800 2697 1281 
z
" transform="scale(0.015625)"/>
       </defs>
       <use xlink:href="#LiberationSans-38"/>
      </g>
     </g>
    </g>
    <g id="xtick_6">
     <g id="line2d_6">
      <g>
       <use xlink:href="#m316066353b" x="673.639828" y="640.3185" style="stroke: #000000; stroke-width: 0.8"/>
      </g>
     </g>
     <g id="text_6">
      <!-- 10 -->
      <g transform="translate(656.957015 665.559125) scale(0.3 -0.3)">
       <defs>
        <path id="LiberationSans-31" d="M 488 0 
L 488 478 
L 1609 478 
L 1609 3866 
L 616 3156 
L 616 3688 
L 1656 4403 
L 2175 4403 
L 2175 478 
L 3247 478 
L 3247 0 
L 488 0 
z
" transform="scale(0.015625)"/>
       </defs>
       <use xlink:href="#LiberationSans-31"/>
       <use xlink:href="#LiberationSans-30" x="55.615234"/>
      </g>
     </g>
    </g>
    <g id="xtick_7">
     <g id="line2d_7">
      <defs>
       <path id="m240c550ad6" d="M 0 0 
L 0 -2 
" style="stroke: #000000; stroke-width: 0.6"/>
      </defs>
      <g>
       <use xlink:href="#m240c550ad6" x="119.957087" y="640.3185" style="stroke: #000000; stroke-width: 0.6"/>
      </g>
     </g>
    </g>
    <g id="xtick_8">
     <g id="line2d_8">
      <g>
       <use xlink:href="#m240c550ad6" x="149.098284" y="640.3185" style="stroke: #000000; stroke-width: 0.6"/>
      </g>
     </g>
    </g>
    <g id="xtick_9">
     <g id="line2d_9">
      <g>
       <use xlink:href="#m240c550ad6" x="178.23948" y="640.3185" style="stroke: #000000; stroke-width: 0.6"/>
      </g>
     </g>
    </g>
    <g id="xtick_10">
     <g id="line2d_10">
      <g>
       <use xlink:href="#m240c550ad6" x="236.521874" y="640.3185" style="stroke: #000000; stroke-width: 0.6"/>
      </g>
     </g>
    </g>
    <g id="xtick_11">
     <g id="line2d_11">
      <g>
       <use xlink:href="#m240c550ad6" x="265.663071" y="640.3185" style="stroke: #000000; stroke-width: 0.6"/>
      </g>
     </g>
    </g>
    <g id="xtick_12">
     <g id="line2d_12">
      <g>
       <use xlink:href="#m240c550ad6" x="294.804268" y="640.3185" style="stroke: #000000; stroke-width: 0.6"/>
      </g>
     </g>
    </g>
    <g id="xtick_13">
     <g id="line2d_13">
      <g>
       <use xlink:href="#m240c550ad6" x="353.086662" y="640.3185" style="stroke: #000000; stroke-width: 0.6"/>
      </g>
     </g>
    </g>
    <g id="xtick_14">
     <g id="line2d_14">
      <g>
       <use xlink:href="#m240c550ad6" x="382.227859" y="640.3185" style="stroke: #000000; stroke-width: 0.6"/>
      </g>
     </g>
    </g>
    <g id="xtick_15">
     <g id="line2d_15">
      <g>
       <use xlink:href="#m240c550ad6" x="411.369056" y="640.3185" style="stroke: #000000; stroke-width: 0.6"/>
      </g>
     </g>
    </g>
    <g id="xtick_16">
     <g id="line2d_16">
      <g>
       <use xlink:href="#m240c550ad6" x="469.65145" y="640.3185" style="stroke: #000000; stroke-width: 0.6"/>
      </g>
     </g>
    </g>
    <g id="xtick_17">
     <g id="line2d_17">
      <g>
       <use xlink:href="#m240c550ad6" x="498.792646" y="640.3185" style="stroke: #000000; stroke-width: 0.6"/>
      </g>
     </g>
    </g>
    <g id="xtick_18">
     <g id="line2d_18">
      <g>
       <use xlink:href="#m240c550ad6" x="527.933843" y="640.3185" style="stroke: #000000; stroke-width: 0.6"/>
      </g>
     </g>
    </g>
    <g id="xtick_19">
     <g id="line2d_19">
      <g>
       <use xlink:href="#m240c550ad6" x="586.216237" y="640.3185" style="stroke: #000000; stroke-width: 0.6"/>
      </g>
     </g>
    </g>
    <g id="xtick_20">
     <g id="line2d_20">
      <g>
       <use xlink:href="#m240c550ad6" x="615.357434" y="640.3185" style="stroke: #000000; stroke-width: 0.6"/>
      </g>
     </g>
    </g>
    <g id="xtick_21">
     <g id="line2d_21">
      <g>
       <use xlink:href="#m240c550ad6" x="644.498631" y="640.3185" style="stroke: #000000; stroke-width: 0.6"/>
      </g>
     </g>
    </g>
    <g id="text_7">
     <!-- Time ps -->
     <g transform="translate(329.480438 697.52475) scale(0.3 -0.3)">
      <defs>
       <path id="LiberationSans-54" d="M 2250 3916 
L 2250 0 
L 1656 0 
L 1656 3916 
L 144 3916 
L 144 4403 
L 3763 4403 
L 3763 3916 
L 2250 3916 
z
" transform="scale(0.015625)"/>
       <path id="LiberationSans-69" d="M 428 4100 
L 428 4638 
L 991 4638 
L 991 4100 
L 428 4100 
z
M 428 0 
L 428 3381 
L 991 3381 
L 991 0 
L 428 0 
z
" transform="scale(0.015625)"/>
       <path id="LiberationSans-6d" d="M 2400 0 
L 2400 2144 
Q 2400 2634 2265 2821 
Q 2131 3009 1781 3009 
Q 1422 3009 1212 2734 
Q 1003 2459 1003 1959 
L 1003 0 
L 444 0 
L 444 2659 
Q 444 3250 425 3381 
L 956 3381 
Q 959 3366 962 3297 
Q 966 3228 970 3139 
Q 975 3050 981 2803 
L 991 2803 
Q 1172 3163 1406 3303 
Q 1641 3444 1978 3444 
Q 2363 3444 2586 3291 
Q 2809 3138 2897 2803 
L 2906 2803 
Q 3081 3144 3329 3294 
Q 3578 3444 3931 3444 
Q 4444 3444 4676 3166 
Q 4909 2888 4909 2253 
L 4909 0 
L 4353 0 
L 4353 2144 
Q 4353 2634 4218 2821 
Q 4084 3009 3734 3009 
Q 3366 3009 3161 2736 
Q 2956 2463 2956 1959 
L 2956 0 
L 2400 0 
z
" transform="scale(0.015625)"/>
       <path id="LiberationSans-65" d="M 863 1572 
Q 863 991 1103 675 
Q 1344 359 1806 359 
Q 2172 359 2392 506 
Q 2613 653 2691 878 
L 3184 738 
Q 2881 -63 1806 -63 
Q 1056 -63 664 384 
Q 272 831 272 1713 
Q 272 2550 664 2997 
Q 1056 3444 1784 3444 
Q 3275 3444 3275 1647 
L 3275 1572 
L 863 1572 
z
M 2694 2003 
Q 2647 2538 2422 2783 
Q 2197 3028 1775 3028 
Q 1366 3028 1127 2754 
Q 888 2481 869 2003 
L 2694 2003 
z
" transform="scale(0.015625)"/>
       <path id="LiberationSans-20" transform="scale(0.015625)"/>
       <path id="LiberationSans-70" d="M 3291 1706 
Q 3291 -63 2047 -63 
Q 1266 -63 997 525 
L 981 525 
Q 994 500 994 -6 
L 994 -1328 
L 431 -1328 
L 431 2691 
Q 431 3213 413 3381 
L 956 3381 
Q 959 3369 965 3292 
Q 972 3216 980 3056 
Q 988 2897 988 2838 
L 1000 2838 
Q 1150 3150 1397 3295 
Q 1644 3441 2047 3441 
Q 2672 3441 2981 3022 
Q 3291 2603 3291 1706 
z
M 2700 1694 
Q 2700 2400 2509 2703 
Q 2319 3006 1903 3006 
Q 1569 3006 1380 2865 
Q 1191 2725 1092 2426 
Q 994 2128 994 1650 
Q 994 984 1206 668 
Q 1419 353 1897 353 
Q 2316 353 2508 661 
Q 2700 969 2700 1694 
z
" transform="scale(0.015625)"/>
       <path id="LiberationSans-73" d="M 2969 934 
Q 2969 456 2608 196 
Q 2247 -63 1597 -63 
Q 966 -63 623 145 
Q 281 353 178 794 
L 675 891 
Q 747 619 972 492 
Q 1197 366 1597 366 
Q 2025 366 2223 497 
Q 2422 628 2422 891 
Q 2422 1091 2284 1216 
Q 2147 1341 1841 1422 
L 1438 1528 
Q 953 1653 748 1773 
Q 544 1894 428 2066 
Q 313 2238 313 2488 
Q 313 2950 642 3192 
Q 972 3434 1603 3434 
Q 2163 3434 2492 3237 
Q 2822 3041 2909 2606 
L 2403 2544 
Q 2356 2769 2151 2889 
Q 1947 3009 1603 3009 
Q 1222 3009 1040 2893 
Q 859 2778 859 2544 
Q 859 2400 934 2306 
Q 1009 2213 1156 2147 
Q 1303 2081 1775 1966 
Q 2222 1853 2419 1758 
Q 2616 1663 2730 1547 
Q 2844 1431 2906 1279 
Q 2969 1128 2969 934 
z
" transform="scale(0.015625)"/>
      </defs>
      <use xlink:href="#LiberationSans-54"/>
      <use xlink:href="#LiberationSans-69" x="57.333984"/>
      <use xlink:href="#LiberationSans-6d" x="79.550781"/>
      <use xlink:href="#LiberationSans-65" x="162.851562"/>
      <use xlink:href="#LiberationSans-20" x="218.466797"/>
      <use xlink:href="#LiberationSans-70" x="246.25"/>
      <use xlink:href="#LiberationSans-73" x="301.865234"/>
     </g>
    </g>
   </g>
   <g id="matplotlib.axis_2">
    <g id="ytick_1">
     <g id="line2d_22">
      <defs>
       <path id="m9d959cbca3" d="M 0 0 
L 3.5 0 
" style="stroke: #000000; stroke-width: 0.8"/>
      </defs>
      <g>
       <use xlink:href="#m9d959cbca3" x="61.8" y="628.533737" style="stroke: #000000; stroke-width: 0.8"/>
      </g>
     </g>
     <g id="text_8">
      <!-- $\mathdefault{0}$ -->
      <g transform="translate(41.5 639.40405) scale(0.3 -0.3)">
       <use xlink:href="#LiberationSans-30" transform="translate(0 0.171875)"/>
      </g>
     </g>
    </g>
    <g id="ytick_2">
     <g id="line2d_23">
      <g>
       <use xlink:href="#m9d959cbca3" x="61.8" y="543.635469" style="stroke: #000000; stroke-width: 0.8"/>
      </g>
     </g>
     <g id="text_9">
      <!-- $\mathdefault{1}$ -->
      <g transform="translate(41.5 554.505782) scale(0.3 -0.3)">
       <use xlink:href="#LiberationSans-31" transform="translate(0 0.203125)"/>
      </g>
     </g>
    </g>
    <g id="ytick_3">
     <g id="line2d_24">
      <g>
       <use xlink:href="#m9d959cbca3" x="61.8" y="458.737201" style="stroke: #000000; stroke-width: 0.8"/>
      </g>
     </g>
     <g id="text_10">
      <!-- $\mathdefault{2}$ -->
      <g transform="translate(41.5 469.607513) scale(0.3 -0.3)">
       <use xlink:href="#LiberationSans-32" transform="translate(0 0.171875)"/>
      </g>
     </g>
    </g>
    <g id="ytick_4">
     <g id="line2d_25">
      <g>
       <use xlink:href="#m9d959cbca3" x="61.8" y="373.838933" style="stroke: #000000; stroke-width: 0.8"/>
      </g>
     </g>
     <g id="text_11">
      <!-- $\mathdefault{3}$ -->
      <g transform="translate(41.5 384.709245) scale(0.3 -0.3)">
       <defs>
        <path id="LiberationSans-33" d="M 3278 1216 
Q 3278 606 2890 271 
Q 2503 -63 1784 -63 
Q 1116 -63 717 239 
Q 319 541 244 1131 
L 825 1184 
Q 938 403 1784 403 
Q 2209 403 2451 612 
Q 2694 822 2694 1234 
Q 2694 1594 2417 1795 
Q 2141 1997 1619 1997 
L 1300 1997 
L 1300 2484 
L 1606 2484 
Q 2069 2484 2323 2686 
Q 2578 2888 2578 3244 
Q 2578 3597 2370 3801 
Q 2163 4006 1753 4006 
Q 1381 4006 1151 3815 
Q 922 3625 884 3278 
L 319 3322 
Q 381 3863 767 4166 
Q 1153 4469 1759 4469 
Q 2422 4469 2789 4161 
Q 3156 3853 3156 3303 
Q 3156 2881 2920 2617 
Q 2684 2353 2234 2259 
L 2234 2247 
Q 2728 2194 3003 1916 
Q 3278 1638 3278 1216 
z
" transform="scale(0.015625)"/>
       </defs>
       <use xlink:href="#LiberationSans-33" transform="translate(0 0.171875)"/>
      </g>
     </g>
    </g>
    <g id="ytick_5">
     <g id="line2d_26">
      <g>
       <use xlink:href="#m9d959cbca3" x="61.8" y="288.940664" style="stroke: #000000; stroke-width: 0.8"/>
      </g>
     </g>
     <g id="text_12">
      <!-- $\mathdefault{4}$ -->
      <g transform="translate(41.5 299.810977) scale(0.3 -0.3)">
       <use xlink:href="#LiberationSans-34" transform="translate(0 0.203125)"/>
      </g>
     </g>
    </g>
    <g id="ytick_6">
     <g id="line2d_27">
      <g>
       <use xlink:href="#m9d959cbca3" x="61.8" y="204.042396" style="stroke: #000000; stroke-width: 0.8"/>
      </g>
     </g>
     <g id="text_13">
      <!-- $\mathdefault{5}$ -->
      <g transform="translate(41.5 214.912708) scale(0.3 -0.3)">
       <defs>
        <path id="LiberationSans-35" d="M 3291 1434 
Q 3291 738 2877 337 
Q 2463 -63 1728 -63 
Q 1113 -63 734 206 
Q 356 475 256 984 
L 825 1050 
Q 1003 397 1741 397 
Q 2194 397 2450 670 
Q 2706 944 2706 1422 
Q 2706 1838 2448 2094 
Q 2191 2350 1753 2350 
Q 1525 2350 1328 2278 
Q 1131 2206 934 2034 
L 384 2034 
L 531 4403 
L 3034 4403 
L 3034 3925 
L 1044 3925 
L 959 2528 
Q 1325 2809 1869 2809 
Q 2519 2809 2905 2428 
Q 3291 2047 3291 1434 
z
" transform="scale(0.015625)"/>
       </defs>
       <use xlink:href="#LiberationSans-35" transform="translate(0 0.203125)"/>
      </g>
     </g>
    </g>
    <g id="ytick_7">
     <g id="line2d_28">
      <g>
       <use xlink:href="#m9d959cbca3" x="61.8" y="119.144128" style="stroke: #000000; stroke-width: 0.8"/>
      </g>
     </g>
     <g id="text_14">
      <!-- $\mathdefault{6}$ -->
      <g transform="translate(41.5 130.01444) scale(0.3 -0.3)">
       <use xlink:href="#LiberationSans-36" transform="translate(0 0.171875)"/>
      </g>
     </g>
    </g>
    <g id="ytick_8">
     <g id="line2d_29">
      <defs>
       <path id="m6b86f6908b" d="M 0 0 
L 2 0 
" style="stroke: #000000; stroke-width: 0.6"/>
      </defs>
      <g>
       <use xlink:href="#m6b86f6908b" x="61.8" y="611.554084" style="stroke: #000000; stroke-width: 0.6"/>
      </g>
     </g>
    </g>
    <g id="ytick_9">
     <g id="line2d_30">
      <g>
       <use xlink:href="#m6b86f6908b" x="61.8" y="594.57443" style="stroke: #000000; stroke-width: 0.6"/>
      </g>
     </g>
    </g>
    <g id="ytick_10">
     <g id="line2d_31">
      <g>
       <use xlink:href="#m6b86f6908b" x="61.8" y="577.594776" style="stroke: #000000; stroke-width: 0.6"/>
      </g>
     </g>
    </g>
    <g id="ytick_11">
     <g id="line2d_32">
      <g>
       <use xlink:href="#m6b86f6908b" x="61.8" y="560.615123" style="stroke: #000000; stroke-width: 0.6"/>
      </g>
     </g>
    </g>
    <g id="ytick_12">
     <g id="line2d_33">
      <g>
       <use xlink:href="#m6b86f6908b" x="61.8" y="526.655816" style="stroke: #000000; stroke-width: 0.6"/>
      </g>
     </g>
    </g>
    <g id="ytick_13">
     <g id="line2d_34">
      <g>
       <use xlink:href="#m6b86f6908b" x="61.8" y="509.676162" style="stroke: #000000; stroke-width: 0.6"/>
      </g>
     </g>
    </g>
    <g id="ytick_14">
     <g id="line2d_35">
      <g>
       <use xlink:href="#m6b86f6908b" x="61.8" y="492.696508" style="stroke: #000000; stroke-width: 0.6"/>
      </g>
     </g>
    </g>
    <g id="ytick_15">
     <g id="line2d_36">
      <g>
       <use xlink:href="#m6b86f6908b" x="61.8" y="475.716855" style="stroke: #000000; stroke-width: 0.6"/>
      </g>
     </g>
    </g>
    <g id="ytick_16">
     <g id="line2d_37">
      <g>
       <use xlink:href="#m6b86f6908b" x="61.8" y="441.757547" style="stroke: #000000; stroke-width: 0.6"/>
      </g>
     </g>
    </g>
    <g id="ytick_17">
     <g id="line2d_38">
      <g>
       <use xlink:href="#m6b86f6908b" x="61.8" y="424.777894" style="stroke: #000000; stroke-width: 0.6"/>
      </g>
     </g>
    </g>
    <g id="ytick_18">
     <g id="line2d_39">
      <g>
       <use xlink:href="#m6b86f6908b" x="61.8" y="407.79824" style="stroke: #000000; stroke-width: 0.6"/>
      </g>
     </g>
    </g>
    <g id="ytick_19">
     <g id="line2d_40">
      <g>
       <use xlink:href="#m6b86f6908b" x="61.8" y="390.818586" style="stroke: #000000; stroke-width: 0.6"/>
      </g>
     </g>
    </g>
    <g id="ytick_20">
     <g id="line2d_41">
      <g>
       <use xlink:href="#m6b86f6908b" x="61.8" y="356.859279" style="stroke: #000000; stroke-width: 0.6"/>
      </g>
     </g>
    </g>
    <g id="ytick_21">
     <g id="line2d_42">
      <g>
       <use xlink:href="#m6b86f6908b" x="61.8" y="339.879625" style="stroke: #000000; stroke-width: 0.6"/>
      </g>
     </g>
    </g>
    <g id="ytick_22">
     <g id="line2d_43">
      <g>
       <use xlink:href="#m6b86f6908b" x="61.8" y="322.899972" style="stroke: #000000; stroke-width: 0.6"/>
      </g>
     </g>
    </g>
    <g id="ytick_23">
     <g id="line2d_44">
      <g>
       <use xlink:href="#m6b86f6908b" x="61.8" y="305.920318" style="stroke: #000000; stroke-width: 0.6"/>
      </g>
     </g>
    </g>
    <g id="ytick_24">
     <g id="line2d_45">
      <g>
       <use xlink:href="#m6b86f6908b" x="61.8" y="271.961011" style="stroke: #000000; stroke-width: 0.6"/>
      </g>
     </g>
    </g>
    <g id="ytick_25">
     <g id="line2d_46">
      <g>
       <use xlink:href="#m6b86f6908b" x="61.8" y="254.981357" style="stroke: #000000; stroke-width: 0.6"/>
      </g>
     </g>
    </g>
    <g id="ytick_26">
     <g id="line2d_47">
      <g>
       <use xlink:href="#m6b86f6908b" x="61.8" y="238.001703" style="stroke: #000000; stroke-width: 0.6"/>
      </g>
     </g>
    </g>
    <g id="ytick_27">
     <g id="line2d_48">
      <g>
       <use xlink:href="#m6b86f6908b" x="61.8" y="221.02205" style="stroke: #000000; stroke-width: 0.6"/>
      </g>
     </g>
    </g>
    <g id="ytick_28">
     <g id="line2d_49">
      <g>
       <use xlink:href="#m6b86f6908b" x="61.8" y="187.062742" style="stroke: #000000; stroke-width: 0.6"/>
      </g>
     </g>
    </g>
    <g id="ytick_29">
     <g id="line2d_50">
      <g>
       <use xlink:href="#m6b86f6908b" x="61.8" y="170.083089" style="stroke: #000000; stroke-width: 0.6"/>
      </g>
     </g>
    </g>
    <g id="ytick_30">
     <g id="line2d_51">
      <g>
       <use xlink:href="#m6b86f6908b" x="61.8" y="153.103435" style="stroke: #000000; stroke-width: 0.6"/>
      </g>
     </g>
    </g>
    <g id="ytick_31">
     <g id="line2d_52">
      <g>
       <use xlink:href="#m6b86f6908b" x="61.8" y="136.123781" style="stroke: #000000; stroke-width: 0.6"/>
      </g>
     </g>
    </g>
    <g id="ytick_32">
     <g id="line2d_53">
      <g>
       <use xlink:href="#m6b86f6908b" x="61.8" y="102.164474" style="stroke: #000000; stroke-width: 0.6"/>
      </g>
     </g>
    </g>
    <g id="ytick_33">
     <g id="line2d_54">
      <g>
       <use xlink:href="#m6b86f6908b" x="61.8" y="85.18482" style="stroke: #000000; stroke-width: 0.6"/>
      </g>
     </g>
    </g>
    <g id="ytick_34">
     <g id="line2d_55">
      <g>
       <use xlink:href="#m6b86f6908b" x="61.8" y="68.205167" style="stroke: #000000; stroke-width: 0.6"/>
      </g>
     </g>
    </g>
    <g id="ytick_35">
     <g id="line2d_56">
      <g>
       <use xlink:href="#m6b86f6908b" x="61.8" y="51.225513" style="stroke: #000000; stroke-width: 0.6"/>
      </g>
     </g>
    </g>
    <g id="text_15">
     <!-- ITC $\mathrm{W} / (\mathrm{K} \cdot \mathrm{m}^2)$ -->
     <g transform="translate(31.275 433.803) rotate(-90) scale(0.3 -0.3)">
      <defs>
       <path id="LiberationSans-49" d="M 591 0 
L 591 4403 
L 1188 4403 
L 1188 0 
L 591 0 
z
" transform="scale(0.015625)"/>
       <path id="LiberationSans-43" d="M 2475 3981 
Q 1744 3981 1337 3511 
Q 931 3041 931 2222 
Q 931 1413 1354 920 
Q 1778 428 2500 428 
Q 3425 428 3891 1344 
L 4378 1100 
Q 4106 531 3614 234 
Q 3122 -63 2472 -63 
Q 1806 -63 1320 214 
Q 834 491 579 1005 
Q 325 1519 325 2222 
Q 325 3275 894 3872 
Q 1463 4469 2469 4469 
Q 3172 4469 3644 4194 
Q 4116 3919 4338 3378 
L 3772 3191 
Q 3619 3575 3280 3778 
Q 2941 3981 2475 3981 
z
" transform="scale(0.015625)"/>
       <path id="STIXGeneral-Regular-57" d="M 5965 4237 
L 5965 4115 
Q 5709 4064 5616 3990 
Q 5523 3917 5434 3667 
Q 4704 1709 4128 -70 
L 4032 -70 
Q 3642 1011 3008 2637 
L 2022 -70 
L 1926 -70 
Q 1709 576 1277 1753 
Q 845 2931 698 3347 
Q 538 3808 406 3958 
Q 275 4109 32 4115 
L 32 4237 
L 1594 4237 
L 1594 4115 
Q 1357 4109 1270 4064 
Q 1184 4019 1184 3917 
Q 1184 3808 1254 3616 
L 2176 1210 
L 2842 3021 
L 2662 3501 
Q 2509 3917 2400 4013 
Q 2291 4109 2010 4115 
L 2010 4237 
L 3706 4237 
L 3706 4115 
Q 3213 4102 3213 3891 
Q 3213 3808 3322 3520 
L 4237 1190 
L 5043 3360 
Q 5152 3667 5152 3853 
Q 5152 4109 4704 4115 
L 4704 4237 
L 5965 4237 
z
" transform="scale(0.015625)"/>
       <path id="STIXGeneral-Regular-2f" d="M 1837 4326 
L 378 -90 
L -58 -90 
L 1408 4326 
L 1837 4326 
z
" transform="scale(0.015625)"/>
       <path id="STIXGeneral-Regular-28" d="M 1946 -1030 
L 1869 -1133 
Q 1126 -710 716 32 
Q 307 774 307 1613 
Q 307 3386 1888 4326 
L 1946 4224 
Q 1293 3667 1075 3126 
Q 858 2586 858 1632 
Q 858 685 1082 96 
Q 1306 -493 1946 -1030 
z
" transform="scale(0.015625)"/>
       <path id="STIXGeneral-Regular-4b" d="M 4627 0 
L 2688 0 
L 2688 122 
L 2861 128 
Q 3130 134 3130 282 
Q 3130 397 2922 643 
Q 2714 890 2253 1370 
L 1613 2029 
L 1446 1894 
L 1446 710 
Q 1446 352 1548 253 
Q 1651 154 2016 122 
L 2016 0 
L 211 0 
L 211 122 
Q 589 141 691 262 
Q 794 384 794 800 
L 794 3514 
Q 794 3872 691 3981 
Q 589 4090 218 4115 
L 218 4237 
L 2022 4237 
L 2022 4115 
Q 1632 4090 1539 3987 
Q 1446 3885 1446 3507 
L 1446 2227 
L 2586 3277 
Q 2861 3533 2973 3667 
Q 3085 3802 3085 3910 
Q 3085 4013 3030 4057 
Q 2976 4102 2822 4109 
L 2662 4115 
L 2662 4237 
L 4320 4237 
L 4320 4115 
Q 3994 4090 3824 4003 
Q 3654 3917 3322 3597 
L 2131 2458 
L 3629 819 
Q 4026 384 4214 253 
Q 4403 122 4627 122 
L 4627 0 
z
" transform="scale(0.015625)"/>
       <path id="STIXGeneral-Regular-22c5" d="M 1187 1888 
Q 1299 1773 1299 1619 
Q 1299 1466 1187 1350 
Q 1075 1235 921 1235 
Q 768 1235 649 1353 
Q 531 1472 531 1619 
Q 531 1766 649 1884 
Q 768 2003 921 2003 
Q 1075 2003 1187 1888 
z
" transform="scale(0.015625)"/>
       <path id="STIXGeneral-Regular-6d" d="M 4960 0 
L 3565 0 
L 3565 96 
Q 3834 122 3907 208 
Q 3981 294 3981 576 
L 3981 1894 
Q 3981 2278 3869 2444 
Q 3757 2611 3488 2611 
Q 3264 2611 3107 2521 
Q 2950 2432 2803 2221 
L 2803 608 
Q 2803 301 2896 201 
Q 2989 102 3264 96 
L 3264 0 
L 1830 0 
L 1830 96 
Q 2112 115 2189 188 
Q 2266 262 2266 550 
L 2266 1901 
Q 2266 2611 1850 2611 
Q 1670 2611 1468 2531 
Q 1267 2451 1171 2336 
Q 1088 2240 1088 2227 
L 1088 448 
Q 1088 243 1177 176 
Q 1267 109 1523 96 
L 1523 0 
L 102 0 
L 102 96 
Q 371 102 460 195 
Q 550 288 550 563 
L 550 2150 
Q 550 2387 499 2480 
Q 448 2573 326 2573 
Q 230 2573 122 2547 
L 122 2656 
Q 557 2778 1011 2944 
L 1062 2925 
L 1062 2451 
L 1075 2451 
Q 1363 2752 1584 2848 
Q 1805 2944 2054 2944 
Q 2560 2944 2733 2406 
Q 3232 2944 3776 2944 
Q 4518 2944 4518 1792 
L 4518 493 
Q 4518 282 4582 202 
Q 4646 122 4794 109 
L 4960 96 
L 4960 0 
z
" transform="scale(0.015625)"/>
       <path id="STIXGeneral-Regular-32" d="M 3034 877 
L 2688 0 
L 186 0 
L 186 77 
L 1325 1286 
Q 1773 1754 1965 2144 
Q 2157 2534 2157 2950 
Q 2157 3379 1920 3616 
Q 1683 3853 1267 3853 
Q 922 3853 720 3673 
Q 518 3494 326 3021 
L 192 3053 
Q 301 3648 630 3987 
Q 960 4326 1523 4326 
Q 2054 4326 2380 4006 
Q 2707 3686 2707 3200 
Q 2707 2477 1888 1613 
L 832 486 
L 2330 486 
Q 2541 486 2665 569 
Q 2790 653 2944 915 
L 3034 877 
z
" transform="scale(0.015625)"/>
       <path id="STIXGeneral-Regular-29" d="M 186 4224 
L 262 4326 
Q 992 3891 1408 3148 
Q 1824 2406 1824 1581 
Q 1824 -166 243 -1133 
L 186 -1030 
Q 845 -486 1059 54 
Q 1274 595 1274 1562 
Q 1274 2534 1059 3120 
Q 845 3706 186 4224 
z
" transform="scale(0.015625)"/>
      </defs>
      <use xlink:href="#LiberationSans-49" transform="translate(0 0.409375)"/>
      <use xlink:href="#LiberationSans-54" transform="translate(27.783203 0.409375)"/>
      <use xlink:href="#LiberationSans-43" transform="translate(88.867188 0.409375)"/>
      <use xlink:href="#LiberationSans-20" transform="translate(161.083984 0.409375)"/>
      <use xlink:href="#STIXGeneral-Regular-57" transform="translate(188.867188 0.409375)"/>
      <use xlink:href="#STIXGeneral-Regular-2f" transform="translate(283.267181 0.409375)"/>
      <use xlink:href="#STIXGeneral-Regular-28" transform="translate(311.067169 0.409375)"/>
      <use xlink:href="#STIXGeneral-Regular-4b" transform="translate(344.367157 0.409375)"/>
      <use xlink:href="#STIXGeneral-Regular-22c5" transform="translate(431.007135 0.409375)"/>
      <use xlink:href="#STIXGeneral-Regular-6d" transform="translate(474.047122 0.409375)"/>
      <use xlink:href="#STIXGeneral-Regular-32" transform="translate(553.390391 35.684375) scale(0.7)"/>
      <use xlink:href="#STIXGeneral-Regular-29" transform="translate(592.799756 0.409375)"/>
     </g>
    </g>
    <g id="text_16">
     <!-- $\times\mathdefault{10^{7}}\mathdefault{}$ -->
     <g transform="translate(61.8 36.1875) scale(0.4 -0.4)">
      <defs>
       <path id="STIXGeneral-Regular-d7" d="M 3821 141 
L 3526 -160 
L 2048 1312 
L 570 -160 
L 275 134 
L 1747 1613 
L 275 3091 
L 576 3386 
L 2048 1914 
L 3526 3386 
L 3821 3098 
L 2349 1613 
L 3821 141 
z
" transform="scale(0.015625)"/>
       <path id="LiberationSans-37" d="M 3238 3947 
Q 2563 2916 2284 2331 
Q 2006 1747 1867 1178 
Q 1728 609 1728 0 
L 1141 0 
Q 1141 844 1498 1776 
Q 1856 2709 2694 3925 
L 328 3925 
L 328 4403 
L 3238 4403 
L 3238 3947 
z
" transform="scale(0.015625)"/>
      </defs>
      <use xlink:href="#STIXGeneral-Regular-d7" transform="translate(0 0.8625)"/>
      <use xlink:href="#LiberationSans-31" transform="translate(63.999985 0.8625)"/>
      <use xlink:href="#LiberationSans-30" transform="translate(119.615219 0.8625)"/>
      <use xlink:href="#LiberationSans-37" transform="translate(176.154946 37.842188) scale(0.7)"/>
     </g>
    </g>
   </g>
   <g id="line2d_57">
    <path d="M 90.932455 611.172684 
L 92.156385 278.895646 
L 92.797491 158.158398 
L 93.322033 96.948311 
L 93.730009 72.651091 
L 94.021421 66.674386 
L 94.079704 66.511636 
L 94.137986 66.670971 
L 94.312833 68.97921 
L 94.545963 75.927021 
L 94.95394 96.712453 
L 95.595046 143.411645 
L 97.226953 265.985024 
L 97.926342 301.566112 
L 98.567448 324.362227 
L 99.266837 341.528969 
L 100.08279 355.785466 
L 101.073591 369.19539 
L 101.947827 378.344852 
L 102.588933 382.9118 
L 103.055192 384.882383 
L 103.404887 385.61455 
L 103.696299 385.778194 
L 103.929428 385.653869 
L 104.279123 385.122648 
L 104.803664 383.82031 
L 105.852747 381.148336 
L 106.260724 380.6388 
L 106.552136 380.569358 
L 106.843548 380.770546 
L 107.193242 381.378251 
L 107.601219 382.576555 
L 108.184043 385.100243 
L 108.999997 389.844839 
L 110.340492 399.234935 
L 116.401861 442.992962 
L 117.042967 445.787111 
L 117.509226 446.939687 
L 117.800638 447.174648 
L 118.033768 447.051256 
L 118.266897 446.624722 
L 118.616592 445.372142 
L 119.024568 442.926515 
L 119.54911 438.204353 
L 120.248499 429.438383 
L 122.696359 395.707641 
L 123.162618 392.948354 
L 123.45403 392.242783 
L 123.628877 392.199834 
L 123.803725 392.435516 
L 124.036854 393.164245 
L 124.386549 395.066793 
L 124.91109 399.385295 
L 126.018456 411.113965 
L 126.892692 419.26483 
L 127.533798 423.39144 
L 128.116622 425.815213 
L 128.816011 427.709303 
L 129.748529 430.179001 
L 130.389635 432.629937 
L 131.497001 438.050389 
L 132.196389 440.93226 
L 132.604366 441.86166 
L 132.895778 442.050218 
L 133.128908 441.879547 
L 133.42032 441.244562 
L 133.770014 439.866458 
L 134.236273 437.071966 
L 134.993944 430.860908 
L 136.392722 419.207175 
L 136.917263 416.47134 
L 137.32524 415.286026 
L 137.616652 414.956316 
L 137.849782 414.988263 
L 138.082911 415.262841 
L 138.432605 416.074361 
L 138.957147 417.989182 
L 139.889665 422.45636 
L 141.579855 430.417118 
L 144.552257 442.821847 
L 145.135081 444.356193 
L 145.543058 444.945333 
L 145.83447 445.085666 
L 146.125881 444.983062 
L 146.475576 444.544588 
L 146.883553 443.632044 
L 147.466377 441.723094 
L 148.632024 436.881176 
L 149.73939 432.687331 
L 150.555343 430.434523 
L 151.254732 429.091 
L 151.895838 428.313559 
L 152.362098 428.049789 
L 152.770074 428.072467 
L 153.119769 428.318243 
L 153.527745 428.913902 
L 153.994005 430.053531 
L 154.518546 431.955402 
L 155.217935 435.434071 
L 157.78236 449.338108 
L 158.248619 450.430618 
L 158.598314 450.793371 
L 158.889726 450.810051 
L 159.181138 450.591818 
L 159.589114 449.955462 
L 160.230221 448.425048 
L 162.036975 443.816162 
L 163.027776 442.085832 
L 164.193424 440.025152 
L 165.184224 437.717202 
L 166.349872 435.063813 
L 166.874414 434.399909 
L 167.224108 434.2771 
L 167.51552 434.402656 
L 167.865214 434.84258 
L 168.273191 435.750718 
L 168.856015 437.700835 
L 169.788533 441.818533 
L 171.012464 447.029703 
L 171.65357 448.881578 
L 172.178112 449.794291 
L 172.586088 450.141482 
L 172.994065 450.209909 
L 173.402042 450.047822 
L 173.926583 449.582164 
L 174.684254 448.57047 
L 175.79162 446.677134 
L 178.23948 442.33135 
L 178.764022 441.935403 
L 179.113716 441.902443 
L 179.463411 442.080289 
L 179.871387 442.567005 
L 180.395929 443.620909 
L 181.095318 445.644529 
L 183.892873 454.501414 
L 184.941956 456.579575 
L 188.147487 462.187078 
L 188.555464 462.334132 
L 188.905159 462.195513 
L 189.254853 461.788784 
L 189.721112 460.822886 
L 190.303936 458.997234 
L 191.178172 455.395203 
L 192.576949 449.674019 
L 193.276338 447.724267 
L 193.859162 446.728125 
L 194.383704 446.274294 
L 194.849963 446.147252 
L 195.432787 446.234846 
L 196.307023 446.624889 
L 197.589235 447.440559 
L 198.463471 448.258408 
L 199.395989 449.477098 
L 201.727285 452.748826 
L 202.543239 453.401188 
L 204.932817 455.023464 
L 205.923618 456.229443 
L 207.322395 457.903883 
L 208.080066 458.451662 
L 208.837737 458.717021 
L 210.586209 459.20756 
L 211.402163 459.782232 
L 212.742658 460.781088 
L 213.208917 460.867618 
L 213.616894 460.731568 
L 214.02487 460.364292 
L 214.549412 459.540102 
L 215.190518 458.059215 
L 217.754943 451.539977 
L 218.337767 450.89173 
L 218.862309 450.643801 
L 219.386851 450.639212 
L 220.144522 450.878602 
L 221.892993 451.720996 
L 222.592382 452.281796 
L 223.175206 453.028724 
L 223.816312 454.251501 
L 224.573984 456.265649 
L 225.797914 460.342278 
L 226.905279 463.747349 
L 227.546386 465.111396 
L 228.070927 465.78397 
L 228.537186 466.042982 
L 228.945163 466.031796 
L 229.411422 465.792439 
L 230.052529 465.177164 
L 231.159894 463.736482 
L 235.006532 458.609479 
L 235.764203 457.98301 
L 236.288745 457.801408 
L 236.755004 457.852774 
L 237.221263 458.117573 
L 237.804087 458.738695 
L 238.503476 459.842213 
L 239.727406 462.294102 
L 241.067901 464.853905 
L 241.825572 465.885017 
L 242.408396 466.362777 
L 242.932938 466.513539 
L 243.399197 466.404631 
L 243.865456 466.059825 
L 244.44828 465.308602 
L 245.147669 464.006303 
L 246.546446 460.770299 
L 247.537247 458.781261 
L 248.178353 457.924584 
L 248.761177 457.497822 
L 249.285719 457.381748 
L 249.868542 457.487653 
L 250.742778 457.912357 
L 253.365486 459.527485 
L 254.064875 460.296629 
L 254.764264 461.4139 
L 255.638499 463.265185 
L 257.328689 466.951949 
L 257.969795 467.786905 
L 258.436054 468.073226 
L 258.844031 468.097196 
L 259.31029 467.891189 
L 259.893114 467.364716 
L 262.399257 464.764601 
L 263.273493 464.396748 
L 265.021965 463.750135 
L 266.479025 462.821814 
L 267.353261 462.41807 
L 267.994367 462.370788 
L 268.577191 462.554389 
L 269.27658 463.04095 
L 270.26738 464.060301 
L 272.132417 466.011047 
L 273.123218 466.713323 
L 274.114018 467.146854 
L 275.163101 467.355895 
L 276.387032 467.354358 
L 280.466799 466.935275 
L 281.341035 466.604327 
L 282.331836 465.96464 
L 283.963743 464.868899 
L 284.546567 464.75238 
L 285.071108 464.871155 
L 285.59565 465.221332 
L 286.236756 465.937363 
L 287.227557 467.438022 
L 288.568052 469.395119 
L 289.325723 470.133594 
L 290.083394 470.574064 
L 291.19076 470.915649 
L 292.589537 471.398136 
L 294.512856 472.152742 
L 295.153962 472.118209 
L 295.736786 471.863706 
L 296.436175 471.28325 
L 297.543541 469.99615 
L 298.534341 468.959664 
L 299.175448 468.592616 
L 299.699989 468.541561 
L 300.224531 468.728655 
L 300.807355 469.196873 
L 301.565026 470.132265 
L 302.847238 472.153413 
L 304.420863 474.51853 
L 305.353381 475.547969 
L 306.169335 476.143648 
L 306.927006 476.4365 
L 307.684677 476.5027 
L 308.558913 476.354445 
L 309.666279 475.930842 
L 310.948491 475.207725 
L 312.055857 474.342455 
L 313.163222 473.188948 
L 315.494518 470.627233 
L 316.135624 470.318978 
L 316.660166 470.316456 
L 317.184707 470.559754 
L 317.767531 471.10532 
L 318.525202 472.152392 
L 320.681651 475.343508 
L 321.38104 475.914856 
L 322.022146 476.175675 
L 322.779817 476.238487 
L 324.120312 476.064213 
L 326.393326 475.58376 
L 327.500691 475.067081 
L 329.42401 474.096747 
L 330.065116 474.064244 
L 330.64794 474.274692 
L 331.230764 474.741089 
L 331.930153 475.629415 
L 332.804389 477.144831 
L 335.601944 482.337207 
L 336.301332 483.047967 
L 336.825874 483.301027 
L 337.292133 483.307414 
L 337.758392 483.107267 
L 338.341216 482.586138 
L 339.040605 481.634544 
L 340.3811 479.322287 
L 341.546748 477.513455 
L 342.362701 476.652027 
L 343.06209 476.222173 
L 343.761479 476.05172 
L 344.460868 476.103138 
L 345.218539 476.386226 
L 345.97621 476.921375 
L 346.733881 477.753861 
L 347.549834 479.021201 
L 348.598918 481.137697 
L 350.347389 484.706154 
L 350.988496 485.519984 
L 351.513037 485.841307 
L 351.921014 485.854606 
L 352.328991 485.660933 
L 352.853532 485.130563 
L 353.494639 484.129039 
L 354.543722 481.998008 
L 356.233911 478.5887 
L 357.224712 477.099725 
L 358.040665 476.255242 
L 358.681772 475.870141 
L 359.264596 475.77164 
L 359.789137 475.921947 
L 360.313679 476.32602 
L 360.896503 477.089603 
L 361.595891 478.426333 
L 362.52841 480.756026 
L 364.393446 485.538523 
L 365.092835 486.692469 
L 365.617377 487.168985 
L 366.025353 487.289366 
L 366.43333 487.19127 
L 366.899589 486.826282 
L 367.482413 486.036272 
L 368.240084 484.584223 
L 369.813709 480.915721 
L 370.979357 478.50588 
L 371.737028 477.397156 
L 372.378134 476.832218 
L 372.902676 476.647634 
L 373.368935 476.696024 
L 373.893476 476.981689 
L 374.4763 477.56504 
L 375.233972 478.685089 
L 376.224772 480.616157 
L 379.896563 488.273316 
L 380.595952 489.065951 
L 381.178776 489.417407 
L 381.703317 489.473791 
L 382.227859 489.28241 
L 382.810683 488.797167 
L 383.510071 487.895464 
L 384.559155 486.123499 
L 386.657321 482.535303 
L 387.764686 481.127173 
L 388.755487 480.199115 
L 389.629723 479.663692 
L 390.329112 479.491004 
L 390.911935 479.577928 
L 391.436477 479.871136 
L 392.019301 480.455524 
L 392.71869 481.499116 
L 393.767773 483.536244 
L 394.991703 485.816563 
L 395.632809 486.577052 
L 396.099069 486.837125 
L 396.507045 486.839878 
L 396.915022 486.632518 
L 397.439564 486.081534 
L 398.138952 484.951116 
L 399.770859 481.656564 
L 400.703378 480.093071 
L 401.461049 479.223348 
L 402.160437 478.759427 
L 402.801544 478.596435 
L 403.44265 478.653774 
L 404.142039 478.938187 
L 404.957992 479.532327 
L 405.890511 480.505956 
L 408.688066 483.660823 
L 409.329172 483.933166 
L 409.853713 483.933493 
L 410.436537 483.697358 
L 411.077644 483.182247 
L 411.95188 482.172048 
L 414.341458 479.253808 
L 415.157411 478.662534 
L 415.8568 478.416368 
L 416.497906 478.41254 
L 417.197295 478.639425 
L 418.013249 479.158733 
L 419.412026 480.383791 
L 420.810804 481.503591 
L 421.976451 482.144402 
L 425.181983 483.487987 
L 426.056219 483.653658 
L 426.755608 483.570906 
L 427.513279 483.237643 
L 428.562362 482.477643 
L 429.844575 481.592047 
L 430.543963 481.379535 
L 431.126787 481.419106 
L 431.767894 481.694447 
L 432.525565 482.279543 
L 434.274036 484.041703 
L 435.32312 484.887751 
L 436.197355 485.323986 
L 437.071591 485.522121 
L 438.00411 485.508641 
L 438.936628 485.281235 
L 439.927429 484.803522 
L 441.151359 483.937604 
L 443.016396 482.619963 
L 443.948914 482.260611 
L 444.82315 482.16158 
L 445.872233 482.284793 
L 447.037881 482.650412 
L 448.145246 483.22555 
L 449.544024 484.241188 
L 450.826236 485.101613 
L 451.583907 485.352719 
L 452.225014 485.34466 
L 452.924402 485.101062 
L 453.740356 484.56181 
L 455.022569 483.399021 
L 458.636077 480.013032 
L 459.452031 479.573818 
L 460.093137 479.466447 
L 460.675961 479.598011 
L 461.258785 479.967418 
L 461.958174 480.713084 
L 462.832409 482.008816 
L 465.105423 485.565114 
L 465.863094 486.261783 
L 466.5042 486.556191 
L 467.145307 486.594989 
L 467.844695 486.400457 
L 468.835496 485.858204 
L 471.691333 484.158262 
L 472.856981 483.774929 
L 473.789499 483.689998 
L 474.605453 483.824632 
L 475.479689 484.200196 
L 476.645337 484.976061 
L 478.277244 486.044324 
L 479.15148 486.357923 
L 480.025716 486.43594 
L 481.016516 486.290471 
L 482.415294 485.832535 
L 484.571742 484.864583 
L 486.378497 484.115468 
L 487.252732 483.979449 
L 488.010404 484.070575 
L 488.768075 484.381412 
L 489.642311 484.998787 
L 490.691394 486.028742 
L 492.206736 487.857199 
L 494.887726 491.132554 
L 495.645397 491.70324 
L 496.286503 491.926608 
L 496.869327 491.894901 
L 497.510434 491.60985 
L 498.268105 491.005125 
L 500.657683 488.881338 
L 501.357072 488.643127 
L 501.998178 488.655114 
L 502.697567 488.897726 
L 503.630085 489.4881 
L 505.553404 490.77525 
L 506.311075 490.978015 
L 507.010464 490.930123 
L 507.826417 490.62217 
L 509.458324 489.661204 
L 510.740537 489.059484 
L 513.24668 488.007863 
L 515.985953 486.512662 
L 516.627059 486.509402 
L 517.268165 486.741724 
L 517.967554 487.257919 
L 518.84179 488.207108 
L 521.75591 491.625464 
L 522.74671 492.307729 
L 523.854076 492.787136 
L 525.369418 493.181827 
L 526.418501 493.262702 
L 527.234455 493.109462 
L 527.992126 492.730271 
L 528.808079 492.055321 
L 529.973727 490.753358 
L 531.489069 489.096518 
L 532.24674 488.568475 
L 532.887847 488.374545 
L 533.470671 488.427471 
L 534.053495 488.704669 
L 534.752883 489.315252 
L 535.627119 490.423035 
L 539.007498 495.108727 
L 539.765169 495.641258 
L 540.464558 495.865923 
L 541.105664 495.832081 
L 541.746771 495.560296 
L 542.446159 494.99419 
L 543.262113 494.013785 
L 544.486043 492.129286 
L 545.943103 489.981074 
L 546.700774 489.229747 
L 547.34188 488.884792 
L 547.924704 488.818597 
L 548.507528 488.97973 
L 549.148635 489.392099 
L 549.964588 490.207339 
L 551.130236 491.744938 
L 553.344967 494.732148 
L 554.160921 495.447815 
L 554.860309 495.770601 
L 555.501416 495.808163 
L 556.142522 495.606945 
L 556.900193 495.106473 
L 557.949276 494.096931 
L 560.513701 491.508224 
L 561.44622 490.91099 
L 562.262173 490.627545 
L 563.078127 490.574748 
L 563.952363 490.747724 
L 565.001446 491.194134 
L 566.341941 492.017924 
L 567.799001 493.174372 
L 570.421708 495.348822 
L 571.062815 495.559727 
L 571.645639 495.520296 
L 572.228463 495.231241 
L 572.869569 494.62728 
L 573.685522 493.504491 
L 576.016818 490.061184 
L 576.657925 489.59884 
L 577.182466 489.473564 
L 577.707008 489.572519 
L 578.289832 489.911707 
L 579.105785 490.671991 
L 581.262234 492.81078 
L 582.078187 493.232321 
L 582.835858 493.370567 
L 583.710094 493.283893 
L 584.934024 492.899654 
L 590.412569 490.910336 
L 591.228523 490.954118 
L 592.044477 491.232792 
L 592.918712 491.790676 
L 594.08436 492.831679 
L 596.065962 494.608603 
L 596.940198 495.074124 
L 597.639586 495.205765 
L 598.280693 495.108017 
L 598.921799 494.789838 
L 599.621188 494.19623 
L 600.495424 493.133718 
L 601.719354 491.230551 
L 604.05065 487.544223 
L 604.983168 486.49561 
L 605.740839 485.937158 
L 606.440228 485.68126 
L 607.081334 485.672575 
L 607.72244 485.875643 
L 608.480112 486.366134 
L 609.41263 487.267755 
L 612.559879 490.593894 
L 613.31755 490.949882 
L 613.958657 491.023564 
L 614.599763 490.883583 
L 615.299152 490.503455 
L 616.173388 489.759457 
L 619.204072 486.925803 
L 619.961743 486.645185 
L 620.719414 486.605081 
L 621.59365 486.792408 
L 623.516969 487.52691 
L 625.556853 488.149907 
L 628.995514 489.00627 
L 629.811468 488.879616 
L 630.627421 488.516979 
L 633.075282 487.219456 
L 633.658106 487.258967 
L 634.24093 487.534757 
L 634.882036 488.107739 
L 635.697989 489.167123 
L 638.495544 493.094823 
L 639.253216 493.651393 
L 639.952604 493.89247 
L 640.651993 493.897251 
L 641.467946 493.662064 
L 642.51703 493.096245 
L 644.323784 491.809317 
L 646.130538 490.620218 
L 647.237903 490.158967 
L 648.228704 489.994393 
L 649.161222 490.060413 
L 650.152023 490.351593 
L 651.201106 490.893081 
L 652.425037 491.787759 
L 655.106027 493.845983 
L 655.92198 494.129037 
L 656.621369 494.135464 
L 657.320758 493.900566 
L 658.020146 493.424716 
L 658.894382 492.529559 
L 660.234877 490.757392 
L 661.575372 489.094924 
L 662.333043 488.492014 
L 662.97415 488.26688 
L 663.556974 488.305326 
L 664.19808 488.593531 
L 665.014034 489.239002 
L 667.287047 491.201886 
L 667.986436 491.457904 
L 668.627542 491.466822 
L 669.326931 491.236646 
L 670.142884 490.705331 
L 671.425097 489.543268 
L 673.173569 488.005033 
L 673.581545 487.72901 
L 673.581545 487.72901 
" clip-path="url(#pdfc24c00fd)" style="fill: none; stroke: #ff0000; stroke-width: 1.5; stroke-linecap: square"/>
   </g>
   <g id="line2d_58">
    <path d="M 90.932455 612.994364 
L 92.03982 344.937366 
L 92.680926 235.04719 
L 93.205468 177.904304 
L 93.613445 153.827311 
L 93.904857 146.636941 
L 94.021421 145.873622 
L 94.079704 145.912746 
L 94.196269 146.788888 
L 94.429398 151.474623 
L 94.779093 164.682459 
L 95.361916 197.892829 
L 97.168671 309.092873 
L 97.809777 333.933128 
L 98.392601 348.926355 
L 98.975425 358.579792 
L 99.616531 365.557097 
L 100.723897 374.563703 
L 102.588933 388.38095 
L 103.23004 391.402304 
L 103.754581 392.844084 
L 104.162558 393.398386 
L 104.512252 393.561666 
L 104.920229 393.496257 
L 106.377289 392.977648 
L 106.785266 393.203828 
L 107.251525 393.775535 
L 107.834349 394.910225 
L 109.990797 399.580621 
L 111.156445 401.687865 
L 111.739269 403.250515 
L 112.322093 405.465378 
L 113.021482 409.036162 
L 114.012282 415.398015 
L 116.110449 429.182962 
L 116.751555 431.885925 
L 117.217814 432.987547 
L 117.509226 433.241372 
L 117.742356 433.186033 
L 117.975485 432.894667 
L 118.32518 432.011922 
L 118.791439 430.056271 
L 119.374263 426.515246 
L 120.306781 419.154587 
L 121.588994 409.265337 
L 122.171818 406.449425 
L 122.579794 405.487107 
L 122.812924 405.347601 
L 123.046054 405.510625 
L 123.337466 406.133434 
L 123.68716 407.468942 
L 124.211701 410.516856 
L 124.969373 416.458943 
L 126.542997 429.103407 
L 127.184103 432.56049 
L 127.708645 434.344415 
L 128.116622 435.106402 
L 128.466316 435.389835 
L 128.816011 435.414704 
L 129.28227 435.198967 
L 130.797612 434.310175 
L 131.322153 434.320926 
L 132.254672 434.653992 
L 132.837496 434.712984 
L 133.303755 434.52369 
L 133.770014 434.095568 
L 134.294556 433.311323 
L 134.993944 431.803866 
L 136.043027 428.907998 
L 137.383522 425.304033 
L 138.082911 424.044808 
L 138.607453 423.501052 
L 139.073712 423.311634 
L 139.539971 423.374186 
L 140.064513 423.68265 
L 140.763901 424.373101 
L 141.579855 425.499125 
L 142.68722 427.46348 
L 144.901951 431.501105 
L 145.543058 432.197742 
L 146.067599 432.465719 
L 146.533858 432.486507 
L 147.000117 432.281465 
L 147.524659 431.787546 
L 148.165765 430.831957 
L 149.040001 429.063863 
L 150.380496 426.333846 
L 151.079885 425.411629 
L 151.604427 425.035722 
L 152.128968 424.935762 
L 152.65351 425.081547 
L 153.352898 425.551709 
L 155.917324 427.547788 
L 156.733277 427.775692 
L 157.724078 427.793071 
L 160.46335 427.697337 
L 161.687281 427.986833 
L 164.135141 428.666746 
L 164.892812 428.580054 
L 165.592201 428.266835 
L 166.408155 427.630278 
L 167.51552 426.426862 
L 169.147427 424.65322 
L 169.963381 424.088264 
L 170.662769 423.854326 
L 171.42044 423.847313 
L 172.294676 424.07589 
L 174.043148 424.830876 
L 177.01555 426.067302 
L 178.414328 426.453693 
L 179.987952 426.618685 
L 181.1536 426.830013 
L 181.969554 427.203251 
L 182.960354 427.930781 
L 184.650544 429.210966 
L 185.29165 429.390249 
L 185.816192 429.313654 
L 186.399016 428.978083 
L 187.040122 428.335917 
L 187.97264 427.055305 
L 189.837677 424.433124 
L 190.65363 423.673096 
L 191.411301 423.260607 
L 192.11069 423.121694 
L 192.868361 423.200017 
L 193.917444 423.564676 
L 195.899046 424.292442 
L 197.006411 424.42738 
L 200.037096 424.631522 
L 200.969614 425.021571 
L 202.193544 425.801566 
L 203.534039 426.601237 
L 204.175146 426.72614 
L 204.699687 426.602012 
L 205.224229 426.239615 
L 205.807053 425.55516 
L 206.564724 424.272911 
L 207.905219 421.421107 
L 208.89602 419.576304 
L 209.595408 418.726519 
L 210.11995 418.396512 
L 210.644491 418.32581 
L 211.169033 418.481573 
L 211.868422 418.956497 
L 212.975787 420.04762 
L 214.665977 421.678669 
L 216.064754 422.680934 
L 217.696661 423.57965 
L 218.978874 424.059063 
L 219.911392 424.193999 
L 220.727346 424.090212 
L 221.543299 423.752906 
L 222.475817 423.113218 
L 225.914479 420.439839 
L 226.905279 420.113535 
L 227.89608 420.015207 
L 229.061728 420.129812 
L 230.460505 420.505909 
L 233.374625 421.594348 
L 235.414509 422.54181 
L 237.570957 423.528404 
L 240.31023 424.673874 
L 242.524961 425.85064 
L 243.166067 425.87971 
L 243.748891 425.663951 
L 244.389997 425.149394 
L 245.205951 424.168018 
L 247.012705 421.89361 
L 247.712094 421.41132 
L 248.3532 421.247953 
L 248.994307 421.315892 
L 249.926825 421.664815 
L 251.617014 422.313155 
L 252.49125 422.397298 
L 253.598616 422.263544 
L 255.230523 422.070863 
L 256.163041 422.200158 
L 257.037277 422.551813 
L 257.969795 423.171986 
L 259.018878 424.15381 
L 260.417656 425.816104 
L 261.641586 427.17204 
L 262.282692 427.586422 
L 262.748951 427.660592 
L 263.215211 427.49395 
L 263.68147 427.05904 
L 264.206011 426.243431 
L 264.9054 424.677407 
L 266.012766 421.510799 
L 267.178413 418.415201 
L 267.877802 417.109055 
L 268.518908 416.360495 
L 269.101732 416.023886 
L 269.684556 415.942344 
L 270.50051 416.075206 
L 272.715241 416.53852 
L 276.09562 416.975264 
L 277.144703 417.372989 
L 278.193786 418.026475 
L 280.991341 419.982945 
L 281.690729 420.088853 
L 282.331836 419.959109 
L 283.031225 419.579917 
L 283.90546 418.83064 
L 287.110992 415.787565 
L 287.926946 415.475746 
L 288.976029 415.330561 
L 291.715301 415.284358 
L 292.64782 415.473565 
L 293.522055 415.874596 
L 294.745986 416.717402 
L 296.960717 418.253209 
L 298.476059 418.986735 
L 299.699989 419.35748 
L 300.574225 419.39926 
L 301.331896 419.202491 
L 302.031285 418.791218 
L 302.847238 418.040396 
L 304.246016 416.36213 
L 305.411664 415.094454 
L 306.169335 414.558978 
L 306.868724 414.328428 
L 307.568112 414.338005 
L 308.500631 414.600024 
L 310.482232 415.214683 
L 311.473033 415.227823 
L 314.387152 415.052043 
L 315.261388 415.346877 
L 316.252189 415.933515 
L 317.534402 416.985696 
L 319.399438 418.517539 
L 320.157109 418.842534 
L 320.739933 418.870732 
L 321.264475 418.686776 
L 321.847299 418.222018 
L 322.488405 417.392598 
L 323.304359 415.919523 
L 326.335043 409.942717 
L 327.034432 409.21671 
L 327.675538 408.854936 
L 328.316645 408.753626 
L 328.957751 408.872547 
L 329.715422 409.254118 
L 330.64794 409.994791 
L 333.79519 412.736192 
L 334.844273 413.211135 
L 336.651027 413.706411 
L 338.457781 414.079015 
L 339.332017 414.033626 
L 340.14797 413.766818 
L 341.022206 413.231987 
L 342.304419 412.125182 
L 343.936326 410.7715 
L 344.868844 410.277702 
L 345.626515 410.111017 
L 346.325904 410.170707 
L 347.083575 410.468714 
L 347.957811 411.072725 
L 349.240024 412.277639 
L 350.871931 413.767888 
L 351.862732 414.371074 
L 352.79525 414.677219 
L 353.727768 414.743766 
L 354.951699 414.584161 
L 356.816735 414.334 
L 358.15723 414.431037 
L 359.905702 414.548409 
L 360.779938 414.36927 
L 361.595891 413.965537 
L 362.52841 413.242566 
L 365.092835 411.072785 
L 365.967071 410.714576 
L 366.841307 410.61202 
L 367.832108 410.7386 
L 370.163403 411.365618 
L 371.387334 411.84364 
L 372.319852 412.451303 
L 373.310653 413.387165 
L 376.632749 416.844862 
L 377.332138 417.147303 
L 377.973244 417.19941 
L 378.61435 417.020114 
L 379.255457 416.588762 
L 379.954845 415.813003 
L 380.770799 414.525983 
L 381.878164 412.298569 
L 383.743201 408.506073 
L 384.617437 407.237834 
L 385.375108 406.509607 
L 386.132779 406.096466 
L 386.948733 405.913616 
L 387.822969 405.952392 
L 388.813769 406.236018 
L 389.921135 406.800288 
L 393.592926 408.880624 
L 396.740175 410.084344 
L 397.556128 410.129632 
L 398.255517 409.956255 
L 399.013188 409.534159 
L 399.945707 408.730178 
L 403.267803 405.556795 
L 404.025474 405.289032 
L 404.724863 405.277544 
L 405.482534 405.492985 
L 406.531617 406.049805 
L 409.504019 407.7476 
L 411.543903 408.614837 
L 412.476421 408.781894 
L 413.292375 408.710805 
L 414.341458 408.371033 
L 416.614471 407.581268 
L 419.936568 406.683825 
L 421.859887 405.702627 
L 423.200382 405.141988 
L 424.191182 404.966701 
L 425.065418 405.036489 
L 426.056219 405.343143 
L 429.320033 406.547507 
L 431.767894 407.057089 
L 432.583847 407.518722 
L 433.458083 408.277263 
L 434.623731 409.624811 
L 436.080791 411.258043 
L 436.721897 411.663157 
L 437.246439 411.746716 
L 437.712698 411.597808 
L 438.237239 411.162219 
L 438.820063 410.353775 
L 439.577734 408.881145 
L 442.258724 403.222423 
L 442.899831 402.534163 
L 443.424372 402.255519 
L 443.948914 402.210136 
L 444.531738 402.382151 
L 445.347691 402.890875 
L 447.037881 404.315732 
L 448.378376 405.275514 
L 449.544024 405.833083 
L 451.117648 406.300929 
L 452.807838 406.843319 
L 455.721957 407.9501 
L 456.421346 407.896163 
L 457.120735 407.616474 
L 457.878406 407.066145 
L 458.927489 405.99138 
L 460.617678 404.253974 
L 461.37535 403.792194 
L 462.016456 403.636485 
L 462.657562 403.704593 
L 463.415233 404.024869 
L 466.154506 405.422415 
L 467.028742 405.495192 
L 468.19439 405.347127 
L 471.283357 404.879008 
L 472.449004 404.908305 
L 473.32324 405.141623 
L 474.314041 405.657843 
L 476.23736 406.739037 
L 476.878466 406.801037 
L 477.46129 406.623531 
L 478.044114 406.20232 
L 478.743503 405.390263 
L 479.676021 403.90675 
L 481.83247 400.333492 
L 482.531859 399.634324 
L 483.114682 399.345896 
L 483.639224 399.33146 
L 484.163766 399.535613 
L 484.863154 400.075863 
L 486.145367 401.43335 
L 487.544144 402.799989 
L 488.884639 403.766396 
L 491.449065 405.561003 
L 492.847842 406.846785 
L 495.353985 409.2339 
L 495.995092 409.516467 
L 496.519633 409.520563 
L 496.985892 409.317678 
L 497.510434 408.84032 
L 498.15154 407.908779 
L 498.967494 406.262127 
L 501.298789 401.277026 
L 501.998178 400.399398 
L 502.581002 400.008823 
L 503.105544 399.908069 
L 503.688368 400.034104 
L 504.387756 400.437378 
L 505.495122 401.383208 
L 507.301876 402.917201 
L 508.292677 403.472948 
L 509.283477 403.771674 
L 510.857102 403.952149 
L 514.237481 404.201111 
L 515.111717 403.916187 
L 516.102517 403.349157 
L 517.443012 402.284343 
L 519.249767 400.863871 
L 520.06572 400.502518 
L 520.765109 400.422858 
L 521.52278 400.577516 
L 522.455298 401.024058 
L 524.844876 402.287793 
L 525.777395 402.468523 
L 527.234455 402.476465 
L 528.400102 402.582504 
L 529.216056 402.879211 
L 530.090292 403.45001 
L 531.197657 404.474912 
L 533.179259 406.357115 
L 533.995212 406.815371 
L 534.694601 406.972064 
L 535.39399 406.897512 
L 536.151661 406.573294 
L 537.025897 405.947305 
L 538.541239 404.518209 
L 539.881734 403.373022 
L 540.814252 402.869778 
L 541.630206 402.669406 
L 542.504442 402.69258 
L 543.611807 402.973296 
L 546.059668 403.651465 
L 548.624093 404.194164 
L 549.556611 404.697795 
L 550.663977 405.565988 
L 552.587296 407.115552 
L 553.286685 407.378699 
L 553.869509 407.365677 
L 554.39405 407.133164 
L 554.976874 406.604491 
L 555.61798 405.701491 
L 556.492216 404.034749 
L 559.114924 398.710951 
L 559.930878 397.670915 
L 560.688549 397.053858 
L 561.387937 396.764386 
L 562.087326 396.723208 
L 562.786715 396.91596 
L 563.544386 397.359516 
L 564.476904 398.178011 
L 568.614954 402.168618 
L 570.072014 403.110492 
L 570.94625 403.449771 
L 571.645639 403.50224 
L 572.286745 403.327068 
L 572.927851 402.912765 
L 573.685522 402.131541 
L 574.734606 400.681391 
L 576.483077 398.245696 
L 577.240748 397.574347 
L 577.881855 397.295513 
L 578.522961 397.270218 
L 579.280632 397.478816 
L 581.320516 398.152271 
L 582.311317 398.162154 
L 585.108872 398.011429 
L 586.216237 398.333653 
L 588.022991 399.130067 
L 589.771463 400.104338 
L 592.452453 401.730408 
L 593.151842 401.848266 
L 593.792948 401.747334 
L 594.550619 401.385344 
L 595.657985 400.562777 
L 597.115045 399.52746 
L 598.047563 399.141737 
L 598.980081 399.000422 
L 602.302178 398.747233 
L 603.409543 398.202876 
L 604.866603 397.508152 
L 605.565992 397.416382 
L 606.265381 397.55923 
L 607.023052 397.955995 
L 608.013852 398.750229 
L 609.470912 400.230829 
L 611.802208 402.63008 
L 612.443314 402.971016 
L 612.967856 403.007586 
L 613.434115 402.814562 
L 613.958657 402.322683 
L 614.541481 401.446986 
L 615.357434 399.760177 
L 617.222471 395.732654 
L 617.921859 394.779721 
L 618.504683 394.343148 
L 619.029225 394.219704 
L 619.612049 394.336039 
L 620.311438 394.730401 
L 623.05071 396.549924 
L 623.924946 396.709994 
L 625.090594 396.666697 
L 626.547654 396.646587 
L 627.596737 396.874225 
L 630.510856 397.658542 
L 631.909634 397.694022 
L 633.891235 397.528 
L 635.056883 397.213913 
L 636.455661 396.583078 
L 638.204132 395.81943 
L 639.253216 395.613334 
L 640.360581 395.6216 
L 641.701076 395.868614 
L 643.449548 396.433726 
L 645.314584 396.999119 
L 646.888209 397.211193 
L 648.170422 397.44859 
L 649.277787 397.907462 
L 650.851412 398.565209 
L 651.492518 398.58427 
L 652.075342 398.378754 
L 652.658166 397.935978 
L 653.415837 397.043356 
L 656.038545 393.592601 
L 656.621369 393.307777 
L 657.14591 393.27975 
L 657.728734 393.47131 
L 658.544688 394.01516 
L 660.351442 395.318767 
L 661.109113 395.556247 
L 661.866784 395.564764 
L 663.090715 395.302132 
L 664.256362 395.141703 
L 665.072316 395.248968 
L 665.888269 395.588387 
L 666.87907 396.266984 
L 669.79319 398.485184 
L 670.376014 398.56241 
L 670.900555 398.395656 
L 671.425097 397.966221 
L 672.007921 397.168858 
L 672.70731 395.809414 
L 673.581545 393.700605 
L 673.581545 393.700605 
" clip-path="url(#pdfc24c00fd)" style="fill: none; stroke: #0000ff; stroke-width: 1.5; stroke-linecap: square"/>
   </g>
   <g id="patch_3">
    <path d="M 61.8 640.3185 
L 61.8 39.1875 
" style="fill: none; stroke: #000000; stroke-width: 0.8; stroke-linejoin: miter; stroke-linecap: square"/>
   </g>
   <g id="patch_4">
    <path d="M 702.714 640.3185 
L 702.714 39.1875 
" style="fill: none; stroke: #000000; stroke-width: 0.8; stroke-linejoin: miter; stroke-linecap: square"/>
   </g>
   <g id="patch_5">
    <path d="M 61.8 640.3185 
L 702.714 640.3185 
" style="fill: none; stroke: #000000; stroke-width: 0.8; stroke-linejoin: miter; stroke-linecap: square"/>
   </g>
   <g id="patch_6">
    <path d="M 61.8 39.1875 
L 702.714 39.1875 
" style="fill: none; stroke: #000000; stroke-width: 0.8; stroke-linejoin: miter; stroke-linecap: square"/>
   </g>
   <g id="legend_1">
    <g id="patch_7">
     <path d="M 505.703062 149.11875 
L 681.714 149.11875 
Q 687.714 149.11875 687.714 143.11875 
L 687.714 60.1875 
Q 687.714 54.1875 681.714 54.1875 
L 505.703062 54.1875 
Q 499.703062 54.1875 499.703062 60.1875 
L 499.703062 143.11875 
Q 499.703062 149.11875 505.703062 149.11875 
z
" style="fill: #ffffff; opacity: 0.8; stroke: #cccccc; stroke-linejoin: miter"/>
    </g>
    <g id="line2d_59">
     <path d="M 511.703062 77.428125 
L 541.703062 77.428125 
L 571.703062 77.428125 
" style="fill: none; stroke: #ff0000; stroke-width: 1.5; stroke-linecap: square"/>
    </g>
    <g id="text_17">
     <!-- MD -->
     <g transform="translate(595.703062 87.928125) scale(0.3 -0.3)">
      <defs>
       <path id="LiberationSans-4d" d="M 4269 0 
L 4269 2938 
Q 4269 3425 4297 3875 
Q 4144 3316 4022 3000 
L 2884 0 
L 2466 0 
L 1313 3000 
L 1138 3531 
L 1034 3875 
L 1044 3528 
L 1056 2938 
L 1056 0 
L 525 0 
L 525 4403 
L 1309 4403 
L 2481 1350 
Q 2544 1166 2601 955 
Q 2659 744 2678 650 
Q 2703 775 2783 1029 
Q 2863 1284 2891 1350 
L 4041 4403 
L 4806 4403 
L 4806 0 
L 4269 0 
z
" transform="scale(0.015625)"/>
       <path id="LiberationSans-44" d="M 4316 2247 
Q 4316 1566 4050 1055 
Q 3784 544 3296 272 
Q 2809 0 2172 0 
L 525 0 
L 525 4403 
L 1981 4403 
Q 3100 4403 3708 3842 
Q 4316 3281 4316 2247 
z
M 3716 2247 
Q 3716 3066 3267 3495 
Q 2819 3925 1969 3925 
L 1122 3925 
L 1122 478 
L 2103 478 
Q 2588 478 2955 690 
Q 3322 903 3519 1303 
Q 3716 1703 3716 2247 
z
" transform="scale(0.015625)"/>
      </defs>
      <use xlink:href="#LiberationSans-4d"/>
      <use xlink:href="#LiberationSans-44" x="83.300781"/>
     </g>
    </g>
    <g id="line2d_60">
     <path d="M 511.703062 120.39375 
L 541.703062 120.39375 
L 571.703062 120.39375 
" style="fill: none; stroke: #0000ff; stroke-width: 1.5; stroke-linecap: square"/>
    </g>
    <g id="text_18">
     <!-- GANs -->
     <g transform="translate(595.703062 130.89375) scale(0.3 -0.3)">
      <defs>
       <path id="LiberationSans-47" d="M 322 2222 
Q 322 3294 897 3881 
Q 1472 4469 2513 4469 
Q 3244 4469 3700 4222 
Q 4156 3975 4403 3431 
L 3834 3263 
Q 3647 3638 3317 3809 
Q 2988 3981 2497 3981 
Q 1734 3981 1331 3520 
Q 928 3059 928 2222 
Q 928 1388 1356 905 
Q 1784 422 2541 422 
Q 2972 422 3345 553 
Q 3719 684 3950 909 
L 3950 1703 
L 2634 1703 
L 2634 2203 
L 4500 2203 
L 4500 684 
Q 4150 328 3642 132 
Q 3134 -63 2541 -63 
Q 1850 -63 1350 212 
Q 850 488 586 1005 
Q 322 1522 322 2222 
z
" transform="scale(0.015625)"/>
       <path id="LiberationSans-41" d="M 3647 0 
L 3144 1288 
L 1138 1288 
L 631 0 
L 13 0 
L 1809 4403 
L 2488 4403 
L 4256 0 
L 3647 0 
z
M 2141 3953 
L 2113 3866 
Q 2034 3606 1881 3200 
L 1319 1753 
L 2966 1753 
L 2400 3206 
Q 2313 3422 2225 3694 
L 2141 3953 
z
" transform="scale(0.015625)"/>
       <path id="LiberationSans-4e" d="M 3381 0 
L 1025 3750 
L 1041 3447 
L 1056 2925 
L 1056 0 
L 525 0 
L 525 4403 
L 1219 4403 
L 3600 628 
Q 3563 1241 3563 1516 
L 3563 4403 
L 4100 4403 
L 4100 0 
L 3381 0 
z
" transform="scale(0.015625)"/>
      </defs>
      <use xlink:href="#LiberationSans-47"/>
      <use xlink:href="#LiberationSans-41" x="77.783203"/>
      <use xlink:href="#LiberationSans-4e" x="144.482422"/>
      <use xlink:href="#LiberationSans-73" x="216.699219"/>
     </g>
    </g>
   </g>
  </g>
 </g>
 <defs>
  <clipPath id="pdfc24c00fd">
   <rect x="61.8" y="39.1875" width="640.914" height="601.131"/>
  </clipPath>
 </defs>
</svg>
