<?xml version="1.0" encoding="utf-8" standalone="no"?>
<!DOCTYPE svg PUBLIC "-//W3C//DTD SVG 1.1//EN"
  "http://www.w3.org/Graphics/SVG/1.1/DTD/svg11.dtd">
<svg xmlns:xlink="http://www.w3.org/1999/xlink" width="711.485625pt" height="710.94975pt" viewBox="0 0 711.485625 710.94975" xmlns="http://www.w3.org/2000/svg" version="1.1">
 <metadata>
  <rdf:RDF xmlns:dc="http://purl.org/dc/elements/1.1/" xmlns:cc="http://creativecommons.org/ns#" xmlns:rdf="http://www.w3.org/1999/02/22-rdf-syntax-ns#">
   <cc:Work>
    <dc:type rdf:resource="http://purl.org/dc/dcmitype/StillImage"/>
    <dc:date>2025-02-06T00:34:27.427212</dc:date>
    <dc:format>image/svg+xml</dc:format>
    <dc:creator>
     <cc:Agent>
      <dc:title>Matplotlib v3.9.3, https://matplotlib.org/</dc:title>
     </cc:Agent>
    </dc:creator>
   </cc:Work>
  </rdf:RDF>
 </metadata>
 <defs>
  <style type="text/css">*{stroke-linejoin: round; stroke-linecap: butt}</style>
 </defs>
 <g id="figure_1">
  <g id="patch_1">
   <path d="M 0 710.94975 
L 711.485625 710.94975 
L 711.485625 0 
L 0 0 
z
" style="fill: #ffffff"/>
  </g>
  <g id="axes_1">
   <g id="patch_2">
    <path d="M 59.465625 640.3185 
L 704.285625 640.3185 
L 704.285625 39.1875 
L 59.465625 39.1875 
z
" style="fill: #ffffff"/>
   </g>
   <g id="matplotlib.axis_1">
    <g id="xtick_1">
     <g id="line2d_1">
      <defs>
       <path id="m3549235a0a" d="M 0 0 
L 0 -3.5 
" style="stroke: #000000; stroke-width: 0.8"/>
      </defs>
      <g>
       <use xlink:href="#m3549235a0a" x="88.716993" y="640.3185" style="stroke: #000000; stroke-width: 0.8"/>
      </g>
     </g>
     <g id="text_1">
      <!-- 0 -->
      <g transform="translate(80.375587 665.559125) scale(0.3 -0.3)">
       <defs>
        <path id="LiberationSans-30" d="M 3309 2203 
Q 3309 1100 2920 518 
Q 2531 -63 1772 -63 
Q 1013 -63 631 515 
Q 250 1094 250 2203 
Q 250 3338 620 3903 
Q 991 4469 1791 4469 
Q 2569 4469 2939 3897 
Q 3309 3325 3309 2203 
z
M 2738 2203 
Q 2738 3156 2517 3584 
Q 2297 4013 1791 4013 
Q 1272 4013 1045 3591 
Q 819 3169 819 2203 
Q 819 1266 1048 831 
Q 1278 397 1778 397 
Q 2275 397 2506 840 
Q 2738 1284 2738 2203 
z
" transform="scale(0.015625)"/>
       </defs>
       <use xlink:href="#LiberationSans-30"/>
      </g>
     </g>
    </g>
    <g id="xtick_2">
     <g id="line2d_2">
      <g>
       <use xlink:href="#m3549235a0a" x="205.980446" y="640.3185" style="stroke: #000000; stroke-width: 0.8"/>
      </g>
     </g>
     <g id="text_2">
      <!-- 2 -->
      <g transform="translate(197.63904 665.559125) scale(0.3 -0.3)">
       <defs>
        <path id="LiberationSans-32" d="M 322 0 
L 322 397 
Q 481 763 711 1042 
Q 941 1322 1194 1548 
Q 1447 1775 1695 1969 
Q 1944 2163 2144 2356 
Q 2344 2550 2467 2762 
Q 2591 2975 2591 3244 
Q 2591 3606 2378 3806 
Q 2166 4006 1788 4006 
Q 1428 4006 1195 3811 
Q 963 3616 922 3263 
L 347 3316 
Q 409 3844 795 4156 
Q 1181 4469 1788 4469 
Q 2453 4469 2811 4155 
Q 3169 3841 3169 3263 
Q 3169 3006 3051 2753 
Q 2934 2500 2703 2247 
Q 2472 1994 1819 1463 
Q 1459 1169 1246 933 
Q 1034 697 941 478 
L 3238 478 
L 3238 0 
L 322 0 
z
" transform="scale(0.015625)"/>
       </defs>
       <use xlink:href="#LiberationSans-32"/>
      </g>
     </g>
    </g>
    <g id="xtick_3">
     <g id="line2d_3">
      <g>
       <use xlink:href="#m3549235a0a" x="323.243899" y="640.3185" style="stroke: #000000; stroke-width: 0.8"/>
      </g>
     </g>
     <g id="text_3">
      <!-- 4 -->
      <g transform="translate(314.902492 665.559125) scale(0.3 -0.3)">
       <defs>
        <path id="LiberationSans-34" d="M 2753 997 
L 2753 0 
L 2222 0 
L 2222 997 
L 147 997 
L 147 1434 
L 2163 4403 
L 2753 4403 
L 2753 1441 
L 3372 1441 
L 3372 997 
L 2753 997 
z
M 2222 3769 
Q 2216 3750 2134 3603 
Q 2053 3456 2013 3397 
L 884 1734 
L 716 1503 
L 666 1441 
L 2222 1441 
L 2222 3769 
z
" transform="scale(0.015625)"/>
       </defs>
       <use xlink:href="#LiberationSans-34"/>
      </g>
     </g>
    </g>
    <g id="xtick_4">
     <g id="line2d_4">
      <g>
       <use xlink:href="#m3549235a0a" x="440.507351" y="640.3185" style="stroke: #000000; stroke-width: 0.8"/>
      </g>
     </g>
     <g id="text_4">
      <!-- 6 -->
      <g transform="translate(432.165945 665.559125) scale(0.3 -0.3)">
       <defs>
        <path id="LiberationSans-36" d="M 3278 1441 
Q 3278 744 2900 340 
Q 2522 -63 1856 -63 
Q 1113 -63 719 490 
Q 325 1044 325 2100 
Q 325 3244 734 3856 
Q 1144 4469 1900 4469 
Q 2897 4469 3156 3572 
L 2619 3475 
Q 2453 4013 1894 4013 
Q 1413 4013 1148 3564 
Q 884 3116 884 2266 
Q 1038 2550 1316 2698 
Q 1594 2847 1953 2847 
Q 2563 2847 2920 2465 
Q 3278 2084 3278 1441 
z
M 2706 1416 
Q 2706 1894 2472 2153 
Q 2238 2413 1819 2413 
Q 1425 2413 1183 2183 
Q 941 1953 941 1550 
Q 941 1041 1192 716 
Q 1444 391 1838 391 
Q 2244 391 2475 664 
Q 2706 938 2706 1416 
z
" transform="scale(0.015625)"/>
       </defs>
       <use xlink:href="#LiberationSans-36"/>
      </g>
     </g>
    </g>
    <g id="xtick_5">
     <g id="line2d_5">
      <g>
       <use xlink:href="#m3549235a0a" x="557.770804" y="640.3185" style="stroke: #000000; stroke-width: 0.8"/>
      </g>
     </g>
     <g id="text_5">
      <!-- 8 -->
      <g transform="translate(549.429398 665.559125) scale(0.3 -0.3)">
       <defs>
        <path id="LiberationSans-38" d="M 3281 1228 
Q 3281 619 2893 278 
Q 2506 -63 1781 -63 
Q 1075 -63 676 271 
Q 278 606 278 1222 
Q 278 1653 525 1947 
Q 772 2241 1156 2303 
L 1156 2316 
Q 797 2400 589 2681 
Q 381 2963 381 3341 
Q 381 3844 757 4156 
Q 1134 4469 1769 4469 
Q 2419 4469 2795 4162 
Q 3172 3856 3172 3334 
Q 3172 2956 2962 2675 
Q 2753 2394 2391 2322 
L 2391 2309 
Q 2813 2241 3047 1952 
Q 3281 1663 3281 1228 
z
M 2588 3303 
Q 2588 4050 1769 4050 
Q 1372 4050 1164 3862 
Q 956 3675 956 3303 
Q 956 2925 1170 2726 
Q 1384 2528 1775 2528 
Q 2172 2528 2380 2711 
Q 2588 2894 2588 3303 
z
M 2697 1281 
Q 2697 1691 2453 1898 
Q 2209 2106 1769 2106 
Q 1341 2106 1100 1882 
Q 859 1659 859 1269 
Q 859 359 1788 359 
Q 2247 359 2472 579 
Q 2697 800 2697 1281 
z
" transform="scale(0.015625)"/>
       </defs>
       <use xlink:href="#LiberationSans-38"/>
      </g>
     </g>
    </g>
    <g id="xtick_6">
     <g id="line2d_6">
      <g>
       <use xlink:href="#m3549235a0a" x="675.034257" y="640.3185" style="stroke: #000000; stroke-width: 0.8"/>
      </g>
     </g>
     <g id="text_6">
      <!-- 10 -->
      <g transform="translate(658.351444 665.559125) scale(0.3 -0.3)">
       <defs>
        <path id="LiberationSans-31" d="M 488 0 
L 488 478 
L 1609 478 
L 1609 3866 
L 616 3156 
L 616 3688 
L 1656 4403 
L 2175 4403 
L 2175 478 
L 3247 478 
L 3247 0 
L 488 0 
z
" transform="scale(0.015625)"/>
       </defs>
       <use xlink:href="#LiberationSans-31"/>
       <use xlink:href="#LiberationSans-30" x="55.615234"/>
      </g>
     </g>
    </g>
    <g id="xtick_7">
     <g id="line2d_7">
      <defs>
       <path id="me4b6716871" d="M 0 0 
L 0 -2 
" style="stroke: #000000; stroke-width: 0.6"/>
      </defs>
      <g>
       <use xlink:href="#me4b6716871" x="118.032856" y="640.3185" style="stroke: #000000; stroke-width: 0.6"/>
      </g>
     </g>
    </g>
    <g id="xtick_8">
     <g id="line2d_8">
      <g>
       <use xlink:href="#me4b6716871" x="147.34872" y="640.3185" style="stroke: #000000; stroke-width: 0.6"/>
      </g>
     </g>
    </g>
    <g id="xtick_9">
     <g id="line2d_9">
      <g>
       <use xlink:href="#me4b6716871" x="176.664583" y="640.3185" style="stroke: #000000; stroke-width: 0.6"/>
      </g>
     </g>
    </g>
    <g id="xtick_10">
     <g id="line2d_10">
      <g>
       <use xlink:href="#me4b6716871" x="235.296309" y="640.3185" style="stroke: #000000; stroke-width: 0.6"/>
      </g>
     </g>
    </g>
    <g id="xtick_11">
     <g id="line2d_11">
      <g>
       <use xlink:href="#me4b6716871" x="264.612172" y="640.3185" style="stroke: #000000; stroke-width: 0.6"/>
      </g>
     </g>
    </g>
    <g id="xtick_12">
     <g id="line2d_12">
      <g>
       <use xlink:href="#me4b6716871" x="293.928035" y="640.3185" style="stroke: #000000; stroke-width: 0.6"/>
      </g>
     </g>
    </g>
    <g id="xtick_13">
     <g id="line2d_13">
      <g>
       <use xlink:href="#me4b6716871" x="352.559762" y="640.3185" style="stroke: #000000; stroke-width: 0.6"/>
      </g>
     </g>
    </g>
    <g id="xtick_14">
     <g id="line2d_14">
      <g>
       <use xlink:href="#me4b6716871" x="381.875625" y="640.3185" style="stroke: #000000; stroke-width: 0.6"/>
      </g>
     </g>
    </g>
    <g id="xtick_15">
     <g id="line2d_15">
      <g>
       <use xlink:href="#me4b6716871" x="411.191488" y="640.3185" style="stroke: #000000; stroke-width: 0.6"/>
      </g>
     </g>
    </g>
    <g id="xtick_16">
     <g id="line2d_16">
      <g>
       <use xlink:href="#me4b6716871" x="469.823215" y="640.3185" style="stroke: #000000; stroke-width: 0.6"/>
      </g>
     </g>
    </g>
    <g id="xtick_17">
     <g id="line2d_17">
      <g>
       <use xlink:href="#me4b6716871" x="499.139078" y="640.3185" style="stroke: #000000; stroke-width: 0.6"/>
      </g>
     </g>
    </g>
    <g id="xtick_18">
     <g id="line2d_18">
      <g>
       <use xlink:href="#me4b6716871" x="528.454941" y="640.3185" style="stroke: #000000; stroke-width: 0.6"/>
      </g>
     </g>
    </g>
    <g id="xtick_19">
     <g id="line2d_19">
      <g>
       <use xlink:href="#me4b6716871" x="587.086667" y="640.3185" style="stroke: #000000; stroke-width: 0.6"/>
      </g>
     </g>
    </g>
    <g id="xtick_20">
     <g id="line2d_20">
      <g>
       <use xlink:href="#me4b6716871" x="616.40253" y="640.3185" style="stroke: #000000; stroke-width: 0.6"/>
      </g>
     </g>
    </g>
    <g id="xtick_21">
     <g id="line2d_21">
      <g>
       <use xlink:href="#me4b6716871" x="645.718394" y="640.3185" style="stroke: #000000; stroke-width: 0.6"/>
      </g>
     </g>
    </g>
    <g id="text_7">
     <!-- Time ps -->
     <g transform="translate(329.099063 697.52475) scale(0.3 -0.3)">
      <defs>
       <path id="LiberationSans-54" d="M 2250 3916 
L 2250 0 
L 1656 0 
L 1656 3916 
L 144 3916 
L 144 4403 
L 3763 4403 
L 3763 3916 
L 2250 3916 
z
" transform="scale(0.015625)"/>
       <path id="LiberationSans-69" d="M 428 4100 
L 428 4638 
L 991 4638 
L 991 4100 
L 428 4100 
z
M 428 0 
L 428 3381 
L 991 3381 
L 991 0 
L 428 0 
z
" transform="scale(0.015625)"/>
       <path id="LiberationSans-6d" d="M 2400 0 
L 2400 2144 
Q 2400 2634 2265 2821 
Q 2131 3009 1781 3009 
Q 1422 3009 1212 2734 
Q 1003 2459 1003 1959 
L 1003 0 
L 444 0 
L 444 2659 
Q 444 3250 425 3381 
L 956 3381 
Q 959 3366 962 3297 
Q 966 3228 970 3139 
Q 975 3050 981 2803 
L 991 2803 
Q 1172 3163 1406 3303 
Q 1641 3444 1978 3444 
Q 2363 3444 2586 3291 
Q 2809 3138 2897 2803 
L 2906 2803 
Q 3081 3144 3329 3294 
Q 3578 3444 3931 3444 
Q 4444 3444 4676 3166 
Q 4909 2888 4909 2253 
L 4909 0 
L 4353 0 
L 4353 2144 
Q 4353 2634 4218 2821 
Q 4084 3009 3734 3009 
Q 3366 3009 3161 2736 
Q 2956 2463 2956 1959 
L 2956 0 
L 2400 0 
z
" transform="scale(0.015625)"/>
       <path id="LiberationSans-65" d="M 863 1572 
Q 863 991 1103 675 
Q 1344 359 1806 359 
Q 2172 359 2392 506 
Q 2613 653 2691 878 
L 3184 738 
Q 2881 -63 1806 -63 
Q 1056 -63 664 384 
Q 272 831 272 1713 
Q 272 2550 664 2997 
Q 1056 3444 1784 3444 
Q 3275 3444 3275 1647 
L 3275 1572 
L 863 1572 
z
M 2694 2003 
Q 2647 2538 2422 2783 
Q 2197 3028 1775 3028 
Q 1366 3028 1127 2754 
Q 888 2481 869 2003 
L 2694 2003 
z
" transform="scale(0.015625)"/>
       <path id="LiberationSans-20" transform="scale(0.015625)"/>
       <path id="LiberationSans-70" d="M 3291 1706 
Q 3291 -63 2047 -63 
Q 1266 -63 997 525 
L 981 525 
Q 994 500 994 -6 
L 994 -1328 
L 431 -1328 
L 431 2691 
Q 431 3213 413 3381 
L 956 3381 
Q 959 3369 965 3292 
Q 972 3216 980 3056 
Q 988 2897 988 2838 
L 1000 2838 
Q 1150 3150 1397 3295 
Q 1644 3441 2047 3441 
Q 2672 3441 2981 3022 
Q 3291 2603 3291 1706 
z
M 2700 1694 
Q 2700 2400 2509 2703 
Q 2319 3006 1903 3006 
Q 1569 3006 1380 2865 
Q 1191 2725 1092 2426 
Q 994 2128 994 1650 
Q 994 984 1206 668 
Q 1419 353 1897 353 
Q 2316 353 2508 661 
Q 2700 969 2700 1694 
z
" transform="scale(0.015625)"/>
       <path id="LiberationSans-73" d="M 2969 934 
Q 2969 456 2608 196 
Q 2247 -63 1597 -63 
Q 966 -63 623 145 
Q 281 353 178 794 
L 675 891 
Q 747 619 972 492 
Q 1197 366 1597 366 
Q 2025 366 2223 497 
Q 2422 628 2422 891 
Q 2422 1091 2284 1216 
Q 2147 1341 1841 1422 
L 1438 1528 
Q 953 1653 748 1773 
Q 544 1894 428 2066 
Q 313 2238 313 2488 
Q 313 2950 642 3192 
Q 972 3434 1603 3434 
Q 2163 3434 2492 3237 
Q 2822 3041 2909 2606 
L 2403 2544 
Q 2356 2769 2151 2889 
Q 1947 3009 1603 3009 
Q 1222 3009 1040 2893 
Q 859 2778 859 2544 
Q 859 2400 934 2306 
Q 1009 2213 1156 2147 
Q 1303 2081 1775 1966 
Q 2222 1853 2419 1758 
Q 2616 1663 2730 1547 
Q 2844 1431 2906 1279 
Q 2969 1128 2969 934 
z
" transform="scale(0.015625)"/>
      </defs>
      <use xlink:href="#LiberationSans-54"/>
      <use xlink:href="#LiberationSans-69" x="57.333984"/>
      <use xlink:href="#LiberationSans-6d" x="79.550781"/>
      <use xlink:href="#LiberationSans-65" x="162.851562"/>
      <use xlink:href="#LiberationSans-20" x="218.466797"/>
      <use xlink:href="#LiberationSans-70" x="246.25"/>
      <use xlink:href="#LiberationSans-73" x="301.865234"/>
     </g>
    </g>
   </g>
   <g id="matplotlib.axis_2">
    <g id="ytick_1">
     <g id="line2d_22">
      <defs>
       <path id="m92dcf32c06" d="M 0 0 
L 3.5 0 
" style="stroke: #000000; stroke-width: 0.8"/>
      </defs>
      <g>
       <use xlink:href="#m92dcf32c06" x="59.465625" y="612.994364" style="stroke: #000000; stroke-width: 0.8"/>
      </g>
     </g>
     <g id="text_8">
      <!-- $\mathdefault{0}$ -->
      <g transform="translate(39.165625 623.864676) scale(0.3 -0.3)">
       <use xlink:href="#LiberationSans-30" transform="translate(0 0.171875)"/>
      </g>
     </g>
    </g>
    <g id="ytick_2">
     <g id="line2d_23">
      <g>
       <use xlink:href="#m92dcf32c06" x="59.465625" y="512.968774" style="stroke: #000000; stroke-width: 0.8"/>
      </g>
     </g>
     <g id="text_9">
      <!-- $\mathdefault{1}$ -->
      <g transform="translate(39.165625 523.839086) scale(0.3 -0.3)">
       <use xlink:href="#LiberationSans-31" transform="translate(0 0.203125)"/>
      </g>
     </g>
    </g>
    <g id="ytick_3">
     <g id="line2d_24">
      <g>
       <use xlink:href="#m92dcf32c06" x="59.465625" y="412.943183" style="stroke: #000000; stroke-width: 0.8"/>
      </g>
     </g>
     <g id="text_10">
      <!-- $\mathdefault{2}$ -->
      <g transform="translate(39.165625 423.813496) scale(0.3 -0.3)">
       <use xlink:href="#LiberationSans-32" transform="translate(0 0.171875)"/>
      </g>
     </g>
    </g>
    <g id="ytick_4">
     <g id="line2d_25">
      <g>
       <use xlink:href="#m92dcf32c06" x="59.465625" y="312.917593" style="stroke: #000000; stroke-width: 0.8"/>
      </g>
     </g>
     <g id="text_11">
      <!-- $\mathdefault{3}$ -->
      <g transform="translate(39.165625 323.787906) scale(0.3 -0.3)">
       <defs>
        <path id="LiberationSans-33" d="M 3278 1216 
Q 3278 606 2890 271 
Q 2503 -63 1784 -63 
Q 1116 -63 717 239 
Q 319 541 244 1131 
L 825 1184 
Q 938 403 1784 403 
Q 2209 403 2451 612 
Q 2694 822 2694 1234 
Q 2694 1594 2417 1795 
Q 2141 1997 1619 1997 
L 1300 1997 
L 1300 2484 
L 1606 2484 
Q 2069 2484 2323 2686 
Q 2578 2888 2578 3244 
Q 2578 3597 2370 3801 
Q 2163 4006 1753 4006 
Q 1381 4006 1151 3815 
Q 922 3625 884 3278 
L 319 3322 
Q 381 3863 767 4166 
Q 1153 4469 1759 4469 
Q 2422 4469 2789 4161 
Q 3156 3853 3156 3303 
Q 3156 2881 2920 2617 
Q 2684 2353 2234 2259 
L 2234 2247 
Q 2728 2194 3003 1916 
Q 3278 1638 3278 1216 
z
" transform="scale(0.015625)"/>
       </defs>
       <use xlink:href="#LiberationSans-33" transform="translate(0 0.171875)"/>
      </g>
     </g>
    </g>
    <g id="ytick_5">
     <g id="line2d_26">
      <g>
       <use xlink:href="#m92dcf32c06" x="59.465625" y="212.892003" style="stroke: #000000; stroke-width: 0.8"/>
      </g>
     </g>
     <g id="text_12">
      <!-- $\mathdefault{4}$ -->
      <g transform="translate(39.165625 223.762316) scale(0.3 -0.3)">
       <use xlink:href="#LiberationSans-34" transform="translate(0 0.203125)"/>
      </g>
     </g>
    </g>
    <g id="ytick_6">
     <g id="line2d_27">
      <g>
       <use xlink:href="#m92dcf32c06" x="59.465625" y="112.866413" style="stroke: #000000; stroke-width: 0.8"/>
      </g>
     </g>
     <g id="text_13">
      <!-- $\mathdefault{5}$ -->
      <g transform="translate(39.165625 123.736726) scale(0.3 -0.3)">
       <defs>
        <path id="LiberationSans-35" d="M 3291 1434 
Q 3291 738 2877 337 
Q 2463 -63 1728 -63 
Q 1113 -63 734 206 
Q 356 475 256 984 
L 825 1050 
Q 1003 397 1741 397 
Q 2194 397 2450 670 
Q 2706 944 2706 1422 
Q 2706 1838 2448 2094 
Q 2191 2350 1753 2350 
Q 1525 2350 1328 2278 
Q 1131 2206 934 2034 
L 384 2034 
L 531 4403 
L 3034 4403 
L 3034 3925 
L 1044 3925 
L 959 2528 
Q 1325 2809 1869 2809 
Q 2519 2809 2905 2428 
Q 3291 2047 3291 1434 
z
" transform="scale(0.015625)"/>
       </defs>
       <use xlink:href="#LiberationSans-35" transform="translate(0 0.203125)"/>
      </g>
     </g>
    </g>
    <g id="ytick_7">
     <g id="line2d_28">
      <defs>
       <path id="m43262a100c" d="M 0 0 
L 2 0 
" style="stroke: #000000; stroke-width: 0.6"/>
      </defs>
      <g>
       <use xlink:href="#m43262a100c" x="59.465625" y="632.999482" style="stroke: #000000; stroke-width: 0.6"/>
      </g>
     </g>
    </g>
    <g id="ytick_8">
     <g id="line2d_29">
      <g>
       <use xlink:href="#m43262a100c" x="59.465625" y="592.989246" style="stroke: #000000; stroke-width: 0.6"/>
      </g>
     </g>
    </g>
    <g id="ytick_9">
     <g id="line2d_30">
      <g>
       <use xlink:href="#m43262a100c" x="59.465625" y="572.984128" style="stroke: #000000; stroke-width: 0.6"/>
      </g>
     </g>
    </g>
    <g id="ytick_10">
     <g id="line2d_31">
      <g>
       <use xlink:href="#m43262a100c" x="59.465625" y="552.97901" style="stroke: #000000; stroke-width: 0.6"/>
      </g>
     </g>
    </g>
    <g id="ytick_11">
     <g id="line2d_32">
      <g>
       <use xlink:href="#m43262a100c" x="59.465625" y="532.973892" style="stroke: #000000; stroke-width: 0.6"/>
      </g>
     </g>
    </g>
    <g id="ytick_12">
     <g id="line2d_33">
      <g>
       <use xlink:href="#m43262a100c" x="59.465625" y="492.963656" style="stroke: #000000; stroke-width: 0.6"/>
      </g>
     </g>
    </g>
    <g id="ytick_13">
     <g id="line2d_34">
      <g>
       <use xlink:href="#m43262a100c" x="59.465625" y="472.958538" style="stroke: #000000; stroke-width: 0.6"/>
      </g>
     </g>
    </g>
    <g id="ytick_14">
     <g id="line2d_35">
      <g>
       <use xlink:href="#m43262a100c" x="59.465625" y="452.95342" style="stroke: #000000; stroke-width: 0.6"/>
      </g>
     </g>
    </g>
    <g id="ytick_15">
     <g id="line2d_36">
      <g>
       <use xlink:href="#m43262a100c" x="59.465625" y="432.948302" style="stroke: #000000; stroke-width: 0.6"/>
      </g>
     </g>
    </g>
    <g id="ytick_16">
     <g id="line2d_37">
      <g>
       <use xlink:href="#m43262a100c" x="59.465625" y="392.938065" style="stroke: #000000; stroke-width: 0.6"/>
      </g>
     </g>
    </g>
    <g id="ytick_17">
     <g id="line2d_38">
      <g>
       <use xlink:href="#m43262a100c" x="59.465625" y="372.932947" style="stroke: #000000; stroke-width: 0.6"/>
      </g>
     </g>
    </g>
    <g id="ytick_18">
     <g id="line2d_39">
      <g>
       <use xlink:href="#m43262a100c" x="59.465625" y="352.927829" style="stroke: #000000; stroke-width: 0.6"/>
      </g>
     </g>
    </g>
    <g id="ytick_19">
     <g id="line2d_40">
      <g>
       <use xlink:href="#m43262a100c" x="59.465625" y="332.922711" style="stroke: #000000; stroke-width: 0.6"/>
      </g>
     </g>
    </g>
    <g id="ytick_20">
     <g id="line2d_41">
      <g>
       <use xlink:href="#m43262a100c" x="59.465625" y="292.912475" style="stroke: #000000; stroke-width: 0.6"/>
      </g>
     </g>
    </g>
    <g id="ytick_21">
     <g id="line2d_42">
      <g>
       <use xlink:href="#m43262a100c" x="59.465625" y="272.907357" style="stroke: #000000; stroke-width: 0.6"/>
      </g>
     </g>
    </g>
    <g id="ytick_22">
     <g id="line2d_43">
      <g>
       <use xlink:href="#m43262a100c" x="59.465625" y="252.902239" style="stroke: #000000; stroke-width: 0.6"/>
      </g>
     </g>
    </g>
    <g id="ytick_23">
     <g id="line2d_44">
      <g>
       <use xlink:href="#m43262a100c" x="59.465625" y="232.897121" style="stroke: #000000; stroke-width: 0.6"/>
      </g>
     </g>
    </g>
    <g id="ytick_24">
     <g id="line2d_45">
      <g>
       <use xlink:href="#m43262a100c" x="59.465625" y="192.886885" style="stroke: #000000; stroke-width: 0.6"/>
      </g>
     </g>
    </g>
    <g id="ytick_25">
     <g id="line2d_46">
      <g>
       <use xlink:href="#m43262a100c" x="59.465625" y="172.881767" style="stroke: #000000; stroke-width: 0.6"/>
      </g>
     </g>
    </g>
    <g id="ytick_26">
     <g id="line2d_47">
      <g>
       <use xlink:href="#m43262a100c" x="59.465625" y="152.876649" style="stroke: #000000; stroke-width: 0.6"/>
      </g>
     </g>
    </g>
    <g id="ytick_27">
     <g id="line2d_48">
      <g>
       <use xlink:href="#m43262a100c" x="59.465625" y="132.871531" style="stroke: #000000; stroke-width: 0.6"/>
      </g>
     </g>
    </g>
    <g id="ytick_28">
     <g id="line2d_49">
      <g>
       <use xlink:href="#m43262a100c" x="59.465625" y="92.861295" style="stroke: #000000; stroke-width: 0.6"/>
      </g>
     </g>
    </g>
    <g id="ytick_29">
     <g id="line2d_50">
      <g>
       <use xlink:href="#m43262a100c" x="59.465625" y="72.856177" style="stroke: #000000; stroke-width: 0.6"/>
      </g>
     </g>
    </g>
    <g id="ytick_30">
     <g id="line2d_51">
      <g>
       <use xlink:href="#m43262a100c" x="59.465625" y="52.851059" style="stroke: #000000; stroke-width: 0.6"/>
      </g>
     </g>
    </g>
    <g id="text_14">
     <!-- ITR $\mathrm{K} \cdot \mathrm{m}^2 / \mathrm{W}$ -->
     <g transform="translate(28.940625 423.753) rotate(-90) scale(0.3 -0.3)">
      <defs>
       <path id="LiberationSans-49" d="M 591 0 
L 591 4403 
L 1188 4403 
L 1188 0 
L 591 0 
z
" transform="scale(0.015625)"/>
       <path id="LiberationSans-52" d="M 3638 0 
L 2494 1828 
L 1122 1828 
L 1122 0 
L 525 0 
L 525 4403 
L 2597 4403 
Q 3341 4403 3745 4070 
Q 4150 3738 4150 3144 
Q 4150 2653 3864 2318 
Q 3578 1984 3075 1897 
L 4325 0 
L 3638 0 
z
M 3550 3138 
Q 3550 3522 3289 3723 
Q 3028 3925 2538 3925 
L 1122 3925 
L 1122 2300 
L 2563 2300 
Q 3034 2300 3292 2520 
Q 3550 2741 3550 3138 
z
" transform="scale(0.015625)"/>
       <path id="STIXGeneral-Regular-4b" d="M 4627 0 
L 2688 0 
L 2688 122 
L 2861 128 
Q 3130 134 3130 282 
Q 3130 397 2922 643 
Q 2714 890 2253 1370 
L 1613 2029 
L 1446 1894 
L 1446 710 
Q 1446 352 1548 253 
Q 1651 154 2016 122 
L 2016 0 
L 211 0 
L 211 122 
Q 589 141 691 262 
Q 794 384 794 800 
L 794 3514 
Q 794 3872 691 3981 
Q 589 4090 218 4115 
L 218 4237 
L 2022 4237 
L 2022 4115 
Q 1632 4090 1539 3987 
Q 1446 3885 1446 3507 
L 1446 2227 
L 2586 3277 
Q 2861 3533 2973 3667 
Q 3085 3802 3085 3910 
Q 3085 4013 3030 4057 
Q 2976 4102 2822 4109 
L 2662 4115 
L 2662 4237 
L 4320 4237 
L 4320 4115 
Q 3994 4090 3824 4003 
Q 3654 3917 3322 3597 
L 2131 2458 
L 3629 819 
Q 4026 384 4214 253 
Q 4403 122 4627 122 
L 4627 0 
z
" transform="scale(0.015625)"/>
       <path id="STIXGeneral-Regular-22c5" d="M 1187 1888 
Q 1299 1773 1299 1619 
Q 1299 1466 1187 1350 
Q 1075 1235 921 1235 
Q 768 1235 649 1353 
Q 531 1472 531 1619 
Q 531 1766 649 1884 
Q 768 2003 921 2003 
Q 1075 2003 1187 1888 
z
" transform="scale(0.015625)"/>
       <path id="STIXGeneral-Regular-6d" d="M 4960 0 
L 3565 0 
L 3565 96 
Q 3834 122 3907 208 
Q 3981 294 3981 576 
L 3981 1894 
Q 3981 2278 3869 2444 
Q 3757 2611 3488 2611 
Q 3264 2611 3107 2521 
Q 2950 2432 2803 2221 
L 2803 608 
Q 2803 301 2896 201 
Q 2989 102 3264 96 
L 3264 0 
L 1830 0 
L 1830 96 
Q 2112 115 2189 188 
Q 2266 262 2266 550 
L 2266 1901 
Q 2266 2611 1850 2611 
Q 1670 2611 1468 2531 
Q 1267 2451 1171 2336 
Q 1088 2240 1088 2227 
L 1088 448 
Q 1088 243 1177 176 
Q 1267 109 1523 96 
L 1523 0 
L 102 0 
L 102 96 
Q 371 102 460 195 
Q 550 288 550 563 
L 550 2150 
Q 550 2387 499 2480 
Q 448 2573 326 2573 
Q 230 2573 122 2547 
L 122 2656 
Q 557 2778 1011 2944 
L 1062 2925 
L 1062 2451 
L 1075 2451 
Q 1363 2752 1584 2848 
Q 1805 2944 2054 2944 
Q 2560 2944 2733 2406 
Q 3232 2944 3776 2944 
Q 4518 2944 4518 1792 
L 4518 493 
Q 4518 282 4582 202 
Q 4646 122 4794 109 
L 4960 96 
L 4960 0 
z
" transform="scale(0.015625)"/>
       <path id="STIXGeneral-Regular-32" d="M 3034 877 
L 2688 0 
L 186 0 
L 186 77 
L 1325 1286 
Q 1773 1754 1965 2144 
Q 2157 2534 2157 2950 
Q 2157 3379 1920 3616 
Q 1683 3853 1267 3853 
Q 922 3853 720 3673 
Q 518 3494 326 3021 
L 192 3053 
Q 301 3648 630 3987 
Q 960 4326 1523 4326 
Q 2054 4326 2380 4006 
Q 2707 3686 2707 3200 
Q 2707 2477 1888 1613 
L 832 486 
L 2330 486 
Q 2541 486 2665 569 
Q 2790 653 2944 915 
L 3034 877 
z
" transform="scale(0.015625)"/>
       <path id="STIXGeneral-Regular-2f" d="M 1837 4326 
L 378 -90 
L -58 -90 
L 1408 4326 
L 1837 4326 
z
" transform="scale(0.015625)"/>
       <path id="STIXGeneral-Regular-57" d="M 5965 4237 
L 5965 4115 
Q 5709 4064 5616 3990 
Q 5523 3917 5434 3667 
Q 4704 1709 4128 -70 
L 4032 -70 
Q 3642 1011 3008 2637 
L 2022 -70 
L 1926 -70 
Q 1709 576 1277 1753 
Q 845 2931 698 3347 
Q 538 3808 406 3958 
Q 275 4109 32 4115 
L 32 4237 
L 1594 4237 
L 1594 4115 
Q 1357 4109 1270 4064 
Q 1184 4019 1184 3917 
Q 1184 3808 1254 3616 
L 2176 1210 
L 2842 3021 
L 2662 3501 
Q 2509 3917 2400 4013 
Q 2291 4109 2010 4115 
L 2010 4237 
L 3706 4237 
L 3706 4115 
Q 3213 4102 3213 3891 
Q 3213 3808 3322 3520 
L 4237 1190 
L 5043 3360 
Q 5152 3667 5152 3853 
Q 5152 4109 4704 4115 
L 4704 4237 
L 5965 4237 
z
" transform="scale(0.015625)"/>
      </defs>
      <use xlink:href="#LiberationSans-49" transform="translate(0 0.409375)"/>
      <use xlink:href="#LiberationSans-54" transform="translate(27.783203 0.409375)"/>
      <use xlink:href="#LiberationSans-52" transform="translate(88.867188 0.409375)"/>
      <use xlink:href="#LiberationSans-20" transform="translate(161.083984 0.409375)"/>
      <use xlink:href="#STIXGeneral-Regular-4b" transform="translate(188.867188 0.409375)"/>
      <use xlink:href="#STIXGeneral-Regular-22c5" transform="translate(275.507166 0.409375)"/>
      <use xlink:href="#STIXGeneral-Regular-6d" transform="translate(318.547153 0.409375)"/>
      <use xlink:href="#STIXGeneral-Regular-32" transform="translate(397.890422 35.684375) scale(0.7)"/>
      <use xlink:href="#STIXGeneral-Regular-2f" transform="translate(437.299786 0.409375)"/>
      <use xlink:href="#STIXGeneral-Regular-57" transform="translate(465.099774 0.409375)"/>
     </g>
    </g>
    <g id="text_15">
     <!-- $\times\mathdefault{10^{−7}}\mathdefault{}$ -->
     <g transform="translate(59.465625 36.1875) scale(0.4 -0.4)">
      <defs>
       <path id="STIXGeneral-Regular-d7" d="M 3821 141 
L 3526 -160 
L 2048 1312 
L 570 -160 
L 275 134 
L 1747 1613 
L 275 3091 
L 576 3386 
L 2048 1914 
L 3526 3386 
L 3821 3098 
L 2349 1613 
L 3821 141 
z
" transform="scale(0.015625)"/>
       <path id="LiberationSans-2212" d="M 316 1900 
L 316 2356 
L 3425 2356 
L 3425 1900 
L 316 1900 
z
" transform="scale(0.015625)"/>
       <path id="LiberationSans-37" d="M 3238 3947 
Q 2563 2916 2284 2331 
Q 2006 1747 1867 1178 
Q 1728 609 1728 0 
L 1141 0 
Q 1141 844 1498 1776 
Q 1856 2709 2694 3925 
L 328 3925 
L 328 4403 
L 3238 4403 
L 3238 3947 
z
" transform="scale(0.015625)"/>
      </defs>
      <use xlink:href="#STIXGeneral-Regular-d7" transform="translate(0 0.8625)"/>
      <use xlink:href="#LiberationSans-31" transform="translate(63.999985 0.8625)"/>
      <use xlink:href="#LiberationSans-30" transform="translate(119.615219 0.8625)"/>
      <use xlink:href="#LiberationSans-2212" transform="translate(176.154946 37.842188) scale(0.7)"/>
      <use xlink:href="#LiberationSans-37" transform="translate(217.033852 37.842188) scale(0.7)"/>
     </g>
    </g>
   </g>
   <g id="line2d_52">
    <path d="M 88.775625 612.994364 
L 88.834257 123.853563 
L 88.892888 368.288691 
L 89.068784 514.732682 
L 89.303311 557.839117 
L 89.596469 576.781071 
L 89.94826 586.682635 
L 90.358682 592.307164 
L 90.769104 595.261565 
L 91.179526 596.864771 
L 91.589948 597.654588 
L 91.941738 597.880262 
L 92.234897 597.818006 
L 92.586687 597.488802 
L 93.055741 596.674546 
L 93.642058 595.142711 
L 94.462902 592.292316 
L 96.339118 585.564679 
L 97.159962 583.530054 
L 98.156701 581.658846 
L 99.563863 579.494851 
L 100.384707 578.566383 
L 101.029656 578.141287 
L 101.615973 578.013073 
L 102.260922 578.106884 
L 104.723455 578.735424 
L 105.427035 578.548659 
L 106.189248 578.110095 
L 107.127355 577.303065 
L 108.475885 575.820611 
L 110.293469 573.477549 
L 112.228316 570.610102 
L 114.690848 566.940033 
L 115.335797 566.350688 
L 115.804851 566.173682 
L 116.215273 566.246786 
L 116.625695 566.564579 
L 117.094749 567.241837 
L 117.681066 568.524197 
L 118.619174 571.239453 
L 119.967703 575.051715 
L 120.612652 576.280591 
L 121.140338 576.870618 
L 121.55076 577.055623 
L 121.961182 577.005132 
L 122.430236 576.679857 
L 123.016553 575.935419 
L 123.896029 574.380936 
L 125.185927 572.162695 
L 125.889508 571.375288 
L 126.65172 570.858427 
L 128.234777 569.912113 
L 129.114253 569.021167 
L 130.404151 567.685972 
L 130.931836 567.462593 
L 131.342258 567.520205 
L 131.75268 567.799122 
L 132.280366 568.456827 
L 133.10121 569.920707 
L 134.391108 572.195378 
L 135.036057 572.904464 
L 135.563743 573.190786 
L 136.091428 573.218948 
L 136.677745 572.991225 
L 137.439958 572.408567 
L 140.312912 569.6366 
L 143.361762 566.886683 
L 143.948079 566.710188 
L 144.534397 566.773848 
L 145.120714 567.067259 
L 145.941558 567.756116 
L 148.110932 569.715384 
L 149.107671 570.26132 
L 150.163042 570.581059 
L 151.042518 570.632069 
L 151.804731 570.453504 
L 152.508312 570.04386 
L 153.211892 569.370789 
L 154.15 568.124932 
L 155.85032 565.815892 
L 156.495269 565.340443 
L 157.022954 565.20697 
L 157.55064 565.28945 
L 158.254221 565.647004 
L 161.009912 567.30885 
L 163.237917 568.321529 
L 164.938238 569.182285 
L 165.641818 569.27721 
L 166.286767 569.127786 
L 166.931716 568.740752 
L 167.75256 567.968491 
L 169.863303 565.837116 
L 170.566883 565.48387 
L 171.270464 565.37148 
L 172.091308 565.477237 
L 173.263943 565.878277 
L 175.433317 566.899992 
L 176.723215 567.403257 
L 177.544059 567.492888 
L 178.247639 567.35187 
L 179.009852 566.958486 
L 180.006591 566.152107 
L 182.175965 564.312465 
L 183.583127 563.517836 
L 186.925135 561.902256 
L 187.511452 561.974016 
L 188.097769 562.273173 
L 188.80135 562.90486 
L 190.14988 564.522442 
L 191.205251 565.616636 
L 192.026095 566.148526 
L 192.788308 566.383785 
L 193.726415 566.426825 
L 195.426735 566.225485 
L 197.185687 565.835901 
L 198.827375 565.20872 
L 200.527695 564.625442 
L 202.228015 564.335616 
L 203.693809 563.998198 
L 207.15308 563.009942 
L 210.143299 562.642622 
L 211.726355 562.345992 
L 212.488568 562.441505 
L 213.25078 562.778096 
L 214.247519 563.509026 
L 215.947839 564.790282 
L 216.827315 565.14986 
L 217.706791 565.263469 
L 218.996689 565.173878 
L 221.341958 564.7966 
L 222.280066 564.407363 
L 223.159542 563.797981 
L 224.332176 562.683888 
L 225.856601 561.28494 
L 226.618814 560.873257 
L 227.322394 560.729318 
L 228.084607 560.800166 
L 229.139978 561.144685 
L 234.534097 563.20273 
L 235.472204 563.245972 
L 236.35168 563.064963 
L 237.34842 562.622364 
L 239.341898 561.403349 
L 240.573165 560.804246 
L 241.511272 560.591614 
L 242.332116 560.637055 
L 243.15296 560.911556 
L 244.1497 561.49813 
L 246.612232 563.07366 
L 247.55034 563.335893 
L 248.547079 563.362228 
L 250.188768 563.124758 
L 252.768564 562.584712 
L 253.765303 562.113239 
L 255.055201 561.223904 
L 256.403731 560.349413 
L 257.224575 560.086615 
L 257.986787 560.088349 
L 258.924895 560.346853 
L 261.387427 561.151251 
L 263.322274 561.366942 
L 265.257121 561.714698 
L 266.722914 561.891643 
L 267.778286 561.790457 
L 269.068184 561.424272 
L 271.882506 560.561804 
L 273.524195 560.339875 
L 275.517673 560.310772 
L 280.384107 560.551763 
L 282.436217 561.007923 
L 283.608852 561.144754 
L 284.546959 561.026905 
L 285.543699 560.662902 
L 288.65118 559.327772 
L 290.058342 559.138157 
L 292.638138 558.800535 
L 294.045299 558.688971 
L 295.042038 558.832357 
L 296.273305 559.261787 
L 297.973625 559.846022 
L 298.911732 559.913756 
L 299.791208 559.754228 
L 300.846579 559.326758 
L 305.126695 557.320131 
L 306.357961 557.145953 
L 307.706491 557.185928 
L 309.582706 557.479025 
L 311.458922 557.977996 
L 313.4524 558.7706 
L 314.918194 559.254476 
L 315.856301 559.32533 
L 316.735777 559.157245 
L 317.732516 558.722512 
L 320.370944 557.425223 
L 321.426315 557.24836 
L 322.892108 557.267194 
L 326.35138 557.570894 
L 329.458862 558.015541 
L 330.396969 557.837092 
L 331.335077 557.424148 
L 332.507711 556.644042 
L 335.028876 554.878754 
L 335.908352 554.566607 
L 336.670564 554.52012 
L 337.432776 554.690874 
L 338.370884 555.150557 
L 341.771524 557.082435 
L 342.826895 557.282368 
L 343.99953 557.273437 
L 345.230796 557.037746 
L 346.286167 556.615057 
L 347.341538 555.946369 
L 348.924595 554.622266 
L 350.097229 553.777694 
L 350.859442 553.499376 
L 351.504391 553.490624 
L 352.207971 553.71757 
L 353.087447 554.27458 
L 356.722614 556.917137 
L 357.836617 557.304203 
L 358.774725 557.404662 
L 359.595569 557.279872 
L 360.416413 556.920885 
L 361.295889 556.271399 
L 362.468524 555.090363 
L 364.110212 553.466751 
L 364.872424 553.016512 
L 365.517373 552.873185 
L 366.162322 552.958577 
L 366.865903 553.286377 
L 367.804011 554.001463 
L 370.911492 556.604491 
L 371.790968 556.972556 
L 372.611812 557.086454 
L 373.432656 556.976846 
L 374.312132 556.630616 
L 375.367503 555.954923 
L 376.774665 554.758326 
L 379.237197 552.637342 
L 380.175305 552.128112 
L 380.996149 551.931492 
L 381.758362 551.983306 
L 382.579206 552.278612 
L 383.634577 552.930681 
L 386.859322 555.113597 
L 388.266483 555.690987 
L 389.556381 555.98458 
L 390.55312 555.991633 
L 391.432596 555.772448 
L 392.312072 555.316564 
L 393.484707 554.427838 
L 394.9505 553.356276 
L 395.712712 553.080324 
L 396.357661 553.078485 
L 397.061242 553.319501 
L 397.940718 553.895685 
L 400.696409 555.905054 
L 401.693149 556.250352 
L 402.689888 556.359296 
L 403.803891 556.251664 
L 405.035157 555.896576 
L 406.559582 555.199589 
L 408.318534 554.426783 
L 409.256641 554.259837 
L 410.136117 554.335849 
L 411.132856 554.66741 
L 413.009072 555.608049 
L 414.416233 556.184117 
L 415.530236 556.411006 
L 416.585607 556.407877 
L 417.758242 556.177531 
L 420.103511 555.403299 
L 421.862462 554.984678 
L 425.790788 554.385221 
L 426.904791 554.444716 
L 428.136057 554.742617 
L 430.188168 555.264158 
L 431.184907 555.257898 
L 432.240278 555.012037 
L 434.057861 554.291639 
L 435.582286 553.805297 
L 436.930816 553.62036 
L 438.396609 553.650511 
L 439.862402 553.897232 
L 441.973145 554.521306 
L 443.614833 554.897615 
L 445.021994 554.976099 
L 446.722314 554.836732 
L 448.481266 554.476224 
L 451.764643 553.678917 
L 452.820014 553.754885 
L 454.05128 554.0888 
L 456.982866 555.21909 
L 459.034977 555.889731 
L 460.14898 556.027034 
L 461.087087 555.917175 
L 462.025195 555.574961 
L 463.197829 554.884307 
L 465.425835 553.516341 
L 466.363943 553.224339 
L 467.30205 553.165744 
L 468.416053 553.330063 
L 473.39975 554.355029 
L 474.806911 554.311122 
L 476.214073 554.026631 
L 479.380186 553.265503 
L 480.728716 553.250676 
L 482.604931 553.47593 
L 487.99905 554.235831 
L 489.171684 554.057027 
L 490.461582 553.631669 
L 492.161902 552.819353 
L 495.855701 550.962969 
L 496.793809 550.824192 
L 497.673285 550.928419 
L 498.728656 551.296886 
L 501.073925 552.199164 
L 502.070664 552.29862 
L 503.126035 552.166289 
L 504.65046 551.708156 
L 506.233517 551.30177 
L 507.288888 551.270398 
L 508.461522 551.473985 
L 511.979426 552.234895 
L 514.031536 552.65613 
L 516.435437 553.200426 
L 517.432176 553.160961 
L 518.428916 552.885001 
L 519.660182 552.288323 
L 522.29861 550.945466 
L 523.647139 550.563301 
L 525.523355 550.28644 
L 527.165043 550.225981 
L 528.279046 550.396997 
L 529.393048 550.798315 
L 533.086847 552.373956 
L 533.966323 552.389906 
L 534.845799 552.188462 
L 535.842538 551.720684 
L 537.308332 550.741577 
L 539.125915 549.569161 
L 540.181286 549.139716 
L 541.119394 548.981697 
L 541.99887 549.046401 
L 542.936977 549.348764 
L 543.992348 549.942778 
L 547.275725 552.014381 
L 548.155201 552.204144 
L 549.034677 552.164942 
L 549.972784 551.897153 
L 551.145419 551.312298 
L 555.073745 549.118986 
L 555.953221 549.005511 
L 556.832696 549.10958 
L 557.888067 549.469249 
L 560.057441 550.530288 
L 561.640498 551.153598 
L 562.871764 551.404579 
L 564.10303 551.4249 
L 565.510192 551.214911 
L 567.386407 550.693383 
L 569.438518 549.886005 
L 571.256101 549.219668 
L 572.135577 549.127298 
L 572.956421 549.270341 
L 573.777265 549.642773 
L 574.9499 550.452066 
L 576.591588 551.558945 
L 577.471064 551.872215 
L 578.233277 551.919622 
L 579.054121 551.75336 
L 580.226755 551.254885 
L 582.220234 550.389767 
L 583.275605 550.187927 
L 584.44824 550.195929 
L 586.265823 550.46926 
L 591.308152 551.289746 
L 592.539418 551.221279 
L 593.712052 550.932518 
L 595.295109 550.284464 
L 597.288588 549.496801 
L 598.343959 549.310122 
L 599.282066 549.357895 
L 600.220174 549.625786 
L 601.275545 550.166354 
L 602.79997 551.233585 
L 604.969344 552.729979 
L 606.141978 553.272259 
L 607.197349 553.524766 
L 608.194089 553.543105 
L 609.24946 553.336542 
L 610.480726 552.853403 
L 613.881366 551.355408 
L 614.878105 551.237767 
L 615.874845 551.347333 
L 616.988848 551.703584 
L 620.682646 553.103081 
L 621.796649 553.16149 
L 623.262442 552.994233 
L 627.894349 552.344905 
L 630.239618 552.13333 
L 631.412252 552.265695 
L 634.871524 552.877445 
L 635.751 552.64736 
L 636.747739 552.135128 
L 640.207011 550.100159 
L 641.203751 549.918893 
L 642.259122 549.962746 
L 643.607651 550.259907 
L 648.884507 551.667989 
L 650.291668 551.677146 
L 651.816093 551.457788 
L 653.39915 550.999739 
L 656.975685 549.836814 
L 657.972424 549.813835 
L 658.969164 550.016904 
L 660.083167 550.492691 
L 662.018013 551.63905 
L 663.24928 552.23235 
L 664.187387 552.443972 
L 665.066863 552.412349 
L 666.063603 552.142492 
L 669.346979 551.043258 
L 670.343719 551.077856 
L 671.457721 551.361205 
L 673.509832 552.187192 
L 674.975625 552.683893 
L 674.975625 552.683893 
" clip-path="url(#p1b0747b863)" style="fill: none; stroke: #ff0000; stroke-width: 1.5; stroke-linecap: square"/>
   </g>
   <g id="line2d_53">
    <path d="M 88.775625 612.994364 
L 88.834257 66.511636 
L 88.892888 339.156599 
L 89.068784 502.736739 
L 89.303311 550.884911 
L 89.596469 572.019659 
L 89.94826 583.0504 
L 90.358682 589.303384 
L 90.769104 592.575377 
L 91.179526 594.335959 
L 91.589948 595.183173 
L 91.883106 595.3915 
L 92.176265 595.336763 
L 92.528055 594.975313 
L 92.938478 594.200681 
L 93.524795 592.542485 
L 94.404271 589.229856 
L 95.7528 584.168899 
L 96.456381 582.372542 
L 97.10133 581.28125 
L 97.980806 580.267911 
L 101.088288 577.250114 
L 101.791868 576.947594 
L 102.612712 576.853275 
L 105.368404 576.79115 
L 106.716933 576.313608 
L 108.358622 575.810422 
L 109.64852 575.359613 
L 110.469364 574.83493 
L 111.34884 573.995677 
L 112.521474 572.531006 
L 114.397689 570.154593 
L 115.10127 569.637622 
L 115.628956 569.509091 
L 116.098009 569.61236 
L 116.625695 569.97376 
L 117.270644 570.71263 
L 118.326015 572.341007 
L 119.557281 574.134999 
L 120.20223 574.720588 
L 120.729916 574.93239 
L 121.19897 574.902627 
L 121.726655 574.626218 
L 122.312972 574.043254 
L 123.133817 572.857306 
L 125.068664 569.90339 
L 125.772244 569.298037 
L 126.358562 569.062414 
L 127.062142 569.029151 
L 130.228256 569.207689 
L 131.40089 569.215152 
L 132.338998 569.450209 
L 133.394369 569.958425 
L 136.208692 571.449734 
L 137.146799 571.610291 
L 138.20217 571.548887 
L 139.609332 571.224236 
L 141.368284 570.568709 
L 143.479026 569.800956 
L 144.534397 569.67458 
L 145.531136 569.776624 
L 146.586507 570.109775 
L 149.635357 571.237054 
L 150.690728 571.273681 
L 152.097889 571.073605 
L 154.560422 570.715894 
L 156.612532 570.702667 
L 159.778646 570.665244 
L 163.472444 570.541345 
L 165.055501 570.785733 
L 168.807931 571.494503 
L 170.44962 571.476165 
L 181.472384 570.651674 
L 183.759022 570.351747 
L 184.931656 570.449932 
L 186.397449 570.827721 
L 188.977245 571.514389 
L 190.50167 571.651477 
L 192.319254 571.573529 
L 195.895789 571.387421 
L 199.413693 571.279549 
L 203.459282 570.960047 
L 204.573285 571.21096 
L 206.097709 571.816854 
L 207.739398 572.419101 
L 208.853401 572.589851 
L 210.026035 572.541361 
L 211.90225 572.202647 
L 214.716573 571.741589 
L 217.941318 571.450035 
L 219.817533 571.48572 
L 221.811012 571.765965 
L 224.859862 572.205228 
L 227.087867 572.265004 
L 230.195349 572.103866 
L 238.872844 571.365355 
L 242.156221 571.098506 
L 243.387487 571.278856 
L 247.139918 572.025905 
L 248.781606 571.944218 
L 251.595929 571.800534 
L 255.993309 571.761133 
L 257.986787 571.43153 
L 261.680586 570.71893 
L 262.618694 570.845153 
L 263.615433 571.219683 
L 265.257121 572.142156 
L 266.547019 572.736829 
L 267.60239 572.987762 
L 268.892288 573.045894 
L 276.397149 572.755074 
L 281.615373 572.299534 
L 283.374325 572.580036 
L 286.481806 573.104121 
L 288.768444 573.16919 
L 292.403611 573.08595 
L 295.921514 572.629665 
L 299.028996 572.391784 
L 300.787947 572.454966 
L 302.488268 572.752473 
L 305.478486 573.317881 
L 307.061542 573.337313 
L 311.927975 573.216143 
L 314.331876 573.175111 
L 316.559882 572.891405 
L 319.608732 572.49064 
L 320.89863 572.573999 
L 322.129896 572.885172 
L 324.357901 573.755439 
L 325.882326 574.195453 
L 327.230856 574.349311 
L 328.813913 574.292669 
L 330.983287 573.965207 
L 333.738978 573.588893 
L 337.55004 573.401829 
L 339.60215 573.458949 
L 341.830156 573.773092 
L 344.468584 574.096379 
L 346.227535 574.077212 
L 348.221014 573.81004 
L 351.621654 573.319408 
L 353.732396 573.281254 
L 362.292628 573.589039 
L 365.341478 573.998913 
L 367.393589 574.003597 
L 371.673705 573.726746 
L 373.784447 573.338084 
L 376.481506 572.854682 
L 378.005931 572.82798 
L 379.413092 573.031443 
L 380.937517 573.498945 
L 384.279526 574.620407 
L 385.803951 574.817311 
L 387.797429 574.831916 
L 390.377225 574.613761 
L 394.9505 574.213225 
L 397.647559 574.123063 
L 399.406511 574.310764 
L 404.097049 574.960825 
L 405.973265 574.860804 
L 412.305491 574.350777 
L 414.533497 574.447652 
L 424.031836 575.009724 
L 426.318474 574.92107 
L 430.715853 574.702477 
L 432.943859 574.515885 
L 435.230496 574.062142 
L 436.872184 573.82734 
L 437.986187 573.886422 
L 439.158822 574.184391 
L 443.145779 575.444789 
L 444.435677 575.452642 
L 446.487787 575.204152 
L 449.595269 574.862462 
L 456.74834 574.517728 
L 458.507291 574.737424 
L 461.8493 575.227713 
L 463.490988 575.174886 
L 467.477945 574.923296 
L 474.220594 574.922323 
L 477.445339 574.709397 
L 478.793869 574.898534 
L 480.728716 575.4343 
L 482.604931 575.872274 
L 483.894829 575.944124 
L 485.360622 575.78656 
L 490.227055 575.097737 
L 493.627695 574.604866 
L 496.383387 574.219119 
L 497.556021 574.288038 
L 498.728656 574.577723 
L 502.774245 575.820466 
L 504.064143 575.830193 
L 505.99899 575.59164 
L 508.989208 575.243357 
L 512.507111 575.153044 
L 515.438698 575.179376 
L 517.959862 575.468912 
L 520.774185 575.762243 
L 522.591768 575.699821 
L 527.106411 575.426776 
L 530.096629 575.328575 
L 532.441898 574.970778 
L 534.728536 574.683055 
L 536.370224 574.704529 
L 538.480966 574.980275 
L 541.529816 575.370268 
L 543.581926 575.37697 
L 550.969524 574.958997 
L 554.311532 574.592312 
L 555.60143 574.718564 
L 556.94996 575.08638 
L 560.467863 576.180365 
L 562.05092 576.352208 
L 563.75124 576.312792 
L 565.861982 576.022686 
L 570.20073 575.385869 
L 572.428736 575.257427 
L 573.953161 575.390862 
L 575.946639 575.824705 
L 578.057381 576.225998 
L 579.581806 576.267572 
L 585.034557 576.167469 
L 587.672984 576.067227 
L 592.246259 575.644418 
L 594.357001 575.536154 
L 596.174585 575.690909 
L 599.340698 575.987442 
L 608.369984 576.12491 
L 611.242938 575.660433 
L 613.588208 575.341413 
L 614.760842 575.411899 
L 615.933477 575.708954 
L 619.216853 576.698812 
L 620.506751 576.743556 
L 622.441598 576.544907 
L 624.786867 576.366429 
L 636.044159 576.273586 
L 642.493649 576.510722 
L 651.757461 576.082906 
L 653.39915 576.102867 
L 654.923575 576.362322 
L 657.679266 576.880397 
L 659.086427 576.863189 
L 663.95286 576.566244 
L 666.825815 576.57046 
L 669.171084 576.306911 
L 671.633617 576.067263 
L 672.864883 576.173837 
L 674.154781 576.525173 
L 674.975625 576.832518 
L 674.975625 576.832518 
" clip-path="url(#p1b0747b863)" style="fill: none; stroke: #0000ff; stroke-width: 1.5; stroke-linecap: square"/>
   </g>
   <g id="patch_3">
    <path d="M 59.465625 640.3185 
L 59.465625 39.1875 
" style="fill: none; stroke: #000000; stroke-width: 0.8; stroke-linejoin: miter; stroke-linecap: square"/>
   </g>
   <g id="patch_4">
    <path d="M 704.285625 640.3185 
L 704.285625 39.1875 
" style="fill: none; stroke: #000000; stroke-width: 0.8; stroke-linejoin: miter; stroke-linecap: square"/>
   </g>
   <g id="patch_5">
    <path d="M 59.465625 640.3185 
L 704.285625 640.3185 
" style="fill: none; stroke: #000000; stroke-width: 0.8; stroke-linejoin: miter; stroke-linecap: square"/>
   </g>
   <g id="patch_6">
    <path d="M 59.465625 39.1875 
L 704.285625 39.1875 
" style="fill: none; stroke: #000000; stroke-width: 0.8; stroke-linejoin: miter; stroke-linecap: square"/>
   </g>
   <g id="legend_1">
    <g id="patch_7">
     <path d="M 507.274688 149.11875 
L 683.285625 149.11875 
Q 689.285625 149.11875 689.285625 143.11875 
L 689.285625 60.1875 
Q 689.285625 54.1875 683.285625 54.1875 
L 507.274688 54.1875 
Q 501.274688 54.1875 501.274688 60.1875 
L 501.274688 143.11875 
Q 501.274688 149.11875 507.274688 149.11875 
z
" style="fill: #ffffff; opacity: 0.8; stroke: #cccccc; stroke-linejoin: miter"/>
    </g>
    <g id="line2d_54">
     <path d="M 513.274688 77.428125 
L 543.274688 77.428125 
L 573.274688 77.428125 
" style="fill: none; stroke: #ff0000; stroke-width: 1.5; stroke-linecap: square"/>
    </g>
    <g id="text_16">
     <!-- MD -->
     <g transform="translate(597.274688 87.928125) scale(0.3 -0.3)">
      <defs>
       <path id="LiberationSans-4d" d="M 4269 0 
L 4269 2938 
Q 4269 3425 4297 3875 
Q 4144 3316 4022 3000 
L 2884 0 
L 2466 0 
L 1313 3000 
L 1138 3531 
L 1034 3875 
L 1044 3528 
L 1056 2938 
L 1056 0 
L 525 0 
L 525 4403 
L 1309 4403 
L 2481 1350 
Q 2544 1166 2601 955 
Q 2659 744 2678 650 
Q 2703 775 2783 1029 
Q 2863 1284 2891 1350 
L 4041 4403 
L 4806 4403 
L 4806 0 
L 4269 0 
z
" transform="scale(0.015625)"/>
       <path id="LiberationSans-44" d="M 4316 2247 
Q 4316 1566 4050 1055 
Q 3784 544 3296 272 
Q 2809 0 2172 0 
L 525 0 
L 525 4403 
L 1981 4403 
Q 3100 4403 3708 3842 
Q 4316 3281 4316 2247 
z
M 3716 2247 
Q 3716 3066 3267 3495 
Q 2819 3925 1969 3925 
L 1122 3925 
L 1122 478 
L 2103 478 
Q 2588 478 2955 690 
Q 3322 903 3519 1303 
Q 3716 1703 3716 2247 
z
" transform="scale(0.015625)"/>
      </defs>
      <use xlink:href="#LiberationSans-4d"/>
      <use xlink:href="#LiberationSans-44" x="83.300781"/>
     </g>
    </g>
    <g id="line2d_55">
     <path d="M 513.274688 120.39375 
L 543.274688 120.39375 
L 573.274688 120.39375 
" style="fill: none; stroke: #0000ff; stroke-width: 1.5; stroke-linecap: square"/>
    </g>
    <g id="text_17">
     <!-- GANs -->
     <g transform="translate(597.274688 130.89375) scale(0.3 -0.3)">
      <defs>
       <path id="LiberationSans-47" d="M 322 2222 
Q 322 3294 897 3881 
Q 1472 4469 2513 4469 
Q 3244 4469 3700 4222 
Q 4156 3975 4403 3431 
L 3834 3263 
Q 3647 3638 3317 3809 
Q 2988 3981 2497 3981 
Q 1734 3981 1331 3520 
Q 928 3059 928 2222 
Q 928 1388 1356 905 
Q 1784 422 2541 422 
Q 2972 422 3345 553 
Q 3719 684 3950 909 
L 3950 1703 
L 2634 1703 
L 2634 2203 
L 4500 2203 
L 4500 684 
Q 4150 328 3642 132 
Q 3134 -63 2541 -63 
Q 1850 -63 1350 212 
Q 850 488 586 1005 
Q 322 1522 322 2222 
z
" transform="scale(0.015625)"/>
       <path id="LiberationSans-41" d="M 3647 0 
L 3144 1288 
L 1138 1288 
L 631 0 
L 13 0 
L 1809 4403 
L 2488 4403 
L 4256 0 
L 3647 0 
z
M 2141 3953 
L 2113 3866 
Q 2034 3606 1881 3200 
L 1319 1753 
L 2966 1753 
L 2400 3206 
Q 2313 3422 2225 3694 
L 2141 3953 
z
" transform="scale(0.015625)"/>
       <path id="LiberationSans-4e" d="M 3381 0 
L 1025 3750 
L 1041 3447 
L 1056 2925 
L 1056 0 
L 525 0 
L 525 4403 
L 1219 4403 
L 3600 628 
Q 3563 1241 3563 1516 
L 3563 4403 
L 4100 4403 
L 4100 0 
L 3381 0 
z
" transform="scale(0.015625)"/>
      </defs>
      <use xlink:href="#LiberationSans-47"/>
      <use xlink:href="#LiberationSans-41" x="77.783203"/>
      <use xlink:href="#LiberationSans-4e" x="144.482422"/>
      <use xlink:href="#LiberationSans-73" x="216.699219"/>
     </g>
    </g>
   </g>
  </g>
 </g>
 <defs>
  <clipPath id="p1b0747b863">
   <rect x="59.465625" y="39.1875" width="644.82" height="601.131"/>
  </clipPath>
 </defs>
</svg>
