<?xml version="1.0" encoding="utf-8" standalone="no"?>
<!DOCTYPE svg PUBLIC "-//W3C//DTD SVG 1.1//EN"
  "http://www.w3.org/Graphics/SVG/1.1/DTD/svg11.dtd">
<svg xmlns:xlink="http://www.w3.org/1999/xlink" width="710.556422pt" height="711.105187pt" viewBox="0 0 710.556422 711.105187" xmlns="http://www.w3.org/2000/svg" version="1.1">
 <metadata>
  <rdf:RDF xmlns:dc="http://purl.org/dc/elements/1.1/" xmlns:cc="http://creativecommons.org/ns#" xmlns:rdf="http://www.w3.org/1999/02/22-rdf-syntax-ns#">
   <cc:Work>
    <dc:type rdf:resource="http://purl.org/dc/dcmitype/StillImage"/>
    <dc:date>2025-02-02T18:18:46.084958</dc:date>
    <dc:format>image/svg+xml</dc:format>
    <dc:creator>
     <cc:Agent>
      <dc:title>Matplotlib v3.9.3, https://matplotlib.org/</dc:title>
     </cc:Agent>
    </dc:creator>
   </cc:Work>
  </rdf:RDF>
 </metadata>
 <defs>
  <style type="text/css">*{stroke-linejoin: round; stroke-linecap: butt}</style>
 </defs>
 <g id="figure_1">
  <g id="patch_1">
   <path d="M 0 711.105187 
L 710.556422 711.105187 
L 710.556422 0 
L 0 0 
z
" style="fill: #ffffff"/>
  </g>
  <g id="axes_1">
   <g id="patch_2">
    <path d="M 76.05 643.2705 
L 703.356422 643.2705 
L 703.356422 39.1875 
L 76.05 39.1875 
z
" style="fill: #ffffff"/>
   </g>
   <g id="matplotlib.axis_1">
    <g id="xtick_1">
     <g id="line2d_1">
      <defs>
       <path id="m6193f57367" d="M 0 0 
L 0 -3.5 
" style="stroke: #000000; stroke-width: 0.8"/>
      </defs>
      <g>
       <use xlink:href="#m6193f57367" x="104.506895" y="643.2705" style="stroke: #000000; stroke-width: 0.8"/>
      </g>
     </g>
     <g id="text_1">
      <!-- 0 -->
      <g transform="translate(96.999629 666.337062) scale(0.27 -0.27)">
       <defs>
        <path id="LiberationSans-30" d="M 3309 2203 
Q 3309 1100 2920 518 
Q 2531 -63 1772 -63 
Q 1013 -63 631 515 
Q 250 1094 250 2203 
Q 250 3338 620 3903 
Q 991 4469 1791 4469 
Q 2569 4469 2939 3897 
Q 3309 3325 3309 2203 
z
M 2738 2203 
Q 2738 3156 2517 3584 
Q 2297 4013 1791 4013 
Q 1272 4013 1045 3591 
Q 819 3169 819 2203 
Q 819 1266 1048 831 
Q 1278 397 1778 397 
Q 2275 397 2506 840 
Q 2738 1284 2738 2203 
z
" transform="scale(0.015625)"/>
       </defs>
       <use xlink:href="#LiberationSans-30"/>
      </g>
     </g>
    </g>
    <g id="xtick_2">
     <g id="line2d_2">
      <g>
       <use xlink:href="#m6193f57367" x="218.574014" y="643.2705" style="stroke: #000000; stroke-width: 0.8"/>
      </g>
     </g>
     <g id="text_2">
      <!-- 2 -->
      <g transform="translate(211.066749 666.337062) scale(0.27 -0.27)">
       <defs>
        <path id="LiberationSans-32" d="M 322 0 
L 322 397 
Q 481 763 711 1042 
Q 941 1322 1194 1548 
Q 1447 1775 1695 1969 
Q 1944 2163 2144 2356 
Q 2344 2550 2467 2762 
Q 2591 2975 2591 3244 
Q 2591 3606 2378 3806 
Q 2166 4006 1788 4006 
Q 1428 4006 1195 3811 
Q 963 3616 922 3263 
L 347 3316 
Q 409 3844 795 4156 
Q 1181 4469 1788 4469 
Q 2453 4469 2811 4155 
Q 3169 3841 3169 3263 
Q 3169 3006 3051 2753 
Q 2934 2500 2703 2247 
Q 2472 1994 1819 1463 
Q 1459 1169 1246 933 
Q 1034 697 941 478 
L 3238 478 
L 3238 0 
L 322 0 
z
" transform="scale(0.015625)"/>
       </defs>
       <use xlink:href="#LiberationSans-32"/>
      </g>
     </g>
    </g>
    <g id="xtick_3">
     <g id="line2d_3">
      <g>
       <use xlink:href="#m6193f57367" x="332.641134" y="643.2705" style="stroke: #000000; stroke-width: 0.8"/>
      </g>
     </g>
     <g id="text_3">
      <!-- 4 -->
      <g transform="translate(325.133869 666.337062) scale(0.27 -0.27)">
       <defs>
        <path id="LiberationSans-34" d="M 2753 997 
L 2753 0 
L 2222 0 
L 2222 997 
L 147 997 
L 147 1434 
L 2163 4403 
L 2753 4403 
L 2753 1441 
L 3372 1441 
L 3372 997 
L 2753 997 
z
M 2222 3769 
Q 2216 3750 2134 3603 
Q 2053 3456 2013 3397 
L 884 1734 
L 716 1503 
L 666 1441 
L 2222 1441 
L 2222 3769 
z
" transform="scale(0.015625)"/>
       </defs>
       <use xlink:href="#LiberationSans-34"/>
      </g>
     </g>
    </g>
    <g id="xtick_4">
     <g id="line2d_4">
      <g>
       <use xlink:href="#m6193f57367" x="446.708254" y="643.2705" style="stroke: #000000; stroke-width: 0.8"/>
      </g>
     </g>
     <g id="text_4">
      <!-- 6 -->
      <g transform="translate(439.200988 666.337062) scale(0.27 -0.27)">
       <defs>
        <path id="LiberationSans-36" d="M 3278 1441 
Q 3278 744 2900 340 
Q 2522 -63 1856 -63 
Q 1113 -63 719 490 
Q 325 1044 325 2100 
Q 325 3244 734 3856 
Q 1144 4469 1900 4469 
Q 2897 4469 3156 3572 
L 2619 3475 
Q 2453 4013 1894 4013 
Q 1413 4013 1148 3564 
Q 884 3116 884 2266 
Q 1038 2550 1316 2698 
Q 1594 2847 1953 2847 
Q 2563 2847 2920 2465 
Q 3278 2084 3278 1441 
z
M 2706 1416 
Q 2706 1894 2472 2153 
Q 2238 2413 1819 2413 
Q 1425 2413 1183 2183 
Q 941 1953 941 1550 
Q 941 1041 1192 716 
Q 1444 391 1838 391 
Q 2244 391 2475 664 
Q 2706 938 2706 1416 
z
" transform="scale(0.015625)"/>
       </defs>
       <use xlink:href="#LiberationSans-36"/>
      </g>
     </g>
    </g>
    <g id="xtick_5">
     <g id="line2d_5">
      <g>
       <use xlink:href="#m6193f57367" x="560.775374" y="643.2705" style="stroke: #000000; stroke-width: 0.8"/>
      </g>
     </g>
     <g id="text_5">
      <!-- 8 -->
      <g transform="translate(553.268108 666.337062) scale(0.27 -0.27)">
       <defs>
        <path id="LiberationSans-38" d="M 3281 1228 
Q 3281 619 2893 278 
Q 2506 -63 1781 -63 
Q 1075 -63 676 271 
Q 278 606 278 1222 
Q 278 1653 525 1947 
Q 772 2241 1156 2303 
L 1156 2316 
Q 797 2400 589 2681 
Q 381 2963 381 3341 
Q 381 3844 757 4156 
Q 1134 4469 1769 4469 
Q 2419 4469 2795 4162 
Q 3172 3856 3172 3334 
Q 3172 2956 2962 2675 
Q 2753 2394 2391 2322 
L 2391 2309 
Q 2813 2241 3047 1952 
Q 3281 1663 3281 1228 
z
M 2588 3303 
Q 2588 4050 1769 4050 
Q 1372 4050 1164 3862 
Q 956 3675 956 3303 
Q 956 2925 1170 2726 
Q 1384 2528 1775 2528 
Q 2172 2528 2380 2711 
Q 2588 2894 2588 3303 
z
M 2697 1281 
Q 2697 1691 2453 1898 
Q 2209 2106 1769 2106 
Q 1341 2106 1100 1882 
Q 859 1659 859 1269 
Q 859 359 1788 359 
Q 2247 359 2472 579 
Q 2697 800 2697 1281 
z
" transform="scale(0.015625)"/>
       </defs>
       <use xlink:href="#LiberationSans-38"/>
      </g>
     </g>
    </g>
    <g id="xtick_6">
     <g id="line2d_6">
      <g>
       <use xlink:href="#m6193f57367" x="674.842494" y="643.2705" style="stroke: #000000; stroke-width: 0.8"/>
      </g>
     </g>
     <g id="text_6">
      <!-- 10 -->
      <g transform="translate(659.827962 666.337062) scale(0.27 -0.27)">
       <defs>
        <path id="LiberationSans-31" d="M 488 0 
L 488 478 
L 1609 478 
L 1609 3866 
L 616 3156 
L 616 3688 
L 1656 4403 
L 2175 4403 
L 2175 478 
L 3247 478 
L 3247 0 
L 488 0 
z
" transform="scale(0.015625)"/>
       </defs>
       <use xlink:href="#LiberationSans-31"/>
       <use xlink:href="#LiberationSans-30" x="55.615234"/>
      </g>
     </g>
    </g>
    <g id="xtick_7">
     <g id="line2d_7">
      <defs>
       <path id="m41b6228ab3" d="M 0 0 
L 0 -2 
" style="stroke: #000000; stroke-width: 0.6"/>
      </defs>
      <g>
       <use xlink:href="#m41b6228ab3" x="133.023675" y="643.2705" style="stroke: #000000; stroke-width: 0.6"/>
      </g>
     </g>
    </g>
    <g id="xtick_8">
     <g id="line2d_8">
      <g>
       <use xlink:href="#m41b6228ab3" x="161.540455" y="643.2705" style="stroke: #000000; stroke-width: 0.6"/>
      </g>
     </g>
    </g>
    <g id="xtick_9">
     <g id="line2d_9">
      <g>
       <use xlink:href="#m41b6228ab3" x="190.057235" y="643.2705" style="stroke: #000000; stroke-width: 0.6"/>
      </g>
     </g>
    </g>
    <g id="xtick_10">
     <g id="line2d_10">
      <g>
       <use xlink:href="#m41b6228ab3" x="247.090794" y="643.2705" style="stroke: #000000; stroke-width: 0.6"/>
      </g>
     </g>
    </g>
    <g id="xtick_11">
     <g id="line2d_11">
      <g>
       <use xlink:href="#m41b6228ab3" x="275.607574" y="643.2705" style="stroke: #000000; stroke-width: 0.6"/>
      </g>
     </g>
    </g>
    <g id="xtick_12">
     <g id="line2d_12">
      <g>
       <use xlink:href="#m41b6228ab3" x="304.124354" y="643.2705" style="stroke: #000000; stroke-width: 0.6"/>
      </g>
     </g>
    </g>
    <g id="xtick_13">
     <g id="line2d_13">
      <g>
       <use xlink:href="#m41b6228ab3" x="361.157914" y="643.2705" style="stroke: #000000; stroke-width: 0.6"/>
      </g>
     </g>
    </g>
    <g id="xtick_14">
     <g id="line2d_14">
      <g>
       <use xlink:href="#m41b6228ab3" x="389.674694" y="643.2705" style="stroke: #000000; stroke-width: 0.6"/>
      </g>
     </g>
    </g>
    <g id="xtick_15">
     <g id="line2d_15">
      <g>
       <use xlink:href="#m41b6228ab3" x="418.191474" y="643.2705" style="stroke: #000000; stroke-width: 0.6"/>
      </g>
     </g>
    </g>
    <g id="xtick_16">
     <g id="line2d_16">
      <g>
       <use xlink:href="#m41b6228ab3" x="475.225034" y="643.2705" style="stroke: #000000; stroke-width: 0.6"/>
      </g>
     </g>
    </g>
    <g id="xtick_17">
     <g id="line2d_17">
      <g>
       <use xlink:href="#m41b6228ab3" x="503.741814" y="643.2705" style="stroke: #000000; stroke-width: 0.6"/>
      </g>
     </g>
    </g>
    <g id="xtick_18">
     <g id="line2d_18">
      <g>
       <use xlink:href="#m41b6228ab3" x="532.258594" y="643.2705" style="stroke: #000000; stroke-width: 0.6"/>
      </g>
     </g>
    </g>
    <g id="xtick_19">
     <g id="line2d_19">
      <g>
       <use xlink:href="#m41b6228ab3" x="589.292154" y="643.2705" style="stroke: #000000; stroke-width: 0.6"/>
      </g>
     </g>
    </g>
    <g id="xtick_20">
     <g id="line2d_20">
      <g>
       <use xlink:href="#m41b6228ab3" x="617.808934" y="643.2705" style="stroke: #000000; stroke-width: 0.6"/>
      </g>
     </g>
    </g>
    <g id="xtick_21">
     <g id="line2d_21">
      <g>
       <use xlink:href="#m41b6228ab3" x="646.325714" y="643.2705" style="stroke: #000000; stroke-width: 0.6"/>
      </g>
     </g>
    </g>
    <g id="text_7">
     <!-- Time ps -->
     <g transform="translate(336.926648 697.680187) scale(0.3 -0.3)">
      <defs>
       <path id="LiberationSans-54" d="M 2250 3916 
L 2250 0 
L 1656 0 
L 1656 3916 
L 144 3916 
L 144 4403 
L 3763 4403 
L 3763 3916 
L 2250 3916 
z
" transform="scale(0.015625)"/>
       <path id="LiberationSans-69" d="M 428 4100 
L 428 4638 
L 991 4638 
L 991 4100 
L 428 4100 
z
M 428 0 
L 428 3381 
L 991 3381 
L 991 0 
L 428 0 
z
" transform="scale(0.015625)"/>
       <path id="LiberationSans-6d" d="M 2400 0 
L 2400 2144 
Q 2400 2634 2265 2821 
Q 2131 3009 1781 3009 
Q 1422 3009 1212 2734 
Q 1003 2459 1003 1959 
L 1003 0 
L 444 0 
L 444 2659 
Q 444 3250 425 3381 
L 956 3381 
Q 959 3366 962 3297 
Q 966 3228 970 3139 
Q 975 3050 981 2803 
L 991 2803 
Q 1172 3163 1406 3303 
Q 1641 3444 1978 3444 
Q 2363 3444 2586 3291 
Q 2809 3138 2897 2803 
L 2906 2803 
Q 3081 3144 3329 3294 
Q 3578 3444 3931 3444 
Q 4444 3444 4676 3166 
Q 4909 2888 4909 2253 
L 4909 0 
L 4353 0 
L 4353 2144 
Q 4353 2634 4218 2821 
Q 4084 3009 3734 3009 
Q 3366 3009 3161 2736 
Q 2956 2463 2956 1959 
L 2956 0 
L 2400 0 
z
" transform="scale(0.015625)"/>
       <path id="LiberationSans-65" d="M 863 1572 
Q 863 991 1103 675 
Q 1344 359 1806 359 
Q 2172 359 2392 506 
Q 2613 653 2691 878 
L 3184 738 
Q 2881 -63 1806 -63 
Q 1056 -63 664 384 
Q 272 831 272 1713 
Q 272 2550 664 2997 
Q 1056 3444 1784 3444 
Q 3275 3444 3275 1647 
L 3275 1572 
L 863 1572 
z
M 2694 2003 
Q 2647 2538 2422 2783 
Q 2197 3028 1775 3028 
Q 1366 3028 1127 2754 
Q 888 2481 869 2003 
L 2694 2003 
z
" transform="scale(0.015625)"/>
       <path id="LiberationSans-20" transform="scale(0.015625)"/>
       <path id="LiberationSans-70" d="M 3291 1706 
Q 3291 -63 2047 -63 
Q 1266 -63 997 525 
L 981 525 
Q 994 500 994 -6 
L 994 -1328 
L 431 -1328 
L 431 2691 
Q 431 3213 413 3381 
L 956 3381 
Q 959 3369 965 3292 
Q 972 3216 980 3056 
Q 988 2897 988 2838 
L 1000 2838 
Q 1150 3150 1397 3295 
Q 1644 3441 2047 3441 
Q 2672 3441 2981 3022 
Q 3291 2603 3291 1706 
z
M 2700 1694 
Q 2700 2400 2509 2703 
Q 2319 3006 1903 3006 
Q 1569 3006 1380 2865 
Q 1191 2725 1092 2426 
Q 994 2128 994 1650 
Q 994 984 1206 668 
Q 1419 353 1897 353 
Q 2316 353 2508 661 
Q 2700 969 2700 1694 
z
" transform="scale(0.015625)"/>
       <path id="LiberationSans-73" d="M 2969 934 
Q 2969 456 2608 196 
Q 2247 -63 1597 -63 
Q 966 -63 623 145 
Q 281 353 178 794 
L 675 891 
Q 747 619 972 492 
Q 1197 366 1597 366 
Q 2025 366 2223 497 
Q 2422 628 2422 891 
Q 2422 1091 2284 1216 
Q 2147 1341 1841 1422 
L 1438 1528 
Q 953 1653 748 1773 
Q 544 1894 428 2066 
Q 313 2238 313 2488 
Q 313 2950 642 3192 
Q 972 3434 1603 3434 
Q 2163 3434 2492 3237 
Q 2822 3041 2909 2606 
L 2403 2544 
Q 2356 2769 2151 2889 
Q 1947 3009 1603 3009 
Q 1222 3009 1040 2893 
Q 859 2778 859 2544 
Q 859 2400 934 2306 
Q 1009 2213 1156 2147 
Q 1303 2081 1775 1966 
Q 2222 1853 2419 1758 
Q 2616 1663 2730 1547 
Q 2844 1431 2906 1279 
Q 2969 1128 2969 934 
z
" transform="scale(0.015625)"/>
      </defs>
      <use xlink:href="#LiberationSans-54"/>
      <use xlink:href="#LiberationSans-69" x="57.333984"/>
      <use xlink:href="#LiberationSans-6d" x="79.550781"/>
      <use xlink:href="#LiberationSans-65" x="162.851562"/>
      <use xlink:href="#LiberationSans-20" x="218.466797"/>
      <use xlink:href="#LiberationSans-70" x="246.25"/>
      <use xlink:href="#LiberationSans-73" x="301.865234"/>
     </g>
    </g>
   </g>
   <g id="matplotlib.axis_2">
    <g id="ytick_1">
     <g id="line2d_22">
      <defs>
       <path id="mddf935e201" d="M 0 0 
L 3.5 0 
" style="stroke: #000000; stroke-width: 0.8"/>
      </defs>
      <g>
       <use xlink:href="#mddf935e201" x="76.05" y="567.690026" style="stroke: #000000; stroke-width: 0.8"/>
      </g>
     </g>
     <g id="text_8">
      <!-- $\mathdefault{−1}$ -->
      <g transform="translate(41.5 577.473307) scale(0.27 -0.27)">
       <defs>
        <path id="LiberationSans-2212" d="M 316 1900 
L 316 2356 
L 3425 2356 
L 3425 1900 
L 316 1900 
z
" transform="scale(0.015625)"/>
       </defs>
       <use xlink:href="#LiberationSans-2212" transform="translate(0 0.203125)"/>
       <use xlink:href="#LiberationSans-31" transform="translate(58.398438 0.203125)"/>
      </g>
     </g>
    </g>
    <g id="ytick_2">
     <g id="line2d_23">
      <g>
       <use xlink:href="#mddf935e201" x="76.05" y="469.630403" style="stroke: #000000; stroke-width: 0.8"/>
      </g>
     </g>
     <g id="text_9">
      <!-- $\mathdefault{0}$ -->
      <g transform="translate(57.43 479.413684) scale(0.27 -0.27)">
       <use xlink:href="#LiberationSans-30" transform="translate(0 0.171875)"/>
      </g>
     </g>
    </g>
    <g id="ytick_3">
     <g id="line2d_24">
      <g>
       <use xlink:href="#mddf935e201" x="76.05" y="371.57078" style="stroke: #000000; stroke-width: 0.8"/>
      </g>
     </g>
     <g id="text_10">
      <!-- $\mathdefault{1}$ -->
      <g transform="translate(57.43 381.354061) scale(0.27 -0.27)">
       <use xlink:href="#LiberationSans-31" transform="translate(0 0.203125)"/>
      </g>
     </g>
    </g>
    <g id="ytick_4">
     <g id="line2d_25">
      <g>
       <use xlink:href="#mddf935e201" x="76.05" y="273.511157" style="stroke: #000000; stroke-width: 0.8"/>
      </g>
     </g>
     <g id="text_11">
      <!-- $\mathdefault{2}$ -->
      <g transform="translate(57.43 283.294438) scale(0.27 -0.27)">
       <use xlink:href="#LiberationSans-32" transform="translate(0 0.171875)"/>
      </g>
     </g>
    </g>
    <g id="ytick_5">
     <g id="line2d_26">
      <g>
       <use xlink:href="#mddf935e201" x="76.05" y="175.451534" style="stroke: #000000; stroke-width: 0.8"/>
      </g>
     </g>
     <g id="text_12">
      <!-- $\mathdefault{3}$ -->
      <g transform="translate(57.43 185.234815) scale(0.27 -0.27)">
       <defs>
        <path id="LiberationSans-33" d="M 3278 1216 
Q 3278 606 2890 271 
Q 2503 -63 1784 -63 
Q 1116 -63 717 239 
Q 319 541 244 1131 
L 825 1184 
Q 938 403 1784 403 
Q 2209 403 2451 612 
Q 2694 822 2694 1234 
Q 2694 1594 2417 1795 
Q 2141 1997 1619 1997 
L 1300 1997 
L 1300 2484 
L 1606 2484 
Q 2069 2484 2323 2686 
Q 2578 2888 2578 3244 
Q 2578 3597 2370 3801 
Q 2163 4006 1753 4006 
Q 1381 4006 1151 3815 
Q 922 3625 884 3278 
L 319 3322 
Q 381 3863 767 4166 
Q 1153 4469 1759 4469 
Q 2422 4469 2789 4161 
Q 3156 3853 3156 3303 
Q 3156 2881 2920 2617 
Q 2684 2353 2234 2259 
L 2234 2247 
Q 2728 2194 3003 1916 
Q 3278 1638 3278 1216 
z
" transform="scale(0.015625)"/>
       </defs>
       <use xlink:href="#LiberationSans-33" transform="translate(0 0.171875)"/>
      </g>
     </g>
    </g>
    <g id="ytick_6">
     <g id="line2d_27">
      <g>
       <use xlink:href="#mddf935e201" x="76.05" y="77.391911" style="stroke: #000000; stroke-width: 0.8"/>
      </g>
     </g>
     <g id="text_13">
      <!-- $\mathdefault{4}$ -->
      <g transform="translate(57.43 87.175192) scale(0.27 -0.27)">
       <use xlink:href="#LiberationSans-34" transform="translate(0 0.203125)"/>
      </g>
     </g>
    </g>
    <g id="ytick_7">
     <g id="line2d_28">
      <defs>
       <path id="m53dfc46d35" d="M 0 0 
L 2 0 
" style="stroke: #000000; stroke-width: 0.6"/>
      </defs>
      <g>
       <use xlink:href="#m53dfc46d35" x="76.05" y="626.525799" style="stroke: #000000; stroke-width: 0.6"/>
      </g>
     </g>
    </g>
    <g id="ytick_8">
     <g id="line2d_29">
      <g>
       <use xlink:href="#m53dfc46d35" x="76.05" y="606.913875" style="stroke: #000000; stroke-width: 0.6"/>
      </g>
     </g>
    </g>
    <g id="ytick_9">
     <g id="line2d_30">
      <g>
       <use xlink:href="#m53dfc46d35" x="76.05" y="587.30195" style="stroke: #000000; stroke-width: 0.6"/>
      </g>
     </g>
    </g>
    <g id="ytick_10">
     <g id="line2d_31">
      <g>
       <use xlink:href="#m53dfc46d35" x="76.05" y="548.078101" style="stroke: #000000; stroke-width: 0.6"/>
      </g>
     </g>
    </g>
    <g id="ytick_11">
     <g id="line2d_32">
      <g>
       <use xlink:href="#m53dfc46d35" x="76.05" y="528.466177" style="stroke: #000000; stroke-width: 0.6"/>
      </g>
     </g>
    </g>
    <g id="ytick_12">
     <g id="line2d_33">
      <g>
       <use xlink:href="#m53dfc46d35" x="76.05" y="508.854252" style="stroke: #000000; stroke-width: 0.6"/>
      </g>
     </g>
    </g>
    <g id="ytick_13">
     <g id="line2d_34">
      <g>
       <use xlink:href="#m53dfc46d35" x="76.05" y="489.242327" style="stroke: #000000; stroke-width: 0.6"/>
      </g>
     </g>
    </g>
    <g id="ytick_14">
     <g id="line2d_35">
      <g>
       <use xlink:href="#m53dfc46d35" x="76.05" y="450.018478" style="stroke: #000000; stroke-width: 0.6"/>
      </g>
     </g>
    </g>
    <g id="ytick_15">
     <g id="line2d_36">
      <g>
       <use xlink:href="#m53dfc46d35" x="76.05" y="430.406554" style="stroke: #000000; stroke-width: 0.6"/>
      </g>
     </g>
    </g>
    <g id="ytick_16">
     <g id="line2d_37">
      <g>
       <use xlink:href="#m53dfc46d35" x="76.05" y="410.794629" style="stroke: #000000; stroke-width: 0.6"/>
      </g>
     </g>
    </g>
    <g id="ytick_17">
     <g id="line2d_38">
      <g>
       <use xlink:href="#m53dfc46d35" x="76.05" y="391.182705" style="stroke: #000000; stroke-width: 0.6"/>
      </g>
     </g>
    </g>
    <g id="ytick_18">
     <g id="line2d_39">
      <g>
       <use xlink:href="#m53dfc46d35" x="76.05" y="351.958855" style="stroke: #000000; stroke-width: 0.6"/>
      </g>
     </g>
    </g>
    <g id="ytick_19">
     <g id="line2d_40">
      <g>
       <use xlink:href="#m53dfc46d35" x="76.05" y="332.346931" style="stroke: #000000; stroke-width: 0.6"/>
      </g>
     </g>
    </g>
    <g id="ytick_20">
     <g id="line2d_41">
      <g>
       <use xlink:href="#m53dfc46d35" x="76.05" y="312.735006" style="stroke: #000000; stroke-width: 0.6"/>
      </g>
     </g>
    </g>
    <g id="ytick_21">
     <g id="line2d_42">
      <g>
       <use xlink:href="#m53dfc46d35" x="76.05" y="293.123082" style="stroke: #000000; stroke-width: 0.6"/>
      </g>
     </g>
    </g>
    <g id="ytick_22">
     <g id="line2d_43">
      <g>
       <use xlink:href="#m53dfc46d35" x="76.05" y="253.899232" style="stroke: #000000; stroke-width: 0.6"/>
      </g>
     </g>
    </g>
    <g id="ytick_23">
     <g id="line2d_44">
      <g>
       <use xlink:href="#m53dfc46d35" x="76.05" y="234.287308" style="stroke: #000000; stroke-width: 0.6"/>
      </g>
     </g>
    </g>
    <g id="ytick_24">
     <g id="line2d_45">
      <g>
       <use xlink:href="#m53dfc46d35" x="76.05" y="214.675383" style="stroke: #000000; stroke-width: 0.6"/>
      </g>
     </g>
    </g>
    <g id="ytick_25">
     <g id="line2d_46">
      <g>
       <use xlink:href="#m53dfc46d35" x="76.05" y="195.063459" style="stroke: #000000; stroke-width: 0.6"/>
      </g>
     </g>
    </g>
    <g id="ytick_26">
     <g id="line2d_47">
      <g>
       <use xlink:href="#m53dfc46d35" x="76.05" y="155.83961" style="stroke: #000000; stroke-width: 0.6"/>
      </g>
     </g>
    </g>
    <g id="ytick_27">
     <g id="line2d_48">
      <g>
       <use xlink:href="#m53dfc46d35" x="76.05" y="136.227685" style="stroke: #000000; stroke-width: 0.6"/>
      </g>
     </g>
    </g>
    <g id="ytick_28">
     <g id="line2d_49">
      <g>
       <use xlink:href="#m53dfc46d35" x="76.05" y="116.61576" style="stroke: #000000; stroke-width: 0.6"/>
      </g>
     </g>
    </g>
    <g id="ytick_29">
     <g id="line2d_50">
      <g>
       <use xlink:href="#m53dfc46d35" x="76.05" y="97.003836" style="stroke: #000000; stroke-width: 0.6"/>
      </g>
     </g>
    </g>
    <g id="ytick_30">
     <g id="line2d_51">
      <g>
       <use xlink:href="#m53dfc46d35" x="76.05" y="57.779987" style="stroke: #000000; stroke-width: 0.6"/>
      </g>
     </g>
    </g>
    <g id="text_14">
     <!-- HFACF $(\mathrm{W} / \mathrm{m}^2)^2$ -->
     <g transform="translate(31.275 447.729) rotate(-90) scale(0.3 -0.3)">
      <defs>
       <path id="LiberationSans-48" d="M 3503 0 
L 3503 2041 
L 1122 2041 
L 1122 0 
L 525 0 
L 525 4403 
L 1122 4403 
L 1122 2541 
L 3503 2541 
L 3503 4403 
L 4100 4403 
L 4100 0 
L 3503 0 
z
" transform="scale(0.015625)"/>
       <path id="LiberationSans-46" d="M 1122 3916 
L 1122 2278 
L 3578 2278 
L 3578 1784 
L 1122 1784 
L 1122 0 
L 525 0 
L 525 4403 
L 3653 4403 
L 3653 3916 
L 1122 3916 
z
" transform="scale(0.015625)"/>
       <path id="LiberationSans-41" d="M 3647 0 
L 3144 1288 
L 1138 1288 
L 631 0 
L 13 0 
L 1809 4403 
L 2488 4403 
L 4256 0 
L 3647 0 
z
M 2141 3953 
L 2113 3866 
Q 2034 3606 1881 3200 
L 1319 1753 
L 2966 1753 
L 2400 3206 
Q 2313 3422 2225 3694 
L 2141 3953 
z
" transform="scale(0.015625)"/>
       <path id="LiberationSans-43" d="M 2475 3981 
Q 1744 3981 1337 3511 
Q 931 3041 931 2222 
Q 931 1413 1354 920 
Q 1778 428 2500 428 
Q 3425 428 3891 1344 
L 4378 1100 
Q 4106 531 3614 234 
Q 3122 -63 2472 -63 
Q 1806 -63 1320 214 
Q 834 491 579 1005 
Q 325 1519 325 2222 
Q 325 3275 894 3872 
Q 1463 4469 2469 4469 
Q 3172 4469 3644 4194 
Q 4116 3919 4338 3378 
L 3772 3191 
Q 3619 3575 3280 3778 
Q 2941 3981 2475 3981 
z
" transform="scale(0.015625)"/>
       <path id="STIXGeneral-Regular-28" d="M 1946 -1030 
L 1869 -1133 
Q 1126 -710 716 32 
Q 307 774 307 1613 
Q 307 3386 1888 4326 
L 1946 4224 
Q 1293 3667 1075 3126 
Q 858 2586 858 1632 
Q 858 685 1082 96 
Q 1306 -493 1946 -1030 
z
" transform="scale(0.015625)"/>
       <path id="STIXGeneral-Regular-57" d="M 5965 4237 
L 5965 4115 
Q 5709 4064 5616 3990 
Q 5523 3917 5434 3667 
Q 4704 1709 4128 -70 
L 4032 -70 
Q 3642 1011 3008 2637 
L 2022 -70 
L 1926 -70 
Q 1709 576 1277 1753 
Q 845 2931 698 3347 
Q 538 3808 406 3958 
Q 275 4109 32 4115 
L 32 4237 
L 1594 4237 
L 1594 4115 
Q 1357 4109 1270 4064 
Q 1184 4019 1184 3917 
Q 1184 3808 1254 3616 
L 2176 1210 
L 2842 3021 
L 2662 3501 
Q 2509 3917 2400 4013 
Q 2291 4109 2010 4115 
L 2010 4237 
L 3706 4237 
L 3706 4115 
Q 3213 4102 3213 3891 
Q 3213 3808 3322 3520 
L 4237 1190 
L 5043 3360 
Q 5152 3667 5152 3853 
Q 5152 4109 4704 4115 
L 4704 4237 
L 5965 4237 
z
" transform="scale(0.015625)"/>
       <path id="STIXGeneral-Regular-2f" d="M 1837 4326 
L 378 -90 
L -58 -90 
L 1408 4326 
L 1837 4326 
z
" transform="scale(0.015625)"/>
       <path id="STIXGeneral-Regular-6d" d="M 4960 0 
L 3565 0 
L 3565 96 
Q 3834 122 3907 208 
Q 3981 294 3981 576 
L 3981 1894 
Q 3981 2278 3869 2444 
Q 3757 2611 3488 2611 
Q 3264 2611 3107 2521 
Q 2950 2432 2803 2221 
L 2803 608 
Q 2803 301 2896 201 
Q 2989 102 3264 96 
L 3264 0 
L 1830 0 
L 1830 96 
Q 2112 115 2189 188 
Q 2266 262 2266 550 
L 2266 1901 
Q 2266 2611 1850 2611 
Q 1670 2611 1468 2531 
Q 1267 2451 1171 2336 
Q 1088 2240 1088 2227 
L 1088 448 
Q 1088 243 1177 176 
Q 1267 109 1523 96 
L 1523 0 
L 102 0 
L 102 96 
Q 371 102 460 195 
Q 550 288 550 563 
L 550 2150 
Q 550 2387 499 2480 
Q 448 2573 326 2573 
Q 230 2573 122 2547 
L 122 2656 
Q 557 2778 1011 2944 
L 1062 2925 
L 1062 2451 
L 1075 2451 
Q 1363 2752 1584 2848 
Q 1805 2944 2054 2944 
Q 2560 2944 2733 2406 
Q 3232 2944 3776 2944 
Q 4518 2944 4518 1792 
L 4518 493 
Q 4518 282 4582 202 
Q 4646 122 4794 109 
L 4960 96 
L 4960 0 
z
" transform="scale(0.015625)"/>
       <path id="STIXGeneral-Regular-32" d="M 3034 877 
L 2688 0 
L 186 0 
L 186 77 
L 1325 1286 
Q 1773 1754 1965 2144 
Q 2157 2534 2157 2950 
Q 2157 3379 1920 3616 
Q 1683 3853 1267 3853 
Q 922 3853 720 3673 
Q 518 3494 326 3021 
L 192 3053 
Q 301 3648 630 3987 
Q 960 4326 1523 4326 
Q 2054 4326 2380 4006 
Q 2707 3686 2707 3200 
Q 2707 2477 1888 1613 
L 832 486 
L 2330 486 
Q 2541 486 2665 569 
Q 2790 653 2944 915 
L 3034 877 
z
" transform="scale(0.015625)"/>
       <path id="STIXGeneral-Regular-29" d="M 186 4224 
L 262 4326 
Q 992 3891 1408 3148 
Q 1824 2406 1824 1581 
Q 1824 -166 243 -1133 
L 186 -1030 
Q 845 -486 1059 54 
Q 1274 595 1274 1562 
Q 1274 2534 1059 3120 
Q 845 3706 186 4224 
z
" transform="scale(0.015625)"/>
      </defs>
      <use xlink:href="#LiberationSans-48" transform="translate(0 0.409375)"/>
      <use xlink:href="#LiberationSans-46" transform="translate(72.216797 0.409375)"/>
      <use xlink:href="#LiberationSans-41" transform="translate(133.300781 0.409375)"/>
      <use xlink:href="#LiberationSans-43" transform="translate(200 0.409375)"/>
      <use xlink:href="#LiberationSans-46" transform="translate(272.216797 0.409375)"/>
      <use xlink:href="#LiberationSans-20" transform="translate(333.300781 0.409375)"/>
      <use xlink:href="#STIXGeneral-Regular-28" transform="translate(361.083984 0.409375)"/>
      <use xlink:href="#STIXGeneral-Regular-57" transform="translate(394.383972 0.409375)"/>
      <use xlink:href="#STIXGeneral-Regular-2f" transform="translate(488.783966 0.409375)"/>
      <use xlink:href="#STIXGeneral-Regular-6d" transform="translate(516.583954 0.409375)"/>
      <use xlink:href="#STIXGeneral-Regular-32" transform="translate(595.927223 35.684375) scale(0.7)"/>
      <use xlink:href="#STIXGeneral-Regular-29" transform="translate(635.336587 0.409375)"/>
      <use xlink:href="#STIXGeneral-Regular-32" transform="translate(670.179856 35.684375) scale(0.7)"/>
     </g>
    </g>
    <g id="text_15">
     <!-- $\times\mathdefault{10^{18}}\mathdefault{}$ -->
     <g transform="translate(76.05 36.1875) scale(0.4 -0.4)">
      <defs>
       <path id="STIXGeneral-Regular-d7" d="M 3821 141 
L 3526 -160 
L 2048 1312 
L 570 -160 
L 275 134 
L 1747 1613 
L 275 3091 
L 576 3386 
L 2048 1914 
L 3526 3386 
L 3821 3098 
L 2349 1613 
L 3821 141 
z
" transform="scale(0.015625)"/>
      </defs>
      <use xlink:href="#STIXGeneral-Regular-d7" transform="translate(0 0.140625)"/>
      <use xlink:href="#LiberationSans-31" transform="translate(63.999985 0.140625)"/>
      <use xlink:href="#LiberationSans-30" transform="translate(119.615219 0.140625)"/>
      <use xlink:href="#LiberationSans-31" transform="translate(176.154946 37.120312) scale(0.7)"/>
      <use xlink:href="#LiberationSans-38" transform="translate(215.08561 37.120312) scale(0.7)"/>
     </g>
    </g>
   </g>
   <g id="line2d_52">
    <path d="M 104.563928 66.645818 
L 104.677995 67.399345 
L 104.849096 71.339159 
L 105.134264 85.209067 
L 105.533499 118.811894 
L 106.103834 190.02639 
L 107.301539 378.865878 
L 108.214076 504.404704 
L 108.841445 564.031005 
L 109.354747 594.864831 
L 109.811016 609.996836 
L 110.153217 614.983177 
L 110.381351 615.812182 
L 110.495418 615.587795 
L 110.666519 614.553011 
L 110.951687 611.248844 
L 111.407955 602.912306 
L 112.206425 583.351577 
L 114.259633 525.685085 
L 116.483942 464.063133 
L 117.282412 448.131742 
L 117.852748 440.440766 
L 118.309016 436.688592 
L 118.651218 435.245945 
L 118.879352 434.900324 
L 119.050452 434.944253 
L 119.278587 435.379502 
L 119.620788 436.761287 
L 120.077057 439.745307 
L 120.761459 445.971859 
L 122.415433 464.05011 
L 123.556104 475.002434 
L 124.354574 480.749014 
L 124.981943 483.891668 
L 125.495245 485.502792 
L 125.89448 486.157616 
L 126.179647 486.315147 
L 126.464815 486.226994 
L 126.807017 485.818774 
L 127.263285 484.815707 
L 127.833621 482.952331 
L 128.689124 479.270786 
L 130.343097 470.872421 
L 132.111138 462.273243 
L 132.909608 459.426716 
L 133.42291 458.292565 
L 133.822144 457.899258 
L 134.107312 457.911939 
L 134.39248 458.181351 
L 134.734681 458.845133 
L 135.19095 460.279089 
L 135.818319 463.103252 
L 138.213729 474.926155 
L 138.727031 476.103867 
L 139.126266 476.548013 
L 139.468467 476.635522 
L 139.810668 476.500096 
L 140.32397 476.000574 
L 142.890481 472.998245 
L 143.745984 472.079361 
L 144.373353 471.067571 
L 145.057756 469.527821 
L 146.369528 465.840729 
L 147.167998 463.959501 
L 147.6813 463.228905 
L 148.080534 462.992762 
L 148.422736 463.032287 
L 148.821971 463.347634 
L 149.335273 464.119072 
L 150.076709 465.722177 
L 151.844749 469.700672 
L 152.700253 471.020323 
L 153.61279 472.026529 
L 154.696427 472.903357 
L 155.494897 473.291789 
L 156.065233 473.332198 
L 156.578535 473.135014 
L 157.091837 472.687695 
L 157.719206 471.815324 
L 158.688777 469.992192 
L 160.000548 467.584448 
L 160.684951 466.749835 
L 161.31232 466.31726 
L 161.93969 466.167881 
L 162.624092 466.250535 
L 163.422562 466.582445 
L 164.221032 467.151898 
L 164.962468 467.946885 
L 165.760938 469.134546 
L 167.186777 471.776712 
L 168.099314 473.197134 
L 168.66965 473.719847 
L 169.125918 473.880234 
L 169.582187 473.809694 
L 170.095489 473.488641 
L 170.836925 472.718978 
L 172.433865 470.982325 
L 173.232334 470.474337 
L 174.373006 470.060521 
L 175.57071 469.548202 
L 177.623918 468.549085 
L 178.251288 468.560917 
L 178.878657 468.799564 
L 179.791194 469.431468 
L 181.102966 470.330428 
L 181.844402 470.572604 
L 182.642872 470.586804 
L 183.783543 470.349129 
L 185.722684 469.714363 
L 186.863355 469.095033 
L 188.517328 468.171101 
L 189.144698 468.078058 
L 189.715033 468.203402 
L 190.399436 468.609485 
L 191.654174 469.719498 
L 192.452644 470.273965 
L 193.080013 470.447523 
L 193.650349 470.375388 
L 194.391785 470.021389 
L 196.045758 469.117318 
L 196.730161 469.045098 
L 197.528631 469.217944 
L 199.011503 469.61178 
L 199.638873 469.530778 
L 200.323275 469.209148 
L 201.578014 468.287253 
L 202.433517 467.81708 
L 203.060886 467.723042 
L 203.688255 467.869448 
L 204.429692 468.289159 
L 206.825101 469.821548 
L 207.908739 470.12684 
L 209.84788 470.405865 
L 210.988551 470.375253 
L 212.129222 470.100142 
L 213.498028 469.800146 
L 214.239464 469.884787 
L 214.9809 470.204061 
L 217.490377 471.523966 
L 218.117746 471.448315 
L 218.802149 471.121497 
L 221.254592 469.67063 
L 221.938995 469.669426 
L 222.794498 469.927547 
L 224.448471 470.485282 
L 225.246941 470.493626 
L 226.216512 470.27059 
L 229.980726 469.204359 
L 232.205035 468.707139 
L 233.174606 468.739107 
L 234.372311 469.024447 
L 236.197384 469.465472 
L 237.281022 469.4739 
L 238.877962 469.219322 
L 242.414043 468.668383 
L 244.239116 468.508082 
L 245.493855 468.636884 
L 247.090794 469.056984 
L 249.372137 469.88811 
L 252.508983 471.153314 
L 253.193385 471.100143 
L 253.877788 470.819723 
L 254.733291 470.195931 
L 256.615399 468.707719 
L 257.299802 468.48895 
L 257.927171 468.513585 
L 258.668607 468.773997 
L 261.691386 470.119258 
L 264.48603 470.846474 
L 265.797802 471.185462 
L 266.596272 471.171197 
L 267.451775 470.923345 
L 268.877614 470.212045 
L 270.24642 469.636669 
L 271.672259 469.314449 
L 274.523937 468.921963 
L 275.493507 469.037681 
L 276.406044 469.375278 
L 277.717816 470.137498 
L 279.143655 470.905485 
L 279.999158 471.108083 
L 280.740595 471.051966 
L 281.482031 470.773128 
L 282.394568 470.17815 
L 285.018112 468.290612 
L 285.759548 468.104488 
L 286.500984 468.15522 
L 287.356488 468.4589 
L 289.751897 469.467866 
L 290.550367 469.48514 
L 291.576971 469.267573 
L 293.059844 468.968679 
L 293.858314 469.04328 
L 294.770851 469.361237 
L 296.652958 470.083697 
L 297.394394 470.091027 
L 298.192864 469.871316 
L 300.816408 468.934803 
L 301.671911 468.985828 
L 303.040717 469.336009 
L 304.922824 469.764719 
L 308.801106 470.295396 
L 311.310583 470.335326 
L 314.618529 470.274024 
L 316.55767 469.913049 
L 318.667912 469.57003 
L 319.979684 469.582178 
L 323.28763 469.791016 
L 324.428302 469.47394 
L 326.65261 468.786413 
L 327.622181 468.767821 
L 328.705819 468.9821 
L 331.500463 469.664639 
L 332.470034 469.591387 
L 333.724772 469.237217 
L 335.150611 468.877391 
L 336.006114 468.904896 
L 336.918651 469.179652 
L 339.485161 470.126438 
L 340.397698 470.118513 
L 344.90335 469.702446 
L 346.614356 469.533031 
L 348.667565 469.342421 
L 349.979336 469.463359 
L 351.576276 469.856677 
L 354.884223 470.74647 
L 355.79676 470.715012 
L 356.652263 470.46584 
L 357.678867 469.909327 
L 360.017243 468.52342 
L 360.872746 468.33208 
L 361.671216 468.373053 
L 362.583753 468.648899 
L 363.724424 469.246399 
L 366.918304 471.096762 
L 367.716774 471.21422 
L 368.515243 471.105401 
L 369.541848 470.720541 
L 371.994291 469.726208 
L 374.161566 468.92079 
L 375.929606 468.21686 
L 376.728076 468.158535 
L 377.469512 468.337318 
L 378.325016 468.788791 
L 380.891526 470.320258 
L 381.747029 470.486866 
L 382.659566 470.43816 
L 383.971338 470.113663 
L 386.366748 469.501789 
L 388.990291 469.180215 
L 391.271634 469.011558 
L 392.412305 469.166716 
L 394.066278 469.662598 
L 395.435084 469.969993 
L 396.746856 470.007626 
L 398.57193 470.059642 
L 399.826668 470.358174 
L 401.423607 470.728199 
L 402.279111 470.692112 
L 403.134614 470.432347 
L 404.332319 469.802268 
L 406.27146 468.778538 
L 407.469165 468.415873 
L 408.780937 468.26325 
L 410.206776 468.331453 
L 411.575581 468.615224 
L 412.944387 469.1274 
L 416.1953 470.500963 
L 417.050803 470.504193 
L 417.96334 470.27379 
L 419.674347 469.540389 
L 421.442387 468.898879 
L 423.324494 468.448227 
L 424.465166 468.38668 
L 425.434736 468.564047 
L 426.632441 469.041477 
L 428.343448 469.721765 
L 429.370052 469.866601 
L 430.681824 469.79189 
L 432.620965 469.701173 
L 435.58671 469.698138 
L 437.925086 469.520895 
L 439.065757 469.726437 
L 441.461167 470.264495 
L 442.430737 470.189862 
L 444.08471 469.775673 
L 445.339449 469.576808 
L 446.594187 469.613975 
L 448.875529 469.720708 
L 450.757637 469.470924 
L 451.955342 469.44189 
L 452.981946 469.643571 
L 455.548456 470.280699 
L 456.403959 470.163854 
L 457.430563 469.769521 
L 459.198604 469.055096 
L 459.997074 468.986223 
L 460.852577 469.148282 
L 463.818322 469.982859 
L 464.673825 469.809154 
L 467.354403 469.026095 
L 468.095839 469.171151 
L 469.06541 469.62188 
L 470.662349 470.382717 
L 471.460819 470.483359 
L 472.259289 470.346196 
L 473.571061 469.83924 
L 474.825799 469.45256 
L 476.023504 469.340922 
L 478.076712 469.174088 
L 480.985424 468.727932 
L 481.89796 468.904127 
L 482.981598 469.3491 
L 485.776243 470.629107 
L 486.68878 470.735293 
L 487.601316 470.611732 
L 488.970122 470.159146 
L 490.395961 469.760527 
L 491.650699 469.657996 
L 493.760941 469.503058 
L 496.327451 469.145757 
L 497.239988 469.323181 
L 498.380659 469.80592 
L 500.262767 470.615345 
L 501.232337 470.766428 
L 502.258941 470.699244 
L 503.68478 470.362417 
L 508.475599 469.069873 
L 509.958472 469.04038 
L 514.635224 469.349506 
L 518.57054 469.765245 
L 519.996379 469.573065 
L 522.10662 469.264532 
L 523.190258 469.356193 
L 524.844231 469.772556 
L 526.098969 469.986228 
L 527.182607 469.942001 
L 530.376486 469.629761 
L 537.619749 470.013108 
L 538.93152 469.723216 
L 541.726165 468.998411 
L 543.09497 468.970224 
L 548.227991 469.273933 
L 549.996031 469.815184 
L 551.478904 470.172646 
L 552.562541 470.206031 
L 553.931347 470.000028 
L 555.870488 469.713391 
L 557.296327 469.765338 
L 559.007333 469.796688 
L 560.090971 469.574889 
L 562.429347 468.999627 
L 563.227817 469.097823 
L 564.08332 469.437716 
L 567.220166 470.951332 
L 568.018636 470.917234 
L 568.874139 470.645956 
L 570.185911 469.951312 
L 572.182086 468.916294 
L 573.322757 468.583916 
L 574.349361 468.514486 
L 575.375965 468.665988 
L 576.915871 469.159816 
L 578.512811 469.606372 
L 579.93865 469.753805 
L 582.904395 470.015633 
L 584.387268 470.073786 
L 585.584972 469.886318 
L 589.006986 469.143785 
L 589.976556 469.296173 
L 591.402395 469.786008 
L 592.942302 470.244937 
L 594.025939 470.329812 
L 595.394745 470.186974 
L 598.189389 469.841135 
L 601.383268 469.605724 
L 603.379443 469.089615 
L 604.748249 468.849431 
L 605.774853 468.899083 
L 606.915524 469.19388 
L 609.367967 469.913117 
L 610.622705 469.973347 
L 614.558021 469.74589 
L 618.208169 469.526701 
L 621.516115 469.794662 
L 624.48186 469.573746 
L 625.964733 469.867307 
L 627.504639 470.106635 
L 628.930478 470.07896 
L 631.611055 469.758198 
L 633.436129 469.318227 
L 635.090102 468.973649 
L 636.116706 469.003943 
L 637.200344 469.280555 
L 641.420828 470.660316 
L 642.618532 470.681106 
L 643.759203 470.47566 
L 644.899875 470.03015 
L 646.553848 469.092745 
L 647.922653 468.422358 
L 648.83519 468.228521 
L 649.63366 468.280263 
L 650.546197 468.577501 
L 651.857969 469.279684 
L 653.568976 470.148238 
L 654.766681 470.499418 
L 656.19252 470.677601 
L 657.504291 470.63279 
L 658.644963 470.365226 
L 659.956734 469.804165 
L 662.29511 468.774464 
L 663.378748 468.564761 
L 664.348319 468.59451 
L 665.374923 468.848893 
L 667.142963 469.578903 
L 668.340668 469.941141 
L 669.310238 469.993476 
L 670.450909 469.809216 
L 672.047849 469.558103 
L 672.960386 469.665786 
L 673.98699 470.035379 
L 674.842494 470.416808 
L 674.842494 470.416808 
" clip-path="url(#pe59fc1204b)" style="fill: none; stroke: #ff0000; stroke-width: 1.5; stroke-linecap: square"/>
   </g>
   <g id="patch_3">
    <path d="M 76.05 643.2705 
L 76.05 39.1875 
" style="fill: none; stroke: #000000; stroke-width: 0.8; stroke-linejoin: miter; stroke-linecap: square"/>
   </g>
   <g id="patch_4">
    <path d="M 703.356422 643.2705 
L 703.356422 39.1875 
" style="fill: none; stroke: #000000; stroke-width: 0.8; stroke-linejoin: miter; stroke-linecap: square"/>
   </g>
   <g id="patch_5">
    <path d="M 76.05 643.2705 
L 703.356422 643.2705 
" style="fill: none; stroke: #000000; stroke-width: 0.8; stroke-linejoin: miter; stroke-linecap: square"/>
   </g>
   <g id="patch_6">
    <path d="M 76.05 39.1875 
L 703.356422 39.1875 
" style="fill: none; stroke: #000000; stroke-width: 0.8; stroke-linejoin: miter; stroke-linecap: square"/>
   </g>
  </g>
 </g>
 <defs>
  <clipPath id="pe59fc1204b">
   <rect x="76.05" y="39.1875" width="627.306422" height="604.083"/>
  </clipPath>
 </defs>
</svg>
