<?xml version="1.0" encoding="utf-8" standalone="no"?>
<!DOCTYPE svg PUBLIC "-//W3C//DTD SVG 1.1//EN"
  "http://www.w3.org/Graphics/SVG/1.1/DTD/svg11.dtd">
<svg xmlns:xlink="http://www.w3.org/1999/xlink" width="710.647477pt" height="711.02175pt" viewBox="0 0 710.647477 711.02175" xmlns="http://www.w3.org/2000/svg" version="1.1">
 <metadata>
  <rdf:RDF xmlns:dc="http://purl.org/dc/elements/1.1/" xmlns:cc="http://creativecommons.org/ns#" xmlns:rdf="http://www.w3.org/1999/02/22-rdf-syntax-ns#">
   <cc:Work>
    <dc:type rdf:resource="http://purl.org/dc/dcmitype/StillImage"/>
    <dc:date>2025-01-30T22:38:39.081466</dc:date>
    <dc:format>image/svg+xml</dc:format>
    <dc:creator>
     <cc:Agent>
      <dc:title>Matplotlib v3.9.3, https://matplotlib.org/</dc:title>
     </cc:Agent>
    </dc:creator>
   </cc:Work>
  </rdf:RDF>
 </metadata>
 <defs>
  <style type="text/css">*{stroke-linejoin: round; stroke-linecap: butt}</style>
 </defs>
 <g id="figure_1">
  <g id="patch_1">
   <path d="M 0 711.02175 
L 710.647477 711.02175 
L 710.647477 0 
L 0 0 
z
" style="fill: #ffffff"/>
  </g>
  <g id="axes_1">
   <g id="patch_2">
    <path d="M 104.4 640.3905 
L 703.447477 640.3905 
L 703.447477 39.1875 
L 104.4 39.1875 
z
" style="fill: #ffffff"/>
   </g>
   <g id="matplotlib.axis_1">
    <g id="xtick_1">
     <g id="line2d_1">
      <defs>
       <path id="m7a78981f62" d="M 0 0 
L 0 -3.5 
" style="stroke: #000000; stroke-width: 0.8"/>
      </defs>
      <g>
       <use xlink:href="#m7a78981f62" x="131.574966" y="640.3905" style="stroke: #000000; stroke-width: 0.8"/>
      </g>
     </g>
     <g id="text_1">
      <!-- 0 -->
      <g transform="translate(123.23356 665.631125) scale(0.3 -0.3)">
       <defs>
        <path id="LiberationSans-30" d="M 3309 2203 
Q 3309 1100 2920 518 
Q 2531 -63 1772 -63 
Q 1013 -63 631 515 
Q 250 1094 250 2203 
Q 250 3338 620 3903 
Q 991 4469 1791 4469 
Q 2569 4469 2939 3897 
Q 3309 3325 3309 2203 
z
M 2738 2203 
Q 2738 3156 2517 3584 
Q 2297 4013 1791 4013 
Q 1272 4013 1045 3591 
Q 819 3169 819 2203 
Q 819 1266 1048 831 
Q 1278 397 1778 397 
Q 2275 397 2506 840 
Q 2738 1284 2738 2203 
z
" transform="scale(0.015625)"/>
       </defs>
       <use xlink:href="#LiberationSans-30"/>
      </g>
     </g>
    </g>
    <g id="xtick_2">
     <g id="line2d_2">
      <g>
       <use xlink:href="#m7a78981f62" x="240.503582" y="640.3905" style="stroke: #000000; stroke-width: 0.8"/>
      </g>
     </g>
     <g id="text_2">
      <!-- 2 -->
      <g transform="translate(232.162176 665.631125) scale(0.3 -0.3)">
       <defs>
        <path id="LiberationSans-32" d="M 322 0 
L 322 397 
Q 481 763 711 1042 
Q 941 1322 1194 1548 
Q 1447 1775 1695 1969 
Q 1944 2163 2144 2356 
Q 2344 2550 2467 2762 
Q 2591 2975 2591 3244 
Q 2591 3606 2378 3806 
Q 2166 4006 1788 4006 
Q 1428 4006 1195 3811 
Q 963 3616 922 3263 
L 347 3316 
Q 409 3844 795 4156 
Q 1181 4469 1788 4469 
Q 2453 4469 2811 4155 
Q 3169 3841 3169 3263 
Q 3169 3006 3051 2753 
Q 2934 2500 2703 2247 
Q 2472 1994 1819 1463 
Q 1459 1169 1246 933 
Q 1034 697 941 478 
L 3238 478 
L 3238 0 
L 322 0 
z
" transform="scale(0.015625)"/>
       </defs>
       <use xlink:href="#LiberationSans-32"/>
      </g>
     </g>
    </g>
    <g id="xtick_3">
     <g id="line2d_3">
      <g>
       <use xlink:href="#m7a78981f62" x="349.432198" y="640.3905" style="stroke: #000000; stroke-width: 0.8"/>
      </g>
     </g>
     <g id="text_3">
      <!-- 4 -->
      <g transform="translate(341.090792 665.631125) scale(0.3 -0.3)">
       <defs>
        <path id="LiberationSans-34" d="M 2753 997 
L 2753 0 
L 2222 0 
L 2222 997 
L 147 997 
L 147 1434 
L 2163 4403 
L 2753 4403 
L 2753 1441 
L 3372 1441 
L 3372 997 
L 2753 997 
z
M 2222 3769 
Q 2216 3750 2134 3603 
Q 2053 3456 2013 3397 
L 884 1734 
L 716 1503 
L 666 1441 
L 2222 1441 
L 2222 3769 
z
" transform="scale(0.015625)"/>
       </defs>
       <use xlink:href="#LiberationSans-34"/>
      </g>
     </g>
    </g>
    <g id="xtick_4">
     <g id="line2d_4">
      <g>
       <use xlink:href="#m7a78981f62" x="458.360814" y="640.3905" style="stroke: #000000; stroke-width: 0.8"/>
      </g>
     </g>
     <g id="text_4">
      <!-- 6 -->
      <g transform="translate(450.019408 665.631125) scale(0.3 -0.3)">
       <defs>
        <path id="LiberationSans-36" d="M 3278 1441 
Q 3278 744 2900 340 
Q 2522 -63 1856 -63 
Q 1113 -63 719 490 
Q 325 1044 325 2100 
Q 325 3244 734 3856 
Q 1144 4469 1900 4469 
Q 2897 4469 3156 3572 
L 2619 3475 
Q 2453 4013 1894 4013 
Q 1413 4013 1148 3564 
Q 884 3116 884 2266 
Q 1038 2550 1316 2698 
Q 1594 2847 1953 2847 
Q 2563 2847 2920 2465 
Q 3278 2084 3278 1441 
z
M 2706 1416 
Q 2706 1894 2472 2153 
Q 2238 2413 1819 2413 
Q 1425 2413 1183 2183 
Q 941 1953 941 1550 
Q 941 1041 1192 716 
Q 1444 391 1838 391 
Q 2244 391 2475 664 
Q 2706 938 2706 1416 
z
" transform="scale(0.015625)"/>
       </defs>
       <use xlink:href="#LiberationSans-36"/>
      </g>
     </g>
    </g>
    <g id="xtick_5">
     <g id="line2d_5">
      <g>
       <use xlink:href="#m7a78981f62" x="567.28943" y="640.3905" style="stroke: #000000; stroke-width: 0.8"/>
      </g>
     </g>
     <g id="text_5">
      <!-- 8 -->
      <g transform="translate(558.948024 665.631125) scale(0.3 -0.3)">
       <defs>
        <path id="LiberationSans-38" d="M 3281 1228 
Q 3281 619 2893 278 
Q 2506 -63 1781 -63 
Q 1075 -63 676 271 
Q 278 606 278 1222 
Q 278 1653 525 1947 
Q 772 2241 1156 2303 
L 1156 2316 
Q 797 2400 589 2681 
Q 381 2963 381 3341 
Q 381 3844 757 4156 
Q 1134 4469 1769 4469 
Q 2419 4469 2795 4162 
Q 3172 3856 3172 3334 
Q 3172 2956 2962 2675 
Q 2753 2394 2391 2322 
L 2391 2309 
Q 2813 2241 3047 1952 
Q 3281 1663 3281 1228 
z
M 2588 3303 
Q 2588 4050 1769 4050 
Q 1372 4050 1164 3862 
Q 956 3675 956 3303 
Q 956 2925 1170 2726 
Q 1384 2528 1775 2528 
Q 2172 2528 2380 2711 
Q 2588 2894 2588 3303 
z
M 2697 1281 
Q 2697 1691 2453 1898 
Q 2209 2106 1769 2106 
Q 1341 2106 1100 1882 
Q 859 1659 859 1269 
Q 859 359 1788 359 
Q 2247 359 2472 579 
Q 2697 800 2697 1281 
z
" transform="scale(0.015625)"/>
       </defs>
       <use xlink:href="#LiberationSans-38"/>
      </g>
     </g>
    </g>
    <g id="xtick_6">
     <g id="line2d_6">
      <g>
       <use xlink:href="#m7a78981f62" x="676.218046" y="640.3905" style="stroke: #000000; stroke-width: 0.8"/>
      </g>
     </g>
     <g id="text_6">
      <!-- 10 -->
      <g transform="translate(659.535233 665.631125) scale(0.3 -0.3)">
       <defs>
        <path id="LiberationSans-31" d="M 488 0 
L 488 478 
L 1609 478 
L 1609 3866 
L 616 3156 
L 616 3688 
L 1656 4403 
L 2175 4403 
L 2175 478 
L 3247 478 
L 3247 0 
L 488 0 
z
" transform="scale(0.015625)"/>
       </defs>
       <use xlink:href="#LiberationSans-31"/>
       <use xlink:href="#LiberationSans-30" x="55.615234"/>
      </g>
     </g>
    </g>
    <g id="xtick_7">
     <g id="line2d_7">
      <defs>
       <path id="m066de173cb" d="M 0 0 
L 0 -2 
" style="stroke: #000000; stroke-width: 0.6"/>
      </defs>
      <g>
       <use xlink:href="#m066de173cb" x="158.80712" y="640.3905" style="stroke: #000000; stroke-width: 0.6"/>
      </g>
     </g>
    </g>
    <g id="xtick_8">
     <g id="line2d_8">
      <g>
       <use xlink:href="#m066de173cb" x="186.039274" y="640.3905" style="stroke: #000000; stroke-width: 0.6"/>
      </g>
     </g>
    </g>
    <g id="xtick_9">
     <g id="line2d_9">
      <g>
       <use xlink:href="#m066de173cb" x="213.271428" y="640.3905" style="stroke: #000000; stroke-width: 0.6"/>
      </g>
     </g>
    </g>
    <g id="xtick_10">
     <g id="line2d_10">
      <g>
       <use xlink:href="#m066de173cb" x="267.735736" y="640.3905" style="stroke: #000000; stroke-width: 0.6"/>
      </g>
     </g>
    </g>
    <g id="xtick_11">
     <g id="line2d_11">
      <g>
       <use xlink:href="#m066de173cb" x="294.96789" y="640.3905" style="stroke: #000000; stroke-width: 0.6"/>
      </g>
     </g>
    </g>
    <g id="xtick_12">
     <g id="line2d_12">
      <g>
       <use xlink:href="#m066de173cb" x="322.200044" y="640.3905" style="stroke: #000000; stroke-width: 0.6"/>
      </g>
     </g>
    </g>
    <g id="xtick_13">
     <g id="line2d_13">
      <g>
       <use xlink:href="#m066de173cb" x="376.664352" y="640.3905" style="stroke: #000000; stroke-width: 0.6"/>
      </g>
     </g>
    </g>
    <g id="xtick_14">
     <g id="line2d_14">
      <g>
       <use xlink:href="#m066de173cb" x="403.896506" y="640.3905" style="stroke: #000000; stroke-width: 0.6"/>
      </g>
     </g>
    </g>
    <g id="xtick_15">
     <g id="line2d_15">
      <g>
       <use xlink:href="#m066de173cb" x="431.12866" y="640.3905" style="stroke: #000000; stroke-width: 0.6"/>
      </g>
     </g>
    </g>
    <g id="xtick_16">
     <g id="line2d_16">
      <g>
       <use xlink:href="#m066de173cb" x="485.592968" y="640.3905" style="stroke: #000000; stroke-width: 0.6"/>
      </g>
     </g>
    </g>
    <g id="xtick_17">
     <g id="line2d_17">
      <g>
       <use xlink:href="#m066de173cb" x="512.825122" y="640.3905" style="stroke: #000000; stroke-width: 0.6"/>
      </g>
     </g>
    </g>
    <g id="xtick_18">
     <g id="line2d_18">
      <g>
       <use xlink:href="#m066de173cb" x="540.057276" y="640.3905" style="stroke: #000000; stroke-width: 0.6"/>
      </g>
     </g>
    </g>
    <g id="xtick_19">
     <g id="line2d_19">
      <g>
       <use xlink:href="#m066de173cb" x="594.521584" y="640.3905" style="stroke: #000000; stroke-width: 0.6"/>
      </g>
     </g>
    </g>
    <g id="xtick_20">
     <g id="line2d_20">
      <g>
       <use xlink:href="#m066de173cb" x="621.753738" y="640.3905" style="stroke: #000000; stroke-width: 0.6"/>
      </g>
     </g>
    </g>
    <g id="xtick_21">
     <g id="line2d_21">
      <g>
       <use xlink:href="#m066de173cb" x="648.985892" y="640.3905" style="stroke: #000000; stroke-width: 0.6"/>
      </g>
     </g>
    </g>
    <g id="text_7">
     <!-- Time ps -->
     <g transform="translate(351.147176 697.59675) scale(0.3 -0.3)">
      <defs>
       <path id="LiberationSans-54" d="M 2250 3916 
L 2250 0 
L 1656 0 
L 1656 3916 
L 144 3916 
L 144 4403 
L 3763 4403 
L 3763 3916 
L 2250 3916 
z
" transform="scale(0.015625)"/>
       <path id="LiberationSans-69" d="M 428 4100 
L 428 4638 
L 991 4638 
L 991 4100 
L 428 4100 
z
M 428 0 
L 428 3381 
L 991 3381 
L 991 0 
L 428 0 
z
" transform="scale(0.015625)"/>
       <path id="LiberationSans-6d" d="M 2400 0 
L 2400 2144 
Q 2400 2634 2265 2821 
Q 2131 3009 1781 3009 
Q 1422 3009 1212 2734 
Q 1003 2459 1003 1959 
L 1003 0 
L 444 0 
L 444 2659 
Q 444 3250 425 3381 
L 956 3381 
Q 959 3366 962 3297 
Q 966 3228 970 3139 
Q 975 3050 981 2803 
L 991 2803 
Q 1172 3163 1406 3303 
Q 1641 3444 1978 3444 
Q 2363 3444 2586 3291 
Q 2809 3138 2897 2803 
L 2906 2803 
Q 3081 3144 3329 3294 
Q 3578 3444 3931 3444 
Q 4444 3444 4676 3166 
Q 4909 2888 4909 2253 
L 4909 0 
L 4353 0 
L 4353 2144 
Q 4353 2634 4218 2821 
Q 4084 3009 3734 3009 
Q 3366 3009 3161 2736 
Q 2956 2463 2956 1959 
L 2956 0 
L 2400 0 
z
" transform="scale(0.015625)"/>
       <path id="LiberationSans-65" d="M 863 1572 
Q 863 991 1103 675 
Q 1344 359 1806 359 
Q 2172 359 2392 506 
Q 2613 653 2691 878 
L 3184 738 
Q 2881 -63 1806 -63 
Q 1056 -63 664 384 
Q 272 831 272 1713 
Q 272 2550 664 2997 
Q 1056 3444 1784 3444 
Q 3275 3444 3275 1647 
L 3275 1572 
L 863 1572 
z
M 2694 2003 
Q 2647 2538 2422 2783 
Q 2197 3028 1775 3028 
Q 1366 3028 1127 2754 
Q 888 2481 869 2003 
L 2694 2003 
z
" transform="scale(0.015625)"/>
       <path id="LiberationSans-20" transform="scale(0.015625)"/>
       <path id="LiberationSans-70" d="M 3291 1706 
Q 3291 -63 2047 -63 
Q 1266 -63 997 525 
L 981 525 
Q 994 500 994 -6 
L 994 -1328 
L 431 -1328 
L 431 2691 
Q 431 3213 413 3381 
L 956 3381 
Q 959 3369 965 3292 
Q 972 3216 980 3056 
Q 988 2897 988 2838 
L 1000 2838 
Q 1150 3150 1397 3295 
Q 1644 3441 2047 3441 
Q 2672 3441 2981 3022 
Q 3291 2603 3291 1706 
z
M 2700 1694 
Q 2700 2400 2509 2703 
Q 2319 3006 1903 3006 
Q 1569 3006 1380 2865 
Q 1191 2725 1092 2426 
Q 994 2128 994 1650 
Q 994 984 1206 668 
Q 1419 353 1897 353 
Q 2316 353 2508 661 
Q 2700 969 2700 1694 
z
" transform="scale(0.015625)"/>
       <path id="LiberationSans-73" d="M 2969 934 
Q 2969 456 2608 196 
Q 2247 -63 1597 -63 
Q 966 -63 623 145 
Q 281 353 178 794 
L 675 891 
Q 747 619 972 492 
Q 1197 366 1597 366 
Q 2025 366 2223 497 
Q 2422 628 2422 891 
Q 2422 1091 2284 1216 
Q 2147 1341 1841 1422 
L 1438 1528 
Q 953 1653 748 1773 
Q 544 1894 428 2066 
Q 313 2238 313 2488 
Q 313 2950 642 3192 
Q 972 3434 1603 3434 
Q 2163 3434 2492 3237 
Q 2822 3041 2909 2606 
L 2403 2544 
Q 2356 2769 2151 2889 
Q 1947 3009 1603 3009 
Q 1222 3009 1040 2893 
Q 859 2778 859 2544 
Q 859 2400 934 2306 
Q 1009 2213 1156 2147 
Q 1303 2081 1775 1966 
Q 2222 1853 2419 1758 
Q 2616 1663 2730 1547 
Q 2844 1431 2906 1279 
Q 2969 1128 2969 934 
z
" transform="scale(0.015625)"/>
      </defs>
      <use xlink:href="#LiberationSans-54"/>
      <use xlink:href="#LiberationSans-69" x="57.333984"/>
      <use xlink:href="#LiberationSans-6d" x="79.550781"/>
      <use xlink:href="#LiberationSans-65" x="162.851562"/>
      <use xlink:href="#LiberationSans-20" x="218.466797"/>
      <use xlink:href="#LiberationSans-70" x="246.25"/>
      <use xlink:href="#LiberationSans-73" x="301.865234"/>
     </g>
    </g>
   </g>
   <g id="matplotlib.axis_2">
    <g id="ytick_1">
     <g id="line2d_22">
      <defs>
       <path id="m3ae7e1222c" d="M 0 0 
L 3.5 0 
" style="stroke: #000000; stroke-width: 0.8"/>
      </defs>
      <g>
       <use xlink:href="#m3ae7e1222c" x="104.4" y="581.886812" style="stroke: #000000; stroke-width: 0.8"/>
      </g>
     </g>
     <g id="text_8">
      <!-- $\mathdefault{−0.2}$ -->
      <g transform="translate(41.5 592.757124) scale(0.3 -0.3)">
       <defs>
        <path id="LiberationSans-2212" d="M 316 1900 
L 316 2356 
L 3425 2356 
L 3425 1900 
L 316 1900 
z
" transform="scale(0.015625)"/>
        <path id="LiberationSans-2e" d="M 584 0 
L 584 684 
L 1194 684 
L 1194 0 
L 584 0 
z
" transform="scale(0.015625)"/>
       </defs>
       <use xlink:href="#LiberationSans-2212" transform="translate(0 0.171875)"/>
       <use xlink:href="#LiberationSans-30" transform="translate(58.398438 0.171875)"/>
       <use xlink:href="#LiberationSans-2e" transform="translate(114.013672 0.171875)"/>
       <use xlink:href="#LiberationSans-32" transform="translate(141.796875 0.171875)"/>
      </g>
     </g>
    </g>
    <g id="ytick_2">
     <g id="line2d_23">
      <g>
       <use xlink:href="#m3ae7e1222c" x="104.4" y="494.415606" style="stroke: #000000; stroke-width: 0.8"/>
      </g>
     </g>
     <g id="text_9">
      <!-- $\mathdefault{0.0}$ -->
      <g transform="translate(58.9 505.285919) scale(0.3 -0.3)">
       <use xlink:href="#LiberationSans-30" transform="translate(0 0.171875)"/>
       <use xlink:href="#LiberationSans-2e" transform="translate(55.615234 0.171875)"/>
       <use xlink:href="#LiberationSans-30" transform="translate(83.398438 0.171875)"/>
      </g>
     </g>
    </g>
    <g id="ytick_3">
     <g id="line2d_24">
      <g>
       <use xlink:href="#m3ae7e1222c" x="104.4" y="406.944401" style="stroke: #000000; stroke-width: 0.8"/>
      </g>
     </g>
     <g id="text_10">
      <!-- $\mathdefault{0.2}$ -->
      <g transform="translate(58.9 417.814713) scale(0.3 -0.3)">
       <use xlink:href="#LiberationSans-30" transform="translate(0 0.171875)"/>
       <use xlink:href="#LiberationSans-2e" transform="translate(55.615234 0.171875)"/>
       <use xlink:href="#LiberationSans-32" transform="translate(83.398438 0.171875)"/>
      </g>
     </g>
    </g>
    <g id="ytick_4">
     <g id="line2d_25">
      <g>
       <use xlink:href="#m3ae7e1222c" x="104.4" y="319.473195" style="stroke: #000000; stroke-width: 0.8"/>
      </g>
     </g>
     <g id="text_11">
      <!-- $\mathdefault{0.4}$ -->
      <g transform="translate(58.9 330.343508) scale(0.3 -0.3)">
       <use xlink:href="#LiberationSans-30" transform="translate(0 0.171875)"/>
       <use xlink:href="#LiberationSans-2e" transform="translate(55.615234 0.171875)"/>
       <use xlink:href="#LiberationSans-34" transform="translate(83.398438 0.171875)"/>
      </g>
     </g>
    </g>
    <g id="ytick_5">
     <g id="line2d_26">
      <g>
       <use xlink:href="#m3ae7e1222c" x="104.4" y="232.00199" style="stroke: #000000; stroke-width: 0.8"/>
      </g>
     </g>
     <g id="text_12">
      <!-- $\mathdefault{0.6}$ -->
      <g transform="translate(58.9 242.872302) scale(0.3 -0.3)">
       <use xlink:href="#LiberationSans-30" transform="translate(0 0.171875)"/>
       <use xlink:href="#LiberationSans-2e" transform="translate(55.615234 0.171875)"/>
       <use xlink:href="#LiberationSans-36" transform="translate(83.398438 0.171875)"/>
      </g>
     </g>
    </g>
    <g id="ytick_6">
     <g id="line2d_27">
      <g>
       <use xlink:href="#m3ae7e1222c" x="104.4" y="144.530785" style="stroke: #000000; stroke-width: 0.8"/>
      </g>
     </g>
     <g id="text_13">
      <!-- $\mathdefault{0.8}$ -->
      <g transform="translate(58.9 155.401097) scale(0.3 -0.3)">
       <use xlink:href="#LiberationSans-30" transform="translate(0 0.171875)"/>
       <use xlink:href="#LiberationSans-2e" transform="translate(55.615234 0.171875)"/>
       <use xlink:href="#LiberationSans-38" transform="translate(83.398438 0.171875)"/>
      </g>
     </g>
    </g>
    <g id="ytick_7">
     <g id="line2d_28">
      <g>
       <use xlink:href="#m3ae7e1222c" x="104.4" y="57.059579" style="stroke: #000000; stroke-width: 0.8"/>
      </g>
     </g>
     <g id="text_14">
      <!-- $\mathdefault{1.0}$ -->
      <g transform="translate(58.9 67.929892) scale(0.3 -0.3)">
       <use xlink:href="#LiberationSans-31" transform="translate(0 0.171875)"/>
       <use xlink:href="#LiberationSans-2e" transform="translate(55.615234 0.171875)"/>
       <use xlink:href="#LiberationSans-30" transform="translate(83.398438 0.171875)"/>
      </g>
     </g>
    </g>
    <g id="ytick_8">
     <g id="line2d_29">
      <defs>
       <path id="m0b6c70f31e" d="M 0 0 
L 2 0 
" style="stroke: #000000; stroke-width: 0.6"/>
      </defs>
      <g>
       <use xlink:href="#m0b6c70f31e" x="104.4" y="625.622414" style="stroke: #000000; stroke-width: 0.6"/>
      </g>
     </g>
    </g>
    <g id="ytick_9">
     <g id="line2d_30">
      <g>
       <use xlink:href="#m0b6c70f31e" x="104.4" y="603.754613" style="stroke: #000000; stroke-width: 0.6"/>
      </g>
     </g>
    </g>
    <g id="ytick_10">
     <g id="line2d_31">
      <g>
       <use xlink:href="#m0b6c70f31e" x="104.4" y="560.01901" style="stroke: #000000; stroke-width: 0.6"/>
      </g>
     </g>
    </g>
    <g id="ytick_11">
     <g id="line2d_32">
      <g>
       <use xlink:href="#m0b6c70f31e" x="104.4" y="538.151209" style="stroke: #000000; stroke-width: 0.6"/>
      </g>
     </g>
    </g>
    <g id="ytick_12">
     <g id="line2d_33">
      <g>
       <use xlink:href="#m0b6c70f31e" x="104.4" y="516.283408" style="stroke: #000000; stroke-width: 0.6"/>
      </g>
     </g>
    </g>
    <g id="ytick_13">
     <g id="line2d_34">
      <g>
       <use xlink:href="#m0b6c70f31e" x="104.4" y="472.547805" style="stroke: #000000; stroke-width: 0.6"/>
      </g>
     </g>
    </g>
    <g id="ytick_14">
     <g id="line2d_35">
      <g>
       <use xlink:href="#m0b6c70f31e" x="104.4" y="450.680004" style="stroke: #000000; stroke-width: 0.6"/>
      </g>
     </g>
    </g>
    <g id="ytick_15">
     <g id="line2d_36">
      <g>
       <use xlink:href="#m0b6c70f31e" x="104.4" y="428.812202" style="stroke: #000000; stroke-width: 0.6"/>
      </g>
     </g>
    </g>
    <g id="ytick_16">
     <g id="line2d_37">
      <g>
       <use xlink:href="#m0b6c70f31e" x="104.4" y="385.076599" style="stroke: #000000; stroke-width: 0.6"/>
      </g>
     </g>
    </g>
    <g id="ytick_17">
     <g id="line2d_38">
      <g>
       <use xlink:href="#m0b6c70f31e" x="104.4" y="363.208798" style="stroke: #000000; stroke-width: 0.6"/>
      </g>
     </g>
    </g>
    <g id="ytick_18">
     <g id="line2d_39">
      <g>
       <use xlink:href="#m0b6c70f31e" x="104.4" y="341.340997" style="stroke: #000000; stroke-width: 0.6"/>
      </g>
     </g>
    </g>
    <g id="ytick_19">
     <g id="line2d_40">
      <g>
       <use xlink:href="#m0b6c70f31e" x="104.4" y="297.605394" style="stroke: #000000; stroke-width: 0.6"/>
      </g>
     </g>
    </g>
    <g id="ytick_20">
     <g id="line2d_41">
      <g>
       <use xlink:href="#m0b6c70f31e" x="104.4" y="275.737593" style="stroke: #000000; stroke-width: 0.6"/>
      </g>
     </g>
    </g>
    <g id="ytick_21">
     <g id="line2d_42">
      <g>
       <use xlink:href="#m0b6c70f31e" x="104.4" y="253.869791" style="stroke: #000000; stroke-width: 0.6"/>
      </g>
     </g>
    </g>
    <g id="ytick_22">
     <g id="line2d_43">
      <g>
       <use xlink:href="#m0b6c70f31e" x="104.4" y="210.134189" style="stroke: #000000; stroke-width: 0.6"/>
      </g>
     </g>
    </g>
    <g id="ytick_23">
     <g id="line2d_44">
      <g>
       <use xlink:href="#m0b6c70f31e" x="104.4" y="188.266387" style="stroke: #000000; stroke-width: 0.6"/>
      </g>
     </g>
    </g>
    <g id="ytick_24">
     <g id="line2d_45">
      <g>
       <use xlink:href="#m0b6c70f31e" x="104.4" y="166.398586" style="stroke: #000000; stroke-width: 0.6"/>
      </g>
     </g>
    </g>
    <g id="ytick_25">
     <g id="line2d_46">
      <g>
       <use xlink:href="#m0b6c70f31e" x="104.4" y="122.662983" style="stroke: #000000; stroke-width: 0.6"/>
      </g>
     </g>
    </g>
    <g id="ytick_26">
     <g id="line2d_47">
      <g>
       <use xlink:href="#m0b6c70f31e" x="104.4" y="100.795182" style="stroke: #000000; stroke-width: 0.6"/>
      </g>
     </g>
    </g>
    <g id="ytick_27">
     <g id="line2d_48">
      <g>
       <use xlink:href="#m0b6c70f31e" x="104.4" y="78.927381" style="stroke: #000000; stroke-width: 0.6"/>
      </g>
     </g>
    </g>
    <g id="text_15">
     <!-- HFACF $($W/m$^2)^2$ -->
     <g transform="translate(31.275 447.189) rotate(-90) scale(0.3 -0.3)">
      <defs>
       <path id="LiberationSans-48" d="M 3503 0 
L 3503 2041 
L 1122 2041 
L 1122 0 
L 525 0 
L 525 4403 
L 1122 4403 
L 1122 2541 
L 3503 2541 
L 3503 4403 
L 4100 4403 
L 4100 0 
L 3503 0 
z
" transform="scale(0.015625)"/>
       <path id="LiberationSans-46" d="M 1122 3916 
L 1122 2278 
L 3578 2278 
L 3578 1784 
L 1122 1784 
L 1122 0 
L 525 0 
L 525 4403 
L 3653 4403 
L 3653 3916 
L 1122 3916 
z
" transform="scale(0.015625)"/>
       <path id="LiberationSans-41" d="M 3647 0 
L 3144 1288 
L 1138 1288 
L 631 0 
L 13 0 
L 1809 4403 
L 2488 4403 
L 4256 0 
L 3647 0 
z
M 2141 3953 
L 2113 3866 
Q 2034 3606 1881 3200 
L 1319 1753 
L 2966 1753 
L 2400 3206 
Q 2313 3422 2225 3694 
L 2141 3953 
z
" transform="scale(0.015625)"/>
       <path id="LiberationSans-43" d="M 2475 3981 
Q 1744 3981 1337 3511 
Q 931 3041 931 2222 
Q 931 1413 1354 920 
Q 1778 428 2500 428 
Q 3425 428 3891 1344 
L 4378 1100 
Q 4106 531 3614 234 
Q 3122 -63 2472 -63 
Q 1806 -63 1320 214 
Q 834 491 579 1005 
Q 325 1519 325 2222 
Q 325 3275 894 3872 
Q 1463 4469 2469 4469 
Q 3172 4469 3644 4194 
Q 4116 3919 4338 3378 
L 3772 3191 
Q 3619 3575 3280 3778 
Q 2941 3981 2475 3981 
z
" transform="scale(0.015625)"/>
       <path id="STIXGeneral-Regular-28" d="M 1946 -1030 
L 1869 -1133 
Q 1126 -710 716 32 
Q 307 774 307 1613 
Q 307 3386 1888 4326 
L 1946 4224 
Q 1293 3667 1075 3126 
Q 858 2586 858 1632 
Q 858 685 1082 96 
Q 1306 -493 1946 -1030 
z
" transform="scale(0.015625)"/>
       <path id="LiberationSans-57" d="M 4722 0 
L 4009 0 
L 3247 2797 
Q 3172 3059 3028 3738 
Q 2947 3375 2890 3131 
Q 2834 2888 2038 0 
L 1325 0 
L 28 4403 
L 650 4403 
L 1441 1606 
Q 1581 1081 1700 525 
Q 1775 869 1873 1275 
Q 1972 1681 2741 4403 
L 3313 4403 
L 4078 1663 
Q 4253 991 4353 525 
L 4381 634 
Q 4466 994 4519 1220 
Q 4572 1447 5397 4403 
L 6019 4403 
L 4722 0 
z
" transform="scale(0.015625)"/>
       <path id="LiberationSans-2f" d="M 0 -63 
L 1284 4638 
L 1778 4638 
L 506 -63 
L 0 -63 
z
" transform="scale(0.015625)"/>
       <path id="STIXGeneral-Regular-32" d="M 3034 877 
L 2688 0 
L 186 0 
L 186 77 
L 1325 1286 
Q 1773 1754 1965 2144 
Q 2157 2534 2157 2950 
Q 2157 3379 1920 3616 
Q 1683 3853 1267 3853 
Q 922 3853 720 3673 
Q 518 3494 326 3021 
L 192 3053 
Q 301 3648 630 3987 
Q 960 4326 1523 4326 
Q 2054 4326 2380 4006 
Q 2707 3686 2707 3200 
Q 2707 2477 1888 1613 
L 832 486 
L 2330 486 
Q 2541 486 2665 569 
Q 2790 653 2944 915 
L 3034 877 
z
" transform="scale(0.015625)"/>
       <path id="STIXGeneral-Regular-29" d="M 186 4224 
L 262 4326 
Q 992 3891 1408 3148 
Q 1824 2406 1824 1581 
Q 1824 -166 243 -1133 
L 186 -1030 
Q 845 -486 1059 54 
Q 1274 595 1274 1562 
Q 1274 2534 1059 3120 
Q 845 3706 186 4224 
z
" transform="scale(0.015625)"/>
      </defs>
      <use xlink:href="#LiberationSans-48" transform="translate(0 0.409375)"/>
      <use xlink:href="#LiberationSans-46" transform="translate(72.216797 0.409375)"/>
      <use xlink:href="#LiberationSans-41" transform="translate(133.300781 0.409375)"/>
      <use xlink:href="#LiberationSans-43" transform="translate(200 0.409375)"/>
      <use xlink:href="#LiberationSans-46" transform="translate(272.216797 0.409375)"/>
      <use xlink:href="#LiberationSans-20" transform="translate(333.300781 0.409375)"/>
      <use xlink:href="#STIXGeneral-Regular-28" transform="translate(361.083984 0.409375)"/>
      <use xlink:href="#LiberationSans-57" transform="translate(394.383972 0.409375)"/>
      <use xlink:href="#LiberationSans-2f" transform="translate(488.768738 0.409375)"/>
      <use xlink:href="#LiberationSans-6d" transform="translate(516.551941 0.409375)"/>
      <use xlink:href="#STIXGeneral-Regular-32" transform="translate(601.396003 35.684375) scale(0.7)"/>
      <use xlink:href="#STIXGeneral-Regular-29" transform="translate(640.805368 0.409375)"/>
      <use xlink:href="#STIXGeneral-Regular-32" transform="translate(675.648637 35.684375) scale(0.7)"/>
     </g>
    </g>
    <g id="text_16">
     <!-- $\times\mathdefault{10^{19}}\mathdefault{}$ -->
     <g transform="translate(104.4 36.1875) scale(0.4 -0.4)">
      <defs>
       <path id="STIXGeneral-Regular-d7" d="M 3821 141 
L 3526 -160 
L 2048 1312 
L 570 -160 
L 275 134 
L 1747 1613 
L 275 3091 
L 576 3386 
L 2048 1914 
L 3526 3386 
L 3821 3098 
L 2349 1613 
L 3821 141 
z
" transform="scale(0.015625)"/>
       <path id="LiberationSans-39" d="M 3256 2291 
Q 3256 1156 2842 546 
Q 2428 -63 1663 -63 
Q 1147 -63 836 154 
Q 525 372 391 856 
L 928 941 
Q 1097 391 1672 391 
Q 2156 391 2422 841 
Q 2688 1291 2700 2125 
Q 2575 1844 2272 1673 
Q 1969 1503 1606 1503 
Q 1013 1503 656 1909 
Q 300 2316 300 2988 
Q 300 3678 687 4073 
Q 1075 4469 1766 4469 
Q 2500 4469 2878 3925 
Q 3256 3381 3256 2291 
z
M 2644 2834 
Q 2644 3366 2400 3689 
Q 2156 4013 1747 4013 
Q 1341 4013 1106 3736 
Q 872 3459 872 2988 
Q 872 2506 1106 2226 
Q 1341 1947 1741 1947 
Q 1984 1947 2193 2058 
Q 2403 2169 2523 2372 
Q 2644 2575 2644 2834 
z
" transform="scale(0.015625)"/>
      </defs>
      <use xlink:href="#STIXGeneral-Regular-d7" transform="translate(0 0.140625)"/>
      <use xlink:href="#LiberationSans-31" transform="translate(63.999985 0.140625)"/>
      <use xlink:href="#LiberationSans-30" transform="translate(119.615219 0.140625)"/>
      <use xlink:href="#LiberationSans-31" transform="translate(176.154946 37.120312) scale(0.7)"/>
      <use xlink:href="#LiberationSans-39" transform="translate(215.08561 37.120312) scale(0.7)"/>
     </g>
    </g>
   </g>
   <g id="line2d_49">
    <path d="M 131.629431 66.514909 
L 131.901752 79.293919 
L 132.228538 104.134444 
L 132.664253 156.409685 
L 133.372289 271.713438 
L 134.733896 493.983183 
L 135.333004 558.57485 
L 135.823182 591.603859 
L 136.258897 607.340006 
L 136.585683 612.368834 
L 136.80354 613.063091 
L 136.966933 612.39719 
L 137.18479 610.356135 
L 137.56604 604.225848 
L 138.165148 590.818147 
L 141.269613 519.355285 
L 142.358899 500.797215 
L 143.1214 491.665303 
L 143.557114 488.271519 
L 143.992829 486.334156 
L 144.374079 485.730363 
L 144.591936 485.821781 
L 145.027651 486.70707 
L 146.171401 490.919401 
L 146.770508 492.911609 
L 147.587473 494.376813 
L 148.023187 494.508019 
L 148.241045 494.434235 
L 149.058009 493.795548 
L 149.657117 493.226172 
L 150.147295 492.923846 
L 150.310688 492.846317 
L 150.96426 493.054173 
L 152.816047 494.953131 
L 153.796404 495.062076 
L 154.12319 494.935116 
L 154.558904 494.65987 
L 155.049083 494.305714 
L 155.430333 493.980095 
L 158.04462 491.527701 
L 158.371406 491.498473 
L 158.698192 491.651963 
L 159.079442 491.806537 
L 159.406228 491.934811 
L 159.896407 492.352359 
L 160.604443 493.290366 
L 162.510693 495.836634 
L 163.164265 496.207616 
L 163.708908 496.252651 
L 164.471408 495.972675 
L 165.996409 494.630248 
L 166.976767 493.817956 
L 167.630338 493.556546 
L 168.229446 493.553633 
L 169.155339 493.913794 
L 171.660697 495.362286 
L 172.368733 495.407971 
L 173.076769 495.201894 
L 174.329448 494.446713 
L 175.854449 493.580003 
L 176.562485 493.550478 
L 177.324985 493.853729 
L 178.087485 494.470424 
L 179.775879 496.240916 
L 180.592844 496.750514 
L 181.028558 496.824195 
L 181.627665 496.642607 
L 181.954451 496.397438 
L 182.553559 495.69613 
L 183.316059 494.340061 
L 185.440167 490.18676 
L 185.875881 489.880912 
L 186.148203 489.872887 
L 186.529453 490.165767 
L 187.019632 490.879612 
L 187.727668 492.390929 
L 189.252669 495.840328 
L 189.851776 496.623742 
L 190.28749 496.879571 
L 190.723205 496.863096 
L 191.104455 496.679709 
L 191.594634 496.243783 
L 192.411598 495.232507 
L 193.773206 493.695955 
L 194.263385 493.376949 
L 194.808028 493.230357 
L 195.407135 493.291974 
L 195.897314 493.463056 
L 196.768743 493.956391 
L 198.674994 495.12615 
L 199.709816 495.308501 
L 200.472316 495.091315 
L 201.343745 494.54542 
L 203.141067 493.202984 
L 203.740174 493.07382 
L 204.230353 493.167211 
L 204.774996 493.508011 
L 205.428568 494.226439 
L 207.770533 497.325077 
L 208.369641 497.617722 
L 208.914284 497.561648 
L 209.458927 497.152118 
L 209.949106 496.51748 
L 210.874999 494.767804 
L 212.454464 491.783854 
L 213.108035 491.190043 
L 213.380357 491.12547 
L 213.870536 491.403947 
L 214.415179 492.016291 
L 215.776787 494.060177 
L 216.430358 494.830019 
L 217.029466 495.22248 
L 217.574109 495.311305 
L 218.064287 495.205227 
L 218.990181 494.726363 
L 221.114289 493.762328 
L 221.76786 493.723908 
L 222.584825 493.921547 
L 223.728575 494.560938 
L 225.471433 495.77946 
L 226.560719 496.042937 
L 227.214291 495.945438 
L 227.976791 495.615976 
L 229.120542 494.76603 
L 231.571436 492.612621 
L 232.225008 492.455511 
L 232.660722 492.563719 
L 233.314294 493.065294 
L 233.858937 493.747547 
L 235.983045 496.643378 
L 236.418759 496.808124 
L 236.800009 496.742885 
L 237.235724 496.396615 
L 237.725903 495.696893 
L 238.488403 494.135185 
L 239.904475 491.289193 
L 240.394654 490.777267 
L 240.72144 490.682374 
L 241.157154 490.876405 
L 241.647333 491.424002 
L 242.355369 492.657245 
L 243.662512 495.164213 
L 244.316084 495.975376 
L 244.751798 496.257248 
L 245.296441 496.305956 
L 245.950013 496.016665 
L 246.712513 495.339804 
L 248.019657 494.163917 
L 248.891086 493.782586 
L 249.3268 493.775928 
L 250.034836 493.972916 
L 251.015194 494.492022 
L 252.48573 495.339339 
L 253.139302 495.511507 
L 254.174124 495.429422 
L 255.045553 495.039085 
L 257.714304 493.313409 
L 258.42234 493.175347 
L 259.293769 493.38202 
L 259.892876 493.782322 
L 260.982162 494.9014 
L 261.799127 495.779272 
L 262.616091 496.409645 
L 263.269663 496.584714 
L 263.759842 496.460533 
L 264.141092 496.203651 
L 264.576806 495.713311 
L 265.230378 494.635704 
L 267.354486 490.898097 
L 267.790201 490.638362 
L 268.008058 490.716741 
L 268.334844 490.900078 
L 268.770558 491.395957 
L 269.42413 492.524617 
L 271.058059 495.596094 
L 271.602702 496.181152 
L 272.147345 496.436728 
L 272.528595 496.41983 
L 273.127703 496.14048 
L 273.672346 495.675553 
L 274.925025 494.315701 
L 275.796454 493.549748 
L 276.50449 493.272789 
L 277.049133 493.288139 
L 277.920562 493.635842 
L 278.846455 494.293447 
L 280.589313 495.575558 
L 281.406278 495.888983 
L 282.005385 495.899403 
L 282.658957 495.685908 
L 283.149135 495.387099 
L 283.857171 494.700597 
L 285.872351 492.788327 
L 286.416994 492.582831 
L 287.016101 492.638943 
L 287.88753 493.185719 
L 289.521459 494.952313 
L 290.175031 495.553984 
L 290.883067 495.90385 
L 291.373246 495.893358 
L 291.754496 495.717679 
L 292.299139 495.226246 
L 293.116104 494.117845 
L 294.20539 492.664251 
L 294.695569 492.294226 
L 295.022355 492.168895 
L 295.294676 492.316068 
L 295.839319 492.845232 
L 296.329498 493.592603 
L 298.399142 497.02455 
L 298.834856 497.288537 
L 299.325035 497.288579 
L 299.760749 497.053758 
L 300.414321 496.401714 
L 301.775929 494.612754 
L 302.375036 493.95552 
L 302.974144 493.525165 
L 303.409858 493.347875 
L 304.117894 493.345939 
L 305.261644 493.744807 
L 307.004502 494.449429 
L 308.74736 494.576488 
L 309.836646 494.377935 
L 312.233076 493.666495 
L 312.832183 493.641937 
L 313.376826 493.704869 
L 314.629505 494.272355 
L 317.407185 495.928004 
L 318.060757 495.927131 
L 318.714329 495.568266 
L 319.313436 494.879736 
L 319.912543 493.917899 
L 321.76433 490.896269 
L 322.254509 490.578975 
L 322.52683 490.747163 
L 323.017009 491.250999 
L 323.833973 492.703755 
L 325.467903 495.907428 
L 326.06701 496.565856 
L 326.666117 496.816786 
L 327.265225 496.676046 
L 327.755404 496.332799 
L 328.354511 495.706691 
L 329.770583 494.075701 
L 330.424155 493.593224 
L 330.914333 493.458158 
L 331.676834 493.636798 
L 332.330405 494.053448 
L 334.672371 495.640262 
L 335.380407 495.717346 
L 336.088443 495.549817 
L 336.68755 495.244387 
L 337.613443 494.585286 
L 339.519694 493.160787 
L 340.445587 492.967358 
L 340.935766 493.066635 
L 341.480409 493.365009 
L 342.678624 494.58907 
L 343.550053 495.611345 
L 344.475946 496.417294 
L 345.129518 496.610553 
L 345.619697 496.488631 
L 346.055411 496.177345 
L 346.708983 495.342715 
L 347.634876 493.694874 
L 348.451841 492.289956 
L 349.105412 491.550729 
L 349.595591 491.366471 
L 349.976841 491.513533 
L 350.412556 491.910566 
L 351.066127 492.86306 
L 352.808985 495.639653 
L 353.353628 496.069478 
L 353.843807 496.200946 
L 354.225057 496.145717 
L 354.987558 495.763765 
L 355.750058 495.159424 
L 357.656309 493.867928 
L 358.364345 493.734116 
L 359.017916 493.827962 
L 359.834881 494.164111 
L 360.597381 494.606863 
L 361.795596 495.168904 
L 362.939347 495.290365 
L 364.028633 495.017397 
L 365.172383 494.545284 
L 366.152741 494.092731 
L 367.078634 493.92783 
L 367.732206 494.021302 
L 368.494706 494.413467 
L 369.420599 495.196877 
L 370.727743 496.377214 
L 371.544707 496.823358 
L 372.143815 496.885423 
L 372.633993 496.719335 
L 373.233101 496.21621 
L 373.832208 495.35937 
L 374.758101 493.569728 
L 375.847388 491.562555 
L 376.446495 490.931596 
L 376.882209 490.853175 
L 377.372388 491.192626 
L 377.917031 491.914877 
L 380.204532 495.57275 
L 380.694711 495.83961 
L 381.293818 495.826277 
L 382.110783 495.324862 
L 383.036676 494.392751 
L 384.34382 493.268898 
L 384.997391 493.0178 
L 385.542034 493.051715 
L 385.977749 493.218682 
L 386.849178 493.823957 
L 389.463465 495.98312 
L 390.280429 496.16141 
L 390.825072 496.049253 
L 391.533108 495.624288 
L 392.513466 494.607422 
L 394.038466 492.877973 
L 394.637574 492.518352 
L 395.073288 492.436268 
L 395.672396 492.642787 
L 396.217039 493.132539 
L 397.524182 494.953976 
L 398.286682 495.941711 
L 398.776861 496.376667 
L 399.26704 496.564188 
L 399.811683 496.461349 
L 400.301862 496.085166 
L 400.792041 495.448201 
L 401.554541 494.086829 
L 403.134006 491.24543 
L 403.624185 490.764104 
L 403.95097 490.561125 
L 404.168828 490.67196 
L 404.495614 490.89717 
L 404.985792 491.517458 
L 405.748293 492.945762 
L 407.000972 495.429672 
L 407.763472 496.366698 
L 408.362579 496.689213 
L 409.016151 496.659526 
L 409.669723 496.343159 
L 411.140259 495.165086 
L 412.338474 494.410036 
L 413.264367 494.281255 
L 413.80901 494.344533 
L 415.116154 494.732887 
L 416.150975 495.021659 
L 416.913476 495.10449 
L 418.002762 495.072653 
L 419.200977 494.817569 
L 422.250978 493.843861 
L 422.90455 493.9923 
L 423.721514 494.504229 
L 424.375086 495.072545 
L 425.083122 495.689744 
L 425.954551 496.229041 
L 426.390265 496.320232 
L 426.880444 496.250261 
L 427.425087 495.908583 
L 428.078659 495.126953 
L 428.786695 493.908746 
L 430.420624 491.00884 
L 430.965267 490.571487 
L 431.237589 490.540775 
L 431.618839 490.809471 
L 432.109018 491.472377 
L 432.871518 493.003733 
L 434.450983 496.328262 
L 435.05009 497.077743 
L 435.540269 497.391943 
L 435.921519 497.441941 
L 436.411698 497.297618 
L 436.956341 496.883045 
L 437.82777 495.826917 
L 439.951878 493.00599 
L 440.659914 492.547597 
L 441.204557 492.423049 
L 441.858129 492.535925 
L 442.5117 492.903774 
L 444.036701 494.225195 
L 445.234916 495.148556 
L 445.888488 495.356848 
L 446.378666 495.328125 
L 446.759916 495.190352 
L 447.413488 494.698868 
L 448.884024 493.343414 
L 449.537596 493.03547 
L 450.082239 493.096517 
L 450.572418 493.420451 
L 451.334918 494.328979 
L 452.859919 496.378547 
L 453.459026 496.759493 
L 454.003669 496.776262 
L 454.548313 496.402799 
L 455.038491 495.780385 
L 455.855456 494.278384 
L 457.489385 491.312065 
L 457.979564 490.896477 
L 458.30635 490.810361 
L 458.578671 490.904818 
L 459.123314 491.442783 
L 459.722422 492.362954 
L 461.683137 495.508244 
L 462.22778 495.884886 
L 462.772423 495.956234 
L 463.153673 495.834949 
L 463.861709 495.337496 
L 466.14921 493.20677 
L 466.857246 493.094085 
L 467.401889 493.286524 
L 468.164389 493.933524 
L 470.669748 496.562783 
L 471.214391 496.66309 
L 471.70457 496.543055 
L 472.249213 496.174995 
L 472.793856 495.630935 
L 475.353678 492.881953 
L 475.898321 492.72218 
L 476.3885 492.771893 
L 476.933143 493.034188 
L 477.423322 493.449042 
L 478.294751 494.468866 
L 479.656358 496.026417 
L 480.364394 496.470123 
L 480.963502 496.563162 
L 481.671538 496.303618 
L 482.216181 495.828131 
L 482.978681 494.787591 
L 484.013503 493.009142 
L 484.884932 491.726337 
L 485.484039 491.233563 
L 485.86529 491.188527 
L 486.192075 491.315172 
L 486.682254 491.756583 
L 487.335826 492.684818 
L 489.242077 495.606327 
L 489.950113 496.088261 
L 490.494756 496.162366 
L 491.148327 495.956599 
L 491.692971 495.578791 
L 492.673328 494.69059 
L 493.762614 493.774412 
L 494.416186 493.463133 
L 495.069758 493.367023 
L 495.668865 493.442923 
L 496.431365 493.757084 
L 497.193866 494.278276 
L 499.209045 495.770271 
L 499.862617 496.035198 
L 500.516188 496.079335 
L 501.006367 495.95954 
L 501.55101 495.620757 
L 502.640296 494.654744 
L 503.784047 493.814948 
L 504.32869 493.677055 
L 504.873333 493.770594 
L 505.962619 494.522497 
L 507.215298 495.437861 
L 507.705477 495.625408 
L 508.359049 495.603025 
L 509.01262 495.265596 
L 509.557264 494.76115 
L 510.374228 493.71681 
L 511.517979 492.204571 
L 512.17155 491.668133 
L 512.661729 491.546344 
L 512.988515 491.63571 
L 513.424229 491.995637 
L 514.023337 492.802251 
L 515.112623 494.695186 
L 515.929588 495.901428 
L 516.583159 496.453985 
L 517.073338 496.60471 
L 517.672445 496.47952 
L 518.217088 496.144507 
L 518.761732 495.634196 
L 519.796553 494.445062 
L 520.88584 493.276811 
L 521.702804 492.791469 
L 522.138519 492.698478 
L 522.846555 492.770088 
L 523.717984 493.234389 
L 525.242984 494.587314 
L 526.168877 495.322189 
L 526.822449 495.621228 
L 527.476021 495.660755 
L 527.9662 495.533702 
L 528.674236 495.105222 
L 530.798344 493.601398 
L 531.342987 493.529952 
L 531.942094 493.701096 
L 532.65013 494.201607 
L 533.41263 494.909936 
L 534.501917 495.791356 
L 535.101024 496.034826 
L 535.754596 496.018635 
L 536.299239 495.737127 
L 536.95281 495.062771 
L 537.769775 493.802232 
L 539.294776 491.448655 
L 539.73049 491.123696 
L 540.166205 491.097379 
L 540.601919 491.435747 
L 541.092098 492.117529 
L 541.854598 493.590939 
L 543.161742 496.037948 
L 543.760849 496.62741 
L 544.196563 496.771808 
L 544.686742 496.67959 
L 545.558171 496.024104 
L 547.57335 494.037906 
L 548.553708 493.5255 
L 549.370673 493.402369 
L 550.514423 493.540525 
L 551.603709 494.037948 
L 553.401031 495.092072 
L 554.163532 495.346811 
L 554.871568 495.335455 
L 555.579604 495.070796 
L 556.178711 494.644647 
L 558.084962 493.347129 
L 558.629605 493.272289 
L 559.010855 493.351144 
L 559.609963 493.709328 
L 561.134963 495.353635 
L 562.006392 496.24343 
L 562.605499 496.575239 
L 563.041214 496.624096 
L 563.531393 496.429299 
L 564.076036 495.877348 
L 564.675143 494.913714 
L 565.492108 493.209016 
L 566.363537 491.480984 
L 566.962644 490.712687 
L 567.452823 490.517251 
L 567.779609 490.674553 
L 568.215323 491.186147 
L 568.759966 492.226974 
L 569.794788 494.779372 
L 570.611753 496.56274 
L 571.21086 497.383567 
L 571.646575 497.672188 
L 572.027825 497.708553 
L 572.572468 497.441384 
L 573.062647 496.935431 
L 573.879611 495.717333 
L 575.51354 493.066263 
L 576.112648 492.449809 
L 576.657291 492.181851 
L 577.038541 492.153487 
L 577.583184 492.360357 
L 578.182292 492.873054 
L 580.415328 495.210707 
L 581.014436 495.443389 
L 581.559079 495.4468 
L 582.321579 495.211628 
L 584.500151 494.117822 
L 585.153723 494.031825 
L 585.698366 494.071154 
L 586.733188 494.485202 
L 589.29301 496.10269 
L 590.001046 496.201903 
L 590.491225 496.058882 
L 591.035868 495.672702 
L 591.68944 494.847573 
L 592.669797 493.156873 
L 593.595691 491.680267 
L 594.140334 491.191675 
L 594.576048 491.051223 
L 594.902834 491.300974 
L 595.284084 491.718053 
L 595.937656 492.807301 
L 597.734978 496.182154 
L 598.334085 496.808867 
L 598.824264 497.03397 
L 599.259979 497.027264 
L 599.859086 496.747326 
L 600.567122 496.107286 
L 602.800159 493.673729 
L 603.399266 493.413938 
L 603.834981 493.397877 
L 604.543017 493.649886 
L 605.523374 494.446315 
L 606.776053 495.602816 
L 607.375161 495.955825 
L 608.028732 496.119715 
L 608.682304 495.995182 
L 609.335876 495.604564 
L 610.261769 494.674392 
L 611.568912 493.156682 
L 612.331413 492.607929 
L 612.93052 492.451274 
L 613.529627 492.599791 
L 614.128735 493.037809 
L 614.945699 493.936351 
L 615.871593 495.113276 
L 616.85195 496.118644 
L 617.505522 496.382224 
L 617.995701 496.270333 
L 618.540344 495.808235 
L 619.139451 494.936058 
L 619.956416 493.383594 
L 620.77338 491.911755 
L 621.372488 491.208913 
L 621.808202 490.947414 
L 622.134988 491.167939 
L 622.516238 491.557678 
L 623.060881 492.418632 
L 625.457311 496.668341 
L 625.94749 496.957714 
L 626.32874 496.992646 
L 626.818919 496.787472 
L 627.363562 496.301013 
L 628.343919 494.973301 
L 629.596598 493.296784 
L 630.195706 492.789217 
L 630.958206 492.581359 
L 631.557313 492.691054 
L 632.537671 493.218764 
L 634.879636 494.817881 
L 635.751065 495.142986 
L 636.513565 495.181923 
L 637.221601 494.984054 
L 638.746602 493.99077 
L 639.509102 493.61179 
L 640.162674 493.536779 
L 640.87071 493.858947 
L 641.469817 494.466086 
L 642.450175 495.830481 
L 643.64839 497.397364 
L 644.301961 497.817794 
L 644.683212 497.851916 
L 645.118926 497.657746 
L 645.609105 497.136171 
L 646.208212 496.098537 
L 647.18857 493.832645 
L 648.005534 492.03142 
L 648.604642 491.140738 
L 649.040356 490.779168 
L 649.258213 490.881198 
L 649.584999 491.092955 
L 650.075178 491.678354 
L 650.837678 493.007513 
L 652.035893 495.264269 
L 652.743929 496.195882 
L 653.288572 496.590461 
L 653.724287 496.695437 
L 654.377858 496.513676 
L 654.813573 496.195481 
L 655.739466 495.165952 
L 657.645717 493.219808 
L 658.19036 493.110401 
L 658.789467 493.243981 
L 659.551968 493.724583 
L 660.423397 494.50751 
L 661.34929 495.229917 
L 662.384112 495.63055 
L 663.310005 495.539391 
L 664.072505 495.201558 
L 664.726077 494.764035 
L 665.978756 493.820235 
L 666.741256 493.441024 
L 667.721614 493.30185 
L 668.375185 493.48891 
L 669.301079 494.091966 
L 671.316258 495.683685 
L 671.96983 495.818297 
L 672.460009 495.660273 
L 673.004652 495.187964 
L 673.603759 494.359443 
L 674.584117 492.623649 
L 675.401081 491.413826 
L 675.945724 491.004305 
L 676.218046 490.962464 
L 676.218046 490.962464 
" clip-path="url(#pc6931bacb2)" style="fill: none; stroke: #0000ff; stroke-width: 1.5; stroke-linecap: square"/>
   </g>
   <g id="patch_3">
    <path d="M 104.4 640.3905 
L 104.4 39.1875 
" style="fill: none; stroke: #000000; stroke-width: 0.8; stroke-linejoin: miter; stroke-linecap: square"/>
   </g>
   <g id="patch_4">
    <path d="M 703.447477 640.3905 
L 703.447477 39.1875 
" style="fill: none; stroke: #000000; stroke-width: 0.8; stroke-linejoin: miter; stroke-linecap: square"/>
   </g>
   <g id="patch_5">
    <path d="M 104.4 640.3905 
L 703.447477 640.3905 
" style="fill: none; stroke: #000000; stroke-width: 0.8; stroke-linejoin: miter; stroke-linecap: square"/>
   </g>
   <g id="patch_6">
    <path d="M 104.4 39.1875 
L 703.447477 39.1875 
" style="fill: none; stroke: #000000; stroke-width: 0.8; stroke-linejoin: miter; stroke-linecap: square"/>
   </g>
  </g>
 </g>
 <defs>
  <clipPath id="pc6931bacb2">
   <rect x="104.4" y="39.1875" width="599.047477" height="601.203"/>
  </clipPath>
 </defs>
</svg>
