<?xml version="1.0" encoding="utf-8" standalone="no"?>
<!DOCTYPE svg PUBLIC "-//W3C//DTD SVG 1.1//EN"
  "http://www.w3.org/Graphics/SVG/1.1/DTD/svg11.dtd">
<svg xmlns:xlink="http://www.w3.org/1999/xlink" width="711.485625pt" height="710.94975pt" viewBox="0 0 711.485625 710.94975" xmlns="http://www.w3.org/2000/svg" version="1.1">
 <metadata>
  <rdf:RDF xmlns:dc="http://purl.org/dc/elements/1.1/" xmlns:cc="http://creativecommons.org/ns#" xmlns:rdf="http://www.w3.org/1999/02/22-rdf-syntax-ns#">
   <cc:Work>
    <dc:type rdf:resource="http://purl.org/dc/dcmitype/StillImage"/>
    <dc:date>2025-01-30T22:38:39.278717</dc:date>
    <dc:format>image/svg+xml</dc:format>
    <dc:creator>
     <cc:Agent>
      <dc:title>Matplotlib v3.9.3, https://matplotlib.org/</dc:title>
     </cc:Agent>
    </dc:creator>
   </cc:Work>
  </rdf:RDF>
 </metadata>
 <defs>
  <style type="text/css">*{stroke-linejoin: round; stroke-linecap: butt}</style>
 </defs>
 <g id="figure_1">
  <g id="patch_1">
   <path d="M 0 710.94975 
L 711.485625 710.94975 
L 711.485625 0 
L 0 0 
z
" style="fill: #ffffff"/>
  </g>
  <g id="axes_1">
   <g id="patch_2">
    <path d="M 59.465625 640.3185 
L 704.285625 640.3185 
L 704.285625 39.1875 
L 59.465625 39.1875 
z
" style="fill: #ffffff"/>
   </g>
   <g id="matplotlib.axis_1">
    <g id="xtick_1">
     <g id="line2d_1">
      <defs>
       <path id="m740bc8fdab" d="M 0 0 
L 0 -3.5 
" style="stroke: #000000; stroke-width: 0.8"/>
      </defs>
      <g>
       <use xlink:href="#m740bc8fdab" x="88.716993" y="640.3185" style="stroke: #000000; stroke-width: 0.8"/>
      </g>
     </g>
     <g id="text_1">
      <!-- 0 -->
      <g transform="translate(80.375587 665.559125) scale(0.3 -0.3)">
       <defs>
        <path id="LiberationSans-30" d="M 3309 2203 
Q 3309 1100 2920 518 
Q 2531 -63 1772 -63 
Q 1013 -63 631 515 
Q 250 1094 250 2203 
Q 250 3338 620 3903 
Q 991 4469 1791 4469 
Q 2569 4469 2939 3897 
Q 3309 3325 3309 2203 
z
M 2738 2203 
Q 2738 3156 2517 3584 
Q 2297 4013 1791 4013 
Q 1272 4013 1045 3591 
Q 819 3169 819 2203 
Q 819 1266 1048 831 
Q 1278 397 1778 397 
Q 2275 397 2506 840 
Q 2738 1284 2738 2203 
z
" transform="scale(0.015625)"/>
       </defs>
       <use xlink:href="#LiberationSans-30"/>
      </g>
     </g>
    </g>
    <g id="xtick_2">
     <g id="line2d_2">
      <g>
       <use xlink:href="#m740bc8fdab" x="205.980446" y="640.3185" style="stroke: #000000; stroke-width: 0.8"/>
      </g>
     </g>
     <g id="text_2">
      <!-- 2 -->
      <g transform="translate(197.63904 665.559125) scale(0.3 -0.3)">
       <defs>
        <path id="LiberationSans-32" d="M 322 0 
L 322 397 
Q 481 763 711 1042 
Q 941 1322 1194 1548 
Q 1447 1775 1695 1969 
Q 1944 2163 2144 2356 
Q 2344 2550 2467 2762 
Q 2591 2975 2591 3244 
Q 2591 3606 2378 3806 
Q 2166 4006 1788 4006 
Q 1428 4006 1195 3811 
Q 963 3616 922 3263 
L 347 3316 
Q 409 3844 795 4156 
Q 1181 4469 1788 4469 
Q 2453 4469 2811 4155 
Q 3169 3841 3169 3263 
Q 3169 3006 3051 2753 
Q 2934 2500 2703 2247 
Q 2472 1994 1819 1463 
Q 1459 1169 1246 933 
Q 1034 697 941 478 
L 3238 478 
L 3238 0 
L 322 0 
z
" transform="scale(0.015625)"/>
       </defs>
       <use xlink:href="#LiberationSans-32"/>
      </g>
     </g>
    </g>
    <g id="xtick_3">
     <g id="line2d_3">
      <g>
       <use xlink:href="#m740bc8fdab" x="323.243899" y="640.3185" style="stroke: #000000; stroke-width: 0.8"/>
      </g>
     </g>
     <g id="text_3">
      <!-- 4 -->
      <g transform="translate(314.902492 665.559125) scale(0.3 -0.3)">
       <defs>
        <path id="LiberationSans-34" d="M 2753 997 
L 2753 0 
L 2222 0 
L 2222 997 
L 147 997 
L 147 1434 
L 2163 4403 
L 2753 4403 
L 2753 1441 
L 3372 1441 
L 3372 997 
L 2753 997 
z
M 2222 3769 
Q 2216 3750 2134 3603 
Q 2053 3456 2013 3397 
L 884 1734 
L 716 1503 
L 666 1441 
L 2222 1441 
L 2222 3769 
z
" transform="scale(0.015625)"/>
       </defs>
       <use xlink:href="#LiberationSans-34"/>
      </g>
     </g>
    </g>
    <g id="xtick_4">
     <g id="line2d_4">
      <g>
       <use xlink:href="#m740bc8fdab" x="440.507351" y="640.3185" style="stroke: #000000; stroke-width: 0.8"/>
      </g>
     </g>
     <g id="text_4">
      <!-- 6 -->
      <g transform="translate(432.165945 665.559125) scale(0.3 -0.3)">
       <defs>
        <path id="LiberationSans-36" d="M 3278 1441 
Q 3278 744 2900 340 
Q 2522 -63 1856 -63 
Q 1113 -63 719 490 
Q 325 1044 325 2100 
Q 325 3244 734 3856 
Q 1144 4469 1900 4469 
Q 2897 4469 3156 3572 
L 2619 3475 
Q 2453 4013 1894 4013 
Q 1413 4013 1148 3564 
Q 884 3116 884 2266 
Q 1038 2550 1316 2698 
Q 1594 2847 1953 2847 
Q 2563 2847 2920 2465 
Q 3278 2084 3278 1441 
z
M 2706 1416 
Q 2706 1894 2472 2153 
Q 2238 2413 1819 2413 
Q 1425 2413 1183 2183 
Q 941 1953 941 1550 
Q 941 1041 1192 716 
Q 1444 391 1838 391 
Q 2244 391 2475 664 
Q 2706 938 2706 1416 
z
" transform="scale(0.015625)"/>
       </defs>
       <use xlink:href="#LiberationSans-36"/>
      </g>
     </g>
    </g>
    <g id="xtick_5">
     <g id="line2d_5">
      <g>
       <use xlink:href="#m740bc8fdab" x="557.770804" y="640.3185" style="stroke: #000000; stroke-width: 0.8"/>
      </g>
     </g>
     <g id="text_5">
      <!-- 8 -->
      <g transform="translate(549.429398 665.559125) scale(0.3 -0.3)">
       <defs>
        <path id="LiberationSans-38" d="M 3281 1228 
Q 3281 619 2893 278 
Q 2506 -63 1781 -63 
Q 1075 -63 676 271 
Q 278 606 278 1222 
Q 278 1653 525 1947 
Q 772 2241 1156 2303 
L 1156 2316 
Q 797 2400 589 2681 
Q 381 2963 381 3341 
Q 381 3844 757 4156 
Q 1134 4469 1769 4469 
Q 2419 4469 2795 4162 
Q 3172 3856 3172 3334 
Q 3172 2956 2962 2675 
Q 2753 2394 2391 2322 
L 2391 2309 
Q 2813 2241 3047 1952 
Q 3281 1663 3281 1228 
z
M 2588 3303 
Q 2588 4050 1769 4050 
Q 1372 4050 1164 3862 
Q 956 3675 956 3303 
Q 956 2925 1170 2726 
Q 1384 2528 1775 2528 
Q 2172 2528 2380 2711 
Q 2588 2894 2588 3303 
z
M 2697 1281 
Q 2697 1691 2453 1898 
Q 2209 2106 1769 2106 
Q 1341 2106 1100 1882 
Q 859 1659 859 1269 
Q 859 359 1788 359 
Q 2247 359 2472 579 
Q 2697 800 2697 1281 
z
" transform="scale(0.015625)"/>
       </defs>
       <use xlink:href="#LiberationSans-38"/>
      </g>
     </g>
    </g>
    <g id="xtick_6">
     <g id="line2d_6">
      <g>
       <use xlink:href="#m740bc8fdab" x="675.034257" y="640.3185" style="stroke: #000000; stroke-width: 0.8"/>
      </g>
     </g>
     <g id="text_6">
      <!-- 10 -->
      <g transform="translate(658.351444 665.559125) scale(0.3 -0.3)">
       <defs>
        <path id="LiberationSans-31" d="M 488 0 
L 488 478 
L 1609 478 
L 1609 3866 
L 616 3156 
L 616 3688 
L 1656 4403 
L 2175 4403 
L 2175 478 
L 3247 478 
L 3247 0 
L 488 0 
z
" transform="scale(0.015625)"/>
       </defs>
       <use xlink:href="#LiberationSans-31"/>
       <use xlink:href="#LiberationSans-30" x="55.615234"/>
      </g>
     </g>
    </g>
    <g id="xtick_7">
     <g id="line2d_7">
      <defs>
       <path id="m2629b23a49" d="M 0 0 
L 0 -2 
" style="stroke: #000000; stroke-width: 0.6"/>
      </defs>
      <g>
       <use xlink:href="#m2629b23a49" x="118.032856" y="640.3185" style="stroke: #000000; stroke-width: 0.6"/>
      </g>
     </g>
    </g>
    <g id="xtick_8">
     <g id="line2d_8">
      <g>
       <use xlink:href="#m2629b23a49" x="147.34872" y="640.3185" style="stroke: #000000; stroke-width: 0.6"/>
      </g>
     </g>
    </g>
    <g id="xtick_9">
     <g id="line2d_9">
      <g>
       <use xlink:href="#m2629b23a49" x="176.664583" y="640.3185" style="stroke: #000000; stroke-width: 0.6"/>
      </g>
     </g>
    </g>
    <g id="xtick_10">
     <g id="line2d_10">
      <g>
       <use xlink:href="#m2629b23a49" x="235.296309" y="640.3185" style="stroke: #000000; stroke-width: 0.6"/>
      </g>
     </g>
    </g>
    <g id="xtick_11">
     <g id="line2d_11">
      <g>
       <use xlink:href="#m2629b23a49" x="264.612172" y="640.3185" style="stroke: #000000; stroke-width: 0.6"/>
      </g>
     </g>
    </g>
    <g id="xtick_12">
     <g id="line2d_12">
      <g>
       <use xlink:href="#m2629b23a49" x="293.928035" y="640.3185" style="stroke: #000000; stroke-width: 0.6"/>
      </g>
     </g>
    </g>
    <g id="xtick_13">
     <g id="line2d_13">
      <g>
       <use xlink:href="#m2629b23a49" x="352.559762" y="640.3185" style="stroke: #000000; stroke-width: 0.6"/>
      </g>
     </g>
    </g>
    <g id="xtick_14">
     <g id="line2d_14">
      <g>
       <use xlink:href="#m2629b23a49" x="381.875625" y="640.3185" style="stroke: #000000; stroke-width: 0.6"/>
      </g>
     </g>
    </g>
    <g id="xtick_15">
     <g id="line2d_15">
      <g>
       <use xlink:href="#m2629b23a49" x="411.191488" y="640.3185" style="stroke: #000000; stroke-width: 0.6"/>
      </g>
     </g>
    </g>
    <g id="xtick_16">
     <g id="line2d_16">
      <g>
       <use xlink:href="#m2629b23a49" x="469.823215" y="640.3185" style="stroke: #000000; stroke-width: 0.6"/>
      </g>
     </g>
    </g>
    <g id="xtick_17">
     <g id="line2d_17">
      <g>
       <use xlink:href="#m2629b23a49" x="499.139078" y="640.3185" style="stroke: #000000; stroke-width: 0.6"/>
      </g>
     </g>
    </g>
    <g id="xtick_18">
     <g id="line2d_18">
      <g>
       <use xlink:href="#m2629b23a49" x="528.454941" y="640.3185" style="stroke: #000000; stroke-width: 0.6"/>
      </g>
     </g>
    </g>
    <g id="xtick_19">
     <g id="line2d_19">
      <g>
       <use xlink:href="#m2629b23a49" x="587.086667" y="640.3185" style="stroke: #000000; stroke-width: 0.6"/>
      </g>
     </g>
    </g>
    <g id="xtick_20">
     <g id="line2d_20">
      <g>
       <use xlink:href="#m2629b23a49" x="616.40253" y="640.3185" style="stroke: #000000; stroke-width: 0.6"/>
      </g>
     </g>
    </g>
    <g id="xtick_21">
     <g id="line2d_21">
      <g>
       <use xlink:href="#m2629b23a49" x="645.718394" y="640.3185" style="stroke: #000000; stroke-width: 0.6"/>
      </g>
     </g>
    </g>
    <g id="text_7">
     <!-- Time ps -->
     <g transform="translate(329.099063 697.52475) scale(0.3 -0.3)">
      <defs>
       <path id="LiberationSans-54" d="M 2250 3916 
L 2250 0 
L 1656 0 
L 1656 3916 
L 144 3916 
L 144 4403 
L 3763 4403 
L 3763 3916 
L 2250 3916 
z
" transform="scale(0.015625)"/>
       <path id="LiberationSans-69" d="M 428 4100 
L 428 4638 
L 991 4638 
L 991 4100 
L 428 4100 
z
M 428 0 
L 428 3381 
L 991 3381 
L 991 0 
L 428 0 
z
" transform="scale(0.015625)"/>
       <path id="LiberationSans-6d" d="M 2400 0 
L 2400 2144 
Q 2400 2634 2265 2821 
Q 2131 3009 1781 3009 
Q 1422 3009 1212 2734 
Q 1003 2459 1003 1959 
L 1003 0 
L 444 0 
L 444 2659 
Q 444 3250 425 3381 
L 956 3381 
Q 959 3366 962 3297 
Q 966 3228 970 3139 
Q 975 3050 981 2803 
L 991 2803 
Q 1172 3163 1406 3303 
Q 1641 3444 1978 3444 
Q 2363 3444 2586 3291 
Q 2809 3138 2897 2803 
L 2906 2803 
Q 3081 3144 3329 3294 
Q 3578 3444 3931 3444 
Q 4444 3444 4676 3166 
Q 4909 2888 4909 2253 
L 4909 0 
L 4353 0 
L 4353 2144 
Q 4353 2634 4218 2821 
Q 4084 3009 3734 3009 
Q 3366 3009 3161 2736 
Q 2956 2463 2956 1959 
L 2956 0 
L 2400 0 
z
" transform="scale(0.015625)"/>
       <path id="LiberationSans-65" d="M 863 1572 
Q 863 991 1103 675 
Q 1344 359 1806 359 
Q 2172 359 2392 506 
Q 2613 653 2691 878 
L 3184 738 
Q 2881 -63 1806 -63 
Q 1056 -63 664 384 
Q 272 831 272 1713 
Q 272 2550 664 2997 
Q 1056 3444 1784 3444 
Q 3275 3444 3275 1647 
L 3275 1572 
L 863 1572 
z
M 2694 2003 
Q 2647 2538 2422 2783 
Q 2197 3028 1775 3028 
Q 1366 3028 1127 2754 
Q 888 2481 869 2003 
L 2694 2003 
z
" transform="scale(0.015625)"/>
       <path id="LiberationSans-20" transform="scale(0.015625)"/>
       <path id="LiberationSans-70" d="M 3291 1706 
Q 3291 -63 2047 -63 
Q 1266 -63 997 525 
L 981 525 
Q 994 500 994 -6 
L 994 -1328 
L 431 -1328 
L 431 2691 
Q 431 3213 413 3381 
L 956 3381 
Q 959 3369 965 3292 
Q 972 3216 980 3056 
Q 988 2897 988 2838 
L 1000 2838 
Q 1150 3150 1397 3295 
Q 1644 3441 2047 3441 
Q 2672 3441 2981 3022 
Q 3291 2603 3291 1706 
z
M 2700 1694 
Q 2700 2400 2509 2703 
Q 2319 3006 1903 3006 
Q 1569 3006 1380 2865 
Q 1191 2725 1092 2426 
Q 994 2128 994 1650 
Q 994 984 1206 668 
Q 1419 353 1897 353 
Q 2316 353 2508 661 
Q 2700 969 2700 1694 
z
" transform="scale(0.015625)"/>
       <path id="LiberationSans-73" d="M 2969 934 
Q 2969 456 2608 196 
Q 2247 -63 1597 -63 
Q 966 -63 623 145 
Q 281 353 178 794 
L 675 891 
Q 747 619 972 492 
Q 1197 366 1597 366 
Q 2025 366 2223 497 
Q 2422 628 2422 891 
Q 2422 1091 2284 1216 
Q 2147 1341 1841 1422 
L 1438 1528 
Q 953 1653 748 1773 
Q 544 1894 428 2066 
Q 313 2238 313 2488 
Q 313 2950 642 3192 
Q 972 3434 1603 3434 
Q 2163 3434 2492 3237 
Q 2822 3041 2909 2606 
L 2403 2544 
Q 2356 2769 2151 2889 
Q 1947 3009 1603 3009 
Q 1222 3009 1040 2893 
Q 859 2778 859 2544 
Q 859 2400 934 2306 
Q 1009 2213 1156 2147 
Q 1303 2081 1775 1966 
Q 2222 1853 2419 1758 
Q 2616 1663 2730 1547 
Q 2844 1431 2906 1279 
Q 2969 1128 2969 934 
z
" transform="scale(0.015625)"/>
      </defs>
      <use xlink:href="#LiberationSans-54"/>
      <use xlink:href="#LiberationSans-69" x="57.333984"/>
      <use xlink:href="#LiberationSans-6d" x="79.550781"/>
      <use xlink:href="#LiberationSans-65" x="162.851562"/>
      <use xlink:href="#LiberationSans-20" x="218.466797"/>
      <use xlink:href="#LiberationSans-70" x="246.25"/>
      <use xlink:href="#LiberationSans-73" x="301.865234"/>
     </g>
    </g>
   </g>
   <g id="matplotlib.axis_2">
    <g id="ytick_1">
     <g id="line2d_22">
      <defs>
       <path id="md81375f526" d="M 0 0 
L 3.5 0 
" style="stroke: #000000; stroke-width: 0.8"/>
      </defs>
      <g>
       <use xlink:href="#md81375f526" x="59.465625" y="612.994364" style="stroke: #000000; stroke-width: 0.8"/>
      </g>
     </g>
     <g id="text_8">
      <!-- $\mathdefault{0}$ -->
      <g transform="translate(39.165625 623.864676) scale(0.3 -0.3)">
       <use xlink:href="#LiberationSans-30" transform="translate(0 0.171875)"/>
      </g>
     </g>
    </g>
    <g id="ytick_2">
     <g id="line2d_23">
      <g>
       <use xlink:href="#md81375f526" x="59.465625" y="494.559495" style="stroke: #000000; stroke-width: 0.8"/>
      </g>
     </g>
     <g id="text_9">
      <!-- $\mathdefault{2}$ -->
      <g transform="translate(39.165625 505.429807) scale(0.3 -0.3)">
       <use xlink:href="#LiberationSans-32" transform="translate(0 0.171875)"/>
      </g>
     </g>
    </g>
    <g id="ytick_3">
     <g id="line2d_24">
      <g>
       <use xlink:href="#md81375f526" x="59.465625" y="376.124626" style="stroke: #000000; stroke-width: 0.8"/>
      </g>
     </g>
     <g id="text_10">
      <!-- $\mathdefault{4}$ -->
      <g transform="translate(39.165625 386.994938) scale(0.3 -0.3)">
       <use xlink:href="#LiberationSans-34" transform="translate(0 0.203125)"/>
      </g>
     </g>
    </g>
    <g id="ytick_4">
     <g id="line2d_25">
      <g>
       <use xlink:href="#md81375f526" x="59.465625" y="257.689757" style="stroke: #000000; stroke-width: 0.8"/>
      </g>
     </g>
     <g id="text_11">
      <!-- $\mathdefault{6}$ -->
      <g transform="translate(39.165625 268.560069) scale(0.3 -0.3)">
       <use xlink:href="#LiberationSans-36" transform="translate(0 0.171875)"/>
      </g>
     </g>
    </g>
    <g id="ytick_5">
     <g id="line2d_26">
      <g>
       <use xlink:href="#md81375f526" x="59.465625" y="139.254888" style="stroke: #000000; stroke-width: 0.8"/>
      </g>
     </g>
     <g id="text_12">
      <!-- $\mathdefault{8}$ -->
      <g transform="translate(39.165625 150.1252) scale(0.3 -0.3)">
       <use xlink:href="#LiberationSans-38" transform="translate(0 0.171875)"/>
      </g>
     </g>
    </g>
    <g id="ytick_6">
     <g id="line2d_27">
      <defs>
       <path id="mc12c300b19" d="M 0 0 
L 2 0 
" style="stroke: #000000; stroke-width: 0.6"/>
      </defs>
      <g>
       <use xlink:href="#mc12c300b19" x="59.465625" y="583.385646" style="stroke: #000000; stroke-width: 0.6"/>
      </g>
     </g>
    </g>
    <g id="ytick_7">
     <g id="line2d_28">
      <g>
       <use xlink:href="#mc12c300b19" x="59.465625" y="553.776929" style="stroke: #000000; stroke-width: 0.6"/>
      </g>
     </g>
    </g>
    <g id="ytick_8">
     <g id="line2d_29">
      <g>
       <use xlink:href="#mc12c300b19" x="59.465625" y="524.168212" style="stroke: #000000; stroke-width: 0.6"/>
      </g>
     </g>
    </g>
    <g id="ytick_9">
     <g id="line2d_30">
      <g>
       <use xlink:href="#mc12c300b19" x="59.465625" y="464.950777" style="stroke: #000000; stroke-width: 0.6"/>
      </g>
     </g>
    </g>
    <g id="ytick_10">
     <g id="line2d_31">
      <g>
       <use xlink:href="#mc12c300b19" x="59.465625" y="435.34206" style="stroke: #000000; stroke-width: 0.6"/>
      </g>
     </g>
    </g>
    <g id="ytick_11">
     <g id="line2d_32">
      <g>
       <use xlink:href="#mc12c300b19" x="59.465625" y="405.733343" style="stroke: #000000; stroke-width: 0.6"/>
      </g>
     </g>
    </g>
    <g id="ytick_12">
     <g id="line2d_33">
      <g>
       <use xlink:href="#mc12c300b19" x="59.465625" y="346.515908" style="stroke: #000000; stroke-width: 0.6"/>
      </g>
     </g>
    </g>
    <g id="ytick_13">
     <g id="line2d_34">
      <g>
       <use xlink:href="#mc12c300b19" x="59.465625" y="316.907191" style="stroke: #000000; stroke-width: 0.6"/>
      </g>
     </g>
    </g>
    <g id="ytick_14">
     <g id="line2d_35">
      <g>
       <use xlink:href="#mc12c300b19" x="59.465625" y="287.298474" style="stroke: #000000; stroke-width: 0.6"/>
      </g>
     </g>
    </g>
    <g id="ytick_15">
     <g id="line2d_36">
      <g>
       <use xlink:href="#mc12c300b19" x="59.465625" y="228.081039" style="stroke: #000000; stroke-width: 0.6"/>
      </g>
     </g>
    </g>
    <g id="ytick_16">
     <g id="line2d_37">
      <g>
       <use xlink:href="#mc12c300b19" x="59.465625" y="198.472322" style="stroke: #000000; stroke-width: 0.6"/>
      </g>
     </g>
    </g>
    <g id="ytick_17">
     <g id="line2d_38">
      <g>
       <use xlink:href="#mc12c300b19" x="59.465625" y="168.863605" style="stroke: #000000; stroke-width: 0.6"/>
      </g>
     </g>
    </g>
    <g id="ytick_18">
     <g id="line2d_39">
      <g>
       <use xlink:href="#mc12c300b19" x="59.465625" y="109.64617" style="stroke: #000000; stroke-width: 0.6"/>
      </g>
     </g>
    </g>
    <g id="ytick_19">
     <g id="line2d_40">
      <g>
       <use xlink:href="#mc12c300b19" x="59.465625" y="80.037453" style="stroke: #000000; stroke-width: 0.6"/>
      </g>
     </g>
    </g>
    <g id="ytick_20">
     <g id="line2d_41">
      <g>
       <use xlink:href="#mc12c300b19" x="59.465625" y="50.428736" style="stroke: #000000; stroke-width: 0.6"/>
      </g>
     </g>
    </g>
    <g id="text_13">
     <!-- ITR K · m$^2$/W -->
     <g transform="translate(28.940625 428.403) rotate(-90) scale(0.3 -0.3)">
      <defs>
       <path id="LiberationSans-49" d="M 591 0 
L 591 4403 
L 1188 4403 
L 1188 0 
L 591 0 
z
" transform="scale(0.015625)"/>
       <path id="LiberationSans-52" d="M 3638 0 
L 2494 1828 
L 1122 1828 
L 1122 0 
L 525 0 
L 525 4403 
L 2597 4403 
Q 3341 4403 3745 4070 
Q 4150 3738 4150 3144 
Q 4150 2653 3864 2318 
Q 3578 1984 3075 1897 
L 4325 0 
L 3638 0 
z
M 3550 3138 
Q 3550 3522 3289 3723 
Q 3028 3925 2538 3925 
L 1122 3925 
L 1122 2300 
L 2563 2300 
Q 3034 2300 3292 2520 
Q 3550 2741 3550 3138 
z
" transform="scale(0.015625)"/>
       <path id="LiberationSans-4b" d="M 3456 0 
L 1697 2125 
L 1122 1688 
L 1122 0 
L 525 0 
L 525 4403 
L 1122 4403 
L 1122 2197 
L 3244 4403 
L 3947 4403 
L 2072 2491 
L 4197 0 
L 3456 0 
z
" transform="scale(0.015625)"/>
       <path id="LiberationSans-b7" d="M 760 1394 
L 760 2081 
L 1370 2081 
L 1370 1394 
L 760 1394 
z
" transform="scale(0.015625)"/>
       <path id="STIXGeneral-Regular-32" d="M 3034 877 
L 2688 0 
L 186 0 
L 186 77 
L 1325 1286 
Q 1773 1754 1965 2144 
Q 2157 2534 2157 2950 
Q 2157 3379 1920 3616 
Q 1683 3853 1267 3853 
Q 922 3853 720 3673 
Q 518 3494 326 3021 
L 192 3053 
Q 301 3648 630 3987 
Q 960 4326 1523 4326 
Q 2054 4326 2380 4006 
Q 2707 3686 2707 3200 
Q 2707 2477 1888 1613 
L 832 486 
L 2330 486 
Q 2541 486 2665 569 
Q 2790 653 2944 915 
L 3034 877 
z
" transform="scale(0.015625)"/>
       <path id="LiberationSans-2f" d="M 0 -63 
L 1284 4638 
L 1778 4638 
L 506 -63 
L 0 -63 
z
" transform="scale(0.015625)"/>
       <path id="LiberationSans-57" d="M 4722 0 
L 4009 0 
L 3247 2797 
Q 3172 3059 3028 3738 
Q 2947 3375 2890 3131 
Q 2834 2888 2038 0 
L 1325 0 
L 28 4403 
L 650 4403 
L 1441 1606 
Q 1581 1081 1700 525 
Q 1775 869 1873 1275 
Q 1972 1681 2741 4403 
L 3313 4403 
L 4078 1663 
Q 4253 991 4353 525 
L 4381 634 
Q 4466 994 4519 1220 
Q 4572 1447 5397 4403 
L 6019 4403 
L 4722 0 
z
" transform="scale(0.015625)"/>
      </defs>
      <use xlink:href="#LiberationSans-49" transform="translate(0 0.409375)"/>
      <use xlink:href="#LiberationSans-54" transform="translate(27.783203 0.409375)"/>
      <use xlink:href="#LiberationSans-52" transform="translate(88.867188 0.409375)"/>
      <use xlink:href="#LiberationSans-20" transform="translate(161.083984 0.409375)"/>
      <use xlink:href="#LiberationSans-4b" transform="translate(188.867188 0.409375)"/>
      <use xlink:href="#LiberationSans-20" transform="translate(255.566406 0.409375)"/>
      <use xlink:href="#LiberationSans-b7" transform="translate(283.349609 0.409375)"/>
      <use xlink:href="#LiberationSans-20" transform="translate(316.650391 0.409375)"/>
      <use xlink:href="#LiberationSans-6d" transform="translate(344.433594 0.409375)"/>
      <use xlink:href="#STIXGeneral-Regular-32" transform="translate(429.277656 35.684375) scale(0.7)"/>
      <use xlink:href="#LiberationSans-2f" transform="translate(468.687021 0.409375)"/>
      <use xlink:href="#LiberationSans-57" transform="translate(496.470224 0.409375)"/>
     </g>
    </g>
    <g id="text_14">
     <!-- $\times\mathdefault{10^{−7}}\mathdefault{}$ -->
     <g transform="translate(59.465625 36.1875) scale(0.4 -0.4)">
      <defs>
       <path id="STIXGeneral-Regular-d7" d="M 3821 141 
L 3526 -160 
L 2048 1312 
L 570 -160 
L 275 134 
L 1747 1613 
L 275 3091 
L 576 3386 
L 2048 1914 
L 3526 3386 
L 3821 3098 
L 2349 1613 
L 3821 141 
z
" transform="scale(0.015625)"/>
       <path id="LiberationSans-2212" d="M 316 1900 
L 316 2356 
L 3425 2356 
L 3425 1900 
L 316 1900 
z
" transform="scale(0.015625)"/>
       <path id="LiberationSans-37" d="M 3238 3947 
Q 2563 2916 2284 2331 
Q 2006 1747 1867 1178 
Q 1728 609 1728 0 
L 1141 0 
Q 1141 844 1498 1776 
Q 1856 2709 2694 3925 
L 328 3925 
L 328 4403 
L 3238 4403 
L 3238 3947 
z
" transform="scale(0.015625)"/>
      </defs>
      <use xlink:href="#STIXGeneral-Regular-d7" transform="translate(0 0.8625)"/>
      <use xlink:href="#LiberationSans-31" transform="translate(63.999985 0.8625)"/>
      <use xlink:href="#LiberationSans-30" transform="translate(119.615219 0.8625)"/>
      <use xlink:href="#LiberationSans-2212" transform="translate(176.154946 37.842188) scale(0.7)"/>
      <use xlink:href="#LiberationSans-37" transform="translate(217.033852 37.842188) scale(0.7)"/>
     </g>
    </g>
   </g>
   <g id="line2d_42">
    <path d="M 88.775625 612.994364 
L 88.834257 66.511636 
L 88.892888 338.838488 
L 89.068784 502.481032 
L 89.303311 550.742633 
L 89.596469 571.984222 
L 89.94826 583.117783 
L 90.358682 589.475374 
L 90.769104 592.851691 
L 91.179526 594.727344 
L 91.589948 595.708671 
L 91.941738 596.06065 
L 92.234897 596.086577 
L 92.586687 595.848075 
L 92.997109 595.2438 
L 93.524795 594.003872 
L 94.169744 591.84048 
L 94.931956 588.43981 
L 95.870064 583.148817 
L 97.159962 574.429881 
L 98.860282 563.112863 
L 99.563863 559.835635 
L 100.091548 558.29888 
L 100.50197 557.677978 
L 100.853761 557.517028 
L 101.146919 557.607088 
L 101.557341 558.006942 
L 102.20229 559.029777 
L 103.609452 561.337364 
L 104.313032 562.037693 
L 104.957981 562.382535 
L 105.720194 562.51836 
L 108.475885 562.736618 
L 110.703891 563.204154 
L 111.993789 563.12126 
L 114.104531 562.965483 
L 115.335797 563.128787 
L 116.4498 563.506726 
L 120.20223 565.025638 
L 121.19897 565.039903 
L 122.312972 564.819914 
L 125.596349 564.012027 
L 126.827615 564.04314 
L 130.755941 564.360238 
L 132.632156 564.080565 
L 134.567003 563.857909 
L 135.974165 563.934183 
L 139.19891 564.235066 
L 140.312912 564.034422 
L 141.661442 563.542091 
L 143.713553 562.783765 
L 144.593028 562.721216 
L 145.355241 562.890274 
L 146.176085 563.309265 
L 147.407351 564.233033 
L 148.638618 565.077525 
L 149.459462 565.388182 
L 150.221674 565.450141 
L 151.10115 565.281152 
L 152.566943 564.705123 
L 153.915473 564.270757 
L 154.970844 564.171212 
L 156.143479 564.294017 
L 159.544119 564.788709 
L 161.068544 564.684408 
L 164.35192 564.360945 
L 165.70045 564.541637 
L 168.397509 564.994872 
L 169.394249 564.875376 
L 170.390988 564.529071 
L 171.856781 563.747963 
L 173.263943 563.073396 
L 174.143419 562.901292 
L 174.905631 562.972366 
L 175.785107 563.290416 
L 179.009852 564.723025 
L 180.006591 564.755101 
L 181.706911 564.531488 
L 183.407231 564.401153 
L 185.166183 564.521971 
L 187.921874 564.734093 
L 189.270404 564.591793 
L 191.029356 564.150846 
L 193.19873 563.645903 
L 194.429996 563.587338 
L 195.60263 563.755001 
L 197.185687 564.242107 
L 198.710112 564.645042 
L 199.706851 564.667818 
L 200.703591 564.4487 
L 203.811072 563.524338 
L 204.573285 563.671331 
L 205.45276 564.079715 
L 208.032556 565.463026 
L 208.912032 565.582055 
L 209.85014 565.469998 
L 211.491828 564.984124 
L 212.89899 564.671317 
L 214.130256 564.633247 
L 218.644899 564.759864 
L 223.159542 564.213053 
L 224.625335 564.417799 
L 227.439658 564.871966 
L 228.553661 564.785229 
L 229.784927 564.455834 
L 232.423355 563.644497 
L 233.244199 563.67565 
L 234.065043 563.932277 
L 235.120414 564.517959 
L 236.879366 565.499192 
L 237.758842 565.715904 
L 238.638318 565.696608 
L 239.75232 565.422139 
L 242.214853 564.740996 
L 243.328856 564.707018 
L 244.736017 564.910275 
L 247.022654 565.249552 
L 248.371184 565.200455 
L 249.954241 564.894428 
L 252.534037 564.365711 
L 253.648039 564.39604 
L 254.879306 564.657923 
L 257.75226 565.369983 
L 258.866263 565.355952 
L 260.214793 565.095129 
L 262.14964 564.715828 
L 263.146379 564.774166 
L 264.260382 565.082243 
L 266.136597 565.632079 
L 267.016073 565.626489 
L 267.954181 565.380451 
L 269.361342 564.732053 
L 270.768504 564.160359 
L 271.823875 563.980367 
L 272.937877 564.028679 
L 277.921574 564.57556 
L 282.377585 564.607381 
L 286.774965 564.942216 
L 288.240758 564.707093 
L 291.230976 564.116343 
L 292.110452 564.247218 
L 293.04856 564.63411 
L 296.038778 566.110311 
L 296.859622 566.136717 
L 297.797729 565.939352 
L 301.55016 564.863015 
L 302.722794 564.935883 
L 305.654381 565.226625 
L 307.061542 565.050196 
L 310.638077 564.465643 
L 311.927975 564.561997 
L 313.745559 564.960651 
L 315.445879 565.257369 
L 316.559882 565.217793 
L 317.732516 564.940837 
L 320.781366 564.059104 
L 321.660842 564.146732 
L 322.59895 564.475351 
L 325.354641 565.617875 
L 326.292748 565.650583 
L 327.406751 565.438417 
L 330.338338 564.75249 
L 331.686867 564.742238 
L 336.20151 564.934995 
L 341.126575 564.495102 
L 344.879006 564.580374 
L 346.110272 564.277418 
L 347.75196 563.609576 
L 349.335017 563.034873 
L 350.214493 562.955838 
L 351.035337 563.116339 
L 351.973445 563.552877 
L 354.435977 564.852158 
L 355.315453 564.983764 
L 356.312192 564.891175 
L 359.654201 564.348639 
L 360.885467 564.51007 
L 364.168844 565.079173 
L 365.40011 564.972707 
L 366.924535 564.595602 
L 369.15254 564.044297 
L 370.207911 564.022505 
L 371.321914 564.2326 
L 374.605291 565.048562 
L 375.60203 564.939527 
L 376.833297 564.55965 
L 378.65088 564.002923 
L 379.530356 563.982331 
L 380.3512 564.185324 
L 381.347939 564.681395 
L 383.634577 565.923491 
L 384.514053 566.074501 
L 385.393529 565.993128 
L 386.566163 565.639179 
L 389.145959 564.803091 
L 390.494489 564.650902 
L 393.191548 564.672044 
L 395.243659 564.534896 
L 399.641038 564.158923 
L 401.634517 564.2946 
L 403.510732 564.376738 
L 404.741998 564.199769 
L 406.325055 563.718977 
L 407.908111 563.299351 
L 408.787587 563.29422 
L 409.608432 563.511317 
L 410.546539 563.998822 
L 412.833177 565.299381 
L 413.654021 565.440384 
L 414.474865 565.34815 
L 415.471604 564.987532 
L 418.696349 563.608153 
L 419.634457 563.545124 
L 420.689828 563.711406 
L 422.390148 564.259461 
L 424.090468 564.726121 
L 425.321734 564.83395 
L 426.670264 564.721949 
L 429.308692 564.444167 
L 430.539958 564.607289 
L 433.061122 565.034862 
L 434.057861 564.909584 
L 435.230496 564.516195 
L 437.165343 563.842051 
L 438.044819 563.804982 
L 438.865663 564.00209 
L 439.862402 564.49119 
L 442.031776 565.634377 
L 442.969884 565.81362 
L 443.966623 565.75532 
L 445.608312 565.374091 
L 447.015473 565.144439 
L 448.188107 565.186892 
L 449.888428 565.520122 
L 451.354221 565.718078 
L 452.468224 565.636101 
L 453.640858 565.31457 
L 456.455181 564.440141 
L 457.510552 564.410784 
L 458.683187 564.616716 
L 461.732036 565.289015 
L 462.787407 565.218497 
L 464.018674 564.89664 
L 466.832996 564.044994 
L 467.771104 564.059466 
L 468.65058 564.294683 
L 469.823215 564.860522 
L 471.464903 565.64802 
L 472.40301 565.856173 
L 473.341118 565.840708 
L 474.572384 565.575952 
L 477.034917 564.996166 
L 478.266183 564.975228 
L 479.907871 565.203111 
L 482.253141 565.503171 
L 483.60167 565.434092 
L 485.067463 565.128614 
L 487.881786 564.484844 
L 489.171684 564.491522 
L 492.455061 564.672309 
L 494.038117 564.389772 
L 495.797069 564.129521 
L 496.793809 564.206815 
L 497.84918 564.524596 
L 501.132556 565.748873 
L 502.070664 565.707945 
L 503.184667 565.415472 
L 505.940358 564.584236 
L 507.054361 564.548376 
L 508.285627 564.756548 
L 512.038057 565.580694 
L 513.327955 565.514974 
L 515.321434 565.135218 
L 516.845859 564.945446 
L 518.194389 565.013763 
L 521.243239 565.274124 
L 522.533137 565.066559 
L 525.69925 564.420539 
L 526.578726 564.549872 
L 527.575465 564.939765 
L 530.213893 566.134428 
L 531.034737 566.182883 
L 531.972844 566.00419 
L 533.731796 565.362819 
L 535.080326 565.011602 
L 536.25296 564.941841 
L 537.777385 565.101748 
L 541.353921 565.562015 
L 542.936977 565.476779 
L 546.689408 565.121155 
L 548.213833 565.341553 
L 550.14868 565.604354 
L 551.262682 565.518483 
L 552.493949 565.183665 
L 554.897849 564.450672 
L 555.718694 564.473888 
L 556.539538 564.724924 
L 557.594909 565.31027 
L 559.295229 566.263813 
L 560.116073 566.44853 
L 560.878286 566.397003 
L 561.757761 566.105927 
L 563.39945 565.256274 
L 564.630716 564.748128 
L 565.568824 564.599372 
L 566.506931 564.686337 
L 567.679566 565.042085 
L 569.907571 565.758602 
L 571.021574 565.845791 
L 572.370104 565.707375 
L 575.243058 565.350726 
L 577.236537 565.428173 
L 579.347279 565.453746 
L 580.754441 565.235342 
L 583.09971 564.576478 
L 584.213713 564.406918 
L 585.093189 564.487451 
L 586.031296 564.809044 
L 589.138778 566.122702 
L 590.018254 566.093275 
L 591.014993 565.818927 
L 594.591528 564.599665 
L 595.705531 564.599719 
L 597.581746 564.890051 
L 599.047539 565.000367 
L 600.278806 564.85549 
L 602.096389 564.368886 
L 603.679446 564.027025 
L 604.734817 564.016992 
L 605.84882 564.231736 
L 609.425355 565.112678 
L 610.480726 565.014573 
L 611.770624 564.651764 
L 613.470944 564.190454 
L 614.35042 564.195857 
L 615.229896 564.440515 
L 616.40253 565.039978 
L 617.75106 565.698256 
L 618.630536 565.885055 
L 619.510012 565.831309 
L 620.506751 565.5325 
L 623.321074 564.549026 
L 624.317813 564.52793 
L 625.431816 564.741861 
L 628.94972 565.596314 
L 630.415513 565.614862 
L 632.526255 565.383532 
L 634.285207 565.280906 
L 635.868264 565.436954 
L 637.80311 565.60821 
L 638.79985 565.459914 
L 639.855221 565.062421 
L 641.438278 564.16789 
L 642.669544 563.582927 
L 643.490388 563.44153 
L 644.2526 563.547672 
L 645.132076 563.923397 
L 647.711872 565.223122 
L 648.591348 565.311584 
L 649.529456 565.168877 
L 650.877985 564.703077 
L 652.636937 564.132697 
L 653.692308 564.032291 
L 654.864943 564.165909 
L 657.913793 564.657228 
L 659.203691 564.548478 
L 663.659702 563.954608 
L 665.242758 564.174115 
L 667.763923 564.546452 
L 669.053821 564.473343 
L 670.695509 564.117936 
L 672.044039 563.902607 
L 672.923515 563.977196 
L 673.80299 564.272404 
L 674.975625 564.906463 
L 674.975625 564.906463 
" clip-path="url(#p4e31241fbb)" style="fill: none; stroke: #0000ff; stroke-width: 1.5; stroke-linecap: square"/>
   </g>
   <g id="patch_3">
    <path d="M 59.465625 640.3185 
L 59.465625 39.1875 
" style="fill: none; stroke: #000000; stroke-width: 0.8; stroke-linejoin: miter; stroke-linecap: square"/>
   </g>
   <g id="patch_4">
    <path d="M 704.285625 640.3185 
L 704.285625 39.1875 
" style="fill: none; stroke: #000000; stroke-width: 0.8; stroke-linejoin: miter; stroke-linecap: square"/>
   </g>
   <g id="patch_5">
    <path d="M 59.465625 640.3185 
L 704.285625 640.3185 
" style="fill: none; stroke: #000000; stroke-width: 0.8; stroke-linejoin: miter; stroke-linecap: square"/>
   </g>
   <g id="patch_6">
    <path d="M 59.465625 39.1875 
L 704.285625 39.1875 
" style="fill: none; stroke: #000000; stroke-width: 0.8; stroke-linejoin: miter; stroke-linecap: square"/>
   </g>
  </g>
 </g>
 <defs>
  <clipPath id="p4e31241fbb">
   <rect x="59.465625" y="39.1875" width="644.82" height="601.131"/>
  </clipPath>
 </defs>
</svg>
