<?xml version="1.0" encoding="utf-8" standalone="no"?>
<!DOCTYPE svg PUBLIC "-//W3C//DTD SVG 1.1//EN"
  "http://www.w3.org/Graphics/SVG/1.1/DTD/svg11.dtd">
<svg xmlns:xlink="http://www.w3.org/1999/xlink" width="710.741988pt" height="711.02175pt" viewBox="0 0 710.741988 711.02175" xmlns="http://www.w3.org/2000/svg" version="1.1">
 <metadata>
  <rdf:RDF xmlns:dc="http://purl.org/dc/elements/1.1/" xmlns:cc="http://creativecommons.org/ns#" xmlns:rdf="http://www.w3.org/1999/02/22-rdf-syntax-ns#">
   <cc:Work>
    <dc:type rdf:resource="http://purl.org/dc/dcmitype/StillImage"/>
    <dc:date>2025-02-02T17:22:45.719584</dc:date>
    <dc:format>image/svg+xml</dc:format>
    <dc:creator>
     <cc:Agent>
      <dc:title>Matplotlib v3.9.3, https://matplotlib.org/</dc:title>
     </cc:Agent>
    </dc:creator>
   </cc:Work>
  </rdf:RDF>
 </metadata>
 <defs>
  <style type="text/css">*{stroke-linejoin: round; stroke-linecap: butt}</style>
 </defs>
 <g id="figure_1">
  <g id="patch_1">
   <path d="M 0 711.02175 
L 710.741988 711.02175 
L 710.741988 0 
L 0 0 
z
" style="fill: #ffffff"/>
  </g>
  <g id="axes_1">
   <g id="patch_2">
    <path d="M 79.5 640.3905 
L 703.541988 640.3905 
L 703.541988 39.1875 
L 79.5 39.1875 
z
" style="fill: #ffffff"/>
   </g>
   <g id="matplotlib.axis_1">
    <g id="xtick_1">
     <g id="line2d_1">
      <defs>
       <path id="mf62fa6fa42" d="M 0 0 
L 0 -3.5 
" style="stroke: #000000; stroke-width: 0.8"/>
      </defs>
      <g>
       <use xlink:href="#mf62fa6fa42" x="107.808808" y="640.3905" style="stroke: #000000; stroke-width: 0.8"/>
      </g>
     </g>
     <g id="text_1">
      <!-- 0 -->
      <g transform="translate(99.467402 665.631125) scale(0.3 -0.3)">
       <defs>
        <path id="LiberationSans-30" d="M 3309 2203 
Q 3309 1100 2920 518 
Q 2531 -63 1772 -63 
Q 1013 -63 631 515 
Q 250 1094 250 2203 
Q 250 3338 620 3903 
Q 991 4469 1791 4469 
Q 2569 4469 2939 3897 
Q 3309 3325 3309 2203 
z
M 2738 2203 
Q 2738 3156 2517 3584 
Q 2297 4013 1791 4013 
Q 1272 4013 1045 3591 
Q 819 3169 819 2203 
Q 819 1266 1048 831 
Q 1278 397 1778 397 
Q 2275 397 2506 840 
Q 2738 1284 2738 2203 
z
" transform="scale(0.015625)"/>
       </defs>
       <use xlink:href="#LiberationSans-30"/>
      </g>
     </g>
    </g>
    <g id="xtick_2">
     <g id="line2d_2">
      <g>
       <use xlink:href="#mf62fa6fa42" x="221.282335" y="640.3905" style="stroke: #000000; stroke-width: 0.8"/>
      </g>
     </g>
     <g id="text_2">
      <!-- 2 -->
      <g transform="translate(212.940929 665.631125) scale(0.3 -0.3)">
       <defs>
        <path id="LiberationSans-32" d="M 322 0 
L 322 397 
Q 481 763 711 1042 
Q 941 1322 1194 1548 
Q 1447 1775 1695 1969 
Q 1944 2163 2144 2356 
Q 2344 2550 2467 2762 
Q 2591 2975 2591 3244 
Q 2591 3606 2378 3806 
Q 2166 4006 1788 4006 
Q 1428 4006 1195 3811 
Q 963 3616 922 3263 
L 347 3316 
Q 409 3844 795 4156 
Q 1181 4469 1788 4469 
Q 2453 4469 2811 4155 
Q 3169 3841 3169 3263 
Q 3169 3006 3051 2753 
Q 2934 2500 2703 2247 
Q 2472 1994 1819 1463 
Q 1459 1169 1246 933 
Q 1034 697 941 478 
L 3238 478 
L 3238 0 
L 322 0 
z
" transform="scale(0.015625)"/>
       </defs>
       <use xlink:href="#LiberationSans-32"/>
      </g>
     </g>
    </g>
    <g id="xtick_3">
     <g id="line2d_3">
      <g>
       <use xlink:href="#mf62fa6fa42" x="334.755862" y="640.3905" style="stroke: #000000; stroke-width: 0.8"/>
      </g>
     </g>
     <g id="text_3">
      <!-- 4 -->
      <g transform="translate(326.414456 665.631125) scale(0.3 -0.3)">
       <defs>
        <path id="LiberationSans-34" d="M 2753 997 
L 2753 0 
L 2222 0 
L 2222 997 
L 147 997 
L 147 1434 
L 2163 4403 
L 2753 4403 
L 2753 1441 
L 3372 1441 
L 3372 997 
L 2753 997 
z
M 2222 3769 
Q 2216 3750 2134 3603 
Q 2053 3456 2013 3397 
L 884 1734 
L 716 1503 
L 666 1441 
L 2222 1441 
L 2222 3769 
z
" transform="scale(0.015625)"/>
       </defs>
       <use xlink:href="#LiberationSans-34"/>
      </g>
     </g>
    </g>
    <g id="xtick_4">
     <g id="line2d_4">
      <g>
       <use xlink:href="#mf62fa6fa42" x="448.229389" y="640.3905" style="stroke: #000000; stroke-width: 0.8"/>
      </g>
     </g>
     <g id="text_4">
      <!-- 6 -->
      <g transform="translate(439.887983 665.631125) scale(0.3 -0.3)">
       <defs>
        <path id="LiberationSans-36" d="M 3278 1441 
Q 3278 744 2900 340 
Q 2522 -63 1856 -63 
Q 1113 -63 719 490 
Q 325 1044 325 2100 
Q 325 3244 734 3856 
Q 1144 4469 1900 4469 
Q 2897 4469 3156 3572 
L 2619 3475 
Q 2453 4013 1894 4013 
Q 1413 4013 1148 3564 
Q 884 3116 884 2266 
Q 1038 2550 1316 2698 
Q 1594 2847 1953 2847 
Q 2563 2847 2920 2465 
Q 3278 2084 3278 1441 
z
M 2706 1416 
Q 2706 1894 2472 2153 
Q 2238 2413 1819 2413 
Q 1425 2413 1183 2183 
Q 941 1953 941 1550 
Q 941 1041 1192 716 
Q 1444 391 1838 391 
Q 2244 391 2475 664 
Q 2706 938 2706 1416 
z
" transform="scale(0.015625)"/>
       </defs>
       <use xlink:href="#LiberationSans-36"/>
      </g>
     </g>
    </g>
    <g id="xtick_5">
     <g id="line2d_5">
      <g>
       <use xlink:href="#mf62fa6fa42" x="561.702916" y="640.3905" style="stroke: #000000; stroke-width: 0.8"/>
      </g>
     </g>
     <g id="text_5">
      <!-- 8 -->
      <g transform="translate(553.36151 665.631125) scale(0.3 -0.3)">
       <defs>
        <path id="LiberationSans-38" d="M 3281 1228 
Q 3281 619 2893 278 
Q 2506 -63 1781 -63 
Q 1075 -63 676 271 
Q 278 606 278 1222 
Q 278 1653 525 1947 
Q 772 2241 1156 2303 
L 1156 2316 
Q 797 2400 589 2681 
Q 381 2963 381 3341 
Q 381 3844 757 4156 
Q 1134 4469 1769 4469 
Q 2419 4469 2795 4162 
Q 3172 3856 3172 3334 
Q 3172 2956 2962 2675 
Q 2753 2394 2391 2322 
L 2391 2309 
Q 2813 2241 3047 1952 
Q 3281 1663 3281 1228 
z
M 2588 3303 
Q 2588 4050 1769 4050 
Q 1372 4050 1164 3862 
Q 956 3675 956 3303 
Q 956 2925 1170 2726 
Q 1384 2528 1775 2528 
Q 2172 2528 2380 2711 
Q 2588 2894 2588 3303 
z
M 2697 1281 
Q 2697 1691 2453 1898 
Q 2209 2106 1769 2106 
Q 1341 2106 1100 1882 
Q 859 1659 859 1269 
Q 859 359 1788 359 
Q 2247 359 2472 579 
Q 2697 800 2697 1281 
z
" transform="scale(0.015625)"/>
       </defs>
       <use xlink:href="#LiberationSans-38"/>
      </g>
     </g>
    </g>
    <g id="xtick_6">
     <g id="line2d_6">
      <g>
       <use xlink:href="#mf62fa6fa42" x="675.176443" y="640.3905" style="stroke: #000000; stroke-width: 0.8"/>
      </g>
     </g>
     <g id="text_6">
      <!-- 10 -->
      <g transform="translate(658.493631 665.631125) scale(0.3 -0.3)">
       <defs>
        <path id="LiberationSans-31" d="M 488 0 
L 488 478 
L 1609 478 
L 1609 3866 
L 616 3156 
L 616 3688 
L 1656 4403 
L 2175 4403 
L 2175 478 
L 3247 478 
L 3247 0 
L 488 0 
z
" transform="scale(0.015625)"/>
       </defs>
       <use xlink:href="#LiberationSans-31"/>
       <use xlink:href="#LiberationSans-30" x="55.615234"/>
      </g>
     </g>
    </g>
    <g id="xtick_7">
     <g id="line2d_7">
      <defs>
       <path id="mb5d25fd2e2" d="M 0 0 
L 0 -2 
" style="stroke: #000000; stroke-width: 0.6"/>
      </defs>
      <g>
       <use xlink:href="#mb5d25fd2e2" x="136.17719" y="640.3905" style="stroke: #000000; stroke-width: 0.6"/>
      </g>
     </g>
    </g>
    <g id="xtick_8">
     <g id="line2d_8">
      <g>
       <use xlink:href="#mb5d25fd2e2" x="164.545572" y="640.3905" style="stroke: #000000; stroke-width: 0.6"/>
      </g>
     </g>
    </g>
    <g id="xtick_9">
     <g id="line2d_9">
      <g>
       <use xlink:href="#mb5d25fd2e2" x="192.913953" y="640.3905" style="stroke: #000000; stroke-width: 0.6"/>
      </g>
     </g>
    </g>
    <g id="xtick_10">
     <g id="line2d_10">
      <g>
       <use xlink:href="#mb5d25fd2e2" x="249.650717" y="640.3905" style="stroke: #000000; stroke-width: 0.6"/>
      </g>
     </g>
    </g>
    <g id="xtick_11">
     <g id="line2d_11">
      <g>
       <use xlink:href="#mb5d25fd2e2" x="278.019099" y="640.3905" style="stroke: #000000; stroke-width: 0.6"/>
      </g>
     </g>
    </g>
    <g id="xtick_12">
     <g id="line2d_12">
      <g>
       <use xlink:href="#mb5d25fd2e2" x="306.38748" y="640.3905" style="stroke: #000000; stroke-width: 0.6"/>
      </g>
     </g>
    </g>
    <g id="xtick_13">
     <g id="line2d_13">
      <g>
       <use xlink:href="#mb5d25fd2e2" x="363.124244" y="640.3905" style="stroke: #000000; stroke-width: 0.6"/>
      </g>
     </g>
    </g>
    <g id="xtick_14">
     <g id="line2d_14">
      <g>
       <use xlink:href="#mb5d25fd2e2" x="391.492626" y="640.3905" style="stroke: #000000; stroke-width: 0.6"/>
      </g>
     </g>
    </g>
    <g id="xtick_15">
     <g id="line2d_15">
      <g>
       <use xlink:href="#mb5d25fd2e2" x="419.861008" y="640.3905" style="stroke: #000000; stroke-width: 0.6"/>
      </g>
     </g>
    </g>
    <g id="xtick_16">
     <g id="line2d_16">
      <g>
       <use xlink:href="#mb5d25fd2e2" x="476.597771" y="640.3905" style="stroke: #000000; stroke-width: 0.6"/>
      </g>
     </g>
    </g>
    <g id="xtick_17">
     <g id="line2d_17">
      <g>
       <use xlink:href="#mb5d25fd2e2" x="504.966153" y="640.3905" style="stroke: #000000; stroke-width: 0.6"/>
      </g>
     </g>
    </g>
    <g id="xtick_18">
     <g id="line2d_18">
      <g>
       <use xlink:href="#mb5d25fd2e2" x="533.334535" y="640.3905" style="stroke: #000000; stroke-width: 0.6"/>
      </g>
     </g>
    </g>
    <g id="xtick_19">
     <g id="line2d_19">
      <g>
       <use xlink:href="#mb5d25fd2e2" x="590.071298" y="640.3905" style="stroke: #000000; stroke-width: 0.6"/>
      </g>
     </g>
    </g>
    <g id="xtick_20">
     <g id="line2d_20">
      <g>
       <use xlink:href="#mb5d25fd2e2" x="618.43968" y="640.3905" style="stroke: #000000; stroke-width: 0.6"/>
      </g>
     </g>
    </g>
    <g id="xtick_21">
     <g id="line2d_21">
      <g>
       <use xlink:href="#mb5d25fd2e2" x="646.808062" y="640.3905" style="stroke: #000000; stroke-width: 0.6"/>
      </g>
     </g>
    </g>
    <g id="text_7">
     <!-- Time ps -->
     <g transform="translate(338.744432 697.59675) scale(0.3 -0.3)">
      <defs>
       <path id="LiberationSans-54" d="M 2250 3916 
L 2250 0 
L 1656 0 
L 1656 3916 
L 144 3916 
L 144 4403 
L 3763 4403 
L 3763 3916 
L 2250 3916 
z
" transform="scale(0.015625)"/>
       <path id="LiberationSans-69" d="M 428 4100 
L 428 4638 
L 991 4638 
L 991 4100 
L 428 4100 
z
M 428 0 
L 428 3381 
L 991 3381 
L 991 0 
L 428 0 
z
" transform="scale(0.015625)"/>
       <path id="LiberationSans-6d" d="M 2400 0 
L 2400 2144 
Q 2400 2634 2265 2821 
Q 2131 3009 1781 3009 
Q 1422 3009 1212 2734 
Q 1003 2459 1003 1959 
L 1003 0 
L 444 0 
L 444 2659 
Q 444 3250 425 3381 
L 956 3381 
Q 959 3366 962 3297 
Q 966 3228 970 3139 
Q 975 3050 981 2803 
L 991 2803 
Q 1172 3163 1406 3303 
Q 1641 3444 1978 3444 
Q 2363 3444 2586 3291 
Q 2809 3138 2897 2803 
L 2906 2803 
Q 3081 3144 3329 3294 
Q 3578 3444 3931 3444 
Q 4444 3444 4676 3166 
Q 4909 2888 4909 2253 
L 4909 0 
L 4353 0 
L 4353 2144 
Q 4353 2634 4218 2821 
Q 4084 3009 3734 3009 
Q 3366 3009 3161 2736 
Q 2956 2463 2956 1959 
L 2956 0 
L 2400 0 
z
" transform="scale(0.015625)"/>
       <path id="LiberationSans-65" d="M 863 1572 
Q 863 991 1103 675 
Q 1344 359 1806 359 
Q 2172 359 2392 506 
Q 2613 653 2691 878 
L 3184 738 
Q 2881 -63 1806 -63 
Q 1056 -63 664 384 
Q 272 831 272 1713 
Q 272 2550 664 2997 
Q 1056 3444 1784 3444 
Q 3275 3444 3275 1647 
L 3275 1572 
L 863 1572 
z
M 2694 2003 
Q 2647 2538 2422 2783 
Q 2197 3028 1775 3028 
Q 1366 3028 1127 2754 
Q 888 2481 869 2003 
L 2694 2003 
z
" transform="scale(0.015625)"/>
       <path id="LiberationSans-20" transform="scale(0.015625)"/>
       <path id="LiberationSans-70" d="M 3291 1706 
Q 3291 -63 2047 -63 
Q 1266 -63 997 525 
L 981 525 
Q 994 500 994 -6 
L 994 -1328 
L 431 -1328 
L 431 2691 
Q 431 3213 413 3381 
L 956 3381 
Q 959 3369 965 3292 
Q 972 3216 980 3056 
Q 988 2897 988 2838 
L 1000 2838 
Q 1150 3150 1397 3295 
Q 1644 3441 2047 3441 
Q 2672 3441 2981 3022 
Q 3291 2603 3291 1706 
z
M 2700 1694 
Q 2700 2400 2509 2703 
Q 2319 3006 1903 3006 
Q 1569 3006 1380 2865 
Q 1191 2725 1092 2426 
Q 994 2128 994 1650 
Q 994 984 1206 668 
Q 1419 353 1897 353 
Q 2316 353 2508 661 
Q 2700 969 2700 1694 
z
" transform="scale(0.015625)"/>
       <path id="LiberationSans-73" d="M 2969 934 
Q 2969 456 2608 196 
Q 2247 -63 1597 -63 
Q 966 -63 623 145 
Q 281 353 178 794 
L 675 891 
Q 747 619 972 492 
Q 1197 366 1597 366 
Q 2025 366 2223 497 
Q 2422 628 2422 891 
Q 2422 1091 2284 1216 
Q 2147 1341 1841 1422 
L 1438 1528 
Q 953 1653 748 1773 
Q 544 1894 428 2066 
Q 313 2238 313 2488 
Q 313 2950 642 3192 
Q 972 3434 1603 3434 
Q 2163 3434 2492 3237 
Q 2822 3041 2909 2606 
L 2403 2544 
Q 2356 2769 2151 2889 
Q 1947 3009 1603 3009 
Q 1222 3009 1040 2893 
Q 859 2778 859 2544 
Q 859 2400 934 2306 
Q 1009 2213 1156 2147 
Q 1303 2081 1775 1966 
Q 2222 1853 2419 1758 
Q 2616 1663 2730 1547 
Q 2844 1431 2906 1279 
Q 2969 1128 2969 934 
z
" transform="scale(0.015625)"/>
      </defs>
      <use xlink:href="#LiberationSans-54"/>
      <use xlink:href="#LiberationSans-69" x="57.333984"/>
      <use xlink:href="#LiberationSans-6d" x="79.550781"/>
      <use xlink:href="#LiberationSans-65" x="162.851562"/>
      <use xlink:href="#LiberationSans-20" x="218.466797"/>
      <use xlink:href="#LiberationSans-70" x="246.25"/>
      <use xlink:href="#LiberationSans-73" x="301.865234"/>
     </g>
    </g>
   </g>
   <g id="matplotlib.axis_2">
    <g id="ytick_1">
     <g id="line2d_22">
      <defs>
       <path id="ma1e7096a69" d="M 0 0 
L 3.5 0 
" style="stroke: #000000; stroke-width: 0.8"/>
      </defs>
      <g>
       <use xlink:href="#ma1e7096a69" x="79.5" y="620.20168" style="stroke: #000000; stroke-width: 0.8"/>
      </g>
     </g>
     <g id="text_8">
      <!-- $\mathdefault{−2}$ -->
      <g transform="translate(41.5 631.071992) scale(0.3 -0.3)">
       <defs>
        <path id="LiberationSans-2212" d="M 316 1900 
L 316 2356 
L 3425 2356 
L 3425 1900 
L 316 1900 
z
" transform="scale(0.015625)"/>
       </defs>
       <use xlink:href="#LiberationSans-2212" transform="translate(0 0.171875)"/>
       <use xlink:href="#LiberationSans-32" transform="translate(58.398438 0.171875)"/>
      </g>
     </g>
    </g>
    <g id="ytick_2">
     <g id="line2d_23">
      <g>
       <use xlink:href="#ma1e7096a69" x="79.5" y="519.007961" style="stroke: #000000; stroke-width: 0.8"/>
      </g>
     </g>
     <g id="text_9">
      <!-- $\mathdefault{0}$ -->
      <g transform="translate(59.2 529.878273) scale(0.3 -0.3)">
       <use xlink:href="#LiberationSans-30" transform="translate(0 0.171875)"/>
      </g>
     </g>
    </g>
    <g id="ytick_3">
     <g id="line2d_24">
      <g>
       <use xlink:href="#ma1e7096a69" x="79.5" y="417.814242" style="stroke: #000000; stroke-width: 0.8"/>
      </g>
     </g>
     <g id="text_10">
      <!-- $\mathdefault{2}$ -->
      <g transform="translate(59.2 428.684555) scale(0.3 -0.3)">
       <use xlink:href="#LiberationSans-32" transform="translate(0 0.171875)"/>
      </g>
     </g>
    </g>
    <g id="ytick_4">
     <g id="line2d_25">
      <g>
       <use xlink:href="#ma1e7096a69" x="79.5" y="316.620523" style="stroke: #000000; stroke-width: 0.8"/>
      </g>
     </g>
     <g id="text_11">
      <!-- $\mathdefault{4}$ -->
      <g transform="translate(59.2 327.490836) scale(0.3 -0.3)">
       <use xlink:href="#LiberationSans-34" transform="translate(0 0.203125)"/>
      </g>
     </g>
    </g>
    <g id="ytick_5">
     <g id="line2d_26">
      <g>
       <use xlink:href="#ma1e7096a69" x="79.5" y="215.426805" style="stroke: #000000; stroke-width: 0.8"/>
      </g>
     </g>
     <g id="text_12">
      <!-- $\mathdefault{6}$ -->
      <g transform="translate(59.2 226.297117) scale(0.3 -0.3)">
       <use xlink:href="#LiberationSans-36" transform="translate(0 0.171875)"/>
      </g>
     </g>
    </g>
    <g id="ytick_6">
     <g id="line2d_27">
      <g>
       <use xlink:href="#ma1e7096a69" x="79.5" y="114.233086" style="stroke: #000000; stroke-width: 0.8"/>
      </g>
     </g>
     <g id="text_13">
      <!-- $\mathdefault{8}$ -->
      <g transform="translate(59.2 125.103398) scale(0.3 -0.3)">
       <use xlink:href="#LiberationSans-38" transform="translate(0 0.171875)"/>
      </g>
     </g>
    </g>
    <g id="ytick_7">
     <g id="line2d_28">
      <defs>
       <path id="me11a14038d" d="M 0 0 
L 2 0 
" style="stroke: #000000; stroke-width: 0.6"/>
      </defs>
      <g>
       <use xlink:href="#me11a14038d" x="79.5" y="594.90325" style="stroke: #000000; stroke-width: 0.6"/>
      </g>
     </g>
    </g>
    <g id="ytick_8">
     <g id="line2d_29">
      <g>
       <use xlink:href="#me11a14038d" x="79.5" y="569.60482" style="stroke: #000000; stroke-width: 0.6"/>
      </g>
     </g>
    </g>
    <g id="ytick_9">
     <g id="line2d_30">
      <g>
       <use xlink:href="#me11a14038d" x="79.5" y="544.306391" style="stroke: #000000; stroke-width: 0.6"/>
      </g>
     </g>
    </g>
    <g id="ytick_10">
     <g id="line2d_31">
      <g>
       <use xlink:href="#me11a14038d" x="79.5" y="493.709531" style="stroke: #000000; stroke-width: 0.6"/>
      </g>
     </g>
    </g>
    <g id="ytick_11">
     <g id="line2d_32">
      <g>
       <use xlink:href="#me11a14038d" x="79.5" y="468.411102" style="stroke: #000000; stroke-width: 0.6"/>
      </g>
     </g>
    </g>
    <g id="ytick_12">
     <g id="line2d_33">
      <g>
       <use xlink:href="#me11a14038d" x="79.5" y="443.112672" style="stroke: #000000; stroke-width: 0.6"/>
      </g>
     </g>
    </g>
    <g id="ytick_13">
     <g id="line2d_34">
      <g>
       <use xlink:href="#me11a14038d" x="79.5" y="392.515812" style="stroke: #000000; stroke-width: 0.6"/>
      </g>
     </g>
    </g>
    <g id="ytick_14">
     <g id="line2d_35">
      <g>
       <use xlink:href="#me11a14038d" x="79.5" y="367.217383" style="stroke: #000000; stroke-width: 0.6"/>
      </g>
     </g>
    </g>
    <g id="ytick_15">
     <g id="line2d_36">
      <g>
       <use xlink:href="#me11a14038d" x="79.5" y="341.918953" style="stroke: #000000; stroke-width: 0.6"/>
      </g>
     </g>
    </g>
    <g id="ytick_16">
     <g id="line2d_37">
      <g>
       <use xlink:href="#me11a14038d" x="79.5" y="291.322094" style="stroke: #000000; stroke-width: 0.6"/>
      </g>
     </g>
    </g>
    <g id="ytick_17">
     <g id="line2d_38">
      <g>
       <use xlink:href="#me11a14038d" x="79.5" y="266.023664" style="stroke: #000000; stroke-width: 0.6"/>
      </g>
     </g>
    </g>
    <g id="ytick_18">
     <g id="line2d_39">
      <g>
       <use xlink:href="#me11a14038d" x="79.5" y="240.725234" style="stroke: #000000; stroke-width: 0.6"/>
      </g>
     </g>
    </g>
    <g id="ytick_19">
     <g id="line2d_40">
      <g>
       <use xlink:href="#me11a14038d" x="79.5" y="190.128375" style="stroke: #000000; stroke-width: 0.6"/>
      </g>
     </g>
    </g>
    <g id="ytick_20">
     <g id="line2d_41">
      <g>
       <use xlink:href="#me11a14038d" x="79.5" y="164.829945" style="stroke: #000000; stroke-width: 0.6"/>
      </g>
     </g>
    </g>
    <g id="ytick_21">
     <g id="line2d_42">
      <g>
       <use xlink:href="#me11a14038d" x="79.5" y="139.531516" style="stroke: #000000; stroke-width: 0.6"/>
      </g>
     </g>
    </g>
    <g id="ytick_22">
     <g id="line2d_43">
      <g>
       <use xlink:href="#me11a14038d" x="79.5" y="88.934656" style="stroke: #000000; stroke-width: 0.6"/>
      </g>
     </g>
    </g>
    <g id="ytick_23">
     <g id="line2d_44">
      <g>
       <use xlink:href="#me11a14038d" x="79.5" y="63.636227" style="stroke: #000000; stroke-width: 0.6"/>
      </g>
     </g>
    </g>
    <g id="text_14">
     <!-- HFACF $(\mathrm{W} / \mathrm{m}^2)^2$ -->
     <g transform="translate(31.275 446.289) rotate(-90) scale(0.3 -0.3)">
      <defs>
       <path id="LiberationSans-48" d="M 3503 0 
L 3503 2041 
L 1122 2041 
L 1122 0 
L 525 0 
L 525 4403 
L 1122 4403 
L 1122 2541 
L 3503 2541 
L 3503 4403 
L 4100 4403 
L 4100 0 
L 3503 0 
z
" transform="scale(0.015625)"/>
       <path id="LiberationSans-46" d="M 1122 3916 
L 1122 2278 
L 3578 2278 
L 3578 1784 
L 1122 1784 
L 1122 0 
L 525 0 
L 525 4403 
L 3653 4403 
L 3653 3916 
L 1122 3916 
z
" transform="scale(0.015625)"/>
       <path id="LiberationSans-41" d="M 3647 0 
L 3144 1288 
L 1138 1288 
L 631 0 
L 13 0 
L 1809 4403 
L 2488 4403 
L 4256 0 
L 3647 0 
z
M 2141 3953 
L 2113 3866 
Q 2034 3606 1881 3200 
L 1319 1753 
L 2966 1753 
L 2400 3206 
Q 2313 3422 2225 3694 
L 2141 3953 
z
" transform="scale(0.015625)"/>
       <path id="LiberationSans-43" d="M 2475 3981 
Q 1744 3981 1337 3511 
Q 931 3041 931 2222 
Q 931 1413 1354 920 
Q 1778 428 2500 428 
Q 3425 428 3891 1344 
L 4378 1100 
Q 4106 531 3614 234 
Q 3122 -63 2472 -63 
Q 1806 -63 1320 214 
Q 834 491 579 1005 
Q 325 1519 325 2222 
Q 325 3275 894 3872 
Q 1463 4469 2469 4469 
Q 3172 4469 3644 4194 
Q 4116 3919 4338 3378 
L 3772 3191 
Q 3619 3575 3280 3778 
Q 2941 3981 2475 3981 
z
" transform="scale(0.015625)"/>
       <path id="STIXGeneral-Regular-28" d="M 1946 -1030 
L 1869 -1133 
Q 1126 -710 716 32 
Q 307 774 307 1613 
Q 307 3386 1888 4326 
L 1946 4224 
Q 1293 3667 1075 3126 
Q 858 2586 858 1632 
Q 858 685 1082 96 
Q 1306 -493 1946 -1030 
z
" transform="scale(0.015625)"/>
       <path id="STIXGeneral-Regular-57" d="M 5965 4237 
L 5965 4115 
Q 5709 4064 5616 3990 
Q 5523 3917 5434 3667 
Q 4704 1709 4128 -70 
L 4032 -70 
Q 3642 1011 3008 2637 
L 2022 -70 
L 1926 -70 
Q 1709 576 1277 1753 
Q 845 2931 698 3347 
Q 538 3808 406 3958 
Q 275 4109 32 4115 
L 32 4237 
L 1594 4237 
L 1594 4115 
Q 1357 4109 1270 4064 
Q 1184 4019 1184 3917 
Q 1184 3808 1254 3616 
L 2176 1210 
L 2842 3021 
L 2662 3501 
Q 2509 3917 2400 4013 
Q 2291 4109 2010 4115 
L 2010 4237 
L 3706 4237 
L 3706 4115 
Q 3213 4102 3213 3891 
Q 3213 3808 3322 3520 
L 4237 1190 
L 5043 3360 
Q 5152 3667 5152 3853 
Q 5152 4109 4704 4115 
L 4704 4237 
L 5965 4237 
z
" transform="scale(0.015625)"/>
       <path id="STIXGeneral-Regular-2f" d="M 1837 4326 
L 378 -90 
L -58 -90 
L 1408 4326 
L 1837 4326 
z
" transform="scale(0.015625)"/>
       <path id="STIXGeneral-Regular-6d" d="M 4960 0 
L 3565 0 
L 3565 96 
Q 3834 122 3907 208 
Q 3981 294 3981 576 
L 3981 1894 
Q 3981 2278 3869 2444 
Q 3757 2611 3488 2611 
Q 3264 2611 3107 2521 
Q 2950 2432 2803 2221 
L 2803 608 
Q 2803 301 2896 201 
Q 2989 102 3264 96 
L 3264 0 
L 1830 0 
L 1830 96 
Q 2112 115 2189 188 
Q 2266 262 2266 550 
L 2266 1901 
Q 2266 2611 1850 2611 
Q 1670 2611 1468 2531 
Q 1267 2451 1171 2336 
Q 1088 2240 1088 2227 
L 1088 448 
Q 1088 243 1177 176 
Q 1267 109 1523 96 
L 1523 0 
L 102 0 
L 102 96 
Q 371 102 460 195 
Q 550 288 550 563 
L 550 2150 
Q 550 2387 499 2480 
Q 448 2573 326 2573 
Q 230 2573 122 2547 
L 122 2656 
Q 557 2778 1011 2944 
L 1062 2925 
L 1062 2451 
L 1075 2451 
Q 1363 2752 1584 2848 
Q 1805 2944 2054 2944 
Q 2560 2944 2733 2406 
Q 3232 2944 3776 2944 
Q 4518 2944 4518 1792 
L 4518 493 
Q 4518 282 4582 202 
Q 4646 122 4794 109 
L 4960 96 
L 4960 0 
z
" transform="scale(0.015625)"/>
       <path id="STIXGeneral-Regular-32" d="M 3034 877 
L 2688 0 
L 186 0 
L 186 77 
L 1325 1286 
Q 1773 1754 1965 2144 
Q 2157 2534 2157 2950 
Q 2157 3379 1920 3616 
Q 1683 3853 1267 3853 
Q 922 3853 720 3673 
Q 518 3494 326 3021 
L 192 3053 
Q 301 3648 630 3987 
Q 960 4326 1523 4326 
Q 2054 4326 2380 4006 
Q 2707 3686 2707 3200 
Q 2707 2477 1888 1613 
L 832 486 
L 2330 486 
Q 2541 486 2665 569 
Q 2790 653 2944 915 
L 3034 877 
z
" transform="scale(0.015625)"/>
       <path id="STIXGeneral-Regular-29" d="M 186 4224 
L 262 4326 
Q 992 3891 1408 3148 
Q 1824 2406 1824 1581 
Q 1824 -166 243 -1133 
L 186 -1030 
Q 845 -486 1059 54 
Q 1274 595 1274 1562 
Q 1274 2534 1059 3120 
Q 845 3706 186 4224 
z
" transform="scale(0.015625)"/>
      </defs>
      <use xlink:href="#LiberationSans-48" transform="translate(0 0.409375)"/>
      <use xlink:href="#LiberationSans-46" transform="translate(72.216797 0.409375)"/>
      <use xlink:href="#LiberationSans-41" transform="translate(133.300781 0.409375)"/>
      <use xlink:href="#LiberationSans-43" transform="translate(200 0.409375)"/>
      <use xlink:href="#LiberationSans-46" transform="translate(272.216797 0.409375)"/>
      <use xlink:href="#LiberationSans-20" transform="translate(333.300781 0.409375)"/>
      <use xlink:href="#STIXGeneral-Regular-28" transform="translate(361.083984 0.409375)"/>
      <use xlink:href="#STIXGeneral-Regular-57" transform="translate(394.383972 0.409375)"/>
      <use xlink:href="#STIXGeneral-Regular-2f" transform="translate(488.783966 0.409375)"/>
      <use xlink:href="#STIXGeneral-Regular-6d" transform="translate(516.583954 0.409375)"/>
      <use xlink:href="#STIXGeneral-Regular-32" transform="translate(595.927223 35.684375) scale(0.7)"/>
      <use xlink:href="#STIXGeneral-Regular-29" transform="translate(635.336587 0.409375)"/>
      <use xlink:href="#STIXGeneral-Regular-32" transform="translate(670.179856 35.684375) scale(0.7)"/>
     </g>
    </g>
    <g id="text_15">
     <!-- $\times\mathdefault{10^{18}}\mathdefault{}$ -->
     <g transform="translate(79.5 36.1875) scale(0.4 -0.4)">
      <defs>
       <path id="STIXGeneral-Regular-d7" d="M 3821 141 
L 3526 -160 
L 2048 1312 
L 570 -160 
L 275 134 
L 1747 1613 
L 275 3091 
L 576 3386 
L 2048 1914 
L 3526 3386 
L 3821 3098 
L 2349 1613 
L 3821 141 
z
" transform="scale(0.015625)"/>
      </defs>
      <use xlink:href="#STIXGeneral-Regular-d7" transform="translate(0 0.140625)"/>
      <use xlink:href="#LiberationSans-31" transform="translate(63.999985 0.140625)"/>
      <use xlink:href="#LiberationSans-30" transform="translate(119.615219 0.140625)"/>
      <use xlink:href="#LiberationSans-31" transform="translate(176.154946 37.120312) scale(0.7)"/>
      <use xlink:href="#LiberationSans-38" transform="translate(215.08561 37.120312) scale(0.7)"/>
     </g>
    </g>
   </g>
   <g id="line2d_45">
    <path d="M 107.865545 66.514909 
L 108.432913 105.575895 
L 108.943543 169.966284 
L 109.794595 311.561324 
L 110.92933 490.304434 
L 111.553435 556.968438 
L 112.064065 590.956655 
L 112.51796 607.227187 
L 112.85838 612.30084 
L 113.02859 613.063091 
L 113.142064 612.954947 
L 113.312274 612.082739 
L 113.539221 609.748939 
L 113.993115 602.20593 
L 114.78743 584.745564 
L 116.092376 557.0335 
L 117.170374 539.387958 
L 117.964689 529.567581 
L 118.64553 523.493086 
L 119.269634 519.613917 
L 119.780265 517.646934 
L 120.234159 516.729411 
L 120.631317 516.458937 
L 120.801527 516.463482 
L 121.141948 516.660682 
L 121.652578 517.381966 
L 122.163209 518.226384 
L 123.184471 518.087051 
L 124.035523 518.176046 
L 124.829837 518.46692 
L 126.19152 519.248318 
L 128.404253 520.503237 
L 129.198568 520.800091 
L 130.106356 520.869835 
L 130.616987 520.741023 
L 131.241091 520.382056 
L 131.865196 519.796443 
L 132.943194 518.430541 
L 134.134666 517.00533 
L 134.702034 516.596294 
L 135.269402 516.457466 
L 135.609822 516.509508 
L 136.120453 516.768769 
L 137.084978 517.587561 
L 139.240975 519.485972 
L 139.978553 519.811848 
L 141.226762 520.038858 
L 144.347284 520.174416 
L 147.524543 519.591595 
L 148.262121 519.179441 
L 149.283382 518.312873 
L 150.872012 516.931728 
L 151.552853 516.797825 
L 152.12022 516.943728 
L 152.630851 517.256769 
L 153.481903 518.051284 
L 155.354216 519.878647 
L 156.205267 520.305812 
L 156.999582 520.423902 
L 157.964107 520.279088 
L 161.084629 519.464237 
L 162.332838 518.965308 
L 164.034941 518.269248 
L 164.885992 518.229095 
L 165.510097 518.427786 
L 166.644832 519.363904 
L 168.006514 520.68918 
L 168.687355 521.089949 
L 169.368197 521.219187 
L 169.992301 521.134248 
L 171.353983 520.543506 
L 172.034824 520.202273 
L 173.16956 519.674928 
L 174.814926 518.825136 
L 177.254607 517.269899 
L 178.162395 516.946275 
L 178.843236 516.933638 
L 179.637551 517.352686 
L 180.602076 518.175788 
L 181.963758 519.362299 
L 182.758073 519.867479 
L 183.892808 520.272861 
L 185.25449 520.36461 
L 186.445962 520.233017 
L 188.431749 519.647107 
L 190.757956 518.663355 
L 191.609008 518.555305 
L 192.687006 518.818659 
L 193.991952 519.516876 
L 194.89974 519.857956 
L 195.750792 519.917851 
L 196.431633 519.796178 
L 199.098261 519.060927 
L 199.892575 519.182207 
L 200.800364 519.523897 
L 201.935099 519.989339 
L 202.672677 520.104175 
L 203.183308 520.036114 
L 203.977622 519.661988 
L 204.998884 518.813828 
L 206.530777 517.511648 
L 207.325091 517.131181 
L 207.949196 517.084624 
L 208.516563 517.222975 
L 209.878246 518.013653 
L 211.977506 519.261566 
L 213.452662 519.878882 
L 215.722132 520.529316 
L 216.45971 520.497594 
L 217.367499 520.179053 
L 218.899391 519.165285 
L 219.863916 518.624027 
L 220.544757 518.451904 
L 221.509282 518.496024 
L 222.700754 518.714964 
L 223.722016 519.018706 
L 225.083698 519.206165 
L 227.750326 519.24882 
L 228.885062 519.591241 
L 230.360217 520.054568 
L 231.154532 520.095566 
L 231.948847 519.890576 
L 232.629688 519.530823 
L 235.296316 518.044735 
L 235.806947 518.070407 
L 236.487788 518.335915 
L 238.757258 519.44422 
L 240.118941 519.721767 
L 244.090514 520.136152 
L 245.225249 520.015347 
L 245.962827 519.787116 
L 246.984089 519.194783 
L 249.707454 517.276216 
L 249.934401 517.307459 
L 250.785452 517.417046 
L 251.466293 517.641746 
L 252.771239 518.389627 
L 255.267657 519.959979 
L 256.232182 520.196945 
L 257.253443 520.139501 
L 258.274705 519.868461 
L 261.054806 518.833317 
L 263.154067 517.98876 
L 263.948381 517.816342 
L 264.799433 517.987429 
L 267.352587 519.368338 
L 268.544059 519.895001 
L 269.111427 520.020884 
L 269.905742 519.989947 
L 270.529846 519.815292 
L 271.664581 519.241553 
L 272.74258 518.690774 
L 273.877315 518.398553 
L 277.111311 517.957173 
L 277.905625 517.740846 
L 279.097097 517.627159 
L 280.118359 517.724751 
L 281.366568 518.171387 
L 282.217619 518.706136 
L 283.465828 519.748204 
L 284.82751 520.733051 
L 285.792035 520.894932 
L 286.472876 520.681713 
L 287.323928 520.172576 
L 289.423188 518.829618 
L 292.657184 517.03869 
L 293.224551 517.121191 
L 293.791919 517.4187 
L 294.47276 518.016106 
L 296.855704 520.429339 
L 297.706756 520.793563 
L 298.274123 520.869197 
L 298.898228 520.852566 
L 300.25991 520.615914 
L 302.132223 520.013566 
L 302.983275 519.528277 
L 305.763376 517.720792 
L 306.500954 517.579321 
L 307.352005 517.828804 
L 308.997372 519.018323 
L 310.302317 519.956379 
L 311.550526 520.562037 
L 313.593049 521.222564 
L 314.557574 521.215236 
L 315.408626 520.841022 
L 316.146204 520.230825 
L 317.167466 519.113244 
L 318.585885 517.5364 
L 319.436936 516.912573 
L 320.06104 516.695206 
L 320.685145 516.6869 
L 321.64967 517.223616 
L 323.011352 518.300176 
L 324.826929 520.092128 
L 326.018401 521.17573 
L 326.869452 521.596799 
L 327.43682 521.614653 
L 327.947451 521.438452 
L 328.798502 520.77808 
L 329.592817 519.921801 
L 331.067973 518.333094 
L 331.692077 517.901316 
L 332.316181 517.719481 
L 332.940286 517.819193 
L 333.507653 518.099787 
L 335.436703 519.179392 
L 336.287755 519.153041 
L 337.365753 518.787825 
L 338.840909 518.313922 
L 339.975644 518.300254 
L 341.11038 518.562553 
L 342.131641 518.925968 
L 344.798269 519.642532 
L 345.422374 519.504953 
L 346.046478 519.185532 
L 347.011003 518.41113 
L 348.542896 517.185876 
L 349.167 516.982375 
L 349.961315 517.041762 
L 350.642156 517.319214 
L 351.322997 517.830753 
L 352.457732 519.069288 
L 353.705941 520.400609 
L 354.556993 520.88547 
L 355.12436 520.947561 
L 355.691728 520.813932 
L 356.202359 520.546021 
L 357.280357 519.76084 
L 358.244882 519.055994 
L 359.266144 518.532405 
L 360.173932 518.320882 
L 361.705825 518.379109 
L 363.124244 518.472901 
L 363.407928 518.408012 
L 366.35824 517.679391 
L 367.436238 517.953494 
L 368.230553 518.393343 
L 369.989392 519.765909 
L 371.124128 520.706748 
L 372.088653 521.265548 
L 372.712757 521.366475 
L 373.223388 521.254663 
L 373.734019 520.948129 
L 374.528333 520.123581 
L 375.663069 518.493157 
L 377.194961 516.396787 
L 377.762329 515.971749 
L 378.329697 515.796268 
L 378.897064 515.845992 
L 379.407695 516.085809 
L 380.20201 516.797401 
L 380.996325 517.794095 
L 383.152322 520.407557 
L 383.833163 520.818564 
L 384.40053 520.933921 
L 384.911161 520.870842 
L 385.648739 520.572332 
L 389.052945 518.466071 
L 390.414627 518.108126 
L 391.719573 518.105896 
L 393.194729 518.679202 
L 394.726621 519.415554 
L 396.542198 520.367091 
L 397.90388 520.902305 
L 398.527984 520.989565 
L 399.152089 520.926792 
L 399.83293 520.644084 
L 400.910929 519.781885 
L 403.52082 517.265875 
L 404.712292 516.562606 
L 405.62008 516.274232 
L 406.017237 516.287601 
L 406.641342 516.552713 
L 407.605867 517.461372 
L 408.570392 518.739935 
L 410.442705 521.165895 
L 411.40723 521.853342 
L 412.031334 522.0487 
L 412.825649 521.99926 
L 413.733437 521.608694 
L 420.031218 517.933445 
L 420.882269 517.87811 
L 422.811319 518.10678 
L 424.229738 518.419744 
L 425.08079 518.854111 
L 426.102052 519.672117 
L 427.406997 520.753379 
L 428.031101 521.02847 
L 428.711943 521.043596 
L 429.27931 520.80455 
L 430.016888 520.196713 
L 432.626779 517.577809 
L 433.250884 517.383619 
L 434.101935 517.469134 
L 434.499093 517.831864 
L 436.314669 519.269598 
L 437.222457 519.666387 
L 438.243719 519.92091 
L 439.832348 520.077893 
L 441.250767 520.012752 
L 443.406764 519.52741 
L 444.5415 518.965557 
L 445.676235 518.026884 
L 447.321601 516.632197 
L 447.832232 516.43242 
L 448.3996 516.434807 
L 448.966967 516.67658 
L 449.818019 517.361411 
L 451.066227 518.711405 
L 452.257699 519.95406 
L 453.335698 520.744157 
L 454.073276 521.057175 
L 454.924327 521.187889 
L 455.718642 521.095379 
L 456.853377 520.547262 
L 457.704429 519.841271 
L 458.55548 518.954576 
L 460.371057 517.151779 
L 461.165371 516.644175 
L 461.959686 516.369373 
L 462.470317 516.304163 
L 462.754001 516.42855 
L 463.775262 516.958134 
L 464.456104 517.47165 
L 465.363892 518.352619 
L 467.860309 520.993573 
L 468.597887 521.32476 
L 469.108518 521.347677 
L 469.732623 521.127538 
L 470.413464 520.633638 
L 472.05883 518.93813 
L 473.136828 517.981485 
L 473.98788 517.51783 
L 474.838931 517.370396 
L 475.463036 517.441224 
L 476.370824 517.787238 
L 477.051665 518.236121 
L 478.299874 519.054206 
L 479.207662 519.320235 
L 480.001977 519.313446 
L 482.611868 519.068911 
L 483.235972 519.210853 
L 486.299758 519.958035 
L 487.377756 519.720681 
L 488.455755 519.126105 
L 491.235856 517.26097 
L 491.916697 517.160851 
L 492.427328 517.241117 
L 493.108169 517.573234 
L 494.015957 518.319783 
L 495.71806 519.904965 
L 496.512375 520.386865 
L 497.193216 520.61314 
L 497.930794 520.715234 
L 500.086791 520.576125 
L 500.881106 520.283089 
L 501.561947 519.8131 
L 502.469735 518.882052 
L 504.285312 516.947499 
L 504.852679 516.664931 
L 505.306573 516.673899 
L 506.044151 516.974811 
L 507.12215 517.723544 
L 509.22141 519.267911 
L 510.242672 519.734615 
L 511.093723 519.891461 
L 512.341932 519.792743 
L 513.760351 519.525308 
L 516.653926 519.312282 
L 517.391504 518.957723 
L 518.753186 517.896524 
L 519.604238 517.34288 
L 520.228342 517.207486 
L 520.79571 517.294911 
L 521.419814 517.649125 
L 522.214129 518.40129 
L 524.313389 520.653007 
L 524.99423 521.010267 
L 525.618335 521.084405 
L 526.299176 520.900408 
L 527.206964 520.326241 
L 529.589908 518.557234 
L 533.901902 516.516199 
L 534.526007 516.629131 
L 535.206848 517.010009 
L 536.73874 518.391035 
L 537.646529 519.070065 
L 538.554317 519.442694 
L 539.575579 519.573544 
L 541.901786 519.877914 
L 543.263468 520.105939 
L 543.944309 520.008736 
L 544.852098 519.540366 
L 545.930096 518.58642 
L 547.235042 517.424124 
L 547.745672 517.188086 
L 548.369777 517.239913 
L 548.937145 517.465211 
L 551.830719 519.287032 
L 554.894505 520.339917 
L 555.85903 520.365225 
L 556.937028 519.916077 
L 559.546919 518.39552 
L 561.532706 517.935665 
L 562.951125 517.719908 
L 564.539754 517.848644 
L 565.617753 518.286661 
L 566.525541 518.923601 
L 568.851749 520.83064 
L 569.646063 521.104594 
L 570.270168 521.066972 
L 570.894272 520.811381 
L 571.518376 520.324731 
L 572.426165 519.319643 
L 574.468688 516.98066 
L 575.149529 516.606189 
L 575.83037 516.533882 
L 576.341001 516.47407 
L 576.965106 516.533661 
L 577.702684 516.886615 
L 578.553735 517.642108 
L 581.2771 520.242047 
L 582.184888 520.6957 
L 583.035939 520.945812 
L 584.227411 520.994347 
L 585.418883 520.64268 
L 586.667092 519.782295 
L 588.823089 518.091522 
L 589.957825 517.590249 
L 591.546454 517.359308 
L 592.454242 517.464332 
L 593.588977 517.887011 
L 594.496766 518.446421 
L 596.369079 519.973774 
L 597.617288 520.91206 
L 598.411602 521.265691 
L 599.262654 521.285625 
L 599.886758 521.041568 
L 600.681073 520.44429 
L 602.950543 518.318148 
L 604.142015 517.757683 
L 605.730645 517.525081 
L 606.468223 517.70602 
L 607.262537 518.111586 
L 608.170326 518.702275 
L 609.305061 519.295492 
L 610.383059 519.552242 
L 612.709267 519.877907 
L 613.957476 519.97265 
L 614.865264 519.751032 
L 615.886525 519.076188 
L 618.26947 517.165359 
L 618.666627 517.104118 
L 619.347468 517.33196 
L 620.028309 517.825471 
L 621.333255 519.066816 
L 622.46799 519.97757 
L 623.375778 520.373817 
L 624.113356 520.444343 
L 624.907671 520.305811 
L 625.758722 519.935458 
L 626.779984 519.272556 
L 628.652297 517.850149 
L 629.900506 517.155928 
L 630.751558 516.957493 
L 631.545872 517.025449 
L 633.361449 517.735977 
L 635.517446 518.919457 
L 638.524494 520.830029 
L 639.091862 520.922333 
L 639.82944 520.847486 
L 640.850701 520.421518 
L 641.645016 519.933509 
L 645.105959 517.605916 
L 646.070484 517.44967 
L 646.921535 517.531055 
L 647.829323 517.981061 
L 649.077532 518.85155 
L 651.630686 520.779543 
L 652.311528 521.038502 
L 652.878895 521.097874 
L 653.446263 521.023647 
L 654.354051 520.648831 
L 655.942681 519.69292 
L 660.254675 516.945428 
L 660.878779 516.86562 
L 662.240461 517.147365 
L 663.261723 517.810634 
L 665.190773 519.162986 
L 666.438982 519.690688 
L 669.672977 520.401593 
L 670.410555 520.301834 
L 671.318343 519.885837 
L 672.055921 519.295088 
L 673.247393 517.972803 
L 674.949496 516.130013 
L 675.176443 515.965174 
L 675.176443 515.965174 
" clip-path="url(#p7e2a88b89d)" style="fill: none; stroke: #0000ff; stroke-width: 1.5; stroke-linecap: square"/>
   </g>
   <g id="patch_3">
    <path d="M 79.5 640.3905 
L 79.5 39.1875 
" style="fill: none; stroke: #000000; stroke-width: 0.8; stroke-linejoin: miter; stroke-linecap: square"/>
   </g>
   <g id="patch_4">
    <path d="M 703.541988 640.3905 
L 703.541988 39.1875 
" style="fill: none; stroke: #000000; stroke-width: 0.8; stroke-linejoin: miter; stroke-linecap: square"/>
   </g>
   <g id="patch_5">
    <path d="M 79.5 640.3905 
L 703.541988 640.3905 
" style="fill: none; stroke: #000000; stroke-width: 0.8; stroke-linejoin: miter; stroke-linecap: square"/>
   </g>
   <g id="patch_6">
    <path d="M 79.5 39.1875 
L 703.541988 39.1875 
" style="fill: none; stroke: #000000; stroke-width: 0.8; stroke-linejoin: miter; stroke-linecap: square"/>
   </g>
  </g>
 </g>
 <defs>
  <clipPath id="p7e2a88b89d">
   <rect x="79.5" y="39.1875" width="624.041988" height="601.203"/>
  </clipPath>
 </defs>
</svg>
