<?xml version="1.0" encoding="utf-8" standalone="no"?>
<!DOCTYPE svg PUBLIC "-//W3C//DTD SVG 1.1//EN"
  "http://www.w3.org/Graphics/SVG/1.1/DTD/svg11.dtd">
<svg xmlns:xlink="http://www.w3.org/1999/xlink" width="710.647477pt" height="711.02175pt" viewBox="0 0 710.647477 711.02175" xmlns="http://www.w3.org/2000/svg" version="1.1">
 <metadata>
  <rdf:RDF xmlns:dc="http://purl.org/dc/elements/1.1/" xmlns:cc="http://creativecommons.org/ns#" xmlns:rdf="http://www.w3.org/1999/02/22-rdf-syntax-ns#">
   <cc:Work>
    <dc:type rdf:resource="http://purl.org/dc/dcmitype/StillImage"/>
    <dc:date>2025-02-02T15:20:19.999547</dc:date>
    <dc:format>image/svg+xml</dc:format>
    <dc:creator>
     <cc:Agent>
      <dc:title>Matplotlib v3.9.3, https://matplotlib.org/</dc:title>
     </cc:Agent>
    </dc:creator>
   </cc:Work>
  </rdf:RDF>
 </metadata>
 <defs>
  <style type="text/css">*{stroke-linejoin: round; stroke-linecap: butt}</style>
 </defs>
 <g id="figure_1">
  <g id="patch_1">
   <path d="M 0 711.02175 
L 710.647477 711.02175 
L 710.647477 0 
L 0 0 
z
" style="fill: #ffffff"/>
  </g>
  <g id="axes_1">
   <g id="patch_2">
    <path d="M 104.4 640.3905 
L 703.447477 640.3905 
L 703.447477 39.1875 
L 104.4 39.1875 
z
" style="fill: #ffffff"/>
   </g>
   <g id="matplotlib.axis_1">
    <g id="xtick_1">
     <g id="line2d_1">
      <defs>
       <path id="m4ca167604c" d="M 0 0 
L 0 -3.5 
" style="stroke: #000000; stroke-width: 0.8"/>
      </defs>
      <g>
       <use xlink:href="#m4ca167604c" x="131.574966" y="640.3905" style="stroke: #000000; stroke-width: 0.8"/>
      </g>
     </g>
     <g id="text_1">
      <!-- 0 -->
      <g transform="translate(123.23356 665.631125) scale(0.3 -0.3)">
       <defs>
        <path id="LiberationSans-30" d="M 3309 2203 
Q 3309 1100 2920 518 
Q 2531 -63 1772 -63 
Q 1013 -63 631 515 
Q 250 1094 250 2203 
Q 250 3338 620 3903 
Q 991 4469 1791 4469 
Q 2569 4469 2939 3897 
Q 3309 3325 3309 2203 
z
M 2738 2203 
Q 2738 3156 2517 3584 
Q 2297 4013 1791 4013 
Q 1272 4013 1045 3591 
Q 819 3169 819 2203 
Q 819 1266 1048 831 
Q 1278 397 1778 397 
Q 2275 397 2506 840 
Q 2738 1284 2738 2203 
z
" transform="scale(0.015625)"/>
       </defs>
       <use xlink:href="#LiberationSans-30"/>
      </g>
     </g>
    </g>
    <g id="xtick_2">
     <g id="line2d_2">
      <g>
       <use xlink:href="#m4ca167604c" x="240.503582" y="640.3905" style="stroke: #000000; stroke-width: 0.8"/>
      </g>
     </g>
     <g id="text_2">
      <!-- 2 -->
      <g transform="translate(232.162176 665.631125) scale(0.3 -0.3)">
       <defs>
        <path id="LiberationSans-32" d="M 322 0 
L 322 397 
Q 481 763 711 1042 
Q 941 1322 1194 1548 
Q 1447 1775 1695 1969 
Q 1944 2163 2144 2356 
Q 2344 2550 2467 2762 
Q 2591 2975 2591 3244 
Q 2591 3606 2378 3806 
Q 2166 4006 1788 4006 
Q 1428 4006 1195 3811 
Q 963 3616 922 3263 
L 347 3316 
Q 409 3844 795 4156 
Q 1181 4469 1788 4469 
Q 2453 4469 2811 4155 
Q 3169 3841 3169 3263 
Q 3169 3006 3051 2753 
Q 2934 2500 2703 2247 
Q 2472 1994 1819 1463 
Q 1459 1169 1246 933 
Q 1034 697 941 478 
L 3238 478 
L 3238 0 
L 322 0 
z
" transform="scale(0.015625)"/>
       </defs>
       <use xlink:href="#LiberationSans-32"/>
      </g>
     </g>
    </g>
    <g id="xtick_3">
     <g id="line2d_3">
      <g>
       <use xlink:href="#m4ca167604c" x="349.432198" y="640.3905" style="stroke: #000000; stroke-width: 0.8"/>
      </g>
     </g>
     <g id="text_3">
      <!-- 4 -->
      <g transform="translate(341.090792 665.631125) scale(0.3 -0.3)">
       <defs>
        <path id="LiberationSans-34" d="M 2753 997 
L 2753 0 
L 2222 0 
L 2222 997 
L 147 997 
L 147 1434 
L 2163 4403 
L 2753 4403 
L 2753 1441 
L 3372 1441 
L 3372 997 
L 2753 997 
z
M 2222 3769 
Q 2216 3750 2134 3603 
Q 2053 3456 2013 3397 
L 884 1734 
L 716 1503 
L 666 1441 
L 2222 1441 
L 2222 3769 
z
" transform="scale(0.015625)"/>
       </defs>
       <use xlink:href="#LiberationSans-34"/>
      </g>
     </g>
    </g>
    <g id="xtick_4">
     <g id="line2d_4">
      <g>
       <use xlink:href="#m4ca167604c" x="458.360814" y="640.3905" style="stroke: #000000; stroke-width: 0.8"/>
      </g>
     </g>
     <g id="text_4">
      <!-- 6 -->
      <g transform="translate(450.019408 665.631125) scale(0.3 -0.3)">
       <defs>
        <path id="LiberationSans-36" d="M 3278 1441 
Q 3278 744 2900 340 
Q 2522 -63 1856 -63 
Q 1113 -63 719 490 
Q 325 1044 325 2100 
Q 325 3244 734 3856 
Q 1144 4469 1900 4469 
Q 2897 4469 3156 3572 
L 2619 3475 
Q 2453 4013 1894 4013 
Q 1413 4013 1148 3564 
Q 884 3116 884 2266 
Q 1038 2550 1316 2698 
Q 1594 2847 1953 2847 
Q 2563 2847 2920 2465 
Q 3278 2084 3278 1441 
z
M 2706 1416 
Q 2706 1894 2472 2153 
Q 2238 2413 1819 2413 
Q 1425 2413 1183 2183 
Q 941 1953 941 1550 
Q 941 1041 1192 716 
Q 1444 391 1838 391 
Q 2244 391 2475 664 
Q 2706 938 2706 1416 
z
" transform="scale(0.015625)"/>
       </defs>
       <use xlink:href="#LiberationSans-36"/>
      </g>
     </g>
    </g>
    <g id="xtick_5">
     <g id="line2d_5">
      <g>
       <use xlink:href="#m4ca167604c" x="567.28943" y="640.3905" style="stroke: #000000; stroke-width: 0.8"/>
      </g>
     </g>
     <g id="text_5">
      <!-- 8 -->
      <g transform="translate(558.948024 665.631125) scale(0.3 -0.3)">
       <defs>
        <path id="LiberationSans-38" d="M 3281 1228 
Q 3281 619 2893 278 
Q 2506 -63 1781 -63 
Q 1075 -63 676 271 
Q 278 606 278 1222 
Q 278 1653 525 1947 
Q 772 2241 1156 2303 
L 1156 2316 
Q 797 2400 589 2681 
Q 381 2963 381 3341 
Q 381 3844 757 4156 
Q 1134 4469 1769 4469 
Q 2419 4469 2795 4162 
Q 3172 3856 3172 3334 
Q 3172 2956 2962 2675 
Q 2753 2394 2391 2322 
L 2391 2309 
Q 2813 2241 3047 1952 
Q 3281 1663 3281 1228 
z
M 2588 3303 
Q 2588 4050 1769 4050 
Q 1372 4050 1164 3862 
Q 956 3675 956 3303 
Q 956 2925 1170 2726 
Q 1384 2528 1775 2528 
Q 2172 2528 2380 2711 
Q 2588 2894 2588 3303 
z
M 2697 1281 
Q 2697 1691 2453 1898 
Q 2209 2106 1769 2106 
Q 1341 2106 1100 1882 
Q 859 1659 859 1269 
Q 859 359 1788 359 
Q 2247 359 2472 579 
Q 2697 800 2697 1281 
z
" transform="scale(0.015625)"/>
       </defs>
       <use xlink:href="#LiberationSans-38"/>
      </g>
     </g>
    </g>
    <g id="xtick_6">
     <g id="line2d_6">
      <g>
       <use xlink:href="#m4ca167604c" x="676.218046" y="640.3905" style="stroke: #000000; stroke-width: 0.8"/>
      </g>
     </g>
     <g id="text_6">
      <!-- 10 -->
      <g transform="translate(659.535233 665.631125) scale(0.3 -0.3)">
       <defs>
        <path id="LiberationSans-31" d="M 488 0 
L 488 478 
L 1609 478 
L 1609 3866 
L 616 3156 
L 616 3688 
L 1656 4403 
L 2175 4403 
L 2175 478 
L 3247 478 
L 3247 0 
L 488 0 
z
" transform="scale(0.015625)"/>
       </defs>
       <use xlink:href="#LiberationSans-31"/>
       <use xlink:href="#LiberationSans-30" x="55.615234"/>
      </g>
     </g>
    </g>
    <g id="xtick_7">
     <g id="line2d_7">
      <defs>
       <path id="mff074fd908" d="M 0 0 
L 0 -2 
" style="stroke: #000000; stroke-width: 0.6"/>
      </defs>
      <g>
       <use xlink:href="#mff074fd908" x="158.80712" y="640.3905" style="stroke: #000000; stroke-width: 0.6"/>
      </g>
     </g>
    </g>
    <g id="xtick_8">
     <g id="line2d_8">
      <g>
       <use xlink:href="#mff074fd908" x="186.039274" y="640.3905" style="stroke: #000000; stroke-width: 0.6"/>
      </g>
     </g>
    </g>
    <g id="xtick_9">
     <g id="line2d_9">
      <g>
       <use xlink:href="#mff074fd908" x="213.271428" y="640.3905" style="stroke: #000000; stroke-width: 0.6"/>
      </g>
     </g>
    </g>
    <g id="xtick_10">
     <g id="line2d_10">
      <g>
       <use xlink:href="#mff074fd908" x="267.735736" y="640.3905" style="stroke: #000000; stroke-width: 0.6"/>
      </g>
     </g>
    </g>
    <g id="xtick_11">
     <g id="line2d_11">
      <g>
       <use xlink:href="#mff074fd908" x="294.96789" y="640.3905" style="stroke: #000000; stroke-width: 0.6"/>
      </g>
     </g>
    </g>
    <g id="xtick_12">
     <g id="line2d_12">
      <g>
       <use xlink:href="#mff074fd908" x="322.200044" y="640.3905" style="stroke: #000000; stroke-width: 0.6"/>
      </g>
     </g>
    </g>
    <g id="xtick_13">
     <g id="line2d_13">
      <g>
       <use xlink:href="#mff074fd908" x="376.664352" y="640.3905" style="stroke: #000000; stroke-width: 0.6"/>
      </g>
     </g>
    </g>
    <g id="xtick_14">
     <g id="line2d_14">
      <g>
       <use xlink:href="#mff074fd908" x="403.896506" y="640.3905" style="stroke: #000000; stroke-width: 0.6"/>
      </g>
     </g>
    </g>
    <g id="xtick_15">
     <g id="line2d_15">
      <g>
       <use xlink:href="#mff074fd908" x="431.12866" y="640.3905" style="stroke: #000000; stroke-width: 0.6"/>
      </g>
     </g>
    </g>
    <g id="xtick_16">
     <g id="line2d_16">
      <g>
       <use xlink:href="#mff074fd908" x="485.592968" y="640.3905" style="stroke: #000000; stroke-width: 0.6"/>
      </g>
     </g>
    </g>
    <g id="xtick_17">
     <g id="line2d_17">
      <g>
       <use xlink:href="#mff074fd908" x="512.825122" y="640.3905" style="stroke: #000000; stroke-width: 0.6"/>
      </g>
     </g>
    </g>
    <g id="xtick_18">
     <g id="line2d_18">
      <g>
       <use xlink:href="#mff074fd908" x="540.057276" y="640.3905" style="stroke: #000000; stroke-width: 0.6"/>
      </g>
     </g>
    </g>
    <g id="xtick_19">
     <g id="line2d_19">
      <g>
       <use xlink:href="#mff074fd908" x="594.521584" y="640.3905" style="stroke: #000000; stroke-width: 0.6"/>
      </g>
     </g>
    </g>
    <g id="xtick_20">
     <g id="line2d_20">
      <g>
       <use xlink:href="#mff074fd908" x="621.753738" y="640.3905" style="stroke: #000000; stroke-width: 0.6"/>
      </g>
     </g>
    </g>
    <g id="xtick_21">
     <g id="line2d_21">
      <g>
       <use xlink:href="#mff074fd908" x="648.985892" y="640.3905" style="stroke: #000000; stroke-width: 0.6"/>
      </g>
     </g>
    </g>
    <g id="text_7">
     <!-- Time ps -->
     <g transform="translate(351.147176 697.59675) scale(0.3 -0.3)">
      <defs>
       <path id="LiberationSans-54" d="M 2250 3916 
L 2250 0 
L 1656 0 
L 1656 3916 
L 144 3916 
L 144 4403 
L 3763 4403 
L 3763 3916 
L 2250 3916 
z
" transform="scale(0.015625)"/>
       <path id="LiberationSans-69" d="M 428 4100 
L 428 4638 
L 991 4638 
L 991 4100 
L 428 4100 
z
M 428 0 
L 428 3381 
L 991 3381 
L 991 0 
L 428 0 
z
" transform="scale(0.015625)"/>
       <path id="LiberationSans-6d" d="M 2400 0 
L 2400 2144 
Q 2400 2634 2265 2821 
Q 2131 3009 1781 3009 
Q 1422 3009 1212 2734 
Q 1003 2459 1003 1959 
L 1003 0 
L 444 0 
L 444 2659 
Q 444 3250 425 3381 
L 956 3381 
Q 959 3366 962 3297 
Q 966 3228 970 3139 
Q 975 3050 981 2803 
L 991 2803 
Q 1172 3163 1406 3303 
Q 1641 3444 1978 3444 
Q 2363 3444 2586 3291 
Q 2809 3138 2897 2803 
L 2906 2803 
Q 3081 3144 3329 3294 
Q 3578 3444 3931 3444 
Q 4444 3444 4676 3166 
Q 4909 2888 4909 2253 
L 4909 0 
L 4353 0 
L 4353 2144 
Q 4353 2634 4218 2821 
Q 4084 3009 3734 3009 
Q 3366 3009 3161 2736 
Q 2956 2463 2956 1959 
L 2956 0 
L 2400 0 
z
" transform="scale(0.015625)"/>
       <path id="LiberationSans-65" d="M 863 1572 
Q 863 991 1103 675 
Q 1344 359 1806 359 
Q 2172 359 2392 506 
Q 2613 653 2691 878 
L 3184 738 
Q 2881 -63 1806 -63 
Q 1056 -63 664 384 
Q 272 831 272 1713 
Q 272 2550 664 2997 
Q 1056 3444 1784 3444 
Q 3275 3444 3275 1647 
L 3275 1572 
L 863 1572 
z
M 2694 2003 
Q 2647 2538 2422 2783 
Q 2197 3028 1775 3028 
Q 1366 3028 1127 2754 
Q 888 2481 869 2003 
L 2694 2003 
z
" transform="scale(0.015625)"/>
       <path id="LiberationSans-20" transform="scale(0.015625)"/>
       <path id="LiberationSans-70" d="M 3291 1706 
Q 3291 -63 2047 -63 
Q 1266 -63 997 525 
L 981 525 
Q 994 500 994 -6 
L 994 -1328 
L 431 -1328 
L 431 2691 
Q 431 3213 413 3381 
L 956 3381 
Q 959 3369 965 3292 
Q 972 3216 980 3056 
Q 988 2897 988 2838 
L 1000 2838 
Q 1150 3150 1397 3295 
Q 1644 3441 2047 3441 
Q 2672 3441 2981 3022 
Q 3291 2603 3291 1706 
z
M 2700 1694 
Q 2700 2400 2509 2703 
Q 2319 3006 1903 3006 
Q 1569 3006 1380 2865 
Q 1191 2725 1092 2426 
Q 994 2128 994 1650 
Q 994 984 1206 668 
Q 1419 353 1897 353 
Q 2316 353 2508 661 
Q 2700 969 2700 1694 
z
" transform="scale(0.015625)"/>
       <path id="LiberationSans-73" d="M 2969 934 
Q 2969 456 2608 196 
Q 2247 -63 1597 -63 
Q 966 -63 623 145 
Q 281 353 178 794 
L 675 891 
Q 747 619 972 492 
Q 1197 366 1597 366 
Q 2025 366 2223 497 
Q 2422 628 2422 891 
Q 2422 1091 2284 1216 
Q 2147 1341 1841 1422 
L 1438 1528 
Q 953 1653 748 1773 
Q 544 1894 428 2066 
Q 313 2238 313 2488 
Q 313 2950 642 3192 
Q 972 3434 1603 3434 
Q 2163 3434 2492 3237 
Q 2822 3041 2909 2606 
L 2403 2544 
Q 2356 2769 2151 2889 
Q 1947 3009 1603 3009 
Q 1222 3009 1040 2893 
Q 859 2778 859 2544 
Q 859 2400 934 2306 
Q 1009 2213 1156 2147 
Q 1303 2081 1775 1966 
Q 2222 1853 2419 1758 
Q 2616 1663 2730 1547 
Q 2844 1431 2906 1279 
Q 2969 1128 2969 934 
z
" transform="scale(0.015625)"/>
      </defs>
      <use xlink:href="#LiberationSans-54"/>
      <use xlink:href="#LiberationSans-69" x="57.333984"/>
      <use xlink:href="#LiberationSans-6d" x="79.550781"/>
      <use xlink:href="#LiberationSans-65" x="162.851562"/>
      <use xlink:href="#LiberationSans-20" x="218.466797"/>
      <use xlink:href="#LiberationSans-70" x="246.25"/>
      <use xlink:href="#LiberationSans-73" x="301.865234"/>
     </g>
    </g>
   </g>
   <g id="matplotlib.axis_2">
    <g id="ytick_1">
     <g id="line2d_22">
      <defs>
       <path id="mb4afb3b238" d="M 0 0 
L 3.5 0 
" style="stroke: #000000; stroke-width: 0.8"/>
      </defs>
      <g>
       <use xlink:href="#mb4afb3b238" x="104.4" y="578.228628" style="stroke: #000000; stroke-width: 0.8"/>
      </g>
     </g>
     <g id="text_8">
      <!-- $\mathdefault{−0.2}$ -->
      <g transform="translate(41.5 589.098941) scale(0.3 -0.3)">
       <defs>
        <path id="LiberationSans-2212" d="M 316 1900 
L 316 2356 
L 3425 2356 
L 3425 1900 
L 316 1900 
z
" transform="scale(0.015625)"/>
        <path id="LiberationSans-2e" d="M 584 0 
L 584 684 
L 1194 684 
L 1194 0 
L 584 0 
z
" transform="scale(0.015625)"/>
       </defs>
       <use xlink:href="#LiberationSans-2212" transform="translate(0 0.171875)"/>
       <use xlink:href="#LiberationSans-30" transform="translate(58.398438 0.171875)"/>
       <use xlink:href="#LiberationSans-2e" transform="translate(114.013672 0.171875)"/>
       <use xlink:href="#LiberationSans-32" transform="translate(141.796875 0.171875)"/>
      </g>
     </g>
    </g>
    <g id="ytick_2">
     <g id="line2d_23">
      <g>
       <use xlink:href="#mb4afb3b238" x="104.4" y="489.248791" style="stroke: #000000; stroke-width: 0.8"/>
      </g>
     </g>
     <g id="text_9">
      <!-- $\mathdefault{0.0}$ -->
      <g transform="translate(58.9 500.119104) scale(0.3 -0.3)">
       <use xlink:href="#LiberationSans-30" transform="translate(0 0.171875)"/>
       <use xlink:href="#LiberationSans-2e" transform="translate(55.615234 0.171875)"/>
       <use xlink:href="#LiberationSans-30" transform="translate(83.398438 0.171875)"/>
      </g>
     </g>
    </g>
    <g id="ytick_3">
     <g id="line2d_24">
      <g>
       <use xlink:href="#mb4afb3b238" x="104.4" y="400.268954" style="stroke: #000000; stroke-width: 0.8"/>
      </g>
     </g>
     <g id="text_10">
      <!-- $\mathdefault{0.2}$ -->
      <g transform="translate(58.9 411.139267) scale(0.3 -0.3)">
       <use xlink:href="#LiberationSans-30" transform="translate(0 0.171875)"/>
       <use xlink:href="#LiberationSans-2e" transform="translate(55.615234 0.171875)"/>
       <use xlink:href="#LiberationSans-32" transform="translate(83.398438 0.171875)"/>
      </g>
     </g>
    </g>
    <g id="ytick_4">
     <g id="line2d_25">
      <g>
       <use xlink:href="#mb4afb3b238" x="104.4" y="311.289117" style="stroke: #000000; stroke-width: 0.8"/>
      </g>
     </g>
     <g id="text_11">
      <!-- $\mathdefault{0.4}$ -->
      <g transform="translate(58.9 322.15943) scale(0.3 -0.3)">
       <use xlink:href="#LiberationSans-30" transform="translate(0 0.171875)"/>
       <use xlink:href="#LiberationSans-2e" transform="translate(55.615234 0.171875)"/>
       <use xlink:href="#LiberationSans-34" transform="translate(83.398438 0.171875)"/>
      </g>
     </g>
    </g>
    <g id="ytick_5">
     <g id="line2d_26">
      <g>
       <use xlink:href="#mb4afb3b238" x="104.4" y="222.30928" style="stroke: #000000; stroke-width: 0.8"/>
      </g>
     </g>
     <g id="text_12">
      <!-- $\mathdefault{0.6}$ -->
      <g transform="translate(58.9 233.179592) scale(0.3 -0.3)">
       <use xlink:href="#LiberationSans-30" transform="translate(0 0.171875)"/>
       <use xlink:href="#LiberationSans-2e" transform="translate(55.615234 0.171875)"/>
       <use xlink:href="#LiberationSans-36" transform="translate(83.398438 0.171875)"/>
      </g>
     </g>
    </g>
    <g id="ytick_6">
     <g id="line2d_27">
      <g>
       <use xlink:href="#mb4afb3b238" x="104.4" y="133.329443" style="stroke: #000000; stroke-width: 0.8"/>
      </g>
     </g>
     <g id="text_13">
      <!-- $\mathdefault{0.8}$ -->
      <g transform="translate(58.9 144.199755) scale(0.3 -0.3)">
       <use xlink:href="#LiberationSans-30" transform="translate(0 0.171875)"/>
       <use xlink:href="#LiberationSans-2e" transform="translate(55.615234 0.171875)"/>
       <use xlink:href="#LiberationSans-38" transform="translate(83.398438 0.171875)"/>
      </g>
     </g>
    </g>
    <g id="ytick_7">
     <g id="line2d_28">
      <g>
       <use xlink:href="#mb4afb3b238" x="104.4" y="44.349606" style="stroke: #000000; stroke-width: 0.8"/>
      </g>
     </g>
     <g id="text_14">
      <!-- $\mathdefault{1.0}$ -->
      <g transform="translate(58.9 55.219918) scale(0.3 -0.3)">
       <use xlink:href="#LiberationSans-31" transform="translate(0 0.171875)"/>
       <use xlink:href="#LiberationSans-2e" transform="translate(55.615234 0.171875)"/>
       <use xlink:href="#LiberationSans-30" transform="translate(83.398438 0.171875)"/>
      </g>
     </g>
    </g>
    <g id="ytick_8">
     <g id="line2d_29">
      <defs>
       <path id="m2686f671c3" d="M 0 0 
L 2 0 
" style="stroke: #000000; stroke-width: 0.6"/>
      </defs>
      <g>
       <use xlink:href="#m2686f671c3" x="104.4" y="622.718547" style="stroke: #000000; stroke-width: 0.6"/>
      </g>
     </g>
    </g>
    <g id="ytick_9">
     <g id="line2d_30">
      <g>
       <use xlink:href="#m2686f671c3" x="104.4" y="600.473588" style="stroke: #000000; stroke-width: 0.6"/>
      </g>
     </g>
    </g>
    <g id="ytick_10">
     <g id="line2d_31">
      <g>
       <use xlink:href="#m2686f671c3" x="104.4" y="555.983669" style="stroke: #000000; stroke-width: 0.6"/>
      </g>
     </g>
    </g>
    <g id="ytick_11">
     <g id="line2d_32">
      <g>
       <use xlink:href="#m2686f671c3" x="104.4" y="533.73871" style="stroke: #000000; stroke-width: 0.6"/>
      </g>
     </g>
    </g>
    <g id="ytick_12">
     <g id="line2d_33">
      <g>
       <use xlink:href="#m2686f671c3" x="104.4" y="511.493751" style="stroke: #000000; stroke-width: 0.6"/>
      </g>
     </g>
    </g>
    <g id="ytick_13">
     <g id="line2d_34">
      <g>
       <use xlink:href="#m2686f671c3" x="104.4" y="467.003832" style="stroke: #000000; stroke-width: 0.6"/>
      </g>
     </g>
    </g>
    <g id="ytick_14">
     <g id="line2d_35">
      <g>
       <use xlink:href="#m2686f671c3" x="104.4" y="444.758873" style="stroke: #000000; stroke-width: 0.6"/>
      </g>
     </g>
    </g>
    <g id="ytick_15">
     <g id="line2d_36">
      <g>
       <use xlink:href="#m2686f671c3" x="104.4" y="422.513913" style="stroke: #000000; stroke-width: 0.6"/>
      </g>
     </g>
    </g>
    <g id="ytick_16">
     <g id="line2d_37">
      <g>
       <use xlink:href="#m2686f671c3" x="104.4" y="378.023995" style="stroke: #000000; stroke-width: 0.6"/>
      </g>
     </g>
    </g>
    <g id="ytick_17">
     <g id="line2d_38">
      <g>
       <use xlink:href="#m2686f671c3" x="104.4" y="355.779036" style="stroke: #000000; stroke-width: 0.6"/>
      </g>
     </g>
    </g>
    <g id="ytick_18">
     <g id="line2d_39">
      <g>
       <use xlink:href="#m2686f671c3" x="104.4" y="333.534076" style="stroke: #000000; stroke-width: 0.6"/>
      </g>
     </g>
    </g>
    <g id="ytick_19">
     <g id="line2d_40">
      <g>
       <use xlink:href="#m2686f671c3" x="104.4" y="289.044158" style="stroke: #000000; stroke-width: 0.6"/>
      </g>
     </g>
    </g>
    <g id="ytick_20">
     <g id="line2d_41">
      <g>
       <use xlink:href="#m2686f671c3" x="104.4" y="266.799198" style="stroke: #000000; stroke-width: 0.6"/>
      </g>
     </g>
    </g>
    <g id="ytick_21">
     <g id="line2d_42">
      <g>
       <use xlink:href="#m2686f671c3" x="104.4" y="244.554239" style="stroke: #000000; stroke-width: 0.6"/>
      </g>
     </g>
    </g>
    <g id="ytick_22">
     <g id="line2d_43">
      <g>
       <use xlink:href="#m2686f671c3" x="104.4" y="200.064321" style="stroke: #000000; stroke-width: 0.6"/>
      </g>
     </g>
    </g>
    <g id="ytick_23">
     <g id="line2d_44">
      <g>
       <use xlink:href="#m2686f671c3" x="104.4" y="177.819361" style="stroke: #000000; stroke-width: 0.6"/>
      </g>
     </g>
    </g>
    <g id="ytick_24">
     <g id="line2d_45">
      <g>
       <use xlink:href="#m2686f671c3" x="104.4" y="155.574402" style="stroke: #000000; stroke-width: 0.6"/>
      </g>
     </g>
    </g>
    <g id="ytick_25">
     <g id="line2d_46">
      <g>
       <use xlink:href="#m2686f671c3" x="104.4" y="111.084483" style="stroke: #000000; stroke-width: 0.6"/>
      </g>
     </g>
    </g>
    <g id="ytick_26">
     <g id="line2d_47">
      <g>
       <use xlink:href="#m2686f671c3" x="104.4" y="88.839524" style="stroke: #000000; stroke-width: 0.6"/>
      </g>
     </g>
    </g>
    <g id="ytick_27">
     <g id="line2d_48">
      <g>
       <use xlink:href="#m2686f671c3" x="104.4" y="66.594565" style="stroke: #000000; stroke-width: 0.6"/>
      </g>
     </g>
    </g>
    <g id="text_15">
     <!-- HFACF $(\mathrm{W} / \mathrm{m}^2)^2$ -->
     <g transform="translate(31.275 446.289) rotate(-90) scale(0.3 -0.3)">
      <defs>
       <path id="LiberationSans-48" d="M 3503 0 
L 3503 2041 
L 1122 2041 
L 1122 0 
L 525 0 
L 525 4403 
L 1122 4403 
L 1122 2541 
L 3503 2541 
L 3503 4403 
L 4100 4403 
L 4100 0 
L 3503 0 
z
" transform="scale(0.015625)"/>
       <path id="LiberationSans-46" d="M 1122 3916 
L 1122 2278 
L 3578 2278 
L 3578 1784 
L 1122 1784 
L 1122 0 
L 525 0 
L 525 4403 
L 3653 4403 
L 3653 3916 
L 1122 3916 
z
" transform="scale(0.015625)"/>
       <path id="LiberationSans-41" d="M 3647 0 
L 3144 1288 
L 1138 1288 
L 631 0 
L 13 0 
L 1809 4403 
L 2488 4403 
L 4256 0 
L 3647 0 
z
M 2141 3953 
L 2113 3866 
Q 2034 3606 1881 3200 
L 1319 1753 
L 2966 1753 
L 2400 3206 
Q 2313 3422 2225 3694 
L 2141 3953 
z
" transform="scale(0.015625)"/>
       <path id="LiberationSans-43" d="M 2475 3981 
Q 1744 3981 1337 3511 
Q 931 3041 931 2222 
Q 931 1413 1354 920 
Q 1778 428 2500 428 
Q 3425 428 3891 1344 
L 4378 1100 
Q 4106 531 3614 234 
Q 3122 -63 2472 -63 
Q 1806 -63 1320 214 
Q 834 491 579 1005 
Q 325 1519 325 2222 
Q 325 3275 894 3872 
Q 1463 4469 2469 4469 
Q 3172 4469 3644 4194 
Q 4116 3919 4338 3378 
L 3772 3191 
Q 3619 3575 3280 3778 
Q 2941 3981 2475 3981 
z
" transform="scale(0.015625)"/>
       <path id="STIXGeneral-Regular-28" d="M 1946 -1030 
L 1869 -1133 
Q 1126 -710 716 32 
Q 307 774 307 1613 
Q 307 3386 1888 4326 
L 1946 4224 
Q 1293 3667 1075 3126 
Q 858 2586 858 1632 
Q 858 685 1082 96 
Q 1306 -493 1946 -1030 
z
" transform="scale(0.015625)"/>
       <path id="STIXGeneral-Regular-57" d="M 5965 4237 
L 5965 4115 
Q 5709 4064 5616 3990 
Q 5523 3917 5434 3667 
Q 4704 1709 4128 -70 
L 4032 -70 
Q 3642 1011 3008 2637 
L 2022 -70 
L 1926 -70 
Q 1709 576 1277 1753 
Q 845 2931 698 3347 
Q 538 3808 406 3958 
Q 275 4109 32 4115 
L 32 4237 
L 1594 4237 
L 1594 4115 
Q 1357 4109 1270 4064 
Q 1184 4019 1184 3917 
Q 1184 3808 1254 3616 
L 2176 1210 
L 2842 3021 
L 2662 3501 
Q 2509 3917 2400 4013 
Q 2291 4109 2010 4115 
L 2010 4237 
L 3706 4237 
L 3706 4115 
Q 3213 4102 3213 3891 
Q 3213 3808 3322 3520 
L 4237 1190 
L 5043 3360 
Q 5152 3667 5152 3853 
Q 5152 4109 4704 4115 
L 4704 4237 
L 5965 4237 
z
" transform="scale(0.015625)"/>
       <path id="STIXGeneral-Regular-2f" d="M 1837 4326 
L 378 -90 
L -58 -90 
L 1408 4326 
L 1837 4326 
z
" transform="scale(0.015625)"/>
       <path id="STIXGeneral-Regular-6d" d="M 4960 0 
L 3565 0 
L 3565 96 
Q 3834 122 3907 208 
Q 3981 294 3981 576 
L 3981 1894 
Q 3981 2278 3869 2444 
Q 3757 2611 3488 2611 
Q 3264 2611 3107 2521 
Q 2950 2432 2803 2221 
L 2803 608 
Q 2803 301 2896 201 
Q 2989 102 3264 96 
L 3264 0 
L 1830 0 
L 1830 96 
Q 2112 115 2189 188 
Q 2266 262 2266 550 
L 2266 1901 
Q 2266 2611 1850 2611 
Q 1670 2611 1468 2531 
Q 1267 2451 1171 2336 
Q 1088 2240 1088 2227 
L 1088 448 
Q 1088 243 1177 176 
Q 1267 109 1523 96 
L 1523 0 
L 102 0 
L 102 96 
Q 371 102 460 195 
Q 550 288 550 563 
L 550 2150 
Q 550 2387 499 2480 
Q 448 2573 326 2573 
Q 230 2573 122 2547 
L 122 2656 
Q 557 2778 1011 2944 
L 1062 2925 
L 1062 2451 
L 1075 2451 
Q 1363 2752 1584 2848 
Q 1805 2944 2054 2944 
Q 2560 2944 2733 2406 
Q 3232 2944 3776 2944 
Q 4518 2944 4518 1792 
L 4518 493 
Q 4518 282 4582 202 
Q 4646 122 4794 109 
L 4960 96 
L 4960 0 
z
" transform="scale(0.015625)"/>
       <path id="STIXGeneral-Regular-32" d="M 3034 877 
L 2688 0 
L 186 0 
L 186 77 
L 1325 1286 
Q 1773 1754 1965 2144 
Q 2157 2534 2157 2950 
Q 2157 3379 1920 3616 
Q 1683 3853 1267 3853 
Q 922 3853 720 3673 
Q 518 3494 326 3021 
L 192 3053 
Q 301 3648 630 3987 
Q 960 4326 1523 4326 
Q 2054 4326 2380 4006 
Q 2707 3686 2707 3200 
Q 2707 2477 1888 1613 
L 832 486 
L 2330 486 
Q 2541 486 2665 569 
Q 2790 653 2944 915 
L 3034 877 
z
" transform="scale(0.015625)"/>
       <path id="STIXGeneral-Regular-29" d="M 186 4224 
L 262 4326 
Q 992 3891 1408 3148 
Q 1824 2406 1824 1581 
Q 1824 -166 243 -1133 
L 186 -1030 
Q 845 -486 1059 54 
Q 1274 595 1274 1562 
Q 1274 2534 1059 3120 
Q 845 3706 186 4224 
z
" transform="scale(0.015625)"/>
      </defs>
      <use xlink:href="#LiberationSans-48" transform="translate(0 0.409375)"/>
      <use xlink:href="#LiberationSans-46" transform="translate(72.216797 0.409375)"/>
      <use xlink:href="#LiberationSans-41" transform="translate(133.300781 0.409375)"/>
      <use xlink:href="#LiberationSans-43" transform="translate(200 0.409375)"/>
      <use xlink:href="#LiberationSans-46" transform="translate(272.216797 0.409375)"/>
      <use xlink:href="#LiberationSans-20" transform="translate(333.300781 0.409375)"/>
      <use xlink:href="#STIXGeneral-Regular-28" transform="translate(361.083984 0.409375)"/>
      <use xlink:href="#STIXGeneral-Regular-57" transform="translate(394.383972 0.409375)"/>
      <use xlink:href="#STIXGeneral-Regular-2f" transform="translate(488.783966 0.409375)"/>
      <use xlink:href="#STIXGeneral-Regular-6d" transform="translate(516.583954 0.409375)"/>
      <use xlink:href="#STIXGeneral-Regular-32" transform="translate(595.927223 35.684375) scale(0.7)"/>
      <use xlink:href="#STIXGeneral-Regular-29" transform="translate(635.336587 0.409375)"/>
      <use xlink:href="#STIXGeneral-Regular-32" transform="translate(670.179856 35.684375) scale(0.7)"/>
     </g>
    </g>
    <g id="text_16">
     <!-- $\times\mathdefault{10^{19}}\mathdefault{}$ -->
     <g transform="translate(104.4 36.1875) scale(0.4 -0.4)">
      <defs>
       <path id="STIXGeneral-Regular-d7" d="M 3821 141 
L 3526 -160 
L 2048 1312 
L 570 -160 
L 275 134 
L 1747 1613 
L 275 3091 
L 576 3386 
L 2048 1914 
L 3526 3386 
L 3821 3098 
L 2349 1613 
L 3821 141 
z
" transform="scale(0.015625)"/>
       <path id="LiberationSans-39" d="M 3256 2291 
Q 3256 1156 2842 546 
Q 2428 -63 1663 -63 
Q 1147 -63 836 154 
Q 525 372 391 856 
L 928 941 
Q 1097 391 1672 391 
Q 2156 391 2422 841 
Q 2688 1291 2700 2125 
Q 2575 1844 2272 1673 
Q 1969 1503 1606 1503 
Q 1013 1503 656 1909 
Q 300 2316 300 2988 
Q 300 3678 687 4073 
Q 1075 4469 1766 4469 
Q 2500 4469 2878 3925 
Q 3256 3381 3256 2291 
z
M 2644 2834 
Q 2644 3366 2400 3689 
Q 2156 4013 1747 4013 
Q 1341 4013 1106 3736 
Q 872 3459 872 2988 
Q 872 2506 1106 2226 
Q 1341 1947 1741 1947 
Q 1984 1947 2193 2058 
Q 2403 2169 2523 2372 
Q 2644 2575 2644 2834 
z
" transform="scale(0.015625)"/>
      </defs>
      <use xlink:href="#STIXGeneral-Regular-d7" transform="translate(0 0.140625)"/>
      <use xlink:href="#LiberationSans-31" transform="translate(63.999985 0.140625)"/>
      <use xlink:href="#LiberationSans-30" transform="translate(119.615219 0.140625)"/>
      <use xlink:href="#LiberationSans-31" transform="translate(176.154946 37.120312) scale(0.7)"/>
      <use xlink:href="#LiberationSans-39" transform="translate(215.08561 37.120312) scale(0.7)"/>
     </g>
    </g>
   </g>
   <g id="line2d_49">
    <path d="M 131.629431 66.514909 
L 132.174074 96.055677 
L 132.609788 144.233896 
L 133.26336 245.498842 
L 134.842825 500.126189 
L 135.441932 561.962393 
L 135.932111 593.322472 
L 136.367826 608.150206 
L 136.694611 612.599195 
L 136.858004 613.063091 
L 136.966933 612.818728 
L 137.130326 611.724976 
L 137.457112 607.302406 
L 137.94729 596.924285 
L 139.091041 566.105528 
L 140.507113 530.09015 
L 141.705328 505.077362 
L 142.631221 489.98238 
L 143.393721 481.082767 
L 143.938364 476.954107 
L 144.374079 475.041155 
L 144.700865 474.387804 
L 144.918722 474.305944 
L 145.136579 474.485312 
L 145.463365 475.193109 
L 145.899079 476.845034 
L 146.607115 480.71747 
L 148.241045 490.07022 
L 148.894616 492.433026 
L 149.439259 493.632285 
L 149.874974 494.122927 
L 150.365153 494.258977 
L 150.855331 494.092869 
L 151.399975 493.644463 
L 152.380332 492.511691 
L 154.068726 490.69534 
L 155.158012 489.524552 
L 156.410691 487.748709 
L 157.935691 485.642817 
L 158.371406 485.386245 
L 158.752656 485.435127 
L 159.024978 485.475165 
L 159.406228 485.558685 
L 159.841942 485.872795 
L 160.386585 486.542667 
L 161.475872 488.400211 
L 162.565158 490.144641 
L 163.218729 490.812558 
L 163.763372 491.085067 
L 164.308016 491.086744 
L 164.852659 490.864407 
L 165.669623 490.239332 
L 167.466945 488.785627 
L 168.120517 488.573233 
L 168.828553 488.625278 
L 169.482125 488.896706 
L 170.734804 489.742702 
L 171.769626 490.320529 
L 172.368733 490.453645 
L 172.858912 490.407657 
L 173.621412 490.039822 
L 174.492841 489.305104 
L 175.854449 488.168229 
L 176.50802 487.936993 
L 177.052664 487.967836 
L 177.651771 488.228158 
L 178.414271 488.855766 
L 180.483915 490.684608 
L 181.137487 490.879226 
L 181.68213 490.811352 
L 182.226773 490.536836 
L 182.82588 490.021463 
L 185.440167 487.360448 
L 185.98481 487.216892 
L 186.36606 487.307106 
L 187.128561 487.805657 
L 188.217847 488.936387 
L 189.307133 489.995134 
L 189.90624 490.3237 
L 190.505348 490.392743 
L 191.104455 490.219118 
L 191.812491 489.770604 
L 193.718742 488.419234 
L 194.426778 488.243914 
L 195.189278 488.374532 
L 196.006243 488.791893 
L 198.402672 490.250247 
L 199.056244 490.375597 
L 199.982137 490.27209 
L 200.90803 489.892842 
L 201.997317 489.231826 
L 203.467853 488.323431 
L 204.339282 488.008767 
L 205.101782 487.987418 
L 205.646425 488.15462 
L 206.354461 488.569252 
L 207.280354 489.32518 
L 208.424105 490.212247 
L 209.077677 490.466804 
L 209.62232 490.457721 
L 210.221427 490.174852 
L 210.874999 489.571433 
L 211.855356 488.303979 
L 212.999107 486.93088 
L 213.489286 486.615469 
L 213.979464 486.612212 
L 214.469643 486.837638 
L 215.068751 487.356223 
L 217.628573 490.071992 
L 218.282145 490.352402 
L 218.990181 490.384382 
L 219.752681 490.157419 
L 220.569646 489.743691 
L 221.658932 489.16393 
L 222.748218 488.871615 
L 223.728575 488.874988 
L 224.600004 489.016452 
L 228.46697 489.944871 
L 229.501792 489.923885 
L 231.026793 489.628751 
L 233.041972 489.209777 
L 234.076794 489.271939 
L 234.78483 489.495206 
L 236.309831 490.085073 
L 236.908938 490.059024 
L 237.344652 489.869942 
L 237.94376 489.369448 
L 238.978582 488.052847 
L 239.850011 487.013711 
L 240.394654 486.669277 
L 240.72144 486.666039 
L 241.157154 486.917583 
L 241.701797 487.547121 
L 242.464297 488.84154 
L 243.825905 491.177514 
L 244.316084 491.634134 
L 244.751798 491.76928 
L 245.133048 491.665614 
L 245.514299 491.373525 
L 246.16787 490.513044 
L 248.400907 487.200915 
L 248.891086 486.942143 
L 249.381265 486.95211 
L 249.925908 487.235025 
L 250.633944 487.915826 
L 252.812516 490.355223 
L 253.792873 490.947628 
L 254.555374 491.098058 
L 255.317874 490.954903 
L 255.971446 490.598182 
L 256.897339 489.770558 
L 258.42234 488.29965 
L 259.075911 487.98343 
L 259.620554 487.954391 
L 260.274126 488.220655 
L 261.036626 488.86544 
L 263.48752 491.182363 
L 263.923235 491.217577 
L 264.358949 491.053367 
L 264.903592 490.558785 
L 265.557164 489.652 
L 267.300022 487.055638 
L 267.844665 486.707214 
L 268.280379 486.758108 
L 268.770558 487.041425 
L 269.369666 487.649532 
L 270.241094 488.797815 
L 271.221452 489.988657 
L 271.820559 490.428413 
L 272.365202 490.571938 
L 272.800917 490.504214 
L 273.291096 490.250703 
L 274.162525 489.453583 
L 275.415204 488.143659 
L 276.068775 487.727173 
L 276.50449 487.656555 
L 276.940204 487.754542 
L 277.484847 488.113754 
L 278.247348 488.940248 
L 280.099134 491.135446 
L 280.752706 491.573948 
L 281.460742 491.75186 
L 282.168778 491.631957 
L 282.82235 491.290573 
L 283.58485 490.677291 
L 285.872351 488.579419 
L 286.525923 488.337824 
L 287.070566 488.362316 
L 287.615209 488.582134 
L 288.541102 489.268687 
L 290.175031 490.433507 
L 290.719674 490.509966 
L 291.209853 490.374603 
L 291.754496 489.986813 
L 292.516996 489.113491 
L 294.259854 486.902909 
L 294.858962 486.508546 
L 295.131283 486.474371 
L 295.730391 486.787819 
L 296.383962 487.41546 
L 297.473248 488.81584 
L 298.50807 490.027759 
L 299.161642 490.480168 
L 299.706285 490.60274 
L 300.142 490.521547 
L 300.741107 490.163571 
L 301.667 489.213084 
L 303.028608 487.769702 
L 303.573251 487.468402 
L 304.117894 487.421651 
L 304.608073 487.599203 
L 305.20718 488.058041 
L 306.133073 489.091175 
L 307.549145 490.631358 
L 308.202717 491.035426 
L 308.74736 491.165072 
L 309.292003 491.093213 
L 309.945575 490.750484 
L 310.599147 490.186991 
L 313.05004 487.838502 
L 313.649148 487.70634 
L 314.139327 487.828257 
L 314.68397 488.217599 
L 315.283077 488.901063 
L 316.372363 490.467251 
L 317.134864 491.38712 
L 317.679507 491.731064 
L 318.115221 491.757728 
L 318.550936 491.54102 
L 319.095579 490.948878 
L 319.803615 489.762042 
L 321.600937 486.54023 
L 322.091116 486.093419 
L 322.417901 486.02037 
L 322.799152 486.172826 
L 323.28933 486.635438 
L 323.997366 487.685558 
L 325.576831 490.297704 
L 326.175939 490.909571 
L 326.720582 491.168391 
L 327.210761 491.15254 
L 327.809868 490.833691 
L 328.46344 490.220304 
L 330.533083 488.065109 
L 331.023262 487.901074 
L 331.513441 487.954016 
L 332.167013 488.342988 
L 332.983977 489.162033 
L 334.345585 490.546674 
L 334.999157 490.91947 
L 335.598264 491.028153 
L 336.197371 490.931378 
L 336.905407 490.603428 
L 337.994694 489.770517 
L 340.826838 487.409915 
L 341.371481 487.337184 
L 341.970588 487.521783 
L 342.62416 488.007974 
L 343.713446 489.205086 
L 344.53041 490.021982 
L 345.075054 490.318323 
L 345.565232 490.355833 
L 346.055411 490.16455 
L 346.654518 489.630244 
L 347.580412 488.461949 
L 348.506305 487.424408 
L 349.105412 487.095581 
L 349.541127 487.104007 
L 350.031306 487.42741 
L 350.684877 488.163621 
L 351.937556 489.996985 
L 352.700057 490.91958 
L 353.2447 491.306779 
L 353.734879 491.42037 
L 354.279522 491.28015 
L 354.878629 490.845573 
L 355.695594 489.967784 
L 357.111666 488.438458 
L 357.874166 487.962824 
L 358.473273 487.849043 
L 359.126845 487.957055 
L 359.889345 488.316946 
L 360.760774 488.888112 
L 362.231311 489.857463 
L 363.157204 490.237459 
L 364.083097 490.304464 
L 364.682204 490.161273 
L 365.444705 489.773326 
L 366.642919 488.879494 
L 367.950063 488.044213 
L 368.712563 487.922758 
L 369.257206 488.057607 
L 370.019707 488.524853 
L 371.980422 489.955671 
L 372.579529 490.009532 
L 373.124172 489.811357 
L 373.72328 489.334336 
L 375.956316 487.254115 
L 376.500959 487.169688 
L 376.882209 487.315161 
L 377.481317 487.870509 
L 380.095604 490.722313 
L 380.694711 490.921756 
L 381.239354 490.916923 
L 381.94739 490.697093 
L 383.036676 490.071585 
L 384.72507 489.078278 
L 385.378641 488.910149 
L 386.086677 488.959754 
L 386.849178 489.271995 
L 387.992928 490.010475 
L 388.918821 490.521106 
L 389.626857 490.684491 
L 390.225965 490.637333 
L 390.825072 490.42419 
L 391.696501 489.887845 
L 393.711681 488.488467 
L 394.474181 488.245941 
L 395.182217 488.243618 
L 395.999181 488.508158 
L 396.87061 489.020511 
L 398.88579 490.243567 
L 399.539361 490.335358 
L 400.084005 490.213953 
L 400.683112 489.854767 
L 401.609005 488.911576 
L 403.242934 487.146812 
L 403.787578 486.882838 
L 404.114363 486.901129 
L 404.604542 487.191358 
L 405.20365 487.834168 
L 406.3474 489.531993 
L 407.218829 490.649548 
L 407.709008 491.001939 
L 408.199186 491.099743 
L 408.74383 490.906989 
L 409.288473 490.444222 
L 410.26883 489.254991 
L 411.358116 488.036099 
L 411.957224 487.678581 
L 412.447402 487.619966 
L 412.937581 487.789947 
L 413.536689 488.269018 
L 414.353653 489.243197 
L 415.878654 490.96144 
L 416.532226 491.276046 
L 417.185797 491.259797 
L 417.839369 490.97829 
L 418.765262 490.296558 
L 420.562584 488.684917 
L 421.815263 487.730147 
L 422.523299 487.464644 
L 423.067943 487.480335 
L 423.612586 487.718116 
L 424.157229 488.14902 
L 425.192051 489.316938 
L 426.335801 490.507314 
L 426.880444 490.772486 
L 427.316159 490.783309 
L 427.751873 490.585703 
L 428.296516 490.060078 
L 429.004552 489.053635 
L 430.584017 486.695011 
L 431.183124 486.205269 
L 432.054553 486.603532 
L 432.762589 487.446048 
L 433.797411 489.052093 
L 434.723304 490.283392 
L 435.322412 490.753243 
L 435.867055 490.919775 
L 436.357234 490.860366 
L 437.010805 490.539411 
L 438.426877 489.466075 
L 439.134913 489.020402 
L 440.006342 488.769807 
L 440.768843 488.82588 
L 441.694736 489.092511 
L 446.433131 490.609889 
L 447.032238 490.580752 
L 447.68581 490.343084 
L 448.44831 489.829078 
L 450.191168 488.574723 
L 450.735811 488.457177 
L 451.280454 488.546236 
L 451.879561 488.863231 
L 453.077776 489.850215 
L 453.840277 490.305049 
L 454.330455 490.360578 
L 454.76617 490.21409 
L 455.201884 489.880894 
L 455.855456 489.096628 
L 457.707242 486.589695 
L 458.251885 486.282011 
L 458.524207 486.286275 
L 459.06885 486.656235 
L 459.722422 487.437728 
L 462.009923 490.451284 
L 462.772423 490.79867 
L 463.37153 490.806954 
L 464.297424 490.495136 
L 466.639389 489.626914 
L 467.565282 489.573511 
L 468.817961 489.699671 
L 471.432248 489.772565 
L 472.684927 489.514339 
L 474.318856 488.81567 
L 475.952786 487.972461 
L 476.715286 487.834293 
L 477.314393 487.922295 
L 478.076894 488.314358 
L 478.893858 488.918288 
L 480.092073 489.719071 
L 480.636716 489.896182 
L 481.181359 489.901717 
L 481.834931 489.677851 
L 482.597431 489.144338 
L 484.61261 487.545012 
L 485.266182 487.36181 
L 485.810825 487.454194 
L 486.464397 487.921779 
L 487.335826 488.802208 
L 488.860827 490.24771 
L 489.514398 490.56473 
L 490.222434 490.643182 
L 490.821542 490.52375 
L 491.747435 490.094869 
L 494.034936 488.740835 
L 494.742972 488.582959 
L 495.396543 488.668689 
L 496.104579 489.019025 
L 497.24833 489.967409 
L 498.228687 490.72447 
L 498.936723 490.970365 
L 499.481367 490.912888 
L 500.02601 490.623926 
L 500.679581 490.031314 
L 501.877796 488.634652 
L 502.803689 487.769106 
L 503.457261 487.498447 
L 503.94744 487.527413 
L 504.437619 487.757015 
L 505.036726 488.302667 
L 506.017084 489.553587 
L 507.160834 490.90862 
L 507.759941 491.270132 
L 508.25012 491.300336 
L 508.740299 491.067648 
L 509.284942 490.531562 
L 510.047442 489.404719 
L 511.572443 487.107055 
L 512.117086 486.666499 
L 512.5528 486.546304 
L 512.934051 486.621694 
L 513.424229 486.998793 
L 514.023337 487.764362 
L 515.276016 489.859241 
L 516.09298 490.988319 
L 516.637624 491.417346 
L 517.127802 491.528904 
L 517.672445 491.369469 
L 518.271553 490.915785 
L 520.613518 488.889666 
L 521.158161 488.812494 
L 521.702804 488.945042 
L 522.628697 489.449437 
L 523.990305 490.177375 
L 524.970663 490.408975 
L 525.842092 490.423953 
L 527.149235 490.200506 
L 528.34745 489.666109 
L 530.907272 488.370545 
L 531.724237 488.345783 
L 532.377809 488.53135 
L 533.249237 489.002826 
L 534.501917 489.936905 
L 535.536738 490.544248 
L 536.135846 490.631691 
L 536.680489 490.469998 
L 537.225132 490.048727 
L 537.878704 489.268508 
L 540.166205 486.252547 
L 540.601919 486.28708 
L 541.092098 486.577921 
L 541.636741 487.16658 
L 542.834956 489.00002 
L 543.815313 490.307483 
L 544.414421 490.728519 
L 544.904599 490.822383 
L 545.449242 490.670303 
L 546.266207 490.13905 
L 547.518886 489.36302 
L 548.172458 489.252042 
L 548.771565 489.359948 
L 549.860851 489.862329 
L 551.004602 490.333177 
L 552.039424 490.457622 
L 553.237638 490.262662 
L 554.27246 489.858346 
L 555.470675 489.096953 
L 557.594783 487.565885 
L 558.248355 487.398924 
L 558.901927 487.509788 
L 559.501034 487.885865 
L 560.20907 488.611525 
L 561.298356 490.061421 
L 562.333178 491.321948 
L 562.877821 491.706618 
L 563.368 491.802354 
L 563.803714 491.658536 
L 564.239429 491.283911 
L 564.838536 490.462148 
L 566.091215 488.150786 
L 566.962644 486.802991 
L 567.452823 486.396099 
L 567.943002 486.396661 
L 568.43318 486.677604 
L 569.086752 487.380877 
L 570.938539 489.74837 
L 571.701039 490.223903 
L 572.354611 490.320808 
L 573.008182 490.188052 
L 574.36979 489.57195 
L 575.840326 489.009768 
L 576.875148 488.847591 
L 578.073363 488.894123 
L 579.761756 489.288023 
L 582.103722 489.919794 
L 582.757293 489.838597 
L 583.574258 489.452888 
L 584.718008 488.608543 
L 585.643902 488.106614 
L 586.188545 488.047075 
L 586.678724 488.195271 
L 587.441224 488.750175 
L 589.783189 490.682781 
L 590.273368 490.683346 
L 590.763547 490.477736 
L 591.362654 489.960501 
L 592.179619 488.921218 
L 593.976941 486.576597 
L 594.576048 486.17843 
L 595.61087 486.868753 
L 596.427835 487.937152 
L 598.116228 490.248704 
L 598.7698 490.738441 
L 599.314443 490.885908 
L 599.804622 490.806515 
L 600.458193 490.42433 
L 601.220694 489.709268 
L 602.800159 488.191724 
L 603.344802 487.953419 
L 603.889445 487.951582 
L 604.434088 488.184905 
L 605.08766 488.721381 
L 607.429625 490.887214 
L 608.192125 491.129391 
L 608.900161 491.075314 
L 609.553733 490.837606 
L 610.643019 490.128822 
L 612.658198 488.770498 
L 613.366234 488.579449 
L 614.07427 488.639436 
L 614.836771 488.938225 
L 615.544807 489.368914 
L 617.015343 490.229522 
L 617.668915 490.326816 
L 618.213558 490.183034 
L 618.758201 489.795249 
L 619.466237 489.004514 
L 621.426952 486.662432 
L 621.917131 486.476868 
L 622.461774 486.702096 
L 623.006417 487.201018 
L 623.714453 488.156238 
L 625.402847 490.547449 
L 626.056418 490.964726 
L 626.546597 490.986554 
L 627.036776 490.757035 
L 627.635883 490.200648 
L 629.923384 487.739977 
L 630.359099 487.62363 
L 630.903742 487.726188 
L 631.502849 488.115153 
L 632.428742 489.052318 
L 633.572493 490.187538 
L 634.280529 490.630359 
L 634.879636 490.8224 
L 635.642136 490.832027 
L 636.459101 490.581277 
L 637.493923 489.92816 
L 639.890352 488.109544 
L 640.543924 487.976098 
L 641.034103 488.067024 
L 641.63321 488.383726 
L 642.613568 489.231888 
L 643.593925 490.119742 
L 644.301961 490.492254 
L 644.846604 490.50204 
L 645.336783 490.276706 
L 645.935891 489.707939 
L 646.80732 488.496639 
L 647.95107 486.947009 
L 648.495713 486.530214 
L 648.931428 486.426176 
L 649.258213 486.538956 
L 649.748392 486.952862 
L 650.456428 487.875497 
L 651.8725 489.758516 
L 652.471608 490.143404 
L 652.907322 490.188235 
L 653.397501 490.04001 
L 654.105537 489.553253 
L 655.630537 488.433038 
L 656.229645 488.268191 
L 656.828752 488.314786 
L 657.482324 488.590853 
L 658.626074 489.462478 
L 660.205539 490.644541 
L 660.913575 490.902981 
L 661.621611 490.922722 
L 662.601969 490.631264 
L 663.800184 490.004906 
L 666.686792 488.518532 
L 667.667149 488.305689 
L 668.266257 488.369333 
L 668.865364 488.621764 
L 669.682329 489.262508 
L 671.860901 491.169245 
L 672.35108 491.178967 
L 672.786794 490.967163 
L 673.331437 490.397936 
L 674.039473 489.313706 
L 675.673403 486.703197 
L 676.218046 486.236089 
L 676.218046 486.236089 
" clip-path="url(#pf756975255)" style="fill: none; stroke: #0000ff; stroke-width: 1.5; stroke-linecap: square"/>
   </g>
   <g id="patch_3">
    <path d="M 104.4 640.3905 
L 104.4 39.1875 
" style="fill: none; stroke: #000000; stroke-width: 0.8; stroke-linejoin: miter; stroke-linecap: square"/>
   </g>
   <g id="patch_4">
    <path d="M 703.447477 640.3905 
L 703.447477 39.1875 
" style="fill: none; stroke: #000000; stroke-width: 0.8; stroke-linejoin: miter; stroke-linecap: square"/>
   </g>
   <g id="patch_5">
    <path d="M 104.4 640.3905 
L 703.447477 640.3905 
" style="fill: none; stroke: #000000; stroke-width: 0.8; stroke-linejoin: miter; stroke-linecap: square"/>
   </g>
   <g id="patch_6">
    <path d="M 104.4 39.1875 
L 703.447477 39.1875 
" style="fill: none; stroke: #000000; stroke-width: 0.8; stroke-linejoin: miter; stroke-linecap: square"/>
   </g>
  </g>
 </g>
 <defs>
  <clipPath id="pf756975255">
   <rect x="104.4" y="39.1875" width="599.047477" height="601.203"/>
  </clipPath>
 </defs>
</svg>
