<?xml version="1.0" encoding="utf-8" standalone="no"?>
<!DOCTYPE svg PUBLIC "-//W3C//DTD SVG 1.1//EN"
  "http://www.w3.org/Graphics/SVG/1.1/DTD/svg11.dtd">
<svg xmlns:xlink="http://www.w3.org/1999/xlink" width="710.741988pt" height="711.02175pt" viewBox="0 0 710.741988 711.02175" xmlns="http://www.w3.org/2000/svg" version="1.1">
 <metadata>
  <rdf:RDF xmlns:dc="http://purl.org/dc/elements/1.1/" xmlns:cc="http://creativecommons.org/ns#" xmlns:rdf="http://www.w3.org/1999/02/22-rdf-syntax-ns#">
   <cc:Work>
    <dc:type rdf:resource="http://purl.org/dc/dcmitype/StillImage"/>
    <dc:date>2025-01-31T22:36:10.658072</dc:date>
    <dc:format>image/svg+xml</dc:format>
    <dc:creator>
     <cc:Agent>
      <dc:title>Matplotlib v3.9.3, https://matplotlib.org/</dc:title>
     </cc:Agent>
    </dc:creator>
   </cc:Work>
  </rdf:RDF>
 </metadata>
 <defs>
  <style type="text/css">*{stroke-linejoin: round; stroke-linecap: butt}</style>
 </defs>
 <g id="figure_1">
  <g id="patch_1">
   <path d="M 0 711.02175 
L 710.741988 711.02175 
L 710.741988 0 
L 0 0 
z
" style="fill: #ffffff"/>
  </g>
  <g id="axes_1">
   <g id="patch_2">
    <path d="M 79.5 640.3905 
L 703.541988 640.3905 
L 703.541988 39.1875 
L 79.5 39.1875 
z
" style="fill: #ffffff"/>
   </g>
   <g id="matplotlib.axis_1">
    <g id="xtick_1">
     <g id="line2d_1">
      <defs>
       <path id="m08fd96853e" d="M 0 0 
L 0 -3.5 
" style="stroke: #000000; stroke-width: 0.8"/>
      </defs>
      <g>
       <use xlink:href="#m08fd96853e" x="107.808808" y="640.3905" style="stroke: #000000; stroke-width: 0.8"/>
      </g>
     </g>
     <g id="text_1">
      <!-- 0 -->
      <g transform="translate(99.467402 665.631125) scale(0.3 -0.3)">
       <defs>
        <path id="LiberationSans-30" d="M 3309 2203 
Q 3309 1100 2920 518 
Q 2531 -63 1772 -63 
Q 1013 -63 631 515 
Q 250 1094 250 2203 
Q 250 3338 620 3903 
Q 991 4469 1791 4469 
Q 2569 4469 2939 3897 
Q 3309 3325 3309 2203 
z
M 2738 2203 
Q 2738 3156 2517 3584 
Q 2297 4013 1791 4013 
Q 1272 4013 1045 3591 
Q 819 3169 819 2203 
Q 819 1266 1048 831 
Q 1278 397 1778 397 
Q 2275 397 2506 840 
Q 2738 1284 2738 2203 
z
" transform="scale(0.015625)"/>
       </defs>
       <use xlink:href="#LiberationSans-30"/>
      </g>
     </g>
    </g>
    <g id="xtick_2">
     <g id="line2d_2">
      <g>
       <use xlink:href="#m08fd96853e" x="221.282335" y="640.3905" style="stroke: #000000; stroke-width: 0.8"/>
      </g>
     </g>
     <g id="text_2">
      <!-- 2 -->
      <g transform="translate(212.940929 665.631125) scale(0.3 -0.3)">
       <defs>
        <path id="LiberationSans-32" d="M 322 0 
L 322 397 
Q 481 763 711 1042 
Q 941 1322 1194 1548 
Q 1447 1775 1695 1969 
Q 1944 2163 2144 2356 
Q 2344 2550 2467 2762 
Q 2591 2975 2591 3244 
Q 2591 3606 2378 3806 
Q 2166 4006 1788 4006 
Q 1428 4006 1195 3811 
Q 963 3616 922 3263 
L 347 3316 
Q 409 3844 795 4156 
Q 1181 4469 1788 4469 
Q 2453 4469 2811 4155 
Q 3169 3841 3169 3263 
Q 3169 3006 3051 2753 
Q 2934 2500 2703 2247 
Q 2472 1994 1819 1463 
Q 1459 1169 1246 933 
Q 1034 697 941 478 
L 3238 478 
L 3238 0 
L 322 0 
z
" transform="scale(0.015625)"/>
       </defs>
       <use xlink:href="#LiberationSans-32"/>
      </g>
     </g>
    </g>
    <g id="xtick_3">
     <g id="line2d_3">
      <g>
       <use xlink:href="#m08fd96853e" x="334.755862" y="640.3905" style="stroke: #000000; stroke-width: 0.8"/>
      </g>
     </g>
     <g id="text_3">
      <!-- 4 -->
      <g transform="translate(326.414456 665.631125) scale(0.3 -0.3)">
       <defs>
        <path id="LiberationSans-34" d="M 2753 997 
L 2753 0 
L 2222 0 
L 2222 997 
L 147 997 
L 147 1434 
L 2163 4403 
L 2753 4403 
L 2753 1441 
L 3372 1441 
L 3372 997 
L 2753 997 
z
M 2222 3769 
Q 2216 3750 2134 3603 
Q 2053 3456 2013 3397 
L 884 1734 
L 716 1503 
L 666 1441 
L 2222 1441 
L 2222 3769 
z
" transform="scale(0.015625)"/>
       </defs>
       <use xlink:href="#LiberationSans-34"/>
      </g>
     </g>
    </g>
    <g id="xtick_4">
     <g id="line2d_4">
      <g>
       <use xlink:href="#m08fd96853e" x="448.229389" y="640.3905" style="stroke: #000000; stroke-width: 0.8"/>
      </g>
     </g>
     <g id="text_4">
      <!-- 6 -->
      <g transform="translate(439.887983 665.631125) scale(0.3 -0.3)">
       <defs>
        <path id="LiberationSans-36" d="M 3278 1441 
Q 3278 744 2900 340 
Q 2522 -63 1856 -63 
Q 1113 -63 719 490 
Q 325 1044 325 2100 
Q 325 3244 734 3856 
Q 1144 4469 1900 4469 
Q 2897 4469 3156 3572 
L 2619 3475 
Q 2453 4013 1894 4013 
Q 1413 4013 1148 3564 
Q 884 3116 884 2266 
Q 1038 2550 1316 2698 
Q 1594 2847 1953 2847 
Q 2563 2847 2920 2465 
Q 3278 2084 3278 1441 
z
M 2706 1416 
Q 2706 1894 2472 2153 
Q 2238 2413 1819 2413 
Q 1425 2413 1183 2183 
Q 941 1953 941 1550 
Q 941 1041 1192 716 
Q 1444 391 1838 391 
Q 2244 391 2475 664 
Q 2706 938 2706 1416 
z
" transform="scale(0.015625)"/>
       </defs>
       <use xlink:href="#LiberationSans-36"/>
      </g>
     </g>
    </g>
    <g id="xtick_5">
     <g id="line2d_5">
      <g>
       <use xlink:href="#m08fd96853e" x="561.702916" y="640.3905" style="stroke: #000000; stroke-width: 0.8"/>
      </g>
     </g>
     <g id="text_5">
      <!-- 8 -->
      <g transform="translate(553.36151 665.631125) scale(0.3 -0.3)">
       <defs>
        <path id="LiberationSans-38" d="M 3281 1228 
Q 3281 619 2893 278 
Q 2506 -63 1781 -63 
Q 1075 -63 676 271 
Q 278 606 278 1222 
Q 278 1653 525 1947 
Q 772 2241 1156 2303 
L 1156 2316 
Q 797 2400 589 2681 
Q 381 2963 381 3341 
Q 381 3844 757 4156 
Q 1134 4469 1769 4469 
Q 2419 4469 2795 4162 
Q 3172 3856 3172 3334 
Q 3172 2956 2962 2675 
Q 2753 2394 2391 2322 
L 2391 2309 
Q 2813 2241 3047 1952 
Q 3281 1663 3281 1228 
z
M 2588 3303 
Q 2588 4050 1769 4050 
Q 1372 4050 1164 3862 
Q 956 3675 956 3303 
Q 956 2925 1170 2726 
Q 1384 2528 1775 2528 
Q 2172 2528 2380 2711 
Q 2588 2894 2588 3303 
z
M 2697 1281 
Q 2697 1691 2453 1898 
Q 2209 2106 1769 2106 
Q 1341 2106 1100 1882 
Q 859 1659 859 1269 
Q 859 359 1788 359 
Q 2247 359 2472 579 
Q 2697 800 2697 1281 
z
" transform="scale(0.015625)"/>
       </defs>
       <use xlink:href="#LiberationSans-38"/>
      </g>
     </g>
    </g>
    <g id="xtick_6">
     <g id="line2d_6">
      <g>
       <use xlink:href="#m08fd96853e" x="675.176443" y="640.3905" style="stroke: #000000; stroke-width: 0.8"/>
      </g>
     </g>
     <g id="text_6">
      <!-- 10 -->
      <g transform="translate(658.493631 665.631125) scale(0.3 -0.3)">
       <defs>
        <path id="LiberationSans-31" d="M 488 0 
L 488 478 
L 1609 478 
L 1609 3866 
L 616 3156 
L 616 3688 
L 1656 4403 
L 2175 4403 
L 2175 478 
L 3247 478 
L 3247 0 
L 488 0 
z
" transform="scale(0.015625)"/>
       </defs>
       <use xlink:href="#LiberationSans-31"/>
       <use xlink:href="#LiberationSans-30" x="55.615234"/>
      </g>
     </g>
    </g>
    <g id="xtick_7">
     <g id="line2d_7">
      <defs>
       <path id="m6ba5f09850" d="M 0 0 
L 0 -2 
" style="stroke: #000000; stroke-width: 0.6"/>
      </defs>
      <g>
       <use xlink:href="#m6ba5f09850" x="136.17719" y="640.3905" style="stroke: #000000; stroke-width: 0.6"/>
      </g>
     </g>
    </g>
    <g id="xtick_8">
     <g id="line2d_8">
      <g>
       <use xlink:href="#m6ba5f09850" x="164.545572" y="640.3905" style="stroke: #000000; stroke-width: 0.6"/>
      </g>
     </g>
    </g>
    <g id="xtick_9">
     <g id="line2d_9">
      <g>
       <use xlink:href="#m6ba5f09850" x="192.913953" y="640.3905" style="stroke: #000000; stroke-width: 0.6"/>
      </g>
     </g>
    </g>
    <g id="xtick_10">
     <g id="line2d_10">
      <g>
       <use xlink:href="#m6ba5f09850" x="249.650717" y="640.3905" style="stroke: #000000; stroke-width: 0.6"/>
      </g>
     </g>
    </g>
    <g id="xtick_11">
     <g id="line2d_11">
      <g>
       <use xlink:href="#m6ba5f09850" x="278.019099" y="640.3905" style="stroke: #000000; stroke-width: 0.6"/>
      </g>
     </g>
    </g>
    <g id="xtick_12">
     <g id="line2d_12">
      <g>
       <use xlink:href="#m6ba5f09850" x="306.38748" y="640.3905" style="stroke: #000000; stroke-width: 0.6"/>
      </g>
     </g>
    </g>
    <g id="xtick_13">
     <g id="line2d_13">
      <g>
       <use xlink:href="#m6ba5f09850" x="363.124244" y="640.3905" style="stroke: #000000; stroke-width: 0.6"/>
      </g>
     </g>
    </g>
    <g id="xtick_14">
     <g id="line2d_14">
      <g>
       <use xlink:href="#m6ba5f09850" x="391.492626" y="640.3905" style="stroke: #000000; stroke-width: 0.6"/>
      </g>
     </g>
    </g>
    <g id="xtick_15">
     <g id="line2d_15">
      <g>
       <use xlink:href="#m6ba5f09850" x="419.861008" y="640.3905" style="stroke: #000000; stroke-width: 0.6"/>
      </g>
     </g>
    </g>
    <g id="xtick_16">
     <g id="line2d_16">
      <g>
       <use xlink:href="#m6ba5f09850" x="476.597771" y="640.3905" style="stroke: #000000; stroke-width: 0.6"/>
      </g>
     </g>
    </g>
    <g id="xtick_17">
     <g id="line2d_17">
      <g>
       <use xlink:href="#m6ba5f09850" x="504.966153" y="640.3905" style="stroke: #000000; stroke-width: 0.6"/>
      </g>
     </g>
    </g>
    <g id="xtick_18">
     <g id="line2d_18">
      <g>
       <use xlink:href="#m6ba5f09850" x="533.334535" y="640.3905" style="stroke: #000000; stroke-width: 0.6"/>
      </g>
     </g>
    </g>
    <g id="xtick_19">
     <g id="line2d_19">
      <g>
       <use xlink:href="#m6ba5f09850" x="590.071298" y="640.3905" style="stroke: #000000; stroke-width: 0.6"/>
      </g>
     </g>
    </g>
    <g id="xtick_20">
     <g id="line2d_20">
      <g>
       <use xlink:href="#m6ba5f09850" x="618.43968" y="640.3905" style="stroke: #000000; stroke-width: 0.6"/>
      </g>
     </g>
    </g>
    <g id="xtick_21">
     <g id="line2d_21">
      <g>
       <use xlink:href="#m6ba5f09850" x="646.808062" y="640.3905" style="stroke: #000000; stroke-width: 0.6"/>
      </g>
     </g>
    </g>
    <g id="text_7">
     <!-- Time ps -->
     <g transform="translate(338.744432 697.59675) scale(0.3 -0.3)">
      <defs>
       <path id="LiberationSans-54" d="M 2250 3916 
L 2250 0 
L 1656 0 
L 1656 3916 
L 144 3916 
L 144 4403 
L 3763 4403 
L 3763 3916 
L 2250 3916 
z
" transform="scale(0.015625)"/>
       <path id="LiberationSans-69" d="M 428 4100 
L 428 4638 
L 991 4638 
L 991 4100 
L 428 4100 
z
M 428 0 
L 428 3381 
L 991 3381 
L 991 0 
L 428 0 
z
" transform="scale(0.015625)"/>
       <path id="LiberationSans-6d" d="M 2400 0 
L 2400 2144 
Q 2400 2634 2265 2821 
Q 2131 3009 1781 3009 
Q 1422 3009 1212 2734 
Q 1003 2459 1003 1959 
L 1003 0 
L 444 0 
L 444 2659 
Q 444 3250 425 3381 
L 956 3381 
Q 959 3366 962 3297 
Q 966 3228 970 3139 
Q 975 3050 981 2803 
L 991 2803 
Q 1172 3163 1406 3303 
Q 1641 3444 1978 3444 
Q 2363 3444 2586 3291 
Q 2809 3138 2897 2803 
L 2906 2803 
Q 3081 3144 3329 3294 
Q 3578 3444 3931 3444 
Q 4444 3444 4676 3166 
Q 4909 2888 4909 2253 
L 4909 0 
L 4353 0 
L 4353 2144 
Q 4353 2634 4218 2821 
Q 4084 3009 3734 3009 
Q 3366 3009 3161 2736 
Q 2956 2463 2956 1959 
L 2956 0 
L 2400 0 
z
" transform="scale(0.015625)"/>
       <path id="LiberationSans-65" d="M 863 1572 
Q 863 991 1103 675 
Q 1344 359 1806 359 
Q 2172 359 2392 506 
Q 2613 653 2691 878 
L 3184 738 
Q 2881 -63 1806 -63 
Q 1056 -63 664 384 
Q 272 831 272 1713 
Q 272 2550 664 2997 
Q 1056 3444 1784 3444 
Q 3275 3444 3275 1647 
L 3275 1572 
L 863 1572 
z
M 2694 2003 
Q 2647 2538 2422 2783 
Q 2197 3028 1775 3028 
Q 1366 3028 1127 2754 
Q 888 2481 869 2003 
L 2694 2003 
z
" transform="scale(0.015625)"/>
       <path id="LiberationSans-20" transform="scale(0.015625)"/>
       <path id="LiberationSans-70" d="M 3291 1706 
Q 3291 -63 2047 -63 
Q 1266 -63 997 525 
L 981 525 
Q 994 500 994 -6 
L 994 -1328 
L 431 -1328 
L 431 2691 
Q 431 3213 413 3381 
L 956 3381 
Q 959 3369 965 3292 
Q 972 3216 980 3056 
Q 988 2897 988 2838 
L 1000 2838 
Q 1150 3150 1397 3295 
Q 1644 3441 2047 3441 
Q 2672 3441 2981 3022 
Q 3291 2603 3291 1706 
z
M 2700 1694 
Q 2700 2400 2509 2703 
Q 2319 3006 1903 3006 
Q 1569 3006 1380 2865 
Q 1191 2725 1092 2426 
Q 994 2128 994 1650 
Q 994 984 1206 668 
Q 1419 353 1897 353 
Q 2316 353 2508 661 
Q 2700 969 2700 1694 
z
" transform="scale(0.015625)"/>
       <path id="LiberationSans-73" d="M 2969 934 
Q 2969 456 2608 196 
Q 2247 -63 1597 -63 
Q 966 -63 623 145 
Q 281 353 178 794 
L 675 891 
Q 747 619 972 492 
Q 1197 366 1597 366 
Q 2025 366 2223 497 
Q 2422 628 2422 891 
Q 2422 1091 2284 1216 
Q 2147 1341 1841 1422 
L 1438 1528 
Q 953 1653 748 1773 
Q 544 1894 428 2066 
Q 313 2238 313 2488 
Q 313 2950 642 3192 
Q 972 3434 1603 3434 
Q 2163 3434 2492 3237 
Q 2822 3041 2909 2606 
L 2403 2544 
Q 2356 2769 2151 2889 
Q 1947 3009 1603 3009 
Q 1222 3009 1040 2893 
Q 859 2778 859 2544 
Q 859 2400 934 2306 
Q 1009 2213 1156 2147 
Q 1303 2081 1775 1966 
Q 2222 1853 2419 1758 
Q 2616 1663 2730 1547 
Q 2844 1431 2906 1279 
Q 2969 1128 2969 934 
z
" transform="scale(0.015625)"/>
      </defs>
      <use xlink:href="#LiberationSans-54"/>
      <use xlink:href="#LiberationSans-69" x="57.333984"/>
      <use xlink:href="#LiberationSans-6d" x="79.550781"/>
      <use xlink:href="#LiberationSans-65" x="162.851562"/>
      <use xlink:href="#LiberationSans-20" x="218.466797"/>
      <use xlink:href="#LiberationSans-70" x="246.25"/>
      <use xlink:href="#LiberationSans-73" x="301.865234"/>
     </g>
    </g>
   </g>
   <g id="matplotlib.axis_2">
    <g id="ytick_1">
     <g id="line2d_22">
      <defs>
       <path id="mab6ea83953" d="M 0 0 
L 3.5 0 
" style="stroke: #000000; stroke-width: 0.8"/>
      </defs>
      <g>
       <use xlink:href="#mab6ea83953" x="79.5" y="591.606325" style="stroke: #000000; stroke-width: 0.8"/>
      </g>
     </g>
     <g id="text_8">
      <!-- $\mathdefault{−2}$ -->
      <g transform="translate(41.5 602.476637) scale(0.3 -0.3)">
       <defs>
        <path id="LiberationSans-2212" d="M 316 1900 
L 316 2356 
L 3425 2356 
L 3425 1900 
L 316 1900 
z
" transform="scale(0.015625)"/>
       </defs>
       <use xlink:href="#LiberationSans-2212" transform="translate(0 0.171875)"/>
       <use xlink:href="#LiberationSans-32" transform="translate(58.398438 0.171875)"/>
      </g>
     </g>
    </g>
    <g id="ytick_2">
     <g id="line2d_23">
      <g>
       <use xlink:href="#mab6ea83953" x="79.5" y="496.12612" style="stroke: #000000; stroke-width: 0.8"/>
      </g>
     </g>
     <g id="text_9">
      <!-- $\mathdefault{0}$ -->
      <g transform="translate(59.2 506.996432) scale(0.3 -0.3)">
       <use xlink:href="#LiberationSans-30" transform="translate(0 0.171875)"/>
      </g>
     </g>
    </g>
    <g id="ytick_3">
     <g id="line2d_24">
      <g>
       <use xlink:href="#mab6ea83953" x="79.5" y="400.645915" style="stroke: #000000; stroke-width: 0.8"/>
      </g>
     </g>
     <g id="text_10">
      <!-- $\mathdefault{2}$ -->
      <g transform="translate(59.2 411.516227) scale(0.3 -0.3)">
       <use xlink:href="#LiberationSans-32" transform="translate(0 0.171875)"/>
      </g>
     </g>
    </g>
    <g id="ytick_4">
     <g id="line2d_25">
      <g>
       <use xlink:href="#mab6ea83953" x="79.5" y="305.165709" style="stroke: #000000; stroke-width: 0.8"/>
      </g>
     </g>
     <g id="text_11">
      <!-- $\mathdefault{4}$ -->
      <g transform="translate(59.2 316.036022) scale(0.3 -0.3)">
       <use xlink:href="#LiberationSans-34" transform="translate(0 0.203125)"/>
      </g>
     </g>
    </g>
    <g id="ytick_5">
     <g id="line2d_26">
      <g>
       <use xlink:href="#mab6ea83953" x="79.5" y="209.685504" style="stroke: #000000; stroke-width: 0.8"/>
      </g>
     </g>
     <g id="text_12">
      <!-- $\mathdefault{6}$ -->
      <g transform="translate(59.2 220.555817) scale(0.3 -0.3)">
       <use xlink:href="#LiberationSans-36" transform="translate(0 0.171875)"/>
      </g>
     </g>
    </g>
    <g id="ytick_6">
     <g id="line2d_27">
      <g>
       <use xlink:href="#mab6ea83953" x="79.5" y="114.205299" style="stroke: #000000; stroke-width: 0.8"/>
      </g>
     </g>
     <g id="text_13">
      <!-- $\mathdefault{8}$ -->
      <g transform="translate(59.2 125.075611) scale(0.3 -0.3)">
       <use xlink:href="#LiberationSans-38" transform="translate(0 0.171875)"/>
      </g>
     </g>
    </g>
    <g id="ytick_7">
     <g id="line2d_28">
      <defs>
       <path id="mbf60d6d0e7" d="M 0 0 
L 2 0 
" style="stroke: #000000; stroke-width: 0.6"/>
      </defs>
      <g>
       <use xlink:href="#mbf60d6d0e7" x="79.5" y="639.346428" style="stroke: #000000; stroke-width: 0.6"/>
      </g>
     </g>
    </g>
    <g id="ytick_8">
     <g id="line2d_29">
      <g>
       <use xlink:href="#mbf60d6d0e7" x="79.5" y="615.476376" style="stroke: #000000; stroke-width: 0.6"/>
      </g>
     </g>
    </g>
    <g id="ytick_9">
     <g id="line2d_30">
      <g>
       <use xlink:href="#mbf60d6d0e7" x="79.5" y="567.736274" style="stroke: #000000; stroke-width: 0.6"/>
      </g>
     </g>
    </g>
    <g id="ytick_10">
     <g id="line2d_31">
      <g>
       <use xlink:href="#mbf60d6d0e7" x="79.5" y="543.866222" style="stroke: #000000; stroke-width: 0.6"/>
      </g>
     </g>
    </g>
    <g id="ytick_11">
     <g id="line2d_32">
      <g>
       <use xlink:href="#mbf60d6d0e7" x="79.5" y="519.996171" style="stroke: #000000; stroke-width: 0.6"/>
      </g>
     </g>
    </g>
    <g id="ytick_12">
     <g id="line2d_33">
      <g>
       <use xlink:href="#mbf60d6d0e7" x="79.5" y="472.256068" style="stroke: #000000; stroke-width: 0.6"/>
      </g>
     </g>
    </g>
    <g id="ytick_13">
     <g id="line2d_34">
      <g>
       <use xlink:href="#mbf60d6d0e7" x="79.5" y="448.386017" style="stroke: #000000; stroke-width: 0.6"/>
      </g>
     </g>
    </g>
    <g id="ytick_14">
     <g id="line2d_35">
      <g>
       <use xlink:href="#mbf60d6d0e7" x="79.5" y="424.515966" style="stroke: #000000; stroke-width: 0.6"/>
      </g>
     </g>
    </g>
    <g id="ytick_15">
     <g id="line2d_36">
      <g>
       <use xlink:href="#mbf60d6d0e7" x="79.5" y="376.775863" style="stroke: #000000; stroke-width: 0.6"/>
      </g>
     </g>
    </g>
    <g id="ytick_16">
     <g id="line2d_37">
      <g>
       <use xlink:href="#mbf60d6d0e7" x="79.5" y="352.905812" style="stroke: #000000; stroke-width: 0.6"/>
      </g>
     </g>
    </g>
    <g id="ytick_17">
     <g id="line2d_38">
      <g>
       <use xlink:href="#mbf60d6d0e7" x="79.5" y="329.035761" style="stroke: #000000; stroke-width: 0.6"/>
      </g>
     </g>
    </g>
    <g id="ytick_18">
     <g id="line2d_39">
      <g>
       <use xlink:href="#mbf60d6d0e7" x="79.5" y="281.295658" style="stroke: #000000; stroke-width: 0.6"/>
      </g>
     </g>
    </g>
    <g id="ytick_19">
     <g id="line2d_40">
      <g>
       <use xlink:href="#mbf60d6d0e7" x="79.5" y="257.425607" style="stroke: #000000; stroke-width: 0.6"/>
      </g>
     </g>
    </g>
    <g id="ytick_20">
     <g id="line2d_41">
      <g>
       <use xlink:href="#mbf60d6d0e7" x="79.5" y="233.555555" style="stroke: #000000; stroke-width: 0.6"/>
      </g>
     </g>
    </g>
    <g id="ytick_21">
     <g id="line2d_42">
      <g>
       <use xlink:href="#mbf60d6d0e7" x="79.5" y="185.815453" style="stroke: #000000; stroke-width: 0.6"/>
      </g>
     </g>
    </g>
    <g id="ytick_22">
     <g id="line2d_43">
      <g>
       <use xlink:href="#mbf60d6d0e7" x="79.5" y="161.945402" style="stroke: #000000; stroke-width: 0.6"/>
      </g>
     </g>
    </g>
    <g id="ytick_23">
     <g id="line2d_44">
      <g>
       <use xlink:href="#mbf60d6d0e7" x="79.5" y="138.07535" style="stroke: #000000; stroke-width: 0.6"/>
      </g>
     </g>
    </g>
    <g id="ytick_24">
     <g id="line2d_45">
      <g>
       <use xlink:href="#mbf60d6d0e7" x="79.5" y="90.335248" style="stroke: #000000; stroke-width: 0.6"/>
      </g>
     </g>
    </g>
    <g id="ytick_25">
     <g id="line2d_46">
      <g>
       <use xlink:href="#mbf60d6d0e7" x="79.5" y="66.465196" style="stroke: #000000; stroke-width: 0.6"/>
      </g>
     </g>
    </g>
    <g id="ytick_26">
     <g id="line2d_47">
      <g>
       <use xlink:href="#mbf60d6d0e7" x="79.5" y="42.595145" style="stroke: #000000; stroke-width: 0.6"/>
      </g>
     </g>
    </g>
    <g id="text_14">
     <!-- HFACF $(\mathrm{W} / \mathrm{m}^2)^2$ -->
     <g transform="translate(31.275 446.289) rotate(-90) scale(0.3 -0.3)">
      <defs>
       <path id="LiberationSans-48" d="M 3503 0 
L 3503 2041 
L 1122 2041 
L 1122 0 
L 525 0 
L 525 4403 
L 1122 4403 
L 1122 2541 
L 3503 2541 
L 3503 4403 
L 4100 4403 
L 4100 0 
L 3503 0 
z
" transform="scale(0.015625)"/>
       <path id="LiberationSans-46" d="M 1122 3916 
L 1122 2278 
L 3578 2278 
L 3578 1784 
L 1122 1784 
L 1122 0 
L 525 0 
L 525 4403 
L 3653 4403 
L 3653 3916 
L 1122 3916 
z
" transform="scale(0.015625)"/>
       <path id="LiberationSans-41" d="M 3647 0 
L 3144 1288 
L 1138 1288 
L 631 0 
L 13 0 
L 1809 4403 
L 2488 4403 
L 4256 0 
L 3647 0 
z
M 2141 3953 
L 2113 3866 
Q 2034 3606 1881 3200 
L 1319 1753 
L 2966 1753 
L 2400 3206 
Q 2313 3422 2225 3694 
L 2141 3953 
z
" transform="scale(0.015625)"/>
       <path id="LiberationSans-43" d="M 2475 3981 
Q 1744 3981 1337 3511 
Q 931 3041 931 2222 
Q 931 1413 1354 920 
Q 1778 428 2500 428 
Q 3425 428 3891 1344 
L 4378 1100 
Q 4106 531 3614 234 
Q 3122 -63 2472 -63 
Q 1806 -63 1320 214 
Q 834 491 579 1005 
Q 325 1519 325 2222 
Q 325 3275 894 3872 
Q 1463 4469 2469 4469 
Q 3172 4469 3644 4194 
Q 4116 3919 4338 3378 
L 3772 3191 
Q 3619 3575 3280 3778 
Q 2941 3981 2475 3981 
z
" transform="scale(0.015625)"/>
       <path id="STIXGeneral-Regular-28" d="M 1946 -1030 
L 1869 -1133 
Q 1126 -710 716 32 
Q 307 774 307 1613 
Q 307 3386 1888 4326 
L 1946 4224 
Q 1293 3667 1075 3126 
Q 858 2586 858 1632 
Q 858 685 1082 96 
Q 1306 -493 1946 -1030 
z
" transform="scale(0.015625)"/>
       <path id="STIXGeneral-Regular-57" d="M 5965 4237 
L 5965 4115 
Q 5709 4064 5616 3990 
Q 5523 3917 5434 3667 
Q 4704 1709 4128 -70 
L 4032 -70 
Q 3642 1011 3008 2637 
L 2022 -70 
L 1926 -70 
Q 1709 576 1277 1753 
Q 845 2931 698 3347 
Q 538 3808 406 3958 
Q 275 4109 32 4115 
L 32 4237 
L 1594 4237 
L 1594 4115 
Q 1357 4109 1270 4064 
Q 1184 4019 1184 3917 
Q 1184 3808 1254 3616 
L 2176 1210 
L 2842 3021 
L 2662 3501 
Q 2509 3917 2400 4013 
Q 2291 4109 2010 4115 
L 2010 4237 
L 3706 4237 
L 3706 4115 
Q 3213 4102 3213 3891 
Q 3213 3808 3322 3520 
L 4237 1190 
L 5043 3360 
Q 5152 3667 5152 3853 
Q 5152 4109 4704 4115 
L 4704 4237 
L 5965 4237 
z
" transform="scale(0.015625)"/>
       <path id="STIXGeneral-Regular-2f" d="M 1837 4326 
L 378 -90 
L -58 -90 
L 1408 4326 
L 1837 4326 
z
" transform="scale(0.015625)"/>
       <path id="STIXGeneral-Regular-6d" d="M 4960 0 
L 3565 0 
L 3565 96 
Q 3834 122 3907 208 
Q 3981 294 3981 576 
L 3981 1894 
Q 3981 2278 3869 2444 
Q 3757 2611 3488 2611 
Q 3264 2611 3107 2521 
Q 2950 2432 2803 2221 
L 2803 608 
Q 2803 301 2896 201 
Q 2989 102 3264 96 
L 3264 0 
L 1830 0 
L 1830 96 
Q 2112 115 2189 188 
Q 2266 262 2266 550 
L 2266 1901 
Q 2266 2611 1850 2611 
Q 1670 2611 1468 2531 
Q 1267 2451 1171 2336 
Q 1088 2240 1088 2227 
L 1088 448 
Q 1088 243 1177 176 
Q 1267 109 1523 96 
L 1523 0 
L 102 0 
L 102 96 
Q 371 102 460 195 
Q 550 288 550 563 
L 550 2150 
Q 550 2387 499 2480 
Q 448 2573 326 2573 
Q 230 2573 122 2547 
L 122 2656 
Q 557 2778 1011 2944 
L 1062 2925 
L 1062 2451 
L 1075 2451 
Q 1363 2752 1584 2848 
Q 1805 2944 2054 2944 
Q 2560 2944 2733 2406 
Q 3232 2944 3776 2944 
Q 4518 2944 4518 1792 
L 4518 493 
Q 4518 282 4582 202 
Q 4646 122 4794 109 
L 4960 96 
L 4960 0 
z
" transform="scale(0.015625)"/>
       <path id="STIXGeneral-Regular-32" d="M 3034 877 
L 2688 0 
L 186 0 
L 186 77 
L 1325 1286 
Q 1773 1754 1965 2144 
Q 2157 2534 2157 2950 
Q 2157 3379 1920 3616 
Q 1683 3853 1267 3853 
Q 922 3853 720 3673 
Q 518 3494 326 3021 
L 192 3053 
Q 301 3648 630 3987 
Q 960 4326 1523 4326 
Q 2054 4326 2380 4006 
Q 2707 3686 2707 3200 
Q 2707 2477 1888 1613 
L 832 486 
L 2330 486 
Q 2541 486 2665 569 
Q 2790 653 2944 915 
L 3034 877 
z
" transform="scale(0.015625)"/>
       <path id="STIXGeneral-Regular-29" d="M 186 4224 
L 262 4326 
Q 992 3891 1408 3148 
Q 1824 2406 1824 1581 
Q 1824 -166 243 -1133 
L 186 -1030 
Q 845 -486 1059 54 
Q 1274 595 1274 1562 
Q 1274 2534 1059 3120 
Q 845 3706 186 4224 
z
" transform="scale(0.015625)"/>
      </defs>
      <use xlink:href="#LiberationSans-48" transform="translate(0 0.409375)"/>
      <use xlink:href="#LiberationSans-46" transform="translate(72.216797 0.409375)"/>
      <use xlink:href="#LiberationSans-41" transform="translate(133.300781 0.409375)"/>
      <use xlink:href="#LiberationSans-43" transform="translate(200 0.409375)"/>
      <use xlink:href="#LiberationSans-46" transform="translate(272.216797 0.409375)"/>
      <use xlink:href="#LiberationSans-20" transform="translate(333.300781 0.409375)"/>
      <use xlink:href="#STIXGeneral-Regular-28" transform="translate(361.083984 0.409375)"/>
      <use xlink:href="#STIXGeneral-Regular-57" transform="translate(394.383972 0.409375)"/>
      <use xlink:href="#STIXGeneral-Regular-2f" transform="translate(488.783966 0.409375)"/>
      <use xlink:href="#STIXGeneral-Regular-6d" transform="translate(516.583954 0.409375)"/>
      <use xlink:href="#STIXGeneral-Regular-32" transform="translate(595.927223 35.684375) scale(0.7)"/>
      <use xlink:href="#STIXGeneral-Regular-29" transform="translate(635.336587 0.409375)"/>
      <use xlink:href="#STIXGeneral-Regular-32" transform="translate(670.179856 35.684375) scale(0.7)"/>
     </g>
    </g>
    <g id="text_15">
     <!-- $\times\mathdefault{10^{18}}\mathdefault{}$ -->
     <g transform="translate(79.5 36.1875) scale(0.4 -0.4)">
      <defs>
       <path id="STIXGeneral-Regular-d7" d="M 3821 141 
L 3526 -160 
L 2048 1312 
L 570 -160 
L 275 134 
L 1747 1613 
L 275 3091 
L 576 3386 
L 2048 1914 
L 3526 3386 
L 3821 3098 
L 2349 1613 
L 3821 141 
z
" transform="scale(0.015625)"/>
      </defs>
      <use xlink:href="#STIXGeneral-Regular-d7" transform="translate(0 0.140625)"/>
      <use xlink:href="#LiberationSans-31" transform="translate(63.999985 0.140625)"/>
      <use xlink:href="#LiberationSans-30" transform="translate(119.615219 0.140625)"/>
      <use xlink:href="#LiberationSans-31" transform="translate(176.154946 37.120312) scale(0.7)"/>
      <use xlink:href="#LiberationSans-38" transform="translate(215.08561 37.120312) scale(0.7)"/>
     </g>
    </g>
   </g>
   <g id="line2d_48">
    <path d="M 107.865545 66.514909 
L 108.092492 76.702307 
L 108.376176 94.597563 
L 108.773333 135.159433 
L 109.397438 226.476874 
L 111.269751 521.050118 
L 111.837118 573.688646 
L 112.291012 598.982491 
L 112.631433 609.138287 
L 112.915117 612.716646 
L 113.02859 613.063091 
L 113.085327 613.025181 
L 113.198801 612.579504 
L 113.425748 610.349024 
L 113.766168 604.4005 
L 114.390273 588.794106 
L 115.808692 551.462771 
L 116.71648 533.614352 
L 117.737742 518.100948 
L 118.985951 503.007688 
L 120.177423 491.768258 
L 121.085211 486.107917 
L 121.595842 484.596449 
L 121.822789 484.302677 
L 122.049736 484.322275 
L 122.276683 484.576138 
L 122.50363 485.049236 
L 122.730577 485.741925 
L 123.297945 488.309907 
L 125.510678 501.162682 
L 126.078046 502.984128 
L 126.53194 503.761439 
L 126.929097 503.925704 
L 127.212781 503.835957 
L 127.836886 503.124347 
L 128.46099 501.914462 
L 129.085094 500.495578 
L 130.957408 496.361374 
L 131.808459 495.197466 
L 132.602774 494.526928 
L 133.340352 494.161524 
L 134.07793 493.957363 
L 134.475087 493.880971 
L 135.609822 493.722515 
L 136.00698 493.837114 
L 136.687821 494.126071 
L 137.311925 494.536489 
L 140.318974 497.476384 
L 141.113288 497.661523 
L 141.850866 497.528012 
L 142.985602 496.98755 
L 144.801178 496.35071 
L 145.595493 496.309638 
L 147.694753 496.076997 
L 150.02096 495.494074 
L 150.645065 495.585159 
L 151.382643 495.88001 
L 152.971272 496.547198 
L 153.992534 496.573456 
L 155.354216 496.207048 
L 156.035057 496.047356 
L 156.942845 496.067199 
L 157.623687 496.299954 
L 158.304528 496.683719 
L 159.042106 497.125541 
L 159.949894 497.406804 
L 160.403788 497.360449 
L 160.971156 497.106674 
L 161.878944 496.239328 
L 163.921467 494.173133 
L 164.318625 494.062476 
L 164.829255 494.141359 
L 165.339886 494.451045 
L 166.190938 495.356615 
L 168.290198 497.711917 
L 168.800829 497.934682 
L 169.368197 497.976062 
L 170.275985 497.689562 
L 172.375245 496.731284 
L 173.850401 496.594905 
L 174.531242 496.527022 
L 176.119871 495.97818 
L 178.048921 495.216394 
L 179.12692 495.249999 
L 181.22618 495.825387 
L 183.15523 495.797011 
L 184.289965 495.722061 
L 185.141017 495.782662 
L 185.935332 495.992914 
L 188.375012 497.27559 
L 188.999117 497.313454 
L 189.566484 497.096856 
L 190.247326 496.49375 
L 190.984903 495.545273 
L 192.176376 493.948891 
L 192.80048 493.449857 
L 193.1409 493.388989 
L 193.594795 493.561503 
L 194.275636 494.214517 
L 195.013214 495.239563 
L 196.431633 497.075552 
L 196.942264 497.461117 
L 197.679842 497.681516 
L 198.417419 497.593426 
L 199.892575 497.117813 
L 201.027311 497.048204 
L 201.935099 497.163678 
L 202.78615 497.207079 
L 203.864149 496.906652 
L 204.7152 496.353803 
L 205.906672 495.334734 
L 206.587513 494.861786 
L 207.268355 494.589289 
L 208.176143 494.625358 
L 209.027194 494.970037 
L 210.445613 495.690374 
L 211.580349 495.992863 
L 214.303713 496.332569 
L 216.005816 497.172064 
L 216.913604 497.403018 
L 217.424235 497.353794 
L 218.332023 496.912123 
L 221.168862 494.813391 
L 221.622756 494.764177 
L 222.24686 494.929983 
L 222.814228 495.243893 
L 224.34612 496.297184 
L 225.310645 496.5211 
L 226.388644 496.196145 
L 227.977273 495.545025 
L 228.487904 495.557228 
L 228.998535 495.72239 
L 230.13327 496.495983 
L 231.381479 497.299466 
L 232.06232 497.414773 
L 232.459478 497.331985 
L 232.799898 497.198986 
L 233.537476 496.700892 
L 235.409789 495.204297 
L 236.431051 494.938679 
L 236.998419 494.981 
L 237.84947 495.231366 
L 240.175677 495.924718 
L 242.728832 496.369001 
L 243.409673 496.733359 
L 244.147251 497.199668 
L 245.225249 497.649071 
L 245.792617 497.593735 
L 246.473458 497.17743 
L 247.381246 496.055794 
L 248.913139 493.964692 
L 249.480507 493.56492 
L 249.820927 493.521621 
L 250.388295 493.844253 
L 250.955663 494.442426 
L 252.033661 495.963226 
L 252.827976 496.939189 
L 253.62229 497.451125 
L 254.076185 497.51152 
L 254.813762 497.297627 
L 255.608077 496.825147 
L 256.742812 496.162876 
L 258.955546 495.915977 
L 259.863334 495.951927 
L 260.827859 495.928584 
L 261.225017 495.905956 
L 262.303015 495.72902 
L 264.118592 495.476794 
L 264.85617 495.600772 
L 265.650484 495.921828 
L 267.466061 496.904244 
L 268.317112 497.085382 
L 269.05469 496.98201 
L 271.210687 496.323017 
L 272.969527 496.684544 
L 273.820578 496.831806 
L 274.558156 496.699511 
L 275.295734 496.225891 
L 276.260259 495.262025 
L 277.111311 494.394723 
L 277.962362 493.892507 
L 278.586466 493.86377 
L 279.04036 494.039724 
L 279.777938 494.66637 
L 282.274356 497.345974 
L 282.841724 497.50181 
L 283.636038 497.356497 
L 284.316879 497.017454 
L 284.940984 496.655619 
L 285.678562 496.34232 
L 286.529613 496.200858 
L 288.855821 496.203764 
L 291.862869 495.08842 
L 292.3735 495.158631 
L 293.338025 495.693358 
L 294.30255 496.483708 
L 294.926654 496.925975 
L 295.664232 497.215058 
L 296.515284 497.137718 
L 298.387597 496.29399 
L 299.125175 496.261282 
L 299.522332 496.37204 
L 300.316647 496.87253 
L 301.167698 497.519211 
L 301.848539 497.857435 
L 302.35917 497.87727 
L 302.926538 497.611767 
L 303.607379 496.888826 
L 306.04706 493.567727 
L 306.500954 493.409909 
L 306.954848 493.545409 
L 307.408742 493.898919 
L 308.203057 494.931617 
L 309.451266 496.792681 
L 310.24558 497.541057 
L 310.926422 497.762406 
L 311.437052 497.692808 
L 312.117894 497.394444 
L 313.479576 496.777619 
L 314.954732 496.884635 
L 316.373151 497.128794 
L 317.224202 496.905285 
L 318.699358 495.702239 
L 319.834093 494.68327 
L 320.458198 494.378306 
L 320.912092 494.334155 
L 321.536196 494.555234 
L 322.103564 494.954276 
L 323.124826 495.87769 
L 323.91914 496.476961 
L 324.883665 496.794415 
L 327.833977 496.556312 
L 328.401345 496.747041 
L 330.103448 497.269616 
L 330.670815 497.16734 
L 331.124709 496.934331 
L 331.692077 496.43886 
L 333.791337 493.933545 
L 334.301968 493.634346 
L 334.812599 493.523501 
L 335.039546 493.712141 
L 335.550177 494.164748 
L 336.344492 495.294132 
L 337.989858 497.824197 
L 338.500489 498.289186 
L 338.954383 498.486791 
L 339.465014 498.490779 
L 339.975644 498.28698 
L 340.996906 497.442527 
L 343.152903 495.812968 
L 344.230902 495.626655 
L 345.706058 495.73975 
L 347.521634 495.848006 
L 348.145738 495.857663 
L 350.074788 495.960112 
L 353.989625 496.027231 
L 355.408044 496.748453 
L 356.826463 497.753227 
L 357.677515 498.107258 
L 358.131409 498.144475 
L 358.698776 498.011732 
L 359.549828 497.475138 
L 360.684563 496.282324 
L 362.897297 493.967402 
L 363.351191 493.816322 
L 363.975295 493.991165 
L 364.485926 494.326265 
L 365.166767 494.976322 
L 366.69866 496.463354 
L 367.492975 496.855604 
L 368.400763 496.851712 
L 369.251814 496.595373 
L 369.932656 496.37275 
L 371.010654 496.3079 
L 372.031916 496.555411 
L 373.109914 496.72638 
L 373.960966 496.463842 
L 375.492858 495.126765 
L 376.34391 494.447383 
L 376.911278 494.2602 
L 377.478645 494.33954 
L 378.386433 494.965967 
L 380.145273 496.329242 
L 380.826114 496.414766 
L 381.450219 496.245559 
L 383.152322 495.583933 
L 383.606216 495.605055 
L 384.343794 495.967438 
L 385.478529 497.104444 
L 386.613264 498.086297 
L 387.067158 498.205864 
L 387.577789 498.070301 
L 388.145157 497.570089 
L 388.825998 496.550995 
L 390.925258 493.132182 
L 391.435889 492.872823 
L 391.77631 492.934448 
L 392.230204 493.249391 
L 392.797571 493.931641 
L 393.70536 495.361472 
L 394.783358 496.835318 
L 395.407462 497.298035 
L 395.861357 497.461505 
L 396.598934 497.382043 
L 397.620196 496.931482 
L 398.244301 496.645405 
L 399.379036 496.449327 
L 400.457034 496.600836 
L 401.648506 496.801393 
L 402.329348 496.753654 
L 403.86124 495.99056 
L 405.166186 495.18833 
L 405.847027 495.027525 
L 406.698078 495.210306 
L 407.605867 495.702849 
L 408.683865 496.265752 
L 409.47818 496.452938 
L 410.783125 496.420801 
L 411.237019 496.412937 
L 411.974597 496.544616 
L 412.995859 497.069186 
L 414.471015 498.034914 
L 415.378803 498.149634 
L 415.946171 497.89362 
L 416.627012 497.239768 
L 417.36459 496.186095 
L 418.953219 493.686313 
L 419.690797 492.979482 
L 420.087955 492.838397 
L 420.541849 492.937513 
L 421.109216 493.407637 
L 421.676584 494.146891 
L 423.719107 497.247037 
L 424.513422 497.823754 
L 425.08079 497.903511 
L 425.931841 497.577174 
L 426.442472 497.232987 
L 427.804154 496.26214 
L 428.541732 495.918183 
L 429.619731 495.705568 
L 431.945938 495.448154 
L 433.13741 495.149988 
L 434.215409 495.197806 
L 435.463617 495.844067 
L 436.711826 496.55404 
L 437.392667 496.677628 
L 438.243719 496.489158 
L 440.569926 495.610842 
L 441.02382 495.712252 
L 441.647925 496.088855 
L 443.690448 497.696855 
L 444.201079 497.756203 
L 444.768447 497.540328 
L 445.449288 496.881545 
L 446.64076 495.095668 
L 447.775495 493.592935 
L 448.286126 493.168398 
L 448.342863 493.236626 
L 448.74002 493.320521 
L 449.193914 493.629873 
L 449.704545 494.216669 
L 450.32865 495.162302 
L 451.803805 497.280542 
L 452.42791 497.722022 
L 452.881804 497.820903 
L 453.449172 497.67095 
L 454.413697 496.937982 
L 455.832116 495.848799 
L 456.569694 495.661667 
L 457.364008 495.775536 
L 458.044849 496.014644 
L 458.952638 496.247415 
L 459.633479 496.215064 
L 460.257583 496.033039 
L 461.222108 495.55032 
L 461.846213 495.299715 
L 462.41358 495.212014 
L 463.491579 495.516448 
L 464.34263 496.072363 
L 465.420629 496.723695 
L 466.044733 496.901634 
L 466.725574 496.887508 
L 469.221992 496.036085 
L 469.789359 496.11928 
L 470.810621 496.773092 
L 472.115567 497.825467 
L 472.682934 497.995798 
L 473.193565 497.875122 
L 473.647459 497.548365 
L 474.3283 496.697307 
L 476.427561 493.687121 
L 476.881455 493.471077 
L 477.335349 493.518063 
L 477.789243 493.793175 
L 478.413347 494.437442 
L 480.001977 496.399531 
L 480.626081 496.853228 
L 481.363659 497.035381 
L 482.271447 496.865733 
L 483.689866 496.420418 
L 487.150809 496.683506 
L 487.83165 496.379227 
L 489.250069 495.317117 
L 490.044384 494.861936 
L 490.668488 494.748847 
L 491.122383 494.834643 
L 491.973434 495.339994 
L 493.051432 496.260911 
L 493.6188 496.646262 
L 494.413115 496.923678 
L 495.150693 496.862785 
L 495.71806 496.671038 
L 496.966269 496.089062 
L 497.874057 495.958037 
L 498.611635 496.138694 
L 499.746371 496.709081 
L 500.597422 497.010647 
L 501.051316 497.013747 
L 501.732157 496.71986 
L 502.356262 496.141088 
L 503.320787 494.914454 
L 504.171838 493.971453 
L 504.795943 493.631952 
L 505.1931 493.653904 
L 505.646994 493.929516 
L 506.384572 494.766625 
L 508.313622 497.394085 
L 508.994463 497.809659 
L 509.675304 497.822682 
L 510.242672 497.579945 
L 511.263934 496.880236 
L 511.774564 496.54678 
L 512.739089 496.234857 
L 513.24972 496.254142 
L 514.100772 496.486296 
L 514.668139 496.667474 
L 515.519191 496.754434 
L 516.256769 496.574231 
L 517.164557 496.069523 
L 518.639713 495.333395 
L 519.150344 495.302228 
L 520.852447 495.980731 
L 522.100655 496.524717 
L 523.235391 496.641543 
L 525.504861 496.583411 
L 526.526123 496.825078 
L 527.660858 497.290404 
L 528.51191 497.499567 
L 529.419698 497.318486 
L 530.100539 496.816328 
L 530.838117 495.953239 
L 532.596957 493.635605 
L 533.164324 493.248586 
L 533.731692 493.16958 
L 534.185586 493.326997 
L 534.63948 493.684394 
L 535.263585 494.430854 
L 537.362845 497.033365 
L 538.100423 497.362911 
L 538.838001 497.36646 
L 540.653577 496.868229 
L 542.469153 496.89354 
L 542.979784 496.920009 
L 543.830836 496.801954 
L 544.965571 496.207129 
L 545.759886 495.535933 
L 546.724411 494.727597 
L 547.518725 494.328041 
L 548.48325 494.368318 
L 549.050618 494.627421 
L 549.788196 495.122695 
L 550.582511 495.657402 
L 551.263352 495.993706 
L 551.830719 496.183349 
L 553.022192 496.308034 
L 555.178189 496.738183 
L 556.880291 497.371153 
L 557.95829 497.279677 
L 558.412184 497.048243 
L 558.979552 496.612113 
L 560.624918 494.956089 
L 561.249022 494.478797 
L 561.81639 494.267886 
L 562.327021 494.336435 
L 562.837652 494.559721 
L 564.256071 495.736937 
L 565.107122 496.470235 
L 565.731227 496.838583 
L 566.525541 496.99465 
L 567.433329 496.765912 
L 570.383641 495.435578 
L 572.029007 495.434114 
L 572.766585 495.428739 
L 575.603423 494.989652 
L 576.227528 495.104105 
L 577.419 495.687844 
L 579.121103 496.507082 
L 580.369312 496.529761 
L 581.901204 496.379596 
L 582.638782 496.578666 
L 583.54657 497.181483 
L 585.021726 498.302582 
L 585.589094 498.437427 
L 586.099725 498.282427 
L 586.496882 497.98252 
L 587.177723 497.077699 
L 588.028775 495.550681 
L 589.106773 493.765189 
L 589.617404 493.287615 
L 590.128035 493.06009 
L 590.354982 493.167772 
L 590.808876 493.406725 
L 591.319507 493.901876 
L 592.057085 494.855143 
L 593.19182 496.28631 
L 593.702451 496.751185 
L 594.213082 497.038789 
L 595.064133 497.175142 
L 595.801711 497.066742 
L 597.390341 496.814894 
L 600.454126 497.17993 
L 601.191704 496.902566 
L 602.950543 495.484889 
L 603.858332 494.757385 
L 604.59591 494.402727 
L 605.390224 494.368593 
L 605.900855 494.512582 
L 607.03559 495.130249 
L 608.79443 496.129773 
L 609.702218 496.44858 
L 611.688005 496.867415 
L 613.900739 496.988317 
L 614.638317 496.667538 
L 615.148948 496.312014 
L 615.943262 495.538664 
L 617.191471 494.205144 
L 617.872312 493.766428 
L 618.496417 493.654523 
L 618.723364 493.882676 
L 619.290731 494.460641 
L 619.971572 495.424646 
L 621.219781 497.333794 
L 621.900622 498.038985 
L 622.46799 498.280698 
L 623.092094 498.159017 
L 623.772936 497.623602 
L 624.737461 496.523665 
L 625.418302 495.812579 
L 626.15588 495.401075 
L 626.836721 495.398083 
L 627.687772 495.785661 
L 628.652297 496.331542 
L 629.730296 496.490304 
L 630.297663 496.316813 
L 631.432399 495.645578 
L 632.056503 495.346931 
L 632.623871 495.238143 
L 633.701869 495.544072 
L 634.893341 496.293172 
L 635.460709 496.573388 
L 636.31176 496.770988 
L 637.049338 496.72289 
L 639.148599 496.365665 
L 639.659229 496.457319 
L 640.567018 496.898192 
L 641.247859 497.351131 
L 642.269121 497.798008 
L 642.836488 497.751234 
L 643.233645 497.563856 
L 643.914487 496.890827 
L 644.595328 495.912411 
L 646.070484 493.785901 
L 646.581115 493.412679 
L 647.035009 493.343373 
L 647.488903 493.541938 
L 648.05627 494.132383 
L 648.680375 495.07664 
L 650.269004 497.497101 
L 650.836372 497.914036 
L 651.460476 497.991684 
L 652.198054 497.682183 
L 653.332789 496.996075 
L 654.013631 496.793138 
L 654.524261 496.808073 
L 655.829207 497.24023 
L 656.566785 497.421366 
L 657.190889 497.365563 
L 657.814994 497.062449 
L 658.268888 496.705984 
L 660.765305 494.584237 
L 661.275936 494.526276 
L 661.786567 494.669539 
L 662.637619 495.142678 
L 663.829091 495.878797 
L 664.793616 496.170492 
L 665.758141 496.156834 
L 667.573717 496.066042 
L 668.594979 496.388674 
L 670.070135 497.13415 
L 671.03466 497.317072 
L 671.658764 497.185073 
L 672.226132 496.872644 
L 673.47434 495.772745 
L 674.495602 494.973512 
L 675.176443 494.739716 
L 675.176443 494.739716 
" clip-path="url(#p7e449485a7)" style="fill: none; stroke: #0000ff; stroke-width: 1.5; stroke-linecap: square"/>
   </g>
   <g id="patch_3">
    <path d="M 79.5 640.3905 
L 79.5 39.1875 
" style="fill: none; stroke: #000000; stroke-width: 0.8; stroke-linejoin: miter; stroke-linecap: square"/>
   </g>
   <g id="patch_4">
    <path d="M 703.541988 640.3905 
L 703.541988 39.1875 
" style="fill: none; stroke: #000000; stroke-width: 0.8; stroke-linejoin: miter; stroke-linecap: square"/>
   </g>
   <g id="patch_5">
    <path d="M 79.5 640.3905 
L 703.541988 640.3905 
" style="fill: none; stroke: #000000; stroke-width: 0.8; stroke-linejoin: miter; stroke-linecap: square"/>
   </g>
   <g id="patch_6">
    <path d="M 79.5 39.1875 
L 703.541988 39.1875 
" style="fill: none; stroke: #000000; stroke-width: 0.8; stroke-linejoin: miter; stroke-linecap: square"/>
   </g>
  </g>
 </g>
 <defs>
  <clipPath id="p7e449485a7">
   <rect x="79.5" y="39.1875" width="624.041988" height="601.203"/>
  </clipPath>
 </defs>
</svg>
