<?xml version="1.0" encoding="utf-8" standalone="no"?>
<!DOCTYPE svg PUBLIC "-//W3C//DTD SVG 1.1//EN"
  "http://www.w3.org/Graphics/SVG/1.1/DTD/svg11.dtd">
<svg xmlns:xlink="http://www.w3.org/1999/xlink" width="711.967109pt" height="711.490062pt" viewBox="0 0 711.967109 711.490062" xmlns="http://www.w3.org/2000/svg" version="1.1">
 <metadata>
  <rdf:RDF xmlns:dc="http://purl.org/dc/elements/1.1/" xmlns:cc="http://creativecommons.org/ns#" xmlns:rdf="http://www.w3.org/1999/02/22-rdf-syntax-ns#">
   <cc:Work>
    <dc:type rdf:resource="http://purl.org/dc/dcmitype/StillImage"/>
    <dc:date>2025-01-31T22:09:08.999267</dc:date>
    <dc:format>image/svg+xml</dc:format>
    <dc:creator>
     <cc:Agent>
      <dc:title>Matplotlib v3.9.3, https://matplotlib.org/</dc:title>
     </cc:Agent>
    </dc:creator>
   </cc:Work>
  </rdf:RDF>
 </metadata>
 <defs>
  <style type="text/css">*{stroke-linejoin: round; stroke-linecap: butt}</style>
 </defs>
 <g id="figure_1">
  <g id="patch_1">
   <path d="M 0 711.490062 
L 711.967109 711.490062 
L 711.967109 0 
L 0 0 
z
" style="fill: #ffffff"/>
  </g>
  <g id="axes_1">
   <g id="patch_2">
    <path d="M 75.804688 635.3335 
L 704.767109 635.3335 
L 704.767109 39.1875 
L 75.804688 39.1875 
z
" style="fill: #ffffff"/>
   </g>
   <g id="matplotlib.axis_1">
    <g id="xtick_1">
     <g id="line2d_1">
      <defs>
       <path id="mf98499aac5" d="M 0 0 
L 0 -3.5 
" style="stroke: #000000; stroke-width: 0.8"/>
      </defs>
      <g>
       <use xlink:href="#mf98499aac5" x="116.921431" y="635.3335" style="stroke: #000000; stroke-width: 0.8"/>
      </g>
     </g>
     <g id="text_1">
      <!-- $\mathdefault{−2}$ -->
      <g transform="translate(101.396431 658.400062) scale(0.27 -0.27)">
       <defs>
        <path id="LiberationSans-2212" d="M 316 1900 
L 316 2356 
L 3425 2356 
L 3425 1900 
L 316 1900 
z
" transform="scale(0.015625)"/>
        <path id="LiberationSans-32" d="M 322 0 
L 322 397 
Q 481 763 711 1042 
Q 941 1322 1194 1548 
Q 1447 1775 1695 1969 
Q 1944 2163 2144 2356 
Q 2344 2550 2467 2762 
Q 2591 2975 2591 3244 
Q 2591 3606 2378 3806 
Q 2166 4006 1788 4006 
Q 1428 4006 1195 3811 
Q 963 3616 922 3263 
L 347 3316 
Q 409 3844 795 4156 
Q 1181 4469 1788 4469 
Q 2453 4469 2811 4155 
Q 3169 3841 3169 3263 
Q 3169 3006 3051 2753 
Q 2934 2500 2703 2247 
Q 2472 1994 1819 1463 
Q 1459 1169 1246 933 
Q 1034 697 941 478 
L 3238 478 
L 3238 0 
L 322 0 
z
" transform="scale(0.015625)"/>
       </defs>
       <use xlink:href="#LiberationSans-2212" transform="translate(0 0.171875)"/>
       <use xlink:href="#LiberationSans-32" transform="translate(58.398438 0.171875)"/>
      </g>
     </g>
    </g>
    <g id="xtick_2">
     <g id="line2d_2">
      <g>
       <use xlink:href="#mf98499aac5" x="253.603665" y="635.3335" style="stroke: #000000; stroke-width: 0.8"/>
      </g>
     </g>
     <g id="text_2">
      <!-- $\mathdefault{−1}$ -->
      <g transform="translate(238.078665 658.400062) scale(0.27 -0.27)">
       <defs>
        <path id="LiberationSans-31" d="M 488 0 
L 488 478 
L 1609 478 
L 1609 3866 
L 616 3156 
L 616 3688 
L 1656 4403 
L 2175 4403 
L 2175 478 
L 3247 478 
L 3247 0 
L 488 0 
z
" transform="scale(0.015625)"/>
       </defs>
       <use xlink:href="#LiberationSans-2212" transform="translate(0 0.203125)"/>
       <use xlink:href="#LiberationSans-31" transform="translate(58.398438 0.203125)"/>
      </g>
     </g>
    </g>
    <g id="xtick_3">
     <g id="line2d_3">
      <g>
       <use xlink:href="#mf98499aac5" x="390.285898" y="635.3335" style="stroke: #000000; stroke-width: 0.8"/>
      </g>
     </g>
     <g id="text_3">
      <!-- $\mathdefault{0}$ -->
      <g transform="translate(382.725898 658.400062) scale(0.27 -0.27)">
       <defs>
        <path id="LiberationSans-30" d="M 3309 2203 
Q 3309 1100 2920 518 
Q 2531 -63 1772 -63 
Q 1013 -63 631 515 
Q 250 1094 250 2203 
Q 250 3338 620 3903 
Q 991 4469 1791 4469 
Q 2569 4469 2939 3897 
Q 3309 3325 3309 2203 
z
M 2738 2203 
Q 2738 3156 2517 3584 
Q 2297 4013 1791 4013 
Q 1272 4013 1045 3591 
Q 819 3169 819 2203 
Q 819 1266 1048 831 
Q 1278 397 1778 397 
Q 2275 397 2506 840 
Q 2738 1284 2738 2203 
z
" transform="scale(0.015625)"/>
       </defs>
       <use xlink:href="#LiberationSans-30" transform="translate(0 0.171875)"/>
      </g>
     </g>
    </g>
    <g id="xtick_4">
     <g id="line2d_4">
      <g>
       <use xlink:href="#mf98499aac5" x="526.968132" y="635.3335" style="stroke: #000000; stroke-width: 0.8"/>
      </g>
     </g>
     <g id="text_4">
      <!-- $\mathdefault{1}$ -->
      <g transform="translate(519.408132 658.400062) scale(0.27 -0.27)">
       <use xlink:href="#LiberationSans-31" transform="translate(0 0.203125)"/>
      </g>
     </g>
    </g>
    <g id="xtick_5">
     <g id="line2d_5">
      <g>
       <use xlink:href="#mf98499aac5" x="663.650366" y="635.3335" style="stroke: #000000; stroke-width: 0.8"/>
      </g>
     </g>
     <g id="text_5">
      <!-- $\mathdefault{2}$ -->
      <g transform="translate(656.090366 658.400062) scale(0.27 -0.27)">
       <use xlink:href="#LiberationSans-32" transform="translate(0 0.171875)"/>
      </g>
     </g>
    </g>
    <g id="xtick_6">
     <g id="line2d_6">
      <defs>
       <path id="m76cebbfc02" d="M 0 0 
L 0 -2 
" style="stroke: #000000; stroke-width: 0.6"/>
      </defs>
      <g>
       <use xlink:href="#m76cebbfc02" x="89.584984" y="635.3335" style="stroke: #000000; stroke-width: 0.6"/>
      </g>
     </g>
    </g>
    <g id="xtick_7">
     <g id="line2d_7">
      <g>
       <use xlink:href="#m76cebbfc02" x="144.257877" y="635.3335" style="stroke: #000000; stroke-width: 0.6"/>
      </g>
     </g>
    </g>
    <g id="xtick_8">
     <g id="line2d_8">
      <g>
       <use xlink:href="#m76cebbfc02" x="171.594324" y="635.3335" style="stroke: #000000; stroke-width: 0.6"/>
      </g>
     </g>
    </g>
    <g id="xtick_9">
     <g id="line2d_9">
      <g>
       <use xlink:href="#m76cebbfc02" x="198.930771" y="635.3335" style="stroke: #000000; stroke-width: 0.6"/>
      </g>
     </g>
    </g>
    <g id="xtick_10">
     <g id="line2d_10">
      <g>
       <use xlink:href="#m76cebbfc02" x="226.267218" y="635.3335" style="stroke: #000000; stroke-width: 0.6"/>
      </g>
     </g>
    </g>
    <g id="xtick_11">
     <g id="line2d_11">
      <g>
       <use xlink:href="#m76cebbfc02" x="280.940111" y="635.3335" style="stroke: #000000; stroke-width: 0.6"/>
      </g>
     </g>
    </g>
    <g id="xtick_12">
     <g id="line2d_12">
      <g>
       <use xlink:href="#m76cebbfc02" x="308.276558" y="635.3335" style="stroke: #000000; stroke-width: 0.6"/>
      </g>
     </g>
    </g>
    <g id="xtick_13">
     <g id="line2d_13">
      <g>
       <use xlink:href="#m76cebbfc02" x="335.613005" y="635.3335" style="stroke: #000000; stroke-width: 0.6"/>
      </g>
     </g>
    </g>
    <g id="xtick_14">
     <g id="line2d_14">
      <g>
       <use xlink:href="#m76cebbfc02" x="362.949452" y="635.3335" style="stroke: #000000; stroke-width: 0.6"/>
      </g>
     </g>
    </g>
    <g id="xtick_15">
     <g id="line2d_15">
      <g>
       <use xlink:href="#m76cebbfc02" x="417.622345" y="635.3335" style="stroke: #000000; stroke-width: 0.6"/>
      </g>
     </g>
    </g>
    <g id="xtick_16">
     <g id="line2d_16">
      <g>
       <use xlink:href="#m76cebbfc02" x="444.958792" y="635.3335" style="stroke: #000000; stroke-width: 0.6"/>
      </g>
     </g>
    </g>
    <g id="xtick_17">
     <g id="line2d_17">
      <g>
       <use xlink:href="#m76cebbfc02" x="472.295239" y="635.3335" style="stroke: #000000; stroke-width: 0.6"/>
      </g>
     </g>
    </g>
    <g id="xtick_18">
     <g id="line2d_18">
      <g>
       <use xlink:href="#m76cebbfc02" x="499.631686" y="635.3335" style="stroke: #000000; stroke-width: 0.6"/>
      </g>
     </g>
    </g>
    <g id="xtick_19">
     <g id="line2d_19">
      <g>
       <use xlink:href="#m76cebbfc02" x="554.304579" y="635.3335" style="stroke: #000000; stroke-width: 0.6"/>
      </g>
     </g>
    </g>
    <g id="xtick_20">
     <g id="line2d_20">
      <g>
       <use xlink:href="#m76cebbfc02" x="581.641026" y="635.3335" style="stroke: #000000; stroke-width: 0.6"/>
      </g>
     </g>
    </g>
    <g id="xtick_21">
     <g id="line2d_21">
      <g>
       <use xlink:href="#m76cebbfc02" x="608.977473" y="635.3335" style="stroke: #000000; stroke-width: 0.6"/>
      </g>
     </g>
    </g>
    <g id="xtick_22">
     <g id="line2d_22">
      <g>
       <use xlink:href="#m76cebbfc02" x="636.313919" y="635.3335" style="stroke: #000000; stroke-width: 0.6"/>
      </g>
     </g>
    </g>
    <g id="xtick_23">
     <g id="line2d_23">
      <g>
       <use xlink:href="#m76cebbfc02" x="690.986813" y="635.3335" style="stroke: #000000; stroke-width: 0.6"/>
      </g>
     </g>
    </g>
    <g id="text_6">
     <!-- Value -->
     <g transform="translate(359.239023 686.11975) scale(0.25 -0.25)">
      <defs>
       <path id="LiberationSans-56" d="M 2444 0 
L 1825 0 
L 28 4403 
L 656 4403 
L 1875 1303 
L 2138 525 
L 2400 1303 
L 3613 4403 
L 4241 4403 
L 2444 0 
z
" transform="scale(0.015625)"/>
       <path id="LiberationSans-61" d="M 1294 -63 
Q 784 -63 528 206 
Q 272 475 272 944 
Q 272 1469 617 1750 
Q 963 2031 1731 2050 
L 2491 2063 
L 2491 2247 
Q 2491 2659 2316 2837 
Q 2141 3016 1766 3016 
Q 1388 3016 1216 2887 
Q 1044 2759 1009 2478 
L 422 2531 
Q 566 3444 1778 3444 
Q 2416 3444 2737 3151 
Q 3059 2859 3059 2306 
L 3059 850 
Q 3059 600 3125 473 
Q 3191 347 3375 347 
Q 3456 347 3559 369 
L 3559 19 
Q 3347 -31 3125 -31 
Q 2813 -31 2670 133 
Q 2528 297 2509 647 
L 2491 647 
Q 2275 259 1989 98 
Q 1703 -63 1294 -63 
z
M 1422 359 
Q 1731 359 1972 500 
Q 2213 641 2352 886 
Q 2491 1131 2491 1391 
L 2491 1669 
L 1875 1656 
Q 1478 1650 1273 1575 
Q 1069 1500 959 1344 
Q 850 1188 850 934 
Q 850 659 998 509 
Q 1147 359 1422 359 
z
" transform="scale(0.015625)"/>
       <path id="LiberationSans-6c" d="M 431 0 
L 431 4638 
L 994 4638 
L 994 0 
L 431 0 
z
" transform="scale(0.015625)"/>
       <path id="LiberationSans-75" d="M 981 3381 
L 981 1238 
Q 981 903 1047 718 
Q 1113 534 1256 453 
Q 1400 372 1678 372 
Q 2084 372 2318 650 
Q 2553 928 2553 1422 
L 2553 3381 
L 3116 3381 
L 3116 722 
Q 3116 131 3134 0 
L 2603 0 
Q 2600 16 2597 84 
Q 2594 153 2589 242 
Q 2584 331 2578 578 
L 2569 578 
Q 2375 228 2120 82 
Q 1866 -63 1488 -63 
Q 931 -63 673 214 
Q 416 491 416 1128 
L 416 3381 
L 981 3381 
z
" transform="scale(0.015625)"/>
       <path id="LiberationSans-65" d="M 863 1572 
Q 863 991 1103 675 
Q 1344 359 1806 359 
Q 2172 359 2392 506 
Q 2613 653 2691 878 
L 3184 738 
Q 2881 -63 1806 -63 
Q 1056 -63 664 384 
Q 272 831 272 1713 
Q 272 2550 664 2997 
Q 1056 3444 1784 3444 
Q 3275 3444 3275 1647 
L 3275 1572 
L 863 1572 
z
M 2694 2003 
Q 2647 2538 2422 2783 
Q 2197 3028 1775 3028 
Q 1366 3028 1127 2754 
Q 888 2481 869 2003 
L 2694 2003 
z
" transform="scale(0.015625)"/>
      </defs>
      <use xlink:href="#LiberationSans-56"/>
      <use xlink:href="#LiberationSans-61" x="59.324219"/>
      <use xlink:href="#LiberationSans-6c" x="114.939453"/>
      <use xlink:href="#LiberationSans-75" x="137.15625"/>
      <use xlink:href="#LiberationSans-65" x="192.771484"/>
     </g>
    </g>
    <g id="text_7">
     <!-- $\times\mathdefault{10^{10}}\mathdefault{}$ -->
     <g transform="translate(601.967109 695.990062) scale(0.4 -0.4)">
      <defs>
       <path id="STIXGeneral-Regular-d7" d="M 3821 141 
L 3526 -160 
L 2048 1312 
L 570 -160 
L 275 134 
L 1747 1613 
L 275 3091 
L 576 3386 
L 2048 1914 
L 3526 3386 
L 3821 3098 
L 2349 1613 
L 3821 141 
z
" transform="scale(0.015625)"/>
      </defs>
      <use xlink:href="#STIXGeneral-Regular-d7" transform="translate(0 0.140625)"/>
      <use xlink:href="#LiberationSans-31" transform="translate(63.999985 0.140625)"/>
      <use xlink:href="#LiberationSans-30" transform="translate(119.615219 0.140625)"/>
      <use xlink:href="#LiberationSans-31" transform="translate(176.154946 37.120312) scale(0.7)"/>
      <use xlink:href="#LiberationSans-30" transform="translate(215.08561 37.120312) scale(0.7)"/>
     </g>
    </g>
   </g>
   <g id="matplotlib.axis_2">
    <g id="ytick_1">
     <g id="line2d_24">
      <defs>
       <path id="m5ccc23c0e1" d="M 0 0 
L 3.5 0 
" style="stroke: #000000; stroke-width: 0.8"/>
      </defs>
      <g>
       <use xlink:href="#m5ccc23c0e1" x="75.804688" y="608.235955" style="stroke: #000000; stroke-width: 0.8"/>
      </g>
     </g>
     <g id="text_8">
      <!-- $\mathdefault{0.0}$ -->
      <g transform="translate(34.504688 618.019236) scale(0.27 -0.27)">
       <defs>
        <path id="LiberationSans-2e" d="M 584 0 
L 584 684 
L 1194 684 
L 1194 0 
L 584 0 
z
" transform="scale(0.015625)"/>
       </defs>
       <use xlink:href="#LiberationSans-30" transform="translate(0 0.171875)"/>
       <use xlink:href="#LiberationSans-2e" transform="translate(55.615234 0.171875)"/>
       <use xlink:href="#LiberationSans-30" transform="translate(83.398438 0.171875)"/>
      </g>
     </g>
    </g>
    <g id="ytick_2">
     <g id="line2d_25">
      <g>
       <use xlink:href="#m5ccc23c0e1" x="75.804688" y="531.063353" style="stroke: #000000; stroke-width: 0.8"/>
      </g>
     </g>
     <g id="text_9">
      <!-- $\mathdefault{0.2}$ -->
      <g transform="translate(34.504688 540.846634) scale(0.27 -0.27)">
       <use xlink:href="#LiberationSans-30" transform="translate(0 0.171875)"/>
       <use xlink:href="#LiberationSans-2e" transform="translate(55.615234 0.171875)"/>
       <use xlink:href="#LiberationSans-32" transform="translate(83.398438 0.171875)"/>
      </g>
     </g>
    </g>
    <g id="ytick_3">
     <g id="line2d_26">
      <g>
       <use xlink:href="#m5ccc23c0e1" x="75.804688" y="453.890751" style="stroke: #000000; stroke-width: 0.8"/>
      </g>
     </g>
     <g id="text_10">
      <!-- $\mathdefault{0.4}$ -->
      <g transform="translate(34.504688 463.674032) scale(0.27 -0.27)">
       <defs>
        <path id="LiberationSans-34" d="M 2753 997 
L 2753 0 
L 2222 0 
L 2222 997 
L 147 997 
L 147 1434 
L 2163 4403 
L 2753 4403 
L 2753 1441 
L 3372 1441 
L 3372 997 
L 2753 997 
z
M 2222 3769 
Q 2216 3750 2134 3603 
Q 2053 3456 2013 3397 
L 884 1734 
L 716 1503 
L 666 1441 
L 2222 1441 
L 2222 3769 
z
" transform="scale(0.015625)"/>
       </defs>
       <use xlink:href="#LiberationSans-30" transform="translate(0 0.171875)"/>
       <use xlink:href="#LiberationSans-2e" transform="translate(55.615234 0.171875)"/>
       <use xlink:href="#LiberationSans-34" transform="translate(83.398438 0.171875)"/>
      </g>
     </g>
    </g>
    <g id="ytick_4">
     <g id="line2d_27">
      <g>
       <use xlink:href="#m5ccc23c0e1" x="75.804688" y="376.718149" style="stroke: #000000; stroke-width: 0.8"/>
      </g>
     </g>
     <g id="text_11">
      <!-- $\mathdefault{0.6}$ -->
      <g transform="translate(34.504688 386.501431) scale(0.27 -0.27)">
       <defs>
        <path id="LiberationSans-36" d="M 3278 1441 
Q 3278 744 2900 340 
Q 2522 -63 1856 -63 
Q 1113 -63 719 490 
Q 325 1044 325 2100 
Q 325 3244 734 3856 
Q 1144 4469 1900 4469 
Q 2897 4469 3156 3572 
L 2619 3475 
Q 2453 4013 1894 4013 
Q 1413 4013 1148 3564 
Q 884 3116 884 2266 
Q 1038 2550 1316 2698 
Q 1594 2847 1953 2847 
Q 2563 2847 2920 2465 
Q 3278 2084 3278 1441 
z
M 2706 1416 
Q 2706 1894 2472 2153 
Q 2238 2413 1819 2413 
Q 1425 2413 1183 2183 
Q 941 1953 941 1550 
Q 941 1041 1192 716 
Q 1444 391 1838 391 
Q 2244 391 2475 664 
Q 2706 938 2706 1416 
z
" transform="scale(0.015625)"/>
       </defs>
       <use xlink:href="#LiberationSans-30" transform="translate(0 0.171875)"/>
       <use xlink:href="#LiberationSans-2e" transform="translate(55.615234 0.171875)"/>
       <use xlink:href="#LiberationSans-36" transform="translate(83.398438 0.171875)"/>
      </g>
     </g>
    </g>
    <g id="ytick_5">
     <g id="line2d_28">
      <g>
       <use xlink:href="#m5ccc23c0e1" x="75.804688" y="299.545548" style="stroke: #000000; stroke-width: 0.8"/>
      </g>
     </g>
     <g id="text_12">
      <!-- $\mathdefault{0.8}$ -->
      <g transform="translate(34.504688 309.328829) scale(0.27 -0.27)">
       <defs>
        <path id="LiberationSans-38" d="M 3281 1228 
Q 3281 619 2893 278 
Q 2506 -63 1781 -63 
Q 1075 -63 676 271 
Q 278 606 278 1222 
Q 278 1653 525 1947 
Q 772 2241 1156 2303 
L 1156 2316 
Q 797 2400 589 2681 
Q 381 2963 381 3341 
Q 381 3844 757 4156 
Q 1134 4469 1769 4469 
Q 2419 4469 2795 4162 
Q 3172 3856 3172 3334 
Q 3172 2956 2962 2675 
Q 2753 2394 2391 2322 
L 2391 2309 
Q 2813 2241 3047 1952 
Q 3281 1663 3281 1228 
z
M 2588 3303 
Q 2588 4050 1769 4050 
Q 1372 4050 1164 3862 
Q 956 3675 956 3303 
Q 956 2925 1170 2726 
Q 1384 2528 1775 2528 
Q 2172 2528 2380 2711 
Q 2588 2894 2588 3303 
z
M 2697 1281 
Q 2697 1691 2453 1898 
Q 2209 2106 1769 2106 
Q 1341 2106 1100 1882 
Q 859 1659 859 1269 
Q 859 359 1788 359 
Q 2247 359 2472 579 
Q 2697 800 2697 1281 
z
" transform="scale(0.015625)"/>
       </defs>
       <use xlink:href="#LiberationSans-30" transform="translate(0 0.171875)"/>
       <use xlink:href="#LiberationSans-2e" transform="translate(55.615234 0.171875)"/>
       <use xlink:href="#LiberationSans-38" transform="translate(83.398438 0.171875)"/>
      </g>
     </g>
    </g>
    <g id="ytick_6">
     <g id="line2d_29">
      <g>
       <use xlink:href="#m5ccc23c0e1" x="75.804688" y="222.372946" style="stroke: #000000; stroke-width: 0.8"/>
      </g>
     </g>
     <g id="text_13">
      <!-- $\mathdefault{1.0}$ -->
      <g transform="translate(34.504688 232.156227) scale(0.27 -0.27)">
       <use xlink:href="#LiberationSans-31" transform="translate(0 0.171875)"/>
       <use xlink:href="#LiberationSans-2e" transform="translate(55.615234 0.171875)"/>
       <use xlink:href="#LiberationSans-30" transform="translate(83.398438 0.171875)"/>
      </g>
     </g>
    </g>
    <g id="ytick_7">
     <g id="line2d_30">
      <g>
       <use xlink:href="#m5ccc23c0e1" x="75.804688" y="145.200344" style="stroke: #000000; stroke-width: 0.8"/>
      </g>
     </g>
     <g id="text_14">
      <!-- $\mathdefault{1.2}$ -->
      <g transform="translate(34.504688 154.983626) scale(0.27 -0.27)">
       <use xlink:href="#LiberationSans-31" transform="translate(0 0.171875)"/>
       <use xlink:href="#LiberationSans-2e" transform="translate(55.615234 0.171875)"/>
       <use xlink:href="#LiberationSans-32" transform="translate(83.398438 0.171875)"/>
      </g>
     </g>
    </g>
    <g id="ytick_8">
     <g id="line2d_31">
      <g>
       <use xlink:href="#m5ccc23c0e1" x="75.804688" y="68.027743" style="stroke: #000000; stroke-width: 0.8"/>
      </g>
     </g>
     <g id="text_15">
      <!-- $\mathdefault{1.4}$ -->
      <g transform="translate(34.504688 77.811024) scale(0.27 -0.27)">
       <use xlink:href="#LiberationSans-31" transform="translate(0 0.203125)"/>
       <use xlink:href="#LiberationSans-2e" transform="translate(55.615234 0.203125)"/>
       <use xlink:href="#LiberationSans-34" transform="translate(83.398438 0.203125)"/>
      </g>
     </g>
    </g>
    <g id="ytick_9">
     <g id="line2d_32">
      <defs>
       <path id="m09d4004e74" d="M 0 0 
L 2 0 
" style="stroke: #000000; stroke-width: 0.6"/>
      </defs>
      <g>
       <use xlink:href="#m09d4004e74" x="75.804688" y="627.529105" style="stroke: #000000; stroke-width: 0.6"/>
      </g>
     </g>
    </g>
    <g id="ytick_10">
     <g id="line2d_33">
      <g>
       <use xlink:href="#m09d4004e74" x="75.804688" y="588.942804" style="stroke: #000000; stroke-width: 0.6"/>
      </g>
     </g>
    </g>
    <g id="ytick_11">
     <g id="line2d_34">
      <g>
       <use xlink:href="#m09d4004e74" x="75.804688" y="569.649654" style="stroke: #000000; stroke-width: 0.6"/>
      </g>
     </g>
    </g>
    <g id="ytick_12">
     <g id="line2d_35">
      <g>
       <use xlink:href="#m09d4004e74" x="75.804688" y="550.356503" style="stroke: #000000; stroke-width: 0.6"/>
      </g>
     </g>
    </g>
    <g id="ytick_13">
     <g id="line2d_36">
      <g>
       <use xlink:href="#m09d4004e74" x="75.804688" y="511.770202" style="stroke: #000000; stroke-width: 0.6"/>
      </g>
     </g>
    </g>
    <g id="ytick_14">
     <g id="line2d_37">
      <g>
       <use xlink:href="#m09d4004e74" x="75.804688" y="492.477052" style="stroke: #000000; stroke-width: 0.6"/>
      </g>
     </g>
    </g>
    <g id="ytick_15">
     <g id="line2d_38">
      <g>
       <use xlink:href="#m09d4004e74" x="75.804688" y="473.183902" style="stroke: #000000; stroke-width: 0.6"/>
      </g>
     </g>
    </g>
    <g id="ytick_16">
     <g id="line2d_39">
      <g>
       <use xlink:href="#m09d4004e74" x="75.804688" y="434.597601" style="stroke: #000000; stroke-width: 0.6"/>
      </g>
     </g>
    </g>
    <g id="ytick_17">
     <g id="line2d_40">
      <g>
       <use xlink:href="#m09d4004e74" x="75.804688" y="415.30445" style="stroke: #000000; stroke-width: 0.6"/>
      </g>
     </g>
    </g>
    <g id="ytick_18">
     <g id="line2d_41">
      <g>
       <use xlink:href="#m09d4004e74" x="75.804688" y="396.0113" style="stroke: #000000; stroke-width: 0.6"/>
      </g>
     </g>
    </g>
    <g id="ytick_19">
     <g id="line2d_42">
      <g>
       <use xlink:href="#m09d4004e74" x="75.804688" y="357.424999" style="stroke: #000000; stroke-width: 0.6"/>
      </g>
     </g>
    </g>
    <g id="ytick_20">
     <g id="line2d_43">
      <g>
       <use xlink:href="#m09d4004e74" x="75.804688" y="338.131849" style="stroke: #000000; stroke-width: 0.6"/>
      </g>
     </g>
    </g>
    <g id="ytick_21">
     <g id="line2d_44">
      <g>
       <use xlink:href="#m09d4004e74" x="75.804688" y="318.838698" style="stroke: #000000; stroke-width: 0.6"/>
      </g>
     </g>
    </g>
    <g id="ytick_22">
     <g id="line2d_45">
      <g>
       <use xlink:href="#m09d4004e74" x="75.804688" y="280.252397" style="stroke: #000000; stroke-width: 0.6"/>
      </g>
     </g>
    </g>
    <g id="ytick_23">
     <g id="line2d_46">
      <g>
       <use xlink:href="#m09d4004e74" x="75.804688" y="260.959247" style="stroke: #000000; stroke-width: 0.6"/>
      </g>
     </g>
    </g>
    <g id="ytick_24">
     <g id="line2d_47">
      <g>
       <use xlink:href="#m09d4004e74" x="75.804688" y="241.666096" style="stroke: #000000; stroke-width: 0.6"/>
      </g>
     </g>
    </g>
    <g id="ytick_25">
     <g id="line2d_48">
      <g>
       <use xlink:href="#m09d4004e74" x="75.804688" y="203.079796" style="stroke: #000000; stroke-width: 0.6"/>
      </g>
     </g>
    </g>
    <g id="ytick_26">
     <g id="line2d_49">
      <g>
       <use xlink:href="#m09d4004e74" x="75.804688" y="183.786645" style="stroke: #000000; stroke-width: 0.6"/>
      </g>
     </g>
    </g>
    <g id="ytick_27">
     <g id="line2d_50">
      <g>
       <use xlink:href="#m09d4004e74" x="75.804688" y="164.493495" style="stroke: #000000; stroke-width: 0.6"/>
      </g>
     </g>
    </g>
    <g id="ytick_28">
     <g id="line2d_51">
      <g>
       <use xlink:href="#m09d4004e74" x="75.804688" y="125.907194" style="stroke: #000000; stroke-width: 0.6"/>
      </g>
     </g>
    </g>
    <g id="ytick_29">
     <g id="line2d_52">
      <g>
       <use xlink:href="#m09d4004e74" x="75.804688" y="106.614043" style="stroke: #000000; stroke-width: 0.6"/>
      </g>
     </g>
    </g>
    <g id="ytick_30">
     <g id="line2d_53">
      <g>
       <use xlink:href="#m09d4004e74" x="75.804688" y="87.320893" style="stroke: #000000; stroke-width: 0.6"/>
      </g>
     </g>
    </g>
    <g id="ytick_31">
     <g id="line2d_54">
      <g>
       <use xlink:href="#m09d4004e74" x="75.804688" y="48.734592" style="stroke: #000000; stroke-width: 0.6"/>
      </g>
     </g>
    </g>
    <g id="text_16">
     <!-- Probability Density -->
     <g transform="translate(25.317188 440.772219) rotate(-90) scale(0.25 -0.25)">
      <defs>
       <path id="LiberationSans-50" d="M 3931 3078 
Q 3931 2453 3523 2084 
Q 3116 1716 2416 1716 
L 1122 1716 
L 1122 0 
L 525 0 
L 525 4403 
L 2378 4403 
Q 3119 4403 3525 4056 
Q 3931 3709 3931 3078 
z
M 3331 3072 
Q 3331 3925 2306 3925 
L 1122 3925 
L 1122 2188 
L 2331 2188 
Q 3331 2188 3331 3072 
z
" transform="scale(0.015625)"/>
       <path id="LiberationSans-72" d="M 444 0 
L 444 2594 
Q 444 2950 425 3381 
L 956 3381 
Q 981 2806 981 2691 
L 994 2691 
Q 1128 3125 1303 3284 
Q 1478 3444 1797 3444 
Q 1909 3444 2025 3413 
L 2025 2897 
Q 1913 2928 1725 2928 
Q 1375 2928 1190 2626 
Q 1006 2325 1006 1763 
L 1006 0 
L 444 0 
z
" transform="scale(0.015625)"/>
       <path id="LiberationSans-6f" d="M 3291 1694 
Q 3291 806 2900 371 
Q 2509 -63 1766 -63 
Q 1025 -63 647 389 
Q 269 841 269 1694 
Q 269 3444 1784 3444 
Q 2559 3444 2925 3017 
Q 3291 2591 3291 1694 
z
M 2700 1694 
Q 2700 2394 2492 2711 
Q 2284 3028 1794 3028 
Q 1300 3028 1079 2704 
Q 859 2381 859 1694 
Q 859 1025 1076 689 
Q 1294 353 1759 353 
Q 2266 353 2483 678 
Q 2700 1003 2700 1694 
z
" transform="scale(0.015625)"/>
       <path id="LiberationSans-62" d="M 3291 1706 
Q 3291 -63 2047 -63 
Q 1663 -63 1408 76 
Q 1153 216 994 525 
L 988 525 
Q 988 428 975 229 
Q 963 31 956 0 
L 413 0 
Q 431 169 431 697 
L 431 4638 
L 994 4638 
L 994 3316 
Q 994 3113 981 2838 
L 994 2838 
Q 1150 3163 1408 3303 
Q 1666 3444 2047 3444 
Q 2688 3444 2989 3012 
Q 3291 2581 3291 1706 
z
M 2700 1688 
Q 2700 2397 2512 2703 
Q 2325 3009 1903 3009 
Q 1428 3009 1211 2684 
Q 994 2359 994 1653 
Q 994 988 1206 670 
Q 1419 353 1897 353 
Q 2322 353 2511 667 
Q 2700 981 2700 1688 
z
" transform="scale(0.015625)"/>
       <path id="LiberationSans-69" d="M 428 4100 
L 428 4638 
L 991 4638 
L 991 4100 
L 428 4100 
z
M 428 0 
L 428 3381 
L 991 3381 
L 991 0 
L 428 0 
z
" transform="scale(0.015625)"/>
       <path id="LiberationSans-74" d="M 1731 25 
Q 1453 -50 1163 -50 
Q 488 -50 488 716 
L 488 2972 
L 97 2972 
L 97 3381 
L 509 3381 
L 675 4138 
L 1050 4138 
L 1050 3381 
L 1675 3381 
L 1675 2972 
L 1050 2972 
L 1050 838 
Q 1050 594 1129 495 
Q 1209 397 1406 397 
Q 1519 397 1731 441 
L 1731 25 
z
" transform="scale(0.015625)"/>
       <path id="LiberationSans-79" d="M 597 -1328 
Q 366 -1328 209 -1294 
L 209 -872 
Q 328 -891 472 -891 
Q 997 -891 1303 -119 
L 1356 16 
L 16 3381 
L 616 3381 
L 1328 1513 
Q 1344 1469 1366 1408 
Q 1388 1347 1506 1000 
Q 1625 653 1634 613 
L 1853 1228 
L 2594 3381 
L 3188 3381 
L 1888 0 
Q 1678 -541 1497 -805 
Q 1316 -1069 1095 -1198 
Q 875 -1328 597 -1328 
z
" transform="scale(0.015625)"/>
       <path id="LiberationSans-20" transform="scale(0.015625)"/>
       <path id="LiberationSans-44" d="M 4316 2247 
Q 4316 1566 4050 1055 
Q 3784 544 3296 272 
Q 2809 0 2172 0 
L 525 0 
L 525 4403 
L 1981 4403 
Q 3100 4403 3708 3842 
Q 4316 3281 4316 2247 
z
M 3716 2247 
Q 3716 3066 3267 3495 
Q 2819 3925 1969 3925 
L 1122 3925 
L 1122 478 
L 2103 478 
Q 2588 478 2955 690 
Q 3322 903 3519 1303 
Q 3716 1703 3716 2247 
z
" transform="scale(0.015625)"/>
       <path id="LiberationSans-6e" d="M 2578 0 
L 2578 2144 
Q 2578 2478 2512 2662 
Q 2447 2847 2303 2928 
Q 2159 3009 1881 3009 
Q 1475 3009 1240 2731 
Q 1006 2453 1006 1959 
L 1006 0 
L 444 0 
L 444 2659 
Q 444 3250 425 3381 
L 956 3381 
Q 959 3366 962 3297 
Q 966 3228 970 3139 
Q 975 3050 981 2803 
L 991 2803 
Q 1184 3153 1439 3298 
Q 1694 3444 2072 3444 
Q 2628 3444 2886 3167 
Q 3144 2891 3144 2253 
L 3144 0 
L 2578 0 
z
" transform="scale(0.015625)"/>
       <path id="LiberationSans-73" d="M 2969 934 
Q 2969 456 2608 196 
Q 2247 -63 1597 -63 
Q 966 -63 623 145 
Q 281 353 178 794 
L 675 891 
Q 747 619 972 492 
Q 1197 366 1597 366 
Q 2025 366 2223 497 
Q 2422 628 2422 891 
Q 2422 1091 2284 1216 
Q 2147 1341 1841 1422 
L 1438 1528 
Q 953 1653 748 1773 
Q 544 1894 428 2066 
Q 313 2238 313 2488 
Q 313 2950 642 3192 
Q 972 3434 1603 3434 
Q 2163 3434 2492 3237 
Q 2822 3041 2909 2606 
L 2403 2544 
Q 2356 2769 2151 2889 
Q 1947 3009 1603 3009 
Q 1222 3009 1040 2893 
Q 859 2778 859 2544 
Q 859 2400 934 2306 
Q 1009 2213 1156 2147 
Q 1303 2081 1775 1966 
Q 2222 1853 2419 1758 
Q 2616 1663 2730 1547 
Q 2844 1431 2906 1279 
Q 2969 1128 2969 934 
z
" transform="scale(0.015625)"/>
      </defs>
      <use xlink:href="#LiberationSans-50"/>
      <use xlink:href="#LiberationSans-72" x="66.699219"/>
      <use xlink:href="#LiberationSans-6f" x="100"/>
      <use xlink:href="#LiberationSans-62" x="155.615234"/>
      <use xlink:href="#LiberationSans-61" x="211.230469"/>
      <use xlink:href="#LiberationSans-62" x="266.845703"/>
      <use xlink:href="#LiberationSans-69" x="322.460938"/>
      <use xlink:href="#LiberationSans-6c" x="344.677734"/>
      <use xlink:href="#LiberationSans-69" x="366.894531"/>
      <use xlink:href="#LiberationSans-74" x="389.111328"/>
      <use xlink:href="#LiberationSans-79" x="416.894531"/>
      <use xlink:href="#LiberationSans-20" x="466.894531"/>
      <use xlink:href="#LiberationSans-44" x="494.677734"/>
      <use xlink:href="#LiberationSans-65" x="566.894531"/>
      <use xlink:href="#LiberationSans-6e" x="622.509766"/>
      <use xlink:href="#LiberationSans-73" x="678.125"/>
      <use xlink:href="#LiberationSans-69" x="728.125"/>
      <use xlink:href="#LiberationSans-74" x="750.341797"/>
      <use xlink:href="#LiberationSans-79" x="778.125"/>
     </g>
    </g>
    <g id="text_17">
     <!-- $\times\mathdefault{10^{−10}}\mathdefault{}$ -->
     <g transform="translate(75.804688 36.1875) scale(0.4 -0.4)">
      <use xlink:href="#STIXGeneral-Regular-d7" transform="translate(0 0.140625)"/>
      <use xlink:href="#LiberationSans-31" transform="translate(63.999985 0.140625)"/>
      <use xlink:href="#LiberationSans-30" transform="translate(119.615219 0.140625)"/>
      <use xlink:href="#LiberationSans-2212" transform="translate(176.154946 37.120312) scale(0.7)"/>
      <use xlink:href="#LiberationSans-31" transform="translate(217.033852 37.120312) scale(0.7)"/>
      <use xlink:href="#LiberationSans-30" transform="translate(255.964516 37.120312) scale(0.7)"/>
     </g>
    </g>
   </g>
   <g id="line2d_55">
    <path d="M 104.393888 608.235955 
L 205.229547 608.133161 
L 208.667127 608.091736 
L 214.396425 608.099407 
L 218.979864 607.93371 
L 221.271584 607.950586 
L 235.021901 607.444288 
L 237.313621 607.194208 
L 238.45948 607.237166 
L 245.334639 606.744676 
L 246.480499 606.517609 
L 247.626358 606.506869 
L 253.355657 605.520355 
L 254.501517 605.176686 
L 255.647377 605.113782 
L 260.230816 604.075103 
L 261.376676 603.539655 
L 262.522535 603.459874 
L 265.960115 602.270841 
L 267.105974 601.724652 
L 268.251834 601.575831 
L 271.689413 599.45705 
L 272.835273 599.030532 
L 273.981133 598.729821 
L 275.126993 598.019469 
L 276.272852 596.876463 
L 279.710432 594.443163 
L 282.002151 592.164821 
L 284.293871 590.64746 
L 286.58559 588.074544 
L 291.169029 582.354908 
L 293.460749 578.441069 
L 294.606609 576.564697 
L 296.898328 572.241217 
L 298.044188 570.671692 
L 300.335907 565.636326 
L 301.481767 563.832063 
L 302.627627 561.308243 
L 303.773487 557.632211 
L 304.919346 555.320116 
L 306.065206 552.300737 
L 307.211066 548.821087 
L 308.356926 544.657167 
L 310.648645 537.45239 
L 312.940365 529.868656 
L 314.086224 525.381012 
L 315.232084 521.415009 
L 317.523804 511.735507 
L 320.961383 496.161466 
L 322.107243 492.114148 
L 323.253103 485.062794 
L 324.398962 480.059647 
L 325.544822 473.347359 
L 326.690682 465.889433 
L 328.982401 453.187483 
L 330.128261 445.680461 
L 331.274121 437.381772 
L 332.419981 431.320002 
L 333.56584 423.859006 
L 335.85756 405.890021 
L 337.00342 399.381787 
L 338.149279 392.066544 
L 340.440999 374.686706 
L 341.586859 364.148031 
L 342.732718 356.881884 
L 346.170298 326.378181 
L 347.316157 319.332964 
L 353.045456 271.055124 
L 354.191316 265.427542 
L 355.337176 253.615451 
L 356.483036 244.245864 
L 357.628895 235.848985 
L 359.920615 217.372167 
L 361.066475 208.785041 
L 362.212334 199.148498 
L 364.504054 178.084956 
L 365.649914 169.847637 
L 367.941633 155.563889 
L 369.087493 148.313085 
L 370.233353 139.821082 
L 372.525072 128.127127 
L 373.670932 118.970799 
L 374.816792 113.653133 
L 375.962651 106.979202 
L 377.108511 102.031287 
L 378.254371 97.801395 
L 379.400231 92.623345 
L 381.69195 84.640709 
L 382.83781 79.479535 
L 383.98367 77.988257 
L 385.12953 75.39693 
L 386.275389 74.355183 
L 387.421249 73.087903 
L 389.712969 68.765957 
L 390.858828 70.694493 
L 392.004688 71.055039 
L 393.150548 70.686822 
L 394.296408 72.503359 
L 395.442267 76.079666 
L 396.588127 77.755053 
L 398.879847 85.693196 
L 402.317426 96.503431 
L 403.463286 100.800829 
L 404.609145 107.870594 
L 405.755005 116.015859 
L 406.900865 119.968053 
L 408.046725 126.37963 
L 409.192584 133.696407 
L 410.338444 139.97604 
L 411.484304 145.582142 
L 412.630164 153.305492 
L 414.921883 173.519067 
L 416.067743 178.338105 
L 418.359463 197.14325 
L 420.651182 215.722862 
L 421.797042 223.406321 
L 422.942902 232.214377 
L 424.088761 240.160191 
L 426.380481 261.98318 
L 427.526341 269.599133 
L 428.6722 282.841134 
L 429.81806 291.08459 
L 432.10978 310.910002 
L 433.255639 319.355978 
L 438.984938 366.756234 
L 440.130798 376.826967 
L 441.276658 383.754048 
L 442.422517 392.664897 
L 449.297676 438.104398 
L 451.589396 452.431105 
L 452.735255 458.646299 
L 455.026975 472.920842 
L 457.318694 485.6949 
L 458.464554 490.849937 
L 459.610414 496.933187 
L 460.756274 501.819732 
L 463.047993 512.686734 
L 464.193853 517.097666 
L 465.339713 522.057854 
L 466.485572 525.572792 
L 467.631432 529.871724 
L 468.777292 534.658544 
L 469.923152 537.765374 
L 473.360731 548.577143 
L 474.506591 551.461509 
L 476.79831 558.109359 
L 477.94417 559.945841 
L 479.09003 563.068013 
L 480.23589 565.703833 
L 481.381749 567.658451 
L 483.673469 573.177102 
L 484.819329 575.602731 
L 485.965188 577.273515 
L 488.256908 580.906588 
L 489.402768 582.132444 
L 490.548627 583.881474 
L 491.694487 585.082782 
L 496.277926 590.848445 
L 497.423786 591.095457 
L 498.569646 592.764707 
L 499.715505 593.490401 
L 503.153085 596.268905 
L 507.736524 599.139463 
L 510.028243 600.241045 
L 511.174103 600.834795 
L 518.049262 603.466011 
L 521.486841 604.536909 
L 522.632701 604.605949 
L 523.77856 604.911263 
L 524.92442 605.067755 
L 526.07028 605.396082 
L 537.528878 606.918045 
L 538.674737 606.947195 
L 540.966457 607.303138 
L 542.112317 607.306207 
L 544.404036 607.519466 
L 555.862634 607.892285 
L 560.446073 607.965929 
L 573.05053 608.113216 
L 582.217408 608.199133 
L 592.530146 608.220612 
L 639.510396 608.235955 
L 676.177908 608.235955 
L 676.177908 608.235955 
" clip-path="url(#p550e2b4fe2)" style="fill: none; stroke: #ff0000; stroke-opacity: 0.9; stroke-width: 2.5; stroke-linecap: square"/>
   </g>
   <g id="line2d_56">
    <path d="M 104.393888 608.235955 
L 184.604072 608.128558 
L 196.062669 608.041106 
L 197.208529 608.065654 
L 199.500249 607.976668 
L 204.083688 607.945984 
L 227.000883 607.315412 
L 230.438462 607.031579 
L 231.584322 607.008565 
L 232.730182 606.853607 
L 235.021901 606.79684 
L 238.45948 606.379528 
L 240.7512 606.153995 
L 241.89706 605.890106 
L 243.042919 605.876298 
L 247.626358 605.121453 
L 248.772218 604.868304 
L 251.063938 604.711812 
L 252.209797 604.337458 
L 256.793236 603.352478 
L 257.939096 603.051768 
L 259.084956 602.901413 
L 260.230816 602.240156 
L 264.814255 600.713591 
L 270.543554 598.372345 
L 271.689413 597.25542 
L 272.835273 596.962381 
L 273.981133 596.545069 
L 277.418712 594.291275 
L 279.710432 591.989919 
L 280.856291 591.195184 
L 282.002151 590.064452 
L 283.148011 589.484396 
L 285.43973 586.678391 
L 286.58559 585.26229 
L 288.87731 583.066797 
L 290.023169 581.003248 
L 291.169029 579.64238 
L 292.314889 577.822775 
L 294.606609 574.769643 
L 296.898328 570.610327 
L 298.044188 568.928803 
L 299.190048 567.024815 
L 300.335907 564.700446 
L 303.773487 556.277485 
L 304.919346 554.000677 
L 308.356926 545.108239 
L 309.502785 541.867931 
L 311.794505 534.753674 
L 312.940365 530.143292 
L 314.086224 526.511753 
L 317.523804 513.713148 
L 322.107243 492.703307 
L 323.253103 488.513305 
L 324.398962 482.18918 
L 325.544822 477.147678 
L 330.128261 451.001211 
L 335.85756 415.037162 
L 338.149279 398.985974 
L 341.586859 373.152492 
L 342.732718 364.592984 
L 345.024438 346.373919 
L 347.316157 329.202739 
L 349.607877 308.36013 
L 350.753737 299.377172 
L 362.212334 197.038962 
L 363.358194 188.403635 
L 366.795773 159.006761 
L 367.941633 151.34785 
L 370.233353 133.128786 
L 371.379212 125.161493 
L 372.525072 118.24055 
L 373.670932 112.057575 
L 375.962651 97.971745 
L 377.108511 92.251716 
L 378.254371 89.387689 
L 379.400231 84.668376 
L 380.54609 80.648676 
L 381.69195 77.127602 
L 382.83781 74.678959 
L 383.98367 70.919874 
L 386.275389 66.992432 
L 387.421249 66.285045 
L 388.567109 66.811341 
L 389.712969 67.142736 
L 390.858828 66.857368 
L 393.150548 72.494104 
L 395.442267 77.297902 
L 397.733987 85.719329 
L 398.879847 87.666276 
L 400.025706 94.146893 
L 401.171566 99.459955 
L 402.317426 103.519546 
L 403.463286 109.249541 
L 404.609145 115.957606 
L 405.755005 123.50912 
L 406.900865 129.67215 
L 408.046725 138.081303 
L 409.192584 143.814747 
L 411.484304 159.872071 
L 412.630164 166.185456 
L 413.776024 173.138618 
L 416.067743 190.734782 
L 417.213603 198.5603 
L 418.359463 205.274746 
L 419.505322 215.684544 
L 420.651182 223.20384 
L 421.797042 234.185908 
L 422.942902 241.746628 
L 424.088761 253.356199 
L 425.234621 259.78005 
L 426.380481 267.175072 
L 427.526341 277.066298 
L 429.81806 292.531407 
L 430.96392 302.968821 
L 432.10978 311.690958 
L 433.255639 318.479957 
L 434.401499 328.995617 
L 435.547359 336.672939 
L 436.693219 346.094688 
L 437.839078 353.492779 
L 438.984938 362.607681 
L 440.130798 369.428899 
L 441.276658 379.32933 
L 442.422517 386.997446 
L 443.568377 396.061071 
L 444.714237 403.627041 
L 445.860097 410.271822 
L 447.005957 418.763823 
L 448.151816 425.187674 
L 452.735255 454.706393 
L 455.026975 467.409876 
L 458.464554 486.597043 
L 459.610414 491.762819 
L 460.756274 497.674234 
L 461.902133 502.336781 
L 463.047993 507.689733 
L 465.339713 517.183592 
L 466.485572 520.936336 
L 468.777292 529.779678 
L 469.923152 534.370115 
L 471.069011 537.906531 
L 472.214871 542.007546 
L 473.360731 545.508675 
L 475.652451 551.78217 
L 476.79831 555.08078 
L 477.94417 557.998899 
L 479.09003 561.457069 
L 480.23589 563.377933 
L 481.381749 566.205532 
L 482.527609 568.648038 
L 483.673469 571.811634 
L 484.819329 573.447131 
L 488.256908 579.445997 
L 489.402768 580.894317 
L 490.548627 583.043783 
L 491.694487 584.616376 
L 492.840347 586.567926 
L 496.277926 590.270039 
L 497.423786 591.610861 
L 499.715505 593.662237 
L 502.007225 595.515596 
L 504.298944 597.342872 
L 507.736524 599.29749 
L 511.174103 600.917644 
L 512.319963 601.236765 
L 514.611682 602.171116 
L 515.757542 602.652866 
L 519.195121 603.565737 
L 520.340981 603.782065 
L 522.632701 604.487814 
L 524.92442 604.875976 
L 526.07028 605.13833 
L 527.21614 605.236521 
L 529.507859 605.676847 
L 534.091298 606.180077 
L 536.383018 606.522212 
L 537.528878 606.523746 
L 538.674737 606.674101 
L 539.820597 606.70632 
L 540.966457 606.861278 
L 542.112317 606.85821 
L 544.404036 607.125167 
L 547.841615 607.240235 
L 551.279195 607.464233 
L 558.154353 607.694369 
L 559.300213 607.807902 
L 568.467091 607.856998 
L 570.758811 607.947518 
L 577.633969 608.038038 
L 591.384286 608.134695 
L 597.113585 608.150037 
L 602.842884 608.174585 
L 610.863902 608.189927 
L 638.364536 608.231352 
L 676.177908 608.232886 
L 676.177908 608.232886 
" clip-path="url(#p550e2b4fe2)" style="fill: none; stroke: #0000ff; stroke-opacity: 0.9; stroke-width: 2.5; stroke-linecap: square"/>
   </g>
   <g id="patch_3">
    <path d="M 75.804688 635.3335 
L 75.804688 39.1875 
" style="fill: none; stroke: #000000; stroke-width: 0.8; stroke-linejoin: miter; stroke-linecap: square"/>
   </g>
   <g id="patch_4">
    <path d="M 704.767109 635.3335 
L 704.767109 39.1875 
" style="fill: none; stroke: #000000; stroke-width: 0.8; stroke-linejoin: miter; stroke-linecap: square"/>
   </g>
   <g id="patch_5">
    <path d="M 75.804688 635.3335 
L 704.767109 635.3335 
" style="fill: none; stroke: #000000; stroke-width: 0.8; stroke-linejoin: miter; stroke-linecap: square"/>
   </g>
   <g id="patch_6">
    <path d="M 75.804688 39.1875 
L 704.767109 39.1875 
" style="fill: none; stroke: #000000; stroke-width: 0.8; stroke-linejoin: miter; stroke-linecap: square"/>
   </g>
   <g id="legend_1">
    <g id="patch_7">
     <path d="M 96.804688 149.11875 
L 356.196875 149.11875 
Q 362.196875 149.11875 362.196875 143.11875 
L 362.196875 60.1875 
Q 362.196875 54.1875 356.196875 54.1875 
L 96.804688 54.1875 
Q 90.804688 54.1875 90.804688 60.1875 
L 90.804688 143.11875 
Q 90.804688 149.11875 96.804688 149.11875 
z
" style="fill: #ffffff; opacity: 0.8; stroke: #000000; stroke-linejoin: miter"/>
    </g>
    <g id="line2d_57">
     <path d="M 102.804688 77.428125 
L 132.804688 77.428125 
L 162.804688 77.428125 
" style="fill: none; stroke: #ff0000; stroke-opacity: 0.9; stroke-width: 2.5; stroke-linecap: square"/>
    </g>
    <g id="text_18">
     <!-- correct_disp -->
     <g transform="translate(186.804688 87.928125) scale(0.3 -0.3)">
      <defs>
       <path id="LiberationSans-63" d="M 859 1706 
Q 859 1031 1071 706 
Q 1284 381 1713 381 
Q 2013 381 2214 543 
Q 2416 706 2463 1044 
L 3031 1006 
Q 2966 519 2616 228 
Q 2266 -63 1728 -63 
Q 1019 -63 645 385 
Q 272 834 272 1694 
Q 272 2547 647 2995 
Q 1022 3444 1722 3444 
Q 2241 3444 2583 3175 
Q 2925 2906 3013 2434 
L 2434 2391 
Q 2391 2672 2212 2837 
Q 2034 3003 1706 3003 
Q 1259 3003 1059 2706 
Q 859 2409 859 1706 
z
" transform="scale(0.015625)"/>
       <path id="LiberationSans-5f" d="M -97 -1272 
L -97 -866 
L 3631 -866 
L 3631 -1272 
L -97 -1272 
z
" transform="scale(0.015625)"/>
       <path id="LiberationSans-64" d="M 2566 544 
Q 2409 219 2151 78 
Q 1894 -63 1513 -63 
Q 872 -63 570 368 
Q 269 800 269 1675 
Q 269 3444 1513 3444 
Q 1897 3444 2153 3303 
Q 2409 3163 2566 2856 
L 2572 2856 
L 2566 3234 
L 2566 4638 
L 3128 4638 
L 3128 697 
Q 3128 169 3147 0 
L 2609 0 
Q 2600 50 2589 231 
Q 2578 413 2578 544 
L 2566 544 
z
M 859 1694 
Q 859 984 1046 678 
Q 1234 372 1656 372 
Q 2134 372 2350 703 
Q 2566 1034 2566 1731 
Q 2566 2403 2350 2715 
Q 2134 3028 1663 3028 
Q 1238 3028 1048 2714 
Q 859 2400 859 1694 
z
" transform="scale(0.015625)"/>
       <path id="LiberationSans-70" d="M 3291 1706 
Q 3291 -63 2047 -63 
Q 1266 -63 997 525 
L 981 525 
Q 994 500 994 -6 
L 994 -1328 
L 431 -1328 
L 431 2691 
Q 431 3213 413 3381 
L 956 3381 
Q 959 3369 965 3292 
Q 972 3216 980 3056 
Q 988 2897 988 2838 
L 1000 2838 
Q 1150 3150 1397 3295 
Q 1644 3441 2047 3441 
Q 2672 3441 2981 3022 
Q 3291 2603 3291 1706 
z
M 2700 1694 
Q 2700 2400 2509 2703 
Q 2319 3006 1903 3006 
Q 1569 3006 1380 2865 
Q 1191 2725 1092 2426 
Q 994 2128 994 1650 
Q 994 984 1206 668 
Q 1419 353 1897 353 
Q 2316 353 2508 661 
Q 2700 969 2700 1694 
z
" transform="scale(0.015625)"/>
      </defs>
      <use xlink:href="#LiberationSans-63"/>
      <use xlink:href="#LiberationSans-6f" x="50"/>
      <use xlink:href="#LiberationSans-72" x="105.615234"/>
      <use xlink:href="#LiberationSans-72" x="138.916016"/>
      <use xlink:href="#LiberationSans-65" x="172.216797"/>
      <use xlink:href="#LiberationSans-63" x="227.832031"/>
      <use xlink:href="#LiberationSans-74" x="277.832031"/>
      <use xlink:href="#LiberationSans-5f" x="305.615234"/>
      <use xlink:href="#LiberationSans-64" x="361.230469"/>
      <use xlink:href="#LiberationSans-69" x="416.845703"/>
      <use xlink:href="#LiberationSans-73" x="439.0625"/>
      <use xlink:href="#LiberationSans-70" x="489.0625"/>
     </g>
    </g>
    <g id="line2d_58">
     <path d="M 102.804688 120.39375 
L 132.804688 120.39375 
L 162.804688 120.39375 
" style="fill: none; stroke: #0000ff; stroke-opacity: 0.9; stroke-width: 2.5; stroke-linecap: square"/>
    </g>
    <g id="text_19">
     <!-- orbits -->
     <g transform="translate(186.804688 130.89375) scale(0.3 -0.3)">
      <use xlink:href="#LiberationSans-6f"/>
      <use xlink:href="#LiberationSans-72" x="55.615234"/>
      <use xlink:href="#LiberationSans-62" x="88.916016"/>
      <use xlink:href="#LiberationSans-69" x="144.53125"/>
      <use xlink:href="#LiberationSans-74" x="166.748047"/>
      <use xlink:href="#LiberationSans-73" x="194.53125"/>
     </g>
    </g>
   </g>
  </g>
 </g>
 <defs>
  <clipPath id="p550e2b4fe2">
   <rect x="75.804688" y="39.1875" width="628.962422" height="596.146"/>
  </clipPath>
 </defs>
</svg>
