<?xml version="1.0" encoding="utf-8" standalone="no"?>
<!DOCTYPE svg PUBLIC "-//W3C//DTD SVG 1.1//EN"
  "http://www.w3.org/Graphics/SVG/1.1/DTD/svg11.dtd">
<svg xmlns:xlink="http://www.w3.org/1999/xlink" width="710.741988pt" height="711.02175pt" viewBox="0 0 710.741988 711.02175" xmlns="http://www.w3.org/2000/svg" version="1.1">
 <metadata>
  <rdf:RDF xmlns:dc="http://purl.org/dc/elements/1.1/" xmlns:cc="http://creativecommons.org/ns#" xmlns:rdf="http://www.w3.org/1999/02/22-rdf-syntax-ns#">
   <cc:Work>
    <dc:type rdf:resource="http://purl.org/dc/dcmitype/StillImage"/>
    <dc:date>2025-02-02T16:49:59.739171</dc:date>
    <dc:format>image/svg+xml</dc:format>
    <dc:creator>
     <cc:Agent>
      <dc:title>Matplotlib v3.9.3, https://matplotlib.org/</dc:title>
     </cc:Agent>
    </dc:creator>
   </cc:Work>
  </rdf:RDF>
 </metadata>
 <defs>
  <style type="text/css">*{stroke-linejoin: round; stroke-linecap: butt}</style>
 </defs>
 <g id="figure_1">
  <g id="patch_1">
   <path d="M 0 711.02175 
L 710.741988 711.02175 
L 710.741988 0 
L 0 0 
z
" style="fill: #ffffff"/>
  </g>
  <g id="axes_1">
   <g id="patch_2">
    <path d="M 79.5 640.3905 
L 703.541988 640.3905 
L 703.541988 39.1875 
L 79.5 39.1875 
z
" style="fill: #ffffff"/>
   </g>
   <g id="matplotlib.axis_1">
    <g id="xtick_1">
     <g id="line2d_1">
      <defs>
       <path id="m62db316186" d="M 0 0 
L 0 -3.5 
" style="stroke: #000000; stroke-width: 0.8"/>
      </defs>
      <g>
       <use xlink:href="#m62db316186" x="107.808808" y="640.3905" style="stroke: #000000; stroke-width: 0.8"/>
      </g>
     </g>
     <g id="text_1">
      <!-- 0 -->
      <g transform="translate(99.467402 665.631125) scale(0.3 -0.3)">
       <defs>
        <path id="LiberationSans-30" d="M 3309 2203 
Q 3309 1100 2920 518 
Q 2531 -63 1772 -63 
Q 1013 -63 631 515 
Q 250 1094 250 2203 
Q 250 3338 620 3903 
Q 991 4469 1791 4469 
Q 2569 4469 2939 3897 
Q 3309 3325 3309 2203 
z
M 2738 2203 
Q 2738 3156 2517 3584 
Q 2297 4013 1791 4013 
Q 1272 4013 1045 3591 
Q 819 3169 819 2203 
Q 819 1266 1048 831 
Q 1278 397 1778 397 
Q 2275 397 2506 840 
Q 2738 1284 2738 2203 
z
" transform="scale(0.015625)"/>
       </defs>
       <use xlink:href="#LiberationSans-30"/>
      </g>
     </g>
    </g>
    <g id="xtick_2">
     <g id="line2d_2">
      <g>
       <use xlink:href="#m62db316186" x="221.282335" y="640.3905" style="stroke: #000000; stroke-width: 0.8"/>
      </g>
     </g>
     <g id="text_2">
      <!-- 2 -->
      <g transform="translate(212.940929 665.631125) scale(0.3 -0.3)">
       <defs>
        <path id="LiberationSans-32" d="M 322 0 
L 322 397 
Q 481 763 711 1042 
Q 941 1322 1194 1548 
Q 1447 1775 1695 1969 
Q 1944 2163 2144 2356 
Q 2344 2550 2467 2762 
Q 2591 2975 2591 3244 
Q 2591 3606 2378 3806 
Q 2166 4006 1788 4006 
Q 1428 4006 1195 3811 
Q 963 3616 922 3263 
L 347 3316 
Q 409 3844 795 4156 
Q 1181 4469 1788 4469 
Q 2453 4469 2811 4155 
Q 3169 3841 3169 3263 
Q 3169 3006 3051 2753 
Q 2934 2500 2703 2247 
Q 2472 1994 1819 1463 
Q 1459 1169 1246 933 
Q 1034 697 941 478 
L 3238 478 
L 3238 0 
L 322 0 
z
" transform="scale(0.015625)"/>
       </defs>
       <use xlink:href="#LiberationSans-32"/>
      </g>
     </g>
    </g>
    <g id="xtick_3">
     <g id="line2d_3">
      <g>
       <use xlink:href="#m62db316186" x="334.755862" y="640.3905" style="stroke: #000000; stroke-width: 0.8"/>
      </g>
     </g>
     <g id="text_3">
      <!-- 4 -->
      <g transform="translate(326.414456 665.631125) scale(0.3 -0.3)">
       <defs>
        <path id="LiberationSans-34" d="M 2753 997 
L 2753 0 
L 2222 0 
L 2222 997 
L 147 997 
L 147 1434 
L 2163 4403 
L 2753 4403 
L 2753 1441 
L 3372 1441 
L 3372 997 
L 2753 997 
z
M 2222 3769 
Q 2216 3750 2134 3603 
Q 2053 3456 2013 3397 
L 884 1734 
L 716 1503 
L 666 1441 
L 2222 1441 
L 2222 3769 
z
" transform="scale(0.015625)"/>
       </defs>
       <use xlink:href="#LiberationSans-34"/>
      </g>
     </g>
    </g>
    <g id="xtick_4">
     <g id="line2d_4">
      <g>
       <use xlink:href="#m62db316186" x="448.229389" y="640.3905" style="stroke: #000000; stroke-width: 0.8"/>
      </g>
     </g>
     <g id="text_4">
      <!-- 6 -->
      <g transform="translate(439.887983 665.631125) scale(0.3 -0.3)">
       <defs>
        <path id="LiberationSans-36" d="M 3278 1441 
Q 3278 744 2900 340 
Q 2522 -63 1856 -63 
Q 1113 -63 719 490 
Q 325 1044 325 2100 
Q 325 3244 734 3856 
Q 1144 4469 1900 4469 
Q 2897 4469 3156 3572 
L 2619 3475 
Q 2453 4013 1894 4013 
Q 1413 4013 1148 3564 
Q 884 3116 884 2266 
Q 1038 2550 1316 2698 
Q 1594 2847 1953 2847 
Q 2563 2847 2920 2465 
Q 3278 2084 3278 1441 
z
M 2706 1416 
Q 2706 1894 2472 2153 
Q 2238 2413 1819 2413 
Q 1425 2413 1183 2183 
Q 941 1953 941 1550 
Q 941 1041 1192 716 
Q 1444 391 1838 391 
Q 2244 391 2475 664 
Q 2706 938 2706 1416 
z
" transform="scale(0.015625)"/>
       </defs>
       <use xlink:href="#LiberationSans-36"/>
      </g>
     </g>
    </g>
    <g id="xtick_5">
     <g id="line2d_5">
      <g>
       <use xlink:href="#m62db316186" x="561.702916" y="640.3905" style="stroke: #000000; stroke-width: 0.8"/>
      </g>
     </g>
     <g id="text_5">
      <!-- 8 -->
      <g transform="translate(553.36151 665.631125) scale(0.3 -0.3)">
       <defs>
        <path id="LiberationSans-38" d="M 3281 1228 
Q 3281 619 2893 278 
Q 2506 -63 1781 -63 
Q 1075 -63 676 271 
Q 278 606 278 1222 
Q 278 1653 525 1947 
Q 772 2241 1156 2303 
L 1156 2316 
Q 797 2400 589 2681 
Q 381 2963 381 3341 
Q 381 3844 757 4156 
Q 1134 4469 1769 4469 
Q 2419 4469 2795 4162 
Q 3172 3856 3172 3334 
Q 3172 2956 2962 2675 
Q 2753 2394 2391 2322 
L 2391 2309 
Q 2813 2241 3047 1952 
Q 3281 1663 3281 1228 
z
M 2588 3303 
Q 2588 4050 1769 4050 
Q 1372 4050 1164 3862 
Q 956 3675 956 3303 
Q 956 2925 1170 2726 
Q 1384 2528 1775 2528 
Q 2172 2528 2380 2711 
Q 2588 2894 2588 3303 
z
M 2697 1281 
Q 2697 1691 2453 1898 
Q 2209 2106 1769 2106 
Q 1341 2106 1100 1882 
Q 859 1659 859 1269 
Q 859 359 1788 359 
Q 2247 359 2472 579 
Q 2697 800 2697 1281 
z
" transform="scale(0.015625)"/>
       </defs>
       <use xlink:href="#LiberationSans-38"/>
      </g>
     </g>
    </g>
    <g id="xtick_6">
     <g id="line2d_6">
      <g>
       <use xlink:href="#m62db316186" x="675.176443" y="640.3905" style="stroke: #000000; stroke-width: 0.8"/>
      </g>
     </g>
     <g id="text_6">
      <!-- 10 -->
      <g transform="translate(658.493631 665.631125) scale(0.3 -0.3)">
       <defs>
        <path id="LiberationSans-31" d="M 488 0 
L 488 478 
L 1609 478 
L 1609 3866 
L 616 3156 
L 616 3688 
L 1656 4403 
L 2175 4403 
L 2175 478 
L 3247 478 
L 3247 0 
L 488 0 
z
" transform="scale(0.015625)"/>
       </defs>
       <use xlink:href="#LiberationSans-31"/>
       <use xlink:href="#LiberationSans-30" x="55.615234"/>
      </g>
     </g>
    </g>
    <g id="xtick_7">
     <g id="line2d_7">
      <defs>
       <path id="mda824b5f59" d="M 0 0 
L 0 -2 
" style="stroke: #000000; stroke-width: 0.6"/>
      </defs>
      <g>
       <use xlink:href="#mda824b5f59" x="136.17719" y="640.3905" style="stroke: #000000; stroke-width: 0.6"/>
      </g>
     </g>
    </g>
    <g id="xtick_8">
     <g id="line2d_8">
      <g>
       <use xlink:href="#mda824b5f59" x="164.545572" y="640.3905" style="stroke: #000000; stroke-width: 0.6"/>
      </g>
     </g>
    </g>
    <g id="xtick_9">
     <g id="line2d_9">
      <g>
       <use xlink:href="#mda824b5f59" x="192.913953" y="640.3905" style="stroke: #000000; stroke-width: 0.6"/>
      </g>
     </g>
    </g>
    <g id="xtick_10">
     <g id="line2d_10">
      <g>
       <use xlink:href="#mda824b5f59" x="249.650717" y="640.3905" style="stroke: #000000; stroke-width: 0.6"/>
      </g>
     </g>
    </g>
    <g id="xtick_11">
     <g id="line2d_11">
      <g>
       <use xlink:href="#mda824b5f59" x="278.019099" y="640.3905" style="stroke: #000000; stroke-width: 0.6"/>
      </g>
     </g>
    </g>
    <g id="xtick_12">
     <g id="line2d_12">
      <g>
       <use xlink:href="#mda824b5f59" x="306.38748" y="640.3905" style="stroke: #000000; stroke-width: 0.6"/>
      </g>
     </g>
    </g>
    <g id="xtick_13">
     <g id="line2d_13">
      <g>
       <use xlink:href="#mda824b5f59" x="363.124244" y="640.3905" style="stroke: #000000; stroke-width: 0.6"/>
      </g>
     </g>
    </g>
    <g id="xtick_14">
     <g id="line2d_14">
      <g>
       <use xlink:href="#mda824b5f59" x="391.492626" y="640.3905" style="stroke: #000000; stroke-width: 0.6"/>
      </g>
     </g>
    </g>
    <g id="xtick_15">
     <g id="line2d_15">
      <g>
       <use xlink:href="#mda824b5f59" x="419.861008" y="640.3905" style="stroke: #000000; stroke-width: 0.6"/>
      </g>
     </g>
    </g>
    <g id="xtick_16">
     <g id="line2d_16">
      <g>
       <use xlink:href="#mda824b5f59" x="476.597771" y="640.3905" style="stroke: #000000; stroke-width: 0.6"/>
      </g>
     </g>
    </g>
    <g id="xtick_17">
     <g id="line2d_17">
      <g>
       <use xlink:href="#mda824b5f59" x="504.966153" y="640.3905" style="stroke: #000000; stroke-width: 0.6"/>
      </g>
     </g>
    </g>
    <g id="xtick_18">
     <g id="line2d_18">
      <g>
       <use xlink:href="#mda824b5f59" x="533.334535" y="640.3905" style="stroke: #000000; stroke-width: 0.6"/>
      </g>
     </g>
    </g>
    <g id="xtick_19">
     <g id="line2d_19">
      <g>
       <use xlink:href="#mda824b5f59" x="590.071298" y="640.3905" style="stroke: #000000; stroke-width: 0.6"/>
      </g>
     </g>
    </g>
    <g id="xtick_20">
     <g id="line2d_20">
      <g>
       <use xlink:href="#mda824b5f59" x="618.43968" y="640.3905" style="stroke: #000000; stroke-width: 0.6"/>
      </g>
     </g>
    </g>
    <g id="xtick_21">
     <g id="line2d_21">
      <g>
       <use xlink:href="#mda824b5f59" x="646.808062" y="640.3905" style="stroke: #000000; stroke-width: 0.6"/>
      </g>
     </g>
    </g>
    <g id="text_7">
     <!-- Time ps -->
     <g transform="translate(338.744432 697.59675) scale(0.3 -0.3)">
      <defs>
       <path id="LiberationSans-54" d="M 2250 3916 
L 2250 0 
L 1656 0 
L 1656 3916 
L 144 3916 
L 144 4403 
L 3763 4403 
L 3763 3916 
L 2250 3916 
z
" transform="scale(0.015625)"/>
       <path id="LiberationSans-69" d="M 428 4100 
L 428 4638 
L 991 4638 
L 991 4100 
L 428 4100 
z
M 428 0 
L 428 3381 
L 991 3381 
L 991 0 
L 428 0 
z
" transform="scale(0.015625)"/>
       <path id="LiberationSans-6d" d="M 2400 0 
L 2400 2144 
Q 2400 2634 2265 2821 
Q 2131 3009 1781 3009 
Q 1422 3009 1212 2734 
Q 1003 2459 1003 1959 
L 1003 0 
L 444 0 
L 444 2659 
Q 444 3250 425 3381 
L 956 3381 
Q 959 3366 962 3297 
Q 966 3228 970 3139 
Q 975 3050 981 2803 
L 991 2803 
Q 1172 3163 1406 3303 
Q 1641 3444 1978 3444 
Q 2363 3444 2586 3291 
Q 2809 3138 2897 2803 
L 2906 2803 
Q 3081 3144 3329 3294 
Q 3578 3444 3931 3444 
Q 4444 3444 4676 3166 
Q 4909 2888 4909 2253 
L 4909 0 
L 4353 0 
L 4353 2144 
Q 4353 2634 4218 2821 
Q 4084 3009 3734 3009 
Q 3366 3009 3161 2736 
Q 2956 2463 2956 1959 
L 2956 0 
L 2400 0 
z
" transform="scale(0.015625)"/>
       <path id="LiberationSans-65" d="M 863 1572 
Q 863 991 1103 675 
Q 1344 359 1806 359 
Q 2172 359 2392 506 
Q 2613 653 2691 878 
L 3184 738 
Q 2881 -63 1806 -63 
Q 1056 -63 664 384 
Q 272 831 272 1713 
Q 272 2550 664 2997 
Q 1056 3444 1784 3444 
Q 3275 3444 3275 1647 
L 3275 1572 
L 863 1572 
z
M 2694 2003 
Q 2647 2538 2422 2783 
Q 2197 3028 1775 3028 
Q 1366 3028 1127 2754 
Q 888 2481 869 2003 
L 2694 2003 
z
" transform="scale(0.015625)"/>
       <path id="LiberationSans-20" transform="scale(0.015625)"/>
       <path id="LiberationSans-70" d="M 3291 1706 
Q 3291 -63 2047 -63 
Q 1266 -63 997 525 
L 981 525 
Q 994 500 994 -6 
L 994 -1328 
L 431 -1328 
L 431 2691 
Q 431 3213 413 3381 
L 956 3381 
Q 959 3369 965 3292 
Q 972 3216 980 3056 
Q 988 2897 988 2838 
L 1000 2838 
Q 1150 3150 1397 3295 
Q 1644 3441 2047 3441 
Q 2672 3441 2981 3022 
Q 3291 2603 3291 1706 
z
M 2700 1694 
Q 2700 2400 2509 2703 
Q 2319 3006 1903 3006 
Q 1569 3006 1380 2865 
Q 1191 2725 1092 2426 
Q 994 2128 994 1650 
Q 994 984 1206 668 
Q 1419 353 1897 353 
Q 2316 353 2508 661 
Q 2700 969 2700 1694 
z
" transform="scale(0.015625)"/>
       <path id="LiberationSans-73" d="M 2969 934 
Q 2969 456 2608 196 
Q 2247 -63 1597 -63 
Q 966 -63 623 145 
Q 281 353 178 794 
L 675 891 
Q 747 619 972 492 
Q 1197 366 1597 366 
Q 2025 366 2223 497 
Q 2422 628 2422 891 
Q 2422 1091 2284 1216 
Q 2147 1341 1841 1422 
L 1438 1528 
Q 953 1653 748 1773 
Q 544 1894 428 2066 
Q 313 2238 313 2488 
Q 313 2950 642 3192 
Q 972 3434 1603 3434 
Q 2163 3434 2492 3237 
Q 2822 3041 2909 2606 
L 2403 2544 
Q 2356 2769 2151 2889 
Q 1947 3009 1603 3009 
Q 1222 3009 1040 2893 
Q 859 2778 859 2544 
Q 859 2400 934 2306 
Q 1009 2213 1156 2147 
Q 1303 2081 1775 1966 
Q 2222 1853 2419 1758 
Q 2616 1663 2730 1547 
Q 2844 1431 2906 1279 
Q 2969 1128 2969 934 
z
" transform="scale(0.015625)"/>
      </defs>
      <use xlink:href="#LiberationSans-54"/>
      <use xlink:href="#LiberationSans-69" x="57.333984"/>
      <use xlink:href="#LiberationSans-6d" x="79.550781"/>
      <use xlink:href="#LiberationSans-65" x="162.851562"/>
      <use xlink:href="#LiberationSans-20" x="218.466797"/>
      <use xlink:href="#LiberationSans-70" x="246.25"/>
      <use xlink:href="#LiberationSans-73" x="301.865234"/>
     </g>
    </g>
   </g>
   <g id="matplotlib.axis_2">
    <g id="ytick_1">
     <g id="line2d_22">
      <defs>
       <path id="mc838212e76" d="M 0 0 
L 3.5 0 
" style="stroke: #000000; stroke-width: 0.8"/>
      </defs>
      <g>
       <use xlink:href="#mc838212e76" x="79.5" y="597.997081" style="stroke: #000000; stroke-width: 0.8"/>
      </g>
     </g>
     <g id="text_8">
      <!-- $\mathdefault{−2}$ -->
      <g transform="translate(41.5 608.867394) scale(0.3 -0.3)">
       <defs>
        <path id="LiberationSans-2212" d="M 316 1900 
L 316 2356 
L 3425 2356 
L 3425 1900 
L 316 1900 
z
" transform="scale(0.015625)"/>
       </defs>
       <use xlink:href="#LiberationSans-2212" transform="translate(0 0.171875)"/>
       <use xlink:href="#LiberationSans-32" transform="translate(58.398438 0.171875)"/>
      </g>
     </g>
    </g>
    <g id="ytick_2">
     <g id="line2d_23">
      <g>
       <use xlink:href="#mc838212e76" x="79.5" y="500.31256" style="stroke: #000000; stroke-width: 0.8"/>
      </g>
     </g>
     <g id="text_9">
      <!-- $\mathdefault{0}$ -->
      <g transform="translate(59.2 511.182872) scale(0.3 -0.3)">
       <use xlink:href="#LiberationSans-30" transform="translate(0 0.171875)"/>
      </g>
     </g>
    </g>
    <g id="ytick_3">
     <g id="line2d_24">
      <g>
       <use xlink:href="#mc838212e76" x="79.5" y="402.628038" style="stroke: #000000; stroke-width: 0.8"/>
      </g>
     </g>
     <g id="text_10">
      <!-- $\mathdefault{2}$ -->
      <g transform="translate(59.2 413.498351) scale(0.3 -0.3)">
       <use xlink:href="#LiberationSans-32" transform="translate(0 0.171875)"/>
      </g>
     </g>
    </g>
    <g id="ytick_4">
     <g id="line2d_25">
      <g>
       <use xlink:href="#mc838212e76" x="79.5" y="304.943516" style="stroke: #000000; stroke-width: 0.8"/>
      </g>
     </g>
     <g id="text_11">
      <!-- $\mathdefault{4}$ -->
      <g transform="translate(59.2 315.813829) scale(0.3 -0.3)">
       <use xlink:href="#LiberationSans-34" transform="translate(0 0.203125)"/>
      </g>
     </g>
    </g>
    <g id="ytick_5">
     <g id="line2d_26">
      <g>
       <use xlink:href="#mc838212e76" x="79.5" y="207.258995" style="stroke: #000000; stroke-width: 0.8"/>
      </g>
     </g>
     <g id="text_12">
      <!-- $\mathdefault{6}$ -->
      <g transform="translate(59.2 218.129307) scale(0.3 -0.3)">
       <use xlink:href="#LiberationSans-36" transform="translate(0 0.171875)"/>
      </g>
     </g>
    </g>
    <g id="ytick_6">
     <g id="line2d_27">
      <g>
       <use xlink:href="#mc838212e76" x="79.5" y="109.574473" style="stroke: #000000; stroke-width: 0.8"/>
      </g>
     </g>
     <g id="text_13">
      <!-- $\mathdefault{8}$ -->
      <g transform="translate(59.2 120.444786) scale(0.3 -0.3)">
       <use xlink:href="#LiberationSans-38" transform="translate(0 0.171875)"/>
      </g>
     </g>
    </g>
    <g id="ytick_7">
     <g id="line2d_28">
      <defs>
       <path id="mc2350f8c48" d="M 0 0 
L 2 0 
" style="stroke: #000000; stroke-width: 0.6"/>
      </defs>
      <g>
       <use xlink:href="#mc2350f8c48" x="79.5" y="622.418212" style="stroke: #000000; stroke-width: 0.6"/>
      </g>
     </g>
    </g>
    <g id="ytick_8">
     <g id="line2d_29">
      <g>
       <use xlink:href="#mc2350f8c48" x="79.5" y="573.575951" style="stroke: #000000; stroke-width: 0.6"/>
      </g>
     </g>
    </g>
    <g id="ytick_9">
     <g id="line2d_30">
      <g>
       <use xlink:href="#mc2350f8c48" x="79.5" y="549.15482" style="stroke: #000000; stroke-width: 0.6"/>
      </g>
     </g>
    </g>
    <g id="ytick_10">
     <g id="line2d_31">
      <g>
       <use xlink:href="#mc2350f8c48" x="79.5" y="524.73369" style="stroke: #000000; stroke-width: 0.6"/>
      </g>
     </g>
    </g>
    <g id="ytick_11">
     <g id="line2d_32">
      <g>
       <use xlink:href="#mc2350f8c48" x="79.5" y="475.891429" style="stroke: #000000; stroke-width: 0.6"/>
      </g>
     </g>
    </g>
    <g id="ytick_12">
     <g id="line2d_33">
      <g>
       <use xlink:href="#mc2350f8c48" x="79.5" y="451.470299" style="stroke: #000000; stroke-width: 0.6"/>
      </g>
     </g>
    </g>
    <g id="ytick_13">
     <g id="line2d_34">
      <g>
       <use xlink:href="#mc2350f8c48" x="79.5" y="427.049168" style="stroke: #000000; stroke-width: 0.6"/>
      </g>
     </g>
    </g>
    <g id="ytick_14">
     <g id="line2d_35">
      <g>
       <use xlink:href="#mc2350f8c48" x="79.5" y="378.206908" style="stroke: #000000; stroke-width: 0.6"/>
      </g>
     </g>
    </g>
    <g id="ytick_15">
     <g id="line2d_36">
      <g>
       <use xlink:href="#mc2350f8c48" x="79.5" y="353.785777" style="stroke: #000000; stroke-width: 0.6"/>
      </g>
     </g>
    </g>
    <g id="ytick_16">
     <g id="line2d_37">
      <g>
       <use xlink:href="#mc2350f8c48" x="79.5" y="329.364647" style="stroke: #000000; stroke-width: 0.6"/>
      </g>
     </g>
    </g>
    <g id="ytick_17">
     <g id="line2d_38">
      <g>
       <use xlink:href="#mc2350f8c48" x="79.5" y="280.522386" style="stroke: #000000; stroke-width: 0.6"/>
      </g>
     </g>
    </g>
    <g id="ytick_18">
     <g id="line2d_39">
      <g>
       <use xlink:href="#mc2350f8c48" x="79.5" y="256.101256" style="stroke: #000000; stroke-width: 0.6"/>
      </g>
     </g>
    </g>
    <g id="ytick_19">
     <g id="line2d_40">
      <g>
       <use xlink:href="#mc2350f8c48" x="79.5" y="231.680125" style="stroke: #000000; stroke-width: 0.6"/>
      </g>
     </g>
    </g>
    <g id="ytick_20">
     <g id="line2d_41">
      <g>
       <use xlink:href="#mc2350f8c48" x="79.5" y="182.837865" style="stroke: #000000; stroke-width: 0.6"/>
      </g>
     </g>
    </g>
    <g id="ytick_21">
     <g id="line2d_42">
      <g>
       <use xlink:href="#mc2350f8c48" x="79.5" y="158.416734" style="stroke: #000000; stroke-width: 0.6"/>
      </g>
     </g>
    </g>
    <g id="ytick_22">
     <g id="line2d_43">
      <g>
       <use xlink:href="#mc2350f8c48" x="79.5" y="133.995604" style="stroke: #000000; stroke-width: 0.6"/>
      </g>
     </g>
    </g>
    <g id="ytick_23">
     <g id="line2d_44">
      <g>
       <use xlink:href="#mc2350f8c48" x="79.5" y="85.153343" style="stroke: #000000; stroke-width: 0.6"/>
      </g>
     </g>
    </g>
    <g id="ytick_24">
     <g id="line2d_45">
      <g>
       <use xlink:href="#mc2350f8c48" x="79.5" y="60.732213" style="stroke: #000000; stroke-width: 0.6"/>
      </g>
     </g>
    </g>
    <g id="text_14">
     <!-- HFACF $(\mathrm{W} / \mathrm{m}^2)^2$ -->
     <g transform="translate(31.275 446.289) rotate(-90) scale(0.3 -0.3)">
      <defs>
       <path id="LiberationSans-48" d="M 3503 0 
L 3503 2041 
L 1122 2041 
L 1122 0 
L 525 0 
L 525 4403 
L 1122 4403 
L 1122 2541 
L 3503 2541 
L 3503 4403 
L 4100 4403 
L 4100 0 
L 3503 0 
z
" transform="scale(0.015625)"/>
       <path id="LiberationSans-46" d="M 1122 3916 
L 1122 2278 
L 3578 2278 
L 3578 1784 
L 1122 1784 
L 1122 0 
L 525 0 
L 525 4403 
L 3653 4403 
L 3653 3916 
L 1122 3916 
z
" transform="scale(0.015625)"/>
       <path id="LiberationSans-41" d="M 3647 0 
L 3144 1288 
L 1138 1288 
L 631 0 
L 13 0 
L 1809 4403 
L 2488 4403 
L 4256 0 
L 3647 0 
z
M 2141 3953 
L 2113 3866 
Q 2034 3606 1881 3200 
L 1319 1753 
L 2966 1753 
L 2400 3206 
Q 2313 3422 2225 3694 
L 2141 3953 
z
" transform="scale(0.015625)"/>
       <path id="LiberationSans-43" d="M 2475 3981 
Q 1744 3981 1337 3511 
Q 931 3041 931 2222 
Q 931 1413 1354 920 
Q 1778 428 2500 428 
Q 3425 428 3891 1344 
L 4378 1100 
Q 4106 531 3614 234 
Q 3122 -63 2472 -63 
Q 1806 -63 1320 214 
Q 834 491 579 1005 
Q 325 1519 325 2222 
Q 325 3275 894 3872 
Q 1463 4469 2469 4469 
Q 3172 4469 3644 4194 
Q 4116 3919 4338 3378 
L 3772 3191 
Q 3619 3575 3280 3778 
Q 2941 3981 2475 3981 
z
" transform="scale(0.015625)"/>
       <path id="STIXGeneral-Regular-28" d="M 1946 -1030 
L 1869 -1133 
Q 1126 -710 716 32 
Q 307 774 307 1613 
Q 307 3386 1888 4326 
L 1946 4224 
Q 1293 3667 1075 3126 
Q 858 2586 858 1632 
Q 858 685 1082 96 
Q 1306 -493 1946 -1030 
z
" transform="scale(0.015625)"/>
       <path id="STIXGeneral-Regular-57" d="M 5965 4237 
L 5965 4115 
Q 5709 4064 5616 3990 
Q 5523 3917 5434 3667 
Q 4704 1709 4128 -70 
L 4032 -70 
Q 3642 1011 3008 2637 
L 2022 -70 
L 1926 -70 
Q 1709 576 1277 1753 
Q 845 2931 698 3347 
Q 538 3808 406 3958 
Q 275 4109 32 4115 
L 32 4237 
L 1594 4237 
L 1594 4115 
Q 1357 4109 1270 4064 
Q 1184 4019 1184 3917 
Q 1184 3808 1254 3616 
L 2176 1210 
L 2842 3021 
L 2662 3501 
Q 2509 3917 2400 4013 
Q 2291 4109 2010 4115 
L 2010 4237 
L 3706 4237 
L 3706 4115 
Q 3213 4102 3213 3891 
Q 3213 3808 3322 3520 
L 4237 1190 
L 5043 3360 
Q 5152 3667 5152 3853 
Q 5152 4109 4704 4115 
L 4704 4237 
L 5965 4237 
z
" transform="scale(0.015625)"/>
       <path id="STIXGeneral-Regular-2f" d="M 1837 4326 
L 378 -90 
L -58 -90 
L 1408 4326 
L 1837 4326 
z
" transform="scale(0.015625)"/>
       <path id="STIXGeneral-Regular-6d" d="M 4960 0 
L 3565 0 
L 3565 96 
Q 3834 122 3907 208 
Q 3981 294 3981 576 
L 3981 1894 
Q 3981 2278 3869 2444 
Q 3757 2611 3488 2611 
Q 3264 2611 3107 2521 
Q 2950 2432 2803 2221 
L 2803 608 
Q 2803 301 2896 201 
Q 2989 102 3264 96 
L 3264 0 
L 1830 0 
L 1830 96 
Q 2112 115 2189 188 
Q 2266 262 2266 550 
L 2266 1901 
Q 2266 2611 1850 2611 
Q 1670 2611 1468 2531 
Q 1267 2451 1171 2336 
Q 1088 2240 1088 2227 
L 1088 448 
Q 1088 243 1177 176 
Q 1267 109 1523 96 
L 1523 0 
L 102 0 
L 102 96 
Q 371 102 460 195 
Q 550 288 550 563 
L 550 2150 
Q 550 2387 499 2480 
Q 448 2573 326 2573 
Q 230 2573 122 2547 
L 122 2656 
Q 557 2778 1011 2944 
L 1062 2925 
L 1062 2451 
L 1075 2451 
Q 1363 2752 1584 2848 
Q 1805 2944 2054 2944 
Q 2560 2944 2733 2406 
Q 3232 2944 3776 2944 
Q 4518 2944 4518 1792 
L 4518 493 
Q 4518 282 4582 202 
Q 4646 122 4794 109 
L 4960 96 
L 4960 0 
z
" transform="scale(0.015625)"/>
       <path id="STIXGeneral-Regular-32" d="M 3034 877 
L 2688 0 
L 186 0 
L 186 77 
L 1325 1286 
Q 1773 1754 1965 2144 
Q 2157 2534 2157 2950 
Q 2157 3379 1920 3616 
Q 1683 3853 1267 3853 
Q 922 3853 720 3673 
Q 518 3494 326 3021 
L 192 3053 
Q 301 3648 630 3987 
Q 960 4326 1523 4326 
Q 2054 4326 2380 4006 
Q 2707 3686 2707 3200 
Q 2707 2477 1888 1613 
L 832 486 
L 2330 486 
Q 2541 486 2665 569 
Q 2790 653 2944 915 
L 3034 877 
z
" transform="scale(0.015625)"/>
       <path id="STIXGeneral-Regular-29" d="M 186 4224 
L 262 4326 
Q 992 3891 1408 3148 
Q 1824 2406 1824 1581 
Q 1824 -166 243 -1133 
L 186 -1030 
Q 845 -486 1059 54 
Q 1274 595 1274 1562 
Q 1274 2534 1059 3120 
Q 845 3706 186 4224 
z
" transform="scale(0.015625)"/>
      </defs>
      <use xlink:href="#LiberationSans-48" transform="translate(0 0.409375)"/>
      <use xlink:href="#LiberationSans-46" transform="translate(72.216797 0.409375)"/>
      <use xlink:href="#LiberationSans-41" transform="translate(133.300781 0.409375)"/>
      <use xlink:href="#LiberationSans-43" transform="translate(200 0.409375)"/>
      <use xlink:href="#LiberationSans-46" transform="translate(272.216797 0.409375)"/>
      <use xlink:href="#LiberationSans-20" transform="translate(333.300781 0.409375)"/>
      <use xlink:href="#STIXGeneral-Regular-28" transform="translate(361.083984 0.409375)"/>
      <use xlink:href="#STIXGeneral-Regular-57" transform="translate(394.383972 0.409375)"/>
      <use xlink:href="#STIXGeneral-Regular-2f" transform="translate(488.783966 0.409375)"/>
      <use xlink:href="#STIXGeneral-Regular-6d" transform="translate(516.583954 0.409375)"/>
      <use xlink:href="#STIXGeneral-Regular-32" transform="translate(595.927223 35.684375) scale(0.7)"/>
      <use xlink:href="#STIXGeneral-Regular-29" transform="translate(635.336587 0.409375)"/>
      <use xlink:href="#STIXGeneral-Regular-32" transform="translate(670.179856 35.684375) scale(0.7)"/>
     </g>
    </g>
    <g id="text_15">
     <!-- $\times\mathdefault{10^{18}}\mathdefault{}$ -->
     <g transform="translate(79.5 36.1875) scale(0.4 -0.4)">
      <defs>
       <path id="STIXGeneral-Regular-d7" d="M 3821 141 
L 3526 -160 
L 2048 1312 
L 570 -160 
L 275 134 
L 1747 1613 
L 275 3091 
L 576 3386 
L 2048 1914 
L 3526 3386 
L 3821 3098 
L 2349 1613 
L 3821 141 
z
" transform="scale(0.015625)"/>
      </defs>
      <use xlink:href="#STIXGeneral-Regular-d7" transform="translate(0 0.140625)"/>
      <use xlink:href="#LiberationSans-31" transform="translate(63.999985 0.140625)"/>
      <use xlink:href="#LiberationSans-30" transform="translate(119.615219 0.140625)"/>
      <use xlink:href="#LiberationSans-31" transform="translate(176.154946 37.120312) scale(0.7)"/>
      <use xlink:href="#LiberationSans-38" transform="translate(215.08561 37.120312) scale(0.7)"/>
     </g>
    </g>
   </g>
   <g id="line2d_46">
    <path d="M 107.865545 66.514909 
L 108.092492 78.541872 
L 108.432913 102.576313 
L 108.886807 154.614501 
L 109.624385 270.914484 
L 110.986067 489.393514 
L 111.610171 556.943204 
L 112.120802 591.660793 
L 112.51796 606.592355 
L 112.85838 612.313553 
L 113.02859 613.063091 
L 113.085327 613.004554 
L 113.198801 612.666705 
L 113.482485 609.916037 
L 113.879642 602.796322 
L 114.560483 586.479489 
L 115.751955 557.80744 
L 116.943427 535.188516 
L 118.191636 515.252389 
L 119.156161 502.990985 
L 119.893739 496.318816 
L 120.461106 493.213432 
L 120.801527 492.278022 
L 121.028474 492.054799 
L 121.255421 492.068324 
L 121.822789 493.049793 
L 122.617103 495.626683 
L 123.014261 497.151413 
L 124.205733 501.050967 
L 126.134783 504.815882 
L 126.645414 505.415904 
L 127.099308 505.597664 
L 127.326255 505.595542 
L 127.609939 505.466183 
L 127.836886 505.351904 
L 128.574464 504.3571 
L 128.971621 503.584489 
L 130.446777 500.65554 
L 130.730461 500.3723 
L 131.921933 499.873662 
L 134.24814 499.601416 
L 135.780033 499.940335 
L 138.389924 500.804236 
L 138.957291 500.81931 
L 142.13455 500.281723 
L 142.758654 500.303966 
L 143.439496 500.343163 
L 144.23381 500.280879 
L 146.106124 499.93098 
L 146.843701 500.008959 
L 147.581279 500.268621 
L 149.510329 501.234112 
L 150.191171 501.24299 
L 150.815275 501.013627 
L 151.496116 500.591943 
L 152.517378 499.959461 
L 153.084745 499.77344 
L 153.595376 499.815802 
L 154.843585 500.275998 
L 155.694637 500.5259 
L 156.488951 500.583043 
L 157.964107 500.543157 
L 158.928632 500.736353 
L 160.971156 501.620362 
L 161.538523 501.679431 
L 162.332838 501.494902 
L 163.013679 501.139635 
L 163.921467 500.575511 
L 164.772519 500.264697 
L 166.417885 500.259315 
L 166.928516 500.2665 
L 169.538407 499.857298 
L 170.559669 500.073613 
L 171.637667 500.465842 
L 172.545455 500.507317 
L 173.283033 500.206963 
L 173.736927 499.884903 
L 175.26882 498.78496 
L 175.779451 498.670313 
L 176.176608 498.787456 
L 176.857449 499.37318 
L 178.219132 500.895443 
L 178.729763 501.270007 
L 179.240393 501.425042 
L 179.977971 501.29694 
L 180.545339 501.018677 
L 182.077232 500.487261 
L 182.871546 500.684714 
L 183.438914 500.977711 
L 184.233229 501.393881 
L 184.970807 501.544157 
L 185.708384 501.359366 
L 187.921118 500.165145 
L 188.77217 500.117267 
L 189.906905 500.273618 
L 190.757956 500.354663 
L 191.779218 500.330661 
L 194.956477 500.877129 
L 195.580581 500.673054 
L 196.147949 500.290541 
L 198.247209 498.333905 
L 198.701103 498.212206 
L 199.154997 498.378743 
L 199.835839 498.970073 
L 202.332256 501.63659 
L 202.956361 501.857038 
L 203.750675 501.824131 
L 206.530777 500.77307 
L 209.708035 499.102799 
L 211.126455 498.95098 
L 211.637085 499.069004 
L 212.998768 499.573981 
L 216.913604 501.249448 
L 217.707919 501.138476 
L 219.466759 500.19672 
L 219.97739 499.956138 
L 221.168862 499.926958 
L 222.700754 500.654428 
L 223.324859 500.936421 
L 223.948963 501.062941 
L 225.140435 500.816326 
L 227.353169 500.135784 
L 228.544641 500.152026 
L 230.13327 500.084064 
L 230.984322 499.877717 
L 231.89211 499.754807 
L 232.743161 499.996387 
L 233.367266 500.410032 
L 235.296316 501.85714 
L 235.806947 501.942308 
L 236.260841 501.856894 
L 236.998419 501.433109 
L 237.962944 500.690383 
L 238.870732 500.130134 
L 239.94873 499.874709 
L 240.686308 499.837701 
L 241.480623 499.778321 
L 242.104727 499.602548 
L 243.977041 498.718856 
L 244.033777 498.627515 
L 244.090514 498.692103 
L 244.714619 498.669559 
L 245.73588 498.910784 
L 246.870616 499.287804 
L 248.856402 499.513113 
L 249.367033 499.574241 
L 250.047874 499.756232 
L 252.827976 500.610167 
L 254.927236 500.370817 
L 256.005234 500.480542 
L 259.182493 501.481741 
L 260.260492 501.569629 
L 262.189542 501.895636 
L 263.43775 501.771467 
L 264.061855 501.419111 
L 264.515749 501.027902 
L 266.898693 498.815198 
L 267.352587 498.794158 
L 267.919955 498.9744 
L 269.05469 499.705949 
L 269.962478 500.250441 
L 270.98374 500.527279 
L 271.834791 500.560523 
L 272.515633 500.5466 
L 275.636155 500.468437 
L 277.054574 499.761631 
L 278.246046 499.153744 
L 279.607728 499.000128 
L 281.366568 499.555339 
L 283.976459 500.598305 
L 285.848772 500.868828 
L 286.643087 500.607838 
L 287.210454 500.258441 
L 288.969294 499.047766 
L 289.479925 498.957462 
L 290.047293 499.137268 
L 290.61466 499.537338 
L 293.338025 501.91962 
L 294.13234 502.086175 
L 294.756444 502.011466 
L 296.06139 501.472974 
L 298.387597 500.556823 
L 299.919489 500.376777 
L 301.224435 500.642597 
L 302.18896 500.904174 
L 303.096748 501.025574 
L 304.685378 500.788435 
L 305.309482 500.630013 
L 306.160533 500.487106 
L 307.352005 500.491227 
L 308.770425 500.492689 
L 309.508002 500.31665 
L 311.210105 499.592836 
L 312.685261 499.478385 
L 313.195892 499.62733 
L 314.160417 500.29071 
L 315.749046 501.574304 
L 316.429888 501.788492 
L 317.053992 501.700726 
L 317.564623 501.455863 
L 318.926305 500.367418 
L 319.55041 499.889911 
L 320.287988 499.486174 
L 320.855355 499.337593 
L 321.933354 499.530772 
L 323.181562 500.344077 
L 323.862404 500.8759 
L 324.656718 501.321949 
L 325.167349 501.442726 
L 325.904927 501.327535 
L 328.741765 499.974871 
L 329.819764 499.958439 
L 331.408393 499.745015 
L 332.429655 499.181978 
L 333.621127 498.512596 
L 334.188495 498.463923 
L 334.812599 498.686386 
L 335.039546 498.900981 
L 335.947334 499.81671 
L 336.911859 500.879386 
L 337.649437 501.365898 
L 338.216805 501.407139 
L 338.613962 501.271096 
L 339.294803 500.790444 
L 341.167117 499.427057 
L 341.734484 499.398747 
L 342.245115 499.560841 
L 343.096166 500.057229 
L 344.344375 500.612389 
L 344.96848 500.643545 
L 345.649321 500.547544 
L 346.330162 500.408561 
L 347.805318 500.4467 
L 349.904578 501.028361 
L 351.663418 501.46079 
L 352.968363 501.610238 
L 354.046362 501.258128 
L 354.897413 500.569631 
L 356.599516 498.737984 
L 357.507304 498.21344 
L 357.677515 498.295629 
L 358.188146 498.49776 
L 358.98246 499.144917 
L 360.230669 500.361416 
L 361.308668 500.923746 
L 362.046245 501.005642 
L 364.315716 500.450767 
L 364.996557 500.250464 
L 367.039081 499.857271 
L 368.570973 499.963527 
L 369.648972 500.333028 
L 370.783707 500.655297 
L 371.804969 500.567412 
L 372.826231 500.28024 
L 374.187913 500.158341 
L 375.436122 500.500632 
L 377.024751 500.979118 
L 377.648855 500.887011 
L 378.159486 500.648082 
L 380.088536 499.510008 
L 380.826114 499.481389 
L 381.733902 499.780978 
L 383.436005 500.226859 
L 384.911161 500.051028 
L 385.875686 500.066021 
L 388.882735 501.017742 
L 389.960733 500.681598 
L 391.265679 499.848409 
L 392.627361 499.441166 
L 393.478412 499.657417 
L 394.04578 499.937467 
L 395.067042 500.634558 
L 396.315251 501.398035 
L 397.279776 501.714676 
L 398.357774 501.721525 
L 399.719456 501.186956 
L 400.570508 500.588307 
L 401.988927 499.387653 
L 403.123662 498.860871 
L 404.088187 499.134078 
L 409.137759 501.330944 
L 410.953336 501.483607 
L 411.634177 501.232727 
L 412.088071 500.983146 
L 414.130594 500.019696 
L 414.868172 500.081712 
L 415.889434 500.508841 
L 416.967433 500.919863 
L 417.931958 501.011741 
L 418.896483 500.838758 
L 421.619847 500.078041 
L 422.98153 499.699463 
L 424.513422 499.013317 
L 425.704894 498.713456 
L 426.272262 498.843354 
L 427.406997 499.442246 
L 428.031101 499.827018 
L 428.995626 500.314275 
L 430.130362 500.722433 
L 430.811203 500.914074 
L 432.910463 501.490189 
L 434.158672 501.507713 
L 434.782776 501.321281 
L 435.293407 501.126551 
L 436.768563 500.652859 
L 437.903298 500.711036 
L 439.151507 500.799397 
L 440.229506 500.53471 
L 443.179817 499.663648 
L 446.186866 499.524155 
L 447.605285 499.194623 
L 448.286126 499.120547 
L 448.456336 499.176405 
L 449.080441 499.230947 
L 449.988229 499.589764 
L 452.654857 500.94194 
L 453.335698 500.967757 
L 454.073276 500.822286 
L 454.981064 500.445325 
L 456.62643 499.698673 
L 457.704429 499.654893 
L 458.271796 499.81878 
L 459.349795 500.392942 
L 459.860426 500.703514 
L 461.505792 501.024607 
L 462.07316 500.81309 
L 464.796524 499.219421 
L 465.420629 499.083548 
L 466.158207 499.059013 
L 468.37094 499.035661 
L 469.505676 498.784427 
L 470.470201 498.852421 
L 470.980831 499.037481 
L 471.207779 499.224225 
L 472.342514 500.175598 
L 473.136828 500.970296 
L 473.98788 501.613266 
L 474.668721 501.858397 
L 475.292825 501.883314 
L 476.427561 501.532976 
L 478.1864 500.749527 
L 478.923978 500.602545 
L 480.11545 500.615723 
L 483.292709 500.393414 
L 485.448706 500.046231 
L 486.583441 500.148809 
L 487.377756 500.394936 
L 488.058597 500.671719 
L 489.647227 501.022583 
L 490.441541 500.765465 
L 491.803224 499.6881 
L 492.370591 499.227549 
L 493.051432 498.888543 
L 493.675537 498.853385 
L 493.902484 499.033959 
L 494.469852 499.526118 
L 496.682585 501.937851 
L 497.30669 502.087023 
L 497.817321 501.979718 
L 498.781846 501.414435 
L 499.746371 500.784168 
L 500.881106 500.3183 
L 502.015841 500.073532 
L 502.639945 499.91686 
L 503.377523 499.633149 
L 505.249837 498.883526 
L 505.646994 498.846445 
L 506.441309 499.039528 
L 507.235623 499.466423 
L 510.242672 501.195673 
L 511.263934 501.305406 
L 512.455406 501.027355 
L 514.157508 500.043152 
L 515.065297 499.528321 
L 515.973085 499.350757 
L 516.597189 499.545717 
L 518.980133 500.858315 
L 519.831185 500.639169 
L 520.909183 499.899527 
L 521.646761 499.359358 
L 522.611286 498.969614 
L 523.008444 498.935918 
L 523.632548 499.084969 
L 524.483599 499.575311 
L 526.639596 500.856436 
L 527.831068 501.118947 
L 530.78138 501.111014 
L 532.71043 500.653192 
L 535.660742 499.561206 
L 537.646529 498.237498 
L 538.100423 498.122274 
L 538.49758 498.137391 
L 539.064948 498.30479 
L 539.291895 498.527043 
L 540.142946 499.424101 
L 541.561365 501.187528 
L 542.35568 501.756228 
L 543.093258 501.878005 
L 543.547152 501.764791 
L 544.057783 501.532436 
L 545.759886 500.765602 
L 546.440727 500.679977 
L 547.859146 500.786898 
L 548.653461 500.780491 
L 549.220828 500.702341 
L 550.07188 500.539789 
L 551.376825 500.410186 
L 556.369661 500.542496 
L 557.334186 500.762613 
L 558.1285 500.786773 
L 559.036288 500.505211 
L 560.851865 499.470125 
L 562.043337 499.462149 
L 562.497231 499.634767 
L 564.369544 500.447854 
L 565.277332 500.296402 
L 566.639015 499.481575 
L 567.433329 499.082916 
L 568.397854 499.016153 
L 569.021959 499.285436 
L 569.646063 499.799418 
L 570.326904 500.533602 
L 572.142481 502.521925 
L 572.823322 502.953215 
L 573.277216 503.086884 
L 573.674373 503.082708 
L 574.525425 502.654321 
L 575.149529 501.990984 
L 577.816157 498.443806 
L 578.383525 498.28065 
L 578.837419 498.377755 
L 579.34805 498.667162 
L 581.61752 500.184533 
L 582.411835 500.155281 
L 584.567832 499.735671 
L 585.248673 500.050061 
L 586.553619 500.652398 
L 587.347933 500.642645 
L 587.972038 500.381999 
L 589.901088 499.387592 
L 590.468455 499.362544 
L 591.206033 499.591037 
L 592.397505 500.397186 
L 593.078347 500.90154 
L 593.986135 501.390927 
L 594.666976 501.558351 
L 596.142132 501.378883 
L 599.943495 500.172528 
L 600.510863 500.248896 
L 601.361914 500.693032 
L 603.631385 502.488332 
L 604.142015 502.560257 
L 604.652646 502.41054 
L 605.333487 501.874597 
L 606.127802 500.951436 
L 607.716432 499.214405 
L 608.340536 498.829703 
L 609.588745 498.400321 
L 611.177374 498.268065 
L 612.198636 498.61253 
L 613.276634 499.407174 
L 616.170209 501.930172 
L 616.85105 502.067014 
L 617.531892 501.940345 
L 618.382943 501.565442 
L 620.255256 500.860602 
L 620.992834 500.766103 
L 622.127569 500.772996 
L 623.545989 500.938993 
L 624.113356 501.038882 
L 625.985669 500.921005 
L 626.609774 500.5514 
L 627.687772 499.433657 
L 629.219665 497.857758 
L 629.900506 497.678713 
L 630.3544 497.810191 
L 631.035241 498.353303 
L 633.474922 500.832809 
L 634.099027 500.945574 
L 634.723131 500.798842 
L 635.687656 500.345395 
L 636.879128 499.867802 
L 637.730179 499.860126 
L 638.581231 500.07842 
L 639.318809 500.34411 
L 644.765538 501.168829 
L 645.843537 500.909013 
L 646.921535 500.356264 
L 648.339954 499.543388 
L 650.325741 498.785689 
L 651.687423 498.539119 
L 652.538475 498.517519 
L 652.765422 498.669208 
L 653.900157 499.389237 
L 654.751208 500.084147 
L 655.829207 500.744316 
L 656.963942 501.056114 
L 660.424885 500.908478 
L 662.070251 500.801511 
L 664.226248 500.929196 
L 665.814877 501.083847 
L 667.063086 500.768451 
L 670.750976 499.345754 
L 671.602027 499.197653 
L 672.566552 499.00637 
L 673.360867 498.882152 
L 673.814761 498.860208 
L 674.325392 498.921689 
L 675.176443 499.337935 
L 675.176443 499.337935 
" clip-path="url(#p9c45d7dfbe)" style="fill: none; stroke: #0000ff; stroke-width: 1.5; stroke-linecap: square"/>
   </g>
   <g id="patch_3">
    <path d="M 79.5 640.3905 
L 79.5 39.1875 
" style="fill: none; stroke: #000000; stroke-width: 0.8; stroke-linejoin: miter; stroke-linecap: square"/>
   </g>
   <g id="patch_4">
    <path d="M 703.541988 640.3905 
L 703.541988 39.1875 
" style="fill: none; stroke: #000000; stroke-width: 0.8; stroke-linejoin: miter; stroke-linecap: square"/>
   </g>
   <g id="patch_5">
    <path d="M 79.5 640.3905 
L 703.541988 640.3905 
" style="fill: none; stroke: #000000; stroke-width: 0.8; stroke-linejoin: miter; stroke-linecap: square"/>
   </g>
   <g id="patch_6">
    <path d="M 79.5 39.1875 
L 703.541988 39.1875 
" style="fill: none; stroke: #000000; stroke-width: 0.8; stroke-linejoin: miter; stroke-linecap: square"/>
   </g>
  </g>
 </g>
 <defs>
  <clipPath id="p9c45d7dfbe">
   <rect x="79.5" y="39.1875" width="624.041988" height="601.203"/>
  </clipPath>
 </defs>
</svg>
