<?xml version="1.0" encoding="utf-8" standalone="no"?>
<!DOCTYPE svg PUBLIC "-//W3C//DTD SVG 1.1//EN"
  "http://www.w3.org/Graphics/SVG/1.1/DTD/svg11.dtd">
<svg xmlns:xlink="http://www.w3.org/1999/xlink" width="711.735pt" height="711.105187pt" viewBox="0 0 711.735 711.105187" xmlns="http://www.w3.org/2000/svg" version="1.1">
 <metadata>
  <rdf:RDF xmlns:dc="http://purl.org/dc/elements/1.1/" xmlns:cc="http://creativecommons.org/ns#" xmlns:rdf="http://www.w3.org/1999/02/22-rdf-syntax-ns#">
   <cc:Work>
    <dc:type rdf:resource="http://purl.org/dc/dcmitype/StillImage"/>
    <dc:date>2025-02-02T16:32:08.700877</dc:date>
    <dc:format>image/svg+xml</dc:format>
    <dc:creator>
     <cc:Agent>
      <dc:title>Matplotlib v3.9.3, https://matplotlib.org/</dc:title>
     </cc:Agent>
    </dc:creator>
   </cc:Work>
  </rdf:RDF>
 </metadata>
 <defs>
  <style type="text/css">*{stroke-linejoin: round; stroke-linecap: butt}</style>
 </defs>
 <g id="figure_1">
  <g id="patch_1">
   <path d="M 0 711.105187 
L 711.735 711.105187 
L 711.735 0 
L 0 0 
z
" style="fill: #ffffff"/>
  </g>
  <g id="axes_1">
   <g id="patch_2">
    <path d="M 96.125625 643.2705 
L 689.520469 643.2705 
L 689.520469 39.1875 
L 96.125625 39.1875 
z
" style="fill: #ffffff"/>
   </g>
   <g id="matplotlib.axis_1">
    <g id="xtick_1">
     <g id="line2d_1">
      <defs>
       <path id="md4e8add129" d="M 0 0 
L 0 -3.5 
" style="stroke: #000000; stroke-width: 0.8"/>
      </defs>
      <g>
       <use xlink:href="#md4e8add129" x="96.125625" y="643.2705" style="stroke: #000000; stroke-width: 0.8"/>
      </g>
     </g>
     <g id="text_1">
      <!-- 0 -->
      <g transform="translate(88.618359 666.337062) scale(0.27 -0.27)">
       <defs>
        <path id="LiberationSans-30" d="M 3309 2203 
Q 3309 1100 2920 518 
Q 2531 -63 1772 -63 
Q 1013 -63 631 515 
Q 250 1094 250 2203 
Q 250 3338 620 3903 
Q 991 4469 1791 4469 
Q 2569 4469 2939 3897 
Q 3309 3325 3309 2203 
z
M 2738 2203 
Q 2738 3156 2517 3584 
Q 2297 4013 1791 4013 
Q 1272 4013 1045 3591 
Q 819 3169 819 2203 
Q 819 1266 1048 831 
Q 1278 397 1778 397 
Q 2275 397 2506 840 
Q 2738 1284 2738 2203 
z
" transform="scale(0.015625)"/>
       </defs>
       <use xlink:href="#LiberationSans-30"/>
      </g>
     </g>
    </g>
    <g id="xtick_2">
     <g id="line2d_2">
      <g>
       <use xlink:href="#md4e8add129" x="214.804594" y="643.2705" style="stroke: #000000; stroke-width: 0.8"/>
      </g>
     </g>
     <g id="text_2">
      <!-- 2 -->
      <g transform="translate(207.297328 666.337062) scale(0.27 -0.27)">
       <defs>
        <path id="LiberationSans-32" d="M 322 0 
L 322 397 
Q 481 763 711 1042 
Q 941 1322 1194 1548 
Q 1447 1775 1695 1969 
Q 1944 2163 2144 2356 
Q 2344 2550 2467 2762 
Q 2591 2975 2591 3244 
Q 2591 3606 2378 3806 
Q 2166 4006 1788 4006 
Q 1428 4006 1195 3811 
Q 963 3616 922 3263 
L 347 3316 
Q 409 3844 795 4156 
Q 1181 4469 1788 4469 
Q 2453 4469 2811 4155 
Q 3169 3841 3169 3263 
Q 3169 3006 3051 2753 
Q 2934 2500 2703 2247 
Q 2472 1994 1819 1463 
Q 1459 1169 1246 933 
Q 1034 697 941 478 
L 3238 478 
L 3238 0 
L 322 0 
z
" transform="scale(0.015625)"/>
       </defs>
       <use xlink:href="#LiberationSans-32"/>
      </g>
     </g>
    </g>
    <g id="xtick_3">
     <g id="line2d_3">
      <g>
       <use xlink:href="#md4e8add129" x="333.483563" y="643.2705" style="stroke: #000000; stroke-width: 0.8"/>
      </g>
     </g>
     <g id="text_3">
      <!-- 4 -->
      <g transform="translate(325.976297 666.337062) scale(0.27 -0.27)">
       <defs>
        <path id="LiberationSans-34" d="M 2753 997 
L 2753 0 
L 2222 0 
L 2222 997 
L 147 997 
L 147 1434 
L 2163 4403 
L 2753 4403 
L 2753 1441 
L 3372 1441 
L 3372 997 
L 2753 997 
z
M 2222 3769 
Q 2216 3750 2134 3603 
Q 2053 3456 2013 3397 
L 884 1734 
L 716 1503 
L 666 1441 
L 2222 1441 
L 2222 3769 
z
" transform="scale(0.015625)"/>
       </defs>
       <use xlink:href="#LiberationSans-34"/>
      </g>
     </g>
    </g>
    <g id="xtick_4">
     <g id="line2d_4">
      <g>
       <use xlink:href="#md4e8add129" x="452.162531" y="643.2705" style="stroke: #000000; stroke-width: 0.8"/>
      </g>
     </g>
     <g id="text_4">
      <!-- 6 -->
      <g transform="translate(444.655266 666.337062) scale(0.27 -0.27)">
       <defs>
        <path id="LiberationSans-36" d="M 3278 1441 
Q 3278 744 2900 340 
Q 2522 -63 1856 -63 
Q 1113 -63 719 490 
Q 325 1044 325 2100 
Q 325 3244 734 3856 
Q 1144 4469 1900 4469 
Q 2897 4469 3156 3572 
L 2619 3475 
Q 2453 4013 1894 4013 
Q 1413 4013 1148 3564 
Q 884 3116 884 2266 
Q 1038 2550 1316 2698 
Q 1594 2847 1953 2847 
Q 2563 2847 2920 2465 
Q 3278 2084 3278 1441 
z
M 2706 1416 
Q 2706 1894 2472 2153 
Q 2238 2413 1819 2413 
Q 1425 2413 1183 2183 
Q 941 1953 941 1550 
Q 941 1041 1192 716 
Q 1444 391 1838 391 
Q 2244 391 2475 664 
Q 2706 938 2706 1416 
z
" transform="scale(0.015625)"/>
       </defs>
       <use xlink:href="#LiberationSans-36"/>
      </g>
     </g>
    </g>
    <g id="xtick_5">
     <g id="line2d_5">
      <g>
       <use xlink:href="#md4e8add129" x="570.8415" y="643.2705" style="stroke: #000000; stroke-width: 0.8"/>
      </g>
     </g>
     <g id="text_5">
      <!-- 8 -->
      <g transform="translate(563.334234 666.337062) scale(0.27 -0.27)">
       <defs>
        <path id="LiberationSans-38" d="M 3281 1228 
Q 3281 619 2893 278 
Q 2506 -63 1781 -63 
Q 1075 -63 676 271 
Q 278 606 278 1222 
Q 278 1653 525 1947 
Q 772 2241 1156 2303 
L 1156 2316 
Q 797 2400 589 2681 
Q 381 2963 381 3341 
Q 381 3844 757 4156 
Q 1134 4469 1769 4469 
Q 2419 4469 2795 4162 
Q 3172 3856 3172 3334 
Q 3172 2956 2962 2675 
Q 2753 2394 2391 2322 
L 2391 2309 
Q 2813 2241 3047 1952 
Q 3281 1663 3281 1228 
z
M 2588 3303 
Q 2588 4050 1769 4050 
Q 1372 4050 1164 3862 
Q 956 3675 956 3303 
Q 956 2925 1170 2726 
Q 1384 2528 1775 2528 
Q 2172 2528 2380 2711 
Q 2588 2894 2588 3303 
z
M 2697 1281 
Q 2697 1691 2453 1898 
Q 2209 2106 1769 2106 
Q 1341 2106 1100 1882 
Q 859 1659 859 1269 
Q 859 359 1788 359 
Q 2247 359 2472 579 
Q 2697 800 2697 1281 
z
" transform="scale(0.015625)"/>
       </defs>
       <use xlink:href="#LiberationSans-38"/>
      </g>
     </g>
    </g>
    <g id="xtick_6">
     <g id="line2d_6">
      <g>
       <use xlink:href="#md4e8add129" x="689.520469" y="643.2705" style="stroke: #000000; stroke-width: 0.8"/>
      </g>
     </g>
     <g id="text_6">
      <!-- 10 -->
      <g transform="translate(674.505937 666.337062) scale(0.27 -0.27)">
       <defs>
        <path id="LiberationSans-31" d="M 488 0 
L 488 478 
L 1609 478 
L 1609 3866 
L 616 3156 
L 616 3688 
L 1656 4403 
L 2175 4403 
L 2175 478 
L 3247 478 
L 3247 0 
L 488 0 
z
" transform="scale(0.015625)"/>
       </defs>
       <use xlink:href="#LiberationSans-31"/>
       <use xlink:href="#LiberationSans-30" x="55.615234"/>
      </g>
     </g>
    </g>
    <g id="xtick_7">
     <g id="line2d_7">
      <defs>
       <path id="mf7ba2933a1" d="M 0 0 
L 0 -2 
" style="stroke: #000000; stroke-width: 0.6"/>
      </defs>
      <g>
       <use xlink:href="#mf7ba2933a1" x="125.795367" y="643.2705" style="stroke: #000000; stroke-width: 0.6"/>
      </g>
     </g>
    </g>
    <g id="xtick_8">
     <g id="line2d_8">
      <g>
       <use xlink:href="#mf7ba2933a1" x="155.465109" y="643.2705" style="stroke: #000000; stroke-width: 0.6"/>
      </g>
     </g>
    </g>
    <g id="xtick_9">
     <g id="line2d_9">
      <g>
       <use xlink:href="#mf7ba2933a1" x="185.134852" y="643.2705" style="stroke: #000000; stroke-width: 0.6"/>
      </g>
     </g>
    </g>
    <g id="xtick_10">
     <g id="line2d_10">
      <g>
       <use xlink:href="#mf7ba2933a1" x="244.474336" y="643.2705" style="stroke: #000000; stroke-width: 0.6"/>
      </g>
     </g>
    </g>
    <g id="xtick_11">
     <g id="line2d_11">
      <g>
       <use xlink:href="#mf7ba2933a1" x="274.144078" y="643.2705" style="stroke: #000000; stroke-width: 0.6"/>
      </g>
     </g>
    </g>
    <g id="xtick_12">
     <g id="line2d_12">
      <g>
       <use xlink:href="#mf7ba2933a1" x="303.81382" y="643.2705" style="stroke: #000000; stroke-width: 0.6"/>
      </g>
     </g>
    </g>
    <g id="xtick_13">
     <g id="line2d_13">
      <g>
       <use xlink:href="#mf7ba2933a1" x="363.153305" y="643.2705" style="stroke: #000000; stroke-width: 0.6"/>
      </g>
     </g>
    </g>
    <g id="xtick_14">
     <g id="line2d_14">
      <g>
       <use xlink:href="#mf7ba2933a1" x="392.823047" y="643.2705" style="stroke: #000000; stroke-width: 0.6"/>
      </g>
     </g>
    </g>
    <g id="xtick_15">
     <g id="line2d_15">
      <g>
       <use xlink:href="#mf7ba2933a1" x="422.492789" y="643.2705" style="stroke: #000000; stroke-width: 0.6"/>
      </g>
     </g>
    </g>
    <g id="xtick_16">
     <g id="line2d_16">
      <g>
       <use xlink:href="#mf7ba2933a1" x="481.832273" y="643.2705" style="stroke: #000000; stroke-width: 0.6"/>
      </g>
     </g>
    </g>
    <g id="xtick_17">
     <g id="line2d_17">
      <g>
       <use xlink:href="#mf7ba2933a1" x="511.502016" y="643.2705" style="stroke: #000000; stroke-width: 0.6"/>
      </g>
     </g>
    </g>
    <g id="xtick_18">
     <g id="line2d_18">
      <g>
       <use xlink:href="#mf7ba2933a1" x="541.171758" y="643.2705" style="stroke: #000000; stroke-width: 0.6"/>
      </g>
     </g>
    </g>
    <g id="xtick_19">
     <g id="line2d_19">
      <g>
       <use xlink:href="#mf7ba2933a1" x="600.511242" y="643.2705" style="stroke: #000000; stroke-width: 0.6"/>
      </g>
     </g>
    </g>
    <g id="xtick_20">
     <g id="line2d_20">
      <g>
       <use xlink:href="#mf7ba2933a1" x="630.180984" y="643.2705" style="stroke: #000000; stroke-width: 0.6"/>
      </g>
     </g>
    </g>
    <g id="xtick_21">
     <g id="line2d_21">
      <g>
       <use xlink:href="#mf7ba2933a1" x="659.850727" y="643.2705" style="stroke: #000000; stroke-width: 0.6"/>
      </g>
     </g>
    </g>
    <g id="text_7">
     <!-- Time ps -->
     <g transform="translate(340.046484 697.680187) scale(0.3 -0.3)">
      <defs>
       <path id="LiberationSans-54" d="M 2250 3916 
L 2250 0 
L 1656 0 
L 1656 3916 
L 144 3916 
L 144 4403 
L 3763 4403 
L 3763 3916 
L 2250 3916 
z
" transform="scale(0.015625)"/>
       <path id="LiberationSans-69" d="M 428 4100 
L 428 4638 
L 991 4638 
L 991 4100 
L 428 4100 
z
M 428 0 
L 428 3381 
L 991 3381 
L 991 0 
L 428 0 
z
" transform="scale(0.015625)"/>
       <path id="LiberationSans-6d" d="M 2400 0 
L 2400 2144 
Q 2400 2634 2265 2821 
Q 2131 3009 1781 3009 
Q 1422 3009 1212 2734 
Q 1003 2459 1003 1959 
L 1003 0 
L 444 0 
L 444 2659 
Q 444 3250 425 3381 
L 956 3381 
Q 959 3366 962 3297 
Q 966 3228 970 3139 
Q 975 3050 981 2803 
L 991 2803 
Q 1172 3163 1406 3303 
Q 1641 3444 1978 3444 
Q 2363 3444 2586 3291 
Q 2809 3138 2897 2803 
L 2906 2803 
Q 3081 3144 3329 3294 
Q 3578 3444 3931 3444 
Q 4444 3444 4676 3166 
Q 4909 2888 4909 2253 
L 4909 0 
L 4353 0 
L 4353 2144 
Q 4353 2634 4218 2821 
Q 4084 3009 3734 3009 
Q 3366 3009 3161 2736 
Q 2956 2463 2956 1959 
L 2956 0 
L 2400 0 
z
" transform="scale(0.015625)"/>
       <path id="LiberationSans-65" d="M 863 1572 
Q 863 991 1103 675 
Q 1344 359 1806 359 
Q 2172 359 2392 506 
Q 2613 653 2691 878 
L 3184 738 
Q 2881 -63 1806 -63 
Q 1056 -63 664 384 
Q 272 831 272 1713 
Q 272 2550 664 2997 
Q 1056 3444 1784 3444 
Q 3275 3444 3275 1647 
L 3275 1572 
L 863 1572 
z
M 2694 2003 
Q 2647 2538 2422 2783 
Q 2197 3028 1775 3028 
Q 1366 3028 1127 2754 
Q 888 2481 869 2003 
L 2694 2003 
z
" transform="scale(0.015625)"/>
       <path id="LiberationSans-20" transform="scale(0.015625)"/>
       <path id="LiberationSans-70" d="M 3291 1706 
Q 3291 -63 2047 -63 
Q 1266 -63 997 525 
L 981 525 
Q 994 500 994 -6 
L 994 -1328 
L 431 -1328 
L 431 2691 
Q 431 3213 413 3381 
L 956 3381 
Q 959 3369 965 3292 
Q 972 3216 980 3056 
Q 988 2897 988 2838 
L 1000 2838 
Q 1150 3150 1397 3295 
Q 1644 3441 2047 3441 
Q 2672 3441 2981 3022 
Q 3291 2603 3291 1706 
z
M 2700 1694 
Q 2700 2400 2509 2703 
Q 2319 3006 1903 3006 
Q 1569 3006 1380 2865 
Q 1191 2725 1092 2426 
Q 994 2128 994 1650 
Q 994 984 1206 668 
Q 1419 353 1897 353 
Q 2316 353 2508 661 
Q 2700 969 2700 1694 
z
" transform="scale(0.015625)"/>
       <path id="LiberationSans-73" d="M 2969 934 
Q 2969 456 2608 196 
Q 2247 -63 1597 -63 
Q 966 -63 623 145 
Q 281 353 178 794 
L 675 891 
Q 747 619 972 492 
Q 1197 366 1597 366 
Q 2025 366 2223 497 
Q 2422 628 2422 891 
Q 2422 1091 2284 1216 
Q 2147 1341 1841 1422 
L 1438 1528 
Q 953 1653 748 1773 
Q 544 1894 428 2066 
Q 313 2238 313 2488 
Q 313 2950 642 3192 
Q 972 3434 1603 3434 
Q 2163 3434 2492 3237 
Q 2822 3041 2909 2606 
L 2403 2544 
Q 2356 2769 2151 2889 
Q 1947 3009 1603 3009 
Q 1222 3009 1040 2893 
Q 859 2778 859 2544 
Q 859 2400 934 2306 
Q 1009 2213 1156 2147 
Q 1303 2081 1775 1966 
Q 2222 1853 2419 1758 
Q 2616 1663 2730 1547 
Q 2844 1431 2906 1279 
Q 2969 1128 2969 934 
z
" transform="scale(0.015625)"/>
      </defs>
      <use xlink:href="#LiberationSans-54"/>
      <use xlink:href="#LiberationSans-69" x="57.333984"/>
      <use xlink:href="#LiberationSans-6d" x="79.550781"/>
      <use xlink:href="#LiberationSans-65" x="162.851562"/>
      <use xlink:href="#LiberationSans-20" x="218.466797"/>
      <use xlink:href="#LiberationSans-70" x="246.25"/>
      <use xlink:href="#LiberationSans-73" x="301.865234"/>
     </g>
    </g>
   </g>
   <g id="matplotlib.axis_2">
    <g id="ytick_1">
     <g id="line2d_22">
      <defs>
       <path id="mfacafc1002" d="M 0 0 
L 3.5 0 
" style="stroke: #000000; stroke-width: 0.8"/>
      </defs>
      <g>
       <use xlink:href="#mfacafc1002" x="96.125625" y="624.392906" style="stroke: #000000; stroke-width: 0.8"/>
      </g>
     </g>
     <g id="text_8">
      <!-- $\mathdefault{−1.5}$ -->
      <g transform="translate(39.165625 634.176187) scale(0.27 -0.27)">
       <defs>
        <path id="LiberationSans-2212" d="M 316 1900 
L 316 2356 
L 3425 2356 
L 3425 1900 
L 316 1900 
z
" transform="scale(0.015625)"/>
        <path id="LiberationSans-2e" d="M 584 0 
L 584 684 
L 1194 684 
L 1194 0 
L 584 0 
z
" transform="scale(0.015625)"/>
        <path id="LiberationSans-35" d="M 3291 1434 
Q 3291 738 2877 337 
Q 2463 -63 1728 -63 
Q 1113 -63 734 206 
Q 356 475 256 984 
L 825 1050 
Q 1003 397 1741 397 
Q 2194 397 2450 670 
Q 2706 944 2706 1422 
Q 2706 1838 2448 2094 
Q 2191 2350 1753 2350 
Q 1525 2350 1328 2278 
Q 1131 2206 934 2034 
L 384 2034 
L 531 4403 
L 3034 4403 
L 3034 3925 
L 1044 3925 
L 959 2528 
Q 1325 2809 1869 2809 
Q 2519 2809 2905 2428 
Q 3291 2047 3291 1434 
z
" transform="scale(0.015625)"/>
       </defs>
       <use xlink:href="#LiberationSans-2212" transform="translate(0 0.203125)"/>
       <use xlink:href="#LiberationSans-31" transform="translate(58.398438 0.203125)"/>
       <use xlink:href="#LiberationSans-2e" transform="translate(114.013672 0.203125)"/>
       <use xlink:href="#LiberationSans-35" transform="translate(141.796875 0.203125)"/>
      </g>
     </g>
    </g>
    <g id="ytick_2">
     <g id="line2d_23">
      <g>
       <use xlink:href="#mfacafc1002" x="96.125625" y="530.004937" style="stroke: #000000; stroke-width: 0.8"/>
      </g>
     </g>
     <g id="text_9">
      <!-- $\mathdefault{−1.0}$ -->
      <g transform="translate(39.165625 539.788219) scale(0.27 -0.27)">
       <use xlink:href="#LiberationSans-2212" transform="translate(0 0.171875)"/>
       <use xlink:href="#LiberationSans-31" transform="translate(58.398438 0.171875)"/>
       <use xlink:href="#LiberationSans-2e" transform="translate(114.013672 0.171875)"/>
       <use xlink:href="#LiberationSans-30" transform="translate(141.796875 0.171875)"/>
      </g>
     </g>
    </g>
    <g id="ytick_3">
     <g id="line2d_24">
      <g>
       <use xlink:href="#mfacafc1002" x="96.125625" y="435.616969" style="stroke: #000000; stroke-width: 0.8"/>
      </g>
     </g>
     <g id="text_10">
      <!-- $\mathdefault{−0.5}$ -->
      <g transform="translate(39.165625 445.40025) scale(0.27 -0.27)">
       <use xlink:href="#LiberationSans-2212" transform="translate(0 0.171875)"/>
       <use xlink:href="#LiberationSans-30" transform="translate(58.398438 0.171875)"/>
       <use xlink:href="#LiberationSans-2e" transform="translate(114.013672 0.171875)"/>
       <use xlink:href="#LiberationSans-35" transform="translate(141.796875 0.171875)"/>
      </g>
     </g>
    </g>
    <g id="ytick_4">
     <g id="line2d_25">
      <g>
       <use xlink:href="#mfacafc1002" x="96.125625" y="341.229" style="stroke: #000000; stroke-width: 0.8"/>
      </g>
     </g>
     <g id="text_11">
      <!-- $\mathdefault{0.0}$ -->
      <g transform="translate(54.825625 351.012281) scale(0.27 -0.27)">
       <use xlink:href="#LiberationSans-30" transform="translate(0 0.171875)"/>
       <use xlink:href="#LiberationSans-2e" transform="translate(55.615234 0.171875)"/>
       <use xlink:href="#LiberationSans-30" transform="translate(83.398438 0.171875)"/>
      </g>
     </g>
    </g>
    <g id="ytick_5">
     <g id="line2d_26">
      <g>
       <use xlink:href="#mfacafc1002" x="96.125625" y="246.841031" style="stroke: #000000; stroke-width: 0.8"/>
      </g>
     </g>
     <g id="text_12">
      <!-- $\mathdefault{0.5}$ -->
      <g transform="translate(54.825625 256.624312) scale(0.27 -0.27)">
       <use xlink:href="#LiberationSans-30" transform="translate(0 0.171875)"/>
       <use xlink:href="#LiberationSans-2e" transform="translate(55.615234 0.171875)"/>
       <use xlink:href="#LiberationSans-35" transform="translate(83.398438 0.171875)"/>
      </g>
     </g>
    </g>
    <g id="ytick_6">
     <g id="line2d_27">
      <g>
       <use xlink:href="#mfacafc1002" x="96.125625" y="152.453062" style="stroke: #000000; stroke-width: 0.8"/>
      </g>
     </g>
     <g id="text_13">
      <!-- $\mathdefault{1.0}$ -->
      <g transform="translate(54.825625 162.236344) scale(0.27 -0.27)">
       <use xlink:href="#LiberationSans-31" transform="translate(0 0.171875)"/>
       <use xlink:href="#LiberationSans-2e" transform="translate(55.615234 0.171875)"/>
       <use xlink:href="#LiberationSans-30" transform="translate(83.398438 0.171875)"/>
      </g>
     </g>
    </g>
    <g id="ytick_7">
     <g id="line2d_28">
      <g>
       <use xlink:href="#mfacafc1002" x="96.125625" y="58.065094" style="stroke: #000000; stroke-width: 0.8"/>
      </g>
     </g>
     <g id="text_14">
      <!-- $\mathdefault{1.5}$ -->
      <g transform="translate(54.825625 67.848375) scale(0.27 -0.27)">
       <use xlink:href="#LiberationSans-31" transform="translate(0 0.203125)"/>
       <use xlink:href="#LiberationSans-2e" transform="translate(55.615234 0.203125)"/>
       <use xlink:href="#LiberationSans-35" transform="translate(83.398438 0.203125)"/>
      </g>
     </g>
    </g>
    <g id="ytick_8">
     <g id="line2d_29">
      <defs>
       <path id="mf5cc294d5e" d="M 0 0 
L 2 0 
" style="stroke: #000000; stroke-width: 0.6"/>
      </defs>
      <g>
       <use xlink:href="#mf5cc294d5e" x="96.125625" y="643.2705" style="stroke: #000000; stroke-width: 0.6"/>
      </g>
     </g>
    </g>
    <g id="ytick_9">
     <g id="line2d_30">
      <g>
       <use xlink:href="#mf5cc294d5e" x="96.125625" y="605.515312" style="stroke: #000000; stroke-width: 0.6"/>
      </g>
     </g>
    </g>
    <g id="ytick_10">
     <g id="line2d_31">
      <g>
       <use xlink:href="#mf5cc294d5e" x="96.125625" y="586.637719" style="stroke: #000000; stroke-width: 0.6"/>
      </g>
     </g>
    </g>
    <g id="ytick_11">
     <g id="line2d_32">
      <g>
       <use xlink:href="#mf5cc294d5e" x="96.125625" y="567.760125" style="stroke: #000000; stroke-width: 0.6"/>
      </g>
     </g>
    </g>
    <g id="ytick_12">
     <g id="line2d_33">
      <g>
       <use xlink:href="#mf5cc294d5e" x="96.125625" y="548.882531" style="stroke: #000000; stroke-width: 0.6"/>
      </g>
     </g>
    </g>
    <g id="ytick_13">
     <g id="line2d_34">
      <g>
       <use xlink:href="#mf5cc294d5e" x="96.125625" y="511.127344" style="stroke: #000000; stroke-width: 0.6"/>
      </g>
     </g>
    </g>
    <g id="ytick_14">
     <g id="line2d_35">
      <g>
       <use xlink:href="#mf5cc294d5e" x="96.125625" y="492.24975" style="stroke: #000000; stroke-width: 0.6"/>
      </g>
     </g>
    </g>
    <g id="ytick_15">
     <g id="line2d_36">
      <g>
       <use xlink:href="#mf5cc294d5e" x="96.125625" y="473.372156" style="stroke: #000000; stroke-width: 0.6"/>
      </g>
     </g>
    </g>
    <g id="ytick_16">
     <g id="line2d_37">
      <g>
       <use xlink:href="#mf5cc294d5e" x="96.125625" y="454.494562" style="stroke: #000000; stroke-width: 0.6"/>
      </g>
     </g>
    </g>
    <g id="ytick_17">
     <g id="line2d_38">
      <g>
       <use xlink:href="#mf5cc294d5e" x="96.125625" y="416.739375" style="stroke: #000000; stroke-width: 0.6"/>
      </g>
     </g>
    </g>
    <g id="ytick_18">
     <g id="line2d_39">
      <g>
       <use xlink:href="#mf5cc294d5e" x="96.125625" y="397.861781" style="stroke: #000000; stroke-width: 0.6"/>
      </g>
     </g>
    </g>
    <g id="ytick_19">
     <g id="line2d_40">
      <g>
       <use xlink:href="#mf5cc294d5e" x="96.125625" y="378.984187" style="stroke: #000000; stroke-width: 0.6"/>
      </g>
     </g>
    </g>
    <g id="ytick_20">
     <g id="line2d_41">
      <g>
       <use xlink:href="#mf5cc294d5e" x="96.125625" y="360.106594" style="stroke: #000000; stroke-width: 0.6"/>
      </g>
     </g>
    </g>
    <g id="ytick_21">
     <g id="line2d_42">
      <g>
       <use xlink:href="#mf5cc294d5e" x="96.125625" y="322.351406" style="stroke: #000000; stroke-width: 0.6"/>
      </g>
     </g>
    </g>
    <g id="ytick_22">
     <g id="line2d_43">
      <g>
       <use xlink:href="#mf5cc294d5e" x="96.125625" y="303.473812" style="stroke: #000000; stroke-width: 0.6"/>
      </g>
     </g>
    </g>
    <g id="ytick_23">
     <g id="line2d_44">
      <g>
       <use xlink:href="#mf5cc294d5e" x="96.125625" y="284.596219" style="stroke: #000000; stroke-width: 0.6"/>
      </g>
     </g>
    </g>
    <g id="ytick_24">
     <g id="line2d_45">
      <g>
       <use xlink:href="#mf5cc294d5e" x="96.125625" y="265.718625" style="stroke: #000000; stroke-width: 0.6"/>
      </g>
     </g>
    </g>
    <g id="ytick_25">
     <g id="line2d_46">
      <g>
       <use xlink:href="#mf5cc294d5e" x="96.125625" y="227.963437" style="stroke: #000000; stroke-width: 0.6"/>
      </g>
     </g>
    </g>
    <g id="ytick_26">
     <g id="line2d_47">
      <g>
       <use xlink:href="#mf5cc294d5e" x="96.125625" y="209.085844" style="stroke: #000000; stroke-width: 0.6"/>
      </g>
     </g>
    </g>
    <g id="ytick_27">
     <g id="line2d_48">
      <g>
       <use xlink:href="#mf5cc294d5e" x="96.125625" y="190.20825" style="stroke: #000000; stroke-width: 0.6"/>
      </g>
     </g>
    </g>
    <g id="ytick_28">
     <g id="line2d_49">
      <g>
       <use xlink:href="#mf5cc294d5e" x="96.125625" y="171.330656" style="stroke: #000000; stroke-width: 0.6"/>
      </g>
     </g>
    </g>
    <g id="ytick_29">
     <g id="line2d_50">
      <g>
       <use xlink:href="#mf5cc294d5e" x="96.125625" y="133.575469" style="stroke: #000000; stroke-width: 0.6"/>
      </g>
     </g>
    </g>
    <g id="ytick_30">
     <g id="line2d_51">
      <g>
       <use xlink:href="#mf5cc294d5e" x="96.125625" y="114.697875" style="stroke: #000000; stroke-width: 0.6"/>
      </g>
     </g>
    </g>
    <g id="ytick_31">
     <g id="line2d_52">
      <g>
       <use xlink:href="#mf5cc294d5e" x="96.125625" y="95.820281" style="stroke: #000000; stroke-width: 0.6"/>
      </g>
     </g>
    </g>
    <g id="ytick_32">
     <g id="line2d_53">
      <g>
       <use xlink:href="#mf5cc294d5e" x="96.125625" y="76.942687" style="stroke: #000000; stroke-width: 0.6"/>
      </g>
     </g>
    </g>
    <g id="ytick_33">
     <g id="line2d_54">
      <g>
       <use xlink:href="#mf5cc294d5e" x="96.125625" y="39.1875" style="stroke: #000000; stroke-width: 0.6"/>
      </g>
     </g>
    </g>
    <g id="text_15">
     <!-- Heat Flux $\mathrm{W} / \mathrm{m}^2$ -->
     <g transform="translate(28.940625 445.779) rotate(-90) scale(0.3 -0.3)">
      <defs>
       <path id="LiberationSans-48" d="M 3503 0 
L 3503 2041 
L 1122 2041 
L 1122 0 
L 525 0 
L 525 4403 
L 1122 4403 
L 1122 2541 
L 3503 2541 
L 3503 4403 
L 4100 4403 
L 4100 0 
L 3503 0 
z
" transform="scale(0.015625)"/>
       <path id="LiberationSans-61" d="M 1294 -63 
Q 784 -63 528 206 
Q 272 475 272 944 
Q 272 1469 617 1750 
Q 963 2031 1731 2050 
L 2491 2063 
L 2491 2247 
Q 2491 2659 2316 2837 
Q 2141 3016 1766 3016 
Q 1388 3016 1216 2887 
Q 1044 2759 1009 2478 
L 422 2531 
Q 566 3444 1778 3444 
Q 2416 3444 2737 3151 
Q 3059 2859 3059 2306 
L 3059 850 
Q 3059 600 3125 473 
Q 3191 347 3375 347 
Q 3456 347 3559 369 
L 3559 19 
Q 3347 -31 3125 -31 
Q 2813 -31 2670 133 
Q 2528 297 2509 647 
L 2491 647 
Q 2275 259 1989 98 
Q 1703 -63 1294 -63 
z
M 1422 359 
Q 1731 359 1972 500 
Q 2213 641 2352 886 
Q 2491 1131 2491 1391 
L 2491 1669 
L 1875 1656 
Q 1478 1650 1273 1575 
Q 1069 1500 959 1344 
Q 850 1188 850 934 
Q 850 659 998 509 
Q 1147 359 1422 359 
z
" transform="scale(0.015625)"/>
       <path id="LiberationSans-74" d="M 1731 25 
Q 1453 -50 1163 -50 
Q 488 -50 488 716 
L 488 2972 
L 97 2972 
L 97 3381 
L 509 3381 
L 675 4138 
L 1050 4138 
L 1050 3381 
L 1675 3381 
L 1675 2972 
L 1050 2972 
L 1050 838 
Q 1050 594 1129 495 
Q 1209 397 1406 397 
Q 1519 397 1731 441 
L 1731 25 
z
" transform="scale(0.015625)"/>
       <path id="LiberationSans-46" d="M 1122 3916 
L 1122 2278 
L 3578 2278 
L 3578 1784 
L 1122 1784 
L 1122 0 
L 525 0 
L 525 4403 
L 3653 4403 
L 3653 3916 
L 1122 3916 
z
" transform="scale(0.015625)"/>
       <path id="LiberationSans-6c" d="M 431 0 
L 431 4638 
L 994 4638 
L 994 0 
L 431 0 
z
" transform="scale(0.015625)"/>
       <path id="LiberationSans-75" d="M 981 3381 
L 981 1238 
Q 981 903 1047 718 
Q 1113 534 1256 453 
Q 1400 372 1678 372 
Q 2084 372 2318 650 
Q 2553 928 2553 1422 
L 2553 3381 
L 3116 3381 
L 3116 722 
Q 3116 131 3134 0 
L 2603 0 
Q 2600 16 2597 84 
Q 2594 153 2589 242 
Q 2584 331 2578 578 
L 2569 578 
Q 2375 228 2120 82 
Q 1866 -63 1488 -63 
Q 931 -63 673 214 
Q 416 491 416 1128 
L 416 3381 
L 981 3381 
z
" transform="scale(0.015625)"/>
       <path id="LiberationSans-78" d="M 2503 0 
L 1594 1388 
L 678 0 
L 72 0 
L 1275 1738 
L 128 3381 
L 750 3381 
L 1594 2066 
L 2431 3381 
L 3059 3381 
L 1913 1744 
L 3131 0 
L 2503 0 
z
" transform="scale(0.015625)"/>
       <path id="STIXGeneral-Regular-57" d="M 5965 4237 
L 5965 4115 
Q 5709 4064 5616 3990 
Q 5523 3917 5434 3667 
Q 4704 1709 4128 -70 
L 4032 -70 
Q 3642 1011 3008 2637 
L 2022 -70 
L 1926 -70 
Q 1709 576 1277 1753 
Q 845 2931 698 3347 
Q 538 3808 406 3958 
Q 275 4109 32 4115 
L 32 4237 
L 1594 4237 
L 1594 4115 
Q 1357 4109 1270 4064 
Q 1184 4019 1184 3917 
Q 1184 3808 1254 3616 
L 2176 1210 
L 2842 3021 
L 2662 3501 
Q 2509 3917 2400 4013 
Q 2291 4109 2010 4115 
L 2010 4237 
L 3706 4237 
L 3706 4115 
Q 3213 4102 3213 3891 
Q 3213 3808 3322 3520 
L 4237 1190 
L 5043 3360 
Q 5152 3667 5152 3853 
Q 5152 4109 4704 4115 
L 4704 4237 
L 5965 4237 
z
" transform="scale(0.015625)"/>
       <path id="STIXGeneral-Regular-2f" d="M 1837 4326 
L 378 -90 
L -58 -90 
L 1408 4326 
L 1837 4326 
z
" transform="scale(0.015625)"/>
       <path id="STIXGeneral-Regular-6d" d="M 4960 0 
L 3565 0 
L 3565 96 
Q 3834 122 3907 208 
Q 3981 294 3981 576 
L 3981 1894 
Q 3981 2278 3869 2444 
Q 3757 2611 3488 2611 
Q 3264 2611 3107 2521 
Q 2950 2432 2803 2221 
L 2803 608 
Q 2803 301 2896 201 
Q 2989 102 3264 96 
L 3264 0 
L 1830 0 
L 1830 96 
Q 2112 115 2189 188 
Q 2266 262 2266 550 
L 2266 1901 
Q 2266 2611 1850 2611 
Q 1670 2611 1468 2531 
Q 1267 2451 1171 2336 
Q 1088 2240 1088 2227 
L 1088 448 
Q 1088 243 1177 176 
Q 1267 109 1523 96 
L 1523 0 
L 102 0 
L 102 96 
Q 371 102 460 195 
Q 550 288 550 563 
L 550 2150 
Q 550 2387 499 2480 
Q 448 2573 326 2573 
Q 230 2573 122 2547 
L 122 2656 
Q 557 2778 1011 2944 
L 1062 2925 
L 1062 2451 
L 1075 2451 
Q 1363 2752 1584 2848 
Q 1805 2944 2054 2944 
Q 2560 2944 2733 2406 
Q 3232 2944 3776 2944 
Q 4518 2944 4518 1792 
L 4518 493 
Q 4518 282 4582 202 
Q 4646 122 4794 109 
L 4960 96 
L 4960 0 
z
" transform="scale(0.015625)"/>
       <path id="STIXGeneral-Regular-32" d="M 3034 877 
L 2688 0 
L 186 0 
L 186 77 
L 1325 1286 
Q 1773 1754 1965 2144 
Q 2157 2534 2157 2950 
Q 2157 3379 1920 3616 
Q 1683 3853 1267 3853 
Q 922 3853 720 3673 
Q 518 3494 326 3021 
L 192 3053 
Q 301 3648 630 3987 
Q 960 4326 1523 4326 
Q 2054 4326 2380 4006 
Q 2707 3686 2707 3200 
Q 2707 2477 1888 1613 
L 832 486 
L 2330 486 
Q 2541 486 2665 569 
Q 2790 653 2944 915 
L 3034 877 
z
" transform="scale(0.015625)"/>
      </defs>
      <use xlink:href="#LiberationSans-48" transform="translate(0 0.409375)"/>
      <use xlink:href="#LiberationSans-65" transform="translate(72.216797 0.409375)"/>
      <use xlink:href="#LiberationSans-61" transform="translate(127.832031 0.409375)"/>
      <use xlink:href="#LiberationSans-74" transform="translate(183.447266 0.409375)"/>
      <use xlink:href="#LiberationSans-20" transform="translate(211.230469 0.409375)"/>
      <use xlink:href="#LiberationSans-46" transform="translate(239.013672 0.409375)"/>
      <use xlink:href="#LiberationSans-6c" transform="translate(300.097656 0.409375)"/>
      <use xlink:href="#LiberationSans-75" transform="translate(322.314453 0.409375)"/>
      <use xlink:href="#LiberationSans-78" transform="translate(377.929688 0.409375)"/>
      <use xlink:href="#LiberationSans-20" transform="translate(427.929688 0.409375)"/>
      <use xlink:href="#STIXGeneral-Regular-57" transform="translate(455.712891 0.409375)"/>
      <use xlink:href="#STIXGeneral-Regular-2f" transform="translate(550.112885 0.409375)"/>
      <use xlink:href="#STIXGeneral-Regular-6d" transform="translate(577.912872 0.409375)"/>
      <use xlink:href="#STIXGeneral-Regular-32" transform="translate(657.256141 35.684375) scale(0.7)"/>
     </g>
    </g>
    <g id="text_16">
     <!-- $\times\mathdefault{10^{10}}\mathdefault{}$ -->
     <g transform="translate(96.125625 36.1875) scale(0.4 -0.4)">
      <defs>
       <path id="STIXGeneral-Regular-d7" d="M 3821 141 
L 3526 -160 
L 2048 1312 
L 570 -160 
L 275 134 
L 1747 1613 
L 275 3091 
L 576 3386 
L 2048 1914 
L 3526 3386 
L 3821 3098 
L 2349 1613 
L 3821 141 
z
" transform="scale(0.015625)"/>
      </defs>
      <use xlink:href="#STIXGeneral-Regular-d7" transform="translate(0 0.140625)"/>
      <use xlink:href="#LiberationSans-31" transform="translate(63.999985 0.140625)"/>
      <use xlink:href="#LiberationSans-30" transform="translate(119.615219 0.140625)"/>
      <use xlink:href="#LiberationSans-31" transform="translate(176.154946 37.120312) scale(0.7)"/>
      <use xlink:href="#LiberationSans-30" transform="translate(215.08561 37.120312) scale(0.7)"/>
     </g>
    </g>
   </g>
   <g id="line2d_55">
    <path d="M 96.125625 349.078453 
L 96.392666 349.246518 
L 96.659707 349.179302 
L 97.015762 348.834386 
L 97.549844 347.942391 
L 99.597158 343.779471 
L 100.13124 342.095793 
L 100.576309 340.055583 
L 101.110391 336.498819 
L 101.644473 331.381818 
L 102.267569 323.136169 
L 103.068692 309.169881 
L 105.20502 269.53592 
L 105.739102 264.196846 
L 106.095157 262.396357 
L 106.362198 262.042214 
L 106.540225 262.284847 
L 106.807266 263.309146 
L 107.163321 265.786698 
L 107.697403 271.386925 
L 109.655704 294.14224 
L 110.189786 297.373141 
L 110.634854 298.940207 
L 111.168936 299.944609 
L 112.059073 301.206293 
L 112.504142 302.332322 
L 112.94921 304.115858 
L 113.483292 307.245442 
L 114.284415 313.577875 
L 115.975675 327.426508 
L 116.598771 330.58415 
L 117.043839 331.91165 
L 117.399894 332.418553 
L 117.666935 332.524273 
L 117.933976 332.418266 
L 118.379044 331.918035 
L 119.803263 329.895155 
L 120.070304 329.877556 
L 120.337345 330.101814 
L 120.604386 330.577582 
L 120.960441 331.674268 
L 121.405509 333.862032 
L 121.939591 337.787828 
L 122.562687 344.255981 
L 123.36381 355.447915 
L 124.431974 374.231413 
L 126.301262 407.424547 
L 127.102385 417.368056 
L 127.72548 422.6306 
L 128.348576 426.100453 
L 129.238713 429.639605 
L 130.217863 433.825749 
L 131.375041 438.951582 
L 131.731096 439.725866 
L 131.998137 439.816894 
L 132.176164 439.585964 
L 132.443205 438.761466 
L 132.79926 436.708433 
L 133.244328 432.548246 
L 133.77841 425.347388 
L 134.579534 411.144396 
L 137.338958 358.892023 
L 139.030217 329.314099 
L 140.009368 307.990145 
L 143.035833 237.531961 
L 143.658929 229.561464 
L 144.103997 226.026729 
L 144.460052 224.443031 
L 144.727093 223.906718 
L 144.90512 223.828112 
L 145.083147 223.963124 
L 145.350189 224.504439 
L 145.706243 225.834592 
L 146.151312 228.332325 
L 146.774407 233.223434 
L 147.397503 239.792289 
L 148.020599 248.557439 
L 148.643695 260.444924 
L 149.26679 276.450915 
L 149.9789 300.537214 
L 150.95805 342.518175 
L 152.64931 416.918184 
L 153.272406 435.182539 
L 153.717474 442.922654 
L 153.984515 445.170711 
L 154.162543 445.627625 
L 154.251556 445.544582 
L 154.429584 444.766297 
L 154.696625 442.031632 
L 155.052679 435.556957 
L 155.497748 423.239214 
L 156.120843 399.348052 
L 157.189008 347.6281 
L 158.346185 295.065997 
L 158.969281 276.546907 
L 159.41435 269.662872 
L 159.681391 268.290622 
L 159.770404 268.309707 
L 159.948432 269.037797 
L 160.215473 271.841912 
L 160.571527 278.617213 
L 161.105609 294.325278 
L 161.906732 326.221396 
L 163.419965 387.337806 
L 164.043061 404.339495 
L 164.577143 413.34322 
L 164.933198 416.489624 
L 165.200239 417.42567 
L 165.378266 417.445076 
L 165.556293 417.031827 
L 165.823334 415.656386 
L 166.268403 411.715764 
L 166.891498 403.890907 
L 168.493745 379.725378 
L 169.917963 355.997799 
L 170.986128 334.052249 
L 173.122456 288.361336 
L 173.745552 279.871459 
L 174.19062 276.109041 
L 174.546675 274.487022 
L 174.813716 274.057009 
L 174.991743 274.107696 
L 175.258784 274.693864 
L 175.614839 276.268859 
L 176.148921 280.009171 
L 176.950044 287.695561 
L 178.018208 300.259072 
L 178.997359 314.40898 
L 179.976509 332.108604 
L 181.756783 365.48667 
L 182.201851 370.324261 
L 182.557906 372.29831 
L 182.735933 372.583192 
L 182.824947 372.549023 
L 183.002974 372.116066 
L 183.270015 370.603857 
L 183.62607 367.108407 
L 184.160152 359.219936 
L 185.228316 338.772351 
L 186.118453 323.505718 
L 186.652535 317.464979 
L 187.097603 314.822059 
L 187.364644 314.330336 
L 187.542672 314.458628 
L 187.809713 315.28154 
L 188.165767 317.465526 
L 188.699849 322.526402 
L 190.302096 339.228324 
L 190.65815 340.91857 
L 190.925191 341.359591 
L 191.103219 341.208584 
L 191.37026 340.355382 
L 191.726314 338.030877 
L 192.171383 333.375893 
L 192.794478 324.23751 
L 193.862643 304.516686 
L 195.73193 270.023151 
L 196.800094 254.082476 
L 197.779244 242.743857 
L 198.669381 235.123973 
L 201.250778 215.350807 
L 202.229928 206.926587 
L 202.585983 205.436201 
L 202.76401 205.287275 
L 202.942038 205.657088 
L 203.209079 207.326773 
L 203.47612 210.551972 
L 203.832174 217.567509 
L 204.277243 231.109162 
L 204.811325 254.511375 
L 205.523434 296.181323 
L 208.015817 453.115819 
L 208.638913 474.397493 
L 209.083981 483.061421 
L 209.440036 486.349162 
L 209.618063 486.897631 
L 209.707077 486.927269 
L 209.885105 486.527045 
L 210.152146 484.941459 
L 210.597214 480.311937 
L 212.19946 461.31281 
L 212.555515 459.890666 
L 212.733542 459.813004 
L 212.91157 460.184968 
L 213.178611 461.53262 
L 213.534665 464.75933 
L 214.068747 472.054916 
L 215.670994 496.542571 
L 216.027048 499.145301 
L 216.294089 499.848435 
L 216.383103 499.825914 
L 216.56113 499.403206 
L 216.828171 497.739411 
L 217.184226 493.647692 
L 217.629294 485.52708 
L 218.25239 469.09034 
L 219.053513 440.633897 
L 220.032664 397.153173 
L 221.456883 322.723193 
L 222.881101 250.874531 
L 223.593211 224.384567 
L 224.127293 211.264186 
L 224.572361 205.361578 
L 224.839402 204.069633 
L 224.928416 204.003259 
L 225.106443 204.426495 
L 225.373484 206.346403 
L 225.729539 211.160397 
L 226.263621 222.485462 
L 226.975731 243.131131 
L 229.468114 320.811127 
L 230.180223 335.245065 
L 230.803319 343.678128 
L 231.337401 347.904153 
L 231.693455 349.329951 
L 231.960496 349.722194 
L 232.138524 349.702155 
L 232.405565 349.274428 
L 232.76162 348.042328 
L 233.295702 345.028992 
L 234.096825 338.951824 
L 235.254003 330.315525 
L 235.788085 327.697109 
L 236.233153 326.52857 
L 236.500194 326.249467 
L 236.767235 326.271367 
L 237.12329 326.622352 
L 237.924413 327.547794 
L 238.191454 327.482904 
L 238.458495 327.046649 
L 238.725536 326.167568 
L 239.081591 324.175399 
L 239.526659 320.303055 
L 240.149755 312.483446 
L 241.217919 295.160215 
L 242.197069 280.450699 
L 242.731151 275.056842 
L 243.087206 272.980609 
L 243.354247 272.319327 
L 243.532275 272.333636 
L 243.710302 272.729839 
L 243.977343 274.037263 
L 244.333398 277.103192 
L 244.778466 282.964043 
L 245.401562 294.473655 
L 246.469726 319.549537 
L 247.626904 345.377644 
L 248.249999 354.738639 
L 248.695068 358.346207 
L 248.962109 359.099106 
L 249.051123 359.090609 
L 249.22915 358.684388 
L 249.496191 357.090377 
L 249.852246 353.105327 
L 250.297314 345.233897 
L 250.92041 329.416901 
L 251.810547 299.936604 
L 253.412793 245.92056 
L 254.124902 228.948357 
L 254.658984 220.47698 
L 255.104053 216.323777 
L 255.460107 214.850664 
L 255.638135 214.705156 
L 255.816162 214.946751 
L 256.083203 216.020622 
L 256.439258 218.697333 
L 256.884326 223.922632 
L 257.418408 232.892434 
L 258.041504 246.972608 
L 258.753613 267.938649 
L 259.554736 297.908566 
L 260.533887 343.225098 
L 263.115284 469.482069 
L 263.649366 484.599397 
L 264.094434 491.571176 
L 264.361475 493.119743 
L 264.450489 493.18623 
L 264.628516 492.6687 
L 264.895557 490.244006 
L 265.251612 484.099028 
L 265.69668 472.201255 
L 266.40879 445.671628 
L 269.168214 332.564183 
L 269.791309 318.138626 
L 270.236378 311.800228 
L 270.592432 309.169957 
L 270.859473 308.617881 
L 271.037501 308.897005 
L 271.304542 310.248811 
L 271.660597 313.663843 
L 272.194679 321.658844 
L 273.084815 339.454254 
L 274.063966 357.656918 
L 274.509034 362.747645 
L 274.865089 364.621435 
L 275.043116 364.725998 
L 275.221144 364.249357 
L 275.488185 362.420005 
L 275.844239 357.868553 
L 276.289308 348.927034 
L 276.912403 331.368491 
L 278.158595 287.304606 
L 279.137745 256.698061 
L 279.760841 243.964464 
L 280.20591 238.996693 
L 280.472951 237.758549 
L 280.650978 237.630861 
L 280.829005 238.060874 
L 281.096046 239.680628 
L 281.452101 243.522747 
L 281.986183 252.243478 
L 282.787306 269.7882 
L 284.745607 314.364655 
L 285.54673 326.903255 
L 286.169826 333.397585 
L 286.703908 336.842757 
L 287.148976 338.486327 
L 287.594045 339.325416 
L 288.128127 339.816076 
L 288.662209 340.311867 
L 289.018264 340.97699 
L 289.374318 342.140838 
L 289.819387 344.533357 
L 290.353469 349.047127 
L 290.976564 356.751622 
L 291.688674 368.667394 
L 294.181057 414.421735 
L 294.715139 419.354073 
L 295.071194 421.039559 
L 295.338235 421.454469 
L 295.516262 421.331482 
L 295.783303 420.632935 
L 296.139358 418.820196 
L 296.67344 414.517747 
L 297.474563 405.738042 
L 298.720754 389.347986 
L 299.877932 371.358565 
L 300.857083 352.599634 
L 302.01426 325.585865 
L 304.061575 276.233898 
L 304.773684 264.581722 
L 305.307767 259.117451 
L 305.752835 256.762453 
L 306.019876 256.191613 
L 306.197903 256.119199 
L 306.375931 256.251738 
L 306.642972 256.78184 
L 307.08804 258.254972 
L 308.334232 263.516554 
L 309.135355 267.318803 
L 309.669437 271.028722 
L 310.203519 276.651244 
L 310.737601 284.853369 
L 311.360697 298.083769 
L 312.16182 320.559186 
L 314.743216 398.260042 
L 315.366312 408.705298 
L 315.81138 413.111064 
L 316.167435 414.901773 
L 316.434476 415.365237 
L 316.612504 415.292294 
L 316.879545 414.710241 
L 317.235599 413.306145 
L 318.926859 405.300252 
L 319.282914 404.809396 
L 319.549955 404.8265 
L 319.816996 405.144493 
L 320.262064 406.139266 
L 321.063187 407.923765 
L 321.241215 408.019796 
L 321.419242 407.921273 
L 321.686283 407.299899 
L 321.953324 405.991625 
L 322.309379 403.044983 
L 322.754447 397.139109 
L 323.288529 386.533658 
L 323.911625 369.445434 
L 324.712748 341.130859 
L 326.136967 280.965812 
L 327.561186 223.478763 
L 328.362309 199.384516 
L 328.896391 188.871546 
L 329.252446 184.88777 
L 329.519487 183.667976 
L 329.6085 183.600299 
L 329.697514 183.714075 
L 329.875541 184.498967 
L 330.142582 187.069095 
L 330.498637 193.108868 
L 330.943706 204.879519 
L 331.566801 228.769058 
L 332.367924 270.145062 
L 334.949321 415.238474 
L 335.483403 429.971303 
L 335.839458 434.344185 
L 336.017485 434.795435 
L 336.106499 434.596371 
L 336.284526 433.340727 
L 336.551567 429.366503 
L 336.907622 420.405045 
L 337.441704 400.320531 
L 338.242827 360.17897 
L 339.845073 278.326498 
L 340.468169 257.564316 
L 340.913237 249.146627 
L 341.180278 246.9751 
L 341.358306 246.775885 
L 341.536333 247.563175 
L 341.803374 250.608754 
L 342.159429 258.028441 
L 342.604497 272.281024 
L 343.227593 299.659727 
L 345.541949 409.232285 
L 346.076031 421.642566 
L 346.432085 425.738513 
L 346.699126 426.654718 
L 346.78814 426.565993 
L 346.966167 425.808114 
L 347.233209 423.346873 
L 347.678277 416.129195 
L 348.301373 401.124792 
L 349.636578 361.131421 
L 350.704742 332.435452 
L 351.416851 318.514479 
L 351.950933 311.584759 
L 352.396002 308.297245 
L 352.663043 307.432538 
L 352.84107 307.325219 
L 353.019098 307.558414 
L 353.286139 308.564722 
L 353.642193 311.001083 
L 354.176275 316.635592 
L 355.155426 330.412405 
L 356.045563 342.048639 
L 356.579645 346.604155 
L 356.935699 348.156435 
L 357.20274 348.444507 
L 357.380768 348.21185 
L 357.647809 347.23676 
L 358.003863 344.77088 
L 358.537946 338.968508 
L 359.339069 327.188999 
L 360.58526 309.070037 
L 361.119342 303.982262 
L 361.564411 301.58139 
L 361.831452 300.98786 
L 362.009479 300.945536 
L 362.187506 301.150736 
L 362.454547 301.900497 
L 362.810602 303.69098 
L 363.344684 307.614669 
L 365.391999 324.238654 
L 365.837067 325.880401 
L 366.104108 326.246786 
L 366.282135 326.207026 
L 366.549176 325.709043 
L 366.816218 324.693602 
L 367.261286 321.80624 
L 367.795368 316.51334 
L 368.596491 305.79519 
L 369.931696 287.400146 
L 370.465778 282.734114 
L 370.821833 281.121647 
L 370.99986 280.846732 
L 371.177888 280.934003 
L 371.355915 281.402564 
L 371.622956 282.780572 
L 371.979011 285.89007 
L 372.513093 293.118206 
L 373.136189 304.904885 
L 374.026325 326.342018 
L 375.628572 371.717069 
L 376.874763 404.391673 
L 377.586872 418.062298 
L 378.120955 424.707494 
L 378.477009 427.249305 
L 378.74405 428.13357 
L 378.922078 428.262353 
L 379.100105 428.015736 
L 379.367146 426.978412 
L 379.723201 424.43947 
L 380.168269 419.665345 
L 380.791365 410.433409 
L 381.681502 393.649567 
L 383.639803 351.00184 
L 384.79698 328.68071 
L 385.420076 320.066141 
L 385.865144 316.104169 
L 386.221199 314.462932 
L 386.399227 314.198098 
L 386.577254 314.308173 
L 386.755281 314.810412 
L 387.022322 316.265119 
L 387.378377 319.504967 
L 387.912459 326.780983 
L 388.713582 341.483069 
L 390.048787 366.141874 
L 390.582869 372.347694 
L 390.938924 374.531341 
L 391.205965 375.016174 
L 391.383992 374.75236 
L 391.651033 373.471024 
L 392.007088 370.142225 
L 392.452157 363.526024 
L 393.075252 350.376232 
L 394.410457 315.325543 
L 395.300594 295.18636 
L 395.834676 287.126307 
L 396.279745 283.350826 
L 396.546786 282.423162 
L 396.724813 282.376025 
L 396.90284 282.76126 
L 397.169881 284.109082 
L 397.525936 287.173841 
L 398.060018 293.944875 
L 400.018319 321.401429 
L 400.374374 323.636023 
L 400.641415 324.346237 
L 400.819442 324.346826 
L 400.99747 323.951482 
L 401.264511 322.630187 
L 401.620565 319.544704 
L 402.154647 312.416959 
L 402.95577 297.788712 
L 404.379989 271.190277 
L 404.914071 264.877572 
L 405.270126 262.614167 
L 405.537167 262.091881 
L 405.715194 262.33946 
L 405.982235 263.641278 
L 406.33829 267.108224 
L 406.783359 274.203254 
L 407.406454 288.798598 
L 408.296591 316.487724 
L 409.809824 364.323263 
L 410.432919 376.766844 
L 410.788974 380.654062 
L 411.056015 381.865324 
L 411.145029 381.939664 
L 411.323056 381.564906 
L 411.590097 379.778066 
L 411.946152 375.20091 
L 412.39122 366.391756 
L 413.10333 347.237865 
L 414.616562 305.133096 
L 415.150644 295.671948 
L 415.595713 291.261991 
L 415.862754 290.247 
L 416.040781 290.229859 
L 416.218808 290.729719 
L 416.485849 292.426286 
L 416.841904 296.23871 
L 417.375986 304.712088 
L 418.266123 323.223944 
L 419.423301 346.364391 
L 420.046396 354.58899 
L 420.491465 357.86174 
L 420.758506 358.780175 
L 420.936533 358.95301 
L 421.114561 358.817386 
L 421.381602 358.109933 
L 421.82667 355.854471 
L 423.695957 344.717072 
L 424.052012 344.041809 
L 424.319053 343.909845 
L 424.586094 344.023335 
L 425.120176 344.643981 
L 425.565244 345.13909 
L 425.832286 345.214979 
L 426.099327 345.048928 
L 426.366368 344.564059 
L 426.722422 343.40273 
L 427.256504 340.646117 
L 429.214805 328.884445 
L 429.481846 328.438807 
L 429.659874 328.422801 
L 429.837901 328.646391 
L 430.104942 329.435042 
L 430.460997 331.356859 
L 430.906065 335.104992 
L 431.529161 342.528 
L 432.419298 356.208254 
L 434.555626 390.4134 
L 435.089708 395.262809 
L 435.445763 396.771034 
L 435.62379 396.938082 
L 435.801817 396.673777 
L 436.068858 395.44998 
L 436.424913 392.247755 
L 436.869981 385.819953 
L 437.493077 372.809931 
L 438.383214 348.463353 
L 440.430529 290.366892 
L 441.231652 274.236818 
L 441.943761 264.476668 
L 442.566857 259.126758 
L 443.100939 256.346258 
L 443.635021 254.62466 
L 445.148253 250.274526 
L 445.860363 246.927661 
L 448.352746 233.953996 
L 448.886828 232.476598 
L 449.331896 231.775805 
L 449.687951 231.557524 
L 449.954992 231.620499 
L 450.222033 231.88556 
L 450.578088 232.582351 
L 451.023156 234.096522 
L 451.557238 236.91187 
L 452.09132 241.016104 
L 452.714416 247.67442 
L 453.426525 257.986495 
L 454.138635 271.575153 
L 454.939758 291.170341 
L 455.918908 321.031447 
L 459.034387 422.141482 
L 459.657483 434.021321 
L 460.102551 439.244695 
L 460.458606 441.26977 
L 460.636633 441.564298 
L 460.725647 441.537851 
L 460.903674 441.140609 
L 461.170715 439.700438 
L 461.52677 436.347173 
L 462.060852 428.645851 
L 462.950989 411.720314 
L 464.108167 390.405472 
L 464.731262 382.420929 
L 465.265345 378.015201 
L 465.710413 375.962243 
L 466.155481 374.995597 
L 466.689563 374.557807 
L 466.956604 374.287178 
L 467.223645 373.765949 
L 467.5797 372.364854 
L 467.935755 369.751062 
L 468.29181 365.559236 
L 468.736878 357.583937 
L 469.27096 343.408924 
L 469.894056 320.246101 
L 470.784193 276.946036 
L 472.475452 190.894451 
L 473.009534 173.157913 
L 473.454603 164.873198 
L 473.721644 163.122641 
L 473.810658 163.106066 
L 473.988685 163.911724 
L 474.255726 167.263441 
L 474.611781 175.587063 
L 475.056849 191.710623 
L 475.679945 222.93388 
L 478.350355 370.277766 
L 478.884437 385.365211 
L 479.329506 392.486556 
L 479.596547 394.471988 
L 479.774574 394.927033 
L 479.863588 394.89983 
L 480.041615 394.38821 
L 480.308656 392.545889 
L 480.664711 388.407203 
L 481.198793 379.419561 
L 483.869203 329.856045 
L 484.403285 324.913634 
L 484.848354 322.453728 
L 485.204408 321.470446 
L 485.471449 321.293204 
L 485.649477 321.393935 
L 485.916518 321.870651 
L 486.272572 323.028636 
L 486.806654 325.811743 
L 487.42975 330.324094 
L 488.319887 338.487182 
L 489.477065 348.887596 
L 490.011147 351.774494 
L 490.278188 352.406204 
L 490.456215 352.452996 
L 490.634243 352.182765 
L 490.901284 351.144945 
L 491.257338 348.546869 
L 491.702407 343.391704 
L 492.325502 332.989527 
L 494.728872 288.47211 
L 495.17394 285.159941 
L 495.440981 284.414899 
L 495.619008 284.433362 
L 495.797036 284.874437 
L 496.064077 286.279911 
L 496.420132 289.516984 
L 496.954214 297.014428 
L 497.666323 310.982054 
L 498.734487 337.325746 
L 500.24772 374.408202 
L 500.870815 385.14742 
L 501.315884 389.939497 
L 501.671939 391.780648 
L 501.849966 392.012125 
L 502.027993 391.775003 
L 502.295034 390.572349 
L 502.651089 387.481899 
L 503.185171 380.100212 
L 503.986294 364.896991 
L 505.766568 330.258483 
L 506.656704 317.864334 
L 507.368814 310.886798 
L 507.902896 307.444941 
L 508.347964 305.89426 
L 508.615005 305.605565 
L 508.793033 305.700595 
L 509.060074 306.287084 
L 509.416128 307.96819 
L 509.861197 311.476213 
L 510.395279 317.672481 
L 511.196402 330.104079 
L 513.243717 363.650805 
L 513.866812 369.925246 
L 514.311881 372.425715 
L 514.578922 373.085336 
L 514.756949 373.15726 
L 514.934976 372.931276 
L 515.202017 372.028493 
L 515.558072 369.768788 
L 516.003141 365.255722 
L 516.626236 356.033173 
L 517.427359 339.909703 
L 518.673551 309.216452 
L 519.919742 279.948536 
L 520.542838 269.557176 
L 520.987906 265.009809 
L 521.254948 263.626195 
L 521.432975 263.3385 
L 521.611002 263.544417 
L 521.78903 264.255328 
L 522.056071 266.292428 
L 522.412125 270.746125 
L 522.946207 280.902685 
L 523.658317 299.434876 
L 525.883659 361.36756 
L 526.506754 371.590079 
L 526.951823 375.985104 
L 527.307878 377.779552 
L 527.574919 378.193141 
L 527.752946 378.07408 
L 528.019987 377.378969 
L 528.376042 375.646742 
L 528.910124 371.766491 
L 530.957438 355.51362 
L 531.669548 352.148776 
L 532.292644 350.154247 
L 533.093767 348.413261 
L 534.072917 346.758827 
L 534.785026 345.939926 
L 535.141081 345.798573 
L 535.497136 345.89872 
L 535.853191 346.259452 
L 536.209245 346.888757 
L 536.832341 348.500542 
L 537.811491 351.028733 
L 538.167546 351.430586 
L 538.434587 351.3931 
L 538.701628 350.997043 
L 539.057683 349.837013 
L 539.502751 347.328924 
L 540.036833 342.708486 
L 540.748943 334.163804 
L 541.906121 316.92289 
L 543.330339 296.705383 
L 544.131463 288.471392 
L 544.665545 284.803419 
L 545.110613 283.084746 
L 545.377654 282.694037 
L 545.555681 282.723222 
L 545.733709 282.966724 
L 546.00075 283.792373 
L 546.356805 285.767441 
L 546.801873 289.673593 
L 547.335955 296.40876 
L 548.048064 308.606876 
L 549.116229 331.794558 
L 550.629461 364.800677 
L 551.252557 374.268338 
L 551.697625 378.448876 
L 552.05368 380.020454 
L 552.231707 380.182575 
L 552.409735 379.936241 
L 552.676776 378.786539 
L 553.03283 375.83633 
L 553.477899 370.084195 
L 554.100994 358.83609 
L 555.258172 332.744737 
L 556.41535 308.579711 
L 557.038446 299.58618 
L 557.483514 295.708533 
L 557.839569 294.365374 
L 558.017596 294.315442 
L 558.195624 294.675362 
L 558.462665 295.983712 
L 558.818719 299.153958 
L 559.263788 305.189484 
L 559.886883 316.880113 
L 561.133075 345.929617 
L 562.112225 366.5276 
L 562.735321 375.656747 
L 563.18039 379.730287 
L 563.536444 381.516994 
L 563.803485 382.025821 
L 563.981513 382.008567 
L 564.15954 381.730632 
L 564.426581 380.889748 
L 564.871649 378.577772 
L 565.761786 372.365911 
L 566.740937 366.097417 
L 567.364032 363.42839 
L 567.898114 362.026049 
L 568.432196 361.290351 
L 568.877265 361.055419 
L 570.034443 360.680095 
L 570.390497 360.162226 
L 570.746552 359.172159 
L 571.102607 357.527475 
L 571.547675 354.265207 
L 571.992744 349.355527 
L 572.526826 340.972641 
L 573.238935 325.566647 
L 574.396113 293.926035 
L 575.464277 266.760007 
L 576.087373 256.382692 
L 576.443427 253.105938 
L 576.710468 252.083226 
L 576.799482 252.023101 
L 576.977509 252.335242 
L 577.244551 253.870537 
L 577.600605 257.861355 
L 578.045674 265.84888 
L 578.668769 281.897346 
L 579.558906 312.059172 
L 582.051289 401.088472 
L 582.674385 414.604753 
L 583.119453 420.042614 
L 583.386494 421.424209 
L 583.564522 421.521466 
L 583.742549 420.974978 
L 584.00959 418.93718 
L 584.365645 414.030931 
L 584.899727 402.516241 
L 585.611836 381.386456 
L 587.837178 311.082842 
L 588.549288 296.793919 
L 589.08337 289.967442 
L 589.528438 286.730916 
L 589.884493 285.661576 
L 590.06252 285.577948 
L 590.240547 285.771311 
L 590.507588 286.535873 
L 590.952657 288.855721 
L 591.664766 294.350857 
L 592.999971 304.818105 
L 593.534053 307.45438 
L 593.979122 308.654428 
L 594.246163 308.928418 
L 594.513204 308.909163 
L 594.780245 308.618674 
L 595.314327 307.594225 
L 595.848409 306.614969 
L 596.11545 306.437897 
L 596.293477 306.51673 
L 596.471505 306.809955 
L 596.738546 307.747379 
L 597.094601 310.082537 
L 597.539669 315.089573 
L 597.984737 322.747624 
L 598.607833 338.024083 
L 599.49797 367.167493 
L 600.922189 414.480746 
L 601.545284 428.311132 
L 601.990353 434.359664 
L 602.346408 436.910292 
L 602.613449 437.614445 
L 602.791476 437.573065 
L 602.969503 437.178353 
L 603.325558 435.46306 
L 603.85964 431.269969 
L 606.352023 409.09344 
L 607.24216 404.200764 
L 608.22131 400.163149 
L 609.378488 395.508123 
L 610.090597 391.567293 
L 610.802707 386.211267 
L 611.60383 378.461882 
L 613.028049 362.064502 
L 614.185227 349.931733 
L 614.808322 345.329255 
L 615.253391 343.283114 
L 615.609445 342.521401 
L 615.787473 342.45065 
L 615.9655 342.598623 
L 616.232541 343.244544 
L 616.588596 344.892478 
L 617.033664 348.20079 
L 617.65676 354.941722 
L 618.63591 368.749455 
L 619.704075 383.142431 
L 620.32717 388.80737 
L 620.772239 391.088463 
L 621.128293 391.839187 
L 621.306321 391.884399 
L 621.573362 391.575939 
L 621.929416 390.572538 
L 622.374485 388.551107 
L 623.086594 384.12012 
L 624.332786 374.816015 
L 625.578977 363.97482 
L 626.558128 353.314047 
L 627.448264 341.064354 
L 628.427415 324.035025 
L 629.584593 299.232942 
L 631.542894 256.463262 
L 632.165989 247.646765 
L 632.611058 244.037671 
L 632.878099 243.120276 
L 633.056126 243.05345 
L 633.234154 243.449898 
L 633.501195 244.897111 
L 633.857249 248.391033 
L 634.302318 255.159141 
L 634.925413 268.466617 
L 635.993577 297.289494 
L 637.061742 323.976603 
L 637.684837 334.1749 
L 638.129906 338.07381 
L 638.396947 339.048494 
L 638.574974 339.165486 
L 638.753001 338.874556 
L 639.020043 337.794854 
L 639.465111 334.651087 
L 640.800316 323.960585 
L 641.067357 323.178821 
L 641.245384 323.113708 
L 641.423412 323.465316 
L 641.690453 324.816507 
L 642.046508 328.254832 
L 642.491576 335.24627 
L 643.025658 347.404529 
L 643.737767 369.125572 
L 644.983959 415.661917 
L 646.052123 452.492594 
L 646.675219 467.158577 
L 647.120287 472.94052 
L 647.387328 474.224763 
L 647.476342 474.260328 
L 647.654369 473.753314 
L 647.92141 471.482906 
L 648.277465 465.657809 
L 648.722533 454.038046 
L 649.345629 430.770562 
L 650.32478 383.376569 
L 651.659985 320.232415 
L 652.28308 300.547257 
L 652.728149 292.370937 
L 652.99519 290.017165 
L 653.173217 289.507451 
L 653.262231 289.556609 
L 653.440258 290.252267 
L 653.707299 292.721437 
L 654.063354 298.392115 
L 654.597436 310.905846 
L 656.911792 371.319261 
L 657.35686 376.607423 
L 657.712915 378.593214 
L 657.890942 378.864145 
L 658.068969 378.656001 
L 658.246997 378.023431 
L 658.603052 375.49557 
L 659.04812 370.371304 
L 659.760229 358.876685 
L 661.71853 325.086337 
L 662.252612 320.000221 
L 662.608667 318.351112 
L 662.786694 318.093282 
L 662.964722 318.222782 
L 663.142749 318.76506 
L 663.40979 320.309247 
L 663.765845 323.76544 
L 664.299927 331.698282 
L 665.012036 346.596196 
L 666.258228 379.198127 
L 667.415406 407.393399 
L 668.038501 417.673212 
L 668.48357 421.707486 
L 668.750611 422.596356 
L 668.839624 422.628826 
L 669.017652 422.281931 
L 669.284693 420.739065 
L 669.640747 416.782114 
L 670.085816 408.969131 
L 670.708912 393.687813 
L 673.112281 328.887237 
L 673.557349 323.13467 
L 673.913404 320.805331 
L 674.180445 320.341679 
L 674.358472 320.603435 
L 674.625513 321.790308 
L 674.981568 324.614037 
L 675.604664 331.785891 
L 676.850855 346.390523 
L 677.384937 350.063599 
L 677.740992 351.360635 
L 678.097047 351.874813 
L 678.364088 351.869271 
L 678.720143 351.563265 
L 679.254225 351.10723 
L 679.521266 351.155063 
L 679.788307 351.518125 
L 680.055348 352.259021 
L 680.411402 353.904419 
L 680.945485 357.779921 
L 681.657594 364.873035 
L 683.170826 380.282135 
L 683.704909 383.727202 
L 684.149977 385.413424 
L 684.506032 385.959232 
L 684.684059 385.973805 
L 684.9511 385.713974 
L 685.307155 384.897235 
L 685.841237 382.849073 
L 686.731374 378.245054 
L 688.244606 370.39207 
L 689.579811 364.1114 
L 689.579811 364.1114 
" clip-path="url(#p51afcd888a)" style="fill: none; stroke: #ff0000; stroke-width: 1.5; stroke-linecap: square"/>
   </g>
   <g id="patch_3">
    <path d="M 96.125625 643.2705 
L 96.125625 39.1875 
" style="fill: none; stroke: #000000; stroke-width: 0.8; stroke-linejoin: miter; stroke-linecap: square"/>
   </g>
   <g id="patch_4">
    <path d="M 689.520469 643.2705 
L 689.520469 39.1875 
" style="fill: none; stroke: #000000; stroke-width: 0.8; stroke-linejoin: miter; stroke-linecap: square"/>
   </g>
   <g id="patch_5">
    <path d="M 96.125625 643.2705 
L 689.520469 643.2705 
" style="fill: none; stroke: #000000; stroke-width: 0.8; stroke-linejoin: miter; stroke-linecap: square"/>
   </g>
   <g id="patch_6">
    <path d="M 96.125625 39.1875 
L 689.520469 39.1875 
" style="fill: none; stroke: #000000; stroke-width: 0.8; stroke-linejoin: miter; stroke-linecap: square"/>
   </g>
  </g>
 </g>
 <defs>
  <clipPath id="p51afcd888a">
   <rect x="96.125625" y="39.1875" width="593.394844" height="604.083"/>
  </clipPath>
 </defs>
</svg>
