<?xml version="1.0" encoding="utf-8" standalone="no"?>
<!DOCTYPE svg PUBLIC "-//W3C//DTD SVG 1.1//EN"
  "http://www.w3.org/Graphics/SVG/1.1/DTD/svg11.dtd">
<svg xmlns:xlink="http://www.w3.org/1999/xlink" width="712.051113pt" height="711.02175pt" viewBox="0 0 712.051113 711.02175" xmlns="http://www.w3.org/2000/svg" version="1.1">
 <metadata>
  <rdf:RDF xmlns:dc="http://purl.org/dc/elements/1.1/" xmlns:cc="http://creativecommons.org/ns#" xmlns:rdf="http://www.w3.org/1999/02/22-rdf-syntax-ns#">
   <cc:Work>
    <dc:type rdf:resource="http://purl.org/dc/dcmitype/StillImage"/>
    <dc:date>2025-01-30T22:18:46.664069</dc:date>
    <dc:format>image/svg+xml</dc:format>
    <dc:creator>
     <cc:Agent>
      <dc:title>Matplotlib v3.9.3, https://matplotlib.org/</dc:title>
     </cc:Agent>
    </dc:creator>
   </cc:Work>
  </rdf:RDF>
 </metadata>
 <defs>
  <style type="text/css">*{stroke-linejoin: round; stroke-linecap: butt}</style>
 </defs>
 <g id="figure_1">
  <g id="patch_1">
   <path d="M 0 711.02175 
L 712.051113 711.02175 
L 712.051113 0 
L 0 0 
z
" style="fill: #ffffff"/>
  </g>
  <g id="axes_1">
   <g id="patch_2">
    <path d="M 84.665625 640.3905 
L 704.851113 640.3905 
L 704.851113 39.1875 
L 84.665625 39.1875 
z
" style="fill: #ffffff"/>
   </g>
   <g id="matplotlib.axis_1">
    <g id="xtick_1">
     <g id="line2d_1">
      <defs>
       <path id="m979d416cc0" d="M 0 0 
L 0 -3.5 
" style="stroke: #000000; stroke-width: 0.8"/>
      </defs>
      <g>
       <use xlink:href="#m979d416cc0" x="159.567679" y="640.3905" style="stroke: #000000; stroke-width: 0.8"/>
      </g>
     </g>
     <g id="text_1">
      <!-- −2 -->
      <g transform="translate(142.465335 665.631125) scale(0.3 -0.3)">
       <defs>
        <path id="LiberationSans-2212" d="M 316 1900 
L 316 2356 
L 3425 2356 
L 3425 1900 
L 316 1900 
z
" transform="scale(0.015625)"/>
        <path id="LiberationSans-32" d="M 322 0 
L 322 397 
Q 481 763 711 1042 
Q 941 1322 1194 1548 
Q 1447 1775 1695 1969 
Q 1944 2163 2144 2356 
Q 2344 2550 2467 2762 
Q 2591 2975 2591 3244 
Q 2591 3606 2378 3806 
Q 2166 4006 1788 4006 
Q 1428 4006 1195 3811 
Q 963 3616 922 3263 
L 347 3316 
Q 409 3844 795 4156 
Q 1181 4469 1788 4469 
Q 2453 4469 2811 4155 
Q 3169 3841 3169 3263 
Q 3169 3006 3051 2753 
Q 2934 2500 2703 2247 
Q 2472 1994 1819 1463 
Q 1459 1169 1246 933 
Q 1034 697 941 478 
L 3238 478 
L 3238 0 
L 322 0 
z
" transform="scale(0.015625)"/>
       </defs>
       <use xlink:href="#LiberationSans-2212"/>
       <use xlink:href="#LiberationSans-32" x="58.398438"/>
      </g>
     </g>
    </g>
    <g id="xtick_2">
     <g id="line2d_2">
      <g>
       <use xlink:href="#m979d416cc0" x="277.163024" y="640.3905" style="stroke: #000000; stroke-width: 0.8"/>
      </g>
     </g>
     <g id="text_2">
      <!-- −1 -->
      <g transform="translate(260.06068 665.631125) scale(0.3 -0.3)">
       <defs>
        <path id="LiberationSans-31" d="M 488 0 
L 488 478 
L 1609 478 
L 1609 3866 
L 616 3156 
L 616 3688 
L 1656 4403 
L 2175 4403 
L 2175 478 
L 3247 478 
L 3247 0 
L 488 0 
z
" transform="scale(0.015625)"/>
       </defs>
       <use xlink:href="#LiberationSans-2212"/>
       <use xlink:href="#LiberationSans-31" x="58.398438"/>
      </g>
     </g>
    </g>
    <g id="xtick_3">
     <g id="line2d_3">
      <g>
       <use xlink:href="#m979d416cc0" x="394.758369" y="640.3905" style="stroke: #000000; stroke-width: 0.8"/>
      </g>
     </g>
     <g id="text_3">
      <!-- 0 -->
      <g transform="translate(386.416963 665.631125) scale(0.3 -0.3)">
       <defs>
        <path id="LiberationSans-30" d="M 3309 2203 
Q 3309 1100 2920 518 
Q 2531 -63 1772 -63 
Q 1013 -63 631 515 
Q 250 1094 250 2203 
Q 250 3338 620 3903 
Q 991 4469 1791 4469 
Q 2569 4469 2939 3897 
Q 3309 3325 3309 2203 
z
M 2738 2203 
Q 2738 3156 2517 3584 
Q 2297 4013 1791 4013 
Q 1272 4013 1045 3591 
Q 819 3169 819 2203 
Q 819 1266 1048 831 
Q 1278 397 1778 397 
Q 2275 397 2506 840 
Q 2738 1284 2738 2203 
z
" transform="scale(0.015625)"/>
       </defs>
       <use xlink:href="#LiberationSans-30"/>
      </g>
     </g>
    </g>
    <g id="xtick_4">
     <g id="line2d_4">
      <g>
       <use xlink:href="#m979d416cc0" x="512.353714" y="640.3905" style="stroke: #000000; stroke-width: 0.8"/>
      </g>
     </g>
     <g id="text_4">
      <!-- 1 -->
      <g transform="translate(504.012308 665.631125) scale(0.3 -0.3)">
       <use xlink:href="#LiberationSans-31"/>
      </g>
     </g>
    </g>
    <g id="xtick_5">
     <g id="line2d_5">
      <g>
       <use xlink:href="#m979d416cc0" x="629.94906" y="640.3905" style="stroke: #000000; stroke-width: 0.8"/>
      </g>
     </g>
     <g id="text_5">
      <!-- 2 -->
      <g transform="translate(621.607653 665.631125) scale(0.3 -0.3)">
       <use xlink:href="#LiberationSans-32"/>
      </g>
     </g>
    </g>
    <g id="xtick_6">
     <g id="line2d_6">
      <defs>
       <path id="m9878f36de8" d="M 0 0 
L 0 -2 
" style="stroke: #000000; stroke-width: 0.6"/>
      </defs>
      <g>
       <use xlink:href="#m9878f36de8" x="89.010472" y="640.3905" style="stroke: #000000; stroke-width: 0.6"/>
      </g>
     </g>
    </g>
    <g id="xtick_7">
     <g id="line2d_7">
      <g>
       <use xlink:href="#m9878f36de8" x="112.529541" y="640.3905" style="stroke: #000000; stroke-width: 0.6"/>
      </g>
     </g>
    </g>
    <g id="xtick_8">
     <g id="line2d_8">
      <g>
       <use xlink:href="#m9878f36de8" x="136.04861" y="640.3905" style="stroke: #000000; stroke-width: 0.6"/>
      </g>
     </g>
    </g>
    <g id="xtick_9">
     <g id="line2d_9">
      <g>
       <use xlink:href="#m9878f36de8" x="183.086748" y="640.3905" style="stroke: #000000; stroke-width: 0.6"/>
      </g>
     </g>
    </g>
    <g id="xtick_10">
     <g id="line2d_10">
      <g>
       <use xlink:href="#m9878f36de8" x="206.605817" y="640.3905" style="stroke: #000000; stroke-width: 0.6"/>
      </g>
     </g>
    </g>
    <g id="xtick_11">
     <g id="line2d_11">
      <g>
       <use xlink:href="#m9878f36de8" x="230.124886" y="640.3905" style="stroke: #000000; stroke-width: 0.6"/>
      </g>
     </g>
    </g>
    <g id="xtick_12">
     <g id="line2d_12">
      <g>
       <use xlink:href="#m9878f36de8" x="253.643955" y="640.3905" style="stroke: #000000; stroke-width: 0.6"/>
      </g>
     </g>
    </g>
    <g id="xtick_13">
     <g id="line2d_13">
      <g>
       <use xlink:href="#m9878f36de8" x="300.682093" y="640.3905" style="stroke: #000000; stroke-width: 0.6"/>
      </g>
     </g>
    </g>
    <g id="xtick_14">
     <g id="line2d_14">
      <g>
       <use xlink:href="#m9878f36de8" x="324.201162" y="640.3905" style="stroke: #000000; stroke-width: 0.6"/>
      </g>
     </g>
    </g>
    <g id="xtick_15">
     <g id="line2d_15">
      <g>
       <use xlink:href="#m9878f36de8" x="347.720231" y="640.3905" style="stroke: #000000; stroke-width: 0.6"/>
      </g>
     </g>
    </g>
    <g id="xtick_16">
     <g id="line2d_16">
      <g>
       <use xlink:href="#m9878f36de8" x="371.2393" y="640.3905" style="stroke: #000000; stroke-width: 0.6"/>
      </g>
     </g>
    </g>
    <g id="xtick_17">
     <g id="line2d_17">
      <g>
       <use xlink:href="#m9878f36de8" x="418.277438" y="640.3905" style="stroke: #000000; stroke-width: 0.6"/>
      </g>
     </g>
    </g>
    <g id="xtick_18">
     <g id="line2d_18">
      <g>
       <use xlink:href="#m9878f36de8" x="441.796507" y="640.3905" style="stroke: #000000; stroke-width: 0.6"/>
      </g>
     </g>
    </g>
    <g id="xtick_19">
     <g id="line2d_19">
      <g>
       <use xlink:href="#m9878f36de8" x="465.315576" y="640.3905" style="stroke: #000000; stroke-width: 0.6"/>
      </g>
     </g>
    </g>
    <g id="xtick_20">
     <g id="line2d_20">
      <g>
       <use xlink:href="#m9878f36de8" x="488.834645" y="640.3905" style="stroke: #000000; stroke-width: 0.6"/>
      </g>
     </g>
    </g>
    <g id="xtick_21">
     <g id="line2d_21">
      <g>
       <use xlink:href="#m9878f36de8" x="535.872783" y="640.3905" style="stroke: #000000; stroke-width: 0.6"/>
      </g>
     </g>
    </g>
    <g id="xtick_22">
     <g id="line2d_22">
      <g>
       <use xlink:href="#m9878f36de8" x="559.391852" y="640.3905" style="stroke: #000000; stroke-width: 0.6"/>
      </g>
     </g>
    </g>
    <g id="xtick_23">
     <g id="line2d_23">
      <g>
       <use xlink:href="#m9878f36de8" x="582.910922" y="640.3905" style="stroke: #000000; stroke-width: 0.6"/>
      </g>
     </g>
    </g>
    <g id="xtick_24">
     <g id="line2d_24">
      <g>
       <use xlink:href="#m9878f36de8" x="606.429991" y="640.3905" style="stroke: #000000; stroke-width: 0.6"/>
      </g>
     </g>
    </g>
    <g id="xtick_25">
     <g id="line2d_25">
      <g>
       <use xlink:href="#m9878f36de8" x="653.468129" y="640.3905" style="stroke: #000000; stroke-width: 0.6"/>
      </g>
     </g>
    </g>
    <g id="xtick_26">
     <g id="line2d_26">
      <g>
       <use xlink:href="#m9878f36de8" x="676.987198" y="640.3905" style="stroke: #000000; stroke-width: 0.6"/>
      </g>
     </g>
    </g>
    <g id="xtick_27">
     <g id="line2d_27">
      <g>
       <use xlink:href="#m9878f36de8" x="700.506267" y="640.3905" style="stroke: #000000; stroke-width: 0.6"/>
      </g>
     </g>
    </g>
    <g id="text_6">
     <!-- Heat Flux -->
     <g transform="translate(330.572432 697.59675) scale(0.3 -0.3)">
      <defs>
       <path id="LiberationSans-48" d="M 3503 0 
L 3503 2041 
L 1122 2041 
L 1122 0 
L 525 0 
L 525 4403 
L 1122 4403 
L 1122 2541 
L 3503 2541 
L 3503 4403 
L 4100 4403 
L 4100 0 
L 3503 0 
z
" transform="scale(0.015625)"/>
       <path id="LiberationSans-65" d="M 863 1572 
Q 863 991 1103 675 
Q 1344 359 1806 359 
Q 2172 359 2392 506 
Q 2613 653 2691 878 
L 3184 738 
Q 2881 -63 1806 -63 
Q 1056 -63 664 384 
Q 272 831 272 1713 
Q 272 2550 664 2997 
Q 1056 3444 1784 3444 
Q 3275 3444 3275 1647 
L 3275 1572 
L 863 1572 
z
M 2694 2003 
Q 2647 2538 2422 2783 
Q 2197 3028 1775 3028 
Q 1366 3028 1127 2754 
Q 888 2481 869 2003 
L 2694 2003 
z
" transform="scale(0.015625)"/>
       <path id="LiberationSans-61" d="M 1294 -63 
Q 784 -63 528 206 
Q 272 475 272 944 
Q 272 1469 617 1750 
Q 963 2031 1731 2050 
L 2491 2063 
L 2491 2247 
Q 2491 2659 2316 2837 
Q 2141 3016 1766 3016 
Q 1388 3016 1216 2887 
Q 1044 2759 1009 2478 
L 422 2531 
Q 566 3444 1778 3444 
Q 2416 3444 2737 3151 
Q 3059 2859 3059 2306 
L 3059 850 
Q 3059 600 3125 473 
Q 3191 347 3375 347 
Q 3456 347 3559 369 
L 3559 19 
Q 3347 -31 3125 -31 
Q 2813 -31 2670 133 
Q 2528 297 2509 647 
L 2491 647 
Q 2275 259 1989 98 
Q 1703 -63 1294 -63 
z
M 1422 359 
Q 1731 359 1972 500 
Q 2213 641 2352 886 
Q 2491 1131 2491 1391 
L 2491 1669 
L 1875 1656 
Q 1478 1650 1273 1575 
Q 1069 1500 959 1344 
Q 850 1188 850 934 
Q 850 659 998 509 
Q 1147 359 1422 359 
z
" transform="scale(0.015625)"/>
       <path id="LiberationSans-74" d="M 1731 25 
Q 1453 -50 1163 -50 
Q 488 -50 488 716 
L 488 2972 
L 97 2972 
L 97 3381 
L 509 3381 
L 675 4138 
L 1050 4138 
L 1050 3381 
L 1675 3381 
L 1675 2972 
L 1050 2972 
L 1050 838 
Q 1050 594 1129 495 
Q 1209 397 1406 397 
Q 1519 397 1731 441 
L 1731 25 
z
" transform="scale(0.015625)"/>
       <path id="LiberationSans-20" transform="scale(0.015625)"/>
       <path id="LiberationSans-46" d="M 1122 3916 
L 1122 2278 
L 3578 2278 
L 3578 1784 
L 1122 1784 
L 1122 0 
L 525 0 
L 525 4403 
L 3653 4403 
L 3653 3916 
L 1122 3916 
z
" transform="scale(0.015625)"/>
       <path id="LiberationSans-6c" d="M 431 0 
L 431 4638 
L 994 4638 
L 994 0 
L 431 0 
z
" transform="scale(0.015625)"/>
       <path id="LiberationSans-75" d="M 981 3381 
L 981 1238 
Q 981 903 1047 718 
Q 1113 534 1256 453 
Q 1400 372 1678 372 
Q 2084 372 2318 650 
Q 2553 928 2553 1422 
L 2553 3381 
L 3116 3381 
L 3116 722 
Q 3116 131 3134 0 
L 2603 0 
Q 2600 16 2597 84 
Q 2594 153 2589 242 
Q 2584 331 2578 578 
L 2569 578 
Q 2375 228 2120 82 
Q 1866 -63 1488 -63 
Q 931 -63 673 214 
Q 416 491 416 1128 
L 416 3381 
L 981 3381 
z
" transform="scale(0.015625)"/>
       <path id="LiberationSans-78" d="M 2503 0 
L 1594 1388 
L 678 0 
L 72 0 
L 1275 1738 
L 128 3381 
L 750 3381 
L 1594 2066 
L 2431 3381 
L 3059 3381 
L 1913 1744 
L 3131 0 
L 2503 0 
z
" transform="scale(0.015625)"/>
      </defs>
      <use xlink:href="#LiberationSans-48"/>
      <use xlink:href="#LiberationSans-65" x="72.216797"/>
      <use xlink:href="#LiberationSans-61" x="127.832031"/>
      <use xlink:href="#LiberationSans-74" x="183.447266"/>
      <use xlink:href="#LiberationSans-20" x="211.230469"/>
      <use xlink:href="#LiberationSans-46" x="239.013672"/>
      <use xlink:href="#LiberationSans-6c" x="300.097656"/>
      <use xlink:href="#LiberationSans-75" x="322.314453"/>
      <use xlink:href="#LiberationSans-78" x="377.929688"/>
     </g>
    </g>
    <g id="text_7">
     <!-- 1e10 -->
     <g transform="translate(682.607363 682.103) scale(0.1 -0.1)">
      <use xlink:href="#LiberationSans-31"/>
      <use xlink:href="#LiberationSans-65" x="55.615234"/>
      <use xlink:href="#LiberationSans-31" x="111.230469"/>
      <use xlink:href="#LiberationSans-30" x="166.845703"/>
     </g>
    </g>
   </g>
   <g id="matplotlib.axis_2">
    <g id="ytick_1">
     <g id="line2d_28">
      <defs>
       <path id="m63822cb80c" d="M 0 0 
L 3.5 0 
" style="stroke: #000000; stroke-width: 0.8"/>
      </defs>
      <g>
       <use xlink:href="#m63822cb80c" x="84.665625" y="613.063091" style="stroke: #000000; stroke-width: 0.8"/>
      </g>
     </g>
     <g id="text_8">
      <!-- $\mathdefault{0.0}$ -->
      <g transform="translate(39.165625 623.933403) scale(0.3 -0.3)">
       <defs>
        <path id="LiberationSans-2e" d="M 584 0 
L 584 684 
L 1194 684 
L 1194 0 
L 584 0 
z
" transform="scale(0.015625)"/>
       </defs>
       <use xlink:href="#LiberationSans-30" transform="translate(0 0.171875)"/>
       <use xlink:href="#LiberationSans-2e" transform="translate(55.615234 0.171875)"/>
       <use xlink:href="#LiberationSans-30" transform="translate(83.398438 0.171875)"/>
      </g>
     </g>
    </g>
    <g id="ytick_2">
     <g id="line2d_29">
      <g>
       <use xlink:href="#m63822cb80c" x="84.665625" y="544.792618" style="stroke: #000000; stroke-width: 0.8"/>
      </g>
     </g>
     <g id="text_9">
      <!-- $\mathdefault{0.5}$ -->
      <g transform="translate(39.165625 555.66293) scale(0.3 -0.3)">
       <defs>
        <path id="LiberationSans-35" d="M 3291 1434 
Q 3291 738 2877 337 
Q 2463 -63 1728 -63 
Q 1113 -63 734 206 
Q 356 475 256 984 
L 825 1050 
Q 1003 397 1741 397 
Q 2194 397 2450 670 
Q 2706 944 2706 1422 
Q 2706 1838 2448 2094 
Q 2191 2350 1753 2350 
Q 1525 2350 1328 2278 
Q 1131 2206 934 2034 
L 384 2034 
L 531 4403 
L 3034 4403 
L 3034 3925 
L 1044 3925 
L 959 2528 
Q 1325 2809 1869 2809 
Q 2519 2809 2905 2428 
Q 3291 2047 3291 1434 
z
" transform="scale(0.015625)"/>
       </defs>
       <use xlink:href="#LiberationSans-30" transform="translate(0 0.171875)"/>
       <use xlink:href="#LiberationSans-2e" transform="translate(55.615234 0.171875)"/>
       <use xlink:href="#LiberationSans-35" transform="translate(83.398438 0.171875)"/>
      </g>
     </g>
    </g>
    <g id="ytick_3">
     <g id="line2d_30">
      <g>
       <use xlink:href="#m63822cb80c" x="84.665625" y="476.522144" style="stroke: #000000; stroke-width: 0.8"/>
      </g>
     </g>
     <g id="text_10">
      <!-- $\mathdefault{1.0}$ -->
      <g transform="translate(39.165625 487.392457) scale(0.3 -0.3)">
       <use xlink:href="#LiberationSans-31" transform="translate(0 0.171875)"/>
       <use xlink:href="#LiberationSans-2e" transform="translate(55.615234 0.171875)"/>
       <use xlink:href="#LiberationSans-30" transform="translate(83.398438 0.171875)"/>
      </g>
     </g>
    </g>
    <g id="ytick_4">
     <g id="line2d_31">
      <g>
       <use xlink:href="#m63822cb80c" x="84.665625" y="408.251671" style="stroke: #000000; stroke-width: 0.8"/>
      </g>
     </g>
     <g id="text_11">
      <!-- $\mathdefault{1.5}$ -->
      <g transform="translate(39.165625 419.121983) scale(0.3 -0.3)">
       <use xlink:href="#LiberationSans-31" transform="translate(0 0.203125)"/>
       <use xlink:href="#LiberationSans-2e" transform="translate(55.615234 0.203125)"/>
       <use xlink:href="#LiberationSans-35" transform="translate(83.398438 0.203125)"/>
      </g>
     </g>
    </g>
    <g id="ytick_5">
     <g id="line2d_32">
      <g>
       <use xlink:href="#m63822cb80c" x="84.665625" y="339.981198" style="stroke: #000000; stroke-width: 0.8"/>
      </g>
     </g>
     <g id="text_12">
      <!-- $\mathdefault{2.0}$ -->
      <g transform="translate(39.165625 350.85151) scale(0.3 -0.3)">
       <use xlink:href="#LiberationSans-32" transform="translate(0 0.171875)"/>
       <use xlink:href="#LiberationSans-2e" transform="translate(55.615234 0.171875)"/>
       <use xlink:href="#LiberationSans-30" transform="translate(83.398438 0.171875)"/>
      </g>
     </g>
    </g>
    <g id="ytick_6">
     <g id="line2d_33">
      <g>
       <use xlink:href="#m63822cb80c" x="84.665625" y="271.710724" style="stroke: #000000; stroke-width: 0.8"/>
      </g>
     </g>
     <g id="text_13">
      <!-- $\mathdefault{2.5}$ -->
      <g transform="translate(39.165625 282.581037) scale(0.3 -0.3)">
       <use xlink:href="#LiberationSans-32" transform="translate(0 0.171875)"/>
       <use xlink:href="#LiberationSans-2e" transform="translate(55.615234 0.171875)"/>
       <use xlink:href="#LiberationSans-35" transform="translate(83.398438 0.171875)"/>
      </g>
     </g>
    </g>
    <g id="ytick_7">
     <g id="line2d_34">
      <g>
       <use xlink:href="#m63822cb80c" x="84.665625" y="203.440251" style="stroke: #000000; stroke-width: 0.8"/>
      </g>
     </g>
     <g id="text_14">
      <!-- $\mathdefault{3.0}$ -->
      <g transform="translate(39.165625 214.310564) scale(0.3 -0.3)">
       <defs>
        <path id="LiberationSans-33" d="M 3278 1216 
Q 3278 606 2890 271 
Q 2503 -63 1784 -63 
Q 1116 -63 717 239 
Q 319 541 244 1131 
L 825 1184 
Q 938 403 1784 403 
Q 2209 403 2451 612 
Q 2694 822 2694 1234 
Q 2694 1594 2417 1795 
Q 2141 1997 1619 1997 
L 1300 1997 
L 1300 2484 
L 1606 2484 
Q 2069 2484 2323 2686 
Q 2578 2888 2578 3244 
Q 2578 3597 2370 3801 
Q 2163 4006 1753 4006 
Q 1381 4006 1151 3815 
Q 922 3625 884 3278 
L 319 3322 
Q 381 3863 767 4166 
Q 1153 4469 1759 4469 
Q 2422 4469 2789 4161 
Q 3156 3853 3156 3303 
Q 3156 2881 2920 2617 
Q 2684 2353 2234 2259 
L 2234 2247 
Q 2728 2194 3003 1916 
Q 3278 1638 3278 1216 
z
" transform="scale(0.015625)"/>
       </defs>
       <use xlink:href="#LiberationSans-33" transform="translate(0 0.171875)"/>
       <use xlink:href="#LiberationSans-2e" transform="translate(55.615234 0.171875)"/>
       <use xlink:href="#LiberationSans-30" transform="translate(83.398438 0.171875)"/>
      </g>
     </g>
    </g>
    <g id="ytick_8">
     <g id="line2d_35">
      <g>
       <use xlink:href="#m63822cb80c" x="84.665625" y="135.169778" style="stroke: #000000; stroke-width: 0.8"/>
      </g>
     </g>
     <g id="text_15">
      <!-- $\mathdefault{3.5}$ -->
      <g transform="translate(39.165625 146.04009) scale(0.3 -0.3)">
       <use xlink:href="#LiberationSans-33" transform="translate(0 0.171875)"/>
       <use xlink:href="#LiberationSans-2e" transform="translate(55.615234 0.171875)"/>
       <use xlink:href="#LiberationSans-35" transform="translate(83.398438 0.171875)"/>
      </g>
     </g>
    </g>
    <g id="ytick_9">
     <g id="line2d_36">
      <g>
       <use xlink:href="#m63822cb80c" x="84.665625" y="66.899304" style="stroke: #000000; stroke-width: 0.8"/>
      </g>
     </g>
     <g id="text_16">
      <!-- $\mathdefault{4.0}$ -->
      <g transform="translate(39.165625 77.769617) scale(0.3 -0.3)">
       <defs>
        <path id="LiberationSans-34" d="M 2753 997 
L 2753 0 
L 2222 0 
L 2222 997 
L 147 997 
L 147 1434 
L 2163 4403 
L 2753 4403 
L 2753 1441 
L 3372 1441 
L 3372 997 
L 2753 997 
z
M 2222 3769 
Q 2216 3750 2134 3603 
Q 2053 3456 2013 3397 
L 884 1734 
L 716 1503 
L 666 1441 
L 2222 1441 
L 2222 3769 
z
" transform="scale(0.015625)"/>
       </defs>
       <use xlink:href="#LiberationSans-34" transform="translate(0 0.171875)"/>
       <use xlink:href="#LiberationSans-2e" transform="translate(55.615234 0.171875)"/>
       <use xlink:href="#LiberationSans-30" transform="translate(83.398438 0.171875)"/>
      </g>
     </g>
    </g>
    <g id="ytick_10">
     <g id="line2d_37">
      <defs>
       <path id="m32f453dd40" d="M 0 0 
L 2 0 
" style="stroke: #000000; stroke-width: 0.6"/>
      </defs>
      <g>
       <use xlink:href="#m32f453dd40" x="84.665625" y="640.37128" style="stroke: #000000; stroke-width: 0.6"/>
      </g>
     </g>
    </g>
    <g id="ytick_11">
     <g id="line2d_38">
      <g>
       <use xlink:href="#m32f453dd40" x="84.665625" y="626.717186" style="stroke: #000000; stroke-width: 0.6"/>
      </g>
     </g>
    </g>
    <g id="ytick_12">
     <g id="line2d_39">
      <g>
       <use xlink:href="#m32f453dd40" x="84.665625" y="599.408996" style="stroke: #000000; stroke-width: 0.6"/>
      </g>
     </g>
    </g>
    <g id="ytick_13">
     <g id="line2d_40">
      <g>
       <use xlink:href="#m32f453dd40" x="84.665625" y="585.754902" style="stroke: #000000; stroke-width: 0.6"/>
      </g>
     </g>
    </g>
    <g id="ytick_14">
     <g id="line2d_41">
      <g>
       <use xlink:href="#m32f453dd40" x="84.665625" y="572.100807" style="stroke: #000000; stroke-width: 0.6"/>
      </g>
     </g>
    </g>
    <g id="ytick_15">
     <g id="line2d_42">
      <g>
       <use xlink:href="#m32f453dd40" x="84.665625" y="558.446712" style="stroke: #000000; stroke-width: 0.6"/>
      </g>
     </g>
    </g>
    <g id="ytick_16">
     <g id="line2d_43">
      <g>
       <use xlink:href="#m32f453dd40" x="84.665625" y="531.138523" style="stroke: #000000; stroke-width: 0.6"/>
      </g>
     </g>
    </g>
    <g id="ytick_17">
     <g id="line2d_44">
      <g>
       <use xlink:href="#m32f453dd40" x="84.665625" y="517.484428" style="stroke: #000000; stroke-width: 0.6"/>
      </g>
     </g>
    </g>
    <g id="ytick_18">
     <g id="line2d_45">
      <g>
       <use xlink:href="#m32f453dd40" x="84.665625" y="503.830334" style="stroke: #000000; stroke-width: 0.6"/>
      </g>
     </g>
    </g>
    <g id="ytick_19">
     <g id="line2d_46">
      <g>
       <use xlink:href="#m32f453dd40" x="84.665625" y="490.176239" style="stroke: #000000; stroke-width: 0.6"/>
      </g>
     </g>
    </g>
    <g id="ytick_20">
     <g id="line2d_47">
      <g>
       <use xlink:href="#m32f453dd40" x="84.665625" y="462.86805" style="stroke: #000000; stroke-width: 0.6"/>
      </g>
     </g>
    </g>
    <g id="ytick_21">
     <g id="line2d_48">
      <g>
       <use xlink:href="#m32f453dd40" x="84.665625" y="449.213955" style="stroke: #000000; stroke-width: 0.6"/>
      </g>
     </g>
    </g>
    <g id="ytick_22">
     <g id="line2d_49">
      <g>
       <use xlink:href="#m32f453dd40" x="84.665625" y="435.55986" style="stroke: #000000; stroke-width: 0.6"/>
      </g>
     </g>
    </g>
    <g id="ytick_23">
     <g id="line2d_50">
      <g>
       <use xlink:href="#m32f453dd40" x="84.665625" y="421.905766" style="stroke: #000000; stroke-width: 0.6"/>
      </g>
     </g>
    </g>
    <g id="ytick_24">
     <g id="line2d_51">
      <g>
       <use xlink:href="#m32f453dd40" x="84.665625" y="394.597576" style="stroke: #000000; stroke-width: 0.6"/>
      </g>
     </g>
    </g>
    <g id="ytick_25">
     <g id="line2d_52">
      <g>
       <use xlink:href="#m32f453dd40" x="84.665625" y="380.943482" style="stroke: #000000; stroke-width: 0.6"/>
      </g>
     </g>
    </g>
    <g id="ytick_26">
     <g id="line2d_53">
      <g>
       <use xlink:href="#m32f453dd40" x="84.665625" y="367.289387" style="stroke: #000000; stroke-width: 0.6"/>
      </g>
     </g>
    </g>
    <g id="ytick_27">
     <g id="line2d_54">
      <g>
       <use xlink:href="#m32f453dd40" x="84.665625" y="353.635292" style="stroke: #000000; stroke-width: 0.6"/>
      </g>
     </g>
    </g>
    <g id="ytick_28">
     <g id="line2d_55">
      <g>
       <use xlink:href="#m32f453dd40" x="84.665625" y="326.327103" style="stroke: #000000; stroke-width: 0.6"/>
      </g>
     </g>
    </g>
    <g id="ytick_29">
     <g id="line2d_56">
      <g>
       <use xlink:href="#m32f453dd40" x="84.665625" y="312.673008" style="stroke: #000000; stroke-width: 0.6"/>
      </g>
     </g>
    </g>
    <g id="ytick_30">
     <g id="line2d_57">
      <g>
       <use xlink:href="#m32f453dd40" x="84.665625" y="299.018914" style="stroke: #000000; stroke-width: 0.6"/>
      </g>
     </g>
    </g>
    <g id="ytick_31">
     <g id="line2d_58">
      <g>
       <use xlink:href="#m32f453dd40" x="84.665625" y="285.364819" style="stroke: #000000; stroke-width: 0.6"/>
      </g>
     </g>
    </g>
    <g id="ytick_32">
     <g id="line2d_59">
      <g>
       <use xlink:href="#m32f453dd40" x="84.665625" y="258.05663" style="stroke: #000000; stroke-width: 0.6"/>
      </g>
     </g>
    </g>
    <g id="ytick_33">
     <g id="line2d_60">
      <g>
       <use xlink:href="#m32f453dd40" x="84.665625" y="244.402535" style="stroke: #000000; stroke-width: 0.6"/>
      </g>
     </g>
    </g>
    <g id="ytick_34">
     <g id="line2d_61">
      <g>
       <use xlink:href="#m32f453dd40" x="84.665625" y="230.74844" style="stroke: #000000; stroke-width: 0.6"/>
      </g>
     </g>
    </g>
    <g id="ytick_35">
     <g id="line2d_62">
      <g>
       <use xlink:href="#m32f453dd40" x="84.665625" y="217.094346" style="stroke: #000000; stroke-width: 0.6"/>
      </g>
     </g>
    </g>
    <g id="ytick_36">
     <g id="line2d_63">
      <g>
       <use xlink:href="#m32f453dd40" x="84.665625" y="189.786156" style="stroke: #000000; stroke-width: 0.6"/>
      </g>
     </g>
    </g>
    <g id="ytick_37">
     <g id="line2d_64">
      <g>
       <use xlink:href="#m32f453dd40" x="84.665625" y="176.132062" style="stroke: #000000; stroke-width: 0.6"/>
      </g>
     </g>
    </g>
    <g id="ytick_38">
     <g id="line2d_65">
      <g>
       <use xlink:href="#m32f453dd40" x="84.665625" y="162.477967" style="stroke: #000000; stroke-width: 0.6"/>
      </g>
     </g>
    </g>
    <g id="ytick_39">
     <g id="line2d_66">
      <g>
       <use xlink:href="#m32f453dd40" x="84.665625" y="148.823872" style="stroke: #000000; stroke-width: 0.6"/>
      </g>
     </g>
    </g>
    <g id="ytick_40">
     <g id="line2d_67">
      <g>
       <use xlink:href="#m32f453dd40" x="84.665625" y="121.515683" style="stroke: #000000; stroke-width: 0.6"/>
      </g>
     </g>
    </g>
    <g id="ytick_41">
     <g id="line2d_68">
      <g>
       <use xlink:href="#m32f453dd40" x="84.665625" y="107.861588" style="stroke: #000000; stroke-width: 0.6"/>
      </g>
     </g>
    </g>
    <g id="ytick_42">
     <g id="line2d_69">
      <g>
       <use xlink:href="#m32f453dd40" x="84.665625" y="94.207494" style="stroke: #000000; stroke-width: 0.6"/>
      </g>
     </g>
    </g>
    <g id="ytick_43">
     <g id="line2d_70">
      <g>
       <use xlink:href="#m32f453dd40" x="84.665625" y="80.553399" style="stroke: #000000; stroke-width: 0.6"/>
      </g>
     </g>
    </g>
    <g id="ytick_44">
     <g id="line2d_71">
      <g>
       <use xlink:href="#m32f453dd40" x="84.665625" y="53.24521" style="stroke: #000000; stroke-width: 0.6"/>
      </g>
     </g>
    </g>
    <g id="ytick_45">
     <g id="line2d_72">
      <g>
       <use xlink:href="#m32f453dd40" x="84.665625" y="39.591115" style="stroke: #000000; stroke-width: 0.6"/>
      </g>
     </g>
    </g>
    <g id="text_17">
     <!-- Probability Density -->
     <g transform="translate(28.940625 464.003062) rotate(-90) scale(0.3 -0.3)">
      <defs>
       <path id="LiberationSans-50" d="M 3931 3078 
Q 3931 2453 3523 2084 
Q 3116 1716 2416 1716 
L 1122 1716 
L 1122 0 
L 525 0 
L 525 4403 
L 2378 4403 
Q 3119 4403 3525 4056 
Q 3931 3709 3931 3078 
z
M 3331 3072 
Q 3331 3925 2306 3925 
L 1122 3925 
L 1122 2188 
L 2331 2188 
Q 3331 2188 3331 3072 
z
" transform="scale(0.015625)"/>
       <path id="LiberationSans-72" d="M 444 0 
L 444 2594 
Q 444 2950 425 3381 
L 956 3381 
Q 981 2806 981 2691 
L 994 2691 
Q 1128 3125 1303 3284 
Q 1478 3444 1797 3444 
Q 1909 3444 2025 3413 
L 2025 2897 
Q 1913 2928 1725 2928 
Q 1375 2928 1190 2626 
Q 1006 2325 1006 1763 
L 1006 0 
L 444 0 
z
" transform="scale(0.015625)"/>
       <path id="LiberationSans-6f" d="M 3291 1694 
Q 3291 806 2900 371 
Q 2509 -63 1766 -63 
Q 1025 -63 647 389 
Q 269 841 269 1694 
Q 269 3444 1784 3444 
Q 2559 3444 2925 3017 
Q 3291 2591 3291 1694 
z
M 2700 1694 
Q 2700 2394 2492 2711 
Q 2284 3028 1794 3028 
Q 1300 3028 1079 2704 
Q 859 2381 859 1694 
Q 859 1025 1076 689 
Q 1294 353 1759 353 
Q 2266 353 2483 678 
Q 2700 1003 2700 1694 
z
" transform="scale(0.015625)"/>
       <path id="LiberationSans-62" d="M 3291 1706 
Q 3291 -63 2047 -63 
Q 1663 -63 1408 76 
Q 1153 216 994 525 
L 988 525 
Q 988 428 975 229 
Q 963 31 956 0 
L 413 0 
Q 431 169 431 697 
L 431 4638 
L 994 4638 
L 994 3316 
Q 994 3113 981 2838 
L 994 2838 
Q 1150 3163 1408 3303 
Q 1666 3444 2047 3444 
Q 2688 3444 2989 3012 
Q 3291 2581 3291 1706 
z
M 2700 1688 
Q 2700 2397 2512 2703 
Q 2325 3009 1903 3009 
Q 1428 3009 1211 2684 
Q 994 2359 994 1653 
Q 994 988 1206 670 
Q 1419 353 1897 353 
Q 2322 353 2511 667 
Q 2700 981 2700 1688 
z
" transform="scale(0.015625)"/>
       <path id="LiberationSans-69" d="M 428 4100 
L 428 4638 
L 991 4638 
L 991 4100 
L 428 4100 
z
M 428 0 
L 428 3381 
L 991 3381 
L 991 0 
L 428 0 
z
" transform="scale(0.015625)"/>
       <path id="LiberationSans-79" d="M 597 -1328 
Q 366 -1328 209 -1294 
L 209 -872 
Q 328 -891 472 -891 
Q 997 -891 1303 -119 
L 1356 16 
L 16 3381 
L 616 3381 
L 1328 1513 
Q 1344 1469 1366 1408 
Q 1388 1347 1506 1000 
Q 1625 653 1634 613 
L 1853 1228 
L 2594 3381 
L 3188 3381 
L 1888 0 
Q 1678 -541 1497 -805 
Q 1316 -1069 1095 -1198 
Q 875 -1328 597 -1328 
z
" transform="scale(0.015625)"/>
       <path id="LiberationSans-44" d="M 4316 2247 
Q 4316 1566 4050 1055 
Q 3784 544 3296 272 
Q 2809 0 2172 0 
L 525 0 
L 525 4403 
L 1981 4403 
Q 3100 4403 3708 3842 
Q 4316 3281 4316 2247 
z
M 3716 2247 
Q 3716 3066 3267 3495 
Q 2819 3925 1969 3925 
L 1122 3925 
L 1122 478 
L 2103 478 
Q 2588 478 2955 690 
Q 3322 903 3519 1303 
Q 3716 1703 3716 2247 
z
" transform="scale(0.015625)"/>
       <path id="LiberationSans-6e" d="M 2578 0 
L 2578 2144 
Q 2578 2478 2512 2662 
Q 2447 2847 2303 2928 
Q 2159 3009 1881 3009 
Q 1475 3009 1240 2731 
Q 1006 2453 1006 1959 
L 1006 0 
L 444 0 
L 444 2659 
Q 444 3250 425 3381 
L 956 3381 
Q 959 3366 962 3297 
Q 966 3228 970 3139 
Q 975 3050 981 2803 
L 991 2803 
Q 1184 3153 1439 3298 
Q 1694 3444 2072 3444 
Q 2628 3444 2886 3167 
Q 3144 2891 3144 2253 
L 3144 0 
L 2578 0 
z
" transform="scale(0.015625)"/>
       <path id="LiberationSans-73" d="M 2969 934 
Q 2969 456 2608 196 
Q 2247 -63 1597 -63 
Q 966 -63 623 145 
Q 281 353 178 794 
L 675 891 
Q 747 619 972 492 
Q 1197 366 1597 366 
Q 2025 366 2223 497 
Q 2422 628 2422 891 
Q 2422 1091 2284 1216 
Q 2147 1341 1841 1422 
L 1438 1528 
Q 953 1653 748 1773 
Q 544 1894 428 2066 
Q 313 2238 313 2488 
Q 313 2950 642 3192 
Q 972 3434 1603 3434 
Q 2163 3434 2492 3237 
Q 2822 3041 2909 2606 
L 2403 2544 
Q 2356 2769 2151 2889 
Q 1947 3009 1603 3009 
Q 1222 3009 1040 2893 
Q 859 2778 859 2544 
Q 859 2400 934 2306 
Q 1009 2213 1156 2147 
Q 1303 2081 1775 1966 
Q 2222 1853 2419 1758 
Q 2616 1663 2730 1547 
Q 2844 1431 2906 1279 
Q 2969 1128 2969 934 
z
" transform="scale(0.015625)"/>
      </defs>
      <use xlink:href="#LiberationSans-50"/>
      <use xlink:href="#LiberationSans-72" x="66.699219"/>
      <use xlink:href="#LiberationSans-6f" x="100"/>
      <use xlink:href="#LiberationSans-62" x="155.615234"/>
      <use xlink:href="#LiberationSans-61" x="211.230469"/>
      <use xlink:href="#LiberationSans-62" x="266.845703"/>
      <use xlink:href="#LiberationSans-69" x="322.460938"/>
      <use xlink:href="#LiberationSans-6c" x="344.677734"/>
      <use xlink:href="#LiberationSans-69" x="366.894531"/>
      <use xlink:href="#LiberationSans-74" x="389.111328"/>
      <use xlink:href="#LiberationSans-79" x="416.894531"/>
      <use xlink:href="#LiberationSans-20" x="466.894531"/>
      <use xlink:href="#LiberationSans-44" x="494.677734"/>
      <use xlink:href="#LiberationSans-65" x="566.894531"/>
      <use xlink:href="#LiberationSans-6e" x="622.509766"/>
      <use xlink:href="#LiberationSans-73" x="678.125"/>
      <use xlink:href="#LiberationSans-69" x="728.125"/>
      <use xlink:href="#LiberationSans-74" x="750.341797"/>
      <use xlink:href="#LiberationSans-79" x="778.125"/>
     </g>
    </g>
    <g id="text_18">
     <!-- $\times\mathdefault{10^{−10}}\mathdefault{}$ -->
     <g transform="translate(84.665625 36.1875) scale(0.4 -0.4)">
      <defs>
       <path id="STIXGeneral-Regular-d7" d="M 3821 141 
L 3526 -160 
L 2048 1312 
L 570 -160 
L 275 134 
L 1747 1613 
L 275 3091 
L 576 3386 
L 2048 1914 
L 3526 3386 
L 3821 3098 
L 2349 1613 
L 3821 141 
z
" transform="scale(0.015625)"/>
      </defs>
      <use xlink:href="#STIXGeneral-Regular-d7" transform="translate(0 0.140625)"/>
      <use xlink:href="#LiberationSans-31" transform="translate(63.999985 0.140625)"/>
      <use xlink:href="#LiberationSans-30" transform="translate(119.615219 0.140625)"/>
      <use xlink:href="#LiberationSans-2212" transform="translate(176.154946 37.120312) scale(0.7)"/>
      <use xlink:href="#LiberationSans-31" transform="translate(217.033852 37.120312) scale(0.7)"/>
      <use xlink:href="#LiberationSans-30" transform="translate(255.964516 37.120312) scale(0.7)"/>
     </g>
    </g>
   </g>
   <g id="line2d_73">
    <path d="M 269.595877 613.058824 
L 287.153741 613.060958 
L 326.78435 612.876419 
L 335.814109 612.466807 
L 336.817416 612.312136 
L 337.319069 612.307869 
L 337.820722 612.188399 
L 338.322376 612.210799 
L 339.325682 611.953725 
L 341.833949 611.521713 
L 342.837255 611.284906 
L 343.840562 611.0705 
L 346.348828 610.085938 
L 347.352135 609.662459 
L 348.857094 609.01284 
L 349.860401 608.665096 
L 350.362054 608.100813 
L 350.863707 607.773337 
L 352.870321 605.760478 
L 353.371974 605.439402 
L 355.378587 602.875061 
L 356.381894 601.222746 
L 357.3852 599.276023 
L 358.388507 597.698377 
L 359.391813 595.619383 
L 360.39512 592.943038 
L 362.401733 586.542852 
L 363.405039 583.061151 
L 365.913306 572.005895 
L 367.919919 558.988983 
L 368.421572 555.805957 
L 368.923225 551.341827 
L 369.424879 547.879326 
L 370.428185 538.835863 
L 372.434798 516.665617 
L 374.943065 481.991541 
L 377.451331 439.997785 
L 377.952984 428.365446 
L 378.454638 420.254276 
L 381.966211 334.814988 
L 382.969517 308.939035 
L 387.484397 181.991338 
L 388.989356 143.80356 
L 389.49101 130.021825 
L 391.999276 88.338478 
L 392.500929 83.859414 
L 393.504236 70.886236 
L 394.005889 67.573073 
L 394.507543 68.519234 
L 395.009196 66.514909 
L 396.012502 71.763062 
L 397.015809 78.754199 
L 398.019115 91.954583 
L 399.022422 107.662774 
L 399.524075 121.160767 
L 400.025729 130.947719 
L 402.032342 183.530583 
L 403.537301 226.333963 
L 404.540608 255.402543 
L 406.045568 294.652752 
L 408.553834 360.940549 
L 411.062101 418.261685 
L 412.56706 447.915882 
L 414.573674 483.188376 
L 416.580287 509.965689 
L 417.583593 521.632162 
L 419.590206 542.617306 
L 421.596819 558.910047 
L 423.101779 568.28632 
L 424.105086 574.227827 
L 427.616659 588.841586 
L 428.118312 590.043754 
L 428.619965 592.000078 
L 430.626578 597.111693 
L 431.629885 598.981614 
L 432.633191 600.739532 
L 434.138151 603.283606 
L 435.141458 604.259635 
L 437.148071 606.528501 
L 439.656337 608.549893 
L 440.157991 608.614961 
L 441.66295 609.437385 
L 442.164604 609.850197 
L 443.669564 610.367546 
L 444.67287 610.612886 
L 445.174523 610.907295 
L 445.676177 610.913695 
L 446.17783 611.150502 
L 446.679483 611.122768 
L 448.184443 611.556914 
L 448.686096 611.594248 
L 449.18775 611.77772 
L 449.689403 611.783054 
L 450.191056 611.968659 
L 452.197669 612.025194 
L 453.200976 612.297202 
L 454.705936 612.408139 
L 455.709242 612.530809 
L 457.214202 612.58521 
L 458.217509 612.703614 
L 459.722468 612.708947 
L 462.732388 612.812417 
L 466.745614 612.916953 
L 470.257187 612.967088 
L 471.762147 612.986289 
L 474.270413 613.016156 
L 519.920861 613.063091 
L 519.920861 613.063091 
" clip-path="url(#pe752a372a7)" style="fill: none; stroke: #fc8a6a; stroke-opacity: 0.7; stroke-width: 1.5; stroke-linecap: square"/>
   </g>
   <g id="line2d_74">
    <path d="M 255.276178 613.063091 
L 304.472301 612.958758 
L 307.267536 612.91377 
L 313.976098 612.777849 
L 315.094192 612.664901 
L 324.038941 612.195879 
L 324.597988 612.013057 
L 325.716082 611.878093 
L 327.393222 611.678998 
L 327.952269 611.454059 
L 329.070363 611.298995 
L 331.306551 610.670123 
L 331.865597 610.646194 
L 332.983691 610.122612 
L 334.660832 609.209456 
L 335.219879 609.14341 
L 338.57416 607.484605 
L 340.2513 606.370439 
L 341.369394 605.408466 
L 341.928441 604.767151 
L 343.046535 604.13445 
L 346.400816 600.331546 
L 348.637003 596.560229 
L 351.991284 589.36984 
L 352.550331 587.743579 
L 353.109378 586.725132 
L 355.904612 578.030045 
L 357.022706 573.649 
L 358.699847 567.121942 
L 360.936034 555.423202 
L 361.495081 551.686343 
L 362.054128 549.065565 
L 363.172222 542.259965 
L 363.731268 537.904764 
L 364.290315 534.948014 
L 364.849362 529.833763 
L 365.408409 526.62623 
L 367.08555 512.987271 
L 368.203643 503.110058 
L 370.439831 481.898793 
L 372.676018 458.382622 
L 374.912206 431.805367 
L 375.471252 426.381945 
L 376.030299 417.048414 
L 377.148393 404.451833 
L 378.266487 389.034421 
L 379.38458 375.2672 
L 379.943627 369.294353 
L 381.061721 350.641649 
L 382.179815 338.688297 
L 383.297909 322.025585 
L 383.856955 314.947187 
L 384.416002 309.710417 
L 384.975049 302.304661 
L 386.65219 287.25098 
L 387.770283 274.585481 
L 388.888377 264.316778 
L 389.447424 258.806253 
L 390.006471 254.637703 
L 390.565518 251.943222 
L 391.124565 247.110384 
L 391.683611 244.559481 
L 392.801705 241.233256 
L 393.360752 240.002313 
L 393.919799 238.497615 
L 394.478846 238.155899 
L 396.155986 241.512754 
L 396.715033 243.381184 
L 397.27408 244.589154 
L 397.833127 248.668685 
L 398.392174 249.207581 
L 398.951221 253.937999 
L 399.510267 255.634135 
L 400.628361 264.966708 
L 401.187408 268.429811 
L 403.982642 297.700591 
L 407.89597 344.325172 
L 411.809298 396.337758 
L 412.368345 402.371865 
L 415.16358 439.620799 
L 416.84072 458.157683 
L 419.076908 482.63487 
L 422.431189 512.676186 
L 422.990236 518.73518 
L 425.78547 538.597768 
L 426.903564 545.477071 
L 428.021657 552.425292 
L 429.139751 559.139002 
L 430.816892 566.661535 
L 431.375938 568.751074 
L 431.934985 571.807372 
L 432.494032 573.376202 
L 433.053079 575.961564 
L 433.612126 577.520822 
L 435.848313 584.99741 
L 438.643548 591.852783 
L 439.202595 592.736267 
L 441.438782 597.341294 
L 442.556876 599.254711 
L 443.115923 599.769677 
L 443.674969 600.672305 
L 446.470204 603.95067 
L 448.706391 605.998093 
L 449.265438 606.483387 
L 449.824485 606.794473 
L 450.942579 607.587981 
L 451.501625 607.969899 
L 456.533047 610.11304 
L 457.651141 610.318836 
L 458.210188 610.649065 
L 459.328281 610.807001 
L 459.887328 611.071185 
L 460.446375 611.096072 
L 462.123516 611.625396 
L 463.24161 611.744087 
L 468.273031 612.352858 
L 469.391125 612.475378 
L 470.509219 612.519409 
L 479.453968 612.919513 
L 496.225374 613.04969 
L 508.524405 613.052562 
L 516.910108 613.062134 
L 533.681514 613.055433 
L 534.240561 613.057348 
L 534.240561 613.057348 
" clip-path="url(#pe752a372a7)" style="fill: none; stroke: #f96245; stroke-opacity: 0.7; stroke-width: 1.5; stroke-linecap: square"/>
   </g>
   <g id="line2d_75">
    <path d="M 231.500301 613.063091 
L 288.427964 612.958414 
L 304.132147 612.504541 
L 307.403852 612.190511 
L 314.601602 611.299121 
L 315.910284 611.082408 
L 316.564625 610.830529 
L 317.873307 610.674331 
L 319.181989 610.248263 
L 320.490671 609.982482 
L 321.799353 609.509801 
L 324.416717 608.462214 
L 325.725399 607.741742 
L 328.342762 606.308159 
L 330.305785 605.072481 
L 330.960126 604.623515 
L 331.614467 604.008538 
L 332.268808 603.672427 
L 333.57749 602.161972 
L 334.886172 600.829795 
L 335.540513 600.214 
L 337.503536 597.714839 
L 338.157877 596.828357 
L 338.812218 595.708804 
L 339.466559 594.841949 
L 343.392604 588.106644 
L 344.701286 584.556625 
L 345.355627 583.433801 
L 347.31865 577.962797 
L 347.972991 576.777822 
L 348.627332 574.516637 
L 349.936014 570.852945 
L 350.590355 568.523066 
L 351.244696 566.615984 
L 355.170741 551.596483 
L 355.825082 548.054641 
L 356.479423 546.02898 
L 361.05981 521.810178 
L 364.331515 502.079398 
L 365.640197 493.229293 
L 366.294538 489.907436 
L 366.948879 485.126646 
L 367.60322 479.433203 
L 368.911901 470.744202 
L 374.146629 432.596011 
L 375.455311 422.083342 
L 376.109652 415.786371 
L 376.763993 412.498862 
L 378.727016 399.312025 
L 380.690039 383.988307 
L 383.961743 363.001404 
L 385.270425 356.106631 
L 385.924766 353.343324 
L 387.887789 343.416191 
L 388.54213 341.143557 
L 389.196471 339.688712 
L 390.505153 336.028291 
L 391.159494 335.01178 
L 391.813835 333.482516 
L 392.468176 331.397156 
L 393.776858 328.579057 
L 394.431199 329.71333 
L 395.08554 328.633031 
L 395.739881 329.931679 
L 397.048562 331.977785 
L 397.702903 333.855428 
L 398.357244 333.689417 
L 399.665926 337.044802 
L 400.320267 338.316463 
L 400.974608 340.460704 
L 402.28329 347.104417 
L 402.937631 349.43266 
L 403.591972 353.439823 
L 404.246313 355.97742 
L 404.900654 360.104798 
L 405.554995 362.223688 
L 406.209336 367.686514 
L 406.863677 372.071495 
L 408.172359 378.706212 
L 409.481041 388.494321 
L 410.135382 392.414798 
L 417.333132 445.840093 
L 417.987473 452.101081 
L 419.296155 462.594941 
L 420.604837 471.073771 
L 422.56786 485.676199 
L 423.222201 490.42019 
L 424.530883 498.620153 
L 425.185223 503.372322 
L 427.148246 514.510599 
L 428.456928 522.853676 
L 429.111269 525.998072 
L 430.419951 532.84296 
L 431.074292 535.733842 
L 431.728633 539.605252 
L 432.382974 542.352203 
L 433.691656 548.829905 
L 435.000338 554.656647 
L 436.30902 559.747379 
L 438.272043 566.532569 
L 438.926384 568.420025 
L 439.580724 570.9658 
L 441.543747 576.501409 
L 442.198088 578.171333 
L 442.852429 580.350739 
L 443.50677 581.582328 
L 444.161111 583.359382 
L 444.815452 584.611416 
L 446.778475 589.339051 
L 448.087157 591.0883 
L 448.741498 592.746775 
L 449.395839 594.033974 
L 452.013203 597.811338 
L 452.667544 598.402599 
L 453.321884 599.568765 
L 454.630566 601.239507 
L 455.939248 602.536519 
L 458.556612 604.630875 
L 459.865294 605.525536 
L 460.519635 606.117614 
L 461.173976 606.368675 
L 461.828317 606.892878 
L 463.136999 607.471872 
L 465.100022 608.369804 
L 466.408704 608.717364 
L 469.026067 609.748595 
L 470.98909 610.35294 
L 472.297772 610.787186 
L 479.495523 611.932907 
L 482.767227 612.286192 
L 483.421568 612.25348 
L 484.73025 612.385144 
L 497.162728 612.879089 
L 501.088774 612.931427 
L 508.286525 612.982948 
L 522.027685 613.044282 
L 558.016437 613.059002 
L 558.016437 613.059002 
" clip-path="url(#pe752a372a7)" style="fill: none; stroke: #eb372a; stroke-opacity: 0.7; stroke-width: 1.5; stroke-linecap: square"/>
   </g>
   <g id="line2d_76">
    <path d="M 209.477316 613.058767 
L 238.439084 613.06237 
L 277.054774 612.920415 
L 292.649572 612.266125 
L 300.818276 611.472042 
L 302.303495 611.206867 
L 303.046104 611.17444 
L 304.531323 610.817031 
L 305.273933 610.829281 
L 306.759152 610.412783 
L 311.957418 608.881542 
L 312.700027 608.572412 
L 313.442636 608.462883 
L 314.927855 607.787696 
L 316.413074 607.157906 
L 317.898293 606.499292 
L 320.126121 605.148197 
L 320.868731 604.640906 
L 321.61134 604.291423 
L 322.35395 603.660191 
L 323.096559 603.181724 
L 325.324387 601.238309 
L 326.066997 600.717327 
L 326.809606 599.675362 
L 327.552216 599.168071 
L 329.780044 596.674851 
L 331.265263 594.574349 
L 332.007872 593.939514 
L 334.235701 590.689681 
L 335.720919 588.110711 
L 336.463529 587.019027 
L 339.433967 581.562045 
L 340.176576 579.690688 
L 340.919185 578.227182 
L 342.404404 574.800085 
L 343.147014 573.35027 
L 345.374842 566.540032 
L 347.60267 560.538288 
L 348.34528 557.436175 
L 351.315717 547.843762 
L 352.800936 541.898944 
L 354.286155 536.408095 
L 355.028765 533.45226 
L 355.771374 530.989304 
L 363.197468 496.014322 
L 363.940078 492.030214 
L 364.682687 488.722734 
L 366.167906 481.27622 
L 366.910515 475.882649 
L 367.653125 473.121371 
L 368.395734 469.309483 
L 369.138344 466.254207 
L 369.880953 462.696684 
L 371.366172 453.97978 
L 372.108781 450.730668 
L 372.851391 446.775382 
L 373.594 443.578872 
L 375.821829 431.281387 
L 377.307048 425.121836 
L 378.049657 421.273918 
L 379.534876 414.735339 
L 380.277485 411.15764 
L 381.020095 409.358342 
L 383.247923 399.626856 
L 386.218361 390.882571 
L 386.96097 390.25278 
L 387.70358 387.37693 
L 388.446189 385.440721 
L 389.188798 383.074323 
L 389.931408 382.781766 
L 390.674017 382.079918 
L 391.416627 381.13235 
L 392.159236 379.921048 
L 392.901846 379.167317 
L 393.644455 379.186053 
L 394.387064 379.438977 
L 395.129674 378.759467 
L 395.872283 377.365137 
L 396.614893 378.103015 
L 397.357502 380.086062 
L 398.100112 380.02193 
L 398.842721 381.494083 
L 399.58533 382.664311 
L 401.070549 385.9336 
L 401.813159 386.64842 
L 402.555768 388.764774 
L 403.298378 390.469676 
L 404.040987 391.890667 
L 404.783596 394.317594 
L 405.526206 397.262621 
L 406.268815 399.404196 
L 407.011425 402.238973 
L 407.754034 404.490077 
L 410.724472 417.950585 
L 412.209691 424.507178 
L 412.9523 428.386802 
L 414.437519 435.351245 
L 419.635785 461.142384 
L 421.863613 473.380782 
L 422.606223 476.455513 
L 424.091442 484.860404 
L 427.061879 499.359273 
L 427.804489 501.874831 
L 428.547098 505.466222 
L 430.032317 513.683761 
L 430.774927 516.78083 
L 433.002755 527.32009 
L 433.745364 530.130368 
L 434.487974 533.677082 
L 435.230583 535.985833 
L 436.715802 542.747071 
L 439.68624 553.790741 
L 445.627115 571.059534 
L 446.369725 572.754347 
L 447.854943 576.697383 
L 451.567991 584.533733 
L 454.538428 589.83723 
L 456.766257 592.986903 
L 457.508866 593.918618 
L 458.994085 596.078928 
L 459.736694 596.621528 
L 461.964523 599.381364 
L 462.707132 599.86992 
L 463.449742 600.759121 
L 467.162789 603.920322 
L 467.905398 604.245306 
L 469.390617 605.326181 
L 470.133226 605.741958 
L 470.875836 606.36094 
L 471.618445 606.580718 
L 473.846274 607.79274 
L 474.588883 607.833093 
L 476.074102 608.608441 
L 476.816711 608.782102 
L 478.30193 609.281467 
L 481.272368 610.159858 
L 487.213243 611.294778 
L 495.381947 612.158038 
L 497.609775 612.248831 
L 499.837604 612.475815 
L 500.580213 612.423212 
L 501.322822 612.565888 
L 502.808041 612.607682 
L 508.006307 612.820254 
L 513.947183 612.902401 
L 519.888058 612.977341 
L 523.601105 612.984547 
L 555.533311 613.060929 
L 580.039422 613.063091 
L 580.039422 613.063091 
" clip-path="url(#pe752a372a7)" style="fill: none; stroke: #c8171c; stroke-opacity: 0.7; stroke-width: 1.5; stroke-linecap: square"/>
   </g>
   <g id="line2d_77">
    <path d="M 193.811848 613.063091 
L 263.881376 612.763443 
L 268.713758 612.59269 
L 272.740742 612.417286 
L 275.156933 612.228594 
L 278.37852 612.034587 
L 285.627092 611.338287 
L 291.26487 610.42539 
L 292.070267 610.084548 
L 292.875664 610.021429 
L 293.681061 609.828087 
L 294.486458 609.753009 
L 295.291855 609.422133 
L 296.902648 609.040098 
L 301.73503 607.507308 
L 303.345823 606.854195 
L 304.15122 606.597733 
L 306.567411 605.296822 
L 307.372808 604.682908 
L 308.178205 604.46764 
L 309.788998 603.543448 
L 310.594395 602.907609 
L 313.815983 601.061219 
L 315.426777 599.501188 
L 317.842967 597.582376 
L 318.648364 596.618984 
L 319.453761 596.211038 
L 320.259158 595.101476 
L 321.064555 594.404511 
L 322.675349 592.424574 
L 323.480745 591.576125 
L 324.286142 590.325044 
L 326.702333 587.697973 
L 328.313127 585.185181 
L 329.118524 584.409152 
L 329.92392 582.615914 
L 331.534714 580.287163 
L 333.145508 576.930572 
L 333.950905 575.58448 
L 334.756302 573.853032 
L 335.561699 572.555443 
L 337.172492 569.349672 
L 337.977889 567.750442 
L 341.199477 559.371588 
L 342.004874 558.175653 
L 346.031858 547.483994 
L 346.837255 544.56259 
L 349.253446 537.834127 
L 350.058842 535.198419 
L 351.669636 531.255155 
L 352.475033 528.498525 
L 353.28043 525.341257 
L 354.085827 523.177279 
L 354.891224 520.659835 
L 356.502017 514.915361 
L 357.307414 512.271016 
L 358.112811 510.297723 
L 358.918208 507.468008 
L 359.723605 503.454317 
L 360.529002 500.951491 
L 361.334399 498.04404 
L 362.139796 495.667451 
L 362.945192 492.86099 
L 363.750589 490.64851 
L 364.555986 487.060705 
L 365.361383 484.529974 
L 366.16678 481.366726 
L 366.972177 479.07053 
L 369.388367 471.477672 
L 370.999161 467.214164 
L 373.415352 459.465169 
L 375.026146 454.890053 
L 379.05313 443.623681 
L 379.858527 441.36735 
L 380.663924 439.914289 
L 382.274718 436.337779 
L 383.885511 434.407672 
L 384.690908 431.629117 
L 385.496305 430.519555 
L 386.301702 429.715621 
L 387.107099 427.66127 
L 387.912496 426.908495 
L 388.717893 425.914541 
L 389.523289 425.637482 
L 390.328686 424.699338 
L 391.134083 424.413642 
L 391.93948 424.774416 
L 392.744877 422.985829 
L 395.161068 422.571902 
L 395.966464 422.627712 
L 396.771861 423.643593 
L 397.577258 424.20236 
L 398.382655 424.620273 
L 399.188052 425.428194 
L 399.993449 425.20761 
L 400.798846 426.18429 
L 401.604243 426.598881 
L 402.409639 428.247278 
L 403.215036 429.550183 
L 404.020433 430.346144 
L 404.82583 431.48494 
L 405.631227 432.930693 
L 406.436624 434.827579 
L 408.047418 439.550858 
L 408.852815 440.507606 
L 409.658211 441.876951 
L 411.269005 446.289287 
L 412.074402 448.550933 
L 412.879799 449.786733 
L 413.685196 452.693519 
L 415.29599 456.541108 
L 417.71218 464.096095 
L 418.517577 466.135829 
L 419.322974 468.744296 
L 420.128371 470.944816 
L 420.933768 474.627632 
L 421.739165 477.648697 
L 423.349958 481.847093 
L 424.155355 484.401079 
L 424.960752 488.368925 
L 427.376943 495.708644 
L 428.18234 498.778211 
L 430.59853 506.672046 
L 433.014721 515.165843 
L 433.820118 517.351082 
L 438.652499 533.118156 
L 439.457896 535.24825 
L 440.263293 538.024812 
L 441.06869 540.219353 
L 441.874087 542.988607 
L 442.679483 545.307392 
L 443.48488 547.072061 
L 446.706468 556.00636 
L 449.122658 562.116923 
L 450.733452 565.493446 
L 452.344246 569.345022 
L 453.95504 572.17075 
L 456.37123 577.489339 
L 458.787421 581.178134 
L 462.009008 586.874771 
L 462.814405 587.945133 
L 463.619802 588.479982 
L 464.425199 589.613463 
L 465.230596 590.950917 
L 466.035993 591.607352 
L 466.84139 592.724223 
L 467.646787 593.327505 
L 469.25758 595.282195 
L 470.062977 595.951918 
L 470.868374 596.936571 
L 474.089962 599.725758 
L 474.895359 600.148321 
L 476.506152 601.673803 
L 477.311549 602.293696 
L 478.116946 602.698321 
L 479.72774 603.772669 
L 480.533137 604.165334 
L 482.14393 605.098828 
L 486.170915 606.971131 
L 486.976312 607.083416 
L 488.587105 607.877384 
L 489.392502 608.002293 
L 490.197899 608.406253 
L 494.224884 609.578934 
L 495.030281 609.778256 
L 495.835677 609.80151 
L 496.641074 610.061958 
L 499.057265 610.449308 
L 499.862662 610.740319 
L 502.278852 610.988808 
L 505.50044 611.440606 
L 511.138218 612.026614 
L 512.749012 612.127604 
L 518.38679 612.418615 
L 530.467743 612.85646 
L 568.321396 613.059769 
L 595.70489 613.059769 
L 595.70489 613.059769 
" clip-path="url(#pe752a372a7)" style="fill: none; stroke: #a10e15; stroke-opacity: 0.7; stroke-width: 1.5; stroke-linecap: square"/>
   </g>
   <g id="line2d_78">
    <path d="M 112.855874 613.063091 
L 198.725973 612.959371 
L 205.505191 612.882174 
L 228.102586 612.388203 
L 237.141543 611.907494 
L 247.310371 611.074422 
L 248.440241 610.856563 
L 251.82985 610.573821 
L 252.95972 610.353121 
L 254.089589 610.271187 
L 255.219459 610.000758 
L 258.609068 609.674444 
L 259.738938 609.334869 
L 264.258417 608.498482 
L 266.518156 607.798967 
L 267.648026 607.56027 
L 269.907765 606.878278 
L 271.037635 606.726251 
L 272.167505 606.397095 
L 273.297374 605.922069 
L 274.427244 605.705631 
L 276.686984 604.786836 
L 278.946723 604.066009 
L 280.076593 603.426168 
L 281.206462 603.218729 
L 282.336332 602.504532 
L 283.466202 601.987355 
L 284.596072 601.607997 
L 285.725941 600.843598 
L 286.855811 600.384674 
L 294.764899 595.985353 
L 295.894769 594.989835 
L 298.154508 593.67037 
L 299.284378 592.644541 
L 301.544117 591.068856 
L 302.673987 589.917047 
L 303.803857 589.055086 
L 304.933727 587.867283 
L 307.193466 585.848777 
L 308.323336 584.877886 
L 309.453205 583.554159 
L 310.583075 582.57048 
L 313.972684 578.633399 
L 316.232424 576.524907 
L 317.362293 574.861605 
L 318.492163 573.661015 
L 319.622033 571.978295 
L 320.751903 570.974725 
L 321.881772 569.60127 
L 323.011642 567.82667 
L 325.271381 565.196266 
L 332.0506 555.737419 
L 333.18047 553.692864 
L 334.310339 552.268733 
L 336.570079 548.531986 
L 337.699948 547.454534 
L 338.829818 545.198751 
L 343.349297 538.382622 
L 344.479167 536.908762 
L 345.609036 534.825372 
L 346.738906 533.438655 
L 351.258385 525.609484 
L 352.388255 524.19814 
L 353.518124 522.250675 
L 354.647994 521.036824 
L 356.907734 516.61998 
L 359.167473 513.31232 
L 360.297343 511.145575 
L 361.427212 509.555682 
L 363.686952 507.140294 
L 364.816822 505.431052 
L 367.076561 502.681299 
L 368.206431 500.829028 
L 369.3363 499.504354 
L 374.985649 493.715475 
L 378.375258 491.259831 
L 379.505128 490.992244 
L 380.634998 489.489968 
L 381.764867 488.223547 
L 382.894737 487.182562 
L 384.024607 487.431205 
L 385.154477 486.294078 
L 386.284346 485.404174 
L 387.414216 485.665604 
L 388.544086 485.085911 
L 389.673955 484.669612 
L 390.803825 483.925104 
L 391.933695 484.094655 
L 393.063565 484.895048 
L 394.193434 484.25426 
L 395.323304 484.835374 
L 396.453174 484.436124 
L 398.712913 484.667244 
L 399.842783 485.116695 
L 400.972653 484.795117 
L 402.102522 485.746117 
L 403.232392 486.141577 
L 404.362262 486.716061 
L 405.492131 487.005907 
L 406.622001 487.449202 
L 407.751871 488.693363 
L 408.881741 489.317102 
L 410.01161 490.508693 
L 411.14148 491.218154 
L 412.27135 492.109953 
L 413.401219 493.197351 
L 415.660959 495.589058 
L 417.920698 498.725747 
L 419.050568 499.959962 
L 420.180438 500.839448 
L 421.310308 501.955262 
L 423.570047 505.082005 
L 424.699917 506.071367 
L 426.959656 509.557102 
L 430.349265 513.989102 
L 432.609005 517.510832 
L 433.738874 518.592073 
L 435.998614 522.501212 
L 437.128484 523.768106 
L 438.258353 526.192966 
L 441.647962 531.829344 
L 442.777832 533.276682 
L 443.907702 535.017656 
L 445.037572 537.058895 
L 446.167441 538.762927 
L 447.297311 540.183743 
L 450.68692 545.31952 
L 451.81679 547.261303 
L 454.076529 550.424987 
L 455.206399 552.331722 
L 457.466138 555.362323 
L 458.596008 557.37041 
L 460.855748 560.668125 
L 461.985617 561.705794 
L 463.115487 563.45103 
L 464.245357 564.93152 
L 465.375227 566.694753 
L 467.634966 569.647683 
L 468.764836 571.222895 
L 471.024575 573.461627 
L 473.284315 576.458129 
L 474.414184 577.397762 
L 475.544054 578.913773 
L 477.803793 581.387888 
L 478.933663 582.858432 
L 480.063533 583.743127 
L 481.193403 584.78127 
L 482.323272 585.645127 
L 483.453142 586.939964 
L 486.842751 589.71908 
L 487.972621 590.407229 
L 490.23236 592.412474 
L 491.36223 593.138038 
L 494.751839 595.818644 
L 497.011579 597.212939 
L 498.141448 597.606031 
L 500.401188 599.025427 
L 504.920667 601.512329 
L 506.050536 601.972673 
L 508.310276 603.129691 
L 511.699885 604.372905 
L 512.829755 604.884873 
L 515.089494 605.477353 
L 516.219364 606.060361 
L 519.608973 606.933216 
L 520.738843 607.437606 
L 521.868712 607.640783 
L 522.998582 607.979884 
L 525.258322 608.46675 
L 528.647931 609.233518 
L 529.7778 609.340552 
L 533.16741 609.934927 
L 542.206367 611.1753 
L 543.336237 611.237816 
L 544.466107 611.41447 
L 548.985586 611.722314 
L 551.245325 611.851135 
L 560.284283 612.324266 
L 568.193371 612.5677 
L 579.492068 612.848074 
L 649.543991 613.06167 
L 676.660864 613.060249 
L 676.660864 613.060249 
" clip-path="url(#pe752a372a7)" style="fill: none; stroke: #67000d; stroke-opacity: 0.7; stroke-width: 1.5; stroke-linecap: square"/>
   </g>
   <g id="patch_3">
    <path d="M 84.665625 640.3905 
L 84.665625 39.1875 
" style="fill: none; stroke: #000000; stroke-width: 0.8; stroke-linejoin: miter; stroke-linecap: square"/>
   </g>
   <g id="patch_4">
    <path d="M 704.851113 640.3905 
L 704.851113 39.1875 
" style="fill: none; stroke: #000000; stroke-width: 0.8; stroke-linejoin: miter; stroke-linecap: square"/>
   </g>
   <g id="patch_5">
    <path d="M 84.665625 640.3905 
L 704.851113 640.3905 
" style="fill: none; stroke: #000000; stroke-width: 0.8; stroke-linejoin: miter; stroke-linecap: square"/>
   </g>
   <g id="patch_6">
    <path d="M 84.665625 39.1875 
L 704.851113 39.1875 
" style="fill: none; stroke: #000000; stroke-width: 0.8; stroke-linejoin: miter; stroke-linecap: square"/>
   </g>
   <g id="legend_1">
    <g id="patch_7">
     <path d="M 105.665625 320.98125 
L 310.865625 320.98125 
Q 316.865625 320.98125 316.865625 314.98125 
L 316.865625 60.1875 
Q 316.865625 54.1875 310.865625 54.1875 
L 105.665625 54.1875 
Q 99.665625 54.1875 99.665625 60.1875 
L 99.665625 314.98125 
Q 99.665625 320.98125 105.665625 320.98125 
z
" style="fill: #ffffff; opacity: 0.8; stroke: #cccccc; stroke-linejoin: miter"/>
    </g>
    <g id="line2d_79">
     <path d="M 111.665625 77.428125 
L 141.665625 77.428125 
L 171.665625 77.428125 
" style="fill: none; stroke: #fc8a6a; stroke-opacity: 0.7; stroke-width: 1.5; stroke-linecap: square"/>
    </g>
    <g id="text_19">
     <!-- $\alpha$ = 0.01 -->
     <g transform="translate(195.665625 87.928125) scale(0.3 -0.3)">
      <defs>
       <path id="STIXGeneral-Italic-3b1" d="M 3514 2739 
L 2605 1069 
L 2605 954 
Q 2605 704 2662 512 
Q 2720 320 2822 320 
Q 2970 320 3149 794 
L 3251 749 
Q 3014 -58 2605 -58 
Q 2291 -58 2272 614 
Q 1709 -70 1030 -70 
Q 589 -70 381 198 
Q 173 467 173 902 
Q 173 1293 329 1673 
Q 486 2054 755 2330 
Q 973 2547 1270 2684 
Q 1568 2822 1862 2822 
Q 2246 2822 2457 2595 
Q 2669 2368 2669 2061 
L 2963 2739 
L 3514 2739 
z
M 2298 1741 
Q 2298 2688 1805 2688 
Q 1472 2688 1085 2099 
Q 698 1510 698 800 
Q 698 493 806 278 
Q 915 64 1139 64 
Q 1606 64 2195 1286 
Q 2202 1325 2230 1411 
Q 2259 1498 2278 1581 
Q 2298 1664 2298 1741 
z
" transform="scale(0.015625)"/>
       <path id="LiberationSans-3d" d="M 313 2675 
L 313 3138 
L 3422 3138 
L 3422 2675 
L 313 2675 
z
M 313 1075 
L 313 1538 
L 3422 1538 
L 3422 1075 
L 313 1075 
z
" transform="scale(0.015625)"/>
      </defs>
      <use xlink:href="#STIXGeneral-Italic-3b1" transform="translate(0 0.171875)"/>
      <use xlink:href="#LiberationSans-20" transform="translate(55.199997 0.171875)"/>
      <use xlink:href="#LiberationSans-3d" transform="translate(82.9832 0.171875)"/>
      <use xlink:href="#LiberationSans-20" transform="translate(141.381638 0.171875)"/>
      <use xlink:href="#LiberationSans-30" transform="translate(169.164841 0.171875)"/>
      <use xlink:href="#LiberationSans-2e" transform="translate(224.780075 0.171875)"/>
      <use xlink:href="#LiberationSans-30" transform="translate(252.563278 0.171875)"/>
      <use xlink:href="#LiberationSans-31" transform="translate(308.178513 0.171875)"/>
     </g>
    </g>
    <g id="line2d_80">
     <path d="M 111.665625 120.39375 
L 141.665625 120.39375 
L 171.665625 120.39375 
" style="fill: none; stroke: #f96245; stroke-opacity: 0.7; stroke-width: 1.5; stroke-linecap: square"/>
    </g>
    <g id="text_20">
     <!-- $\alpha$ = 0.03 -->
     <g transform="translate(195.665625 130.89375) scale(0.3 -0.3)">
      <use xlink:href="#STIXGeneral-Italic-3b1" transform="translate(0 0.171875)"/>
      <use xlink:href="#LiberationSans-20" transform="translate(55.199997 0.171875)"/>
      <use xlink:href="#LiberationSans-3d" transform="translate(82.9832 0.171875)"/>
      <use xlink:href="#LiberationSans-20" transform="translate(141.381638 0.171875)"/>
      <use xlink:href="#LiberationSans-30" transform="translate(169.164841 0.171875)"/>
      <use xlink:href="#LiberationSans-2e" transform="translate(224.780075 0.171875)"/>
      <use xlink:href="#LiberationSans-30" transform="translate(252.563278 0.171875)"/>
      <use xlink:href="#LiberationSans-33" transform="translate(308.178513 0.171875)"/>
     </g>
    </g>
    <g id="line2d_81">
     <path d="M 111.665625 163.359375 
L 141.665625 163.359375 
L 171.665625 163.359375 
" style="fill: none; stroke: #eb372a; stroke-opacity: 0.7; stroke-width: 1.5; stroke-linecap: square"/>
    </g>
    <g id="text_21">
     <!-- $\alpha$ = 0.05 -->
     <g transform="translate(195.665625 173.859375) scale(0.3 -0.3)">
      <use xlink:href="#STIXGeneral-Italic-3b1" transform="translate(0 0.171875)"/>
      <use xlink:href="#LiberationSans-20" transform="translate(55.199997 0.171875)"/>
      <use xlink:href="#LiberationSans-3d" transform="translate(82.9832 0.171875)"/>
      <use xlink:href="#LiberationSans-20" transform="translate(141.381638 0.171875)"/>
      <use xlink:href="#LiberationSans-30" transform="translate(169.164841 0.171875)"/>
      <use xlink:href="#LiberationSans-2e" transform="translate(224.780075 0.171875)"/>
      <use xlink:href="#LiberationSans-30" transform="translate(252.563278 0.171875)"/>
      <use xlink:href="#LiberationSans-35" transform="translate(308.178513 0.171875)"/>
     </g>
    </g>
    <g id="line2d_82">
     <path d="M 111.665625 206.325 
L 141.665625 206.325 
L 171.665625 206.325 
" style="fill: none; stroke: #c8171c; stroke-opacity: 0.7; stroke-width: 1.5; stroke-linecap: square"/>
    </g>
    <g id="text_22">
     <!-- $\alpha$ = 0.07 -->
     <g transform="translate(195.665625 216.825) scale(0.3 -0.3)">
      <defs>
       <path id="LiberationSans-37" d="M 3238 3947 
Q 2563 2916 2284 2331 
Q 2006 1747 1867 1178 
Q 1728 609 1728 0 
L 1141 0 
Q 1141 844 1498 1776 
Q 1856 2709 2694 3925 
L 328 3925 
L 328 4403 
L 3238 4403 
L 3238 3947 
z
" transform="scale(0.015625)"/>
      </defs>
      <use xlink:href="#STIXGeneral-Italic-3b1" transform="translate(0 0.171875)"/>
      <use xlink:href="#LiberationSans-20" transform="translate(55.199997 0.171875)"/>
      <use xlink:href="#LiberationSans-3d" transform="translate(82.9832 0.171875)"/>
      <use xlink:href="#LiberationSans-20" transform="translate(141.381638 0.171875)"/>
      <use xlink:href="#LiberationSans-30" transform="translate(169.164841 0.171875)"/>
      <use xlink:href="#LiberationSans-2e" transform="translate(224.780075 0.171875)"/>
      <use xlink:href="#LiberationSans-30" transform="translate(252.563278 0.171875)"/>
      <use xlink:href="#LiberationSans-37" transform="translate(308.178513 0.171875)"/>
     </g>
    </g>
    <g id="line2d_83">
     <path d="M 111.665625 249.290625 
L 141.665625 249.290625 
L 171.665625 249.290625 
" style="fill: none; stroke: #a10e15; stroke-opacity: 0.7; stroke-width: 1.5; stroke-linecap: square"/>
    </g>
    <g id="text_23">
     <!-- $\alpha$ = 0.1 -->
     <g transform="translate(195.665625 259.790625) scale(0.3 -0.3)">
      <use xlink:href="#STIXGeneral-Italic-3b1" transform="translate(0 0.171875)"/>
      <use xlink:href="#LiberationSans-20" transform="translate(55.199997 0.171875)"/>
      <use xlink:href="#LiberationSans-3d" transform="translate(82.9832 0.171875)"/>
      <use xlink:href="#LiberationSans-20" transform="translate(141.381638 0.171875)"/>
      <use xlink:href="#LiberationSans-30" transform="translate(169.164841 0.171875)"/>
      <use xlink:href="#LiberationSans-2e" transform="translate(224.780075 0.171875)"/>
      <use xlink:href="#LiberationSans-31" transform="translate(252.563278 0.171875)"/>
     </g>
    </g>
    <g id="line2d_84">
     <path d="M 111.665625 292.25625 
L 141.665625 292.25625 
L 171.665625 292.25625 
" style="fill: none; stroke: #67000d; stroke-opacity: 0.7; stroke-width: 1.5; stroke-linecap: square"/>
    </g>
    <g id="text_24">
     <!-- $\alpha$ = 0.2 -->
     <g transform="translate(195.665625 302.75625) scale(0.3 -0.3)">
      <use xlink:href="#STIXGeneral-Italic-3b1" transform="translate(0 0.171875)"/>
      <use xlink:href="#LiberationSans-20" transform="translate(55.199997 0.171875)"/>
      <use xlink:href="#LiberationSans-3d" transform="translate(82.9832 0.171875)"/>
      <use xlink:href="#LiberationSans-20" transform="translate(141.381638 0.171875)"/>
      <use xlink:href="#LiberationSans-30" transform="translate(169.164841 0.171875)"/>
      <use xlink:href="#LiberationSans-2e" transform="translate(224.780075 0.171875)"/>
      <use xlink:href="#LiberationSans-32" transform="translate(252.563278 0.171875)"/>
     </g>
    </g>
   </g>
  </g>
 </g>
 <defs>
  <clipPath id="pe752a372a7">
   <rect x="84.665625" y="39.1875" width="620.185488" height="601.203"/>
  </clipPath>
 </defs>
</svg>
