<?xml version="1.0" encoding="utf-8" standalone="no"?>
<!DOCTYPE svg PUBLIC "-//W3C//DTD SVG 1.1//EN"
  "http://www.w3.org/Graphics/SVG/1.1/DTD/svg11.dtd">
<svg xmlns:xlink="http://www.w3.org/1999/xlink" width="712.237109pt" height="711.490062pt" viewBox="0 0 712.237109 711.490062" xmlns="http://www.w3.org/2000/svg" version="1.1">
 <metadata>
  <rdf:RDF xmlns:dc="http://purl.org/dc/elements/1.1/" xmlns:cc="http://creativecommons.org/ns#" xmlns:rdf="http://www.w3.org/1999/02/22-rdf-syntax-ns#">
   <cc:Work>
    <dc:type rdf:resource="http://purl.org/dc/dcmitype/StillImage"/>
    <dc:date>2025-02-07T15:25:00.730505</dc:date>
    <dc:format>image/svg+xml</dc:format>
    <dc:creator>
     <cc:Agent>
      <dc:title>Matplotlib v3.9.3, https://matplotlib.org/</dc:title>
     </cc:Agent>
    </dc:creator>
   </cc:Work>
  </rdf:RDF>
 </metadata>
 <defs>
  <style type="text/css">*{stroke-linejoin: round; stroke-linecap: butt}</style>
 </defs>
 <g id="figure_1">
  <g id="patch_1">
   <path d="M 0 711.490062 
L 712.237109 711.490062 
L 712.237109 0 
L 0 0 
z
" style="fill: #ffffff"/>
  </g>
  <g id="axes_1">
   <g id="patch_2">
    <path d="M 75.804688 635.3335 
L 705.037109 635.3335 
L 705.037109 39.1875 
L 75.804688 39.1875 
z
" style="fill: #ffffff"/>
   </g>
   <g id="line2d_1">
    <path d="M 390.420898 635.3335 
L 390.420898 39.1875 
" clip-path="url(#pc1b59db234)" style="fill: none; stroke-dasharray: 7.4,3.2; stroke-dashoffset: 0; stroke: #808080; stroke-opacity: 0.5; stroke-width: 2"/>
   </g>
   <g id="matplotlib.axis_1">
    <g id="xtick_1">
     <g id="line2d_2">
      <defs>
       <path id="m1e41622bd4" d="M 0 0 
L 0 -3.5 
" style="stroke: #000000; stroke-width: 0.8"/>
      </defs>
      <g>
       <use xlink:href="#m1e41622bd4" x="151.799372" y="635.3335" style="stroke: #000000; stroke-width: 0.8"/>
      </g>
     </g>
     <g id="text_1">
      <!-- $\mathdefault{−2}$ -->
      <g transform="translate(136.274372 658.400062) scale(0.27 -0.27)">
       <defs>
        <path id="LiberationSans-2212" d="M 316 1900 
L 316 2356 
L 3425 2356 
L 3425 1900 
L 316 1900 
z
" transform="scale(0.015625)"/>
        <path id="LiberationSans-32" d="M 322 0 
L 322 397 
Q 481 763 711 1042 
Q 941 1322 1194 1548 
Q 1447 1775 1695 1969 
Q 1944 2163 2144 2356 
Q 2344 2550 2467 2762 
Q 2591 2975 2591 3244 
Q 2591 3606 2378 3806 
Q 2166 4006 1788 4006 
Q 1428 4006 1195 3811 
Q 963 3616 922 3263 
L 347 3316 
Q 409 3844 795 4156 
Q 1181 4469 1788 4469 
Q 2453 4469 2811 4155 
Q 3169 3841 3169 3263 
Q 3169 3006 3051 2753 
Q 2934 2500 2703 2247 
Q 2472 1994 1819 1463 
Q 1459 1169 1246 933 
Q 1034 697 941 478 
L 3238 478 
L 3238 0 
L 322 0 
z
" transform="scale(0.015625)"/>
       </defs>
       <use xlink:href="#LiberationSans-2212" transform="translate(0 0.171875)"/>
       <use xlink:href="#LiberationSans-32" transform="translate(58.398438 0.171875)"/>
      </g>
     </g>
    </g>
    <g id="xtick_2">
     <g id="line2d_3">
      <g>
       <use xlink:href="#m1e41622bd4" x="271.110135" y="635.3335" style="stroke: #000000; stroke-width: 0.8"/>
      </g>
     </g>
     <g id="text_2">
      <!-- $\mathdefault{−1}$ -->
      <g transform="translate(255.585135 658.400062) scale(0.27 -0.27)">
       <defs>
        <path id="LiberationSans-31" d="M 488 0 
L 488 478 
L 1609 478 
L 1609 3866 
L 616 3156 
L 616 3688 
L 1656 4403 
L 2175 4403 
L 2175 478 
L 3247 478 
L 3247 0 
L 488 0 
z
" transform="scale(0.015625)"/>
       </defs>
       <use xlink:href="#LiberationSans-2212" transform="translate(0 0.203125)"/>
       <use xlink:href="#LiberationSans-31" transform="translate(58.398438 0.203125)"/>
      </g>
     </g>
    </g>
    <g id="xtick_3">
     <g id="line2d_4">
      <g>
       <use xlink:href="#m1e41622bd4" x="390.420898" y="635.3335" style="stroke: #000000; stroke-width: 0.8"/>
      </g>
     </g>
     <g id="text_3">
      <!-- $\mathdefault{0}$ -->
      <g transform="translate(382.860898 658.400062) scale(0.27 -0.27)">
       <defs>
        <path id="LiberationSans-30" d="M 3309 2203 
Q 3309 1100 2920 518 
Q 2531 -63 1772 -63 
Q 1013 -63 631 515 
Q 250 1094 250 2203 
Q 250 3338 620 3903 
Q 991 4469 1791 4469 
Q 2569 4469 2939 3897 
Q 3309 3325 3309 2203 
z
M 2738 2203 
Q 2738 3156 2517 3584 
Q 2297 4013 1791 4013 
Q 1272 4013 1045 3591 
Q 819 3169 819 2203 
Q 819 1266 1048 831 
Q 1278 397 1778 397 
Q 2275 397 2506 840 
Q 2738 1284 2738 2203 
z
" transform="scale(0.015625)"/>
       </defs>
       <use xlink:href="#LiberationSans-30" transform="translate(0 0.171875)"/>
      </g>
     </g>
    </g>
    <g id="xtick_4">
     <g id="line2d_5">
      <g>
       <use xlink:href="#m1e41622bd4" x="509.731662" y="635.3335" style="stroke: #000000; stroke-width: 0.8"/>
      </g>
     </g>
     <g id="text_4">
      <!-- $\mathdefault{1}$ -->
      <g transform="translate(502.171662 658.400062) scale(0.27 -0.27)">
       <use xlink:href="#LiberationSans-31" transform="translate(0 0.203125)"/>
      </g>
     </g>
    </g>
    <g id="xtick_5">
     <g id="line2d_6">
      <g>
       <use xlink:href="#m1e41622bd4" x="629.042425" y="635.3335" style="stroke: #000000; stroke-width: 0.8"/>
      </g>
     </g>
     <g id="text_5">
      <!-- $\mathdefault{2}$ -->
      <g transform="translate(621.482425 658.400062) scale(0.27 -0.27)">
       <use xlink:href="#LiberationSans-32" transform="translate(0 0.171875)"/>
      </g>
     </g>
    </g>
    <g id="xtick_6">
     <g id="line2d_7">
      <defs>
       <path id="mb9619e32f5" d="M 0 0 
L 0 -2 
" style="stroke: #000000; stroke-width: 0.6"/>
      </defs>
      <g>
       <use xlink:href="#mb9619e32f5" x="80.212914" y="635.3335" style="stroke: #000000; stroke-width: 0.6"/>
      </g>
     </g>
    </g>
    <g id="xtick_7">
     <g id="line2d_8">
      <g>
       <use xlink:href="#mb9619e32f5" x="104.075067" y="635.3335" style="stroke: #000000; stroke-width: 0.6"/>
      </g>
     </g>
    </g>
    <g id="xtick_8">
     <g id="line2d_9">
      <g>
       <use xlink:href="#mb9619e32f5" x="127.93722" y="635.3335" style="stroke: #000000; stroke-width: 0.6"/>
      </g>
     </g>
    </g>
    <g id="xtick_9">
     <g id="line2d_10">
      <g>
       <use xlink:href="#mb9619e32f5" x="175.661525" y="635.3335" style="stroke: #000000; stroke-width: 0.6"/>
      </g>
     </g>
    </g>
    <g id="xtick_10">
     <g id="line2d_11">
      <g>
       <use xlink:href="#mb9619e32f5" x="199.523677" y="635.3335" style="stroke: #000000; stroke-width: 0.6"/>
      </g>
     </g>
    </g>
    <g id="xtick_11">
     <g id="line2d_12">
      <g>
       <use xlink:href="#mb9619e32f5" x="223.38583" y="635.3335" style="stroke: #000000; stroke-width: 0.6"/>
      </g>
     </g>
    </g>
    <g id="xtick_12">
     <g id="line2d_13">
      <g>
       <use xlink:href="#mb9619e32f5" x="247.247983" y="635.3335" style="stroke: #000000; stroke-width: 0.6"/>
      </g>
     </g>
    </g>
    <g id="xtick_13">
     <g id="line2d_14">
      <g>
       <use xlink:href="#mb9619e32f5" x="294.972288" y="635.3335" style="stroke: #000000; stroke-width: 0.6"/>
      </g>
     </g>
    </g>
    <g id="xtick_14">
     <g id="line2d_15">
      <g>
       <use xlink:href="#mb9619e32f5" x="318.834441" y="635.3335" style="stroke: #000000; stroke-width: 0.6"/>
      </g>
     </g>
    </g>
    <g id="xtick_15">
     <g id="line2d_16">
      <g>
       <use xlink:href="#mb9619e32f5" x="342.696593" y="635.3335" style="stroke: #000000; stroke-width: 0.6"/>
      </g>
     </g>
    </g>
    <g id="xtick_16">
     <g id="line2d_17">
      <g>
       <use xlink:href="#mb9619e32f5" x="366.558746" y="635.3335" style="stroke: #000000; stroke-width: 0.6"/>
      </g>
     </g>
    </g>
    <g id="xtick_17">
     <g id="line2d_18">
      <g>
       <use xlink:href="#mb9619e32f5" x="414.283051" y="635.3335" style="stroke: #000000; stroke-width: 0.6"/>
      </g>
     </g>
    </g>
    <g id="xtick_18">
     <g id="line2d_19">
      <g>
       <use xlink:href="#mb9619e32f5" x="438.145204" y="635.3335" style="stroke: #000000; stroke-width: 0.6"/>
      </g>
     </g>
    </g>
    <g id="xtick_19">
     <g id="line2d_20">
      <g>
       <use xlink:href="#mb9619e32f5" x="462.007356" y="635.3335" style="stroke: #000000; stroke-width: 0.6"/>
      </g>
     </g>
    </g>
    <g id="xtick_20">
     <g id="line2d_21">
      <g>
       <use xlink:href="#mb9619e32f5" x="485.869509" y="635.3335" style="stroke: #000000; stroke-width: 0.6"/>
      </g>
     </g>
    </g>
    <g id="xtick_21">
     <g id="line2d_22">
      <g>
       <use xlink:href="#mb9619e32f5" x="533.593814" y="635.3335" style="stroke: #000000; stroke-width: 0.6"/>
      </g>
     </g>
    </g>
    <g id="xtick_22">
     <g id="line2d_23">
      <g>
       <use xlink:href="#mb9619e32f5" x="557.455967" y="635.3335" style="stroke: #000000; stroke-width: 0.6"/>
      </g>
     </g>
    </g>
    <g id="xtick_23">
     <g id="line2d_24">
      <g>
       <use xlink:href="#mb9619e32f5" x="581.318119" y="635.3335" style="stroke: #000000; stroke-width: 0.6"/>
      </g>
     </g>
    </g>
    <g id="xtick_24">
     <g id="line2d_25">
      <g>
       <use xlink:href="#mb9619e32f5" x="605.180272" y="635.3335" style="stroke: #000000; stroke-width: 0.6"/>
      </g>
     </g>
    </g>
    <g id="xtick_25">
     <g id="line2d_26">
      <g>
       <use xlink:href="#mb9619e32f5" x="652.904577" y="635.3335" style="stroke: #000000; stroke-width: 0.6"/>
      </g>
     </g>
    </g>
    <g id="xtick_26">
     <g id="line2d_27">
      <g>
       <use xlink:href="#mb9619e32f5" x="676.76673" y="635.3335" style="stroke: #000000; stroke-width: 0.6"/>
      </g>
     </g>
    </g>
    <g id="xtick_27">
     <g id="line2d_28">
      <g>
       <use xlink:href="#mb9619e32f5" x="700.628883" y="635.3335" style="stroke: #000000; stroke-width: 0.6"/>
      </g>
     </g>
    </g>
    <g id="text_6">
     <!-- Heat flux $\mathrm{W} / \mathrm{m}^2$ -->
     <g transform="translate(307.420898 686.11975) scale(0.25 -0.25)">
      <defs>
       <path id="LiberationSans-48" d="M 3503 0 
L 3503 2041 
L 1122 2041 
L 1122 0 
L 525 0 
L 525 4403 
L 1122 4403 
L 1122 2541 
L 3503 2541 
L 3503 4403 
L 4100 4403 
L 4100 0 
L 3503 0 
z
" transform="scale(0.015625)"/>
       <path id="LiberationSans-65" d="M 863 1572 
Q 863 991 1103 675 
Q 1344 359 1806 359 
Q 2172 359 2392 506 
Q 2613 653 2691 878 
L 3184 738 
Q 2881 -63 1806 -63 
Q 1056 -63 664 384 
Q 272 831 272 1713 
Q 272 2550 664 2997 
Q 1056 3444 1784 3444 
Q 3275 3444 3275 1647 
L 3275 1572 
L 863 1572 
z
M 2694 2003 
Q 2647 2538 2422 2783 
Q 2197 3028 1775 3028 
Q 1366 3028 1127 2754 
Q 888 2481 869 2003 
L 2694 2003 
z
" transform="scale(0.015625)"/>
       <path id="LiberationSans-61" d="M 1294 -63 
Q 784 -63 528 206 
Q 272 475 272 944 
Q 272 1469 617 1750 
Q 963 2031 1731 2050 
L 2491 2063 
L 2491 2247 
Q 2491 2659 2316 2837 
Q 2141 3016 1766 3016 
Q 1388 3016 1216 2887 
Q 1044 2759 1009 2478 
L 422 2531 
Q 566 3444 1778 3444 
Q 2416 3444 2737 3151 
Q 3059 2859 3059 2306 
L 3059 850 
Q 3059 600 3125 473 
Q 3191 347 3375 347 
Q 3456 347 3559 369 
L 3559 19 
Q 3347 -31 3125 -31 
Q 2813 -31 2670 133 
Q 2528 297 2509 647 
L 2491 647 
Q 2275 259 1989 98 
Q 1703 -63 1294 -63 
z
M 1422 359 
Q 1731 359 1972 500 
Q 2213 641 2352 886 
Q 2491 1131 2491 1391 
L 2491 1669 
L 1875 1656 
Q 1478 1650 1273 1575 
Q 1069 1500 959 1344 
Q 850 1188 850 934 
Q 850 659 998 509 
Q 1147 359 1422 359 
z
" transform="scale(0.015625)"/>
       <path id="LiberationSans-74" d="M 1731 25 
Q 1453 -50 1163 -50 
Q 488 -50 488 716 
L 488 2972 
L 97 2972 
L 97 3381 
L 509 3381 
L 675 4138 
L 1050 4138 
L 1050 3381 
L 1675 3381 
L 1675 2972 
L 1050 2972 
L 1050 838 
Q 1050 594 1129 495 
Q 1209 397 1406 397 
Q 1519 397 1731 441 
L 1731 25 
z
" transform="scale(0.015625)"/>
       <path id="LiberationSans-20" transform="scale(0.015625)"/>
       <path id="LiberationSans-66" d="M 1128 2972 
L 1128 0 
L 566 0 
L 566 2972 
L 91 2972 
L 91 3381 
L 566 3381 
L 566 3763 
Q 566 4225 769 4428 
Q 972 4631 1391 4631 
Q 1625 4631 1788 4594 
L 1788 4166 
Q 1647 4191 1538 4191 
Q 1322 4191 1225 4081 
Q 1128 3972 1128 3684 
L 1128 3381 
L 1788 3381 
L 1788 2972 
L 1128 2972 
z
" transform="scale(0.015625)"/>
       <path id="LiberationSans-6c" d="M 431 0 
L 431 4638 
L 994 4638 
L 994 0 
L 431 0 
z
" transform="scale(0.015625)"/>
       <path id="LiberationSans-75" d="M 981 3381 
L 981 1238 
Q 981 903 1047 718 
Q 1113 534 1256 453 
Q 1400 372 1678 372 
Q 2084 372 2318 650 
Q 2553 928 2553 1422 
L 2553 3381 
L 3116 3381 
L 3116 722 
Q 3116 131 3134 0 
L 2603 0 
Q 2600 16 2597 84 
Q 2594 153 2589 242 
Q 2584 331 2578 578 
L 2569 578 
Q 2375 228 2120 82 
Q 1866 -63 1488 -63 
Q 931 -63 673 214 
Q 416 491 416 1128 
L 416 3381 
L 981 3381 
z
" transform="scale(0.015625)"/>
       <path id="LiberationSans-78" d="M 2503 0 
L 1594 1388 
L 678 0 
L 72 0 
L 1275 1738 
L 128 3381 
L 750 3381 
L 1594 2066 
L 2431 3381 
L 3059 3381 
L 1913 1744 
L 3131 0 
L 2503 0 
z
" transform="scale(0.015625)"/>
       <path id="STIXGeneral-Regular-57" d="M 5965 4237 
L 5965 4115 
Q 5709 4064 5616 3990 
Q 5523 3917 5434 3667 
Q 4704 1709 4128 -70 
L 4032 -70 
Q 3642 1011 3008 2637 
L 2022 -70 
L 1926 -70 
Q 1709 576 1277 1753 
Q 845 2931 698 3347 
Q 538 3808 406 3958 
Q 275 4109 32 4115 
L 32 4237 
L 1594 4237 
L 1594 4115 
Q 1357 4109 1270 4064 
Q 1184 4019 1184 3917 
Q 1184 3808 1254 3616 
L 2176 1210 
L 2842 3021 
L 2662 3501 
Q 2509 3917 2400 4013 
Q 2291 4109 2010 4115 
L 2010 4237 
L 3706 4237 
L 3706 4115 
Q 3213 4102 3213 3891 
Q 3213 3808 3322 3520 
L 4237 1190 
L 5043 3360 
Q 5152 3667 5152 3853 
Q 5152 4109 4704 4115 
L 4704 4237 
L 5965 4237 
z
" transform="scale(0.015625)"/>
       <path id="STIXGeneral-Regular-2f" d="M 1837 4326 
L 378 -90 
L -58 -90 
L 1408 4326 
L 1837 4326 
z
" transform="scale(0.015625)"/>
       <path id="STIXGeneral-Regular-6d" d="M 4960 0 
L 3565 0 
L 3565 96 
Q 3834 122 3907 208 
Q 3981 294 3981 576 
L 3981 1894 
Q 3981 2278 3869 2444 
Q 3757 2611 3488 2611 
Q 3264 2611 3107 2521 
Q 2950 2432 2803 2221 
L 2803 608 
Q 2803 301 2896 201 
Q 2989 102 3264 96 
L 3264 0 
L 1830 0 
L 1830 96 
Q 2112 115 2189 188 
Q 2266 262 2266 550 
L 2266 1901 
Q 2266 2611 1850 2611 
Q 1670 2611 1468 2531 
Q 1267 2451 1171 2336 
Q 1088 2240 1088 2227 
L 1088 448 
Q 1088 243 1177 176 
Q 1267 109 1523 96 
L 1523 0 
L 102 0 
L 102 96 
Q 371 102 460 195 
Q 550 288 550 563 
L 550 2150 
Q 550 2387 499 2480 
Q 448 2573 326 2573 
Q 230 2573 122 2547 
L 122 2656 
Q 557 2778 1011 2944 
L 1062 2925 
L 1062 2451 
L 1075 2451 
Q 1363 2752 1584 2848 
Q 1805 2944 2054 2944 
Q 2560 2944 2733 2406 
Q 3232 2944 3776 2944 
Q 4518 2944 4518 1792 
L 4518 493 
Q 4518 282 4582 202 
Q 4646 122 4794 109 
L 4960 96 
L 4960 0 
z
" transform="scale(0.015625)"/>
       <path id="STIXGeneral-Regular-32" d="M 3034 877 
L 2688 0 
L 186 0 
L 186 77 
L 1325 1286 
Q 1773 1754 1965 2144 
Q 2157 2534 2157 2950 
Q 2157 3379 1920 3616 
Q 1683 3853 1267 3853 
Q 922 3853 720 3673 
Q 518 3494 326 3021 
L 192 3053 
Q 301 3648 630 3987 
Q 960 4326 1523 4326 
Q 2054 4326 2380 4006 
Q 2707 3686 2707 3200 
Q 2707 2477 1888 1613 
L 832 486 
L 2330 486 
Q 2541 486 2665 569 
Q 2790 653 2944 915 
L 3034 877 
z
" transform="scale(0.015625)"/>
      </defs>
      <use xlink:href="#LiberationSans-48" transform="translate(0 0.409375)"/>
      <use xlink:href="#LiberationSans-65" transform="translate(72.216797 0.409375)"/>
      <use xlink:href="#LiberationSans-61" transform="translate(127.832031 0.409375)"/>
      <use xlink:href="#LiberationSans-74" transform="translate(183.447266 0.409375)"/>
      <use xlink:href="#LiberationSans-20" transform="translate(211.230469 0.409375)"/>
      <use xlink:href="#LiberationSans-66" transform="translate(239.013672 0.409375)"/>
      <use xlink:href="#LiberationSans-6c" transform="translate(266.796875 0.409375)"/>
      <use xlink:href="#LiberationSans-75" transform="translate(289.013672 0.409375)"/>
      <use xlink:href="#LiberationSans-78" transform="translate(344.628906 0.409375)"/>
      <use xlink:href="#LiberationSans-20" transform="translate(394.628906 0.409375)"/>
      <use xlink:href="#STIXGeneral-Regular-57" transform="translate(422.412109 0.409375)"/>
      <use xlink:href="#STIXGeneral-Regular-2f" transform="translate(516.812103 0.409375)"/>
      <use xlink:href="#STIXGeneral-Regular-6d" transform="translate(544.612091 0.409375)"/>
      <use xlink:href="#STIXGeneral-Regular-32" transform="translate(623.95536 35.684375) scale(0.7)"/>
     </g>
    </g>
    <g id="text_7">
     <!-- $\times\mathdefault{10^{10}}\mathdefault{}$ -->
     <g transform="translate(602.237109 695.990062) scale(0.4 -0.4)">
      <defs>
       <path id="STIXGeneral-Regular-d7" d="M 3821 141 
L 3526 -160 
L 2048 1312 
L 570 -160 
L 275 134 
L 1747 1613 
L 275 3091 
L 576 3386 
L 2048 1914 
L 3526 3386 
L 3821 3098 
L 2349 1613 
L 3821 141 
z
" transform="scale(0.015625)"/>
      </defs>
      <use xlink:href="#STIXGeneral-Regular-d7" transform="translate(0 0.140625)"/>
      <use xlink:href="#LiberationSans-31" transform="translate(63.999985 0.140625)"/>
      <use xlink:href="#LiberationSans-30" transform="translate(119.615219 0.140625)"/>
      <use xlink:href="#LiberationSans-31" transform="translate(176.154946 37.120312) scale(0.7)"/>
      <use xlink:href="#LiberationSans-30" transform="translate(215.08561 37.120312) scale(0.7)"/>
     </g>
    </g>
   </g>
   <g id="matplotlib.axis_2">
    <g id="ytick_1">
     <g id="line2d_29">
      <defs>
       <path id="m7ea3ae0558" d="M 0 0 
L 3.5 0 
" style="stroke: #000000; stroke-width: 0.8"/>
      </defs>
      <g>
       <use xlink:href="#m7ea3ae0558" x="75.804688" y="635.3335" style="stroke: #000000; stroke-width: 0.8"/>
      </g>
     </g>
     <g id="text_8">
      <!-- $\mathdefault{0.0}$ -->
      <g transform="translate(34.504688 645.116781) scale(0.27 -0.27)">
       <defs>
        <path id="LiberationSans-2e" d="M 584 0 
L 584 684 
L 1194 684 
L 1194 0 
L 584 0 
z
" transform="scale(0.015625)"/>
       </defs>
       <use xlink:href="#LiberationSans-30" transform="translate(0 0.171875)"/>
       <use xlink:href="#LiberationSans-2e" transform="translate(55.615234 0.171875)"/>
       <use xlink:href="#LiberationSans-30" transform="translate(83.398438 0.171875)"/>
      </g>
     </g>
    </g>
    <g id="ytick_2">
     <g id="line2d_30">
      <g>
       <use xlink:href="#m7ea3ae0558" x="75.804688" y="564.363738" style="stroke: #000000; stroke-width: 0.8"/>
      </g>
     </g>
     <g id="text_9">
      <!-- $\mathdefault{0.5}$ -->
      <g transform="translate(34.504688 574.147019) scale(0.27 -0.27)">
       <defs>
        <path id="LiberationSans-35" d="M 3291 1434 
Q 3291 738 2877 337 
Q 2463 -63 1728 -63 
Q 1113 -63 734 206 
Q 356 475 256 984 
L 825 1050 
Q 1003 397 1741 397 
Q 2194 397 2450 670 
Q 2706 944 2706 1422 
Q 2706 1838 2448 2094 
Q 2191 2350 1753 2350 
Q 1525 2350 1328 2278 
Q 1131 2206 934 2034 
L 384 2034 
L 531 4403 
L 3034 4403 
L 3034 3925 
L 1044 3925 
L 959 2528 
Q 1325 2809 1869 2809 
Q 2519 2809 2905 2428 
Q 3291 2047 3291 1434 
z
" transform="scale(0.015625)"/>
       </defs>
       <use xlink:href="#LiberationSans-30" transform="translate(0 0.171875)"/>
       <use xlink:href="#LiberationSans-2e" transform="translate(55.615234 0.171875)"/>
       <use xlink:href="#LiberationSans-35" transform="translate(83.398438 0.171875)"/>
      </g>
     </g>
    </g>
    <g id="ytick_3">
     <g id="line2d_31">
      <g>
       <use xlink:href="#m7ea3ae0558" x="75.804688" y="493.393976" style="stroke: #000000; stroke-width: 0.8"/>
      </g>
     </g>
     <g id="text_10">
      <!-- $\mathdefault{1.0}$ -->
      <g transform="translate(34.504688 503.177257) scale(0.27 -0.27)">
       <use xlink:href="#LiberationSans-31" transform="translate(0 0.171875)"/>
       <use xlink:href="#LiberationSans-2e" transform="translate(55.615234 0.171875)"/>
       <use xlink:href="#LiberationSans-30" transform="translate(83.398438 0.171875)"/>
      </g>
     </g>
    </g>
    <g id="ytick_4">
     <g id="line2d_32">
      <g>
       <use xlink:href="#m7ea3ae0558" x="75.804688" y="422.424214" style="stroke: #000000; stroke-width: 0.8"/>
      </g>
     </g>
     <g id="text_11">
      <!-- $\mathdefault{1.5}$ -->
      <g transform="translate(34.504688 432.207496) scale(0.27 -0.27)">
       <use xlink:href="#LiberationSans-31" transform="translate(0 0.203125)"/>
       <use xlink:href="#LiberationSans-2e" transform="translate(55.615234 0.203125)"/>
       <use xlink:href="#LiberationSans-35" transform="translate(83.398438 0.203125)"/>
      </g>
     </g>
    </g>
    <g id="ytick_5">
     <g id="line2d_33">
      <g>
       <use xlink:href="#m7ea3ae0558" x="75.804688" y="351.454452" style="stroke: #000000; stroke-width: 0.8"/>
      </g>
     </g>
     <g id="text_12">
      <!-- $\mathdefault{2.0}$ -->
      <g transform="translate(34.504688 361.237734) scale(0.27 -0.27)">
       <use xlink:href="#LiberationSans-32" transform="translate(0 0.171875)"/>
       <use xlink:href="#LiberationSans-2e" transform="translate(55.615234 0.171875)"/>
       <use xlink:href="#LiberationSans-30" transform="translate(83.398438 0.171875)"/>
      </g>
     </g>
    </g>
    <g id="ytick_6">
     <g id="line2d_34">
      <g>
       <use xlink:href="#m7ea3ae0558" x="75.804688" y="280.48469" style="stroke: #000000; stroke-width: 0.8"/>
      </g>
     </g>
     <g id="text_13">
      <!-- $\mathdefault{2.5}$ -->
      <g transform="translate(34.504688 290.267972) scale(0.27 -0.27)">
       <use xlink:href="#LiberationSans-32" transform="translate(0 0.171875)"/>
       <use xlink:href="#LiberationSans-2e" transform="translate(55.615234 0.171875)"/>
       <use xlink:href="#LiberationSans-35" transform="translate(83.398438 0.171875)"/>
      </g>
     </g>
    </g>
    <g id="ytick_7">
     <g id="line2d_35">
      <g>
       <use xlink:href="#m7ea3ae0558" x="75.804688" y="209.514929" style="stroke: #000000; stroke-width: 0.8"/>
      </g>
     </g>
     <g id="text_14">
      <!-- $\mathdefault{3.0}$ -->
      <g transform="translate(34.504688 219.29821) scale(0.27 -0.27)">
       <defs>
        <path id="LiberationSans-33" d="M 3278 1216 
Q 3278 606 2890 271 
Q 2503 -63 1784 -63 
Q 1116 -63 717 239 
Q 319 541 244 1131 
L 825 1184 
Q 938 403 1784 403 
Q 2209 403 2451 612 
Q 2694 822 2694 1234 
Q 2694 1594 2417 1795 
Q 2141 1997 1619 1997 
L 1300 1997 
L 1300 2484 
L 1606 2484 
Q 2069 2484 2323 2686 
Q 2578 2888 2578 3244 
Q 2578 3597 2370 3801 
Q 2163 4006 1753 4006 
Q 1381 4006 1151 3815 
Q 922 3625 884 3278 
L 319 3322 
Q 381 3863 767 4166 
Q 1153 4469 1759 4469 
Q 2422 4469 2789 4161 
Q 3156 3853 3156 3303 
Q 3156 2881 2920 2617 
Q 2684 2353 2234 2259 
L 2234 2247 
Q 2728 2194 3003 1916 
Q 3278 1638 3278 1216 
z
" transform="scale(0.015625)"/>
       </defs>
       <use xlink:href="#LiberationSans-33" transform="translate(0 0.171875)"/>
       <use xlink:href="#LiberationSans-2e" transform="translate(55.615234 0.171875)"/>
       <use xlink:href="#LiberationSans-30" transform="translate(83.398438 0.171875)"/>
      </g>
     </g>
    </g>
    <g id="ytick_8">
     <g id="line2d_36">
      <g>
       <use xlink:href="#m7ea3ae0558" x="75.804688" y="138.545167" style="stroke: #000000; stroke-width: 0.8"/>
      </g>
     </g>
     <g id="text_15">
      <!-- $\mathdefault{3.5}$ -->
      <g transform="translate(34.504688 148.328448) scale(0.27 -0.27)">
       <use xlink:href="#LiberationSans-33" transform="translate(0 0.171875)"/>
       <use xlink:href="#LiberationSans-2e" transform="translate(55.615234 0.171875)"/>
       <use xlink:href="#LiberationSans-35" transform="translate(83.398438 0.171875)"/>
      </g>
     </g>
    </g>
    <g id="ytick_9">
     <g id="line2d_37">
      <g>
       <use xlink:href="#m7ea3ae0558" x="75.804688" y="67.575405" style="stroke: #000000; stroke-width: 0.8"/>
      </g>
     </g>
     <g id="text_16">
      <!-- $\mathdefault{4.0}$ -->
      <g transform="translate(34.504688 77.358686) scale(0.27 -0.27)">
       <defs>
        <path id="LiberationSans-34" d="M 2753 997 
L 2753 0 
L 2222 0 
L 2222 997 
L 147 997 
L 147 1434 
L 2163 4403 
L 2753 4403 
L 2753 1441 
L 3372 1441 
L 3372 997 
L 2753 997 
z
M 2222 3769 
Q 2216 3750 2134 3603 
Q 2053 3456 2013 3397 
L 884 1734 
L 716 1503 
L 666 1441 
L 2222 1441 
L 2222 3769 
z
" transform="scale(0.015625)"/>
       </defs>
       <use xlink:href="#LiberationSans-34" transform="translate(0 0.171875)"/>
       <use xlink:href="#LiberationSans-2e" transform="translate(55.615234 0.171875)"/>
       <use xlink:href="#LiberationSans-30" transform="translate(83.398438 0.171875)"/>
      </g>
     </g>
    </g>
    <g id="ytick_10">
     <g id="line2d_38">
      <defs>
       <path id="mc1b28e9e3f" d="M 0 0 
L 2 0 
" style="stroke: #000000; stroke-width: 0.6"/>
      </defs>
      <g>
       <use xlink:href="#mc1b28e9e3f" x="75.804688" y="621.139548" style="stroke: #000000; stroke-width: 0.6"/>
      </g>
     </g>
    </g>
    <g id="ytick_11">
     <g id="line2d_39">
      <g>
       <use xlink:href="#mc1b28e9e3f" x="75.804688" y="606.945595" style="stroke: #000000; stroke-width: 0.6"/>
      </g>
     </g>
    </g>
    <g id="ytick_12">
     <g id="line2d_40">
      <g>
       <use xlink:href="#mc1b28e9e3f" x="75.804688" y="592.751643" style="stroke: #000000; stroke-width: 0.6"/>
      </g>
     </g>
    </g>
    <g id="ytick_13">
     <g id="line2d_41">
      <g>
       <use xlink:href="#mc1b28e9e3f" x="75.804688" y="578.55769" style="stroke: #000000; stroke-width: 0.6"/>
      </g>
     </g>
    </g>
    <g id="ytick_14">
     <g id="line2d_42">
      <g>
       <use xlink:href="#mc1b28e9e3f" x="75.804688" y="550.169786" style="stroke: #000000; stroke-width: 0.6"/>
      </g>
     </g>
    </g>
    <g id="ytick_15">
     <g id="line2d_43">
      <g>
       <use xlink:href="#mc1b28e9e3f" x="75.804688" y="535.975833" style="stroke: #000000; stroke-width: 0.6"/>
      </g>
     </g>
    </g>
    <g id="ytick_16">
     <g id="line2d_44">
      <g>
       <use xlink:href="#mc1b28e9e3f" x="75.804688" y="521.781881" style="stroke: #000000; stroke-width: 0.6"/>
      </g>
     </g>
    </g>
    <g id="ytick_17">
     <g id="line2d_45">
      <g>
       <use xlink:href="#mc1b28e9e3f" x="75.804688" y="507.587929" style="stroke: #000000; stroke-width: 0.6"/>
      </g>
     </g>
    </g>
    <g id="ytick_18">
     <g id="line2d_46">
      <g>
       <use xlink:href="#mc1b28e9e3f" x="75.804688" y="479.200024" style="stroke: #000000; stroke-width: 0.6"/>
      </g>
     </g>
    </g>
    <g id="ytick_19">
     <g id="line2d_47">
      <g>
       <use xlink:href="#mc1b28e9e3f" x="75.804688" y="465.006071" style="stroke: #000000; stroke-width: 0.6"/>
      </g>
     </g>
    </g>
    <g id="ytick_20">
     <g id="line2d_48">
      <g>
       <use xlink:href="#mc1b28e9e3f" x="75.804688" y="450.812119" style="stroke: #000000; stroke-width: 0.6"/>
      </g>
     </g>
    </g>
    <g id="ytick_21">
     <g id="line2d_49">
      <g>
       <use xlink:href="#mc1b28e9e3f" x="75.804688" y="436.618167" style="stroke: #000000; stroke-width: 0.6"/>
      </g>
     </g>
    </g>
    <g id="ytick_22">
     <g id="line2d_50">
      <g>
       <use xlink:href="#mc1b28e9e3f" x="75.804688" y="408.230262" style="stroke: #000000; stroke-width: 0.6"/>
      </g>
     </g>
    </g>
    <g id="ytick_23">
     <g id="line2d_51">
      <g>
       <use xlink:href="#mc1b28e9e3f" x="75.804688" y="394.03631" style="stroke: #000000; stroke-width: 0.6"/>
      </g>
     </g>
    </g>
    <g id="ytick_24">
     <g id="line2d_52">
      <g>
       <use xlink:href="#mc1b28e9e3f" x="75.804688" y="379.842357" style="stroke: #000000; stroke-width: 0.6"/>
      </g>
     </g>
    </g>
    <g id="ytick_25">
     <g id="line2d_53">
      <g>
       <use xlink:href="#mc1b28e9e3f" x="75.804688" y="365.648405" style="stroke: #000000; stroke-width: 0.6"/>
      </g>
     </g>
    </g>
    <g id="ytick_26">
     <g id="line2d_54">
      <g>
       <use xlink:href="#mc1b28e9e3f" x="75.804688" y="337.2605" style="stroke: #000000; stroke-width: 0.6"/>
      </g>
     </g>
    </g>
    <g id="ytick_27">
     <g id="line2d_55">
      <g>
       <use xlink:href="#mc1b28e9e3f" x="75.804688" y="323.066548" style="stroke: #000000; stroke-width: 0.6"/>
      </g>
     </g>
    </g>
    <g id="ytick_28">
     <g id="line2d_56">
      <g>
       <use xlink:href="#mc1b28e9e3f" x="75.804688" y="308.872595" style="stroke: #000000; stroke-width: 0.6"/>
      </g>
     </g>
    </g>
    <g id="ytick_29">
     <g id="line2d_57">
      <g>
       <use xlink:href="#mc1b28e9e3f" x="75.804688" y="294.678643" style="stroke: #000000; stroke-width: 0.6"/>
      </g>
     </g>
    </g>
    <g id="ytick_30">
     <g id="line2d_58">
      <g>
       <use xlink:href="#mc1b28e9e3f" x="75.804688" y="266.290738" style="stroke: #000000; stroke-width: 0.6"/>
      </g>
     </g>
    </g>
    <g id="ytick_31">
     <g id="line2d_59">
      <g>
       <use xlink:href="#mc1b28e9e3f" x="75.804688" y="252.096786" style="stroke: #000000; stroke-width: 0.6"/>
      </g>
     </g>
    </g>
    <g id="ytick_32">
     <g id="line2d_60">
      <g>
       <use xlink:href="#mc1b28e9e3f" x="75.804688" y="237.902833" style="stroke: #000000; stroke-width: 0.6"/>
      </g>
     </g>
    </g>
    <g id="ytick_33">
     <g id="line2d_61">
      <g>
       <use xlink:href="#mc1b28e9e3f" x="75.804688" y="223.708881" style="stroke: #000000; stroke-width: 0.6"/>
      </g>
     </g>
    </g>
    <g id="ytick_34">
     <g id="line2d_62">
      <g>
       <use xlink:href="#mc1b28e9e3f" x="75.804688" y="195.320976" style="stroke: #000000; stroke-width: 0.6"/>
      </g>
     </g>
    </g>
    <g id="ytick_35">
     <g id="line2d_63">
      <g>
       <use xlink:href="#mc1b28e9e3f" x="75.804688" y="181.127024" style="stroke: #000000; stroke-width: 0.6"/>
      </g>
     </g>
    </g>
    <g id="ytick_36">
     <g id="line2d_64">
      <g>
       <use xlink:href="#mc1b28e9e3f" x="75.804688" y="166.933071" style="stroke: #000000; stroke-width: 0.6"/>
      </g>
     </g>
    </g>
    <g id="ytick_37">
     <g id="line2d_65">
      <g>
       <use xlink:href="#mc1b28e9e3f" x="75.804688" y="152.739119" style="stroke: #000000; stroke-width: 0.6"/>
      </g>
     </g>
    </g>
    <g id="ytick_38">
     <g id="line2d_66">
      <g>
       <use xlink:href="#mc1b28e9e3f" x="75.804688" y="124.351214" style="stroke: #000000; stroke-width: 0.6"/>
      </g>
     </g>
    </g>
    <g id="ytick_39">
     <g id="line2d_67">
      <g>
       <use xlink:href="#mc1b28e9e3f" x="75.804688" y="110.157262" style="stroke: #000000; stroke-width: 0.6"/>
      </g>
     </g>
    </g>
    <g id="ytick_40">
     <g id="line2d_68">
      <g>
       <use xlink:href="#mc1b28e9e3f" x="75.804688" y="95.96331" style="stroke: #000000; stroke-width: 0.6"/>
      </g>
     </g>
    </g>
    <g id="ytick_41">
     <g id="line2d_69">
      <g>
       <use xlink:href="#mc1b28e9e3f" x="75.804688" y="81.769357" style="stroke: #000000; stroke-width: 0.6"/>
      </g>
     </g>
    </g>
    <g id="ytick_42">
     <g id="line2d_70">
      <g>
       <use xlink:href="#mc1b28e9e3f" x="75.804688" y="53.381452" style="stroke: #000000; stroke-width: 0.6"/>
      </g>
     </g>
    </g>
    <g id="ytick_43">
     <g id="line2d_71">
      <g>
       <use xlink:href="#mc1b28e9e3f" x="75.804688" y="39.1875" style="stroke: #000000; stroke-width: 0.6"/>
      </g>
     </g>
    </g>
    <g id="text_17">
     <!-- Probability -->
     <g transform="translate(25.317188 395.619875) rotate(-90) scale(0.25 -0.25)">
      <defs>
       <path id="LiberationSans-50" d="M 3931 3078 
Q 3931 2453 3523 2084 
Q 3116 1716 2416 1716 
L 1122 1716 
L 1122 0 
L 525 0 
L 525 4403 
L 2378 4403 
Q 3119 4403 3525 4056 
Q 3931 3709 3931 3078 
z
M 3331 3072 
Q 3331 3925 2306 3925 
L 1122 3925 
L 1122 2188 
L 2331 2188 
Q 3331 2188 3331 3072 
z
" transform="scale(0.015625)"/>
       <path id="LiberationSans-72" d="M 444 0 
L 444 2594 
Q 444 2950 425 3381 
L 956 3381 
Q 981 2806 981 2691 
L 994 2691 
Q 1128 3125 1303 3284 
Q 1478 3444 1797 3444 
Q 1909 3444 2025 3413 
L 2025 2897 
Q 1913 2928 1725 2928 
Q 1375 2928 1190 2626 
Q 1006 2325 1006 1763 
L 1006 0 
L 444 0 
z
" transform="scale(0.015625)"/>
       <path id="LiberationSans-6f" d="M 3291 1694 
Q 3291 806 2900 371 
Q 2509 -63 1766 -63 
Q 1025 -63 647 389 
Q 269 841 269 1694 
Q 269 3444 1784 3444 
Q 2559 3444 2925 3017 
Q 3291 2591 3291 1694 
z
M 2700 1694 
Q 2700 2394 2492 2711 
Q 2284 3028 1794 3028 
Q 1300 3028 1079 2704 
Q 859 2381 859 1694 
Q 859 1025 1076 689 
Q 1294 353 1759 353 
Q 2266 353 2483 678 
Q 2700 1003 2700 1694 
z
" transform="scale(0.015625)"/>
       <path id="LiberationSans-62" d="M 3291 1706 
Q 3291 -63 2047 -63 
Q 1663 -63 1408 76 
Q 1153 216 994 525 
L 988 525 
Q 988 428 975 229 
Q 963 31 956 0 
L 413 0 
Q 431 169 431 697 
L 431 4638 
L 994 4638 
L 994 3316 
Q 994 3113 981 2838 
L 994 2838 
Q 1150 3163 1408 3303 
Q 1666 3444 2047 3444 
Q 2688 3444 2989 3012 
Q 3291 2581 3291 1706 
z
M 2700 1688 
Q 2700 2397 2512 2703 
Q 2325 3009 1903 3009 
Q 1428 3009 1211 2684 
Q 994 2359 994 1653 
Q 994 988 1206 670 
Q 1419 353 1897 353 
Q 2322 353 2511 667 
Q 2700 981 2700 1688 
z
" transform="scale(0.015625)"/>
       <path id="LiberationSans-69" d="M 428 4100 
L 428 4638 
L 991 4638 
L 991 4100 
L 428 4100 
z
M 428 0 
L 428 3381 
L 991 3381 
L 991 0 
L 428 0 
z
" transform="scale(0.015625)"/>
       <path id="LiberationSans-79" d="M 597 -1328 
Q 366 -1328 209 -1294 
L 209 -872 
Q 328 -891 472 -891 
Q 997 -891 1303 -119 
L 1356 16 
L 16 3381 
L 616 3381 
L 1328 1513 
Q 1344 1469 1366 1408 
Q 1388 1347 1506 1000 
Q 1625 653 1634 613 
L 1853 1228 
L 2594 3381 
L 3188 3381 
L 1888 0 
Q 1678 -541 1497 -805 
Q 1316 -1069 1095 -1198 
Q 875 -1328 597 -1328 
z
" transform="scale(0.015625)"/>
      </defs>
      <use xlink:href="#LiberationSans-50"/>
      <use xlink:href="#LiberationSans-72" x="66.699219"/>
      <use xlink:href="#LiberationSans-6f" x="100"/>
      <use xlink:href="#LiberationSans-62" x="155.615234"/>
      <use xlink:href="#LiberationSans-61" x="211.230469"/>
      <use xlink:href="#LiberationSans-62" x="266.845703"/>
      <use xlink:href="#LiberationSans-69" x="322.460938"/>
      <use xlink:href="#LiberationSans-6c" x="344.677734"/>
      <use xlink:href="#LiberationSans-69" x="366.894531"/>
      <use xlink:href="#LiberationSans-74" x="389.111328"/>
      <use xlink:href="#LiberationSans-79" x="416.894531"/>
     </g>
    </g>
    <g id="text_18">
     <!-- $\times\mathdefault{10^{−10}}\mathdefault{}$ -->
     <g transform="translate(75.804688 36.1875) scale(0.4 -0.4)">
      <use xlink:href="#STIXGeneral-Regular-d7" transform="translate(0 0.140625)"/>
      <use xlink:href="#LiberationSans-31" transform="translate(63.999985 0.140625)"/>
      <use xlink:href="#LiberationSans-30" transform="translate(119.615219 0.140625)"/>
      <use xlink:href="#LiberationSans-2212" transform="translate(176.154946 37.120312) scale(0.7)"/>
      <use xlink:href="#LiberationSans-31" transform="translate(217.033852 37.120312) scale(0.7)"/>
      <use xlink:href="#LiberationSans-30" transform="translate(255.964516 37.120312) scale(0.7)"/>
     </g>
    </g>
   </g>
   <g id="line2d_72">
    <path d="M 263.432603 635.329065 
L 280.22865 635.331282 
L 321.455311 635.139447 
L 330.616791 634.71364 
L 331.634733 634.552853 
L 332.143705 634.548418 
L 332.652676 634.424224 
L 333.161647 634.44751 
L 334.179589 634.180272 
L 336.215474 633.883094 
L 338.251358 633.387428 
L 339.2693 633.073617 
L 341.305185 632.238635 
L 342.323127 631.798413 
L 343.85004 631.123109 
L 344.867983 630.761617 
L 345.376954 630.175023 
L 345.885925 629.834599 
L 347.921809 627.742156 
L 348.430781 627.408385 
L 350.466665 624.742654 
L 351.484607 623.02501 
L 352.50255 621.001317 
L 353.520492 619.361293 
L 354.538434 617.2001 
L 355.556376 614.417938 
L 357.592261 607.7647 
L 358.610203 604.145338 
L 361.155059 592.652979 
L 363.190943 579.121402 
L 363.699914 575.812525 
L 364.208885 571.171891 
L 364.717857 567.572489 
L 365.735799 558.171464 
L 367.771683 535.124648 
L 370.316539 499.079623 
L 372.861395 455.425511 
L 373.370366 443.333251 
L 373.879337 434.901381 
L 377.442135 346.083981 
L 378.460077 319.18494 
L 383.040817 187.217965 
L 384.56773 147.520312 
L 385.076702 133.193673 
L 387.621557 89.862244 
L 388.130528 85.206086 
L 389.148471 71.719973 
L 389.657442 68.275813 
L 390.166413 69.259384 
L 390.675384 67.175811 
L 391.693326 72.631466 
L 392.711269 79.89902 
L 393.729211 93.621323 
L 394.747153 109.950587 
L 395.256124 123.982266 
L 395.765095 134.156175 
L 397.292009 175.492742 
L 398.309951 202.685635 
L 399.327893 233.313816 
L 400.345835 263.531713 
L 401.872749 304.333804 
L 404.417604 373.242498 
L 406.96246 432.830006 
L 408.489373 463.656675 
L 410.525258 500.323778 
L 412.561142 528.159817 
L 413.579085 540.287561 
L 415.614969 562.102419 
L 417.650854 579.039345 
L 419.177767 588.786339 
L 420.195709 594.962761 
L 423.758507 610.154321 
L 424.267478 611.404021 
L 424.776449 613.437694 
L 426.812334 618.751413 
L 427.830276 620.695268 
L 428.848218 622.52269 
L 430.375132 625.167352 
L 431.393074 626.181971 
L 433.428959 628.540544 
L 435.973814 630.641858 
L 436.482785 630.7095 
L 438.009699 631.564441 
L 438.51867 631.993575 
L 440.045583 632.531378 
L 441.063525 632.786419 
L 441.572497 633.092468 
L 442.081468 633.099121 
L 442.590439 633.345291 
L 443.09941 633.31646 
L 444.626323 633.767771 
L 445.135294 633.806582 
L 445.644266 633.997308 
L 446.153237 634.002852 
L 446.662208 634.195796 
L 448.698092 634.254567 
L 449.716035 634.537329 
L 451.242948 634.652652 
L 452.26089 634.780172 
L 453.787804 634.836725 
L 454.805746 634.95981 
L 456.332659 634.965354 
L 458.877515 635.093983 
L 460.404428 635.09731 
L 461.931342 635.153863 
L 464.985168 635.232593 
L 467.530024 635.210415 
L 469.056937 635.279165 
L 473.637677 635.301343 
L 484.326071 635.312431 
L 503.666974 635.330173 
L 517.409194 635.3335 
L 517.409194 635.3335 
" clip-path="url(#pc1b59db234)" style="fill: none; stroke: #00ffff; stroke-opacity: 0.9; stroke-width: 2.5; stroke-linecap: square"/>
   </g>
   <g id="line2d_73">
    <path d="M 248.904015 635.3335 
L 298.817786 635.225041 
L 301.653795 635.178275 
L 308.460219 635.03698 
L 309.594623 634.919567 
L 318.669854 634.432001 
L 319.237055 634.241949 
L 320.371459 634.10165 
L 322.073065 633.894683 
L 322.640267 633.66085 
L 323.774671 633.499655 
L 326.043479 632.845919 
L 326.610681 632.821043 
L 327.745084 632.27676 
L 329.44669 631.327499 
L 330.013892 631.258842 
L 332.849902 629.873757 
L 334.551508 628.808077 
L 336.253114 627.376225 
L 336.820315 626.709554 
L 337.954719 626.051837 
L 341.357931 622.098573 
L 343.626739 618.178146 
L 347.02995 610.703462 
L 347.597152 609.012902 
L 348.164354 607.954187 
L 351.000364 598.915312 
L 352.134768 594.361049 
L 353.836374 587.575922 
L 356.105181 575.414636 
L 356.672383 571.530029 
L 357.239585 568.80563 
L 358.373989 561.73095 
L 358.941191 557.203552 
L 359.508393 554.129897 
L 360.075595 548.813438 
L 360.642797 545.479085 
L 362.344403 531.300867 
L 363.478806 521.033127 
L 365.747614 498.983208 
L 368.016422 474.537251 
L 370.28523 446.90918 
L 370.852432 441.271326 
L 371.419634 431.568765 
L 372.554037 418.474138 
L 373.688441 402.44715 
L 374.822845 388.135598 
L 375.390047 381.926596 
L 376.524451 362.536398 
L 377.658855 350.110433 
L 378.793259 332.788908 
L 379.360461 325.430643 
L 379.927663 319.986821 
L 380.494865 312.288255 
L 382.19647 296.639379 
L 383.330874 283.47311 
L 384.465278 272.798402 
L 385.03248 267.07 
L 385.599682 262.736633 
L 386.166884 259.935617 
L 386.734086 254.911698 
L 387.301288 252.259937 
L 388.435692 248.802199 
L 389.002894 247.522587 
L 389.570096 245.958396 
L 390.137297 245.60317 
L 391.838903 249.092749 
L 392.406105 251.035052 
L 392.973307 252.290783 
L 393.540509 256.531611 
L 394.107711 257.091814 
L 394.674913 262.009265 
L 395.242115 263.772462 
L 396.376519 273.474029 
L 396.943721 277.074056 
L 399.77973 307.502148 
L 403.750144 355.970179 
L 407.720557 410.039247 
L 408.287759 416.311932 
L 411.123769 455.03362 
L 412.258173 467.637696 
L 413.959779 487.312473 
L 417.930192 526.323715 
L 418.497394 530.977482 
L 419.064596 537.276037 
L 419.631798 541.478059 
L 420.199 544.839279 
L 422.467808 561.295125 
L 424.736616 575.894242 
L 425.303818 579.277352 
L 427.005423 587.097312 
L 427.572625 589.269468 
L 428.139827 592.446606 
L 428.707029 594.077465 
L 429.274231 596.765047 
L 429.841433 598.385955 
L 432.110241 606.158154 
L 434.94625 613.284576 
L 435.513452 614.202991 
L 437.78226 618.990092 
L 438.916664 620.979162 
L 439.483866 621.514489 
L 440.051068 622.452805 
L 442.887078 625.860791 
L 445.155885 627.989165 
L 445.723087 628.493647 
L 446.290289 628.817032 
L 447.424693 629.641914 
L 447.991895 630.038932 
L 449.126299 630.59217 
L 449.693501 630.920531 
L 451.395107 631.473769 
L 451.962309 631.883722 
L 452.52951 631.976261 
L 453.096712 632.26681 
L 454.231116 632.480742 
L 454.798318 632.824028 
L 455.932722 632.988209 
L 456.499924 633.262837 
L 457.067126 633.288708 
L 458.768732 633.838961 
L 459.903136 633.962345 
L 465.007953 634.595186 
L 466.142357 634.72255 
L 467.276761 634.768322 
L 476.351992 635.184245 
L 493.36805 635.31957 
L 504.712089 635.330515 
L 531.937782 635.32753 
L 531.937782 635.32753 
" clip-path="url(#pc1b59db234)" style="fill: none; stroke: #00ccff; stroke-opacity: 0.9; stroke-width: 2.5; stroke-linecap: square"/>
   </g>
   <g id="line2d_74">
    <path d="M 224.781309 635.3335 
L 282.539402 635.224684 
L 298.47267 634.752867 
L 301.7921 634.42642 
L 309.094848 633.499786 
L 310.42262 633.274504 
L 311.086506 633.012666 
L 312.414278 632.850293 
L 313.742051 632.407379 
L 315.069823 632.13109 
L 316.397595 631.639719 
L 319.05314 630.550713 
L 320.380912 629.801755 
L 323.036456 628.311491 
L 324.364229 627.321948 
L 325.028115 627.026956 
L 325.692001 626.560239 
L 326.355887 625.920947 
L 327.019773 625.571547 
L 328.347545 624.001371 
L 329.011432 623.385033 
L 332.330862 619.378407 
L 332.994748 618.456874 
L 333.658634 617.293057 
L 334.322521 616.391927 
L 337.641951 610.621298 
L 338.305837 609.390321 
L 339.63361 605.699941 
L 340.297496 604.532723 
L 342.289154 598.845405 
L 342.95304 597.613578 
L 343.616926 595.26299 
L 344.944699 591.454443 
L 345.608585 589.032445 
L 346.272471 587.04996 
L 350.255788 571.436616 
L 350.919674 567.754736 
L 351.58356 565.648984 
L 356.230763 540.472615 
L 359.550193 519.961717 
L 360.877966 510.761694 
L 361.541852 507.308498 
L 362.205738 502.338684 
L 362.869624 496.420133 
L 364.197396 487.387585 
L 369.508485 447.731084 
L 370.836258 436.802764 
L 371.500144 430.256823 
L 372.16403 426.839332 
L 374.155688 413.131111 
L 376.147347 397.201522 
L 379.466777 375.384836 
L 380.79455 368.217455 
L 381.458436 365.344893 
L 383.450094 355.025259 
L 384.11398 352.66277 
L 384.777866 351.150402 
L 386.105639 347.345255 
L 386.769525 346.288553 
L 387.433411 344.698825 
L 388.097297 342.531013 
L 389.425069 339.601492 
L 390.088955 340.780612 
L 390.752842 339.6576 
L 391.416728 341.007594 
L 392.7445 343.1346 
L 393.408386 345.086481 
L 394.072272 344.913906 
L 395.400044 348.401957 
L 396.063931 349.723897 
L 396.727817 351.952918 
L 398.055589 358.85931 
L 398.719475 361.279608 
L 399.383361 365.445207 
L 400.047247 368.083136 
L 400.711133 372.373703 
L 401.37502 374.576369 
L 402.038906 380.255186 
L 402.702792 384.813541 
L 404.030564 391.710582 
L 405.358336 401.885695 
L 406.022222 405.961181 
L 413.32497 461.498813 
L 413.988856 468.007349 
L 415.316628 478.916117 
L 415.980514 482.976301 
L 417.972173 497.737822 
L 419.299945 507.841525 
L 420.627717 516.3657 
L 421.291603 521.30576 
L 423.283262 532.884424 
L 424.611034 541.557371 
L 425.27492 544.826091 
L 426.602692 551.941613 
L 427.266579 554.946795 
L 427.930465 558.971274 
L 428.594351 561.826834 
L 429.922123 568.560652 
L 431.249895 574.617773 
L 432.577668 579.909784 
L 434.569326 586.963247 
L 435.233212 588.925329 
L 435.897098 591.57176 
L 437.888757 597.326237 
L 438.552643 599.062186 
L 439.216529 601.327762 
L 439.880415 602.608046 
L 440.544301 604.455362 
L 441.208187 605.756899 
L 443.199846 610.671455 
L 444.527618 612.489867 
L 445.191504 614.213914 
L 445.85539 615.552007 
L 448.510935 619.478721 
L 449.174821 620.093359 
L 449.838707 621.305634 
L 451.166479 623.042433 
L 452.494251 624.390727 
L 455.149796 626.56789 
L 456.477568 627.497924 
L 457.141454 628.113412 
L 457.805341 628.3744 
L 458.469227 628.919328 
L 459.133113 629.284881 
L 460.460885 629.824708 
L 461.788657 630.454649 
L 463.11643 630.815951 
L 465.771974 631.887955 
L 467.763632 632.516195 
L 469.091405 632.96761 
L 476.394152 634.158631 
L 479.713583 634.525884 
L 480.377469 634.491879 
L 481.705241 634.628749 
L 494.319078 635.142223 
L 498.302394 635.19663 
L 504.941256 635.250188 
L 556.060488 635.329249 
L 556.060488 635.329249 
" clip-path="url(#pc1b59db234)" style="fill: none; stroke: #0099ff; stroke-opacity: 0.9; stroke-width: 2.5; stroke-linecap: square"/>
   </g>
   <g id="line2d_75">
    <path d="M 202.437065 635.329006 
L 230.314427 635.332751 
L 274.767518 635.093796 
L 281.548498 634.886303 
L 283.055382 634.73424 
L 285.315709 634.644351 
L 293.603573 633.878048 
L 300.384553 632.744699 
L 301.891438 632.357427 
L 307.918975 630.551409 
L 309.42586 629.849526 
L 310.932744 629.194835 
L 312.439629 628.510181 
L 314.699955 627.105666 
L 315.453398 626.578318 
L 316.20684 626.215016 
L 316.960282 625.558827 
L 317.713724 625.061442 
L 319.974051 623.041188 
L 320.727493 622.499607 
L 321.480935 621.416445 
L 322.234378 620.889097 
L 324.494704 618.297299 
L 326.001589 616.113747 
L 326.755031 615.453813 
L 329.015358 612.075487 
L 330.522242 609.394549 
L 331.275684 608.259701 
L 334.289453 602.58696 
L 335.042895 600.641614 
L 335.796338 599.120244 
L 337.303222 595.557646 
L 338.056664 594.050508 
L 340.316991 586.971005 
L 342.577318 580.731964 
L 343.33076 577.507198 
L 346.344529 567.535519 
L 347.851413 561.355654 
L 349.358297 555.647707 
L 350.11174 552.575003 
L 350.865182 550.014667 
L 358.399604 513.656839 
L 359.153046 509.515206 
L 359.906489 506.076954 
L 361.413373 498.336019 
L 362.166815 492.729196 
L 362.920257 489.858743 
L 363.6737 485.896139 
L 364.427142 482.720063 
L 365.180584 479.021883 
L 366.687469 469.960329 
L 367.440911 466.582752 
L 368.194353 462.471082 
L 368.947795 459.148188 
L 371.208122 446.364483 
L 372.715006 439.961394 
L 373.468448 435.961337 
L 374.975333 429.164235 
L 375.728775 425.44508 
L 376.482217 423.574641 
L 378.742544 413.45839 
L 381.756313 404.368372 
L 382.509755 403.713681 
L 383.263197 400.724124 
L 384.01664 398.711361 
L 384.770082 396.251401 
L 385.523524 395.947277 
L 386.276966 395.217678 
L 387.030408 394.232645 
L 387.783851 392.973451 
L 388.537293 392.189919 
L 389.290735 392.209395 
L 390.044177 392.47232 
L 390.79762 391.765943 
L 391.551062 390.316484 
L 392.304504 391.083536 
L 393.057946 393.144989 
L 393.811388 393.078321 
L 394.564831 394.60868 
L 395.318273 395.825177 
L 396.825157 399.223728 
L 397.5786 399.96681 
L 398.332042 402.166842 
L 399.085484 403.939152 
L 399.838926 405.416327 
L 400.592368 407.93921 
L 401.345811 411.000677 
L 402.099253 413.226926 
L 402.852695 416.173785 
L 403.606137 418.513894 
L 406.619906 432.506605 
L 408.126791 439.322434 
L 408.880233 443.355451 
L 410.387117 450.595256 
L 415.661213 477.406129 
L 417.921539 490.12841 
L 418.674982 493.324711 
L 420.181866 502.061915 
L 423.195635 517.134043 
L 423.949077 519.749062 
L 424.702519 523.482449 
L 426.209404 532.024894 
L 426.962846 535.244416 
L 429.223173 546.200379 
L 429.976615 549.12177 
L 430.730057 552.808714 
L 431.483499 555.208749 
L 432.990384 562.237315 
L 436.004153 573.71763 
L 442.03169 591.6692 
L 442.785133 593.431023 
L 444.292017 597.529959 
L 448.059228 605.676144 
L 451.072997 611.189332 
L 453.333324 614.463536 
L 454.086766 615.432089 
L 455.59365 617.677815 
L 456.347093 618.241868 
L 458.607419 621.110823 
L 459.360862 621.618695 
L 460.114304 622.543053 
L 463.881515 625.829243 
L 464.634957 626.167076 
L 466.141841 627.290687 
L 466.895284 627.722903 
L 467.648726 628.366358 
L 468.402168 628.594826 
L 470.662495 629.854769 
L 471.415937 629.896717 
L 472.922821 630.702722 
L 473.676264 630.883249 
L 475.183148 631.402357 
L 478.196917 632.315479 
L 484.224455 633.495271 
L 492.512319 634.392662 
L 494.772646 634.487046 
L 497.032972 634.723004 
L 497.786415 634.668322 
L 498.539857 634.816639 
L 500.046741 634.860085 
L 505.320837 635.081062 
L 511.348375 635.166456 
L 517.375912 635.24436 
L 521.143124 635.251851 
L 552.787697 635.332751 
L 578.404732 635.3335 
L 578.404732 635.3335 
" clip-path="url(#pc1b59db234)" style="fill: none; stroke: #0066ff; stroke-opacity: 0.9; stroke-width: 2.5; stroke-linecap: square"/>
   </g>
   <g id="line2d_76">
    <path d="M 186.543077 635.3335 
L 227.400356 635.29275 
L 233.120375 635.289987 
L 261.72047 634.881106 
L 270.709071 634.414208 
L 272.343363 634.264331 
L 279.697673 633.5405 
L 285.417692 632.591509 
L 286.234837 632.237191 
L 287.051983 632.171577 
L 287.869129 631.97059 
L 288.686274 631.892543 
L 289.50342 631.548585 
L 291.137711 631.151446 
L 295.223439 629.814293 
L 296.040584 629.558052 
L 297.674875 628.879116 
L 298.492021 628.612514 
L 300.943458 627.260167 
L 301.760603 626.621981 
L 302.577749 626.398201 
L 304.21204 625.437468 
L 305.029186 624.776489 
L 308.297768 622.857096 
L 309.932059 621.235384 
L 312.383496 619.240707 
L 313.200641 618.239224 
L 314.017787 617.815148 
L 314.834933 616.661716 
L 315.652078 615.937195 
L 317.286369 613.878975 
L 318.103515 612.996979 
L 318.92066 611.696433 
L 321.372097 608.965493 
L 323.006388 606.353349 
L 323.823534 605.546637 
L 324.64068 603.682498 
L 326.274971 601.261672 
L 327.909262 597.772368 
L 328.726407 596.373054 
L 329.543553 594.573148 
L 330.360699 593.224254 
L 331.99499 589.891734 
L 332.812135 588.229272 
L 336.080718 579.519134 
L 336.897863 578.275914 
L 340.983591 567.161526 
L 341.800737 564.124616 
L 344.252173 557.130121 
L 345.069319 554.390203 
L 346.70361 550.29103 
L 347.520756 547.425407 
L 348.337901 544.143306 
L 349.155047 541.893769 
L 349.972192 539.27679 
L 351.606484 533.30519 
L 352.423629 530.556292 
L 353.240775 528.504979 
L 354.05792 525.563382 
L 354.875066 521.390997 
L 355.692211 518.789214 
L 356.509357 515.766808 
L 357.326503 513.296253 
L 358.143648 510.37883 
L 358.960794 508.078873 
L 359.777939 504.349212 
L 360.595085 501.718421 
L 361.41223 498.430103 
L 362.229376 496.043121 
L 364.680813 488.150055 
L 366.315104 483.717975 
L 368.766541 475.6626 
L 370.400832 470.906592 
L 374.48656 459.194768 
L 375.303705 456.849226 
L 376.120851 455.338714 
L 377.755142 451.620795 
L 379.389433 449.614376 
L 380.206579 446.725961 
L 381.023724 445.572529 
L 381.84087 444.736809 
L 382.658015 442.601233 
L 383.475161 441.818695 
L 384.292307 440.785441 
L 385.109452 440.497429 
L 385.926598 439.522191 
L 386.743743 439.2252 
L 387.560889 439.600238 
L 388.378034 437.740933 
L 390.829471 437.310641 
L 391.646617 437.368658 
L 392.463762 438.424704 
L 393.280908 439.005564 
L 394.098054 439.440001 
L 394.915199 440.279865 
L 395.732345 440.05056 
L 396.54949 441.065856 
L 397.366636 441.496839 
L 398.183781 443.210411 
L 399.000927 444.56483 
L 399.818073 445.392262 
L 400.635218 446.576084 
L 401.452364 448.078999 
L 402.269509 450.050884 
L 403.9038 454.960913 
L 404.720946 455.955489 
L 405.538092 457.378976 
L 406.355237 459.516624 
L 407.989528 464.316835 
L 408.806674 465.601496 
L 409.623819 468.623211 
L 411.258111 472.622926 
L 413.709547 480.476624 
L 414.526693 482.597005 
L 415.343839 485.308606 
L 416.160984 487.596131 
L 416.97813 491.424558 
L 417.795275 494.56507 
L 419.429566 498.929464 
L 420.246712 501.584429 
L 421.063858 505.709157 
L 423.515294 513.339075 
L 424.33244 516.530007 
L 426.783877 524.73595 
L 429.235313 533.565575 
L 430.052459 535.837215 
L 434.955332 552.22769 
L 435.772478 554.442003 
L 436.589624 557.328346 
L 437.406769 559.609655 
L 438.223915 562.4884 
L 439.04106 564.898866 
L 439.858206 566.733306 
L 442.309643 573.950199 
L 446.39537 584.065175 
L 447.212516 585.883039 
L 448.846807 589.886899 
L 450.481098 592.824352 
L 452.932535 598.353228 
L 455.383972 602.187871 
L 458.652554 608.109743 
L 459.4697 609.222425 
L 460.286845 609.77842 
L 461.103991 610.956717 
L 461.921136 612.347051 
L 462.738282 613.029441 
L 463.555428 614.19047 
L 464.372573 614.817606 
L 466.006864 616.84958 
L 466.82401 617.545783 
L 467.641155 618.569368 
L 470.909738 621.468833 
L 471.726883 621.908104 
L 473.361174 623.493901 
L 474.17832 624.138303 
L 474.995466 624.558926 
L 476.629757 625.675752 
L 477.446902 626.083943 
L 479.081193 627.054345 
L 483.166921 629.000675 
L 483.984067 629.1174 
L 485.618358 629.94276 
L 486.435504 630.072607 
L 487.252649 630.492539 
L 491.338377 631.711585 
L 492.155523 631.918789 
L 492.972668 631.942963 
L 493.789814 632.213708 
L 496.241251 632.616373 
L 497.058396 632.91889 
L 499.509833 633.177204 
L 501.96127 633.523924 
L 504.412706 633.853377 
L 506.046998 633.959742 
L 509.31558 634.349284 
L 512.584162 634.502615 
L 515.035599 634.666996 
L 517.487036 634.760237 
L 528.109928 635.118699 
L 565.698625 635.328665 
L 594.29872 635.330047 
L 594.29872 635.330047 
" clip-path="url(#pc1b59db234)" style="fill: none; stroke: #0033ff; stroke-opacity: 0.9; stroke-width: 2.5; stroke-linecap: square"/>
   </g>
   <g id="line2d_77">
    <path d="M 104.406161 635.3335 
L 191.528887 635.22568 
L 198.406997 635.14543 
L 221.33403 634.631928 
L 230.504843 634.132213 
L 240.822008 633.266203 
L 241.968359 633.03973 
L 245.407414 632.745809 
L 246.553766 632.516383 
L 247.700118 632.431209 
L 248.846469 632.150088 
L 252.285524 631.810872 
L 253.431876 631.457871 
L 258.017283 630.588415 
L 260.309986 629.861242 
L 261.456338 629.613107 
L 263.749041 628.904151 
L 264.895393 628.746113 
L 266.041744 628.403943 
L 267.188096 627.910135 
L 268.334447 627.68514 
L 270.627151 626.730018 
L 272.919854 625.98069 
L 274.066206 625.315551 
L 275.212557 625.09991 
L 276.358909 624.357475 
L 277.505261 623.81985 
L 278.651612 623.425493 
L 279.797964 622.630871 
L 280.944316 622.153802 
L 288.968777 617.58054 
L 290.115129 616.545661 
L 291.261481 615.793379 
L 292.407832 615.174027 
L 293.554184 614.107638 
L 295.846887 612.469653 
L 296.993239 611.272305 
L 298.13959 610.376262 
L 299.285942 609.141496 
L 301.578645 607.043182 
L 302.724997 606.033904 
L 303.871349 604.657839 
L 305.0177 603.635268 
L 308.456755 599.542521 
L 310.749459 597.350664 
L 311.89581 595.621598 
L 313.042162 594.373539 
L 314.188514 592.624287 
L 315.334865 591.581038 
L 316.481217 590.153279 
L 317.627569 588.308515 
L 319.920272 585.574109 
L 326.798382 575.741276 
L 327.944733 573.615884 
L 329.091085 572.135445 
L 331.383788 568.250954 
L 332.53014 567.130901 
L 333.676492 564.785929 
L 338.261898 557.700303 
L 339.40825 556.168169 
L 340.554602 554.002406 
L 341.700953 552.560861 
L 346.28636 544.422139 
L 347.432711 542.954993 
L 348.579063 540.930528 
L 349.725415 539.668684 
L 352.018118 535.077206 
L 354.310821 531.638767 
L 355.457173 529.386353 
L 356.603525 527.733599 
L 358.896228 525.222711 
L 360.04258 523.445889 
L 362.335283 520.587416 
L 363.481635 518.66191 
L 364.627986 517.28486 
L 370.359745 511.2671 
L 373.798799 508.714364 
L 374.945151 508.436197 
L 376.091503 506.874523 
L 377.237854 505.558031 
L 378.384206 504.475887 
L 379.530558 504.734361 
L 380.676909 503.552274 
L 381.823261 502.627185 
L 382.969613 502.898951 
L 384.115964 502.296338 
L 385.262316 501.86358 
L 386.408668 501.089635 
L 387.555019 501.26589 
L 388.701371 502.097929 
L 389.847723 501.431805 
L 390.994074 502.035895 
L 392.140426 501.62086 
L 394.433129 501.861118 
L 395.579481 502.32834 
L 396.725833 501.994047 
L 397.872184 502.982648 
L 399.018536 503.393744 
L 400.164887 503.990941 
L 401.311239 504.292248 
L 402.457591 504.75307 
L 403.603942 506.046423 
L 404.750294 506.694823 
L 405.896646 507.933527 
L 407.042997 508.671039 
L 408.189349 509.598098 
L 409.335701 510.72849 
L 411.628404 513.214761 
L 413.921107 516.475468 
L 415.067459 517.758482 
L 416.213811 518.672741 
L 417.360162 519.832672 
L 419.652866 523.083041 
L 420.799217 524.11152 
L 423.091921 527.735076 
L 426.530975 532.342308 
L 428.823679 536.003281 
L 429.97003 537.127272 
L 432.262734 541.190971 
L 433.409085 542.507956 
L 434.555437 545.028691 
L 437.994492 550.887921 
L 439.140844 552.392484 
L 440.287195 554.202292 
L 441.433547 556.324238 
L 442.579899 558.095645 
L 443.72625 559.572637 
L 446.018954 563.181915 
L 447.165305 564.911474 
L 448.311657 566.93003 
L 450.60436 570.218801 
L 451.750712 572.200925 
L 454.043415 575.35135 
L 455.189767 577.438833 
L 457.48247 580.866933 
L 458.628822 581.94563 
L 459.775173 583.75987 
L 460.921525 585.298896 
L 462.067877 587.131844 
L 464.36058 590.201527 
L 465.506932 591.83902 
L 467.799635 594.166268 
L 470.092338 597.281245 
L 471.23869 598.25803 
L 472.385042 599.833981 
L 474.677745 602.405918 
L 475.824097 603.934605 
L 476.970448 604.854279 
L 478.1168 605.933468 
L 479.263151 606.83148 
L 480.409503 608.177513 
L 483.848558 611.06651 
L 484.99491 611.781867 
L 487.287613 613.866396 
L 488.433965 614.620647 
L 491.87302 617.40724 
L 494.165723 618.856662 
L 495.312075 619.265297 
L 497.604778 620.740812 
L 502.190185 623.326042 
L 503.336536 623.804587 
L 505.629239 625.007352 
L 509.068294 626.29972 
L 510.214646 626.83193 
L 512.507349 627.447836 
L 513.653701 628.053895 
L 517.092756 628.961261 
L 518.239108 629.485594 
L 519.385459 629.696804 
L 520.531811 630.049313 
L 522.824514 630.555429 
L 526.263569 631.352512 
L 527.409921 631.463779 
L 530.848976 632.081654 
L 540.019789 633.371069 
L 541.166141 633.436057 
L 542.312492 633.619696 
L 546.897899 633.939711 
L 549.190602 634.073625 
L 558.361415 634.565464 
L 566.385877 634.818522 
L 577.849394 635.109982 
L 647.776844 635.332515 
L 676.435636 635.330546 
L 676.435636 635.330546 
" clip-path="url(#pc1b59db234)" style="fill: none; stroke: #0000ff; stroke-opacity: 0.9; stroke-width: 2.5; stroke-linecap: square"/>
   </g>
   <g id="patch_3">
    <path d="M 75.804688 635.3335 
L 75.804688 39.1875 
" style="fill: none; stroke: #000000; stroke-width: 0.8; stroke-linejoin: miter; stroke-linecap: square"/>
   </g>
   <g id="patch_4">
    <path d="M 705.037109 635.3335 
L 705.037109 39.1875 
" style="fill: none; stroke: #000000; stroke-width: 0.8; stroke-linejoin: miter; stroke-linecap: square"/>
   </g>
   <g id="patch_5">
    <path d="M 75.804688 635.3335 
L 705.037109 635.3335 
" style="fill: none; stroke: #000000; stroke-width: 0.8; stroke-linejoin: miter; stroke-linecap: square"/>
   </g>
   <g id="patch_6">
    <path d="M 75.804688 39.1875 
L 705.037109 39.1875 
" style="fill: none; stroke: #000000; stroke-width: 0.8; stroke-linejoin: miter; stroke-linecap: square"/>
   </g>
   <g id="legend_1">
    <g id="patch_7">
     <path d="M 96.804688 320.98125 
L 302.004687 320.98125 
Q 308.004687 320.98125 308.004687 314.98125 
L 308.004687 60.1875 
Q 308.004687 54.1875 302.004687 54.1875 
L 96.804688 54.1875 
Q 90.804688 54.1875 90.804688 60.1875 
L 90.804688 314.98125 
Q 90.804688 320.98125 96.804688 320.98125 
z
" style="fill: #ffffff; opacity: 0.8; stroke: #cccccc; stroke-linejoin: miter"/>
    </g>
    <g id="line2d_78">
     <path d="M 102.804688 77.428125 
L 132.804688 77.428125 
L 162.804688 77.428125 
" style="fill: none; stroke: #00ffff; stroke-opacity: 0.9; stroke-width: 2.5; stroke-linecap: square"/>
    </g>
    <g id="text_19">
     <!-- $\alpha$ = 0.01 -->
     <g transform="translate(186.804688 87.928125) scale(0.3 -0.3)">
      <defs>
       <path id="STIXGeneral-Italic-3b1" d="M 3514 2739 
L 2605 1069 
L 2605 954 
Q 2605 704 2662 512 
Q 2720 320 2822 320 
Q 2970 320 3149 794 
L 3251 749 
Q 3014 -58 2605 -58 
Q 2291 -58 2272 614 
Q 1709 -70 1030 -70 
Q 589 -70 381 198 
Q 173 467 173 902 
Q 173 1293 329 1673 
Q 486 2054 755 2330 
Q 973 2547 1270 2684 
Q 1568 2822 1862 2822 
Q 2246 2822 2457 2595 
Q 2669 2368 2669 2061 
L 2963 2739 
L 3514 2739 
z
M 2298 1741 
Q 2298 2688 1805 2688 
Q 1472 2688 1085 2099 
Q 698 1510 698 800 
Q 698 493 806 278 
Q 915 64 1139 64 
Q 1606 64 2195 1286 
Q 2202 1325 2230 1411 
Q 2259 1498 2278 1581 
Q 2298 1664 2298 1741 
z
" transform="scale(0.015625)"/>
       <path id="LiberationSans-3d" d="M 313 2675 
L 313 3138 
L 3422 3138 
L 3422 2675 
L 313 2675 
z
M 313 1075 
L 313 1538 
L 3422 1538 
L 3422 1075 
L 313 1075 
z
" transform="scale(0.015625)"/>
      </defs>
      <use xlink:href="#STIXGeneral-Italic-3b1" transform="translate(0 0.171875)"/>
      <use xlink:href="#LiberationSans-20" transform="translate(55.199997 0.171875)"/>
      <use xlink:href="#LiberationSans-3d" transform="translate(82.9832 0.171875)"/>
      <use xlink:href="#LiberationSans-20" transform="translate(141.381638 0.171875)"/>
      <use xlink:href="#LiberationSans-30" transform="translate(169.164841 0.171875)"/>
      <use xlink:href="#LiberationSans-2e" transform="translate(224.780075 0.171875)"/>
      <use xlink:href="#LiberationSans-30" transform="translate(252.563278 0.171875)"/>
      <use xlink:href="#LiberationSans-31" transform="translate(308.178513 0.171875)"/>
     </g>
    </g>
    <g id="line2d_79">
     <path d="M 102.804688 120.39375 
L 132.804688 120.39375 
L 162.804688 120.39375 
" style="fill: none; stroke: #00ccff; stroke-opacity: 0.9; stroke-width: 2.5; stroke-linecap: square"/>
    </g>
    <g id="text_20">
     <!-- $\alpha$ = 0.03 -->
     <g transform="translate(186.804688 130.89375) scale(0.3 -0.3)">
      <use xlink:href="#STIXGeneral-Italic-3b1" transform="translate(0 0.171875)"/>
      <use xlink:href="#LiberationSans-20" transform="translate(55.199997 0.171875)"/>
      <use xlink:href="#LiberationSans-3d" transform="translate(82.9832 0.171875)"/>
      <use xlink:href="#LiberationSans-20" transform="translate(141.381638 0.171875)"/>
      <use xlink:href="#LiberationSans-30" transform="translate(169.164841 0.171875)"/>
      <use xlink:href="#LiberationSans-2e" transform="translate(224.780075 0.171875)"/>
      <use xlink:href="#LiberationSans-30" transform="translate(252.563278 0.171875)"/>
      <use xlink:href="#LiberationSans-33" transform="translate(308.178513 0.171875)"/>
     </g>
    </g>
    <g id="line2d_80">
     <path d="M 102.804688 163.359375 
L 132.804688 163.359375 
L 162.804688 163.359375 
" style="fill: none; stroke: #0099ff; stroke-opacity: 0.9; stroke-width: 2.5; stroke-linecap: square"/>
    </g>
    <g id="text_21">
     <!-- $\alpha$ = 0.05 -->
     <g transform="translate(186.804688 173.859375) scale(0.3 -0.3)">
      <use xlink:href="#STIXGeneral-Italic-3b1" transform="translate(0 0.171875)"/>
      <use xlink:href="#LiberationSans-20" transform="translate(55.199997 0.171875)"/>
      <use xlink:href="#LiberationSans-3d" transform="translate(82.9832 0.171875)"/>
      <use xlink:href="#LiberationSans-20" transform="translate(141.381638 0.171875)"/>
      <use xlink:href="#LiberationSans-30" transform="translate(169.164841 0.171875)"/>
      <use xlink:href="#LiberationSans-2e" transform="translate(224.780075 0.171875)"/>
      <use xlink:href="#LiberationSans-30" transform="translate(252.563278 0.171875)"/>
      <use xlink:href="#LiberationSans-35" transform="translate(308.178513 0.171875)"/>
     </g>
    </g>
    <g id="line2d_81">
     <path d="M 102.804688 206.325 
L 132.804688 206.325 
L 162.804688 206.325 
" style="fill: none; stroke: #0066ff; stroke-opacity: 0.9; stroke-width: 2.5; stroke-linecap: square"/>
    </g>
    <g id="text_22">
     <!-- $\alpha$ = 0.07 -->
     <g transform="translate(186.804688 216.825) scale(0.3 -0.3)">
      <defs>
       <path id="LiberationSans-37" d="M 3238 3947 
Q 2563 2916 2284 2331 
Q 2006 1747 1867 1178 
Q 1728 609 1728 0 
L 1141 0 
Q 1141 844 1498 1776 
Q 1856 2709 2694 3925 
L 328 3925 
L 328 4403 
L 3238 4403 
L 3238 3947 
z
" transform="scale(0.015625)"/>
      </defs>
      <use xlink:href="#STIXGeneral-Italic-3b1" transform="translate(0 0.171875)"/>
      <use xlink:href="#LiberationSans-20" transform="translate(55.199997 0.171875)"/>
      <use xlink:href="#LiberationSans-3d" transform="translate(82.9832 0.171875)"/>
      <use xlink:href="#LiberationSans-20" transform="translate(141.381638 0.171875)"/>
      <use xlink:href="#LiberationSans-30" transform="translate(169.164841 0.171875)"/>
      <use xlink:href="#LiberationSans-2e" transform="translate(224.780075 0.171875)"/>
      <use xlink:href="#LiberationSans-30" transform="translate(252.563278 0.171875)"/>
      <use xlink:href="#LiberationSans-37" transform="translate(308.178513 0.171875)"/>
     </g>
    </g>
    <g id="line2d_82">
     <path d="M 102.804688 249.290625 
L 132.804688 249.290625 
L 162.804688 249.290625 
" style="fill: none; stroke: #0033ff; stroke-opacity: 0.9; stroke-width: 2.5; stroke-linecap: square"/>
    </g>
    <g id="text_23">
     <!-- $\alpha$ = 0.1 -->
     <g transform="translate(186.804688 259.790625) scale(0.3 -0.3)">
      <use xlink:href="#STIXGeneral-Italic-3b1" transform="translate(0 0.171875)"/>
      <use xlink:href="#LiberationSans-20" transform="translate(55.199997 0.171875)"/>
      <use xlink:href="#LiberationSans-3d" transform="translate(82.9832 0.171875)"/>
      <use xlink:href="#LiberationSans-20" transform="translate(141.381638 0.171875)"/>
      <use xlink:href="#LiberationSans-30" transform="translate(169.164841 0.171875)"/>
      <use xlink:href="#LiberationSans-2e" transform="translate(224.780075 0.171875)"/>
      <use xlink:href="#LiberationSans-31" transform="translate(252.563278 0.171875)"/>
     </g>
    </g>
    <g id="line2d_83">
     <path d="M 102.804688 292.25625 
L 132.804688 292.25625 
L 162.804688 292.25625 
" style="fill: none; stroke: #0000ff; stroke-opacity: 0.9; stroke-width: 2.5; stroke-linecap: square"/>
    </g>
    <g id="text_24">
     <!-- $\alpha$ = 0.2 -->
     <g transform="translate(186.804688 302.75625) scale(0.3 -0.3)">
      <use xlink:href="#STIXGeneral-Italic-3b1" transform="translate(0 0.171875)"/>
      <use xlink:href="#LiberationSans-20" transform="translate(55.199997 0.171875)"/>
      <use xlink:href="#LiberationSans-3d" transform="translate(82.9832 0.171875)"/>
      <use xlink:href="#LiberationSans-20" transform="translate(141.381638 0.171875)"/>
      <use xlink:href="#LiberationSans-30" transform="translate(169.164841 0.171875)"/>
      <use xlink:href="#LiberationSans-2e" transform="translate(224.780075 0.171875)"/>
      <use xlink:href="#LiberationSans-32" transform="translate(252.563278 0.171875)"/>
     </g>
    </g>
   </g>
  </g>
 </g>
 <defs>
  <clipPath id="pc1b59db234">
   <rect x="75.804688" y="39.1875" width="629.232422" height="596.146"/>
  </clipPath>
 </defs>
</svg>
