<?xml version="1.0" encoding="utf-8" standalone="no"?>
<!DOCTYPE svg PUBLIC "-//W3C//DTD SVG 1.1//EN"
  "http://www.w3.org/Graphics/SVG/1.1/DTD/svg11.dtd">
<svg xmlns:xlink="http://www.w3.org/1999/xlink" width="712.051113pt" height="711.406625pt" viewBox="0 0 712.051113 711.406625" xmlns="http://www.w3.org/2000/svg" version="1.1">
 <metadata>
  <rdf:RDF xmlns:dc="http://purl.org/dc/elements/1.1/" xmlns:cc="http://creativecommons.org/ns#" xmlns:rdf="http://www.w3.org/1999/02/22-rdf-syntax-ns#">
   <cc:Work>
    <dc:type rdf:resource="http://purl.org/dc/dcmitype/StillImage"/>
    <dc:date>2025-01-31T14:22:34.795984</dc:date>
    <dc:format>image/svg+xml</dc:format>
    <dc:creator>
     <cc:Agent>
      <dc:title>Matplotlib v3.9.3, https://matplotlib.org/</dc:title>
     </cc:Agent>
    </dc:creator>
   </cc:Work>
  </rdf:RDF>
 </metadata>
 <defs>
  <style type="text/css">*{stroke-linejoin: round; stroke-linecap: butt}</style>
 </defs>
 <g id="figure_1">
  <g id="patch_1">
   <path d="M 0 711.406625 
L 712.051113 711.406625 
L 712.051113 0 
L 0 0 
z
" style="fill: #ffffff"/>
  </g>
  <g id="axes_1">
   <g id="patch_2">
    <path d="M 84.665625 632.4535 
L 704.851113 632.4535 
L 704.851113 39.1875 
L 84.665625 39.1875 
z
" style="fill: #ffffff"/>
   </g>
   <g id="matplotlib.axis_1">
    <g id="xtick_1">
     <g id="line2d_1">
      <defs>
       <path id="m0092cca8ed" d="M 0 0 
L 0 -3.5 
" style="stroke: #000000; stroke-width: 0.8"/>
      </defs>
      <g>
       <use xlink:href="#m0092cca8ed" x="159.567679" y="632.4535" style="stroke: #000000; stroke-width: 0.8"/>
      </g>
     </g>
     <g id="text_1">
      <!-- $\mathdefault{−2}$ -->
      <g transform="translate(142.317679 657.694125) scale(0.3 -0.3)">
       <defs>
        <path id="LiberationSans-2212" d="M 316 1900 
L 316 2356 
L 3425 2356 
L 3425 1900 
L 316 1900 
z
" transform="scale(0.015625)"/>
        <path id="LiberationSans-32" d="M 322 0 
L 322 397 
Q 481 763 711 1042 
Q 941 1322 1194 1548 
Q 1447 1775 1695 1969 
Q 1944 2163 2144 2356 
Q 2344 2550 2467 2762 
Q 2591 2975 2591 3244 
Q 2591 3606 2378 3806 
Q 2166 4006 1788 4006 
Q 1428 4006 1195 3811 
Q 963 3616 922 3263 
L 347 3316 
Q 409 3844 795 4156 
Q 1181 4469 1788 4469 
Q 2453 4469 2811 4155 
Q 3169 3841 3169 3263 
Q 3169 3006 3051 2753 
Q 2934 2500 2703 2247 
Q 2472 1994 1819 1463 
Q 1459 1169 1246 933 
Q 1034 697 941 478 
L 3238 478 
L 3238 0 
L 322 0 
z
" transform="scale(0.015625)"/>
       </defs>
       <use xlink:href="#LiberationSans-2212" transform="translate(0 0.171875)"/>
       <use xlink:href="#LiberationSans-32" transform="translate(58.398438 0.171875)"/>
      </g>
     </g>
    </g>
    <g id="xtick_2">
     <g id="line2d_2">
      <g>
       <use xlink:href="#m0092cca8ed" x="277.163024" y="632.4535" style="stroke: #000000; stroke-width: 0.8"/>
      </g>
     </g>
     <g id="text_2">
      <!-- $\mathdefault{−1}$ -->
      <g transform="translate(259.913024 657.694125) scale(0.3 -0.3)">
       <defs>
        <path id="LiberationSans-31" d="M 488 0 
L 488 478 
L 1609 478 
L 1609 3866 
L 616 3156 
L 616 3688 
L 1656 4403 
L 2175 4403 
L 2175 478 
L 3247 478 
L 3247 0 
L 488 0 
z
" transform="scale(0.015625)"/>
       </defs>
       <use xlink:href="#LiberationSans-2212" transform="translate(0 0.203125)"/>
       <use xlink:href="#LiberationSans-31" transform="translate(58.398438 0.203125)"/>
      </g>
     </g>
    </g>
    <g id="xtick_3">
     <g id="line2d_3">
      <g>
       <use xlink:href="#m0092cca8ed" x="394.758369" y="632.4535" style="stroke: #000000; stroke-width: 0.8"/>
      </g>
     </g>
     <g id="text_3">
      <!-- $\mathdefault{0}$ -->
      <g transform="translate(386.358369 657.694125) scale(0.3 -0.3)">
       <defs>
        <path id="LiberationSans-30" d="M 3309 2203 
Q 3309 1100 2920 518 
Q 2531 -63 1772 -63 
Q 1013 -63 631 515 
Q 250 1094 250 2203 
Q 250 3338 620 3903 
Q 991 4469 1791 4469 
Q 2569 4469 2939 3897 
Q 3309 3325 3309 2203 
z
M 2738 2203 
Q 2738 3156 2517 3584 
Q 2297 4013 1791 4013 
Q 1272 4013 1045 3591 
Q 819 3169 819 2203 
Q 819 1266 1048 831 
Q 1278 397 1778 397 
Q 2275 397 2506 840 
Q 2738 1284 2738 2203 
z
" transform="scale(0.015625)"/>
       </defs>
       <use xlink:href="#LiberationSans-30" transform="translate(0 0.171875)"/>
      </g>
     </g>
    </g>
    <g id="xtick_4">
     <g id="line2d_4">
      <g>
       <use xlink:href="#m0092cca8ed" x="512.353714" y="632.4535" style="stroke: #000000; stroke-width: 0.8"/>
      </g>
     </g>
     <g id="text_4">
      <!-- $\mathdefault{1}$ -->
      <g transform="translate(503.953714 657.694125) scale(0.3 -0.3)">
       <use xlink:href="#LiberationSans-31" transform="translate(0 0.203125)"/>
      </g>
     </g>
    </g>
    <g id="xtick_5">
     <g id="line2d_5">
      <g>
       <use xlink:href="#m0092cca8ed" x="629.94906" y="632.4535" style="stroke: #000000; stroke-width: 0.8"/>
      </g>
     </g>
     <g id="text_5">
      <!-- $\mathdefault{2}$ -->
      <g transform="translate(621.54906 657.694125) scale(0.3 -0.3)">
       <use xlink:href="#LiberationSans-32" transform="translate(0 0.171875)"/>
      </g>
     </g>
    </g>
    <g id="xtick_6">
     <g id="line2d_6">
      <defs>
       <path id="m0ff7e19a2f" d="M 0 0 
L 0 -2 
" style="stroke: #000000; stroke-width: 0.6"/>
      </defs>
      <g>
       <use xlink:href="#m0ff7e19a2f" x="89.010472" y="632.4535" style="stroke: #000000; stroke-width: 0.6"/>
      </g>
     </g>
    </g>
    <g id="xtick_7">
     <g id="line2d_7">
      <g>
       <use xlink:href="#m0ff7e19a2f" x="112.529541" y="632.4535" style="stroke: #000000; stroke-width: 0.6"/>
      </g>
     </g>
    </g>
    <g id="xtick_8">
     <g id="line2d_8">
      <g>
       <use xlink:href="#m0ff7e19a2f" x="136.04861" y="632.4535" style="stroke: #000000; stroke-width: 0.6"/>
      </g>
     </g>
    </g>
    <g id="xtick_9">
     <g id="line2d_9">
      <g>
       <use xlink:href="#m0ff7e19a2f" x="183.086748" y="632.4535" style="stroke: #000000; stroke-width: 0.6"/>
      </g>
     </g>
    </g>
    <g id="xtick_10">
     <g id="line2d_10">
      <g>
       <use xlink:href="#m0ff7e19a2f" x="206.605817" y="632.4535" style="stroke: #000000; stroke-width: 0.6"/>
      </g>
     </g>
    </g>
    <g id="xtick_11">
     <g id="line2d_11">
      <g>
       <use xlink:href="#m0ff7e19a2f" x="230.124886" y="632.4535" style="stroke: #000000; stroke-width: 0.6"/>
      </g>
     </g>
    </g>
    <g id="xtick_12">
     <g id="line2d_12">
      <g>
       <use xlink:href="#m0ff7e19a2f" x="253.643955" y="632.4535" style="stroke: #000000; stroke-width: 0.6"/>
      </g>
     </g>
    </g>
    <g id="xtick_13">
     <g id="line2d_13">
      <g>
       <use xlink:href="#m0ff7e19a2f" x="300.682093" y="632.4535" style="stroke: #000000; stroke-width: 0.6"/>
      </g>
     </g>
    </g>
    <g id="xtick_14">
     <g id="line2d_14">
      <g>
       <use xlink:href="#m0ff7e19a2f" x="324.201162" y="632.4535" style="stroke: #000000; stroke-width: 0.6"/>
      </g>
     </g>
    </g>
    <g id="xtick_15">
     <g id="line2d_15">
      <g>
       <use xlink:href="#m0ff7e19a2f" x="347.720231" y="632.4535" style="stroke: #000000; stroke-width: 0.6"/>
      </g>
     </g>
    </g>
    <g id="xtick_16">
     <g id="line2d_16">
      <g>
       <use xlink:href="#m0ff7e19a2f" x="371.2393" y="632.4535" style="stroke: #000000; stroke-width: 0.6"/>
      </g>
     </g>
    </g>
    <g id="xtick_17">
     <g id="line2d_17">
      <g>
       <use xlink:href="#m0ff7e19a2f" x="418.277438" y="632.4535" style="stroke: #000000; stroke-width: 0.6"/>
      </g>
     </g>
    </g>
    <g id="xtick_18">
     <g id="line2d_18">
      <g>
       <use xlink:href="#m0ff7e19a2f" x="441.796507" y="632.4535" style="stroke: #000000; stroke-width: 0.6"/>
      </g>
     </g>
    </g>
    <g id="xtick_19">
     <g id="line2d_19">
      <g>
       <use xlink:href="#m0ff7e19a2f" x="465.315576" y="632.4535" style="stroke: #000000; stroke-width: 0.6"/>
      </g>
     </g>
    </g>
    <g id="xtick_20">
     <g id="line2d_20">
      <g>
       <use xlink:href="#m0ff7e19a2f" x="488.834645" y="632.4535" style="stroke: #000000; stroke-width: 0.6"/>
      </g>
     </g>
    </g>
    <g id="xtick_21">
     <g id="line2d_21">
      <g>
       <use xlink:href="#m0ff7e19a2f" x="535.872783" y="632.4535" style="stroke: #000000; stroke-width: 0.6"/>
      </g>
     </g>
    </g>
    <g id="xtick_22">
     <g id="line2d_22">
      <g>
       <use xlink:href="#m0ff7e19a2f" x="559.391852" y="632.4535" style="stroke: #000000; stroke-width: 0.6"/>
      </g>
     </g>
    </g>
    <g id="xtick_23">
     <g id="line2d_23">
      <g>
       <use xlink:href="#m0ff7e19a2f" x="582.910922" y="632.4535" style="stroke: #000000; stroke-width: 0.6"/>
      </g>
     </g>
    </g>
    <g id="xtick_24">
     <g id="line2d_24">
      <g>
       <use xlink:href="#m0ff7e19a2f" x="606.429991" y="632.4535" style="stroke: #000000; stroke-width: 0.6"/>
      </g>
     </g>
    </g>
    <g id="xtick_25">
     <g id="line2d_25">
      <g>
       <use xlink:href="#m0ff7e19a2f" x="653.468129" y="632.4535" style="stroke: #000000; stroke-width: 0.6"/>
      </g>
     </g>
    </g>
    <g id="xtick_26">
     <g id="line2d_26">
      <g>
       <use xlink:href="#m0ff7e19a2f" x="676.987198" y="632.4535" style="stroke: #000000; stroke-width: 0.6"/>
      </g>
     </g>
    </g>
    <g id="xtick_27">
     <g id="line2d_27">
      <g>
       <use xlink:href="#m0ff7e19a2f" x="700.506267" y="632.4535" style="stroke: #000000; stroke-width: 0.6"/>
      </g>
     </g>
    </g>
    <g id="text_6">
     <!-- Heat Flux -->
     <g transform="translate(330.572432 689.65975) scale(0.3 -0.3)">
      <defs>
       <path id="LiberationSans-48" d="M 3503 0 
L 3503 2041 
L 1122 2041 
L 1122 0 
L 525 0 
L 525 4403 
L 1122 4403 
L 1122 2541 
L 3503 2541 
L 3503 4403 
L 4100 4403 
L 4100 0 
L 3503 0 
z
" transform="scale(0.015625)"/>
       <path id="LiberationSans-65" d="M 863 1572 
Q 863 991 1103 675 
Q 1344 359 1806 359 
Q 2172 359 2392 506 
Q 2613 653 2691 878 
L 3184 738 
Q 2881 -63 1806 -63 
Q 1056 -63 664 384 
Q 272 831 272 1713 
Q 272 2550 664 2997 
Q 1056 3444 1784 3444 
Q 3275 3444 3275 1647 
L 3275 1572 
L 863 1572 
z
M 2694 2003 
Q 2647 2538 2422 2783 
Q 2197 3028 1775 3028 
Q 1366 3028 1127 2754 
Q 888 2481 869 2003 
L 2694 2003 
z
" transform="scale(0.015625)"/>
       <path id="LiberationSans-61" d="M 1294 -63 
Q 784 -63 528 206 
Q 272 475 272 944 
Q 272 1469 617 1750 
Q 963 2031 1731 2050 
L 2491 2063 
L 2491 2247 
Q 2491 2659 2316 2837 
Q 2141 3016 1766 3016 
Q 1388 3016 1216 2887 
Q 1044 2759 1009 2478 
L 422 2531 
Q 566 3444 1778 3444 
Q 2416 3444 2737 3151 
Q 3059 2859 3059 2306 
L 3059 850 
Q 3059 600 3125 473 
Q 3191 347 3375 347 
Q 3456 347 3559 369 
L 3559 19 
Q 3347 -31 3125 -31 
Q 2813 -31 2670 133 
Q 2528 297 2509 647 
L 2491 647 
Q 2275 259 1989 98 
Q 1703 -63 1294 -63 
z
M 1422 359 
Q 1731 359 1972 500 
Q 2213 641 2352 886 
Q 2491 1131 2491 1391 
L 2491 1669 
L 1875 1656 
Q 1478 1650 1273 1575 
Q 1069 1500 959 1344 
Q 850 1188 850 934 
Q 850 659 998 509 
Q 1147 359 1422 359 
z
" transform="scale(0.015625)"/>
       <path id="LiberationSans-74" d="M 1731 25 
Q 1453 -50 1163 -50 
Q 488 -50 488 716 
L 488 2972 
L 97 2972 
L 97 3381 
L 509 3381 
L 675 4138 
L 1050 4138 
L 1050 3381 
L 1675 3381 
L 1675 2972 
L 1050 2972 
L 1050 838 
Q 1050 594 1129 495 
Q 1209 397 1406 397 
Q 1519 397 1731 441 
L 1731 25 
z
" transform="scale(0.015625)"/>
       <path id="LiberationSans-20" transform="scale(0.015625)"/>
       <path id="LiberationSans-46" d="M 1122 3916 
L 1122 2278 
L 3578 2278 
L 3578 1784 
L 1122 1784 
L 1122 0 
L 525 0 
L 525 4403 
L 3653 4403 
L 3653 3916 
L 1122 3916 
z
" transform="scale(0.015625)"/>
       <path id="LiberationSans-6c" d="M 431 0 
L 431 4638 
L 994 4638 
L 994 0 
L 431 0 
z
" transform="scale(0.015625)"/>
       <path id="LiberationSans-75" d="M 981 3381 
L 981 1238 
Q 981 903 1047 718 
Q 1113 534 1256 453 
Q 1400 372 1678 372 
Q 2084 372 2318 650 
Q 2553 928 2553 1422 
L 2553 3381 
L 3116 3381 
L 3116 722 
Q 3116 131 3134 0 
L 2603 0 
Q 2600 16 2597 84 
Q 2594 153 2589 242 
Q 2584 331 2578 578 
L 2569 578 
Q 2375 228 2120 82 
Q 1866 -63 1488 -63 
Q 931 -63 673 214 
Q 416 491 416 1128 
L 416 3381 
L 981 3381 
z
" transform="scale(0.015625)"/>
       <path id="LiberationSans-78" d="M 2503 0 
L 1594 1388 
L 678 0 
L 72 0 
L 1275 1738 
L 128 3381 
L 750 3381 
L 1594 2066 
L 2431 3381 
L 3059 3381 
L 1913 1744 
L 3131 0 
L 2503 0 
z
" transform="scale(0.015625)"/>
      </defs>
      <use xlink:href="#LiberationSans-48"/>
      <use xlink:href="#LiberationSans-65" x="72.216797"/>
      <use xlink:href="#LiberationSans-61" x="127.832031"/>
      <use xlink:href="#LiberationSans-74" x="183.447266"/>
      <use xlink:href="#LiberationSans-20" x="211.230469"/>
      <use xlink:href="#LiberationSans-46" x="239.013672"/>
      <use xlink:href="#LiberationSans-6c" x="300.097656"/>
      <use xlink:href="#LiberationSans-75" x="322.314453"/>
      <use xlink:href="#LiberationSans-78" x="377.929688"/>
     </g>
    </g>
    <g id="text_7">
     <!-- $\times\mathdefault{10^{10}}\mathdefault{}$ -->
     <g transform="translate(602.051113 695.906625) scale(0.4 -0.4)">
      <defs>
       <path id="STIXGeneral-Regular-d7" d="M 3821 141 
L 3526 -160 
L 2048 1312 
L 570 -160 
L 275 134 
L 1747 1613 
L 275 3091 
L 576 3386 
L 2048 1914 
L 3526 3386 
L 3821 3098 
L 2349 1613 
L 3821 141 
z
" transform="scale(0.015625)"/>
      </defs>
      <use xlink:href="#STIXGeneral-Regular-d7" transform="translate(0 0.140625)"/>
      <use xlink:href="#LiberationSans-31" transform="translate(63.999985 0.140625)"/>
      <use xlink:href="#LiberationSans-30" transform="translate(119.615219 0.140625)"/>
      <use xlink:href="#LiberationSans-31" transform="translate(176.154946 37.120312) scale(0.7)"/>
      <use xlink:href="#LiberationSans-30" transform="translate(215.08561 37.120312) scale(0.7)"/>
     </g>
    </g>
   </g>
   <g id="matplotlib.axis_2">
    <g id="ytick_1">
     <g id="line2d_28">
      <defs>
       <path id="m73317855fe" d="M 0 0 
L 3.5 0 
" style="stroke: #000000; stroke-width: 0.8"/>
      </defs>
      <g>
       <use xlink:href="#m73317855fe" x="84.665625" y="605.486864" style="stroke: #000000; stroke-width: 0.8"/>
      </g>
     </g>
     <g id="text_8">
      <!-- $\mathdefault{0.0}$ -->
      <g transform="translate(39.165625 616.357176) scale(0.3 -0.3)">
       <defs>
        <path id="LiberationSans-2e" d="M 584 0 
L 584 684 
L 1194 684 
L 1194 0 
L 584 0 
z
" transform="scale(0.015625)"/>
       </defs>
       <use xlink:href="#LiberationSans-30" transform="translate(0 0.171875)"/>
       <use xlink:href="#LiberationSans-2e" transform="translate(55.615234 0.171875)"/>
       <use xlink:href="#LiberationSans-30" transform="translate(83.398438 0.171875)"/>
      </g>
     </g>
    </g>
    <g id="ytick_2">
     <g id="line2d_29">
      <g>
       <use xlink:href="#m73317855fe" x="84.665625" y="538.117688" style="stroke: #000000; stroke-width: 0.8"/>
      </g>
     </g>
     <g id="text_9">
      <!-- $\mathdefault{0.5}$ -->
      <g transform="translate(39.165625 548.988) scale(0.3 -0.3)">
       <defs>
        <path id="LiberationSans-35" d="M 3291 1434 
Q 3291 738 2877 337 
Q 2463 -63 1728 -63 
Q 1113 -63 734 206 
Q 356 475 256 984 
L 825 1050 
Q 1003 397 1741 397 
Q 2194 397 2450 670 
Q 2706 944 2706 1422 
Q 2706 1838 2448 2094 
Q 2191 2350 1753 2350 
Q 1525 2350 1328 2278 
Q 1131 2206 934 2034 
L 384 2034 
L 531 4403 
L 3034 4403 
L 3034 3925 
L 1044 3925 
L 959 2528 
Q 1325 2809 1869 2809 
Q 2519 2809 2905 2428 
Q 3291 2047 3291 1434 
z
" transform="scale(0.015625)"/>
       </defs>
       <use xlink:href="#LiberationSans-30" transform="translate(0 0.171875)"/>
       <use xlink:href="#LiberationSans-2e" transform="translate(55.615234 0.171875)"/>
       <use xlink:href="#LiberationSans-35" transform="translate(83.398438 0.171875)"/>
      </g>
     </g>
    </g>
    <g id="ytick_3">
     <g id="line2d_30">
      <g>
       <use xlink:href="#m73317855fe" x="84.665625" y="470.748512" style="stroke: #000000; stroke-width: 0.8"/>
      </g>
     </g>
     <g id="text_10">
      <!-- $\mathdefault{1.0}$ -->
      <g transform="translate(39.165625 481.618824) scale(0.3 -0.3)">
       <use xlink:href="#LiberationSans-31" transform="translate(0 0.171875)"/>
       <use xlink:href="#LiberationSans-2e" transform="translate(55.615234 0.171875)"/>
       <use xlink:href="#LiberationSans-30" transform="translate(83.398438 0.171875)"/>
      </g>
     </g>
    </g>
    <g id="ytick_4">
     <g id="line2d_31">
      <g>
       <use xlink:href="#m73317855fe" x="84.665625" y="403.379336" style="stroke: #000000; stroke-width: 0.8"/>
      </g>
     </g>
     <g id="text_11">
      <!-- $\mathdefault{1.5}$ -->
      <g transform="translate(39.165625 414.249649) scale(0.3 -0.3)">
       <use xlink:href="#LiberationSans-31" transform="translate(0 0.203125)"/>
       <use xlink:href="#LiberationSans-2e" transform="translate(55.615234 0.203125)"/>
       <use xlink:href="#LiberationSans-35" transform="translate(83.398438 0.203125)"/>
      </g>
     </g>
    </g>
    <g id="ytick_5">
     <g id="line2d_32">
      <g>
       <use xlink:href="#m73317855fe" x="84.665625" y="336.01016" style="stroke: #000000; stroke-width: 0.8"/>
      </g>
     </g>
     <g id="text_12">
      <!-- $\mathdefault{2.0}$ -->
      <g transform="translate(39.165625 346.880473) scale(0.3 -0.3)">
       <use xlink:href="#LiberationSans-32" transform="translate(0 0.171875)"/>
       <use xlink:href="#LiberationSans-2e" transform="translate(55.615234 0.171875)"/>
       <use xlink:href="#LiberationSans-30" transform="translate(83.398438 0.171875)"/>
      </g>
     </g>
    </g>
    <g id="ytick_6">
     <g id="line2d_33">
      <g>
       <use xlink:href="#m73317855fe" x="84.665625" y="268.640984" style="stroke: #000000; stroke-width: 0.8"/>
      </g>
     </g>
     <g id="text_13">
      <!-- $\mathdefault{2.5}$ -->
      <g transform="translate(39.165625 279.511297) scale(0.3 -0.3)">
       <use xlink:href="#LiberationSans-32" transform="translate(0 0.171875)"/>
       <use xlink:href="#LiberationSans-2e" transform="translate(55.615234 0.171875)"/>
       <use xlink:href="#LiberationSans-35" transform="translate(83.398438 0.171875)"/>
      </g>
     </g>
    </g>
    <g id="ytick_7">
     <g id="line2d_34">
      <g>
       <use xlink:href="#m73317855fe" x="84.665625" y="201.271809" style="stroke: #000000; stroke-width: 0.8"/>
      </g>
     </g>
     <g id="text_14">
      <!-- $\mathdefault{3.0}$ -->
      <g transform="translate(39.165625 212.142121) scale(0.3 -0.3)">
       <defs>
        <path id="LiberationSans-33" d="M 3278 1216 
Q 3278 606 2890 271 
Q 2503 -63 1784 -63 
Q 1116 -63 717 239 
Q 319 541 244 1131 
L 825 1184 
Q 938 403 1784 403 
Q 2209 403 2451 612 
Q 2694 822 2694 1234 
Q 2694 1594 2417 1795 
Q 2141 1997 1619 1997 
L 1300 1997 
L 1300 2484 
L 1606 2484 
Q 2069 2484 2323 2686 
Q 2578 2888 2578 3244 
Q 2578 3597 2370 3801 
Q 2163 4006 1753 4006 
Q 1381 4006 1151 3815 
Q 922 3625 884 3278 
L 319 3322 
Q 381 3863 767 4166 
Q 1153 4469 1759 4469 
Q 2422 4469 2789 4161 
Q 3156 3853 3156 3303 
Q 3156 2881 2920 2617 
Q 2684 2353 2234 2259 
L 2234 2247 
Q 2728 2194 3003 1916 
Q 3278 1638 3278 1216 
z
" transform="scale(0.015625)"/>
       </defs>
       <use xlink:href="#LiberationSans-33" transform="translate(0 0.171875)"/>
       <use xlink:href="#LiberationSans-2e" transform="translate(55.615234 0.171875)"/>
       <use xlink:href="#LiberationSans-30" transform="translate(83.398438 0.171875)"/>
      </g>
     </g>
    </g>
    <g id="ytick_8">
     <g id="line2d_35">
      <g>
       <use xlink:href="#m73317855fe" x="84.665625" y="133.902633" style="stroke: #000000; stroke-width: 0.8"/>
      </g>
     </g>
     <g id="text_15">
      <!-- $\mathdefault{3.5}$ -->
      <g transform="translate(39.165625 144.772945) scale(0.3 -0.3)">
       <use xlink:href="#LiberationSans-33" transform="translate(0 0.171875)"/>
       <use xlink:href="#LiberationSans-2e" transform="translate(55.615234 0.171875)"/>
       <use xlink:href="#LiberationSans-35" transform="translate(83.398438 0.171875)"/>
      </g>
     </g>
    </g>
    <g id="ytick_9">
     <g id="line2d_36">
      <g>
       <use xlink:href="#m73317855fe" x="84.665625" y="66.533457" style="stroke: #000000; stroke-width: 0.8"/>
      </g>
     </g>
     <g id="text_16">
      <!-- $\mathdefault{4.0}$ -->
      <g transform="translate(39.165625 77.403769) scale(0.3 -0.3)">
       <defs>
        <path id="LiberationSans-34" d="M 2753 997 
L 2753 0 
L 2222 0 
L 2222 997 
L 147 997 
L 147 1434 
L 2163 4403 
L 2753 4403 
L 2753 1441 
L 3372 1441 
L 3372 997 
L 2753 997 
z
M 2222 3769 
Q 2216 3750 2134 3603 
Q 2053 3456 2013 3397 
L 884 1734 
L 716 1503 
L 666 1441 
L 2222 1441 
L 2222 3769 
z
" transform="scale(0.015625)"/>
       </defs>
       <use xlink:href="#LiberationSans-34" transform="translate(0 0.171875)"/>
       <use xlink:href="#LiberationSans-2e" transform="translate(55.615234 0.171875)"/>
       <use xlink:href="#LiberationSans-30" transform="translate(83.398438 0.171875)"/>
      </g>
     </g>
    </g>
    <g id="ytick_10">
     <g id="line2d_37">
      <defs>
       <path id="m9720790c79" d="M 0 0 
L 2 0 
" style="stroke: #000000; stroke-width: 0.6"/>
      </defs>
      <g>
       <use xlink:href="#m9720790c79" x="84.665625" y="632.434534" style="stroke: #000000; stroke-width: 0.6"/>
      </g>
     </g>
    </g>
    <g id="ytick_11">
     <g id="line2d_38">
      <g>
       <use xlink:href="#m9720790c79" x="84.665625" y="618.960699" style="stroke: #000000; stroke-width: 0.6"/>
      </g>
     </g>
    </g>
    <g id="ytick_12">
     <g id="line2d_39">
      <g>
       <use xlink:href="#m9720790c79" x="84.665625" y="592.013028" style="stroke: #000000; stroke-width: 0.6"/>
      </g>
     </g>
    </g>
    <g id="ytick_13">
     <g id="line2d_40">
      <g>
       <use xlink:href="#m9720790c79" x="84.665625" y="578.539193" style="stroke: #000000; stroke-width: 0.6"/>
      </g>
     </g>
    </g>
    <g id="ytick_14">
     <g id="line2d_41">
      <g>
       <use xlink:href="#m9720790c79" x="84.665625" y="565.065358" style="stroke: #000000; stroke-width: 0.6"/>
      </g>
     </g>
    </g>
    <g id="ytick_15">
     <g id="line2d_42">
      <g>
       <use xlink:href="#m9720790c79" x="84.665625" y="551.591523" style="stroke: #000000; stroke-width: 0.6"/>
      </g>
     </g>
    </g>
    <g id="ytick_16">
     <g id="line2d_43">
      <g>
       <use xlink:href="#m9720790c79" x="84.665625" y="524.643853" style="stroke: #000000; stroke-width: 0.6"/>
      </g>
     </g>
    </g>
    <g id="ytick_17">
     <g id="line2d_44">
      <g>
       <use xlink:href="#m9720790c79" x="84.665625" y="511.170017" style="stroke: #000000; stroke-width: 0.6"/>
      </g>
     </g>
    </g>
    <g id="ytick_18">
     <g id="line2d_45">
      <g>
       <use xlink:href="#m9720790c79" x="84.665625" y="497.696182" style="stroke: #000000; stroke-width: 0.6"/>
      </g>
     </g>
    </g>
    <g id="ytick_19">
     <g id="line2d_46">
      <g>
       <use xlink:href="#m9720790c79" x="84.665625" y="484.222347" style="stroke: #000000; stroke-width: 0.6"/>
      </g>
     </g>
    </g>
    <g id="ytick_20">
     <g id="line2d_47">
      <g>
       <use xlink:href="#m9720790c79" x="84.665625" y="457.274677" style="stroke: #000000; stroke-width: 0.6"/>
      </g>
     </g>
    </g>
    <g id="ytick_21">
     <g id="line2d_48">
      <g>
       <use xlink:href="#m9720790c79" x="84.665625" y="443.800842" style="stroke: #000000; stroke-width: 0.6"/>
      </g>
     </g>
    </g>
    <g id="ytick_22">
     <g id="line2d_49">
      <g>
       <use xlink:href="#m9720790c79" x="84.665625" y="430.327006" style="stroke: #000000; stroke-width: 0.6"/>
      </g>
     </g>
    </g>
    <g id="ytick_23">
     <g id="line2d_50">
      <g>
       <use xlink:href="#m9720790c79" x="84.665625" y="416.853171" style="stroke: #000000; stroke-width: 0.6"/>
      </g>
     </g>
    </g>
    <g id="ytick_24">
     <g id="line2d_51">
      <g>
       <use xlink:href="#m9720790c79" x="84.665625" y="389.905501" style="stroke: #000000; stroke-width: 0.6"/>
      </g>
     </g>
    </g>
    <g id="ytick_25">
     <g id="line2d_52">
      <g>
       <use xlink:href="#m9720790c79" x="84.665625" y="376.431666" style="stroke: #000000; stroke-width: 0.6"/>
      </g>
     </g>
    </g>
    <g id="ytick_26">
     <g id="line2d_53">
      <g>
       <use xlink:href="#m9720790c79" x="84.665625" y="362.957831" style="stroke: #000000; stroke-width: 0.6"/>
      </g>
     </g>
    </g>
    <g id="ytick_27">
     <g id="line2d_54">
      <g>
       <use xlink:href="#m9720790c79" x="84.665625" y="349.483995" style="stroke: #000000; stroke-width: 0.6"/>
      </g>
     </g>
    </g>
    <g id="ytick_28">
     <g id="line2d_55">
      <g>
       <use xlink:href="#m9720790c79" x="84.665625" y="322.536325" style="stroke: #000000; stroke-width: 0.6"/>
      </g>
     </g>
    </g>
    <g id="ytick_29">
     <g id="line2d_56">
      <g>
       <use xlink:href="#m9720790c79" x="84.665625" y="309.06249" style="stroke: #000000; stroke-width: 0.6"/>
      </g>
     </g>
    </g>
    <g id="ytick_30">
     <g id="line2d_57">
      <g>
       <use xlink:href="#m9720790c79" x="84.665625" y="295.588655" style="stroke: #000000; stroke-width: 0.6"/>
      </g>
     </g>
    </g>
    <g id="ytick_31">
     <g id="line2d_58">
      <g>
       <use xlink:href="#m9720790c79" x="84.665625" y="282.11482" style="stroke: #000000; stroke-width: 0.6"/>
      </g>
     </g>
    </g>
    <g id="ytick_32">
     <g id="line2d_59">
      <g>
       <use xlink:href="#m9720790c79" x="84.665625" y="255.167149" style="stroke: #000000; stroke-width: 0.6"/>
      </g>
     </g>
    </g>
    <g id="ytick_33">
     <g id="line2d_60">
      <g>
       <use xlink:href="#m9720790c79" x="84.665625" y="241.693314" style="stroke: #000000; stroke-width: 0.6"/>
      </g>
     </g>
    </g>
    <g id="ytick_34">
     <g id="line2d_61">
      <g>
       <use xlink:href="#m9720790c79" x="84.665625" y="228.219479" style="stroke: #000000; stroke-width: 0.6"/>
      </g>
     </g>
    </g>
    <g id="ytick_35">
     <g id="line2d_62">
      <g>
       <use xlink:href="#m9720790c79" x="84.665625" y="214.745644" style="stroke: #000000; stroke-width: 0.6"/>
      </g>
     </g>
    </g>
    <g id="ytick_36">
     <g id="line2d_63">
      <g>
       <use xlink:href="#m9720790c79" x="84.665625" y="187.797973" style="stroke: #000000; stroke-width: 0.6"/>
      </g>
     </g>
    </g>
    <g id="ytick_37">
     <g id="line2d_64">
      <g>
       <use xlink:href="#m9720790c79" x="84.665625" y="174.324138" style="stroke: #000000; stroke-width: 0.6"/>
      </g>
     </g>
    </g>
    <g id="ytick_38">
     <g id="line2d_65">
      <g>
       <use xlink:href="#m9720790c79" x="84.665625" y="160.850303" style="stroke: #000000; stroke-width: 0.6"/>
      </g>
     </g>
    </g>
    <g id="ytick_39">
     <g id="line2d_66">
      <g>
       <use xlink:href="#m9720790c79" x="84.665625" y="147.376468" style="stroke: #000000; stroke-width: 0.6"/>
      </g>
     </g>
    </g>
    <g id="ytick_40">
     <g id="line2d_67">
      <g>
       <use xlink:href="#m9720790c79" x="84.665625" y="120.428798" style="stroke: #000000; stroke-width: 0.6"/>
      </g>
     </g>
    </g>
    <g id="ytick_41">
     <g id="line2d_68">
      <g>
       <use xlink:href="#m9720790c79" x="84.665625" y="106.954962" style="stroke: #000000; stroke-width: 0.6"/>
      </g>
     </g>
    </g>
    <g id="ytick_42">
     <g id="line2d_69">
      <g>
       <use xlink:href="#m9720790c79" x="84.665625" y="93.481127" style="stroke: #000000; stroke-width: 0.6"/>
      </g>
     </g>
    </g>
    <g id="ytick_43">
     <g id="line2d_70">
      <g>
       <use xlink:href="#m9720790c79" x="84.665625" y="80.007292" style="stroke: #000000; stroke-width: 0.6"/>
      </g>
     </g>
    </g>
    <g id="ytick_44">
     <g id="line2d_71">
      <g>
       <use xlink:href="#m9720790c79" x="84.665625" y="53.059622" style="stroke: #000000; stroke-width: 0.6"/>
      </g>
     </g>
    </g>
    <g id="ytick_45">
     <g id="line2d_72">
      <g>
       <use xlink:href="#m9720790c79" x="84.665625" y="39.585787" style="stroke: #000000; stroke-width: 0.6"/>
      </g>
     </g>
    </g>
    <g id="text_17">
     <!-- Probability Density -->
     <g transform="translate(28.940625 460.034562) rotate(-90) scale(0.3 -0.3)">
      <defs>
       <path id="LiberationSans-50" d="M 3931 3078 
Q 3931 2453 3523 2084 
Q 3116 1716 2416 1716 
L 1122 1716 
L 1122 0 
L 525 0 
L 525 4403 
L 2378 4403 
Q 3119 4403 3525 4056 
Q 3931 3709 3931 3078 
z
M 3331 3072 
Q 3331 3925 2306 3925 
L 1122 3925 
L 1122 2188 
L 2331 2188 
Q 3331 2188 3331 3072 
z
" transform="scale(0.015625)"/>
       <path id="LiberationSans-72" d="M 444 0 
L 444 2594 
Q 444 2950 425 3381 
L 956 3381 
Q 981 2806 981 2691 
L 994 2691 
Q 1128 3125 1303 3284 
Q 1478 3444 1797 3444 
Q 1909 3444 2025 3413 
L 2025 2897 
Q 1913 2928 1725 2928 
Q 1375 2928 1190 2626 
Q 1006 2325 1006 1763 
L 1006 0 
L 444 0 
z
" transform="scale(0.015625)"/>
       <path id="LiberationSans-6f" d="M 3291 1694 
Q 3291 806 2900 371 
Q 2509 -63 1766 -63 
Q 1025 -63 647 389 
Q 269 841 269 1694 
Q 269 3444 1784 3444 
Q 2559 3444 2925 3017 
Q 3291 2591 3291 1694 
z
M 2700 1694 
Q 2700 2394 2492 2711 
Q 2284 3028 1794 3028 
Q 1300 3028 1079 2704 
Q 859 2381 859 1694 
Q 859 1025 1076 689 
Q 1294 353 1759 353 
Q 2266 353 2483 678 
Q 2700 1003 2700 1694 
z
" transform="scale(0.015625)"/>
       <path id="LiberationSans-62" d="M 3291 1706 
Q 3291 -63 2047 -63 
Q 1663 -63 1408 76 
Q 1153 216 994 525 
L 988 525 
Q 988 428 975 229 
Q 963 31 956 0 
L 413 0 
Q 431 169 431 697 
L 431 4638 
L 994 4638 
L 994 3316 
Q 994 3113 981 2838 
L 994 2838 
Q 1150 3163 1408 3303 
Q 1666 3444 2047 3444 
Q 2688 3444 2989 3012 
Q 3291 2581 3291 1706 
z
M 2700 1688 
Q 2700 2397 2512 2703 
Q 2325 3009 1903 3009 
Q 1428 3009 1211 2684 
Q 994 2359 994 1653 
Q 994 988 1206 670 
Q 1419 353 1897 353 
Q 2322 353 2511 667 
Q 2700 981 2700 1688 
z
" transform="scale(0.015625)"/>
       <path id="LiberationSans-69" d="M 428 4100 
L 428 4638 
L 991 4638 
L 991 4100 
L 428 4100 
z
M 428 0 
L 428 3381 
L 991 3381 
L 991 0 
L 428 0 
z
" transform="scale(0.015625)"/>
       <path id="LiberationSans-79" d="M 597 -1328 
Q 366 -1328 209 -1294 
L 209 -872 
Q 328 -891 472 -891 
Q 997 -891 1303 -119 
L 1356 16 
L 16 3381 
L 616 3381 
L 1328 1513 
Q 1344 1469 1366 1408 
Q 1388 1347 1506 1000 
Q 1625 653 1634 613 
L 1853 1228 
L 2594 3381 
L 3188 3381 
L 1888 0 
Q 1678 -541 1497 -805 
Q 1316 -1069 1095 -1198 
Q 875 -1328 597 -1328 
z
" transform="scale(0.015625)"/>
       <path id="LiberationSans-44" d="M 4316 2247 
Q 4316 1566 4050 1055 
Q 3784 544 3296 272 
Q 2809 0 2172 0 
L 525 0 
L 525 4403 
L 1981 4403 
Q 3100 4403 3708 3842 
Q 4316 3281 4316 2247 
z
M 3716 2247 
Q 3716 3066 3267 3495 
Q 2819 3925 1969 3925 
L 1122 3925 
L 1122 478 
L 2103 478 
Q 2588 478 2955 690 
Q 3322 903 3519 1303 
Q 3716 1703 3716 2247 
z
" transform="scale(0.015625)"/>
       <path id="LiberationSans-6e" d="M 2578 0 
L 2578 2144 
Q 2578 2478 2512 2662 
Q 2447 2847 2303 2928 
Q 2159 3009 1881 3009 
Q 1475 3009 1240 2731 
Q 1006 2453 1006 1959 
L 1006 0 
L 444 0 
L 444 2659 
Q 444 3250 425 3381 
L 956 3381 
Q 959 3366 962 3297 
Q 966 3228 970 3139 
Q 975 3050 981 2803 
L 991 2803 
Q 1184 3153 1439 3298 
Q 1694 3444 2072 3444 
Q 2628 3444 2886 3167 
Q 3144 2891 3144 2253 
L 3144 0 
L 2578 0 
z
" transform="scale(0.015625)"/>
       <path id="LiberationSans-73" d="M 2969 934 
Q 2969 456 2608 196 
Q 2247 -63 1597 -63 
Q 966 -63 623 145 
Q 281 353 178 794 
L 675 891 
Q 747 619 972 492 
Q 1197 366 1597 366 
Q 2025 366 2223 497 
Q 2422 628 2422 891 
Q 2422 1091 2284 1216 
Q 2147 1341 1841 1422 
L 1438 1528 
Q 953 1653 748 1773 
Q 544 1894 428 2066 
Q 313 2238 313 2488 
Q 313 2950 642 3192 
Q 972 3434 1603 3434 
Q 2163 3434 2492 3237 
Q 2822 3041 2909 2606 
L 2403 2544 
Q 2356 2769 2151 2889 
Q 1947 3009 1603 3009 
Q 1222 3009 1040 2893 
Q 859 2778 859 2544 
Q 859 2400 934 2306 
Q 1009 2213 1156 2147 
Q 1303 2081 1775 1966 
Q 2222 1853 2419 1758 
Q 2616 1663 2730 1547 
Q 2844 1431 2906 1279 
Q 2969 1128 2969 934 
z
" transform="scale(0.015625)"/>
      </defs>
      <use xlink:href="#LiberationSans-50"/>
      <use xlink:href="#LiberationSans-72" x="66.699219"/>
      <use xlink:href="#LiberationSans-6f" x="100"/>
      <use xlink:href="#LiberationSans-62" x="155.615234"/>
      <use xlink:href="#LiberationSans-61" x="211.230469"/>
      <use xlink:href="#LiberationSans-62" x="266.845703"/>
      <use xlink:href="#LiberationSans-69" x="322.460938"/>
      <use xlink:href="#LiberationSans-6c" x="344.677734"/>
      <use xlink:href="#LiberationSans-69" x="366.894531"/>
      <use xlink:href="#LiberationSans-74" x="389.111328"/>
      <use xlink:href="#LiberationSans-79" x="416.894531"/>
      <use xlink:href="#LiberationSans-20" x="466.894531"/>
      <use xlink:href="#LiberationSans-44" x="494.677734"/>
      <use xlink:href="#LiberationSans-65" x="566.894531"/>
      <use xlink:href="#LiberationSans-6e" x="622.509766"/>
      <use xlink:href="#LiberationSans-73" x="678.125"/>
      <use xlink:href="#LiberationSans-69" x="728.125"/>
      <use xlink:href="#LiberationSans-74" x="750.341797"/>
      <use xlink:href="#LiberationSans-79" x="778.125"/>
     </g>
    </g>
    <g id="text_18">
     <!-- $\times\mathdefault{10^{−10}}\mathdefault{}$ -->
     <g transform="translate(84.665625 36.1875) scale(0.4 -0.4)">
      <use xlink:href="#STIXGeneral-Regular-d7" transform="translate(0 0.140625)"/>
      <use xlink:href="#LiberationSans-31" transform="translate(63.999985 0.140625)"/>
      <use xlink:href="#LiberationSans-30" transform="translate(119.615219 0.140625)"/>
      <use xlink:href="#LiberationSans-2212" transform="translate(176.154946 37.120312) scale(0.7)"/>
      <use xlink:href="#LiberationSans-31" transform="translate(217.033852 37.120312) scale(0.7)"/>
      <use xlink:href="#LiberationSans-30" transform="translate(255.964516 37.120312) scale(0.7)"/>
     </g>
    </g>
   </g>
   <g id="line2d_73">
    <path d="M 269.595877 605.482653 
L 287.153741 605.484758 
L 326.78435 605.302656 
L 335.814109 604.898452 
L 336.817416 604.745822 
L 337.319069 604.741612 
L 337.820722 604.623719 
L 338.322376 604.645824 
L 339.325682 604.392144 
L 342.335602 603.901625 
L 343.338908 603.639524 
L 344.342215 603.341634 
L 346.348828 602.549014 
L 347.352135 602.131126 
L 348.857094 601.490083 
L 349.860401 601.146931 
L 350.362054 600.590097 
L 350.863707 600.266944 
L 352.870321 598.280659 
L 353.371974 597.963822 
L 355.378587 595.433335 
L 356.381894 593.802833 
L 357.3852 591.88181 
L 358.388507 590.324992 
L 359.391813 588.273445 
L 360.39512 585.632433 
L 362.401733 579.316741 
L 363.405039 575.881005 
L 365.913306 564.9717 
L 367.919919 552.126635 
L 368.421572 548.985631 
L 368.923225 544.580435 
L 369.424879 541.163646 
L 370.428185 532.239573 
L 372.434798 510.362016 
L 374.943065 476.145702 
L 377.451331 434.706342 
L 377.952984 423.227572 
L 378.454638 415.223485 
L 381.966211 330.912155 
L 382.969517 305.377812 
L 387.484397 180.106062 
L 388.989356 142.422433 
L 389.49101 128.822643 
L 391.999276 87.689593 
L 392.500929 83.269662 
L 393.504236 70.467754 
L 394.005889 67.198331 
L 394.507543 68.132001 
L 395.009196 66.154136 
L 396.012502 71.333004 
L 397.015809 78.231845 
L 398.019115 91.257959 
L 399.022422 106.758773 
L 399.524075 120.078567 
L 400.025729 129.736313 
L 402.032342 181.624985 
L 403.537301 223.863281 
L 404.540608 252.548101 
L 406.045568 291.280135 
L 408.553834 356.692809 
L 411.062101 413.257199 
L 412.56706 442.519906 
L 414.573674 477.326737 
L 416.580287 503.750539 
L 417.583593 515.262993 
L 419.590206 535.971095 
L 421.596819 552.048741 
L 423.101779 561.30123 
L 424.105086 567.164297 
L 427.616659 581.585127 
L 428.118312 582.771425 
L 428.619965 584.701921 
L 430.626578 589.746054 
L 431.629885 591.591289 
L 432.633191 593.325999 
L 434.138151 595.836486 
L 435.141458 596.799629 
L 437.148071 599.038542 
L 439.656337 601.033248 
L 440.157991 601.097458 
L 441.66295 601.909024 
L 442.164604 602.316386 
L 443.669564 602.826905 
L 444.67287 603.069006 
L 445.174523 603.359528 
L 445.676177 603.365844 
L 446.17783 603.599524 
L 446.679483 603.572156 
L 448.184443 604.000571 
L 448.686096 604.037412 
L 449.18775 604.218462 
L 449.689403 604.223725 
L 450.191056 604.40688 
L 452.197669 604.462669 
L 453.200976 604.731086 
L 454.705936 604.840558 
L 455.709242 604.961609 
L 457.214202 605.015292 
L 458.217509 605.132132 
L 459.722468 605.137395 
L 462.732388 605.239499 
L 466.745614 605.342655 
L 470.257187 605.392128 
L 471.762147 605.411075 
L 474.270413 605.440549 
L 519.920861 605.486864 
L 519.920861 605.486864 
" clip-path="url(#p076b3d2163)" style="fill: none; stroke: #fdcab5; stroke-opacity: 0.9; stroke-width: 2.5; stroke-linecap: square"/>
   </g>
   <g id="line2d_74">
    <path d="M 255.276178 605.486864 
L 304.472301 605.383908 
L 307.267536 605.339514 
L 313.976098 605.205388 
L 315.094192 605.093931 
L 324.038941 604.631101 
L 324.597988 604.450692 
L 325.716082 604.31751 
L 327.393222 604.121044 
L 327.952269 603.899074 
L 329.070363 603.746057 
L 331.306551 603.125488 
L 331.865597 603.101874 
L 332.983691 602.585205 
L 334.660832 601.684104 
L 335.219879 601.61893 
L 338.57416 599.982024 
L 340.2513 598.882567 
L 341.369394 597.933294 
L 341.928441 597.300445 
L 343.046535 596.676098 
L 346.400816 592.923399 
L 348.637003 589.20187 
L 351.991284 582.106408 
L 352.550331 580.501617 
L 353.109378 579.496615 
L 355.904612 570.916319 
L 357.022706 566.593112 
L 358.699847 560.152223 
L 360.936034 548.607928 
L 361.495081 544.920404 
L 362.054128 542.334225 
L 363.172222 535.618471 
L 363.731268 531.320767 
L 364.290315 528.403051 
L 364.849362 523.356318 
L 365.408409 520.19113 
L 367.08555 506.732231 
L 368.203643 496.985416 
L 370.439831 476.054179 
L 372.676018 452.848465 
L 374.912206 426.622079 
L 375.471252 421.270257 
L 376.030299 412.059946 
L 377.148393 399.629663 
L 378.266487 384.41579 
L 379.38458 370.830322 
L 379.943627 364.936327 
L 381.061721 346.529874 
L 382.179815 334.734329 
L 383.297909 318.291595 
L 383.856955 311.306645 
L 384.416002 306.13901 
L 384.975049 298.831024 
L 386.65219 283.97608 
L 387.770283 271.477789 
L 388.888377 261.344652 
L 389.447424 255.906876 
L 390.006471 251.793359 
L 390.565518 249.13445 
L 391.124565 244.365415 
L 391.683611 241.848188 
L 392.801705 238.565875 
L 393.360752 237.351183 
L 393.919799 235.86635 
L 394.478846 235.529146 
L 396.155986 238.841684 
L 396.715033 240.685446 
L 397.27408 241.877469 
L 397.833127 245.903143 
L 398.392174 246.434925 
L 398.951221 251.102893 
L 399.510267 252.776636 
L 400.628361 261.986002 
L 401.187408 265.403385 
L 403.982642 294.287736 
L 407.89597 340.296786 
L 411.809298 391.622709 
L 412.368345 397.577155 
L 415.16358 434.334333 
L 416.84072 452.626496 
L 419.076908 476.780539 
L 422.431189 506.425253 
L 422.990236 512.404257 
L 425.78547 532.004622 
L 426.903564 538.793105 
L 428.021657 545.649597 
L 429.139751 552.274673 
L 430.816892 559.697894 
L 431.375938 561.759848 
L 431.934985 564.775797 
L 432.494032 566.323915 
L 433.053079 568.875146 
L 433.612126 570.413819 
L 435.848313 577.791702 
L 438.643548 584.556572 
L 439.202595 585.428392 
L 441.438782 589.972624 
L 442.556876 591.86078 
L 443.115923 592.368948 
L 443.674969 593.259659 
L 446.470204 596.494744 
L 448.706391 598.515137 
L 449.265438 598.994024 
L 449.824485 599.301003 
L 450.942579 600.084035 
L 451.501625 600.460911 
L 456.533047 602.575759 
L 457.651141 602.778838 
L 458.210188 603.104708 
L 459.328281 603.260558 
L 459.887328 603.521254 
L 460.446375 603.545813 
L 462.123516 604.068149 
L 463.24161 604.185273 
L 468.273031 604.786007 
L 469.391125 604.90691 
L 470.509219 604.950359 
L 479.453968 605.345181 
L 496.784421 605.468917 
L 524.736764 605.483085 
L 534.240561 605.481196 
L 534.240561 605.481196 
" clip-path="url(#p076b3d2163)" style="fill: none; stroke: #fc9777; stroke-opacity: 0.9; stroke-width: 2.5; stroke-linecap: square"/>
   </g>
   <g id="line2d_75">
    <path d="M 231.500301 605.486864 
L 288.427964 605.383569 
L 304.786488 604.890497 
L 312.638579 604.100451 
L 314.601602 603.746182 
L 315.910284 603.532329 
L 316.564625 603.283775 
L 317.873307 603.12964 
L 319.181989 602.709197 
L 320.490671 602.446925 
L 321.799353 601.980483 
L 325.071058 600.550493 
L 326.379739 599.887953 
L 327.688421 599.110013 
L 328.342762 598.82111 
L 330.305785 597.601745 
L 330.960126 597.158706 
L 331.614467 596.551848 
L 332.268808 596.220174 
L 333.57749 594.72966 
L 334.886172 593.41507 
L 335.540513 592.807405 
L 337.503536 590.341237 
L 338.157877 589.466458 
L 338.812218 588.361686 
L 339.466559 587.506274 
L 343.392604 580.859888 
L 344.701286 577.356736 
L 345.355627 576.248736 
L 347.31865 570.849959 
L 347.972991 569.680628 
L 348.627332 567.449295 
L 349.936014 563.83397 
L 350.590355 561.53485 
L 351.244696 559.652945 
L 355.170741 544.831729 
L 355.825082 541.336647 
L 356.479423 539.337728 
L 361.05981 515.438659 
L 364.331515 495.968362 
L 365.640197 487.235095 
L 366.294538 483.957093 
L 366.948879 479.239418 
L 367.60322 473.621139 
L 368.911901 465.046849 
L 374.146629 427.402285 
L 375.455311 417.028403 
L 376.109652 410.814564 
L 376.763993 407.570456 
L 378.727016 394.55771 
L 380.690039 379.436294 
L 383.961743 358.726457 
L 385.270425 351.922708 
L 385.924766 349.195882 
L 387.887789 339.399805 
L 388.54213 337.157175 
L 389.196471 335.721536 
L 390.505153 332.10944 
L 391.159494 331.106348 
L 391.813835 329.597273 
L 392.468176 327.539444 
L 393.776858 324.758549 
L 394.431199 325.877847 
L 395.08554 324.811811 
L 395.739881 326.093314 
L 397.048562 328.112408 
L 397.702903 329.965262 
L 398.357244 329.801442 
L 399.665926 333.112531 
L 400.320267 334.367403 
L 400.974608 336.483336 
L 402.28329 343.039339 
L 402.937631 345.336846 
L 403.591972 349.291107 
L 404.246313 351.795203 
L 404.900654 355.868092 
L 405.554995 357.959008 
L 406.209336 363.349715 
L 406.863677 367.676806 
L 408.172359 374.223932 
L 409.481041 383.88282 
L 410.135382 387.751539 
L 417.333132 440.471521 
L 417.987473 446.649852 
L 419.296155 457.005174 
L 420.604837 465.372067 
L 422.56786 479.781717 
L 423.222201 484.463077 
L 424.530883 492.554786 
L 425.185223 497.244217 
L 427.148246 508.235448 
L 428.456928 516.468381 
L 429.111269 519.571265 
L 430.419951 526.325788 
L 431.074292 529.178505 
L 431.728633 532.998805 
L 432.382974 535.709492 
L 433.691656 542.101675 
L 435.000338 547.851493 
L 436.30902 552.875019 
L 438.272043 559.570632 
L 438.926384 561.433169 
L 439.580724 563.945335 
L 441.543747 569.407864 
L 442.198088 571.055742 
L 442.852429 573.206376 
L 443.50677 574.421706 
L 444.161111 576.175299 
L 444.815452 577.410804 
L 446.778475 582.076025 
L 448.087157 583.802181 
L 448.741498 585.438761 
L 449.395839 586.708966 
L 452.013203 590.436462 
L 452.667544 591.019918 
L 453.321884 592.170688 
L 454.630566 593.819373 
L 455.939248 595.099262 
L 458.556612 597.165969 
L 459.865294 598.048818 
L 460.519635 598.63308 
L 461.173976 598.880827 
L 461.828317 599.398109 
L 463.136999 599.969459 
L 465.754363 601.001602 
L 467.717385 601.70772 
L 469.026067 602.216125 
L 470.98909 602.812492 
L 472.297772 603.241005 
L 479.495523 604.371601 
L 482.767227 604.720221 
L 483.421568 604.687942 
L 484.73025 604.817867 
L 497.162728 605.30529 
L 501.088774 605.356938 
L 508.286525 605.407778 
L 522.027685 605.468303 
L 558.016437 605.482829 
L 558.016437 605.482829 
" clip-path="url(#p076b3d2163)" style="fill: none; stroke: #f96245; stroke-opacity: 0.9; stroke-width: 2.5; stroke-linecap: square"/>
   </g>
   <g id="line2d_76">
    <path d="M 209.477316 605.482597 
L 239.181693 605.485441 
L 265.915633 605.434955 
L 287.451306 605.062354 
L 288.936525 604.918007 
L 291.164354 604.832678 
L 299.333057 604.105253 
L 306.016542 603.029403 
L 308.24437 602.446325 
L 309.729589 601.972751 
L 311.214808 601.602995 
L 314.927855 600.281114 
L 316.413074 599.659638 
L 317.898293 599.009719 
L 320.126121 597.676461 
L 320.868731 597.175867 
L 321.61134 596.830998 
L 322.35395 596.2081 
L 323.096559 595.735949 
L 325.324387 593.818191 
L 326.066997 593.304087 
L 326.809606 592.275878 
L 327.552216 591.775284 
L 329.780044 589.314979 
L 331.265263 587.242207 
L 332.007872 586.615754 
L 334.235701 583.408824 
L 335.720919 580.863902 
L 336.463529 579.786629 
L 339.433967 574.40169 
L 340.176576 572.555039 
L 340.919185 571.110854 
L 342.404404 567.729001 
L 343.147014 566.298326 
L 345.374842 559.577996 
L 347.60267 553.655486 
L 348.34528 550.594326 
L 351.315717 541.128551 
L 352.800936 535.262216 
L 354.286155 529.843856 
L 355.028765 526.927044 
L 355.771374 524.496603 
L 363.197468 489.983357 
L 363.940078 486.051846 
L 364.682687 482.788031 
L 366.167906 475.439825 
L 366.910515 470.117459 
L 367.653125 467.392636 
L 368.395734 463.631071 
L 369.138344 460.61613 
L 369.880953 457.105573 
L 371.366172 448.503749 
L 372.108781 445.297531 
L 372.851391 441.394463 
L 373.594 438.240152 
L 375.821829 426.105017 
L 377.307048 420.026783 
L 378.049657 416.229665 
L 379.534876 409.777408 
L 380.277485 406.246941 
L 381.020095 404.471397 
L 383.247923 394.868385 
L 386.218361 386.23954 
L 386.96097 385.618064 
L 387.70358 382.780181 
L 388.446189 380.869533 
L 389.188798 378.534376 
L 389.931408 378.245682 
L 390.674017 377.553099 
L 391.416627 376.61804 
L 392.159236 375.42273 
L 392.901846 374.67895 
L 393.644455 374.697438 
L 394.387064 374.947024 
L 395.129674 374.276484 
L 395.872283 372.900562 
L 396.614893 373.628698 
L 397.357502 375.585566 
L 398.100112 375.52228 
L 398.842721 376.974998 
L 399.58533 378.129777 
L 401.070549 381.355906 
L 401.813159 382.061288 
L 402.555768 384.149703 
L 403.298378 385.832097 
L 404.040987 387.234328 
L 404.783596 389.629215 
L 405.526206 392.535362 
L 406.268815 394.648664 
L 407.011425 397.446017 
L 407.754034 399.667402 
L 410.724472 412.950206 
L 412.209691 419.42024 
L 412.9523 423.248645 
L 414.437519 430.121145 
L 419.635785 455.571794 
L 421.863613 467.648621 
L 422.606223 470.682761 
L 424.091442 478.976691 
L 427.061879 493.284148 
L 427.804489 495.766496 
L 428.547098 499.310473 
L 430.032317 507.419526 
L 430.774927 510.475708 
L 433.002755 520.875831 
L 433.745364 523.649007 
L 434.487974 527.148898 
L 435.230583 529.427169 
L 436.715802 536.099147 
L 439.68624 546.997019 
L 445.627115 564.037832 
L 446.369725 565.710271 
L 447.854943 569.60125 
L 451.567991 577.334146 
L 454.538428 582.567628 
L 456.766257 585.675718 
L 457.508866 586.595133 
L 458.994085 588.726923 
L 459.736694 589.26236 
L 461.964523 591.985761 
L 462.707132 592.467867 
L 463.449742 593.345329 
L 467.162789 596.464797 
L 467.905398 596.785489 
L 469.390617 597.852096 
L 470.133226 598.262384 
L 470.875836 598.873194 
L 471.618445 599.09007 
L 473.846274 600.286091 
L 474.588883 600.325911 
L 476.074102 601.091024 
L 476.816711 601.262392 
L 478.30193 601.755164 
L 481.272368 602.621959 
L 487.213243 603.741896 
L 495.381947 604.593759 
L 497.609775 604.683354 
L 499.837604 604.907341 
L 500.580213 604.855433 
L 501.322822 604.996225 
L 502.808041 605.037467 
L 508.006307 605.247233 
L 513.947183 605.328295 
L 519.888058 605.402246 
L 523.601105 605.409357 
L 555.533311 605.48473 
L 580.039422 605.486864 
L 580.039422 605.486864 
" clip-path="url(#p076b3d2163)" style="fill: none; stroke: #de2b25; stroke-opacity: 0.9; stroke-width: 2.5; stroke-linecap: square"/>
   </g>
   <g id="line2d_77">
    <path d="M 193.811848 605.486864 
L 265.49217 605.144621 
L 269.519155 605.003659 
L 276.767726 604.614211 
L 278.37852 604.471938 
L 285.627092 603.78483 
L 291.26487 602.883985 
L 292.070267 602.547643 
L 292.875664 602.485358 
L 293.681061 602.294567 
L 294.486458 602.220481 
L 295.291855 601.893973 
L 296.902648 601.516982 
L 301.73503 600.004428 
L 303.345823 599.359937 
L 304.15122 599.106861 
L 306.567411 597.823124 
L 307.372808 597.217315 
L 308.178205 597.004889 
L 309.788998 596.092898 
L 310.594395 595.465453 
L 313.815983 593.643438 
L 315.426777 592.104003 
L 317.842967 590.210523 
L 318.648364 589.25985 
L 319.453761 588.857289 
L 320.259158 587.762375 
L 321.064555 587.074612 
L 322.675349 585.120814 
L 323.480745 584.283566 
L 324.286142 583.049001 
L 326.702333 580.456613 
L 328.313127 577.976994 
L 329.118524 577.21121 
L 329.92392 575.441646 
L 331.534714 573.143639 
L 333.145508 569.831361 
L 333.950905 568.503041 
L 334.756302 566.794451 
L 335.561699 565.513992 
L 337.172492 562.350544 
L 337.977889 560.772426 
L 341.199477 552.504188 
L 342.004874 551.324042 
L 346.031858 540.773533 
L 346.837255 537.890697 
L 349.253446 531.251062 
L 350.058842 528.65015 
L 351.669636 524.758945 
L 352.475033 522.038708 
L 353.28043 518.923121 
L 354.085827 516.787712 
L 354.891224 514.303503 
L 356.502017 508.634867 
L 357.307414 506.025432 
L 358.112811 504.07819 
L 358.918208 501.285832 
L 359.723605 497.32513 
L 360.529002 494.855345 
L 361.334399 491.986278 
L 362.139796 489.641065 
L 362.945192 486.871655 
L 363.750589 484.688384 
L 364.555986 481.147944 
L 365.361383 478.650623 
L 366.16678 475.529136 
L 366.972177 473.263255 
L 369.388367 465.770636 
L 370.999161 461.563414 
L 373.415352 453.91672 
L 375.026146 449.402005 
L 379.05313 438.284369 
L 379.858527 436.057826 
L 380.663924 434.623948 
L 382.274718 431.094655 
L 383.885511 429.19003 
L 384.690908 426.448156 
L 385.496305 425.353242 
L 386.301702 424.559922 
L 387.107099 422.532692 
L 387.912496 421.789856 
L 388.717893 420.809023 
L 389.523289 420.535622 
L 390.328686 419.609863 
L 391.134083 419.327939 
L 391.93948 419.68395 
L 392.744877 417.918975 
L 395.161068 417.510514 
L 395.966464 417.565587 
L 396.771861 418.568056 
L 397.577258 419.119447 
L 398.382655 419.531842 
L 399.188052 420.329097 
L 399.993449 420.111425 
L 400.798846 421.075212 
L 401.604243 421.484329 
L 402.409639 423.110964 
L 403.215036 424.396668 
L 404.020433 425.182121 
L 404.82583 426.305883 
L 405.631227 427.732549 
L 406.436624 429.604392 
L 408.047418 434.265315 
L 408.852815 435.209432 
L 409.658211 436.5607 
L 411.269005 440.914785 
L 412.074402 443.146573 
L 412.879799 444.366057 
L 413.685196 447.234469 
L 415.29599 451.031262 
L 417.71218 458.48651 
L 418.517577 460.499315 
L 419.322974 463.073346 
L 420.128371 465.244815 
L 420.933768 468.879011 
L 421.739165 471.860192 
L 423.349958 476.003161 
L 424.155355 478.52343 
L 424.960752 482.438893 
L 427.376943 489.681714 
L 428.18234 492.710757 
L 430.59853 500.500379 
L 433.014721 508.882042 
L 433.820118 511.038431 
L 438.652499 526.597351 
L 439.457896 528.699323 
L 440.263293 531.43923 
L 441.06869 533.604799 
L 441.874087 536.337493 
L 442.679483 538.625666 
L 443.48488 540.367038 
L 446.706468 549.183387 
L 449.122658 555.21328 
L 450.733452 558.545227 
L 452.344246 562.345954 
L 453.95504 565.134378 
L 456.37123 570.382752 
L 458.787421 574.022848 
L 462.009008 579.644279 
L 462.814405 580.70051 
L 463.619802 581.228298 
L 464.425199 582.346814 
L 465.230596 583.666611 
L 466.035993 584.314381 
L 466.84139 585.416506 
L 467.646787 586.011825 
L 469.25758 587.940708 
L 470.062977 588.60159 
L 470.868374 589.573244 
L 474.089962 592.325608 
L 474.895359 592.742593 
L 476.506152 594.247936 
L 477.311549 594.859645 
L 478.116946 595.258928 
L 479.72774 596.319093 
L 480.533137 596.706574 
L 482.14393 597.627744 
L 486.170915 599.475329 
L 486.976312 599.586131 
L 488.587105 600.369617 
L 489.392502 600.492877 
L 490.197899 600.891504 
L 494.224884 602.048704 
L 495.030281 602.245395 
L 495.835677 602.268342 
L 496.641074 602.525352 
L 499.057265 602.907588 
L 499.862662 603.194757 
L 502.278852 603.439965 
L 505.50044 603.885798 
L 517.581393 604.854174 
L 519.997584 604.942685 
L 530.467743 605.282961 
L 568.321396 605.483585 
L 595.70489 605.483585 
L 595.70489 605.483585 
" clip-path="url(#p076b3d2163)" style="fill: none; stroke: #af1117; stroke-opacity: 0.9; stroke-width: 2.5; stroke-linecap: square"/>
   </g>
   <g id="line2d_78">
    <path d="M 112.855874 605.486864 
L 198.725973 605.384513 
L 205.505191 605.308335 
L 228.102586 604.820886 
L 237.141543 604.346522 
L 247.310371 603.524449 
L 248.440241 603.309466 
L 251.82985 603.030457 
L 252.95972 602.81267 
L 254.089589 602.731818 
L 255.219459 602.46496 
L 258.609068 602.142953 
L 259.738938 601.807861 
L 264.258417 600.982516 
L 266.518156 600.292236 
L 267.648026 600.05669 
L 269.907765 599.383702 
L 271.037635 599.233681 
L 272.167505 598.908871 
L 273.297374 598.440116 
L 274.427244 598.226536 
L 276.686984 597.319871 
L 278.946723 596.60856 
L 280.076593 595.977166 
L 281.206462 595.772466 
L 282.336332 595.067697 
L 283.466202 594.557348 
L 284.596072 594.182998 
L 285.725941 593.428691 
L 286.855811 592.975826 
L 294.764899 588.634584 
L 295.894769 587.652208 
L 298.154508 586.350163 
L 299.284378 585.337877 
L 301.544117 583.782993 
L 302.673987 582.646391 
L 303.803857 581.795809 
L 304.933727 580.623688 
L 307.193466 578.631829 
L 308.323336 577.673756 
L 309.453205 576.367504 
L 310.583075 575.396812 
L 313.972684 571.511707 
L 316.232424 569.431052 
L 317.362293 567.789709 
L 318.492163 566.604969 
L 319.622033 564.944464 
L 320.751903 563.954143 
L 321.881772 562.59882 
L 323.011642 560.847648 
L 325.271381 558.25197 
L 332.0506 548.917997 
L 333.18047 546.900434 
L 334.310339 545.495104 
L 336.570079 541.807689 
L 337.699948 540.744462 
L 338.829818 538.51846 
L 343.349297 531.792316 
L 344.479167 530.337914 
L 345.609036 528.282028 
L 346.738906 526.913619 
L 351.258385 519.187807 
L 352.388255 517.795096 
L 353.518124 515.87334 
L 354.647994 514.675515 
L 356.907734 510.316981 
L 359.167473 507.052988 
L 360.297343 504.914849 
L 361.427212 503.345945 
L 363.686952 500.962445 
L 364.816822 499.275768 
L 367.076561 496.562317 
L 368.206431 494.7345 
L 369.3363 493.427314 
L 374.985649 487.714859 
L 378.375258 485.291634 
L 379.505128 485.027579 
L 380.634998 483.545136 
L 381.764867 482.295434 
L 382.894737 481.268192 
L 384.024607 481.513553 
L 385.154477 480.391438 
L 386.284346 479.513282 
L 387.414216 479.771261 
L 388.544086 479.199221 
L 389.673955 478.788418 
L 390.803825 478.053739 
L 391.933695 478.221051 
L 393.063565 479.010878 
L 394.193434 478.378549 
L 395.323304 478.951991 
L 396.453174 478.558013 
L 398.712913 478.786081 
L 399.842783 479.229599 
L 400.972653 478.912266 
L 402.102522 479.850711 
L 403.232392 480.240951 
L 404.362262 480.80785 
L 405.492131 481.09387 
L 406.622001 481.531312 
L 407.751871 482.759048 
L 408.881741 483.374552 
L 410.01161 484.550412 
L 411.14148 485.250507 
L 412.27135 486.130532 
L 413.401219 487.203575 
L 415.660959 489.563707 
L 417.920698 492.658985 
L 419.050568 493.876907 
L 420.180438 494.744782 
L 421.310308 495.845865 
L 423.570047 498.931329 
L 424.699917 499.907629 
L 426.959656 503.347347 
L 430.349265 507.720836 
L 432.609005 511.196072 
L 433.738874 512.263039 
L 435.998614 516.12057 
L 437.128484 517.370739 
L 438.258353 519.763586 
L 441.647962 525.325554 
L 442.777832 526.753784 
L 443.907702 528.471774 
L 445.037572 530.486065 
L 446.167441 532.167601 
L 447.297311 533.569659 
L 450.68692 538.637635 
L 451.81679 540.553782 
L 454.076529 543.675699 
L 455.206399 545.557262 
L 457.466138 548.547854 
L 458.596008 550.52943 
L 460.855748 553.783608 
L 461.985617 554.807579 
L 463.115487 556.529774 
L 464.245357 557.99072 
L 465.375227 559.730675 
L 467.634966 562.64462 
L 468.764836 564.199036 
L 471.024575 566.408213 
L 473.284315 569.365155 
L 474.414184 570.292384 
L 475.544054 571.78838 
L 477.803793 574.229832 
L 478.933663 575.680963 
L 480.063533 576.553978 
L 481.193403 577.578416 
L 482.323272 578.430868 
L 483.453142 579.70861 
L 486.842751 582.451037 
L 487.972621 583.130101 
L 490.23236 585.108874 
L 491.36223 585.824858 
L 494.751839 588.470076 
L 497.011579 589.845963 
L 498.141448 590.233866 
L 500.401188 591.634523 
L 504.920667 594.088593 
L 506.050536 594.54286 
L 508.310276 595.684603 
L 511.699885 596.911405 
L 512.829755 597.416613 
L 515.089494 598.001272 
L 516.219364 598.576583 
L 524.128452 600.657706 
L 526.388191 601.209182 
L 527.518061 601.38257 
L 528.647931 601.707848 
L 529.7778 601.81347 
L 533.16741 602.399998 
L 542.206367 603.623995 
L 543.336237 603.685685 
L 544.466107 603.860008 
L 548.985586 604.163787 
L 551.245325 604.290907 
L 560.284283 604.757793 
L 568.193371 604.998012 
L 579.492068 605.274685 
L 649.543991 605.485462 
L 676.660864 605.48406 
L 676.660864 605.48406 
" clip-path="url(#p076b3d2163)" style="fill: none; stroke: #67000d; stroke-opacity: 0.9; stroke-width: 2.5; stroke-linecap: square"/>
   </g>
   <g id="patch_3">
    <path d="M 84.665625 632.4535 
L 84.665625 39.1875 
" style="fill: none; stroke: #000000; stroke-width: 0.8; stroke-linejoin: miter; stroke-linecap: square"/>
   </g>
   <g id="patch_4">
    <path d="M 704.851113 632.4535 
L 704.851113 39.1875 
" style="fill: none; stroke: #000000; stroke-width: 0.8; stroke-linejoin: miter; stroke-linecap: square"/>
   </g>
   <g id="patch_5">
    <path d="M 84.665625 632.4535 
L 704.851113 632.4535 
" style="fill: none; stroke: #000000; stroke-width: 0.8; stroke-linejoin: miter; stroke-linecap: square"/>
   </g>
   <g id="patch_6">
    <path d="M 84.665625 39.1875 
L 704.851113 39.1875 
" style="fill: none; stroke: #000000; stroke-width: 0.8; stroke-linejoin: miter; stroke-linecap: square"/>
   </g>
   <g id="legend_1">
    <g id="patch_7">
     <path d="M 105.665625 320.98125 
L 310.865625 320.98125 
Q 316.865625 320.98125 316.865625 314.98125 
L 316.865625 60.1875 
Q 316.865625 54.1875 310.865625 54.1875 
L 105.665625 54.1875 
Q 99.665625 54.1875 99.665625 60.1875 
L 99.665625 314.98125 
Q 99.665625 320.98125 105.665625 320.98125 
z
" style="fill: #ffffff; opacity: 0.8; stroke: #000000; stroke-linejoin: miter"/>
    </g>
    <g id="line2d_79">
     <path d="M 111.665625 77.428125 
L 141.665625 77.428125 
L 171.665625 77.428125 
" style="fill: none; stroke: #fdcab5; stroke-opacity: 0.9; stroke-width: 2.5; stroke-linecap: square"/>
    </g>
    <g id="text_19">
     <!-- $\alpha$ = 0.01 -->
     <g transform="translate(195.665625 87.928125) scale(0.3 -0.3)">
      <defs>
       <path id="STIXGeneral-Italic-3b1" d="M 3514 2739 
L 2605 1069 
L 2605 954 
Q 2605 704 2662 512 
Q 2720 320 2822 320 
Q 2970 320 3149 794 
L 3251 749 
Q 3014 -58 2605 -58 
Q 2291 -58 2272 614 
Q 1709 -70 1030 -70 
Q 589 -70 381 198 
Q 173 467 173 902 
Q 173 1293 329 1673 
Q 486 2054 755 2330 
Q 973 2547 1270 2684 
Q 1568 2822 1862 2822 
Q 2246 2822 2457 2595 
Q 2669 2368 2669 2061 
L 2963 2739 
L 3514 2739 
z
M 2298 1741 
Q 2298 2688 1805 2688 
Q 1472 2688 1085 2099 
Q 698 1510 698 800 
Q 698 493 806 278 
Q 915 64 1139 64 
Q 1606 64 2195 1286 
Q 2202 1325 2230 1411 
Q 2259 1498 2278 1581 
Q 2298 1664 2298 1741 
z
" transform="scale(0.015625)"/>
       <path id="LiberationSans-3d" d="M 313 2675 
L 313 3138 
L 3422 3138 
L 3422 2675 
L 313 2675 
z
M 313 1075 
L 313 1538 
L 3422 1538 
L 3422 1075 
L 313 1075 
z
" transform="scale(0.015625)"/>
      </defs>
      <use xlink:href="#STIXGeneral-Italic-3b1" transform="translate(0 0.171875)"/>
      <use xlink:href="#LiberationSans-20" transform="translate(55.199997 0.171875)"/>
      <use xlink:href="#LiberationSans-3d" transform="translate(82.9832 0.171875)"/>
      <use xlink:href="#LiberationSans-20" transform="translate(141.381638 0.171875)"/>
      <use xlink:href="#LiberationSans-30" transform="translate(169.164841 0.171875)"/>
      <use xlink:href="#LiberationSans-2e" transform="translate(224.780075 0.171875)"/>
      <use xlink:href="#LiberationSans-30" transform="translate(252.563278 0.171875)"/>
      <use xlink:href="#LiberationSans-31" transform="translate(308.178513 0.171875)"/>
     </g>
    </g>
    <g id="line2d_80">
     <path d="M 111.665625 120.39375 
L 141.665625 120.39375 
L 171.665625 120.39375 
" style="fill: none; stroke: #fc9777; stroke-opacity: 0.9; stroke-width: 2.5; stroke-linecap: square"/>
    </g>
    <g id="text_20">
     <!-- $\alpha$ = 0.03 -->
     <g transform="translate(195.665625 130.89375) scale(0.3 -0.3)">
      <use xlink:href="#STIXGeneral-Italic-3b1" transform="translate(0 0.171875)"/>
      <use xlink:href="#LiberationSans-20" transform="translate(55.199997 0.171875)"/>
      <use xlink:href="#LiberationSans-3d" transform="translate(82.9832 0.171875)"/>
      <use xlink:href="#LiberationSans-20" transform="translate(141.381638 0.171875)"/>
      <use xlink:href="#LiberationSans-30" transform="translate(169.164841 0.171875)"/>
      <use xlink:href="#LiberationSans-2e" transform="translate(224.780075 0.171875)"/>
      <use xlink:href="#LiberationSans-30" transform="translate(252.563278 0.171875)"/>
      <use xlink:href="#LiberationSans-33" transform="translate(308.178513 0.171875)"/>
     </g>
    </g>
    <g id="line2d_81">
     <path d="M 111.665625 163.359375 
L 141.665625 163.359375 
L 171.665625 163.359375 
" style="fill: none; stroke: #f96245; stroke-opacity: 0.9; stroke-width: 2.5; stroke-linecap: square"/>
    </g>
    <g id="text_21">
     <!-- $\alpha$ = 0.05 -->
     <g transform="translate(195.665625 173.859375) scale(0.3 -0.3)">
      <use xlink:href="#STIXGeneral-Italic-3b1" transform="translate(0 0.171875)"/>
      <use xlink:href="#LiberationSans-20" transform="translate(55.199997 0.171875)"/>
      <use xlink:href="#LiberationSans-3d" transform="translate(82.9832 0.171875)"/>
      <use xlink:href="#LiberationSans-20" transform="translate(141.381638 0.171875)"/>
      <use xlink:href="#LiberationSans-30" transform="translate(169.164841 0.171875)"/>
      <use xlink:href="#LiberationSans-2e" transform="translate(224.780075 0.171875)"/>
      <use xlink:href="#LiberationSans-30" transform="translate(252.563278 0.171875)"/>
      <use xlink:href="#LiberationSans-35" transform="translate(308.178513 0.171875)"/>
     </g>
    </g>
    <g id="line2d_82">
     <path d="M 111.665625 206.325 
L 141.665625 206.325 
L 171.665625 206.325 
" style="fill: none; stroke: #de2b25; stroke-opacity: 0.9; stroke-width: 2.5; stroke-linecap: square"/>
    </g>
    <g id="text_22">
     <!-- $\alpha$ = 0.07 -->
     <g transform="translate(195.665625 216.825) scale(0.3 -0.3)">
      <defs>
       <path id="LiberationSans-37" d="M 3238 3947 
Q 2563 2916 2284 2331 
Q 2006 1747 1867 1178 
Q 1728 609 1728 0 
L 1141 0 
Q 1141 844 1498 1776 
Q 1856 2709 2694 3925 
L 328 3925 
L 328 4403 
L 3238 4403 
L 3238 3947 
z
" transform="scale(0.015625)"/>
      </defs>
      <use xlink:href="#STIXGeneral-Italic-3b1" transform="translate(0 0.171875)"/>
      <use xlink:href="#LiberationSans-20" transform="translate(55.199997 0.171875)"/>
      <use xlink:href="#LiberationSans-3d" transform="translate(82.9832 0.171875)"/>
      <use xlink:href="#LiberationSans-20" transform="translate(141.381638 0.171875)"/>
      <use xlink:href="#LiberationSans-30" transform="translate(169.164841 0.171875)"/>
      <use xlink:href="#LiberationSans-2e" transform="translate(224.780075 0.171875)"/>
      <use xlink:href="#LiberationSans-30" transform="translate(252.563278 0.171875)"/>
      <use xlink:href="#LiberationSans-37" transform="translate(308.178513 0.171875)"/>
     </g>
    </g>
    <g id="line2d_83">
     <path d="M 111.665625 249.290625 
L 141.665625 249.290625 
L 171.665625 249.290625 
" style="fill: none; stroke: #af1117; stroke-opacity: 0.9; stroke-width: 2.5; stroke-linecap: square"/>
    </g>
    <g id="text_23">
     <!-- $\alpha$ = 0.1 -->
     <g transform="translate(195.665625 259.790625) scale(0.3 -0.3)">
      <use xlink:href="#STIXGeneral-Italic-3b1" transform="translate(0 0.171875)"/>
      <use xlink:href="#LiberationSans-20" transform="translate(55.199997 0.171875)"/>
      <use xlink:href="#LiberationSans-3d" transform="translate(82.9832 0.171875)"/>
      <use xlink:href="#LiberationSans-20" transform="translate(141.381638 0.171875)"/>
      <use xlink:href="#LiberationSans-30" transform="translate(169.164841 0.171875)"/>
      <use xlink:href="#LiberationSans-2e" transform="translate(224.780075 0.171875)"/>
      <use xlink:href="#LiberationSans-31" transform="translate(252.563278 0.171875)"/>
     </g>
    </g>
    <g id="line2d_84">
     <path d="M 111.665625 292.25625 
L 141.665625 292.25625 
L 171.665625 292.25625 
" style="fill: none; stroke: #67000d; stroke-opacity: 0.9; stroke-width: 2.5; stroke-linecap: square"/>
    </g>
    <g id="text_24">
     <!-- $\alpha$ = 0.2 -->
     <g transform="translate(195.665625 302.75625) scale(0.3 -0.3)">
      <use xlink:href="#STIXGeneral-Italic-3b1" transform="translate(0 0.171875)"/>
      <use xlink:href="#LiberationSans-20" transform="translate(55.199997 0.171875)"/>
      <use xlink:href="#LiberationSans-3d" transform="translate(82.9832 0.171875)"/>
      <use xlink:href="#LiberationSans-20" transform="translate(141.381638 0.171875)"/>
      <use xlink:href="#LiberationSans-30" transform="translate(169.164841 0.171875)"/>
      <use xlink:href="#LiberationSans-2e" transform="translate(224.780075 0.171875)"/>
      <use xlink:href="#LiberationSans-32" transform="translate(252.563278 0.171875)"/>
     </g>
    </g>
   </g>
  </g>
 </g>
 <defs>
  <clipPath id="p076b3d2163">
   <rect x="84.665625" y="39.1875" width="620.185488" height="593.266"/>
  </clipPath>
 </defs>
</svg>
