<?xml version="1.0" encoding="utf-8" standalone="no"?>
<!DOCTYPE svg PUBLIC "-//W3C//DTD SVG 1.1//EN"
  "http://www.w3.org/Graphics/SVG/1.1/DTD/svg11.dtd">
<svg xmlns:xlink="http://www.w3.org/1999/xlink" width="710.741988pt" height="711.02175pt" viewBox="0 0 710.741988 711.02175" xmlns="http://www.w3.org/2000/svg" version="1.1">
 <metadata>
  <rdf:RDF xmlns:dc="http://purl.org/dc/elements/1.1/" xmlns:cc="http://creativecommons.org/ns#" xmlns:rdf="http://www.w3.org/1999/02/22-rdf-syntax-ns#">
   <cc:Work>
    <dc:type rdf:resource="http://purl.org/dc/dcmitype/StillImage"/>
    <dc:date>2025-01-30T20:06:59.480995</dc:date>
    <dc:format>image/svg+xml</dc:format>
    <dc:creator>
     <cc:Agent>
      <dc:title>Matplotlib v3.9.3, https://matplotlib.org/</dc:title>
     </cc:Agent>
    </dc:creator>
   </cc:Work>
  </rdf:RDF>
 </metadata>
 <defs>
  <style type="text/css">*{stroke-linejoin: round; stroke-linecap: butt}</style>
 </defs>
 <g id="figure_1">
  <g id="patch_1">
   <path d="M 0 711.02175 
L 710.741988 711.02175 
L 710.741988 0 
L 0 0 
z
" style="fill: #ffffff"/>
  </g>
  <g id="axes_1">
   <g id="patch_2">
    <path d="M 79.5 640.3905 
L 703.541988 640.3905 
L 703.541988 39.1875 
L 79.5 39.1875 
z
" style="fill: #ffffff"/>
   </g>
   <g id="matplotlib.axis_1">
    <g id="xtick_1">
     <g id="line2d_1">
      <defs>
       <path id="m2c373e1593" d="M 0 0 
L 0 -3.5 
" style="stroke: #000000; stroke-width: 0.8"/>
      </defs>
      <g>
       <use xlink:href="#m2c373e1593" x="107.808808" y="640.3905" style="stroke: #000000; stroke-width: 0.8"/>
      </g>
     </g>
     <g id="text_1">
      <!-- 0 -->
      <g transform="translate(99.467402 665.631125) scale(0.3 -0.3)">
       <defs>
        <path id="LiberationSans-30" d="M 3309 2203 
Q 3309 1100 2920 518 
Q 2531 -63 1772 -63 
Q 1013 -63 631 515 
Q 250 1094 250 2203 
Q 250 3338 620 3903 
Q 991 4469 1791 4469 
Q 2569 4469 2939 3897 
Q 3309 3325 3309 2203 
z
M 2738 2203 
Q 2738 3156 2517 3584 
Q 2297 4013 1791 4013 
Q 1272 4013 1045 3591 
Q 819 3169 819 2203 
Q 819 1266 1048 831 
Q 1278 397 1778 397 
Q 2275 397 2506 840 
Q 2738 1284 2738 2203 
z
" transform="scale(0.015625)"/>
       </defs>
       <use xlink:href="#LiberationSans-30"/>
      </g>
     </g>
    </g>
    <g id="xtick_2">
     <g id="line2d_2">
      <g>
       <use xlink:href="#m2c373e1593" x="221.282335" y="640.3905" style="stroke: #000000; stroke-width: 0.8"/>
      </g>
     </g>
     <g id="text_2">
      <!-- 2 -->
      <g transform="translate(212.940929 665.631125) scale(0.3 -0.3)">
       <defs>
        <path id="LiberationSans-32" d="M 322 0 
L 322 397 
Q 481 763 711 1042 
Q 941 1322 1194 1548 
Q 1447 1775 1695 1969 
Q 1944 2163 2144 2356 
Q 2344 2550 2467 2762 
Q 2591 2975 2591 3244 
Q 2591 3606 2378 3806 
Q 2166 4006 1788 4006 
Q 1428 4006 1195 3811 
Q 963 3616 922 3263 
L 347 3316 
Q 409 3844 795 4156 
Q 1181 4469 1788 4469 
Q 2453 4469 2811 4155 
Q 3169 3841 3169 3263 
Q 3169 3006 3051 2753 
Q 2934 2500 2703 2247 
Q 2472 1994 1819 1463 
Q 1459 1169 1246 933 
Q 1034 697 941 478 
L 3238 478 
L 3238 0 
L 322 0 
z
" transform="scale(0.015625)"/>
       </defs>
       <use xlink:href="#LiberationSans-32"/>
      </g>
     </g>
    </g>
    <g id="xtick_3">
     <g id="line2d_3">
      <g>
       <use xlink:href="#m2c373e1593" x="334.755862" y="640.3905" style="stroke: #000000; stroke-width: 0.8"/>
      </g>
     </g>
     <g id="text_3">
      <!-- 4 -->
      <g transform="translate(326.414456 665.631125) scale(0.3 -0.3)">
       <defs>
        <path id="LiberationSans-34" d="M 2753 997 
L 2753 0 
L 2222 0 
L 2222 997 
L 147 997 
L 147 1434 
L 2163 4403 
L 2753 4403 
L 2753 1441 
L 3372 1441 
L 3372 997 
L 2753 997 
z
M 2222 3769 
Q 2216 3750 2134 3603 
Q 2053 3456 2013 3397 
L 884 1734 
L 716 1503 
L 666 1441 
L 2222 1441 
L 2222 3769 
z
" transform="scale(0.015625)"/>
       </defs>
       <use xlink:href="#LiberationSans-34"/>
      </g>
     </g>
    </g>
    <g id="xtick_4">
     <g id="line2d_4">
      <g>
       <use xlink:href="#m2c373e1593" x="448.229389" y="640.3905" style="stroke: #000000; stroke-width: 0.8"/>
      </g>
     </g>
     <g id="text_4">
      <!-- 6 -->
      <g transform="translate(439.887983 665.631125) scale(0.3 -0.3)">
       <defs>
        <path id="LiberationSans-36" d="M 3278 1441 
Q 3278 744 2900 340 
Q 2522 -63 1856 -63 
Q 1113 -63 719 490 
Q 325 1044 325 2100 
Q 325 3244 734 3856 
Q 1144 4469 1900 4469 
Q 2897 4469 3156 3572 
L 2619 3475 
Q 2453 4013 1894 4013 
Q 1413 4013 1148 3564 
Q 884 3116 884 2266 
Q 1038 2550 1316 2698 
Q 1594 2847 1953 2847 
Q 2563 2847 2920 2465 
Q 3278 2084 3278 1441 
z
M 2706 1416 
Q 2706 1894 2472 2153 
Q 2238 2413 1819 2413 
Q 1425 2413 1183 2183 
Q 941 1953 941 1550 
Q 941 1041 1192 716 
Q 1444 391 1838 391 
Q 2244 391 2475 664 
Q 2706 938 2706 1416 
z
" transform="scale(0.015625)"/>
       </defs>
       <use xlink:href="#LiberationSans-36"/>
      </g>
     </g>
    </g>
    <g id="xtick_5">
     <g id="line2d_5">
      <g>
       <use xlink:href="#m2c373e1593" x="561.702916" y="640.3905" style="stroke: #000000; stroke-width: 0.8"/>
      </g>
     </g>
     <g id="text_5">
      <!-- 8 -->
      <g transform="translate(553.36151 665.631125) scale(0.3 -0.3)">
       <defs>
        <path id="LiberationSans-38" d="M 3281 1228 
Q 3281 619 2893 278 
Q 2506 -63 1781 -63 
Q 1075 -63 676 271 
Q 278 606 278 1222 
Q 278 1653 525 1947 
Q 772 2241 1156 2303 
L 1156 2316 
Q 797 2400 589 2681 
Q 381 2963 381 3341 
Q 381 3844 757 4156 
Q 1134 4469 1769 4469 
Q 2419 4469 2795 4162 
Q 3172 3856 3172 3334 
Q 3172 2956 2962 2675 
Q 2753 2394 2391 2322 
L 2391 2309 
Q 2813 2241 3047 1952 
Q 3281 1663 3281 1228 
z
M 2588 3303 
Q 2588 4050 1769 4050 
Q 1372 4050 1164 3862 
Q 956 3675 956 3303 
Q 956 2925 1170 2726 
Q 1384 2528 1775 2528 
Q 2172 2528 2380 2711 
Q 2588 2894 2588 3303 
z
M 2697 1281 
Q 2697 1691 2453 1898 
Q 2209 2106 1769 2106 
Q 1341 2106 1100 1882 
Q 859 1659 859 1269 
Q 859 359 1788 359 
Q 2247 359 2472 579 
Q 2697 800 2697 1281 
z
" transform="scale(0.015625)"/>
       </defs>
       <use xlink:href="#LiberationSans-38"/>
      </g>
     </g>
    </g>
    <g id="xtick_6">
     <g id="line2d_6">
      <g>
       <use xlink:href="#m2c373e1593" x="675.176443" y="640.3905" style="stroke: #000000; stroke-width: 0.8"/>
      </g>
     </g>
     <g id="text_6">
      <!-- 10 -->
      <g transform="translate(658.493631 665.631125) scale(0.3 -0.3)">
       <defs>
        <path id="LiberationSans-31" d="M 488 0 
L 488 478 
L 1609 478 
L 1609 3866 
L 616 3156 
L 616 3688 
L 1656 4403 
L 2175 4403 
L 2175 478 
L 3247 478 
L 3247 0 
L 488 0 
z
" transform="scale(0.015625)"/>
       </defs>
       <use xlink:href="#LiberationSans-31"/>
       <use xlink:href="#LiberationSans-30" x="55.615234"/>
      </g>
     </g>
    </g>
    <g id="xtick_7">
     <g id="line2d_7">
      <defs>
       <path id="m1ec9a42481" d="M 0 0 
L 0 -2 
" style="stroke: #000000; stroke-width: 0.6"/>
      </defs>
      <g>
       <use xlink:href="#m1ec9a42481" x="136.17719" y="640.3905" style="stroke: #000000; stroke-width: 0.6"/>
      </g>
     </g>
    </g>
    <g id="xtick_8">
     <g id="line2d_8">
      <g>
       <use xlink:href="#m1ec9a42481" x="164.545572" y="640.3905" style="stroke: #000000; stroke-width: 0.6"/>
      </g>
     </g>
    </g>
    <g id="xtick_9">
     <g id="line2d_9">
      <g>
       <use xlink:href="#m1ec9a42481" x="192.913953" y="640.3905" style="stroke: #000000; stroke-width: 0.6"/>
      </g>
     </g>
    </g>
    <g id="xtick_10">
     <g id="line2d_10">
      <g>
       <use xlink:href="#m1ec9a42481" x="249.650717" y="640.3905" style="stroke: #000000; stroke-width: 0.6"/>
      </g>
     </g>
    </g>
    <g id="xtick_11">
     <g id="line2d_11">
      <g>
       <use xlink:href="#m1ec9a42481" x="278.019099" y="640.3905" style="stroke: #000000; stroke-width: 0.6"/>
      </g>
     </g>
    </g>
    <g id="xtick_12">
     <g id="line2d_12">
      <g>
       <use xlink:href="#m1ec9a42481" x="306.38748" y="640.3905" style="stroke: #000000; stroke-width: 0.6"/>
      </g>
     </g>
    </g>
    <g id="xtick_13">
     <g id="line2d_13">
      <g>
       <use xlink:href="#m1ec9a42481" x="363.124244" y="640.3905" style="stroke: #000000; stroke-width: 0.6"/>
      </g>
     </g>
    </g>
    <g id="xtick_14">
     <g id="line2d_14">
      <g>
       <use xlink:href="#m1ec9a42481" x="391.492626" y="640.3905" style="stroke: #000000; stroke-width: 0.6"/>
      </g>
     </g>
    </g>
    <g id="xtick_15">
     <g id="line2d_15">
      <g>
       <use xlink:href="#m1ec9a42481" x="419.861008" y="640.3905" style="stroke: #000000; stroke-width: 0.6"/>
      </g>
     </g>
    </g>
    <g id="xtick_16">
     <g id="line2d_16">
      <g>
       <use xlink:href="#m1ec9a42481" x="476.597771" y="640.3905" style="stroke: #000000; stroke-width: 0.6"/>
      </g>
     </g>
    </g>
    <g id="xtick_17">
     <g id="line2d_17">
      <g>
       <use xlink:href="#m1ec9a42481" x="504.966153" y="640.3905" style="stroke: #000000; stroke-width: 0.6"/>
      </g>
     </g>
    </g>
    <g id="xtick_18">
     <g id="line2d_18">
      <g>
       <use xlink:href="#m1ec9a42481" x="533.334535" y="640.3905" style="stroke: #000000; stroke-width: 0.6"/>
      </g>
     </g>
    </g>
    <g id="xtick_19">
     <g id="line2d_19">
      <g>
       <use xlink:href="#m1ec9a42481" x="590.071298" y="640.3905" style="stroke: #000000; stroke-width: 0.6"/>
      </g>
     </g>
    </g>
    <g id="xtick_20">
     <g id="line2d_20">
      <g>
       <use xlink:href="#m1ec9a42481" x="618.43968" y="640.3905" style="stroke: #000000; stroke-width: 0.6"/>
      </g>
     </g>
    </g>
    <g id="xtick_21">
     <g id="line2d_21">
      <g>
       <use xlink:href="#m1ec9a42481" x="646.808062" y="640.3905" style="stroke: #000000; stroke-width: 0.6"/>
      </g>
     </g>
    </g>
    <g id="text_7">
     <!-- Time ps -->
     <g transform="translate(338.744432 697.59675) scale(0.3 -0.3)">
      <defs>
       <path id="LiberationSans-54" d="M 2250 3916 
L 2250 0 
L 1656 0 
L 1656 3916 
L 144 3916 
L 144 4403 
L 3763 4403 
L 3763 3916 
L 2250 3916 
z
" transform="scale(0.015625)"/>
       <path id="LiberationSans-69" d="M 428 4100 
L 428 4638 
L 991 4638 
L 991 4100 
L 428 4100 
z
M 428 0 
L 428 3381 
L 991 3381 
L 991 0 
L 428 0 
z
" transform="scale(0.015625)"/>
       <path id="LiberationSans-6d" d="M 2400 0 
L 2400 2144 
Q 2400 2634 2265 2821 
Q 2131 3009 1781 3009 
Q 1422 3009 1212 2734 
Q 1003 2459 1003 1959 
L 1003 0 
L 444 0 
L 444 2659 
Q 444 3250 425 3381 
L 956 3381 
Q 959 3366 962 3297 
Q 966 3228 970 3139 
Q 975 3050 981 2803 
L 991 2803 
Q 1172 3163 1406 3303 
Q 1641 3444 1978 3444 
Q 2363 3444 2586 3291 
Q 2809 3138 2897 2803 
L 2906 2803 
Q 3081 3144 3329 3294 
Q 3578 3444 3931 3444 
Q 4444 3444 4676 3166 
Q 4909 2888 4909 2253 
L 4909 0 
L 4353 0 
L 4353 2144 
Q 4353 2634 4218 2821 
Q 4084 3009 3734 3009 
Q 3366 3009 3161 2736 
Q 2956 2463 2956 1959 
L 2956 0 
L 2400 0 
z
" transform="scale(0.015625)"/>
       <path id="LiberationSans-65" d="M 863 1572 
Q 863 991 1103 675 
Q 1344 359 1806 359 
Q 2172 359 2392 506 
Q 2613 653 2691 878 
L 3184 738 
Q 2881 -63 1806 -63 
Q 1056 -63 664 384 
Q 272 831 272 1713 
Q 272 2550 664 2997 
Q 1056 3444 1784 3444 
Q 3275 3444 3275 1647 
L 3275 1572 
L 863 1572 
z
M 2694 2003 
Q 2647 2538 2422 2783 
Q 2197 3028 1775 3028 
Q 1366 3028 1127 2754 
Q 888 2481 869 2003 
L 2694 2003 
z
" transform="scale(0.015625)"/>
       <path id="LiberationSans-20" transform="scale(0.015625)"/>
       <path id="LiberationSans-70" d="M 3291 1706 
Q 3291 -63 2047 -63 
Q 1266 -63 997 525 
L 981 525 
Q 994 500 994 -6 
L 994 -1328 
L 431 -1328 
L 431 2691 
Q 431 3213 413 3381 
L 956 3381 
Q 959 3369 965 3292 
Q 972 3216 980 3056 
Q 988 2897 988 2838 
L 1000 2838 
Q 1150 3150 1397 3295 
Q 1644 3441 2047 3441 
Q 2672 3441 2981 3022 
Q 3291 2603 3291 1706 
z
M 2700 1694 
Q 2700 2400 2509 2703 
Q 2319 3006 1903 3006 
Q 1569 3006 1380 2865 
Q 1191 2725 1092 2426 
Q 994 2128 994 1650 
Q 994 984 1206 668 
Q 1419 353 1897 353 
Q 2316 353 2508 661 
Q 2700 969 2700 1694 
z
" transform="scale(0.015625)"/>
       <path id="LiberationSans-73" d="M 2969 934 
Q 2969 456 2608 196 
Q 2247 -63 1597 -63 
Q 966 -63 623 145 
Q 281 353 178 794 
L 675 891 
Q 747 619 972 492 
Q 1197 366 1597 366 
Q 2025 366 2223 497 
Q 2422 628 2422 891 
Q 2422 1091 2284 1216 
Q 2147 1341 1841 1422 
L 1438 1528 
Q 953 1653 748 1773 
Q 544 1894 428 2066 
Q 313 2238 313 2488 
Q 313 2950 642 3192 
Q 972 3434 1603 3434 
Q 2163 3434 2492 3237 
Q 2822 3041 2909 2606 
L 2403 2544 
Q 2356 2769 2151 2889 
Q 1947 3009 1603 3009 
Q 1222 3009 1040 2893 
Q 859 2778 859 2544 
Q 859 2400 934 2306 
Q 1009 2213 1156 2147 
Q 1303 2081 1775 1966 
Q 2222 1853 2419 1758 
Q 2616 1663 2730 1547 
Q 2844 1431 2906 1279 
Q 2969 1128 2969 934 
z
" transform="scale(0.015625)"/>
      </defs>
      <use xlink:href="#LiberationSans-54"/>
      <use xlink:href="#LiberationSans-69" x="57.333984"/>
      <use xlink:href="#LiberationSans-6d" x="79.550781"/>
      <use xlink:href="#LiberationSans-65" x="162.851562"/>
      <use xlink:href="#LiberationSans-20" x="218.466797"/>
      <use xlink:href="#LiberationSans-70" x="246.25"/>
      <use xlink:href="#LiberationSans-73" x="301.865234"/>
     </g>
    </g>
   </g>
   <g id="matplotlib.axis_2">
    <g id="ytick_1">
     <g id="line2d_22">
      <defs>
       <path id="m15bf78f0e6" d="M 0 0 
L 3.5 0 
" style="stroke: #000000; stroke-width: 0.8"/>
      </defs>
      <g>
       <use xlink:href="#m15bf78f0e6" x="79.5" y="603.780691" style="stroke: #000000; stroke-width: 0.8"/>
      </g>
     </g>
     <g id="text_8">
      <!-- $\mathdefault{−2}$ -->
      <g transform="translate(41.5 614.651004) scale(0.3 -0.3)">
       <defs>
        <path id="LiberationSans-2212" d="M 316 1900 
L 316 2356 
L 3425 2356 
L 3425 1900 
L 316 1900 
z
" transform="scale(0.015625)"/>
       </defs>
       <use xlink:href="#LiberationSans-2212" transform="translate(0 0.171875)"/>
       <use xlink:href="#LiberationSans-32" transform="translate(58.398438 0.171875)"/>
      </g>
     </g>
    </g>
    <g id="ytick_2">
     <g id="line2d_23">
      <g>
       <use xlink:href="#m15bf78f0e6" x="79.5" y="499.098095" style="stroke: #000000; stroke-width: 0.8"/>
      </g>
     </g>
     <g id="text_9">
      <!-- $\mathdefault{0}$ -->
      <g transform="translate(59.2 509.968407) scale(0.3 -0.3)">
       <use xlink:href="#LiberationSans-30" transform="translate(0 0.171875)"/>
      </g>
     </g>
    </g>
    <g id="ytick_3">
     <g id="line2d_24">
      <g>
       <use xlink:href="#m15bf78f0e6" x="79.5" y="394.415498" style="stroke: #000000; stroke-width: 0.8"/>
      </g>
     </g>
     <g id="text_10">
      <!-- $\mathdefault{2}$ -->
      <g transform="translate(59.2 405.285811) scale(0.3 -0.3)">
       <use xlink:href="#LiberationSans-32" transform="translate(0 0.171875)"/>
      </g>
     </g>
    </g>
    <g id="ytick_4">
     <g id="line2d_25">
      <g>
       <use xlink:href="#m15bf78f0e6" x="79.5" y="289.732902" style="stroke: #000000; stroke-width: 0.8"/>
      </g>
     </g>
     <g id="text_11">
      <!-- $\mathdefault{4}$ -->
      <g transform="translate(59.2 300.603215) scale(0.3 -0.3)">
       <use xlink:href="#LiberationSans-34" transform="translate(0 0.203125)"/>
      </g>
     </g>
    </g>
    <g id="ytick_5">
     <g id="line2d_26">
      <g>
       <use xlink:href="#m15bf78f0e6" x="79.5" y="185.050306" style="stroke: #000000; stroke-width: 0.8"/>
      </g>
     </g>
     <g id="text_12">
      <!-- $\mathdefault{6}$ -->
      <g transform="translate(59.2 195.920618) scale(0.3 -0.3)">
       <use xlink:href="#LiberationSans-36" transform="translate(0 0.171875)"/>
      </g>
     </g>
    </g>
    <g id="ytick_6">
     <g id="line2d_27">
      <g>
       <use xlink:href="#m15bf78f0e6" x="79.5" y="80.367709" style="stroke: #000000; stroke-width: 0.8"/>
      </g>
     </g>
     <g id="text_13">
      <!-- $\mathdefault{8}$ -->
      <g transform="translate(59.2 91.238022) scale(0.3 -0.3)">
       <use xlink:href="#LiberationSans-38" transform="translate(0 0.171875)"/>
      </g>
     </g>
    </g>
    <g id="ytick_7">
     <g id="line2d_28">
      <defs>
       <path id="md8c7173f97" d="M 0 0 
L 2 0 
" style="stroke: #000000; stroke-width: 0.6"/>
      </defs>
      <g>
       <use xlink:href="#md8c7173f97" x="79.5" y="629.95134" style="stroke: #000000; stroke-width: 0.6"/>
      </g>
     </g>
    </g>
    <g id="ytick_8">
     <g id="line2d_29">
      <g>
       <use xlink:href="#md8c7173f97" x="79.5" y="577.610042" style="stroke: #000000; stroke-width: 0.6"/>
      </g>
     </g>
    </g>
    <g id="ytick_9">
     <g id="line2d_30">
      <g>
       <use xlink:href="#md8c7173f97" x="79.5" y="551.439393" style="stroke: #000000; stroke-width: 0.6"/>
      </g>
     </g>
    </g>
    <g id="ytick_10">
     <g id="line2d_31">
      <g>
       <use xlink:href="#md8c7173f97" x="79.5" y="525.268744" style="stroke: #000000; stroke-width: 0.6"/>
      </g>
     </g>
    </g>
    <g id="ytick_11">
     <g id="line2d_32">
      <g>
       <use xlink:href="#md8c7173f97" x="79.5" y="472.927446" style="stroke: #000000; stroke-width: 0.6"/>
      </g>
     </g>
    </g>
    <g id="ytick_12">
     <g id="line2d_33">
      <g>
       <use xlink:href="#md8c7173f97" x="79.5" y="446.756797" style="stroke: #000000; stroke-width: 0.6"/>
      </g>
     </g>
    </g>
    <g id="ytick_13">
     <g id="line2d_34">
      <g>
       <use xlink:href="#md8c7173f97" x="79.5" y="420.586148" style="stroke: #000000; stroke-width: 0.6"/>
      </g>
     </g>
    </g>
    <g id="ytick_14">
     <g id="line2d_35">
      <g>
       <use xlink:href="#md8c7173f97" x="79.5" y="368.244849" style="stroke: #000000; stroke-width: 0.6"/>
      </g>
     </g>
    </g>
    <g id="ytick_15">
     <g id="line2d_36">
      <g>
       <use xlink:href="#md8c7173f97" x="79.5" y="342.0742" style="stroke: #000000; stroke-width: 0.6"/>
      </g>
     </g>
    </g>
    <g id="ytick_16">
     <g id="line2d_37">
      <g>
       <use xlink:href="#md8c7173f97" x="79.5" y="315.903551" style="stroke: #000000; stroke-width: 0.6"/>
      </g>
     </g>
    </g>
    <g id="ytick_17">
     <g id="line2d_38">
      <g>
       <use xlink:href="#md8c7173f97" x="79.5" y="263.562253" style="stroke: #000000; stroke-width: 0.6"/>
      </g>
     </g>
    </g>
    <g id="ytick_18">
     <g id="line2d_39">
      <g>
       <use xlink:href="#md8c7173f97" x="79.5" y="237.391604" style="stroke: #000000; stroke-width: 0.6"/>
      </g>
     </g>
    </g>
    <g id="ytick_19">
     <g id="line2d_40">
      <g>
       <use xlink:href="#md8c7173f97" x="79.5" y="211.220955" style="stroke: #000000; stroke-width: 0.6"/>
      </g>
     </g>
    </g>
    <g id="ytick_20">
     <g id="line2d_41">
      <g>
       <use xlink:href="#md8c7173f97" x="79.5" y="158.879657" style="stroke: #000000; stroke-width: 0.6"/>
      </g>
     </g>
    </g>
    <g id="ytick_21">
     <g id="line2d_42">
      <g>
       <use xlink:href="#md8c7173f97" x="79.5" y="132.709008" style="stroke: #000000; stroke-width: 0.6"/>
      </g>
     </g>
    </g>
    <g id="ytick_22">
     <g id="line2d_43">
      <g>
       <use xlink:href="#md8c7173f97" x="79.5" y="106.538358" style="stroke: #000000; stroke-width: 0.6"/>
      </g>
     </g>
    </g>
    <g id="ytick_23">
     <g id="line2d_44">
      <g>
       <use xlink:href="#md8c7173f97" x="79.5" y="54.19706" style="stroke: #000000; stroke-width: 0.6"/>
      </g>
     </g>
    </g>
    <g id="text_14">
     <!-- HFACF $($W/m$^2)^2$ -->
     <g transform="translate(31.275 447.189) rotate(-90) scale(0.3 -0.3)">
      <defs>
       <path id="LiberationSans-48" d="M 3503 0 
L 3503 2041 
L 1122 2041 
L 1122 0 
L 525 0 
L 525 4403 
L 1122 4403 
L 1122 2541 
L 3503 2541 
L 3503 4403 
L 4100 4403 
L 4100 0 
L 3503 0 
z
" transform="scale(0.015625)"/>
       <path id="LiberationSans-46" d="M 1122 3916 
L 1122 2278 
L 3578 2278 
L 3578 1784 
L 1122 1784 
L 1122 0 
L 525 0 
L 525 4403 
L 3653 4403 
L 3653 3916 
L 1122 3916 
z
" transform="scale(0.015625)"/>
       <path id="LiberationSans-41" d="M 3647 0 
L 3144 1288 
L 1138 1288 
L 631 0 
L 13 0 
L 1809 4403 
L 2488 4403 
L 4256 0 
L 3647 0 
z
M 2141 3953 
L 2113 3866 
Q 2034 3606 1881 3200 
L 1319 1753 
L 2966 1753 
L 2400 3206 
Q 2313 3422 2225 3694 
L 2141 3953 
z
" transform="scale(0.015625)"/>
       <path id="LiberationSans-43" d="M 2475 3981 
Q 1744 3981 1337 3511 
Q 931 3041 931 2222 
Q 931 1413 1354 920 
Q 1778 428 2500 428 
Q 3425 428 3891 1344 
L 4378 1100 
Q 4106 531 3614 234 
Q 3122 -63 2472 -63 
Q 1806 -63 1320 214 
Q 834 491 579 1005 
Q 325 1519 325 2222 
Q 325 3275 894 3872 
Q 1463 4469 2469 4469 
Q 3172 4469 3644 4194 
Q 4116 3919 4338 3378 
L 3772 3191 
Q 3619 3575 3280 3778 
Q 2941 3981 2475 3981 
z
" transform="scale(0.015625)"/>
       <path id="STIXGeneral-Regular-28" d="M 1946 -1030 
L 1869 -1133 
Q 1126 -710 716 32 
Q 307 774 307 1613 
Q 307 3386 1888 4326 
L 1946 4224 
Q 1293 3667 1075 3126 
Q 858 2586 858 1632 
Q 858 685 1082 96 
Q 1306 -493 1946 -1030 
z
" transform="scale(0.015625)"/>
       <path id="LiberationSans-57" d="M 4722 0 
L 4009 0 
L 3247 2797 
Q 3172 3059 3028 3738 
Q 2947 3375 2890 3131 
Q 2834 2888 2038 0 
L 1325 0 
L 28 4403 
L 650 4403 
L 1441 1606 
Q 1581 1081 1700 525 
Q 1775 869 1873 1275 
Q 1972 1681 2741 4403 
L 3313 4403 
L 4078 1663 
Q 4253 991 4353 525 
L 4381 634 
Q 4466 994 4519 1220 
Q 4572 1447 5397 4403 
L 6019 4403 
L 4722 0 
z
" transform="scale(0.015625)"/>
       <path id="LiberationSans-2f" d="M 0 -63 
L 1284 4638 
L 1778 4638 
L 506 -63 
L 0 -63 
z
" transform="scale(0.015625)"/>
       <path id="STIXGeneral-Regular-32" d="M 3034 877 
L 2688 0 
L 186 0 
L 186 77 
L 1325 1286 
Q 1773 1754 1965 2144 
Q 2157 2534 2157 2950 
Q 2157 3379 1920 3616 
Q 1683 3853 1267 3853 
Q 922 3853 720 3673 
Q 518 3494 326 3021 
L 192 3053 
Q 301 3648 630 3987 
Q 960 4326 1523 4326 
Q 2054 4326 2380 4006 
Q 2707 3686 2707 3200 
Q 2707 2477 1888 1613 
L 832 486 
L 2330 486 
Q 2541 486 2665 569 
Q 2790 653 2944 915 
L 3034 877 
z
" transform="scale(0.015625)"/>
       <path id="STIXGeneral-Regular-29" d="M 186 4224 
L 262 4326 
Q 992 3891 1408 3148 
Q 1824 2406 1824 1581 
Q 1824 -166 243 -1133 
L 186 -1030 
Q 845 -486 1059 54 
Q 1274 595 1274 1562 
Q 1274 2534 1059 3120 
Q 845 3706 186 4224 
z
" transform="scale(0.015625)"/>
      </defs>
      <use xlink:href="#LiberationSans-48" transform="translate(0 0.409375)"/>
      <use xlink:href="#LiberationSans-46" transform="translate(72.216797 0.409375)"/>
      <use xlink:href="#LiberationSans-41" transform="translate(133.300781 0.409375)"/>
      <use xlink:href="#LiberationSans-43" transform="translate(200 0.409375)"/>
      <use xlink:href="#LiberationSans-46" transform="translate(272.216797 0.409375)"/>
      <use xlink:href="#LiberationSans-20" transform="translate(333.300781 0.409375)"/>
      <use xlink:href="#STIXGeneral-Regular-28" transform="translate(361.083984 0.409375)"/>
      <use xlink:href="#LiberationSans-57" transform="translate(394.383972 0.409375)"/>
      <use xlink:href="#LiberationSans-2f" transform="translate(488.768738 0.409375)"/>
      <use xlink:href="#LiberationSans-6d" transform="translate(516.551941 0.409375)"/>
      <use xlink:href="#STIXGeneral-Regular-32" transform="translate(601.396003 35.684375) scale(0.7)"/>
      <use xlink:href="#STIXGeneral-Regular-29" transform="translate(640.805368 0.409375)"/>
      <use xlink:href="#STIXGeneral-Regular-32" transform="translate(675.648637 35.684375) scale(0.7)"/>
     </g>
    </g>
    <g id="text_15">
     <!-- $\times\mathdefault{10^{18}}\mathdefault{}$ -->
     <g transform="translate(79.5 36.1875) scale(0.4 -0.4)">
      <defs>
       <path id="STIXGeneral-Regular-d7" d="M 3821 141 
L 3526 -160 
L 2048 1312 
L 570 -160 
L 275 134 
L 1747 1613 
L 275 3091 
L 576 3386 
L 2048 1914 
L 3526 3386 
L 3821 3098 
L 2349 1613 
L 3821 141 
z
" transform="scale(0.015625)"/>
      </defs>
      <use xlink:href="#STIXGeneral-Regular-d7" transform="translate(0 0.140625)"/>
      <use xlink:href="#LiberationSans-31" transform="translate(63.999985 0.140625)"/>
      <use xlink:href="#LiberationSans-30" transform="translate(119.615219 0.140625)"/>
      <use xlink:href="#LiberationSans-31" transform="translate(176.154946 37.120312) scale(0.7)"/>
      <use xlink:href="#LiberationSans-38" transform="translate(215.08561 37.120312) scale(0.7)"/>
     </g>
    </g>
   </g>
   <g id="line2d_45">
    <path d="M 107.865545 66.514909 
L 108.092492 77.291466 
L 108.376176 95.200252 
L 108.83007 142.655803 
L 109.510911 244.764467 
L 111.213014 510.710592 
L 111.837118 569.950444 
L 112.347749 598.429841 
L 112.744907 609.585634 
L 113.02859 612.749715 
L 113.142064 613.063091 
L 113.198801 613.038042 
L 113.369011 612.304739 
L 113.652695 609.304851 
L 114.049852 602.36822 
L 114.673957 588.159896 
L 116.54627 545.406526 
L 117.737742 523.743244 
L 118.702267 510.118934 
L 119.383108 503.092046 
L 120.234159 497.63193 
L 120.801527 495.685041 
L 121.085211 495.102483 
L 121.539105 494.715103 
L 121.936262 494.750877 
L 122.106473 494.835072 
L 122.50363 495.232888 
L 122.67384 495.397605 
L 123.070998 495.927913 
L 123.411418 496.424244 
L 123.978786 497.452599 
L 124.319206 498.091484 
L 125.624152 499.910033 
L 126.418467 500.529573 
L 127.439728 500.399604 
L 129.595725 498.62795 
L 130.39004 497.925498 
L 131.468039 497.208525 
L 135.439612 493.578107 
L 135.836769 493.571221 
L 136.233927 493.85339 
L 136.460874 494.013464 
L 136.858031 494.329629 
L 137.368662 495.024095 
L 137.992766 496.176968 
L 139.184238 498.511616 
L 139.808343 499.423959 
L 140.602657 500.046845 
L 141.226762 500.135094 
L 141.850866 499.928049 
L 143.723179 499.10214 
L 144.517494 498.975197 
L 147.524543 499.31468 
L 149.964223 500.126659 
L 151.155695 500.206982 
L 151.893273 500.067819 
L 153.198219 499.717627 
L 154.503165 499.608112 
L 155.127269 499.638435 
L 158.020844 499.679941 
L 159.893157 499.867416 
L 160.460525 499.655899 
L 161.027892 499.200816 
L 161.822207 498.102111 
L 163.978204 494.531621 
L 164.488835 494.230671 
L 164.829255 494.272 
L 165.226413 494.516941 
L 165.79378 495.15123 
L 167.836304 498.039166 
L 168.233461 498.343132 
L 168.800829 498.559518 
L 169.708617 498.484534 
L 170.729879 498.225298 
L 171.524194 498.24121 
L 172.034824 498.416686 
L 172.772402 498.835946 
L 174.985136 500.109605 
L 175.779451 500.27544 
L 178.105658 499.901796 
L 181.112707 498.927266 
L 181.907021 498.935712 
L 182.81481 499.101105 
L 184.800596 499.042966 
L 185.481437 498.954566 
L 186.389226 499.060232 
L 187.410487 499.562038 
L 188.431749 500.049122 
L 188.999117 500.016463 
L 189.623221 499.549446 
L 190.077115 498.911673 
L 190.757956 497.550924 
L 192.573533 493.740826 
L 192.97069 493.261871 
L 193.027427 493.318219 
L 193.367848 493.295038 
L 193.821742 493.533955 
L 194.275636 494.045539 
L 195.183424 495.587285 
L 196.545106 497.976221 
L 197.509631 498.948938 
L 198.247209 499.2577 
L 199.892575 499.45654 
L 200.8571 499.621445 
L 203.069834 499.792014 
L 203.920886 499.742534 
L 204.828674 499.752966 
L 206.076883 499.873538 
L 208.119406 499.860416 
L 211.580349 499.545937 
L 214.246977 498.696734 
L 214.700871 498.813634 
L 215.551922 499.387066 
L 216.573184 500.253058 
L 217.197288 500.477311 
L 217.594446 500.382376 
L 217.991603 500.10476 
L 218.445497 499.510567 
L 219.069601 498.293155 
L 220.998651 494.247197 
L 221.339072 493.847432 
L 221.395809 493.901445 
L 221.736229 493.883131 
L 222.190123 494.172027 
L 222.644018 494.767906 
L 223.608543 496.621542 
L 224.573067 498.34931 
L 225.026962 498.889587 
L 225.651066 499.280153 
L 226.161697 499.326519 
L 226.785801 499.138008 
L 228.544641 498.622854 
L 229.849586 498.960372 
L 231.551689 499.805847 
L 233.253792 500.421176 
L 234.615475 500.381977 
L 236.828208 499.458311 
L 237.282103 499.245964 
L 238.643785 498.866807 
L 241.821044 499.160605 
L 242.615358 499.420015 
L 243.239463 499.726414 
L 244.260724 500.306527 
L 244.884829 500.532877 
L 245.338723 500.494881 
L 245.849354 500.191759 
L 246.359985 499.579207 
L 246.870616 498.66165 
L 247.948614 496.130931 
L 248.856402 494.194941 
L 249.367033 493.537768 
L 249.707454 493.250846 
L 249.934401 493.425404 
L 250.331558 493.763883 
L 250.842189 494.478515 
L 251.920187 496.442446 
L 252.771239 497.731478 
L 253.338607 498.24337 
L 253.905974 498.460216 
L 254.700289 498.387083 
L 255.835024 498.092499 
L 256.515865 498.142885 
L 257.196707 498.470051 
L 257.991021 499.123557 
L 259.295967 500.385561 
L 260.317229 501.111512 
L 261.111543 501.415049 
L 261.905858 501.492296 
L 263.381014 500.854035 
L 266.217852 498.946174 
L 266.841956 498.858407 
L 270.019215 499.318564 
L 272.061739 499.018108 
L 273.820578 498.970801 
L 274.274472 498.762252 
L 275.125524 497.950522 
L 275.976575 496.67035 
L 277.111311 494.92475 
L 277.678678 494.409703 
L 278.132572 494.30058 
L 278.586466 494.587728 
L 279.267308 495.370276 
L 280.7992 497.537493 
L 281.366568 498.070871 
L 282.047409 498.366537 
L 283.011934 498.328433 
L 284.260143 498.182276 
L 284.82751 498.331367 
L 285.962246 499.140603 
L 287.834559 500.571207 
L 288.34519 500.739435 
L 289.309715 500.754433 
L 292.884131 500.195056 
L 296.118126 499.963222 
L 296.742231 499.676155 
L 297.366335 499.249968 
L 299.352122 497.916153 
L 299.806016 497.866754 
L 300.486857 498.084442 
L 301.451382 498.723073 
L 302.18896 499.032654 
L 302.586117 499.025743 
L 302.983275 498.848947 
L 303.493906 498.353284 
L 304.061273 497.475264 
L 305.990323 494.057905 
L 306.444217 493.646698 
L 306.614428 493.738847 
L 307.011585 493.951721 
L 307.465479 494.471069 
L 308.032847 495.442478 
L 310.132107 499.279213 
L 310.756211 499.797129 
L 311.266842 499.95617 
L 311.777473 499.916802 
L 312.855472 499.651518 
L 313.593049 499.518127 
L 314.727785 499.549628 
L 315.238416 499.567488 
L 315.975994 499.573453 
L 318.302201 499.509764 
L 319.947567 500.230477 
L 321.025565 500.734104 
L 321.706407 500.892636 
L 322.500721 500.800259 
L 323.521983 500.332144 
L 324.997139 499.413275 
L 325.904927 498.813365 
L 327.266609 498.244463 
L 328.004187 498.250581 
L 328.458081 498.38784 
L 329.36587 498.84964 
L 330.160184 499.243004 
L 330.897762 499.22424 
L 331.351656 498.945704 
L 331.862287 498.354835 
L 332.486392 497.270432 
L 334.472178 493.554128 
L 334.812599 493.213026 
L 334.869336 493.289264 
L 335.209756 493.392198 
L 335.66365 493.810813 
L 336.174281 494.613547 
L 337.08207 496.506422 
L 338.160068 498.59793 
L 338.840909 499.391927 
L 339.35154 499.649226 
L 339.918908 499.656103 
L 340.883433 499.24983 
L 341.847958 498.814243 
L 342.755746 498.705583 
L 343.720271 498.923593 
L 344.344375 499.204634 
L 346.386899 500.314766 
L 347.691844 500.909468 
L 348.429422 500.963062 
L 348.99679 500.836627 
L 349.791105 500.479568 
L 351.720155 499.198849 
L 352.627943 498.828722 
L 354.273309 498.577078 
L 355.521518 498.729998 
L 356.259096 499.013357 
L 358.471829 500.151806 
L 358.925723 500.089245 
L 359.266144 499.909498 
L 359.776775 499.386488 
L 360.344143 498.465115 
L 361.365404 496.234978 
L 362.273193 494.324031 
L 362.897297 493.514065 
L 363.294454 493.341732 
L 363.691612 493.529814 
L 364.145506 494.02605 
L 364.996557 495.576332 
L 366.52845 498.383859 
L 367.209291 499.045797 
L 367.719922 499.260105 
L 368.4575 499.266433 
L 370.670234 499.071755 
L 373.223388 499.125434 
L 373.677282 499.172829 
L 374.24465 499.331238 
L 375.436122 500.147696 
L 376.627594 501.02181 
L 377.251698 501.205896 
L 377.875803 501.125602 
L 378.783591 500.578108 
L 380.088536 499.481877 
L 380.939588 499.032094 
L 381.733902 498.853096 
L 382.47148 498.799092 
L 384.003373 498.960471 
L 385.024635 499.357835 
L 386.499791 500.078921 
L 386.953685 500.08476 
L 387.407579 499.914483 
L 387.91821 499.424931 
L 388.315367 498.847646 
L 388.825998 497.888518 
L 389.790523 495.748494 
L 390.584838 494.256171 
L 391.095468 493.745483 
L 391.435889 493.632618 
L 391.662836 493.742084 
L 392.11673 494.328393 
L 392.684098 495.418946 
L 394.840095 499.736512 
L 395.407462 500.106435 
L 395.918093 500.102501 
L 396.655671 499.653404 
L 398.357774 498.199211 
L 398.981879 498.011592 
L 399.549246 498.069622 
L 400.457034 498.528106 
L 401.478296 499.327496 
L 402.896715 500.366643 
L 404.144924 500.957479 
L 404.995975 501.055097 
L 405.847027 500.860824 
L 406.868289 500.325962 
L 409.364706 498.97867 
L 411.463967 498.777208 
L 412.428491 498.87052 
L 413.449753 499.227318 
L 414.414278 499.699713 
L 415.26533 499.882972 
L 415.889434 499.606384 
L 416.286591 499.209164 
L 416.683749 498.633695 
L 417.251116 497.560282 
L 418.953219 493.942254 
L 419.520587 493.305995 
L 419.917744 493.093031 
L 420.144691 493.295603 
L 420.541849 493.717468 
L 421.05248 494.588346 
L 421.790057 496.25944 
L 422.924793 498.764367 
L 423.719107 499.835694 
L 424.229738 500.129621 
L 424.683632 500.164794 
L 425.251 499.945448 
L 427.463734 498.870914 
L 428.144575 498.882159 
L 428.768679 499.009528 
L 430.243835 499.491488 
L 433.818251 500.467432 
L 434.89625 500.45445 
L 436.030985 500.30425 
L 436.428142 500.244215 
L 438.75435 499.678668 
L 440.172769 499.307216 
L 441.137294 499.374307 
L 442.555713 499.8866 
L 443.293291 500.007978 
L 443.803922 499.83276 
L 444.314553 499.455744 
L 445.222341 498.200132 
L 445.846445 497.058738 
L 447.208128 494.655997 
L 447.775495 494.075941 
L 448.286126 493.829759 
L 448.513073 493.988178 
L 448.91023 494.307409 
L 449.364125 494.900982 
L 450.158439 496.315202 
L 451.179701 498.120445 
L 451.803805 498.877692 
L 452.257699 499.203157 
L 452.938541 499.318365 
L 453.562645 499.12977 
L 455.491695 498.402168 
L 457.023588 498.569934 
L 457.647692 498.764674 
L 460.598004 500.324001 
L 462.186633 501.336222 
L 462.924211 501.576628 
L 463.661789 501.611088 
L 464.51284 501.398803 
L 465.477365 500.923384 
L 467.690099 499.404607 
L 468.257467 499.016814 
L 469.335465 498.579966 
L 470.12978 498.621382 
L 471.094305 499.018962 
L 472.172303 499.422191 
L 472.682934 499.393017 
L 473.363776 498.986043 
L 474.3283 497.695602 
L 476.484298 494.30806 
L 476.938192 494.076032 
L 477.448822 494.135327 
L 478.01619 494.56334 
L 478.640295 495.334984 
L 479.377872 496.386459 
L 480.172187 497.367321 
L 480.739555 497.837712 
L 481.420396 498.149962 
L 482.838815 498.401836 
L 483.406183 498.585304 
L 485.959337 499.998391 
L 486.980599 500.100815 
L 489.306806 500.02041 
L 490.328068 500.075514 
L 491.633013 499.959829 
L 492.711012 499.732881 
L 493.675537 499.663126 
L 494.356378 499.75362 
L 496.115218 499.950831 
L 496.796059 499.820034 
L 497.64711 499.473731 
L 498.725109 499.008794 
L 499.632897 498.758862 
L 501.051316 498.335676 
L 502.129315 497.406012 
L 502.923629 496.316364 
L 504.285312 494.432692 
L 504.739206 494.081602 
L 505.136363 494.021566 
L 505.53352 494.295415 
L 506.100888 495.031117 
L 506.95194 496.668391 
L 508.029938 498.751895 
L 508.880989 499.774819 
L 509.448357 500.061608 
L 510.072462 500.094474 
L 511.831301 499.747207 
L 512.852563 499.883779 
L 514.157508 500.167827 
L 518.072345 500.032679 
L 519.03687 500.094572 
L 520.001395 499.949612 
L 521.363077 499.22058 
L 523.632548 497.963974 
L 524.483599 497.769845 
L 525.448124 497.815649 
L 526.412649 498.195284 
L 527.547385 499.067907 
L 528.85233 500.019377 
L 529.476435 500.071365 
L 529.873592 499.905051 
L 530.44096 499.364551 
L 531.065064 498.401537 
L 533.050851 494.989017 
L 533.391271 494.631343 
L 533.448008 494.706348 
L 533.845165 494.809616 
L 534.242323 495.113527 
L 534.752954 495.765583 
L 536.852214 498.587186 
L 537.362845 498.849717 
L 538.270633 498.897888 
L 539.915999 499.005949 
L 540.59684 499.417703 
L 542.071996 500.595503 
L 543.263468 500.946349 
L 544.11452 500.722193 
L 544.738624 500.418226 
L 545.930096 499.832392 
L 547.461989 499.422234 
L 548.596724 499.284321 
L 549.617986 499.071911 
L 552.908718 498.251022 
L 553.419349 498.310211 
L 553.986716 498.447542 
L 556.596608 499.610696 
L 557.050502 499.636861 
L 557.561133 499.474446 
L 558.015027 499.142771 
L 558.525658 498.589967 
L 558.979552 497.953077 
L 561.078812 494.748631 
L 561.589443 494.459428 
L 561.873127 494.505955 
L 562.327021 494.972804 
L 562.894388 495.895248 
L 563.688703 497.558701 
L 564.596491 499.288809 
L 565.163859 499.980534 
L 565.617753 500.245585 
L 566.071647 500.246423 
L 566.525541 500.020028 
L 567.206382 499.359749 
L 568.681538 497.956868 
L 569.192169 497.754655 
L 569.7028 497.722864 
L 570.497115 497.983724 
L 571.064482 498.315955 
L 574.638898 500.362601 
L 575.433213 500.366475 
L 576.114054 500.147645 
L 576.851632 499.780052 
L 577.816157 499.282148 
L 578.553735 499.07692 
L 578.950892 499.057978 
L 579.574997 499.122843 
L 580.879942 499.372595 
L 583.54657 499.454788 
L 585.021726 499.748259 
L 585.47562 499.687403 
L 586.156461 499.271934 
L 586.950776 498.205446 
L 588.425932 495.227145 
L 589.050036 494.153325 
L 589.560667 493.64019 
L 589.901088 493.533319 
L 590.184772 493.622541 
L 590.638666 494.208561 
L 591.319507 495.497843 
L 592.908136 498.924454 
L 593.588977 499.89643 
L 594.156345 500.361369 
L 594.666976 500.516678 
L 595.29108 500.442742 
L 595.858448 500.203838 
L 597.333604 499.531673 
L 600.567599 498.935229 
L 602.269702 499.262361 
L 603.404438 499.749562 
L 604.59591 500.192994 
L 605.163277 500.352748 
L 605.900855 500.500744 
L 607.829905 500.571092 
L 608.737693 500.318298 
L 610.156112 499.516179 
L 610.666743 499.264757 
L 611.290848 499.127504 
L 611.914952 499.246433 
L 614.014212 500.123699 
L 614.41137 499.960201 
L 614.922001 499.433433 
L 615.602842 498.195999 
L 616.567367 495.803179 
L 617.418418 493.817612 
L 617.985786 492.985665 
L 618.496417 492.645859 
L 618.723364 492.858749 
L 619.063784 493.232286 
L 619.517678 494.010973 
L 620.311993 495.88896 
L 621.673675 498.929109 
L 622.411253 499.823381 
L 622.808411 500.037875 
L 623.319042 500.074533 
L 623.943146 499.835349 
L 625.872196 498.981262 
L 626.779984 498.916706 
L 629.503349 499.529922 
L 630.01398 499.769462 
L 631.035241 500.421595 
L 632.056503 500.991969 
L 633.077765 501.180577 
L 633.645132 501.088098 
L 634.38271 500.746632 
L 635.290499 500.180871 
L 635.801129 499.85278 
L 636.822391 499.28234 
L 637.843653 498.725455 
L 639.772703 497.900924 
L 640.340071 497.861111 
L 641.304596 498.072529 
L 642.723015 498.361282 
L 643.347119 498.126493 
L 643.971223 497.581506 
L 644.765538 496.527434 
L 645.900273 494.983725 
L 646.467641 494.56634 
L 646.864798 494.416479 
L 647.091745 494.663823 
L 647.54564 495.171199 
L 648.566901 496.911462 
L 649.701637 498.823793 
L 650.269004 499.419678 
L 650.779635 499.665727 
L 651.120056 499.683176 
L 651.57395 499.549508 
L 652.141317 499.176352 
L 653.389526 498.311374 
L 653.900157 498.150677 
L 654.637735 498.213942 
L 655.60226 498.713122 
L 656.339838 499.222104 
L 657.70152 499.981222 
L 658.609308 500.331265 
L 661.38941 500.914772 
L 662.978039 500.781773 
L 663.375197 500.715872 
L 665.701404 500.183927 
L 666.495719 499.760881 
L 667.006349 499.40827 
L 669.219083 497.982166 
L 670.070135 497.832016 
L 671.03466 497.698263 
L 671.715501 497.409432 
L 672.453079 496.811402 
L 674.438865 494.715618 
L 675.06297 494.621746 
L 675.176443 494.656683 
L 675.176443 494.656683 
" clip-path="url(#p6abcfa4e58)" style="fill: none; stroke: #0000ff; stroke-width: 1.5; stroke-linecap: square"/>
   </g>
   <g id="patch_3">
    <path d="M 79.5 640.3905 
L 79.5 39.1875 
" style="fill: none; stroke: #000000; stroke-width: 0.8; stroke-linejoin: miter; stroke-linecap: square"/>
   </g>
   <g id="patch_4">
    <path d="M 703.541988 640.3905 
L 703.541988 39.1875 
" style="fill: none; stroke: #000000; stroke-width: 0.8; stroke-linejoin: miter; stroke-linecap: square"/>
   </g>
   <g id="patch_5">
    <path d="M 79.5 640.3905 
L 703.541988 640.3905 
" style="fill: none; stroke: #000000; stroke-width: 0.8; stroke-linejoin: miter; stroke-linecap: square"/>
   </g>
   <g id="patch_6">
    <path d="M 79.5 39.1875 
L 703.541988 39.1875 
" style="fill: none; stroke: #000000; stroke-width: 0.8; stroke-linejoin: miter; stroke-linecap: square"/>
   </g>
  </g>
 </g>
 <defs>
  <clipPath id="p6abcfa4e58">
   <rect x="79.5" y="39.1875" width="624.041988" height="601.203"/>
  </clipPath>
 </defs>
</svg>
