<?xml version="1.0" encoding="utf-8" standalone="no"?>
<!DOCTYPE svg PUBLIC "-//W3C//DTD SVG 1.1//EN"
  "http://www.w3.org/Graphics/SVG/1.1/DTD/svg11.dtd">
<svg xmlns:xlink="http://www.w3.org/1999/xlink" width="710.741988pt" height="711.02175pt" viewBox="0 0 710.741988 711.02175" xmlns="http://www.w3.org/2000/svg" version="1.1">
 <metadata>
  <rdf:RDF xmlns:dc="http://purl.org/dc/elements/1.1/" xmlns:cc="http://creativecommons.org/ns#" xmlns:rdf="http://www.w3.org/1999/02/22-rdf-syntax-ns#">
   <cc:Work>
    <dc:type rdf:resource="http://purl.org/dc/dcmitype/StillImage"/>
    <dc:date>2025-02-03T21:08:44.598842</dc:date>
    <dc:format>image/svg+xml</dc:format>
    <dc:creator>
     <cc:Agent>
      <dc:title>Matplotlib v3.9.3, https://matplotlib.org/</dc:title>
     </cc:Agent>
    </dc:creator>
   </cc:Work>
  </rdf:RDF>
 </metadata>
 <defs>
  <style type="text/css">*{stroke-linejoin: round; stroke-linecap: butt}</style>
 </defs>
 <g id="figure_1">
  <g id="patch_1">
   <path d="M 0 711.02175 
L 710.741988 711.02175 
L 710.741988 0 
L 0 0 
z
" style="fill: #ffffff"/>
  </g>
  <g id="axes_1">
   <g id="patch_2">
    <path d="M 79.5 640.3905 
L 703.541988 640.3905 
L 703.541988 39.1875 
L 79.5 39.1875 
z
" style="fill: #ffffff"/>
   </g>
   <g id="matplotlib.axis_1">
    <g id="xtick_1">
     <g id="line2d_1">
      <defs>
       <path id="md180907815" d="M 0 0 
L 0 -3.5 
" style="stroke: #000000; stroke-width: 0.8"/>
      </defs>
      <g>
       <use xlink:href="#md180907815" x="107.808808" y="640.3905" style="stroke: #000000; stroke-width: 0.8"/>
      </g>
     </g>
     <g id="text_1">
      <!-- 0 -->
      <g transform="translate(99.467402 665.631125) scale(0.3 -0.3)">
       <defs>
        <path id="LiberationSans-30" d="M 3309 2203 
Q 3309 1100 2920 518 
Q 2531 -63 1772 -63 
Q 1013 -63 631 515 
Q 250 1094 250 2203 
Q 250 3338 620 3903 
Q 991 4469 1791 4469 
Q 2569 4469 2939 3897 
Q 3309 3325 3309 2203 
z
M 2738 2203 
Q 2738 3156 2517 3584 
Q 2297 4013 1791 4013 
Q 1272 4013 1045 3591 
Q 819 3169 819 2203 
Q 819 1266 1048 831 
Q 1278 397 1778 397 
Q 2275 397 2506 840 
Q 2738 1284 2738 2203 
z
" transform="scale(0.015625)"/>
       </defs>
       <use xlink:href="#LiberationSans-30"/>
      </g>
     </g>
    </g>
    <g id="xtick_2">
     <g id="line2d_2">
      <g>
       <use xlink:href="#md180907815" x="221.282335" y="640.3905" style="stroke: #000000; stroke-width: 0.8"/>
      </g>
     </g>
     <g id="text_2">
      <!-- 2 -->
      <g transform="translate(212.940929 665.631125) scale(0.3 -0.3)">
       <defs>
        <path id="LiberationSans-32" d="M 322 0 
L 322 397 
Q 481 763 711 1042 
Q 941 1322 1194 1548 
Q 1447 1775 1695 1969 
Q 1944 2163 2144 2356 
Q 2344 2550 2467 2762 
Q 2591 2975 2591 3244 
Q 2591 3606 2378 3806 
Q 2166 4006 1788 4006 
Q 1428 4006 1195 3811 
Q 963 3616 922 3263 
L 347 3316 
Q 409 3844 795 4156 
Q 1181 4469 1788 4469 
Q 2453 4469 2811 4155 
Q 3169 3841 3169 3263 
Q 3169 3006 3051 2753 
Q 2934 2500 2703 2247 
Q 2472 1994 1819 1463 
Q 1459 1169 1246 933 
Q 1034 697 941 478 
L 3238 478 
L 3238 0 
L 322 0 
z
" transform="scale(0.015625)"/>
       </defs>
       <use xlink:href="#LiberationSans-32"/>
      </g>
     </g>
    </g>
    <g id="xtick_3">
     <g id="line2d_3">
      <g>
       <use xlink:href="#md180907815" x="334.755862" y="640.3905" style="stroke: #000000; stroke-width: 0.8"/>
      </g>
     </g>
     <g id="text_3">
      <!-- 4 -->
      <g transform="translate(326.414456 665.631125) scale(0.3 -0.3)">
       <defs>
        <path id="LiberationSans-34" d="M 2753 997 
L 2753 0 
L 2222 0 
L 2222 997 
L 147 997 
L 147 1434 
L 2163 4403 
L 2753 4403 
L 2753 1441 
L 3372 1441 
L 3372 997 
L 2753 997 
z
M 2222 3769 
Q 2216 3750 2134 3603 
Q 2053 3456 2013 3397 
L 884 1734 
L 716 1503 
L 666 1441 
L 2222 1441 
L 2222 3769 
z
" transform="scale(0.015625)"/>
       </defs>
       <use xlink:href="#LiberationSans-34"/>
      </g>
     </g>
    </g>
    <g id="xtick_4">
     <g id="line2d_4">
      <g>
       <use xlink:href="#md180907815" x="448.229389" y="640.3905" style="stroke: #000000; stroke-width: 0.8"/>
      </g>
     </g>
     <g id="text_4">
      <!-- 6 -->
      <g transform="translate(439.887983 665.631125) scale(0.3 -0.3)">
       <defs>
        <path id="LiberationSans-36" d="M 3278 1441 
Q 3278 744 2900 340 
Q 2522 -63 1856 -63 
Q 1113 -63 719 490 
Q 325 1044 325 2100 
Q 325 3244 734 3856 
Q 1144 4469 1900 4469 
Q 2897 4469 3156 3572 
L 2619 3475 
Q 2453 4013 1894 4013 
Q 1413 4013 1148 3564 
Q 884 3116 884 2266 
Q 1038 2550 1316 2698 
Q 1594 2847 1953 2847 
Q 2563 2847 2920 2465 
Q 3278 2084 3278 1441 
z
M 2706 1416 
Q 2706 1894 2472 2153 
Q 2238 2413 1819 2413 
Q 1425 2413 1183 2183 
Q 941 1953 941 1550 
Q 941 1041 1192 716 
Q 1444 391 1838 391 
Q 2244 391 2475 664 
Q 2706 938 2706 1416 
z
" transform="scale(0.015625)"/>
       </defs>
       <use xlink:href="#LiberationSans-36"/>
      </g>
     </g>
    </g>
    <g id="xtick_5">
     <g id="line2d_5">
      <g>
       <use xlink:href="#md180907815" x="561.702916" y="640.3905" style="stroke: #000000; stroke-width: 0.8"/>
      </g>
     </g>
     <g id="text_5">
      <!-- 8 -->
      <g transform="translate(553.36151 665.631125) scale(0.3 -0.3)">
       <defs>
        <path id="LiberationSans-38" d="M 3281 1228 
Q 3281 619 2893 278 
Q 2506 -63 1781 -63 
Q 1075 -63 676 271 
Q 278 606 278 1222 
Q 278 1653 525 1947 
Q 772 2241 1156 2303 
L 1156 2316 
Q 797 2400 589 2681 
Q 381 2963 381 3341 
Q 381 3844 757 4156 
Q 1134 4469 1769 4469 
Q 2419 4469 2795 4162 
Q 3172 3856 3172 3334 
Q 3172 2956 2962 2675 
Q 2753 2394 2391 2322 
L 2391 2309 
Q 2813 2241 3047 1952 
Q 3281 1663 3281 1228 
z
M 2588 3303 
Q 2588 4050 1769 4050 
Q 1372 4050 1164 3862 
Q 956 3675 956 3303 
Q 956 2925 1170 2726 
Q 1384 2528 1775 2528 
Q 2172 2528 2380 2711 
Q 2588 2894 2588 3303 
z
M 2697 1281 
Q 2697 1691 2453 1898 
Q 2209 2106 1769 2106 
Q 1341 2106 1100 1882 
Q 859 1659 859 1269 
Q 859 359 1788 359 
Q 2247 359 2472 579 
Q 2697 800 2697 1281 
z
" transform="scale(0.015625)"/>
       </defs>
       <use xlink:href="#LiberationSans-38"/>
      </g>
     </g>
    </g>
    <g id="xtick_6">
     <g id="line2d_6">
      <g>
       <use xlink:href="#md180907815" x="675.176443" y="640.3905" style="stroke: #000000; stroke-width: 0.8"/>
      </g>
     </g>
     <g id="text_6">
      <!-- 10 -->
      <g transform="translate(658.493631 665.631125) scale(0.3 -0.3)">
       <defs>
        <path id="LiberationSans-31" d="M 488 0 
L 488 478 
L 1609 478 
L 1609 3866 
L 616 3156 
L 616 3688 
L 1656 4403 
L 2175 4403 
L 2175 478 
L 3247 478 
L 3247 0 
L 488 0 
z
" transform="scale(0.015625)"/>
       </defs>
       <use xlink:href="#LiberationSans-31"/>
       <use xlink:href="#LiberationSans-30" x="55.615234"/>
      </g>
     </g>
    </g>
    <g id="xtick_7">
     <g id="line2d_7">
      <defs>
       <path id="m7e384c4076" d="M 0 0 
L 0 -2 
" style="stroke: #000000; stroke-width: 0.6"/>
      </defs>
      <g>
       <use xlink:href="#m7e384c4076" x="136.17719" y="640.3905" style="stroke: #000000; stroke-width: 0.6"/>
      </g>
     </g>
    </g>
    <g id="xtick_8">
     <g id="line2d_8">
      <g>
       <use xlink:href="#m7e384c4076" x="164.545572" y="640.3905" style="stroke: #000000; stroke-width: 0.6"/>
      </g>
     </g>
    </g>
    <g id="xtick_9">
     <g id="line2d_9">
      <g>
       <use xlink:href="#m7e384c4076" x="192.913953" y="640.3905" style="stroke: #000000; stroke-width: 0.6"/>
      </g>
     </g>
    </g>
    <g id="xtick_10">
     <g id="line2d_10">
      <g>
       <use xlink:href="#m7e384c4076" x="249.650717" y="640.3905" style="stroke: #000000; stroke-width: 0.6"/>
      </g>
     </g>
    </g>
    <g id="xtick_11">
     <g id="line2d_11">
      <g>
       <use xlink:href="#m7e384c4076" x="278.019099" y="640.3905" style="stroke: #000000; stroke-width: 0.6"/>
      </g>
     </g>
    </g>
    <g id="xtick_12">
     <g id="line2d_12">
      <g>
       <use xlink:href="#m7e384c4076" x="306.38748" y="640.3905" style="stroke: #000000; stroke-width: 0.6"/>
      </g>
     </g>
    </g>
    <g id="xtick_13">
     <g id="line2d_13">
      <g>
       <use xlink:href="#m7e384c4076" x="363.124244" y="640.3905" style="stroke: #000000; stroke-width: 0.6"/>
      </g>
     </g>
    </g>
    <g id="xtick_14">
     <g id="line2d_14">
      <g>
       <use xlink:href="#m7e384c4076" x="391.492626" y="640.3905" style="stroke: #000000; stroke-width: 0.6"/>
      </g>
     </g>
    </g>
    <g id="xtick_15">
     <g id="line2d_15">
      <g>
       <use xlink:href="#m7e384c4076" x="419.861008" y="640.3905" style="stroke: #000000; stroke-width: 0.6"/>
      </g>
     </g>
    </g>
    <g id="xtick_16">
     <g id="line2d_16">
      <g>
       <use xlink:href="#m7e384c4076" x="476.597771" y="640.3905" style="stroke: #000000; stroke-width: 0.6"/>
      </g>
     </g>
    </g>
    <g id="xtick_17">
     <g id="line2d_17">
      <g>
       <use xlink:href="#m7e384c4076" x="504.966153" y="640.3905" style="stroke: #000000; stroke-width: 0.6"/>
      </g>
     </g>
    </g>
    <g id="xtick_18">
     <g id="line2d_18">
      <g>
       <use xlink:href="#m7e384c4076" x="533.334535" y="640.3905" style="stroke: #000000; stroke-width: 0.6"/>
      </g>
     </g>
    </g>
    <g id="xtick_19">
     <g id="line2d_19">
      <g>
       <use xlink:href="#m7e384c4076" x="590.071298" y="640.3905" style="stroke: #000000; stroke-width: 0.6"/>
      </g>
     </g>
    </g>
    <g id="xtick_20">
     <g id="line2d_20">
      <g>
       <use xlink:href="#m7e384c4076" x="618.43968" y="640.3905" style="stroke: #000000; stroke-width: 0.6"/>
      </g>
     </g>
    </g>
    <g id="xtick_21">
     <g id="line2d_21">
      <g>
       <use xlink:href="#m7e384c4076" x="646.808062" y="640.3905" style="stroke: #000000; stroke-width: 0.6"/>
      </g>
     </g>
    </g>
    <g id="text_7">
     <!-- Time ps -->
     <g transform="translate(338.744432 697.59675) scale(0.3 -0.3)">
      <defs>
       <path id="LiberationSans-54" d="M 2250 3916 
L 2250 0 
L 1656 0 
L 1656 3916 
L 144 3916 
L 144 4403 
L 3763 4403 
L 3763 3916 
L 2250 3916 
z
" transform="scale(0.015625)"/>
       <path id="LiberationSans-69" d="M 428 4100 
L 428 4638 
L 991 4638 
L 991 4100 
L 428 4100 
z
M 428 0 
L 428 3381 
L 991 3381 
L 991 0 
L 428 0 
z
" transform="scale(0.015625)"/>
       <path id="LiberationSans-6d" d="M 2400 0 
L 2400 2144 
Q 2400 2634 2265 2821 
Q 2131 3009 1781 3009 
Q 1422 3009 1212 2734 
Q 1003 2459 1003 1959 
L 1003 0 
L 444 0 
L 444 2659 
Q 444 3250 425 3381 
L 956 3381 
Q 959 3366 962 3297 
Q 966 3228 970 3139 
Q 975 3050 981 2803 
L 991 2803 
Q 1172 3163 1406 3303 
Q 1641 3444 1978 3444 
Q 2363 3444 2586 3291 
Q 2809 3138 2897 2803 
L 2906 2803 
Q 3081 3144 3329 3294 
Q 3578 3444 3931 3444 
Q 4444 3444 4676 3166 
Q 4909 2888 4909 2253 
L 4909 0 
L 4353 0 
L 4353 2144 
Q 4353 2634 4218 2821 
Q 4084 3009 3734 3009 
Q 3366 3009 3161 2736 
Q 2956 2463 2956 1959 
L 2956 0 
L 2400 0 
z
" transform="scale(0.015625)"/>
       <path id="LiberationSans-65" d="M 863 1572 
Q 863 991 1103 675 
Q 1344 359 1806 359 
Q 2172 359 2392 506 
Q 2613 653 2691 878 
L 3184 738 
Q 2881 -63 1806 -63 
Q 1056 -63 664 384 
Q 272 831 272 1713 
Q 272 2550 664 2997 
Q 1056 3444 1784 3444 
Q 3275 3444 3275 1647 
L 3275 1572 
L 863 1572 
z
M 2694 2003 
Q 2647 2538 2422 2783 
Q 2197 3028 1775 3028 
Q 1366 3028 1127 2754 
Q 888 2481 869 2003 
L 2694 2003 
z
" transform="scale(0.015625)"/>
       <path id="LiberationSans-20" transform="scale(0.015625)"/>
       <path id="LiberationSans-70" d="M 3291 1706 
Q 3291 -63 2047 -63 
Q 1266 -63 997 525 
L 981 525 
Q 994 500 994 -6 
L 994 -1328 
L 431 -1328 
L 431 2691 
Q 431 3213 413 3381 
L 956 3381 
Q 959 3369 965 3292 
Q 972 3216 980 3056 
Q 988 2897 988 2838 
L 1000 2838 
Q 1150 3150 1397 3295 
Q 1644 3441 2047 3441 
Q 2672 3441 2981 3022 
Q 3291 2603 3291 1706 
z
M 2700 1694 
Q 2700 2400 2509 2703 
Q 2319 3006 1903 3006 
Q 1569 3006 1380 2865 
Q 1191 2725 1092 2426 
Q 994 2128 994 1650 
Q 994 984 1206 668 
Q 1419 353 1897 353 
Q 2316 353 2508 661 
Q 2700 969 2700 1694 
z
" transform="scale(0.015625)"/>
       <path id="LiberationSans-73" d="M 2969 934 
Q 2969 456 2608 196 
Q 2247 -63 1597 -63 
Q 966 -63 623 145 
Q 281 353 178 794 
L 675 891 
Q 747 619 972 492 
Q 1197 366 1597 366 
Q 2025 366 2223 497 
Q 2422 628 2422 891 
Q 2422 1091 2284 1216 
Q 2147 1341 1841 1422 
L 1438 1528 
Q 953 1653 748 1773 
Q 544 1894 428 2066 
Q 313 2238 313 2488 
Q 313 2950 642 3192 
Q 972 3434 1603 3434 
Q 2163 3434 2492 3237 
Q 2822 3041 2909 2606 
L 2403 2544 
Q 2356 2769 2151 2889 
Q 1947 3009 1603 3009 
Q 1222 3009 1040 2893 
Q 859 2778 859 2544 
Q 859 2400 934 2306 
Q 1009 2213 1156 2147 
Q 1303 2081 1775 1966 
Q 2222 1853 2419 1758 
Q 2616 1663 2730 1547 
Q 2844 1431 2906 1279 
Q 2969 1128 2969 934 
z
" transform="scale(0.015625)"/>
      </defs>
      <use xlink:href="#LiberationSans-54"/>
      <use xlink:href="#LiberationSans-69" x="57.333984"/>
      <use xlink:href="#LiberationSans-6d" x="79.550781"/>
      <use xlink:href="#LiberationSans-65" x="162.851562"/>
      <use xlink:href="#LiberationSans-20" x="218.466797"/>
      <use xlink:href="#LiberationSans-70" x="246.25"/>
      <use xlink:href="#LiberationSans-73" x="301.865234"/>
     </g>
    </g>
   </g>
   <g id="matplotlib.axis_2">
    <g id="ytick_1">
     <g id="line2d_22">
      <defs>
       <path id="m76715f5c11" d="M 0 0 
L 3.5 0 
" style="stroke: #000000; stroke-width: 0.8"/>
      </defs>
      <g>
       <use xlink:href="#m76715f5c11" x="79.5" y="582.169925" style="stroke: #000000; stroke-width: 0.8"/>
      </g>
     </g>
     <g id="text_8">
      <!-- $\mathdefault{−2}$ -->
      <g transform="translate(41.5 593.040238) scale(0.3 -0.3)">
       <defs>
        <path id="LiberationSans-2212" d="M 316 1900 
L 316 2356 
L 3425 2356 
L 3425 1900 
L 316 1900 
z
" transform="scale(0.015625)"/>
       </defs>
       <use xlink:href="#LiberationSans-2212" transform="translate(0 0.171875)"/>
       <use xlink:href="#LiberationSans-32" transform="translate(58.398438 0.171875)"/>
      </g>
     </g>
    </g>
    <g id="ytick_2">
     <g id="line2d_23">
      <g>
       <use xlink:href="#m76715f5c11" x="79.5" y="484.596158" style="stroke: #000000; stroke-width: 0.8"/>
      </g>
     </g>
     <g id="text_9">
      <!-- $\mathdefault{0}$ -->
      <g transform="translate(59.2 495.46647) scale(0.3 -0.3)">
       <use xlink:href="#LiberationSans-30" transform="translate(0 0.171875)"/>
      </g>
     </g>
    </g>
    <g id="ytick_3">
     <g id="line2d_24">
      <g>
       <use xlink:href="#m76715f5c11" x="79.5" y="387.022391" style="stroke: #000000; stroke-width: 0.8"/>
      </g>
     </g>
     <g id="text_10">
      <!-- $\mathdefault{2}$ -->
      <g transform="translate(59.2 397.892703) scale(0.3 -0.3)">
       <use xlink:href="#LiberationSans-32" transform="translate(0 0.171875)"/>
      </g>
     </g>
    </g>
    <g id="ytick_4">
     <g id="line2d_25">
      <g>
       <use xlink:href="#m76715f5c11" x="79.5" y="289.448624" style="stroke: #000000; stroke-width: 0.8"/>
      </g>
     </g>
     <g id="text_11">
      <!-- $\mathdefault{4}$ -->
      <g transform="translate(59.2 300.318936) scale(0.3 -0.3)">
       <use xlink:href="#LiberationSans-34" transform="translate(0 0.203125)"/>
      </g>
     </g>
    </g>
    <g id="ytick_5">
     <g id="line2d_26">
      <g>
       <use xlink:href="#m76715f5c11" x="79.5" y="191.874856" style="stroke: #000000; stroke-width: 0.8"/>
      </g>
     </g>
     <g id="text_12">
      <!-- $\mathdefault{6}$ -->
      <g transform="translate(59.2 202.745169) scale(0.3 -0.3)">
       <use xlink:href="#LiberationSans-36" transform="translate(0 0.171875)"/>
      </g>
     </g>
    </g>
    <g id="ytick_6">
     <g id="line2d_27">
      <g>
       <use xlink:href="#m76715f5c11" x="79.5" y="94.301089" style="stroke: #000000; stroke-width: 0.8"/>
      </g>
     </g>
     <g id="text_13">
      <!-- $\mathdefault{8}$ -->
      <g transform="translate(59.2 105.171402) scale(0.3 -0.3)">
       <use xlink:href="#LiberationSans-38" transform="translate(0 0.171875)"/>
      </g>
     </g>
    </g>
    <g id="ytick_7">
     <g id="line2d_28">
      <defs>
       <path id="m33c3c9573d" d="M 0 0 
L 2 0 
" style="stroke: #000000; stroke-width: 0.6"/>
      </defs>
      <g>
       <use xlink:href="#m33c3c9573d" x="79.5" y="630.956809" style="stroke: #000000; stroke-width: 0.6"/>
      </g>
     </g>
    </g>
    <g id="ytick_8">
     <g id="line2d_29">
      <g>
       <use xlink:href="#m33c3c9573d" x="79.5" y="606.563367" style="stroke: #000000; stroke-width: 0.6"/>
      </g>
     </g>
    </g>
    <g id="ytick_9">
     <g id="line2d_30">
      <g>
       <use xlink:href="#m33c3c9573d" x="79.5" y="557.776483" style="stroke: #000000; stroke-width: 0.6"/>
      </g>
     </g>
    </g>
    <g id="ytick_10">
     <g id="line2d_31">
      <g>
       <use xlink:href="#m33c3c9573d" x="79.5" y="533.383042" style="stroke: #000000; stroke-width: 0.6"/>
      </g>
     </g>
    </g>
    <g id="ytick_11">
     <g id="line2d_32">
      <g>
       <use xlink:href="#m33c3c9573d" x="79.5" y="508.9896" style="stroke: #000000; stroke-width: 0.6"/>
      </g>
     </g>
    </g>
    <g id="ytick_12">
     <g id="line2d_33">
      <g>
       <use xlink:href="#m33c3c9573d" x="79.5" y="460.202716" style="stroke: #000000; stroke-width: 0.6"/>
      </g>
     </g>
    </g>
    <g id="ytick_13">
     <g id="line2d_34">
      <g>
       <use xlink:href="#m33c3c9573d" x="79.5" y="435.809274" style="stroke: #000000; stroke-width: 0.6"/>
      </g>
     </g>
    </g>
    <g id="ytick_14">
     <g id="line2d_35">
      <g>
       <use xlink:href="#m33c3c9573d" x="79.5" y="411.415833" style="stroke: #000000; stroke-width: 0.6"/>
      </g>
     </g>
    </g>
    <g id="ytick_15">
     <g id="line2d_36">
      <g>
       <use xlink:href="#m33c3c9573d" x="79.5" y="362.628949" style="stroke: #000000; stroke-width: 0.6"/>
      </g>
     </g>
    </g>
    <g id="ytick_16">
     <g id="line2d_37">
      <g>
       <use xlink:href="#m33c3c9573d" x="79.5" y="338.235507" style="stroke: #000000; stroke-width: 0.6"/>
      </g>
     </g>
    </g>
    <g id="ytick_17">
     <g id="line2d_38">
      <g>
       <use xlink:href="#m33c3c9573d" x="79.5" y="313.842065" style="stroke: #000000; stroke-width: 0.6"/>
      </g>
     </g>
    </g>
    <g id="ytick_18">
     <g id="line2d_39">
      <g>
       <use xlink:href="#m33c3c9573d" x="79.5" y="265.055182" style="stroke: #000000; stroke-width: 0.6"/>
      </g>
     </g>
    </g>
    <g id="ytick_19">
     <g id="line2d_40">
      <g>
       <use xlink:href="#m33c3c9573d" x="79.5" y="240.66174" style="stroke: #000000; stroke-width: 0.6"/>
      </g>
     </g>
    </g>
    <g id="ytick_20">
     <g id="line2d_41">
      <g>
       <use xlink:href="#m33c3c9573d" x="79.5" y="216.268298" style="stroke: #000000; stroke-width: 0.6"/>
      </g>
     </g>
    </g>
    <g id="ytick_21">
     <g id="line2d_42">
      <g>
       <use xlink:href="#m33c3c9573d" x="79.5" y="167.481415" style="stroke: #000000; stroke-width: 0.6"/>
      </g>
     </g>
    </g>
    <g id="ytick_22">
     <g id="line2d_43">
      <g>
       <use xlink:href="#m33c3c9573d" x="79.5" y="143.087973" style="stroke: #000000; stroke-width: 0.6"/>
      </g>
     </g>
    </g>
    <g id="ytick_23">
     <g id="line2d_44">
      <g>
       <use xlink:href="#m33c3c9573d" x="79.5" y="118.694531" style="stroke: #000000; stroke-width: 0.6"/>
      </g>
     </g>
    </g>
    <g id="ytick_24">
     <g id="line2d_45">
      <g>
       <use xlink:href="#m33c3c9573d" x="79.5" y="69.907648" style="stroke: #000000; stroke-width: 0.6"/>
      </g>
     </g>
    </g>
    <g id="ytick_25">
     <g id="line2d_46">
      <g>
       <use xlink:href="#m33c3c9573d" x="79.5" y="45.514206" style="stroke: #000000; stroke-width: 0.6"/>
      </g>
     </g>
    </g>
    <g id="text_14">
     <!-- HFACF $(\mathrm{W} / \mathrm{m}^2)^2$ -->
     <g transform="translate(31.275 446.289) rotate(-90) scale(0.3 -0.3)">
      <defs>
       <path id="LiberationSans-48" d="M 3503 0 
L 3503 2041 
L 1122 2041 
L 1122 0 
L 525 0 
L 525 4403 
L 1122 4403 
L 1122 2541 
L 3503 2541 
L 3503 4403 
L 4100 4403 
L 4100 0 
L 3503 0 
z
" transform="scale(0.015625)"/>
       <path id="LiberationSans-46" d="M 1122 3916 
L 1122 2278 
L 3578 2278 
L 3578 1784 
L 1122 1784 
L 1122 0 
L 525 0 
L 525 4403 
L 3653 4403 
L 3653 3916 
L 1122 3916 
z
" transform="scale(0.015625)"/>
       <path id="LiberationSans-41" d="M 3647 0 
L 3144 1288 
L 1138 1288 
L 631 0 
L 13 0 
L 1809 4403 
L 2488 4403 
L 4256 0 
L 3647 0 
z
M 2141 3953 
L 2113 3866 
Q 2034 3606 1881 3200 
L 1319 1753 
L 2966 1753 
L 2400 3206 
Q 2313 3422 2225 3694 
L 2141 3953 
z
" transform="scale(0.015625)"/>
       <path id="LiberationSans-43" d="M 2475 3981 
Q 1744 3981 1337 3511 
Q 931 3041 931 2222 
Q 931 1413 1354 920 
Q 1778 428 2500 428 
Q 3425 428 3891 1344 
L 4378 1100 
Q 4106 531 3614 234 
Q 3122 -63 2472 -63 
Q 1806 -63 1320 214 
Q 834 491 579 1005 
Q 325 1519 325 2222 
Q 325 3275 894 3872 
Q 1463 4469 2469 4469 
Q 3172 4469 3644 4194 
Q 4116 3919 4338 3378 
L 3772 3191 
Q 3619 3575 3280 3778 
Q 2941 3981 2475 3981 
z
" transform="scale(0.015625)"/>
       <path id="STIXGeneral-Regular-28" d="M 1946 -1030 
L 1869 -1133 
Q 1126 -710 716 32 
Q 307 774 307 1613 
Q 307 3386 1888 4326 
L 1946 4224 
Q 1293 3667 1075 3126 
Q 858 2586 858 1632 
Q 858 685 1082 96 
Q 1306 -493 1946 -1030 
z
" transform="scale(0.015625)"/>
       <path id="STIXGeneral-Regular-57" d="M 5965 4237 
L 5965 4115 
Q 5709 4064 5616 3990 
Q 5523 3917 5434 3667 
Q 4704 1709 4128 -70 
L 4032 -70 
Q 3642 1011 3008 2637 
L 2022 -70 
L 1926 -70 
Q 1709 576 1277 1753 
Q 845 2931 698 3347 
Q 538 3808 406 3958 
Q 275 4109 32 4115 
L 32 4237 
L 1594 4237 
L 1594 4115 
Q 1357 4109 1270 4064 
Q 1184 4019 1184 3917 
Q 1184 3808 1254 3616 
L 2176 1210 
L 2842 3021 
L 2662 3501 
Q 2509 3917 2400 4013 
Q 2291 4109 2010 4115 
L 2010 4237 
L 3706 4237 
L 3706 4115 
Q 3213 4102 3213 3891 
Q 3213 3808 3322 3520 
L 4237 1190 
L 5043 3360 
Q 5152 3667 5152 3853 
Q 5152 4109 4704 4115 
L 4704 4237 
L 5965 4237 
z
" transform="scale(0.015625)"/>
       <path id="STIXGeneral-Regular-2f" d="M 1837 4326 
L 378 -90 
L -58 -90 
L 1408 4326 
L 1837 4326 
z
" transform="scale(0.015625)"/>
       <path id="STIXGeneral-Regular-6d" d="M 4960 0 
L 3565 0 
L 3565 96 
Q 3834 122 3907 208 
Q 3981 294 3981 576 
L 3981 1894 
Q 3981 2278 3869 2444 
Q 3757 2611 3488 2611 
Q 3264 2611 3107 2521 
Q 2950 2432 2803 2221 
L 2803 608 
Q 2803 301 2896 201 
Q 2989 102 3264 96 
L 3264 0 
L 1830 0 
L 1830 96 
Q 2112 115 2189 188 
Q 2266 262 2266 550 
L 2266 1901 
Q 2266 2611 1850 2611 
Q 1670 2611 1468 2531 
Q 1267 2451 1171 2336 
Q 1088 2240 1088 2227 
L 1088 448 
Q 1088 243 1177 176 
Q 1267 109 1523 96 
L 1523 0 
L 102 0 
L 102 96 
Q 371 102 460 195 
Q 550 288 550 563 
L 550 2150 
Q 550 2387 499 2480 
Q 448 2573 326 2573 
Q 230 2573 122 2547 
L 122 2656 
Q 557 2778 1011 2944 
L 1062 2925 
L 1062 2451 
L 1075 2451 
Q 1363 2752 1584 2848 
Q 1805 2944 2054 2944 
Q 2560 2944 2733 2406 
Q 3232 2944 3776 2944 
Q 4518 2944 4518 1792 
L 4518 493 
Q 4518 282 4582 202 
Q 4646 122 4794 109 
L 4960 96 
L 4960 0 
z
" transform="scale(0.015625)"/>
       <path id="STIXGeneral-Regular-32" d="M 3034 877 
L 2688 0 
L 186 0 
L 186 77 
L 1325 1286 
Q 1773 1754 1965 2144 
Q 2157 2534 2157 2950 
Q 2157 3379 1920 3616 
Q 1683 3853 1267 3853 
Q 922 3853 720 3673 
Q 518 3494 326 3021 
L 192 3053 
Q 301 3648 630 3987 
Q 960 4326 1523 4326 
Q 2054 4326 2380 4006 
Q 2707 3686 2707 3200 
Q 2707 2477 1888 1613 
L 832 486 
L 2330 486 
Q 2541 486 2665 569 
Q 2790 653 2944 915 
L 3034 877 
z
" transform="scale(0.015625)"/>
       <path id="STIXGeneral-Regular-29" d="M 186 4224 
L 262 4326 
Q 992 3891 1408 3148 
Q 1824 2406 1824 1581 
Q 1824 -166 243 -1133 
L 186 -1030 
Q 845 -486 1059 54 
Q 1274 595 1274 1562 
Q 1274 2534 1059 3120 
Q 845 3706 186 4224 
z
" transform="scale(0.015625)"/>
      </defs>
      <use xlink:href="#LiberationSans-48" transform="translate(0 0.409375)"/>
      <use xlink:href="#LiberationSans-46" transform="translate(72.216797 0.409375)"/>
      <use xlink:href="#LiberationSans-41" transform="translate(133.300781 0.409375)"/>
      <use xlink:href="#LiberationSans-43" transform="translate(200 0.409375)"/>
      <use xlink:href="#LiberationSans-46" transform="translate(272.216797 0.409375)"/>
      <use xlink:href="#LiberationSans-20" transform="translate(333.300781 0.409375)"/>
      <use xlink:href="#STIXGeneral-Regular-28" transform="translate(361.083984 0.409375)"/>
      <use xlink:href="#STIXGeneral-Regular-57" transform="translate(394.383972 0.409375)"/>
      <use xlink:href="#STIXGeneral-Regular-2f" transform="translate(488.783966 0.409375)"/>
      <use xlink:href="#STIXGeneral-Regular-6d" transform="translate(516.583954 0.409375)"/>
      <use xlink:href="#STIXGeneral-Regular-32" transform="translate(595.927223 35.684375) scale(0.7)"/>
      <use xlink:href="#STIXGeneral-Regular-29" transform="translate(635.336587 0.409375)"/>
      <use xlink:href="#STIXGeneral-Regular-32" transform="translate(670.179856 35.684375) scale(0.7)"/>
     </g>
    </g>
    <g id="text_15">
     <!-- $\times\mathdefault{10^{18}}\mathdefault{}$ -->
     <g transform="translate(79.5 36.1875) scale(0.4 -0.4)">
      <defs>
       <path id="STIXGeneral-Regular-d7" d="M 3821 141 
L 3526 -160 
L 2048 1312 
L 570 -160 
L 275 134 
L 1747 1613 
L 275 3091 
L 576 3386 
L 2048 1914 
L 3526 3386 
L 3821 3098 
L 2349 1613 
L 3821 141 
z
" transform="scale(0.015625)"/>
      </defs>
      <use xlink:href="#STIXGeneral-Regular-d7" transform="translate(0 0.140625)"/>
      <use xlink:href="#LiberationSans-31" transform="translate(63.999985 0.140625)"/>
      <use xlink:href="#LiberationSans-30" transform="translate(119.615219 0.140625)"/>
      <use xlink:href="#LiberationSans-31" transform="translate(176.154946 37.120312) scale(0.7)"/>
      <use xlink:href="#LiberationSans-38" transform="translate(215.08561 37.120312) scale(0.7)"/>
     </g>
    </g>
   </g>
   <g id="line2d_47">
    <path d="M 107.865545 66.514909 
L 108.489649 100.447632 
L 108.943543 151.617977 
L 109.681121 265.180763 
L 111.156277 495.617492 
L 111.780382 560.361696 
L 112.291012 593.346784 
L 112.68817 607.377231 
L 113.02859 612.488996 
L 113.198801 613.063091 
L 113.312274 612.80696 
L 113.539221 611.015805 
L 113.879642 605.759277 
L 114.503746 591.566299 
L 115.978902 557.058831 
L 120.347633 472.503299 
L 120.915001 466.258477 
L 121.368895 463.457218 
L 121.709315 462.520745 
L 121.936262 462.402702 
L 122.163209 462.61734 
L 122.446893 463.299036 
L 122.84405 464.868375 
L 123.581628 468.772635 
L 124.659627 474.201244 
L 125.340468 476.594901 
L 126.418467 479.57484 
L 127.893622 483.210441 
L 129.312042 486.126052 
L 130.106356 487.392486 
L 131.014144 488.626562 
L 131.638249 489.320663 
L 132.999931 491.01003 
L 133.850983 491.924582 
L 134.134666 492.028961 
L 134.475087 491.880105 
L 134.928981 491.232047 
L 135.553086 489.730071 
L 136.574347 486.346928 
L 137.311925 484.064958 
L 137.765819 483.170614 
L 138.162977 482.816868 
L 138.44666 482.808738 
L 138.787081 483.01925 
L 139.240975 483.618642 
L 139.808343 484.585803 
L 140.545921 485.871147 
L 141.170025 486.612879 
L 141.510446 486.739008 
L 142.077813 486.469793 
L 144.0636 484.771485 
L 144.744441 484.499828 
L 145.198335 484.392645 
L 145.99265 484.40826 
L 147.297596 484.388248 
L 147.978437 483.852435 
L 150.02096 481.449749 
L 150.418118 481.457683 
L 150.815275 481.769849 
L 151.439379 482.815913 
L 152.233694 484.84772 
L 153.311693 487.46442 
L 153.822323 488.279337 
L 154.219481 488.60673 
L 154.616638 488.719801 
L 154.957059 488.663852 
L 155.354216 488.415294 
L 155.864847 487.83913 
L 156.999582 486.318918 
L 157.623687 485.966049 
L 158.191054 485.944983 
L 158.871895 486.102902 
L 160.006631 486.37237 
L 160.347051 486.235885 
L 160.857682 485.788578 
L 161.538523 484.735408 
L 162.389575 482.975302 
L 163.52431 480.646774 
L 164.034941 479.990488 
L 164.488835 479.789419 
L 164.942729 479.893962 
L 165.396623 480.259364 
L 166.077464 481.218697 
L 167.041989 483.002852 
L 168.290198 485.192574 
L 168.971039 485.978424 
L 169.538407 486.313135 
L 170.049038 486.355367 
L 170.559669 486.159819 
L 171.24051 485.647021 
L 172.885876 484.355198 
L 173.50998 484.193759 
L 174.077348 484.261112 
L 174.928399 484.630458 
L 176.063135 485.109697 
L 176.687239 485.148556 
L 177.311343 484.94805 
L 178.105658 484.437394 
L 180.091445 483.011065 
L 180.715549 482.888659 
L 181.339654 483.00914 
L 182.020495 483.368685 
L 183.041757 484.145089 
L 184.573649 485.206213 
L 185.594911 485.623213 
L 186.672909 485.818316 
L 188.091329 485.87608 
L 188.885643 485.709053 
L 189.793431 485.285249 
L 190.928167 484.514808 
L 192.460059 483.479012 
L 193.197637 483.213698 
L 193.878478 483.172592 
L 194.55932 483.37235 
L 195.467108 483.894114 
L 197.452895 485.080491 
L 198.076999 485.166332 
L 198.75784 485.018883 
L 199.665628 484.555956 
L 201.481205 483.589199 
L 202.218783 483.470211 
L 203.013097 483.619015 
L 205.112358 484.209495 
L 206.133619 484.074124 
L 207.381828 483.881839 
L 208.23288 483.97889 
L 209.140668 484.284607 
L 210.445613 484.697506 
L 211.353402 484.730962 
L 213.112241 484.72907 
L 213.849819 484.981898 
L 214.587397 485.46499 
L 216.11929 486.566319 
L 216.686657 486.655725 
L 217.140551 486.52752 
L 217.651182 486.126655 
L 218.21855 485.350448 
L 218.956128 483.957261 
L 220.714968 480.499024 
L 221.225598 480.013524 
L 221.509282 479.962478 
L 221.90644 480.145622 
L 222.360334 480.626041 
L 223.097912 481.809945 
L 224.629804 484.360364 
L 225.253909 484.975162 
L 225.821276 485.236282 
L 226.502117 485.253548 
L 227.409906 484.990128 
L 228.260957 484.772147 
L 228.941798 484.813191 
L 229.736113 485.120466 
L 231.665163 485.986032 
L 232.346004 485.97431 
L 233.083582 485.714077 
L 234.104844 485.076187 
L 235.296316 484.368799 
L 236.374314 483.971253 
L 239.4381 483.169785 
L 240.232414 483.220516 
L 240.913255 483.502788 
L 241.764307 484.116674 
L 243.409673 485.367978 
L 244.203988 485.669423 
L 244.771355 485.655376 
L 245.39546 485.415031 
L 246.246511 484.807991 
L 248.572718 483.049796 
L 249.196823 482.909686 
L 249.820927 482.99921 
L 250.501768 483.333745 
L 251.296083 483.974972 
L 253.054923 485.491094 
L 253.849237 485.860764 
L 254.473342 485.925509 
L 255.154183 485.758579 
L 256.061971 485.261509 
L 258.671862 483.732949 
L 259.579651 483.49244 
L 260.657649 483.480569 
L 261.678911 483.694532 
L 263.210803 484.251655 
L 265.310064 485.274258 
L 266.388062 485.671709 
L 267.239114 485.732504 
L 268.033428 485.553695 
L 270.473109 484.862452 
L 271.267424 485.03589 
L 273.026264 485.578191 
L 273.593631 485.466475 
L 274.160999 485.104889 
L 274.728366 484.464339 
L 275.522681 483.187077 
L 277.338258 480.048936 
L 277.848888 479.596698 
L 278.189309 479.516644 
L 278.586466 479.683158 
L 279.097097 480.190685 
L 279.834675 481.313748 
L 281.650252 484.281676 
L 282.331093 484.965276 
L 283.011934 485.346286 
L 283.749512 485.514969 
L 286.245929 485.906636 
L 287.380665 486.138983 
L 288.288453 486.084986 
L 289.082768 485.774596 
L 290.330976 484.94708 
L 291.862869 484.032366 
L 292.884131 483.712309 
L 294.189076 483.555591 
L 295.947916 483.326727 
L 297.082651 483.309463 
L 297.876966 483.528224 
L 299.068438 484.165224 
L 300.600331 484.991352 
L 301.337909 485.16662 
L 301.962013 485.107662 
L 302.756328 484.790768 
L 304.912325 483.763418 
L 305.706639 483.656965 
L 306.614428 483.776347 
L 307.8059 484.195881 
L 308.997372 484.846256 
L 311.323579 486.193155 
L 312.00442 486.306424 
L 312.741998 486.156214 
L 313.479576 485.748131 
L 314.330627 485.000019 
L 316.089467 483.430795 
L 316.770308 483.195912 
L 317.394413 483.212691 
L 318.075254 483.455267 
L 319.153252 484.072778 
L 320.514935 484.795687 
L 321.422723 485.021137 
L 322.557458 485.03844 
L 323.692193 484.911097 
L 324.770192 484.59648 
L 326.529032 484.052299 
L 327.380083 484.058345 
L 328.287871 484.352623 
L 329.819764 484.992164 
L 330.443868 484.992501 
L 331.011236 484.740435 
L 331.578603 484.202661 
L 332.316181 483.145504 
L 334.131758 480.373905 
L 334.585652 480.111546 
L 334.926073 480.130707 
L 335.32323 480.405352 
L 335.833861 481.101193 
L 336.628175 482.659817 
L 337.989858 485.389877 
L 338.613962 486.167405 
L 339.067856 486.444058 
L 339.52175 486.475163 
L 340.032381 486.26155 
L 340.713222 485.683401 
L 342.188378 484.317966 
L 342.812483 484.039202 
L 343.436587 483.992936 
L 344.287639 484.173312 
L 345.535847 484.479815 
L 346.273425 484.445819 
L 347.294687 484.170993 
L 348.883316 483.691804 
L 349.904578 483.598217 
L 351.152787 483.765603 
L 352.287522 484.155115 
L 353.876152 484.955098 
L 355.975412 485.963422 
L 356.939937 486.121931 
L 357.904462 486.012885 
L 358.755513 485.626962 
L 359.833512 484.816123 
L 362.046245 483.009435 
L 362.67035 482.788264 
L 363.294454 482.773681 
L 363.975295 482.975046 
L 364.76961 483.468694 
L 368.400763 486.213881 
L 369.195078 486.384673 
L 369.989392 486.308609 
L 370.670234 486.004417 
L 371.464548 485.373898 
L 374.41486 482.740046 
L 375.152438 482.491854 
L 375.890016 482.502471 
L 376.570857 482.733109 
L 377.365172 483.229048 
L 379.521169 484.738669 
L 380.258747 484.928669 
L 381.053061 484.889826 
L 382.698427 484.641172 
L 383.379269 484.816021 
L 384.003373 485.202244 
L 384.797688 485.985457 
L 386.045896 487.256014 
L 386.556527 487.477322 
L 386.953685 487.442865 
L 387.407579 487.141847 
L 387.861473 486.53817 
L 388.485577 485.26937 
L 389.677049 482.103047 
L 390.584838 479.963652 
L 391.152205 479.156476 
L 391.549363 478.939391 
L 392.003257 479.113263 
L 392.400414 479.550857 
L 392.967782 480.537935 
L 394.272727 483.498895 
L 395.180515 485.293704 
L 395.861357 486.176897 
L 396.428724 486.552183 
L 396.939355 486.636893 
L 397.506723 486.493968 
L 398.471248 485.954947 
L 399.492509 485.477106 
L 400.400298 485.302169 
L 403.010189 484.973007 
L 408.967549 483.238296 
L 409.8186 483.306444 
L 410.669652 483.617447 
L 411.634177 484.215593 
L 413.166069 485.101387 
L 414.130594 485.349221 
L 415.038383 485.323052 
L 415.889434 485.105434 
L 419.066693 484.083242 
L 420.031218 484.147233 
L 420.995743 484.445782 
L 424.116265 485.782448 
L 425.534684 485.999794 
L 426.726156 485.982516 
L 427.633944 485.76123 
L 428.541732 485.235198 
L 430.073625 483.947126 
L 431.151623 483.170159 
L 431.945938 482.85057 
L 432.570043 482.773759 
L 433.364357 482.91919 
L 434.215409 483.326186 
L 436.8253 484.712778 
L 437.733088 484.9016 
L 438.811087 484.888966 
L 440.116032 484.881763 
L 440.910347 485.051619 
L 441.874872 485.456367 
L 442.95287 485.851667 
L 443.576975 485.837552 
L 444.144342 485.575388 
L 444.71171 485.020811 
L 445.392551 484.007389 
L 446.64076 481.680815 
L 447.435075 480.458592 
L 447.945705 480.003624 
L 448.342863 479.908236 
L 448.74002 480.074288 
L 449.193914 480.513334 
L 449.874755 481.505658 
L 451.576858 484.155188 
L 452.200963 484.719952 
L 452.825067 484.963481 
L 453.562645 484.966445 
L 456.115799 484.665206 
L 457.250535 485.005091 
L 458.839164 485.456631 
L 459.860426 485.485453 
L 461.108635 485.221454 
L 462.07316 484.832469 
L 463.207895 484.132197 
L 465.363892 482.732084 
L 465.987996 482.584735 
L 466.612101 482.681903 
L 467.179468 483.002651 
L 467.917046 483.711426 
L 470.186517 486.142098 
L 470.867358 486.464319 
L 471.434726 486.486663 
L 472.05883 486.269309 
L 472.853145 485.713161 
L 475.519773 483.605692 
L 476.25735 483.403117 
L 477.051665 483.416807 
L 477.902717 483.62627 
L 479.207662 484.258219 
L 481.250186 485.27622 
L 481.987764 485.359111 
L 482.782078 485.19339 
L 484.087024 484.591773 
L 485.448706 483.937128 
L 486.243021 483.795676 
L 487.207546 483.878124 
L 490.611752 484.341325 
L 492.881222 484.480591 
L 494.469852 484.57985 
L 497.249953 484.651964 
L 498.214478 485.031759 
L 499.746371 485.691071 
L 500.313738 485.700458 
L 500.937843 485.483382 
L 501.561947 484.969433 
L 502.242788 484.098552 
L 504.682469 480.585403 
L 505.079626 480.445861 
L 505.476784 480.556511 
L 505.930678 480.939791 
L 506.611519 481.879954 
L 508.654042 485.06821 
L 509.278147 485.578418 
L 509.845514 485.770321 
L 510.469619 485.736503 
L 511.15046 485.457247 
L 513.022773 484.546441 
L 513.930561 484.444743 
L 515.292244 484.527904 
L 516.256769 484.495141 
L 517.391504 484.234647 
L 519.774448 483.592285 
L 521.703498 483.347389 
L 522.781497 483.525146 
L 523.632548 483.941431 
L 524.426863 484.565829 
L 526.469386 486.300648 
L 527.206964 486.540105 
L 527.774332 486.52853 
L 528.341699 486.33036 
L 529.079277 485.817168 
L 531.972852 483.361159 
L 532.823904 483.076977 
L 533.788429 483.050673 
L 534.526007 483.232927 
L 535.263585 483.640306 
L 536.682004 484.811511 
L 537.760002 485.597206 
L 538.384107 485.808775 
L 539.008211 485.786855 
L 539.689052 485.532028 
L 541.107471 484.659769 
L 542.412417 483.915192 
L 543.320205 483.670606 
L 544.568414 483.6105 
L 548.48325 483.650948 
L 549.844933 484.001243 
L 553.362612 485.210438 
L 554.610821 485.844104 
L 556.312924 486.850374 
L 556.937028 486.912662 
L 557.447659 486.748679 
L 557.95829 486.334497 
L 558.525658 485.563321 
L 559.263235 484.162518 
L 561.362496 479.908973 
L 561.81639 479.508333 
L 562.213547 479.487555 
L 562.610705 479.718193 
L 563.121335 480.312195 
L 563.858913 481.578777 
L 565.67449 484.888996 
L 566.298594 485.539908 
L 566.865962 485.837169 
L 567.433329 485.871728 
L 568.114171 485.64321 
L 569.816274 484.944427 
L 570.610588 484.926936 
L 571.858797 485.215811 
L 572.766585 485.356753 
L 573.674373 485.243813 
L 574.468688 484.951029 
L 575.716897 484.250958 
L 578.099841 482.783404 
L 579.007629 482.48394 
L 579.745207 482.491333 
L 580.426048 482.746782 
L 581.106889 483.241596 
L 582.071414 484.26253 
L 583.660044 485.952859 
L 584.397622 486.407828 
L 584.964989 486.516053 
L 585.532357 486.396134 
L 586.269935 485.953524 
L 587.40467 484.958333 
L 588.879826 483.763454 
L 589.617404 483.463472 
L 590.354982 483.411824 
L 591.09256 483.59051 
L 591.943611 484.059908 
L 594.269819 485.476655 
L 595.007397 485.593278 
L 595.744974 485.46695 
L 597.04992 484.975946 
L 599.319391 484.154847 
L 600.397389 484.10231 
L 602.950543 484.143278 
L 604.312226 484.243947 
L 607.205801 484.727914 
L 608.000115 484.544778 
L 609.702218 483.965866 
L 610.326323 484.034378 
L 610.89369 484.329922 
L 611.574531 484.952997 
L 613.163161 486.607064 
L 613.673792 486.792336 
L 614.127686 486.707507 
L 614.58158 486.349805 
L 615.092211 485.613382 
L 615.773052 484.17909 
L 617.872312 479.385569 
L 618.326206 478.92758 
L 618.666627 478.847648 
L 619.007047 478.984266 
L 619.460942 479.4582 
L 620.028309 480.395729 
L 621.219781 482.942853 
L 622.184306 484.732633 
L 622.808411 485.481894 
L 623.375778 485.844071 
L 623.999883 485.960223 
L 624.794197 485.820322 
L 625.928933 485.60471 
L 626.723247 485.664457 
L 629.162928 486.037777 
L 629.957243 485.79898 
L 630.865031 485.277936 
L 634.325974 483.009514 
L 635.177025 482.817774 
L 636.084813 482.876333 
L 636.935865 483.172477 
L 637.90039 483.764874 
L 639.715966 484.956079 
L 640.510281 485.164842 
L 641.304596 485.158225 
L 642.09891 484.902515 
L 643.120172 484.258528 
L 644.595328 483.346099 
L 645.332906 483.160253 
L 645.900273 483.226098 
L 646.581115 483.534606 
L 647.488903 484.21021 
L 649.304479 485.656647 
L 650.042057 485.944872 
L 650.893109 486.040202 
L 651.687423 485.912798 
L 652.935632 485.419634 
L 655.091629 484.375697 
L 657.53131 483.150865 
L 658.552572 482.895895 
L 659.517097 482.880574 
L 660.368148 483.085244 
L 661.275936 483.571008 
L 663.034776 484.838846 
L 663.999301 485.406676 
L 664.680142 485.55784 
L 665.304247 485.468594 
L 666.098561 485.127292 
L 667.573717 484.456646 
L 668.254558 484.439077 
L 668.992136 484.653156 
L 670.750976 485.251918 
L 671.318343 485.164276 
L 671.828974 484.866027 
L 672.453079 484.232231 
L 673.644551 482.572075 
L 674.495602 481.548702 
L 675.006233 481.228033 
L 675.176443 481.192873 
L 675.176443 481.192873 
" clip-path="url(#p99fecc57cf)" style="fill: none; stroke: #0000ff; stroke-width: 1.5; stroke-linecap: square"/>
   </g>
   <g id="patch_3">
    <path d="M 79.5 640.3905 
L 79.5 39.1875 
" style="fill: none; stroke: #000000; stroke-width: 0.8; stroke-linejoin: miter; stroke-linecap: square"/>
   </g>
   <g id="patch_4">
    <path d="M 703.541988 640.3905 
L 703.541988 39.1875 
" style="fill: none; stroke: #000000; stroke-width: 0.8; stroke-linejoin: miter; stroke-linecap: square"/>
   </g>
   <g id="patch_5">
    <path d="M 79.5 640.3905 
L 703.541988 640.3905 
" style="fill: none; stroke: #000000; stroke-width: 0.8; stroke-linejoin: miter; stroke-linecap: square"/>
   </g>
   <g id="patch_6">
    <path d="M 79.5 39.1875 
L 703.541988 39.1875 
" style="fill: none; stroke: #000000; stroke-width: 0.8; stroke-linejoin: miter; stroke-linecap: square"/>
   </g>
  </g>
 </g>
 <defs>
  <clipPath id="p99fecc57cf">
   <rect x="79.5" y="39.1875" width="624.041988" height="601.203"/>
  </clipPath>
 </defs>
</svg>
