<?xml version="1.0" encoding="utf-8" standalone="no"?>
<!DOCTYPE svg PUBLIC "-//W3C//DTD SVG 1.1//EN"
  "http://www.w3.org/Graphics/SVG/1.1/DTD/svg11.dtd">
<svg xmlns:xlink="http://www.w3.org/1999/xlink" width="710.741988pt" height="711.02175pt" viewBox="0 0 710.741988 711.02175" xmlns="http://www.w3.org/2000/svg" version="1.1">
 <metadata>
  <rdf:RDF xmlns:dc="http://purl.org/dc/elements/1.1/" xmlns:cc="http://creativecommons.org/ns#" xmlns:rdf="http://www.w3.org/1999/02/22-rdf-syntax-ns#">
   <cc:Work>
    <dc:type rdf:resource="http://purl.org/dc/dcmitype/StillImage"/>
    <dc:date>2025-02-02T15:34:36.713091</dc:date>
    <dc:format>image/svg+xml</dc:format>
    <dc:creator>
     <cc:Agent>
      <dc:title>Matplotlib v3.9.3, https://matplotlib.org/</dc:title>
     </cc:Agent>
    </dc:creator>
   </cc:Work>
  </rdf:RDF>
 </metadata>
 <defs>
  <style type="text/css">*{stroke-linejoin: round; stroke-linecap: butt}</style>
 </defs>
 <g id="figure_1">
  <g id="patch_1">
   <path d="M 0 711.02175 
L 710.741988 711.02175 
L 710.741988 0 
L 0 0 
z
" style="fill: #ffffff"/>
  </g>
  <g id="axes_1">
   <g id="patch_2">
    <path d="M 79.5 640.3905 
L 703.541988 640.3905 
L 703.541988 39.1875 
L 79.5 39.1875 
z
" style="fill: #ffffff"/>
   </g>
   <g id="matplotlib.axis_1">
    <g id="xtick_1">
     <g id="line2d_1">
      <defs>
       <path id="m5122911185" d="M 0 0 
L 0 -3.5 
" style="stroke: #000000; stroke-width: 0.8"/>
      </defs>
      <g>
       <use xlink:href="#m5122911185" x="107.808808" y="640.3905" style="stroke: #000000; stroke-width: 0.8"/>
      </g>
     </g>
     <g id="text_1">
      <!-- 0 -->
      <g transform="translate(99.467402 665.631125) scale(0.3 -0.3)">
       <defs>
        <path id="LiberationSans-30" d="M 3309 2203 
Q 3309 1100 2920 518 
Q 2531 -63 1772 -63 
Q 1013 -63 631 515 
Q 250 1094 250 2203 
Q 250 3338 620 3903 
Q 991 4469 1791 4469 
Q 2569 4469 2939 3897 
Q 3309 3325 3309 2203 
z
M 2738 2203 
Q 2738 3156 2517 3584 
Q 2297 4013 1791 4013 
Q 1272 4013 1045 3591 
Q 819 3169 819 2203 
Q 819 1266 1048 831 
Q 1278 397 1778 397 
Q 2275 397 2506 840 
Q 2738 1284 2738 2203 
z
" transform="scale(0.015625)"/>
       </defs>
       <use xlink:href="#LiberationSans-30"/>
      </g>
     </g>
    </g>
    <g id="xtick_2">
     <g id="line2d_2">
      <g>
       <use xlink:href="#m5122911185" x="221.282335" y="640.3905" style="stroke: #000000; stroke-width: 0.8"/>
      </g>
     </g>
     <g id="text_2">
      <!-- 2 -->
      <g transform="translate(212.940929 665.631125) scale(0.3 -0.3)">
       <defs>
        <path id="LiberationSans-32" d="M 322 0 
L 322 397 
Q 481 763 711 1042 
Q 941 1322 1194 1548 
Q 1447 1775 1695 1969 
Q 1944 2163 2144 2356 
Q 2344 2550 2467 2762 
Q 2591 2975 2591 3244 
Q 2591 3606 2378 3806 
Q 2166 4006 1788 4006 
Q 1428 4006 1195 3811 
Q 963 3616 922 3263 
L 347 3316 
Q 409 3844 795 4156 
Q 1181 4469 1788 4469 
Q 2453 4469 2811 4155 
Q 3169 3841 3169 3263 
Q 3169 3006 3051 2753 
Q 2934 2500 2703 2247 
Q 2472 1994 1819 1463 
Q 1459 1169 1246 933 
Q 1034 697 941 478 
L 3238 478 
L 3238 0 
L 322 0 
z
" transform="scale(0.015625)"/>
       </defs>
       <use xlink:href="#LiberationSans-32"/>
      </g>
     </g>
    </g>
    <g id="xtick_3">
     <g id="line2d_3">
      <g>
       <use xlink:href="#m5122911185" x="334.755862" y="640.3905" style="stroke: #000000; stroke-width: 0.8"/>
      </g>
     </g>
     <g id="text_3">
      <!-- 4 -->
      <g transform="translate(326.414456 665.631125) scale(0.3 -0.3)">
       <defs>
        <path id="LiberationSans-34" d="M 2753 997 
L 2753 0 
L 2222 0 
L 2222 997 
L 147 997 
L 147 1434 
L 2163 4403 
L 2753 4403 
L 2753 1441 
L 3372 1441 
L 3372 997 
L 2753 997 
z
M 2222 3769 
Q 2216 3750 2134 3603 
Q 2053 3456 2013 3397 
L 884 1734 
L 716 1503 
L 666 1441 
L 2222 1441 
L 2222 3769 
z
" transform="scale(0.015625)"/>
       </defs>
       <use xlink:href="#LiberationSans-34"/>
      </g>
     </g>
    </g>
    <g id="xtick_4">
     <g id="line2d_4">
      <g>
       <use xlink:href="#m5122911185" x="448.229389" y="640.3905" style="stroke: #000000; stroke-width: 0.8"/>
      </g>
     </g>
     <g id="text_4">
      <!-- 6 -->
      <g transform="translate(439.887983 665.631125) scale(0.3 -0.3)">
       <defs>
        <path id="LiberationSans-36" d="M 3278 1441 
Q 3278 744 2900 340 
Q 2522 -63 1856 -63 
Q 1113 -63 719 490 
Q 325 1044 325 2100 
Q 325 3244 734 3856 
Q 1144 4469 1900 4469 
Q 2897 4469 3156 3572 
L 2619 3475 
Q 2453 4013 1894 4013 
Q 1413 4013 1148 3564 
Q 884 3116 884 2266 
Q 1038 2550 1316 2698 
Q 1594 2847 1953 2847 
Q 2563 2847 2920 2465 
Q 3278 2084 3278 1441 
z
M 2706 1416 
Q 2706 1894 2472 2153 
Q 2238 2413 1819 2413 
Q 1425 2413 1183 2183 
Q 941 1953 941 1550 
Q 941 1041 1192 716 
Q 1444 391 1838 391 
Q 2244 391 2475 664 
Q 2706 938 2706 1416 
z
" transform="scale(0.015625)"/>
       </defs>
       <use xlink:href="#LiberationSans-36"/>
      </g>
     </g>
    </g>
    <g id="xtick_5">
     <g id="line2d_5">
      <g>
       <use xlink:href="#m5122911185" x="561.702916" y="640.3905" style="stroke: #000000; stroke-width: 0.8"/>
      </g>
     </g>
     <g id="text_5">
      <!-- 8 -->
      <g transform="translate(553.36151 665.631125) scale(0.3 -0.3)">
       <defs>
        <path id="LiberationSans-38" d="M 3281 1228 
Q 3281 619 2893 278 
Q 2506 -63 1781 -63 
Q 1075 -63 676 271 
Q 278 606 278 1222 
Q 278 1653 525 1947 
Q 772 2241 1156 2303 
L 1156 2316 
Q 797 2400 589 2681 
Q 381 2963 381 3341 
Q 381 3844 757 4156 
Q 1134 4469 1769 4469 
Q 2419 4469 2795 4162 
Q 3172 3856 3172 3334 
Q 3172 2956 2962 2675 
Q 2753 2394 2391 2322 
L 2391 2309 
Q 2813 2241 3047 1952 
Q 3281 1663 3281 1228 
z
M 2588 3303 
Q 2588 4050 1769 4050 
Q 1372 4050 1164 3862 
Q 956 3675 956 3303 
Q 956 2925 1170 2726 
Q 1384 2528 1775 2528 
Q 2172 2528 2380 2711 
Q 2588 2894 2588 3303 
z
M 2697 1281 
Q 2697 1691 2453 1898 
Q 2209 2106 1769 2106 
Q 1341 2106 1100 1882 
Q 859 1659 859 1269 
Q 859 359 1788 359 
Q 2247 359 2472 579 
Q 2697 800 2697 1281 
z
" transform="scale(0.015625)"/>
       </defs>
       <use xlink:href="#LiberationSans-38"/>
      </g>
     </g>
    </g>
    <g id="xtick_6">
     <g id="line2d_6">
      <g>
       <use xlink:href="#m5122911185" x="675.176443" y="640.3905" style="stroke: #000000; stroke-width: 0.8"/>
      </g>
     </g>
     <g id="text_6">
      <!-- 10 -->
      <g transform="translate(658.493631 665.631125) scale(0.3 -0.3)">
       <defs>
        <path id="LiberationSans-31" d="M 488 0 
L 488 478 
L 1609 478 
L 1609 3866 
L 616 3156 
L 616 3688 
L 1656 4403 
L 2175 4403 
L 2175 478 
L 3247 478 
L 3247 0 
L 488 0 
z
" transform="scale(0.015625)"/>
       </defs>
       <use xlink:href="#LiberationSans-31"/>
       <use xlink:href="#LiberationSans-30" x="55.615234"/>
      </g>
     </g>
    </g>
    <g id="xtick_7">
     <g id="line2d_7">
      <defs>
       <path id="m40c648c3db" d="M 0 0 
L 0 -2 
" style="stroke: #000000; stroke-width: 0.6"/>
      </defs>
      <g>
       <use xlink:href="#m40c648c3db" x="136.17719" y="640.3905" style="stroke: #000000; stroke-width: 0.6"/>
      </g>
     </g>
    </g>
    <g id="xtick_8">
     <g id="line2d_8">
      <g>
       <use xlink:href="#m40c648c3db" x="164.545572" y="640.3905" style="stroke: #000000; stroke-width: 0.6"/>
      </g>
     </g>
    </g>
    <g id="xtick_9">
     <g id="line2d_9">
      <g>
       <use xlink:href="#m40c648c3db" x="192.913953" y="640.3905" style="stroke: #000000; stroke-width: 0.6"/>
      </g>
     </g>
    </g>
    <g id="xtick_10">
     <g id="line2d_10">
      <g>
       <use xlink:href="#m40c648c3db" x="249.650717" y="640.3905" style="stroke: #000000; stroke-width: 0.6"/>
      </g>
     </g>
    </g>
    <g id="xtick_11">
     <g id="line2d_11">
      <g>
       <use xlink:href="#m40c648c3db" x="278.019099" y="640.3905" style="stroke: #000000; stroke-width: 0.6"/>
      </g>
     </g>
    </g>
    <g id="xtick_12">
     <g id="line2d_12">
      <g>
       <use xlink:href="#m40c648c3db" x="306.38748" y="640.3905" style="stroke: #000000; stroke-width: 0.6"/>
      </g>
     </g>
    </g>
    <g id="xtick_13">
     <g id="line2d_13">
      <g>
       <use xlink:href="#m40c648c3db" x="363.124244" y="640.3905" style="stroke: #000000; stroke-width: 0.6"/>
      </g>
     </g>
    </g>
    <g id="xtick_14">
     <g id="line2d_14">
      <g>
       <use xlink:href="#m40c648c3db" x="391.492626" y="640.3905" style="stroke: #000000; stroke-width: 0.6"/>
      </g>
     </g>
    </g>
    <g id="xtick_15">
     <g id="line2d_15">
      <g>
       <use xlink:href="#m40c648c3db" x="419.861008" y="640.3905" style="stroke: #000000; stroke-width: 0.6"/>
      </g>
     </g>
    </g>
    <g id="xtick_16">
     <g id="line2d_16">
      <g>
       <use xlink:href="#m40c648c3db" x="476.597771" y="640.3905" style="stroke: #000000; stroke-width: 0.6"/>
      </g>
     </g>
    </g>
    <g id="xtick_17">
     <g id="line2d_17">
      <g>
       <use xlink:href="#m40c648c3db" x="504.966153" y="640.3905" style="stroke: #000000; stroke-width: 0.6"/>
      </g>
     </g>
    </g>
    <g id="xtick_18">
     <g id="line2d_18">
      <g>
       <use xlink:href="#m40c648c3db" x="533.334535" y="640.3905" style="stroke: #000000; stroke-width: 0.6"/>
      </g>
     </g>
    </g>
    <g id="xtick_19">
     <g id="line2d_19">
      <g>
       <use xlink:href="#m40c648c3db" x="590.071298" y="640.3905" style="stroke: #000000; stroke-width: 0.6"/>
      </g>
     </g>
    </g>
    <g id="xtick_20">
     <g id="line2d_20">
      <g>
       <use xlink:href="#m40c648c3db" x="618.43968" y="640.3905" style="stroke: #000000; stroke-width: 0.6"/>
      </g>
     </g>
    </g>
    <g id="xtick_21">
     <g id="line2d_21">
      <g>
       <use xlink:href="#m40c648c3db" x="646.808062" y="640.3905" style="stroke: #000000; stroke-width: 0.6"/>
      </g>
     </g>
    </g>
    <g id="text_7">
     <!-- Time ps -->
     <g transform="translate(338.744432 697.59675) scale(0.3 -0.3)">
      <defs>
       <path id="LiberationSans-54" d="M 2250 3916 
L 2250 0 
L 1656 0 
L 1656 3916 
L 144 3916 
L 144 4403 
L 3763 4403 
L 3763 3916 
L 2250 3916 
z
" transform="scale(0.015625)"/>
       <path id="LiberationSans-69" d="M 428 4100 
L 428 4638 
L 991 4638 
L 991 4100 
L 428 4100 
z
M 428 0 
L 428 3381 
L 991 3381 
L 991 0 
L 428 0 
z
" transform="scale(0.015625)"/>
       <path id="LiberationSans-6d" d="M 2400 0 
L 2400 2144 
Q 2400 2634 2265 2821 
Q 2131 3009 1781 3009 
Q 1422 3009 1212 2734 
Q 1003 2459 1003 1959 
L 1003 0 
L 444 0 
L 444 2659 
Q 444 3250 425 3381 
L 956 3381 
Q 959 3366 962 3297 
Q 966 3228 970 3139 
Q 975 3050 981 2803 
L 991 2803 
Q 1172 3163 1406 3303 
Q 1641 3444 1978 3444 
Q 2363 3444 2586 3291 
Q 2809 3138 2897 2803 
L 2906 2803 
Q 3081 3144 3329 3294 
Q 3578 3444 3931 3444 
Q 4444 3444 4676 3166 
Q 4909 2888 4909 2253 
L 4909 0 
L 4353 0 
L 4353 2144 
Q 4353 2634 4218 2821 
Q 4084 3009 3734 3009 
Q 3366 3009 3161 2736 
Q 2956 2463 2956 1959 
L 2956 0 
L 2400 0 
z
" transform="scale(0.015625)"/>
       <path id="LiberationSans-65" d="M 863 1572 
Q 863 991 1103 675 
Q 1344 359 1806 359 
Q 2172 359 2392 506 
Q 2613 653 2691 878 
L 3184 738 
Q 2881 -63 1806 -63 
Q 1056 -63 664 384 
Q 272 831 272 1713 
Q 272 2550 664 2997 
Q 1056 3444 1784 3444 
Q 3275 3444 3275 1647 
L 3275 1572 
L 863 1572 
z
M 2694 2003 
Q 2647 2538 2422 2783 
Q 2197 3028 1775 3028 
Q 1366 3028 1127 2754 
Q 888 2481 869 2003 
L 2694 2003 
z
" transform="scale(0.015625)"/>
       <path id="LiberationSans-20" transform="scale(0.015625)"/>
       <path id="LiberationSans-70" d="M 3291 1706 
Q 3291 -63 2047 -63 
Q 1266 -63 997 525 
L 981 525 
Q 994 500 994 -6 
L 994 -1328 
L 431 -1328 
L 431 2691 
Q 431 3213 413 3381 
L 956 3381 
Q 959 3369 965 3292 
Q 972 3216 980 3056 
Q 988 2897 988 2838 
L 1000 2838 
Q 1150 3150 1397 3295 
Q 1644 3441 2047 3441 
Q 2672 3441 2981 3022 
Q 3291 2603 3291 1706 
z
M 2700 1694 
Q 2700 2400 2509 2703 
Q 2319 3006 1903 3006 
Q 1569 3006 1380 2865 
Q 1191 2725 1092 2426 
Q 994 2128 994 1650 
Q 994 984 1206 668 
Q 1419 353 1897 353 
Q 2316 353 2508 661 
Q 2700 969 2700 1694 
z
" transform="scale(0.015625)"/>
       <path id="LiberationSans-73" d="M 2969 934 
Q 2969 456 2608 196 
Q 2247 -63 1597 -63 
Q 966 -63 623 145 
Q 281 353 178 794 
L 675 891 
Q 747 619 972 492 
Q 1197 366 1597 366 
Q 2025 366 2223 497 
Q 2422 628 2422 891 
Q 2422 1091 2284 1216 
Q 2147 1341 1841 1422 
L 1438 1528 
Q 953 1653 748 1773 
Q 544 1894 428 2066 
Q 313 2238 313 2488 
Q 313 2950 642 3192 
Q 972 3434 1603 3434 
Q 2163 3434 2492 3237 
Q 2822 3041 2909 2606 
L 2403 2544 
Q 2356 2769 2151 2889 
Q 1947 3009 1603 3009 
Q 1222 3009 1040 2893 
Q 859 2778 859 2544 
Q 859 2400 934 2306 
Q 1009 2213 1156 2147 
Q 1303 2081 1775 1966 
Q 2222 1853 2419 1758 
Q 2616 1663 2730 1547 
Q 2844 1431 2906 1279 
Q 2969 1128 2969 934 
z
" transform="scale(0.015625)"/>
      </defs>
      <use xlink:href="#LiberationSans-54"/>
      <use xlink:href="#LiberationSans-69" x="57.333984"/>
      <use xlink:href="#LiberationSans-6d" x="79.550781"/>
      <use xlink:href="#LiberationSans-65" x="162.851562"/>
      <use xlink:href="#LiberationSans-20" x="218.466797"/>
      <use xlink:href="#LiberationSans-70" x="246.25"/>
      <use xlink:href="#LiberationSans-73" x="301.865234"/>
     </g>
    </g>
   </g>
   <g id="matplotlib.axis_2">
    <g id="ytick_1">
     <g id="line2d_22">
      <defs>
       <path id="mb97929b5a9" d="M 0 0 
L 3.5 0 
" style="stroke: #000000; stroke-width: 0.8"/>
      </defs>
      <g>
       <use xlink:href="#mb97929b5a9" x="79.5" y="587.316753" style="stroke: #000000; stroke-width: 0.8"/>
      </g>
     </g>
     <g id="text_8">
      <!-- $\mathdefault{−2}$ -->
      <g transform="translate(41.5 598.187066) scale(0.3 -0.3)">
       <defs>
        <path id="LiberationSans-2212" d="M 316 1900 
L 316 2356 
L 3425 2356 
L 3425 1900 
L 316 1900 
z
" transform="scale(0.015625)"/>
       </defs>
       <use xlink:href="#LiberationSans-2212" transform="translate(0 0.171875)"/>
       <use xlink:href="#LiberationSans-32" transform="translate(58.398438 0.171875)"/>
      </g>
     </g>
    </g>
    <g id="ytick_2">
     <g id="line2d_23">
      <g>
       <use xlink:href="#mb97929b5a9" x="79.5" y="491.477132" style="stroke: #000000; stroke-width: 0.8"/>
      </g>
     </g>
     <g id="text_9">
      <!-- $\mathdefault{0}$ -->
      <g transform="translate(59.2 502.347445) scale(0.3 -0.3)">
       <use xlink:href="#LiberationSans-30" transform="translate(0 0.171875)"/>
      </g>
     </g>
    </g>
    <g id="ytick_3">
     <g id="line2d_24">
      <g>
       <use xlink:href="#mb97929b5a9" x="79.5" y="395.637511" style="stroke: #000000; stroke-width: 0.8"/>
      </g>
     </g>
     <g id="text_10">
      <!-- $\mathdefault{2}$ -->
      <g transform="translate(59.2 406.507824) scale(0.3 -0.3)">
       <use xlink:href="#LiberationSans-32" transform="translate(0 0.171875)"/>
      </g>
     </g>
    </g>
    <g id="ytick_4">
     <g id="line2d_25">
      <g>
       <use xlink:href="#mb97929b5a9" x="79.5" y="299.79789" style="stroke: #000000; stroke-width: 0.8"/>
      </g>
     </g>
     <g id="text_11">
      <!-- $\mathdefault{4}$ -->
      <g transform="translate(59.2 310.668202) scale(0.3 -0.3)">
       <use xlink:href="#LiberationSans-34" transform="translate(0 0.203125)"/>
      </g>
     </g>
    </g>
    <g id="ytick_5">
     <g id="line2d_26">
      <g>
       <use xlink:href="#mb97929b5a9" x="79.5" y="203.958269" style="stroke: #000000; stroke-width: 0.8"/>
      </g>
     </g>
     <g id="text_12">
      <!-- $\mathdefault{6}$ -->
      <g transform="translate(59.2 214.828581) scale(0.3 -0.3)">
       <use xlink:href="#LiberationSans-36" transform="translate(0 0.171875)"/>
      </g>
     </g>
    </g>
    <g id="ytick_6">
     <g id="line2d_27">
      <g>
       <use xlink:href="#mb97929b5a9" x="79.5" y="108.118648" style="stroke: #000000; stroke-width: 0.8"/>
      </g>
     </g>
     <g id="text_13">
      <!-- $\mathdefault{8}$ -->
      <g transform="translate(59.2 118.98896) scale(0.3 -0.3)">
       <use xlink:href="#LiberationSans-38" transform="translate(0 0.171875)"/>
      </g>
     </g>
    </g>
    <g id="ytick_7">
     <g id="line2d_28">
      <defs>
       <path id="m64587508a3" d="M 0 0 
L 2 0 
" style="stroke: #000000; stroke-width: 0.6"/>
      </defs>
      <g>
       <use xlink:href="#m64587508a3" x="79.5" y="635.236564" style="stroke: #000000; stroke-width: 0.6"/>
      </g>
     </g>
    </g>
    <g id="ytick_8">
     <g id="line2d_29">
      <g>
       <use xlink:href="#m64587508a3" x="79.5" y="611.276659" style="stroke: #000000; stroke-width: 0.6"/>
      </g>
     </g>
    </g>
    <g id="ytick_9">
     <g id="line2d_30">
      <g>
       <use xlink:href="#m64587508a3" x="79.5" y="563.356848" style="stroke: #000000; stroke-width: 0.6"/>
      </g>
     </g>
    </g>
    <g id="ytick_10">
     <g id="line2d_31">
      <g>
       <use xlink:href="#m64587508a3" x="79.5" y="539.396943" style="stroke: #000000; stroke-width: 0.6"/>
      </g>
     </g>
    </g>
    <g id="ytick_11">
     <g id="line2d_32">
      <g>
       <use xlink:href="#m64587508a3" x="79.5" y="515.437037" style="stroke: #000000; stroke-width: 0.6"/>
      </g>
     </g>
    </g>
    <g id="ytick_12">
     <g id="line2d_33">
      <g>
       <use xlink:href="#m64587508a3" x="79.5" y="467.517227" style="stroke: #000000; stroke-width: 0.6"/>
      </g>
     </g>
    </g>
    <g id="ytick_13">
     <g id="line2d_34">
      <g>
       <use xlink:href="#m64587508a3" x="79.5" y="443.557322" style="stroke: #000000; stroke-width: 0.6"/>
      </g>
     </g>
    </g>
    <g id="ytick_14">
     <g id="line2d_35">
      <g>
       <use xlink:href="#m64587508a3" x="79.5" y="419.597416" style="stroke: #000000; stroke-width: 0.6"/>
      </g>
     </g>
    </g>
    <g id="ytick_15">
     <g id="line2d_36">
      <g>
       <use xlink:href="#m64587508a3" x="79.5" y="371.677606" style="stroke: #000000; stroke-width: 0.6"/>
      </g>
     </g>
    </g>
    <g id="ytick_16">
     <g id="line2d_37">
      <g>
       <use xlink:href="#m64587508a3" x="79.5" y="347.7177" style="stroke: #000000; stroke-width: 0.6"/>
      </g>
     </g>
    </g>
    <g id="ytick_17">
     <g id="line2d_38">
      <g>
       <use xlink:href="#m64587508a3" x="79.5" y="323.757795" style="stroke: #000000; stroke-width: 0.6"/>
      </g>
     </g>
    </g>
    <g id="ytick_18">
     <g id="line2d_39">
      <g>
       <use xlink:href="#m64587508a3" x="79.5" y="275.837985" style="stroke: #000000; stroke-width: 0.6"/>
      </g>
     </g>
    </g>
    <g id="ytick_19">
     <g id="line2d_40">
      <g>
       <use xlink:href="#m64587508a3" x="79.5" y="251.878079" style="stroke: #000000; stroke-width: 0.6"/>
      </g>
     </g>
    </g>
    <g id="ytick_20">
     <g id="line2d_41">
      <g>
       <use xlink:href="#m64587508a3" x="79.5" y="227.918174" style="stroke: #000000; stroke-width: 0.6"/>
      </g>
     </g>
    </g>
    <g id="ytick_21">
     <g id="line2d_42">
      <g>
       <use xlink:href="#m64587508a3" x="79.5" y="179.998363" style="stroke: #000000; stroke-width: 0.6"/>
      </g>
     </g>
    </g>
    <g id="ytick_22">
     <g id="line2d_43">
      <g>
       <use xlink:href="#m64587508a3" x="79.5" y="156.038458" style="stroke: #000000; stroke-width: 0.6"/>
      </g>
     </g>
    </g>
    <g id="ytick_23">
     <g id="line2d_44">
      <g>
       <use xlink:href="#m64587508a3" x="79.5" y="132.078553" style="stroke: #000000; stroke-width: 0.6"/>
      </g>
     </g>
    </g>
    <g id="ytick_24">
     <g id="line2d_45">
      <g>
       <use xlink:href="#m64587508a3" x="79.5" y="84.158742" style="stroke: #000000; stroke-width: 0.6"/>
      </g>
     </g>
    </g>
    <g id="ytick_25">
     <g id="line2d_46">
      <g>
       <use xlink:href="#m64587508a3" x="79.5" y="60.198837" style="stroke: #000000; stroke-width: 0.6"/>
      </g>
     </g>
    </g>
    <g id="text_14">
     <!-- HFACF $(\mathrm{W} / \mathrm{m}^2)^2$ -->
     <g transform="translate(31.275 446.289) rotate(-90) scale(0.3 -0.3)">
      <defs>
       <path id="LiberationSans-48" d="M 3503 0 
L 3503 2041 
L 1122 2041 
L 1122 0 
L 525 0 
L 525 4403 
L 1122 4403 
L 1122 2541 
L 3503 2541 
L 3503 4403 
L 4100 4403 
L 4100 0 
L 3503 0 
z
" transform="scale(0.015625)"/>
       <path id="LiberationSans-46" d="M 1122 3916 
L 1122 2278 
L 3578 2278 
L 3578 1784 
L 1122 1784 
L 1122 0 
L 525 0 
L 525 4403 
L 3653 4403 
L 3653 3916 
L 1122 3916 
z
" transform="scale(0.015625)"/>
       <path id="LiberationSans-41" d="M 3647 0 
L 3144 1288 
L 1138 1288 
L 631 0 
L 13 0 
L 1809 4403 
L 2488 4403 
L 4256 0 
L 3647 0 
z
M 2141 3953 
L 2113 3866 
Q 2034 3606 1881 3200 
L 1319 1753 
L 2966 1753 
L 2400 3206 
Q 2313 3422 2225 3694 
L 2141 3953 
z
" transform="scale(0.015625)"/>
       <path id="LiberationSans-43" d="M 2475 3981 
Q 1744 3981 1337 3511 
Q 931 3041 931 2222 
Q 931 1413 1354 920 
Q 1778 428 2500 428 
Q 3425 428 3891 1344 
L 4378 1100 
Q 4106 531 3614 234 
Q 3122 -63 2472 -63 
Q 1806 -63 1320 214 
Q 834 491 579 1005 
Q 325 1519 325 2222 
Q 325 3275 894 3872 
Q 1463 4469 2469 4469 
Q 3172 4469 3644 4194 
Q 4116 3919 4338 3378 
L 3772 3191 
Q 3619 3575 3280 3778 
Q 2941 3981 2475 3981 
z
" transform="scale(0.015625)"/>
       <path id="STIXGeneral-Regular-28" d="M 1946 -1030 
L 1869 -1133 
Q 1126 -710 716 32 
Q 307 774 307 1613 
Q 307 3386 1888 4326 
L 1946 4224 
Q 1293 3667 1075 3126 
Q 858 2586 858 1632 
Q 858 685 1082 96 
Q 1306 -493 1946 -1030 
z
" transform="scale(0.015625)"/>
       <path id="STIXGeneral-Regular-57" d="M 5965 4237 
L 5965 4115 
Q 5709 4064 5616 3990 
Q 5523 3917 5434 3667 
Q 4704 1709 4128 -70 
L 4032 -70 
Q 3642 1011 3008 2637 
L 2022 -70 
L 1926 -70 
Q 1709 576 1277 1753 
Q 845 2931 698 3347 
Q 538 3808 406 3958 
Q 275 4109 32 4115 
L 32 4237 
L 1594 4237 
L 1594 4115 
Q 1357 4109 1270 4064 
Q 1184 4019 1184 3917 
Q 1184 3808 1254 3616 
L 2176 1210 
L 2842 3021 
L 2662 3501 
Q 2509 3917 2400 4013 
Q 2291 4109 2010 4115 
L 2010 4237 
L 3706 4237 
L 3706 4115 
Q 3213 4102 3213 3891 
Q 3213 3808 3322 3520 
L 4237 1190 
L 5043 3360 
Q 5152 3667 5152 3853 
Q 5152 4109 4704 4115 
L 4704 4237 
L 5965 4237 
z
" transform="scale(0.015625)"/>
       <path id="STIXGeneral-Regular-2f" d="M 1837 4326 
L 378 -90 
L -58 -90 
L 1408 4326 
L 1837 4326 
z
" transform="scale(0.015625)"/>
       <path id="STIXGeneral-Regular-6d" d="M 4960 0 
L 3565 0 
L 3565 96 
Q 3834 122 3907 208 
Q 3981 294 3981 576 
L 3981 1894 
Q 3981 2278 3869 2444 
Q 3757 2611 3488 2611 
Q 3264 2611 3107 2521 
Q 2950 2432 2803 2221 
L 2803 608 
Q 2803 301 2896 201 
Q 2989 102 3264 96 
L 3264 0 
L 1830 0 
L 1830 96 
Q 2112 115 2189 188 
Q 2266 262 2266 550 
L 2266 1901 
Q 2266 2611 1850 2611 
Q 1670 2611 1468 2531 
Q 1267 2451 1171 2336 
Q 1088 2240 1088 2227 
L 1088 448 
Q 1088 243 1177 176 
Q 1267 109 1523 96 
L 1523 0 
L 102 0 
L 102 96 
Q 371 102 460 195 
Q 550 288 550 563 
L 550 2150 
Q 550 2387 499 2480 
Q 448 2573 326 2573 
Q 230 2573 122 2547 
L 122 2656 
Q 557 2778 1011 2944 
L 1062 2925 
L 1062 2451 
L 1075 2451 
Q 1363 2752 1584 2848 
Q 1805 2944 2054 2944 
Q 2560 2944 2733 2406 
Q 3232 2944 3776 2944 
Q 4518 2944 4518 1792 
L 4518 493 
Q 4518 282 4582 202 
Q 4646 122 4794 109 
L 4960 96 
L 4960 0 
z
" transform="scale(0.015625)"/>
       <path id="STIXGeneral-Regular-32" d="M 3034 877 
L 2688 0 
L 186 0 
L 186 77 
L 1325 1286 
Q 1773 1754 1965 2144 
Q 2157 2534 2157 2950 
Q 2157 3379 1920 3616 
Q 1683 3853 1267 3853 
Q 922 3853 720 3673 
Q 518 3494 326 3021 
L 192 3053 
Q 301 3648 630 3987 
Q 960 4326 1523 4326 
Q 2054 4326 2380 4006 
Q 2707 3686 2707 3200 
Q 2707 2477 1888 1613 
L 832 486 
L 2330 486 
Q 2541 486 2665 569 
Q 2790 653 2944 915 
L 3034 877 
z
" transform="scale(0.015625)"/>
       <path id="STIXGeneral-Regular-29" d="M 186 4224 
L 262 4326 
Q 992 3891 1408 3148 
Q 1824 2406 1824 1581 
Q 1824 -166 243 -1133 
L 186 -1030 
Q 845 -486 1059 54 
Q 1274 595 1274 1562 
Q 1274 2534 1059 3120 
Q 845 3706 186 4224 
z
" transform="scale(0.015625)"/>
      </defs>
      <use xlink:href="#LiberationSans-48" transform="translate(0 0.409375)"/>
      <use xlink:href="#LiberationSans-46" transform="translate(72.216797 0.409375)"/>
      <use xlink:href="#LiberationSans-41" transform="translate(133.300781 0.409375)"/>
      <use xlink:href="#LiberationSans-43" transform="translate(200 0.409375)"/>
      <use xlink:href="#LiberationSans-46" transform="translate(272.216797 0.409375)"/>
      <use xlink:href="#LiberationSans-20" transform="translate(333.300781 0.409375)"/>
      <use xlink:href="#STIXGeneral-Regular-28" transform="translate(361.083984 0.409375)"/>
      <use xlink:href="#STIXGeneral-Regular-57" transform="translate(394.383972 0.409375)"/>
      <use xlink:href="#STIXGeneral-Regular-2f" transform="translate(488.783966 0.409375)"/>
      <use xlink:href="#STIXGeneral-Regular-6d" transform="translate(516.583954 0.409375)"/>
      <use xlink:href="#STIXGeneral-Regular-32" transform="translate(595.927223 35.684375) scale(0.7)"/>
      <use xlink:href="#STIXGeneral-Regular-29" transform="translate(635.336587 0.409375)"/>
      <use xlink:href="#STIXGeneral-Regular-32" transform="translate(670.179856 35.684375) scale(0.7)"/>
     </g>
    </g>
    <g id="text_15">
     <!-- $\times\mathdefault{10^{18}}\mathdefault{}$ -->
     <g transform="translate(79.5 36.1875) scale(0.4 -0.4)">
      <defs>
       <path id="STIXGeneral-Regular-d7" d="M 3821 141 
L 3526 -160 
L 2048 1312 
L 570 -160 
L 275 134 
L 1747 1613 
L 275 3091 
L 576 3386 
L 2048 1914 
L 3526 3386 
L 3821 3098 
L 2349 1613 
L 3821 141 
z
" transform="scale(0.015625)"/>
      </defs>
      <use xlink:href="#STIXGeneral-Regular-d7" transform="translate(0 0.140625)"/>
      <use xlink:href="#LiberationSans-31" transform="translate(63.999985 0.140625)"/>
      <use xlink:href="#LiberationSans-30" transform="translate(119.615219 0.140625)"/>
      <use xlink:href="#LiberationSans-31" transform="translate(176.154946 37.120312) scale(0.7)"/>
      <use xlink:href="#LiberationSans-38" transform="translate(215.08561 37.120312) scale(0.7)"/>
     </g>
    </g>
   </g>
   <g id="line2d_47">
    <path d="M 107.865545 66.514909 
L 108.319439 87.730601 
L 108.716596 125.307503 
L 109.283964 203.603237 
L 111.496698 538.287635 
L 112.064065 583.369565 
L 112.51796 603.793824 
L 112.85838 611.203826 
L 113.085327 612.967984 
L 113.142064 613.063091 
L 113.198801 613.026877 
L 113.312274 612.601489 
L 113.539221 610.467351 
L 113.879642 604.66664 
L 114.447009 590.605745 
L 116.71648 530.447988 
L 117.681005 512.416188 
L 118.588793 499.297898 
L 119.439845 490.151922 
L 120.120686 485.189864 
L 120.631317 482.926503 
L 121.028474 482.020116 
L 121.312158 481.781006 
L 121.595842 481.876671 
L 121.879526 482.254075 
L 122.33342 483.35196 
L 123.014261 485.78301 
L 125.226995 494.23295 
L 125.907836 495.736592 
L 126.475203 496.466112 
L 127.042571 496.771265 
L 127.553202 496.708203 
L 128.234043 496.207011 
L 128.744674 495.56771 
L 129.538989 494.237255 
L 132.602774 488.539572 
L 133.113405 488.118334 
L 133.680772 487.919498 
L 134.475087 488.005547 
L 135.155928 488.330201 
L 135.836769 488.926874 
L 136.460874 489.520732 
L 137.084978 489.921289 
L 138.333187 491.08272 
L 139.411185 491.946009 
L 140.148763 492.307067 
L 140.943078 492.486559 
L 141.79413 492.482399 
L 142.985602 492.192342 
L 144.857915 491.337274 
L 145.82244 491.034077 
L 146.560018 491.017957 
L 147.411069 491.238139 
L 149.567066 491.936243 
L 150.247907 491.853372 
L 151.098959 491.494256 
L 153.141482 490.499728 
L 153.765587 490.477735 
L 154.503165 490.698455 
L 155.410953 491.214167 
L 156.999582 492.124704 
L 157.73716 492.316537 
L 158.644948 492.310416 
L 160.006631 491.957676 
L 164.942729 490.198547 
L 165.79378 490.324458 
L 166.758305 490.70346 
L 169.48167 491.917247 
L 170.332722 491.944314 
L 171.297247 491.738421 
L 172.715666 491.437056 
L 173.50998 491.497428 
L 174.361032 491.771186 
L 176.970923 492.793546 
L 177.821974 492.797507 
L 178.729763 492.544459 
L 179.751024 491.981308 
L 180.999233 491.005651 
L 182.587862 489.736653 
L 183.32544 489.385195 
L 183.949545 489.31934 
L 184.573649 489.520684 
L 185.141017 489.928202 
L 186.048805 490.910357 
L 187.637434 492.674218 
L 188.261539 493.048761 
L 188.828906 493.15649 
L 189.396274 493.038049 
L 189.963642 492.727921 
L 190.928167 491.891378 
L 192.573533 490.408324 
L 193.538058 489.917837 
L 194.105425 489.876408 
L 194.672793 490.036135 
L 195.410371 490.492963 
L 197.963525 492.34023 
L 198.644367 492.49441 
L 199.438681 492.446817 
L 200.630153 492.095583 
L 202.672677 491.404195 
L 204.091096 491.175609 
L 206.133619 491.158273 
L 211.069718 491.300305 
L 212.828557 491.307914 
L 214.53066 491.598309 
L 216.800131 492.047777 
L 217.651182 491.987454 
L 218.445497 491.703166 
L 219.580232 490.997699 
L 220.828441 490.249665 
L 221.509282 490.064659 
L 222.133387 490.138463 
L 222.927701 490.468748 
L 224.232647 491.320229 
L 225.651066 492.181035 
L 226.445381 492.433314 
L 227.239695 492.462557 
L 228.03401 492.290891 
L 229.736113 491.635609 
L 230.927585 491.289349 
L 232.119057 491.161161 
L 233.424003 491.19802 
L 237.67926 491.318484 
L 240.516098 490.954016 
L 241.423886 491.137114 
L 242.785569 491.702852 
L 243.80683 492.03433 
L 244.487671 492.053038 
L 245.225249 491.823939 
L 246.019564 491.329907 
L 248.118824 489.895693 
L 248.799666 489.731296 
L 249.480507 489.80093 
L 250.218085 490.132396 
L 251.52303 491.011061 
L 252.771239 491.754389 
L 253.735764 492.089114 
L 254.586815 492.197057 
L 255.55134 492.101449 
L 256.742812 491.721385 
L 258.558389 491.073593 
L 259.466177 491.02073 
L 260.373965 491.205904 
L 263.43775 492.03239 
L 264.345539 491.910934 
L 265.707221 491.436232 
L 267.579534 490.760096 
L 268.487322 490.690756 
L 269.2249 490.852317 
L 269.962478 491.225432 
L 270.98374 492.010141 
L 272.515633 493.179012 
L 273.253211 493.454719 
L 273.820578 493.467305 
L 274.444683 493.266002 
L 275.182261 492.76093 
L 276.543943 491.437146 
L 277.565205 490.610336 
L 278.246046 490.322648 
L 278.926887 490.25027 
L 279.721202 490.39569 
L 280.855937 490.851876 
L 282.89846 491.648116 
L 283.976459 491.843032 
L 284.940984 491.858824 
L 286.926771 491.642388 
L 289.593398 491.407135 
L 297.309598 491.037218 
L 298.614544 491.222473 
L 300.146436 491.702412 
L 301.962013 492.222824 
L 302.699591 492.208489 
L 303.493906 491.963173 
L 304.344957 491.461018 
L 306.160533 490.257891 
L 306.841375 490.100279 
L 307.465479 490.15693 
L 308.259794 490.474757 
L 309.848423 491.498755 
L 310.869685 492.021374 
L 311.777473 492.212176 
L 312.628524 492.140582 
L 313.876733 491.726276 
L 316.089467 490.951764 
L 317.167466 490.886519 
L 318.472411 491.127409 
L 321.082302 491.738531 
L 322.103564 491.603295 
L 324.373035 491.097283 
L 325.394296 491.199349 
L 326.472295 491.512674 
L 328.571555 492.118571 
L 329.649554 492.206243 
L 330.670815 492.083032 
L 331.692077 491.707335 
L 332.883549 490.976599 
L 334.415442 490.0809 
L 335.15302 489.948151 
L 335.833861 490.039365 
L 336.628175 490.399804 
L 337.933121 491.324918 
L 339.01112 491.982786 
L 339.805434 492.210928 
L 340.486275 492.212465 
L 341.4508 491.985262 
L 343.606797 491.388773 
L 344.96848 491.38132 
L 347.06774 491.439671 
L 349.110263 491.409368 
L 350.585419 491.703318 
L 352.003838 491.97154 
L 353.0251 491.910022 
L 354.330046 491.555612 
L 355.521518 491.300673 
L 356.429306 491.30752 
L 357.734251 491.5607 
L 359.209407 491.800014 
L 360.173932 491.684047 
L 361.138457 491.284086 
L 363.180981 490.281965 
L 364.76961 490.307765 
L 365.790872 490.811271 
L 367.436238 491.701721 
L 368.230553 491.89262 
L 369.138341 491.852981 
L 370.613497 491.427182 
L 372.031916 491.067652 
L 373.109914 491.034797 
L 374.58507 491.249178 
L 377.421908 491.919137 
L 379.407695 492.400749 
L 380.37222 492.404034 
L 381.450219 492.151984 
L 383.946636 491.451538 
L 384.967898 491.533103 
L 387.691263 491.901363 
L 388.428841 491.62192 
L 389.620313 490.851514 
L 390.698311 490.23775 
L 391.322415 490.117287 
L 391.94652 490.237197 
L 392.627361 490.63407 
L 393.762096 491.651501 
L 394.896832 492.556713 
L 395.577673 492.828545 
L 396.201777 492.851561 
L 396.939355 492.623516 
L 397.90388 492.045496 
L 399.83293 490.810603 
L 400.627245 490.574021 
L 401.364823 490.55719 
L 402.272611 490.749708 
L 404.485345 491.375783 
L 405.336396 491.388378 
L 406.471131 491.166472 
L 408.343445 490.82203 
L 409.194496 490.895094 
L 410.272494 491.232583 
L 413.166069 492.423385 
L 414.187331 492.511465 
L 415.378803 492.361341 
L 416.456802 492.034235 
L 417.648274 491.439535 
L 419.690797 490.44102 
L 420.485112 490.4268 
L 421.22269 490.646584 
L 422.470899 491.313763 
L 423.49216 491.787474 
L 424.229738 491.912278 
L 424.910579 491.828651 
L 425.761631 491.509356 
L 428.087838 490.510743 
L 428.882153 490.464114 
L 429.619731 490.623334 
L 430.527519 491.057088 
L 433.591304 492.783264 
L 434.328882 492.869296 
L 435.23667 492.723957 
L 436.201195 492.32926 
L 438.981297 491.061443 
L 439.832348 491.045703 
L 440.967084 491.287007 
L 442.95287 491.673771 
L 443.917395 491.579253 
L 445.222341 491.146427 
L 447.662022 490.294846 
L 448.683283 490.286617 
L 449.477598 490.467241 
L 450.442123 490.951941 
L 453.222224 492.591257 
L 453.903066 492.636794 
L 454.640644 492.460396 
L 457.590955 491.376474 
L 458.442007 491.45429 
L 461.449055 491.974248 
L 463.037685 491.822031 
L 468.881571 491.259257 
L 469.95957 491.529964 
L 471.718409 491.971144 
L 472.569461 491.913202 
L 473.420512 491.596395 
L 476.370824 490.07303 
L 477.051665 490.129907 
L 477.732506 490.408122 
L 478.810505 491.180453 
L 481.023239 492.875956 
L 481.817553 493.160464 
L 482.441658 493.179233 
L 483.179236 492.944232 
L 483.916814 492.469775 
L 486.526705 490.586331 
L 487.150809 490.51694 
L 487.718177 490.645698 
L 488.569228 491.095739 
L 490.157858 492.033445 
L 490.838699 492.210834 
L 491.633013 492.193032 
L 492.654275 491.904308 
L 495.207429 491.111186 
L 496.058481 491.141261 
L 497.079743 491.434064 
L 499.349213 492.153564 
L 500.257001 492.095457 
L 501.391737 491.723026 
L 503.547734 490.946016 
L 504.342048 490.923655 
L 505.1931 491.122155 
L 505.930678 491.449541 
L 507.235623 492.342562 
L 508.256885 492.876278 
L 508.937726 492.949784 
L 509.561831 492.776709 
L 510.242672 492.359418 
L 512.795826 490.583756 
L 513.533404 490.49225 
L 514.384456 490.616361 
L 516.370242 491.031118 
L 519.093607 491.241642 
L 519.944658 491.634037 
L 521.987182 492.723028 
L 522.72476 492.819847 
L 523.746022 492.656124 
L 525.391388 492.376217 
L 526.469386 492.522677 
L 527.660858 492.679425 
L 528.341699 492.522648 
L 529.022541 492.100686 
L 529.873592 491.250306 
L 531.632432 489.380123 
L 532.256536 489.064197 
L 532.767167 489.01805 
L 533.391271 489.21614 
L 535.377058 490.578793 
L 536.455057 491.322997 
L 537.249371 491.615692 
L 538.043686 491.657211 
L 539.008211 491.447868 
L 542.071996 490.644644 
L 542.866311 490.808719 
L 543.887573 491.296252 
L 546.04357 492.355817 
L 546.894621 492.457534 
L 547.859146 492.375317 
L 549.164092 492.067177 
L 550.582511 491.552609 
L 552.284614 490.955526 
L 553.192402 490.882452 
L 554.10019 491.056314 
L 555.461872 491.57378 
L 556.539871 491.864919 
L 557.334186 491.812682 
L 558.071763 491.510285 
L 559.036288 490.815359 
L 560.624918 489.670023 
L 561.249022 489.483296 
L 561.9866 489.509553 
L 562.610705 489.692818 
L 563.405019 490.197107 
L 566.241857 492.252149 
L 567.036172 492.405652 
L 567.887224 492.310398 
L 569.021959 491.938291 
L 570.440378 491.552345 
L 571.404903 491.574947 
L 572.596375 491.864552 
L 573.844584 492.107377 
L 574.695635 492.029098 
L 575.603423 491.736089 
L 577.305526 491.180697 
L 578.213315 491.155334 
L 579.234576 491.409753 
L 580.539522 492.002405 
L 582.355098 492.818466 
L 583.20615 492.951789 
L 583.943728 492.8386 
L 584.681306 492.486004 
L 585.532357 491.824563 
L 588.539405 489.205412 
L 589.16351 489.038195 
L 589.730877 489.100592 
L 590.241508 489.353885 
L 591.149297 490.225981 
L 592.737926 491.771332 
L 593.418767 492.145081 
L 594.099608 492.270411 
L 594.893923 492.147469 
L 596.482552 491.526552 
L 597.560551 491.20638 
L 598.638549 491.122969 
L 599.603074 491.270873 
L 600.794546 491.687638 
L 602.553386 492.306446 
L 603.347701 492.33278 
L 604.198752 492.102557 
L 605.503698 491.440995 
L 606.581696 490.980107 
L 607.432748 490.869727 
L 608.340536 491.007121 
L 611.574531 491.803118 
L 614.808527 492.085702 
L 615.659578 491.879951 
L 616.397156 491.479089 
L 617.815575 490.337012 
L 618.7801 489.674056 
L 619.460942 489.500014 
L 620.085046 489.61275 
L 620.765887 489.990168 
L 622.127569 491.115026 
L 623.319042 491.970094 
L 624.22683 492.373546 
L 625.361565 492.607418 
L 626.836721 492.642484 
L 627.971456 492.481732 
L 629.673559 491.94186 
L 631.148715 491.4937 
L 637.333022 490.389843 
L 638.127337 490.625518 
L 639.318809 491.246189 
L 640.964175 492.049539 
L 641.871963 492.264874 
L 642.779751 492.26177 
L 643.630803 492.026988 
L 644.538591 491.489473 
L 645.843537 490.323432 
L 646.864798 489.512088 
L 647.88606 489.339933 
L 648.453428 489.546538 
L 649.134269 490.053044 
L 650.552688 491.558138 
L 651.57395 492.481101 
L 652.311528 492.896122 
L 653.049106 493.087144 
L 654.013631 493.070214 
L 655.318576 492.726173 
L 656.736995 492.049454 
L 658.836255 491.011401 
L 659.857517 490.823865 
L 660.708569 490.884255 
L 662.013514 491.212852 
L 663.715617 491.576461 
L 665.134036 491.6241 
L 666.438982 491.723558 
L 667.573717 492.056845 
L 669.956661 492.844306 
L 670.694239 492.774426 
L 671.37508 492.492103 
L 672.226132 491.884825 
L 674.438865 490.118678 
L 675.119707 489.933769 
L 675.176443 489.930242 
L 675.176443 489.930242 
" clip-path="url(#p0bd57a9c7d)" style="fill: none; stroke: #0000ff; stroke-width: 1.5; stroke-linecap: square"/>
   </g>
   <g id="patch_3">
    <path d="M 79.5 640.3905 
L 79.5 39.1875 
" style="fill: none; stroke: #000000; stroke-width: 0.8; stroke-linejoin: miter; stroke-linecap: square"/>
   </g>
   <g id="patch_4">
    <path d="M 703.541988 640.3905 
L 703.541988 39.1875 
" style="fill: none; stroke: #000000; stroke-width: 0.8; stroke-linejoin: miter; stroke-linecap: square"/>
   </g>
   <g id="patch_5">
    <path d="M 79.5 640.3905 
L 703.541988 640.3905 
" style="fill: none; stroke: #000000; stroke-width: 0.8; stroke-linejoin: miter; stroke-linecap: square"/>
   </g>
   <g id="patch_6">
    <path d="M 79.5 39.1875 
L 703.541988 39.1875 
" style="fill: none; stroke: #000000; stroke-width: 0.8; stroke-linejoin: miter; stroke-linecap: square"/>
   </g>
  </g>
 </g>
 <defs>
  <clipPath id="p0bd57a9c7d">
   <rect x="79.5" y="39.1875" width="624.041988" height="601.203"/>
  </clipPath>
 </defs>
</svg>
