<?xml version="1.0" encoding="utf-8" standalone="no"?>
<!DOCTYPE svg PUBLIC "-//W3C//DTD SVG 1.1//EN"
  "http://www.w3.org/Graphics/SVG/1.1/DTD/svg11.dtd">
<svg xmlns:xlink="http://www.w3.org/1999/xlink" width="711.967109pt" height="711.490062pt" viewBox="0 0 711.967109 711.490062" xmlns="http://www.w3.org/2000/svg" version="1.1">
 <metadata>
  <rdf:RDF xmlns:dc="http://purl.org/dc/elements/1.1/" xmlns:cc="http://creativecommons.org/ns#" xmlns:rdf="http://www.w3.org/1999/02/22-rdf-syntax-ns#">
   <cc:Work>
    <dc:type rdf:resource="http://purl.org/dc/dcmitype/StillImage"/>
    <dc:date>2025-02-02T15:07:40.904816</dc:date>
    <dc:format>image/svg+xml</dc:format>
    <dc:creator>
     <cc:Agent>
      <dc:title>Matplotlib v3.9.3, https://matplotlib.org/</dc:title>
     </cc:Agent>
    </dc:creator>
   </cc:Work>
  </rdf:RDF>
 </metadata>
 <defs>
  <style type="text/css">*{stroke-linejoin: round; stroke-linecap: butt}</style>
 </defs>
 <g id="figure_1">
  <g id="patch_1">
   <path d="M 0 711.490062 
L 711.967109 711.490062 
L 711.967109 0 
L 0 0 
z
" style="fill: #ffffff"/>
  </g>
  <g id="axes_1">
   <g id="patch_2">
    <path d="M 75.804688 635.3335 
L 704.767109 635.3335 
L 704.767109 39.1875 
L 75.804688 39.1875 
z
" style="fill: #ffffff"/>
   </g>
   <g id="matplotlib.axis_1">
    <g id="xtick_1">
     <g id="line2d_1">
      <defs>
       <path id="m443e963119" d="M 0 0 
L 0 -3.5 
" style="stroke: #000000; stroke-width: 0.8"/>
      </defs>
      <g>
       <use xlink:href="#m443e963119" x="232.895678" y="635.3335" style="stroke: #000000; stroke-width: 0.8"/>
      </g>
     </g>
     <g id="text_1">
      <!-- $\mathdefault{−1}$ -->
      <g transform="translate(217.370678 658.400062) scale(0.27 -0.27)">
       <defs>
        <path id="LiberationSans-2212" d="M 316 1900 
L 316 2356 
L 3425 2356 
L 3425 1900 
L 316 1900 
z
" transform="scale(0.015625)"/>
        <path id="LiberationSans-31" d="M 488 0 
L 488 478 
L 1609 478 
L 1609 3866 
L 616 3156 
L 616 3688 
L 1656 4403 
L 2175 4403 
L 2175 478 
L 3247 478 
L 3247 0 
L 488 0 
z
" transform="scale(0.015625)"/>
       </defs>
       <use xlink:href="#LiberationSans-2212" transform="translate(0 0.203125)"/>
       <use xlink:href="#LiberationSans-31" transform="translate(58.398438 0.203125)"/>
      </g>
     </g>
    </g>
    <g id="xtick_2">
     <g id="line2d_2">
      <g>
       <use xlink:href="#m443e963119" x="390.285898" y="635.3335" style="stroke: #000000; stroke-width: 0.8"/>
      </g>
     </g>
     <g id="text_2">
      <!-- $\mathdefault{0}$ -->
      <g transform="translate(382.725898 658.400062) scale(0.27 -0.27)">
       <defs>
        <path id="LiberationSans-30" d="M 3309 2203 
Q 3309 1100 2920 518 
Q 2531 -63 1772 -63 
Q 1013 -63 631 515 
Q 250 1094 250 2203 
Q 250 3338 620 3903 
Q 991 4469 1791 4469 
Q 2569 4469 2939 3897 
Q 3309 3325 3309 2203 
z
M 2738 2203 
Q 2738 3156 2517 3584 
Q 2297 4013 1791 4013 
Q 1272 4013 1045 3591 
Q 819 3169 819 2203 
Q 819 1266 1048 831 
Q 1278 397 1778 397 
Q 2275 397 2506 840 
Q 2738 1284 2738 2203 
z
" transform="scale(0.015625)"/>
       </defs>
       <use xlink:href="#LiberationSans-30" transform="translate(0 0.171875)"/>
      </g>
     </g>
    </g>
    <g id="xtick_3">
     <g id="line2d_3">
      <g>
       <use xlink:href="#m443e963119" x="547.676119" y="635.3335" style="stroke: #000000; stroke-width: 0.8"/>
      </g>
     </g>
     <g id="text_3">
      <!-- $\mathdefault{1}$ -->
      <g transform="translate(540.116119 658.400062) scale(0.27 -0.27)">
       <use xlink:href="#LiberationSans-31" transform="translate(0 0.203125)"/>
      </g>
     </g>
    </g>
    <g id="xtick_4">
     <g id="line2d_4">
      <defs>
       <path id="m0dc3a71b23" d="M 0 0 
L 0 -2 
" style="stroke: #000000; stroke-width: 0.6"/>
      </defs>
      <g>
       <use xlink:href="#m0dc3a71b23" x="106.983502" y="635.3335" style="stroke: #000000; stroke-width: 0.6"/>
      </g>
     </g>
    </g>
    <g id="xtick_5">
     <g id="line2d_5">
      <g>
       <use xlink:href="#m0dc3a71b23" x="138.461546" y="635.3335" style="stroke: #000000; stroke-width: 0.6"/>
      </g>
     </g>
    </g>
    <g id="xtick_6">
     <g id="line2d_6">
      <g>
       <use xlink:href="#m0dc3a71b23" x="169.93959" y="635.3335" style="stroke: #000000; stroke-width: 0.6"/>
      </g>
     </g>
    </g>
    <g id="xtick_7">
     <g id="line2d_7">
      <g>
       <use xlink:href="#m0dc3a71b23" x="201.417634" y="635.3335" style="stroke: #000000; stroke-width: 0.6"/>
      </g>
     </g>
    </g>
    <g id="xtick_8">
     <g id="line2d_8">
      <g>
       <use xlink:href="#m0dc3a71b23" x="264.373722" y="635.3335" style="stroke: #000000; stroke-width: 0.6"/>
      </g>
     </g>
    </g>
    <g id="xtick_9">
     <g id="line2d_9">
      <g>
       <use xlink:href="#m0dc3a71b23" x="295.851766" y="635.3335" style="stroke: #000000; stroke-width: 0.6"/>
      </g>
     </g>
    </g>
    <g id="xtick_10">
     <g id="line2d_10">
      <g>
       <use xlink:href="#m0dc3a71b23" x="327.32981" y="635.3335" style="stroke: #000000; stroke-width: 0.6"/>
      </g>
     </g>
    </g>
    <g id="xtick_11">
     <g id="line2d_11">
      <g>
       <use xlink:href="#m0dc3a71b23" x="358.807854" y="635.3335" style="stroke: #000000; stroke-width: 0.6"/>
      </g>
     </g>
    </g>
    <g id="xtick_12">
     <g id="line2d_12">
      <g>
       <use xlink:href="#m0dc3a71b23" x="421.763943" y="635.3335" style="stroke: #000000; stroke-width: 0.6"/>
      </g>
     </g>
    </g>
    <g id="xtick_13">
     <g id="line2d_13">
      <g>
       <use xlink:href="#m0dc3a71b23" x="453.241987" y="635.3335" style="stroke: #000000; stroke-width: 0.6"/>
      </g>
     </g>
    </g>
    <g id="xtick_14">
     <g id="line2d_14">
      <g>
       <use xlink:href="#m0dc3a71b23" x="484.720031" y="635.3335" style="stroke: #000000; stroke-width: 0.6"/>
      </g>
     </g>
    </g>
    <g id="xtick_15">
     <g id="line2d_15">
      <g>
       <use xlink:href="#m0dc3a71b23" x="516.198075" y="635.3335" style="stroke: #000000; stroke-width: 0.6"/>
      </g>
     </g>
    </g>
    <g id="xtick_16">
     <g id="line2d_16">
      <g>
       <use xlink:href="#m0dc3a71b23" x="579.154163" y="635.3335" style="stroke: #000000; stroke-width: 0.6"/>
      </g>
     </g>
    </g>
    <g id="xtick_17">
     <g id="line2d_17">
      <g>
       <use xlink:href="#m0dc3a71b23" x="610.632207" y="635.3335" style="stroke: #000000; stroke-width: 0.6"/>
      </g>
     </g>
    </g>
    <g id="xtick_18">
     <g id="line2d_18">
      <g>
       <use xlink:href="#m0dc3a71b23" x="642.110251" y="635.3335" style="stroke: #000000; stroke-width: 0.6"/>
      </g>
     </g>
    </g>
    <g id="xtick_19">
     <g id="line2d_19">
      <g>
       <use xlink:href="#m0dc3a71b23" x="673.588295" y="635.3335" style="stroke: #000000; stroke-width: 0.6"/>
      </g>
     </g>
    </g>
    <g id="text_4">
     <!-- Value -->
     <g transform="translate(359.239023 686.11975) scale(0.25 -0.25)">
      <defs>
       <path id="LiberationSans-56" d="M 2444 0 
L 1825 0 
L 28 4403 
L 656 4403 
L 1875 1303 
L 2138 525 
L 2400 1303 
L 3613 4403 
L 4241 4403 
L 2444 0 
z
" transform="scale(0.015625)"/>
       <path id="LiberationSans-61" d="M 1294 -63 
Q 784 -63 528 206 
Q 272 475 272 944 
Q 272 1469 617 1750 
Q 963 2031 1731 2050 
L 2491 2063 
L 2491 2247 
Q 2491 2659 2316 2837 
Q 2141 3016 1766 3016 
Q 1388 3016 1216 2887 
Q 1044 2759 1009 2478 
L 422 2531 
Q 566 3444 1778 3444 
Q 2416 3444 2737 3151 
Q 3059 2859 3059 2306 
L 3059 850 
Q 3059 600 3125 473 
Q 3191 347 3375 347 
Q 3456 347 3559 369 
L 3559 19 
Q 3347 -31 3125 -31 
Q 2813 -31 2670 133 
Q 2528 297 2509 647 
L 2491 647 
Q 2275 259 1989 98 
Q 1703 -63 1294 -63 
z
M 1422 359 
Q 1731 359 1972 500 
Q 2213 641 2352 886 
Q 2491 1131 2491 1391 
L 2491 1669 
L 1875 1656 
Q 1478 1650 1273 1575 
Q 1069 1500 959 1344 
Q 850 1188 850 934 
Q 850 659 998 509 
Q 1147 359 1422 359 
z
" transform="scale(0.015625)"/>
       <path id="LiberationSans-6c" d="M 431 0 
L 431 4638 
L 994 4638 
L 994 0 
L 431 0 
z
" transform="scale(0.015625)"/>
       <path id="LiberationSans-75" d="M 981 3381 
L 981 1238 
Q 981 903 1047 718 
Q 1113 534 1256 453 
Q 1400 372 1678 372 
Q 2084 372 2318 650 
Q 2553 928 2553 1422 
L 2553 3381 
L 3116 3381 
L 3116 722 
Q 3116 131 3134 0 
L 2603 0 
Q 2600 16 2597 84 
Q 2594 153 2589 242 
Q 2584 331 2578 578 
L 2569 578 
Q 2375 228 2120 82 
Q 1866 -63 1488 -63 
Q 931 -63 673 214 
Q 416 491 416 1128 
L 416 3381 
L 981 3381 
z
" transform="scale(0.015625)"/>
       <path id="LiberationSans-65" d="M 863 1572 
Q 863 991 1103 675 
Q 1344 359 1806 359 
Q 2172 359 2392 506 
Q 2613 653 2691 878 
L 3184 738 
Q 2881 -63 1806 -63 
Q 1056 -63 664 384 
Q 272 831 272 1713 
Q 272 2550 664 2997 
Q 1056 3444 1784 3444 
Q 3275 3444 3275 1647 
L 3275 1572 
L 863 1572 
z
M 2694 2003 
Q 2647 2538 2422 2783 
Q 2197 3028 1775 3028 
Q 1366 3028 1127 2754 
Q 888 2481 869 2003 
L 2694 2003 
z
" transform="scale(0.015625)"/>
      </defs>
      <use xlink:href="#LiberationSans-56"/>
      <use xlink:href="#LiberationSans-61" x="59.324219"/>
      <use xlink:href="#LiberationSans-6c" x="114.939453"/>
      <use xlink:href="#LiberationSans-75" x="137.15625"/>
      <use xlink:href="#LiberationSans-65" x="192.771484"/>
     </g>
    </g>
    <g id="text_5">
     <!-- $\times\mathdefault{10^{10}}\mathdefault{}$ -->
     <g transform="translate(601.967109 695.990062) scale(0.4 -0.4)">
      <defs>
       <path id="STIXGeneral-Regular-d7" d="M 3821 141 
L 3526 -160 
L 2048 1312 
L 570 -160 
L 275 134 
L 1747 1613 
L 275 3091 
L 576 3386 
L 2048 1914 
L 3526 3386 
L 3821 3098 
L 2349 1613 
L 3821 141 
z
" transform="scale(0.015625)"/>
      </defs>
      <use xlink:href="#STIXGeneral-Regular-d7" transform="translate(0 0.140625)"/>
      <use xlink:href="#LiberationSans-31" transform="translate(63.999985 0.140625)"/>
      <use xlink:href="#LiberationSans-30" transform="translate(119.615219 0.140625)"/>
      <use xlink:href="#LiberationSans-31" transform="translate(176.154946 37.120312) scale(0.7)"/>
      <use xlink:href="#LiberationSans-30" transform="translate(215.08561 37.120312) scale(0.7)"/>
     </g>
    </g>
   </g>
   <g id="matplotlib.axis_2">
    <g id="ytick_1">
     <g id="line2d_20">
      <defs>
       <path id="m06de72ecb2" d="M 0 0 
L 3.5 0 
" style="stroke: #000000; stroke-width: 0.8"/>
      </defs>
      <g>
       <use xlink:href="#m06de72ecb2" x="75.804688" y="608.235955" style="stroke: #000000; stroke-width: 0.8"/>
      </g>
     </g>
     <g id="text_6">
      <!-- $\mathdefault{0.0}$ -->
      <g transform="translate(34.504688 618.019236) scale(0.27 -0.27)">
       <defs>
        <path id="LiberationSans-2e" d="M 584 0 
L 584 684 
L 1194 684 
L 1194 0 
L 584 0 
z
" transform="scale(0.015625)"/>
       </defs>
       <use xlink:href="#LiberationSans-30" transform="translate(0 0.171875)"/>
       <use xlink:href="#LiberationSans-2e" transform="translate(55.615234 0.171875)"/>
       <use xlink:href="#LiberationSans-30" transform="translate(83.398438 0.171875)"/>
      </g>
     </g>
    </g>
    <g id="ytick_2">
     <g id="line2d_21">
      <g>
       <use xlink:href="#m06de72ecb2" x="75.804688" y="532.470146" style="stroke: #000000; stroke-width: 0.8"/>
      </g>
     </g>
     <g id="text_7">
      <!-- $\mathdefault{0.2}$ -->
      <g transform="translate(34.504688 542.253427) scale(0.27 -0.27)">
       <defs>
        <path id="LiberationSans-32" d="M 322 0 
L 322 397 
Q 481 763 711 1042 
Q 941 1322 1194 1548 
Q 1447 1775 1695 1969 
Q 1944 2163 2144 2356 
Q 2344 2550 2467 2762 
Q 2591 2975 2591 3244 
Q 2591 3606 2378 3806 
Q 2166 4006 1788 4006 
Q 1428 4006 1195 3811 
Q 963 3616 922 3263 
L 347 3316 
Q 409 3844 795 4156 
Q 1181 4469 1788 4469 
Q 2453 4469 2811 4155 
Q 3169 3841 3169 3263 
Q 3169 3006 3051 2753 
Q 2934 2500 2703 2247 
Q 2472 1994 1819 1463 
Q 1459 1169 1246 933 
Q 1034 697 941 478 
L 3238 478 
L 3238 0 
L 322 0 
z
" transform="scale(0.015625)"/>
       </defs>
       <use xlink:href="#LiberationSans-30" transform="translate(0 0.171875)"/>
       <use xlink:href="#LiberationSans-2e" transform="translate(55.615234 0.171875)"/>
       <use xlink:href="#LiberationSans-32" transform="translate(83.398438 0.171875)"/>
      </g>
     </g>
    </g>
    <g id="ytick_3">
     <g id="line2d_22">
      <g>
       <use xlink:href="#m06de72ecb2" x="75.804688" y="456.704337" style="stroke: #000000; stroke-width: 0.8"/>
      </g>
     </g>
     <g id="text_8">
      <!-- $\mathdefault{0.4}$ -->
      <g transform="translate(34.504688 466.487618) scale(0.27 -0.27)">
       <defs>
        <path id="LiberationSans-34" d="M 2753 997 
L 2753 0 
L 2222 0 
L 2222 997 
L 147 997 
L 147 1434 
L 2163 4403 
L 2753 4403 
L 2753 1441 
L 3372 1441 
L 3372 997 
L 2753 997 
z
M 2222 3769 
Q 2216 3750 2134 3603 
Q 2053 3456 2013 3397 
L 884 1734 
L 716 1503 
L 666 1441 
L 2222 1441 
L 2222 3769 
z
" transform="scale(0.015625)"/>
       </defs>
       <use xlink:href="#LiberationSans-30" transform="translate(0 0.171875)"/>
       <use xlink:href="#LiberationSans-2e" transform="translate(55.615234 0.171875)"/>
       <use xlink:href="#LiberationSans-34" transform="translate(83.398438 0.171875)"/>
      </g>
     </g>
    </g>
    <g id="ytick_4">
     <g id="line2d_23">
      <g>
       <use xlink:href="#m06de72ecb2" x="75.804688" y="380.938528" style="stroke: #000000; stroke-width: 0.8"/>
      </g>
     </g>
     <g id="text_9">
      <!-- $\mathdefault{0.6}$ -->
      <g transform="translate(34.504688 390.721809) scale(0.27 -0.27)">
       <defs>
        <path id="LiberationSans-36" d="M 3278 1441 
Q 3278 744 2900 340 
Q 2522 -63 1856 -63 
Q 1113 -63 719 490 
Q 325 1044 325 2100 
Q 325 3244 734 3856 
Q 1144 4469 1900 4469 
Q 2897 4469 3156 3572 
L 2619 3475 
Q 2453 4013 1894 4013 
Q 1413 4013 1148 3564 
Q 884 3116 884 2266 
Q 1038 2550 1316 2698 
Q 1594 2847 1953 2847 
Q 2563 2847 2920 2465 
Q 3278 2084 3278 1441 
z
M 2706 1416 
Q 2706 1894 2472 2153 
Q 2238 2413 1819 2413 
Q 1425 2413 1183 2183 
Q 941 1953 941 1550 
Q 941 1041 1192 716 
Q 1444 391 1838 391 
Q 2244 391 2475 664 
Q 2706 938 2706 1416 
z
" transform="scale(0.015625)"/>
       </defs>
       <use xlink:href="#LiberationSans-30" transform="translate(0 0.171875)"/>
       <use xlink:href="#LiberationSans-2e" transform="translate(55.615234 0.171875)"/>
       <use xlink:href="#LiberationSans-36" transform="translate(83.398438 0.171875)"/>
      </g>
     </g>
    </g>
    <g id="ytick_5">
     <g id="line2d_24">
      <g>
       <use xlink:href="#m06de72ecb2" x="75.804688" y="305.172719" style="stroke: #000000; stroke-width: 0.8"/>
      </g>
     </g>
     <g id="text_10">
      <!-- $\mathdefault{0.8}$ -->
      <g transform="translate(34.504688 314.956) scale(0.27 -0.27)">
       <defs>
        <path id="LiberationSans-38" d="M 3281 1228 
Q 3281 619 2893 278 
Q 2506 -63 1781 -63 
Q 1075 -63 676 271 
Q 278 606 278 1222 
Q 278 1653 525 1947 
Q 772 2241 1156 2303 
L 1156 2316 
Q 797 2400 589 2681 
Q 381 2963 381 3341 
Q 381 3844 757 4156 
Q 1134 4469 1769 4469 
Q 2419 4469 2795 4162 
Q 3172 3856 3172 3334 
Q 3172 2956 2962 2675 
Q 2753 2394 2391 2322 
L 2391 2309 
Q 2813 2241 3047 1952 
Q 3281 1663 3281 1228 
z
M 2588 3303 
Q 2588 4050 1769 4050 
Q 1372 4050 1164 3862 
Q 956 3675 956 3303 
Q 956 2925 1170 2726 
Q 1384 2528 1775 2528 
Q 2172 2528 2380 2711 
Q 2588 2894 2588 3303 
z
M 2697 1281 
Q 2697 1691 2453 1898 
Q 2209 2106 1769 2106 
Q 1341 2106 1100 1882 
Q 859 1659 859 1269 
Q 859 359 1788 359 
Q 2247 359 2472 579 
Q 2697 800 2697 1281 
z
" transform="scale(0.015625)"/>
       </defs>
       <use xlink:href="#LiberationSans-30" transform="translate(0 0.171875)"/>
       <use xlink:href="#LiberationSans-2e" transform="translate(55.615234 0.171875)"/>
       <use xlink:href="#LiberationSans-38" transform="translate(83.398438 0.171875)"/>
      </g>
     </g>
    </g>
    <g id="ytick_6">
     <g id="line2d_25">
      <g>
       <use xlink:href="#m06de72ecb2" x="75.804688" y="229.40691" style="stroke: #000000; stroke-width: 0.8"/>
      </g>
     </g>
     <g id="text_11">
      <!-- $\mathdefault{1.0}$ -->
      <g transform="translate(34.504688 239.190191) scale(0.27 -0.27)">
       <use xlink:href="#LiberationSans-31" transform="translate(0 0.171875)"/>
       <use xlink:href="#LiberationSans-2e" transform="translate(55.615234 0.171875)"/>
       <use xlink:href="#LiberationSans-30" transform="translate(83.398438 0.171875)"/>
      </g>
     </g>
    </g>
    <g id="ytick_7">
     <g id="line2d_26">
      <g>
       <use xlink:href="#m06de72ecb2" x="75.804688" y="153.641101" style="stroke: #000000; stroke-width: 0.8"/>
      </g>
     </g>
     <g id="text_12">
      <!-- $\mathdefault{1.2}$ -->
      <g transform="translate(34.504688 163.424382) scale(0.27 -0.27)">
       <use xlink:href="#LiberationSans-31" transform="translate(0 0.171875)"/>
       <use xlink:href="#LiberationSans-2e" transform="translate(55.615234 0.171875)"/>
       <use xlink:href="#LiberationSans-32" transform="translate(83.398438 0.171875)"/>
      </g>
     </g>
    </g>
    <g id="ytick_8">
     <g id="line2d_27">
      <g>
       <use xlink:href="#m06de72ecb2" x="75.804688" y="77.875292" style="stroke: #000000; stroke-width: 0.8"/>
      </g>
     </g>
     <g id="text_13">
      <!-- $\mathdefault{1.4}$ -->
      <g transform="translate(34.504688 87.658573) scale(0.27 -0.27)">
       <use xlink:href="#LiberationSans-31" transform="translate(0 0.203125)"/>
       <use xlink:href="#LiberationSans-2e" transform="translate(55.615234 0.203125)"/>
       <use xlink:href="#LiberationSans-34" transform="translate(83.398438 0.203125)"/>
      </g>
     </g>
    </g>
    <g id="ytick_9">
     <g id="line2d_28">
      <defs>
       <path id="m1738c9bac5" d="M 0 0 
L 2 0 
" style="stroke: #000000; stroke-width: 0.6"/>
      </defs>
      <g>
       <use xlink:href="#m1738c9bac5" x="75.804688" y="627.177407" style="stroke: #000000; stroke-width: 0.6"/>
      </g>
     </g>
    </g>
    <g id="ytick_10">
     <g id="line2d_29">
      <g>
       <use xlink:href="#m1738c9bac5" x="75.804688" y="589.294502" style="stroke: #000000; stroke-width: 0.6"/>
      </g>
     </g>
    </g>
    <g id="ytick_11">
     <g id="line2d_30">
      <g>
       <use xlink:href="#m1738c9bac5" x="75.804688" y="570.35305" style="stroke: #000000; stroke-width: 0.6"/>
      </g>
     </g>
    </g>
    <g id="ytick_12">
     <g id="line2d_31">
      <g>
       <use xlink:href="#m1738c9bac5" x="75.804688" y="551.411598" style="stroke: #000000; stroke-width: 0.6"/>
      </g>
     </g>
    </g>
    <g id="ytick_13">
     <g id="line2d_32">
      <g>
       <use xlink:href="#m1738c9bac5" x="75.804688" y="513.528693" style="stroke: #000000; stroke-width: 0.6"/>
      </g>
     </g>
    </g>
    <g id="ytick_14">
     <g id="line2d_33">
      <g>
       <use xlink:href="#m1738c9bac5" x="75.804688" y="494.587241" style="stroke: #000000; stroke-width: 0.6"/>
      </g>
     </g>
    </g>
    <g id="ytick_15">
     <g id="line2d_34">
      <g>
       <use xlink:href="#m1738c9bac5" x="75.804688" y="475.645789" style="stroke: #000000; stroke-width: 0.6"/>
      </g>
     </g>
    </g>
    <g id="ytick_16">
     <g id="line2d_35">
      <g>
       <use xlink:href="#m1738c9bac5" x="75.804688" y="437.762884" style="stroke: #000000; stroke-width: 0.6"/>
      </g>
     </g>
    </g>
    <g id="ytick_17">
     <g id="line2d_36">
      <g>
       <use xlink:href="#m1738c9bac5" x="75.804688" y="418.821432" style="stroke: #000000; stroke-width: 0.6"/>
      </g>
     </g>
    </g>
    <g id="ytick_18">
     <g id="line2d_37">
      <g>
       <use xlink:href="#m1738c9bac5" x="75.804688" y="399.87998" style="stroke: #000000; stroke-width: 0.6"/>
      </g>
     </g>
    </g>
    <g id="ytick_19">
     <g id="line2d_38">
      <g>
       <use xlink:href="#m1738c9bac5" x="75.804688" y="361.997075" style="stroke: #000000; stroke-width: 0.6"/>
      </g>
     </g>
    </g>
    <g id="ytick_20">
     <g id="line2d_39">
      <g>
       <use xlink:href="#m1738c9bac5" x="75.804688" y="343.055623" style="stroke: #000000; stroke-width: 0.6"/>
      </g>
     </g>
    </g>
    <g id="ytick_21">
     <g id="line2d_40">
      <g>
       <use xlink:href="#m1738c9bac5" x="75.804688" y="324.114171" style="stroke: #000000; stroke-width: 0.6"/>
      </g>
     </g>
    </g>
    <g id="ytick_22">
     <g id="line2d_41">
      <g>
       <use xlink:href="#m1738c9bac5" x="75.804688" y="286.231266" style="stroke: #000000; stroke-width: 0.6"/>
      </g>
     </g>
    </g>
    <g id="ytick_23">
     <g id="line2d_42">
      <g>
       <use xlink:href="#m1738c9bac5" x="75.804688" y="267.289814" style="stroke: #000000; stroke-width: 0.6"/>
      </g>
     </g>
    </g>
    <g id="ytick_24">
     <g id="line2d_43">
      <g>
       <use xlink:href="#m1738c9bac5" x="75.804688" y="248.348362" style="stroke: #000000; stroke-width: 0.6"/>
      </g>
     </g>
    </g>
    <g id="ytick_25">
     <g id="line2d_44">
      <g>
       <use xlink:href="#m1738c9bac5" x="75.804688" y="210.465457" style="stroke: #000000; stroke-width: 0.6"/>
      </g>
     </g>
    </g>
    <g id="ytick_26">
     <g id="line2d_45">
      <g>
       <use xlink:href="#m1738c9bac5" x="75.804688" y="191.524005" style="stroke: #000000; stroke-width: 0.6"/>
      </g>
     </g>
    </g>
    <g id="ytick_27">
     <g id="line2d_46">
      <g>
       <use xlink:href="#m1738c9bac5" x="75.804688" y="172.582553" style="stroke: #000000; stroke-width: 0.6"/>
      </g>
     </g>
    </g>
    <g id="ytick_28">
     <g id="line2d_47">
      <g>
       <use xlink:href="#m1738c9bac5" x="75.804688" y="134.699648" style="stroke: #000000; stroke-width: 0.6"/>
      </g>
     </g>
    </g>
    <g id="ytick_29">
     <g id="line2d_48">
      <g>
       <use xlink:href="#m1738c9bac5" x="75.804688" y="115.758196" style="stroke: #000000; stroke-width: 0.6"/>
      </g>
     </g>
    </g>
    <g id="ytick_30">
     <g id="line2d_49">
      <g>
       <use xlink:href="#m1738c9bac5" x="75.804688" y="96.816744" style="stroke: #000000; stroke-width: 0.6"/>
      </g>
     </g>
    </g>
    <g id="ytick_31">
     <g id="line2d_50">
      <g>
       <use xlink:href="#m1738c9bac5" x="75.804688" y="58.933839" style="stroke: #000000; stroke-width: 0.6"/>
      </g>
     </g>
    </g>
    <g id="ytick_32">
     <g id="line2d_51">
      <g>
       <use xlink:href="#m1738c9bac5" x="75.804688" y="39.992387" style="stroke: #000000; stroke-width: 0.6"/>
      </g>
     </g>
    </g>
    <g id="text_14">
     <!-- Probability Density -->
     <g transform="translate(25.317188 440.772219) rotate(-90) scale(0.25 -0.25)">
      <defs>
       <path id="LiberationSans-50" d="M 3931 3078 
Q 3931 2453 3523 2084 
Q 3116 1716 2416 1716 
L 1122 1716 
L 1122 0 
L 525 0 
L 525 4403 
L 2378 4403 
Q 3119 4403 3525 4056 
Q 3931 3709 3931 3078 
z
M 3331 3072 
Q 3331 3925 2306 3925 
L 1122 3925 
L 1122 2188 
L 2331 2188 
Q 3331 2188 3331 3072 
z
" transform="scale(0.015625)"/>
       <path id="LiberationSans-72" d="M 444 0 
L 444 2594 
Q 444 2950 425 3381 
L 956 3381 
Q 981 2806 981 2691 
L 994 2691 
Q 1128 3125 1303 3284 
Q 1478 3444 1797 3444 
Q 1909 3444 2025 3413 
L 2025 2897 
Q 1913 2928 1725 2928 
Q 1375 2928 1190 2626 
Q 1006 2325 1006 1763 
L 1006 0 
L 444 0 
z
" transform="scale(0.015625)"/>
       <path id="LiberationSans-6f" d="M 3291 1694 
Q 3291 806 2900 371 
Q 2509 -63 1766 -63 
Q 1025 -63 647 389 
Q 269 841 269 1694 
Q 269 3444 1784 3444 
Q 2559 3444 2925 3017 
Q 3291 2591 3291 1694 
z
M 2700 1694 
Q 2700 2394 2492 2711 
Q 2284 3028 1794 3028 
Q 1300 3028 1079 2704 
Q 859 2381 859 1694 
Q 859 1025 1076 689 
Q 1294 353 1759 353 
Q 2266 353 2483 678 
Q 2700 1003 2700 1694 
z
" transform="scale(0.015625)"/>
       <path id="LiberationSans-62" d="M 3291 1706 
Q 3291 -63 2047 -63 
Q 1663 -63 1408 76 
Q 1153 216 994 525 
L 988 525 
Q 988 428 975 229 
Q 963 31 956 0 
L 413 0 
Q 431 169 431 697 
L 431 4638 
L 994 4638 
L 994 3316 
Q 994 3113 981 2838 
L 994 2838 
Q 1150 3163 1408 3303 
Q 1666 3444 2047 3444 
Q 2688 3444 2989 3012 
Q 3291 2581 3291 1706 
z
M 2700 1688 
Q 2700 2397 2512 2703 
Q 2325 3009 1903 3009 
Q 1428 3009 1211 2684 
Q 994 2359 994 1653 
Q 994 988 1206 670 
Q 1419 353 1897 353 
Q 2322 353 2511 667 
Q 2700 981 2700 1688 
z
" transform="scale(0.015625)"/>
       <path id="LiberationSans-69" d="M 428 4100 
L 428 4638 
L 991 4638 
L 991 4100 
L 428 4100 
z
M 428 0 
L 428 3381 
L 991 3381 
L 991 0 
L 428 0 
z
" transform="scale(0.015625)"/>
       <path id="LiberationSans-74" d="M 1731 25 
Q 1453 -50 1163 -50 
Q 488 -50 488 716 
L 488 2972 
L 97 2972 
L 97 3381 
L 509 3381 
L 675 4138 
L 1050 4138 
L 1050 3381 
L 1675 3381 
L 1675 2972 
L 1050 2972 
L 1050 838 
Q 1050 594 1129 495 
Q 1209 397 1406 397 
Q 1519 397 1731 441 
L 1731 25 
z
" transform="scale(0.015625)"/>
       <path id="LiberationSans-79" d="M 597 -1328 
Q 366 -1328 209 -1294 
L 209 -872 
Q 328 -891 472 -891 
Q 997 -891 1303 -119 
L 1356 16 
L 16 3381 
L 616 3381 
L 1328 1513 
Q 1344 1469 1366 1408 
Q 1388 1347 1506 1000 
Q 1625 653 1634 613 
L 1853 1228 
L 2594 3381 
L 3188 3381 
L 1888 0 
Q 1678 -541 1497 -805 
Q 1316 -1069 1095 -1198 
Q 875 -1328 597 -1328 
z
" transform="scale(0.015625)"/>
       <path id="LiberationSans-20" transform="scale(0.015625)"/>
       <path id="LiberationSans-44" d="M 4316 2247 
Q 4316 1566 4050 1055 
Q 3784 544 3296 272 
Q 2809 0 2172 0 
L 525 0 
L 525 4403 
L 1981 4403 
Q 3100 4403 3708 3842 
Q 4316 3281 4316 2247 
z
M 3716 2247 
Q 3716 3066 3267 3495 
Q 2819 3925 1969 3925 
L 1122 3925 
L 1122 478 
L 2103 478 
Q 2588 478 2955 690 
Q 3322 903 3519 1303 
Q 3716 1703 3716 2247 
z
" transform="scale(0.015625)"/>
       <path id="LiberationSans-6e" d="M 2578 0 
L 2578 2144 
Q 2578 2478 2512 2662 
Q 2447 2847 2303 2928 
Q 2159 3009 1881 3009 
Q 1475 3009 1240 2731 
Q 1006 2453 1006 1959 
L 1006 0 
L 444 0 
L 444 2659 
Q 444 3250 425 3381 
L 956 3381 
Q 959 3366 962 3297 
Q 966 3228 970 3139 
Q 975 3050 981 2803 
L 991 2803 
Q 1184 3153 1439 3298 
Q 1694 3444 2072 3444 
Q 2628 3444 2886 3167 
Q 3144 2891 3144 2253 
L 3144 0 
L 2578 0 
z
" transform="scale(0.015625)"/>
       <path id="LiberationSans-73" d="M 2969 934 
Q 2969 456 2608 196 
Q 2247 -63 1597 -63 
Q 966 -63 623 145 
Q 281 353 178 794 
L 675 891 
Q 747 619 972 492 
Q 1197 366 1597 366 
Q 2025 366 2223 497 
Q 2422 628 2422 891 
Q 2422 1091 2284 1216 
Q 2147 1341 1841 1422 
L 1438 1528 
Q 953 1653 748 1773 
Q 544 1894 428 2066 
Q 313 2238 313 2488 
Q 313 2950 642 3192 
Q 972 3434 1603 3434 
Q 2163 3434 2492 3237 
Q 2822 3041 2909 2606 
L 2403 2544 
Q 2356 2769 2151 2889 
Q 1947 3009 1603 3009 
Q 1222 3009 1040 2893 
Q 859 2778 859 2544 
Q 859 2400 934 2306 
Q 1009 2213 1156 2147 
Q 1303 2081 1775 1966 
Q 2222 1853 2419 1758 
Q 2616 1663 2730 1547 
Q 2844 1431 2906 1279 
Q 2969 1128 2969 934 
z
" transform="scale(0.015625)"/>
      </defs>
      <use xlink:href="#LiberationSans-50"/>
      <use xlink:href="#LiberationSans-72" x="66.699219"/>
      <use xlink:href="#LiberationSans-6f" x="100"/>
      <use xlink:href="#LiberationSans-62" x="155.615234"/>
      <use xlink:href="#LiberationSans-61" x="211.230469"/>
      <use xlink:href="#LiberationSans-62" x="266.845703"/>
      <use xlink:href="#LiberationSans-69" x="322.460938"/>
      <use xlink:href="#LiberationSans-6c" x="344.677734"/>
      <use xlink:href="#LiberationSans-69" x="366.894531"/>
      <use xlink:href="#LiberationSans-74" x="389.111328"/>
      <use xlink:href="#LiberationSans-79" x="416.894531"/>
      <use xlink:href="#LiberationSans-20" x="466.894531"/>
      <use xlink:href="#LiberationSans-44" x="494.677734"/>
      <use xlink:href="#LiberationSans-65" x="566.894531"/>
      <use xlink:href="#LiberationSans-6e" x="622.509766"/>
      <use xlink:href="#LiberationSans-73" x="678.125"/>
      <use xlink:href="#LiberationSans-69" x="728.125"/>
      <use xlink:href="#LiberationSans-74" x="750.341797"/>
      <use xlink:href="#LiberationSans-79" x="778.125"/>
     </g>
    </g>
    <g id="text_15">
     <!-- $\times\mathdefault{10^{−10}}\mathdefault{}$ -->
     <g transform="translate(75.804688 36.1875) scale(0.4 -0.4)">
      <use xlink:href="#STIXGeneral-Regular-d7" transform="translate(0 0.140625)"/>
      <use xlink:href="#LiberationSans-31" transform="translate(63.999985 0.140625)"/>
      <use xlink:href="#LiberationSans-30" transform="translate(119.615219 0.140625)"/>
      <use xlink:href="#LiberationSans-2212" transform="translate(176.154946 37.120312) scale(0.7)"/>
      <use xlink:href="#LiberationSans-31" transform="translate(217.033852 37.120312) scale(0.7)"/>
      <use xlink:href="#LiberationSans-30" transform="translate(255.964516 37.120312) scale(0.7)"/>
     </g>
    </g>
   </g>
   <g id="line2d_52">
    <path d="M 104.393888 608.235955 
L 176.583053 608.149231 
L 180.020633 608.112807 
L 207.521267 607.646233 
L 214.396425 607.195269 
L 215.542285 607.264648 
L 222.417444 606.916018 
L 224.709163 606.524027 
L 225.855023 606.572592 
L 227.000883 606.430365 
L 228.146742 606.132035 
L 229.292602 606.097346 
L 231.584322 605.682806 
L 232.730182 605.561393 
L 233.876041 605.252656 
L 236.167761 605.028908 
L 238.45948 604.605696 
L 240.7512 604.083619 
L 241.89706 603.646531 
L 244.188779 603.299636 
L 245.334639 602.963148 
L 246.480499 602.46015 
L 247.626358 602.276295 
L 248.772218 601.759421 
L 249.918078 601.657087 
L 251.063938 600.892183 
L 252.209797 600.663232 
L 253.355657 599.785588 
L 254.501517 599.345031 
L 255.647377 599.244431 
L 256.793236 598.448307 
L 257.939096 598.018157 
L 259.084956 597.079805 
L 261.376676 595.650597 
L 262.522535 594.793766 
L 263.668395 594.176292 
L 265.960115 592.172972 
L 267.105974 591.676912 
L 268.251834 590.993529 
L 273.981133 585.117124 
L 275.126993 583.77464 
L 276.272852 582.740892 
L 277.418712 580.897144 
L 279.710432 577.801105 
L 280.856291 575.662496 
L 282.002151 574.158705 
L 283.148011 572.321895 
L 284.293871 571.175406 
L 285.43973 568.592772 
L 286.58559 566.612 
L 288.87731 563.339044 
L 290.023169 560.033133 
L 292.314889 555.721225 
L 294.606609 549.92981 
L 295.752468 546.440044 
L 300.335907 534.050682 
L 302.627627 526.432864 
L 303.773487 523.619544 
L 304.919346 518.757808 
L 306.065206 515.028684 
L 309.502785 502.339258 
L 310.648645 497.078592 
L 311.794505 494.336386 
L 312.940365 488.045442 
L 314.086224 483.56529 
L 315.232084 478.250856 
L 316.377944 471.994601 
L 317.523804 466.874428 
L 318.669663 460.534918 
L 319.815523 455.468514 
L 320.961383 448.939946 
L 322.107243 441.712385 
L 324.398962 430.844158 
L 328.982401 402.502821 
L 331.274121 389.520268 
L 332.419981 382.292707 
L 333.56584 374.345338 
L 334.7117 364.961823 
L 335.85756 359.914497 
L 337.00342 349.958605 
L 338.149279 342.359866 
L 339.295139 332.851469 
L 340.440999 325.665535 
L 341.586859 320.748295 
L 342.732718 309.377071 
L 343.878578 303.046233 
L 345.024438 293.501412 
L 346.170298 286.57565 
L 347.316157 277.856439 
L 348.462017 272.755345 
L 349.607877 264.620653 
L 350.753737 255.039407 
L 351.899597 246.873494 
L 354.191316 232.196359 
L 357.628895 209.86498 
L 358.774755 199.20836 
L 359.920615 191.94264 
L 361.066475 182.340581 
L 362.212334 176.184926 
L 363.358194 170.854881 
L 364.504054 163.74353 
L 365.649914 158.087403 
L 366.795773 151.06451 
L 367.941633 144.855086 
L 369.087493 140.411359 
L 371.379212 127.010797 
L 372.525072 122.58268 
L 373.670932 117.004605 
L 374.816792 111.99197 
L 375.962651 108.470984 
L 377.108511 104.28049 
L 378.254371 99.425691 
L 379.400231 98.039845 
L 380.54609 94.23267 
L 381.69195 88.685816 
L 382.83781 88.359735 
L 383.98367 85.714659 
L 385.12953 83.517078 
L 386.275389 84.708663 
L 387.421249 81.423565 
L 388.567109 79.846926 
L 389.712969 79.179153 
L 390.858828 80.504293 
L 393.150548 80.986477 
L 394.296408 81.47213 
L 396.588127 85.509991 
L 397.733987 87.837657 
L 398.879847 91.96571 
L 400.025706 95.250808 
L 401.171566 96.664406 
L 402.317426 101.966699 
L 403.463286 103.845136 
L 404.609145 106.722632 
L 405.755005 111.747409 
L 406.900865 117.73482 
L 408.046725 124.972788 
L 409.192584 127.848549 
L 411.484304 138.588424 
L 412.630164 145.661618 
L 413.776024 149.83997 
L 414.921883 154.717317 
L 418.359463 178.30619 
L 419.505322 185.582317 
L 420.651182 189.699963 
L 421.797042 198.995019 
L 425.234621 223.144129 
L 427.526341 235.861306 
L 428.6722 244.193729 
L 429.81806 251.33977 
L 430.96392 261.156904 
L 432.10978 270.004466 
L 433.255639 276.258986 
L 434.401499 288.681303 
L 435.547359 295.293126 
L 436.693219 302.770452 
L 437.839078 312.452297 
L 438.984938 320.274783 
L 440.130798 326.787741 
L 443.568377 351.661861 
L 445.860097 367.046663 
L 447.005957 376.083283 
L 448.151816 383.978617 
L 449.297676 389.114401 
L 450.443536 397.476309 
L 453.881115 416.956209 
L 456.172835 429.900603 
L 459.610414 448.733543 
L 466.485572 483.527132 
L 467.631432 488.512016 
L 468.777292 492.810047 
L 469.923152 498.237222 
L 471.069011 502.340993 
L 473.360731 511.967334 
L 474.506591 515.028684 
L 475.652451 520.17314 
L 476.79831 523.829415 
L 477.94417 526.786697 
L 479.09003 530.881795 
L 481.381749 537.843981 
L 482.527609 539.970449 
L 483.673469 543.782827 
L 484.819329 546.913556 
L 489.402768 557.927479 
L 490.548627 560.114653 
L 491.694487 561.807502 
L 492.840347 564.556646 
L 496.277926 570.445192 
L 497.423786 573.159647 
L 498.569646 575.345087 
L 503.153085 581.50768 
L 504.298944 582.293397 
L 505.444804 584.180507 
L 506.590664 584.995711 
L 508.882384 587.61477 
L 510.028243 588.636376 
L 512.319963 591.22248 
L 513.465823 591.33869 
L 515.757542 593.706249 
L 518.049262 594.824986 
L 519.195121 595.891689 
L 522.632701 597.943574 
L 523.77856 598.202011 
L 524.92442 599.076187 
L 526.07028 599.476851 
L 527.21614 600.038821 
L 531.799579 601.794111 
L 532.945438 602.290171 
L 534.091298 602.439336 
L 536.383018 603.318715 
L 538.674737 603.917109 
L 540.966457 604.541521 
L 542.112317 604.591821 
L 544.404036 605.053191 
L 545.549896 605.108694 
L 546.695756 605.488545 
L 548.987475 605.738309 
L 550.133335 605.939508 
L 551.279195 605.903084 
L 552.425054 606.000215 
L 553.570914 606.307217 
L 560.446073 606.95938 
L 561.591932 606.95938 
L 562.737792 607.217817 
L 563.883652 607.344434 
L 565.029512 607.30801 
L 567.321231 607.528288 
L 570.758811 607.670515 
L 575.34225 607.745098 
L 578.779829 607.847432 
L 598.259445 608.074648 
L 603.988744 608.159638 
L 622.3225 608.229017 
L 633.781097 608.232486 
L 658.990012 608.229017 
L 676.177908 608.235955 
L 676.177908 608.235955 
" clip-path="url(#p9da67a98ee)" style="fill: none; stroke: #ff0000; stroke-opacity: 0.9; stroke-width: 2.5; stroke-linecap: square"/>
   </g>
   <g id="line2d_53">
    <path d="M 104.393888 608.235955 
L 180.020633 607.902933 
L 189.187511 607.649707 
L 192.62509 607.646238 
L 194.916809 607.620221 
L 200.646108 607.592469 
L 201.791968 607.500533 
L 202.937828 607.578584 
L 208.667127 607.358317 
L 209.812986 607.399932 
L 221.271584 606.576052 
L 223.563303 606.307233 
L 224.709163 606.201403 
L 225.855023 606.211838 
L 232.730182 605.141632 
L 233.876041 604.749687 
L 235.021901 604.576189 
L 237.313621 603.870315 
L 238.45948 603.804343 
L 239.60534 603.40201 
L 240.7512 603.429694 
L 243.042919 602.866062 
L 244.188779 602.820889 
L 245.334639 602.501825 
L 246.480499 601.778463 
L 248.772218 601.442069 
L 249.918078 600.788072 
L 251.063938 600.377109 
L 252.209797 600.113357 
L 253.355657 599.591277 
L 255.647377 598.302623 
L 256.793236 598.04585 
L 257.939096 597.289691 
L 259.084956 596.354809 
L 260.230816 596.131062 
L 261.376676 595.749478 
L 263.668395 593.824212 
L 264.814255 593.406204 
L 269.397694 589.912845 
L 270.543554 588.313789 
L 271.689413 587.845481 
L 272.835273 586.601864 
L 273.981133 585.753706 
L 275.126993 585.184636 
L 277.418712 582.406172 
L 279.710432 578.694398 
L 282.002151 573.575966 
L 283.148011 571.012414 
L 284.293871 567.758541 
L 285.43973 565.609528 
L 287.73145 559.092765 
L 288.87731 557.251099 
L 290.023169 554.418703 
L 292.314889 550.172712 
L 293.460749 548.505462 
L 294.606609 546.323915 
L 295.752468 545.446271 
L 298.044188 540.30876 
L 299.190048 535.282255 
L 300.335907 531.6081 
L 301.481767 527.166652 
L 302.627627 523.248476 
L 303.773487 518.886275 
L 304.919346 513.748763 
L 308.356926 500.398519 
L 309.502785 495.139595 
L 310.648645 490.678528 
L 311.794505 485.667634 
L 312.940365 482.707739 
L 315.232084 475.186209 
L 316.377944 472.003449 
L 317.523804 467.268336 
L 318.669663 460.357153 
L 320.961383 450.450879 
L 322.107243 444.244932 
L 323.253103 438.881344 
L 325.544822 425.906341 
L 326.690682 420.993653 
L 327.836542 413.062563 
L 328.982401 406.759485 
L 330.128261 398.121067 
L 331.274121 390.739886 
L 333.56584 374.815683 
L 334.7117 368.549029 
L 335.85756 356.03218 
L 337.00342 352.673391 
L 338.149279 345.610614 
L 339.295139 336.32502 
L 340.440999 328.435855 
L 341.586859 319.032256 
L 342.732718 312.112723 
L 343.878578 299.262007 
L 346.170298 279.289542 
L 347.316157 271.227708 
L 348.462017 261.357332 
L 350.753737 245.356297 
L 351.899597 238.666867 
L 353.045456 223.966767 
L 354.191316 219.232021 
L 356.483036 198.476221 
L 357.628895 185.893334 
L 358.774755 177.369373 
L 359.920615 165.82643 
L 361.066475 162.992295 
L 362.212334 154.109103 
L 363.358194 151.823999 
L 364.504054 146.395087 
L 365.649914 144.088232 
L 366.795773 139.229053 
L 367.941633 137.230111 
L 369.087493 134.992636 
L 370.233353 124.401037 
L 371.379212 122.827016 
L 372.525072 115.767695 
L 373.670932 109.66451 
L 374.816792 106.677303 
L 375.962651 100.001748 
L 377.108511 103.352311 
L 378.254371 98.650592 
L 379.400231 95.058043 
L 380.54609 87.692177 
L 381.69195 77.125521 
L 382.83781 67.920656 
L 383.98367 71.59948 
L 385.12953 66.285045 
L 386.275389 70.394019 
L 387.421249 75.677233 
L 389.712969 82.682782 
L 390.858828 85.036466 
L 392.004688 95.195292 
L 393.150548 98.586192 
L 394.296408 98.620882 
L 395.442267 104.920499 
L 396.588127 106.224825 
L 397.733987 106.989729 
L 398.879847 113.244249 
L 400.025706 115.514895 
L 401.171566 122.488793 
L 402.317426 125.732689 
L 403.463286 133.360493 
L 404.609145 142.871039 
L 405.755005 145.085557 
L 406.900865 149.529689 
L 408.046725 156.189677 
L 409.192584 157.374325 
L 410.338444 159.988969 
L 411.484304 165.096215 
L 412.630164 168.452428 
L 413.776024 170.397546 
L 414.921883 176.890657 
L 416.067743 189.215849 
L 417.213603 198.854337 
L 418.359463 200.270387 
L 419.505322 210.678265 
L 421.797042 219.293411 
L 422.942902 220.808291 
L 424.088761 227.043054 
L 425.234621 234.838449 
L 426.380481 245.812924 
L 427.526341 244.763107 
L 428.6722 250.522037 
L 429.81806 260.246755 
L 430.96392 265.35478 
L 432.10978 271.986225 
L 433.255639 280.684059 
L 434.401499 285.242256 
L 436.693219 302.95817 
L 437.839078 309.034032 
L 440.130798 323.296609 
L 441.276658 332.564668 
L 442.422517 338.667516 
L 443.568377 349.549604 
L 444.714237 355.170143 
L 445.860097 365.4634 
L 447.005957 369.346887 
L 448.151816 379.362668 
L 450.443536 389.136462 
L 451.589396 395.908618 
L 452.735255 401.313238 
L 453.881115 403.725172 
L 455.026975 414.453611 
L 456.172835 418.909474 
L 457.318694 424.257944 
L 458.464554 434.903056 
L 459.610414 438.802153 
L 463.047993 458.648002 
L 464.193853 462.925214 
L 466.485572 477.65263 
L 467.631432 481.800602 
L 468.777292 488.62838 
L 469.923152 493.295849 
L 471.069011 498.487129 
L 472.214871 502.594363 
L 473.360731 506.035559 
L 474.506591 511.515815 
L 475.652451 516.06602 
L 476.79831 522.337877 
L 477.94417 526.415625 
L 479.09003 528.954895 
L 481.381749 537.7851 
L 482.527609 540.397218 
L 483.673469 543.337151 
L 484.819329 546.823443 
L 485.965188 548.956846 
L 487.111048 551.90332 
L 488.256908 554.142922 
L 489.402768 555.936368 
L 490.548627 558.725402 
L 491.694487 560.42692 
L 492.840347 563.111568 
L 493.986207 565.462098 
L 495.132066 567.085565 
L 496.277926 570.263121 
L 497.423786 572.032284 
L 500.861365 579.322277 
L 505.444804 584.95395 
L 506.590664 586.825611 
L 507.736524 588.230534 
L 508.882384 588.919121 
L 510.028243 589.954601 
L 511.174103 591.175551 
L 512.319963 592.103614 
L 513.465823 592.750573 
L 515.757542 594.221407 
L 516.903402 595.416459 
L 519.195121 596.356544 
L 520.340981 597.584551 
L 521.486841 598.238448 
L 523.77856 600.160188 
L 527.21614 601.421159 
L 528.361999 601.549511 
L 529.507859 601.93639 
L 530.653719 602.021291 
L 532.945438 602.593672 
L 536.383018 603.337766 
L 537.528878 603.528626 
L 538.674737 603.963916 
L 539.820597 604.062781 
L 540.966457 604.479111 
L 543.258176 605.086172 
L 544.404036 605.445167 
L 545.549896 605.45037 
L 546.695756 605.818115 
L 547.841615 605.85624 
L 548.987475 606.170211 
L 550.133335 606.29333 
L 553.570914 606.974983 
L 559.300213 607.399932 
L 561.591932 607.458905 
L 562.737792 607.353114 
L 565.029512 607.556036 
L 569.612951 607.415543 
L 570.758811 607.569912 
L 573.05053 607.649698 
L 582.217408 607.826622 
L 583.363268 607.755502 
L 584.509128 607.866509 
L 591.384286 607.817949 
L 593.676006 607.887328 
L 597.113585 607.996599 
L 602.842884 608.166576 
L 613.155622 608.213407 
L 625.760079 608.225548 
L 676.177908 608.23422 
L 676.177908 608.23422 
" clip-path="url(#p9da67a98ee)" style="fill: none; stroke: #0000ff; stroke-opacity: 0.9; stroke-width: 2.5; stroke-linecap: square"/>
   </g>
   <g id="line2d_54">
    <path d="M 390.285898 635.3335 
L 390.285898 39.1875 
" clip-path="url(#p9da67a98ee)" style="fill: none; stroke-dasharray: 7.4,3.2; stroke-dashoffset: 0; stroke: #808080; stroke-width: 2"/>
   </g>
   <g id="patch_3">
    <path d="M 75.804688 635.3335 
L 75.804688 39.1875 
" style="fill: none; stroke: #000000; stroke-width: 0.8; stroke-linejoin: miter; stroke-linecap: square"/>
   </g>
   <g id="patch_4">
    <path d="M 704.767109 635.3335 
L 704.767109 39.1875 
" style="fill: none; stroke: #000000; stroke-width: 0.8; stroke-linejoin: miter; stroke-linecap: square"/>
   </g>
   <g id="patch_5">
    <path d="M 75.804688 635.3335 
L 704.767109 635.3335 
" style="fill: none; stroke: #000000; stroke-width: 0.8; stroke-linejoin: miter; stroke-linecap: square"/>
   </g>
   <g id="patch_6">
    <path d="M 75.804688 39.1875 
L 704.767109 39.1875 
" style="fill: none; stroke: #000000; stroke-width: 0.8; stroke-linejoin: miter; stroke-linecap: square"/>
   </g>
   <g id="legend_1">
    <g id="patch_7">
     <path d="M 96.804688 149.11875 
L 356.196875 149.11875 
Q 362.196875 149.11875 362.196875 143.11875 
L 362.196875 60.1875 
Q 362.196875 54.1875 356.196875 54.1875 
L 96.804688 54.1875 
Q 90.804688 54.1875 90.804688 60.1875 
L 90.804688 143.11875 
Q 90.804688 149.11875 96.804688 149.11875 
z
" style="fill: #ffffff; opacity: 0.8; stroke: #000000; stroke-linejoin: miter"/>
    </g>
    <g id="line2d_55">
     <path d="M 102.804688 77.428125 
L 132.804688 77.428125 
L 162.804688 77.428125 
" style="fill: none; stroke: #ff0000; stroke-opacity: 0.9; stroke-width: 2.5; stroke-linecap: square"/>
    </g>
    <g id="text_16">
     <!-- correct_disp -->
     <g transform="translate(186.804688 87.928125) scale(0.3 -0.3)">
      <defs>
       <path id="LiberationSans-63" d="M 859 1706 
Q 859 1031 1071 706 
Q 1284 381 1713 381 
Q 2013 381 2214 543 
Q 2416 706 2463 1044 
L 3031 1006 
Q 2966 519 2616 228 
Q 2266 -63 1728 -63 
Q 1019 -63 645 385 
Q 272 834 272 1694 
Q 272 2547 647 2995 
Q 1022 3444 1722 3444 
Q 2241 3444 2583 3175 
Q 2925 2906 3013 2434 
L 2434 2391 
Q 2391 2672 2212 2837 
Q 2034 3003 1706 3003 
Q 1259 3003 1059 2706 
Q 859 2409 859 1706 
z
" transform="scale(0.015625)"/>
       <path id="LiberationSans-5f" d="M -97 -1272 
L -97 -866 
L 3631 -866 
L 3631 -1272 
L -97 -1272 
z
" transform="scale(0.015625)"/>
       <path id="LiberationSans-64" d="M 2566 544 
Q 2409 219 2151 78 
Q 1894 -63 1513 -63 
Q 872 -63 570 368 
Q 269 800 269 1675 
Q 269 3444 1513 3444 
Q 1897 3444 2153 3303 
Q 2409 3163 2566 2856 
L 2572 2856 
L 2566 3234 
L 2566 4638 
L 3128 4638 
L 3128 697 
Q 3128 169 3147 0 
L 2609 0 
Q 2600 50 2589 231 
Q 2578 413 2578 544 
L 2566 544 
z
M 859 1694 
Q 859 984 1046 678 
Q 1234 372 1656 372 
Q 2134 372 2350 703 
Q 2566 1034 2566 1731 
Q 2566 2403 2350 2715 
Q 2134 3028 1663 3028 
Q 1238 3028 1048 2714 
Q 859 2400 859 1694 
z
" transform="scale(0.015625)"/>
       <path id="LiberationSans-70" d="M 3291 1706 
Q 3291 -63 2047 -63 
Q 1266 -63 997 525 
L 981 525 
Q 994 500 994 -6 
L 994 -1328 
L 431 -1328 
L 431 2691 
Q 431 3213 413 3381 
L 956 3381 
Q 959 3369 965 3292 
Q 972 3216 980 3056 
Q 988 2897 988 2838 
L 1000 2838 
Q 1150 3150 1397 3295 
Q 1644 3441 2047 3441 
Q 2672 3441 2981 3022 
Q 3291 2603 3291 1706 
z
M 2700 1694 
Q 2700 2400 2509 2703 
Q 2319 3006 1903 3006 
Q 1569 3006 1380 2865 
Q 1191 2725 1092 2426 
Q 994 2128 994 1650 
Q 994 984 1206 668 
Q 1419 353 1897 353 
Q 2316 353 2508 661 
Q 2700 969 2700 1694 
z
" transform="scale(0.015625)"/>
      </defs>
      <use xlink:href="#LiberationSans-63"/>
      <use xlink:href="#LiberationSans-6f" x="50"/>
      <use xlink:href="#LiberationSans-72" x="105.615234"/>
      <use xlink:href="#LiberationSans-72" x="138.916016"/>
      <use xlink:href="#LiberationSans-65" x="172.216797"/>
      <use xlink:href="#LiberationSans-63" x="227.832031"/>
      <use xlink:href="#LiberationSans-74" x="277.832031"/>
      <use xlink:href="#LiberationSans-5f" x="305.615234"/>
      <use xlink:href="#LiberationSans-64" x="361.230469"/>
      <use xlink:href="#LiberationSans-69" x="416.845703"/>
      <use xlink:href="#LiberationSans-73" x="439.0625"/>
      <use xlink:href="#LiberationSans-70" x="489.0625"/>
     </g>
    </g>
    <g id="line2d_56">
     <path d="M 102.804688 120.39375 
L 132.804688 120.39375 
L 162.804688 120.39375 
" style="fill: none; stroke: #0000ff; stroke-opacity: 0.9; stroke-width: 2.5; stroke-linecap: square"/>
    </g>
    <g id="text_17">
     <!-- orbits -->
     <g transform="translate(186.804688 130.89375) scale(0.3 -0.3)">
      <use xlink:href="#LiberationSans-6f"/>
      <use xlink:href="#LiberationSans-72" x="55.615234"/>
      <use xlink:href="#LiberationSans-62" x="88.916016"/>
      <use xlink:href="#LiberationSans-69" x="144.53125"/>
      <use xlink:href="#LiberationSans-74" x="166.748047"/>
      <use xlink:href="#LiberationSans-73" x="194.53125"/>
     </g>
    </g>
   </g>
  </g>
 </g>
 <defs>
  <clipPath id="p9da67a98ee">
   <rect x="75.804688" y="39.1875" width="628.962422" height="596.146"/>
  </clipPath>
 </defs>
</svg>
