<?xml version="1.0" encoding="utf-8" standalone="no"?>
<!DOCTYPE svg PUBLIC "-//W3C//DTD SVG 1.1//EN"
  "http://www.w3.org/Graphics/SVG/1.1/DTD/svg11.dtd">
<svg xmlns:xlink="http://www.w3.org/1999/xlink" width="710.741988pt" height="711.02175pt" viewBox="0 0 710.741988 711.02175" xmlns="http://www.w3.org/2000/svg" version="1.1">
 <metadata>
  <rdf:RDF xmlns:dc="http://purl.org/dc/elements/1.1/" xmlns:cc="http://creativecommons.org/ns#" xmlns:rdf="http://www.w3.org/1999/02/22-rdf-syntax-ns#">
   <cc:Work>
    <dc:type rdf:resource="http://purl.org/dc/dcmitype/StillImage"/>
    <dc:date>2025-02-03T19:42:55.235672</dc:date>
    <dc:format>image/svg+xml</dc:format>
    <dc:creator>
     <cc:Agent>
      <dc:title>Matplotlib v3.9.3, https://matplotlib.org/</dc:title>
     </cc:Agent>
    </dc:creator>
   </cc:Work>
  </rdf:RDF>
 </metadata>
 <defs>
  <style type="text/css">*{stroke-linejoin: round; stroke-linecap: butt}</style>
 </defs>
 <g id="figure_1">
  <g id="patch_1">
   <path d="M 0 711.02175 
L 710.741988 711.02175 
L 710.741988 0 
L 0 0 
z
" style="fill: #ffffff"/>
  </g>
  <g id="axes_1">
   <g id="patch_2">
    <path d="M 79.5 640.3905 
L 703.541988 640.3905 
L 703.541988 39.1875 
L 79.5 39.1875 
z
" style="fill: #ffffff"/>
   </g>
   <g id="matplotlib.axis_1">
    <g id="xtick_1">
     <g id="line2d_1">
      <defs>
       <path id="mc986024f01" d="M 0 0 
L 0 -3.5 
" style="stroke: #000000; stroke-width: 0.8"/>
      </defs>
      <g>
       <use xlink:href="#mc986024f01" x="107.808808" y="640.3905" style="stroke: #000000; stroke-width: 0.8"/>
      </g>
     </g>
     <g id="text_1">
      <!-- 0 -->
      <g transform="translate(99.467402 665.631125) scale(0.3 -0.3)">
       <defs>
        <path id="LiberationSans-30" d="M 3309 2203 
Q 3309 1100 2920 518 
Q 2531 -63 1772 -63 
Q 1013 -63 631 515 
Q 250 1094 250 2203 
Q 250 3338 620 3903 
Q 991 4469 1791 4469 
Q 2569 4469 2939 3897 
Q 3309 3325 3309 2203 
z
M 2738 2203 
Q 2738 3156 2517 3584 
Q 2297 4013 1791 4013 
Q 1272 4013 1045 3591 
Q 819 3169 819 2203 
Q 819 1266 1048 831 
Q 1278 397 1778 397 
Q 2275 397 2506 840 
Q 2738 1284 2738 2203 
z
" transform="scale(0.015625)"/>
       </defs>
       <use xlink:href="#LiberationSans-30"/>
      </g>
     </g>
    </g>
    <g id="xtick_2">
     <g id="line2d_2">
      <g>
       <use xlink:href="#mc986024f01" x="221.282335" y="640.3905" style="stroke: #000000; stroke-width: 0.8"/>
      </g>
     </g>
     <g id="text_2">
      <!-- 2 -->
      <g transform="translate(212.940929 665.631125) scale(0.3 -0.3)">
       <defs>
        <path id="LiberationSans-32" d="M 322 0 
L 322 397 
Q 481 763 711 1042 
Q 941 1322 1194 1548 
Q 1447 1775 1695 1969 
Q 1944 2163 2144 2356 
Q 2344 2550 2467 2762 
Q 2591 2975 2591 3244 
Q 2591 3606 2378 3806 
Q 2166 4006 1788 4006 
Q 1428 4006 1195 3811 
Q 963 3616 922 3263 
L 347 3316 
Q 409 3844 795 4156 
Q 1181 4469 1788 4469 
Q 2453 4469 2811 4155 
Q 3169 3841 3169 3263 
Q 3169 3006 3051 2753 
Q 2934 2500 2703 2247 
Q 2472 1994 1819 1463 
Q 1459 1169 1246 933 
Q 1034 697 941 478 
L 3238 478 
L 3238 0 
L 322 0 
z
" transform="scale(0.015625)"/>
       </defs>
       <use xlink:href="#LiberationSans-32"/>
      </g>
     </g>
    </g>
    <g id="xtick_3">
     <g id="line2d_3">
      <g>
       <use xlink:href="#mc986024f01" x="334.755862" y="640.3905" style="stroke: #000000; stroke-width: 0.8"/>
      </g>
     </g>
     <g id="text_3">
      <!-- 4 -->
      <g transform="translate(326.414456 665.631125) scale(0.3 -0.3)">
       <defs>
        <path id="LiberationSans-34" d="M 2753 997 
L 2753 0 
L 2222 0 
L 2222 997 
L 147 997 
L 147 1434 
L 2163 4403 
L 2753 4403 
L 2753 1441 
L 3372 1441 
L 3372 997 
L 2753 997 
z
M 2222 3769 
Q 2216 3750 2134 3603 
Q 2053 3456 2013 3397 
L 884 1734 
L 716 1503 
L 666 1441 
L 2222 1441 
L 2222 3769 
z
" transform="scale(0.015625)"/>
       </defs>
       <use xlink:href="#LiberationSans-34"/>
      </g>
     </g>
    </g>
    <g id="xtick_4">
     <g id="line2d_4">
      <g>
       <use xlink:href="#mc986024f01" x="448.229389" y="640.3905" style="stroke: #000000; stroke-width: 0.8"/>
      </g>
     </g>
     <g id="text_4">
      <!-- 6 -->
      <g transform="translate(439.887983 665.631125) scale(0.3 -0.3)">
       <defs>
        <path id="LiberationSans-36" d="M 3278 1441 
Q 3278 744 2900 340 
Q 2522 -63 1856 -63 
Q 1113 -63 719 490 
Q 325 1044 325 2100 
Q 325 3244 734 3856 
Q 1144 4469 1900 4469 
Q 2897 4469 3156 3572 
L 2619 3475 
Q 2453 4013 1894 4013 
Q 1413 4013 1148 3564 
Q 884 3116 884 2266 
Q 1038 2550 1316 2698 
Q 1594 2847 1953 2847 
Q 2563 2847 2920 2465 
Q 3278 2084 3278 1441 
z
M 2706 1416 
Q 2706 1894 2472 2153 
Q 2238 2413 1819 2413 
Q 1425 2413 1183 2183 
Q 941 1953 941 1550 
Q 941 1041 1192 716 
Q 1444 391 1838 391 
Q 2244 391 2475 664 
Q 2706 938 2706 1416 
z
" transform="scale(0.015625)"/>
       </defs>
       <use xlink:href="#LiberationSans-36"/>
      </g>
     </g>
    </g>
    <g id="xtick_5">
     <g id="line2d_5">
      <g>
       <use xlink:href="#mc986024f01" x="561.702916" y="640.3905" style="stroke: #000000; stroke-width: 0.8"/>
      </g>
     </g>
     <g id="text_5">
      <!-- 8 -->
      <g transform="translate(553.36151 665.631125) scale(0.3 -0.3)">
       <defs>
        <path id="LiberationSans-38" d="M 3281 1228 
Q 3281 619 2893 278 
Q 2506 -63 1781 -63 
Q 1075 -63 676 271 
Q 278 606 278 1222 
Q 278 1653 525 1947 
Q 772 2241 1156 2303 
L 1156 2316 
Q 797 2400 589 2681 
Q 381 2963 381 3341 
Q 381 3844 757 4156 
Q 1134 4469 1769 4469 
Q 2419 4469 2795 4162 
Q 3172 3856 3172 3334 
Q 3172 2956 2962 2675 
Q 2753 2394 2391 2322 
L 2391 2309 
Q 2813 2241 3047 1952 
Q 3281 1663 3281 1228 
z
M 2588 3303 
Q 2588 4050 1769 4050 
Q 1372 4050 1164 3862 
Q 956 3675 956 3303 
Q 956 2925 1170 2726 
Q 1384 2528 1775 2528 
Q 2172 2528 2380 2711 
Q 2588 2894 2588 3303 
z
M 2697 1281 
Q 2697 1691 2453 1898 
Q 2209 2106 1769 2106 
Q 1341 2106 1100 1882 
Q 859 1659 859 1269 
Q 859 359 1788 359 
Q 2247 359 2472 579 
Q 2697 800 2697 1281 
z
" transform="scale(0.015625)"/>
       </defs>
       <use xlink:href="#LiberationSans-38"/>
      </g>
     </g>
    </g>
    <g id="xtick_6">
     <g id="line2d_6">
      <g>
       <use xlink:href="#mc986024f01" x="675.176443" y="640.3905" style="stroke: #000000; stroke-width: 0.8"/>
      </g>
     </g>
     <g id="text_6">
      <!-- 10 -->
      <g transform="translate(658.493631 665.631125) scale(0.3 -0.3)">
       <defs>
        <path id="LiberationSans-31" d="M 488 0 
L 488 478 
L 1609 478 
L 1609 3866 
L 616 3156 
L 616 3688 
L 1656 4403 
L 2175 4403 
L 2175 478 
L 3247 478 
L 3247 0 
L 488 0 
z
" transform="scale(0.015625)"/>
       </defs>
       <use xlink:href="#LiberationSans-31"/>
       <use xlink:href="#LiberationSans-30" x="55.615234"/>
      </g>
     </g>
    </g>
    <g id="xtick_7">
     <g id="line2d_7">
      <defs>
       <path id="m2896a9b6c3" d="M 0 0 
L 0 -2 
" style="stroke: #000000; stroke-width: 0.6"/>
      </defs>
      <g>
       <use xlink:href="#m2896a9b6c3" x="136.17719" y="640.3905" style="stroke: #000000; stroke-width: 0.6"/>
      </g>
     </g>
    </g>
    <g id="xtick_8">
     <g id="line2d_8">
      <g>
       <use xlink:href="#m2896a9b6c3" x="164.545572" y="640.3905" style="stroke: #000000; stroke-width: 0.6"/>
      </g>
     </g>
    </g>
    <g id="xtick_9">
     <g id="line2d_9">
      <g>
       <use xlink:href="#m2896a9b6c3" x="192.913953" y="640.3905" style="stroke: #000000; stroke-width: 0.6"/>
      </g>
     </g>
    </g>
    <g id="xtick_10">
     <g id="line2d_10">
      <g>
       <use xlink:href="#m2896a9b6c3" x="249.650717" y="640.3905" style="stroke: #000000; stroke-width: 0.6"/>
      </g>
     </g>
    </g>
    <g id="xtick_11">
     <g id="line2d_11">
      <g>
       <use xlink:href="#m2896a9b6c3" x="278.019099" y="640.3905" style="stroke: #000000; stroke-width: 0.6"/>
      </g>
     </g>
    </g>
    <g id="xtick_12">
     <g id="line2d_12">
      <g>
       <use xlink:href="#m2896a9b6c3" x="306.38748" y="640.3905" style="stroke: #000000; stroke-width: 0.6"/>
      </g>
     </g>
    </g>
    <g id="xtick_13">
     <g id="line2d_13">
      <g>
       <use xlink:href="#m2896a9b6c3" x="363.124244" y="640.3905" style="stroke: #000000; stroke-width: 0.6"/>
      </g>
     </g>
    </g>
    <g id="xtick_14">
     <g id="line2d_14">
      <g>
       <use xlink:href="#m2896a9b6c3" x="391.492626" y="640.3905" style="stroke: #000000; stroke-width: 0.6"/>
      </g>
     </g>
    </g>
    <g id="xtick_15">
     <g id="line2d_15">
      <g>
       <use xlink:href="#m2896a9b6c3" x="419.861008" y="640.3905" style="stroke: #000000; stroke-width: 0.6"/>
      </g>
     </g>
    </g>
    <g id="xtick_16">
     <g id="line2d_16">
      <g>
       <use xlink:href="#m2896a9b6c3" x="476.597771" y="640.3905" style="stroke: #000000; stroke-width: 0.6"/>
      </g>
     </g>
    </g>
    <g id="xtick_17">
     <g id="line2d_17">
      <g>
       <use xlink:href="#m2896a9b6c3" x="504.966153" y="640.3905" style="stroke: #000000; stroke-width: 0.6"/>
      </g>
     </g>
    </g>
    <g id="xtick_18">
     <g id="line2d_18">
      <g>
       <use xlink:href="#m2896a9b6c3" x="533.334535" y="640.3905" style="stroke: #000000; stroke-width: 0.6"/>
      </g>
     </g>
    </g>
    <g id="xtick_19">
     <g id="line2d_19">
      <g>
       <use xlink:href="#m2896a9b6c3" x="590.071298" y="640.3905" style="stroke: #000000; stroke-width: 0.6"/>
      </g>
     </g>
    </g>
    <g id="xtick_20">
     <g id="line2d_20">
      <g>
       <use xlink:href="#m2896a9b6c3" x="618.43968" y="640.3905" style="stroke: #000000; stroke-width: 0.6"/>
      </g>
     </g>
    </g>
    <g id="xtick_21">
     <g id="line2d_21">
      <g>
       <use xlink:href="#m2896a9b6c3" x="646.808062" y="640.3905" style="stroke: #000000; stroke-width: 0.6"/>
      </g>
     </g>
    </g>
    <g id="text_7">
     <!-- Time ps -->
     <g transform="translate(338.744432 697.59675) scale(0.3 -0.3)">
      <defs>
       <path id="LiberationSans-54" d="M 2250 3916 
L 2250 0 
L 1656 0 
L 1656 3916 
L 144 3916 
L 144 4403 
L 3763 4403 
L 3763 3916 
L 2250 3916 
z
" transform="scale(0.015625)"/>
       <path id="LiberationSans-69" d="M 428 4100 
L 428 4638 
L 991 4638 
L 991 4100 
L 428 4100 
z
M 428 0 
L 428 3381 
L 991 3381 
L 991 0 
L 428 0 
z
" transform="scale(0.015625)"/>
       <path id="LiberationSans-6d" d="M 2400 0 
L 2400 2144 
Q 2400 2634 2265 2821 
Q 2131 3009 1781 3009 
Q 1422 3009 1212 2734 
Q 1003 2459 1003 1959 
L 1003 0 
L 444 0 
L 444 2659 
Q 444 3250 425 3381 
L 956 3381 
Q 959 3366 962 3297 
Q 966 3228 970 3139 
Q 975 3050 981 2803 
L 991 2803 
Q 1172 3163 1406 3303 
Q 1641 3444 1978 3444 
Q 2363 3444 2586 3291 
Q 2809 3138 2897 2803 
L 2906 2803 
Q 3081 3144 3329 3294 
Q 3578 3444 3931 3444 
Q 4444 3444 4676 3166 
Q 4909 2888 4909 2253 
L 4909 0 
L 4353 0 
L 4353 2144 
Q 4353 2634 4218 2821 
Q 4084 3009 3734 3009 
Q 3366 3009 3161 2736 
Q 2956 2463 2956 1959 
L 2956 0 
L 2400 0 
z
" transform="scale(0.015625)"/>
       <path id="LiberationSans-65" d="M 863 1572 
Q 863 991 1103 675 
Q 1344 359 1806 359 
Q 2172 359 2392 506 
Q 2613 653 2691 878 
L 3184 738 
Q 2881 -63 1806 -63 
Q 1056 -63 664 384 
Q 272 831 272 1713 
Q 272 2550 664 2997 
Q 1056 3444 1784 3444 
Q 3275 3444 3275 1647 
L 3275 1572 
L 863 1572 
z
M 2694 2003 
Q 2647 2538 2422 2783 
Q 2197 3028 1775 3028 
Q 1366 3028 1127 2754 
Q 888 2481 869 2003 
L 2694 2003 
z
" transform="scale(0.015625)"/>
       <path id="LiberationSans-20" transform="scale(0.015625)"/>
       <path id="LiberationSans-70" d="M 3291 1706 
Q 3291 -63 2047 -63 
Q 1266 -63 997 525 
L 981 525 
Q 994 500 994 -6 
L 994 -1328 
L 431 -1328 
L 431 2691 
Q 431 3213 413 3381 
L 956 3381 
Q 959 3369 965 3292 
Q 972 3216 980 3056 
Q 988 2897 988 2838 
L 1000 2838 
Q 1150 3150 1397 3295 
Q 1644 3441 2047 3441 
Q 2672 3441 2981 3022 
Q 3291 2603 3291 1706 
z
M 2700 1694 
Q 2700 2400 2509 2703 
Q 2319 3006 1903 3006 
Q 1569 3006 1380 2865 
Q 1191 2725 1092 2426 
Q 994 2128 994 1650 
Q 994 984 1206 668 
Q 1419 353 1897 353 
Q 2316 353 2508 661 
Q 2700 969 2700 1694 
z
" transform="scale(0.015625)"/>
       <path id="LiberationSans-73" d="M 2969 934 
Q 2969 456 2608 196 
Q 2247 -63 1597 -63 
Q 966 -63 623 145 
Q 281 353 178 794 
L 675 891 
Q 747 619 972 492 
Q 1197 366 1597 366 
Q 2025 366 2223 497 
Q 2422 628 2422 891 
Q 2422 1091 2284 1216 
Q 2147 1341 1841 1422 
L 1438 1528 
Q 953 1653 748 1773 
Q 544 1894 428 2066 
Q 313 2238 313 2488 
Q 313 2950 642 3192 
Q 972 3434 1603 3434 
Q 2163 3434 2492 3237 
Q 2822 3041 2909 2606 
L 2403 2544 
Q 2356 2769 2151 2889 
Q 1947 3009 1603 3009 
Q 1222 3009 1040 2893 
Q 859 2778 859 2544 
Q 859 2400 934 2306 
Q 1009 2213 1156 2147 
Q 1303 2081 1775 1966 
Q 2222 1853 2419 1758 
Q 2616 1663 2730 1547 
Q 2844 1431 2906 1279 
Q 2969 1128 2969 934 
z
" transform="scale(0.015625)"/>
      </defs>
      <use xlink:href="#LiberationSans-54"/>
      <use xlink:href="#LiberationSans-69" x="57.333984"/>
      <use xlink:href="#LiberationSans-6d" x="79.550781"/>
      <use xlink:href="#LiberationSans-65" x="162.851562"/>
      <use xlink:href="#LiberationSans-20" x="218.466797"/>
      <use xlink:href="#LiberationSans-70" x="246.25"/>
      <use xlink:href="#LiberationSans-73" x="301.865234"/>
     </g>
    </g>
   </g>
   <g id="matplotlib.axis_2">
    <g id="ytick_1">
     <g id="line2d_22">
      <defs>
       <path id="m611d4f1a9a" d="M 0 0 
L 3.5 0 
" style="stroke: #000000; stroke-width: 0.8"/>
      </defs>
      <g>
       <use xlink:href="#m611d4f1a9a" x="79.5" y="583.862143" style="stroke: #000000; stroke-width: 0.8"/>
      </g>
     </g>
     <g id="text_8">
      <!-- $\mathdefault{−2}$ -->
      <g transform="translate(41.5 594.732455) scale(0.3 -0.3)">
       <defs>
        <path id="LiberationSans-2212" d="M 316 1900 
L 316 2356 
L 3425 2356 
L 3425 1900 
L 316 1900 
z
" transform="scale(0.015625)"/>
       </defs>
       <use xlink:href="#LiberationSans-2212" transform="translate(0 0.171875)"/>
       <use xlink:href="#LiberationSans-32" transform="translate(58.398438 0.171875)"/>
      </g>
     </g>
    </g>
    <g id="ytick_2">
     <g id="line2d_23">
      <g>
       <use xlink:href="#m611d4f1a9a" x="79.5" y="486.074745" style="stroke: #000000; stroke-width: 0.8"/>
      </g>
     </g>
     <g id="text_9">
      <!-- $\mathdefault{0}$ -->
      <g transform="translate(59.2 496.945057) scale(0.3 -0.3)">
       <use xlink:href="#LiberationSans-30" transform="translate(0 0.171875)"/>
      </g>
     </g>
    </g>
    <g id="ytick_3">
     <g id="line2d_24">
      <g>
       <use xlink:href="#m611d4f1a9a" x="79.5" y="388.287346" style="stroke: #000000; stroke-width: 0.8"/>
      </g>
     </g>
     <g id="text_10">
      <!-- $\mathdefault{2}$ -->
      <g transform="translate(59.2 399.157659) scale(0.3 -0.3)">
       <use xlink:href="#LiberationSans-32" transform="translate(0 0.171875)"/>
      </g>
     </g>
    </g>
    <g id="ytick_4">
     <g id="line2d_25">
      <g>
       <use xlink:href="#m611d4f1a9a" x="79.5" y="290.499948" style="stroke: #000000; stroke-width: 0.8"/>
      </g>
     </g>
     <g id="text_11">
      <!-- $\mathdefault{4}$ -->
      <g transform="translate(59.2 301.370261) scale(0.3 -0.3)">
       <use xlink:href="#LiberationSans-34" transform="translate(0 0.203125)"/>
      </g>
     </g>
    </g>
    <g id="ytick_5">
     <g id="line2d_26">
      <g>
       <use xlink:href="#m611d4f1a9a" x="79.5" y="192.71255" style="stroke: #000000; stroke-width: 0.8"/>
      </g>
     </g>
     <g id="text_12">
      <!-- $\mathdefault{6}$ -->
      <g transform="translate(59.2 203.582863) scale(0.3 -0.3)">
       <use xlink:href="#LiberationSans-36" transform="translate(0 0.171875)"/>
      </g>
     </g>
    </g>
    <g id="ytick_6">
     <g id="line2d_27">
      <g>
       <use xlink:href="#m611d4f1a9a" x="79.5" y="94.925152" style="stroke: #000000; stroke-width: 0.8"/>
      </g>
     </g>
     <g id="text_13">
      <!-- $\mathdefault{8}$ -->
      <g transform="translate(59.2 105.795465) scale(0.3 -0.3)">
       <use xlink:href="#LiberationSans-38" transform="translate(0 0.171875)"/>
      </g>
     </g>
    </g>
    <g id="ytick_7">
     <g id="line2d_28">
      <defs>
       <path id="m9eb29340f5" d="M 0 0 
L 2 0 
" style="stroke: #000000; stroke-width: 0.6"/>
      </defs>
      <g>
       <use xlink:href="#m9eb29340f5" x="79.5" y="632.755842" style="stroke: #000000; stroke-width: 0.6"/>
      </g>
     </g>
    </g>
    <g id="ytick_8">
     <g id="line2d_29">
      <g>
       <use xlink:href="#m9eb29340f5" x="79.5" y="608.308992" style="stroke: #000000; stroke-width: 0.6"/>
      </g>
     </g>
    </g>
    <g id="ytick_9">
     <g id="line2d_30">
      <g>
       <use xlink:href="#m9eb29340f5" x="79.5" y="559.415293" style="stroke: #000000; stroke-width: 0.6"/>
      </g>
     </g>
    </g>
    <g id="ytick_10">
     <g id="line2d_31">
      <g>
       <use xlink:href="#m9eb29340f5" x="79.5" y="534.968444" style="stroke: #000000; stroke-width: 0.6"/>
      </g>
     </g>
    </g>
    <g id="ytick_11">
     <g id="line2d_32">
      <g>
       <use xlink:href="#m9eb29340f5" x="79.5" y="510.521594" style="stroke: #000000; stroke-width: 0.6"/>
      </g>
     </g>
    </g>
    <g id="ytick_12">
     <g id="line2d_33">
      <g>
       <use xlink:href="#m9eb29340f5" x="79.5" y="461.627895" style="stroke: #000000; stroke-width: 0.6"/>
      </g>
     </g>
    </g>
    <g id="ytick_13">
     <g id="line2d_34">
      <g>
       <use xlink:href="#m9eb29340f5" x="79.5" y="437.181046" style="stroke: #000000; stroke-width: 0.6"/>
      </g>
     </g>
    </g>
    <g id="ytick_14">
     <g id="line2d_35">
      <g>
       <use xlink:href="#m9eb29340f5" x="79.5" y="412.734196" style="stroke: #000000; stroke-width: 0.6"/>
      </g>
     </g>
    </g>
    <g id="ytick_15">
     <g id="line2d_36">
      <g>
       <use xlink:href="#m9eb29340f5" x="79.5" y="363.840497" style="stroke: #000000; stroke-width: 0.6"/>
      </g>
     </g>
    </g>
    <g id="ytick_16">
     <g id="line2d_37">
      <g>
       <use xlink:href="#m9eb29340f5" x="79.5" y="339.393647" style="stroke: #000000; stroke-width: 0.6"/>
      </g>
     </g>
    </g>
    <g id="ytick_17">
     <g id="line2d_38">
      <g>
       <use xlink:href="#m9eb29340f5" x="79.5" y="314.946798" style="stroke: #000000; stroke-width: 0.6"/>
      </g>
     </g>
    </g>
    <g id="ytick_18">
     <g id="line2d_39">
      <g>
       <use xlink:href="#m9eb29340f5" x="79.5" y="266.053099" style="stroke: #000000; stroke-width: 0.6"/>
      </g>
     </g>
    </g>
    <g id="ytick_19">
     <g id="line2d_40">
      <g>
       <use xlink:href="#m9eb29340f5" x="79.5" y="241.606249" style="stroke: #000000; stroke-width: 0.6"/>
      </g>
     </g>
    </g>
    <g id="ytick_20">
     <g id="line2d_41">
      <g>
       <use xlink:href="#m9eb29340f5" x="79.5" y="217.1594" style="stroke: #000000; stroke-width: 0.6"/>
      </g>
     </g>
    </g>
    <g id="ytick_21">
     <g id="line2d_42">
      <g>
       <use xlink:href="#m9eb29340f5" x="79.5" y="168.265701" style="stroke: #000000; stroke-width: 0.6"/>
      </g>
     </g>
    </g>
    <g id="ytick_22">
     <g id="line2d_43">
      <g>
       <use xlink:href="#m9eb29340f5" x="79.5" y="143.818851" style="stroke: #000000; stroke-width: 0.6"/>
      </g>
     </g>
    </g>
    <g id="ytick_23">
     <g id="line2d_44">
      <g>
       <use xlink:href="#m9eb29340f5" x="79.5" y="119.372002" style="stroke: #000000; stroke-width: 0.6"/>
      </g>
     </g>
    </g>
    <g id="ytick_24">
     <g id="line2d_45">
      <g>
       <use xlink:href="#m9eb29340f5" x="79.5" y="70.478303" style="stroke: #000000; stroke-width: 0.6"/>
      </g>
     </g>
    </g>
    <g id="ytick_25">
     <g id="line2d_46">
      <g>
       <use xlink:href="#m9eb29340f5" x="79.5" y="46.031453" style="stroke: #000000; stroke-width: 0.6"/>
      </g>
     </g>
    </g>
    <g id="text_14">
     <!-- HFACF $(\mathrm{W} / \mathrm{m}^2)^2$ -->
     <g transform="translate(31.275 446.289) rotate(-90) scale(0.3 -0.3)">
      <defs>
       <path id="LiberationSans-48" d="M 3503 0 
L 3503 2041 
L 1122 2041 
L 1122 0 
L 525 0 
L 525 4403 
L 1122 4403 
L 1122 2541 
L 3503 2541 
L 3503 4403 
L 4100 4403 
L 4100 0 
L 3503 0 
z
" transform="scale(0.015625)"/>
       <path id="LiberationSans-46" d="M 1122 3916 
L 1122 2278 
L 3578 2278 
L 3578 1784 
L 1122 1784 
L 1122 0 
L 525 0 
L 525 4403 
L 3653 4403 
L 3653 3916 
L 1122 3916 
z
" transform="scale(0.015625)"/>
       <path id="LiberationSans-41" d="M 3647 0 
L 3144 1288 
L 1138 1288 
L 631 0 
L 13 0 
L 1809 4403 
L 2488 4403 
L 4256 0 
L 3647 0 
z
M 2141 3953 
L 2113 3866 
Q 2034 3606 1881 3200 
L 1319 1753 
L 2966 1753 
L 2400 3206 
Q 2313 3422 2225 3694 
L 2141 3953 
z
" transform="scale(0.015625)"/>
       <path id="LiberationSans-43" d="M 2475 3981 
Q 1744 3981 1337 3511 
Q 931 3041 931 2222 
Q 931 1413 1354 920 
Q 1778 428 2500 428 
Q 3425 428 3891 1344 
L 4378 1100 
Q 4106 531 3614 234 
Q 3122 -63 2472 -63 
Q 1806 -63 1320 214 
Q 834 491 579 1005 
Q 325 1519 325 2222 
Q 325 3275 894 3872 
Q 1463 4469 2469 4469 
Q 3172 4469 3644 4194 
Q 4116 3919 4338 3378 
L 3772 3191 
Q 3619 3575 3280 3778 
Q 2941 3981 2475 3981 
z
" transform="scale(0.015625)"/>
       <path id="STIXGeneral-Regular-28" d="M 1946 -1030 
L 1869 -1133 
Q 1126 -710 716 32 
Q 307 774 307 1613 
Q 307 3386 1888 4326 
L 1946 4224 
Q 1293 3667 1075 3126 
Q 858 2586 858 1632 
Q 858 685 1082 96 
Q 1306 -493 1946 -1030 
z
" transform="scale(0.015625)"/>
       <path id="STIXGeneral-Regular-57" d="M 5965 4237 
L 5965 4115 
Q 5709 4064 5616 3990 
Q 5523 3917 5434 3667 
Q 4704 1709 4128 -70 
L 4032 -70 
Q 3642 1011 3008 2637 
L 2022 -70 
L 1926 -70 
Q 1709 576 1277 1753 
Q 845 2931 698 3347 
Q 538 3808 406 3958 
Q 275 4109 32 4115 
L 32 4237 
L 1594 4237 
L 1594 4115 
Q 1357 4109 1270 4064 
Q 1184 4019 1184 3917 
Q 1184 3808 1254 3616 
L 2176 1210 
L 2842 3021 
L 2662 3501 
Q 2509 3917 2400 4013 
Q 2291 4109 2010 4115 
L 2010 4237 
L 3706 4237 
L 3706 4115 
Q 3213 4102 3213 3891 
Q 3213 3808 3322 3520 
L 4237 1190 
L 5043 3360 
Q 5152 3667 5152 3853 
Q 5152 4109 4704 4115 
L 4704 4237 
L 5965 4237 
z
" transform="scale(0.015625)"/>
       <path id="STIXGeneral-Regular-2f" d="M 1837 4326 
L 378 -90 
L -58 -90 
L 1408 4326 
L 1837 4326 
z
" transform="scale(0.015625)"/>
       <path id="STIXGeneral-Regular-6d" d="M 4960 0 
L 3565 0 
L 3565 96 
Q 3834 122 3907 208 
Q 3981 294 3981 576 
L 3981 1894 
Q 3981 2278 3869 2444 
Q 3757 2611 3488 2611 
Q 3264 2611 3107 2521 
Q 2950 2432 2803 2221 
L 2803 608 
Q 2803 301 2896 201 
Q 2989 102 3264 96 
L 3264 0 
L 1830 0 
L 1830 96 
Q 2112 115 2189 188 
Q 2266 262 2266 550 
L 2266 1901 
Q 2266 2611 1850 2611 
Q 1670 2611 1468 2531 
Q 1267 2451 1171 2336 
Q 1088 2240 1088 2227 
L 1088 448 
Q 1088 243 1177 176 
Q 1267 109 1523 96 
L 1523 0 
L 102 0 
L 102 96 
Q 371 102 460 195 
Q 550 288 550 563 
L 550 2150 
Q 550 2387 499 2480 
Q 448 2573 326 2573 
Q 230 2573 122 2547 
L 122 2656 
Q 557 2778 1011 2944 
L 1062 2925 
L 1062 2451 
L 1075 2451 
Q 1363 2752 1584 2848 
Q 1805 2944 2054 2944 
Q 2560 2944 2733 2406 
Q 3232 2944 3776 2944 
Q 4518 2944 4518 1792 
L 4518 493 
Q 4518 282 4582 202 
Q 4646 122 4794 109 
L 4960 96 
L 4960 0 
z
" transform="scale(0.015625)"/>
       <path id="STIXGeneral-Regular-32" d="M 3034 877 
L 2688 0 
L 186 0 
L 186 77 
L 1325 1286 
Q 1773 1754 1965 2144 
Q 2157 2534 2157 2950 
Q 2157 3379 1920 3616 
Q 1683 3853 1267 3853 
Q 922 3853 720 3673 
Q 518 3494 326 3021 
L 192 3053 
Q 301 3648 630 3987 
Q 960 4326 1523 4326 
Q 2054 4326 2380 4006 
Q 2707 3686 2707 3200 
Q 2707 2477 1888 1613 
L 832 486 
L 2330 486 
Q 2541 486 2665 569 
Q 2790 653 2944 915 
L 3034 877 
z
" transform="scale(0.015625)"/>
       <path id="STIXGeneral-Regular-29" d="M 186 4224 
L 262 4326 
Q 992 3891 1408 3148 
Q 1824 2406 1824 1581 
Q 1824 -166 243 -1133 
L 186 -1030 
Q 845 -486 1059 54 
Q 1274 595 1274 1562 
Q 1274 2534 1059 3120 
Q 845 3706 186 4224 
z
" transform="scale(0.015625)"/>
      </defs>
      <use xlink:href="#LiberationSans-48" transform="translate(0 0.409375)"/>
      <use xlink:href="#LiberationSans-46" transform="translate(72.216797 0.409375)"/>
      <use xlink:href="#LiberationSans-41" transform="translate(133.300781 0.409375)"/>
      <use xlink:href="#LiberationSans-43" transform="translate(200 0.409375)"/>
      <use xlink:href="#LiberationSans-46" transform="translate(272.216797 0.409375)"/>
      <use xlink:href="#LiberationSans-20" transform="translate(333.300781 0.409375)"/>
      <use xlink:href="#STIXGeneral-Regular-28" transform="translate(361.083984 0.409375)"/>
      <use xlink:href="#STIXGeneral-Regular-57" transform="translate(394.383972 0.409375)"/>
      <use xlink:href="#STIXGeneral-Regular-2f" transform="translate(488.783966 0.409375)"/>
      <use xlink:href="#STIXGeneral-Regular-6d" transform="translate(516.583954 0.409375)"/>
      <use xlink:href="#STIXGeneral-Regular-32" transform="translate(595.927223 35.684375) scale(0.7)"/>
      <use xlink:href="#STIXGeneral-Regular-29" transform="translate(635.336587 0.409375)"/>
      <use xlink:href="#STIXGeneral-Regular-32" transform="translate(670.179856 35.684375) scale(0.7)"/>
     </g>
    </g>
    <g id="text_15">
     <!-- $\times\mathdefault{10^{18}}\mathdefault{}$ -->
     <g transform="translate(79.5 36.1875) scale(0.4 -0.4)">
      <defs>
       <path id="STIXGeneral-Regular-d7" d="M 3821 141 
L 3526 -160 
L 2048 1312 
L 570 -160 
L 275 134 
L 1747 1613 
L 275 3091 
L 576 3386 
L 2048 1914 
L 3526 3386 
L 3821 3098 
L 2349 1613 
L 3821 141 
z
" transform="scale(0.015625)"/>
      </defs>
      <use xlink:href="#STIXGeneral-Regular-d7" transform="translate(0 0.140625)"/>
      <use xlink:href="#LiberationSans-31" transform="translate(63.999985 0.140625)"/>
      <use xlink:href="#LiberationSans-30" transform="translate(119.615219 0.140625)"/>
      <use xlink:href="#LiberationSans-31" transform="translate(176.154946 37.120312) scale(0.7)"/>
      <use xlink:href="#LiberationSans-38" transform="translate(215.08561 37.120312) scale(0.7)"/>
     </g>
    </g>
   </g>
   <g id="line2d_47">
    <path d="M 107.865545 66.514909 
L 108.092492 74.881024 
L 108.376176 90.865076 
L 108.773333 128.793643 
L 109.340701 206.812834 
L 111.553435 538.971691 
L 112.120802 583.852532 
L 112.574696 604.112258 
L 112.915117 611.315031 
L 113.142064 612.975996 
L 113.198801 613.063091 
L 113.255537 613.015205 
L 113.425748 612.17096 
L 113.709432 608.939906 
L 114.163326 600.468947 
L 116.773217 545.350002 
L 118.134899 516.429333 
L 120.007212 475.460423 
L 120.631317 466.522697 
L 121.141948 462.029351 
L 121.595842 460.174604 
L 121.879526 459.963667 
L 122.049736 460.125038 
L 122.390156 461.047839 
L 122.730577 462.609554 
L 123.411418 466.962217 
L 125.000048 479.504968 
L 125.907836 485.548057 
L 126.758887 489.761587 
L 127.780149 492.936827 
L 128.404253 494.245919 
L 128.971621 495.460875 
L 129.936146 497.070442 
L 130.56025 497.430262 
L 130.843934 497.375471 
L 131.184355 497.131752 
L 131.694986 496.260745 
L 132.432564 494.008528 
L 133.056668 491.37178 
L 133.964456 486.711639 
L 135.212665 481.042449 
L 135.666559 479.732219 
L 136.17719 478.871121 
L 136.51761 478.669783 
L 136.971505 478.78072 
L 137.368662 479.201502 
L 137.879293 480.13013 
L 138.957291 483.177653 
L 140.262237 487.185999 
L 141.056552 488.936947 
L 141.737393 489.87157 
L 142.248024 490.316752 
L 142.645181 490.564422 
L 143.552969 490.618565 
L 144.0636 490.31536 
L 145.028125 489.15275 
L 147.978437 484.168868 
L 148.999698 482.941491 
L 150.815275 480.022354 
L 151.269169 479.818665 
L 151.552853 479.877522 
L 151.95001 480.217524 
L 152.574115 481.299108 
L 153.481903 483.870846 
L 154.957059 488.220569 
L 155.694637 489.975199 
L 156.772635 491.790327 
L 157.56695 492.878537 
L 158.077581 493.272619 
L 158.701685 493.270057 
L 158.985369 493.033216 
L 159.382526 492.419914 
L 159.949894 491.08937 
L 161.084629 487.555532 
L 162.673258 482.333856 
L 163.3541 480.822939 
L 163.864731 480.193279 
L 164.318625 479.995129 
L 164.942729 480.076352 
L 165.339886 480.390218 
L 165.850517 481.119575 
L 166.531358 482.53168 
L 167.779567 485.751895 
L 168.857566 488.240361 
L 169.595144 489.432915 
L 170.219248 490.035998 
L 170.729879 490.234051 
L 171.183773 490.19849 
L 171.694404 489.934126 
L 172.318508 489.334827 
L 173.112823 488.200662 
L 174.814926 485.168984 
L 175.609241 484.02674 
L 176.290082 483.43308 
L 176.914186 483.231018 
L 177.538291 483.341125 
L 178.162395 483.668995 
L 179.240393 484.581055 
L 182.474389 487.675466 
L 183.15523 487.892483 
L 183.836071 487.828804 
L 184.743859 487.40639 
L 186.162279 486.553939 
L 186.956593 486.296236 
L 187.694171 486.291573 
L 190.190589 486.489269 
L 191.098377 486.103479 
L 193.311111 484.988006 
L 194.162162 484.877748 
L 195.013214 484.971565 
L 197.169211 485.587576 
L 198.360683 486.172993 
L 199.381944 486.888699 
L 200.970574 487.974795 
L 201.594678 488.159391 
L 202.218783 488.099531 
L 202.78615 487.813153 
L 203.466991 487.174672 
L 204.37478 485.993638 
L 206.30383 483.500731 
L 207.041408 482.96078 
L 207.608775 482.794625 
L 208.23288 482.874023 
L 208.800247 483.183147 
L 209.424352 483.799144 
L 210.275403 485.032333 
L 213.112241 489.603235 
L 213.793082 490.098636 
L 214.417187 490.232054 
L 214.927818 490.113283 
L 215.438449 489.777947 
L 216.005816 489.159717 
L 216.800131 487.937513 
L 217.764656 486.045295 
L 219.920653 481.553167 
L 220.544757 480.736772 
L 221.055388 480.396818 
L 221.395809 480.381396 
L 221.736229 480.55376 
L 222.190123 481.04634 
L 222.814228 482.142247 
L 223.608543 484.036304 
L 225.651066 489.105414 
L 226.27517 490.08596 
L 226.842538 490.612042 
L 227.353169 490.759866 
L 227.807063 490.657618 
L 228.374431 490.254068 
L 228.998535 489.520184 
L 229.79285 488.246665 
L 232.175794 484.191213 
L 232.856635 483.527373 
L 233.424003 483.249837 
L 233.99137 483.210796 
L 234.672211 483.39598 
L 235.636736 483.903897 
L 237.225366 485.091311 
L 238.700522 486.477225 
L 240.118941 487.783323 
L 240.743045 488.06387 
L 241.310413 488.055829 
L 241.821044 487.818677 
L 242.445148 487.276508 
L 243.523146 485.995276 
L 244.374198 485.110531 
L 244.998302 484.746104 
L 245.508933 484.677808 
L 246.019564 484.813015 
L 246.757142 485.302391 
L 248.572718 486.733908 
L 249.367033 487.039865 
L 249.991138 487.058547 
L 250.671979 486.878349 
L 251.863451 486.275151 
L 253.11166 485.670078 
L 253.792501 485.55914 
L 254.416605 485.667696 
L 255.097446 486.026901 
L 255.891761 486.734527 
L 257.593864 488.350175 
L 258.161231 488.582038 
L 258.671862 488.546366 
L 259.23923 488.228347 
L 259.863334 487.558257 
L 260.827859 486.152857 
L 262.189542 484.206199 
L 263.09733 483.323081 
L 263.834908 482.922232 
L 264.515749 482.801798 
L 265.253327 482.950297 
L 265.877431 483.313505 
L 266.671746 484.154351 
L 267.466061 485.349117 
L 270.019215 489.390228 
L 270.643319 489.874997 
L 271.267424 490.071301 
L 271.834791 490.012107 
L 272.458896 489.698544 
L 273.083 489.144411 
L 273.934052 488.027441 
L 274.84184 486.40023 
L 277.621941 481.161701 
L 278.075835 480.817379 
L 278.87015 481.075958 
L 279.437518 481.700716 
L 280.231832 483.033883 
L 283.182144 488.583321 
L 283.976459 489.545494 
L 284.543827 489.967203 
L 285.111194 490.142744 
L 285.621825 490.08306 
L 286.245929 489.706977 
L 286.813297 489.068671 
L 287.607612 487.791535 
L 289.820346 483.86439 
L 290.44445 483.262713 
L 290.955081 483.033711 
L 291.522448 483.033914 
L 292.146553 483.286386 
L 293.054341 483.974093 
L 294.47276 485.353489 
L 295.947916 486.775729 
L 296.742231 487.298277 
L 297.423072 487.486079 
L 298.103913 487.408919 
L 298.898228 487.020033 
L 301.678329 485.323699 
L 302.472644 485.234249 
L 303.891063 485.326176 
L 305.252745 485.360117 
L 306.160533 485.450908 
L 307.465479 485.901702 
L 309.337792 486.656568 
L 311.153369 486.907787 
L 312.344841 487.191354 
L 313.93347 488.005413 
L 314.727785 488.293533 
L 315.295152 488.315872 
L 315.805783 488.157453 
L 316.373151 487.777649 
L 317.280939 486.783414 
L 320.344724 483.083993 
L 321.139039 482.648241 
L 321.763143 482.553408 
L 322.330511 482.690278 
L 322.954615 483.098143 
L 323.635457 483.826726 
L 324.599982 485.242696 
L 327.096399 489.022616 
L 328.004187 489.857823 
L 328.628292 490.150358 
L 329.195659 490.148582 
L 329.649554 489.943602 
L 330.160184 489.490091 
L 330.784289 488.602727 
L 331.521867 487.098412 
L 334.245231 480.800337 
L 334.699125 480.405533 
L 335.039546 480.368362 
L 335.379967 480.54339 
L 335.833861 481.058275 
L 336.401228 482.048046 
L 337.309017 484.089682 
L 338.784172 487.341379 
L 339.578487 488.603827 
L 340.429539 489.496908 
L 341.053643 489.850686 
L 341.734484 489.957552 
L 342.301852 489.833947 
L 342.869219 489.513284 
L 343.493324 488.903923 
L 344.287639 487.815517 
L 346.500372 484.532005 
L 347.23795 483.93716 
L 347.918791 483.679584 
L 348.769843 483.644713 
L 349.620894 483.860782 
L 350.528682 484.342549 
L 351.436471 485.07695 
L 352.571206 486.28302 
L 353.705941 487.39145 
L 354.386782 487.732366 
L 354.897413 487.766176 
L 355.351307 487.639872 
L 356.088885 487.175478 
L 358.074672 485.755877 
L 358.698776 485.643692 
L 359.322881 485.750376 
L 360.117196 486.096758 
L 361.592351 486.752144 
L 362.386666 486.888858 
L 363.124244 486.836865 
L 364.088769 486.497713 
L 365.507188 485.726733 
L 366.755397 485.157737 
L 367.549712 485.09325 
L 368.173816 485.270823 
L 368.741184 485.592579 
L 369.592235 486.305039 
L 371.067391 487.531963 
L 371.748232 487.822231 
L 372.372336 487.839672 
L 372.996441 487.614613 
L 373.790756 487.003543 
L 374.812017 485.928485 
L 376.911278 483.713008 
L 377.648855 483.20213 
L 378.329697 482.979523 
L 379.010538 483.043251 
L 379.577905 483.346351 
L 380.20201 483.93229 
L 381.053061 485.114753 
L 382.528217 487.719312 
L 383.776426 489.764085 
L 384.627477 490.756501 
L 385.251582 491.163011 
L 385.648739 491.2264 
L 386.045896 491.11787 
L 386.556527 490.701304 
L 387.123895 489.873978 
L 387.804736 488.390879 
L 388.712524 485.825147 
L 390.18768 481.63254 
L 390.868521 480.356671 
L 391.322415 479.89609 
L 391.719573 479.791266 
L 392.11673 479.964449 
L 392.570624 480.447229 
L 393.137992 481.390082 
L 394.04578 483.385827 
L 395.747883 487.166796 
L 396.542198 488.429899 
L 397.279776 489.215793 
L 397.90388 489.554903 
L 398.527984 489.599581 
L 399.208826 489.363286 
L 399.889667 488.872943 
L 400.683981 488.026123 
L 401.76198 486.6268 
L 402.953452 485.174175 
L 403.86124 484.359933 
L 404.825765 483.881682 
L 405.563343 483.767044 
L 406.187448 483.850435 
L 406.981762 484.20022 
L 407.946287 484.957001 
L 410.556178 487.51316 
L 411.180283 487.775912 
L 411.917861 487.835717 
L 412.768912 487.665408 
L 417.818484 485.879698 
L 419.236903 485.334835 
L 420.371638 485.092384 
L 421.733321 485.00462 
L 423.775844 484.936065 
L 424.626896 485.146078 
L 425.307737 485.525784 
L 426.045315 486.170403 
L 428.655206 488.652156 
L 429.27931 488.787853 
L 429.789941 488.708485 
L 430.527519 488.293319 
L 431.378571 487.530758 
L 434.158672 484.866494 
L 435.06646 484.326365 
L 435.974248 484.117042 
L 436.65509 484.277364 
L 437.279194 484.666652 
L 438.073509 485.459437 
L 439.548664 487.367394 
L 440.6834 488.62355 
L 441.364241 489.099497 
L 441.931609 489.269433 
L 442.442239 489.195359 
L 443.009607 488.833031 
L 443.633711 488.088412 
L 444.371289 486.792935 
L 445.449288 484.347104 
L 446.64076 481.705307 
L 447.321601 480.693355 
L 447.832232 480.313238 
L 448.172653 480.272467 
L 448.513073 480.442616 
L 448.966967 480.952101 
L 449.591072 482.03875 
L 450.555597 484.256618 
L 452.144226 487.959209 
L 452.938541 489.301553 
L 453.676119 490.081457 
L 454.243486 490.351987 
L 454.754117 490.3467 
L 455.321485 490.077122 
L 455.945589 489.519932 
L 456.739904 488.491733 
L 459.690216 484.316648 
L 460.48453 483.725763 
L 461.278845 483.447044 
L 462.016423 483.39552 
L 462.810738 483.596722 
L 463.434842 483.996809 
L 464.17242 484.737989 
L 465.080208 485.980657 
L 466.668837 488.247166 
L 467.292942 488.766674 
L 467.803573 488.931666 
L 468.257467 488.880782 
L 468.768098 488.632998 
L 469.505676 488.043329 
L 470.867358 486.92385 
L 471.604936 486.603074 
L 472.739671 486.484136 
L 474.044617 486.32467 
L 475.009142 485.913444 
L 476.314087 485.252015 
L 477.221875 484.995835 
L 478.299874 484.975666 
L 480.001977 484.97491 
L 481.079975 484.986915 
L 481.760817 485.193401 
L 482.498394 485.709319 
L 483.235972 486.53651 
L 485.335233 489.078421 
L 485.845863 489.320327 
L 486.299758 489.313042 
L 486.753652 489.082908 
L 487.321019 488.519642 
L 488.058597 487.42371 
L 489.42028 484.954225 
L 490.384805 483.416662 
L 491.065646 482.681953 
L 491.576277 482.361812 
L 492.143644 482.269522 
L 492.597538 482.409812 
L 493.164906 482.866005 
L 493.78901 483.678883 
L 494.867009 485.570715 
L 496.171954 487.792096 
L 497.023006 488.851832 
L 497.817321 489.483342 
L 498.498162 489.76492 
L 499.122266 489.795487 
L 499.632897 489.638878 
L 500.143528 489.298089 
L 500.767632 488.613401 
L 501.448473 487.489033 
L 502.299525 485.604304 
L 504.115101 481.426206 
L 504.682469 480.641186 
L 505.079626 480.394015 
L 505.420047 480.444076 
L 505.817204 480.774114 
L 506.271098 481.455327 
L 506.95194 482.959325 
L 509.618567 489.418037 
L 510.242672 490.123137 
L 510.810039 490.418467 
L 511.32067 490.437446 
L 511.888038 490.242776 
L 512.682353 489.701471 
L 513.533404 488.865666 
L 514.497929 487.615003 
L 517.561714 483.247648 
L 518.185819 482.897555 
L 518.639713 482.836125 
L 519.093607 482.951036 
L 519.717711 483.399924 
L 520.398552 484.212239 
L 521.816972 486.377097 
L 522.72476 487.596554 
L 523.405601 488.164168 
L 523.916232 488.32853 
L 524.426863 488.264774 
L 525.050967 487.925484 
L 525.958755 487.083069 
L 527.490648 485.686489 
L 528.171489 485.385772 
L 528.909067 485.364863 
L 529.703382 485.604325 
L 531.972852 486.340725 
L 532.994114 486.345983 
L 534.29906 486.183936 
L 535.830952 485.810095 
L 537.249371 485.449342 
L 538.100423 485.474995 
L 538.838001 485.747424 
L 539.689052 486.369226 
L 542.128733 488.407781 
L 542.639364 488.499632 
L 543.149995 488.383577 
L 543.660626 488.038176 
L 544.341467 487.295363 
L 545.532939 485.55121 
L 547.178305 483.291 
L 547.915883 482.670927 
L 548.48325 482.46339 
L 548.937145 482.502227 
L 549.391039 482.743681 
L 549.844933 483.200999 
L 550.525774 484.244915 
L 551.490299 486.257462 
L 552.908718 489.319989 
L 553.589559 490.303956 
L 554.10019 490.70207 
L 554.610821 490.801017 
L 555.064715 490.649235 
L 555.632083 490.150004 
L 556.256187 489.272598 
L 557.334186 487.200349 
L 560.22776 481.369344 
L 560.908602 480.592553 
L 561.419233 480.317488 
L 561.81639 480.339414 
L 562.213547 480.631755 
L 562.724178 481.300639 
L 563.405019 482.59107 
L 564.426281 485.043401 
L 565.787963 488.233314 
L 566.582278 489.544936 
L 567.206382 490.170399 
L 567.660276 490.385339 
L 568.170907 490.392263 
L 568.681538 490.166524 
L 569.305643 489.617863 
L 570.156694 488.481206 
L 571.80206 485.61039 
L 572.766585 484.11596 
L 573.504163 483.385661 
L 574.071531 483.106815 
L 574.752372 483.094185 
L 575.376476 483.295046 
L 576.284265 483.837999 
L 577.24879 484.668933 
L 578.440262 485.953993 
L 580.539522 488.268707 
L 581.220363 488.610982 
L 581.787731 488.633681 
L 582.355098 488.40343 
L 583.035939 487.860708 
L 584.340885 486.433689 
L 585.362147 485.487828 
L 586.213198 484.989281 
L 587.177723 484.728171 
L 588.369195 484.709354 
L 589.220247 484.88293 
L 590.298245 485.414093 
L 592.454242 486.721107 
L 593.135083 486.848984 
L 594.156345 486.74989 
L 595.347817 486.656221 
L 596.085395 486.865633 
L 596.87971 487.355985 
L 598.354866 488.314227 
L 599.092443 488.409825 
L 599.603074 488.233923 
L 600.113705 487.853319 
L 600.794546 487.104406 
L 603.461174 483.821081 
L 604.142015 483.401843 
L 604.76612 483.245977 
L 605.446961 483.32102 
L 606.127802 483.63632 
L 606.751907 484.157979 
L 607.546221 485.116594 
L 608.737693 486.967737 
L 610.212849 489.186616 
L 611.007164 490.022053 
L 611.574531 490.355128 
L 612.085162 490.413103 
L 612.539056 490.237133 
L 613.049687 489.768928 
L 613.673792 488.84085 
L 614.468106 487.230807 
L 616.85105 481.902276 
L 617.531892 481.019033 
L 618.042522 480.70115 
L 618.496417 480.686514 
L 619.347468 481.539782 
L 620.028309 482.727849 
L 621.446728 485.805497 
L 622.524727 487.866345 
L 623.375778 489.003009 
L 624.113356 489.606032 
L 624.737461 489.825831 
L 625.361565 489.781754 
L 625.985669 489.485833 
L 626.553037 489.011026 
L 627.290615 488.067441 
L 628.42535 486.159454 
L 629.730296 484.086568 
L 630.467874 483.386834 
L 631.035241 483.166217 
L 631.602609 483.223265 
L 632.28345 483.565891 
L 632.964291 484.111241 
L 636.255024 487.097259 
L 637.049338 487.382002 
L 637.90039 487.38818 
L 639.148599 487.081894 
L 641.985437 486.366671 
L 645.61659 485.699978 
L 646.581115 485.899139 
L 648.907322 486.625176 
L 649.6449 486.549884 
L 652.425001 485.919532 
L 653.105842 486.131383 
L 654.183841 486.760348 
L 655.091629 487.271903 
L 655.885944 487.438998 
L 656.510048 487.317324 
L 657.134153 486.978509 
L 658.098678 486.184824 
L 660.141201 484.411558 
L 661.048989 483.897547 
L 661.900041 483.707415 
L 662.524145 483.790375 
L 663.148249 484.121562 
L 663.772354 484.720738 
L 664.623405 485.86639 
L 666.779402 488.888287 
L 667.403507 489.37679 
L 668.027611 489.599954 
L 668.538242 489.585203 
L 669.10561 489.351472 
L 669.729714 488.826885 
L 670.524029 487.773321 
L 671.318343 486.351105 
L 672.509815 483.681592 
L 673.701288 481.133358 
L 674.382129 480.193349 
L 674.836023 479.903375 
L 675.176443 479.90825 
L 675.176443 479.90825 
" clip-path="url(#p8465dbc40e)" style="fill: none; stroke: #0000ff; stroke-width: 1.5; stroke-linecap: square"/>
   </g>
   <g id="patch_3">
    <path d="M 79.5 640.3905 
L 79.5 39.1875 
" style="fill: none; stroke: #000000; stroke-width: 0.8; stroke-linejoin: miter; stroke-linecap: square"/>
   </g>
   <g id="patch_4">
    <path d="M 703.541988 640.3905 
L 703.541988 39.1875 
" style="fill: none; stroke: #000000; stroke-width: 0.8; stroke-linejoin: miter; stroke-linecap: square"/>
   </g>
   <g id="patch_5">
    <path d="M 79.5 640.3905 
L 703.541988 640.3905 
" style="fill: none; stroke: #000000; stroke-width: 0.8; stroke-linejoin: miter; stroke-linecap: square"/>
   </g>
   <g id="patch_6">
    <path d="M 79.5 39.1875 
L 703.541988 39.1875 
" style="fill: none; stroke: #000000; stroke-width: 0.8; stroke-linejoin: miter; stroke-linecap: square"/>
   </g>
  </g>
 </g>
 <defs>
  <clipPath id="p8465dbc40e">
   <rect x="79.5" y="39.1875" width="624.041988" height="601.203"/>
  </clipPath>
 </defs>
</svg>
