<?xml version="1.0" encoding="utf-8" standalone="no"?>
<!DOCTYPE svg PUBLIC "-//W3C//DTD SVG 1.1//EN"
  "http://www.w3.org/Graphics/SVG/1.1/DTD/svg11.dtd">
<svg xmlns:xlink="http://www.w3.org/1999/xlink" width="711.588047pt" height="711.105187pt" viewBox="0 0 711.588047 711.105187" xmlns="http://www.w3.org/2000/svg" version="1.1">
 <metadata>
  <rdf:RDF xmlns:dc="http://purl.org/dc/elements/1.1/" xmlns:cc="http://creativecommons.org/ns#" xmlns:rdf="http://www.w3.org/1999/02/22-rdf-syntax-ns#">
   <cc:Work>
    <dc:type rdf:resource="http://purl.org/dc/dcmitype/StillImage"/>
    <dc:date>2025-02-03T19:42:55.716727</dc:date>
    <dc:format>image/svg+xml</dc:format>
    <dc:creator>
     <cc:Agent>
      <dc:title>Matplotlib v3.9.3, https://matplotlib.org/</dc:title>
     </cc:Agent>
    </dc:creator>
   </cc:Work>
  </rdf:RDF>
 </metadata>
 <defs>
  <style type="text/css">*{stroke-linejoin: round; stroke-linecap: butt}</style>
 </defs>
 <g id="figure_1">
  <g id="patch_1">
   <path d="M 0 711.105187 
L 711.588047 711.105187 
L 711.588047 0 
L 0 0 
z
" style="fill: #ffffff"/>
  </g>
  <g id="axes_1">
   <g id="patch_2">
    <path d="M 80.465625 643.2705 
L 704.388047 643.2705 
L 704.388047 39.1875 
L 80.465625 39.1875 
z
" style="fill: #ffffff"/>
   </g>
   <g id="matplotlib.axis_1">
    <g id="xtick_1">
     <g id="line2d_1">
      <defs>
       <path id="m856d28daad" d="M 0 0 
L 0 -3.5 
" style="stroke: #000000; stroke-width: 0.8"/>
      </defs>
      <g>
       <use xlink:href="#m856d28daad" x="108.769004" y="643.2705" style="stroke: #000000; stroke-width: 0.8"/>
      </g>
     </g>
     <g id="text_1">
      <!-- 0 -->
      <g transform="translate(101.261738 666.337062) scale(0.27 -0.27)">
       <defs>
        <path id="LiberationSans-30" d="M 3309 2203 
Q 3309 1100 2920 518 
Q 2531 -63 1772 -63 
Q 1013 -63 631 515 
Q 250 1094 250 2203 
Q 250 3338 620 3903 
Q 991 4469 1791 4469 
Q 2569 4469 2939 3897 
Q 3309 3325 3309 2203 
z
M 2738 2203 
Q 2738 3156 2517 3584 
Q 2297 4013 1791 4013 
Q 1272 4013 1045 3591 
Q 819 3169 819 2203 
Q 819 1266 1048 831 
Q 1278 397 1778 397 
Q 2275 397 2506 840 
Q 2738 1284 2738 2203 
z
" transform="scale(0.015625)"/>
       </defs>
       <use xlink:href="#LiberationSans-30"/>
      </g>
     </g>
    </g>
    <g id="xtick_2">
     <g id="line2d_2">
      <g>
       <use xlink:href="#m856d28daad" x="222.232136" y="643.2705" style="stroke: #000000; stroke-width: 0.8"/>
      </g>
     </g>
     <g id="text_2">
      <!-- 2 -->
      <g transform="translate(214.724871 666.337062) scale(0.27 -0.27)">
       <defs>
        <path id="LiberationSans-32" d="M 322 0 
L 322 397 
Q 481 763 711 1042 
Q 941 1322 1194 1548 
Q 1447 1775 1695 1969 
Q 1944 2163 2144 2356 
Q 2344 2550 2467 2762 
Q 2591 2975 2591 3244 
Q 2591 3606 2378 3806 
Q 2166 4006 1788 4006 
Q 1428 4006 1195 3811 
Q 963 3616 922 3263 
L 347 3316 
Q 409 3844 795 4156 
Q 1181 4469 1788 4469 
Q 2453 4469 2811 4155 
Q 3169 3841 3169 3263 
Q 3169 3006 3051 2753 
Q 2934 2500 2703 2247 
Q 2472 1994 1819 1463 
Q 1459 1169 1246 933 
Q 1034 697 941 478 
L 3238 478 
L 3238 0 
L 322 0 
z
" transform="scale(0.015625)"/>
       </defs>
       <use xlink:href="#LiberationSans-32"/>
      </g>
     </g>
    </g>
    <g id="xtick_3">
     <g id="line2d_3">
      <g>
       <use xlink:href="#m856d28daad" x="335.695269" y="643.2705" style="stroke: #000000; stroke-width: 0.8"/>
      </g>
     </g>
     <g id="text_3">
      <!-- 4 -->
      <g transform="translate(328.188004 666.337062) scale(0.27 -0.27)">
       <defs>
        <path id="LiberationSans-34" d="M 2753 997 
L 2753 0 
L 2222 0 
L 2222 997 
L 147 997 
L 147 1434 
L 2163 4403 
L 2753 4403 
L 2753 1441 
L 3372 1441 
L 3372 997 
L 2753 997 
z
M 2222 3769 
Q 2216 3750 2134 3603 
Q 2053 3456 2013 3397 
L 884 1734 
L 716 1503 
L 666 1441 
L 2222 1441 
L 2222 3769 
z
" transform="scale(0.015625)"/>
       </defs>
       <use xlink:href="#LiberationSans-34"/>
      </g>
     </g>
    </g>
    <g id="xtick_4">
     <g id="line2d_4">
      <g>
       <use xlink:href="#m856d28daad" x="449.158402" y="643.2705" style="stroke: #000000; stroke-width: 0.8"/>
      </g>
     </g>
     <g id="text_4">
      <!-- 6 -->
      <g transform="translate(441.651137 666.337062) scale(0.27 -0.27)">
       <defs>
        <path id="LiberationSans-36" d="M 3278 1441 
Q 3278 744 2900 340 
Q 2522 -63 1856 -63 
Q 1113 -63 719 490 
Q 325 1044 325 2100 
Q 325 3244 734 3856 
Q 1144 4469 1900 4469 
Q 2897 4469 3156 3572 
L 2619 3475 
Q 2453 4013 1894 4013 
Q 1413 4013 1148 3564 
Q 884 3116 884 2266 
Q 1038 2550 1316 2698 
Q 1594 2847 1953 2847 
Q 2563 2847 2920 2465 
Q 3278 2084 3278 1441 
z
M 2706 1416 
Q 2706 1894 2472 2153 
Q 2238 2413 1819 2413 
Q 1425 2413 1183 2183 
Q 941 1953 941 1550 
Q 941 1041 1192 716 
Q 1444 391 1838 391 
Q 2244 391 2475 664 
Q 2706 938 2706 1416 
z
" transform="scale(0.015625)"/>
       </defs>
       <use xlink:href="#LiberationSans-36"/>
      </g>
     </g>
    </g>
    <g id="xtick_5">
     <g id="line2d_5">
      <g>
       <use xlink:href="#m856d28daad" x="562.621535" y="643.2705" style="stroke: #000000; stroke-width: 0.8"/>
      </g>
     </g>
     <g id="text_5">
      <!-- 8 -->
      <g transform="translate(555.11427 666.337062) scale(0.27 -0.27)">
       <defs>
        <path id="LiberationSans-38" d="M 3281 1228 
Q 3281 619 2893 278 
Q 2506 -63 1781 -63 
Q 1075 -63 676 271 
Q 278 606 278 1222 
Q 278 1653 525 1947 
Q 772 2241 1156 2303 
L 1156 2316 
Q 797 2400 589 2681 
Q 381 2963 381 3341 
Q 381 3844 757 4156 
Q 1134 4469 1769 4469 
Q 2419 4469 2795 4162 
Q 3172 3856 3172 3334 
Q 3172 2956 2962 2675 
Q 2753 2394 2391 2322 
L 2391 2309 
Q 2813 2241 3047 1952 
Q 3281 1663 3281 1228 
z
M 2588 3303 
Q 2588 4050 1769 4050 
Q 1372 4050 1164 3862 
Q 956 3675 956 3303 
Q 956 2925 1170 2726 
Q 1384 2528 1775 2528 
Q 2172 2528 2380 2711 
Q 2588 2894 2588 3303 
z
M 2697 1281 
Q 2697 1691 2453 1898 
Q 2209 2106 1769 2106 
Q 1341 2106 1100 1882 
Q 859 1659 859 1269 
Q 859 359 1788 359 
Q 2247 359 2472 579 
Q 2697 800 2697 1281 
z
" transform="scale(0.015625)"/>
       </defs>
       <use xlink:href="#LiberationSans-38"/>
      </g>
     </g>
    </g>
    <g id="xtick_6">
     <g id="line2d_6">
      <g>
       <use xlink:href="#m856d28daad" x="676.084668" y="643.2705" style="stroke: #000000; stroke-width: 0.8"/>
      </g>
     </g>
     <g id="text_6">
      <!-- 10 -->
      <g transform="translate(661.070137 666.337062) scale(0.27 -0.27)">
       <defs>
        <path id="LiberationSans-31" d="M 488 0 
L 488 478 
L 1609 478 
L 1609 3866 
L 616 3156 
L 616 3688 
L 1656 4403 
L 2175 4403 
L 2175 478 
L 3247 478 
L 3247 0 
L 488 0 
z
" transform="scale(0.015625)"/>
       </defs>
       <use xlink:href="#LiberationSans-31"/>
       <use xlink:href="#LiberationSans-30" x="55.615234"/>
      </g>
     </g>
    </g>
    <g id="xtick_7">
     <g id="line2d_7">
      <defs>
       <path id="mda9dce1a52" d="M 0 0 
L 0 -2 
" style="stroke: #000000; stroke-width: 0.6"/>
      </defs>
      <g>
       <use xlink:href="#mda9dce1a52" x="137.134787" y="643.2705" style="stroke: #000000; stroke-width: 0.6"/>
      </g>
     </g>
    </g>
    <g id="xtick_8">
     <g id="line2d_8">
      <g>
       <use xlink:href="#mda9dce1a52" x="165.50057" y="643.2705" style="stroke: #000000; stroke-width: 0.6"/>
      </g>
     </g>
    </g>
    <g id="xtick_9">
     <g id="line2d_9">
      <g>
       <use xlink:href="#mda9dce1a52" x="193.866353" y="643.2705" style="stroke: #000000; stroke-width: 0.6"/>
      </g>
     </g>
    </g>
    <g id="xtick_10">
     <g id="line2d_10">
      <g>
       <use xlink:href="#mda9dce1a52" x="250.59792" y="643.2705" style="stroke: #000000; stroke-width: 0.6"/>
      </g>
     </g>
    </g>
    <g id="xtick_11">
     <g id="line2d_11">
      <g>
       <use xlink:href="#mda9dce1a52" x="278.963703" y="643.2705" style="stroke: #000000; stroke-width: 0.6"/>
      </g>
     </g>
    </g>
    <g id="xtick_12">
     <g id="line2d_12">
      <g>
       <use xlink:href="#mda9dce1a52" x="307.329486" y="643.2705" style="stroke: #000000; stroke-width: 0.6"/>
      </g>
     </g>
    </g>
    <g id="xtick_13">
     <g id="line2d_13">
      <g>
       <use xlink:href="#mda9dce1a52" x="364.061053" y="643.2705" style="stroke: #000000; stroke-width: 0.6"/>
      </g>
     </g>
    </g>
    <g id="xtick_14">
     <g id="line2d_14">
      <g>
       <use xlink:href="#mda9dce1a52" x="392.426836" y="643.2705" style="stroke: #000000; stroke-width: 0.6"/>
      </g>
     </g>
    </g>
    <g id="xtick_15">
     <g id="line2d_15">
      <g>
       <use xlink:href="#mda9dce1a52" x="420.792619" y="643.2705" style="stroke: #000000; stroke-width: 0.6"/>
      </g>
     </g>
    </g>
    <g id="xtick_16">
     <g id="line2d_16">
      <g>
       <use xlink:href="#mda9dce1a52" x="477.524186" y="643.2705" style="stroke: #000000; stroke-width: 0.6"/>
      </g>
     </g>
    </g>
    <g id="xtick_17">
     <g id="line2d_17">
      <g>
       <use xlink:href="#mda9dce1a52" x="505.889969" y="643.2705" style="stroke: #000000; stroke-width: 0.6"/>
      </g>
     </g>
    </g>
    <g id="xtick_18">
     <g id="line2d_18">
      <g>
       <use xlink:href="#mda9dce1a52" x="534.255752" y="643.2705" style="stroke: #000000; stroke-width: 0.6"/>
      </g>
     </g>
    </g>
    <g id="xtick_19">
     <g id="line2d_19">
      <g>
       <use xlink:href="#mda9dce1a52" x="590.987319" y="643.2705" style="stroke: #000000; stroke-width: 0.6"/>
      </g>
     </g>
    </g>
    <g id="xtick_20">
     <g id="line2d_20">
      <g>
       <use xlink:href="#mda9dce1a52" x="619.353102" y="643.2705" style="stroke: #000000; stroke-width: 0.6"/>
      </g>
     </g>
    </g>
    <g id="xtick_21">
     <g id="line2d_21">
      <g>
       <use xlink:href="#mda9dce1a52" x="647.718885" y="643.2705" style="stroke: #000000; stroke-width: 0.6"/>
      </g>
     </g>
    </g>
    <g id="text_7">
     <!-- Time ps -->
     <g transform="translate(339.650273 697.680187) scale(0.3 -0.3)">
      <defs>
       <path id="LiberationSans-54" d="M 2250 3916 
L 2250 0 
L 1656 0 
L 1656 3916 
L 144 3916 
L 144 4403 
L 3763 4403 
L 3763 3916 
L 2250 3916 
z
" transform="scale(0.015625)"/>
       <path id="LiberationSans-69" d="M 428 4100 
L 428 4638 
L 991 4638 
L 991 4100 
L 428 4100 
z
M 428 0 
L 428 3381 
L 991 3381 
L 991 0 
L 428 0 
z
" transform="scale(0.015625)"/>
       <path id="LiberationSans-6d" d="M 2400 0 
L 2400 2144 
Q 2400 2634 2265 2821 
Q 2131 3009 1781 3009 
Q 1422 3009 1212 2734 
Q 1003 2459 1003 1959 
L 1003 0 
L 444 0 
L 444 2659 
Q 444 3250 425 3381 
L 956 3381 
Q 959 3366 962 3297 
Q 966 3228 970 3139 
Q 975 3050 981 2803 
L 991 2803 
Q 1172 3163 1406 3303 
Q 1641 3444 1978 3444 
Q 2363 3444 2586 3291 
Q 2809 3138 2897 2803 
L 2906 2803 
Q 3081 3144 3329 3294 
Q 3578 3444 3931 3444 
Q 4444 3444 4676 3166 
Q 4909 2888 4909 2253 
L 4909 0 
L 4353 0 
L 4353 2144 
Q 4353 2634 4218 2821 
Q 4084 3009 3734 3009 
Q 3366 3009 3161 2736 
Q 2956 2463 2956 1959 
L 2956 0 
L 2400 0 
z
" transform="scale(0.015625)"/>
       <path id="LiberationSans-65" d="M 863 1572 
Q 863 991 1103 675 
Q 1344 359 1806 359 
Q 2172 359 2392 506 
Q 2613 653 2691 878 
L 3184 738 
Q 2881 -63 1806 -63 
Q 1056 -63 664 384 
Q 272 831 272 1713 
Q 272 2550 664 2997 
Q 1056 3444 1784 3444 
Q 3275 3444 3275 1647 
L 3275 1572 
L 863 1572 
z
M 2694 2003 
Q 2647 2538 2422 2783 
Q 2197 3028 1775 3028 
Q 1366 3028 1127 2754 
Q 888 2481 869 2003 
L 2694 2003 
z
" transform="scale(0.015625)"/>
       <path id="LiberationSans-20" transform="scale(0.015625)"/>
       <path id="LiberationSans-70" d="M 3291 1706 
Q 3291 -63 2047 -63 
Q 1266 -63 997 525 
L 981 525 
Q 994 500 994 -6 
L 994 -1328 
L 431 -1328 
L 431 2691 
Q 431 3213 413 3381 
L 956 3381 
Q 959 3369 965 3292 
Q 972 3216 980 3056 
Q 988 2897 988 2838 
L 1000 2838 
Q 1150 3150 1397 3295 
Q 1644 3441 2047 3441 
Q 2672 3441 2981 3022 
Q 3291 2603 3291 1706 
z
M 2700 1694 
Q 2700 2400 2509 2703 
Q 2319 3006 1903 3006 
Q 1569 3006 1380 2865 
Q 1191 2725 1092 2426 
Q 994 2128 994 1650 
Q 994 984 1206 668 
Q 1419 353 1897 353 
Q 2316 353 2508 661 
Q 2700 969 2700 1694 
z
" transform="scale(0.015625)"/>
       <path id="LiberationSans-73" d="M 2969 934 
Q 2969 456 2608 196 
Q 2247 -63 1597 -63 
Q 966 -63 623 145 
Q 281 353 178 794 
L 675 891 
Q 747 619 972 492 
Q 1197 366 1597 366 
Q 2025 366 2223 497 
Q 2422 628 2422 891 
Q 2422 1091 2284 1216 
Q 2147 1341 1841 1422 
L 1438 1528 
Q 953 1653 748 1773 
Q 544 1894 428 2066 
Q 313 2238 313 2488 
Q 313 2950 642 3192 
Q 972 3434 1603 3434 
Q 2163 3434 2492 3237 
Q 2822 3041 2909 2606 
L 2403 2544 
Q 2356 2769 2151 2889 
Q 1947 3009 1603 3009 
Q 1222 3009 1040 2893 
Q 859 2778 859 2544 
Q 859 2400 934 2306 
Q 1009 2213 1156 2147 
Q 1303 2081 1775 1966 
Q 2222 1853 2419 1758 
Q 2616 1663 2730 1547 
Q 2844 1431 2906 1279 
Q 2969 1128 2969 934 
z
" transform="scale(0.015625)"/>
      </defs>
      <use xlink:href="#LiberationSans-54"/>
      <use xlink:href="#LiberationSans-69" x="57.333984"/>
      <use xlink:href="#LiberationSans-6d" x="79.550781"/>
      <use xlink:href="#LiberationSans-65" x="162.851562"/>
      <use xlink:href="#LiberationSans-20" x="218.466797"/>
      <use xlink:href="#LiberationSans-70" x="246.25"/>
      <use xlink:href="#LiberationSans-73" x="301.865234"/>
     </g>
    </g>
   </g>
   <g id="matplotlib.axis_2">
    <g id="ytick_1">
     <g id="line2d_22">
      <defs>
       <path id="m50dcf30876" d="M 0 0 
L 3.5 0 
" style="stroke: #000000; stroke-width: 0.8"/>
      </defs>
      <g>
       <use xlink:href="#m50dcf30876" x="80.465625" y="615.812182" style="stroke: #000000; stroke-width: 0.8"/>
      </g>
     </g>
     <g id="text_8">
      <!-- $\mathdefault{0.0}$ -->
      <g transform="translate(39.165625 625.595463) scale(0.27 -0.27)">
       <defs>
        <path id="LiberationSans-2e" d="M 584 0 
L 584 684 
L 1194 684 
L 1194 0 
L 584 0 
z
" transform="scale(0.015625)"/>
       </defs>
       <use xlink:href="#LiberationSans-30" transform="translate(0 0.171875)"/>
       <use xlink:href="#LiberationSans-2e" transform="translate(55.615234 0.171875)"/>
       <use xlink:href="#LiberationSans-30" transform="translate(83.398438 0.171875)"/>
      </g>
     </g>
    </g>
    <g id="ytick_2">
     <g id="line2d_23">
      <g>
       <use xlink:href="#m50dcf30876" x="80.465625" y="511.393689" style="stroke: #000000; stroke-width: 0.8"/>
      </g>
     </g>
     <g id="text_9">
      <!-- $\mathdefault{0.2}$ -->
      <g transform="translate(39.165625 521.17697) scale(0.27 -0.27)">
       <use xlink:href="#LiberationSans-30" transform="translate(0 0.171875)"/>
       <use xlink:href="#LiberationSans-2e" transform="translate(55.615234 0.171875)"/>
       <use xlink:href="#LiberationSans-32" transform="translate(83.398438 0.171875)"/>
      </g>
     </g>
    </g>
    <g id="ytick_3">
     <g id="line2d_24">
      <g>
       <use xlink:href="#m50dcf30876" x="80.465625" y="406.975195" style="stroke: #000000; stroke-width: 0.8"/>
      </g>
     </g>
     <g id="text_10">
      <!-- $\mathdefault{0.4}$ -->
      <g transform="translate(39.165625 416.758476) scale(0.27 -0.27)">
       <use xlink:href="#LiberationSans-30" transform="translate(0 0.171875)"/>
       <use xlink:href="#LiberationSans-2e" transform="translate(55.615234 0.171875)"/>
       <use xlink:href="#LiberationSans-34" transform="translate(83.398438 0.171875)"/>
      </g>
     </g>
    </g>
    <g id="ytick_4">
     <g id="line2d_25">
      <g>
       <use xlink:href="#m50dcf30876" x="80.465625" y="302.556702" style="stroke: #000000; stroke-width: 0.8"/>
      </g>
     </g>
     <g id="text_11">
      <!-- $\mathdefault{0.6}$ -->
      <g transform="translate(39.165625 312.339983) scale(0.27 -0.27)">
       <use xlink:href="#LiberationSans-30" transform="translate(0 0.171875)"/>
       <use xlink:href="#LiberationSans-2e" transform="translate(55.615234 0.171875)"/>
       <use xlink:href="#LiberationSans-36" transform="translate(83.398438 0.171875)"/>
      </g>
     </g>
    </g>
    <g id="ytick_5">
     <g id="line2d_26">
      <g>
       <use xlink:href="#m50dcf30876" x="80.465625" y="198.138209" style="stroke: #000000; stroke-width: 0.8"/>
      </g>
     </g>
     <g id="text_12">
      <!-- $\mathdefault{0.8}$ -->
      <g transform="translate(39.165625 207.92149) scale(0.27 -0.27)">
       <use xlink:href="#LiberationSans-30" transform="translate(0 0.171875)"/>
       <use xlink:href="#LiberationSans-2e" transform="translate(55.615234 0.171875)"/>
       <use xlink:href="#LiberationSans-38" transform="translate(83.398438 0.171875)"/>
      </g>
     </g>
    </g>
    <g id="ytick_6">
     <g id="line2d_27">
      <g>
       <use xlink:href="#m50dcf30876" x="80.465625" y="93.719715" style="stroke: #000000; stroke-width: 0.8"/>
      </g>
     </g>
     <g id="text_13">
      <!-- $\mathdefault{1.0}$ -->
      <g transform="translate(39.165625 103.502997) scale(0.27 -0.27)">
       <use xlink:href="#LiberationSans-31" transform="translate(0 0.171875)"/>
       <use xlink:href="#LiberationSans-2e" transform="translate(55.615234 0.171875)"/>
       <use xlink:href="#LiberationSans-30" transform="translate(83.398438 0.171875)"/>
      </g>
     </g>
    </g>
    <g id="ytick_7">
     <g id="line2d_28">
      <defs>
       <path id="m346837e3ea" d="M 0 0 
L 2 0 
" style="stroke: #000000; stroke-width: 0.6"/>
      </defs>
      <g>
       <use xlink:href="#m346837e3ea" x="80.465625" y="641.916805" style="stroke: #000000; stroke-width: 0.6"/>
      </g>
     </g>
    </g>
    <g id="ytick_8">
     <g id="line2d_29">
      <g>
       <use xlink:href="#m346837e3ea" x="80.465625" y="589.707558" style="stroke: #000000; stroke-width: 0.6"/>
      </g>
     </g>
    </g>
    <g id="ytick_9">
     <g id="line2d_30">
      <g>
       <use xlink:href="#m346837e3ea" x="80.465625" y="563.602935" style="stroke: #000000; stroke-width: 0.6"/>
      </g>
     </g>
    </g>
    <g id="ytick_10">
     <g id="line2d_31">
      <g>
       <use xlink:href="#m346837e3ea" x="80.465625" y="537.498312" style="stroke: #000000; stroke-width: 0.6"/>
      </g>
     </g>
    </g>
    <g id="ytick_11">
     <g id="line2d_32">
      <g>
       <use xlink:href="#m346837e3ea" x="80.465625" y="485.289065" style="stroke: #000000; stroke-width: 0.6"/>
      </g>
     </g>
    </g>
    <g id="ytick_12">
     <g id="line2d_33">
      <g>
       <use xlink:href="#m346837e3ea" x="80.465625" y="459.184442" style="stroke: #000000; stroke-width: 0.6"/>
      </g>
     </g>
    </g>
    <g id="ytick_13">
     <g id="line2d_34">
      <g>
       <use xlink:href="#m346837e3ea" x="80.465625" y="433.079819" style="stroke: #000000; stroke-width: 0.6"/>
      </g>
     </g>
    </g>
    <g id="ytick_14">
     <g id="line2d_35">
      <g>
       <use xlink:href="#m346837e3ea" x="80.465625" y="380.870572" style="stroke: #000000; stroke-width: 0.6"/>
      </g>
     </g>
    </g>
    <g id="ytick_15">
     <g id="line2d_36">
      <g>
       <use xlink:href="#m346837e3ea" x="80.465625" y="354.765949" style="stroke: #000000; stroke-width: 0.6"/>
      </g>
     </g>
    </g>
    <g id="ytick_16">
     <g id="line2d_37">
      <g>
       <use xlink:href="#m346837e3ea" x="80.465625" y="328.661325" style="stroke: #000000; stroke-width: 0.6"/>
      </g>
     </g>
    </g>
    <g id="ytick_17">
     <g id="line2d_38">
      <g>
       <use xlink:href="#m346837e3ea" x="80.465625" y="276.452079" style="stroke: #000000; stroke-width: 0.6"/>
      </g>
     </g>
    </g>
    <g id="ytick_18">
     <g id="line2d_39">
      <g>
       <use xlink:href="#m346837e3ea" x="80.465625" y="250.347455" style="stroke: #000000; stroke-width: 0.6"/>
      </g>
     </g>
    </g>
    <g id="ytick_19">
     <g id="line2d_40">
      <g>
       <use xlink:href="#m346837e3ea" x="80.465625" y="224.242832" style="stroke: #000000; stroke-width: 0.6"/>
      </g>
     </g>
    </g>
    <g id="ytick_20">
     <g id="line2d_41">
      <g>
       <use xlink:href="#m346837e3ea" x="80.465625" y="172.033585" style="stroke: #000000; stroke-width: 0.6"/>
      </g>
     </g>
    </g>
    <g id="ytick_21">
     <g id="line2d_42">
      <g>
       <use xlink:href="#m346837e3ea" x="80.465625" y="145.928962" style="stroke: #000000; stroke-width: 0.6"/>
      </g>
     </g>
    </g>
    <g id="ytick_22">
     <g id="line2d_43">
      <g>
       <use xlink:href="#m346837e3ea" x="80.465625" y="119.824339" style="stroke: #000000; stroke-width: 0.6"/>
      </g>
     </g>
    </g>
    <g id="ytick_23">
     <g id="line2d_44">
      <g>
       <use xlink:href="#m346837e3ea" x="80.465625" y="67.615092" style="stroke: #000000; stroke-width: 0.6"/>
      </g>
     </g>
    </g>
    <g id="ytick_24">
     <g id="line2d_45">
      <g>
       <use xlink:href="#m346837e3ea" x="80.465625" y="41.510469" style="stroke: #000000; stroke-width: 0.6"/>
      </g>
     </g>
    </g>
    <g id="text_14">
     <!-- ITR $\mathrm{K} \cdot \mathrm{m}^2 / \mathrm{W}$ -->
     <g transform="translate(28.940625 425.229) rotate(-90) scale(0.3 -0.3)">
      <defs>
       <path id="LiberationSans-49" d="M 591 0 
L 591 4403 
L 1188 4403 
L 1188 0 
L 591 0 
z
" transform="scale(0.015625)"/>
       <path id="LiberationSans-52" d="M 3638 0 
L 2494 1828 
L 1122 1828 
L 1122 0 
L 525 0 
L 525 4403 
L 2597 4403 
Q 3341 4403 3745 4070 
Q 4150 3738 4150 3144 
Q 4150 2653 3864 2318 
Q 3578 1984 3075 1897 
L 4325 0 
L 3638 0 
z
M 3550 3138 
Q 3550 3522 3289 3723 
Q 3028 3925 2538 3925 
L 1122 3925 
L 1122 2300 
L 2563 2300 
Q 3034 2300 3292 2520 
Q 3550 2741 3550 3138 
z
" transform="scale(0.015625)"/>
       <path id="STIXGeneral-Regular-4b" d="M 4627 0 
L 2688 0 
L 2688 122 
L 2861 128 
Q 3130 134 3130 282 
Q 3130 397 2922 643 
Q 2714 890 2253 1370 
L 1613 2029 
L 1446 1894 
L 1446 710 
Q 1446 352 1548 253 
Q 1651 154 2016 122 
L 2016 0 
L 211 0 
L 211 122 
Q 589 141 691 262 
Q 794 384 794 800 
L 794 3514 
Q 794 3872 691 3981 
Q 589 4090 218 4115 
L 218 4237 
L 2022 4237 
L 2022 4115 
Q 1632 4090 1539 3987 
Q 1446 3885 1446 3507 
L 1446 2227 
L 2586 3277 
Q 2861 3533 2973 3667 
Q 3085 3802 3085 3910 
Q 3085 4013 3030 4057 
Q 2976 4102 2822 4109 
L 2662 4115 
L 2662 4237 
L 4320 4237 
L 4320 4115 
Q 3994 4090 3824 4003 
Q 3654 3917 3322 3597 
L 2131 2458 
L 3629 819 
Q 4026 384 4214 253 
Q 4403 122 4627 122 
L 4627 0 
z
" transform="scale(0.015625)"/>
       <path id="STIXGeneral-Regular-22c5" d="M 1187 1888 
Q 1299 1773 1299 1619 
Q 1299 1466 1187 1350 
Q 1075 1235 921 1235 
Q 768 1235 649 1353 
Q 531 1472 531 1619 
Q 531 1766 649 1884 
Q 768 2003 921 2003 
Q 1075 2003 1187 1888 
z
" transform="scale(0.015625)"/>
       <path id="STIXGeneral-Regular-6d" d="M 4960 0 
L 3565 0 
L 3565 96 
Q 3834 122 3907 208 
Q 3981 294 3981 576 
L 3981 1894 
Q 3981 2278 3869 2444 
Q 3757 2611 3488 2611 
Q 3264 2611 3107 2521 
Q 2950 2432 2803 2221 
L 2803 608 
Q 2803 301 2896 201 
Q 2989 102 3264 96 
L 3264 0 
L 1830 0 
L 1830 96 
Q 2112 115 2189 188 
Q 2266 262 2266 550 
L 2266 1901 
Q 2266 2611 1850 2611 
Q 1670 2611 1468 2531 
Q 1267 2451 1171 2336 
Q 1088 2240 1088 2227 
L 1088 448 
Q 1088 243 1177 176 
Q 1267 109 1523 96 
L 1523 0 
L 102 0 
L 102 96 
Q 371 102 460 195 
Q 550 288 550 563 
L 550 2150 
Q 550 2387 499 2480 
Q 448 2573 326 2573 
Q 230 2573 122 2547 
L 122 2656 
Q 557 2778 1011 2944 
L 1062 2925 
L 1062 2451 
L 1075 2451 
Q 1363 2752 1584 2848 
Q 1805 2944 2054 2944 
Q 2560 2944 2733 2406 
Q 3232 2944 3776 2944 
Q 4518 2944 4518 1792 
L 4518 493 
Q 4518 282 4582 202 
Q 4646 122 4794 109 
L 4960 96 
L 4960 0 
z
" transform="scale(0.015625)"/>
       <path id="STIXGeneral-Regular-32" d="M 3034 877 
L 2688 0 
L 186 0 
L 186 77 
L 1325 1286 
Q 1773 1754 1965 2144 
Q 2157 2534 2157 2950 
Q 2157 3379 1920 3616 
Q 1683 3853 1267 3853 
Q 922 3853 720 3673 
Q 518 3494 326 3021 
L 192 3053 
Q 301 3648 630 3987 
Q 960 4326 1523 4326 
Q 2054 4326 2380 4006 
Q 2707 3686 2707 3200 
Q 2707 2477 1888 1613 
L 832 486 
L 2330 486 
Q 2541 486 2665 569 
Q 2790 653 2944 915 
L 3034 877 
z
" transform="scale(0.015625)"/>
       <path id="STIXGeneral-Regular-2f" d="M 1837 4326 
L 378 -90 
L -58 -90 
L 1408 4326 
L 1837 4326 
z
" transform="scale(0.015625)"/>
       <path id="STIXGeneral-Regular-57" d="M 5965 4237 
L 5965 4115 
Q 5709 4064 5616 3990 
Q 5523 3917 5434 3667 
Q 4704 1709 4128 -70 
L 4032 -70 
Q 3642 1011 3008 2637 
L 2022 -70 
L 1926 -70 
Q 1709 576 1277 1753 
Q 845 2931 698 3347 
Q 538 3808 406 3958 
Q 275 4109 32 4115 
L 32 4237 
L 1594 4237 
L 1594 4115 
Q 1357 4109 1270 4064 
Q 1184 4019 1184 3917 
Q 1184 3808 1254 3616 
L 2176 1210 
L 2842 3021 
L 2662 3501 
Q 2509 3917 2400 4013 
Q 2291 4109 2010 4115 
L 2010 4237 
L 3706 4237 
L 3706 4115 
Q 3213 4102 3213 3891 
Q 3213 3808 3322 3520 
L 4237 1190 
L 5043 3360 
Q 5152 3667 5152 3853 
Q 5152 4109 4704 4115 
L 4704 4237 
L 5965 4237 
z
" transform="scale(0.015625)"/>
      </defs>
      <use xlink:href="#LiberationSans-49" transform="translate(0 0.409375)"/>
      <use xlink:href="#LiberationSans-54" transform="translate(27.783203 0.409375)"/>
      <use xlink:href="#LiberationSans-52" transform="translate(88.867188 0.409375)"/>
      <use xlink:href="#LiberationSans-20" transform="translate(161.083984 0.409375)"/>
      <use xlink:href="#STIXGeneral-Regular-4b" transform="translate(188.867188 0.409375)"/>
      <use xlink:href="#STIXGeneral-Regular-22c5" transform="translate(275.507166 0.409375)"/>
      <use xlink:href="#STIXGeneral-Regular-6d" transform="translate(318.547153 0.409375)"/>
      <use xlink:href="#STIXGeneral-Regular-32" transform="translate(397.890422 35.684375) scale(0.7)"/>
      <use xlink:href="#STIXGeneral-Regular-2f" transform="translate(437.299786 0.409375)"/>
      <use xlink:href="#STIXGeneral-Regular-57" transform="translate(465.099774 0.409375)"/>
     </g>
    </g>
    <g id="text_15">
     <!-- $\times\mathdefault{10^{−6}}\mathdefault{}$ -->
     <g transform="translate(80.465625 36.1875) scale(0.4 -0.4)">
      <defs>
       <path id="STIXGeneral-Regular-d7" d="M 3821 141 
L 3526 -160 
L 2048 1312 
L 570 -160 
L 275 134 
L 1747 1613 
L 275 3091 
L 576 3386 
L 2048 1914 
L 3526 3386 
L 3821 3098 
L 2349 1613 
L 3821 141 
z
" transform="scale(0.015625)"/>
       <path id="LiberationSans-2212" d="M 316 1900 
L 316 2356 
L 3425 2356 
L 3425 1900 
L 316 1900 
z
" transform="scale(0.015625)"/>
      </defs>
      <use xlink:href="#STIXGeneral-Regular-d7" transform="translate(0 0.140625)"/>
      <use xlink:href="#LiberationSans-31" transform="translate(63.999985 0.140625)"/>
      <use xlink:href="#LiberationSans-30" transform="translate(119.615219 0.140625)"/>
      <use xlink:href="#LiberationSans-2212" transform="translate(176.154946 37.120312) scale(0.7)"/>
      <use xlink:href="#LiberationSans-36" transform="translate(217.033852 37.120312) scale(0.7)"/>
     </g>
    </g>
   </g>
   <g id="line2d_46">
    <path d="M 108.825735 615.812182 
L 108.882467 66.645818 
L 108.939198 340.420233 
L 109.109393 504.951824 
L 109.336319 553.467658 
L 109.619977 574.817701 
L 109.960366 586.008746 
L 110.357487 592.404402 
L 110.81134 596.149445 
L 111.265192 598.058495 
L 111.662313 598.852646 
L 112.002703 599.07834 
L 112.286361 599.008322 
L 112.62675 598.655271 
L 113.023871 597.906074 
L 113.534455 596.442284 
L 114.158502 593.918732 
L 114.896013 589.931337 
L 115.746986 584.02046 
L 116.654691 576.106606 
L 117.619128 565.675965 
L 119.661464 542.544704 
L 120.058585 540.450607 
L 120.342243 539.867405 
L 120.512438 539.885627 
L 120.739364 540.316934 
L 121.079753 541.722918 
L 121.590338 545.064949 
L 123.802869 561.136212 
L 124.540379 564.397655 
L 125.164426 566.275509 
L 125.731742 567.380587 
L 126.242326 567.961116 
L 126.75291 568.212889 
L 127.206763 568.205082 
L 127.717347 567.976859 
L 128.341394 567.442408 
L 129.135636 566.447511 
L 129.986609 565.035441 
L 130.951046 562.975804 
L 132.426067 559.184743 
L 133.560698 556.496526 
L 134.241477 555.408312 
L 134.752061 554.990095 
L 135.149182 554.932515 
L 135.546303 555.10617 
L 136.056887 555.623165 
L 136.737666 556.685362 
L 139.177123 560.831751 
L 139.857902 561.47164 
L 140.481949 561.767148 
L 141.049265 561.795227 
L 141.673312 561.590417 
L 142.467554 561.062267 
L 143.545454 560.037312 
L 146.325301 557.226353 
L 147.062811 556.877278 
L 147.74359 556.800717 
L 148.4811 556.963616 
L 149.388805 557.417581 
L 150.29651 558.122445 
L 151.147484 559.081645 
L 152.679236 561.262845 
L 153.700404 562.488671 
L 154.381183 562.990769 
L 155.00523 563.176443 
L 155.572546 563.124799 
L 156.196593 562.847026 
L 156.934103 562.251957 
L 157.785077 561.269305 
L 158.749514 559.805559 
L 161.415897 555.487579 
L 161.983213 555.069704 
L 162.493797 554.956671 
L 162.94765 555.071722 
L 163.458234 555.427745 
L 164.139012 556.210071 
L 165.330375 558.010776 
L 166.805396 560.112259 
L 167.599638 560.888882 
L 168.280417 561.266014 
L 168.904464 561.365108 
L 169.528511 561.241477 
L 170.266022 560.849157 
L 171.173727 560.095849 
L 174.067037 557.494651 
L 174.804547 557.205942 
L 175.485326 557.168196 
L 176.222836 557.369318 
L 177.130541 557.875924 
L 180.080583 559.710401 
L 181.045019 559.969107 
L 181.952724 559.993034 
L 182.917161 559.79634 
L 184.278719 559.253816 
L 186.094129 558.552383 
L 187.342223 558.331366 
L 192.561527 557.950994 
L 193.809622 558.151626 
L 198.915463 559.273044 
L 200.106826 559.204611 
L 201.184725 558.92413 
L 202.43282 558.354307 
L 204.418425 557.428641 
L 205.269398 557.301137 
L 206.06364 557.419324 
L 206.914614 557.793593 
L 207.992513 558.543373 
L 210.431971 560.338427 
L 211.282944 560.660128 
L 212.020455 560.712746 
L 212.757965 560.535141 
L 213.552207 560.097067 
L 214.516643 559.287326 
L 217.750343 556.320332 
L 218.431122 556.091526 
L 219.055169 556.108146 
L 219.679216 556.359342 
L 220.359995 556.891962 
L 221.210968 557.865413 
L 223.990815 561.315006 
L 224.671594 561.717611 
L 225.295641 561.843478 
L 225.919688 561.737176 
L 226.600467 561.379728 
L 227.451441 560.650864 
L 229.039924 558.900084 
L 230.231287 557.749001 
L 231.025529 557.258677 
L 231.706308 557.073602 
L 232.387087 557.112261 
L 233.124597 557.379199 
L 234.145765 558.010268 
L 236.755418 559.722402 
L 237.94678 560.187717 
L 239.02468 560.369311 
L 239.989117 560.309937 
L 241.010285 560.009623 
L 244.243984 558.810703 
L 245.094958 558.875215 
L 246.286321 559.220349 
L 247.931536 559.670996 
L 248.952704 559.704779 
L 250.200799 559.503724 
L 252.753719 559.024508 
L 254.058545 559.0614 
L 256.668197 559.225275 
L 257.575902 559.009795 
L 258.597071 558.521081 
L 261.206723 557.105401 
L 261.944233 557.03117 
L 262.681743 557.177276 
L 263.532717 557.583781 
L 264.72408 558.434948 
L 267.277 560.333918 
L 268.184705 560.707034 
L 268.922216 560.789289 
L 269.659726 560.647481 
L 270.453968 560.252736 
L 271.418405 559.497514 
L 273.460741 557.498151 
L 274.595372 556.58306 
L 275.389614 556.20449 
L 276.070393 556.124068 
L 276.69444 556.280121 
L 277.375219 556.706763 
L 278.169461 557.49786 
L 279.701213 559.448799 
L 280.779113 560.612039 
L 281.573355 561.169742 
L 282.310865 561.420472 
L 282.991644 561.427437 
L 283.729155 561.213191 
L 284.580128 560.714707 
L 285.658028 559.791313 
L 288.210948 557.488161 
L 288.948459 557.167304 
L 289.629237 557.114822 
L 290.310016 557.292338 
L 291.16099 557.770201 
L 294.621615 560.025631 
L 295.586052 560.262914 
L 296.550489 560.275781 
L 297.628388 560.060807 
L 300.918819 559.223677 
L 302.053451 559.291369 
L 304.322713 559.723183 
L 307.953533 560.304878 
L 309.428554 560.317489 
L 311.243964 560.071563 
L 313.62669 559.540153 
L 314.931516 559.022896 
L 318.448873 557.423705 
L 319.243115 557.451916 
L 320.037357 557.704872 
L 321.001794 558.269119 
L 322.420083 559.408563 
L 324.235493 560.820904 
L 325.143198 561.257262 
L 325.93744 561.407456 
L 326.731682 561.321403 
L 327.525924 561.006247 
L 328.433629 560.399384 
L 329.624992 559.309903 
L 331.667328 557.408357 
L 332.404839 557.033384 
L 333.028886 556.967375 
L 333.596201 557.140025 
L 334.220249 557.583957 
L 335.014491 558.464164 
L 337.624143 561.635478 
L 338.361653 562.061915 
L 339.042432 562.199114 
L 339.723211 562.109997 
L 340.517453 561.76768 
L 341.481889 561.095322 
L 343.127105 559.621771 
L 344.602125 558.403 
L 345.453099 557.962658 
L 346.190609 557.814653 
L 346.92812 557.889579 
L 347.835825 558.229344 
L 349.367577 559.104821 
L 351.353182 560.179946 
L 352.487813 560.549847 
L 353.45225 560.636253 
L 354.416686 560.486839 
L 355.721512 560.016957 
L 357.309996 559.481581 
L 358.387896 559.369295 
L 359.862917 559.479149 
L 361.451401 559.535139 
L 362.926421 559.338815 
L 365.649537 558.927932 
L 366.897631 559.005334 
L 368.599578 559.374011 
L 370.074599 559.60896 
L 371.095767 559.538243 
L 372.173667 559.225051 
L 375.293903 558.128818 
L 376.201608 558.162891 
L 377.109313 558.431181 
L 378.130481 558.980688 
L 379.88916 560.246873 
L 381.193986 561.058197 
L 382.044959 561.351442 
L 382.78247 561.391168 
L 383.51998 561.208636 
L 384.314222 560.761737 
L 385.165195 560.016036 
L 386.243095 558.75965 
L 388.342163 556.233881 
L 389.022942 555.776936 
L 389.590258 555.657603 
L 390.100842 555.77919 
L 390.668157 556.165745 
L 391.348936 556.928976 
L 392.426836 558.535915 
L 393.845125 560.577948 
L 394.696099 561.416421 
L 395.433609 561.829646 
L 396.114388 561.952989 
L 396.795167 561.854253 
L 397.589408 561.508416 
L 398.610577 560.802003 
L 401.61735 558.550221 
L 402.525055 558.232914 
L 403.319297 558.181099 
L 404.227002 558.358725 
L 405.361633 558.84048 
L 408.992453 560.575503 
L 409.95689 560.68453 
L 410.921327 560.557389 
L 412.11269 560.155695 
L 415.176194 559.023305 
L 416.878141 558.713857 
L 418.523357 558.632159 
L 419.998377 558.782607 
L 422.040714 559.246277 
L 426.692702 560.342012 
L 427.657139 560.271151 
L 428.564844 559.983286 
L 429.642744 559.393634 
L 432.309127 557.815021 
L 433.273564 557.575883 
L 434.181269 557.577064 
L 435.202437 557.812685 
L 436.507263 558.365233 
L 438.549599 559.240734 
L 439.457305 559.37504 
L 440.308278 559.268568 
L 441.159252 558.930813 
L 442.18042 558.268455 
L 445.016998 556.246647 
L 445.697777 556.136748 
L 446.265093 556.258738 
L 446.88914 556.631098 
L 447.62665 557.36379 
L 448.70455 558.805278 
L 450.236302 560.818991 
L 451.030544 561.50842 
L 451.711323 561.829336 
L 452.33537 561.896773 
L 453.016149 561.737696 
L 453.753659 561.32829 
L 454.718096 560.515131 
L 457.781601 557.69831 
L 458.575842 557.358767 
L 459.313353 557.274501 
L 460.107595 557.419283 
L 461.072031 557.848403 
L 462.660515 558.854761 
L 464.532657 559.97979 
L 465.497094 560.305341 
L 466.291335 560.354088 
L 467.085577 560.175151 
L 467.993282 559.720911 
L 471.340445 557.77143 
L 472.531808 557.52492 
L 475.311655 557.252375 
L 476.616481 557.315376 
L 478.03477 557.624596 
L 483.481 559.027849 
L 484.388705 558.984239 
L 485.182947 558.726901 
L 486.090652 558.177909 
L 487.735868 556.824169 
L 488.757036 556.158475 
L 489.494546 555.936147 
L 490.175325 555.970721 
L 490.856104 556.234572 
L 491.707077 556.831829 
L 493.125366 558.167366 
L 494.430192 559.288271 
L 495.281166 559.735006 
L 496.018676 559.871483 
L 496.756187 559.769353 
L 497.550429 559.424349 
L 498.514865 558.747094 
L 499.933154 557.444418 
L 501.691833 555.872465 
L 502.486075 555.45112 
L 503.110122 555.361019 
L 503.677438 555.502653 
L 504.301485 555.913015 
L 505.038995 556.69999 
L 506.28709 558.448524 
L 507.36499 559.811603 
L 508.1025 560.417505 
L 508.726547 560.661158 
L 509.293863 560.662105 
L 509.91791 560.439816 
L 510.65542 559.929002 
L 511.73332 558.868892 
L 514.286241 556.254441 
L 515.250677 555.614545 
L 516.044919 555.349253 
L 516.725698 555.343691 
L 517.463208 555.569172 
L 518.314182 556.08609 
L 519.845934 557.356215 
L 521.094029 558.252501 
L 521.945002 558.590523 
L 522.682513 558.65707 
L 523.476755 558.498617 
L 524.441191 558.057863 
L 526.767185 556.882299 
L 527.67489 556.72191 
L 528.696059 556.779268 
L 532.099953 557.178305 
L 537.602915 557.101972 
L 540.723151 557.423541 
L 541.687587 557.204844 
L 542.708756 556.721139 
L 545.602065 555.13813 
L 546.339576 555.094069 
L 547.077086 555.283033 
L 547.871328 555.728987 
L 548.892496 556.576922 
L 551.105027 558.491747 
L 551.842538 558.817902 
L 552.466585 558.87768 
L 553.090632 558.71656 
L 553.771411 558.292527 
L 554.565653 557.520988 
L 555.983942 555.758637 
L 557.175305 554.411864 
L 557.969547 553.835702 
L 558.593594 553.639337 
L 559.16091 553.676329 
L 559.784957 553.956706 
L 560.465736 554.531232 
L 561.316709 555.568104 
L 564.380214 559.654954 
L 565.060993 560.075708 
L 565.68504 560.218256 
L 566.309087 560.131551 
L 566.989866 559.800548 
L 567.84084 559.109167 
L 569.202397 557.652581 
L 570.677418 556.173153 
L 571.528391 555.622244 
L 572.20917 555.420921 
L 572.889949 555.451766 
L 573.627459 555.728414 
L 574.591896 556.364352 
L 577.428474 558.404623 
L 578.449642 558.818592 
L 579.357348 558.96207 
L 580.208321 558.878754 
L 581.116026 558.553957 
L 582.307389 557.849498 
L 584.122799 556.764641 
L 585.030504 556.490244 
L 585.938209 556.458309 
L 587.016109 556.664629 
L 588.888251 557.304609 
L 590.987319 557.957617 
L 592.178682 558.084334 
L 593.370044 557.976755 
L 597.795107 557.124038 
L 598.873006 556.643294 
L 602.049974 554.990511 
L 602.787484 554.975508 
L 603.581726 555.193047 
L 604.489431 555.684812 
L 606.134647 556.894308 
L 607.609668 557.857903 
L 608.517373 558.197523 
L 609.311615 558.255083 
L 610.049125 558.07854 
L 610.843367 557.63956 
L 611.751072 556.849274 
L 612.999166 555.421552 
L 614.474187 553.790728 
L 615.211698 553.290347 
L 615.835745 553.136048 
L 616.40306 553.239862 
L 616.970376 553.574607 
L 617.651155 554.241849 
L 618.672323 555.608661 
L 620.487733 558.072559 
L 621.281975 558.764632 
L 621.962754 559.086125 
L 622.643533 559.152919 
L 623.324312 558.986825 
L 624.118553 558.548802 
L 625.139722 557.707172 
L 628.259958 554.930383 
L 628.997468 554.65272 
L 629.678247 554.635744 
L 630.359026 554.846318 
L 631.209999 555.360201 
L 634.330235 557.489032 
L 635.23794 557.734353 
L 636.202377 557.756584 
L 637.280277 557.54605 
L 639.663003 556.751899 
L 641.36495 556.351267 
L 643.293823 556.137457 
L 645.222696 556.136923 
L 649.080443 556.276251 
L 652.541068 555.978204 
L 654.867062 555.959426 
L 656.001694 555.679886 
L 658.895004 554.8253 
L 659.802709 554.879715 
L 660.767145 555.168358 
L 661.958508 555.785649 
L 664.795087 557.388949 
L 665.589329 557.532434 
L 666.326839 557.446545 
L 667.064349 557.141399 
L 667.972054 556.505874 
L 669.333612 555.226088 
L 670.922096 553.79241 
L 671.716338 553.35309 
L 672.340385 553.229843 
L 672.907701 553.326676 
L 673.475016 553.641721 
L 674.155795 554.303598 
L 675.006769 555.483945 
L 676.027937 557.150005 
L 676.027937 557.150005 
" clip-path="url(#p1fad6c6207)" style="fill: none; stroke: #0000ff; stroke-width: 1.5; stroke-linecap: square"/>
   </g>
   <g id="patch_3">
    <path d="M 80.465625 643.2705 
L 80.465625 39.1875 
" style="fill: none; stroke: #000000; stroke-width: 0.8; stroke-linejoin: miter; stroke-linecap: square"/>
   </g>
   <g id="patch_4">
    <path d="M 704.388047 643.2705 
L 704.388047 39.1875 
" style="fill: none; stroke: #000000; stroke-width: 0.8; stroke-linejoin: miter; stroke-linecap: square"/>
   </g>
   <g id="patch_5">
    <path d="M 80.465625 643.2705 
L 704.388047 643.2705 
" style="fill: none; stroke: #000000; stroke-width: 0.8; stroke-linejoin: miter; stroke-linecap: square"/>
   </g>
   <g id="patch_6">
    <path d="M 80.465625 39.1875 
L 704.388047 39.1875 
" style="fill: none; stroke: #000000; stroke-width: 0.8; stroke-linejoin: miter; stroke-linecap: square"/>
   </g>
  </g>
 </g>
 <defs>
  <clipPath id="p1fad6c6207">
   <rect x="80.465625" y="39.1875" width="623.922422" height="604.083"/>
  </clipPath>
 </defs>
</svg>
