<?xml version="1.0" encoding="utf-8" standalone="no"?>
<!DOCTYPE svg PUBLIC "-//W3C//DTD SVG 1.1//EN"
  "http://www.w3.org/Graphics/SVG/1.1/DTD/svg11.dtd">
<svg xmlns:xlink="http://www.w3.org/1999/xlink" width="712.062129pt" height="711.214687pt" viewBox="0 0 712.062129 711.214687" xmlns="http://www.w3.org/2000/svg" version="1.1">
 <metadata>
  <rdf:RDF xmlns:dc="http://purl.org/dc/elements/1.1/" xmlns:cc="http://creativecommons.org/ns#" xmlns:rdf="http://www.w3.org/1999/02/22-rdf-syntax-ns#">
   <cc:Work>
    <dc:type rdf:resource="http://purl.org/dc/dcmitype/StillImage"/>
    <dc:date>2025-02-03T16:15:15.518535</dc:date>
    <dc:format>image/svg+xml</dc:format>
    <dc:creator>
     <cc:Agent>
      <dc:title>Matplotlib v3.9.3, https://matplotlib.org/</dc:title>
     </cc:Agent>
    </dc:creator>
   </cc:Work>
  </rdf:RDF>
 </metadata>
 <defs>
  <style type="text/css">*{stroke-linejoin: round; stroke-linecap: butt}</style>
 </defs>
 <g id="figure_1">
  <g id="patch_1">
   <path d="M 0 711.214687 
L 712.062129 711.214687 
L 712.062129 0 
L 0 0 
z
" style="fill: #ffffff"/>
  </g>
  <g id="axes_1">
   <g id="patch_2">
    <path d="M 141.215625 643.38 
L 704.862129 643.38 
L 704.862129 7.2 
L 141.215625 7.2 
z
" style="fill: #ffffff"/>
   </g>
   <g id="matplotlib.axis_1">
    <g id="xtick_1">
     <g id="line2d_1">
      <defs>
       <path id="mbc0e2f8d95" d="M 0 0 
L 0 -3.5 
" style="stroke: #000000; stroke-width: 0.8"/>
      </defs>
      <g>
       <use xlink:href="#mbc0e2f8d95" x="166.78467" y="643.38" style="stroke: #000000; stroke-width: 0.8"/>
      </g>
     </g>
     <g id="text_1">
      <!-- 0 -->
      <g transform="translate(159.277404 666.446562) scale(0.27 -0.27)">
       <defs>
        <path id="LiberationSans-30" d="M 3309 2203 
Q 3309 1100 2920 518 
Q 2531 -63 1772 -63 
Q 1013 -63 631 515 
Q 250 1094 250 2203 
Q 250 3338 620 3903 
Q 991 4469 1791 4469 
Q 2569 4469 2939 3897 
Q 3309 3325 3309 2203 
z
M 2738 2203 
Q 2738 3156 2517 3584 
Q 2297 4013 1791 4013 
Q 1272 4013 1045 3591 
Q 819 3169 819 2203 
Q 819 1266 1048 831 
Q 1278 397 1778 397 
Q 2275 397 2506 840 
Q 2738 1284 2738 2203 
z
" transform="scale(0.015625)"/>
       </defs>
       <use xlink:href="#LiberationSans-30"/>
      </g>
     </g>
    </g>
    <g id="xtick_2">
     <g id="line2d_2">
      <g>
       <use xlink:href="#mbc0e2f8d95" x="269.286353" y="643.38" style="stroke: #000000; stroke-width: 0.8"/>
      </g>
     </g>
     <g id="text_2">
      <!-- 2 -->
      <g transform="translate(261.779087 666.446562) scale(0.27 -0.27)">
       <defs>
        <path id="LiberationSans-32" d="M 322 0 
L 322 397 
Q 481 763 711 1042 
Q 941 1322 1194 1548 
Q 1447 1775 1695 1969 
Q 1944 2163 2144 2356 
Q 2344 2550 2467 2762 
Q 2591 2975 2591 3244 
Q 2591 3606 2378 3806 
Q 2166 4006 1788 4006 
Q 1428 4006 1195 3811 
Q 963 3616 922 3263 
L 347 3316 
Q 409 3844 795 4156 
Q 1181 4469 1788 4469 
Q 2453 4469 2811 4155 
Q 3169 3841 3169 3263 
Q 3169 3006 3051 2753 
Q 2934 2500 2703 2247 
Q 2472 1994 1819 1463 
Q 1459 1169 1246 933 
Q 1034 697 941 478 
L 3238 478 
L 3238 0 
L 322 0 
z
" transform="scale(0.015625)"/>
       </defs>
       <use xlink:href="#LiberationSans-32"/>
      </g>
     </g>
    </g>
    <g id="xtick_3">
     <g id="line2d_3">
      <g>
       <use xlink:href="#mbc0e2f8d95" x="371.788036" y="643.38" style="stroke: #000000; stroke-width: 0.8"/>
      </g>
     </g>
     <g id="text_3">
      <!-- 4 -->
      <g transform="translate(364.28077 666.446562) scale(0.27 -0.27)">
       <defs>
        <path id="LiberationSans-34" d="M 2753 997 
L 2753 0 
L 2222 0 
L 2222 997 
L 147 997 
L 147 1434 
L 2163 4403 
L 2753 4403 
L 2753 1441 
L 3372 1441 
L 3372 997 
L 2753 997 
z
M 2222 3769 
Q 2216 3750 2134 3603 
Q 2053 3456 2013 3397 
L 884 1734 
L 716 1503 
L 666 1441 
L 2222 1441 
L 2222 3769 
z
" transform="scale(0.015625)"/>
       </defs>
       <use xlink:href="#LiberationSans-34"/>
      </g>
     </g>
    </g>
    <g id="xtick_4">
     <g id="line2d_4">
      <g>
       <use xlink:href="#mbc0e2f8d95" x="474.289718" y="643.38" style="stroke: #000000; stroke-width: 0.8"/>
      </g>
     </g>
     <g id="text_4">
      <!-- 6 -->
      <g transform="translate(466.782453 666.446562) scale(0.27 -0.27)">
       <defs>
        <path id="LiberationSans-36" d="M 3278 1441 
Q 3278 744 2900 340 
Q 2522 -63 1856 -63 
Q 1113 -63 719 490 
Q 325 1044 325 2100 
Q 325 3244 734 3856 
Q 1144 4469 1900 4469 
Q 2897 4469 3156 3572 
L 2619 3475 
Q 2453 4013 1894 4013 
Q 1413 4013 1148 3564 
Q 884 3116 884 2266 
Q 1038 2550 1316 2698 
Q 1594 2847 1953 2847 
Q 2563 2847 2920 2465 
Q 3278 2084 3278 1441 
z
M 2706 1416 
Q 2706 1894 2472 2153 
Q 2238 2413 1819 2413 
Q 1425 2413 1183 2183 
Q 941 1953 941 1550 
Q 941 1041 1192 716 
Q 1444 391 1838 391 
Q 2244 391 2475 664 
Q 2706 938 2706 1416 
z
" transform="scale(0.015625)"/>
       </defs>
       <use xlink:href="#LiberationSans-36"/>
      </g>
     </g>
    </g>
    <g id="xtick_5">
     <g id="line2d_5">
      <g>
       <use xlink:href="#mbc0e2f8d95" x="576.791401" y="643.38" style="stroke: #000000; stroke-width: 0.8"/>
      </g>
     </g>
     <g id="text_5">
      <!-- 8 -->
      <g transform="translate(569.284136 666.446562) scale(0.27 -0.27)">
       <defs>
        <path id="LiberationSans-38" d="M 3281 1228 
Q 3281 619 2893 278 
Q 2506 -63 1781 -63 
Q 1075 -63 676 271 
Q 278 606 278 1222 
Q 278 1653 525 1947 
Q 772 2241 1156 2303 
L 1156 2316 
Q 797 2400 589 2681 
Q 381 2963 381 3341 
Q 381 3844 757 4156 
Q 1134 4469 1769 4469 
Q 2419 4469 2795 4162 
Q 3172 3856 3172 3334 
Q 3172 2956 2962 2675 
Q 2753 2394 2391 2322 
L 2391 2309 
Q 2813 2241 3047 1952 
Q 3281 1663 3281 1228 
z
M 2588 3303 
Q 2588 4050 1769 4050 
Q 1372 4050 1164 3862 
Q 956 3675 956 3303 
Q 956 2925 1170 2726 
Q 1384 2528 1775 2528 
Q 2172 2528 2380 2711 
Q 2588 2894 2588 3303 
z
M 2697 1281 
Q 2697 1691 2453 1898 
Q 2209 2106 1769 2106 
Q 1341 2106 1100 1882 
Q 859 1659 859 1269 
Q 859 359 1788 359 
Q 2247 359 2472 579 
Q 2697 800 2697 1281 
z
" transform="scale(0.015625)"/>
       </defs>
       <use xlink:href="#LiberationSans-38"/>
      </g>
     </g>
    </g>
    <g id="xtick_6">
     <g id="line2d_6">
      <g>
       <use xlink:href="#mbc0e2f8d95" x="679.293084" y="643.38" style="stroke: #000000; stroke-width: 0.8"/>
      </g>
     </g>
     <g id="text_6">
      <!-- 10 -->
      <g transform="translate(664.278553 666.446562) scale(0.27 -0.27)">
       <defs>
        <path id="LiberationSans-31" d="M 488 0 
L 488 478 
L 1609 478 
L 1609 3866 
L 616 3156 
L 616 3688 
L 1656 4403 
L 2175 4403 
L 2175 478 
L 3247 478 
L 3247 0 
L 488 0 
z
" transform="scale(0.015625)"/>
       </defs>
       <use xlink:href="#LiberationSans-31"/>
       <use xlink:href="#LiberationSans-30" x="55.615234"/>
      </g>
     </g>
    </g>
    <g id="xtick_7">
     <g id="line2d_7">
      <defs>
       <path id="m2ae5393e1d" d="M 0 0 
L 0 -2 
" style="stroke: #000000; stroke-width: 0.6"/>
      </defs>
      <g>
       <use xlink:href="#m2ae5393e1d" x="192.410091" y="643.38" style="stroke: #000000; stroke-width: 0.6"/>
      </g>
     </g>
    </g>
    <g id="xtick_8">
     <g id="line2d_8">
      <g>
       <use xlink:href="#m2ae5393e1d" x="218.035511" y="643.38" style="stroke: #000000; stroke-width: 0.6"/>
      </g>
     </g>
    </g>
    <g id="xtick_9">
     <g id="line2d_9">
      <g>
       <use xlink:href="#m2ae5393e1d" x="243.660932" y="643.38" style="stroke: #000000; stroke-width: 0.6"/>
      </g>
     </g>
    </g>
    <g id="xtick_10">
     <g id="line2d_10">
      <g>
       <use xlink:href="#m2ae5393e1d" x="294.911773" y="643.38" style="stroke: #000000; stroke-width: 0.6"/>
      </g>
     </g>
    </g>
    <g id="xtick_11">
     <g id="line2d_11">
      <g>
       <use xlink:href="#m2ae5393e1d" x="320.537194" y="643.38" style="stroke: #000000; stroke-width: 0.6"/>
      </g>
     </g>
    </g>
    <g id="xtick_12">
     <g id="line2d_12">
      <g>
       <use xlink:href="#m2ae5393e1d" x="346.162615" y="643.38" style="stroke: #000000; stroke-width: 0.6"/>
      </g>
     </g>
    </g>
    <g id="xtick_13">
     <g id="line2d_13">
      <g>
       <use xlink:href="#m2ae5393e1d" x="397.413456" y="643.38" style="stroke: #000000; stroke-width: 0.6"/>
      </g>
     </g>
    </g>
    <g id="xtick_14">
     <g id="line2d_14">
      <g>
       <use xlink:href="#m2ae5393e1d" x="423.038877" y="643.38" style="stroke: #000000; stroke-width: 0.6"/>
      </g>
     </g>
    </g>
    <g id="xtick_15">
     <g id="line2d_15">
      <g>
       <use xlink:href="#m2ae5393e1d" x="448.664298" y="643.38" style="stroke: #000000; stroke-width: 0.6"/>
      </g>
     </g>
    </g>
    <g id="xtick_16">
     <g id="line2d_16">
      <g>
       <use xlink:href="#m2ae5393e1d" x="499.915139" y="643.38" style="stroke: #000000; stroke-width: 0.6"/>
      </g>
     </g>
    </g>
    <g id="xtick_17">
     <g id="line2d_17">
      <g>
       <use xlink:href="#m2ae5393e1d" x="525.54056" y="643.38" style="stroke: #000000; stroke-width: 0.6"/>
      </g>
     </g>
    </g>
    <g id="xtick_18">
     <g id="line2d_18">
      <g>
       <use xlink:href="#m2ae5393e1d" x="551.165981" y="643.38" style="stroke: #000000; stroke-width: 0.6"/>
      </g>
     </g>
    </g>
    <g id="xtick_19">
     <g id="line2d_19">
      <g>
       <use xlink:href="#m2ae5393e1d" x="602.416822" y="643.38" style="stroke: #000000; stroke-width: 0.6"/>
      </g>
     </g>
    </g>
    <g id="xtick_20">
     <g id="line2d_20">
      <g>
       <use xlink:href="#m2ae5393e1d" x="628.042243" y="643.38" style="stroke: #000000; stroke-width: 0.6"/>
      </g>
     </g>
    </g>
    <g id="xtick_21">
     <g id="line2d_21">
      <g>
       <use xlink:href="#m2ae5393e1d" x="653.667663" y="643.38" style="stroke: #000000; stroke-width: 0.6"/>
      </g>
     </g>
    </g>
    <g id="text_7">
     <!-- Time ps -->
     <g transform="translate(370.262314 697.789687) scale(0.3 -0.3)">
      <defs>
       <path id="LiberationSans-54" d="M 2250 3916 
L 2250 0 
L 1656 0 
L 1656 3916 
L 144 3916 
L 144 4403 
L 3763 4403 
L 3763 3916 
L 2250 3916 
z
" transform="scale(0.015625)"/>
       <path id="LiberationSans-69" d="M 428 4100 
L 428 4638 
L 991 4638 
L 991 4100 
L 428 4100 
z
M 428 0 
L 428 3381 
L 991 3381 
L 991 0 
L 428 0 
z
" transform="scale(0.015625)"/>
       <path id="LiberationSans-6d" d="M 2400 0 
L 2400 2144 
Q 2400 2634 2265 2821 
Q 2131 3009 1781 3009 
Q 1422 3009 1212 2734 
Q 1003 2459 1003 1959 
L 1003 0 
L 444 0 
L 444 2659 
Q 444 3250 425 3381 
L 956 3381 
Q 959 3366 962 3297 
Q 966 3228 970 3139 
Q 975 3050 981 2803 
L 991 2803 
Q 1172 3163 1406 3303 
Q 1641 3444 1978 3444 
Q 2363 3444 2586 3291 
Q 2809 3138 2897 2803 
L 2906 2803 
Q 3081 3144 3329 3294 
Q 3578 3444 3931 3444 
Q 4444 3444 4676 3166 
Q 4909 2888 4909 2253 
L 4909 0 
L 4353 0 
L 4353 2144 
Q 4353 2634 4218 2821 
Q 4084 3009 3734 3009 
Q 3366 3009 3161 2736 
Q 2956 2463 2956 1959 
L 2956 0 
L 2400 0 
z
" transform="scale(0.015625)"/>
       <path id="LiberationSans-65" d="M 863 1572 
Q 863 991 1103 675 
Q 1344 359 1806 359 
Q 2172 359 2392 506 
Q 2613 653 2691 878 
L 3184 738 
Q 2881 -63 1806 -63 
Q 1056 -63 664 384 
Q 272 831 272 1713 
Q 272 2550 664 2997 
Q 1056 3444 1784 3444 
Q 3275 3444 3275 1647 
L 3275 1572 
L 863 1572 
z
M 2694 2003 
Q 2647 2538 2422 2783 
Q 2197 3028 1775 3028 
Q 1366 3028 1127 2754 
Q 888 2481 869 2003 
L 2694 2003 
z
" transform="scale(0.015625)"/>
       <path id="LiberationSans-20" transform="scale(0.015625)"/>
       <path id="LiberationSans-70" d="M 3291 1706 
Q 3291 -63 2047 -63 
Q 1266 -63 997 525 
L 981 525 
Q 994 500 994 -6 
L 994 -1328 
L 431 -1328 
L 431 2691 
Q 431 3213 413 3381 
L 956 3381 
Q 959 3369 965 3292 
Q 972 3216 980 3056 
Q 988 2897 988 2838 
L 1000 2838 
Q 1150 3150 1397 3295 
Q 1644 3441 2047 3441 
Q 2672 3441 2981 3022 
Q 3291 2603 3291 1706 
z
M 2700 1694 
Q 2700 2400 2509 2703 
Q 2319 3006 1903 3006 
Q 1569 3006 1380 2865 
Q 1191 2725 1092 2426 
Q 994 2128 994 1650 
Q 994 984 1206 668 
Q 1419 353 1897 353 
Q 2316 353 2508 661 
Q 2700 969 2700 1694 
z
" transform="scale(0.015625)"/>
       <path id="LiberationSans-73" d="M 2969 934 
Q 2969 456 2608 196 
Q 2247 -63 1597 -63 
Q 966 -63 623 145 
Q 281 353 178 794 
L 675 891 
Q 747 619 972 492 
Q 1197 366 1597 366 
Q 2025 366 2223 497 
Q 2422 628 2422 891 
Q 2422 1091 2284 1216 
Q 2147 1341 1841 1422 
L 1438 1528 
Q 953 1653 748 1773 
Q 544 1894 428 2066 
Q 313 2238 313 2488 
Q 313 2950 642 3192 
Q 972 3434 1603 3434 
Q 2163 3434 2492 3237 
Q 2822 3041 2909 2606 
L 2403 2544 
Q 2356 2769 2151 2889 
Q 1947 3009 1603 3009 
Q 1222 3009 1040 2893 
Q 859 2778 859 2544 
Q 859 2400 934 2306 
Q 1009 2213 1156 2147 
Q 1303 2081 1775 1966 
Q 2222 1853 2419 1758 
Q 2616 1663 2730 1547 
Q 2844 1431 2906 1279 
Q 2969 1128 2969 934 
z
" transform="scale(0.015625)"/>
      </defs>
      <use xlink:href="#LiberationSans-54"/>
      <use xlink:href="#LiberationSans-69" x="57.333984"/>
      <use xlink:href="#LiberationSans-6d" x="79.550781"/>
      <use xlink:href="#LiberationSans-65" x="162.851562"/>
      <use xlink:href="#LiberationSans-20" x="218.466797"/>
      <use xlink:href="#LiberationSans-70" x="246.25"/>
      <use xlink:href="#LiberationSans-73" x="301.865234"/>
     </g>
    </g>
   </g>
   <g id="matplotlib.axis_2">
    <g id="ytick_1">
     <g id="line2d_22">
      <defs>
       <path id="m27a08e52fb" d="M 0 0 
L 3.5 0 
" style="stroke: #000000; stroke-width: 0.8"/>
      </defs>
      <g>
       <use xlink:href="#m27a08e52fb" x="141.215625" y="577.023372" style="stroke: #000000; stroke-width: 0.8"/>
      </g>
     </g>
     <g id="text_8">
      <!-- $\mathdefault{−0.0002}$ -->
      <g transform="translate(39.165625 586.806653) scale(0.27 -0.27)">
       <defs>
        <path id="LiberationSans-2212" d="M 316 1900 
L 316 2356 
L 3425 2356 
L 3425 1900 
L 316 1900 
z
" transform="scale(0.015625)"/>
        <path id="LiberationSans-2e" d="M 584 0 
L 584 684 
L 1194 684 
L 1194 0 
L 584 0 
z
" transform="scale(0.015625)"/>
       </defs>
       <use xlink:href="#LiberationSans-2212" transform="translate(0 0.171875)"/>
       <use xlink:href="#LiberationSans-30" transform="translate(58.398438 0.171875)"/>
       <use xlink:href="#LiberationSans-2e" transform="translate(114.013672 0.171875)"/>
       <use xlink:href="#LiberationSans-30" transform="translate(141.796875 0.171875)"/>
       <use xlink:href="#LiberationSans-30" transform="translate(197.412109 0.171875)"/>
       <use xlink:href="#LiberationSans-30" transform="translate(253.027344 0.171875)"/>
       <use xlink:href="#LiberationSans-32" transform="translate(308.642578 0.171875)"/>
      </g>
     </g>
    </g>
    <g id="ytick_2">
     <g id="line2d_23">
      <g>
       <use xlink:href="#m27a08e52fb" x="141.215625" y="470.439394" style="stroke: #000000; stroke-width: 0.8"/>
      </g>
     </g>
     <g id="text_9">
      <!-- $\mathdefault{0.0000}$ -->
      <g transform="translate(55.095625 480.222676) scale(0.27 -0.27)">
       <use xlink:href="#LiberationSans-30" transform="translate(0 0.171875)"/>
       <use xlink:href="#LiberationSans-2e" transform="translate(55.615234 0.171875)"/>
       <use xlink:href="#LiberationSans-30" transform="translate(83.398438 0.171875)"/>
       <use xlink:href="#LiberationSans-30" transform="translate(139.013672 0.171875)"/>
       <use xlink:href="#LiberationSans-30" transform="translate(194.628906 0.171875)"/>
       <use xlink:href="#LiberationSans-30" transform="translate(250.244141 0.171875)"/>
      </g>
     </g>
    </g>
    <g id="ytick_3">
     <g id="line2d_24">
      <g>
       <use xlink:href="#m27a08e52fb" x="141.215625" y="363.855417" style="stroke: #000000; stroke-width: 0.8"/>
      </g>
     </g>
     <g id="text_10">
      <!-- $\mathdefault{0.0002}$ -->
      <g transform="translate(55.095625 373.638698) scale(0.27 -0.27)">
       <use xlink:href="#LiberationSans-30" transform="translate(0 0.171875)"/>
       <use xlink:href="#LiberationSans-2e" transform="translate(55.615234 0.171875)"/>
       <use xlink:href="#LiberationSans-30" transform="translate(83.398438 0.171875)"/>
       <use xlink:href="#LiberationSans-30" transform="translate(139.013672 0.171875)"/>
       <use xlink:href="#LiberationSans-30" transform="translate(194.628906 0.171875)"/>
       <use xlink:href="#LiberationSans-32" transform="translate(250.244141 0.171875)"/>
      </g>
     </g>
    </g>
    <g id="ytick_4">
     <g id="line2d_25">
      <g>
       <use xlink:href="#m27a08e52fb" x="141.215625" y="257.271439" style="stroke: #000000; stroke-width: 0.8"/>
      </g>
     </g>
     <g id="text_11">
      <!-- $\mathdefault{0.0004}$ -->
      <g transform="translate(55.095625 267.05472) scale(0.27 -0.27)">
       <use xlink:href="#LiberationSans-30" transform="translate(0 0.171875)"/>
       <use xlink:href="#LiberationSans-2e" transform="translate(55.615234 0.171875)"/>
       <use xlink:href="#LiberationSans-30" transform="translate(83.398438 0.171875)"/>
       <use xlink:href="#LiberationSans-30" transform="translate(139.013672 0.171875)"/>
       <use xlink:href="#LiberationSans-30" transform="translate(194.628906 0.171875)"/>
       <use xlink:href="#LiberationSans-34" transform="translate(250.244141 0.171875)"/>
      </g>
     </g>
    </g>
    <g id="ytick_5">
     <g id="line2d_26">
      <g>
       <use xlink:href="#m27a08e52fb" x="141.215625" y="150.687461" style="stroke: #000000; stroke-width: 0.8"/>
      </g>
     </g>
     <g id="text_12">
      <!-- $\mathdefault{0.0006}$ -->
      <g transform="translate(55.095625 160.470742) scale(0.27 -0.27)">
       <use xlink:href="#LiberationSans-30" transform="translate(0 0.171875)"/>
       <use xlink:href="#LiberationSans-2e" transform="translate(55.615234 0.171875)"/>
       <use xlink:href="#LiberationSans-30" transform="translate(83.398438 0.171875)"/>
       <use xlink:href="#LiberationSans-30" transform="translate(139.013672 0.171875)"/>
       <use xlink:href="#LiberationSans-30" transform="translate(194.628906 0.171875)"/>
       <use xlink:href="#LiberationSans-36" transform="translate(250.244141 0.171875)"/>
      </g>
     </g>
    </g>
    <g id="ytick_6">
     <g id="line2d_27">
      <g>
       <use xlink:href="#m27a08e52fb" x="141.215625" y="44.103483" style="stroke: #000000; stroke-width: 0.8"/>
      </g>
     </g>
     <g id="text_13">
      <!-- $\mathdefault{0.0008}$ -->
      <g transform="translate(55.095625 53.886765) scale(0.27 -0.27)">
       <use xlink:href="#LiberationSans-30" transform="translate(0 0.171875)"/>
       <use xlink:href="#LiberationSans-2e" transform="translate(55.615234 0.171875)"/>
       <use xlink:href="#LiberationSans-30" transform="translate(83.398438 0.171875)"/>
       <use xlink:href="#LiberationSans-30" transform="translate(139.013672 0.171875)"/>
       <use xlink:href="#LiberationSans-30" transform="translate(194.628906 0.171875)"/>
       <use xlink:href="#LiberationSans-38" transform="translate(250.244141 0.171875)"/>
      </g>
     </g>
    </g>
    <g id="ytick_7">
     <g id="line2d_28">
      <defs>
       <path id="mdefcb82a1f" d="M 0 0 
L 2 0 
" style="stroke: #000000; stroke-width: 0.6"/>
      </defs>
      <g>
       <use xlink:href="#mdefcb82a1f" x="141.215625" y="630.315361" style="stroke: #000000; stroke-width: 0.6"/>
      </g>
     </g>
    </g>
    <g id="ytick_8">
     <g id="line2d_29">
      <g>
       <use xlink:href="#mdefcb82a1f" x="141.215625" y="603.669367" style="stroke: #000000; stroke-width: 0.6"/>
      </g>
     </g>
    </g>
    <g id="ytick_9">
     <g id="line2d_30">
      <g>
       <use xlink:href="#mdefcb82a1f" x="141.215625" y="550.377378" style="stroke: #000000; stroke-width: 0.6"/>
      </g>
     </g>
    </g>
    <g id="ytick_10">
     <g id="line2d_31">
      <g>
       <use xlink:href="#mdefcb82a1f" x="141.215625" y="523.731383" style="stroke: #000000; stroke-width: 0.6"/>
      </g>
     </g>
    </g>
    <g id="ytick_11">
     <g id="line2d_32">
      <g>
       <use xlink:href="#mdefcb82a1f" x="141.215625" y="497.085389" style="stroke: #000000; stroke-width: 0.6"/>
      </g>
     </g>
    </g>
    <g id="ytick_12">
     <g id="line2d_33">
      <g>
       <use xlink:href="#mdefcb82a1f" x="141.215625" y="443.7934" style="stroke: #000000; stroke-width: 0.6"/>
      </g>
     </g>
    </g>
    <g id="ytick_13">
     <g id="line2d_34">
      <g>
       <use xlink:href="#mdefcb82a1f" x="141.215625" y="417.147406" style="stroke: #000000; stroke-width: 0.6"/>
      </g>
     </g>
    </g>
    <g id="ytick_14">
     <g id="line2d_35">
      <g>
       <use xlink:href="#mdefcb82a1f" x="141.215625" y="390.501411" style="stroke: #000000; stroke-width: 0.6"/>
      </g>
     </g>
    </g>
    <g id="ytick_15">
     <g id="line2d_36">
      <g>
       <use xlink:href="#mdefcb82a1f" x="141.215625" y="337.209422" style="stroke: #000000; stroke-width: 0.6"/>
      </g>
     </g>
    </g>
    <g id="ytick_16">
     <g id="line2d_37">
      <g>
       <use xlink:href="#mdefcb82a1f" x="141.215625" y="310.563428" style="stroke: #000000; stroke-width: 0.6"/>
      </g>
     </g>
    </g>
    <g id="ytick_17">
     <g id="line2d_38">
      <g>
       <use xlink:href="#mdefcb82a1f" x="141.215625" y="283.917433" style="stroke: #000000; stroke-width: 0.6"/>
      </g>
     </g>
    </g>
    <g id="ytick_18">
     <g id="line2d_39">
      <g>
       <use xlink:href="#mdefcb82a1f" x="141.215625" y="230.625444" style="stroke: #000000; stroke-width: 0.6"/>
      </g>
     </g>
    </g>
    <g id="ytick_19">
     <g id="line2d_40">
      <g>
       <use xlink:href="#mdefcb82a1f" x="141.215625" y="203.97945" style="stroke: #000000; stroke-width: 0.6"/>
      </g>
     </g>
    </g>
    <g id="ytick_20">
     <g id="line2d_41">
      <g>
       <use xlink:href="#mdefcb82a1f" x="141.215625" y="177.333456" style="stroke: #000000; stroke-width: 0.6"/>
      </g>
     </g>
    </g>
    <g id="ytick_21">
     <g id="line2d_42">
      <g>
       <use xlink:href="#mdefcb82a1f" x="141.215625" y="124.041467" style="stroke: #000000; stroke-width: 0.6"/>
      </g>
     </g>
    </g>
    <g id="ytick_22">
     <g id="line2d_43">
      <g>
       <use xlink:href="#mdefcb82a1f" x="141.215625" y="97.395472" style="stroke: #000000; stroke-width: 0.6"/>
      </g>
     </g>
    </g>
    <g id="ytick_23">
     <g id="line2d_44">
      <g>
       <use xlink:href="#mdefcb82a1f" x="141.215625" y="70.749478" style="stroke: #000000; stroke-width: 0.6"/>
      </g>
     </g>
    </g>
    <g id="ytick_24">
     <g id="line2d_45">
      <g>
       <use xlink:href="#mdefcb82a1f" x="141.215625" y="17.457489" style="stroke: #000000; stroke-width: 0.6"/>
      </g>
     </g>
    </g>
    <g id="text_14">
     <!-- ITR $\mathrm{K} \cdot \mathrm{m}^2 / \mathrm{W}$ -->
     <g transform="translate(28.940625 409.29) rotate(-90) scale(0.3 -0.3)">
      <defs>
       <path id="LiberationSans-49" d="M 591 0 
L 591 4403 
L 1188 4403 
L 1188 0 
L 591 0 
z
" transform="scale(0.015625)"/>
       <path id="LiberationSans-52" d="M 3638 0 
L 2494 1828 
L 1122 1828 
L 1122 0 
L 525 0 
L 525 4403 
L 2597 4403 
Q 3341 4403 3745 4070 
Q 4150 3738 4150 3144 
Q 4150 2653 3864 2318 
Q 3578 1984 3075 1897 
L 4325 0 
L 3638 0 
z
M 3550 3138 
Q 3550 3522 3289 3723 
Q 3028 3925 2538 3925 
L 1122 3925 
L 1122 2300 
L 2563 2300 
Q 3034 2300 3292 2520 
Q 3550 2741 3550 3138 
z
" transform="scale(0.015625)"/>
       <path id="STIXGeneral-Regular-4b" d="M 4627 0 
L 2688 0 
L 2688 122 
L 2861 128 
Q 3130 134 3130 282 
Q 3130 397 2922 643 
Q 2714 890 2253 1370 
L 1613 2029 
L 1446 1894 
L 1446 710 
Q 1446 352 1548 253 
Q 1651 154 2016 122 
L 2016 0 
L 211 0 
L 211 122 
Q 589 141 691 262 
Q 794 384 794 800 
L 794 3514 
Q 794 3872 691 3981 
Q 589 4090 218 4115 
L 218 4237 
L 2022 4237 
L 2022 4115 
Q 1632 4090 1539 3987 
Q 1446 3885 1446 3507 
L 1446 2227 
L 2586 3277 
Q 2861 3533 2973 3667 
Q 3085 3802 3085 3910 
Q 3085 4013 3030 4057 
Q 2976 4102 2822 4109 
L 2662 4115 
L 2662 4237 
L 4320 4237 
L 4320 4115 
Q 3994 4090 3824 4003 
Q 3654 3917 3322 3597 
L 2131 2458 
L 3629 819 
Q 4026 384 4214 253 
Q 4403 122 4627 122 
L 4627 0 
z
" transform="scale(0.015625)"/>
       <path id="STIXGeneral-Regular-22c5" d="M 1187 1888 
Q 1299 1773 1299 1619 
Q 1299 1466 1187 1350 
Q 1075 1235 921 1235 
Q 768 1235 649 1353 
Q 531 1472 531 1619 
Q 531 1766 649 1884 
Q 768 2003 921 2003 
Q 1075 2003 1187 1888 
z
" transform="scale(0.015625)"/>
       <path id="STIXGeneral-Regular-6d" d="M 4960 0 
L 3565 0 
L 3565 96 
Q 3834 122 3907 208 
Q 3981 294 3981 576 
L 3981 1894 
Q 3981 2278 3869 2444 
Q 3757 2611 3488 2611 
Q 3264 2611 3107 2521 
Q 2950 2432 2803 2221 
L 2803 608 
Q 2803 301 2896 201 
Q 2989 102 3264 96 
L 3264 0 
L 1830 0 
L 1830 96 
Q 2112 115 2189 188 
Q 2266 262 2266 550 
L 2266 1901 
Q 2266 2611 1850 2611 
Q 1670 2611 1468 2531 
Q 1267 2451 1171 2336 
Q 1088 2240 1088 2227 
L 1088 448 
Q 1088 243 1177 176 
Q 1267 109 1523 96 
L 1523 0 
L 102 0 
L 102 96 
Q 371 102 460 195 
Q 550 288 550 563 
L 550 2150 
Q 550 2387 499 2480 
Q 448 2573 326 2573 
Q 230 2573 122 2547 
L 122 2656 
Q 557 2778 1011 2944 
L 1062 2925 
L 1062 2451 
L 1075 2451 
Q 1363 2752 1584 2848 
Q 1805 2944 2054 2944 
Q 2560 2944 2733 2406 
Q 3232 2944 3776 2944 
Q 4518 2944 4518 1792 
L 4518 493 
Q 4518 282 4582 202 
Q 4646 122 4794 109 
L 4960 96 
L 4960 0 
z
" transform="scale(0.015625)"/>
       <path id="STIXGeneral-Regular-32" d="M 3034 877 
L 2688 0 
L 186 0 
L 186 77 
L 1325 1286 
Q 1773 1754 1965 2144 
Q 2157 2534 2157 2950 
Q 2157 3379 1920 3616 
Q 1683 3853 1267 3853 
Q 922 3853 720 3673 
Q 518 3494 326 3021 
L 192 3053 
Q 301 3648 630 3987 
Q 960 4326 1523 4326 
Q 2054 4326 2380 4006 
Q 2707 3686 2707 3200 
Q 2707 2477 1888 1613 
L 832 486 
L 2330 486 
Q 2541 486 2665 569 
Q 2790 653 2944 915 
L 3034 877 
z
" transform="scale(0.015625)"/>
       <path id="STIXGeneral-Regular-2f" d="M 1837 4326 
L 378 -90 
L -58 -90 
L 1408 4326 
L 1837 4326 
z
" transform="scale(0.015625)"/>
       <path id="STIXGeneral-Regular-57" d="M 5965 4237 
L 5965 4115 
Q 5709 4064 5616 3990 
Q 5523 3917 5434 3667 
Q 4704 1709 4128 -70 
L 4032 -70 
Q 3642 1011 3008 2637 
L 2022 -70 
L 1926 -70 
Q 1709 576 1277 1753 
Q 845 2931 698 3347 
Q 538 3808 406 3958 
Q 275 4109 32 4115 
L 32 4237 
L 1594 4237 
L 1594 4115 
Q 1357 4109 1270 4064 
Q 1184 4019 1184 3917 
Q 1184 3808 1254 3616 
L 2176 1210 
L 2842 3021 
L 2662 3501 
Q 2509 3917 2400 4013 
Q 2291 4109 2010 4115 
L 2010 4237 
L 3706 4237 
L 3706 4115 
Q 3213 4102 3213 3891 
Q 3213 3808 3322 3520 
L 4237 1190 
L 5043 3360 
Q 5152 3667 5152 3853 
Q 5152 4109 4704 4115 
L 4704 4237 
L 5965 4237 
z
" transform="scale(0.015625)"/>
      </defs>
      <use xlink:href="#LiberationSans-49" transform="translate(0 0.409375)"/>
      <use xlink:href="#LiberationSans-54" transform="translate(27.783203 0.409375)"/>
      <use xlink:href="#LiberationSans-52" transform="translate(88.867188 0.409375)"/>
      <use xlink:href="#LiberationSans-20" transform="translate(161.083984 0.409375)"/>
      <use xlink:href="#STIXGeneral-Regular-4b" transform="translate(188.867188 0.409375)"/>
      <use xlink:href="#STIXGeneral-Regular-22c5" transform="translate(275.507166 0.409375)"/>
      <use xlink:href="#STIXGeneral-Regular-6d" transform="translate(318.547153 0.409375)"/>
      <use xlink:href="#STIXGeneral-Regular-32" transform="translate(397.890422 35.684375) scale(0.7)"/>
      <use xlink:href="#STIXGeneral-Regular-2f" transform="translate(437.299786 0.409375)"/>
      <use xlink:href="#STIXGeneral-Regular-57" transform="translate(465.099774 0.409375)"/>
     </g>
    </g>
   </g>
   <g id="line2d_46">
    <path d="M 166.835921 470.439394 
L 166.887171 469.566514 
L 166.938422 469.963262 
L 167.143426 470.270816 
L 167.604683 470.369634 
L 169.500964 470.412155 
L 174.984804 470.320401 
L 176.214825 470.116555 
L 176.778584 469.835796 
L 177.239841 469.361206 
L 177.598597 468.986847 
L 177.906102 468.993448 
L 178.213607 469.239618 
L 178.98237 469.904886 
L 179.699882 470.141737 
L 180.929902 470.27877 
L 185.132471 470.368202 
L 191.538826 470.344111 
L 192.256338 470.201097 
L 192.461341 470.007903 
L 192.563843 469.710914 
L 192.666345 468.159217 
L 192.717596 498.525377 
L 192.768846 472.413365 
L 192.922599 470.97737 
L 193.178853 470.682169 
L 193.691362 470.559636 
L 195.382639 470.496992 
L 200.353971 470.564564 
L 203.32652 470.777036 
L 203.890279 470.994806 
L 204.197784 471.319665 
L 204.351537 471.721107 
L 204.505289 472.744024 
L 204.607791 475.614663 
L 204.659042 484.100156 
L 204.710292 451.343164 
L 204.761543 464.889634 
L 204.915296 468.613282 
L 205.120299 469.455025 
L 205.427804 469.858644 
L 205.837811 470.045601 
L 206.709075 470.172498 
L 208.041597 470.117997 
L 208.554106 469.911242 
L 208.759109 469.671268 
L 208.912861 469.13335 
L 209.015363 467.929763 
L 209.066614 465.55213 
L 209.117865 36.117273 
L 209.169116 475.366562 
L 209.322868 471.626148 
L 209.579122 470.939442 
L 209.937878 470.700119 
L 210.65539 470.561817 
L 212.602922 470.482595 
L 217.164247 470.520649 
L 217.625504 470.677894 
L 217.728006 470.874525 
L 217.779257 471.182723 
L 217.830508 472.968636 
L 217.881759 468.658169 
L 217.93301 469.780613 
L 218.138013 470.26368 
L 218.59927 470.369182 
L 220.444301 470.413863 
L 226.953158 470.334283 
L 230.438215 470.29159 
L 234.692035 470.373265 
L 243.455929 470.330209 
L 244.070939 470.156169 
L 244.275942 469.857062 
L 244.378444 469.224398 
L 244.429695 467.787789 
L 244.480945 485.735756 
L 244.532196 472.437187 
L 244.685949 470.998005 
L 244.942203 470.701405 
L 245.454711 470.573942 
L 247.043487 470.512587 
L 250.631046 470.603279 
L 252.06607 470.828951 
L 252.783582 471.144973 
L 253.091087 471.481136 
L 253.244839 471.843977 
L 253.449843 472.708592 
L 253.552344 473.949672 
L 253.654846 480.328343 
L 253.706097 614.462727 
L 253.757348 458.292088 
L 253.9111 467.141812 
L 254.167354 469.110669 
L 254.474859 469.692892 
L 254.936117 469.996635 
L 255.602378 470.169923 
L 256.986151 470.293405 
L 259.702445 470.289589 
L 260.676211 470.129139 
L 260.983716 469.86661 
L 261.137469 469.381327 
L 261.239971 467.867655 
L 261.291221 460.817178 
L 261.342472 475.744398 
L 261.393723 472.487507 
L 261.598726 471.028487 
L 261.854981 470.740183 
L 262.367489 470.585207 
L 263.700011 470.496867 
L 267.800078 470.498174 
L 268.568841 470.631806 
L 268.722593 470.842578 
L 268.773844 471.080827 
L 268.825095 472.035133 
L 268.876346 467.267501 
L 268.927597 469.642967 
L 269.081349 470.196237 
L 269.388854 470.341342 
L 270.465122 470.405133 
L 276.358969 470.398773 
L 286.404134 470.390214 
L 295.32178 470.314986 
L 295.834289 470.159779 
L 296.039292 469.910068 
L 296.141794 469.512524 
L 296.193044 468.99215 
L 296.244295 467.218059 
L 296.295546 484.24374 
L 296.346797 472.669904 
L 296.500549 471.078251 
L 296.756804 470.748171 
L 297.218061 470.6107 
L 298.550583 470.545991 
L 300.80562 470.638722 
L 301.574383 470.834371 
L 301.933139 471.133505 
L 302.138142 471.629906 
L 302.291895 472.908298 
L 302.343145 474.074725 
L 302.394396 478.218308 
L 302.445647 393.788066 
L 302.496898 463.454991 
L 302.65065 468.624301 
L 302.906905 469.55864 
L 303.265661 469.897981 
L 303.880671 470.087762 
L 305.520698 470.255763 
L 308.595748 470.356103 
L 312.183307 470.286037 
L 312.798317 470.1189 
L 313.00332 469.895463 
L 313.105822 469.594449 
L 313.208324 468.457612 
L 313.259575 463.692107 
L 313.310825 475.36282 
L 313.362076 472.25928 
L 313.56708 470.942347 
L 313.874585 470.672817 
L 314.489595 470.54824 
L 316.385876 470.483408 
L 319.358425 470.562432 
L 319.66593 470.743266 
L 319.768431 471.076019 
L 319.819682 471.889288 
L 319.870933 465.600213 
L 319.922184 469.540042 
L 320.075937 470.181717 
L 320.383442 470.334975 
L 321.357208 470.403459 
L 326.841048 470.410879 
L 343.702574 470.410075 
L 347.238882 470.292556 
L 347.751391 470.099658 
L 347.956394 469.808174 
L 348.058896 469.384685 
L 348.161398 467.269829 
L 348.212648 428.105526 
L 348.263899 474.325969 
L 348.366401 471.688689 
L 348.571404 470.995009 
L 348.878909 470.768971 
L 349.596421 470.652208 
L 350.928943 470.709886 
L 351.543953 470.913957 
L 351.800207 471.195472 
L 351.95396 471.600894 
L 352.056462 472.407202 
L 352.158963 475.909072 
L 352.210214 524.982781 
L 352.261465 463.767942 
L 352.363967 468.33347 
L 352.56897 469.576465 
L 352.876475 469.972265 
L 353.388983 470.166801 
L 354.414 470.277098 
L 358.155312 470.36157 
L 363.792904 470.329747 
L 364.664169 470.161685 
L 364.869172 469.9761 
L 364.971674 469.71726 
L 365.074175 468.816812 
L 365.125426 465.983867 
L 365.176677 476.206289 
L 365.227928 472.172206 
L 365.38168 470.996126 
L 365.637935 470.699263 
L 366.150443 470.564858 
L 367.636717 470.494307 
L 370.301761 470.56446 
L 370.609266 470.715762 
L 370.711768 470.927767 
L 370.763019 471.243919 
L 370.81427 472.750973 
L 370.86552 467.831545 
L 370.916771 469.618491 
L 371.070524 470.177559 
L 371.378029 470.332229 
L 372.300544 470.402113 
L 377.374377 470.417348 
L 399.412239 470.23204 
L 399.924747 469.995385 
L 400.181002 469.681074 
L 400.334754 469.212582 
L 400.488507 467.994552 
L 400.591008 465.427221 
L 400.642259 460.784203 
L 400.69351 403.479966 
L 400.744761 485.577768 
L 400.847263 475.647597 
L 401.103517 473.007082 
L 401.257269 472.903241 
L 401.359771 473.049928 
L 401.513524 474.154916 
L 401.616025 477.255739 
L 401.667276 482.249707 
L 401.718527 498.472649 
L 401.769778 426.514226 
L 401.821029 460.396491 
L 401.974781 467.871297 
L 402.179784 469.204502 
L 402.48729 469.791703 
L 402.948547 470.089526 
L 403.666059 470.245112 
L 405.254835 470.337357 
L 412.327451 470.393723 
L 416.120013 470.289377 
L 416.581271 470.118323 
L 416.735023 469.91573 
L 416.837525 469.517515 
L 416.888776 468.923611 
L 416.940027 466.277401 
L 416.991278 476.297483 
L 417.042529 472.139833 
L 417.196281 470.978702 
L 417.452535 470.697489 
L 417.965044 470.565713 
L 419.502569 470.503618 
L 421.347599 470.604661 
L 421.603853 470.794865 
L 421.706355 471.158865 
L 421.757606 471.980482 
L 421.808857 461.324969 
L 421.860108 469.313924 
L 422.01386 470.133001 
L 422.270114 470.30507 
L 422.987626 470.390605 
L 426.370182 470.422957 
L 450.868084 470.317664 
L 453.225623 470.235245 
L 456.09567 470.363913 
L 465.013316 470.397434 
L 468.037116 470.272893 
L 468.447122 470.062591 
L 468.600875 469.748019 
L 468.703377 468.861241 
L 468.754628 465.896777 
L 468.805878 475.709434 
L 468.857129 472.096339 
L 469.010882 470.985511 
L 469.267136 470.703402 
L 469.779644 470.577122 
L 471.214668 470.53056 
L 472.290936 470.644862 
L 472.495939 470.806057 
L 472.598441 471.087995 
L 472.649691 471.516383 
L 472.700942 473.800421 
L 472.752193 467.615104 
L 472.803444 469.459313 
L 473.008447 470.18033 
L 473.315952 470.322884 
L 474.238468 470.399402 
L 478.953545 470.423035 
L 519.954218 470.244871 
L 520.261723 470.065708 
L 520.415476 469.768906 
L 520.517977 469.049357 
L 520.569228 467.592817 
L 520.620479 554.830301 
L 520.67173 473.093872 
L 520.825482 471.127473 
L 521.081737 470.76608 
L 521.542994 470.626309 
L 522.619262 470.60264 
L 523.183021 470.735314 
L 523.388024 471.000751 
L 523.490526 471.599515 
L 523.541777 473.218099 
L 523.593028 463.676133 
L 523.644279 468.931529 
L 523.798031 470.016062 
L 524.054285 470.258474 
L 524.618045 470.367482 
L 526.668078 470.419754 
L 545.220883 470.41927 
L 571.102558 470.343818 
L 571.973822 470.174454 
L 572.230076 469.956946 
L 572.383829 469.577633 
L 572.486331 468.777181 
L 572.537581 467.310366 
L 572.588832 453.949089 
L 572.640083 476.091493 
L 572.691334 472.893795 
L 572.896337 471.268295 
L 573.152592 470.971167 
L 573.511347 470.901304 
L 573.818852 471.011781 
L 573.972605 471.215727 
L 574.075107 471.578074 
L 574.177608 472.84142 
L 574.228859 477.058454 
L 574.28011 463.042618 
L 574.331361 468.176967 
L 574.485113 469.772766 
L 574.741368 470.165126 
L 575.151374 470.315725 
L 576.278893 470.400156 
L 581.301475 470.42532 
L 623.583419 470.271458 
L 625.172196 470.110861 
L 626.145962 470.336072 
L 627.88849 470.412087 
L 636.498632 470.418411 
L 679.241833 470.416156 
L 679.241833 470.416156 
" clip-path="url(#p96d4bf906a)" style="fill: none; stroke: #0000ff; stroke-width: 1.5; stroke-linecap: square"/>
   </g>
   <g id="patch_3">
    <path d="M 141.215625 643.38 
L 141.215625 7.2 
" style="fill: none; stroke: #000000; stroke-width: 0.8; stroke-linejoin: miter; stroke-linecap: square"/>
   </g>
   <g id="patch_4">
    <path d="M 704.862129 643.38 
L 704.862129 7.2 
" style="fill: none; stroke: #000000; stroke-width: 0.8; stroke-linejoin: miter; stroke-linecap: square"/>
   </g>
   <g id="patch_5">
    <path d="M 141.215625 643.38 
L 704.862129 643.38 
" style="fill: none; stroke: #000000; stroke-width: 0.8; stroke-linejoin: miter; stroke-linecap: square"/>
   </g>
   <g id="patch_6">
    <path d="M 141.215625 7.2 
L 704.862129 7.2 
" style="fill: none; stroke: #000000; stroke-width: 0.8; stroke-linejoin: miter; stroke-linecap: square"/>
   </g>
  </g>
 </g>
 <defs>
  <clipPath id="p96d4bf906a">
   <rect x="141.215625" y="7.2" width="563.646504" height="636.18"/>
  </clipPath>
 </defs>
</svg>
