<?xml version="1.0" encoding="utf-8" standalone="no"?>
<!DOCTYPE svg PUBLIC "-//W3C//DTD SVG 1.1//EN"
  "http://www.w3.org/Graphics/SVG/1.1/DTD/svg11.dtd">
<svg xmlns:xlink="http://www.w3.org/1999/xlink" width="712.18333pt" height="711.13125pt" viewBox="0 0 712.18333 711.13125" xmlns="http://www.w3.org/2000/svg" version="1.1">
 <metadata>
  <rdf:RDF xmlns:dc="http://purl.org/dc/elements/1.1/" xmlns:cc="http://creativecommons.org/ns#" xmlns:rdf="http://www.w3.org/1999/02/22-rdf-syntax-ns#">
   <cc:Work>
    <dc:type rdf:resource="http://purl.org/dc/dcmitype/StillImage"/>
    <dc:date>2025-01-31T15:20:16.731642</dc:date>
    <dc:format>image/svg+xml</dc:format>
    <dc:creator>
     <cc:Agent>
      <dc:title>Matplotlib v3.9.3, https://matplotlib.org/</dc:title>
     </cc:Agent>
    </dc:creator>
   </cc:Work>
  </rdf:RDF>
 </metadata>
 <defs>
  <style type="text/css">*{stroke-linejoin: round; stroke-linecap: butt}</style>
 </defs>
 <g id="figure_1">
  <g id="patch_1">
   <path d="M 0 711.13125 
L 712.18333 711.13125 
L 712.18333 0 
L 0 0 
z
" style="fill: #ffffff"/>
  </g>
  <g id="axes_1">
   <g id="patch_2">
    <path d="M 135.365625 640.5 
L 704.98333 640.5 
L 704.98333 7.2 
L 135.365625 7.2 
z
" style="fill: #ffffff"/>
   </g>
   <g id="matplotlib.axis_1">
    <g id="xtick_1">
     <g id="line2d_1">
      <defs>
       <path id="m41736ea9f1" d="M 0 0 
L 0 -3.5 
" style="stroke: #000000; stroke-width: 0.8"/>
      </defs>
      <g>
       <use xlink:href="#m41736ea9f1" x="161.205545" y="640.5" style="stroke: #000000; stroke-width: 0.8"/>
      </g>
     </g>
     <g id="text_1">
      <!-- 0 -->
      <g transform="translate(152.864139 665.740625) scale(0.3 -0.3)">
       <defs>
        <path id="LiberationSans-30" d="M 3309 2203 
Q 3309 1100 2920 518 
Q 2531 -63 1772 -63 
Q 1013 -63 631 515 
Q 250 1094 250 2203 
Q 250 3338 620 3903 
Q 991 4469 1791 4469 
Q 2569 4469 2939 3897 
Q 3309 3325 3309 2203 
z
M 2738 2203 
Q 2738 3156 2517 3584 
Q 2297 4013 1791 4013 
Q 1272 4013 1045 3591 
Q 819 3169 819 2203 
Q 819 1266 1048 831 
Q 1278 397 1778 397 
Q 2275 397 2506 840 
Q 2738 1284 2738 2203 
z
" transform="scale(0.015625)"/>
       </defs>
       <use xlink:href="#LiberationSans-30"/>
      </g>
     </g>
    </g>
    <g id="xtick_2">
     <g id="line2d_2">
      <g>
       <use xlink:href="#m41736ea9f1" x="264.793118" y="640.5" style="stroke: #000000; stroke-width: 0.8"/>
      </g>
     </g>
     <g id="text_2">
      <!-- 2 -->
      <g transform="translate(256.451712 665.740625) scale(0.3 -0.3)">
       <defs>
        <path id="LiberationSans-32" d="M 322 0 
L 322 397 
Q 481 763 711 1042 
Q 941 1322 1194 1548 
Q 1447 1775 1695 1969 
Q 1944 2163 2144 2356 
Q 2344 2550 2467 2762 
Q 2591 2975 2591 3244 
Q 2591 3606 2378 3806 
Q 2166 4006 1788 4006 
Q 1428 4006 1195 3811 
Q 963 3616 922 3263 
L 347 3316 
Q 409 3844 795 4156 
Q 1181 4469 1788 4469 
Q 2453 4469 2811 4155 
Q 3169 3841 3169 3263 
Q 3169 3006 3051 2753 
Q 2934 2500 2703 2247 
Q 2472 1994 1819 1463 
Q 1459 1169 1246 933 
Q 1034 697 941 478 
L 3238 478 
L 3238 0 
L 322 0 
z
" transform="scale(0.015625)"/>
       </defs>
       <use xlink:href="#LiberationSans-32"/>
      </g>
     </g>
    </g>
    <g id="xtick_3">
     <g id="line2d_3">
      <g>
       <use xlink:href="#m41736ea9f1" x="368.380691" y="640.5" style="stroke: #000000; stroke-width: 0.8"/>
      </g>
     </g>
     <g id="text_3">
      <!-- 4 -->
      <g transform="translate(360.039285 665.740625) scale(0.3 -0.3)">
       <defs>
        <path id="LiberationSans-34" d="M 2753 997 
L 2753 0 
L 2222 0 
L 2222 997 
L 147 997 
L 147 1434 
L 2163 4403 
L 2753 4403 
L 2753 1441 
L 3372 1441 
L 3372 997 
L 2753 997 
z
M 2222 3769 
Q 2216 3750 2134 3603 
Q 2053 3456 2013 3397 
L 884 1734 
L 716 1503 
L 666 1441 
L 2222 1441 
L 2222 3769 
z
" transform="scale(0.015625)"/>
       </defs>
       <use xlink:href="#LiberationSans-34"/>
      </g>
     </g>
    </g>
    <g id="xtick_4">
     <g id="line2d_4">
      <g>
       <use xlink:href="#m41736ea9f1" x="471.968264" y="640.5" style="stroke: #000000; stroke-width: 0.8"/>
      </g>
     </g>
     <g id="text_4">
      <!-- 6 -->
      <g transform="translate(463.626858 665.740625) scale(0.3 -0.3)">
       <defs>
        <path id="LiberationSans-36" d="M 3278 1441 
Q 3278 744 2900 340 
Q 2522 -63 1856 -63 
Q 1113 -63 719 490 
Q 325 1044 325 2100 
Q 325 3244 734 3856 
Q 1144 4469 1900 4469 
Q 2897 4469 3156 3572 
L 2619 3475 
Q 2453 4013 1894 4013 
Q 1413 4013 1148 3564 
Q 884 3116 884 2266 
Q 1038 2550 1316 2698 
Q 1594 2847 1953 2847 
Q 2563 2847 2920 2465 
Q 3278 2084 3278 1441 
z
M 2706 1416 
Q 2706 1894 2472 2153 
Q 2238 2413 1819 2413 
Q 1425 2413 1183 2183 
Q 941 1953 941 1550 
Q 941 1041 1192 716 
Q 1444 391 1838 391 
Q 2244 391 2475 664 
Q 2706 938 2706 1416 
z
" transform="scale(0.015625)"/>
       </defs>
       <use xlink:href="#LiberationSans-36"/>
      </g>
     </g>
    </g>
    <g id="xtick_5">
     <g id="line2d_5">
      <g>
       <use xlink:href="#m41736ea9f1" x="575.555837" y="640.5" style="stroke: #000000; stroke-width: 0.8"/>
      </g>
     </g>
     <g id="text_5">
      <!-- 8 -->
      <g transform="translate(567.214431 665.740625) scale(0.3 -0.3)">
       <defs>
        <path id="LiberationSans-38" d="M 3281 1228 
Q 3281 619 2893 278 
Q 2506 -63 1781 -63 
Q 1075 -63 676 271 
Q 278 606 278 1222 
Q 278 1653 525 1947 
Q 772 2241 1156 2303 
L 1156 2316 
Q 797 2400 589 2681 
Q 381 2963 381 3341 
Q 381 3844 757 4156 
Q 1134 4469 1769 4469 
Q 2419 4469 2795 4162 
Q 3172 3856 3172 3334 
Q 3172 2956 2962 2675 
Q 2753 2394 2391 2322 
L 2391 2309 
Q 2813 2241 3047 1952 
Q 3281 1663 3281 1228 
z
M 2588 3303 
Q 2588 4050 1769 4050 
Q 1372 4050 1164 3862 
Q 956 3675 956 3303 
Q 956 2925 1170 2726 
Q 1384 2528 1775 2528 
Q 2172 2528 2380 2711 
Q 2588 2894 2588 3303 
z
M 2697 1281 
Q 2697 1691 2453 1898 
Q 2209 2106 1769 2106 
Q 1341 2106 1100 1882 
Q 859 1659 859 1269 
Q 859 359 1788 359 
Q 2247 359 2472 579 
Q 2697 800 2697 1281 
z
" transform="scale(0.015625)"/>
       </defs>
       <use xlink:href="#LiberationSans-38"/>
      </g>
     </g>
    </g>
    <g id="xtick_6">
     <g id="line2d_6">
      <g>
       <use xlink:href="#m41736ea9f1" x="679.14341" y="640.5" style="stroke: #000000; stroke-width: 0.8"/>
      </g>
     </g>
     <g id="text_6">
      <!-- 10 -->
      <g transform="translate(662.460597 665.740625) scale(0.3 -0.3)">
       <defs>
        <path id="LiberationSans-31" d="M 488 0 
L 488 478 
L 1609 478 
L 1609 3866 
L 616 3156 
L 616 3688 
L 1656 4403 
L 2175 4403 
L 2175 478 
L 3247 478 
L 3247 0 
L 488 0 
z
" transform="scale(0.015625)"/>
       </defs>
       <use xlink:href="#LiberationSans-31"/>
       <use xlink:href="#LiberationSans-30" x="55.615234"/>
      </g>
     </g>
    </g>
    <g id="xtick_7">
     <g id="line2d_7">
      <defs>
       <path id="m6d966f19c8" d="M 0 0 
L 0 -2 
" style="stroke: #000000; stroke-width: 0.6"/>
      </defs>
      <g>
       <use xlink:href="#m6d966f19c8" x="187.102438" y="640.5" style="stroke: #000000; stroke-width: 0.6"/>
      </g>
     </g>
    </g>
    <g id="xtick_8">
     <g id="line2d_8">
      <g>
       <use xlink:href="#m6d966f19c8" x="212.999332" y="640.5" style="stroke: #000000; stroke-width: 0.6"/>
      </g>
     </g>
    </g>
    <g id="xtick_9">
     <g id="line2d_9">
      <g>
       <use xlink:href="#m6d966f19c8" x="238.896225" y="640.5" style="stroke: #000000; stroke-width: 0.6"/>
      </g>
     </g>
    </g>
    <g id="xtick_10">
     <g id="line2d_10">
      <g>
       <use xlink:href="#m6d966f19c8" x="290.690011" y="640.5" style="stroke: #000000; stroke-width: 0.6"/>
      </g>
     </g>
    </g>
    <g id="xtick_11">
     <g id="line2d_11">
      <g>
       <use xlink:href="#m6d966f19c8" x="316.586905" y="640.5" style="stroke: #000000; stroke-width: 0.6"/>
      </g>
     </g>
    </g>
    <g id="xtick_12">
     <g id="line2d_12">
      <g>
       <use xlink:href="#m6d966f19c8" x="342.483798" y="640.5" style="stroke: #000000; stroke-width: 0.6"/>
      </g>
     </g>
    </g>
    <g id="xtick_13">
     <g id="line2d_13">
      <g>
       <use xlink:href="#m6d966f19c8" x="394.277584" y="640.5" style="stroke: #000000; stroke-width: 0.6"/>
      </g>
     </g>
    </g>
    <g id="xtick_14">
     <g id="line2d_14">
      <g>
       <use xlink:href="#m6d966f19c8" x="420.174478" y="640.5" style="stroke: #000000; stroke-width: 0.6"/>
      </g>
     </g>
    </g>
    <g id="xtick_15">
     <g id="line2d_15">
      <g>
       <use xlink:href="#m6d966f19c8" x="446.071371" y="640.5" style="stroke: #000000; stroke-width: 0.6"/>
      </g>
     </g>
    </g>
    <g id="xtick_16">
     <g id="line2d_16">
      <g>
       <use xlink:href="#m6d966f19c8" x="497.865157" y="640.5" style="stroke: #000000; stroke-width: 0.6"/>
      </g>
     </g>
    </g>
    <g id="xtick_17">
     <g id="line2d_17">
      <g>
       <use xlink:href="#m6d966f19c8" x="523.762051" y="640.5" style="stroke: #000000; stroke-width: 0.6"/>
      </g>
     </g>
    </g>
    <g id="xtick_18">
     <g id="line2d_18">
      <g>
       <use xlink:href="#m6d966f19c8" x="549.658944" y="640.5" style="stroke: #000000; stroke-width: 0.6"/>
      </g>
     </g>
    </g>
    <g id="xtick_19">
     <g id="line2d_19">
      <g>
       <use xlink:href="#m6d966f19c8" x="601.45273" y="640.5" style="stroke: #000000; stroke-width: 0.6"/>
      </g>
     </g>
    </g>
    <g id="xtick_20">
     <g id="line2d_20">
      <g>
       <use xlink:href="#m6d966f19c8" x="627.349624" y="640.5" style="stroke: #000000; stroke-width: 0.6"/>
      </g>
     </g>
    </g>
    <g id="xtick_21">
     <g id="line2d_21">
      <g>
       <use xlink:href="#m6d966f19c8" x="653.246517" y="640.5" style="stroke: #000000; stroke-width: 0.6"/>
      </g>
     </g>
    </g>
    <g id="text_7">
     <!-- Time ps -->
     <g transform="translate(367.397915 697.70625) scale(0.3 -0.3)">
      <defs>
       <path id="LiberationSans-54" d="M 2250 3916 
L 2250 0 
L 1656 0 
L 1656 3916 
L 144 3916 
L 144 4403 
L 3763 4403 
L 3763 3916 
L 2250 3916 
z
" transform="scale(0.015625)"/>
       <path id="LiberationSans-69" d="M 428 4100 
L 428 4638 
L 991 4638 
L 991 4100 
L 428 4100 
z
M 428 0 
L 428 3381 
L 991 3381 
L 991 0 
L 428 0 
z
" transform="scale(0.015625)"/>
       <path id="LiberationSans-6d" d="M 2400 0 
L 2400 2144 
Q 2400 2634 2265 2821 
Q 2131 3009 1781 3009 
Q 1422 3009 1212 2734 
Q 1003 2459 1003 1959 
L 1003 0 
L 444 0 
L 444 2659 
Q 444 3250 425 3381 
L 956 3381 
Q 959 3366 962 3297 
Q 966 3228 970 3139 
Q 975 3050 981 2803 
L 991 2803 
Q 1172 3163 1406 3303 
Q 1641 3444 1978 3444 
Q 2363 3444 2586 3291 
Q 2809 3138 2897 2803 
L 2906 2803 
Q 3081 3144 3329 3294 
Q 3578 3444 3931 3444 
Q 4444 3444 4676 3166 
Q 4909 2888 4909 2253 
L 4909 0 
L 4353 0 
L 4353 2144 
Q 4353 2634 4218 2821 
Q 4084 3009 3734 3009 
Q 3366 3009 3161 2736 
Q 2956 2463 2956 1959 
L 2956 0 
L 2400 0 
z
" transform="scale(0.015625)"/>
       <path id="LiberationSans-65" d="M 863 1572 
Q 863 991 1103 675 
Q 1344 359 1806 359 
Q 2172 359 2392 506 
Q 2613 653 2691 878 
L 3184 738 
Q 2881 -63 1806 -63 
Q 1056 -63 664 384 
Q 272 831 272 1713 
Q 272 2550 664 2997 
Q 1056 3444 1784 3444 
Q 3275 3444 3275 1647 
L 3275 1572 
L 863 1572 
z
M 2694 2003 
Q 2647 2538 2422 2783 
Q 2197 3028 1775 3028 
Q 1366 3028 1127 2754 
Q 888 2481 869 2003 
L 2694 2003 
z
" transform="scale(0.015625)"/>
       <path id="LiberationSans-20" transform="scale(0.015625)"/>
       <path id="LiberationSans-70" d="M 3291 1706 
Q 3291 -63 2047 -63 
Q 1266 -63 997 525 
L 981 525 
Q 994 500 994 -6 
L 994 -1328 
L 431 -1328 
L 431 2691 
Q 431 3213 413 3381 
L 956 3381 
Q 959 3369 965 3292 
Q 972 3216 980 3056 
Q 988 2897 988 2838 
L 1000 2838 
Q 1150 3150 1397 3295 
Q 1644 3441 2047 3441 
Q 2672 3441 2981 3022 
Q 3291 2603 3291 1706 
z
M 2700 1694 
Q 2700 2400 2509 2703 
Q 2319 3006 1903 3006 
Q 1569 3006 1380 2865 
Q 1191 2725 1092 2426 
Q 994 2128 994 1650 
Q 994 984 1206 668 
Q 1419 353 1897 353 
Q 2316 353 2508 661 
Q 2700 969 2700 1694 
z
" transform="scale(0.015625)"/>
       <path id="LiberationSans-73" d="M 2969 934 
Q 2969 456 2608 196 
Q 2247 -63 1597 -63 
Q 966 -63 623 145 
Q 281 353 178 794 
L 675 891 
Q 747 619 972 492 
Q 1197 366 1597 366 
Q 2025 366 2223 497 
Q 2422 628 2422 891 
Q 2422 1091 2284 1216 
Q 2147 1341 1841 1422 
L 1438 1528 
Q 953 1653 748 1773 
Q 544 1894 428 2066 
Q 313 2238 313 2488 
Q 313 2950 642 3192 
Q 972 3434 1603 3434 
Q 2163 3434 2492 3237 
Q 2822 3041 2909 2606 
L 2403 2544 
Q 2356 2769 2151 2889 
Q 1947 3009 1603 3009 
Q 1222 3009 1040 2893 
Q 859 2778 859 2544 
Q 859 2400 934 2306 
Q 1009 2213 1156 2147 
Q 1303 2081 1775 1966 
Q 2222 1853 2419 1758 
Q 2616 1663 2730 1547 
Q 2844 1431 2906 1279 
Q 2969 1128 2969 934 
z
" transform="scale(0.015625)"/>
      </defs>
      <use xlink:href="#LiberationSans-54"/>
      <use xlink:href="#LiberationSans-69" x="57.333984"/>
      <use xlink:href="#LiberationSans-6d" x="79.550781"/>
      <use xlink:href="#LiberationSans-65" x="162.851562"/>
      <use xlink:href="#LiberationSans-20" x="218.466797"/>
      <use xlink:href="#LiberationSans-70" x="246.25"/>
      <use xlink:href="#LiberationSans-73" x="301.865234"/>
     </g>
    </g>
   </g>
   <g id="matplotlib.axis_2">
    <g id="ytick_1">
     <g id="line2d_22">
      <defs>
       <path id="m7b59b0a60d" d="M 0 0 
L 3.5 0 
" style="stroke: #000000; stroke-width: 0.8"/>
      </defs>
      <g>
       <use xlink:href="#m7b59b0a60d" x="135.365625" y="638.906516" style="stroke: #000000; stroke-width: 0.8"/>
      </g>
     </g>
     <g id="text_8">
      <!-- $\mathdefault{−0.002}$ -->
      <g transform="translate(39.165625 649.776828) scale(0.3 -0.3)">
       <defs>
        <path id="LiberationSans-2212" d="M 316 1900 
L 316 2356 
L 3425 2356 
L 3425 1900 
L 316 1900 
z
" transform="scale(0.015625)"/>
        <path id="LiberationSans-2e" d="M 584 0 
L 584 684 
L 1194 684 
L 1194 0 
L 584 0 
z
" transform="scale(0.015625)"/>
       </defs>
       <use xlink:href="#LiberationSans-2212" transform="translate(0 0.171875)"/>
       <use xlink:href="#LiberationSans-30" transform="translate(58.398438 0.171875)"/>
       <use xlink:href="#LiberationSans-2e" transform="translate(114.013672 0.171875)"/>
       <use xlink:href="#LiberationSans-30" transform="translate(141.796875 0.171875)"/>
       <use xlink:href="#LiberationSans-30" transform="translate(197.412109 0.171875)"/>
       <use xlink:href="#LiberationSans-32" transform="translate(253.027344 0.171875)"/>
      </g>
     </g>
    </g>
    <g id="ytick_2">
     <g id="line2d_23">
      <g>
       <use xlink:href="#m7b59b0a60d" x="135.365625" y="508.820099" style="stroke: #000000; stroke-width: 0.8"/>
      </g>
     </g>
     <g id="text_9">
      <!-- $\mathdefault{0.000}$ -->
      <g transform="translate(56.565625 519.690411) scale(0.3 -0.3)">
       <use xlink:href="#LiberationSans-30" transform="translate(0 0.171875)"/>
       <use xlink:href="#LiberationSans-2e" transform="translate(55.615234 0.171875)"/>
       <use xlink:href="#LiberationSans-30" transform="translate(83.398438 0.171875)"/>
       <use xlink:href="#LiberationSans-30" transform="translate(139.013672 0.171875)"/>
       <use xlink:href="#LiberationSans-30" transform="translate(194.628906 0.171875)"/>
      </g>
     </g>
    </g>
    <g id="ytick_3">
     <g id="line2d_24">
      <g>
       <use xlink:href="#m7b59b0a60d" x="135.365625" y="378.733682" style="stroke: #000000; stroke-width: 0.8"/>
      </g>
     </g>
     <g id="text_10">
      <!-- $\mathdefault{0.002}$ -->
      <g transform="translate(56.565625 389.603995) scale(0.3 -0.3)">
       <use xlink:href="#LiberationSans-30" transform="translate(0 0.171875)"/>
       <use xlink:href="#LiberationSans-2e" transform="translate(55.615234 0.171875)"/>
       <use xlink:href="#LiberationSans-30" transform="translate(83.398438 0.171875)"/>
       <use xlink:href="#LiberationSans-30" transform="translate(139.013672 0.171875)"/>
       <use xlink:href="#LiberationSans-32" transform="translate(194.628906 0.171875)"/>
      </g>
     </g>
    </g>
    <g id="ytick_4">
     <g id="line2d_25">
      <g>
       <use xlink:href="#m7b59b0a60d" x="135.365625" y="248.647265" style="stroke: #000000; stroke-width: 0.8"/>
      </g>
     </g>
     <g id="text_11">
      <!-- $\mathdefault{0.004}$ -->
      <g transform="translate(56.565625 259.517578) scale(0.3 -0.3)">
       <use xlink:href="#LiberationSans-30" transform="translate(0 0.171875)"/>
       <use xlink:href="#LiberationSans-2e" transform="translate(55.615234 0.171875)"/>
       <use xlink:href="#LiberationSans-30" transform="translate(83.398438 0.171875)"/>
       <use xlink:href="#LiberationSans-30" transform="translate(139.013672 0.171875)"/>
       <use xlink:href="#LiberationSans-34" transform="translate(194.628906 0.171875)"/>
      </g>
     </g>
    </g>
    <g id="ytick_5">
     <g id="line2d_26">
      <g>
       <use xlink:href="#m7b59b0a60d" x="135.365625" y="118.560849" style="stroke: #000000; stroke-width: 0.8"/>
      </g>
     </g>
     <g id="text_12">
      <!-- $\mathdefault{0.006}$ -->
      <g transform="translate(56.565625 129.431161) scale(0.3 -0.3)">
       <use xlink:href="#LiberationSans-30" transform="translate(0 0.171875)"/>
       <use xlink:href="#LiberationSans-2e" transform="translate(55.615234 0.171875)"/>
       <use xlink:href="#LiberationSans-30" transform="translate(83.398438 0.171875)"/>
       <use xlink:href="#LiberationSans-30" transform="translate(139.013672 0.171875)"/>
       <use xlink:href="#LiberationSans-36" transform="translate(194.628906 0.171875)"/>
      </g>
     </g>
    </g>
    <g id="ytick_6">
     <g id="line2d_27">
      <defs>
       <path id="m60bf6252f5" d="M 0 0 
L 2 0 
" style="stroke: #000000; stroke-width: 0.6"/>
      </defs>
      <g>
       <use xlink:href="#m60bf6252f5" x="135.365625" y="606.384911" style="stroke: #000000; stroke-width: 0.6"/>
      </g>
     </g>
    </g>
    <g id="ytick_7">
     <g id="line2d_28">
      <g>
       <use xlink:href="#m60bf6252f5" x="135.365625" y="573.863307" style="stroke: #000000; stroke-width: 0.6"/>
      </g>
     </g>
    </g>
    <g id="ytick_8">
     <g id="line2d_29">
      <g>
       <use xlink:href="#m60bf6252f5" x="135.365625" y="541.341703" style="stroke: #000000; stroke-width: 0.6"/>
      </g>
     </g>
    </g>
    <g id="ytick_9">
     <g id="line2d_30">
      <g>
       <use xlink:href="#m60bf6252f5" x="135.365625" y="476.298495" style="stroke: #000000; stroke-width: 0.6"/>
      </g>
     </g>
    </g>
    <g id="ytick_10">
     <g id="line2d_31">
      <g>
       <use xlink:href="#m60bf6252f5" x="135.365625" y="443.776891" style="stroke: #000000; stroke-width: 0.6"/>
      </g>
     </g>
    </g>
    <g id="ytick_11">
     <g id="line2d_32">
      <g>
       <use xlink:href="#m60bf6252f5" x="135.365625" y="411.255286" style="stroke: #000000; stroke-width: 0.6"/>
      </g>
     </g>
    </g>
    <g id="ytick_12">
     <g id="line2d_33">
      <g>
       <use xlink:href="#m60bf6252f5" x="135.365625" y="346.212078" style="stroke: #000000; stroke-width: 0.6"/>
      </g>
     </g>
    </g>
    <g id="ytick_13">
     <g id="line2d_34">
      <g>
       <use xlink:href="#m60bf6252f5" x="135.365625" y="313.690474" style="stroke: #000000; stroke-width: 0.6"/>
      </g>
     </g>
    </g>
    <g id="ytick_14">
     <g id="line2d_35">
      <g>
       <use xlink:href="#m60bf6252f5" x="135.365625" y="281.16887" style="stroke: #000000; stroke-width: 0.6"/>
      </g>
     </g>
    </g>
    <g id="ytick_15">
     <g id="line2d_36">
      <g>
       <use xlink:href="#m60bf6252f5" x="135.365625" y="216.125661" style="stroke: #000000; stroke-width: 0.6"/>
      </g>
     </g>
    </g>
    <g id="ytick_16">
     <g id="line2d_37">
      <g>
       <use xlink:href="#m60bf6252f5" x="135.365625" y="183.604057" style="stroke: #000000; stroke-width: 0.6"/>
      </g>
     </g>
    </g>
    <g id="ytick_17">
     <g id="line2d_38">
      <g>
       <use xlink:href="#m60bf6252f5" x="135.365625" y="151.082453" style="stroke: #000000; stroke-width: 0.6"/>
      </g>
     </g>
    </g>
    <g id="ytick_18">
     <g id="line2d_39">
      <g>
       <use xlink:href="#m60bf6252f5" x="135.365625" y="86.039245" style="stroke: #000000; stroke-width: 0.6"/>
      </g>
     </g>
    </g>
    <g id="ytick_19">
     <g id="line2d_40">
      <g>
       <use xlink:href="#m60bf6252f5" x="135.365625" y="53.51764" style="stroke: #000000; stroke-width: 0.6"/>
      </g>
     </g>
    </g>
    <g id="ytick_20">
     <g id="line2d_41">
      <g>
       <use xlink:href="#m60bf6252f5" x="135.365625" y="20.996036" style="stroke: #000000; stroke-width: 0.6"/>
      </g>
     </g>
    </g>
    <g id="text_13">
     <!-- ITR K · m$^2$/W -->
     <g transform="translate(28.940625 412.5) rotate(-90) scale(0.3 -0.3)">
      <defs>
       <path id="LiberationSans-49" d="M 591 0 
L 591 4403 
L 1188 4403 
L 1188 0 
L 591 0 
z
" transform="scale(0.015625)"/>
       <path id="LiberationSans-52" d="M 3638 0 
L 2494 1828 
L 1122 1828 
L 1122 0 
L 525 0 
L 525 4403 
L 2597 4403 
Q 3341 4403 3745 4070 
Q 4150 3738 4150 3144 
Q 4150 2653 3864 2318 
Q 3578 1984 3075 1897 
L 4325 0 
L 3638 0 
z
M 3550 3138 
Q 3550 3522 3289 3723 
Q 3028 3925 2538 3925 
L 1122 3925 
L 1122 2300 
L 2563 2300 
Q 3034 2300 3292 2520 
Q 3550 2741 3550 3138 
z
" transform="scale(0.015625)"/>
       <path id="LiberationSans-4b" d="M 3456 0 
L 1697 2125 
L 1122 1688 
L 1122 0 
L 525 0 
L 525 4403 
L 1122 4403 
L 1122 2197 
L 3244 4403 
L 3947 4403 
L 2072 2491 
L 4197 0 
L 3456 0 
z
" transform="scale(0.015625)"/>
       <path id="LiberationSans-b7" d="M 760 1394 
L 760 2081 
L 1370 2081 
L 1370 1394 
L 760 1394 
z
" transform="scale(0.015625)"/>
       <path id="STIXGeneral-Regular-32" d="M 3034 877 
L 2688 0 
L 186 0 
L 186 77 
L 1325 1286 
Q 1773 1754 1965 2144 
Q 2157 2534 2157 2950 
Q 2157 3379 1920 3616 
Q 1683 3853 1267 3853 
Q 922 3853 720 3673 
Q 518 3494 326 3021 
L 192 3053 
Q 301 3648 630 3987 
Q 960 4326 1523 4326 
Q 2054 4326 2380 4006 
Q 2707 3686 2707 3200 
Q 2707 2477 1888 1613 
L 832 486 
L 2330 486 
Q 2541 486 2665 569 
Q 2790 653 2944 915 
L 3034 877 
z
" transform="scale(0.015625)"/>
       <path id="LiberationSans-2f" d="M 0 -63 
L 1284 4638 
L 1778 4638 
L 506 -63 
L 0 -63 
z
" transform="scale(0.015625)"/>
       <path id="LiberationSans-57" d="M 4722 0 
L 4009 0 
L 3247 2797 
Q 3172 3059 3028 3738 
Q 2947 3375 2890 3131 
Q 2834 2888 2038 0 
L 1325 0 
L 28 4403 
L 650 4403 
L 1441 1606 
Q 1581 1081 1700 525 
Q 1775 869 1873 1275 
Q 1972 1681 2741 4403 
L 3313 4403 
L 4078 1663 
Q 4253 991 4353 525 
L 4381 634 
Q 4466 994 4519 1220 
Q 4572 1447 5397 4403 
L 6019 4403 
L 4722 0 
z
" transform="scale(0.015625)"/>
      </defs>
      <use xlink:href="#LiberationSans-49" transform="translate(0 0.409375)"/>
      <use xlink:href="#LiberationSans-54" transform="translate(27.783203 0.409375)"/>
      <use xlink:href="#LiberationSans-52" transform="translate(88.867188 0.409375)"/>
      <use xlink:href="#LiberationSans-20" transform="translate(161.083984 0.409375)"/>
      <use xlink:href="#LiberationSans-4b" transform="translate(188.867188 0.409375)"/>
      <use xlink:href="#LiberationSans-20" transform="translate(255.566406 0.409375)"/>
      <use xlink:href="#LiberationSans-b7" transform="translate(283.349609 0.409375)"/>
      <use xlink:href="#LiberationSans-20" transform="translate(316.650391 0.409375)"/>
      <use xlink:href="#LiberationSans-6d" transform="translate(344.433594 0.409375)"/>
      <use xlink:href="#STIXGeneral-Regular-32" transform="translate(429.277656 35.684375) scale(0.7)"/>
      <use xlink:href="#LiberationSans-2f" transform="translate(468.687021 0.409375)"/>
      <use xlink:href="#LiberationSans-57" transform="translate(496.470224 0.409375)"/>
     </g>
    </g>
   </g>
   <g id="line2d_42">
    <path d="M 161.257339 508.820099 
L 161.309133 508.743311 
L 161.360926 508.779149 
L 161.930658 508.813213 
L 168.715644 508.76566 
L 169.33717 508.597341 
L 169.647932 508.551984 
L 170.528427 508.76413 
L 172.651972 508.807502 
L 183.114317 508.736506 
L 183.269698 508.62608 
L 183.321492 508.475958 
L 183.373286 507.254619 
L 183.425079 509.443637 
L 183.476873 509.076792 
L 183.684048 508.897363 
L 184.460955 508.842335 
L 187.931139 508.886094 
L 188.138314 509.00473 
L 188.190108 509.163068 
L 188.241902 511.130719 
L 188.293695 508.339938 
L 188.397283 508.67923 
L 188.708046 508.774553 
L 190.313653 508.808179 
L 196.166351 508.720672 
L 196.42532 508.533326 
L 196.477114 508.377077 
L 196.528907 507.830024 
L 196.580701 512.503712 
L 196.632495 509.459623 
L 196.787876 509.006704 
L 197.150433 508.891285 
L 198.600659 508.843021 
L 205.074882 508.894147 
L 205.748201 509.072069 
L 206.00717 509.370302 
L 206.317933 510.422817 
L 206.421521 510.805044 
L 206.473314 510.638944 
L 206.991252 509.110067 
L 207.353809 508.948069 
L 208.286097 508.859326 
L 211.859868 508.847996 
L 212.533187 508.962654 
L 212.584981 509.0428 
L 212.636775 509.338614 
L 212.688569 507.257776 
L 212.740363 508.50932 
L 212.895744 508.729019 
L 213.413682 508.793631 
L 217.298216 508.80719 
L 226.776479 508.67124 
L 226.93186 508.464843 
L 226.983654 508.162165 
L 227.035448 504.851012 
L 227.087241 509.809565 
L 227.190829 509.102836 
L 227.449798 508.922996 
L 228.226705 508.858332 
L 231.85227 508.874876 
L 232.836352 509.029098 
L 233.095321 509.23807 
L 233.250702 509.635743 
L 233.35429 510.481854 
L 233.406083 511.780473 
L 233.457877 519.702435 
L 233.509671 496.386948 
L 233.561465 504.630241 
L 233.716846 507.252967 
L 233.872228 507.498899 
L 234.027609 507.41704 
L 234.131196 507.120456 
L 234.234784 505.847623 
L 234.286578 503.455272 
L 234.338372 611.713636 
L 234.390165 513.450628 
L 234.545547 509.897685 
L 234.804516 509.240683 
L 235.167072 509.027758 
L 235.943979 508.926509 
L 237.290617 508.961886 
L 237.653174 509.151866 
L 237.756762 509.477111 
L 237.808555 510.122534 
L 237.860349 436.732343 
L 237.912143 507.590644 
L 238.067524 508.527646 
L 238.326493 508.698378 
L 239.051606 508.776873 
L 242.573584 508.799186 
L 252.310816 508.679461 
L 252.466197 508.550988 
L 252.569784 508.176117 
L 252.621578 506.806478 
L 252.673372 510.660556 
L 252.725166 509.463349 
L 252.932341 509.006178 
L 253.346691 508.902333 
L 255.004092 508.867275 
L 256.713287 508.992924 
L 257.02405 509.190408 
L 257.179431 509.500224 
L 257.283019 510.287509 
L 257.334813 512.004629 
L 257.386607 356.056664 
L 257.4384 505.54398 
L 257.593782 507.955633 
L 257.852751 508.294666 
L 258.059926 508.302177 
L 258.318895 508.092313 
L 258.422482 507.747361 
L 258.474276 507.238115 
L 258.52607 504.718373 
L 258.577864 514.384469 
L 258.629657 510.469723 
L 258.836833 509.199907 
L 259.095802 508.99024 
L 259.665533 508.884201 
L 261.633697 508.838002 
L 264.223386 508.935539 
L 264.326974 509.087466 
L 264.378768 509.634021 
L 264.430562 508.062294 
L 264.482355 508.561949 
L 264.68953 508.749879 
L 265.466437 508.801513 
L 272.458598 508.798444 
L 278.570265 508.72043 
L 278.829234 508.545631 
L 278.932822 507.950169 
L 278.984616 519.376648 
L 279.036409 509.577084 
L 279.191791 509.020382 
L 279.502553 508.903438 
L 280.693811 508.851555 
L 283.956819 508.926994 
L 284.371169 509.085355 
L 284.526551 509.318675 
L 284.630138 509.89709 
L 284.681932 511.257642 
L 284.733726 496.357908 
L 284.78552 506.879541 
L 284.940901 508.244465 
L 285.19987 508.512211 
L 285.666014 508.577506 
L 286.235746 508.448765 
L 286.442921 508.19083 
L 286.546508 507.759625 
L 286.598302 507.195565 
L 286.650096 505.049678 
L 286.70189 518.761832 
L 286.753684 511.013202 
L 286.909065 509.460348 
L 287.168034 509.116931 
L 287.634178 508.981956 
L 288.721847 508.965519 
L 289.136198 509.099306 
L 289.291579 509.344109 
L 289.395167 510.348524 
L 289.44696 465.427662 
L 289.498754 507.535693 
L 289.654136 508.499714 
L 289.913105 508.687341 
L 290.586424 508.772745 
L 293.642257 508.802179 
L 304.20819 508.678222 
L 304.415365 508.448789 
L 304.467159 508.213109 
L 304.518952 507.234773 
L 304.570746 511.694554 
L 304.62254 509.585929 
L 304.777921 509.061523 
L 305.088684 508.928051 
L 306.12456 508.872806 
L 308.092724 508.954821 
L 308.45528 509.137627 
L 308.610661 509.479837 
L 308.662455 509.8786 
L 308.714249 511.342121 
L 308.766043 501.396887 
L 308.817837 507.24336 
L 308.973218 508.303396 
L 309.232187 508.558834 
L 309.750125 508.645543 
L 310.37165 508.549573 
L 310.578825 508.279185 
L 310.682413 507.357735 
L 310.734207 493.875098 
L 310.786 510.577934 
L 310.889588 509.330059 
L 311.096763 509.014687 
L 311.511113 508.898155 
L 312.857752 508.843191 
L 315.913585 508.914184 
L 316.068967 509.115132 
L 316.12076 509.921318 
L 316.172554 508.201052 
L 316.224348 508.580638 
L 316.431523 508.75133 
L 317.20843 508.801762 
L 324.355973 508.80039 
L 330.467639 508.717643 
L 330.726608 508.528312 
L 330.778402 508.361275 
L 330.830196 507.768762 
L 330.88199 512.522178 
L 330.933783 509.483722 
L 331.089165 509.0161 
L 331.399927 508.903725 
L 332.591185 508.853181 
L 335.54343 508.934367 
L 335.905987 509.116376 
L 336.009574 509.338549 
L 336.061368 509.620567 
L 336.113162 510.530568 
L 336.164956 494.442349 
L 336.21675 507.395518 
L 336.372131 508.406916 
L 336.6311 508.613548 
L 337.200832 508.691962 
L 338.288501 508.622694 
L 338.651058 508.413718 
L 338.806439 508.072349 
L 338.910027 507.037355 
L 338.96182 503.809101 
L 339.013614 514.91786 
L 339.065408 510.770685 
L 339.220789 509.473894 
L 339.479758 509.14555 
L 339.997696 509.02443 
L 340.567428 509.087073 
L 340.774603 509.23965 
L 340.87819 509.511571 
L 340.929984 509.899977 
L 340.981778 511.288506 
L 341.033572 500.433611 
L 341.085366 507.350526 
L 341.240747 508.427689 
L 341.499716 508.663042 
L 342.069448 508.760855 
L 344.348374 508.802457 
L 356.05377 508.721408 
L 356.364533 508.558622 
L 356.46812 508.293753 
L 356.519914 507.761418 
L 356.571708 35.986364 
L 356.623502 509.911553 
L 356.778883 509.099785 
L 357.089646 508.944294 
L 358.021934 508.884568 
L 359.679335 508.969696 
L 359.990098 509.145631 
L 360.093685 509.351068 
L 360.197273 510.359261 
L 360.249067 526.962103 
L 360.30086 506.752603 
L 360.404448 508.180237 
L 360.611623 508.549957 
L 361.025973 508.675583 
L 362.010055 508.697534 
L 362.527993 508.552499 
L 362.683375 508.268457 
L 362.735168 507.894088 
L 362.786962 505.910578 
L 362.838756 511.236869 
L 362.89055 509.641378 
L 363.045931 509.081314 
L 363.356694 508.923534 
L 364.288982 508.852929 
L 367.500197 508.886153 
L 367.707372 508.979139 
L 367.759166 509.07015 
L 367.810959 509.435317 
L 367.862753 507.533389 
L 367.914547 508.507425 
L 368.121722 508.744244 
L 368.795041 508.798989 
L 374.336976 508.801867 
L 382.572189 508.660113 
L 382.72757 508.434523 
L 382.779364 508.098033 
L 382.831157 503.825326 
L 382.882951 509.8427 
L 382.986539 509.123418 
L 383.245508 508.932413 
L 384.022415 508.865027 
L 386.922867 508.899481 
L 387.492598 509.066578 
L 387.64798 509.360489 
L 387.699773 509.686385 
L 387.751567 511.074584 
L 387.803361 504.764294 
L 387.855155 507.713246 
L 388.010536 508.462043 
L 388.269505 508.637757 
L 388.942824 508.715484 
L 390.289463 508.645544 
L 390.703813 508.4707 
L 390.910988 508.186373 
L 391.014576 507.773789 
L 391.118163 506.163797 
L 391.169957 497.049391 
L 391.221751 514.036445 
L 391.273545 511.206797 
L 391.48072 509.623078 
L 391.739689 509.367089 
L 391.998658 509.387564 
L 392.154039 509.566532 
L 392.257627 509.914448 
L 392.30942 510.328623 
L 392.361214 511.709649 
L 392.413008 546.393386 
L 392.464802 505.620159 
L 392.568389 507.950473 
L 392.775564 508.512877 
L 393.138121 508.693374 
L 394.018615 508.778861 
L 397.954943 508.802691 
L 408.106525 508.677758 
L 408.3137 508.510277 
L 408.417288 508.107727 
L 408.469082 506.876177 
L 408.520876 511.597526 
L 408.572669 509.655485 
L 408.728051 509.106862 
L 409.038813 508.955402 
L 409.971102 508.89855 
L 411.214152 508.996238 
L 411.473121 509.162493 
L 411.576709 509.406751 
L 411.628503 509.74865 
L 411.680297 511.00574 
L 411.73209 502.103506 
L 411.783884 507.482655 
L 411.939265 508.429533 
L 412.198234 508.634556 
L 412.767966 508.722835 
L 414.166398 508.696456 
L 414.528955 508.521302 
L 414.632542 508.242862 
L 414.684336 507.668185 
L 414.73613 534.665466 
L 414.787924 509.841422 
L 414.943305 509.079134 
L 415.254068 508.916518 
L 416.186356 508.851013 
L 419.293983 508.89295 
L 419.501158 509.039778 
L 419.552952 509.278923 
L 419.604746 505.245678 
L 419.65654 508.459003 
L 419.811921 508.724115 
L 420.278065 508.791697 
L 423.644661 508.810949 
L 434.469563 508.689431 
L 434.624944 508.569522 
L 434.728532 508.202979 
L 434.780325 506.632555 
L 434.832119 510.242109 
L 434.883913 509.361064 
L 435.091088 508.980111 
L 435.557232 508.887367 
L 437.525396 508.863563 
L 438.872034 508.993648 
L 439.07921 509.209836 
L 439.182797 509.887912 
L 439.234591 515.749309 
L 439.286385 507.199875 
L 439.389972 508.356737 
L 439.597147 508.622307 
L 440.063292 508.724642 
L 441.617105 508.747103 
L 443.015537 508.600749 
L 443.947826 508.470949 
L 444.880114 508.727351 
L 446.382134 508.794776 
L 456.067572 508.809162 
L 460.055693 508.698568 
L 460.314662 508.543357 
L 460.41825 508.304684 
L 460.470043 507.960461 
L 460.521837 506.370055 
L 460.573631 512.003409 
L 460.625425 509.804362 
L 460.780806 509.153647 
L 461.039775 508.995358 
L 461.764888 508.925829 
L 462.800764 509.018521 
L 463.059733 509.21559 
L 463.16332 509.505298 
L 463.215114 509.92561 
L 463.266908 511.630644 
L 463.318702 504.223305 
L 463.370495 507.608371 
L 463.525877 508.440243 
L 463.784846 508.641748 
L 464.406371 508.733526 
L 466.063772 508.719326 
L 466.478123 508.584581 
L 466.58171 508.418287 
L 466.633504 508.190196 
L 466.685298 507.341109 
L 466.737092 512.742174 
L 466.788885 509.652937 
L 466.944267 509.050464 
L 467.255029 508.91051 
L 468.290905 508.849588 
L 471.035976 508.913616 
L 471.191357 509.063709 
L 471.243151 509.363971 
L 471.294945 506.495569 
L 471.346739 508.457356 
L 471.50212 508.720777 
L 471.968264 508.78993 
L 474.609747 508.811535 
L 486.41873 508.710255 
L 486.625906 508.591168 
L 486.729493 508.337255 
L 486.781287 507.748127 
L 486.833081 514.098122 
L 486.884875 509.620809 
L 487.040256 509.048207 
L 487.351019 508.919572 
L 488.438688 508.866866 
L 490.406852 508.95459 
L 490.665821 509.101379 
L 490.769409 509.323074 
L 490.821202 509.619644 
L 490.872996 510.83478 
L 490.92479 505.311701 
L 490.976584 507.884061 
L 491.131965 508.516909 
L 491.390934 508.674097 
L 492.167841 508.751773 
L 494.498561 508.712843 
L 496.104169 508.713726 
L 498.124126 508.797629 
L 509.622347 508.804314 
L 512.108449 508.689923 
L 512.419211 508.498038 
L 512.522799 508.257047 
L 512.574593 507.947156 
L 512.626386 506.912063 
L 512.67818 533.00138 
L 512.729974 510.558306 
L 512.885355 509.330219 
L 513.144324 509.083611 
L 513.662262 509.011645 
L 514.231994 509.118787 
L 514.439169 509.323404 
L 514.542757 509.662514 
L 514.59455 510.166685 
L 514.646344 512.934672 
L 514.698138 505.271661 
L 514.749932 507.554008 
L 514.957107 508.463817 
L 515.26787 508.660406 
L 516.044776 508.75031 
L 518.064734 508.720759 
L 518.427291 508.570016 
L 518.530878 508.336428 
L 518.582672 507.892133 
L 518.634466 489.51225 
L 518.686259 509.775629 
L 518.841641 509.046407 
L 519.152404 508.906047 
L 520.188279 508.84894 
L 522.777969 508.911853 
L 522.93335 509.047687 
L 522.985144 509.298727 
L 523.036938 504.380389 
L 523.088731 508.426901 
L 523.244113 508.718823 
L 523.710257 508.790075 
L 526.76609 508.811792 
L 538.264311 508.707527 
L 538.471486 508.584434 
L 538.575073 508.320133 
L 538.626867 507.706423 
L 538.678661 516.060771 
L 538.730455 509.684003 
L 538.885836 509.061745 
L 539.196599 508.925754 
L 540.232475 508.87282 
L 541.94167 508.97101 
L 542.200639 509.17299 
L 542.304226 509.666499 
L 542.35602 511.522788 
L 542.407814 506.503699 
L 542.459607 508.022746 
L 542.614989 508.547449 
L 542.925752 508.700989 
L 543.806246 508.766777 
L 546.758492 508.721311 
L 548.364099 508.756679 
L 551.575314 508.806052 
L 563.902235 508.714482 
L 564.316585 508.52332 
L 564.471967 508.150881 
L 564.575554 506.525148 
L 564.627348 534.356613 
L 564.679142 510.86726 
L 564.834523 509.40525 
L 565.093492 509.135356 
L 565.507842 509.082056 
L 565.922193 509.226549 
L 566.077574 509.465828 
L 566.181162 510.019267 
L 566.232955 511.060252 
L 566.284749 534.216423 
L 566.336543 506.308814 
L 566.440131 508.10137 
L 566.647306 508.534119 
L 567.009862 508.689474 
L 567.94215 508.764333 
L 570.169283 508.720379 
L 570.480046 508.585588 
L 570.583634 508.337455 
L 570.635427 507.809738 
L 570.687221 515.7932 
L 570.739015 509.585906 
L 570.894396 509.026866 
L 571.205159 508.902937 
L 572.344622 508.848958 
L 574.519961 508.933106 
L 574.623549 509.028319 
L 574.675343 509.193245 
L 574.727136 510.98565 
L 574.77893 508.264908 
L 574.830724 508.574683 
L 575.037899 508.746382 
L 575.763012 508.800416 
L 581.926473 508.804659 
L 590.265272 508.697117 
L 590.472448 508.548376 
L 590.576035 508.18692 
L 590.627829 507.036439 
L 590.679623 511.29915 
L 590.731416 509.545284 
L 590.886798 509.057965 
L 591.197561 508.932251 
L 592.233436 508.881664 
L 593.631868 508.988185 
L 593.839044 509.148155 
L 593.942631 509.484685 
L 593.994425 510.189559 
L 594.046219 494.96105 
L 594.098013 507.715983 
L 594.253394 508.519251 
L 594.512363 508.683682 
L 595.237476 508.762654 
L 598.189722 508.756763 
L 601.245555 508.794571 
L 611.034581 508.81052 
L 616.058578 508.703938 
L 616.576516 508.512228 
L 616.835485 508.191269 
L 617.249835 507.046795 
L 617.301629 507.102906 
L 617.612392 508.099346 
L 617.974948 508.517605 
L 618.492886 508.694 
L 619.684143 508.771887 
L 622.170245 508.711421 
L 622.429214 508.567314 
L 622.532801 508.231131 
L 622.584595 506.994188 
L 622.636389 510.471048 
L 622.688183 509.384649 
L 622.843564 509.007026 
L 623.206121 508.893528 
L 624.552759 508.849114 
L 626.21016 508.939431 
L 626.313748 509.040541 
L 626.365542 509.214496 
L 626.417335 510.787914 
L 626.469129 508.196691 
L 626.520923 508.557655 
L 626.728098 508.742604 
L 627.453211 508.799874 
L 633.46129 508.805696 
L 642.266234 508.683913 
L 642.473409 508.512784 
L 642.576997 508.050239 
L 642.628791 506.080153 
L 642.680584 510.602377 
L 642.732378 509.52425 
L 642.939553 509.037529 
L 643.353904 508.925677 
L 644.596954 508.908537 
L 645.322067 509.043443 
L 645.477449 509.23772 
L 645.581036 509.810415 
L 645.63283 512.14003 
L 645.684624 506.616285 
L 645.736418 507.98941 
L 645.943593 508.589935 
L 646.306149 508.718494 
L 647.445613 508.777846 
L 657.597195 508.805806 
L 668.318509 508.682653 
L 669.354384 508.631715 
L 671.063579 508.772808 
L 674.015825 508.732553 
L 674.326588 508.606665 
L 674.430175 508.387536 
L 674.481969 507.920317 
L 674.533763 516.347728 
L 674.585557 509.551341 
L 674.740938 509.020725 
L 675.051701 508.90159 
L 676.191164 508.851782 
L 677.952153 508.938525 
L 678.05574 509.034622 
L 678.107534 509.191422 
L 678.159328 510.295681 
L 678.211122 508.087349 
L 678.262916 508.533769 
L 678.470091 508.740367 
L 679.091616 508.796789 
L 679.091616 508.796789 
" clip-path="url(#p4a29bec7fe)" style="fill: none; stroke: #0000ff; stroke-width: 1.5; stroke-linecap: square"/>
   </g>
   <g id="patch_3">
    <path d="M 135.365625 640.5 
L 135.365625 7.2 
" style="fill: none; stroke: #000000; stroke-width: 0.8; stroke-linejoin: miter; stroke-linecap: square"/>
   </g>
   <g id="patch_4">
    <path d="M 704.98333 640.5 
L 704.98333 7.2 
" style="fill: none; stroke: #000000; stroke-width: 0.8; stroke-linejoin: miter; stroke-linecap: square"/>
   </g>
   <g id="patch_5">
    <path d="M 135.365625 640.5 
L 704.98333 640.5 
" style="fill: none; stroke: #000000; stroke-width: 0.8; stroke-linejoin: miter; stroke-linecap: square"/>
   </g>
   <g id="patch_6">
    <path d="M 135.365625 7.2 
L 704.98333 7.2 
" style="fill: none; stroke: #000000; stroke-width: 0.8; stroke-linejoin: miter; stroke-linecap: square"/>
   </g>
  </g>
 </g>
 <defs>
  <clipPath id="p4a29bec7fe">
   <rect x="135.365625" y="7.2" width="569.617705" height="633.3"/>
  </clipPath>
 </defs>
</svg>
