<?xml version="1.0" encoding="utf-8" standalone="no"?>
<!DOCTYPE svg PUBLIC "-//W3C//DTD SVG 1.1//EN"
  "http://www.w3.org/Graphics/SVG/1.1/DTD/svg11.dtd">
<svg xmlns:xlink="http://www.w3.org/1999/xlink" width="711.691113pt" height="711.02175pt" viewBox="0 0 711.691113 711.02175" xmlns="http://www.w3.org/2000/svg" version="1.1">
 <metadata>
  <rdf:RDF xmlns:dc="http://purl.org/dc/elements/1.1/" xmlns:cc="http://creativecommons.org/ns#" xmlns:rdf="http://www.w3.org/1999/02/22-rdf-syntax-ns#">
   <cc:Work>
    <dc:type rdf:resource="http://purl.org/dc/dcmitype/StillImage"/>
    <dc:date>2025-01-30T19:15:30.094070</dc:date>
    <dc:format>image/svg+xml</dc:format>
    <dc:creator>
     <cc:Agent>
      <dc:title>Matplotlib v3.9.3, https://matplotlib.org/</dc:title>
     </cc:Agent>
    </dc:creator>
   </cc:Work>
  </rdf:RDF>
 </metadata>
 <defs>
  <style type="text/css">*{stroke-linejoin: round; stroke-linecap: butt}</style>
 </defs>
 <g id="figure_1">
  <g id="patch_1">
   <path d="M 0 711.02175 
L 711.691113 711.02175 
L 711.691113 0 
L 0 0 
z
" style="fill: #ffffff"/>
  </g>
  <g id="axes_1">
   <g id="patch_2">
    <path d="M 84.665625 640.3905 
L 704.491113 640.3905 
L 704.491113 39.1875 
L 84.665625 39.1875 
z
" style="fill: #ffffff"/>
   </g>
   <g id="matplotlib.axis_1">
    <g id="xtick_1">
     <g id="line2d_1">
      <defs>
       <path id="mb688dbbcda" d="M 0 0 
L 0 -3.5 
" style="stroke: #000000; stroke-width: 0.8"/>
      </defs>
      <g>
       <use xlink:href="#mb688dbbcda" x="112.783152" y="640.3905" style="stroke: #000000; stroke-width: 0.8"/>
      </g>
     </g>
     <g id="text_1">
      <!-- 0 -->
      <g transform="translate(104.441746 665.631125) scale(0.3 -0.3)">
       <defs>
        <path id="LiberationSans-30" d="M 3309 2203 
Q 3309 1100 2920 518 
Q 2531 -63 1772 -63 
Q 1013 -63 631 515 
Q 250 1094 250 2203 
Q 250 3338 620 3903 
Q 991 4469 1791 4469 
Q 2569 4469 2939 3897 
Q 3309 3325 3309 2203 
z
M 2738 2203 
Q 2738 3156 2517 3584 
Q 2297 4013 1791 4013 
Q 1272 4013 1045 3591 
Q 819 3169 819 2203 
Q 819 1266 1048 831 
Q 1278 397 1778 397 
Q 2275 397 2506 840 
Q 2738 1284 2738 2203 
z
" transform="scale(0.015625)"/>
       </defs>
       <use xlink:href="#LiberationSans-30"/>
      </g>
     </g>
    </g>
    <g id="xtick_2">
     <g id="line2d_2">
      <g>
       <use xlink:href="#mb688dbbcda" x="225.501239" y="640.3905" style="stroke: #000000; stroke-width: 0.8"/>
      </g>
     </g>
     <g id="text_2">
      <!-- 2 -->
      <g transform="translate(217.159832 665.631125) scale(0.3 -0.3)">
       <defs>
        <path id="LiberationSans-32" d="M 322 0 
L 322 397 
Q 481 763 711 1042 
Q 941 1322 1194 1548 
Q 1447 1775 1695 1969 
Q 1944 2163 2144 2356 
Q 2344 2550 2467 2762 
Q 2591 2975 2591 3244 
Q 2591 3606 2378 3806 
Q 2166 4006 1788 4006 
Q 1428 4006 1195 3811 
Q 963 3616 922 3263 
L 347 3316 
Q 409 3844 795 4156 
Q 1181 4469 1788 4469 
Q 2453 4469 2811 4155 
Q 3169 3841 3169 3263 
Q 3169 3006 3051 2753 
Q 2934 2500 2703 2247 
Q 2472 1994 1819 1463 
Q 1459 1169 1246 933 
Q 1034 697 941 478 
L 3238 478 
L 3238 0 
L 322 0 
z
" transform="scale(0.015625)"/>
       </defs>
       <use xlink:href="#LiberationSans-32"/>
      </g>
     </g>
    </g>
    <g id="xtick_3">
     <g id="line2d_3">
      <g>
       <use xlink:href="#mb688dbbcda" x="338.219326" y="640.3905" style="stroke: #000000; stroke-width: 0.8"/>
      </g>
     </g>
     <g id="text_3">
      <!-- 4 -->
      <g transform="translate(329.877919 665.631125) scale(0.3 -0.3)">
       <defs>
        <path id="LiberationSans-34" d="M 2753 997 
L 2753 0 
L 2222 0 
L 2222 997 
L 147 997 
L 147 1434 
L 2163 4403 
L 2753 4403 
L 2753 1441 
L 3372 1441 
L 3372 997 
L 2753 997 
z
M 2222 3769 
Q 2216 3750 2134 3603 
Q 2053 3456 2013 3397 
L 884 1734 
L 716 1503 
L 666 1441 
L 2222 1441 
L 2222 3769 
z
" transform="scale(0.015625)"/>
       </defs>
       <use xlink:href="#LiberationSans-34"/>
      </g>
     </g>
    </g>
    <g id="xtick_4">
     <g id="line2d_4">
      <g>
       <use xlink:href="#mb688dbbcda" x="450.937413" y="640.3905" style="stroke: #000000; stroke-width: 0.8"/>
      </g>
     </g>
     <g id="text_4">
      <!-- 6 -->
      <g transform="translate(442.596006 665.631125) scale(0.3 -0.3)">
       <defs>
        <path id="LiberationSans-36" d="M 3278 1441 
Q 3278 744 2900 340 
Q 2522 -63 1856 -63 
Q 1113 -63 719 490 
Q 325 1044 325 2100 
Q 325 3244 734 3856 
Q 1144 4469 1900 4469 
Q 2897 4469 3156 3572 
L 2619 3475 
Q 2453 4013 1894 4013 
Q 1413 4013 1148 3564 
Q 884 3116 884 2266 
Q 1038 2550 1316 2698 
Q 1594 2847 1953 2847 
Q 2563 2847 2920 2465 
Q 3278 2084 3278 1441 
z
M 2706 1416 
Q 2706 1894 2472 2153 
Q 2238 2413 1819 2413 
Q 1425 2413 1183 2183 
Q 941 1953 941 1550 
Q 941 1041 1192 716 
Q 1444 391 1838 391 
Q 2244 391 2475 664 
Q 2706 938 2706 1416 
z
" transform="scale(0.015625)"/>
       </defs>
       <use xlink:href="#LiberationSans-36"/>
      </g>
     </g>
    </g>
    <g id="xtick_5">
     <g id="line2d_5">
      <g>
       <use xlink:href="#mb688dbbcda" x="563.6555" y="640.3905" style="stroke: #000000; stroke-width: 0.8"/>
      </g>
     </g>
     <g id="text_5">
      <!-- 8 -->
      <g transform="translate(555.314093 665.631125) scale(0.3 -0.3)">
       <defs>
        <path id="LiberationSans-38" d="M 3281 1228 
Q 3281 619 2893 278 
Q 2506 -63 1781 -63 
Q 1075 -63 676 271 
Q 278 606 278 1222 
Q 278 1653 525 1947 
Q 772 2241 1156 2303 
L 1156 2316 
Q 797 2400 589 2681 
Q 381 2963 381 3341 
Q 381 3844 757 4156 
Q 1134 4469 1769 4469 
Q 2419 4469 2795 4162 
Q 3172 3856 3172 3334 
Q 3172 2956 2962 2675 
Q 2753 2394 2391 2322 
L 2391 2309 
Q 2813 2241 3047 1952 
Q 3281 1663 3281 1228 
z
M 2588 3303 
Q 2588 4050 1769 4050 
Q 1372 4050 1164 3862 
Q 956 3675 956 3303 
Q 956 2925 1170 2726 
Q 1384 2528 1775 2528 
Q 2172 2528 2380 2711 
Q 2588 2894 2588 3303 
z
M 2697 1281 
Q 2697 1691 2453 1898 
Q 2209 2106 1769 2106 
Q 1341 2106 1100 1882 
Q 859 1659 859 1269 
Q 859 359 1788 359 
Q 2247 359 2472 579 
Q 2697 800 2697 1281 
z
" transform="scale(0.015625)"/>
       </defs>
       <use xlink:href="#LiberationSans-38"/>
      </g>
     </g>
    </g>
    <g id="xtick_6">
     <g id="line2d_6">
      <g>
       <use xlink:href="#mb688dbbcda" x="676.373586" y="640.3905" style="stroke: #000000; stroke-width: 0.8"/>
      </g>
     </g>
     <g id="text_6">
      <!-- 10 -->
      <g transform="translate(659.690774 665.631125) scale(0.3 -0.3)">
       <defs>
        <path id="LiberationSans-31" d="M 488 0 
L 488 478 
L 1609 478 
L 1609 3866 
L 616 3156 
L 616 3688 
L 1656 4403 
L 2175 4403 
L 2175 478 
L 3247 478 
L 3247 0 
L 488 0 
z
" transform="scale(0.015625)"/>
       </defs>
       <use xlink:href="#LiberationSans-31"/>
       <use xlink:href="#LiberationSans-30" x="55.615234"/>
      </g>
     </g>
    </g>
    <g id="xtick_7">
     <g id="line2d_7">
      <defs>
       <path id="mf2cdf5b9ef" d="M 0 0 
L 0 -2 
" style="stroke: #000000; stroke-width: 0.6"/>
      </defs>
      <g>
       <use xlink:href="#mf2cdf5b9ef" x="140.962674" y="640.3905" style="stroke: #000000; stroke-width: 0.6"/>
      </g>
     </g>
    </g>
    <g id="xtick_8">
     <g id="line2d_8">
      <g>
       <use xlink:href="#mf2cdf5b9ef" x="169.142195" y="640.3905" style="stroke: #000000; stroke-width: 0.6"/>
      </g>
     </g>
    </g>
    <g id="xtick_9">
     <g id="line2d_9">
      <g>
       <use xlink:href="#mf2cdf5b9ef" x="197.321717" y="640.3905" style="stroke: #000000; stroke-width: 0.6"/>
      </g>
     </g>
    </g>
    <g id="xtick_10">
     <g id="line2d_10">
      <g>
       <use xlink:href="#mf2cdf5b9ef" x="253.68076" y="640.3905" style="stroke: #000000; stroke-width: 0.6"/>
      </g>
     </g>
    </g>
    <g id="xtick_11">
     <g id="line2d_11">
      <g>
       <use xlink:href="#mf2cdf5b9ef" x="281.860282" y="640.3905" style="stroke: #000000; stroke-width: 0.6"/>
      </g>
     </g>
    </g>
    <g id="xtick_12">
     <g id="line2d_12">
      <g>
       <use xlink:href="#mf2cdf5b9ef" x="310.039804" y="640.3905" style="stroke: #000000; stroke-width: 0.6"/>
      </g>
     </g>
    </g>
    <g id="xtick_13">
     <g id="line2d_13">
      <g>
       <use xlink:href="#mf2cdf5b9ef" x="366.398847" y="640.3905" style="stroke: #000000; stroke-width: 0.6"/>
      </g>
     </g>
    </g>
    <g id="xtick_14">
     <g id="line2d_14">
      <g>
       <use xlink:href="#mf2cdf5b9ef" x="394.578369" y="640.3905" style="stroke: #000000; stroke-width: 0.6"/>
      </g>
     </g>
    </g>
    <g id="xtick_15">
     <g id="line2d_15">
      <g>
       <use xlink:href="#mf2cdf5b9ef" x="422.757891" y="640.3905" style="stroke: #000000; stroke-width: 0.6"/>
      </g>
     </g>
    </g>
    <g id="xtick_16">
     <g id="line2d_16">
      <g>
       <use xlink:href="#mf2cdf5b9ef" x="479.116934" y="640.3905" style="stroke: #000000; stroke-width: 0.6"/>
      </g>
     </g>
    </g>
    <g id="xtick_17">
     <g id="line2d_17">
      <g>
       <use xlink:href="#mf2cdf5b9ef" x="507.296456" y="640.3905" style="stroke: #000000; stroke-width: 0.6"/>
      </g>
     </g>
    </g>
    <g id="xtick_18">
     <g id="line2d_18">
      <g>
       <use xlink:href="#mf2cdf5b9ef" x="535.475978" y="640.3905" style="stroke: #000000; stroke-width: 0.6"/>
      </g>
     </g>
    </g>
    <g id="xtick_19">
     <g id="line2d_19">
      <g>
       <use xlink:href="#mf2cdf5b9ef" x="591.835021" y="640.3905" style="stroke: #000000; stroke-width: 0.6"/>
      </g>
     </g>
    </g>
    <g id="xtick_20">
     <g id="line2d_20">
      <g>
       <use xlink:href="#mf2cdf5b9ef" x="620.014543" y="640.3905" style="stroke: #000000; stroke-width: 0.6"/>
      </g>
     </g>
    </g>
    <g id="xtick_21">
     <g id="line2d_21">
      <g>
       <use xlink:href="#mf2cdf5b9ef" x="648.194065" y="640.3905" style="stroke: #000000; stroke-width: 0.6"/>
      </g>
     </g>
    </g>
    <g id="text_7">
     <!-- Time ps -->
     <g transform="translate(341.801807 697.59675) scale(0.3 -0.3)">
      <defs>
       <path id="LiberationSans-54" d="M 2250 3916 
L 2250 0 
L 1656 0 
L 1656 3916 
L 144 3916 
L 144 4403 
L 3763 4403 
L 3763 3916 
L 2250 3916 
z
" transform="scale(0.015625)"/>
       <path id="LiberationSans-69" d="M 428 4100 
L 428 4638 
L 991 4638 
L 991 4100 
L 428 4100 
z
M 428 0 
L 428 3381 
L 991 3381 
L 991 0 
L 428 0 
z
" transform="scale(0.015625)"/>
       <path id="LiberationSans-6d" d="M 2400 0 
L 2400 2144 
Q 2400 2634 2265 2821 
Q 2131 3009 1781 3009 
Q 1422 3009 1212 2734 
Q 1003 2459 1003 1959 
L 1003 0 
L 444 0 
L 444 2659 
Q 444 3250 425 3381 
L 956 3381 
Q 959 3366 962 3297 
Q 966 3228 970 3139 
Q 975 3050 981 2803 
L 991 2803 
Q 1172 3163 1406 3303 
Q 1641 3444 1978 3444 
Q 2363 3444 2586 3291 
Q 2809 3138 2897 2803 
L 2906 2803 
Q 3081 3144 3329 3294 
Q 3578 3444 3931 3444 
Q 4444 3444 4676 3166 
Q 4909 2888 4909 2253 
L 4909 0 
L 4353 0 
L 4353 2144 
Q 4353 2634 4218 2821 
Q 4084 3009 3734 3009 
Q 3366 3009 3161 2736 
Q 2956 2463 2956 1959 
L 2956 0 
L 2400 0 
z
" transform="scale(0.015625)"/>
       <path id="LiberationSans-65" d="M 863 1572 
Q 863 991 1103 675 
Q 1344 359 1806 359 
Q 2172 359 2392 506 
Q 2613 653 2691 878 
L 3184 738 
Q 2881 -63 1806 -63 
Q 1056 -63 664 384 
Q 272 831 272 1713 
Q 272 2550 664 2997 
Q 1056 3444 1784 3444 
Q 3275 3444 3275 1647 
L 3275 1572 
L 863 1572 
z
M 2694 2003 
Q 2647 2538 2422 2783 
Q 2197 3028 1775 3028 
Q 1366 3028 1127 2754 
Q 888 2481 869 2003 
L 2694 2003 
z
" transform="scale(0.015625)"/>
       <path id="LiberationSans-20" transform="scale(0.015625)"/>
       <path id="LiberationSans-70" d="M 3291 1706 
Q 3291 -63 2047 -63 
Q 1266 -63 997 525 
L 981 525 
Q 994 500 994 -6 
L 994 -1328 
L 431 -1328 
L 431 2691 
Q 431 3213 413 3381 
L 956 3381 
Q 959 3369 965 3292 
Q 972 3216 980 3056 
Q 988 2897 988 2838 
L 1000 2838 
Q 1150 3150 1397 3295 
Q 1644 3441 2047 3441 
Q 2672 3441 2981 3022 
Q 3291 2603 3291 1706 
z
M 2700 1694 
Q 2700 2400 2509 2703 
Q 2319 3006 1903 3006 
Q 1569 3006 1380 2865 
Q 1191 2725 1092 2426 
Q 994 2128 994 1650 
Q 994 984 1206 668 
Q 1419 353 1897 353 
Q 2316 353 2508 661 
Q 2700 969 2700 1694 
z
" transform="scale(0.015625)"/>
       <path id="LiberationSans-73" d="M 2969 934 
Q 2969 456 2608 196 
Q 2247 -63 1597 -63 
Q 966 -63 623 145 
Q 281 353 178 794 
L 675 891 
Q 747 619 972 492 
Q 1197 366 1597 366 
Q 2025 366 2223 497 
Q 2422 628 2422 891 
Q 2422 1091 2284 1216 
Q 2147 1341 1841 1422 
L 1438 1528 
Q 953 1653 748 1773 
Q 544 1894 428 2066 
Q 313 2238 313 2488 
Q 313 2950 642 3192 
Q 972 3434 1603 3434 
Q 2163 3434 2492 3237 
Q 2822 3041 2909 2606 
L 2403 2544 
Q 2356 2769 2151 2889 
Q 1947 3009 1603 3009 
Q 1222 3009 1040 2893 
Q 859 2778 859 2544 
Q 859 2400 934 2306 
Q 1009 2213 1156 2147 
Q 1303 2081 1775 1966 
Q 2222 1853 2419 1758 
Q 2616 1663 2730 1547 
Q 2844 1431 2906 1279 
Q 2969 1128 2969 934 
z
" transform="scale(0.015625)"/>
      </defs>
      <use xlink:href="#LiberationSans-54"/>
      <use xlink:href="#LiberationSans-69" x="57.333984"/>
      <use xlink:href="#LiberationSans-6d" x="79.550781"/>
      <use xlink:href="#LiberationSans-65" x="162.851562"/>
      <use xlink:href="#LiberationSans-20" x="218.466797"/>
      <use xlink:href="#LiberationSans-70" x="246.25"/>
      <use xlink:href="#LiberationSans-73" x="301.865234"/>
     </g>
    </g>
   </g>
   <g id="matplotlib.axis_2">
    <g id="ytick_1">
     <g id="line2d_22">
      <defs>
       <path id="m8ffde26080" d="M 0 0 
L 3.5 0 
" style="stroke: #000000; stroke-width: 0.8"/>
      </defs>
      <g>
       <use xlink:href="#m8ffde26080" x="84.665625" y="613.063091" style="stroke: #000000; stroke-width: 0.8"/>
      </g>
     </g>
     <g id="text_8">
      <!-- $\mathdefault{0.0}$ -->
      <g transform="translate(39.165625 623.933403) scale(0.3 -0.3)">
       <defs>
        <path id="LiberationSans-2e" d="M 584 0 
L 584 684 
L 1194 684 
L 1194 0 
L 584 0 
z
" transform="scale(0.015625)"/>
       </defs>
       <use xlink:href="#LiberationSans-30" transform="translate(0 0.171875)"/>
       <use xlink:href="#LiberationSans-2e" transform="translate(55.615234 0.171875)"/>
       <use xlink:href="#LiberationSans-30" transform="translate(83.398438 0.171875)"/>
      </g>
     </g>
    </g>
    <g id="ytick_2">
     <g id="line2d_23">
      <g>
       <use xlink:href="#m8ffde26080" x="84.665625" y="507.091083" style="stroke: #000000; stroke-width: 0.8"/>
      </g>
     </g>
     <g id="text_9">
      <!-- $\mathdefault{0.2}$ -->
      <g transform="translate(39.165625 517.961396) scale(0.3 -0.3)">
       <use xlink:href="#LiberationSans-30" transform="translate(0 0.171875)"/>
       <use xlink:href="#LiberationSans-2e" transform="translate(55.615234 0.171875)"/>
       <use xlink:href="#LiberationSans-32" transform="translate(83.398438 0.171875)"/>
      </g>
     </g>
    </g>
    <g id="ytick_3">
     <g id="line2d_24">
      <g>
       <use xlink:href="#m8ffde26080" x="84.665625" y="401.119076" style="stroke: #000000; stroke-width: 0.8"/>
      </g>
     </g>
     <g id="text_10">
      <!-- $\mathdefault{0.4}$ -->
      <g transform="translate(39.165625 411.989388) scale(0.3 -0.3)">
       <use xlink:href="#LiberationSans-30" transform="translate(0 0.171875)"/>
       <use xlink:href="#LiberationSans-2e" transform="translate(55.615234 0.171875)"/>
       <use xlink:href="#LiberationSans-34" transform="translate(83.398438 0.171875)"/>
      </g>
     </g>
    </g>
    <g id="ytick_4">
     <g id="line2d_25">
      <g>
       <use xlink:href="#m8ffde26080" x="84.665625" y="295.147068" style="stroke: #000000; stroke-width: 0.8"/>
      </g>
     </g>
     <g id="text_11">
      <!-- $\mathdefault{0.6}$ -->
      <g transform="translate(39.165625 306.017381) scale(0.3 -0.3)">
       <use xlink:href="#LiberationSans-30" transform="translate(0 0.171875)"/>
       <use xlink:href="#LiberationSans-2e" transform="translate(55.615234 0.171875)"/>
       <use xlink:href="#LiberationSans-36" transform="translate(83.398438 0.171875)"/>
      </g>
     </g>
    </g>
    <g id="ytick_5">
     <g id="line2d_26">
      <g>
       <use xlink:href="#m8ffde26080" x="84.665625" y="189.175061" style="stroke: #000000; stroke-width: 0.8"/>
      </g>
     </g>
     <g id="text_12">
      <!-- $\mathdefault{0.8}$ -->
      <g transform="translate(39.165625 200.045373) scale(0.3 -0.3)">
       <use xlink:href="#LiberationSans-30" transform="translate(0 0.171875)"/>
       <use xlink:href="#LiberationSans-2e" transform="translate(55.615234 0.171875)"/>
       <use xlink:href="#LiberationSans-38" transform="translate(83.398438 0.171875)"/>
      </g>
     </g>
    </g>
    <g id="ytick_6">
     <g id="line2d_27">
      <g>
       <use xlink:href="#m8ffde26080" x="84.665625" y="83.203053" style="stroke: #000000; stroke-width: 0.8"/>
      </g>
     </g>
     <g id="text_13">
      <!-- $\mathdefault{1.0}$ -->
      <g transform="translate(39.165625 94.073366) scale(0.3 -0.3)">
       <use xlink:href="#LiberationSans-31" transform="translate(0 0.171875)"/>
       <use xlink:href="#LiberationSans-2e" transform="translate(55.615234 0.171875)"/>
       <use xlink:href="#LiberationSans-30" transform="translate(83.398438 0.171875)"/>
      </g>
     </g>
    </g>
    <g id="ytick_7">
     <g id="line2d_28">
      <defs>
       <path id="m46cb8d691e" d="M 0 0 
L 2 0 
" style="stroke: #000000; stroke-width: 0.6"/>
      </defs>
      <g>
       <use xlink:href="#m46cb8d691e" x="84.665625" y="639.556093" style="stroke: #000000; stroke-width: 0.6"/>
      </g>
     </g>
    </g>
    <g id="ytick_8">
     <g id="line2d_29">
      <g>
       <use xlink:href="#m46cb8d691e" x="84.665625" y="586.570089" style="stroke: #000000; stroke-width: 0.6"/>
      </g>
     </g>
    </g>
    <g id="ytick_9">
     <g id="line2d_30">
      <g>
       <use xlink:href="#m46cb8d691e" x="84.665625" y="560.077087" style="stroke: #000000; stroke-width: 0.6"/>
      </g>
     </g>
    </g>
    <g id="ytick_10">
     <g id="line2d_31">
      <g>
       <use xlink:href="#m46cb8d691e" x="84.665625" y="533.584085" style="stroke: #000000; stroke-width: 0.6"/>
      </g>
     </g>
    </g>
    <g id="ytick_11">
     <g id="line2d_32">
      <g>
       <use xlink:href="#m46cb8d691e" x="84.665625" y="480.598082" style="stroke: #000000; stroke-width: 0.6"/>
      </g>
     </g>
    </g>
    <g id="ytick_12">
     <g id="line2d_33">
      <g>
       <use xlink:href="#m46cb8d691e" x="84.665625" y="454.10508" style="stroke: #000000; stroke-width: 0.6"/>
      </g>
     </g>
    </g>
    <g id="ytick_13">
     <g id="line2d_34">
      <g>
       <use xlink:href="#m46cb8d691e" x="84.665625" y="427.612078" style="stroke: #000000; stroke-width: 0.6"/>
      </g>
     </g>
    </g>
    <g id="ytick_14">
     <g id="line2d_35">
      <g>
       <use xlink:href="#m46cb8d691e" x="84.665625" y="374.626074" style="stroke: #000000; stroke-width: 0.6"/>
      </g>
     </g>
    </g>
    <g id="ytick_15">
     <g id="line2d_36">
      <g>
       <use xlink:href="#m46cb8d691e" x="84.665625" y="348.133072" style="stroke: #000000; stroke-width: 0.6"/>
      </g>
     </g>
    </g>
    <g id="ytick_16">
     <g id="line2d_37">
      <g>
       <use xlink:href="#m46cb8d691e" x="84.665625" y="321.64007" style="stroke: #000000; stroke-width: 0.6"/>
      </g>
     </g>
    </g>
    <g id="ytick_17">
     <g id="line2d_38">
      <g>
       <use xlink:href="#m46cb8d691e" x="84.665625" y="268.654067" style="stroke: #000000; stroke-width: 0.6"/>
      </g>
     </g>
    </g>
    <g id="ytick_18">
     <g id="line2d_39">
      <g>
       <use xlink:href="#m46cb8d691e" x="84.665625" y="242.161065" style="stroke: #000000; stroke-width: 0.6"/>
      </g>
     </g>
    </g>
    <g id="ytick_19">
     <g id="line2d_40">
      <g>
       <use xlink:href="#m46cb8d691e" x="84.665625" y="215.668063" style="stroke: #000000; stroke-width: 0.6"/>
      </g>
     </g>
    </g>
    <g id="ytick_20">
     <g id="line2d_41">
      <g>
       <use xlink:href="#m46cb8d691e" x="84.665625" y="162.682059" style="stroke: #000000; stroke-width: 0.6"/>
      </g>
     </g>
    </g>
    <g id="ytick_21">
     <g id="line2d_42">
      <g>
       <use xlink:href="#m46cb8d691e" x="84.665625" y="136.189057" style="stroke: #000000; stroke-width: 0.6"/>
      </g>
     </g>
    </g>
    <g id="ytick_22">
     <g id="line2d_43">
      <g>
       <use xlink:href="#m46cb8d691e" x="84.665625" y="109.696055" style="stroke: #000000; stroke-width: 0.6"/>
      </g>
     </g>
    </g>
    <g id="ytick_23">
     <g id="line2d_44">
      <g>
       <use xlink:href="#m46cb8d691e" x="84.665625" y="56.710052" style="stroke: #000000; stroke-width: 0.6"/>
      </g>
     </g>
    </g>
    <g id="text_14">
     <!-- ITR K · m$^2$/W -->
     <g transform="translate(28.940625 428.439) rotate(-90) scale(0.3 -0.3)">
      <defs>
       <path id="LiberationSans-49" d="M 591 0 
L 591 4403 
L 1188 4403 
L 1188 0 
L 591 0 
z
" transform="scale(0.015625)"/>
       <path id="LiberationSans-52" d="M 3638 0 
L 2494 1828 
L 1122 1828 
L 1122 0 
L 525 0 
L 525 4403 
L 2597 4403 
Q 3341 4403 3745 4070 
Q 4150 3738 4150 3144 
Q 4150 2653 3864 2318 
Q 3578 1984 3075 1897 
L 4325 0 
L 3638 0 
z
M 3550 3138 
Q 3550 3522 3289 3723 
Q 3028 3925 2538 3925 
L 1122 3925 
L 1122 2300 
L 2563 2300 
Q 3034 2300 3292 2520 
Q 3550 2741 3550 3138 
z
" transform="scale(0.015625)"/>
       <path id="LiberationSans-4b" d="M 3456 0 
L 1697 2125 
L 1122 1688 
L 1122 0 
L 525 0 
L 525 4403 
L 1122 4403 
L 1122 2197 
L 3244 4403 
L 3947 4403 
L 2072 2491 
L 4197 0 
L 3456 0 
z
" transform="scale(0.015625)"/>
       <path id="LiberationSans-b7" d="M 760 1394 
L 760 2081 
L 1370 2081 
L 1370 1394 
L 760 1394 
z
" transform="scale(0.015625)"/>
       <path id="STIXGeneral-Regular-32" d="M 3034 877 
L 2688 0 
L 186 0 
L 186 77 
L 1325 1286 
Q 1773 1754 1965 2144 
Q 2157 2534 2157 2950 
Q 2157 3379 1920 3616 
Q 1683 3853 1267 3853 
Q 922 3853 720 3673 
Q 518 3494 326 3021 
L 192 3053 
Q 301 3648 630 3987 
Q 960 4326 1523 4326 
Q 2054 4326 2380 4006 
Q 2707 3686 2707 3200 
Q 2707 2477 1888 1613 
L 832 486 
L 2330 486 
Q 2541 486 2665 569 
Q 2790 653 2944 915 
L 3034 877 
z
" transform="scale(0.015625)"/>
       <path id="LiberationSans-2f" d="M 0 -63 
L 1284 4638 
L 1778 4638 
L 506 -63 
L 0 -63 
z
" transform="scale(0.015625)"/>
       <path id="LiberationSans-57" d="M 4722 0 
L 4009 0 
L 3247 2797 
Q 3172 3059 3028 3738 
Q 2947 3375 2890 3131 
Q 2834 2888 2038 0 
L 1325 0 
L 28 4403 
L 650 4403 
L 1441 1606 
Q 1581 1081 1700 525 
Q 1775 869 1873 1275 
Q 1972 1681 2741 4403 
L 3313 4403 
L 4078 1663 
Q 4253 991 4353 525 
L 4381 634 
Q 4466 994 4519 1220 
Q 4572 1447 5397 4403 
L 6019 4403 
L 4722 0 
z
" transform="scale(0.015625)"/>
      </defs>
      <use xlink:href="#LiberationSans-49" transform="translate(0 0.409375)"/>
      <use xlink:href="#LiberationSans-54" transform="translate(27.783203 0.409375)"/>
      <use xlink:href="#LiberationSans-52" transform="translate(88.867188 0.409375)"/>
      <use xlink:href="#LiberationSans-20" transform="translate(161.083984 0.409375)"/>
      <use xlink:href="#LiberationSans-4b" transform="translate(188.867188 0.409375)"/>
      <use xlink:href="#LiberationSans-20" transform="translate(255.566406 0.409375)"/>
      <use xlink:href="#LiberationSans-b7" transform="translate(283.349609 0.409375)"/>
      <use xlink:href="#LiberationSans-20" transform="translate(316.650391 0.409375)"/>
      <use xlink:href="#LiberationSans-6d" transform="translate(344.433594 0.409375)"/>
      <use xlink:href="#STIXGeneral-Regular-32" transform="translate(429.277656 35.684375) scale(0.7)"/>
      <use xlink:href="#LiberationSans-2f" transform="translate(468.687021 0.409375)"/>
      <use xlink:href="#LiberationSans-57" transform="translate(496.470224 0.409375)"/>
     </g>
    </g>
    <g id="text_15">
     <!-- $\times\mathdefault{10^{−6}}\mathdefault{}$ -->
     <g transform="translate(84.665625 36.1875) scale(0.4 -0.4)">
      <defs>
       <path id="STIXGeneral-Regular-d7" d="M 3821 141 
L 3526 -160 
L 2048 1312 
L 570 -160 
L 275 134 
L 1747 1613 
L 275 3091 
L 576 3386 
L 2048 1914 
L 3526 3386 
L 3821 3098 
L 2349 1613 
L 3821 141 
z
" transform="scale(0.015625)"/>
       <path id="LiberationSans-2212" d="M 316 1900 
L 316 2356 
L 3425 2356 
L 3425 1900 
L 316 1900 
z
" transform="scale(0.015625)"/>
      </defs>
      <use xlink:href="#STIXGeneral-Regular-d7" transform="translate(0 0.140625)"/>
      <use xlink:href="#LiberationSans-31" transform="translate(63.999985 0.140625)"/>
      <use xlink:href="#LiberationSans-30" transform="translate(119.615219 0.140625)"/>
      <use xlink:href="#LiberationSans-2212" transform="translate(176.154946 37.120312) scale(0.7)"/>
      <use xlink:href="#LiberationSans-36" transform="translate(217.033852 37.120312) scale(0.7)"/>
     </g>
    </g>
   </g>
   <g id="line2d_45">
    <path d="M 112.839511 613.063091 
L 112.89587 66.514909 
L 112.952229 339.654685 
L 113.121306 503.323063 
L 113.346742 551.535447 
L 113.628537 572.760332 
L 113.966692 583.900298 
L 114.361205 590.283407 
L 114.812077 594.043166 
L 115.26295 595.987654 
L 115.657463 596.8275 
L 115.995617 597.102999 
L 116.277412 597.081745 
L 116.615567 596.795103 
L 117.01008 596.132078 
L 117.517311 594.784968 
L 118.080902 592.636392 
L 118.75721 589.115163 
L 119.489878 584.064839 
L 120.335264 576.527348 
L 121.237008 566.390109 
L 123.773165 536.159113 
L 124.167679 534.498466 
L 124.393115 534.220721 
L 124.562192 534.323144 
L 124.787628 534.843663 
L 125.125782 536.333359 
L 125.689373 540.133478 
L 127.661939 554.620111 
L 128.394607 558.029991 
L 129.014556 559.949909 
L 129.578147 561.02303 
L 130.029019 561.482171 
L 130.479891 561.632087 
L 130.874405 561.539237 
L 131.325277 561.207118 
L 131.888868 560.49654 
L 132.621535 559.164335 
L 133.579639 556.904161 
L 136.904822 548.564875 
L 137.581131 547.626205 
L 138.088362 547.271613 
L 138.482876 547.238733 
L 138.877389 547.438614 
L 139.328261 547.964415 
L 139.835493 548.928939 
L 140.511801 550.750826 
L 141.695341 554.760325 
L 142.822522 558.294551 
L 143.49883 559.771607 
L 144.062421 560.497795 
L 144.513293 560.726097 
L 144.907807 560.67288 
L 145.358679 560.342928 
L 145.922269 559.582896 
L 146.711296 558.058687 
L 149.134735 553.070086 
L 150.712788 550.643077 
L 152.121764 548.762605 
L 152.741714 548.284733 
L 153.192586 548.20585 
L 153.587099 548.365883 
L 154.037972 548.826737 
L 154.601562 549.789787 
L 155.446948 551.79136 
L 156.968642 555.443873 
L 157.701309 556.606335 
L 158.2649 557.135055 
L 158.772131 557.349553 
L 159.279363 557.346275 
L 159.899312 557.101404 
L 160.63198 556.557316 
L 161.590083 555.559083 
L 162.829982 553.931097 
L 164.971626 551.039841 
L 165.647935 550.519626 
L 166.211525 550.36108 
L 166.718756 550.446165 
L 167.282347 550.771668 
L 168.015014 551.468269 
L 171.565634 555.244946 
L 172.523738 555.806898 
L 173.312764 556.015784 
L 173.989073 555.957489 
L 174.609022 555.684885 
L 175.34169 555.097835 
L 176.299794 554.008682 
L 178.046924 552.000498 
L 178.835951 551.442897 
L 179.624977 551.15706 
L 180.583081 551.071362 
L 181.935698 551.200377 
L 183.119238 551.51586 
L 184.302778 552.07221 
L 186.106267 552.938939 
L 186.895294 553.045282 
L 187.627962 552.917116 
L 188.473347 552.534535 
L 191.85489 550.739354 
L 193.432943 550.336804 
L 194.503765 550.256648 
L 195.34915 550.411417 
L 196.194536 550.798054 
L 199.125206 552.396061 
L 199.914233 552.408267 
L 200.872337 552.16791 
L 204.366597 551.069734 
L 207.635422 550.290462 
L 208.424449 550.426455 
L 209.382552 550.833747 
L 211.524196 551.833686 
L 212.538659 551.993102 
L 214.060353 551.956443 
L 218.907231 551.627383 
L 220.992515 551.365612 
L 222.739646 551.12297 
L 223.979545 550.692822 
L 226.177547 549.869017 
L 227.304728 549.734359 
L 230.179039 549.518625 
L 231.813452 549.345757 
L 232.771555 549.490683 
L 233.898736 549.919154 
L 235.871303 550.704572 
L 236.885766 550.843796 
L 238.012946 550.76079 
L 239.309204 550.428099 
L 240.492744 549.89862 
L 241.676284 549.11629 
L 244.156082 547.366367 
L 244.88875 547.175919 
L 245.565058 547.226023 
L 246.297726 547.509321 
L 247.312189 548.170967 
L 249.453832 549.628388 
L 250.468295 550.01155 
L 251.426399 550.127015 
L 252.440862 550.010532 
L 253.793479 549.603318 
L 255.653327 549.066703 
L 257.005944 548.939784 
L 259.373024 548.757904 
L 261.796463 548.444783 
L 262.754566 548.602424 
L 264.107184 549.086952 
L 265.459801 549.498814 
L 266.474263 549.561203 
L 267.657803 549.391277 
L 271.321141 548.517457 
L 272.617399 547.925281 
L 274.759043 546.898978 
L 275.660787 546.752489 
L 276.618891 546.839576 
L 278.366022 547.298236 
L 279.944075 547.589949 
L 281.747564 547.672976 
L 283.720131 547.555812 
L 285.579979 547.202519 
L 288.172495 546.710111 
L 289.919625 546.637129 
L 292.061269 546.779162 
L 295.668248 547.0644 
L 299.613381 547.156427 
L 301.585947 547.219883 
L 302.882205 547.02623 
L 304.460259 546.537514 
L 306.489184 545.938405 
L 307.616365 545.85211 
L 308.687187 545.996216 
L 309.927086 546.405967 
L 314.210373 548.071341 
L 315.337554 548.147891 
L 316.464735 548.007006 
L 317.704634 547.624438 
L 319.169969 546.921855 
L 322.720589 545.06251 
L 323.622333 544.939003 
L 324.580437 545.048594 
L 325.820336 545.441673 
L 328.976443 546.525592 
L 330.498137 546.79118 
L 331.738036 546.788661 
L 333.034294 546.550643 
L 337.035786 545.604209 
L 338.388403 545.660556 
L 340.92456 546.075501 
L 342.446254 546.166448 
L 344.080666 546.015561 
L 346.391387 545.816701 
L 350.111084 545.685191 
L 353.88714 545.17341 
L 356.648733 545.278108 
L 358.56494 545.191279 
L 363.693613 544.788163 
L 365.778898 544.860486 
L 367.469669 545.162598 
L 369.385877 545.4856 
L 370.400339 545.417189 
L 371.414802 545.118711 
L 373.105574 544.329716 
L 374.401832 543.84014 
L 375.472653 543.678265 
L 376.712552 543.733257 
L 384.828255 544.748709 
L 387.533489 545.019754 
L 389.167901 544.993662 
L 390.351441 544.747338 
L 391.704058 544.210746 
L 393.563906 543.479158 
L 394.465651 543.373856 
L 395.367396 543.502818 
L 396.438218 543.901167 
L 399.087093 544.98518 
L 400.326992 545.178378 
L 402.694071 545.250706 
L 404.55392 545.176807 
L 405.681101 544.897782 
L 406.864641 544.350222 
L 409.457157 543.032511 
L 410.41526 542.867511 
L 411.429723 542.935602 
L 415.543933 543.514415 
L 418.08009 543.301381 
L 421.179838 542.906843 
L 422.870609 542.727135 
L 423.828713 542.850923 
L 424.786816 543.216068 
L 426.026715 543.966112 
L 427.886564 545.084392 
L 428.844668 545.400792 
L 429.746412 545.473673 
L 430.704516 545.320755 
L 431.775338 544.914731 
L 433.240673 544.096181 
L 435.77683 542.666465 
L 436.96037 542.283942 
L 438.031192 542.171654 
L 439.158373 542.284919 
L 440.567349 542.671146 
L 443.328942 543.475267 
L 444.568841 543.571901 
L 445.865099 543.442699 
L 447.274075 543.071251 
L 451.162849 541.88811 
L 452.29003 541.892132 
L 453.586288 542.129781 
L 457.362344 542.977506 
L 458.602243 542.925929 
L 460.405732 542.585821 
L 462.321939 542.291898 
L 464.181788 542.259843 
L 467.337894 542.443352 
L 471.677541 542.838377 
L 472.804721 542.593966 
L 474.100979 542.066134 
L 476.524418 541.017586 
L 477.482522 540.892569 
L 478.384267 541.00745 
L 479.455089 541.385221 
L 482.949349 542.805052 
L 484.301966 543.015779 
L 485.710942 543.01103 
L 487.288996 542.769053 
L 491.910437 541.874874 
L 493.432131 541.921799 
L 496.644597 542.122696 
L 498.109932 541.894178 
L 500.251576 541.553499 
L 501.435116 541.618598 
L 503.069528 541.971697 
L 504.816658 542.28034 
L 506.056557 542.266465 
L 507.578251 542.009081 
L 512.256052 541.085459 
L 515.750313 540.571743 
L 517.10293 540.663813 
L 522.851552 541.574141 
L 523.866015 542.143115 
L 527.07848 544.178178 
L 527.867507 544.288955 
L 528.656534 544.1634 
L 529.558278 543.773669 
L 530.967254 542.868851 
L 533.108898 541.519264 
L 534.574233 540.863627 
L 535.870491 540.52321 
L 537.054031 540.448177 
L 538.350289 540.606453 
L 542.351781 541.286542 
L 543.817116 541.166042 
L 547.367736 540.750312 
L 548.833071 540.886321 
L 550.580201 541.291767 
L 553.454513 541.992691 
L 554.525335 541.988207 
L 555.539797 541.762045 
L 556.948773 541.191123 
L 558.583186 540.584308 
L 559.654007 540.431796 
L 560.893906 540.495119 
L 567.995146 541.247501 
L 569.009609 540.981887 
L 570.249508 540.402586 
L 572.222074 539.471234 
L 573.123819 539.303854 
L 574.025564 539.357653 
L 575.209103 539.672159 
L 577.857979 540.437805 
L 580.394135 540.813261 
L 582.873933 541.022323 
L 584.677423 540.933714 
L 589.637019 540.525796 
L 593.69487 540.706594 
L 595.385641 540.394138 
L 600.570673 539.296823 
L 602.148726 539.270757 
L 604.346729 539.499388 
L 611.33525 540.497981 
L 613.13874 540.679724 
L 614.660434 540.599544 
L 618.661926 540.242145 
L 620.859929 540.073415 
L 626.383115 539.423659 
L 628.242963 539.428167 
L 629.821017 539.670381 
L 637.936719 541.339446 
L 640.022003 541.484328 
L 644.699804 541.44481 
L 645.883344 541.200422 
L 647.179602 540.68963 
L 649.377605 539.793199 
L 650.504786 539.617332 
L 651.857403 539.659453 
L 654.675355 540.033099 
L 656.478844 540.471139 
L 659.973105 541.41456 
L 661.607517 541.561428 
L 663.18557 541.490951 
L 664.819983 541.182998 
L 667.807012 540.558062 
L 669.215988 540.541161 
L 671.188554 540.77279 
L 673.273839 540.957526 
L 674.457379 540.841264 
L 675.58456 540.509545 
L 676.317227 540.198755 
L 676.317227 540.198755 
" clip-path="url(#pbe25096b36)" style="fill: none; stroke: #ff0000; stroke-width: 1.5; stroke-linecap: square"/>
   </g>
   <g id="patch_3">
    <path d="M 84.665625 640.3905 
L 84.665625 39.1875 
" style="fill: none; stroke: #000000; stroke-width: 0.8; stroke-linejoin: miter; stroke-linecap: square"/>
   </g>
   <g id="patch_4">
    <path d="M 704.491113 640.3905 
L 704.491113 39.1875 
" style="fill: none; stroke: #000000; stroke-width: 0.8; stroke-linejoin: miter; stroke-linecap: square"/>
   </g>
   <g id="patch_5">
    <path d="M 84.665625 640.3905 
L 704.491113 640.3905 
" style="fill: none; stroke: #000000; stroke-width: 0.8; stroke-linejoin: miter; stroke-linecap: square"/>
   </g>
   <g id="patch_6">
    <path d="M 84.665625 39.1875 
L 704.491113 39.1875 
" style="fill: none; stroke: #000000; stroke-width: 0.8; stroke-linejoin: miter; stroke-linecap: square"/>
   </g>
  </g>
 </g>
 <defs>
  <clipPath id="pbe25096b36">
   <rect x="84.665625" y="39.1875" width="619.825488" height="601.203"/>
  </clipPath>
 </defs>
</svg>
