<?xml version="1.0" encoding="utf-8" standalone="no"?>
<!DOCTYPE svg PUBLIC "-//W3C//DTD SVG 1.1//EN"
  "http://www.w3.org/Graphics/SVG/1.1/DTD/svg11.dtd">
<svg xmlns:xlink="http://www.w3.org/1999/xlink" width="710.741988pt" height="711.02175pt" viewBox="0 0 710.741988 711.02175" xmlns="http://www.w3.org/2000/svg" version="1.1">
 <metadata>
  <rdf:RDF xmlns:dc="http://purl.org/dc/elements/1.1/" xmlns:cc="http://creativecommons.org/ns#" xmlns:rdf="http://www.w3.org/1999/02/22-rdf-syntax-ns#">
   <cc:Work>
    <dc:type rdf:resource="http://purl.org/dc/dcmitype/StillImage"/>
    <dc:date>2025-02-02T15:17:42.705247</dc:date>
    <dc:format>image/svg+xml</dc:format>
    <dc:creator>
     <cc:Agent>
      <dc:title>Matplotlib v3.9.3, https://matplotlib.org/</dc:title>
     </cc:Agent>
    </dc:creator>
   </cc:Work>
  </rdf:RDF>
 </metadata>
 <defs>
  <style type="text/css">*{stroke-linejoin: round; stroke-linecap: butt}</style>
 </defs>
 <g id="figure_1">
  <g id="patch_1">
   <path d="M 0 711.02175 
L 710.741988 711.02175 
L 710.741988 0 
L 0 0 
z
" style="fill: #ffffff"/>
  </g>
  <g id="axes_1">
   <g id="patch_2">
    <path d="M 79.5 640.3905 
L 703.541988 640.3905 
L 703.541988 39.1875 
L 79.5 39.1875 
z
" style="fill: #ffffff"/>
   </g>
   <g id="matplotlib.axis_1">
    <g id="xtick_1">
     <g id="line2d_1">
      <defs>
       <path id="m5b57f49f50" d="M 0 0 
L 0 -3.5 
" style="stroke: #000000; stroke-width: 0.8"/>
      </defs>
      <g>
       <use xlink:href="#m5b57f49f50" x="107.808808" y="640.3905" style="stroke: #000000; stroke-width: 0.8"/>
      </g>
     </g>
     <g id="text_1">
      <!-- 0 -->
      <g transform="translate(99.467402 665.631125) scale(0.3 -0.3)">
       <defs>
        <path id="LiberationSans-30" d="M 3309 2203 
Q 3309 1100 2920 518 
Q 2531 -63 1772 -63 
Q 1013 -63 631 515 
Q 250 1094 250 2203 
Q 250 3338 620 3903 
Q 991 4469 1791 4469 
Q 2569 4469 2939 3897 
Q 3309 3325 3309 2203 
z
M 2738 2203 
Q 2738 3156 2517 3584 
Q 2297 4013 1791 4013 
Q 1272 4013 1045 3591 
Q 819 3169 819 2203 
Q 819 1266 1048 831 
Q 1278 397 1778 397 
Q 2275 397 2506 840 
Q 2738 1284 2738 2203 
z
" transform="scale(0.015625)"/>
       </defs>
       <use xlink:href="#LiberationSans-30"/>
      </g>
     </g>
    </g>
    <g id="xtick_2">
     <g id="line2d_2">
      <g>
       <use xlink:href="#m5b57f49f50" x="221.282335" y="640.3905" style="stroke: #000000; stroke-width: 0.8"/>
      </g>
     </g>
     <g id="text_2">
      <!-- 2 -->
      <g transform="translate(212.940929 665.631125) scale(0.3 -0.3)">
       <defs>
        <path id="LiberationSans-32" d="M 322 0 
L 322 397 
Q 481 763 711 1042 
Q 941 1322 1194 1548 
Q 1447 1775 1695 1969 
Q 1944 2163 2144 2356 
Q 2344 2550 2467 2762 
Q 2591 2975 2591 3244 
Q 2591 3606 2378 3806 
Q 2166 4006 1788 4006 
Q 1428 4006 1195 3811 
Q 963 3616 922 3263 
L 347 3316 
Q 409 3844 795 4156 
Q 1181 4469 1788 4469 
Q 2453 4469 2811 4155 
Q 3169 3841 3169 3263 
Q 3169 3006 3051 2753 
Q 2934 2500 2703 2247 
Q 2472 1994 1819 1463 
Q 1459 1169 1246 933 
Q 1034 697 941 478 
L 3238 478 
L 3238 0 
L 322 0 
z
" transform="scale(0.015625)"/>
       </defs>
       <use xlink:href="#LiberationSans-32"/>
      </g>
     </g>
    </g>
    <g id="xtick_3">
     <g id="line2d_3">
      <g>
       <use xlink:href="#m5b57f49f50" x="334.755862" y="640.3905" style="stroke: #000000; stroke-width: 0.8"/>
      </g>
     </g>
     <g id="text_3">
      <!-- 4 -->
      <g transform="translate(326.414456 665.631125) scale(0.3 -0.3)">
       <defs>
        <path id="LiberationSans-34" d="M 2753 997 
L 2753 0 
L 2222 0 
L 2222 997 
L 147 997 
L 147 1434 
L 2163 4403 
L 2753 4403 
L 2753 1441 
L 3372 1441 
L 3372 997 
L 2753 997 
z
M 2222 3769 
Q 2216 3750 2134 3603 
Q 2053 3456 2013 3397 
L 884 1734 
L 716 1503 
L 666 1441 
L 2222 1441 
L 2222 3769 
z
" transform="scale(0.015625)"/>
       </defs>
       <use xlink:href="#LiberationSans-34"/>
      </g>
     </g>
    </g>
    <g id="xtick_4">
     <g id="line2d_4">
      <g>
       <use xlink:href="#m5b57f49f50" x="448.229389" y="640.3905" style="stroke: #000000; stroke-width: 0.8"/>
      </g>
     </g>
     <g id="text_4">
      <!-- 6 -->
      <g transform="translate(439.887983 665.631125) scale(0.3 -0.3)">
       <defs>
        <path id="LiberationSans-36" d="M 3278 1441 
Q 3278 744 2900 340 
Q 2522 -63 1856 -63 
Q 1113 -63 719 490 
Q 325 1044 325 2100 
Q 325 3244 734 3856 
Q 1144 4469 1900 4469 
Q 2897 4469 3156 3572 
L 2619 3475 
Q 2453 4013 1894 4013 
Q 1413 4013 1148 3564 
Q 884 3116 884 2266 
Q 1038 2550 1316 2698 
Q 1594 2847 1953 2847 
Q 2563 2847 2920 2465 
Q 3278 2084 3278 1441 
z
M 2706 1416 
Q 2706 1894 2472 2153 
Q 2238 2413 1819 2413 
Q 1425 2413 1183 2183 
Q 941 1953 941 1550 
Q 941 1041 1192 716 
Q 1444 391 1838 391 
Q 2244 391 2475 664 
Q 2706 938 2706 1416 
z
" transform="scale(0.015625)"/>
       </defs>
       <use xlink:href="#LiberationSans-36"/>
      </g>
     </g>
    </g>
    <g id="xtick_5">
     <g id="line2d_5">
      <g>
       <use xlink:href="#m5b57f49f50" x="561.702916" y="640.3905" style="stroke: #000000; stroke-width: 0.8"/>
      </g>
     </g>
     <g id="text_5">
      <!-- 8 -->
      <g transform="translate(553.36151 665.631125) scale(0.3 -0.3)">
       <defs>
        <path id="LiberationSans-38" d="M 3281 1228 
Q 3281 619 2893 278 
Q 2506 -63 1781 -63 
Q 1075 -63 676 271 
Q 278 606 278 1222 
Q 278 1653 525 1947 
Q 772 2241 1156 2303 
L 1156 2316 
Q 797 2400 589 2681 
Q 381 2963 381 3341 
Q 381 3844 757 4156 
Q 1134 4469 1769 4469 
Q 2419 4469 2795 4162 
Q 3172 3856 3172 3334 
Q 3172 2956 2962 2675 
Q 2753 2394 2391 2322 
L 2391 2309 
Q 2813 2241 3047 1952 
Q 3281 1663 3281 1228 
z
M 2588 3303 
Q 2588 4050 1769 4050 
Q 1372 4050 1164 3862 
Q 956 3675 956 3303 
Q 956 2925 1170 2726 
Q 1384 2528 1775 2528 
Q 2172 2528 2380 2711 
Q 2588 2894 2588 3303 
z
M 2697 1281 
Q 2697 1691 2453 1898 
Q 2209 2106 1769 2106 
Q 1341 2106 1100 1882 
Q 859 1659 859 1269 
Q 859 359 1788 359 
Q 2247 359 2472 579 
Q 2697 800 2697 1281 
z
" transform="scale(0.015625)"/>
       </defs>
       <use xlink:href="#LiberationSans-38"/>
      </g>
     </g>
    </g>
    <g id="xtick_6">
     <g id="line2d_6">
      <g>
       <use xlink:href="#m5b57f49f50" x="675.176443" y="640.3905" style="stroke: #000000; stroke-width: 0.8"/>
      </g>
     </g>
     <g id="text_6">
      <!-- 10 -->
      <g transform="translate(658.493631 665.631125) scale(0.3 -0.3)">
       <defs>
        <path id="LiberationSans-31" d="M 488 0 
L 488 478 
L 1609 478 
L 1609 3866 
L 616 3156 
L 616 3688 
L 1656 4403 
L 2175 4403 
L 2175 478 
L 3247 478 
L 3247 0 
L 488 0 
z
" transform="scale(0.015625)"/>
       </defs>
       <use xlink:href="#LiberationSans-31"/>
       <use xlink:href="#LiberationSans-30" x="55.615234"/>
      </g>
     </g>
    </g>
    <g id="xtick_7">
     <g id="line2d_7">
      <defs>
       <path id="m16bf360956" d="M 0 0 
L 0 -2 
" style="stroke: #000000; stroke-width: 0.6"/>
      </defs>
      <g>
       <use xlink:href="#m16bf360956" x="136.17719" y="640.3905" style="stroke: #000000; stroke-width: 0.6"/>
      </g>
     </g>
    </g>
    <g id="xtick_8">
     <g id="line2d_8">
      <g>
       <use xlink:href="#m16bf360956" x="164.545572" y="640.3905" style="stroke: #000000; stroke-width: 0.6"/>
      </g>
     </g>
    </g>
    <g id="xtick_9">
     <g id="line2d_9">
      <g>
       <use xlink:href="#m16bf360956" x="192.913953" y="640.3905" style="stroke: #000000; stroke-width: 0.6"/>
      </g>
     </g>
    </g>
    <g id="xtick_10">
     <g id="line2d_10">
      <g>
       <use xlink:href="#m16bf360956" x="249.650717" y="640.3905" style="stroke: #000000; stroke-width: 0.6"/>
      </g>
     </g>
    </g>
    <g id="xtick_11">
     <g id="line2d_11">
      <g>
       <use xlink:href="#m16bf360956" x="278.019099" y="640.3905" style="stroke: #000000; stroke-width: 0.6"/>
      </g>
     </g>
    </g>
    <g id="xtick_12">
     <g id="line2d_12">
      <g>
       <use xlink:href="#m16bf360956" x="306.38748" y="640.3905" style="stroke: #000000; stroke-width: 0.6"/>
      </g>
     </g>
    </g>
    <g id="xtick_13">
     <g id="line2d_13">
      <g>
       <use xlink:href="#m16bf360956" x="363.124244" y="640.3905" style="stroke: #000000; stroke-width: 0.6"/>
      </g>
     </g>
    </g>
    <g id="xtick_14">
     <g id="line2d_14">
      <g>
       <use xlink:href="#m16bf360956" x="391.492626" y="640.3905" style="stroke: #000000; stroke-width: 0.6"/>
      </g>
     </g>
    </g>
    <g id="xtick_15">
     <g id="line2d_15">
      <g>
       <use xlink:href="#m16bf360956" x="419.861008" y="640.3905" style="stroke: #000000; stroke-width: 0.6"/>
      </g>
     </g>
    </g>
    <g id="xtick_16">
     <g id="line2d_16">
      <g>
       <use xlink:href="#m16bf360956" x="476.597771" y="640.3905" style="stroke: #000000; stroke-width: 0.6"/>
      </g>
     </g>
    </g>
    <g id="xtick_17">
     <g id="line2d_17">
      <g>
       <use xlink:href="#m16bf360956" x="504.966153" y="640.3905" style="stroke: #000000; stroke-width: 0.6"/>
      </g>
     </g>
    </g>
    <g id="xtick_18">
     <g id="line2d_18">
      <g>
       <use xlink:href="#m16bf360956" x="533.334535" y="640.3905" style="stroke: #000000; stroke-width: 0.6"/>
      </g>
     </g>
    </g>
    <g id="xtick_19">
     <g id="line2d_19">
      <g>
       <use xlink:href="#m16bf360956" x="590.071298" y="640.3905" style="stroke: #000000; stroke-width: 0.6"/>
      </g>
     </g>
    </g>
    <g id="xtick_20">
     <g id="line2d_20">
      <g>
       <use xlink:href="#m16bf360956" x="618.43968" y="640.3905" style="stroke: #000000; stroke-width: 0.6"/>
      </g>
     </g>
    </g>
    <g id="xtick_21">
     <g id="line2d_21">
      <g>
       <use xlink:href="#m16bf360956" x="646.808062" y="640.3905" style="stroke: #000000; stroke-width: 0.6"/>
      </g>
     </g>
    </g>
    <g id="text_7">
     <!-- Time ps -->
     <g transform="translate(338.744432 697.59675) scale(0.3 -0.3)">
      <defs>
       <path id="LiberationSans-54" d="M 2250 3916 
L 2250 0 
L 1656 0 
L 1656 3916 
L 144 3916 
L 144 4403 
L 3763 4403 
L 3763 3916 
L 2250 3916 
z
" transform="scale(0.015625)"/>
       <path id="LiberationSans-69" d="M 428 4100 
L 428 4638 
L 991 4638 
L 991 4100 
L 428 4100 
z
M 428 0 
L 428 3381 
L 991 3381 
L 991 0 
L 428 0 
z
" transform="scale(0.015625)"/>
       <path id="LiberationSans-6d" d="M 2400 0 
L 2400 2144 
Q 2400 2634 2265 2821 
Q 2131 3009 1781 3009 
Q 1422 3009 1212 2734 
Q 1003 2459 1003 1959 
L 1003 0 
L 444 0 
L 444 2659 
Q 444 3250 425 3381 
L 956 3381 
Q 959 3366 962 3297 
Q 966 3228 970 3139 
Q 975 3050 981 2803 
L 991 2803 
Q 1172 3163 1406 3303 
Q 1641 3444 1978 3444 
Q 2363 3444 2586 3291 
Q 2809 3138 2897 2803 
L 2906 2803 
Q 3081 3144 3329 3294 
Q 3578 3444 3931 3444 
Q 4444 3444 4676 3166 
Q 4909 2888 4909 2253 
L 4909 0 
L 4353 0 
L 4353 2144 
Q 4353 2634 4218 2821 
Q 4084 3009 3734 3009 
Q 3366 3009 3161 2736 
Q 2956 2463 2956 1959 
L 2956 0 
L 2400 0 
z
" transform="scale(0.015625)"/>
       <path id="LiberationSans-65" d="M 863 1572 
Q 863 991 1103 675 
Q 1344 359 1806 359 
Q 2172 359 2392 506 
Q 2613 653 2691 878 
L 3184 738 
Q 2881 -63 1806 -63 
Q 1056 -63 664 384 
Q 272 831 272 1713 
Q 272 2550 664 2997 
Q 1056 3444 1784 3444 
Q 3275 3444 3275 1647 
L 3275 1572 
L 863 1572 
z
M 2694 2003 
Q 2647 2538 2422 2783 
Q 2197 3028 1775 3028 
Q 1366 3028 1127 2754 
Q 888 2481 869 2003 
L 2694 2003 
z
" transform="scale(0.015625)"/>
       <path id="LiberationSans-20" transform="scale(0.015625)"/>
       <path id="LiberationSans-70" d="M 3291 1706 
Q 3291 -63 2047 -63 
Q 1266 -63 997 525 
L 981 525 
Q 994 500 994 -6 
L 994 -1328 
L 431 -1328 
L 431 2691 
Q 431 3213 413 3381 
L 956 3381 
Q 959 3369 965 3292 
Q 972 3216 980 3056 
Q 988 2897 988 2838 
L 1000 2838 
Q 1150 3150 1397 3295 
Q 1644 3441 2047 3441 
Q 2672 3441 2981 3022 
Q 3291 2603 3291 1706 
z
M 2700 1694 
Q 2700 2400 2509 2703 
Q 2319 3006 1903 3006 
Q 1569 3006 1380 2865 
Q 1191 2725 1092 2426 
Q 994 2128 994 1650 
Q 994 984 1206 668 
Q 1419 353 1897 353 
Q 2316 353 2508 661 
Q 2700 969 2700 1694 
z
" transform="scale(0.015625)"/>
       <path id="LiberationSans-73" d="M 2969 934 
Q 2969 456 2608 196 
Q 2247 -63 1597 -63 
Q 966 -63 623 145 
Q 281 353 178 794 
L 675 891 
Q 747 619 972 492 
Q 1197 366 1597 366 
Q 2025 366 2223 497 
Q 2422 628 2422 891 
Q 2422 1091 2284 1216 
Q 2147 1341 1841 1422 
L 1438 1528 
Q 953 1653 748 1773 
Q 544 1894 428 2066 
Q 313 2238 313 2488 
Q 313 2950 642 3192 
Q 972 3434 1603 3434 
Q 2163 3434 2492 3237 
Q 2822 3041 2909 2606 
L 2403 2544 
Q 2356 2769 2151 2889 
Q 1947 3009 1603 3009 
Q 1222 3009 1040 2893 
Q 859 2778 859 2544 
Q 859 2400 934 2306 
Q 1009 2213 1156 2147 
Q 1303 2081 1775 1966 
Q 2222 1853 2419 1758 
Q 2616 1663 2730 1547 
Q 2844 1431 2906 1279 
Q 2969 1128 2969 934 
z
" transform="scale(0.015625)"/>
      </defs>
      <use xlink:href="#LiberationSans-54"/>
      <use xlink:href="#LiberationSans-69" x="57.333984"/>
      <use xlink:href="#LiberationSans-6d" x="79.550781"/>
      <use xlink:href="#LiberationSans-65" x="162.851562"/>
      <use xlink:href="#LiberationSans-20" x="218.466797"/>
      <use xlink:href="#LiberationSans-70" x="246.25"/>
      <use xlink:href="#LiberationSans-73" x="301.865234"/>
     </g>
    </g>
   </g>
   <g id="matplotlib.axis_2">
    <g id="ytick_1">
     <g id="line2d_22">
      <defs>
       <path id="m583ce34e53" d="M 0 0 
L 3.5 0 
" style="stroke: #000000; stroke-width: 0.8"/>
      </defs>
      <g>
       <use xlink:href="#m583ce34e53" x="79.5" y="600.154497" style="stroke: #000000; stroke-width: 0.8"/>
      </g>
     </g>
     <g id="text_8">
      <!-- $\mathdefault{−2}$ -->
      <g transform="translate(41.5 611.02481) scale(0.3 -0.3)">
       <defs>
        <path id="LiberationSans-2212" d="M 316 1900 
L 316 2356 
L 3425 2356 
L 3425 1900 
L 316 1900 
z
" transform="scale(0.015625)"/>
       </defs>
       <use xlink:href="#LiberationSans-2212" transform="translate(0 0.171875)"/>
       <use xlink:href="#LiberationSans-32" transform="translate(58.398438 0.171875)"/>
      </g>
     </g>
    </g>
    <g id="ytick_2">
     <g id="line2d_23">
      <g>
       <use xlink:href="#m583ce34e53" x="79.5" y="498.115001" style="stroke: #000000; stroke-width: 0.8"/>
      </g>
     </g>
     <g id="text_9">
      <!-- $\mathdefault{0}$ -->
      <g transform="translate(59.2 508.985314) scale(0.3 -0.3)">
       <use xlink:href="#LiberationSans-30" transform="translate(0 0.171875)"/>
      </g>
     </g>
    </g>
    <g id="ytick_3">
     <g id="line2d_24">
      <g>
       <use xlink:href="#m583ce34e53" x="79.5" y="396.075505" style="stroke: #000000; stroke-width: 0.8"/>
      </g>
     </g>
     <g id="text_10">
      <!-- $\mathdefault{2}$ -->
      <g transform="translate(59.2 406.945818) scale(0.3 -0.3)">
       <use xlink:href="#LiberationSans-32" transform="translate(0 0.171875)"/>
      </g>
     </g>
    </g>
    <g id="ytick_4">
     <g id="line2d_25">
      <g>
       <use xlink:href="#m583ce34e53" x="79.5" y="294.036009" style="stroke: #000000; stroke-width: 0.8"/>
      </g>
     </g>
     <g id="text_11">
      <!-- $\mathdefault{4}$ -->
      <g transform="translate(59.2 304.906321) scale(0.3 -0.3)">
       <use xlink:href="#LiberationSans-34" transform="translate(0 0.203125)"/>
      </g>
     </g>
    </g>
    <g id="ytick_5">
     <g id="line2d_26">
      <g>
       <use xlink:href="#m583ce34e53" x="79.5" y="191.996513" style="stroke: #000000; stroke-width: 0.8"/>
      </g>
     </g>
     <g id="text_12">
      <!-- $\mathdefault{6}$ -->
      <g transform="translate(59.2 202.866825) scale(0.3 -0.3)">
       <use xlink:href="#LiberationSans-36" transform="translate(0 0.171875)"/>
      </g>
     </g>
    </g>
    <g id="ytick_6">
     <g id="line2d_27">
      <g>
       <use xlink:href="#m583ce34e53" x="79.5" y="89.957017" style="stroke: #000000; stroke-width: 0.8"/>
      </g>
     </g>
     <g id="text_13">
      <!-- $\mathdefault{8}$ -->
      <g transform="translate(59.2 100.827329) scale(0.3 -0.3)">
       <use xlink:href="#LiberationSans-38" transform="translate(0 0.171875)"/>
      </g>
     </g>
    </g>
    <g id="ytick_7">
     <g id="line2d_28">
      <defs>
       <path id="md256db9db8" d="M 0 0 
L 2 0 
" style="stroke: #000000; stroke-width: 0.6"/>
      </defs>
      <g>
       <use xlink:href="#md256db9db8" x="79.5" y="625.664371" style="stroke: #000000; stroke-width: 0.6"/>
      </g>
     </g>
    </g>
    <g id="ytick_8">
     <g id="line2d_29">
      <g>
       <use xlink:href="#md256db9db8" x="79.5" y="574.644623" style="stroke: #000000; stroke-width: 0.6"/>
      </g>
     </g>
    </g>
    <g id="ytick_9">
     <g id="line2d_30">
      <g>
       <use xlink:href="#md256db9db8" x="79.5" y="549.134749" style="stroke: #000000; stroke-width: 0.6"/>
      </g>
     </g>
    </g>
    <g id="ytick_10">
     <g id="line2d_31">
      <g>
       <use xlink:href="#md256db9db8" x="79.5" y="523.624875" style="stroke: #000000; stroke-width: 0.6"/>
      </g>
     </g>
    </g>
    <g id="ytick_11">
     <g id="line2d_32">
      <g>
       <use xlink:href="#md256db9db8" x="79.5" y="472.605127" style="stroke: #000000; stroke-width: 0.6"/>
      </g>
     </g>
    </g>
    <g id="ytick_12">
     <g id="line2d_33">
      <g>
       <use xlink:href="#md256db9db8" x="79.5" y="447.095253" style="stroke: #000000; stroke-width: 0.6"/>
      </g>
     </g>
    </g>
    <g id="ytick_13">
     <g id="line2d_34">
      <g>
       <use xlink:href="#md256db9db8" x="79.5" y="421.585379" style="stroke: #000000; stroke-width: 0.6"/>
      </g>
     </g>
    </g>
    <g id="ytick_14">
     <g id="line2d_35">
      <g>
       <use xlink:href="#md256db9db8" x="79.5" y="370.565631" style="stroke: #000000; stroke-width: 0.6"/>
      </g>
     </g>
    </g>
    <g id="ytick_15">
     <g id="line2d_36">
      <g>
       <use xlink:href="#md256db9db8" x="79.5" y="345.055757" style="stroke: #000000; stroke-width: 0.6"/>
      </g>
     </g>
    </g>
    <g id="ytick_16">
     <g id="line2d_37">
      <g>
       <use xlink:href="#md256db9db8" x="79.5" y="319.545883" style="stroke: #000000; stroke-width: 0.6"/>
      </g>
     </g>
    </g>
    <g id="ytick_17">
     <g id="line2d_38">
      <g>
       <use xlink:href="#md256db9db8" x="79.5" y="268.526135" style="stroke: #000000; stroke-width: 0.6"/>
      </g>
     </g>
    </g>
    <g id="ytick_18">
     <g id="line2d_39">
      <g>
       <use xlink:href="#md256db9db8" x="79.5" y="243.016261" style="stroke: #000000; stroke-width: 0.6"/>
      </g>
     </g>
    </g>
    <g id="ytick_19">
     <g id="line2d_40">
      <g>
       <use xlink:href="#md256db9db8" x="79.5" y="217.506387" style="stroke: #000000; stroke-width: 0.6"/>
      </g>
     </g>
    </g>
    <g id="ytick_20">
     <g id="line2d_41">
      <g>
       <use xlink:href="#md256db9db8" x="79.5" y="166.486639" style="stroke: #000000; stroke-width: 0.6"/>
      </g>
     </g>
    </g>
    <g id="ytick_21">
     <g id="line2d_42">
      <g>
       <use xlink:href="#md256db9db8" x="79.5" y="140.976765" style="stroke: #000000; stroke-width: 0.6"/>
      </g>
     </g>
    </g>
    <g id="ytick_22">
     <g id="line2d_43">
      <g>
       <use xlink:href="#md256db9db8" x="79.5" y="115.466891" style="stroke: #000000; stroke-width: 0.6"/>
      </g>
     </g>
    </g>
    <g id="ytick_23">
     <g id="line2d_44">
      <g>
       <use xlink:href="#md256db9db8" x="79.5" y="64.447143" style="stroke: #000000; stroke-width: 0.6"/>
      </g>
     </g>
    </g>
    <g id="text_14">
     <!-- HFACF $(\mathrm{W} / \mathrm{m}^2)^2$ -->
     <g transform="translate(31.275 446.289) rotate(-90) scale(0.3 -0.3)">
      <defs>
       <path id="LiberationSans-48" d="M 3503 0 
L 3503 2041 
L 1122 2041 
L 1122 0 
L 525 0 
L 525 4403 
L 1122 4403 
L 1122 2541 
L 3503 2541 
L 3503 4403 
L 4100 4403 
L 4100 0 
L 3503 0 
z
" transform="scale(0.015625)"/>
       <path id="LiberationSans-46" d="M 1122 3916 
L 1122 2278 
L 3578 2278 
L 3578 1784 
L 1122 1784 
L 1122 0 
L 525 0 
L 525 4403 
L 3653 4403 
L 3653 3916 
L 1122 3916 
z
" transform="scale(0.015625)"/>
       <path id="LiberationSans-41" d="M 3647 0 
L 3144 1288 
L 1138 1288 
L 631 0 
L 13 0 
L 1809 4403 
L 2488 4403 
L 4256 0 
L 3647 0 
z
M 2141 3953 
L 2113 3866 
Q 2034 3606 1881 3200 
L 1319 1753 
L 2966 1753 
L 2400 3206 
Q 2313 3422 2225 3694 
L 2141 3953 
z
" transform="scale(0.015625)"/>
       <path id="LiberationSans-43" d="M 2475 3981 
Q 1744 3981 1337 3511 
Q 931 3041 931 2222 
Q 931 1413 1354 920 
Q 1778 428 2500 428 
Q 3425 428 3891 1344 
L 4378 1100 
Q 4106 531 3614 234 
Q 3122 -63 2472 -63 
Q 1806 -63 1320 214 
Q 834 491 579 1005 
Q 325 1519 325 2222 
Q 325 3275 894 3872 
Q 1463 4469 2469 4469 
Q 3172 4469 3644 4194 
Q 4116 3919 4338 3378 
L 3772 3191 
Q 3619 3575 3280 3778 
Q 2941 3981 2475 3981 
z
" transform="scale(0.015625)"/>
       <path id="STIXGeneral-Regular-28" d="M 1946 -1030 
L 1869 -1133 
Q 1126 -710 716 32 
Q 307 774 307 1613 
Q 307 3386 1888 4326 
L 1946 4224 
Q 1293 3667 1075 3126 
Q 858 2586 858 1632 
Q 858 685 1082 96 
Q 1306 -493 1946 -1030 
z
" transform="scale(0.015625)"/>
       <path id="STIXGeneral-Regular-57" d="M 5965 4237 
L 5965 4115 
Q 5709 4064 5616 3990 
Q 5523 3917 5434 3667 
Q 4704 1709 4128 -70 
L 4032 -70 
Q 3642 1011 3008 2637 
L 2022 -70 
L 1926 -70 
Q 1709 576 1277 1753 
Q 845 2931 698 3347 
Q 538 3808 406 3958 
Q 275 4109 32 4115 
L 32 4237 
L 1594 4237 
L 1594 4115 
Q 1357 4109 1270 4064 
Q 1184 4019 1184 3917 
Q 1184 3808 1254 3616 
L 2176 1210 
L 2842 3021 
L 2662 3501 
Q 2509 3917 2400 4013 
Q 2291 4109 2010 4115 
L 2010 4237 
L 3706 4237 
L 3706 4115 
Q 3213 4102 3213 3891 
Q 3213 3808 3322 3520 
L 4237 1190 
L 5043 3360 
Q 5152 3667 5152 3853 
Q 5152 4109 4704 4115 
L 4704 4237 
L 5965 4237 
z
" transform="scale(0.015625)"/>
       <path id="STIXGeneral-Regular-2f" d="M 1837 4326 
L 378 -90 
L -58 -90 
L 1408 4326 
L 1837 4326 
z
" transform="scale(0.015625)"/>
       <path id="STIXGeneral-Regular-6d" d="M 4960 0 
L 3565 0 
L 3565 96 
Q 3834 122 3907 208 
Q 3981 294 3981 576 
L 3981 1894 
Q 3981 2278 3869 2444 
Q 3757 2611 3488 2611 
Q 3264 2611 3107 2521 
Q 2950 2432 2803 2221 
L 2803 608 
Q 2803 301 2896 201 
Q 2989 102 3264 96 
L 3264 0 
L 1830 0 
L 1830 96 
Q 2112 115 2189 188 
Q 2266 262 2266 550 
L 2266 1901 
Q 2266 2611 1850 2611 
Q 1670 2611 1468 2531 
Q 1267 2451 1171 2336 
Q 1088 2240 1088 2227 
L 1088 448 
Q 1088 243 1177 176 
Q 1267 109 1523 96 
L 1523 0 
L 102 0 
L 102 96 
Q 371 102 460 195 
Q 550 288 550 563 
L 550 2150 
Q 550 2387 499 2480 
Q 448 2573 326 2573 
Q 230 2573 122 2547 
L 122 2656 
Q 557 2778 1011 2944 
L 1062 2925 
L 1062 2451 
L 1075 2451 
Q 1363 2752 1584 2848 
Q 1805 2944 2054 2944 
Q 2560 2944 2733 2406 
Q 3232 2944 3776 2944 
Q 4518 2944 4518 1792 
L 4518 493 
Q 4518 282 4582 202 
Q 4646 122 4794 109 
L 4960 96 
L 4960 0 
z
" transform="scale(0.015625)"/>
       <path id="STIXGeneral-Regular-32" d="M 3034 877 
L 2688 0 
L 186 0 
L 186 77 
L 1325 1286 
Q 1773 1754 1965 2144 
Q 2157 2534 2157 2950 
Q 2157 3379 1920 3616 
Q 1683 3853 1267 3853 
Q 922 3853 720 3673 
Q 518 3494 326 3021 
L 192 3053 
Q 301 3648 630 3987 
Q 960 4326 1523 4326 
Q 2054 4326 2380 4006 
Q 2707 3686 2707 3200 
Q 2707 2477 1888 1613 
L 832 486 
L 2330 486 
Q 2541 486 2665 569 
Q 2790 653 2944 915 
L 3034 877 
z
" transform="scale(0.015625)"/>
       <path id="STIXGeneral-Regular-29" d="M 186 4224 
L 262 4326 
Q 992 3891 1408 3148 
Q 1824 2406 1824 1581 
Q 1824 -166 243 -1133 
L 186 -1030 
Q 845 -486 1059 54 
Q 1274 595 1274 1562 
Q 1274 2534 1059 3120 
Q 845 3706 186 4224 
z
" transform="scale(0.015625)"/>
      </defs>
      <use xlink:href="#LiberationSans-48" transform="translate(0 0.409375)"/>
      <use xlink:href="#LiberationSans-46" transform="translate(72.216797 0.409375)"/>
      <use xlink:href="#LiberationSans-41" transform="translate(133.300781 0.409375)"/>
      <use xlink:href="#LiberationSans-43" transform="translate(200 0.409375)"/>
      <use xlink:href="#LiberationSans-46" transform="translate(272.216797 0.409375)"/>
      <use xlink:href="#LiberationSans-20" transform="translate(333.300781 0.409375)"/>
      <use xlink:href="#STIXGeneral-Regular-28" transform="translate(361.083984 0.409375)"/>
      <use xlink:href="#STIXGeneral-Regular-57" transform="translate(394.383972 0.409375)"/>
      <use xlink:href="#STIXGeneral-Regular-2f" transform="translate(488.783966 0.409375)"/>
      <use xlink:href="#STIXGeneral-Regular-6d" transform="translate(516.583954 0.409375)"/>
      <use xlink:href="#STIXGeneral-Regular-32" transform="translate(595.927223 35.684375) scale(0.7)"/>
      <use xlink:href="#STIXGeneral-Regular-29" transform="translate(635.336587 0.409375)"/>
      <use xlink:href="#STIXGeneral-Regular-32" transform="translate(670.179856 35.684375) scale(0.7)"/>
     </g>
    </g>
    <g id="text_15">
     <!-- $\times\mathdefault{10^{18}}\mathdefault{}$ -->
     <g transform="translate(79.5 36.1875) scale(0.4 -0.4)">
      <defs>
       <path id="STIXGeneral-Regular-d7" d="M 3821 141 
L 3526 -160 
L 2048 1312 
L 570 -160 
L 275 134 
L 1747 1613 
L 275 3091 
L 576 3386 
L 2048 1914 
L 3526 3386 
L 3821 3098 
L 2349 1613 
L 3821 141 
z
" transform="scale(0.015625)"/>
      </defs>
      <use xlink:href="#STIXGeneral-Regular-d7" transform="translate(0 0.140625)"/>
      <use xlink:href="#LiberationSans-31" transform="translate(63.999985 0.140625)"/>
      <use xlink:href="#LiberationSans-30" transform="translate(119.615219 0.140625)"/>
      <use xlink:href="#LiberationSans-31" transform="translate(176.154946 37.120312) scale(0.7)"/>
      <use xlink:href="#LiberationSans-38" transform="translate(215.08561 37.120312) scale(0.7)"/>
     </g>
    </g>
   </g>
   <g id="line2d_45">
    <path d="M 107.865545 66.514909 
L 108.092492 76.667619 
L 108.376176 94.673743 
L 108.773333 135.465066 
L 109.397438 226.705141 
L 111.269751 518.758558 
L 111.837118 571.217277 
L 112.291012 596.971504 
L 112.68817 608.988343 
L 112.971854 612.590314 
L 113.142064 613.063091 
L 113.255537 612.802143 
L 113.482485 611.030911 
L 113.822905 605.985529 
L 114.447009 592.223713 
L 116.659743 540.228397 
L 117.567531 524.328422 
L 118.418583 512.728442 
L 119.212898 504.739285 
L 119.893739 499.629672 
L 120.631317 495.549274 
L 121.312158 492.95713 
L 121.879526 491.446375 
L 122.33342 490.683193 
L 122.730577 490.342733 
L 122.957524 490.285795 
L 123.241208 490.328587 
L 123.524892 490.533074 
L 124.26247 491.738714 
L 124.7731 492.895163 
L 127.099308 498.634138 
L 128.914884 502.63536 
L 129.368778 503.2703 
L 129.765936 503.606568 
L 130.276567 503.650046 
L 130.730461 503.395529 
L 131.184355 502.874345 
L 131.808459 501.88548 
L 133.624036 498.000189 
L 135.382875 494.50944 
L 135.836769 494.043922 
L 136.233927 493.941865 
L 136.574347 494.195566 
L 137.028241 494.730905 
L 137.595609 495.739641 
L 138.389924 497.490476 
L 139.694869 500.121265 
L 140.37571 500.894987 
L 140.886341 501.093618 
L 141.283499 501.018113 
L 141.737393 500.694455 
L 142.248024 500.080777 
L 143.212549 498.443723 
L 144.460757 496.389439 
L 145.028125 495.804924 
L 145.538756 495.561917 
L 145.99265 495.586808 
L 146.503281 495.868329 
L 147.127385 496.501983 
L 149.283382 498.965416 
L 149.85075 499.228175 
L 150.474854 499.231968 
L 150.985485 499.057867 
L 151.893273 498.420823 
L 153.87906 496.810683 
L 154.446428 496.595426 
L 155.070532 496.632621 
L 155.6379 496.900948 
L 156.545688 497.766085 
L 158.758422 500.184405 
L 159.269053 500.350135 
L 159.66621 500.315112 
L 160.063367 500.128928 
L 160.630735 499.620417 
L 161.481786 498.486633 
L 163.183889 496.091264 
L 163.978204 495.514058 
L 164.432098 495.429536 
L 164.829255 495.510934 
L 165.396623 495.866545 
L 166.077464 496.556938 
L 168.517145 499.1713 
L 169.14125 499.466885 
L 169.822091 499.526915 
L 170.446195 499.34824 
L 171.070299 498.987637 
L 172.318508 497.9092 
L 173.623454 496.900297 
L 174.474505 496.656655 
L 175.09861 496.739092 
L 175.892924 497.130743 
L 178.048921 498.441461 
L 178.843236 498.60042 
L 179.580814 498.57388 
L 180.772286 498.170602 
L 183.438914 496.978046 
L 184.063018 497.015024 
L 184.630386 497.219256 
L 185.367964 497.712923 
L 188.034592 499.744287 
L 188.545223 499.811967 
L 189.169327 499.633609 
L 189.793431 499.194105 
L 190.644483 498.23388 
L 192.460059 496.074714 
L 193.027427 495.789837 
L 193.424584 495.784105 
L 193.878478 495.972589 
L 194.389109 496.412189 
L 195.523845 497.934204 
L 196.65858 499.396948 
L 197.282684 499.842551 
L 197.793315 499.93579 
L 198.247209 499.801043 
L 198.871314 499.329998 
L 199.779102 498.276091 
L 200.68689 497.243453 
L 201.367731 496.763036 
L 201.935099 496.630106 
L 202.559203 496.748254 
L 203.580465 497.335564 
L 204.998884 498.249726 
L 205.963409 498.581784 
L 206.871197 498.617401 
L 207.778985 498.396836 
L 208.5733 497.997236 
L 211.183191 496.222776 
L 212.09098 496.049048 
L 212.658347 496.181245 
L 213.168978 496.46534 
L 214.020029 497.297052 
L 215.211502 498.857463 
L 216.176026 499.914973 
L 216.743394 500.220058 
L 217.197288 500.234315 
L 217.764656 499.936254 
L 218.502234 499.076896 
L 220.885178 495.627714 
L 221.339072 495.394831 
L 221.566019 495.425958 
L 222.019913 495.580905 
L 222.644018 496.139775 
L 225.197172 499.219765 
L 225.707803 499.411652 
L 226.161697 499.398109 
L 226.672328 499.179191 
L 227.296432 498.709273 
L 229.565903 496.785078 
L 230.13327 496.651199 
L 230.700638 496.711522 
L 231.438216 497.053126 
L 232.06232 497.493959 
L 233.707686 498.560246 
L 234.331791 498.705801 
L 234.955895 498.669189 
L 235.75021 498.366931 
L 236.657998 497.755086 
L 238.360101 496.541153 
L 238.984205 496.358144 
L 239.4381 496.381489 
L 240.005467 496.637054 
L 240.686308 497.235549 
L 241.70757 498.504366 
L 242.955779 499.926752 
L 243.523146 500.298427 
L 244.033777 500.409014 
L 244.487671 500.323312 
L 244.998302 500.034085 
L 245.73588 499.298424 
L 246.870616 497.708485 
L 248.175561 495.850378 
L 248.913139 495.159239 
L 249.480507 494.932536 
L 249.934401 494.967877 
L 250.445032 495.24606 
L 251.012399 495.797272 
L 253.792501 499.328302 
L 254.303132 499.635527 
L 254.870499 499.747343 
L 255.494604 499.590122 
L 256.288918 499.023298 
L 257.423654 497.838707 
L 258.444915 496.975544 
L 259.06902 496.728715 
L 259.636387 496.749908 
L 260.203755 497.003383 
L 260.941333 497.60352 
L 262.529962 498.963768 
L 263.154067 499.133726 
L 263.664698 499.037695 
L 264.288802 498.672705 
L 265.3668 497.618389 
L 266.558272 496.455787 
L 267.182377 496.108309 
L 267.749745 496.006748 
L 268.317112 496.130154 
L 269.05469 496.59578 
L 270.019215 497.584252 
L 272.231949 499.974777 
L 272.74258 500.214753 
L 273.196474 500.266456 
L 273.707105 500.105904 
L 274.217736 499.715211 
L 274.898577 498.867407 
L 275.919838 497.121398 
L 276.9411 495.434719 
L 277.508468 494.832847 
L 278.075835 494.583595 
L 278.359519 494.732153 
L 278.87015 495.162566 
L 279.437518 495.936855 
L 280.061622 496.997382 
L 281.650252 499.617444 
L 282.444566 500.30252 
L 282.89846 500.424861 
L 283.352354 500.342439 
L 284.033196 499.896907 
L 284.770774 499.10916 
L 286.132456 497.55534 
L 286.926771 496.995235 
L 287.607612 496.852744 
L 288.118243 496.947004 
L 288.912557 497.380084 
L 291.635922 499.119621 
L 292.260026 499.174578 
L 293.167815 498.887621 
L 293.962129 498.275224 
L 294.699707 497.495384 
L 295.947916 496.255347 
L 296.515284 495.936471 
L 297.082651 495.869243 
L 297.593282 496.055597 
L 298.217387 496.581143 
L 298.841491 497.345402 
L 300.600331 499.652639 
L 301.110961 500.012785 
L 301.564856 500.136287 
L 302.01875 500.044183 
L 302.586117 499.639897 
L 303.266958 498.823207 
L 305.536429 495.636971 
L 306.04706 495.321245 
L 306.614428 495.283933 
L 307.125058 495.510209 
L 307.97611 496.332659 
L 310.24558 498.901168 
L 310.869685 499.204817 
L 311.493789 499.238427 
L 312.117894 499.052956 
L 312.798735 498.665166 
L 315.181679 497.133401 
L 315.86252 496.989228 
L 316.656835 497.127258 
L 317.280939 497.475632 
L 318.245464 498.276738 
L 319.436936 499.313247 
L 320.174514 499.700332 
L 320.685145 499.783686 
L 321.139039 499.712875 
L 321.706407 499.416221 
L 322.443985 498.73767 
L 323.351773 497.616523 
L 324.429771 496.297301 
L 325.167349 495.705148 
L 325.621243 495.550308 
L 326.075137 495.585955 
L 326.642505 495.924069 
L 327.323346 496.724461 
L 328.401345 498.53022 
L 329.36587 500.031679 
L 329.933237 500.543279 
L 330.387131 500.662667 
L 330.841026 500.505891 
L 331.351656 500.009387 
L 331.975761 499.047194 
L 333.7346 496.021455 
L 334.245231 495.584338 
L 334.699125 495.473135 
L 335.209756 495.678887 
L 335.890598 496.392855 
L 338.273542 499.521718 
L 338.954383 499.822242 
L 339.635224 499.752571 
L 340.202592 499.457292 
L 340.826696 498.963723 
L 343.663534 496.402916 
L 344.401112 496.203463 
L 345.081953 496.34405 
L 345.819531 496.831311 
L 346.386899 497.357392 
L 348.145738 498.975967 
L 348.656369 499.208127 
L 349.223737 499.261441 
L 349.791105 499.099439 
L 350.585419 498.525876 
L 351.379734 497.693765 
L 352.741416 496.391524 
L 353.308784 496.142889 
L 353.819415 496.146497 
L 354.330046 496.379686 
L 355.010887 497.002802 
L 357.564041 499.959023 
L 358.188146 500.117455 
L 358.755513 499.94035 
L 359.379618 499.393329 
L 360.117196 498.394951 
L 362.159719 495.492867 
L 362.727087 495.194818 
L 363.067507 495.186447 
L 363.578138 495.456697 
L 364.42919 496.422372 
L 365.507188 498.055018 
L 366.414976 499.210294 
L 367.039081 499.669979 
L 367.549712 499.78057 
L 368.003606 499.679456 
L 368.514237 499.341066 
L 369.138341 498.67433 
L 371.521285 495.797261 
L 372.031916 495.588136 
L 372.599284 495.610665 
L 373.280125 495.964233 
L 373.904229 496.507764 
L 377.024751 499.228627 
L 377.875803 499.546987 
L 378.499907 499.56853 
L 379.124011 499.361959 
L 379.861589 498.783496 
L 380.826114 497.698709 
L 381.677166 496.822875 
L 382.187797 496.528377 
L 382.641691 496.487141 
L 383.095585 496.648578 
L 383.549479 497.015878 
L 384.173583 497.768528 
L 385.705476 499.743733 
L 386.216107 500.072908 
L 386.613264 500.142542 
L 386.953685 500.059083 
L 387.407579 499.748057 
L 388.145157 498.797027 
L 388.996208 497.264523 
L 390.471364 494.740587 
L 390.981995 494.246277 
L 391.549363 494.037441 
L 391.833046 494.142639 
L 392.28694 494.465966 
L 392.797571 495.12002 
L 393.478412 496.319741 
L 395.293989 499.592187 
L 395.97483 500.298148 
L 396.542198 500.564932 
L 397.109565 500.543908 
L 397.563459 500.345138 
L 398.244301 499.776709 
L 399.492509 498.277537 
L 400.683981 497.029551 
L 401.308086 496.695309 
L 401.93219 496.666633 
L 402.442821 496.87246 
L 403.180399 497.425883 
L 405.279659 499.215888 
L 405.79029 499.380488 
L 406.300921 499.385947 
L 406.925025 499.14499 
L 407.605867 498.624553 
L 410.159021 496.054692 
L 410.783125 495.88143 
L 411.350493 495.990718 
L 411.974597 496.405617 
L 412.768912 497.275434 
L 414.187331 498.970773 
L 414.924909 499.494655 
L 415.549013 499.60757 
L 416.059644 499.466567 
L 416.627012 499.077684 
L 417.307853 498.341445 
L 418.669535 496.546561 
L 419.407113 495.764553 
L 419.974481 495.442046 
L 420.314902 495.415793 
L 420.882269 495.666565 
L 421.3929 496.169388 
L 422.130478 497.228865 
L 423.605634 499.562331 
L 424.286475 500.263103 
L 424.740369 500.498941 
L 425.194263 500.523587 
L 425.761631 500.272401 
L 426.328999 499.746085 
L 427.236787 498.560756 
L 428.484996 496.929282 
L 429.1091 496.390313 
L 429.733204 496.136676 
L 430.300572 496.176906 
L 430.86794 496.464707 
L 431.662254 497.14807 
L 433.704778 498.854208 
L 434.385619 499.00732 
L 435.009723 498.913502 
L 435.860775 498.498681 
L 438.016772 497.145438 
L 438.697613 497.009274 
L 439.435191 497.14778 
L 440.116032 497.557043 
L 441.194031 498.605207 
L 442.385503 499.759774 
L 443.066344 500.104509 
L 443.576975 500.12721 
L 444.144342 499.895819 
L 444.995394 499.117115 
L 447.662022 496.254815 
L 448.286126 496.042739 
L 448.513073 496.110087 
L 449.080441 496.32832 
L 449.704545 496.787503 
L 451.860542 498.764592 
L 452.881804 499.139705 
L 453.505908 499.08437 
L 454.130013 498.827152 
L 454.924327 498.303381 
L 456.172536 497.395526 
L 456.966851 497.070615 
L 457.590955 497.025619 
L 458.271796 497.189912 
L 459.122848 497.6175 
L 460.598004 498.356001 
L 461.449055 498.493277 
L 462.470317 498.253618 
L 463.718526 497.52853 
L 466.158207 495.882957 
L 466.668837 495.774555 
L 467.236205 495.852762 
L 467.803573 496.160788 
L 468.484414 496.831119 
L 469.732623 498.642696 
L 470.924095 500.19236 
L 471.548199 500.589497 
L 472.002093 500.631199 
L 472.455987 500.462294 
L 472.909881 500.086819 
L 473.477249 499.378634 
L 476.143877 495.487669 
L 476.654508 495.214299 
L 476.881455 495.245899 
L 477.335349 495.371983 
L 478.01619 495.884623 
L 478.526821 496.429752 
L 480.455871 498.481037 
L 481.079975 498.798668 
L 481.647343 498.8496 
L 482.271447 498.657019 
L 483.235972 497.965995 
L 484.711128 496.870135 
L 485.278496 496.709143 
L 485.959337 496.796539 
L 486.583441 497.107241 
L 487.547966 497.824438 
L 488.625965 498.545754 
L 489.59049 498.880897 
L 490.725225 498.892167 
L 491.973434 498.556808 
L 493.051432 497.967464 
L 495.093956 496.516804 
L 495.774797 496.307437 
L 496.342165 496.371292 
L 496.852796 496.606572 
L 497.64711 497.302994 
L 500.030054 499.802863 
L 500.654159 499.971719 
L 501.16479 499.859552 
L 501.732157 499.47896 
L 502.526472 498.598711 
L 504.171838 496.615515 
L 504.795943 496.264482 
L 505.249837 496.243941 
L 505.760467 496.440182 
L 506.327835 496.886019 
L 508.143412 499.093892 
L 508.824253 499.736592 
L 509.39162 500.034782 
L 509.788778 500.09365 
L 510.356145 499.921344 
L 510.810039 499.599424 
L 511.604354 498.687201 
L 513.476667 496.288737 
L 514.157508 495.926648 
L 514.668139 495.929866 
L 515.17877 496.154344 
L 515.916348 496.819758 
L 517.958872 498.845003 
L 518.582976 499.055607 
L 519.093607 499.025071 
L 519.831185 498.674354 
L 520.455289 498.174388 
L 522.668023 496.215076 
L 523.178654 496.056699 
L 523.632548 496.087796 
L 524.256652 496.399408 
L 524.99423 497.080707 
L 527.433911 499.823141 
L 528.058016 500.050955 
L 528.455173 500.014904 
L 528.85233 499.823881 
L 529.362961 499.346402 
L 530.043802 498.37025 
L 532.313273 494.630461 
L 532.823904 494.248279 
L 533.391271 494.147861 
L 533.674955 494.370743 
L 534.29906 495.004399 
L 535.320321 496.454669 
L 537.022424 498.796528 
L 537.589792 499.319616 
L 538.157159 499.622795 
L 538.724527 499.649642 
L 539.235158 499.467393 
L 539.859262 499.005398 
L 541.901786 497.217654 
L 542.469153 497.041776 
L 543.036521 497.092099 
L 543.603889 497.344385 
L 544.62515 498.122336 
L 546.04357 499.190068 
L 546.894621 499.546158 
L 547.745672 499.582551 
L 548.369777 499.396591 
L 549.277565 498.738443 
L 549.90167 498.073254 
L 551.433562 496.371907 
L 552.00093 496.040471 
L 552.511561 495.998696 
L 552.965455 496.180012 
L 553.476086 496.612473 
L 554.327137 497.748739 
L 555.688819 499.684469 
L 556.256187 500.142534 
L 556.653344 500.271053 
L 557.107238 500.196999 
L 557.561133 499.892736 
L 558.015027 499.379262 
L 558.639131 498.419181 
L 560.454708 495.502858 
L 561.078812 495.02132 
L 561.532706 494.951506 
L 561.929863 495.105774 
L 562.497231 495.616036 
L 563.291546 496.679199 
L 564.880175 498.84421 
L 565.504279 499.332611 
L 566.128384 499.53527 
L 566.639015 499.491782 
L 567.490066 499.059699 
L 568.397854 498.283515 
L 569.7028 497.159072 
L 570.497115 496.800468 
L 571.177956 496.784126 
L 572.029007 497.098815 
L 574.695635 498.53747 
L 575.48995 498.490711 
L 576.057317 498.295346 
L 577.192053 497.652668 
L 578.553735 496.834495 
L 579.234576 496.623278 
L 579.858681 496.628745 
L 580.539522 496.892929 
L 581.44731 497.615293 
L 582.582045 498.792678 
L 583.319623 499.456436 
L 584.057201 499.797269 
L 584.567832 499.790215 
L 585.191936 499.520337 
L 585.702567 499.109163 
L 586.837303 497.813037 
L 588.255722 496.210337 
L 588.823089 495.786852 
L 589.560667 495.544894 
L 590.298245 495.671469 
L 590.92235 496.065858 
L 591.659927 496.826058 
L 593.475504 498.890624 
L 594.156345 499.301829 
L 594.780449 499.372155 
L 595.234344 499.237529 
L 595.858448 498.802231 
L 596.652763 497.916038 
L 598.638549 495.765757 
L 599.14918 495.58108 
L 599.716548 495.626624 
L 600.397389 496.026837 
L 601.191704 496.828718 
L 602.496649 498.358425 
L 603.290964 499.035672 
L 604.028542 499.327665 
L 604.652646 499.303364 
L 605.220014 499.071955 
L 606.014329 498.432368 
L 606.751907 497.608539 
L 608.113589 496.14301 
L 608.79443 495.772256 
L 609.305061 495.760769 
L 609.815692 496.012559 
L 610.326323 496.493617 
L 611.177374 497.707554 
L 612.709267 500.039309 
L 613.276634 500.528119 
L 613.730528 500.671396 
L 614.184423 500.551715 
L 614.638317 500.193594 
L 615.262421 499.326397 
L 615.886525 498.13761 
L 617.588628 494.877318 
L 618.099259 494.360935 
L 618.553153 494.234928 
L 618.893574 494.347083 
L 619.460942 494.922991 
L 620.028309 495.897162 
L 621.276518 498.667345 
L 622.070833 500.16095 
L 622.694937 500.840481 
L 623.092094 500.997878 
L 623.489252 500.932709 
L 623.999883 500.5511 
L 624.56725 499.822638 
L 625.701986 497.903832 
L 626.666511 496.459306 
L 627.404088 495.823194 
L 627.801246 495.680895 
L 628.311877 495.718049 
L 628.879244 496.029388 
L 629.503349 496.651197 
L 630.297663 497.661903 
L 631.262188 498.833738 
L 631.999766 499.374575 
L 632.623871 499.497599 
L 633.077765 499.400445 
L 633.87208 498.874583 
L 634.723131 498.019339 
L 635.801129 496.918377 
L 636.822391 496.290196 
L 637.446496 496.189373 
L 638.0706 496.302165 
L 638.864915 496.714024 
L 639.715966 497.41904 
L 641.361332 498.95744 
L 641.9287 499.276619 
L 642.382594 499.38405 
L 642.893225 499.311838 
L 643.460593 498.980252 
L 644.02796 498.407836 
L 645.219432 496.753826 
L 646.070484 495.694097 
L 646.637851 495.311358 
L 647.091745 495.269404 
L 647.488903 495.448112 
L 647.942797 495.896455 
L 648.623638 496.954868 
L 650.779635 500.552575 
L 651.290266 500.885978 
L 651.74416 500.921638 
L 652.311528 500.651078 
L 653.105842 499.820899 
L 655.318576 497.063162 
L 655.999417 496.742845 
L 656.510048 496.759005 
L 657.020679 496.98351 
L 657.758257 497.642526 
L 660.197938 500.091974 
L 660.651832 500.194582 
L 661.162463 500.098797 
L 661.72983 499.7581 
L 662.410672 499.06304 
L 663.148249 498.10082 
L 664.396458 496.553555 
L 665.020563 496.093549 
L 665.474457 495.980276 
L 666.041824 496.127308 
L 666.609192 496.57774 
L 667.34677 497.550895 
L 669.27582 500.476058 
L 669.843188 500.854921 
L 670.297082 500.870997 
L 670.637502 500.702452 
L 671.091396 500.23534 
L 671.772238 499.075326 
L 672.793499 496.70119 
L 673.984971 494.066913 
L 674.552339 493.263805 
L 675.006233 492.96188 
L 675.176443 492.934619 
L 675.176443 492.934619 
" clip-path="url(#pfcd5677bae)" style="fill: none; stroke: #0000ff; stroke-width: 1.5; stroke-linecap: square"/>
   </g>
   <g id="patch_3">
    <path d="M 79.5 640.3905 
L 79.5 39.1875 
" style="fill: none; stroke: #000000; stroke-width: 0.8; stroke-linejoin: miter; stroke-linecap: square"/>
   </g>
   <g id="patch_4">
    <path d="M 703.541988 640.3905 
L 703.541988 39.1875 
" style="fill: none; stroke: #000000; stroke-width: 0.8; stroke-linejoin: miter; stroke-linecap: square"/>
   </g>
   <g id="patch_5">
    <path d="M 79.5 640.3905 
L 703.541988 640.3905 
" style="fill: none; stroke: #000000; stroke-width: 0.8; stroke-linejoin: miter; stroke-linecap: square"/>
   </g>
   <g id="patch_6">
    <path d="M 79.5 39.1875 
L 703.541988 39.1875 
" style="fill: none; stroke: #000000; stroke-width: 0.8; stroke-linejoin: miter; stroke-linecap: square"/>
   </g>
  </g>
 </g>
 <defs>
  <clipPath id="pfcd5677bae">
   <rect x="79.5" y="39.1875" width="624.041988" height="601.203"/>
  </clipPath>
 </defs>
</svg>
