<?xml version="1.0" encoding="utf-8" standalone="no"?>
<!DOCTYPE svg PUBLIC "-//W3C//DTD SVG 1.1//EN"
  "http://www.w3.org/Graphics/SVG/1.1/DTD/svg11.dtd">
<svg xmlns:xlink="http://www.w3.org/1999/xlink" width="710.741988pt" height="711.02175pt" viewBox="0 0 710.741988 711.02175" xmlns="http://www.w3.org/2000/svg" version="1.1">
 <metadata>
  <rdf:RDF xmlns:dc="http://purl.org/dc/elements/1.1/" xmlns:cc="http://creativecommons.org/ns#" xmlns:rdf="http://www.w3.org/1999/02/22-rdf-syntax-ns#">
   <cc:Work>
    <dc:type rdf:resource="http://purl.org/dc/dcmitype/StillImage"/>
    <dc:date>2025-02-03T21:08:58.754197</dc:date>
    <dc:format>image/svg+xml</dc:format>
    <dc:creator>
     <cc:Agent>
      <dc:title>Matplotlib v3.9.3, https://matplotlib.org/</dc:title>
     </cc:Agent>
    </dc:creator>
   </cc:Work>
  </rdf:RDF>
 </metadata>
 <defs>
  <style type="text/css">*{stroke-linejoin: round; stroke-linecap: butt}</style>
 </defs>
 <g id="figure_1">
  <g id="patch_1">
   <path d="M 0 711.02175 
L 710.741988 711.02175 
L 710.741988 0 
L 0 0 
z
" style="fill: #ffffff"/>
  </g>
  <g id="axes_1">
   <g id="patch_2">
    <path d="M 79.5 640.3905 
L 703.541988 640.3905 
L 703.541988 39.1875 
L 79.5 39.1875 
z
" style="fill: #ffffff"/>
   </g>
   <g id="matplotlib.axis_1">
    <g id="xtick_1">
     <g id="line2d_1">
      <defs>
       <path id="mc85c58f5d0" d="M 0 0 
L 0 -3.5 
" style="stroke: #000000; stroke-width: 0.8"/>
      </defs>
      <g>
       <use xlink:href="#mc85c58f5d0" x="107.808808" y="640.3905" style="stroke: #000000; stroke-width: 0.8"/>
      </g>
     </g>
     <g id="text_1">
      <!-- 0 -->
      <g transform="translate(99.467402 665.631125) scale(0.3 -0.3)">
       <defs>
        <path id="LiberationSans-30" d="M 3309 2203 
Q 3309 1100 2920 518 
Q 2531 -63 1772 -63 
Q 1013 -63 631 515 
Q 250 1094 250 2203 
Q 250 3338 620 3903 
Q 991 4469 1791 4469 
Q 2569 4469 2939 3897 
Q 3309 3325 3309 2203 
z
M 2738 2203 
Q 2738 3156 2517 3584 
Q 2297 4013 1791 4013 
Q 1272 4013 1045 3591 
Q 819 3169 819 2203 
Q 819 1266 1048 831 
Q 1278 397 1778 397 
Q 2275 397 2506 840 
Q 2738 1284 2738 2203 
z
" transform="scale(0.015625)"/>
       </defs>
       <use xlink:href="#LiberationSans-30"/>
      </g>
     </g>
    </g>
    <g id="xtick_2">
     <g id="line2d_2">
      <g>
       <use xlink:href="#mc85c58f5d0" x="221.282335" y="640.3905" style="stroke: #000000; stroke-width: 0.8"/>
      </g>
     </g>
     <g id="text_2">
      <!-- 2 -->
      <g transform="translate(212.940929 665.631125) scale(0.3 -0.3)">
       <defs>
        <path id="LiberationSans-32" d="M 322 0 
L 322 397 
Q 481 763 711 1042 
Q 941 1322 1194 1548 
Q 1447 1775 1695 1969 
Q 1944 2163 2144 2356 
Q 2344 2550 2467 2762 
Q 2591 2975 2591 3244 
Q 2591 3606 2378 3806 
Q 2166 4006 1788 4006 
Q 1428 4006 1195 3811 
Q 963 3616 922 3263 
L 347 3316 
Q 409 3844 795 4156 
Q 1181 4469 1788 4469 
Q 2453 4469 2811 4155 
Q 3169 3841 3169 3263 
Q 3169 3006 3051 2753 
Q 2934 2500 2703 2247 
Q 2472 1994 1819 1463 
Q 1459 1169 1246 933 
Q 1034 697 941 478 
L 3238 478 
L 3238 0 
L 322 0 
z
" transform="scale(0.015625)"/>
       </defs>
       <use xlink:href="#LiberationSans-32"/>
      </g>
     </g>
    </g>
    <g id="xtick_3">
     <g id="line2d_3">
      <g>
       <use xlink:href="#mc85c58f5d0" x="334.755862" y="640.3905" style="stroke: #000000; stroke-width: 0.8"/>
      </g>
     </g>
     <g id="text_3">
      <!-- 4 -->
      <g transform="translate(326.414456 665.631125) scale(0.3 -0.3)">
       <defs>
        <path id="LiberationSans-34" d="M 2753 997 
L 2753 0 
L 2222 0 
L 2222 997 
L 147 997 
L 147 1434 
L 2163 4403 
L 2753 4403 
L 2753 1441 
L 3372 1441 
L 3372 997 
L 2753 997 
z
M 2222 3769 
Q 2216 3750 2134 3603 
Q 2053 3456 2013 3397 
L 884 1734 
L 716 1503 
L 666 1441 
L 2222 1441 
L 2222 3769 
z
" transform="scale(0.015625)"/>
       </defs>
       <use xlink:href="#LiberationSans-34"/>
      </g>
     </g>
    </g>
    <g id="xtick_4">
     <g id="line2d_4">
      <g>
       <use xlink:href="#mc85c58f5d0" x="448.229389" y="640.3905" style="stroke: #000000; stroke-width: 0.8"/>
      </g>
     </g>
     <g id="text_4">
      <!-- 6 -->
      <g transform="translate(439.887983 665.631125) scale(0.3 -0.3)">
       <defs>
        <path id="LiberationSans-36" d="M 3278 1441 
Q 3278 744 2900 340 
Q 2522 -63 1856 -63 
Q 1113 -63 719 490 
Q 325 1044 325 2100 
Q 325 3244 734 3856 
Q 1144 4469 1900 4469 
Q 2897 4469 3156 3572 
L 2619 3475 
Q 2453 4013 1894 4013 
Q 1413 4013 1148 3564 
Q 884 3116 884 2266 
Q 1038 2550 1316 2698 
Q 1594 2847 1953 2847 
Q 2563 2847 2920 2465 
Q 3278 2084 3278 1441 
z
M 2706 1416 
Q 2706 1894 2472 2153 
Q 2238 2413 1819 2413 
Q 1425 2413 1183 2183 
Q 941 1953 941 1550 
Q 941 1041 1192 716 
Q 1444 391 1838 391 
Q 2244 391 2475 664 
Q 2706 938 2706 1416 
z
" transform="scale(0.015625)"/>
       </defs>
       <use xlink:href="#LiberationSans-36"/>
      </g>
     </g>
    </g>
    <g id="xtick_5">
     <g id="line2d_5">
      <g>
       <use xlink:href="#mc85c58f5d0" x="561.702916" y="640.3905" style="stroke: #000000; stroke-width: 0.8"/>
      </g>
     </g>
     <g id="text_5">
      <!-- 8 -->
      <g transform="translate(553.36151 665.631125) scale(0.3 -0.3)">
       <defs>
        <path id="LiberationSans-38" d="M 3281 1228 
Q 3281 619 2893 278 
Q 2506 -63 1781 -63 
Q 1075 -63 676 271 
Q 278 606 278 1222 
Q 278 1653 525 1947 
Q 772 2241 1156 2303 
L 1156 2316 
Q 797 2400 589 2681 
Q 381 2963 381 3341 
Q 381 3844 757 4156 
Q 1134 4469 1769 4469 
Q 2419 4469 2795 4162 
Q 3172 3856 3172 3334 
Q 3172 2956 2962 2675 
Q 2753 2394 2391 2322 
L 2391 2309 
Q 2813 2241 3047 1952 
Q 3281 1663 3281 1228 
z
M 2588 3303 
Q 2588 4050 1769 4050 
Q 1372 4050 1164 3862 
Q 956 3675 956 3303 
Q 956 2925 1170 2726 
Q 1384 2528 1775 2528 
Q 2172 2528 2380 2711 
Q 2588 2894 2588 3303 
z
M 2697 1281 
Q 2697 1691 2453 1898 
Q 2209 2106 1769 2106 
Q 1341 2106 1100 1882 
Q 859 1659 859 1269 
Q 859 359 1788 359 
Q 2247 359 2472 579 
Q 2697 800 2697 1281 
z
" transform="scale(0.015625)"/>
       </defs>
       <use xlink:href="#LiberationSans-38"/>
      </g>
     </g>
    </g>
    <g id="xtick_6">
     <g id="line2d_6">
      <g>
       <use xlink:href="#mc85c58f5d0" x="675.176443" y="640.3905" style="stroke: #000000; stroke-width: 0.8"/>
      </g>
     </g>
     <g id="text_6">
      <!-- 10 -->
      <g transform="translate(658.493631 665.631125) scale(0.3 -0.3)">
       <defs>
        <path id="LiberationSans-31" d="M 488 0 
L 488 478 
L 1609 478 
L 1609 3866 
L 616 3156 
L 616 3688 
L 1656 4403 
L 2175 4403 
L 2175 478 
L 3247 478 
L 3247 0 
L 488 0 
z
" transform="scale(0.015625)"/>
       </defs>
       <use xlink:href="#LiberationSans-31"/>
       <use xlink:href="#LiberationSans-30" x="55.615234"/>
      </g>
     </g>
    </g>
    <g id="xtick_7">
     <g id="line2d_7">
      <defs>
       <path id="m2852ad0cf6" d="M 0 0 
L 0 -2 
" style="stroke: #000000; stroke-width: 0.6"/>
      </defs>
      <g>
       <use xlink:href="#m2852ad0cf6" x="136.17719" y="640.3905" style="stroke: #000000; stroke-width: 0.6"/>
      </g>
     </g>
    </g>
    <g id="xtick_8">
     <g id="line2d_8">
      <g>
       <use xlink:href="#m2852ad0cf6" x="164.545572" y="640.3905" style="stroke: #000000; stroke-width: 0.6"/>
      </g>
     </g>
    </g>
    <g id="xtick_9">
     <g id="line2d_9">
      <g>
       <use xlink:href="#m2852ad0cf6" x="192.913953" y="640.3905" style="stroke: #000000; stroke-width: 0.6"/>
      </g>
     </g>
    </g>
    <g id="xtick_10">
     <g id="line2d_10">
      <g>
       <use xlink:href="#m2852ad0cf6" x="249.650717" y="640.3905" style="stroke: #000000; stroke-width: 0.6"/>
      </g>
     </g>
    </g>
    <g id="xtick_11">
     <g id="line2d_11">
      <g>
       <use xlink:href="#m2852ad0cf6" x="278.019099" y="640.3905" style="stroke: #000000; stroke-width: 0.6"/>
      </g>
     </g>
    </g>
    <g id="xtick_12">
     <g id="line2d_12">
      <g>
       <use xlink:href="#m2852ad0cf6" x="306.38748" y="640.3905" style="stroke: #000000; stroke-width: 0.6"/>
      </g>
     </g>
    </g>
    <g id="xtick_13">
     <g id="line2d_13">
      <g>
       <use xlink:href="#m2852ad0cf6" x="363.124244" y="640.3905" style="stroke: #000000; stroke-width: 0.6"/>
      </g>
     </g>
    </g>
    <g id="xtick_14">
     <g id="line2d_14">
      <g>
       <use xlink:href="#m2852ad0cf6" x="391.492626" y="640.3905" style="stroke: #000000; stroke-width: 0.6"/>
      </g>
     </g>
    </g>
    <g id="xtick_15">
     <g id="line2d_15">
      <g>
       <use xlink:href="#m2852ad0cf6" x="419.861008" y="640.3905" style="stroke: #000000; stroke-width: 0.6"/>
      </g>
     </g>
    </g>
    <g id="xtick_16">
     <g id="line2d_16">
      <g>
       <use xlink:href="#m2852ad0cf6" x="476.597771" y="640.3905" style="stroke: #000000; stroke-width: 0.6"/>
      </g>
     </g>
    </g>
    <g id="xtick_17">
     <g id="line2d_17">
      <g>
       <use xlink:href="#m2852ad0cf6" x="504.966153" y="640.3905" style="stroke: #000000; stroke-width: 0.6"/>
      </g>
     </g>
    </g>
    <g id="xtick_18">
     <g id="line2d_18">
      <g>
       <use xlink:href="#m2852ad0cf6" x="533.334535" y="640.3905" style="stroke: #000000; stroke-width: 0.6"/>
      </g>
     </g>
    </g>
    <g id="xtick_19">
     <g id="line2d_19">
      <g>
       <use xlink:href="#m2852ad0cf6" x="590.071298" y="640.3905" style="stroke: #000000; stroke-width: 0.6"/>
      </g>
     </g>
    </g>
    <g id="xtick_20">
     <g id="line2d_20">
      <g>
       <use xlink:href="#m2852ad0cf6" x="618.43968" y="640.3905" style="stroke: #000000; stroke-width: 0.6"/>
      </g>
     </g>
    </g>
    <g id="xtick_21">
     <g id="line2d_21">
      <g>
       <use xlink:href="#m2852ad0cf6" x="646.808062" y="640.3905" style="stroke: #000000; stroke-width: 0.6"/>
      </g>
     </g>
    </g>
    <g id="text_7">
     <!-- Time ps -->
     <g transform="translate(338.744432 697.59675) scale(0.3 -0.3)">
      <defs>
       <path id="LiberationSans-54" d="M 2250 3916 
L 2250 0 
L 1656 0 
L 1656 3916 
L 144 3916 
L 144 4403 
L 3763 4403 
L 3763 3916 
L 2250 3916 
z
" transform="scale(0.015625)"/>
       <path id="LiberationSans-69" d="M 428 4100 
L 428 4638 
L 991 4638 
L 991 4100 
L 428 4100 
z
M 428 0 
L 428 3381 
L 991 3381 
L 991 0 
L 428 0 
z
" transform="scale(0.015625)"/>
       <path id="LiberationSans-6d" d="M 2400 0 
L 2400 2144 
Q 2400 2634 2265 2821 
Q 2131 3009 1781 3009 
Q 1422 3009 1212 2734 
Q 1003 2459 1003 1959 
L 1003 0 
L 444 0 
L 444 2659 
Q 444 3250 425 3381 
L 956 3381 
Q 959 3366 962 3297 
Q 966 3228 970 3139 
Q 975 3050 981 2803 
L 991 2803 
Q 1172 3163 1406 3303 
Q 1641 3444 1978 3444 
Q 2363 3444 2586 3291 
Q 2809 3138 2897 2803 
L 2906 2803 
Q 3081 3144 3329 3294 
Q 3578 3444 3931 3444 
Q 4444 3444 4676 3166 
Q 4909 2888 4909 2253 
L 4909 0 
L 4353 0 
L 4353 2144 
Q 4353 2634 4218 2821 
Q 4084 3009 3734 3009 
Q 3366 3009 3161 2736 
Q 2956 2463 2956 1959 
L 2956 0 
L 2400 0 
z
" transform="scale(0.015625)"/>
       <path id="LiberationSans-65" d="M 863 1572 
Q 863 991 1103 675 
Q 1344 359 1806 359 
Q 2172 359 2392 506 
Q 2613 653 2691 878 
L 3184 738 
Q 2881 -63 1806 -63 
Q 1056 -63 664 384 
Q 272 831 272 1713 
Q 272 2550 664 2997 
Q 1056 3444 1784 3444 
Q 3275 3444 3275 1647 
L 3275 1572 
L 863 1572 
z
M 2694 2003 
Q 2647 2538 2422 2783 
Q 2197 3028 1775 3028 
Q 1366 3028 1127 2754 
Q 888 2481 869 2003 
L 2694 2003 
z
" transform="scale(0.015625)"/>
       <path id="LiberationSans-20" transform="scale(0.015625)"/>
       <path id="LiberationSans-70" d="M 3291 1706 
Q 3291 -63 2047 -63 
Q 1266 -63 997 525 
L 981 525 
Q 994 500 994 -6 
L 994 -1328 
L 431 -1328 
L 431 2691 
Q 431 3213 413 3381 
L 956 3381 
Q 959 3369 965 3292 
Q 972 3216 980 3056 
Q 988 2897 988 2838 
L 1000 2838 
Q 1150 3150 1397 3295 
Q 1644 3441 2047 3441 
Q 2672 3441 2981 3022 
Q 3291 2603 3291 1706 
z
M 2700 1694 
Q 2700 2400 2509 2703 
Q 2319 3006 1903 3006 
Q 1569 3006 1380 2865 
Q 1191 2725 1092 2426 
Q 994 2128 994 1650 
Q 994 984 1206 668 
Q 1419 353 1897 353 
Q 2316 353 2508 661 
Q 2700 969 2700 1694 
z
" transform="scale(0.015625)"/>
       <path id="LiberationSans-73" d="M 2969 934 
Q 2969 456 2608 196 
Q 2247 -63 1597 -63 
Q 966 -63 623 145 
Q 281 353 178 794 
L 675 891 
Q 747 619 972 492 
Q 1197 366 1597 366 
Q 2025 366 2223 497 
Q 2422 628 2422 891 
Q 2422 1091 2284 1216 
Q 2147 1341 1841 1422 
L 1438 1528 
Q 953 1653 748 1773 
Q 544 1894 428 2066 
Q 313 2238 313 2488 
Q 313 2950 642 3192 
Q 972 3434 1603 3434 
Q 2163 3434 2492 3237 
Q 2822 3041 2909 2606 
L 2403 2544 
Q 2356 2769 2151 2889 
Q 1947 3009 1603 3009 
Q 1222 3009 1040 2893 
Q 859 2778 859 2544 
Q 859 2400 934 2306 
Q 1009 2213 1156 2147 
Q 1303 2081 1775 1966 
Q 2222 1853 2419 1758 
Q 2616 1663 2730 1547 
Q 2844 1431 2906 1279 
Q 2969 1128 2969 934 
z
" transform="scale(0.015625)"/>
      </defs>
      <use xlink:href="#LiberationSans-54"/>
      <use xlink:href="#LiberationSans-69" x="57.333984"/>
      <use xlink:href="#LiberationSans-6d" x="79.550781"/>
      <use xlink:href="#LiberationSans-65" x="162.851562"/>
      <use xlink:href="#LiberationSans-20" x="218.466797"/>
      <use xlink:href="#LiberationSans-70" x="246.25"/>
      <use xlink:href="#LiberationSans-73" x="301.865234"/>
     </g>
    </g>
   </g>
   <g id="matplotlib.axis_2">
    <g id="ytick_1">
     <g id="line2d_22">
      <defs>
       <path id="me3805d18d4" d="M 0 0 
L 3.5 0 
" style="stroke: #000000; stroke-width: 0.8"/>
      </defs>
      <g>
       <use xlink:href="#me3805d18d4" x="79.5" y="598.074008" style="stroke: #000000; stroke-width: 0.8"/>
      </g>
     </g>
     <g id="text_8">
      <!-- $\mathdefault{−2}$ -->
      <g transform="translate(41.5 608.944321) scale(0.3 -0.3)">
       <defs>
        <path id="LiberationSans-2212" d="M 316 1900 
L 316 2356 
L 3425 2356 
L 3425 1900 
L 316 1900 
z
" transform="scale(0.015625)"/>
       </defs>
       <use xlink:href="#LiberationSans-2212" transform="translate(0 0.171875)"/>
       <use xlink:href="#LiberationSans-32" transform="translate(58.398438 0.171875)"/>
      </g>
     </g>
    </g>
    <g id="ytick_2">
     <g id="line2d_23">
      <g>
       <use xlink:href="#me3805d18d4" x="79.5" y="486.983167" style="stroke: #000000; stroke-width: 0.8"/>
      </g>
     </g>
     <g id="text_9">
      <!-- $\mathdefault{0}$ -->
      <g transform="translate(59.2 497.853479) scale(0.3 -0.3)">
       <use xlink:href="#LiberationSans-30" transform="translate(0 0.171875)"/>
      </g>
     </g>
    </g>
    <g id="ytick_3">
     <g id="line2d_24">
      <g>
       <use xlink:href="#me3805d18d4" x="79.5" y="375.892325" style="stroke: #000000; stroke-width: 0.8"/>
      </g>
     </g>
     <g id="text_10">
      <!-- $\mathdefault{2}$ -->
      <g transform="translate(59.2 386.762638) scale(0.3 -0.3)">
       <use xlink:href="#LiberationSans-32" transform="translate(0 0.171875)"/>
      </g>
     </g>
    </g>
    <g id="ytick_4">
     <g id="line2d_25">
      <g>
       <use xlink:href="#me3805d18d4" x="79.5" y="264.801484" style="stroke: #000000; stroke-width: 0.8"/>
      </g>
     </g>
     <g id="text_11">
      <!-- $\mathdefault{4}$ -->
      <g transform="translate(59.2 275.671797) scale(0.3 -0.3)">
       <use xlink:href="#LiberationSans-34" transform="translate(0 0.203125)"/>
      </g>
     </g>
    </g>
    <g id="ytick_5">
     <g id="line2d_26">
      <g>
       <use xlink:href="#me3805d18d4" x="79.5" y="153.710643" style="stroke: #000000; stroke-width: 0.8"/>
      </g>
     </g>
     <g id="text_12">
      <!-- $\mathdefault{6}$ -->
      <g transform="translate(59.2 164.580955) scale(0.3 -0.3)">
       <use xlink:href="#LiberationSans-36" transform="translate(0 0.171875)"/>
      </g>
     </g>
    </g>
    <g id="ytick_6">
     <g id="line2d_27">
      <g>
       <use xlink:href="#me3805d18d4" x="79.5" y="42.619801" style="stroke: #000000; stroke-width: 0.8"/>
      </g>
     </g>
     <g id="text_13">
      <!-- $\mathdefault{8}$ -->
      <g transform="translate(59.2 53.490114) scale(0.3 -0.3)">
       <use xlink:href="#LiberationSans-38" transform="translate(0 0.171875)"/>
      </g>
     </g>
    </g>
    <g id="ytick_7">
     <g id="line2d_28">
      <defs>
       <path id="me4051e3ed1" d="M 0 0 
L 2 0 
" style="stroke: #000000; stroke-width: 0.6"/>
      </defs>
      <g>
       <use xlink:href="#me4051e3ed1" x="79.5" y="625.846719" style="stroke: #000000; stroke-width: 0.6"/>
      </g>
     </g>
    </g>
    <g id="ytick_8">
     <g id="line2d_29">
      <g>
       <use xlink:href="#me4051e3ed1" x="79.5" y="570.301298" style="stroke: #000000; stroke-width: 0.6"/>
      </g>
     </g>
    </g>
    <g id="ytick_9">
     <g id="line2d_30">
      <g>
       <use xlink:href="#me4051e3ed1" x="79.5" y="542.528588" style="stroke: #000000; stroke-width: 0.6"/>
      </g>
     </g>
    </g>
    <g id="ytick_10">
     <g id="line2d_31">
      <g>
       <use xlink:href="#me4051e3ed1" x="79.5" y="514.755877" style="stroke: #000000; stroke-width: 0.6"/>
      </g>
     </g>
    </g>
    <g id="ytick_11">
     <g id="line2d_32">
      <g>
       <use xlink:href="#me4051e3ed1" x="79.5" y="459.210456" style="stroke: #000000; stroke-width: 0.6"/>
      </g>
     </g>
    </g>
    <g id="ytick_12">
     <g id="line2d_33">
      <g>
       <use xlink:href="#me4051e3ed1" x="79.5" y="431.437746" style="stroke: #000000; stroke-width: 0.6"/>
      </g>
     </g>
    </g>
    <g id="ytick_13">
     <g id="line2d_34">
      <g>
       <use xlink:href="#me4051e3ed1" x="79.5" y="403.665036" style="stroke: #000000; stroke-width: 0.6"/>
      </g>
     </g>
    </g>
    <g id="ytick_14">
     <g id="line2d_35">
      <g>
       <use xlink:href="#me4051e3ed1" x="79.5" y="348.119615" style="stroke: #000000; stroke-width: 0.6"/>
      </g>
     </g>
    </g>
    <g id="ytick_15">
     <g id="line2d_36">
      <g>
       <use xlink:href="#me4051e3ed1" x="79.5" y="320.346905" style="stroke: #000000; stroke-width: 0.6"/>
      </g>
     </g>
    </g>
    <g id="ytick_16">
     <g id="line2d_37">
      <g>
       <use xlink:href="#me4051e3ed1" x="79.5" y="292.574194" style="stroke: #000000; stroke-width: 0.6"/>
      </g>
     </g>
    </g>
    <g id="ytick_17">
     <g id="line2d_38">
      <g>
       <use xlink:href="#me4051e3ed1" x="79.5" y="237.028774" style="stroke: #000000; stroke-width: 0.6"/>
      </g>
     </g>
    </g>
    <g id="ytick_18">
     <g id="line2d_39">
      <g>
       <use xlink:href="#me4051e3ed1" x="79.5" y="209.256063" style="stroke: #000000; stroke-width: 0.6"/>
      </g>
     </g>
    </g>
    <g id="ytick_19">
     <g id="line2d_40">
      <g>
       <use xlink:href="#me4051e3ed1" x="79.5" y="181.483353" style="stroke: #000000; stroke-width: 0.6"/>
      </g>
     </g>
    </g>
    <g id="ytick_20">
     <g id="line2d_41">
      <g>
       <use xlink:href="#me4051e3ed1" x="79.5" y="125.937932" style="stroke: #000000; stroke-width: 0.6"/>
      </g>
     </g>
    </g>
    <g id="ytick_21">
     <g id="line2d_42">
      <g>
       <use xlink:href="#me4051e3ed1" x="79.5" y="98.165222" style="stroke: #000000; stroke-width: 0.6"/>
      </g>
     </g>
    </g>
    <g id="ytick_22">
     <g id="line2d_43">
      <g>
       <use xlink:href="#me4051e3ed1" x="79.5" y="70.392512" style="stroke: #000000; stroke-width: 0.6"/>
      </g>
     </g>
    </g>
    <g id="text_14">
     <!-- HFACF $(\mathrm{W} / \mathrm{m}^2)^2$ -->
     <g transform="translate(31.275 446.289) rotate(-90) scale(0.3 -0.3)">
      <defs>
       <path id="LiberationSans-48" d="M 3503 0 
L 3503 2041 
L 1122 2041 
L 1122 0 
L 525 0 
L 525 4403 
L 1122 4403 
L 1122 2541 
L 3503 2541 
L 3503 4403 
L 4100 4403 
L 4100 0 
L 3503 0 
z
" transform="scale(0.015625)"/>
       <path id="LiberationSans-46" d="M 1122 3916 
L 1122 2278 
L 3578 2278 
L 3578 1784 
L 1122 1784 
L 1122 0 
L 525 0 
L 525 4403 
L 3653 4403 
L 3653 3916 
L 1122 3916 
z
" transform="scale(0.015625)"/>
       <path id="LiberationSans-41" d="M 3647 0 
L 3144 1288 
L 1138 1288 
L 631 0 
L 13 0 
L 1809 4403 
L 2488 4403 
L 4256 0 
L 3647 0 
z
M 2141 3953 
L 2113 3866 
Q 2034 3606 1881 3200 
L 1319 1753 
L 2966 1753 
L 2400 3206 
Q 2313 3422 2225 3694 
L 2141 3953 
z
" transform="scale(0.015625)"/>
       <path id="LiberationSans-43" d="M 2475 3981 
Q 1744 3981 1337 3511 
Q 931 3041 931 2222 
Q 931 1413 1354 920 
Q 1778 428 2500 428 
Q 3425 428 3891 1344 
L 4378 1100 
Q 4106 531 3614 234 
Q 3122 -63 2472 -63 
Q 1806 -63 1320 214 
Q 834 491 579 1005 
Q 325 1519 325 2222 
Q 325 3275 894 3872 
Q 1463 4469 2469 4469 
Q 3172 4469 3644 4194 
Q 4116 3919 4338 3378 
L 3772 3191 
Q 3619 3575 3280 3778 
Q 2941 3981 2475 3981 
z
" transform="scale(0.015625)"/>
       <path id="STIXGeneral-Regular-28" d="M 1946 -1030 
L 1869 -1133 
Q 1126 -710 716 32 
Q 307 774 307 1613 
Q 307 3386 1888 4326 
L 1946 4224 
Q 1293 3667 1075 3126 
Q 858 2586 858 1632 
Q 858 685 1082 96 
Q 1306 -493 1946 -1030 
z
" transform="scale(0.015625)"/>
       <path id="STIXGeneral-Regular-57" d="M 5965 4237 
L 5965 4115 
Q 5709 4064 5616 3990 
Q 5523 3917 5434 3667 
Q 4704 1709 4128 -70 
L 4032 -70 
Q 3642 1011 3008 2637 
L 2022 -70 
L 1926 -70 
Q 1709 576 1277 1753 
Q 845 2931 698 3347 
Q 538 3808 406 3958 
Q 275 4109 32 4115 
L 32 4237 
L 1594 4237 
L 1594 4115 
Q 1357 4109 1270 4064 
Q 1184 4019 1184 3917 
Q 1184 3808 1254 3616 
L 2176 1210 
L 2842 3021 
L 2662 3501 
Q 2509 3917 2400 4013 
Q 2291 4109 2010 4115 
L 2010 4237 
L 3706 4237 
L 3706 4115 
Q 3213 4102 3213 3891 
Q 3213 3808 3322 3520 
L 4237 1190 
L 5043 3360 
Q 5152 3667 5152 3853 
Q 5152 4109 4704 4115 
L 4704 4237 
L 5965 4237 
z
" transform="scale(0.015625)"/>
       <path id="STIXGeneral-Regular-2f" d="M 1837 4326 
L 378 -90 
L -58 -90 
L 1408 4326 
L 1837 4326 
z
" transform="scale(0.015625)"/>
       <path id="STIXGeneral-Regular-6d" d="M 4960 0 
L 3565 0 
L 3565 96 
Q 3834 122 3907 208 
Q 3981 294 3981 576 
L 3981 1894 
Q 3981 2278 3869 2444 
Q 3757 2611 3488 2611 
Q 3264 2611 3107 2521 
Q 2950 2432 2803 2221 
L 2803 608 
Q 2803 301 2896 201 
Q 2989 102 3264 96 
L 3264 0 
L 1830 0 
L 1830 96 
Q 2112 115 2189 188 
Q 2266 262 2266 550 
L 2266 1901 
Q 2266 2611 1850 2611 
Q 1670 2611 1468 2531 
Q 1267 2451 1171 2336 
Q 1088 2240 1088 2227 
L 1088 448 
Q 1088 243 1177 176 
Q 1267 109 1523 96 
L 1523 0 
L 102 0 
L 102 96 
Q 371 102 460 195 
Q 550 288 550 563 
L 550 2150 
Q 550 2387 499 2480 
Q 448 2573 326 2573 
Q 230 2573 122 2547 
L 122 2656 
Q 557 2778 1011 2944 
L 1062 2925 
L 1062 2451 
L 1075 2451 
Q 1363 2752 1584 2848 
Q 1805 2944 2054 2944 
Q 2560 2944 2733 2406 
Q 3232 2944 3776 2944 
Q 4518 2944 4518 1792 
L 4518 493 
Q 4518 282 4582 202 
Q 4646 122 4794 109 
L 4960 96 
L 4960 0 
z
" transform="scale(0.015625)"/>
       <path id="STIXGeneral-Regular-32" d="M 3034 877 
L 2688 0 
L 186 0 
L 186 77 
L 1325 1286 
Q 1773 1754 1965 2144 
Q 2157 2534 2157 2950 
Q 2157 3379 1920 3616 
Q 1683 3853 1267 3853 
Q 922 3853 720 3673 
Q 518 3494 326 3021 
L 192 3053 
Q 301 3648 630 3987 
Q 960 4326 1523 4326 
Q 2054 4326 2380 4006 
Q 2707 3686 2707 3200 
Q 2707 2477 1888 1613 
L 832 486 
L 2330 486 
Q 2541 486 2665 569 
Q 2790 653 2944 915 
L 3034 877 
z
" transform="scale(0.015625)"/>
       <path id="STIXGeneral-Regular-29" d="M 186 4224 
L 262 4326 
Q 992 3891 1408 3148 
Q 1824 2406 1824 1581 
Q 1824 -166 243 -1133 
L 186 -1030 
Q 845 -486 1059 54 
Q 1274 595 1274 1562 
Q 1274 2534 1059 3120 
Q 845 3706 186 4224 
z
" transform="scale(0.015625)"/>
      </defs>
      <use xlink:href="#LiberationSans-48" transform="translate(0 0.409375)"/>
      <use xlink:href="#LiberationSans-46" transform="translate(72.216797 0.409375)"/>
      <use xlink:href="#LiberationSans-41" transform="translate(133.300781 0.409375)"/>
      <use xlink:href="#LiberationSans-43" transform="translate(200 0.409375)"/>
      <use xlink:href="#LiberationSans-46" transform="translate(272.216797 0.409375)"/>
      <use xlink:href="#LiberationSans-20" transform="translate(333.300781 0.409375)"/>
      <use xlink:href="#STIXGeneral-Regular-28" transform="translate(361.083984 0.409375)"/>
      <use xlink:href="#STIXGeneral-Regular-57" transform="translate(394.383972 0.409375)"/>
      <use xlink:href="#STIXGeneral-Regular-2f" transform="translate(488.783966 0.409375)"/>
      <use xlink:href="#STIXGeneral-Regular-6d" transform="translate(516.583954 0.409375)"/>
      <use xlink:href="#STIXGeneral-Regular-32" transform="translate(595.927223 35.684375) scale(0.7)"/>
      <use xlink:href="#STIXGeneral-Regular-29" transform="translate(635.336587 0.409375)"/>
      <use xlink:href="#STIXGeneral-Regular-32" transform="translate(670.179856 35.684375) scale(0.7)"/>
     </g>
    </g>
    <g id="text_15">
     <!-- $\times\mathdefault{10^{18}}\mathdefault{}$ -->
     <g transform="translate(79.5 36.1875) scale(0.4 -0.4)">
      <defs>
       <path id="STIXGeneral-Regular-d7" d="M 3821 141 
L 3526 -160 
L 2048 1312 
L 570 -160 
L 275 134 
L 1747 1613 
L 275 3091 
L 576 3386 
L 2048 1914 
L 3526 3386 
L 3821 3098 
L 2349 1613 
L 3821 141 
z
" transform="scale(0.015625)"/>
      </defs>
      <use xlink:href="#STIXGeneral-Regular-d7" transform="translate(0 0.140625)"/>
      <use xlink:href="#LiberationSans-31" transform="translate(63.999985 0.140625)"/>
      <use xlink:href="#LiberationSans-30" transform="translate(119.615219 0.140625)"/>
      <use xlink:href="#LiberationSans-31" transform="translate(176.154946 37.120312) scale(0.7)"/>
      <use xlink:href="#LiberationSans-38" transform="translate(215.08561 37.120312) scale(0.7)"/>
     </g>
    </g>
   </g>
   <g id="line2d_44">
    <path d="M 107.865545 66.514909 
L 108.546386 107.405176 
L 109.057017 169.514606 
L 109.964805 314.967972 
L 111.09954 488.52511 
L 111.723645 555.01298 
L 112.234276 589.756773 
L 112.68817 606.791689 
L 113.02859 612.23358 
L 113.255537 613.063091 
L 113.369011 612.75772 
L 113.539221 611.58009 
L 113.879642 607.0066 
L 114.447009 595.207866 
L 118.078162 511.707327 
L 119.780265 478.903612 
L 120.461106 470.055523 
L 120.971737 466.096948 
L 121.368895 464.593036 
L 121.595842 464.299088 
L 121.766052 464.360923 
L 122.049736 464.911238 
L 122.50363 466.753259 
L 123.070998 470.284338 
L 125.283731 485.407617 
L 125.964572 488.186862 
L 126.70215 489.98588 
L 128.177306 492.385495 
L 128.6312 492.61952 
L 129.198568 492.607921 
L 130.049619 492.015125 
L 130.56025 491.610629 
L 131.070881 491.533196 
L 131.751722 491.845453 
L 132.546037 492.430446 
L 133.170141 492.890017 
L 133.737509 492.671895 
L 134.134666 492.065147 
L 134.531824 490.979949 
L 135.042455 488.961027 
L 136.17719 483.026654 
L 136.914768 479.769365 
L 137.368662 478.671572 
L 137.765819 478.380558 
L 138.10624 478.55467 
L 138.333187 478.921451 
L 138.787081 480.288422 
L 139.467922 483.299757 
L 140.886341 490.213919 
L 141.510446 492.149884 
L 141.96434 492.868624 
L 142.361497 493.025035 
L 142.588444 492.955836 
L 142.928865 492.605599 
L 143.439496 491.803445 
L 144.517494 489.848289 
L 145.311809 489.10975 
L 146.560018 487.928912 
L 147.297596 486.555554 
L 148.318857 484.104737 
L 149.340119 481.499671 
L 149.794013 480.844009 
L 150.191171 480.667576 
L 150.474854 480.869877 
L 150.758538 481.344153 
L 151.155695 482.41449 
L 152.630851 487.620365 
L 153.652113 491.026712 
L 154.106007 492.003596 
L 154.446428 492.381556 
L 154.730112 492.449088 
L 154.957059 492.393142 
L 155.297479 492.120614 
L 156.035057 490.958457 
L 157.623687 488.290732 
L 158.418001 487.512325 
L 158.815159 487.345824 
L 159.155579 487.306911 
L 159.66621 487.429993 
L 161.368313 488.087395 
L 161.878944 487.96933 
L 162.559785 487.538681 
L 164.602308 486.451101 
L 165.169676 486.758079 
L 166.701569 487.48895 
L 167.836304 487.69883 
L 168.914302 487.633864 
L 170.843352 487.216918 
L 171.978088 486.785876 
L 173.453244 486.228518 
L 174.644716 486.042852 
L 175.722714 486.048158 
L 177.36808 486.40317 
L 180.431865 487.541211 
L 181.623337 487.796679 
L 182.98502 487.801308 
L 183.892808 487.63615 
L 185.141017 487.22395 
L 186.956593 486.471494 
L 188.091329 486.38022 
L 190.077115 486.446243 
L 193.538058 486.834007 
L 195.240161 486.794038 
L 197.225947 487.258976 
L 198.133736 487.482058 
L 199.154997 487.439265 
L 201.764889 487.000611 
L 203.410255 486.706051 
L 205.849936 486.427113 
L 207.495302 486.550685 
L 208.970458 486.871087 
L 212.034243 487.921311 
L 213.566135 488.082872 
L 216.176026 488.025988 
L 216.970341 487.77167 
L 217.651182 487.359649 
L 218.502234 486.559758 
L 220.544757 484.605006 
L 221.112125 484.366167 
L 221.395809 484.387677 
L 221.963176 484.852038 
L 224.629804 487.404266 
L 225.537592 487.707417 
L 226.672328 487.736846 
L 228.601378 487.442595 
L 230.643901 486.793121 
L 232.686425 486.158929 
L 233.537476 486.081012 
L 234.899158 486.24443 
L 236.657998 486.672731 
L 237.622523 487.050905 
L 240.516098 488.403156 
L 241.480623 488.455984 
L 242.104727 488.250776 
L 245.39546 486.835566 
L 246.359985 486.714803 
L 248.289035 486.676114 
L 249.820927 486.410412 
L 251.636504 486.030847 
L 252.374082 486.14818 
L 255.154183 486.686072 
L 256.913023 486.532311 
L 258.444915 486.808236 
L 260.317229 487.226515 
L 261.33849 487.197806 
L 262.700173 487.072836 
L 264.345539 487.295103 
L 266.331325 487.704566 
L 267.239114 487.580704 
L 268.317112 487.179999 
L 269.395111 486.823558 
L 270.132689 486.754852 
L 271.097214 486.891641 
L 272.402159 487.074635 
L 273.196474 487.032792 
L 273.934052 486.801499 
L 274.955313 486.195995 
L 276.657416 485.158123 
L 277.451731 485.045703 
L 278.075835 485.212009 
L 280.288569 487.759709 
L 281.026147 488.36475 
L 281.650252 488.586088 
L 282.217619 488.578933 
L 283.182144 488.299825 
L 289.820346 485.879415 
L 290.557923 485.885019 
L 291.635922 486.218984 
L 295.437285 487.775966 
L 296.458547 487.792603 
L 298.50107 487.703391 
L 300.146436 487.333667 
L 301.621592 486.830254 
L 303.153485 486.381458 
L 305.082535 486.27641 
L 308.259794 486.39048 
L 310.983158 487.343919 
L 311.777473 487.339142 
L 313.649786 487.22903 
L 315.975994 487.387418 
L 317.507886 487.228313 
L 320.401461 486.718917 
L 321.252513 486.796387 
L 324.032614 487.389738 
L 325.053876 487.214468 
L 326.415558 486.933619 
L 327.550293 487.035526 
L 329.36587 487.385684 
L 330.273658 487.374177 
L 331.011236 487.174545 
L 331.805551 486.768372 
L 334.472178 485.253489 
L 334.869336 485.205786 
L 335.49344 485.474302 
L 339.01112 487.52731 
L 340.202592 487.778656 
L 341.621011 487.856328 
L 342.755746 487.560571 
L 345.479111 486.742925 
L 348.713106 486.180225 
L 349.564158 486.261593 
L 350.528682 486.50906 
L 352.911627 487.227909 
L 353.932888 487.135006 
L 356.8832 486.636194 
L 358.074672 486.879817 
L 361.819298 487.64435 
L 363.067507 487.659141 
L 363.975295 487.413222 
L 365.847609 486.608242 
L 367.549712 485.804728 
L 369.081604 485.38875 
L 369.762445 485.435276 
L 370.500023 485.739564 
L 371.861706 486.585829 
L 374.131176 487.908855 
L 375.209175 488.138195 
L 376.457383 488.168968 
L 377.421908 487.97502 
L 380.54243 487.038346 
L 383.038848 486.143864 
L 383.662952 486.200916 
L 384.173583 486.418505 
L 385.421792 487.282527 
L 386.443054 487.891196 
L 387.067158 488.067838 
L 387.691263 488.006257 
L 388.25863 487.744709 
L 389.109682 487.07412 
L 391.038732 485.5453 
L 391.549363 485.386324 
L 392.059993 485.624189 
L 395.407462 487.313946 
L 398.357774 487.995557 
L 399.889667 488.105563 
L 401.194612 487.880707 
L 403.350609 486.873047 
L 404.598818 486.359068 
L 405.676817 486.135165 
L 406.981762 486.121959 
L 408.059761 486.281817 
L 410.896599 486.967685 
L 412.201544 487.01499 
L 413.903647 487.012144 
L 416.229855 487.263228 
L 417.705011 487.249415 
L 420.428375 486.838022 
L 422.527635 486.372131 
L 423.946054 486.349395 
L 425.931841 486.820604 
L 427.35026 487.438047 
L 428.598469 487.963404 
L 429.449521 488.103772 
L 430.300572 487.993161 
L 431.435307 487.491964 
L 433.30762 486.530569 
L 434.555829 486.256129 
L 435.917512 486.272884 
L 438.130245 486.664495 
L 439.378454 487.14468 
L 440.796873 487.959395 
L 441.818135 488.501235 
L 442.498976 488.588309 
L 443.293291 488.427476 
L 443.974132 488.065302 
L 445.108867 487.14858 
L 446.47055 485.996042 
L 447.605285 485.370467 
L 448.286126 485.229163 
L 451.406648 487.498565 
L 452.144226 487.822462 
L 452.938541 487.905151 
L 453.789592 487.708149 
L 454.924327 487.205535 
L 456.45622 486.435282 
L 457.137061 486.294256 
L 458.044849 486.343065 
L 459.349795 486.730669 
L 461.505792 487.314476 
L 464.058946 487.324791 
L 466.612101 487.172259 
L 467.463152 486.802425 
L 469.448939 485.810773 
L 470.073043 485.716167 
L 470.697148 485.862722 
L 473.307039 486.904113 
L 474.15809 486.958474 
L 475.91693 486.89164 
L 479.037452 487.201365 
L 482.0445 486.897499 
L 483.065762 487.097945 
L 485.335233 487.68194 
L 486.469968 487.504744 
L 489.306806 486.872025 
L 492.540802 486.841061 
L 494.072694 486.69894 
L 496.285428 486.86837 
L 497.64711 487.173146 
L 500.427212 488.08 
L 501.108053 488.007299 
L 501.732157 487.71554 
L 502.469735 487.09072 
L 503.831418 485.5372 
L 504.739206 484.613251 
L 505.1931 484.422989 
L 505.760467 484.531738 
L 506.668256 485.020471 
L 507.405834 485.57659 
L 509.788778 487.37267 
L 511.093723 487.88957 
L 512.114985 488.018164 
L 516.824136 487.623628 
L 519.377291 486.864522 
L 520.398552 486.984279 
L 521.249604 487.26237 
L 522.270866 487.592981 
L 523.008444 487.590516 
L 523.802758 487.324773 
L 526.866544 486.034516 
L 527.604121 486.174543 
L 528.51191 486.639124 
L 531.348748 488.235578 
L 532.313273 488.344753 
L 532.994114 488.247648 
L 533.674955 487.942218 
L 536.341583 486.315084 
L 537.135898 486.192943 
L 537.930212 486.338789 
L 539.291895 486.89745 
L 541.164208 487.625465 
L 541.788312 487.593506 
L 542.809574 487.240413 
L 545.079045 486.307942 
L 545.930096 486.209189 
L 547.405252 486.382932 
L 549.674722 486.871691 
L 552.114403 487.474451 
L 553.135665 487.547788 
L 556.937028 487.616099 
L 558.071763 487.64508 
L 558.866078 487.465194 
L 559.830603 486.931005 
L 561.9866 485.555732 
L 562.440494 485.618515 
L 563.291546 486.013461 
L 565.561016 487.207562 
L 566.412068 487.207094 
L 569.7028 486.716126 
L 570.610588 486.955114 
L 571.745323 487.242324 
L 572.653112 487.274556 
L 573.958057 486.977416 
L 575.092793 486.815641 
L 575.887107 486.954592 
L 576.738159 487.363906 
L 579.177839 488.594103 
L 579.801944 488.552795 
L 580.482785 488.255878 
L 581.787731 487.240005 
L 583.20615 486.239566 
L 583.830254 486.058448 
L 584.567832 486.112299 
L 585.759304 486.473444 
L 590.184772 487.622525 
L 590.979086 487.592873 
L 592.624452 487.236697 
L 593.702451 486.707373 
L 596.085395 485.661109 
L 596.766236 485.618988 
L 597.503814 485.800694 
L 601.24844 487.065423 
L 604.993067 487.625571 
L 607.262537 487.468827 
L 608.397273 487.25274 
L 611.688005 486.430017 
L 612.879477 486.59985 
L 614.014212 487.042787 
L 615.943262 487.757388 
L 617.361681 487.920578 
L 619.177258 487.993677 
L 619.801362 488.032151 
L 620.425467 487.842454 
L 621.333255 487.30024 
L 623.319042 485.933769 
L 623.999883 485.795592 
L 624.680724 485.937723 
L 625.645249 486.434776 
L 627.063668 487.453645 
L 627.914719 487.91811 
L 628.709034 488.105351 
L 629.333138 488.081985 
L 630.240927 487.80421 
L 631.432399 487.41826 
L 632.340187 487.314706 
L 633.418185 487.396765 
L 635.857866 487.489539 
L 636.765654 487.245368 
L 638.0706 486.692615 
L 639.659229 486.05616 
L 640.453544 485.94885 
L 641.191122 486.090968 
L 642.269121 486.603127 
L 643.460593 487.361868 
L 644.481854 487.932456 
L 645.332906 488.079529 
L 646.297431 487.934488 
L 647.091745 487.540799 
L 649.417953 486.015232 
L 650.609425 485.551826 
L 651.74416 485.412171 
L 652.765422 485.512553 
L 653.389526 485.808251 
L 654.127104 486.440594 
L 656.283101 488.437568 
L 657.020679 488.73369 
L 657.70152 488.734073 
L 658.325625 488.497367 
L 659.233413 487.871729 
L 660.935516 486.734016 
L 661.72983 486.437047 
L 662.410672 486.365793 
L 663.261723 486.518311 
L 664.963826 487.006587 
L 665.928351 486.985567 
L 668.424769 486.719452 
L 669.729714 487.091431 
L 671.318343 487.685723 
L 671.942448 487.686696 
L 672.509815 487.471664 
L 673.13392 487.000766 
L 674.382129 485.719118 
L 675.176443 484.992809 
L 675.176443 484.992809 
" clip-path="url(#p8b43287331)" style="fill: none; stroke: #0000ff; stroke-width: 1.5; stroke-linecap: square"/>
   </g>
   <g id="patch_3">
    <path d="M 79.5 640.3905 
L 79.5 39.1875 
" style="fill: none; stroke: #000000; stroke-width: 0.8; stroke-linejoin: miter; stroke-linecap: square"/>
   </g>
   <g id="patch_4">
    <path d="M 703.541988 640.3905 
L 703.541988 39.1875 
" style="fill: none; stroke: #000000; stroke-width: 0.8; stroke-linejoin: miter; stroke-linecap: square"/>
   </g>
   <g id="patch_5">
    <path d="M 79.5 640.3905 
L 703.541988 640.3905 
" style="fill: none; stroke: #000000; stroke-width: 0.8; stroke-linejoin: miter; stroke-linecap: square"/>
   </g>
   <g id="patch_6">
    <path d="M 79.5 39.1875 
L 703.541988 39.1875 
" style="fill: none; stroke: #000000; stroke-width: 0.8; stroke-linejoin: miter; stroke-linecap: square"/>
   </g>
  </g>
 </g>
 <defs>
  <clipPath id="p8b43287331">
   <rect x="79.5" y="39.1875" width="624.041988" height="601.203"/>
  </clipPath>
 </defs>
</svg>
