<?xml version="1.0" encoding="utf-8" standalone="no"?>
<!DOCTYPE svg PUBLIC "-//W3C//DTD SVG 1.1//EN"
  "http://www.w3.org/Graphics/SVG/1.1/DTD/svg11.dtd">
<svg xmlns:xlink="http://www.w3.org/1999/xlink" width="711.691113pt" height="711.02175pt" viewBox="0 0 711.691113 711.02175" xmlns="http://www.w3.org/2000/svg" version="1.1">
 <metadata>
  <rdf:RDF xmlns:dc="http://purl.org/dc/elements/1.1/" xmlns:cc="http://creativecommons.org/ns#" xmlns:rdf="http://www.w3.org/1999/02/22-rdf-syntax-ns#">
   <cc:Work>
    <dc:type rdf:resource="http://purl.org/dc/dcmitype/StillImage"/>
    <dc:date>2025-01-30T19:50:01.187706</dc:date>
    <dc:format>image/svg+xml</dc:format>
    <dc:creator>
     <cc:Agent>
      <dc:title>Matplotlib v3.9.3, https://matplotlib.org/</dc:title>
     </cc:Agent>
    </dc:creator>
   </cc:Work>
  </rdf:RDF>
 </metadata>
 <defs>
  <style type="text/css">*{stroke-linejoin: round; stroke-linecap: butt}</style>
 </defs>
 <g id="figure_1">
  <g id="patch_1">
   <path d="M 0 711.02175 
L 711.691113 711.02175 
L 711.691113 0 
L 0 0 
z
" style="fill: #ffffff"/>
  </g>
  <g id="axes_1">
   <g id="patch_2">
    <path d="M 84.665625 640.3905 
L 704.491113 640.3905 
L 704.491113 39.1875 
L 84.665625 39.1875 
z
" style="fill: #ffffff"/>
   </g>
   <g id="matplotlib.axis_1">
    <g id="xtick_1">
     <g id="line2d_1">
      <defs>
       <path id="m51d7669885" d="M 0 0 
L 0 -3.5 
" style="stroke: #000000; stroke-width: 0.8"/>
      </defs>
      <g>
       <use xlink:href="#m51d7669885" x="112.783152" y="640.3905" style="stroke: #000000; stroke-width: 0.8"/>
      </g>
     </g>
     <g id="text_1">
      <!-- 0 -->
      <g transform="translate(104.441746 665.631125) scale(0.3 -0.3)">
       <defs>
        <path id="LiberationSans-30" d="M 3309 2203 
Q 3309 1100 2920 518 
Q 2531 -63 1772 -63 
Q 1013 -63 631 515 
Q 250 1094 250 2203 
Q 250 3338 620 3903 
Q 991 4469 1791 4469 
Q 2569 4469 2939 3897 
Q 3309 3325 3309 2203 
z
M 2738 2203 
Q 2738 3156 2517 3584 
Q 2297 4013 1791 4013 
Q 1272 4013 1045 3591 
Q 819 3169 819 2203 
Q 819 1266 1048 831 
Q 1278 397 1778 397 
Q 2275 397 2506 840 
Q 2738 1284 2738 2203 
z
" transform="scale(0.015625)"/>
       </defs>
       <use xlink:href="#LiberationSans-30"/>
      </g>
     </g>
    </g>
    <g id="xtick_2">
     <g id="line2d_2">
      <g>
       <use xlink:href="#m51d7669885" x="225.501239" y="640.3905" style="stroke: #000000; stroke-width: 0.8"/>
      </g>
     </g>
     <g id="text_2">
      <!-- 2 -->
      <g transform="translate(217.159832 665.631125) scale(0.3 -0.3)">
       <defs>
        <path id="LiberationSans-32" d="M 322 0 
L 322 397 
Q 481 763 711 1042 
Q 941 1322 1194 1548 
Q 1447 1775 1695 1969 
Q 1944 2163 2144 2356 
Q 2344 2550 2467 2762 
Q 2591 2975 2591 3244 
Q 2591 3606 2378 3806 
Q 2166 4006 1788 4006 
Q 1428 4006 1195 3811 
Q 963 3616 922 3263 
L 347 3316 
Q 409 3844 795 4156 
Q 1181 4469 1788 4469 
Q 2453 4469 2811 4155 
Q 3169 3841 3169 3263 
Q 3169 3006 3051 2753 
Q 2934 2500 2703 2247 
Q 2472 1994 1819 1463 
Q 1459 1169 1246 933 
Q 1034 697 941 478 
L 3238 478 
L 3238 0 
L 322 0 
z
" transform="scale(0.015625)"/>
       </defs>
       <use xlink:href="#LiberationSans-32"/>
      </g>
     </g>
    </g>
    <g id="xtick_3">
     <g id="line2d_3">
      <g>
       <use xlink:href="#m51d7669885" x="338.219326" y="640.3905" style="stroke: #000000; stroke-width: 0.8"/>
      </g>
     </g>
     <g id="text_3">
      <!-- 4 -->
      <g transform="translate(329.877919 665.631125) scale(0.3 -0.3)">
       <defs>
        <path id="LiberationSans-34" d="M 2753 997 
L 2753 0 
L 2222 0 
L 2222 997 
L 147 997 
L 147 1434 
L 2163 4403 
L 2753 4403 
L 2753 1441 
L 3372 1441 
L 3372 997 
L 2753 997 
z
M 2222 3769 
Q 2216 3750 2134 3603 
Q 2053 3456 2013 3397 
L 884 1734 
L 716 1503 
L 666 1441 
L 2222 1441 
L 2222 3769 
z
" transform="scale(0.015625)"/>
       </defs>
       <use xlink:href="#LiberationSans-34"/>
      </g>
     </g>
    </g>
    <g id="xtick_4">
     <g id="line2d_4">
      <g>
       <use xlink:href="#m51d7669885" x="450.937413" y="640.3905" style="stroke: #000000; stroke-width: 0.8"/>
      </g>
     </g>
     <g id="text_4">
      <!-- 6 -->
      <g transform="translate(442.596006 665.631125) scale(0.3 -0.3)">
       <defs>
        <path id="LiberationSans-36" d="M 3278 1441 
Q 3278 744 2900 340 
Q 2522 -63 1856 -63 
Q 1113 -63 719 490 
Q 325 1044 325 2100 
Q 325 3244 734 3856 
Q 1144 4469 1900 4469 
Q 2897 4469 3156 3572 
L 2619 3475 
Q 2453 4013 1894 4013 
Q 1413 4013 1148 3564 
Q 884 3116 884 2266 
Q 1038 2550 1316 2698 
Q 1594 2847 1953 2847 
Q 2563 2847 2920 2465 
Q 3278 2084 3278 1441 
z
M 2706 1416 
Q 2706 1894 2472 2153 
Q 2238 2413 1819 2413 
Q 1425 2413 1183 2183 
Q 941 1953 941 1550 
Q 941 1041 1192 716 
Q 1444 391 1838 391 
Q 2244 391 2475 664 
Q 2706 938 2706 1416 
z
" transform="scale(0.015625)"/>
       </defs>
       <use xlink:href="#LiberationSans-36"/>
      </g>
     </g>
    </g>
    <g id="xtick_5">
     <g id="line2d_5">
      <g>
       <use xlink:href="#m51d7669885" x="563.6555" y="640.3905" style="stroke: #000000; stroke-width: 0.8"/>
      </g>
     </g>
     <g id="text_5">
      <!-- 8 -->
      <g transform="translate(555.314093 665.631125) scale(0.3 -0.3)">
       <defs>
        <path id="LiberationSans-38" d="M 3281 1228 
Q 3281 619 2893 278 
Q 2506 -63 1781 -63 
Q 1075 -63 676 271 
Q 278 606 278 1222 
Q 278 1653 525 1947 
Q 772 2241 1156 2303 
L 1156 2316 
Q 797 2400 589 2681 
Q 381 2963 381 3341 
Q 381 3844 757 4156 
Q 1134 4469 1769 4469 
Q 2419 4469 2795 4162 
Q 3172 3856 3172 3334 
Q 3172 2956 2962 2675 
Q 2753 2394 2391 2322 
L 2391 2309 
Q 2813 2241 3047 1952 
Q 3281 1663 3281 1228 
z
M 2588 3303 
Q 2588 4050 1769 4050 
Q 1372 4050 1164 3862 
Q 956 3675 956 3303 
Q 956 2925 1170 2726 
Q 1384 2528 1775 2528 
Q 2172 2528 2380 2711 
Q 2588 2894 2588 3303 
z
M 2697 1281 
Q 2697 1691 2453 1898 
Q 2209 2106 1769 2106 
Q 1341 2106 1100 1882 
Q 859 1659 859 1269 
Q 859 359 1788 359 
Q 2247 359 2472 579 
Q 2697 800 2697 1281 
z
" transform="scale(0.015625)"/>
       </defs>
       <use xlink:href="#LiberationSans-38"/>
      </g>
     </g>
    </g>
    <g id="xtick_6">
     <g id="line2d_6">
      <g>
       <use xlink:href="#m51d7669885" x="676.373586" y="640.3905" style="stroke: #000000; stroke-width: 0.8"/>
      </g>
     </g>
     <g id="text_6">
      <!-- 10 -->
      <g transform="translate(659.690774 665.631125) scale(0.3 -0.3)">
       <defs>
        <path id="LiberationSans-31" d="M 488 0 
L 488 478 
L 1609 478 
L 1609 3866 
L 616 3156 
L 616 3688 
L 1656 4403 
L 2175 4403 
L 2175 478 
L 3247 478 
L 3247 0 
L 488 0 
z
" transform="scale(0.015625)"/>
       </defs>
       <use xlink:href="#LiberationSans-31"/>
       <use xlink:href="#LiberationSans-30" x="55.615234"/>
      </g>
     </g>
    </g>
    <g id="xtick_7">
     <g id="line2d_7">
      <defs>
       <path id="m3fda0126ca" d="M 0 0 
L 0 -2 
" style="stroke: #000000; stroke-width: 0.6"/>
      </defs>
      <g>
       <use xlink:href="#m3fda0126ca" x="140.962674" y="640.3905" style="stroke: #000000; stroke-width: 0.6"/>
      </g>
     </g>
    </g>
    <g id="xtick_8">
     <g id="line2d_8">
      <g>
       <use xlink:href="#m3fda0126ca" x="169.142195" y="640.3905" style="stroke: #000000; stroke-width: 0.6"/>
      </g>
     </g>
    </g>
    <g id="xtick_9">
     <g id="line2d_9">
      <g>
       <use xlink:href="#m3fda0126ca" x="197.321717" y="640.3905" style="stroke: #000000; stroke-width: 0.6"/>
      </g>
     </g>
    </g>
    <g id="xtick_10">
     <g id="line2d_10">
      <g>
       <use xlink:href="#m3fda0126ca" x="253.68076" y="640.3905" style="stroke: #000000; stroke-width: 0.6"/>
      </g>
     </g>
    </g>
    <g id="xtick_11">
     <g id="line2d_11">
      <g>
       <use xlink:href="#m3fda0126ca" x="281.860282" y="640.3905" style="stroke: #000000; stroke-width: 0.6"/>
      </g>
     </g>
    </g>
    <g id="xtick_12">
     <g id="line2d_12">
      <g>
       <use xlink:href="#m3fda0126ca" x="310.039804" y="640.3905" style="stroke: #000000; stroke-width: 0.6"/>
      </g>
     </g>
    </g>
    <g id="xtick_13">
     <g id="line2d_13">
      <g>
       <use xlink:href="#m3fda0126ca" x="366.398847" y="640.3905" style="stroke: #000000; stroke-width: 0.6"/>
      </g>
     </g>
    </g>
    <g id="xtick_14">
     <g id="line2d_14">
      <g>
       <use xlink:href="#m3fda0126ca" x="394.578369" y="640.3905" style="stroke: #000000; stroke-width: 0.6"/>
      </g>
     </g>
    </g>
    <g id="xtick_15">
     <g id="line2d_15">
      <g>
       <use xlink:href="#m3fda0126ca" x="422.757891" y="640.3905" style="stroke: #000000; stroke-width: 0.6"/>
      </g>
     </g>
    </g>
    <g id="xtick_16">
     <g id="line2d_16">
      <g>
       <use xlink:href="#m3fda0126ca" x="479.116934" y="640.3905" style="stroke: #000000; stroke-width: 0.6"/>
      </g>
     </g>
    </g>
    <g id="xtick_17">
     <g id="line2d_17">
      <g>
       <use xlink:href="#m3fda0126ca" x="507.296456" y="640.3905" style="stroke: #000000; stroke-width: 0.6"/>
      </g>
     </g>
    </g>
    <g id="xtick_18">
     <g id="line2d_18">
      <g>
       <use xlink:href="#m3fda0126ca" x="535.475978" y="640.3905" style="stroke: #000000; stroke-width: 0.6"/>
      </g>
     </g>
    </g>
    <g id="xtick_19">
     <g id="line2d_19">
      <g>
       <use xlink:href="#m3fda0126ca" x="591.835021" y="640.3905" style="stroke: #000000; stroke-width: 0.6"/>
      </g>
     </g>
    </g>
    <g id="xtick_20">
     <g id="line2d_20">
      <g>
       <use xlink:href="#m3fda0126ca" x="620.014543" y="640.3905" style="stroke: #000000; stroke-width: 0.6"/>
      </g>
     </g>
    </g>
    <g id="xtick_21">
     <g id="line2d_21">
      <g>
       <use xlink:href="#m3fda0126ca" x="648.194065" y="640.3905" style="stroke: #000000; stroke-width: 0.6"/>
      </g>
     </g>
    </g>
    <g id="text_7">
     <!-- Time ps -->
     <g transform="translate(341.801807 697.59675) scale(0.3 -0.3)">
      <defs>
       <path id="LiberationSans-54" d="M 2250 3916 
L 2250 0 
L 1656 0 
L 1656 3916 
L 144 3916 
L 144 4403 
L 3763 4403 
L 3763 3916 
L 2250 3916 
z
" transform="scale(0.015625)"/>
       <path id="LiberationSans-69" d="M 428 4100 
L 428 4638 
L 991 4638 
L 991 4100 
L 428 4100 
z
M 428 0 
L 428 3381 
L 991 3381 
L 991 0 
L 428 0 
z
" transform="scale(0.015625)"/>
       <path id="LiberationSans-6d" d="M 2400 0 
L 2400 2144 
Q 2400 2634 2265 2821 
Q 2131 3009 1781 3009 
Q 1422 3009 1212 2734 
Q 1003 2459 1003 1959 
L 1003 0 
L 444 0 
L 444 2659 
Q 444 3250 425 3381 
L 956 3381 
Q 959 3366 962 3297 
Q 966 3228 970 3139 
Q 975 3050 981 2803 
L 991 2803 
Q 1172 3163 1406 3303 
Q 1641 3444 1978 3444 
Q 2363 3444 2586 3291 
Q 2809 3138 2897 2803 
L 2906 2803 
Q 3081 3144 3329 3294 
Q 3578 3444 3931 3444 
Q 4444 3444 4676 3166 
Q 4909 2888 4909 2253 
L 4909 0 
L 4353 0 
L 4353 2144 
Q 4353 2634 4218 2821 
Q 4084 3009 3734 3009 
Q 3366 3009 3161 2736 
Q 2956 2463 2956 1959 
L 2956 0 
L 2400 0 
z
" transform="scale(0.015625)"/>
       <path id="LiberationSans-65" d="M 863 1572 
Q 863 991 1103 675 
Q 1344 359 1806 359 
Q 2172 359 2392 506 
Q 2613 653 2691 878 
L 3184 738 
Q 2881 -63 1806 -63 
Q 1056 -63 664 384 
Q 272 831 272 1713 
Q 272 2550 664 2997 
Q 1056 3444 1784 3444 
Q 3275 3444 3275 1647 
L 3275 1572 
L 863 1572 
z
M 2694 2003 
Q 2647 2538 2422 2783 
Q 2197 3028 1775 3028 
Q 1366 3028 1127 2754 
Q 888 2481 869 2003 
L 2694 2003 
z
" transform="scale(0.015625)"/>
       <path id="LiberationSans-20" transform="scale(0.015625)"/>
       <path id="LiberationSans-70" d="M 3291 1706 
Q 3291 -63 2047 -63 
Q 1266 -63 997 525 
L 981 525 
Q 994 500 994 -6 
L 994 -1328 
L 431 -1328 
L 431 2691 
Q 431 3213 413 3381 
L 956 3381 
Q 959 3369 965 3292 
Q 972 3216 980 3056 
Q 988 2897 988 2838 
L 1000 2838 
Q 1150 3150 1397 3295 
Q 1644 3441 2047 3441 
Q 2672 3441 2981 3022 
Q 3291 2603 3291 1706 
z
M 2700 1694 
Q 2700 2400 2509 2703 
Q 2319 3006 1903 3006 
Q 1569 3006 1380 2865 
Q 1191 2725 1092 2426 
Q 994 2128 994 1650 
Q 994 984 1206 668 
Q 1419 353 1897 353 
Q 2316 353 2508 661 
Q 2700 969 2700 1694 
z
" transform="scale(0.015625)"/>
       <path id="LiberationSans-73" d="M 2969 934 
Q 2969 456 2608 196 
Q 2247 -63 1597 -63 
Q 966 -63 623 145 
Q 281 353 178 794 
L 675 891 
Q 747 619 972 492 
Q 1197 366 1597 366 
Q 2025 366 2223 497 
Q 2422 628 2422 891 
Q 2422 1091 2284 1216 
Q 2147 1341 1841 1422 
L 1438 1528 
Q 953 1653 748 1773 
Q 544 1894 428 2066 
Q 313 2238 313 2488 
Q 313 2950 642 3192 
Q 972 3434 1603 3434 
Q 2163 3434 2492 3237 
Q 2822 3041 2909 2606 
L 2403 2544 
Q 2356 2769 2151 2889 
Q 1947 3009 1603 3009 
Q 1222 3009 1040 2893 
Q 859 2778 859 2544 
Q 859 2400 934 2306 
Q 1009 2213 1156 2147 
Q 1303 2081 1775 1966 
Q 2222 1853 2419 1758 
Q 2616 1663 2730 1547 
Q 2844 1431 2906 1279 
Q 2969 1128 2969 934 
z
" transform="scale(0.015625)"/>
      </defs>
      <use xlink:href="#LiberationSans-54"/>
      <use xlink:href="#LiberationSans-69" x="57.333984"/>
      <use xlink:href="#LiberationSans-6d" x="79.550781"/>
      <use xlink:href="#LiberationSans-65" x="162.851562"/>
      <use xlink:href="#LiberationSans-20" x="218.466797"/>
      <use xlink:href="#LiberationSans-70" x="246.25"/>
      <use xlink:href="#LiberationSans-73" x="301.865234"/>
     </g>
    </g>
   </g>
   <g id="matplotlib.axis_2">
    <g id="ytick_1">
     <g id="line2d_22">
      <defs>
       <path id="m3e37e70c7b" d="M 0 0 
L 3.5 0 
" style="stroke: #000000; stroke-width: 0.8"/>
      </defs>
      <g>
       <use xlink:href="#m3e37e70c7b" x="84.665625" y="613.063091" style="stroke: #000000; stroke-width: 0.8"/>
      </g>
     </g>
     <g id="text_8">
      <!-- $\mathdefault{0.0}$ -->
      <g transform="translate(39.165625 623.933403) scale(0.3 -0.3)">
       <defs>
        <path id="LiberationSans-2e" d="M 584 0 
L 584 684 
L 1194 684 
L 1194 0 
L 584 0 
z
" transform="scale(0.015625)"/>
       </defs>
       <use xlink:href="#LiberationSans-30" transform="translate(0 0.171875)"/>
       <use xlink:href="#LiberationSans-2e" transform="translate(55.615234 0.171875)"/>
       <use xlink:href="#LiberationSans-30" transform="translate(83.398438 0.171875)"/>
      </g>
     </g>
    </g>
    <g id="ytick_2">
     <g id="line2d_23">
      <g>
       <use xlink:href="#m3e37e70c7b" x="84.665625" y="507.039304" style="stroke: #000000; stroke-width: 0.8"/>
      </g>
     </g>
     <g id="text_9">
      <!-- $\mathdefault{0.2}$ -->
      <g transform="translate(39.165625 517.909616) scale(0.3 -0.3)">
       <use xlink:href="#LiberationSans-30" transform="translate(0 0.171875)"/>
       <use xlink:href="#LiberationSans-2e" transform="translate(55.615234 0.171875)"/>
       <use xlink:href="#LiberationSans-32" transform="translate(83.398438 0.171875)"/>
      </g>
     </g>
    </g>
    <g id="ytick_3">
     <g id="line2d_24">
      <g>
       <use xlink:href="#m3e37e70c7b" x="84.665625" y="401.015517" style="stroke: #000000; stroke-width: 0.8"/>
      </g>
     </g>
     <g id="text_10">
      <!-- $\mathdefault{0.4}$ -->
      <g transform="translate(39.165625 411.885829) scale(0.3 -0.3)">
       <use xlink:href="#LiberationSans-30" transform="translate(0 0.171875)"/>
       <use xlink:href="#LiberationSans-2e" transform="translate(55.615234 0.171875)"/>
       <use xlink:href="#LiberationSans-34" transform="translate(83.398438 0.171875)"/>
      </g>
     </g>
    </g>
    <g id="ytick_4">
     <g id="line2d_25">
      <g>
       <use xlink:href="#m3e37e70c7b" x="84.665625" y="294.99173" style="stroke: #000000; stroke-width: 0.8"/>
      </g>
     </g>
     <g id="text_11">
      <!-- $\mathdefault{0.6}$ -->
      <g transform="translate(39.165625 305.862042) scale(0.3 -0.3)">
       <use xlink:href="#LiberationSans-30" transform="translate(0 0.171875)"/>
       <use xlink:href="#LiberationSans-2e" transform="translate(55.615234 0.171875)"/>
       <use xlink:href="#LiberationSans-36" transform="translate(83.398438 0.171875)"/>
      </g>
     </g>
    </g>
    <g id="ytick_5">
     <g id="line2d_26">
      <g>
       <use xlink:href="#m3e37e70c7b" x="84.665625" y="188.967943" style="stroke: #000000; stroke-width: 0.8"/>
      </g>
     </g>
     <g id="text_12">
      <!-- $\mathdefault{0.8}$ -->
      <g transform="translate(39.165625 199.838255) scale(0.3 -0.3)">
       <use xlink:href="#LiberationSans-30" transform="translate(0 0.171875)"/>
       <use xlink:href="#LiberationSans-2e" transform="translate(55.615234 0.171875)"/>
       <use xlink:href="#LiberationSans-38" transform="translate(83.398438 0.171875)"/>
      </g>
     </g>
    </g>
    <g id="ytick_6">
     <g id="line2d_27">
      <g>
       <use xlink:href="#m3e37e70c7b" x="84.665625" y="82.944156" style="stroke: #000000; stroke-width: 0.8"/>
      </g>
     </g>
     <g id="text_13">
      <!-- $\mathdefault{1.0}$ -->
      <g transform="translate(39.165625 93.814468) scale(0.3 -0.3)">
       <use xlink:href="#LiberationSans-31" transform="translate(0 0.171875)"/>
       <use xlink:href="#LiberationSans-2e" transform="translate(55.615234 0.171875)"/>
       <use xlink:href="#LiberationSans-30" transform="translate(83.398438 0.171875)"/>
      </g>
     </g>
    </g>
    <g id="ytick_7">
     <g id="line2d_28">
      <defs>
       <path id="m40163dbbc7" d="M 0 0 
L 2 0 
" style="stroke: #000000; stroke-width: 0.6"/>
      </defs>
      <g>
       <use xlink:href="#m40163dbbc7" x="84.665625" y="639.569038" style="stroke: #000000; stroke-width: 0.6"/>
      </g>
     </g>
    </g>
    <g id="ytick_8">
     <g id="line2d_29">
      <g>
       <use xlink:href="#m40163dbbc7" x="84.665625" y="586.557144" style="stroke: #000000; stroke-width: 0.6"/>
      </g>
     </g>
    </g>
    <g id="ytick_9">
     <g id="line2d_30">
      <g>
       <use xlink:href="#m40163dbbc7" x="84.665625" y="560.051197" style="stroke: #000000; stroke-width: 0.6"/>
      </g>
     </g>
    </g>
    <g id="ytick_10">
     <g id="line2d_31">
      <g>
       <use xlink:href="#m40163dbbc7" x="84.665625" y="533.545251" style="stroke: #000000; stroke-width: 0.6"/>
      </g>
     </g>
    </g>
    <g id="ytick_11">
     <g id="line2d_32">
      <g>
       <use xlink:href="#m40163dbbc7" x="84.665625" y="480.533357" style="stroke: #000000; stroke-width: 0.6"/>
      </g>
     </g>
    </g>
    <g id="ytick_12">
     <g id="line2d_33">
      <g>
       <use xlink:href="#m40163dbbc7" x="84.665625" y="454.02741" style="stroke: #000000; stroke-width: 0.6"/>
      </g>
     </g>
    </g>
    <g id="ytick_13">
     <g id="line2d_34">
      <g>
       <use xlink:href="#m40163dbbc7" x="84.665625" y="427.521464" style="stroke: #000000; stroke-width: 0.6"/>
      </g>
     </g>
    </g>
    <g id="ytick_14">
     <g id="line2d_35">
      <g>
       <use xlink:href="#m40163dbbc7" x="84.665625" y="374.50957" style="stroke: #000000; stroke-width: 0.6"/>
      </g>
     </g>
    </g>
    <g id="ytick_15">
     <g id="line2d_36">
      <g>
       <use xlink:href="#m40163dbbc7" x="84.665625" y="348.003623" style="stroke: #000000; stroke-width: 0.6"/>
      </g>
     </g>
    </g>
    <g id="ytick_16">
     <g id="line2d_37">
      <g>
       <use xlink:href="#m40163dbbc7" x="84.665625" y="321.497676" style="stroke: #000000; stroke-width: 0.6"/>
      </g>
     </g>
    </g>
    <g id="ytick_17">
     <g id="line2d_38">
      <g>
       <use xlink:href="#m40163dbbc7" x="84.665625" y="268.485783" style="stroke: #000000; stroke-width: 0.6"/>
      </g>
     </g>
    </g>
    <g id="ytick_18">
     <g id="line2d_39">
      <g>
       <use xlink:href="#m40163dbbc7" x="84.665625" y="241.979836" style="stroke: #000000; stroke-width: 0.6"/>
      </g>
     </g>
    </g>
    <g id="ytick_19">
     <g id="line2d_40">
      <g>
       <use xlink:href="#m40163dbbc7" x="84.665625" y="215.473889" style="stroke: #000000; stroke-width: 0.6"/>
      </g>
     </g>
    </g>
    <g id="ytick_20">
     <g id="line2d_41">
      <g>
       <use xlink:href="#m40163dbbc7" x="84.665625" y="162.461996" style="stroke: #000000; stroke-width: 0.6"/>
      </g>
     </g>
    </g>
    <g id="ytick_21">
     <g id="line2d_42">
      <g>
       <use xlink:href="#m40163dbbc7" x="84.665625" y="135.956049" style="stroke: #000000; stroke-width: 0.6"/>
      </g>
     </g>
    </g>
    <g id="ytick_22">
     <g id="line2d_43">
      <g>
       <use xlink:href="#m40163dbbc7" x="84.665625" y="109.450102" style="stroke: #000000; stroke-width: 0.6"/>
      </g>
     </g>
    </g>
    <g id="ytick_23">
     <g id="line2d_44">
      <g>
       <use xlink:href="#m40163dbbc7" x="84.665625" y="56.438209" style="stroke: #000000; stroke-width: 0.6"/>
      </g>
     </g>
    </g>
    <g id="text_14">
     <!-- ITR K · m$^2$/W -->
     <g transform="translate(28.940625 428.439) rotate(-90) scale(0.3 -0.3)">
      <defs>
       <path id="LiberationSans-49" d="M 591 0 
L 591 4403 
L 1188 4403 
L 1188 0 
L 591 0 
z
" transform="scale(0.015625)"/>
       <path id="LiberationSans-52" d="M 3638 0 
L 2494 1828 
L 1122 1828 
L 1122 0 
L 525 0 
L 525 4403 
L 2597 4403 
Q 3341 4403 3745 4070 
Q 4150 3738 4150 3144 
Q 4150 2653 3864 2318 
Q 3578 1984 3075 1897 
L 4325 0 
L 3638 0 
z
M 3550 3138 
Q 3550 3522 3289 3723 
Q 3028 3925 2538 3925 
L 1122 3925 
L 1122 2300 
L 2563 2300 
Q 3034 2300 3292 2520 
Q 3550 2741 3550 3138 
z
" transform="scale(0.015625)"/>
       <path id="LiberationSans-4b" d="M 3456 0 
L 1697 2125 
L 1122 1688 
L 1122 0 
L 525 0 
L 525 4403 
L 1122 4403 
L 1122 2197 
L 3244 4403 
L 3947 4403 
L 2072 2491 
L 4197 0 
L 3456 0 
z
" transform="scale(0.015625)"/>
       <path id="LiberationSans-b7" d="M 760 1394 
L 760 2081 
L 1370 2081 
L 1370 1394 
L 760 1394 
z
" transform="scale(0.015625)"/>
       <path id="STIXGeneral-Regular-32" d="M 3034 877 
L 2688 0 
L 186 0 
L 186 77 
L 1325 1286 
Q 1773 1754 1965 2144 
Q 2157 2534 2157 2950 
Q 2157 3379 1920 3616 
Q 1683 3853 1267 3853 
Q 922 3853 720 3673 
Q 518 3494 326 3021 
L 192 3053 
Q 301 3648 630 3987 
Q 960 4326 1523 4326 
Q 2054 4326 2380 4006 
Q 2707 3686 2707 3200 
Q 2707 2477 1888 1613 
L 832 486 
L 2330 486 
Q 2541 486 2665 569 
Q 2790 653 2944 915 
L 3034 877 
z
" transform="scale(0.015625)"/>
       <path id="LiberationSans-2f" d="M 0 -63 
L 1284 4638 
L 1778 4638 
L 506 -63 
L 0 -63 
z
" transform="scale(0.015625)"/>
       <path id="LiberationSans-57" d="M 4722 0 
L 4009 0 
L 3247 2797 
Q 3172 3059 3028 3738 
Q 2947 3375 2890 3131 
Q 2834 2888 2038 0 
L 1325 0 
L 28 4403 
L 650 4403 
L 1441 1606 
Q 1581 1081 1700 525 
Q 1775 869 1873 1275 
Q 1972 1681 2741 4403 
L 3313 4403 
L 4078 1663 
Q 4253 991 4353 525 
L 4381 634 
Q 4466 994 4519 1220 
Q 4572 1447 5397 4403 
L 6019 4403 
L 4722 0 
z
" transform="scale(0.015625)"/>
      </defs>
      <use xlink:href="#LiberationSans-49" transform="translate(0 0.409375)"/>
      <use xlink:href="#LiberationSans-54" transform="translate(27.783203 0.409375)"/>
      <use xlink:href="#LiberationSans-52" transform="translate(88.867188 0.409375)"/>
      <use xlink:href="#LiberationSans-20" transform="translate(161.083984 0.409375)"/>
      <use xlink:href="#LiberationSans-4b" transform="translate(188.867188 0.409375)"/>
      <use xlink:href="#LiberationSans-20" transform="translate(255.566406 0.409375)"/>
      <use xlink:href="#LiberationSans-b7" transform="translate(283.349609 0.409375)"/>
      <use xlink:href="#LiberationSans-20" transform="translate(316.650391 0.409375)"/>
      <use xlink:href="#LiberationSans-6d" transform="translate(344.433594 0.409375)"/>
      <use xlink:href="#STIXGeneral-Regular-32" transform="translate(429.277656 35.684375) scale(0.7)"/>
      <use xlink:href="#LiberationSans-2f" transform="translate(468.687021 0.409375)"/>
      <use xlink:href="#LiberationSans-57" transform="translate(496.470224 0.409375)"/>
     </g>
    </g>
    <g id="text_15">
     <!-- $\times\mathdefault{10^{−6}}\mathdefault{}$ -->
     <g transform="translate(84.665625 36.1875) scale(0.4 -0.4)">
      <defs>
       <path id="STIXGeneral-Regular-d7" d="M 3821 141 
L 3526 -160 
L 2048 1312 
L 570 -160 
L 275 134 
L 1747 1613 
L 275 3091 
L 576 3386 
L 2048 1914 
L 3526 3386 
L 3821 3098 
L 2349 1613 
L 3821 141 
z
" transform="scale(0.015625)"/>
       <path id="LiberationSans-2212" d="M 316 1900 
L 316 2356 
L 3425 2356 
L 3425 1900 
L 316 1900 
z
" transform="scale(0.015625)"/>
      </defs>
      <use xlink:href="#STIXGeneral-Regular-d7" transform="translate(0 0.140625)"/>
      <use xlink:href="#LiberationSans-31" transform="translate(63.999985 0.140625)"/>
      <use xlink:href="#LiberationSans-30" transform="translate(119.615219 0.140625)"/>
      <use xlink:href="#LiberationSans-2212" transform="translate(176.154946 37.120312) scale(0.7)"/>
      <use xlink:href="#LiberationSans-36" transform="translate(217.033852 37.120312) scale(0.7)"/>
     </g>
    </g>
   </g>
   <g id="line2d_45">
    <path d="M 112.839511 613.063091 
L 112.89587 66.514909 
L 112.952229 339.655034 
L 113.121306 503.324151 
L 113.346742 551.537454 
L 113.628537 572.763509 
L 113.966692 583.904964 
L 114.361205 590.289992 
L 114.812077 594.052278 
L 115.26295 595.999769 
L 115.657463 596.842727 
L 115.995617 597.121315 
L 116.277412 597.10296 
L 116.615567 596.820197 
L 117.01008 596.162222 
L 117.517311 594.822223 
L 118.080902 592.681619 
L 118.75721 589.167841 
L 119.489878 584.118916 
L 120.335264 576.571779 
L 121.237008 566.429697 
L 123.660447 537.627503 
L 124.05496 535.784565 
L 124.336756 535.371326 
L 124.505833 535.476112 
L 124.731269 535.996064 
L 125.069423 537.478714 
L 125.633014 541.257273 
L 127.60558 555.633094 
L 128.281889 558.765947 
L 128.901838 560.687722 
L 129.465429 561.735302 
L 129.916301 562.155592 
L 130.310814 562.256483 
L 130.705328 562.137135 
L 131.1562 561.763634 
L 131.71979 560.992422 
L 132.452458 559.583301 
L 133.52328 556.962533 
L 136.115796 550.370705 
L 136.904822 549.016191 
L 137.524772 548.371411 
L 137.975644 548.185017 
L 138.370158 548.241201 
L 138.764671 548.515616 
L 139.215543 549.102711 
L 139.779134 550.231153 
L 140.511801 552.245286 
L 143.160676 560.136848 
L 143.780626 561.090293 
L 144.231498 561.439077 
L 144.626011 561.502929 
L 145.020525 561.35019 
L 145.471397 560.932766 
L 146.091346 560.005703 
L 146.993091 558.183264 
L 149.247453 553.49594 
L 151.670892 549.280433 
L 152.403559 548.355867 
L 152.910791 548.046381 
L 153.305304 548.063259 
L 153.699817 548.334319 
L 154.15069 548.956371 
L 154.71428 550.141446 
L 155.728743 552.920365 
L 156.912283 555.966215 
L 157.64495 557.24733 
L 158.208541 557.841006 
L 158.715772 558.097023 
L 159.223004 558.121455 
L 159.786594 557.924527 
L 160.462903 557.447792 
L 161.364647 556.51387 
L 162.491828 554.987599 
L 165.197062 551.099717 
L 165.760653 550.735216 
L 166.267884 550.658796 
L 166.775115 550.82336 
L 167.338706 551.254192 
L 168.127732 552.162142 
L 170.551171 555.141897 
L 171.509275 555.892762 
L 172.354661 556.274881 
L 173.087328 556.356342 
L 173.707278 556.21223 
L 174.383586 555.809288 
L 175.116254 555.088896 
L 176.130717 553.731379 
L 177.70877 551.623968 
L 178.441437 551.012138 
L 179.117746 550.739907 
L 179.794054 550.717596 
L 180.63944 550.935675 
L 181.879339 551.517375 
L 183.288315 552.425635 
L 186.106267 554.382137 
L 186.838935 554.53256 
L 187.571602 554.445404 
L 188.473347 554.079503 
L 192.023967 552.363481 
L 194.672842 551.402274 
L 195.40551 551.413706 
L 196.138177 551.657589 
L 197.096281 552.248985 
L 198.617975 553.186824 
L 199.407002 553.38769 
L 200.196028 553.347341 
L 201.323209 553.032617 
L 203.070339 552.573695 
L 206.113728 551.937512 
L 207.522704 551.642454 
L 208.424449 551.680138 
L 209.551629 551.975934 
L 211.186042 552.397476 
L 212.200504 552.397125 
L 213.778558 552.112635 
L 215.243893 551.947163 
L 219.52718 551.69673 
L 221.105233 551.695431 
L 222.965082 551.679148 
L 224.092263 551.419111 
L 229.55909 549.549568 
L 231.080784 549.006914 
L 231.869811 548.965287 
L 232.602478 549.150114 
L 233.504223 549.628579 
L 235.533148 550.790567 
L 236.322175 550.948479 
L 237.167561 550.879298 
L 238.182024 550.555957 
L 239.703718 549.819731 
L 241.112694 548.907739 
L 242.578029 547.654944 
L 243.930646 546.562233 
L 244.663314 546.234095 
L 245.283263 546.183491 
L 245.903212 546.351957 
L 246.63588 546.791517 
L 247.932138 547.898388 
L 249.228396 548.895137 
L 250.073782 549.28399 
L 250.862808 549.414054 
L 251.651835 549.326194 
L 252.609939 548.984763 
L 255.202455 547.914585 
L 256.04784 547.893807 
L 257.062303 548.113356 
L 259.203947 548.647976 
L 260.500205 548.666276 
L 262.303694 548.69995 
L 263.994465 549.036113 
L 265.121646 549.147373 
L 266.023391 549.006676 
L 267.037854 548.604553 
L 270.419396 547.071415 
L 272.110168 546.323 
L 274.251811 545.310279 
L 275.040838 545.226276 
L 275.773506 545.373949 
L 276.67525 545.804329 
L 279.155048 547.143914 
L 280.113152 547.331822 
L 281.183974 547.301943 
L 282.59295 547.016555 
L 284.452798 546.394971 
L 286.932596 545.555707 
L 288.059777 545.434188 
L 289.243317 545.539143 
L 290.82137 545.925413 
L 295.048298 547.081204 
L 296.626352 547.116706 
L 298.655277 547.192164 
L 301.867743 547.477617 
L 303.051283 547.251268 
L 307.503647 546.112232 
L 308.743546 546.177011 
L 309.927086 546.458897 
L 311.392421 547.062392 
L 313.364987 547.870386 
L 314.323091 548.018749 
L 315.224836 547.929942 
L 316.18294 547.594789 
L 317.36648 546.919521 
L 321.987921 544.00198 
L 323.002384 543.726528 
L 323.960488 543.700423 
L 324.97495 543.908701 
L 326.271208 544.420805 
L 329.540033 545.810095 
L 330.723573 546.021975 
L 331.907113 546.009158 
L 333.541525 545.738662 
L 336.1904 545.2973 
L 337.599376 545.298178 
L 338.782916 545.51876 
L 339.966456 545.976169 
L 343.404358 547.505652 
L 344.306102 547.52324 
L 345.264206 547.308213 
L 347.236773 546.545467 
L 348.645749 546.158184 
L 350.167443 545.987597 
L 357.3814 545.473554 
L 361.833765 544.803232 
L 364.651717 544.652812 
L 366.173411 544.768034 
L 367.526028 545.102149 
L 370.682135 546.02292 
L 371.640238 545.963528 
L 372.71106 545.648774 
L 376.318039 544.360148 
L 377.952451 544.17538 
L 379.755941 544.181953 
L 381.108558 544.401677 
L 382.686611 544.907633 
L 384.940973 545.623137 
L 386.519026 545.866247 
L 388.322515 545.925318 
L 389.562414 545.764285 
L 390.689595 545.383768 
L 392.324007 544.536344 
L 393.507547 544.030352 
L 394.352933 543.899938 
L 395.198319 544.001089 
L 396.26914 544.378484 
L 398.63622 545.280852 
L 400.43971 545.628166 
L 402.468635 546.096507 
L 404.215766 546.470141 
L 405.173869 546.438578 
L 406.019255 546.191948 
L 406.977359 545.67416 
L 410.020747 543.810153 
L 410.866133 543.671197 
L 411.824236 543.751279 
L 414.923984 544.211555 
L 416.445678 544.04675 
L 419.658143 543.671659 
L 423.434199 543.360536 
L 424.223226 543.64934 
L 425.068612 544.219284 
L 426.252152 545.340997 
L 427.773846 546.734092 
L 428.619231 547.196831 
L 429.351899 547.346916 
L 430.084567 547.274037 
L 430.986311 546.944001 
L 432.395287 546.142946 
L 435.269599 544.486587 
L 436.734934 543.902213 
L 437.862115 543.684358 
L 438.989295 543.69672 
L 440.736426 543.985969 
L 442.427197 544.176372 
L 443.892532 544.097351 
L 445.752381 543.754088 
L 447.499511 543.216219 
L 450.148386 542.349812 
L 451.050131 542.327601 
L 451.951875 542.534798 
L 453.022697 543.029543 
L 456.178804 544.659647 
L 457.193266 544.858508 
L 458.15137 544.826965 
L 459.33491 544.548908 
L 461.589272 543.966624 
L 462.660094 543.956336 
L 464.350865 544.214557 
L 465.759841 544.334337 
L 467.056099 544.208601 
L 469.085025 543.743028 
L 471.395745 543.023703 
L 473.199235 542.21102 
L 475.115442 541.383881 
L 476.017187 541.239832 
L 476.862573 541.338168 
L 477.764317 541.680984 
L 479.455089 542.639492 
L 480.751347 543.24269 
L 481.934887 543.539934 
L 483.287504 543.635353 
L 484.69648 543.512706 
L 485.936379 543.177881 
L 487.401714 542.520539 
L 489.430639 541.621356 
L 490.501461 541.405103 
L 491.572283 541.416523 
L 493.093977 541.684155 
L 495.010185 541.980933 
L 496.531879 541.95987 
L 499.068036 541.892152 
L 500.927884 542.148064 
L 502.95681 542.368444 
L 507.183738 542.635642 
L 509.832613 543.019807 
L 511.18523 542.958769 
L 512.594206 542.670437 
L 516.370262 541.717737 
L 517.272007 541.856308 
L 518.455547 542.290334 
L 520.766267 543.186129 
L 522.457039 543.535566 
L 527.360276 544.264792 
L 528.600175 544.070381 
L 536.941313 542.201062 
L 538.519366 542.192383 
L 540.266497 542.402392 
L 541.957268 542.827806 
L 546.465991 544.105749 
L 548.663994 544.437598 
L 551.087433 544.546532 
L 553.341795 544.476795 
L 554.638053 544.202004 
L 558.188672 543.222483 
L 559.146776 543.351019 
L 562.641037 544.090545 
L 563.824577 543.908516 
L 566.473452 543.414924 
L 570.362226 543.037203 
L 572.842024 542.567914 
L 574.476436 542.558669 
L 578.759723 542.811959 
L 579.943263 543.275739 
L 581.803112 544.033837 
L 582.648497 544.129541 
L 583.493883 544.00523 
L 584.564705 543.598676 
L 587.439016 542.376513 
L 588.566197 542.217228 
L 589.749737 542.282276 
L 593.413075 542.678362 
L 594.87841 542.45441 
L 598.936261 541.706329 
L 600.627032 541.644744 
L 601.754213 541.827496 
L 602.825035 542.237564 
L 606.150218 543.736116 
L 607.051963 543.774902 
L 608.066426 543.590227 
L 610.095351 542.909617 
L 611.33525 542.639614 
L 612.406072 542.632828 
L 613.589612 542.85506 
L 615.393101 543.45357 
L 618.041977 544.313641 
L 619.169157 544.430303 
L 620.127261 544.31233 
L 621.198083 543.951891 
L 624.466907 542.673886 
L 625.706806 542.564153 
L 627.84845 542.659998 
L 630.271889 542.910901 
L 631.455429 543.266327 
L 632.864405 543.94382 
L 635.062408 545.003409 
L 636.358666 545.359521 
L 637.936719 545.546782 
L 643.17811 545.947422 
L 644.699804 546.137419 
L 645.601549 546.031914 
L 646.503293 545.702299 
L 647.630474 545.025751 
L 650.110272 543.442397 
L 651.068376 543.139891 
L 651.970121 543.094937 
L 652.871865 543.279572 
L 653.886328 543.725018 
L 655.295304 544.614717 
L 657.32423 545.872232 
L 658.451411 546.291151 
L 659.522232 546.452569 
L 660.81849 546.410242 
L 662.340185 546.139036 
L 663.692802 545.681305 
L 665.270855 544.88306 
L 666.961626 544.084779 
L 667.91973 543.876009 
L 668.877834 543.895093 
L 670.061374 544.16489 
L 674.851892 545.541669 
L 675.922714 545.489196 
L 676.317227 545.415735 
L 676.317227 545.415735 
" clip-path="url(#pe5f0c49b89)" style="fill: none; stroke: #ff0000; stroke-width: 1.5; stroke-linecap: square"/>
   </g>
   <g id="patch_3">
    <path d="M 84.665625 640.3905 
L 84.665625 39.1875 
" style="fill: none; stroke: #000000; stroke-width: 0.8; stroke-linejoin: miter; stroke-linecap: square"/>
   </g>
   <g id="patch_4">
    <path d="M 704.491113 640.3905 
L 704.491113 39.1875 
" style="fill: none; stroke: #000000; stroke-width: 0.8; stroke-linejoin: miter; stroke-linecap: square"/>
   </g>
   <g id="patch_5">
    <path d="M 84.665625 640.3905 
L 704.491113 640.3905 
" style="fill: none; stroke: #000000; stroke-width: 0.8; stroke-linejoin: miter; stroke-linecap: square"/>
   </g>
   <g id="patch_6">
    <path d="M 84.665625 39.1875 
L 704.491113 39.1875 
" style="fill: none; stroke: #000000; stroke-width: 0.8; stroke-linejoin: miter; stroke-linecap: square"/>
   </g>
  </g>
 </g>
 <defs>
  <clipPath id="pe5f0c49b89">
   <rect x="84.665625" y="39.1875" width="619.825488" height="601.203"/>
  </clipPath>
 </defs>
</svg>
