<?xml version="1.0" encoding="utf-8" standalone="no"?>
<!DOCTYPE svg PUBLIC "-//W3C//DTD SVG 1.1//EN"
  "http://www.w3.org/Graphics/SVG/1.1/DTD/svg11.dtd">
<svg xmlns:xlink="http://www.w3.org/1999/xlink" width="710.741988pt" height="711.02175pt" viewBox="0 0 710.741988 711.02175" xmlns="http://www.w3.org/2000/svg" version="1.1">
 <metadata>
  <rdf:RDF xmlns:dc="http://purl.org/dc/elements/1.1/" xmlns:cc="http://creativecommons.org/ns#" xmlns:rdf="http://www.w3.org/1999/02/22-rdf-syntax-ns#">
   <cc:Work>
    <dc:type rdf:resource="http://purl.org/dc/dcmitype/StillImage"/>
    <dc:date>2025-02-03T20:55:07.149771</dc:date>
    <dc:format>image/svg+xml</dc:format>
    <dc:creator>
     <cc:Agent>
      <dc:title>Matplotlib v3.9.3, https://matplotlib.org/</dc:title>
     </cc:Agent>
    </dc:creator>
   </cc:Work>
  </rdf:RDF>
 </metadata>
 <defs>
  <style type="text/css">*{stroke-linejoin: round; stroke-linecap: butt}</style>
 </defs>
 <g id="figure_1">
  <g id="patch_1">
   <path d="M 0 711.02175 
L 710.741988 711.02175 
L 710.741988 0 
L 0 0 
z
" style="fill: #ffffff"/>
  </g>
  <g id="axes_1">
   <g id="patch_2">
    <path d="M 79.5 640.3905 
L 703.541988 640.3905 
L 703.541988 39.1875 
L 79.5 39.1875 
z
" style="fill: #ffffff"/>
   </g>
   <g id="matplotlib.axis_1">
    <g id="xtick_1">
     <g id="line2d_1">
      <defs>
       <path id="m2b50dd69d4" d="M 0 0 
L 0 -3.5 
" style="stroke: #000000; stroke-width: 0.8"/>
      </defs>
      <g>
       <use xlink:href="#m2b50dd69d4" x="107.808808" y="640.3905" style="stroke: #000000; stroke-width: 0.8"/>
      </g>
     </g>
     <g id="text_1">
      <!-- 0 -->
      <g transform="translate(99.467402 665.631125) scale(0.3 -0.3)">
       <defs>
        <path id="LiberationSans-30" d="M 3309 2203 
Q 3309 1100 2920 518 
Q 2531 -63 1772 -63 
Q 1013 -63 631 515 
Q 250 1094 250 2203 
Q 250 3338 620 3903 
Q 991 4469 1791 4469 
Q 2569 4469 2939 3897 
Q 3309 3325 3309 2203 
z
M 2738 2203 
Q 2738 3156 2517 3584 
Q 2297 4013 1791 4013 
Q 1272 4013 1045 3591 
Q 819 3169 819 2203 
Q 819 1266 1048 831 
Q 1278 397 1778 397 
Q 2275 397 2506 840 
Q 2738 1284 2738 2203 
z
" transform="scale(0.015625)"/>
       </defs>
       <use xlink:href="#LiberationSans-30"/>
      </g>
     </g>
    </g>
    <g id="xtick_2">
     <g id="line2d_2">
      <g>
       <use xlink:href="#m2b50dd69d4" x="221.282335" y="640.3905" style="stroke: #000000; stroke-width: 0.8"/>
      </g>
     </g>
     <g id="text_2">
      <!-- 2 -->
      <g transform="translate(212.940929 665.631125) scale(0.3 -0.3)">
       <defs>
        <path id="LiberationSans-32" d="M 322 0 
L 322 397 
Q 481 763 711 1042 
Q 941 1322 1194 1548 
Q 1447 1775 1695 1969 
Q 1944 2163 2144 2356 
Q 2344 2550 2467 2762 
Q 2591 2975 2591 3244 
Q 2591 3606 2378 3806 
Q 2166 4006 1788 4006 
Q 1428 4006 1195 3811 
Q 963 3616 922 3263 
L 347 3316 
Q 409 3844 795 4156 
Q 1181 4469 1788 4469 
Q 2453 4469 2811 4155 
Q 3169 3841 3169 3263 
Q 3169 3006 3051 2753 
Q 2934 2500 2703 2247 
Q 2472 1994 1819 1463 
Q 1459 1169 1246 933 
Q 1034 697 941 478 
L 3238 478 
L 3238 0 
L 322 0 
z
" transform="scale(0.015625)"/>
       </defs>
       <use xlink:href="#LiberationSans-32"/>
      </g>
     </g>
    </g>
    <g id="xtick_3">
     <g id="line2d_3">
      <g>
       <use xlink:href="#m2b50dd69d4" x="334.755862" y="640.3905" style="stroke: #000000; stroke-width: 0.8"/>
      </g>
     </g>
     <g id="text_3">
      <!-- 4 -->
      <g transform="translate(326.414456 665.631125) scale(0.3 -0.3)">
       <defs>
        <path id="LiberationSans-34" d="M 2753 997 
L 2753 0 
L 2222 0 
L 2222 997 
L 147 997 
L 147 1434 
L 2163 4403 
L 2753 4403 
L 2753 1441 
L 3372 1441 
L 3372 997 
L 2753 997 
z
M 2222 3769 
Q 2216 3750 2134 3603 
Q 2053 3456 2013 3397 
L 884 1734 
L 716 1503 
L 666 1441 
L 2222 1441 
L 2222 3769 
z
" transform="scale(0.015625)"/>
       </defs>
       <use xlink:href="#LiberationSans-34"/>
      </g>
     </g>
    </g>
    <g id="xtick_4">
     <g id="line2d_4">
      <g>
       <use xlink:href="#m2b50dd69d4" x="448.229389" y="640.3905" style="stroke: #000000; stroke-width: 0.8"/>
      </g>
     </g>
     <g id="text_4">
      <!-- 6 -->
      <g transform="translate(439.887983 665.631125) scale(0.3 -0.3)">
       <defs>
        <path id="LiberationSans-36" d="M 3278 1441 
Q 3278 744 2900 340 
Q 2522 -63 1856 -63 
Q 1113 -63 719 490 
Q 325 1044 325 2100 
Q 325 3244 734 3856 
Q 1144 4469 1900 4469 
Q 2897 4469 3156 3572 
L 2619 3475 
Q 2453 4013 1894 4013 
Q 1413 4013 1148 3564 
Q 884 3116 884 2266 
Q 1038 2550 1316 2698 
Q 1594 2847 1953 2847 
Q 2563 2847 2920 2465 
Q 3278 2084 3278 1441 
z
M 2706 1416 
Q 2706 1894 2472 2153 
Q 2238 2413 1819 2413 
Q 1425 2413 1183 2183 
Q 941 1953 941 1550 
Q 941 1041 1192 716 
Q 1444 391 1838 391 
Q 2244 391 2475 664 
Q 2706 938 2706 1416 
z
" transform="scale(0.015625)"/>
       </defs>
       <use xlink:href="#LiberationSans-36"/>
      </g>
     </g>
    </g>
    <g id="xtick_5">
     <g id="line2d_5">
      <g>
       <use xlink:href="#m2b50dd69d4" x="561.702916" y="640.3905" style="stroke: #000000; stroke-width: 0.8"/>
      </g>
     </g>
     <g id="text_5">
      <!-- 8 -->
      <g transform="translate(553.36151 665.631125) scale(0.3 -0.3)">
       <defs>
        <path id="LiberationSans-38" d="M 3281 1228 
Q 3281 619 2893 278 
Q 2506 -63 1781 -63 
Q 1075 -63 676 271 
Q 278 606 278 1222 
Q 278 1653 525 1947 
Q 772 2241 1156 2303 
L 1156 2316 
Q 797 2400 589 2681 
Q 381 2963 381 3341 
Q 381 3844 757 4156 
Q 1134 4469 1769 4469 
Q 2419 4469 2795 4162 
Q 3172 3856 3172 3334 
Q 3172 2956 2962 2675 
Q 2753 2394 2391 2322 
L 2391 2309 
Q 2813 2241 3047 1952 
Q 3281 1663 3281 1228 
z
M 2588 3303 
Q 2588 4050 1769 4050 
Q 1372 4050 1164 3862 
Q 956 3675 956 3303 
Q 956 2925 1170 2726 
Q 1384 2528 1775 2528 
Q 2172 2528 2380 2711 
Q 2588 2894 2588 3303 
z
M 2697 1281 
Q 2697 1691 2453 1898 
Q 2209 2106 1769 2106 
Q 1341 2106 1100 1882 
Q 859 1659 859 1269 
Q 859 359 1788 359 
Q 2247 359 2472 579 
Q 2697 800 2697 1281 
z
" transform="scale(0.015625)"/>
       </defs>
       <use xlink:href="#LiberationSans-38"/>
      </g>
     </g>
    </g>
    <g id="xtick_6">
     <g id="line2d_6">
      <g>
       <use xlink:href="#m2b50dd69d4" x="675.176443" y="640.3905" style="stroke: #000000; stroke-width: 0.8"/>
      </g>
     </g>
     <g id="text_6">
      <!-- 10 -->
      <g transform="translate(658.493631 665.631125) scale(0.3 -0.3)">
       <defs>
        <path id="LiberationSans-31" d="M 488 0 
L 488 478 
L 1609 478 
L 1609 3866 
L 616 3156 
L 616 3688 
L 1656 4403 
L 2175 4403 
L 2175 478 
L 3247 478 
L 3247 0 
L 488 0 
z
" transform="scale(0.015625)"/>
       </defs>
       <use xlink:href="#LiberationSans-31"/>
       <use xlink:href="#LiberationSans-30" x="55.615234"/>
      </g>
     </g>
    </g>
    <g id="xtick_7">
     <g id="line2d_7">
      <defs>
       <path id="m8c3bc604bc" d="M 0 0 
L 0 -2 
" style="stroke: #000000; stroke-width: 0.6"/>
      </defs>
      <g>
       <use xlink:href="#m8c3bc604bc" x="136.17719" y="640.3905" style="stroke: #000000; stroke-width: 0.6"/>
      </g>
     </g>
    </g>
    <g id="xtick_8">
     <g id="line2d_8">
      <g>
       <use xlink:href="#m8c3bc604bc" x="164.545572" y="640.3905" style="stroke: #000000; stroke-width: 0.6"/>
      </g>
     </g>
    </g>
    <g id="xtick_9">
     <g id="line2d_9">
      <g>
       <use xlink:href="#m8c3bc604bc" x="192.913953" y="640.3905" style="stroke: #000000; stroke-width: 0.6"/>
      </g>
     </g>
    </g>
    <g id="xtick_10">
     <g id="line2d_10">
      <g>
       <use xlink:href="#m8c3bc604bc" x="249.650717" y="640.3905" style="stroke: #000000; stroke-width: 0.6"/>
      </g>
     </g>
    </g>
    <g id="xtick_11">
     <g id="line2d_11">
      <g>
       <use xlink:href="#m8c3bc604bc" x="278.019099" y="640.3905" style="stroke: #000000; stroke-width: 0.6"/>
      </g>
     </g>
    </g>
    <g id="xtick_12">
     <g id="line2d_12">
      <g>
       <use xlink:href="#m8c3bc604bc" x="306.38748" y="640.3905" style="stroke: #000000; stroke-width: 0.6"/>
      </g>
     </g>
    </g>
    <g id="xtick_13">
     <g id="line2d_13">
      <g>
       <use xlink:href="#m8c3bc604bc" x="363.124244" y="640.3905" style="stroke: #000000; stroke-width: 0.6"/>
      </g>
     </g>
    </g>
    <g id="xtick_14">
     <g id="line2d_14">
      <g>
       <use xlink:href="#m8c3bc604bc" x="391.492626" y="640.3905" style="stroke: #000000; stroke-width: 0.6"/>
      </g>
     </g>
    </g>
    <g id="xtick_15">
     <g id="line2d_15">
      <g>
       <use xlink:href="#m8c3bc604bc" x="419.861008" y="640.3905" style="stroke: #000000; stroke-width: 0.6"/>
      </g>
     </g>
    </g>
    <g id="xtick_16">
     <g id="line2d_16">
      <g>
       <use xlink:href="#m8c3bc604bc" x="476.597771" y="640.3905" style="stroke: #000000; stroke-width: 0.6"/>
      </g>
     </g>
    </g>
    <g id="xtick_17">
     <g id="line2d_17">
      <g>
       <use xlink:href="#m8c3bc604bc" x="504.966153" y="640.3905" style="stroke: #000000; stroke-width: 0.6"/>
      </g>
     </g>
    </g>
    <g id="xtick_18">
     <g id="line2d_18">
      <g>
       <use xlink:href="#m8c3bc604bc" x="533.334535" y="640.3905" style="stroke: #000000; stroke-width: 0.6"/>
      </g>
     </g>
    </g>
    <g id="xtick_19">
     <g id="line2d_19">
      <g>
       <use xlink:href="#m8c3bc604bc" x="590.071298" y="640.3905" style="stroke: #000000; stroke-width: 0.6"/>
      </g>
     </g>
    </g>
    <g id="xtick_20">
     <g id="line2d_20">
      <g>
       <use xlink:href="#m8c3bc604bc" x="618.43968" y="640.3905" style="stroke: #000000; stroke-width: 0.6"/>
      </g>
     </g>
    </g>
    <g id="xtick_21">
     <g id="line2d_21">
      <g>
       <use xlink:href="#m8c3bc604bc" x="646.808062" y="640.3905" style="stroke: #000000; stroke-width: 0.6"/>
      </g>
     </g>
    </g>
    <g id="text_7">
     <!-- Time ps -->
     <g transform="translate(338.744432 697.59675) scale(0.3 -0.3)">
      <defs>
       <path id="LiberationSans-54" d="M 2250 3916 
L 2250 0 
L 1656 0 
L 1656 3916 
L 144 3916 
L 144 4403 
L 3763 4403 
L 3763 3916 
L 2250 3916 
z
" transform="scale(0.015625)"/>
       <path id="LiberationSans-69" d="M 428 4100 
L 428 4638 
L 991 4638 
L 991 4100 
L 428 4100 
z
M 428 0 
L 428 3381 
L 991 3381 
L 991 0 
L 428 0 
z
" transform="scale(0.015625)"/>
       <path id="LiberationSans-6d" d="M 2400 0 
L 2400 2144 
Q 2400 2634 2265 2821 
Q 2131 3009 1781 3009 
Q 1422 3009 1212 2734 
Q 1003 2459 1003 1959 
L 1003 0 
L 444 0 
L 444 2659 
Q 444 3250 425 3381 
L 956 3381 
Q 959 3366 962 3297 
Q 966 3228 970 3139 
Q 975 3050 981 2803 
L 991 2803 
Q 1172 3163 1406 3303 
Q 1641 3444 1978 3444 
Q 2363 3444 2586 3291 
Q 2809 3138 2897 2803 
L 2906 2803 
Q 3081 3144 3329 3294 
Q 3578 3444 3931 3444 
Q 4444 3444 4676 3166 
Q 4909 2888 4909 2253 
L 4909 0 
L 4353 0 
L 4353 2144 
Q 4353 2634 4218 2821 
Q 4084 3009 3734 3009 
Q 3366 3009 3161 2736 
Q 2956 2463 2956 1959 
L 2956 0 
L 2400 0 
z
" transform="scale(0.015625)"/>
       <path id="LiberationSans-65" d="M 863 1572 
Q 863 991 1103 675 
Q 1344 359 1806 359 
Q 2172 359 2392 506 
Q 2613 653 2691 878 
L 3184 738 
Q 2881 -63 1806 -63 
Q 1056 -63 664 384 
Q 272 831 272 1713 
Q 272 2550 664 2997 
Q 1056 3444 1784 3444 
Q 3275 3444 3275 1647 
L 3275 1572 
L 863 1572 
z
M 2694 2003 
Q 2647 2538 2422 2783 
Q 2197 3028 1775 3028 
Q 1366 3028 1127 2754 
Q 888 2481 869 2003 
L 2694 2003 
z
" transform="scale(0.015625)"/>
       <path id="LiberationSans-20" transform="scale(0.015625)"/>
       <path id="LiberationSans-70" d="M 3291 1706 
Q 3291 -63 2047 -63 
Q 1266 -63 997 525 
L 981 525 
Q 994 500 994 -6 
L 994 -1328 
L 431 -1328 
L 431 2691 
Q 431 3213 413 3381 
L 956 3381 
Q 959 3369 965 3292 
Q 972 3216 980 3056 
Q 988 2897 988 2838 
L 1000 2838 
Q 1150 3150 1397 3295 
Q 1644 3441 2047 3441 
Q 2672 3441 2981 3022 
Q 3291 2603 3291 1706 
z
M 2700 1694 
Q 2700 2400 2509 2703 
Q 2319 3006 1903 3006 
Q 1569 3006 1380 2865 
Q 1191 2725 1092 2426 
Q 994 2128 994 1650 
Q 994 984 1206 668 
Q 1419 353 1897 353 
Q 2316 353 2508 661 
Q 2700 969 2700 1694 
z
" transform="scale(0.015625)"/>
       <path id="LiberationSans-73" d="M 2969 934 
Q 2969 456 2608 196 
Q 2247 -63 1597 -63 
Q 966 -63 623 145 
Q 281 353 178 794 
L 675 891 
Q 747 619 972 492 
Q 1197 366 1597 366 
Q 2025 366 2223 497 
Q 2422 628 2422 891 
Q 2422 1091 2284 1216 
Q 2147 1341 1841 1422 
L 1438 1528 
Q 953 1653 748 1773 
Q 544 1894 428 2066 
Q 313 2238 313 2488 
Q 313 2950 642 3192 
Q 972 3434 1603 3434 
Q 2163 3434 2492 3237 
Q 2822 3041 2909 2606 
L 2403 2544 
Q 2356 2769 2151 2889 
Q 1947 3009 1603 3009 
Q 1222 3009 1040 2893 
Q 859 2778 859 2544 
Q 859 2400 934 2306 
Q 1009 2213 1156 2147 
Q 1303 2081 1775 1966 
Q 2222 1853 2419 1758 
Q 2616 1663 2730 1547 
Q 2844 1431 2906 1279 
Q 2969 1128 2969 934 
z
" transform="scale(0.015625)"/>
      </defs>
      <use xlink:href="#LiberationSans-54"/>
      <use xlink:href="#LiberationSans-69" x="57.333984"/>
      <use xlink:href="#LiberationSans-6d" x="79.550781"/>
      <use xlink:href="#LiberationSans-65" x="162.851562"/>
      <use xlink:href="#LiberationSans-20" x="218.466797"/>
      <use xlink:href="#LiberationSans-70" x="246.25"/>
      <use xlink:href="#LiberationSans-73" x="301.865234"/>
     </g>
    </g>
   </g>
   <g id="matplotlib.axis_2">
    <g id="ytick_1">
     <g id="line2d_22">
      <defs>
       <path id="me4a42a887a" d="M 0 0 
L 3.5 0 
" style="stroke: #000000; stroke-width: 0.8"/>
      </defs>
      <g>
       <use xlink:href="#me4a42a887a" x="79.5" y="576.417936" style="stroke: #000000; stroke-width: 0.8"/>
      </g>
     </g>
     <g id="text_8">
      <!-- $\mathdefault{−2}$ -->
      <g transform="translate(41.5 587.288249) scale(0.3 -0.3)">
       <defs>
        <path id="LiberationSans-2212" d="M 316 1900 
L 316 2356 
L 3425 2356 
L 3425 1900 
L 316 1900 
z
" transform="scale(0.015625)"/>
       </defs>
       <use xlink:href="#LiberationSans-2212" transform="translate(0 0.171875)"/>
       <use xlink:href="#LiberationSans-32" transform="translate(58.398438 0.171875)"/>
      </g>
     </g>
    </g>
    <g id="ytick_2">
     <g id="line2d_23">
      <g>
       <use xlink:href="#me4a42a887a" x="79.5" y="483.065096" style="stroke: #000000; stroke-width: 0.8"/>
      </g>
     </g>
     <g id="text_9">
      <!-- $\mathdefault{0}$ -->
      <g transform="translate(59.2 493.935409) scale(0.3 -0.3)">
       <use xlink:href="#LiberationSans-30" transform="translate(0 0.171875)"/>
      </g>
     </g>
    </g>
    <g id="ytick_3">
     <g id="line2d_24">
      <g>
       <use xlink:href="#me4a42a887a" x="79.5" y="389.712257" style="stroke: #000000; stroke-width: 0.8"/>
      </g>
     </g>
     <g id="text_10">
      <!-- $\mathdefault{2}$ -->
      <g transform="translate(59.2 400.582569) scale(0.3 -0.3)">
       <use xlink:href="#LiberationSans-32" transform="translate(0 0.171875)"/>
      </g>
     </g>
    </g>
    <g id="ytick_4">
     <g id="line2d_25">
      <g>
       <use xlink:href="#me4a42a887a" x="79.5" y="296.359417" style="stroke: #000000; stroke-width: 0.8"/>
      </g>
     </g>
     <g id="text_11">
      <!-- $\mathdefault{4}$ -->
      <g transform="translate(59.2 307.229729) scale(0.3 -0.3)">
       <use xlink:href="#LiberationSans-34" transform="translate(0 0.203125)"/>
      </g>
     </g>
    </g>
    <g id="ytick_5">
     <g id="line2d_26">
      <g>
       <use xlink:href="#me4a42a887a" x="79.5" y="203.006577" style="stroke: #000000; stroke-width: 0.8"/>
      </g>
     </g>
     <g id="text_12">
      <!-- $\mathdefault{6}$ -->
      <g transform="translate(59.2 213.876889) scale(0.3 -0.3)">
       <use xlink:href="#LiberationSans-36" transform="translate(0 0.171875)"/>
      </g>
     </g>
    </g>
    <g id="ytick_6">
     <g id="line2d_27">
      <g>
       <use xlink:href="#me4a42a887a" x="79.5" y="109.653737" style="stroke: #000000; stroke-width: 0.8"/>
      </g>
     </g>
     <g id="text_13">
      <!-- $\mathdefault{8}$ -->
      <g transform="translate(59.2 120.524049) scale(0.3 -0.3)">
       <use xlink:href="#LiberationSans-38" transform="translate(0 0.171875)"/>
      </g>
     </g>
    </g>
    <g id="ytick_7">
     <g id="line2d_28">
      <defs>
       <path id="mb4e4dbd30a" d="M 0 0 
L 2 0 
" style="stroke: #000000; stroke-width: 0.6"/>
      </defs>
      <g>
       <use xlink:href="#mb4e4dbd30a" x="79.5" y="623.094356" style="stroke: #000000; stroke-width: 0.6"/>
      </g>
     </g>
    </g>
    <g id="ytick_8">
     <g id="line2d_29">
      <g>
       <use xlink:href="#mb4e4dbd30a" x="79.5" y="599.756146" style="stroke: #000000; stroke-width: 0.6"/>
      </g>
     </g>
    </g>
    <g id="ytick_9">
     <g id="line2d_30">
      <g>
       <use xlink:href="#mb4e4dbd30a" x="79.5" y="553.079726" style="stroke: #000000; stroke-width: 0.6"/>
      </g>
     </g>
    </g>
    <g id="ytick_10">
     <g id="line2d_31">
      <g>
       <use xlink:href="#mb4e4dbd30a" x="79.5" y="529.741516" style="stroke: #000000; stroke-width: 0.6"/>
      </g>
     </g>
    </g>
    <g id="ytick_11">
     <g id="line2d_32">
      <g>
       <use xlink:href="#mb4e4dbd30a" x="79.5" y="506.403306" style="stroke: #000000; stroke-width: 0.6"/>
      </g>
     </g>
    </g>
    <g id="ytick_12">
     <g id="line2d_33">
      <g>
       <use xlink:href="#mb4e4dbd30a" x="79.5" y="459.726886" style="stroke: #000000; stroke-width: 0.6"/>
      </g>
     </g>
    </g>
    <g id="ytick_13">
     <g id="line2d_34">
      <g>
       <use xlink:href="#mb4e4dbd30a" x="79.5" y="436.388676" style="stroke: #000000; stroke-width: 0.6"/>
      </g>
     </g>
    </g>
    <g id="ytick_14">
     <g id="line2d_35">
      <g>
       <use xlink:href="#mb4e4dbd30a" x="79.5" y="413.050466" style="stroke: #000000; stroke-width: 0.6"/>
      </g>
     </g>
    </g>
    <g id="ytick_15">
     <g id="line2d_36">
      <g>
       <use xlink:href="#mb4e4dbd30a" x="79.5" y="366.374047" style="stroke: #000000; stroke-width: 0.6"/>
      </g>
     </g>
    </g>
    <g id="ytick_16">
     <g id="line2d_37">
      <g>
       <use xlink:href="#mb4e4dbd30a" x="79.5" y="343.035837" style="stroke: #000000; stroke-width: 0.6"/>
      </g>
     </g>
    </g>
    <g id="ytick_17">
     <g id="line2d_38">
      <g>
       <use xlink:href="#mb4e4dbd30a" x="79.5" y="319.697627" style="stroke: #000000; stroke-width: 0.6"/>
      </g>
     </g>
    </g>
    <g id="ytick_18">
     <g id="line2d_39">
      <g>
       <use xlink:href="#mb4e4dbd30a" x="79.5" y="273.021207" style="stroke: #000000; stroke-width: 0.6"/>
      </g>
     </g>
    </g>
    <g id="ytick_19">
     <g id="line2d_40">
      <g>
       <use xlink:href="#mb4e4dbd30a" x="79.5" y="249.682997" style="stroke: #000000; stroke-width: 0.6"/>
      </g>
     </g>
    </g>
    <g id="ytick_20">
     <g id="line2d_41">
      <g>
       <use xlink:href="#mb4e4dbd30a" x="79.5" y="226.344787" style="stroke: #000000; stroke-width: 0.6"/>
      </g>
     </g>
    </g>
    <g id="ytick_21">
     <g id="line2d_42">
      <g>
       <use xlink:href="#mb4e4dbd30a" x="79.5" y="179.668367" style="stroke: #000000; stroke-width: 0.6"/>
      </g>
     </g>
    </g>
    <g id="ytick_22">
     <g id="line2d_43">
      <g>
       <use xlink:href="#mb4e4dbd30a" x="79.5" y="156.330157" style="stroke: #000000; stroke-width: 0.6"/>
      </g>
     </g>
    </g>
    <g id="ytick_23">
     <g id="line2d_44">
      <g>
       <use xlink:href="#mb4e4dbd30a" x="79.5" y="132.991947" style="stroke: #000000; stroke-width: 0.6"/>
      </g>
     </g>
    </g>
    <g id="ytick_24">
     <g id="line2d_45">
      <g>
       <use xlink:href="#mb4e4dbd30a" x="79.5" y="86.315527" style="stroke: #000000; stroke-width: 0.6"/>
      </g>
     </g>
    </g>
    <g id="ytick_25">
     <g id="line2d_46">
      <g>
       <use xlink:href="#mb4e4dbd30a" x="79.5" y="62.977317" style="stroke: #000000; stroke-width: 0.6"/>
      </g>
     </g>
    </g>
    <g id="ytick_26">
     <g id="line2d_47">
      <g>
       <use xlink:href="#mb4e4dbd30a" x="79.5" y="39.639107" style="stroke: #000000; stroke-width: 0.6"/>
      </g>
     </g>
    </g>
    <g id="text_14">
     <!-- HFACF $(\mathrm{W} / \mathrm{m}^2)^2$ -->
     <g transform="translate(31.275 446.289) rotate(-90) scale(0.3 -0.3)">
      <defs>
       <path id="LiberationSans-48" d="M 3503 0 
L 3503 2041 
L 1122 2041 
L 1122 0 
L 525 0 
L 525 4403 
L 1122 4403 
L 1122 2541 
L 3503 2541 
L 3503 4403 
L 4100 4403 
L 4100 0 
L 3503 0 
z
" transform="scale(0.015625)"/>
       <path id="LiberationSans-46" d="M 1122 3916 
L 1122 2278 
L 3578 2278 
L 3578 1784 
L 1122 1784 
L 1122 0 
L 525 0 
L 525 4403 
L 3653 4403 
L 3653 3916 
L 1122 3916 
z
" transform="scale(0.015625)"/>
       <path id="LiberationSans-41" d="M 3647 0 
L 3144 1288 
L 1138 1288 
L 631 0 
L 13 0 
L 1809 4403 
L 2488 4403 
L 4256 0 
L 3647 0 
z
M 2141 3953 
L 2113 3866 
Q 2034 3606 1881 3200 
L 1319 1753 
L 2966 1753 
L 2400 3206 
Q 2313 3422 2225 3694 
L 2141 3953 
z
" transform="scale(0.015625)"/>
       <path id="LiberationSans-43" d="M 2475 3981 
Q 1744 3981 1337 3511 
Q 931 3041 931 2222 
Q 931 1413 1354 920 
Q 1778 428 2500 428 
Q 3425 428 3891 1344 
L 4378 1100 
Q 4106 531 3614 234 
Q 3122 -63 2472 -63 
Q 1806 -63 1320 214 
Q 834 491 579 1005 
Q 325 1519 325 2222 
Q 325 3275 894 3872 
Q 1463 4469 2469 4469 
Q 3172 4469 3644 4194 
Q 4116 3919 4338 3378 
L 3772 3191 
Q 3619 3575 3280 3778 
Q 2941 3981 2475 3981 
z
" transform="scale(0.015625)"/>
       <path id="STIXGeneral-Regular-28" d="M 1946 -1030 
L 1869 -1133 
Q 1126 -710 716 32 
Q 307 774 307 1613 
Q 307 3386 1888 4326 
L 1946 4224 
Q 1293 3667 1075 3126 
Q 858 2586 858 1632 
Q 858 685 1082 96 
Q 1306 -493 1946 -1030 
z
" transform="scale(0.015625)"/>
       <path id="STIXGeneral-Regular-57" d="M 5965 4237 
L 5965 4115 
Q 5709 4064 5616 3990 
Q 5523 3917 5434 3667 
Q 4704 1709 4128 -70 
L 4032 -70 
Q 3642 1011 3008 2637 
L 2022 -70 
L 1926 -70 
Q 1709 576 1277 1753 
Q 845 2931 698 3347 
Q 538 3808 406 3958 
Q 275 4109 32 4115 
L 32 4237 
L 1594 4237 
L 1594 4115 
Q 1357 4109 1270 4064 
Q 1184 4019 1184 3917 
Q 1184 3808 1254 3616 
L 2176 1210 
L 2842 3021 
L 2662 3501 
Q 2509 3917 2400 4013 
Q 2291 4109 2010 4115 
L 2010 4237 
L 3706 4237 
L 3706 4115 
Q 3213 4102 3213 3891 
Q 3213 3808 3322 3520 
L 4237 1190 
L 5043 3360 
Q 5152 3667 5152 3853 
Q 5152 4109 4704 4115 
L 4704 4237 
L 5965 4237 
z
" transform="scale(0.015625)"/>
       <path id="STIXGeneral-Regular-2f" d="M 1837 4326 
L 378 -90 
L -58 -90 
L 1408 4326 
L 1837 4326 
z
" transform="scale(0.015625)"/>
       <path id="STIXGeneral-Regular-6d" d="M 4960 0 
L 3565 0 
L 3565 96 
Q 3834 122 3907 208 
Q 3981 294 3981 576 
L 3981 1894 
Q 3981 2278 3869 2444 
Q 3757 2611 3488 2611 
Q 3264 2611 3107 2521 
Q 2950 2432 2803 2221 
L 2803 608 
Q 2803 301 2896 201 
Q 2989 102 3264 96 
L 3264 0 
L 1830 0 
L 1830 96 
Q 2112 115 2189 188 
Q 2266 262 2266 550 
L 2266 1901 
Q 2266 2611 1850 2611 
Q 1670 2611 1468 2531 
Q 1267 2451 1171 2336 
Q 1088 2240 1088 2227 
L 1088 448 
Q 1088 243 1177 176 
Q 1267 109 1523 96 
L 1523 0 
L 102 0 
L 102 96 
Q 371 102 460 195 
Q 550 288 550 563 
L 550 2150 
Q 550 2387 499 2480 
Q 448 2573 326 2573 
Q 230 2573 122 2547 
L 122 2656 
Q 557 2778 1011 2944 
L 1062 2925 
L 1062 2451 
L 1075 2451 
Q 1363 2752 1584 2848 
Q 1805 2944 2054 2944 
Q 2560 2944 2733 2406 
Q 3232 2944 3776 2944 
Q 4518 2944 4518 1792 
L 4518 493 
Q 4518 282 4582 202 
Q 4646 122 4794 109 
L 4960 96 
L 4960 0 
z
" transform="scale(0.015625)"/>
       <path id="STIXGeneral-Regular-32" d="M 3034 877 
L 2688 0 
L 186 0 
L 186 77 
L 1325 1286 
Q 1773 1754 1965 2144 
Q 2157 2534 2157 2950 
Q 2157 3379 1920 3616 
Q 1683 3853 1267 3853 
Q 922 3853 720 3673 
Q 518 3494 326 3021 
L 192 3053 
Q 301 3648 630 3987 
Q 960 4326 1523 4326 
Q 2054 4326 2380 4006 
Q 2707 3686 2707 3200 
Q 2707 2477 1888 1613 
L 832 486 
L 2330 486 
Q 2541 486 2665 569 
Q 2790 653 2944 915 
L 3034 877 
z
" transform="scale(0.015625)"/>
       <path id="STIXGeneral-Regular-29" d="M 186 4224 
L 262 4326 
Q 992 3891 1408 3148 
Q 1824 2406 1824 1581 
Q 1824 -166 243 -1133 
L 186 -1030 
Q 845 -486 1059 54 
Q 1274 595 1274 1562 
Q 1274 2534 1059 3120 
Q 845 3706 186 4224 
z
" transform="scale(0.015625)"/>
      </defs>
      <use xlink:href="#LiberationSans-48" transform="translate(0 0.409375)"/>
      <use xlink:href="#LiberationSans-46" transform="translate(72.216797 0.409375)"/>
      <use xlink:href="#LiberationSans-41" transform="translate(133.300781 0.409375)"/>
      <use xlink:href="#LiberationSans-43" transform="translate(200 0.409375)"/>
      <use xlink:href="#LiberationSans-46" transform="translate(272.216797 0.409375)"/>
      <use xlink:href="#LiberationSans-20" transform="translate(333.300781 0.409375)"/>
      <use xlink:href="#STIXGeneral-Regular-28" transform="translate(361.083984 0.409375)"/>
      <use xlink:href="#STIXGeneral-Regular-57" transform="translate(394.383972 0.409375)"/>
      <use xlink:href="#STIXGeneral-Regular-2f" transform="translate(488.783966 0.409375)"/>
      <use xlink:href="#STIXGeneral-Regular-6d" transform="translate(516.583954 0.409375)"/>
      <use xlink:href="#STIXGeneral-Regular-32" transform="translate(595.927223 35.684375) scale(0.7)"/>
      <use xlink:href="#STIXGeneral-Regular-29" transform="translate(635.336587 0.409375)"/>
      <use xlink:href="#STIXGeneral-Regular-32" transform="translate(670.179856 35.684375) scale(0.7)"/>
     </g>
    </g>
    <g id="text_15">
     <!-- $\times\mathdefault{10^{18}}\mathdefault{}$ -->
     <g transform="translate(79.5 36.1875) scale(0.4 -0.4)">
      <defs>
       <path id="STIXGeneral-Regular-d7" d="M 3821 141 
L 3526 -160 
L 2048 1312 
L 570 -160 
L 275 134 
L 1747 1613 
L 275 3091 
L 576 3386 
L 2048 1914 
L 3526 3386 
L 3821 3098 
L 2349 1613 
L 3821 141 
z
" transform="scale(0.015625)"/>
      </defs>
      <use xlink:href="#STIXGeneral-Regular-d7" transform="translate(0 0.140625)"/>
      <use xlink:href="#LiberationSans-31" transform="translate(63.999985 0.140625)"/>
      <use xlink:href="#LiberationSans-30" transform="translate(119.615219 0.140625)"/>
      <use xlink:href="#LiberationSans-31" transform="translate(176.154946 37.120312) scale(0.7)"/>
      <use xlink:href="#LiberationSans-38" transform="translate(215.08561 37.120312) scale(0.7)"/>
     </g>
    </g>
   </g>
   <g id="line2d_48">
    <path d="M 107.865545 66.514909 
L 108.65986 116.424071 
L 109.227227 189.297083 
L 110.532173 401.279147 
L 111.383224 517.170906 
L 112.007329 573.630612 
L 112.51796 600.420199 
L 112.915117 610.479071 
L 113.198801 612.959083 
L 113.255537 613.063091 
L 113.312274 613.017896 
L 113.482485 612.241563 
L 113.709432 609.923173 
L 114.163326 601.940255 
L 115.014377 581.557228 
L 116.489533 546.917791 
L 120.007212 472.572003 
L 120.57458 466.033327 
L 120.971737 463.377451 
L 121.312158 462.294056 
L 121.539105 462.089761 
L 121.709315 462.171464 
L 121.992999 462.71607 
L 122.33342 463.885302 
L 123.297945 468.617669 
L 124.092259 472.421591 
L 124.659627 474.339509 
L 125.397205 475.89883 
L 126.021309 476.911303 
L 126.872361 478.588111 
L 127.553202 480.801615 
L 128.29078 484.16414 
L 130.106356 492.123503 
L 130.446777 492.716372 
L 130.787197 492.889691 
L 131.014144 492.822643 
L 131.411302 492.33121 
L 131.865196 491.389491 
L 132.716247 489.009394 
L 136.3474 477.195975 
L 136.744558 476.612786 
L 137.141715 476.427911 
L 137.482135 476.590167 
L 137.879293 477.162508 
L 138.44666 478.680611 
L 140.772868 486.623711 
L 141.170025 487.140193 
L 141.680656 487.290244 
L 141.907603 487.179408 
L 142.418234 486.538425 
L 143.439496 484.296981 
L 144.006863 483.096072 
L 144.574231 482.400747 
L 144.971388 482.279265 
L 145.482019 482.479918 
L 146.049387 483.068512 
L 146.616754 483.621553 
L 147.127385 483.80657 
L 147.524543 483.66003 
L 147.9217 483.243113 
L 149.340119 481.105991 
L 149.737276 480.876924 
L 150.134434 480.888536 
L 150.418118 481.072189 
L 151.269169 482.280647 
L 152.290431 483.934577 
L 152.914535 484.427229 
L 153.254956 484.450923 
L 153.70885 484.262985 
L 154.616638 483.724188 
L 155.694637 483.49901 
L 156.205267 483.69651 
L 158.304528 485.345657 
L 158.815159 485.807263 
L 160.120104 486.357372 
L 160.630735 486.113209 
L 161.027892 485.694906 
L 161.481786 485.020005 
L 162.162628 483.588873 
L 163.581047 480.256757 
L 164.318625 479.07596 
L 164.659045 478.792738 
L 164.999466 478.867263 
L 165.45336 479.243591 
L 166.134201 480.234999 
L 168.290198 483.792597 
L 168.857566 484.214712 
L 169.368197 484.348886 
L 169.935564 484.294752 
L 172.431982 484.025368 
L 174.304295 484.240131 
L 175.325557 484.099564 
L 176.517029 483.598429 
L 178.389342 482.681195 
L 179.240393 482.555249 
L 180.375129 482.648359 
L 181.907021 482.922824 
L 184.119755 483.14747 
L 185.197754 483.319843 
L 187.637434 483.797312 
L 188.545223 483.790554 
L 189.282801 483.580101 
L 190.077115 483.062296 
L 192.346586 481.366679 
L 192.913953 481.33052 
L 193.367848 481.508293 
L 193.991952 482.002099 
L 194.72953 482.875783 
L 196.261422 484.739602 
L 196.885527 485.128854 
L 197.396158 485.22323 
L 198.020262 485.103397 
L 198.814577 484.671629 
L 199.722365 483.919059 
L 201.310994 482.576468 
L 201.991836 482.273383 
L 202.78615 482.187095 
L 203.864149 482.289581 
L 207.835722 483.145759 
L 211.353402 482.990844 
L 212.317927 483.372238 
L 214.473924 484.300954 
L 215.381712 484.44357 
L 216.11929 484.394061 
L 216.856868 484.153948 
L 217.537709 483.707693 
L 218.21855 483.066215 
L 219.693706 481.32636 
L 220.601494 480.4222 
L 221.168862 480.141304 
L 221.509282 480.188002 
L 221.963176 480.530915 
L 222.757491 481.485781 
L 224.289384 483.368256 
L 224.970225 483.776371 
L 225.537592 483.846135 
L 226.218434 483.665424 
L 227.807063 483.078287 
L 228.544641 483.120481 
L 229.452429 483.488667 
L 231.665163 484.580645 
L 232.402741 484.668095 
L 233.083582 484.521586 
L 233.82116 484.093651 
L 236.09063 482.573925 
L 236.941682 482.348641 
L 238.133154 482.277727 
L 239.494836 482.473118 
L 241.423886 483.107774 
L 243.239463 483.804681 
L 244.090514 483.854102 
L 245.111776 483.644349 
L 245.849354 483.282162 
L 246.586932 482.699451 
L 248.686192 480.88819 
L 249.310296 480.683228 
L 249.820927 480.735844 
L 250.331558 481.028515 
L 250.955663 481.641129 
L 251.863451 482.8713 
L 253.168396 484.583501 
L 253.792501 485.065801 
L 254.416605 485.248336 
L 255.097446 485.165141 
L 255.835024 484.839843 
L 256.969759 484.089551 
L 258.161231 483.417781 
L 258.955546 483.235044 
L 261.054806 483.075675 
L 262.132805 482.762968 
L 264.685959 481.913549 
L 265.310064 481.977518 
L 266.161115 482.271431 
L 270.132689 484.291611 
L 271.721318 485.31257 
L 272.74258 485.970154 
L 273.253211 486.107266 
L 273.707105 486.020531 
L 274.160999 485.670664 
L 274.67163 484.952958 
L 275.295734 483.652578 
L 276.430469 480.675294 
L 277.281521 478.764034 
L 277.792152 478.078293 
L 278.132572 477.903924 
L 278.472993 478.013305 
L 278.926887 478.477321 
L 279.550991 479.514207 
L 281.593515 483.247616 
L 282.217619 483.850273 
L 282.784987 484.107417 
L 283.692775 484.142466 
L 286.983507 483.614679 
L 289.082768 483.153036 
L 291.862869 483.110436 
L 294.359287 483.353033 
L 296.174863 483.044216 
L 298.047176 482.657323 
L 298.898228 482.804017 
L 299.749279 483.148922 
L 302.01875 484.126789 
L 302.699591 484.080009 
L 303.266958 483.79158 
L 303.891063 483.249168 
L 306.103797 481.093965 
L 306.557691 481.007058 
L 307.011585 481.14363 
L 307.578953 481.564978 
L 308.373267 482.476653 
L 309.451266 483.713314 
L 310.132107 484.158141 
L 310.699475 484.268731 
L 311.380316 484.1661 
L 313.252629 483.528629 
L 314.387364 483.26487 
L 315.465363 483.237287 
L 317.564623 483.28853 
L 319.039779 483.10308 
L 320.004304 482.802187 
L 323.181562 481.835602 
L 324.146087 481.883753 
L 324.940402 482.170981 
L 326.245348 482.988807 
L 327.380083 483.736539 
L 329.36587 484.770211 
L 330.160184 484.948311 
L 330.727552 484.870771 
L 331.351656 484.509733 
L 332.032498 483.812413 
L 332.883549 482.560659 
L 334.358705 480.384322 
L 334.812599 480.03234 
L 335.720387 480.308426 
L 336.287755 480.901979 
L 337.365753 482.465797 
L 338.330278 483.720193 
L 338.954383 484.211783 
L 339.52175 484.371872 
L 340.259328 484.257779 
L 341.734484 483.649241 
L 342.812483 483.385947 
L 343.833744 483.346586 
L 345.479111 483.503979 
L 346.386899 483.456379 
L 347.464897 483.161053 
L 348.82658 482.761085 
L 349.791105 482.669659 
L 352.514469 482.680002 
L 354.103099 483.037258 
L 354.897413 483.434346 
L 357.166884 484.723069 
L 357.961199 484.759301 
L 358.64204 484.548909 
L 359.322881 484.088729 
L 360.173932 483.208036 
L 361.819298 481.429298 
L 362.50014 481.050663 
L 363.067507 480.974689 
L 363.578138 481.123092 
L 364.315716 481.612303 
L 366.925607 483.568189 
L 367.663185 483.716708 
L 370.159603 483.837099 
L 371.691495 483.624975 
L 373.960966 482.987133 
L 375.549595 482.621888 
L 377.819066 482.410907 
L 378.783591 482.510323 
L 380.20201 482.976388 
L 382.982111 483.968491 
L 383.719689 483.992567 
L 385.705476 484.045969 
L 387.634526 484.448289 
L 388.145157 484.256473 
L 388.712524 483.777323 
L 389.393366 482.833625 
L 391.549363 479.503492 
L 392.400414 479.669323 
L 392.967782 480.216536 
L 395.407462 483.018194 
L 395.97483 483.195992 
L 396.655671 483.124784 
L 398.584721 482.715016 
L 399.435773 482.901525 
L 400.570508 483.418789 
L 402.556295 484.351917 
L 403.237136 484.399086 
L 403.86124 484.248874 
L 405.79029 483.27466 
L 407.151972 482.656008 
L 408.173234 482.393651 
L 409.251233 482.387324 
L 411.066809 482.834074 
L 411.917861 483.248809 
L 414.073858 484.330951 
L 414.924909 484.424324 
L 415.662487 484.304429 
L 416.400065 483.93641 
L 417.19438 483.300755 
L 418.839746 481.885242 
L 419.520587 481.621303 
L 420.087955 481.644594 
L 420.655322 481.898488 
L 421.676584 482.699209 
L 422.98153 483.795329 
L 423.662371 484.071604 
L 424.286475 484.078393 
L 424.967316 483.885125 
L 426.272262 483.219055 
L 427.974365 482.367533 
L 428.711943 482.222156 
L 429.789941 482.324637 
L 431.03815 482.604017 
L 436.598353 484.039512 
L 437.449404 483.982843 
L 438.92456 483.5646 
L 440.6834 483.072544 
L 441.818135 482.977194 
L 442.95287 483.203682 
L 443.917395 483.365323 
L 444.598236 483.234216 
L 445.222341 482.885398 
L 446.016656 482.212837 
L 447.548548 480.859358 
L 448.115916 480.70117 
L 448.513073 480.837845 
L 449.193914 481.459865 
L 450.385386 482.959772 
L 451.236438 483.849562 
L 451.974016 484.286132 
L 452.541383 484.368848 
L 453.278961 484.21584 
L 455.151274 483.671191 
L 458.328533 483.376094 
L 460.48453 482.911615 
L 461.505792 482.792156 
L 463.605052 482.685588 
L 465.023471 482.34637 
L 466.839048 481.869695 
L 467.746836 481.862373 
L 468.541151 482.135966 
L 469.448939 482.749534 
L 472.399251 484.956784 
L 472.909881 485.020864 
L 473.420512 484.849936 
L 473.98788 484.402356 
L 474.725458 483.49413 
L 475.973667 481.949973 
L 476.654508 481.477474 
L 477.108402 481.416734 
L 477.67577 481.604273 
L 478.1864 482.000666 
L 478.810505 482.693063 
L 480.342397 484.352943 
L 480.909765 484.613615 
L 481.420396 484.632533 
L 482.0445 484.410651 
L 482.725341 483.936423 
L 484.994812 482.037178 
L 485.56218 481.906648 
L 486.243021 482.037773 
L 487.547966 482.634246 
L 488.455755 483.026181 
L 489.533753 483.192073 
L 492.257118 483.129074 
L 495.093956 483.779017 
L 496.115218 483.650598 
L 497.249953 483.300748 
L 498.271215 483.06279 
L 499.008793 483.092049 
L 500.710896 483.335825 
L 501.335 483.125458 
L 501.902368 482.679011 
L 502.639945 481.781693 
L 504.342048 479.44104 
L 504.795943 479.161744 
L 505.136363 479.183568 
L 505.53352 479.496272 
L 506.100888 480.27253 
L 507.008676 481.945187 
L 508.029938 483.697954 
L 508.710779 484.435922 
L 509.22141 484.697319 
L 509.732041 484.723346 
L 510.753303 484.371952 
L 512.001511 483.875685 
L 512.9093 483.756092 
L 515.519191 483.759304 
L 516.597189 483.661437 
L 517.958872 483.239916 
L 519.263817 482.892528 
L 521.363077 482.382963 
L 524.086442 481.669597 
L 524.710547 481.698648 
L 525.334651 481.912844 
L 526.128966 482.416851 
L 528.568646 484.152201 
L 529.136014 484.28037 
L 529.703382 484.192538 
L 530.327486 483.818298 
L 531.065064 483.121465 
L 532.313273 481.913853 
L 532.994114 481.594482 
L 533.448008 481.582768 
L 533.958639 481.805773 
L 534.582743 482.312442 
L 536.795477 484.27562 
L 537.362845 484.341127 
L 538.043686 484.127429 
L 539.462105 483.310012 
L 540.369893 482.881412 
L 541.164208 482.722544 
L 542.015259 482.815438 
L 544.511677 483.320896 
L 545.419465 483.179031 
L 548.086093 482.665847 
L 548.937145 482.825748 
L 550.015143 483.304802 
L 552.851981 484.607094 
L 553.703033 484.726778 
L 556.426397 484.90631 
L 557.220712 484.926979 
L 557.78808 484.716689 
L 558.412184 484.183038 
L 559.149762 483.148004 
L 560.284497 480.947694 
L 561.135549 479.499565 
L 561.64618 479.018005 
L 561.929863 478.99316 
L 562.270284 479.185234 
L 562.837652 479.817285 
L 563.688703 481.203052 
L 564.823438 482.96214 
L 565.447543 483.554511 
L 565.958174 483.764606 
L 566.468804 483.734003 
L 567.319856 483.352732 
L 568.624801 482.739472 
L 569.305643 482.681437 
L 570.043221 482.852037 
L 570.951009 483.275105 
L 573.674373 484.838958 
L 574.298478 484.857501 
L 575.092793 484.620811 
L 575.943844 484.158229 
L 579.801944 481.774566 
L 580.709732 481.626066 
L 581.44731 481.689524 
L 582.411835 482.037365 
L 586.610356 484.063865 
L 587.177723 484.011063 
L 587.858564 483.735346 
L 590.128035 482.509684 
L 590.752139 482.504421 
L 591.43298 482.691764 
L 592.227295 483.11652 
L 593.645714 483.946124 
L 594.383292 484.174618 
L 595.234344 484.197636 
L 596.312342 483.974444 
L 597.276867 483.550272 
L 600.056968 482.181236 
L 601.759071 481.859793 
L 602.723596 481.880668 
L 603.971805 482.119955 
L 604.822857 482.493976 
L 605.787382 483.168354 
L 607.262537 484.198509 
L 608.170326 484.514778 
L 608.851167 484.566651 
L 609.645481 484.398622 
L 610.666743 483.848832 
L 612.141899 482.960875 
L 612.936214 482.793667 
L 615.262421 482.549602 
L 615.999999 482.075511 
L 617.304945 480.803884 
L 617.985786 480.294077 
L 618.496417 480.152885 
L 619.574415 481.266828 
L 621.616939 484.056059 
L 622.184306 484.381846 
L 622.694937 484.435625 
L 623.262305 484.259907 
L 624.340303 483.628323 
L 625.304828 483.206634 
L 626.15588 483.10191 
L 628.42535 482.940385 
L 631.262188 482.3912 
L 631.94303 482.57808 
L 632.907555 483.188079 
L 634.099027 484.033448 
L 634.779868 484.260045 
L 635.460709 484.215272 
L 636.198287 483.867362 
L 637.446496 483.058345 
L 638.184074 482.736466 
L 638.751441 482.742398 
L 639.432282 483.008581 
L 640.510281 483.726195 
L 641.645016 484.3191 
L 642.382594 484.419268 
L 642.949962 484.258465 
L 643.517329 483.860266 
L 644.425118 482.892883 
L 645.61659 481.658357 
L 646.297431 481.300532 
L 646.864798 481.266464 
L 647.432166 481.509289 
L 648.113007 482.038273 
L 649.304479 483.275229 
L 650.042057 483.912067 
L 650.722898 484.259393 
L 651.290266 484.329238 
L 651.971107 484.192735 
L 653.105842 483.649446 
L 654.751208 482.871151 
L 655.488786 482.799964 
L 656.339838 482.983324 
L 657.985204 483.382784 
L 659.006466 483.392992 
L 660.481622 483.093515 
L 661.55962 482.898661 
L 662.467408 482.97669 
L 664.680142 483.292199 
L 665.871614 483.034114 
L 667.970874 482.450966 
L 668.594979 482.5616 
L 669.27582 482.922865 
L 670.864449 483.956146 
L 671.37508 483.970635 
L 671.828974 483.755926 
L 672.396342 483.191967 
L 673.13392 482.068948 
L 674.325392 480.208113 
L 674.836023 479.78261 
L 675.176443 479.723704 
L 675.176443 479.723704 
" clip-path="url(#p8919d67471)" style="fill: none; stroke: #0000ff; stroke-width: 1.5; stroke-linecap: square"/>
   </g>
   <g id="patch_3">
    <path d="M 79.5 640.3905 
L 79.5 39.1875 
" style="fill: none; stroke: #000000; stroke-width: 0.8; stroke-linejoin: miter; stroke-linecap: square"/>
   </g>
   <g id="patch_4">
    <path d="M 703.541988 640.3905 
L 703.541988 39.1875 
" style="fill: none; stroke: #000000; stroke-width: 0.8; stroke-linejoin: miter; stroke-linecap: square"/>
   </g>
   <g id="patch_5">
    <path d="M 79.5 640.3905 
L 703.541988 640.3905 
" style="fill: none; stroke: #000000; stroke-width: 0.8; stroke-linejoin: miter; stroke-linecap: square"/>
   </g>
   <g id="patch_6">
    <path d="M 79.5 39.1875 
L 703.541988 39.1875 
" style="fill: none; stroke: #000000; stroke-width: 0.8; stroke-linejoin: miter; stroke-linecap: square"/>
   </g>
  </g>
 </g>
 <defs>
  <clipPath id="p8919d67471">
   <rect x="79.5" y="39.1875" width="624.041988" height="601.203"/>
  </clipPath>
 </defs>
</svg>
