<?xml version="1.0" encoding="utf-8" standalone="no"?>
<!DOCTYPE svg PUBLIC "-//W3C//DTD SVG 1.1//EN"
  "http://www.w3.org/Graphics/SVG/1.1/DTD/svg11.dtd">
<svg xmlns:xlink="http://www.w3.org/1999/xlink" width="710.741988pt" height="711.02175pt" viewBox="0 0 710.741988 711.02175" xmlns="http://www.w3.org/2000/svg" version="1.1">
 <metadata>
  <rdf:RDF xmlns:dc="http://purl.org/dc/elements/1.1/" xmlns:cc="http://creativecommons.org/ns#" xmlns:rdf="http://www.w3.org/1999/02/22-rdf-syntax-ns#">
   <cc:Work>
    <dc:type rdf:resource="http://purl.org/dc/dcmitype/StillImage"/>
    <dc:date>2025-02-05T17:09:32.276918</dc:date>
    <dc:format>image/svg+xml</dc:format>
    <dc:creator>
     <cc:Agent>
      <dc:title>Matplotlib v3.9.3, https://matplotlib.org/</dc:title>
     </cc:Agent>
    </dc:creator>
   </cc:Work>
  </rdf:RDF>
 </metadata>
 <defs>
  <style type="text/css">*{stroke-linejoin: round; stroke-linecap: butt}</style>
 </defs>
 <g id="figure_1">
  <g id="patch_1">
   <path d="M 0 711.02175 
L 710.741988 711.02175 
L 710.741988 0 
L 0 0 
z
" style="fill: #ffffff"/>
  </g>
  <g id="axes_1">
   <g id="patch_2">
    <path d="M 79.5 640.3905 
L 703.541988 640.3905 
L 703.541988 39.1875 
L 79.5 39.1875 
z
" style="fill: #ffffff"/>
   </g>
   <g id="matplotlib.axis_1">
    <g id="xtick_1">
     <g id="line2d_1">
      <defs>
       <path id="ma1a3436d0a" d="M 0 0 
L 0 -3.5 
" style="stroke: #000000; stroke-width: 0.8"/>
      </defs>
      <g>
       <use xlink:href="#ma1a3436d0a" x="107.808808" y="640.3905" style="stroke: #000000; stroke-width: 0.8"/>
      </g>
     </g>
     <g id="text_1">
      <!-- 0 -->
      <g transform="translate(99.467402 665.631125) scale(0.3 -0.3)">
       <defs>
        <path id="LiberationSans-30" d="M 3309 2203 
Q 3309 1100 2920 518 
Q 2531 -63 1772 -63 
Q 1013 -63 631 515 
Q 250 1094 250 2203 
Q 250 3338 620 3903 
Q 991 4469 1791 4469 
Q 2569 4469 2939 3897 
Q 3309 3325 3309 2203 
z
M 2738 2203 
Q 2738 3156 2517 3584 
Q 2297 4013 1791 4013 
Q 1272 4013 1045 3591 
Q 819 3169 819 2203 
Q 819 1266 1048 831 
Q 1278 397 1778 397 
Q 2275 397 2506 840 
Q 2738 1284 2738 2203 
z
" transform="scale(0.015625)"/>
       </defs>
       <use xlink:href="#LiberationSans-30"/>
      </g>
     </g>
    </g>
    <g id="xtick_2">
     <g id="line2d_2">
      <g>
       <use xlink:href="#ma1a3436d0a" x="221.282335" y="640.3905" style="stroke: #000000; stroke-width: 0.8"/>
      </g>
     </g>
     <g id="text_2">
      <!-- 2 -->
      <g transform="translate(212.940929 665.631125) scale(0.3 -0.3)">
       <defs>
        <path id="LiberationSans-32" d="M 322 0 
L 322 397 
Q 481 763 711 1042 
Q 941 1322 1194 1548 
Q 1447 1775 1695 1969 
Q 1944 2163 2144 2356 
Q 2344 2550 2467 2762 
Q 2591 2975 2591 3244 
Q 2591 3606 2378 3806 
Q 2166 4006 1788 4006 
Q 1428 4006 1195 3811 
Q 963 3616 922 3263 
L 347 3316 
Q 409 3844 795 4156 
Q 1181 4469 1788 4469 
Q 2453 4469 2811 4155 
Q 3169 3841 3169 3263 
Q 3169 3006 3051 2753 
Q 2934 2500 2703 2247 
Q 2472 1994 1819 1463 
Q 1459 1169 1246 933 
Q 1034 697 941 478 
L 3238 478 
L 3238 0 
L 322 0 
z
" transform="scale(0.015625)"/>
       </defs>
       <use xlink:href="#LiberationSans-32"/>
      </g>
     </g>
    </g>
    <g id="xtick_3">
     <g id="line2d_3">
      <g>
       <use xlink:href="#ma1a3436d0a" x="334.755862" y="640.3905" style="stroke: #000000; stroke-width: 0.8"/>
      </g>
     </g>
     <g id="text_3">
      <!-- 4 -->
      <g transform="translate(326.414456 665.631125) scale(0.3 -0.3)">
       <defs>
        <path id="LiberationSans-34" d="M 2753 997 
L 2753 0 
L 2222 0 
L 2222 997 
L 147 997 
L 147 1434 
L 2163 4403 
L 2753 4403 
L 2753 1441 
L 3372 1441 
L 3372 997 
L 2753 997 
z
M 2222 3769 
Q 2216 3750 2134 3603 
Q 2053 3456 2013 3397 
L 884 1734 
L 716 1503 
L 666 1441 
L 2222 1441 
L 2222 3769 
z
" transform="scale(0.015625)"/>
       </defs>
       <use xlink:href="#LiberationSans-34"/>
      </g>
     </g>
    </g>
    <g id="xtick_4">
     <g id="line2d_4">
      <g>
       <use xlink:href="#ma1a3436d0a" x="448.229389" y="640.3905" style="stroke: #000000; stroke-width: 0.8"/>
      </g>
     </g>
     <g id="text_4">
      <!-- 6 -->
      <g transform="translate(439.887983 665.631125) scale(0.3 -0.3)">
       <defs>
        <path id="LiberationSans-36" d="M 3278 1441 
Q 3278 744 2900 340 
Q 2522 -63 1856 -63 
Q 1113 -63 719 490 
Q 325 1044 325 2100 
Q 325 3244 734 3856 
Q 1144 4469 1900 4469 
Q 2897 4469 3156 3572 
L 2619 3475 
Q 2453 4013 1894 4013 
Q 1413 4013 1148 3564 
Q 884 3116 884 2266 
Q 1038 2550 1316 2698 
Q 1594 2847 1953 2847 
Q 2563 2847 2920 2465 
Q 3278 2084 3278 1441 
z
M 2706 1416 
Q 2706 1894 2472 2153 
Q 2238 2413 1819 2413 
Q 1425 2413 1183 2183 
Q 941 1953 941 1550 
Q 941 1041 1192 716 
Q 1444 391 1838 391 
Q 2244 391 2475 664 
Q 2706 938 2706 1416 
z
" transform="scale(0.015625)"/>
       </defs>
       <use xlink:href="#LiberationSans-36"/>
      </g>
     </g>
    </g>
    <g id="xtick_5">
     <g id="line2d_5">
      <g>
       <use xlink:href="#ma1a3436d0a" x="561.702916" y="640.3905" style="stroke: #000000; stroke-width: 0.8"/>
      </g>
     </g>
     <g id="text_5">
      <!-- 8 -->
      <g transform="translate(553.36151 665.631125) scale(0.3 -0.3)">
       <defs>
        <path id="LiberationSans-38" d="M 3281 1228 
Q 3281 619 2893 278 
Q 2506 -63 1781 -63 
Q 1075 -63 676 271 
Q 278 606 278 1222 
Q 278 1653 525 1947 
Q 772 2241 1156 2303 
L 1156 2316 
Q 797 2400 589 2681 
Q 381 2963 381 3341 
Q 381 3844 757 4156 
Q 1134 4469 1769 4469 
Q 2419 4469 2795 4162 
Q 3172 3856 3172 3334 
Q 3172 2956 2962 2675 
Q 2753 2394 2391 2322 
L 2391 2309 
Q 2813 2241 3047 1952 
Q 3281 1663 3281 1228 
z
M 2588 3303 
Q 2588 4050 1769 4050 
Q 1372 4050 1164 3862 
Q 956 3675 956 3303 
Q 956 2925 1170 2726 
Q 1384 2528 1775 2528 
Q 2172 2528 2380 2711 
Q 2588 2894 2588 3303 
z
M 2697 1281 
Q 2697 1691 2453 1898 
Q 2209 2106 1769 2106 
Q 1341 2106 1100 1882 
Q 859 1659 859 1269 
Q 859 359 1788 359 
Q 2247 359 2472 579 
Q 2697 800 2697 1281 
z
" transform="scale(0.015625)"/>
       </defs>
       <use xlink:href="#LiberationSans-38"/>
      </g>
     </g>
    </g>
    <g id="xtick_6">
     <g id="line2d_6">
      <g>
       <use xlink:href="#ma1a3436d0a" x="675.176443" y="640.3905" style="stroke: #000000; stroke-width: 0.8"/>
      </g>
     </g>
     <g id="text_6">
      <!-- 10 -->
      <g transform="translate(658.493631 665.631125) scale(0.3 -0.3)">
       <defs>
        <path id="LiberationSans-31" d="M 488 0 
L 488 478 
L 1609 478 
L 1609 3866 
L 616 3156 
L 616 3688 
L 1656 4403 
L 2175 4403 
L 2175 478 
L 3247 478 
L 3247 0 
L 488 0 
z
" transform="scale(0.015625)"/>
       </defs>
       <use xlink:href="#LiberationSans-31"/>
       <use xlink:href="#LiberationSans-30" x="55.615234"/>
      </g>
     </g>
    </g>
    <g id="xtick_7">
     <g id="line2d_7">
      <defs>
       <path id="mb7c1902ac9" d="M 0 0 
L 0 -2 
" style="stroke: #000000; stroke-width: 0.6"/>
      </defs>
      <g>
       <use xlink:href="#mb7c1902ac9" x="136.17719" y="640.3905" style="stroke: #000000; stroke-width: 0.6"/>
      </g>
     </g>
    </g>
    <g id="xtick_8">
     <g id="line2d_8">
      <g>
       <use xlink:href="#mb7c1902ac9" x="164.545572" y="640.3905" style="stroke: #000000; stroke-width: 0.6"/>
      </g>
     </g>
    </g>
    <g id="xtick_9">
     <g id="line2d_9">
      <g>
       <use xlink:href="#mb7c1902ac9" x="192.913953" y="640.3905" style="stroke: #000000; stroke-width: 0.6"/>
      </g>
     </g>
    </g>
    <g id="xtick_10">
     <g id="line2d_10">
      <g>
       <use xlink:href="#mb7c1902ac9" x="249.650717" y="640.3905" style="stroke: #000000; stroke-width: 0.6"/>
      </g>
     </g>
    </g>
    <g id="xtick_11">
     <g id="line2d_11">
      <g>
       <use xlink:href="#mb7c1902ac9" x="278.019099" y="640.3905" style="stroke: #000000; stroke-width: 0.6"/>
      </g>
     </g>
    </g>
    <g id="xtick_12">
     <g id="line2d_12">
      <g>
       <use xlink:href="#mb7c1902ac9" x="306.38748" y="640.3905" style="stroke: #000000; stroke-width: 0.6"/>
      </g>
     </g>
    </g>
    <g id="xtick_13">
     <g id="line2d_13">
      <g>
       <use xlink:href="#mb7c1902ac9" x="363.124244" y="640.3905" style="stroke: #000000; stroke-width: 0.6"/>
      </g>
     </g>
    </g>
    <g id="xtick_14">
     <g id="line2d_14">
      <g>
       <use xlink:href="#mb7c1902ac9" x="391.492626" y="640.3905" style="stroke: #000000; stroke-width: 0.6"/>
      </g>
     </g>
    </g>
    <g id="xtick_15">
     <g id="line2d_15">
      <g>
       <use xlink:href="#mb7c1902ac9" x="419.861008" y="640.3905" style="stroke: #000000; stroke-width: 0.6"/>
      </g>
     </g>
    </g>
    <g id="xtick_16">
     <g id="line2d_16">
      <g>
       <use xlink:href="#mb7c1902ac9" x="476.597771" y="640.3905" style="stroke: #000000; stroke-width: 0.6"/>
      </g>
     </g>
    </g>
    <g id="xtick_17">
     <g id="line2d_17">
      <g>
       <use xlink:href="#mb7c1902ac9" x="504.966153" y="640.3905" style="stroke: #000000; stroke-width: 0.6"/>
      </g>
     </g>
    </g>
    <g id="xtick_18">
     <g id="line2d_18">
      <g>
       <use xlink:href="#mb7c1902ac9" x="533.334535" y="640.3905" style="stroke: #000000; stroke-width: 0.6"/>
      </g>
     </g>
    </g>
    <g id="xtick_19">
     <g id="line2d_19">
      <g>
       <use xlink:href="#mb7c1902ac9" x="590.071298" y="640.3905" style="stroke: #000000; stroke-width: 0.6"/>
      </g>
     </g>
    </g>
    <g id="xtick_20">
     <g id="line2d_20">
      <g>
       <use xlink:href="#mb7c1902ac9" x="618.43968" y="640.3905" style="stroke: #000000; stroke-width: 0.6"/>
      </g>
     </g>
    </g>
    <g id="xtick_21">
     <g id="line2d_21">
      <g>
       <use xlink:href="#mb7c1902ac9" x="646.808062" y="640.3905" style="stroke: #000000; stroke-width: 0.6"/>
      </g>
     </g>
    </g>
    <g id="text_7">
     <!-- Time ps -->
     <g transform="translate(338.744432 697.59675) scale(0.3 -0.3)">
      <defs>
       <path id="LiberationSans-54" d="M 2250 3916 
L 2250 0 
L 1656 0 
L 1656 3916 
L 144 3916 
L 144 4403 
L 3763 4403 
L 3763 3916 
L 2250 3916 
z
" transform="scale(0.015625)"/>
       <path id="LiberationSans-69" d="M 428 4100 
L 428 4638 
L 991 4638 
L 991 4100 
L 428 4100 
z
M 428 0 
L 428 3381 
L 991 3381 
L 991 0 
L 428 0 
z
" transform="scale(0.015625)"/>
       <path id="LiberationSans-6d" d="M 2400 0 
L 2400 2144 
Q 2400 2634 2265 2821 
Q 2131 3009 1781 3009 
Q 1422 3009 1212 2734 
Q 1003 2459 1003 1959 
L 1003 0 
L 444 0 
L 444 2659 
Q 444 3250 425 3381 
L 956 3381 
Q 959 3366 962 3297 
Q 966 3228 970 3139 
Q 975 3050 981 2803 
L 991 2803 
Q 1172 3163 1406 3303 
Q 1641 3444 1978 3444 
Q 2363 3444 2586 3291 
Q 2809 3138 2897 2803 
L 2906 2803 
Q 3081 3144 3329 3294 
Q 3578 3444 3931 3444 
Q 4444 3444 4676 3166 
Q 4909 2888 4909 2253 
L 4909 0 
L 4353 0 
L 4353 2144 
Q 4353 2634 4218 2821 
Q 4084 3009 3734 3009 
Q 3366 3009 3161 2736 
Q 2956 2463 2956 1959 
L 2956 0 
L 2400 0 
z
" transform="scale(0.015625)"/>
       <path id="LiberationSans-65" d="M 863 1572 
Q 863 991 1103 675 
Q 1344 359 1806 359 
Q 2172 359 2392 506 
Q 2613 653 2691 878 
L 3184 738 
Q 2881 -63 1806 -63 
Q 1056 -63 664 384 
Q 272 831 272 1713 
Q 272 2550 664 2997 
Q 1056 3444 1784 3444 
Q 3275 3444 3275 1647 
L 3275 1572 
L 863 1572 
z
M 2694 2003 
Q 2647 2538 2422 2783 
Q 2197 3028 1775 3028 
Q 1366 3028 1127 2754 
Q 888 2481 869 2003 
L 2694 2003 
z
" transform="scale(0.015625)"/>
       <path id="LiberationSans-20" transform="scale(0.015625)"/>
       <path id="LiberationSans-70" d="M 3291 1706 
Q 3291 -63 2047 -63 
Q 1266 -63 997 525 
L 981 525 
Q 994 500 994 -6 
L 994 -1328 
L 431 -1328 
L 431 2691 
Q 431 3213 413 3381 
L 956 3381 
Q 959 3369 965 3292 
Q 972 3216 980 3056 
Q 988 2897 988 2838 
L 1000 2838 
Q 1150 3150 1397 3295 
Q 1644 3441 2047 3441 
Q 2672 3441 2981 3022 
Q 3291 2603 3291 1706 
z
M 2700 1694 
Q 2700 2400 2509 2703 
Q 2319 3006 1903 3006 
Q 1569 3006 1380 2865 
Q 1191 2725 1092 2426 
Q 994 2128 994 1650 
Q 994 984 1206 668 
Q 1419 353 1897 353 
Q 2316 353 2508 661 
Q 2700 969 2700 1694 
z
" transform="scale(0.015625)"/>
       <path id="LiberationSans-73" d="M 2969 934 
Q 2969 456 2608 196 
Q 2247 -63 1597 -63 
Q 966 -63 623 145 
Q 281 353 178 794 
L 675 891 
Q 747 619 972 492 
Q 1197 366 1597 366 
Q 2025 366 2223 497 
Q 2422 628 2422 891 
Q 2422 1091 2284 1216 
Q 2147 1341 1841 1422 
L 1438 1528 
Q 953 1653 748 1773 
Q 544 1894 428 2066 
Q 313 2238 313 2488 
Q 313 2950 642 3192 
Q 972 3434 1603 3434 
Q 2163 3434 2492 3237 
Q 2822 3041 2909 2606 
L 2403 2544 
Q 2356 2769 2151 2889 
Q 1947 3009 1603 3009 
Q 1222 3009 1040 2893 
Q 859 2778 859 2544 
Q 859 2400 934 2306 
Q 1009 2213 1156 2147 
Q 1303 2081 1775 1966 
Q 2222 1853 2419 1758 
Q 2616 1663 2730 1547 
Q 2844 1431 2906 1279 
Q 2969 1128 2969 934 
z
" transform="scale(0.015625)"/>
      </defs>
      <use xlink:href="#LiberationSans-54"/>
      <use xlink:href="#LiberationSans-69" x="57.333984"/>
      <use xlink:href="#LiberationSans-6d" x="79.550781"/>
      <use xlink:href="#LiberationSans-65" x="162.851562"/>
      <use xlink:href="#LiberationSans-20" x="218.466797"/>
      <use xlink:href="#LiberationSans-70" x="246.25"/>
      <use xlink:href="#LiberationSans-73" x="301.865234"/>
     </g>
    </g>
   </g>
   <g id="matplotlib.axis_2">
    <g id="ytick_1">
     <g id="line2d_22">
      <defs>
       <path id="m935f478b9f" d="M 0 0 
L 3.5 0 
" style="stroke: #000000; stroke-width: 0.8"/>
      </defs>
      <g>
       <use xlink:href="#m935f478b9f" x="79.5" y="605.154463" style="stroke: #000000; stroke-width: 0.8"/>
      </g>
     </g>
     <g id="text_8">
      <!-- $\mathdefault{−2}$ -->
      <g transform="translate(41.5 616.024776) scale(0.3 -0.3)">
       <defs>
        <path id="LiberationSans-2212" d="M 316 1900 
L 316 2356 
L 3425 2356 
L 3425 1900 
L 316 1900 
z
" transform="scale(0.015625)"/>
       </defs>
       <use xlink:href="#LiberationSans-2212" transform="translate(0 0.171875)"/>
       <use xlink:href="#LiberationSans-32" transform="translate(58.398438 0.171875)"/>
      </g>
     </g>
    </g>
    <g id="ytick_2">
     <g id="line2d_23">
      <g>
       <use xlink:href="#m935f478b9f" x="79.5" y="478.854246" style="stroke: #000000; stroke-width: 0.8"/>
      </g>
     </g>
     <g id="text_9">
      <!-- $\mathdefault{0}$ -->
      <g transform="translate(59.2 489.724558) scale(0.3 -0.3)">
       <use xlink:href="#LiberationSans-30" transform="translate(0 0.171875)"/>
      </g>
     </g>
    </g>
    <g id="ytick_3">
     <g id="line2d_24">
      <g>
       <use xlink:href="#m935f478b9f" x="79.5" y="352.554028" style="stroke: #000000; stroke-width: 0.8"/>
      </g>
     </g>
     <g id="text_10">
      <!-- $\mathdefault{2}$ -->
      <g transform="translate(59.2 363.424341) scale(0.3 -0.3)">
       <use xlink:href="#LiberationSans-32" transform="translate(0 0.171875)"/>
      </g>
     </g>
    </g>
    <g id="ytick_4">
     <g id="line2d_25">
      <g>
       <use xlink:href="#m935f478b9f" x="79.5" y="226.25381" style="stroke: #000000; stroke-width: 0.8"/>
      </g>
     </g>
     <g id="text_11">
      <!-- $\mathdefault{4}$ -->
      <g transform="translate(59.2 237.124123) scale(0.3 -0.3)">
       <use xlink:href="#LiberationSans-34" transform="translate(0 0.203125)"/>
      </g>
     </g>
    </g>
    <g id="ytick_5">
     <g id="line2d_26">
      <g>
       <use xlink:href="#m935f478b9f" x="79.5" y="99.953593" style="stroke: #000000; stroke-width: 0.8"/>
      </g>
     </g>
     <g id="text_12">
      <!-- $\mathdefault{6}$ -->
      <g transform="translate(59.2 110.823905) scale(0.3 -0.3)">
       <use xlink:href="#LiberationSans-36" transform="translate(0 0.171875)"/>
      </g>
     </g>
    </g>
    <g id="ytick_6">
     <g id="line2d_27">
      <defs>
       <path id="m22cfeae997" d="M 0 0 
L 2 0 
" style="stroke: #000000; stroke-width: 0.6"/>
      </defs>
      <g>
       <use xlink:href="#m22cfeae997" x="79.5" y="636.729518" style="stroke: #000000; stroke-width: 0.6"/>
      </g>
     </g>
    </g>
    <g id="ytick_7">
     <g id="line2d_28">
      <g>
       <use xlink:href="#m22cfeae997" x="79.5" y="573.579409" style="stroke: #000000; stroke-width: 0.6"/>
      </g>
     </g>
    </g>
    <g id="ytick_8">
     <g id="line2d_29">
      <g>
       <use xlink:href="#m22cfeae997" x="79.5" y="542.004354" style="stroke: #000000; stroke-width: 0.6"/>
      </g>
     </g>
    </g>
    <g id="ytick_9">
     <g id="line2d_30">
      <g>
       <use xlink:href="#m22cfeae997" x="79.5" y="510.4293" style="stroke: #000000; stroke-width: 0.6"/>
      </g>
     </g>
    </g>
    <g id="ytick_10">
     <g id="line2d_31">
      <g>
       <use xlink:href="#m22cfeae997" x="79.5" y="447.279191" style="stroke: #000000; stroke-width: 0.6"/>
      </g>
     </g>
    </g>
    <g id="ytick_11">
     <g id="line2d_32">
      <g>
       <use xlink:href="#m22cfeae997" x="79.5" y="415.704137" style="stroke: #000000; stroke-width: 0.6"/>
      </g>
     </g>
    </g>
    <g id="ytick_12">
     <g id="line2d_33">
      <g>
       <use xlink:href="#m22cfeae997" x="79.5" y="384.129082" style="stroke: #000000; stroke-width: 0.6"/>
      </g>
     </g>
    </g>
    <g id="ytick_13">
     <g id="line2d_34">
      <g>
       <use xlink:href="#m22cfeae997" x="79.5" y="320.978974" style="stroke: #000000; stroke-width: 0.6"/>
      </g>
     </g>
    </g>
    <g id="ytick_14">
     <g id="line2d_35">
      <g>
       <use xlink:href="#m22cfeae997" x="79.5" y="289.403919" style="stroke: #000000; stroke-width: 0.6"/>
      </g>
     </g>
    </g>
    <g id="ytick_15">
     <g id="line2d_36">
      <g>
       <use xlink:href="#m22cfeae997" x="79.5" y="257.828865" style="stroke: #000000; stroke-width: 0.6"/>
      </g>
     </g>
    </g>
    <g id="ytick_16">
     <g id="line2d_37">
      <g>
       <use xlink:href="#m22cfeae997" x="79.5" y="194.678756" style="stroke: #000000; stroke-width: 0.6"/>
      </g>
     </g>
    </g>
    <g id="ytick_17">
     <g id="line2d_38">
      <g>
       <use xlink:href="#m22cfeae997" x="79.5" y="163.103702" style="stroke: #000000; stroke-width: 0.6"/>
      </g>
     </g>
    </g>
    <g id="ytick_18">
     <g id="line2d_39">
      <g>
       <use xlink:href="#m22cfeae997" x="79.5" y="131.528647" style="stroke: #000000; stroke-width: 0.6"/>
      </g>
     </g>
    </g>
    <g id="ytick_19">
     <g id="line2d_40">
      <g>
       <use xlink:href="#m22cfeae997" x="79.5" y="68.378538" style="stroke: #000000; stroke-width: 0.6"/>
      </g>
     </g>
    </g>
    <g id="text_13">
     <!-- ACF $(\mathrm{W} / \mathrm{m}^2)^2$ -->
     <g transform="translate(31.275 426.339) rotate(-90) scale(0.3 -0.3)">
      <defs>
       <path id="LiberationSans-41" d="M 3647 0 
L 3144 1288 
L 1138 1288 
L 631 0 
L 13 0 
L 1809 4403 
L 2488 4403 
L 4256 0 
L 3647 0 
z
M 2141 3953 
L 2113 3866 
Q 2034 3606 1881 3200 
L 1319 1753 
L 2966 1753 
L 2400 3206 
Q 2313 3422 2225 3694 
L 2141 3953 
z
" transform="scale(0.015625)"/>
       <path id="LiberationSans-43" d="M 2475 3981 
Q 1744 3981 1337 3511 
Q 931 3041 931 2222 
Q 931 1413 1354 920 
Q 1778 428 2500 428 
Q 3425 428 3891 1344 
L 4378 1100 
Q 4106 531 3614 234 
Q 3122 -63 2472 -63 
Q 1806 -63 1320 214 
Q 834 491 579 1005 
Q 325 1519 325 2222 
Q 325 3275 894 3872 
Q 1463 4469 2469 4469 
Q 3172 4469 3644 4194 
Q 4116 3919 4338 3378 
L 3772 3191 
Q 3619 3575 3280 3778 
Q 2941 3981 2475 3981 
z
" transform="scale(0.015625)"/>
       <path id="LiberationSans-46" d="M 1122 3916 
L 1122 2278 
L 3578 2278 
L 3578 1784 
L 1122 1784 
L 1122 0 
L 525 0 
L 525 4403 
L 3653 4403 
L 3653 3916 
L 1122 3916 
z
" transform="scale(0.015625)"/>
       <path id="STIXGeneral-Regular-28" d="M 1946 -1030 
L 1869 -1133 
Q 1126 -710 716 32 
Q 307 774 307 1613 
Q 307 3386 1888 4326 
L 1946 4224 
Q 1293 3667 1075 3126 
Q 858 2586 858 1632 
Q 858 685 1082 96 
Q 1306 -493 1946 -1030 
z
" transform="scale(0.015625)"/>
       <path id="STIXGeneral-Regular-57" d="M 5965 4237 
L 5965 4115 
Q 5709 4064 5616 3990 
Q 5523 3917 5434 3667 
Q 4704 1709 4128 -70 
L 4032 -70 
Q 3642 1011 3008 2637 
L 2022 -70 
L 1926 -70 
Q 1709 576 1277 1753 
Q 845 2931 698 3347 
Q 538 3808 406 3958 
Q 275 4109 32 4115 
L 32 4237 
L 1594 4237 
L 1594 4115 
Q 1357 4109 1270 4064 
Q 1184 4019 1184 3917 
Q 1184 3808 1254 3616 
L 2176 1210 
L 2842 3021 
L 2662 3501 
Q 2509 3917 2400 4013 
Q 2291 4109 2010 4115 
L 2010 4237 
L 3706 4237 
L 3706 4115 
Q 3213 4102 3213 3891 
Q 3213 3808 3322 3520 
L 4237 1190 
L 5043 3360 
Q 5152 3667 5152 3853 
Q 5152 4109 4704 4115 
L 4704 4237 
L 5965 4237 
z
" transform="scale(0.015625)"/>
       <path id="STIXGeneral-Regular-2f" d="M 1837 4326 
L 378 -90 
L -58 -90 
L 1408 4326 
L 1837 4326 
z
" transform="scale(0.015625)"/>
       <path id="STIXGeneral-Regular-6d" d="M 4960 0 
L 3565 0 
L 3565 96 
Q 3834 122 3907 208 
Q 3981 294 3981 576 
L 3981 1894 
Q 3981 2278 3869 2444 
Q 3757 2611 3488 2611 
Q 3264 2611 3107 2521 
Q 2950 2432 2803 2221 
L 2803 608 
Q 2803 301 2896 201 
Q 2989 102 3264 96 
L 3264 0 
L 1830 0 
L 1830 96 
Q 2112 115 2189 188 
Q 2266 262 2266 550 
L 2266 1901 
Q 2266 2611 1850 2611 
Q 1670 2611 1468 2531 
Q 1267 2451 1171 2336 
Q 1088 2240 1088 2227 
L 1088 448 
Q 1088 243 1177 176 
Q 1267 109 1523 96 
L 1523 0 
L 102 0 
L 102 96 
Q 371 102 460 195 
Q 550 288 550 563 
L 550 2150 
Q 550 2387 499 2480 
Q 448 2573 326 2573 
Q 230 2573 122 2547 
L 122 2656 
Q 557 2778 1011 2944 
L 1062 2925 
L 1062 2451 
L 1075 2451 
Q 1363 2752 1584 2848 
Q 1805 2944 2054 2944 
Q 2560 2944 2733 2406 
Q 3232 2944 3776 2944 
Q 4518 2944 4518 1792 
L 4518 493 
Q 4518 282 4582 202 
Q 4646 122 4794 109 
L 4960 96 
L 4960 0 
z
" transform="scale(0.015625)"/>
       <path id="STIXGeneral-Regular-32" d="M 3034 877 
L 2688 0 
L 186 0 
L 186 77 
L 1325 1286 
Q 1773 1754 1965 2144 
Q 2157 2534 2157 2950 
Q 2157 3379 1920 3616 
Q 1683 3853 1267 3853 
Q 922 3853 720 3673 
Q 518 3494 326 3021 
L 192 3053 
Q 301 3648 630 3987 
Q 960 4326 1523 4326 
Q 2054 4326 2380 4006 
Q 2707 3686 2707 3200 
Q 2707 2477 1888 1613 
L 832 486 
L 2330 486 
Q 2541 486 2665 569 
Q 2790 653 2944 915 
L 3034 877 
z
" transform="scale(0.015625)"/>
       <path id="STIXGeneral-Regular-29" d="M 186 4224 
L 262 4326 
Q 992 3891 1408 3148 
Q 1824 2406 1824 1581 
Q 1824 -166 243 -1133 
L 186 -1030 
Q 845 -486 1059 54 
Q 1274 595 1274 1562 
Q 1274 2534 1059 3120 
Q 845 3706 186 4224 
z
" transform="scale(0.015625)"/>
      </defs>
      <use xlink:href="#LiberationSans-41" transform="translate(0 0.409375)"/>
      <use xlink:href="#LiberationSans-43" transform="translate(66.699219 0.409375)"/>
      <use xlink:href="#LiberationSans-46" transform="translate(138.916016 0.409375)"/>
      <use xlink:href="#LiberationSans-20" transform="translate(200 0.409375)"/>
      <use xlink:href="#STIXGeneral-Regular-28" transform="translate(227.783203 0.409375)"/>
      <use xlink:href="#STIXGeneral-Regular-57" transform="translate(261.083191 0.409375)"/>
      <use xlink:href="#STIXGeneral-Regular-2f" transform="translate(355.483185 0.409375)"/>
      <use xlink:href="#STIXGeneral-Regular-6d" transform="translate(383.283173 0.409375)"/>
      <use xlink:href="#STIXGeneral-Regular-32" transform="translate(462.626442 35.684375) scale(0.7)"/>
      <use xlink:href="#STIXGeneral-Regular-29" transform="translate(502.035806 0.409375)"/>
      <use xlink:href="#STIXGeneral-Regular-32" transform="translate(536.879075 35.684375) scale(0.7)"/>
     </g>
    </g>
    <g id="text_14">
     <!-- $\times\mathdefault{10^{18}}\mathdefault{}$ -->
     <g transform="translate(79.5 36.1875) scale(0.4 -0.4)">
      <defs>
       <path id="STIXGeneral-Regular-d7" d="M 3821 141 
L 3526 -160 
L 2048 1312 
L 570 -160 
L 275 134 
L 1747 1613 
L 275 3091 
L 576 3386 
L 2048 1914 
L 3526 3386 
L 3821 3098 
L 2349 1613 
L 3821 141 
z
" transform="scale(0.015625)"/>
      </defs>
      <use xlink:href="#STIXGeneral-Regular-d7" transform="translate(0 0.140625)"/>
      <use xlink:href="#LiberationSans-31" transform="translate(63.999985 0.140625)"/>
      <use xlink:href="#LiberationSans-30" transform="translate(119.615219 0.140625)"/>
      <use xlink:href="#LiberationSans-31" transform="translate(176.154946 37.120312) scale(0.7)"/>
      <use xlink:href="#LiberationSans-38" transform="translate(215.08561 37.120312) scale(0.7)"/>
     </g>
    </g>
   </g>
   <g id="line2d_41">
    <path d="M 107.865545 66.514909 
L 108.092492 74.832706 
L 108.376176 90.66969 
L 108.773333 127.544797 
L 109.397438 211.165892 
L 111.610171 535.006142 
L 112.177539 580.771148 
L 112.631433 602.21022 
L 112.971854 610.426174 
L 113.255537 612.97291 
L 113.369011 613.036307 
L 113.482485 612.656061 
L 113.709432 610.635884 
L 114.106589 604.02782 
L 114.730693 588.850534 
L 117.056901 529.818291 
L 119.610055 476.164024 
L 120.40437 463.970789 
L 120.971737 458.051439 
L 121.425631 455.231885 
L 121.822789 454.212892 
L 121.992999 454.120256 
L 122.276683 454.486562 
L 122.617103 455.561893 
L 122.957524 457.218421 
L 123.695102 462.172942 
L 125.851099 477.341932 
L 126.418467 479.565475 
L 126.929097 480.707914 
L 127.496465 481.259379 
L 128.007096 481.329745 
L 128.347517 481.232724 
L 129.368778 481.377161 
L 130.21983 482.439202 
L 131.694986 485.702456 
L 132.31909 486.624782 
L 132.772984 486.891759 
L 133.113405 486.882083 
L 133.624036 486.451208 
L 134.07793 485.718932 
L 134.758771 484.009596 
L 136.233927 479.403323 
L 137.198452 476.676726 
L 137.709083 475.70329 
L 138.503397 474.802965 
L 139.014028 474.564653 
L 140.148763 475.001808 
L 140.772868 475.531642 
L 141.226762 476.116338 
L 141.850866 477.227562 
L 143.326022 480.168604 
L 144.687704 482.182495 
L 145.368546 482.816382 
L 145.879176 482.980962 
L 146.333071 482.853653 
L 146.673491 482.566223 
L 147.638016 481.13038 
L 148.148647 480.04787 
L 150.077697 475.723989 
L 150.758538 474.649089 
L 151.212432 474.137741 
L 151.723063 473.73508 
L 152.233694 473.618128 
L 152.574115 473.746685 
L 153.141482 474.230909 
L 154.106007 475.409754 
L 155.240742 477.206572 
L 156.659162 479.54854 
L 157.73716 480.922854 
L 158.701685 482.003477 
L 159.496 482.609688 
L 160.006631 482.745064 
L 160.573998 482.600442 
L 161.027892 482.259126 
L 161.59526 481.494959 
L 162.162628 480.4113 
L 163.070416 478.216464 
L 164.034941 476.079935 
L 164.488835 475.527042 
L 164.942729 475.364017 
L 165.396623 475.443453 
L 165.963991 475.816452 
L 166.701569 476.592797 
L 169.254723 479.528597 
L 169.822091 479.796351 
L 170.389458 479.838284 
L 171.070299 479.673305 
L 172.488719 478.972251 
L 173.736927 478.425753 
L 174.531242 478.382333 
L 175.212083 478.575382 
L 176.290082 479.220719 
L 177.651764 479.988497 
L 178.502816 480.237041 
L 179.29713 480.267634 
L 180.148182 480.055983 
L 181.736811 479.333962 
L 182.928283 478.780195 
L 185.197754 477.957185 
L 186.162279 477.919669 
L 187.297014 478.094295 
L 191.211851 478.712838 
L 192.573533 478.810235 
L 193.594795 479.098551 
L 194.89974 479.514849 
L 195.750792 479.583212 
L 196.601843 479.430148 
L 197.850052 478.871586 
L 199.154997 478.28875 
L 199.949312 478.125084 
L 200.743627 478.194277 
L 201.594678 478.476725 
L 203.637202 479.242473 
L 204.7152 479.43982 
L 205.793199 479.445223 
L 206.700987 479.27242 
L 211.353402 477.920288 
L 212.034243 478.074309 
L 212.658347 478.409219 
L 213.679609 479.258264 
L 216.176026 481.583538 
L 216.629921 481.624788 
L 217.083815 481.430727 
L 217.594446 480.955677 
L 218.21855 480.021458 
L 219.126338 478.249775 
L 220.544757 475.480675 
L 221.168862 474.770283 
L 221.566019 474.598405 
L 221.963176 474.668919 
L 222.41707 475.018368 
L 223.041175 475.867865 
L 224.232647 478.070962 
L 225.367382 480.012361 
L 226.048223 480.752003 
L 226.615591 481.027041 
L 227.182959 481.016495 
L 227.8638 480.760345 
L 230.757375 479.480381 
L 231.665163 479.424312 
L 233.99137 479.490906 
L 234.728948 479.236165 
L 236.374314 478.375789 
L 237.282103 477.978297 
L 238.133154 477.801929 
L 239.097679 477.816742 
L 241.083466 477.946067 
L 242.615358 478.101716 
L 243.46641 478.434474 
L 245.962827 479.635736 
L 247.097563 479.790758 
L 248.515982 479.565314 
L 249.537243 479.426296 
L 250.388295 479.505969 
L 252.317345 479.651392 
L 253.168396 479.389271 
L 253.962711 478.953306 
L 256.345655 477.456297 
L 257.13997 477.361713 
L 257.820811 477.505547 
L 258.558389 477.860862 
L 261.622174 479.697893 
L 262.473226 479.884411 
L 263.210803 479.86101 
L 263.891645 479.666027 
L 265.3668 478.879749 
L 267.12564 477.83172 
L 267.863218 477.666146 
L 268.544059 477.788827 
L 269.281637 478.191879 
L 270.246162 478.993854 
L 272.515633 480.912869 
L 273.083 481.029502 
L 273.593631 480.902714 
L 274.160999 480.494492 
L 274.728366 479.839858 
L 275.806365 478.164326 
L 277.168047 476.016706 
L 277.735415 475.488039 
L 278.189309 475.348046 
L 278.643203 475.511787 
L 279.153834 475.96091 
L 279.891412 476.975801 
L 281.990672 480.101372 
L 282.614777 480.604724 
L 283.125407 480.748732 
L 283.692775 480.630877 
L 284.373616 480.186424 
L 286.813297 478.18598 
L 287.607612 477.844517 
L 288.231716 477.776334 
L 288.912557 477.909106 
L 289.706872 478.283346 
L 291.125291 479.15772 
L 292.20329 479.766193 
L 292.827394 479.980682 
L 293.621709 479.991867 
L 294.359287 479.781831 
L 295.607495 479.110371 
L 297.196125 478.218042 
L 298.217387 477.840697 
L 299.125175 477.758744 
L 300.203173 477.982582 
L 301.564856 478.589103 
L 302.926538 479.127001 
L 304.685378 479.453625 
L 309.281055 479.656193 
L 310.302317 479.249545 
L 311.380316 478.581974 
L 312.344841 478.016355 
L 313.025682 477.810664 
L 313.649786 477.821415 
L 314.444101 478.093705 
L 315.408626 478.639885 
L 316.713571 479.378645 
L 318.358938 480.007699 
L 319.380199 480.189322 
L 320.231251 480.12179 
L 320.968829 479.854599 
L 321.933354 479.258005 
L 324.599982 477.320974 
L 325.167349 477.352553 
L 325.734717 477.620744 
L 326.699242 478.486219 
L 328.514818 480.37721 
L 329.195659 480.779402 
L 329.649554 480.836593 
L 330.103448 480.709673 
L 330.727552 480.225609 
L 331.578603 479.165261 
L 334.018284 475.938571 
L 334.585652 475.624333 
L 335.039546 475.639709 
L 335.550177 475.934868 
L 336.174281 476.553257 
L 338.954383 479.510012 
L 339.578487 479.741907 
L 340.202592 479.722785 
L 340.883433 479.496889 
L 344.174165 478.271835 
L 345.025216 478.272425 
L 345.819531 478.527166 
L 346.784056 479.140721 
L 349.223737 480.796444 
L 349.791105 480.827294 
L 350.301735 480.644922 
L 351.039313 480.102707 
L 353.819415 477.666545 
L 354.500256 477.489166 
L 355.181097 477.53674 
L 356.032149 477.803418 
L 357.790988 478.701978 
L 360.230669 480.001055 
L 361.081721 480.223974 
L 361.932772 480.187206 
L 362.954034 479.869726 
L 368.400763 478.014211 
L 369.138341 477.99596 
L 369.932656 478.135506 
L 371.351075 478.682093 
L 372.65602 479.137579 
L 373.563808 479.254511 
L 376.797804 479.310678 
L 377.989276 479.057936 
L 379.294222 478.562026 
L 381.109798 477.975778 
L 381.904113 478.068557 
L 382.755164 478.432681 
L 383.662952 479.06094 
L 385.592002 480.528513 
L 386.272844 480.746385 
L 386.783474 480.697991 
L 387.350842 480.38852 
L 388.031683 479.709073 
L 389.109682 478.192193 
L 390.698311 475.975305 
L 391.265679 475.58034 
L 391.662836 475.541537 
L 392.173467 475.84228 
L 392.854308 476.601018 
L 395.123779 479.456772 
L 395.80462 479.912909 
L 396.428724 480.093277 
L 397.109565 480.042629 
L 400.173351 479.004763 
L 402.102401 478.437039 
L 403.123662 478.410658 
L 404.712292 478.751864 
L 405.903764 479.347148 
L 407.151972 479.998255 
L 408.116497 480.239007 
L 408.797339 480.180442 
L 409.534917 479.919147 
L 410.385968 479.339704 
L 412.939122 477.130105 
L 413.619964 476.959414 
L 414.187331 477.013692 
L 414.868172 477.264455 
L 415.662487 477.733107 
L 418.783009 479.690941 
L 420.258165 480.1842 
L 421.279427 480.275619 
L 421.903531 480.152959 
L 422.868056 479.711867 
L 426.102052 478.144884 
L 427.066576 478.068589 
L 428.314785 478.218675 
L 429.506257 478.529494 
L 431.718991 479.359966 
L 432.79699 479.727473 
L 433.534568 479.805102 
L 434.385619 479.657492 
L 435.406881 479.258552 
L 437.449404 478.370953 
L 438.130245 478.335076 
L 438.811087 478.523954 
L 439.775612 479.084414 
L 442.045082 480.493847 
L 442.839397 480.663893 
L 443.406764 480.513749 
L 443.974132 480.08985 
L 444.71171 479.175529 
L 445.789708 477.360948 
L 447.094654 475.242367 
L 447.718758 474.650091 
L 448.172653 474.516361 
L 448.513073 474.653852 
L 448.966967 475.121371 
L 449.591072 476.143788 
L 450.555597 478.178622 
L 451.803805 480.653857 
L 452.484647 481.532182 
L 452.995277 481.842202 
L 453.392435 481.849299 
L 453.846329 481.626478 
L 454.52717 480.923472 
L 457.137061 477.877057 
L 457.647692 477.679498 
L 458.21506 477.695492 
L 458.782427 477.955727 
L 459.463268 478.515318 
L 460.881688 479.794195 
L 461.619265 480.170959 
L 462.24337 480.259528 
L 462.980948 480.115609 
L 463.718526 479.72774 
L 465.704312 478.547949 
L 466.895784 478.269128 
L 469.221992 478.082402 
L 470.29999 478.168105 
L 471.377989 478.458372 
L 473.477249 479.166952 
L 474.385037 479.221977 
L 475.065878 479.076937 
L 477.051665 478.528893 
L 478.01619 478.620602 
L 480.228924 479.123552 
L 481.250186 479.058839 
L 482.271447 478.777066 
L 483.860077 478.421552 
L 484.767865 478.530224 
L 486.299758 479.070885 
L 487.150809 479.252847 
L 488.569228 479.283609 
L 490.384805 479.362701 
L 492.484065 479.495851 
L 493.391853 479.318929 
L 495.491113 478.639857 
L 496.285428 478.658917 
L 497.136479 478.94716 
L 498.157741 479.575885 
L 499.292476 480.273028 
L 499.916581 480.397885 
L 500.427212 480.270347 
L 500.994579 479.868229 
L 501.618684 479.162834 
L 503.09384 477.039892 
L 504.001628 475.971825 
L 504.512259 475.673609 
L 505.02289 475.64253 
L 505.987415 476.670213 
L 507.235623 478.579682 
L 508.143412 479.738877 
L 508.824253 480.299517 
L 509.39162 480.494693 
L 509.958988 480.43279 
L 510.583092 480.111263 
L 511.831301 479.078622 
L 513.022773 478.196901 
L 514.100772 477.681179 
L 515.00856 477.526001 
L 515.973085 477.681539 
L 516.824136 478.088583 
L 520.341816 479.988122 
L 521.249604 480.09902 
L 522.384339 480.010605 
L 523.916232 479.584149 
L 525.221177 478.973128 
L 526.526123 478.445783 
L 527.604121 478.271059 
L 528.965804 478.394179 
L 531.802642 478.731183 
L 533.674955 478.727454 
L 534.80969 479.051555 
L 536.284846 479.513796 
L 537.362845 479.544728 
L 538.213896 479.304046 
L 539.348631 478.747696 
L 540.25642 478.391652 
L 541.050734 478.313554 
L 541.618102 478.405134 
L 542.752837 478.902415 
L 544.341467 479.628194 
L 545.249255 479.81576 
L 546.100306 479.746008 
L 547.008095 479.43622 
L 548.256303 478.732829 
L 550.979668 477.316077 
L 551.547036 477.294153 
L 552.227877 477.490227 
L 552.965455 477.959787 
L 553.92998 478.871385 
L 556.483134 481.42756 
L 556.937028 481.478958 
L 557.390922 481.306029 
L 557.95829 480.779422 
L 558.639131 479.76954 
L 559.71713 477.700051 
L 560.795128 475.768378 
L 561.362496 475.16195 
L 561.81639 475.00259 
L 562.213547 475.208208 
L 562.724178 475.740274 
L 563.461756 476.85817 
L 564.936912 479.181386 
L 565.67449 479.974513 
L 566.298594 480.331594 
L 566.865962 480.401115 
L 567.490066 480.230513 
L 568.624801 479.603841 
L 570.383641 478.743404 
L 571.234693 478.578229 
L 572.029007 478.626562 
L 572.766585 478.864948 
L 575.773634 480.105471 
L 576.454475 480.044772 
L 577.135316 479.771003 
L 578.099841 479.101677 
L 579.745207 477.90304 
L 580.539522 477.575332 
L 581.2771 477.457363 
L 582.071414 477.564363 
L 583.149413 478.048521 
L 586.269935 479.883126 
L 587.120986 479.967718 
L 588.028775 479.784087 
L 589.106773 479.27586 
L 590.638666 478.529601 
L 591.773401 478.256084 
L 594.326555 477.899517 
L 595.688238 477.900602 
L 596.652763 478.064152 
L 598.468339 478.724141 
L 599.943495 479.236238 
L 601.645598 479.347311 
L 603.120754 479.276405 
L 606.298012 478.782678 
L 608.340536 478.307917 
L 609.191587 478.446014 
L 609.872429 478.767628 
L 610.89369 479.506531 
L 612.82274 481.031057 
L 613.276634 481.146934 
L 613.787265 481.051179 
L 614.41137 480.59166 
L 615.148948 479.656826 
L 616.34042 477.648712 
L 617.475155 475.806184 
L 618.099259 475.174036 
L 618.553153 475.001629 
L 618.950311 475.16828 
L 619.460942 475.636288 
L 620.19852 476.684128 
L 622.241043 479.822662 
L 622.921884 480.420002 
L 623.489252 480.643077 
L 624.056619 480.613318 
L 624.794197 480.300334 
L 626.439563 479.389169 
L 627.517562 479.041754 
L 628.25514 479.027879 
L 628.992718 479.230499 
L 631.602609 480.131281 
L 632.623871 479.968176 
L 633.361449 479.635101 
L 634.439447 478.916976 
L 635.97134 477.891938 
L 637.503232 477.235164 
L 638.524494 477.026764 
L 639.318809 477.059534 
L 640.113124 477.329283 
L 640.964175 477.843556 
L 643.347119 479.577125 
L 644.254907 479.888015 
L 645.105959 479.898774 
L 646.240694 479.605646 
L 647.205219 479.420345 
L 648.283217 479.513401 
L 650.666162 479.892476 
L 651.403739 479.719871 
L 652.198054 479.306978 
L 654.751208 477.709688 
L 655.545523 477.6428 
L 656.453311 477.860678 
L 659.063203 478.958351 
L 660.481622 479.498767 
L 661.38941 479.6477 
L 662.410672 479.584221 
L 663.48867 479.190921 
L 665.474457 478.341793 
L 666.098561 478.385512 
L 666.722666 478.627786 
L 667.51698 479.151374 
L 669.786451 480.786387 
L 670.297082 480.735868 
L 670.750976 480.457615 
L 671.318343 479.828729 
L 672.112658 478.57309 
L 673.928235 475.641767 
L 674.495602 475.13913 
L 674.949496 475.001511 
L 675.176443 475.032376 
L 675.176443 475.032376 
" clip-path="url(#pe818850eee)" style="fill: none; stroke: #0000ff; stroke-width: 1.5; stroke-linecap: square"/>
   </g>
   <g id="patch_3">
    <path d="M 79.5 640.3905 
L 79.5 39.1875 
" style="fill: none; stroke: #000000; stroke-width: 0.8; stroke-linejoin: miter; stroke-linecap: square"/>
   </g>
   <g id="patch_4">
    <path d="M 703.541988 640.3905 
L 703.541988 39.1875 
" style="fill: none; stroke: #000000; stroke-width: 0.8; stroke-linejoin: miter; stroke-linecap: square"/>
   </g>
   <g id="patch_5">
    <path d="M 79.5 640.3905 
L 703.541988 640.3905 
" style="fill: none; stroke: #000000; stroke-width: 0.8; stroke-linejoin: miter; stroke-linecap: square"/>
   </g>
   <g id="patch_6">
    <path d="M 79.5 39.1875 
L 703.541988 39.1875 
" style="fill: none; stroke: #000000; stroke-width: 0.8; stroke-linejoin: miter; stroke-linecap: square"/>
   </g>
  </g>
 </g>
 <defs>
  <clipPath id="pe818850eee">
   <rect x="79.5" y="39.1875" width="624.041988" height="601.203"/>
  </clipPath>
 </defs>
</svg>
