<?xml version="1.0" encoding="utf-8" standalone="no"?>
<!DOCTYPE svg PUBLIC "-//W3C//DTD SVG 1.1//EN"
  "http://www.w3.org/Graphics/SVG/1.1/DTD/svg11.dtd">
<svg xmlns:xlink="http://www.w3.org/1999/xlink" width="710.479488pt" height="710.94975pt" viewBox="0 0 710.479488 710.94975" xmlns="http://www.w3.org/2000/svg" version="1.1">
 <metadata>
  <rdf:RDF xmlns:dc="http://purl.org/dc/elements/1.1/" xmlns:cc="http://creativecommons.org/ns#" xmlns:rdf="http://www.w3.org/1999/02/22-rdf-syntax-ns#">
   <cc:Work>
    <dc:type rdf:resource="http://purl.org/dc/dcmitype/StillImage"/>
    <dc:date>2025-02-05T18:29:44.135551</dc:date>
    <dc:format>image/svg+xml</dc:format>
    <dc:creator>
     <cc:Agent>
      <dc:title>Matplotlib v3.9.3, https://matplotlib.org/</dc:title>
     </cc:Agent>
    </dc:creator>
   </cc:Work>
  </rdf:RDF>
 </metadata>
 <defs>
  <style type="text/css">*{stroke-linejoin: round; stroke-linecap: butt}</style>
 </defs>
 <g id="figure_1">
  <g id="patch_1">
   <path d="M 0 710.94975 
L 710.479488 710.94975 
L 710.479488 0 
L 0 0 
z
" style="fill: #ffffff"/>
  </g>
  <g id="axes_1">
   <g id="patch_2">
    <path d="M 87 640.3185 
L 703.279488 640.3185 
L 703.279488 39.1875 
L 87 39.1875 
z
" style="fill: #ffffff"/>
   </g>
   <g id="matplotlib.axis_1">
    <g id="xtick_1">
     <g id="line2d_1">
      <defs>
       <path id="m58404b8188" d="M 0 0 
L 0 -3.5 
" style="stroke: #000000; stroke-width: 0.8"/>
      </defs>
      <g>
       <use xlink:href="#m58404b8188" x="114.90062" y="640.3185" style="stroke: #000000; stroke-width: 0.8"/>
      </g>
     </g>
     <g id="text_1">
      <!-- 0 -->
      <g transform="translate(106.559213 665.559125) scale(0.3 -0.3)">
       <defs>
        <path id="LiberationSans-30" d="M 3309 2203 
Q 3309 1100 2920 518 
Q 2531 -63 1772 -63 
Q 1013 -63 631 515 
Q 250 1094 250 2203 
Q 250 3338 620 3903 
Q 991 4469 1791 4469 
Q 2569 4469 2939 3897 
Q 3309 3325 3309 2203 
z
M 2738 2203 
Q 2738 3156 2517 3584 
Q 2297 4013 1791 4013 
Q 1272 4013 1045 3591 
Q 819 3169 819 2203 
Q 819 1266 1048 831 
Q 1278 397 1778 397 
Q 2275 397 2506 840 
Q 2738 1284 2738 2203 
z
" transform="scale(0.015625)"/>
       </defs>
       <use xlink:href="#LiberationSans-30"/>
      </g>
     </g>
    </g>
    <g id="xtick_2">
     <g id="line2d_2">
      <g>
       <use xlink:href="#m58404b8188" x="226.985061" y="640.3185" style="stroke: #000000; stroke-width: 0.8"/>
      </g>
     </g>
     <g id="text_2">
      <!-- 2 -->
      <g transform="translate(218.643655 665.559125) scale(0.3 -0.3)">
       <defs>
        <path id="LiberationSans-32" d="M 322 0 
L 322 397 
Q 481 763 711 1042 
Q 941 1322 1194 1548 
Q 1447 1775 1695 1969 
Q 1944 2163 2144 2356 
Q 2344 2550 2467 2762 
Q 2591 2975 2591 3244 
Q 2591 3606 2378 3806 
Q 2166 4006 1788 4006 
Q 1428 4006 1195 3811 
Q 963 3616 922 3263 
L 347 3316 
Q 409 3844 795 4156 
Q 1181 4469 1788 4469 
Q 2453 4469 2811 4155 
Q 3169 3841 3169 3263 
Q 3169 3006 3051 2753 
Q 2934 2500 2703 2247 
Q 2472 1994 1819 1463 
Q 1459 1169 1246 933 
Q 1034 697 941 478 
L 3238 478 
L 3238 0 
L 322 0 
z
" transform="scale(0.015625)"/>
       </defs>
       <use xlink:href="#LiberationSans-32"/>
      </g>
     </g>
    </g>
    <g id="xtick_3">
     <g id="line2d_3">
      <g>
       <use xlink:href="#m58404b8188" x="339.069502" y="640.3185" style="stroke: #000000; stroke-width: 0.8"/>
      </g>
     </g>
     <g id="text_3">
      <!-- 4 -->
      <g transform="translate(330.728096 665.559125) scale(0.3 -0.3)">
       <defs>
        <path id="LiberationSans-34" d="M 2753 997 
L 2753 0 
L 2222 0 
L 2222 997 
L 147 997 
L 147 1434 
L 2163 4403 
L 2753 4403 
L 2753 1441 
L 3372 1441 
L 3372 997 
L 2753 997 
z
M 2222 3769 
Q 2216 3750 2134 3603 
Q 2053 3456 2013 3397 
L 884 1734 
L 716 1503 
L 666 1441 
L 2222 1441 
L 2222 3769 
z
" transform="scale(0.015625)"/>
       </defs>
       <use xlink:href="#LiberationSans-34"/>
      </g>
     </g>
    </g>
    <g id="xtick_4">
     <g id="line2d_4">
      <g>
       <use xlink:href="#m58404b8188" x="451.153944" y="640.3185" style="stroke: #000000; stroke-width: 0.8"/>
      </g>
     </g>
     <g id="text_4">
      <!-- 6 -->
      <g transform="translate(442.812537 665.559125) scale(0.3 -0.3)">
       <defs>
        <path id="LiberationSans-36" d="M 3278 1441 
Q 3278 744 2900 340 
Q 2522 -63 1856 -63 
Q 1113 -63 719 490 
Q 325 1044 325 2100 
Q 325 3244 734 3856 
Q 1144 4469 1900 4469 
Q 2897 4469 3156 3572 
L 2619 3475 
Q 2453 4013 1894 4013 
Q 1413 4013 1148 3564 
Q 884 3116 884 2266 
Q 1038 2550 1316 2698 
Q 1594 2847 1953 2847 
Q 2563 2847 2920 2465 
Q 3278 2084 3278 1441 
z
M 2706 1416 
Q 2706 1894 2472 2153 
Q 2238 2413 1819 2413 
Q 1425 2413 1183 2183 
Q 941 1953 941 1550 
Q 941 1041 1192 716 
Q 1444 391 1838 391 
Q 2244 391 2475 664 
Q 2706 938 2706 1416 
z
" transform="scale(0.015625)"/>
       </defs>
       <use xlink:href="#LiberationSans-36"/>
      </g>
     </g>
    </g>
    <g id="xtick_5">
     <g id="line2d_5">
      <g>
       <use xlink:href="#m58404b8188" x="563.238385" y="640.3185" style="stroke: #000000; stroke-width: 0.8"/>
      </g>
     </g>
     <g id="text_5">
      <!-- 8 -->
      <g transform="translate(554.896979 665.559125) scale(0.3 -0.3)">
       <defs>
        <path id="LiberationSans-38" d="M 3281 1228 
Q 3281 619 2893 278 
Q 2506 -63 1781 -63 
Q 1075 -63 676 271 
Q 278 606 278 1222 
Q 278 1653 525 1947 
Q 772 2241 1156 2303 
L 1156 2316 
Q 797 2400 589 2681 
Q 381 2963 381 3341 
Q 381 3844 757 4156 
Q 1134 4469 1769 4469 
Q 2419 4469 2795 4162 
Q 3172 3856 3172 3334 
Q 3172 2956 2962 2675 
Q 2753 2394 2391 2322 
L 2391 2309 
Q 2813 2241 3047 1952 
Q 3281 1663 3281 1228 
z
M 2588 3303 
Q 2588 4050 1769 4050 
Q 1372 4050 1164 3862 
Q 956 3675 956 3303 
Q 956 2925 1170 2726 
Q 1384 2528 1775 2528 
Q 2172 2528 2380 2711 
Q 2588 2894 2588 3303 
z
M 2697 1281 
Q 2697 1691 2453 1898 
Q 2209 2106 1769 2106 
Q 1341 2106 1100 1882 
Q 859 1659 859 1269 
Q 859 359 1788 359 
Q 2247 359 2472 579 
Q 2697 800 2697 1281 
z
" transform="scale(0.015625)"/>
       </defs>
       <use xlink:href="#LiberationSans-38"/>
      </g>
     </g>
    </g>
    <g id="xtick_6">
     <g id="line2d_6">
      <g>
       <use xlink:href="#m58404b8188" x="675.322826" y="640.3185" style="stroke: #000000; stroke-width: 0.8"/>
      </g>
     </g>
     <g id="text_6">
      <!-- 10 -->
      <g transform="translate(658.640014 665.559125) scale(0.3 -0.3)">
       <defs>
        <path id="LiberationSans-31" d="M 488 0 
L 488 478 
L 1609 478 
L 1609 3866 
L 616 3156 
L 616 3688 
L 1656 4403 
L 2175 4403 
L 2175 478 
L 3247 478 
L 3247 0 
L 488 0 
z
" transform="scale(0.015625)"/>
       </defs>
       <use xlink:href="#LiberationSans-31"/>
       <use xlink:href="#LiberationSans-30" x="55.615234"/>
      </g>
     </g>
    </g>
    <g id="xtick_7">
     <g id="line2d_7">
      <defs>
       <path id="m349c7da8bc" d="M 0 0 
L 0 -2 
" style="stroke: #000000; stroke-width: 0.6"/>
      </defs>
      <g>
       <use xlink:href="#m349c7da8bc" x="142.92173" y="640.3185" style="stroke: #000000; stroke-width: 0.6"/>
      </g>
     </g>
    </g>
    <g id="xtick_8">
     <g id="line2d_8">
      <g>
       <use xlink:href="#m349c7da8bc" x="170.94284" y="640.3185" style="stroke: #000000; stroke-width: 0.6"/>
      </g>
     </g>
    </g>
    <g id="xtick_9">
     <g id="line2d_9">
      <g>
       <use xlink:href="#m349c7da8bc" x="198.963951" y="640.3185" style="stroke: #000000; stroke-width: 0.6"/>
      </g>
     </g>
    </g>
    <g id="xtick_10">
     <g id="line2d_10">
      <g>
       <use xlink:href="#m349c7da8bc" x="255.006171" y="640.3185" style="stroke: #000000; stroke-width: 0.6"/>
      </g>
     </g>
    </g>
    <g id="xtick_11">
     <g id="line2d_11">
      <g>
       <use xlink:href="#m349c7da8bc" x="283.027282" y="640.3185" style="stroke: #000000; stroke-width: 0.6"/>
      </g>
     </g>
    </g>
    <g id="xtick_12">
     <g id="line2d_12">
      <g>
       <use xlink:href="#m349c7da8bc" x="311.048392" y="640.3185" style="stroke: #000000; stroke-width: 0.6"/>
      </g>
     </g>
    </g>
    <g id="xtick_13">
     <g id="line2d_13">
      <g>
       <use xlink:href="#m349c7da8bc" x="367.090613" y="640.3185" style="stroke: #000000; stroke-width: 0.6"/>
      </g>
     </g>
    </g>
    <g id="xtick_14">
     <g id="line2d_14">
      <g>
       <use xlink:href="#m349c7da8bc" x="395.111723" y="640.3185" style="stroke: #000000; stroke-width: 0.6"/>
      </g>
     </g>
    </g>
    <g id="xtick_15">
     <g id="line2d_15">
      <g>
       <use xlink:href="#m349c7da8bc" x="423.132833" y="640.3185" style="stroke: #000000; stroke-width: 0.6"/>
      </g>
     </g>
    </g>
    <g id="xtick_16">
     <g id="line2d_16">
      <g>
       <use xlink:href="#m349c7da8bc" x="479.175054" y="640.3185" style="stroke: #000000; stroke-width: 0.6"/>
      </g>
     </g>
    </g>
    <g id="xtick_17">
     <g id="line2d_17">
      <g>
       <use xlink:href="#m349c7da8bc" x="507.196164" y="640.3185" style="stroke: #000000; stroke-width: 0.6"/>
      </g>
     </g>
    </g>
    <g id="xtick_18">
     <g id="line2d_18">
      <g>
       <use xlink:href="#m349c7da8bc" x="535.217275" y="640.3185" style="stroke: #000000; stroke-width: 0.6"/>
      </g>
     </g>
    </g>
    <g id="xtick_19">
     <g id="line2d_19">
      <g>
       <use xlink:href="#m349c7da8bc" x="591.259495" y="640.3185" style="stroke: #000000; stroke-width: 0.6"/>
      </g>
     </g>
    </g>
    <g id="xtick_20">
     <g id="line2d_20">
      <g>
       <use xlink:href="#m349c7da8bc" x="619.280606" y="640.3185" style="stroke: #000000; stroke-width: 0.6"/>
      </g>
     </g>
    </g>
    <g id="xtick_21">
     <g id="line2d_21">
      <g>
       <use xlink:href="#m349c7da8bc" x="647.301716" y="640.3185" style="stroke: #000000; stroke-width: 0.6"/>
      </g>
     </g>
    </g>
    <g id="text_7">
     <!-- Time ps -->
     <g transform="translate(342.363182 697.52475) scale(0.3 -0.3)">
      <defs>
       <path id="LiberationSans-54" d="M 2250 3916 
L 2250 0 
L 1656 0 
L 1656 3916 
L 144 3916 
L 144 4403 
L 3763 4403 
L 3763 3916 
L 2250 3916 
z
" transform="scale(0.015625)"/>
       <path id="LiberationSans-69" d="M 428 4100 
L 428 4638 
L 991 4638 
L 991 4100 
L 428 4100 
z
M 428 0 
L 428 3381 
L 991 3381 
L 991 0 
L 428 0 
z
" transform="scale(0.015625)"/>
       <path id="LiberationSans-6d" d="M 2400 0 
L 2400 2144 
Q 2400 2634 2265 2821 
Q 2131 3009 1781 3009 
Q 1422 3009 1212 2734 
Q 1003 2459 1003 1959 
L 1003 0 
L 444 0 
L 444 2659 
Q 444 3250 425 3381 
L 956 3381 
Q 959 3366 962 3297 
Q 966 3228 970 3139 
Q 975 3050 981 2803 
L 991 2803 
Q 1172 3163 1406 3303 
Q 1641 3444 1978 3444 
Q 2363 3444 2586 3291 
Q 2809 3138 2897 2803 
L 2906 2803 
Q 3081 3144 3329 3294 
Q 3578 3444 3931 3444 
Q 4444 3444 4676 3166 
Q 4909 2888 4909 2253 
L 4909 0 
L 4353 0 
L 4353 2144 
Q 4353 2634 4218 2821 
Q 4084 3009 3734 3009 
Q 3366 3009 3161 2736 
Q 2956 2463 2956 1959 
L 2956 0 
L 2400 0 
z
" transform="scale(0.015625)"/>
       <path id="LiberationSans-65" d="M 863 1572 
Q 863 991 1103 675 
Q 1344 359 1806 359 
Q 2172 359 2392 506 
Q 2613 653 2691 878 
L 3184 738 
Q 2881 -63 1806 -63 
Q 1056 -63 664 384 
Q 272 831 272 1713 
Q 272 2550 664 2997 
Q 1056 3444 1784 3444 
Q 3275 3444 3275 1647 
L 3275 1572 
L 863 1572 
z
M 2694 2003 
Q 2647 2538 2422 2783 
Q 2197 3028 1775 3028 
Q 1366 3028 1127 2754 
Q 888 2481 869 2003 
L 2694 2003 
z
" transform="scale(0.015625)"/>
       <path id="LiberationSans-20" transform="scale(0.015625)"/>
       <path id="LiberationSans-70" d="M 3291 1706 
Q 3291 -63 2047 -63 
Q 1266 -63 997 525 
L 981 525 
Q 994 500 994 -6 
L 994 -1328 
L 431 -1328 
L 431 2691 
Q 431 3213 413 3381 
L 956 3381 
Q 959 3369 965 3292 
Q 972 3216 980 3056 
Q 988 2897 988 2838 
L 1000 2838 
Q 1150 3150 1397 3295 
Q 1644 3441 2047 3441 
Q 2672 3441 2981 3022 
Q 3291 2603 3291 1706 
z
M 2700 1694 
Q 2700 2400 2509 2703 
Q 2319 3006 1903 3006 
Q 1569 3006 1380 2865 
Q 1191 2725 1092 2426 
Q 994 2128 994 1650 
Q 994 984 1206 668 
Q 1419 353 1897 353 
Q 2316 353 2508 661 
Q 2700 969 2700 1694 
z
" transform="scale(0.015625)"/>
       <path id="LiberationSans-73" d="M 2969 934 
Q 2969 456 2608 196 
Q 2247 -63 1597 -63 
Q 966 -63 623 145 
Q 281 353 178 794 
L 675 891 
Q 747 619 972 492 
Q 1197 366 1597 366 
Q 2025 366 2223 497 
Q 2422 628 2422 891 
Q 2422 1091 2284 1216 
Q 2147 1341 1841 1422 
L 1438 1528 
Q 953 1653 748 1773 
Q 544 1894 428 2066 
Q 313 2238 313 2488 
Q 313 2950 642 3192 
Q 972 3434 1603 3434 
Q 2163 3434 2492 3237 
Q 2822 3041 2909 2606 
L 2403 2544 
Q 2356 2769 2151 2889 
Q 1947 3009 1603 3009 
Q 1222 3009 1040 2893 
Q 859 2778 859 2544 
Q 859 2400 934 2306 
Q 1009 2213 1156 2147 
Q 1303 2081 1775 1966 
Q 2222 1853 2419 1758 
Q 2616 1663 2730 1547 
Q 2844 1431 2906 1279 
Q 2969 1128 2969 934 
z
" transform="scale(0.015625)"/>
      </defs>
      <use xlink:href="#LiberationSans-54"/>
      <use xlink:href="#LiberationSans-69" x="57.333984"/>
      <use xlink:href="#LiberationSans-6d" x="79.550781"/>
      <use xlink:href="#LiberationSans-65" x="162.851562"/>
      <use xlink:href="#LiberationSans-20" x="218.466797"/>
      <use xlink:href="#LiberationSans-70" x="246.25"/>
      <use xlink:href="#LiberationSans-73" x="301.865234"/>
     </g>
    </g>
   </g>
   <g id="matplotlib.axis_2">
    <g id="ytick_1">
     <g id="line2d_22">
      <defs>
       <path id="m6ff1d2ef2f" d="M 0 0 
L 3.5 0 
" style="stroke: #000000; stroke-width: 0.8"/>
      </defs>
      <g>
       <use xlink:href="#m6ff1d2ef2f" x="87" y="628.215516" style="stroke: #000000; stroke-width: 0.8"/>
      </g>
     </g>
     <g id="text_8">
      <!-- $\mathdefault{0.0}$ -->
      <g transform="translate(41.5 639.085829) scale(0.3 -0.3)">
       <defs>
        <path id="LiberationSans-2e" d="M 584 0 
L 584 684 
L 1194 684 
L 1194 0 
L 584 0 
z
" transform="scale(0.015625)"/>
       </defs>
       <use xlink:href="#LiberationSans-30" transform="translate(0 0.171875)"/>
       <use xlink:href="#LiberationSans-2e" transform="translate(55.615234 0.171875)"/>
       <use xlink:href="#LiberationSans-30" transform="translate(83.398438 0.171875)"/>
      </g>
     </g>
    </g>
    <g id="ytick_2">
     <g id="line2d_23">
      <g>
       <use xlink:href="#m6ff1d2ef2f" x="87" y="511.05773" style="stroke: #000000; stroke-width: 0.8"/>
      </g>
     </g>
     <g id="text_9">
      <!-- $\mathdefault{0.5}$ -->
      <g transform="translate(41.5 521.928043) scale(0.3 -0.3)">
       <defs>
        <path id="LiberationSans-35" d="M 3291 1434 
Q 3291 738 2877 337 
Q 2463 -63 1728 -63 
Q 1113 -63 734 206 
Q 356 475 256 984 
L 825 1050 
Q 1003 397 1741 397 
Q 2194 397 2450 670 
Q 2706 944 2706 1422 
Q 2706 1838 2448 2094 
Q 2191 2350 1753 2350 
Q 1525 2350 1328 2278 
Q 1131 2206 934 2034 
L 384 2034 
L 531 4403 
L 3034 4403 
L 3034 3925 
L 1044 3925 
L 959 2528 
Q 1325 2809 1869 2809 
Q 2519 2809 2905 2428 
Q 3291 2047 3291 1434 
z
" transform="scale(0.015625)"/>
       </defs>
       <use xlink:href="#LiberationSans-30" transform="translate(0 0.171875)"/>
       <use xlink:href="#LiberationSans-2e" transform="translate(55.615234 0.171875)"/>
       <use xlink:href="#LiberationSans-35" transform="translate(83.398438 0.171875)"/>
      </g>
     </g>
    </g>
    <g id="ytick_3">
     <g id="line2d_24">
      <g>
       <use xlink:href="#m6ff1d2ef2f" x="87" y="393.899944" style="stroke: #000000; stroke-width: 0.8"/>
      </g>
     </g>
     <g id="text_10">
      <!-- $\mathdefault{1.0}$ -->
      <g transform="translate(41.5 404.770257) scale(0.3 -0.3)">
       <use xlink:href="#LiberationSans-31" transform="translate(0 0.171875)"/>
       <use xlink:href="#LiberationSans-2e" transform="translate(55.615234 0.171875)"/>
       <use xlink:href="#LiberationSans-30" transform="translate(83.398438 0.171875)"/>
      </g>
     </g>
    </g>
    <g id="ytick_4">
     <g id="line2d_25">
      <g>
       <use xlink:href="#m6ff1d2ef2f" x="87" y="276.742158" style="stroke: #000000; stroke-width: 0.8"/>
      </g>
     </g>
     <g id="text_11">
      <!-- $\mathdefault{1.5}$ -->
      <g transform="translate(41.5 287.612471) scale(0.3 -0.3)">
       <use xlink:href="#LiberationSans-31" transform="translate(0 0.203125)"/>
       <use xlink:href="#LiberationSans-2e" transform="translate(55.615234 0.203125)"/>
       <use xlink:href="#LiberationSans-35" transform="translate(83.398438 0.203125)"/>
      </g>
     </g>
    </g>
    <g id="ytick_5">
     <g id="line2d_26">
      <g>
       <use xlink:href="#m6ff1d2ef2f" x="87" y="159.584372" style="stroke: #000000; stroke-width: 0.8"/>
      </g>
     </g>
     <g id="text_12">
      <!-- $\mathdefault{2.0}$ -->
      <g transform="translate(41.5 170.454685) scale(0.3 -0.3)">
       <use xlink:href="#LiberationSans-32" transform="translate(0 0.171875)"/>
       <use xlink:href="#LiberationSans-2e" transform="translate(55.615234 0.171875)"/>
       <use xlink:href="#LiberationSans-30" transform="translate(83.398438 0.171875)"/>
      </g>
     </g>
    </g>
    <g id="ytick_6">
     <g id="line2d_27">
      <g>
       <use xlink:href="#m6ff1d2ef2f" x="87" y="42.426586" style="stroke: #000000; stroke-width: 0.8"/>
      </g>
     </g>
     <g id="text_13">
      <!-- $\mathdefault{2.5}$ -->
      <g transform="translate(41.5 53.296899) scale(0.3 -0.3)">
       <use xlink:href="#LiberationSans-32" transform="translate(0 0.171875)"/>
       <use xlink:href="#LiberationSans-2e" transform="translate(55.615234 0.171875)"/>
       <use xlink:href="#LiberationSans-35" transform="translate(83.398438 0.171875)"/>
      </g>
     </g>
    </g>
    <g id="ytick_7">
     <g id="line2d_28">
      <defs>
       <path id="m2f8a328e38" d="M 0 0 
L 2 0 
" style="stroke: #000000; stroke-width: 0.6"/>
      </defs>
      <g>
       <use xlink:href="#m2f8a328e38" x="87" y="604.783959" style="stroke: #000000; stroke-width: 0.6"/>
      </g>
     </g>
    </g>
    <g id="ytick_8">
     <g id="line2d_29">
      <g>
       <use xlink:href="#m2f8a328e38" x="87" y="581.352402" style="stroke: #000000; stroke-width: 0.6"/>
      </g>
     </g>
    </g>
    <g id="ytick_9">
     <g id="line2d_30">
      <g>
       <use xlink:href="#m2f8a328e38" x="87" y="557.920845" style="stroke: #000000; stroke-width: 0.6"/>
      </g>
     </g>
    </g>
    <g id="ytick_10">
     <g id="line2d_31">
      <g>
       <use xlink:href="#m2f8a328e38" x="87" y="534.489287" style="stroke: #000000; stroke-width: 0.6"/>
      </g>
     </g>
    </g>
    <g id="ytick_11">
     <g id="line2d_32">
      <g>
       <use xlink:href="#m2f8a328e38" x="87" y="487.626173" style="stroke: #000000; stroke-width: 0.6"/>
      </g>
     </g>
    </g>
    <g id="ytick_12">
     <g id="line2d_33">
      <g>
       <use xlink:href="#m2f8a328e38" x="87" y="464.194616" style="stroke: #000000; stroke-width: 0.6"/>
      </g>
     </g>
    </g>
    <g id="ytick_13">
     <g id="line2d_34">
      <g>
       <use xlink:href="#m2f8a328e38" x="87" y="440.763059" style="stroke: #000000; stroke-width: 0.6"/>
      </g>
     </g>
    </g>
    <g id="ytick_14">
     <g id="line2d_35">
      <g>
       <use xlink:href="#m2f8a328e38" x="87" y="417.331501" style="stroke: #000000; stroke-width: 0.6"/>
      </g>
     </g>
    </g>
    <g id="ytick_15">
     <g id="line2d_36">
      <g>
       <use xlink:href="#m2f8a328e38" x="87" y="370.468387" style="stroke: #000000; stroke-width: 0.6"/>
      </g>
     </g>
    </g>
    <g id="ytick_16">
     <g id="line2d_37">
      <g>
       <use xlink:href="#m2f8a328e38" x="87" y="347.03683" style="stroke: #000000; stroke-width: 0.6"/>
      </g>
     </g>
    </g>
    <g id="ytick_17">
     <g id="line2d_38">
      <g>
       <use xlink:href="#m2f8a328e38" x="87" y="323.605273" style="stroke: #000000; stroke-width: 0.6"/>
      </g>
     </g>
    </g>
    <g id="ytick_18">
     <g id="line2d_39">
      <g>
       <use xlink:href="#m2f8a328e38" x="87" y="300.173715" style="stroke: #000000; stroke-width: 0.6"/>
      </g>
     </g>
    </g>
    <g id="ytick_19">
     <g id="line2d_40">
      <g>
       <use xlink:href="#m2f8a328e38" x="87" y="253.310601" style="stroke: #000000; stroke-width: 0.6"/>
      </g>
     </g>
    </g>
    <g id="ytick_20">
     <g id="line2d_41">
      <g>
       <use xlink:href="#m2f8a328e38" x="87" y="229.879044" style="stroke: #000000; stroke-width: 0.6"/>
      </g>
     </g>
    </g>
    <g id="ytick_21">
     <g id="line2d_42">
      <g>
       <use xlink:href="#m2f8a328e38" x="87" y="206.447487" style="stroke: #000000; stroke-width: 0.6"/>
      </g>
     </g>
    </g>
    <g id="ytick_22">
     <g id="line2d_43">
      <g>
       <use xlink:href="#m2f8a328e38" x="87" y="183.015929" style="stroke: #000000; stroke-width: 0.6"/>
      </g>
     </g>
    </g>
    <g id="ytick_23">
     <g id="line2d_44">
      <g>
       <use xlink:href="#m2f8a328e38" x="87" y="136.152815" style="stroke: #000000; stroke-width: 0.6"/>
      </g>
     </g>
    </g>
    <g id="ytick_24">
     <g id="line2d_45">
      <g>
       <use xlink:href="#m2f8a328e38" x="87" y="112.721258" style="stroke: #000000; stroke-width: 0.6"/>
      </g>
     </g>
    </g>
    <g id="ytick_25">
     <g id="line2d_46">
      <g>
       <use xlink:href="#m2f8a328e38" x="87" y="89.289701" style="stroke: #000000; stroke-width: 0.6"/>
      </g>
     </g>
    </g>
    <g id="ytick_26">
     <g id="line2d_47">
      <g>
       <use xlink:href="#m2f8a328e38" x="87" y="65.858143" style="stroke: #000000; stroke-width: 0.6"/>
      </g>
     </g>
    </g>
    <g id="text_14">
     <!-- ITC $\mathrm{W} / (\mathrm{K} \cdot \mathrm{m}^2)$ -->
     <g transform="translate(31.275 433.803) rotate(-90) scale(0.3 -0.3)">
      <defs>
       <path id="LiberationSans-49" d="M 591 0 
L 591 4403 
L 1188 4403 
L 1188 0 
L 591 0 
z
" transform="scale(0.015625)"/>
       <path id="LiberationSans-43" d="M 2475 3981 
Q 1744 3981 1337 3511 
Q 931 3041 931 2222 
Q 931 1413 1354 920 
Q 1778 428 2500 428 
Q 3425 428 3891 1344 
L 4378 1100 
Q 4106 531 3614 234 
Q 3122 -63 2472 -63 
Q 1806 -63 1320 214 
Q 834 491 579 1005 
Q 325 1519 325 2222 
Q 325 3275 894 3872 
Q 1463 4469 2469 4469 
Q 3172 4469 3644 4194 
Q 4116 3919 4338 3378 
L 3772 3191 
Q 3619 3575 3280 3778 
Q 2941 3981 2475 3981 
z
" transform="scale(0.015625)"/>
       <path id="STIXGeneral-Regular-57" d="M 5965 4237 
L 5965 4115 
Q 5709 4064 5616 3990 
Q 5523 3917 5434 3667 
Q 4704 1709 4128 -70 
L 4032 -70 
Q 3642 1011 3008 2637 
L 2022 -70 
L 1926 -70 
Q 1709 576 1277 1753 
Q 845 2931 698 3347 
Q 538 3808 406 3958 
Q 275 4109 32 4115 
L 32 4237 
L 1594 4237 
L 1594 4115 
Q 1357 4109 1270 4064 
Q 1184 4019 1184 3917 
Q 1184 3808 1254 3616 
L 2176 1210 
L 2842 3021 
L 2662 3501 
Q 2509 3917 2400 4013 
Q 2291 4109 2010 4115 
L 2010 4237 
L 3706 4237 
L 3706 4115 
Q 3213 4102 3213 3891 
Q 3213 3808 3322 3520 
L 4237 1190 
L 5043 3360 
Q 5152 3667 5152 3853 
Q 5152 4109 4704 4115 
L 4704 4237 
L 5965 4237 
z
" transform="scale(0.015625)"/>
       <path id="STIXGeneral-Regular-2f" d="M 1837 4326 
L 378 -90 
L -58 -90 
L 1408 4326 
L 1837 4326 
z
" transform="scale(0.015625)"/>
       <path id="STIXGeneral-Regular-28" d="M 1946 -1030 
L 1869 -1133 
Q 1126 -710 716 32 
Q 307 774 307 1613 
Q 307 3386 1888 4326 
L 1946 4224 
Q 1293 3667 1075 3126 
Q 858 2586 858 1632 
Q 858 685 1082 96 
Q 1306 -493 1946 -1030 
z
" transform="scale(0.015625)"/>
       <path id="STIXGeneral-Regular-4b" d="M 4627 0 
L 2688 0 
L 2688 122 
L 2861 128 
Q 3130 134 3130 282 
Q 3130 397 2922 643 
Q 2714 890 2253 1370 
L 1613 2029 
L 1446 1894 
L 1446 710 
Q 1446 352 1548 253 
Q 1651 154 2016 122 
L 2016 0 
L 211 0 
L 211 122 
Q 589 141 691 262 
Q 794 384 794 800 
L 794 3514 
Q 794 3872 691 3981 
Q 589 4090 218 4115 
L 218 4237 
L 2022 4237 
L 2022 4115 
Q 1632 4090 1539 3987 
Q 1446 3885 1446 3507 
L 1446 2227 
L 2586 3277 
Q 2861 3533 2973 3667 
Q 3085 3802 3085 3910 
Q 3085 4013 3030 4057 
Q 2976 4102 2822 4109 
L 2662 4115 
L 2662 4237 
L 4320 4237 
L 4320 4115 
Q 3994 4090 3824 4003 
Q 3654 3917 3322 3597 
L 2131 2458 
L 3629 819 
Q 4026 384 4214 253 
Q 4403 122 4627 122 
L 4627 0 
z
" transform="scale(0.015625)"/>
       <path id="STIXGeneral-Regular-22c5" d="M 1187 1888 
Q 1299 1773 1299 1619 
Q 1299 1466 1187 1350 
Q 1075 1235 921 1235 
Q 768 1235 649 1353 
Q 531 1472 531 1619 
Q 531 1766 649 1884 
Q 768 2003 921 2003 
Q 1075 2003 1187 1888 
z
" transform="scale(0.015625)"/>
       <path id="STIXGeneral-Regular-6d" d="M 4960 0 
L 3565 0 
L 3565 96 
Q 3834 122 3907 208 
Q 3981 294 3981 576 
L 3981 1894 
Q 3981 2278 3869 2444 
Q 3757 2611 3488 2611 
Q 3264 2611 3107 2521 
Q 2950 2432 2803 2221 
L 2803 608 
Q 2803 301 2896 201 
Q 2989 102 3264 96 
L 3264 0 
L 1830 0 
L 1830 96 
Q 2112 115 2189 188 
Q 2266 262 2266 550 
L 2266 1901 
Q 2266 2611 1850 2611 
Q 1670 2611 1468 2531 
Q 1267 2451 1171 2336 
Q 1088 2240 1088 2227 
L 1088 448 
Q 1088 243 1177 176 
Q 1267 109 1523 96 
L 1523 0 
L 102 0 
L 102 96 
Q 371 102 460 195 
Q 550 288 550 563 
L 550 2150 
Q 550 2387 499 2480 
Q 448 2573 326 2573 
Q 230 2573 122 2547 
L 122 2656 
Q 557 2778 1011 2944 
L 1062 2925 
L 1062 2451 
L 1075 2451 
Q 1363 2752 1584 2848 
Q 1805 2944 2054 2944 
Q 2560 2944 2733 2406 
Q 3232 2944 3776 2944 
Q 4518 2944 4518 1792 
L 4518 493 
Q 4518 282 4582 202 
Q 4646 122 4794 109 
L 4960 96 
L 4960 0 
z
" transform="scale(0.015625)"/>
       <path id="STIXGeneral-Regular-32" d="M 3034 877 
L 2688 0 
L 186 0 
L 186 77 
L 1325 1286 
Q 1773 1754 1965 2144 
Q 2157 2534 2157 2950 
Q 2157 3379 1920 3616 
Q 1683 3853 1267 3853 
Q 922 3853 720 3673 
Q 518 3494 326 3021 
L 192 3053 
Q 301 3648 630 3987 
Q 960 4326 1523 4326 
Q 2054 4326 2380 4006 
Q 2707 3686 2707 3200 
Q 2707 2477 1888 1613 
L 832 486 
L 2330 486 
Q 2541 486 2665 569 
Q 2790 653 2944 915 
L 3034 877 
z
" transform="scale(0.015625)"/>
       <path id="STIXGeneral-Regular-29" d="M 186 4224 
L 262 4326 
Q 992 3891 1408 3148 
Q 1824 2406 1824 1581 
Q 1824 -166 243 -1133 
L 186 -1030 
Q 845 -486 1059 54 
Q 1274 595 1274 1562 
Q 1274 2534 1059 3120 
Q 845 3706 186 4224 
z
" transform="scale(0.015625)"/>
      </defs>
      <use xlink:href="#LiberationSans-49" transform="translate(0 0.409375)"/>
      <use xlink:href="#LiberationSans-54" transform="translate(27.783203 0.409375)"/>
      <use xlink:href="#LiberationSans-43" transform="translate(88.867188 0.409375)"/>
      <use xlink:href="#LiberationSans-20" transform="translate(161.083984 0.409375)"/>
      <use xlink:href="#STIXGeneral-Regular-57" transform="translate(188.867188 0.409375)"/>
      <use xlink:href="#STIXGeneral-Regular-2f" transform="translate(283.267181 0.409375)"/>
      <use xlink:href="#STIXGeneral-Regular-28" transform="translate(311.067169 0.409375)"/>
      <use xlink:href="#STIXGeneral-Regular-4b" transform="translate(344.367157 0.409375)"/>
      <use xlink:href="#STIXGeneral-Regular-22c5" transform="translate(431.007135 0.409375)"/>
      <use xlink:href="#STIXGeneral-Regular-6d" transform="translate(474.047122 0.409375)"/>
      <use xlink:href="#STIXGeneral-Regular-32" transform="translate(553.390391 35.684375) scale(0.7)"/>
      <use xlink:href="#STIXGeneral-Regular-29" transform="translate(592.799756 0.409375)"/>
     </g>
    </g>
    <g id="text_15">
     <!-- $\times\mathdefault{10^{7}}\mathdefault{}$ -->
     <g transform="translate(87 36.1875) scale(0.4 -0.4)">
      <defs>
       <path id="STIXGeneral-Regular-d7" d="M 3821 141 
L 3526 -160 
L 2048 1312 
L 570 -160 
L 275 134 
L 1747 1613 
L 275 3091 
L 576 3386 
L 2048 1914 
L 3526 3386 
L 3821 3098 
L 2349 1613 
L 3821 141 
z
" transform="scale(0.015625)"/>
       <path id="LiberationSans-37" d="M 3238 3947 
Q 2563 2916 2284 2331 
Q 2006 1747 1867 1178 
Q 1728 609 1728 0 
L 1141 0 
Q 1141 844 1498 1776 
Q 1856 2709 2694 3925 
L 328 3925 
L 328 4403 
L 3238 4403 
L 3238 3947 
z
" transform="scale(0.015625)"/>
      </defs>
      <use xlink:href="#STIXGeneral-Regular-d7" transform="translate(0 0.8625)"/>
      <use xlink:href="#LiberationSans-31" transform="translate(63.999985 0.8625)"/>
      <use xlink:href="#LiberationSans-30" transform="translate(119.615219 0.8625)"/>
      <use xlink:href="#LiberationSans-37" transform="translate(176.154946 37.842188) scale(0.7)"/>
     </g>
    </g>
   </g>
   <g id="line2d_48">
    <path d="M 115.012704 612.994364 
L 116.245633 306.136999 
L 116.91814 188.407195 
L 117.42252 132.291258 
L 117.814815 108.090869 
L 118.095026 100.600071 
L 118.263153 99.717239 
L 118.375237 100.528901 
L 118.599406 105.26104 
L 118.935659 119.231307 
L 119.440039 152.312168 
L 120.280673 226.333384 
L 122.186108 397.291184 
L 123.138826 461.872811 
L 123.979459 504.737633 
L 124.708008 531.221624 
L 125.324473 545.916958 
L 125.77281 552.245218 
L 126.109064 554.681493 
L 126.333233 555.262697 
L 126.445317 555.255297 
L 126.613444 554.888116 
L 126.893655 553.381771 
L 127.28595 549.590978 
L 127.846373 541.43299 
L 128.743048 524.324222 
L 130.31223 494.286231 
L 131.096821 483.511695 
L 131.713286 477.874341 
L 132.217666 475.14514 
L 132.609961 474.138002 
L 132.83413 473.973435 
L 133.058299 474.089517 
L 133.33851 474.604579 
L 133.730806 475.95518 
L 134.235186 478.624347 
L 134.963735 483.907918 
L 136.196663 494.907331 
L 137.709803 507.890579 
L 138.550437 513.294722 
L 139.222943 516.266702 
L 139.727323 517.619767 
L 140.119619 518.129621 
L 140.39983 518.197719 
L 140.680041 518.017434 
L 141.016294 517.473787 
L 141.464632 516.201761 
L 142.025054 513.772933 
L 142.697561 509.776186 
L 143.762363 501.871701 
L 145.107377 492.198641 
L 145.723841 489.146466 
L 146.228221 487.668993 
L 146.564474 487.244695 
L 146.788643 487.212677 
L 147.068854 487.445635 
L 147.405108 488.099316 
L 147.853445 489.524043 
L 148.525952 492.537526 
L 151.440147 506.768166 
L 152.448907 510.119958 
L 153.345583 512.39274 
L 153.962047 513.44081 
L 154.410385 513.829672 
L 154.746638 513.864828 
L 155.082892 513.649998 
L 155.475187 513.058651 
L 155.923525 511.922061 
L 156.483947 509.851148 
L 157.324581 505.727207 
L 159.061889 496.969421 
L 159.678354 494.966799 
L 160.182734 493.995099 
L 160.575029 493.658546 
L 160.911283 493.643337 
L 161.247536 493.854996 
L 161.695874 494.43871 
L 162.312338 495.675794 
L 163.265056 498.194082 
L 165.955083 505.618797 
L 166.627589 506.795042 
L 167.131969 507.313593 
L 167.580307 507.475225 
L 167.972603 507.37652 
L 168.42094 506.996757 
L 168.981363 506.162761 
L 169.709911 504.621725 
L 172.848276 497.400457 
L 173.576825 496.447498 
L 174.193289 495.989047 
L 174.697669 495.886928 
L 175.146007 496.025052 
L 175.594345 496.392099 
L 176.154767 497.175564 
L 176.827273 498.550853 
L 177.836033 501.216635 
L 179.349173 505.164289 
L 180.077722 506.488777 
L 180.694187 507.209486 
L 181.310651 507.593101 
L 181.927116 507.710166 
L 182.655664 507.609839 
L 183.55234 507.243549 
L 184.392973 506.668145 
L 185.233607 505.81643 
L 186.298409 504.36825 
L 187.699464 502.483336 
L 188.315929 502.000188 
L 188.820309 501.866068 
L 189.268646 501.960981 
L 189.773026 502.296164 
L 190.445533 503.046922 
L 191.678462 504.86185 
L 193.079517 506.790241 
L 194.312446 508.107138 
L 195.433291 509.001529 
L 196.16184 509.335757 
L 196.778304 509.384248 
L 197.338726 509.205668 
L 197.955191 508.767243 
L 198.795824 507.868289 
L 200.365006 506.168816 
L 201.037513 505.768695 
L 201.710019 505.630988 
L 202.494611 505.725441 
L 206.02527 506.464404 
L 209.275719 506.890893 
L 210.004268 506.621707 
L 210.900944 506.030288 
L 213.08659 504.459321 
L 213.927224 504.180691 
L 214.992026 504.083398 
L 217.065588 503.936147 
L 220.14791 503.501802 
L 221.66105 503.619944 
L 222.781894 503.897082 
L 223.622528 504.323985 
L 224.407119 504.972771 
L 225.303794 506.020488 
L 228.610285 510.237054 
L 229.563003 510.892496 
L 230.627805 511.341144 
L 231.636565 511.53779 
L 232.477199 511.487423 
L 233.205747 511.231661 
L 233.990339 510.711626 
L 234.999099 509.741601 
L 236.904534 507.854597 
L 237.745167 507.364682 
L 238.473716 507.182133 
L 239.258307 507.223619 
L 240.042898 507.4878 
L 240.883532 508.006669 
L 241.780207 508.835872 
L 242.788967 510.091897 
L 245.478994 513.662337 
L 246.1515 514.085688 
L 246.711923 514.175708 
L 247.216303 514.042268 
L 247.776725 513.666421 
L 248.449231 512.941921 
L 249.401949 511.552274 
L 252.372187 506.973606 
L 253.21282 506.178118 
L 253.941369 505.788839 
L 254.613876 505.68633 
L 255.286382 505.815926 
L 256.014931 506.185683 
L 256.911607 506.913294 
L 257.920367 508.032583 
L 259.153296 509.752608 
L 261.2829 512.777237 
L 262.011449 513.392338 
L 262.571871 513.593886 
L 263.076251 513.551927 
L 263.636673 513.263433 
L 264.30918 512.631537 
L 265.373982 511.254254 
L 266.775038 509.509869 
L 267.615671 508.823398 
L 268.400262 508.480189 
L 269.184853 508.377026 
L 270.137571 508.484972 
L 271.146331 508.830802 
L 272.043006 509.371276 
L 272.995724 510.214407 
L 275.685751 512.813822 
L 276.358257 513.063128 
L 277.030764 513.068631 
L 277.759313 512.84448 
L 278.880157 512.231989 
L 281.065804 511.027328 
L 282.298733 510.607561 
L 283.307493 510.490496 
L 284.204168 510.607765 
L 285.156886 510.958551 
L 286.78211 511.849682 
L 288.239208 512.535143 
L 289.30401 512.798708 
L 290.31277 512.829621 
L 291.265488 512.636616 
L 292.162164 512.217784 
L 293.114881 511.50145 
L 294.571979 510.055289 
L 295.748866 509.008293 
L 296.533457 508.581164 
L 297.262006 508.426845 
L 298.046597 508.486908 
L 299.279526 508.840276 
L 303.93103 510.489065 
L 305.94855 511.470853 
L 306.845225 511.633517 
L 307.741901 511.563675 
L 309.030872 511.198478 
L 310.48797 510.833919 
L 311.384645 510.830448 
L 312.281321 511.053508 
L 313.234039 511.526385 
L 314.466967 512.409588 
L 317.04491 514.338193 
L 317.885543 514.637249 
L 318.614092 514.656758 
L 319.342641 514.44411 
L 320.183274 513.951144 
L 321.528287 512.852226 
L 323.377681 511.396213 
L 325.227074 510.275554 
L 327.244594 509.264203 
L 328.141269 509.047543 
L 328.92586 509.07708 
L 329.766494 509.349113 
L 330.831296 509.956175 
L 332.9609 511.21877 
L 334.137787 511.613722 
L 335.4828 511.818326 
L 336.715729 511.794046 
L 337.612405 511.566691 
L 338.453038 511.12085 
L 339.405756 510.333883 
L 342.151824 507.831014 
L 342.880373 507.585477 
L 343.55288 507.59338 
L 344.337471 507.835781 
L 347.419793 509.05589 
L 348.316469 509.023989 
L 349.60544 508.72255 
L 351.286706 508.359404 
L 352.407551 508.362271 
L 353.864649 508.619315 
L 355.938211 508.958457 
L 357.451351 508.946151 
L 360.085335 508.883514 
L 361.822644 509.150108 
L 365.409346 509.931984 
L 366.53019 510.494783 
L 368.155415 511.614306 
L 369.55647 512.484762 
L 370.453146 512.799776 
L 371.237737 512.848367 
L 371.966286 512.680653 
L 372.750877 512.273647 
L 373.703595 511.513433 
L 375.496946 509.708568 
L 376.785917 508.565635 
L 377.682592 508.037833 
L 378.467183 507.825259 
L 379.195732 507.864645 
L 379.924281 508.13456 
L 380.764915 508.696454 
L 382.053886 509.878424 
L 384.015363 511.649056 
L 385.024123 512.27278 
L 385.864757 512.549279 
L 386.593305 512.560085 
L 387.265812 512.353209 
L 387.994361 511.89072 
L 388.891037 511.039774 
L 391.300852 508.588449 
L 392.029401 508.224108 
L 392.701908 508.128601 
L 393.430456 508.265674 
L 394.327132 508.690723 
L 396.120483 509.876415 
L 397.913834 510.937403 
L 399.258847 511.486322 
L 400.491776 511.748675 
L 401.780747 511.790034 
L 404.022436 511.583091 
L 405.703703 511.535711 
L 407.048716 511.725185 
L 409.626658 512.160803 
L 410.579376 512.02747 
L 411.588136 511.647939 
L 414.22212 510.514778 
L 415.006711 510.48706 
L 415.791302 510.681284 
L 416.687978 511.145088 
L 418.032991 512.134432 
L 419.714258 513.325932 
L 420.610933 513.697769 
L 421.395525 513.782011 
L 422.124073 513.639888 
L 422.964707 513.241106 
L 424.365762 512.27358 
L 425.710776 511.44798 
L 426.719536 511.094951 
L 427.784338 510.964489 
L 429.465604 511.022593 
L 432.660011 511.134026 
L 437.4236 511.064957 
L 440.674048 511.40908 
L 442.411357 511.284299 
L 445.773891 510.983992 
L 447.511199 511.123465 
L 449.472677 511.50352 
L 451.097902 512.040532 
L 453.171464 513.000833 
L 455.132941 513.836425 
L 456.253786 514.088228 
L 457.206504 514.088812 
L 458.159221 513.872267 
L 459.448192 513.324839 
L 461.353628 512.525594 
L 462.698641 512.240742 
L 465.893048 511.676948 
L 467.854525 511.33019 
L 470.824763 510.925433 
L 472.225819 510.393014 
L 474.075212 509.703144 
L 475.083972 509.575227 
L 476.148774 509.673229 
L 477.942125 510.1165 
L 480.688194 510.956523 
L 481.977165 511.638821 
L 484.218854 512.880876 
L 485.059487 513.058868 
L 485.844078 512.998129 
L 486.684712 512.702963 
L 487.805556 512.051795 
L 489.767034 510.89934 
L 490.607667 510.671052 
L 491.392258 510.678107 
L 492.288934 510.921904 
L 495.315214 511.978522 
L 496.380016 511.946301 
L 498.621705 511.793751 
L 499.574422 512.014001 
L 501.03152 512.627852 
L 502.264449 513.054254 
L 503.217167 513.156333 
L 504.506138 513.042328 
L 506.07532 512.951425 
L 507.420333 513.136405 
L 509.045558 513.334729 
L 510.11036 513.221403 
L 513.080598 512.720616 
L 514.033315 512.918859 
L 517.283764 513.84841 
L 518.348566 513.74653 
L 520.926508 513.399479 
L 522.831944 513.547742 
L 523.952788 513.494857 
L 524.961548 513.221502 
L 528.54825 511.996186 
L 529.781179 512.013967 
L 532.751417 512.384737 
L 534.208515 512.745149 
L 535.721655 513.380474 
L 537.346879 514.010468 
L 538.355639 514.149003 
L 539.476484 514.054839 
L 545.136748 513.010204 
L 548.21907 511.778665 
L 549.115745 511.780136 
L 550.404717 512.038195 
L 552.478279 512.438031 
L 555.000179 512.863333 
L 557.690205 513.476588 
L 558.698965 513.414862 
L 559.875852 513.099145 
L 562.34171 512.363161 
L 563.518596 512.297788 
L 564.975694 512.460549 
L 567.441552 512.752306 
L 568.618438 512.642695 
L 569.739283 512.312453 
L 571.308465 511.58601 
L 572.933689 510.900837 
L 573.942449 510.722151 
L 574.839125 510.787719 
L 575.791843 511.08556 
L 577.024771 511.730035 
L 579.434587 513.048564 
L 580.331262 513.268987 
L 581.171896 513.244625 
L 582.012529 512.985081 
L 583.021289 512.416646 
L 585.991527 510.556957 
L 586.944244 510.315838 
L 587.84092 510.320002 
L 588.737596 510.545357 
L 589.746355 511.030539 
L 591.483664 512.170584 
L 592.88472 512.973908 
L 593.89348 513.308375 
L 594.790155 513.385505 
L 595.686831 513.247807 
L 596.695591 512.861225 
L 598.152689 512.02833 
L 600.114166 510.947394 
L 601.347095 510.535536 
L 602.46794 510.388547 
L 603.532742 510.46213 
L 604.597544 510.75638 
L 605.830473 511.347111 
L 609.024879 513.022145 
L 610.089682 513.2427 
L 611.266568 513.246993 
L 612.723666 513.012112 
L 614.34889 512.518464 
L 617.151001 511.591716 
L 618.159761 511.562015 
L 619.280606 511.77152 
L 621.746464 512.312003 
L 622.979392 512.28302 
L 625.557335 512.137373 
L 627.014432 512.366545 
L 628.751741 512.607153 
L 629.704459 512.508493 
L 630.601134 512.198447 
L 631.609894 511.611543 
L 633.291161 510.317229 
L 634.748259 509.307692 
L 635.757019 508.875674 
L 636.709736 508.708611 
L 637.774539 508.760557 
L 638.951425 509.043009 
L 640.296439 509.603035 
L 642.370001 510.76779 
L 643.771056 511.431049 
L 644.835858 511.699222 
L 646.012745 511.750241 
L 652.625727 511.36893 
L 655.035543 511.002024 
L 659.350794 510.896629 
L 660.359554 511.023074 
L 661.256229 511.354103 
L 662.433116 512.054101 
L 664.170425 513.075608 
L 665.123142 513.360235 
L 666.07586 513.405923 
L 667.196704 513.218798 
L 668.485676 512.771925 
L 671.960293 511.389205 
L 672.800927 511.424078 
L 673.753644 511.69639 
L 675.266784 512.287552 
L 675.266784 512.287552 
" clip-path="url(#p88d7d4747c)" style="fill: none; stroke: #ff0000; stroke-width: 1.5; stroke-linecap: square"/>
   </g>
   <g id="line2d_49">
    <path d="M 115.012704 611.26262 
L 116.189591 289.729952 
L 116.862097 161.751389 
L 117.366477 101.211414 
L 117.758773 75.293052 
L 118.038984 67.384913 
L 118.151068 66.511636 
L 118.207111 66.538122 
L 118.319195 67.482943 
L 118.543364 72.717715 
L 118.879617 87.91769 
L 119.383997 123.481192 
L 120.280673 206.996494 
L 121.793813 346.402296 
L 122.74653 413.233016 
L 123.587164 457.45803 
L 124.371755 487.670521 
L 125.044262 505.571691 
L 125.604684 514.881831 
L 125.996979 518.435954 
L 126.27719 519.544488 
L 126.445317 519.666181 
L 126.613444 519.398004 
L 126.837613 518.469587 
L 127.173866 515.960359 
L 127.678246 510.070421 
L 128.406795 498.434574 
L 130.424315 464.579128 
L 131.152864 456.447666 
L 131.713286 452.320169 
L 132.217666 450.080294 
L 132.609961 449.163045 
L 132.946215 448.850653 
L 133.226426 448.855836 
L 133.562679 449.106276 
L 134.067059 449.798818 
L 135.804368 452.863192 
L 136.757086 454.715874 
L 137.429592 456.56595 
L 138.102099 459.15889 
L 138.942732 463.414959 
L 141.520674 477.286768 
L 142.137139 479.221171 
L 142.641519 480.158681 
L 143.033814 480.455705 
L 143.370068 480.411623 
L 143.706321 480.115124 
L 144.154659 479.396257 
L 144.771123 477.953239 
L 145.835925 474.762714 
L 147.349065 470.334248 
L 148.133656 468.623882 
L 148.694079 467.865003 
L 149.142416 467.605333 
L 149.534712 467.63765 
L 149.927008 467.889795 
L 150.431387 468.499085 
L 151.047852 469.644323 
L 151.832443 471.629519 
L 154.186216 477.986481 
L 154.746638 478.734474 
L 155.138934 478.949052 
L 155.53123 478.905208 
L 155.923525 478.594545 
L 156.371863 477.908775 
L 156.932285 476.62021 
L 157.716876 474.19804 
L 159.061889 469.161766 
L 160.238776 465.153313 
L 161.079409 463.048535 
L 161.695874 462.018745 
L 162.256296 461.497155 
L 162.704634 461.362525 
L 163.152972 461.474392 
L 163.657352 461.861015 
L 164.273816 462.662429 
L 165.002365 464.036775 
L 165.89904 466.275818 
L 168.084687 472.000633 
L 168.645109 472.833253 
L 169.093447 473.133499 
L 169.4297 473.120012 
L 169.765954 472.892679 
L 170.214291 472.273768 
L 170.830756 470.9661 
L 173.072445 465.775957 
L 173.744951 464.864421 
L 174.305374 464.432332 
L 174.809753 464.298113 
L 175.370176 464.396288 
L 176.098725 464.79781 
L 178.116245 466.050804 
L 178.900836 466.207007 
L 179.685427 466.126458 
L 180.974398 465.702639 
L 181.927116 465.511779 
L 182.599622 465.600593 
L 183.328171 465.941477 
L 184.168804 466.600851 
L 185.737987 468.195924 
L 186.914873 469.235872 
L 187.811549 469.738067 
L 188.652182 469.942412 
L 189.436773 469.914488 
L 190.221364 469.677609 
L 191.230124 469.120795 
L 194.312446 467.244174 
L 195.489333 466.891692 
L 197.226642 466.637644 
L 199.244162 466.533154 
L 200.140837 466.708457 
L 201.149597 467.140967 
L 203.167117 468.081132 
L 203.951708 468.172083 
L 204.736299 468.036152 
L 205.689017 467.62856 
L 207.594453 466.753822 
L 208.435086 466.648014 
L 209.331761 466.762681 
L 210.452606 467.144279 
L 213.142632 468.172279 
L 214.09535 468.232125 
L 214.992026 468.072102 
L 215.944743 467.659898 
L 217.289757 466.781036 
L 218.354559 466.178918 
L 219.027066 466.041523 
L 219.587488 466.143041 
L 220.14791 466.478088 
L 220.764374 467.141151 
L 221.492923 468.306587 
L 223.902739 472.56217 
L 224.351077 472.847195 
L 224.743372 472.860148 
L 225.135668 472.63296 
L 225.584005 472.075037 
L 226.144428 470.961427 
L 226.929019 468.808695 
L 228.72237 463.646201 
L 229.338834 462.538053 
L 229.843214 462.026253 
L 230.291552 461.873306 
L 230.683848 461.962985 
L 231.132185 462.290596 
L 231.74865 463.041714 
L 234.77493 467.214122 
L 235.727647 467.903454 
L 236.960576 468.485201 
L 239.034138 469.471286 
L 240.323109 470.020576 
L 241.107701 470.111865 
L 241.836249 469.976248 
L 242.676883 469.571261 
L 243.909812 468.673435 
L 246.207543 466.997795 
L 248.505274 465.586216 
L 249.345907 465.338818 
L 250.074456 465.349472 
L 250.859047 465.591907 
L 251.867807 466.163431 
L 254.445749 467.728409 
L 256.911607 468.947418 
L 258.592873 469.858528 
L 259.377465 470.013564 
L 260.049971 469.906825 
L 260.722478 469.555516 
L 261.507069 468.876693 
L 264.197095 466.311788 
L 264.869602 466.060514 
L 265.542109 466.040944 
L 266.270658 466.25547 
L 267.167333 466.780057 
L 269.801318 468.510083 
L 270.529866 468.644312 
L 271.202373 468.546533 
L 271.930922 468.200569 
L 272.88364 467.458181 
L 274.284695 466.372684 
L 274.957202 466.131063 
L 275.517624 466.146806 
L 276.078046 466.380584 
L 276.694511 466.896403 
L 277.42306 467.817944 
L 279.776833 471.063146 
L 280.281213 471.29401 
L 280.729551 471.253912 
L 281.177888 470.961026 
L 281.682268 470.327422 
L 282.298733 469.160954 
L 283.307493 466.67479 
L 284.428337 464.097364 
L 285.100844 463.08302 
L 285.605224 462.675176 
L 286.053562 462.570798 
L 286.501899 462.694321 
L 287.006279 463.072294 
L 287.734828 463.934735 
L 289.472137 466.101221 
L 290.144644 466.540783 
L 290.761108 466.676343 
L 291.377573 466.577517 
L 292.106121 466.214082 
L 293.33905 465.281211 
L 294.459895 464.550017 
L 295.244486 464.313143 
L 295.916992 464.335493 
L 296.589499 464.57415 
L 297.430132 465.126899 
L 299.89599 466.941916 
L 300.624539 467.123167 
L 301.353088 467.06948 
L 302.137679 466.769439 
L 303.090397 466.139424 
L 305.500212 464.410779 
L 306.340845 464.138606 
L 307.181479 464.105805 
L 308.190239 464.313802 
L 309.535252 464.841916 
L 312.281321 466.200672 
L 314.915305 467.718761 
L 315.643854 467.816691 
L 316.316361 467.682069 
L 317.100952 467.268505 
L 319.734936 465.587934 
L 320.463485 465.520596 
L 321.192034 465.685678 
L 322.032667 466.111228 
L 323.041427 466.8856 
L 326.179792 469.540342 
L 326.852298 469.694283 
L 327.41272 469.606496 
L 328.029185 469.272164 
L 328.757734 468.599835 
L 330.663169 466.698906 
L 331.279634 466.468501 
L 331.784014 466.50296 
L 332.344436 466.786805 
L 332.9609 467.373681 
L 333.857576 468.581155 
L 335.090505 470.210801 
L 335.706969 470.672287 
L 336.211349 470.77261 
L 336.659687 470.631702 
L 337.164067 470.208253 
L 337.724489 469.422225 
L 338.453038 467.988797 
L 340.806811 463.018376 
L 341.423276 462.340172 
L 341.983698 462.029833 
L 342.54412 461.97515 
L 343.160584 462.158366 
L 344.05726 462.693791 
L 345.346231 463.431615 
L 346.186864 463.648059 
L 347.027498 463.630516 
L 347.980215 463.377623 
L 350.558158 462.499198 
L 351.230664 462.622032 
L 351.847129 462.96457 
L 352.575678 463.656975 
L 353.528395 464.922321 
L 354.985493 466.865668 
L 355.658 467.400994 
L 356.218422 467.583341 
L 356.778844 467.527643 
L 357.395309 467.224626 
L 358.235942 466.52237 
L 360.477631 464.497223 
L 361.318264 464.087836 
L 362.046813 463.963712 
L 362.775362 464.068824 
L 363.503911 464.398526 
L 364.400586 465.075199 
L 366.081853 466.735252 
L 367.202697 467.656285 
L 368.267499 468.229456 
L 369.276259 468.529544 
L 370.172935 468.566232 
L 371.013568 468.366403 
L 372.022328 467.871647 
L 374.712355 466.400185 
L 375.552988 466.270359 
L 376.449664 466.36258 
L 378.018846 466.797539 
L 382.278054 468.033857 
L 383.118688 467.95118 
L 383.959321 467.645033 
L 385.136208 466.935533 
L 386.369137 466.273193 
L 387.097685 466.134633 
L 387.71415 466.240344 
L 388.330614 466.576605 
L 389.003121 467.201925 
L 389.955839 468.427278 
L 391.300852 470.126362 
L 391.917316 470.555965 
L 392.421696 470.634055 
L 392.870034 470.471447 
L 393.374414 470.011801 
L 393.934836 469.169156 
L 394.719427 467.518712 
L 396.512779 463.566543 
L 397.129243 462.77437 
L 397.689665 462.402807 
L 398.194045 462.327782 
L 398.754467 462.486363 
L 399.426974 462.928165 
L 402.341169 465.144683 
L 403.349929 465.468037 
L 404.246605 465.539313 
L 405.199323 465.391397 
L 408.729983 464.593005 
L 409.458532 464.780435 
L 410.243123 465.233368 
L 411.19584 466.066952 
L 413.269403 467.978159 
L 413.941909 468.285069 
L 414.502331 468.310353 
L 415.062754 468.099825 
L 415.679218 467.611551 
L 416.519851 466.617002 
L 418.817582 463.721403 
L 419.602173 463.160333 
L 420.330722 462.913746 
L 421.003229 462.922527 
L 421.731778 463.170604 
L 422.572411 463.709178 
L 423.693256 464.717181 
L 426.047029 466.950565 
L 426.83162 467.334238 
L 427.560169 467.448863 
L 428.288718 467.340838 
L 429.241435 466.949341 
L 432.660011 465.294347 
L 433.612729 465.178114 
L 434.509404 465.295213 
L 435.350037 465.629727 
L 436.470882 466.337735 
L 438.040064 467.30309 
L 438.880697 467.558866 
L 439.665288 467.568035 
L 440.561964 467.333775 
L 442.299273 466.802713 
L 442.97178 466.861426 
L 443.644286 467.147944 
L 444.372835 467.710675 
L 445.269511 468.716023 
L 447.174946 470.966575 
L 447.735368 471.228131 
L 448.183706 471.186684 
L 448.632044 470.892002 
L 449.136424 470.242612 
L 449.696846 469.134821 
L 450.481437 467.019537 
L 452.498957 461.227366 
L 453.059379 460.342357 
L 453.507717 459.9951 
L 453.900013 459.960344 
L 454.292308 460.163268 
L 454.740646 460.659651 
L 455.35711 461.713119 
L 457.822968 466.401183 
L 458.38339 466.84372 
L 458.88777 466.969538 
L 459.39215 466.868954 
L 460.008615 466.508803 
L 462.306346 464.893079 
L 462.866768 464.891357 
L 463.42719 465.10893 
L 464.155739 465.658023 
L 466.901808 468.042785 
L 467.574314 468.213861 
L 468.302863 468.171411 
L 469.311623 467.856857 
L 470.936848 467.083066 
L 474.075212 465.513707 
L 474.971888 465.378107 
L 475.924605 465.475731 
L 478.670674 465.936886 
L 479.847561 465.704031 
L 481.248616 465.474525 
L 482.313418 465.540099 
L 485.003445 465.84949 
L 486.068247 465.617243 
L 487.91764 465.158227 
L 488.814316 465.206479 
L 490.103287 465.550955 
L 493.746031 466.819074 
L 496.380016 467.883615 
L 497.276691 467.915826 
L 500.078802 467.78942 
L 500.751309 468.128225 
L 501.479858 468.748932 
L 503.721547 470.873948 
L 504.225927 470.94544 
L 504.674264 470.787075 
L 505.178644 470.344572 
L 505.739067 469.532104 
L 506.523658 467.937347 
L 508.317009 464.118008 
L 508.933473 463.413187 
L 509.437853 463.165154 
L 509.886191 463.182091 
L 510.390571 463.428672 
L 511.063078 464.04196 
L 513.360809 466.413469 
L 513.977273 466.637203 
L 514.593738 466.622701 
L 515.266244 466.369803 
L 516.106878 465.785984 
L 517.563975 464.415907 
L 518.740862 463.443236 
L 519.525453 463.078422 
L 520.19796 462.999223 
L 520.870466 463.137403 
L 521.655057 463.542473 
L 522.71986 464.383135 
L 525.634055 466.822717 
L 526.530731 467.254836 
L 527.315322 467.403722 
L 528.155955 467.324805 
L 529.220757 466.970447 
L 531.630573 466.077835 
L 533.031628 465.85995 
L 536.786457 465.61251 
L 537.683132 465.879623 
L 539.084188 466.574826 
L 540.261075 467.063239 
L 541.045666 467.152912 
L 541.830257 467.018376 
L 543.343397 466.454134 
L 544.240072 466.255884 
L 544.968621 466.306369 
L 545.753212 466.582536 
L 546.761972 467.18914 
L 548.779492 468.455649 
L 549.564083 468.653095 
L 550.292632 468.597981 
L 551.021181 468.308325 
L 551.805772 467.732404 
L 552.814532 466.672155 
L 554.383714 465.02768 
L 555.056221 464.634212 
L 555.616643 464.545343 
L 556.121023 464.679078 
L 556.681445 465.086865 
L 557.29791 465.848877 
L 558.138543 467.306317 
L 559.651683 469.975982 
L 560.212105 470.540393 
L 560.660443 470.710026 
L 561.052738 470.625565 
L 561.445034 470.309045 
L 561.949414 469.569188 
L 562.565878 468.229828 
L 565.087778 462.199732 
L 565.648201 461.65389 
L 566.096538 461.493171 
L 566.544876 461.550414 
L 567.105298 461.876975 
L 567.889889 462.646757 
L 569.627198 464.426775 
L 570.411789 464.880049 
L 571.19638 465.071867 
L 572.093056 465.04136 
L 574.670998 464.76673 
L 575.399547 465.017609 
L 576.24018 465.560015 
L 577.641236 466.802363 
L 578.706038 467.622192 
L 579.434587 467.904222 
L 580.051051 467.901965 
L 580.667516 467.677439 
L 581.452107 467.132333 
L 582.628993 465.996215 
L 584.086091 464.646643 
L 584.870682 464.204857 
L 585.543189 464.068523 
L 586.215696 464.177719 
L 587.000287 464.566268 
L 588.121131 465.411965 
L 589.690313 466.565017 
L 590.474904 466.878307 
L 591.203453 466.944329 
L 592.044087 466.791064 
L 593.220973 466.327976 
L 594.678071 465.512114 
L 596.91976 463.937788 
L 598.320815 463.100049 
L 599.273533 462.785159 
L 600.114166 462.741791 
L 601.066884 462.929411 
L 603.196488 463.665936 
L 605.214008 464.278179 
L 606.727148 464.514724 
L 607.791951 464.462059 
L 608.800711 464.183962 
L 610.762188 463.547777 
L 611.434695 463.595628 
L 612.051159 463.860989 
L 612.667624 464.373833 
L 613.396173 465.293621 
L 614.685144 467.396849 
L 615.581819 468.630205 
L 616.142241 469.060724 
L 616.590579 469.148351 
L 616.982875 469.019014 
L 617.431213 468.620806 
L 617.935593 467.858458 
L 618.608099 466.392437 
L 620.009155 462.571001 
L 620.849788 460.699524 
L 621.466252 459.821924 
L 621.970632 459.458607 
L 622.41897 459.392952 
L 622.867308 459.546459 
L 623.42773 459.992824 
L 624.268363 460.997157 
L 625.837546 462.887275 
L 626.678179 463.529208 
L 627.518812 463.888585 
L 628.583614 464.080236 
L 629.928628 464.33589 
L 630.713219 464.718266 
L 631.665937 465.451077 
L 634.131794 467.506607 
L 634.860343 467.762796 
L 635.53285 467.753578 
L 636.205356 467.50837 
L 636.989948 466.95466 
L 637.942665 465.981843 
L 639.343721 464.186341 
L 640.968945 462.159637 
L 641.753536 461.510289 
L 642.426043 461.229214 
L 643.042507 461.207192 
L 643.715014 461.416024 
L 644.555647 461.927871 
L 647.245674 463.758433 
L 649.935701 465.099463 
L 652.793854 466.937186 
L 653.46636 466.984209 
L 654.138867 466.783859 
L 654.923458 466.278798 
L 657.893696 464.041 
L 658.734329 463.804029 
L 659.574962 463.799905 
L 660.415596 464.018656 
L 661.480398 464.543059 
L 663.666045 465.661496 
L 664.450636 465.767819 
L 665.235227 465.631117 
L 667.532958 465.038928 
L 668.149422 465.206245 
L 668.765887 465.615062 
L 669.494436 466.40398 
L 671.680082 469.035781 
L 672.12842 469.16228 
L 672.520715 469.0672 
L 672.969053 468.714062 
L 673.473433 468.004771 
L 674.089898 466.734068 
L 675.098658 464.034255 
L 675.266784 463.557652 
L 675.266784 463.557652 
" clip-path="url(#p88d7d4747c)" style="fill: none; stroke: #0000ff; stroke-width: 1.5; stroke-linecap: square"/>
   </g>
   <g id="patch_3">
    <path d="M 87 640.3185 
L 87 39.1875 
" style="fill: none; stroke: #000000; stroke-width: 0.8; stroke-linejoin: miter; stroke-linecap: square"/>
   </g>
   <g id="patch_4">
    <path d="M 703.279488 640.3185 
L 703.279488 39.1875 
" style="fill: none; stroke: #000000; stroke-width: 0.8; stroke-linejoin: miter; stroke-linecap: square"/>
   </g>
   <g id="patch_5">
    <path d="M 87 640.3185 
L 703.279488 640.3185 
" style="fill: none; stroke: #000000; stroke-width: 0.8; stroke-linejoin: miter; stroke-linecap: square"/>
   </g>
   <g id="patch_6">
    <path d="M 87 39.1875 
L 703.279488 39.1875 
" style="fill: none; stroke: #000000; stroke-width: 0.8; stroke-linejoin: miter; stroke-linecap: square"/>
   </g>
   <g id="legend_1">
    <g id="patch_7">
     <path d="M 506.268551 149.11875 
L 682.279488 149.11875 
Q 688.279488 149.11875 688.279488 143.11875 
L 688.279488 60.1875 
Q 688.279488 54.1875 682.279488 54.1875 
L 506.268551 54.1875 
Q 500.268551 54.1875 500.268551 60.1875 
L 500.268551 143.11875 
Q 500.268551 149.11875 506.268551 149.11875 
z
" style="fill: #ffffff; opacity: 0.8; stroke: #cccccc; stroke-linejoin: miter"/>
    </g>
    <g id="line2d_50">
     <path d="M 512.268551 77.428125 
L 542.268551 77.428125 
L 572.268551 77.428125 
" style="fill: none; stroke: #ff0000; stroke-width: 1.5; stroke-linecap: square"/>
    </g>
    <g id="text_16">
     <!-- MD -->
     <g transform="translate(596.268551 87.928125) scale(0.3 -0.3)">
      <defs>
       <path id="LiberationSans-4d" d="M 4269 0 
L 4269 2938 
Q 4269 3425 4297 3875 
Q 4144 3316 4022 3000 
L 2884 0 
L 2466 0 
L 1313 3000 
L 1138 3531 
L 1034 3875 
L 1044 3528 
L 1056 2938 
L 1056 0 
L 525 0 
L 525 4403 
L 1309 4403 
L 2481 1350 
Q 2544 1166 2601 955 
Q 2659 744 2678 650 
Q 2703 775 2783 1029 
Q 2863 1284 2891 1350 
L 4041 4403 
L 4806 4403 
L 4806 0 
L 4269 0 
z
" transform="scale(0.015625)"/>
       <path id="LiberationSans-44" d="M 4316 2247 
Q 4316 1566 4050 1055 
Q 3784 544 3296 272 
Q 2809 0 2172 0 
L 525 0 
L 525 4403 
L 1981 4403 
Q 3100 4403 3708 3842 
Q 4316 3281 4316 2247 
z
M 3716 2247 
Q 3716 3066 3267 3495 
Q 2819 3925 1969 3925 
L 1122 3925 
L 1122 478 
L 2103 478 
Q 2588 478 2955 690 
Q 3322 903 3519 1303 
Q 3716 1703 3716 2247 
z
" transform="scale(0.015625)"/>
      </defs>
      <use xlink:href="#LiberationSans-4d"/>
      <use xlink:href="#LiberationSans-44" x="83.300781"/>
     </g>
    </g>
    <g id="line2d_51">
     <path d="M 512.268551 120.39375 
L 542.268551 120.39375 
L 572.268551 120.39375 
" style="fill: none; stroke: #0000ff; stroke-width: 1.5; stroke-linecap: square"/>
    </g>
    <g id="text_17">
     <!-- GANs -->
     <g transform="translate(596.268551 130.89375) scale(0.3 -0.3)">
      <defs>
       <path id="LiberationSans-47" d="M 322 2222 
Q 322 3294 897 3881 
Q 1472 4469 2513 4469 
Q 3244 4469 3700 4222 
Q 4156 3975 4403 3431 
L 3834 3263 
Q 3647 3638 3317 3809 
Q 2988 3981 2497 3981 
Q 1734 3981 1331 3520 
Q 928 3059 928 2222 
Q 928 1388 1356 905 
Q 1784 422 2541 422 
Q 2972 422 3345 553 
Q 3719 684 3950 909 
L 3950 1703 
L 2634 1703 
L 2634 2203 
L 4500 2203 
L 4500 684 
Q 4150 328 3642 132 
Q 3134 -63 2541 -63 
Q 1850 -63 1350 212 
Q 850 488 586 1005 
Q 322 1522 322 2222 
z
" transform="scale(0.015625)"/>
       <path id="LiberationSans-41" d="M 3647 0 
L 3144 1288 
L 1138 1288 
L 631 0 
L 13 0 
L 1809 4403 
L 2488 4403 
L 4256 0 
L 3647 0 
z
M 2141 3953 
L 2113 3866 
Q 2034 3606 1881 3200 
L 1319 1753 
L 2966 1753 
L 2400 3206 
Q 2313 3422 2225 3694 
L 2141 3953 
z
" transform="scale(0.015625)"/>
       <path id="LiberationSans-4e" d="M 3381 0 
L 1025 3750 
L 1041 3447 
L 1056 2925 
L 1056 0 
L 525 0 
L 525 4403 
L 1219 4403 
L 3600 628 
Q 3563 1241 3563 1516 
L 3563 4403 
L 4100 4403 
L 4100 0 
L 3381 0 
z
" transform="scale(0.015625)"/>
      </defs>
      <use xlink:href="#LiberationSans-47"/>
      <use xlink:href="#LiberationSans-41" x="77.783203"/>
      <use xlink:href="#LiberationSans-4e" x="144.482422"/>
      <use xlink:href="#LiberationSans-73" x="216.699219"/>
     </g>
    </g>
   </g>
  </g>
 </g>
 <defs>
  <clipPath id="p88d7d4747c">
   <rect x="87" y="39.1875" width="616.279488" height="601.131"/>
  </clipPath>
 </defs>
</svg>
