<?xml version="1.0" encoding="utf-8" standalone="no"?>
<!DOCTYPE svg PUBLIC "-//W3C//DTD SVG 1.1//EN"
  "http://www.w3.org/Graphics/SVG/1.1/DTD/svg11.dtd">
<svg xmlns:xlink="http://www.w3.org/1999/xlink" width="710.479488pt" height="710.94975pt" viewBox="0 0 710.479488 710.94975" xmlns="http://www.w3.org/2000/svg" version="1.1">
 <metadata>
  <rdf:RDF xmlns:dc="http://purl.org/dc/elements/1.1/" xmlns:cc="http://creativecommons.org/ns#" xmlns:rdf="http://www.w3.org/1999/02/22-rdf-syntax-ns#">
   <cc:Work>
    <dc:type rdf:resource="http://purl.org/dc/dcmitype/StillImage"/>
    <dc:date>2025-02-05T17:09:33.678811</dc:date>
    <dc:format>image/svg+xml</dc:format>
    <dc:creator>
     <cc:Agent>
      <dc:title>Matplotlib v3.9.3, https://matplotlib.org/</dc:title>
     </cc:Agent>
    </dc:creator>
   </cc:Work>
  </rdf:RDF>
 </metadata>
 <defs>
  <style type="text/css">*{stroke-linejoin: round; stroke-linecap: butt}</style>
 </defs>
 <g id="figure_1">
  <g id="patch_1">
   <path d="M 0 710.94975 
L 710.479488 710.94975 
L 710.479488 0 
L 0 0 
z
" style="fill: #ffffff"/>
  </g>
  <g id="axes_1">
   <g id="patch_2">
    <path d="M 87 640.3185 
L 703.279488 640.3185 
L 703.279488 39.1875 
L 87 39.1875 
z
" style="fill: #ffffff"/>
   </g>
   <g id="matplotlib.axis_1">
    <g id="xtick_1">
     <g id="line2d_1">
      <defs>
       <path id="m2fe4ba4c2a" d="M 0 0 
L 0 -3.5 
" style="stroke: #000000; stroke-width: 0.8"/>
      </defs>
      <g>
       <use xlink:href="#m2fe4ba4c2a" x="114.90062" y="640.3185" style="stroke: #000000; stroke-width: 0.8"/>
      </g>
     </g>
     <g id="text_1">
      <!-- 0 -->
      <g transform="translate(106.559213 665.559125) scale(0.3 -0.3)">
       <defs>
        <path id="LiberationSans-30" d="M 3309 2203 
Q 3309 1100 2920 518 
Q 2531 -63 1772 -63 
Q 1013 -63 631 515 
Q 250 1094 250 2203 
Q 250 3338 620 3903 
Q 991 4469 1791 4469 
Q 2569 4469 2939 3897 
Q 3309 3325 3309 2203 
z
M 2738 2203 
Q 2738 3156 2517 3584 
Q 2297 4013 1791 4013 
Q 1272 4013 1045 3591 
Q 819 3169 819 2203 
Q 819 1266 1048 831 
Q 1278 397 1778 397 
Q 2275 397 2506 840 
Q 2738 1284 2738 2203 
z
" transform="scale(0.015625)"/>
       </defs>
       <use xlink:href="#LiberationSans-30"/>
      </g>
     </g>
    </g>
    <g id="xtick_2">
     <g id="line2d_2">
      <g>
       <use xlink:href="#m2fe4ba4c2a" x="226.985061" y="640.3185" style="stroke: #000000; stroke-width: 0.8"/>
      </g>
     </g>
     <g id="text_2">
      <!-- 2 -->
      <g transform="translate(218.643655 665.559125) scale(0.3 -0.3)">
       <defs>
        <path id="LiberationSans-32" d="M 322 0 
L 322 397 
Q 481 763 711 1042 
Q 941 1322 1194 1548 
Q 1447 1775 1695 1969 
Q 1944 2163 2144 2356 
Q 2344 2550 2467 2762 
Q 2591 2975 2591 3244 
Q 2591 3606 2378 3806 
Q 2166 4006 1788 4006 
Q 1428 4006 1195 3811 
Q 963 3616 922 3263 
L 347 3316 
Q 409 3844 795 4156 
Q 1181 4469 1788 4469 
Q 2453 4469 2811 4155 
Q 3169 3841 3169 3263 
Q 3169 3006 3051 2753 
Q 2934 2500 2703 2247 
Q 2472 1994 1819 1463 
Q 1459 1169 1246 933 
Q 1034 697 941 478 
L 3238 478 
L 3238 0 
L 322 0 
z
" transform="scale(0.015625)"/>
       </defs>
       <use xlink:href="#LiberationSans-32"/>
      </g>
     </g>
    </g>
    <g id="xtick_3">
     <g id="line2d_3">
      <g>
       <use xlink:href="#m2fe4ba4c2a" x="339.069502" y="640.3185" style="stroke: #000000; stroke-width: 0.8"/>
      </g>
     </g>
     <g id="text_3">
      <!-- 4 -->
      <g transform="translate(330.728096 665.559125) scale(0.3 -0.3)">
       <defs>
        <path id="LiberationSans-34" d="M 2753 997 
L 2753 0 
L 2222 0 
L 2222 997 
L 147 997 
L 147 1434 
L 2163 4403 
L 2753 4403 
L 2753 1441 
L 3372 1441 
L 3372 997 
L 2753 997 
z
M 2222 3769 
Q 2216 3750 2134 3603 
Q 2053 3456 2013 3397 
L 884 1734 
L 716 1503 
L 666 1441 
L 2222 1441 
L 2222 3769 
z
" transform="scale(0.015625)"/>
       </defs>
       <use xlink:href="#LiberationSans-34"/>
      </g>
     </g>
    </g>
    <g id="xtick_4">
     <g id="line2d_4">
      <g>
       <use xlink:href="#m2fe4ba4c2a" x="451.153944" y="640.3185" style="stroke: #000000; stroke-width: 0.8"/>
      </g>
     </g>
     <g id="text_4">
      <!-- 6 -->
      <g transform="translate(442.812537 665.559125) scale(0.3 -0.3)">
       <defs>
        <path id="LiberationSans-36" d="M 3278 1441 
Q 3278 744 2900 340 
Q 2522 -63 1856 -63 
Q 1113 -63 719 490 
Q 325 1044 325 2100 
Q 325 3244 734 3856 
Q 1144 4469 1900 4469 
Q 2897 4469 3156 3572 
L 2619 3475 
Q 2453 4013 1894 4013 
Q 1413 4013 1148 3564 
Q 884 3116 884 2266 
Q 1038 2550 1316 2698 
Q 1594 2847 1953 2847 
Q 2563 2847 2920 2465 
Q 3278 2084 3278 1441 
z
M 2706 1416 
Q 2706 1894 2472 2153 
Q 2238 2413 1819 2413 
Q 1425 2413 1183 2183 
Q 941 1953 941 1550 
Q 941 1041 1192 716 
Q 1444 391 1838 391 
Q 2244 391 2475 664 
Q 2706 938 2706 1416 
z
" transform="scale(0.015625)"/>
       </defs>
       <use xlink:href="#LiberationSans-36"/>
      </g>
     </g>
    </g>
    <g id="xtick_5">
     <g id="line2d_5">
      <g>
       <use xlink:href="#m2fe4ba4c2a" x="563.238385" y="640.3185" style="stroke: #000000; stroke-width: 0.8"/>
      </g>
     </g>
     <g id="text_5">
      <!-- 8 -->
      <g transform="translate(554.896979 665.559125) scale(0.3 -0.3)">
       <defs>
        <path id="LiberationSans-38" d="M 3281 1228 
Q 3281 619 2893 278 
Q 2506 -63 1781 -63 
Q 1075 -63 676 271 
Q 278 606 278 1222 
Q 278 1653 525 1947 
Q 772 2241 1156 2303 
L 1156 2316 
Q 797 2400 589 2681 
Q 381 2963 381 3341 
Q 381 3844 757 4156 
Q 1134 4469 1769 4469 
Q 2419 4469 2795 4162 
Q 3172 3856 3172 3334 
Q 3172 2956 2962 2675 
Q 2753 2394 2391 2322 
L 2391 2309 
Q 2813 2241 3047 1952 
Q 3281 1663 3281 1228 
z
M 2588 3303 
Q 2588 4050 1769 4050 
Q 1372 4050 1164 3862 
Q 956 3675 956 3303 
Q 956 2925 1170 2726 
Q 1384 2528 1775 2528 
Q 2172 2528 2380 2711 
Q 2588 2894 2588 3303 
z
M 2697 1281 
Q 2697 1691 2453 1898 
Q 2209 2106 1769 2106 
Q 1341 2106 1100 1882 
Q 859 1659 859 1269 
Q 859 359 1788 359 
Q 2247 359 2472 579 
Q 2697 800 2697 1281 
z
" transform="scale(0.015625)"/>
       </defs>
       <use xlink:href="#LiberationSans-38"/>
      </g>
     </g>
    </g>
    <g id="xtick_6">
     <g id="line2d_6">
      <g>
       <use xlink:href="#m2fe4ba4c2a" x="675.322826" y="640.3185" style="stroke: #000000; stroke-width: 0.8"/>
      </g>
     </g>
     <g id="text_6">
      <!-- 10 -->
      <g transform="translate(658.640014 665.559125) scale(0.3 -0.3)">
       <defs>
        <path id="LiberationSans-31" d="M 488 0 
L 488 478 
L 1609 478 
L 1609 3866 
L 616 3156 
L 616 3688 
L 1656 4403 
L 2175 4403 
L 2175 478 
L 3247 478 
L 3247 0 
L 488 0 
z
" transform="scale(0.015625)"/>
       </defs>
       <use xlink:href="#LiberationSans-31"/>
       <use xlink:href="#LiberationSans-30" x="55.615234"/>
      </g>
     </g>
    </g>
    <g id="xtick_7">
     <g id="line2d_7">
      <defs>
       <path id="m89546805c2" d="M 0 0 
L 0 -2 
" style="stroke: #000000; stroke-width: 0.6"/>
      </defs>
      <g>
       <use xlink:href="#m89546805c2" x="142.92173" y="640.3185" style="stroke: #000000; stroke-width: 0.6"/>
      </g>
     </g>
    </g>
    <g id="xtick_8">
     <g id="line2d_8">
      <g>
       <use xlink:href="#m89546805c2" x="170.94284" y="640.3185" style="stroke: #000000; stroke-width: 0.6"/>
      </g>
     </g>
    </g>
    <g id="xtick_9">
     <g id="line2d_9">
      <g>
       <use xlink:href="#m89546805c2" x="198.963951" y="640.3185" style="stroke: #000000; stroke-width: 0.6"/>
      </g>
     </g>
    </g>
    <g id="xtick_10">
     <g id="line2d_10">
      <g>
       <use xlink:href="#m89546805c2" x="255.006171" y="640.3185" style="stroke: #000000; stroke-width: 0.6"/>
      </g>
     </g>
    </g>
    <g id="xtick_11">
     <g id="line2d_11">
      <g>
       <use xlink:href="#m89546805c2" x="283.027282" y="640.3185" style="stroke: #000000; stroke-width: 0.6"/>
      </g>
     </g>
    </g>
    <g id="xtick_12">
     <g id="line2d_12">
      <g>
       <use xlink:href="#m89546805c2" x="311.048392" y="640.3185" style="stroke: #000000; stroke-width: 0.6"/>
      </g>
     </g>
    </g>
    <g id="xtick_13">
     <g id="line2d_13">
      <g>
       <use xlink:href="#m89546805c2" x="367.090613" y="640.3185" style="stroke: #000000; stroke-width: 0.6"/>
      </g>
     </g>
    </g>
    <g id="xtick_14">
     <g id="line2d_14">
      <g>
       <use xlink:href="#m89546805c2" x="395.111723" y="640.3185" style="stroke: #000000; stroke-width: 0.6"/>
      </g>
     </g>
    </g>
    <g id="xtick_15">
     <g id="line2d_15">
      <g>
       <use xlink:href="#m89546805c2" x="423.132833" y="640.3185" style="stroke: #000000; stroke-width: 0.6"/>
      </g>
     </g>
    </g>
    <g id="xtick_16">
     <g id="line2d_16">
      <g>
       <use xlink:href="#m89546805c2" x="479.175054" y="640.3185" style="stroke: #000000; stroke-width: 0.6"/>
      </g>
     </g>
    </g>
    <g id="xtick_17">
     <g id="line2d_17">
      <g>
       <use xlink:href="#m89546805c2" x="507.196164" y="640.3185" style="stroke: #000000; stroke-width: 0.6"/>
      </g>
     </g>
    </g>
    <g id="xtick_18">
     <g id="line2d_18">
      <g>
       <use xlink:href="#m89546805c2" x="535.217275" y="640.3185" style="stroke: #000000; stroke-width: 0.6"/>
      </g>
     </g>
    </g>
    <g id="xtick_19">
     <g id="line2d_19">
      <g>
       <use xlink:href="#m89546805c2" x="591.259495" y="640.3185" style="stroke: #000000; stroke-width: 0.6"/>
      </g>
     </g>
    </g>
    <g id="xtick_20">
     <g id="line2d_20">
      <g>
       <use xlink:href="#m89546805c2" x="619.280606" y="640.3185" style="stroke: #000000; stroke-width: 0.6"/>
      </g>
     </g>
    </g>
    <g id="xtick_21">
     <g id="line2d_21">
      <g>
       <use xlink:href="#m89546805c2" x="647.301716" y="640.3185" style="stroke: #000000; stroke-width: 0.6"/>
      </g>
     </g>
    </g>
    <g id="text_7">
     <!-- Time ps -->
     <g transform="translate(342.363182 697.52475) scale(0.3 -0.3)">
      <defs>
       <path id="LiberationSans-54" d="M 2250 3916 
L 2250 0 
L 1656 0 
L 1656 3916 
L 144 3916 
L 144 4403 
L 3763 4403 
L 3763 3916 
L 2250 3916 
z
" transform="scale(0.015625)"/>
       <path id="LiberationSans-69" d="M 428 4100 
L 428 4638 
L 991 4638 
L 991 4100 
L 428 4100 
z
M 428 0 
L 428 3381 
L 991 3381 
L 991 0 
L 428 0 
z
" transform="scale(0.015625)"/>
       <path id="LiberationSans-6d" d="M 2400 0 
L 2400 2144 
Q 2400 2634 2265 2821 
Q 2131 3009 1781 3009 
Q 1422 3009 1212 2734 
Q 1003 2459 1003 1959 
L 1003 0 
L 444 0 
L 444 2659 
Q 444 3250 425 3381 
L 956 3381 
Q 959 3366 962 3297 
Q 966 3228 970 3139 
Q 975 3050 981 2803 
L 991 2803 
Q 1172 3163 1406 3303 
Q 1641 3444 1978 3444 
Q 2363 3444 2586 3291 
Q 2809 3138 2897 2803 
L 2906 2803 
Q 3081 3144 3329 3294 
Q 3578 3444 3931 3444 
Q 4444 3444 4676 3166 
Q 4909 2888 4909 2253 
L 4909 0 
L 4353 0 
L 4353 2144 
Q 4353 2634 4218 2821 
Q 4084 3009 3734 3009 
Q 3366 3009 3161 2736 
Q 2956 2463 2956 1959 
L 2956 0 
L 2400 0 
z
" transform="scale(0.015625)"/>
       <path id="LiberationSans-65" d="M 863 1572 
Q 863 991 1103 675 
Q 1344 359 1806 359 
Q 2172 359 2392 506 
Q 2613 653 2691 878 
L 3184 738 
Q 2881 -63 1806 -63 
Q 1056 -63 664 384 
Q 272 831 272 1713 
Q 272 2550 664 2997 
Q 1056 3444 1784 3444 
Q 3275 3444 3275 1647 
L 3275 1572 
L 863 1572 
z
M 2694 2003 
Q 2647 2538 2422 2783 
Q 2197 3028 1775 3028 
Q 1366 3028 1127 2754 
Q 888 2481 869 2003 
L 2694 2003 
z
" transform="scale(0.015625)"/>
       <path id="LiberationSans-20" transform="scale(0.015625)"/>
       <path id="LiberationSans-70" d="M 3291 1706 
Q 3291 -63 2047 -63 
Q 1266 -63 997 525 
L 981 525 
Q 994 500 994 -6 
L 994 -1328 
L 431 -1328 
L 431 2691 
Q 431 3213 413 3381 
L 956 3381 
Q 959 3369 965 3292 
Q 972 3216 980 3056 
Q 988 2897 988 2838 
L 1000 2838 
Q 1150 3150 1397 3295 
Q 1644 3441 2047 3441 
Q 2672 3441 2981 3022 
Q 3291 2603 3291 1706 
z
M 2700 1694 
Q 2700 2400 2509 2703 
Q 2319 3006 1903 3006 
Q 1569 3006 1380 2865 
Q 1191 2725 1092 2426 
Q 994 2128 994 1650 
Q 994 984 1206 668 
Q 1419 353 1897 353 
Q 2316 353 2508 661 
Q 2700 969 2700 1694 
z
" transform="scale(0.015625)"/>
       <path id="LiberationSans-73" d="M 2969 934 
Q 2969 456 2608 196 
Q 2247 -63 1597 -63 
Q 966 -63 623 145 
Q 281 353 178 794 
L 675 891 
Q 747 619 972 492 
Q 1197 366 1597 366 
Q 2025 366 2223 497 
Q 2422 628 2422 891 
Q 2422 1091 2284 1216 
Q 2147 1341 1841 1422 
L 1438 1528 
Q 953 1653 748 1773 
Q 544 1894 428 2066 
Q 313 2238 313 2488 
Q 313 2950 642 3192 
Q 972 3434 1603 3434 
Q 2163 3434 2492 3237 
Q 2822 3041 2909 2606 
L 2403 2544 
Q 2356 2769 2151 2889 
Q 1947 3009 1603 3009 
Q 1222 3009 1040 2893 
Q 859 2778 859 2544 
Q 859 2400 934 2306 
Q 1009 2213 1156 2147 
Q 1303 2081 1775 1966 
Q 2222 1853 2419 1758 
Q 2616 1663 2730 1547 
Q 2844 1431 2906 1279 
Q 2969 1128 2969 934 
z
" transform="scale(0.015625)"/>
      </defs>
      <use xlink:href="#LiberationSans-54"/>
      <use xlink:href="#LiberationSans-69" x="57.333984"/>
      <use xlink:href="#LiberationSans-6d" x="79.550781"/>
      <use xlink:href="#LiberationSans-65" x="162.851562"/>
      <use xlink:href="#LiberationSans-20" x="218.466797"/>
      <use xlink:href="#LiberationSans-70" x="246.25"/>
      <use xlink:href="#LiberationSans-73" x="301.865234"/>
     </g>
    </g>
   </g>
   <g id="matplotlib.axis_2">
    <g id="ytick_1">
     <g id="line2d_22">
      <defs>
       <path id="m798355d999" d="M 0 0 
L 3.5 0 
" style="stroke: #000000; stroke-width: 0.8"/>
      </defs>
      <g>
       <use xlink:href="#m798355d999" x="87" y="629.200223" style="stroke: #000000; stroke-width: 0.8"/>
      </g>
     </g>
     <g id="text_8">
      <!-- $\mathdefault{0.0}$ -->
      <g transform="translate(41.5 640.070536) scale(0.3 -0.3)">
       <defs>
        <path id="LiberationSans-2e" d="M 584 0 
L 584 684 
L 1194 684 
L 1194 0 
L 584 0 
z
" transform="scale(0.015625)"/>
       </defs>
       <use xlink:href="#LiberationSans-30" transform="translate(0 0.171875)"/>
       <use xlink:href="#LiberationSans-2e" transform="translate(55.615234 0.171875)"/>
       <use xlink:href="#LiberationSans-30" transform="translate(83.398438 0.171875)"/>
      </g>
     </g>
    </g>
    <g id="ytick_2">
     <g id="line2d_23">
      <g>
       <use xlink:href="#m798355d999" x="87" y="504.463111" style="stroke: #000000; stroke-width: 0.8"/>
      </g>
     </g>
     <g id="text_9">
      <!-- $\mathdefault{0.5}$ -->
      <g transform="translate(41.5 515.333423) scale(0.3 -0.3)">
       <defs>
        <path id="LiberationSans-35" d="M 3291 1434 
Q 3291 738 2877 337 
Q 2463 -63 1728 -63 
Q 1113 -63 734 206 
Q 356 475 256 984 
L 825 1050 
Q 1003 397 1741 397 
Q 2194 397 2450 670 
Q 2706 944 2706 1422 
Q 2706 1838 2448 2094 
Q 2191 2350 1753 2350 
Q 1525 2350 1328 2278 
Q 1131 2206 934 2034 
L 384 2034 
L 531 4403 
L 3034 4403 
L 3034 3925 
L 1044 3925 
L 959 2528 
Q 1325 2809 1869 2809 
Q 2519 2809 2905 2428 
Q 3291 2047 3291 1434 
z
" transform="scale(0.015625)"/>
       </defs>
       <use xlink:href="#LiberationSans-30" transform="translate(0 0.171875)"/>
       <use xlink:href="#LiberationSans-2e" transform="translate(55.615234 0.171875)"/>
       <use xlink:href="#LiberationSans-35" transform="translate(83.398438 0.171875)"/>
      </g>
     </g>
    </g>
    <g id="ytick_3">
     <g id="line2d_24">
      <g>
       <use xlink:href="#m798355d999" x="87" y="379.725998" style="stroke: #000000; stroke-width: 0.8"/>
      </g>
     </g>
     <g id="text_10">
      <!-- $\mathdefault{1.0}$ -->
      <g transform="translate(41.5 390.596311) scale(0.3 -0.3)">
       <use xlink:href="#LiberationSans-31" transform="translate(0 0.171875)"/>
       <use xlink:href="#LiberationSans-2e" transform="translate(55.615234 0.171875)"/>
       <use xlink:href="#LiberationSans-30" transform="translate(83.398438 0.171875)"/>
      </g>
     </g>
    </g>
    <g id="ytick_4">
     <g id="line2d_25">
      <g>
       <use xlink:href="#m798355d999" x="87" y="254.988886" style="stroke: #000000; stroke-width: 0.8"/>
      </g>
     </g>
     <g id="text_11">
      <!-- $\mathdefault{1.5}$ -->
      <g transform="translate(41.5 265.859198) scale(0.3 -0.3)">
       <use xlink:href="#LiberationSans-31" transform="translate(0 0.203125)"/>
       <use xlink:href="#LiberationSans-2e" transform="translate(55.615234 0.203125)"/>
       <use xlink:href="#LiberationSans-35" transform="translate(83.398438 0.203125)"/>
      </g>
     </g>
    </g>
    <g id="ytick_5">
     <g id="line2d_26">
      <g>
       <use xlink:href="#m798355d999" x="87" y="130.251773" style="stroke: #000000; stroke-width: 0.8"/>
      </g>
     </g>
     <g id="text_12">
      <!-- $\mathdefault{2.0}$ -->
      <g transform="translate(41.5 141.122086) scale(0.3 -0.3)">
       <use xlink:href="#LiberationSans-32" transform="translate(0 0.171875)"/>
       <use xlink:href="#LiberationSans-2e" transform="translate(55.615234 0.171875)"/>
       <use xlink:href="#LiberationSans-30" transform="translate(83.398438 0.171875)"/>
      </g>
     </g>
    </g>
    <g id="ytick_6">
     <g id="line2d_27">
      <defs>
       <path id="m48da05f14a" d="M 0 0 
L 2 0 
" style="stroke: #000000; stroke-width: 0.6"/>
      </defs>
      <g>
       <use xlink:href="#m48da05f14a" x="87" y="604.252801" style="stroke: #000000; stroke-width: 0.6"/>
      </g>
     </g>
    </g>
    <g id="ytick_7">
     <g id="line2d_28">
      <g>
       <use xlink:href="#m48da05f14a" x="87" y="579.305378" style="stroke: #000000; stroke-width: 0.6"/>
      </g>
     </g>
    </g>
    <g id="ytick_8">
     <g id="line2d_29">
      <g>
       <use xlink:href="#m48da05f14a" x="87" y="554.357956" style="stroke: #000000; stroke-width: 0.6"/>
      </g>
     </g>
    </g>
    <g id="ytick_9">
     <g id="line2d_30">
      <g>
       <use xlink:href="#m48da05f14a" x="87" y="529.410533" style="stroke: #000000; stroke-width: 0.6"/>
      </g>
     </g>
    </g>
    <g id="ytick_10">
     <g id="line2d_31">
      <g>
       <use xlink:href="#m48da05f14a" x="87" y="479.515688" style="stroke: #000000; stroke-width: 0.6"/>
      </g>
     </g>
    </g>
    <g id="ytick_11">
     <g id="line2d_32">
      <g>
       <use xlink:href="#m48da05f14a" x="87" y="454.568266" style="stroke: #000000; stroke-width: 0.6"/>
      </g>
     </g>
    </g>
    <g id="ytick_12">
     <g id="line2d_33">
      <g>
       <use xlink:href="#m48da05f14a" x="87" y="429.620843" style="stroke: #000000; stroke-width: 0.6"/>
      </g>
     </g>
    </g>
    <g id="ytick_13">
     <g id="line2d_34">
      <g>
       <use xlink:href="#m48da05f14a" x="87" y="404.673421" style="stroke: #000000; stroke-width: 0.6"/>
      </g>
     </g>
    </g>
    <g id="ytick_14">
     <g id="line2d_35">
      <g>
       <use xlink:href="#m48da05f14a" x="87" y="354.778576" style="stroke: #000000; stroke-width: 0.6"/>
      </g>
     </g>
    </g>
    <g id="ytick_15">
     <g id="line2d_36">
      <g>
       <use xlink:href="#m48da05f14a" x="87" y="329.831153" style="stroke: #000000; stroke-width: 0.6"/>
      </g>
     </g>
    </g>
    <g id="ytick_16">
     <g id="line2d_37">
      <g>
       <use xlink:href="#m48da05f14a" x="87" y="304.883731" style="stroke: #000000; stroke-width: 0.6"/>
      </g>
     </g>
    </g>
    <g id="ytick_17">
     <g id="line2d_38">
      <g>
       <use xlink:href="#m48da05f14a" x="87" y="279.936308" style="stroke: #000000; stroke-width: 0.6"/>
      </g>
     </g>
    </g>
    <g id="ytick_18">
     <g id="line2d_39">
      <g>
       <use xlink:href="#m48da05f14a" x="87" y="230.041463" style="stroke: #000000; stroke-width: 0.6"/>
      </g>
     </g>
    </g>
    <g id="ytick_19">
     <g id="line2d_40">
      <g>
       <use xlink:href="#m48da05f14a" x="87" y="205.094041" style="stroke: #000000; stroke-width: 0.6"/>
      </g>
     </g>
    </g>
    <g id="ytick_20">
     <g id="line2d_41">
      <g>
       <use xlink:href="#m48da05f14a" x="87" y="180.146618" style="stroke: #000000; stroke-width: 0.6"/>
      </g>
     </g>
    </g>
    <g id="ytick_21">
     <g id="line2d_42">
      <g>
       <use xlink:href="#m48da05f14a" x="87" y="155.199196" style="stroke: #000000; stroke-width: 0.6"/>
      </g>
     </g>
    </g>
    <g id="ytick_22">
     <g id="line2d_43">
      <g>
       <use xlink:href="#m48da05f14a" x="87" y="105.304351" style="stroke: #000000; stroke-width: 0.6"/>
      </g>
     </g>
    </g>
    <g id="ytick_23">
     <g id="line2d_44">
      <g>
       <use xlink:href="#m48da05f14a" x="87" y="80.356928" style="stroke: #000000; stroke-width: 0.6"/>
      </g>
     </g>
    </g>
    <g id="ytick_24">
     <g id="line2d_45">
      <g>
       <use xlink:href="#m48da05f14a" x="87" y="55.409506" style="stroke: #000000; stroke-width: 0.6"/>
      </g>
     </g>
    </g>
    <g id="text_13">
     <!-- ITC $\mathrm{W} / (\mathrm{K} \cdot \mathrm{m}^2)$ -->
     <g transform="translate(31.275 433.803) rotate(-90) scale(0.3 -0.3)">
      <defs>
       <path id="LiberationSans-49" d="M 591 0 
L 591 4403 
L 1188 4403 
L 1188 0 
L 591 0 
z
" transform="scale(0.015625)"/>
       <path id="LiberationSans-43" d="M 2475 3981 
Q 1744 3981 1337 3511 
Q 931 3041 931 2222 
Q 931 1413 1354 920 
Q 1778 428 2500 428 
Q 3425 428 3891 1344 
L 4378 1100 
Q 4106 531 3614 234 
Q 3122 -63 2472 -63 
Q 1806 -63 1320 214 
Q 834 491 579 1005 
Q 325 1519 325 2222 
Q 325 3275 894 3872 
Q 1463 4469 2469 4469 
Q 3172 4469 3644 4194 
Q 4116 3919 4338 3378 
L 3772 3191 
Q 3619 3575 3280 3778 
Q 2941 3981 2475 3981 
z
" transform="scale(0.015625)"/>
       <path id="STIXGeneral-Regular-57" d="M 5965 4237 
L 5965 4115 
Q 5709 4064 5616 3990 
Q 5523 3917 5434 3667 
Q 4704 1709 4128 -70 
L 4032 -70 
Q 3642 1011 3008 2637 
L 2022 -70 
L 1926 -70 
Q 1709 576 1277 1753 
Q 845 2931 698 3347 
Q 538 3808 406 3958 
Q 275 4109 32 4115 
L 32 4237 
L 1594 4237 
L 1594 4115 
Q 1357 4109 1270 4064 
Q 1184 4019 1184 3917 
Q 1184 3808 1254 3616 
L 2176 1210 
L 2842 3021 
L 2662 3501 
Q 2509 3917 2400 4013 
Q 2291 4109 2010 4115 
L 2010 4237 
L 3706 4237 
L 3706 4115 
Q 3213 4102 3213 3891 
Q 3213 3808 3322 3520 
L 4237 1190 
L 5043 3360 
Q 5152 3667 5152 3853 
Q 5152 4109 4704 4115 
L 4704 4237 
L 5965 4237 
z
" transform="scale(0.015625)"/>
       <path id="STIXGeneral-Regular-2f" d="M 1837 4326 
L 378 -90 
L -58 -90 
L 1408 4326 
L 1837 4326 
z
" transform="scale(0.015625)"/>
       <path id="STIXGeneral-Regular-28" d="M 1946 -1030 
L 1869 -1133 
Q 1126 -710 716 32 
Q 307 774 307 1613 
Q 307 3386 1888 4326 
L 1946 4224 
Q 1293 3667 1075 3126 
Q 858 2586 858 1632 
Q 858 685 1082 96 
Q 1306 -493 1946 -1030 
z
" transform="scale(0.015625)"/>
       <path id="STIXGeneral-Regular-4b" d="M 4627 0 
L 2688 0 
L 2688 122 
L 2861 128 
Q 3130 134 3130 282 
Q 3130 397 2922 643 
Q 2714 890 2253 1370 
L 1613 2029 
L 1446 1894 
L 1446 710 
Q 1446 352 1548 253 
Q 1651 154 2016 122 
L 2016 0 
L 211 0 
L 211 122 
Q 589 141 691 262 
Q 794 384 794 800 
L 794 3514 
Q 794 3872 691 3981 
Q 589 4090 218 4115 
L 218 4237 
L 2022 4237 
L 2022 4115 
Q 1632 4090 1539 3987 
Q 1446 3885 1446 3507 
L 1446 2227 
L 2586 3277 
Q 2861 3533 2973 3667 
Q 3085 3802 3085 3910 
Q 3085 4013 3030 4057 
Q 2976 4102 2822 4109 
L 2662 4115 
L 2662 4237 
L 4320 4237 
L 4320 4115 
Q 3994 4090 3824 4003 
Q 3654 3917 3322 3597 
L 2131 2458 
L 3629 819 
Q 4026 384 4214 253 
Q 4403 122 4627 122 
L 4627 0 
z
" transform="scale(0.015625)"/>
       <path id="STIXGeneral-Regular-22c5" d="M 1187 1888 
Q 1299 1773 1299 1619 
Q 1299 1466 1187 1350 
Q 1075 1235 921 1235 
Q 768 1235 649 1353 
Q 531 1472 531 1619 
Q 531 1766 649 1884 
Q 768 2003 921 2003 
Q 1075 2003 1187 1888 
z
" transform="scale(0.015625)"/>
       <path id="STIXGeneral-Regular-6d" d="M 4960 0 
L 3565 0 
L 3565 96 
Q 3834 122 3907 208 
Q 3981 294 3981 576 
L 3981 1894 
Q 3981 2278 3869 2444 
Q 3757 2611 3488 2611 
Q 3264 2611 3107 2521 
Q 2950 2432 2803 2221 
L 2803 608 
Q 2803 301 2896 201 
Q 2989 102 3264 96 
L 3264 0 
L 1830 0 
L 1830 96 
Q 2112 115 2189 188 
Q 2266 262 2266 550 
L 2266 1901 
Q 2266 2611 1850 2611 
Q 1670 2611 1468 2531 
Q 1267 2451 1171 2336 
Q 1088 2240 1088 2227 
L 1088 448 
Q 1088 243 1177 176 
Q 1267 109 1523 96 
L 1523 0 
L 102 0 
L 102 96 
Q 371 102 460 195 
Q 550 288 550 563 
L 550 2150 
Q 550 2387 499 2480 
Q 448 2573 326 2573 
Q 230 2573 122 2547 
L 122 2656 
Q 557 2778 1011 2944 
L 1062 2925 
L 1062 2451 
L 1075 2451 
Q 1363 2752 1584 2848 
Q 1805 2944 2054 2944 
Q 2560 2944 2733 2406 
Q 3232 2944 3776 2944 
Q 4518 2944 4518 1792 
L 4518 493 
Q 4518 282 4582 202 
Q 4646 122 4794 109 
L 4960 96 
L 4960 0 
z
" transform="scale(0.015625)"/>
       <path id="STIXGeneral-Regular-32" d="M 3034 877 
L 2688 0 
L 186 0 
L 186 77 
L 1325 1286 
Q 1773 1754 1965 2144 
Q 2157 2534 2157 2950 
Q 2157 3379 1920 3616 
Q 1683 3853 1267 3853 
Q 922 3853 720 3673 
Q 518 3494 326 3021 
L 192 3053 
Q 301 3648 630 3987 
Q 960 4326 1523 4326 
Q 2054 4326 2380 4006 
Q 2707 3686 2707 3200 
Q 2707 2477 1888 1613 
L 832 486 
L 2330 486 
Q 2541 486 2665 569 
Q 2790 653 2944 915 
L 3034 877 
z
" transform="scale(0.015625)"/>
       <path id="STIXGeneral-Regular-29" d="M 186 4224 
L 262 4326 
Q 992 3891 1408 3148 
Q 1824 2406 1824 1581 
Q 1824 -166 243 -1133 
L 186 -1030 
Q 845 -486 1059 54 
Q 1274 595 1274 1562 
Q 1274 2534 1059 3120 
Q 845 3706 186 4224 
z
" transform="scale(0.015625)"/>
      </defs>
      <use xlink:href="#LiberationSans-49" transform="translate(0 0.409375)"/>
      <use xlink:href="#LiberationSans-54" transform="translate(27.783203 0.409375)"/>
      <use xlink:href="#LiberationSans-43" transform="translate(88.867188 0.409375)"/>
      <use xlink:href="#LiberationSans-20" transform="translate(161.083984 0.409375)"/>
      <use xlink:href="#STIXGeneral-Regular-57" transform="translate(188.867188 0.409375)"/>
      <use xlink:href="#STIXGeneral-Regular-2f" transform="translate(283.267181 0.409375)"/>
      <use xlink:href="#STIXGeneral-Regular-28" transform="translate(311.067169 0.409375)"/>
      <use xlink:href="#STIXGeneral-Regular-4b" transform="translate(344.367157 0.409375)"/>
      <use xlink:href="#STIXGeneral-Regular-22c5" transform="translate(431.007135 0.409375)"/>
      <use xlink:href="#STIXGeneral-Regular-6d" transform="translate(474.047122 0.409375)"/>
      <use xlink:href="#STIXGeneral-Regular-32" transform="translate(553.390391 35.684375) scale(0.7)"/>
      <use xlink:href="#STIXGeneral-Regular-29" transform="translate(592.799756 0.409375)"/>
     </g>
    </g>
    <g id="text_14">
     <!-- $\times\mathdefault{10^{7}}\mathdefault{}$ -->
     <g transform="translate(87 36.1875) scale(0.4 -0.4)">
      <defs>
       <path id="STIXGeneral-Regular-d7" d="M 3821 141 
L 3526 -160 
L 2048 1312 
L 570 -160 
L 275 134 
L 1747 1613 
L 275 3091 
L 576 3386 
L 2048 1914 
L 3526 3386 
L 3821 3098 
L 2349 1613 
L 3821 141 
z
" transform="scale(0.015625)"/>
       <path id="LiberationSans-37" d="M 3238 3947 
Q 2563 2916 2284 2331 
Q 2006 1747 1867 1178 
Q 1728 609 1728 0 
L 1141 0 
Q 1141 844 1498 1776 
Q 1856 2709 2694 3925 
L 328 3925 
L 328 4403 
L 3238 4403 
L 3238 3947 
z
" transform="scale(0.015625)"/>
      </defs>
      <use xlink:href="#STIXGeneral-Regular-d7" transform="translate(0 0.8625)"/>
      <use xlink:href="#LiberationSans-31" transform="translate(63.999985 0.8625)"/>
      <use xlink:href="#LiberationSans-30" transform="translate(119.615219 0.8625)"/>
      <use xlink:href="#LiberationSans-37" transform="translate(176.154946 37.842188) scale(0.7)"/>
     </g>
    </g>
   </g>
   <g id="line2d_46">
    <path d="M 115.012704 612.994364 
L 116.245633 286.285377 
L 116.91814 160.93924 
L 117.42252 101.192977 
L 117.814815 75.426984 
L 118.095026 67.451581 
L 118.263153 66.511636 
L 118.375237 67.375807 
L 118.599406 72.414084 
L 118.935659 87.288134 
L 119.440039 122.509106 
L 120.280673 201.319001 
L 122.186108 383.336629 
L 123.138826 452.096256 
L 123.979459 497.734145 
L 124.708008 525.931474 
L 125.324473 541.577498 
L 125.77281 548.315154 
L 126.109064 550.909039 
L 126.333233 551.527844 
L 126.445317 551.519965 
L 126.613444 551.12903 
L 126.893655 549.525234 
L 127.28595 545.489203 
L 127.846373 536.803447 
L 128.743048 518.587856 
L 130.31223 486.606608 
L 131.096821 475.135031 
L 131.713286 469.132978 
L 132.217666 466.227215 
L 132.609961 465.154923 
L 132.83413 464.979709 
L 133.058299 465.1033 
L 133.33851 465.651684 
L 133.730806 467.08966 
L 134.235186 469.931504 
L 134.963735 475.556887 
L 136.196663 487.267889 
L 137.709803 501.091066 
L 138.550437 506.844821 
L 139.222943 510.009068 
L 139.727323 511.449667 
L 140.119619 511.992506 
L 140.39983 512.065009 
L 140.680041 511.87306 
L 141.016294 511.294244 
L 141.40859 510.144951 
L 141.91297 507.946571 
L 142.585477 503.883493 
L 143.538194 496.543771 
L 145.107377 484.383964 
L 145.723841 481.134334 
L 146.172179 479.683568 
L 146.508432 479.151246 
L 146.788643 479.075442 
L 147.012812 479.248796 
L 147.349065 479.875092 
L 147.797403 481.314379 
L 148.413868 484.153143 
L 149.814923 492.069804 
L 150.99181 498.008444 
L 152.00057 501.986485 
L 152.953287 504.922515 
L 153.681836 506.561722 
L 154.186216 507.255395 
L 154.578512 507.464733 
L 154.914765 507.372216 
L 155.251018 507.002168 
L 155.643314 506.20066 
L 156.147694 504.588187 
L 156.820201 501.543914 
L 158.05313 494.571059 
L 159.061889 489.463382 
L 159.678354 487.331204 
L 160.182734 486.296641 
L 160.575029 485.938315 
L 160.911283 485.922122 
L 161.247536 486.147474 
L 161.695874 486.768951 
L 162.312338 488.086066 
L 163.265056 490.76727 
L 165.955083 498.672314 
L 166.627589 499.924655 
L 167.131969 500.476753 
L 167.524265 500.644343 
L 167.91656 500.573294 
L 168.308856 500.267774 
L 168.813236 499.558118 
L 169.485743 498.160934 
L 170.606587 495.200336 
L 172.119727 491.341126 
L 173.016402 489.64975 
L 173.688909 488.792039 
L 174.249331 488.393945 
L 174.697669 488.310859 
L 175.146007 488.457919 
L 175.594345 488.848711 
L 176.154767 489.682861 
L 176.827273 491.147122 
L 177.836033 493.985362 
L 179.349173 498.188403 
L 180.077722 499.598577 
L 180.694187 500.365911 
L 181.254609 500.75023 
L 181.871073 500.897113 
L 182.54358 500.822463 
L 183.384213 500.49469 
L 184.224847 499.933886 
L 185.06548 499.089204 
L 186.018198 497.775803 
L 187.811549 495.215929 
L 188.371971 494.790602 
L 188.876351 494.677698 
L 189.324689 494.805314 
L 189.829069 495.188687 
L 190.501575 496.013186 
L 191.846589 498.135314 
L 193.191602 500.062028 
L 194.424531 501.432143 
L 195.489333 502.310456 
L 196.217882 502.644895 
L 196.778304 502.681365 
L 197.338726 502.491232 
L 197.955191 502.024444 
L 198.795824 501.067334 
L 200.308964 499.306029 
L 200.981471 498.856436 
L 201.597935 498.692035 
L 202.326484 498.746996 
L 203.839624 499.188192 
L 205.296722 499.46383 
L 207.258199 499.847049 
L 208.659255 500.092811 
L 209.387804 499.997689 
L 210.116353 499.676127 
L 211.013028 499.017189 
L 212.974506 497.496115 
L 213.815139 497.167157 
L 214.767857 497.044354 
L 217.233715 496.848462 
L 219.867699 496.421538 
L 221.324797 496.495916 
L 222.557726 496.75789 
L 223.398359 497.146235 
L 224.18295 497.758604 
L 225.023583 498.718408 
L 226.256512 500.531961 
L 227.825694 502.766512 
L 228.778412 503.735099 
L 229.73113 504.381166 
L 230.73989 504.800038 
L 231.692607 504.978014 
L 232.477199 504.920602 
L 233.205747 504.648293 
L 233.990339 504.094616 
L 234.999099 503.061837 
L 236.904534 501.052756 
L 237.689125 500.556041 
L 238.417674 500.343388 
L 239.146223 500.359605 
L 239.930814 500.608187 
L 240.771447 501.125824 
L 241.612081 501.908701 
L 242.564798 503.1106 
L 244.414192 505.936784 
L 245.366909 507.129089 
L 246.039416 507.636259 
L 246.599838 507.784998 
L 247.104218 507.690774 
L 247.66464 507.339768 
L 248.337147 506.616832 
L 249.233823 505.273689 
L 252.596356 499.852917 
L 253.380947 499.144829 
L 254.053454 498.817106 
L 254.669918 498.746621 
L 255.342425 498.90397 
L 256.070973 499.3155 
L 256.911607 500.050557 
L 257.920367 501.242257 
L 259.153296 503.073555 
L 261.2829 506.293858 
L 261.955407 506.912604 
L 262.515829 507.154263 
L 263.020209 507.134793 
L 263.524589 506.893309 
L 264.141053 506.333009 
L 265.037729 505.161982 
L 266.83108 502.755429 
L 267.615671 502.084232 
L 268.34422 501.735611 
L 269.128811 501.609887 
L 270.025486 501.698621 
L 270.978204 502.012021 
L 271.87488 502.539554 
L 272.771555 503.329729 
L 274.172611 504.925058 
L 275.293455 506.059919 
L 276.022004 506.498641 
L 276.638468 506.630917 
L 277.310975 506.538183 
L 278.151608 506.162485 
L 282.074564 504.044184 
L 283.083324 503.864045 
L 283.979999 503.930934 
L 284.876675 504.22524 
L 286.109604 504.897583 
L 288.071082 505.970126 
L 289.135884 506.288701 
L 290.144644 506.360854 
L 291.041319 506.215619 
L 291.881953 505.866113 
L 292.778628 505.236839 
L 293.84343 504.191806 
L 295.748866 502.281088 
L 296.533457 501.826327 
L 297.262006 501.662025 
L 298.046597 501.725974 
L 299.223483 502.082478 
L 303.874988 503.825058 
L 305.94855 504.90296 
L 306.845225 505.076147 
L 307.685859 505.012801 
L 308.862745 504.671263 
L 310.48797 504.22482 
L 311.384645 504.221125 
L 312.225279 504.436702 
L 313.177996 504.92615 
L 314.354883 505.807672 
L 317.100952 507.985727 
L 317.885543 508.274201 
L 318.55805 508.302294 
L 319.230556 508.11865 
L 320.015147 507.667222 
L 321.135992 506.733484 
L 323.433723 504.783121 
L 325.283116 503.596667 
L 327.188552 502.575668 
L 328.085227 502.329543 
L 328.869818 502.344195 
L 329.654409 502.591486 
L 330.663169 503.175601 
L 333.129027 504.710869 
L 334.249871 505.082511 
L 335.538842 505.277017 
L 336.715729 505.247062 
L 337.612405 505.004998 
L 338.453038 504.530314 
L 339.349713 503.74911 
L 342.207867 500.997428 
L 342.880373 500.766226 
L 343.55288 500.77464 
L 344.337471 501.032723 
L 347.363751 502.326351 
L 348.260427 502.305949 
L 349.437313 502.026985 
L 351.286706 501.590221 
L 352.351509 501.58766 
L 353.696522 501.828057 
L 355.882169 502.223849 
L 357.339266 502.222336 
L 360.085335 502.148237 
L 361.766602 502.420903 
L 365.353304 503.241387 
L 366.418106 503.792577 
L 367.819162 504.798839 
L 369.500428 505.953198 
L 370.397104 506.304981 
L 371.181695 506.374147 
L 371.910244 506.212613 
L 372.694835 505.79638 
L 373.59151 505.056391 
L 375.048608 503.51325 
L 376.61779 501.945531 
L 377.570508 501.301609 
L 378.355099 501.037071 
L 379.027606 501.031621 
L 379.700112 501.237319 
L 380.484703 501.722386 
L 381.493463 502.630924 
L 384.295574 505.305674 
L 385.248292 505.861342 
L 386.032883 506.075544 
L 386.70539 506.041811 
L 387.377897 505.783416 
L 388.106445 505.252635 
L 389.059163 504.248965 
L 391.132725 501.962639 
L 391.861274 501.510221 
L 392.533781 501.347187 
L 393.206288 501.420216 
L 393.990879 501.746302 
L 395.167765 502.516555 
L 397.745707 504.243958 
L 399.090721 504.861623 
L 400.267607 505.166781 
L 401.500536 505.250845 
L 403.181803 505.116594 
L 405.423492 504.959149 
L 406.712463 505.103524 
L 409.906869 505.621696 
L 410.803545 505.426158 
L 411.868347 504.946093 
L 413.941909 503.949898 
L 414.7265 503.839092 
L 415.511091 503.961897 
L 416.351725 504.343256 
L 417.416527 505.100123 
L 419.938427 507.002625 
L 420.77906 507.314865 
L 421.507609 507.35497 
L 422.236158 507.169851 
L 423.076791 506.715187 
L 426.495367 504.563315 
L 427.504127 504.379996 
L 428.84914 504.384014 
L 433.052306 504.525024 
L 436.863177 504.399076 
L 441.514682 504.799343 
L 444.036582 504.485681 
L 445.829933 504.38558 
L 447.511199 504.533098 
L 449.416635 504.922431 
L 450.985817 505.461895 
L 452.891253 506.38642 
L 455.076899 507.402038 
L 456.197744 507.68258 
L 457.150461 507.696734 
L 458.103179 507.479189 
L 459.336108 506.933943 
L 461.353628 506.025936 
L 462.642599 505.731345 
L 465.94909 505.108547 
L 467.854525 504.753197 
L 470.768721 504.339617 
L 472.113734 503.807036 
L 474.075212 503.020892 
L 475.083972 502.884699 
L 476.092732 502.978421 
L 477.717956 503.396946 
L 480.688194 504.355356 
L 481.921123 505.045647 
L 484.218854 506.404202 
L 485.059487 506.593708 
L 485.844078 506.529041 
L 486.684712 506.214779 
L 487.805556 505.521485 
L 489.710992 504.319137 
L 490.551625 504.059697 
L 491.336216 504.050935 
L 492.176849 504.274449 
L 493.746031 505.00032 
L 494.866876 505.379019 
L 495.819594 505.455374 
L 497.164607 505.296655 
L 498.397536 505.22544 
L 499.350254 505.406043 
L 500.52714 505.894461 
L 502.152365 506.560825 
L 503.105082 506.696171 
L 504.281969 506.606907 
L 506.019278 506.476461 
L 507.252207 506.642979 
L 509.045558 506.887416 
L 510.054318 506.778522 
L 513.13664 506.239418 
L 514.089358 506.463566 
L 517.17168 507.431823 
L 518.18044 507.355679 
L 521.094635 506.961296 
L 524.233 507.000037 
L 525.297802 506.626039 
L 527.987828 505.541879 
L 529.05263 505.443002 
L 530.509728 505.563173 
L 533.59205 506.063336 
L 534.881021 506.534285 
L 537.683132 507.684301 
L 538.63585 507.751449 
L 539.812737 507.590814 
L 542.390679 507.184779 
L 544.127988 506.91712 
L 545.248832 506.48915 
L 548.050943 505.255831 
L 548.947619 505.215906 
L 550.068463 505.420031 
L 552.590363 505.947482 
L 554.888094 506.354443 
L 557.80229 507.042973 
L 558.755007 506.962242 
L 559.931894 506.616158 
L 562.285667 505.862404 
L 563.406512 505.780071 
L 564.751525 505.919199 
L 567.553636 506.266647 
L 568.674481 506.138611 
L 569.795325 505.775712 
L 571.420549 504.966646 
L 572.933689 504.296067 
L 573.886407 504.109171 
L 574.783083 504.164488 
L 575.679758 504.443814 
L 576.800603 505.038859 
L 579.602714 506.645088 
L 580.499389 506.832368 
L 581.28398 506.768803 
L 582.124613 506.460829 
L 583.133373 505.829846 
L 585.8234 504.002035 
L 586.776118 503.699187 
L 587.616751 503.654017 
L 588.513427 503.836482 
L 589.466144 504.268427 
L 590.755115 505.122419 
L 592.772635 506.448128 
L 593.781395 506.833087 
L 594.678071 506.943818 
L 595.574746 506.825306 
L 596.527464 506.467424 
L 597.816435 505.716081 
L 600.170209 504.319941 
L 601.347095 503.907134 
L 602.46794 503.750636 
L 603.532742 503.828979 
L 604.597544 504.142265 
L 605.774431 504.737882 
L 609.024879 506.55461 
L 610.089682 506.789433 
L 611.210526 506.798708 
L 612.611582 506.570974 
L 614.180764 506.0834 
L 617.263086 505.015721 
L 618.215804 505.005506 
L 619.336648 505.238885 
L 621.634379 505.789446 
L 622.811266 505.783323 
L 625.725461 505.62883 
L 627.294643 505.916701 
L 628.751741 506.11277 
L 629.704459 506.007728 
L 630.601134 505.677625 
L 631.609894 505.052752 
L 633.235119 503.721786 
L 634.692216 502.633398 
L 635.700976 502.158017 
L 636.653694 501.966006 
L 637.662454 502.000815 
L 638.839341 502.280016 
L 640.128312 502.826588 
L 641.809579 503.811803 
L 643.546887 504.769665 
L 644.61169 505.106466 
L 645.676492 505.207364 
L 647.357758 505.093635 
L 649.375278 505.034046 
L 651.616967 504.969898 
L 653.46636 504.616619 
L 655.091585 504.400861 
L 659.51892 504.298019 
L 660.471638 504.457566 
L 661.368314 504.838313 
L 662.601242 505.642682 
L 664.114382 506.585585 
L 665.011058 506.892694 
L 665.907733 506.97121 
L 666.916493 506.835076 
L 668.149422 506.433835 
L 669.718604 505.665912 
L 671.287787 504.953602 
L 672.12842 504.80451 
L 672.969053 504.887798 
L 673.977813 505.236045 
L 675.266784 505.772493 
L 675.266784 505.772493 
" clip-path="url(#p789d5606e4)" style="fill: none; stroke: #ff0000; stroke-width: 1.5; stroke-linecap: square"/>
   </g>
   <g id="patch_3">
    <path d="M 87 640.3185 
L 87 39.1875 
" style="fill: none; stroke: #000000; stroke-width: 0.8; stroke-linejoin: miter; stroke-linecap: square"/>
   </g>
   <g id="patch_4">
    <path d="M 703.279488 640.3185 
L 703.279488 39.1875 
" style="fill: none; stroke: #000000; stroke-width: 0.8; stroke-linejoin: miter; stroke-linecap: square"/>
   </g>
   <g id="patch_5">
    <path d="M 87 640.3185 
L 703.279488 640.3185 
" style="fill: none; stroke: #000000; stroke-width: 0.8; stroke-linejoin: miter; stroke-linecap: square"/>
   </g>
   <g id="patch_6">
    <path d="M 87 39.1875 
L 703.279488 39.1875 
" style="fill: none; stroke: #000000; stroke-width: 0.8; stroke-linejoin: miter; stroke-linecap: square"/>
   </g>
  </g>
 </g>
 <defs>
  <clipPath id="p789d5606e4">
   <rect x="87" y="39.1875" width="616.279488" height="601.131"/>
  </clipPath>
 </defs>
</svg>
