<?xml version="1.0" encoding="utf-8" standalone="no"?>
<!DOCTYPE svg PUBLIC "-//W3C//DTD SVG 1.1//EN"
  "http://www.w3.org/Graphics/SVG/1.1/DTD/svg11.dtd">
<svg xmlns:xlink="http://www.w3.org/1999/xlink" width="710.286422pt" height="711.033187pt" viewBox="0 0 710.286422 711.033187" xmlns="http://www.w3.org/2000/svg" version="1.1">
 <metadata>
  <rdf:RDF xmlns:dc="http://purl.org/dc/elements/1.1/" xmlns:cc="http://creativecommons.org/ns#" xmlns:rdf="http://www.w3.org/1999/02/22-rdf-syntax-ns#">
   <cc:Work>
    <dc:type rdf:resource="http://purl.org/dc/dcmitype/StillImage"/>
    <dc:date>2025-02-05T17:09:33.504982</dc:date>
    <dc:format>image/svg+xml</dc:format>
    <dc:creator>
     <cc:Agent>
      <dc:title>Matplotlib v3.9.3, https://matplotlib.org/</dc:title>
     </cc:Agent>
    </dc:creator>
   </cc:Work>
  </rdf:RDF>
 </metadata>
 <defs>
  <style type="text/css">*{stroke-linejoin: round; stroke-linecap: butt}</style>
 </defs>
 <g id="figure_1">
  <g id="patch_1">
   <path d="M 0 711.033187 
L 710.286422 711.033187 
L 710.286422 0 
L 0 0 
z
" style="fill: #ffffff"/>
  </g>
  <g id="axes_1">
   <g id="patch_2">
    <path d="M 82.8 643.1985 
L 703.086422 643.1985 
L 703.086422 39.1875 
L 82.8 39.1875 
z
" style="fill: #ffffff"/>
   </g>
   <g id="matplotlib.axis_1">
    <g id="xtick_1">
     <g id="line2d_1">
      <defs>
       <path id="mcd88b1e6fd" d="M 0 0 
L 0 -3.5 
" style="stroke: #000000; stroke-width: 0.8"/>
      </defs>
      <g>
       <use xlink:href="#mcd88b1e6fd" x="110.882024" y="643.1985" style="stroke: #000000; stroke-width: 0.8"/>
      </g>
     </g>
     <g id="text_1">
      <!-- 0 -->
      <g transform="translate(103.374759 666.265062) scale(0.27 -0.27)">
       <defs>
        <path id="LiberationSans-30" d="M 3309 2203 
Q 3309 1100 2920 518 
Q 2531 -63 1772 -63 
Q 1013 -63 631 515 
Q 250 1094 250 2203 
Q 250 3338 620 3903 
Q 991 4469 1791 4469 
Q 2569 4469 2939 3897 
Q 3309 3325 3309 2203 
z
M 2738 2203 
Q 2738 3156 2517 3584 
Q 2297 4013 1791 4013 
Q 1272 4013 1045 3591 
Q 819 3169 819 2203 
Q 819 1266 1048 831 
Q 1278 397 1778 397 
Q 2275 397 2506 840 
Q 2738 1284 2738 2203 
z
" transform="scale(0.015625)"/>
       </defs>
       <use xlink:href="#LiberationSans-30"/>
      </g>
     </g>
    </g>
    <g id="xtick_2">
     <g id="line2d_2">
      <g>
       <use xlink:href="#mcd88b1e6fd" x="223.695218" y="643.1985" style="stroke: #000000; stroke-width: 0.8"/>
      </g>
     </g>
     <g id="text_2">
      <!-- 2 -->
      <g transform="translate(216.187952 666.265062) scale(0.27 -0.27)">
       <defs>
        <path id="LiberationSans-32" d="M 322 0 
L 322 397 
Q 481 763 711 1042 
Q 941 1322 1194 1548 
Q 1447 1775 1695 1969 
Q 1944 2163 2144 2356 
Q 2344 2550 2467 2762 
Q 2591 2975 2591 3244 
Q 2591 3606 2378 3806 
Q 2166 4006 1788 4006 
Q 1428 4006 1195 3811 
Q 963 3616 922 3263 
L 347 3316 
Q 409 3844 795 4156 
Q 1181 4469 1788 4469 
Q 2453 4469 2811 4155 
Q 3169 3841 3169 3263 
Q 3169 3006 3051 2753 
Q 2934 2500 2703 2247 
Q 2472 1994 1819 1463 
Q 1459 1169 1246 933 
Q 1034 697 941 478 
L 3238 478 
L 3238 0 
L 322 0 
z
" transform="scale(0.015625)"/>
       </defs>
       <use xlink:href="#LiberationSans-32"/>
      </g>
     </g>
    </g>
    <g id="xtick_3">
     <g id="line2d_3">
      <g>
       <use xlink:href="#mcd88b1e6fd" x="336.508411" y="643.1985" style="stroke: #000000; stroke-width: 0.8"/>
      </g>
     </g>
     <g id="text_3">
      <!-- 4 -->
      <g transform="translate(329.001145 666.265062) scale(0.27 -0.27)">
       <defs>
        <path id="LiberationSans-34" d="M 2753 997 
L 2753 0 
L 2222 0 
L 2222 997 
L 147 997 
L 147 1434 
L 2163 4403 
L 2753 4403 
L 2753 1441 
L 3372 1441 
L 3372 997 
L 2753 997 
z
M 2222 3769 
Q 2216 3750 2134 3603 
Q 2053 3456 2013 3397 
L 884 1734 
L 716 1503 
L 666 1441 
L 2222 1441 
L 2222 3769 
z
" transform="scale(0.015625)"/>
       </defs>
       <use xlink:href="#LiberationSans-34"/>
      </g>
     </g>
    </g>
    <g id="xtick_4">
     <g id="line2d_4">
      <g>
       <use xlink:href="#mcd88b1e6fd" x="449.321604" y="643.1985" style="stroke: #000000; stroke-width: 0.8"/>
      </g>
     </g>
     <g id="text_4">
      <!-- 6 -->
      <g transform="translate(441.814339 666.265062) scale(0.27 -0.27)">
       <defs>
        <path id="LiberationSans-36" d="M 3278 1441 
Q 3278 744 2900 340 
Q 2522 -63 1856 -63 
Q 1113 -63 719 490 
Q 325 1044 325 2100 
Q 325 3244 734 3856 
Q 1144 4469 1900 4469 
Q 2897 4469 3156 3572 
L 2619 3475 
Q 2453 4013 1894 4013 
Q 1413 4013 1148 3564 
Q 884 3116 884 2266 
Q 1038 2550 1316 2698 
Q 1594 2847 1953 2847 
Q 2563 2847 2920 2465 
Q 3278 2084 3278 1441 
z
M 2706 1416 
Q 2706 1894 2472 2153 
Q 2238 2413 1819 2413 
Q 1425 2413 1183 2183 
Q 941 1953 941 1550 
Q 941 1041 1192 716 
Q 1444 391 1838 391 
Q 2244 391 2475 664 
Q 2706 938 2706 1416 
z
" transform="scale(0.015625)"/>
       </defs>
       <use xlink:href="#LiberationSans-36"/>
      </g>
     </g>
    </g>
    <g id="xtick_5">
     <g id="line2d_5">
      <g>
       <use xlink:href="#mcd88b1e6fd" x="562.134798" y="643.1985" style="stroke: #000000; stroke-width: 0.8"/>
      </g>
     </g>
     <g id="text_5">
      <!-- 8 -->
      <g transform="translate(554.627532 666.265062) scale(0.27 -0.27)">
       <defs>
        <path id="LiberationSans-38" d="M 3281 1228 
Q 3281 619 2893 278 
Q 2506 -63 1781 -63 
Q 1075 -63 676 271 
Q 278 606 278 1222 
Q 278 1653 525 1947 
Q 772 2241 1156 2303 
L 1156 2316 
Q 797 2400 589 2681 
Q 381 2963 381 3341 
Q 381 3844 757 4156 
Q 1134 4469 1769 4469 
Q 2419 4469 2795 4162 
Q 3172 3856 3172 3334 
Q 3172 2956 2962 2675 
Q 2753 2394 2391 2322 
L 2391 2309 
Q 2813 2241 3047 1952 
Q 3281 1663 3281 1228 
z
M 2588 3303 
Q 2588 4050 1769 4050 
Q 1372 4050 1164 3862 
Q 956 3675 956 3303 
Q 956 2925 1170 2726 
Q 1384 2528 1775 2528 
Q 2172 2528 2380 2711 
Q 2588 2894 2588 3303 
z
M 2697 1281 
Q 2697 1691 2453 1898 
Q 2209 2106 1769 2106 
Q 1341 2106 1100 1882 
Q 859 1659 859 1269 
Q 859 359 1788 359 
Q 2247 359 2472 579 
Q 2697 800 2697 1281 
z
" transform="scale(0.015625)"/>
       </defs>
       <use xlink:href="#LiberationSans-38"/>
      </g>
     </g>
    </g>
    <g id="xtick_6">
     <g id="line2d_6">
      <g>
       <use xlink:href="#mcd88b1e6fd" x="674.947991" y="643.1985" style="stroke: #000000; stroke-width: 0.8"/>
      </g>
     </g>
     <g id="text_6">
      <!-- 10 -->
      <g transform="translate(659.93346 666.265062) scale(0.27 -0.27)">
       <defs>
        <path id="LiberationSans-31" d="M 488 0 
L 488 478 
L 1609 478 
L 1609 3866 
L 616 3156 
L 616 3688 
L 1656 4403 
L 2175 4403 
L 2175 478 
L 3247 478 
L 3247 0 
L 488 0 
z
" transform="scale(0.015625)"/>
       </defs>
       <use xlink:href="#LiberationSans-31"/>
       <use xlink:href="#LiberationSans-30" x="55.615234"/>
      </g>
     </g>
    </g>
    <g id="xtick_7">
     <g id="line2d_7">
      <defs>
       <path id="m7da2640f84" d="M 0 0 
L 0 -2 
" style="stroke: #000000; stroke-width: 0.6"/>
      </defs>
      <g>
       <use xlink:href="#m7da2640f84" x="139.085323" y="643.1985" style="stroke: #000000; stroke-width: 0.6"/>
      </g>
     </g>
    </g>
    <g id="xtick_8">
     <g id="line2d_8">
      <g>
       <use xlink:href="#m7da2640f84" x="167.288621" y="643.1985" style="stroke: #000000; stroke-width: 0.6"/>
      </g>
     </g>
    </g>
    <g id="xtick_9">
     <g id="line2d_9">
      <g>
       <use xlink:href="#m7da2640f84" x="195.491919" y="643.1985" style="stroke: #000000; stroke-width: 0.6"/>
      </g>
     </g>
    </g>
    <g id="xtick_10">
     <g id="line2d_10">
      <g>
       <use xlink:href="#m7da2640f84" x="251.898516" y="643.1985" style="stroke: #000000; stroke-width: 0.6"/>
      </g>
     </g>
    </g>
    <g id="xtick_11">
     <g id="line2d_11">
      <g>
       <use xlink:href="#m7da2640f84" x="280.101814" y="643.1985" style="stroke: #000000; stroke-width: 0.6"/>
      </g>
     </g>
    </g>
    <g id="xtick_12">
     <g id="line2d_12">
      <g>
       <use xlink:href="#m7da2640f84" x="308.305113" y="643.1985" style="stroke: #000000; stroke-width: 0.6"/>
      </g>
     </g>
    </g>
    <g id="xtick_13">
     <g id="line2d_13">
      <g>
       <use xlink:href="#m7da2640f84" x="364.711709" y="643.1985" style="stroke: #000000; stroke-width: 0.6"/>
      </g>
     </g>
    </g>
    <g id="xtick_14">
     <g id="line2d_14">
      <g>
       <use xlink:href="#m7da2640f84" x="392.915008" y="643.1985" style="stroke: #000000; stroke-width: 0.6"/>
      </g>
     </g>
    </g>
    <g id="xtick_15">
     <g id="line2d_15">
      <g>
       <use xlink:href="#m7da2640f84" x="421.118306" y="643.1985" style="stroke: #000000; stroke-width: 0.6"/>
      </g>
     </g>
    </g>
    <g id="xtick_16">
     <g id="line2d_16">
      <g>
       <use xlink:href="#m7da2640f84" x="477.524903" y="643.1985" style="stroke: #000000; stroke-width: 0.6"/>
      </g>
     </g>
    </g>
    <g id="xtick_17">
     <g id="line2d_17">
      <g>
       <use xlink:href="#m7da2640f84" x="505.728201" y="643.1985" style="stroke: #000000; stroke-width: 0.6"/>
      </g>
     </g>
    </g>
    <g id="xtick_18">
     <g id="line2d_18">
      <g>
       <use xlink:href="#m7da2640f84" x="533.931499" y="643.1985" style="stroke: #000000; stroke-width: 0.6"/>
      </g>
     </g>
    </g>
    <g id="xtick_19">
     <g id="line2d_19">
      <g>
       <use xlink:href="#m7da2640f84" x="590.338096" y="643.1985" style="stroke: #000000; stroke-width: 0.6"/>
      </g>
     </g>
    </g>
    <g id="xtick_20">
     <g id="line2d_20">
      <g>
       <use xlink:href="#m7da2640f84" x="618.541394" y="643.1985" style="stroke: #000000; stroke-width: 0.6"/>
      </g>
     </g>
    </g>
    <g id="xtick_21">
     <g id="line2d_21">
      <g>
       <use xlink:href="#m7da2640f84" x="646.744693" y="643.1985" style="stroke: #000000; stroke-width: 0.6"/>
      </g>
     </g>
    </g>
    <g id="text_7">
     <!-- Time ps -->
     <g transform="translate(340.166648 697.608187) scale(0.3 -0.3)">
      <defs>
       <path id="LiberationSans-54" d="M 2250 3916 
L 2250 0 
L 1656 0 
L 1656 3916 
L 144 3916 
L 144 4403 
L 3763 4403 
L 3763 3916 
L 2250 3916 
z
" transform="scale(0.015625)"/>
       <path id="LiberationSans-69" d="M 428 4100 
L 428 4638 
L 991 4638 
L 991 4100 
L 428 4100 
z
M 428 0 
L 428 3381 
L 991 3381 
L 991 0 
L 428 0 
z
" transform="scale(0.015625)"/>
       <path id="LiberationSans-6d" d="M 2400 0 
L 2400 2144 
Q 2400 2634 2265 2821 
Q 2131 3009 1781 3009 
Q 1422 3009 1212 2734 
Q 1003 2459 1003 1959 
L 1003 0 
L 444 0 
L 444 2659 
Q 444 3250 425 3381 
L 956 3381 
Q 959 3366 962 3297 
Q 966 3228 970 3139 
Q 975 3050 981 2803 
L 991 2803 
Q 1172 3163 1406 3303 
Q 1641 3444 1978 3444 
Q 2363 3444 2586 3291 
Q 2809 3138 2897 2803 
L 2906 2803 
Q 3081 3144 3329 3294 
Q 3578 3444 3931 3444 
Q 4444 3444 4676 3166 
Q 4909 2888 4909 2253 
L 4909 0 
L 4353 0 
L 4353 2144 
Q 4353 2634 4218 2821 
Q 4084 3009 3734 3009 
Q 3366 3009 3161 2736 
Q 2956 2463 2956 1959 
L 2956 0 
L 2400 0 
z
" transform="scale(0.015625)"/>
       <path id="LiberationSans-65" d="M 863 1572 
Q 863 991 1103 675 
Q 1344 359 1806 359 
Q 2172 359 2392 506 
Q 2613 653 2691 878 
L 3184 738 
Q 2881 -63 1806 -63 
Q 1056 -63 664 384 
Q 272 831 272 1713 
Q 272 2550 664 2997 
Q 1056 3444 1784 3444 
Q 3275 3444 3275 1647 
L 3275 1572 
L 863 1572 
z
M 2694 2003 
Q 2647 2538 2422 2783 
Q 2197 3028 1775 3028 
Q 1366 3028 1127 2754 
Q 888 2481 869 2003 
L 2694 2003 
z
" transform="scale(0.015625)"/>
       <path id="LiberationSans-20" transform="scale(0.015625)"/>
       <path id="LiberationSans-70" d="M 3291 1706 
Q 3291 -63 2047 -63 
Q 1266 -63 997 525 
L 981 525 
Q 994 500 994 -6 
L 994 -1328 
L 431 -1328 
L 431 2691 
Q 431 3213 413 3381 
L 956 3381 
Q 959 3369 965 3292 
Q 972 3216 980 3056 
Q 988 2897 988 2838 
L 1000 2838 
Q 1150 3150 1397 3295 
Q 1644 3441 2047 3441 
Q 2672 3441 2981 3022 
Q 3291 2603 3291 1706 
z
M 2700 1694 
Q 2700 2400 2509 2703 
Q 2319 3006 1903 3006 
Q 1569 3006 1380 2865 
Q 1191 2725 1092 2426 
Q 994 2128 994 1650 
Q 994 984 1206 668 
Q 1419 353 1897 353 
Q 2316 353 2508 661 
Q 2700 969 2700 1694 
z
" transform="scale(0.015625)"/>
       <path id="LiberationSans-73" d="M 2969 934 
Q 2969 456 2608 196 
Q 2247 -63 1597 -63 
Q 966 -63 623 145 
Q 281 353 178 794 
L 675 891 
Q 747 619 972 492 
Q 1197 366 1597 366 
Q 2025 366 2223 497 
Q 2422 628 2422 891 
Q 2422 1091 2284 1216 
Q 2147 1341 1841 1422 
L 1438 1528 
Q 953 1653 748 1773 
Q 544 1894 428 2066 
Q 313 2238 313 2488 
Q 313 2950 642 3192 
Q 972 3434 1603 3434 
Q 2163 3434 2492 3237 
Q 2822 3041 2909 2606 
L 2403 2544 
Q 2356 2769 2151 2889 
Q 1947 3009 1603 3009 
Q 1222 3009 1040 2893 
Q 859 2778 859 2544 
Q 859 2400 934 2306 
Q 1009 2213 1156 2147 
Q 1303 2081 1775 1966 
Q 2222 1853 2419 1758 
Q 2616 1663 2730 1547 
Q 2844 1431 2906 1279 
Q 2969 1128 2969 934 
z
" transform="scale(0.015625)"/>
      </defs>
      <use xlink:href="#LiberationSans-54"/>
      <use xlink:href="#LiberationSans-69" x="57.333984"/>
      <use xlink:href="#LiberationSans-6d" x="79.550781"/>
      <use xlink:href="#LiberationSans-65" x="162.851562"/>
      <use xlink:href="#LiberationSans-20" x="218.466797"/>
      <use xlink:href="#LiberationSans-70" x="246.25"/>
      <use xlink:href="#LiberationSans-73" x="301.865234"/>
     </g>
    </g>
   </g>
   <g id="matplotlib.axis_2">
    <g id="ytick_1">
     <g id="line2d_22">
      <defs>
       <path id="mdf30aa9f71" d="M 0 0 
L 3.5 0 
" style="stroke: #000000; stroke-width: 0.8"/>
      </defs>
      <g>
       <use xlink:href="#mdf30aa9f71" x="82.8" y="632.831722" style="stroke: #000000; stroke-width: 0.8"/>
      </g>
     </g>
     <g id="text_8">
      <!-- $\mathdefault{0.0}$ -->
      <g transform="translate(41.5 642.615004) scale(0.27 -0.27)">
       <defs>
        <path id="LiberationSans-2e" d="M 584 0 
L 584 684 
L 1194 684 
L 1194 0 
L 584 0 
z
" transform="scale(0.015625)"/>
       </defs>
       <use xlink:href="#LiberationSans-30" transform="translate(0 0.171875)"/>
       <use xlink:href="#LiberationSans-2e" transform="translate(55.615234 0.171875)"/>
       <use xlink:href="#LiberationSans-30" transform="translate(83.398438 0.171875)"/>
      </g>
     </g>
    </g>
    <g id="ytick_2">
     <g id="line2d_23">
      <g>
       <use xlink:href="#mdf30aa9f71" x="82.8" y="514.738412" style="stroke: #000000; stroke-width: 0.8"/>
      </g>
     </g>
     <g id="text_9">
      <!-- $\mathdefault{0.5}$ -->
      <g transform="translate(41.5 524.521694) scale(0.27 -0.27)">
       <defs>
        <path id="LiberationSans-35" d="M 3291 1434 
Q 3291 738 2877 337 
Q 2463 -63 1728 -63 
Q 1113 -63 734 206 
Q 356 475 256 984 
L 825 1050 
Q 1003 397 1741 397 
Q 2194 397 2450 670 
Q 2706 944 2706 1422 
Q 2706 1838 2448 2094 
Q 2191 2350 1753 2350 
Q 1525 2350 1328 2278 
Q 1131 2206 934 2034 
L 384 2034 
L 531 4403 
L 3034 4403 
L 3034 3925 
L 1044 3925 
L 959 2528 
Q 1325 2809 1869 2809 
Q 2519 2809 2905 2428 
Q 3291 2047 3291 1434 
z
" transform="scale(0.015625)"/>
       </defs>
       <use xlink:href="#LiberationSans-30" transform="translate(0 0.171875)"/>
       <use xlink:href="#LiberationSans-2e" transform="translate(55.615234 0.171875)"/>
       <use xlink:href="#LiberationSans-35" transform="translate(83.398438 0.171875)"/>
      </g>
     </g>
    </g>
    <g id="ytick_3">
     <g id="line2d_24">
      <g>
       <use xlink:href="#mdf30aa9f71" x="82.8" y="396.645102" style="stroke: #000000; stroke-width: 0.8"/>
      </g>
     </g>
     <g id="text_10">
      <!-- $\mathdefault{1.0}$ -->
      <g transform="translate(41.5 406.428384) scale(0.27 -0.27)">
       <use xlink:href="#LiberationSans-31" transform="translate(0 0.171875)"/>
       <use xlink:href="#LiberationSans-2e" transform="translate(55.615234 0.171875)"/>
       <use xlink:href="#LiberationSans-30" transform="translate(83.398438 0.171875)"/>
      </g>
     </g>
    </g>
    <g id="ytick_4">
     <g id="line2d_25">
      <g>
       <use xlink:href="#mdf30aa9f71" x="82.8" y="278.551792" style="stroke: #000000; stroke-width: 0.8"/>
      </g>
     </g>
     <g id="text_11">
      <!-- $\mathdefault{1.5}$ -->
      <g transform="translate(41.5 288.335074) scale(0.27 -0.27)">
       <use xlink:href="#LiberationSans-31" transform="translate(0 0.203125)"/>
       <use xlink:href="#LiberationSans-2e" transform="translate(55.615234 0.203125)"/>
       <use xlink:href="#LiberationSans-35" transform="translate(83.398438 0.203125)"/>
      </g>
     </g>
    </g>
    <g id="ytick_5">
     <g id="line2d_26">
      <g>
       <use xlink:href="#mdf30aa9f71" x="82.8" y="160.458482" style="stroke: #000000; stroke-width: 0.8"/>
      </g>
     </g>
     <g id="text_12">
      <!-- $\mathdefault{2.0}$ -->
      <g transform="translate(41.5 170.241763) scale(0.27 -0.27)">
       <use xlink:href="#LiberationSans-32" transform="translate(0 0.171875)"/>
       <use xlink:href="#LiberationSans-2e" transform="translate(55.615234 0.171875)"/>
       <use xlink:href="#LiberationSans-30" transform="translate(83.398438 0.171875)"/>
      </g>
     </g>
    </g>
    <g id="ytick_6">
     <g id="line2d_27">
      <g>
       <use xlink:href="#mdf30aa9f71" x="82.8" y="42.365172" style="stroke: #000000; stroke-width: 0.8"/>
      </g>
     </g>
     <g id="text_13">
      <!-- $\mathdefault{2.5}$ -->
      <g transform="translate(41.5 52.148453) scale(0.27 -0.27)">
       <use xlink:href="#LiberationSans-32" transform="translate(0 0.171875)"/>
       <use xlink:href="#LiberationSans-2e" transform="translate(55.615234 0.171875)"/>
       <use xlink:href="#LiberationSans-35" transform="translate(83.398438 0.171875)"/>
      </g>
     </g>
    </g>
    <g id="ytick_7">
     <g id="line2d_28">
      <defs>
       <path id="m574ecf838e" d="M 0 0 
L 2 0 
" style="stroke: #000000; stroke-width: 0.6"/>
      </defs>
      <g>
       <use xlink:href="#m574ecf838e" x="82.8" y="609.21306" style="stroke: #000000; stroke-width: 0.6"/>
      </g>
     </g>
    </g>
    <g id="ytick_8">
     <g id="line2d_29">
      <g>
       <use xlink:href="#m574ecf838e" x="82.8" y="585.594398" style="stroke: #000000; stroke-width: 0.6"/>
      </g>
     </g>
    </g>
    <g id="ytick_9">
     <g id="line2d_30">
      <g>
       <use xlink:href="#m574ecf838e" x="82.8" y="561.975736" style="stroke: #000000; stroke-width: 0.6"/>
      </g>
     </g>
    </g>
    <g id="ytick_10">
     <g id="line2d_31">
      <g>
       <use xlink:href="#m574ecf838e" x="82.8" y="538.357074" style="stroke: #000000; stroke-width: 0.6"/>
      </g>
     </g>
    </g>
    <g id="ytick_11">
     <g id="line2d_32">
      <g>
       <use xlink:href="#m574ecf838e" x="82.8" y="491.11975" style="stroke: #000000; stroke-width: 0.6"/>
      </g>
     </g>
    </g>
    <g id="ytick_12">
     <g id="line2d_33">
      <g>
       <use xlink:href="#m574ecf838e" x="82.8" y="467.501088" style="stroke: #000000; stroke-width: 0.6"/>
      </g>
     </g>
    </g>
    <g id="ytick_13">
     <g id="line2d_34">
      <g>
       <use xlink:href="#m574ecf838e" x="82.8" y="443.882426" style="stroke: #000000; stroke-width: 0.6"/>
      </g>
     </g>
    </g>
    <g id="ytick_14">
     <g id="line2d_35">
      <g>
       <use xlink:href="#m574ecf838e" x="82.8" y="420.263764" style="stroke: #000000; stroke-width: 0.6"/>
      </g>
     </g>
    </g>
    <g id="ytick_15">
     <g id="line2d_36">
      <g>
       <use xlink:href="#m574ecf838e" x="82.8" y="373.02644" style="stroke: #000000; stroke-width: 0.6"/>
      </g>
     </g>
    </g>
    <g id="ytick_16">
     <g id="line2d_37">
      <g>
       <use xlink:href="#m574ecf838e" x="82.8" y="349.407778" style="stroke: #000000; stroke-width: 0.6"/>
      </g>
     </g>
    </g>
    <g id="ytick_17">
     <g id="line2d_38">
      <g>
       <use xlink:href="#m574ecf838e" x="82.8" y="325.789116" style="stroke: #000000; stroke-width: 0.6"/>
      </g>
     </g>
    </g>
    <g id="ytick_18">
     <g id="line2d_39">
      <g>
       <use xlink:href="#m574ecf838e" x="82.8" y="302.170454" style="stroke: #000000; stroke-width: 0.6"/>
      </g>
     </g>
    </g>
    <g id="ytick_19">
     <g id="line2d_40">
      <g>
       <use xlink:href="#m574ecf838e" x="82.8" y="254.93313" style="stroke: #000000; stroke-width: 0.6"/>
      </g>
     </g>
    </g>
    <g id="ytick_20">
     <g id="line2d_41">
      <g>
       <use xlink:href="#m574ecf838e" x="82.8" y="231.314468" style="stroke: #000000; stroke-width: 0.6"/>
      </g>
     </g>
    </g>
    <g id="ytick_21">
     <g id="line2d_42">
      <g>
       <use xlink:href="#m574ecf838e" x="82.8" y="207.695806" style="stroke: #000000; stroke-width: 0.6"/>
      </g>
     </g>
    </g>
    <g id="ytick_22">
     <g id="line2d_43">
      <g>
       <use xlink:href="#m574ecf838e" x="82.8" y="184.077144" style="stroke: #000000; stroke-width: 0.6"/>
      </g>
     </g>
    </g>
    <g id="ytick_23">
     <g id="line2d_44">
      <g>
       <use xlink:href="#m574ecf838e" x="82.8" y="136.83982" style="stroke: #000000; stroke-width: 0.6"/>
      </g>
     </g>
    </g>
    <g id="ytick_24">
     <g id="line2d_45">
      <g>
       <use xlink:href="#m574ecf838e" x="82.8" y="113.221158" style="stroke: #000000; stroke-width: 0.6"/>
      </g>
     </g>
    </g>
    <g id="ytick_25">
     <g id="line2d_46">
      <g>
       <use xlink:href="#m574ecf838e" x="82.8" y="89.602496" style="stroke: #000000; stroke-width: 0.6"/>
      </g>
     </g>
    </g>
    <g id="ytick_26">
     <g id="line2d_47">
      <g>
       <use xlink:href="#m574ecf838e" x="82.8" y="65.983834" style="stroke: #000000; stroke-width: 0.6"/>
      </g>
     </g>
    </g>
    <g id="text_14">
     <!-- ITC $\mathrm{W} / (\mathrm{K} \cdot \mathrm{m}^2)$ -->
     <g transform="translate(31.275 435.243) rotate(-90) scale(0.3 -0.3)">
      <defs>
       <path id="LiberationSans-49" d="M 591 0 
L 591 4403 
L 1188 4403 
L 1188 0 
L 591 0 
z
" transform="scale(0.015625)"/>
       <path id="LiberationSans-43" d="M 2475 3981 
Q 1744 3981 1337 3511 
Q 931 3041 931 2222 
Q 931 1413 1354 920 
Q 1778 428 2500 428 
Q 3425 428 3891 1344 
L 4378 1100 
Q 4106 531 3614 234 
Q 3122 -63 2472 -63 
Q 1806 -63 1320 214 
Q 834 491 579 1005 
Q 325 1519 325 2222 
Q 325 3275 894 3872 
Q 1463 4469 2469 4469 
Q 3172 4469 3644 4194 
Q 4116 3919 4338 3378 
L 3772 3191 
Q 3619 3575 3280 3778 
Q 2941 3981 2475 3981 
z
" transform="scale(0.015625)"/>
       <path id="STIXGeneral-Regular-57" d="M 5965 4237 
L 5965 4115 
Q 5709 4064 5616 3990 
Q 5523 3917 5434 3667 
Q 4704 1709 4128 -70 
L 4032 -70 
Q 3642 1011 3008 2637 
L 2022 -70 
L 1926 -70 
Q 1709 576 1277 1753 
Q 845 2931 698 3347 
Q 538 3808 406 3958 
Q 275 4109 32 4115 
L 32 4237 
L 1594 4237 
L 1594 4115 
Q 1357 4109 1270 4064 
Q 1184 4019 1184 3917 
Q 1184 3808 1254 3616 
L 2176 1210 
L 2842 3021 
L 2662 3501 
Q 2509 3917 2400 4013 
Q 2291 4109 2010 4115 
L 2010 4237 
L 3706 4237 
L 3706 4115 
Q 3213 4102 3213 3891 
Q 3213 3808 3322 3520 
L 4237 1190 
L 5043 3360 
Q 5152 3667 5152 3853 
Q 5152 4109 4704 4115 
L 4704 4237 
L 5965 4237 
z
" transform="scale(0.015625)"/>
       <path id="STIXGeneral-Regular-2f" d="M 1837 4326 
L 378 -90 
L -58 -90 
L 1408 4326 
L 1837 4326 
z
" transform="scale(0.015625)"/>
       <path id="STIXGeneral-Regular-28" d="M 1946 -1030 
L 1869 -1133 
Q 1126 -710 716 32 
Q 307 774 307 1613 
Q 307 3386 1888 4326 
L 1946 4224 
Q 1293 3667 1075 3126 
Q 858 2586 858 1632 
Q 858 685 1082 96 
Q 1306 -493 1946 -1030 
z
" transform="scale(0.015625)"/>
       <path id="STIXGeneral-Regular-4b" d="M 4627 0 
L 2688 0 
L 2688 122 
L 2861 128 
Q 3130 134 3130 282 
Q 3130 397 2922 643 
Q 2714 890 2253 1370 
L 1613 2029 
L 1446 1894 
L 1446 710 
Q 1446 352 1548 253 
Q 1651 154 2016 122 
L 2016 0 
L 211 0 
L 211 122 
Q 589 141 691 262 
Q 794 384 794 800 
L 794 3514 
Q 794 3872 691 3981 
Q 589 4090 218 4115 
L 218 4237 
L 2022 4237 
L 2022 4115 
Q 1632 4090 1539 3987 
Q 1446 3885 1446 3507 
L 1446 2227 
L 2586 3277 
Q 2861 3533 2973 3667 
Q 3085 3802 3085 3910 
Q 3085 4013 3030 4057 
Q 2976 4102 2822 4109 
L 2662 4115 
L 2662 4237 
L 4320 4237 
L 4320 4115 
Q 3994 4090 3824 4003 
Q 3654 3917 3322 3597 
L 2131 2458 
L 3629 819 
Q 4026 384 4214 253 
Q 4403 122 4627 122 
L 4627 0 
z
" transform="scale(0.015625)"/>
       <path id="STIXGeneral-Regular-22c5" d="M 1187 1888 
Q 1299 1773 1299 1619 
Q 1299 1466 1187 1350 
Q 1075 1235 921 1235 
Q 768 1235 649 1353 
Q 531 1472 531 1619 
Q 531 1766 649 1884 
Q 768 2003 921 2003 
Q 1075 2003 1187 1888 
z
" transform="scale(0.015625)"/>
       <path id="STIXGeneral-Regular-6d" d="M 4960 0 
L 3565 0 
L 3565 96 
Q 3834 122 3907 208 
Q 3981 294 3981 576 
L 3981 1894 
Q 3981 2278 3869 2444 
Q 3757 2611 3488 2611 
Q 3264 2611 3107 2521 
Q 2950 2432 2803 2221 
L 2803 608 
Q 2803 301 2896 201 
Q 2989 102 3264 96 
L 3264 0 
L 1830 0 
L 1830 96 
Q 2112 115 2189 188 
Q 2266 262 2266 550 
L 2266 1901 
Q 2266 2611 1850 2611 
Q 1670 2611 1468 2531 
Q 1267 2451 1171 2336 
Q 1088 2240 1088 2227 
L 1088 448 
Q 1088 243 1177 176 
Q 1267 109 1523 96 
L 1523 0 
L 102 0 
L 102 96 
Q 371 102 460 195 
Q 550 288 550 563 
L 550 2150 
Q 550 2387 499 2480 
Q 448 2573 326 2573 
Q 230 2573 122 2547 
L 122 2656 
Q 557 2778 1011 2944 
L 1062 2925 
L 1062 2451 
L 1075 2451 
Q 1363 2752 1584 2848 
Q 1805 2944 2054 2944 
Q 2560 2944 2733 2406 
Q 3232 2944 3776 2944 
Q 4518 2944 4518 1792 
L 4518 493 
Q 4518 282 4582 202 
Q 4646 122 4794 109 
L 4960 96 
L 4960 0 
z
" transform="scale(0.015625)"/>
       <path id="STIXGeneral-Regular-32" d="M 3034 877 
L 2688 0 
L 186 0 
L 186 77 
L 1325 1286 
Q 1773 1754 1965 2144 
Q 2157 2534 2157 2950 
Q 2157 3379 1920 3616 
Q 1683 3853 1267 3853 
Q 922 3853 720 3673 
Q 518 3494 326 3021 
L 192 3053 
Q 301 3648 630 3987 
Q 960 4326 1523 4326 
Q 2054 4326 2380 4006 
Q 2707 3686 2707 3200 
Q 2707 2477 1888 1613 
L 832 486 
L 2330 486 
Q 2541 486 2665 569 
Q 2790 653 2944 915 
L 3034 877 
z
" transform="scale(0.015625)"/>
       <path id="STIXGeneral-Regular-29" d="M 186 4224 
L 262 4326 
Q 992 3891 1408 3148 
Q 1824 2406 1824 1581 
Q 1824 -166 243 -1133 
L 186 -1030 
Q 845 -486 1059 54 
Q 1274 595 1274 1562 
Q 1274 2534 1059 3120 
Q 845 3706 186 4224 
z
" transform="scale(0.015625)"/>
      </defs>
      <use xlink:href="#LiberationSans-49" transform="translate(0 0.409375)"/>
      <use xlink:href="#LiberationSans-54" transform="translate(27.783203 0.409375)"/>
      <use xlink:href="#LiberationSans-43" transform="translate(88.867188 0.409375)"/>
      <use xlink:href="#LiberationSans-20" transform="translate(161.083984 0.409375)"/>
      <use xlink:href="#STIXGeneral-Regular-57" transform="translate(188.867188 0.409375)"/>
      <use xlink:href="#STIXGeneral-Regular-2f" transform="translate(283.267181 0.409375)"/>
      <use xlink:href="#STIXGeneral-Regular-28" transform="translate(311.067169 0.409375)"/>
      <use xlink:href="#STIXGeneral-Regular-4b" transform="translate(344.367157 0.409375)"/>
      <use xlink:href="#STIXGeneral-Regular-22c5" transform="translate(431.007135 0.409375)"/>
      <use xlink:href="#STIXGeneral-Regular-6d" transform="translate(474.047122 0.409375)"/>
      <use xlink:href="#STIXGeneral-Regular-32" transform="translate(553.390391 35.684375) scale(0.7)"/>
      <use xlink:href="#STIXGeneral-Regular-29" transform="translate(592.799756 0.409375)"/>
     </g>
    </g>
    <g id="text_15">
     <!-- $\times\mathdefault{10^{7}}\mathdefault{}$ -->
     <g transform="translate(82.8 36.1875) scale(0.4 -0.4)">
      <defs>
       <path id="STIXGeneral-Regular-d7" d="M 3821 141 
L 3526 -160 
L 2048 1312 
L 570 -160 
L 275 134 
L 1747 1613 
L 275 3091 
L 576 3386 
L 2048 1914 
L 3526 3386 
L 3821 3098 
L 2349 1613 
L 3821 141 
z
" transform="scale(0.015625)"/>
       <path id="LiberationSans-37" d="M 3238 3947 
Q 2563 2916 2284 2331 
Q 2006 1747 1867 1178 
Q 1728 609 1728 0 
L 1141 0 
Q 1141 844 1498 1776 
Q 1856 2709 2694 3925 
L 328 3925 
L 328 4403 
L 3238 4403 
L 3238 3947 
z
" transform="scale(0.015625)"/>
      </defs>
      <use xlink:href="#STIXGeneral-Regular-d7" transform="translate(0 0.8625)"/>
      <use xlink:href="#LiberationSans-31" transform="translate(63.999985 0.8625)"/>
      <use xlink:href="#LiberationSans-30" transform="translate(119.615219 0.8625)"/>
      <use xlink:href="#LiberationSans-37" transform="translate(176.154946 37.842188) scale(0.7)"/>
     </g>
    </g>
   </g>
   <g id="line2d_48">
    <path d="M 110.994837 615.743455 
L 112.179376 291.643296 
L 112.856255 162.642803 
L 113.363914 101.619407 
L 113.758761 75.494082 
L 114.040794 67.522796 
L 114.153607 66.642545 
L 114.210013 66.669243 
L 114.322827 67.621608 
L 114.548453 72.898181 
L 114.886893 88.21953 
L 115.394552 124.067012 
L 116.297057 208.249197 
L 117.820036 348.768178 
L 118.722541 412.684273 
L 119.56864 458.137319 
L 120.358332 489.327182 
L 121.035212 507.987779 
L 121.599278 517.883466 
L 122.05053 522.175553 
L 122.332563 523.292939 
L 122.501783 523.415603 
L 122.671003 523.145285 
L 122.896629 522.209454 
L 123.235069 519.68019 
L 123.742728 513.743219 
L 124.476014 502.014458 
L 126.506651 467.88867 
L 127.239937 459.692278 
L 127.804003 455.531822 
L 128.311663 453.274061 
L 128.706509 452.349488 
L 129.044948 452.034602 
L 129.326981 452.039826 
L 129.665421 452.292265 
L 130.17308 452.990337 
L 131.865278 455.981837 
L 132.880597 457.946658 
L 133.501069 459.62946 
L 134.177949 462.17729 
L 134.967641 466.0899 
L 137.787971 481.113306 
L 138.408443 482.911463 
L 138.859696 483.659284 
L 139.198136 483.892025 
L 139.480169 483.873434 
L 139.818608 483.614429 
L 140.269861 482.931928 
L 140.890334 481.519411 
L 141.905652 478.509655 
L 143.541444 473.689746 
L 144.331136 471.965722 
L 144.895202 471.200784 
L 145.346455 470.939041 
L 145.741301 470.971616 
L 146.136147 471.225774 
L 146.643806 471.839929 
L 147.264279 472.994312 
L 148.053971 474.99536 
L 150.423048 481.403084 
L 150.987114 482.157049 
L 151.381961 482.373341 
L 151.7204 482.351544 
L 152.115246 482.077757 
L 152.566499 481.429542 
L 153.130565 480.174817 
L 153.920257 477.777535 
L 155.161203 473.154957 
L 156.402148 468.804199 
L 157.248247 466.583832 
L 157.925126 465.382284 
L 158.489192 464.81672 
L 158.940445 464.649449 
L 159.391697 464.732066 
L 159.899357 465.093064 
L 160.463423 465.784335 
L 161.140302 466.982014 
L 161.986401 468.989706 
L 164.637511 475.760952 
L 165.14517 476.363998 
L 165.540016 476.530579 
L 165.878456 476.444885 
L 166.273302 476.075217 
L 166.780961 475.215604 
L 167.570654 473.335745 
L 169.093632 469.709365 
L 169.826918 468.507148 
L 170.44739 467.87841 
L 170.95505 467.636711 
L 171.462709 467.625829 
L 172.083182 467.862185 
L 173.0985 468.55675 
L 174.283039 469.282096 
L 175.072731 469.509791 
L 175.806017 469.502424 
L 176.708523 469.259375 
L 178.231501 468.834519 
L 178.90838 468.887751 
L 179.585259 469.161259 
L 180.374951 469.726851 
L 181.55949 470.88668 
L 183.195281 472.456666 
L 184.097787 473.016473 
L 184.887479 473.264068 
L 185.733578 473.290212 
L 186.52327 473.096342 
L 187.482182 472.609364 
L 191.148611 470.449966 
L 192.389556 470.143061 
L 194.4766 469.891985 
L 195.943172 469.875189 
L 196.845678 470.091868 
L 197.917403 470.590865 
L 199.609601 471.38709 
L 200.399293 471.511423 
L 201.188985 471.405758 
L 202.091491 471.048222 
L 204.347755 470.041187 
L 205.193854 469.97937 
L 206.152766 470.149289 
L 207.393711 470.620791 
L 209.537162 471.46367 
L 210.496074 471.5772 
L 211.398579 471.471481 
L 212.301085 471.141353 
L 213.37281 470.496558 
L 215.008602 469.501235 
L 215.685481 469.362743 
L 216.249547 469.465072 
L 216.813613 469.802794 
L 217.434085 470.471152 
L 218.167371 471.645894 
L 220.592855 475.935458 
L 221.044108 476.22276 
L 221.438954 476.235816 
L 221.8338 476.006814 
L 222.285053 475.444436 
L 222.849119 474.321933 
L 223.638811 472.152012 
L 225.443822 466.948294 
L 226.064295 465.831298 
L 226.571954 465.31541 
L 227.023207 465.161243 
L 227.418053 465.251638 
L 227.869306 465.581865 
L 228.489778 466.338981 
L 231.535734 470.544705 
L 232.494647 471.239542 
L 233.735592 471.825934 
L 235.822636 472.819893 
L 237.063581 473.358204 
L 237.853273 473.467051 
L 238.586559 473.347101 
L 239.376251 472.988451 
L 240.504383 472.19287 
L 243.2119 470.213045 
L 245.355351 468.9038 
L 246.20145 468.654427 
L 246.934735 468.665166 
L 247.724428 468.909537 
L 248.739746 469.485625 
L 251.33445 471.063099 
L 253.81634 472.291843 
L 255.508538 473.210228 
L 256.241824 473.364765 
L 256.918703 473.277355 
L 257.595582 472.943325 
L 258.385275 472.276669 
L 261.205604 469.605058 
L 261.882484 469.371562 
L 262.559363 469.370562 
L 263.292648 469.603987 
L 264.195154 470.146873 
L 266.733451 471.831238 
L 267.466737 471.984515 
L 268.143616 471.904361 
L 268.876902 471.574169 
L 269.779407 470.88861 
L 271.358792 469.666449 
L 272.035671 469.445142 
L 272.599737 469.482296 
L 273.163803 469.740574 
L 273.784275 470.284791 
L 274.573968 471.319771 
L 276.661012 474.287352 
L 277.225078 474.629868 
L 277.676331 474.650059 
L 278.127583 474.419749 
L 278.635243 473.851923 
L 279.255715 472.748857 
L 280.158221 470.584545 
L 281.455573 467.510392 
L 282.132452 466.445708 
L 282.640111 465.999659 
L 283.091364 465.864538 
L 283.542617 465.961348 
L 284.050276 466.316647 
L 284.727155 467.089001 
L 286.701386 469.517774 
L 287.378265 469.909935 
L 287.998738 470.001088 
L 288.61921 469.862485 
L 289.352496 469.461931 
L 292.116419 467.675061 
L 292.849705 467.610829 
L 293.526584 467.780442 
L 294.316277 468.229439 
L 295.557222 469.249404 
L 296.74176 470.108143 
L 297.531453 470.410697 
L 298.264738 470.446976 
L 298.998024 470.254892 
L 299.844123 469.78842 
L 301.254288 468.695835 
L 302.55164 467.802967 
L 303.397739 467.479496 
L 304.243838 467.400429 
L 305.20275 467.556402 
L 306.443695 468.003962 
L 309.151212 469.290268 
L 310.787003 470.342547 
L 311.971541 470.978041 
L 312.761234 471.151194 
L 313.438113 471.07107 
L 314.171399 470.743351 
L 315.243124 469.964858 
L 316.484069 469.122071 
L 317.273761 468.858416 
L 317.950641 468.856317 
L 318.683926 469.071186 
L 319.586432 469.58307 
L 320.658157 470.469961 
L 323.252861 472.752061 
L 323.986146 473.023123 
L 324.606619 473.004386 
L 325.170685 472.770335 
L 325.847564 472.230972 
L 327.201322 470.745042 
L 328.047421 470.025376 
L 328.611487 469.802079 
L 329.119147 469.813599 
L 329.626806 470.036394 
L 330.247279 470.578828 
L 331.093378 471.676295 
L 332.559949 473.621135 
L 333.124015 474.030485 
L 333.631675 474.131609 
L 334.082927 473.989576 
L 334.590587 473.562746 
L 335.154653 472.770441 
L 335.887938 471.325567 
L 338.200609 466.395707 
L 338.821081 465.678878 
L 339.385147 465.338078 
L 339.949213 465.258882 
L 340.569686 465.423318 
L 341.415785 465.912793 
L 342.82595 466.731995 
L 343.672049 466.950168 
L 344.518148 466.932484 
L 345.47706 466.677572 
L 348.071763 465.792132 
L 348.692236 465.895981 
L 349.312708 466.220133 
L 349.989588 466.833262 
L 350.892093 467.989603 
L 352.584291 470.250593 
L 353.26117 470.762637 
L 353.825236 470.921736 
L 354.389302 470.842814 
L 355.009775 470.516915 
L 355.855874 469.792754 
L 357.999324 467.842961 
L 358.845423 467.412424 
L 359.578709 467.269818 
L 360.311995 467.358082 
L 361.045281 467.673337 
L 361.891379 468.289648 
L 363.188731 469.558443 
L 364.54249 470.790233 
L 365.557808 471.415404 
L 366.629534 471.811428 
L 367.532039 471.923332 
L 368.378138 471.798284 
L 369.280644 471.426953 
L 370.803622 470.499943 
L 372.100973 469.818788 
L 372.947072 469.610972 
L 373.793171 469.628587 
L 374.97771 469.901731 
L 377.62882 470.783059 
L 379.433831 471.315387 
L 380.392743 471.359985 
L 381.238842 471.171506 
L 382.141348 470.730643 
L 384.341205 469.526084 
L 385.018084 469.463596 
L 385.638557 469.631841 
L 386.259029 470.035423 
L 386.992315 470.795128 
L 388.346073 472.625651 
L 389.192172 473.582841 
L 389.756238 473.935088 
L 390.207491 473.991948 
L 390.658744 473.828041 
L 391.166403 473.364725 
L 391.730469 472.515351 
L 392.520161 470.851728 
L 394.268766 466.960224 
L 394.889239 466.125292 
L 395.453304 465.717957 
L 395.960964 465.616799 
L 396.52503 465.753089 
L 397.201909 466.179886 
L 400.304272 468.507257 
L 401.319591 468.805684 
L 402.222096 468.850011 
L 403.237415 468.66232 
L 406.339778 467.885907 
L 407.12947 468.009461 
L 407.862756 468.356234 
L 408.708855 469.013426 
L 411.641998 471.551772 
L 412.26247 471.666544 
L 412.826536 471.525907 
L 413.447009 471.103935 
L 414.180295 470.308275 
L 417.169844 466.703181 
L 417.90313 466.310532 
L 418.580009 466.186321 
L 419.256888 466.28677 
L 419.990174 466.623462 
L 420.949086 467.336662 
L 422.246438 468.611976 
L 423.825823 470.120743 
L 424.671922 470.60528 
L 425.405207 470.775789 
L 426.138493 470.715414 
L 427.040999 470.389774 
L 428.67679 469.482643 
L 430.143361 468.78136 
L 431.15868 468.525543 
L 432.061186 468.515132 
L 432.907285 468.719306 
L 433.80979 469.172268 
L 436.686527 470.834036 
L 437.476219 470.923425 
L 438.265911 470.795012 
L 440.860615 470.144432 
L 441.537494 470.356111 
L 442.27078 470.843539 
L 443.116879 471.711036 
L 445.542362 474.47019 
L 446.050022 474.603804 
L 446.501274 474.468364 
L 446.952527 474.071749 
L 447.460187 473.303738 
L 448.080659 471.930618 
L 448.983165 469.300177 
L 450.449736 464.996931 
L 451.070209 463.834098 
L 451.577868 463.324327 
L 451.972714 463.217729 
L 452.367561 463.355714 
L 452.818813 463.788156 
L 453.382879 464.675792 
L 454.341791 466.69698 
L 455.469923 468.957012 
L 456.146803 469.840848 
L 456.710869 470.221321 
L 457.218528 470.293925 
L 457.782594 470.120247 
L 458.51588 469.609395 
L 460.208077 468.315484 
L 460.772143 468.176714 
L 461.336209 468.266253 
L 461.956682 468.604914 
L 462.802781 469.356128 
L 464.720605 471.13923 
L 465.453891 471.479107 
L 466.13077 471.561127 
L 466.920463 471.428655 
L 468.105001 470.975244 
L 469.966419 470.005112 
L 472.053463 468.938402 
L 473.012375 468.712029 
L 473.91488 468.733233 
L 475.155826 469.023096 
L 476.453177 469.272153 
L 477.412089 469.200852 
L 480.119606 468.796123 
L 481.360551 468.983059 
L 482.883529 469.194588 
L 483.898848 469.084208 
L 487.001211 468.48822 
L 488.072936 468.728945 
L 491.626552 469.9077 
L 495.236574 471.260869 
L 496.251893 471.190835 
L 498.056904 471.014642 
L 498.79019 471.212445 
L 499.467069 471.631839 
L 500.313168 472.451081 
L 501.892552 474.053544 
L 502.456618 474.297295 
L 502.907871 474.271399 
L 503.359124 474.029118 
L 503.866783 473.488742 
L 504.487256 472.468345 
L 505.389761 470.485605 
L 506.687113 467.691741 
L 507.307586 466.863302 
L 507.815245 466.513913 
L 508.266498 466.449433 
L 508.774157 466.622291 
L 509.39463 467.112616 
L 510.409949 468.278911 
L 511.53808 469.46729 
L 512.21496 469.871016 
L 512.835432 469.984961 
L 513.455905 469.869494 
L 514.189191 469.489342 
L 515.148103 468.704838 
L 517.51718 466.642117 
L 518.250465 466.34681 
L 518.927345 466.304621 
L 519.604224 466.478563 
L 520.393916 466.920326 
L 521.522048 467.841752 
L 524.173158 470.078432 
L 525.13207 470.566489 
L 525.921763 470.732622 
L 526.711455 470.679617 
L 527.726774 470.368007 
L 530.547104 469.349011 
L 532.070082 469.149227 
L 535.567291 468.940744 
L 536.469796 469.222839 
L 537.992774 469.986904 
L 539.0645 470.406654 
L 539.854192 470.480384 
L 540.700291 470.313065 
L 543.294994 469.573314 
L 544.02828 469.704672 
L 544.874379 470.087039 
L 546.171731 470.959407 
L 547.469083 471.747766 
L 548.258775 471.982988 
L 548.992061 471.963334 
L 549.725346 471.708522 
L 550.458632 471.213284 
L 551.361138 470.319521 
L 553.335369 468.255332 
L 554.012248 467.907484 
L 554.576314 467.866127 
L 555.083973 468.049408 
L 555.648039 468.516101 
L 556.268512 469.340704 
L 557.171017 470.963537 
L 558.468369 473.252928 
L 559.032435 473.857413 
L 559.483688 474.062261 
L 559.878534 474.009703 
L 560.27338 473.72425 
L 560.724633 473.115185 
L 561.345105 471.843908 
L 562.304018 469.255853 
L 563.375743 466.550197 
L 564.052622 465.41727 
L 564.560281 464.940075 
L 565.011534 464.778072 
L 565.462787 464.835772 
L 566.026853 465.164941 
L 566.816545 465.940869 
L 568.56515 467.735102 
L 569.354842 468.191995 
L 570.144534 468.385344 
L 571.04704 468.354594 
L 573.641743 468.077771 
L 574.375029 468.330653 
L 575.221128 468.877391 
L 576.631293 470.129659 
L 577.703018 470.956035 
L 578.379898 471.229038 
L 579.00037 471.247821 
L 579.620843 471.040595 
L 580.354128 470.555082 
L 581.425854 469.549211 
L 583.118052 467.956725 
L 583.907744 467.511411 
L 584.584623 467.373988 
L 585.205096 467.466029 
L 585.938382 467.806103 
L 586.9537 468.543742 
L 588.815118 469.920936 
L 589.60481 470.219145 
L 590.338096 470.26919 
L 591.240602 470.083784 
L 592.481547 469.569189 
L 593.948118 468.719306 
L 597.952987 466.196542 
L 598.799086 466.031541 
L 599.645185 466.089354 
L 600.829723 466.423741 
L 604.834591 467.681874 
L 606.18835 467.831886 
L 607.203668 467.728171 
L 608.275394 467.380964 
L 609.854779 466.861798 
L 610.531658 466.873104 
L 611.15213 467.09829 
L 611.772603 467.568676 
L 612.449482 468.367619 
L 613.464801 469.975754 
L 614.649339 471.781852 
L 615.269812 472.346499 
L 615.721065 472.495343 
L 616.115911 472.421859 
L 616.567164 472.088341 
L 617.074823 471.392674 
L 617.695295 470.127327 
L 618.654208 467.567549 
L 619.838746 464.52966 
L 620.515625 463.360204 
L 621.079691 462.813731 
L 621.530944 462.658772 
L 621.982197 462.733608 
L 622.489856 463.056523 
L 623.166735 463.772475 
L 625.535812 466.523796 
L 626.381911 467.030278 
L 627.284417 467.298957 
L 629.709901 467.836299 
L 630.556 468.389703 
L 631.909758 469.604086 
L 633.20711 470.673531 
L 633.996802 471.047304 
L 634.673681 471.118327 
L 635.35056 470.949415 
L 636.083846 470.512293 
L 636.929945 469.738994 
L 638.114483 468.324155 
L 640.596374 465.231422 
L 641.329659 464.699286 
L 642.006539 464.483863 
L 642.627011 464.52113 
L 643.30389 464.784845 
L 644.262803 465.427253 
L 646.349847 466.896456 
L 648.042044 467.643582 
L 649.28299 468.337324 
L 652.385352 470.290731 
L 653.005825 470.305423 
L 653.682704 470.083513 
L 654.472397 469.556983 
L 657.292726 467.395616 
L 658.138825 467.125607 
L 658.984924 467.090498 
L 659.831023 467.282264 
L 660.846342 467.757352 
L 663.271826 468.995431 
L 664.005111 469.086854 
L 664.794804 468.94906 
L 667.107474 468.352142 
L 667.727947 468.520795 
L 668.348419 468.932877 
L 669.081705 469.728094 
L 671.281562 472.380911 
L 671.732815 472.50842 
L 672.127661 472.412581 
L 672.578914 472.056623 
L 673.086573 471.341668 
L 673.707046 470.060819 
L 674.665958 467.499767 
L 674.891585 466.859038 
L 674.891585 466.859038 
" clip-path="url(#p6816d9cba3)" style="fill: none; stroke: #0000ff; stroke-width: 1.5; stroke-linecap: square"/>
   </g>
   <g id="patch_3">
    <path d="M 82.8 643.1985 
L 82.8 39.1875 
" style="fill: none; stroke: #000000; stroke-width: 0.8; stroke-linejoin: miter; stroke-linecap: square"/>
   </g>
   <g id="patch_4">
    <path d="M 703.086422 643.1985 
L 703.086422 39.1875 
" style="fill: none; stroke: #000000; stroke-width: 0.8; stroke-linejoin: miter; stroke-linecap: square"/>
   </g>
   <g id="patch_5">
    <path d="M 82.8 643.1985 
L 703.086422 643.1985 
" style="fill: none; stroke: #000000; stroke-width: 0.8; stroke-linejoin: miter; stroke-linecap: square"/>
   </g>
   <g id="patch_6">
    <path d="M 82.8 39.1875 
L 703.086422 39.1875 
" style="fill: none; stroke: #000000; stroke-width: 0.8; stroke-linejoin: miter; stroke-linecap: square"/>
   </g>
  </g>
 </g>
 <defs>
  <clipPath id="p6816d9cba3">
   <rect x="82.8" y="39.1875" width="620.286422" height="604.011"/>
  </clipPath>
 </defs>
</svg>
