<?xml version="1.0" encoding="utf-8" standalone="no"?>
<!DOCTYPE svg PUBLIC "-//W3C//DTD SVG 1.1//EN"
  "http://www.w3.org/Graphics/SVG/1.1/DTD/svg11.dtd">
<svg xmlns:xlink="http://www.w3.org/1999/xlink" width="710.647477pt" height="711.02175pt" viewBox="0 0 710.647477 711.02175" xmlns="http://www.w3.org/2000/svg" version="1.1">
 <metadata>
  <rdf:RDF xmlns:dc="http://purl.org/dc/elements/1.1/" xmlns:cc="http://creativecommons.org/ns#" xmlns:rdf="http://www.w3.org/1999/02/22-rdf-syntax-ns#">
   <cc:Work>
    <dc:type rdf:resource="http://purl.org/dc/dcmitype/StillImage"/>
    <dc:date>2025-02-02T18:25:36.773964</dc:date>
    <dc:format>image/svg+xml</dc:format>
    <dc:creator>
     <cc:Agent>
      <dc:title>Matplotlib v3.9.3, https://matplotlib.org/</dc:title>
     </cc:Agent>
    </dc:creator>
   </cc:Work>
  </rdf:RDF>
 </metadata>
 <defs>
  <style type="text/css">*{stroke-linejoin: round; stroke-linecap: butt}</style>
 </defs>
 <g id="figure_1">
  <g id="patch_1">
   <path d="M 0 711.02175 
L 710.647477 711.02175 
L 710.647477 0 
L 0 0 
z
" style="fill: #ffffff"/>
  </g>
  <g id="axes_1">
   <g id="patch_2">
    <path d="M 104.4 640.3905 
L 703.447477 640.3905 
L 703.447477 39.1875 
L 104.4 39.1875 
z
" style="fill: #ffffff"/>
   </g>
   <g id="matplotlib.axis_1">
    <g id="xtick_1">
     <g id="line2d_1">
      <defs>
       <path id="mc59c7b3330" d="M 0 0 
L 0 -3.5 
" style="stroke: #000000; stroke-width: 0.8"/>
      </defs>
      <g>
       <use xlink:href="#mc59c7b3330" x="131.574966" y="640.3905" style="stroke: #000000; stroke-width: 0.8"/>
      </g>
     </g>
     <g id="text_1">
      <!-- 0 -->
      <g transform="translate(123.23356 665.631125) scale(0.3 -0.3)">
       <defs>
        <path id="LiberationSans-30" d="M 3309 2203 
Q 3309 1100 2920 518 
Q 2531 -63 1772 -63 
Q 1013 -63 631 515 
Q 250 1094 250 2203 
Q 250 3338 620 3903 
Q 991 4469 1791 4469 
Q 2569 4469 2939 3897 
Q 3309 3325 3309 2203 
z
M 2738 2203 
Q 2738 3156 2517 3584 
Q 2297 4013 1791 4013 
Q 1272 4013 1045 3591 
Q 819 3169 819 2203 
Q 819 1266 1048 831 
Q 1278 397 1778 397 
Q 2275 397 2506 840 
Q 2738 1284 2738 2203 
z
" transform="scale(0.015625)"/>
       </defs>
       <use xlink:href="#LiberationSans-30"/>
      </g>
     </g>
    </g>
    <g id="xtick_2">
     <g id="line2d_2">
      <g>
       <use xlink:href="#mc59c7b3330" x="240.503582" y="640.3905" style="stroke: #000000; stroke-width: 0.8"/>
      </g>
     </g>
     <g id="text_2">
      <!-- 2 -->
      <g transform="translate(232.162176 665.631125) scale(0.3 -0.3)">
       <defs>
        <path id="LiberationSans-32" d="M 322 0 
L 322 397 
Q 481 763 711 1042 
Q 941 1322 1194 1548 
Q 1447 1775 1695 1969 
Q 1944 2163 2144 2356 
Q 2344 2550 2467 2762 
Q 2591 2975 2591 3244 
Q 2591 3606 2378 3806 
Q 2166 4006 1788 4006 
Q 1428 4006 1195 3811 
Q 963 3616 922 3263 
L 347 3316 
Q 409 3844 795 4156 
Q 1181 4469 1788 4469 
Q 2453 4469 2811 4155 
Q 3169 3841 3169 3263 
Q 3169 3006 3051 2753 
Q 2934 2500 2703 2247 
Q 2472 1994 1819 1463 
Q 1459 1169 1246 933 
Q 1034 697 941 478 
L 3238 478 
L 3238 0 
L 322 0 
z
" transform="scale(0.015625)"/>
       </defs>
       <use xlink:href="#LiberationSans-32"/>
      </g>
     </g>
    </g>
    <g id="xtick_3">
     <g id="line2d_3">
      <g>
       <use xlink:href="#mc59c7b3330" x="349.432198" y="640.3905" style="stroke: #000000; stroke-width: 0.8"/>
      </g>
     </g>
     <g id="text_3">
      <!-- 4 -->
      <g transform="translate(341.090792 665.631125) scale(0.3 -0.3)">
       <defs>
        <path id="LiberationSans-34" d="M 2753 997 
L 2753 0 
L 2222 0 
L 2222 997 
L 147 997 
L 147 1434 
L 2163 4403 
L 2753 4403 
L 2753 1441 
L 3372 1441 
L 3372 997 
L 2753 997 
z
M 2222 3769 
Q 2216 3750 2134 3603 
Q 2053 3456 2013 3397 
L 884 1734 
L 716 1503 
L 666 1441 
L 2222 1441 
L 2222 3769 
z
" transform="scale(0.015625)"/>
       </defs>
       <use xlink:href="#LiberationSans-34"/>
      </g>
     </g>
    </g>
    <g id="xtick_4">
     <g id="line2d_4">
      <g>
       <use xlink:href="#mc59c7b3330" x="458.360814" y="640.3905" style="stroke: #000000; stroke-width: 0.8"/>
      </g>
     </g>
     <g id="text_4">
      <!-- 6 -->
      <g transform="translate(450.019408 665.631125) scale(0.3 -0.3)">
       <defs>
        <path id="LiberationSans-36" d="M 3278 1441 
Q 3278 744 2900 340 
Q 2522 -63 1856 -63 
Q 1113 -63 719 490 
Q 325 1044 325 2100 
Q 325 3244 734 3856 
Q 1144 4469 1900 4469 
Q 2897 4469 3156 3572 
L 2619 3475 
Q 2453 4013 1894 4013 
Q 1413 4013 1148 3564 
Q 884 3116 884 2266 
Q 1038 2550 1316 2698 
Q 1594 2847 1953 2847 
Q 2563 2847 2920 2465 
Q 3278 2084 3278 1441 
z
M 2706 1416 
Q 2706 1894 2472 2153 
Q 2238 2413 1819 2413 
Q 1425 2413 1183 2183 
Q 941 1953 941 1550 
Q 941 1041 1192 716 
Q 1444 391 1838 391 
Q 2244 391 2475 664 
Q 2706 938 2706 1416 
z
" transform="scale(0.015625)"/>
       </defs>
       <use xlink:href="#LiberationSans-36"/>
      </g>
     </g>
    </g>
    <g id="xtick_5">
     <g id="line2d_5">
      <g>
       <use xlink:href="#mc59c7b3330" x="567.28943" y="640.3905" style="stroke: #000000; stroke-width: 0.8"/>
      </g>
     </g>
     <g id="text_5">
      <!-- 8 -->
      <g transform="translate(558.948024 665.631125) scale(0.3 -0.3)">
       <defs>
        <path id="LiberationSans-38" d="M 3281 1228 
Q 3281 619 2893 278 
Q 2506 -63 1781 -63 
Q 1075 -63 676 271 
Q 278 606 278 1222 
Q 278 1653 525 1947 
Q 772 2241 1156 2303 
L 1156 2316 
Q 797 2400 589 2681 
Q 381 2963 381 3341 
Q 381 3844 757 4156 
Q 1134 4469 1769 4469 
Q 2419 4469 2795 4162 
Q 3172 3856 3172 3334 
Q 3172 2956 2962 2675 
Q 2753 2394 2391 2322 
L 2391 2309 
Q 2813 2241 3047 1952 
Q 3281 1663 3281 1228 
z
M 2588 3303 
Q 2588 4050 1769 4050 
Q 1372 4050 1164 3862 
Q 956 3675 956 3303 
Q 956 2925 1170 2726 
Q 1384 2528 1775 2528 
Q 2172 2528 2380 2711 
Q 2588 2894 2588 3303 
z
M 2697 1281 
Q 2697 1691 2453 1898 
Q 2209 2106 1769 2106 
Q 1341 2106 1100 1882 
Q 859 1659 859 1269 
Q 859 359 1788 359 
Q 2247 359 2472 579 
Q 2697 800 2697 1281 
z
" transform="scale(0.015625)"/>
       </defs>
       <use xlink:href="#LiberationSans-38"/>
      </g>
     </g>
    </g>
    <g id="xtick_6">
     <g id="line2d_6">
      <g>
       <use xlink:href="#mc59c7b3330" x="676.218046" y="640.3905" style="stroke: #000000; stroke-width: 0.8"/>
      </g>
     </g>
     <g id="text_6">
      <!-- 10 -->
      <g transform="translate(659.535233 665.631125) scale(0.3 -0.3)">
       <defs>
        <path id="LiberationSans-31" d="M 488 0 
L 488 478 
L 1609 478 
L 1609 3866 
L 616 3156 
L 616 3688 
L 1656 4403 
L 2175 4403 
L 2175 478 
L 3247 478 
L 3247 0 
L 488 0 
z
" transform="scale(0.015625)"/>
       </defs>
       <use xlink:href="#LiberationSans-31"/>
       <use xlink:href="#LiberationSans-30" x="55.615234"/>
      </g>
     </g>
    </g>
    <g id="xtick_7">
     <g id="line2d_7">
      <defs>
       <path id="m0f721f5845" d="M 0 0 
L 0 -2 
" style="stroke: #000000; stroke-width: 0.6"/>
      </defs>
      <g>
       <use xlink:href="#m0f721f5845" x="158.80712" y="640.3905" style="stroke: #000000; stroke-width: 0.6"/>
      </g>
     </g>
    </g>
    <g id="xtick_8">
     <g id="line2d_8">
      <g>
       <use xlink:href="#m0f721f5845" x="186.039274" y="640.3905" style="stroke: #000000; stroke-width: 0.6"/>
      </g>
     </g>
    </g>
    <g id="xtick_9">
     <g id="line2d_9">
      <g>
       <use xlink:href="#m0f721f5845" x="213.271428" y="640.3905" style="stroke: #000000; stroke-width: 0.6"/>
      </g>
     </g>
    </g>
    <g id="xtick_10">
     <g id="line2d_10">
      <g>
       <use xlink:href="#m0f721f5845" x="267.735736" y="640.3905" style="stroke: #000000; stroke-width: 0.6"/>
      </g>
     </g>
    </g>
    <g id="xtick_11">
     <g id="line2d_11">
      <g>
       <use xlink:href="#m0f721f5845" x="294.96789" y="640.3905" style="stroke: #000000; stroke-width: 0.6"/>
      </g>
     </g>
    </g>
    <g id="xtick_12">
     <g id="line2d_12">
      <g>
       <use xlink:href="#m0f721f5845" x="322.200044" y="640.3905" style="stroke: #000000; stroke-width: 0.6"/>
      </g>
     </g>
    </g>
    <g id="xtick_13">
     <g id="line2d_13">
      <g>
       <use xlink:href="#m0f721f5845" x="376.664352" y="640.3905" style="stroke: #000000; stroke-width: 0.6"/>
      </g>
     </g>
    </g>
    <g id="xtick_14">
     <g id="line2d_14">
      <g>
       <use xlink:href="#m0f721f5845" x="403.896506" y="640.3905" style="stroke: #000000; stroke-width: 0.6"/>
      </g>
     </g>
    </g>
    <g id="xtick_15">
     <g id="line2d_15">
      <g>
       <use xlink:href="#m0f721f5845" x="431.12866" y="640.3905" style="stroke: #000000; stroke-width: 0.6"/>
      </g>
     </g>
    </g>
    <g id="xtick_16">
     <g id="line2d_16">
      <g>
       <use xlink:href="#m0f721f5845" x="485.592968" y="640.3905" style="stroke: #000000; stroke-width: 0.6"/>
      </g>
     </g>
    </g>
    <g id="xtick_17">
     <g id="line2d_17">
      <g>
       <use xlink:href="#m0f721f5845" x="512.825122" y="640.3905" style="stroke: #000000; stroke-width: 0.6"/>
      </g>
     </g>
    </g>
    <g id="xtick_18">
     <g id="line2d_18">
      <g>
       <use xlink:href="#m0f721f5845" x="540.057276" y="640.3905" style="stroke: #000000; stroke-width: 0.6"/>
      </g>
     </g>
    </g>
    <g id="xtick_19">
     <g id="line2d_19">
      <g>
       <use xlink:href="#m0f721f5845" x="594.521584" y="640.3905" style="stroke: #000000; stroke-width: 0.6"/>
      </g>
     </g>
    </g>
    <g id="xtick_20">
     <g id="line2d_20">
      <g>
       <use xlink:href="#m0f721f5845" x="621.753738" y="640.3905" style="stroke: #000000; stroke-width: 0.6"/>
      </g>
     </g>
    </g>
    <g id="xtick_21">
     <g id="line2d_21">
      <g>
       <use xlink:href="#m0f721f5845" x="648.985892" y="640.3905" style="stroke: #000000; stroke-width: 0.6"/>
      </g>
     </g>
    </g>
    <g id="text_7">
     <!-- Time ps -->
     <g transform="translate(351.147176 697.59675) scale(0.3 -0.3)">
      <defs>
       <path id="LiberationSans-54" d="M 2250 3916 
L 2250 0 
L 1656 0 
L 1656 3916 
L 144 3916 
L 144 4403 
L 3763 4403 
L 3763 3916 
L 2250 3916 
z
" transform="scale(0.015625)"/>
       <path id="LiberationSans-69" d="M 428 4100 
L 428 4638 
L 991 4638 
L 991 4100 
L 428 4100 
z
M 428 0 
L 428 3381 
L 991 3381 
L 991 0 
L 428 0 
z
" transform="scale(0.015625)"/>
       <path id="LiberationSans-6d" d="M 2400 0 
L 2400 2144 
Q 2400 2634 2265 2821 
Q 2131 3009 1781 3009 
Q 1422 3009 1212 2734 
Q 1003 2459 1003 1959 
L 1003 0 
L 444 0 
L 444 2659 
Q 444 3250 425 3381 
L 956 3381 
Q 959 3366 962 3297 
Q 966 3228 970 3139 
Q 975 3050 981 2803 
L 991 2803 
Q 1172 3163 1406 3303 
Q 1641 3444 1978 3444 
Q 2363 3444 2586 3291 
Q 2809 3138 2897 2803 
L 2906 2803 
Q 3081 3144 3329 3294 
Q 3578 3444 3931 3444 
Q 4444 3444 4676 3166 
Q 4909 2888 4909 2253 
L 4909 0 
L 4353 0 
L 4353 2144 
Q 4353 2634 4218 2821 
Q 4084 3009 3734 3009 
Q 3366 3009 3161 2736 
Q 2956 2463 2956 1959 
L 2956 0 
L 2400 0 
z
" transform="scale(0.015625)"/>
       <path id="LiberationSans-65" d="M 863 1572 
Q 863 991 1103 675 
Q 1344 359 1806 359 
Q 2172 359 2392 506 
Q 2613 653 2691 878 
L 3184 738 
Q 2881 -63 1806 -63 
Q 1056 -63 664 384 
Q 272 831 272 1713 
Q 272 2550 664 2997 
Q 1056 3444 1784 3444 
Q 3275 3444 3275 1647 
L 3275 1572 
L 863 1572 
z
M 2694 2003 
Q 2647 2538 2422 2783 
Q 2197 3028 1775 3028 
Q 1366 3028 1127 2754 
Q 888 2481 869 2003 
L 2694 2003 
z
" transform="scale(0.015625)"/>
       <path id="LiberationSans-20" transform="scale(0.015625)"/>
       <path id="LiberationSans-70" d="M 3291 1706 
Q 3291 -63 2047 -63 
Q 1266 -63 997 525 
L 981 525 
Q 994 500 994 -6 
L 994 -1328 
L 431 -1328 
L 431 2691 
Q 431 3213 413 3381 
L 956 3381 
Q 959 3369 965 3292 
Q 972 3216 980 3056 
Q 988 2897 988 2838 
L 1000 2838 
Q 1150 3150 1397 3295 
Q 1644 3441 2047 3441 
Q 2672 3441 2981 3022 
Q 3291 2603 3291 1706 
z
M 2700 1694 
Q 2700 2400 2509 2703 
Q 2319 3006 1903 3006 
Q 1569 3006 1380 2865 
Q 1191 2725 1092 2426 
Q 994 2128 994 1650 
Q 994 984 1206 668 
Q 1419 353 1897 353 
Q 2316 353 2508 661 
Q 2700 969 2700 1694 
z
" transform="scale(0.015625)"/>
       <path id="LiberationSans-73" d="M 2969 934 
Q 2969 456 2608 196 
Q 2247 -63 1597 -63 
Q 966 -63 623 145 
Q 281 353 178 794 
L 675 891 
Q 747 619 972 492 
Q 1197 366 1597 366 
Q 2025 366 2223 497 
Q 2422 628 2422 891 
Q 2422 1091 2284 1216 
Q 2147 1341 1841 1422 
L 1438 1528 
Q 953 1653 748 1773 
Q 544 1894 428 2066 
Q 313 2238 313 2488 
Q 313 2950 642 3192 
Q 972 3434 1603 3434 
Q 2163 3434 2492 3237 
Q 2822 3041 2909 2606 
L 2403 2544 
Q 2356 2769 2151 2889 
Q 1947 3009 1603 3009 
Q 1222 3009 1040 2893 
Q 859 2778 859 2544 
Q 859 2400 934 2306 
Q 1009 2213 1156 2147 
Q 1303 2081 1775 1966 
Q 2222 1853 2419 1758 
Q 2616 1663 2730 1547 
Q 2844 1431 2906 1279 
Q 2969 1128 2969 934 
z
" transform="scale(0.015625)"/>
      </defs>
      <use xlink:href="#LiberationSans-54"/>
      <use xlink:href="#LiberationSans-69" x="57.333984"/>
      <use xlink:href="#LiberationSans-6d" x="79.550781"/>
      <use xlink:href="#LiberationSans-65" x="162.851562"/>
      <use xlink:href="#LiberationSans-20" x="218.466797"/>
      <use xlink:href="#LiberationSans-70" x="246.25"/>
      <use xlink:href="#LiberationSans-73" x="301.865234"/>
     </g>
    </g>
   </g>
   <g id="matplotlib.axis_2">
    <g id="ytick_1">
     <g id="line2d_22">
      <defs>
       <path id="m458d10e225" d="M 0 0 
L 3.5 0 
" style="stroke: #000000; stroke-width: 0.8"/>
      </defs>
      <g>
       <use xlink:href="#m458d10e225" x="104.4" y="578.45603" style="stroke: #000000; stroke-width: 0.8"/>
      </g>
     </g>
     <g id="text_8">
      <!-- $\mathdefault{−0.2}$ -->
      <g transform="translate(41.5 589.326342) scale(0.3 -0.3)">
       <defs>
        <path id="LiberationSans-2212" d="M 316 1900 
L 316 2356 
L 3425 2356 
L 3425 1900 
L 316 1900 
z
" transform="scale(0.015625)"/>
        <path id="LiberationSans-2e" d="M 584 0 
L 584 684 
L 1194 684 
L 1194 0 
L 584 0 
z
" transform="scale(0.015625)"/>
       </defs>
       <use xlink:href="#LiberationSans-2212" transform="translate(0 0.171875)"/>
       <use xlink:href="#LiberationSans-30" transform="translate(58.398438 0.171875)"/>
       <use xlink:href="#LiberationSans-2e" transform="translate(114.013672 0.171875)"/>
       <use xlink:href="#LiberationSans-32" transform="translate(141.796875 0.171875)"/>
      </g>
     </g>
    </g>
    <g id="ytick_2">
     <g id="line2d_23">
      <g>
       <use xlink:href="#m458d10e225" x="104.4" y="491.939831" style="stroke: #000000; stroke-width: 0.8"/>
      </g>
     </g>
     <g id="text_9">
      <!-- $\mathdefault{0.0}$ -->
      <g transform="translate(58.9 502.810144) scale(0.3 -0.3)">
       <use xlink:href="#LiberationSans-30" transform="translate(0 0.171875)"/>
       <use xlink:href="#LiberationSans-2e" transform="translate(55.615234 0.171875)"/>
       <use xlink:href="#LiberationSans-30" transform="translate(83.398438 0.171875)"/>
      </g>
     </g>
    </g>
    <g id="ytick_3">
     <g id="line2d_24">
      <g>
       <use xlink:href="#m458d10e225" x="104.4" y="405.423633" style="stroke: #000000; stroke-width: 0.8"/>
      </g>
     </g>
     <g id="text_10">
      <!-- $\mathdefault{0.2}$ -->
      <g transform="translate(58.9 416.293946) scale(0.3 -0.3)">
       <use xlink:href="#LiberationSans-30" transform="translate(0 0.171875)"/>
       <use xlink:href="#LiberationSans-2e" transform="translate(55.615234 0.171875)"/>
       <use xlink:href="#LiberationSans-32" transform="translate(83.398438 0.171875)"/>
      </g>
     </g>
    </g>
    <g id="ytick_4">
     <g id="line2d_25">
      <g>
       <use xlink:href="#m458d10e225" x="104.4" y="318.907435" style="stroke: #000000; stroke-width: 0.8"/>
      </g>
     </g>
     <g id="text_11">
      <!-- $\mathdefault{0.4}$ -->
      <g transform="translate(58.9 329.777748) scale(0.3 -0.3)">
       <use xlink:href="#LiberationSans-30" transform="translate(0 0.171875)"/>
       <use xlink:href="#LiberationSans-2e" transform="translate(55.615234 0.171875)"/>
       <use xlink:href="#LiberationSans-34" transform="translate(83.398438 0.171875)"/>
      </g>
     </g>
    </g>
    <g id="ytick_5">
     <g id="line2d_26">
      <g>
       <use xlink:href="#m458d10e225" x="104.4" y="232.391237" style="stroke: #000000; stroke-width: 0.8"/>
      </g>
     </g>
     <g id="text_12">
      <!-- $\mathdefault{0.6}$ -->
      <g transform="translate(58.9 243.26155) scale(0.3 -0.3)">
       <use xlink:href="#LiberationSans-30" transform="translate(0 0.171875)"/>
       <use xlink:href="#LiberationSans-2e" transform="translate(55.615234 0.171875)"/>
       <use xlink:href="#LiberationSans-36" transform="translate(83.398438 0.171875)"/>
      </g>
     </g>
    </g>
    <g id="ytick_6">
     <g id="line2d_27">
      <g>
       <use xlink:href="#m458d10e225" x="104.4" y="145.875039" style="stroke: #000000; stroke-width: 0.8"/>
      </g>
     </g>
     <g id="text_13">
      <!-- $\mathdefault{0.8}$ -->
      <g transform="translate(58.9 156.745352) scale(0.3 -0.3)">
       <use xlink:href="#LiberationSans-30" transform="translate(0 0.171875)"/>
       <use xlink:href="#LiberationSans-2e" transform="translate(55.615234 0.171875)"/>
       <use xlink:href="#LiberationSans-38" transform="translate(83.398438 0.171875)"/>
      </g>
     </g>
    </g>
    <g id="ytick_7">
     <g id="line2d_28">
      <g>
       <use xlink:href="#m458d10e225" x="104.4" y="59.358841" style="stroke: #000000; stroke-width: 0.8"/>
      </g>
     </g>
     <g id="text_14">
      <!-- $\mathdefault{1.0}$ -->
      <g transform="translate(58.9 70.229153) scale(0.3 -0.3)">
       <use xlink:href="#LiberationSans-31" transform="translate(0 0.171875)"/>
       <use xlink:href="#LiberationSans-2e" transform="translate(55.615234 0.171875)"/>
       <use xlink:href="#LiberationSans-30" transform="translate(83.398438 0.171875)"/>
      </g>
     </g>
    </g>
    <g id="ytick_8">
     <g id="line2d_29">
      <defs>
       <path id="m0c4093bb87" d="M 0 0 
L 2 0 
" style="stroke: #000000; stroke-width: 0.6"/>
      </defs>
      <g>
       <use xlink:href="#m0c4093bb87" x="104.4" y="621.714129" style="stroke: #000000; stroke-width: 0.6"/>
      </g>
     </g>
    </g>
    <g id="ytick_9">
     <g id="line2d_30">
      <g>
       <use xlink:href="#m0c4093bb87" x="104.4" y="600.085079" style="stroke: #000000; stroke-width: 0.6"/>
      </g>
     </g>
    </g>
    <g id="ytick_10">
     <g id="line2d_31">
      <g>
       <use xlink:href="#m0c4093bb87" x="104.4" y="556.82698" style="stroke: #000000; stroke-width: 0.6"/>
      </g>
     </g>
    </g>
    <g id="ytick_11">
     <g id="line2d_32">
      <g>
       <use xlink:href="#m0c4093bb87" x="104.4" y="535.19793" style="stroke: #000000; stroke-width: 0.6"/>
      </g>
     </g>
    </g>
    <g id="ytick_12">
     <g id="line2d_33">
      <g>
       <use xlink:href="#m0c4093bb87" x="104.4" y="513.568881" style="stroke: #000000; stroke-width: 0.6"/>
      </g>
     </g>
    </g>
    <g id="ytick_13">
     <g id="line2d_34">
      <g>
       <use xlink:href="#m0c4093bb87" x="104.4" y="470.310782" style="stroke: #000000; stroke-width: 0.6"/>
      </g>
     </g>
    </g>
    <g id="ytick_14">
     <g id="line2d_35">
      <g>
       <use xlink:href="#m0c4093bb87" x="104.4" y="448.681732" style="stroke: #000000; stroke-width: 0.6"/>
      </g>
     </g>
    </g>
    <g id="ytick_15">
     <g id="line2d_36">
      <g>
       <use xlink:href="#m0c4093bb87" x="104.4" y="427.052683" style="stroke: #000000; stroke-width: 0.6"/>
      </g>
     </g>
    </g>
    <g id="ytick_16">
     <g id="line2d_37">
      <g>
       <use xlink:href="#m0c4093bb87" x="104.4" y="383.794584" style="stroke: #000000; stroke-width: 0.6"/>
      </g>
     </g>
    </g>
    <g id="ytick_17">
     <g id="line2d_38">
      <g>
       <use xlink:href="#m0c4093bb87" x="104.4" y="362.165534" style="stroke: #000000; stroke-width: 0.6"/>
      </g>
     </g>
    </g>
    <g id="ytick_18">
     <g id="line2d_39">
      <g>
       <use xlink:href="#m0c4093bb87" x="104.4" y="340.536485" style="stroke: #000000; stroke-width: 0.6"/>
      </g>
     </g>
    </g>
    <g id="ytick_19">
     <g id="line2d_40">
      <g>
       <use xlink:href="#m0c4093bb87" x="104.4" y="297.278386" style="stroke: #000000; stroke-width: 0.6"/>
      </g>
     </g>
    </g>
    <g id="ytick_20">
     <g id="line2d_41">
      <g>
       <use xlink:href="#m0c4093bb87" x="104.4" y="275.649336" style="stroke: #000000; stroke-width: 0.6"/>
      </g>
     </g>
    </g>
    <g id="ytick_21">
     <g id="line2d_42">
      <g>
       <use xlink:href="#m0c4093bb87" x="104.4" y="254.020287" style="stroke: #000000; stroke-width: 0.6"/>
      </g>
     </g>
    </g>
    <g id="ytick_22">
     <g id="line2d_43">
      <g>
       <use xlink:href="#m0c4093bb87" x="104.4" y="210.762188" style="stroke: #000000; stroke-width: 0.6"/>
      </g>
     </g>
    </g>
    <g id="ytick_23">
     <g id="line2d_44">
      <g>
       <use xlink:href="#m0c4093bb87" x="104.4" y="189.133138" style="stroke: #000000; stroke-width: 0.6"/>
      </g>
     </g>
    </g>
    <g id="ytick_24">
     <g id="line2d_45">
      <g>
       <use xlink:href="#m0c4093bb87" x="104.4" y="167.504089" style="stroke: #000000; stroke-width: 0.6"/>
      </g>
     </g>
    </g>
    <g id="ytick_25">
     <g id="line2d_46">
      <g>
       <use xlink:href="#m0c4093bb87" x="104.4" y="124.245989" style="stroke: #000000; stroke-width: 0.6"/>
      </g>
     </g>
    </g>
    <g id="ytick_26">
     <g id="line2d_47">
      <g>
       <use xlink:href="#m0c4093bb87" x="104.4" y="102.61694" style="stroke: #000000; stroke-width: 0.6"/>
      </g>
     </g>
    </g>
    <g id="ytick_27">
     <g id="line2d_48">
      <g>
       <use xlink:href="#m0c4093bb87" x="104.4" y="80.98789" style="stroke: #000000; stroke-width: 0.6"/>
      </g>
     </g>
    </g>
    <g id="text_15">
     <!-- HFACF $(\mathrm{W} / \mathrm{m}^2)^2$ -->
     <g transform="translate(31.275 446.289) rotate(-90) scale(0.3 -0.3)">
      <defs>
       <path id="LiberationSans-48" d="M 3503 0 
L 3503 2041 
L 1122 2041 
L 1122 0 
L 525 0 
L 525 4403 
L 1122 4403 
L 1122 2541 
L 3503 2541 
L 3503 4403 
L 4100 4403 
L 4100 0 
L 3503 0 
z
" transform="scale(0.015625)"/>
       <path id="LiberationSans-46" d="M 1122 3916 
L 1122 2278 
L 3578 2278 
L 3578 1784 
L 1122 1784 
L 1122 0 
L 525 0 
L 525 4403 
L 3653 4403 
L 3653 3916 
L 1122 3916 
z
" transform="scale(0.015625)"/>
       <path id="LiberationSans-41" d="M 3647 0 
L 3144 1288 
L 1138 1288 
L 631 0 
L 13 0 
L 1809 4403 
L 2488 4403 
L 4256 0 
L 3647 0 
z
M 2141 3953 
L 2113 3866 
Q 2034 3606 1881 3200 
L 1319 1753 
L 2966 1753 
L 2400 3206 
Q 2313 3422 2225 3694 
L 2141 3953 
z
" transform="scale(0.015625)"/>
       <path id="LiberationSans-43" d="M 2475 3981 
Q 1744 3981 1337 3511 
Q 931 3041 931 2222 
Q 931 1413 1354 920 
Q 1778 428 2500 428 
Q 3425 428 3891 1344 
L 4378 1100 
Q 4106 531 3614 234 
Q 3122 -63 2472 -63 
Q 1806 -63 1320 214 
Q 834 491 579 1005 
Q 325 1519 325 2222 
Q 325 3275 894 3872 
Q 1463 4469 2469 4469 
Q 3172 4469 3644 4194 
Q 4116 3919 4338 3378 
L 3772 3191 
Q 3619 3575 3280 3778 
Q 2941 3981 2475 3981 
z
" transform="scale(0.015625)"/>
       <path id="STIXGeneral-Regular-28" d="M 1946 -1030 
L 1869 -1133 
Q 1126 -710 716 32 
Q 307 774 307 1613 
Q 307 3386 1888 4326 
L 1946 4224 
Q 1293 3667 1075 3126 
Q 858 2586 858 1632 
Q 858 685 1082 96 
Q 1306 -493 1946 -1030 
z
" transform="scale(0.015625)"/>
       <path id="STIXGeneral-Regular-57" d="M 5965 4237 
L 5965 4115 
Q 5709 4064 5616 3990 
Q 5523 3917 5434 3667 
Q 4704 1709 4128 -70 
L 4032 -70 
Q 3642 1011 3008 2637 
L 2022 -70 
L 1926 -70 
Q 1709 576 1277 1753 
Q 845 2931 698 3347 
Q 538 3808 406 3958 
Q 275 4109 32 4115 
L 32 4237 
L 1594 4237 
L 1594 4115 
Q 1357 4109 1270 4064 
Q 1184 4019 1184 3917 
Q 1184 3808 1254 3616 
L 2176 1210 
L 2842 3021 
L 2662 3501 
Q 2509 3917 2400 4013 
Q 2291 4109 2010 4115 
L 2010 4237 
L 3706 4237 
L 3706 4115 
Q 3213 4102 3213 3891 
Q 3213 3808 3322 3520 
L 4237 1190 
L 5043 3360 
Q 5152 3667 5152 3853 
Q 5152 4109 4704 4115 
L 4704 4237 
L 5965 4237 
z
" transform="scale(0.015625)"/>
       <path id="STIXGeneral-Regular-2f" d="M 1837 4326 
L 378 -90 
L -58 -90 
L 1408 4326 
L 1837 4326 
z
" transform="scale(0.015625)"/>
       <path id="STIXGeneral-Regular-6d" d="M 4960 0 
L 3565 0 
L 3565 96 
Q 3834 122 3907 208 
Q 3981 294 3981 576 
L 3981 1894 
Q 3981 2278 3869 2444 
Q 3757 2611 3488 2611 
Q 3264 2611 3107 2521 
Q 2950 2432 2803 2221 
L 2803 608 
Q 2803 301 2896 201 
Q 2989 102 3264 96 
L 3264 0 
L 1830 0 
L 1830 96 
Q 2112 115 2189 188 
Q 2266 262 2266 550 
L 2266 1901 
Q 2266 2611 1850 2611 
Q 1670 2611 1468 2531 
Q 1267 2451 1171 2336 
Q 1088 2240 1088 2227 
L 1088 448 
Q 1088 243 1177 176 
Q 1267 109 1523 96 
L 1523 0 
L 102 0 
L 102 96 
Q 371 102 460 195 
Q 550 288 550 563 
L 550 2150 
Q 550 2387 499 2480 
Q 448 2573 326 2573 
Q 230 2573 122 2547 
L 122 2656 
Q 557 2778 1011 2944 
L 1062 2925 
L 1062 2451 
L 1075 2451 
Q 1363 2752 1584 2848 
Q 1805 2944 2054 2944 
Q 2560 2944 2733 2406 
Q 3232 2944 3776 2944 
Q 4518 2944 4518 1792 
L 4518 493 
Q 4518 282 4582 202 
Q 4646 122 4794 109 
L 4960 96 
L 4960 0 
z
" transform="scale(0.015625)"/>
       <path id="STIXGeneral-Regular-32" d="M 3034 877 
L 2688 0 
L 186 0 
L 186 77 
L 1325 1286 
Q 1773 1754 1965 2144 
Q 2157 2534 2157 2950 
Q 2157 3379 1920 3616 
Q 1683 3853 1267 3853 
Q 922 3853 720 3673 
Q 518 3494 326 3021 
L 192 3053 
Q 301 3648 630 3987 
Q 960 4326 1523 4326 
Q 2054 4326 2380 4006 
Q 2707 3686 2707 3200 
Q 2707 2477 1888 1613 
L 832 486 
L 2330 486 
Q 2541 486 2665 569 
Q 2790 653 2944 915 
L 3034 877 
z
" transform="scale(0.015625)"/>
       <path id="STIXGeneral-Regular-29" d="M 186 4224 
L 262 4326 
Q 992 3891 1408 3148 
Q 1824 2406 1824 1581 
Q 1824 -166 243 -1133 
L 186 -1030 
Q 845 -486 1059 54 
Q 1274 595 1274 1562 
Q 1274 2534 1059 3120 
Q 845 3706 186 4224 
z
" transform="scale(0.015625)"/>
      </defs>
      <use xlink:href="#LiberationSans-48" transform="translate(0 0.409375)"/>
      <use xlink:href="#LiberationSans-46" transform="translate(72.216797 0.409375)"/>
      <use xlink:href="#LiberationSans-41" transform="translate(133.300781 0.409375)"/>
      <use xlink:href="#LiberationSans-43" transform="translate(200 0.409375)"/>
      <use xlink:href="#LiberationSans-46" transform="translate(272.216797 0.409375)"/>
      <use xlink:href="#LiberationSans-20" transform="translate(333.300781 0.409375)"/>
      <use xlink:href="#STIXGeneral-Regular-28" transform="translate(361.083984 0.409375)"/>
      <use xlink:href="#STIXGeneral-Regular-57" transform="translate(394.383972 0.409375)"/>
      <use xlink:href="#STIXGeneral-Regular-2f" transform="translate(488.783966 0.409375)"/>
      <use xlink:href="#STIXGeneral-Regular-6d" transform="translate(516.583954 0.409375)"/>
      <use xlink:href="#STIXGeneral-Regular-32" transform="translate(595.927223 35.684375) scale(0.7)"/>
      <use xlink:href="#STIXGeneral-Regular-29" transform="translate(635.336587 0.409375)"/>
      <use xlink:href="#STIXGeneral-Regular-32" transform="translate(670.179856 35.684375) scale(0.7)"/>
     </g>
    </g>
    <g id="text_16">
     <!-- $\times\mathdefault{10^{19}}\mathdefault{}$ -->
     <g transform="translate(104.4 36.1875) scale(0.4 -0.4)">
      <defs>
       <path id="STIXGeneral-Regular-d7" d="M 3821 141 
L 3526 -160 
L 2048 1312 
L 570 -160 
L 275 134 
L 1747 1613 
L 275 3091 
L 576 3386 
L 2048 1914 
L 3526 3386 
L 3821 3098 
L 2349 1613 
L 3821 141 
z
" transform="scale(0.015625)"/>
       <path id="LiberationSans-39" d="M 3256 2291 
Q 3256 1156 2842 546 
Q 2428 -63 1663 -63 
Q 1147 -63 836 154 
Q 525 372 391 856 
L 928 941 
Q 1097 391 1672 391 
Q 2156 391 2422 841 
Q 2688 1291 2700 2125 
Q 2575 1844 2272 1673 
Q 1969 1503 1606 1503 
Q 1013 1503 656 1909 
Q 300 2316 300 2988 
Q 300 3678 687 4073 
Q 1075 4469 1766 4469 
Q 2500 4469 2878 3925 
Q 3256 3381 3256 2291 
z
M 2644 2834 
Q 2644 3366 2400 3689 
Q 2156 4013 1747 4013 
Q 1341 4013 1106 3736 
Q 872 3459 872 2988 
Q 872 2506 1106 2226 
Q 1341 1947 1741 1947 
Q 1984 1947 2193 2058 
Q 2403 2169 2523 2372 
Q 2644 2575 2644 2834 
z
" transform="scale(0.015625)"/>
      </defs>
      <use xlink:href="#STIXGeneral-Regular-d7" transform="translate(0 0.140625)"/>
      <use xlink:href="#LiberationSans-31" transform="translate(63.999985 0.140625)"/>
      <use xlink:href="#LiberationSans-30" transform="translate(119.615219 0.140625)"/>
      <use xlink:href="#LiberationSans-31" transform="translate(176.154946 37.120312) scale(0.7)"/>
      <use xlink:href="#LiberationSans-39" transform="translate(215.08561 37.120312) scale(0.7)"/>
     </g>
    </g>
   </g>
   <g id="line2d_49">
    <path d="M 131.629431 66.514909 
L 132.446395 125.993204 
L 133.045503 211.636846 
L 135.060682 524.247653 
L 135.605325 572.005027 
L 136.095504 597.937881 
L 136.476754 608.72043 
L 136.80354 612.624945 
L 136.966933 613.063091 
L 137.075862 612.930577 
L 137.293719 611.62019 
L 137.620505 607.785159 
L 138.274076 595.610704 
L 139.308898 571.455171 
L 142.576757 493.858837 
L 143.393721 480.754568 
L 144.047293 473.58902 
L 144.591936 469.869447 
L 145.027651 468.364534 
L 145.354436 468.188039 
L 145.517829 468.338955 
L 145.844615 469.25286 
L 146.225865 471.255757 
L 146.716044 475.076551 
L 147.478544 483.032703 
L 148.676759 495.692287 
L 149.384795 500.932616 
L 149.82051 502.866017 
L 150.147295 503.593352 
L 150.474081 503.757384 
L 150.746403 503.569627 
L 151.018724 503.073985 
L 151.508903 501.542653 
L 152.325868 498.099444 
L 153.033904 495.059698 
L 153.850868 492.302302 
L 154.341047 491.276432 
L 154.831226 490.720886 
L 155.375869 490.523615 
L 156.465155 490.349181 
L 157.118727 490.060445 
L 158.589263 489.123529 
L 159.515156 489.054625 
L 160.114264 489.252141 
L 160.931228 489.852329 
L 161.802657 490.770711 
L 163.491051 492.776907 
L 164.36248 493.533481 
L 165.288373 493.97881 
L 165.88748 494.075267 
L 166.541052 494.027839 
L 167.412481 493.718653 
L 168.338374 493.171826 
L 169.42766 492.242656 
L 171.279447 490.579809 
L 172.423197 490.103144 
L 173.403555 490.109047 
L 174.438377 490.384098 
L 175.636592 490.74669 
L 177.597307 491.532788 
L 178.359807 492.217537 
L 180.483915 494.306592 
L 181.083022 494.478329 
L 181.518737 494.412183 
L 182.06338 494.075236 
L 182.553559 493.580984 
L 183.642845 492.044623 
L 185.385703 489.513887 
L 186.093739 488.897814 
L 186.311596 488.924546 
L 186.801775 489.017329 
L 187.291953 489.278025 
L 188.490168 490.274575 
L 192.030348 493.171785 
L 192.901777 493.571001 
L 193.664277 493.64095 
L 194.263385 493.466489 
L 194.971421 493.027024 
L 196.060707 492.01695 
L 197.313386 490.760765 
L 198.293744 490.14928 
L 199.056244 489.996121 
L 200.90803 490.077983 
L 202.051781 490.502128 
L 202.596424 490.890198 
L 203.467853 491.821092 
L 204.611603 493.427023 
L 205.646425 494.830566 
L 206.245533 495.323231 
L 206.790176 495.466472 
L 207.280354 495.321911 
L 207.661605 495.052281 
L 208.151783 494.501195 
L 209.077677 493.022689 
L 211.092856 489.454249 
L 211.855356 488.552113 
L 212.454464 488.18798 
L 212.890178 488.146068 
L 213.325893 488.278995 
L 213.652679 488.635158 
L 214.415179 489.632697 
L 216.70268 492.860039 
L 218.009823 494.064288 
L 218.663395 494.363493 
L 219.208038 494.453654 
L 220.079467 494.317447 
L 220.896431 493.948209 
L 222.040182 493.061394 
L 223.129468 491.999611 
L 225.362505 489.805873 
L 225.961612 489.457396 
L 226.724112 489.247831 
L 227.377684 489.276737 
L 228.249113 489.674765 
L 228.957149 490.306864 
L 229.937507 491.556911 
L 231.843757 494.116574 
L 232.551793 494.76569 
L 233.150901 495.020734 
L 233.695544 495.003944 
L 234.240187 494.773599 
L 234.948223 494.252133 
L 237.94376 491.147918 
L 240.340189 488.611534 
L 240.72144 488.510698 
L 241.157154 488.637035 
L 241.701797 489.080972 
L 242.300904 489.824923 
L 243.444655 491.581431 
L 244.969656 493.856621 
L 245.895549 494.776987 
L 246.494656 495.093525 
L 247.039299 495.170452 
L 247.638407 495.01904 
L 248.291978 494.591985 
L 249.054479 493.787817 
L 249.871443 492.694239 
L 251.886623 489.912904 
L 252.48573 489.375247 
L 253.193766 489.094418 
L 253.792873 489.118892 
L 254.391981 489.334551 
L 255.154481 489.801399 
L 256.40716 490.828229 
L 257.550911 491.710485 
L 258.749125 492.422177 
L 262.016984 493.875082 
L 262.833949 493.860421 
L 263.541985 493.550964 
L 264.195556 492.95762 
L 264.849128 492.128994 
L 267.354486 488.698934 
L 267.844665 488.516728 
L 268.334844 488.671016 
L 268.825022 489.077179 
L 269.750916 490.310535 
L 271.875024 493.101914 
L 272.474131 493.503838 
L 273.018774 493.633176 
L 273.563417 493.563151 
L 274.216989 493.239123 
L 274.979489 492.699407 
L 276.50449 491.687072 
L 277.26699 491.512404 
L 278.138419 491.521729 
L 279.28217 491.601728 
L 283.802707 491.542685 
L 285.273243 491.71977 
L 286.035744 491.835252 
L 287.233959 492.258072 
L 289.739317 493.360166 
L 290.556281 493.371921 
L 291.155389 493.166642 
L 291.917889 492.662402 
L 292.789318 491.851834 
L 294.804497 489.843217 
L 295.34914 489.639091 
L 295.893783 489.699779 
L 296.547355 490.031976 
L 297.36432 490.679375 
L 300.196464 492.932 
L 301.830393 493.597607 
L 302.810751 493.719351 
L 303.464322 493.597108 
L 304.226823 493.251734 
L 305.098252 492.593111 
L 308.692896 489.298596 
L 309.727718 488.904555 
L 310.326825 489.01235 
L 310.871468 489.427378 
L 311.579504 490.359319 
L 312.396469 491.802892 
L 313.867005 494.336888 
L 314.466112 495.02953 
L 315.010756 495.385846 
L 315.609863 495.474566 
L 316.372363 495.210104 
L 317.080399 494.677761 
L 318.115221 493.529992 
L 319.258972 491.787098 
L 320.947365 488.449755 
L 321.709865 487.126406 
L 322.308973 486.51554 
L 322.744687 486.457612 
L 323.125937 486.634787 
L 323.616116 487.16559 
L 324.269688 488.245593 
L 327.156296 493.773134 
L 327.755404 494.37016 
L 328.408975 494.672053 
L 329.008083 494.664563 
L 329.60719 494.396771 
L 330.36969 493.759609 
L 332.711656 491.354312 
L 334.944692 489.519071 
L 335.598264 489.263451 
L 336.251836 489.25536 
L 336.796479 489.480744 
L 337.395586 490.00054 
L 338.267015 491.201121 
L 339.955409 493.798734 
L 340.772373 494.666346 
L 341.425945 495.084647 
L 341.916124 495.21222 
L 342.569695 495.135826 
L 343.38666 494.721102 
L 344.475946 493.744301 
L 345.510768 492.51672 
L 348.615234 488.604783 
L 349.268805 488.097273 
L 349.70452 488.021268 
L 350.249163 488.236312 
L 351.011663 488.896244 
L 351.937556 490.064238 
L 354.606307 493.825969 
L 355.314343 494.448364 
L 355.913451 494.702972 
L 356.349165 494.731799 
L 356.839344 494.598777 
L 357.601844 494.122246 
L 359.181309 492.860113 
L 360.70631 492.112866 
L 361.523275 491.78413 
L 362.612561 491.102643 
L 364.954526 489.191583 
L 365.444705 489.199661 
L 365.825955 489.36589 
L 366.425062 489.913269 
L 367.242027 491.09259 
L 369.311671 494.483282 
L 370.074171 495.251402 
L 370.727743 495.551461 
L 371.272386 495.537072 
L 371.871493 495.238995 
L 372.797386 494.260732 
L 373.72328 492.864599 
L 375.683995 489.60152 
L 376.446495 488.738648 
L 376.991138 488.454684 
L 377.481317 488.455551 
L 378.134888 488.792299 
L 378.733996 489.32729 
L 379.986675 490.823941 
L 382.492033 493.891414 
L 383.363462 494.560029 
L 384.289355 494.793242 
L 384.942927 494.609927 
L 385.433106 494.302648 
L 386.086677 493.719402 
L 386.794713 492.892796 
L 388.973286 490.172985 
L 389.735786 489.607999 
L 390.389358 489.313442 
L 391.315251 489.232581 
L 391.859894 489.383242 
L 392.676859 489.935063 
L 393.33043 490.591958 
L 395.018824 492.72598 
L 396.217039 494.168101 
L 396.979539 494.762618 
L 397.578646 494.983193 
L 398.177754 494.986521 
L 398.831325 494.707717 
L 399.375969 494.284996 
L 400.247397 493.300572 
L 401.445612 491.620269 
L 402.752756 489.742796 
L 403.56972 488.995052 
L 404.005435 488.846187 
L 404.550078 488.986081 
L 405.149185 489.448681 
L 405.96615 490.440832 
L 407.600079 492.600498 
L 408.580437 493.532592 
L 409.288473 493.910429 
L 409.833116 494.070739 
L 410.976866 494.076876 
L 411.684902 493.925689 
L 412.828653 493.398461 
L 413.972403 492.541617 
L 414.789368 491.699245 
L 416.423297 489.967872 
L 417.131333 489.500916 
L 417.839369 489.281219 
L 418.492941 489.283092 
L 419.255441 489.537581 
L 420.072406 490.118132 
L 421.542942 491.629831 
L 424.375086 494.84098 
L 424.974193 495.078992 
L 425.464372 495.084086 
L 426.063479 494.829491 
L 426.608123 494.382987 
L 427.425087 493.373088 
L 428.950088 490.945916 
L 430.420624 488.661699 
L 431.183124 487.998186 
L 431.400982 487.988606 
L 431.782232 488.026143 
L 432.217946 488.300796 
L 432.871518 489.078319 
L 434.995626 492.253141 
L 435.758126 492.867548 
L 436.302769 493.052646 
L 436.901877 493.067893 
L 437.664377 492.898079 
L 440.169735 492.222821 
L 441.204557 491.900193 
L 442.021522 491.493194 
L 444.90813 489.867648 
L 445.834023 489.710427 
L 446.433131 489.882877 
L 446.923309 490.239478 
L 447.794738 491.289968 
L 450.191168 494.697192 
L 450.790275 495.095063 
L 451.22599 495.173926 
L 451.716168 495.045954 
L 452.097419 494.807959 
L 452.75099 494.182589 
L 453.567955 493.112765 
L 455.52867 490.275032 
L 457.217064 488.34813 
L 458.034028 487.838026 
L 458.469743 487.817288 
L 459.06885 488.262237 
L 459.722422 489.067144 
L 460.866172 490.960698 
L 462.500101 493.713534 
L 463.317066 494.723601 
L 463.916173 495.217904 
L 464.624209 495.464627 
L 465.223317 495.409901 
L 465.876889 495.070679 
L 466.639389 494.345692 
L 467.292961 493.569314 
L 469.525997 490.823564 
L 470.996534 489.524811 
L 471.976891 488.99609 
L 472.739391 488.876621 
L 473.338499 489.023194 
L 473.937606 489.447954 
L 474.482249 490.06758 
L 475.517071 491.523035 
L 476.551893 492.878735 
L 477.368858 493.64835 
L 478.240286 494.058397 
L 478.893858 494.108071 
L 479.874216 493.844087 
L 480.69118 493.30602 
L 481.617074 492.330685 
L 482.597431 490.992141 
L 484.122432 488.964676 
L 484.721539 488.441008 
L 485.266182 488.204921 
L 485.701897 488.207775 
L 486.301004 488.484006 
L 486.954576 489.085502 
L 487.880469 490.300527 
L 490.821542 494.541738 
L 491.692971 495.262691 
L 492.237614 495.499739 
L 492.782257 495.55312 
L 493.3269 495.408187 
L 493.926007 495.007086 
L 494.579579 494.285561 
L 495.451008 492.969511 
L 498.119759 488.580669 
L 498.609938 488.248184 
L 499.263509 488.117116 
L 499.753688 488.259052 
L 500.352795 488.659 
L 501.115296 489.535767 
L 501.986725 490.888868 
L 504.32869 494.606695 
L 505.09119 495.387957 
L 505.635833 495.640117 
L 506.126012 495.617403 
L 506.72512 495.272981 
L 507.378691 494.540973 
L 508.304584 493.038364 
L 509.992978 490.225522 
L 510.755478 489.445269 
L 511.463514 489.084786 
L 512.117086 489.05093 
L 512.879586 489.333753 
L 513.260836 489.788871 
L 514.18673 491.005069 
L 515.657266 492.845916 
L 517.127802 494.206941 
L 518.053696 494.753565 
L 518.979589 494.993228 
L 519.578696 494.933459 
L 520.123339 494.707772 
L 520.88584 494.076104 
L 521.920661 492.716087 
L 523.717984 490.248197 
L 524.371555 489.712273 
L 524.970663 489.491639 
L 525.56977 489.497934 
L 526.386735 489.734415 
L 527.203699 490.128691 
L 528.292985 490.825032 
L 529.382272 491.849417 
L 532.159951 494.710237 
L 532.867987 495.101234 
L 533.467095 495.180957 
L 534.066202 494.986205 
L 534.501917 494.68968 
L 535.318881 493.76644 
L 536.026917 492.697327 
L 538.423347 488.960669 
L 539.294776 488.073997 
L 539.784954 487.793028 
L 540.275133 487.765042 
L 540.765312 488.008775 
L 541.473348 488.636074 
L 542.290313 489.630371 
L 543.27067 491.104688 
L 544.577814 493.382237 
L 545.449242 494.753269 
L 546.04835 495.399714 
L 546.538529 495.653504 
L 546.919779 495.663599 
L 547.355493 495.455935 
L 547.954601 494.808356 
L 548.717101 493.537834 
L 550.623352 490.218604 
L 551.331388 489.471822 
L 552.093888 489.100875 
L 553.019781 489.23351 
L 553.782282 489.61819 
L 555.851925 491.221627 
L 558.956391 494.798081 
L 559.609963 495.419363 
L 560.20907 495.740192 
L 560.699249 495.796643 
L 561.298356 495.582886 
L 561.734071 495.257634 
L 562.496571 494.341084 
L 563.694786 492.312585 
L 565.873358 488.467417 
L 566.799251 487.404262 
L 567.398359 487.118079 
L 567.888537 487.223923 
L 568.324252 487.51109 
L 568.868895 488.092102 
L 569.685859 489.285205 
L 570.775146 491.226567 
L 572.409075 494.292007 
L 573.280504 495.46051 
L 573.879611 495.893281 
L 574.424254 495.9684 
L 574.859969 495.801505 
L 575.350148 495.387547 
L 576.112648 494.307285 
L 577.093005 492.492451 
L 578.509077 489.853494 
L 579.108185 489.100577 
L 579.598364 488.77358 
L 580.034078 488.703671 
L 580.469792 488.822384 
L 580.905507 489.084633 
L 581.8314 490.032977 
L 584.173365 492.689843 
L 584.99033 493.072639 
L 585.916223 493.151188 
L 587.059974 493.036137 
L 588.802832 492.590549 
L 589.619796 492.099812 
L 590.92694 490.89624 
L 592.234083 489.754808 
L 593.051048 489.28119 
L 593.595691 489.125824 
L 594.249262 489.188029 
L 594.739441 489.464086 
L 595.447477 490.173807 
L 598.061764 493.1172 
L 598.987657 493.875893 
L 600.240336 494.496207 
L 600.784979 494.583136 
L 601.710873 494.457601 
L 602.418909 494.056074 
L 603.126945 493.374881 
L 604.270695 491.930519 
L 606.721589 488.972415 
L 607.375161 488.76445 
L 607.974268 488.878775 
L 608.573375 489.261182 
L 609.39034 490.118464 
L 612.113555 493.671701 
L 612.876056 494.236994 
L 613.638556 494.591029 
L 614.292128 494.738336 
L 615.218021 494.711938 
L 615.817128 494.53575 
L 616.579629 494.08467 
L 617.2332 493.487746 
L 618.104629 492.389522 
L 619.901951 489.761324 
L 620.882309 488.542818 
L 621.481416 488.123407 
L 621.862666 488.052781 
L 622.352845 488.32513 
L 622.843024 488.842909 
L 623.768917 490.27868 
L 626.32874 494.176202 
L 627.036776 494.743322 
L 627.690347 495.016956 
L 628.507312 495.059789 
L 629.106419 494.906772 
L 629.705527 494.596706 
L 630.468027 493.968247 
L 631.448385 492.82966 
L 633.245707 490.109977 
L 633.899279 489.263542 
L 634.55285 488.712189 
L 635.206422 488.491209 
L 635.751065 488.555267 
L 636.404637 488.899689 
L 636.94928 489.391889 
L 638.038566 490.804621 
L 641.088567 494.866172 
L 642.01446 495.63264 
L 642.613568 495.871821 
L 643.212675 495.861585 
L 643.702854 495.636381 
L 644.247497 495.159956 
L 644.737676 494.520155 
L 645.445712 493.274695 
L 646.426069 491.186419 
L 647.842141 488.219421 
L 648.495713 487.372495 
L 649.040356 487.067745 
L 649.367142 487.275743 
L 649.802856 487.717701 
L 650.510892 488.887951 
L 652.689465 493.031661 
L 653.506429 493.977262 
L 654.105537 494.379342 
L 654.976966 494.583255 
L 655.739466 494.469963 
L 656.447502 494.172558 
L 657.318931 493.563357 
L 659.443039 491.518401 
L 660.477861 490.555805 
L 661.294825 489.928581 
L 662.220719 489.446563 
L 662.983219 489.256777 
L 663.582326 489.31863 
L 664.181434 489.620951 
L 664.943934 490.408005 
L 665.978756 491.946969 
L 667.122506 493.594678 
L 667.885007 494.355106 
L 668.42965 494.694031 
L 669.083221 494.851313 
L 669.682329 494.78185 
L 670.281436 494.55504 
L 671.098401 494.023223 
L 672.133223 493.018622 
L 673.276973 491.532371 
L 675.12876 488.917841 
L 675.89126 488.179649 
L 676.218046 488.006102 
L 676.218046 488.006102 
" clip-path="url(#p4a570835a0)" style="fill: none; stroke: #0000ff; stroke-width: 1.5; stroke-linecap: square"/>
   </g>
   <g id="patch_3">
    <path d="M 104.4 640.3905 
L 104.4 39.1875 
" style="fill: none; stroke: #000000; stroke-width: 0.8; stroke-linejoin: miter; stroke-linecap: square"/>
   </g>
   <g id="patch_4">
    <path d="M 703.447477 640.3905 
L 703.447477 39.1875 
" style="fill: none; stroke: #000000; stroke-width: 0.8; stroke-linejoin: miter; stroke-linecap: square"/>
   </g>
   <g id="patch_5">
    <path d="M 104.4 640.3905 
L 703.447477 640.3905 
" style="fill: none; stroke: #000000; stroke-width: 0.8; stroke-linejoin: miter; stroke-linecap: square"/>
   </g>
   <g id="patch_6">
    <path d="M 104.4 39.1875 
L 703.447477 39.1875 
" style="fill: none; stroke: #000000; stroke-width: 0.8; stroke-linejoin: miter; stroke-linecap: square"/>
   </g>
  </g>
 </g>
 <defs>
  <clipPath id="p4a570835a0">
   <rect x="104.4" y="39.1875" width="599.047477" height="601.203"/>
  </clipPath>
 </defs>
</svg>
