<?xml version="1.0" encoding="utf-8" standalone="no"?>
<!DOCTYPE svg PUBLIC "-//W3C//DTD SVG 1.1//EN"
  "http://www.w3.org/Graphics/SVG/1.1/DTD/svg11.dtd">
<svg xmlns:xlink="http://www.w3.org/1999/xlink" width="711.425625pt" height="711.033187pt" viewBox="0 0 711.425625 711.033187" xmlns="http://www.w3.org/2000/svg" version="1.1">
 <metadata>
  <rdf:RDF xmlns:dc="http://purl.org/dc/elements/1.1/" xmlns:cc="http://creativecommons.org/ns#" xmlns:rdf="http://www.w3.org/1999/02/22-rdf-syntax-ns#">
   <cc:Work>
    <dc:type rdf:resource="http://purl.org/dc/dcmitype/StillImage"/>
    <dc:date>2025-02-02T18:25:36.984785</dc:date>
    <dc:format>image/svg+xml</dc:format>
    <dc:creator>
     <cc:Agent>
      <dc:title>Matplotlib v3.9.3, https://matplotlib.org/</dc:title>
     </cc:Agent>
    </dc:creator>
   </cc:Work>
  </rdf:RDF>
 </metadata>
 <defs>
  <style type="text/css">*{stroke-linejoin: round; stroke-linecap: butt}</style>
 </defs>
 <g id="figure_1">
  <g id="patch_1">
   <path d="M 0 711.033187 
L 711.425625 711.033187 
L 711.425625 0 
L 0 0 
z
" style="fill: #ffffff"/>
  </g>
  <g id="axes_1">
   <g id="patch_2">
    <path d="M 57.785625 643.1985 
L 704.225625 643.1985 
L 704.225625 39.1875 
L 57.785625 39.1875 
z
" style="fill: #ffffff"/>
   </g>
   <g id="matplotlib.axis_1">
    <g id="xtick_1">
     <g id="line2d_1">
      <defs>
       <path id="m9fe25897d4" d="M 0 0 
L 0 -3.5 
" style="stroke: #000000; stroke-width: 0.8"/>
      </defs>
      <g>
       <use xlink:href="#m9fe25897d4" x="87.110482" y="643.1985" style="stroke: #000000; stroke-width: 0.8"/>
      </g>
     </g>
     <g id="text_1">
      <!-- 0 -->
      <g transform="translate(79.603217 666.265062) scale(0.27 -0.27)">
       <defs>
        <path id="LiberationSans-30" d="M 3309 2203 
Q 3309 1100 2920 518 
Q 2531 -63 1772 -63 
Q 1013 -63 631 515 
Q 250 1094 250 2203 
Q 250 3338 620 3903 
Q 991 4469 1791 4469 
Q 2569 4469 2939 3897 
Q 3309 3325 3309 2203 
z
M 2738 2203 
Q 2738 3156 2517 3584 
Q 2297 4013 1791 4013 
Q 1272 4013 1045 3591 
Q 819 3169 819 2203 
Q 819 1266 1048 831 
Q 1278 397 1778 397 
Q 2275 397 2506 840 
Q 2738 1284 2738 2203 
z
" transform="scale(0.015625)"/>
       </defs>
       <use xlink:href="#LiberationSans-30"/>
      </g>
     </g>
    </g>
    <g id="xtick_2">
     <g id="line2d_2">
      <g>
       <use xlink:href="#m9fe25897d4" x="204.668539" y="643.1985" style="stroke: #000000; stroke-width: 0.8"/>
      </g>
     </g>
     <g id="text_2">
      <!-- 2 -->
      <g transform="translate(197.161274 666.265062) scale(0.27 -0.27)">
       <defs>
        <path id="LiberationSans-32" d="M 322 0 
L 322 397 
Q 481 763 711 1042 
Q 941 1322 1194 1548 
Q 1447 1775 1695 1969 
Q 1944 2163 2144 2356 
Q 2344 2550 2467 2762 
Q 2591 2975 2591 3244 
Q 2591 3606 2378 3806 
Q 2166 4006 1788 4006 
Q 1428 4006 1195 3811 
Q 963 3616 922 3263 
L 347 3316 
Q 409 3844 795 4156 
Q 1181 4469 1788 4469 
Q 2453 4469 2811 4155 
Q 3169 3841 3169 3263 
Q 3169 3006 3051 2753 
Q 2934 2500 2703 2247 
Q 2472 1994 1819 1463 
Q 1459 1169 1246 933 
Q 1034 697 941 478 
L 3238 478 
L 3238 0 
L 322 0 
z
" transform="scale(0.015625)"/>
       </defs>
       <use xlink:href="#LiberationSans-32"/>
      </g>
     </g>
    </g>
    <g id="xtick_3">
     <g id="line2d_3">
      <g>
       <use xlink:href="#m9fe25897d4" x="322.226596" y="643.1985" style="stroke: #000000; stroke-width: 0.8"/>
      </g>
     </g>
     <g id="text_3">
      <!-- 4 -->
      <g transform="translate(314.719331 666.265062) scale(0.27 -0.27)">
       <defs>
        <path id="LiberationSans-34" d="M 2753 997 
L 2753 0 
L 2222 0 
L 2222 997 
L 147 997 
L 147 1434 
L 2163 4403 
L 2753 4403 
L 2753 1441 
L 3372 1441 
L 3372 997 
L 2753 997 
z
M 2222 3769 
Q 2216 3750 2134 3603 
Q 2053 3456 2013 3397 
L 884 1734 
L 716 1503 
L 666 1441 
L 2222 1441 
L 2222 3769 
z
" transform="scale(0.015625)"/>
       </defs>
       <use xlink:href="#LiberationSans-34"/>
      </g>
     </g>
    </g>
    <g id="xtick_4">
     <g id="line2d_4">
      <g>
       <use xlink:href="#m9fe25897d4" x="439.784654" y="643.1985" style="stroke: #000000; stroke-width: 0.8"/>
      </g>
     </g>
     <g id="text_4">
      <!-- 6 -->
      <g transform="translate(432.277388 666.265062) scale(0.27 -0.27)">
       <defs>
        <path id="LiberationSans-36" d="M 3278 1441 
Q 3278 744 2900 340 
Q 2522 -63 1856 -63 
Q 1113 -63 719 490 
Q 325 1044 325 2100 
Q 325 3244 734 3856 
Q 1144 4469 1900 4469 
Q 2897 4469 3156 3572 
L 2619 3475 
Q 2453 4013 1894 4013 
Q 1413 4013 1148 3564 
Q 884 3116 884 2266 
Q 1038 2550 1316 2698 
Q 1594 2847 1953 2847 
Q 2563 2847 2920 2465 
Q 3278 2084 3278 1441 
z
M 2706 1416 
Q 2706 1894 2472 2153 
Q 2238 2413 1819 2413 
Q 1425 2413 1183 2183 
Q 941 1953 941 1550 
Q 941 1041 1192 716 
Q 1444 391 1838 391 
Q 2244 391 2475 664 
Q 2706 938 2706 1416 
z
" transform="scale(0.015625)"/>
       </defs>
       <use xlink:href="#LiberationSans-36"/>
      </g>
     </g>
    </g>
    <g id="xtick_5">
     <g id="line2d_5">
      <g>
       <use xlink:href="#m9fe25897d4" x="557.342711" y="643.1985" style="stroke: #000000; stroke-width: 0.8"/>
      </g>
     </g>
     <g id="text_5">
      <!-- 8 -->
      <g transform="translate(549.835445 666.265062) scale(0.27 -0.27)">
       <defs>
        <path id="LiberationSans-38" d="M 3281 1228 
Q 3281 619 2893 278 
Q 2506 -63 1781 -63 
Q 1075 -63 676 271 
Q 278 606 278 1222 
Q 278 1653 525 1947 
Q 772 2241 1156 2303 
L 1156 2316 
Q 797 2400 589 2681 
Q 381 2963 381 3341 
Q 381 3844 757 4156 
Q 1134 4469 1769 4469 
Q 2419 4469 2795 4162 
Q 3172 3856 3172 3334 
Q 3172 2956 2962 2675 
Q 2753 2394 2391 2322 
L 2391 2309 
Q 2813 2241 3047 1952 
Q 3281 1663 3281 1228 
z
M 2588 3303 
Q 2588 4050 1769 4050 
Q 1372 4050 1164 3862 
Q 956 3675 956 3303 
Q 956 2925 1170 2726 
Q 1384 2528 1775 2528 
Q 2172 2528 2380 2711 
Q 2588 2894 2588 3303 
z
M 2697 1281 
Q 2697 1691 2453 1898 
Q 2209 2106 1769 2106 
Q 1341 2106 1100 1882 
Q 859 1659 859 1269 
Q 859 359 1788 359 
Q 2247 359 2472 579 
Q 2697 800 2697 1281 
z
" transform="scale(0.015625)"/>
       </defs>
       <use xlink:href="#LiberationSans-38"/>
      </g>
     </g>
    </g>
    <g id="xtick_6">
     <g id="line2d_6">
      <g>
       <use xlink:href="#m9fe25897d4" x="674.900768" y="643.1985" style="stroke: #000000; stroke-width: 0.8"/>
      </g>
     </g>
     <g id="text_6">
      <!-- 10 -->
      <g transform="translate(659.886236 666.265062) scale(0.27 -0.27)">
       <defs>
        <path id="LiberationSans-31" d="M 488 0 
L 488 478 
L 1609 478 
L 1609 3866 
L 616 3156 
L 616 3688 
L 1656 4403 
L 2175 4403 
L 2175 478 
L 3247 478 
L 3247 0 
L 488 0 
z
" transform="scale(0.015625)"/>
       </defs>
       <use xlink:href="#LiberationSans-31"/>
       <use xlink:href="#LiberationSans-30" x="55.615234"/>
      </g>
     </g>
    </g>
    <g id="xtick_7">
     <g id="line2d_7">
      <defs>
       <path id="m1270f14a80" d="M 0 0 
L 0 -2 
" style="stroke: #000000; stroke-width: 0.6"/>
      </defs>
      <g>
       <use xlink:href="#m1270f14a80" x="116.499997" y="643.1985" style="stroke: #000000; stroke-width: 0.6"/>
      </g>
     </g>
    </g>
    <g id="xtick_8">
     <g id="line2d_8">
      <g>
       <use xlink:href="#m1270f14a80" x="145.889511" y="643.1985" style="stroke: #000000; stroke-width: 0.6"/>
      </g>
     </g>
    </g>
    <g id="xtick_9">
     <g id="line2d_9">
      <g>
       <use xlink:href="#m1270f14a80" x="175.279025" y="643.1985" style="stroke: #000000; stroke-width: 0.6"/>
      </g>
     </g>
    </g>
    <g id="xtick_10">
     <g id="line2d_10">
      <g>
       <use xlink:href="#m1270f14a80" x="234.058054" y="643.1985" style="stroke: #000000; stroke-width: 0.6"/>
      </g>
     </g>
    </g>
    <g id="xtick_11">
     <g id="line2d_11">
      <g>
       <use xlink:href="#m1270f14a80" x="263.447568" y="643.1985" style="stroke: #000000; stroke-width: 0.6"/>
      </g>
     </g>
    </g>
    <g id="xtick_12">
     <g id="line2d_12">
      <g>
       <use xlink:href="#m1270f14a80" x="292.837082" y="643.1985" style="stroke: #000000; stroke-width: 0.6"/>
      </g>
     </g>
    </g>
    <g id="xtick_13">
     <g id="line2d_13">
      <g>
       <use xlink:href="#m1270f14a80" x="351.616111" y="643.1985" style="stroke: #000000; stroke-width: 0.6"/>
      </g>
     </g>
    </g>
    <g id="xtick_14">
     <g id="line2d_14">
      <g>
       <use xlink:href="#m1270f14a80" x="381.005625" y="643.1985" style="stroke: #000000; stroke-width: 0.6"/>
      </g>
     </g>
    </g>
    <g id="xtick_15">
     <g id="line2d_15">
      <g>
       <use xlink:href="#m1270f14a80" x="410.395139" y="643.1985" style="stroke: #000000; stroke-width: 0.6"/>
      </g>
     </g>
    </g>
    <g id="xtick_16">
     <g id="line2d_16">
      <g>
       <use xlink:href="#m1270f14a80" x="469.174168" y="643.1985" style="stroke: #000000; stroke-width: 0.6"/>
      </g>
     </g>
    </g>
    <g id="xtick_17">
     <g id="line2d_17">
      <g>
       <use xlink:href="#m1270f14a80" x="498.563682" y="643.1985" style="stroke: #000000; stroke-width: 0.6"/>
      </g>
     </g>
    </g>
    <g id="xtick_18">
     <g id="line2d_18">
      <g>
       <use xlink:href="#m1270f14a80" x="527.953196" y="643.1985" style="stroke: #000000; stroke-width: 0.6"/>
      </g>
     </g>
    </g>
    <g id="xtick_19">
     <g id="line2d_19">
      <g>
       <use xlink:href="#m1270f14a80" x="586.732225" y="643.1985" style="stroke: #000000; stroke-width: 0.6"/>
      </g>
     </g>
    </g>
    <g id="xtick_20">
     <g id="line2d_20">
      <g>
       <use xlink:href="#m1270f14a80" x="616.121739" y="643.1985" style="stroke: #000000; stroke-width: 0.6"/>
      </g>
     </g>
    </g>
    <g id="xtick_21">
     <g id="line2d_21">
      <g>
       <use xlink:href="#m1270f14a80" x="645.511253" y="643.1985" style="stroke: #000000; stroke-width: 0.6"/>
      </g>
     </g>
    </g>
    <g id="text_7">
     <!-- Time ps -->
     <g transform="translate(328.229062 697.608187) scale(0.3 -0.3)">
      <defs>
       <path id="LiberationSans-54" d="M 2250 3916 
L 2250 0 
L 1656 0 
L 1656 3916 
L 144 3916 
L 144 4403 
L 3763 4403 
L 3763 3916 
L 2250 3916 
z
" transform="scale(0.015625)"/>
       <path id="LiberationSans-69" d="M 428 4100 
L 428 4638 
L 991 4638 
L 991 4100 
L 428 4100 
z
M 428 0 
L 428 3381 
L 991 3381 
L 991 0 
L 428 0 
z
" transform="scale(0.015625)"/>
       <path id="LiberationSans-6d" d="M 2400 0 
L 2400 2144 
Q 2400 2634 2265 2821 
Q 2131 3009 1781 3009 
Q 1422 3009 1212 2734 
Q 1003 2459 1003 1959 
L 1003 0 
L 444 0 
L 444 2659 
Q 444 3250 425 3381 
L 956 3381 
Q 959 3366 962 3297 
Q 966 3228 970 3139 
Q 975 3050 981 2803 
L 991 2803 
Q 1172 3163 1406 3303 
Q 1641 3444 1978 3444 
Q 2363 3444 2586 3291 
Q 2809 3138 2897 2803 
L 2906 2803 
Q 3081 3144 3329 3294 
Q 3578 3444 3931 3444 
Q 4444 3444 4676 3166 
Q 4909 2888 4909 2253 
L 4909 0 
L 4353 0 
L 4353 2144 
Q 4353 2634 4218 2821 
Q 4084 3009 3734 3009 
Q 3366 3009 3161 2736 
Q 2956 2463 2956 1959 
L 2956 0 
L 2400 0 
z
" transform="scale(0.015625)"/>
       <path id="LiberationSans-65" d="M 863 1572 
Q 863 991 1103 675 
Q 1344 359 1806 359 
Q 2172 359 2392 506 
Q 2613 653 2691 878 
L 3184 738 
Q 2881 -63 1806 -63 
Q 1056 -63 664 384 
Q 272 831 272 1713 
Q 272 2550 664 2997 
Q 1056 3444 1784 3444 
Q 3275 3444 3275 1647 
L 3275 1572 
L 863 1572 
z
M 2694 2003 
Q 2647 2538 2422 2783 
Q 2197 3028 1775 3028 
Q 1366 3028 1127 2754 
Q 888 2481 869 2003 
L 2694 2003 
z
" transform="scale(0.015625)"/>
       <path id="LiberationSans-20" transform="scale(0.015625)"/>
       <path id="LiberationSans-70" d="M 3291 1706 
Q 3291 -63 2047 -63 
Q 1266 -63 997 525 
L 981 525 
Q 994 500 994 -6 
L 994 -1328 
L 431 -1328 
L 431 2691 
Q 431 3213 413 3381 
L 956 3381 
Q 959 3369 965 3292 
Q 972 3216 980 3056 
Q 988 2897 988 2838 
L 1000 2838 
Q 1150 3150 1397 3295 
Q 1644 3441 2047 3441 
Q 2672 3441 2981 3022 
Q 3291 2603 3291 1706 
z
M 2700 1694 
Q 2700 2400 2509 2703 
Q 2319 3006 1903 3006 
Q 1569 3006 1380 2865 
Q 1191 2725 1092 2426 
Q 994 2128 994 1650 
Q 994 984 1206 668 
Q 1419 353 1897 353 
Q 2316 353 2508 661 
Q 2700 969 2700 1694 
z
" transform="scale(0.015625)"/>
       <path id="LiberationSans-73" d="M 2969 934 
Q 2969 456 2608 196 
Q 2247 -63 1597 -63 
Q 966 -63 623 145 
Q 281 353 178 794 
L 675 891 
Q 747 619 972 492 
Q 1197 366 1597 366 
Q 2025 366 2223 497 
Q 2422 628 2422 891 
Q 2422 1091 2284 1216 
Q 2147 1341 1841 1422 
L 1438 1528 
Q 953 1653 748 1773 
Q 544 1894 428 2066 
Q 313 2238 313 2488 
Q 313 2950 642 3192 
Q 972 3434 1603 3434 
Q 2163 3434 2492 3237 
Q 2822 3041 2909 2606 
L 2403 2544 
Q 2356 2769 2151 2889 
Q 1947 3009 1603 3009 
Q 1222 3009 1040 2893 
Q 859 2778 859 2544 
Q 859 2400 934 2306 
Q 1009 2213 1156 2147 
Q 1303 2081 1775 1966 
Q 2222 1853 2419 1758 
Q 2616 1663 2730 1547 
Q 2844 1431 2906 1279 
Q 2969 1128 2969 934 
z
" transform="scale(0.015625)"/>
      </defs>
      <use xlink:href="#LiberationSans-54"/>
      <use xlink:href="#LiberationSans-69" x="57.333984"/>
      <use xlink:href="#LiberationSans-6d" x="79.550781"/>
      <use xlink:href="#LiberationSans-65" x="162.851562"/>
      <use xlink:href="#LiberationSans-20" x="218.466797"/>
      <use xlink:href="#LiberationSans-70" x="246.25"/>
      <use xlink:href="#LiberationSans-73" x="301.865234"/>
     </g>
    </g>
   </g>
   <g id="matplotlib.axis_2">
    <g id="ytick_1">
     <g id="line2d_22">
      <defs>
       <path id="m45e84a4bfb" d="M 0 0 
L 3.5 0 
" style="stroke: #000000; stroke-width: 0.8"/>
      </defs>
      <g>
       <use xlink:href="#m45e84a4bfb" x="57.785625" y="615.743455" style="stroke: #000000; stroke-width: 0.8"/>
      </g>
     </g>
     <g id="text_8">
      <!-- $\mathdefault{0}$ -->
      <g transform="translate(39.165625 625.526736) scale(0.27 -0.27)">
       <use xlink:href="#LiberationSans-30" transform="translate(0 0.171875)"/>
      </g>
     </g>
    </g>
    <g id="ytick_2">
     <g id="line2d_23">
      <g>
       <use xlink:href="#m45e84a4bfb" x="57.785625" y="496.051056" style="stroke: #000000; stroke-width: 0.8"/>
      </g>
     </g>
     <g id="text_9">
      <!-- $\mathdefault{2}$ -->
      <g transform="translate(39.165625 505.834337) scale(0.27 -0.27)">
       <use xlink:href="#LiberationSans-32" transform="translate(0 0.171875)"/>
      </g>
     </g>
    </g>
    <g id="ytick_3">
     <g id="line2d_24">
      <g>
       <use xlink:href="#m45e84a4bfb" x="57.785625" y="376.358657" style="stroke: #000000; stroke-width: 0.8"/>
      </g>
     </g>
     <g id="text_10">
      <!-- $\mathdefault{4}$ -->
      <g transform="translate(39.165625 386.141938) scale(0.27 -0.27)">
       <use xlink:href="#LiberationSans-34" transform="translate(0 0.203125)"/>
      </g>
     </g>
    </g>
    <g id="ytick_4">
     <g id="line2d_25">
      <g>
       <use xlink:href="#m45e84a4bfb" x="57.785625" y="256.666258" style="stroke: #000000; stroke-width: 0.8"/>
      </g>
     </g>
     <g id="text_11">
      <!-- $\mathdefault{6}$ -->
      <g transform="translate(39.165625 266.44954) scale(0.27 -0.27)">
       <use xlink:href="#LiberationSans-36" transform="translate(0 0.171875)"/>
      </g>
     </g>
    </g>
    <g id="ytick_5">
     <g id="line2d_26">
      <g>
       <use xlink:href="#m45e84a4bfb" x="57.785625" y="136.97386" style="stroke: #000000; stroke-width: 0.8"/>
      </g>
     </g>
     <g id="text_12">
      <!-- $\mathdefault{8}$ -->
      <g transform="translate(39.165625 146.757141) scale(0.27 -0.27)">
       <use xlink:href="#LiberationSans-38" transform="translate(0 0.171875)"/>
      </g>
     </g>
    </g>
    <g id="ytick_6">
     <g id="line2d_27">
      <defs>
       <path id="me50df9fc66" d="M 0 0 
L 2 0 
" style="stroke: #000000; stroke-width: 0.6"/>
      </defs>
      <g>
       <use xlink:href="#me50df9fc66" x="57.785625" y="585.820355" style="stroke: #000000; stroke-width: 0.6"/>
      </g>
     </g>
    </g>
    <g id="ytick_7">
     <g id="line2d_28">
      <g>
       <use xlink:href="#me50df9fc66" x="57.785625" y="555.897255" style="stroke: #000000; stroke-width: 0.6"/>
      </g>
     </g>
    </g>
    <g id="ytick_8">
     <g id="line2d_29">
      <g>
       <use xlink:href="#me50df9fc66" x="57.785625" y="525.974155" style="stroke: #000000; stroke-width: 0.6"/>
      </g>
     </g>
    </g>
    <g id="ytick_9">
     <g id="line2d_30">
      <g>
       <use xlink:href="#me50df9fc66" x="57.785625" y="466.127956" style="stroke: #000000; stroke-width: 0.6"/>
      </g>
     </g>
    </g>
    <g id="ytick_10">
     <g id="line2d_31">
      <g>
       <use xlink:href="#me50df9fc66" x="57.785625" y="436.204856" style="stroke: #000000; stroke-width: 0.6"/>
      </g>
     </g>
    </g>
    <g id="ytick_11">
     <g id="line2d_32">
      <g>
       <use xlink:href="#me50df9fc66" x="57.785625" y="406.281757" style="stroke: #000000; stroke-width: 0.6"/>
      </g>
     </g>
    </g>
    <g id="ytick_12">
     <g id="line2d_33">
      <g>
       <use xlink:href="#me50df9fc66" x="57.785625" y="346.435557" style="stroke: #000000; stroke-width: 0.6"/>
      </g>
     </g>
    </g>
    <g id="ytick_13">
     <g id="line2d_34">
      <g>
       <use xlink:href="#me50df9fc66" x="57.785625" y="316.512458" style="stroke: #000000; stroke-width: 0.6"/>
      </g>
     </g>
    </g>
    <g id="ytick_14">
     <g id="line2d_35">
      <g>
       <use xlink:href="#me50df9fc66" x="57.785625" y="286.589358" style="stroke: #000000; stroke-width: 0.6"/>
      </g>
     </g>
    </g>
    <g id="ytick_15">
     <g id="line2d_36">
      <g>
       <use xlink:href="#me50df9fc66" x="57.785625" y="226.743159" style="stroke: #000000; stroke-width: 0.6"/>
      </g>
     </g>
    </g>
    <g id="ytick_16">
     <g id="line2d_37">
      <g>
       <use xlink:href="#me50df9fc66" x="57.785625" y="196.820059" style="stroke: #000000; stroke-width: 0.6"/>
      </g>
     </g>
    </g>
    <g id="ytick_17">
     <g id="line2d_38">
      <g>
       <use xlink:href="#me50df9fc66" x="57.785625" y="166.896959" style="stroke: #000000; stroke-width: 0.6"/>
      </g>
     </g>
    </g>
    <g id="ytick_18">
     <g id="line2d_39">
      <g>
       <use xlink:href="#me50df9fc66" x="57.785625" y="107.05076" style="stroke: #000000; stroke-width: 0.6"/>
      </g>
     </g>
    </g>
    <g id="ytick_19">
     <g id="line2d_40">
      <g>
       <use xlink:href="#me50df9fc66" x="57.785625" y="77.12766" style="stroke: #000000; stroke-width: 0.6"/>
      </g>
     </g>
    </g>
    <g id="ytick_20">
     <g id="line2d_41">
      <g>
       <use xlink:href="#me50df9fc66" x="57.785625" y="47.20456" style="stroke: #000000; stroke-width: 0.6"/>
      </g>
     </g>
    </g>
    <g id="text_13">
     <!-- ITR $\mathrm{K} \cdot \mathrm{m}^2 / \mathrm{W}$ -->
     <g transform="translate(28.940625 425.193) rotate(-90) scale(0.3 -0.3)">
      <defs>
       <path id="LiberationSans-49" d="M 591 0 
L 591 4403 
L 1188 4403 
L 1188 0 
L 591 0 
z
" transform="scale(0.015625)"/>
       <path id="LiberationSans-52" d="M 3638 0 
L 2494 1828 
L 1122 1828 
L 1122 0 
L 525 0 
L 525 4403 
L 2597 4403 
Q 3341 4403 3745 4070 
Q 4150 3738 4150 3144 
Q 4150 2653 3864 2318 
Q 3578 1984 3075 1897 
L 4325 0 
L 3638 0 
z
M 3550 3138 
Q 3550 3522 3289 3723 
Q 3028 3925 2538 3925 
L 1122 3925 
L 1122 2300 
L 2563 2300 
Q 3034 2300 3292 2520 
Q 3550 2741 3550 3138 
z
" transform="scale(0.015625)"/>
       <path id="STIXGeneral-Regular-4b" d="M 4627 0 
L 2688 0 
L 2688 122 
L 2861 128 
Q 3130 134 3130 282 
Q 3130 397 2922 643 
Q 2714 890 2253 1370 
L 1613 2029 
L 1446 1894 
L 1446 710 
Q 1446 352 1548 253 
Q 1651 154 2016 122 
L 2016 0 
L 211 0 
L 211 122 
Q 589 141 691 262 
Q 794 384 794 800 
L 794 3514 
Q 794 3872 691 3981 
Q 589 4090 218 4115 
L 218 4237 
L 2022 4237 
L 2022 4115 
Q 1632 4090 1539 3987 
Q 1446 3885 1446 3507 
L 1446 2227 
L 2586 3277 
Q 2861 3533 2973 3667 
Q 3085 3802 3085 3910 
Q 3085 4013 3030 4057 
Q 2976 4102 2822 4109 
L 2662 4115 
L 2662 4237 
L 4320 4237 
L 4320 4115 
Q 3994 4090 3824 4003 
Q 3654 3917 3322 3597 
L 2131 2458 
L 3629 819 
Q 4026 384 4214 253 
Q 4403 122 4627 122 
L 4627 0 
z
" transform="scale(0.015625)"/>
       <path id="STIXGeneral-Regular-22c5" d="M 1187 1888 
Q 1299 1773 1299 1619 
Q 1299 1466 1187 1350 
Q 1075 1235 921 1235 
Q 768 1235 649 1353 
Q 531 1472 531 1619 
Q 531 1766 649 1884 
Q 768 2003 921 2003 
Q 1075 2003 1187 1888 
z
" transform="scale(0.015625)"/>
       <path id="STIXGeneral-Regular-6d" d="M 4960 0 
L 3565 0 
L 3565 96 
Q 3834 122 3907 208 
Q 3981 294 3981 576 
L 3981 1894 
Q 3981 2278 3869 2444 
Q 3757 2611 3488 2611 
Q 3264 2611 3107 2521 
Q 2950 2432 2803 2221 
L 2803 608 
Q 2803 301 2896 201 
Q 2989 102 3264 96 
L 3264 0 
L 1830 0 
L 1830 96 
Q 2112 115 2189 188 
Q 2266 262 2266 550 
L 2266 1901 
Q 2266 2611 1850 2611 
Q 1670 2611 1468 2531 
Q 1267 2451 1171 2336 
Q 1088 2240 1088 2227 
L 1088 448 
Q 1088 243 1177 176 
Q 1267 109 1523 96 
L 1523 0 
L 102 0 
L 102 96 
Q 371 102 460 195 
Q 550 288 550 563 
L 550 2150 
Q 550 2387 499 2480 
Q 448 2573 326 2573 
Q 230 2573 122 2547 
L 122 2656 
Q 557 2778 1011 2944 
L 1062 2925 
L 1062 2451 
L 1075 2451 
Q 1363 2752 1584 2848 
Q 1805 2944 2054 2944 
Q 2560 2944 2733 2406 
Q 3232 2944 3776 2944 
Q 4518 2944 4518 1792 
L 4518 493 
Q 4518 282 4582 202 
Q 4646 122 4794 109 
L 4960 96 
L 4960 0 
z
" transform="scale(0.015625)"/>
       <path id="STIXGeneral-Regular-32" d="M 3034 877 
L 2688 0 
L 186 0 
L 186 77 
L 1325 1286 
Q 1773 1754 1965 2144 
Q 2157 2534 2157 2950 
Q 2157 3379 1920 3616 
Q 1683 3853 1267 3853 
Q 922 3853 720 3673 
Q 518 3494 326 3021 
L 192 3053 
Q 301 3648 630 3987 
Q 960 4326 1523 4326 
Q 2054 4326 2380 4006 
Q 2707 3686 2707 3200 
Q 2707 2477 1888 1613 
L 832 486 
L 2330 486 
Q 2541 486 2665 569 
Q 2790 653 2944 915 
L 3034 877 
z
" transform="scale(0.015625)"/>
       <path id="STIXGeneral-Regular-2f" d="M 1837 4326 
L 378 -90 
L -58 -90 
L 1408 4326 
L 1837 4326 
z
" transform="scale(0.015625)"/>
       <path id="STIXGeneral-Regular-57" d="M 5965 4237 
L 5965 4115 
Q 5709 4064 5616 3990 
Q 5523 3917 5434 3667 
Q 4704 1709 4128 -70 
L 4032 -70 
Q 3642 1011 3008 2637 
L 2022 -70 
L 1926 -70 
Q 1709 576 1277 1753 
Q 845 2931 698 3347 
Q 538 3808 406 3958 
Q 275 4109 32 4115 
L 32 4237 
L 1594 4237 
L 1594 4115 
Q 1357 4109 1270 4064 
Q 1184 4019 1184 3917 
Q 1184 3808 1254 3616 
L 2176 1210 
L 2842 3021 
L 2662 3501 
Q 2509 3917 2400 4013 
Q 2291 4109 2010 4115 
L 2010 4237 
L 3706 4237 
L 3706 4115 
Q 3213 4102 3213 3891 
Q 3213 3808 3322 3520 
L 4237 1190 
L 5043 3360 
Q 5152 3667 5152 3853 
Q 5152 4109 4704 4115 
L 4704 4237 
L 5965 4237 
z
" transform="scale(0.015625)"/>
      </defs>
      <use xlink:href="#LiberationSans-49" transform="translate(0 0.409375)"/>
      <use xlink:href="#LiberationSans-54" transform="translate(27.783203 0.409375)"/>
      <use xlink:href="#LiberationSans-52" transform="translate(88.867188 0.409375)"/>
      <use xlink:href="#LiberationSans-20" transform="translate(161.083984 0.409375)"/>
      <use xlink:href="#STIXGeneral-Regular-4b" transform="translate(188.867188 0.409375)"/>
      <use xlink:href="#STIXGeneral-Regular-22c5" transform="translate(275.507166 0.409375)"/>
      <use xlink:href="#STIXGeneral-Regular-6d" transform="translate(318.547153 0.409375)"/>
      <use xlink:href="#STIXGeneral-Regular-32" transform="translate(397.890422 35.684375) scale(0.7)"/>
      <use xlink:href="#STIXGeneral-Regular-2f" transform="translate(437.299786 0.409375)"/>
      <use xlink:href="#STIXGeneral-Regular-57" transform="translate(465.099774 0.409375)"/>
     </g>
    </g>
    <g id="text_14">
     <!-- $\times\mathdefault{10^{−7}}\mathdefault{}$ -->
     <g transform="translate(57.785625 36.1875) scale(0.4 -0.4)">
      <defs>
       <path id="STIXGeneral-Regular-d7" d="M 3821 141 
L 3526 -160 
L 2048 1312 
L 570 -160 
L 275 134 
L 1747 1613 
L 275 3091 
L 576 3386 
L 2048 1914 
L 3526 3386 
L 3821 3098 
L 2349 1613 
L 3821 141 
z
" transform="scale(0.015625)"/>
       <path id="LiberationSans-2212" d="M 316 1900 
L 316 2356 
L 3425 2356 
L 3425 1900 
L 316 1900 
z
" transform="scale(0.015625)"/>
       <path id="LiberationSans-37" d="M 3238 3947 
Q 2563 2916 2284 2331 
Q 2006 1747 1867 1178 
Q 1728 609 1728 0 
L 1141 0 
Q 1141 844 1498 1776 
Q 1856 2709 2694 3925 
L 328 3925 
L 328 4403 
L 3238 4403 
L 3238 3947 
z
" transform="scale(0.015625)"/>
      </defs>
      <use xlink:href="#STIXGeneral-Regular-d7" transform="translate(0 0.8625)"/>
      <use xlink:href="#LiberationSans-31" transform="translate(63.999985 0.8625)"/>
      <use xlink:href="#LiberationSans-30" transform="translate(119.615219 0.8625)"/>
      <use xlink:href="#LiberationSans-2212" transform="translate(176.154946 37.842188) scale(0.7)"/>
      <use xlink:href="#LiberationSans-37" transform="translate(217.033852 37.842188) scale(0.7)"/>
     </g>
    </g>
   </g>
   <g id="line2d_42">
    <path d="M 87.169261 615.743455 
L 87.22804 66.642545 
L 87.286819 340.371047 
L 87.463157 504.780854 
L 87.698273 553.260004 
L 87.992168 574.599844 
L 88.344842 585.79127 
L 88.756295 592.193011 
L 89.167748 595.606324 
L 89.637981 597.709552 
L 90.049434 598.630728 
L 90.402108 598.957997 
L 90.696003 598.976421 
L 91.048677 598.741128 
L 91.46013 598.153745 
L 91.989142 596.94782 
L 92.635711 594.821222 
L 93.341059 591.691154 
L 94.163966 586.946999 
L 95.045651 580.528709 
L 96.162453 570.654657 
L 97.690707 557.212444 
L 98.278498 553.842148 
L 98.689951 552.513202 
L 98.983846 552.11789 
L 99.218962 552.122416 
L 99.454078 552.389273 
L 99.806752 553.217186 
L 100.335764 555.19585 
L 101.276228 559.819458 
L 102.569367 565.968418 
L 103.333494 568.640055 
L 103.980064 570.162812 
L 104.509075 570.890619 
L 104.979307 571.167034 
L 105.39076 571.147912 
L 105.802213 570.909003 
L 106.331225 570.324525 
L 107.095352 569.078009 
L 109.387734 565.03019 
L 110.093082 564.33318 
L 110.739652 564.005216 
L 111.386221 563.926712 
L 112.267907 564.064492 
L 114.677847 564.772927 
L 116.088543 565.396006 
L 119.027495 566.797005 
L 120.144296 567.052439 
L 121.202319 567.07235 
L 122.377899 566.861138 
L 124.023712 566.306878 
L 126.727548 565.390181 
L 128.020686 565.200747 
L 129.196267 565.261189 
L 130.548184 565.58044 
L 135.309286 566.920257 
L 137.131436 567.133796 
L 138.307016 567.051954 
L 139.423818 566.751459 
L 141.187189 565.991657 
L 142.480327 565.543852 
L 143.420792 565.440105 
L 144.302477 565.556404 
L 145.301721 565.918991 
L 148.94602 567.504286 
L 150.239159 567.682818 
L 151.532298 567.636044 
L 153.001773 567.345714 
L 156.410957 566.549357 
L 157.527759 566.585397 
L 158.762118 566.851271 
L 164.640021 568.445892 
L 165.698043 568.364573 
L 166.697287 568.059521 
L 167.931647 567.418123 
L 170.16525 566.215396 
L 171.105714 566.001574 
L 171.928621 566.039038 
L 172.810306 566.302925 
L 173.927107 566.891777 
L 176.572164 568.403229 
L 177.571407 568.651521 
L 178.570651 568.677682 
L 179.687452 568.485207 
L 181.098149 567.999455 
L 184.507333 566.730767 
L 185.741692 566.559786 
L 186.858494 566.623428 
L 188.034074 566.916689 
L 189.679887 567.592465 
L 192.089827 568.568619 
L 193.206629 568.773027 
L 194.205872 568.740792 
L 195.263895 568.480731 
L 196.557033 567.911967 
L 199.20209 566.679276 
L 200.37767 566.41164 
L 201.494472 566.378461 
L 202.611273 566.567671 
L 203.728075 566.992207 
L 205.491446 567.967597 
L 206.725805 568.512214 
L 207.725049 568.716094 
L 208.665513 568.691244 
L 209.664757 568.446066 
L 210.899116 567.903441 
L 214.131963 566.351757 
L 215.131206 566.183216 
L 216.071671 566.244409 
L 217.129693 566.551612 
L 218.775506 567.315617 
L 220.656435 568.118739 
L 222.008353 568.45324 
L 223.41905 568.561243 
L 225.006083 568.456428 
L 226.651896 568.131532 
L 228.885499 567.436766 
L 230.472533 567.04167 
L 231.471776 567.017442 
L 232.412241 567.218737 
L 233.470263 567.684135 
L 236.11532 568.97089 
L 237.114563 569.145701 
L 238.172586 569.104918 
L 239.583282 568.797396 
L 241.934443 568.272065 
L 243.34514 568.216373 
L 247.106998 568.446167 
L 255.571178 568.809336 
L 257.27577 568.555016 
L 260.92007 567.893938 
L 262.09565 567.993155 
L 263.33001 568.334253 
L 266.210182 569.241878 
L 267.5621 569.363647 
L 268.972797 569.256544 
L 270.736167 568.886234 
L 274.615583 567.973503 
L 275.791164 567.993759 
L 277.025524 568.25006 
L 278.494999 568.803045 
L 281.551509 570.054351 
L 282.491973 570.13168 
L 283.432438 569.978221 
L 284.49046 569.566568 
L 286.547726 568.444289 
L 288.017202 567.778523 
L 289.075224 567.522876 
L 290.015689 567.519739 
L 290.897374 567.749704 
L 291.77906 568.221965 
L 292.95464 569.142672 
L 294.77679 570.579111 
L 295.776034 571.065435 
L 296.657719 571.253211 
L 297.598184 571.217223 
L 298.714985 570.929073 
L 302.888296 569.587596 
L 304.122656 569.58194 
L 305.415794 569.798892 
L 306.944049 570.301596 
L 309.765442 571.285803 
L 310.823465 571.370344 
L 311.881487 571.216636 
L 313.115847 570.788811 
L 317.641832 568.959541 
L 318.758634 568.900826 
L 319.816656 569.066512 
L 320.933458 569.469869 
L 322.344155 570.238368 
L 324.107525 571.167614 
L 325.283106 571.533813 
L 326.341128 571.636726 
L 327.399151 571.520417 
L 328.633511 571.154835 
L 332.395368 569.870158 
L 333.982402 569.70034 
L 335.92211 569.713923 
L 337.332807 569.931547 
L 338.684724 570.378363 
L 341.094665 571.229436 
L 342.093908 571.31749 
L 343.093152 571.174746 
L 344.209953 570.76859 
L 345.973324 569.838556 
L 347.560358 569.098101 
L 348.559601 568.862119 
L 349.500066 568.862174 
L 350.44053 569.085626 
L 351.616111 569.612606 
L 354.143609 570.827517 
L 355.31919 571.113497 
L 356.435991 571.15922 
L 357.611572 570.977461 
L 358.963489 570.53064 
L 362.313894 569.294885 
L 363.430695 569.197257 
L 364.488718 569.328181 
L 365.840636 569.740014 
L 369.896389 571.137751 
L 371.071969 571.196878 
L 372.188771 571.029139 
L 373.42313 570.614064 
L 377.420104 569.077577 
L 378.478127 569.038426 
L 379.47737 569.225618 
L 380.71173 569.706719 
L 383.004112 570.650086 
L 384.120914 570.828453 
L 385.237715 570.780036 
L 386.589633 570.486847 
L 392.17364 569.013561 
L 393.349221 569.060312 
L 394.524802 569.330983 
L 396.288172 569.997286 
L 398.580555 570.815353 
L 399.873693 571.032444 
L 401.049274 571.005049 
L 402.166075 570.75748 
L 403.517993 570.212426 
L 406.221828 569.06072 
L 407.279851 568.900635 
L 408.220315 568.980952 
L 409.219559 569.304815 
L 410.453918 569.963683 
L 412.393626 571.007962 
L 413.451649 571.302487 
L 414.509671 571.363494 
L 415.979147 571.194779 
L 419.270773 570.770823 
L 421.739492 570.707785 
L 423.385305 570.875221 
L 425.148675 571.293392 
L 428.381522 572.138259 
L 429.439545 572.122283 
L 430.497567 571.883015 
L 431.849485 571.331363 
L 434.083088 570.415246 
L 435.199889 570.226335 
L 436.257912 570.284039 
L 437.374713 570.578827 
L 438.667852 571.1661 
L 441.783141 572.727584 
L 442.841163 572.907717 
L 443.840407 572.853715 
L 444.957208 572.559326 
L 446.426684 571.914617 
L 448.954182 570.780486 
L 450.129763 570.520515 
L 451.246564 570.496461 
L 452.480924 570.704469 
L 453.950399 571.19146 
L 457.712257 572.571856 
L 458.829059 572.641707 
L 460.063418 572.482244 
L 461.885568 571.982308 
L 464.17795 571.39426 
L 465.41231 571.310063 
L 466.470332 571.454954 
L 467.645913 571.852299 
L 469.6444 572.834639 
L 471.113876 573.43279 
L 472.289456 573.669915 
L 473.406258 573.660226 
L 474.523059 573.425292 
L 475.874977 572.903204 
L 479.519277 571.353005 
L 480.51852 571.254929 
L 481.458985 571.389 
L 482.517007 571.7748 
L 486.690318 573.56288 
L 487.748341 573.63149 
L 488.806363 573.474357 
L 489.981944 573.064433 
L 493.743802 571.517758 
L 494.743045 571.493736 
L 495.801068 571.703268 
L 497.388101 572.279555 
L 499.445367 572.989265 
L 500.620948 573.135988 
L 501.855308 573.054699 
L 503.207225 572.74131 
L 504.970596 572.081073 
L 507.674431 571.051409 
L 508.791233 570.893526 
L 509.849256 570.97347 
L 511.142394 571.31503 
L 514.845473 572.430085 
L 516.314949 572.598405 
L 517.608087 572.52054 
L 518.901226 572.211434 
L 520.429481 571.594023 
L 522.839421 570.603744 
L 523.897443 570.430452 
L 524.896687 570.50013 
L 525.954709 570.811468 
L 527.247848 571.448672 
L 530.010462 572.895999 
L 531.186043 573.207916 
L 532.244065 573.259669 
L 533.243309 573.08754 
L 534.36011 572.664552 
L 537.475399 571.326595 
L 538.415863 571.262998 
L 539.415107 571.422401 
L 540.825804 571.905546 
L 543.412081 572.813468 
L 544.940336 573.09444 
L 546.233474 573.120654 
L 547.467834 572.92501 
L 548.702193 572.495609 
L 550.406785 571.622414 
L 552.170156 570.783525 
L 553.228179 570.529246 
L 554.168643 570.533624 
L 555.109108 570.762459 
L 556.16713 571.258334 
L 557.871722 572.355555 
L 559.399977 573.224334 
L 560.516778 573.604549 
L 561.516022 573.715878 
L 562.515265 573.595569 
L 563.573288 573.237028 
L 565.160321 572.420024 
L 566.806134 571.635888 
L 567.805378 571.401905 
L 568.745842 571.415955 
L 569.745086 571.667391 
L 571.390898 572.366347 
L 572.977932 572.944452 
L 574.212292 573.150894 
L 575.50543 573.125145 
L 577.739033 572.797559 
L 580.97188 572.385262 
L 582.500135 572.40237 
L 583.852052 572.647144 
L 585.556644 573.199206 
L 587.907805 573.953784 
L 589.142165 574.093154 
L 590.435304 574.017686 
L 591.904779 573.706392 
L 594.138382 572.968073 
L 596.07809 572.40563 
L 597.253671 572.291372 
L 598.370473 572.405554 
L 599.604832 572.772061 
L 603.249132 574.037963 
L 604.365933 574.106914 
L 605.600293 573.950925 
L 607.187327 573.504173 
L 611.889649 572.017659 
L 613.006451 572.002282 
L 614.064473 572.205966 
L 615.240054 572.661157 
L 618.237784 573.956271 
L 619.295807 574.078076 
L 620.412608 573.969271 
L 621.705747 573.602427 
L 624.292024 572.559912 
L 625.937837 572.030001 
L 627.113417 571.874351 
L 628.17144 571.959806 
L 629.288242 572.283731 
L 631.227949 573.141091 
L 632.873762 573.76448 
L 634.049343 573.981569 
L 635.166144 573.969479 
L 636.341725 573.736269 
L 637.634864 573.246465 
L 639.750909 572.148553 
L 641.220384 571.513681 
L 642.160849 571.335261 
L 643.042534 571.393293 
L 643.92422 571.679644 
L 645.041021 572.300219 
L 647.098287 573.496373 
L 648.097531 573.784326 
L 649.096774 573.82991 
L 650.213576 573.6492 
L 651.918168 573.114548 
L 654.622003 572.280891 
L 656.0327 572.101862 
L 657.325838 572.158242 
L 658.736535 572.444099 
L 660.793801 573.120071 
L 662.792288 573.718263 
L 663.909089 573.819854 
L 665.025891 573.694189 
L 666.377809 573.302312 
L 670.374782 571.979879 
L 671.550363 571.891269 
L 672.667165 572.035201 
L 673.783966 572.407394 
L 674.841989 572.9189 
L 674.841989 572.9189 
" clip-path="url(#p416890392d)" style="fill: none; stroke: #0000ff; stroke-width: 1.5; stroke-linecap: square"/>
   </g>
   <g id="patch_3">
    <path d="M 57.785625 643.1985 
L 57.785625 39.1875 
" style="fill: none; stroke: #000000; stroke-width: 0.8; stroke-linejoin: miter; stroke-linecap: square"/>
   </g>
   <g id="patch_4">
    <path d="M 704.225625 643.1985 
L 704.225625 39.1875 
" style="fill: none; stroke: #000000; stroke-width: 0.8; stroke-linejoin: miter; stroke-linecap: square"/>
   </g>
   <g id="patch_5">
    <path d="M 57.785625 643.1985 
L 704.225625 643.1985 
" style="fill: none; stroke: #000000; stroke-width: 0.8; stroke-linejoin: miter; stroke-linecap: square"/>
   </g>
   <g id="patch_6">
    <path d="M 57.785625 39.1875 
L 704.225625 39.1875 
" style="fill: none; stroke: #000000; stroke-width: 0.8; stroke-linejoin: miter; stroke-linecap: square"/>
   </g>
  </g>
 </g>
 <defs>
  <clipPath id="p416890392d">
   <rect x="57.785625" y="39.1875" width="646.44" height="604.011"/>
  </clipPath>
 </defs>
</svg>
