<?xml version="1.0" encoding="utf-8" standalone="no"?>
<!DOCTYPE svg PUBLIC "-//W3C//DTD SVG 1.1//EN"
  "http://www.w3.org/Graphics/SVG/1.1/DTD/svg11.dtd">
<svg xmlns:xlink="http://www.w3.org/1999/xlink" width="709.854pt" height="711.105187pt" viewBox="0 0 709.854 711.105187" xmlns="http://www.w3.org/2000/svg" version="1.1">
 <metadata>
  <rdf:RDF xmlns:dc="http://purl.org/dc/elements/1.1/" xmlns:cc="http://creativecommons.org/ns#" xmlns:rdf="http://www.w3.org/1999/02/22-rdf-syntax-ns#">
   <cc:Work>
    <dc:type rdf:resource="http://purl.org/dc/dcmitype/StillImage"/>
    <dc:date>2025-02-06T00:49:14.061792</dc:date>
    <dc:format>image/svg+xml</dc:format>
    <dc:creator>
     <cc:Agent>
      <dc:title>Matplotlib v3.9.3, https://matplotlib.org/</dc:title>
     </cc:Agent>
    </dc:creator>
   </cc:Work>
  </rdf:RDF>
 </metadata>
 <defs>
  <style type="text/css">*{stroke-linejoin: round; stroke-linecap: butt}</style>
 </defs>
 <g id="figure_1">
  <g id="patch_1">
   <path d="M 0 711.105187 
L 709.854 711.105187 
L 709.854 0 
L 0 0 
z
" style="fill: #ffffff"/>
  </g>
  <g id="axes_1">
   <g id="patch_2">
    <path d="M 60.12 643.2705 
L 702.654 643.2705 
L 702.654 39.1875 
L 60.12 39.1875 
z
" style="fill: #ffffff"/>
   </g>
   <g id="matplotlib.axis_1">
    <g id="xtick_1">
     <g id="line2d_1">
      <defs>
       <path id="md72d303fbc" d="M 0 0 
L 0 -3.5 
" style="stroke: #000000; stroke-width: 0.8"/>
      </defs>
      <g>
       <use xlink:href="#md72d303fbc" x="89.209231" y="643.2705" style="stroke: #000000; stroke-width: 0.8"/>
      </g>
     </g>
     <g id="text_1">
      <!-- 0 -->
      <g transform="translate(81.701966 666.337062) scale(0.27 -0.27)">
       <defs>
        <path id="LiberationSans-30" d="M 3309 2203 
Q 3309 1100 2920 518 
Q 2531 -63 1772 -63 
Q 1013 -63 631 515 
Q 250 1094 250 2203 
Q 250 3338 620 3903 
Q 991 4469 1791 4469 
Q 2569 4469 2939 3897 
Q 3309 3325 3309 2203 
z
M 2738 2203 
Q 2738 3156 2517 3584 
Q 2297 4013 1791 4013 
Q 1272 4013 1045 3591 
Q 819 3169 819 2203 
Q 819 1266 1048 831 
Q 1278 397 1778 397 
Q 2275 397 2506 840 
Q 2738 1284 2738 2203 
z
" transform="scale(0.015625)"/>
       </defs>
       <use xlink:href="#LiberationSans-30"/>
      </g>
     </g>
    </g>
    <g id="xtick_2">
     <g id="line2d_2">
      <g>
       <use xlink:href="#md72d303fbc" x="206.068653" y="643.2705" style="stroke: #000000; stroke-width: 0.8"/>
      </g>
     </g>
     <g id="text_2">
      <!-- 2 -->
      <g transform="translate(198.561387 666.337062) scale(0.27 -0.27)">
       <defs>
        <path id="LiberationSans-32" d="M 322 0 
L 322 397 
Q 481 763 711 1042 
Q 941 1322 1194 1548 
Q 1447 1775 1695 1969 
Q 1944 2163 2144 2356 
Q 2344 2550 2467 2762 
Q 2591 2975 2591 3244 
Q 2591 3606 2378 3806 
Q 2166 4006 1788 4006 
Q 1428 4006 1195 3811 
Q 963 3616 922 3263 
L 347 3316 
Q 409 3844 795 4156 
Q 1181 4469 1788 4469 
Q 2453 4469 2811 4155 
Q 3169 3841 3169 3263 
Q 3169 3006 3051 2753 
Q 2934 2500 2703 2247 
Q 2472 1994 1819 1463 
Q 1459 1169 1246 933 
Q 1034 697 941 478 
L 3238 478 
L 3238 0 
L 322 0 
z
" transform="scale(0.015625)"/>
       </defs>
       <use xlink:href="#LiberationSans-32"/>
      </g>
     </g>
    </g>
    <g id="xtick_3">
     <g id="line2d_3">
      <g>
       <use xlink:href="#md72d303fbc" x="322.928074" y="643.2705" style="stroke: #000000; stroke-width: 0.8"/>
      </g>
     </g>
     <g id="text_3">
      <!-- 4 -->
      <g transform="translate(315.420809 666.337062) scale(0.27 -0.27)">
       <defs>
        <path id="LiberationSans-34" d="M 2753 997 
L 2753 0 
L 2222 0 
L 2222 997 
L 147 997 
L 147 1434 
L 2163 4403 
L 2753 4403 
L 2753 1441 
L 3372 1441 
L 3372 997 
L 2753 997 
z
M 2222 3769 
Q 2216 3750 2134 3603 
Q 2053 3456 2013 3397 
L 884 1734 
L 716 1503 
L 666 1441 
L 2222 1441 
L 2222 3769 
z
" transform="scale(0.015625)"/>
       </defs>
       <use xlink:href="#LiberationSans-34"/>
      </g>
     </g>
    </g>
    <g id="xtick_4">
     <g id="line2d_4">
      <g>
       <use xlink:href="#md72d303fbc" x="439.787496" y="643.2705" style="stroke: #000000; stroke-width: 0.8"/>
      </g>
     </g>
     <g id="text_4">
      <!-- 6 -->
      <g transform="translate(432.28023 666.337062) scale(0.27 -0.27)">
       <defs>
        <path id="LiberationSans-36" d="M 3278 1441 
Q 3278 744 2900 340 
Q 2522 -63 1856 -63 
Q 1113 -63 719 490 
Q 325 1044 325 2100 
Q 325 3244 734 3856 
Q 1144 4469 1900 4469 
Q 2897 4469 3156 3572 
L 2619 3475 
Q 2453 4013 1894 4013 
Q 1413 4013 1148 3564 
Q 884 3116 884 2266 
Q 1038 2550 1316 2698 
Q 1594 2847 1953 2847 
Q 2563 2847 2920 2465 
Q 3278 2084 3278 1441 
z
M 2706 1416 
Q 2706 1894 2472 2153 
Q 2238 2413 1819 2413 
Q 1425 2413 1183 2183 
Q 941 1953 941 1550 
Q 941 1041 1192 716 
Q 1444 391 1838 391 
Q 2244 391 2475 664 
Q 2706 938 2706 1416 
z
" transform="scale(0.015625)"/>
       </defs>
       <use xlink:href="#LiberationSans-36"/>
      </g>
     </g>
    </g>
    <g id="xtick_5">
     <g id="line2d_5">
      <g>
       <use xlink:href="#md72d303fbc" x="556.646917" y="643.2705" style="stroke: #000000; stroke-width: 0.8"/>
      </g>
     </g>
     <g id="text_5">
      <!-- 8 -->
      <g transform="translate(549.139652 666.337062) scale(0.27 -0.27)">
       <defs>
        <path id="LiberationSans-38" d="M 3281 1228 
Q 3281 619 2893 278 
Q 2506 -63 1781 -63 
Q 1075 -63 676 271 
Q 278 606 278 1222 
Q 278 1653 525 1947 
Q 772 2241 1156 2303 
L 1156 2316 
Q 797 2400 589 2681 
Q 381 2963 381 3341 
Q 381 3844 757 4156 
Q 1134 4469 1769 4469 
Q 2419 4469 2795 4162 
Q 3172 3856 3172 3334 
Q 3172 2956 2962 2675 
Q 2753 2394 2391 2322 
L 2391 2309 
Q 2813 2241 3047 1952 
Q 3281 1663 3281 1228 
z
M 2588 3303 
Q 2588 4050 1769 4050 
Q 1372 4050 1164 3862 
Q 956 3675 956 3303 
Q 956 2925 1170 2726 
Q 1384 2528 1775 2528 
Q 2172 2528 2380 2711 
Q 2588 2894 2588 3303 
z
M 2697 1281 
Q 2697 1691 2453 1898 
Q 2209 2106 1769 2106 
Q 1341 2106 1100 1882 
Q 859 1659 859 1269 
Q 859 359 1788 359 
Q 2247 359 2472 579 
Q 2697 800 2697 1281 
z
" transform="scale(0.015625)"/>
       </defs>
       <use xlink:href="#LiberationSans-38"/>
      </g>
     </g>
    </g>
    <g id="xtick_6">
     <g id="line2d_6">
      <g>
       <use xlink:href="#md72d303fbc" x="673.506339" y="643.2705" style="stroke: #000000; stroke-width: 0.8"/>
      </g>
     </g>
     <g id="text_6">
      <!-- 10 -->
      <g transform="translate(658.491808 666.337062) scale(0.27 -0.27)">
       <defs>
        <path id="LiberationSans-31" d="M 488 0 
L 488 478 
L 1609 478 
L 1609 3866 
L 616 3156 
L 616 3688 
L 1656 4403 
L 2175 4403 
L 2175 478 
L 3247 478 
L 3247 0 
L 488 0 
z
" transform="scale(0.015625)"/>
       </defs>
       <use xlink:href="#LiberationSans-31"/>
       <use xlink:href="#LiberationSans-30" x="55.615234"/>
      </g>
     </g>
    </g>
    <g id="xtick_7">
     <g id="line2d_7">
      <defs>
       <path id="mcc5f696894" d="M 0 0 
L 0 -2 
" style="stroke: #000000; stroke-width: 0.6"/>
      </defs>
      <g>
       <use xlink:href="#mcc5f696894" x="118.424087" y="643.2705" style="stroke: #000000; stroke-width: 0.6"/>
      </g>
     </g>
    </g>
    <g id="xtick_8">
     <g id="line2d_8">
      <g>
       <use xlink:href="#mcc5f696894" x="147.638942" y="643.2705" style="stroke: #000000; stroke-width: 0.6"/>
      </g>
     </g>
    </g>
    <g id="xtick_9">
     <g id="line2d_9">
      <g>
       <use xlink:href="#mcc5f696894" x="176.853798" y="643.2705" style="stroke: #000000; stroke-width: 0.6"/>
      </g>
     </g>
    </g>
    <g id="xtick_10">
     <g id="line2d_10">
      <g>
       <use xlink:href="#mcc5f696894" x="235.283508" y="643.2705" style="stroke: #000000; stroke-width: 0.6"/>
      </g>
     </g>
    </g>
    <g id="xtick_11">
     <g id="line2d_11">
      <g>
       <use xlink:href="#mcc5f696894" x="264.498364" y="643.2705" style="stroke: #000000; stroke-width: 0.6"/>
      </g>
     </g>
    </g>
    <g id="xtick_12">
     <g id="line2d_12">
      <g>
       <use xlink:href="#mcc5f696894" x="293.713219" y="643.2705" style="stroke: #000000; stroke-width: 0.6"/>
      </g>
     </g>
    </g>
    <g id="xtick_13">
     <g id="line2d_13">
      <g>
       <use xlink:href="#mcc5f696894" x="352.14293" y="643.2705" style="stroke: #000000; stroke-width: 0.6"/>
      </g>
     </g>
    </g>
    <g id="xtick_14">
     <g id="line2d_14">
      <g>
       <use xlink:href="#mcc5f696894" x="381.357785" y="643.2705" style="stroke: #000000; stroke-width: 0.6"/>
      </g>
     </g>
    </g>
    <g id="xtick_15">
     <g id="line2d_15">
      <g>
       <use xlink:href="#mcc5f696894" x="410.572641" y="643.2705" style="stroke: #000000; stroke-width: 0.6"/>
      </g>
     </g>
    </g>
    <g id="xtick_16">
     <g id="line2d_16">
      <g>
       <use xlink:href="#mcc5f696894" x="469.002351" y="643.2705" style="stroke: #000000; stroke-width: 0.6"/>
      </g>
     </g>
    </g>
    <g id="xtick_17">
     <g id="line2d_17">
      <g>
       <use xlink:href="#mcc5f696894" x="498.217207" y="643.2705" style="stroke: #000000; stroke-width: 0.6"/>
      </g>
     </g>
    </g>
    <g id="xtick_18">
     <g id="line2d_18">
      <g>
       <use xlink:href="#mcc5f696894" x="527.432062" y="643.2705" style="stroke: #000000; stroke-width: 0.6"/>
      </g>
     </g>
    </g>
    <g id="xtick_19">
     <g id="line2d_19">
      <g>
       <use xlink:href="#mcc5f696894" x="585.861773" y="643.2705" style="stroke: #000000; stroke-width: 0.6"/>
      </g>
     </g>
    </g>
    <g id="xtick_20">
     <g id="line2d_20">
      <g>
       <use xlink:href="#mcc5f696894" x="615.076628" y="643.2705" style="stroke: #000000; stroke-width: 0.6"/>
      </g>
     </g>
    </g>
    <g id="xtick_21">
     <g id="line2d_21">
      <g>
       <use xlink:href="#mcc5f696894" x="644.291483" y="643.2705" style="stroke: #000000; stroke-width: 0.6"/>
      </g>
     </g>
    </g>
    <g id="text_7">
     <!-- Time ps -->
     <g transform="translate(328.610438 697.680187) scale(0.3 -0.3)">
      <defs>
       <path id="LiberationSans-54" d="M 2250 3916 
L 2250 0 
L 1656 0 
L 1656 3916 
L 144 3916 
L 144 4403 
L 3763 4403 
L 3763 3916 
L 2250 3916 
z
" transform="scale(0.015625)"/>
       <path id="LiberationSans-69" d="M 428 4100 
L 428 4638 
L 991 4638 
L 991 4100 
L 428 4100 
z
M 428 0 
L 428 3381 
L 991 3381 
L 991 0 
L 428 0 
z
" transform="scale(0.015625)"/>
       <path id="LiberationSans-6d" d="M 2400 0 
L 2400 2144 
Q 2400 2634 2265 2821 
Q 2131 3009 1781 3009 
Q 1422 3009 1212 2734 
Q 1003 2459 1003 1959 
L 1003 0 
L 444 0 
L 444 2659 
Q 444 3250 425 3381 
L 956 3381 
Q 959 3366 962 3297 
Q 966 3228 970 3139 
Q 975 3050 981 2803 
L 991 2803 
Q 1172 3163 1406 3303 
Q 1641 3444 1978 3444 
Q 2363 3444 2586 3291 
Q 2809 3138 2897 2803 
L 2906 2803 
Q 3081 3144 3329 3294 
Q 3578 3444 3931 3444 
Q 4444 3444 4676 3166 
Q 4909 2888 4909 2253 
L 4909 0 
L 4353 0 
L 4353 2144 
Q 4353 2634 4218 2821 
Q 4084 3009 3734 3009 
Q 3366 3009 3161 2736 
Q 2956 2463 2956 1959 
L 2956 0 
L 2400 0 
z
" transform="scale(0.015625)"/>
       <path id="LiberationSans-65" d="M 863 1572 
Q 863 991 1103 675 
Q 1344 359 1806 359 
Q 2172 359 2392 506 
Q 2613 653 2691 878 
L 3184 738 
Q 2881 -63 1806 -63 
Q 1056 -63 664 384 
Q 272 831 272 1713 
Q 272 2550 664 2997 
Q 1056 3444 1784 3444 
Q 3275 3444 3275 1647 
L 3275 1572 
L 863 1572 
z
M 2694 2003 
Q 2647 2538 2422 2783 
Q 2197 3028 1775 3028 
Q 1366 3028 1127 2754 
Q 888 2481 869 2003 
L 2694 2003 
z
" transform="scale(0.015625)"/>
       <path id="LiberationSans-20" transform="scale(0.015625)"/>
       <path id="LiberationSans-70" d="M 3291 1706 
Q 3291 -63 2047 -63 
Q 1266 -63 997 525 
L 981 525 
Q 994 500 994 -6 
L 994 -1328 
L 431 -1328 
L 431 2691 
Q 431 3213 413 3381 
L 956 3381 
Q 959 3369 965 3292 
Q 972 3216 980 3056 
Q 988 2897 988 2838 
L 1000 2838 
Q 1150 3150 1397 3295 
Q 1644 3441 2047 3441 
Q 2672 3441 2981 3022 
Q 3291 2603 3291 1706 
z
M 2700 1694 
Q 2700 2400 2509 2703 
Q 2319 3006 1903 3006 
Q 1569 3006 1380 2865 
Q 1191 2725 1092 2426 
Q 994 2128 994 1650 
Q 994 984 1206 668 
Q 1419 353 1897 353 
Q 2316 353 2508 661 
Q 2700 969 2700 1694 
z
" transform="scale(0.015625)"/>
       <path id="LiberationSans-73" d="M 2969 934 
Q 2969 456 2608 196 
Q 2247 -63 1597 -63 
Q 966 -63 623 145 
Q 281 353 178 794 
L 675 891 
Q 747 619 972 492 
Q 1197 366 1597 366 
Q 2025 366 2223 497 
Q 2422 628 2422 891 
Q 2422 1091 2284 1216 
Q 2147 1341 1841 1422 
L 1438 1528 
Q 953 1653 748 1773 
Q 544 1894 428 2066 
Q 313 2238 313 2488 
Q 313 2950 642 3192 
Q 972 3434 1603 3434 
Q 2163 3434 2492 3237 
Q 2822 3041 2909 2606 
L 2403 2544 
Q 2356 2769 2151 2889 
Q 1947 3009 1603 3009 
Q 1222 3009 1040 2893 
Q 859 2778 859 2544 
Q 859 2400 934 2306 
Q 1009 2213 1156 2147 
Q 1303 2081 1775 1966 
Q 2222 1853 2419 1758 
Q 2616 1663 2730 1547 
Q 2844 1431 2906 1279 
Q 2969 1128 2969 934 
z
" transform="scale(0.015625)"/>
      </defs>
      <use xlink:href="#LiberationSans-54"/>
      <use xlink:href="#LiberationSans-69" x="57.333984"/>
      <use xlink:href="#LiberationSans-6d" x="79.550781"/>
      <use xlink:href="#LiberationSans-65" x="162.851562"/>
      <use xlink:href="#LiberationSans-20" x="218.466797"/>
      <use xlink:href="#LiberationSans-70" x="246.25"/>
      <use xlink:href="#LiberationSans-73" x="301.865234"/>
     </g>
    </g>
   </g>
   <g id="matplotlib.axis_2">
    <g id="ytick_1">
     <g id="line2d_22">
      <defs>
       <path id="ma495a17f9e" d="M 0 0 
L 3.5 0 
" style="stroke: #000000; stroke-width: 0.8"/>
      </defs>
      <g>
       <use xlink:href="#ma495a17f9e" x="60.12" y="632.293116" style="stroke: #000000; stroke-width: 0.8"/>
      </g>
     </g>
     <g id="text_8">
      <!-- $\mathdefault{0}$ -->
      <g transform="translate(41.5 642.076398) scale(0.27 -0.27)">
       <use xlink:href="#LiberationSans-30" transform="translate(0 0.171875)"/>
      </g>
     </g>
    </g>
    <g id="ytick_2">
     <g id="line2d_23">
      <g>
       <use xlink:href="#ma495a17f9e" x="60.12" y="517.80509" style="stroke: #000000; stroke-width: 0.8"/>
      </g>
     </g>
     <g id="text_9">
      <!-- $\mathdefault{1}$ -->
      <g transform="translate(41.5 527.588371) scale(0.27 -0.27)">
       <use xlink:href="#LiberationSans-31" transform="translate(0 0.203125)"/>
      </g>
     </g>
    </g>
    <g id="ytick_3">
     <g id="line2d_24">
      <g>
       <use xlink:href="#ma495a17f9e" x="60.12" y="403.317064" style="stroke: #000000; stroke-width: 0.8"/>
      </g>
     </g>
     <g id="text_10">
      <!-- $\mathdefault{2}$ -->
      <g transform="translate(41.5 413.100345) scale(0.27 -0.27)">
       <use xlink:href="#LiberationSans-32" transform="translate(0 0.171875)"/>
      </g>
     </g>
    </g>
    <g id="ytick_4">
     <g id="line2d_25">
      <g>
       <use xlink:href="#ma495a17f9e" x="60.12" y="288.829038" style="stroke: #000000; stroke-width: 0.8"/>
      </g>
     </g>
     <g id="text_11">
      <!-- $\mathdefault{3}$ -->
      <g transform="translate(41.5 298.612319) scale(0.27 -0.27)">
       <defs>
        <path id="LiberationSans-33" d="M 3278 1216 
Q 3278 606 2890 271 
Q 2503 -63 1784 -63 
Q 1116 -63 717 239 
Q 319 541 244 1131 
L 825 1184 
Q 938 403 1784 403 
Q 2209 403 2451 612 
Q 2694 822 2694 1234 
Q 2694 1594 2417 1795 
Q 2141 1997 1619 1997 
L 1300 1997 
L 1300 2484 
L 1606 2484 
Q 2069 2484 2323 2686 
Q 2578 2888 2578 3244 
Q 2578 3597 2370 3801 
Q 2163 4006 1753 4006 
Q 1381 4006 1151 3815 
Q 922 3625 884 3278 
L 319 3322 
Q 381 3863 767 4166 
Q 1153 4469 1759 4469 
Q 2422 4469 2789 4161 
Q 3156 3853 3156 3303 
Q 3156 2881 2920 2617 
Q 2684 2353 2234 2259 
L 2234 2247 
Q 2728 2194 3003 1916 
Q 3278 1638 3278 1216 
z
" transform="scale(0.015625)"/>
       </defs>
       <use xlink:href="#LiberationSans-33" transform="translate(0 0.171875)"/>
      </g>
     </g>
    </g>
    <g id="ytick_5">
     <g id="line2d_26">
      <g>
       <use xlink:href="#ma495a17f9e" x="60.12" y="174.341012" style="stroke: #000000; stroke-width: 0.8"/>
      </g>
     </g>
     <g id="text_12">
      <!-- $\mathdefault{4}$ -->
      <g transform="translate(41.5 184.124293) scale(0.27 -0.27)">
       <use xlink:href="#LiberationSans-34" transform="translate(0 0.203125)"/>
      </g>
     </g>
    </g>
    <g id="ytick_6">
     <g id="line2d_27">
      <g>
       <use xlink:href="#ma495a17f9e" x="60.12" y="59.852985" style="stroke: #000000; stroke-width: 0.8"/>
      </g>
     </g>
     <g id="text_13">
      <!-- $\mathdefault{5}$ -->
      <g transform="translate(41.5 69.636267) scale(0.27 -0.27)">
       <defs>
        <path id="LiberationSans-35" d="M 3291 1434 
Q 3291 738 2877 337 
Q 2463 -63 1728 -63 
Q 1113 -63 734 206 
Q 356 475 256 984 
L 825 1050 
Q 1003 397 1741 397 
Q 2194 397 2450 670 
Q 2706 944 2706 1422 
Q 2706 1838 2448 2094 
Q 2191 2350 1753 2350 
Q 1525 2350 1328 2278 
Q 1131 2206 934 2034 
L 384 2034 
L 531 4403 
L 3034 4403 
L 3034 3925 
L 1044 3925 
L 959 2528 
Q 1325 2809 1869 2809 
Q 2519 2809 2905 2428 
Q 3291 2047 3291 1434 
z
" transform="scale(0.015625)"/>
       </defs>
       <use xlink:href="#LiberationSans-35" transform="translate(0 0.203125)"/>
      </g>
     </g>
    </g>
    <g id="ytick_7">
     <g id="line2d_28">
      <defs>
       <path id="mfe51d28f51" d="M 0 0 
L 2 0 
" style="stroke: #000000; stroke-width: 0.6"/>
      </defs>
      <g>
       <use xlink:href="#mfe51d28f51" x="60.12" y="609.395511" style="stroke: #000000; stroke-width: 0.6"/>
      </g>
     </g>
    </g>
    <g id="ytick_8">
     <g id="line2d_29">
      <g>
       <use xlink:href="#mfe51d28f51" x="60.12" y="586.497906" style="stroke: #000000; stroke-width: 0.6"/>
      </g>
     </g>
    </g>
    <g id="ytick_9">
     <g id="line2d_30">
      <g>
       <use xlink:href="#mfe51d28f51" x="60.12" y="563.600301" style="stroke: #000000; stroke-width: 0.6"/>
      </g>
     </g>
    </g>
    <g id="ytick_10">
     <g id="line2d_31">
      <g>
       <use xlink:href="#mfe51d28f51" x="60.12" y="540.702695" style="stroke: #000000; stroke-width: 0.6"/>
      </g>
     </g>
    </g>
    <g id="ytick_11">
     <g id="line2d_32">
      <g>
       <use xlink:href="#mfe51d28f51" x="60.12" y="494.907485" style="stroke: #000000; stroke-width: 0.6"/>
      </g>
     </g>
    </g>
    <g id="ytick_12">
     <g id="line2d_33">
      <g>
       <use xlink:href="#mfe51d28f51" x="60.12" y="472.00988" style="stroke: #000000; stroke-width: 0.6"/>
      </g>
     </g>
    </g>
    <g id="ytick_13">
     <g id="line2d_34">
      <g>
       <use xlink:href="#mfe51d28f51" x="60.12" y="449.112274" style="stroke: #000000; stroke-width: 0.6"/>
      </g>
     </g>
    </g>
    <g id="ytick_14">
     <g id="line2d_35">
      <g>
       <use xlink:href="#mfe51d28f51" x="60.12" y="426.214669" style="stroke: #000000; stroke-width: 0.6"/>
      </g>
     </g>
    </g>
    <g id="ytick_15">
     <g id="line2d_36">
      <g>
       <use xlink:href="#mfe51d28f51" x="60.12" y="380.419459" style="stroke: #000000; stroke-width: 0.6"/>
      </g>
     </g>
    </g>
    <g id="ytick_16">
     <g id="line2d_37">
      <g>
       <use xlink:href="#mfe51d28f51" x="60.12" y="357.521853" style="stroke: #000000; stroke-width: 0.6"/>
      </g>
     </g>
    </g>
    <g id="ytick_17">
     <g id="line2d_38">
      <g>
       <use xlink:href="#mfe51d28f51" x="60.12" y="334.624248" style="stroke: #000000; stroke-width: 0.6"/>
      </g>
     </g>
    </g>
    <g id="ytick_18">
     <g id="line2d_39">
      <g>
       <use xlink:href="#mfe51d28f51" x="60.12" y="311.726643" style="stroke: #000000; stroke-width: 0.6"/>
      </g>
     </g>
    </g>
    <g id="ytick_19">
     <g id="line2d_40">
      <g>
       <use xlink:href="#mfe51d28f51" x="60.12" y="265.931433" style="stroke: #000000; stroke-width: 0.6"/>
      </g>
     </g>
    </g>
    <g id="ytick_20">
     <g id="line2d_41">
      <g>
       <use xlink:href="#mfe51d28f51" x="60.12" y="243.033827" style="stroke: #000000; stroke-width: 0.6"/>
      </g>
     </g>
    </g>
    <g id="ytick_21">
     <g id="line2d_42">
      <g>
       <use xlink:href="#mfe51d28f51" x="60.12" y="220.136222" style="stroke: #000000; stroke-width: 0.6"/>
      </g>
     </g>
    </g>
    <g id="ytick_22">
     <g id="line2d_43">
      <g>
       <use xlink:href="#mfe51d28f51" x="60.12" y="197.238617" style="stroke: #000000; stroke-width: 0.6"/>
      </g>
     </g>
    </g>
    <g id="ytick_23">
     <g id="line2d_44">
      <g>
       <use xlink:href="#mfe51d28f51" x="60.12" y="151.443406" style="stroke: #000000; stroke-width: 0.6"/>
      </g>
     </g>
    </g>
    <g id="ytick_24">
     <g id="line2d_45">
      <g>
       <use xlink:href="#mfe51d28f51" x="60.12" y="128.545801" style="stroke: #000000; stroke-width: 0.6"/>
      </g>
     </g>
    </g>
    <g id="ytick_25">
     <g id="line2d_46">
      <g>
       <use xlink:href="#mfe51d28f51" x="60.12" y="105.648196" style="stroke: #000000; stroke-width: 0.6"/>
      </g>
     </g>
    </g>
    <g id="ytick_26">
     <g id="line2d_47">
      <g>
       <use xlink:href="#mfe51d28f51" x="60.12" y="82.750591" style="stroke: #000000; stroke-width: 0.6"/>
      </g>
     </g>
    </g>
    <g id="text_14">
     <!-- ITC $\mathrm{W} / (\mathrm{K} \cdot \mathrm{m}^2)$ -->
     <g transform="translate(31.275 435.279) rotate(-90) scale(0.3 -0.3)">
      <defs>
       <path id="LiberationSans-49" d="M 591 0 
L 591 4403 
L 1188 4403 
L 1188 0 
L 591 0 
z
" transform="scale(0.015625)"/>
       <path id="LiberationSans-43" d="M 2475 3981 
Q 1744 3981 1337 3511 
Q 931 3041 931 2222 
Q 931 1413 1354 920 
Q 1778 428 2500 428 
Q 3425 428 3891 1344 
L 4378 1100 
Q 4106 531 3614 234 
Q 3122 -63 2472 -63 
Q 1806 -63 1320 214 
Q 834 491 579 1005 
Q 325 1519 325 2222 
Q 325 3275 894 3872 
Q 1463 4469 2469 4469 
Q 3172 4469 3644 4194 
Q 4116 3919 4338 3378 
L 3772 3191 
Q 3619 3575 3280 3778 
Q 2941 3981 2475 3981 
z
" transform="scale(0.015625)"/>
       <path id="STIXGeneral-Regular-57" d="M 5965 4237 
L 5965 4115 
Q 5709 4064 5616 3990 
Q 5523 3917 5434 3667 
Q 4704 1709 4128 -70 
L 4032 -70 
Q 3642 1011 3008 2637 
L 2022 -70 
L 1926 -70 
Q 1709 576 1277 1753 
Q 845 2931 698 3347 
Q 538 3808 406 3958 
Q 275 4109 32 4115 
L 32 4237 
L 1594 4237 
L 1594 4115 
Q 1357 4109 1270 4064 
Q 1184 4019 1184 3917 
Q 1184 3808 1254 3616 
L 2176 1210 
L 2842 3021 
L 2662 3501 
Q 2509 3917 2400 4013 
Q 2291 4109 2010 4115 
L 2010 4237 
L 3706 4237 
L 3706 4115 
Q 3213 4102 3213 3891 
Q 3213 3808 3322 3520 
L 4237 1190 
L 5043 3360 
Q 5152 3667 5152 3853 
Q 5152 4109 4704 4115 
L 4704 4237 
L 5965 4237 
z
" transform="scale(0.015625)"/>
       <path id="STIXGeneral-Regular-2f" d="M 1837 4326 
L 378 -90 
L -58 -90 
L 1408 4326 
L 1837 4326 
z
" transform="scale(0.015625)"/>
       <path id="STIXGeneral-Regular-28" d="M 1946 -1030 
L 1869 -1133 
Q 1126 -710 716 32 
Q 307 774 307 1613 
Q 307 3386 1888 4326 
L 1946 4224 
Q 1293 3667 1075 3126 
Q 858 2586 858 1632 
Q 858 685 1082 96 
Q 1306 -493 1946 -1030 
z
" transform="scale(0.015625)"/>
       <path id="STIXGeneral-Regular-4b" d="M 4627 0 
L 2688 0 
L 2688 122 
L 2861 128 
Q 3130 134 3130 282 
Q 3130 397 2922 643 
Q 2714 890 2253 1370 
L 1613 2029 
L 1446 1894 
L 1446 710 
Q 1446 352 1548 253 
Q 1651 154 2016 122 
L 2016 0 
L 211 0 
L 211 122 
Q 589 141 691 262 
Q 794 384 794 800 
L 794 3514 
Q 794 3872 691 3981 
Q 589 4090 218 4115 
L 218 4237 
L 2022 4237 
L 2022 4115 
Q 1632 4090 1539 3987 
Q 1446 3885 1446 3507 
L 1446 2227 
L 2586 3277 
Q 2861 3533 2973 3667 
Q 3085 3802 3085 3910 
Q 3085 4013 3030 4057 
Q 2976 4102 2822 4109 
L 2662 4115 
L 2662 4237 
L 4320 4237 
L 4320 4115 
Q 3994 4090 3824 4003 
Q 3654 3917 3322 3597 
L 2131 2458 
L 3629 819 
Q 4026 384 4214 253 
Q 4403 122 4627 122 
L 4627 0 
z
" transform="scale(0.015625)"/>
       <path id="STIXGeneral-Regular-22c5" d="M 1187 1888 
Q 1299 1773 1299 1619 
Q 1299 1466 1187 1350 
Q 1075 1235 921 1235 
Q 768 1235 649 1353 
Q 531 1472 531 1619 
Q 531 1766 649 1884 
Q 768 2003 921 2003 
Q 1075 2003 1187 1888 
z
" transform="scale(0.015625)"/>
       <path id="STIXGeneral-Regular-6d" d="M 4960 0 
L 3565 0 
L 3565 96 
Q 3834 122 3907 208 
Q 3981 294 3981 576 
L 3981 1894 
Q 3981 2278 3869 2444 
Q 3757 2611 3488 2611 
Q 3264 2611 3107 2521 
Q 2950 2432 2803 2221 
L 2803 608 
Q 2803 301 2896 201 
Q 2989 102 3264 96 
L 3264 0 
L 1830 0 
L 1830 96 
Q 2112 115 2189 188 
Q 2266 262 2266 550 
L 2266 1901 
Q 2266 2611 1850 2611 
Q 1670 2611 1468 2531 
Q 1267 2451 1171 2336 
Q 1088 2240 1088 2227 
L 1088 448 
Q 1088 243 1177 176 
Q 1267 109 1523 96 
L 1523 0 
L 102 0 
L 102 96 
Q 371 102 460 195 
Q 550 288 550 563 
L 550 2150 
Q 550 2387 499 2480 
Q 448 2573 326 2573 
Q 230 2573 122 2547 
L 122 2656 
Q 557 2778 1011 2944 
L 1062 2925 
L 1062 2451 
L 1075 2451 
Q 1363 2752 1584 2848 
Q 1805 2944 2054 2944 
Q 2560 2944 2733 2406 
Q 3232 2944 3776 2944 
Q 4518 2944 4518 1792 
L 4518 493 
Q 4518 282 4582 202 
Q 4646 122 4794 109 
L 4960 96 
L 4960 0 
z
" transform="scale(0.015625)"/>
       <path id="STIXGeneral-Regular-32" d="M 3034 877 
L 2688 0 
L 186 0 
L 186 77 
L 1325 1286 
Q 1773 1754 1965 2144 
Q 2157 2534 2157 2950 
Q 2157 3379 1920 3616 
Q 1683 3853 1267 3853 
Q 922 3853 720 3673 
Q 518 3494 326 3021 
L 192 3053 
Q 301 3648 630 3987 
Q 960 4326 1523 4326 
Q 2054 4326 2380 4006 
Q 2707 3686 2707 3200 
Q 2707 2477 1888 1613 
L 832 486 
L 2330 486 
Q 2541 486 2665 569 
Q 2790 653 2944 915 
L 3034 877 
z
" transform="scale(0.015625)"/>
       <path id="STIXGeneral-Regular-29" d="M 186 4224 
L 262 4326 
Q 992 3891 1408 3148 
Q 1824 2406 1824 1581 
Q 1824 -166 243 -1133 
L 186 -1030 
Q 845 -486 1059 54 
Q 1274 595 1274 1562 
Q 1274 2534 1059 3120 
Q 845 3706 186 4224 
z
" transform="scale(0.015625)"/>
      </defs>
      <use xlink:href="#LiberationSans-49" transform="translate(0 0.409375)"/>
      <use xlink:href="#LiberationSans-54" transform="translate(27.783203 0.409375)"/>
      <use xlink:href="#LiberationSans-43" transform="translate(88.867188 0.409375)"/>
      <use xlink:href="#LiberationSans-20" transform="translate(161.083984 0.409375)"/>
      <use xlink:href="#STIXGeneral-Regular-57" transform="translate(188.867188 0.409375)"/>
      <use xlink:href="#STIXGeneral-Regular-2f" transform="translate(283.267181 0.409375)"/>
      <use xlink:href="#STIXGeneral-Regular-28" transform="translate(311.067169 0.409375)"/>
      <use xlink:href="#STIXGeneral-Regular-4b" transform="translate(344.367157 0.409375)"/>
      <use xlink:href="#STIXGeneral-Regular-22c5" transform="translate(431.007135 0.409375)"/>
      <use xlink:href="#STIXGeneral-Regular-6d" transform="translate(474.047122 0.409375)"/>
      <use xlink:href="#STIXGeneral-Regular-32" transform="translate(553.390391 35.684375) scale(0.7)"/>
      <use xlink:href="#STIXGeneral-Regular-29" transform="translate(592.799756 0.409375)"/>
     </g>
    </g>
    <g id="text_15">
     <!-- $\times\mathdefault{10^{6}}\mathdefault{}$ -->
     <g transform="translate(60.12 36.1875) scale(0.4 -0.4)">
      <defs>
       <path id="STIXGeneral-Regular-d7" d="M 3821 141 
L 3526 -160 
L 2048 1312 
L 570 -160 
L 275 134 
L 1747 1613 
L 275 3091 
L 576 3386 
L 2048 1914 
L 3526 3386 
L 3821 3098 
L 2349 1613 
L 3821 141 
z
" transform="scale(0.015625)"/>
      </defs>
      <use xlink:href="#STIXGeneral-Regular-d7" transform="translate(0 0.140625)"/>
      <use xlink:href="#LiberationSans-31" transform="translate(63.999985 0.140625)"/>
      <use xlink:href="#LiberationSans-30" transform="translate(119.615219 0.140625)"/>
      <use xlink:href="#LiberationSans-36" transform="translate(176.154946 37.120312) scale(0.7)"/>
     </g>
    </g>
   </g>
   <g id="line2d_48">
    <path d="M 89.326091 615.812182 
L 90.553115 300.966391 
L 91.254271 172.738316 
L 91.780139 109.635503 
L 92.247576 77.666121 
L 92.539725 68.502881 
L 92.715014 66.678493 
L 92.773444 66.645818 
L 92.890303 67.40322 
L 93.065592 70.490209 
L 93.357741 80.342565 
L 93.766749 102.407884 
L 94.409476 150.804449 
L 97.798399 429.786619 
L 98.733274 480.645847 
L 99.492861 511.304141 
L 100.135587 529.449894 
L 100.661455 538.97879 
L 101.070463 543.199912 
L 101.362611 544.602792 
L 101.5379 544.838622 
L 101.65476 544.755965 
L 101.830049 544.291806 
L 102.122198 542.672273 
L 102.531206 538.84577 
L 103.115503 530.949119 
L 104.284097 511.173049 
L 105.511121 491.777181 
L 106.270707 482.837761 
L 106.855004 478.098716 
L 107.322442 475.758239 
L 107.67302 474.855127 
L 107.906739 474.654188 
L 108.082028 474.708095 
L 108.315747 475.044019 
L 108.666325 476.080921 
L 109.133763 478.373963 
L 109.77649 482.930618 
L 110.828224 492.403145 
L 112.172108 504.117694 
L 112.873264 508.406721 
L 113.399132 510.418897 
L 113.80814 511.23671 
L 114.100288 511.436081 
L 114.334007 511.383764 
L 114.626156 511.08131 
L 115.035164 510.296679 
L 115.67789 508.474099 
L 116.963344 503.895845 
L 118.365657 499.210509 
L 119.534251 496.068381 
L 120.527556 493.996352 
L 121.228713 492.982723 
L 121.87144 492.420286 
L 122.631026 492.070335 
L 123.741191 491.553566 
L 124.442347 490.927565 
L 126.487387 488.839719 
L 126.896395 488.860839 
L 127.246973 489.11466 
L 127.655981 489.719673 
L 128.123419 490.829651 
L 128.707716 492.819113 
L 129.525732 496.507371 
L 131.278623 504.702402 
L 131.92135 506.621131 
L 132.388788 507.434016 
L 132.797796 507.745466 
L 133.148374 507.739599 
L 133.498952 507.50928 
L 133.96639 506.912126 
L 134.725976 505.478682 
L 136.245149 502.511219 
L 136.771016 501.968673 
L 137.180024 501.844454 
L 137.530602 501.952711 
L 137.93961 502.321852 
L 138.465478 503.150741 
L 139.108204 504.60294 
L 140.10151 507.481861 
L 141.445393 511.334647 
L 142.08812 512.549095 
L 142.613987 513.116525 
L 143.022995 513.255625 
L 143.373573 513.156542 
L 143.782581 512.791765 
L 144.308449 511.959347 
L 144.892746 510.57633 
L 145.593902 508.296801 
L 146.470348 504.586962 
L 147.580513 498.749857 
L 149.216544 490.174616 
L 150.03456 487.042284 
L 150.677287 485.394513 
L 151.203155 484.627228 
L 151.612163 484.387065 
L 151.962741 484.419297 
L 152.371749 484.716194 
L 152.839186 485.365353 
L 153.481913 486.710492 
L 154.358359 489.129579 
L 156.987696 496.716264 
L 157.747282 498.165974 
L 158.390009 498.975214 
L 158.974306 499.373292 
L 159.500173 499.481547 
L 160.084471 499.371183 
L 160.844057 498.97446 
L 162.772237 497.842976 
L 163.414964 497.770633 
L 164.057691 497.929709 
L 164.817277 498.369516 
L 167.212895 499.966124 
L 167.855622 500.02814 
L 168.439919 499.854852 
L 169.082646 499.404386 
L 169.842232 498.562205 
L 171.069256 496.79025 
L 172.646858 494.569012 
L 173.464874 493.783891 
L 174.107601 493.443517 
L 174.691898 493.367672 
L 175.334625 493.526124 
L 176.094211 493.961459 
L 178.665119 495.661859 
L 179.307845 495.727775 
L 179.950572 495.553503 
L 180.651729 495.104799 
L 181.528174 494.24952 
L 183.164206 492.242692 
L 184.39123 490.904857 
L 185.150817 490.37068 
L 185.793543 490.187911 
L 186.37784 490.269586 
L 186.962138 490.594217 
L 187.663294 491.277855 
L 188.656599 492.628907 
L 190.40949 495.044976 
L 191.110647 495.64277 
L 191.753374 495.92154 
L 192.396101 495.968191 
L 193.214117 495.789126 
L 194.674859 495.445625 
L 195.259156 495.557523 
L 195.785024 495.880403 
L 196.369321 496.529319 
L 197.012048 497.601453 
L 197.830064 499.442041 
L 199.115517 502.988318 
L 200.459401 506.52929 
L 201.160557 507.813516 
L 201.686425 508.344831 
L 202.095433 508.446884 
L 202.446011 508.294967 
L 202.855019 507.82401 
L 203.322457 506.889037 
L 203.906754 505.13506 
L 204.60791 502.266918 
L 205.659645 496.865698 
L 207.529396 487.20008 
L 208.347412 484.177778 
L 208.990138 482.563055 
L 209.516006 481.769828 
L 209.983444 481.453133 
L 210.392452 481.459678 
L 210.80146 481.712009 
L 211.268897 482.271447 
L 211.911624 483.438538 
L 212.78807 485.58188 
L 214.365672 490.203084 
L 215.767985 494.043901 
L 216.644431 495.870819 
L 217.404017 496.999799 
L 218.163603 497.750632 
L 219.040049 498.300123 
L 221.026659 499.437499 
L 222.019964 500.365676 
L 224.415582 502.791577 
L 225.116739 503.112753 
L 225.701036 503.140554 
L 226.285333 502.9366 
L 226.92806 502.448332 
L 227.629216 501.619821 
L 228.505662 500.216912 
L 229.966405 497.374791 
L 231.427147 494.670156 
L 232.245163 493.607473 
L 232.82946 493.179379 
L 233.355328 493.072714 
L 233.822766 493.202472 
L 234.407063 493.625708 
L 235.166649 494.490634 
L 237.0364 496.742566 
L 237.620697 497.072249 
L 238.146564 497.115271 
L 238.672432 496.916096 
L 239.256729 496.436593 
L 240.016315 495.492394 
L 241.360198 493.365788 
L 242.704082 491.388671 
L 243.522098 490.550496 
L 244.164824 490.17235 
L 244.749121 490.061886 
L 245.333419 490.169492 
L 246.034575 490.549771 
L 247.02788 491.386716 
L 248.488623 492.598979 
L 249.189779 492.893134 
L 249.832506 492.91405 
L 250.533663 492.686245 
L 251.585398 492.054953 
L 252.637132 491.514713 
L 253.22143 491.438905 
L 253.747297 491.588138 
L 254.273164 491.991453 
L 254.857461 492.770613 
L 255.500188 494.038917 
L 256.259774 496.059828 
L 257.25308 499.401178 
L 259.648698 507.810066 
L 260.232995 509.04337 
L 260.700432 509.572488 
L 261.051011 509.661652 
L 261.343159 509.518587 
L 261.693738 509.076024 
L 262.102746 508.181449 
L 262.628613 506.455698 
L 263.329769 503.270262 
L 264.323075 497.542894 
L 266.192825 486.596891 
L 267.010841 483.173129 
L 267.653568 481.381967 
L 268.179435 480.535119 
L 268.588443 480.246124 
L 268.939022 480.239416 
L 269.34803 480.489262 
L 269.815467 481.075244 
L 270.458194 482.310431 
L 271.33464 484.555102 
L 274.139266 492.148686 
L 274.898852 493.428717 
L 275.541579 494.109456 
L 276.125876 494.433515 
L 276.768603 494.541377 
L 279.28108 494.680023 
L 279.982237 495.134539 
L 280.800253 495.950255 
L 283.312731 498.667478 
L 284.013887 499.016055 
L 284.656614 499.090823 
L 285.299341 498.93946 
L 286.000497 498.534114 
L 286.876943 497.734958 
L 289.973718 494.611754 
L 290.616444 494.402359 
L 291.200741 494.45368 
L 291.785039 494.740511 
L 292.486195 495.3549 
L 293.771649 496.864146 
L 294.764954 497.859616 
L 295.349251 498.169092 
L 295.875118 498.195568 
L 296.342556 497.99377 
L 296.868423 497.511868 
L 297.51115 496.59234 
L 298.387596 494.901368 
L 301.075363 489.404344 
L 301.776519 488.554198 
L 302.360816 488.173485 
L 302.886684 488.099752 
L 303.412551 488.279266 
L 303.996848 488.754719 
L 304.698005 489.646725 
L 305.866599 491.575979 
L 307.210482 493.69437 
L 307.970068 494.506011 
L 308.612795 494.900097 
L 309.255522 495.038806 
L 310.015108 494.954254 
L 311.592711 494.697871 
L 312.177008 494.869683 
L 312.702875 495.250884 
L 313.287172 495.961205 
L 313.988329 497.211993 
L 314.864774 499.300101 
L 316.383947 503.657947 
L 317.552541 506.698941 
L 318.195268 507.845213 
L 318.662706 508.317132 
L 319.071714 508.430989 
L 319.422292 508.284982 
L 319.8313 507.816426 
L 320.298737 506.878103 
L 320.883035 505.114836 
L 321.584191 502.229244 
L 322.577496 497.08921 
L 324.739395 485.614033 
L 325.498982 482.787223 
L 326.141709 481.175211 
L 326.667576 480.420357 
L 327.076584 480.175672 
L 327.427162 480.19087 
L 327.83617 480.448496 
L 328.303608 481.019136 
L 328.946335 482.184579 
L 329.93964 484.516678 
L 331.98468 489.387571 
L 332.802696 490.780086 
L 333.503852 491.567071 
L 334.088149 491.923364 
L 334.672446 492.041782 
L 335.432033 491.943567 
L 337.243354 491.600777 
L 337.88608 491.748203 
L 338.528807 492.113122 
L 339.346823 492.858159 
L 341.800871 495.298632 
L 342.443598 495.544815 
L 343.027895 495.529121 
L 343.612192 495.278251 
L 344.254919 494.741016 
L 345.014505 493.797246 
L 346.183099 491.94273 
L 347.877561 489.278097 
L 348.637147 488.48618 
L 349.221444 488.167607 
L 349.747312 488.126562 
L 350.273179 488.322576 
L 350.857476 488.791878 
L 351.675492 489.762984 
L 353.603673 492.154374 
L 354.246399 492.569617 
L 354.772267 492.663667 
L 355.298134 492.521064 
L 355.824002 492.146576 
L 356.466728 491.397772 
L 357.284744 490.06055 
L 358.687057 487.23283 
L 359.972511 484.805276 
L 360.732097 483.780511 
L 361.374824 483.257461 
L 361.900691 483.095455 
L 362.426559 483.181617 
L 362.952426 483.507217 
L 363.595153 484.183516 
L 364.530028 485.537381 
L 366.107631 487.836598 
L 366.867217 488.532258 
L 367.509944 488.841223 
L 368.2111 488.934395 
L 370.31457 489.021134 
L 370.898867 489.414043 
L 371.483164 490.109865 
L 372.125891 491.253718 
L 372.885477 493.084243 
L 373.995642 496.407655 
L 375.748533 501.617539 
L 376.449689 503.038377 
L 376.975557 503.653799 
L 377.384565 503.814806 
L 377.735143 503.710587 
L 378.085721 503.37308 
L 378.553159 502.554354 
L 379.079026 501.137854 
L 379.780183 498.507664 
L 380.656629 494.268561 
L 383.461255 479.896766 
L 384.162411 477.606736 
L 384.746708 476.358462 
L 385.214146 475.806355 
L 385.623154 475.640578 
L 385.973732 475.721268 
L 386.38274 476.053573 
L 386.908608 476.810103 
L 387.609764 478.274785 
L 388.661499 481.077744 
L 390.823398 486.946303 
L 391.699844 488.655063 
L 392.45943 489.671501 
L 393.219016 490.310284 
L 394.270751 490.855703 
L 395.322486 491.468929 
L 396.082072 492.172133 
L 397.016948 493.373789 
L 398.886698 495.897388 
L 399.529425 496.368251 
L 400.055293 496.496718 
L 400.52273 496.397032 
L 401.048598 496.041896 
L 401.632895 495.369349 
L 402.392481 494.13598 
L 403.561075 491.74614 
L 405.372396 488.062346 
L 406.190412 486.884761 
L 406.774709 486.386882 
L 407.242147 486.238212 
L 407.709585 486.333407 
L 408.177022 486.674453 
L 408.761319 487.422702 
L 409.520906 488.813709 
L 411.682805 493.03924 
L 412.267102 493.653905 
L 412.73454 493.865027 
L 413.143548 493.83195 
L 413.610985 493.554789 
L 414.136853 492.970751 
L 414.838009 491.839041 
L 416.006604 489.45976 
L 417.642636 486.229684 
L 418.519081 484.985683 
L 419.220238 484.357831 
L 419.804535 484.103521 
L 420.388832 484.089228 
L 420.973129 484.294884 
L 421.674286 484.786664 
L 422.609161 485.732145 
L 425.413787 488.769256 
L 426.465522 489.46594 
L 428.744281 490.827401 
L 429.503867 491.641365 
L 430.263453 492.798372 
L 431.139899 494.587185 
L 432.250063 497.434975 
L 434.528822 503.461325 
L 435.171549 504.548697 
L 435.697416 505.032564 
L 436.106424 505.112495 
L 436.457002 504.956935 
L 436.86601 504.501724 
L 437.333448 503.612656 
L 437.917745 501.965083 
L 438.618902 499.288893 
L 439.612207 494.540665 
L 441.715676 484.248792 
L 442.533692 481.372157 
L 443.176419 479.822828 
L 443.702286 479.055115 
L 444.169724 478.747702 
L 444.578732 478.75539 
L 444.98774 479.004312 
L 445.455178 479.556756 
L 446.097905 480.71013 
L 446.97435 482.820457 
L 450.071125 490.81452 
L 450.772281 491.875021 
L 451.415008 492.479134 
L 452.057735 492.783342 
L 452.817321 492.88181 
L 454.628642 493.010613 
L 455.329799 493.35113 
L 456.147815 494.025548 
L 458.543433 496.219311 
L 459.12773 496.377849 
L 459.653598 496.296009 
L 460.179465 495.99596 
L 460.822192 495.351905 
L 461.640208 494.167489 
L 463.10095 491.549186 
L 464.327974 489.529518 
L 465.087561 488.679962 
L 465.671858 488.346852 
L 466.139295 488.316892 
L 466.606733 488.505864 
L 467.1326 488.969214 
L 467.833757 489.925667 
L 470.229375 493.557986 
L 470.755243 493.860559 
L 471.22268 493.865271 
L 471.690118 493.613223 
L 472.215985 493.043389 
L 472.858712 492.00103 
L 473.852017 489.898564 
L 476.422925 484.234702 
L 477.24094 482.992786 
L 477.883667 482.356271 
L 478.409535 482.09642 
L 478.876972 482.083195 
L 479.34441 482.282457 
L 479.870277 482.75519 
L 480.513004 483.645554 
L 481.44788 485.372975 
L 483.083912 488.425685 
L 483.843498 489.351712 
L 484.486225 489.798951 
L 485.128951 489.971779 
L 485.946967 489.931414 
L 487.290851 489.843754 
L 487.933578 490.062875 
L 488.517875 490.508618 
L 489.160601 491.291814 
L 489.978617 492.693102 
L 491.147212 495.216918 
L 492.783244 498.706613 
L 493.4844 499.715481 
L 494.010267 500.112184 
L 494.419275 500.160348 
L 494.828283 499.955121 
L 495.237291 499.482214 
L 495.763159 498.470246 
L 496.347456 496.827963 
L 497.107042 493.972114 
L 498.217207 488.792303 
L 499.970098 480.633668 
L 500.788114 477.878839 
L 501.372411 476.566087 
L 501.898278 475.895505 
L 502.307286 475.704859 
L 502.657865 475.761567 
L 503.066873 476.065038 
L 503.59274 476.787392 
L 504.293897 478.214754 
L 505.404061 481.088177 
L 507.098523 485.390142 
L 507.974968 487.04082 
L 508.734555 488.029551 
L 509.435711 488.584635 
L 510.136868 488.863803 
L 511.130173 488.985701 
L 512.649345 489.172481 
L 513.467361 489.535974 
L 514.343807 490.201401 
L 516.797855 492.281081 
L 517.382152 492.424128 
L 517.908019 492.340631 
L 518.433887 492.043438 
L 519.076613 491.394965 
L 519.8362 490.28327 
L 521.413802 487.429798 
L 522.465537 485.789188 
L 523.166693 485.055048 
L 523.75099 484.729019 
L 524.276858 484.672699 
L 524.802725 484.842148 
L 525.387022 485.279549 
L 526.088179 486.098531 
L 527.315203 487.959235 
L 528.600656 489.779504 
L 529.301813 490.412617 
L 529.82768 490.628996 
L 530.353548 490.59673 
L 530.879415 490.319915 
L 531.522142 489.684872 
L 532.340158 488.520479 
L 535.086354 484.281834 
L 535.84594 483.635103 
L 536.547097 483.336559 
L 537.189824 483.299465 
L 537.89098 483.492922 
L 538.708996 483.976574 
L 539.87759 484.970361 
L 541.338333 486.17616 
L 542.156349 486.572454 
L 543.032795 486.737488 
L 544.960975 486.963879 
L 545.545272 487.330939 
L 546.129569 487.967137 
L 546.772296 489.010954 
L 547.590312 490.818525 
L 548.875766 494.312532 
L 550.394938 498.298495 
L 551.212954 499.860732 
L 551.797251 500.555239 
L 552.264689 500.799178 
L 552.673697 500.757895 
L 553.082705 500.459732 
L 553.550143 499.786849 
L 554.07601 498.590814 
L 554.718737 496.505704 
L 555.478323 493.247252 
L 556.588488 487.38108 
L 558.282949 478.460445 
L 559.100965 475.353172 
L 559.685262 473.885164 
L 560.1527 473.210661 
L 560.561708 472.987659 
L 560.912286 473.060349 
L 561.321294 473.433002 
L 561.788732 474.198592 
L 562.431459 475.732668 
L 563.483193 478.955886 
L 565.119225 483.916148 
L 565.937241 485.704746 
L 566.579968 486.627705 
L 567.164265 487.089248 
L 567.690133 487.228471 
L 568.27443 487.142543 
L 569.150875 486.745704 
L 570.26104 486.280022 
L 570.903767 486.248385 
L 571.488064 486.448658 
L 572.130791 486.933613 
L 572.890377 487.81108 
L 575.227565 490.746235 
L 575.870292 491.142489 
L 576.454589 491.247305 
L 576.980457 491.122585 
L 577.564754 490.748831 
L 578.26591 490.001787 
L 579.142356 488.69483 
L 582.005412 484.098357 
L 582.589709 483.683473 
L 583.057147 483.595689 
L 583.524584 483.73903 
L 584.050452 484.168591 
L 584.693178 485.015766 
L 586.095492 487.387392 
L 586.971937 488.597739 
L 587.556234 489.059071 
L 588.023672 489.177127 
L 588.49111 489.061033 
L 589.016977 488.669181 
L 589.659704 487.87852 
L 590.594579 486.32001 
L 592.873338 482.364309 
L 593.632924 481.509123 
L 594.217221 481.134736 
L 594.743089 481.028819 
L 595.268956 481.142168 
L 595.853253 481.512814 
L 596.55441 482.253492 
L 597.547715 483.677815 
L 599.183747 486.023915 
L 599.884903 486.640017 
L 600.4692 486.880725 
L 601.053497 486.886473 
L 601.754654 486.650571 
L 603.858124 485.757509 
L 604.442421 485.85734 
L 604.968288 486.180446 
L 605.552585 486.816455 
L 606.253742 487.947053 
L 607.188617 489.94782 
L 609.934814 496.175101 
L 610.519111 496.868516 
L 610.986548 497.099165 
L 611.337127 497.054909 
L 611.746135 496.749936 
L 612.213572 496.055608 
L 612.73944 494.832877 
L 613.382166 492.753188 
L 614.258612 489.087446 
L 616.829519 477.742301 
L 617.530676 475.836691 
L 618.114973 474.842647 
L 618.582411 474.437319 
L 618.991419 474.350725 
L 619.400427 474.496109 
L 619.867864 474.918733 
L 620.452161 475.774049 
L 621.270177 477.418345 
L 624.483811 484.406009 
L 625.184968 485.266243 
L 625.827695 485.734288 
L 626.470422 485.934316 
L 627.288438 485.937229 
L 628.80761 485.89275 
L 629.508767 486.108746 
L 630.209923 486.560326 
L 631.027939 487.382104 
L 633.832565 490.542191 
L 634.475292 490.823423 
L 635.059589 490.841887 
L 635.643886 490.632446 
L 636.286613 490.160574 
L 637.104629 489.260124 
L 640.318263 485.352114 
L 640.96099 485.045294 
L 641.545287 485.019376 
L 642.071154 485.216023 
L 642.655452 485.671778 
L 643.415038 486.570007 
L 645.869086 489.758262 
L 646.394953 490.024649 
L 646.862391 490.027874 
L 647.329828 489.798394 
L 647.855696 489.26852 
L 648.498423 488.272191 
L 649.374868 486.457315 
L 651.887346 480.975789 
L 652.588502 480.060217 
L 653.172799 479.652219 
L 653.640237 479.577729 
L 654.107675 479.732133 
L 654.633542 480.169805 
L 655.276269 481.044104 
L 656.152715 482.661834 
L 658.022465 486.205884 
L 658.665192 486.955208 
L 659.249489 487.313801 
L 659.775357 487.384168 
L 660.359654 487.236371 
L 661.352959 486.703661 
L 662.170975 486.355231 
L 662.755272 486.347192 
L 663.281139 486.58655 
L 663.807007 487.083323 
L 664.449734 488.025054 
L 665.326179 489.769395 
L 668.247665 496.002601 
L 668.890392 496.73884 
L 669.357829 496.973913 
L 669.766837 496.931427 
L 670.175845 496.628763 
L 670.643283 495.934488 
L 671.16915 494.682229 
L 671.811877 492.481873 
L 672.629893 488.749209 
L 673.447909 484.337776 
L 673.447909 484.337776 
" clip-path="url(#p27cf4927f2)" style="fill: none; stroke: #0000ff; stroke-width: 1.5; stroke-linecap: square"/>
   </g>
   <g id="patch_3">
    <path d="M 60.12 643.2705 
L 60.12 39.1875 
" style="fill: none; stroke: #000000; stroke-width: 0.8; stroke-linejoin: miter; stroke-linecap: square"/>
   </g>
   <g id="patch_4">
    <path d="M 702.654 643.2705 
L 702.654 39.1875 
" style="fill: none; stroke: #000000; stroke-width: 0.8; stroke-linejoin: miter; stroke-linecap: square"/>
   </g>
   <g id="patch_5">
    <path d="M 60.12 643.2705 
L 702.654 643.2705 
" style="fill: none; stroke: #000000; stroke-width: 0.8; stroke-linejoin: miter; stroke-linecap: square"/>
   </g>
   <g id="patch_6">
    <path d="M 60.12 39.1875 
L 702.654 39.1875 
" style="fill: none; stroke: #000000; stroke-width: 0.8; stroke-linejoin: miter; stroke-linecap: square"/>
   </g>
  </g>
 </g>
 <defs>
  <clipPath id="p27cf4927f2">
   <rect x="60.12" y="39.1875" width="642.534" height="604.083"/>
  </clipPath>
 </defs>
</svg>
