<?xml version="1.0" encoding="utf-8" standalone="no"?>
<!DOCTYPE svg PUBLIC "-//W3C//DTD SVG 1.1//EN"
  "http://www.w3.org/Graphics/SVG/1.1/DTD/svg11.dtd">
<svg xmlns:xlink="http://www.w3.org/1999/xlink" width="709.914pt" height="711.02175pt" viewBox="0 0 709.914 711.02175" xmlns="http://www.w3.org/2000/svg" version="1.1">
 <metadata>
  <rdf:RDF xmlns:dc="http://purl.org/dc/elements/1.1/" xmlns:cc="http://creativecommons.org/ns#" xmlns:rdf="http://www.w3.org/1999/02/22-rdf-syntax-ns#">
   <cc:Work>
    <dc:type rdf:resource="http://purl.org/dc/dcmitype/StillImage"/>
    <dc:date>2025-02-06T00:49:14.420606</dc:date>
    <dc:format>image/svg+xml</dc:format>
    <dc:creator>
     <cc:Agent>
      <dc:title>Matplotlib v3.9.3, https://matplotlib.org/</dc:title>
     </cc:Agent>
    </dc:creator>
   </cc:Work>
  </rdf:RDF>
 </metadata>
 <defs>
  <style type="text/css">*{stroke-linejoin: round; stroke-linecap: butt}</style>
 </defs>
 <g id="figure_1">
  <g id="patch_1">
   <path d="M 0 711.02175 
L 709.914 711.02175 
L 709.914 0 
L 0 0 
z
" style="fill: #ffffff"/>
  </g>
  <g id="axes_1">
   <g id="patch_2">
    <path d="M 61.8 640.3905 
L 702.714 640.3905 
L 702.714 39.1875 
L 61.8 39.1875 
z
" style="fill: #ffffff"/>
   </g>
   <g id="matplotlib.axis_1">
    <g id="xtick_1">
     <g id="line2d_1">
      <defs>
       <path id="mb54b4c6e70" d="M 0 0 
L 0 -3.5 
" style="stroke: #000000; stroke-width: 0.8"/>
      </defs>
      <g>
       <use xlink:href="#mb54b4c6e70" x="90.81589" y="640.3905" style="stroke: #000000; stroke-width: 0.8"/>
      </g>
     </g>
     <g id="text_1">
      <!-- 0 -->
      <g transform="translate(82.474484 665.631125) scale(0.3 -0.3)">
       <defs>
        <path id="LiberationSans-30" d="M 3309 2203 
Q 3309 1100 2920 518 
Q 2531 -63 1772 -63 
Q 1013 -63 631 515 
Q 250 1094 250 2203 
Q 250 3338 620 3903 
Q 991 4469 1791 4469 
Q 2569 4469 2939 3897 
Q 3309 3325 3309 2203 
z
M 2738 2203 
Q 2738 3156 2517 3584 
Q 2297 4013 1791 4013 
Q 1272 4013 1045 3591 
Q 819 3169 819 2203 
Q 819 1266 1048 831 
Q 1278 397 1778 397 
Q 2275 397 2506 840 
Q 2738 1284 2738 2203 
z
" transform="scale(0.015625)"/>
       </defs>
       <use xlink:href="#LiberationSans-30"/>
      </g>
     </g>
    </g>
    <g id="xtick_2">
     <g id="line2d_2">
      <g>
       <use xlink:href="#mb54b4c6e70" x="207.380677" y="640.3905" style="stroke: #000000; stroke-width: 0.8"/>
      </g>
     </g>
     <g id="text_2">
      <!-- 2 -->
      <g transform="translate(199.039271 665.631125) scale(0.3 -0.3)">
       <defs>
        <path id="LiberationSans-32" d="M 322 0 
L 322 397 
Q 481 763 711 1042 
Q 941 1322 1194 1548 
Q 1447 1775 1695 1969 
Q 1944 2163 2144 2356 
Q 2344 2550 2467 2762 
Q 2591 2975 2591 3244 
Q 2591 3606 2378 3806 
Q 2166 4006 1788 4006 
Q 1428 4006 1195 3811 
Q 963 3616 922 3263 
L 347 3316 
Q 409 3844 795 4156 
Q 1181 4469 1788 4469 
Q 2453 4469 2811 4155 
Q 3169 3841 3169 3263 
Q 3169 3006 3051 2753 
Q 2934 2500 2703 2247 
Q 2472 1994 1819 1463 
Q 1459 1169 1246 933 
Q 1034 697 941 478 
L 3238 478 
L 3238 0 
L 322 0 
z
" transform="scale(0.015625)"/>
       </defs>
       <use xlink:href="#LiberationSans-32"/>
      </g>
     </g>
    </g>
    <g id="xtick_3">
     <g id="line2d_3">
      <g>
       <use xlink:href="#mb54b4c6e70" x="323.945465" y="640.3905" style="stroke: #000000; stroke-width: 0.8"/>
      </g>
     </g>
     <g id="text_3">
      <!-- 4 -->
      <g transform="translate(315.604059 665.631125) scale(0.3 -0.3)">
       <defs>
        <path id="LiberationSans-34" d="M 2753 997 
L 2753 0 
L 2222 0 
L 2222 997 
L 147 997 
L 147 1434 
L 2163 4403 
L 2753 4403 
L 2753 1441 
L 3372 1441 
L 3372 997 
L 2753 997 
z
M 2222 3769 
Q 2216 3750 2134 3603 
Q 2053 3456 2013 3397 
L 884 1734 
L 716 1503 
L 666 1441 
L 2222 1441 
L 2222 3769 
z
" transform="scale(0.015625)"/>
       </defs>
       <use xlink:href="#LiberationSans-34"/>
      </g>
     </g>
    </g>
    <g id="xtick_4">
     <g id="line2d_4">
      <g>
       <use xlink:href="#mb54b4c6e70" x="440.510253" y="640.3905" style="stroke: #000000; stroke-width: 0.8"/>
      </g>
     </g>
     <g id="text_4">
      <!-- 6 -->
      <g transform="translate(432.168846 665.631125) scale(0.3 -0.3)">
       <defs>
        <path id="LiberationSans-36" d="M 3278 1441 
Q 3278 744 2900 340 
Q 2522 -63 1856 -63 
Q 1113 -63 719 490 
Q 325 1044 325 2100 
Q 325 3244 734 3856 
Q 1144 4469 1900 4469 
Q 2897 4469 3156 3572 
L 2619 3475 
Q 2453 4013 1894 4013 
Q 1413 4013 1148 3564 
Q 884 3116 884 2266 
Q 1038 2550 1316 2698 
Q 1594 2847 1953 2847 
Q 2563 2847 2920 2465 
Q 3278 2084 3278 1441 
z
M 2706 1416 
Q 2706 1894 2472 2153 
Q 2238 2413 1819 2413 
Q 1425 2413 1183 2183 
Q 941 1953 941 1550 
Q 941 1041 1192 716 
Q 1444 391 1838 391 
Q 2244 391 2475 664 
Q 2706 938 2706 1416 
z
" transform="scale(0.015625)"/>
       </defs>
       <use xlink:href="#LiberationSans-36"/>
      </g>
     </g>
    </g>
    <g id="xtick_5">
     <g id="line2d_5">
      <g>
       <use xlink:href="#mb54b4c6e70" x="557.07504" y="640.3905" style="stroke: #000000; stroke-width: 0.8"/>
      </g>
     </g>
     <g id="text_5">
      <!-- 8 -->
      <g transform="translate(548.733634 665.631125) scale(0.3 -0.3)">
       <defs>
        <path id="LiberationSans-38" d="M 3281 1228 
Q 3281 619 2893 278 
Q 2506 -63 1781 -63 
Q 1075 -63 676 271 
Q 278 606 278 1222 
Q 278 1653 525 1947 
Q 772 2241 1156 2303 
L 1156 2316 
Q 797 2400 589 2681 
Q 381 2963 381 3341 
Q 381 3844 757 4156 
Q 1134 4469 1769 4469 
Q 2419 4469 2795 4162 
Q 3172 3856 3172 3334 
Q 3172 2956 2962 2675 
Q 2753 2394 2391 2322 
L 2391 2309 
Q 2813 2241 3047 1952 
Q 3281 1663 3281 1228 
z
M 2588 3303 
Q 2588 4050 1769 4050 
Q 1372 4050 1164 3862 
Q 956 3675 956 3303 
Q 956 2925 1170 2726 
Q 1384 2528 1775 2528 
Q 2172 2528 2380 2711 
Q 2588 2894 2588 3303 
z
M 2697 1281 
Q 2697 1691 2453 1898 
Q 2209 2106 1769 2106 
Q 1341 2106 1100 1882 
Q 859 1659 859 1269 
Q 859 359 1788 359 
Q 2247 359 2472 579 
Q 2697 800 2697 1281 
z
" transform="scale(0.015625)"/>
       </defs>
       <use xlink:href="#LiberationSans-38"/>
      </g>
     </g>
    </g>
    <g id="xtick_6">
     <g id="line2d_6">
      <g>
       <use xlink:href="#mb54b4c6e70" x="673.639828" y="640.3905" style="stroke: #000000; stroke-width: 0.8"/>
      </g>
     </g>
     <g id="text_6">
      <!-- 10 -->
      <g transform="translate(656.957015 665.631125) scale(0.3 -0.3)">
       <defs>
        <path id="LiberationSans-31" d="M 488 0 
L 488 478 
L 1609 478 
L 1609 3866 
L 616 3156 
L 616 3688 
L 1656 4403 
L 2175 4403 
L 2175 478 
L 3247 478 
L 3247 0 
L 488 0 
z
" transform="scale(0.015625)"/>
       </defs>
       <use xlink:href="#LiberationSans-31"/>
       <use xlink:href="#LiberationSans-30" x="55.615234"/>
      </g>
     </g>
    </g>
    <g id="xtick_7">
     <g id="line2d_7">
      <defs>
       <path id="mb3003ad0cb" d="M 0 0 
L 0 -2 
" style="stroke: #000000; stroke-width: 0.6"/>
      </defs>
      <g>
       <use xlink:href="#mb3003ad0cb" x="119.957087" y="640.3905" style="stroke: #000000; stroke-width: 0.6"/>
      </g>
     </g>
    </g>
    <g id="xtick_8">
     <g id="line2d_8">
      <g>
       <use xlink:href="#mb3003ad0cb" x="149.098284" y="640.3905" style="stroke: #000000; stroke-width: 0.6"/>
      </g>
     </g>
    </g>
    <g id="xtick_9">
     <g id="line2d_9">
      <g>
       <use xlink:href="#mb3003ad0cb" x="178.23948" y="640.3905" style="stroke: #000000; stroke-width: 0.6"/>
      </g>
     </g>
    </g>
    <g id="xtick_10">
     <g id="line2d_10">
      <g>
       <use xlink:href="#mb3003ad0cb" x="236.521874" y="640.3905" style="stroke: #000000; stroke-width: 0.6"/>
      </g>
     </g>
    </g>
    <g id="xtick_11">
     <g id="line2d_11">
      <g>
       <use xlink:href="#mb3003ad0cb" x="265.663071" y="640.3905" style="stroke: #000000; stroke-width: 0.6"/>
      </g>
     </g>
    </g>
    <g id="xtick_12">
     <g id="line2d_12">
      <g>
       <use xlink:href="#mb3003ad0cb" x="294.804268" y="640.3905" style="stroke: #000000; stroke-width: 0.6"/>
      </g>
     </g>
    </g>
    <g id="xtick_13">
     <g id="line2d_13">
      <g>
       <use xlink:href="#mb3003ad0cb" x="353.086662" y="640.3905" style="stroke: #000000; stroke-width: 0.6"/>
      </g>
     </g>
    </g>
    <g id="xtick_14">
     <g id="line2d_14">
      <g>
       <use xlink:href="#mb3003ad0cb" x="382.227859" y="640.3905" style="stroke: #000000; stroke-width: 0.6"/>
      </g>
     </g>
    </g>
    <g id="xtick_15">
     <g id="line2d_15">
      <g>
       <use xlink:href="#mb3003ad0cb" x="411.369056" y="640.3905" style="stroke: #000000; stroke-width: 0.6"/>
      </g>
     </g>
    </g>
    <g id="xtick_16">
     <g id="line2d_16">
      <g>
       <use xlink:href="#mb3003ad0cb" x="469.65145" y="640.3905" style="stroke: #000000; stroke-width: 0.6"/>
      </g>
     </g>
    </g>
    <g id="xtick_17">
     <g id="line2d_17">
      <g>
       <use xlink:href="#mb3003ad0cb" x="498.792646" y="640.3905" style="stroke: #000000; stroke-width: 0.6"/>
      </g>
     </g>
    </g>
    <g id="xtick_18">
     <g id="line2d_18">
      <g>
       <use xlink:href="#mb3003ad0cb" x="527.933843" y="640.3905" style="stroke: #000000; stroke-width: 0.6"/>
      </g>
     </g>
    </g>
    <g id="xtick_19">
     <g id="line2d_19">
      <g>
       <use xlink:href="#mb3003ad0cb" x="586.216237" y="640.3905" style="stroke: #000000; stroke-width: 0.6"/>
      </g>
     </g>
    </g>
    <g id="xtick_20">
     <g id="line2d_20">
      <g>
       <use xlink:href="#mb3003ad0cb" x="615.357434" y="640.3905" style="stroke: #000000; stroke-width: 0.6"/>
      </g>
     </g>
    </g>
    <g id="xtick_21">
     <g id="line2d_21">
      <g>
       <use xlink:href="#mb3003ad0cb" x="644.498631" y="640.3905" style="stroke: #000000; stroke-width: 0.6"/>
      </g>
     </g>
    </g>
    <g id="text_7">
     <!-- Time ps -->
     <g transform="translate(329.480438 697.59675) scale(0.3 -0.3)">
      <defs>
       <path id="LiberationSans-54" d="M 2250 3916 
L 2250 0 
L 1656 0 
L 1656 3916 
L 144 3916 
L 144 4403 
L 3763 4403 
L 3763 3916 
L 2250 3916 
z
" transform="scale(0.015625)"/>
       <path id="LiberationSans-69" d="M 428 4100 
L 428 4638 
L 991 4638 
L 991 4100 
L 428 4100 
z
M 428 0 
L 428 3381 
L 991 3381 
L 991 0 
L 428 0 
z
" transform="scale(0.015625)"/>
       <path id="LiberationSans-6d" d="M 2400 0 
L 2400 2144 
Q 2400 2634 2265 2821 
Q 2131 3009 1781 3009 
Q 1422 3009 1212 2734 
Q 1003 2459 1003 1959 
L 1003 0 
L 444 0 
L 444 2659 
Q 444 3250 425 3381 
L 956 3381 
Q 959 3366 962 3297 
Q 966 3228 970 3139 
Q 975 3050 981 2803 
L 991 2803 
Q 1172 3163 1406 3303 
Q 1641 3444 1978 3444 
Q 2363 3444 2586 3291 
Q 2809 3138 2897 2803 
L 2906 2803 
Q 3081 3144 3329 3294 
Q 3578 3444 3931 3444 
Q 4444 3444 4676 3166 
Q 4909 2888 4909 2253 
L 4909 0 
L 4353 0 
L 4353 2144 
Q 4353 2634 4218 2821 
Q 4084 3009 3734 3009 
Q 3366 3009 3161 2736 
Q 2956 2463 2956 1959 
L 2956 0 
L 2400 0 
z
" transform="scale(0.015625)"/>
       <path id="LiberationSans-65" d="M 863 1572 
Q 863 991 1103 675 
Q 1344 359 1806 359 
Q 2172 359 2392 506 
Q 2613 653 2691 878 
L 3184 738 
Q 2881 -63 1806 -63 
Q 1056 -63 664 384 
Q 272 831 272 1713 
Q 272 2550 664 2997 
Q 1056 3444 1784 3444 
Q 3275 3444 3275 1647 
L 3275 1572 
L 863 1572 
z
M 2694 2003 
Q 2647 2538 2422 2783 
Q 2197 3028 1775 3028 
Q 1366 3028 1127 2754 
Q 888 2481 869 2003 
L 2694 2003 
z
" transform="scale(0.015625)"/>
       <path id="LiberationSans-20" transform="scale(0.015625)"/>
       <path id="LiberationSans-70" d="M 3291 1706 
Q 3291 -63 2047 -63 
Q 1266 -63 997 525 
L 981 525 
Q 994 500 994 -6 
L 994 -1328 
L 431 -1328 
L 431 2691 
Q 431 3213 413 3381 
L 956 3381 
Q 959 3369 965 3292 
Q 972 3216 980 3056 
Q 988 2897 988 2838 
L 1000 2838 
Q 1150 3150 1397 3295 
Q 1644 3441 2047 3441 
Q 2672 3441 2981 3022 
Q 3291 2603 3291 1706 
z
M 2700 1694 
Q 2700 2400 2509 2703 
Q 2319 3006 1903 3006 
Q 1569 3006 1380 2865 
Q 1191 2725 1092 2426 
Q 994 2128 994 1650 
Q 994 984 1206 668 
Q 1419 353 1897 353 
Q 2316 353 2508 661 
Q 2700 969 2700 1694 
z
" transform="scale(0.015625)"/>
       <path id="LiberationSans-73" d="M 2969 934 
Q 2969 456 2608 196 
Q 2247 -63 1597 -63 
Q 966 -63 623 145 
Q 281 353 178 794 
L 675 891 
Q 747 619 972 492 
Q 1197 366 1597 366 
Q 2025 366 2223 497 
Q 2422 628 2422 891 
Q 2422 1091 2284 1216 
Q 2147 1341 1841 1422 
L 1438 1528 
Q 953 1653 748 1773 
Q 544 1894 428 2066 
Q 313 2238 313 2488 
Q 313 2950 642 3192 
Q 972 3434 1603 3434 
Q 2163 3434 2492 3237 
Q 2822 3041 2909 2606 
L 2403 2544 
Q 2356 2769 2151 2889 
Q 1947 3009 1603 3009 
Q 1222 3009 1040 2893 
Q 859 2778 859 2544 
Q 859 2400 934 2306 
Q 1009 2213 1156 2147 
Q 1303 2081 1775 1966 
Q 2222 1853 2419 1758 
Q 2616 1663 2730 1547 
Q 2844 1431 2906 1279 
Q 2969 1128 2969 934 
z
" transform="scale(0.015625)"/>
      </defs>
      <use xlink:href="#LiberationSans-54"/>
      <use xlink:href="#LiberationSans-69" x="57.333984"/>
      <use xlink:href="#LiberationSans-6d" x="79.550781"/>
      <use xlink:href="#LiberationSans-65" x="162.851562"/>
      <use xlink:href="#LiberationSans-20" x="218.466797"/>
      <use xlink:href="#LiberationSans-70" x="246.25"/>
      <use xlink:href="#LiberationSans-73" x="301.865234"/>
     </g>
    </g>
   </g>
   <g id="matplotlib.axis_2">
    <g id="ytick_1">
     <g id="line2d_22">
      <defs>
       <path id="m2b789a9f47" d="M 0 0 
L 3.5 0 
" style="stroke: #000000; stroke-width: 0.8"/>
      </defs>
      <g>
       <use xlink:href="#m2b789a9f47" x="61.8" y="628.778003" style="stroke: #000000; stroke-width: 0.8"/>
      </g>
     </g>
     <g id="text_8">
      <!-- $\mathdefault{0}$ -->
      <g transform="translate(41.5 639.648316) scale(0.3 -0.3)">
       <use xlink:href="#LiberationSans-30" transform="translate(0 0.171875)"/>
      </g>
     </g>
    </g>
    <g id="ytick_2">
     <g id="line2d_23">
      <g>
       <use xlink:href="#m2b789a9f47" x="61.8" y="519.282411" style="stroke: #000000; stroke-width: 0.8"/>
      </g>
     </g>
     <g id="text_9">
      <!-- $\mathdefault{1}$ -->
      <g transform="translate(41.5 530.152724) scale(0.3 -0.3)">
       <use xlink:href="#LiberationSans-31" transform="translate(0 0.203125)"/>
      </g>
     </g>
    </g>
    <g id="ytick_3">
     <g id="line2d_24">
      <g>
       <use xlink:href="#m2b789a9f47" x="61.8" y="409.786819" style="stroke: #000000; stroke-width: 0.8"/>
      </g>
     </g>
     <g id="text_10">
      <!-- $\mathdefault{2}$ -->
      <g transform="translate(41.5 420.657132) scale(0.3 -0.3)">
       <use xlink:href="#LiberationSans-32" transform="translate(0 0.171875)"/>
      </g>
     </g>
    </g>
    <g id="ytick_4">
     <g id="line2d_25">
      <g>
       <use xlink:href="#m2b789a9f47" x="61.8" y="300.291227" style="stroke: #000000; stroke-width: 0.8"/>
      </g>
     </g>
     <g id="text_11">
      <!-- $\mathdefault{3}$ -->
      <g transform="translate(41.5 311.16154) scale(0.3 -0.3)">
       <defs>
        <path id="LiberationSans-33" d="M 3278 1216 
Q 3278 606 2890 271 
Q 2503 -63 1784 -63 
Q 1116 -63 717 239 
Q 319 541 244 1131 
L 825 1184 
Q 938 403 1784 403 
Q 2209 403 2451 612 
Q 2694 822 2694 1234 
Q 2694 1594 2417 1795 
Q 2141 1997 1619 1997 
L 1300 1997 
L 1300 2484 
L 1606 2484 
Q 2069 2484 2323 2686 
Q 2578 2888 2578 3244 
Q 2578 3597 2370 3801 
Q 2163 4006 1753 4006 
Q 1381 4006 1151 3815 
Q 922 3625 884 3278 
L 319 3322 
Q 381 3863 767 4166 
Q 1153 4469 1759 4469 
Q 2422 4469 2789 4161 
Q 3156 3853 3156 3303 
Q 3156 2881 2920 2617 
Q 2684 2353 2234 2259 
L 2234 2247 
Q 2728 2194 3003 1916 
Q 3278 1638 3278 1216 
z
" transform="scale(0.015625)"/>
       </defs>
       <use xlink:href="#LiberationSans-33" transform="translate(0 0.171875)"/>
      </g>
     </g>
    </g>
    <g id="ytick_5">
     <g id="line2d_26">
      <g>
       <use xlink:href="#m2b789a9f47" x="61.8" y="190.795636" style="stroke: #000000; stroke-width: 0.8"/>
      </g>
     </g>
     <g id="text_12">
      <!-- $\mathdefault{4}$ -->
      <g transform="translate(41.5 201.665948) scale(0.3 -0.3)">
       <use xlink:href="#LiberationSans-34" transform="translate(0 0.203125)"/>
      </g>
     </g>
    </g>
    <g id="ytick_6">
     <g id="line2d_27">
      <g>
       <use xlink:href="#m2b789a9f47" x="61.8" y="81.300044" style="stroke: #000000; stroke-width: 0.8"/>
      </g>
     </g>
     <g id="text_13">
      <!-- $\mathdefault{5}$ -->
      <g transform="translate(41.5 92.170356) scale(0.3 -0.3)">
       <defs>
        <path id="LiberationSans-35" d="M 3291 1434 
Q 3291 738 2877 337 
Q 2463 -63 1728 -63 
Q 1113 -63 734 206 
Q 356 475 256 984 
L 825 1050 
Q 1003 397 1741 397 
Q 2194 397 2450 670 
Q 2706 944 2706 1422 
Q 2706 1838 2448 2094 
Q 2191 2350 1753 2350 
Q 1525 2350 1328 2278 
Q 1131 2206 934 2034 
L 384 2034 
L 531 4403 
L 3034 4403 
L 3034 3925 
L 1044 3925 
L 959 2528 
Q 1325 2809 1869 2809 
Q 2519 2809 2905 2428 
Q 3291 2047 3291 1434 
z
" transform="scale(0.015625)"/>
       </defs>
       <use xlink:href="#LiberationSans-35" transform="translate(0 0.203125)"/>
      </g>
     </g>
    </g>
    <g id="ytick_7">
     <g id="line2d_28">
      <defs>
       <path id="m0656727244" d="M 0 0 
L 2 0 
" style="stroke: #000000; stroke-width: 0.6"/>
      </defs>
      <g>
       <use xlink:href="#m0656727244" x="61.8" y="606.878885" style="stroke: #000000; stroke-width: 0.6"/>
      </g>
     </g>
    </g>
    <g id="ytick_8">
     <g id="line2d_29">
      <g>
       <use xlink:href="#m0656727244" x="61.8" y="584.979766" style="stroke: #000000; stroke-width: 0.6"/>
      </g>
     </g>
    </g>
    <g id="ytick_9">
     <g id="line2d_30">
      <g>
       <use xlink:href="#m0656727244" x="61.8" y="563.080648" style="stroke: #000000; stroke-width: 0.6"/>
      </g>
     </g>
    </g>
    <g id="ytick_10">
     <g id="line2d_31">
      <g>
       <use xlink:href="#m0656727244" x="61.8" y="541.18153" style="stroke: #000000; stroke-width: 0.6"/>
      </g>
     </g>
    </g>
    <g id="ytick_11">
     <g id="line2d_32">
      <g>
       <use xlink:href="#m0656727244" x="61.8" y="497.383293" style="stroke: #000000; stroke-width: 0.6"/>
      </g>
     </g>
    </g>
    <g id="ytick_12">
     <g id="line2d_33">
      <g>
       <use xlink:href="#m0656727244" x="61.8" y="475.484175" style="stroke: #000000; stroke-width: 0.6"/>
      </g>
     </g>
    </g>
    <g id="ytick_13">
     <g id="line2d_34">
      <g>
       <use xlink:href="#m0656727244" x="61.8" y="453.585056" style="stroke: #000000; stroke-width: 0.6"/>
      </g>
     </g>
    </g>
    <g id="ytick_14">
     <g id="line2d_35">
      <g>
       <use xlink:href="#m0656727244" x="61.8" y="431.685938" style="stroke: #000000; stroke-width: 0.6"/>
      </g>
     </g>
    </g>
    <g id="ytick_15">
     <g id="line2d_36">
      <g>
       <use xlink:href="#m0656727244" x="61.8" y="387.887701" style="stroke: #000000; stroke-width: 0.6"/>
      </g>
     </g>
    </g>
    <g id="ytick_16">
     <g id="line2d_37">
      <g>
       <use xlink:href="#m0656727244" x="61.8" y="365.988583" style="stroke: #000000; stroke-width: 0.6"/>
      </g>
     </g>
    </g>
    <g id="ytick_17">
     <g id="line2d_38">
      <g>
       <use xlink:href="#m0656727244" x="61.8" y="344.089464" style="stroke: #000000; stroke-width: 0.6"/>
      </g>
     </g>
    </g>
    <g id="ytick_18">
     <g id="line2d_39">
      <g>
       <use xlink:href="#m0656727244" x="61.8" y="322.190346" style="stroke: #000000; stroke-width: 0.6"/>
      </g>
     </g>
    </g>
    <g id="ytick_19">
     <g id="line2d_40">
      <g>
       <use xlink:href="#m0656727244" x="61.8" y="278.392109" style="stroke: #000000; stroke-width: 0.6"/>
      </g>
     </g>
    </g>
    <g id="ytick_20">
     <g id="line2d_41">
      <g>
       <use xlink:href="#m0656727244" x="61.8" y="256.492991" style="stroke: #000000; stroke-width: 0.6"/>
      </g>
     </g>
    </g>
    <g id="ytick_21">
     <g id="line2d_42">
      <g>
       <use xlink:href="#m0656727244" x="61.8" y="234.593872" style="stroke: #000000; stroke-width: 0.6"/>
      </g>
     </g>
    </g>
    <g id="ytick_22">
     <g id="line2d_43">
      <g>
       <use xlink:href="#m0656727244" x="61.8" y="212.694754" style="stroke: #000000; stroke-width: 0.6"/>
      </g>
     </g>
    </g>
    <g id="ytick_23">
     <g id="line2d_44">
      <g>
       <use xlink:href="#m0656727244" x="61.8" y="168.896517" style="stroke: #000000; stroke-width: 0.6"/>
      </g>
     </g>
    </g>
    <g id="ytick_24">
     <g id="line2d_45">
      <g>
       <use xlink:href="#m0656727244" x="61.8" y="146.997399" style="stroke: #000000; stroke-width: 0.6"/>
      </g>
     </g>
    </g>
    <g id="ytick_25">
     <g id="line2d_46">
      <g>
       <use xlink:href="#m0656727244" x="61.8" y="125.09828" style="stroke: #000000; stroke-width: 0.6"/>
      </g>
     </g>
    </g>
    <g id="ytick_26">
     <g id="line2d_47">
      <g>
       <use xlink:href="#m0656727244" x="61.8" y="103.199162" style="stroke: #000000; stroke-width: 0.6"/>
      </g>
     </g>
    </g>
    <g id="ytick_27">
     <g id="line2d_48">
      <g>
       <use xlink:href="#m0656727244" x="61.8" y="59.400925" style="stroke: #000000; stroke-width: 0.6"/>
      </g>
     </g>
    </g>
    <g id="text_14">
     <!-- ITC $\mathrm{W} / (\mathrm{K} \cdot \mathrm{m}^2)$ -->
     <g transform="translate(31.275 433.839) rotate(-90) scale(0.3 -0.3)">
      <defs>
       <path id="LiberationSans-49" d="M 591 0 
L 591 4403 
L 1188 4403 
L 1188 0 
L 591 0 
z
" transform="scale(0.015625)"/>
       <path id="LiberationSans-43" d="M 2475 3981 
Q 1744 3981 1337 3511 
Q 931 3041 931 2222 
Q 931 1413 1354 920 
Q 1778 428 2500 428 
Q 3425 428 3891 1344 
L 4378 1100 
Q 4106 531 3614 234 
Q 3122 -63 2472 -63 
Q 1806 -63 1320 214 
Q 834 491 579 1005 
Q 325 1519 325 2222 
Q 325 3275 894 3872 
Q 1463 4469 2469 4469 
Q 3172 4469 3644 4194 
Q 4116 3919 4338 3378 
L 3772 3191 
Q 3619 3575 3280 3778 
Q 2941 3981 2475 3981 
z
" transform="scale(0.015625)"/>
       <path id="STIXGeneral-Regular-57" d="M 5965 4237 
L 5965 4115 
Q 5709 4064 5616 3990 
Q 5523 3917 5434 3667 
Q 4704 1709 4128 -70 
L 4032 -70 
Q 3642 1011 3008 2637 
L 2022 -70 
L 1926 -70 
Q 1709 576 1277 1753 
Q 845 2931 698 3347 
Q 538 3808 406 3958 
Q 275 4109 32 4115 
L 32 4237 
L 1594 4237 
L 1594 4115 
Q 1357 4109 1270 4064 
Q 1184 4019 1184 3917 
Q 1184 3808 1254 3616 
L 2176 1210 
L 2842 3021 
L 2662 3501 
Q 2509 3917 2400 4013 
Q 2291 4109 2010 4115 
L 2010 4237 
L 3706 4237 
L 3706 4115 
Q 3213 4102 3213 3891 
Q 3213 3808 3322 3520 
L 4237 1190 
L 5043 3360 
Q 5152 3667 5152 3853 
Q 5152 4109 4704 4115 
L 4704 4237 
L 5965 4237 
z
" transform="scale(0.015625)"/>
       <path id="STIXGeneral-Regular-2f" d="M 1837 4326 
L 378 -90 
L -58 -90 
L 1408 4326 
L 1837 4326 
z
" transform="scale(0.015625)"/>
       <path id="STIXGeneral-Regular-28" d="M 1946 -1030 
L 1869 -1133 
Q 1126 -710 716 32 
Q 307 774 307 1613 
Q 307 3386 1888 4326 
L 1946 4224 
Q 1293 3667 1075 3126 
Q 858 2586 858 1632 
Q 858 685 1082 96 
Q 1306 -493 1946 -1030 
z
" transform="scale(0.015625)"/>
       <path id="STIXGeneral-Regular-4b" d="M 4627 0 
L 2688 0 
L 2688 122 
L 2861 128 
Q 3130 134 3130 282 
Q 3130 397 2922 643 
Q 2714 890 2253 1370 
L 1613 2029 
L 1446 1894 
L 1446 710 
Q 1446 352 1548 253 
Q 1651 154 2016 122 
L 2016 0 
L 211 0 
L 211 122 
Q 589 141 691 262 
Q 794 384 794 800 
L 794 3514 
Q 794 3872 691 3981 
Q 589 4090 218 4115 
L 218 4237 
L 2022 4237 
L 2022 4115 
Q 1632 4090 1539 3987 
Q 1446 3885 1446 3507 
L 1446 2227 
L 2586 3277 
Q 2861 3533 2973 3667 
Q 3085 3802 3085 3910 
Q 3085 4013 3030 4057 
Q 2976 4102 2822 4109 
L 2662 4115 
L 2662 4237 
L 4320 4237 
L 4320 4115 
Q 3994 4090 3824 4003 
Q 3654 3917 3322 3597 
L 2131 2458 
L 3629 819 
Q 4026 384 4214 253 
Q 4403 122 4627 122 
L 4627 0 
z
" transform="scale(0.015625)"/>
       <path id="STIXGeneral-Regular-22c5" d="M 1187 1888 
Q 1299 1773 1299 1619 
Q 1299 1466 1187 1350 
Q 1075 1235 921 1235 
Q 768 1235 649 1353 
Q 531 1472 531 1619 
Q 531 1766 649 1884 
Q 768 2003 921 2003 
Q 1075 2003 1187 1888 
z
" transform="scale(0.015625)"/>
       <path id="STIXGeneral-Regular-6d" d="M 4960 0 
L 3565 0 
L 3565 96 
Q 3834 122 3907 208 
Q 3981 294 3981 576 
L 3981 1894 
Q 3981 2278 3869 2444 
Q 3757 2611 3488 2611 
Q 3264 2611 3107 2521 
Q 2950 2432 2803 2221 
L 2803 608 
Q 2803 301 2896 201 
Q 2989 102 3264 96 
L 3264 0 
L 1830 0 
L 1830 96 
Q 2112 115 2189 188 
Q 2266 262 2266 550 
L 2266 1901 
Q 2266 2611 1850 2611 
Q 1670 2611 1468 2531 
Q 1267 2451 1171 2336 
Q 1088 2240 1088 2227 
L 1088 448 
Q 1088 243 1177 176 
Q 1267 109 1523 96 
L 1523 0 
L 102 0 
L 102 96 
Q 371 102 460 195 
Q 550 288 550 563 
L 550 2150 
Q 550 2387 499 2480 
Q 448 2573 326 2573 
Q 230 2573 122 2547 
L 122 2656 
Q 557 2778 1011 2944 
L 1062 2925 
L 1062 2451 
L 1075 2451 
Q 1363 2752 1584 2848 
Q 1805 2944 2054 2944 
Q 2560 2944 2733 2406 
Q 3232 2944 3776 2944 
Q 4518 2944 4518 1792 
L 4518 493 
Q 4518 282 4582 202 
Q 4646 122 4794 109 
L 4960 96 
L 4960 0 
z
" transform="scale(0.015625)"/>
       <path id="STIXGeneral-Regular-32" d="M 3034 877 
L 2688 0 
L 186 0 
L 186 77 
L 1325 1286 
Q 1773 1754 1965 2144 
Q 2157 2534 2157 2950 
Q 2157 3379 1920 3616 
Q 1683 3853 1267 3853 
Q 922 3853 720 3673 
Q 518 3494 326 3021 
L 192 3053 
Q 301 3648 630 3987 
Q 960 4326 1523 4326 
Q 2054 4326 2380 4006 
Q 2707 3686 2707 3200 
Q 2707 2477 1888 1613 
L 832 486 
L 2330 486 
Q 2541 486 2665 569 
Q 2790 653 2944 915 
L 3034 877 
z
" transform="scale(0.015625)"/>
       <path id="STIXGeneral-Regular-29" d="M 186 4224 
L 262 4326 
Q 992 3891 1408 3148 
Q 1824 2406 1824 1581 
Q 1824 -166 243 -1133 
L 186 -1030 
Q 845 -486 1059 54 
Q 1274 595 1274 1562 
Q 1274 2534 1059 3120 
Q 845 3706 186 4224 
z
" transform="scale(0.015625)"/>
      </defs>
      <use xlink:href="#LiberationSans-49" transform="translate(0 0.409375)"/>
      <use xlink:href="#LiberationSans-54" transform="translate(27.783203 0.409375)"/>
      <use xlink:href="#LiberationSans-43" transform="translate(88.867188 0.409375)"/>
      <use xlink:href="#LiberationSans-20" transform="translate(161.083984 0.409375)"/>
      <use xlink:href="#STIXGeneral-Regular-57" transform="translate(188.867188 0.409375)"/>
      <use xlink:href="#STIXGeneral-Regular-2f" transform="translate(283.267181 0.409375)"/>
      <use xlink:href="#STIXGeneral-Regular-28" transform="translate(311.067169 0.409375)"/>
      <use xlink:href="#STIXGeneral-Regular-4b" transform="translate(344.367157 0.409375)"/>
      <use xlink:href="#STIXGeneral-Regular-22c5" transform="translate(431.007135 0.409375)"/>
      <use xlink:href="#STIXGeneral-Regular-6d" transform="translate(474.047122 0.409375)"/>
      <use xlink:href="#STIXGeneral-Regular-32" transform="translate(553.390391 35.684375) scale(0.7)"/>
      <use xlink:href="#STIXGeneral-Regular-29" transform="translate(592.799756 0.409375)"/>
     </g>
    </g>
    <g id="text_15">
     <!-- $\times\mathdefault{10^{6}}\mathdefault{}$ -->
     <g transform="translate(61.8 36.1875) scale(0.4 -0.4)">
      <defs>
       <path id="STIXGeneral-Regular-d7" d="M 3821 141 
L 3526 -160 
L 2048 1312 
L 570 -160 
L 275 134 
L 1747 1613 
L 275 3091 
L 576 3386 
L 2048 1914 
L 3526 3386 
L 3821 3098 
L 2349 1613 
L 3821 141 
z
" transform="scale(0.015625)"/>
      </defs>
      <use xlink:href="#STIXGeneral-Regular-d7" transform="translate(0 0.140625)"/>
      <use xlink:href="#LiberationSans-31" transform="translate(63.999985 0.140625)"/>
      <use xlink:href="#LiberationSans-30" transform="translate(119.615219 0.140625)"/>
      <use xlink:href="#LiberationSans-36" transform="translate(176.154946 37.120312) scale(0.7)"/>
     </g>
    </g>
   </g>
   <g id="line2d_49">
    <path d="M 90.932455 613.063091 
L 92.214667 294.590392 
L 92.914056 169.534453 
L 93.438597 107.736107 
L 93.904857 76.621899 
L 94.196269 67.990757 
L 94.371116 66.514909 
L 94.429398 66.605906 
L 94.545963 67.624569 
L 94.779093 72.82053 
L 95.128787 87.657932 
L 95.595046 118.097298 
L 96.352717 184.616778 
L 99.09199 439.989221 
L 100.024508 502.137728 
L 100.840461 542.501453 
L 101.481568 564.700548 
L 102.006109 576.592895 
L 102.414086 582.025745 
L 102.76378 584.140016 
L 102.938628 584.360739 
L 103.055192 584.211951 
L 103.23004 583.562221 
L 103.521452 581.406295 
L 103.929428 576.361815 
L 104.512252 565.814134 
L 105.386488 545.281166 
L 107.309807 499.316274 
L 108.067478 486.505079 
L 108.650302 479.758161 
L 109.116561 476.418596 
L 109.466256 475.112261 
L 109.699385 474.799356 
L 109.874233 474.849878 
L 110.107362 475.286355 
L 110.398774 476.401955 
L 110.806751 478.960111 
L 111.331292 483.778542 
L 112.030681 492.394264 
L 113.138047 509.308657 
L 115.236213 541.668164 
L 116.110449 551.694571 
L 116.809837 557.394467 
L 117.392661 560.425049 
L 117.800638 561.60234 
L 118.09205 561.974908 
L 118.32518 561.999637 
L 118.558309 561.789414 
L 118.849721 561.21068 
L 119.257698 559.852138 
L 119.782239 557.282277 
L 120.539911 552.33922 
L 122.987771 535.408664 
L 123.570595 533.062448 
L 124.036854 531.936871 
L 124.386549 531.532783 
L 124.677961 531.470254 
L 124.969373 531.638302 
L 125.319067 532.112045 
L 125.843608 533.282165 
L 126.60128 535.638643 
L 129.865094 546.568082 
L 130.681047 548.335727 
L 131.263871 549.096641 
L 131.671848 549.299117 
L 132.021542 549.214978 
L 132.371237 548.864697 
L 132.779213 548.091948 
L 133.245472 546.706103 
L 133.828296 544.225061 
L 134.585968 539.892344 
L 135.751615 531.63871 
L 137.55837 518.896161 
L 138.54917 513.509314 
L 139.365124 510.187338 
L 140.122795 507.95914 
L 140.822184 506.56865 
L 141.405008 505.858409 
L 141.929549 505.542484 
L 142.395808 505.498517 
L 142.92035 505.685745 
L 143.561456 506.190641 
L 144.552257 507.320982 
L 145.83447 508.725461 
L 146.533858 509.184749 
L 147.174965 509.34292 
L 147.816071 509.260942 
L 148.573742 508.923785 
L 149.972519 507.986928 
L 151.371297 507.15352 
L 152.245533 506.870332 
L 152.944922 506.853391 
L 153.586028 507.055615 
L 154.227134 507.512381 
L 154.868241 508.257844 
L 155.567629 509.416889 
L 156.383583 511.206956 
L 157.432666 514.099378 
L 158.773161 518.513581 
L 160.638198 525.502359 
L 162.852929 533.67093 
L 163.902012 536.681107 
L 164.776248 538.547526 
L 165.592201 539.798106 
L 166.466437 540.738395 
L 167.457238 541.479184 
L 168.506321 541.998512 
L 169.438839 542.219829 
L 170.313075 542.191588 
L 171.303876 541.918144 
L 175.616773 540.210707 
L 176.432726 539.579717 
L 177.24868 538.665538 
L 178.23948 537.205367 
L 179.754823 534.516326 
L 181.561577 530.884371 
L 182.902072 527.675036 
L 184.592261 522.957563 
L 186.282451 518.419018 
L 187.273252 516.345749 
L 188.147487 515.003681 
L 188.963441 514.148054 
L 189.779394 513.613997 
L 190.65363 513.308896 
L 191.760996 513.171325 
L 195.491069 512.897511 
L 199.104577 512.19278 
L 199.920531 512.377762 
L 200.678202 512.773847 
L 201.494156 513.469238 
L 202.368392 514.540739 
L 203.30091 516.067151 
L 204.349993 518.257202 
L 205.573923 521.382583 
L 207.555525 527.190708 
L 209.420561 532.406771 
L 210.702774 535.342064 
L 211.810139 537.344365 
L 212.80094 538.716511 
L 213.733458 539.651063 
L 214.607694 540.213117 
L 215.423648 540.469371 
L 216.239601 540.488882 
L 217.17212 540.278754 
L 218.570897 539.699684 
L 223.408336 537.353204 
L 224.573984 536.405941 
L 225.797914 535.119328 
L 227.138409 533.382118 
L 228.653751 531.034003 
L 230.227376 528.162325 
L 231.801 524.803461 
L 233.782602 519.975389 
L 235.705921 515.454809 
L 236.755004 513.54685 
L 237.62924 512.407671 
L 238.386911 511.763095 
L 239.144582 511.408841 
L 239.902253 511.304873 
L 240.718207 511.433092 
L 241.592443 511.817021 
L 242.524961 512.478526 
L 243.807174 513.694157 
L 245.847057 515.629854 
L 247.070988 516.443286 
L 249.110871 517.715323 
L 249.985107 518.601924 
L 250.859343 519.837076 
L 251.850144 521.653297 
L 253.248921 524.748175 
L 256.163041 531.286116 
L 257.445254 533.566669 
L 258.669184 535.296238 
L 259.893114 536.651386 
L 261.117044 537.686766 
L 262.107845 538.261324 
L 262.923799 538.498919 
L 263.68147 538.483254 
L 264.380859 538.247537 
L 265.196812 537.715302 
L 266.245895 536.718385 
L 269.917686 532.961484 
L 272.598676 530.482231 
L 279.709128 523.005437 
L 285.59565 516.397981 
L 286.528168 515.793185 
L 287.402404 515.49237 
L 288.27664 515.438495 
L 289.209158 515.608582 
L 290.316524 516.046531 
L 291.540454 516.777129 
L 292.822667 517.810871 
L 294.338009 519.343645 
L 296.494458 521.866043 
L 298.126365 524.08443 
L 299.699989 526.640448 
L 302.264414 530.857707 
L 303.60491 532.575129 
L 305.236817 534.273198 
L 307.568112 536.365242 
L 309.374867 537.708699 
L 310.540514 538.329404 
L 311.41475 538.558981 
L 312.114139 538.53046 
L 312.813528 538.27213 
L 313.512917 537.768595 
L 314.32887 536.894765 
L 315.5528 535.197594 
L 317.417837 532.622582 
L 318.525202 531.482547 
L 320.273674 530.080349 
L 321.672452 528.811138 
L 326.393326 524.141717 
L 329.482292 521.869519 
L 330.997635 521.018575 
L 332.629542 520.368524 
L 334.552861 519.834708 
L 335.776791 519.702113 
L 336.825874 519.799616 
L 337.991522 520.145368 
L 339.448582 520.837844 
L 341.022206 521.8299 
L 342.304419 522.900093 
L 343.586632 524.281547 
L 345.393386 526.616622 
L 348.948612 531.230131 
L 350.580519 533.01903 
L 351.629602 533.859316 
L 352.503838 534.293871 
L 353.378074 534.481267 
L 354.368875 534.452519 
L 356.000782 534.130716 
L 357.982383 533.80781 
L 361.07135 533.412845 
L 362.120433 532.976941 
L 363.169516 532.289759 
L 364.393446 531.195941 
L 366.083636 529.347618 
L 370.454815 524.457988 
L 371.79531 523.302141 
L 372.786111 522.720583 
L 373.660347 522.446485 
L 374.592865 522.38731 
L 375.93336 522.56207 
L 377.39042 522.700225 
L 378.322938 522.560969 
L 379.313739 522.169648 
L 382.286141 520.769158 
L 383.102095 520.747707 
L 383.976331 520.95484 
L 385.316826 521.543132 
L 387.356709 522.407846 
L 389.921135 523.418545 
L 391.086783 524.177118 
L 392.543843 525.425063 
L 395.516245 528.037117 
L 397.556128 529.408448 
L 399.246318 530.65605 
L 402.568414 533.317078 
L 403.326085 533.544171 
L 404.025474 533.531944 
L 404.783145 533.290394 
L 405.715664 532.740427 
L 409.911996 529.92459 
L 413.933481 527.986519 
L 415.390541 526.869165 
L 418.421225 524.451724 
L 419.470308 523.95464 
L 420.635956 523.664977 
L 424.016335 523.010982 
L 426.056219 522.51441 
L 427.280149 522.472297 
L 428.853774 522.672534 
L 433.341518 523.56686 
L 434.565448 524.027974 
L 435.497967 524.615958 
L 436.372203 525.436478 
L 437.304721 526.624137 
L 438.761781 528.91529 
L 440.160558 530.983965 
L 440.976512 531.833685 
L 441.6759 532.272162 
L 442.375289 532.441902 
L 443.074678 532.380871 
L 444.007196 532.050774 
L 447.212728 530.699024 
L 448.320093 530.575413 
L 449.427459 530.680756 
L 450.767954 531.054677 
L 453.215814 531.787405 
L 454.264898 531.821698 
L 455.372263 531.621969 
L 457.179017 531.021082 
L 458.869207 530.273432 
L 459.860007 529.579692 
L 460.792526 528.637368 
L 461.958174 527.095101 
L 464.05634 524.250992 
L 464.930576 523.473823 
L 465.688247 523.097576 
L 466.445918 522.979741 
L 467.378436 523.090937 
L 469.768014 523.504446 
L 470.700533 523.372196 
L 471.924463 522.947782 
L 473.614652 522.370787 
L 474.547171 522.298339 
L 475.479689 522.463254 
L 476.645337 522.923935 
L 481.715905 525.428049 
L 485.096284 527.362328 
L 486.261932 527.694815 
L 487.660709 527.846941 
L 493.838643 528.260789 
L 495.062573 528.600339 
L 496.286503 529.176084 
L 499.200623 530.66914 
L 500.074859 530.788528 
L 500.890813 530.679063 
L 501.823331 530.321898 
L 503.222108 529.506917 
L 506.19451 527.750497 
L 508.817218 526.204699 
L 510.915384 524.987161 
L 512.314162 524.459946 
L 514.237481 523.753074 
L 515.286564 523.097182 
L 516.860189 521.78829 
L 518.084119 520.901931 
L 518.84179 520.606079 
L 519.541179 520.571117 
L 520.240567 520.777485 
L 520.998238 521.249644 
L 521.989039 522.163262 
L 523.795793 524.218743 
L 525.602548 526.141696 
L 526.651631 526.961066 
L 527.525867 527.369997 
L 528.283538 527.47787 
L 529.041209 527.345541 
L 529.857162 526.962707 
L 531.081093 526.100779 
L 532.47987 525.183345 
L 533.237541 524.939813 
L 533.878647 524.948613 
L 534.519754 525.179008 
L 535.219143 525.684424 
L 536.035096 526.574991 
L 537.142462 528.155324 
L 539.473757 531.569708 
L 540.289711 532.361557 
L 540.9891 532.755066 
L 541.630206 532.860206 
L 542.271312 532.718297 
L 542.912419 532.344279 
L 543.728372 531.584749 
L 544.952302 530.073874 
L 546.642492 528.03376 
L 547.516728 527.324053 
L 548.274399 526.981097 
L 549.03207 526.883595 
L 549.906306 527.017903 
L 551.071954 527.448673 
L 553.927791 528.585926 
L 554.976874 528.739798 
L 555.85111 528.650827 
L 556.667063 528.341019 
L 557.541299 527.749132 
L 558.590382 526.745202 
L 560.921678 524.416886 
L 561.737632 523.963303 
L 562.43702 523.826506 
L 563.078127 523.916323 
L 563.777516 524.233966 
L 564.651751 524.891381 
L 566.225376 526.429892 
L 567.565871 527.605149 
L 568.498389 528.13736 
L 569.314343 528.36294 
L 570.188579 528.372625 
L 571.237662 528.151072 
L 575.550559 526.985471 
L 576.657925 527.026275 
L 577.707008 527.29357 
L 578.814373 527.824131 
L 580.387998 528.868626 
L 582.13647 529.967727 
L 583.243835 530.408359 
L 584.292918 530.585633 
L 585.400284 530.533271 
L 586.857343 530.20663 
L 589.072074 529.712453 
L 590.762264 529.619231 
L 592.6273 529.468703 
L 594.200925 529.084181 
L 597.348174 528.274171 
L 599.154929 527.756965 
L 601.427942 526.795434 
L 602.768437 526.375255 
L 603.992367 526.228658 
L 605.915686 526.271436 
L 608.654959 526.273265 
L 616.814494 526.106936 
L 617.805295 526.414137 
L 618.796095 526.96137 
L 619.961743 527.879973 
L 622.059909 529.583114 
L 622.875863 529.941026 
L 623.575252 530.024972 
L 624.332923 529.88715 
L 625.265441 529.464914 
L 628.704102 527.648611 
L 629.86975 527.407418 
L 630.977116 527.406979 
L 632.142763 527.640114 
L 633.541541 528.171849 
L 635.756272 529.296173 
L 638.670392 530.745041 
L 639.719475 531.009563 
L 640.535428 531.003148 
L 641.351382 530.772875 
L 642.225618 530.286354 
L 643.449548 529.320173 
L 645.489432 527.712227 
L 646.65508 527.098425 
L 648.112139 526.606818 
L 650.909694 525.938565 
L 652.366754 525.807702 
L 654.115226 525.906971 
L 656.096827 525.957936 
L 659.535489 525.895658 
L 660.934266 526.216755 
L 664.780904 527.238373 
L 666.704223 527.423678 
L 669.676625 527.666909 
L 670.725708 528.028385 
L 671.774791 528.630707 
L 673.581545 529.92632 
L 673.581545 529.92632 
" clip-path="url(#peff96040b7)" style="fill: none; stroke: #ff0000; stroke-width: 1.5; stroke-linecap: square"/>
   </g>
   <g id="line2d_50">
    <path d="M 90.932455 613.015746 
L 92.156385 311.899312 
L 92.855774 189.262828 
L 93.380315 128.911714 
L 93.846574 98.336409 
L 94.137986 89.572746 
L 94.312833 87.827914 
L 94.371116 87.796664 
L 94.487681 88.521038 
L 94.662528 91.473414 
L 94.95394 100.896142 
L 95.361916 121.999268 
L 96.003023 168.285422 
L 99.383402 435.102127 
L 100.31592 483.743556 
L 101.073591 513.064947 
L 101.714697 530.419425 
L 102.239239 539.532798 
L 102.647216 543.569851 
L 102.938628 544.911556 
L 103.113475 545.137103 
L 103.23004 545.05805 
L 103.404887 544.614132 
L 103.696299 543.065221 
L 104.104276 539.405578 
L 104.687099 531.853274 
L 105.852747 512.939571 
L 107.076678 494.389491 
L 107.834349 485.839889 
L 108.475455 480.959412 
L 108.941714 478.876707 
L 109.291409 478.128909 
L 109.524538 478.012042 
L 109.757668 478.18995 
L 110.04908 478.808072 
L 110.457056 480.357088 
L 110.981598 483.384618 
L 111.739269 489.276357 
L 114.070565 508.447612 
L 114.653389 511.277834 
L 115.119648 512.628446 
L 115.469342 513.112026 
L 115.760754 513.187871 
L 116.052166 512.995882 
L 116.401861 512.465272 
L 116.926402 511.218538 
L 117.800638 508.429186 
L 119.957087 501.333346 
L 121.122735 498.361085 
L 122.055253 496.511891 
L 122.754642 495.542463 
L 123.395748 495.004552 
L 124.211701 494.64922 
L 125.260784 494.175627 
L 125.960173 493.576924 
L 128.000057 491.580122 
L 128.408034 491.600321 
L 128.757728 491.843074 
L 129.165705 492.421704 
L 129.631964 493.483279 
L 130.214788 495.385988 
L 131.030741 498.913414 
L 132.837496 506.952063 
L 133.478602 508.709513 
L 133.944861 509.427252 
L 134.352838 509.676471 
L 134.702532 509.633334 
L 135.110509 509.320046 
L 135.635051 508.584652 
L 136.509287 506.897829 
L 137.674934 504.735636 
L 138.199476 504.174697 
L 138.607453 504.018902 
L 139.015429 504.121301 
L 139.423406 504.474345 
L 139.947948 505.267088 
L 140.647336 506.801706 
L 141.69642 509.756487 
L 142.92035 513.094122 
L 143.561456 514.255612 
L 144.085998 514.798298 
L 144.493974 514.931333 
L 144.843669 514.836571 
L 145.251646 514.4877 
L 145.776187 513.691581 
L 146.359011 512.368873 
L 147.0584 510.188747 
L 147.932636 506.640681 
L 149.040001 501.058112 
L 150.671908 492.856808 
L 151.487862 489.861067 
L 152.128968 488.285149 
L 152.65351 487.551323 
L 153.061486 487.321633 
L 153.411181 487.352459 
L 153.819157 487.63641 
L 154.285417 488.257261 
L 154.926523 489.543743 
L 155.859041 492.025972 
L 158.365184 498.986866 
L 159.181138 500.499691 
L 159.822244 501.273642 
L 160.405068 501.654361 
L 160.987892 501.756928 
L 161.570716 501.631355 
L 162.386669 501.199475 
L 164.076859 500.226258 
L 164.776248 500.118671 
L 165.417354 500.251234 
L 166.175025 500.655138 
L 168.73945 502.24966 
L 169.380557 502.264809 
L 169.963381 502.055727 
L 170.604487 501.579057 
L 171.42044 500.657735 
L 172.935783 498.506026 
L 174.159713 496.932301 
L 174.975666 496.230715 
L 175.616773 495.951603 
L 176.199597 495.921093 
L 176.840703 496.112103 
L 177.714939 496.641061 
L 179.813105 498.028792 
L 180.512494 498.173077 
L 181.1536 498.069297 
L 181.852989 497.701261 
L 182.668942 496.996758 
L 183.892873 495.603758 
L 185.641344 493.657665 
L 186.457298 493.07268 
L 187.098404 492.874532 
L 187.681228 492.929253 
L 188.264052 493.216966 
L 188.905159 493.784136 
L 189.779394 494.875855 
L 191.877561 497.629877 
L 192.576949 498.153066 
L 193.218056 498.376547 
L 193.917444 498.377883 
L 194.908245 498.118248 
L 195.957328 497.898478 
L 196.540152 497.984063 
L 197.064694 498.268139 
L 197.647518 498.858753 
L 198.288624 499.852407 
L 199.104577 501.580254 
L 200.328508 504.791599 
L 201.785568 508.498311 
L 202.484956 509.726536 
L 203.009498 510.234682 
L 203.417475 510.332285 
L 203.767169 510.186993 
L 204.175146 509.736572 
L 204.641405 508.84237 
L 205.224229 507.164878 
L 205.923618 504.421806 
L 206.972701 499.256115 
L 208.837737 490.011982 
L 209.653691 487.121472 
L 210.294797 485.577161 
L 210.819339 484.818524 
L 211.285598 484.51564 
L 211.693575 484.5219 
L 212.101551 484.763227 
L 212.626093 485.382794 
L 213.267199 486.534439 
L 214.141435 488.61679 
L 215.889907 493.543764 
L 217.17212 496.820049 
L 218.046355 498.496995 
L 218.804027 499.516314 
L 219.561698 500.187071 
L 220.552498 500.740035 
L 222.126123 501.588642 
L 223.116924 502.428083 
L 225.914479 505.056554 
L 226.555585 505.261699 
L 227.138409 505.222333 
L 227.721233 504.960554 
L 228.362339 504.424101 
L 229.12001 503.478865 
L 230.110811 501.844732 
L 233.199778 496.4501 
L 233.840884 495.858428 
L 234.365426 495.641676 
L 234.831685 495.666306 
L 235.356226 495.923806 
L 235.997333 496.506922 
L 237.162981 497.95449 
L 238.153781 499.044387 
L 238.794888 499.434572 
L 239.319429 499.501901 
L 239.843971 499.336424 
L 240.426795 498.901982 
L 241.184466 498.021874 
L 242.408396 496.182403 
L 243.865456 494.087751 
L 244.681409 493.261494 
L 245.380798 492.854641 
L 245.963622 492.748994 
L 246.604728 492.872879 
L 247.304117 493.255618 
L 248.411483 494.171392 
L 249.693695 495.175453 
L 250.393084 495.456781 
L 251.03419 495.476785 
L 251.733579 495.258913 
L 252.840945 494.619594 
L 253.831745 494.138468 
L 254.472852 494.071133 
L 254.997393 494.238856 
L 255.521935 494.653662 
L 256.104759 495.432994 
L 256.745865 496.682794 
L 257.561818 498.826211 
L 258.610902 502.300439 
L 260.709068 509.425308 
L 261.350174 510.810443 
L 261.816433 511.369298 
L 262.166128 511.49842 
L 262.45754 511.400159 
L 262.807234 511.024422 
L 263.215211 510.224291 
L 263.739752 508.640196 
L 264.380859 505.947984 
L 265.313377 500.932389 
L 267.469825 488.899083 
L 268.227497 485.972136 
L 268.868603 484.331525 
L 269.393144 483.579716 
L 269.801121 483.345876 
L 270.150816 483.37332 
L 270.558792 483.647976 
L 271.025051 484.243512 
L 271.666158 485.462387 
L 272.598676 487.798704 
L 275.163101 494.514123 
L 275.920772 495.812649 
L 276.561879 496.527317 
L 277.202985 496.909616 
L 277.844091 497.031367 
L 278.951457 496.959423 
L 279.883975 496.996124 
L 280.583364 497.251759 
L 281.282753 497.745661 
L 282.215271 498.707612 
L 284.13859 500.765335 
L 284.896261 501.231185 
L 285.537367 501.383998 
L 286.178474 501.316177 
L 286.877863 501.006336 
L 287.693816 500.369825 
L 288.917746 499.079731 
L 290.491371 497.481389 
L 291.249042 497.020959 
L 291.890148 496.891177 
L 292.472972 497.008449 
L 293.114079 497.391926 
L 293.930032 498.180388 
L 295.969916 500.285568 
L 296.55274 500.529635 
L 297.077281 500.499034 
L 297.601823 500.209356 
L 298.184647 499.591802 
L 298.884036 498.499261 
L 299.933119 496.399413 
L 301.798155 492.66058 
L 302.614109 491.534662 
L 303.255215 491.020881 
L 303.779757 490.868654 
L 304.304298 490.960613 
L 304.82884 491.285708 
L 305.469946 491.961862 
L 306.402464 493.331489 
L 308.442348 496.432667 
L 309.200019 497.12759 
L 309.841126 497.435289 
L 310.482232 497.508592 
L 311.356468 497.360646 
L 312.522116 497.175197 
L 313.10494 497.295619 
L 313.687764 497.659925 
L 314.270588 498.309795 
L 314.969976 499.472624 
L 315.844212 501.437018 
L 317.24299 505.264032 
L 318.525202 508.538294 
L 319.224591 509.756851 
L 319.69085 510.20819 
L 320.098827 510.317083 
L 320.448521 510.177443 
L 320.856498 509.729319 
L 321.322757 508.831913 
L 321.905581 507.145536 
L 322.60497 504.385775 
L 323.595771 499.46988 
L 325.752219 488.495097 
L 326.50989 485.791554 
L 327.150997 484.249837 
L 327.675538 483.5279 
L 328.083515 483.293885 
L 328.491492 483.329069 
L 328.899468 483.608528 
L 329.42401 484.275227 
L 330.123399 485.574718 
L 331.347329 488.4394 
L 332.920954 491.992488 
L 333.79519 493.435875 
L 334.494578 494.188543 
L 335.135685 494.550076 
L 335.776791 494.642664 
L 336.592744 494.504996 
L 338.108087 494.215951 
L 338.807475 494.340558 
L 339.506864 494.710783 
L 340.322818 495.423331 
L 342.770678 497.757383 
L 343.411785 497.992832 
L 343.994608 497.977821 
L 344.577432 497.737891 
L 345.218539 497.224083 
L 346.034492 496.241374 
L 347.316705 494.264533 
L 348.832047 491.999384 
L 349.589718 491.241999 
L 350.172542 490.937318 
L 350.697084 490.898063 
L 351.221625 491.085529 
L 351.862732 491.591009 
L 352.736968 492.612689 
L 354.485439 494.700353 
L 355.126546 495.123732 
L 355.651087 495.238417 
L 356.175629 495.127162 
L 356.70017 494.793233 
L 357.341277 494.103334 
L 358.15723 492.850073 
L 359.497725 490.275091 
L 360.896503 487.721607 
L 361.712456 486.682775 
L 362.353563 486.212395 
L 362.878104 486.083813 
L 363.402646 486.192401 
L 363.98547 486.577727 
L 364.684858 487.344641 
L 365.850506 489.042212 
L 367.016154 490.620743 
L 367.773825 491.286068 
L 368.473214 491.597214 
L 369.230885 491.668833 
L 371.095922 491.708556 
L 371.678746 492.032458 
L 372.261569 492.637021 
L 372.902676 493.661964 
L 373.660347 495.34185 
L 374.70943 498.287639 
L 376.691031 503.935021 
L 377.39042 505.245 
L 377.914962 505.787274 
L 378.322938 505.9008 
L 378.672633 505.764384 
L 379.08061 505.321813 
L 379.546869 504.43825 
L 380.129693 502.784762 
L 380.829081 500.08651 
L 381.819882 495.265822 
L 384.034613 484.15922 
L 384.850567 481.309877 
L 385.491673 479.834315 
L 386.016214 479.160578 
L 386.424191 478.962365 
L 386.773886 479.007824 
L 387.181862 479.292098 
L 387.706404 479.979055 
L 388.405793 481.343917 
L 389.396593 483.839009 
L 391.786171 490.017532 
L 392.660407 491.579891 
L 393.418078 492.490539 
L 394.17575 493.056431 
L 396.85674 494.706535 
L 397.789258 495.836645 
L 399.770859 498.383249 
L 400.411966 498.805506 
L 400.936507 498.902045 
L 401.461049 498.75326 
L 401.98559 498.360936 
L 402.626697 497.58355 
L 403.500933 496.112972 
L 405.249404 492.557433 
L 406.415052 490.46926 
L 407.172723 489.53528 
L 407.755547 489.154589 
L 408.221806 489.098377 
L 408.688066 489.278246 
L 409.212607 489.756787 
L 409.853713 490.692949 
L 410.844514 492.624665 
L 412.185009 495.181119 
L 412.884398 496.045101 
L 413.408939 496.359578 
L 413.875199 496.370898 
L 414.341458 496.135374 
L 414.865999 495.605321 
L 415.565388 494.5503 
L 416.672754 492.411568 
L 418.421225 489.083901 
L 419.295461 487.894147 
L 419.99485 487.293673 
L 420.635956 487.038956 
L 421.21878 487.047372 
L 421.859887 487.295761 
L 422.617558 487.853274 
L 423.666641 488.931782 
L 425.881372 491.278539 
L 426.930455 492.018246 
L 429.844575 493.803572 
L 430.602246 494.726828 
L 431.418199 496.108018 
L 432.350717 498.161253 
L 433.807777 502.009667 
L 435.148272 505.32888 
L 435.847661 506.529489 
L 436.372203 507.034898 
L 436.780179 507.148516 
L 437.129874 507.033496 
L 437.537851 506.638912 
L 438.00411 505.83565 
L 438.586934 504.314913 
L 439.286322 501.811561 
L 440.277123 497.318716 
L 442.491854 486.964224 
L 443.307808 484.27743 
L 443.948914 482.853472 
L 444.473455 482.167164 
L 444.939715 481.914446 
L 445.347691 481.955859 
L 445.755668 482.22533 
L 446.28021 482.872586 
L 446.921316 484.044767 
L 447.853834 486.275088 
L 450.534824 493.041236 
L 451.292495 494.268148 
L 451.933602 494.934565 
L 452.574708 495.296606 
L 453.274097 495.436466 
L 455.605393 495.677772 
L 456.363064 496.140133 
L 457.353864 497.055767 
L 458.810924 498.40137 
L 459.510313 498.74377 
L 460.093137 498.771899 
L 460.617678 498.577237 
L 461.200502 498.122286 
L 461.899891 497.283289 
L 462.890692 495.708449 
L 465.105423 492.089785 
L 465.804812 491.38236 
L 466.387635 491.093803 
L 466.853895 491.091188 
L 467.320154 491.297994 
L 467.902978 491.833618 
L 468.660649 492.888953 
L 470.700533 495.93565 
L 471.283357 496.342769 
L 471.749616 496.408672 
L 472.215875 496.228136 
L 472.740416 495.744714 
L 473.381523 494.807622 
L 474.314041 492.975121 
L 477.228161 486.887171 
L 478.044114 485.791351 
L 478.685221 485.270066 
L 479.209762 485.102481 
L 479.676021 485.165723 
L 480.200563 485.479789 
L 480.783387 486.110984 
L 481.541058 487.290873 
L 484.222048 491.840966 
L 484.863154 492.375261 
L 485.504261 492.62878 
L 486.203649 492.662992 
L 488.185251 492.605244 
L 488.768075 492.891703 
L 489.409181 493.480794 
L 490.10857 494.451621 
L 491.041088 496.182889 
L 493.838643 501.711721 
L 494.421467 502.272263 
L 494.887726 502.417946 
L 495.295703 502.292564 
L 495.70368 501.914421 
L 496.169939 501.161596 
L 496.752763 499.7434 
L 497.452151 497.403317 
L 498.442952 493.175362 
L 500.774248 482.885558 
L 501.531919 480.661657 
L 502.114743 479.576247 
L 502.581002 479.120549 
L 502.988979 479.015175 
L 503.396956 479.168045 
L 503.863215 479.628548 
L 504.446039 480.569338 
L 505.261992 482.378417 
L 508.176112 489.288385 
L 508.992065 490.489081 
L 509.691454 491.151878 
L 510.390843 491.518105 
L 511.206796 491.687409 
L 513.538092 492.017948 
L 514.354046 492.470426 
L 515.344846 493.302499 
L 516.976753 494.690907 
L 517.676142 494.980455 
L 518.258966 494.977295 
L 518.84179 494.725143 
L 519.424614 494.221178 
L 520.182285 493.232635 
L 521.347933 491.252845 
L 522.74671 488.966221 
L 523.504381 488.10391 
L 524.145488 487.690147 
L 524.670029 487.587754 
L 525.194571 487.70273 
L 525.777395 488.072729 
L 526.476783 488.810419 
L 527.525867 490.295754 
L 529.041209 492.414219 
L 529.740598 493.047436 
L 530.323421 493.291374 
L 530.847963 493.260516 
L 531.372505 492.995771 
L 532.013611 492.38842 
L 532.829564 491.274803 
L 535.627119 487.161891 
L 536.38479 486.568406 
L 537.084179 486.305012 
L 537.725285 486.288309 
L 538.424674 486.491535 
L 539.240628 486.970192 
L 540.464558 487.982411 
L 541.863335 489.067798 
L 542.679289 489.429671 
L 543.553525 489.573171 
L 545.360279 489.763045 
L 545.943103 490.091197 
L 546.525927 490.672101 
L 547.167033 491.639052 
L 547.982987 493.33488 
L 549.206917 496.498244 
L 550.838824 500.626433 
L 551.654778 502.120545 
L 552.237602 502.784768 
L 552.703861 503.01807 
L 553.111837 502.978586 
L 553.519814 502.693425 
L 553.986073 502.049885 
L 554.510615 500.906005 
L 555.151721 498.911819 
L 555.967675 495.526105 
L 557.133323 489.555829 
L 558.706947 481.653453 
L 559.522901 478.681678 
L 560.105725 477.277684 
L 560.571984 476.632594 
L 560.979961 476.419316 
L 561.329655 476.488836 
L 561.737632 476.845239 
L 562.203891 477.577444 
L 562.844997 479.044625 
L 563.89408 482.127289 
L 565.525987 486.871251 
L 566.341941 488.581854 
L 566.983047 489.464566 
L 567.565871 489.905983 
L 568.090413 490.039135 
L 568.673237 489.956954 
L 569.605755 489.548355 
L 570.71312 489.12008 
L 571.354227 489.111068 
L 571.937051 489.324654 
L 572.578157 489.811697 
L 573.39411 490.745238 
L 575.492277 493.307191 
L 576.191665 493.759285 
L 576.774489 493.88366 
L 577.357313 493.763439 
L 577.940137 493.405984 
L 578.639526 492.691516 
L 579.513762 491.441551 
L 582.369599 487.045515 
L 582.952423 486.648722 
L 583.418682 486.564766 
L 583.884941 486.701857 
L 584.409483 487.112686 
L 585.050589 487.922919 
L 586.449367 490.191126 
L 587.323603 491.348693 
L 587.906427 491.789909 
L 588.372686 491.902817 
L 588.838945 491.791785 
L 589.363486 491.41702 
L 590.004593 490.660838 
L 590.937111 489.170288 
L 593.210124 485.387082 
L 593.967796 484.569188 
L 594.608902 484.189464 
L 595.133443 484.111554 
L 595.657985 484.242952 
L 596.240809 484.620687 
L 596.940198 485.351921 
L 597.989281 486.817099 
L 599.504623 488.887105 
L 600.204012 489.476342 
L 600.786836 489.706553 
L 601.36966 489.71205 
L 602.069048 489.486435 
L 604.167214 488.632317 
L 604.750038 488.727794 
L 605.27458 489.03681 
L 605.857404 489.645085 
L 606.556793 490.726382 
L 607.489311 492.639902 
L 610.228583 498.595633 
L 610.811407 499.25881 
L 611.277666 499.479401 
L 611.685643 499.411658 
L 612.09362 499.081828 
L 612.559879 498.373299 
L 613.084421 497.155409 
L 613.783809 494.902496 
L 614.716328 491.038085 
L 616.931059 481.531888 
L 617.68873 479.397279 
L 618.271554 478.341513 
L 618.737813 477.872535 
L 619.14579 477.723209 
L 619.553766 477.800695 
L 620.020026 478.142393 
L 620.602849 478.896319 
L 621.360521 480.288534 
L 622.759298 483.44843 
L 624.158076 486.396397 
L 624.974029 487.653023 
L 625.673418 488.358297 
L 626.314524 488.705755 
L 627.013913 488.824614 
L 628.237843 488.739881 
L 629.170361 488.781877 
L 629.86975 489.024068 
L 630.569139 489.494784 
L 631.443375 490.386343 
L 633.832953 493.050062 
L 634.532342 493.4294 
L 635.115166 493.5129 
L 635.697989 493.376955 
L 636.339096 492.988585 
L 637.096767 492.254637 
L 638.320697 490.695531 
L 639.836039 488.83133 
L 640.651993 488.172405 
L 641.293099 487.926881 
L 641.875923 487.950827 
L 642.458747 488.220911 
L 643.099853 488.784579 
L 643.974089 489.88047 
L 645.780844 492.217473 
L 646.42195 492.656385 
L 646.888209 492.741128 
L 647.354468 492.605404 
L 647.87901 492.188815 
L 648.461834 491.421525 
L 649.277787 489.92286 
L 651.084541 485.900694 
L 652.075342 484.059111 
L 652.774731 483.183464 
L 653.357555 482.793257 
L 653.823814 482.722016 
L 654.290073 482.869687 
L 654.814615 483.288273 
L 655.455721 484.124447 
L 656.388239 485.784818 
L 658.136711 488.979476 
L 658.8361 489.777788 
L 659.418924 490.120744 
L 659.943465 490.188042 
L 660.584572 490.023077 
L 662.799303 489.177423 
L 663.323844 489.353234 
L 663.848386 489.773424 
L 664.489492 490.613262 
L 665.305446 492.105573 
L 666.995635 495.83264 
L 668.103 497.987698 
L 668.802389 498.92675 
L 669.326931 499.307176 
L 669.734907 499.365533 
L 670.142884 499.185603 
L 670.550861 498.743537 
L 671.01712 497.892954 
L 671.599944 496.29587 
L 672.299333 493.642082 
L 673.231851 489.129605 
L 673.581545 487.274493 
L 673.581545 487.274493 
" clip-path="url(#peff96040b7)" style="fill: none; stroke: #0000ff; stroke-width: 1.5; stroke-linecap: square"/>
   </g>
   <g id="patch_3">
    <path d="M 61.8 640.3905 
L 61.8 39.1875 
" style="fill: none; stroke: #000000; stroke-width: 0.8; stroke-linejoin: miter; stroke-linecap: square"/>
   </g>
   <g id="patch_4">
    <path d="M 702.714 640.3905 
L 702.714 39.1875 
" style="fill: none; stroke: #000000; stroke-width: 0.8; stroke-linejoin: miter; stroke-linecap: square"/>
   </g>
   <g id="patch_5">
    <path d="M 61.8 640.3905 
L 702.714 640.3905 
" style="fill: none; stroke: #000000; stroke-width: 0.8; stroke-linejoin: miter; stroke-linecap: square"/>
   </g>
   <g id="patch_6">
    <path d="M 61.8 39.1875 
L 702.714 39.1875 
" style="fill: none; stroke: #000000; stroke-width: 0.8; stroke-linejoin: miter; stroke-linecap: square"/>
   </g>
   <g id="legend_1">
    <g id="patch_7">
     <path d="M 505.703062 149.11875 
L 681.714 149.11875 
Q 687.714 149.11875 687.714 143.11875 
L 687.714 60.1875 
Q 687.714 54.1875 681.714 54.1875 
L 505.703062 54.1875 
Q 499.703062 54.1875 499.703062 60.1875 
L 499.703062 143.11875 
Q 499.703062 149.11875 505.703062 149.11875 
z
" style="fill: #ffffff; opacity: 0.8; stroke: #cccccc; stroke-linejoin: miter"/>
    </g>
    <g id="line2d_51">
     <path d="M 511.703062 77.428125 
L 541.703062 77.428125 
L 571.703062 77.428125 
" style="fill: none; stroke: #ff0000; stroke-width: 1.5; stroke-linecap: square"/>
    </g>
    <g id="text_16">
     <!-- MD -->
     <g transform="translate(595.703062 87.928125) scale(0.3 -0.3)">
      <defs>
       <path id="LiberationSans-4d" d="M 4269 0 
L 4269 2938 
Q 4269 3425 4297 3875 
Q 4144 3316 4022 3000 
L 2884 0 
L 2466 0 
L 1313 3000 
L 1138 3531 
L 1034 3875 
L 1044 3528 
L 1056 2938 
L 1056 0 
L 525 0 
L 525 4403 
L 1309 4403 
L 2481 1350 
Q 2544 1166 2601 955 
Q 2659 744 2678 650 
Q 2703 775 2783 1029 
Q 2863 1284 2891 1350 
L 4041 4403 
L 4806 4403 
L 4806 0 
L 4269 0 
z
" transform="scale(0.015625)"/>
       <path id="LiberationSans-44" d="M 4316 2247 
Q 4316 1566 4050 1055 
Q 3784 544 3296 272 
Q 2809 0 2172 0 
L 525 0 
L 525 4403 
L 1981 4403 
Q 3100 4403 3708 3842 
Q 4316 3281 4316 2247 
z
M 3716 2247 
Q 3716 3066 3267 3495 
Q 2819 3925 1969 3925 
L 1122 3925 
L 1122 478 
L 2103 478 
Q 2588 478 2955 690 
Q 3322 903 3519 1303 
Q 3716 1703 3716 2247 
z
" transform="scale(0.015625)"/>
      </defs>
      <use xlink:href="#LiberationSans-4d"/>
      <use xlink:href="#LiberationSans-44" x="83.300781"/>
     </g>
    </g>
    <g id="line2d_52">
     <path d="M 511.703062 120.39375 
L 541.703062 120.39375 
L 571.703062 120.39375 
" style="fill: none; stroke: #0000ff; stroke-width: 1.5; stroke-linecap: square"/>
    </g>
    <g id="text_17">
     <!-- GANs -->
     <g transform="translate(595.703062 130.89375) scale(0.3 -0.3)">
      <defs>
       <path id="LiberationSans-47" d="M 322 2222 
Q 322 3294 897 3881 
Q 1472 4469 2513 4469 
Q 3244 4469 3700 4222 
Q 4156 3975 4403 3431 
L 3834 3263 
Q 3647 3638 3317 3809 
Q 2988 3981 2497 3981 
Q 1734 3981 1331 3520 
Q 928 3059 928 2222 
Q 928 1388 1356 905 
Q 1784 422 2541 422 
Q 2972 422 3345 553 
Q 3719 684 3950 909 
L 3950 1703 
L 2634 1703 
L 2634 2203 
L 4500 2203 
L 4500 684 
Q 4150 328 3642 132 
Q 3134 -63 2541 -63 
Q 1850 -63 1350 212 
Q 850 488 586 1005 
Q 322 1522 322 2222 
z
" transform="scale(0.015625)"/>
       <path id="LiberationSans-41" d="M 3647 0 
L 3144 1288 
L 1138 1288 
L 631 0 
L 13 0 
L 1809 4403 
L 2488 4403 
L 4256 0 
L 3647 0 
z
M 2141 3953 
L 2113 3866 
Q 2034 3606 1881 3200 
L 1319 1753 
L 2966 1753 
L 2400 3206 
Q 2313 3422 2225 3694 
L 2141 3953 
z
" transform="scale(0.015625)"/>
       <path id="LiberationSans-4e" d="M 3381 0 
L 1025 3750 
L 1041 3447 
L 1056 2925 
L 1056 0 
L 525 0 
L 525 4403 
L 1219 4403 
L 3600 628 
Q 3563 1241 3563 1516 
L 3563 4403 
L 4100 4403 
L 4100 0 
L 3381 0 
z
" transform="scale(0.015625)"/>
      </defs>
      <use xlink:href="#LiberationSans-47"/>
      <use xlink:href="#LiberationSans-41" x="77.783203"/>
      <use xlink:href="#LiberationSans-4e" x="144.482422"/>
      <use xlink:href="#LiberationSans-73" x="216.699219"/>
     </g>
    </g>
   </g>
  </g>
 </g>
 <defs>
  <clipPath id="peff96040b7">
   <rect x="61.8" y="39.1875" width="640.914" height="601.203"/>
  </clipPath>
 </defs>
</svg>
