<?xml version="1.0" encoding="utf-8" standalone="no"?>
<!DOCTYPE svg PUBLIC "-//W3C//DTD SVG 1.1//EN"
  "http://www.w3.org/Graphics/SVG/1.1/DTD/svg11.dtd">
<svg xmlns:xlink="http://www.w3.org/1999/xlink" width="711.425625pt" height="711.105187pt" viewBox="0 0 711.425625 711.105187" xmlns="http://www.w3.org/2000/svg" version="1.1">
 <metadata>
  <rdf:RDF xmlns:dc="http://purl.org/dc/elements/1.1/" xmlns:cc="http://creativecommons.org/ns#" xmlns:rdf="http://www.w3.org/1999/02/22-rdf-syntax-ns#">
   <cc:Work>
    <dc:type rdf:resource="http://purl.org/dc/dcmitype/StillImage"/>
    <dc:date>2025-02-06T00:49:13.435083</dc:date>
    <dc:format>image/svg+xml</dc:format>
    <dc:creator>
     <cc:Agent>
      <dc:title>Matplotlib v3.9.3, https://matplotlib.org/</dc:title>
     </cc:Agent>
    </dc:creator>
   </cc:Work>
  </rdf:RDF>
 </metadata>
 <defs>
  <style type="text/css">*{stroke-linejoin: round; stroke-linecap: butt}</style>
 </defs>
 <g id="figure_1">
  <g id="patch_1">
   <path d="M 0 711.105187 
L 711.425625 711.105187 
L 711.425625 0 
L 0 0 
z
" style="fill: #ffffff"/>
  </g>
  <g id="axes_1">
   <g id="patch_2">
    <path d="M 57.785625 643.2705 
L 704.225625 643.2705 
L 704.225625 39.1875 
L 57.785625 39.1875 
z
" style="fill: #ffffff"/>
   </g>
   <g id="matplotlib.axis_1">
    <g id="xtick_1">
     <g id="line2d_1">
      <defs>
       <path id="ma632c88451" d="M 0 0 
L 0 -3.5 
" style="stroke: #000000; stroke-width: 0.8"/>
      </defs>
      <g>
       <use xlink:href="#ma632c88451" x="87.110482" y="643.2705" style="stroke: #000000; stroke-width: 0.8"/>
      </g>
     </g>
     <g id="text_1">
      <!-- 0 -->
      <g transform="translate(79.603217 666.337062) scale(0.27 -0.27)">
       <defs>
        <path id="LiberationSans-30" d="M 3309 2203 
Q 3309 1100 2920 518 
Q 2531 -63 1772 -63 
Q 1013 -63 631 515 
Q 250 1094 250 2203 
Q 250 3338 620 3903 
Q 991 4469 1791 4469 
Q 2569 4469 2939 3897 
Q 3309 3325 3309 2203 
z
M 2738 2203 
Q 2738 3156 2517 3584 
Q 2297 4013 1791 4013 
Q 1272 4013 1045 3591 
Q 819 3169 819 2203 
Q 819 1266 1048 831 
Q 1278 397 1778 397 
Q 2275 397 2506 840 
Q 2738 1284 2738 2203 
z
" transform="scale(0.015625)"/>
       </defs>
       <use xlink:href="#LiberationSans-30"/>
      </g>
     </g>
    </g>
    <g id="xtick_2">
     <g id="line2d_2">
      <g>
       <use xlink:href="#ma632c88451" x="204.668539" y="643.2705" style="stroke: #000000; stroke-width: 0.8"/>
      </g>
     </g>
     <g id="text_2">
      <!-- 2 -->
      <g transform="translate(197.161274 666.337062) scale(0.27 -0.27)">
       <defs>
        <path id="LiberationSans-32" d="M 322 0 
L 322 397 
Q 481 763 711 1042 
Q 941 1322 1194 1548 
Q 1447 1775 1695 1969 
Q 1944 2163 2144 2356 
Q 2344 2550 2467 2762 
Q 2591 2975 2591 3244 
Q 2591 3606 2378 3806 
Q 2166 4006 1788 4006 
Q 1428 4006 1195 3811 
Q 963 3616 922 3263 
L 347 3316 
Q 409 3844 795 4156 
Q 1181 4469 1788 4469 
Q 2453 4469 2811 4155 
Q 3169 3841 3169 3263 
Q 3169 3006 3051 2753 
Q 2934 2500 2703 2247 
Q 2472 1994 1819 1463 
Q 1459 1169 1246 933 
Q 1034 697 941 478 
L 3238 478 
L 3238 0 
L 322 0 
z
" transform="scale(0.015625)"/>
       </defs>
       <use xlink:href="#LiberationSans-32"/>
      </g>
     </g>
    </g>
    <g id="xtick_3">
     <g id="line2d_3">
      <g>
       <use xlink:href="#ma632c88451" x="322.226596" y="643.2705" style="stroke: #000000; stroke-width: 0.8"/>
      </g>
     </g>
     <g id="text_3">
      <!-- 4 -->
      <g transform="translate(314.719331 666.337062) scale(0.27 -0.27)">
       <defs>
        <path id="LiberationSans-34" d="M 2753 997 
L 2753 0 
L 2222 0 
L 2222 997 
L 147 997 
L 147 1434 
L 2163 4403 
L 2753 4403 
L 2753 1441 
L 3372 1441 
L 3372 997 
L 2753 997 
z
M 2222 3769 
Q 2216 3750 2134 3603 
Q 2053 3456 2013 3397 
L 884 1734 
L 716 1503 
L 666 1441 
L 2222 1441 
L 2222 3769 
z
" transform="scale(0.015625)"/>
       </defs>
       <use xlink:href="#LiberationSans-34"/>
      </g>
     </g>
    </g>
    <g id="xtick_4">
     <g id="line2d_4">
      <g>
       <use xlink:href="#ma632c88451" x="439.784654" y="643.2705" style="stroke: #000000; stroke-width: 0.8"/>
      </g>
     </g>
     <g id="text_4">
      <!-- 6 -->
      <g transform="translate(432.277388 666.337062) scale(0.27 -0.27)">
       <defs>
        <path id="LiberationSans-36" d="M 3278 1441 
Q 3278 744 2900 340 
Q 2522 -63 1856 -63 
Q 1113 -63 719 490 
Q 325 1044 325 2100 
Q 325 3244 734 3856 
Q 1144 4469 1900 4469 
Q 2897 4469 3156 3572 
L 2619 3475 
Q 2453 4013 1894 4013 
Q 1413 4013 1148 3564 
Q 884 3116 884 2266 
Q 1038 2550 1316 2698 
Q 1594 2847 1953 2847 
Q 2563 2847 2920 2465 
Q 3278 2084 3278 1441 
z
M 2706 1416 
Q 2706 1894 2472 2153 
Q 2238 2413 1819 2413 
Q 1425 2413 1183 2183 
Q 941 1953 941 1550 
Q 941 1041 1192 716 
Q 1444 391 1838 391 
Q 2244 391 2475 664 
Q 2706 938 2706 1416 
z
" transform="scale(0.015625)"/>
       </defs>
       <use xlink:href="#LiberationSans-36"/>
      </g>
     </g>
    </g>
    <g id="xtick_5">
     <g id="line2d_5">
      <g>
       <use xlink:href="#ma632c88451" x="557.342711" y="643.2705" style="stroke: #000000; stroke-width: 0.8"/>
      </g>
     </g>
     <g id="text_5">
      <!-- 8 -->
      <g transform="translate(549.835445 666.337062) scale(0.27 -0.27)">
       <defs>
        <path id="LiberationSans-38" d="M 3281 1228 
Q 3281 619 2893 278 
Q 2506 -63 1781 -63 
Q 1075 -63 676 271 
Q 278 606 278 1222 
Q 278 1653 525 1947 
Q 772 2241 1156 2303 
L 1156 2316 
Q 797 2400 589 2681 
Q 381 2963 381 3341 
Q 381 3844 757 4156 
Q 1134 4469 1769 4469 
Q 2419 4469 2795 4162 
Q 3172 3856 3172 3334 
Q 3172 2956 2962 2675 
Q 2753 2394 2391 2322 
L 2391 2309 
Q 2813 2241 3047 1952 
Q 3281 1663 3281 1228 
z
M 2588 3303 
Q 2588 4050 1769 4050 
Q 1372 4050 1164 3862 
Q 956 3675 956 3303 
Q 956 2925 1170 2726 
Q 1384 2528 1775 2528 
Q 2172 2528 2380 2711 
Q 2588 2894 2588 3303 
z
M 2697 1281 
Q 2697 1691 2453 1898 
Q 2209 2106 1769 2106 
Q 1341 2106 1100 1882 
Q 859 1659 859 1269 
Q 859 359 1788 359 
Q 2247 359 2472 579 
Q 2697 800 2697 1281 
z
" transform="scale(0.015625)"/>
       </defs>
       <use xlink:href="#LiberationSans-38"/>
      </g>
     </g>
    </g>
    <g id="xtick_6">
     <g id="line2d_6">
      <g>
       <use xlink:href="#ma632c88451" x="674.900768" y="643.2705" style="stroke: #000000; stroke-width: 0.8"/>
      </g>
     </g>
     <g id="text_6">
      <!-- 10 -->
      <g transform="translate(659.886236 666.337062) scale(0.27 -0.27)">
       <defs>
        <path id="LiberationSans-31" d="M 488 0 
L 488 478 
L 1609 478 
L 1609 3866 
L 616 3156 
L 616 3688 
L 1656 4403 
L 2175 4403 
L 2175 478 
L 3247 478 
L 3247 0 
L 488 0 
z
" transform="scale(0.015625)"/>
       </defs>
       <use xlink:href="#LiberationSans-31"/>
       <use xlink:href="#LiberationSans-30" x="55.615234"/>
      </g>
     </g>
    </g>
    <g id="xtick_7">
     <g id="line2d_7">
      <defs>
       <path id="mf32335ca09" d="M 0 0 
L 0 -2 
" style="stroke: #000000; stroke-width: 0.6"/>
      </defs>
      <g>
       <use xlink:href="#mf32335ca09" x="116.499997" y="643.2705" style="stroke: #000000; stroke-width: 0.6"/>
      </g>
     </g>
    </g>
    <g id="xtick_8">
     <g id="line2d_8">
      <g>
       <use xlink:href="#mf32335ca09" x="145.889511" y="643.2705" style="stroke: #000000; stroke-width: 0.6"/>
      </g>
     </g>
    </g>
    <g id="xtick_9">
     <g id="line2d_9">
      <g>
       <use xlink:href="#mf32335ca09" x="175.279025" y="643.2705" style="stroke: #000000; stroke-width: 0.6"/>
      </g>
     </g>
    </g>
    <g id="xtick_10">
     <g id="line2d_10">
      <g>
       <use xlink:href="#mf32335ca09" x="234.058054" y="643.2705" style="stroke: #000000; stroke-width: 0.6"/>
      </g>
     </g>
    </g>
    <g id="xtick_11">
     <g id="line2d_11">
      <g>
       <use xlink:href="#mf32335ca09" x="263.447568" y="643.2705" style="stroke: #000000; stroke-width: 0.6"/>
      </g>
     </g>
    </g>
    <g id="xtick_12">
     <g id="line2d_12">
      <g>
       <use xlink:href="#mf32335ca09" x="292.837082" y="643.2705" style="stroke: #000000; stroke-width: 0.6"/>
      </g>
     </g>
    </g>
    <g id="xtick_13">
     <g id="line2d_13">
      <g>
       <use xlink:href="#mf32335ca09" x="351.616111" y="643.2705" style="stroke: #000000; stroke-width: 0.6"/>
      </g>
     </g>
    </g>
    <g id="xtick_14">
     <g id="line2d_14">
      <g>
       <use xlink:href="#mf32335ca09" x="381.005625" y="643.2705" style="stroke: #000000; stroke-width: 0.6"/>
      </g>
     </g>
    </g>
    <g id="xtick_15">
     <g id="line2d_15">
      <g>
       <use xlink:href="#mf32335ca09" x="410.395139" y="643.2705" style="stroke: #000000; stroke-width: 0.6"/>
      </g>
     </g>
    </g>
    <g id="xtick_16">
     <g id="line2d_16">
      <g>
       <use xlink:href="#mf32335ca09" x="469.174168" y="643.2705" style="stroke: #000000; stroke-width: 0.6"/>
      </g>
     </g>
    </g>
    <g id="xtick_17">
     <g id="line2d_17">
      <g>
       <use xlink:href="#mf32335ca09" x="498.563682" y="643.2705" style="stroke: #000000; stroke-width: 0.6"/>
      </g>
     </g>
    </g>
    <g id="xtick_18">
     <g id="line2d_18">
      <g>
       <use xlink:href="#mf32335ca09" x="527.953196" y="643.2705" style="stroke: #000000; stroke-width: 0.6"/>
      </g>
     </g>
    </g>
    <g id="xtick_19">
     <g id="line2d_19">
      <g>
       <use xlink:href="#mf32335ca09" x="586.732225" y="643.2705" style="stroke: #000000; stroke-width: 0.6"/>
      </g>
     </g>
    </g>
    <g id="xtick_20">
     <g id="line2d_20">
      <g>
       <use xlink:href="#mf32335ca09" x="616.121739" y="643.2705" style="stroke: #000000; stroke-width: 0.6"/>
      </g>
     </g>
    </g>
    <g id="xtick_21">
     <g id="line2d_21">
      <g>
       <use xlink:href="#mf32335ca09" x="645.511253" y="643.2705" style="stroke: #000000; stroke-width: 0.6"/>
      </g>
     </g>
    </g>
    <g id="text_7">
     <!-- Time ps -->
     <g transform="translate(328.229062 697.680187) scale(0.3 -0.3)">
      <defs>
       <path id="LiberationSans-54" d="M 2250 3916 
L 2250 0 
L 1656 0 
L 1656 3916 
L 144 3916 
L 144 4403 
L 3763 4403 
L 3763 3916 
L 2250 3916 
z
" transform="scale(0.015625)"/>
       <path id="LiberationSans-69" d="M 428 4100 
L 428 4638 
L 991 4638 
L 991 4100 
L 428 4100 
z
M 428 0 
L 428 3381 
L 991 3381 
L 991 0 
L 428 0 
z
" transform="scale(0.015625)"/>
       <path id="LiberationSans-6d" d="M 2400 0 
L 2400 2144 
Q 2400 2634 2265 2821 
Q 2131 3009 1781 3009 
Q 1422 3009 1212 2734 
Q 1003 2459 1003 1959 
L 1003 0 
L 444 0 
L 444 2659 
Q 444 3250 425 3381 
L 956 3381 
Q 959 3366 962 3297 
Q 966 3228 970 3139 
Q 975 3050 981 2803 
L 991 2803 
Q 1172 3163 1406 3303 
Q 1641 3444 1978 3444 
Q 2363 3444 2586 3291 
Q 2809 3138 2897 2803 
L 2906 2803 
Q 3081 3144 3329 3294 
Q 3578 3444 3931 3444 
Q 4444 3444 4676 3166 
Q 4909 2888 4909 2253 
L 4909 0 
L 4353 0 
L 4353 2144 
Q 4353 2634 4218 2821 
Q 4084 3009 3734 3009 
Q 3366 3009 3161 2736 
Q 2956 2463 2956 1959 
L 2956 0 
L 2400 0 
z
" transform="scale(0.015625)"/>
       <path id="LiberationSans-65" d="M 863 1572 
Q 863 991 1103 675 
Q 1344 359 1806 359 
Q 2172 359 2392 506 
Q 2613 653 2691 878 
L 3184 738 
Q 2881 -63 1806 -63 
Q 1056 -63 664 384 
Q 272 831 272 1713 
Q 272 2550 664 2997 
Q 1056 3444 1784 3444 
Q 3275 3444 3275 1647 
L 3275 1572 
L 863 1572 
z
M 2694 2003 
Q 2647 2538 2422 2783 
Q 2197 3028 1775 3028 
Q 1366 3028 1127 2754 
Q 888 2481 869 2003 
L 2694 2003 
z
" transform="scale(0.015625)"/>
       <path id="LiberationSans-20" transform="scale(0.015625)"/>
       <path id="LiberationSans-70" d="M 3291 1706 
Q 3291 -63 2047 -63 
Q 1266 -63 997 525 
L 981 525 
Q 994 500 994 -6 
L 994 -1328 
L 431 -1328 
L 431 2691 
Q 431 3213 413 3381 
L 956 3381 
Q 959 3369 965 3292 
Q 972 3216 980 3056 
Q 988 2897 988 2838 
L 1000 2838 
Q 1150 3150 1397 3295 
Q 1644 3441 2047 3441 
Q 2672 3441 2981 3022 
Q 3291 2603 3291 1706 
z
M 2700 1694 
Q 2700 2400 2509 2703 
Q 2319 3006 1903 3006 
Q 1569 3006 1380 2865 
Q 1191 2725 1092 2426 
Q 994 2128 994 1650 
Q 994 984 1206 668 
Q 1419 353 1897 353 
Q 2316 353 2508 661 
Q 2700 969 2700 1694 
z
" transform="scale(0.015625)"/>
       <path id="LiberationSans-73" d="M 2969 934 
Q 2969 456 2608 196 
Q 2247 -63 1597 -63 
Q 966 -63 623 145 
Q 281 353 178 794 
L 675 891 
Q 747 619 972 492 
Q 1197 366 1597 366 
Q 2025 366 2223 497 
Q 2422 628 2422 891 
Q 2422 1091 2284 1216 
Q 2147 1341 1841 1422 
L 1438 1528 
Q 953 1653 748 1773 
Q 544 1894 428 2066 
Q 313 2238 313 2488 
Q 313 2950 642 3192 
Q 972 3434 1603 3434 
Q 2163 3434 2492 3237 
Q 2822 3041 2909 2606 
L 2403 2544 
Q 2356 2769 2151 2889 
Q 1947 3009 1603 3009 
Q 1222 3009 1040 2893 
Q 859 2778 859 2544 
Q 859 2400 934 2306 
Q 1009 2213 1156 2147 
Q 1303 2081 1775 1966 
Q 2222 1853 2419 1758 
Q 2616 1663 2730 1547 
Q 2844 1431 2906 1279 
Q 2969 1128 2969 934 
z
" transform="scale(0.015625)"/>
      </defs>
      <use xlink:href="#LiberationSans-54"/>
      <use xlink:href="#LiberationSans-69" x="57.333984"/>
      <use xlink:href="#LiberationSans-6d" x="79.550781"/>
      <use xlink:href="#LiberationSans-65" x="162.851562"/>
      <use xlink:href="#LiberationSans-20" x="218.466797"/>
      <use xlink:href="#LiberationSans-70" x="246.25"/>
      <use xlink:href="#LiberationSans-73" x="301.865234"/>
     </g>
    </g>
   </g>
   <g id="matplotlib.axis_2">
    <g id="ytick_1">
     <g id="line2d_22">
      <defs>
       <path id="maa2d0f597f" d="M 0 0 
L 3.5 0 
" style="stroke: #000000; stroke-width: 0.8"/>
      </defs>
      <g>
       <use xlink:href="#maa2d0f597f" x="57.785625" y="615.812182" style="stroke: #000000; stroke-width: 0.8"/>
      </g>
     </g>
     <g id="text_8">
      <!-- $\mathdefault{0}$ -->
      <g transform="translate(39.165625 625.595463) scale(0.27 -0.27)">
       <use xlink:href="#LiberationSans-30" transform="translate(0 0.171875)"/>
      </g>
     </g>
    </g>
    <g id="ytick_2">
     <g id="line2d_23">
      <g>
       <use xlink:href="#maa2d0f597f" x="57.785625" y="536.757846" style="stroke: #000000; stroke-width: 0.8"/>
      </g>
     </g>
     <g id="text_9">
      <!-- $\mathdefault{1}$ -->
      <g transform="translate(39.165625 546.541128) scale(0.27 -0.27)">
       <use xlink:href="#LiberationSans-31" transform="translate(0 0.203125)"/>
      </g>
     </g>
    </g>
    <g id="ytick_3">
     <g id="line2d_24">
      <g>
       <use xlink:href="#maa2d0f597f" x="57.785625" y="457.703511" style="stroke: #000000; stroke-width: 0.8"/>
      </g>
     </g>
     <g id="text_10">
      <!-- $\mathdefault{2}$ -->
      <g transform="translate(39.165625 467.486792) scale(0.27 -0.27)">
       <use xlink:href="#LiberationSans-32" transform="translate(0 0.171875)"/>
      </g>
     </g>
    </g>
    <g id="ytick_4">
     <g id="line2d_25">
      <g>
       <use xlink:href="#maa2d0f597f" x="57.785625" y="378.649175" style="stroke: #000000; stroke-width: 0.8"/>
      </g>
     </g>
     <g id="text_11">
      <!-- $\mathdefault{3}$ -->
      <g transform="translate(39.165625 388.432456) scale(0.27 -0.27)">
       <defs>
        <path id="LiberationSans-33" d="M 3278 1216 
Q 3278 606 2890 271 
Q 2503 -63 1784 -63 
Q 1116 -63 717 239 
Q 319 541 244 1131 
L 825 1184 
Q 938 403 1784 403 
Q 2209 403 2451 612 
Q 2694 822 2694 1234 
Q 2694 1594 2417 1795 
Q 2141 1997 1619 1997 
L 1300 1997 
L 1300 2484 
L 1606 2484 
Q 2069 2484 2323 2686 
Q 2578 2888 2578 3244 
Q 2578 3597 2370 3801 
Q 2163 4006 1753 4006 
Q 1381 4006 1151 3815 
Q 922 3625 884 3278 
L 319 3322 
Q 381 3863 767 4166 
Q 1153 4469 1759 4469 
Q 2422 4469 2789 4161 
Q 3156 3853 3156 3303 
Q 3156 2881 2920 2617 
Q 2684 2353 2234 2259 
L 2234 2247 
Q 2728 2194 3003 1916 
Q 3278 1638 3278 1216 
z
" transform="scale(0.015625)"/>
       </defs>
       <use xlink:href="#LiberationSans-33" transform="translate(0 0.171875)"/>
      </g>
     </g>
    </g>
    <g id="ytick_5">
     <g id="line2d_26">
      <g>
       <use xlink:href="#maa2d0f597f" x="57.785625" y="299.59484" style="stroke: #000000; stroke-width: 0.8"/>
      </g>
     </g>
     <g id="text_12">
      <!-- $\mathdefault{4}$ -->
      <g transform="translate(39.165625 309.378121) scale(0.27 -0.27)">
       <use xlink:href="#LiberationSans-34" transform="translate(0 0.203125)"/>
      </g>
     </g>
    </g>
    <g id="ytick_6">
     <g id="line2d_27">
      <g>
       <use xlink:href="#maa2d0f597f" x="57.785625" y="220.540504" style="stroke: #000000; stroke-width: 0.8"/>
      </g>
     </g>
     <g id="text_13">
      <!-- $\mathdefault{5}$ -->
      <g transform="translate(39.165625 230.323785) scale(0.27 -0.27)">
       <defs>
        <path id="LiberationSans-35" d="M 3291 1434 
Q 3291 738 2877 337 
Q 2463 -63 1728 -63 
Q 1113 -63 734 206 
Q 356 475 256 984 
L 825 1050 
Q 1003 397 1741 397 
Q 2194 397 2450 670 
Q 2706 944 2706 1422 
Q 2706 1838 2448 2094 
Q 2191 2350 1753 2350 
Q 1525 2350 1328 2278 
Q 1131 2206 934 2034 
L 384 2034 
L 531 4403 
L 3034 4403 
L 3034 3925 
L 1044 3925 
L 959 2528 
Q 1325 2809 1869 2809 
Q 2519 2809 2905 2428 
Q 3291 2047 3291 1434 
z
" transform="scale(0.015625)"/>
       </defs>
       <use xlink:href="#LiberationSans-35" transform="translate(0 0.203125)"/>
      </g>
     </g>
    </g>
    <g id="ytick_7">
     <g id="line2d_28">
      <g>
       <use xlink:href="#maa2d0f597f" x="57.785625" y="141.486169" style="stroke: #000000; stroke-width: 0.8"/>
      </g>
     </g>
     <g id="text_14">
      <!-- $\mathdefault{6}$ -->
      <g transform="translate(39.165625 151.26945) scale(0.27 -0.27)">
       <use xlink:href="#LiberationSans-36" transform="translate(0 0.171875)"/>
      </g>
     </g>
    </g>
    <g id="ytick_8">
     <g id="line2d_29">
      <g>
       <use xlink:href="#maa2d0f597f" x="57.785625" y="62.431833" style="stroke: #000000; stroke-width: 0.8"/>
      </g>
     </g>
     <g id="text_15">
      <!-- $\mathdefault{7}$ -->
      <g transform="translate(39.165625 72.215114) scale(0.27 -0.27)">
       <defs>
        <path id="LiberationSans-37" d="M 3238 3947 
Q 2563 2916 2284 2331 
Q 2006 1747 1867 1178 
Q 1728 609 1728 0 
L 1141 0 
Q 1141 844 1498 1776 
Q 1856 2709 2694 3925 
L 328 3925 
L 328 4403 
L 3238 4403 
L 3238 3947 
z
" transform="scale(0.015625)"/>
       </defs>
       <use xlink:href="#LiberationSans-37" transform="translate(0 0.203125)"/>
      </g>
     </g>
    </g>
    <g id="ytick_9">
     <g id="line2d_30">
      <defs>
       <path id="m8a3d6be1ad" d="M 0 0 
L 2 0 
" style="stroke: #000000; stroke-width: 0.6"/>
      </defs>
      <g>
       <use xlink:href="#m8a3d6be1ad" x="57.785625" y="631.623049" style="stroke: #000000; stroke-width: 0.6"/>
      </g>
     </g>
    </g>
    <g id="ytick_10">
     <g id="line2d_31">
      <g>
       <use xlink:href="#m8a3d6be1ad" x="57.785625" y="600.001315" style="stroke: #000000; stroke-width: 0.6"/>
      </g>
     </g>
    </g>
    <g id="ytick_11">
     <g id="line2d_32">
      <g>
       <use xlink:href="#m8a3d6be1ad" x="57.785625" y="584.190448" style="stroke: #000000; stroke-width: 0.6"/>
      </g>
     </g>
    </g>
    <g id="ytick_12">
     <g id="line2d_33">
      <g>
       <use xlink:href="#m8a3d6be1ad" x="57.785625" y="568.37958" style="stroke: #000000; stroke-width: 0.6"/>
      </g>
     </g>
    </g>
    <g id="ytick_13">
     <g id="line2d_34">
      <g>
       <use xlink:href="#m8a3d6be1ad" x="57.785625" y="552.568713" style="stroke: #000000; stroke-width: 0.6"/>
      </g>
     </g>
    </g>
    <g id="ytick_14">
     <g id="line2d_35">
      <g>
       <use xlink:href="#m8a3d6be1ad" x="57.785625" y="520.946979" style="stroke: #000000; stroke-width: 0.6"/>
      </g>
     </g>
    </g>
    <g id="ytick_15">
     <g id="line2d_36">
      <g>
       <use xlink:href="#m8a3d6be1ad" x="57.785625" y="505.136112" style="stroke: #000000; stroke-width: 0.6"/>
      </g>
     </g>
    </g>
    <g id="ytick_16">
     <g id="line2d_37">
      <g>
       <use xlink:href="#m8a3d6be1ad" x="57.785625" y="489.325245" style="stroke: #000000; stroke-width: 0.6"/>
      </g>
     </g>
    </g>
    <g id="ytick_17">
     <g id="line2d_38">
      <g>
       <use xlink:href="#m8a3d6be1ad" x="57.785625" y="473.514378" style="stroke: #000000; stroke-width: 0.6"/>
      </g>
     </g>
    </g>
    <g id="ytick_18">
     <g id="line2d_39">
      <g>
       <use xlink:href="#m8a3d6be1ad" x="57.785625" y="441.892644" style="stroke: #000000; stroke-width: 0.6"/>
      </g>
     </g>
    </g>
    <g id="ytick_19">
     <g id="line2d_40">
      <g>
       <use xlink:href="#m8a3d6be1ad" x="57.785625" y="426.081777" style="stroke: #000000; stroke-width: 0.6"/>
      </g>
     </g>
    </g>
    <g id="ytick_20">
     <g id="line2d_41">
      <g>
       <use xlink:href="#m8a3d6be1ad" x="57.785625" y="410.270909" style="stroke: #000000; stroke-width: 0.6"/>
      </g>
     </g>
    </g>
    <g id="ytick_21">
     <g id="line2d_42">
      <g>
       <use xlink:href="#m8a3d6be1ad" x="57.785625" y="394.460042" style="stroke: #000000; stroke-width: 0.6"/>
      </g>
     </g>
    </g>
    <g id="ytick_22">
     <g id="line2d_43">
      <g>
       <use xlink:href="#m8a3d6be1ad" x="57.785625" y="362.838308" style="stroke: #000000; stroke-width: 0.6"/>
      </g>
     </g>
    </g>
    <g id="ytick_23">
     <g id="line2d_44">
      <g>
       <use xlink:href="#m8a3d6be1ad" x="57.785625" y="347.027441" style="stroke: #000000; stroke-width: 0.6"/>
      </g>
     </g>
    </g>
    <g id="ytick_24">
     <g id="line2d_45">
      <g>
       <use xlink:href="#m8a3d6be1ad" x="57.785625" y="331.216574" style="stroke: #000000; stroke-width: 0.6"/>
      </g>
     </g>
    </g>
    <g id="ytick_25">
     <g id="line2d_46">
      <g>
       <use xlink:href="#m8a3d6be1ad" x="57.785625" y="315.405707" style="stroke: #000000; stroke-width: 0.6"/>
      </g>
     </g>
    </g>
    <g id="ytick_26">
     <g id="line2d_47">
      <g>
       <use xlink:href="#m8a3d6be1ad" x="57.785625" y="283.783973" style="stroke: #000000; stroke-width: 0.6"/>
      </g>
     </g>
    </g>
    <g id="ytick_27">
     <g id="line2d_48">
      <g>
       <use xlink:href="#m8a3d6be1ad" x="57.785625" y="267.973105" style="stroke: #000000; stroke-width: 0.6"/>
      </g>
     </g>
    </g>
    <g id="ytick_28">
     <g id="line2d_49">
      <g>
       <use xlink:href="#m8a3d6be1ad" x="57.785625" y="252.162238" style="stroke: #000000; stroke-width: 0.6"/>
      </g>
     </g>
    </g>
    <g id="ytick_29">
     <g id="line2d_50">
      <g>
       <use xlink:href="#m8a3d6be1ad" x="57.785625" y="236.351371" style="stroke: #000000; stroke-width: 0.6"/>
      </g>
     </g>
    </g>
    <g id="ytick_30">
     <g id="line2d_51">
      <g>
       <use xlink:href="#m8a3d6be1ad" x="57.785625" y="204.729637" style="stroke: #000000; stroke-width: 0.6"/>
      </g>
     </g>
    </g>
    <g id="ytick_31">
     <g id="line2d_52">
      <g>
       <use xlink:href="#m8a3d6be1ad" x="57.785625" y="188.91877" style="stroke: #000000; stroke-width: 0.6"/>
      </g>
     </g>
    </g>
    <g id="ytick_32">
     <g id="line2d_53">
      <g>
       <use xlink:href="#m8a3d6be1ad" x="57.785625" y="173.107903" style="stroke: #000000; stroke-width: 0.6"/>
      </g>
     </g>
    </g>
    <g id="ytick_33">
     <g id="line2d_54">
      <g>
       <use xlink:href="#m8a3d6be1ad" x="57.785625" y="157.297036" style="stroke: #000000; stroke-width: 0.6"/>
      </g>
     </g>
    </g>
    <g id="ytick_34">
     <g id="line2d_55">
      <g>
       <use xlink:href="#m8a3d6be1ad" x="57.785625" y="125.675301" style="stroke: #000000; stroke-width: 0.6"/>
      </g>
     </g>
    </g>
    <g id="ytick_35">
     <g id="line2d_56">
      <g>
       <use xlink:href="#m8a3d6be1ad" x="57.785625" y="109.864434" style="stroke: #000000; stroke-width: 0.6"/>
      </g>
     </g>
    </g>
    <g id="ytick_36">
     <g id="line2d_57">
      <g>
       <use xlink:href="#m8a3d6be1ad" x="57.785625" y="94.053567" style="stroke: #000000; stroke-width: 0.6"/>
      </g>
     </g>
    </g>
    <g id="ytick_37">
     <g id="line2d_58">
      <g>
       <use xlink:href="#m8a3d6be1ad" x="57.785625" y="78.2427" style="stroke: #000000; stroke-width: 0.6"/>
      </g>
     </g>
    </g>
    <g id="ytick_38">
     <g id="line2d_59">
      <g>
       <use xlink:href="#m8a3d6be1ad" x="57.785625" y="46.620966" style="stroke: #000000; stroke-width: 0.6"/>
      </g>
     </g>
    </g>
    <g id="text_16">
     <!-- ITR $\mathrm{K} \cdot \mathrm{m}^2 / \mathrm{W}$ -->
     <g transform="translate(28.940625 425.229) rotate(-90) scale(0.3 -0.3)">
      <defs>
       <path id="LiberationSans-49" d="M 591 0 
L 591 4403 
L 1188 4403 
L 1188 0 
L 591 0 
z
" transform="scale(0.015625)"/>
       <path id="LiberationSans-52" d="M 3638 0 
L 2494 1828 
L 1122 1828 
L 1122 0 
L 525 0 
L 525 4403 
L 2597 4403 
Q 3341 4403 3745 4070 
Q 4150 3738 4150 3144 
Q 4150 2653 3864 2318 
Q 3578 1984 3075 1897 
L 4325 0 
L 3638 0 
z
M 3550 3138 
Q 3550 3522 3289 3723 
Q 3028 3925 2538 3925 
L 1122 3925 
L 1122 2300 
L 2563 2300 
Q 3034 2300 3292 2520 
Q 3550 2741 3550 3138 
z
" transform="scale(0.015625)"/>
       <path id="STIXGeneral-Regular-4b" d="M 4627 0 
L 2688 0 
L 2688 122 
L 2861 128 
Q 3130 134 3130 282 
Q 3130 397 2922 643 
Q 2714 890 2253 1370 
L 1613 2029 
L 1446 1894 
L 1446 710 
Q 1446 352 1548 253 
Q 1651 154 2016 122 
L 2016 0 
L 211 0 
L 211 122 
Q 589 141 691 262 
Q 794 384 794 800 
L 794 3514 
Q 794 3872 691 3981 
Q 589 4090 218 4115 
L 218 4237 
L 2022 4237 
L 2022 4115 
Q 1632 4090 1539 3987 
Q 1446 3885 1446 3507 
L 1446 2227 
L 2586 3277 
Q 2861 3533 2973 3667 
Q 3085 3802 3085 3910 
Q 3085 4013 3030 4057 
Q 2976 4102 2822 4109 
L 2662 4115 
L 2662 4237 
L 4320 4237 
L 4320 4115 
Q 3994 4090 3824 4003 
Q 3654 3917 3322 3597 
L 2131 2458 
L 3629 819 
Q 4026 384 4214 253 
Q 4403 122 4627 122 
L 4627 0 
z
" transform="scale(0.015625)"/>
       <path id="STIXGeneral-Regular-22c5" d="M 1187 1888 
Q 1299 1773 1299 1619 
Q 1299 1466 1187 1350 
Q 1075 1235 921 1235 
Q 768 1235 649 1353 
Q 531 1472 531 1619 
Q 531 1766 649 1884 
Q 768 2003 921 2003 
Q 1075 2003 1187 1888 
z
" transform="scale(0.015625)"/>
       <path id="STIXGeneral-Regular-6d" d="M 4960 0 
L 3565 0 
L 3565 96 
Q 3834 122 3907 208 
Q 3981 294 3981 576 
L 3981 1894 
Q 3981 2278 3869 2444 
Q 3757 2611 3488 2611 
Q 3264 2611 3107 2521 
Q 2950 2432 2803 2221 
L 2803 608 
Q 2803 301 2896 201 
Q 2989 102 3264 96 
L 3264 0 
L 1830 0 
L 1830 96 
Q 2112 115 2189 188 
Q 2266 262 2266 550 
L 2266 1901 
Q 2266 2611 1850 2611 
Q 1670 2611 1468 2531 
Q 1267 2451 1171 2336 
Q 1088 2240 1088 2227 
L 1088 448 
Q 1088 243 1177 176 
Q 1267 109 1523 96 
L 1523 0 
L 102 0 
L 102 96 
Q 371 102 460 195 
Q 550 288 550 563 
L 550 2150 
Q 550 2387 499 2480 
Q 448 2573 326 2573 
Q 230 2573 122 2547 
L 122 2656 
Q 557 2778 1011 2944 
L 1062 2925 
L 1062 2451 
L 1075 2451 
Q 1363 2752 1584 2848 
Q 1805 2944 2054 2944 
Q 2560 2944 2733 2406 
Q 3232 2944 3776 2944 
Q 4518 2944 4518 1792 
L 4518 493 
Q 4518 282 4582 202 
Q 4646 122 4794 109 
L 4960 96 
L 4960 0 
z
" transform="scale(0.015625)"/>
       <path id="STIXGeneral-Regular-32" d="M 3034 877 
L 2688 0 
L 186 0 
L 186 77 
L 1325 1286 
Q 1773 1754 1965 2144 
Q 2157 2534 2157 2950 
Q 2157 3379 1920 3616 
Q 1683 3853 1267 3853 
Q 922 3853 720 3673 
Q 518 3494 326 3021 
L 192 3053 
Q 301 3648 630 3987 
Q 960 4326 1523 4326 
Q 2054 4326 2380 4006 
Q 2707 3686 2707 3200 
Q 2707 2477 1888 1613 
L 832 486 
L 2330 486 
Q 2541 486 2665 569 
Q 2790 653 2944 915 
L 3034 877 
z
" transform="scale(0.015625)"/>
       <path id="STIXGeneral-Regular-2f" d="M 1837 4326 
L 378 -90 
L -58 -90 
L 1408 4326 
L 1837 4326 
z
" transform="scale(0.015625)"/>
       <path id="STIXGeneral-Regular-57" d="M 5965 4237 
L 5965 4115 
Q 5709 4064 5616 3990 
Q 5523 3917 5434 3667 
Q 4704 1709 4128 -70 
L 4032 -70 
Q 3642 1011 3008 2637 
L 2022 -70 
L 1926 -70 
Q 1709 576 1277 1753 
Q 845 2931 698 3347 
Q 538 3808 406 3958 
Q 275 4109 32 4115 
L 32 4237 
L 1594 4237 
L 1594 4115 
Q 1357 4109 1270 4064 
Q 1184 4019 1184 3917 
Q 1184 3808 1254 3616 
L 2176 1210 
L 2842 3021 
L 2662 3501 
Q 2509 3917 2400 4013 
Q 2291 4109 2010 4115 
L 2010 4237 
L 3706 4237 
L 3706 4115 
Q 3213 4102 3213 3891 
Q 3213 3808 3322 3520 
L 4237 1190 
L 5043 3360 
Q 5152 3667 5152 3853 
Q 5152 4109 4704 4115 
L 4704 4237 
L 5965 4237 
z
" transform="scale(0.015625)"/>
      </defs>
      <use xlink:href="#LiberationSans-49" transform="translate(0 0.409375)"/>
      <use xlink:href="#LiberationSans-54" transform="translate(27.783203 0.409375)"/>
      <use xlink:href="#LiberationSans-52" transform="translate(88.867188 0.409375)"/>
      <use xlink:href="#LiberationSans-20" transform="translate(161.083984 0.409375)"/>
      <use xlink:href="#STIXGeneral-Regular-4b" transform="translate(188.867188 0.409375)"/>
      <use xlink:href="#STIXGeneral-Regular-22c5" transform="translate(275.507166 0.409375)"/>
      <use xlink:href="#STIXGeneral-Regular-6d" transform="translate(318.547153 0.409375)"/>
      <use xlink:href="#STIXGeneral-Regular-32" transform="translate(397.890422 35.684375) scale(0.7)"/>
      <use xlink:href="#STIXGeneral-Regular-2f" transform="translate(437.299786 0.409375)"/>
      <use xlink:href="#STIXGeneral-Regular-57" transform="translate(465.099774 0.409375)"/>
     </g>
    </g>
    <g id="text_17">
     <!-- $\times\mathdefault{10^{−6}}\mathdefault{}$ -->
     <g transform="translate(57.785625 36.1875) scale(0.4 -0.4)">
      <defs>
       <path id="STIXGeneral-Regular-d7" d="M 3821 141 
L 3526 -160 
L 2048 1312 
L 570 -160 
L 275 134 
L 1747 1613 
L 275 3091 
L 576 3386 
L 2048 1914 
L 3526 3386 
L 3821 3098 
L 2349 1613 
L 3821 141 
z
" transform="scale(0.015625)"/>
       <path id="LiberationSans-2212" d="M 316 1900 
L 316 2356 
L 3425 2356 
L 3425 1900 
L 316 1900 
z
" transform="scale(0.015625)"/>
      </defs>
      <use xlink:href="#STIXGeneral-Regular-d7" transform="translate(0 0.140625)"/>
      <use xlink:href="#LiberationSans-31" transform="translate(63.999985 0.140625)"/>
      <use xlink:href="#LiberationSans-30" transform="translate(119.615219 0.140625)"/>
      <use xlink:href="#LiberationSans-2212" transform="translate(176.154946 37.120312) scale(0.7)"/>
      <use xlink:href="#LiberationSans-36" transform="translate(217.033852 37.120312) scale(0.7)"/>
     </g>
    </g>
   </g>
   <g id="line2d_60">
    <path d="M 87.169261 615.812182 
L 87.22804 66.645818 
L 87.286819 340.729035 
L 87.463157 505.159573 
L 87.698273 553.620416 
L 87.992168 574.965598 
L 88.344842 586.185682 
L 88.756295 592.639324 
L 89.226527 596.473151 
L 89.69676 598.495348 
L 90.108213 599.4107 
L 90.460887 599.758738 
L 90.754782 599.804541 
L 91.107456 599.607553 
L 91.518909 599.063394 
L 91.989142 598.048945 
L 92.576932 596.191727 
L 93.223501 593.343825 
L 93.92885 589.143799 
L 94.634198 583.578946 
L 95.398325 575.617688 
L 96.162453 565.112531 
L 96.985359 550.554401 
L 98.807509 516.541406 
L 99.218962 513.074861 
L 99.454078 512.356283 
L 99.571636 512.342246 
L 99.747973 512.731039 
L 99.98309 513.949134 
L 100.394543 517.632949 
L 101.15867 527.294543 
L 102.334251 541.705206 
L 103.098378 548.570849 
L 103.803726 553.088479 
L 104.450296 555.906298 
L 104.979307 557.383062 
L 105.449539 558.133391 
L 105.860992 558.390076 
L 106.213667 558.33019 
L 106.566341 558.026292 
L 107.036573 557.262565 
L 107.565584 555.943807 
L 108.270933 553.537773 
L 109.328955 549.021839 
L 110.622094 543.673749 
L 111.268663 541.882238 
L 111.738895 541.151062 
L 112.091569 540.933606 
L 112.444244 540.981303 
L 112.855697 541.322166 
L 113.443487 542.180499 
L 114.50151 544.24857 
L 116.088543 547.248869 
L 117.205345 548.869118 
L 118.263367 550.05431 
L 119.145053 550.743847 
L 119.967959 551.105013 
L 121.261098 551.358613 
L 122.31912 551.679049 
L 123.847375 552.480297 
L 124.611503 552.72009 
L 125.199293 552.667935 
L 125.728304 552.378456 
L 126.257315 551.83259 
L 126.903885 550.811413 
L 127.726791 549.015042 
L 129.784057 544.226819 
L 130.371847 543.466774 
L 130.84208 543.173699 
L 131.312312 543.146431 
L 131.782544 543.350694 
L 132.429113 543.914405 
L 134.839054 546.318717 
L 135.368065 546.430291 
L 135.897076 546.30513 
L 136.426087 545.951784 
L 137.072657 545.250445 
L 137.895563 544.012321 
L 140.187945 540.341011 
L 140.775735 539.894783 
L 141.245968 539.779205 
L 141.7162 539.891978 
L 142.245211 540.277785 
L 142.833001 540.991186 
L 143.53835 542.208987 
L 144.478814 544.336521 
L 145.830732 548.038077 
L 147.12387 551.382939 
L 148.005556 553.071089 
L 148.710904 553.985233 
L 149.357474 554.467863 
L 149.945264 554.623424 
L 150.533054 554.529488 
L 151.179623 554.16912 
L 151.943751 553.454282 
L 153.001773 552.114875 
L 155.470493 548.867347 
L 156.352178 548.122839 
L 157.116305 547.764741 
L 157.880433 547.665213 
L 158.762118 547.801006 
L 161.818628 548.528909 
L 162.759092 548.36397 
L 164.169789 547.839205 
L 165.462927 547.434292 
L 166.344613 547.39164 
L 167.167519 547.582135 
L 168.049205 548.022098 
L 169.459901 549.018209 
L 171.164493 550.158913 
L 172.163737 550.556354 
L 173.045422 550.664811 
L 173.985887 550.537367 
L 175.337804 550.086075 
L 176.924838 549.597496 
L 177.865302 549.544494 
L 178.746988 549.715621 
L 179.80501 550.156294 
L 183.801984 552.07384 
L 184.68367 552.107439 
L 185.506576 551.918471 
L 186.447041 551.463961 
L 188.210411 550.280892 
L 189.327213 549.68173 
L 190.208898 549.451058 
L 191.149363 549.435768 
L 193.970756 549.580801 
L 194.676105 549.2923 
L 195.440232 548.726346 
L 196.321917 547.759867 
L 197.497498 546.087314 
L 199.319648 543.498567 
L 200.024996 542.899834 
L 200.554007 542.731075 
L 201.02424 542.820973 
L 201.494472 543.151823 
L 202.023483 543.811462 
L 202.670052 544.993903 
L 203.610517 547.250999 
L 205.902899 552.982049 
L 206.725805 554.391625 
L 207.431154 555.215063 
L 208.077723 555.657504 
L 208.665513 555.815617 
L 209.253304 555.761118 
L 209.899873 555.482398 
L 210.664 554.905552 
L 211.663244 553.847963 
L 213.426615 551.572838 
L 214.837311 549.906214 
L 215.836555 549.064435 
L 216.777019 548.564711 
L 218.011379 548.192044 
L 219.833529 547.63913 
L 221.126667 546.973508 
L 223.125154 545.922859 
L 224.00684 545.731545 
L 224.770967 545.78516 
L 225.593874 546.077858 
L 226.475559 546.637362 
L 227.65114 547.675003 
L 230.413754 550.214062 
L 231.295439 550.669912 
L 232.000788 550.801735 
L 232.706136 550.711544 
L 233.529042 550.370052 
L 236.526773 548.8636 
L 237.232121 548.898101 
L 237.996249 549.163226 
L 238.995492 549.775712 
L 242.052002 551.842756 
L 242.992466 552.128492 
L 243.874151 552.165533 
L 244.814616 551.977167 
L 246.284092 551.406766 
L 247.694788 550.938313 
L 248.635253 550.872126 
L 249.634496 551.038052 
L 252.044436 551.557136 
L 252.808564 551.439981 
L 253.513912 551.107 
L 254.21926 550.530616 
L 255.042167 549.544131 
L 255.982631 548.0295 
L 257.452107 545.13313 
L 258.627688 543.018537 
L 259.274257 542.274175 
L 259.744489 542.024849 
L 260.155942 542.044523 
L 260.567396 542.30188 
L 261.037628 542.887734 
L 261.625418 544.018551 
L 262.448324 546.164683 
L 265.15216 553.691322 
L 265.916287 555.03455 
L 266.562856 555.786979 
L 267.150647 556.172657 
L 267.738437 556.297772 
L 268.326227 556.190673 
L 268.972797 555.843692 
L 269.795703 555.128067 
L 270.971284 553.767003 
L 273.087329 551.285302 
L 273.969014 550.598875 
L 274.79192 550.237876 
L 275.673606 550.111043 
L 278.730115 549.930184 
L 279.729359 549.493522 
L 282.785868 547.959423 
L 283.667554 547.863175 
L 284.608018 547.996775 
L 285.607262 548.373215 
L 287.370633 549.337989 
L 288.781329 549.990376 
L 289.721794 550.174897 
L 290.5447 550.108905 
L 291.426386 549.803345 
L 292.778303 549.05033 
L 294.012663 548.44556 
L 294.77679 548.307898 
L 295.482138 548.419636 
L 296.187487 548.768499 
L 297.069172 549.477117 
L 300.654693 552.711584 
L 301.477599 553.001293 
L 302.241727 553.029862 
L 303.005854 552.832522 
L 303.88754 552.363154 
L 305.298236 551.308397 
L 306.708933 550.342471 
L 307.649397 549.975974 
L 308.531083 549.869815 
L 309.824221 549.980322 
L 311.058581 550.014525 
L 311.822708 549.819205 
L 312.586836 549.3815 
L 313.409742 548.622932 
L 314.350207 547.432177 
L 316.113577 544.725729 
L 317.112821 543.411904 
L 317.75939 542.888294 
L 318.288402 542.739594 
L 318.758634 542.85452 
L 319.228866 543.214819 
L 319.757877 543.910442 
L 320.463226 545.26106 
L 321.462469 547.749685 
L 323.637293 553.306665 
L 324.518979 554.876417 
L 325.224327 555.721773 
L 325.870896 556.168943 
L 326.458687 556.318048 
L 327.046477 556.245245 
L 327.751825 555.909518 
L 328.633511 555.206144 
L 330.161765 553.631793 
L 331.631241 552.233007 
L 332.571705 551.624961 
L 333.394612 551.345141 
L 334.276297 551.282546 
L 336.039668 551.467953 
L 337.15647 551.433936 
L 338.096934 551.183924 
L 339.331294 550.598763 
L 341.094665 549.780222 
L 341.97635 549.618957 
L 342.799256 549.693429 
L 343.680942 550.013297 
L 344.738964 550.664462 
L 347.913032 552.810362 
L 348.735938 553.021443 
L 349.500066 552.997216 
L 350.322972 552.741124 
L 351.498553 552.099172 
L 353.203145 551.18274 
L 354.026051 550.998249 
L 354.790178 551.058358 
L 355.554306 551.340629 
L 356.49477 551.945293 
L 358.023025 553.262069 
L 359.55128 554.484443 
L 360.491744 554.963424 
L 361.31465 555.143307 
L 362.078778 555.092791 
L 362.901684 554.817647 
L 364.018486 554.178415 
L 365.958194 553.023263 
L 366.898658 552.745935 
L 367.956681 552.680247 
L 370.013947 552.615162 
L 370.778074 552.329751 
L 371.542201 551.799552 
L 372.365108 550.941447 
L 373.42313 549.477006 
L 375.774291 546.068713 
L 376.420861 545.54003 
L 376.949872 545.368874 
L 377.420104 545.445166 
L 377.890336 545.747624 
L 378.419348 546.353828 
L 379.124696 547.553182 
L 380.065161 549.657408 
L 382.53388 555.437757 
L 383.415565 556.830255 
L 384.120914 557.565956 
L 384.767483 557.937441 
L 385.355273 558.036216 
L 386.001842 557.90638 
L 386.707191 557.522058 
L 387.588876 556.770126 
L 388.999573 555.215453 
L 390.762944 553.322751 
L 391.762187 552.571402 
L 392.702652 552.140006 
L 394.054569 551.8082 
L 395.406487 551.408789 
L 396.46451 550.851878 
L 399.168345 549.255545 
L 399.932472 549.165365 
L 400.637821 549.313811 
L 401.401948 549.71135 
L 402.401191 550.510569 
L 405.751596 553.445909 
L 406.574502 553.780735 
L 407.279851 553.836836 
L 407.985199 553.658234 
L 408.749326 553.213781 
L 409.807349 552.292621 
L 411.453162 550.855036 
L 412.217289 550.492778 
L 412.863858 550.431176 
L 413.510428 550.60006 
L 414.274555 551.04937 
L 415.391357 552.003553 
L 417.566181 553.888546 
L 418.565424 554.449671 
L 419.44711 554.706772 
L 420.328795 554.737866 
L 421.26926 554.55042 
L 422.503619 554.05785 
L 425.795245 552.600103 
L 429.557103 551.392646 
L 430.497567 550.675982 
L 431.496811 549.612756 
L 432.789949 547.869125 
L 434.612099 545.4325 
L 435.317447 544.847109 
L 435.846459 544.65427 
L 436.316691 544.6922 
L 436.786923 544.941331 
L 437.315934 545.476912 
L 437.962504 546.470061 
L 438.844189 548.289096 
L 441.783141 554.773676 
L 442.606047 555.908604 
L 443.311395 556.5328 
L 443.957965 556.824532 
L 444.604534 556.863967 
L 445.251103 556.674635 
L 446.015231 556.197827 
L 446.955695 555.323354 
L 448.601508 553.413955 
L 449.953425 551.988829 
L 450.835111 551.356281 
L 451.658017 551.02699 
L 452.598482 550.897628 
L 455.361096 550.688987 
L 456.477898 550.243076 
L 458.652722 549.298463 
L 459.475628 549.225486 
L 460.239755 549.386073 
L 461.062662 549.790522 
L 462.179463 550.616202 
L 464.648183 552.518131 
L 465.529868 552.880352 
L 466.293995 552.949199 
L 466.999344 552.789958 
L 467.82225 552.358365 
L 469.232947 551.292434 
L 470.290969 550.624279 
L 470.996318 550.424866 
L 471.642887 550.474249 
L 472.289456 550.745 
L 473.112363 551.34893 
L 474.46428 552.675567 
L 476.28643 554.411334 
L 477.344453 555.130036 
L 478.226138 555.480144 
L 478.990266 555.564628 
L 479.754393 555.425931 
L 480.577299 555.036338 
L 481.635322 554.257757 
L 483.633809 552.723443 
L 484.515494 552.352304 
L 485.39718 552.21824 
L 486.807876 552.274179 
L 487.983457 552.226645 
L 488.806363 551.977454 
L 489.62927 551.502022 
L 490.628513 550.646605 
L 492.450663 548.693398 
L 493.508686 547.730258 
L 494.214034 547.36922 
L 494.801824 547.321559 
L 495.330835 547.508199 
L 495.918626 547.983119 
L 496.565195 548.816698 
L 497.388101 550.263009 
L 499.151472 553.986282 
L 500.268274 556.042407 
L 501.09118 557.136599 
L 501.796529 557.729446 
L 502.443098 557.984934 
L 503.030888 557.991411 
L 503.677458 557.775756 
L 504.441585 557.270031 
L 505.499607 556.266509 
L 508.027106 553.756659 
L 509.026349 553.128671 
L 509.966814 552.804355 
L 511.083615 552.670714 
L 513.78745 552.442419 
L 515.02181 552.019004 
L 517.314192 551.158018 
L 518.137099 551.112721 
L 518.960005 551.300179 
L 519.84169 551.75248 
L 521.07605 552.679604 
L 522.839421 553.968486 
L 523.779885 554.378068 
L 524.602792 554.503869 
L 525.425698 554.402599 
L 526.307384 554.061256 
L 527.541743 553.305245 
L 529.363893 552.192615 
L 530.186799 551.943487 
L 530.950927 551.946334 
L 531.715054 552.175155 
L 532.655519 552.700405 
L 536.005923 554.803532 
L 537.005167 555.038543 
L 538.00441 555.050394 
L 539.121212 554.839379 
L 540.767025 554.265164 
L 542.412837 553.760822 
L 543.647197 553.631317 
L 545.8808 553.468768 
L 546.703706 553.134909 
L 547.526613 552.544122 
L 548.467077 551.567682 
L 549.995332 549.588984 
L 551.406029 547.890532 
L 552.228935 547.228576 
L 552.875504 546.989176 
L 553.404516 547.017287 
L 553.933527 547.268228 
L 554.521317 547.818887 
L 555.167887 548.74595 
L 555.990793 550.333812 
L 557.460269 553.777949 
L 558.694628 556.452819 
L 559.576314 557.85698 
L 560.281662 558.590066 
L 560.869452 558.918574 
L 561.457243 558.995859 
L 562.045033 558.838946 
L 562.691602 558.429052 
L 563.514509 557.627227 
L 565.2191 555.544841 
L 566.394681 554.306194 
L 567.217587 553.735634 
L 567.981715 553.468854 
L 568.804621 553.432258 
L 569.980202 553.640788 
L 571.390898 553.846274 
L 572.272584 553.75446 
L 573.154269 553.44451 
L 574.388629 552.744915 
L 575.975663 551.892578 
L 576.857348 551.664468 
L 577.680254 551.679133 
L 578.503161 551.915499 
L 579.443625 552.419028 
L 580.913101 553.500647 
L 582.441356 554.547299 
L 583.323041 554.885729 
L 584.087169 554.934281 
L 584.792517 554.758586 
L 585.674202 554.282055 
L 588.319259 552.652341 
L 589.024607 552.574591 
L 589.729955 552.725163 
L 590.552862 553.140021 
L 591.846 554.084191 
L 593.66815 555.379457 
L 594.667394 555.825631 
L 595.549079 555.976216 
L 596.371986 555.899344 
L 597.31245 555.57462 
L 598.54681 554.874288 
L 600.427739 553.808246 
L 601.309424 553.582221 
L 602.191109 553.583814 
L 603.484248 553.841408 
L 604.836166 554.047161 
L 605.659072 553.956583 
L 606.481978 553.630333 
L 607.363664 553.013208 
L 608.421686 551.978002 
L 611.066743 549.23651 
L 611.713312 548.918753 
L 612.301102 548.877085 
L 612.830114 549.070805 
L 613.417904 549.55168 
L 614.064473 550.383781 
L 614.946159 551.914935 
L 617.708773 557.025563 
L 618.4729 557.865607 
L 619.178249 558.328867 
L 619.824818 558.50068 
L 620.471387 558.455106 
L 621.235515 558.159356 
L 622.1172 557.564719 
L 623.586676 556.250311 
L 625.291268 554.803255 
L 626.290511 554.253539 
L 627.172196 554.014778 
L 628.288998 553.967201 
L 630.463822 553.930533 
L 631.521845 553.642506 
L 632.697425 553.073068 
L 634.754691 552.0368 
L 635.695156 551.829909 
L 636.576841 551.871825 
L 637.517306 552.158064 
L 638.692886 552.770695 
L 641.102826 554.080442 
L 642.10207 554.339048 
L 642.983755 554.331033 
L 643.865441 554.083276 
L 644.923463 553.528267 
L 647.098287 552.313504 
L 647.862415 552.181009 
L 648.567763 552.29562 
L 649.33189 552.673057 
L 650.272355 553.41924 
L 653.387643 556.138205 
L 654.21055 556.470112 
L 654.974677 556.543895 
L 655.738804 556.3846 
L 656.561711 555.971958 
L 657.678512 555.131463 
L 659.441883 553.788564 
L 660.26479 553.444619 
L 661.028917 553.352619 
L 661.969381 553.476096 
L 663.909089 553.808365 
L 664.673217 553.677649 
L 665.437344 553.31743 
L 666.319029 552.639699 
L 667.670947 551.268521 
L 669.375539 549.581617 
L 670.198445 549.067445 
L 670.845015 548.92113 
L 671.374026 549.01736 
L 671.903037 549.335087 
L 672.490827 549.962898 
L 673.196176 551.076509 
L 674.13664 553.022577 
L 674.841989 554.639839 
L 674.841989 554.639839 
" clip-path="url(#p7100112aa9)" style="fill: none; stroke: #0000ff; stroke-width: 1.5; stroke-linecap: square"/>
   </g>
   <g id="patch_3">
    <path d="M 57.785625 643.2705 
L 57.785625 39.1875 
" style="fill: none; stroke: #000000; stroke-width: 0.8; stroke-linejoin: miter; stroke-linecap: square"/>
   </g>
   <g id="patch_4">
    <path d="M 704.225625 643.2705 
L 704.225625 39.1875 
" style="fill: none; stroke: #000000; stroke-width: 0.8; stroke-linejoin: miter; stroke-linecap: square"/>
   </g>
   <g id="patch_5">
    <path d="M 57.785625 643.2705 
L 704.225625 643.2705 
" style="fill: none; stroke: #000000; stroke-width: 0.8; stroke-linejoin: miter; stroke-linecap: square"/>
   </g>
   <g id="patch_6">
    <path d="M 57.785625 39.1875 
L 704.225625 39.1875 
" style="fill: none; stroke: #000000; stroke-width: 0.8; stroke-linejoin: miter; stroke-linecap: square"/>
   </g>
  </g>
 </g>
 <defs>
  <clipPath id="p7100112aa9">
   <rect x="57.785625" y="39.1875" width="646.44" height="604.083"/>
  </clipPath>
 </defs>
</svg>
