<?xml version="1.0" encoding="utf-8" standalone="no"?>
<!DOCTYPE svg PUBLIC "-//W3C//DTD SVG 1.1//EN"
  "http://www.w3.org/Graphics/SVG/1.1/DTD/svg11.dtd">
<svg xmlns:xlink="http://www.w3.org/1999/xlink" width="711.485625pt" height="711.02175pt" viewBox="0 0 711.485625 711.02175" xmlns="http://www.w3.org/2000/svg" version="1.1">
 <metadata>
  <rdf:RDF xmlns:dc="http://purl.org/dc/elements/1.1/" xmlns:cc="http://creativecommons.org/ns#" xmlns:rdf="http://www.w3.org/1999/02/22-rdf-syntax-ns#">
   <cc:Work>
    <dc:type rdf:resource="http://purl.org/dc/dcmitype/StillImage"/>
    <dc:date>2025-02-06T00:49:13.869004</dc:date>
    <dc:format>image/svg+xml</dc:format>
    <dc:creator>
     <cc:Agent>
      <dc:title>Matplotlib v3.9.3, https://matplotlib.org/</dc:title>
     </cc:Agent>
    </dc:creator>
   </cc:Work>
  </rdf:RDF>
 </metadata>
 <defs>
  <style type="text/css">*{stroke-linejoin: round; stroke-linecap: butt}</style>
 </defs>
 <g id="figure_1">
  <g id="patch_1">
   <path d="M 0 711.02175 
L 711.485625 711.02175 
L 711.485625 0 
L 0 0 
z
" style="fill: #ffffff"/>
  </g>
  <g id="axes_1">
   <g id="patch_2">
    <path d="M 59.465625 640.3905 
L 704.285625 640.3905 
L 704.285625 39.1875 
L 59.465625 39.1875 
z
" style="fill: #ffffff"/>
   </g>
   <g id="matplotlib.axis_1">
    <g id="xtick_1">
     <g id="line2d_1">
      <defs>
       <path id="m19957f3fbb" d="M 0 0 
L 0 -3.5 
" style="stroke: #000000; stroke-width: 0.8"/>
      </defs>
      <g>
       <use xlink:href="#m19957f3fbb" x="88.716993" y="640.3905" style="stroke: #000000; stroke-width: 0.8"/>
      </g>
     </g>
     <g id="text_1">
      <!-- 0 -->
      <g transform="translate(80.375587 665.631125) scale(0.3 -0.3)">
       <defs>
        <path id="LiberationSans-30" d="M 3309 2203 
Q 3309 1100 2920 518 
Q 2531 -63 1772 -63 
Q 1013 -63 631 515 
Q 250 1094 250 2203 
Q 250 3338 620 3903 
Q 991 4469 1791 4469 
Q 2569 4469 2939 3897 
Q 3309 3325 3309 2203 
z
M 2738 2203 
Q 2738 3156 2517 3584 
Q 2297 4013 1791 4013 
Q 1272 4013 1045 3591 
Q 819 3169 819 2203 
Q 819 1266 1048 831 
Q 1278 397 1778 397 
Q 2275 397 2506 840 
Q 2738 1284 2738 2203 
z
" transform="scale(0.015625)"/>
       </defs>
       <use xlink:href="#LiberationSans-30"/>
      </g>
     </g>
    </g>
    <g id="xtick_2">
     <g id="line2d_2">
      <g>
       <use xlink:href="#m19957f3fbb" x="205.980446" y="640.3905" style="stroke: #000000; stroke-width: 0.8"/>
      </g>
     </g>
     <g id="text_2">
      <!-- 2 -->
      <g transform="translate(197.63904 665.631125) scale(0.3 -0.3)">
       <defs>
        <path id="LiberationSans-32" d="M 322 0 
L 322 397 
Q 481 763 711 1042 
Q 941 1322 1194 1548 
Q 1447 1775 1695 1969 
Q 1944 2163 2144 2356 
Q 2344 2550 2467 2762 
Q 2591 2975 2591 3244 
Q 2591 3606 2378 3806 
Q 2166 4006 1788 4006 
Q 1428 4006 1195 3811 
Q 963 3616 922 3263 
L 347 3316 
Q 409 3844 795 4156 
Q 1181 4469 1788 4469 
Q 2453 4469 2811 4155 
Q 3169 3841 3169 3263 
Q 3169 3006 3051 2753 
Q 2934 2500 2703 2247 
Q 2472 1994 1819 1463 
Q 1459 1169 1246 933 
Q 1034 697 941 478 
L 3238 478 
L 3238 0 
L 322 0 
z
" transform="scale(0.015625)"/>
       </defs>
       <use xlink:href="#LiberationSans-32"/>
      </g>
     </g>
    </g>
    <g id="xtick_3">
     <g id="line2d_3">
      <g>
       <use xlink:href="#m19957f3fbb" x="323.243899" y="640.3905" style="stroke: #000000; stroke-width: 0.8"/>
      </g>
     </g>
     <g id="text_3">
      <!-- 4 -->
      <g transform="translate(314.902492 665.631125) scale(0.3 -0.3)">
       <defs>
        <path id="LiberationSans-34" d="M 2753 997 
L 2753 0 
L 2222 0 
L 2222 997 
L 147 997 
L 147 1434 
L 2163 4403 
L 2753 4403 
L 2753 1441 
L 3372 1441 
L 3372 997 
L 2753 997 
z
M 2222 3769 
Q 2216 3750 2134 3603 
Q 2053 3456 2013 3397 
L 884 1734 
L 716 1503 
L 666 1441 
L 2222 1441 
L 2222 3769 
z
" transform="scale(0.015625)"/>
       </defs>
       <use xlink:href="#LiberationSans-34"/>
      </g>
     </g>
    </g>
    <g id="xtick_4">
     <g id="line2d_4">
      <g>
       <use xlink:href="#m19957f3fbb" x="440.507351" y="640.3905" style="stroke: #000000; stroke-width: 0.8"/>
      </g>
     </g>
     <g id="text_4">
      <!-- 6 -->
      <g transform="translate(432.165945 665.631125) scale(0.3 -0.3)">
       <defs>
        <path id="LiberationSans-36" d="M 3278 1441 
Q 3278 744 2900 340 
Q 2522 -63 1856 -63 
Q 1113 -63 719 490 
Q 325 1044 325 2100 
Q 325 3244 734 3856 
Q 1144 4469 1900 4469 
Q 2897 4469 3156 3572 
L 2619 3475 
Q 2453 4013 1894 4013 
Q 1413 4013 1148 3564 
Q 884 3116 884 2266 
Q 1038 2550 1316 2698 
Q 1594 2847 1953 2847 
Q 2563 2847 2920 2465 
Q 3278 2084 3278 1441 
z
M 2706 1416 
Q 2706 1894 2472 2153 
Q 2238 2413 1819 2413 
Q 1425 2413 1183 2183 
Q 941 1953 941 1550 
Q 941 1041 1192 716 
Q 1444 391 1838 391 
Q 2244 391 2475 664 
Q 2706 938 2706 1416 
z
" transform="scale(0.015625)"/>
       </defs>
       <use xlink:href="#LiberationSans-36"/>
      </g>
     </g>
    </g>
    <g id="xtick_5">
     <g id="line2d_5">
      <g>
       <use xlink:href="#m19957f3fbb" x="557.770804" y="640.3905" style="stroke: #000000; stroke-width: 0.8"/>
      </g>
     </g>
     <g id="text_5">
      <!-- 8 -->
      <g transform="translate(549.429398 665.631125) scale(0.3 -0.3)">
       <defs>
        <path id="LiberationSans-38" d="M 3281 1228 
Q 3281 619 2893 278 
Q 2506 -63 1781 -63 
Q 1075 -63 676 271 
Q 278 606 278 1222 
Q 278 1653 525 1947 
Q 772 2241 1156 2303 
L 1156 2316 
Q 797 2400 589 2681 
Q 381 2963 381 3341 
Q 381 3844 757 4156 
Q 1134 4469 1769 4469 
Q 2419 4469 2795 4162 
Q 3172 3856 3172 3334 
Q 3172 2956 2962 2675 
Q 2753 2394 2391 2322 
L 2391 2309 
Q 2813 2241 3047 1952 
Q 3281 1663 3281 1228 
z
M 2588 3303 
Q 2588 4050 1769 4050 
Q 1372 4050 1164 3862 
Q 956 3675 956 3303 
Q 956 2925 1170 2726 
Q 1384 2528 1775 2528 
Q 2172 2528 2380 2711 
Q 2588 2894 2588 3303 
z
M 2697 1281 
Q 2697 1691 2453 1898 
Q 2209 2106 1769 2106 
Q 1341 2106 1100 1882 
Q 859 1659 859 1269 
Q 859 359 1788 359 
Q 2247 359 2472 579 
Q 2697 800 2697 1281 
z
" transform="scale(0.015625)"/>
       </defs>
       <use xlink:href="#LiberationSans-38"/>
      </g>
     </g>
    </g>
    <g id="xtick_6">
     <g id="line2d_6">
      <g>
       <use xlink:href="#m19957f3fbb" x="675.034257" y="640.3905" style="stroke: #000000; stroke-width: 0.8"/>
      </g>
     </g>
     <g id="text_6">
      <!-- 10 -->
      <g transform="translate(658.351444 665.631125) scale(0.3 -0.3)">
       <defs>
        <path id="LiberationSans-31" d="M 488 0 
L 488 478 
L 1609 478 
L 1609 3866 
L 616 3156 
L 616 3688 
L 1656 4403 
L 2175 4403 
L 2175 478 
L 3247 478 
L 3247 0 
L 488 0 
z
" transform="scale(0.015625)"/>
       </defs>
       <use xlink:href="#LiberationSans-31"/>
       <use xlink:href="#LiberationSans-30" x="55.615234"/>
      </g>
     </g>
    </g>
    <g id="xtick_7">
     <g id="line2d_7">
      <defs>
       <path id="m866cd1f917" d="M 0 0 
L 0 -2 
" style="stroke: #000000; stroke-width: 0.6"/>
      </defs>
      <g>
       <use xlink:href="#m866cd1f917" x="118.032856" y="640.3905" style="stroke: #000000; stroke-width: 0.6"/>
      </g>
     </g>
    </g>
    <g id="xtick_8">
     <g id="line2d_8">
      <g>
       <use xlink:href="#m866cd1f917" x="147.34872" y="640.3905" style="stroke: #000000; stroke-width: 0.6"/>
      </g>
     </g>
    </g>
    <g id="xtick_9">
     <g id="line2d_9">
      <g>
       <use xlink:href="#m866cd1f917" x="176.664583" y="640.3905" style="stroke: #000000; stroke-width: 0.6"/>
      </g>
     </g>
    </g>
    <g id="xtick_10">
     <g id="line2d_10">
      <g>
       <use xlink:href="#m866cd1f917" x="235.296309" y="640.3905" style="stroke: #000000; stroke-width: 0.6"/>
      </g>
     </g>
    </g>
    <g id="xtick_11">
     <g id="line2d_11">
      <g>
       <use xlink:href="#m866cd1f917" x="264.612172" y="640.3905" style="stroke: #000000; stroke-width: 0.6"/>
      </g>
     </g>
    </g>
    <g id="xtick_12">
     <g id="line2d_12">
      <g>
       <use xlink:href="#m866cd1f917" x="293.928035" y="640.3905" style="stroke: #000000; stroke-width: 0.6"/>
      </g>
     </g>
    </g>
    <g id="xtick_13">
     <g id="line2d_13">
      <g>
       <use xlink:href="#m866cd1f917" x="352.559762" y="640.3905" style="stroke: #000000; stroke-width: 0.6"/>
      </g>
     </g>
    </g>
    <g id="xtick_14">
     <g id="line2d_14">
      <g>
       <use xlink:href="#m866cd1f917" x="381.875625" y="640.3905" style="stroke: #000000; stroke-width: 0.6"/>
      </g>
     </g>
    </g>
    <g id="xtick_15">
     <g id="line2d_15">
      <g>
       <use xlink:href="#m866cd1f917" x="411.191488" y="640.3905" style="stroke: #000000; stroke-width: 0.6"/>
      </g>
     </g>
    </g>
    <g id="xtick_16">
     <g id="line2d_16">
      <g>
       <use xlink:href="#m866cd1f917" x="469.823215" y="640.3905" style="stroke: #000000; stroke-width: 0.6"/>
      </g>
     </g>
    </g>
    <g id="xtick_17">
     <g id="line2d_17">
      <g>
       <use xlink:href="#m866cd1f917" x="499.139078" y="640.3905" style="stroke: #000000; stroke-width: 0.6"/>
      </g>
     </g>
    </g>
    <g id="xtick_18">
     <g id="line2d_18">
      <g>
       <use xlink:href="#m866cd1f917" x="528.454941" y="640.3905" style="stroke: #000000; stroke-width: 0.6"/>
      </g>
     </g>
    </g>
    <g id="xtick_19">
     <g id="line2d_19">
      <g>
       <use xlink:href="#m866cd1f917" x="587.086667" y="640.3905" style="stroke: #000000; stroke-width: 0.6"/>
      </g>
     </g>
    </g>
    <g id="xtick_20">
     <g id="line2d_20">
      <g>
       <use xlink:href="#m866cd1f917" x="616.40253" y="640.3905" style="stroke: #000000; stroke-width: 0.6"/>
      </g>
     </g>
    </g>
    <g id="xtick_21">
     <g id="line2d_21">
      <g>
       <use xlink:href="#m866cd1f917" x="645.718394" y="640.3905" style="stroke: #000000; stroke-width: 0.6"/>
      </g>
     </g>
    </g>
    <g id="text_7">
     <!-- Time ps -->
     <g transform="translate(329.099063 697.59675) scale(0.3 -0.3)">
      <defs>
       <path id="LiberationSans-54" d="M 2250 3916 
L 2250 0 
L 1656 0 
L 1656 3916 
L 144 3916 
L 144 4403 
L 3763 4403 
L 3763 3916 
L 2250 3916 
z
" transform="scale(0.015625)"/>
       <path id="LiberationSans-69" d="M 428 4100 
L 428 4638 
L 991 4638 
L 991 4100 
L 428 4100 
z
M 428 0 
L 428 3381 
L 991 3381 
L 991 0 
L 428 0 
z
" transform="scale(0.015625)"/>
       <path id="LiberationSans-6d" d="M 2400 0 
L 2400 2144 
Q 2400 2634 2265 2821 
Q 2131 3009 1781 3009 
Q 1422 3009 1212 2734 
Q 1003 2459 1003 1959 
L 1003 0 
L 444 0 
L 444 2659 
Q 444 3250 425 3381 
L 956 3381 
Q 959 3366 962 3297 
Q 966 3228 970 3139 
Q 975 3050 981 2803 
L 991 2803 
Q 1172 3163 1406 3303 
Q 1641 3444 1978 3444 
Q 2363 3444 2586 3291 
Q 2809 3138 2897 2803 
L 2906 2803 
Q 3081 3144 3329 3294 
Q 3578 3444 3931 3444 
Q 4444 3444 4676 3166 
Q 4909 2888 4909 2253 
L 4909 0 
L 4353 0 
L 4353 2144 
Q 4353 2634 4218 2821 
Q 4084 3009 3734 3009 
Q 3366 3009 3161 2736 
Q 2956 2463 2956 1959 
L 2956 0 
L 2400 0 
z
" transform="scale(0.015625)"/>
       <path id="LiberationSans-65" d="M 863 1572 
Q 863 991 1103 675 
Q 1344 359 1806 359 
Q 2172 359 2392 506 
Q 2613 653 2691 878 
L 3184 738 
Q 2881 -63 1806 -63 
Q 1056 -63 664 384 
Q 272 831 272 1713 
Q 272 2550 664 2997 
Q 1056 3444 1784 3444 
Q 3275 3444 3275 1647 
L 3275 1572 
L 863 1572 
z
M 2694 2003 
Q 2647 2538 2422 2783 
Q 2197 3028 1775 3028 
Q 1366 3028 1127 2754 
Q 888 2481 869 2003 
L 2694 2003 
z
" transform="scale(0.015625)"/>
       <path id="LiberationSans-20" transform="scale(0.015625)"/>
       <path id="LiberationSans-70" d="M 3291 1706 
Q 3291 -63 2047 -63 
Q 1266 -63 997 525 
L 981 525 
Q 994 500 994 -6 
L 994 -1328 
L 431 -1328 
L 431 2691 
Q 431 3213 413 3381 
L 956 3381 
Q 959 3369 965 3292 
Q 972 3216 980 3056 
Q 988 2897 988 2838 
L 1000 2838 
Q 1150 3150 1397 3295 
Q 1644 3441 2047 3441 
Q 2672 3441 2981 3022 
Q 3291 2603 3291 1706 
z
M 2700 1694 
Q 2700 2400 2509 2703 
Q 2319 3006 1903 3006 
Q 1569 3006 1380 2865 
Q 1191 2725 1092 2426 
Q 994 2128 994 1650 
Q 994 984 1206 668 
Q 1419 353 1897 353 
Q 2316 353 2508 661 
Q 2700 969 2700 1694 
z
" transform="scale(0.015625)"/>
       <path id="LiberationSans-73" d="M 2969 934 
Q 2969 456 2608 196 
Q 2247 -63 1597 -63 
Q 966 -63 623 145 
Q 281 353 178 794 
L 675 891 
Q 747 619 972 492 
Q 1197 366 1597 366 
Q 2025 366 2223 497 
Q 2422 628 2422 891 
Q 2422 1091 2284 1216 
Q 2147 1341 1841 1422 
L 1438 1528 
Q 953 1653 748 1773 
Q 544 1894 428 2066 
Q 313 2238 313 2488 
Q 313 2950 642 3192 
Q 972 3434 1603 3434 
Q 2163 3434 2492 3237 
Q 2822 3041 2909 2606 
L 2403 2544 
Q 2356 2769 2151 2889 
Q 1947 3009 1603 3009 
Q 1222 3009 1040 2893 
Q 859 2778 859 2544 
Q 859 2400 934 2306 
Q 1009 2213 1156 2147 
Q 1303 2081 1775 1966 
Q 2222 1853 2419 1758 
Q 2616 1663 2730 1547 
Q 2844 1431 2906 1279 
Q 2969 1128 2969 934 
z
" transform="scale(0.015625)"/>
      </defs>
      <use xlink:href="#LiberationSans-54"/>
      <use xlink:href="#LiberationSans-69" x="57.333984"/>
      <use xlink:href="#LiberationSans-6d" x="79.550781"/>
      <use xlink:href="#LiberationSans-65" x="162.851562"/>
      <use xlink:href="#LiberationSans-20" x="218.466797"/>
      <use xlink:href="#LiberationSans-70" x="246.25"/>
      <use xlink:href="#LiberationSans-73" x="301.865234"/>
     </g>
    </g>
   </g>
   <g id="matplotlib.axis_2">
    <g id="ytick_1">
     <g id="line2d_22">
      <defs>
       <path id="mbaac66d251" d="M 0 0 
L 3.5 0 
" style="stroke: #000000; stroke-width: 0.8"/>
      </defs>
      <g>
       <use xlink:href="#mbaac66d251" x="59.465625" y="613.063091" style="stroke: #000000; stroke-width: 0.8"/>
      </g>
     </g>
     <g id="text_8">
      <!-- $\mathdefault{0}$ -->
      <g transform="translate(39.165625 623.933403) scale(0.3 -0.3)">
       <use xlink:href="#LiberationSans-30" transform="translate(0 0.171875)"/>
      </g>
     </g>
    </g>
    <g id="ytick_2">
     <g id="line2d_23">
      <g>
       <use xlink:href="#mbaac66d251" x="59.465625" y="534.621972" style="stroke: #000000; stroke-width: 0.8"/>
      </g>
     </g>
     <g id="text_9">
      <!-- $\mathdefault{1}$ -->
      <g transform="translate(39.165625 545.492284) scale(0.3 -0.3)">
       <use xlink:href="#LiberationSans-31" transform="translate(0 0.203125)"/>
      </g>
     </g>
    </g>
    <g id="ytick_3">
     <g id="line2d_24">
      <g>
       <use xlink:href="#mbaac66d251" x="59.465625" y="456.180853" style="stroke: #000000; stroke-width: 0.8"/>
      </g>
     </g>
     <g id="text_10">
      <!-- $\mathdefault{2}$ -->
      <g transform="translate(39.165625 467.051166) scale(0.3 -0.3)">
       <use xlink:href="#LiberationSans-32" transform="translate(0 0.171875)"/>
      </g>
     </g>
    </g>
    <g id="ytick_4">
     <g id="line2d_25">
      <g>
       <use xlink:href="#mbaac66d251" x="59.465625" y="377.739734" style="stroke: #000000; stroke-width: 0.8"/>
      </g>
     </g>
     <g id="text_11">
      <!-- $\mathdefault{3}$ -->
      <g transform="translate(39.165625 388.610047) scale(0.3 -0.3)">
       <defs>
        <path id="LiberationSans-33" d="M 3278 1216 
Q 3278 606 2890 271 
Q 2503 -63 1784 -63 
Q 1116 -63 717 239 
Q 319 541 244 1131 
L 825 1184 
Q 938 403 1784 403 
Q 2209 403 2451 612 
Q 2694 822 2694 1234 
Q 2694 1594 2417 1795 
Q 2141 1997 1619 1997 
L 1300 1997 
L 1300 2484 
L 1606 2484 
Q 2069 2484 2323 2686 
Q 2578 2888 2578 3244 
Q 2578 3597 2370 3801 
Q 2163 4006 1753 4006 
Q 1381 4006 1151 3815 
Q 922 3625 884 3278 
L 319 3322 
Q 381 3863 767 4166 
Q 1153 4469 1759 4469 
Q 2422 4469 2789 4161 
Q 3156 3853 3156 3303 
Q 3156 2881 2920 2617 
Q 2684 2353 2234 2259 
L 2234 2247 
Q 2728 2194 3003 1916 
Q 3278 1638 3278 1216 
z
" transform="scale(0.015625)"/>
       </defs>
       <use xlink:href="#LiberationSans-33" transform="translate(0 0.171875)"/>
      </g>
     </g>
    </g>
    <g id="ytick_5">
     <g id="line2d_26">
      <g>
       <use xlink:href="#mbaac66d251" x="59.465625" y="299.298615" style="stroke: #000000; stroke-width: 0.8"/>
      </g>
     </g>
     <g id="text_12">
      <!-- $\mathdefault{4}$ -->
      <g transform="translate(39.165625 310.168928) scale(0.3 -0.3)">
       <use xlink:href="#LiberationSans-34" transform="translate(0 0.203125)"/>
      </g>
     </g>
    </g>
    <g id="ytick_6">
     <g id="line2d_27">
      <g>
       <use xlink:href="#mbaac66d251" x="59.465625" y="220.857496" style="stroke: #000000; stroke-width: 0.8"/>
      </g>
     </g>
     <g id="text_13">
      <!-- $\mathdefault{5}$ -->
      <g transform="translate(39.165625 231.727809) scale(0.3 -0.3)">
       <defs>
        <path id="LiberationSans-35" d="M 3291 1434 
Q 3291 738 2877 337 
Q 2463 -63 1728 -63 
Q 1113 -63 734 206 
Q 356 475 256 984 
L 825 1050 
Q 1003 397 1741 397 
Q 2194 397 2450 670 
Q 2706 944 2706 1422 
Q 2706 1838 2448 2094 
Q 2191 2350 1753 2350 
Q 1525 2350 1328 2278 
Q 1131 2206 934 2034 
L 384 2034 
L 531 4403 
L 3034 4403 
L 3034 3925 
L 1044 3925 
L 959 2528 
Q 1325 2809 1869 2809 
Q 2519 2809 2905 2428 
Q 3291 2047 3291 1434 
z
" transform="scale(0.015625)"/>
       </defs>
       <use xlink:href="#LiberationSans-35" transform="translate(0 0.203125)"/>
      </g>
     </g>
    </g>
    <g id="ytick_7">
     <g id="line2d_28">
      <g>
       <use xlink:href="#mbaac66d251" x="59.465625" y="142.416377" style="stroke: #000000; stroke-width: 0.8"/>
      </g>
     </g>
     <g id="text_14">
      <!-- $\mathdefault{6}$ -->
      <g transform="translate(39.165625 153.28669) scale(0.3 -0.3)">
       <use xlink:href="#LiberationSans-36" transform="translate(0 0.171875)"/>
      </g>
     </g>
    </g>
    <g id="ytick_8">
     <g id="line2d_29">
      <g>
       <use xlink:href="#mbaac66d251" x="59.465625" y="63.975258" style="stroke: #000000; stroke-width: 0.8"/>
      </g>
     </g>
     <g id="text_15">
      <!-- $\mathdefault{7}$ -->
      <g transform="translate(39.165625 74.845571) scale(0.3 -0.3)">
       <defs>
        <path id="LiberationSans-37" d="M 3238 3947 
Q 2563 2916 2284 2331 
Q 2006 1747 1867 1178 
Q 1728 609 1728 0 
L 1141 0 
Q 1141 844 1498 1776 
Q 1856 2709 2694 3925 
L 328 3925 
L 328 4403 
L 3238 4403 
L 3238 3947 
z
" transform="scale(0.015625)"/>
       </defs>
       <use xlink:href="#LiberationSans-37" transform="translate(0 0.203125)"/>
      </g>
     </g>
    </g>
    <g id="ytick_9">
     <g id="line2d_30">
      <defs>
       <path id="mdf7be7f730" d="M 0 0 
L 2 0 
" style="stroke: #000000; stroke-width: 0.6"/>
      </defs>
      <g>
       <use xlink:href="#mdf7be7f730" x="59.465625" y="628.751315" style="stroke: #000000; stroke-width: 0.6"/>
      </g>
     </g>
    </g>
    <g id="ytick_10">
     <g id="line2d_31">
      <g>
       <use xlink:href="#mdf7be7f730" x="59.465625" y="597.374867" style="stroke: #000000; stroke-width: 0.6"/>
      </g>
     </g>
    </g>
    <g id="ytick_11">
     <g id="line2d_32">
      <g>
       <use xlink:href="#mdf7be7f730" x="59.465625" y="581.686643" style="stroke: #000000; stroke-width: 0.6"/>
      </g>
     </g>
    </g>
    <g id="ytick_12">
     <g id="line2d_33">
      <g>
       <use xlink:href="#mdf7be7f730" x="59.465625" y="565.99842" style="stroke: #000000; stroke-width: 0.6"/>
      </g>
     </g>
    </g>
    <g id="ytick_13">
     <g id="line2d_34">
      <g>
       <use xlink:href="#mdf7be7f730" x="59.465625" y="550.310196" style="stroke: #000000; stroke-width: 0.6"/>
      </g>
     </g>
    </g>
    <g id="ytick_14">
     <g id="line2d_35">
      <g>
       <use xlink:href="#mdf7be7f730" x="59.465625" y="518.933748" style="stroke: #000000; stroke-width: 0.6"/>
      </g>
     </g>
    </g>
    <g id="ytick_15">
     <g id="line2d_36">
      <g>
       <use xlink:href="#mdf7be7f730" x="59.465625" y="503.245524" style="stroke: #000000; stroke-width: 0.6"/>
      </g>
     </g>
    </g>
    <g id="ytick_16">
     <g id="line2d_37">
      <g>
       <use xlink:href="#mdf7be7f730" x="59.465625" y="487.557301" style="stroke: #000000; stroke-width: 0.6"/>
      </g>
     </g>
    </g>
    <g id="ytick_17">
     <g id="line2d_38">
      <g>
       <use xlink:href="#mdf7be7f730" x="59.465625" y="471.869077" style="stroke: #000000; stroke-width: 0.6"/>
      </g>
     </g>
    </g>
    <g id="ytick_18">
     <g id="line2d_39">
      <g>
       <use xlink:href="#mdf7be7f730" x="59.465625" y="440.492629" style="stroke: #000000; stroke-width: 0.6"/>
      </g>
     </g>
    </g>
    <g id="ytick_19">
     <g id="line2d_40">
      <g>
       <use xlink:href="#mdf7be7f730" x="59.465625" y="424.804405" style="stroke: #000000; stroke-width: 0.6"/>
      </g>
     </g>
    </g>
    <g id="ytick_20">
     <g id="line2d_41">
      <g>
       <use xlink:href="#mdf7be7f730" x="59.465625" y="409.116182" style="stroke: #000000; stroke-width: 0.6"/>
      </g>
     </g>
    </g>
    <g id="ytick_21">
     <g id="line2d_42">
      <g>
       <use xlink:href="#mdf7be7f730" x="59.465625" y="393.427958" style="stroke: #000000; stroke-width: 0.6"/>
      </g>
     </g>
    </g>
    <g id="ytick_22">
     <g id="line2d_43">
      <g>
       <use xlink:href="#mdf7be7f730" x="59.465625" y="362.05151" style="stroke: #000000; stroke-width: 0.6"/>
      </g>
     </g>
    </g>
    <g id="ytick_23">
     <g id="line2d_44">
      <g>
       <use xlink:href="#mdf7be7f730" x="59.465625" y="346.363287" style="stroke: #000000; stroke-width: 0.6"/>
      </g>
     </g>
    </g>
    <g id="ytick_24">
     <g id="line2d_45">
      <g>
       <use xlink:href="#mdf7be7f730" x="59.465625" y="330.675063" style="stroke: #000000; stroke-width: 0.6"/>
      </g>
     </g>
    </g>
    <g id="ytick_25">
     <g id="line2d_46">
      <g>
       <use xlink:href="#mdf7be7f730" x="59.465625" y="314.986839" style="stroke: #000000; stroke-width: 0.6"/>
      </g>
     </g>
    </g>
    <g id="ytick_26">
     <g id="line2d_47">
      <g>
       <use xlink:href="#mdf7be7f730" x="59.465625" y="283.610391" style="stroke: #000000; stroke-width: 0.6"/>
      </g>
     </g>
    </g>
    <g id="ytick_27">
     <g id="line2d_48">
      <g>
       <use xlink:href="#mdf7be7f730" x="59.465625" y="267.922168" style="stroke: #000000; stroke-width: 0.6"/>
      </g>
     </g>
    </g>
    <g id="ytick_28">
     <g id="line2d_49">
      <g>
       <use xlink:href="#mdf7be7f730" x="59.465625" y="252.233944" style="stroke: #000000; stroke-width: 0.6"/>
      </g>
     </g>
    </g>
    <g id="ytick_29">
     <g id="line2d_50">
      <g>
       <use xlink:href="#mdf7be7f730" x="59.465625" y="236.54572" style="stroke: #000000; stroke-width: 0.6"/>
      </g>
     </g>
    </g>
    <g id="ytick_30">
     <g id="line2d_51">
      <g>
       <use xlink:href="#mdf7be7f730" x="59.465625" y="205.169272" style="stroke: #000000; stroke-width: 0.6"/>
      </g>
     </g>
    </g>
    <g id="ytick_31">
     <g id="line2d_52">
      <g>
       <use xlink:href="#mdf7be7f730" x="59.465625" y="189.481049" style="stroke: #000000; stroke-width: 0.6"/>
      </g>
     </g>
    </g>
    <g id="ytick_32">
     <g id="line2d_53">
      <g>
       <use xlink:href="#mdf7be7f730" x="59.465625" y="173.792825" style="stroke: #000000; stroke-width: 0.6"/>
      </g>
     </g>
    </g>
    <g id="ytick_33">
     <g id="line2d_54">
      <g>
       <use xlink:href="#mdf7be7f730" x="59.465625" y="158.104601" style="stroke: #000000; stroke-width: 0.6"/>
      </g>
     </g>
    </g>
    <g id="ytick_34">
     <g id="line2d_55">
      <g>
       <use xlink:href="#mdf7be7f730" x="59.465625" y="126.728154" style="stroke: #000000; stroke-width: 0.6"/>
      </g>
     </g>
    </g>
    <g id="ytick_35">
     <g id="line2d_56">
      <g>
       <use xlink:href="#mdf7be7f730" x="59.465625" y="111.03993" style="stroke: #000000; stroke-width: 0.6"/>
      </g>
     </g>
    </g>
    <g id="ytick_36">
     <g id="line2d_57">
      <g>
       <use xlink:href="#mdf7be7f730" x="59.465625" y="95.351706" style="stroke: #000000; stroke-width: 0.6"/>
      </g>
     </g>
    </g>
    <g id="ytick_37">
     <g id="line2d_58">
      <g>
       <use xlink:href="#mdf7be7f730" x="59.465625" y="79.663482" style="stroke: #000000; stroke-width: 0.6"/>
      </g>
     </g>
    </g>
    <g id="ytick_38">
     <g id="line2d_59">
      <g>
       <use xlink:href="#mdf7be7f730" x="59.465625" y="48.287035" style="stroke: #000000; stroke-width: 0.6"/>
      </g>
     </g>
    </g>
    <g id="text_16">
     <!-- ITR $\mathrm{K} \cdot \mathrm{m}^2 / \mathrm{W}$ -->
     <g transform="translate(28.940625 423.789) rotate(-90) scale(0.3 -0.3)">
      <defs>
       <path id="LiberationSans-49" d="M 591 0 
L 591 4403 
L 1188 4403 
L 1188 0 
L 591 0 
z
" transform="scale(0.015625)"/>
       <path id="LiberationSans-52" d="M 3638 0 
L 2494 1828 
L 1122 1828 
L 1122 0 
L 525 0 
L 525 4403 
L 2597 4403 
Q 3341 4403 3745 4070 
Q 4150 3738 4150 3144 
Q 4150 2653 3864 2318 
Q 3578 1984 3075 1897 
L 4325 0 
L 3638 0 
z
M 3550 3138 
Q 3550 3522 3289 3723 
Q 3028 3925 2538 3925 
L 1122 3925 
L 1122 2300 
L 2563 2300 
Q 3034 2300 3292 2520 
Q 3550 2741 3550 3138 
z
" transform="scale(0.015625)"/>
       <path id="STIXGeneral-Regular-4b" d="M 4627 0 
L 2688 0 
L 2688 122 
L 2861 128 
Q 3130 134 3130 282 
Q 3130 397 2922 643 
Q 2714 890 2253 1370 
L 1613 2029 
L 1446 1894 
L 1446 710 
Q 1446 352 1548 253 
Q 1651 154 2016 122 
L 2016 0 
L 211 0 
L 211 122 
Q 589 141 691 262 
Q 794 384 794 800 
L 794 3514 
Q 794 3872 691 3981 
Q 589 4090 218 4115 
L 218 4237 
L 2022 4237 
L 2022 4115 
Q 1632 4090 1539 3987 
Q 1446 3885 1446 3507 
L 1446 2227 
L 2586 3277 
Q 2861 3533 2973 3667 
Q 3085 3802 3085 3910 
Q 3085 4013 3030 4057 
Q 2976 4102 2822 4109 
L 2662 4115 
L 2662 4237 
L 4320 4237 
L 4320 4115 
Q 3994 4090 3824 4003 
Q 3654 3917 3322 3597 
L 2131 2458 
L 3629 819 
Q 4026 384 4214 253 
Q 4403 122 4627 122 
L 4627 0 
z
" transform="scale(0.015625)"/>
       <path id="STIXGeneral-Regular-22c5" d="M 1187 1888 
Q 1299 1773 1299 1619 
Q 1299 1466 1187 1350 
Q 1075 1235 921 1235 
Q 768 1235 649 1353 
Q 531 1472 531 1619 
Q 531 1766 649 1884 
Q 768 2003 921 2003 
Q 1075 2003 1187 1888 
z
" transform="scale(0.015625)"/>
       <path id="STIXGeneral-Regular-6d" d="M 4960 0 
L 3565 0 
L 3565 96 
Q 3834 122 3907 208 
Q 3981 294 3981 576 
L 3981 1894 
Q 3981 2278 3869 2444 
Q 3757 2611 3488 2611 
Q 3264 2611 3107 2521 
Q 2950 2432 2803 2221 
L 2803 608 
Q 2803 301 2896 201 
Q 2989 102 3264 96 
L 3264 0 
L 1830 0 
L 1830 96 
Q 2112 115 2189 188 
Q 2266 262 2266 550 
L 2266 1901 
Q 2266 2611 1850 2611 
Q 1670 2611 1468 2531 
Q 1267 2451 1171 2336 
Q 1088 2240 1088 2227 
L 1088 448 
Q 1088 243 1177 176 
Q 1267 109 1523 96 
L 1523 0 
L 102 0 
L 102 96 
Q 371 102 460 195 
Q 550 288 550 563 
L 550 2150 
Q 550 2387 499 2480 
Q 448 2573 326 2573 
Q 230 2573 122 2547 
L 122 2656 
Q 557 2778 1011 2944 
L 1062 2925 
L 1062 2451 
L 1075 2451 
Q 1363 2752 1584 2848 
Q 1805 2944 2054 2944 
Q 2560 2944 2733 2406 
Q 3232 2944 3776 2944 
Q 4518 2944 4518 1792 
L 4518 493 
Q 4518 282 4582 202 
Q 4646 122 4794 109 
L 4960 96 
L 4960 0 
z
" transform="scale(0.015625)"/>
       <path id="STIXGeneral-Regular-32" d="M 3034 877 
L 2688 0 
L 186 0 
L 186 77 
L 1325 1286 
Q 1773 1754 1965 2144 
Q 2157 2534 2157 2950 
Q 2157 3379 1920 3616 
Q 1683 3853 1267 3853 
Q 922 3853 720 3673 
Q 518 3494 326 3021 
L 192 3053 
Q 301 3648 630 3987 
Q 960 4326 1523 4326 
Q 2054 4326 2380 4006 
Q 2707 3686 2707 3200 
Q 2707 2477 1888 1613 
L 832 486 
L 2330 486 
Q 2541 486 2665 569 
Q 2790 653 2944 915 
L 3034 877 
z
" transform="scale(0.015625)"/>
       <path id="STIXGeneral-Regular-2f" d="M 1837 4326 
L 378 -90 
L -58 -90 
L 1408 4326 
L 1837 4326 
z
" transform="scale(0.015625)"/>
       <path id="STIXGeneral-Regular-57" d="M 5965 4237 
L 5965 4115 
Q 5709 4064 5616 3990 
Q 5523 3917 5434 3667 
Q 4704 1709 4128 -70 
L 4032 -70 
Q 3642 1011 3008 2637 
L 2022 -70 
L 1926 -70 
Q 1709 576 1277 1753 
Q 845 2931 698 3347 
Q 538 3808 406 3958 
Q 275 4109 32 4115 
L 32 4237 
L 1594 4237 
L 1594 4115 
Q 1357 4109 1270 4064 
Q 1184 4019 1184 3917 
Q 1184 3808 1254 3616 
L 2176 1210 
L 2842 3021 
L 2662 3501 
Q 2509 3917 2400 4013 
Q 2291 4109 2010 4115 
L 2010 4237 
L 3706 4237 
L 3706 4115 
Q 3213 4102 3213 3891 
Q 3213 3808 3322 3520 
L 4237 1190 
L 5043 3360 
Q 5152 3667 5152 3853 
Q 5152 4109 4704 4115 
L 4704 4237 
L 5965 4237 
z
" transform="scale(0.015625)"/>
      </defs>
      <use xlink:href="#LiberationSans-49" transform="translate(0 0.409375)"/>
      <use xlink:href="#LiberationSans-54" transform="translate(27.783203 0.409375)"/>
      <use xlink:href="#LiberationSans-52" transform="translate(88.867188 0.409375)"/>
      <use xlink:href="#LiberationSans-20" transform="translate(161.083984 0.409375)"/>
      <use xlink:href="#STIXGeneral-Regular-4b" transform="translate(188.867188 0.409375)"/>
      <use xlink:href="#STIXGeneral-Regular-22c5" transform="translate(275.507166 0.409375)"/>
      <use xlink:href="#STIXGeneral-Regular-6d" transform="translate(318.547153 0.409375)"/>
      <use xlink:href="#STIXGeneral-Regular-32" transform="translate(397.890422 35.684375) scale(0.7)"/>
      <use xlink:href="#STIXGeneral-Regular-2f" transform="translate(437.299786 0.409375)"/>
      <use xlink:href="#STIXGeneral-Regular-57" transform="translate(465.099774 0.409375)"/>
     </g>
    </g>
    <g id="text_17">
     <!-- $\times\mathdefault{10^{−6}}\mathdefault{}$ -->
     <g transform="translate(59.465625 36.1875) scale(0.4 -0.4)">
      <defs>
       <path id="STIXGeneral-Regular-d7" d="M 3821 141 
L 3526 -160 
L 2048 1312 
L 570 -160 
L 275 134 
L 1747 1613 
L 275 3091 
L 576 3386 
L 2048 1914 
L 3526 3386 
L 3821 3098 
L 2349 1613 
L 3821 141 
z
" transform="scale(0.015625)"/>
       <path id="LiberationSans-2212" d="M 316 1900 
L 316 2356 
L 3425 2356 
L 3425 1900 
L 316 1900 
z
" transform="scale(0.015625)"/>
      </defs>
      <use xlink:href="#STIXGeneral-Regular-d7" transform="translate(0 0.140625)"/>
      <use xlink:href="#LiberationSans-31" transform="translate(63.999985 0.140625)"/>
      <use xlink:href="#LiberationSans-30" transform="translate(119.615219 0.140625)"/>
      <use xlink:href="#LiberationSans-2212" transform="translate(176.154946 37.120312) scale(0.7)"/>
      <use xlink:href="#LiberationSans-36" transform="translate(217.033852 37.120312) scale(0.7)"/>
     </g>
    </g>
   </g>
   <g id="line2d_60">
    <path d="M 88.775625 613.063091 
L 88.834257 66.514909 
L 88.892888 339.666511 
L 89.068784 503.361015 
L 89.303311 551.606213 
L 89.596469 572.872764 
L 89.94826 584.06527 
L 90.358682 590.515026 
L 90.827735 594.360691 
L 91.296789 596.40455 
L 91.707211 597.344696 
L 92.059002 597.717243 
L 92.410792 597.77481 
L 92.762582 597.560712 
L 93.173004 596.994916 
L 93.642058 595.938758 
L 94.169744 594.198617 
L 94.756061 591.480942 
L 95.40101 587.309616 
L 96.045959 581.490754 
L 96.690908 573.349991 
L 97.277225 563.0406 
L 97.863543 548.72226 
L 98.44986 528.801944 
L 99.094809 498.754451 
L 100.619234 422.57948 
L 100.853761 419.752352 
L 100.912392 419.693309 
L 101.029656 420.338892 
L 101.205551 423.108248 
L 101.49871 431.753253 
L 102.085027 457.501851 
L 103.140398 502.490393 
L 103.843979 523.041446 
L 104.488928 535.999544 
L 105.133877 544.855303 
L 105.778826 550.761042 
L 106.365143 554.234614 
L 106.892828 556.152225 
L 107.303251 556.977292 
L 107.655041 557.26947 
L 107.9482 557.239198 
L 108.241358 556.970014 
L 108.593149 556.339145 
L 109.062202 554.98041 
L 109.589888 552.736816 
L 110.234837 548.928461 
L 110.938418 543.364242 
L 111.759262 534.939747 
L 112.756001 522.095702 
L 115.10127 490.32987 
L 115.628956 486.295741 
L 116.039378 484.689566 
L 116.273905 484.410493 
L 116.4498 484.503656 
L 116.684327 485.016481 
L 117.036117 486.5551 
L 117.505171 489.813264 
L 118.267383 497.01732 
L 120.084967 514.726854 
L 120.847179 519.864773 
L 121.492128 522.766146 
L 122.019814 524.171945 
L 122.430236 524.702407 
L 122.723395 524.803161 
L 123.016553 524.690907 
L 123.368344 524.301014 
L 123.837397 523.404788 
L 124.482346 521.617168 
L 125.479086 518.065669 
L 128.293409 507.678986 
L 128.996989 505.918864 
L 129.466043 505.208027 
L 129.817833 504.997199 
L 130.110992 505.06826 
L 130.404151 505.385544 
L 130.755941 506.109425 
L 131.224995 507.662587 
L 131.811312 510.476685 
L 132.632156 515.62627 
L 135.094689 531.783064 
L 135.974165 535.879827 
L 136.795009 538.72511 
L 137.557221 540.637856 
L 138.319434 541.973556 
L 139.023014 542.782408 
L 139.667963 543.21679 
L 140.312912 543.391055 
L 140.957861 543.336321 
L 141.720074 543.03113 
L 142.834077 542.305542 
L 144.241238 541.435457 
L 145.062082 541.182818 
L 145.882926 541.172858 
L 146.821034 541.401393 
L 150.690728 542.622536 
L 151.570204 542.571262 
L 152.391048 542.296 
L 153.153261 541.797364 
L 153.974105 540.967738 
L 154.853581 539.735554 
L 155.85032 537.934227 
L 157.022954 535.313509 
L 158.312852 531.843742 
L 159.954541 526.700535 
L 161.948019 520.560586 
L 162.944759 518.217447 
L 163.824235 516.702346 
L 164.703711 515.623486 
L 165.70045 514.760347 
L 166.755821 514.139373 
L 167.635297 513.860931 
L 168.456141 513.833824 
L 169.335617 514.044058 
L 170.80141 514.688498 
L 172.736257 515.453256 
L 173.908892 516.010357 
L 174.729736 516.656885 
L 175.55058 517.592518 
L 176.605951 519.172251 
L 178.540798 522.582574 
L 180.768804 526.861446 
L 182.938178 531.639824 
L 184.462602 534.731236 
L 185.517973 536.373187 
L 186.456081 537.417893 
L 187.335557 538.069445 
L 188.273665 538.482872 
L 189.387667 538.710152 
L 191.029356 538.778976 
L 193.667783 538.897942 
L 198.123795 539.343191 
L 199.120534 539.07157 
L 200.058642 538.576501 
L 200.996749 537.822704 
L 201.934857 536.786097 
L 202.931596 535.349605 
L 204.045599 533.325566 
L 205.394129 530.359179 
L 209.732876 520.349903 
L 210.905511 518.407563 
L 211.90225 517.151737 
L 212.781726 516.369913 
L 213.60257 515.929518 
L 214.364783 515.766796 
L 215.185627 515.827919 
L 216.182366 516.148689 
L 218.234477 517.13283 
L 221.986907 519.034947 
L 223.218174 520.02671 
L 224.508071 521.35822 
L 226.032496 523.264029 
L 227.85008 525.907426 
L 229.843559 529.202249 
L 234.827255 537.734007 
L 235.823995 538.80182 
L 236.703471 539.436015 
L 237.582946 539.803004 
L 238.521054 539.946501 
L 239.517793 539.868977 
L 240.573165 539.562509 
L 241.745799 538.983047 
L 246.20181 536.4936 
L 247.960762 535.728772 
L 248.89887 535.056132 
L 249.778346 534.153667 
L 250.775085 532.796935 
L 252.006351 530.715818 
L 256.696889 522.342009 
L 258.045419 520.634891 
L 259.393949 519.290839 
L 260.566583 518.421988 
L 261.446059 518.018389 
L 262.208272 517.900976 
L 262.911852 518.017759 
L 263.615433 518.356937 
L 264.494909 519.054346 
L 265.843439 520.472938 
L 267.836917 522.525577 
L 269.830396 524.176456 
L 272.117033 526.168049 
L 275.224515 528.887029 
L 279.211472 532.272234 
L 283.55022 535.921108 
L 284.840118 536.726764 
L 285.895489 537.131248 
L 286.892228 537.2823 
L 288.006231 537.218755 
L 289.296129 536.911733 
L 290.703291 536.348469 
L 292.110452 535.549375 
L 293.75214 534.346103 
L 295.804251 532.560682 
L 297.328676 530.955555 
L 298.735837 529.135707 
L 302.371004 524.229364 
L 304.012692 522.561627 
L 306.709752 520.170326 
L 308.644599 518.712384 
L 309.817233 518.079561 
L 310.638077 517.861918 
L 311.341658 517.892004 
L 311.986607 518.131269 
L 312.690188 518.635625 
L 313.511032 519.513681 
L 314.80093 521.281522 
L 316.50125 523.543164 
L 317.615253 524.64131 
L 319.022414 525.675124 
L 320.839998 527.043792 
L 325.237377 530.687512 
L 327.934437 532.269207 
L 329.810652 533.16263 
L 331.510972 533.715494 
L 333.738978 534.198276 
L 335.263403 534.319842 
L 336.553301 534.192344 
L 337.960462 533.817215 
L 339.719414 533.108687 
L 341.243839 532.264993 
L 342.533737 531.29017 
L 343.99953 529.876711 
L 346.931116 526.631796 
L 349.804071 523.581416 
L 350.976705 522.648963 
L 351.914813 522.179632 
L 352.794289 521.984039 
L 353.791028 521.999717 
L 355.374085 522.291365 
L 357.484827 522.624644 
L 360.592308 522.999204 
L 361.647679 523.409005 
L 362.761682 524.089408 
L 364.05158 525.151258 
L 366.396849 527.440664 
L 369.15254 530.014868 
L 370.794229 531.27616 
L 371.966863 531.921462 
L 373.022234 532.249145 
L 374.077605 532.335612 
L 375.543399 532.199924 
L 377.185087 532.101539 
L 378.240458 532.269735 
L 379.471724 532.710783 
L 381.523835 533.472364 
L 382.520574 533.570392 
L 383.517313 533.434113 
L 384.983106 532.96828 
L 387.387007 532.225818 
L 389.615013 531.542581 
L 390.904911 530.881213 
L 392.487967 529.784701 
L 395.536817 527.625429 
L 399.582406 525.076842 
L 402.044939 523.229959 
L 402.865783 522.916415 
L 403.627995 522.864777 
L 404.390208 523.044171 
L 405.328316 523.518811 
L 407.145899 524.775795 
L 408.728956 525.730214 
L 410.253381 526.378119 
L 413.360862 527.624352 
L 414.943919 528.581641 
L 418.344559 530.762238 
L 419.517193 531.171684 
L 420.865723 531.392311 
L 423.621414 531.791271 
L 426.259842 532.259611 
L 427.667003 532.239457 
L 430.129536 531.927352 
L 433.823335 531.298591 
L 434.995969 530.863282 
L 435.934077 530.285949 
L 436.872184 529.440639 
L 437.986187 528.100536 
L 440.624615 524.759472 
L 441.386827 524.200997 
L 442.090408 523.943725 
L 442.793989 523.917299 
L 443.673465 524.131453 
L 445.256521 524.820449 
L 446.780946 525.383246 
L 447.953581 525.585176 
L 449.126215 525.558093 
L 450.416113 525.293435 
L 453.758121 524.468077 
L 454.813493 524.530521 
L 456.162022 524.850391 
L 458.565923 525.679407 
L 459.679926 526.27451 
L 460.676665 527.068004 
L 461.8493 528.318736 
L 464.194569 530.893356 
L 465.074045 531.499788 
L 465.894889 531.803751 
L 466.774365 531.878088 
L 467.946999 531.721082 
L 469.764583 531.475259 
L 470.878586 531.578427 
L 472.344379 531.977785 
L 473.986067 532.369029 
L 475.041438 532.379865 
L 476.155441 532.154222 
L 477.973024 531.507156 
L 482.487667 529.694983 
L 485.243359 528.410966 
L 486.533257 528.0939 
L 488.116313 527.958937 
L 493.979486 527.64179 
L 495.328015 527.344335 
L 496.617913 526.830247 
L 499.666763 525.491496 
L 500.546239 525.4136 
L 501.425715 525.553588 
L 502.481086 525.959793 
L 504.767723 527.176527 
L 507.464783 528.450443 
L 512.331216 530.623952 
L 515.145539 531.485682 
L 516.435437 532.217322 
L 518.546179 533.444353 
L 519.425655 533.678629 
L 520.187867 533.666307 
L 521.008712 533.422966 
L 521.946819 532.891579 
L 523.236717 531.866198 
L 526.695989 528.975502 
L 527.692728 528.473779 
L 528.513573 528.286695 
L 529.334417 528.331692 
L 530.213893 528.621995 
L 531.445159 529.305372 
L 533.028216 530.153828 
L 533.84906 530.354582 
L 534.611272 530.309053 
L 535.314853 530.045377 
L 536.077065 529.520787 
L 537.015173 528.575231 
L 538.363703 526.842874 
L 540.064023 524.706879 
L 540.943499 523.941068 
L 541.647079 523.597685 
L 542.292028 523.520724 
L 542.936977 523.67345 
L 543.640558 524.080888 
L 544.520034 524.870682 
L 547.979306 528.30769 
L 548.80015 528.659708 
L 549.620994 528.770685 
L 550.559102 528.659118 
L 551.849 528.257437 
L 554.721954 527.313985 
L 555.835957 527.20617 
L 556.774065 527.338051 
L 557.653541 527.69002 
L 558.65028 528.349687 
L 560.467863 529.913703 
L 561.640498 530.762738 
L 562.519974 531.135056 
L 563.282186 531.224822 
L 564.044399 531.091619 
L 564.865243 530.722959 
L 565.979246 529.95047 
L 568.617673 528.003991 
L 569.555781 527.629904 
L 570.493889 527.501577 
L 571.54926 527.604792 
L 573.190948 528.037997 
L 575.418954 528.584197 
L 576.826115 528.694648 
L 577.99875 528.565704 
L 579.112752 528.221091 
L 580.40265 527.579822 
L 583.510132 525.927697 
L 584.624135 525.645066 
L 585.738138 525.592155 
L 587.028035 525.768807 
L 590.663203 526.417168 
L 594.181106 526.691128 
L 599.985647 528.006051 
L 602.44818 528.862342 
L 603.913973 529.217204 
L 605.321134 529.314498 
L 614.643579 529.43635 
L 617.340638 529.472983 
L 618.513273 529.267013 
L 619.568644 528.860097 
L 620.741278 528.148479 
L 623.555601 526.290957 
L 624.376445 526.097084 
L 625.138658 526.140764 
L 626.018134 526.419564 
L 627.542558 527.191383 
L 629.184247 527.935061 
L 630.474145 528.26927 
L 631.705411 528.35681 
L 632.936677 528.218134 
L 634.343839 527.820334 
L 636.337317 526.99588 
L 640.265643 525.331024 
L 641.262382 525.192169 
L 642.141858 525.296514 
L 643.021334 525.631692 
L 644.135337 526.321538 
L 647.008292 528.228354 
L 648.29819 528.725304 
L 650.233036 529.190257 
L 652.754201 529.6107 
L 654.337257 529.636059 
L 658.089688 529.567349 
L 660.493589 529.614821 
L 661.959382 529.385926 
L 666.884447 528.393378 
L 669.522874 528.275125 
L 671.105931 528.10561 
L 672.219934 527.765673 
L 673.392568 527.162033 
L 674.975625 526.175782 
L 674.975625 526.175782 
" clip-path="url(#pf9cc007cd0)" style="fill: none; stroke: #ff0000; stroke-width: 1.5; stroke-linecap: square"/>
   </g>
   <g id="line2d_61">
    <path d="M 88.775625 613.063091 
L 88.834257 68.156556 
L 88.892888 340.113737 
L 89.068784 503.268803 
L 89.303311 551.35374 
L 89.596469 572.53335 
L 89.94826 583.666401 
L 90.358682 590.069983 
L 90.827735 593.874071 
L 91.296789 595.880582 
L 91.707211 596.788833 
L 92.059002 597.134172 
L 92.35216 597.179619 
L 92.703951 596.984159 
L 93.114373 596.444221 
L 93.583427 595.437641 
L 94.169744 593.59483 
L 94.814693 590.769019 
L 95.518274 586.601572 
L 96.221854 581.079885 
L 96.984067 573.180382 
L 97.746279 562.756712 
L 98.567123 548.311508 
L 100.384707 514.562349 
L 100.795129 511.122693 
L 101.029656 510.409689 
L 101.146919 510.395761 
L 101.322814 510.781538 
L 101.557341 511.990185 
L 101.967763 515.645424 
L 102.729976 525.232075 
L 103.90261 539.530956 
L 104.664823 546.343343 
L 105.368404 550.82593 
L 106.013353 553.621891 
L 106.59967 555.207959 
L 107.068724 555.890207 
L 107.420514 556.086402 
L 107.772304 556.026981 
L 108.124095 555.72544 
L 108.593149 554.967638 
L 109.120834 553.659109 
L 109.824415 551.271738 
L 110.879786 546.790834 
L 112.169684 541.484229 
L 112.814633 539.706614 
L 113.283687 538.98111 
L 113.635477 538.765341 
L 113.987267 538.812668 
L 114.397689 539.150887 
L 114.984007 540.002562 
L 116.039378 542.054591 
L 117.622434 545.031617 
L 118.736437 546.639298 
L 119.791808 547.815297 
L 120.671284 548.499485 
L 121.492128 548.857849 
L 122.782026 549.109482 
L 123.837397 549.427432 
L 126.417193 550.466015 
L 126.944879 550.311441 
L 127.472564 549.91246 
L 128.058882 549.166967 
L 128.762462 547.860162 
L 129.817833 545.311588 
L 131.0491 542.448461 
L 131.694049 541.460084 
L 132.221734 541.035225 
L 132.690788 540.944616 
L 133.159842 541.094083 
L 133.746159 541.546211 
L 134.80153 542.73139 
L 135.856901 543.820969 
L 136.443219 544.15377 
L 136.970904 544.211993 
L 137.49859 544.036547 
L 138.084907 543.581871 
L 138.788488 542.732161 
L 139.785227 541.109894 
L 141.368284 538.50681 
L 142.013233 537.874774 
L 142.540918 537.636737 
L 143.009972 537.663236 
L 143.479026 537.912737 
L 144.065343 538.504841 
L 144.710292 539.482319 
L 145.531136 541.158678 
L 146.586507 543.843863 
L 148.755881 549.513954 
L 149.576725 550.987438 
L 150.280306 551.827782 
L 150.866623 552.221771 
L 151.45294 552.350413 
L 152.039258 552.233781 
L 152.684207 551.853752 
L 153.446419 551.123811 
L 154.560422 549.697707 
L 156.847059 546.698211 
L 157.726535 545.937408 
L 158.488748 545.561257 
L 159.25096 545.444216 
L 160.071804 545.549987 
L 161.537597 546.022104 
L 162.710232 546.289382 
L 163.589708 546.266745 
L 164.586447 546.005688 
L 167.224875 545.170204 
L 168.045719 545.214785 
L 168.866563 545.483479 
L 169.863303 546.064514 
L 173.146679 548.1837 
L 174.026155 548.400067 
L 174.905631 548.385489 
L 175.961002 548.123112 
L 178.658061 547.314815 
L 179.537537 547.342862 
L 180.475645 547.601476 
L 181.706911 548.198473 
L 184.521234 549.654231 
L 185.459342 549.856374 
L 186.280186 549.820461 
L 187.159662 549.548492 
L 188.215033 548.958084 
L 190.736197 547.423192 
L 191.615673 547.20942 
L 192.612412 547.212484 
L 195.133577 547.384736 
L 195.895789 547.122036 
L 196.658001 546.601104 
L 197.478846 545.754435 
L 198.534217 544.320684 
L 200.762222 541.186634 
L 201.407171 540.684772 
L 201.934857 540.547252 
L 202.403911 540.665893 
L 202.872964 541.024363 
L 203.40065 541.711526 
L 204.104231 543.044983 
L 205.10097 545.496051 
L 207.094449 550.482845 
L 207.973925 552.034859 
L 208.736137 552.936018 
L 209.381086 553.375027 
L 209.967403 553.531913 
L 210.553721 553.477837 
L 211.19867 553.20128 
L 211.960882 552.628908 
L 212.957621 551.579522 
L 214.716573 549.322046 
L 216.123735 547.668349 
L 217.120474 546.8331 
L 218.058582 546.337252 
L 219.289848 545.967476 
L 221.107431 545.41885 
L 222.397329 544.758392 
L 224.390808 543.715893 
L 225.270284 543.526063 
L 226.032496 543.579262 
L 226.853341 543.86969 
L 227.732816 544.424854 
L 228.905451 545.454445 
L 231.661142 547.973809 
L 232.540618 548.426124 
L 233.244199 548.556923 
L 233.947779 548.467432 
L 234.768624 548.128589 
L 237.758842 546.633822 
L 238.462422 546.668056 
L 239.224635 546.931124 
L 240.221374 547.538859 
L 243.270224 549.589869 
L 244.208332 549.873389 
L 245.087807 549.910143 
L 246.025915 549.723238 
L 247.491708 549.157261 
L 248.89887 548.692443 
L 249.836977 548.626769 
L 250.833717 548.791408 
L 253.237617 549.306465 
L 253.99983 549.190219 
L 254.703411 548.859821 
L 255.406991 548.287908 
L 256.227835 547.309075 
L 257.165943 545.806193 
L 258.631736 542.932289 
L 259.804371 540.834099 
L 260.44932 540.095511 
L 260.918374 539.848119 
L 261.328796 539.86764 
L 261.739218 540.123001 
L 262.208272 540.70431 
L 262.794589 541.826356 
L 263.615433 543.955841 
L 266.312492 551.424096 
L 267.074705 552.756905 
L 267.719654 553.503498 
L 268.305971 553.886184 
L 268.892288 554.010328 
L 269.478606 553.90406 
L 270.123555 553.559771 
L 270.944399 552.849696 
L 272.117033 551.49919 
L 274.227775 549.03674 
L 275.107251 548.355637 
L 275.928095 547.997439 
L 276.807571 547.87159 
L 279.856421 547.692133 
L 280.853161 547.258858 
L 283.90201 545.73666 
L 284.781486 545.641158 
L 285.719594 545.773721 
L 286.716333 546.147242 
L 288.475285 547.104531 
L 289.882446 547.751859 
L 290.820554 547.934948 
L 291.641398 547.869468 
L 292.520874 547.566278 
L 293.869404 546.819104 
L 295.10067 546.219025 
L 295.862882 546.082431 
L 296.566463 546.193302 
L 297.270044 546.539459 
L 298.14952 547.242581 
L 301.726055 550.451958 
L 302.546899 550.73942 
L 303.309112 550.767767 
L 304.071324 550.571958 
L 304.9508 550.106231 
L 306.357961 549.059656 
L 307.765123 548.101222 
L 308.703231 547.737568 
L 309.582706 547.632232 
L 310.872604 547.741883 
L 312.103871 547.77582 
L 312.866083 547.582015 
L 313.628296 547.147705 
L 314.44914 546.395022 
L 315.387247 545.213503 
L 317.146199 542.528048 
L 318.142938 541.224415 
L 318.787887 540.704867 
L 319.315573 540.55732 
L 319.784627 540.671355 
L 320.253681 541.028859 
L 320.781366 541.719086 
L 321.484947 543.059227 
L 322.481686 545.528548 
L 324.65106 551.042423 
L 325.530536 552.599999 
L 326.234117 553.438798 
L 326.879066 553.882499 
L 327.465383 554.030447 
L 328.0517 553.958209 
L 328.755281 553.625086 
L 329.634757 552.927168 
L 331.217813 551.303577 
L 332.683607 549.931261 
L 333.621714 549.345973 
L 334.442558 549.085142 
L 335.322034 549.036506 
L 338.546779 549.101825 
L 339.543519 548.73937 
L 342.651 547.410322 
L 343.471844 547.405365 
L 344.292688 547.619546 
L 345.230796 548.105632 
L 346.696589 549.166184 
L 348.396909 550.332477 
L 349.335017 550.698466 
L 350.155861 550.770079 
L 350.918073 550.616381 
L 351.856181 550.188693 
L 354.494609 548.827096 
L 355.256821 548.747828 
L 356.019034 548.894143 
L 356.839878 549.287499 
L 357.895249 550.068833 
L 360.885467 552.451776 
L 361.764943 552.79182 
L 362.585787 552.867535 
L 363.406631 552.704086 
L 364.344739 552.269369 
L 367.569484 550.532977 
L 368.566223 550.419924 
L 371.146019 550.292619 
L 371.908232 549.938532 
L 372.670444 549.333161 
L 373.54992 548.32637 
L 374.781186 546.517758 
L 376.481506 544.053943 
L 377.185087 543.407417 
L 377.712772 543.1815 
L 378.181826 543.20212 
L 378.65088 543.445892 
L 379.178566 543.986576 
L 379.823515 544.999455 
L 380.70299 546.860936 
L 383.75184 553.769467 
L 384.572684 554.884742 
L 385.276265 555.471218 
L 385.921214 555.713487 
L 386.507531 555.705597 
L 387.15248 555.475231 
L 387.914693 554.956985 
L 388.970064 553.932235 
L 392.194809 550.582689 
L 393.132916 550.042205 
L 394.188288 549.706726 
L 396.357661 549.109346 
L 397.471664 548.494377 
L 399.816933 547.077525 
L 400.579146 546.931444 
L 401.282726 547.022948 
L 402.044939 547.364553 
L 402.983046 548.060521 
L 404.683367 549.679718 
L 406.090528 550.882383 
L 407.028636 551.402983 
L 407.790848 551.573131 
L 408.494429 551.493401 
L 409.198009 551.183456 
L 410.077485 550.523597 
L 412.657281 548.380724 
L 413.360862 548.187755 
L 414.005811 548.253751 
L 414.709392 548.568206 
L 415.647499 549.273045 
L 418.872244 551.948102 
L 419.810352 552.341026 
L 420.689828 552.47499 
L 421.627935 552.382847 
L 422.741938 552.022611 
L 424.559522 551.14439 
L 426.20121 550.451297 
L 427.842898 550.025387 
L 429.543219 549.533341 
L 430.539958 548.990868 
L 431.478065 548.211122 
L 432.533437 547.013261 
L 434.116493 544.805207 
L 435.347759 543.229338 
L 436.05134 542.648487 
L 436.579026 542.457144 
L 437.048079 542.49478 
L 437.517133 542.741979 
L 438.044819 543.273405 
L 438.689768 544.25885 
L 439.569244 546.063775 
L 442.50083 552.498054 
L 443.321674 553.62418 
L 444.025255 554.243533 
L 444.670204 554.533002 
L 445.315153 554.572132 
L 445.960102 554.384268 
L 446.722314 553.911159 
L 447.660422 553.043469 
L 449.30211 551.148881 
L 450.65064 549.734809 
L 451.530116 549.107168 
L 452.35096 548.780431 
L 453.289068 548.652073 
L 456.044759 548.44505 
L 457.158762 548.002598 
L 459.328136 547.065312 
L 460.14898 546.992901 
L 460.911192 547.152243 
L 461.732036 547.553555 
L 462.846039 548.372829 
L 465.308572 550.260006 
L 466.188047 550.619417 
L 466.95026 550.68773 
L 467.653841 550.529725 
L 468.474685 550.101479 
L 469.881846 549.043816 
L 470.937217 548.380844 
L 471.640798 548.182978 
L 472.285747 548.231977 
L 472.989328 548.534849 
L 473.810172 549.150904 
L 475.217333 550.536935 
L 476.976285 552.185281 
L 478.031656 552.88237 
L 478.911132 553.213044 
L 479.673345 553.280244 
L 480.435557 553.125451 
L 481.256401 552.722744 
L 482.311772 551.937579 
L 484.246619 550.463725 
L 485.126095 550.095465 
L 486.005571 549.962441 
L 487.412732 550.017946 
L 488.585367 549.97078 
L 489.406211 549.723523 
L 490.285687 549.209622 
L 491.282426 548.345473 
L 494.565803 545.237506 
L 495.15212 545.092035 
L 495.679806 545.178925 
L 496.207491 545.489642 
L 496.793809 546.098381 
L 497.556021 547.259203 
L 498.611392 549.347639 
L 500.663503 553.473214 
L 501.542978 554.71296 
L 502.246559 555.355697 
L 502.891508 555.658092 
L 503.477825 555.7057 
L 504.122774 555.531483 
L 504.884987 555.067114 
L 505.881726 554.160725 
L 508.813313 551.316228 
L 509.75142 550.786584 
L 510.689528 550.508636 
L 511.920794 550.400937 
L 514.090168 550.237291 
L 515.262802 549.883506 
L 518.135757 548.869413 
L 518.956601 548.904629 
L 519.777445 549.174602 
L 520.715553 549.738803 
L 524.057561 552.029211 
L 524.937037 552.222565 
L 525.757881 552.169869 
L 526.637357 551.875886 
L 527.75136 551.236616 
L 529.979366 549.88764 
L 530.80021 549.675039 
L 531.562422 549.713654 
L 532.383267 550.0001 
L 533.438638 550.640235 
L 536.077065 552.362065 
L 537.073805 552.693132 
L 538.070544 552.79281 
L 539.125915 552.676286 
L 540.474445 552.279475 
L 542.995609 551.47137 
L 544.285507 551.360499 
L 546.278986 551.218268 
L 547.09983 550.903792 
L 547.920674 550.336343 
L 548.858782 549.38527 
L 550.324575 547.509043 
L 551.849 545.668302 
L 552.669844 545.011481 
L 553.314793 544.773939 
L 553.842478 544.801831 
L 554.370164 545.050825 
L 554.956481 545.597213 
L 555.60143 546.517085 
L 556.422274 548.09263 
L 557.888067 551.510052 
L 559.119334 554.164173 
L 559.99881 555.557442 
L 560.70239 556.284842 
L 561.288708 556.610801 
L 561.875025 556.687487 
L 562.461342 556.53179 
L 563.106291 556.125076 
L 563.927135 555.329471 
L 565.627455 553.263238 
L 566.80009 552.034199 
L 567.620934 551.468065 
L 568.383147 551.203354 
L 569.203991 551.167042 
L 570.376625 551.373955 
L 571.783787 551.577846 
L 572.663263 551.486744 
L 573.60137 551.151635 
L 574.9499 550.376926 
L 576.357061 549.639305 
L 577.236537 549.412965 
L 578.057381 549.427516 
L 578.878226 549.662049 
L 579.816333 550.161672 
L 581.282126 551.2349 
L 582.806551 552.273433 
L 583.686027 552.609238 
L 584.44824 552.657414 
L 585.15182 552.483082 
L 586.031296 552.010248 
L 588.669724 550.393175 
L 589.373305 550.316028 
L 590.076885 550.465432 
L 590.897729 550.877071 
L 592.187627 551.813918 
L 594.005211 553.099137 
L 595.00195 553.54185 
L 595.881426 553.691267 
L 596.760902 553.601805 
L 597.69901 553.265411 
L 598.988908 552.523629 
L 600.689228 551.563333 
L 601.568704 551.323404 
L 602.44818 551.311297 
L 603.679446 551.545647 
L 605.145239 551.777175 
L 605.966083 551.6873 
L 606.786927 551.36358 
L 607.666403 550.751243 
L 608.721774 549.724066 
L 611.360202 547.00384 
L 612.005151 546.688548 
L 612.591468 546.647203 
L 613.119154 546.839421 
L 613.705471 547.316565 
L 614.409052 548.231026 
L 615.347159 549.888176 
L 617.809692 554.491409 
L 618.630536 555.460448 
L 619.334117 555.969518 
L 619.979066 556.181946 
L 620.624015 556.174034 
L 621.327595 555.945744 
L 622.207071 555.40246 
L 623.496969 554.291656 
L 625.54908 552.527404 
L 626.545819 551.981952 
L 627.425295 551.745044 
L 628.539298 551.697835 
L 630.708672 551.661452 
L 631.764043 551.375659 
L 632.936677 550.810638 
L 635.047419 549.762648 
L 635.985527 549.572681 
L 636.865003 549.629632 
L 637.80311 549.927603 
L 639.034377 550.579838 
L 641.262382 551.787603 
L 642.259122 552.058993 
L 643.138598 552.066839 
L 644.018073 551.836417 
L 645.073445 551.297806 
L 647.360082 550.038338 
L 648.122294 549.926116 
L 648.825875 550.059086 
L 649.588087 550.452195 
L 650.526195 551.207573 
L 653.516413 553.819171 
L 654.337257 554.166187 
L 655.09947 554.257171 
L 655.861682 554.116634 
L 656.682526 553.72344 
L 657.796529 552.901533 
L 659.672744 551.488056 
L 660.493589 551.164691 
L 661.314433 551.091449 
L 662.311172 551.250691 
L 664.011492 551.54143 
L 664.773705 551.428471 
L 665.535917 551.088611 
L 666.415393 550.432606 
L 667.705291 549.145568 
L 669.581506 547.300326 
L 670.40235 546.812368 
L 671.047299 546.691338 
L 671.574985 546.810213 
L 672.10267 547.150964 
L 672.688988 547.802492 
L 673.392568 548.937129 
L 674.389308 551.024486 
L 674.975625 552.365256 
L 674.975625 552.365256 
" clip-path="url(#pf9cc007cd0)" style="fill: none; stroke: #0000ff; stroke-width: 1.5; stroke-linecap: square"/>
   </g>
   <g id="patch_3">
    <path d="M 59.465625 640.3905 
L 59.465625 39.1875 
" style="fill: none; stroke: #000000; stroke-width: 0.8; stroke-linejoin: miter; stroke-linecap: square"/>
   </g>
   <g id="patch_4">
    <path d="M 704.285625 640.3905 
L 704.285625 39.1875 
" style="fill: none; stroke: #000000; stroke-width: 0.8; stroke-linejoin: miter; stroke-linecap: square"/>
   </g>
   <g id="patch_5">
    <path d="M 59.465625 640.3905 
L 704.285625 640.3905 
" style="fill: none; stroke: #000000; stroke-width: 0.8; stroke-linejoin: miter; stroke-linecap: square"/>
   </g>
   <g id="patch_6">
    <path d="M 59.465625 39.1875 
L 704.285625 39.1875 
" style="fill: none; stroke: #000000; stroke-width: 0.8; stroke-linejoin: miter; stroke-linecap: square"/>
   </g>
   <g id="legend_1">
    <g id="patch_7">
     <path d="M 507.274688 149.11875 
L 683.285625 149.11875 
Q 689.285625 149.11875 689.285625 143.11875 
L 689.285625 60.1875 
Q 689.285625 54.1875 683.285625 54.1875 
L 507.274688 54.1875 
Q 501.274688 54.1875 501.274688 60.1875 
L 501.274688 143.11875 
Q 501.274688 149.11875 507.274688 149.11875 
z
" style="fill: #ffffff; opacity: 0.8; stroke: #cccccc; stroke-linejoin: miter"/>
    </g>
    <g id="line2d_62">
     <path d="M 513.274688 77.428125 
L 543.274688 77.428125 
L 573.274688 77.428125 
" style="fill: none; stroke: #ff0000; stroke-width: 1.5; stroke-linecap: square"/>
    </g>
    <g id="text_18">
     <!-- MD -->
     <g transform="translate(597.274688 87.928125) scale(0.3 -0.3)">
      <defs>
       <path id="LiberationSans-4d" d="M 4269 0 
L 4269 2938 
Q 4269 3425 4297 3875 
Q 4144 3316 4022 3000 
L 2884 0 
L 2466 0 
L 1313 3000 
L 1138 3531 
L 1034 3875 
L 1044 3528 
L 1056 2938 
L 1056 0 
L 525 0 
L 525 4403 
L 1309 4403 
L 2481 1350 
Q 2544 1166 2601 955 
Q 2659 744 2678 650 
Q 2703 775 2783 1029 
Q 2863 1284 2891 1350 
L 4041 4403 
L 4806 4403 
L 4806 0 
L 4269 0 
z
" transform="scale(0.015625)"/>
       <path id="LiberationSans-44" d="M 4316 2247 
Q 4316 1566 4050 1055 
Q 3784 544 3296 272 
Q 2809 0 2172 0 
L 525 0 
L 525 4403 
L 1981 4403 
Q 3100 4403 3708 3842 
Q 4316 3281 4316 2247 
z
M 3716 2247 
Q 3716 3066 3267 3495 
Q 2819 3925 1969 3925 
L 1122 3925 
L 1122 478 
L 2103 478 
Q 2588 478 2955 690 
Q 3322 903 3519 1303 
Q 3716 1703 3716 2247 
z
" transform="scale(0.015625)"/>
      </defs>
      <use xlink:href="#LiberationSans-4d"/>
      <use xlink:href="#LiberationSans-44" x="83.300781"/>
     </g>
    </g>
    <g id="line2d_63">
     <path d="M 513.274688 120.39375 
L 543.274688 120.39375 
L 573.274688 120.39375 
" style="fill: none; stroke: #0000ff; stroke-width: 1.5; stroke-linecap: square"/>
    </g>
    <g id="text_19">
     <!-- GANs -->
     <g transform="translate(597.274688 130.89375) scale(0.3 -0.3)">
      <defs>
       <path id="LiberationSans-47" d="M 322 2222 
Q 322 3294 897 3881 
Q 1472 4469 2513 4469 
Q 3244 4469 3700 4222 
Q 4156 3975 4403 3431 
L 3834 3263 
Q 3647 3638 3317 3809 
Q 2988 3981 2497 3981 
Q 1734 3981 1331 3520 
Q 928 3059 928 2222 
Q 928 1388 1356 905 
Q 1784 422 2541 422 
Q 2972 422 3345 553 
Q 3719 684 3950 909 
L 3950 1703 
L 2634 1703 
L 2634 2203 
L 4500 2203 
L 4500 684 
Q 4150 328 3642 132 
Q 3134 -63 2541 -63 
Q 1850 -63 1350 212 
Q 850 488 586 1005 
Q 322 1522 322 2222 
z
" transform="scale(0.015625)"/>
       <path id="LiberationSans-41" d="M 3647 0 
L 3144 1288 
L 1138 1288 
L 631 0 
L 13 0 
L 1809 4403 
L 2488 4403 
L 4256 0 
L 3647 0 
z
M 2141 3953 
L 2113 3866 
Q 2034 3606 1881 3200 
L 1319 1753 
L 2966 1753 
L 2400 3206 
Q 2313 3422 2225 3694 
L 2141 3953 
z
" transform="scale(0.015625)"/>
       <path id="LiberationSans-4e" d="M 3381 0 
L 1025 3750 
L 1041 3447 
L 1056 2925 
L 1056 0 
L 525 0 
L 525 4403 
L 1219 4403 
L 3600 628 
Q 3563 1241 3563 1516 
L 3563 4403 
L 4100 4403 
L 4100 0 
L 3381 0 
z
" transform="scale(0.015625)"/>
      </defs>
      <use xlink:href="#LiberationSans-47"/>
      <use xlink:href="#LiberationSans-41" x="77.783203"/>
      <use xlink:href="#LiberationSans-4e" x="144.482422"/>
      <use xlink:href="#LiberationSans-73" x="216.699219"/>
     </g>
    </g>
   </g>
  </g>
 </g>
 <defs>
  <clipPath id="pf9cc007cd0">
   <rect x="59.465625" y="39.1875" width="644.82" height="601.203"/>
  </clipPath>
 </defs>
</svg>
