<?xml version="1.0" encoding="utf-8" standalone="no"?>
<!DOCTYPE svg PUBLIC "-//W3C//DTD SVG 1.1//EN"
  "http://www.w3.org/Graphics/SVG/1.1/DTD/svg11.dtd">
<svg xmlns:xlink="http://www.w3.org/1999/xlink" width="710.741988pt" height="711.02175pt" viewBox="0 0 710.741988 711.02175" xmlns="http://www.w3.org/2000/svg" version="1.1">
 <metadata>
  <rdf:RDF xmlns:dc="http://purl.org/dc/elements/1.1/" xmlns:cc="http://creativecommons.org/ns#" xmlns:rdf="http://www.w3.org/1999/02/22-rdf-syntax-ns#">
   <cc:Work>
    <dc:type rdf:resource="http://purl.org/dc/dcmitype/StillImage"/>
    <dc:date>2025-02-03T16:36:33.674546</dc:date>
    <dc:format>image/svg+xml</dc:format>
    <dc:creator>
     <cc:Agent>
      <dc:title>Matplotlib v3.9.3, https://matplotlib.org/</dc:title>
     </cc:Agent>
    </dc:creator>
   </cc:Work>
  </rdf:RDF>
 </metadata>
 <defs>
  <style type="text/css">*{stroke-linejoin: round; stroke-linecap: butt}</style>
 </defs>
 <g id="figure_1">
  <g id="patch_1">
   <path d="M 0 711.02175 
L 710.741988 711.02175 
L 710.741988 0 
L 0 0 
z
" style="fill: #ffffff"/>
  </g>
  <g id="axes_1">
   <g id="patch_2">
    <path d="M 79.5 640.3905 
L 703.541988 640.3905 
L 703.541988 39.1875 
L 79.5 39.1875 
z
" style="fill: #ffffff"/>
   </g>
   <g id="matplotlib.axis_1">
    <g id="xtick_1">
     <g id="line2d_1">
      <defs>
       <path id="mce2e129df2" d="M 0 0 
L 0 -3.5 
" style="stroke: #000000; stroke-width: 0.8"/>
      </defs>
      <g>
       <use xlink:href="#mce2e129df2" x="107.808808" y="640.3905" style="stroke: #000000; stroke-width: 0.8"/>
      </g>
     </g>
     <g id="text_1">
      <!-- 0 -->
      <g transform="translate(99.467402 665.631125) scale(0.3 -0.3)">
       <defs>
        <path id="LiberationSans-30" d="M 3309 2203 
Q 3309 1100 2920 518 
Q 2531 -63 1772 -63 
Q 1013 -63 631 515 
Q 250 1094 250 2203 
Q 250 3338 620 3903 
Q 991 4469 1791 4469 
Q 2569 4469 2939 3897 
Q 3309 3325 3309 2203 
z
M 2738 2203 
Q 2738 3156 2517 3584 
Q 2297 4013 1791 4013 
Q 1272 4013 1045 3591 
Q 819 3169 819 2203 
Q 819 1266 1048 831 
Q 1278 397 1778 397 
Q 2275 397 2506 840 
Q 2738 1284 2738 2203 
z
" transform="scale(0.015625)"/>
       </defs>
       <use xlink:href="#LiberationSans-30"/>
      </g>
     </g>
    </g>
    <g id="xtick_2">
     <g id="line2d_2">
      <g>
       <use xlink:href="#mce2e129df2" x="221.282335" y="640.3905" style="stroke: #000000; stroke-width: 0.8"/>
      </g>
     </g>
     <g id="text_2">
      <!-- 2 -->
      <g transform="translate(212.940929 665.631125) scale(0.3 -0.3)">
       <defs>
        <path id="LiberationSans-32" d="M 322 0 
L 322 397 
Q 481 763 711 1042 
Q 941 1322 1194 1548 
Q 1447 1775 1695 1969 
Q 1944 2163 2144 2356 
Q 2344 2550 2467 2762 
Q 2591 2975 2591 3244 
Q 2591 3606 2378 3806 
Q 2166 4006 1788 4006 
Q 1428 4006 1195 3811 
Q 963 3616 922 3263 
L 347 3316 
Q 409 3844 795 4156 
Q 1181 4469 1788 4469 
Q 2453 4469 2811 4155 
Q 3169 3841 3169 3263 
Q 3169 3006 3051 2753 
Q 2934 2500 2703 2247 
Q 2472 1994 1819 1463 
Q 1459 1169 1246 933 
Q 1034 697 941 478 
L 3238 478 
L 3238 0 
L 322 0 
z
" transform="scale(0.015625)"/>
       </defs>
       <use xlink:href="#LiberationSans-32"/>
      </g>
     </g>
    </g>
    <g id="xtick_3">
     <g id="line2d_3">
      <g>
       <use xlink:href="#mce2e129df2" x="334.755862" y="640.3905" style="stroke: #000000; stroke-width: 0.8"/>
      </g>
     </g>
     <g id="text_3">
      <!-- 4 -->
      <g transform="translate(326.414456 665.631125) scale(0.3 -0.3)">
       <defs>
        <path id="LiberationSans-34" d="M 2753 997 
L 2753 0 
L 2222 0 
L 2222 997 
L 147 997 
L 147 1434 
L 2163 4403 
L 2753 4403 
L 2753 1441 
L 3372 1441 
L 3372 997 
L 2753 997 
z
M 2222 3769 
Q 2216 3750 2134 3603 
Q 2053 3456 2013 3397 
L 884 1734 
L 716 1503 
L 666 1441 
L 2222 1441 
L 2222 3769 
z
" transform="scale(0.015625)"/>
       </defs>
       <use xlink:href="#LiberationSans-34"/>
      </g>
     </g>
    </g>
    <g id="xtick_4">
     <g id="line2d_4">
      <g>
       <use xlink:href="#mce2e129df2" x="448.229389" y="640.3905" style="stroke: #000000; stroke-width: 0.8"/>
      </g>
     </g>
     <g id="text_4">
      <!-- 6 -->
      <g transform="translate(439.887983 665.631125) scale(0.3 -0.3)">
       <defs>
        <path id="LiberationSans-36" d="M 3278 1441 
Q 3278 744 2900 340 
Q 2522 -63 1856 -63 
Q 1113 -63 719 490 
Q 325 1044 325 2100 
Q 325 3244 734 3856 
Q 1144 4469 1900 4469 
Q 2897 4469 3156 3572 
L 2619 3475 
Q 2453 4013 1894 4013 
Q 1413 4013 1148 3564 
Q 884 3116 884 2266 
Q 1038 2550 1316 2698 
Q 1594 2847 1953 2847 
Q 2563 2847 2920 2465 
Q 3278 2084 3278 1441 
z
M 2706 1416 
Q 2706 1894 2472 2153 
Q 2238 2413 1819 2413 
Q 1425 2413 1183 2183 
Q 941 1953 941 1550 
Q 941 1041 1192 716 
Q 1444 391 1838 391 
Q 2244 391 2475 664 
Q 2706 938 2706 1416 
z
" transform="scale(0.015625)"/>
       </defs>
       <use xlink:href="#LiberationSans-36"/>
      </g>
     </g>
    </g>
    <g id="xtick_5">
     <g id="line2d_5">
      <g>
       <use xlink:href="#mce2e129df2" x="561.702916" y="640.3905" style="stroke: #000000; stroke-width: 0.8"/>
      </g>
     </g>
     <g id="text_5">
      <!-- 8 -->
      <g transform="translate(553.36151 665.631125) scale(0.3 -0.3)">
       <defs>
        <path id="LiberationSans-38" d="M 3281 1228 
Q 3281 619 2893 278 
Q 2506 -63 1781 -63 
Q 1075 -63 676 271 
Q 278 606 278 1222 
Q 278 1653 525 1947 
Q 772 2241 1156 2303 
L 1156 2316 
Q 797 2400 589 2681 
Q 381 2963 381 3341 
Q 381 3844 757 4156 
Q 1134 4469 1769 4469 
Q 2419 4469 2795 4162 
Q 3172 3856 3172 3334 
Q 3172 2956 2962 2675 
Q 2753 2394 2391 2322 
L 2391 2309 
Q 2813 2241 3047 1952 
Q 3281 1663 3281 1228 
z
M 2588 3303 
Q 2588 4050 1769 4050 
Q 1372 4050 1164 3862 
Q 956 3675 956 3303 
Q 956 2925 1170 2726 
Q 1384 2528 1775 2528 
Q 2172 2528 2380 2711 
Q 2588 2894 2588 3303 
z
M 2697 1281 
Q 2697 1691 2453 1898 
Q 2209 2106 1769 2106 
Q 1341 2106 1100 1882 
Q 859 1659 859 1269 
Q 859 359 1788 359 
Q 2247 359 2472 579 
Q 2697 800 2697 1281 
z
" transform="scale(0.015625)"/>
       </defs>
       <use xlink:href="#LiberationSans-38"/>
      </g>
     </g>
    </g>
    <g id="xtick_6">
     <g id="line2d_6">
      <g>
       <use xlink:href="#mce2e129df2" x="675.176443" y="640.3905" style="stroke: #000000; stroke-width: 0.8"/>
      </g>
     </g>
     <g id="text_6">
      <!-- 10 -->
      <g transform="translate(658.493631 665.631125) scale(0.3 -0.3)">
       <defs>
        <path id="LiberationSans-31" d="M 488 0 
L 488 478 
L 1609 478 
L 1609 3866 
L 616 3156 
L 616 3688 
L 1656 4403 
L 2175 4403 
L 2175 478 
L 3247 478 
L 3247 0 
L 488 0 
z
" transform="scale(0.015625)"/>
       </defs>
       <use xlink:href="#LiberationSans-31"/>
       <use xlink:href="#LiberationSans-30" x="55.615234"/>
      </g>
     </g>
    </g>
    <g id="xtick_7">
     <g id="line2d_7">
      <defs>
       <path id="m674cea8203" d="M 0 0 
L 0 -2 
" style="stroke: #000000; stroke-width: 0.6"/>
      </defs>
      <g>
       <use xlink:href="#m674cea8203" x="136.17719" y="640.3905" style="stroke: #000000; stroke-width: 0.6"/>
      </g>
     </g>
    </g>
    <g id="xtick_8">
     <g id="line2d_8">
      <g>
       <use xlink:href="#m674cea8203" x="164.545572" y="640.3905" style="stroke: #000000; stroke-width: 0.6"/>
      </g>
     </g>
    </g>
    <g id="xtick_9">
     <g id="line2d_9">
      <g>
       <use xlink:href="#m674cea8203" x="192.913953" y="640.3905" style="stroke: #000000; stroke-width: 0.6"/>
      </g>
     </g>
    </g>
    <g id="xtick_10">
     <g id="line2d_10">
      <g>
       <use xlink:href="#m674cea8203" x="249.650717" y="640.3905" style="stroke: #000000; stroke-width: 0.6"/>
      </g>
     </g>
    </g>
    <g id="xtick_11">
     <g id="line2d_11">
      <g>
       <use xlink:href="#m674cea8203" x="278.019099" y="640.3905" style="stroke: #000000; stroke-width: 0.6"/>
      </g>
     </g>
    </g>
    <g id="xtick_12">
     <g id="line2d_12">
      <g>
       <use xlink:href="#m674cea8203" x="306.38748" y="640.3905" style="stroke: #000000; stroke-width: 0.6"/>
      </g>
     </g>
    </g>
    <g id="xtick_13">
     <g id="line2d_13">
      <g>
       <use xlink:href="#m674cea8203" x="363.124244" y="640.3905" style="stroke: #000000; stroke-width: 0.6"/>
      </g>
     </g>
    </g>
    <g id="xtick_14">
     <g id="line2d_14">
      <g>
       <use xlink:href="#m674cea8203" x="391.492626" y="640.3905" style="stroke: #000000; stroke-width: 0.6"/>
      </g>
     </g>
    </g>
    <g id="xtick_15">
     <g id="line2d_15">
      <g>
       <use xlink:href="#m674cea8203" x="419.861008" y="640.3905" style="stroke: #000000; stroke-width: 0.6"/>
      </g>
     </g>
    </g>
    <g id="xtick_16">
     <g id="line2d_16">
      <g>
       <use xlink:href="#m674cea8203" x="476.597771" y="640.3905" style="stroke: #000000; stroke-width: 0.6"/>
      </g>
     </g>
    </g>
    <g id="xtick_17">
     <g id="line2d_17">
      <g>
       <use xlink:href="#m674cea8203" x="504.966153" y="640.3905" style="stroke: #000000; stroke-width: 0.6"/>
      </g>
     </g>
    </g>
    <g id="xtick_18">
     <g id="line2d_18">
      <g>
       <use xlink:href="#m674cea8203" x="533.334535" y="640.3905" style="stroke: #000000; stroke-width: 0.6"/>
      </g>
     </g>
    </g>
    <g id="xtick_19">
     <g id="line2d_19">
      <g>
       <use xlink:href="#m674cea8203" x="590.071298" y="640.3905" style="stroke: #000000; stroke-width: 0.6"/>
      </g>
     </g>
    </g>
    <g id="xtick_20">
     <g id="line2d_20">
      <g>
       <use xlink:href="#m674cea8203" x="618.43968" y="640.3905" style="stroke: #000000; stroke-width: 0.6"/>
      </g>
     </g>
    </g>
    <g id="xtick_21">
     <g id="line2d_21">
      <g>
       <use xlink:href="#m674cea8203" x="646.808062" y="640.3905" style="stroke: #000000; stroke-width: 0.6"/>
      </g>
     </g>
    </g>
    <g id="text_7">
     <!-- Time ps -->
     <g transform="translate(338.744432 697.59675) scale(0.3 -0.3)">
      <defs>
       <path id="LiberationSans-54" d="M 2250 3916 
L 2250 0 
L 1656 0 
L 1656 3916 
L 144 3916 
L 144 4403 
L 3763 4403 
L 3763 3916 
L 2250 3916 
z
" transform="scale(0.015625)"/>
       <path id="LiberationSans-69" d="M 428 4100 
L 428 4638 
L 991 4638 
L 991 4100 
L 428 4100 
z
M 428 0 
L 428 3381 
L 991 3381 
L 991 0 
L 428 0 
z
" transform="scale(0.015625)"/>
       <path id="LiberationSans-6d" d="M 2400 0 
L 2400 2144 
Q 2400 2634 2265 2821 
Q 2131 3009 1781 3009 
Q 1422 3009 1212 2734 
Q 1003 2459 1003 1959 
L 1003 0 
L 444 0 
L 444 2659 
Q 444 3250 425 3381 
L 956 3381 
Q 959 3366 962 3297 
Q 966 3228 970 3139 
Q 975 3050 981 2803 
L 991 2803 
Q 1172 3163 1406 3303 
Q 1641 3444 1978 3444 
Q 2363 3444 2586 3291 
Q 2809 3138 2897 2803 
L 2906 2803 
Q 3081 3144 3329 3294 
Q 3578 3444 3931 3444 
Q 4444 3444 4676 3166 
Q 4909 2888 4909 2253 
L 4909 0 
L 4353 0 
L 4353 2144 
Q 4353 2634 4218 2821 
Q 4084 3009 3734 3009 
Q 3366 3009 3161 2736 
Q 2956 2463 2956 1959 
L 2956 0 
L 2400 0 
z
" transform="scale(0.015625)"/>
       <path id="LiberationSans-65" d="M 863 1572 
Q 863 991 1103 675 
Q 1344 359 1806 359 
Q 2172 359 2392 506 
Q 2613 653 2691 878 
L 3184 738 
Q 2881 -63 1806 -63 
Q 1056 -63 664 384 
Q 272 831 272 1713 
Q 272 2550 664 2997 
Q 1056 3444 1784 3444 
Q 3275 3444 3275 1647 
L 3275 1572 
L 863 1572 
z
M 2694 2003 
Q 2647 2538 2422 2783 
Q 2197 3028 1775 3028 
Q 1366 3028 1127 2754 
Q 888 2481 869 2003 
L 2694 2003 
z
" transform="scale(0.015625)"/>
       <path id="LiberationSans-20" transform="scale(0.015625)"/>
       <path id="LiberationSans-70" d="M 3291 1706 
Q 3291 -63 2047 -63 
Q 1266 -63 997 525 
L 981 525 
Q 994 500 994 -6 
L 994 -1328 
L 431 -1328 
L 431 2691 
Q 431 3213 413 3381 
L 956 3381 
Q 959 3369 965 3292 
Q 972 3216 980 3056 
Q 988 2897 988 2838 
L 1000 2838 
Q 1150 3150 1397 3295 
Q 1644 3441 2047 3441 
Q 2672 3441 2981 3022 
Q 3291 2603 3291 1706 
z
M 2700 1694 
Q 2700 2400 2509 2703 
Q 2319 3006 1903 3006 
Q 1569 3006 1380 2865 
Q 1191 2725 1092 2426 
Q 994 2128 994 1650 
Q 994 984 1206 668 
Q 1419 353 1897 353 
Q 2316 353 2508 661 
Q 2700 969 2700 1694 
z
" transform="scale(0.015625)"/>
       <path id="LiberationSans-73" d="M 2969 934 
Q 2969 456 2608 196 
Q 2247 -63 1597 -63 
Q 966 -63 623 145 
Q 281 353 178 794 
L 675 891 
Q 747 619 972 492 
Q 1197 366 1597 366 
Q 2025 366 2223 497 
Q 2422 628 2422 891 
Q 2422 1091 2284 1216 
Q 2147 1341 1841 1422 
L 1438 1528 
Q 953 1653 748 1773 
Q 544 1894 428 2066 
Q 313 2238 313 2488 
Q 313 2950 642 3192 
Q 972 3434 1603 3434 
Q 2163 3434 2492 3237 
Q 2822 3041 2909 2606 
L 2403 2544 
Q 2356 2769 2151 2889 
Q 1947 3009 1603 3009 
Q 1222 3009 1040 2893 
Q 859 2778 859 2544 
Q 859 2400 934 2306 
Q 1009 2213 1156 2147 
Q 1303 2081 1775 1966 
Q 2222 1853 2419 1758 
Q 2616 1663 2730 1547 
Q 2844 1431 2906 1279 
Q 2969 1128 2969 934 
z
" transform="scale(0.015625)"/>
      </defs>
      <use xlink:href="#LiberationSans-54"/>
      <use xlink:href="#LiberationSans-69" x="57.333984"/>
      <use xlink:href="#LiberationSans-6d" x="79.550781"/>
      <use xlink:href="#LiberationSans-65" x="162.851562"/>
      <use xlink:href="#LiberationSans-20" x="218.466797"/>
      <use xlink:href="#LiberationSans-70" x="246.25"/>
      <use xlink:href="#LiberationSans-73" x="301.865234"/>
     </g>
    </g>
   </g>
   <g id="matplotlib.axis_2">
    <g id="ytick_1">
     <g id="line2d_22">
      <defs>
       <path id="m8db318c0cb" d="M 0 0 
L 3.5 0 
" style="stroke: #000000; stroke-width: 0.8"/>
      </defs>
      <g>
       <use xlink:href="#m8db318c0cb" x="79.5" y="573.42388" style="stroke: #000000; stroke-width: 0.8"/>
      </g>
     </g>
     <g id="text_8">
      <!-- $\mathdefault{−2}$ -->
      <g transform="translate(41.5 584.294192) scale(0.3 -0.3)">
       <defs>
        <path id="LiberationSans-2212" d="M 316 1900 
L 316 2356 
L 3425 2356 
L 3425 1900 
L 316 1900 
z
" transform="scale(0.015625)"/>
       </defs>
       <use xlink:href="#LiberationSans-2212" transform="translate(0 0.171875)"/>
       <use xlink:href="#LiberationSans-32" transform="translate(58.398438 0.171875)"/>
      </g>
     </g>
    </g>
    <g id="ytick_2">
     <g id="line2d_23">
      <g>
       <use xlink:href="#m8db318c0cb" x="79.5" y="483.800547" style="stroke: #000000; stroke-width: 0.8"/>
      </g>
     </g>
     <g id="text_9">
      <!-- $\mathdefault{0}$ -->
      <g transform="translate(59.2 494.670859) scale(0.3 -0.3)">
       <use xlink:href="#LiberationSans-30" transform="translate(0 0.171875)"/>
      </g>
     </g>
    </g>
    <g id="ytick_3">
     <g id="line2d_24">
      <g>
       <use xlink:href="#m8db318c0cb" x="79.5" y="394.177214" style="stroke: #000000; stroke-width: 0.8"/>
      </g>
     </g>
     <g id="text_10">
      <!-- $\mathdefault{2}$ -->
      <g transform="translate(59.2 405.047527) scale(0.3 -0.3)">
       <use xlink:href="#LiberationSans-32" transform="translate(0 0.171875)"/>
      </g>
     </g>
    </g>
    <g id="ytick_4">
     <g id="line2d_25">
      <g>
       <use xlink:href="#m8db318c0cb" x="79.5" y="304.553881" style="stroke: #000000; stroke-width: 0.8"/>
      </g>
     </g>
     <g id="text_11">
      <!-- $\mathdefault{4}$ -->
      <g transform="translate(59.2 315.424194) scale(0.3 -0.3)">
       <use xlink:href="#LiberationSans-34" transform="translate(0 0.203125)"/>
      </g>
     </g>
    </g>
    <g id="ytick_5">
     <g id="line2d_26">
      <g>
       <use xlink:href="#m8db318c0cb" x="79.5" y="214.930549" style="stroke: #000000; stroke-width: 0.8"/>
      </g>
     </g>
     <g id="text_12">
      <!-- $\mathdefault{6}$ -->
      <g transform="translate(59.2 225.800861) scale(0.3 -0.3)">
       <use xlink:href="#LiberationSans-36" transform="translate(0 0.171875)"/>
      </g>
     </g>
    </g>
    <g id="ytick_6">
     <g id="line2d_27">
      <g>
       <use xlink:href="#m8db318c0cb" x="79.5" y="125.307216" style="stroke: #000000; stroke-width: 0.8"/>
      </g>
     </g>
     <g id="text_13">
      <!-- $\mathdefault{8}$ -->
      <g transform="translate(59.2 136.177528) scale(0.3 -0.3)">
       <use xlink:href="#LiberationSans-38" transform="translate(0 0.171875)"/>
      </g>
     </g>
    </g>
    <g id="ytick_7">
     <g id="line2d_28">
      <defs>
       <path id="m8ce460ae54" d="M 0 0 
L 2 0 
" style="stroke: #000000; stroke-width: 0.6"/>
      </defs>
      <g>
       <use xlink:href="#m8ce460ae54" x="79.5" y="618.235546" style="stroke: #000000; stroke-width: 0.6"/>
      </g>
     </g>
    </g>
    <g id="ytick_8">
     <g id="line2d_29">
      <g>
       <use xlink:href="#m8ce460ae54" x="79.5" y="595.829713" style="stroke: #000000; stroke-width: 0.6"/>
      </g>
     </g>
    </g>
    <g id="ytick_9">
     <g id="line2d_30">
      <g>
       <use xlink:href="#m8ce460ae54" x="79.5" y="551.018046" style="stroke: #000000; stroke-width: 0.6"/>
      </g>
     </g>
    </g>
    <g id="ytick_10">
     <g id="line2d_31">
      <g>
       <use xlink:href="#m8ce460ae54" x="79.5" y="528.612213" style="stroke: #000000; stroke-width: 0.6"/>
      </g>
     </g>
    </g>
    <g id="ytick_11">
     <g id="line2d_32">
      <g>
       <use xlink:href="#m8ce460ae54" x="79.5" y="506.20638" style="stroke: #000000; stroke-width: 0.6"/>
      </g>
     </g>
    </g>
    <g id="ytick_12">
     <g id="line2d_33">
      <g>
       <use xlink:href="#m8ce460ae54" x="79.5" y="461.394714" style="stroke: #000000; stroke-width: 0.6"/>
      </g>
     </g>
    </g>
    <g id="ytick_13">
     <g id="line2d_34">
      <g>
       <use xlink:href="#m8ce460ae54" x="79.5" y="438.98888" style="stroke: #000000; stroke-width: 0.6"/>
      </g>
     </g>
    </g>
    <g id="ytick_14">
     <g id="line2d_35">
      <g>
       <use xlink:href="#m8ce460ae54" x="79.5" y="416.583047" style="stroke: #000000; stroke-width: 0.6"/>
      </g>
     </g>
    </g>
    <g id="ytick_15">
     <g id="line2d_36">
      <g>
       <use xlink:href="#m8ce460ae54" x="79.5" y="371.771381" style="stroke: #000000; stroke-width: 0.6"/>
      </g>
     </g>
    </g>
    <g id="ytick_16">
     <g id="line2d_37">
      <g>
       <use xlink:href="#m8ce460ae54" x="79.5" y="349.365548" style="stroke: #000000; stroke-width: 0.6"/>
      </g>
     </g>
    </g>
    <g id="ytick_17">
     <g id="line2d_38">
      <g>
       <use xlink:href="#m8ce460ae54" x="79.5" y="326.959714" style="stroke: #000000; stroke-width: 0.6"/>
      </g>
     </g>
    </g>
    <g id="ytick_18">
     <g id="line2d_39">
      <g>
       <use xlink:href="#m8ce460ae54" x="79.5" y="282.148048" style="stroke: #000000; stroke-width: 0.6"/>
      </g>
     </g>
    </g>
    <g id="ytick_19">
     <g id="line2d_40">
      <g>
       <use xlink:href="#m8ce460ae54" x="79.5" y="259.742215" style="stroke: #000000; stroke-width: 0.6"/>
      </g>
     </g>
    </g>
    <g id="ytick_20">
     <g id="line2d_41">
      <g>
       <use xlink:href="#m8ce460ae54" x="79.5" y="237.336382" style="stroke: #000000; stroke-width: 0.6"/>
      </g>
     </g>
    </g>
    <g id="ytick_21">
     <g id="line2d_42">
      <g>
       <use xlink:href="#m8ce460ae54" x="79.5" y="192.524715" style="stroke: #000000; stroke-width: 0.6"/>
      </g>
     </g>
    </g>
    <g id="ytick_22">
     <g id="line2d_43">
      <g>
       <use xlink:href="#m8ce460ae54" x="79.5" y="170.118882" style="stroke: #000000; stroke-width: 0.6"/>
      </g>
     </g>
    </g>
    <g id="ytick_23">
     <g id="line2d_44">
      <g>
       <use xlink:href="#m8ce460ae54" x="79.5" y="147.713049" style="stroke: #000000; stroke-width: 0.6"/>
      </g>
     </g>
    </g>
    <g id="ytick_24">
     <g id="line2d_45">
      <g>
       <use xlink:href="#m8ce460ae54" x="79.5" y="102.901383" style="stroke: #000000; stroke-width: 0.6"/>
      </g>
     </g>
    </g>
    <g id="ytick_25">
     <g id="line2d_46">
      <g>
       <use xlink:href="#m8ce460ae54" x="79.5" y="80.495549" style="stroke: #000000; stroke-width: 0.6"/>
      </g>
     </g>
    </g>
    <g id="ytick_26">
     <g id="line2d_47">
      <g>
       <use xlink:href="#m8ce460ae54" x="79.5" y="58.089716" style="stroke: #000000; stroke-width: 0.6"/>
      </g>
     </g>
    </g>
    <g id="text_14">
     <!-- HFACF $(\mathrm{W} / \mathrm{m}^2)^2$ -->
     <g transform="translate(31.275 446.289) rotate(-90) scale(0.3 -0.3)">
      <defs>
       <path id="LiberationSans-48" d="M 3503 0 
L 3503 2041 
L 1122 2041 
L 1122 0 
L 525 0 
L 525 4403 
L 1122 4403 
L 1122 2541 
L 3503 2541 
L 3503 4403 
L 4100 4403 
L 4100 0 
L 3503 0 
z
" transform="scale(0.015625)"/>
       <path id="LiberationSans-46" d="M 1122 3916 
L 1122 2278 
L 3578 2278 
L 3578 1784 
L 1122 1784 
L 1122 0 
L 525 0 
L 525 4403 
L 3653 4403 
L 3653 3916 
L 1122 3916 
z
" transform="scale(0.015625)"/>
       <path id="LiberationSans-41" d="M 3647 0 
L 3144 1288 
L 1138 1288 
L 631 0 
L 13 0 
L 1809 4403 
L 2488 4403 
L 4256 0 
L 3647 0 
z
M 2141 3953 
L 2113 3866 
Q 2034 3606 1881 3200 
L 1319 1753 
L 2966 1753 
L 2400 3206 
Q 2313 3422 2225 3694 
L 2141 3953 
z
" transform="scale(0.015625)"/>
       <path id="LiberationSans-43" d="M 2475 3981 
Q 1744 3981 1337 3511 
Q 931 3041 931 2222 
Q 931 1413 1354 920 
Q 1778 428 2500 428 
Q 3425 428 3891 1344 
L 4378 1100 
Q 4106 531 3614 234 
Q 3122 -63 2472 -63 
Q 1806 -63 1320 214 
Q 834 491 579 1005 
Q 325 1519 325 2222 
Q 325 3275 894 3872 
Q 1463 4469 2469 4469 
Q 3172 4469 3644 4194 
Q 4116 3919 4338 3378 
L 3772 3191 
Q 3619 3575 3280 3778 
Q 2941 3981 2475 3981 
z
" transform="scale(0.015625)"/>
       <path id="STIXGeneral-Regular-28" d="M 1946 -1030 
L 1869 -1133 
Q 1126 -710 716 32 
Q 307 774 307 1613 
Q 307 3386 1888 4326 
L 1946 4224 
Q 1293 3667 1075 3126 
Q 858 2586 858 1632 
Q 858 685 1082 96 
Q 1306 -493 1946 -1030 
z
" transform="scale(0.015625)"/>
       <path id="STIXGeneral-Regular-57" d="M 5965 4237 
L 5965 4115 
Q 5709 4064 5616 3990 
Q 5523 3917 5434 3667 
Q 4704 1709 4128 -70 
L 4032 -70 
Q 3642 1011 3008 2637 
L 2022 -70 
L 1926 -70 
Q 1709 576 1277 1753 
Q 845 2931 698 3347 
Q 538 3808 406 3958 
Q 275 4109 32 4115 
L 32 4237 
L 1594 4237 
L 1594 4115 
Q 1357 4109 1270 4064 
Q 1184 4019 1184 3917 
Q 1184 3808 1254 3616 
L 2176 1210 
L 2842 3021 
L 2662 3501 
Q 2509 3917 2400 4013 
Q 2291 4109 2010 4115 
L 2010 4237 
L 3706 4237 
L 3706 4115 
Q 3213 4102 3213 3891 
Q 3213 3808 3322 3520 
L 4237 1190 
L 5043 3360 
Q 5152 3667 5152 3853 
Q 5152 4109 4704 4115 
L 4704 4237 
L 5965 4237 
z
" transform="scale(0.015625)"/>
       <path id="STIXGeneral-Regular-2f" d="M 1837 4326 
L 378 -90 
L -58 -90 
L 1408 4326 
L 1837 4326 
z
" transform="scale(0.015625)"/>
       <path id="STIXGeneral-Regular-6d" d="M 4960 0 
L 3565 0 
L 3565 96 
Q 3834 122 3907 208 
Q 3981 294 3981 576 
L 3981 1894 
Q 3981 2278 3869 2444 
Q 3757 2611 3488 2611 
Q 3264 2611 3107 2521 
Q 2950 2432 2803 2221 
L 2803 608 
Q 2803 301 2896 201 
Q 2989 102 3264 96 
L 3264 0 
L 1830 0 
L 1830 96 
Q 2112 115 2189 188 
Q 2266 262 2266 550 
L 2266 1901 
Q 2266 2611 1850 2611 
Q 1670 2611 1468 2531 
Q 1267 2451 1171 2336 
Q 1088 2240 1088 2227 
L 1088 448 
Q 1088 243 1177 176 
Q 1267 109 1523 96 
L 1523 0 
L 102 0 
L 102 96 
Q 371 102 460 195 
Q 550 288 550 563 
L 550 2150 
Q 550 2387 499 2480 
Q 448 2573 326 2573 
Q 230 2573 122 2547 
L 122 2656 
Q 557 2778 1011 2944 
L 1062 2925 
L 1062 2451 
L 1075 2451 
Q 1363 2752 1584 2848 
Q 1805 2944 2054 2944 
Q 2560 2944 2733 2406 
Q 3232 2944 3776 2944 
Q 4518 2944 4518 1792 
L 4518 493 
Q 4518 282 4582 202 
Q 4646 122 4794 109 
L 4960 96 
L 4960 0 
z
" transform="scale(0.015625)"/>
       <path id="STIXGeneral-Regular-32" d="M 3034 877 
L 2688 0 
L 186 0 
L 186 77 
L 1325 1286 
Q 1773 1754 1965 2144 
Q 2157 2534 2157 2950 
Q 2157 3379 1920 3616 
Q 1683 3853 1267 3853 
Q 922 3853 720 3673 
Q 518 3494 326 3021 
L 192 3053 
Q 301 3648 630 3987 
Q 960 4326 1523 4326 
Q 2054 4326 2380 4006 
Q 2707 3686 2707 3200 
Q 2707 2477 1888 1613 
L 832 486 
L 2330 486 
Q 2541 486 2665 569 
Q 2790 653 2944 915 
L 3034 877 
z
" transform="scale(0.015625)"/>
       <path id="STIXGeneral-Regular-29" d="M 186 4224 
L 262 4326 
Q 992 3891 1408 3148 
Q 1824 2406 1824 1581 
Q 1824 -166 243 -1133 
L 186 -1030 
Q 845 -486 1059 54 
Q 1274 595 1274 1562 
Q 1274 2534 1059 3120 
Q 845 3706 186 4224 
z
" transform="scale(0.015625)"/>
      </defs>
      <use xlink:href="#LiberationSans-48" transform="translate(0 0.409375)"/>
      <use xlink:href="#LiberationSans-46" transform="translate(72.216797 0.409375)"/>
      <use xlink:href="#LiberationSans-41" transform="translate(133.300781 0.409375)"/>
      <use xlink:href="#LiberationSans-43" transform="translate(200 0.409375)"/>
      <use xlink:href="#LiberationSans-46" transform="translate(272.216797 0.409375)"/>
      <use xlink:href="#LiberationSans-20" transform="translate(333.300781 0.409375)"/>
      <use xlink:href="#STIXGeneral-Regular-28" transform="translate(361.083984 0.409375)"/>
      <use xlink:href="#STIXGeneral-Regular-57" transform="translate(394.383972 0.409375)"/>
      <use xlink:href="#STIXGeneral-Regular-2f" transform="translate(488.783966 0.409375)"/>
      <use xlink:href="#STIXGeneral-Regular-6d" transform="translate(516.583954 0.409375)"/>
      <use xlink:href="#STIXGeneral-Regular-32" transform="translate(595.927223 35.684375) scale(0.7)"/>
      <use xlink:href="#STIXGeneral-Regular-29" transform="translate(635.336587 0.409375)"/>
      <use xlink:href="#STIXGeneral-Regular-32" transform="translate(670.179856 35.684375) scale(0.7)"/>
     </g>
    </g>
    <g id="text_15">
     <!-- $\times\mathdefault{10^{18}}\mathdefault{}$ -->
     <g transform="translate(79.5 36.1875) scale(0.4 -0.4)">
      <defs>
       <path id="STIXGeneral-Regular-d7" d="M 3821 141 
L 3526 -160 
L 2048 1312 
L 570 -160 
L 275 134 
L 1747 1613 
L 275 3091 
L 576 3386 
L 2048 1914 
L 3526 3386 
L 3821 3098 
L 2349 1613 
L 3821 141 
z
" transform="scale(0.015625)"/>
      </defs>
      <use xlink:href="#STIXGeneral-Regular-d7" transform="translate(0 0.140625)"/>
      <use xlink:href="#LiberationSans-31" transform="translate(63.999985 0.140625)"/>
      <use xlink:href="#LiberationSans-30" transform="translate(119.615219 0.140625)"/>
      <use xlink:href="#LiberationSans-31" transform="translate(176.154946 37.120312) scale(0.7)"/>
      <use xlink:href="#LiberationSans-38" transform="translate(215.08561 37.120312) scale(0.7)"/>
     </g>
    </g>
   </g>
   <g id="line2d_48">
    <path d="M 107.865545 66.514909 
L 108.035755 74.192795 
L 108.262702 84.592791 
L 108.603123 111.687953 
L 109.113754 173.015041 
L 110.021542 317.02219 
L 111.156277 490.862973 
L 111.780382 557.653903 
L 112.291012 592.083172 
L 112.68817 606.91849 
L 113.02859 612.382358 
L 113.198801 613.063091 
L 113.312274 612.803523 
L 113.482485 611.571355 
L 113.766168 607.562306 
L 114.276799 596.14022 
L 116.319323 546.163876 
L 120.915001 460.391037 
L 121.425631 456.676958 
L 121.709315 455.845695 
L 121.879526 455.724628 
L 122.049736 455.909875 
L 122.446893 457.416241 
L 122.84405 460.114962 
L 123.638365 467.69248 
L 124.943311 480.091014 
L 125.567415 484.106814 
L 126.36173 487.232706 
L 126.872361 488.394564 
L 127.212781 488.912621 
L 128.177306 490.189235 
L 130.163093 492.311934 
L 131.070881 492.205909 
L 131.524775 491.618679 
L 132.432564 489.197853 
L 133.680772 484.49311 
L 134.758771 480.004364 
L 135.723296 476.753515 
L 136.120453 475.997241 
L 136.460874 475.752099 
L 136.858031 475.91054 
L 137.425399 476.935226 
L 138.10624 479.1957 
L 138.843818 482.476876 
L 140.999815 491.379652 
L 141.340235 491.988306 
L 141.907603 492.378276 
L 142.531707 491.87325 
L 144.120337 489.236238 
L 146.957175 482.419743 
L 147.978437 479.583692 
L 148.659278 477.945118 
L 149.283382 477.144561 
L 149.68054 477.070862 
L 149.907487 477.16676 
L 150.418118 477.785741 
L 150.985485 479.108618 
L 151.7798 481.461483 
L 152.971272 485.127775 
L 153.481903 486.198056 
L 153.935797 486.724791 
L 154.559901 486.79345 
L 155.070532 486.538008 
L 156.942845 485.207463 
L 157.226529 485.190656 
L 157.850634 485.332627 
L 159.098842 485.624963 
L 159.779684 485.292826 
L 160.347051 484.680393 
L 162.219364 481.888277 
L 163.467573 480.490025 
L 164.034941 480.234528 
L 164.602308 480.257759 
L 165.680307 481.285381 
L 166.701569 482.995877 
L 168.006514 485.043721 
L 168.630619 485.592524 
L 169.14125 485.763151 
L 169.65188 485.677849 
L 170.275985 485.308971 
L 171.41072 484.23851 
L 172.431982 483.410839 
L 173.056086 483.184753 
L 173.850401 483.240068 
L 174.871663 483.567024 
L 176.063135 483.846327 
L 177.254607 483.753214 
L 178.275868 483.480723 
L 179.070183 483.349705 
L 179.694288 483.414091 
L 180.602076 483.769481 
L 182.644599 484.830598 
L 183.32544 484.856958 
L 184.063018 484.587651 
L 186.84312 483.287966 
L 187.921118 483.362736 
L 190.644483 483.964043 
L 194.048689 483.859494 
L 196.601843 484.034769 
L 198.247209 483.508299 
L 199.381944 483.221555 
L 200.232996 483.195228 
L 201.197521 483.383623 
L 203.240044 483.911841 
L 204.147833 483.850989 
L 206.417303 483.567132 
L 207.665512 483.813411 
L 208.856984 484.00035 
L 209.708035 483.848146 
L 210.50235 483.438019 
L 212.828557 481.883065 
L 213.282452 481.924973 
L 213.736346 482.191578 
L 214.303713 482.797296 
L 215.211502 484.147572 
L 216.232763 485.656157 
L 216.800131 486.181814 
L 217.254025 486.304429 
L 217.651182 486.194866 
L 218.105076 485.802813 
L 218.672444 484.979678 
L 221.055388 481.117152 
L 221.452545 480.962953 
L 221.849703 481.104173 
L 222.303597 481.529649 
L 222.984438 482.548302 
L 224.970225 485.767438 
L 225.480856 486.155731 
L 225.991487 486.254358 
L 226.445381 486.094727 
L 227.069485 485.583137 
L 227.807063 484.69517 
L 229.168745 483.019685 
L 229.79285 482.585022 
L 230.530428 482.426452 
L 231.551689 482.563566 
L 232.913372 482.818238 
L 235.75021 483.167286 
L 236.941682 483.78809 
L 238.757258 484.681964 
L 239.4381 484.698847 
L 240.175677 484.4546 
L 242.558622 483.27552 
L 243.409673 483.253965 
L 244.544408 483.568889 
L 245.849354 483.896465 
L 246.700405 483.856397 
L 247.551457 483.516103 
L 249.707454 482.574022 
L 250.274821 482.637753 
L 251.125873 483.035012 
L 252.771239 484.058866 
L 253.45208 484.2413 
L 254.246395 484.187526 
L 255.324393 483.781868 
L 256.288918 483.437067 
L 256.913023 483.410373 
L 257.537127 483.566311 
L 258.558389 484.142621 
L 259.863334 484.882305 
L 260.544176 484.970027 
L 261.225017 484.815093 
L 264.005118 483.788625 
L 265.083117 483.901728 
L 265.990905 483.924221 
L 267.068903 483.752646 
L 267.919955 483.450679 
L 269.281637 483.049836 
L 269.849005 483.113901 
L 270.359636 483.372556 
L 270.98374 483.894782 
L 272.629106 485.42016 
L 273.196474 485.674668 
L 273.707105 485.645997 
L 274.160999 485.378048 
L 274.558156 484.970115 
L 275.295734 483.824021 
L 277.508468 480.023895 
L 278.075835 479.637487 
L 279.097097 480.415624 
L 279.664465 481.299427 
L 282.104146 485.44229 
L 282.72825 485.896366 
L 283.238881 485.993121 
L 283.749512 485.898363 
L 284.543827 485.44273 
L 287.096981 483.615352 
L 287.891296 483.461783 
L 291.692659 482.988969 
L 292.54371 482.8954 
L 293.394762 483.066267 
L 294.189076 483.429625 
L 296.174863 484.352384 
L 296.742231 484.376261 
L 297.366335 484.224461 
L 299.408859 483.514487 
L 300.373384 483.511656 
L 301.564856 483.773977 
L 302.642854 483.990814 
L 303.437169 484.0319 
L 304.685378 483.794828 
L 306.21727 483.529942 
L 307.181795 483.655887 
L 310.07537 484.546761 
L 311.437052 484.534256 
L 314.500838 484.40253 
L 316.03273 484.266645 
L 316.656835 484.024132 
L 317.905043 483.211279 
L 318.983042 482.558329 
L 319.89083 482.384922 
L 320.571671 482.556448 
L 321.195776 482.957479 
L 322.897879 484.272357 
L 323.57872 484.546923 
L 324.259561 484.54194 
L 324.940402 484.254772 
L 326.755979 483.295888 
L 327.266609 483.379722 
L 327.833977 483.712974 
L 328.741765 484.602204 
L 329.933237 485.772463 
L 330.500605 486.001018 
L 330.897762 485.925495 
L 331.238183 485.702951 
L 331.692077 485.174766 
L 332.429655 483.879575 
L 334.188495 480.518577 
L 334.699125 480.0119 
L 334.982809 479.964996 
L 335.436703 480.210344 
L 336.004071 480.868736 
L 336.968596 482.449884 
L 338.046595 484.135947 
L 338.670699 484.730764 
L 339.294803 484.975661 
L 339.862171 484.912423 
L 340.769959 484.512301 
L 342.074905 483.981917 
L 342.699009 483.924636 
L 343.550061 484.128972 
L 344.855006 484.547904 
L 345.706058 484.58221 
L 346.500372 484.412502 
L 348.145738 483.805975 
L 349.33721 483.442456 
L 350.358472 483.399415 
L 352.627943 483.767547 
L 354.386782 483.953084 
L 356.032149 483.910021 
L 359.379618 483.557962 
L 362.727087 483.842175 
L 363.975295 483.731323 
L 367.663185 483.001321 
L 369.138341 482.695127 
L 370.102866 482.761864 
L 370.953917 483.127535 
L 371.634759 483.590286 
L 373.507072 484.835962 
L 374.187913 484.956771 
L 374.925491 484.819058 
L 375.890016 484.410336 
L 377.989276 483.577983 
L 381.166535 482.809732 
L 382.528217 482.402035 
L 383.152322 482.43603 
L 383.662952 482.655744 
L 384.40053 483.285942 
L 386.613264 485.463009 
L 387.123895 485.615464 
L 387.634526 485.498991 
L 388.08842 485.186154 
L 388.655788 484.544673 
L 389.84726 482.73946 
L 390.755048 481.55801 
L 391.265679 481.203463 
L 391.662836 481.167026 
L 392.11673 481.426984 
L 392.627361 482.011153 
L 393.648623 483.727746 
L 394.953568 485.786983 
L 395.520936 486.240542 
L 395.97483 486.327178 
L 396.428724 486.162373 
L 397.052829 485.641976 
L 399.152089 483.534096 
L 399.719456 483.347973 
L 400.286824 483.395886 
L 401.194612 483.733802 
L 402.045664 484.051841 
L 402.726505 484.107438 
L 403.407346 483.964746 
L 404.882502 483.300569 
L 405.733553 482.953202 
L 406.527868 482.920677 
L 407.776077 483.320439 
L 408.967549 483.711803 
L 409.64839 483.733983 
L 410.329231 483.597376 
L 412.201544 483.211771 
L 412.995859 483.388998 
L 413.846911 483.81031 
L 415.492277 484.631063 
L 416.286591 484.754043 
L 417.080906 484.666818 
L 418.329115 484.221741 
L 420.201428 483.553431 
L 421.05248 483.457801 
L 423.49216 483.43064 
L 427.066576 482.983985 
L 427.804154 483.197087 
L 429.222573 483.972902 
L 430.130362 484.433507 
L 431.03815 484.653656 
L 432.570043 484.567492 
L 434.101935 484.414009 
L 435.577091 484.254357 
L 436.938773 483.846806 
L 439.718875 483.057827 
L 440.342979 483.284569 
L 440.910347 483.706173 
L 442.158556 485.017996 
L 442.896134 485.667077 
L 443.406764 485.897237 
L 443.860658 485.881787 
L 444.428026 485.509973 
L 444.938657 484.848658 
L 445.619498 483.577114 
L 447.435075 479.972166 
L 447.945705 479.420966 
L 448.286126 479.243756 
L 449.250651 480.116251 
L 449.931492 481.326131 
L 452.144226 485.57604 
L 452.711594 486.012103 
L 453.165488 486.044865 
L 453.619382 485.842911 
L 454.300223 485.189056 
L 456.28601 483.01482 
L 456.739904 482.881725 
L 457.250535 482.959543 
L 458.044849 483.397664 
L 459.406532 484.168628 
L 460.257583 484.27818 
L 460.938424 484.148576 
L 461.789476 483.776007 
L 463.151158 483.207211 
L 464.00221 483.143912 
L 464.796524 483.32944 
L 467.349679 484.209856 
L 468.37094 484.164687 
L 473.250302 483.327479 
L 476.200614 482.730865 
L 477.221875 483.065071 
L 478.470084 483.860501 
L 479.94524 484.860821 
L 480.909765 485.184022 
L 481.647343 485.179751 
L 482.555131 484.911948 
L 484.370708 484.209483 
L 485.448706 484.118079 
L 486.980599 484.154355 
L 487.83165 483.926191 
L 490.214594 483.136091 
L 490.838699 483.233273 
L 491.68975 483.643599 
L 492.881222 484.200709 
L 493.505327 484.286728 
L 494.015957 484.210835 
L 494.526588 483.987273 
L 495.604587 483.19118 
L 496.342165 482.678677 
L 496.909532 482.522718 
L 497.363426 482.608112 
L 497.817321 482.880815 
L 498.384688 483.422265 
L 500.313738 485.532919 
L 500.767632 485.706821 
L 501.278263 485.608651 
L 501.732157 485.253459 
L 502.242788 484.561288 
L 502.980366 483.188949 
L 504.568995 480.203839 
L 505.079626 479.759136 
L 505.476784 479.765497 
L 505.873941 480.025027 
L 506.384572 480.670277 
L 507.12215 482.057888 
L 509.0512 485.819071 
L 509.618567 486.331895 
L 510.072462 486.455737 
L 510.583092 486.317983 
L 511.093723 485.945855 
L 512.058248 484.851477 
L 513.07951 483.729077 
L 513.760351 483.333574 
L 514.384456 483.22745 
L 515.292244 483.344925 
L 516.483716 483.477002 
L 517.504978 483.261683 
L 518.469503 482.846589 
L 519.490764 482.506971 
L 520.058132 482.54511 
L 520.568763 482.731031 
L 521.419814 483.354294 
L 523.235391 484.831104 
L 523.859495 484.991231 
L 524.540336 484.886081 
L 525.788545 484.3382 
L 526.639596 483.950705 
L 527.604121 483.720586 
L 528.341699 483.703931 
L 529.703382 483.934359 
L 530.61117 484.078105 
L 531.462221 484.042352 
L 532.596957 483.825945 
L 534.696217 483.448341 
L 538.951474 483.12343 
L 539.802526 483.26202 
L 540.823787 483.648124 
L 542.639364 484.507077 
L 543.376942 484.658207 
L 544.171256 484.55725 
L 545.362728 484.076942 
L 546.21378 483.7365 
L 547.121568 483.59698 
L 547.97262 483.734328 
L 549.731459 484.209826 
L 550.639247 484.160932 
L 551.490299 483.862699 
L 552.965455 483.206305 
L 553.476086 483.176843 
L 553.986716 483.358332 
L 554.667558 483.890812 
L 556.539871 485.631348 
L 557.163975 485.779014 
L 557.617869 485.619191 
L 558.1285 485.150028 
L 558.752605 484.221396 
L 560.795128 480.775019 
L 561.305759 480.417462 
L 561.759653 480.391855 
L 563.064599 482.221648 
L 564.483018 484.727397 
L 565.050385 485.289462 
L 565.504279 485.43072 
L 565.901437 485.330114 
L 566.412068 484.9179 
L 567.036172 484.100582 
L 568.681538 481.922833 
L 569.248906 481.579946 
L 569.7028 481.577452 
L 570.156694 481.819485 
L 570.610588 482.272183 
L 571.80206 483.913538 
L 572.766585 485.071658 
L 573.39069 485.53883 
L 574.128268 485.763034 
L 574.752372 485.68529 
L 575.48995 485.341495 
L 577.475737 484.293516 
L 578.837419 484.041095 
L 580.085628 483.840916 
L 581.2771 483.508535 
L 582.241625 483.323939 
L 583.149413 483.310388 
L 584.000464 483.41224 
L 585.702567 483.642673 
L 586.723829 483.549991 
L 589.787614 483.03398 
L 590.865613 483.402938 
L 592.454242 484.193468 
L 593.36203 484.364041 
L 594.156345 484.211685 
L 595.064133 483.839946 
L 596.198869 483.407585 
L 596.87971 483.322504 
L 597.674024 483.452422 
L 600.510863 484.467906 
L 601.191704 484.401878 
L 603.858332 483.88516 
L 604.76612 484.088404 
L 605.900855 484.342895 
L 606.581696 484.283536 
L 607.319274 484.009136 
L 608.170326 483.461761 
L 609.475271 482.705006 
L 609.985902 482.649527 
L 610.439796 482.786325 
L 611.063901 483.266009 
L 613.333371 485.436046 
L 613.730528 485.492247 
L 614.127686 485.351823 
L 614.58158 484.948608 
L 615.092211 484.223646 
L 616.056736 482.368629 
L 617.191471 480.304014 
L 617.758839 479.661371 
L 618.155996 479.474509 
L 618.496417 479.480226 
L 619.460942 480.853882 
L 620.311993 482.782381 
L 621.730412 485.851273 
L 622.29778 486.575266 
L 622.751674 486.84371 
L 623.205568 486.823838 
L 623.716199 486.49616 
L 624.453777 485.642393 
L 626.382827 483.22104 
L 627.063668 482.8679 
L 627.687772 482.812566 
L 629.843769 482.992161 
L 630.694821 482.849025 
L 631.94303 482.694511 
L 632.680607 482.817124 
L 633.758606 483.492911 
L 635.347235 484.651827 
L 636.14155 484.876803 
L 636.822391 484.759939 
L 637.559969 484.390427 
L 639.035125 483.6377 
L 639.82944 483.553927 
L 640.680491 483.747777 
L 643.290382 484.574988 
L 643.971223 484.447902 
L 645.105959 483.90245 
L 646.410904 483.25844 
L 647.488903 483.095535 
L 648.283217 483.237785 
L 651.006582 484.082503 
L 651.971107 484.027546 
L 654.524261 483.710993 
L 655.545523 483.941664 
L 656.963942 484.245045 
L 657.758257 484.090194 
L 658.779519 483.573038 
L 660.084464 483.020996 
L 660.765305 482.990902 
L 661.332673 483.12042 
L 663.375197 483.834062 
L 664.566669 483.864789 
L 666.665929 483.524218 
L 667.290033 483.734606 
L 667.914138 484.205785 
L 670.126871 486.261562 
L 670.580766 486.346811 
L 670.977923 486.21438 
L 671.488554 485.755948 
L 671.999185 484.996961 
L 672.736763 483.483863 
L 674.495602 479.859858 
L 675.006233 479.302041 
L 675.176443 479.202499 
L 675.176443 479.202499 
" clip-path="url(#p04a7ba5d95)" style="fill: none; stroke: #0000ff; stroke-width: 1.5; stroke-linecap: square"/>
   </g>
   <g id="patch_3">
    <path d="M 79.5 640.3905 
L 79.5 39.1875 
" style="fill: none; stroke: #000000; stroke-width: 0.8; stroke-linejoin: miter; stroke-linecap: square"/>
   </g>
   <g id="patch_4">
    <path d="M 703.541988 640.3905 
L 703.541988 39.1875 
" style="fill: none; stroke: #000000; stroke-width: 0.8; stroke-linejoin: miter; stroke-linecap: square"/>
   </g>
   <g id="patch_5">
    <path d="M 79.5 640.3905 
L 703.541988 640.3905 
" style="fill: none; stroke: #000000; stroke-width: 0.8; stroke-linejoin: miter; stroke-linecap: square"/>
   </g>
   <g id="patch_6">
    <path d="M 79.5 39.1875 
L 703.541988 39.1875 
" style="fill: none; stroke: #000000; stroke-width: 0.8; stroke-linejoin: miter; stroke-linecap: square"/>
   </g>
  </g>
 </g>
 <defs>
  <clipPath id="p04a7ba5d95">
   <rect x="79.5" y="39.1875" width="624.041988" height="601.203"/>
  </clipPath>
 </defs>
</svg>
